<?xml version="1.0" encoding="utf-8"?>
<!-- Generator: Adobe Illustrator 16.0.0, SVG Export Plug-In . SVG Version: 6.00 Build 0)  -->
<!DOCTYPE svg PUBLIC "-//W3C//DTD SVG 1.1//EN" "http://www.w3.org/Graphics/SVG/1.1/DTD/svg11.dtd">
<svg version="1.1"
	 id="body" xmlns:bar="http://www.3dbar.org" xmlns:cc="http://creativecommons.org/ns#" xmlns:dc="http://purl.org/dc/elements/1.1/" xmlns:inkscape="http://www.inkscape.org/namespaces/inkscape" xmlns:rdf="http://www.w3.org/1999/02/22-rdf-syntax-ns#" xmlns:sodipodi="http://sodipodi.sourceforge.net/DTD/sodipodi-0.dtd" xmlns:svg="http://www.w3.org/2000/svg" sodipodi:docname="63_pretrace_pretrace_v1.svg" inkscape:version="0.47pre4 r22446"
	 xmlns="http://www.w3.org/2000/svg" xmlns:xlink="http://www.w3.org/1999/xlink" x="0px" y="0px" width="1008px" height="1008px"
	 viewBox="0 0 1008 1008" enable-background="new 0 0 1008 1008" xml:space="preserve">
<sodipodi:namedview  showgrid="false" pagecolor="#ffffff" objecttolerance="10" inkscape:zoom="2.8703919" inkscape:cy="413.93299" inkscape:cx="516.43848" id="namedview238" guidetolerance="10" gridtolerance="10" borderopacity="1" bordercolor="#666666" inkscape:window-y="24" inkscape:pageshadow="2" inkscape:window-x="1680" inkscape:current-layer="content" inkscape:pageopacity="0" inkscape:window-width="1918" inkscape:window-maximized="1" inkscape:object-paths="true" inkscape:window-height="1128">
	</sodipodi:namedview>
<title  id="title3">SVG drawing</title>
<desc  id="desc5">This was produced by version 4.2 of GNU libplot, a free library for exporting 2-D vector graphics.</desc>
<defs>
	
	<rdf:RDF>
		<cc:Work  rdf:about="">
			<dc:format>image/svg+xml</dc:format>
			<dc:type  rdf:resource="http://purl.org/dc/dcmitype/StillImage"></dc:type>
		</cc:Work>
	</rdf:RDF>
	<bar:data  name="coronalcoord" content="1.56"></bar:data>
	
		<bar:data  name="rendererConf" content="{&apos;ReferenceHeight&apos;: 900, &apos;ReferenceWidth&apos;: 1200, &apos;imageSize&apos;: (1200, 900)}">
		</bar:data>
	
		<bar:data  name="tracingConf" content="{&apos;DumpEachStepSVG&apos;: False, &apos;DumpEachStepPNG&apos;: False, &apos;GrowDefaultBoundaryColor&apos;: 200, &apos;CacheLevel&apos;: 5, &apos;NewPathIdTemplate&apos;: &apos;structure%d_%s_%s&apos;, &apos;PoTraceConf&apos;: {&apos;potrace_accuracy_parameter&apos;: &apos;0.001&apos;, &apos;potrace_width_string&apos;: &apos;1200pt&apos;, &apos;potrace_svg_resolution_string&apos;: &apos;300x300&apos;, &apos;potrace_height_string&apos;: &apos;900pt&apos;}, &apos;DetectUnlabelled&apos;: True, &apos;DumpVBrain&apos;: False, &apos;DumpWrongSeed&apos;: True, &apos;DumpDirectory&apos;: &apos;.&apos;, &apos;MinFiterTimesApplication&apos;: 3, &apos;RegionAlreadyTraced&apos;: 100, &apos;UnlabelledTreshold&apos;: 500}">
		</bar:data>
	<bar:data  name="transformationmatrix" content="0.0176211454,-9.5150660793,0.0176211454,-1.5355884426"></bar:data>
</defs>
<g id="content">
	<path fill="#FF000C" d="M901.68,339.45c-3.96-41.01-19.108-80.16-43.619-112.62c-30.359-40.23-69.211-67.62-126.211-88.98
		c-26.188-9.81-53.58-15.48-83.43-17.28c-7.77-0.45-27.45-0.21-34.02,0.45c-16.17,1.62-28.682,4.5-39.15,9
		c-12.12,5.19-21.63,13.92-27.72,25.41c-3.03,5.73-5.761,14.102-6.69,20.49c-0.27,2.04-0.449,2.58-0.81,2.52
		c-0.011-0.002-0.021-0.012-0.03-0.015v232.281c0.037-0.003,0.077-0.005,0.12-0.005c0.239,0,0.6,1.41,1.05,4.26
		c1.53,9.78,1.53,15-0.029,27.93c-0.541,4.711-0.75,5.61-1.109,5.551c-0.012-0.002-0.021-0.006-0.03-0.009v58.365
		c0.028-0.015,0.06-0.032,0.09-0.037c0.36-0.09,0.511,0.12,0.511,0.69c0,0.93,4.949,20.58,6.51,25.8
		c3.569,12.03,8.189,20.16,14.939,26.312c5.311,4.828,33.391,27.629,42.45,34.47c9.45,7.108,16.438,10.89,22.08,11.938
		c2.67,0.512,23.58,1.801,34.38,2.131c16.95,0.511,32.939-0.421,43.891-2.58c13.351-2.609,32.431-10.051,42.119-16.439
		c2.58-1.71,4.711-2.79,8.7-4.41c18.96-7.71,26.312-10.92,35.729-15.63c22.471-11.19,33.271-20.13,39.841-32.94
		c3.028-5.85,4.5-10.619,5.31-17.1c1.29-10.08,3.03-13.561,14.73-29.58c13.59-18.57,17.43-24.66,24.93-39.54
		c13.891-27.569,22.771-55.56,25.47-80.13C902.43,363.061,902.43,347.01,901.68,339.45z"/>
	<path id="structure2_label85_vBrain" bar:type="" bar:growlevel="0" fill="#FF000C" d="M545.4,552.36
		c-1.472,0.988-2.4,2.488-2.4,3.898c0,2.552,1.68,4.052,4.2,3.722c1.29-0.182,1.44-0.12,1.739,0.568
		c0.181,0.391,0.689,0.811,1.109,0.932c2.7,0.658,4.65-3.812,2.67-6.15c-0.449-0.54-1.05-0.93-1.47-0.93s-0.78-0.211-0.87-0.54
		c-0.33-0.96-1.59-1.892-2.79-2.07C546.72,551.67,546.21,551.82,545.4,552.36z"/>
	<path id="structure100_text3047_Tu-1" bar:type="" bar:growlevel="0" fill="#FFEF00" d="M573.391,566.311
		c-1.351,0.091-1.891,0.239-1.891,0.511c0,0.54,12.811,11.01,28.65,23.46c12.119,9.54,19.47,13.858,25.74,15.148
		c1.528,0.301,5.129,0.69,8.01,0.87c2.88,0.15,8.699,0.54,12.898,0.812c9.66,0.658,35.102,0.75,41.7,0.148
		c11.67-1.02,19.32-2.398,27.3-4.89c5.79-1.8,11.7-3.99,11.7-4.352c0-0.209-0.392-0.51-0.87-0.659
		c-1.229-0.42-2.13-1.409-2.13-2.311c0-1.109,1.92-3.03,4.05-4.05c4.92-2.34,9.75-1.68,9.75,1.35c0,0.57,0.15,1.052,0.33,1.052
		c0.45,0,5.94-3.062,8.432-4.711c1.68-1.109,2.068-1.5,1.979-2.011c-0.09-0.358-2.07-3.239-4.439-6.42c-4.891-6.54-3.99-5.97-9-5.46
		c-3.091,0.33-5.039,1.08-6,2.311c-0.33,0.421-0.869,1.681-1.199,2.819c-1.17,3.96-2.73,4.92-8.461,5.34
		c-5.609,0.392-6.869,1.142-12.569,7.53c-4.86,5.432-5.91,6.09-9.72,6.09c-2.49,0-2.221,0.062-11.25-3.27
		c-2.37-0.87-5.551-0.96-6.99-0.24c-0.54,0.271-1.68,1.17-2.58,1.98c-1.8,1.648-2.58,2.039-4.08,2.039
		c-1.38,0-4.59-1.021-7.71-2.431c-3.03-1.38-5.58-1.89-8.34-1.62c-1.08,0.12-5.67,0.78-10.2,1.5
		c-12.21,1.98-15.03,2.312-19.65,2.312c-6.688,0-9.72-1.05-16.35-5.73c-4.71-3.3-9-6.66-14.609-11.46
		c-10.141-8.67-19.291-15.898-20.069-15.81C575.49,566.189,574.41,566.25,573.391,566.311z"/>
	<path id="structure101_text3049_Tu-1" bar:type="" bar:growlevel="0" fill="#FFEF00" d="M546.99,524.88
		c-0.721,0.601-1.29,1.32-1.29,1.62c0,0.84,2.489,9.39,3.75,12.78c1.68,4.62,5.01,11.068,7.2,13.979
		c2.039,2.7,7.74,8.341,8.459,8.341c0.33,0,0.359-0.33,0.211-1.471c-0.18-1.35-0.12-1.56,0.6-2.22c0.42-0.392,0.78-0.84,0.78-0.96
		s-1.261-1.62-2.761-3.36c-6.181-6.96-8.729-11.608-10.649-19.26c-0.21-0.84-0.45-1.11-1.229-1.29
		c-2.069-0.54-3.601-4.08-3.239-7.47C549.03,523.439,548.79,523.35,546.99,524.88z"/>
	<path fill="#FFB2BA" d="M552.45,357.96c-0.03-0.06-1.71,0.39-3.69,0.96c-2.01,0.57-4.77,1.26-6.18,1.53
		c-1.178,0.227-1.885,0.339-2.58,0.341v8.689c8.55,0,9.75,0.06,12.6,0.658c3.78,0.78,3.9,0.78,3.9,0.182
		C556.5,369.42,552.9,358.439,552.45,357.96z"/>
	<path id="structure105_Unlabeled-1846-1736_Unlabeled" bar:type="" bar:growlevel="0" fill="#FFB2BA" d="M553.2,520.65
		c-0.181,0.238-1.2,0.93-2.25,1.528c-1.771,1.052-1.89,1.17-2.07,2.46c-0.42,3.182,0.181,5.73,1.74,7.41
		c0.84,0.87,1.2,1.05,2.25,1.05c1.59,0,2.58-0.51,3.96-2.038c1.35-1.5,2.73-2.222,5.97-3.062c1.41-0.39,2.79-0.812,3.091-0.96
		c0.659-0.33,0.659-1.229-0.061-1.86c-0.75-0.688-4.62-2.34-7.891-3.39c-1.439-0.45-2.641-1.021-2.641-1.229
		C555.3,520.05,553.65,520.11,553.2,520.65z"/>
	<path id="structure107_Unlabeled-2444-1967_Unlabeled" bar:type="" bar:growlevel="0" fill="#FFB2BA" d="M731.49,589.92
		c-3.54,0.87-6.99,3.391-6.99,5.13c0,0.9,0.9,1.89,2.13,2.312c0.479,0.148,0.87,0.479,0.87,0.72s0.12,0.42,0.3,0.42
		c0.3,0,8.25-3.36,9.66-4.08c0.72-0.359,0.84-0.63,0.84-1.65c0-1.648-0.36-2.22-1.8-2.788
		C735.09,589.41,733.65,589.41,731.49,589.92z"/>
	<path id="structure10_label7_LAcbSh" bar:type="" bar:growlevel="0" fill="#FFFAB2" d="M590.85,429.061
		c-11.88,12.029-16.709,20.311-22.35,38.25l-1.26,3.959l0.63,0.812c1.41,1.8,2.1,6.51,2.34,16.021c0.3,12.391-0.69,21.359-2.64,24
		c-0.271,0.391,0.09,1.141,1.83,3.899c7.74,12.33,15.898,22.229,22.619,27.57c1.319,1.02,5.489,3.93,9.301,6.479
		c7.619,5.04,9.81,6.96,11.34,9.99c1.109,2.16,0.84,2.1,5.04,1.14c2.76-0.66,3.33-0.6,7.95,0.57c7.05,1.83,11.188,2.61,15.06,2.76
		c4.56,0.21,5.729-0.06,9.09-2.16c5.49-3.39,7.53-4.14,15.45-5.67c9.45-1.858,13.471-2.068,15.87-0.93
		c1.95,0.93,7.59,8.79,8.16,11.311c0.09,0.479,0.329,0.841,0.51,0.841c0.21,0,3.271-0.33,6.81-0.75c3.541-0.42,6.9-0.75,7.44-0.75
		c0.66,0,0.96-0.15,0.96-0.45c0-0.24-0.18-0.45-0.391-0.45c-0.811,0-2.909-1.8-3.569-3.061c-0.51-0.989-0.66-1.8-0.66-3.391
		c0-2.52,0.63-4.56,2.19-6.989c1.439-2.189,3-3.061,5.52-3.061c3.57,0,5.34,1.62,6.631,6.061c0.601,2.069,1.681,3.391,4.021,4.921
		c2.07,1.318,3.66,2.788,3.66,3.329c0,0.779,0.869,0.359,1.17-0.601c0.33-1.05,0.989-4.5,0.84-4.56c-0.03,0-0.96-0.75-2.069-1.59
		c-5.82-4.562-8.011-9.03-7.621-15.602c0.271-4.5,0.961-8.91,2.131-13.74c0.569-2.31,1.051-4.38,1.051-4.56
		c0-0.21-0.42-0.36-0.9-0.36c-0.811,0-0.99,0.182-1.529,1.41c-1.681,3.93-3.301,11.102-4.11,18.271
		c-0.659,5.789-2.64,7.14-4.289,2.88c-0.84-2.16-1.142-7.682-0.57-10.23c0.511-2.34,2.28-6.27,4.29-9.6
		c0.93-1.562,1.71-2.91,1.71-3.03s-2.52-0.51-5.608-0.87c-3.121-0.36-6.031-0.72-6.541-0.81c-0.721-0.12-0.959-0.03-1.199,0.54
		c-0.15,0.358-0.66,0.87-1.08,1.108c-0.721,0.392-0.87,0.392-1.59-0.09c-0.45-0.27-0.871-0.87-0.961-1.35l-0.18-0.812l-4.98-0.54
		c-2.76-0.27-5.43-0.568-5.909-0.66c-0.78-0.148-0.96-0.06-1.261,0.75c-0.479,1.32-1.561,1.74-3.09,1.23
		c-1.199-0.39-1.229-0.39-2.039,0.51c-4.08,4.681-11.012,8.34-17.701,9.36c-3.75,0.569-12.869-0.57-20.01-2.521
		c-18.631-5.101-31.021-15.421-37.381-31.051c-3.09-7.648-4.438-14.37-4.68-23.699c-0.21-8.91,0.602-14.789,2.79-20.311l0.812-2.01
		l-1.711-8.432c-0.961-4.619-2.039-9.81-2.431-11.55c-0.391-1.739-0.78-3.93-0.899-4.89c-0.149-1.32-0.301-1.71-0.689-1.71
		C595.891,424.2,593.49,426.39,590.85,429.061z"/>
	<path id="structure11_text3074_LSI" bar:type="" bar:growlevel="0" fill="#97FF00" d="M557.22,372.21
		c2.55,11.79,2.49,16.38-0.329,24.51c-3.24,9.33-8.671,15.54-14.221,16.261c-1.71,0.239-1.68,0.091-0.99,4.319
		c0.78,4.8,0.87,12.96,0.271,19.74l-0.54,5.91l1.739,2.398c5.369,7.472,11.25,20.94,13.021,29.7c2.04,10.17,3.689,28.38,3.03,33.33
		c-0.48,3.78-1.682,6.84-3.78,9.811c-1.59,2.221-1.38,2.399,1.472,1.439c2.64-0.93,7.17-1.83,10.108-2.04
		c1.979-0.12,2.7-0.3,2.7-0.6c0-0.21-0.69-1.5-1.561-2.88c-6.239-9.932-6.989-19.142-2.91-35.46
		c2.761-11.04,6.811-22.892,9.899-29.012c1.44-2.85,3.66-6.329,6.3-9.87c1.29-1.738,2.37-3.33,2.37-3.539
		c0-0.181-0.42-0.329-0.93-0.329c-1.29,0-2.46-1.352-3.33-3.841c-0.66-1.921-0.69-2.371-0.69-11.159
		c-0.028-7.472-0.119-9.57-0.51-11.4c-1.529-6.78-1.74-8.07-1.74-11.34c0-4.98,0.932-8.61,3-11.61c0.48-0.72,0.9-1.5,0.9-1.71
		c0-0.45-4.95-4.05-9.391-6.84c-4.561-2.85-12.359-6.6-13.739-6.6C557.16,371.4,557.1,371.7,557.22,372.21z"/>
	<path id="structure13_label9_LSV" bar:type="" bar:growlevel="0" fill="#92FF00" d="M580.109,386.04
		c-1.229,1.26-2.549,4.56-3.09,7.62c-0.63,3.66-0.391,7.68,0.75,12.9c1.381,6.18,1.681,9.93,1.261,15.688
		c-0.36,4.74-0.33,5.61,0.329,8.7c0.391,1.92,1.621,4.17,2.489,4.648c1.261,0.66,2.341,0.12,4.83-2.488
		c4.17-4.29,6.54-6.66,8.28-8.222l1.71-1.528l0.36-3.392c0.39-3.898,0.238-5.938-0.812-11.67c-1.05-5.76-2.31-10.53-3.93-14.97
		l-1.41-3.87l-1.319-0.21c-1.739-0.27-3.569-1.05-6.091-2.7c-1.14-0.75-2.188-1.35-2.31-1.35
		C581.01,385.2,580.561,385.561,580.109,386.04z"/>
	<path fill="#8CFF00" d="M557.37,373.68c-0.3-1.29-0.57-2.398-0.57-2.43c0-0.12-2.46-0.75-4.8-1.23c-1.52-0.307-6.939-0.535-12-0.6
		v39.33c0.12-0.09,0.391,0.9,0.6,2.13l0.392,2.28l1.38-0.21c7.109-0.99,13.771-10.29,16.05-22.32
		C559.29,386.16,558.87,379.77,557.37,373.68z"/>
	<path id="structure15_label11_LSD" bar:type="" bar:growlevel="0" fill="#DEFFB2" d="M577.8,345.87
		c-4.86,3.39-13.05,7.47-20.819,10.38c-3.42,1.29-4.229,1.71-4.17,2.16c0.029,0.3,0.989,3.27,2.101,6.6l2.04,6.03l2.55,0.96
		c5.521,2.1,11.16,5.37,18.93,10.95c2.882,2.069,6.271,4.29,7.591,4.95c2.521,1.289,4.381,1.59,4.381,0.72
		c0-0.271-0.961-3.48-2.131-7.14c-2.939-9.182-6.66-21.602-7.92-26.342c-1.109-4.199-1.229-5.608-0.721-7.59
		C580.5,344.22,580.38,344.1,577.8,345.87z"/>
	<path id="structure16_label12_CPu" bar:type="" bar:growlevel="0" fill="#FFEC00" d="M666.6,278.58
		c-9.75,1.26-18.898,5.43-28.59,13.08c-4.17,3.3-13.17,12.42-17.01,17.25l-3.12,3.99l-2.489,6.6c-5.551,14.76-6.24,18.39-7.891,41.1
		c-1.141,15.9-1.92,24.33-2.85,31.65c-1.261,9.689-2.49,23.55-3,33.66c-0.182,3.24-0.09,4.859,0.479,9.12
		c0.479,3.659,0.84,5.279,1.17,5.55c5.07,4.14,12.841,9.688,23.25,16.62c9.87,6.6,14.852,9.63,28.2,17.22
		c18.96,10.8,21.03,12.09,23.91,14.82c5.22,4.949,6.149,10.8,3.688,23.069l-0.75,3.659l0.84,0.841c0.48,0.449,0.932,1.05,0.99,1.261
		c0.12,0.33,1.41,0.568,4.801,0.96c5.279,0.63,7.471,0.688,7.471,0.27c0-0.148,0.39-0.479,0.84-0.72c0.99-0.51,2.01-0.15,2.58,0.87
		c0.18,0.33,0.359,0.66,0.39,0.72c0.12,0.18,10.802,1.5,12.302,1.53c1.108,0,1.379-0.15,2.459-1.38
		c1.59-1.801,3.061-2.91,3.42-2.551c0.181,0.181-0.029,0.961-0.511,1.979c-1.02,2.25-0.989,2.55,0.212,2.521
		c0.898,0,1.02-0.149,1.948-2.039c0.812-1.74,1.261-2.28,3-3.541c3.9-2.88,10.771-9.959,14.972-15.421
		c5.1-6.63,9.51-21.09,11.789-38.67c0.931-7.318,2.881-14.52,5.641-21c5.13-12.06,13.438-45.118,15.24-60.6
		c0.6-5.4,0.448-17.64-0.33-22.351c-2.07-12.931-6.87-25.859-14.011-37.859c-4.291-7.2-11.461-15.39-17.939-20.55
		c-14.4-11.43-32.82-18.57-54.45-21.09C679.35,278.7,668.58,278.34,666.6,278.58z"/>
	<path id="structure17_label16_IEn" bar:type="" bar:growlevel="0" fill="#5F23ED" d="M734.01,505.32
		c-3.24,3.84-8.699,9.21-11.31,11.1c-1.14,0.84-2.341,2.04-2.91,2.94c-2.58,4.05-5.16,16.89-4.8,24.028
		c0.15,3.722,0.72,5.61,2.4,8.07c1.289,1.86,6,6.24,6.719,6.24c0.211,0,0.451-0.512,0.541-1.141c0.688-4.08,2.34-8.851,4.26-12.359
		c5.49-9.96,16.8-20.94,24.33-23.58c0.84-0.3,1.56-0.721,1.56-0.87c0-0.18-0.989-0.72-2.159-1.17
		c-6.479-2.49-12.03-7.98-14.551-14.37c-0.42-1.11-0.93-2.01-1.109-2.01C736.8,502.2,735.48,503.61,734.01,505.32z"/>
	<path id="structure18_label20_DEn" bar:type="" bar:growlevel="0" fill="#E0E959" d="M749.25,462.811
		c-1.29,9.239-3.42,18.869-5.55,25.289c-1.351,4.052-3.9,9.66-5.37,11.82c-0.51,0.72-0.93,1.62-0.93,1.98
		c0,0.358,0.539,1.77,1.17,3.148c2.039,4.352,4.41,7.41,7.648,9.87c2.641,2.01,5.07,3.24,8.49,4.29
		c2.46,0.75,3.03,0.811,8.189,0.811c4.529,0.029,5.881-0.061,7.289-0.511c2.222-0.688,4.11-2.489,4.802-4.56
		c0.659-1.86,0.659-6.03,0.06-9c-1.5-7.23-3.72-11.432-15.81-30c-3.54-5.46-7.052-10.95-7.771-12.21
		c-0.72-1.29-1.47-2.341-1.68-2.341S749.34,462.03,749.25,462.811z"/>
	<path id="structure19_label21_AIV" bar:type="" bar:growlevel="0" fill="#EEF423" d="M776.55,468.84
		c-3.21,6.96-7.08,10.86-11.28,11.37c-0.84,0.09-1.47,0.33-1.47,0.54c0,0.18,0.841,1.02,1.89,1.86
		c1.021,0.84,3.602,2.938,5.701,4.68c11.311,9.271,23.789,15.69,43.021,22.11c7.108,2.34,20.58,6.3,21.51,6.3
		c0.54,0,0.722-0.391,1.29-2.7c0.72-3,2.91-7.83,5.01-11.1c0.75-1.17,1.381-2.222,1.381-2.37c0-0.15-2.521-1.29-5.609-2.58
		c-18.721-7.771-33.15-15.09-52.17-26.432c-3.961-2.368-7.41-4.318-7.65-4.318C777.93,466.23,777.24,467.34,776.55,468.84z"/>
	<path id="structure20_label22_AID" bar:type="" bar:growlevel="0" fill="#D0D447" d="M784.38,441.96
		c-0.09,0.21-0.36,1.68-0.63,3.24c-0.72,4.26-2.4,10.68-4.05,15.72c-0.841,2.46-1.5,4.561-1.5,4.71c0,0.33,13.83,8.58,21.75,12.99
		c11.34,6.3,26.64,13.62,39.72,18.93c3.689,1.5,4.32,1.681,4.561,1.29c0.449-0.779,7.08-10.05,10.5-14.67
		c1.801-2.43,3.271-4.59,3.271-4.8c0-0.271-1.562-0.96-4.29-1.86c-22.979-7.83-53.818-23.76-66.81-34.529
		C785.22,441.57,784.561,441.3,784.38,441.96z"/>
	<path id="structure21_label23_DI" bar:type="" bar:growlevel="0" fill="#C4C923" d="M784.8,430.32c0,4.83-0.09,9.18-0.18,9.66
		c-0.15,0.81,0.06,1.05,2.489,3.06c9.031,7.44,28.261,18.39,46.439,26.46c8.16,3.6,23.28,9.3,24.721,9.3
		c0.961,0,13.229-19.438,13.229-20.97c0-0.15-1.17-0.66-2.609-1.08c-21.271-6.42-55.319-20.61-78.329-32.67
		c-2.701-1.41-5.102-2.58-5.342-2.58C784.859,421.5,784.8,422.91,784.8,430.32z"/>
	<path id="structure22_label24_GI" bar:type="" bar:growlevel="0" fill="#C3C900" d="M783.12,399.061
		c0.239,2.189,1.021,13.051,1.26,17.851l0.21,3.96l5.13,2.7c18.96,9.989,45.75,21.6,67.2,29.159c4.86,1.71,14.88,4.859,15.03,4.71
		c0.75-0.75,10.649-21.21,10.649-22.021c0-0.18-1.92-0.688-4.41-1.17c-18.659-3.51-40.08-10.5-62.34-20.311
		c-7.289-3.209-22.381-10.709-27.899-13.859c-2.46-1.41-4.591-2.58-4.74-2.58S783.03,398.22,783.12,399.061z"/>
	<path id="structure23_label25_VCl" bar:type="" bar:growlevel="0" fill="#8847F2" d="M771.75,438c-2.73,0.72-5.04,1.74-7.561,3.39
		c-3.299,2.16-4.771,3.66-6.569,6.722c-2.61,4.438-6.45,12.27-6.63,13.528c-0.12,0.99,0.119,1.53,2.279,4.95
		c5.851,9.36,8.25,12.78,9.149,13.11c1.41,0.479,4.11,0.36,5.521-0.3c1.711-0.78,4.291-3.271,5.939-5.73
		c3.63-5.46,7.32-16.05,9.57-27.359c1.05-5.399,1.02-5.699-0.512-6.811C780.18,437.49,775.83,436.92,771.75,438z"/>
	<path id="structure24_label26_DCl" bar:type="" bar:growlevel="0" fill="#FFDE00" d="M781.68,394.86
		c-0.39,2.488-2.369,10.648-3.688,15.21c-2.7,9.39-6.12,17.01-10.021,22.229c-2.79,3.75-6.87,9.812-6.87,10.2
		c0,0.57,0.9,0.3,2.312-0.72c3.75-2.67,8.58-4.41,12.239-4.44c2.91-0.028,4.261,0.33,6.569,1.71c0.96,0.57,1.86,1.05,1.98,1.05
		c0.78,0,0.72-12.539-0.15-26.1c-0.93-14.46-1.44-20.4-1.83-20.4C782.04,393.6,781.8,394.17,781.68,394.86z"/>
	<path id="structure25_label27_S1ULp" bar:type="" bar:growlevel="0" fill="#FDFF76" d="M877.95,290.28
		c-24.24,8.88-71.16,26.52-91.351,34.318c-5.189,2.012-9.841,3.78-10.351,3.962c-0.479,0.18-1.021,0.42-1.142,0.538
		c-0.118,0.12,0.182,1.472,0.69,3.03c3.45,10.59,6.06,24.271,7.38,38.37c0.57,6.271,0.51,11.37-0.148,16.14
		c-0.48,3.301-0.512,4.592-0.301,7.2c0.149,1.74,0.391,3.3,0.511,3.392c1.29,1.229,20.489,11.13,29.31,15.118
		c22.53,10.2,43.801,17.37,63.21,21.302c6.48,1.318,7.2,1.318,7.65,0.21c7.8-19.32,11.49-30.512,14.46-43.771
		c3.03-13.649,3.96-21.93,3.96-35.34c-0.03-21.03-3.3-40.98-10.41-63.09c-1.62-5.01-1.68-5.16-2.46-5.13
		C888.51,286.53,883.561,288.21,877.95,290.28z"/>
	<path id="structure26_label28_S1J" bar:type="" bar:growlevel="0" fill="#E8E93B" d="M820.62,234.36
		c-36.72,34.108-55.47,51.3-62.88,57.63c-2.94,2.55-3.66,3.51-2.971,3.93c1.17,0.72,9.541,12.78,13.109,18.84
		c1.141,1.95,2.25,3.54,2.46,3.54c0.42,0,7.5-3.12,37.71-16.65c37.08-16.62,61.41-27.36,70.74-31.23c2.398-0.99,3.51-1.62,3.51-1.95
		c0-0.63-5.37-11.43-8.25-16.62c-4.529-8.1-10.47-17.22-16.02-24.6c-4.771-6.36-12.12-15.24-12.75-15.39
		C845.1,211.83,834,221.94,820.62,234.36z"/>
	<path id="structure27_label29_S1FL" bar:type="" bar:growlevel="0" fill="#FEFFB2" d="M728.25,147.21
		c-9.811,38.82-24.061,89.61-29.85,106.41c-0.69,1.95-1.2,3.75-1.142,3.99c0.062,0.27,2.58,1.53,6.091,3.06
		c20.189,8.76,32.489,16.08,41.279,24.54c0.78,0.75,1.59,1.29,1.86,1.23c0.239-0.03,2.399-2.31,4.77-5.04
		c13.29-15.21,47.58-51.18,72.21-75.75c4.32-4.29,7.83-7.95,7.83-8.16c0-0.45-5.76-5.73-11.46-10.47
		c-20.37-16.98-44.698-31.17-74.938-43.68c-5.852-2.43-13.44-5.34-13.92-5.34C730.71,138,729.78,141.15,728.25,147.21z"/>
	<path id="structure28_label30_M1" bar:type="" bar:growlevel="0" fill="#FBFF8E" d="M656.28,122.91
		c-0.271,2.04-1.771,19.35-5.431,61.89c-3.479,40.562-4.561,52.92-4.801,54.78l-0.18,1.23l5.04,1.26
		c13.05,3.27,20.819,5.85,38.729,12.93c3.84,1.5,7.079,2.7,7.141,2.61c0.688-0.69,6.328-18.72,11.67-37.44
		c8.55-29.79,21.75-79.62,21.75-81.96c0-0.69-0.42-0.87-7.262-3.15c-20.789-6.96-38.278-10.56-64.92-13.44l-1.56-0.15L656.28,122.91
		z"/>
	<path id="structure29_label31_M2" bar:type="" bar:growlevel="0" fill="#E2E923" d="M623.85,120.78
		c-17.76,1.08-29.699,3.06-40.8,6.688c-6.33,2.07-7.05,2.37-7.05,3.18c0,0.36,6.3,13.29,13.98,28.68
		c16.5,33.09,31.77,63.99,35.818,72.54l2.88,6.15h3.302c2.879,0.03,3.898,0.18,8.43,1.38c2.82,0.75,5.22,1.29,5.279,1.2
		c0.181-0.18,1.021-9.36,5.011-55.8c1.8-21.03,3.78-43.83,4.38-50.64c0.6-6.81,1.05-12.45,0.96-12.51
		C655.5,121.11,629.85,120.42,623.85,120.78z"/>
	<polygon fill="#F1F48E" points="539.91,204.54 540,204.566 540,199.41 	"/>
	<path fill="#F1F48E" d="M575.1,130.5c-0.24,0-1.92,0.78-3.75,1.74c-14.699,7.68-24.568,20.46-28.8,37.229
		c-1.71,6.812-2.22,12.09-2.46,24.812l-0.09,5.13v5.156l0.63,0.184c2.88,0.9,17.22,7.47,44.07,20.25
		c26.58,12.63,35.7,16.8,36.78,16.8c0.238,0,1.26-0.6,2.31-1.29c1.05-0.72,2.55-1.5,3.3-1.74c0.78-0.21,1.41-0.51,1.41-0.66
		C628.5,236.67,575.82,130.5,575.1,130.5z"/>
	<path id="structure31_label33_Cg2" bar:type="" bar:growlevel="0" fill="#DBDF6B" d="M540.061,251.31
		c0.09,43.77,0.119,46.53,0.629,47.82c0.99,2.58,3.03,4.11,5.791,4.38c1.771,0.18,2.521,0.69,1.051,0.69
		c-0.512,0-1.44,0.21-2.102,0.479c-0.93,0.36-1.229,0.66-1.38,1.41c-0.12,0.54-0.479,1.41-0.78,1.95
		c-0.3,0.54-0.568,1.11-0.568,1.29c0,0.57,1.29,0.24,1.83-0.48c0.869-1.05,4.109-2.55,6.029-2.76c2.011-0.21,4.619,0.48,5.879,1.562
		c1.08,0.898,1.562,0.93,5.342,0.148c8.939-1.83,17.01-5.28,22.5-9.63c3.09-2.46,9.96-9.21,12.658-12.42
		c4.262-5.07,8.371-12.3,18.302-32.1c2.489-4.95,4.858-9.45,5.278-10.02c0.42-0.57,0.78-1.2,0.78-1.35c0-0.18-1.59-0.99-3.54-1.8
		c-4.319-1.83-13.26-6-33.21-15.48c-28.2-13.41-42.87-20.1-44.069-20.1C540.03,204.9,540,208.44,540.061,251.31z"/>
	<path fill="#FF23E9" d="M542.58,303.09c-0.922-0.833-1.287-0.986-2.58-0.989v7.547c1.415,0.031,2.807-0.684,3.45-2.027
		C544.23,305.97,543.9,304.29,542.58,303.09z"/>
	<path fill="#97FF59" d="M783.3,374.76c-1.409-22.529-6.569-44.07-13.5-56.55c-11.76-21.09-25.35-35.64-42.78-45.84
		c-11.43-6.69-30.448-15-54.18-23.67l-5.58-2.07l-4.92-0.36c-11.699-0.87-21.81,0.51-28.949,3.93
		c-5.971,2.85-8.431,5.1-14.461,13.35c-8.729,11.94-16.319,21.33-20.069,24.78c-2.609,2.43-6.63,5.37-10.351,7.53
		c-1.77,1.05-4.529,2.76-6.149,3.81c-10.466,6.907-24.15,10.207-42.359,10.229v50.82c1.015-0.011,1.992-0.161,3.271-0.42
		c7.109-1.438,16.5-4.859,24.931-9.03c6.659-3.329,11.85-6.72,15.39-10.108c1.53-1.44,5.79-4.83,9.51-7.562
		c15.66-11.488,21.302-16.41,26.94-23.55c10.021-12.63,20.55-21.72,31.11-26.85c3.568-1.74,7.318-3.09,11.398-4.11
		c3.03-0.78,15.99-0.75,21.75,0c21.24,2.85,38.551,9.6,52.801,20.61c3.989,3.09,10.801,9.989,13.859,14.1
		c7.648,10.17,14.67,25.47,17.49,37.98c1.68,7.438,2.068,11.068,2.068,19.17c0,8.76-0.3,11.52-2.55,22.77
		c-3.479,17.49-9.21,38.521-12.96,47.46c-2.01,4.74-3.3,8.7-4.439,13.62c-1.079,4.681-1.141,6.63-0.149,6.602
		c0.18-0.03,1.438-2.28,2.79-5.04c4.14-8.46,8.939-16.32,15.09-24.66c4.83-6.511,9.03-17.46,12.15-31.53
		C782.939,388.92,783.75,381.78,783.3,374.76z"/>
	<path id="structure3_label0_LV" bar:type="" bar:growlevel="0" fill="#FF005D" d="M603.03,328.98
		c-1.352,0.568-9.421,6.688-12.841,9.688c-3.149,2.76-5.549,5.82-6.299,7.98c-1.021,2.85-0.57,8.608,1.26,16.5
		c0.75,3.148,4.89,17.1,8.67,29.13c4.229,13.5,4.529,15.148,4.529,26.22c0,8.55,0.181,10.8,0.899,10.8c0.271,0,0.42-1.38,0.54-5.188
		c0.148-4.5,1.771-21.33,3.061-32.16c0.239-1.98,0.721-7.44,1.051-12.15s0.66-9.03,0.75-9.6c0.06-0.602,0.358-5.852,0.6-11.7
		c0.27-5.85,0.6-11.79,0.75-13.2c0.54-4.83,0.9-13.319,0.6-14.55c-0.27-1.26-1.199-2.25-2.068-2.25
		C604.26,328.53,603.6,328.71,603.03,328.98z"/>
	<path id="structure4_label1_AcbSh" bar:type="" bar:growlevel="0" fill="#E9DA00" d="M590.85,429.061
		c-11.88,12.029-16.709,20.311-22.35,38.25l-1.26,3.959l0.63,0.812c1.41,1.8,2.1,6.51,2.34,16.021c0.3,12.391-0.69,21.359-2.64,24
		c-0.271,0.391,0.09,1.141,1.83,3.899c7.74,12.33,15.898,22.229,22.619,27.57c1.319,1.02,5.489,3.93,9.301,6.479
		c7.619,5.04,9.81,6.96,11.34,9.99c1.109,2.16,0.84,2.1,5.04,1.14c2.76-0.66,3.33-0.6,7.95,0.57c7.05,1.83,11.188,2.61,15.06,2.76
		c4.56,0.21,5.729-0.06,9.09-2.16c5.49-3.39,7.53-4.14,15.45-5.67c9.45-1.858,13.471-2.068,15.87-0.93
		c1.95,0.93,7.59,8.79,8.16,11.311c0.09,0.479,0.329,0.841,0.51,0.841c0.21,0,3.271-0.33,6.81-0.75c3.541-0.42,6.9-0.75,7.44-0.75
		c0.66,0,0.96-0.15,0.96-0.45c0-0.24-0.18-0.45-0.391-0.45c-0.811,0-2.909-1.8-3.569-3.061c-0.51-0.989-0.66-1.8-0.66-3.391
		c0-2.52,0.63-4.56,2.19-6.989c1.439-2.189,3-3.061,5.52-3.061c3.57,0,5.34,1.62,6.631,6.061c0.601,2.069,1.681,3.391,4.021,4.921
		c2.07,1.318,3.66,2.788,3.66,3.329c0,0.779,0.869,0.359,1.17-0.601c0.33-1.05,0.989-4.5,0.84-4.56c-0.03,0-0.96-0.75-2.069-1.59
		c-5.82-4.562-8.011-9.03-7.621-15.602c0.271-4.5,0.961-8.91,2.131-13.74c0.569-2.31,1.051-4.38,1.051-4.56
		c0-0.21-0.42-0.36-0.9-0.36c-0.811,0-0.99,0.182-1.529,1.41c-1.681,3.93-3.301,11.102-4.11,18.271
		c-0.659,5.789-2.64,7.14-4.289,2.88c-0.84-2.16-1.142-7.682-0.57-10.23c0.511-2.34,2.28-6.27,4.29-9.6
		c0.93-1.562,1.71-2.91,1.71-3.03s-2.52-0.51-5.608-0.87c-3.121-0.36-6.031-0.72-6.541-0.81c-0.721-0.12-0.959-0.03-1.199,0.54
		c-0.15,0.358-0.66,0.87-1.08,1.108c-0.721,0.392-0.87,0.392-1.59-0.09c-0.45-0.27-0.871-0.87-0.961-1.35l-0.18-0.812l-4.98-0.54
		c-2.76-0.27-5.43-0.568-5.909-0.66c-0.78-0.148-0.96-0.06-1.261,0.75c-0.479,1.32-1.561,1.74-3.09,1.23
		c-1.199-0.39-1.229-0.39-2.039,0.51c-4.08,4.681-11.012,8.34-17.701,9.36c-3.75,0.569-12.869-0.57-20.01-2.521
		c-18.631-5.101-31.021-15.421-37.381-31.051c-3.09-7.648-4.438-14.37-4.68-23.699c-0.21-8.91,0.602-14.789,2.79-20.311l0.812-2.01
		l-1.711-8.432c-0.961-4.619-2.039-9.81-2.431-11.55c-0.391-1.739-0.78-3.93-0.899-4.89c-0.149-1.32-0.301-1.71-0.689-1.71
		C595.891,424.2,593.49,426.39,590.85,429.061z"/>
	<path id="structure5_label2_VP" bar:type="" bar:growlevel="0" fill="#FFE900" d="M669.15,556.05c-10.95,1.98-13.23,2.73-18.9,6.12
		c-2.37,1.41-4.109,2.22-5.22,2.46c-3.15,0.66-8.73-0.09-18.181-2.49c-4.199-1.05-5.101-1.17-7.199-1.05
		c-4.682,0.271-7.352,1.74-7.352,3.96c0,2.312,1.471,3.602,5.762,5.04c2.729,0.93,2.879,0.93,8.188,0.9
		c2.97-0.03,10.59-0.09,16.95-0.15l11.55-0.09l3.45,0.87c11.64,2.88,15.39,2.94,25.529,0.45c4.229-1.021,5.279-1.5,5.551-2.521
		c0.51-2.01-0.75-4.89-3.96-9.12c-3.03-3.989-2.82-3.75-4.021-4.5c-0.93-0.54-1.47-0.63-4.649-0.6
		C674.28,555.36,671.7,555.6,669.15,556.05z"/>
	<path id="structure60_label68_cg" bar:type="" bar:growlevel="0" fill="#3FFF00" d="M628.08,238.53c-2.07,0.51-4.65,2.1-6.42,3.99
		c-1.471,1.59-2.34,3.09-6.27,10.98c-7.712,15.48-13.32,25.68-16.382,29.79c-0.989,1.35-3.81,4.5-6.27,6.99
		c-2.431,2.49-4.44,4.68-4.44,4.86c0,0.75,1.051,0.3,3.99-1.71c3.87-2.64,6.99-5.31,9.63-8.28c3.33-3.69,10.41-12.72,15.99-20.31
		c7.35-10.02,10.89-13.14,17.85-15.75c6.24-2.34,11.521-3.18,20.431-3.15c7.5,0,7.95-0.27,2.7-1.68
		c-20.131-5.34-22.319-5.85-26.041-5.938C630.87,238.26,628.74,238.35,628.08,238.53z"/>
	<path fill="#97FF59" d="M783.3,374.76c-1.409-22.529-6.569-44.07-13.5-56.55c-11.76-21.09-25.35-35.64-42.78-45.84
		c-11.43-6.69-30.448-15-54.18-23.67l-5.58-2.07l-4.92-0.36c-11.699-0.87-21.81,0.51-28.949,3.93
		c-5.971,2.85-8.431,5.1-14.461,13.35c-8.729,11.94-16.319,21.33-20.069,24.78c-2.609,2.43-6.63,5.37-10.351,7.53
		c-1.77,1.05-4.529,2.76-6.149,3.81c-10.466,6.907-24.15,10.207-42.359,10.229v50.82c1.015-0.011,1.992-0.161,3.271-0.42
		c7.109-1.438,16.5-4.859,24.931-9.03c6.659-3.329,11.85-6.72,15.39-10.108c1.53-1.44,5.79-4.83,9.51-7.562
		c15.66-11.488,21.302-16.41,26.94-23.55c10.021-12.63,20.55-21.72,31.11-26.85c3.568-1.74,7.318-3.09,11.398-4.11
		c3.03-0.78,15.99-0.75,21.75,0c21.24,2.85,38.551,9.6,52.801,20.61c3.989,3.09,10.801,9.989,13.859,14.1
		c7.648,10.17,14.67,25.47,17.49,37.98c1.68,7.438,2.068,11.068,2.068,19.17c0,8.76-0.3,11.52-2.55,22.77
		c-3.479,17.49-9.21,38.521-12.96,47.46c-2.01,4.74-3.3,8.7-4.439,13.62c-1.079,4.681-1.141,6.63-0.149,6.602
		c0.18-0.03,1.438-2.28,2.79-5.04c4.14-8.46,8.939-16.32,15.09-24.66c4.83-6.511,9.03-17.46,12.15-31.53
		C782.939,388.92,783.75,381.78,783.3,374.76z"/>
	<path id="structure62_label70_aca" bar:type="" bar:growlevel="0" fill="#DBFFB2" d="M632.189,483
		c-1.979,0.87-3.899,3.061-4.471,5.04c-0.96,3.24-0.06,6.75,2.91,11.13c2.55,3.811,5.102,6.09,9.42,8.34c1.98,1.051,4.5,2.37,5.61,3
		c1.92,1.051,2.01,1.08,2.76,0.602c1.771-1.171,2.7-4.62,2.67-9.96c-0.028-6.54-1.41-10.5-4.739-13.802
		C642.24,483.3,635.85,481.32,632.189,483z"/>
	<path id="structure63_label71_lo" bar:type="" bar:growlevel="0" fill="#B8FF00" d="M774.18,562.35
		c-2.608,0.66-5.22,2.19-7.229,4.2c-0.99,0.99-4.592,5.25-8.012,9.48c-3.42,4.229-6.448,7.858-6.688,8.068
		c-0.57,0.48-0.601,1.5-0.03,1.5c0.24,0,1.352-0.39,2.46-0.868c1.142-0.48,5.79-2.37,10.32-4.23
		c15.93-6.54,30.392-13.26,30.24-14.07c-0.12-0.6-4.562-2.43-8.4-3.51C783.3,561.93,776.97,561.66,774.18,562.35z"/>
	<path id="structure64_label72_mfb" bar:type="" bar:growlevel="0" fill="#925FDC" d="M669.15,556.05
		c-10.95,1.98-13.23,2.73-18.9,6.12c-2.37,1.41-4.109,2.22-5.22,2.46c-3.15,0.66-8.73-0.09-18.181-2.49
		c-4.199-1.05-5.101-1.17-7.199-1.05c-4.682,0.271-7.352,1.74-7.352,3.96c0,2.312,1.471,3.602,5.762,5.04
		c2.729,0.93,2.879,0.93,8.188,0.9c2.97-0.03,10.59-0.09,16.95-0.15l11.55-0.09l3.45,0.87c11.64,2.88,15.39,2.94,25.529,0.45
		c4.229-1.021,5.279-1.5,5.551-2.521c0.51-2.01-0.75-4.89-3.96-9.12c-3.03-3.989-2.82-3.75-4.021-4.5
		c-0.93-0.54-1.47-0.63-4.649-0.6C674.28,555.36,671.7,555.6,669.15,556.05z"/>
	<path id="structure66_label74_LSS" bar:type="" bar:growlevel="0" fill="#8F6BE1" d="M714.84,519.84
		c-3.09,3.18-6.15,8.37-7.77,13.11c-0.602,1.77-0.721,2.67-0.721,5.7c0.029,5.039,1.141,8.55,2.699,8.55c1.32,0,1.771-1.32,2.4-6.96
		c0.72-6.721,2.43-13.26,4.8-18.54C718.32,517.08,717.96,516.6,714.84,519.84z"/>
	<path id="structure67_label75_ICj" bar:type="" bar:growlevel="0" fill="#E9DB00" d="M567.87,557.37
		c-1.86,0.27-2.37,0.75-2.37,2.19c0,1.648,0.9,3.238,2.88,4.979c1.351,1.2,1.979,1.56,3.09,1.71c2.97,0.39,8.37-0.96,10.62-2.67
		c2.16-1.65,2.221-3.33,0.24-5.34l-1.17-1.142l-5.94,0.03C571.92,557.16,568.62,557.28,567.87,557.37z"/>
	<path id="structure68_label76_ICjM" bar:type="" bar:growlevel="0" fill="#FFF459" d="M567,471.99c0,0.06-0.63,2.52-1.38,5.49
		c-3.12,12.329-3.57,20.01-1.59,27.42c0.84,3.148,2.64,6.898,3.27,6.898c1.261,0,2.22-5.25,2.73-14.79
		c0.6-12-0.72-25.108-2.55-25.108C567.21,471.9,567,471.93,567,471.99z"/>
	<path id="structure69_label77_ICj" bar:type="" bar:growlevel="0" fill="#E9DB00" d="M648.84,571.47
		c-1.02,0.841-1.32,2.13-0.72,3.3c1.05,2.012,3.72,3.302,10.41,4.98c6.09,1.561,7.739,1.29,9.18-1.47
		c0.96-1.86-0.149-4.38-2.101-4.83c-0.359-0.062-2.76-0.63-5.311-1.23c-2.97-0.688-5.729-1.14-7.648-1.229
		C649.92,570.84,649.59,570.9,648.84,571.47z"/>
	<path id="structure6_label3_VP" bar:type="" bar:growlevel="0" fill="#FFE900" d="M705.75,549.36c-1.439,0.51-3.03,2.25-4.08,4.56
		c-0.811,1.74-1.02,2.58-1.109,4.68c-0.091,2.25-0.029,2.7,0.601,3.9c0.87,1.59,2.67,2.82,5.069,3.45
		c3.029,0.81,12.391,0.42,14.851-0.602c1.229-0.51,1.59-1.618,0.899-2.698c-0.271-0.392-1.471-1.41-2.699-2.222
		c-2.971-2.01-4.11-3.39-4.922-6.09c-0.84-2.64-1.828-4.02-3.479-4.77C709.53,548.97,707.189,548.85,705.75,549.36z"/>
	<path id="structure70_label78_E" bar:type="" bar:growlevel="0" fill="#FF0045" d="M613.65,317.28
		c-5.01,4.71-8.312,7.29-24.9,19.648c-4.35,3.21-6.93,5.82-8.189,8.16c-0.721,1.41-0.811,1.86-0.811,4.71
		c0,3.03,0.09,3.45,2.189,10.65c3.091,10.62,7.891,25.77,10.17,32.1c1.921,5.34,3,9.3,4.351,16.05
		c0.601,3.091,0.69,4.32,0.69,11.552c0,8.068,0,8.1,0.99,12.148c0.51,2.22,1.68,7.62,2.608,12c2.07,9.96,2.76,12.602,3.392,12.602
		c0.688,0,0.328-4.41-1.291-15.66c-1.051-7.32-1.351-10.352-1.351-13.32c0-6.57,1.32-22.41,3-35.67c0.96-7.53,1.68-15.72,2.851-31.8
		c0.961-13.141,1.26-16.261,1.979-20.49c1.05-6.18,2.7-11.94,5.55-19.41C617.22,314.49,617.07,314.1,613.65,317.28z M606.03,329.28
		c0.688,0.75,0.72,0.87,0.688,5.608c0,2.672-0.238,7.352-0.51,10.41c-0.271,3.062-0.63,9.182-0.811,13.65
		c-0.181,4.438-0.359,8.58-0.449,9.148c-0.092,0.57-0.42,5.04-0.75,9.9c-0.36,4.859-1.021,12.42-1.5,16.8
		c-2.58,23.25-3.092,30.45-2.641,37.351l0.239,3.301l-1.08-4.352c-1.02-4.08-1.079-4.59-0.989-8.398
		c0.301-13.71-0.121-16.41-5.101-32.312c-8.399-26.909-9.75-32.31-9.78-39.09c0-3.63,0.03-3.81,0.99-5.76
		c1.68-3.45,6.45-7.95,14.939-14.13C603.689,328.2,604.71,327.87,606.03,329.28z M600.811,438.061
		c-0.091,0.239-0.181,0.149-0.181-0.181c-0.03-0.33,0.06-0.51,0.15-0.39C600.87,437.58,600.9,437.85,600.811,438.061z
		 M601.41,441.36c-0.09,0.238-0.18,0.148-0.18-0.182c-0.03-0.33,0.06-0.51,0.148-0.39C601.47,440.88,601.5,441.15,601.41,441.36z"/>
	<path id="structure71_label79_IG" bar:type="" bar:growlevel="0" fill="#B2FF00" d="M547.859,306.87
		c-1.649,0.569-3.061,1.649-3.061,2.34c0,0.271,0.48,0.39,1.74,0.39c2.068,0,9.99-0.81,10.229-1.05
		c0.392-0.39-0.568-1.229-1.948-1.71C552.9,306.18,549.87,306.18,547.859,306.87z"/>
	<path id="structure76_label84_olfa" bar:type="" bar:growlevel="0" fill="#A282D0" d="M550.8,555.36
		c-0.03,0.898-0.96,2.97-1.59,3.51c-0.69,0.569-0.63,1.319,0.181,2.069c1.319,1.261,2.851,0.601,3.659-1.591
		c0.87-2.278,0.091-4.648-1.56-4.648C550.98,554.7,550.8,554.88,550.8,555.36z"/>
	<path id="structure79_label93_acer" bar:type="" bar:growlevel="0" fill="#F200DD" d="M544.5,553.14
		c-1.35,1.352-1.74,2.852-1.23,4.591c0.45,1.471,1.562,2.221,3.182,2.189c2.398-0.06,4.05-1.95,4.05-4.59
		c0-1.35-0.12-1.71-0.87-2.46s-1.109-0.87-2.43-0.87C545.79,552,545.52,552.12,544.5,553.14z"/>
	<path fill="#A8E959" d="M555.72,473.46c-1.92-8.28-8.04-21.96-12.45-27.899c-1.89-2.521-2.039-2.341-2.698,3
		c-0.212,1.591-0.45,2.851-0.57,2.789V498.9c0.18,0,0.3,0.898,0.3,2.1c0,3.42,0.811,7.89,2.971,16.32
		c1.141,4.41,2.159,8.1,2.279,8.22c0.092,0.09,0.36,0.06,0.57-0.09c0.21-0.182,1.648-1.141,3.21-2.13c3.84-2.521,4.95-3.511,6.569-6
		c2.011-3.09,3.029-6.392,3.209-10.472C559.439,499.95,557.55,481.35,555.72,473.46z"/>
	<path id="structure84_Unlabeled-826-850_S1DZ" bar:type="" bar:growlevel="0" fill="#FEFF3B" d="M820.8,208.41
		c-26.97,27.15-53.729,55.17-67.5,70.74c-5.37,6.06-6.659,7.62-6.54,7.92c0.24,0.66,7.141,7.53,7.562,7.53
		c0.27,0,2.25-1.59,4.438-3.51c16.59-14.64,85.83-78.75,85.98-79.59c0.06-0.3-2.07-2.76-5.34-6.24c-5.432-5.76-7.052-7.26-7.83-7.26
		C831.33,198,826.47,202.68,820.8,208.41z"/>
	<path id="structure86_Unlabeled-658-1088_S1DZO" bar:type="" bar:growlevel="0" fill="#E8E900" d="M877.65,270.96
		c-17.82,7.68-36.33,15.87-73.95,32.7c-11.97,5.37-24.3,10.89-27.42,12.27c-3.091,1.352-5.7,2.642-5.79,2.852
		c-0.061,0.18,0.479,1.56,1.199,3c0.721,1.47,1.711,3.658,2.16,4.83c0.479,1.199,1.021,2.188,1.229,2.188
		c0.239,0,2.34-0.75,4.68-1.68c21.54-8.4,84.931-32.19,103.591-38.88c2.311-0.812,4.561-1.62,5.041-1.8
		c0.479-0.18,0.81-0.51,0.81-0.87c0-0.63-2.49-7.142-4.89-12.812c-1.021-2.46-1.682-3.66-2.012-3.63
		C882.061,269.13,879.96,269.97,877.65,270.96z"/>
	<path id="structure88_text6710_Pir-2" bar:type="" bar:growlevel="0" fill="#F3FF59" d="M813.99,511.35
		c-1.471,1.262-2.551,3.33-4.771,9.302c-3.42,9.118-6.119,13.318-9.568,14.85c-4.98,2.25-10.5,2.22-19.65,0
		c-2.07-0.51-5.13-1.08-6.84-1.26c-9.12-0.99-20.82,2.608-24.54,7.59c-3.06,4.08-5.851,12.96-6.3,20.07
		c-0.301,5.1-1.41,6.6-4.74,6.6c-1.141,0-1.38,0.09-1.38,0.54c0,0.33,0.27,0.81,0.63,1.14c0.359,0.302,1.32,1.41,2.13,2.46
		l1.53,1.892l1.979-0.21c5.7-0.57,7.711-2.79,10.381-11.37c1.561-5.011,2.819-7.83,4.771-10.771c2.04-3.06,3.87-4.739,6.479-6
		c1.739-0.84,2.221-0.93,4.5-0.898c1.5,0.03,6.84,0.72,12.899,1.71c17.521,2.85,18.181,2.88,21.45,1.32
		c4.409-2.132,9.45-7.2,11.67-11.73c0.898-1.891,3.359-9.811,5.46-17.7c0.87-3.239,0.96-6.148,0.21-7.02
		c-0.602-0.66-3.061-1.562-4.29-1.562C815.52,510.3,814.71,510.72,813.99,511.35z"/>
	<path fill="#DDFFB2" d="M555.72,473.46c-1.92-8.28-8.04-21.96-12.45-27.899c-1.89-2.521-2.039-2.341-2.698,3
		c-0.212,1.591-0.45,2.851-0.57,2.789V498.9c0.18,0,0.3,0.898,0.3,2.1c0,3.42,0.811,7.89,2.971,16.32
		c1.141,4.41,2.159,8.1,2.279,8.22c0.092,0.09,0.36,0.06,0.57-0.09c0.21-0.182,1.648-1.141,3.21-2.13c3.84-2.521,4.95-3.511,6.569-6
		c2.011-3.09,3.029-6.392,3.209-10.472C559.439,499.95,557.55,481.35,555.72,473.46z"/>
	<path id="structure90_text6712_Pir-3" bar:type="" bar:growlevel="0" fill="#D8E900" d="M763.5,481.95
		c0,0.239,0.72,1.56,1.59,2.938c4.71,7.262,7.471,12.512,8.88,16.682c3,8.938,2.102,15.119-2.489,17.49
		c-2.551,1.288-7.681,1.738-12.899,1.108c-3.062-0.39-4.32-0.149-7.53,1.47c-4.38,2.16-11.22,7.98-15.568,13.23
		c-6.03,7.29-9.9,15.148-10.562,21.479c-0.21,1.92-0.21,1.92,0.812,2.73c0.568,0.479,3,2.79,5.43,5.16l4.41,4.35l1.89-0.15
		c3.84-0.328,4.38-1.078,4.74-6.539c0.39-5.881,1.86-11.461,4.439-16.801c2.13-4.41,4.771-6.63,10.439-8.818
		c4.41-1.711,7.05-2.131,13.021-2.131c5.01,0.029,5.461,0.061,9.75,1.109c6.09,1.5,8.881,1.86,12.869,1.65
		c4.592-0.211,7.5-1.23,9.631-3.36c2.489-2.489,4.079-5.7,8.399-17.069c0.93-2.461,1.41-3.271,2.729-4.649
		c0.899-0.9,1.619-1.74,1.619-1.86c0-0.09-1.438-0.688-3.209-1.318c-10.771-3.75-23.25-9.392-29.671-13.44
		c-3.84-2.43-8.729-6.06-13.92-10.351C764.34,481.561,763.5,481.05,763.5,481.95z"/>
	<path id="structure92_text6714_Pir-1" bar:type="" bar:growlevel="0" fill="#C6D400" d="M820.98,513.24
		c0.238,1.858-0.15,3.72-2.131,10.41c-0.869,2.97-1.921,6.659-2.369,8.188c-1.32,4.681-3.36,8.13-7.052,11.76
		c-3.569,3.512-7.92,6-10.5,6c-1.47,0-7.438-0.84-16.229-2.25c-11.79-1.89-12.99-2.038-15.39-1.89c-1.23,0.09-2.61,0.39-3.212,0.689
		c-4.739,2.399-8.22,7.591-10.948,16.229c-1.5,4.71-2.61,7.229-3.932,8.97c-1.079,1.41-3.96,2.79-6.329,3.03
		c-1.229,0.15-1.891,0.33-1.891,0.601c0,0.631,8.13,11.369,8.67,11.459c0.54,0.092,2.79-2.488,11.43-13.14
		c6.602-8.13,7.86-9.21,12.03-10.62c5.37-1.8,11.102-1.17,19.41,2.131c2.101,0.84,3.63,1.289,4.05,1.17
		c2.13-0.511,14.91-8.521,19.71-12.301c4.92-3.898,10.141-9.81,13.32-15.09c3.51-5.88,6-13.41,6.63-20.34l0.21-2.13l-7.59-2.16
		c-4.2-1.2-7.74-2.16-7.86-2.16C820.891,511.8,820.859,512.46,820.98,513.24z"/>
	<path id="structure97_text3045_Tu-2" bar:type="" bar:growlevel="0" fill="#FFFAB2" d="M583.8,561.72c0,1.021-2.88,2.97-5.61,3.78
		c-1.379,0.42-1.618,0.84-0.75,1.41c1.23,0.75,13.17,10.438,18.36,14.88c8.49,7.29,16.92,13.56,20.55,15.24
		c3.42,1.59,5.222,1.92,10.801,1.89c5.49,0,7.051-0.21,20.699-2.4c10.92-1.77,12.36-1.77,17.041,0.302
		c4.229,1.858,5.67,2.278,7.92,2.278c1.83,0,1.891-0.028,3.75-1.648c2.641-2.312,3.569-2.7,6.09-2.67
		c1.801,0.029,2.729,0.27,6.359,1.71c5.37,2.069,6.812,2.43,9.54,2.25c3.12-0.21,4.23-0.96,8.851-6.03
		c5.881-6.51,7.261-7.29,12.99-7.68c2.01-0.15,4.079-0.42,4.561-0.63c1.62-0.632,2.52-1.802,3.21-4.11
		c1.17-4.05,3.239-5.4,8.729-5.7c1.829-0.12,2.909-0.3,2.909-0.51c0-0.392-1.53-2.34-3.33-4.29l-1.229-1.352l-3.96,0.121
		c-3.271,0.091-4.141,0.239-5.16,0.75c-1.53,0.811-1.74,1.051-2.521,3.181c-1.289,3.448-3.06,4.62-8.34,5.43
		c-4.71,0.75-7.92,2.25-10.32,4.92c-0.6,0.66-1.77,2.55-2.64,4.23c-1.68,3.27-2.399,4.05-4.319,4.56
		c-1.291,0.391-1.801,0.3-10.83-1.68c-1.801-0.391-4.801-0.87-6.631-1.051c-3.028-0.329-3.6-0.301-6.75,0.301
		c-5.879,1.14-8.369,0.66-12.358-2.34c-1.261-0.961-2.67-1.74-3.722-2.04c-2.31-0.66-5.31-0.45-7.198,0.54
		c-0.812,0.39-2.521,1.289-3.841,1.979c-3.029,1.561-5.76,2.311-11.25,3.09c-7.291,1.051-11.431,0.54-17.069-2.188
		c-3.09-1.472-3.12-1.5-9.3-7.71c-8.19-8.25-13.801-12.78-21.422-17.312C584.25,561.21,583.8,561.03,583.8,561.72z"/>
	<path id="structure98_text7331_Tu-2" bar:type="" bar:growlevel="0" fill="#FFFAB2" d="M562.17,528.12
		c-2.82,0.84-4.32,1.68-5.609,3.21c-0.541,0.63-1.471,1.32-2.041,1.53l-1.08,0.39l0.182,1.561c0.238,2.159,1.979,6.899,3.51,9.539
		c1.62,2.852,3.96,5.972,7.32,9.78l2.699,3.03l3.119-0.18c1.711-0.092,4.472-0.182,6.091-0.182c2.461,0,2.971-0.09,2.881-0.42
		c-0.062-0.24-2.07-2.67-4.5-5.37c-5.101-5.729-6.24-7.229-7.41-9.84c-1.32-2.97-1.83-5.46-2.04-9.81
		c-0.12-2.61-0.3-3.96-0.51-3.932C564.6,527.46,563.43,527.76,562.17,528.12z"/>
	<path id="structure99_text7333_Tu-3" bar:type="" bar:growlevel="0" fill="#E9E159" d="M566.55,517.71
		c-4.56,0.42-11.25,2.13-11.25,2.91c0,0.18,1.2,0.72,2.64,1.17c3.78,1.2,7.262,2.79,8.16,3.66l0.75,0.78l-0.72,0.6
		c-0.72,0.57-0.72,0.63-0.54,5.01c0.21,6.09,1.38,9.721,4.2,13.32c2.94,3.779,10.47,11.938,11.01,11.938c0.66,0,3,2.58,3,3.302
		c0,0.33,1.14,1.17,3.24,2.398c7.47,4.38,13.44,9.09,21.06,16.74c3.211,3.24,6.42,6.33,7.17,6.87c5.16,3.96,12.121,5.16,21.42,3.688
		c5.432-0.84,7.352-1.47,11.972-3.84c3.688-1.92,3.899-1.979,6-1.979c2.608,0,4.68,0.84,7.38,2.938
		c0.93,0.75,2.311,1.591,3.061,1.86c1.771,0.66,6.061,0.66,8.791,0c3.778-0.9,7.648-0.54,16.618,1.47
		c8.28,1.89,9.271,1.562,12.091-4.05c2.729-5.4,6.181-7.68,13.351-8.85c4.92-0.78,6.239-1.65,7.5-4.95
		c0.42-1.11,1.08-2.312,1.44-2.641c1.078-1.021,3.148-1.591,6.448-1.771c2.16-0.12,3.062-0.3,3.062-0.54
		c0-0.601-8.7-8.851-9.301-8.851s-0.721,0.301-1.051,2.25c-0.359,2.101-1.29,3.391-3.119,4.261c-1.649,0.81-1.711,0.81-10.08,0.989
		c-5.819,0.149-10.351,0.421-14.761,0.931l-6.358,0.72l-0.182,0.932c-0.33,1.83-1.71,2.398-9.6,4.08
		c-3.78,0.778-5.13,0.93-8.46,0.93c-2.19,0-3.99,0.09-3.99,0.21s0.21,0.688,0.45,1.26c0.84,2.07-0.721,4.68-3.21,5.37
		c-1.08,0.27-1.771,0.18-5.972-0.9c-2.608-0.66-5.729-1.648-6.93-2.22c-3.449-1.59-4.949-3.81-3.689-5.49
		c0.899-1.17,0.66-1.26-4.711-1.47c-3.778-0.15-6.539-0.061-10.229,0.27c-2.76,0.271-5.818,0.48-6.811,0.48
		c-1.351,0-1.801,0.09-1.801,0.42c0,0.24,0.271,0.51,0.602,0.63c0.96,0.3,1.8,1.62,1.8,2.82c0,4.14-6.03,5.85-7.979,2.28
		c-1.08-2.04,0.659-5.04,3.181-5.432c1.409-0.238,1.68-1.02,0.33-1.02c-1.29,0-5.97-1.44-7.65-2.34c-0.81-0.45-1.739-1.2-2.04-1.711
		c-0.72-1.199-0.689-2.881,0.061-3.84c0.841-1.051,0.75-1.591-0.51-3.779c-1.5-2.49-4.08-4.86-8.399-7.711
		c-11.431-7.471-14.16-9.569-18.812-14.609c-4.41-4.74-10.05-12.12-13.8-18C570.18,517.32,570.3,517.38,566.55,517.71z"/>
	<path id="structure9_label6_AcbC" bar:type="" bar:growlevel="0" fill="#FFF359" d="M603,441.09c0,0.03,0.27,1.95,0.57,4.26
		c1.26,8.972,1.41,12.15,0.63,12.15c-0.3,0-1.38-2.76-1.65-4.29c-0.149-0.78-0.39-1.11-0.75-1.11c-1.05,0-2.729,6.99-3.33,13.83
		c-1.229,14.131,2.431,29.551,9.54,40.29c2.79,4.23,8.73,10.11,13.141,13.05c9.391,6.24,22.229,10.32,34.619,11.012
		c4.021,0.238,6.84-0.21,10.892-1.71c4.26-1.562,6.448-2.91,9.479-5.79c2.579-2.49,2.819-2.79,2.67-3.63
		c-0.211-1.23,0.391-2.25,1.619-2.82c0.93-0.45,1.051-0.69,1.53-2.729c0.899-3.899,1.44-8.189,1.44-11.729
		c0-5.91-1.142-8.97-4.472-12.271c-2.729-2.729-5.039-4.199-20.729-13.141c-7.5-4.26-15.931-9.148-18.75-10.859
		c-9.03-5.461-25.89-16.949-32.7-22.261C604.23,441.39,603,440.64,603,441.09z M639.54,483.03c3.87,1.29,8.19,4.92,9.81,8.22
		c1.381,2.82,1.771,5.04,1.801,9.9c0,3.539-0.119,4.89-0.569,6.33c-0.57,1.92-2.01,4.02-2.729,4.02
		c-0.449,0-9.301-4.62-11.399-5.939c-2.64-1.649-5.94-5.791-7.86-9.841c-1.05-2.188-1.14-2.55-1.14-5.1c0-2.49,0.06-2.82,0.899-4.2
		c1.051-1.65,3.359-3.54,4.92-3.99C634.71,482.04,637.23,482.28,639.54,483.03z"/>
	
		<text id="label30" bar:growlevel="0" transform="matrix(1 0 0 1 676.5703 192.7891)" fill="#232323" enable-background="new    " font-family="'TimesNewRomanPSMT'" font-size="9">M1</text>
	
		<text id="label31" bar:growlevel="0" transform="matrix(1 0 0 1 620.8496 183.0967)" fill="#232323" enable-background="new    " font-family="'TimesNewRomanPSMT'" font-size="9">M2</text>
	
		<text id="label32" bar:growlevel="0" transform="matrix(1 0 0 1 572.8398 199.29)" fill="#232323" enable-background="new    " font-family="'TimesNewRomanPSMT'" font-size="9">Cg1</text>
	
		<text id="label33" bar:growlevel="0" transform="matrix(1 0 0 1 561 259.1904)" fill="#232323" enable-background="new    " font-family="'TimesNewRomanPSMT'" font-size="9">Cg2</text>
	
		<text id="label34" bar:growlevel="0" transform="matrix(1 0 0 1 541.2373 304.7988)" fill="#232323" enable-background="new    " font-family="'TimesNewRomanPSMT'" font-size="9">azp</text>
	
		<text id="label9" bar:growlevel="0" transform="matrix(1 0 0 1 585.4805 412.4375)" fill="#232323" enable-background="new    " font-family="'TimesNewRomanPSMT'" font-size="9">LSV</text>
	
		<text id="label0" bar:growlevel="0" transform="matrix(1 0 0 1 590.9805 360.4277)" fill="#232323" enable-background="new    " font-family="'TimesNewRomanPSMT'" font-size="9">LV</text>
	
		<text id="label1" bar:growlevel="0" transform="matrix(1 0 0 1 583.4902 519.0156)" fill="#232323" enable-background="new    " font-family="'TimesNewRomanPSMT'" font-size="9">AcbSh</text>
	
		<text id="label2" bar:growlevel="0" transform="matrix(1 0 0 1 665.7402 567.6045)" fill="#232323" enable-background="new    " font-family="'TimesNewRomanPSMT'" font-size="9">VP</text>
	
		<text id="label3" bar:growlevel="0" transform="matrix(1 0 0 1 703 561.8535)" fill="#232323" enable-background="new    " font-family="'TimesNewRomanPSMT'" font-size="9">VP</text>
	
		<text id="label4" bar:growlevel="0" transform="matrix(1 0 0 1 543.9688 508.5234)" fill="#232323" enable-background="new    " font-family="'TimesNewRomanPSMT'" font-size="9">VDB</text>
	
		<text id="label5" bar:growlevel="0" transform="matrix(1 0 0 1 548.75 471.9004)" fill="#232323" enable-background="new    " font-family="'TimesNewRomanPSMT'" font-size="9">MS</text>
	
		<text id="label6" bar:growlevel="0" transform="matrix(1 0 0 1 657.8496 509.6143)" fill="#232323" enable-background="new    " font-family="'TimesNewRomanPSMT'" font-size="9">AcbC</text>
	
		<text id="label7" bar:growlevel="0" transform="matrix(1 0 0 1 673.3701 538.1689)" fill="#232323" enable-background="new    " font-family="'TimesNewRomanPSMT'" font-size="9">LAcbSh</text>
	
		<text id="label84" bar:growlevel="0" transform="matrix(1 0 0 1 551.0254 559.8379)" fill="#232323" enable-background="new    " font-family="'TimesNewRomanPSMT'" font-size="9">olfa</text>
	
		<text id="label88" bar:growlevel="0" transform="matrix(1 0 0 1 539.4805 427.9395)" fill="#232323" enable-background="new    " font-family="'TimesNewRomanPSMT'" font-size="9">vBrain</text>
	
		<text id="Unlabeled-1846-1736" bar:growlevel="0" transform="matrix(1 0 0 1 554.4004 525.9004)" fill="#232323" enable-background="new    " font-family="'TimesNewRomanPSMT'" font-size="9">ICj   </text>
	
		<text id="text3074" bar:growlevel="0" transform="matrix(1 0 0 1 550.8936 442.1357)" fill="#232323" enable-background="new    " font-family="'TimesNewRomanPSMT'" font-size="9">LSI</text>
	
		<text id="label12" bar:growlevel="0" transform="matrix(1 0 0 1 682.0898 386.7324)" fill="#232323" enable-background="new    " font-family="'TimesNewRomanPSMT'" font-size="9">CPu</text>
	
		<text id="label10" bar:growlevel="0" transform="matrix(1 0 0 1 545.7002 394.2002)" fill="#232323" enable-background="new    " font-family="'TimesNewRomanPSMT'" font-size="9">SHi</text>
	
		<text id="label11" bar:growlevel="0" transform="matrix(1 0 0 1 579.75 378.9004)" fill="#232323" enable-background="new    " font-family="'TimesNewRomanPSMT'" font-size="9">LSD</text>
	
		<text id="label16" bar:growlevel="0" transform="matrix(1 0 0 1 723.6201 530.1582)" fill="#232323" enable-background="new    " font-family="'TimesNewRomanPSMT'" font-size="9">IEn</text>
	
		<text id="label93" bar:growlevel="0" transform="matrix(1 0 0 1 545.3232 554.3574)" fill="#232323" enable-background="new    " font-family="'TimesNewRomanPSMT'" font-size="9">acer</text>
	
		<text id="Unlabeled-1760-1196" bar:growlevel="0" transform="matrix(1 0 0 1 547.3281 364.2881)" fill="#232323" enable-background="new    " font-family="'TimesNewRomanPSMT'" font-size="9">DP</text>
	
		<text id="text6714" bar:growlevel="0" transform="matrix(1 0 0 1 784.0879 554.3574)" fill="#232323" enable-background="new    " font-family="'TimesNewRomanPSMT'" font-size="9">Pir-1</text>
	
		<text id="text6712" bar:growlevel="0" transform="matrix(1 0 0 1 778.8672 529.7744)" fill="#232323" enable-background="new    " font-family="'TimesNewRomanPSMT'" font-size="9">Pir-3</text>
	
		<text id="text6710" bar:growlevel="0" transform="matrix(1 0 0 1 782.3535 541.6436)" fill="#232323" enable-background="new    " font-family="'TimesNewRomanPSMT'" font-size="9">Pir-2</text>
	
		<text id="Unlabeled-826-850" bar:growlevel="0" transform="matrix(1 0 0 1 799.8711 240.999)" fill="#232323" enable-background="new    " font-family="'TimesNewRomanPSMT'" font-size="9">S1DZ</text>
	
		<text id="label69" bar:growlevel="0" transform="matrix(1 0 0 1 762.5605 327.1025)" fill="#232323" enable-background="new    " font-family="'TimesNewRomanPSMT'" font-size="9">ec</text>
	
		<text id="label68" bar:growlevel="0" transform="matrix(1 0 0 1 627.2803 246.6484)" fill="#232323" enable-background="new    " font-family="'TimesNewRomanPSMT'" font-size="9">cg</text>
	
		<text id="text7333" bar:growlevel="0" transform="matrix(1 0 0 1 634.5254 583.7881)" fill="#232323" enable-background="new    " font-family="'TimesNewRomanPSMT'" font-size="9">Tu-3</text>
	
		<text id="text7331" bar:growlevel="0" transform="matrix(1 0 0 1 564.7988 548.541)" fill="#232323" enable-background="new    " font-family="'TimesNewRomanPSMT'" font-size="9">Tu-2</text>
	
		<text id="label78" bar:growlevel="0" transform="matrix(1 0 0 1 609.4297 326.5322)" fill="#232323" enable-background="new    " font-family="'TimesNewRomanPSMT'" font-size="9">E</text>
	
		<text id="label79" bar:growlevel="0" transform="matrix(1 0 0 1 554.4004 307.876)" fill="#232323" enable-background="new    " font-family="'TimesNewRomanPSMT'" font-size="9">IG</text>
	
		<text id="label74" bar:growlevel="0" transform="matrix(1 0 0 1 708.752 537.6445)" fill="#232323" enable-background="new    " font-family="'TimesNewRomanPSMT'" font-size="9">LSS</text>
	
		<text id="label75" bar:growlevel="0" transform="matrix(1 0 0 1 574.6201 561.1533)" fill="#232323" enable-background="new    " font-family="'TimesNewRomanPSMT'" font-size="9">ICj</text>
	
		<text id="label76" bar:growlevel="0" transform="matrix(1 0 0 1 565.4395 492.1914)" fill="#232323" enable-background="new    " font-family="'TimesNewRomanPSMT'" font-size="9">ICjM</text>
	
		<text id="label77" bar:growlevel="0" transform="matrix(1 0 0 1 659.1094 576.126)" fill="#232323" enable-background="new    " font-family="'TimesNewRomanPSMT'" font-size="9">ICj</text>
	
		<text id="label70" bar:growlevel="0" transform="matrix(1 0 0 1 635.1602 498.4521)" fill="#232323" enable-background="new    " font-family="'TimesNewRomanPSMT'" font-size="9">aca</text>
	
		<text id="label71" bar:growlevel="0" transform="matrix(1 0 0 1 771.2402 572.2949)" fill="#232323" enable-background="new    " font-family="'TimesNewRomanPSMT'" font-size="9">lo</text>
	
		<text id="label72" bar:growlevel="0" transform="matrix(1 0 0 1 646.1406 569.3945)" fill="#232323" enable-background="new    " font-family="'TimesNewRomanPSMT'" font-size="9">mfb</text>
	
		<text id="Unlabeled-658-1088" bar:growlevel="0" transform="matrix(1 0 0 1 840.4629 294.3574)" fill="#232323" enable-background="new    " font-family="'TimesNewRomanPSMT'" font-size="9">S1DZO</text>
	
		<text id="Unlabeled-2444-1967" bar:growlevel="0" transform="matrix(1 0 0 1 730.2002 593.7002)" fill="#232323" enable-background="new    " font-family="'TimesNewRomanPSMT'" font-size="9">ICj</text>
	
		<text id="text3048" bar:growlevel="0" transform="matrix(1 0 0 1 550.8281 334.2041)" fill="#FF0000" enable-background="new    " font-family="'TimesNewRomanPSMT'" font-size="9">.gcc</text>
	
		<text id="text3049" bar:growlevel="0" transform="matrix(1 0 0 1 560.0137 553.3525)" fill="#232323" enable-background="new    " font-family="'TimesNewRomanPSMT'" font-size="9">Tu-1</text>
	
		<text id="text3045" bar:growlevel="0" transform="matrix(1 0 0 1 638.5771 593.5908)" fill="#232323" enable-background="new    " font-family="'TimesNewRomanPSMT'" font-size="9">Tu-2</text>
	
		<text id="text3047" bar:growlevel="0" transform="matrix(1 0 0 1 643.4961 602.8779)" fill="#232323" enable-background="new    " font-family="'TimesNewRomanPSMT'" font-size="9">Tu-1</text>
	
		<text id="label23" bar:growlevel="0" transform="matrix(1 0 0 1 815.8398 453.7646)" fill="#232323" enable-background="new    " font-family="'TimesNewRomanPSMT'" font-size="9">DI</text>
	
		<text id="label22" bar:growlevel="0" transform="matrix(1 0 0 1 805.4902 475.5879)" fill="#232323" enable-background="new    " font-family="'TimesNewRomanPSMT'" font-size="9">AID</text>
	
		<text id="label21" bar:growlevel="0" transform="matrix(1 0 0 1 793.3496 495.332)" fill="#232323" enable-background="new    " font-family="'TimesNewRomanPSMT'" font-size="9">AIV</text>
	
		<text id="label20" bar:growlevel="0" transform="matrix(1 0 0 1 748.3105 504.043)" fill="#232323" enable-background="new    " font-family="'TimesNewRomanPSMT'" font-size="9">DEn</text>
	
		<text id="label27" bar:growlevel="0" transform="matrix(1 0 0 1 831.9199 364.3789)" fill="#232323" enable-background="new    " font-family="'TimesNewRomanPSMT'" font-size="9">S1ULp</text>
	
		<text id="label26" bar:growlevel="0" transform="matrix(1 0 0 1 769.1504 436.5117)" fill="#232323" enable-background="new    " font-family="'TimesNewRomanPSMT'" font-size="9">DCl</text>
	
		<text id="label25" bar:growlevel="0" transform="matrix(1 0 0 1 759.46 459.8057)" fill="#232323" enable-background="new    " font-family="'TimesNewRomanPSMT'" font-size="9">VCl</text>
	
		<text id="label24" bar:growlevel="0" transform="matrix(1 0 0 1 823.3906 433.3408)" fill="#232323" enable-background="new    " font-family="'TimesNewRomanPSMT'" font-size="9">GI</text>
	
		<text id="label29" bar:growlevel="0" transform="matrix(1 0 0 1 744.0605 216.7031)" fill="#232323" enable-background="new    " font-family="'TimesNewRomanPSMT'" font-size="9">S1FL</text>
	
		<text id="label28" bar:growlevel="0" transform="matrix(1 0 0 1 812.7695 274.8633)" fill="#232323" enable-background="new    " font-family="'TimesNewRomanPSMT'" font-size="9">S1J</text>
</g>
</svg>
