<?xml version="1.0" encoding="utf-8"?>
<!-- Generator: Adobe Illustrator 16.0.0, SVG Export Plug-In . SVG Version: 6.00 Build 0)  -->
<!DOCTYPE svg PUBLIC "-//W3C//DTD SVG 1.1//EN" "http://www.w3.org/Graphics/SVG/1.1/DTD/svg11.dtd">
<svg version="1.1"
	 id="body" xmlns:bar="http://www.3dbar.org" xmlns:cc="http://creativecommons.org/ns#" xmlns:dc="http://purl.org/dc/elements/1.1/" xmlns:inkscape="http://www.inkscape.org/namespaces/inkscape" xmlns:rdf="http://www.w3.org/1999/02/22-rdf-syntax-ns#" xmlns:sodipodi="http://sodipodi.sourceforge.net/DTD/sodipodi-0.dtd" xmlns:svg="http://www.w3.org/2000/svg" sodipodi:docname="56_pretrace_pretrace_v1.svg" inkscape:version="0.47pre4 r22446"
	 xmlns="http://www.w3.org/2000/svg" xmlns:xlink="http://www.w3.org/1999/xlink" x="0px" y="0px" width="1008px" height="1008px"
	 viewBox="0 0 1008 1008" enable-background="new 0 0 1008 1008" xml:space="preserve">
<sodipodi:namedview  showgrid="false" pagecolor="#ffffff" objecttolerance="10" inkscape:zoom="1.8730159" inkscape:cy="590.53794" inkscape:cx="446.04071" id="namedview209" guidetolerance="10" gridtolerance="10" borderopacity="1" bordercolor="#666666" inkscape:window-height="1125" inkscape:window-y="25" inkscape:current-layer="content" inkscape:pageshadow="2" inkscape:window-x="1680" inkscape:window-width="1920" inkscape:pageopacity="0" inkscape:window-maximized="1">
	</sodipodi:namedview>
<title  id="title3">SVG drawing</title>
<desc  id="desc5">This was produced by version 4.2 of GNU libplot, a free library for exporting 2-D vector graphics.</desc>
<defs>
	
	<rdf:RDF>
		<cc:Work  rdf:about="">
			<dc:format>image/svg+xml</dc:format>
			<dc:type  rdf:resource="http://purl.org/dc/dcmitype/StillImage"></dc:type>
		</cc:Work>
	</rdf:RDF>
	<bar:data  name="coronalcoord" content="2.52"></bar:data>
	
		<bar:data  name="rendererConf" content="{&apos;ReferenceHeight&apos;: 900, &apos;ReferenceWidth&apos;: 1200, &apos;imageSize&apos;: (1200, 900)}">
		</bar:data>
	
		<bar:data  name="tracingConf" content="{&apos;DumpEachStepSVG&apos;: False, &apos;DumpEachStepPNG&apos;: False, &apos;GrowDefaultBoundaryColor&apos;: 200, &apos;CacheLevel&apos;: 5, &apos;NewPathIdTemplate&apos;: &apos;structure%d_%s_%s&apos;, &apos;PoTraceConf&apos;: {&apos;potrace_accuracy_parameter&apos;: &apos;0.001&apos;, &apos;potrace_width_string&apos;: &apos;1200pt&apos;, &apos;potrace_svg_resolution_string&apos;: &apos;300x300&apos;, &apos;potrace_height_string&apos;: &apos;900pt&apos;}, &apos;DetectUnlabelled&apos;: True, &apos;DumpVBrain&apos;: False, &apos;DumpWrongSeed&apos;: True, &apos;DumpDirectory&apos;: &apos;.&apos;, &apos;MinFiterTimesApplication&apos;: 3, &apos;RegionAlreadyTraced&apos;: 100, &apos;UnlabelledTreshold&apos;: 500}">
		</bar:data>
	<bar:data  name="transformationmatrix" content="0.0176211454,-9.5150660793,0.0176211454,-1.5355884426"></bar:data>
</defs>
<g id="content">
	<path fill="#FF000C" d="M872.4,312.15c-3.271-44.7-25.26-91.38-58.95-125.041c-15.45-15.45-37.261-32.46-56.16-43.8
		c-33.24-19.95-65.94-30.51-105.99-34.29c-6.81-0.63-24.87-0.9-31.5-0.45c-18.33,1.229-33.51,4.92-45.93,11.13
		c-6.84,3.42-11.16,6.45-16.44,11.55c-8.069,7.8-13.38,15.66-15.898,23.64c-0.512,1.59-0.932,3.182-0.932,3.51
		c0,0.39-0.209,0.6-0.539,0.6c-0.021,0-0.039-0.006-0.061-0.009l0.143,304.868c0.317-0.034,0.457,0.114,0.457,0.511
		c0,0.36,1.352,4.649,2.972,9.569c3.239,9.659,5.22,17.131,6.448,24.211c1.052,6.09,1.052,6.06,3.78,10.648
		c1.32,2.221,2.4,4.23,2.4,4.41c0,0.21-0.24,0.39-0.54,0.39c-0.301,0-0.84,0.212-1.2,0.48c-0.81,0.569-0.81,2.13-0.03,2.608
		c0.75,0.48,2.04,0,2.25-0.84c0.09-0.42,0.33-0.75,0.54-0.75c0.182,0,0.932,1.051,1.65,2.34c3.75,6.48,11.76,19.711,14.069,23.132
		c5.819,8.64,12.931,16.77,18.029,20.579c9.12,6.811,21.812,11.609,31.83,12.029c5.131,0.24,9.9-0.27,23.102-2.398
		c5.52-0.9,14.16-2.19,19.199-2.881c18.961-2.521,30.33-5.609,43.051-11.699c4.648-2.221,6.449-2.91,22.648-8.7
		c28.98-10.351,37.17-14.13,42.811-19.71c6.451-6.42,11.881-17.102,14.791-29.19c0.72-3.09,0.75-4.26,0.119-6.09
		c-0.51-1.528-2.91-3.96-4.199-4.29c-1.26-0.33-0.78-1.02,1.32-1.979c8.938-4.17,17.43-10.051,24.06-16.71
		c4.29-4.29,7.14-7.771,13.8-16.83c2.88-3.87,6.75-9,8.67-11.4c12.78-16.05,21.689-32.188,28.771-52.08
		C869.52,365.13,874.05,334.8,872.4,312.15z"/>
	<path fill="#EBFFB2" d="M547.38,450.27c-0.239-1.229-0.6-3.568-0.78-5.22c-0.479-4.319-0.72-22.86-0.358-28.5
		c0.18-2.64,0.27-4.83,0.239-4.89c-0.078-0.078-4.938-0.968-6.361-1.184l0.007,14.135l7.524,28.059
		C547.74,452.55,547.62,451.47,547.38,450.27z"/>
	<path id="structure12_label11_DTT-2" bar:type="" bar:growlevel="0" fill="#BFFF00" d="M546.45,415.561
		c-0.36,5.459-0.271,22.92,0.12,27.391c0.39,4.318,1.14,9.18,1.5,9.54c0.119,0.12,1.68,0,3.42-0.271
		c3.779-0.568,3.688-0.45,3.63-4.77c-0.03-2.102-0.33-3.78-1.29-7.5c-1.98-7.71-2.04-8.73-0.9-22.261
		c0.18-2.159,0.271-4.17,0.211-4.471c-0.061-0.42-0.569-0.63-2.341-0.898c-1.229-0.21-2.67-0.392-3.18-0.392l-0.96-0.028
		L546.45,415.561z"/>
	<path id="structure13_text3016_DP" bar:type="" bar:growlevel="0" fill="#F6FF00" d="M585.21,379.08
		c-5.76,2.939-19.74,8.1-24.06,8.85c-3.03,0.51-7.83,0.182-14.37-1.05c-3.12-0.6-5.91-1.08-6.21-1.08c-0.54,0-0.57,0.48-0.57,12.24
		v12.24l3.54,0.659c8.58,1.591,13.26,2.221,18.06,2.371l4.95,0.18l3.3-1.11c3.392-1.14,9.78-4.08,13.53-6.24
		c2.521-1.409,2.13-0.09,3.42-11.488c1.14-10.171,1.47-16.65,0.87-16.65C587.43,378.03,586.35,378.51,585.21,379.08z"/>
	<path id="structure17_label18_AIV" bar:type="" bar:growlevel="0" fill="#EEF423" d="M717.9,401.37
		c-3.42,2.55-15.301,9.06-23.642,12.93c-3,1.41-5.46,2.7-5.46,2.88c0,0.182,2.012,2.61,4.44,5.4c8.55,9.81,26.67,31.74,34.29,41.55
		c5.818,7.5,7.828,11.851,7.828,16.86v2.67l0.961,0.33c0.511,0.148,2.341,1.02,4.08,1.92c4.74,2.4,5.971,2.16,7.74-1.53
		c1.859-3.87,6.239-5.61,10.351-4.11c9.688,3.541,13.26,4.711,18.028,5.91l5.61,1.41l5.16-2.58c6.3-3.148,11.729-6.51,11.851-7.319
		c0.061-0.421-4.859-5.341-18.451-18.421c-10.198-9.81-28.02-26.97-39.6-38.158c-15.42-14.852-21.27-20.312-21.75-20.312
		C718.95,400.8,718.32,401.07,717.9,401.37z"/>
	<path id="structure18_label19_AID" bar:type="" bar:growlevel="0" fill="#D0D447" d="M730.891,390.061
		c-1.439,2.011-5.069,5.489-8.101,7.801c-1.53,1.17-2.79,2.278-2.79,2.488c0,0.211,6.99,7.11,15.54,15.36
		c50.64,48.81,63.99,61.59,64.38,61.59c1.32,0,10.35-8.31,14.79-13.62c3.66-4.35,10.89-14.188,10.89-14.818
		c0-0.422-2.31-2.04-8.91-6.21c-36.778-23.312-67.17-42.722-78.028-49.86c-3.36-2.189-6.271-3.99-6.479-3.99
		C731.97,388.8,731.4,389.37,730.891,390.061z"/>
	<path id="structure19_label20_Cl" bar:type="" bar:growlevel="0" fill="#FFEA59" d="M728.46,371.55
		c-4.5,1.562-7.56,3.39-10.68,6.511c-5.49,5.459-12.15,8.67-31.11,14.939c-15.029,4.98-18.09,6.57-22.5,11.79
		c-5.76,6.84-8.97,14.25-9.029,21.06c-0.061,3.78,0.329,5.4,2.369,9.9c2.37,5.311,3.42,7.14,4.32,7.561
		c2.25,1.079,4.74-1.08,8.04-6.961c3.81-6.75,6.51-10.289,10.47-13.77c3.33-2.91,6.061-4.53,15.54-9.18
		c19.71-9.631,29.88-16.472,35.22-23.7c1.801-2.431,3.961-6.931,4.62-9.63c0.931-3.78,0.421-8.19-1.05-8.972
		C733.68,370.561,730.74,370.77,728.46,371.55z"/>
	<path id="structure20_text3018_IL" bar:type="" bar:growlevel="0" fill="#F7FF23" d="M582.51,326.85
		c-6.119,4.59-8.699,6.211-11.55,7.29c-1.74,0.66-2.49,0.78-5.46,0.78c-4.141-0.03-7.8-0.66-17.97-3.15
		c-4.021-0.959-7.352-1.77-7.41-1.77c-0.06,0-0.12,1.32-0.12,2.97c0,2.852,0.03,2.971,0.78,3.48c2.7,1.77,2.67,9.21-0.03,10.648
		L540,347.49v18.99v19.02l0.689,0.15c0.359,0.06,2.971,0.539,5.761,1.05c11.43,2.01,13.77,1.89,23.13-1.32
		c6.061-2.069,11.34-4.26,16.26-6.72l2.19-1.08L587.85,375c-0.27-3.66-0.93-7.47-1.949-11.1c-1.141-4.23-1.949-8.34-2.551-13.08
		c-0.42-3.301-0.449-4.53-0.148-7.352c0.54-5.699,2.068-11.729,4.38-17.31c1.108-2.642,1.229-3.36,0.66-3.36
		C588.03,322.8,585.45,324.63,582.51,326.85z"/>
	<path id="structure22_label22_DI" bar:type="" bar:growlevel="0" fill="#C4C923" d="M735.15,382.11
		c-0.45,1.29-1.2,3.06-1.682,3.898c-0.479,0.87-0.869,1.83-0.869,2.16c0,0.42,1.021,1.26,3.541,2.91
		c9.84,6.51,27.358,17.729,57.358,36.78c30.45,19.318,32.04,20.34,32.49,20.34c0.33,0,8.04-9.602,11.67-14.551
		c3.75-5.101,11.04-16.92,11.04-17.851c0-0.33-3.061-1.41-11.79-4.14c-14.88-4.68-78.57-24.84-91.11-28.86
		c-5.189-1.649-9.51-3-9.63-3C736.08,379.8,735.6,380.85,735.15,382.11z"/>
	<path id="structure23_label23_GI" bar:type="" bar:growlevel="0" fill="#C3C900" d="M735.45,371.46c0.96,3.06,1.05,3.81,0.87,5.97
		l-0.18,2.28l1.59,0.45c0.898,0.27,9.06,2.85,18.119,5.729c33.811,10.801,92.58,29.312,93,29.312c0.51,0,4.83-8.64,7.471-14.91
		c4.26-10.2,8.43-22.89,7.5-22.89c-0.09,0-14.01-0.75-30.961-1.65c-51.239-2.73-75.869-3.99-88.409-4.5
		c-2.13-0.09-5.101-0.24-6.57-0.33l-2.67-0.18L735.45,371.46z"/>
	<path id="structure24_label24_S1J" bar:type="" bar:growlevel="0" fill="#E8E93B" d="M842.85,232.32
		c-1.47,0.87-14.64,8.49-29.25,16.89c-29.22,16.86-73.38,42.42-84.06,48.69c-7.53,4.38-7.26,4.14-6.36,6.63
		c1.562,4.38,3.66,14.159,4.65,21.42c0.779,5.91,1.08,17.46,0.6,22.95c-0.779,8.58-2.76,16.35-5.58,21.988
		c-1.35,2.672-1.59,3.512-1.08,3.512c0.121,0,1.472-0.602,2.94-1.32c4.021-2.01,6.479-2.61,9.99-2.43
		c1.56,0.09,6.239,0.3,10.35,0.479c11.58,0.48,39.66,1.891,79.65,4.021c20.04,1.08,37.2,1.948,38.13,1.948h1.68l1.53-6.238
		c3.42-13.95,5.399-27.15,6.12-41.222c0.57-10.77-0.18-22.199-2.19-34.14c-3.329-19.74-10.53-40.44-20.55-59.19
		c-2.82-5.31-3.029-5.61-3.54-5.61C845.7,230.73,844.35,231.45,842.85,232.32z"/>
	<path id="structure25_label25_S1DZ" bar:type="" bar:growlevel="0" fill="#FEFF3B" d="M830.1,211.86
		C805.439,228.6,718.2,290.34,718.2,291.06c0,0.15,0.45,1.32,0.989,2.58c0.569,1.29,1.471,3.57,2.011,5.07
		c0.75,2.13,1.11,2.79,1.53,2.79c0.3,0,3.209-1.56,6.479-3.48c10.74-6.3,83.37-48.33,111.932-64.77c3.148-1.8,4.56-2.79,4.56-3.15
		c0-1.38-12.12-19.83-12.99-19.77C832.5,210.33,831.33,211.02,830.1,211.86z"/>
	<path id="structure26_label26_CPu" bar:type="" bar:growlevel="0" fill="#FFEC00" d="M663.45,298.32
		c-4.65,0.898-9.81,2.608-13.5,4.438c-2.22,1.14-6.24,3.75-7.71,5.102c-1.41,1.229-6.18,9.12-8.91,14.76
		c-3.54,7.2-11.7,24.72-13.561,29.01c-3.539,8.311-9.271,25.41-11.819,35.22c-4.32,16.771-4.62,17.67-8.25,23.58
		c-0.99,1.62-1.8,3.062-1.8,3.24c0,0.42,0.24,0.42,3.148-0.12c3.12-0.569,10.23-0.569,14.16,0c3.57,0.511,8.311,1.681,11.13,2.73
		c6.812,2.55,15.57,8.76,27.931,19.83c1.891,1.71,3.631,3.09,3.84,3.09c0.66,0,0.451-1.021-0.811-3.66
		c-1.14-2.46-1.408-2.76-6.84-7.92c-3.09-2.97-7.41-6.96-9.568-8.91c-5.07-4.53-6.812-6.75-9.541-12.149
		c-2.521-5.069-4.351-11.489-4.351-15.359c0-2.19,0.96-5.91,2.01-7.83c1.052-1.95,3.99-4.681,6.12-5.73
		c0.932-0.449,5.7-1.949,10.65-3.358c10.408-2.94,13.979-4.11,19.77-6.392c17.311-6.84,24.96-14.46,27.78-27.688
		c0.57-2.58,0.688-4.11,0.688-8.55c0-6.03-0.358-8.94-1.618-12.78c-3.271-10.021-10.712-18.03-18.78-20.19
		C671.13,297.99,666.03,297.81,663.45,298.32z"/>
	<path id="structure27_label27_S1FL" bar:type="" bar:growlevel="0" fill="#FEFFB2" d="M766.5,172.11
		c-6,7.89-24.27,31.8-40.59,53.16c-16.35,21.36-29.73,39.03-29.79,39.3c-0.06,0.3,0.54,0.99,1.59,1.83
		c2.61,2.07,9.21,8.52,11.729,11.49c2.461,2.91,6.779,9.21,7.681,11.22c0.3,0.72,0.78,1.29,1.021,1.29c0.239,0,6-3.96,12.779-8.82
		c45.689-32.61,93.6-66.3,100.32-70.5c0.689-0.42,1.26-0.96,1.26-1.17c0-0.48-4.17-5.82-8.79-11.28
		c-8.521-10.11-20.851-21.72-34.71-32.76c-6.93-5.52-10.439-8.07-11.04-8.07C777.57,157.8,774.09,162.15,766.5,172.11z"/>
	<path id="structure28_label28_M1" bar:type="" bar:growlevel="0" fill="#FBFF8E" d="M641.52,119.73
		c0.75,40.23,1.142,71.07,1.17,91.23l0.062,23.28l1.29,0.21c1.439,0.21,14.939,6.81,22.41,10.95c9,4.98,18.75,11.22,24.93,15.99
		c4.17,3.18,4.2,3.18,4.891,2.46c0.511-0.54,50.159-65.46,71.971-94.11c4.979-6.54,9.06-12.09,9.06-12.36
		c0-0.48-2.729-2.49-9.45-6.99c-32.01-21.358-64.68-33.96-101.55-39.21c-6.239-0.898-15.75-1.858-21.12-2.16l-3.869-0.21
		L641.52,119.73z"/>
	<path id="structure29_label29_M2" bar:type="" bar:growlevel="0" fill="#E2E923" d="M622.8,108.81
		c-12.96,0.69-24.87,2.58-34.47,5.49c-11.49,3.48-21.45,8.76-28.68,15.21c-3.45,3.09-7.352,7.32-7.352,7.98
		c0,0.57,4.8,6.87,28.95,38.16c33.09,42.84,38.28,49.59,43.771,56.85c2.939,3.87,5.461,7.11,5.609,7.14
		c0.182,0.06,0.96-0.57,1.8-1.41c2.19-2.25,5.94-3.93,8.7-3.93h1.11l0.239-2.938c0.271-3.812-0.061-49.41-0.631-80.61
		c-0.24-13.53-0.449-28.47-0.449-33.18v-8.58l-1.381-0.21C638.67,108.6,626.25,108.6,622.8,108.81z"/>
	<path id="structure2_label0_AcbC" bar:type="" bar:growlevel="0" fill="#FFF359" d="M603.12,413.43c-3.84,0.36-5.82,0.99-6.87,2.16
		c-4.2,4.74-5.82,6.391-7.5,7.62c-2.4,1.771-2.4,1.83-2.16,10.29c0.21,7.35,0.84,13.26,2.04,19.35c1.2,5.94,2.4,9.48,5.64,16.352
		c7.472,15.779,11.012,19.95,25.23,29.55c8.01,5.4,11.28,6.479,14.88,4.83c2.4-1.11,6.72-4.021,6.72-4.562
		c0-0.539-0.119-0.539-2.43,0.062c-2.58,0.66-5.13,0.45-6.12-0.48c-1.47-1.38-1.77-2.85-1.56-8.038c0.39-9.75,2.1-15.9,4.8-17.371
		c2.13-1.17,7.11-0.479,14.16,1.921c7.62,2.608,12.93,5.7,13.95,8.188c0.66,1.59,1.648,0.99,3.148-1.859
		c2.37-4.5,2.19-13.199-0.45-23.489c-1.56-6.03-4.409-14.34-5.068-14.761c-0.33-0.209-0.96-1.051-1.41-1.859
		c-0.511-0.87-1.14-1.561-1.5-1.65c-0.39-0.119-2.13-1.5-3.931-3.119c-9.779-8.819-19.08-15.87-24.239-18.359
		C622.41,414.27,612.391,412.53,603.12,413.43z"/>
	<path id="structure30_text3025_Cg1" bar:type="" bar:growlevel="0" fill="#F1F48E" d="M550.109,139.71
		c-5.159,6.72-8.159,13.17-9.42,20.19c-0.511,2.94-0.539,5.37-0.539,35.22v32.04l3.148,1.17c17.342,6.45,76.74,25.08,80.49,25.26
		l1.14,0.06l2.82-6.3c1.562-3.48,2.851-6.54,2.851-6.84c0-0.81-3.689-5.67-47.101-61.86c-11.97-15.51-23.91-30.99-26.521-34.44
		c-2.58-3.42-4.891-6.21-5.131-6.21S550.83,138.78,550.109,139.71z"/>
	<path id="structure32_text3027_PrL" bar:type="" bar:growlevel="0" fill="#E4E947" d="M540,278.61v51.24l7.891,1.892
		c10.409,2.489,12,2.76,16.409,2.97c4.23,0.18,5.851-0.12,9.12-1.771c2.37-1.198,3.36-1.89,10.53-7.229
		c5.46-4.08,6.12-4.68,7.409-6.66c2.671-4.109,10.83-18.69,17.431-31.229c4.319-8.19,15.51-32.25,15.51-33.36
		c0-0.45-0.36-0.66-1.71-0.96c-9.09-2.01-62.22-18.81-78.42-24.75c-2.01-0.75-3.779-1.35-3.93-1.35
		C540.12,227.4,540,250.44,540,278.61z"/>
	<path id="structure3_label1_AcbSh" bar:type="" bar:growlevel="0" fill="#E9DA00" d="M583.561,428.91
		c-5.189,7.38-6.779,10.229-10.08,18.029c-3.601,8.551-5.101,14.551-5.101,20.311c0.03,3.42,0.181,4.38,3.33,19.35
		c1.83,8.67,4.05,18.961,4.92,22.892l1.59,7.14l2.55,1.891c8.16,6.061,14.312,9.181,20.61,10.561c4.32,0.9,8.49,0.689,17.37-0.87
		c15.359-2.7,21.061-3.42,29.7-3.69c5.189-0.18,17.01,0.24,20.189,0.69c1.739,0.24,1.681-0.42-0.149-1.71
		c-2.01-1.439-10.44-9.93-12.33-12.45c-2.1-2.79-3.6-5.938-5.34-11.34c-0.78-2.43-1.53-4.41-1.681-4.41
		c-0.989,0-5.819,2.46-7.771,3.931c-3.42,2.58-7.08,4.709-8.852,5.101c-2.97,0.66-6.3-0.87-15.119-6.93
		c-9.51-6.57-13.17-10.171-17.58-17.4c-2.101-3.45-7.83-15.18-8.971-18.3c-2.67-7.53-4.35-18.78-4.439-29.94
		c-0.029-4.319-0.149-5.76-0.42-5.76C585.78,426,584.7,427.32,583.561,428.91z"/>
	<path id="structure43_label47_DTT-3" bar:type="" bar:growlevel="0" fill="#A6DF00" d="M581.4,407.28
		c-3.12,1.77-7.352,3.688-11.551,5.25c-2.609,0.96-2.851,0.989-7.051,0.989c-2.398,0-5.398-0.181-6.72-0.391
		c-2.76-0.45-2.88-0.39-2.88,1.92c0,0.84-0.21,3.932-0.48,6.9c-0.72,7.979-0.479,11.279,1.23,18.148
		c1.38,5.49,1.68,8.25,1.199,10.44c-0.239,1.2-0.181,1.2,3.631,0.12c8.88-2.58,14.43-6.09,17.699-11.19
		c0.779-1.229,2.641-4.108,4.17-6.42l2.761-4.2l0.21-4.199c0.09-2.311,0.51-7.17,0.93-10.801c0.9-8.01,0.9-8.25,0.24-8.22
		C584.49,405.66,582.96,406.41,581.4,407.28z"/>
	<path id="structure44_label49_mfb" bar:type="" bar:growlevel="0" fill="#925FDC" d="M638.641,532.5
		c-2.881,0.27-5.431,0.93-6.451,1.65c-0.51,0.358-0.688,0.778-0.688,1.648c0,1.38,1.108,2.46,3.09,3.062
		c1.32,0.39,7.38,0.479,17.16,0.238c6.3-0.18,7.858,0.062,14.25,1.98c7.08,2.16,9.87,2.37,11.101,0.81
		c0.779-1.02,0.811-3.06,0.029-4.05c-1.8-2.278-9.63-4.17-20.729-5.01C650.67,532.38,641.55,532.2,638.641,532.5z"/>
	<path id="structure45_label50_aca" bar:type="" bar:growlevel="0" fill="#DBFFB2" d="M635.85,473.25
		c-0.479,0.27-1.229,0.93-1.59,1.47c-1.74,2.58-3.06,9.69-3.15,17.25c-0.06,4.86,0.33,6.091,2.312,7.05
		c1.08,0.541,1.41,0.541,3.45,0.24c4.05-0.57,9.479-2.699,19.41-7.56c7.02-3.45,7.92-4.2,7.92-6.57c0-3.63-4.41-6.63-14.852-10.08
		C642.811,472.86,637.95,472.23,635.85,473.25z"/>
	<path id="structure4_label2_IEn" bar:type="" bar:growlevel="0" fill="#5F23ED" d="M665.04,484.41c-0.24,0.3-0.57,0.93-0.66,1.438
		c-0.42,1.712-2.43,3.15-8.64,6.15c-5.312,2.58-5.91,2.91-5.91,3.6c-0.03,1.11,2.73,9.15,3.96,11.61
		c1.41,2.79,4.05,6.03,8.43,10.439c3.78,3.779,7.11,6.601,8.852,7.5c1.59,0.811,4.05,1.471,4.17,1.109
		c0.06-0.18,0.63-1.41,1.29-2.79c3.148-6.51,8.279-12.688,15.359-18.51c1.109-0.93,2.01-1.83,2.01-2.04c0-0.27-0.689-0.3-2.461-0.21
		c-7.83,0.51-15.658-4.979-23.64-16.53c-0.87-1.26-1.739-2.278-1.95-2.278C665.67,483.9,665.28,484.14,665.04,484.41z"/>
	<path id="structure57_label68_fmi" bar:type="" bar:growlevel="0" fill="#9FFF59" d="M644.25,235.74
		c-3.18,1.11-4.32,2.4-8.311,9.36c-3.061,5.34-6.33,11.52-15.989,30.12c-6.54,12.66-6.9,13.29-19.47,35.37
		c-9.871,17.37-11.552,20.55-12.932,24.48c-1.859,5.46-3.75,13.92-3.75,16.92c0,2.22,0.75,6.18,2.25,12.09
		c1.65,6.359,2.012,9.18,2.012,15.27c0,5.16-0.271,8.28-2.312,25.5c-1.229,10.44-1.71,15.12-2.069,20.61
		c-0.211,2.851,0.09,3,1.711,0.84c1.108-1.47,1.108-1.5,1.108-4.41c0-4.47,0.57-12.688,1.05-15.479
		c0.602-3.392,2.131-6.33,7.95-15.21c5.7-8.7,7.142-11.432,9.45-17.82c4.02-11.189,6.72-16.95,12.568-26.7
		c2.19-3.63,6.602-11.188,9.75-16.739c7.802-13.709,12.66-20.521,16.711-23.579c4.471-3.33,12.359-6.72,18.721-8.01
		c3.72-0.75,8.64-0.51,11.85,0.57c7.891,2.67,14.7,10.32,18,20.13c1.08,3.21,1.65,7.44,1.65,12.45c0,5.07-0.54,8.939-1.83,12.72
		c-4.8,14.37-16.561,21.9-47.67,30.48c-9.092,2.52-11.25,3.45-13.561,5.97c-2.761,2.971-3.841,5.94-3.841,10.59
		c0,4.53,1.17,9.09,3.72,14.521c2.67,5.64,4.65,8.22,9.78,12.779c2.22,1.979,6.3,5.761,9.06,8.369
		c2.73,2.642,5.16,4.771,5.342,4.771c0.238,0,0.3-0.271,0.18-0.84c-0.45-2.07-0.54-5.88-0.21-8.04
		c1.08-6.631,5.188-14.28,10.681-19.771c4.319-4.38,6.541-5.43,21.84-10.47c11.371-3.78,15-5.16,19.801-7.53
		c9.51-4.77,14.16-9.87,17.4-19.229c4.108-11.82,4.828-28.261,1.979-45.271c-2.311-13.859-7.47-28.47-13.021-36.75
		c-8.34-12.54-25.26-26.16-48.3-38.85c-4.56-2.49-19.08-9.75-19.53-9.75C645.87,235.23,645.061,235.44,644.25,235.74z"/>
	<path id="structure58_label69_lo" bar:type="" bar:growlevel="0" fill="#B8FF00" d="M744.3,526.92
		c-2.729,0.72-6.569,4.17-10.8,9.63c-3.93,5.102-5.67,6.42-12.99,10.08c-6.24,3.15-11.609,6.81-11.609,7.95
		c0,0.63,0.511,0.54,3.75-0.811c1.649-0.659,8.851-3.301,15.959-5.851c15.212-5.43,23.19-8.43,29.012-10.95
		c5.25-2.279,10.68-5.068,10.68-5.55c0-0.39-1.35-0.93-5.43-2.188C755.49,526.98,747.689,525.99,744.3,526.92z"/>
	<path id="structure59_label70_LV" bar:type="" bar:growlevel="0" fill="#FF005D" d="M601.35,401.79
		c-8.278,4.47-13.41,11.82-14.43,20.67c-0.15,1.38-0.12,1.74,0.21,1.74c0.78,0,4.681-3.54,7.17-6.48
		c4.44-5.31,9.03-13.02,9.511-15.898C604.02,400.53,603.689,400.5,601.35,401.79z"/>
	<path id="structure5_label3_DEn" bar:type="" bar:growlevel="0" fill="#E0E959" d="M667.891,462.811
		c1.049,7.079,1.17,8.221,0.989,11.039c-0.18,3.392-0.72,5.61-1.83,7.74c-0.42,0.812-0.75,1.68-0.75,1.92
		c0,0.87,4.92,7.352,8.011,10.59c5.789,6.062,10.379,8.432,16.261,8.461c3.898,0.029,5.038-0.391,7.319-2.641
		c3.359-3.33,4.739-5.97,5.34-10.23c0.569-4.05-0.75-10.948-2.609-13.618c-2.761-3.99-9.12-7.62-19.17-10.86
		c-4.92-1.62-12-3.51-13.021-3.51C667.77,461.7,667.74,461.79,667.891,462.811z"/>
	<path id="structure60_label71_E" bar:type="" bar:growlevel="0" fill="#FF0045" d="M633.061,320.01
		c-0.479,0.812-3.631,6.24-6.989,12.09c-3.33,5.852-7.23,12.54-8.61,14.852c-5.43,8.91-8.28,14.91-11.91,25.05
		c-3.06,8.55-3.689,9.75-11.22,21.15c-6.062,9.148-6.57,10.438-7.2,18.238c-0.449,5.341-0.42,7.11,0.09,7.11
		c0.24,0,0.48-0.45,0.602-0.99c0.27-1.5,2.55-5.82,4.14-7.89c2.64-3.45,6.601-6.63,10.771-8.67l1.709-0.84L606,393.93
		c3.51-13.74,4.71-17.67,9.33-30.84c3.54-10.02,6.779-17.4,17.1-38.76c1.29-2.7,2.37-5.1,2.37-5.311
		C634.8,318.15,633.93,318.66,633.061,320.01z"/>
	<path fill="#FF23E9" d="M542.1,338.04c-0.643-1.207-1.5-1.817-2.305-1.755l0.061,10.843c1.019,0.029,2.084-1.035,2.574-2.848
		C542.82,342.84,542.609,339.061,542.1,338.04z"/>
	<path id="structure63_label74_ICj" bar:type="" bar:growlevel="0" fill="#E9DB00" d="M601.83,535.29
		c-1.561,1.89-4.02,11.76-3.36,13.5c0.421,1.08,2.341,2.85,3.33,3.06c2.311,0.512,4.021-2.188,3.99-6.3
		c-0.03-2.67-1.021-7.8-1.83-9.45C603.42,534.96,602.43,534.6,601.83,535.29z"/>
	<path id="structure64_label75_ICj" bar:type="" bar:growlevel="0" fill="#E9DB00" d="M552.24,496.2c-1.44,0.78-1.86,1.979-1.44,4.2
		c0.36,1.948,0.81,2.488,2.49,3c1.83,0.539,3.45,1.41,3.78,2.068c0.18,0.301,0.57,2.13,0.93,4.021c0.33,1.92,0.78,3.87,0.99,4.32
		c0.66,1.47,9.51,13.108,10.5,13.8c2.13,1.528,5.01,0.329,5.01-2.07c0-1.68-1.41-3.9-6.15-9.601c-2.13-2.579-4.648-5.609-5.55-6.689
		c-2.58-3.12-3-4.08-3-6.811c0-3.329-0.96-5.311-3.06-6.421C555.6,495.42,553.561,495.51,552.24,496.2z"/>
	<path fill="#D800C4" d="M542.1,484.05c-0.569-0.299-1.336-0.438-2.1-0.432v8.682c1.561,0,1.92-0.12,2.85-0.93
		C545.25,489.24,544.859,485.49,542.1,484.05z"/>
	<path id="structure68_label79_cg" bar:type="" bar:growlevel="0" fill="#3FFF00" d="M639.45,234.6c-2.58,0.51-4.681,1.56-6.33,3.09
		c-1.56,1.5-1.83,1.95-6.09,11.46c-11.94,26.58-15.96,34.83-24.48,50.4c-5.43,9.931-8.61,15.54-11.159,19.59
		c-4.801,7.65-7.681,16.83-8.101,25.771c-0.149,3.569-0.12,3.99,0.33,3.99c0.271,0,0.479-0.24,0.479-0.57
		c0-1.2,1.771-8.4,2.971-12.062c1.56-4.738,2.67-6.93,12.6-24.39c14.58-25.62,13.23-23.13,22.35-40.74
		c11.762-22.71,15.84-30.09,18-32.55c1.291-1.47,2.972-2.64,4.2-2.97c0.421-0.09,0.78-0.36,0.78-0.57
		C645,234.36,641.88,234.12,639.45,234.6z"/>
	<path id="structure6_label4_LO" bar:type="" bar:growlevel="0" fill="#EFF46B" d="M684.63,419.4c-3.21,2.1-7.47,6.119-9.81,9.18
		c-1.5,2.01-2.28,3.27-5.82,9.39c-2.04,3.54-4.32,5.73-6,5.73c-0.75,0-0.75-0.03,0.061,2.46l0.659,2.04l2.73,1.47
		c7.83,4.2,51.569,26.52,55.05,28.11c6.12,2.79,12.48,5.28,13.109,5.159c0.421-0.061,0.569-0.42,0.631-1.709
		c0.21-3.69-1.801-8.972-5.19-13.682c-3.54-4.92-18.42-23.22-29.97-36.898c-9.33-11.012-11.189-13.052-12-13.052
		C687.689,417.6,686.13,418.41,684.63,419.4z"/>
	<path id="structure72_label100_lofr" bar:type="" bar:growlevel="0" fill="#E58ED9" d="M554.1,514.53
		c-0.51,0.93-0.119,2.04,0.78,2.25c1.38,0.358,2.55-1.53,1.56-2.521C555.84,513.66,554.46,513.811,554.1,514.53z"/>
	<path id="structure74_text3088_Pir-3" bar:type="" bar:growlevel="0" fill="#D8E900" d="M752.189,480.57
		c-1.561,0.72-3.09,1.83-3.09,2.278c0,0.182,0.569,0.48,1.291,0.66c1.5,0.42,3.959,2.312,12.448,9.45
		c8.552,7.229,11.46,10.44,11.46,12.66c0,1.8-2.88,8.34-4.5,10.17c-2.55,2.91-3.779,2.76-10.529-1.29
		c-2.789-1.71-6.539-3.812-8.279-4.68c-9.12-4.562-18.33-5.58-24.18-2.642c-2.58,1.32-6.99,5.972-9.15,9.722
		c-5.58,9.6-8.07,13.108-12.391,17.46c-3.181,3.18-3.899,4.408-4.109,6.75l-0.12,1.56l2.851,3.3c1.561,1.83,3.449,4.2,4.141,5.28
		c0.72,1.05,1.408,1.95,1.56,1.95c0.12,0,1.2-0.75,2.4-1.65c1.17-0.898,4.56-2.88,7.47-4.38c8.641-4.41,9.932-5.399,13.8-10.438
		c3.42-4.44,7.17-8.102,9.54-9.271c1.74-0.898,2.13-0.96,4.92-0.96c4.891,0,11.04,1.2,17.79,3.479c2.04,0.689,3.392,1.021,3.9,0.869
		c1.26-0.3,6.989-6.3,9.18-9.63c3.99-6.03,7.979-15.75,9.511-23.25c0.779-3.72,0.541-5.46-0.931-7.26
		c-1.38-1.68-3.24-2.46-10.562-4.41c-6.18-1.62-10.618-3.06-16.56-5.37C757.141,479.79,754.2,479.67,752.189,480.57z"/>
	<path id="structure75_text3090_Pir-2" bar:type="" bar:growlevel="0" fill="#F3FF59" d="M748.561,483.66
		c-1.08,1.08,0.33,3.39,3.75,6.27c1.439,1.2,3.511,2.91,4.59,3.812c6.061,5.01,9.601,9.42,9.841,12.27
		c0.21,2.49-1.261,4.29-3.511,4.29c-0.541,0-2.221-0.898-4.711-2.52c-5.52-3.54-7.379-4.44-12.119-5.762
		c-3.931-1.108-7.5-1.618-12.75-1.829c-5.369-0.181-8.521,0.149-11.551,1.199c-3.18,1.08-6.959,5.012-12.06,12.512
		c-3.33,4.89-4.351,6.568-8.28,13.71c-1.8,3.27-3.75,6.75-4.38,7.738c-0.6,0.99-1.08,2.07-1.08,2.4c0,0.63,3.511,4.35,4.11,4.35
		c0.18,0,0.42-0.51,0.54-1.14c0.42-2.25,1.318-3.66,4.14-6.45c3.36-3.358,6.6-7.648,9.54-12.6c4.38-7.44,5.22-8.641,7.89-11.311
		c3.121-3.119,5.28-4.351,8.972-4.979c3-0.54,5.76-0.36,10.05,0.66c5.25,1.229,9.479,3.148,17.609,8.04
		c5.369,3.24,6.601,3.72,8.279,3.21c2.01-0.602,3.51-2.7,5.521-7.71c1.408-3.45,1.408-5.221,0.09-7.051
		c-1.44-2.039-4.682-5.101-10.561-10.021c-8.131-6.811-9.511-7.89-11.101-8.7C749.7,483.21,749.1,483.12,748.561,483.66z"/>
	<path id="structure76_text3022_Pir-1" bar:type="" bar:growlevel="0" fill="#C6D400" d="M664.2,449.34c0,0.15,0.33,1.2,0.72,2.37
		c0.391,1.17,1.141,3.78,1.68,5.82l0.961,3.72l4.08,1.02c13.829,3.42,23.279,7.592,27.569,12.12c2.91,3.091,4.11,6.841,4.11,12.96
		c0.028,3.631-0.03,4.052-0.87,6.09c-1.29,3.182-3.42,5.791-7.23,8.852c-7.739,6.24-11.61,10.14-15.12,15.24
		c-1.979,2.88-4.5,7.68-4.5,8.55c0,0.42,0.48,0.75,1.892,1.29c4.649,1.8,14.159,7.08,18.09,10.08c0.21,0.148,0.45,0.21,0.51,0.148
		c0.181-0.27,4.351-7.648,6.24-11.1c6.84-12.51,14.278-22.561,18.18-24.54c3.181-1.62,8.4-2.28,14.79-1.86
		c9.9,0.69,15.36,2.49,23.37,7.74c4.38,2.88,5.101,3.03,6.812,1.471c0.869-0.779,1.108-1.261,1.229-2.399
		c0.148-1.2,0-1.74-0.84-3.45c-1.229-2.49-5.762-7.109-11.67-11.91c-2.221-1.83-4.44-3.87-4.95-4.56
		c-0.479-0.69-1.021-1.261-1.17-1.261c-0.12-0.029-0.722,0.359-1.261,0.869c-1.771,1.53-2.131,1.5-6.689-0.688
		c-2.25-1.11-5.489-2.55-7.229-3.24c-9.84-3.84-12.961-5.37-46.562-22.649c-11.67-6-21.42-10.921-21.66-10.921
		C664.41,449.1,664.2,449.22,664.2,449.34z"/>
	<path id="structure7_label5_Nv" bar:type="" bar:growlevel="0" fill="#6B3BD0" d="M572.25,444.33c-1.92,1.59-7.859,4.68-10.8,5.64
		c-5.761,1.892-10.5,2.73-16.47,2.94l-4.771,0.18l0.182,4.83c0.209,5.79,0.539,7.38,2.908,14.01c2.25,6.36,4.74,14.94,6.061,20.881
		c0.631,2.939,1.141,4.591,1.381,4.591c0.18,0,0.359-0.15,0.359-0.302c0-0.479,1.771-1.438,3.061-1.648
		c0.96-0.182,1.56-0.03,3.42,0.87c2.76,1.318,4.68,3.09,8.609,7.979c4.529,5.67,11.609,12.511,11.609,11.22
		c0-0.09-0.75-3.51-1.648-7.56c-0.9-4.08-3.062-14.25-4.801-22.62c-2.789-13.5-3.149-15.54-3.149-18.24
		c0-5.159,1.83-12.33,5.13-20.01C575.43,442.17,575.28,441.811,572.25,444.33z"/>
	<path id="structure80_text3076_Tu-1" bar:type="" bar:growlevel="0" fill="#FFEF00" d="M551.52,503.88
		c0.121,0.48,1.53,3.09,3.15,5.82c1.62,2.729,3.93,6.63,5.13,8.7c4.32,7.438,9.75,16.438,12.24,20.25
		c5.19,8.01,11.97,16.289,16.62,20.278c5.64,4.86,14.1,9.33,22.29,11.79c5.37,1.62,8.399,2.07,13.8,2.07
		c5.58-0.03,9-0.42,22.65-2.641c5.52-0.899,13.229-2.039,17.1-2.551c16.38-2.13,27.12-4.71,37.859-9.148
		c3.24-1.352,4.261-1.92,5.399-3.062c0.812-0.778,1.44-1.68,1.44-1.979c0-1.08-6.24-8.91-7.08-8.91c-0.33,0-0.42,0.42-0.36,1.92
		c0.091,1.562-0.028,2.04-0.51,2.58c-0.87,0.99-1.47,1.14-6.03,1.47c-6.54,0.512-7.02,0.66-9.449,2.88
		c-2.761,2.552-3.959,2.972-7.681,2.762c-3.75-0.182-6.42-1.021-13.108-4.171c-6.512-3.029-8.881-3.841-11.341-3.841
		c-3.78,0.03-8.159,2.58-13.291,7.802c-1.8,1.83-3.72,3.6-4.198,3.898c-1.352,0.84-7.261,2.19-8.642,1.95
		c-0.63-0.09-2.31-0.689-3.75-1.351c-4.05-1.801-6.688-2.189-9.899-1.471c-1.409,0.33-1.59,0.301-3.989-0.779
		c-1.38-0.631-4.74-1.92-7.47-2.851c-6.48-2.188-7.142-2.55-8.521-4.71c-2.04-3.06-3.18-4.26-5.22-5.46
		c-2.25-1.319-4.771-3.81-6.511-6.42c-0.811-1.26-1.83-2.25-3.51-3.42c-2.521-1.771-4.771-4.26-5.371-5.91
		c-0.358-0.96-0.448-1.021-1.59-0.99c-0.75,0.03-1.56-0.18-2.07-0.54c-1.02-0.66-9.84-12.358-10.709-14.188
		c-0.33-0.69-0.811-2.642-1.08-4.351c-0.659-4.051-0.899-4.5-3.029-5.311c-0.96-0.36-2.13-0.72-2.61-0.811
		C551.34,503.01,551.311,503.04,551.52,503.88z"/>
	<path id="structure81_text3078_Tu-2" bar:type="" bar:growlevel="0" fill="#FFFAB2" d="M573.93,527.22
		c-0.93,0.96-0.96,1.11-0.66,2.04c0.512,1.562,2.67,3.96,5.341,5.91c1.711,1.23,2.819,2.37,3.721,3.689
		c1.92,2.791,3.75,4.649,5.97,5.939c2.28,1.32,3.12,2.16,5.221,5.16c0.871,1.2,1.979,2.46,2.489,2.82
		c0.511,0.33,2.73,1.199,4.95,1.89c2.189,0.72,5.55,1.979,7.439,2.79l3.449,1.53l2.551-0.302c3.779-0.479,5.819-0.06,10.5,2.131
		c1.109,0.511,2.16,0.779,3.209,0.779c1.712,0,6.33-1.02,7.74-1.71c0.48-0.239,2.4-1.95,4.2-3.81c3.57-3.66,5.79-5.312,9.39-7.021
		c4.201-2.011,6.15-1.621,16.41,3.181c7.11,3.33,12.182,4.528,15.75,3.659c1.291-0.301,2.01-0.75,3.51-2.159
		c2.762-2.552,3.57-2.852,9.69-3.36c6.091-0.54,6.69-0.78,6.841-2.819c0.061-0.66-0.121-2.069-0.391-3.121
		c-0.42-1.648-0.72-2.129-2.49-3.93c-1.109-1.109-2.16-2.01-2.34-2.01c-0.54,0-0.72,0.75-0.72,3.03c0,3.42,0,3.42-9.9,5.1
		c-9.75,1.65-12.51,1.56-20.399-0.78c-8.041-2.398-9.181-2.64-12.75-2.64c-4.439,0-6.721,0.75-12.449,4.14
		c-8.79,5.19-10.29,5.58-16.051,3.9c-3.149-0.9-5.189-1.05-7.619-0.6c-3.422,0.659-5.37,0.568-7.29-0.302
		c-2.4-1.108-3.45-0.96-5.101,0.812c-1.021,1.108-2.189,1.108-3.75-0.03c-1.351-0.99-1.83-1.68-3.871-5.729
		c-0.81-1.561-2.43-4.141-3.6-5.729c-4.02-5.31-11.46-11.729-15.12-13.021C575.82,525.96,575.04,526.08,573.93,527.22z"/>
	<path id="structure82_text3048_Tu-3" bar:type="" bar:growlevel="0" fill="#E9E159" d="M559.65,499.11
		c0.119,0.63,0.3,2.43,0.42,4.05c0.18,2.7,0.24,2.97,1.17,4.05c0.54,0.63,1.56,1.86,2.25,2.76c0.688,0.87,2.67,3.3,4.41,5.4
		c1.739,2.069,3.6,4.319,4.08,4.979c1.229,1.562,2.818,4.41,2.818,5.012c0,0.329,0.391,0.54,1.17,0.688
		c0.63,0.09,1.95,0.57,2.91,1.021c5.58,2.64,14.641,11.97,17.49,17.97c0.568,1.17,1.199,2.16,1.38,2.16
		c0.21,0,0.569-1.141,0.87-2.641c0.6-3.12,2.34-8.311,3.06-9.091c1.11-1.229,2.19-0.45,2.94,2.13
		c1.29,4.591,1.648,8.91,0.898,11.312c-0.18,0.63-0.09,0.688,1.021,0.688c0.66,0,1.92,0.33,2.818,0.75
		c1.86,0.87,3.182,0.932,6.451,0.302c3.239-0.631,3.93-0.57,8.189,0.479c6.15,1.5,7.8,1.17,15.3-3.33
		c6.87-4.109,9.479-4.95,14.399-4.71c2.729,0.12,4.051,0.42,10.051,2.16c6.689,1.979,7.02,2.04,10.949,2.16
		c3.149,0.12,5.041,0,8.551-0.511c6.42-0.931,11.22-1.949,11.79-2.521c0.36-0.33,0.51-1.26,0.569-3.601l0.12-3.149l-1.59-1.17
		c-2.641-1.92-6.421-4.08-11.94-6.78c-8.341-4.109-11.31-4.648-26.101-4.89c-13.38-0.21-19.229,0.33-36.3,3.39
		c-11.311,2.01-14.909,2.07-21.18,0.271c-5.25-1.53-12.24-5.49-19.32-10.95c-3.69-2.851-9.721-8.91-12.899-12.9
		c-3.211-4.05-5.67-6.6-6.391-6.6C559.5,498,559.439,498.15,559.65,499.11z M659.7,532.95c9.45,0.989,15.51,2.7,17.43,4.86
		c0.81,0.959,0.9,1.229,0.78,2.31c-0.12,0.87-0.45,1.47-1.141,2.1c-0.931,0.841-1.021,0.841-3.391,0.69
		c-1.62-0.12-3.898-0.63-6.93-1.562c-6.842-2.1-9.03-2.368-16.2-2.068c-11.97,0.54-16.142,0.148-18-1.53
		c-2.43-2.28-0.42-4.41,4.95-5.25C639.72,532.08,654.42,532.38,659.7,532.95z"/>
	<path id="structure8_label9_VP" bar:type="" bar:growlevel="0" fill="#FFE900" d="M638.641,532.5
		c-2.881,0.27-5.431,0.93-6.451,1.65c-0.51,0.358-0.688,0.778-0.688,1.648c0,1.38,1.108,2.46,3.09,3.062
		c1.32,0.39,7.38,0.479,17.16,0.238c6.3-0.18,7.858,0.062,14.25,1.98c7.08,2.16,9.87,2.37,11.101,0.81
		c0.779-1.02,0.811-3.06,0.029-4.05c-1.8-2.278-9.63-4.17-20.729-5.01C650.67,532.38,641.55,532.2,638.641,532.5z"/>
	
		<text id="text3016" bar:growlevel="0" transform="matrix(1 0 0 1 548.5771 399.2461)" fill="#232323" enable-background="new    " font-family="'TimesNewRomanPSMT'" font-size="9">DP</text>
	
		<text id="label50" bar:growlevel="0" transform="matrix(1 0 0 1 639.3398 486.9707)" fill="#232323" enable-background="new    " font-family="'TimesNewRomanPSMT'" font-size="9">aca</text>
	
		<text id="text3076" bar:growlevel="0" transform="matrix(1 0 0 1 625.502 567.3545)" fill="#232323" enable-background="new    " font-family="'TimesNewRomanPSMT'" font-size="9">Tu-1</text>
	
		<text id="text3078" bar:growlevel="0" transform="matrix(1 0 0 1 624.8359 558.0098)" fill="#232323" enable-background="new    " font-family="'TimesNewRomanPSMT'" font-size="9">Tu-2</text>
	
		<text id="text3018" bar:growlevel="0" transform="matrix(1 0 0 1 553.4668 362.8916)" fill="#232323" enable-background="new    " font-family="'TimesNewRomanPSMT'" font-size="9">IL</text>
	
		<text id="label18" bar:growlevel="0" transform="matrix(1 0 0 1 728.2402 447.9639)" fill="#232323" enable-background="new    " font-family="'TimesNewRomanPSMT'" font-size="9">AIV</text>
	
		<text id="label19" bar:growlevel="0" transform="matrix(1 0 0 1 764.8701 432.6406)" fill="#232323" enable-background="new    " font-family="'TimesNewRomanPSMT'" font-size="9">AID</text>
	
		<text id="label11" bar:growlevel="0" transform="matrix(1 0 0 1 548.1309 426.5586)" fill="#232323" enable-background="new    " font-family="'TimesNewRomanPSMT'" font-size="9">DTT-2</text>
	
		<text id="label100" bar:growlevel="0" transform="matrix(1 0 0 1 555.2197 515.4258)" fill="#232323" enable-background="new    " font-family="'TimesNewRomanPSMT'" font-size="9">lofr</text>
	
		<text id="label79" bar:growlevel="0" transform="matrix(1 0 0 1 631.25 247.6982)" fill="#232323" enable-background="new    " font-family="'TimesNewRomanPSMT'" font-size="9">cg</text>
	
		<text id="label74" bar:growlevel="0" transform="matrix(1 0 0 1 602.3496 540.25)" fill="#232323" enable-background="new    " font-family="'TimesNewRomanPSMT'" font-size="9">ICj</text>
	
		<text id="label75" bar:growlevel="0" transform="matrix(1 0 0 1 570.3203 524.4072)" fill="#232323" enable-background="new    " font-family="'TimesNewRomanPSMT'" font-size="9">ICj</text>
	
		<text id="label70" bar:growlevel="0" transform="matrix(1 0 0 1 593.2305 414.0273)" fill="#232323" enable-background="new    " font-family="'TimesNewRomanPSMT'" font-size="9">LV</text>
	
		<text id="label71" bar:growlevel="0" transform="matrix(1 0 0 1 602.5195 390.4434)" fill="#232323" enable-background="new    " font-family="'TimesNewRomanPSMT'" font-size="9">E</text>
	
		<text id="label73" bar:growlevel="0" transform="matrix(1 0 0 1 540.0195 341.3848)" fill="#232323" enable-background="new    " font-family="'TimesNewRomanPSMT'" font-size="9">azp</text>
	
		<text id="text3022" bar:growlevel="0" transform="matrix(1 0 0 1 735.2559 515.4258)" fill="#232323" enable-background="new    " font-family="'TimesNewRomanPSMT'" font-size="9">Pir-1</text>
	
		<text id="text3027" bar:growlevel="0" transform="matrix(1 0 0 1 546.793 284.3857)" fill="#232323" enable-background="new    " font-family="'TimesNewRomanPSMT'" font-size="9">PrL</text>
	
		<text id="text3025" bar:growlevel="0" transform="matrix(1 0 0 1 547.2158 209.7422)" fill="#232323" enable-background="new    " font-family="'TimesNewRomanPSMT'" font-size="9">Cg1</text>
	
		<text id="text3048" bar:growlevel="0" transform="matrix(1 0 0 1 623.8926 549.417)" fill="#232323" enable-background="new    " font-family="'TimesNewRomanPSMT'" font-size="9">Tu-3</text>
	
		<text id="label9" bar:growlevel="0" transform="matrix(1 0 0 1 663.9902 539.2998)" fill="#232323" enable-background="new    " font-family="'TimesNewRomanPSMT'" font-size="9">VP</text>
	
		<text id="label0" bar:growlevel="0" transform="matrix(1 0 0 1 612.5898 458.7559)" fill="#232323" enable-background="new    " font-family="'TimesNewRomanPSMT'" font-size="9">AcbC</text>
	
		<text id="label1" bar:growlevel="0" transform="matrix(1 0 0 1 583.8398 502.9932)" fill="#232323" enable-background="new    " font-family="'TimesNewRomanPSMT'" font-size="9">AcbSh</text>
	
		<text id="label2" bar:growlevel="0" transform="matrix(1 0 0 1 660.6201 506.8242)" fill="#232323" enable-background="new    " font-family="'TimesNewRomanPSMT'" font-size="9">IEn</text>
	
		<text id="label3" bar:growlevel="0" transform="matrix(1 0 0 1 677.6406 485.9199)" fill="#232323" enable-background="new    " font-family="'TimesNewRomanPSMT'" font-size="9">DEn</text>
	
		<text id="label4" bar:growlevel="0" transform="matrix(1 0 0 1 691.4297 452.834)" fill="#232323" enable-background="new    " font-family="'TimesNewRomanPSMT'" font-size="9">LO</text>
	
		<text id="label5" bar:growlevel="0" transform="matrix(1 0 0 1 551.2998 478.2588)" fill="#232323" enable-background="new    " font-family="'TimesNewRomanPSMT'" font-size="9">Nv</text>
	
		<text id="label23" bar:growlevel="0" transform="matrix(1 0 0 1 795.7598 391.5537)" fill="#232323" enable-background="new    " font-family="'TimesNewRomanPSMT'" font-size="9">GI</text>
	
		<text id="label22" bar:growlevel="0" transform="matrix(1 0 0 1 787.29 415.2275)" fill="#232323" enable-background="new    " font-family="'TimesNewRomanPSMT'" font-size="9">DI</text>
	
		<text id="label20" bar:growlevel="0" transform="matrix(1 0 0 1 689.0996 405.4756)" fill="#232323" enable-background="new    " font-family="'TimesNewRomanPSMT'" font-size="9">Cl</text>
	
		<text id="label27" bar:growlevel="0" transform="matrix(1 0 0 1 751.7002 233.4355)" fill="#232323" enable-background="new    " font-family="'TimesNewRomanPSMT'" font-size="9">S1FL</text>
	
		<text id="label26" bar:growlevel="0" transform="matrix(1 0 0 1 654.3301 335.834)" fill="#232323" enable-background="new    " font-family="'TimesNewRomanPSMT'" font-size="9">CPu</text>
	
		<text id="label25" bar:growlevel="0" transform="matrix(1 0 0 1 773.9199 261.3008)" fill="#232323" enable-background="new    " font-family="'TimesNewRomanPSMT'" font-size="9">S1DZ</text>
	
		<text id="label24" bar:growlevel="0" transform="matrix(1 0 0 1 791.8496 321.8916)" fill="#232323" enable-background="new    " font-family="'TimesNewRomanPSMT'" font-size="9">S1J</text>
	
		<text id="text3088" bar:growlevel="0" transform="matrix(1 0 0 1 728.5869 495.6206)" fill="#232323" enable-background="new    " font-family="'TimesNewRomanPSMT'" font-size="9">Pir-3</text>
	
		<text id="label29" bar:growlevel="0" transform="matrix(1 0 0 1 608.9902 176.3154)" fill="#232323" enable-background="new    " font-family="'TimesNewRomanPSMT'" font-size="9">M2</text>
	
		<text id="label28" bar:growlevel="0" transform="matrix(1 0 0 1 686.29 187.4678)" fill="#232323" enable-background="new    " font-family="'TimesNewRomanPSMT'" font-size="9">M1</text>
	
		<text id="label49" bar:growlevel="0" transform="matrix(1 0 0 1 635.7002 538.1689)" fill="#232323" enable-background="new    " font-family="'TimesNewRomanPSMT'" font-size="9">mfb</text>
	
		<text id="label69" bar:growlevel="0" transform="matrix(1 0 0 1 744.0898 536.4395)" fill="#232323" enable-background="new    " font-family="'TimesNewRomanPSMT'" font-size="9">lo</text>
	
		<text id="label68" bar:growlevel="0" transform="matrix(1 0 0 1 649.0303 272.4531)" fill="#232323" enable-background="new    " font-family="'TimesNewRomanPSMT'" font-size="9">fmi</text>
	
		<text id="label47" bar:growlevel="0" transform="matrix(1 0 0 1 562.7471 419.7471)" fill="#232323" enable-background="new    " font-family="'TimesNewRomanPSMT'" font-size="9">DTT-3</text>
	
		<text id="text3090" bar:growlevel="0" transform="matrix(1 0 0 1 732.0703 504.2412)" fill="#232323" enable-background="new    " font-family="'TimesNewRomanPSMT'" font-size="9">Pir-2</text>
	
		<text id="text2998" bar:growlevel="0" transform="matrix(1 0 0 1 536.8838 436.2275)" fill="#232323" enable-background="new    " font-family="'TimesNewRomanPSMT'" font-size="9">DTT-1</text>
	
		<text id="label76" bar:growlevel="0" transform="matrix(1 0 0 1 540.0801 488.0107)" fill="#232323" enable-background="new    " font-family="'TimesNewRomanPSMT'" font-size="9">azac</text>
</g>
</svg>
