<?xml version="1.0" encoding="utf-8"?>
<!-- Generator: Adobe Illustrator 16.0.0, SVG Export Plug-In . SVG Version: 6.00 Build 0)  -->
<!DOCTYPE svg PUBLIC "-//W3C//DTD SVG 1.1//EN" "http://www.w3.org/Graphics/SVG/1.1/DTD/svg11.dtd">
<svg version="1.1"
	 id="body" xmlns:bar="http://www.3dbar.org" xmlns:cc="http://creativecommons.org/ns#" xmlns:dc="http://purl.org/dc/elements/1.1/" xmlns:inkscape="http://www.inkscape.org/namespaces/inkscape" xmlns:rdf="http://www.w3.org/1999/02/22-rdf-syntax-ns#" xmlns:sodipodi="http://sodipodi.sourceforge.net/DTD/sodipodi-0.dtd" xmlns:svg="http://www.w3.org/2000/svg" sodipodi:docname="66_pretrace_pretrace_v1.svg" inkscape:version="0.47pre4 r22446"
	 xmlns="http://www.w3.org/2000/svg" xmlns:xlink="http://www.w3.org/1999/xlink" x="0px" y="0px" width="1008px" height="1008px"
	 viewBox="0 0 1008 1008" enable-background="new 0 0 1008 1008" xml:space="preserve">
<sodipodi:namedview  showgrid="false" pagecolor="#ffffff" objecttolerance="10" inkscape:zoom="5.5555101" inkscape:cy="467.16246" inkscape:cx="486.00379" id="namedview7898" guidetolerance="10" gridtolerance="10" borderopacity="1" bordercolor="#666666" inkscape:window-y="24" inkscape:window-x="1680" inkscape:pageopacity="0" inkscape:window-width="1918" inkscape:window-maximized="1" inkscape:window-height="1128" inkscape:pageshadow="2" inkscape:current-layer="content" inkscape:object-paths="true">
	</sodipodi:namedview>
<title  id="title7664">SVG drawing</title>
<desc  id="desc7666">This was produced by version 4.2 of GNU libplot, a free library for exporting 2-D vector graphics.</desc>
<defs>
	
	<rdf:RDF>
		<cc:Work  rdf:about="">
			<dc:format>image/svg+xml</dc:format>
			<dc:type  rdf:resource="http://purl.org/dc/dcmitype/StillImage"></dc:type>
		</cc:Work>
	</rdf:RDF>
	<bar:data  name="coronalcoord" content="1.2"></bar:data>
	
		<bar:data  name="rendererConf" content="{&apos;ReferenceHeight&apos;: 900, &apos;ReferenceWidth&apos;: 1200, &apos;imageSize&apos;: (1200, 900)}">
		</bar:data>
	
		<bar:data  name="tracingConf" content="{&apos;DumpEachStepSVG&apos;: False, &apos;DumpEachStepPNG&apos;: False, &apos;GrowDefaultBoundaryColor&apos;: 200, &apos;CacheLevel&apos;: 5, &apos;NewPathIdTemplate&apos;: &apos;structure%d_%s_%s&apos;, &apos;PoTraceConf&apos;: {&apos;potrace_accuracy_parameter&apos;: &apos;0.001&apos;, &apos;potrace_width_string&apos;: &apos;1200pt&apos;, &apos;potrace_svg_resolution_string&apos;: &apos;300x300&apos;, &apos;potrace_height_string&apos;: &apos;900pt&apos;}, &apos;DetectUnlabelled&apos;: True, &apos;DumpVBrain&apos;: False, &apos;DumpWrongSeed&apos;: True, &apos;DumpDirectory&apos;: &apos;.&apos;, &apos;MinFiterTimesApplication&apos;: 3, &apos;RegionAlreadyTraced&apos;: 100, &apos;UnlabelledTreshold&apos;: 500}">
		</bar:data>
	<bar:data  name="transformationmatrix" content="0.0176211454,-9.5150660793,0.0176211454,-1.5355884426"></bar:data>
</defs>
<g id="content">
	<path fill="#FF000C" d="M907.53,353.88c-0.36-0.33-0.812-0.45-1.32-0.33l-0.75,0.21l-0.18-4.17c-0.54-11.37-1.2-19.05-2.46-27.689
		c-4.59-31.92-16.2-61.08-33.75-84.63c-26.852-36.06-72.78-71.34-120.12-92.28c-36.181-16.021-76.17-24.15-114.9-23.4
		c-15.81,0.33-28.62,1.71-38.25,4.11c-17.97,4.53-33.93,14.43-43.29,26.88c-3.96,5.25-7.979,14.82-9.899,23.52
		c-0.869,3.87-2.011,11.25-2.011,12.99c0,0.93-0.09,1.14-0.51,1.05c-0.063-0.014-0.119-0.044-0.173-0.086v353.899
		c0.03-0.013,0.061-0.025,0.083-0.022c0.24,0,1.05,0.96,1.77,2.16c8.462,13.771,22.562,27.51,37.41,36.48
		c3,1.8,3.12,1.948,8.25,8.068c5.79,6.932,14.4,15.722,18.271,18.722c7.17,5.52,14.25,9.06,21.45,10.738
		c5.43,1.23,13.318,2.19,22.648,2.73c11.55,0.66,36.87-0.03,46.352-1.26c7.229-0.932,15-3.75,23.34-8.49
		c1.92-1.08,3.6-1.98,3.688-1.98c0.12,0,0.9,0.33,1.74,0.75c4.38,2.102,9.78,2.28,15.21,0.45c5.46-1.859,10.71-5.188,17.46-11.1
		c3.69-3.21,7.59-5.67,10.892-6.87c1.438-0.51,4.858-1.35,7.709-1.83c17.431-3.09,30.811-9.12,50.609-22.95
		c9.271-6.479,13.41-10.71,18.061-18.51c3.841-6.479,6.479-13.41,8.041-21.24c2.31-11.488,4.198-17.188,10.648-32.279
		c3.841-9.029,5.04-11.279,9.45-18.271c10.2-16.17,15.09-25.68,19.71-38.34c2.82-7.771,6.21-20.101,7.62-27.9
		c0.33-1.71,0.48-2.04,0.9-1.92c0.75,0.21,1.68-0.54,2.369-1.858c1.051-2.07,3-10.92,4.561-20.73c0.66-4.08,0.689-5.189,0.689-17.55
		C908.82,357.12,908.67,354.9,907.53,353.88z"/>
	<path id="structure2_label93_vBrain" bar:type="" bar:growlevel="0" fill="#FF000C" d="M546.54,561.15
		c-1.95,1.08-2.19,3.659-0.51,5.068c2.068,1.74,5.068,0.45,5.068-2.188C551.1,561.66,548.52,560.04,546.54,561.15z"/>
	<path id="structure100_text7966-9_Tu-1" bar:type="" bar:growlevel="0" fill="#FFEF00" d="M749.52,584.97
		c-0.538,0.3-1.17,0.9-1.438,1.261c-0.66,0.959-0.6,3.209,0.12,5.101c0.659,1.68,0.568,2.49-0.33,2.97
		c-0.479,0.271-0.811,0.062-2.16-1.318c-1.771-1.83-2.97-2.342-3.75-1.562c-0.42,0.42-0.45,0.63-0.09,1.74
		c0.21,0.72,0.63,2.16,0.93,3.24c1.29,4.5,0.3,9.93-2.52,13.59c-0.602,0.778-1.08,1.56-1.08,1.739c0,0.569,1.77,0.061,4.77-1.381
		c4.65-2.25,8.13-4.738,14.432-10.289l1.35-1.199v-3.54c0-3.271-0.061-3.722-0.84-5.4c-0.54-1.14-1.5-2.49-2.642-3.6
		c-1.77-1.74-1.77-1.74-3.778-1.86C750.87,584.4,750.27,584.49,749.52,584.97z"/>
	<path id="structure103_text3076-5_S1DZ" bar:type="" bar:growlevel="0" fill="#FEFF3B" d="M832.95,209.94
		c-15.57,15.27-69.3,65.97-80.011,75.51c-1.141,0.99-2.039,2.01-2.039,2.25c0,0.6,2.13,2.7,2.698,2.7
		c0.24,0,14.552-11.79,31.83-26.19c45.841-38.25,60.78-50.88,61.11-51.75c0.12-0.33-0.931-1.53-3.66-4.17
		c-2.13-2.04-4.021-3.69-4.2-3.69C838.5,204.63,835.92,207,832.95,209.94z"/>
	<path id="structure104_text3078-1_S1DZO" bar:type="" bar:growlevel="0" fill="#E8E900" d="M856.95,238.62
		c-4.29,3-24.54,16.89-45.03,30.84c-45.779,31.23-47.938,32.73-48.061,33.36c-0.061,0.3,0.961,2.1,2.25,4.02
		c1.319,1.92,3.091,4.68,3.989,6.12c0.87,1.47,1.771,2.64,1.98,2.64c0.479,0,23.07-13.74,75.12-45.66
		c31.17-19.11,30.3-18.57,30.3-19.14c0-0.6-3.6-6.36-6.72-10.65c-4.23-5.88-5.13-7.02-5.58-7.02
		C864.96,233.13,861.24,235.62,856.95,238.62z"/>
	<path fill="#FFB2BA" d="M608.939,565.89c-1.471-0.688-5.939-4.29-8.909-7.14c-7.2-6.96-13.08-15.42-18.36-26.37
		c-2.311-4.83-5.37-12.45-5.37-13.38c0-0.33-0.18-0.93-0.42-1.29c-0.239-0.36-0.898-2.49-1.5-4.71
		c-2.729-10.23-4.68-23.13-4.68-31.14c0-2.25-0.091-3.062-0.36-3.062c-0.21,0-0.96,1.141-1.68,2.521
		c-1.74,3.448-4.32,7.38-4.801,7.38c-0.329,0-0.359,0.33-0.239,1.41c0.12,0.81,0.45,4.47,0.78,8.188
		c0.898,10.23,1.438,13.86,3,20.102c2.039,8.1,4.08,13.02,8.459,20.488c2.851,4.86,5.431,10.08,6.421,12.96
		c1.109,3.302,1.2,7.771,0.18,9.66c-0.93,1.771-2.88,3.57-5.01,4.59c-5.58,2.73-12.091,1.262-17.07-3.84
		c-4.859-4.949-10.17-12.6-12.359-17.819c-0.569-1.319-1.561-4.439-2.221-6.899c-1.72-6.413-3.438-9.868-4.883-9.786v16.148
		c0.008,0,0.015-0.002,0.022-0.002c0.301,0.028,1.021,0.868,1.83,2.188c7.229,11.76,18.659,23.642,31.229,32.43
		c3.54,2.49,8.521,5.58,9,5.58c0.18,0,0.3-1.68,0.3-4.738c0-2.58,0.12-4.892,0.271-5.102c0.358-0.569,2.88-1.26,4.59-1.26
		c1.41,0,1.56,0.09,3.029,1.65c1.17,1.229,1.83,1.71,2.609,1.829c0.99,0.181,1.32-0.029,4.5-2.579c3.78-3,5.25-3.9,6.48-3.9
		c1.05,0,5.79-2.7,5.818-3.33C609.6,566.4,609.3,566.04,608.939,565.89z"/>
	<path id="structure106_Unlabeled-2463-1761_Unlabeled" bar:type="" bar:growlevel="0" fill="#FFB2BA" d="M737.07,528.99
		c-3.75,3.12-6.722,6.81-8.82,11.01c-2.22,4.439-2.58,6.03-2.67,11.85c-0.061,3.961-0.18,5.432-0.6,6.54l-0.512,1.44l1.32,1.17
		c2.43,2.16,3.42,6.061,2.49,9.9c-0.24,1.08-0.54,2.25-0.66,2.608c-0.42,1.5,1.53,0.51,5.729-2.938c1.17-0.932,2.761-2.4,3.602-3.24
		c0.81-0.84,1.648-1.53,1.859-1.53c0.209,0,0.391-0.21,0.391-0.45c0-0.238-0.21-0.448-0.45-0.448c-1.32,0-5.22-6.99-6.45-11.552
		c-0.81-3-1.109-7.68-0.63-9.66c0.78-3.06,4.26-9.75,7.351-14.038C741,526.89,740.01,526.561,737.07,528.99z"/>
	<path id="structure10_label11_LSV" bar:type="" bar:growlevel="0" fill="#92FF00" d="M595.77,390.09
		c-4.409,1.23-8.398,5.971-10.079,11.91c-0.479,1.74-0.539,3.33-0.569,13.95c0,6.6-0.181,14.1-0.39,16.648
		c-0.45,5.61-1.382,13.08-1.98,16.021c-0.54,2.64-0.57,2.88-0.03,2.88c0.21,0,0.96-0.93,1.65-2.07c0.66-1.108,2.04-3.18,3.06-4.56
		c5.28-7.14,9.632-10.62,14.312-11.49l2.01-0.36l0.21-2.13c0.12-1.17,0.42-3.12,0.69-4.318c1.198-5.432,1.198-11.852,0-21.182
		c-0.57-4.29-1.892-11.85-2.37-13.29C601.71,390.3,598.561,389.34,595.77,390.09z"/>
	<path fill="#97FF00" d="M600.24,383.46c-1.98-7.86-2.34-9.69-2.34-12.12c0-2.01-0.062-2.07-3.302-2.64
		c-13.528-2.37-27.06-7.14-36.51-12.84c-1.68-1.021-3.21-1.86-3.39-1.86c-0.182,0-0.301,0.87-0.301,2.16
		c0,5.13-1.079,12.9-2.311,16.89c-1.68,5.311-3.54,7.98-6.63,9.511c-1.92,0.959-2.16,0.989-5.46,0.989c-0.029,0-0.055,0-0.083,0
		v14.556c0.028,0,0.054-0.006,0.083-0.006c1.979,0,3.15,0.841,4.2,3.062c1.109,2.31,1.71,4.92,3.6,15.51
		c1.771,9.9,2.431,12.72,3.75,16.23c1.86,4.77,2.58,10.83,1.681,14.01c-0.33,1.229-0.301,1.38,1.351,4.95
		c3.63,7.949,4.438,10.47,5.52,17.04c0.722,4.59,2.4,17.67,2.4,18.898c0,1.44,0.63,1.05,2.16-1.29c2.76-4.26,4.68-8.34,5.608-11.938
		c1.711-6.66,3.871-10.892,8.131-15.84c2.039-2.342,2.699-3.632,3.569-7.08c2.04-8.07,3.12-21.33,2.97-36.961
		c-0.09-11.159,0-11.909,2.222-16.591c0.96-1.979,1.71-3.028,3.358-4.68c3.36-3.33,6.602-4.439,9.66-3.27
		c0.75,0.27,1.44,0.42,1.562,0.33C601.83,390.36,601.17,387.21,600.24,383.46z M566.939,443.46c-0.181,4.83-1.109,6.54-3.63,6.54
		c-2.609,0-4.079-3.21-6.061-13.2c-0.45-2.22-1.62-6.6-2.609-9.75c-3.149-10.05-4.649-16.648-3.931-17.34
		c0.3-0.33,0.931-0.24,2.101,0.24c4.109,1.739,8.789,7.979,10.979,14.7c0.93,2.818,2.43,9.448,2.91,12.96
		C566.91,438.96,567,441.6,566.939,443.46z"/>
	<path id="structure12_label14_LSD" bar:type="" bar:growlevel="0" fill="#DEFFB2" d="M581.4,331.83
		c-1.892,0.96-5.16,2.43-7.23,3.24c-3.72,1.47-21.54,6.93-26.13,8.01c-1.92,0.42-2.34,0.63-2.34,1.109
		c0,1.681,5.34,6.961,10.53,10.41c9.06,5.971,21.118,10.53,35.789,13.5c5.729,1.141,5.579,1.17,5.579-0.149
		c0-3.84-4.528-17.521-9.239-27.99c-1.859-4.11-2.761-6.899-2.761-8.64c0-0.87-0.118-1.32-0.358-1.29
		C585.03,330.03,583.29,330.84,581.4,331.83z"/>
	<path id="structure13_label15_LV" bar:type="" bar:growlevel="0" fill="#FF005D" d="M610.8,314.76
		c-2.22,1.83-7.83,6.15-12.45,9.601c-4.619,3.45-8.58,6.54-8.818,6.87c-0.57,0.81-0.21,2.01,3.18,10.92
		c3.87,10.14,6.57,18.33,7.11,21.6c0.27,1.47,0.659,5.13,0.898,8.1c0.391,4.65,0.69,6.301,2.07,11.851
		c0.899,3.54,2.069,8.64,2.64,11.31c0.66,3.18,1.142,4.891,1.381,4.891c0.209,0,0.391-0.09,0.391-0.211
		c0-0.119,0.479-4.47,1.109-9.689c1.229-10.561,1.229-10.77,1.021-35.1c-0.12-12.631-0.062-14.94,0.39-17.551
		c0.812-4.859,2.46-11.97,4.38-18.84c0.99-3.54,1.802-6.6,1.802-6.779C615.9,310.89,614.55,311.7,610.8,314.76z"/>
	<path id="structure14_label16_CPu" bar:type="" bar:growlevel="0" fill="#FFEC00" d="M665.25,273c-4.95,0.57-13.2,7.14-15.63,12.42
		c-1.14,2.52-2.28,2.88-3.181,0.99c-0.271-0.54-0.841-1.41-1.289-1.95c-1.23-1.47-2.25-1.32-5.49,0.84
		c-3.271,2.16-4.44,3.42-6.03,6.48c-0.75,1.47-2.46,3.81-4.44,6.12c-6.688,7.83-10.738,15.54-13.738,26.19
		c-3.54,12.51-4.65,26.28-3.63,44.49c0.448,7.65,0.358,9.45-0.69,15.57c-1.41,8.369-1.59,10.439-1.8,24.449
		c-0.12,7.53-0.3,13.802-0.392,13.95c-0.09,0.182-0.358,2.79-0.538,5.852l-0.392,5.55l1.08,2.16c3.63,7.199,12.48,18.028,18.9,23.13
		c2.85,2.278,4.29,3.09,14.25,8.278c20.58,10.712,32.01,18.69,36.66,25.65c5.85,8.73,7.198,21,3.39,30.57
		c-0.42,1.05-0.69,1.948-0.63,2.04c0.21,0.18,37.17,10.92,37.62,10.92c0.21,0,1.109-1.141,2.04-2.521
		c4.56-6.84,14.819-13.02,24.239-14.608c2.159-0.36,2.431-0.48,4.409-2.19c5.432-4.68,9.24-11.069,14.82-24.78
		c3-7.409,3.72-9.539,5.43-16.289c2.432-9.449,9.48-43.051,11.13-53.011c4.32-26.28,2.37-54.63-5.13-74.939
		c-1.438-3.9-5.489-12.21-8.52-17.49c-14.4-25.11-31.051-39.81-56.4-49.74c-11.43-4.5-21.81-7.2-31.17-8.13
		C676.74,272.67,668.1,272.67,665.25,273z"/>
	<path id="structure15_label21_DEn" bar:type="" bar:growlevel="0" fill="#E0E959" d="M771.45,471.96c-0.061,0.21-0.48,1.8-0.9,3.54
		c-2.068,8.311-5.85,18.54-10.229,27.54c-1.052,2.16-1.92,4.14-1.92,4.38s0.568,1.141,1.26,2.04c4.68,5.94,10.979,9.601,18.87,10.92
		c5.85,0.96,18.898,0.12,22.109-1.41c2.011-0.988,2.521-2.01,2.369-4.92c-0.18-3.6-3.119-11.97-7.108-20.1
		c-5.28-10.74-9.87-15.511-19.802-20.46C772.23,471.54,771.66,471.36,771.45,471.96z"/>
	<path id="structure16_label22_AIV" bar:type="" bar:growlevel="0" fill="#EEF423" d="M791.73,472.86
		c-2.312,2.188-4.5,3.27-7.11,3.479c-1.11,0.09-1.92,0.271-1.92,0.48c0,0.18,1.02,1.108,2.25,2.068c2.55,1.95,4.56,4.262,7.14,8.16
		c2.04,3.09,5.61,10.141,7.142,14.07c0.959,2.46,1.17,2.76,2.97,4.229c7.59,6.12,21.93,13.92,35.25,19.2
		c5.37,2.13,13.68,4.95,14.55,4.95c0.45,0,0.63-0.36,0.9-1.74c1.289-6.449,3.539-13.68,6.6-21.449
		c1.05-2.609,1.83-4.771,1.771-4.829c-0.061-0.062-2.399-0.812-5.221-1.682c-17.25-5.28-38.25-14.91-57.659-26.46
		c-2.159-1.29-4.141-2.34-4.351-2.34C793.83,471.03,792.78,471.84,791.73,472.86z"/>
	<path id="structure17_label23_AID" bar:type="" bar:growlevel="0" fill="#D0D447" d="M799.109,449.01
		c-0.119,0.09-0.209,0.96-0.209,1.92c0,2.58-0.87,8.761-1.682,11.972c-0.39,1.56-1.2,3.84-1.77,5.039
		c-0.57,1.229-1.05,2.399-1.05,2.609c0,0.75,14.43,8.88,25.5,14.37c11.67,5.79,21.989,10.11,32.1,13.47
		c6.63,2.19,8.729,2.762,9.33,2.551c0.24-0.091,1.29-2.159,2.34-4.619s2.73-6.12,3.721-8.16c1.05-2.16,1.709-3.78,1.529-3.93
		c-0.15-0.12-2.64-1.08-5.52-2.132c-27.812-10.02-47.82-20.278-60.9-31.17C800.04,448.86,799.53,448.59,799.109,449.01z"/>
	<path id="structure18_label24_DI" bar:type="" bar:growlevel="0" fill="#C4C923" d="M799.2,438.87v9.27l3.03,2.49
		c12.209,10.14,29.459,19.352,53.22,28.41c9.3,3.54,13.26,4.92,13.83,4.8c0.898-0.18,13.92-21.39,13.92-22.68
		c0-0.18-0.78-0.48-1.71-0.66c-18.392-3.6-45.271-13.561-75.03-27.72c-3.66-1.74-6.81-3.182-6.96-3.182
		C799.32,429.6,799.2,433.11,799.2,438.87z"/>
	<path id="structure19_label25_GI" bar:type="" bar:growlevel="0" fill="#C3C900" d="M794.4,406.89c0,0.24,0.659,1.71,1.438,3.271
		c2.16,4.229,2.642,6.66,3.24,16.17l0.18,2.91l5.131,2.46c31.05,14.97,57.391,24.688,78.391,28.95l0.93,0.18l2.101-4.44
		c3.33-6.93,7.591-17.55,7.591-18.81c0-0.3-0.9-0.63-2.91-1.08c-44.07-9.78-73.86-18.9-92.221-28.229
		c-1.921-0.959-3.569-1.771-3.66-1.771C794.49,406.5,794.4,406.68,794.4,406.89z"/>
	<path id="structure20_label26_VCl" bar:type="" bar:growlevel="0" fill="#8847F2" d="M792.3,444.72
		c-0.93,0.392-3.898,1.92-6.6,3.392c-2.73,1.5-6.12,3.18-7.53,3.72c-2.58,1.02-2.609,1.02-2.79,2.22c-0.12,0.66-0.93,4.53-1.83,8.61
		c-0.898,4.05-1.648,7.68-1.648,8.01c0,0.51,0.868,1.08,4.59,2.94c4.438,2.25,4.619,2.31,7.17,2.43c2.399,0.12,2.76,0.06,4.5-0.75
		c3.87-1.83,6.81-5.43,8.31-10.08c1.41-4.5,2.432-11.7,2.432-17.34c0-2.07-0.062-2.37-0.78-3.09c-0.69-0.66-1.05-0.78-2.49-0.78
		C794.58,444.03,793.32,444.27,792.3,444.72z"/>
	<path id="structure21_label27_DCl" bar:type="" bar:growlevel="0" fill="#FFDE00" d="M793.26,411.18
		c-0.688,7.41-2.01,12.78-4.41,17.521c-0.6,1.229-2.97,5.068-5.25,8.55c-2.278,3.45-4.739,7.5-5.459,9
		c-1.471,2.91-2.521,5.79-2.221,6.061c0.33,0.359,2.76-0.601,6.48-2.521c2.068-1.08,5.369-2.82,7.38-3.84
		c4.229-2.22,5.85-2.58,7.648-1.771c1.052,0.45,1.261,0.48,1.5,0.09c0.211-0.27,0.24-3.93,0.12-10.02
		c-0.21-10.439-0.51-15.27-1.2-18.57c-0.479-2.278-3.33-8.58-3.898-8.58C793.74,407.1,793.5,408.57,793.26,411.18z"/>
	<path id="structure22_label28_S2" bar:type="" bar:growlevel="0" fill="#E6E98E" d="M792.99,382.71
		c0.449,6.66,0.869,18.99,0.688,20.82c-0.119,1.438-0.06,2.1,0.211,2.31c0.209,0.18,2.399,1.32,4.859,2.55
		c15.03,7.5,36.811,14.73,66.6,22.11c13.261,3.3,26.852,6.33,27.75,6.24c0.66-0.09,0.841-0.42,1.74-3.24
		c2.37-7.53,5.312-20.4,6.66-29.34c0.51-3.271,2.1-15.93,2.1-16.59c0-0.09-2.039-0.271-4.56-0.36c-9.21-0.42-40.682-2.58-83.7-5.76
		c-12.15-0.9-22.199-1.65-22.32-1.65C792.9,379.8,792.9,381.12,792.99,382.71z"/>
	<path id="structure23_label29_S1ULp" bar:type="" bar:growlevel="0" fill="#FDFF76" d="M867.3,257.64
		c-19.92,12.33-93.989,57.6-94.71,57.87c-0.21,0.09-0.39,0.33-0.39,0.54c0,0.24,1.08,2.37,2.398,4.8
		c9.48,17.28,16.021,37.5,17.761,55.11c0.33,3.21,0.421,3.57,0.989,3.69c1.2,0.239,76.381,5.609,92.25,6.569
		c6.69,0.42,13.472,0.841,15.091,0.931c1.591,0.119,2.909,0.09,2.909-0.061c0-0.12,0.12-1.74,0.302-3.54
		c0.959-11.28,1.26-30.93,0.6-41.28c-2.01-31.5-8.97-58.14-21.42-82.02c-3-5.76-4.771-8.7-5.28-8.76
		C877.561,251.46,872.82,254.22,867.3,257.64z"/>
	<path id="structure24_label30_S1J" bar:type="" bar:growlevel="0" fill="#E8E93B" d="M845.97,213.18
		c-1.109,1.351-21.39,18.42-60.72,51.21c-16.98,14.16-31.02,25.95-31.2,26.19c-0.359,0.51-0.359,0.48,2.37,3.6
		c1.141,1.32,3.09,3.69,4.32,5.28c1.229,1.62,2.43,2.94,2.64,2.94c0.181,0,3.45-2.13,7.2-4.74c3.779-2.61,20.311-13.92,36.72-25.11
		c52.32-35.67,57.602-39.33,57.602-39.93c0-1.23-16.86-19.92-18-19.92C846.6,212.7,846.18,212.91,845.97,213.18z"/>
	<path id="structure25_label31_S1FL" bar:type="" bar:growlevel="0" fill="#FEFFB2" d="M725.01,136.41
		c-0.3,0.48-35.01,115.17-35.01,115.65c0,0.33,0.63,0.72,2.04,1.26c1.11,0.39,4.771,1.77,8.101,3.03
		c17.069,6.39,25.709,10.71,34.05,17.01c4.109,3.09,9.181,7.41,12.689,10.8c1.83,1.8,3.45,3.24,3.57,3.24
		c0.33,0,3.18-2.58,13.77-12.42c32.88-30.54,73.98-69.78,73.98-70.65c0-0.72-9.63-9.15-17.91-15.72
		c-27.75-21.96-60.181-40.2-90.81-51.03C725.4,136.11,725.22,136.08,725.01,136.41z"/>
	<path id="structure26_label32_M1" bar:type="" bar:growlevel="0" fill="#FBFF8E" d="M663,123.15c0,0.09-3.391,25.35-7.5,56.16
		c-4.141,30.78-7.47,56.01-7.439,56.04c0.061,0.06,1.649,0.6,3.539,1.2c6.182,2.01,15.511,5.85,28.86,11.94
		c6.39,2.91,8.91,3.96,9.12,3.72c0.18-0.18,35.22-115.56,35.22-115.98c0-0.48-11.58-3.99-20.25-6.15
		c-11.069-2.76-23.939-5.07-34.95-6.33c-2.22-0.24-4.619-0.51-5.31-0.6C663.57,123.03,663,123.03,663,123.15z"/>
	<path id="structure27_label33_M2" bar:type="" bar:growlevel="0" fill="#E2E923" d="M628.8,122.1c-15.78,0.6-28.08,2.34-38.34,5.46
		c-2.76,0.84-3.09,1.02-2.97,1.56c0.06,0.36,9.99,24.06,22.08,52.68l21.989,52.08h4.529c3.51,0,5.37,0.18,8.101,0.69
		c1.95,0.39,3.569,0.66,3.631,0.6c0.119-0.18,14.88-110.73,14.88-111.45c0-0.57-0.21-0.66-1.86-0.84
		C653.311,122.13,637.891,121.74,628.8,122.1z"/>
	<path id="structure28_label34_Cg1" bar:type="" bar:growlevel="0" fill="#F1F48E" d="M582.51,130.5
		c-13.108,5.43-24.42,14.22-30.96,24c-4.95,7.41-8.67,18.69-10.17,30.9c-0.72,5.91-0.87,8.7-0.54,8.7c0.18,0,7.17,3.87,15.57,8.58
		c39.72,22.38,64.32,35.82,65.58,35.82c0.24,0,0.66-0.3,0.99-0.63c1.379-1.53,4.47-3.09,7.409-3.72c0.601-0.12,0.811-0.33,0.75-0.72
		c-0.061-0.3-9.931-23.91-21.989-52.47C590.4,136.44,587.16,129,586.65,129C586.32,129.03,584.46,129.69,582.51,130.5z"/>
	<path id="structure29_label35_Cg2" bar:type="" bar:growlevel="0" fill="#DBDF6B" d="M540.45,196.56
		c-0.091,1.2-0.15,23.88-0.091,50.4l0.091,48.21l0.63,0.84c0.33,0.45,0.87,0.96,1.2,1.11c0.96,0.42,1.71,2.28,1.35,3.27
		c-0.36,0.93-1.95,2.01-2.939,2.01c-0.63,0-0.689,0.15-0.689,1.5v1.5h1.08c0.811,0,1.229-0.21,1.68-0.75
		c0.33-0.42,1.142-1.05,1.83-1.38c1.59-0.81,4.021-0.69,5.34,0.3l0.931,0.689l4.681-0.81c12.84-2.19,23.46-5.04,28.771-7.771
		c0.959-0.479,3.238-2.55,7.02-6.39c11.46-11.64,15.48-17.97,24.21-38.1c2.819-6.48,5.069-10.92,5.76-11.34
		c0.721-0.45,0.24-1.26-1.109-1.92c-4.799-2.31-33.721-18.24-62.851-34.62c-8.698-4.92-16.02-8.91-16.26-8.91
		C540.75,194.4,540.6,194.94,540.45,196.56z"/>
	<path fill="#69FF00" d="M792.42,378c-2.189-23.67-10.859-47.55-25.26-69.45c-8.851-13.53-20.551-25.86-33.721-35.64
		c-4.859-3.63-7.681-5.31-13.591-8.19c-6.33-3.09-9.778-4.5-23.55-9.72c-6.03-2.28-11.76-4.5-12.75-4.89
		c-4.29-1.8-24.898-7.44-30.72-8.43c-3.75-0.63-5.73-0.6-8.61,0.12c-6.45,1.65-17.7,8.88-21.93,14.1
		c-2.13,2.64-4.89,7.38-6.24,10.65c-3.87,9.42-4.92,10.92-11.7,16.62c-5.698,4.74-9.72,7.35-17.698,11.4
		c-5.312,2.67-8.881,3.99-15.602,5.729c-10.064,2.611-25.074,5.099-31.133,5.28v38.61c0.077,0,0.154,0,0.233-0.001
		c3.898,0,6.93-0.75,21.6-5.159c12.09-3.63,18.51-6.24,25.68-10.47c3.03-1.801,10.892-7.381,16.11-11.431
		c8.67-6.72,20.01-17.58,24.03-22.98c2.76-3.69,5.159-6.03,9.688-9.48c6-4.53,12.51-8.07,18.36-10.02c3.63-1.23,5.34-1.5,12.03-1.98
		c10.8-0.78,22.618,1.05,36,5.55c18.778,6.36,31.83,13.98,43.618,25.5c8.82,8.641,16.021,18.57,23.16,31.95
		c4.472,8.4,7.08,15.061,9.24,23.641c4.08,16.319,5.16,36.18,3,55.169c-0.72,6.391-1.5,10.979-3.72,21.989
		c-0.9,4.53-1.65,8.55-1.65,8.94c0,1.14,0.69,0.778,1.62-0.87c0.479-0.87,2.7-4.41,4.979-7.89c2.279-3.45,4.471-6.99,4.891-7.802
		c1.859-3.72,3.479-9.688,4.14-15.3C793.77,406.23,793.561,390.15,792.42,378z"/>
	<path fill="#97FF59" d="M792.42,378c-2.189-23.67-10.859-47.55-25.26-69.45c-8.851-13.53-20.551-25.86-33.721-35.64
		c-4.859-3.63-7.681-5.31-13.591-8.19c-6.33-3.09-9.778-4.5-23.55-9.72c-6.03-2.28-11.76-4.5-12.75-4.89
		c-4.29-1.8-24.898-7.44-30.72-8.43c-3.75-0.63-5.73-0.6-8.61,0.12c-6.45,1.65-17.7,8.88-21.93,14.1
		c-2.13,2.64-4.89,7.38-6.24,10.65c-3.87,9.42-4.92,10.92-11.7,16.62c-5.698,4.74-9.72,7.35-17.698,11.4
		c-5.312,2.67-8.881,3.99-15.602,5.729c-10.064,2.611-25.074,5.099-31.133,5.28v38.61c0.077,0,0.154,0,0.233-0.001
		c3.898,0,6.93-0.75,21.6-5.159c12.09-3.63,18.51-6.24,25.68-10.47c3.03-1.801,10.892-7.381,16.11-11.431
		c8.67-6.72,20.01-17.58,24.03-22.98c2.76-3.69,5.159-6.03,9.688-9.48c6-4.53,12.51-8.07,18.36-10.02c3.63-1.23,5.34-1.5,12.03-1.98
		c10.8-0.78,22.618,1.05,36,5.55c18.778,6.36,31.83,13.98,43.618,25.5c8.82,8.641,16.021,18.57,23.16,31.95
		c4.472,8.4,7.08,15.061,9.24,23.641c4.08,16.319,5.16,36.18,3,55.169c-0.72,6.391-1.5,10.979-3.72,21.989
		c-0.9,4.53-1.65,8.55-1.65,8.94c0,1.14,0.69,0.778,1.62-0.87c0.479-0.87,2.7-4.41,4.979-7.89c2.279-3.45,4.471-6.99,4.891-7.802
		c1.859-3.72,3.479-9.688,4.14-15.3C793.77,406.23,793.561,390.15,792.42,378z"/>
	<path id="structure3_label0_AcbSh" bar:type="" bar:growlevel="0" fill="#E9DA00" d="M599.7,434.01
		c-3.511,1.23-7.74,4.92-11.73,10.26c-2.488,3.33-6.329,9.602-7.59,12.33c-2.85,6.211-4.2,18.961-3.54,33.15
		c0.42,8.52,0.99,14.58,1.892,19.8c0.959,5.4,1.02,6.511,0.448,7.59c-0.539,1.021-1.289,1.562-2.25,1.562
		c-0.358,0-0.63,0.21-0.63,0.479c0,0.78,3.24,8.761,5.37,13.2c7.17,14.91,16.08,26.04,26.43,32.94c1.381,0.93,2.761,1.68,3.062,1.68
		c0.3,0,0.99-0.3,1.47-0.689c0.75-0.541,1.41-0.689,3.39-0.75c2.132-0.091,2.852,0,5.28,0.841c4.92,1.648,8.4,3.988,11.7,7.948
		c3.75,4.5,4.859,4.5,9.479,0.12c4.109-3.898,4.921-4.318,8.369-4.318c3.03,0,4.2,0.42,7.65,2.64c1.71,1.14,2.1,1.26,3.75,1.26
		c2.311,0,3.72-0.84,5.13-3c1.05-1.648,2.431-3,3.69-3.54c0.539-0.239,4.92-0.358,14.43-0.358c13.2,0,13.74-0.03,15.99-0.66
		c3.3-0.96,5.16-2.01,7.5-4.38c2.399-2.4,3.93-3.182,6.81-3.421c1.17-0.091,2.102-0.271,2.102-0.359s-0.271-0.87-0.57-1.68
		c-1.5-3.932-0.9-10.711,1.529-17.762c0.359-1.05,0.569-1.949,0.479-2.039c-0.21-0.239-37.02-10.949-37.56-10.949
		c-0.21,0-0.9,0.63-1.53,1.38c-3.24,3.93-9.12,5.819-18.18,5.819c-16.591,0-33.961-5.25-43.261-13.08
		c-6.211-5.189-11.311-17.189-13.439-31.471c-0.271-1.62-0.42-5.279-0.42-9.148c0-6.932,0.39-10.29,1.8-15.602
		c0.42-1.5,0.75-3.18,0.75-3.688c0-0.54-0.811-5.49-1.83-11.011c-0.99-5.521-1.89-11.311-1.98-12.841l-0.18-2.76h-1.229
		C601.59,433.53,600.45,433.74,599.7,434.01z"/>
	<path fill="#A8E959" d="M581.28,551.85c-0.99-2.88-3.57-8.1-6.421-12.96c-2.521-4.26-3.959-7.108-5.189-10.2
		c-2.97-7.5-4.859-15.72-5.79-25.438c-0.239-2.64-0.75-7.71-1.08-11.25c-1.38-14.13-3.3-27.33-4.53-30.99
		c-1.26-3.72-3.448-8.608-7.08-15.778c-3.148-6.271-4.02-8.28-5.85-13.74c-2.43-7.32-4.229-11.28-5.22-11.431
		c-0.07-0.009-0.138-0.007-0.203,0v107.693c1.444-0.082,3.163,3.373,4.883,9.786c0.66,2.46,1.65,5.58,2.22,6.899
		c2.19,5.221,7.5,12.87,12.36,17.819c4.979,5.102,11.49,6.57,17.07,3.84c2.13-1.02,4.08-2.818,5.01-4.59
		C582.48,559.62,582.391,555.15,581.28,551.85z"/>
	<path id="structure4_label1_AcbC" bar:type="" bar:growlevel="0" fill="#FFF359" d="M608.7,438.061c0,0.539,0.33,3.63,0.75,6.841
		c2.189,17.188,2.489,24.75,1.02,25.648c-0.45,0.3-1.109-1.59-1.829-5.25c-0.391-2.068-0.78-3.3-1.021-3.3
		c-0.45,0-1.5,4.38-2.101,8.67c-0.539,4.26-0.539,13.5,0.029,17.94c1.23,9.238,4.11,18.42,7.86,24.72
		c4.68,7.95,13.92,13.56,27.99,17.04c11.55,2.85,23.938,3.45,30.84,1.53c6.51-1.802,9.358-4.86,11.188-11.881
		c0.602-2.279,0.69-3.421,0.722-7.771c0-6.689-0.812-10.5-3.36-15.689c-4.439-8.971-14.82-16.649-40.59-30.061
		c-8.67-4.5-10.44-5.61-14.28-8.97c-4.68-4.08-11.16-11.88-14.85-17.88C609.42,436.92,608.7,436.47,608.7,438.061z M635.04,481.92
		c2.37,1.2,4.86,3.24,8.64,7.141c5.461,5.609,6.54,7.409,6.812,11.341c0.09,1.409,0.54,3.688,0.96,5.068
		c0.898,3.03,0.93,3.78,0.148,5.04c-0.39,0.69-0.869,1.021-1.648,1.17c-1.561,0.271-2.761-0.028-6.03-1.648
		c-9.359-4.591-17.49-14.521-17.52-21.392c0-2.67,2.159-6.658,4.02-7.47C631.38,480.78,633.42,481.11,635.04,481.92z"/>
	<path id="structure5_label2_LAcbSh" bar:type="" bar:growlevel="0" fill="#FFFAB2" d="M599.7,434.01
		c-3.511,1.23-7.74,4.92-11.73,10.26c-2.488,3.33-6.329,9.602-7.59,12.33c-2.85,6.211-4.2,18.961-3.54,33.15
		c0.42,8.52,0.99,14.58,1.892,19.8c0.959,5.4,1.02,6.511,0.448,7.59c-0.539,1.021-1.289,1.562-2.25,1.562
		c-0.358,0-0.63,0.21-0.63,0.479c0,0.78,3.24,8.761,5.37,13.2c7.17,14.91,16.08,26.04,26.43,32.94c1.381,0.93,2.761,1.68,3.062,1.68
		c0.3,0,0.99-0.3,1.47-0.689c0.75-0.541,1.41-0.689,3.39-0.75c2.132-0.091,2.852,0,5.28,0.841c4.92,1.648,8.4,3.988,11.7,7.948
		c3.75,4.5,4.859,4.5,9.479,0.12c4.109-3.898,4.921-4.318,8.369-4.318c3.03,0,4.2,0.42,7.65,2.64c1.71,1.14,2.1,1.26,3.75,1.26
		c2.311,0,3.72-0.84,5.13-3c1.05-1.648,2.431-3,3.69-3.54c0.539-0.239,4.92-0.358,14.43-0.358c13.2,0,13.74-0.03,15.99-0.66
		c3.3-0.96,5.16-2.01,7.5-4.38c2.399-2.4,3.93-3.182,6.81-3.421c1.17-0.091,2.102-0.271,2.102-0.359s-0.271-0.87-0.57-1.68
		c-1.5-3.932-0.9-10.711,1.529-17.762c0.359-1.05,0.569-1.949,0.479-2.039c-0.21-0.239-37.02-10.949-37.56-10.949
		c-0.21,0-0.9,0.63-1.53,1.38c-3.24,3.93-9.12,5.819-18.18,5.819c-16.591,0-33.961-5.25-43.261-13.08
		c-6.211-5.189-11.311-17.189-13.439-31.471c-0.271-1.62-0.42-5.279-0.42-9.148c0-6.932,0.39-10.29,1.8-15.602
		c0.42-1.5,0.75-3.18,0.75-3.688c0-0.54-0.811-5.49-1.83-11.011c-0.99-5.521-1.89-11.311-1.98-12.841l-0.18-2.76h-1.229
		C601.59,433.53,600.45,433.74,599.7,434.01z"/>
	<path fill="#DBDF6B" d="M540,303.93c0-0.564-0.014-0.906-0.083-1.132v2.602H540V303.93z"/>
	<path id="structure62_label75_cg" bar:type="" bar:growlevel="0" fill="#3FFF00" d="M631.5,234.18
		c-5.49,0.931-7.68,2.19-10.32,5.94c-1.68,2.37-2.608,4.23-6.09,12.27c-3.96,9.24-8.07,17.22-11.52,22.38
		c-3.36,5.04-5.642,7.83-11.102,13.59c-2.13,2.25-3.87,4.23-3.87,4.41c0,0.66,1.021,0.3,4.142-1.5c4.38-2.52,6.93-4.32,11.25-7.92
		c6.72-5.64,8.04-7.41,11.278-15.12c2.642-6.33,5.28-10.65,8.552-14.07c2.909-3.06,8.938-7.29,13.89-9.78
		c5.76-2.88,8.851-3.63,12.72-3.15c3.78,0.45,9,1.65,16.17,3.66c7.5,2.1,8.4,2.25,8.4,1.62c0-0.689-15.51-7.26-23.1-9.78
		c-5.761-1.89-9-2.46-14.552-2.58C634.561,234.09,631.92,234.09,631.5,234.18z"/>
	<path fill="#97FF59" d="M792.42,378c-2.189-23.67-10.859-47.55-25.26-69.45c-8.851-13.53-20.551-25.86-33.721-35.64
		c-4.859-3.63-7.681-5.31-13.591-8.19c-6.33-3.09-9.778-4.5-23.55-9.72c-6.03-2.28-11.76-4.5-12.75-4.89
		c-4.29-1.8-24.898-7.44-30.72-8.43c-3.75-0.63-5.73-0.6-8.61,0.12c-6.45,1.65-17.7,8.88-21.93,14.1
		c-2.13,2.64-4.89,7.38-6.24,10.65c-3.87,9.42-4.92,10.92-11.7,16.62c-5.698,4.74-9.72,7.35-17.698,11.4
		c-5.312,2.67-8.881,3.99-15.602,5.729c-10.064,2.611-25.074,5.099-31.133,5.28v38.61c0.077,0,0.154,0,0.233-0.001
		c3.898,0,6.93-0.75,21.6-5.159c12.09-3.63,18.51-6.24,25.68-10.47c3.03-1.801,10.892-7.381,16.11-11.431
		c8.67-6.72,20.01-17.58,24.03-22.98c2.76-3.69,5.159-6.03,9.688-9.48c6-4.53,12.51-8.07,18.36-10.02c3.63-1.23,5.34-1.5,12.03-1.98
		c10.8-0.78,22.618,1.05,36,5.55c18.778,6.36,31.83,13.98,43.618,25.5c8.82,8.641,16.021,18.57,23.16,31.95
		c4.472,8.4,7.08,15.061,9.24,23.641c4.08,16.319,5.16,36.18,3,55.169c-0.72,6.391-1.5,10.979-3.72,21.989
		c-0.9,4.53-1.65,8.55-1.65,8.94c0,1.14,0.69,0.778,1.62-0.87c0.479-0.87,2.7-4.41,4.979-7.89c2.279-3.45,4.471-6.99,4.891-7.802
		c1.859-3.72,3.479-9.688,4.14-15.3C793.77,406.23,793.561,390.15,792.42,378z"/>
	<path id="structure64_label77_lo" bar:type="" bar:growlevel="0" fill="#B8FF00" d="M793.05,572.43
		c-6.898,1.052-12.39,5.432-15.93,12.69c-1.5,3.03-2.729,6.66-2.431,6.99c0.271,0.238,3.811-0.301,8.011-1.29
		c6.898-1.62,14.25-4.29,21.148-7.682c5.552-2.729,9.75-5.13,9.75-5.579c0-0.391-3.09-1.949-6.568-3.271
		C802.62,572.64,796.77,571.83,793.05,572.43z"/>
	<path id="structure65_label78_aca" bar:type="" bar:growlevel="0" fill="#DBFFB2" d="M629.28,482.1
		c-2.04,1.802-3.062,5.222-2.55,8.552c1.14,7.409,12.238,18.568,20.608,20.698c2.101,0.54,3.722,0.271,4.26-0.75
		c0.511-0.96,0.33-3.18-0.448-5.88c-0.42-1.438-0.75-3.39-0.75-4.438c-0.03-3.392-1.32-5.55-6.42-10.892
		c-5.521-5.76-9.091-8.188-12.091-8.188C630.57,481.2,630.15,481.35,629.28,482.1z"/>
	<path id="structure66_label79_mfb" bar:type="" bar:growlevel="0" fill="#925FDC" d="M712.77,559.35
		c-1.02,0.33-1.948,0.99-3.448,2.58c-1.562,1.59-2.67,2.4-4.472,3.271c-4.318,2.1-5.43,2.22-20.13,2.13
		c-12.479-0.062-12.988-0.062-14.13,0.54c-1.26,0.63-2.608,2.04-3.449,3.568c-0.271,0.541-1.171,1.382-1.95,1.892
		c-1.261,0.81-1.649,0.899-3.119,0.81c-1.381-0.09-2.07-0.358-3.66-1.408c-2.91-1.892-4.771-2.521-7.41-2.552
		c-3.27-0.028-4.141,0.392-7.561,3.631s-4.529,3.989-5.789,3.989c-1.381,0-2.61-0.93-4.802-3.568c-3.06-3.69-6.84-6.271-11.55-7.802
		c-7.59-2.489-12.45,0.602-9.72,6.182c1.021,2.1,4.14,5.278,7.41,7.528c4.619,3.182,9.27,4.86,15.27,5.49
		c3.812,0.39,6.57,0.21,13.892-0.99c5.58-0.898,5.729-0.898,7.858-0.42c4.17,0.9,11.61,0.57,19.44-0.93
		c4.59-0.84,5.94-0.9,22.05-0.72c6.33,0.09,9.21,0,12.33-0.392c10.2-1.229,15.6-3.63,17.34-7.68c1.65-3.84,1.892-7.8,0.63-10.74
		c-0.93-2.188-2.279-3.33-4.71-4.02C720.3,558.96,714.66,558.75,712.77,559.35z"/>
	<path id="structure68_label81_IG" bar:type="" bar:growlevel="0" fill="#B2FF00" d="M545.01,303.12c-1.35,0.51-2.01,1.02-2.01,1.56
		c0,0.51,0.78,0.54,4.23,0.061c2.188-0.271,2.67-0.45,2.67-0.87c0-0.6-0.42-0.81-2.312-1.02
		C546.689,302.76,545.7,302.85,545.01,303.12z"/>
	<path id="structure6_label3_IEn" bar:type="" bar:growlevel="0" fill="#5F23ED" d="M756.3,510.061
		c-1.979,3.119-4.77,6.271-7.26,8.189c-5.97,4.62-15.21,17.97-17.19,24.87c-0.659,2.31-0.479,6.84,0.45,10.229
		c1.2,4.5,5.13,11.552,6.42,11.552c0.48,0,2.312-2.37,4.05-5.222c2.041-3.33,3.722-6.898,6.632-14.13c1.5-3.81,3.39-8.1,4.14-9.6
		c3.479-6.75,8.61-11.641,15.87-15.062c1.528-0.72,2.79-1.5,2.79-1.68c0-0.21-1.08-0.87-2.37-1.47c-3.3-1.562-6.93-4.38-9.42-7.352
		c-1.17-1.38-2.28-2.488-2.431-2.46C757.8,507.93,757.05,508.89,756.3,510.061z"/>
	<path id="structure70_label83_PLd" bar:type="" bar:growlevel="0" fill="#6D2FE9" d="M550.65,411.51
		c0.3,2.431,1.89,8.521,4.05,15.392c1.02,3.21,2.31,8.13,2.88,10.948c1.38,6.87,2.311,9.602,3.72,11.012
		c1.5,1.5,2.67,1.528,4.05,0.148c1.352-1.35,1.802-3.569,1.562-7.71c-0.33-5.55-2.222-14.37-4.142-19.17
		c-2.52-6.27-8.039-12.33-11.34-12.33h-0.99L550.65,411.51z"/>
	<path id="structure71_label84_ICjM" bar:type="" bar:growlevel="0" fill="#FFF459" d="M576.75,460.83
		c-6.96,9.45-8.34,17.79-5.82,35.22c1.142,7.83,3.931,20.011,4.95,21.66c0.54,0.87,1.979,0.93,2.79,0.12
		c0.96-0.96,1.05-2.46,0.36-5.82c-1.65-7.979-2.28-15.99-2.28-28.858c0-11.7,0.24-14.671,1.68-20.79
		c0.301-1.352,0.57-2.672,0.57-2.91C579,458.49,578.04,459.09,576.75,460.83z"/>
	<path id="structure72_label85_ICj" bar:type="" bar:growlevel="0" fill="#E9DB00" d="M706.35,582.66
		c-1.318,0.12-7.47,0.18-13.68,0.06c-12.3-0.18-14.189-0.09-15.66,0.9c-1.229,0.81-1.438,2.189-0.479,3.06
		c0.87,0.78,5.43,0.932,10.829,0.302c7.439-0.87,8.58-0.66,11.041,1.92c1.979,2.1,2.55,2.398,4.35,2.398c1.35,0,1.41-0.03,4.59-3.33
		c3.57-3.688,4.142-4.47,3.87-5.188C711,582.24,710.25,582.21,706.35,582.66z"/>
	<path id="structure73_label86_LSS" bar:type="" bar:growlevel="0" fill="#8F6BE1" d="M743.1,520.2
		c-8.068,2.01-16.14,6.84-20.459,12.239c-2.28,2.881-3.569,5.609-4.771,10.171c-0.87,3.18-0.96,3.988-0.99,8.04
		c-0.06,7.05,0.33,7.77,4.38,8.58c2.76,0.568,2.79,0.568,3.301-0.03c0.721-0.9,1.141-4.141,1.109-8.55
		c-0.061-3.302,0.062-4.23,0.63-6c2.19-6.812,7.41-13.65,13.352-17.552c1.56-0.988,2.88-2.22,4.47-4.14
		c1.26-1.5,2.28-2.88,2.28-3.06C746.4,519.48,745.74,519.54,743.1,520.2z"/>
	<path id="structure74_label87_E" bar:type="" bar:growlevel="0" fill="#FF0045" d="M656.7,274.32c-4.682,1.439-9.9,3.99-15.15,7.41
		c-6.33,4.11-10.319,7.68-13.89,12.42c-2.551,3.42-10.92,11.88-16.71,16.92c-5.94,5.189-13.8,11.189-20.28,15.42
		c-4.8,3.18-4.77,3.12-4.77,5.279c0,1.98,0.75,4.351,2.76,8.67c4.77,10.351,9.24,24.48,9.24,29.371c0,2.909,0.778,7.109,2.818,15.27
		c2.13,8.49,3.182,13.74,3.9,19.02c1.35,10.142,1.439,16.352,0.3,21.69c-0.51,2.521-0.812,5.01-0.93,8.01
		c-0.15,4.17-0.091,4.65,1.08,11.25c0.688,3.78,1.858,10.261,2.608,14.4c1.562,8.67,2.04,10.648,2.67,10.648
		c0.69,0,0.9-1.35,0.87-5.398c-0.06-4.021-0.45-7.95-2.069-21.03c-1.199-9.6-1.26-12.12-0.449-20.85
		c0.42-4.71,0.568-8.761,0.568-15.75c0-10.41,0.24-13.74,1.562-21.721c1.2-7.199,1.319-9.21,0.899-15.75
		c-0.479-7.8-0.449-20.46,0.119-26.1c1.23-12.75,3.87-22.92,8.25-31.95c2.551-5.28,4.711-8.52,8.972-13.59
		c1.979-2.37,3.778-4.86,4.409-6.12c1.319-2.58,3.061-4.5,5.971-6.54c3.869-2.67,4.859-2.61,6.6,0.33c0.72,1.23,1.14,1.65,1.74,1.71
		c0.689,0.09,0.898-0.12,1.74-1.86c1.8-3.66,5.76-7.74,9.898-10.11c0.961-0.57,1.771-1.2,1.771-1.41
		C661.2,273.39,659.25,273.54,656.7,274.32z M615.15,315.15c-1.74,6.06-3.602,13.439-4.5,17.85c-1.381,6.75-1.44,8.311-1.2,26.1
		c0.27,18.301,0.27,18.631-0.15,22.95c-0.6,5.851-2.159,19.2-2.31,19.65c-0.09,0.239-0.87-2.91-1.771-7.021
		c-0.87-4.109-2.13-9.51-2.79-12c-1.229-4.71-1.648-7.38-1.979-12.18c-0.511-7.83-1.591-11.73-7.71-27.99
		c-2.46-6.57-3.54-9.84-3.48-10.5c0.09-0.87,0.631-1.38,5.642-5.1c7.02-5.221,15.6-11.85,18.898-14.58
		c1.38-1.17,2.58-2.07,2.61-2.01C616.47,310.38,615.9,312.54,615.15,315.15z"/>
	<path id="structure75_label88_mcer" bar:type="" bar:growlevel="0" fill="#D86BC8" d="M905.79,354.061
		c-0.181,0.239-0.39,4.229-0.51,9.39c-0.33,15.689-1.471,28.95-3.63,42.148c-0.42,2.521-0.69,4.802-0.602,5.04
		c0.3,0.78,1.47,0.24,2.16-0.988c0.87-1.53,1.41-3.36,2.521-8.58c2.819-13.351,3.511-21.78,2.971-36.78
		c-0.33-9.33-0.54-10.59-1.891-10.59C906.391,353.7,905.939,353.88,905.79,354.061z"/>
	<path id="structure7_label4_VP" bar:type="" bar:growlevel="0" fill="#FFE900" d="M712.77,559.35c-1.02,0.33-1.948,0.99-3.448,2.58
		c-1.562,1.59-2.67,2.4-4.472,3.271c-4.318,2.1-5.43,2.22-20.13,2.13c-12.479-0.062-12.988-0.062-14.13,0.54
		c-1.26,0.63-2.608,2.04-3.449,3.568c-0.271,0.541-1.171,1.382-1.95,1.892c-1.261,0.81-1.649,0.899-3.119,0.81
		c-1.381-0.09-2.07-0.358-3.66-1.408c-2.91-1.892-4.771-2.521-7.41-2.552c-3.27-0.028-4.141,0.392-7.561,3.631
		s-4.529,3.989-5.789,3.989c-1.381,0-2.61-0.93-4.802-3.568c-3.06-3.69-6.84-6.271-11.55-7.802c-7.59-2.489-12.45,0.602-9.72,6.182
		c1.021,2.1,4.14,5.278,7.41,7.528c4.619,3.182,9.27,4.86,15.27,5.49c3.812,0.39,6.57,0.21,13.892-0.99
		c5.58-0.898,5.729-0.898,7.858-0.42c4.17,0.9,11.61,0.57,19.44-0.93c4.59-0.84,5.94-0.9,22.05-0.72c6.33,0.09,9.21,0,12.33-0.392
		c10.2-1.229,15.6-3.63,17.34-7.68c1.65-3.84,1.892-7.8,0.63-10.74c-0.93-2.188-2.279-3.33-4.71-4.02
		C720.3,558.96,714.66,558.75,712.77,559.35z"/>
	<path fill="#DDFFB2" d="M581.28,551.85c-0.99-2.88-3.57-8.1-6.421-12.96c-2.521-4.26-3.959-7.108-5.189-10.2
		c-2.97-7.5-4.859-15.72-5.79-25.438c-0.239-2.64-0.75-7.71-1.08-11.25c-1.38-14.13-3.3-27.33-4.53-30.99
		c-1.26-3.72-3.448-8.608-7.08-15.778c-3.148-6.271-4.02-8.28-5.85-13.74c-2.43-7.32-4.229-11.28-5.22-11.431
		c-0.07-0.009-0.138-0.007-0.203,0v107.693c1.444-0.082,3.163,3.373,4.883,9.786c0.66,2.46,1.65,5.58,2.22,6.899
		c2.19,5.221,7.5,12.87,12.36,17.819c4.979,5.102,11.49,6.57,17.07,3.84c2.13-1.02,4.08-2.818,5.01-4.59
		C582.48,559.62,582.391,555.15,581.28,551.85z"/>
	<path fill="#77D400" d="M551.43,432.75c-1.47-3.9-2.039-6.39-3.93-16.95c-2.25-12.6-2.85-14.818-4.53-16.5
		c-0.84-0.81-1.079-0.898-2.938-0.898c-0.042,0-0.073,0.001-0.113,0.001v21.402c0.175-0.033,0.335,0.033,0.563,0.227
		c0.959,0.81,2.939,5.37,4.979,11.488c1.14,3.48,2.67,7.472,3.39,8.882c2.82,5.52,3.602,6.898,3.932,6.898
		c0.39,0,0.72-2.04,0.72-4.5C553.5,440.07,552.66,436.05,551.43,432.75z"/>
	<path fill="#8CFF00" d="M552.689,352.14c-2.341-1.829-5.641-5.189-6.63-6.75c-0.899-1.439-1.351-1.529-4.261-0.989
		c-0.517,0.097-1.163,0.133-1.883,0.117v38.875c2.17-0.011,4.403-0.289,5.483-0.803c5.22-2.4,7.979-10.41,8.85-25.74l0.18-3.33
		L552.689,352.14z"/>
	<path id="structure83_label98_acer" bar:type="" bar:growlevel="0" fill="#F200DD" d="M545.88,561.78
		c-1.739,1.77-0.479,5.22,1.92,5.22c2.88,0,4.38-3.15,2.432-5.13C549.03,560.67,547.05,560.64,545.88,561.78z"/>
	<path fill="#FF23E9" d="M540.21,297.03c-0.097,0-0.194,0.002-0.293,0.005v5.267c1.884,0.09,3.683-0.942,3.683-2.722
		C543.6,298.02,542.25,297,540.21,297.03z"/>
	<path id="structure87_text7932_Pir-2" bar:type="" bar:growlevel="0" fill="#F3FF59" d="M832.29,524.4
		c-1.979,1.02-3.24,2.67-5.49,7.289c-3.39,6.989-8.31,14.729-10.35,16.291c-0.511,0.358-1.53,0.84-2.28,1.05
		c-2.189,0.6-4.41-0.062-10.439-3.03c-9.961-4.92-16.649-6.811-23.159-6.54c-2.67,0.12-3.45,0.271-5.37,1.08
		c-5.37,2.28-11.28,6.81-13.32,10.229c-1.29,2.131-2.67,6.061-3.81,10.801c-1.052,4.438-2.461,7.318-5.58,11.49
		c-1.2,1.59-2.19,3.028-2.19,3.18c0,0.57,2.19,5.279,3.21,6.87c0.78,1.29,1.17,1.59,2.04,1.77c1.47,0.271,3.21,0,4.2-0.66
		c2.25-1.47,4.229-6.238,5.7-13.71c0.93-4.89,1.56-6.81,3.03-9.42c2.278-4.108,5.85-7.438,10.288-9.63
		c2.25-1.11,2.25-1.11,6.03-1.08c3.271,0,4.05,0.12,6.15,0.84c3.3,1.142,6.63,2.73,12.3,5.88c5.58,3.12,7.59,3.78,10.8,3.512
		c4.32-0.36,11.07-4.83,14.91-9.812c3.87-5.01,8.61-17.79,8.64-23.159c0-1.649-0.118-2.131-0.688-2.79
		C835.95,523.71,834,523.53,832.29,524.4z"/>
	<path id="structure89_text7934_Pir-3" bar:type="" bar:growlevel="0" fill="#D8E900" d="M801,505.41c0,0.09,0.48,1.68,1.08,3.51
		c2.01,6.03,1.529,8.73-1.8,10.26c-3.03,1.381-14.19,2.312-19.562,1.65c-1.5-0.18-3.779-0.6-5.1-0.93
		c-2.7-0.69-2.431-0.75-7.17,1.59c-3.78,1.858-6.33,3.66-9.03,6.39c-3.899,3.96-5.76,7.26-9.87,17.521
		c-3.75,9.448-5.31,12.51-8.7,17.22c-0.93,1.29-1.648,2.52-1.59,2.729c0.062,0.211,2.131,2.19,4.62,4.44
		c2.46,2.22,4.74,4.41,5.04,4.83c0.87,1.319,1.59,0.93,3.84-2.04c2.61-3.48,4.261-6.75,4.892-9.69
		c0.81-3.778,2.22-8.158,3.448-10.77c1.291-2.7,3.632-5.13,7.562-7.95c2.608-1.859,7.56-4.26,9.81-4.77
		c5.04-1.17,14.61,1.289,25.32,6.51c5.7,2.76,6.03,2.91,8.31,3.029c2.131,0.12,2.49,0.061,3.66-0.63
		c2.25-1.319,6.69-8.011,10.53-15.811c2.55-5.189,3.93-7.11,5.97-8.13c0.631-0.33,1.142-0.75,1.142-0.99c0-0.21-1.32-0.96-2.91-1.68
		c-9.12-3.99-22.472-11.58-27.302-15.48C802.05,505.29,801,504.9,801,505.41z"/>
	<path id="structure8_label5_ICj" bar:type="" bar:growlevel="0" fill="#E9DB00" d="M601.8,570.6
		c-0.568,0.302-2.609,1.802-4.5,3.302c-3.18,2.55-3.51,2.76-4.5,2.58c-0.78-0.12-1.439-0.602-2.609-1.83
		c-1.471-1.562-1.619-1.65-3.029-1.65c-1.71,0-4.23,0.689-4.59,1.26c-0.15,0.21-0.271,2.521-0.271,5.102v4.71l2.58,3.028l2.55,3
		h1.562c2.608,0,4.05-1.229,8.22-6.84c1.41-1.92,3.3-4.319,4.2-5.278c1.949-2.19,3.09-4.382,3.09-6.03
		C604.5,569.97,603.72,569.58,601.8,570.6z"/>
	<path id="structure91_text7936_Pir-1" bar:type="" bar:growlevel="0" fill="#C6D400" d="M837.75,526.59
		c0.27,2.101-0.21,4.53-1.98,9.93c-3.358,10.382-6.51,15.33-12.538,19.802c-4.95,3.66-7.171,4.528-10.95,4.318
		c-2.852-0.148-3.841-0.54-10.53-4.29c-12.84-7.17-19.109-7.858-26.4-2.85c-1.979,1.35-4.618,4.11-6.028,6.33
		c-1.802,2.79-2.67,5.22-3.722,10.439c-1.38,6.869-2.698,10.561-4.68,12.931c-0.9,1.05-2.82,2.069-3.93,2.1
		c-0.96,0-0.87,0.391,0.51,2.22c1.8,2.37,2.46,4.562,2.46,7.892c0,1.529,0.12,2.79,0.271,2.79c0.148,0,1.5-0.75,3-1.65
		c3.028-1.83,6.39-3.21,9.148-3.78l1.83-0.358l0.69-2.13c3.028-9.512,9.3-16.05,16.979-17.762c5.431-1.198,12.84,0.212,19.92,3.78
		c0.99,0.511,2.07,0.9,2.4,0.9c1.109,0,16.35-10.32,20.43-13.86c5.46-4.71,11.25-13.41,14.7-22.05c1.109-2.79,2.97-9.45,2.97-10.62
		c0-0.81-0.148-0.899-2.609-1.649c-1.471-0.449-4.619-1.529-7.021-2.399c-2.43-0.9-4.561-1.62-4.74-1.62
		C837.66,525,837.6,525.45,837.75,526.59z"/>
	<path id="structure97_text7396-3_Tu-2" bar:type="" bar:growlevel="0" fill="#FFFAB2" d="M607.109,568.53l-2.641,1.53l0.182,1.26
		c0.239,1.71-0.99,4.17-3.66,7.229c-2.34,2.73-6.09,7.771-6.09,8.25c0,0.15,2.608,2.91,5.789,6.09
		c9.601,9.66,17.159,14.672,27.391,18.211c6.9,2.369,13.439,3.301,23.22,3.301c17.04-0.03,33.63-1.62,43.65-4.2
		c4.71-1.2,5.939-1.771,13.648-6.12c12.302-6.93,15.48-7.53,19.62-3.75c2.61,2.4,2.971,4.35,2.102,11.34l-0.211,1.62l3.271-0.149
		c3.72-0.149,4.53-0.479,6.21-2.311c2.34-2.58,3.54-6.12,3.54-10.53c0.03-2.37-0.12-3.3-0.78-5.188c-0.42-1.29-0.75-2.7-0.688-3.15
		c0.09-0.75,0.18-0.81,1.29-0.78c1.05,0.062,1.38,0.24,2.609,1.62c1.05,1.17,1.561,1.53,2.101,1.44c0.96-0.12,1.05-1.29,0.239-3.602
		c-0.779-2.278-0.631-3.449,0.631-4.89c1.02-1.17,2.818-1.8,4.199-1.5c0.539,0.12,0.869,0.061,0.869-0.12
		c0-0.63-3.448-7.53-3.778-7.53c-0.181,0-1.08,0.78-1.98,1.74c-1.26,1.32-1.71,2.04-1.89,2.971c-0.091,0.689-0.391,1.471-0.63,1.801
		c-0.392,0.51-0.54,0.39-2.521-1.682l-2.069-2.22l-1.739,0.18c-2.16,0.182-5.07,1.262-6,2.19c-1.381,1.38-0.78,4.56,2.1,11.07
		c1.38,3.06,1.53,3.778,1.051,4.438c-0.601,0.812-1.261,0.392-2.791-1.74c-1.648-2.31-3.778-3.93-6.239-4.71
		c-1.5-0.479-2.399-0.568-4.709-0.449c-3.722,0.181-6.36,1.079-12.15,4.109c-7.17,3.72-12.78,5.58-23.939,7.92
		c-10.801,2.25-18.359,2.97-32.311,3c-9.9,0.03-10.98-0.09-13.59-1.38c-3.301-1.65-4.801-4.08-5.91-9.6
		c-0.63-3.15-1.439-3.302-7.439-1.23c-3.659,1.26-4.409,1.41-6.811,1.41c-3.27,0.03-4.62-0.51-7.68-3
		c-2.431-1.979-3.66-4.2-4.17-7.47c-0.511-3.15,0.18-7.98,1.56-10.92c0.36-0.75,0.69-2.07,0.72-2.88
		c0.062-0.841,0.15-1.83,0.181-2.25C611.01,566.67,609.99,566.85,607.109,568.53z"/>
	<path id="structure98_text7398-4_Tu-3" bar:type="" bar:growlevel="0" fill="#E9E159" d="M736.95,567.33
		c-1.95,2.01-5.19,4.62-7.83,6.39c-1.17,0.78-2.311,1.74-2.55,2.16c-0.57,1.08-2.28,2.37-4.562,3.42
		c-2.069,0.99-8.369,2.7-9.869,2.7c-0.75,0-0.87,0.12-0.78,0.54c0.239,0.84-0.239,1.53-3.359,4.89c-2.97,3.21-4.2,4.17-5.34,4.17
		c-1.17,0-2.94-1.108-4.17-2.58c-0.631-0.778-1.562-1.59-2.101-1.83c-1.319-0.538-5.489-0.51-10.53,0.092
		c-7.649,0.898-11.129-0.062-9.931-2.7c0.211-0.42,0.271-0.87,0.181-0.96c-0.119-0.12-1.5,0.03-3.119,0.3
		c-1.62,0.271-4.53,0.6-6.45,0.75c-3.3,0.271-3.69,0.391-5.94,1.561c-2.818,1.471-4.17,2.881-4.89,5.131
		c-0.66,2.13-1.83,3.21-3.93,3.688c-1.32,0.3-1.74,0.3-2.16,0.03c-1.14-0.87,1.14-4.23,3.78-5.58c0.989-0.51,1.198-0.75,1.198-1.53
		c0-1.229-1.38-3.87-2.039-3.87c-0.271,0-2.461,0.36-4.859,0.78c-5.91,1.05-12.061,1.26-15.9,0.57c-1.56-0.3-3.21-0.602-3.689-0.66
		l-0.811-0.15l0.182,1.65c0.18,1.648,0.18,1.71-0.871,2.76c-0.869,0.87-1.261,1.05-2.311,1.05c-4.02,0-5.76-4.71-2.37-6.448
		c1.2-0.631,1.08-1.11-0.39-1.86c-2.94-1.44-7.59-5.4-9.39-8.04c-0.631-0.9-1.291-1.65-1.5-1.65c-0.45,0-1.53,3.211-1.98,5.82
		c-0.45,2.61-0.18,7.05,0.51,9.03c0.392,1.08,1.11,2.069,2.642,3.63c2.91,2.88,4.35,3.54,8.039,3.66
		c2.729,0.12,3.091,0.06,6.45-1.08c7.591-2.61,7.471-2.641,8.789,3.09c0.932,4.08,2.28,5.97,5.25,7.47
		c2.761,1.38,3.961,1.5,12.45,1.471c16.8-0.119,27.21-1.319,40.74-4.739c7.38-1.86,11.28-3.36,18.66-7.23
		c9.569-5.01,16.739-4.26,21.359,2.28c0.959,1.35,1.439,1.8,1.979,1.8c0.689,0,0.72-0.09,0.601-1.29
		c-0.091-0.688-0.931-3.028-1.859-5.188c-3.062-7.142-2.97-8.7,0.63-10.41c2.46-1.141,4.949-1.41,6.33-0.69
		c0.54,0.271,0.96,0.602,0.96,0.721c0,0.541,2.189,2.761,2.7,2.761c0.42,0,0.63-0.36,0.898-1.59c0.271-1.352,0.602-1.86,2.102-3.36
		c0.989-0.99,1.8-2.01,1.8-2.28c0-0.87-9.931-10.17-10.83-10.17C738.63,565.8,737.76,566.49,736.95,567.33z"/>
	<path id="structure99_text7996_Tu-1" bar:type="" bar:growlevel="0" fill="#FFEF00" d="M593.67,587.88
		c-1.02,1.11-3.57,2.521-4.529,2.521c-0.511,0-0.841,0.148-0.841,0.42c0,1.14,11.88,13.739,16.53,17.489
		c7.65,6.181,15.54,10.051,23.97,11.761c9.21,1.83,19.141,2.55,35.25,2.55c15.66,0,30.3-0.84,36.181-2.07
		c5.431-1.14,15.239-5.25,20.939-8.76l1.95-1.2l2.1,0.99c1.171,0.54,2.7,1.08,3.36,1.2l1.26,0.18l0.51-2.91
		c0.87-4.83,0.271-7.62-2.13-9.75c-4.14-3.63-8.04-2.79-20.37,4.29c-8.698,5.01-12.688,6.3-24.75,7.98
		c-9.63,1.35-14.789,1.648-29.1,1.648c-13.2,0.03-13.77,0-17.25-0.688c-10.561-2.07-20.85-7.08-29.55-14.37
		c-1.561-1.32-4.98-4.562-7.561-7.23c-2.58-2.64-4.83-4.83-4.979-4.83C594.54,587.1,594.09,587.46,593.67,587.88z"/>
	<path fill="#A8E959" d="M581.28,551.85c-0.99-2.88-3.57-8.1-6.421-12.96c-2.521-4.26-3.959-7.108-5.189-10.2
		c-2.97-7.5-4.859-15.72-5.79-25.438c-0.239-2.64-0.75-7.71-1.08-11.25c-1.38-14.13-3.3-27.33-4.53-30.99
		c-1.26-3.72-3.448-8.608-7.08-15.778c-3.148-6.271-4.02-8.28-5.85-13.74c-2.43-7.32-4.229-11.28-5.22-11.431
		c-0.07-0.009-0.138-0.007-0.203,0v107.693c1.444-0.082,3.163,3.373,4.883,9.786c0.66,2.46,1.65,5.58,2.22,6.899
		c2.19,5.221,7.5,12.87,12.36,17.819c4.979,5.102,11.49,6.57,17.07,3.84c2.13-1.02,4.08-2.818,5.01-4.59
		C582.48,559.62,582.391,555.15,581.28,551.85z"/>
	
		<text id="label30" bar:growlevel="0" transform="matrix(1 0 0 1 803.7197 260.5908)" fill="#232323" enable-background="new    " font-family="'TimesNewRomanPSMT'" font-size="9">S1J</text>
	
		<text id="label31" bar:growlevel="0" transform="matrix(1 0 0 1 744.0605 218.793)" fill="#232323" enable-background="new    " font-family="'TimesNewRomanPSMT'" font-size="9">S1FL</text>
	
		<text id="label32" bar:growlevel="0" transform="matrix(1 0 0 1 673.3203 189.998)" fill="#232323" enable-background="new    " font-family="'TimesNewRomanPSMT'" font-size="9">M1</text>
	
		<text id="label33" bar:growlevel="0" transform="matrix(1 0 0 1 624.5703 180.2461)" fill="#232323" enable-background="new    " font-family="'TimesNewRomanPSMT'" font-size="9">M2</text>
	
		<text id="label34" bar:growlevel="0" transform="matrix(1 0 0 1 581.3105 197.4199)" fill="#232323" enable-background="new    " font-family="'TimesNewRomanPSMT'" font-size="9">Cg1</text>
	
		<text id="label35" bar:growlevel="0" transform="matrix(1 0 0 1 565.0605 259.6504)" fill="#232323" enable-background="new    " font-family="'TimesNewRomanPSMT'" font-size="9">Cg2</text>
	
		<text id="Unlabeled-2463-1761" bar:growlevel="0" transform="matrix(1 0 0 1 732.5996 564.9004)" fill="#232323" enable-background="new    " font-family="'TimesNewRomanPSMT'" font-size="9">CPu</text>
	
		<text id="Unlabeled-2463-1761_1_" bar:growlevel="0" transform="matrix(1 0 0 1 593.4004 565.7998)" fill="#232323" enable-background="new    " font-family="'TimesNewRomanPSMT'" font-size="9">grey</text>
	
		<text id="label9" bar:growlevel="0" transform="matrix(1 0 0 1 554.3799 549.3008)" fill="#232323" enable-background="new    " font-family="'TimesNewRomanPSMT'" font-size="9">VDB</text>
	
		<text id="label0" bar:growlevel="0" transform="matrix(1 0 0 1 584.1699 506.8135)" fill="#232323" enable-background="new    " font-family="'TimesNewRomanPSMT'" font-size="9">AcbSh</text>
	
		<text id="label1" bar:growlevel="0" transform="matrix(1 0 0 1 643.2305 523.5371)" fill="#232323" enable-background="new    " font-family="'TimesNewRomanPSMT'" font-size="9">AcbC</text>
	
		<text id="label2" bar:growlevel="0" transform="matrix(1 0 0 1 683.7998 547.1309)" fill="#232323" enable-background="new    " font-family="'TimesNewRomanPSMT'" font-size="9">LAcbSh</text>
	
		<text id="label3" bar:growlevel="0" transform="matrix(1 0 0 1 738.9697 536.0693)" fill="#232323" enable-background="new    " font-family="'TimesNewRomanPSMT'" font-size="9">IEn</text>
	
		<text id="label4" bar:growlevel="0" transform="matrix(1 0 0 1 678.9902 578.377)" fill="#232323" enable-background="new    " font-family="'TimesNewRomanPSMT'" font-size="9">VP</text>
	
		<text id="label5" bar:growlevel="0" transform="matrix(1 0 0 1 588.0498 582.7461)" fill="#232323" enable-background="new    " font-family="'TimesNewRomanPSMT'" font-size="9">ICj</text>
	
		<text id="label85" bar:growlevel="0" transform="matrix(1 0 0 1 681.1025 584.2012)" fill="#232323" enable-background="new    " font-family="'TimesNewRomanPSMT'" font-size="9">ICj</text>
	
		<text id="label84" bar:growlevel="0" transform="matrix(1 0 0 1 572.75 478.2588)" fill="#232323" enable-background="new    " font-family="'TimesNewRomanPSMT'" font-size="9">ICjM</text>
	
		<text id="label87" bar:growlevel="0" transform="matrix(1 0 0 1 618.6699 308.6787)" fill="#232323" enable-background="new    " font-family="'TimesNewRomanPSMT'" font-size="9">E</text>
	
		<text id="label86" bar:growlevel="0" transform="matrix(1 0 0 1 729.2402 531.7783)" fill="#232323" enable-background="new    " font-family="'TimesNewRomanPSMT'" font-size="9">LSS</text>
	
		<text id="label81" bar:growlevel="0" transform="matrix(1 0 0 1 545.5195 304.0117)" fill="#232323" enable-background="new    " font-family="'TimesNewRomanPSMT'" font-size="9">IG</text>
	
		<text id="label83" bar:growlevel="0" transform="matrix(1 0 0 1 558.8203 425.709)" fill="#232323" enable-background="new    " font-family="'TimesNewRomanPSMT'" font-size="9">PLd</text>
	
		<text id="label88" bar:growlevel="0" transform="matrix(1 0 0 1 906.8477 369.584)" fill="#232323" enable-background="new    " font-family="'TimesNewRomanPSMT'" font-size="9">mcer</text>
	
		<text id="text7398-4" bar:growlevel="0" transform="matrix(1 0 0 1 669.3828 601.0264)" fill="#232323" enable-background="new    " font-family="'TimesNewRomanPSMT'" font-size="9">Tu-3</text>
	
		<text id="label12" bar:growlevel="0" transform="matrix(1 0 0 1 552.0703 394.1582)" fill="#232323" enable-background="new    " font-family="'TimesNewRomanPSMT'" font-size="9">LSI</text>
	
		<text id="label11" bar:growlevel="0" transform="matrix(1 0 0 1 587.8105 417.0684)" fill="#232323" enable-background="new    " font-family="'TimesNewRomanPSMT'" font-size="9">LSV</text>
	
		<text id="label16" bar:growlevel="0" transform="matrix(1 0 0 1 686.4004 370.29)" fill="#232323" enable-background="new    " font-family="'TimesNewRomanPSMT'" font-size="9">CPu</text>
	
		<text id="label14" bar:growlevel="0" transform="matrix(1 0 0 1 564.8906 350.4365)" fill="#232323" enable-background="new    " font-family="'TimesNewRomanPSMT'" font-size="9">LSD</text>
	
		<text id="label15" bar:growlevel="0" transform="matrix(1 0 0 1 596.3203 342.085)" fill="#232323" enable-background="new    " font-family="'TimesNewRomanPSMT'" font-size="9">LV</text>
	
		<text id="label96" bar:growlevel="0" transform="matrix(1 0 0 1 546.9756 368.04)" fill="#232323" enable-background="new    " font-family="'TimesNewRomanPSMT'" font-size="9">SHi</text>
	
		<text id="label94" bar:growlevel="0" transform="matrix(1 0 0 1 546.2432 465.0342)" fill="#232323" enable-background="new    " font-family="'TimesNewRomanPSMT'" font-size="9">MS</text>
	
		<text id="label95" bar:growlevel="0" transform="matrix(1 0 0 1 544.3271 413.2256)" fill="#232323" enable-background="new    " font-family="'TimesNewRomanPSMT'" font-size="9">Ld</text>
	
		<text id="label98" bar:growlevel="0" transform="matrix(1 0 0 1 547.4961 564.9033)" fill="#232323" enable-background="new    " font-family="'TimesNewRomanPSMT'" font-size="9">acer</text>
	
		<text id="label99" bar:growlevel="0" transform="matrix(1 0 0 1 542.3496 300.2002)" fill="#232323" enable-background="new    " font-family="'TimesNewRomanPSMT'" font-size="9">azp</text>
	
		<text id="text7932" bar:growlevel="0" transform="matrix(1 0 0 1 782.3535 547.4678)" fill="#232323" enable-background="new    " font-family="'TimesNewRomanPSMT'" font-size="9">Pir-2</text>
	
		<text id="text7934" bar:growlevel="0" transform="matrix(1 0 0 1 782.8672 533.5977)" fill="#232323" enable-background="new    " font-family="'TimesNewRomanPSMT'" font-size="9">Pir-3</text>
	
		<text id="text7936" bar:growlevel="0" transform="matrix(1 0 0 1 784.0869 560.1816)" fill="#232323" enable-background="new    " font-family="'TimesNewRomanPSMT'" font-size="9">Pir-1</text>
	
		<text id="label77" bar:growlevel="0" transform="matrix(1 0 0 1 790.75 582.7275)" fill="#232323" enable-background="new    " font-family="'TimesNewRomanPSMT'" font-size="9">lo</text>
	
		<text id="label78" bar:growlevel="0" transform="matrix(1 0 0 1 634.8301 499.1426)" fill="#232323" enable-background="new    " font-family="'TimesNewRomanPSMT'" font-size="9">aca</text>
	
		<text id="label79" bar:growlevel="0" transform="matrix(1 0 0 1 644.7695 580.2969)" fill="#232323" enable-background="new    " font-family="'TimesNewRomanPSMT'" font-size="9">mfb</text>
	
		<text id="label75" bar:growlevel="0" transform="matrix(1 0 0 1 626.2695 243.5176)" fill="#232323" enable-background="new    " font-family="'TimesNewRomanPSMT'" font-size="9">cg</text>
	
		<text id="label76" bar:growlevel="0" transform="matrix(1 0 0 1 775.3701 339.2939)" fill="#232323" enable-background="new    " font-family="'TimesNewRomanPSMT'" font-size="9">ec</text>
	
		<text id="text7966-9" bar:growlevel="0" transform="matrix(1 0 0 1 747.5059 600.6572)" fill="#232323" enable-background="new    " font-family="'TimesNewRomanPSMT'" font-size="9">Tu-1</text>
	
		<text id="text7996" bar:growlevel="0" transform="matrix(1 0 0 1 681.8164 618.0264)" fill="#232323" enable-background="new    " font-family="'TimesNewRomanPSMT'" font-size="9">Tu-1</text>
	
		<text id="text3078-1" bar:growlevel="0" transform="matrix(1 0 0 1 852.2324 258.9375)" fill="#232323" enable-background="new    " font-family="'TimesNewRomanPSMT'" font-size="9">S1DZO</text>
	
		<text id="label23" bar:growlevel="0" transform="matrix(1 0 0 1 822.2305 481.1689)" fill="#232323" enable-background="new    " font-family="'TimesNewRomanPSMT'" font-size="9">AID</text>
	
		<text id="label22" bar:growlevel="0" transform="matrix(1 0 0 1 814.1406 504.0332)" fill="#232323" enable-background="new    " font-family="'TimesNewRomanPSMT'" font-size="9">AIV</text>
	
		<text id="label21" bar:growlevel="0" transform="matrix(1 0 0 1 772 503.4531)" fill="#232323" enable-background="new    " font-family="'TimesNewRomanPSMT'" font-size="9">DEn</text>
	
		<text id="label27" bar:growlevel="0" transform="matrix(1 0 0 1 783.7695 442.623)" fill="#232323" enable-background="new    " font-family="'TimesNewRomanPSMT'" font-size="9">DCl</text>
	
		<text id="label26" bar:growlevel="0" transform="matrix(1 0 0 1 777.2305 463.9766)" fill="#232323" enable-background="new    " font-family="'TimesNewRomanPSMT'" font-size="9">VCl</text>
	
		<text id="label25" bar:growlevel="0" transform="matrix(1 0 0 1 835.9395 438.9023)" fill="#232323" enable-background="new    " font-family="'TimesNewRomanPSMT'" font-size="9">GI</text>
	
		<text id="label24" bar:growlevel="0" transform="matrix(1 0 0 1 830.25 460.7256)" fill="#232323" enable-background="new    " font-family="'TimesNewRomanPSMT'" font-size="9">DI</text>
	
		<text id="label29" bar:growlevel="0" transform="matrix(1 0 0 1 832.6299 333.0332)" fill="#232323" enable-background="new    " font-family="'TimesNewRomanPSMT'" font-size="9">S1ULp</text>
	
		<text id="label28" bar:growlevel="0" transform="matrix(1 0 0 1 840.0195 407.3262)" fill="#232323" enable-background="new    " font-family="'TimesNewRomanPSMT'" font-size="9">S2</text>
	
		<text id="text7396-3" bar:growlevel="0" transform="matrix(1 0 0 1 672.4141 610.4893)" fill="#232323" enable-background="new    " font-family="'TimesNewRomanPSMT'" font-size="9">Tu-2</text>
	
		<text id="text3035" bar:growlevel="0" transform="matrix(1 0 0 1 550.5303 332.3271)" fill="#232323" enable-background="new    " font-family="'TimesNewRomanPSMT'" font-size="9">cc</text>
	
		<text id="text3076-5" bar:growlevel="0" transform="matrix(1 0 0 1 836.2949 214.4297)" fill="#232323" enable-background="new    " font-family="'TimesNewRomanPSMT'" font-size="9">S1DZ</text>
</g>
</svg>
