<?xml version="1.0" encoding="utf-8"?>
<!-- Generator: Adobe Illustrator 16.0.0, SVG Export Plug-In . SVG Version: 6.00 Build 0)  -->
<!DOCTYPE svg PUBLIC "-//W3C//DTD SVG 1.1//EN" "http://www.w3.org/Graphics/SVG/1.1/DTD/svg11.dtd">
<svg version="1.1"
	 id="body" xmlns:bar="http://www.3dbar.org" xmlns:cc="http://creativecommons.org/ns#" xmlns:dc="http://purl.org/dc/elements/1.1/" xmlns:inkscape="http://www.inkscape.org/namespaces/inkscape" xmlns:rdf="http://www.w3.org/1999/02/22-rdf-syntax-ns#" xmlns:sodipodi="http://sodipodi.sourceforge.net/DTD/sodipodi-0.dtd" xmlns:svg="http://www.w3.org/2000/svg" sodipodi:docname="82_pretrace_pretrace_v1.svg" inkscape:version="0.47pre4 r22446"
	 xmlns="http://www.w3.org/2000/svg" xmlns:xlink="http://www.w3.org/1999/xlink" x="0px" y="0px" width="1008px" height="1008px"
	 viewBox="0 0 1008 1008" enable-background="new 0 0 1008 1008" xml:space="preserve">
<sodipodi:namedview  showgrid="false" pagecolor="#ffffff" objecttolerance="10" inkscape:zoom="2.0324271" inkscape:cy="705.46964" inkscape:cx="643.29526" id="namedview335" guidetolerance="10" gridtolerance="10" borderopacity="1" bordercolor="#666666" inkscape:window-y="24" inkscape:window-x="1680" inkscape:pageopacity="0" inkscape:window-width="1920" inkscape:window-maximized="1" inkscape:window-height="1129" inkscape:pageshadow="2" inkscape:current-layer="content" inkscape:object-paths="true">
	</sodipodi:namedview>
<title  id="title3">SVG drawing</title>
<desc  id="desc5">This was produced by version 4.2 of GNU libplot, a free library for exporting 2-D vector graphics.</desc>
<defs>
	
	<rdf:RDF>
		<cc:Work  rdf:about="">
			<dc:format>image/svg+xml</dc:format>
			<dc:type  rdf:resource="http://purl.org/dc/dcmitype/StillImage"></dc:type>
		</cc:Work>
	</rdf:RDF>
	<bar:data  name="coronalcoord" content="-0.72"></bar:data>
	
		<bar:data  name="rendererConf" content="{&apos;ReferenceHeight&apos;: 900, &apos;ReferenceWidth&apos;: 1200, &apos;imageSize&apos;: (1200, 900)}">
		</bar:data>
	
		<bar:data  name="tracingConf" content="{&apos;DumpEachStepSVG&apos;: False, &apos;DumpEachStepPNG&apos;: False, &apos;GrowDefaultBoundaryColor&apos;: 200, &apos;CacheLevel&apos;: 5, &apos;NewPathIdTemplate&apos;: &apos;structure%d_%s_%s&apos;, &apos;PoTraceConf&apos;: {&apos;potrace_accuracy_parameter&apos;: &apos;0.001&apos;, &apos;potrace_width_string&apos;: &apos;1200pt&apos;, &apos;potrace_svg_resolution_string&apos;: &apos;300x300&apos;, &apos;potrace_height_string&apos;: &apos;900pt&apos;}, &apos;DetectUnlabelled&apos;: True, &apos;DumpVBrain&apos;: False, &apos;DumpWrongSeed&apos;: True, &apos;DumpDirectory&apos;: &apos;.&apos;, &apos;MinFiterTimesApplication&apos;: 3, &apos;RegionAlreadyTraced&apos;: 100, &apos;UnlabelledTreshold&apos;: 500}">
		</bar:data>
	<bar:data  name="transformationmatrix" content="0.0176211454,-9.5150660793,0.0176211454,-1.5355884426"></bar:data>
</defs>
<g id="content">
	<path fill="#FF000C" d="M958.35,386.25c-2.039-19.71-7.8-45.3-15.51-68.85c-13.65-41.642-36.42-80.58-66.029-113.012
		c-9.33-10.2-22.438-22.59-32.25-30.51C822.15,155.82,793.35,140.07,762.6,129c-32.97-11.85-55.47-17.76-76.948-20.22
		c-14.341-1.65-33.149-1.38-49.439,0.72c-31.89,4.11-58.74,15.63-76.2,32.67c-9.27,9.03-15.898,19.89-18.659,30.57
		c-0.42,1.59-0.75,3.21-0.75,3.6c0,0.48-0.148,0.69-0.479,0.6c-0.03-0.005-0.06-0.024-0.089-0.04v93.802
		c0.312-0.166,0.541,0.072,0.688,0.708c0.302,1.23,2.103,3.81,3.33,4.8c0.57,0.45,1.051,0.99,1.051,1.17
		c0,0.21-0.479,0.72-1.051,1.14c-1.47,1.14-2.79,2.58-3.18,3.54c-0.148,0.387-0.511,0.691-0.839,0.824V638.25
		c27.15,0,32.252-0.061,38.369-0.54c14.97-1.14,24-2.13,30.6-3.36c5.188-0.96,5.25-0.96,13.62-1.5
		c8.46-0.539,11.311-0.987,13.68-2.158c3-1.529,3.631-3.449,2.25-7.109c-1.02-2.729-0.987-4.563,0.12-6.09
		c1.74-2.4,5.34-3.99,8.04-3.54c3.12,0.54,5.13,1.438,11.34,5.1c6.87,4.052,7.86,4.44,16.801,6.75
		c6.479,1.683,10.021,2.853,19.199,6.302c12.54,4.711,19.592,6.811,29.25,8.67c10.83,2.068,22.5,2.908,30,2.131
		c2.07-0.24,4.08-0.393,4.5-0.393c0.42,0.03,2.7,0.69,5.103,1.53c9.81,3.39,24.93,5.16,40.26,4.74c9.18-0.24,11.76-0.57,17.13-2.16
		c23.19-6.932,44.431-19.71,62.16-37.47c11.28-11.28,16.71-19.62,30.45-46.803c10.619-21.027,16.979-36.659,20.397-50.13
		c2.82-11.159,2.763-12.96-0.75-17.397c-1.89-2.37-0.897-5.223,2.91-8.58c5.34-4.682,5.34-4.682,7.05-8.313
		c2.882-6.09,6.091-15.27,10.41-29.729C959.16,427.29,960.72,409.53,958.35,386.25z"/>
	<path id="structure2_label137_vBrain" bar:type="" bar:growlevel="0" fill="#FF000C" d="M662.34,629.07
		c-1.02,0.66-1.5,1.198-1.89,2.25c-0.511,1.317-0.511,1.438,0,2.76c0.78,2.01,2.34,2.97,4.95,2.97c2.25,0,3.72-0.75,4.647-2.34
		C672.48,630.6,666.66,626.34,662.34,629.07z"/>
	<path id="structure103_label107_st" bar:type="" bar:growlevel="0" fill="#B18EE1" d="M670.77,370.26
		c-3.209,4.62-12.447,14.94-24.629,27.48c-3.271,3.357-5.938,6.3-5.938,6.51s0.449,0.84,1.02,1.41
		c1.23,1.229,1.802,3.12,1.563,5.188c-0.182,1.712-1.29,5.103-2.25,6.962c-0.33,0.688-0.63,1.828-0.63,2.521
		c0,0.99,0.18,1.41,1.02,2.25c0.87,0.87,1.23,1.02,2.4,1.02c1.71,0,4.108-0.897,6.449-2.397c1.021-0.66,1.92-1.2,1.979-1.2
		c0.09,0,0.63,0.54,1.229,1.2c1.648,1.83,1.948,1.68,2.368-1.2c0.75-5.1,3.48-14.13,7.261-24c5.189-13.5,9.689-25.68,9.689-26.16
		C672.3,368.97,671.49,369.21,670.77,370.26z"/>
	<path id="structure104_label108_cg" bar:type="" bar:growlevel="0" fill="#3FFF00" d="M619.8,226.05
		c-2.22,0.63-3.81,1.62-5.43,3.36c-1.08,1.14-2.729,4.229-8.311,15.54c-4.142,8.34-7.771,15.24-8.882,16.95
		c-2.43,3.63-6.147,8.07-8.85,10.56c-3.36,3.12-2.67,3.57,1.62,1.11c9.09-5.19,17.397-13.05,24.3-22.92
		c2.97-4.23,5.55-6.66,9.12-8.52c6.42-3.33,12.75-4.17,26.729-3.63c4.53,0.18,10.2,0.51,12.603,0.75
		c2.397,0.24,10.56,0.93,18.147,1.5c12.42,0.96,19.86,1.62,23.94,2.16c1.109,0.12,1.41,0.09,1.41-0.27c0-0.33-1.17-0.75-3.96-1.53
		c-8.25-2.25-10.591-2.76-19.29-4.29c-7.17-1.23-13.86-2.91-20.4-5.07c-6.21-2.04-15.03-3.63-28.89-5.25
		C626.01,225.63,621.811,225.51,619.8,226.05z"/>
	<path id="structure105_label109_ic" bar:type="" bar:growlevel="0" fill="#A500FF" d="M691.92,317.37
		c-1.71,0.78-3.27,2.25-3.811,3.569c-0.271,0.659-0.539,2.699-0.659,4.739c-0.42,7.71-1.44,14.4-2.88,19.17
		c-1.23,3.99-2.552,6.75-4.92,10.382c-1.08,1.648-2.28,3.63-2.67,4.408c-1.382,2.7-4.143,9.57-7.683,18.96
		c-1.949,5.19-4.56,12.091-5.79,15.33c-4.197,10.86-6.688,18.78-7.857,25.17c-1.143,6.303-2.011,16.263-2.16,25.2
		c-0.301,17.04,1.859,34.53,5.04,40.86c1.47,2.938,5.37,8.938,5.79,8.938c1.528,0,8.278-6.06,10.02-9.027
		c2.101-3.603,2.521-5.7,3.062-16.021c0.33-6.63,1.381-17.489,2.58-26.7c2.13-16.71,4.591-27.51,9.568-42.119
		c4.41-12.898,8.61-22.261,14.011-31.199c5.671-9.36,7.682-15.96,7.352-24.03c-0.181-4.2-0.69-6.99-2.07-10.95
		c-2.52-7.35-7.47-14.52-11.398-16.529C695.7,316.65,693.66,316.59,691.92,317.37z"/>
	<path fill="#97FF59" d="M850.109,413.7c-2.729-23.97-9.329-45.75-20.789-68.7c-6.722-13.439-13.5-24.09-21.99-34.5
		c-18.811-23.1-38.971-40.14-61.35-51.9c-11.853-6.21-31.53-14.25-36.632-14.97c-5.971-0.81-14.011-1.59-26.729-2.58
		c-7.59-0.6-16.53-1.32-19.92-1.65c-8.28-0.78-22.47-1.08-27-0.6c-8.46,0.9-13.979,3.33-18.24,7.98c-1.021,1.14-3.3,4.02-5.04,6.39
		c-6.54,8.82-14.91,16.35-23.13,20.79c-14.728,7.995-32.038,12.109-49.259,12.166v22.184c1.361-0.002,2.731-0.122,5.129-0.358
		c14.311-1.38,32.34-4.65,41.04-7.41c5.909-1.89,14.069-6.42,30.78-17.13c12.06-7.68,24.688-14.43,30.869-16.5
		c7.801-2.58,17.851-3.81,23.521-2.91c2.13,0.36,6.33,1.74,8.58,2.85c2.13,1.02,4.319,3.06,6.03,5.55
		c1.647,2.43,1.199,2.34,5.22,0.93c3.81-1.35,7.47-1.86,14.399-2.04c16.438-0.42,28.771,2.43,44.791,10.44
		c15.959,7.95,29.817,18,41.31,29.85c13.89,14.34,24.989,29.88,34.08,47.67c11.489,22.47,17.76,44.399,20.399,71.34
		c0.631,6.42,0.898,23.61,0.448,28.71c-0.688,7.83-2.58,16.563-5.58,25.8c-1.737,5.342-1.89,6-1.26,6
		c1.229,0,7.353-16.14,8.58-22.617c1.47-7.593,2.189-19.563,2.25-37.383C850.65,420.66,850.561,417.51,850.109,413.7z"/>
	<path id="structure107_label111_lo" bar:type="" bar:growlevel="0" fill="#B8FF00" d="M848.55,632.1
		c-13.05,5.341-26.1,9.12-37.35,10.893c-4.92,0.75-15.45,0.897-19.352,0.27c-5.641-0.93-9.868-2.25-17.068-5.31
		c-6.12-2.58-8.103-3.15-11.22-3.15c-4.263,0-6.36,0.933-6.813,3.03c-0.271,1.2,0.9,3.51,2.16,4.35
		c1.47,0.99,7.198,2.762,12.148,3.75c7.92,1.592,13.409,2.103,25.021,2.28c13.229,0.21,17.88-0.12,22.92-1.59
		c11.101-3.21,23.22-8.4,33.09-14.19c2.94-1.738,3.99-2.79,2.7-2.697C854.49,629.76,851.67,630.811,848.55,632.1z"/>
	<path id="structure108_label112_sm" bar:type="" bar:growlevel="0" fill="#C19AF6" d="M586.68,427.68
		c-3.72,1.17-6.539,4.29-6.569,7.29c0,1.83,2.102,8.13,2.7,8.13c0.239,0,0.841-0.33,1.319-0.72c1.681-1.439,4.53-1.59,7.38-0.45
		c0.54,0.21,1.051,0.302,1.17,0.183c0.12-0.12,0.33-1.86,0.48-3.9c0.119-2.01,0.449-4.89,0.72-6.359
		c0.271-1.5,0.57-3.061,0.63-3.479c0.12-0.69,0.03-0.81-0.81-0.99C592.02,427.05,588.21,427.23,586.68,427.68z"/>
	<path id="structure109_label113_a" bar:type="" bar:growlevel="0" fill="#E547D8" d="M663.45,628.53
		c-1.92,0.6-3.15,2.25-3.15,4.229c0,3.302,4.021,5.4,7.352,3.87c2.039-0.93,2.698-1.89,2.698-3.93c0-1.59-0.09-1.86-0.989-2.79
		C667.891,628.38,665.641,627.87,663.45,628.53z"/>
	<path id="structure10_label7_B" bar:type="" bar:growlevel="0" fill="#FFFBB2" d="M690.21,528.96c-0.45,1.05-1.26,3.72-1.83,5.94
		c-1.771,6.869-5.91,18.447-9.6,26.85c-1.141,2.58-1.921,7.35-1.53,9.36l0.18,0.987l3.063-0.18c3.479-0.21,3.148,0,5.64-3.72
		c4.44-6.66,8.642-17.58,10.05-26.103c0.633-3.72,0.422-8.43-0.479-11.01c-0.811-2.37-2.341-3.99-3.72-3.99
		C691.02,527.1,690.93,527.189,690.21,528.96z"/>
	<path id="structure110_label114_BAC" bar:type="" bar:growlevel="0" fill="#D44500" d="M585.3,441.78c-1.5,0.659-2.1,1.29-2.1,2.31
		c0,0.93,2.85,7.771,4.859,11.7c1.289,2.43,3.601,5.31,4.318,5.31c0.36,0,0.42-1.47,0.42-8.938c0-8.91,0-8.972-0.659-9.602
		c-0.391-0.329-1.079-0.75-1.529-0.931C589.41,441.15,586.53,441.24,585.3,441.78z"/>
	<path id="structure113_label117_E" bar:type="" bar:growlevel="0" fill="#FF0045" d="M683.189,270.36
		c0.091,0.39,0.33,1.26,0.541,1.95c0.357,1.14,0.33,1.41-0.24,2.58c-0.36,0.72-1.98,3-3.601,5.04s-3.422,4.38-4.021,5.22
		c-5.16,7.2-8.34,18.99-8.011,29.76c0.181,4.979,0.898,9.09,1.648,9.09c0.271,0,0.36-1.29,0.36-5.64
		c0.03-8.521,1.14-15.99,3.479-23.07c2.189-6.57,5.67-11.85,11.819-17.94c1.17-1.14,2.13-2.25,2.13-2.49c0-0.45-0.6-1.41-2.188-3.6
		C683.88,269.61,682.891,269.16,683.189,270.36z"/>
	<path id="structure114_label118_IG" bar:type="" bar:growlevel="0" fill="#B2FF00" d="M548.07,283.29
		c-2.94,0.84-4.74,2.61-2.61,2.61c1.229-0.03,6.601-0.51,8.13-0.78c1.41-0.21,1.41-0.75,0.062-1.41
		C552.18,283.02,549.72,282.84,548.07,283.29z"/>
	<path fill="#7123FA" d="M551.22,395.1c-0.63-0.688-1.35-1.35-1.647-1.528c-0.616-0.309-7.025-1.06-9.539-1.136v7.521l5.309-0.656
		c2.91-0.358,5.643-0.81,6.063-1.02C552.6,397.74,552.54,396.57,551.22,395.1z"/>
	<path id="structure117_label122_SChVM" bar:type="" bar:growlevel="0" fill="#FF7A00" d="M543.51,597.96
		c-0.18,6.39-0.54,8.7-1.649,10.59c-0.568,0.933-0.658,1.563-0.658,4.353c0,3.63,0.18,4.289,1.56,6.06
		c1.29,1.59,2.25,2.04,4.32,2.04c2.312,0,7.562-0.87,8.67-1.41c1.649-0.84,4.05-2.79,4.05-3.33c0-0.33-0.688-0.87-1.949-1.527
		c-3.75-1.92-4.648-3.45-10.528-17.82c-1.92-4.68-2.103-5.01-2.853-5.01h-0.778L543.51,597.96z"/>
	<path id="structure118_label124_STLP" bar:type="" bar:growlevel="0" fill="#9AE900" d="M651.96,441.811
		c-0.99,5.369-1.47,9.149-2.46,19.319c-1.35,13.83-2.939,27.602-3.6,31.11c-0.631,3.24-0.813,7.26-0.33,7.26
		c0.93,0,8.698-1.59,10.92-2.25c3.81-1.08,7.41-2.52,7.41-2.939c0-0.211-1.021-1.921-2.28-3.811c-2.852-4.38-4.17-7.02-4.92-10.05
		c-2.25-8.79-3.78-24.72-3.54-36.09C653.34,437.13,652.95,436.35,651.96,441.811z"/>
	<path id="structure119_label125_IPACL" bar:type="" bar:growlevel="0" fill="#FFE200" d="M720,511.59c0,0.271,1.26,2.221,2.79,4.32
		c3.96,5.43,10.95,15.779,14.91,22.14c4.8,7.682,6.568,10.2,9.12,12.931c3.479,3.75,7.38,6.239,12.119,7.739
		c2.131,0.66,7.141,1.683,8.37,1.683c0.181,0,0.658-0.633,1.05-1.44c0.421-0.84,2.188-2.97,4.529-5.34
		c2.102-2.16,3.812-4.08,3.812-4.26c0-0.24-0.78-0.36-2.312-0.36c-5.818,0-10.891-1.11-15.391-3.36
		c-2.643-1.317-3.54-1.979-5.7-4.14c-2.04-2.01-2.88-3.12-3.96-5.25c-0.75-1.5-1.59-3.479-1.83-4.41l-0.448-1.71l4.17,2.07
		c4.709,2.37,12.33,5.7,13.05,5.7c0.239,0,0.421-0.212,0.359-0.45c-0.091-0.45-31.921-19.71-39.181-23.67
		C720.72,511.17,720,510.9,720,511.59z"/>
	<path id="structure11_label8_ESO" bar:type="" bar:growlevel="0" fill="#5217E1" d="M629.88,597.12
		c-2.069,0.78-2.7,1.68-2.819,4.02c-0.091,1.62,0,2.37,0.539,3.57c0.99,2.34,1.95,3.06,4.382,3.42c4.141,0.57,8.159,1.83,12.778,3.9
		c3.57,1.62,4.92,1.8,6.45,0.87c1.41-0.841,2.01-2.223,1.979-4.353c-0.062-4.737-4.859-9.028-12.239-10.979
		C637.8,596.73,631.59,596.49,629.88,597.12z"/>
	<path id="structure120_label126_IPACM" bar:type="" bar:growlevel="0" fill="#FFF6B2" d="M719.4,513c0,0.9,3.33,12.15,6.777,22.95
		c3.78,11.79,5.94,16.83,8.82,20.67c5.04,6.63,11.43,10.439,18.3,10.89c2.4,0.15,2.763,0.09,6.15-1.05
		c1.979-0.66,4.199-1.29,4.949-1.41c1.921-0.3,2.278-0.567,2.489-1.858c0.119-0.631,0.271-1.472,0.392-1.892
		c0.147-0.75,0.119-0.78-2.552-1.14c-7.051-0.96-12.961-3.93-17.729-8.94c-2.76-2.909-4.108-4.738-8.641-12
		C731.16,527.7,720.6,512.4,719.82,512.4C719.58,512.4,719.4,512.67,719.4,513z"/>
	<path id="structure121_label127_MPOL" bar:type="" bar:growlevel="0" fill="#FF6A00" d="M586.02,515.28
		c-1.02,0.72-3.147,2.01-4.737,2.817c-3.271,1.712-4.683,1.893-6.631,0.9c-0.659-0.33-1.261-0.6-1.381-0.6
		c-0.358,0-0.841,5.85-1.471,17.277c-0.359,6.511-0.988,14.58-1.5,18.87c-1.95,16.62-2.31,24.24-1.38,29.46
		c0.96,5.49,2.79,9.45,4.471,9.63c1.892,0.21,5.399-2.579,7.892-6.3c4.14-6.18,7.738-18,8.52-27.84
		c0.603-8.04,1.44-27.57,1.562-37.2c0.061-5.43-0.18-6.78-1.469-7.8C588.78,513.63,588.09,513.78,586.02,515.28z"/>
	<path fill="#B58EE9" d="M569.4,635.04c-1.574-0.774-20.824-2.483-29.369-2.774v5.687h28.737l0.841-0.63
		C570.75,636.45,570.689,635.67,569.4,635.04z"/>
	<path id="structure123_label129_MPOC" bar:type="" bar:growlevel="0" fill="#FF9E59" d="M557.25,548.97
		c-2.609,1.08-2.58,6.57,0.03,9.21c1.647,1.65,3.659,1.2,4.2-0.96c0.567-2.188-0.723-6.75-2.223-7.92
		C558.45,548.64,558.18,548.61,557.25,548.97z"/>
	<path id="structure124_label130_PDPO" bar:type="" bar:growlevel="0" fill="#5300FF" d="M587.16,500.73
		c-2.642,0.447-5.94,1.68-10.41,3.867c-4.98,2.433-6.93,3.69-7.68,4.921c-1.143,1.859-0.603,3.541,2.039,6.449
		c3.301,3.66,5.761,4.32,9.479,2.49c3.09-1.53,7.143-4.32,9.479-6.51c1.801-1.71,2.221-2.28,2.608-3.69
		c0.813-2.79,0.15-6.449-1.319-7.229C590.49,500.55,588.84,500.43,587.16,500.73z"/>
	<path id="structure126_label132_acp" bar:type="" bar:growlevel="0" fill="#82FF00" d="M747.75,532.11
		c0.12,0.63,0.63,2.067,1.17,3.237c2.88,6.15,8.25,10.41,15.66,12.33c2.46,0.66,3.87,0.813,8.13,0.933l5.19,0.18l2.159-1.29
		c2.938-1.74,4.738-3.21,4.738-3.93c0-0.302-0.18-0.57-0.359-0.57c-1.198,0-8.67-1.32-11.341-1.98c-5.01-1.26-12.27-4.107-20.67-8.1
		c-2.22-1.05-4.229-1.92-4.47-1.92C747.63,531,747.57,531.24,747.75,532.11z"/>
	<path id="structure12_label9_SO" bar:type="" bar:growlevel="0" fill="#FF6400" d="M621.03,608.73
		c-1.23,0.3-2.853,0.867-3.603,1.229c-1.857,0.9-3.63,2.55-3.63,3.39c0,0.603,0.183,0.69,1.74,0.9c2.79,0.33,8.102,1.8,11.01,3
		c3.392,1.41,6.183,3,8.763,5.1c2.85,2.313,3.18,2.223,2.34-0.567c-0.36-1.143-0.393-1.74-0.12-2.643
		c0.659-2.46,4.17-5.188,7.17-5.55c0.898-0.09,1.5-0.33,1.5-0.54c0-0.779-7.2-3.42-11.761-4.35
		C630.48,607.89,624.15,607.89,621.03,608.73z"/>
	<path id="structure138_label145_f" bar:type="" bar:growlevel="0" fill="#54FF00" d="M568.71,427.23
		c-3.63,0.84-5.88,3.42-7.021,7.979c-0.812,3.33-0.689,11.13,0.301,16.62c2.79,15.688,7.89,28.68,12.57,32.1
		c1.02,0.723,1.527,0.87,2.938,0.87s1.95-0.147,3.12-0.93c2.729-1.83,7.59-8.16,10.8-14.103c1.352-2.52,1.38-2.607,1.38-5.31v-2.729
		l-1.528-1.439c-2.039-1.92-3.359-4.229-6.421-11.34c-2.971-6.87-4.801-12.063-5.221-14.82c-0.6-3.688-2.31-5.91-5.25-6.78
		C572.76,426.87,570.48,426.811,568.71,427.23z"/>
	<path fill="#6523C3" d="M636.99,623.939c-5.79-5.552-13.53-8.699-24.48-9.989c-15.18-1.74-31.71-0.21-53.01,4.95
		c-4.05,0.987-8.58,1.947-10.109,2.13c-3.631,0.479-4.771,0.09-6.989-2.433c-1.026-1.203-1.698-1.811-2.368-1.822v15.267
		c0.039-0.001,0.086-0.002,0.118-0.002c2.641,0,19.051,1.41,27.391,2.34c2.068,0.21,3.391,1.261,2.852,2.19
		c-0.722,1.14-0.512,1.26,1.948,1.08c1.261-0.09,5.28-0.36,8.91-0.603c12.392-0.87,21.45-1.89,27.899-3.147
		c3.391-0.66,6.898-1.08,11.698-1.353c12.69-0.72,16.052-1.47,17.552-3.93C639.48,626.91,639.24,626.13,636.99,623.939z"/>
	<path id="structure13_label10_MPA" bar:type="" bar:growlevel="0" fill="#E99659" d="M604.02,483.811
		c0.75,4.472,0.842,6.869,0.393,9.329c-0.99,5.223-4.143,10.62-9.03,15.54c-2.43,2.433-3.358,3.15-4.68,3.631
		c-1.86,0.689-2.19,1.289-1.08,1.892c1.109,0.567,1.8,2.25,1.92,4.8c0.24,4.2-1.11,36.602-1.771,42.45
		c-1.438,12.96-7.171,26.729-12.811,30.75c-2.28,1.647-4.319,2.22-7.86,2.188c-5.067-0.028-9.72-2.041-13.56-5.851
		c-1.8-1.771-2.28-2.55-4.26-6.601c-2.73-5.642-4.74-10.682-5.971-15.149c-0.899-3.149-1.472-4.11-1.739-2.88
		c-0.063,0.3-0.09,6.66-0.03,14.1l0.12,13.59h2.07c6.538,0,12.81,3.42,14.938,8.16c1.32,2.881,1.92,6.09,1.771,9.393
		c-0.091,2.46-0.239,3.027-1.229,5.039c-0.601,1.229-1.59,2.671-2.16,3.181c-1.08,0.96-1.35,1.53-0.63,1.53
		c0.21,0,2.4-0.48,4.86-1.053c5.79-1.35,14.55-2.938,20.97-3.81c4.53-0.601,6.3-0.69,15.87-0.69h10.739l-0.182-2.85
		c-0.42-6.479-0.538-27.42-0.21-35.7c0.75-18.238,2.28-34.83,4.53-49.35c1.38-8.97,2.55-14.37,4.53-21.3l0.358-1.23l-1.739-1.62
		c-2.102-2.01-5.791-6.93-10.199-13.59C604.59,482.64,603.66,481.68,604.02,483.811z"/>
	<path fill="#FFB2DC" d="M670.32,295.95c2.069-6.24,3.75-9.24,8.397-15c3.15-3.87,4.98-6.63,4.98-7.44c0-1.2-1.41-3.688-2.7-4.8
		c-1.771-1.5-5.55-3.42-7.83-3.93c-6.271-1.44-16.41-0.42-25.32,2.55c-6.39,2.13-17.13,7.77-29.1,15.36
		c-3.12,1.98-7.53,4.77-9.75,6.18c-5.102,3.21-11.58,6.93-15.54,8.88c-1.68,0.81-3.061,1.68-3.061,1.89s0.511,1.17,1.141,2.1
		c0.66,0.93,4.71,7.59,9.061,14.76c4.319,7.17,8.279,13.65,8.791,14.37c0.511,0.75,2.55,3.06,4.561,5.16
		c2.01,2.068,4.59,4.92,5.76,6.3c1.17,1.41,2.58,2.97,3.181,3.48c1.619,1.438,4.409,2.64,9.209,3.959
		c8.553,2.399,13.711,5.699,15.303,9.779c0.959,2.4,0.959,6.15,0.027,9.75c-0.869,3.391-3.75,9.15-6.147,12.33
		c-4.683,6.182-9.66,10.08-15.78,12.33c-2.069,0.78-6.51,2.46-9.898,3.811c-8.882,3.479-10.949,4.021-14.102,3.812
		c-1.41-0.09-5.521-0.78-9.148-1.562c-4.649-0.959-7.352-1.381-9.149-1.408c-4.62-0.063-7.29,1.438-8.19,4.62
		c-0.539,1.829-1.319,2.697-2.97,3.42c-2.76,1.14-5.189,0.21-7.92-3.03c-2.28-2.7-3.12-3.45-4.92-4.29
		c-2.16-0.99-4.56-0.96-11.97,0.09c-3.465,0.486-5.314,0.725-7.199,0.719v206.75c1.195,0.268,1.169-0.723,1.169-41.959
		c0-35.369,0.06-41.397,0.479-43.979c0.238-1.65,0.568-3.96,0.721-5.103c1.229-9.867,4.26-22.737,9.39-39.75
		c1.08-3.538,2.13-7.26,2.311-8.25c0.302-1.35,0.33-5.067,0.182-15.3c-0.182-14.52,0-18.84,1.021-21.479
		c1.5-3.933,4.83-7.17,8.699-8.4c2.04-0.66,2.221-0.688,6.631-0.33c13.739,1.143,23.489,1.17,28.021,0.09
		c7.771-1.89,23.16-8.79,31.648-14.22c4.199-2.67,6.512-3.81,7.801-3.81c1.08,0,1.41-0.303,6.931-5.94
		c10.739-11.01,20.76-22.05,24.75-27.359c2.819-3.75,4.26-6.989,4.53-10.41c0.147-1.561,0-2.34-0.932-5.159
		c-1.859-5.7-1.979-6.42-1.891-13.681c0.061-7.771-0.271-10.5-1.891-15.449c-2.102-6.33-2.699-11.012-2.13-16.771
		C667.98,304.65,668.88,300.39,670.32,295.95z"/>
	<path fill="#FF005D" d="M670.32,295.95c2.069-6.24,3.75-9.24,8.397-15c3.15-3.87,4.98-6.63,4.98-7.44c0-1.2-1.41-3.688-2.7-4.8
		c-1.771-1.5-5.55-3.42-7.83-3.93c-6.271-1.44-16.41-0.42-25.32,2.55c-6.39,2.13-17.13,7.77-29.1,15.36
		c-3.12,1.98-7.53,4.77-9.75,6.18c-5.102,3.21-11.58,6.93-15.54,8.88c-1.68,0.81-3.061,1.68-3.061,1.89s0.511,1.17,1.141,2.1
		c0.66,0.93,4.71,7.59,9.061,14.76c4.319,7.17,8.279,13.65,8.791,14.37c0.511,0.75,2.55,3.06,4.561,5.16
		c2.01,2.068,4.59,4.92,5.76,6.3c1.17,1.41,2.58,2.97,3.181,3.48c1.619,1.438,4.409,2.64,9.209,3.959
		c8.553,2.399,13.711,5.699,15.303,9.779c0.959,2.4,0.959,6.15,0.027,9.75c-0.869,3.391-3.75,9.15-6.147,12.33
		c-4.683,6.182-9.66,10.08-15.78,12.33c-2.069,0.78-6.51,2.46-9.898,3.811c-8.882,3.479-10.949,4.021-14.102,3.812
		c-1.41-0.09-5.521-0.78-9.148-1.562c-4.649-0.959-7.352-1.381-9.149-1.408c-4.62-0.063-7.29,1.438-8.19,4.62
		c-0.539,1.829-1.319,2.697-2.97,3.42c-2.76,1.14-5.189,0.21-7.92-3.03c-2.28-2.7-3.12-3.45-4.92-4.29
		c-2.16-0.99-4.56-0.96-11.97,0.09c-3.465,0.486-5.314,0.725-7.199,0.719v206.75c1.195,0.268,1.169-0.723,1.169-41.959
		c0-35.369,0.06-41.397,0.479-43.979c0.238-1.65,0.568-3.96,0.721-5.103c1.229-9.867,4.26-22.737,9.39-39.75
		c1.08-3.538,2.13-7.26,2.311-8.25c0.302-1.35,0.33-5.067,0.182-15.3c-0.182-14.52,0-18.84,1.021-21.479
		c1.5-3.933,4.83-7.17,8.699-8.4c2.04-0.66,2.221-0.688,6.631-0.33c13.739,1.143,23.489,1.17,28.021,0.09
		c7.771-1.89,23.16-8.79,31.648-14.22c4.199-2.67,6.512-3.81,7.801-3.81c1.08,0,1.41-0.303,6.931-5.94
		c10.739-11.01,20.76-22.05,24.75-27.359c2.819-3.75,4.26-6.989,4.53-10.41c0.147-1.561,0-2.34-0.932-5.159
		c-1.859-5.7-1.979-6.42-1.891-13.681c0.061-7.771-0.271-10.5-1.891-15.449c-2.102-6.33-2.699-11.012-2.13-16.771
		C667.98,304.65,668.88,300.39,670.32,295.95z"/>
	<path fill="#A682E1" d="M593.88,375.21c-3.898-7.86-14.64-23.07-20.13-28.56c-6.15-6.182-20.79-17.25-23.97-18.15
		c-2.79-0.78-4.47,0.24-4.771,2.91c-0.239,2.22-0.868,3.24-2.31,3.81c-0.738,0.302-1.712,0.459-2.669,0.47v56.76
		c2.346,0.017,4.914,0.25,9.118,0.702c12.301,1.318,20.039,0.96,29.039-1.32c11.642-2.97,17.461-6.93,17.399-11.82
		C595.561,378.87,595.2,377.85,593.88,375.21z"/>
	<path fill="#4AFF00" d="M593.88,375.21c-3.898-7.86-14.64-23.07-20.13-28.56c-6.15-6.182-20.79-17.25-23.97-18.15
		c-2.79-0.78-4.47,0.24-4.771,2.91c-0.239,2.22-0.868,3.24-2.31,3.81c-0.738,0.302-1.712,0.459-2.669,0.47v56.76
		c2.346,0.017,4.914,0.25,9.118,0.702c12.301,1.318,20.039,0.96,29.039-1.32c11.642-2.97,17.461-6.93,17.399-11.82
		C595.561,378.87,595.2,377.85,593.88,375.21z"/>
	<path fill="#B4FF59" d="M644.67,356.13c-2.07-2.04-6.93-4.44-11.52-5.7c-7.86-2.13-9.69-3.148-13.53-7.68
		c-4.29-5.01-10.62-11.67-11.341-11.91c-8.55-2.609-16.591-5.55-36.841-13.56c-16.021-6.3-17.909-7.05-21.091-8.19
		c-2.039-0.75-2.368-0.75-10.14-0.81l-0.18-0.001v26.971c2.788,0,3.002-0.063,3.72-0.78c0.568-0.54,0.84-1.26,1.05-2.55
		c0.33-2.37,0.511-2.76,1.53-3.27c1.318-0.69,2.97-0.54,4.95,0.448c4.8,2.432,19.8,14.312,24.06,19.08
		c5.61,6.24,15.54,20.7,18.75,27.36c1.563,3.21,1.74,4.109,1.351,6.898c-0.091,0.602,0.182,0.812,1.95,1.562
		c8.189,3.51,21.119,4.59,28.379,2.34c7.683-2.37,16.262-10.47,20.521-19.38c1.08-2.25,1.26-2.88,1.26-4.561
		C647.52,359.85,646.74,358.17,644.67,356.13z"/>
	<path fill="#69FF00" d="M850.109,413.7c-2.729-23.97-9.329-45.75-20.789-68.7c-6.722-13.439-13.5-24.09-21.99-34.5
		c-18.811-23.1-38.971-40.14-61.35-51.9c-11.853-6.21-31.53-14.25-36.632-14.97c-5.971-0.81-14.011-1.59-26.729-2.58
		c-7.59-0.6-16.53-1.32-19.92-1.65c-8.28-0.78-22.47-1.08-27-0.6c-8.46,0.9-13.979,3.33-18.24,7.98c-1.021,1.14-3.3,4.02-5.04,6.39
		c-6.54,8.82-14.91,16.35-23.13,20.79c-14.728,7.995-32.038,12.109-49.259,12.166v22.184c1.361-0.002,2.731-0.122,5.129-0.358
		c14.311-1.38,32.34-4.65,41.04-7.41c5.909-1.89,14.069-6.42,30.78-17.13c12.06-7.68,24.688-14.43,30.869-16.5
		c7.801-2.58,17.851-3.81,23.521-2.91c2.13,0.36,6.33,1.74,8.58,2.85c2.13,1.02,4.319,3.06,6.03,5.55
		c1.647,2.43,1.199,2.34,5.22,0.93c3.81-1.35,7.47-1.86,14.399-2.04c16.438-0.42,28.771,2.43,44.791,10.44
		c15.959,7.95,29.817,18,41.31,29.85c13.89,14.34,24.989,29.88,34.08,47.67c11.489,22.47,17.76,44.399,20.399,71.34
		c0.631,6.42,0.898,23.61,0.448,28.71c-0.688,7.83-2.58,16.563-5.58,25.8c-1.737,5.342-1.89,6-1.26,6
		c1.229,0,7.353-16.14,8.58-22.617c1.47-7.593,2.189-19.563,2.25-37.383C850.65,420.66,850.561,417.51,850.109,413.7z"/>
	<path fill="#610BE5" d="M644.67,356.13c-2.07-2.04-6.93-4.44-11.52-5.7c-7.86-2.13-9.69-3.148-13.53-7.68
		c-4.29-5.01-10.62-11.67-11.341-11.91c-8.55-2.609-16.591-5.55-36.841-13.56c-16.021-6.3-17.909-7.05-21.091-8.19
		c-2.039-0.75-2.368-0.75-10.14-0.81l-0.18-0.001v26.971c2.788,0,3.002-0.063,3.72-0.78c0.568-0.54,0.84-1.26,1.05-2.55
		c0.33-2.37,0.511-2.76,1.53-3.27c1.318-0.69,2.97-0.54,4.95,0.448c4.8,2.432,19.8,14.312,24.06,19.08
		c5.61,6.24,15.54,20.7,18.75,27.36c1.563,3.21,1.74,4.109,1.351,6.898c-0.091,0.602,0.182,0.812,1.95,1.562
		c8.189,3.51,21.119,4.59,28.379,2.34c7.683-2.37,16.262-10.47,20.521-19.38c1.08-2.25,1.26-2.88,1.26-4.561
		C647.52,359.85,646.74,358.17,644.67,356.13z"/>
	<path id="structure147_label156_mfbb" bar:type="" bar:growlevel="0" fill="#8053C3" d="M673.35,572.311
		c-11.58,0.959-20.52,5.222-24.239,11.552c-1.261,2.157-2.341,5.76-2.521,8.43c-0.27,4.08,0.9,6.78,4.92,11.189
		c2.28,2.551,5.25,4.801,8.34,6.358c5.552,2.76,16.771,4.59,22.563,3.66c2.938-0.45,3.21-0.6,3.81-2.13
		c1.2-2.97,0.933-8.103-0.897-17.4c-2.16-11.13-4.893-18.12-8.103-20.97C676.17,572.1,676.05,572.07,673.35,572.311z"/>
	<path id="structure148_label157_mfba" bar:type="" bar:growlevel="0" fill="#6B17E5" d="M706.2,567.75
		c-1.41,0.21-4.17,0.811-6.15,1.32c-7.5,1.857-15.39,3.027-20.7,3.027c-1.438,0-2.25,0.12-2.25,0.33c0,0.183,0.541,0.933,1.17,1.65
		c3.303,3.75,6.271,13.107,8.28,26.04c0.511,3.21,0.48,8.76-0.03,11.25l-0.209,1.02l0.989-0.21c1.41-0.27,6.12-2.55,10.681-5.158
		c2.16-1.229,6.421-3.302,9.449-4.592c15.181-6.447,19.29-9.447,23.19-17.01c1.05-2.04,1.08-2.22,1.08-5.31
		c0-2.521-0.12-3.54-0.66-4.923c-1.229-3.327-4.53-5.907-9.09-7.17C719.49,567.33,709.77,567.15,706.2,567.75z"/>
	<path id="structure14_label11_MPOM" bar:type="" bar:growlevel="0" fill="#FFD2B2" d="M565.8,513.811
		c-4.5,0.479-10.29,2.88-13.439,5.552c-3.42,2.907-6.328,7.737-7.108,11.817c-1.29,6.69-1.979,26.34-1.08,30.87
		c1.438,7.41,7.26,21.69,10.29,25.29c2.641,3.18,6.78,5.7,10.682,6.51c2.038,0.45,5.938,0.603,6.778,0.271
		c0.66-0.24,0.602-0.45-0.42-2.16c-2.312-3.689-3.479-9.898-3.21-17.01c0.21-5.103,0.811-11.67,1.859-20.4
		c0.688-5.729,1.108-11.188,1.5-19.35c0.301-6.063,0.75-12.271,1.08-14.79l0.301-2.313l-2.04-2.25
		C568.8,513.45,568.891,513.48,565.8,513.811z M559.74,549.72c1.83,2.103,2.608,6.813,1.41,8.46c-0.87,1.143-1.683,1.381-2.882,0.78
		c-1.261-0.63-2.25-2.1-2.851-4.17c-0.63-2.19-0.33-3.84,0.931-5.101C557.641,548.4,558.57,548.4,559.74,549.72z"/>
	<path id="structure150_label159_cst" bar:type="" bar:growlevel="0" fill="#BCFFB2" d="M650.311,422.61
		c-3.511,7.71-6.181,18.93-5.011,21.12c0.75,1.38,2.46,0.027,3.78-2.94c2.34-5.25,4.62-18.87,3.359-20.13
		C651.75,419.97,651.391,420.33,650.311,422.61z"/>
	<path fill="#FFAA59" d="M546,510c-1.109-4.8-1.53-5.07-2.07-1.439c-0.21,1.38-0.93,5.189-1.619,8.489l-1.229,6l-0.09,41.58
		c-0.091,36.21-0.15,41.67-0.54,41.97c-0.167,0.141-0.294,0.207-0.419,0.218v2.804c0.975-0.021,1.952-0.964,2.577-2.869
		c0.45-1.351,0.512-4.71,0.722-30.9c0.12-17.55,0.33-31.17,0.54-33.75c0.479-5.97,1.14-10.979,1.647-12.72
		C546.6,525.75,546.9,513.84,546,510z"/>
	<path id="structure154_label164_SChDL" bar:type="" bar:growlevel="0" fill="#FFD6B2" d="M545.7,592.17
		c0,0.66,4.71,12.12,6.78,16.53c1.59,3.33,3.39,5.25,5.97,6.3c2.01,0.811,2.25,0.66,3.18-1.74c0.54-1.38,0.66-2.37,0.69-5.01
		c0.028-3.54-0.603-6.24-2.07-9.18c-1.95-3.813-6.87-6.57-12.96-7.29C545.85,591.6,545.7,591.63,545.7,592.17z"/>
	<path id="structure157_Unlabeled-2849-813-1_S1DZ" bar:type="" bar:growlevel="0" fill="#FEFF3B" d="M809.43,225.39
		c-18.897,28.05-34.38,51.3-34.438,51.66c-0.091,0.45,0.42,1.021,1.89,2.25c1.11,0.9,3.63,3.09,5.61,4.86
		c1.979,1.8,3.75,3.24,3.93,3.21c0.42-0.03,76.5-95.61,76.62-96.27c0.148-0.9-17.729-16.83-18.87-16.8
		C843.93,174.33,828.3,197.31,809.43,225.39z"/>
	<path fill="#FFAA59" d="M546,510c-1.109-4.8-1.53-5.07-2.07-1.439c-0.21,1.38-0.93,5.189-1.619,8.489l-1.229,6l-0.09,41.58
		c-0.091,36.21-0.15,41.67-0.54,41.97c-0.167,0.141-0.294,0.207-0.419,0.218v2.804c0.975-0.021,1.952-0.964,2.577-2.869
		c0.45-1.351,0.512-4.71,0.722-30.9c0.12-17.55,0.33-31.17,0.54-33.75c0.479-5.97,1.14-10.979,1.647-12.72
		C546.6,525.75,546.9,513.84,546,510z"/>
	<path id="structure15_label12_PaAP" bar:type="" bar:growlevel="0" fill="#FF963B" d="M552.15,476.16
		c-1.143,3.33-5.313,18.6-6.603,24.24c-0.87,3.75-0.84,4.35,0.092,7.89c0.931,3.45,1.351,8.13,1.108,12.87
		c-0.18,3.45-0.149,4.14,0.21,4.14c0.21,0,0.66-0.42,0.96-0.93c1.86-3.12,5.46-6.36,9-8.07c2.4-1.14,6.66-2.34,9.33-2.608
		l2.101-0.239l0.029-1.59c0.03-1.32,0.183-1.771,1.051-2.853l1.021-1.26v-5.25c-0.03-6.12-0.57-8.88-2.55-13.11
		c-2.73-5.88-7.53-10.59-13.11-12.93C553.02,475.71,552.33,475.65,552.15,476.16z"/>
	<path id="structure161_Unlabeled-2157-1222_Unlabeled" bar:type="" bar:growlevel="0" fill="#FFB2BA" d="M646.35,366.811
		c-2.909,6.721-10.5,14.819-16.948,18.091c-7.562,3.84-21.211,3.479-31.892-0.841l-2.64-1.08l-0.479,0.75
		c-2.159,3.181-7.621,5.909-16.2,8.101c-7.05,1.8-10.648,2.16-18.841,1.95c-3.777-0.091-7.409-0.271-8.01-0.36
		c-1.47-0.24-1.47,0.181-0.06,1.771c0.96,1.051,1.05,1.319,0.897,2.311l-0.18,1.142l2.79-0.029c4.2-0.063,5.79,0.81,9.33,5.01
		c2.729,3.24,5.16,4.17,7.92,3.03c1.647-0.723,2.43-1.59,2.97-3.42c0.9-3.183,3.57-4.683,8.19-4.62c1.8,0.029,4.5,0.45,9.147,1.409
		c3.631,0.778,7.74,1.471,9.15,1.561c3.15,0.21,5.22-0.33,14.1-3.811c3.392-1.352,7.83-3.029,9.9-3.812
		c6.12-2.25,11.1-6.148,15.779-12.33c3.45-4.56,6.721-12.18,6.721-15.689C648,364.2,647.34,364.53,646.35,366.811z"/>
	<path id="structure163_Unlabeled-2675-1800_Unlabeled" bar:type="" bar:growlevel="0" fill="#FFB2BA" d="M801.3,540
		c-3.81,2.01-8.31,3.09-13.109,3.12c-2.971,0.03-3.391,0.09-3.391,0.54c0,0.57-1.89,2.16-3.96,3.39c-2.609,1.47-2.13,1.65,4.35,1.62
		c3.15,0,7.053-0.15,8.671-0.359c2.852-0.358,2.909-0.358,3.842-1.561c0.51-0.66,2.158-2.52,3.63-4.11
		c1.47-1.59,2.67-3.027,2.67-3.21C804,538.89,803.04,539.1,801.3,540z"/>
	<path id="structure165_Unlabeled-2179-2023_Unlabeled" bar:type="" bar:growlevel="0" fill="#FFB2BA" d="M653.189,608.16
		c0.028,1.59-0.091,2.46-0.479,3.18c-0.66,1.23-2.16,2.16-3.42,2.16c-1.44,0-1.26,0.72,0.3,1.2c1.71,0.51,3.48,1.409,8.46,4.35
		c5.641,3.33,6.69,3.84,10.2,4.89c2.67,0.843,13.439,3.813,15,4.173c0.51,0.118,0.689-0.183,1.29-2.343
		c1.29-4.647,4.14-9.75,7.68-13.647c2.313-2.61,1.83-2.79-2.37-0.9c-1.317,0.603-2.697,1.08-3.09,1.08
		c-0.358,0-0.99,0.183-1.35,0.42c-1.98,1.263-8.67,1.353-15.301,0.183c-6.182-1.08-9.959-2.521-14.189-5.433
		c-1.17-0.81-2.25-1.47-2.46-1.47S653.16,606.72,653.189,608.16z"/>
	<path id="structure16_label13_StHy" bar:type="" bar:growlevel="0" fill="#5B17D0" d="M564.33,422.88
		c-3.78,1.021-7.26,4.352-8.82,8.46c-0.66,1.68-0.66,1.98-0.688,18.51c0,18.03,0.027,17.521-1.62,22.92
		c-0.842,2.7-0.812,2.853,0.72,3.303c3.99,1.17,10.2,6.39,12.722,10.71c2.818,4.737,4.05,9.688,4.05,16.08
		c0,3.328,0.091,4.438,0.358,4.438c0.21,0,1.44-0.6,2.73-1.35c3.27-1.83,8.97-4.23,11.88-4.98c5.34-1.38,7.438-0.029,7.438,4.74
		c0,2.01-0.72,4.26-1.47,4.71c-0.54,0.33-0.39,1.08,0.24,1.08c0.84,0,4.56-3.6,6.81-6.57c2.34-3.09,4.711-7.8,5.4-10.68
		c0.6-2.55,0.45-7.53-0.33-10.95l-0.51-2.25h-2.49c-2.34,0-2.55-0.06-3.66-0.93c-0.63-0.511-1.438-1.38-1.83-1.92
		c-0.869-1.32-1.8-4.41-2.069-7.05c-0.3-2.671-0.841-2.883-1.979-0.78c-2.311,4.229-6.72,10.2-9.148,12.39
		c-1.5,1.38-3.359,2.34-4.439,2.34c-4.86,0-10.261-9.63-13.92-24.75c-3.45-14.25-3.69-22.857-0.75-28.68
		c0.989-1.95,3.18-3.78,5.189-4.35c4.948-1.44,9.448,0.39,11.011,4.47c0.63,1.62,1.05,1.771,1.59,0.54
		c0.6-1.32,2.608-3.21,4.35-4.08c2.67-1.29,6.09-1.62,9.063-0.87c0.567,0.15,0.75-0.09,1.288-1.62c0.359-0.96,0.66-1.89,0.66-2.04
		c0-0.147-4.141-0.27-9.539-0.3c-6.392-0.03-11.102-0.21-14.399-0.54C566.43,422.311,566.43,422.311,564.33,422.88z"/>
	<path id="structure17_label14_STMPI" bar:type="" bar:growlevel="0" fill="#CEFF76" d="M637.47,423.39
		c-0.93,1.5-4.05,6.063-6.897,10.11c-5.25,7.41-11.671,17.311-15.603,24.061c-3.659,6.271-5.52,10.289-6.87,14.789
		c-1.317,4.53-2.159,6.24-3.6,7.44c-0.48,0.42-0.9,0.899-0.9,1.05c0,0.36,8.973,13.68,11.011,16.351
		c0.78,1.021,2.102,2.579,2.909,3.422c1.771,1.92,2.643,2.067,3.183,0.6c2.729-7.647,5.817-17.31,14.699-46.109
		c3.479-11.311,7.141-22.948,8.131-25.891c0.96-2.938,1.77-5.397,1.77-5.46c0-0.062-0.658-0.09-1.47-0.062
		c-1.74,0.062-2.91-0.63-3.63-2.13c-0.24-0.511-0.57-0.961-0.75-0.961C639.3,420.6,638.4,421.86,637.47,423.39z"/>
	<path id="structure18_label15_STMPL" bar:type="" bar:growlevel="0" fill="#A4FF00" d="M647.49,422.49l-1.892,0.96l-0.868,2.46
		c-0.962,2.608-4.712,14.55-12.933,41.188c-2.817,9.15-6.54,20.882-8.279,26.04c-1.709,5.16-3.028,9.54-2.938,9.723
		c0.42,0.658,6.09,0.027,12.27-1.353c3.302-0.75,6.961-1.438,8.103-1.56c4.26-0.36,4.05-0.271,4.05-2.04
		c0.03-0.87,0.21-2.643,0.45-3.96c0.237-1.32,0.567-3.21,0.75-4.2c0.39-2.55,2.25-19.26,3.147-28.65
		c1.17-12.27,2.4-20.397,3.933-25.68c0.237-0.84,0.688-3.87,1.02-6.72c0.54-4.892,0.54-5.222,0.062-5.88
		c-0.271-0.393-0.659-0.723-0.84-0.723c-0.182,0-0.479,1.353-0.689,3.211c-0.689,5.939-2.49,13.17-4.08,16.289
		c-0.689,1.41-1.95,2.7-2.58,2.7c-0.689,0-1.17-0.66-1.38-1.89c-0.36-2.25,1.83-10.801,4.44-17.4c0.658-1.59,1.17-3.06,1.17-3.21
		C650.4,421.29,649.41,421.53,647.49,422.49z"/>
	<path id="structure19_label16_STMPM" bar:type="" bar:growlevel="0" fill="#B9FF3B" d="M636,405.27
		c-0.75,0.271-2.85,1.473-4.65,2.643c-6.75,4.29-11.817,6.898-20.729,10.59c-5.79,2.43-9.182,3.63-12.63,4.5
		c-1.473,0.36-2.011,1.17-3.063,4.65c-1.47,4.857-1.619,7.02-1.739,24.867c-0.148,17.61-0.028,20.013,1.142,23.553
		c1.319,3.96,4.5,5.817,8.13,4.829c2.521-0.722,4.021-3.091,5.641-8.852c0.541-1.95,1.711-4.89,2.852-7.2
		c3.21-6.6,11.13-19.38,18.06-29.188c10.62-15.063,13.591-20.67,13.591-25.74c0-2.16-0.721-3.93-1.858-4.74
		C639.84,404.55,637.71,404.58,636,405.27z"/>
	<path id="structure21_label20_GP" bar:type="" bar:growlevel="0" fill="#FFF8B2" d="M696,383.73
		c-5.4,12.3-10.561,28.318-13.05,40.59c-2.341,11.489-4.891,33.39-5.55,47.13c-0.33,7.109-0.631,8.76-2.461,12.45
		c-1.021,2.067-1.739,3.06-3.959,5.25c-1.5,1.5-3.57,3.237-4.591,3.897c-1.052,0.66-1.892,1.353-1.892,1.5
		c0,0.42,4.47,7.41,7.95,12.45c7.528,10.86,16.02,19.8,18.778,19.8c2.25,0,9.842-3.12,14.369-5.91
		c6.723-4.14,11.58-8.76,18.87-17.938c12.15-15.24,18.511-28.353,21.063-43.53c0.81-4.71,0.96-15.51,0.328-20.22
		c-0.868-6.09-2.398-12.511-4.408-18.24c-5.07-14.61-15.21-28.229-26.7-35.91c-5.43-3.63-9.42-5.188-13.979-5.46l-2.879-0.18
		L696,383.73z"/>
	<path id="structure22_label21_DEn" bar:type="" bar:growlevel="0" fill="#E0E959" d="M831.061,508.41
		c-2.101,3.779-4.95,8.01-7.711,11.49c-2.039,2.58-2.31,3.06-3.72,7.05c-2.67,7.68-3.148,9.72-3.18,13.8c0,3.36,0.06,3.72,0.84,5.34
		c1.95,3.93,4.29,5.851,8.22,6.66c2.79,0.6,15.78,0.6,19.08,0c5.221-0.93,8.971-3.66,11.25-8.22c1.5-3,2.01-5.761,1.74-9.63
		c-0.24-3.75-0.96-6.75-3.391-13.893c-1.92-5.607-2.039-5.909-2.762-5.909c-1.438,0-9.897-2.341-11.818-3.271
		c-2.399-1.141-4.289-2.82-5.459-4.8c-0.48-0.841-1.021-1.53-1.2-1.5C832.8,505.53,831.93,506.82,831.061,508.41z"/>
	<path id="structure23_label22_IEn" bar:type="" bar:growlevel="0" fill="#5F23ED" d="M816.75,527.43c-1.47,1.65-4.32,4.44-6.3,6.24
		c-4.41,3.99-9.75,9.48-12.75,13.08c-3.54,4.29-10.38,11.1-13.5,13.47c-1.591,1.2-4.38,3.091-6.24,4.2
		c-2.91,1.74-3.63,2.34-5.521,4.62c-2.489,3.06-6.539,9.06-6.539,9.78c0,0.688,0.688,0.6,4.709-0.54
		c11.7-3.36,21.541-8.25,29.489-14.58c3.42-2.73,8.699-8.19,13.021-13.5l3.54-4.353l-0.271-1.5c-0.658-4.02,0.092-8.697,2.609-15.81
		c0.66-1.86,1.2-3.57,1.2-3.78C820.2,523.92,819.3,524.61,816.75,527.43z"/>
	<path id="structure24_label23_VCl" bar:type="" bar:growlevel="0" fill="#8847F2" d="M850.5,479.58c-1.68,0.21-3.66,0.688-4.83,1.2
		c-0.93,0.42-1.2,0.75-1.92,2.607c-0.75,2.013-2.1,4.71-8.25,16.53l-2.46,4.74l0.69,1.527c0.959,2.041,3.09,4.173,5.34,5.313
		c1.92,0.96,8.01,2.76,11.278,3.33c2.579,0.45,4.021,0,5.909-1.771c2.46-2.311,4.41-6.841,6.36-14.818
		c1.89-7.62,2.397-12.091,1.56-13.682c-1.02-1.948-3.75-3.841-6.479-4.5C856.109,479.7,852,479.4,850.5,479.58z"/>
	<path id="structure25_label24_I" bar:type="" bar:growlevel="0" fill="#FFC6B2" d="M792.75,548.4c-0.811,0.147-4.53,0.27-8.22,0.27
		l-6.72,0.03l-3.99,3.96c-4.353,4.38-5.551,6.029-6.42,8.91c-1.021,3.24-0.57,6.09,1.02,6.51c2.34,0.57,10.801-3.87,17.312-9.12
		c2.761-2.22,10.171-9.84,10.171-10.439C795.9,548.07,795.21,548.04,792.75,548.4z"/>
	<path id="structure26_label25_AA" bar:type="" bar:growlevel="0" fill="#FF5100" d="M762.45,565.65
		c-5.94,1.59-16.44,6.39-22.021,10.107c-3.06,2.04-7.26,5.82-8.488,7.65c-0.421,0.63-1.352,2.22-2.069,3.54
		c-3.271,5.938-8.79,9.84-21.12,15c-8.88,3.72-11.7,5.397-15.479,9.12c-2.55,2.55-4.92,5.76-6.448,8.817
		c-1.052,2.04-2.82,6.96-2.82,7.8c0,0.24,0.359,0.541,0.84,0.66c0.45,0.09,3.66,1.29,7.11,2.61c3.479,1.32,6.72,2.46,7.229,2.55
		c0.813,0.15,1.11-0.06,3.12-2.22c3.21-3.42,4.683-5.521,6.48-9.36c1.95-4.107,4.979-8.76,6.81-10.438
		c1.681-1.563,3.722-2.61,6.631-3.393c4.141-1.14,7.289-1.26,11.189-0.447l0.96,0.21l-0.06-2.19c-0.03-1.77,0.09-2.49,0.6-3.45
		c1.32-2.487,4.529-4.47,9.029-5.58c3.45-0.84,9.688-0.897,11.761-0.119c0.75,0.302,1.56,0.569,1.8,0.659
		c0.33,0.12,0.63-0.448,1.17-2.34c2.312-7.89,7.891-18.63,12.75-24.63c1.68-2.04,1.8-2.76,0.42-2.49
		c-3.81,0.75-4.14,0.63-4.89-1.529C766.47,564.75,765.99,564.689,762.45,565.65z"/>
	<path id="structure27_label26_ACo" bar:type="" bar:growlevel="0" fill="#F8FFB2" d="M744.87,596.55
		c-6.3,1.2-10.08,3.99-10.41,7.71c-0.18,2.34,0.33,3.84,1.59,4.71c2.13,1.44,5.4,5.91,7.95,10.86c1.74,3.42,3.6,5.28,6.24,6.3
		c3.21,1.23,9.688,1.05,9.27-0.27c-0.09-0.271-0.66-1.86-1.229-3.513c-1.562-4.5-2.103-8.277-1.892-13.77
		c0.091-2.852,0.392-5.76,0.812-7.8c0.72-3.603,0.75-3.513-1.2-4.11C754.32,596.13,747.48,596.07,744.87,596.55z"/>
	<path id="structure28_label27_CxA-1" bar:type="" bar:growlevel="0" fill="#F7FF59" d="M765.45,620.73
		c-1.95,0.538-5.25,4.107-5.25,5.64c0,0.87,2.04,4.47,3.81,6.75c1.051,1.319,1.32,1.5,3.33,2.01c1.2,0.3,4.562,1.561,7.5,2.79
		c10.68,4.47,15.78,5.58,25.83,5.58h5.221l-0.181-3.689c-0.33-6.421-0.51-7.408-1.229-7.408c-2.132-0.03-11.432-2.553-17.25-4.683
		c-1.591-0.6-5.312-2.28-8.279-3.72c-2.971-1.47-6.21-2.88-7.2-3.15C769.83,620.37,766.891,620.28,765.45,620.73z"/>
	<path id="structure29_label28_CxA-2" bar:type="" bar:growlevel="0" fill="#FBFFB2" d="M766.59,608.52
		c-1.05,0.421-2.52,1.11-3.3,1.563c-2.101,1.2-6.69,4.38-6.69,4.649c0,0.931,1.11,5.729,1.86,7.979c1.08,3.271,1.44,3.45,2.82,1.351
		c1.14-1.771,3.239-3.211,5.37-3.688c2.729-0.603,5.188,0.12,12.42,3.6c3.39,1.65,8.16,3.66,10.56,4.472
		c5.311,1.83,12.45,3.658,14.25,3.658h1.32l-0.182-1.737c-0.091-0.933-0.391-4.473-0.659-7.86l-0.511-6.12l-3-0.39
		c-4.739-0.57-8.25-1.5-14.698-3.84c-9.78-3.57-11.643-4.08-14.853-4.23C768.811,607.8,768.21,607.89,766.59,608.52z"/>
	<path id="structure30_label29_CxA-3" bar:type="" bar:growlevel="0" fill="#F1FF00" d="M772.35,578.07
		c-0.84,0.147-2.25,0.448-3.147,0.72c-0.9,0.24-2.222,0.63-2.94,0.81c-1.229,0.303-1.318,0.42-2.729,3.24
		c-4.021,8.01-6.271,15.75-6.99,23.79c-0.36,4.229-0.149,7.17,0.51,7.17c0.24,0,1.53-0.75,2.853-1.648
		c3-2.039,5.909-3.539,8.25-4.199c3.06-0.9,5.788-0.301,16.947,3.72c8.28,3,10.62,3.6,17.223,4.35l1.438,0.183l-0.18-5.04
		c-0.48-12.09-1.95-20.61-4.23-24.54c-2.76-4.74-11.488-8.101-22.5-8.64C775.2,577.92,773.16,577.95,772.35,578.07z"/>
	<path id="structure31_label30_LOT-1" bar:type="" bar:growlevel="0" fill="#F0FF00" d="M740.85,621.21
		c-1.709,0.39-4.05,1.26-8.1,3.09c-5.67,2.55-6.51,2.79-10.2,2.79c-4.05,0-9.148-1.14-12.51-2.82c-0.63-0.329-1.29-0.567-1.5-0.567
		s-0.99,0.96-1.71,2.1c-0.721,1.142-2.46,3.302-3.84,4.771c-1.381,1.47-2.49,2.88-2.49,3.119c0,1.051,13.979,5.101,24,6.931
		c11.7,2.13,23.1,2.729,31.02,1.649c1.17-0.149,2.16-0.359,2.25-0.421c0.063-0.091-0.147-0.688-0.51-1.318
		c-1.8-3.182,0.24-5.55,5.04-5.94c1.17-0.09,2.102-0.3,2.102-0.448c0-0.182-0.779-1.472-1.712-2.909
		c-0.959-1.44-1.979-3.063-2.277-3.603c-0.511-0.988-0.511-0.988-2.102-0.72c-5.398,0.87-10.621-0.93-12.961-4.5
		c-0.869-1.35-0.93-1.38-2.397-1.35C742.141,621.061,741.18,621.12,740.85,621.21z"/>
	<path id="structure32_label31_LOT-2" bar:type="" bar:growlevel="0" fill="#FAFFB2" d="M723.9,607.8c-5.7,1.2-8.4,3.03-11.49,7.682
		c-1.86,2.818-3.87,6.898-3.75,7.561c0.3,1.5,8.85,3.96,13.83,3.96c3.449,0,5.399-0.54,10.71-2.97c4.35-1.98,8.46-3.33,10.11-3.33
		c0.868,0,0.868-0.271-0.093-2.19c-2.1-4.197-6-8.97-8.22-10.107C732.45,607.11,728.16,606.87,723.9,607.8z"/>
	<path id="structure33_label32_Pir-1" bar:type="" bar:growlevel="0" fill="#C6D400" d="M908.7,526.77c0,0.15,0.21,0.78,0.479,1.41
		c0.632,1.473,0.603,4.353-0.027,6.183c-0.75,2.25-5.49,12.18-8.552,17.938c-12.358,23.341-28.198,43.17-42.239,53.011
		c-2.489,1.739-12.602,8.012-24.209,15.029c-9.03,5.43-22.08,11.13-27.302,11.91l-1.438,0.24l0.21,3.18
		c0.09,1.74,0.271,4.17,0.39,5.34l0.181,2.19h1.409c2.37,0,10.291-1.44,16.44-3.03c13.648-3.48,34.2-11.37,39.45-15.18
		c9.33-6.722,20.369-16.83,25.77-23.49c5.19-6.45,9.96-13.86,15.42-23.91c3.66-6.779,13.17-25.77,15.87-31.77
		c2.761-6.03,6.15-14.313,6.15-14.94c0-0.27-0.3-0.54-0.66-0.63c-0.39-0.09-2.431-0.54-4.59-1.021
		c-2.13-0.512-5.641-1.319-7.74-1.802C909.689,526.47,908.7,526.32,908.7,526.77z"/>
	<path id="structure34_label33_Pir-2" bar:type="" bar:growlevel="0" fill="#F3FF59" d="M902.79,526.08
		c-1.47,0.75-3.03,2.64-3.931,4.71c-1.5,3.54-6.029,12.39-8.489,16.56c-4.86,8.313-10.8,16.711-17.07,24.15
		c-6.18,7.35-20.521,21.18-29.13,28.08c-12.21,9.811-27.48,16.62-37.32,16.62h-2.938l0.18,1.56c0.09,0.87,0.42,4.53,0.69,8.131
		l0.539,6.512l1.051-0.183c4.38-0.72,11.067-3.3,19.17-7.317c5.37-2.67,24.779-14.25,31.71-18.87
		c12.45-8.341,26.85-25.263,38.729-45.48c2.819-4.8,9.989-18.81,12.062-23.608c2.01-4.562,2.01-8.039,0.09-10.199
		c-0.72-0.811-1.08-0.96-2.608-1.051C904.29,525.6,903.45,525.72,902.79,526.08z"/>
	<path id="structure35_label34_Pir-3" bar:type="" bar:growlevel="0" fill="#D8E900" d="M861.3,503.4c0,0.897-2.609,6.84-3.568,8.1
		c-1.291,1.71-3.091,3.15-4.319,3.45c-0.45,0.12-0.813,0.359-0.813,0.568c0,0.182,0.87,2.972,1.95,6.182s2.22,7.17,2.55,8.79
		c0.69,3.33,0.813,8.04,0.271,10.29c-1.08,4.529-4.352,8.79-8.16,10.59c-3.18,1.53-5.34,1.86-12.54,2.04
		c-11.64,0.3-15.18-0.75-18.12-5.221c-0.658-1.021-1.438-1.859-1.71-1.859c-0.3-0.03-1.8,1.56-3.63,3.78
		c-8.91,10.949-15.39,16.438-25.351,21.51c-3.899,1.979-9.359,4.319-11.671,5.01c-2.188,0.63-1.591,1.05,1.802,1.26
		c7.857,0.48,15.271,2.82,19.29,6.12c2.31,1.86,4.079,6.33,5.188,12.99c0.689,4.2,1.229,10.26,1.229,13.74
		c0,1.26,0.09,3.028,0.21,3.93l0.18,1.62l3.24-0.18c3.75-0.21,6.811-0.813,10.77-2.07c8.521-2.729,17.49-7.68,25.712-14.22
		c8.221-6.57,22.351-20.04,28.409-27.12c10.319-12.03,19.319-26.011,25.409-39.42c1.92-4.17,3.75-6.813,5.07-7.23
		c0.33-0.12,0.6-0.42,0.6-0.688c0-0.422-0.93-0.75-4.56-1.683c-7.802-1.948-15.812-4.317-18.511-5.489
		c-7.109-3.028-13.319-7.891-16.859-13.108C862.2,503.311,861.3,502.59,861.3,503.4z"/>
	<path id="structure36_label35_AIP" bar:type="" bar:growlevel="0" fill="#D8DF00" d="M864.51,481.08
		c0.57,5.4,0.12,9.688-1.89,17.58c-0.39,1.59-0.72,3.18-0.72,3.54c0,1.8,5.76,8.28,10.14,11.397c3.149,2.25,8.16,4.712,12.18,6
		c7.38,2.313,40.2,10.5,42.21,10.5c0.75,0,0.87-0.237,2.37-4.438c3.603-10.26,6.062-20.102,6.091-24.21
		c0.029-2.67-0.301-3.511-2.25-5.97c-1.711-2.19-1.771-3-0.511-6.093c0.21-0.54,0.3-1.05,0.21-1.14s-9.119-1.38-20.069-2.88
		c-23.341-3.15-45.601-6.21-47.011-6.48l-1.02-0.18L864.51,481.08z"/>
	<path id="structure37_label36_DCl" bar:type="" bar:growlevel="0" fill="#FFDE00" d="M850.71,440.91
		c-0.45,18.779-1.38,26.279-4.319,35.1c-0.779,2.34-1.318,4.38-1.2,4.472c0.12,0.118,1.052-0.029,2.069-0.359
		c2.881-0.87,9.03-0.78,11.49,0.18c1.95,0.75,4.47,2.433,4.771,3.15c0.182,0.51,1.079,0.63,1.079,0.12
		c0-1.021-2.788-22.053-3.18-23.94c-0.75-3.63-2.91-10.92-4.62-15.479c-1.979-5.37-4.92-11.552-5.488-11.552
		C850.98,432.6,850.859,434.07,850.71,440.91z"/>
	<path id="structure38_label37_DI" bar:type="" bar:growlevel="0" fill="#C4C923" d="M860.76,456.061
		c1.021,4.619,1.563,7.892,2.37,14.489c0.54,4.29,1.021,7.86,1.05,7.92c0.211,0.24,5.94,1.05,64.74,9.03l4.17,0.54l2.73-2.43
		c4.739-4.262,5.01-4.62,6.869-8.853c1.801-4.08,3.931-9.63,3.75-9.777c-0.689-0.541-33.239-5.041-65.341-9
		c-9.989-1.263-18.659-2.343-19.318-2.433C860.7,455.4,860.641,455.43,860.76,456.061z"/>
	<path id="structure39_label38_GI" bar:type="" bar:growlevel="0" fill="#C3C900" d="M850.8,430.05c0,0.75,0.391,1.771,1.23,3.182
		c2.188,3.75,6,13.381,7.77,19.618l0.66,2.4l21.21,2.64c30.9,3.842,50.91,6.57,60.42,8.19c2.46,0.42,4.5,0.72,4.562,0.66
		c0.538-0.603,8.068-25.59,7.858-26.103c-0.09-0.3-14.34-1.92-50.938-5.88c-27.961-3.027-51.271-5.58-51.779-5.67
		C850.83,428.939,850.8,428.97,850.8,430.05z"/>
	<path id="structure3_label0_LPO" bar:type="" bar:growlevel="0" fill="#E95B00" d="M640.5,500.13c-1.23,0.12-4.62,0.78-7.5,1.44
		c-5.52,1.26-9.48,1.857-11.67,1.739l-1.32-0.062l-0.569,1.648c-3.238,9.33-6.841,35.069-8.341,59.699
		c-0.869,14.49-0.897,40.801-0.06,47.4c0.21,1.62,0.24,1.65,1.26,1.71c0.9,0.09,1.141-0.06,1.65-0.87c1.8-2.88,7.35-5.01,13.14-5.04
		c1.142,0,2.01-0.12,2.01-0.3s-0.39-0.84-0.868-1.53c-1.052-1.438-1.682-3.96-1.409-5.489c0.118-0.601,0.6-1.561,1.08-2.101
		c0.51-0.569,0.897-1.11,0.897-1.2s-1.05-1.229-2.34-2.52c-2.819-2.761-3.81-4.86-3.569-7.44c0.182-1.8,1.319-4.2,2.762-5.79
		c2.88-3.18,8.908-3.567,14.729-0.93c2.13,0.96,5.22,3.03,6.391,4.32c0.42,0.42,0.87,0.777,1.052,0.777
		c0.18,0,0.778-0.81,1.318-1.77c0.569-0.96,1.619-2.4,2.342-3.21c0.72-0.78,1.317-1.562,1.317-1.74s-0.54-1.35-1.2-2.58
		c-5.368-10.38-5.1-22.38,0.78-34.319c0.9-1.801,2.521-4.528,3.603-6.091l1.947-2.817l-3.568-7.11c-5.819-11.67-8.13-17.55-9-23.04
		l-0.479-3.12l-1.08,0.03C643.23,499.86,641.73,499.98,640.5,500.13z"/>
	<path id="structure40_label39_CPu" bar:type="" bar:growlevel="0" fill="#FFEC00" d="M701.13,271.53
		c-3.93,0.3-8.67,1.229-10.86,2.07c-2.01,0.81-3.868,2.4-7.618,6.54c-5.791,6.36-8.432,11.31-10.5,19.68
		c-2.369,9.688-2.882,22.08-1.199,29.43c0.81,3.66,1.14,8.01,0.93,13.05c-0.21,5.79,0,7.41,1.65,12.48
		c0.93,2.85,1.17,4.08,1.17,5.76c0,2.82,0.479,2.82,1.83,0c0.567-1.2,1.8-3.36,2.76-4.83c4.83-7.44,6.93-14.67,7.74-26.85
		c0.449-6.87,0.688-7.95,2.01-9.45c1.141-1.23,4.2-2.91,5.34-2.91c5.37,0,13.142,10.59,15.722,21.36
		c2.461,10.38,0.721,19.05-6.149,30.63c-3.06,5.16-5.55,9.81-5.55,10.35c0,0.15,1.05,0.36,2.34,0.48
		c8.97,0.81,20.22,8.55,29.04,20.041c13.2,17.158,19.2,40.47,15.72,60.987c-2.49,14.82-10.2,29.79-23.52,45.75
		c-1.59,1.893-2.881,3.66-2.881,3.9c0,0.3,1.141,1.021,2.938,1.92c3.99,1.979,11.34,6.24,24.75,14.37
		c13.95,8.397,20.46,12.271,22.353,13.229c2.01,1.021,5.219,1.803,11.938,2.91c4.649,0.75,6.149,0.9,8.34,0.722
		c8.643-0.602,15.12-3.841,23.04-11.521c13.95-13.5,21.42-25.439,27.722-44.28c3.271-9.84,5.158-17.789,6.148-26.1
		c0.479-3.87,0.479-21.09,0-26.85c-1.979-24.15-6.479-43.17-14.938-63.15c-12.513-29.49-34.021-57.75-56.791-74.61
		c-14.819-10.979-32.762-20.04-45.602-23.01c-5.7-1.32-16.35-2.49-22.05-2.37C705.63,271.26,703.02,271.41,701.13,271.53z"/>
	<path id="structure41_label40_S2" bar:type="" bar:growlevel="0" fill="#E6E98E" d="M899.16,373.02l-53.79,14.132l0.21,0.75
		c3.18,12.688,4.83,23.909,5.13,34.5l0.181,6.479l51.899,5.61c28.53,3.12,51.93,5.58,51.99,5.52c0.09-0.06,0.45-1.59,0.87-3.39
		c3.659-16.32,4.26-34.29,1.77-54.87c-1.109-9.24-3.57-22.98-4.14-22.92C953.1,358.86,928.74,365.22,899.16,373.02z"/>
	<path id="structure42_label41_S1ULp" bar:type="" bar:growlevel="0" fill="#FDFF76" d="M881.46,320.04
		c-51.51,22.229-52.59,22.71-52.47,23.46c0.09,0.42,1.35,3.3,2.85,6.45c4.74,10.05,9.63,23.1,12.36,33
		c0.54,1.979,1.08,3.688,1.2,3.84c0.118,0.12,24.09-6.06,53.277-13.71c29.19-7.68,53.461-14.04,53.94-14.16
		c0.81-0.18,0.84-0.27,0.66-1.439c-0.392-2.399-3.24-14.131-5.16-21.119c-3.479-12.75-6.78-22.95-10.74-33.3
		c-1.739-4.56-2.25-5.61-2.729-5.67C934.32,297.36,910.38,307.561,881.46,320.04z"/>
	<path id="structure43_label42_S1BF" bar:type="" bar:growlevel="0" fill="#FEFF00" d="M825.15,239.13
		c-20.91,26.25-38.103,48-38.16,48.3c-0.12,0.45,1.108,1.892,5.188,6.062c15.181,15.448,24.961,28.59,35.039,47.069
		c0.603,1.141,1.263,2.039,1.44,2.039c0.39,0,105.6-45.3,105.96-45.63c0.75-0.66-9.3-22.11-15.87-33.81
		c-11.76-21.06-26.13-41.01-42.12-58.56c-4.647-5.1-12.688-13.2-13.108-13.2C863.311,191.4,846.03,212.88,825.15,239.13z"/>
	<path id="structure44_label43_S1FL" bar:type="" bar:growlevel="0" fill="#FEFFB2" d="M735.21,185.79
		c-9.87,32.7-17.91,59.61-17.91,59.82c0,0.18,0.3,0.45,0.69,0.57c3.81,1.17,16.17,6.51,24.27,10.53
		c11.04,5.43,19.143,10.47,28.5,17.7c1.802,1.38,3.42,2.49,3.631,2.49c0.449-0.03,68.971-101.82,69.149-102.75
		c0.12-0.75-2.37-2.79-10.74-8.76c-17.397-12.42-41.068-24.93-63.09-33.358c-6.36-2.46-15.63-5.73-16.14-5.73
		C753.27,126.3,747.63,144.57,735.21,185.79z"/>
	<path id="structure45_label44_S1HL" bar:type="" bar:growlevel="0" fill="#D3D43B" d="M661.859,167.88
		c-2.369,33-4.352,60.45-4.439,61.02l-0.15,1.05l5.341,1.74c6.842,2.22,13.409,3.84,19.439,4.86c10.261,1.71,20.011,4.14,29.58,7.38
		c2.4,0.811,4.62,1.47,4.95,1.47c0.51,0,2.76-7.32,18.54-59.58c10.41-34.5,17.85-59.67,17.7-59.79
		c-0.45-0.42-17.131-5.852-24.603-7.98c-21.42-6.21-38.608-9.18-56.97-9.93l-5.101-0.21L661.859,167.88z"/>
	<path id="structure46_label45_M1" bar:type="" bar:growlevel="0" fill="#FBFF8E" d="M654.15,108.33
		c-10.53,0.51-21.45,1.8-31.052,3.72c-7.289,1.47-7.5,1.53-7.5,2.4c0,0.87,12.869,111.24,12.961,111.3
		c0.061,0.03,3.658,0.48,8.039,1.02c4.382,0.51,10.319,1.38,13.199,1.86c7.98,1.38,7.5,1.35,7.5,0.69
		c0-0.84,8.342-117.24,8.551-119.46l0.211-1.86l-3.42,0.06C660.78,108.06,656.97,108.21,654.15,108.33z"/>
	<path id="structure47_label46_M2" bar:type="" bar:growlevel="0" fill="#E2E923" d="M611.85,114.63
		c-21.33,6.06-37.739,14.7-50.55,26.58c-1.95,1.83-2.189,2.16-1.95,2.73c0.603,1.29,54.302,85.23,54.57,85.26
		c0.12,0,0.75-0.42,1.38-0.9c0.63-0.51,1.95-1.29,2.91-1.74c1.59-0.72,2.13-0.81,5.88-0.9c3.75-0.12,4.11-0.18,4.11-0.66
		c0-0.63-12.511-108.12-12.78-109.89C615.21,113.79,614.97,113.76,611.85,114.63z"/>
	<path id="structure48_label47_Cg1" bar:type="" bar:growlevel="0" fill="#F1F48E" d="M556.77,145.86
		c-8.277,9.51-13.35,18.96-15.629,29.068c-0.601,2.642-0.659,3.84-0.75,19.32l-0.121,16.5l35.19,11.04
		c19.351,6.06,35.49,11.01,35.851,11.01c0.479,0,0.869-0.36,1.289-1.14c0.33-0.6,0.75-1.32,0.961-1.59
		c0.271-0.42-4.17-7.562-26.971-43.2c-15-23.49-27.479-42.75-27.75-42.81C558.6,144,557.67,144.81,556.77,145.86z"/>
	<path id="structure49_label48_Cg2" bar:type="" bar:growlevel="0" fill="#DBDF6B" d="M540.359,240.66l0.091,29.49l0.81,1.71
		c1.08,2.34,2.16,3.66,3.722,4.65c0.721,0.45,1.318,0.93,1.318,1.021c0,0.09-0.45,0.39-1.02,0.63c-2.49,1.2-4.53,3.87-4.86,6.33
		l-0.21,1.41h1.56c1.2,0,1.803-0.18,2.521-0.72c3.42-2.55,7.41-2.97,10.17-1.05c1.05,0.78,2.01,0.72,7.17-0.33
		c7.561-1.56,17.46-4.77,20.91-6.78c4.38-2.58,10.71-9.24,15.06-15.87c1.591-2.43,13.803-26.85,13.803-27.6
		c0-0.21-0.45-0.54-0.962-0.72c-20.25-6.42-69.118-21.63-69.568-21.63C540.3,211.2,540.3,211.44,540.359,240.66z"/>
	<path id="structure4_label1_SIB" bar:type="" bar:growlevel="0" fill="#FFE600" d="M656.43,535.26
		c-3.06,4.143-5.91,10.17-7.289,15.54c-0.75,2.82-0.931,4.261-1.051,7.98c-0.21,5.34,0.18,8.43,1.44,12.21
		c1.02,3.09,3.238,7.71,3.72,7.71c0.15,0,0.72-0.271,1.2-0.63c4.62-3.15,12.45-5.521,19.438-5.881l3.209-0.182v-2.31
		c0-3.392,0.48-5.46,2.133-9.183c1.56-3.539,1.737-4.317,0.987-4.317c-0.27,0-1.528-0.54-2.817-1.2
		c-5.643-2.938-12.723-10.438-17.25-18.24c-0.99-1.68-1.95-3.06-2.16-3.06S657.09,534.42,656.43,535.26z"/>
	<path id="structure50_label49_LSD" bar:type="" bar:growlevel="0" fill="#DEFFB2" d="M588,300.06c-4.62,1.92-20.25,5.16-33.6,6.93
		c-3.961,0.51-5.28,0.81-5.313,1.14c-0.06,0.3,1.052,0.84,3.75,1.83c2.102,0.78,10.052,3.87,17.61,6.84
		c20.25,8.011,36.028,13.8,37.56,13.8c0.511,0,0.511-0.63-0.06-1.41c-0.24-0.358-3.87-6.27-8.04-13.198
		c-4.17-6.9-8.13-13.38-8.79-14.43C589.891,299.61,589.5,299.43,588,300.06z"/>
	<path fill="#FF005D" d="M670.32,295.95c2.069-6.24,3.75-9.24,8.397-15c3.15-3.87,4.98-6.63,4.98-7.44c0-1.2-1.41-3.688-2.7-4.8
		c-1.771-1.5-5.55-3.42-7.83-3.93c-6.271-1.44-16.41-0.42-25.32,2.55c-6.39,2.13-17.13,7.77-29.1,15.36
		c-3.12,1.98-7.53,4.77-9.75,6.18c-5.102,3.21-11.58,6.93-15.54,8.88c-1.68,0.81-3.061,1.68-3.061,1.89s0.511,1.17,1.141,2.1
		c0.66,0.93,4.71,7.59,9.061,14.76c4.319,7.17,8.279,13.65,8.791,14.37c0.511,0.75,2.55,3.06,4.561,5.16
		c2.01,2.068,4.59,4.92,5.76,6.3c1.17,1.41,2.58,2.97,3.181,3.48c1.619,1.438,4.409,2.64,9.209,3.959
		c8.553,2.399,13.711,5.699,15.303,9.779c0.959,2.4,0.959,6.15,0.027,9.75c-0.869,3.391-3.75,9.15-6.147,12.33
		c-4.683,6.182-9.66,10.08-15.78,12.33c-2.069,0.78-6.51,2.46-9.898,3.811c-8.882,3.479-10.949,4.021-14.102,3.812
		c-1.41-0.09-5.521-0.78-9.148-1.562c-4.649-0.959-7.352-1.381-9.149-1.408c-4.62-0.063-7.29,1.438-8.19,4.62
		c-0.539,1.829-1.319,2.697-2.97,3.42c-2.76,1.14-5.189,0.21-7.92-3.03c-2.28-2.7-3.12-3.45-4.92-4.29
		c-2.16-0.99-4.56-0.96-11.97,0.09c-3.465,0.486-5.314,0.725-7.199,0.719v206.75c1.195,0.268,1.169-0.723,1.169-41.959
		c0-35.369,0.06-41.397,0.479-43.979c0.238-1.65,0.568-3.96,0.721-5.103c1.229-9.867,4.26-22.737,9.39-39.75
		c1.08-3.538,2.13-7.26,2.311-8.25c0.302-1.35,0.33-5.067,0.182-15.3c-0.182-14.52,0-18.84,1.021-21.479
		c1.5-3.933,4.83-7.17,8.699-8.4c2.04-0.66,2.221-0.688,6.631-0.33c13.739,1.143,23.489,1.17,28.021,0.09
		c7.771-1.89,23.16-8.79,31.648-14.22c4.199-2.67,6.512-3.81,7.801-3.81c1.08,0,1.41-0.303,6.931-5.94
		c10.739-11.01,20.76-22.05,24.75-27.359c2.819-3.75,4.26-6.989,4.53-10.41c0.147-1.561,0-2.34-0.932-5.159
		c-1.859-5.7-1.979-6.42-1.891-13.681c0.061-7.771-0.271-10.5-1.891-15.449c-2.102-6.33-2.699-11.012-2.13-16.771
		C667.98,304.65,668.88,300.39,670.32,295.95z"/>
	<path fill="#B4FF59" d="M644.67,356.13c-2.07-2.04-6.93-4.44-11.52-5.7c-7.86-2.13-9.69-3.148-13.53-7.68
		c-4.29-5.01-10.62-11.67-11.341-11.91c-8.55-2.609-16.591-5.55-36.841-13.56c-16.021-6.3-17.909-7.05-21.091-8.19
		c-2.039-0.75-2.368-0.75-10.14-0.81l-0.18-0.001v26.971c2.788,0,3.002-0.063,3.72-0.78c0.568-0.54,0.84-1.26,1.05-2.55
		c0.33-2.37,0.511-2.76,1.53-3.27c1.318-0.69,2.97-0.54,4.95,0.448c4.8,2.432,19.8,14.312,24.06,19.08
		c5.61,6.24,15.54,20.7,18.75,27.36c1.563,3.21,1.74,4.109,1.351,6.898c-0.091,0.602,0.182,0.812,1.95,1.562
		c8.189,3.51,21.119,4.59,28.379,2.34c7.683-2.37,16.262-10.47,20.521-19.38c1.08-2.25,1.26-2.88,1.26-4.561
		C647.52,359.85,646.74,358.17,644.67,356.13z"/>
	<path fill="#610BE5" d="M644.67,356.13c-2.07-2.04-6.93-4.44-11.52-5.7c-7.86-2.13-9.69-3.148-13.53-7.68
		c-4.29-5.01-10.62-11.67-11.341-11.91c-8.55-2.609-16.591-5.55-36.841-13.56c-16.021-6.3-17.909-7.05-21.091-8.19
		c-2.039-0.75-2.368-0.75-10.14-0.81l-0.18-0.001v26.971c2.788,0,3.002-0.063,3.72-0.78c0.568-0.54,0.84-1.26,1.05-2.55
		c0.33-2.37,0.511-2.76,1.53-3.27c1.318-0.69,2.97-0.54,4.95,0.448c4.8,2.432,19.8,14.312,24.06,19.08
		c5.61,6.24,15.54,20.7,18.75,27.36c1.563,3.21,1.74,4.109,1.351,6.898c-0.091,0.602,0.182,0.812,1.95,1.562
		c8.189,3.51,21.119,4.59,28.379,2.34c7.683-2.37,16.262-10.47,20.521-19.38c1.08-2.25,1.26-2.88,1.26-4.561
		C647.52,359.85,646.74,358.17,644.67,356.13z"/>
	<path fill="#97FF59" d="M850.109,413.7c-2.729-23.97-9.329-45.75-20.789-68.7c-6.722-13.439-13.5-24.09-21.99-34.5
		c-18.811-23.1-38.971-40.14-61.35-51.9c-11.853-6.21-31.53-14.25-36.632-14.97c-5.971-0.81-14.011-1.59-26.729-2.58
		c-7.59-0.6-16.53-1.32-19.92-1.65c-8.28-0.78-22.47-1.08-27-0.6c-8.46,0.9-13.979,3.33-18.24,7.98c-1.021,1.14-3.3,4.02-5.04,6.39
		c-6.54,8.82-14.91,16.35-23.13,20.79c-14.728,7.995-32.038,12.109-49.259,12.166v22.184c1.361-0.002,2.731-0.122,5.129-0.358
		c14.311-1.38,32.34-4.65,41.04-7.41c5.909-1.89,14.069-6.42,30.78-17.13c12.06-7.68,24.688-14.43,30.869-16.5
		c7.801-2.58,17.851-3.81,23.521-2.91c2.13,0.36,6.33,1.74,8.58,2.85c2.13,1.02,4.319,3.06,6.03,5.55
		c1.647,2.43,1.199,2.34,5.22,0.93c3.81-1.35,7.47-1.86,14.399-2.04c16.438-0.42,28.771,2.43,44.791,10.44
		c15.959,7.95,29.817,18,41.31,29.85c13.89,14.34,24.989,29.88,34.08,47.67c11.489,22.47,17.76,44.399,20.399,71.34
		c0.631,6.42,0.898,23.61,0.448,28.71c-0.688,7.83-2.58,16.563-5.58,25.8c-1.737,5.342-1.89,6-1.26,6
		c1.229,0,7.353-16.14,8.58-22.617c1.47-7.593,2.189-19.563,2.25-37.383C850.65,420.66,850.561,417.51,850.109,413.7z"/>
	<path id="structure5_label2_EAC" bar:type="" bar:growlevel="0" fill="#FFC5B2" d="M662.641,495.18
		c-2.489,1.353-13.858,4.32-16.561,4.32h-0.87l0.181,2.311c0.329,4.472,2.012,9.392,6.569,19.109
		c4.681,10.021,9.39,18.271,13.021,22.8c2.88,3.57,7.648,8.25,10.141,9.9c2.13,1.41,5.1,2.729,5.67,2.49
		c0.75-0.301,5.34-13.23,7.41-20.94c0.63-2.4,1.438-5.1,1.77-6c0.36-0.87,0.631-1.77,0.631-1.979c0-0.181-0.631-0.721-1.409-1.171
		c-4.409-2.55-14.279-14.578-21.989-26.788c-1.62-2.609-3.03-4.529-3.3-4.5C663.66,494.73,663.09,494.91,662.641,495.18z"/>
	<path id="structure6_label3_VLH" bar:type="" bar:growlevel="0" fill="#5717BF" d="M630.33,579c-4.29,0.9-7.23,4.41-7.23,8.7
		c0,3.12,1.65,5.938,4.803,8.25l1.5,1.08l1.709-0.36c3.391-0.688,9.87,0.391,14.279,2.4c1.142,0.51,2.189,0.93,2.341,0.93
		c0.421,0,0.33-0.57-0.511-2.67c-0.688-1.74-0.78-2.25-0.659-4.8c0.091-1.62,0.358-3.63,0.688-4.591
		c0.51-1.562,0.51-1.739,0.062-2.432c-0.659-1.02-4.08-3.54-6.359-4.647C637.71,579.24,633.15,578.43,630.33,579z"/>
	<path id="structure7_label4_HDB" bar:type="" bar:growlevel="0" fill="#83E900" d="M673.35,572.311
		c-11.58,0.959-20.52,5.222-24.239,11.552c-1.261,2.157-2.341,5.76-2.521,8.43c-0.27,4.08,0.9,6.78,4.92,11.189
		c2.28,2.551,5.25,4.801,8.34,6.358c5.552,2.76,16.771,4.59,22.563,3.66c2.938-0.45,3.21-0.6,3.81-2.13
		c1.2-2.97,0.933-8.103-0.897-17.4c-2.16-11.13-4.893-18.12-8.103-20.97C676.17,572.1,676.05,572.07,673.35,572.311z"/>
	<path id="structure8_label5_MCPO" bar:type="" bar:growlevel="0" fill="#E99159" d="M706.2,567.75c-1.41,0.21-4.17,0.811-6.15,1.32
		c-7.5,1.857-15.39,3.027-20.7,3.027c-1.438,0-2.25,0.12-2.25,0.33c0,0.183,0.541,0.933,1.17,1.65
		c3.303,3.75,6.271,13.107,8.28,26.04c0.511,3.21,0.48,8.76-0.03,11.25l-0.209,1.02l0.989-0.21c1.41-0.27,6.12-2.55,10.681-5.158
		c2.16-1.229,6.421-3.302,9.449-4.592c15.181-6.447,19.29-9.447,23.19-17.01c1.05-2.04,1.08-2.22,1.08-5.31
		c0-2.521-0.12-3.54-0.66-4.923c-1.229-3.327-4.53-5.907-9.09-7.17C719.49,567.33,709.77,567.15,706.2,567.75z"/>
	<path id="structure9_label6_VP" bar:type="" bar:growlevel="0" fill="#FFE900" d="M717.33,511.47c-0.57,1.05-6.061,5.7-9.33,7.893
		c-3.57,2.397-9.811,5.578-12.9,6.567c-1.17,0.393-2.1,0.78-2.1,0.9c0,0.09,0.45,0.689,1.02,1.29c2.132,2.25,3.15,7.02,2.58,12
		c-0.988,8.52-5.368,20.398-10.35,27.93c-1.08,1.62-1.95,3.09-1.95,3.21c0,0.84,9.33-0.63,17.55-2.76
		c7.41-1.92,15.9-1.95,21.42-0.12c5.791,1.92,8.73,5.88,8.73,11.7c0,1.29,0.12,2.22,0.3,2.22c0.15,0,1.2-0.87,2.311-1.979
		c3.75-3.603,10.052-7.62,16.291-10.382c2.971-1.288,3.631-1.921,2.341-2.158c-5.58-1.021-9.21-2.61-12.9-5.521
		c-3.898-3.09-7.318-7.74-9.54-12.897c-1.948-4.5-8.25-24.15-11.79-36.813C718.561,510.93,717.84,510.48,717.33,511.47z"/>
	
		<text id="label30" bar:growlevel="0" transform="matrix(1 0 0 1 720.8604 635.8867)" fill="#232323" enable-background="new    " font-family="'TimesNewRomanPSMT'" font-size="9">LOT-1</text>
	
		<text id="label31" bar:growlevel="0" transform="matrix(1 0 0 1 726.2402 620.1436)" fill="#232323" enable-background="new    " font-family="'TimesNewRomanPSMT'" font-size="9">LOT-2</text>
	
		<text id="label32" bar:growlevel="0" transform="matrix(1 0 0 1 862.3203 610.8418)" fill="#232323" enable-background="new    " font-family="'TimesNewRomanPSMT'" font-size="9">Pir-1</text>
	
		<text id="label33" bar:growlevel="0" transform="matrix(1 0 0 1 865.6299 591.8789)" fill="#232323" enable-background="new    " font-family="'TimesNewRomanPSMT'" font-size="9">Pir-2</text>
	
		<text id="label34" bar:growlevel="0" transform="matrix(1 0 0 1 860.5801 577.2266)" fill="#232323" enable-background="new    " font-family="'TimesNewRomanPSMT'" font-size="9">Pir-3</text>
	
		<text id="label35" bar:growlevel="0" transform="matrix(1 0 0 1 889.9805 506.2637)" fill="#232323" enable-background="new    " font-family="'TimesNewRomanPSMT'" font-size="9">AIP</text>
	
		<text id="label36" bar:growlevel="0" transform="matrix(1 0 0 1 852.0498 474.0586)" fill="#232323" enable-background="new    " font-family="'TimesNewRomanPSMT'" font-size="9">DCl</text>
	
		<text id="label37" bar:growlevel="0" transform="matrix(1 0 0 1 896.1895 474.9277)" fill="#232323" enable-background="new    " font-family="'TimesNewRomanPSMT'" font-size="9">DI</text>
	
		<text id="label38" bar:growlevel="0" transform="matrix(1 0 0 1 897.7002 450.7734)" fill="#232323" enable-background="new    " font-family="'TimesNewRomanPSMT'" font-size="9">GI</text>
	
		<text id="label39" bar:growlevel="0" transform="matrix(1 0 0 1 773.8105 402.0156)" fill="#232323" enable-background="new    " font-family="'TimesNewRomanPSMT'" font-size="9">CPu</text>
	
		<text id="label147" bar:growlevel="0" transform="matrix(1 0 0 1 544.0391 450.7734)" fill="#232323" enable-background="new    " font-family="'TimesNewRomanPSMT'" font-size="9">3V</text>
	
		<text id="label146" bar:growlevel="0" transform="matrix(1 0 0 1 546.5313 626.9365)" fill="#232323" enable-background="new    " font-family="'TimesNewRomanPSMT'" font-size="9">och</text>
	
		<text id="label145" bar:growlevel="0" transform="matrix(1 0 0 1 577.0801 457.5156)" fill="#232323" enable-background="new    " font-family="'TimesNewRomanPSMT'" font-size="9">f</text>
	
		<text id="label149" bar:growlevel="0" transform="matrix(1 0 0 1 543.5078 357.7383)" fill="#232323" enable-background="new    " font-family="'TimesNewRomanPSMT'" font-size="9">TS</text>
	
		<text id="label8" bar:growlevel="0" transform="matrix(1 0 0 1 632.1797 604.2109)" fill="#232323" enable-background="new    " font-family="'TimesNewRomanPSMT'" font-size="9">ESO</text>
	
		<text id="label9" bar:growlevel="0" transform="matrix(1 0 0 1 627.3701 613.9629)" fill="#232323" enable-background="new    " font-family="'TimesNewRomanPSMT'" font-size="9">SO</text>
	
		<text id="label0" bar:growlevel="0" transform="matrix(1 0 0 1 621.9102 550.8418)" fill="#232323" enable-background="new    " font-family="'TimesNewRomanPSMT'" font-size="9">LPO</text>
	
		<text id="label1" bar:growlevel="0" transform="matrix(1 0 0 1 654.8701 562.6836)" fill="#232323" enable-background="new    " font-family="'TimesNewRomanPSMT'" font-size="9">SIB</text>
	
		<text id="label2" bar:growlevel="0" transform="matrix(1 0 0 1 660.9395 527.5078)" fill="#232323" enable-background="new    " font-family="'TimesNewRomanPSMT'" font-size="9">EAC</text>
	
		<text id="label3" bar:growlevel="0" transform="matrix(1 0 0 1 627.8398 589.9385)" fill="#232323" enable-background="new    " font-family="'TimesNewRomanPSMT'" font-size="9">VLH</text>
	
		<text id="label4" bar:growlevel="0" transform="matrix(1 0 0 1 658.6016 587.1152)" fill="#232323" enable-background="new    " font-family="'TimesNewRomanPSMT'" font-size="9">HDB</text>
	
		<text id="label5" bar:growlevel="0" transform="matrix(1 0 0 1 692.334 585.6592)" fill="#232323" enable-background="new    " font-family="'TimesNewRomanPSMT'" font-size="9">MCPO</text>
	
		<text id="label6" bar:growlevel="0" transform="matrix(1 0 0 1 705.0898 550.8418)" fill="#232323" enable-background="new    " font-family="'TimesNewRomanPSMT'" font-size="9">VP</text>
	
		<text id="label7" bar:growlevel="0" transform="matrix(1 0 0 1 685.3496 554.6719)" fill="#232323" enable-background="new    " font-family="'TimesNewRomanPSMT'" font-size="9">B</text>
	
		<text id="Unlabeled-2179-2023" bar:growlevel="0" transform="matrix(1 0 0 1 679.2002 620.0996)" fill="#232323" enable-background="new    " font-family="'TimesNewRomanPSMT'" font-size="9">grey</text>
	
		<text id="label12" bar:growlevel="0" transform="matrix(1 0 0 1 551.1797 499.8711)" fill="#232323" enable-background="new    " font-family="'TimesNewRomanPSMT'" font-size="9">PaAP</text>
	
		<text id="label13" bar:growlevel="0" transform="matrix(1 0 0 1 581.96 496.4521)" fill="#232323" enable-background="new    " font-family="'TimesNewRomanPSMT'" font-size="9">StHy</text>
	
		<text id="label10" bar:growlevel="0" transform="matrix(1 0 0 1 596.1797 544.9209)" fill="#232323" enable-background="new    " font-family="'TimesNewRomanPSMT'" font-size="9">MPA</text>
	
		<text id="label11" bar:growlevel="0" transform="matrix(1 0 0 1 551.6055 534.7998)" fill="#232323" enable-background="new    " font-family="'TimesNewRomanPSMT'" font-size="9">MPOM</text>
	
		<text id="label16" bar:growlevel="0" transform="matrix(1 0 0 1 604.0176 433.9063)" fill="#232323" enable-background="new    " font-family="'TimesNewRomanPSMT'" font-size="9">STMPM</text>
	
		<text id="label14" bar:growlevel="0" transform="matrix(1 0 0 1 613.7363 477.0527)" fill="#232323" enable-background="new    " font-family="'TimesNewRomanPSMT'" font-size="3">STMPI</text>
	
		<text id="label15" bar:growlevel="0" transform="matrix(1 0 0 1 631.0947 488.8193)" fill="#232323" enable-background="new    " font-family="'TimesNewRomanPSMT'" font-size="2">STMPL</text>
	
		<text id="label162" bar:growlevel="0" transform="matrix(1 0 0 1 544.04 521.9014)" fill="#232323" enable-background="new    " font-family="'TimesNewRomanPSMT'" font-size="9">Pe</text>
	
		<text id="label164" bar:growlevel="0" transform="matrix(1 0 0 1 554.959 605.1514)" fill="#232323" enable-background="new    " font-family="'TimesNewRomanPSMT'" font-size="9">SChDL</text>
	
		<text id="Unlabeled-2675-1800" bar:growlevel="0" transform="matrix(1 0 0 1 795 545.0996)" fill="#232323" enable-background="new    " font-family="'TimesNewRomanPSMT'" font-size="9">grey</text>
	
		<text id="label118" bar:growlevel="0" transform="matrix(1 0 0 1 549.6797 284.2646)" fill="#232323" enable-background="new    " font-family="'TimesNewRomanPSMT'" font-size="9">IG</text>
	
		<text id="label119" bar:growlevel="0" transform="matrix(1 0 0 1 544.9189 394.9648)" fill="#232323" enable-background="new    " font-family="'TimesNewRomanPSMT'" font-size="9">SFO</text>
	
		<text id="label107" bar:growlevel="0" transform="matrix(1 0 0 1 649.1406 406.3066)" fill="#232323" enable-background="new    " font-family="'TimesNewRomanPSMT'" font-size="9">st</text>
	
		<text id="Unlabeled-1799-903" bar:growlevel="0" transform="matrix(1 0 0 1 542.3447 277.2734)" fill="#232323" enable-background="new    " font-family="'TimesNewRomanPSMT'" font-size="9">vBrain</text>
	
		<text id="Unlabeled-2157-1222" bar:growlevel="0" transform="matrix(1 0 0 1 597.5996 392.7002)" fill="#232323" enable-background="new    " font-family="'TimesNewRomanPSMT'" font-size="9">SFi</text>
	
		<text id="label109" bar:growlevel="0" transform="matrix(1 0 0 1 670.2998 412.9277)" fill="#232323" enable-background="new    " font-family="'TimesNewRomanPSMT'" font-size="9">ic</text>
	
		<text id="label108" bar:growlevel="0" transform="matrix(1 0 0 1 620.6797 234.9561)" fill="#232323" enable-background="new    " font-family="'TimesNewRomanPSMT'" font-size="9">cg</text>
	
		<text id="Unlabeled-2849-813-1" bar:growlevel="0" transform="matrix(1 0 0 1 828.0293 223.7422)" fill="#232323" enable-background="new    " font-family="'TimesNewRomanPSMT'" font-size="9">S1DZ</text>
	
		<text id="label132" bar:growlevel="0" transform="matrix(1 0 0 1 774.0801 545.2705)" fill="#232323" enable-background="new    " font-family="'TimesNewRomanPSMT'" font-size="9">acp</text>
	
		<text id="label48" bar:growlevel="0" transform="matrix(1 0 0 1 560.8906 251.5586)" fill="#232323" enable-background="new    " font-family="'TimesNewRomanPSMT'" font-size="9">Cg2</text>
	
		<text id="label130" bar:growlevel="0" transform="matrix(1 0 0 1 577.1484 511.8652)" fill="#232323" enable-background="new    " font-family="'TimesNewRomanPSMT'" font-size="9">PDPO</text>
	
		<text id="label41" bar:growlevel="0" transform="matrix(1 0 0 1 874.4297 351.627)" fill="#232323" enable-background="new    " font-family="'TimesNewRomanPSMT'" font-size="9">S1ULp</text>
	
		<text id="label40" bar:growlevel="0" transform="matrix(1 0 0 1 900.9805 408.3965)" fill="#232323" enable-background="new    " font-family="'TimesNewRomanPSMT'" font-size="9">S2</text>
	
		<text id="label43" bar:growlevel="0" transform="matrix(1 0 0 1 769.1406 203.9609)" fill="#232323" enable-background="new    " font-family="'TimesNewRomanPSMT'" font-size="9">S1FL</text>
	
		<text id="label42" bar:growlevel="0" transform="matrix(1 0 0 1 848.2998 281.2842)" fill="#232323" enable-background="new    " font-family="'TimesNewRomanPSMT'" font-size="9">S1BF</text>
	
		<text id="label45" bar:growlevel="0" transform="matrix(1 0 0 1 636.1797 167.9746)" fill="#232323" enable-background="new    " font-family="'TimesNewRomanPSMT'" font-size="9">M1</text>
	
		<text id="label44" bar:growlevel="0" transform="matrix(1 0 0 1 686.5098 176.0957)" fill="#232323" enable-background="new    " font-family="'TimesNewRomanPSMT'" font-size="9">S1HL</text>
	
		<text id="label47" bar:growlevel="0" transform="matrix(1 0 0 1 564.1406 201.4102)" fill="#232323" enable-background="new    " font-family="'TimesNewRomanPSMT'" font-size="9">Cg1</text>
	
		<text id="label46" bar:growlevel="0" transform="matrix(1 0 0 1 597.1699 175.8652)" fill="#232323" enable-background="new    " font-family="'TimesNewRomanPSMT'" font-size="9">M2</text>
	
		<text id="label114" bar:growlevel="0" transform="matrix(1 0 0 1 589.8203 451.584)" fill="#232323" enable-background="new    " font-family="'TimesNewRomanPSMT'" font-size="9">BAC</text>
	
		<text id="label110" bar:growlevel="0" transform="matrix(1 0 0 1 802.6094 320.2813)" fill="#232323" enable-background="new    " font-family="'TimesNewRomanPSMT'" font-size="9">ec</text>
	
		<text id="label117" bar:growlevel="0" transform="matrix(1 0 0 1 685.2305 275.0127)" fill="#232323" enable-background="new    " font-family="'TimesNewRomanPSMT'" font-size="9">E</text>
	
		<text id="label111" bar:growlevel="0" transform="matrix(1 0 0 1 763.5801 643.1377)" fill="#232323" enable-background="new    " font-family="'TimesNewRomanPSMT'" font-size="9">lo</text>
	
		<text id="label54" bar:growlevel="0" transform="matrix(1 0 0 1 596.3105 355.457)" fill="#232323" enable-background="new    " font-family="'TimesNewRomanPSMT'" font-size="9">SFi</text>
	
		<text id="label53" bar:growlevel="0" transform="matrix(1 0 0 1 608.3848 403.3467)" fill="#FF0000" enable-background="new    " font-family="'TimesNewRomanPSMT'" font-size="9">.IVF</text>
	
		<text id="label50" bar:growlevel="0" transform="matrix(1 0 0 1 634.8496 324.4014)" fill="#232323" enable-background="new    " font-family="'TimesNewRomanPSMT'" font-size="9">LV</text>
	
		<text id="label113" bar:growlevel="0" transform="matrix(1 0 0 1 663.4004 634.8066)" fill="#232323" enable-background="new    " font-family="'TimesNewRomanPSMT'" font-size="9">a</text>
	
		<text id="label125" bar:growlevel="0" transform="matrix(1 0 0 1 740.25 532.3779)" fill="#232323" enable-background="new    " font-family="'TimesNewRomanPSMT'" font-size="9">IPACL</text>
	
		<text id="label124" bar:growlevel="0" transform="matrix(1 0 0 1 654.6523 492.752)" fill="#232323" enable-background="new    " font-family="'TimesNewRomanPSMT'" font-size="9">STLP</text>
	
		<text id="label127" bar:growlevel="0" transform="matrix(1 0 0 1 571.4307 566.748)" fill="#232323" enable-background="new    " font-family="'TimesNewRomanPSMT'" font-size="9">MPOL</text>
	
		<text id="label126" bar:growlevel="0" transform="matrix(1 0 0 1 749.9502 560.9629)" fill="#232323" enable-background="new    " font-family="'TimesNewRomanPSMT'" font-size="9">IPACM</text>
	
		<text id="label122" bar:growlevel="0" transform="matrix(1 0 0 1 549.875 615.7881)" fill="#232323" enable-background="new    " font-family="'TimesNewRomanPSMT'" font-size="9">SChVM</text>
	
		<text id="label129" bar:growlevel="0" transform="matrix(1 0 0 1 557.5391 555.749)" fill="#232323" enable-background="new    " font-family="'TimesNewRomanPSMT'" font-size="9">MPOC</text>
	
		<text id="label128" bar:growlevel="0" transform="matrix(1 0 0 1 544.0391 637.0498)" fill="#232323" enable-background="new    " font-family="'TimesNewRomanPSMT'" font-size="9">sox</text>
	
		<text id="label112" bar:growlevel="0" transform="matrix(1 0 0 1 585.6895 438.002)" fill="#232323" enable-background="new    " font-family="'TimesNewRomanPSMT'" font-size="9">sm</text>
	
		<text id="label23" bar:growlevel="0" transform="matrix(1 0 0 1 842.1094 500.3623)" fill="#232323" enable-background="new    " font-family="'TimesNewRomanPSMT'" font-size="9">VCl</text>
	
		<text id="label22" bar:growlevel="0" transform="matrix(1 0 0 1 788.3203 564.6035)" fill="#232323" enable-background="new    " font-family="'TimesNewRomanPSMT'" font-size="9">IEn</text>
	
		<text id="label21" bar:growlevel="0" transform="matrix(1 0 0 1 829.46 538.7197)" fill="#232323" enable-background="new    " font-family="'TimesNewRomanPSMT'" font-size="9">DEn</text>
	
		<text id="label20" bar:growlevel="0" transform="matrix(1 0 0 1 702.8496 452.6348)" fill="#232323" enable-background="new    " font-family="'TimesNewRomanPSMT'" font-size="9">GP</text>
	
		<text id="label27" bar:growlevel="0" transform="matrix(1 0 0 1 776.6201 633.2266)" fill="#232323" enable-background="new    " font-family="'TimesNewRomanPSMT'" font-size="9">CxA-1</text>
	
		<text id="label26" bar:growlevel="0" transform="matrix(1 0 0 1 740.0996 607.6211)" fill="#232323" enable-background="new    " font-family="'TimesNewRomanPSMT'" font-size="9">ACo</text>
	
		<text id="label25" bar:growlevel="0" transform="matrix(1 0 0 1 735.7998 590.5488)" fill="#232323" enable-background="new    " font-family="'TimesNewRomanPSMT'" font-size="9">AA</text>
	
		<text id="label24" bar:growlevel="0" transform="matrix(1 0 0 1 777.0303 558.8535)" fill="#232323" enable-background="new    " font-family="'TimesNewRomanPSMT'" font-size="9">I</text>
	
		<text id="label29" bar:growlevel="0" transform="matrix(1 0 0 1 781.5361 604.2744)" fill="#232323" enable-background="new    " font-family="'TimesNewRomanPSMT'" font-size="9">CxA-3</text>
	
		<text id="label28" bar:growlevel="0" transform="matrix(1 0 0 1 786.1104 623.2646)" fill="#232323" enable-background="new    " font-family="'TimesNewRomanPSMT'" font-size="9">CxA-2</text>
	
		<text id="label49" bar:growlevel="0" transform="matrix(1 0 0 1 573.9395 314.0098)" fill="#232323" enable-background="new    " font-family="'TimesNewRomanPSMT'" font-size="9">LSD</text>
	
		<text id="label150" bar:growlevel="0" transform="matrix(1 0 0 1 544.918 381.3125)" fill="#232323" enable-background="new    " font-family="'TimesNewRomanPSMT'" font-size="9">vhc</text>
	
		<text id="label153" bar:growlevel="0" transform="matrix(1 0 0 1 542.3447 299.7354)" fill="#232323" enable-background="new    " font-family="'TimesNewRomanPSMT'" font-size="9">cc</text>
	
		<text id="label154" bar:growlevel="0" transform="matrix(1 0 0 1 625.3496 369.7402)" fill="#232323" enable-background="new    " font-family="'TimesNewRomanPSMT'" font-size="9">fi</text>
	
		<text id="label156" bar:growlevel="0" transform="matrix(1 0 0 1 655.1504 595.459)" fill="#232323" enable-background="new    " font-family="'TimesNewRomanPSMT'" font-size="9">mfbb</text>
	
		<text id="label157" bar:growlevel="0" transform="matrix(1 0 0 1 693.9492 595.9658)" fill="#232323" enable-background="new    " font-family="'TimesNewRomanPSMT'" font-size="9">mfba</text>
	
		<text id="label159" bar:growlevel="0" transform="matrix(1 0 0 1 647.3203 437.7813)" fill="#232323" enable-background="new    " font-family="'TimesNewRomanPSMT'" font-size="9">cst</text>
</g>
</svg>
