<?xml version="1.0" encoding="utf-8"?>
<!-- Generator: Adobe Illustrator 16.0.0, SVG Export Plug-In . SVG Version: 6.00 Build 0)  -->
<!DOCTYPE svg PUBLIC "-//W3C//DTD SVG 1.1//EN" "http://www.w3.org/Graphics/SVG/1.1/DTD/svg11.dtd">
<svg version="1.1"
	 id="body" xmlns:bar="http://www.3dbar.org" xmlns:cc="http://creativecommons.org/ns#" xmlns:dc="http://purl.org/dc/elements/1.1/" xmlns:inkscape="http://www.inkscape.org/namespaces/inkscape" xmlns:rdf="http://www.w3.org/1999/02/22-rdf-syntax-ns#" xmlns:sodipodi="http://sodipodi.sourceforge.net/DTD/sodipodi-0.dtd" xmlns:svg="http://www.w3.org/2000/svg" sodipodi:docname="54_pretrace_pretrace_v1.svg" inkscape:version="0.47pre4 r22446"
	 xmlns="http://www.w3.org/2000/svg" xmlns:xlink="http://www.w3.org/1999/xlink" x="0px" y="0px" width="1008px" height="1008px"
	 viewBox="0 0 1008 1008" enable-background="new 0 0 1008 1008" xml:space="preserve">
<sodipodi:namedview  showgrid="false" pagecolor="#ffffff" objecttolerance="10" inkscape:zoom="8.9836778" inkscape:cy="494.87166" inkscape:cx="649.92407" id="namedview196" guidetolerance="10" gridtolerance="10" borderopacity="1" bordercolor="#666666" inkscape:window-height="1128" inkscape:window-y="24" inkscape:current-layer="content" inkscape:pageshadow="2" inkscape:window-x="1680" inkscape:window-width="1918" inkscape:pageopacity="0" inkscape:window-maximized="1">
	</sodipodi:namedview>
<title  id="title3">SVG drawing</title>
<desc  id="desc5">This was produced by version 4.2 of GNU libplot, a free library for exporting 2-D vector graphics.</desc>
<defs>
	
	<rdf:RDF>
		<cc:Work  rdf:about="">
			<dc:format>image/svg+xml</dc:format>
			<dc:type  rdf:resource="http://purl.org/dc/dcmitype/StillImage"></dc:type>
			<dc:title>SVG drawing</dc:title>
		</cc:Work>
	</rdf:RDF>
	<bar:data  name="coronalcoord" content="3.0"></bar:data>
	
		<bar:data  name="rendererConf" content="{&apos;ReferenceHeight&apos;: 900, &apos;ReferenceWidth&apos;: 1200, &apos;imageSize&apos;: (1200, 900)}">
		</bar:data>
	
		<bar:data  name="tracingConf" content="{&apos;DumpEachStepSVG&apos;: False, &apos;DumpEachStepPNG&apos;: False, &apos;GrowDefaultBoundaryColor&apos;: 200, &apos;CacheLevel&apos;: 5, &apos;NewPathIdTemplate&apos;: &apos;structure%d_%s_%s&apos;, &apos;PoTraceConf&apos;: {&apos;potrace_accuracy_parameter&apos;: &apos;0.001&apos;, &apos;potrace_width_string&apos;: &apos;1200pt&apos;, &apos;potrace_svg_resolution_string&apos;: &apos;300x300&apos;, &apos;potrace_height_string&apos;: &apos;900pt&apos;}, &apos;DetectUnlabelled&apos;: True, &apos;DumpVBrain&apos;: False, &apos;DumpWrongSeed&apos;: True, &apos;DumpDirectory&apos;: &apos;.&apos;, &apos;MinFiterTimesApplication&apos;: 3, &apos;RegionAlreadyTraced&apos;: 100, &apos;UnlabelledTreshold&apos;: 500}">
		</bar:data>
	<bar:data  name="transformationmatrix" content="0.0176211454,-9.5150660793,0.0176211454,-1.5355884426"></bar:data>
</defs>
<g id="content">
	<path fill="#FF000C" d="M842.1,256.86c-2.91-11.82-5.818-20.1-10.05-28.71c-12.27-24.96-31.92-48.36-53.37-63.57
		c-13.199-9.39-33.479-19.98-51.42-26.88c-26.22-10.08-54.42-15.96-87.96-18.3c-19.59-1.35-38.52,2.16-54.149,10.05
		C576,134.1,567.3,140.67,560.76,147.9c-3.33,3.69-9.21,11.43-11.67,15.39c-4.02,6.48-7.77,15.3-8.37,19.68
		c-0.12,0.899-0.282,1.384-0.474,1.476l-0.164,201.656c0.323,0.165,0.684,0.896,1.059,2.158c1.199,4.11,1.289,3.75-0.961,3.721
		c-0.039,0-0.065-0.002-0.104-0.002l-0.005,7.002c0.456,0.028,0.901-0.113,1.309-0.43c1.05-0.779,1.32-0.568,1.32,1.141
		c0,2.011-0.42,4.41-1.41,7.921c-0.483,1.76-0.872,2.643-1.229,2.753l-0.029,36.953c0.326,0.188,0.76,0.99,1.229,2.322
		c0.42,1.262,1.2,3.45,1.68,4.86c1.08,3.03,1.562,6.9,0.871,6.9c-0.239,0-0.659-0.33-0.899-0.722
		c-0.271-0.358-0.96-0.93-1.562-1.199c-0.438-0.215-0.886-0.31-1.328-0.307l-0.008,9.617c1.159,0.036,2.556-0.79,3.228-1.991
		c0.54-0.93,1.198-1.17,1.38-0.54c0.061,0.21,0.42,2.49,0.78,5.04c1.858,13.08,5.368,26.04,8.368,30.9
		c0.512,0.84,0.932,1.68,0.932,1.89c0,0.18-0.45,0.57-0.99,0.812c-0.81,0.39-0.96,0.6-0.96,1.47c0,1.2,0.63,1.71,1.74,1.41
		c0.51-0.12,0.869-0.45,0.989-0.932c0.091-0.42,0.359-0.75,0.539-0.75c0.211,0,1.052,0.84,1.892,1.86
		c2.278,2.82,7.89,8.16,11.938,11.4c4.021,3.21,19.381,14.25,25.771,18.51c11.1,7.44,19.17,11.52,25.109,12.75
		c6.569,1.35,18.841,2.069,34.619,2.069c22.44,0,29.58-0.931,41.19-5.369c14.34-5.521,30.42-14.102,45.81-24.45
		c16.381-11.011,27.24-22.41,33.302-34.89c2.608-5.4,3.27-7.382,3.27-9.932c0-1.59-0.18-2.43-0.688-3.45
		c-1.051-2.01-2.25-3.39-3.9-4.528c-1.71-1.17-2.01-2.07-0.689-2.07c3.779,0,11.069-4.26,18.629-10.891
		c4.142-3.659,12.812-12.569,16.682-17.221c14.04-16.77,24.3-37.92,31.648-65.398c2.67-9.99,5.49-23.4,6.722-32.04
		C851.07,316.11,849.21,285.54,842.1,256.86z"/>
	<path id="structure10_label9_LO" bar:type="" bar:growlevel="0" fill="#EFF46B" d="M692.1,357.21
		c-5.039,1.92-11.31,2.79-20.039,2.79c-8.819,0-13.529,0.99-20.011,4.23c-5.04,2.52-11.55,7.59-11.55,9.028
		c0,1.021,4.71,12.54,7.23,17.642c10.528,21.448,26.459,38.13,48.42,50.729c6.84,3.932,23.22,11.37,24.989,11.37
		c0.329,0,0.899-0.479,1.351-1.17c1.529-2.312,3.72-3.63,5.938-3.63c1.17,0,3.66,0.988,6.091,2.398c1.109,0.66,2.159,1.2,2.311,1.2
		c1.65,0-5.641-19.11-16.68-43.649c-10.41-23.101-24.69-51.811-25.74-51.721C694.2,356.46,693.18,356.79,692.1,357.21z"/>
	<path id="structure11_label10_AIV" bar:type="" bar:growlevel="0" fill="#EEF423" d="M700.05,353.28
		c-0.33,0.27-1.59,1.02-2.76,1.68c-1.2,0.66-2.19,1.351-2.19,1.56c0,0.182,0.75,1.711,1.65,3.33
		c4.26,7.65,15.061,29.73,22.26,45.602c8.7,19.109,16.35,38.068,18.21,45.148l0.54,1.95l2.881,1.71c1.59,0.93,6.209,3.18,10.26,4.98
		c4.051,1.83,9.181,4.14,11.399,5.16c5.521,2.52,7.83,3.3,9.99,3.3c3.72,0,8.101-1.83,13.26-5.521c3.87-2.79,8.55-6.989,8.55-7.68
		c0-0.93-6.898-9.271-17.398-21c-9.99-11.188-21.301-23.34-48.932-52.65c-9.18-9.75-18.81-20.038-21.448-22.89
		c-2.61-2.82-4.95-5.16-5.222-5.16C700.859,352.8,700.38,353.04,700.05,353.28z"/>
	<path id="structure12_label11_AID" bar:type="" bar:growlevel="0" fill="#D0D447" d="M704.73,348.21
		c-0.302,0.63-1.11,1.771-1.802,2.55c-0.688,0.75-1.229,1.562-1.229,1.801c0,0.449,4.47,5.279,27.148,29.341
		c14.791,15.72,27.24,29.01,36.9,39.448c10.319,11.131,22.53,25.052,26.37,30.062c1.17,1.528,2.34,2.79,2.64,2.79
		c0.48,0,8.761-8.432,12.75-13.05c3.21-3.69,6.511-8.012,9.392-12.36c2.818-4.17,6-9.45,6-9.9c-0.03-0.539-9.631-6.449-62.552-38.43
		c-26.01-15.72-38.52-23.34-47.67-29.07c-3.778-2.369-6.989-4.289-7.108-4.289C705.42,347.1,705.061,347.61,704.73,348.21z"/>
	<path id="structure13_label12_VP" bar:type="" bar:growlevel="0" fill="#FFE900" d="M667.859,520.77
		c-1.829,0.632-3.42,1.83-4.771,3.602c-0.778,0.99-0.989,1.56-0.989,2.609c0,4.109,3.601,6.511,9.899,6.539
		c4.8,0.03,6.149-1.17,6.51-5.729c0.15-2.13,0.091-2.61-0.479-3.78C676.439,520.74,672.03,519.33,667.859,520.77z"/>
	<path id="structure14_label13_VP" bar:type="" bar:growlevel="0" fill="#FFE900" d="M647.67,521.49
		c-1.68,0.898-2.4,2.16-2.609,4.56c-0.239,3.24,1.08,4.41,5.011,4.44c3.448,0.029,4.979-1.021,5.88-4.08
		c0.63-2.1,0.568-3.69-0.12-4.38C654.42,520.62,649.859,520.35,647.67,521.49z"/>
	<path id="structure15_label14_VP" bar:type="" bar:growlevel="0" fill="#FFE900" d="M618.75,519.87c-1.68,0.75-2.91,2.819-3.45,5.7
		c-0.69,3.778,0.36,4.77,5.4,5.04c2.79,0.18,2.88,0.148,3.84-0.66c1.47-1.23,1.95-2.431,1.979-4.65
		c0.029-2.55-0.689-4.02-2.341-4.86C622.859,519.75,619.74,519.42,618.75,519.87z"/>
	<path id="structure16_text3053_Tu-1" bar:type="" bar:growlevel="0" fill="#FFEF00" d="M572.7,517.32
		c-2.011,0.449-2.88,0.778-2.94,1.108c-0.119,0.602,1.98,2.19,12.99,10.08c19.92,14.222,29.58,19.83,36.9,21.48
		c7.02,1.59,16.438,2.159,35.398,2.159c22.592,0,27.54-0.479,37.2-3.659c2.188-0.722,3.66-1.41,4.38-2.011
		c5.04-4.351,8.07-7.17,8.07-7.529c0-0.932-5.7-7.051-7.41-7.98c-0.96-0.51-1.109-0.238-0.689,1.471c0.42,1.62,0.211,3-0.479,3.271
		c-0.271,0.09-1.351-0.271-2.4-0.84c-2.188-1.17-2.79-1.05-3.21,0.66c-0.688,2.88-0.93,3.42-2.07,4.62
		c-2.158,2.398-5.789,3.568-7.318,2.398c-1.08-0.81-1.83-0.54-3.09,1.141c-1.381,1.891-3.75,3.271-6.812,3.989
		c-2.64,0.602-3.568,0.42-6.75-1.38c-3.42-1.92-7.77-3.78-10.53-4.47c-1.198-0.3-3.93-0.66-6.09-0.75
		c-5.34-0.3-8.459-0.72-10.02-1.41c-1.59-0.688-3.27-0.72-4.17-0.09c-0.391,0.27-1.29,1.108-2.04,1.92
		c-2.61,2.79-8.58,6.18-11.46,6.479c-1.23,0.149-1.62,0.029-3.21-0.931c-2.67-1.62-7.8-5.58-12.99-10.021
		c-4.68-3.989-6.479-5.341-11.91-8.699c-3.36-2.101-3.75-2.49-3.75-3.66c0-0.75-0.6-1.23-5.37-4.439
		C576.84,516.15,577.26,516.27,572.7,517.32z"/>
	<path id="structure17_text3055_Tu-2" bar:type="" bar:growlevel="0" fill="#FFFAB2" d="M683.13,524.73
		c-0.81,1.89-0.63,3.09,1.17,7.14c1.44,3.3,1.5,4.26,0.36,5.43c-1.23,1.2-2.76,1.562-4.5,1.021c-0.78-0.21-1.801-0.42-2.25-0.42
		c-0.87,0-3.63,1.26-3.99,1.829c-0.51,0.841-3.27,1.771-5.22,1.771c-2.31-0.03-2.97-0.33-4.14-1.979
		c-1.021-1.409-3.541-2.819-5.012-2.819c-0.51,0-1.38,0.33-1.949,0.75s-1.289,0.75-1.619,0.75c-0.961,0-10.142-2.55-11.222-3.12
		c-1.29-0.66-2.01-1.891-2.608-4.439c-0.99-3.961-2.881-5.489-6.75-5.489c-1.92,0-2.461,0.119-3.631,0.81
		c-2.011,1.17-2.399,2.221-2.851,7.44c-0.21,2.398-0.54,4.77-0.72,5.25c-1.17,3.06-5.28,3.869-11.432,2.25
		c-2.55-0.66-5.188-2.37-10.77-6.932c-4.109-3.39-8.7-6.63-12.48-8.79c-1.979-1.14-2.67-1.409-3.6-1.318
		c-1.109,0.09-1.17,0.148-1.17,1.14c0,1.17-0.6,0.689,7.2,5.82c2.159,1.41,5.19,3.688,6.75,5.069c4.38,3.841,9.45,7.859,12.63,9.989
		c2.67,1.771,3,1.92,4.5,1.92c3-0.03,9.42-3.54,11.97-6.568c0.69-0.812,1.771-1.682,2.4-1.98c1.17-0.51,1.2-0.51,3.33,0.271
		c1.71,0.631,3,0.841,6.659,1.08c9.511,0.631,11.49,1.17,18.779,4.859c5.221,2.641,6.182,2.82,9.66,1.74
		c2.4-0.75,4.11-1.86,5.4-3.57c1.47-1.89,1.829-2.068,2.818-1.29c1.17,0.931,2.7,0.841,4.892-0.27c2.43-1.2,3.84-2.851,4.26-5.04
		c0.42-2.04,1.021-3.03,1.8-3.03c0.33,0,1.352,0.42,2.25,0.931c0.932,0.51,1.86,0.84,2.102,0.75c0.6-0.211,0.6-2.91,0-4.051
		c-0.812-1.619-3.301-3.27-6.211-4.109c-1.351-0.42-1.439-0.51-1.351-1.381c0.062-0.84-0.09-0.988-1.739-1.92
		C684.33,522.811,683.91,522.87,683.13,524.73z"/>
	<path id="structure18_label19_Tu-3" bar:type="" bar:growlevel="0" fill="#E9E159" d="M581.189,515.189
		c-2.399,0.689-3.391,1.08-3.391,1.409c0,0.24,2.311,1.98,5.13,3.841c5.102,3.391,5.16,3.421,6.54,3.211
		c1.32-0.182,1.562-0.062,4.62,1.77c4.472,2.7,7.5,4.86,12.062,8.61c7.5,6.12,9.51,7.108,15.18,7.38
		c2.73,0.15,3.359,0.09,4.561-0.45c2.101-0.93,2.459-1.86,2.879-7.771c0.36-4.439,0.932-5.971,2.67-7.141
		c2.49-1.648,6.541-1.29,8.791,0.721c1.051,0.931,1.319,1.439,1.949,3.75c0.84,3,1.381,3.931,2.49,4.5
		c0.75,0.391,10.77,3.181,11.4,3.181c0.18,0,0.93-0.39,1.71-0.9c1.02-0.63,1.648-0.84,2.188-0.72c1.62,0.39,3.24,1.41,4.71,3.03
		c1.382,1.528,1.65,1.68,3.062,1.829c2.22,0.211,4.109-0.359,6.42-1.949c2.46-1.68,3.479-1.92,5.64-1.352
		c1.05,0.301,2.101,0.36,2.82,0.24c1.44-0.27,2.88-1.648,2.88-2.729c0-0.42-0.63-2.222-1.41-3.99c-1.68-3.87-1.92-5.58-1.02-7.05
		c0.81-1.32,0.81-1.892-0.09-2.46c-1.2-0.812-7.08-1.711-7.08-1.11c0,0.149,0.51,0.81,1.14,1.47c1.5,1.562,1.89,3.062,1.53,5.852
		c-0.301,2.488-0.961,3.75-2.37,4.59c-0.9,0.51-1.56,0.6-4.5,0.568c-3.69,0-5.19-0.39-7.23-1.8c-1.14-0.78-2.188-2.398-2.52-3.93
		c-0.42-1.979,1.979-5.34,4.68-6.54c0.69-0.33,1.17-0.75,1.17-1.05c0-0.42-0.81-0.57-6.06-0.99c-16.53-1.38-19.11-1.38-21.33-0.06
		c-1.83,1.05-4.92,1.35-10.891,1.02c-2.459-0.12-4.529-0.18-4.591-0.09c-0.09,0.09,0,0.39,0.211,0.66
		c2.641,3.6,1.709,8.609-1.859,9.96c-1.86,0.688-6.932-0.33-7.83-1.59c-0.57-0.812-0.57-2.58-0.03-4.682
		c0.45-1.648,1.77-3.93,2.28-3.93c0.18,0,0.3-0.271,0.3-0.6c0-0.48-0.21-0.602-1.05-0.602c-1.95,0-11.852-1.5-21-3.18
		c-4.95-0.931-9.54-1.71-10.2-1.771C585.03,514.29,583.2,514.62,581.189,515.189z M654.811,521.25c1.409,0.6,2.011,2.04,1.59,3.93
		c-0.899,3.96-3.119,5.73-6.869,5.46c-3.24-0.238-4.682-1.56-4.62-4.318c0.09-3.841,2.79-6.03,6.96-5.67
		C652.92,520.74,654.24,521.01,654.811,521.25z"/>
	<path id="structure1_label0_AcbSh" bar:type="" bar:growlevel="0" fill="#E9DA00" d="M611.16,430.8
		c-1.26,0.511-3.21,2.011-6.63,5.07c-1.83,1.68-3.511,3.03-3.72,3.06c-0.211,0.03-0.632,0-0.99,0c-0.87-0.09-3.9,3.21-5.16,5.58
		c-1.32,2.49-2.16,5.94-2.25,9.271l-0.061,2.79l1.711,1.528c0.93,0.84,3.898,4.32,6.6,7.74c14.4,18.33,17.64,21.9,21.689,24
		c3.541,1.8,10.051,3.6,10.051,2.76c0-0.21-0.87-1.289-1.92-2.398c-3.33-3.54-4.771-7.41-4.11-11.102
		c0.39-2.188,1.26-4.198,3.569-8.46c2.67-4.92,4.5-10.409,6.211-18.54c0.75-3.63,1.318-5.1,1.979-5.1c0.87,0-0.42-1.26-6.12-5.97
		c-7.8-6.42-11.159-9.03-11.55-9.03c-0.18,0-0.42,0.27-0.51,0.6c-0.182,0.602-0.21,0.602-1.44-0.119
		c-1.528-0.899-4.829-1.979-5.88-1.949C612.21,430.53,611.55,430.65,611.16,430.8z"/>
	<path id="structure22_label25_DP" bar:type="" bar:growlevel="0" fill="#F6FF00" d="M594.9,389.46
		c-3.33,2.25-9.541,4.68-15.48,6.09c-7.92,1.89-15.93,2.67-27.15,2.7h-8.909l-0.209,2.04c-0.212,2.13-1.591,8.13-2.37,10.38
		c-0.421,1.11-0.48,3.21-0.48,13.561v12.271h2.49c11.37,0,34.71-6,44.61-11.46c4.05-2.22,5.038-3,5.22-4.14
		c0.09-0.57,1.05-7.53,2.13-15.45c1.05-7.92,2.01-14.971,2.101-15.69C597.061,388.23,596.79,388.17,594.9,389.46z"/>
	<path id="structure23_label26_IL" bar:type="" bar:growlevel="0" fill="#F7FF23" d="M600.391,341.61
		c-3.601,2.1-13.979,5.1-22.591,6.51c-9.42,1.56-14.85,1.56-23.25,0c-3-0.57-5.64-0.84-9.239-0.931l-5.011-0.181l0.091,19.17
		l0.09,19.17l1.109,3.57c0.63,1.98,1.29,4.83,1.471,6.392l0.359,2.788h8.01c4.381,0,9.722-0.148,11.852-0.3
		c9.359-0.72,18.898-2.64,24.72-4.95c2.609-1.02,7.109-3.39,8.521-4.5c0.511-0.39,0.721-1.92,1.891-12.51
		c1.32-12.33,2.58-22.41,3.12-25.229c0.27-1.41,1.14-8.521,1.17-9.45C602.7,340.62,601.8,340.77,600.391,341.61z"/>
	<path id="structure24_label27_PrL" bar:type="" bar:growlevel="0" fill="#E4E947" d="M540.3,287.91v58.8l4.44,0.18
		c3,0.12,6.119,0.48,9.81,1.142c4.86,0.898,5.97,0.988,11.101,0.988c7.439,0,14.459-1.02,23.431-3.42
		c5.79-1.528,11.85-3.93,13.35-5.278c0.302-0.271,0.632-1.41,0.841-3.062c3.061-21.84,13.771-58.438,23.551-80.43
		c0.75-1.71,1.38-3.21,1.38-3.36c0-0.148-0.24-0.27-0.57-0.27c-2.22,0-9.84-2.61-16.05-5.46c-15.061-6.96-51.93-16.8-69.09-18.42
		l-2.19-0.21v58.8H540.3z"/>
	<path id="structure25_label28_Cg1" bar:type="" bar:growlevel="0" fill="#F1F48E" d="M563.76,145.41
		c-11.58,11.61-20.01,25.38-22.619,36.93c-0.631,2.82-0.66,3.57-0.75,24.72l-0.121,21.81l0.99,0.15c0.54,0.06,2.67,0.36,4.74,0.63
		c18.359,2.37,50.52,11.19,65.4,17.91c6.72,3.06,11.789,4.8,15.75,5.46c1.199,0.21,1.199,0.21,2.49-1.62
		c0.719-1.02,2.129-2.43,3.118-3.15c1.74-1.32,4.892-2.55,6.42-2.55c0.99,0,0.9-0.51-0.39-2.1c-3.45-4.29-10.47-14.07-24-33.48
		c-6.061-8.7-7.891-11.52-17.16-26.91c-10.29-17.1-13.5-22.23-20.939-33.45c-4.92-7.41-6.539-9.66-7.021-9.66
		C569.28,140.1,567.15,142.02,563.76,145.41z"/>
	<path id="structure26_label29_M2" bar:type="" bar:growlevel="0" fill="#E2E923" d="M624.9,119.76
		c-19.65,0.812-37.65,6.9-51.961,17.58c-1.471,1.08-2.641,2.16-2.641,2.4c0,0.21,1.53,2.67,3.391,5.398
		c7.201,10.562,13.591,20.7,25.109,39.812c9.21,15.3,10.262,16.92,21,32.25c9.721,13.89,15.12,21.39,18.45,25.59l2.28,2.91h1.438
		c0.78,0,2.19,0.15,3.15,0.33c0.93,0.21,1.771,0.27,1.86,0.18c0.119-0.09-0.302-6.57-0.9-14.37c-2.16-28.47-3.66-52.89-4.68-76.29
		c-0.182-3.81-0.392-13.35-0.51-21.21L640.71,120l-0.93-0.15C638.16,119.61,629.73,119.55,624.9,119.76z"/>
	<path id="structure27_label30_M1" bar:type="" bar:growlevel="0" fill="#FBFF8E" d="M641.189,136.38
		c0.211,19.86,1.021,37.35,3.211,70.02c0.959,13.98,2.55,35.55,2.88,38.43l0.18,1.68l2.25,0.33c5.25,0.84,12.99,4.2,17.61,7.68
		c1.32,1.02,4.68,4.08,7.41,6.84c2.76,2.79,5.22,5.04,5.459,5.04c0.511,0,90.211-105.96,90.211-106.56c0-0.45-0.961-1.08-7.771-4.95
		c-35.279-20.188-72.33-30.99-119.1-34.77l-2.521-0.21L641.189,136.38z"/>
	<path id="structure28_label31_Fr3" bar:type="" bar:growlevel="0" fill="#E5E96B" d="M725.67,213.21
		c-24.66,29.13-44.939,53.22-45.09,53.52c-0.21,0.42,0.21,1.08,2.13,3.18c1.32,1.44,3.42,3.9,4.71,5.4
		c1.26,1.53,2.49,2.79,2.67,2.79c0.21-0.03,1.32-1.11,2.46-2.43c8.761-10.08,78.48-73.65,101.94-92.94c1.26-1.05,2.31-2.1,2.31-2.31
		c0-0.42-5.399-5.46-9.6-8.94c-5.94-4.95-15-11.28-16.11-11.28C770.67,160.2,757.29,175.8,725.67,213.21z"/>
	<path id="structure29_label32_S1J" bar:type="" bar:growlevel="0" fill="#E8E93B" d="M795.18,182.19
		c-21.119,17.91-49.229,42.99-76.38,68.13c-12.96,12-28.08,26.88-28.44,28.02c-0.06,0.21,1.021,1.89,2.432,3.75
		c7.141,9.48,9.3,13.92,10.771,22.11c1.26,7.229,0.448,24.81-1.262,26.52c-0.18,0.182-0.3,0.602-0.3,0.96c0,0.54,0.63,0.9,4.59,2.46
		c9.271,3.722,21.57,8.07,69.96,24.812c36.182,12.51,46.352,16.08,55.32,19.41c3.51,1.29,6.45,2.31,6.54,2.22
		c0.54-0.54,4.29-15.45,6.06-24.18c2.131-10.562,3.24-18.54,3.932-28.5c0.39-5.671,0.39-21.33,0-27.45
		c-1.32-20.58-5.102-40.95-10.801-58.05c-5.279-15.81-15.841-33.75-29.189-49.68c-4.77-5.7-10.62-11.82-11.25-11.79
		C796.859,180.93,795.99,181.5,795.18,182.19z"/>
	<path id="structure2_label1_AOP" bar:type="" bar:growlevel="0" fill="#C4E93B" d="M585.24,455.55c-3,1.11-7.17,4.771-9.54,8.431
		c-2.431,3.721-3.42,7.649-3.42,13.471c0.03,4.229,0.51,6.3,2.159,9.12c2.761,4.71,12.121,11.938,21.149,16.35
		c9.66,4.74,16.71,6.57,28.44,7.41c5.188,0.358,7.078,0.24,12.779-0.812c8.819-1.618,11.459-3.479,11.489-8.13
		c0-1.68-0.09-1.979-0.96-2.938c-1.65-1.891-4.59-3.12-10.439-4.352c-12.601-2.608-15.601-3.869-19.891-8.188
		c-1.979-2.01-8.55-10.05-16.71-20.4c-5.28-6.72-6.659-8.13-9.42-9.51C588.9,455.01,587.13,454.86,585.24,455.55z"/>
	<path id="structure30_label33_DI" bar:type="" bar:growlevel="0" fill="#C4C923" d="M700.74,332.52
		c-0.301,0.211-0.54,0.57-0.54,0.78c0,0.181,0.84,1.29,1.89,2.4c1.021,1.109,2.28,2.819,2.76,3.78c0.78,1.56,0.9,2.1,0.932,4.59
		l0.029,2.85l1.17,0.811c3.149,2.159,21.539,13.409,57.119,34.921c37.41,22.618,54.182,32.85,56.91,34.68
		c2.101,1.47,2.19,1.41,4.68-3.57c2.58-5.069,5.25-11.188,7.352-16.739c1.92-5.039,5.16-14.881,5.16-15.659
		c0-0.932-5.61-2.94-81.602-29.222c-28.83-9.96-46.17-16.199-52.289-18.84c-1.5-0.66-2.819-1.2-2.909-1.2
		C701.311,332.13,701.01,332.311,700.74,332.52z"/>
	<path id="structure31_label34_Cl" bar:type="" bar:growlevel="0" fill="#FFEA59" d="M698.311,334.02
		c-0.989,0.78-6.301,2.342-18.631,5.461c-22.858,5.851-30.99,8.399-37.71,11.851c-10.829,5.55-19.319,15.03-26.909,30.03
		c-2.641,5.188-5.16,10.949-5.16,11.79c0,2.068,2.971,8.1,5.939,12c3.36,4.438,7.2,7.26,10.29,7.59
		c2.64,0.239,5.101-1.771,6.15-4.98c0.6-1.858,0.659-4.05,0.42-15.358c-0.12-6.03-0.091-6.211,0.69-8.552
		c3.6-10.77,15.118-20.1,28.709-23.31c2.069-0.479,4.199-0.63,11.551-0.84c7.289-0.182,9.6-0.33,12.18-0.87
		c7.38-1.47,13.35-4.29,16.8-7.892c2.22-2.31,3.12-4.379,3.12-7.14c0-1.979-0.15-2.55-0.99-4.29c-1.14-2.31-4.38-5.91-5.31-5.91
		C699.12,333.6,698.609,333.811,698.311,334.02z"/>
	<path id="structure3_label2_Nv" bar:type="" bar:growlevel="0" fill="#6B3BD0" d="M558.75,472.47c-3.359,1.05-4.47,1.47-8.58,3.21
		c-3.84,1.62-3.63,1.11-2.49,6.48c1.59,7.65,3.75,14.729,5.67,18.51c2.16,4.32,6.33,9.36,11.67,14.19
		c2.881,2.579,3.392,2.938,4.381,2.938c0.601,0,4.351-0.81,8.341-1.8c3.96-0.99,7.528-1.8,7.92-1.8c0.39,0,2.46,0.33,4.59,0.75
		c14.79,2.85,23.7,4.08,34.8,4.83c8.37,0.54,12.87,0.449,14.58-0.271c1.95-0.81,2.311-3.358,0.69-5.1
		c-2.37-2.55-5.37-3.391-13.591-3.812c-8.489-0.42-13.199-1.108-19.229-2.85c-11.22-3.24-22.858-10.021-30.062-17.49
		c-3.358-3.51-4.379-5.608-5.52-11.398c-0.18-0.841-4.29-5.011-6.24-6.3C563.82,471.33,562.439,471.33,558.75,472.47z"/>
	<path id="structure48_text3039_DTT-3" bar:type="" bar:growlevel="0" fill="#A6DF00" d="M552.75,435.63
		c-3.33,0.57-8.85,1.17-11.04,1.17h-1.41v4.11c0,4.859,0.3,6.24,2.4,11.97c1.38,3.69,1.56,4.53,1.83,7.74
		c0.45,5.85,1.829,15.63,2.22,16.02c0.09,0.12,0.75-0.028,1.439-0.3c3.931-1.47,10.439-4.08,10.561-4.2
		c0.09-0.06-0.061-2.159-0.3-4.62c-0.57-5.908-1.62-26.25-1.65-31.709C556.8,434.85,556.95,434.88,552.75,435.63z"/>
	<path id="structure4_label3_IEn" bar:type="" bar:growlevel="0" fill="#5F23ED" d="M651.9,460.32c0,0.24,0.358,1.229,0.778,2.188
		c0.722,1.62,0.931,1.83,3.48,3.392c3.51,2.13,6.39,4.83,6.81,6.42c1.41,5.31-6.93,14.25-18.63,19.92
		c-4.29,2.1-4.47,2.49-1.319,3.21c4.17,0.898,8.67,3.51,17.819,10.319c2.46,1.829,4.62,3.329,4.771,3.329
		c0.181,0,0.841-0.898,1.471-2.01c1.38-2.399,4.92-6.09,7.5-7.83c1.02-0.66,3.48-2.1,5.46-3.148c8.97-4.771,12.3-8.79,13.11-15.722
		c0.148-1.47,0.119-1.92-0.211-1.979c-2.971-0.812-10.83-3.63-14.399-5.221c-5.729-2.489-14.49-6.931-20.82-10.529
		C652.859,459.9,651.9,459.51,651.9,460.32z"/>
	<path id="structure50_text3041_DTT-2" bar:type="" bar:growlevel="0" fill="#BFFF00" d="M560.1,434.22l-2.85,0.66l-0.09,1.8
		c-0.301,5.37,1.38,34.352,2.04,35.04c0.148,0.15,1.29,0.091,2.67-0.12l2.43-0.42l0.21-1.05c0.301-1.35,0.271-19.319-0.06-29.22
		C564.21,432.33,564.75,433.14,560.1,434.22z"/>
	<path id="structure52_text3037_DTT-1" bar:type="" bar:growlevel="0" fill="#EBFFB2" d="M589.95,423.66
		c-4.351,2.729-13.2,6.3-21.21,8.49l-4.08,1.108l0.12,19.352l0.12,19.35l1.739,1.26c0.931,0.721,2.431,2.04,3.3,2.971
		c0.871,0.961,1.711,1.711,1.891,1.711c0.15,0,0.27-0.841,0.27-1.892c0-2.729,1.021-7.17,2.19-9.63
		c2.43-5.069,7.319-9.72,11.7-11.16c0.869-0.27,1.59-0.54,1.65-0.568c0.18-0.15,4.56-30.24,4.56-31.352
		C592.2,422.46,591.689,422.55,589.95,423.66z"/>
	<path id="structure56_label57_aca" bar:type="" bar:growlevel="0" fill="#DBFFB2" d="M646.29,464.52
		c-3.601,1.17-7.17,4.711-9.51,9.392c-2.13,4.26-4.141,11.938-4.2,15.93c-0.03,2.91,0.51,3.48,3.99,4.142
		c2.278,0.42,2.608,0.42,4.02-0.03c4.65-1.5,12.811-6.75,17.04-10.95c2.34-2.311,3.12-3.33,4.14-5.4
		c1.142-2.278,1.262-2.729,1.17-4.26c-0.148-2.188-1.02-3.33-4.318-5.7c-4.17-3.028-4.979-3.358-8.221-3.45
		C648.6,464.13,647.1,464.25,646.29,464.52z"/>
	<path id="structure57_label58_lo" bar:type="" bar:growlevel="0" fill="#B8FF00" d="M748.141,502.92
		c-4.08,1.47-5.91,2.85-13.591,10.38c-3.12,3.062-9,8.4-13.05,11.852c-19.98,17.038-23.4,20.038-23.4,20.43
		c0,0.72,0.932,0.479,5.4-1.44c14.55-6.238,35.52-18.51,47.16-27.568c4.8-3.721,10.439-8.91,10.439-9.57
		c0-0.75-2.609-2.85-4.801-3.84C753.9,502.05,750.811,501.93,748.141,502.92z"/>
	<path id="structure58_label59_fmi" bar:type="" bar:growlevel="0" fill="#9FFF59" d="M643.68,246.93c-2.16,0.33-4.5,1.352-6,2.67
		c-1.619,1.44-3.09,3.75-5.64,8.85c-9.09,18.18-20.37,49.86-26.61,74.729c-3.119,12.511-4.41,19.98-6.18,36.271
		c-2.22,20.489-3.359,29.55-7.65,59.7c-0.99,6.93-1.8,12.84-1.8,13.14c0,0.271,0.21,0.51,0.45,0.51s0.45-0.21,0.45-0.479
		c0-0.841,3.75-11.82,6.3-18.42c3.84-9.99,14.189-34.74,16.65-39.812c6.148-12.75,12.358-21.27,19.949-27.359
		c8.521-6.869,15.659-9.569,45.149-17.101c7.108-1.8,14.04-3.66,15.45-4.08c5.1-1.62,7.77-3.569,8.55-6.27
		c1.26-4.562,1.649-19.92,0.63-25.53c-1.5-8.16-4.08-13.23-11.88-23.25c-7.858-10.08-20.938-23.88-25.62-26.97
		c-4.92-3.24-11.04-5.73-16.08-6.48C646.68,246.57,646.26,246.54,643.68,246.93z"/>
	<path id="structure5_label4_DEn" bar:type="" bar:growlevel="0" fill="#E0E959" d="M611.1,420.39c0,0.54,0.48,1.171,4.892,6.3
		c3.028,3.57,4.739,5.222,7.29,7.23c1.828,1.41,5.398,4.29,7.949,6.42c2.551,2.101,5.91,4.86,7.471,6.12
		c2.76,2.19,8.04,7.41,10.8,10.65c1.108,1.29,2.37,2.159,6.899,4.738c7.021,3.99,17.16,9.15,22.801,11.552
		c4.199,1.8,12.72,4.8,13.648,4.8c0.36,0,0.392-0.3,0.271-1.44c-1.11-9.33-5.432-18.96-11.07-24.54c-2.939-2.909-6.21-4.47-16.5-7.8
		c-15.568-5.01-21.779-7.98-31.89-15.24c-2.642-1.89-5.642-3.93-6.69-4.5c-2.22-1.199-7.38-3.21-10.529-4.08
		C613.92,419.91,611.1,419.79,611.1,420.39z"/>
	<path id="structure69_label70_AcbC" bar:type="" bar:growlevel="0" fill="#FFF359" d="M637.53,447.42
		c-0.181,0.21-0.75,2.28-1.23,4.561c-1.89,8.881-3.18,12.539-6.72,19.471c-2.79,5.43-3.33,7.229-3.12,10.5
		c0.12,1.59,0.39,2.609,1.11,4.109c1.02,2.069,3.688,5.341,4.35,5.341c0.27,0,0.45-0.78,0.57-2.49c0.33-4.62,2.85-12.9,5.04-16.59
		c1.5-2.552,4.77-5.882,6.78-6.96c2.25-1.171,4.648-1.65,6.959-1.381c1.141,0.119,1.83,0.091,1.83-0.091
		c0-0.18-0.479-1.38-1.08-2.67c-1.17-2.52-2.609-4.318-7.471-9.39C640.17,447.3,638.52,446.25,637.53,447.42z"/>
	<path id="structure6_text3057_Pir-1" bar:type="" bar:growlevel="0" fill="#C6D400" d="M725.25,449.189
		c-1.38,0.779-2.58,2.311-5.1,6.421c-1.562,2.55-1.801,3.12-1.771,4.38c0,0.93,0.21,1.71,0.63,2.25c1.2,1.62,2.19,2.01,7.351,2.88
		l4.921,0.84l1.95-0.6c2.729-0.841,6.3-1.32,7.979-1.08c1.74,0.239,9.148,3.09,11.67,4.47c4.979,2.79,7.44,5.49,10.32,11.4
		c2.13,4.318,3,6.869,3,8.67c0,1.77-1.44,3.93-3.301,4.92c-1.979,1.02-3.479,0.75-8.399-1.59c-4.83-2.28-6.87-2.972-10.351-3.602
		c-3.211-0.54-5.579-0.568-8.609-0.029c-4.38,0.779-7.439,2.881-9.84,6.659c-1.44,2.25-1.98,3.45-3.66,8.07
		c-3.21,8.79-6.66,13.05-13.29,16.35c-4.74,2.4-8.04,2.82-12.391,1.62c-1.171-0.33-1.949-0.81-3.061-1.92
		c-1.62-1.62-2.31-1.83-3.09-0.96c-0.72,0.78-0.66,1.08,0.54,2.642c0.57,0.75,1.05,1.618,1.05,1.92c0,0.33-0.479,0.93-1.05,1.38
		c-0.57,0.42-1.05,0.93-1.02,1.14c0,0.18,1.56,1.35,3.448,2.58c4.261,2.76,8.19,6.18,10.17,8.79c0.841,1.08,1.62,1.979,1.771,2.01
		c0.3,0,0.239,0.062,13.86-11.58c5.608-4.8,12.898-11.37,16.229-14.58c6.148-6,8.311-7.739,11.609-9.27
		c4.74-2.22,8.939-1.59,12.99,1.979c0.84,0.75,1.68,1.352,1.83,1.352c0.51,0,5.76-6.15,8.311-9.69
		c2.939-4.14,5.189-8.16,6.988-12.57c1.17-2.85,1.41-3.778,1.5-5.818c0.15-3.3-0.539-4.92-3.148-7.29
		c-2.07-1.92-4.561-3.15-23.641-11.642c-5.67-2.55-9.75-4.59-12.601-6.328c-6.33-3.842-8.58-4.86-10.771-4.86
		C726.93,448.5,726.12,448.68,725.25,449.189z"/>
	<path id="structure70_label71_E-OV" bar:type="" bar:growlevel="0" fill="#FFB2D0" d="M604.08,428.01
		c-3.391,6.63-4.38,8.852-4.38,9.75c0,1.892,0.96,1.562,4.11-1.29c4.979-4.59,7.02-5.97,8.879-5.97c1.051,0,4.771,1.14,5.819,1.8
		c0.69,0.45,1.591,0.21,1.591-0.36c0-0.209-1.859-2.578-4.141-5.25c-2.25-2.67-4.561-5.398-5.102-6.06
		C609,418.32,609.03,418.29,604.08,428.01z"/>
	<path fill="#D800C4" d="M540.021,459.287l-0.008,9.312c0.747-0.002,1.667-0.211,2.025-0.479c0.99-0.69,1.859-2.61,1.859-4.08
		C543.879,461.183,542.031,459.254,540.021,459.287z"/>
	<path fill="#FF23E9" d="M541.59,392.58c-0.502-0.502-1.004-0.747-1.513-0.74l-0.006,7.112c0.415-0.033,0.846-0.26,1.368-0.702
		C543,396.93,543.09,394.05,541.59,392.58z"/>
	<path id="structure76_label77_cg" bar:type="" bar:growlevel="0" fill="#3FFF00" d="M637.59,246.15
		c-5.46,1.2-8.01,4.14-12.09,13.95c-7.859,18.78-15.78,44.61-19.8,64.5c-1.74,8.61-2.07,11.102-1.47,11.102
		c0.3,0,0.75-1.261,1.438-3.99c5.939-23.31,17.101-54.57,25.681-72.06c3.029-6.18,4.351-8.25,6.42-10.11
		c1.5-1.35,4.17-2.64,5.431-2.64c0.72,0,0.81-0.75,0.12-1.02C642.54,245.58,639.57,245.73,637.59,246.15z"/>
	<path id="structure78_label82_lofr" bar:type="" bar:growlevel="0" fill="#E58ED9" d="M552.96,505.26
		c-0.84,0.84-0.09,2.642,1.11,2.642c0.688,0,1.529-0.932,1.529-1.682c0-0.81-0.569-1.318-1.5-1.318
		C553.68,504.9,553.17,505.05,552.96,505.26z"/>
	<path id="structure7_text3059_Pir-2" bar:type="" bar:growlevel="0" fill="#F3FF59" d="M736.05,464.73
		c-2.88,0.688-3.45,0.898-3.45,1.26c0,0.21,0.932,0.72,2.041,1.17s3.869,1.56,6.119,2.49c2.4,0.988,5.312,1.92,6.99,2.25
		c5.28,1.08,7.891,2.58,9.96,5.76c1.74,2.7,2.37,4.529,1.92,5.52c-0.96,2.16-4.92,2.102-14.069-0.18
		c-4.711-1.17-6.631-1.5-8.461-1.5c-2.88,0-13.289,1.86-15.358,2.76c-1.95,0.84-3.57,2.73-5.94,6.87
		c-5.43,9.602-10.05,14.91-15.119,17.4c-2.699,1.318-5.341,1.95-9.811,2.34c-3.54,0.3-4.29,0.63-5.432,2.37
		c-1.289,1.92-1.528,3.12-1.289,6.479l0.209,3.03l2.041,1.11c1.141,0.63,2.369,1.14,2.699,1.14c0.84,0,2.7-1.438,2.7-2.1
		c0-0.271-0.479-1.11-1.05-1.83c-1.141-1.472-1.29-2.102-0.57-2.79c0.78-0.78,1.59-0.54,3.211,0.96c1.891,1.8,2.879,2.16,6.359,2.37
		c4.141,0.27,7.891-0.932,12.12-3.78c4.649-3.15,7.38-7.17,10.229-15.03c1.739-4.77,3.359-7.738,5.399-9.988
		c3.062-3.33,6.601-4.711,12.21-4.711c5.01,0,8.432,0.931,14.7,3.961c3.72,1.828,3.93,1.89,6.18,1.89h2.341l1.471-1.53
		c1.77-1.859,2.068-3,1.41-5.64c-0.57-2.312-2.552-6.78-4.381-9.9c-2.789-4.739-6.119-7.229-14.101-10.5
		c-4.17-1.71-4.53-1.8-7.229-1.859C738.54,464.46,736.71,464.55,736.05,464.73z"/>
	<path id="structure80_Unlabeled-2160-1660_Unlabeled" bar:type="" bar:growlevel="0" fill="#FFB2BA" d="M646.8,497.43
		c0,0.182,0.33,0.722,0.75,1.23c0.63,0.75,0.75,1.2,0.75,2.729c-0.03,4.65-2.67,6.54-11.489,8.131
		c-4.471,0.841-4.83,1.291-1.649,2.041c2.25,0.568,4.47,1.828,5.46,3.148c0.33,0.45,0.63,1.41,0.72,2.22l0.12,1.41l2.16-0.149
		c2.189-0.149,7.529,0.149,18.12,1.021c4.47,0.36,6.06,0.601,6.06,0.899c0,0.271,0.54,0.33,2.341,0.181
		c1.561-0.12,2.761-0.03,3.511,0.21c1.648,0.54,6.448,0.689,6.448,0.18c0-0.21-3.18-2.79-7.05-5.699s-7.05-5.431-7.05-5.579
		c0-0.182-0.15-0.302-0.33-0.302s-2.37-1.5-4.83-3.33C651.72,498.99,646.8,496.08,646.8,497.43z"/>
	<path id="structure8_label5_Pir-3" bar:type="" bar:growlevel="0" fill="#D8E900" d="M682.5,452.13c0,0.181,0.6,1.021,1.32,1.86
		c5.07,6,9.479,17.49,9.479,24.72c0,7.47-4.35,13.08-13.8,17.79c-5.55,2.79-9.271,5.91-11.97,10.02
		c-0.842,1.291-1.53,2.552-1.53,2.762c0,0.39,12.899,10.29,15.78,12.12c2.22,1.409,2.34,1.318,2.13-1.591
		c-0.24-2.971,0.21-4.859,1.59-6.75c1.26-1.739,2.13-2.101,6.09-2.431c4.23-0.36,6.57-0.93,9.511-2.34
		c4.381-2.101,9.961-8.67,14.699-17.31c1.92-3.48,3.99-5.882,5.852-6.78c1.47-0.72,11.068-2.641,14.55-2.91
		c2.04-0.15,2.85-0.03,8.399,1.38c6.601,1.62,10.801,2.25,12.811,1.86c1.77-0.33,2.189-0.78,2.189-2.25
		c0-1.5-1.859-5.011-3.511-6.66c-1.5-1.5-4.319-2.76-7.8-3.45c-1.859-0.39-4.71-1.32-7.74-2.55c-7.738-3.181-8.158-3.33-13.199-4.17
		c-5.16-0.87-7.561-1.74-8.221-2.94c-0.33-0.63-0.81-0.779-3.568-1.229c-9.121-1.471-19.83-4.471-28.98-8.16
		C683.13,451.74,682.5,451.59,682.5,452.13z"/>
	<path id="structure9_label8_VO" bar:type="" bar:growlevel="0" fill="#F9FF6B" d="M638.1,375.36c-1.89,2.37-3.449,5.188-4.41,7.89
		l-0.84,2.4l0.09,9.568c0.092,11.79-0.118,13.262-2.459,15.721c-2.011,2.159-4.291,2.461-7.291,0.961
		c-4.47-2.222-10.289-9.512-12.448-15.512c-0.45-1.229-0.841-1.89-1.142-1.89c-0.869,0-12.869,29.55-16.648,40.95
		c-2.07,6.21-4.38,14.818-4.8,17.85l-0.182,1.352l1.891,0.84c1.051,0.449,1.979,0.81,2.131,0.81c0.119,0,0.21-0.87,0.21-1.95
		c0-5.01,2.189-10.648,5.34-13.89c1.38-1.38,1.8-2.04,1.95-2.94c0.18-1.26,8.369-17.43,9.149-18.028
		c0.391-0.302,0.601-0.302,1.17,0.09c0.511,0.33,1.08,0.39,2.011,0.27c1.68-0.27,4.92,0.57,10.319,2.61
		c3.3,1.26,4.771,2.01,7.681,4.021c12.659,8.67,14.159,9.568,21.028,12.568c2.16,0.96,8.28,3.182,13.65,4.95
		c7.68,2.521,10.65,3.66,13.95,5.34c9.899,4.98,23.22,9.36,34.92,11.46c4.92,0.87,4.739,0.9,4.89-0.988
		c0.12-1.172,0.45-2.041,1.381-3.512c0.689-1.08,1.261-2.22,1.261-2.55c0-0.479-0.75-0.9-4.142-2.22
		c-26.31-10.32-47.43-26.432-60.84-46.38c-5.76-8.552-9.63-16.171-13.92-27.24c-1.2-3.09-1.74-4.11-2.13-4.11
		C639.6,373.8,638.79,374.52,638.1,375.36z"/>
	
		<text id="Unlabeled-1791-1327" bar:growlevel="0" transform="matrix(1 0 0 1 540.0039 389.2793)" fill="#232323" enable-background="new    " font-family="'TimesNewRomanPSMT'" font-size="9">vBrain</text>
	
		<text id="text3059" bar:growlevel="0" transform="matrix(1 0 0 1 722.6123 490.8281)" fill="#232323" enable-background="new    " font-family="'TimesNewRomanPSMT'" font-size="9">Pir-2</text>
	
		<text id="text3053" bar:growlevel="0" transform="matrix(1 0 0 1 649.3574 546.8145)" fill="#232323" enable-background="new    " font-family="'TimesNewRomanPSMT'" font-size="9">Tu-1</text>
	
		<text id="text3057" bar:growlevel="0" transform="matrix(1 0 0 1 724.748 505.7734)" fill="#232323" enable-background="new    " font-family="'TimesNewRomanPSMT'" font-size="9">Pir-1</text>
	
		<text id="text3055" bar:growlevel="0" transform="matrix(1 0 0 1 645.5449 539.1895)" fill="#232323" enable-background="new    " font-family="'TimesNewRomanPSMT'" font-size="9">Tu-2</text>
	
		<text id="label30" bar:growlevel="0" transform="matrix(1 0 0 1 677.3389 195.2793)" fill="#232323" enable-background="new    " font-family="'TimesNewRomanPSMT'" font-size="9">M1</text>
	
		<text id="label31" bar:growlevel="0" transform="matrix(1 0 0 1 726.9082 225.2939)" fill="#232323" enable-background="new    " font-family="'TimesNewRomanPSMT'" font-size="9">Fr3</text>
	
		<text id="label32" bar:growlevel="0" transform="matrix(1 0 0 1 768.0449 295.417)" fill="#232323" enable-background="new    " font-family="'TimesNewRomanPSMT'" font-size="9">S1J</text>
	
		<text id="label19" bar:growlevel="0" transform="matrix(1 0 0 1 666.2861 537.9688)" fill="#232323" enable-background="new    " font-family="'TimesNewRomanPSMT'" font-size="9">Tu-3</text>
	
		<text id="label34" bar:growlevel="0" transform="matrix(1 0 0 1 651.5742 357.7578)" fill="#232323" enable-background="new    " font-family="'TimesNewRomanPSMT'" font-size="9">Cl</text>
	
		<text id="label12" bar:growlevel="0" transform="matrix(1 0 0 1 668.6016 528.4053)" fill="#232323" enable-background="new    " font-family="'TimesNewRomanPSMT'" font-size="9">VP</text>
	
		<text id="label13" bar:growlevel="0" transform="matrix(1 0 0 1 648.3975 526.7646)" fill="#232323" enable-background="new    " font-family="'TimesNewRomanPSMT'" font-size="9">VP</text>
	
		<text id="label10" bar:growlevel="0" transform="matrix(1 0 0 1 732.499 418.8682)" fill="#232323" enable-background="new    " font-family="'TimesNewRomanPSMT'" font-size="9">AIV</text>
	
		<text id="label11" bar:growlevel="0" transform="matrix(1 0 0 1 754.5127 400.8154)" fill="#232323" enable-background="new    " font-family="'TimesNewRomanPSMT'" font-size="9">AID</text>
	
		<text id="label14" bar:growlevel="0" transform="matrix(1 0 0 1 618.4424 526.5352)" fill="#232323" enable-background="new    " font-family="'TimesNewRomanPSMT'" font-size="9">VP</text>
	
		<text id="label59" bar:growlevel="0" transform="matrix(1 0 0 1 646.8535 305.168)" fill="#232323" enable-background="new    " font-family="'TimesNewRomanPSMT'" font-size="9">fmi</text>
	
		<text id="Unlabeled-1799-1492" bar:growlevel="0" transform="matrix(1 0 0 1 539.2207 456.9248)" fill="#232323" enable-background="new    " font-family="'TimesNewRomanPSMT'" font-size="9">vBrain</text>
	
		<text id="label77" bar:growlevel="0" transform="matrix(1 0 0 1 628.1699 261.041)" fill="#232323" enable-background="new    " font-family="'TimesNewRomanPSMT'" font-size="9">cg</text>
	
		<text id="label70" bar:growlevel="0" transform="matrix(1 0 0 1 640.3525 462.2461)" fill="#232323" enable-background="new    " font-family="'TimesNewRomanPSMT'" font-size="9">AcbC</text>
	
		<text id="label71" bar:growlevel="0" transform="matrix(1 0 0 1 609.0176 427.7598)" fill="#232323" enable-background="new    " font-family="'TimesNewRomanPSMT'" font-size="9">E-OV</text>
	
		<text id="label72" bar:growlevel="0" transform="matrix(1 0 0 1 540.7695 464.4883)" fill="#232323" enable-background="new    " font-family="'TimesNewRomanPSMT'" font-size="9">azac</text>
	
		<text id="label73" bar:growlevel="0" transform="matrix(1 0 0 1 540.0293 396.2217)" fill="#232323" enable-background="new    " font-family="'TimesNewRomanPSMT'" font-size="9">azp</text>
	
		<text id="label58" bar:growlevel="0" transform="matrix(1 0 0 1 743.4512 513.7754)" fill="#232323" enable-background="new    " font-family="'TimesNewRomanPSMT'" font-size="9">lo</text>
	
		<text id="text3041" bar:growlevel="0" transform="matrix(1 0 0 1 559.7686 446.2988)" fill="#232323" enable-background="new    " font-family="'TimesNewRomanPSMT'" font-size="9">DTT-2</text>
	
		<text id="Unlabeled-2160-1660" bar:growlevel="0" transform="matrix(1 0 0 1 653.4004 510.2998)" fill="#232323" enable-background="new    " font-family="'TimesNewRomanPSMT'" font-size="9">AOP</text>
	
		<text id="text3027" bar:growlevel="0" transform="matrix(1 0 0 1 540.4619 404.3779)" fill="#232323" enable-background="new    " font-family="'TimesNewRomanPSMT'" font-size="9">vBrain</text>
	
		<text id="label8" bar:growlevel="0" transform="matrix(1 0 0 1 637.3516 412.4375)" fill="#232323" enable-background="new    " font-family="'TimesNewRomanPSMT'" font-size="9">VO</text>
	
		<text id="label9" bar:growlevel="0" transform="matrix(1 0 0 1 685.1104 408.2461)" fill="#232323" enable-background="new    " font-family="'TimesNewRomanPSMT'" font-size="9">LO</text>
	
		<text id="label82" bar:growlevel="0" transform="matrix(1 0 0 1 554.1074 506.4141)" fill="#232323" enable-background="new    " font-family="'TimesNewRomanPSMT'" font-size="9">lofr</text>
	
		<text id="label0" bar:growlevel="0" transform="matrix(1 0 0 1 604.4258 458.0654)" fill="#232323" enable-background="new    " font-family="'TimesNewRomanPSMT'" font-size="9">AcbSh</text>
	
		<text id="label1" bar:growlevel="0" transform="matrix(1 0 0 1 589.8936 490.8008)" fill="#232323" enable-background="new    " font-family="'TimesNewRomanPSMT'" font-size="9">AOP</text>
	
		<text id="label2" bar:growlevel="0" transform="matrix(1 0 0 1 569.1201 505.7734)" fill="#232323" enable-background="new    " font-family="'TimesNewRomanPSMT'" font-size="9">Nv</text>
	
		<text id="label3" bar:growlevel="0" transform="matrix(1 0 0 1 665.5566 488.3604)" fill="#232323" enable-background="new    " font-family="'TimesNewRomanPSMT'" font-size="9">IEn</text>
	
		<text id="label4" bar:growlevel="0" transform="matrix(1 0 0 1 662.3867 460.1553)" fill="#232323" enable-background="new    " font-family="'TimesNewRomanPSMT'" font-size="9">DEn</text>
	
		<text id="label5" bar:growlevel="0" transform="matrix(1 0 0 1 708.582 480.3047)" fill="#232323" enable-background="new    " font-family="'TimesNewRomanPSMT'" font-size="9">Pir-3</text>
	
		<text id="label27" bar:growlevel="0" transform="matrix(1 0 0 1 565.9297 296.1064)" fill="#232323" enable-background="new    " font-family="'TimesNewRomanPSMT'" font-size="9">PrL</text>
	
		<text id="label26" bar:growlevel="0" transform="matrix(1 0 0 1 561.5586 373.7705)" fill="#232323" enable-background="new    " font-family="'TimesNewRomanPSMT'" font-size="9">IL</text>
	
		<text id="label25" bar:growlevel="0" transform="matrix(1 0 0 1 555.4775 418.3486)" fill="#232323" enable-background="new    " font-family="'TimesNewRomanPSMT'" font-size="9">DP</text>
	
		<text id="label29" bar:growlevel="0" transform="matrix(1 0 0 1 616.7383 182.7363)" fill="#232323" enable-background="new    " font-family="'TimesNewRomanPSMT'" font-size="9">M2</text>
	
		<text id="label28" bar:growlevel="0" transform="matrix(1 0 0 1 576.2617 211.3516)" fill="#232323" enable-background="new    " font-family="'TimesNewRomanPSMT'" font-size="9">Cg1</text>
	
		<text id="label57" bar:growlevel="0" transform="matrix(1 0 0 1 641.3633 480.3389)" fill="#232323" enable-background="new    " font-family="'TimesNewRomanPSMT'" font-size="9">aca</text>
	
		<text id="label33" bar:growlevel="0" transform="matrix(1 0 0 1 770.6758 377.0811)" fill="#232323" enable-background="new    " font-family="'TimesNewRomanPSMT'" font-size="9">DI</text>
	
		<text id="text3039" bar:growlevel="0" transform="matrix(1 0 0 1 542.4063 441.877)" fill="#232323" enable-background="new    " font-family="'TimesNewRomanPSMT'" font-size="9">DTT-3</text>
	
		<text id="text3037" bar:growlevel="0" transform="matrix(1 0 0 1 570.0137 454.0635)" fill="#232323" enable-background="new    " font-family="'TimesNewRomanPSMT'" font-size="9">DTT-1</text>
</g>
</svg>
