<?xml version="1.0" encoding="utf-8"?>
<!-- Generator: Adobe Illustrator 16.0.0, SVG Export Plug-In . SVG Version: 6.00 Build 0)  -->
<!DOCTYPE svg PUBLIC "-//W3C//DTD SVG 1.1//EN" "http://www.w3.org/Graphics/SVG/1.1/DTD/svg11.dtd">
<svg version="1.1"
	 id="body" xmlns:bar="http://www.3dbar.org" xmlns:cc="http://creativecommons.org/ns#" xmlns:dc="http://purl.org/dc/elements/1.1/" xmlns:inkscape="http://www.inkscape.org/namespaces/inkscape" xmlns:rdf="http://www.w3.org/1999/02/22-rdf-syntax-ns#" xmlns:sodipodi="http://sodipodi.sourceforge.net/DTD/sodipodi-0.dtd" xmlns:svg="http://www.w3.org/2000/svg" inkscape:version="0.47pre4 r22446" sodipodi:docname="133_pretrace_pretrace_v1.svg"
	 xmlns="http://www.w3.org/2000/svg" xmlns:xlink="http://www.w3.org/1999/xlink" x="0px" y="0px" width="1008px" height="1008px"
	 viewBox="0 0 1008 1008" enable-background="new 0 0 1008 1008" xml:space="preserve">
<sodipodi:namedview  bordercolor="#666666" borderopacity="1" gridtolerance="10" guidetolerance="10" id="namedview383" inkscape:cx="802.05439" inkscape:cy="512.02947" inkscape:zoom="3.0419775" objecttolerance="10" pagecolor="#ffffff" showgrid="false" inkscape:window-height="1128" inkscape:window-maximized="1" inkscape:window-x="1680" inkscape:object-paths="true" inkscape:window-width="1918" inkscape:pageopacity="0" inkscape:current-layer="content" inkscape:pageshadow="2" inkscape:window-y="24">
	</sodipodi:namedview>
<title  id="title3">SVG drawing</title>
<desc  id="desc5">This was produced by version 4.2 of GNU libplot, a free library for exporting 2-D vector graphics.</desc>
<defs>
	
	<rdf:RDF>
		<cc:Work  rdf:about="">
			<dc:format>image/svg+xml</dc:format>
			<dc:type  rdf:resource="http://purl.org/dc/dcmitype/StillImage"></dc:type>
		</cc:Work>
	</rdf:RDF>
	<bar:data  name="coronalcoord" content="-6.84"></bar:data>
	
		<bar:data  name="rendererConf" content="{&apos;ReferenceHeight&apos;: 900, &apos;ReferenceWidth&apos;: 1200, &apos;imageSize&apos;: (1200, 900)}">
		</bar:data>
	
		<bar:data  name="tracingConf" content="{&apos;DumpEachStepSVG&apos;: False, &apos;DumpEachStepPNG&apos;: False, &apos;GrowDefaultBoundaryColor&apos;: 200, &apos;CacheLevel&apos;: 5, &apos;NewPathIdTemplate&apos;: &apos;structure%d_%s_%s&apos;, &apos;PoTraceConf&apos;: {&apos;potrace_accuracy_parameter&apos;: &apos;0.001&apos;, &apos;potrace_width_string&apos;: &apos;1200pt&apos;, &apos;potrace_svg_resolution_string&apos;: &apos;300x300&apos;, &apos;potrace_height_string&apos;: &apos;900pt&apos;}, &apos;DetectUnlabelled&apos;: True, &apos;DumpVBrain&apos;: False, &apos;DumpWrongSeed&apos;: True, &apos;DumpDirectory&apos;: &apos;.&apos;, &apos;MinFiterTimesApplication&apos;: 3, &apos;RegionAlreadyTraced&apos;: 100, &apos;UnlabelledTreshold&apos;: 500}">
		</bar:data>
	<bar:data  name="transformationmatrix" content="0.0176211454,-9.5150660793,0.0176211454,-1.5355884426"></bar:data>
</defs>
<g id="content">
	<path fill="#FF000C" d="M980.55,362.7c-2.1-26.67-7.17-49.17-14.28-63.36c-5.487-10.95-17.55-28.71-29.938-44.16
		c-29.01-36.12-62.28-66.75-91.23-84c-41.55-24.78-89.97-42.78-138.897-51.63c-15.813-2.85-31.95-4.95-48.45-6.33
		c-8.88-0.75-27.54-0.78-33.96-0.03c-15.99,1.83-31.35,6.51-41.61,12.66c-10.857,6.51-18.81,15.12-23.88,25.74
		c-3.75,7.89-5.1,14.28-5.1,24.3c0,17.4,5.04,35.85,13.05,47.94c4.95,7.44,12.811,14.34,20.34,17.82c2.521,1.17,3.3,1.95,1.95,1.95
		c-0.39,0-2.28-0.15-4.229-0.3c-4.229-0.36-9.149,0-12.659,0.9c-4.83,1.26-9.78,4.14-16.263,9.51
		c-7.35,6.06-11.55,11.73-13.35,17.97c-0.66,2.31-0.69,2.7-0.69,15.57c0,14.46,0.212,16.83,1.83,20.67
		c1.32,3.09,1.353,2.97-1.05,3.54c-1.007,0.241-1.568,0.36-2.13,0.36v365.018c1.229,0.042,1.766-0.242,2.73-1.208
		c1.02-0.99,1.17-1.35,1.17-2.46c-0.03-0.72-0.21-1.65-0.45-2.07c-0.66-1.17-0.54-1.5,0.479-1.5c0.513,0,5.342,0.78,10.74,1.71
		c8.97,1.563,10.14,1.71,14.28,1.683c13.95,0,32.64-4.683,43.74-10.92c14.067-7.92,23.188-18.24,27.447-31.08
		c2.61-7.771,2.313-12.75-0.869-14.973c-1.438-0.987-2.158-2.22-1.891-3.27c0.15-0.66,1.8-2.4,3.3-3.45
		c0.96-0.72,2.19-2.729,5.67-9.3c6.603-12.54,12.96-23.04,18.45-30.6c3.51-4.86,5.94-7.86,13.11-16.23
		c10.83-12.688,22.979-27.63,23.85-29.37c0.722-1.38,0.69-3.78-0.09-5.88c-0.84-2.22-0.66-4.08,0.75-8.37
		c1.26-3.81,21.39-44.46,25.979-52.5c3.75-6.479,4.079-7.229,5.398-11.22c2.97-9.061,4.29-20.61,4.29-37.83
		c0-12.78-0.66-18.84-2.67-24.84c-1.53-4.56-2.76-6.15-13.05-16.71c-3.722-3.81-7.08-7.5-7.5-8.25c-2.01-3.63-5.46-12.9-7.32-19.68
		c-0.75-2.73-0.78-3.15-0.51-5.22c0.21-1.53,0.24-3.03,0.03-4.65c-0.36-2.82-2.16-8.46-3.69-11.49c-1.17-2.31-1.32-3.06-0.66-3.06
		c0.21,0,3.54,4.14,7.41,9.21c11.04,14.61,11.19,14.76,14.07,18.09c1.528,1.74,6.3,6.84,10.62,11.37
		c19.47,20.4,21.09,22.2,22.35,24.78c3.24,6.69,3.21,17.07-0.12,40.5c-2.1,14.762-3.72,22.2-8.13,37.71
		c-4.021,14.16-5.82,17.82-18.09,36.78c-4.38,6.78-6.33,10.5-7.8,14.91c-1.65,5.01-2.25,8.67-2.25,14.1
		c-0.03,5.25,0.357,7.65,1.948,12.603c1.619,5.067,1.682,5.55,2.222,13.08c0.54,7.828,1.29,12.81,2.729,17.817
		c3.301,11.46,9.12,19.74,17.221,24.57c7.711,4.59,10.92,7.649,15.812,14.938c1.38,2.103,3.03,4.2,3.63,4.683
		c4.65,3.66,11.25,5.79,21.96,7.108c7.86,0.989,27.54,0.869,35.7-0.181c16.95-2.188,48.27-15.78,73.62-31.92
		c12.479-7.92,21.358-14.79,29.397-22.649c15.45-15.148,25.08-31.858,30.303-52.711c1.68-6.81,2.578-11.938,2.789-16.289
		c0.301-6.211-0.479-8.671-4.739-15c-4.32-6.391-4.682-9.631-1.472-13.021c1.409-1.5,2.279-2.07,7.021-4.71
		c4.229-2.34,7.83-6.3,10.35-11.28c2.04-4.08,7.5-18.96,8.883-24.239C981.45,411.84,982.41,386.79,980.55,362.7z"/>
	<path id="structure2_label142_vBrain" bar:growlevel="0" bar:type="" fill="#FF000C" d="M705.75,570.18
		c-9.9,0.78-21.54,4.38-29.82,9.21c-8.55,4.98-16.26,12.42-16.229,15.63c0,0.36,1.02,2.19,2.28,4.08
		c2.97,4.563,4.647,8.07,7.617,16.053c2.553,6.869,4.74,11.88,5.643,12.84c0.72,0.81,2.49,1.647,3.87,1.89
		c2.908,0.45,5.817-1.08,15.54-8.25c8.22-6.06,11.367-8.01,19.5-12.028c5.1-2.552,8.58-4.472,10.05-5.58
		c2.938-2.25,3.897-2.819,4.71-2.819c0.33,0,1.62,0.81,2.85,1.83c2.4,1.979,7.11,4.438,10.021,5.25c1.77,0.479,1.92,0.479,3-0.063
		c0.81-0.39,1.38-0.987,1.857-1.92c0.603-1.198,0.69-1.71,0.603-4.35c-0.09-2.49-0.21-3.271-0.9-4.71
		c-1.47-3.15-4.14-5.49-8.938-7.891c-1.563-0.812-3.45-1.83-4.2-2.342c-0.75-0.479-4.38-3.96-8.103-7.71
		c-6.21-6.27-6.93-6.897-9.09-7.95c-2.22-1.107-2.49-1.17-5.55-1.229C708.69,570.09,706.59,570.12,705.75,570.18z"/>
	<path fill="#0020E9" d="M547.23,611.4c-0.78-2.91-2.133-6.183-3.513-8.46c-1.624-2.684-2.682-3.883-3.72-3.843v33.564
		c2.751,0.02,5.379-0.011,6.18-0.114c1.473-0.18,1.563-0.24,1.74-1.14C548.7,627.09,548.31,615.42,547.23,611.4z"/>
	<path fill="#3F3BE9" d="M699.99,382.59c-0.48,0.09-1.98,0.39-3.393,0.66c-5.22,1.02-11.97-0.45-17.58-3.81
		c-5.729-3.42-9.117-6.81-24.237-24.09c-18.723-21.42-25.74-28.47-35.13-35.25c-6.303-4.53-18.9-11.28-24.603-13.17
		c-4.438-1.47-7.229-1.92-11.188-1.77c-4.44,0.18-5.49,0.51-14.04,4.77l-6.631,3.27l-7.472-0.18c-6.42-0.18-7.62-0.27-8.58-0.75
		c-1.35-0.69-5.067-0.78-6.237-0.18c-0.359,0.188-0.616,0.257-0.9,0.236v32.606c1.577,0,3.152-0.128,6.06-0.383
		c3.36-0.27,9.603-0.6,13.922-0.66c12.061-0.24,15.238,0.3,22.471,3.78c10.14,4.89,17.489,10.71,20.34,16.14
		c1.47,2.79,3.06,7.68,3.66,11.16c0.87,4.92,0.39,23.73-0.78,31.08c-0.45,2.76-1.17,4.59-2.49,6.42
		c-1.229,1.683-1.92,3.24-3.027,7.021c-0.57,1.89-1.23,3.3-2.4,5.04c-0.9,1.317-1.65,2.52-1.65,2.67c0,0.39,1.052,0.357,5.882,0
		c16.561-1.29,27.028-3.84,44.971-11.01c19.199-7.65,34.59-16.29,45.21-25.353C700.65,383.55,701.94,382.2,699.99,382.59z"/>
	<path id="structure123_label120_fmj" bar:growlevel="0" bar:type="" fill="#D2FFB2" d="M643.89,192.51
		c-0.237,0.09-0.39,0.69-0.39,1.53c0,1.23,0.12,1.5,1.29,2.58c0.72,0.69,2.91,2.1,4.89,3.15c4.11,2.19,5.7,3.27,11.763,8.07
		c10.02,7.86,18.75,15.42,25.647,22.23c4.2,4.14,6.21,6.48,12.21,14.13c12.932,16.53,14.04,17.73,19.98,21.48
		c5.159,3.24,11.1,5.76,18.12,7.65c2.157,0.6,3.3,0.69,7.5,0.72c6,0,7.38-0.33,15.479-3.63c7.41-3,10.53-3.84,14.37-3.84
		c2.85-0.03,3.15,0.06,6,1.23c1.65,0.69,5.46,2.28,8.49,3.51c3.027,1.26,7.71,3.3,10.438,4.53c2.73,1.23,5.16,2.25,5.4,2.25
		s0.42-0.18,0.42-0.42c0-0.99-23.25-13.2-33.15-17.43c-17.04-7.23-43.26-20.37-54.09-27.06c-1.2-0.75-2.13-1.41-2.067-1.47
		c0.06-0.09,1.527,0.72,3.237,1.771c10.021,6.12,37.59,19.92,52.021,25.979c6.479,2.73,18.357,8.64,26.04,12.93
		c22.5,12.54,41.1,25.95,51.09,36.81c22.648,24.69,40.29,62.07,43.02,91.14c0.393,4.2,0.393,15.271,0,21.9
		c-1.438,24.57-6.567,41.64-20.34,67.8c-14.55,27.72-27.21,41.853-45.96,51.36c-5.97,3.03-16.05,6.66-20.609,7.438
		c-1.618,0.271-1.71,0.933-0.238,2.223c2.01,1.77,2.7,1.979,6.3,1.979c2.46,0,3.9-0.18,5.7-0.66
		c7.14-1.947,17.397-7.229,24.63-12.658c7.47-5.642,20.97-22.922,31.02-39.812c3.66-6.09,10.021-18.84,12.78-25.47
		c6.9-16.771,11.73-36.66,13.05-53.853c0.45-6.06,0.21-20.368-0.479-25.8c-2.55-20.85-8.55-38.97-21.15-63.9
		c-13.229-26.13-27.45-41.88-53.25-58.95c-28.438-18.81-89.818-49.53-127.41-63.72c-6.688-2.52-29.938-10.71-36.567-12.9
		c-6.36-2.07-10.5-3.03-12.87-3C645.12,192.33,644.07,192.42,643.89,192.51z"/>
	<path id="structure124_label121_dhc" bar:growlevel="0" bar:type="" fill="#C9FFB2" d="M643.89,192.51
		c-0.237,0.09-0.39,0.69-0.39,1.53c0,1.23,0.12,1.5,1.29,2.58c0.72,0.69,2.91,2.1,4.89,3.15c4.11,2.19,5.7,3.27,11.763,8.07
		c10.02,7.86,18.75,15.42,25.647,22.23c4.2,4.14,6.21,6.48,12.21,14.13c12.932,16.53,14.04,17.73,19.98,21.48
		c5.159,3.24,11.1,5.76,18.12,7.65c2.157,0.6,3.3,0.69,7.5,0.72c6,0,7.38-0.33,15.479-3.63c7.41-3,10.53-3.84,14.37-3.84
		c2.85-0.03,3.15,0.06,6,1.23c1.65,0.69,5.46,2.28,8.49,3.51c3.027,1.26,7.71,3.3,10.438,4.53c2.73,1.23,5.16,2.25,5.4,2.25
		s0.42-0.18,0.42-0.42c0-0.99-23.25-13.2-33.15-17.43c-17.04-7.23-43.26-20.37-54.09-27.06c-1.2-0.75-2.13-1.41-2.067-1.47
		c0.06-0.09,1.527,0.72,3.237,1.771c10.021,6.12,37.59,19.92,52.021,25.979c6.479,2.73,18.357,8.64,26.04,12.93
		c22.5,12.54,41.1,25.95,51.09,36.81c22.648,24.69,40.29,62.07,43.02,91.14c0.393,4.2,0.393,15.271,0,21.9
		c-1.438,24.57-6.567,41.64-20.34,67.8c-14.55,27.72-27.21,41.853-45.96,51.36c-5.97,3.03-16.05,6.66-20.609,7.438
		c-1.618,0.271-1.71,0.933-0.238,2.223c2.01,1.77,2.7,1.979,6.3,1.979c2.46,0,3.9-0.18,5.7-0.66
		c7.14-1.947,17.397-7.229,24.63-12.658c7.47-5.642,20.97-22.922,31.02-39.812c3.66-6.09,10.021-18.84,12.78-25.47
		c6.9-16.771,11.73-36.66,13.05-53.853c0.45-6.06,0.21-20.368-0.479-25.8c-2.55-20.85-8.55-38.97-21.15-63.9
		c-13.229-26.13-27.45-41.88-53.25-58.95c-28.438-18.81-89.818-49.53-127.41-63.72c-6.688-2.52-29.938-10.71-36.567-12.9
		c-6.36-2.07-10.5-3.03-12.87-3C645.12,192.33,644.07,192.42,643.89,192.51z"/>
	<path id="structure125_label122_alv" bar:growlevel="0" bar:type="" fill="#8CFF59" d="M717,265.32c0,1.02,8.22,7.77,15.15,12.45
		c6.72,4.5,11.64,6.9,15.54,7.53c3.06,0.48,4.02,0.21,7.77-2.28c13.08-8.67,24.6-10.65,36.06-6.24
		c5.883,2.28,14.73,7.35,22.771,13.11c8.49,6.09,14.79,11.46,22.89,19.53c14.67,14.67,24.092,28.23,31.893,45.9
		c7.68,17.34,12.27,32.73,14.34,48.123c0.66,4.827,0.75,21.3,0.148,26.157c-1.681,13.71-4.771,25.53-11.101,42.45
		c-10.858,29.04-19.649,43.65-31.56,52.563c-7.71,5.76-24.302,14.01-33.21,16.47c-2.223,0.6-3.87,1.86-4.62,3.54
		c-0.722,1.56-0.75,3.72-0.09,3.99c0.567,0.21,4.857-0.813,9.27-2.223c20.97-6.72,36.54-19.5,50.04-41.067
		c5.25-8.4,14.7-26.7,18.39-35.67c5.4-13.143,8.433-25.08,9.87-38.853c0.78-7.53,1.17-21.479,0.78-27.72
		c-1.41-22.89-11.79-50.4-28.26-74.88c-11.73-17.46-23.04-28.44-43.11-41.79c-5.58-3.75-6.45-4.2-15.66-8.37
		c-9.93-4.5-21.39-9.39-24.897-10.62c-4.23-1.5-9.48-0.78-17.28,2.43c-12.36,5.07-16.5,5.61-25.351,3.33
		c-6.211-1.59-11.699-3.9-16.92-7.08C717.78,264.84,717,264.63,717,265.32z"/>
	<path id="structure126_label123_bic" bar:growlevel="0" bar:type="" fill="#9477C3" d="M714.51,362.76
		c-1.38,4.41-1.5,5.13-1.527,8.19c-0.03,3.45,0.117,3.81,2.817,7.35c3.15,4.11,4.771,7.86,5.97,13.8
		c3.843,19.08,1.44,45.15-5.817,63.24c-0.9,2.28-1.65,4.32-1.65,4.5c0,0.96,5.94,1.32,8.58,0.51c2.73-0.81,4.563-2.43,6.63-5.88
		c4.08-6.777,6.15-14.37,7.5-27.567c0.75-7.473,0.75-29.19,0-34.8c-1.08-7.92-2.58-11.94-5.938-15.96
		c-2.07-2.49-15.183-15.84-15.57-15.84C715.38,360.3,714.93,361.41,714.51,362.76z"/>
	<path id="structure127_label124_m5" bar:growlevel="0" bar:type="" fill="#895FC7" d="M677.19,604.47
		c-1.83,0.87-4.053,3.063-4.98,4.95c-1.14,2.311-1.62,5.4-1.2,7.74c0.45,2.58,3.24,9.09,4.5,10.47c1.38,1.5,2.37,1.86,4.98,1.74
		c2.67-0.15,3.688-0.63,8.91-4.29c5.31-3.75,4.857-3.18,4.737-6.21c-0.09-2.34-0.21-2.82-1.408-5.22
		c-1.682-3.42-5.222-7.053-8.279-8.58C681.84,603.78,679.14,603.57,677.19,604.47z"/>
	<path id="structure128_label125_s5" bar:growlevel="0" bar:type="" fill="#AF8EDC" d="M707.25,570.51
		c-12.75,1.05-23.82,4.5-32.94,10.23c-5.76,3.63-10.77,7.979-12.96,11.25c-1.737,2.64-1.71,2.91,0.723,6.688
		c2.79,4.263,4.71,8.07,6.51,12.78c0.78,2.13,1.59,3.84,1.77,3.84c0.24,0,0.422-0.72,0.54-1.8c0.45-5.07,4.92-9.72,9.271-9.72
		c6.06,0.06,14.31,9.028,14.34,15.63c0,0.87,0.12,1.59,0.3,1.59c0.15,0,1.563-0.93,3.063-2.04c6.12-4.53,10.647-7.2,17.34-10.26
		c4.77-2.19,6.75-3.33,10.14-5.91c2.971-2.25,3.63-2.34,5.521-0.84c4.438,3.569,9.63,6.12,12.42,6.147c2.79,0,3.897-2.01,3.66-6.6
		c-0.33-5.52-2.79-8.43-10.593-12.42c-3.867-1.95-5.88-3.63-11.01-9.03C716.64,570.9,714.75,569.88,707.25,570.51z"/>
	<path id="structure129_label126_cp" bar:growlevel="0" bar:type="" fill="#E1B2FF" d="M695.34,514.92
		c-1.68,0.6-2.28,1.05-6.688,5.16c-4.95,4.59-7.98,7.89-18.393,20.01c-15.54,18.12-17.52,20.521-28.647,34.771
		c-10.44,13.35-15.183,18.657-20.313,22.59c-6.45,4.95-17.16,11.46-30.75,18.75c-3.45,1.83-6.66,3.72-7.107,4.14
		c-0.99,0.932-1.143,2.4-0.303,3.15c0.66,0.63,3.843,1.71,8.433,2.938l3.39,0.933l3.062-0.63c4.408-0.87,9.448-2.4,17.698-5.343
		c13.11-4.619,17.4-6.06,19.473-6.447c1.979-0.36,2.01-0.393,1.857-1.2c-0.27-1.2,0.511-2.432,2.551-3.99
		c1.921-1.5,2.552-2.399,6.149-9.3c7.65-14.61,15.09-26.641,22.17-35.7c1.8-2.31,5.91-7.32,9.181-11.1
		c12.182-14.28,24.392-29.313,24.689-30.45c0.6-2.19-0.12-5.46-1.53-6.99C699.06,514.89,696.96,514.32,695.34,514.92z"/>
	<path fill="#792FDC" d="M641.01,618.51c-0.45-1.05-3.479-3.81-4.2-3.81c-1.26,0-7.14,1.857-16.71,5.25
		c-11.487,4.107-17.04,5.88-20.907,6.66c-1.383,0.3-2.49,0.688-2.49,0.87c0,0.18,1.17,0.567,2.64,0.867
		c6.09,1.263,9.99,2.883,12.54,5.28c2.19,2.103,2.94,3.9,2.76,6.87c-0.18,2.91-1.14,4.771-3.84,7.29
		c-3.3,3.09-8.817,5.76-15.897,7.649c-2.521,0.658-3.45,0.75-8.103,0.75c-5.938,0.028-8.1-0.392-14.16-2.762
		c-3.657-1.438-7.229-2.188-13.59-2.85c-7.023-0.737-13.04-1.104-19.05-1.105v19.385c0.979-0.006,1.857,0.057,2.79,0.173
		c1.53,0.18,7.11,1.05,12.42,1.949c8.25,1.381,10.229,1.618,13.53,1.618c6.96,0,15.63-1.197,24.18-3.357
		c8.43-2.103,15.18-4.83,21.9-8.761c7.59-4.472,15.567-11.852,19.527-18.062c2.58-4.05,5.4-10.561,6.45-14.91
		C641.49,624.6,641.61,619.98,641.01,618.51z"/>
	<path fill="#D847CA" d="M543.45,671.1c-0.688-1.342-1.581-1.794-3.45-1.799v7.525c0.579,0.011,1.186-0.104,1.8-0.416
		C543.6,675.51,544.41,672.93,543.45,671.1z"/>
	<path id="structure135_label133_Su3C" bar:growlevel="0" bar:type="" fill="#6847F2" d="M549.15,425.46
		c-1.771,0.33-2.07,0.57-1.83,1.38c0.147,0.48,0.567,0.63,2.277,0.78c9.513,0.96,25.803,8.188,32.82,14.61
		c0.99,0.897,1.86,1.47,2.13,1.38c0.87-0.36,7.5-10.771,7.26-11.433c-0.237-0.63-5.817-2.697-10.407-3.897
		c-8.37-2.19-16.353-3.183-25.053-3.15C553.23,425.16,549.99,425.31,549.15,425.46z"/>
	<path id="structure136_label134_Zo" bar:growlevel="0" bar:type="" fill="#7F76FF" d="M574.65,243.9
		c-2.433,0.39-6.513,1.68-8.58,2.7c-3.96,2.01-10.473,6.96-14.973,11.37c-4.617,4.59-7.5,9.09-8.76,13.8
		c-0.54,1.98-0.63,3.45-0.75,11.43c-0.357,21.66,1.29,28.44,7.143,29.55l1.077,0.21l0.183-1.62c0.33-2.73,0.27-4.14-0.24-4.35
		c-0.57-0.18-1.65-2.31-2.34-4.44c-1.5-4.65-2.13-14.55-1.29-19.8c1.38-8.28,6.688-19.17,12.03-24.54
		c1.647-1.65,2.607-2.31,5.34-3.66c5.85-2.85,13.68-4.8,20.607-5.16c7.86-0.39,26.61,2.43,34.62,5.22
		c1.65,0.57,6.24,2.58,10.143,4.47c3.93,1.86,8.58,3.96,10.35,4.65c1.8,0.69,4.8,1.86,6.69,2.58c4.438,1.74,11.67,5.43,15.3,7.86
		c6.84,4.56,15.357,12.3,20.13,18.33c5.88,7.41,16.74,24.21,19.38,29.97c1.11,2.43,2.04,5.61,2.34,8.04
		c0.183,1.32,0.393,1.74,1.38,2.64c1.98,1.77,2.37,1.44,2.37-2.13c0-8.25-4.529-17.4-16.62-33.57
		c-5.368-7.17-9.479-12.12-13.527-16.17c-5.91-5.91-9.631-8.37-22.95-15.03c-29.07-14.55-53.19-22.14-71.55-22.5
		C579.03,243.69,575.64,243.75,574.65,243.9z"/>
	<path fill="#836BFF" d="M543.24,423.18c-0.385-0.104-1.808-0.146-3.24-0.143v10.146c0.602-0.006,1.215-0.399,1.95-1.216
		c1.59-1.77,1.95-2.85,1.95-5.938C543.9,423.51,543.87,423.36,543.24,423.18z"/>
	<path id="structure138_label137_IPL" bar:growlevel="0" bar:type="" fill="#001DFF" d="M555.3,597.06c0,0.603,5.61,15,7.683,19.74
		c0.93,2.16,1.857,3.9,2.1,3.9c0.21,0,1.02-0.33,1.8-0.75s1.74-0.75,2.103-0.75c0.897,0,0.897,0-0.03-2.73
		c-0.63-1.77-2.58-9.357-3.33-12.777c-0.09-0.48-1.53-1.62-4.68-3.723C556.2,596.79,555.3,596.34,555.3,597.06z"/>
	<path id="structure139_label138_IPDL" bar:growlevel="0" bar:type="" fill="#7647E5" d="M552.3,583.11
		c0,1.71-0.78,4.947-1.47,6.357c-0.84,1.62-0.811,2.103,0.3,3.45c0.9,1.05,13.11,9.48,13.771,9.48c0.147,0,0.3-0.24,0.3-0.54
		c0-0.843-1.44-8.25-1.74-9.093c-0.21-0.479-0.96-1.14-1.92-1.71c-1.74-0.96-5.1-4.35-7.2-7.26
		C552.84,581.7,552.3,581.55,552.3,583.11z"/>
	<path id="structure13_label13_ts" bar:growlevel="0" bar:type="" fill="#00EF7A" d="M559.02,488.91
		c-2.277,3.06-6.72,7.5-8.88,8.938c-1.14,0.75-1.737,1.353-1.737,1.71c0,1.053,0.867,3.99,2.43,8.19c2.34,6.42,2.938,9.3,3.33,15.96
		c0.357,6.51,0.03,13.32-0.84,17.28c-0.271,1.26-0.42,2.397-0.33,2.52c0.27,0.271,5.91-0.75,8.1-1.438
		c0.96-0.303,3.063-0.66,4.62-0.75l2.85-0.21l0.54-1.23c1.41-3.3,1.65-5.13,1.65-12.18c0-8.04-0.3-9.84-2.73-16.95
		c-3.21-9.36-6.117-20.4-6.117-23.28C561.9,485.91,560.94,486.39,559.02,488.91z"/>
	<path id="structure140_label139_alv" bar:growlevel="0" bar:type="" fill="#8CFF59" d="M717,265.32c0,1.02,8.22,7.77,15.15,12.45
		c6.72,4.5,11.64,6.9,15.54,7.53c3.06,0.48,4.02,0.21,7.77-2.28c13.08-8.67,24.6-10.65,36.06-6.24
		c5.883,2.28,14.73,7.35,22.771,13.11c8.49,6.09,14.79,11.46,22.89,19.53c14.67,14.67,24.092,28.23,31.893,45.9
		c7.68,17.34,12.27,32.73,14.34,48.123c0.66,4.827,0.75,21.3,0.148,26.157c-1.681,13.71-4.771,25.53-11.101,42.45
		c-10.858,29.04-19.649,43.65-31.56,52.563c-7.71,5.76-24.302,14.01-33.21,16.47c-2.223,0.6-3.87,1.86-4.62,3.54
		c-0.722,1.56-0.75,3.72-0.09,3.99c0.567,0.21,4.857-0.813,9.27-2.223c20.97-6.72,36.54-19.5,50.04-41.067
		c5.25-8.4,14.7-26.7,18.39-35.67c5.4-13.143,8.433-25.08,9.87-38.853c0.78-7.53,1.17-21.479,0.78-27.72
		c-1.41-22.89-11.79-50.4-28.26-74.88c-11.73-17.46-23.04-28.44-43.11-41.79c-5.58-3.75-6.45-4.2-15.66-8.37
		c-9.93-4.5-21.39-9.39-24.897-10.62c-4.23-1.5-9.48-0.78-17.28,2.43c-12.36,5.07-16.5,5.61-25.351,3.33
		c-6.211-1.59-11.699-3.9-16.92-7.08C717.78,264.84,717,264.63,717,265.32z"/>
	<path id="structure141_label140_dcw" bar:growlevel="0" bar:type="" fill="#D0FFB2" d="M643.89,192.51
		c-0.237,0.09-0.39,0.69-0.39,1.53c0,1.23,0.12,1.5,1.29,2.58c0.72,0.69,2.91,2.1,4.89,3.15c4.11,2.19,5.7,3.27,11.763,8.07
		c10.02,7.86,18.75,15.42,25.647,22.23c4.2,4.14,6.21,6.48,12.21,14.13c12.932,16.53,14.04,17.73,19.98,21.48
		c5.159,3.24,11.1,5.76,18.12,7.65c2.157,0.6,3.3,0.69,7.5,0.72c6,0,7.38-0.33,15.479-3.63c7.41-3,10.53-3.84,14.37-3.84
		c2.85-0.03,3.15,0.06,6,1.23c1.65,0.69,5.46,2.28,8.49,3.51c3.027,1.26,7.71,3.3,10.438,4.53c2.73,1.23,5.16,2.25,5.4,2.25
		s0.42-0.18,0.42-0.42c0-0.99-23.25-13.2-33.15-17.43c-17.04-7.23-43.26-20.37-54.09-27.06c-1.2-0.75-2.13-1.41-2.067-1.47
		c0.06-0.09,1.527,0.72,3.237,1.771c10.021,6.12,37.59,19.92,52.021,25.979c6.479,2.73,18.357,8.64,26.04,12.93
		c22.5,12.54,41.1,25.95,51.09,36.81c22.648,24.69,40.29,62.07,43.02,91.14c0.393,4.2,0.393,15.271,0,21.9
		c-1.438,24.57-6.567,41.64-20.34,67.8c-14.55,27.72-27.21,41.853-45.96,51.36c-5.97,3.03-16.05,6.66-20.609,7.438
		c-1.618,0.271-1.71,0.933-0.238,2.223c2.01,1.77,2.7,1.979,6.3,1.979c2.46,0,3.9-0.18,5.7-0.66
		c7.14-1.947,17.397-7.229,24.63-12.658c7.47-5.642,20.97-22.922,31.02-39.812c3.66-6.09,10.021-18.84,12.78-25.47
		c6.9-16.771,11.73-36.66,13.05-53.853c0.45-6.06,0.21-20.368-0.479-25.8c-2.55-20.85-8.55-38.97-21.15-63.9
		c-13.229-26.13-27.45-41.88-53.25-58.95c-28.438-18.81-89.818-49.53-127.41-63.72c-6.688-2.52-29.938-10.71-36.567-12.9
		c-6.36-2.07-10.5-3.03-12.87-3C645.12,192.33,644.07,192.42,643.89,192.51z"/>
	<path fill="#596EE9" d="M551.7,578.01c-0.933-4.77-4.65-9.51-7.47-9.51c-0.75,0-1.32,0.36-2.61,1.53l-1.62,1.56v16.712
		c0.245-0.106,0.359,0.017,0.54,0.328c0.9,1.41,4.65,2.97,7.2,2.97c2.64,0,3.93-2.55,4.17-8.188
		C552.03,581.25,551.94,579.18,551.7,578.01z"/>
	<path id="structure145_label146_tth" bar:growlevel="0" bar:type="" fill="#A15FFA" d="M630,582c-16.53,2.85-28.71,4.83-31.95,5.22
		c-2.13,0.271-7.53,0.603-11.97,0.78c-11.67,0.45-16.62,1.11-20.73,2.76c-1.527,0.63-1.8,0.84-1.737,1.473
		c0.09,1.438,3.27,16.77,3.54,17.01c0.09,0.12,0.96-0.24,1.89-0.78c3-1.71,12.69-6.51,16.71-8.31
		c18.21-8.07,33.24-12.78,45.811-14.4c1.289-0.18,1.592-0.36,2.789-1.86c0.75-0.897,1.353-1.83,1.353-2.067
		C635.7,581.25,634.05,581.31,630,582z"/>
	<path id="structure146_label147_ml" bar:growlevel="0" bar:type="" fill="#00D7F2" d="M629.55,586.11
		c-11.91,1.5-31.68,8.25-50.37,17.157c-5.46,2.61-11.58,5.973-11.76,6.48c-0.18,0.42,0.75,4.17,1.771,7.2
		c0.688,2.01,0.75,2.13,2.01,2.52c1.229,0.393,1.47,0.36,3.87-0.42c1.409-0.45,5.25-1.83,8.52-3.03
		c18.57-6.897,33.931-14.938,41.37-21.688c2.37-2.13,7.14-7.53,7.14-8.04C632.1,585.9,631.47,585.87,629.55,586.11z"/>
	<path fill="#59FFD0" d="M609.81,632.07c-2.157-1.38-4.979-2.34-11.01-3.723c-8.397-1.92-11.069-2.729-17.85-5.43
		c-5.91-2.34-9.63-3.42-11.67-3.42c-2.16,0-3.69,1.05-6.42,4.5c-2.49,3.12-4.86,4.979-8.313,6.63c-3.87,1.8-6.06,2.13-14.55,2.13
		v16.626c4.793-0.018,9.451,0.098,12.3,0.354c10.8,0.988,16.353,1.89,19.143,3.12c5.157,2.25,10.05,3.3,15.21,3.33
		c4.56,0,7.14-0.45,12-2.04c10.17-3.33,15.42-7.74,15.96-13.473C614.94,637.17,613.38,634.35,609.81,632.07z"/>
	<path fill="#596DFF" d="M559.35,618.84c-1.05-3.18-3.27-10.107-4.92-15.39c-1.647-5.28-3.33-10.17-3.688-10.893
		c-0.63-1.197-0.75-1.289-1.59-1.077c-2.28,0.567-5.343-0.212-7.53-1.86c-0.768-0.589-1.241-0.895-1.62-0.954v10.15
		c0.753,0.091,2.521,2.044,3.78,4.151c1.47,2.552,3.147,6.66,3.897,9.631c0.63,2.521,0.96,15.632,0.45,18
		c-0.18,0.869-0.27,1.649-0.21,1.739c0.09,0.063,1.05-0.03,2.16-0.239c4.08-0.778,11.22-5.068,11.22-6.75
		C561.3,624.96,560.43,622.02,559.35,618.84z"/>
	<path id="structure149_label152_mlf" bar:growlevel="0" bar:type="" fill="#00CF69" d="M567,463.11
		c-2.7,2.729-3.27,3.447-3.54,4.62c-0.21,0.777-0.6,1.647-0.87,1.979c-0.3,0.36-4.17,3.42-8.64,6.87
		c-12.24,9.42-11.49,8.67-11.88,11.25c-0.33,2.04,0.147,6.21,0.93,8.01c2.01,4.68,5.28,4.26,11.1-1.438
		c4.65-4.563,8.763-10.44,11.16-15.96c2.73-6.24,5.521-14.37,5.853-17.133c0.147-1.229,0.09-1.407-0.36-1.407
		C570.45,459.9,568.77,461.34,567,463.11z"/>
	<path fill="#76DFCC" d="M550.56,506.46c-0.987-2.76-1.857-5.49-1.979-6.12c-0.18-1.05-0.271-1.08-1.62-1.229
		c-0.78-0.093-1.77-0.24-2.22-0.36c-0.63-0.15-0.84-0.12-0.84,0.18c0,1.29-0.723,2.73-1.593,3.271
		c-0.604,0.381-1.459,0.572-2.31,0.578v41.369c5.729-0.047,11.732-0.239,12.21-0.487c1.26-0.69,1.83-3.99,2.07-12.063
		C554.64,520.56,553.95,516.06,550.56,506.46z"/>
	<path fill="#7677E9" d="M581.34,414.51c-8.64-2.88-20.22-6.84-25.74-8.729c-5.52-1.92-10.197-3.42-10.407-3.36
		c-0.78,0.3-2.49,3.33-2.673,4.74c-0.284,2.169-1.42,3.423-2.52,3.5v12.223c0.104,0,0.192-0.003,0.3-0.002
		c3.15,0,4.771,0.57,5.97,2.103l0.633,0.81l2.188-0.42c3.09-0.603,12.99-0.51,18.36,0.147c8.13,1.021,16.47,3,21.688,5.16
		c1.353,0.57,2.67,1.021,2.91,1.021c0.87,0,4.95-9.33,4.95-11.34C597,419.85,594.99,419.1,581.34,414.51z M592.5,424.86
		c-0.57-0.48-0.63-0.66-0.33-1.2c0.39-0.72,1.2-0.87,1.771-0.3C594.99,424.41,593.64,425.79,592.5,424.86z M594.12,421.92
		c-0.66,0.24-1.62-0.33-1.62-0.96c0-1.229,1.53-1.71,2.1-0.69C594.96,420.96,594.75,421.68,594.12,421.92z"/>
	<path id="structure158_label167_me5" bar:growlevel="0" bar:type="" fill="#BA8EFA" d="M602.79,408.27
		c-2.76,4.86-4.53,8.853-5.91,13.263c-1.2,3.84-1.29,4.47-0.63,4.47c0.84,0,3.03-3.9,4.05-7.2c1.05-3.479,1.53-4.47,3.12-6.84
		c1.14-1.71,1.83-3.69,2.16-6.09C605.91,403.41,605.13,404.07,602.79,408.27z"/>
	<path id="structure164_Unlabeled-1842-1984_Unlabeled" bar:growlevel="0" bar:type="" fill="#FFB2BA" d="M552,595.23
		c0,0.657,4.17,14.037,7.41,23.76c1.47,4.38,2.1,5.91,2.43,5.85c0.24-0.06,1.05-0.87,1.771-1.8l1.35-1.71l-1.8-4.141
		c-2.49-5.609-7.86-19.562-7.86-20.369c0-0.42-0.42-0.9-1.2-1.44C552.66,594.42,552,594.39,552,595.23z"/>
	<path id="structure166_Unlabeled-2004-2031_Unlabeled" bar:growlevel="0" bar:type="" fill="#FFB2BA" d="M601.05,608.79
		c-5.607,2.7-18.24,7.71-24.96,9.93c-1.38,0.45-2.49,0.99-2.49,1.2s0.78,0.6,1.74,0.9c0.93,0.3,2.853,1.02,4.23,1.56
		c1.408,0.57,2.67,1.021,2.79,1.021c0.118,0,0.237-0.513,0.237-1.143c0-1.647,0.723-2.188,7.65-5.91
		c9.45-5.067,13.95-7.68,13.95-8.13C604.2,607.56,603.3,607.71,601.05,608.79z"/>
	<path id="structure16_label16_3N" bar:growlevel="0" bar:type="" fill="#76A1E9" d="M549.66,454.2
		c-2.22,1.107-4.65,3.66-5.91,6.147l-0.9,1.803l0.063,6.75c0.06,10.14,0.357,15.357,0.87,15.237
		c0.567-0.12,16.438-12.42,18.18-14.067c1.38-1.29,1.44-1.44,1.44-2.94c0-3.54-1.98-8.46-4.53-11.28
		c-2.01-2.188-2.79-2.55-5.313-2.55C551.85,453.3,551.16,453.45,549.66,454.2z"/>
	<path id="structure17_label17_InC" bar:growlevel="0" bar:type="" fill="#B2B7FF" d="M580.05,449.91
		c-0.99,1.29-3.24,3.81-4.979,5.64c-3.091,3.21-3.183,3.36-3.69,5.4c-1.92,7.95-5.397,17.04-8.64,22.56
		c-0.78,1.353-1.44,2.61-1.44,2.82c0,0.57,3.9,0.12,7.021-0.78c7.737-2.25,14.487-7.17,17.1-12.51c1.41-2.85,1.83-5.85,1.59-11.49
		c-0.24-5.91-1.14-9.147-3.567-12.688c-0.48-0.69-1.021-1.263-1.23-1.263S581.04,448.65,580.05,449.91z"/>
	<path id="structure18_label18_PTg" bar:growlevel="0" bar:type="" fill="#AC8EE5" d="M652.35,528.3
		c-4.47,1.021-6.777,2.19-9.42,4.83c-2.817,2.82-3.93,5.22-3.93,8.49c0,2.67,0.66,3.87,2.7,4.92c1.229,0.66,1.647,0.69,4.95,0.57
		c3.119-0.093,3.987-0.24,6.447-1.08c8.58-2.973,11.58-5.94,11.91-11.79c0.12-2.19,0.063-2.643-0.567-3.84
		c-1.08-2.103-2.553-2.7-6.54-2.67C656.04,527.73,653.79,527.97,652.35,528.3z"/>
	<path fill="#00FF47" d="M551.76,558.6c-0.72-3.987,1.32-9.357,4.98-13.229c1.71-1.83,2.22-2.67,1.647-2.67
		c-0.147,0-1.38,0.21-2.79,0.45c-3.882,0.675-9.703,0.995-15.6,0.982v24.088c4.223,0,8.445-0.156,9.93-0.473
		c5.223-1.11,9.69-3.15,6.96-3.15C554.55,564.57,552.33,561.99,551.76,558.6z"/>
	<path id="structure20_label20_B9" bar:growlevel="0" bar:type="" fill="#76EFD9" d="M692.7,390.48
		c-11.61,9.9-28.62,19.26-49.71,27.39c-15.69,6.03-26.55,8.46-43.143,9.63c-2.64,0.21-4.947,0.48-5.157,0.63
		c-0.183,0.18-1.11,1.68-2.07,3.36c-2.07,3.66-5.28,8.64-8.01,12.42c-1.11,1.53-2.013,3-2.013,3.27c0,0.24,0.33,0.9,0.75,1.44
		c1.2,1.56,2.763,5.25,3.33,7.83c0.36,1.71,0.513,3.72,0.513,7.05c0,5.16-0.423,7.41-1.83,10.02c-1.021,1.923-4.44,5.553-6.813,7.23
		c-4.107,2.94-10.41,5.46-14.46,5.76l-2.188,0.183v1.107c0,3.12,1.8,10.17,5.25,20.7c2.938,8.88,3.447,11.4,3.657,17.55
		c0.183,5.22-0.21,8.94-1.29,12c-0.42,1.143-0.81,2.313-0.897,2.58c-0.15,0.39,0.09,0.54,1.14,0.72c2.94,0.48,5.16,2.16,5.94,4.5
		c2.01,6.12-6.24,15.933-15.63,18.57c-0.9,0.24-3.33,1.05-5.4,1.771c-2.07,0.72-4.89,1.5-6.24,1.71
		c-1.317,0.237-2.43,0.54-2.43,0.72s0.54,0.78,1.2,1.32l1.2,0.987l3.81-0.688c3.39-0.603,4.83-0.69,11.94-0.69
		c7.02,0,8.58,0.09,11.697,0.66c9.54,1.74,16.383,4.89,21.303,9.84c1.8,1.771,4.407,5.25,4.737,6.271
		c0.063,0.18,6.933-0.84,16.593-2.46c9.06-1.53,16.827-2.763,17.25-2.763c0.987,0,1.107-0.117,8.697-9.897
		c6.99-9,11.553-14.521,23.643-28.65c10.979-12.84,14.31-16.5,19.438-21.45c6.723-6.479,8.46-7.38,11.34-6
		c0.75,0.36,1.44,0.603,1.53,0.513c0.09-0.093,0.36-1.143,0.603-2.343c0.72-3.447,2.067-6.777,5.697-14.13
		c1.893-3.777,3.42-7.08,3.42-7.317c0-0.33-0.447-0.42-1.857-0.42c-5.313,0-14.853-1.32-18.84-2.58
		c-5.013-1.563-6.9-3.99-5.58-7.143c0.51-1.199,2.67-3.479,3.33-3.479c0.6,0,0.567-0.57-0.063-1.29c-0.42-0.45-0.54-1.11-0.54-3.03
		c0.03-2.22,0.15-2.76,1.59-6.39c2.37-5.94,4.29-7.65,8.91-8.103c1.11-0.09,1.95-0.33,1.95-0.51s-0.21-0.87-0.45-1.53
		c-0.51-1.438-0.567-5.34-0.12-7.83c0.183-0.96,1.2-5.277,2.25-9.567c1.08-4.26,2.07-9.12,2.25-10.771
		c0.813-7.29-1.5-20.58-5.76-33.3c-0.81-2.46-1.59-5.07-1.68-5.79c-0.09-0.69-0.33-1.29-0.51-1.29
		C694.8,388.8,693.78,389.55,692.7,390.48z M665.7,489.3c4.92,0.603,8.7,1.95,10.89,3.87c2.37,2.1,3.84,6.99,2.91,9.75
		c-1.47,4.53-9.81,9.57-21.21,12.9c-6.9,2.01-12.57,2.76-26.49,3.63c-17.16,1.05-39.84,1.41-45.75,0.75
		c-5.55-0.63-9.51-2.16-12.21-4.71c-2.25-2.16-3.06-3.99-3.06-6.99c-0.03-1.98,0.12-2.55,0.96-4.29c1.14-2.31,2.7-3.69,5.397-4.77
		c1.65-0.66,1.98-0.69,9.603-0.603c8.607,0.09,12.06-0.09,24.21-1.438c9.33-1.053,10.107-1.17,21.03-3.75
		c15.147-3.603,20.938-4.563,27.567-4.62C661.53,489,664.32,489.15,665.7,489.3z M661.02,527.73c3.183,0.81,4.683,3.51,4.08,7.317
		c-0.84,5.22-3.357,7.771-10.47,10.5c-6.78,2.61-12.09,2.55-14.52-0.12c-3.12-3.447-0.813-10.08,4.92-14.1
		c2.489-1.771,4.317-2.49,8.16-3.3C656.34,527.37,659.16,527.25,661.02,527.73z M624.9,540.75c7.14,1.65,10.619,5.61,8.067,9.18
		c-1.38,1.95-5.85,4.11-11.52,5.553c-2.88,0.75-3.87,0.84-7.8,0.867c-4.922,0-6.843-0.39-8.79-1.857
		c-1.74-1.29-2.223-2.37-2.07-4.59c0.3-4.95,4.14-8.04,11.7-9.48C617.19,539.91,621.87,540.06,624.9,540.75z"/>
	<path id="structure21_label21_3PC" bar:growlevel="0" bar:type="" fill="#005EFF" d="M552.03,442.98
		c-1.08,0.21-2.643,0.75-3.511,1.17c-1.5,0.75-1.619,0.867-2.762,3.54c-2.04,4.647-3.06,8.579-3.06,11.817
		c0,1.71,0.54,1.683,1.47-0.09c1.021-1.89,3.66-4.438,5.58-5.37c4.92-2.43,8.85-0.42,11.88,6c0.603,1.32,1.29,3.183,1.5,4.143
		c0.271,1.05,0.54,1.68,0.78,1.647c0.21-0.06,1.8-1.5,3.54-3.21l3.147-3.12l-0.33-1.08c-1.857-5.79-8.52-14.817-11.52-15.6
		C557.16,442.41,554.37,442.44,552.03,442.98z"/>
	<path id="structure22_label22_Su3" bar:growlevel="0" bar:type="" fill="#6A47FF" d="M548.1,428.07c0,0.147,0.183,0.81,0.42,1.47
		c1.29,3.63,1.23,7.71-0.18,12.12c-0.359,1.107-0.57,2.13-0.45,2.25c0.12,0.09,1.053-0.09,2.103-0.45c2.55-0.87,3.51-1.02,6-1.02
		c2.7,0.027,3.63,0.357,5.25,1.947c3.06,2.94,6.54,7.98,8.31,12.063c0.57,1.35,1.23,2.43,1.5,2.49
		c0.99,0.21,10.59-10.41,12.603-13.923l0.6-1.05l-1.65-1.5c-4.89-4.438-13.47-9.12-22.26-12.12
		C554.67,428.4,548.1,427.17,548.1,428.07z"/>
	<path fill="#00FFCC" d="M549,431.94c-0.72-3.78-3-8.04-4.29-8.04c-0.33,0-0.479,0.567-0.57,2.46c-0.09,1.737-0.33,2.85-0.777,3.72
		c-0.603,1.2-2.79,3.42-3.36,3.42v69.112c1.822-0.04,2.841-0.523,3.3-1.645c0.48-1.17,0.24-3.688-0.6-5.817
		c-0.96-2.46-1.08-7.86-0.183-9.33c0.54-0.933,0.57-1.353,0.213-13.2c-0.45-16.021-0.271-17.521,2.88-24.69
		C549.12,439.89,549.87,436.38,549,431.94z"/>
	<path id="structure25_label25_BIC" bar:growlevel="0" bar:type="" fill="#002FFF" d="M711.6,374.31
		c-1.05,0.42-3.357,2.22-6.869,5.43c-2.068,1.89-4.948,4.5-6.391,5.82l-2.64,2.37v1.62c0,1.11,0.45,2.94,1.47,6.06
		c5.01,15,7.05,28.23,5.55,36.123c-0.239,1.38-1.26,5.607-2.22,9.42c-2.521,9.897-2.94,14.067-1.65,16.77l0.48,0.99l3.96,0.21
		c2.188,0.12,5.43,0.33,7.2,0.51c1.8,0.18,3.33,0.24,3.42,0.18c0.357-0.39,2.607-5.97,3.688-9.18
		c2.853-8.55,4.591-17.49,5.433-28.05c0.449-5.76,0.18-20.04-0.48-24.78c-1.35-9.99-2.91-14.37-7.02-19.77
		c-1.17-1.53-2.19-3.06-2.28-3.36C713.07,374.1,712.47,373.98,711.6,374.31z"/>
	<path id="structure26_label26_LPAG" bar:growlevel="0" bar:type="" fill="#0003FF" d="M593.1,390.63
		c-18.06,0.81-42.42,2.76-43.56,3.45c-0.12,0.09-0.24,0.54-0.24,0.99c0,1.23-0.688,2.67-2.22,4.74c-0.75,0.99-1.38,1.95-1.38,2.133
		c0,0.18,0.78,0.567,1.74,0.897c0.93,0.33,5.907,2.04,11.01,3.813c16.53,5.697,37.77,12.75,38.46,12.75
		c0.54,0,0.688-0.183,0.688-0.78c0-0.63-0.117-0.75-0.6-0.63c-0.33,0.09-0.9-0.09-1.29-0.393c-0.54-0.447-0.6-0.657-0.33-1.107
		c0.48-0.78,1.53-0.84,1.98-0.12c0.21,0.36,0.51,0.63,0.688,0.63c0.271-0.03,4.38-8.25,4.353-8.76c0-0.12-0.36-0.24-0.78-0.3
		c-1.2-0.15-1.62-0.99-0.84-1.74c0.688-0.72,1.5-0.54,1.77,0.33c0.12,0.3,0.36,0.567,0.57,0.567c0.569,0,2.188-3.72,2.7-6.237
		c0.357-1.65,1.08-8.55,1.08-10.353C606.9,390.24,600.57,390.3,593.1,390.63z M599.04,400.56c0.57,0.57,0.42,1.383-0.271,1.771
		c-0.538,0.27-0.75,0.21-1.229-0.271c-0.48-0.479-0.54-0.688-0.271-1.229C597.66,400.14,598.47,399.99,599.04,400.56z
		 M597.72,412.29c0.75,0.54,0.54,1.83-0.3,1.95c-0.36,0.06-0.84-0.12-1.11-0.36c-0.63-0.63-0.897-0.6-1.35,0.12
		c-0.479,0.75-1.02,0.75-1.71,0c-0.54-0.6-0.54-0.63,0.09-1.29c0.57-0.54,0.75-0.6,1.2-0.27c0.99,0.72,1.29,0.75,1.74,0.09
		C596.82,411.78,597,411.75,597.72,412.29z"/>
	<path id="structure27_label27_DLPAG" bar:growlevel="0" bar:type="" fill="#B2B5FF" d="M579.6,348.3c0,3.69-2.04,10.02-4.68,14.55
		c-1.86,3.18-4.95,7.35-7.95,10.68c-4.2,4.65-12.72,11.88-18.239,15.45c-0.988,0.63-1.828,1.29-1.828,1.41
		c0,0.15,0.39,0.57,0.867,0.96c0.45,0.42,1.021,1.14,1.23,1.65c0.21,0.48,0.39,0.9,0.42,0.9c0.061,0,1.41-0.21,3.061-0.45
		c7.472-1.08,27.632-2.43,49.739-3.33l4.771-0.18l-0.183-7.11c-0.147-5.46-0.329-7.65-0.777-9.63c-0.933-4.08-2.7-8.61-4.29-10.98
		c-1.92-2.85-5.88-6.54-9.99-9.3c-3.57-2.37-10.65-6.12-11.58-6.12C579.69,346.8,579.6,347.04,579.6,348.3z"/>
	<path fill="#3B40FF" d="M577.74,345.66c-1.021-0.36-3.09-0.9-4.59-1.17c-3.9-0.75-16.86-0.66-26.16,0.15
		c-3.48,0.301-5.243,0.451-6.99,0.454v39.837c0.021-0.012,0.049-0.031,0.06-0.031c0.15,0,0.57,0.33,0.933,0.69
		c0.357,0.39,1.5,1.62,2.55,2.7c1.14,1.2,2.16,2.01,2.521,2.01c0.329,0,2.102-1.02,3.961-2.28
		c11.881-8.16,21.181-17.97,25.948-27.27c2.04-4.05,3.063-7.59,3.48-12.15l0.21-2.28L577.74,345.66z"/>
	<path fill="#DF0045" d="M546.57,391.08c-0.69-0.18-1.83-1.14-3.603-2.94c-1.372-1.401-2.679-2.566-2.97-2.628V410.4
		c0.87,0,1.8-1.353,2.07-2.91c0.27-1.83,0.75-2.643,3.84-6.723c1.32-1.737,2.58-3.688,2.79-4.317
		C549.48,394.11,548.49,391.59,546.57,391.08z"/>
	<path fill="#0700FF" d="M699.99,382.59c-0.48,0.09-1.98,0.39-3.393,0.66c-5.22,1.02-11.97-0.45-17.58-3.81
		c-5.729-3.42-9.117-6.81-24.237-24.09c-18.723-21.42-25.74-28.47-35.13-35.25c-6.303-4.53-18.9-11.28-24.603-13.17
		c-4.438-1.47-7.229-1.92-11.188-1.77c-4.44,0.18-5.49,0.51-14.04,4.77l-6.631,3.27l-7.472-0.18c-6.42-0.18-7.62-0.27-8.58-0.75
		c-1.35-0.69-5.067-0.78-6.237-0.18c-0.359,0.188-0.616,0.257-0.9,0.236v32.606c1.577,0,3.152-0.128,6.06-0.383
		c3.36-0.27,9.603-0.6,13.922-0.66c12.061-0.24,15.238,0.3,22.471,3.78c10.14,4.89,17.489,10.71,20.34,16.14
		c1.47,2.79,3.06,7.68,3.66,11.16c0.87,4.92,0.39,23.73-0.78,31.08c-0.45,2.76-1.17,4.59-2.49,6.42
		c-1.229,1.683-1.92,3.24-3.027,7.021c-0.57,1.89-1.23,3.3-2.4,5.04c-0.9,1.317-1.65,2.52-1.65,2.67c0,0.39,1.052,0.357,5.882,0
		c16.561-1.29,27.028-3.84,44.971-11.01c19.199-7.65,34.59-16.29,45.21-25.353C700.65,383.55,701.94,382.2,699.99,382.59z"/>
	<path id="structure32_label32_Me5" bar:growlevel="0" bar:type="" fill="#2400CB" d="M593.1,390.63
		c-18.06,0.81-42.42,2.76-43.56,3.45c-0.12,0.09-0.24,0.54-0.24,0.99c0,1.23-0.688,2.67-2.22,4.74c-0.75,0.99-1.38,1.95-1.38,2.133
		c0,0.18,0.78,0.567,1.74,0.897c0.93,0.33,5.907,2.04,11.01,3.813c16.53,5.697,37.77,12.75,38.46,12.75
		c0.54,0,0.688-0.183,0.688-0.78c0-0.63-0.117-0.75-0.6-0.63c-0.33,0.09-0.9-0.09-1.29-0.393c-0.54-0.447-0.6-0.657-0.33-1.107
		c0.48-0.78,1.53-0.84,1.98-0.12c0.21,0.36,0.51,0.63,0.688,0.63c0.271-0.03,4.38-8.25,4.353-8.76c0-0.12-0.36-0.24-0.78-0.3
		c-1.2-0.15-1.62-0.99-0.84-1.74c0.688-0.72,1.5-0.54,1.77,0.33c0.12,0.3,0.36,0.567,0.57,0.567c0.569,0,2.188-3.72,2.7-6.237
		c0.357-1.65,1.08-8.55,1.08-10.353C606.9,390.24,600.57,390.3,593.1,390.63z M599.04,400.56c0.57,0.57,0.42,1.383-0.271,1.771
		c-0.538,0.27-0.75,0.21-1.229-0.271c-0.48-0.479-0.54-0.688-0.271-1.229C597.66,400.14,598.47,399.99,599.04,400.56z
		 M597.72,412.29c0.75,0.54,0.54,1.83-0.3,1.95c-0.36,0.06-0.84-0.12-1.11-0.36c-0.63-0.63-0.897-0.6-1.35,0.12
		c-0.479,0.75-1.02,0.75-1.71,0c-0.54-0.6-0.54-0.63,0.09-1.29c0.57-0.54,0.75-0.6,1.2-0.27c0.99,0.72,1.29,0.75,1.74,0.09
		C596.82,411.78,597,411.75,597.72,412.29z"/>
	<path id="structure33_text3174_CEnt" bar:growlevel="0" bar:type="" fill="#C5E900" d="M725.1,542.46
		c0,1.92,0.603,10.021,0.933,12.69c0.987,8.25,4.08,17.369,7.92,23.369c1.62,2.551,4.53,6.028,6.24,7.471
		c0.867,0.75,3.027,2.22,4.827,3.33c6.12,3.72,9.78,6.75,12.48,10.229c0.689,0.9,1.5,1.65,1.8,1.65c0.271,0,1.74-1.47,3.3-3.391
		c1.563-1.829,9.183-10.859,16.95-20.012c23.61-27.81,24-28.317,22.92-28.979c-0.27-0.15-74.938-7.29-76.68-7.32
		C725.22,541.5,725.1,541.65,725.1,542.46z M752.13,550.38c1.8,0.9,2.853,1.74,5.521,4.44c7.8,7.83,9.18,12.12,5.1,15.72
		c-2.46,2.16-4.89,2.37-8.25,0.66c-3.479-1.771-8.4-7.23-10.74-11.97c-1.979-3.99-1.38-7.11,1.71-9.063
		C747.45,548.91,749.25,548.97,752.13,550.38z"/>
	<path id="structure34_label33_CEnt" bar:growlevel="0" bar:type="" fill="#C5E900" d="M746.55,549.6
		c-1.08,0.33-2.7,1.83-3.357,3.12c-0.78,1.473-0.393,4.41,0.897,6.933c2.37,4.71,7.021,9.81,10.5,11.55
		c3.75,1.857,7.98,0.81,9.69-2.46c0.75-1.44,0.54-4.11-0.48-6.15c-1.05-2.13-4.89-6.81-7.647-9.3
		C752.73,550.14,749.19,548.79,746.55,549.6z"/>
	<path id="structure35_text3172_PaS" bar:growlevel="0" bar:type="" fill="#B6DF00" d="M740.46,477.63
		c-1.2,2.16-4.38,7.32-7.08,11.46c-2.7,4.17-5.58,8.79-6.42,10.26c-4.02,7.17-5.76,13.92-5.76,22.383c0,5.277,0.51,8.397,2.1,13.14
		c0.63,1.92,1.23,4.11,1.353,4.89l0.21,1.38l1.407,0.183c1.83,0.239,74.853,7.08,75.57,7.08c0.45,0,0.57-0.24,0.57-1.29
		c0-2.88,2.13-5.222,5.67-6.24c1.8-0.54,2.22-0.78,2.16-1.2c-0.12-0.66-66.69-65.97-67.23-65.97
		C742.83,473.73,741.66,475.47,740.46,477.63z M748.23,490.53c2.188,1.56,4.38,5.487,5.397,9.75c0.603,2.46,0.63,3.18,0.45,9.567
		c-0.33,13.11-1.95,18.69-5.97,20.7c-2.46,1.23-4.53,0.9-6.45-1.05c-3.69-3.69-5.58-14.91-3.99-23.76
		c1.38-7.71,4.021-13.74,6.75-15.393C745.83,489.48,746.82,489.51,748.23,490.53z"/>
	<path id="structure36_label34_PaS" bar:growlevel="0" bar:type="" fill="#B6DF00" d="M743.7,490.98
		c-1.59,1.438-2.76,3.567-4.021,7.35c-2.159,6.45-2.909,12.39-2.31,18.12c0.63,5.938,2.01,10.38,3.93,12.569
		c1.32,1.471,2.37,1.979,4.17,1.979c1.893,0,2.91-0.39,4.17-1.59c2.973-2.82,4.17-8.82,4.32-21.36c0.06-6.66-0.21-8.397-1.86-12.03
		C749.55,490.41,746.43,488.52,743.7,490.98z"/>
	<path id="structure37_text3173_PrS" bar:growlevel="0" bar:type="" fill="#E0FF59" d="M752.73,443.01
		c-1.263,5.223-5.521,20.103-6.33,22.29c-0.36,0.9-1.263,3.063-2.04,4.771l-1.38,3.12l1.527,1.407c1.71,1.563,6.42,4.83,12.84,8.853
		c6.933,4.38,9.303,6,15.9,10.95c3.479,2.607,7.38,5.34,8.7,6.09c4.107,2.34,8.37,3.81,11.067,3.81c2.61,0,4.923-1.62,5.61-3.897
		c0.78-2.553-0.75-4.893-6-9.271c-3.688-3.09-6.21-5.79-11.25-12.12c-6.51-8.188-9.99-13.17-15.03-21.357
		c-8.158-13.32-11.697-18.75-12.3-18.75C753.87,438.9,753.27,440.76,752.73,443.01z"/>
	<path id="structure38_label35_PrS" bar:growlevel="0" bar:type="" fill="#E0FF59" d="M754.26,436.5c-0.39,1.8-0.39,1.83,0.48,2.94
		c1.527,1.947,4.95,7.229,9.18,14.157c7.83,12.75,10.2,16.2,17.73,25.683c4.5,5.64,7.527,8.88,10.947,11.76
		c6.15,5.13,7.53,7.89,5.37,10.83c-2.34,3.24-7.08,3.24-13.62-0.03c-3.42-1.71-5.64-3.21-12.357-8.31
		c-5.762-4.32-20.67-14.13-21.57-14.13c-0.24,0-0.42,0.18-0.42,0.357c0,0.48,60.479,59.76,61.08,59.88
		c0.63,0.15,5.43-1.737,10.92-4.29c6.15-2.88,9.42-4.68,9.54-5.31c0.09-0.42-19.53-25.32-21.36-27.12
		c-0.33-0.33-0.75-0.84-0.93-1.11c-0.99-1.71-53.79-67.077-54.15-67.077C754.74,434.7,754.5,435.21,754.26,436.5z"/>
	<path id="structure39_label36_MoDG" bar:growlevel="0" bar:type="" fill="#E9FF59" d="M790.23,367.23
		c-4.29,0.51-7.98,3.03-9.723,6.57c-1.47,3.03-1.83,5.46-1.8,12.6c0.06,10.32,0.66,16.38,3.69,35.7
		c2.13,13.593,2.64,17.521,3.147,23.883c0.603,7.68,1.53,11.22,3.931,15.18c3.149,5.16,7.712,7.74,12.989,7.35
		c7.2-0.54,13.29-7.56,19.17-22.107c3.15-7.83,4.83-13.473,5.973-20.313c0.81-4.92,0.75-16.318-0.15-21.24
		c-2.61-14.278-9.479-27.33-17.04-32.458C804.54,368.4,796.83,366.42,790.23,367.23z"/>
	<path id="structure3_label0_RRF" bar:growlevel="0" bar:type="" fill="#2800D8" d="M650.4,489.9c-4.593,0.72-7.593,1.35-17.4,3.63
		c-10.98,2.58-12.66,2.91-19.5,3.72c-14.46,1.71-21.81,2.16-27.33,1.65c-3.63-0.36-4.439-0.33-6.57,0.09
		c-2.938,0.567-4.647,1.35-6.147,2.85c-1.86,1.83-2.4,3.33-2.4,6.66c0,2.49,0.09,3.03,0.813,4.35c1.92,3.66,5.79,5.853,12.09,6.87
		c7.107,1.17,32.67,0.75,54.45-0.897c8.58-0.63,12.237-1.17,17.52-2.49c13.59-3.48,22.38-8.73,23.61-14.13
		c0.33-1.41-0.183-4.86-0.933-6.33c-1.407-2.76-4.56-4.8-9-5.853C666.09,489.21,655.35,489.12,650.4,489.9z"/>
	<path id="structure40_label37_MoS" bar:growlevel="0" bar:type="" fill="#E2FF59" d="M795.15,311.07
		c-2.04,0.72-3.183,1.5-8.103,5.4c-10.29,8.19-15.87,11.34-21.66,12.12c-1.47,0.21-2.487,0.48-2.487,0.69
		c0,0.18,0.567,0.72,1.29,1.17c3.51,2.31,5.907,5.07,5.907,6.81c0,0.48-0.27,1.35-0.567,1.98c-1.29,2.46-15.21,16.41-21.393,21.45
		c-1.47,1.17-2.64,2.28-2.64,2.43c0,0.18,1.771,2.22,3.93,4.53c7.32,7.86,8.37,9.45,9.66,14.52c0.603,2.34,0.66,3.33,0.66,10.53
		c0,5.76-0.15,9.147-0.54,12.3c-0.93,7.41-2.85,20.64-3.63,24.84l-0.75,4.021l27.45,34.17c18.93,23.55,27.63,34.17,28.02,34.17
		c2.19,0,11.79-4.08,15.96-6.75c11.04-7.143,21.9-20.25,29.67-35.853c5.853-11.79,9.42-23.67,11.13-37.197
		c0.603-4.771,0.513-15-0.147-18.99c-2.94-17.61-12.18-37.23-26.22-55.86c-4.563-6.06-8.07-10.11-15.513-17.91
		C813.69,317.55,806.73,312,801.6,310.83C799.56,310.35,796.83,310.47,795.15,311.07z M800.25,367.77
		c6.96,1.83,12.6,5.43,16.29,10.44c5.76,7.86,10.02,18.9,11.49,29.79c0.479,3.66,0.479,12.24,0,15.9
		c-0.66,4.83-1.8,9.84-3.33,14.397c-5.37,16.17-11.433,26.01-17.91,29.13c-1.771,0.87-2.43,1.021-4.89,1.11
		c-2.37,0.09-3.15,0-4.53-0.51c-3.75-1.41-6.84-4.473-9-8.91c-1.682-3.48-2.58-7.353-2.97-12.813
		c-0.42-5.938-0.843-9.21-3.15-24.357c-2.46-16.021-3.09-20.853-3.48-27.42c-0.42-6.81-0.21-15.15,0.48-17.55
		c1.41-5.04,4.53-8.31,9.12-9.54C791.01,366.72,796.8,366.87,800.25,367.77z"/>
	<path id="structure41_label38_VS" bar:growlevel="0" bar:type="" fill="#F1FFB2" d="M867.66,416.31
		c-0.9,14.25-4.08,26.79-10.143,40.11c-6.867,15.09-17.578,29.1-28.317,37.08c-4.71,3.48-11.91,7.02-16.86,8.31
		c-1.14,0.303-2.04,0.66-2.04,0.813c0,0.42,21.33,26.91,21.84,27.09c0.843,0.33,8.19-4.41,11.91-7.68
		c9.24-8.16,17.13-21.36,25.5-42.63c7.83-19.86,11.76-33.54,13.47-46.95c0.933-7.17,1.32-16.47,0.9-20.19l-0.21-1.56h-7.86h-7.857
		L867.66,416.31z"/>
	<path id="structure42_label39_DIEnt" bar:growlevel="0" bar:type="" fill="#D2E959" d="M870.93,501.99
		c-4.59,7.59-12.027,18.21-17.01,24.27c-1.05,1.29-1.92,2.58-1.92,2.88c0,0.87,37.41,57.78,38.04,57.9
		c0.93,0.15,13.26-7.95,20.88-13.68c10.35-7.83,19.29-16.65,25.89-25.563c2.4-3.24,5.49-7.92,5.49-8.31
		c0-0.33-68.13-41.19-68.7-41.19C873.36,498.3,872.19,499.92,870.93,501.99z"/>
	<path id="structure43_label40_VIEnt" bar:growlevel="0" bar:type="" fill="#F2FFB2" d="M849.3,531.81
		c-3.03,3.603-5.397,5.883-8.64,8.28c-6.18,4.62-15.18,9.393-21.813,11.58c-1.979,0.66-3.63,1.35-3.688,1.53
		c-0.09,0.27,13.979,60.87,14.22,61.14c0.12,0.182,6.601-1.74,11.07-3.24c7.41-2.55,15.72-6,25.647-10.71
		c7.803-3.72,23.013-12.118,23.313-12.868c0.18-0.449-37.38-57.989-37.86-58.021C851.37,529.5,850.35,530.52,849.3,531.81z"/>
	<path id="structure44_label41_MEnt" bar:growlevel="0" bar:type="" fill="#E4FF59" d="M799.32,554.46
		c-1.95,2.37-10.65,12.66-19.32,22.89c-19.02,22.41-20.4,24.093-20.4,24.513c0,0.75,3.45,5.698,4.803,6.93
		c3.688,3.33,10.59,5.7,20.22,6.96c11.28,1.47,30.84,1.23,40.62-0.51c3.6-0.63,3.66-0.66,3.66-1.44c0-0.42-3.15-14.188-7.021-30.6
		l-6.99-29.853h-3.42c-3.12,0-3.567-0.09-4.92-0.81c-0.81-0.42-1.89-1.14-2.34-1.56c-0.45-0.422-0.96-0.78-1.11-0.78
		S801.27,552.12,799.32,554.46z"/>
	<path id="structure45_label42_DLEnt" bar:growlevel="0" bar:type="" fill="#D6FF00" d="M890.61,458.91
		c-0.063,0.12-0.57,1.59-1.11,3.24c-3.27,9.987-8.97,23.04-14.22,32.397c-0.933,1.62-1.683,3.063-1.683,3.183
		c0,0.21,68.521,41.367,68.91,41.367c0.33,0,4.262-7.29,5.88-10.947c4.95-11.131,8.79-25.803,9.393-35.883
		c0.147-2.76,0.12-3.479-0.21-3.75c-0.45-0.327-65.46-29.487-66.303-29.729C891,458.7,890.7,458.76,890.61,458.91z"/>
	<path id="structure46_label43_PRh" bar:growlevel="0" bar:type="" fill="#EBF400" d="M894.69,443.16
		c-0.54,2.52-1.53,6.6-2.223,9.09c-0.688,2.46-1.317,4.89-1.38,5.4l-0.12,0.897l32.88,14.7c18.063,8.07,33.063,14.729,33.303,14.79
		c0.63,0.15,0.567-0.96-0.183-3.36c-0.42-1.41-1.438-3.27-3.42-6.18c-3.12-4.65-4.05-6.75-4.05-9.09c0.03-3.271,2.1-5.853,6.78-8.43
		c4.107-2.25,5.22-3,5.22-3.513c0-0.357-7.05-2.46-32.31-9.567c-17.79-5.013-32.61-9.15-32.94-9.21
		C895.71,438.57,895.56,438.96,894.69,443.16z"/>
	<path id="structure47_label44_Ect" bar:growlevel="0" bar:type="" fill="#F9FF47" d="M898.26,417.03
		c-0.39,6.84-0.897,11.729-1.89,17.487c-0.33,1.95-0.48,3.66-0.36,3.78c0.36,0.36,65.37,18.603,66.21,18.603c1.08,0,3.69-3,5.7-6.57
		c2.04-3.6,4.771-10.44,8.37-21.03c1.38-3.99,2.729-9.93,3.09-13.438l0.21-1.803l-1.318-0.18c-0.722-0.09-17.312-0.78-36.869-1.53
		c-19.563-0.75-37.17-1.438-39.15-1.56l-3.63-0.18L898.26,417.03z"/>
	<path id="structure48_label45_TeA" bar:growlevel="0" bar:type="" fill="#D0D46B" d="M936.6,368.64
		c-23.188,3.9-42.21,7.11-42.27,7.17c-0.09,0.06,0.3,2.07,0.81,4.53c1.893,8.67,2.88,16.353,3.24,25.17l0.21,4.86l1.23,0.147
		c1.68,0.213,79.71,3.24,79.857,3.12c0.063-0.06,0.33-2.46,0.603-5.34c0.93-10.02,0.897-34.08-0.091-44.79
		c-0.149-1.8-0.239-2.01-0.812-1.98C979.02,361.56,959.79,364.77,936.6,368.64z"/>
	<path id="structure49_label47_CA1" bar:growlevel="0" bar:type="" fill="#BCD400" d="M854.7,349.65c-4.53,2.7-8.28,5.04-8.34,5.19
		c-0.03,0.15,1.05,2.1,2.46,4.32c10.857,17.25,17.729,35.1,18.688,48.6l0.183,2.643h8.1h8.07l-0.21-2.643
		c-1.17-14.97-5.73-31.71-13.65-50.16c-3.33-7.77-5.94-12.9-6.51-12.87C863.19,344.73,859.23,346.95,854.7,349.65z"/>
	<path id="structure4_label2_mRt" bar:growlevel="0" bar:type="" fill="#777777" d="M692.7,390.48
		c-11.61,9.9-28.62,19.26-49.71,27.39c-15.69,6.03-26.55,8.46-43.143,9.63c-2.64,0.21-4.947,0.48-5.157,0.63
		c-0.183,0.18-1.11,1.68-2.07,3.36c-2.07,3.66-5.28,8.64-8.01,12.42c-1.11,1.53-2.013,3-2.013,3.27c0,0.24,0.33,0.9,0.75,1.44
		c1.2,1.56,2.763,5.25,3.33,7.83c0.36,1.71,0.513,3.72,0.513,7.05c0,5.16-0.423,7.41-1.83,10.02c-1.021,1.923-4.44,5.553-6.813,7.23
		c-4.107,2.94-10.41,5.46-14.46,5.76l-2.188,0.183v1.107c0,3.12,1.8,10.17,5.25,20.7c2.938,8.88,3.447,11.4,3.657,17.55
		c0.183,5.22-0.21,8.94-1.29,12c-0.42,1.143-0.81,2.313-0.897,2.58c-0.15,0.39,0.09,0.54,1.14,0.72c2.94,0.48,5.16,2.16,5.94,4.5
		c2.01,6.12-6.24,15.933-15.63,18.57c-0.9,0.24-3.33,1.05-5.4,1.771c-2.07,0.72-4.89,1.5-6.24,1.71
		c-1.317,0.237-2.43,0.54-2.43,0.72s0.54,0.78,1.2,1.32l1.2,0.987l3.81-0.688c3.39-0.603,4.83-0.69,11.94-0.69
		c7.02,0,8.58,0.09,11.697,0.66c9.54,1.74,16.383,4.89,21.303,9.84c1.8,1.771,4.407,5.25,4.737,6.271
		c0.063,0.18,6.933-0.84,16.593-2.46c9.06-1.53,16.827-2.763,17.25-2.763c0.987,0,1.107-0.117,8.697-9.897
		c6.99-9,11.553-14.521,23.643-28.65c10.979-12.84,14.31-16.5,19.438-21.45c6.723-6.479,8.46-7.38,11.34-6
		c0.75,0.36,1.44,0.603,1.53,0.513c0.09-0.093,0.36-1.143,0.603-2.343c0.72-3.447,2.067-6.777,5.697-14.13
		c1.893-3.777,3.42-7.08,3.42-7.317c0-0.33-0.447-0.42-1.857-0.42c-5.313,0-14.853-1.32-18.84-2.58
		c-5.013-1.563-6.9-3.99-5.58-7.143c0.51-1.199,2.67-3.479,3.33-3.479c0.6,0,0.567-0.57-0.063-1.29c-0.42-0.45-0.54-1.11-0.54-3.03
		c0.03-2.22,0.15-2.76,1.59-6.39c2.37-5.94,4.29-7.65,8.91-8.103c1.11-0.09,1.95-0.33,1.95-0.51s-0.21-0.87-0.45-1.53
		c-0.51-1.438-0.567-5.34-0.12-7.83c0.183-0.96,1.2-5.277,2.25-9.567c1.08-4.26,2.07-9.12,2.25-10.771
		c0.813-7.29-1.5-20.58-5.76-33.3c-0.81-2.46-1.59-5.07-1.68-5.79c-0.09-0.69-0.33-1.29-0.51-1.29
		C694.8,388.8,693.78,389.55,692.7,390.48z M665.7,489.3c4.92,0.603,8.7,1.95,10.89,3.87c2.37,2.1,3.84,6.99,2.91,9.75
		c-1.47,4.53-9.81,9.57-21.21,12.9c-6.9,2.01-12.57,2.76-26.49,3.63c-17.16,1.05-39.84,1.41-45.75,0.75
		c-5.55-0.63-9.51-2.16-12.21-4.71c-2.25-2.16-3.06-3.99-3.06-6.99c-0.03-1.98,0.12-2.55,0.96-4.29c1.14-2.31,2.7-3.69,5.397-4.77
		c1.65-0.66,1.98-0.69,9.603-0.603c8.607,0.09,12.06-0.09,24.21-1.438c9.33-1.053,10.107-1.17,21.03-3.75
		c15.147-3.603,20.938-4.563,27.567-4.62C661.53,489,664.32,489.15,665.7,489.3z M661.02,527.73c3.183,0.81,4.683,3.51,4.08,7.317
		c-0.84,5.22-3.357,7.771-10.47,10.5c-6.78,2.61-12.09,2.55-14.52-0.12c-3.12-3.447-0.813-10.08,4.92-14.1
		c2.489-1.771,4.317-2.49,8.16-3.3C656.34,527.37,659.16,527.25,661.02,527.73z M624.9,540.75c7.14,1.65,10.619,5.61,8.067,9.18
		c-1.38,1.95-5.85,4.11-11.52,5.553c-2.88,0.75-3.87,0.84-7.8,0.867c-4.922,0-6.843-0.39-8.79-1.857
		c-1.74-1.29-2.223-2.37-2.07-4.59c0.3-4.95,4.14-8.04,11.7-9.48C617.19,539.91,621.87,540.06,624.9,540.75z"/>
	<path id="structure50_label48_AuV" bar:growlevel="0" bar:type="" fill="#FFFDB2" d="M930.45,340.5
		c-23.91,6.78-43.53,12.3-43.563,12.3c-0.27,0,0.063,1.08,1.44,4.74c1.83,4.86,3.45,9.75,4.77,14.49
		c0.54,1.89,1.021,3.48,1.053,3.51c0.147,0.15,85.47-14.1,85.71-14.31c0.447-0.39-1.29-14.91-2.94-24.63
		c-1.47-8.64-1.35-8.25-2.22-8.31C974.28,328.26,954.39,333.75,930.45,340.5z"/>
	<path id="structure51_label49_Au1" bar:growlevel="0" bar:type="" fill="#FFFB00" d="M906.75,292.08
		c-20.61,15.87-35.73,27.69-35.79,27.99c-0.06,0.3,0.93,2.37,2.16,4.59c3.66,6.66,9.24,18.21,12.21,25.35
		c0.81,1.98,1.14,2.49,1.65,2.49c0.447,0,82.197-22.86,87.51-24.48c0.75-0.24,0.66-1.11-0.69-6.51c-2.46-9.69-5.7-18.3-9.51-25.23
		c-4.021-7.32-10.53-17.46-16.229-25.2c-1.561-2.16-3.271-4.5-3.778-5.22c-0.48-0.69-1.11-1.26-1.353-1.23
		C942.66,264.63,926.4,276.99,906.75,292.08z"/>
	<path id="structure52_label50_AuD" bar:growlevel="0" bar:type="" fill="#FFFA00" d="M885.63,265.38
		c-16.68,17.91-30.33,32.79-30.33,33.06c0,0.24,0.933,1.53,2.04,2.88c1.141,1.32,2.97,3.63,4.11,5.13
		c2.22,2.91,8.55,12.39,8.55,12.84c0,0.12,0.27,0.21,0.6,0.15c0.9-0.12,72-54.81,72-55.35c0-1.41-24.75-30.96-26.158-31.23
		C916.11,232.8,905.79,243.69,885.63,265.38z"/>
	<path id="structure53_label51_DS" bar:growlevel="0" bar:type="" fill="#D3FF00" d="M775.53,274.83
		c-7.62,0.93-18.66,6.09-22.83,10.65c-3.603,3.96-6.183,10.98-7.353,20.01c-1.8,14.04,1.17,19.65,11.883,22.26
		c9.81,2.37,15.81-0.06,31.77-12.84c4.86-3.93,7.74-5.04,11.37-4.41c5.397,0.93,11.25,5.19,21.78,15.96
		c9.897,10.08,15.51,16.62,21.09,24.45c1.438,2.04,2.7,3.69,2.818,3.69c0.479,0,17.102-10.05,17.25-10.41
		c0.182-0.48-2.698-5.49-6-10.44c-11.671-17.46-28.738-34.35-47.039-46.56c-9.842-6.57-17.762-10.53-23.642-11.79
		C783.48,274.71,778.5,274.44,775.53,274.83z"/>
	<path id="structure54_label52_PrS" bar:growlevel="0" bar:type="" fill="#E0FF59" d="M749.4,331.38
		c-11.313,9.99-18.303,16.41-18.303,16.77c0,0.57,13.5,14.55,14.07,14.55c0.93,0,6.9-5.31,14.76-13.17c4.38-4.38,8.4-8.58,8.91-9.3
		c1.83-2.52,1.17-5.19-1.857-7.62c-3.813-3.06-5.103-3.75-8.16-4.44C753.66,327.06,754.65,326.73,749.4,331.38z"/>
	<path id="structure55_label53_V2L" bar:growlevel="0" bar:type="" fill="#FDFFB2" d="M844.08,172.26
		c-1.68,2.61-48.18,82.86-48.18,83.16c0.027,0.18,2.34,1.62,5.188,3.18c15.813,8.76,29.94,18.15,40.11,26.67
		c1.89,1.59,5.729,5.13,8.55,7.89c2.79,2.79,5.16,5.04,5.25,5.01c0.09,0,13.8-14.7,30.45-32.64c20.91-22.5,30.3-32.82,30.3-33.271
		c0-0.84-9.75-11.13-18.15-19.2c-14.52-13.92-26.58-24.06-39.357-33c-5.82-4.05-12.75-8.46-13.32-8.46
		C844.71,171.6,844.32,171.9,844.08,172.26z"/>
	<path id="structure56_label54_V1B" bar:growlevel="0" bar:type="" fill="#FEFFB2" d="M748.74,179.01
		c-8.223,24.39-14.94,44.55-14.94,44.82c0,0.33,2.22,1.5,6.99,3.72c10.41,4.89,33.57,16.53,44.67,22.5c5.4,2.88,9.9,5.25,10.05,5.25
		c0.393-0.03,48.54-83.1,48.54-83.79c0-0.69-0.18-0.81-8.85-5.67c-13.71-7.68-32.58-16.59-48.3-22.83
		c-7.711-3.06-20.973-7.89-22.5-8.19C763.65,134.67,763.62,134.76,748.74,179.01z"/>
	<path id="structure57_label55_Post" bar:growlevel="0" bar:type="" fill="#D0FF00" d="M673.74,250.38
		c-10.17,9.21-17.34,15.96-17.34,16.26c0,0.36,1.14,1.11,3.6,2.43c4.71,2.49,8.25,4.65,10.59,6.36
		c5.43,4.05,12.36,11.73,20.94,23.22c1.737,2.31,5.76,7.56,9,11.7c3.21,4.11,9.27,12.03,13.47,17.55c4.17,5.52,8.4,10.98,9.42,12.15
		c4.021,4.62,6.9,7.65,7.29,7.65c0.21,0,3.21-2.52,6.63-5.64c3.45-3.09,8.55-7.65,11.4-10.11c2.817-2.49,5.13-4.65,5.13-4.8
		c0-0.18-0.75-0.63-1.682-1.02c-3.841-1.68-6.568-5.52-7.318-10.23c-1.11-7.23,1.83-21.54,5.7-27.69
		c0.688-1.05,1.229-2.07,1.229-2.22c0-0.18-1.08-0.39-2.46-0.45c-1.47-0.09-3.3-0.45-4.438-0.84
		c-7.353-2.55-19.74-10.98-27.303-18.57c-4.979-5.01-6.479-6.81-22.92-27.72c-1.647-2.1-3.147-3.81-3.3-3.78
		C691.2,234.63,683.25,241.71,673.74,250.38z"/>
	<path id="structure58_label56_V1M" bar:growlevel="0" bar:type="" fill="#FAFF00" d="M678.15,116.76
		c-0.54,3.18-9.75,80.04-9.69,80.79l0.09,0.9l11.7,4.11c17.58,6.21,28.2,10.44,45.21,18c4.08,1.8,7.59,3.24,7.8,3.18
		c0.271-0.09,30.24-88.32,30.24-89.1c0-0.33-12.39-4.14-22.29-6.84c-12.09-3.3-27.18-6.6-40.41-8.82
		c-5.67-0.96-21.028-3.18-22.02-3.18C678.51,115.8,678.27,116.19,678.15,116.76z"/>
	<path id="structure59_label57_V2ML" bar:growlevel="0" bar:type="" fill="#F8FF00" d="M636.6,113.37c0,0.6,11.4,78.75,11.49,78.81
		c0.03,0.03,1.08,0.27,2.313,0.51c1.229,0.27,5.67,1.62,9.81,2.97c4.17,1.35,7.65,2.37,7.74,2.31c0.24-0.27,10.107-81.57,9.96-81.99
		c-0.36-0.9-27.84-3.15-38.82-3.18C636.84,112.8,636.6,112.86,636.6,113.37z"/>
	<path id="structure5_label3_SubB" bar:growlevel="0" bar:type="" fill="#AF82FA" d="M696.75,459.51
		c-4.77,0.63-6.27,2.103-8.73,8.55c-1.92,5.013-2.037,8.28-0.327,9.36c0.357,0.24,2.76,0.78,5.31,1.23
		c10.561,1.8,15.811,3.117,19.08,4.71c1.05,0.51,1.979,0.87,2.04,0.81c0.3-0.33,12.18-24.27,12.18-24.54
		c0-0.51-0.688-0.39-2.489,0.45c-2.431,1.08-5.068,1.229-8.461,0.45C711.06,459.54,700.74,458.97,696.75,459.51z"/>
	<path id="structure60_label58_V2MM" bar:growlevel="0" bar:type="" fill="#FAFF59" d="M630.45,113.1
		c-13.44,0.69-25.62,3.27-38.04,8.1c-2.22,0.87-3.21,1.38-3.15,1.68c0.063,0.24,12.183,16.02,26.94,35.07
		c22.71,29.31,26.938,34.62,27.45,34.47c0.33-0.09,1.38-0.24,2.34-0.33c1.41-0.12,1.71-0.27,1.71-0.72
		c0-0.51-10.92-75.57-11.28-77.61c-0.15-0.75-0.33-0.96-0.84-0.9C635.25,112.86,632.91,112.98,630.45,113.1z"/>
	<path id="structure61_label59_RSD" bar:growlevel="0" bar:type="" fill="#EEF447" d="M585.45,124.38
		c-9.603,4.95-17.97,12.51-23.7,21.36c-3.93,6.12-7.35,15.69-7.71,21.66l-0.09,1.62l43.95,11.79c24.18,6.45,44.13,11.76,44.34,11.79
		c0.18,0,0.357-0.15,0.357-0.3c0-0.57-53.43-69.15-53.938-69.24C588.39,123.03,586.95,123.6,585.45,124.38z"/>
	<path id="structure62_label60_RSGc" bar:growlevel="0" bar:type="" fill="#FFFEB2" d="M553.62,171.51
		c-0.603,6.54,0.81,20.64,2.88,28.26l0.36,1.32l3.479-0.18c1.92-0.09,21.84-0.81,44.25-1.62c22.53-0.78,40.71-1.56,40.71-1.71
		s-0.479-0.78-1.05-1.41c-0.75-0.84-1.05-1.44-1.05-2.16v-0.99l-44.01-11.76c-24.24-6.479-44.343-11.85-44.7-11.94
		C553.89,169.14,553.83,169.29,553.62,171.51z"/>
	<path id="structure63_label61_RSGb" bar:growlevel="0" bar:type="" fill="#FFFE00" d="M599.55,199.65
		c-23.25,0.87-42.33,1.59-42.357,1.62c-0.78,0.33,2.729,10.2,5.729,16.17c2.88,5.76,5.49,9.33,10.41,14.22
		c2.609,2.61,4.65,4.44,4.979,4.44c0.33,0,4.74-1.89,9.87-4.23c28.353-12.9,52.23-22.26,64.32-25.17c2.22-0.54,4.229-1.02,4.44-1.08
		c1.38-0.39-1.08-2.37-6.962-5.64c-3.568-1.98-3.601-1.98-5.851-1.95C642.87,198.06,622.83,198.78,599.55,199.65z"/>
	<path id="structure64_label62_RSGa" bar:growlevel="0" bar:type="" fill="#FFFD59" d="M651.75,206.97
		c-12.78,3.33-34.74,11.91-61.65,24.12c-10.38,4.71-11.1,5.07-11.1,5.43c0,0.51,4.62,3.42,7.62,4.86c3.81,1.8,7.38,2.94,13.11,4.17
		c14.157,3.06,29.55,8.67,48.567,17.67c3.69,1.74,6.96,3.18,7.23,3.18c0.6,0,35.188-31.29,35.31-31.98
		c0.271-1.26-14.398-14.58-28.32-25.71C658.17,205.23,658.41,205.26,651.75,206.97z"/>
	<path id="structure65_label63_SuG" bar:growlevel="0" bar:type="" fill="#463BFF" d="M580.35,249.81
		c-5.64,0.72-13.737,3.06-17.607,5.1c-2.973,1.56-5.853,4.35-8.37,8.13c-3.45,5.16-5.91,10.47-7.353,15.93
		c-1.077,3.93-1.35,13.08-0.6,18.3c0.87,5.88,2.55,9.93,4.08,9.93c0.33,0,0.9-0.45,1.32-0.99c1.438-1.89,2.397-5.82,4.08-16.71
		c1.05-6.81,1.47-8.43,2.88-11.1c2.817-5.37,7.528-9.12,14.1-11.19c6.96-2.19,15-1.77,26.4,1.44c9.96,2.79,32.04,10.77,42.93,15.48
		c9.39,4.05,26.43,13.11,30.69,16.26c4.317,3.21,7.17,6.21,14.188,14.91c4.32,5.34,14.521,15.9,15.36,15.9
		c0.63,0,0.567-1.23-0.15-4.05c-0.75-2.91-2.817-7.29-5.7-12c-3.93-6.45-12.479-19.11-15.18-22.5
		c-5.43-6.78-14.16-14.61-21.36-19.14c-3.93-2.46-10.47-5.729-14.907-7.38c-7.11-2.7-8.343-3.21-15.24-6.51
		c-3.9-1.86-8.4-3.87-9.96-4.47c-7.771-2.91-24.51-5.61-34.2-5.49C583.29,249.66,580.86,249.75,580.35,249.81z"/>
	<path id="structure66_label64_Op" bar:growlevel="0" bar:type="" fill="#7C76E9" d="M578.85,266.13
		c-6.42,0.6-12.27,3.18-16.14,7.08c-4.11,4.14-5.16,6.66-6.66,16.14c-1.92,12.27-2.76,15.42-4.5,17.16
		c-0.81,0.81-0.99,1.29-1.17,2.85c-0.12,1.05-0.3,2.19-0.39,2.55c-0.42,1.74,2.397,0.12,4.47-2.55c0.75-0.93,2.91-4.35,4.83-7.62
		c5.64-9.42,8.97-13.71,12.9-16.47c3-2.1,5.188-2.73,9.51-2.7c8.188,0.03,20.37,2.73,43.2,9.63c18.63,5.64,30.06,10.92,45.27,20.94
		c7.11,4.71,27.42,19.5,34.38,25.08c1.98,1.56,2.853,2.01,2.853,1.44c0-0.15-0.271-1.32-0.603-2.61c-0.54-2.07-0.75-2.46-1.857-3.42
		c-6.422-5.43-12.271-11.43-18.303-18.87c-5.22-6.42-10.29-11.73-13.197-13.89c-4.32-3.21-20.61-11.97-29.79-16.02
		c-6.24-2.76-13.44-5.55-22.95-8.94c-19.563-6.96-27.21-9.12-34.83-9.81C582.15,265.77,582.33,265.77,578.85,266.13z"/>
	<path id="structure67_label65_InG" bar:growlevel="0" bar:type="" fill="#B5B2FF" d="M576.99,283.05
		c-5.973,1.68-10.353,6.36-17.73,18.9c-3.39,5.76-5.13,8.25-6.51,9.36c-1.89,1.5-1.62,1.59,4.92,1.59h5.97l0.21-2.04
		c0.45-4.29,1.95-8.52,3.69-10.35c1.92-2.07,7.62-4.08,13.35-4.74c16.38-1.92,43.23,6.93,66.813,21.99
		c21.18,13.56,59.79,47.1,63.54,55.2c0.27,0.63,0.72,1.14,0.988,1.14c0.421,0,0.512-0.54,0.659-3.54c0.12-2.85,0.33-4.08,1.08-6.51
		c0.54-1.65,1.05-3.3,1.143-3.66c0.09-0.42-0.36-1.74-1.353-3.75c-1.56-3.18-3.99-9.48-5.188-13.47l-0.723-2.28l-4.198-3.3
		c-8.699-6.84-26.852-20.04-34.199-24.87c-9-5.88-18.813-11.1-27.301-14.52c-9.21-3.72-32.521-10.68-44.552-13.35
		C588.45,282.84,580.23,282.12,576.99,283.05z"/>
	<path id="structure68_label66_InWh" bar:growlevel="0" bar:type="" fill="#0900E9" d="M578.88,296.13c-4.08,0.6-9,2.37-10.83,3.96
		c-1.857,1.56-3.54,5.94-3.96,10.17c-0.147,1.77-0.12,2.04,0.3,2.04c0.271,0,2.91-1.2,5.82-2.67c6.51-3.21,8.61-4.08,11.31-4.56
		c7.143-1.23,17.643,2.31,31.173,10.5c7.17,4.32,11.157,7.35,17.817,13.5c5.313,4.86,10.53,10.53,24.21,26.13
		c6.271,7.17,12.75,14.46,14.433,16.17c10.26,10.59,21.54,14.37,31.647,10.62c1.71-0.63,2.7-1.29,5.313-3.6
		c1.8-1.56,3.75-3.15,4.35-3.48c0.63-0.36,1.14-0.78,1.14-0.9c0.03-2.13-9.39-12.21-21.3-22.77
		c-18.567-16.47-34.89-28.95-48.147-36.84c-15.66-9.3-34.17-16.23-48.45-18.15C590.28,295.77,581.73,295.71,578.88,296.13z"/>
	<path fill="#3F3BE9" d="M699.99,382.59c-0.48,0.09-1.98,0.39-3.393,0.66c-5.22,1.02-11.97-0.45-17.58-3.81
		c-5.729-3.42-9.117-6.81-24.237-24.09c-18.723-21.42-25.74-28.47-35.13-35.25c-6.303-4.53-18.9-11.28-24.603-13.17
		c-4.438-1.47-7.229-1.92-11.188-1.77c-4.44,0.18-5.49,0.51-14.04,4.77l-6.631,3.27l-7.472-0.18c-6.42-0.18-7.62-0.27-8.58-0.75
		c-1.35-0.69-5.067-0.78-6.237-0.18c-0.359,0.188-0.616,0.257-0.9,0.236v32.606c1.577,0,3.152-0.128,6.06-0.383
		c3.36-0.27,9.603-0.6,13.922-0.66c12.061-0.24,15.238,0.3,22.471,3.78c10.14,4.89,17.489,10.71,20.34,16.14
		c1.47,2.79,3.06,7.68,3.66,11.16c0.87,4.92,0.39,23.73-0.78,31.08c-0.45,2.76-1.17,4.59-2.49,6.42
		c-1.229,1.683-1.92,3.24-3.027,7.021c-0.57,1.89-1.23,3.3-2.4,5.04c-0.9,1.317-1.65,2.52-1.65,2.67c0,0.39,1.052,0.357,5.882,0
		c16.561-1.29,27.028-3.84,44.971-11.01c19.199-7.65,34.59-16.29,45.21-25.353C700.65,383.55,701.94,382.2,699.99,382.59z"/>
	<path id="structure6_label4_MiTg" bar:growlevel="0" bar:type="" fill="#00FDFF" d="M687.3,478.23
		c-0.96,0.39-2.607,1.979-3.18,3.027c-0.24,0.45-0.42,1.53-0.42,2.37c0,1.47,0.09,1.65,1.29,2.82c1.438,1.35,4.14,2.397,8.46,3.27
		c3.688,0.723,10.14,1.38,13.857,1.38h3.393l1.5-3c0.81-1.647,1.5-3.21,1.5-3.447c0-1.563-9.42-4.053-24.9-6.603
		C688.38,477.99,687.72,478.08,687.3,478.23z"/>
	<path id="structure7_label5_ID" bar:growlevel="0" bar:type="" fill="#8453FA" d="M562.47,541.8c-1.83,0.33-2.85,0.87-4.77,2.61
		c-5.94,5.34-7.83,14.55-3.78,18.57c1.5,1.5,3.15,1.89,5.82,1.35c3.72-0.75,9.42-4.32,12.238-7.65c4.052-4.8,5.069-9.87,2.609-12.81
		c-1.5-1.771-2.82-2.19-6.99-2.25C565.53,541.56,563.22,541.65,562.47,541.8z"/>
	<path id="structure83_label82_rs" bar:growlevel="0" bar:type="" fill="#650BE1" d="M613.5,540.75c-6.69,1.41-9.99,4.08-10.65,8.58
		c-0.6,3.96,1.83,6.15,7.593,6.9c7.59,0.96,20.76-2.883,22.71-6.633c0.75-1.438,0.567-3.328-0.393-4.68
		c-1.05-1.438-3.81-2.97-6.81-3.81C623.19,540.36,616.29,540.15,613.5,540.75z"/>
	<path fill="#0700FF" d="M699.99,382.59c-0.48,0.09-1.98,0.39-3.393,0.66c-5.22,1.02-11.97-0.45-17.58-3.81
		c-5.729-3.42-9.117-6.81-24.237-24.09c-18.723-21.42-25.74-28.47-35.13-35.25c-6.303-4.53-18.9-11.28-24.603-13.17
		c-4.438-1.47-7.229-1.92-11.188-1.77c-4.44,0.18-5.49,0.51-14.04,4.77l-6.631,3.27l-7.472-0.18c-6.42-0.18-7.62-0.27-8.58-0.75
		c-1.35-0.69-5.067-0.78-6.237-0.18c-0.359,0.188-0.616,0.257-0.9,0.236v32.606c1.577,0,3.152-0.128,6.06-0.383
		c3.36-0.27,9.603-0.6,13.922-0.66c12.061-0.24,15.238,0.3,22.471,3.78c10.14,4.89,17.489,10.71,20.34,16.14
		c1.47,2.79,3.06,7.68,3.66,11.16c0.87,4.92,0.39,23.73-0.78,31.08c-0.45,2.76-1.17,4.59-2.49,6.42
		c-1.229,1.683-1.92,3.24-3.027,7.021c-0.57,1.89-1.23,3.3-2.4,5.04c-0.9,1.317-1.65,2.52-1.65,2.67c0,0.39,1.052,0.357,5.882,0
		c16.561-1.29,27.028-3.84,44.971-11.01c19.199-7.65,34.59-16.29,45.21-25.353C700.65,383.55,701.94,382.2,699.99,382.59z"/>
	<path id="structure8_label6_VTA" bar:growlevel="0" bar:type="" fill="#4423CB" d="M557.88,569.7c-3.24,0.27-8.58,1.08-8.82,1.35
		c-0.09,0.09,0.48,1.353,1.23,2.82s1.44,3.33,1.56,4.14c0.33,2.4,0.723,3.3,2.521,5.73c2.64,3.54,5.25,6.18,7.05,7.14l1.62,0.84
		l1.74-0.777c4.438-1.98,9.87-2.73,23.22-3.21c9.57-0.36,13.5-0.813,13.5-1.53c0-0.813-2.25-3.99-4.17-5.94
		c-5.25-5.34-12.87-8.7-22.95-10.107C570.36,569.58,562.05,569.37,557.88,569.7z"/>
	
		<text id="label30" bar:growlevel="0" transform="matrix(1 0 0 1 612.04 377.9609)" fill="#232323" enable-background="new    " font-family="'TimesNewRomanPSMT'" font-size="9">DpWh</text>
	
		<text id="label32" bar:growlevel="0" transform="matrix(1 0 0 1 584.6094 410.6973)" fill="#232323" enable-background="new    " font-family="'TimesNewRomanPSMT'" font-size="9">Me5</text>
	
		<text id="label33" bar:growlevel="0" transform="matrix(1 0 0 1 754.7344 561.9561)" fill="#232323" enable-background="new    " font-family="'TimesNewRomanPSMT'" font-size="9">CEnt</text>
	
		<text id="label34" bar:growlevel="0" transform="matrix(1 0 0 1 743.2578 515.5293)" fill="#232323" enable-background="new    " font-family="'TimesNewRomanPSMT'" font-size="9">PaS</text>
	
		<text id="label35" bar:growlevel="0" transform="matrix(1 0 0 1 805.2227 518.6279)" fill="#232323" enable-background="new    " font-family="'TimesNewRomanPSMT'" font-size="9">PrS</text>
	
		<text id="label36" bar:growlevel="0" transform="matrix(1 0 0 1 791.8799 416.2676)" fill="#232323" enable-background="new    " font-family="'TimesNewRomanPSMT'" font-size="9">MoDG</text>
	
		<text id="label37" bar:growlevel="0" transform="matrix(1 0 0 1 835.5898 402.3359)" fill="#232323" enable-background="new    " font-family="'TimesNewRomanPSMT'" font-size="9">MoS</text>
	
		<text id="label38" bar:growlevel="0" transform="matrix(1 0 0 1 846.2002 490.8008)" fill="#232323" enable-background="new    " font-family="'TimesNewRomanPSMT'" font-size="9">VS</text>
	
		<text id="label39" bar:growlevel="0" transform="matrix(1 0 0 1 881.6797 544.7207)" fill="#232323" enable-background="new    " font-family="'TimesNewRomanPSMT'" font-size="9">DIEnt</text>
	
		<text id="Unlabeled-2004-2031" bar:growlevel="0" transform="matrix(1 0 0 1 580.2002 619.7998)" fill="#232323" enable-background="new    " font-family="'TimesNewRomanPSMT'" font-size="9">DPPn</text>
	
		<text id="label140" bar:growlevel="0" transform="matrix(1 0 0 1 858.5195 306.3281)" fill="#232323" enable-background="new    " font-family="'TimesNewRomanPSMT'" font-size="9">dcw</text>
	
		<text id="label147" bar:growlevel="0" transform="matrix(1 0 0 1 591.1973 606.7725)" fill="#232323" enable-background="new    " font-family="'TimesNewRomanPSMT'" font-size="9">ml</text>
	
		<text id="label146" bar:growlevel="0" transform="matrix(1 0 0 1 586.2148 595.1191)" fill="#232323" enable-background="new    " font-family="'TimesNewRomanPSMT'" font-size="9">tth</text>
	
		<text id="label145" bar:growlevel="0" transform="matrix(1 0 0 1 546 580.0381)" fill="#232323" enable-background="new    " font-family="'TimesNewRomanPSMT'" font-size="9">IPA</text>
	
		<text id="label148" bar:growlevel="0" transform="matrix(1 0 0 1 554.2832 641.7871)" fill="#232323" enable-background="new    " font-family="'TimesNewRomanPSMT'" font-size="9">Pn</text>
	
		<text id="label133" bar:growlevel="0" transform="matrix(1 0 0 1 575.3389 434.2842)" fill="#232323" enable-background="new    " font-family="'TimesNewRomanPSMT'" font-size="9">Su3C</text>
	
		<text id="label0" bar:growlevel="0" transform="matrix(1 0 0 1 616.6797 510.6543)" fill="#232323" enable-background="new    " font-family="'TimesNewRomanPSMT'" font-size="9">RRF</text>
	
		<text id="label2" bar:growlevel="0" transform="matrix(1 0 0 1 643.8496 470.9473)" fill="#232323" enable-background="new    " font-family="'TimesNewRomanPSMT'" font-size="9">mRt</text>
	
		<text id="label3" bar:growlevel="0" transform="matrix(1 0 0 1 693.9395 473.3779)" fill="#232323" enable-background="new    " font-family="'TimesNewRomanPSMT'" font-size="9">SubB</text>
	
		<text id="label4" bar:growlevel="0" transform="matrix(1 0 0 1 688.0801 487.3105)" fill="#232323" enable-background="new    " font-family="'TimesNewRomanPSMT'" font-size="9">MiTg</text>
	
		<text id="label5" bar:growlevel="0" transform="matrix(1 0 0 1 559.748 555.083)" fill="#232323" enable-background="new    " font-family="'TimesNewRomanPSMT'" font-size="9">ID</text>
	
		<text id="label6" bar:growlevel="0" transform="matrix(1 0 0 1 572.9385 581.9229)" fill="#232323" enable-background="new    " font-family="'TimesNewRomanPSMT'" font-size="9">VTA</text>
	
		<text id="label82" bar:growlevel="0" transform="matrix(1 0 0 1 614.7598 549.9912)" fill="#232323" enable-background="new    " font-family="'TimesNewRomanPSMT'" font-size="9">rs</text>
	
		<text id="label138" bar:growlevel="0" transform="matrix(1 0 0 1 554.2822 593.2852)" fill="#232323" enable-background="new    " font-family="'TimesNewRomanPSMT'" font-size="9">IPDL</text>
	
		<text id="label139" bar:growlevel="0" transform="matrix(1 0 0 1 876.7305 365.1885)" fill="#232323" enable-background="new    " font-family="'TimesNewRomanPSMT'" font-size="9">alv</text>
	
		<text id="text3172" bar:growlevel="0" transform="matrix(1 0 0 1 761.9951 522.7607)" fill="#232323" enable-background="new    " font-family="'TimesNewRomanPSMT'" font-size="9">PaS</text>
	
		<text id="text3173" bar:growlevel="0" transform="matrix(1 0 0 1 759.0498 478.9492)" fill="#232323" enable-background="new    " font-family="'TimesNewRomanPSMT'" font-size="9">PrS</text>
	
		<text id="text3174" bar:growlevel="0" transform="matrix(1 0 0 1 750.8105 581.8633)" fill="#232323" enable-background="new    " font-family="'TimesNewRomanPSMT'" font-size="9">CEnt</text>
	
		<text id="label18" bar:growlevel="0" transform="matrix(1 0 0 1 644.5195 540.2598)" fill="#232323" enable-background="new    " font-family="'TimesNewRomanPSMT'" font-size="9">PTg</text>
	
		<text id="label19" bar:growlevel="0" transform="matrix(1 0 0 1 547.248 561.9561)" fill="#232323" enable-background="new    " font-family="'TimesNewRomanPSMT'" font-size="9">xscp</text>
	
		<text id="label13" bar:growlevel="0" transform="matrix(1 0 0 1 560.2734 524.1709)" fill="#232323" enable-background="new    " font-family="'TimesNewRomanPSMT'" font-size="9">ts</text>
	
		<text id="label11" bar:growlevel="0" transform="matrix(1 0 0 1 542.1777 625.459)" fill="#232323" enable-background="new    " font-family="'TimesNewRomanPSMT'" font-size="9">IPC</text>
	
		<text id="label16" bar:growlevel="0" transform="matrix(1 0 0 1 548.8359 466.9346)" fill="#232323" enable-background="new    " font-family="'TimesNewRomanPSMT'" font-size="9">3N</text>
	
		<text id="label17" bar:growlevel="0" transform="matrix(1 0 0 1 570.4297 472.5479)" fill="#232323" enable-background="new    " font-family="'TimesNewRomanPSMT'" font-size="9">InC</text>
	
		<text id="label14" bar:growlevel="0" transform="matrix(1 0 0 1 546.1191 532.0625)" fill="#232323" enable-background="new    " font-family="'TimesNewRomanPSMT'" font-size="9">CLi</text>
	
		<text id="label165" bar:growlevel="0" transform="matrix(1 0 0 1 551.7324 416.2676)" fill="#232323" enable-background="new    " font-family="'TimesNewRomanPSMT'" font-size="9">VLPAG</text>
	
		<text id="label167" bar:growlevel="0" transform="matrix(1 0 0 1 603.0098 410.3467)" fill="#232323" enable-background="new    " font-family="'TimesNewRomanPSMT'" font-size="9">me5</text>
	
		<text id="label67" bar:growlevel="0" transform="matrix(1 0 0 1 613 342.4346)" fill="#232323" enable-background="new    " font-family="'TimesNewRomanPSMT'" font-size="9">DpG</text>
	
		<text id="label66" bar:growlevel="0" transform="matrix(1 0 0 1 622.9697 318.0605)" fill="#232323" enable-background="new    " font-family="'TimesNewRomanPSMT'" font-size="9">InWh</text>
	
		<text id="label65" bar:growlevel="0" transform="matrix(1 0 0 1 614.0498 299.9502)" fill="#232323" enable-background="new    " font-family="'TimesNewRomanPSMT'" font-size="9">InG</text>
	
		<text id="label64" bar:growlevel="0" transform="matrix(1 0 0 1 608.0801 283.0625)" fill="#232323" enable-background="new    " font-family="'TimesNewRomanPSMT'" font-size="9">Op</text>
	
		<text id="label63" bar:growlevel="0" transform="matrix(1 0 0 1 596.3799 263.9023)" fill="#232323" enable-background="new    " font-family="'TimesNewRomanPSMT'" font-size="9">SuG</text>
	
		<text id="label62" bar:growlevel="0" transform="matrix(1 0 0 1 635.7695 237.2617)" fill="#232323" enable-background="new    " font-family="'TimesNewRomanPSMT'" font-size="9">RSGa</text>
	
		<text id="label61" bar:growlevel="0" transform="matrix(1 0 0 1 592.9297 214.9678)" fill="#232323" enable-background="new    " font-family="'TimesNewRomanPSMT'" font-size="9">RSGb</text>
	
		<text id="label60" bar:growlevel="0" transform="matrix(1 0 0 1 581.5303 194.0684)" fill="#232323" enable-background="new    " font-family="'TimesNewRomanPSMT'" font-size="9">RSGc</text>
	
		<text id="Unlabeled-1842-1984" bar:growlevel="0" transform="matrix(1 0 0 1 562.2002 620.7002)" fill="#232323" enable-background="new    " font-family="'TimesNewRomanPSMT'" font-size="9">grey</text>
	
		<text id="label48" bar:growlevel="0" transform="matrix(1 0 0 1 925.7695 358.1074)" fill="#232323" enable-background="new    " font-family="'TimesNewRomanPSMT'" font-size="9">AuV</text>
	
		<text id="label136" bar:growlevel="0" transform="matrix(1 0 0 1 739.0303 244.3477)" fill="#FF0000" enable-background="new    " font-family="'TimesNewRomanPSMT'" font-size="9">.LV</text>
	
		<text id="label137" bar:growlevel="0" transform="matrix(1 0 0 1 560.6016 607.5645)" fill="#232323" enable-background="new    " font-family="'TimesNewRomanPSMT'" font-size="9">IPL</text>
	
		<text id="label134" bar:growlevel="0" transform="matrix(1 0 0 1 570.1299 247.9688)" fill="#232323" enable-background="new    " font-family="'TimesNewRomanPSMT'" font-size="9">Zo</text>
	
		<text id="label135" bar:growlevel="0" transform="matrix(1 0 0 1 542.9424 427.7695)" fill="#232323" enable-background="new    " font-family="'TimesNewRomanPSMT'" font-size="9">EW</text>
	
		<text id="label41" bar:growlevel="0" transform="matrix(1 0 0 1 787.75 593.0088)" fill="#232323" enable-background="new    " font-family="'TimesNewRomanPSMT'" font-size="9">MEnt</text>
	
		<text id="label40" bar:growlevel="0" transform="matrix(1 0 0 1 836.46 575.3662)" fill="#232323" enable-background="new    " font-family="'TimesNewRomanPSMT'" font-size="9">VIEnt</text>
	
		<text id="label43" bar:growlevel="0" transform="matrix(1 0 0 1 915.6387 462.9258)" fill="#232323" enable-background="new    " font-family="'TimesNewRomanPSMT'" font-size="9">PRh</text>
	
		<text id="label42" bar:growlevel="0" transform="matrix(1 0 0 1 903.0898 499.6729)" fill="#232323" enable-background="new    " font-family="'TimesNewRomanPSMT'" font-size="9">DLEnt</text>
	
		<text id="label45" bar:growlevel="0" transform="matrix(1 0 0 1 930.6582 394.3145)" fill="#232323" enable-background="new    " font-family="'TimesNewRomanPSMT'" font-size="9">TeA</text>
	
		<text id="label44" bar:growlevel="0" transform="matrix(1 0 0 1 927.1094 432.9707)" fill="#232323" enable-background="new    " font-family="'TimesNewRomanPSMT'" font-size="9">Ect</text>
	
		<text id="label47" bar:growlevel="0" transform="matrix(1 0 0 1 862.4697 379.9219)" fill="#232323" enable-background="new    " font-family="'TimesNewRomanPSMT'" font-size="9">CA1</text>
	
		<text id="label56" bar:growlevel="0" transform="matrix(1 0 0 1 699.6797 170.7236)" fill="#232323" enable-background="new    " font-family="'TimesNewRomanPSMT'" font-size="9">V1M</text>
	
		<text id="label57" bar:growlevel="0" transform="matrix(1 0 0 1 645.7402 158.1914)" fill="#232323" enable-background="new    " font-family="'TimesNewRomanPSMT'" font-size="9">V2ML</text>
	
		<text id="label54" bar:growlevel="0" transform="matrix(1 0 0 1 775.5898 199.6377)" fill="#232323" enable-background="new    " font-family="'TimesNewRomanPSMT'" font-size="9">V1B</text>
	
		<text id="label55" bar:growlevel="0" transform="matrix(1 0 0 1 696.71 286.7031)" fill="#232323" enable-background="new    " font-family="'TimesNewRomanPSMT'" font-size="9">Post</text>
	
		<text id="label52" bar:growlevel="0" transform="matrix(1 0 0 1 744.0801 347.3057)" fill="#232323" enable-background="new    " font-family="'TimesNewRomanPSMT'" font-size="9">PrS</text>
	
		<text id="label53" bar:growlevel="0" transform="matrix(1 0 0 1 847.2197 240.3857)" fill="#232323" enable-background="new    " font-family="'TimesNewRomanPSMT'" font-size="9">V2L</text>
	
		<text id="label50" bar:growlevel="0" transform="matrix(1 0 0 1 887.8906 281.9492)" fill="#232323" enable-background="new    " font-family="'TimesNewRomanPSMT'" font-size="9">AuD</text>
	
		<text id="label51" bar:growlevel="0" transform="matrix(1 0 0 1 764.7402 303.4277)" fill="#232323" enable-background="new    " font-family="'TimesNewRomanPSMT'" font-size="9">DS</text>
	
		<text id="label58" bar:growlevel="0" transform="matrix(1 0 0 1 617.4805 145.0938)" fill="#232323" enable-background="new    " font-family="'TimesNewRomanPSMT'" font-size="9">V2MM</text>
	
		<text id="label59" bar:growlevel="0" transform="matrix(1 0 0 1 589.2197 166.2061)" fill="#232323" enable-background="new    " font-family="'TimesNewRomanPSMT'" font-size="9">RSD</text>
	
		<text id="label125" bar:growlevel="0" transform="matrix(1 0 0 1 697.46 595.6299)" fill="#232323" enable-background="new    " font-family="'TimesNewRomanPSMT'" font-size="9">s5</text>
	
		<text id="label124" bar:growlevel="0" transform="matrix(1 0 0 1 676.1797 619.8633)" fill="#232323" enable-background="new    " font-family="'TimesNewRomanPSMT'" font-size="9">m5</text>
	
		<text id="label127" bar:growlevel="0" transform="matrix(1 0 0 1 555.2998 659.125)" fill="#232323" enable-background="new    " font-family="'TimesNewRomanPSMT'" font-size="9">tfp</text>
	
		<text id="label126" bar:growlevel="0" transform="matrix(1 0 0 1 647.5098 575.4258)" fill="#232323" enable-background="new    " font-family="'TimesNewRomanPSMT'" font-size="9">cp</text>
	
		<text id="label121" bar:growlevel="0" transform="matrix(1 0 0 1 735.6299 268.5908)" fill="#232323" enable-background="new    " font-family="'TimesNewRomanPSMT'" font-size="9">dhc</text>
	
		<text id="label120" bar:growlevel="0" transform="matrix(1 0 0 1 669.2402 210.4297)" fill="#232323" enable-background="new    " font-family="'TimesNewRomanPSMT'" font-size="9">fmj</text>
	
		<text id="label123" bar:growlevel="0" transform="matrix(1 0 0 1 725.7695 416.2578)" fill="#232323" enable-background="new    " font-family="'TimesNewRomanPSMT'" font-size="9">bic</text>
	
		<text id="label122" bar:growlevel="0" transform="matrix(1 0 0 1 743.79 281.4766)" fill="#232323" enable-background="new    " font-family="'TimesNewRomanPSMT'" font-size="9">alv</text>
	
		<text id="label129" bar:growlevel="0" transform="matrix(1 0 0 1 542.1777 673.0713)" fill="#232323" enable-background="new    " font-family="'TimesNewRomanPSMT'" font-size="9">bas</text>
	
		<text id="label23" bar:growlevel="0" transform="matrix(1 0 0 1 543.9004 439.376)" fill="#232323" enable-background="new    " font-family="'TimesNewRomanPSMT'" font-size="9">DR</text>
	
		<text id="label22" bar:growlevel="0" transform="matrix(1 0 0 1 566.9424 444.9102)" fill="#232323" enable-background="new    " font-family="'TimesNewRomanPSMT'" font-size="9">Su3</text>
	
		<text id="label21" bar:growlevel="0" transform="matrix(1 0 0 1 551.1602 450.6338)" fill="#232323" enable-background="new    " font-family="'TimesNewRomanPSMT'" font-size="9">3PC</text>
	
		<text id="label20" bar:growlevel="0" transform="matrix(1 0 0 1 607.9805 582.0469)" fill="#232323" enable-background="new    " font-family="'TimesNewRomanPSMT'" font-size="9">B9</text>
	
		<text id="label27" bar:growlevel="0" transform="matrix(1 0 0 1 571.3203 385.127)" fill="#232323" enable-background="new    " font-family="'TimesNewRomanPSMT'" font-size="9">DLPAG</text>
	
		<text id="label26" bar:growlevel="0" transform="matrix(1 0 0 1 568.5098 400.7178)" fill="#232323" enable-background="new    " font-family="'TimesNewRomanPSMT'" font-size="9">LPAG</text>
	
		<text id="label25" bar:growlevel="0" transform="matrix(1 0 0 1 705.9297 420.7988)" fill="#232323" enable-background="new    " font-family="'TimesNewRomanPSMT'" font-size="9">BIC</text>
	
		<text id="label29" bar:growlevel="0" transform="matrix(1 0 0 1 543.9004 395.915)" fill="#232323" enable-background="new    " font-family="'TimesNewRomanPSMT'" font-size="9">Aq</text>
	
		<text id="label28" bar:growlevel="0" transform="matrix(1 0 0 1 556.5742 360.2998)" fill="#232323" enable-background="new    " font-family="'TimesNewRomanPSMT'" font-size="9">DMPAG</text>
	
		<text id="label49" bar:growlevel="0" transform="matrix(1 0 0 1 913.04 320.4912)" fill="#232323" enable-background="new    " font-family="'TimesNewRomanPSMT'" font-size="9">Au1</text>
	
		<text id="label150" bar:growlevel="0" transform="matrix(1 0 0 1 547.248 602.4004)" fill="#232323" enable-background="new    " font-family="'TimesNewRomanPSMT'" font-size="9">IPI</text>
	
		<text id="label152" bar:growlevel="0" transform="matrix(1 0 0 1 547.9688 491.3574)" fill="#232323" enable-background="new    " font-family="'TimesNewRomanPSMT'" font-size="9">mlf</text>
</g>
</svg>
