<?xml version="1.0" encoding="utf-8"?>
<!-- Generator: Adobe Illustrator 16.0.0, SVG Export Plug-In . SVG Version: 6.00 Build 0)  -->
<!DOCTYPE svg PUBLIC "-//W3C//DTD SVG 1.1//EN" "http://www.w3.org/Graphics/SVG/1.1/DTD/svg11.dtd">
<svg version="1.1"
	 id="body" xmlns:bar="http://www.3dbar.org" xmlns:cc="http://creativecommons.org/ns#" xmlns:dc="http://purl.org/dc/elements/1.1/" xmlns:inkscape="http://www.inkscape.org/namespaces/inkscape" xmlns:rdf="http://www.w3.org/1999/02/22-rdf-syntax-ns#" xmlns:sodipodi="http://sodipodi.sourceforge.net/DTD/sodipodi-0.dtd" xmlns:svg="http://www.w3.org/2000/svg" sodipodi:docname="148_pretrace_pretrace_v1.svg" inkscape:version="0.47pre4 r22446"
	 xmlns="http://www.w3.org/2000/svg" xmlns:xlink="http://www.w3.org/1999/xlink" x="0px" y="0px" width="1008px" height="1008px"
	 viewBox="0 0 1008 1008" enable-background="new 0 0 1008 1008" xml:space="preserve">
<sodipodi:namedview  showgrid="false" pagecolor="#ffffff" objecttolerance="10" inkscape:zoom="3.0301352" inkscape:cy="702.31229" inkscape:cx="442.20833" id="namedview392" guidetolerance="10" gridtolerance="10" borderopacity="1" bordercolor="#666666" inkscape:window-x="1680" inkscape:window-width="1918" inkscape:pageopacity="0" inkscape:object-paths="true" inkscape:current-layer="content" inkscape:window-maximized="1" inkscape:window-height="1128" inkscape:pageshadow="2" inkscape:window-y="24">
	</sodipodi:namedview>
<title  id="title3">SVG drawing</title>
<desc  id="desc5">This was produced by version 4.2 of GNU libplot, a free library for exporting 2-D vector graphics.</desc>
<defs>
	
	<rdf:RDF>
		<cc:Work  rdf:about="">
			<dc:format>image/svg+xml</dc:format>
			<dc:type  rdf:resource="http://purl.org/dc/dcmitype/StillImage"></dc:type>
		</cc:Work>
	</rdf:RDF>
	<bar:data  name="coronalcoord" content="-8.64"></bar:data>
	
		<bar:data  name="rendererConf" content="{&apos;ReferenceHeight&apos;: 900, &apos;ReferenceWidth&apos;: 1200, &apos;imageSize&apos;: (1200, 900)}">
		</bar:data>
	
		<bar:data  name="tracingConf" content="{&apos;DumpEachStepSVG&apos;: False, &apos;DumpEachStepPNG&apos;: False, &apos;GrowDefaultBoundaryColor&apos;: 200, &apos;CacheLevel&apos;: 5, &apos;NewPathIdTemplate&apos;: &apos;structure%d_%s_%s&apos;, &apos;PoTraceConf&apos;: {&apos;potrace_accuracy_parameter&apos;: &apos;0.001&apos;, &apos;potrace_width_string&apos;: &apos;1200pt&apos;, &apos;potrace_svg_resolution_string&apos;: &apos;300x300&apos;, &apos;potrace_height_string&apos;: &apos;900pt&apos;}, &apos;DetectUnlabelled&apos;: True, &apos;DumpVBrain&apos;: False, &apos;DumpWrongSeed&apos;: True, &apos;DumpDirectory&apos;: &apos;.&apos;, &apos;MinFiterTimesApplication&apos;: 3, &apos;RegionAlreadyTraced&apos;: 100, &apos;UnlabelledTreshold&apos;: 500}">
		</bar:data>
	<bar:data  name="transformationmatrix" content="0.0176211454,-9.5150660793,0.0176211454,-1.5355884426"></bar:data>
</defs>
<g id="content">
	<path fill="#FF000C" d="M912.87,337.65c-2.88-21.63-15.66-56.37-30.36-82.65c-10.05-18-30.72-40.08-57.66-61.71
		c-14.789-11.85-25.68-18.99-46.05-30.18c-18.18-9.96-32.607-15.33-49.95-18.48c-7.77-1.44-11.907-1.86-20.1-2.04
		c-15.9-0.36-35.97,2.07-50.64,6.09c-4.23,1.17-4.38,1.23-11.013,4.32c-14.25,6.66-22.77,13.02-27.93,20.79
		c-3.33,5.1-4.648,9.9-4.38,15.96c0.21,4.35,1.08,7.65,3.21,12c4.021,8.22,10.17,14.82,23.7,25.32c6.99,5.43,8.608,6.93,7.41,6.93
		c-0.24,0-1.771-0.75-3.393-1.68c-6.3-3.57-13.77-7.05-18.479-8.64c-9.33-3.15-21.87-1.71-32.91,3.78
		c-5.37,2.64-30.54,19.59-45,30.3c-5.863,4.342-7.011,5.063-8.847,5.148l1.697,452.975c0.734-0.222,1.368-0.612,2.14-1.283
		c1.438-1.26,1.68-2.55,0.75-4.17c-0.36-0.688-0.603-1.29-0.512-1.38c0.092-0.09,1.5,0.03,3.119,0.271
		c8.79,1.29,35.763,2.79,44.973,2.489c9.84-0.302,20.79-2.972,34.35-8.369c12.21-4.86,21.81-10.65,44.25-26.643
		c7.5-5.37,13.17-9.81,22.14-17.37c5.521-4.619,6.513-5.369,8.4-6.06c5.55-2.04,14.61-6.54,27.03-13.47
		c11.55-6.42,15.18-8.973,20.97-14.79c7.5-7.53,13.65-17.28,16.53-26.28c1.527-4.83,2.938-11.61,3.688-17.88
		c0.393-3.42,0.511-6.78,0.511-13.95c0-8.25-0.091-9.99-0.658-13.65c-1.5-9.567-4.65-19.617-8.25-26.31l-1.262-2.34l0.689-3.21
		c2.97-13.86,3.15-14.94,3.15-17.94c0-2.58-0.12-3.39-0.961-5.85c-2.432-7.17-7.021-11.82-11.671-11.761
		c-2.551,0.028-5.608,1.648-8.551,4.618c-1.29,1.29-2.46,2.343-2.607,2.343c-0.603,0-0.69-1.95-0.421-10.32
		c0.421-13.86,0.301-21.96-0.449-28.32c-1.2-10.2-1.29-10.5-5.82-20.04c-3.54-7.38-3.63-7.857-3.66-15.567
		c0-6.271,0.63-14.853,1.08-14.853c0.12,0,1.17,0.69,2.28,1.563c3.99,3,8.88,4.857,11.04,4.14c1.318-0.45,2.55-1.89,2.55-3.03
		c0-3.39-7.41-9.42-12.899-10.5c-2.039-0.39-1.921-0.06-1.171-3.72c0.48-2.43,0.69-13.92,0.303-19.2
		c-0.933-12.99-2.433-26.61-3.78-34.38c-0.87-4.83-0.87-5.07-0.36-5.07c0.182,0,1.08,1.92,1.98,4.29
		c3.51,9.33,9.54,22.32,12.028,26.04c0.722,1.05,3.96,5.55,7.199,10.02c10.44,14.4,14.313,20.16,17.91,26.729
		c2.939,5.313,4.08,8.58,8.939,25.17c6.688,22.98,9.778,32.07,13.199,38.82c1.562,3.12,4.892,7.92,8.012,11.58
		c9.329,10.92,22.857,19.8,35.158,23.13c12,3.24,21.602,2.19,31.021-3.36c6.479-3.84,13.5-10.947,18.75-19.02
		c2.01-3.09,4.649-7.92,5.7-10.35c2.397-5.58,7.92-19.383,8.938-22.353c2.61-7.5,4.83-18.66,5.643-28.26
		c0.357-4.2,0.81-5.61,4.857-15.271c4.08-9.75,4.98-13.68,5.7-24.72C914.67,367.74,913.95,345.6,912.87,337.65z M731.79,314.34
		c-1.83,2.28-3.33,5.46-3.9,8.43c-0.3,1.44-0.63,2.43-0.84,2.43s-0.54-0.81-0.75-1.86c-0.54-2.82-3.42-13.14-4.8-17.19
		c-0.66-1.95-1.2-3.81-1.2-4.11c0-0.87,0.69-0.6,1.59,0.6c2.49,3.33,7.353,7.59,10.2,8.94c0.603,0.3,1.11,0.66,1.11,0.81
		C733.2,312.51,732.57,313.41,731.79,314.34z"/>
	<path fill="#FF000C" d="M562.53,209.01c-4.973-4.763-11.7-6.809-22.274-6.778l0.169,45.087c4.143-0.004,4.845-0.084,7.165-0.81
		c3.393-1.05,7.53-3,10.68-5.1c4.803-3.12,9.87-8.25,11.49-11.55C572.67,223.95,569.94,216.12,562.53,209.01z"/>
	<path id="structure3_label138_vBrain" bar:type="" bar:growlevel="0" fill="#FF000C" d="M747.75,381.87
		c-0.66,0.3-1.5,0.87-1.86,1.26c-1.62,1.77-2.067,5.04-1.02,7.38c1.17,2.52,4.2,4.59,6.75,4.59c2.49-0.03,4.979-2.22,5.58-4.89
		c0.567-2.46-0.15-4.62-2.19-6.63C752.73,381.33,750.21,380.73,747.75,381.87z"/>
	<path id="structure5_label138_vBrain" bar:type="" bar:growlevel="0" fill="#FF000C" d="M751.32,459.42
		c-2.013,0.9-2.91,3.063-2.013,4.89c0.69,1.41,1.771,2.19,3.33,2.4c0.78,0.12,1.263,0.33,1.263,0.57c0,0.239-0.12,0.42-0.24,0.42
		s-0.45,0.39-0.75,0.87c-1.08,1.857-0.3,4.29,1.68,5.22c1.771,0.84,3.15,0.51,4.71-1.14c0.75-0.813,0.933-2.37,0.45-4.08
		c-0.18-0.723-0.12-0.813,0.84-0.99c1.44-0.271,2.61-1.68,2.61-3.15c0-1.29-0.603-2.25-1.8-2.88c-1.17-0.6-2.07-0.567-3.24,0.15
		c-1.29,0.78-1.38,0.78-1.95-0.48c-0.36-0.72-0.898-1.229-1.8-1.62C752.91,458.91,752.55,458.88,751.32,459.42z"/>
	<path id="structure105_label100_ECIC" bar:type="" bar:growlevel="0" fill="#0035FF" d="M635.1,228.03c0,0.15,1.11,1.56,2.49,3.06
		c11.07,12.33,23.34,31.17,32.01,49.2c8.131,16.92,14.91,36.96,17.853,52.86c2.58,13.98,2.1,25.08-1.59,35.37
		c-1.263,3.54-8.433,18.03-11.343,22.89c-3.96,6.63-9.688,13.38-14.01,16.438c-0.93,0.66-1.71,1.353-1.71,1.53
		c0,0.15,1.26,0.603,2.79,0.96c8.61,2.01,14.73,2.01,22.86-0.09c14.188-3.63,33-14.7,45.42-26.7l3.39-3.3l-0.18-3.3
		c-1.59-26.13-4.62-45.81-9.96-64.38c-2.97-10.44-5.103-15.48-8.67-20.52c-9-12.81-16.353-20.1-35.853-35.7
		c-21.06-16.83-25.29-19.77-37.83-26.34C636.63,227.82,635.1,227.28,635.1,228.03z M665.1,248.52
		c9.12,7.26,28.263,25.62,33.03,31.68c10.98,13.89,16.8,26.52,18.84,40.8c2.37,16.68,1.11,39.09-3,53.37
		c-1.71,5.94-3.63,9.69-5.64,11.04c-1.29,0.87-1.59,0.87-2.64-0.03c-0.78-0.69-0.843-0.87-0.78-2.79c0.03-1.11,0.72-5.55,1.56-9.84
		c1.86-9.6,2.55-13.83,3.33-20.4c1.83-15.87,1.53-26.97-1.05-37.2c-1.35-5.37-2.73-8.97-5.88-15.33
		c-5.07-10.29-9.33-15.72-30.063-38.46c-13.527-14.85-17.31-19.11-17.31-19.62C655.5,241.41,661.56,245.67,665.1,248.52z"/>
	<path id="structure110_label108_v" bar:type="" bar:growlevel="0" fill="#863BE9" d="M747.36,382.11
		c-2.7,1.32-3.813,5.52-2.28,8.58c0.688,1.38,2.16,2.85,3.54,3.57c1.77,0.9,4.8,0.69,6.33-0.48c3.81-2.91,2.55-9.81-2.16-11.79
		C751.47,381.45,748.56,381.51,747.36,382.11z"/>
	<path id="structure111_label109_4n" bar:type="" bar:growlevel="0" fill="#FF00FE" d="M732.18,396.33
		c-0.18,0.57-1.08,6.09-1.08,6.688c0,0.603,2.82,2.853,5.343,4.29c3.84,2.16,7.26,2.73,9.06,1.5c2.31-1.56,1.89-3.84-1.32-6.987
		c-3.12-3.063-7.29-5.37-10.38-5.73C732.69,395.97,732.27,396.03,732.18,396.33z"/>
	<path id="structure112_label110_a" bar:type="" bar:growlevel="0" fill="#E547D8" d="M750.84,459.78
		c-1.08,0.567-1.74,1.89-1.74,3.45c0,0.987,0.183,1.407,1.021,2.25c0.87,0.867,1.229,1.02,2.43,1.02c3.69,0,5.37-3.78,2.7-6.24
		c-0.84-0.777-1.29-0.96-2.31-0.96C752.22,459.33,751.29,459.51,750.84,459.78z"/>
	<path id="structure113_label111_a" bar:type="" bar:growlevel="0" fill="#E547D8" d="M754.53,467.19
		c-1.23,0.63-1.92,1.857-1.92,3.39c0,1.229,0.12,1.53,1.08,2.43c0.96,0.84,1.317,0.99,2.64,0.99c1.35,0,1.65-0.12,2.55-1.02
		c0.87-0.87,1.021-1.23,1.021-2.49c0-0.84-0.21-1.74-0.48-2.13C758.43,466.95,756.09,466.38,754.53,467.19z"/>
	<path id="structure114_label112_a" bar:type="" bar:growlevel="0" fill="#E547D8" d="M757.89,461.85
		c-0.96,0.69-1.407,2.313-0.987,3.603c0.447,1.41,1.317,1.95,3.09,1.95c1.59,0,2.729-0.813,3.09-2.223
		c0.271-1.08-0.09-2.188-0.93-3.06c-0.57-0.57-1.053-0.72-2.16-0.72C759.18,461.4,758.25,461.61,757.89,461.85z"/>
	<path fill="#00E945" d="M755.43,487.26c-1.197-0.688-1.71-0.81-3.777-0.81c-2.763,0-4.41,0.688-6.96,2.88
		c-3.99,3.45-5.313,5.729-12.54,21.72c-1.92,4.29-4.563,10.08-5.853,12.9c-2.52,5.49-3.479,8.55-4.62,14.85
		c-1.438,7.98-1.71,13.41-0.897,19.353c0.6,4.35,0.66,10.107,0.147,12.75c-0.54,2.76-1.56,5.157-4.527,10.647
		c-1.44,2.643-4.08,7.5-5.853,10.8c-4.08,7.593-4.35,8.013-7.02,10.23c-1.2,1.02-2.46,2.25-2.763,2.7
		c-0.3,0.479-1.317,3.63-2.31,7.02c-3.6,12.36-9.36,31.71-10.05,33.75c-1.74,4.95-3.21,7.353-5.07,8.16
		c-0.63,0.271-1.14,0.66-1.14,0.81c0,0.78-1.83,4.053-3,5.37c-2.521,2.853-6.57,5.19-16.771,9.63
		c-7.949,3.48-12.06,5.07-13.647,5.223c-1.17,0.12-2.07,0.54-4.2,1.92c-3.48,2.28-11.521,6.21-15.03,7.38
		c-2.88,0.93-4.95,1.438-10.95,2.61c-2.067,0.39-6.63,1.527-10.17,2.55c-3.54,0.989-6.6,1.8-6.84,1.8c-0.51,0-0.51,0.75,0.03,1.2
		c0.87,0.688,1.47,2.91,1.29,4.62c-0.21,2.188-1.5,4.8-2.73,5.55c-2.43,1.5-7.647,2.04-15.33,1.56
		c-7.5-0.51-15.688-1.857-29.698-5.01c-7.892-1.771-9-2.13-10.021-3.3l-0.84-0.931l-0.181-20.972
		c-0.182-22.528-0.689-50.25-1.079-60.72c-0.183-5.07-0.33-6.66-0.723-7.41c-0.15-0.289-0.338-0.556-0.542-0.795l0.388,102.711
		l2.437,0.414c10.65,1.8,43.32,3.66,51.42,2.91c15-1.41,35.46-8.73,50.34-18c10.32-6.45,28.683-19.352,36.66-25.71
		c4.143-3.33,13.23-10.86,14.46-12c0.36-0.33,0.36-0.57,0.03-1.59c-0.33-1.021-0.3-1.563,0.12-3.78c0.75-3.69,2.58-9.271,5.31-16.11
		c5.4-13.56,8.61-20.43,10.563-22.647c0.84-0.96,0.988-1.021,2.277-0.842l1.383,0.149l4.857-8.16
		c6.063-10.26,7.8-13.38,13.08-23.489c9.42-18.061,19.32-39.238,23.34-49.948c1.95-5.131,5.37-21.512,5.37-25.591
		C763.8,497.19,760.14,490.02,755.43,487.26z"/>
	<path id="structure116_label114_s5" bar:type="" bar:growlevel="0" fill="#AF8EDC" d="M758.73,528.69
		c-3.063,8.367-9.183,21.72-18.69,40.71c-7.86,15.75-11.521,22.47-18.42,33.96c-2.79,4.62-4.62,7.979-4.62,8.46
		c0,0.42-0.87,2.91-1.92,5.487c-2.13,5.19-5.49,14.103-8.46,22.383c-2.34,6.479-3.271,8.579-4.89,10.947
		c-0.66,1.021-1.23,1.98-1.23,2.19c0,1.32,9.9-3.18,24.9-11.37c7.5-4.08,12-7.5,18.6-14.13c12.21-12.24,19.65-25.98,24.78-45.78
		c1.29-4.979,1.317-5.25,1.5-11.25c0.479-15.09-2.223-29.01-7.893-40.857c-1.107-2.343-1.857-3.54-2.157-3.54
		C759.9,525.9,759.42,526.77,758.73,528.69z"/>
	<path id="structure117_label115_m5" bar:type="" bar:growlevel="0" fill="#895FC7" d="M720.96,531.96
		c-3.9,5.43-8.19,13.35-10.8,19.92c-3.12,7.83-6,18.99-7.86,30.48c-1.35,8.31-2.28,22.14-1.5,22.14c0.183,0,1.44-0.9,2.73-1.98
		c2.79-2.31,2.46-1.8,10.317-16.407c4.11-7.683,6-11.521,6.45-13.11c0.99-3.51,1.08-8.07,0.3-14.939
		c-0.567-5.131-0.6-6.271-0.3-9.75c0.393-4.921,1.29-10.408,2.433-14.908c1.02-4.021,0.987-3.9,0.447-3.9
		C722.94,529.5,721.95,530.61,720.96,531.96z"/>
	<path id="structure118_label116_ll" bar:type="" bar:growlevel="0" fill="#59DF9D" d="M732,455.97c0,0.15,0.45,1.893,1.02,3.87
		c2.223,7.68,2.103,11.67-0.51,16.65c-3.18,6.09-13.527,10.47-20.729,8.79c-5.763-1.353-11.34-6.21-14.73-12.87
		c-1.29-2.46-2.04-2.94-2.37-1.5c-0.09,0.479-0.27,2.46-0.357,4.438c-0.48,8.883,1.737,18.513,5.64,24.33
		c1.44,2.13,4.23,4.92,4.95,4.92c0.18,0,0.66-0.72,1.08-1.59c1.109-2.43,3.18-4.92,7.35-8.938c4.83-4.65,7.8-7.021,10.2-8.16
		c1.68-0.78,2.13-0.87,3.9-0.75c4.26,0.3,6.96,2.97,6.96,6.897c0,1.353-1.23,7.353-2.28,10.98c-1.05,3.72-2.82,7.229-4.439,8.7
		c-2.101,1.95-2.938,2.067-8.488,1.26c-5.79-0.81-8.671-1.53-11.131-2.73c-1.052-0.51-1.979-0.867-2.069-0.777s0.029,1.17,0.24,2.37
		c0.567,3.12,0.479,9.777-0.15,12.357c-0.75,3.15-2.13,5.67-3.99,7.38c-0.897,0.843-1.738,1.5-1.857,1.5c-0.15,0-0.33,1.2-0.421,2.7
		c-0.359,5.01-2.069,11.04-5.069,17.94c-0.811,1.857-1.891,4.56-2.37,5.97c-0.51,1.44-1.26,3.36-1.68,4.26
		c-0.602,1.29-0.78,2.25-0.841,4.08c-0.062,1.32-0.239,2.76-0.42,3.21c-0.211,0.57-0.211,1.59-0.029,3.3
		c0.51,4.353,0.271,11.79-0.631,19.95c-0.301,2.94-0.301,3.15,0.358,4.5c2.25,4.65-0.238,19.53-4.979,29.67
		c-2.79,5.973-4.86,8.013-12.36,12.21c-1.199,0.66-2.188,1.382-2.188,1.563c0,0.18,1.051,0.54,2.341,0.81
		c6.18,1.261,9.989,4.683,10.47,9.36c0.21,1.979,0.51,2.1,2.07,0.72c2.43-2.13,3.568-5.49,14.278-42.39l1.472-5.103l0.3-6.658
		c0.42-10.021,1.62-18.569,4.2-29.762c2.43-10.41,4.38-16.08,8.369-24.18c3.029-6.12,5.641-10.41,9.271-15.24
		c2.939-3.96,2.7-3.51,8.13-15.51c2.341-5.19,5.4-11.82,6.812-14.7l2.521-5.25l-0.358-3.3c-0.302-2.73-0.271-5.13,0.148-13.8
		c0.42-8.433,0.479-11.4,0.21-15.09c-0.18-2.553-0.33-4.771-0.33-5.013c0-0.237-0.63-0.447-1.8-0.567
		c-0.989-0.12-2.46-0.393-3.239-0.63C732.84,455.64,732,455.58,732,455.97z"/>
	<path id="structure119_label117_rs" bar:type="" bar:growlevel="0" fill="#650BE1" d="M676.65,554.13
		c-3.513,1.23-7.381,4.44-9.723,8.04c-1.68,2.64-2.277,4.5-2.277,7.38c0,2.16,0.09,2.58,1.02,4.29c1.65,3.03,4.35,4.891,8.01,5.46
		c5.973,0.96,12.66-1.89,15.063-6.45c0.75-1.38,0.81-1.77,0.778-4.947c-0.028-2.91-0.148-3.843-0.841-5.973
		c-1.02-3.09-1.83-4.438-3.567-5.85C682.32,553.8,679.5,553.14,676.65,554.13z"/>
	<path fill="#D847CA" d="M545.4,712.11c0-1.563-0.69-2.61-2.223-3.33c-0.263-0.122-0.615-0.224-1.022-0.298l0.024,7.272
		c0.845-0.271,1.619-0.698,2.229-1.307C545.22,713.64,545.4,713.25,545.4,712.11z"/>
	<path fill="#00DFB7" d="M561.54,520.14c-0.87-2.157-0.96-2.31-2.01-2.487c-1.591-0.271-3.96-1.44-5.19-2.521
		c-1.32-1.14-2.64-3.66-2.64-5.01c0-0.9-0.09-0.99-1.261-1.17c-4.229-0.69-7.052-3.57-7.592-7.86c-0.27-1.89,0.271-4.5,1.11-5.397
		c0.6-0.633,0.66-1.32,1.229-12.33c0.602-11.37,0.602-11.73,0.062-14.58c-0.99-5.25,0.03-9.21,3.06-11.88
		c1.381-1.2,5.763-3.603,6.603-3.603c0.27,0,1.41-0.93,2.52-2.1c1.92-1.95,2.07-2.19,2.07-3.393c0-1.59-0.39-2.01-1.86-2.01
		c-1.47,0-3.87,0.9-7.08,2.73c-3.547,2.004-6.194,2.876-9.366,3.051l0.229,60.935c0.58,0.074,1.148,0.187,1.67,0.364
		c1.62,0.54,3.03,2.01,3.48,3.57c0.18,0.688,0.18,2.04,0.027,3.688c-0.869,8.433-1.05,29.343-0.357,42.21
		c0.479,8.82-1.5,25.353-3.393,28.263c-0.3,0.444-0.694,0.806-1.133,1.081l0.021,5.509c1.065,1.228,2.621,1.897,4.563,1.897
		c0.87,0,3.09,0.15,4.95,0.36c3.09,0.3,3.42,0.3,4.5-0.24c2.22-1.08,2.28-1.35,2.729-9.21c0.449-7.8,0.689-10.29,1.771-16.71
		c1.83-11.01,2.97-20.37,3.6-29.52C564.72,531.27,564.3,527.25,561.54,520.14z"/>
	<path id="structure122_label120_MPB" bar:type="" bar:growlevel="0" fill="#B2FFDC" d="M616.05,464.01
		c-0.66,0.45-1.83,1.17-2.58,1.59c-1.83,0.99-3.87,2.853-3.87,3.513c0,0.3,0.66,1.71,1.44,3.147c4.05,7.53,11.31,14.49,18.03,17.34
		c2.97,1.263,6.87,2.16,9.09,2.04l1.83-0.09l1.229-2.34l1.23-2.34l-1.8-1.65c-3.633-3.33-6.513-5.43-11.853-8.67
		c-5.938-3.567-9.3-6.357-10.229-8.397c-0.36-0.75-0.57-1.92-0.57-3.093C618,462.9,617.82,462.81,616.05,464.01z"/>
	<path id="structure125_label121_mlf" bar:type="" bar:growlevel="0" fill="#00CF69" d="M544.29,495.42
		c-1.29,0.96-1.71,4.95-0.81,7.95c0.93,3.147,4.107,5.43,7.59,5.43c1.29,0,1.59-0.12,2.277-0.96c0.78-0.93,0.813-1.05,0.603-3.24
		c-0.36-3.567-0.3-5.79,0.147-6.81c0.24-0.54,0.36-1.05,0.24-1.14c-0.45-0.48-4.59-1.383-6.84-1.53
		C545.43,494.97,544.83,495.03,544.29,495.42z"/>
	<path fill="#B2FFEF" d="M561.54,520.14c-0.87-2.157-0.96-2.31-2.01-2.487c-1.591-0.271-3.96-1.44-5.19-2.521
		c-1.32-1.14-2.64-3.66-2.64-5.01c0-0.9-0.09-0.99-1.261-1.17c-4.229-0.69-7.052-3.57-7.592-7.86c-0.27-1.89,0.271-4.5,1.11-5.397
		c0.6-0.633,0.66-1.32,1.229-12.33c0.602-11.37,0.602-11.73,0.062-14.58c-0.99-5.25,0.03-9.21,3.06-11.88
		c1.381-1.2,5.763-3.603,6.603-3.603c0.27,0,1.41-0.93,2.52-2.1c1.92-1.95,2.07-2.19,2.07-3.393c0-1.59-0.39-2.01-1.86-2.01
		c-1.47,0-3.87,0.9-7.08,2.73c-3.547,2.004-6.194,2.876-9.366,3.051l0.229,60.935c0.58,0.074,1.148,0.187,1.67,0.364
		c1.62,0.54,3.03,2.01,3.48,3.57c0.18,0.688,0.18,2.04,0.027,3.688c-0.869,8.433-1.05,29.343-0.357,42.21
		c0.479,8.82-1.5,25.353-3.393,28.263c-0.3,0.444-0.694,0.806-1.133,1.081l0.021,5.509c1.065,1.228,2.621,1.897,4.563,1.897
		c0.87,0,3.09,0.15,4.95,0.36c3.09,0.3,3.42,0.3,4.5-0.24c2.22-1.08,2.28-1.35,2.729-9.21c0.449-7.8,0.689-10.29,1.771-16.71
		c1.83-11.01,2.97-20.37,3.6-29.52C564.72,531.27,564.3,527.25,561.54,520.14z"/>
	<path id="structure12_text7646_Pn" bar:type="" bar:growlevel="0" fill="#59FFD0" d="M544.2,684.96c0,9.09,0.03,9.75,0.6,10.65
		c0.3,0.54,0.96,1.14,1.41,1.38c1.83,0.96,21.99,5.22,30.54,6.51c8.16,1.2,19.38,1.14,22.439-0.15
		c2.039-0.84,3.238-2.97,3.448-6.027c0.271-4.17-0.63-5.313-4.89-6.12c-4.17-0.813-14.04-3.45-28.2-7.5
		c-13.319-3.84-13.77-4.05-13.41-5.853c0.15-0.81,0.12-0.81-1.02-0.63c-0.63,0.091-2.25,0.24-3.57,0.36
		c-2.1,0.18-2.609,0.12-3.96-0.48c-0.84-0.357-1.771-0.897-2.07-1.229C544.23,674.46,544.2,674.76,544.2,684.96z"/>
	<path id="structure131_label128_Me5" bar:type="" bar:growlevel="0" fill="#2400CB" d="M617.16,452.61
		c0.06,0.657,0.24,0.84,0.84,0.84s0.78-0.183,0.84-0.84c0.09-0.723,0-0.813-0.84-0.813S617.07,451.89,617.16,452.61z"/>
	<path id="structure132_label129_CnFI" bar:type="" bar:growlevel="0" fill="#B2F0FF" d="M679.17,439.32
		c-0.06,0.09-4.439,0.3-9.72,0.479c-27.36,0.933-25.41,0.813-27.24,1.5c-1.83,0.69-2.91,1.771-2.91,2.88
		c0,0.66,0.12,0.723,1.59,0.723c0.843,0,3.422,0.33,5.672,0.75c7.528,1.35,12.421,1.737,20.938,1.77h7.95l2.85-1.229
		c1.563-0.66,3.66-1.473,4.65-1.771c2.37-0.72,3.147-1.41,3.147-2.85c0-1.83-0.96-2.37-4.197-2.37
		C680.46,439.2,679.23,439.26,679.17,439.32z"/>
	<path id="structure133_label130_CnFV" bar:type="" bar:growlevel="0" fill="#59DFFF" d="M638.19,445.8
		c-0.54,0.33-0.99,0.75-0.99,0.96s0.72,0.69,1.59,1.05c0.84,0.36,5.19,2.28,9.63,4.29c7.5,3.36,8.16,3.603,8.94,3.271
		c1.47-0.603,8.01-0.18,11.13,0.75c1.438,0.42,2.729,0.78,2.85,0.78s0.42-0.843,0.63-1.83c0.393-2.013,1.473-4.62,2.433-5.973
		c0.33-0.447,0.6-0.96,0.6-1.14s-3.51-0.36-9.06-0.45c-9.12-0.147-12-0.42-19.263-1.71C642.33,445.02,639.45,445.02,638.19,445.8z"
		/>
	<path fill="#3BFFDC" d="M545.67,514.68c-0.832-1.059-2.464-1.778-4.25-2.051l0.297,79.076c1.305-0.919,2.034-3.299,2.903-8.535
		c1.62-9.84,1.86-15.9,1.14-28.47c-0.42-7.2-0.09-25.021,0.57-33.24C546.69,517.05,546.57,515.85,545.67,514.68z"/>
	<path id="structure136_label133_vsc" bar:type="" bar:growlevel="0" fill="#8553C7" d="M695.1,503.88
		c-1.92,0.24-2.697,0.72-2.697,1.59c0,0.45,0.688,2.103,1.5,3.723c2.52,4.827,4.14,10.47,5.25,18.357
		c0.72,5.19,0.75,5.25,1.229,5.25c0.75,0,3-2.34,3.96-4.107c1.353-2.58,1.86-4.893,2.07-9.24c0.24-5.58-0.63-11.433-2.01-13.353
		c-0.99-1.38-2.973-2.157-5.79-2.25C697.26,503.79,695.67,503.82,695.1,503.88z"/>
	<path id="structure137_label134_m5" bar:type="" bar:growlevel="0" fill="#895FC7" d="M713.58,611.49
		c-1.8,1.92-6.12,11.277-11.19,24.21c-3.06,7.83-4.89,14.16-4.89,17.01c0,1.38,0.09,1.59,0.57,1.59c0.897,0,3.479-3.12,4.947-6
		c0.723-1.41,2.013-4.5,2.883-6.897c2.67-7.5,8.1-21.9,9.479-25.11c1.5-3.51,1.65-4.62,0.66-5.31
		C715.08,610.29,714.63,610.38,713.58,611.49z"/>
	<path id="structure138_label135_tz" bar:type="" bar:growlevel="0" fill="#893BF2" d="M767.73,585.81
		c-1.08,3.99-3.75,11.343-5.49,15.15c-4.83,10.59-10.44,18.63-18.87,27.03c-2.64,2.607-4.771,4.857-4.771,5.04
		c0,2.188,12.33-8.67,17.103-15.09c6.567-8.79,10.229-16.83,12.27-26.79c1.23-6.03,1.44-7.95,0.9-7.95
		C768.57,583.2,768.18,584.1,767.73,585.81z"/>
	<path id="structure142_label140_tth" bar:type="" bar:growlevel="0" fill="#A15FFA" d="M551.82,640.32
		c-0.84,0.21-2.16,0.72-2.88,1.17c-1.83,1.05-4.353,3.87-4.74,5.25c-0.183,0.72-0.24,3.84-0.09,8.817l0.18,7.74l1.229-0.18
		c3.603-0.51,8.643-2.16,18-5.97c7.263-2.91,15.45-5.643,19.263-6.422c3.54-0.721,11.25-1.528,14.37-1.528
		c3.06,0,3-0.54-0.271-1.771C583.89,642.54,558.93,638.58,551.82,640.32z"/>
	<path id="structure143_label141_ml" bar:type="" bar:growlevel="0" fill="#00D7F2" d="M593.67,649.5
		c-11.01,0.81-16.11,2.16-32.22,8.55c-8.19,3.271-12.99,4.83-15.66,5.13l-1.59,0.21V669v5.64l1.107,0.96
		c3.723,3.303,7.922,2.7,21.15-3c5.43-2.34,13.95-6.567,17.64-8.76c1.563-0.93,4.41-2.91,6.303-4.41
		c4.197-3.27,7.317-5.188,10.56-6.51c1.38-0.54,2.521-1.2,2.58-1.438c0.06-0.24-0.39-0.78-0.96-1.23
		C601.32,649.29,599.1,649.11,593.67,649.5z"/>
	<path id="structure144_label142_lfp" bar:type="" bar:growlevel="0" fill="#CB59FF" d="M603.36,652.2
		c-2.28,0.6-6.15,2.43-8.433,3.99c-0.75,0.51-3,2.157-4.979,3.657c-6.24,4.771-15.512,9.66-28.05,14.73
		c-2.4,0.96-4.65,2.04-5.013,2.43c-0.93,0.9-0.897,2.04,0.063,2.67c1.317,0.87,30.63,9.12,39.3,11.07
		c4.47,1.02,4.86,0.96,12.78-1.32c9.897-2.88,12.987-4.26,16.107-7.317c1.74-1.71,3.96-5.7,3.96-7.143c0-1.737-0.688-4.107-2.1-7.08
		c-3.96-8.37-10.14-14.397-16.229-15.84C608.25,651.45,606.03,651.51,603.36,652.2z"/>
	<path id="structure148_label146_scp" bar:type="" bar:growlevel="0" fill="#00D43B" d="M624.36,455.49
		c-0.36,0.21-1.17,1.107-1.771,2.01c-0.57,0.9-1.56,2.19-2.188,2.85c-3,3.183-3.12,6.723-0.393,9.75
		c1.683,1.893,3.78,3.393,9.393,6.75c4.947,2.973,6.63,4.17,10.107,7.263c1.353,1.197,2.643,2.188,2.853,2.188
		c0.42,0,1.17-1.68,6.18-13.92l3.18-7.77l-1.2-0.99c-3.3-2.79-6.96-4.29-17.1-7.021C627.66,455.07,625.59,454.83,624.36,455.49z"/>
	<path id="structure149_label147_4n" bar:type="" bar:growlevel="0" fill="#FF00FE" d="M619.02,435.57
		c-2.55,1.56-3,7.83-0.657,9.777c0.777,0.66,1.17,0.75,3.18,0.75c3.03-0.027,4.68-0.72,5.34-2.31c1.021-2.43-0.45-5.64-3.6-7.92
		C621.9,434.85,620.37,434.73,619.02,435.57z"/>
	<path fill="#7677E9" d="M620.37,413.34l-0.33-2.31l-2.31-0.75c-3.513-1.17-16.893-4.98-17.433-4.98c-0.42,0-0.54,0.45-0.72,2.4
		c-0.391,4.56-1.8,7.74-4.83,10.83c-3.48,3.51-7.92,6.027-18.33,10.317c-13.41,5.553-20.16,9.36-25.8,14.643
		c-3.41,3.183-6.395,4.867-9.439,5.18l0.011,2.724c3.539-0.191,5.146-0.739,9.698-3.164c5.521-2.908,7.802-3.301,8.643-1.408
		c0.51,1.08,0.147,2.01-1.38,3.72c-0.75,0.81-1.353,1.648-1.353,1.83c0,0.24,0.69,0.3,2.34,0.147c2.07-0.147,3.841,0,6.933,0.66
		l1.02,0.21l-0.18-1.77c-0.51-5.01,2.607-10.95,6.96-13.142c3.897-2.011,7.26-2.068,12.51-0.329
		c6.15,2.039,12.931,5.938,15.69,9.028c1.857,2.13,2.37,3.36,4.26,10.92c2.16,8.46,2.7,10.2,3.18,10.2c0.96,0,6.99-6.66,6.99-7.71
		c0-0.18-0.42-0.39-0.9-0.51c-1.02-0.18-1.438-0.9-0.987-1.65c0.448-0.72,1.198-0.75,1.8-0.06c0.27,0.358,0.688,0.63,0.87,0.63
		c0.42,0,2.22-3.93,2.22-4.83c0-0.54-0.12-0.63-0.9-0.479c-1.527,0.327-2.397-1.2-1.107-2.013c0.66-0.42,1.528,0.09,1.647,0.99
		c0.302,1.89,1.563-0.81,1.563-3.33c0-0.84-0.063-0.897-0.813-0.75c-1.59,0.3-2.31-0.63-1.527-1.89c0.27-0.42,0.3-0.722,0.09-1.021
		c-1.44-1.949-1.5-2.13-1.59-4.527c-0.092-2.04,0-2.61,0.6-3.75c0.93-1.83,2.4-2.79,3.9-2.553c1.107,0.21,1.14,0.183,1.14-0.659
		C622.5,430.92,621.42,420.27,620.37,413.34z"/>
	<path fill="#00DFB7" d="M561.54,520.14c-0.87-2.157-0.96-2.31-2.01-2.487c-1.591-0.271-3.96-1.44-5.19-2.521
		c-1.32-1.14-2.64-3.66-2.64-5.01c0-0.9-0.09-0.99-1.261-1.17c-4.229-0.69-7.052-3.57-7.592-7.86c-0.27-1.89,0.271-4.5,1.11-5.397
		c0.6-0.633,0.66-1.32,1.229-12.33c0.602-11.37,0.602-11.73,0.062-14.58c-0.99-5.25,0.03-9.21,3.06-11.88
		c1.381-1.2,5.763-3.603,6.603-3.603c0.27,0,1.41-0.93,2.52-2.1c1.92-1.95,2.07-2.19,2.07-3.393c0-1.59-0.39-2.01-1.86-2.01
		c-1.47,0-3.87,0.9-7.08,2.73c-3.547,2.004-6.194,2.876-9.366,3.051l0.229,60.935c0.58,0.074,1.148,0.187,1.67,0.364
		c1.62,0.54,3.03,2.01,3.48,3.57c0.18,0.688,0.18,2.04,0.027,3.688c-0.869,8.433-1.05,29.343-0.357,42.21
		c0.479,8.82-1.5,25.353-3.393,28.263c-0.3,0.444-0.694,0.806-1.133,1.081l0.021,5.509c1.065,1.228,2.621,1.897,4.563,1.897
		c0.87,0,3.09,0.15,4.95,0.36c3.09,0.3,3.42,0.3,4.5-0.24c2.22-1.08,2.28-1.35,2.729-9.21c0.449-7.8,0.689-10.29,1.771-16.71
		c1.83-11.01,2.97-20.37,3.6-29.52C564.72,531.27,564.3,527.25,561.54,520.14z"/>
	<path id="structure155_label163_mlf" bar:type="" bar:growlevel="0" fill="#00CF69" d="M589.35,485.25
		c-8.277,2.46-28.947,9.96-29.188,10.62c-0.3,0.78,5.16,5.13,7.107,5.64c0.933,0.24,5.013-0.99,11.013-3.357
		c6.54-2.553,7.59-3.15,9.42-5.16c2.22-2.49,5.1-6.84,5.1-7.74C592.8,484.32,592.5,484.32,589.35,485.25z"/>
	<path fill="#3B40FF" d="M563.76,309.42c-2.34-4.68-5.85-12.6-8.13-18.42c-2.16-5.46-3.03-6.51-6.18-7.47
		c-2.582-0.813-5.821-1.286-8.896-1.372l0.029,7.733c0.607,0.17,1.183,0.616,1.604,1.35c0.479,0.81,0.631,1.89,0.841,5.55
		c0.357,6.69,0.3,6.6,4.38,9.24c3.72,2.4,7.74,6.99,10.8,12.42c0.78,1.41,1.59,2.55,1.771,2.55c0.358,0,5.221-6.69,5.431-7.5
		C565.5,313.23,564.75,311.37,563.76,309.42z"/>
	<path id="structure157_label166_me5" bar:type="" bar:growlevel="0" fill="#BA8EFA" d="M622.89,446.19l-1.527,0.3l-0.36,2.37
		c-0.63,4.407-2.55,9.147-5.28,13.08c-0.72,1.05-1.317,2.01-1.317,2.157c0,0.69,1.229,0.21,3.06-1.17
		c4.95-3.75,7.352-8.16,7.65-14.067c0.147-2.521,0.09-3.063-0.24-3C624.63,445.86,623.76,446.04,622.89,446.19z"/>
	<path fill="#FFB2BA" d="M551.43,279.39c-1.77-5.34-3.72-13.08-4.229-16.68c-0.21-1.44-0.48-2.61-0.63-2.61
		c-0.12,0-1.08,0.54-2.103,1.2c-1.493,0.954-2.939,1.594-3.983,1.756l0.069,19.114c0.819,0.013,1.63,0.053,2.414,0.13
		c3.33,0.3,7.2,1.23,8.34,1.98c0.87,0.54,1.593,0.54,1.593,0C552.9,284.04,552.24,281.82,551.43,279.39z"/>
	<path fill="#792FDC" d="M755.43,487.26c-1.197-0.688-1.71-0.81-3.777-0.81c-2.763,0-4.41,0.688-6.96,2.88
		c-3.99,3.45-5.313,5.729-12.54,21.72c-1.92,4.29-4.563,10.08-5.853,12.9c-2.52,5.49-3.479,8.55-4.62,14.85
		c-1.438,7.98-1.71,13.41-0.897,19.353c0.6,4.35,0.66,10.107,0.147,12.75c-0.54,2.76-1.56,5.157-4.527,10.647
		c-1.44,2.643-4.08,7.5-5.853,10.8c-4.08,7.593-4.35,8.013-7.02,10.23c-1.2,1.02-2.46,2.25-2.763,2.7
		c-0.3,0.479-1.317,3.63-2.31,7.02c-3.6,12.36-9.36,31.71-10.05,33.75c-1.74,4.95-3.21,7.353-5.07,8.16
		c-0.63,0.271-1.14,0.66-1.14,0.81c0,0.78-1.83,4.053-3,5.37c-2.521,2.853-6.57,5.19-16.771,9.63
		c-7.949,3.48-12.06,5.07-13.647,5.223c-1.17,0.12-2.07,0.54-4.2,1.92c-3.48,2.28-11.521,6.21-15.03,7.38
		c-2.88,0.93-4.95,1.438-10.95,2.61c-2.067,0.39-6.63,1.527-10.17,2.55c-3.54,0.989-6.6,1.8-6.84,1.8c-0.51,0-0.51,0.75,0.03,1.2
		c0.87,0.688,1.47,2.91,1.29,4.62c-0.21,2.188-1.5,4.8-2.73,5.55c-2.43,1.5-7.647,2.04-15.33,1.56
		c-7.5-0.51-15.688-1.857-29.698-5.01c-7.892-1.771-9-2.13-10.021-3.3l-0.84-0.931l-0.181-20.972
		c-0.182-22.528-0.689-50.25-1.079-60.72c-0.183-5.07-0.33-6.66-0.723-7.41c-0.15-0.289-0.338-0.556-0.542-0.795l0.388,102.711
		l2.437,0.414c10.65,1.8,43.32,3.66,51.42,2.91c15-1.41,35.46-8.73,50.34-18c10.32-6.45,28.683-19.352,36.66-25.71
		c4.143-3.33,13.23-10.86,14.46-12c0.36-0.33,0.36-0.57,0.03-1.59c-0.33-1.021-0.3-1.563,0.12-3.78c0.75-3.69,2.58-9.271,5.31-16.11
		c5.4-13.56,8.61-20.43,10.563-22.647c0.84-0.96,0.988-1.021,2.277-0.842l1.383,0.149l4.857-8.16
		c6.063-10.26,7.8-13.38,13.08-23.489c9.42-18.061,19.32-39.238,23.34-49.948c1.95-5.131,5.37-21.512,5.37-25.591
		C763.8,497.19,760.14,490.02,755.43,487.26z"/>
	<path id="structure161_Unlabeled-2580-1057_Unlabeled" bar:type="" bar:growlevel="0" fill="#FFB2BA" d="M772.65,316.8
		c-0.66,0.12-2.07,0.39-3.15,0.6l-1.95,0.42l-4.5,4.38c-2.46,2.4-5.607,5.4-6.96,6.66c-1.38,1.26-2.49,2.49-2.49,2.73
		c0,0.24,0.48,0.87,1.053,1.38c2.34,2.04,6.18,3.39,11.34,3.93c8.1,0.84,10.83,1.56,15.84,4.08c3.78,1.89,5.91,3.36,8.729,6.09
		c4.472,4.26,6.842,8.7,10.859,20.4c3.72,10.86,11.04,36.27,15.063,52.29c3,12.03,4.527,16.2,7.47,20.643
		c2.67,3.987,6.75,6.867,13.92,9.777c5.7,2.313,8.46,2.91,13.68,2.94c4.17,0,4.683-0.063,6.9-0.84c1.317-0.45,3.12-1.23,4.02-1.771
		c2.13-1.2,5.58-4.47,7.08-6.72c0.63-0.96,1.32-1.89,1.472-2.04c0.181-0.18,0.479-0.72,0.688-1.2c0.181-0.51,1.021-2.397,1.83-4.2
		c4.05-8.907,5.94-16.59,7.86-32.1c1.107-9,1.618-12.21,2.46-15c0.658-2.31,2.04-5.19,2.817-5.97c0.603-0.63,0.841-0.15-4.05-8.28
		c-2.88-4.83-3.6-5.88-4.229-5.94c-0.42-0.06-1.353-0.6-2.103-1.17c-9.39-7.41-19.857-14.4-38.37-25.68
		c-4.857-2.94-11.25-6.9-14.188-8.79c-10.771-6.9-18.33-10.74-26.49-13.47C789.84,317.46,777.6,315.9,772.65,316.8z"/>
	<path fill="#FFB2BA" d="M561.06,373.47c-2.22-1.95-7.29-3.75-12.657-4.44c-1.842-0.246-4.74-0.402-7.521-0.449l0.08,21.392
		c3.432-0.022,6.739-0.163,8.67-0.423c9.24-1.23,13.38-4.26,13.71-10.08C563.49,376.71,562.86,375.03,561.06,373.47z"/>
	<path id="structure164_Unlabeled-2173-1553_Unlabeled" bar:type="" bar:growlevel="0" fill="#FFB2BA" d="M648.78,471.81
		c-4.021,9.813-5.94,14.343-6.24,14.433c-0.12,0.06-0.24,0.33-0.24,0.6c0,0.54-1.979,4.26-2.489,4.71
		c-0.479,0.42-1.408,3.12-1.408,4.143c0,2.67,2.158,4.197,5.85,4.229c2.61,0,3.57-0.479,6.061-2.91
		c2.132-2.067,1.649-2.04,6.271-0.42c3.33,1.2,6.479,1.53,12,1.32c5.76-0.24,7.92-0.63,7.92-1.38c0-0.3-1.59-2.25-3.51-4.353
		c-4.143-4.527-8.19-9.448-8.19-9.987c0-0.211-0.12-0.393-0.27-0.393c-0.3,0-2.88-3.568-7.38-10.2c-3.21-4.737-4.5-6.3-5.25-6.3
		C651.57,465.3,650.67,467.19,648.78,471.81z"/>
	<path id="structure166_Unlabeled-1821-1580_Unlabeled" bar:type="" bar:growlevel="0" fill="#FFB2BA" d="M545.7,473.4
		c0,1.35-0.813,16.89-1.021,19.68l-0.147,1.83l2.607,0.147c1.44,0.093,3.723,0.48,5.103,0.843c2.37,0.657,2.52,0.688,3.54,0.21
		c0.567-0.271,1.738-0.513,2.58-0.513c1.17,0,3.09-0.567,8.31-2.52c3.72-1.38,8.313-3.03,10.141-3.66
		c1.859-0.66,3.392-1.26,3.392-1.38s-1.26-1.92-2.76-4.05c-1.53-2.13-3.063-4.38-3.393-4.98c-0.33-0.6-0.78-1.107-0.989-1.107
		c-0.238,0-1.079,0.6-1.891,1.317c-0.99,0.9-2.16,1.563-3.51,2.04c-3.931,1.32-10.92,0.69-15.03-1.41
		c-2.01-1.02-4.08-3.237-5.22-5.58C546.3,471.93,545.7,471.63,545.7,473.4z"/>
	<path fill="#FFB2BA" d="M546.03,599.04c-1.938-0.093-3.356-0.704-4.293-1.798l0.027,7.724c0.242,0.094,0.423,0.138,0.453,0.104
		c0.063-0.063,0.393-0.69,0.723-1.38c0.777-1.5,2.52-3,4.05-3.45C548.79,599.7,548.37,599.19,546.03,599.04z"/>
	<path id="structure169_Unlabeled-2152-2072_Unlabeled" bar:type="" bar:growlevel="0" fill="#FFB2BA" d="M643.62,621.9
		c-4.59,2.157-11.46,4.05-17.97,4.947c-8.73,1.23-19.86,1.143-27.393-0.18c-1.92-0.36-3.897-0.72-4.38-0.81l-0.87-0.15l0.271,1.32
		c0.147,0.72,0.27,2.817,0.238,4.647l-0.028,3.36l3.479,0.12c3.271,0.09,3.603,0.147,5.73,1.17c5.04,2.43,11.91,8.46,18.39,16.14
		c3.99,4.683,4.71,5.82,4.71,7.44c0,1.29-0.39,2.46-0.99,2.818c-0.147,0.119,0.57,1.922,1.683,4.199
		c1.858,3.78,2.608,6.09,2.608,8.04c0,0.48-0.54,1.95-1.198,3.271c-1.41,2.79-3.933,5.368-6.69,6.81c-2.28,1.2-2.28,1.8,0,1.53
		c5.88-0.69,15.181-4.352,22.23-8.7c3-1.86,3.357-2.49,1.68-2.939c-0.51-0.119-1.5-0.841-2.16-1.561c-1.68-1.83-2.49-4.5-2.52-8.28
		c-0.03-3.42,0.54-5.79,2.22-9.27l1.2-2.55l-0.36-1.98c-0.479-2.52,0.03-4.47,1.83-7.17l1.229-1.86l-0.511-1.05
		c-1.26-2.67-1.5-4.05-1.47-8.67c0.03-4.05,0.12-4.77,0.87-7.2c1.17-3.81,1.26-4.35,0.569-4.317
		C645.69,621.03,644.64,621.42,643.62,621.9z"/>
	<path id="structure16_label8_MVPO" bar:type="" bar:growlevel="0" fill="#5923CB" d="M662.7,645.9
		c-4.38,4.5-9.063,7.29-13.563,8.13c-1.71,0.3-2.188,0.3-3.54-0.15c-1.828-0.6-1.68-0.72-3.147,2.37c-1.47,3.12-2.04,5.55-2.01,8.85
		c0.027,6.42,2.607,10.2,6.96,10.2c1.89,0,4.438-0.84,11.369-3.78c9-3.81,15.358-6.93,17.641-8.64c6.27-4.74,7.647-11.49,3.21-15.87
		c-2.4-2.37-7.65-4.17-12.03-4.08l-2.04,0.063L662.7,645.9z"/>
	<path id="structure17_label9_CAT" bar:type="" bar:growlevel="0" fill="#4A17CB" d="M658.47,633.12
		c-3.989,1.11-8.277,4.438-11.79,9.147c-3.027,4.053-3.84,6.33-3.18,9c0.18,0.813,0.6,1.713,0.93,2.013
		c0.78,0.688,3.54,0.897,5.79,0.42c2.46-0.511,6.54-2.643,9.393-4.95c2.397-1.92,5.79-5.4,5.79-5.91c0-0.147-0.21-0.479-0.45-0.72
		c-0.66-0.66-0.99-2.313-1.23-5.82c-0.12-1.739-0.357-3.239-0.54-3.357C662.67,632.58,660.03,632.7,658.47,633.12z"/>
	<path id="structure18_label10_VLL" bar:type="" bar:growlevel="0" fill="#2CEF8D" d="M684.15,596.52
		c-2.91,0.933-6.603,3.48-8.82,6.12c-3.69,4.44-8.85,15-10.5,21.513c-1.021,4.107-1.23,6.54-0.93,11.55
		c0.33,5.97,0.6,6.688,2.58,7.08c1.17,0.21,2.907-0.513,7.107-2.972c5.853-3.479,7.47-5.068,9.9-9.961
		c3.81-7.618,6.21-17.368,6.3-25.647c0.06-3.24,0-3.57-0.81-5.19c-0.843-1.71-2.16-2.938-3.183-2.88
		C685.56,596.13,684.81,596.31,684.15,596.52z"/>
	<path id="structure19_label11_PLV" bar:type="" bar:growlevel="0" fill="#7747D8" d="M677.97,595.53
		c-5.88,0.84-12.147,3.3-16.979,6.63c-2.761,1.89-7.143,6.45-9.063,9.359c-3.54,5.431-6.51,12.511-7.26,17.278
		c-0.51,3.271-0.18,8.04,0.69,10.65c0.42,1.26,0.897,2.13,1.17,2.188c0.27,0.063,1.02-0.6,1.77-1.619
		c3.33-4.288,10.5-8.068,14.13-7.471l1.17,0.21v-1.619c0-7.471,6.631-23.011,12.54-29.37c1.86-2.011,5.521-4.591,7.263-5.101
		c0.657-0.21,1.197-0.54,1.197-0.72C684.6,595.2,681.42,595.02,677.97,595.53z"/>
	<path id="structure20_label12_A7" bar:type="" bar:growlevel="0" fill="#FF59C3" d="M683.25,535.83c-2.67,0.39-8.82,1.65-12.9,2.67
		c-6.688,1.65-11.487,4.71-13.38,8.55c-0.63,1.32-0.72,1.92-0.72,4.8c0,3.12,0.06,3.393,0.96,5.103c0.51,0.99,1.41,2.37,2.01,3.06
		c1.32,1.53,4.32,3.09,5.91,3.09c1.021,0,1.26-0.147,1.86-1.14c1.979-3.06,5.91-6.39,9.147-7.74c2.49-1.02,4.053-0.93,6.603,0.33
		c3.51,1.771,5.37,4.353,6.42,8.91c0.18,0.78,0.51,1.44,0.688,1.44c0.723,0,2.94-6.12,4.263-11.763c0.688-2.88,0.81-4.08,0.81-8.04
		c0.03-5.157-0.45-7.56-1.77-8.88c-0.69-0.688-0.9-0.72-4.41-0.688C686.7,535.56,684.24,535.68,683.25,535.83z"/>
	<path id="structure21_label13_DMTg" bar:type="" bar:growlevel="0" fill="#00E8E9" d="M730.35,383.13
		c-11.188,11.34-31.857,23.64-45.81,27.24c-5.13,1.32-7.83,1.62-12.96,1.438c-9-0.3-17.97-3.117-28.83-9.09
		c-8.04-4.41-19.38-12.39-25.41-17.85c-2.37-2.16-3.479-2.64-3.12-1.41c3.99,14.07,8.28,39.51,8.28,48.99v2.58l1.68,1.527
		c1.893,1.771,3.12,3.9,3.12,5.553c0,1.17-0.93,3.09-1.5,3.09c-0.147,0-0.3,0.72-0.3,1.647c0,0.96,0.12,1.65,0.33,1.65
		c0.18,0,0.9-0.391,1.62-0.9c1.89-1.317,3.84-1.647,6.897-1.17l2.521,0.36l0.96-0.84c0.57-0.45,1.17-1.32,1.38-1.92
		c0.39-1.172,1.92-2.73,2.64-2.73c0.24,0,0.45-0.18,0.45-0.39s-0.988-0.69-2.22-1.052c-7.65-2.398-12.84-9.061-14.04-18.148
		c-0.42-3.18-0.06-5.97,1.14-8.46c0.962-2.07,2.4-3.3,4.53-3.93c2.82-0.813,4.47-0.36,11.49,3.328
		c2.398,1.229,6.3,2.609,19.95,6.899c6.72,2.13,9.897,3.51,13.14,5.67c3.87,2.55,5.49,5.19,4.771,7.65
		c-0.449,1.438-1.739,3.06-3.512,4.438c-2.22,1.74-1.979,1.893,2.972,1.893c4.29,0,4.29,0,5.101,0.81
		c0.84,0.813,0.87,1.26,0.33,2.971c-0.181,0.602-0.061,0.659,1.47,0.779c2.49,0.21,4.262,1.44,5.49,3.813
		c1.2,2.277,1.29,4.26,0.359,6.84c-0.569,1.56-1.199,2.278-6.091,7.14c-5.641,5.58-7.681,7.47-16.921,15.601
		c-3,2.642-5.46,4.949-5.46,5.102c0,0.479,4.32,5.7,8.07,9.78c4.11,4.47,4.229,4.68,3.12,5.1c-1.141,0.42-6.15,0.84-10.141,0.84
		c-3.722,0-6.962-0.479-9.602-1.47c-4.14-1.53-3.81-1.562-5.938,0.51c-2.489,2.432-3.449,2.91-6.062,2.91
		c-4.648-0.03-6.93-2.67-5.398-6.33c0.631-1.47,0.568-1.59-0.512-1.59c-1.95,0-6.568-1.17-9-2.25c-3.09-1.38-3.84-1.561-3.84-0.99
		c0,0.63,1.38,2.28,5.01,6.063c4.021,4.14,5.012,6.21,3.813,7.92c-0.24,0.357-0.84,0.87-1.29,1.08c-1.143,0.6-8.761,1.05-21.48,1.29
		c-9.147,0.147-10.38,0.119-12-0.33c-3.567-1.05-6.93-3.513-10.47-7.65c-1.14-1.319-2.22-2.43-2.399-2.43
		c-0.181,0-1.381,0.54-2.729,1.17c-2.61,1.26-10.95,4.47-13.71,5.28c-0.96,0.27-1.74,0.63-1.74,0.777c0,0.15,0.602,0.813,1.352,1.5
		c1.438,1.32,2.551,3.723,2.551,5.49c0,1.5-0.813,3.87-1.801,5.22c-1.352,1.893-3.812,2.94-8.159,3.54
		c-0.813,0.09-1.44,0.33-1.44,0.48c0,0.18,0.45,1.53,1.021,3.06c0.961,2.55,2.04,7.2,2.431,10.44c0.21,1.647,0.569,1.8,1.891,0.688
		c1.319-1.107,3.96-2.25,5.189-2.25s2.46,0.813,3.12,2.103c0.84,1.62,1.108,3.81,1.08,9.06c-0.03,3.84,0.06,5.34,0.329,5.34
		c0.181,0,1.381-0.6,2.671-1.35c9-5.19,20.43-8.04,32.369-8.07c10.529,0,16.591,1.38,23.25,5.37
		c7.648,4.563,14.04,11.61,18.391,20.25c2.22,4.41,3.33,7.563,4.26,12.12c2.131,10.38,1.95,20.46-0.449,27.45
		c-1.289,3.84-0.989,4.17,1.801,1.77c6.391-5.487,16.08-9.147,23.521-8.88c2.46,0.09,3.12,0.21,4.62,0.96
		c0.931,0.48,1.771,0.813,1.83,0.75c0.359-0.357,1.08-11.79,1.08-17.04c0-6.897-0.03-6.96-2.189-4.737
		c-1.561,1.56-4.891,3.357-7.439,3.96c-9.811,2.31-17.67-4.83-14.67-13.353c0.33-0.897,0.569-1.8,0.601-1.979
		c0-0.183-0.779-0.54-1.71-0.813c-4.771-1.35-8.521-6.96-8.101-12.12c0.449-5.907,5.699-10.38,14.851-12.688l1.261-0.33v-2.04
		c0-9.54,7.229-26.85,12.3-29.43c1.859-0.96,3.24-1.021,5.25-0.302c3.182,1.109,2.971,1.109,2.761,0.092
		c-0.239-1.2,0.271-1.86,1.739-2.19c1.921-0.45,6.33-0.359,7.562,0.15c2.431,1.02,2.46,0.42,0.12-2.16
		c-3.24-3.51-5.79-9.45-6.961-16.17c-0.75-4.32-0.869-11.37-0.271-14.07c0.54-2.37,0.511-3.54-0.12-5.55
		c-0.75-2.4-0.688-6.99,0.091-10.05c1.141-4.29,3.688-8.881,6.391-11.433c3-2.909,7.29-4.857,11.13-5.13
		c1.381-0.12,2.312-0.3,2.312-0.51c0-0.18-0.271-0.75-0.631-1.23c-1.021-1.527-2.909-5.367-3.601-7.38
		c-1.199-3.567-0.301-9.6,2.25-15.09c1.141-2.46,2.729-4.2,6.061-6.63c2.341-1.71,11.25-10.38,12.812-12.45
		c1.021-1.38,1.648-5.1,1.92-11.04c0.148-3.57,0.12-4.26-0.239-4.26C732.63,381,731.49,381.96,730.35,383.13z"/>
	<path id="structure23_label15_KF" bar:type="" bar:growlevel="0" fill="#59FFB7" d="M684.27,506.49
		c-1.947,1.02-3.93,3.72-6.27,8.46c-3.51,7.08-5.7,14.819-5.7,20.069c0,3-0.09,2.938,3.51,2.101
		c6.75-1.563,15.093-2.37,16.593-1.563c1.107,0.603,2.067,2.58,2.607,5.4c0.45,2.43,0.42,4.59-0.09,9
		c-0.54,4.47,1.83-0.33,3.66-7.41c1.438-5.58,1.229-12.87-0.69-21.6c-1.317-6.15-3.659-11.94-5.31-13.2
		C689.91,505.71,686.67,505.23,684.27,506.49z"/>
	<path id="structure24_label16_MPL" bar:type="" bar:growlevel="0" fill="#4C00F2" d="M730.35,383.13
		c-11.188,11.34-31.857,23.64-45.81,27.24c-5.13,1.32-7.83,1.62-12.96,1.438c-9-0.3-17.97-3.117-28.83-9.09
		c-8.04-4.41-19.38-12.39-25.41-17.85c-2.37-2.16-3.479-2.64-3.12-1.41c3.99,14.07,8.28,39.51,8.28,48.99v2.58l1.68,1.527
		c1.893,1.771,3.12,3.9,3.12,5.553c0,1.17-0.93,3.09-1.5,3.09c-0.147,0-0.3,0.72-0.3,1.647c0,0.96,0.12,1.65,0.33,1.65
		c0.18,0,0.9-0.391,1.62-0.9c1.89-1.317,3.84-1.647,6.897-1.17l2.521,0.36l0.96-0.84c0.57-0.45,1.17-1.32,1.38-1.92
		c0.39-1.172,1.92-2.73,2.64-2.73c0.24,0,0.45-0.18,0.45-0.39s-0.988-0.69-2.22-1.052c-7.65-2.398-12.84-9.061-14.04-18.148
		c-0.42-3.18-0.06-5.97,1.14-8.46c0.962-2.07,2.4-3.3,4.53-3.93c2.82-0.813,4.47-0.36,11.49,3.328
		c2.398,1.229,6.3,2.609,19.95,6.899c6.72,2.13,9.897,3.51,13.14,5.67c3.87,2.55,5.49,5.19,4.771,7.65
		c-0.449,1.438-1.739,3.06-3.512,4.438c-2.22,1.74-1.979,1.893,2.972,1.893c4.29,0,4.29,0,5.101,0.81
		c0.84,0.813,0.87,1.26,0.33,2.971c-0.181,0.602-0.061,0.659,1.47,0.779c2.49,0.21,4.262,1.44,5.49,3.813
		c1.2,2.277,1.29,4.26,0.359,6.84c-0.569,1.56-1.199,2.278-6.091,7.14c-5.641,5.58-7.681,7.47-16.921,15.601
		c-3,2.642-5.46,4.949-5.46,5.102c0,0.479,4.32,5.7,8.07,9.78c4.11,4.47,4.229,4.68,3.12,5.1c-1.141,0.42-6.15,0.84-10.141,0.84
		c-3.722,0-6.962-0.479-9.602-1.47c-4.14-1.53-3.81-1.562-5.938,0.51c-2.489,2.432-3.449,2.91-6.062,2.91
		c-4.648-0.03-6.93-2.67-5.398-6.33c0.631-1.47,0.568-1.59-0.512-1.59c-1.95,0-6.568-1.17-9-2.25c-3.09-1.38-3.84-1.561-3.84-0.99
		c0,0.63,1.38,2.28,5.01,6.063c4.021,4.14,5.012,6.21,3.813,7.92c-0.24,0.357-0.84,0.87-1.29,1.08c-1.143,0.6-8.761,1.05-21.48,1.29
		c-9.147,0.147-10.38,0.119-12-0.33c-3.567-1.05-6.93-3.513-10.47-7.65c-1.14-1.319-2.22-2.43-2.399-2.43
		c-0.181,0-1.381,0.54-2.729,1.17c-2.61,1.26-10.95,4.47-13.71,5.28c-0.96,0.27-1.74,0.63-1.74,0.777c0,0.15,0.602,0.813,1.352,1.5
		c1.438,1.32,2.551,3.723,2.551,5.49c0,1.5-0.813,3.87-1.801,5.22c-1.352,1.893-3.812,2.94-8.159,3.54
		c-0.813,0.09-1.44,0.33-1.44,0.48c0,0.18,0.45,1.53,1.021,3.06c0.961,2.55,2.04,7.2,2.431,10.44c0.21,1.647,0.569,1.8,1.891,0.688
		c1.319-1.107,3.96-2.25,5.189-2.25s2.46,0.813,3.12,2.103c0.84,1.62,1.108,3.81,1.08,9.06c-0.03,3.84,0.06,5.34,0.329,5.34
		c0.181,0,1.381-0.6,2.671-1.35c9-5.19,20.43-8.04,32.369-8.07c10.529,0,16.591,1.38,23.25,5.37
		c7.648,4.563,14.04,11.61,18.391,20.25c2.22,4.41,3.33,7.563,4.26,12.12c2.131,10.38,1.95,20.46-0.449,27.45
		c-1.289,3.84-0.989,4.17,1.801,1.77c6.391-5.487,16.08-9.147,23.521-8.88c2.46,0.09,3.12,0.21,4.62,0.96
		c0.931,0.48,1.771,0.813,1.83,0.75c0.359-0.357,1.08-11.79,1.08-17.04c0-6.897-0.03-6.96-2.189-4.737
		c-1.561,1.56-4.891,3.357-7.439,3.96c-9.811,2.31-17.67-4.83-14.67-13.353c0.33-0.897,0.569-1.8,0.601-1.979
		c0-0.183-0.779-0.54-1.71-0.813c-4.771-1.35-8.521-6.96-8.101-12.12c0.449-5.907,5.699-10.38,14.851-12.688l1.261-0.33v-2.04
		c0-9.54,7.229-26.85,12.3-29.43c1.859-0.96,3.24-1.021,5.25-0.302c3.182,1.109,2.971,1.109,2.761,0.092
		c-0.239-1.2,0.271-1.86,1.739-2.19c1.921-0.45,6.33-0.359,7.562,0.15c2.431,1.02,2.46,0.42,0.12-2.16
		c-3.24-3.51-5.79-9.45-6.961-16.17c-0.75-4.32-0.869-11.37-0.271-14.07c0.54-2.37,0.511-3.54-0.12-5.55
		c-0.75-2.4-0.688-6.99,0.091-10.05c1.141-4.29,3.688-8.881,6.391-11.433c3-2.909,7.29-4.857,11.13-5.13
		c1.381-0.12,2.312-0.3,2.312-0.51c0-0.18-0.271-0.75-0.631-1.23c-1.021-1.527-2.909-5.367-3.601-7.38
		c-1.199-3.567-0.301-9.6,2.25-15.09c1.141-2.46,2.729-4.2,6.061-6.63c2.341-1.71,11.25-10.38,12.812-12.45
		c1.021-1.38,1.648-5.1,1.92-11.04c0.148-3.57,0.12-4.26-0.239-4.26C732.63,381,731.49,381.96,730.35,383.13z"/>
	<path id="structure25_label17_Tr" bar:type="" bar:growlevel="0" fill="#A577F2" d="M730.35,383.13
		c-11.188,11.34-31.857,23.64-45.81,27.24c-5.13,1.32-7.83,1.62-12.96,1.438c-9-0.3-17.97-3.117-28.83-9.09
		c-8.04-4.41-19.38-12.39-25.41-17.85c-2.37-2.16-3.479-2.64-3.12-1.41c3.99,14.07,8.28,39.51,8.28,48.99v2.58l1.68,1.527
		c1.893,1.771,3.12,3.9,3.12,5.553c0,1.17-0.93,3.09-1.5,3.09c-0.147,0-0.3,0.72-0.3,1.647c0,0.96,0.12,1.65,0.33,1.65
		c0.18,0,0.9-0.391,1.62-0.9c1.89-1.317,3.84-1.647,6.897-1.17l2.521,0.36l0.96-0.84c0.57-0.45,1.17-1.32,1.38-1.92
		c0.39-1.172,1.92-2.73,2.64-2.73c0.24,0,0.45-0.18,0.45-0.39s-0.988-0.69-2.22-1.052c-7.65-2.398-12.84-9.061-14.04-18.148
		c-0.42-3.18-0.06-5.97,1.14-8.46c0.962-2.07,2.4-3.3,4.53-3.93c2.82-0.813,4.47-0.36,11.49,3.328
		c2.398,1.229,6.3,2.609,19.95,6.899c6.72,2.13,9.897,3.51,13.14,5.67c3.87,2.55,5.49,5.19,4.771,7.65
		c-0.449,1.438-1.739,3.06-3.512,4.438c-2.22,1.74-1.979,1.893,2.972,1.893c4.29,0,4.29,0,5.101,0.81
		c0.84,0.813,0.87,1.26,0.33,2.971c-0.181,0.602-0.061,0.659,1.47,0.779c2.49,0.21,4.262,1.44,5.49,3.813
		c1.2,2.277,1.29,4.26,0.359,6.84c-0.569,1.56-1.199,2.278-6.091,7.14c-5.641,5.58-7.681,7.47-16.921,15.601
		c-3,2.642-5.46,4.949-5.46,5.102c0,0.479,4.32,5.7,8.07,9.78c4.11,4.47,4.229,4.68,3.12,5.1c-1.141,0.42-6.15,0.84-10.141,0.84
		c-3.722,0-6.962-0.479-9.602-1.47c-4.14-1.53-3.81-1.562-5.938,0.51c-2.489,2.432-3.449,2.91-6.062,2.91
		c-4.648-0.03-6.93-2.67-5.398-6.33c0.631-1.47,0.568-1.59-0.512-1.59c-1.95,0-6.568-1.17-9-2.25c-3.09-1.38-3.84-1.561-3.84-0.99
		c0,0.63,1.38,2.28,5.01,6.063c4.021,4.14,5.012,6.21,3.813,7.92c-0.24,0.357-0.84,0.87-1.29,1.08c-1.143,0.6-8.761,1.05-21.48,1.29
		c-9.147,0.147-10.38,0.119-12-0.33c-3.567-1.05-6.93-3.513-10.47-7.65c-1.14-1.319-2.22-2.43-2.399-2.43
		c-0.181,0-1.381,0.54-2.729,1.17c-2.61,1.26-10.95,4.47-13.71,5.28c-0.96,0.27-1.74,0.63-1.74,0.777c0,0.15,0.602,0.813,1.352,1.5
		c1.438,1.32,2.551,3.723,2.551,5.49c0,1.5-0.813,3.87-1.801,5.22c-1.352,1.893-3.812,2.94-8.159,3.54
		c-0.813,0.09-1.44,0.33-1.44,0.48c0,0.18,0.45,1.53,1.021,3.06c0.961,2.55,2.04,7.2,2.431,10.44c0.21,1.647,0.569,1.8,1.891,0.688
		c1.319-1.107,3.96-2.25,5.189-2.25s2.46,0.813,3.12,2.103c0.84,1.62,1.108,3.81,1.08,9.06c-0.03,3.84,0.06,5.34,0.329,5.34
		c0.181,0,1.381-0.6,2.671-1.35c9-5.19,20.43-8.04,32.369-8.07c10.529,0,16.591,1.38,23.25,5.37
		c7.648,4.563,14.04,11.61,18.391,20.25c2.22,4.41,3.33,7.563,4.26,12.12c2.131,10.38,1.95,20.46-0.449,27.45
		c-1.289,3.84-0.989,4.17,1.801,1.77c6.391-5.487,16.08-9.147,23.521-8.88c2.46,0.09,3.12,0.21,4.62,0.96
		c0.931,0.48,1.771,0.813,1.83,0.75c0.359-0.357,1.08-11.79,1.08-17.04c0-6.897-0.03-6.96-2.189-4.737
		c-1.561,1.56-4.891,3.357-7.439,3.96c-9.811,2.31-17.67-4.83-14.67-13.353c0.33-0.897,0.569-1.8,0.601-1.979
		c0-0.183-0.779-0.54-1.71-0.813c-4.771-1.35-8.521-6.96-8.101-12.12c0.449-5.907,5.699-10.38,14.851-12.688l1.261-0.33v-2.04
		c0-9.54,7.229-26.85,12.3-29.43c1.859-0.96,3.24-1.021,5.25-0.302c3.182,1.109,2.971,1.109,2.761,0.092
		c-0.239-1.2,0.271-1.86,1.739-2.19c1.921-0.45,6.33-0.359,7.562,0.15c2.431,1.02,2.46,0.42,0.12-2.16
		c-3.24-3.51-5.79-9.45-6.961-16.17c-0.75-4.32-0.869-11.37-0.271-14.07c0.54-2.37,0.511-3.54-0.12-5.55
		c-0.75-2.4-0.688-6.99,0.091-10.05c1.141-4.29,3.688-8.881,6.391-11.433c3-2.909,7.29-4.857,11.13-5.13
		c1.381-0.12,2.312-0.3,2.312-0.51c0-0.18-0.271-0.75-0.631-1.23c-1.021-1.527-2.909-5.367-3.601-7.38
		c-1.199-3.567-0.301-9.6,2.25-15.09c1.141-2.46,2.729-4.2,6.061-6.63c2.341-1.71,11.25-10.38,12.812-12.45
		c1.021-1.38,1.648-5.1,1.92-11.04c0.148-3.57,0.12-4.26-0.239-4.26C732.63,381,731.49,381.96,730.35,383.13z"/>
	<path id="structure26_label18_L" bar:type="" bar:growlevel="0" fill="#905FFF" d="M732,455.97c0,0.15,0.45,1.893,1.02,3.87
		c2.223,7.68,2.103,11.67-0.51,16.65c-3.18,6.09-13.527,10.47-20.729,8.79c-5.763-1.353-11.34-6.21-14.73-12.87
		c-1.29-2.46-2.04-2.94-2.37-1.5c-0.09,0.479-0.27,2.46-0.357,4.438c-0.48,8.883,1.737,18.513,5.64,24.33
		c1.44,2.13,4.23,4.92,4.95,4.92c0.18,0,0.66-0.72,1.08-1.59c1.109-2.43,3.18-4.92,7.35-8.938c4.83-4.65,7.8-7.021,10.2-8.16
		c1.68-0.78,2.13-0.87,3.9-0.75c4.26,0.3,6.96,2.97,6.96,6.897c0,1.353-1.23,7.353-2.28,10.98c-1.05,3.72-2.82,7.229-4.439,8.7
		c-2.101,1.95-2.938,2.067-8.488,1.26c-5.79-0.81-8.671-1.53-11.131-2.73c-1.052-0.51-1.979-0.867-2.069-0.777s0.029,1.17,0.24,2.37
		c0.567,3.12,0.479,9.777-0.15,12.357c-0.75,3.15-2.13,5.67-3.99,7.38c-0.897,0.843-1.738,1.5-1.857,1.5c-0.15,0-0.33,1.2-0.421,2.7
		c-0.359,5.01-2.069,11.04-5.069,17.94c-0.811,1.857-1.891,4.56-2.37,5.97c-0.51,1.44-1.26,3.36-1.68,4.26
		c-0.602,1.29-0.78,2.25-0.841,4.08c-0.062,1.32-0.239,2.76-0.42,3.21c-0.211,0.57-0.211,1.59-0.029,3.3
		c0.51,4.353,0.271,11.79-0.631,19.95c-0.301,2.94-0.301,3.15,0.358,4.5c2.25,4.65-0.238,19.53-4.979,29.67
		c-2.79,5.973-4.86,8.013-12.36,12.21c-1.199,0.66-2.188,1.382-2.188,1.563c0,0.18,1.051,0.54,2.341,0.81
		c6.18,1.261,9.989,4.683,10.47,9.36c0.21,1.979,0.51,2.1,2.07,0.72c2.43-2.13,3.568-5.49,14.278-42.39l1.472-5.103l0.3-6.658
		c0.42-10.021,1.62-18.569,4.2-29.762c2.43-10.41,4.38-16.08,8.369-24.18c3.029-6.12,5.641-10.41,9.271-15.24
		c2.939-3.96,2.7-3.51,8.13-15.51c2.341-5.19,5.4-11.82,6.812-14.7l2.521-5.25l-0.358-3.3c-0.302-2.73-0.271-5.13,0.148-13.8
		c0.42-8.433,0.479-11.4,0.21-15.09c-0.18-2.553-0.33-4.771-0.33-5.013c0-0.237-0.63-0.447-1.8-0.567
		c-0.989-0.12-2.46-0.393-3.239-0.63C732.84,455.64,732,455.58,732,455.97z"/>
	<path id="structure27_label19_L" bar:type="" bar:growlevel="0" fill="#905FFF" d="M732,455.97c0,0.15,0.45,1.893,1.02,3.87
		c2.223,7.68,2.103,11.67-0.51,16.65c-3.18,6.09-13.527,10.47-20.729,8.79c-5.763-1.353-11.34-6.21-14.73-12.87
		c-1.29-2.46-2.04-2.94-2.37-1.5c-0.09,0.479-0.27,2.46-0.357,4.438c-0.48,8.883,1.737,18.513,5.64,24.33
		c1.44,2.13,4.23,4.92,4.95,4.92c0.18,0,0.66-0.72,1.08-1.59c1.109-2.43,3.18-4.92,7.35-8.938c4.83-4.65,7.8-7.021,10.2-8.16
		c1.68-0.78,2.13-0.87,3.9-0.75c4.26,0.3,6.96,2.97,6.96,6.897c0,1.353-1.23,7.353-2.28,10.98c-1.05,3.72-2.82,7.229-4.439,8.7
		c-2.101,1.95-2.938,2.067-8.488,1.26c-5.79-0.81-8.671-1.53-11.131-2.73c-1.052-0.51-1.979-0.867-2.069-0.777s0.029,1.17,0.24,2.37
		c0.567,3.12,0.479,9.777-0.15,12.357c-0.75,3.15-2.13,5.67-3.99,7.38c-0.897,0.843-1.738,1.5-1.857,1.5c-0.15,0-0.33,1.2-0.421,2.7
		c-0.359,5.01-2.069,11.04-5.069,17.94c-0.811,1.857-1.891,4.56-2.37,5.97c-0.51,1.44-1.26,3.36-1.68,4.26
		c-0.602,1.29-0.78,2.25-0.841,4.08c-0.062,1.32-0.239,2.76-0.42,3.21c-0.211,0.57-0.211,1.59-0.029,3.3
		c0.51,4.353,0.271,11.79-0.631,19.95c-0.301,2.94-0.301,3.15,0.358,4.5c2.25,4.65-0.238,19.53-4.979,29.67
		c-2.79,5.973-4.86,8.013-12.36,12.21c-1.199,0.66-2.188,1.382-2.188,1.563c0,0.18,1.051,0.54,2.341,0.81
		c6.18,1.261,9.989,4.683,10.47,9.36c0.21,1.979,0.51,2.1,2.07,0.72c2.43-2.13,3.568-5.49,14.278-42.39l1.472-5.103l0.3-6.658
		c0.42-10.021,1.62-18.569,4.2-29.762c2.43-10.41,4.38-16.08,8.369-24.18c3.029-6.12,5.641-10.41,9.271-15.24
		c2.939-3.96,2.7-3.51,8.13-15.51c2.341-5.19,5.4-11.82,6.812-14.7l2.521-5.25l-0.358-3.3c-0.302-2.73-0.271-5.13,0.148-13.8
		c0.42-8.433,0.479-11.4,0.21-15.09c-0.18-2.553-0.33-4.771-0.33-5.013c0-0.237-0.63-0.447-1.8-0.567
		c-0.989-0.12-2.46-0.393-3.239-0.63C732.84,455.64,732,455.58,732,455.97z"/>
	<path id="structure28_label20_PTg" bar:type="" bar:growlevel="0" fill="#AC8EE5" d="M657.15,455.52
		c-1.893,0.813-4.08,4.29-4.98,7.83l-0.359,1.383l1.199,1.26c0.66,0.688,2.521,3.21,4.143,5.607c4.77,7.053,7.08,10.2,7.438,10.2
		c0.21,0,2.13-1.59,4.26-3.479c2.16-1.92,4.95-4.38,6.271-5.49c2.729-2.313,3.18-3.03,3.18-5.19c0-1.89-0.688-3.479-2.55-6.09
		c-2.07-2.938-3.66-4.17-6.54-5.067C665.16,455.19,659.01,454.71,657.15,455.52z"/>
	<path id="structure29_label21_LPBS" bar:type="" bar:growlevel="0" fill="#3BE998" d="M685.35,443.91
		c-2.487,0.357-8.67,2.85-9.84,3.93c-1.229,1.17-3.06,5.04-3.51,7.353l-0.36,2.01l0.841,0.688c3.119,2.4,6.119,7.473,6.119,10.263
		c0,0.567,0.15,1.05,0.33,1.05c0.183,0,3.12-2.7,6.54-6c6.723-6.45,7.62-7.65,8.16-10.771c0.271-1.438,0.24-2.1-0.149-3.479
		c-0.538-1.771-2.068-3.78-3.479-4.5C689.1,443.97,686.7,443.7,685.35,443.91z"/>
	<path id="structure30_label22_CnFD" bar:type="" bar:growlevel="0" fill="#00D0FF" d="M631.05,409.56
		c-3.24,1.2-4.95,4.62-4.95,9.99c0,6.51,3.12,13.47,7.563,16.893c2.16,1.617,4.979,3,7.56,3.63c1.86,0.479,2.73,0.51,6.933,0.3
		c2.64-0.15,9.567-0.391,15.39-0.54l10.59-0.3l1.41-0.813c1.89-1.107,4.2-3.3,4.89-4.68c0.69-1.38,0.723-3.271,0.092-4.62
		c-1.199-2.55-6.722-6.15-12.449-8.16c-1.44-0.51-6.36-2.067-10.95-3.51c-8.43-2.61-13.68-4.56-15.18-5.61
		c-0.421-0.3-1.83-1.05-3.12-1.647c-1.893-0.9-2.7-1.11-4.59-1.2C632.97,409.26,631.56,409.35,631.05,409.56z"/>
	<path id="structure31_label23_LDTgV" bar:type="" bar:growlevel="0" fill="#00FFFB" d="M606.15,471.18
		c-5.28,4.38-13.053,12.63-13.053,13.86c0,0.72-2.58,4.65-4.59,7.02c-0.93,1.11-1.71,2.16-1.71,2.313c0,0.147,1.71,2.04,3.84,4.17
		c6.271,6.33,7.71,6.84,19.263,6.54c8.817-0.24,19.197-0.69,21.567-0.96c2.16-0.24,3.03-1.08,3.03-2.97
		c0-0.78-0.15-1.683-0.33-2.013c-0.18-0.357-1.92-2.277-3.84-4.29c-1.92-2.04-4.08-4.617-4.83-5.76c-0.75-1.14-1.86-2.46-2.46-2.91
		c-5.13-3.72-10.29-9.897-12.78-15.237c-0.45-0.99-1.02-1.74-1.26-1.74S607.47,470.1,606.15,471.18z"/>
	<path id="structure32_label24_LDTg" bar:type="" bar:growlevel="0" fill="#00FFFB" d="M576.24,437.52
		c-5.25,1.53-9.3,7.143-9.21,12.78c0.06,2.79,0.18,3.03,2.85,4.353c4.41,2.22,5.76,3.75,6.601,7.59
		c0.899,4.02,0.119,8.607-2.221,13.08l-1.08,2.067l0.84,1.53c1.263,2.25,5.883,8.61,6.423,8.79c0.237,0.12,2.788-0.57,5.64-1.5
		c2.85-0.96,5.58-1.71,6.06-1.71c0.723,0,1.2-0.39,2.79-2.31c2.58-3.15,7.592-8.07,11.16-10.98c1.59-1.32,2.91-2.58,2.91-2.79
		s-0.15-0.75-0.33-1.229c-0.18-0.45-1.2-4.23-2.25-8.343c-2.22-8.607-3.03-10.59-5.31-12.63c-3.15-2.85-9.093-6.09-14.61-7.95
		C583.14,437.13,578.7,436.83,576.24,437.52z"/>
	<path id="structure33_label25_DTgP" bar:type="" bar:growlevel="0" fill="#00FF60" d="M555.75,453.18
		c-4.35,1.053-8.28,3.84-9.75,6.87c-0.96,2.01-1.2,6.603-0.45,9.45c1.2,4.74,3.99,8.79,7.08,10.35
		c4.11,2.103,11.103,2.73,15.063,1.383c3.81-1.29,6.777-5.04,8.277-10.53c1.05-3.78,0.78-8.82-0.659-11.58
		c-1.198-2.313-5.851-5.103-9.961-5.97C562.71,452.61,558.12,452.61,555.75,453.18z"/>
	<path id="structure34_label26_VTg" bar:type="" bar:growlevel="0" fill="#A06BF6" d="M555.84,496.05
		c-0.87,0.48-1.857,1.95-2.16,3.271c-0.119,0.51,0,2.067,0.303,3.66c0.6,3.117,0.42,4.02-1.11,5.46
		c-2.101,1.979-0.061,6.3,3.899,8.22c2.608,1.29,8.011,1.02,11.341-0.54c2.52-1.2,3.987-3.78,3.987-6.96
		c0-3.33-1.317-5.521-4.229-7.08c-2.521-1.35-5.7-3.63-7.17-5.13c-1.2-1.2-1.47-1.353-2.7-1.353
		C557.25,495.63,556.29,495.81,555.84,496.05z"/>
	<path fill="#7677E9" d="M620.37,413.34l-0.33-2.31l-2.31-0.75c-3.513-1.17-16.893-4.98-17.433-4.98c-0.42,0-0.54,0.45-0.72,2.4
		c-0.391,4.56-1.8,7.74-4.83,10.83c-3.48,3.51-7.92,6.027-18.33,10.317c-13.41,5.553-20.16,9.36-25.8,14.643
		c-3.41,3.183-6.395,4.867-9.439,5.18l0.011,2.724c3.539-0.191,5.146-0.739,9.698-3.164c5.521-2.908,7.802-3.301,8.643-1.408
		c0.51,1.08,0.147,2.01-1.38,3.72c-0.75,0.81-1.353,1.648-1.353,1.83c0,0.24,0.69,0.3,2.34,0.147c2.07-0.147,3.841,0,6.933,0.66
		l1.02,0.21l-0.18-1.77c-0.51-5.01,2.607-10.95,6.96-13.142c3.897-2.011,7.26-2.068,12.51-0.329
		c6.15,2.039,12.931,5.938,15.69,9.028c1.857,2.13,2.37,3.36,4.26,10.92c2.16,8.46,2.7,10.2,3.18,10.2c0.96,0,6.99-6.66,6.99-7.71
		c0-0.18-0.42-0.39-0.9-0.51c-1.02-0.18-1.438-0.9-0.987-1.65c0.448-0.72,1.198-0.75,1.8-0.06c0.27,0.358,0.688,0.63,0.87,0.63
		c0.42,0,2.22-3.93,2.22-4.83c0-0.54-0.12-0.63-0.9-0.479c-1.527,0.327-2.397-1.2-1.107-2.013c0.66-0.42,1.528,0.09,1.647,0.99
		c0.302,1.89,1.563-0.81,1.563-3.33c0-0.84-0.063-0.897-0.813-0.75c-1.59,0.3-2.31-0.63-1.527-1.89c0.27-0.42,0.3-0.722,0.09-1.021
		c-1.44-1.949-1.5-2.13-1.59-4.527c-0.092-2.04,0-2.61,0.6-3.75c0.93-1.83,2.4-2.79,3.9-2.553c1.107,0.21,1.14,0.183,1.14-0.659
		C622.5,430.92,621.42,420.27,620.37,413.34z"/>
	<path id="structure38_label30_LPB" bar:type="" bar:growlevel="0" fill="#00FF87" d="M628.65,446.97
		c-2.04,0.96-3.063,2.313-3.75,4.95c-0.33,1.32-0.603,2.55-0.603,2.73c0,0.27,0.603,0.39,1.893,0.357c1.35,0,3.51,0.45,8.04,1.683
		c8.55,2.34,10.89,3.237,14.25,5.487c1.59,1.053,2.97,1.92,3.09,1.92s0.42-0.567,0.63-1.29c0.54-1.827,1.95-4.527,3-5.697
		c0.479-0.57,0.897-1.17,0.897-1.29c0-0.15-1.38-0.87-3.09-1.59c-1.68-0.723-5.817-2.58-9.21-4.11c-3.39-1.5-6.99-2.97-8.01-3.24
		C633.3,446.22,630.18,446.28,628.65,446.97z"/>
	<path fill="#FF59A4" d="M599.1,402c-0.54-3.03-1.56-6.3-1.947-6.3c-0.24,0-0.42,0.897-0.54,2.64
		c-0.78,10.95-5.973,19.021-14.13,22.11c-4.473,1.68-6.78,1.89-26.4,2.25c-4.372,0.079-9.586,0.114-14.997,0.112l0.095,25.299
		c3.599-0.236,5.529-1.271,9.502-5.041c3.9-3.66,7.592-6.12,13.473-9.063c4.02-1.979,6.777-3.21,16.947-7.47
		c10.53-4.41,16.2-9.33,17.521-15.21C599.28,408.3,599.52,404.22,599.1,402z"/>
	<path id="structure40_label32_DLL" bar:type="" bar:growlevel="0" fill="#6047E5" d="M708.3,440.37
		c-4.317,1.38-7.74,4.02-10.229,7.89c-3.54,5.55-4.92,11.853-3.75,17.34c0.897,4.2,4.527,10.563,8.01,14.04
		c2.22,2.19,4.38,3.723,6.96,4.803c1.74,0.75,2.16,0.81,6.21,0.81c4.17-0.03,4.47-0.06,6.87-0.99c2.97-1.107,6.33-3.18,7.89-4.77
		c1.683-1.74,3.15-4.41,3.66-6.69c0.93-4.08,0.51-8.188-1.47-14.52c-0.96-3.183-1.141-3.45-2.22-4.17c-0.66-0.45-1.74-1.53-2.4-2.4
		c-1.8-2.37-11.55-11.01-13.08-11.61C713.52,439.65,710.13,439.77,708.3,440.37z"/>
	<path id="structure41_label33_ILL" bar:type="" bar:growlevel="0" fill="#5D17FF" d="M724.32,485.64
		c-2.16,0.75-4.95,2.853-9.69,7.263c-6.93,6.447-9.33,9.897-9.33,13.35c0,1.86,0.03,1.92,1.26,2.97
		c1.923,1.65,6.063,2.82,13.65,3.813c5.22,0.66,6.87,0.06,9.09-3.36c2.04-3.18,4.8-13.32,4.8-17.67c0-3.57-1.8-5.85-5.13-6.57
		C726.93,484.98,726.12,485.04,724.32,485.64z"/>
	<path id="structure42_label34_Sag" bar:type="" bar:growlevel="0" fill="#3BD1D4" d="M728.55,399.33
		c-2.43,2.82-7.47,7.47-10.5,9.72c-3.3,2.433-5.04,4.53-6.12,7.38c-1.89,4.92-2.64,9.21-2.16,12.24c0.57,3.51,3.57,9.21,6.271,11.94
		c1.83,1.857,8.43,7.438,8.91,7.527c0.54,0.12,0.567-0.39,0.09-2.67c-0.48-2.31,0.15-3.897,2.46-6.39
		c1.65-1.771,4.38-3.48,5.521-3.48c0.75,0,0.568-0.688-0.989-4.14c-0.813-1.771-1.62-3.75-1.83-4.41
		c-0.54-1.77-0.72-11.46-0.33-16.56c0.21-2.433,0.63-6.183,0.93-8.313C731.76,395.85,731.67,395.73,728.55,399.33z"/>
	<path id="structure43_label35_RL" bar:type="" bar:growlevel="0" fill="#6323D8" d="M730.86,436.53
		c-2.013,0.987-4.41,3.39-5.313,5.25c-1.74,3.72,1.59,10.857,6.183,13.2c1.827,0.897,4.5,1.617,6.18,1.617
		c1.26,0,1.29-0.027,1.29-0.987c0-2.223-1.32-10.71-1.95-12.513c-0.36-1.08-1.26-3.21-1.95-4.737
		C733.8,435.15,733.68,435.09,730.86,436.53z"/>
	<path id="structure44_label36_MEnt" bar:type="" bar:growlevel="0" fill="#E4FF59" d="M723.3,303.78c0,0.57,4.98,5.16,6.96,6.42
		c1.021,0.66,2.37,1.35,2.973,1.56l1.14,0.33l-1.771,1.89c-1.92,2.07-3.567,5.16-4.197,7.89c-0.66,2.79-0.24,6.51,1.197,10.92
		c2.94,9.12,10.143,25.32,13.593,30.6c0.897,1.41,4.527,6.51,8.04,11.37c10.59,14.55,16.107,23.01,18.897,28.891
		c1.83,3.868,3.42,8.67,7.5,22.56c5.521,18.87,7.59,25.41,10.17,31.89c3.51,8.82,7.32,14.61,14.34,21.723
		c10.5,10.68,22.263,17.37,35.313,20.13c3.21,0.688,11.04,0.93,14.28,0.45c9.237-1.353,18.84-7.5,26.43-16.92
		c2.58-3.183,6.479-8.94,7.89-11.643l0.84-1.62l-7.618-14.31c-4.199-7.86-7.771-14.313-7.949-14.313c-0.15,0-0.87,0.87-1.59,1.95
		c-1.563,2.37-5.07,5.73-7.263,6.96c-0.897,0.54-2.698,1.32-4.02,1.771c-2.22,0.777-2.73,0.84-6.9,0.84
		c-5.22-0.03-7.979-0.63-13.68-2.94c-7.17-2.908-11.25-5.79-13.92-9.777c-2.94-4.44-4.47-8.61-7.47-20.643
		c-4.021-16.02-11.343-41.43-15.063-52.29c-4.02-11.7-6.39-16.14-10.858-20.4c-2.819-2.73-4.949-4.2-8.729-6.09
		c-5.01-2.52-7.74-3.24-15.84-4.08c-5.28-0.57-9.09-1.92-11.46-4.05c-0.63-0.57-1.262-1.05-1.38-1.05c-0.12,0-1.143,0.72-2.223,1.62
		c-4.83,3.9-7.737,5.49-9.567,5.13c-2.67-0.51-5.433-2.64-6.723-5.25c-1.02-2.04-0.96-6.33,0.12-8.94c1.23-2.94,2.58-4.98,5.49-8.19
		c4.38-4.86,4.68-5.31,4.59-6.54c-0.147-1.71-1.318-2.13-5.79-2.13c-2.43,0-3.75-0.12-3.988-0.36c-0.569-0.57-0.421-1.89,0.238-2.49
		c1.262-1.14,0.87-1.23-5.7-1.23C725.19,303.45,723.3,303.54,723.3,303.78z"/>
	<path id="structure45_label37_CEnt" bar:type="" bar:growlevel="0" fill="#C5E900" d="M723.3,303.78c0,0.57,4.98,5.16,6.96,6.42
		c1.021,0.66,2.37,1.35,2.973,1.56l1.14,0.33l-1.771,1.89c-1.92,2.07-3.567,5.16-4.197,7.89c-0.66,2.79-0.24,6.51,1.197,10.92
		c2.94,9.12,10.143,25.32,13.593,30.6c0.897,1.41,4.527,6.51,8.04,11.37c10.59,14.55,16.107,23.01,18.897,28.891
		c1.83,3.868,3.42,8.67,7.5,22.56c5.521,18.87,7.59,25.41,10.17,31.89c3.51,8.82,7.32,14.61,14.34,21.723
		c10.5,10.68,22.263,17.37,35.313,20.13c3.21,0.688,11.04,0.93,14.28,0.45c9.237-1.353,18.84-7.5,26.43-16.92
		c2.58-3.183,6.479-8.94,7.89-11.643l0.84-1.62l-7.618-14.31c-4.199-7.86-7.771-14.313-7.949-14.313c-0.15,0-0.87,0.87-1.59,1.95
		c-1.563,2.37-5.07,5.73-7.263,6.96c-0.897,0.54-2.698,1.32-4.02,1.771c-2.22,0.777-2.73,0.84-6.9,0.84
		c-5.22-0.03-7.979-0.63-13.68-2.94c-7.17-2.908-11.25-5.79-13.92-9.777c-2.94-4.44-4.47-8.61-7.47-20.643
		c-4.021-16.02-11.343-41.43-15.063-52.29c-4.02-11.7-6.39-16.14-10.858-20.4c-2.819-2.73-4.949-4.2-8.729-6.09
		c-5.01-2.52-7.74-3.24-15.84-4.08c-5.28-0.57-9.09-1.92-11.46-4.05c-0.63-0.57-1.262-1.05-1.38-1.05c-0.12,0-1.143,0.72-2.223,1.62
		c-4.83,3.9-7.737,5.49-9.567,5.13c-2.67-0.51-5.433-2.64-6.723-5.25c-1.02-2.04-0.96-6.33,0.12-8.94c1.23-2.94,2.58-4.98,5.49-8.19
		c4.38-4.86,4.68-5.31,4.59-6.54c-0.147-1.71-1.318-2.13-5.79-2.13c-2.43,0-3.75-0.12-3.988-0.36c-0.569-0.57-0.421-1.89,0.238-2.49
		c1.262-1.14,0.87-1.23-5.7-1.23C725.19,303.45,723.3,303.54,723.3,303.78z"/>
	<path id="structure46_label38_DLEnt" bar:type="" bar:growlevel="0" fill="#D6FF00" d="M885.51,385.11
		c-1.95,3.75-2.58,6.72-4.107,19.14c-1.92,15.51-3.813,23.19-7.86,32.1c-0.81,1.803-1.62,3.633-1.8,4.053
		c-0.271,0.657,0.51,2.277,7.26,14.907c4.17,7.803,7.74,14.19,7.95,14.19c0.359,0,1.59-2.46,2.85-5.7c0.36-0.897,2.011-4.95,3.66-9
		c1.68-4.05,3.601-9.06,4.32-11.13c2.397-7.14,4.56-18,5.22-26.46l0.36-4.38l-2.91-5.64c-6.393-12.333-12.99-24.09-13.5-24.09
		C886.74,383.1,886.11,384,885.51,385.11z"/>
	<path id="structure47_label39_PRh" bar:type="" bar:growlevel="0" fill="#EBF400" d="M864.9,347.1c0,0.18,1.26,2.1,2.817,4.29
		c7.17,10.08,19.353,30.54,28.771,48.208c2.13,4.053,4.5,8.46,5.22,9.813c0.72,1.38,1.47,2.49,1.68,2.49s0.813-1.32,1.38-2.94
		c0.57-1.59,2.07-5.37,3.36-8.37s2.67-6.51,3.063-7.8c0.897-2.79,1.89-8.52,2.277-13.29c0.33-3.84,0.54-12.51,0.271-12.75
		c-0.271-0.27-48.063-19.95-48.45-19.95C865.08,346.8,864.9,346.95,864.9,347.1z"/>
	<path id="structure48_label40_Ect" bar:type="" bar:growlevel="0" fill="#F9FF47" d="M866.16,297.81
		c-15.21,9.87-27.66,18.06-27.66,18.21c0,0.33,0.84,1.32,10.41,12.18c3.99,4.53,8.97,10.38,11.1,13.02l3.84,4.74l24.603,10.17
		c13.53,5.58,24.78,10.17,25.02,10.17c0.36,0,0.393-1.23,0.24-7.89c-0.21-8.19-0.87-18.81-1.41-22.32
		c-2.16-14.04-8.1-33.24-16.35-52.83c-0.78-1.83-1.59-3.36-1.771-3.36C893.97,279.9,881.37,287.97,866.16,297.81z"/>
	<path id="structure49_label41_TeA" bar:type="" bar:growlevel="0" fill="#D0D46B" d="M836.85,259.32
		c-16.317,13.92-29.729,25.47-29.76,25.71c-0.03,0.24,1.71,1.98,3.87,3.87c4.74,4.17,18.84,17.94,23.46,22.95
		c2.16,2.34,3.54,3.6,3.93,3.6c0.99-0.03,55.62-35.61,55.65-36.24c0-1.32-8.94-19.35-13.05-26.28
		c-4.021-6.78-12.84-18.69-13.95-18.84C866.76,234.06,853.2,245.4,836.85,259.32z"/>
	<path id="structure50_label43_PaS" bar:type="" bar:growlevel="0" fill="#B6DF00" d="M752.85,301.38
		c-10.857,0.78-12.869,1.05-15.357,1.98c-2.37,0.87-3.42,2.55-2.313,3.66c0.36,0.39,1.2,0.48,4.263,0.48
		c4.14,0,4.92,0.24,5.487,1.71c0.393,1.08-0.33,2.22-3.81,6.06c-3.45,3.72-4.95,5.88-6,8.43c-2.01,4.98-1.38,9.63,1.68,12.42
		c2.58,2.34,5.22,2.85,7.95,1.56c3.3-1.56,9.15-6.51,17.88-15.18c6.271-6.24,7.8-8.13,8.4-10.32c0.72-2.64-0.42-6.27-2.58-8.25
		c-1.98-1.83-4.38-2.46-9.75-2.58C756.3,301.32,753.69,301.32,752.85,301.38z"/>
	<path id="structure51_label44_V2L" bar:type="" bar:growlevel="0" fill="#FDFFB2" d="M810.84,186.36
		c-6.09,8.58-45.357,65.55-45.45,65.91c-0.09,0.33,0.75,1.08,2.67,2.43c9.87,6.81,21.271,15.63,32.79,25.35
		c2.94,2.46,5.553,4.5,5.82,4.47c0.57,0,60.03-50.43,60.03-50.88c0-0.6-6.3-7.47-13.353-14.49c-8.97-8.97-17.76-16.83-28.197-25.23
		c-5.25-4.23-12.211-9.42-12.603-9.42C812.34,184.5,811.56,185.34,810.84,186.36z"/>
	<path id="structure52_label45_RSD" bar:type="" bar:growlevel="0" fill="#EEF447" d="M617.94,176.46
		c-5.37,10.86-3.15,23.1,6.21,34.32c4.229,5.07,7.89,8.37,17.55,15.9c3.39,2.61,10.89,8.55,16.68,13.17
		c5.79,4.62,14.64,11.67,19.65,15.66c11.16,8.85,15,12.15,20.938,17.94c7.08,6.9,12.03,12.87,17.433,21
		c1.527,2.31,3.567,5.22,4.527,6.51l1.771,2.28l2.607,0.21c3.933,0.33,11.313-0.06,13.98-0.72c3.54-0.93,9.03-1.35,17.01-1.38
		c6.96,0,7.44,0.03,9.03,0.69c2.64,1.05,3.99,2.19,4.95,4.17c1.229,2.49,1.35,5.16,0.33,7.2c-0.42,0.84-1.11,1.92-1.53,2.43
		c-0.75,0.84-1.05,1.86-0.54,1.86c0.12,0,0.96-0.21,1.86-0.45c3.777-1.05,10.197-0.87,17.85,0.48c10.92,1.95,20.88,6.36,35.49,15.69
		c2.938,1.89,9.33,5.85,14.188,8.79c18.513,11.28,30.183,19.08,38.37,25.68c1.47,1.2,2.102,1.38,2.102,0.6
		c0-0.27-1.319-2.61-2.909-5.16c-8.28-13.32-14.313-21.24-26.79-35.28c-1.92-2.16-4.83-5.46-6.45-7.35
		c-24.15-27.96-58.11-56.55-93.75-78.96c-14.01-8.79-25.38-14.73-40.65-21.21c-12.987-5.49-17.817-7.71-29.85-13.74
		c-23.07-11.52-43.74-22.86-55.14-30.3c-1.86-1.2-3.48-2.19-3.631-2.19C619.11,174.3,618.54,175.29,617.94,176.46z"/>
	<path id="structure53_text8376_ECIC-2" bar:type="" bar:growlevel="0" fill="#0036FF" d="M657.9,244.35
		c0,0.51,1.737,2.52,12.6,14.4c14.76,16.17,21.18,23.58,25.68,29.61c2.643,3.54,3.933,5.73,6.69,11.25
		c6.03,12.03,8.25,21.45,8.22,34.89c-0.03,10.71-1.29,21.72-4.17,36.6c-2.49,12.72-2.49,14.7,0,14.7c4.2,0,8.16-11.52,10.29-29.85
		c0.78-6.6,0.78-26.49,0-32.31c-0.75-5.67-2.04-11.79-3.33-15.57c-3.479-10.38-10.2-21.57-18.6-31.08
		c-7.44-8.43-25.53-25.17-33.36-30.87C658.89,243.93,657.9,243.48,657.9,244.35z"/>
	<path id="structure54_label49_V1B" bar:type="" bar:growlevel="0" fill="#FEFFB2" d="M736.11,188.07
		c-7.86,20.61-14.313,37.71-14.313,38.01c0,0.42,1.021,1.08,3.99,2.58c9.75,4.95,20.52,11.37,33.12,19.8c3.18,2.1,5.88,3.84,6,3.84
		c0.42-0.03,46.74-67.2,46.83-67.89c0.147-1.2-10.11-8.01-23.643-15.72c-12.897-7.35-19.979-11.01-27.897-14.4
		c-3.21-1.38-9.21-3.69-9.57-3.69C750.51,150.6,743.97,167.46,736.11,188.07z"/>
	<path id="structure55_label50_V1M" bar:type="" bar:growlevel="0" fill="#FAFF00" d="M696.75,143.13
		c-9.51,0.51-20.04,1.89-29.91,3.87c-9,1.83-15.84,3.93-15.84,4.89c0,0.24,2.46,3.18,5.46,6.54c23.91,26.91,40.29,47.25,46.65,57.99
		l1.56,2.64l6.391,2.79c3.512,1.53,7.229,3.15,8.279,3.6c1.021,0.48,1.95,0.78,2.04,0.69c0.33-0.36,28.62-74.7,28.62-75.24
		c0-0.48-0.63-0.78-3.36-1.62C730.2,144.18,714.15,142.2,696.75,143.13z"/>
	<path id="structure56_label51_V2MM" bar:type="" bar:growlevel="0" fill="#FAFF59" d="M644.46,154.65
		c-8.88,4.32-15.42,8.67-19.979,13.17c-2.19,2.19-4.98,5.61-4.98,6.12c0,0.18,1.65,1.38,3.69,2.67
		c11.607,7.56,32.487,18.99,55.71,30.51c11.85,5.91,23.55,11.28,24.479,11.28c0.63,0,0.51-0.54-0.39-2.07
		c-5.4-9.3-21.271-29.19-42.48-53.25c-9.18-10.38-9.72-10.98-10.35-10.98C649.89,152.1,647.31,153.24,644.46,154.65z"/>
	<path fill="#FFEEB2" d="M562.41,208.89c-4.62-4.38-10.71-6.3-20.91-6.54c-0.402-0.009-0.82-0.014-1.244-0.018l0.17,45.09
		c0.921-0.007,1.834-0.049,2.727-0.163c7.8-0.99,15.21-4.89,21.93-11.58c4.02-4.02,5.43-6.48,5.7-9.93
		C571.2,220.56,568.11,214.29,562.41,208.89z"/>
	<path id="structure58_label53_DCIC" bar:type="" bar:growlevel="0" fill="#5974FF" d="M611.85,222.63
		c-3.479,0.36-7.857,1.35-11.34,2.58c-7.35,2.55-11.25,4.95-37.857,23.43c-11.013,7.65-15.75,11.19-15.75,11.76
		c0,1.32,1.05,6.69,2.13,10.8c3.06,11.79,8.37,25.2,16.47,41.55c5.49,11.07,15.18,28.02,16.05,28.02
		c0.3,0.03,5.521-8.16,12.57-19.65c9.147-15,17.31-29.97,20.1-36.93c2.73-6.84,4.8-15.21,8.88-36.15
		c2.91-14.91,4.143-20.49,5.013-22.26c0.63-1.35,0.567-1.41-2.61-2.25C621.33,222.39,616.86,222.12,611.85,222.63z"/>
	<path id="structure59_label54_CIC" bar:type="" bar:growlevel="0" fill="#B2BFFF" d="M628.26,225.42
		c-0.688,1.56-1.89,6.63-3.51,14.88c-6.54,33.51-7.95,38.97-12.54,48.63c-4.53,9.6-15,27.69-26.94,46.53
		c-1.979,3.09-3.567,5.7-3.567,5.82c0,0.24,6.06,8.97,9.72,14.04c8.76,12.03,19.44,24.06,27.3,30.75
		c8.19,6.96,21.48,15.663,29.763,19.56c3.81,1.771,8.55,3.57,9.42,3.57c0.96,0,3.06-1.563,6.54-4.92
		c5.577-5.4,9.63-11.46,15.96-23.97c5.22-10.38,6.869-15.03,7.979-22.47c0.69-4.65,0.45-15.81-0.45-21.24
		c-2.22-13.71-6.96-29.49-13.71-45.84c-2.55-6.18-9.84-20.82-13.5-27.06c-9.63-16.47-24.688-36.12-29.16-38.04
		C629.1,224.61,628.65,224.55,628.26,225.42z"/>
	<path fill="#FF0070" d="M554.79,313.74c-2.22-3.09-5.73-6.42-8.49-8.07c-2.97-1.77-3.3-2.49-3.63-8.46
		c-0.27-4.8-0.6-6.33-1.47-6.81c-0.198-0.103-0.406-0.17-0.614-0.216l0.227,60.225c5.104,0.041,10.188,0.433,14.247,1.192
		c9.933,1.86,20.973,8.07,25.29,14.25c1.98,2.82,2.58,3.45,3.78,4.05c1.38,0.72,1.771,0.75,1.771,0.15
		C585.9,368.16,559.29,320.01,554.79,313.74z"/>
	<path fill="#3BE95B" d="M595.32,389.88c-1.53-3.84-3.393-7.92-6.183-13.77c-2.43-5.01-2.46-5.01-3.657-5.34
		c-1.98-0.51-3.183-1.44-4.41-3.36c-4.17-6.63-14.553-12.99-24.84-15.21c-3.771-0.816-9.291-1.273-15.419-1.305l0.066,17.637
		c2.564,0.023,5.123,0.185,7.521,0.498c5.368,0.69,10.438,2.49,12.658,4.44c1.563,1.35,2.4,3.24,2.37,5.34
		c-0.06,6.21-4.29,9.48-13.8,10.74c-1.931,0.26-5.238,0.4-8.67,0.423l0.121,32.277c34.271-0.004,37.284-0.206,42.509-2.67
		c7.17-3.33,11.37-9.99,12.51-19.83C596.67,394.68,596.52,392.94,595.32,389.88z"/>
	<path id="structure62_label57_LPAG" bar:type="" bar:growlevel="0" fill="#0003FF" d="M562.77,317.61
		c-1.38,1.95-2.55,3.63-2.607,3.75c-0.063,0.12,2.67,5.13,6.06,11.13c9.841,17.46,15.78,28.47,20.7,38.46
		c8.34,16.77,12.12,26.397,12.69,32.13l0.18,1.83l6.63,1.89c3.63,1.05,8.102,2.34,9.87,2.91c1.8,0.57,3.36,0.96,3.45,0.84
		c0.39-0.39-3-17.31-5.07-25.05l-0.99-3.72l-2.97-3.18c-16.08-16.98-32.64-40.62-43.08-61.47c-0.84-1.65-1.71-3.03-1.92-3.03
		C565.47,314.1,564.18,315.69,562.77,317.61z"/>
	<path fill="#00E945" d="M755.43,487.26c-1.197-0.688-1.71-0.81-3.777-0.81c-2.763,0-4.41,0.688-6.96,2.88
		c-3.99,3.45-5.313,5.729-12.54,21.72c-1.92,4.29-4.563,10.08-5.853,12.9c-2.52,5.49-3.479,8.55-4.62,14.85
		c-1.438,7.98-1.71,13.41-0.897,19.353c0.6,4.35,0.66,10.107,0.147,12.75c-0.54,2.76-1.56,5.157-4.527,10.647
		c-1.44,2.643-4.08,7.5-5.853,10.8c-4.08,7.593-4.35,8.013-7.02,10.23c-1.2,1.02-2.46,2.25-2.763,2.7
		c-0.3,0.479-1.317,3.63-2.31,7.02c-3.6,12.36-9.36,31.71-10.05,33.75c-1.74,4.95-3.21,7.353-5.07,8.16
		c-0.63,0.271-1.14,0.66-1.14,0.81c0,0.78-1.83,4.053-3,5.37c-2.521,2.853-6.57,5.19-16.771,9.63
		c-7.949,3.48-12.06,5.07-13.647,5.223c-1.17,0.12-2.07,0.54-4.2,1.92c-3.48,2.28-11.521,6.21-15.03,7.38
		c-2.88,0.93-4.95,1.438-10.95,2.61c-2.067,0.39-6.63,1.527-10.17,2.55c-3.54,0.989-6.6,1.8-6.84,1.8c-0.51,0-0.51,0.75,0.03,1.2
		c0.87,0.688,1.47,2.91,1.29,4.62c-0.21,2.188-1.5,4.8-2.73,5.55c-2.43,1.5-7.647,2.04-15.33,1.56
		c-7.5-0.51-15.688-1.857-29.698-5.01c-7.892-1.771-9-2.13-10.021-3.3l-0.84-0.931l-0.181-20.972
		c-0.182-22.528-0.689-50.25-1.079-60.72c-0.183-5.07-0.33-6.66-0.723-7.41c-0.15-0.289-0.338-0.556-0.542-0.795l0.388,102.711
		l2.437,0.414c10.65,1.8,43.32,3.66,51.42,2.91c15-1.41,35.46-8.73,50.34-18c10.32-6.45,28.683-19.352,36.66-25.71
		c4.143-3.33,13.23-10.86,14.46-12c0.36-0.33,0.36-0.57,0.03-1.59c-0.33-1.021-0.3-1.563,0.12-3.78c0.75-3.69,2.58-9.271,5.31-16.11
		c5.4-13.56,8.61-20.43,10.563-22.647c0.84-0.96,0.988-1.021,2.277-0.842l1.383,0.149l4.857-8.16
		c6.063-10.26,7.8-13.38,13.08-23.489c9.42-18.061,19.32-39.238,23.34-49.948c1.95-5.131,5.37-21.512,5.37-25.591
		C763.8,497.19,760.14,490.02,755.43,487.26z"/>
	<path fill="#00E5C7" d="M582.6,614.43c-4.71-3.777-8.88-6.42-14.55-9.18c-9.42-4.62-17.1-6.45-21-5.07
		c-2.607,0.933-4.857,3.69-4.56,5.643c0.06,0.51,0.27,1.68,0.45,2.58c0.18,0.897,0.39,6.567,0.479,12.6
		c0.3,18.21,0.54,24.6,0.9,24.6c0.18,0,0.6-0.42,0.93-0.93c0.33-0.479,1.17-1.38,1.86-1.95c3.27-2.7,6.688-3.42,13.737-2.85
		c3.87,0.3,11.16,1.229,13.44,1.71c0.689,0.15,0.81,0.09,0.81-0.54c0-0.99,1.08-1.95,3.03-2.61c1.92-0.688,8.34-2.188,12.09-2.85
		c1.473-0.271,2.82-0.6,2.973-0.75c0.147-0.15,0.357-1.5,0.447-2.97C593.97,625.74,591.15,621.24,582.6,614.43z"/>
	<path fill="#792FDC" d="M755.43,487.26c-1.197-0.688-1.71-0.81-3.777-0.81c-2.763,0-4.41,0.688-6.96,2.88
		c-3.99,3.45-5.313,5.729-12.54,21.72c-1.92,4.29-4.563,10.08-5.853,12.9c-2.52,5.49-3.479,8.55-4.62,14.85
		c-1.438,7.98-1.71,13.41-0.897,19.353c0.6,4.35,0.66,10.107,0.147,12.75c-0.54,2.76-1.56,5.157-4.527,10.647
		c-1.44,2.643-4.08,7.5-5.853,10.8c-4.08,7.593-4.35,8.013-7.02,10.23c-1.2,1.02-2.46,2.25-2.763,2.7
		c-0.3,0.479-1.317,3.63-2.31,7.02c-3.6,12.36-9.36,31.71-10.05,33.75c-1.74,4.95-3.21,7.353-5.07,8.16
		c-0.63,0.271-1.14,0.66-1.14,0.81c0,0.78-1.83,4.053-3,5.37c-2.521,2.853-6.57,5.19-16.771,9.63
		c-7.949,3.48-12.06,5.07-13.647,5.223c-1.17,0.12-2.07,0.54-4.2,1.92c-3.48,2.28-11.521,6.21-15.03,7.38
		c-2.88,0.93-4.95,1.438-10.95,2.61c-2.067,0.39-6.63,1.527-10.17,2.55c-3.54,0.989-6.6,1.8-6.84,1.8c-0.51,0-0.51,0.75,0.03,1.2
		c0.87,0.688,1.47,2.91,1.29,4.62c-0.21,2.188-1.5,4.8-2.73,5.55c-2.43,1.5-7.647,2.04-15.33,1.56
		c-7.5-0.51-15.688-1.857-29.698-5.01c-7.892-1.771-9-2.13-10.021-3.3l-0.84-0.931l-0.181-20.972
		c-0.182-22.528-0.689-50.25-1.079-60.72c-0.183-5.07-0.33-6.66-0.723-7.41c-0.15-0.289-0.338-0.556-0.542-0.795l0.388,102.711
		l2.437,0.414c10.65,1.8,43.32,3.66,51.42,2.91c15-1.41,35.46-8.73,50.34-18c10.32-6.45,28.683-19.352,36.66-25.71
		c4.143-3.33,13.23-10.86,14.46-12c0.36-0.33,0.36-0.57,0.03-1.59c-0.33-1.021-0.3-1.563,0.12-3.78c0.75-3.69,2.58-9.271,5.31-16.11
		c5.4-13.56,8.61-20.43,10.563-22.647c0.84-0.96,0.988-1.021,2.277-0.842l1.383,0.149l4.857-8.16
		c6.063-10.26,7.8-13.38,13.08-23.489c9.42-18.061,19.32-39.238,23.34-49.948c1.95-5.131,5.37-21.512,5.37-25.591
		C763.8,497.19,760.14,490.02,755.43,487.26z"/>
	<path id="structure7_label1_PnO" bar:type="" bar:growlevel="0" fill="#76FFDA" d="M604.65,537.48
		c-10.29,1.14-19.683,4.077-26.91,8.43c-2.25,1.35-2.34,1.47-2.34,2.52c0,1.5-1.32,14.04-2.25,21.42
		c-2.013,15.66-3.36,21.12-7.263,29.223c-1.05,2.188-1.857,4.08-1.77,4.14c0.09,0.09,1.41,0.75,2.938,1.44
		c9.513,4.29,20.553,12.75,24.33,18.63c1.32,2.04,1.473,2.16,3.12,2.607c5.16,1.44,15.09,2.19,22.86,1.71
		c11.16-0.657,19.438-2.52,27.09-6.06c2.55-1.2,2.67-1.26,3.39-2.91c0.87-1.89,3.87-6.96,5.37-9.09
		c3.36-4.71,5.643-14.97,5.13-23.04c-0.93-14.91-4.47-24.479-12.6-34.17c-6.57-7.8-14.82-12.75-23.939-14.311
		C619.11,537.57,607.32,537.21,604.65,537.48z"/>
	<path id="structure81_label76_ts" bar:type="" bar:growlevel="0" fill="#00EF7A" d="M568.8,530.61c-1.68,0.72-3.81,2.43-4.14,3.3
		c-0.18,0.479-0.54,4.2-0.813,8.34c-0.54,8.58-1.47,16.47-3.18,27.45c-0.66,4.2-1.41,9.39-1.68,11.55
		c-0.603,4.95-0.63,16.38-0.03,18.6c0.36,1.381,0.51,1.563,2.04,2.313c2.88,1.438,3.24,1.2,5.4-3.54
		c4.078-8.82,5.67-16.83,8.22-40.771c1.858-17.368,1.739-24.21-0.48-26.729c-0.84-0.93-1.02-1.021-2.607-0.99
		C570.6,530.13,569.37,530.34,568.8,530.61z"/>
	<path id="structure8_text7648_Pn" bar:type="" bar:growlevel="0" fill="#59FFD0" d="M590.4,635.67
		c-5.313,0.93-12.271,2.67-13.593,3.39c-1.17,0.66-2.1,2.07-1.647,2.521c0.12,0.09,1.8,0.479,3.75,0.87
		c11.37,2.25,21.12,5.55,24.18,8.25c0.99,0.87,1.17,0.897,3.69,0.897c3.897,0,6.72,0.933,10.107,3.271
		c1.74,1.17,5.04,4.53,6.24,6.33c1.141,1.647,1.8,1.857,2.313,0.75c0.657-1.41,0.447-3.24-0.54-4.71
		c-1.62-2.46-6.603-8.103-10.62-12.09c-4.32-4.263-8.07-7.143-11.58-8.82c-2.13-1.021-2.4-1.08-5.7-1.141
		C594.72,635.16,592.47,635.31,590.4,635.67z"/>
	
		<text id="text7648" bar:growlevel="0" transform="matrix(1 0 0 1 593.25 643.4678)" fill="#232323" enable-background="new    " font-family="'TimesNewRomanPSMT'" font-size="9">Pn</text>
	
		<text id="text7646" bar:growlevel="0" transform="matrix(1 0 0 1 564.1797 695.167)" fill="#232323" enable-background="new    " font-family="'TimesNewRomanPSMT'" font-size="9">Pn</text>
	
		<text id="label30" bar:growlevel="0" transform="matrix(1 0 0 1 638.9121 455.6914)" fill="#232323" enable-background="new    " font-family="'TimesNewRomanPSMT'" font-size="9">LPB</text>
	<g id="label31" bar:growlevel="0">
		<text transform="matrix(1 0 0 1 553.0703 432.3926)" fill="#232323" font-family="'TimesNewRomanPSMT'" font-size="9">4</text>
		<text transform="matrix(1 0 0 1 557.5703 432.3926)" fill="#232323" font-family="'TimesNewRomanPSMT'" font-size="9">V</text>
	</g>
	<g id="label32" bar:growlevel="0">
		<text transform="matrix(1 0 0 1 706.0195 465.3164)" fill="#232323" font-family="'TimesNewRomanPSMT'" font-size="9">D</text>
		<text transform="matrix(1 0 0 1 712.5195 465.3164)" fill="#232323" font-family="'TimesNewRomanPSMT'" font-size="9">L</text>
		<text transform="matrix(1 0 0 1 718.0176 465.3164)" fill="#232323" font-family="'TimesNewRomanPSMT'" font-size="9">L</text>
	</g>
	<g id="label33" bar:growlevel="0">
		<text transform="matrix(1 0 0 1 714.4102 503.8838)" fill="#232323" font-family="'TimesNewRomanPSMT'" font-size="9">I</text>
		<text transform="matrix(1 0 0 1 717.4072 503.8838)" fill="#232323" font-family="'TimesNewRomanPSMT'" font-size="9">L</text>
		<text transform="matrix(1 0 0 1 722.9043 503.8838)" fill="#232323" font-family="'TimesNewRomanPSMT'" font-size="9">L</text>
	</g>
	
		<text id="label34" bar:growlevel="0" transform="matrix(1 0 0 1 714.8906 429.8105)" fill="#232323" enable-background="new    " font-family="'TimesNewRomanPSMT'" font-size="9">Sag</text>
	<g id="label35" bar:growlevel="0">
		<text transform="matrix(1 0 0 1 727.0195 449.2637)" fill="#232323" font-family="'TimesNewRomanPSMT'" font-size="9">R</text>
		<text transform="matrix(1 0 0 1 733.0234 449.2637)" fill="#232323" font-family="'TimesNewRomanPSMT'" font-size="9">L</text>
	</g>
	
		<text id="label36" bar:growlevel="0" transform="matrix(1 0 0 1 832.2002 477.5986)" fill="#232323" enable-background="new    " font-family="'TimesNewRomanPSMT'" font-size="9">MEnt</text>
	
		<text id="label37" bar:growlevel="0" transform="matrix(1 0 0 1 793.9102 448.2432)" fill="#232323" enable-background="new    " font-family="'TimesNewRomanPSMT'" font-size="9">CEnt</text>
	
		<text id="label38" bar:growlevel="0" transform="matrix(1 0 0 1 886.3906 434.9707)" fill="#232323" enable-background="new    " font-family="'TimesNewRomanPSMT'" font-size="9">DLEnt</text>
	
		<text id="label39" bar:growlevel="0" transform="matrix(1 0 0 1 890.2305 376.9111)" fill="#232323" enable-background="new    " font-family="'TimesNewRomanPSMT'" font-size="9">PRh</text>
	
		<text id="label142" bar:growlevel="0" transform="matrix(1 0 0 1 606.7695 675.2139)" fill="#232323" enable-background="new    " font-family="'TimesNewRomanPSMT'" font-size="9">lfp</text>
	
		<text id="label141" bar:growlevel="0" transform="matrix(1 0 0 1 569.8701 667.4316)" fill="#232323" enable-background="new    " font-family="'TimesNewRomanPSMT'" font-size="9">ml</text>
	
		<text id="label140" bar:growlevel="0" transform="matrix(1 0 0 1 562.3203 651.999)" fill="#232323" enable-background="new    " font-family="'TimesNewRomanPSMT'" font-size="9">tth</text>
	
		<text id="label147" bar:growlevel="0" transform="matrix(1 0 0 1 622.7744 442.7588)" fill="#232323" enable-background="new    " font-family="'TimesNewRomanPSMT'" font-size="9">4n</text>
	
		<text id="label146" bar:growlevel="0" transform="matrix(1 0 0 1 640.1699 469.7275)" fill="#232323" enable-background="new    " font-family="'TimesNewRomanPSMT'" font-size="9">scp</text>
	
		<text id="Unlabeled-1793-1230" bar:growlevel="0" transform="matrix(1 0 0 1 550.25 379.7002)" fill="#232323" enable-background="new    " font-family="'TimesNewRomanPSMT'" font-size="9">2Cb</text>
	
		<text id="label8" bar:growlevel="0" transform="matrix(1 0 0 1 650.3555 661.7246)" fill="#232323" enable-background="new    " font-family="'TimesNewRomanPSMT'" font-size="9">MVPO</text>
	<g id="label9" bar:growlevel="0">
		<text transform="matrix(1 0 0 1 651.6631 645.4473)" fill="#232323" font-family="'TimesNewRomanPSMT'" font-size="9">C</text>
		<text transform="matrix(1 0 0 1 657.666 645.4473)" fill="#232323" font-family="'TimesNewRomanPSMT'" font-size="9">A</text>
		<text transform="matrix(1 0 0 1 663.168 645.4473)" fill="#232323" font-family="'TimesNewRomanPSMT'" font-size="9">T</text>
	</g>
	
		<text id="label0" bar:growlevel="0" transform="matrix(1 0 0 1 554.3799 627.4355)" fill="#232323" enable-background="new    " font-family="'TimesNewRomanPSMT'" font-size="9">RtTg</text>
	
		<text id="label1" bar:growlevel="0" transform="matrix(1 0 0 1 604.1602 586.1377)" fill="#232323" enable-background="new    " font-family="'TimesNewRomanPSMT'" font-size="9">PnO</text>
	
		<text id="Unlabeled-1779-870" bar:growlevel="0" transform="matrix(1 0 0 1 543.75 272.9502)" fill="#232323" enable-background="new    " font-family="'TimesNewRomanPSMT'" font-size="9">Com</text>
	<g id="label18" bar:growlevel="0">
		<text transform="matrix(1 0 0 1 704.1094 492.9316)" fill="#232323" font-family="'TimesNewRomanPSMT'" font-size="9">L</text>
	</g>
	<g id="label19" bar:growlevel="0">
		<text transform="matrix(1 0 0 1 708.9199 492.9316)" fill="#232323" font-family="'TimesNewRomanPSMT'" font-size="9">L</text>
	</g>
	
		<text id="label12" bar:growlevel="0" transform="matrix(1 0 0 1 671.0898 549.2617)" fill="#232323" enable-background="new    " font-family="'TimesNewRomanPSMT'" font-size="9">A7</text>
	
		<text id="label13" bar:growlevel="0" transform="matrix(1 0 0 1 593.3496 521.6162)" fill="#232323" enable-background="new    " font-family="'TimesNewRomanPSMT'" font-size="9">DMTg</text>
	<g id="label10" bar:growlevel="0">
		<text transform="matrix(1 0 0 1 669.3652 623.9336)" fill="#232323" font-family="'TimesNewRomanPSMT'" font-size="9">V</text>
		<text transform="matrix(1 0 0 1 675.8652 623.9336)" fill="#232323" font-family="'TimesNewRomanPSMT'" font-size="9">L</text>
		<text transform="matrix(1 0 0 1 681.3623 623.9336)" fill="#232323" font-family="'TimesNewRomanPSMT'" font-size="9">L</text>
	</g>
	<g id="label11" bar:growlevel="0">
		<text transform="matrix(1 0 0 1 650.9551 622.5781)" fill="#232323" font-family="'TimesNewRomanPSMT'" font-size="9">P</text>
		<text transform="matrix(1 0 0 1 655.9609 622.5781)" fill="#232323" font-family="'TimesNewRomanPSMT'" font-size="9">L</text>
		<text transform="matrix(1 0 0 1 660.6328 622.5781)" fill="#232323" font-family="'TimesNewRomanPSMT'" font-size="9">V</text>
	</g>
	<g id="label16" bar:growlevel="0">
		<text transform="matrix(1 0 0 1 673.8301 487.4707)" fill="#232323" font-family="'TimesNewRomanPSMT'" font-size="9">M</text>
		<text transform="matrix(1 0 0 1 681.832 487.4707)" fill="#232323" font-family="'TimesNewRomanPSMT'" font-size="9">P</text>
		<text transform="matrix(1 0 0 1 686.8379 487.4707)" fill="#232323" font-family="'TimesNewRomanPSMT'" font-size="9">L</text>
	</g>
	<g id="label17" bar:growlevel="0">
		<text transform="matrix(1 0 0 1 696.2305 492.9316)" fill="#232323" font-family="'TimesNewRomanPSMT'" font-size="9">T</text>
		<text transform="matrix(1 0 0 1 701.4111 492.9316)" fill="#232323" font-family="'TimesNewRomanPSMT'" font-size="9">r</text>
	</g>
	
		<text id="label15" bar:growlevel="0" transform="matrix(1 0 0 1 680.29 527.0674)" fill="#232323" enable-background="new    " font-family="'TimesNewRomanPSMT'" font-size="9">KF</text>
	
		<text id="Unlabeled-1799-1987" bar:growlevel="0" transform="matrix(1 0 0 1 543.4502 600.8496)" fill="#232323" enable-background="new    " font-family="'TimesNewRomanPSMT'" font-size="9">grey</text>
	<g id="label165" bar:growlevel="0">
		<text transform="matrix(1 0 0 1 548.0684 288.9834)" fill="#232323" font-family="'TimesNewRomanPSMT'" font-size="9">D</text>
		<text transform="matrix(1 0 0 1 554.5684 288.9834)" fill="#232323" font-family="'TimesNewRomanPSMT'" font-size="9">M</text>
		<text transform="matrix(1 0 0 1 562.5703 288.9834)" fill="#232323" font-family="'TimesNewRomanPSMT'" font-size="9">P</text>
		<text transform="matrix(1 0 0 1 566.75 288.9834)" fill="#232323" font-family="'TimesNewRomanPSMT'" font-size="9">A</text>
		<text transform="matrix(1 0 0 1 573.249 288.9834)" fill="#232323" font-family="'TimesNewRomanPSMT'" font-size="9">G</text>
	</g>
	
		<text id="label166" bar:growlevel="0" transform="matrix(1 0 0 1 618.9844 459.123)" fill="#232323" enable-background="new    " font-family="'TimesNewRomanPSMT'" font-size="9">me5</text>
	
		<text id="Unlabeled-1821-1580" bar:growlevel="0" transform="matrix(1 0 0 1 552.9004 488.0996)" fill="#232323" enable-background="new    " font-family="'TimesNewRomanPSMT'" font-size="9">CG</text>
	
		<text id="Unlabeled-2173-1553" bar:growlevel="0" transform="matrix(1 0 0 1 654 485.0996)" fill="#232323" enable-background="new    " font-family="'TimesNewRomanPSMT'" font-size="9">scp</text>
	
		<text id="label118" bar:growlevel="0" transform="matrix(1 0 0 1 542.5195 713.2598)" fill="#232323" enable-background="new    " font-family="'TimesNewRomanPSMT'" font-size="9">bas</text>
	
		<text id="label119" bar:growlevel="0" transform="matrix(1 0 0 1 546.9629 545.1885)" fill="#232323" enable-background="new    " font-family="'TimesNewRomanPSMT'" font-size="9">PMnR</text>
	
		<text id="label69" bar:growlevel="0" transform="matrix(1 0 0 1 612.1895 699.458)" fill="#232323" enable-background="new    " font-family="'TimesNewRomanPSMT'" font-size="9">tfp</text>
	
		<text id="Unlabeled-2152-2072" bar:growlevel="0" transform="matrix(1 0 0 1 622.7998 638.7998)" fill="#232323" enable-background="new    " font-family="'TimesNewRomanPSMT'" font-size="9">grey</text>
	
		<text id="label100" bar:growlevel="0" transform="matrix(1 0 0 1 674.7656 402.8076)" fill="#232323" enable-background="new    " font-family="'TimesNewRomanPSMT'" font-size="9">ECIC</text>
	
		<text id="Unlabeled-2400-814" bar:growlevel="0" transform="matrix(1 0 0 1 727.5195 315.0645)" fill="#232323" enable-background="new    " font-family="'TimesNewRomanPSMT'" font-size="9">vBrain</text>
	
		<text id="label109" bar:growlevel="0" transform="matrix(1 0 0 1 737.4443 404.4619)" fill="#232323" enable-background="new    " font-family="'TimesNewRomanPSMT'" font-size="9">4n</text>
	
		<text id="label108" bar:growlevel="0" transform="matrix(1 0 0 1 748.6094 390.5732)" fill="#232323" enable-background="new    " font-family="'TimesNewRomanPSMT'" font-size="9">v</text>
	
		<text id="label76" bar:growlevel="0" transform="matrix(1 0 0 1 564.5195 564.9844)" fill="#232323" enable-background="new    " font-family="'TimesNewRomanPSMT'" font-size="9">ts</text>
	
		<text id="Unlabeled-2580-1057" bar:growlevel="0" transform="matrix(1 0 0 1 846.2998 390.9004)" fill="#232323" enable-background="new    " font-family="'TimesNewRomanPSMT'" font-size="9">grey</text>
	
		<text id="label133" bar:growlevel="0" transform="matrix(1 0 0 1 702.29 517.5361)" fill="#232323" enable-background="new    " font-family="'TimesNewRomanPSMT'" font-size="9">vsc</text>
	<g id="label130" bar:growlevel="0">
		<text transform="matrix(1 0 0 1 659.8398 452.7109)" fill="#232323" font-family="'TimesNewRomanPSMT'" font-size="9">C</text>
		<text transform="matrix(1 0 0 1 665.8438 452.7109)" fill="#232323" font-family="'TimesNewRomanPSMT'" font-size="9">n</text>
		<text transform="matrix(1 0 0 1 670.3438 452.7109)" fill="#232323" font-family="'TimesNewRomanPSMT'" font-size="9">F</text>
		<text transform="matrix(1 0 0 1 675.3486 452.7109)" fill="#232323" font-family="'TimesNewRomanPSMT'" font-size="9">V</text>
	</g>
	
		<text id="label131" bar:growlevel="0" transform="matrix(1 0 0 1 542.3467 557.21)" fill="#232323" enable-background="new    " font-family="'TimesNewRomanPSMT'" font-size="9">MnR</text>
	
		<text id="label134" bar:growlevel="0" transform="matrix(1 0 0 1 705.4199 633.5762)" fill="#232323" enable-background="new    " font-family="'TimesNewRomanPSMT'" font-size="9">m5</text>
	
		<text id="label135" bar:growlevel="0" transform="matrix(1 0 0 1 759.1699 610.0322)" fill="#232323" enable-background="new    " font-family="'TimesNewRomanPSMT'" font-size="9">tz</text>
	<g id="label41" bar:growlevel="0">
		<text transform="matrix(1 0 0 1 846.4004 279.6338)" fill="#232323" font-family="'TimesNewRomanPSMT'" font-size="9">T</text>
		<text transform="matrix(1 0 0 1 851.2695 279.6338)" fill="#232323" font-family="'TimesNewRomanPSMT'" font-size="9">e</text>
		<text transform="matrix(1 0 0 1 855.2637 279.6338)" fill="#232323" font-family="'TimesNewRomanPSMT'" font-size="9">A</text>
	</g>
	
		<text id="label40" bar:growlevel="0" transform="matrix(1 0 0 1 876.1699 325.7119)" fill="#232323" enable-background="new    " font-family="'TimesNewRomanPSMT'" font-size="9">Ect</text>
	
		<text id="label43" bar:growlevel="0" transform="matrix(1 0 0 1 745.9502 320.251)" fill="#232323" enable-background="new    " font-family="'TimesNewRomanPSMT'" font-size="9">PaS</text>
	
		<text id="label45" bar:growlevel="0" transform="matrix(1 0 0 1 722.9297 264.9609)" fill="#232323" enable-background="new    " font-family="'TimesNewRomanPSMT'" font-size="9">RSD</text>
	<g id="label44" bar:growlevel="0">
		<text transform="matrix(1 0 0 1 807.1797 239.707)" fill="#232323" font-family="'TimesNewRomanPSMT'" font-size="9">V</text>
		<text transform="matrix(1 0 0 1 813.6797 239.707)" fill="#232323" font-family="'TimesNewRomanPSMT'" font-size="9">2</text>
		<text transform="matrix(1 0 0 1 818.1797 239.707)" fill="#232323" font-family="'TimesNewRomanPSMT'" font-size="9">L</text>
	</g>
	
		<text id="label46" bar:growlevel="0" transform="matrix(1 0 0 1 719.4648 356.6514)" fill="#FF0000" enable-background="new    " font-family="'TimesNewRomanPSMT'" font-size="9">.ECIC-1</text>
	
		<text id="label114" bar:growlevel="0" transform="matrix(1 0 0 1 739.9395 599.46)" fill="#232323" enable-background="new    " font-family="'TimesNewRomanPSMT'" font-size="9">s5</text>
	
		<text id="label115" bar:growlevel="0" transform="matrix(1 0 0 1 707.5195 572.8359)" fill="#232323" enable-background="new    " font-family="'TimesNewRomanPSMT'" font-size="9">m5</text>
	
		<text id="label116" bar:growlevel="0" transform="matrix(1 0 0 1 693.0098 584.7773)" fill="#232323" enable-background="new    " font-family="'TimesNewRomanPSMT'" font-size="9">ll</text>
	
		<text id="label117" bar:growlevel="0" transform="matrix(1 0 0 1 674.2998 569.4248)" fill="#232323" enable-background="new    " font-family="'TimesNewRomanPSMT'" font-size="9">rs</text>
	
		<text id="label110" bar:growlevel="0" transform="matrix(1 0 0 1 751.8047 464.0195)" fill="#232323" enable-background="new    " font-family="'TimesNewRomanPSMT'" font-size="9">a</text>
	
		<text id="text8376" bar:growlevel="0" transform="matrix(1 0 0 1 712.7949 333.2168)" fill="#232323" enable-background="new    " font-family="'TimesNewRomanPSMT'" font-size="9">ECIC-2</text>
	
		<text id="text8374" bar:growlevel="0" transform="matrix(1 0 0 1 684.4941 307.6201)" fill="#FF0000" enable-background="new    " font-family="'TimesNewRomanPSMT'" font-size="9">.ECIC-3</text>
	
		<text id="label111" bar:growlevel="0" transform="matrix(1 0 0 1 755.2949 471.5313)" fill="#232323" enable-background="new    " font-family="'TimesNewRomanPSMT'" font-size="9">a</text>
	
		<text id="label56" bar:growlevel="0" transform="matrix(1 0 0 1 557.04 405.5664)" fill="#232323" enable-background="new    " font-family="'TimesNewRomanPSMT'" font-size="9">2Cb</text>
	<g id="label57" bar:growlevel="0">
		<text transform="matrix(1 0 0 1 595.5605 381.6221)" fill="#232323" font-family="'TimesNewRomanPSMT'" font-size="9">L</text>
		<text transform="matrix(1 0 0 1 601.0576 381.6221)" fill="#232323" font-family="'TimesNewRomanPSMT'" font-size="9">P</text>
		<text transform="matrix(1 0 0 1 605.2363 381.6221)" fill="#232323" font-family="'TimesNewRomanPSMT'" font-size="9">A</text>
		<text transform="matrix(1 0 0 1 611.7363 381.6221)" fill="#232323" font-family="'TimesNewRomanPSMT'" font-size="9">G</text>
	</g>
	
		<text id="label55" bar:growlevel="0" transform="matrix(1 0 0 1 551.4004 339.2539)" fill="#232323" enable-background="new    " font-family="'TimesNewRomanPSMT'" font-size="9">ReIC</text>
	
		<text id="label52" bar:growlevel="0" transform="matrix(1 0 0 1 542.6406 228.5049)" fill="#232323" enable-background="new    " font-family="'TimesNewRomanPSMT'" font-size="9">Pi</text>
	
		<text id="label53" bar:growlevel="0" transform="matrix(1 0 0 1 574.46 276.5635)" fill="#232323" enable-background="new    " font-family="'TimesNewRomanPSMT'" font-size="9">DCIC</text>
	
		<text id="label50" bar:growlevel="0" transform="matrix(1 0 0 1 695.1504 180.9961)" fill="#232323" enable-background="new    " font-family="'TimesNewRomanPSMT'" font-size="9">V1M</text>
	
		<text id="label51" bar:growlevel="0" transform="matrix(1 0 0 1 646.54 186.4473)" fill="#232323" enable-background="new    " font-family="'TimesNewRomanPSMT'" font-size="9">V2MM</text>
	
		<text id="label113" bar:growlevel="0" transform="matrix(1 0 0 1 736.75 524.0273)" fill="#232323" enable-background="new    " font-family="'TimesNewRomanPSMT'" font-size="9">mcp</text>
	
		<text id="label121" bar:growlevel="0" transform="matrix(1 0 0 1 548.3203 504.2148)" fill="#232323" enable-background="new    " font-family="'TimesNewRomanPSMT'" font-size="9">mlf</text>
	
		<text id="label120" bar:growlevel="0" transform="matrix(1 0 0 1 630.5498 484.0801)" fill="#232323" enable-background="new    " font-family="'TimesNewRomanPSMT'" font-size="9">MPB</text>
	
		<text id="label122" bar:growlevel="0" transform="matrix(1 0 0 1 543.8926 453.9053)" fill="#232323" enable-background="new    " font-family="'TimesNewRomanPSMT'" font-size="9">DRC</text>
	
		<text id="label129" bar:growlevel="0" transform="matrix(1 0 0 1 663.1777 445.1875)" fill="#232323" enable-background="new    " font-family="'TimesNewRomanPSMT'" font-size="9">CnFI</text>
	
		<text id="label128" bar:growlevel="0" transform="matrix(1 0 0 1 617.9297 452.624)" fill="#232323" enable-background="new    " font-family="'TimesNewRomanPSMT'" font-size="9">Me5</text>
	
		<text id="label112" bar:growlevel="0" transform="matrix(1 0 0 1 758.7744 465.3896)" fill="#232323" enable-background="new    " font-family="'TimesNewRomanPSMT'" font-size="9">a</text>
	
		<text id="label54" bar:growlevel="0" transform="matrix(1 0 0 1 635.96 329.8125)" fill="#232323" enable-background="new    " font-family="'TimesNewRomanPSMT'" font-size="9">CIC</text>
	<g id="label23" bar:growlevel="0">
		<text transform="matrix(1 0 0 1 596.498 495.835)" fill="#232323" font-family="'TimesNewRomanPSMT'" font-size="9">L</text>
		<text transform="matrix(1 0 0 1 601.9961 495.835)" fill="#232323" font-family="'TimesNewRomanPSMT'" font-size="9">D</text>
		<text transform="matrix(1 0 0 1 608.4951 495.835)" fill="#232323" font-family="'TimesNewRomanPSMT'" font-size="9">T</text>
		<text transform="matrix(1 0 0 1 613.9922 495.835)" fill="#232323" font-family="'TimesNewRomanPSMT'" font-size="9">g</text>
		<text transform="matrix(1 0 0 1 618.4922 495.835)" fill="#232323" font-family="'TimesNewRomanPSMT'" font-size="9">V</text>
	</g>
	
		<text id="label22" bar:growlevel="0" transform="matrix(1 0 0 1 646.2793 430.6445)" fill="#232323" enable-background="new    " font-family="'TimesNewRomanPSMT'" font-size="9">CnFD</text>
	
		<text id="label21" bar:growlevel="0" transform="matrix(1 0 0 1 676.5801 455.7695)" fill="#232323" enable-background="new    " font-family="'TimesNewRomanPSMT'" font-size="9">LPBS</text>
	
		<text id="label20" bar:growlevel="0" transform="matrix(1 0 0 1 660.5918 468.0996)" fill="#232323" enable-background="new    " font-family="'TimesNewRomanPSMT'" font-size="9">PTg</text>
	
		<text id="label26" bar:growlevel="0" transform="matrix(1 0 0 1 556.8496 510.792)" fill="#232323" enable-background="new    " font-family="'TimesNewRomanPSMT'" font-size="9">VTg</text>
	<g id="label25" bar:growlevel="0">
		<text transform="matrix(1 0 0 1 553.1396 468.415)" fill="#232323" font-family="'TimesNewRomanPSMT'" font-size="9">D</text>
		<text transform="matrix(1 0 0 1 559.6387 468.415)" fill="#232323" font-family="'TimesNewRomanPSMT'" font-size="9">T</text>
		<text transform="matrix(1 0 0 1 565.1367 468.415)" fill="#232323" font-family="'TimesNewRomanPSMT'" font-size="9">g</text>
		<text transform="matrix(1 0 0 1 569.6367 468.415)" fill="#232323" font-family="'TimesNewRomanPSMT'" font-size="9">P</text>
	</g>
	
		<text id="label24" bar:growlevel="0" transform="matrix(1 0 0 1 580.3828 463.3574)" fill="#232323" enable-background="new    " font-family="'TimesNewRomanPSMT'" font-size="9">LDTg</text>
	<g id="label29" bar:growlevel="0">
		<text transform="matrix(1 0 0 1 591.584 434.2793)" fill="#232323" font-family="'TimesNewRomanPSMT'" font-size="9">V</text>
		<text transform="matrix(1 0 0 1 598.084 434.2793)" fill="#232323" font-family="'TimesNewRomanPSMT'" font-size="9">L</text>
		<text transform="matrix(1 0 0 1 603.582 434.2793)" fill="#232323" font-family="'TimesNewRomanPSMT'" font-size="9">P</text>
		<text transform="matrix(1 0 0 1 607.7607 434.2793)" fill="#232323" font-family="'TimesNewRomanPSMT'" font-size="9">A</text>
		<text transform="matrix(1 0 0 1 614.2598 434.2793)" fill="#232323" font-family="'TimesNewRomanPSMT'" font-size="9">G</text>
	</g>
	
		<text id="label49" bar:growlevel="0" transform="matrix(1 0 0 1 755.04 205.9111)" fill="#232323" enable-background="new    " font-family="'TimesNewRomanPSMT'" font-size="9">V1B</text>
	
		<text id="label163" bar:growlevel="0" transform="matrix(1 0 0 1 571.7422 495.9346)" fill="#232323" enable-background="new    " font-family="'TimesNewRomanPSMT'" font-size="9">mlf</text>
</g>
</svg>
