<?xml version="1.0" encoding="utf-8"?>
<!-- Generator: Adobe Illustrator 16.0.0, SVG Export Plug-In . SVG Version: 6.00 Build 0)  -->
<!DOCTYPE svg PUBLIC "-//W3C//DTD SVG 1.1//EN" "http://www.w3.org/Graphics/SVG/1.1/DTD/svg11.dtd">
<svg version="1.1"
	 id="body" xmlns:bar="http://www.3dbar.org" xmlns:cc="http://creativecommons.org/ns#" xmlns:inkscape="http://www.inkscape.org/namespaces/inkscape" xmlns:sodipodi="http://sodipodi.sourceforge.net/DTD/sodipodi-0.dtd" xmlns:rdf="http://www.w3.org/1999/02/22-rdf-syntax-ns#" xmlns:dc="http://purl.org/dc/elements/1.1/" xmlns:svg="http://www.w3.org/2000/svg" sodipodi:docname="46_pretrace_pretrace_v1.svg" inkscape:version="0.47 r22583"
	 xmlns="http://www.w3.org/2000/svg" xmlns:xlink="http://www.w3.org/1999/xlink" x="0px" y="0px" width="1008px" height="1008px"
	 viewBox="0 0 1008 1008" enable-background="new 0 0 1008 1008" xml:space="preserve">
<sodipodi:namedview  borderopacity="1" bordercolor="#666666" gridtolerance="10" guidetolerance="10" inkscape:cx="542.54307" inkscape:cy="716.49951" inkscape:zoom="0.46825397" objecttolerance="10" pagecolor="#ffffff" id="namedview3353" showgrid="false" inkscape:pageopacity="0" inkscape:window-width="723" inkscape:window-maximized="0" inkscape:window-height="812" inkscape:current-layer="content" inkscape:window-x="0" inkscape:pageshadow="2" inkscape:window-y="0">
	</sodipodi:namedview>
<title  id="title3275">SVG drawing</title>
<desc  id="desc3277">This was produced by version 4.2 of GNU libplot, a free library for exporting 2-D vector graphics.</desc>
<defs>
	
	<rdf:RDF>
		<cc:Work  rdf:about="">
			<dc:format>image/svg+xml</dc:format>
			<dc:type  rdf:resource="http://purl.org/dc/dcmitype/StillImage"></dc:type>
		</cc:Work>
	</rdf:RDF>
	<bar:data  name="coronalcoord" content="6.6"></bar:data>
	
		<bar:data  name="rendererConf" content="{&apos;ReferenceHeight&apos;: 900, &apos;ReferenceWidth&apos;: 1200, &apos;imageSize&apos;: (1200, 900)}">
		</bar:data>
	
		<bar:data  name="tracingConf" content="{&apos;DumpEachStepSVG&apos;: False, &apos;DumpEachStepPNG&apos;: False, &apos;GrowDefaultBoundaryColor&apos;: 200, &apos;CacheLevel&apos;: 5, &apos;NewPathIdTemplate&apos;: &apos;structure%d_%s_%s&apos;, &apos;PoTraceConf&apos;: {&apos;potrace_accuracy_parameter&apos;: &apos;0.001&apos;, &apos;potrace_width_string&apos;: &apos;1200pt&apos;, &apos;potrace_svg_resolution_string&apos;: &apos;300x300&apos;, &apos;potrace_height_string&apos;: &apos;900pt&apos;}, &apos;DetectUnlabelled&apos;: True, &apos;DumpVBrain&apos;: False, &apos;DumpWrongSeed&apos;: True, &apos;DumpDirectory&apos;: &apos;.&apos;, &apos;MinFiterTimesApplication&apos;: 3, &apos;RegionAlreadyTraced&apos;: 100, &apos;UnlabelledTreshold&apos;: 500}">
		</bar:data>
	<bar:data  name="transformationmatrix" content="0.0176211454,-9.5150660793,0.0176211454,-1.5355884426"></bar:data>
</defs>
<g id="content">
	<path id="structure1_label31_vBrain" bar:growlevel="0" bar:type="" fill="#FF000C" d="M602.16,220.53
		c-16.59,1.53-30.75,8.13-41.311,19.229c-6.841,7.17-12.119,16.23-14.729,25.14c-2.4,8.25-4.83,40.74-5.13,68.25
		c-0.18,17.699,0.54,47.279,1.41,58.051c1.02,12.12,4.229,27.81,8.25,40.109c6.09,18.75,12.42,26.579,23.25,28.771
		c6.028,1.2,15.84-0.601,20.698-3.84c4.352-2.88,8.011-7.17,14.25-16.591l4.08-6.149l10.11-10.14
		c10.229-10.23,14.79-15.12,18.87-20.222c7.5-9.42,12.84-20.7,14.64-31.14c0.24-1.439,0.57-4.83,0.75-7.53
		c0.15-2.7,0.69-7.858,1.2-11.46c2.641-19.109,2.938-27.72,1.35-39.81c-2.52-18.93-6.72-37.62-11.459-50.67
		c-4.291-11.88-10.291-21.36-18.961-30.03C619.92,223.02,612.12,219.6,602.16,220.53z"/>
	<path id="structure10_label8_AOL" bar:growlevel="0" bar:type="" fill="#E2FF76" d="M632.52,349.561
		c-1.89,1.739-3.869,4.829-6.75,10.5c-1.35,2.699-3,5.699-3.659,6.689s-3.239,3.84-5.729,6.3c-6.87,6.84-9.18,9.78-11.729,14.852
		c-1.5,3-3.33,7.92-3.602,9.659c-0.42,2.789,1.65,5.341,4.32,5.341c2.91,0,5.609-1.95,13.92-10.2
		c12.271-12.09,17.16-18.48,19.561-25.562c1.471-4.409,2.069-11.398,1.319-15c-0.271-1.17-0.66-1.89-1.47-2.729
		c-1.05-1.05-1.23-1.11-2.971-1.11C633.99,348.3,633.811,348.36,632.52,349.561z"/>
	<path id="structure11_label9_MiA" bar:growlevel="0" bar:type="" fill="#EDFFB2" d="M605.4,279.51c0,0.3,0.51,1.74,1.17,3.24
		c1.47,3.45,3.21,8.79,4.02,12.45c0.84,3.9,0.9,11.25,0.12,14.1c-1.979,7.11-6.99,11.91-14.34,13.771
		c-5.7,1.438-10.41,1.108-18.99-1.41c-0.54-0.15-0.569-0.03-0.39,2.37c0.42,5.34,2.46,10.979,5.46,14.938
		c1.979,2.58,3.27,3.182,6.899,3.15c3.391-0.03,5.699-0.78,11.609-3.75c9.21-4.59,12.87-7.8,15.932-13.92
		c4.738-9.511,6.09-26.76,2.908-37.41c-0.51-1.71-0.84-2.19-2.189-3.39c-1.681-1.5-6.119-3.78-8.369-4.32
		C607.02,278.82,605.4,278.88,605.4,279.51z"/>
	<path id="structure14_text3361_aci" bar:growlevel="0" bar:type="" fill="#AFFF59" d="M606.9,257.91
		c-1.08,0.06-3.42,0.21-5.25,0.39c-11.102,1.08-15.541,3.93-19.62,12.66c-5.46,11.61-8.19,24.84-10.681,52.14
		c-2.039,22.382-2.101,24-1.979,42c0.18,23.37,0.18,26.222-0.09,40.052c-0.36,17.579,0.18,24,2.37,28.528
		c1.35,2.761,3.898,5.19,7.05,6.69c2.159,1.05,2.37,1.08,5.58,1.08h3.359l2.819-1.41c5.7-2.91,12.602-8.91,17.102-14.851
		c2.579-3.449,4.528-6.75,4.379-7.471c-0.061-0.27-1.979-1.529-4.289-2.818c-3.15-1.74-4.23-2.461-4.291-2.972
		c-0.09-0.448-0.329-0.63-0.899-0.659c-0.72-0.029-0.69-0.061,0.24-0.271c2.189-0.54,10.56-5.64,15.6-9.54
		c3.15-2.46,8.49-7.59,10.8-10.41c5.7-6.96,10.41-16.8,11.852-24.779c0.27-1.439,0.6-5.069,0.72-8.101
		c0.3-5.88,0.601-7.35,2.188-10.74l0.9-1.92l-1.08-6.028c-0.57-3.33-1.68-9.75-2.43-14.28s-1.71-9.602-2.1-11.25
		c-1.021-4.05-4.11-13.05-4.5-13.05c-0.211,0-0.302,2.01-0.302,5.911c0,10.829-1.979,19.681-6.448,28.739
		c-4.44,9.03-9.961,14.22-23.552,22.2c-8.398,4.92-9.6,5.25-13.198,3.48c-2.222-1.11-5.222-3.842-6.602-6.03
		c-1.59-2.49-2.01-5.91-1.2-9.602c0.78-3.6,0.66-4.5-1.05-6.75c-3.81-5.038-5.7-11.52-5.7-19.618c0-18.271,9.75-35.4,22.5-39.63
		c2.73-0.9,7.021-1.11,9.75-0.48c2.7,0.66,6.03,2.28,8.102,3.93c0.898,0.75,1.739,1.35,1.89,1.35c0.12,0,0.36-0.42,0.51-0.96
		c0.69-2.31,4.23-2.88,7.65-1.26c3.21,1.53,7.26,6.36,9.75,11.67c2.7,5.7,6.27,18.48,11.4,40.8c3,13.108,4.05,16.948,4.56,16.948
		c0.3,0,0.39-0.75,0.42-3.238c0-1.771,0.12-4.771,0.24-6.66c0.21-2.91,0.149-4.2-0.45-8.25c-2.01-13.89-5.7-28.11-10.26-39.45
		c-7.68-19.17-12.24-26.49-19.561-31.35C617.189,258.69,613.68,257.67,606.9,257.91z M637.68,348.48
		c2.4,1.14,3.42,5.039,2.852,10.68c-0.87,8.31-3.391,13.83-9.812,21.54c-5.398,6.479-17.01,18-20.579,20.398
		c-3.75,2.49-5.701,2.642-7.771,0.57c-0.63-0.63-1.32-1.17-1.5-1.17c-0.66,0,0.06-3.688,1.44-7.351
		c2.818-7.5,6.479-12.899,12.72-18.869c5.64-5.37,6.96-7.08,9.72-12.48c3.391-6.6,4.891-9.148,6.63-11.068
		C633.84,348,635.46,347.43,637.68,348.48z M619.77,354.9c-1.409,2.64-5.22,7.229-11.369,13.648c-3,3.12-6.119,6.721-6.961,7.95
		c-1.948,2.97-6.028,11.16-7.948,16.05c-2.431,6.182-4.052,11.04-3.9,11.82l0.15,0.689l-0.75-0.75
		c-1.142-1.141-1.62-3.421-1.802-8.91c-0.18-5.221,0.211-11.25,0.99-15.961c0.69-4.078,2.102-9.328,3-11.25
		c1.26-2.64,2.82-3.51,13.32-7.47c2.55-0.96,7.23-3.06,10.35-4.648c3.15-1.62,5.73-2.94,5.791-2.94
		C620.7,353.1,620.311,353.91,619.77,354.9z M600.51,403.11c-0.09,0.3-0.15,0.12-0.15-0.36c0-0.51,0.062-0.72,0.15-0.54
		C600.57,402.42,600.57,402.84,600.51,403.11z M600.811,406.86c-0.091,0.21-0.149,0.06-0.149-0.36s0.06-0.57,0.149-0.39
		C600.87,406.32,600.87,406.68,600.811,406.86z M592.23,407.01c0.39,0.48,0.358,0.51-0.091,0.12c-0.511-0.39-0.659-0.63-0.421-0.63
		C591.78,406.5,592.02,406.74,592.23,407.01z M600.99,411.51c-0.21,0.062-0.57,0.062-0.75,0c-0.21-0.09-0.062-0.148,0.359-0.148
		C601.02,411.361,601.17,411.42,600.99,411.51z"/>
	<path id="structure15_label13_aci" bar:growlevel="0" bar:type="" fill="#AFFF59" d="M606.9,257.91c-1.08,0.06-3.42,0.21-5.25,0.39
		c-11.102,1.08-15.541,3.93-19.62,12.66c-5.46,11.61-8.19,24.84-10.681,52.14c-2.039,22.382-2.101,24-1.979,42
		c0.18,23.37,0.18,26.222-0.09,40.052c-0.36,17.579,0.18,24,2.37,28.528c1.35,2.761,3.898,5.19,7.05,6.69
		c2.159,1.05,2.37,1.08,5.58,1.08h3.359l2.819-1.41c5.7-2.91,12.602-8.91,17.102-14.851c2.579-3.449,4.528-6.75,4.379-7.471
		c-0.061-0.27-1.979-1.529-4.289-2.818c-3.15-1.74-4.23-2.461-4.291-2.972c-0.09-0.448-0.329-0.63-0.899-0.659
		c-0.72-0.029-0.69-0.061,0.24-0.271c2.189-0.54,10.56-5.64,15.6-9.54c3.15-2.46,8.49-7.59,10.8-10.41
		c5.7-6.96,10.41-16.8,11.852-24.779c0.27-1.439,0.6-5.069,0.72-8.101c0.3-5.88,0.601-7.35,2.188-10.74l0.9-1.92l-1.08-6.028
		c-0.57-3.33-1.68-9.75-2.43-14.28s-1.71-9.602-2.1-11.25c-1.021-4.05-4.11-13.05-4.5-13.05c-0.211,0-0.302,2.01-0.302,5.911
		c0,10.829-1.979,19.681-6.448,28.739c-4.44,9.03-9.961,14.22-23.552,22.2c-8.398,4.92-9.6,5.25-13.198,3.48
		c-2.222-1.11-5.222-3.842-6.602-6.03c-1.59-2.49-2.01-5.91-1.2-9.602c0.78-3.6,0.66-4.5-1.05-6.75
		c-3.81-5.038-5.7-11.52-5.7-19.618c0-18.271,9.75-35.4,22.5-39.63c2.73-0.9,7.021-1.11,9.75-0.48c2.7,0.66,6.03,2.28,8.102,3.93
		c0.898,0.75,1.739,1.35,1.89,1.35c0.12,0,0.36-0.42,0.51-0.96c0.69-2.31,4.23-2.88,7.65-1.26c3.21,1.53,7.26,6.36,9.75,11.67
		c2.7,5.7,6.27,18.48,11.4,40.8c3,13.108,4.05,16.948,4.56,16.948c0.3,0,0.39-0.75,0.42-3.238c0-1.771,0.12-4.771,0.24-6.66
		c0.21-2.91,0.149-4.2-0.45-8.25c-2.01-13.89-5.7-28.11-10.26-39.45c-7.68-19.17-12.24-26.49-19.561-31.35
		C617.189,258.69,613.68,257.67,606.9,257.91z M637.68,348.48c2.4,1.14,3.42,5.039,2.852,10.68c-0.87,8.31-3.391,13.83-9.812,21.54
		c-5.398,6.479-17.01,18-20.579,20.398c-3.75,2.49-5.701,2.642-7.771,0.57c-0.63-0.63-1.32-1.17-1.5-1.17
		c-0.66,0,0.06-3.688,1.44-7.351c2.818-7.5,6.479-12.899,12.72-18.869c5.64-5.37,6.96-7.08,9.72-12.48
		c3.391-6.6,4.891-9.148,6.63-11.068C633.84,348,635.46,347.43,637.68,348.48z M619.77,354.9c-1.409,2.64-5.22,7.229-11.369,13.648
		c-3,3.12-6.119,6.721-6.961,7.95c-1.948,2.97-6.028,11.16-7.948,16.05c-2.431,6.182-4.052,11.04-3.9,11.82l0.15,0.689l-0.75-0.75
		c-1.142-1.141-1.62-3.421-1.802-8.91c-0.18-5.221,0.211-11.25,0.99-15.961c0.69-4.078,2.102-9.328,3-11.25
		c1.26-2.64,2.82-3.51,13.32-7.47c2.55-0.96,7.23-3.06,10.35-4.648c3.15-1.62,5.73-2.94,5.791-2.94
		C620.7,353.1,620.311,353.91,619.77,354.9z M600.51,403.11c-0.09,0.3-0.15,0.12-0.15-0.36c0-0.51,0.062-0.72,0.15-0.54
		C600.57,402.42,600.57,402.84,600.51,403.11z M600.811,406.86c-0.091,0.21-0.149,0.06-0.149-0.36s0.06-0.57,0.149-0.39
		C600.87,406.32,600.87,406.68,600.811,406.86z M592.23,407.01c0.39,0.48,0.358,0.51-0.091,0.12c-0.511-0.39-0.659-0.63-0.421-0.63
		C591.78,406.5,592.02,406.74,592.23,407.01z M600.99,411.51c-0.21,0.062-0.57,0.062-0.75,0c-0.21-0.09-0.062-0.148,0.359-0.148
		C601.02,411.361,601.17,411.42,600.99,411.51z"/>
	<path id="structure18_label16_EPl" bar:growlevel="0" bar:type="" fill="#D8FF59" d="M609.9,232.95
		c-0.631,0.75-2.49,1.62-4.711,2.16c-1.561,0.39-3.511,0.51-8.399,0.51c-3.51,0.03-6.39,0.12-6.39,0.24
		c0,0.09-0.602,0.81-1.352,1.59c-3.148,3.21-9.39,4.77-14.55,3.57c-0.72-0.15-0.84,0.03-1.92,2.49c-0.66,1.44-2.7,5.73-4.562,9.54
		c-2.729,5.55-3.869,7.56-5.97,10.35c-1.409,1.89-2.67,3.78-2.76,4.2c-0.09,0.39-0.03,1.68,0.18,2.85
		c1.171,6.66,1.171,9.42-0.12,13.229l-0.778,2.312l0.93,1.29c1.2,1.71,2.04,3.6,2.4,5.52c0.6,3.12-0.99,7.8-4.352,12.96
		c-1.62,2.49-1.95,3.18-1.95,4.26c0,1.892-0.778,4.2-2.43,7.291c-1.92,3.601-1.95,3.931-2.37,21.239
		c-0.33,14.37-0.33,14.88,0.9,45.9c0.989,24.75,1.92,35.79,3.78,44.64c1.5,7.141,5.16,14.58,9.028,18.24
		c2.341,2.22,3.78,3.03,8.04,4.439c4.381,1.471,7.83,1.949,10.98,1.529c4.5-0.54,5.64-1.229,19.38-11.188
		c6.54-4.71,7.438-5.49,9.06-7.62c0.99-1.29,6.24-6.78,11.7-12.24c11.61-11.58,12.15-12.39,5.972-8.88
		c-5.281,3-12.66,6.63-13.44,6.63c-0.601,0-0.87,0.27-1.41,1.41c-0.72,1.529-7.11,10.2-9.66,13.109
		c-1.89,2.131-4.17,4.051-7.47,6.301c-7.38,5.01-13.23,6.51-19.71,5.01c-8.94-2.07-13.32-7.5-15.271-18.99
		c-0.99-5.64-1.141-12.84-0.99-40.858c0.149-27.15,0.271-30.33,1.41-44.73c1.619-19.92,2.551-27.18,6.601-51.51
		c2.46-14.58,4.649-20.25,11.1-28.74c6.21-8.13,12.511-11.58,21.9-11.91c5.22-0.18,8.04,0.42,12.75,2.76
		c7.229,3.57,16.229,11.7,21.3,19.2c4.26,6.3,11.07,23.34,14.37,35.852c1.41,5.34,2.851,12.72,2.851,14.398
		c-0.061,6.09-0.541,24-0.721,25.801c-0.391,3.961,0.9,12.899,1.83,12.899c0.51,0,0.51-0.12,0.09-4.41
		c-0.359-3.989,0-9.569,1.08-16.739c0.96-6.391,1.32-9.841,1.62-15.689c0.42-8.221-0.271-13.83-2.851-22.8
		c-1.771-6.18-3.779-11.16-7.199-17.94c-5.34-10.5-5.76-11.37-6.57-13.62c-0.42-1.229-1.109-3.42-1.5-4.86
		c-0.391-1.5-1.08-3.18-1.62-3.96c-0.93-1.35-3.03-5.46-3.568-7.02c-0.212-0.63-0.602-0.93-1.53-1.23
		c-1.8-0.51-3.511-2.34-4.08-4.29l-0.45-1.59l-1.8-0.36c-3.3-0.63-5.82-2.76-7.08-6.03c-0.511-1.26-0.511-1.26-2.04-1.26
		c-2.85-0.03-4.891-1.44-5.819-4.08C611.189,232.56,610.561,232.17,609.9,232.95z"/>
	<path id="structure19_label17_AOE" bar:growlevel="0" bar:type="" fill="#D1E976" d="M643.561,348.21
		c-1.351,3.18-1.591,4.65-1.859,10.59c-0.301,7.59-1.08,11.19-3.75,17.55c-4.95,11.82-12.9,20.972-25.561,29.34
		c-2.311,1.5-5.221,3.302-6.479,3.962c-2.25,1.17-2.79,1.738-2.46,2.579c0.21,0.511,8.13,4.891,9.06,5.011
		c0.841,0.12,7.142-2.88,10.591-5.011c5.311-3.301,7.979-5.729,14.369-13.079c3.87-4.44,4.352-5.19,8.19-12.78
		c3.358-6.57,4.26-9,4.8-12.63c0.479-3.12,0.09-5.73-2.22-14.642c-0.99-3.869-2.101-8.22-2.431-9.688
		C645.061,346.29,644.52,345.99,643.561,348.21z"/>
	<path id="structure22_label20_OV" bar:growlevel="0" bar:type="" fill="#FF005A" d="M596.46,375.96c-0.21,0.21-0.36,0.63-0.36,0.99
		c0,0.87,0.57,1.35,1.562,1.35c1.08,0,1.68-1.08,1.17-2.069C598.439,375.54,597.061,375.36,596.46,375.96z"/>
	<path id="structure23_label21_E" bar:growlevel="0" bar:type="" fill="#FF0045" d="M613.47,356.79c-3.06,1.53-8.04,3.69-11.1,4.83
		c-7.41,2.76-9.42,3.81-10.53,5.58c-1.529,2.37-3.42,9.989-4.109,16.56c-0.42,3.66-0.42,14.49-0.029,16.892
		c0.359,2.159,0.84,3.448,1.318,3.448c0.182-0.028,0.812-1.528,1.41-3.39c2.76-8.46,7.381-18.78,10.74-23.82
		c1.109-1.648,3.57-4.56,6.09-7.2c5.79-6.09,8.61-9.238,10.74-12.118c1.71-2.312,2.25-3.602,1.439-3.54
		C619.23,354.03,616.53,355.29,613.47,356.79z M598.65,375.75c0.869,0.84,0.959,1.53,0.24,2.311
		c-0.962,1.079-3.092,0.329-3.092-1.08c0-0.779,0.271-1.17,1.051-1.619C597.689,374.88,597.84,374.91,598.65,375.75z"/>
	<path id="structure29_label27_lo" bar:growlevel="0" bar:type="" fill="#B8FF00" d="M647.1,353.61c0,0.27,0.602,2.79,1.32,5.608
		c2.07,7.95,2.37,9.812,2.189,13.23c-0.181,3.779-0.989,6.18-4.199,12.6c-4.141,8.28-4.98,9.63-9.6,14.88
		c-2.371,2.7-5.312,5.852-6.512,6.96c-3.63,3.36-10.83,7.86-15.658,9.812c-0.961,0.39-1.74,0.87-1.74,1.05
		c0,0.689,2.22,1.95,3.42,1.95c1.229,0,9.18-3.931,15.479-7.65c4.381-2.609,4.381-2.58,7.08-5.76
		c8.521-9.87,13.74-19.56,16.44-30.36c1.71-6.75,1.77-9.27,0.33-13.108c-0.602-1.562-1.2-3.48-1.41-4.261
		c-0.302-1.351-0.45-1.5-3.302-3.449C647.91,353.04,647.1,352.74,647.1,353.61z"/>
	<path id="structure30_label28_dlo" bar:growlevel="0" bar:type="" fill="#B8FF00" d="M620.79,281.85
		c-1.681,0.87-1.771,1.71-0.72,5.91c1.229,5.01,1.59,7.89,1.56,13.59c0,9.48-2.19,19.14-5.64,25.02c-1.62,2.76-4.86,6.06-7.83,8.069
		c-3.18,2.101-10.86,6-13.71,6.931c-2.852,0.96-6.48,1.17-8.521,0.479c-0.868-0.27-1.618-0.448-1.648-0.42
		c-0.062,0.062-0.391,1.771-0.75,3.75c-0.54,3.091-0.602,3.99-0.33,5.852c0.18,1.2,0.33,2.22,0.39,2.25
		c0.15,0.148,5.73,0.688,5.85,0.568c0.092-0.06-0.148-0.84-0.51-1.68c-1.14-2.608-0.33-4.438,2.641-6.06
		c0.811-0.45,4.351-1.771,7.801-2.91c10.021-3.3,13.318-5.25,17.1-10.23c2.61-3.42,6.421-9.81,7.352-12.3
		c2.34-6.24,2.278-13.47-0.15-26.16c-1.02-5.188-0.99-6.42,0.18-7.59c1.352-1.35,3.48-0.81,5.34,1.41
		c1.682,1.95,2.972,4.74,5.701,12.27c4.319,11.97,4.529,12.72,7.409,29.85c1.71,10.318,3.9,21.3,4.261,21.6
		c0.061,0.03,1.379,0.96,2.971,2.07c2.76,1.89,3.869,2.37,3.869,1.68c0-0.18-0.659-2.64-1.5-5.488
		c-0.811-2.852-2.311-8.82-3.33-13.262c-4.561-20.25-8.699-35.58-11.25-41.76c-2.279-5.58-6.721-11.31-10.08-13.02
		C625.53,281.4,622.141,281.16,620.79,281.85z"/>
	<path id="structure31_label29_Mi" bar:growlevel="0" bar:type="" fill="#C1FF00" d="M598.71,249.48
		c-3.06,0.54-5.521,1.41-8.46,2.91c-4.8,2.46-11.07,9.78-14.82,17.28c-2.938,5.85-3.75,9-6.449,25.38
		c-3.511,21.062-4.291,27.75-6.359,54.15c-0.66,8.069-0.99,65.13-0.42,72c0.81,10.11,2.79,15.989,6.779,19.979
		c3.209,3.24,7.979,4.98,13.619,5.011c5.102,0.061,8.791-1.289,15-5.399c4.562-3.06,7.711-6.24,12.511-12.69
		c4.08-5.488,4.891-6.75,4.891-7.8c0-1.14-0.75-0.568-3,2.312c-4.71,6.06-9.239,11.43-11.7,13.92
		c-5.58,5.67-10.648,7.68-18.63,7.409c-3.12-0.091-3.6-0.181-5.489-1.079c-4.199-1.98-7.949-7.08-9-12.21
		c-0.511-2.552-1.529-10.562-2.011-15.9c-0.51-5.7-0.688-40.95-0.3-52.8c0.78-22.74,2.939-43.32,7.109-68.1
		c3.24-19.14,6.63-27.51,14.13-34.83c5.131-5.04,10.351-7.11,17.791-7.08c5.789,0,9.93,1.35,15.118,4.83
		c4.65,3.15,11.312,9.24,14.07,12.84c4.59,6,9.301,15.72,12.33,25.29c1.98,6.359,4.801,16.411,5.73,20.55
		c1.289,5.7,1.92,7.648,2.459,7.648c0.421,0,0.451-0.3,0.271-2.159c-0.239-2.761-1.92-10.529-3.479-16.199
		c-3.722-13.62-10.41-29.37-15.211-35.79c-1.109-1.5-3.779-4.47-5.939-6.6C618.359,251.49,609.12,247.59,598.71,249.48z"/>
	<path id="structure32_label30_IPl" bar:growlevel="0" bar:type="" fill="#B1E900" d="M598.62,252.45c-2.91,0.51-4.05,0.9-6.87,2.34
		c-1.92,0.99-3.061,1.89-5.73,4.56c-3.629,3.6-5.22,5.76-7.17,9.72c-3.3,6.63-5.188,14.28-7.948,32.13
		c-2.552,16.53-4.32,32.398-5.25,46.95c-0.78,12-1.23,42.72-0.812,54.688c0.48,14.4,1.62,25.472,3.09,30.24
		c1.261,4.08,5.28,8.608,8.972,10.08c1.47,0.6,2.13,0.688,6,0.63c8.608-0.09,13.409-2.43,19.56-9.57
		c4.471-5.158,11.641-14.25,11.641-14.729c0-0.54-0.84-1.26-1.5-1.26c-0.24,0-1.08,1.05-1.859,2.34
		c-4.5,7.47-11.4,14.34-18.99,18.898c-2.76,1.65-4.859,2.28-7.65,2.25c-2.818-0.029-5.1-0.81-7.89-2.729
		c-5.819-3.96-7.17-8.972-7.17-26.73c-0.03-63.66-0.03-63.57,1.56-82.56c2.312-27.36,4.562-40.95,8.61-52.2
		c1.56-4.29,4.14-9.63,5.61-11.67c3.93-5.31,9.779-7.47,21.63-8.01c6.54-0.3,9.479,0.42,15.149,3.75
		c3.51,2.07,8.159,6.57,10.471,10.08c3.99,6.12,10.71,21.3,14.07,31.65c2.549,7.89,5.76,21.42,6.539,27.511
		c0.119,1.051,0.33,1.59,0.601,1.59c0.659,0,0.6-8.609-0.062-9.329c-0.238-0.271-0.93-2.521-1.529-4.98
		c-2.34-9.93-6.569-24.51-8.67-29.88c-1.771-4.5-5.609-12.12-7.949-15.66c-3.602-5.49-12.18-13.56-18.03-16.979
		C611.641,252.39,605.01,251.28,598.62,252.45z"/>
	<path id="structure3_label1_GrO" bar:growlevel="0" bar:type="" fill="#ECFFB2" d="M606.9,257.91c-1.08,0.06-3.42,0.21-5.25,0.39
		c-11.102,1.08-15.541,3.93-19.62,12.66c-5.46,11.61-8.19,24.84-10.681,52.14c-2.039,22.382-2.101,24-1.979,42
		c0.18,23.37,0.18,26.222-0.09,40.052c-0.36,17.579,0.18,24,2.37,28.528c1.35,2.761,3.898,5.19,7.05,6.69
		c2.159,1.05,2.37,1.08,5.58,1.08h3.359l2.819-1.41c5.7-2.91,12.602-8.91,17.102-14.851c2.579-3.449,4.528-6.75,4.379-7.471
		c-0.061-0.27-1.979-1.529-4.289-2.818c-3.15-1.74-4.23-2.461-4.291-2.972c-0.09-0.448-0.329-0.63-0.899-0.659
		c-0.72-0.029-0.69-0.061,0.24-0.271c2.189-0.54,10.56-5.64,15.6-9.54c3.15-2.46,8.49-7.59,10.8-10.41
		c5.7-6.96,10.41-16.8,11.852-24.779c0.27-1.439,0.6-5.069,0.72-8.101c0.3-5.88,0.601-7.35,2.188-10.74l0.9-1.92l-1.08-6.028
		c-0.57-3.33-1.68-9.75-2.43-14.28s-1.71-9.602-2.1-11.25c-1.021-4.05-4.11-13.05-4.5-13.05c-0.211,0-0.302,2.01-0.302,5.911
		c0,10.829-1.979,19.681-6.448,28.739c-4.44,9.03-9.961,14.22-23.552,22.2c-8.398,4.92-9.6,5.25-13.198,3.48
		c-2.222-1.11-5.222-3.842-6.602-6.03c-1.59-2.49-2.01-5.91-1.2-9.602c0.78-3.6,0.66-4.5-1.05-6.75
		c-3.81-5.038-5.7-11.52-5.7-19.618c0-18.271,9.75-35.4,22.5-39.63c2.73-0.9,7.021-1.11,9.75-0.48c2.7,0.66,6.03,2.28,8.102,3.93
		c0.898,0.75,1.739,1.35,1.89,1.35c0.12,0,0.36-0.42,0.51-0.96c0.69-2.31,4.23-2.88,7.65-1.26c3.21,1.53,7.26,6.36,9.75,11.67
		c2.7,5.7,6.27,18.48,11.4,40.8c3,13.108,4.05,16.948,4.56,16.948c0.3,0,0.39-0.75,0.42-3.238c0-1.771,0.12-4.771,0.24-6.66
		c0.21-2.91,0.149-4.2-0.45-8.25c-2.01-13.89-5.7-28.11-10.26-39.45c-7.68-19.17-12.24-26.49-19.561-31.35
		C617.189,258.69,613.68,257.67,606.9,257.91z M637.68,348.48c2.4,1.14,3.42,5.039,2.852,10.68c-0.87,8.31-3.391,13.83-9.812,21.54
		c-5.398,6.479-17.01,18-20.579,20.398c-3.75,2.49-5.701,2.642-7.771,0.57c-0.63-0.63-1.32-1.17-1.5-1.17
		c-0.66,0,0.06-3.688,1.44-7.351c2.818-7.5,6.479-12.899,12.72-18.869c5.64-5.37,6.96-7.08,9.72-12.48
		c3.391-6.6,4.891-9.148,6.63-11.068C633.84,348,635.46,347.43,637.68,348.48z M619.77,354.9c-1.409,2.64-5.22,7.229-11.369,13.648
		c-3,3.12-6.119,6.721-6.961,7.95c-1.948,2.97-6.028,11.16-7.948,16.05c-2.431,6.182-4.052,11.04-3.9,11.82l0.15,0.689l-0.75-0.75
		c-1.142-1.141-1.62-3.421-1.802-8.91c-0.18-5.221,0.211-11.25,0.99-15.961c0.69-4.078,2.102-9.328,3-11.25
		c1.26-2.64,2.82-3.51,13.32-7.47c2.55-0.96,7.23-3.06,10.35-4.648c3.15-1.62,5.73-2.94,5.791-2.94
		C620.7,353.1,620.311,353.91,619.77,354.9z M600.51,403.11c-0.09,0.3-0.15,0.12-0.15-0.36c0-0.51,0.062-0.72,0.15-0.54
		C600.57,402.42,600.57,402.84,600.51,403.11z M600.811,406.86c-0.091,0.21-0.149,0.06-0.149-0.36s0.06-0.57,0.149-0.39
		C600.87,406.32,600.87,406.68,600.811,406.86z M592.23,407.01c0.39,0.48,0.358,0.51-0.091,0.12c-0.511-0.39-0.659-0.63-0.421-0.63
		C591.78,406.5,592.02,406.74,592.23,407.01z M600.99,411.51c-0.21,0.062-0.57,0.062-0.75,0c-0.21-0.09-0.062-0.148,0.359-0.148
		C601.02,411.361,601.17,411.42,600.99,411.51z"/>
	<path id="structure4_label2_GrA" bar:growlevel="0" bar:type="" fill="#ACDF00" d="M623.97,287.07c-1.14,1.17-1.14,2.64,0.03,8.58
		c1.77,9.06,2.16,14.581,1.35,19.5c-0.72,4.438-1.8,7.08-5.25,12.63c-5.938,9.51-8.64,11.58-20.52,15.45
		c-6.721,2.22-9.48,3.479-10.41,4.8c-0.811,1.17-0.75,3.09,0.18,4.739c0.42,0.689,0.75,1.319,0.75,1.351s-1.289-0.09-2.85-0.24
		c-1.59-0.12-2.97-0.18-3.061-0.06c-0.779,0.75,4.08,5.97,6.75,7.29c2.609,1.29,4.92,1.2,7.859-0.3
		c3.78-1.95,12.602-7.32,15.45-9.45c5.188-3.841,9.99-8.972,12.3-13.08c3.69-6.602,6.512-15.841,7.38-24.12
		c0.421-4.26,0.181-13.44-0.448-16.56c-0.541-2.61-2.762-7.35-4.262-9.21C627.3,286.05,625.47,285.6,623.97,287.07z"/>
	<path id="structure6_label4_Gl" bar:growlevel="0" bar:type="" fill="#C7E959" d="M599.85,221.16
		c-9.209,1.02-19.59,4.53-26.818,9.03c-13.682,8.49-24.54,23.67-27.301,38.07c-1.351,7.08-2.699,23.34-3.931,47.19
		c-0.899,17.31-0.479,51.09,0.9,73.95c1.26,20.64,8.85,48.72,16.229,60c1.62,2.488,5.642,6.448,7.83,7.738
		c3.96,2.342,9.062,3.301,14.46,2.762c3.48-0.36,8.342-1.472,10.5-2.4c4.41-1.89,9.66-7.2,15.12-15.36
		c1.62-2.398,1.892-3.238,1.11-3.238c-0.271,0-3.36,2.068-6.87,4.618c-12.42,9-13.71,9.69-18.51,9.99
		c-3.03,0.21-5.58-0.18-9.54-1.47c-4.021-1.29-6-2.34-8.312-4.5c-2.25-2.13-3.84-4.29-5.489-7.65
		c-2.67-5.398-3.961-9.988-5.101-18.09c-1.35-9.75-1.8-16.739-2.91-44.55c-0.688-17.49-0.75-21.6-0.568-35.1
		c0.09-8.432,0.3-16.711,0.479-18.45c0.271-3,0.39-3.3,2.16-6.84c1.649-3.3,1.86-3.932,1.95-5.852c0.119-2.01,0.24-2.278,1.77-4.528
		c3-4.352,4.892-9,4.892-11.94c0-2.73-1.052-5.58-2.882-7.8l-0.659-0.812l0.78-1.89c1.05-2.61,1.261-7.32,0.479-11.7
		c-0.81-4.53-0.78-4.62,1.26-7.41c4.29-5.85,5.58-8.22,10.74-19.53l2.13-4.65l0.9,0.18c1.5,0.33,6.029,0.3,7.709-0.06
		c2.641-0.57,5.131-1.92,6.781-3.69l1.469-1.62l5.521-0.03c7.65,0,11.16-0.602,13.352-2.28c1.438-1.11,1.858-0.96,2.25,0.66
		c0.688,2.64,3.448,4.5,6.3,4.23c1.079-0.09,1.109-0.09,1.92,1.77c0.87,2.04,2.55,3.96,4.109,4.77c0.511,0.271,1.8,0.57,2.819,0.66
		l1.86,0.15l0.15,1.11c0.328,2.55,1.948,4.41,4.408,5.1c0.96,0.27,1.141,0.479,1.92,2.58c0.48,1.26,1.592,3.39,2.432,4.74
		c0.93,1.5,1.74,3.24,2.068,4.53c1.262,4.71,2.82,8.46,6.631,15.9c5.909,11.52,7.649,15.96,9.899,25.11
		c1.65,6.75,2.04,10.29,1.83,16.74c-0.21,6.36-0.45,8.79-1.74,17.55c-0.778,5.28-0.93,7.262-0.96,12.302
		c-0.029,6.42,0.45,10.648,1.2,10.648c0.24,0,0.42-0.12,0.42-0.239c0-0.149,0.54-4.229,1.17-9.091
		c1.892-14.01,1.979-15.27,1.979-25.17c0-7.83-0.119-9.898-0.689-14.25c-2.64-19.53-6.96-38.55-11.67-51.3
		c-4.95-13.44-14.609-26.97-24.54-34.44c-3.45-2.58-8.521-5.13-11.85-5.91C608.609,220.74,604.23,220.65,599.85,221.16z"/>
	<path id="structure8_label6_EPlA" bar:growlevel="0" bar:type="" fill="#C6FF00" d="M602.25,279c-9.54,1.26-18.57,10.59-22.8,23.52
		c-1.681,5.16-2.851,12-2.851,16.77v1.92l2.369,0.78c3.36,1.108,7.11,1.71,10.801,1.71c9.061-0.03,15.931-3.63,19.229-10.17
		c3.03-6.062,2.97-14.61-0.21-24.48c-1.41-4.38-3.96-10.35-4.38-10.32C604.2,278.76,603.24,278.88,602.25,279z"/>
	
		<text id="label30" bar:growlevel="0" transform="matrix(1 0 0 1 635.9033 276.0508)" fill="#232323" enable-background="new    " font-family="'TimesNewRomanPSMT'" font-size="9">IPl</text>
	
		<text id="label13" bar:growlevel="0" transform="matrix(1 0 0 1 611.9902 368.1494)" fill="#232323" enable-background="new    " font-family="'TimesNewRomanPSMT'" font-size="9">aci</text>
	
		<text id="label16" bar:growlevel="0" transform="matrix(1 0 0 1 563.3906 271.5781)" fill="#232323" enable-background="new    " font-family="'TimesNewRomanPSMT'" font-size="9">EPl</text>
	
		<text id="label17" bar:growlevel="0" transform="matrix(1 0 0 1 637.8496 390.8438)" fill="#232323" enable-background="new    " font-family="'TimesNewRomanPSMT'" font-size="9">AOE</text>
	
		<text id="text3361" bar:growlevel="0" transform="matrix(1 0 0 1 629.8496 341.7451)" fill="#232323" enable-background="new    " font-family="'TimesNewRomanPSMT'" font-size="9">aci</text>
	
		<text id="label8" bar:growlevel="0" transform="matrix(1 0 0 1 610.1602 383.8926)" fill="#232323" enable-background="new    " font-family="'TimesNewRomanPSMT'" font-size="9">AOL</text>
	
		<text id="label9" bar:growlevel="0" transform="matrix(1 0 0 1 585.0303 334.4932)" fill="#232323" enable-background="new    " font-family="'TimesNewRomanPSMT'" font-size="9">MiA</text>
	
		<text id="label1" bar:growlevel="0" transform="matrix(1 0 0 1 572.2402 368.6299)" fill="#232323" enable-background="new    " font-family="'TimesNewRomanPSMT'" font-size="9">GrO</text>
	
		<text id="label2" bar:growlevel="0" transform="matrix(1 0 0 1 596 351.8467)" fill="#232323" enable-background="new    " font-family="'TimesNewRomanPSMT'" font-size="9">GrA</text>
	
		<text id="label4" bar:growlevel="0" transform="matrix(1 0 0 1 547.5195 297.8672)" fill="#232323" enable-background="new    " font-family="'TimesNewRomanPSMT'" font-size="9">Gl</text>
	
		<text id="label6" bar:growlevel="0" transform="matrix(1 0 0 1 585.2305 307.959)" fill="#232323" enable-background="new    " font-family="'TimesNewRomanPSMT'" font-size="9">EPlA</text>
	
		<text id="label21" bar:growlevel="0" transform="matrix(1 0 0 1 597.5703 367.9697)" fill="#232323" enable-background="new    " font-family="'TimesNewRomanPSMT'" font-size="9">E</text>
	
		<text id="label20" bar:growlevel="0" transform="matrix(1 0 0 1 597.5703 376.9111)" fill="#232323" enable-background="new    " font-family="'TimesNewRomanPSMT'" font-size="9">OV</text>
	
		<text id="label27" bar:growlevel="0" transform="matrix(1 0 0 1 641.3496 399.665)" fill="#232323" enable-background="new    " font-family="'TimesNewRomanPSMT'" font-size="9">lo</text>
	
		<text id="label29" bar:growlevel="0" transform="matrix(1 0 0 1 631.7168 266.2686)" fill="#232323" enable-background="new    " font-family="'TimesNewRomanPSMT'" font-size="9">Mi</text>
	
		<text id="label28" bar:growlevel="0" transform="matrix(1 0 0 1 619.7402 325.3721)" fill="#232323" enable-background="new    " font-family="'TimesNewRomanPSMT'" font-size="9">dlo</text>
</g>
</svg>
