<?xml version="1.0" encoding="utf-8"?>
<!-- Generator: Adobe Illustrator 16.0.0, SVG Export Plug-In . SVG Version: 6.00 Build 0)  -->
<!DOCTYPE svg PUBLIC "-//W3C//DTD SVG 1.1//EN" "http://www.w3.org/Graphics/SVG/1.1/DTD/svg11.dtd">
<svg version="1.1"
	 id="body" xmlns:bar="http://www.3dbar.org" xmlns:cc="http://creativecommons.org/ns#" xmlns:dc="http://purl.org/dc/elements/1.1/" xmlns:inkscape="http://www.inkscape.org/namespaces/inkscape" xmlns:rdf="http://www.w3.org/1999/02/22-rdf-syntax-ns#" xmlns:sodipodi="http://sodipodi.sourceforge.net/DTD/sodipodi-0.dtd" xmlns:svg="http://www.w3.org/2000/svg" sodipodi:docname="62_pretrace_pretrace_v1.svg" inkscape:version="0.47pre4 r22446"
	 xmlns="http://www.w3.org/2000/svg" xmlns:xlink="http://www.w3.org/1999/xlink" x="0px" y="0px" width="1008px" height="1008px"
	 viewBox="0 0 1008 1008" enable-background="new 0 0 1008 1008" xml:space="preserve">
<sodipodi:namedview  showgrid="false" pagecolor="#ffffff" objecttolerance="10" inkscape:zoom="5.383129" inkscape:cy="502.53435" inkscape:cx="472.47755" id="namedview230" guidetolerance="10" gridtolerance="10" borderopacity="1" bordercolor="#666666" inkscape:window-y="24" inkscape:window-x="1680" inkscape:pageopacity="0" inkscape:window-width="1918" inkscape:window-maximized="1" inkscape:window-height="1128" inkscape:pageshadow="2" inkscape:current-layer="content" inkscape:object-paths="true">
	</sodipodi:namedview>
<title  id="title3">SVG drawing</title>
<desc  id="desc5">This was produced by version 4.2 of GNU libplot, a free library for exporting 2-D vector graphics.</desc>
<defs>
	
	<rdf:RDF>
		<cc:Work  rdf:about="">
			<dc:format>image/svg+xml</dc:format>
			<dc:type  rdf:resource="http://purl.org/dc/dcmitype/StillImage"></dc:type>
		</cc:Work>
	</rdf:RDF>
	<bar:data  name="coronalcoord" content="1.68"></bar:data>
	
		<bar:data  name="rendererConf" content="{&apos;ReferenceHeight&apos;: 900, &apos;ReferenceWidth&apos;: 1200, &apos;imageSize&apos;: (1200, 900)}">
		</bar:data>
	
		<bar:data  name="tracingConf" content="{&apos;DumpEachStepSVG&apos;: False, &apos;DumpEachStepPNG&apos;: False, &apos;GrowDefaultBoundaryColor&apos;: 200, &apos;CacheLevel&apos;: 5, &apos;NewPathIdTemplate&apos;: &apos;structure%d_%s_%s&apos;, &apos;PoTraceConf&apos;: {&apos;potrace_accuracy_parameter&apos;: &apos;0.001&apos;, &apos;potrace_width_string&apos;: &apos;1200pt&apos;, &apos;potrace_svg_resolution_string&apos;: &apos;300x300&apos;, &apos;potrace_height_string&apos;: &apos;900pt&apos;}, &apos;DetectUnlabelled&apos;: True, &apos;DumpVBrain&apos;: False, &apos;DumpWrongSeed&apos;: True, &apos;DumpDirectory&apos;: &apos;.&apos;, &apos;MinFiterTimesApplication&apos;: 3, &apos;RegionAlreadyTraced&apos;: 100, &apos;UnlabelledTreshold&apos;: 500}">
		</bar:data>
	<bar:data  name="transformationmatrix" content="0.0176211454,-9.5150660793,0.0176211454,-1.5355884426"></bar:data>
</defs>
<g id="content">
	<path fill="#FF000C" d="M899.67,305.55c-1.859-16.92-6.51-34.5-12.9-48.93c-8.76-19.86-19.947-35.67-39.75-56.28
		c-27-28.02-53.22-48.21-79.47-61.14c-14.25-7.05-25.56-10.86-44.1-14.97c-19.141-4.23-36.42-6.81-56.55-8.46
		c-6.303-0.51-28.711-0.69-35.132-0.3c-15.42,0.96-27.061,2.94-37.681,6.36c-22.979,7.44-39.3,21.15-49.59,41.67
		c-1.71,3.42-3.9,9.21-3.9,10.32c0,0.27-0.238,0.479-0.6,0.479c-0.03,0-0.056-0.01-0.083-0.013v203.472
		c0.417-0.039,0.839,0.205,1.19,0.751c0.75,1.11,0.723,7.681-0.06,13.83c-0.45,3.813-0.63,4.563-1.021,4.5
		c-0.036-0.006-0.074-0.042-0.112-0.086V498.94c0.06-0.029,0.126-0.039,0.203-0.039c0.271,0,0.45,0.777,0.6,2.909
		c0.091,1.618,0.54,5.311,0.96,8.188c2.853,19.89,9.18,34.92,18.69,44.43c4.71,4.71,9.51,7.74,16.17,10.2
		c4.14,1.53,5.58,2.37,11.01,6.391c5.58,4.109,7.979,5.58,11.729,7.08c3.688,1.5,5.101,2.341,6.811,4.021
		c2.49,2.398,3.75,4.71,6.061,11.069c1.562,4.291,2.432,5.608,4.619,6.961c3.271,2.067,8.19,3.18,16.621,3.777
		c6.479,0.48,30.239,0.183,36.659-0.447c11.67-1.11,20.25-2.313,29.55-4.11c9.15-1.771,12.211-2.82,22.471-7.74
		c6.75-3.21,7.74-3.63,17.189-7.35c11.07-4.38,36.75-16.92,50.25-24.54c10.771-6.09,30.631-23.01,35.4-30.18
		c2.88-4.32,5.489-11.16,9.39-24.66c1.38-4.801,2.49-7.98,3.15-9.183c1.56-2.789,4.438-6.688,11.37-15.42
		c10.289-12.96,12.63-16.08,16.198-21.448c11.011-16.562,20.852-38.699,27.029-60.899C900.27,368.43,903,335.46,899.67,305.55z"/>
	<path id="structure2_label88_vBrain" bar:type="" bar:growlevel="0" fill="#FF000C" d="M545.1,550.439
		c-0.659,0.301-1.26,0.961-1.619,1.681c-0.511,1.08-0.541,1.29-0.148,2.37c0.72,2.07,2.76,2.938,5.01,2.16
		c0.57-0.183,0.66-0.12,0.66,0.51c0,1.17,1.08,2.34,2.13,2.34c2.729,0,4.683-3.39,2.939-5.13c-0.631-0.63-1.5-0.66-3.181-0.12
		c-0.601,0.18-0.688,0.12-0.688-0.63c0-1.71-1.892-3.72-3.513-3.72C546.391,549.9,545.67,550.14,545.1,550.439z"/>
	<path id="structure101_text3746_Tu-1" bar:type="" bar:growlevel="0" fill="#FFEF00" d="M544.35,522.6
		c-0.479,0.813,3.183,11.553,5.82,16.95c6.391,13.08,14.73,20.91,26.641,25.08c3.239,1.14,5.489,2.431,10.142,5.88
		c6.63,4.92,8.52,6.03,13.199,7.86c6.028,2.37,9.209,6.36,12.329,15.479c1.199,3.48,2.25,4.98,4.319,6.303
		c2.64,1.647,7.44,2.85,14.25,3.479c6.21,0.603,29.16,0.51,36.75-0.12c11.311-0.96,21.57-2.34,31.05-4.14
		c9.603-1.8,13.65-3.15,22.92-7.683c2.91-1.407,6.78-3.18,8.58-3.987c2.223-0.96,4.44-2.222,6.69-3.87
		c1.89-1.32,3.63-2.55,3.898-2.7c0.45-0.24,0.45-0.45,0.121-1.71c-0.541-1.979-3.392-7.89-5.25-10.859
		c-1.291-2.011-1.682-2.461-2.312-2.461c-1.47,0.03-6.182,1.2-7.682,1.95c-1.891,0.933-4.318,3.271-5.398,5.19
		c-2.729,4.83-4.59,6-10.71,6.659c-5.13,0.538-6.062,1.438-7.29,6.961c-0.42,1.857-1.021,3.93-1.32,4.618
		c-0.868,2.012-3.239,3.421-5.76,3.421c-1.319,0-2.188-0.392-4.62-2.102c-4.38-3.06-13.29-5.1-16.47-3.75
		c-1.352,0.54-1.438,0.84-1.143,3.21c0.451,3.21-0.209,4.44-2.31,4.44c-1.26,0-2.489-0.78-6.03-3.933
		c-3.06-2.67-4.438-3.42-7.619-4.197c-2.311-0.54-3.271-0.603-6.601-0.48c-4.29,0.18-5.88,0.54-13.351,2.971
		c-9.119,2.939-11.939,2.369-19.771-4.021c-8.938-7.32-14.01-10.8-26.88-18.54c-3.93-2.4-8.25-5.13-9.6-6.12
		c-3.271-2.43-10.2-9.479-13.593-13.83c-5.01-6.45-11.85-17.22-14.969-23.489l-1.381-2.761h-3.24
		C546,522.3,544.47,522.42,544.35,522.6z"/>
	<path fill="#FFB2BA" d="M562.23,360.3c-5.013,1.71-6.541,1.86-20.07,2.011c-0.776,0.01-1.521,0.017-2.243,0.022V373.2
		c0.026,0,0.056,0,0.083,0c3.96,0,8.52-0.15,10.141-0.33c3.062-0.33,6.959-1.62,6.959-2.28c0-0.21,0.12-0.39,0.271-0.39
		c0.66,0,8.13-9.511,8.13-10.32C565.5,359.22,565.2,359.28,562.23,360.3z"/>
	<path id="structure104_Unlabeled-1870-1650_Unlabeled" bar:type="" bar:growlevel="0" fill="#FFB2BA" d="M560.4,495.689
		c0,0.988-0.33,1.891-1.53,3.961c-2.13,3.72-9.54,15.6-11.852,19.02c-1.051,1.53-1.92,2.97-1.92,3.21c0,0.33,0.632,0.42,2.972,0.42
		h2.938l0.15-2.34c0.148-2.46,0.66-3.81,2.01-5.25c2.972-3.24,8.13-2.25,13.41,2.61c1.08,0.96,2.278,2.34,2.7,3.06
		c0.75,1.29,0.84,1.32,2.25,1.32c0.81,0,1.47-0.15,1.47-0.3c0-0.183-0.393-0.842-0.87-1.5c-0.479-0.66-1.14-1.893-1.47-2.763
		c-1.71-4.35-5.46-14.67-5.46-15.06c0-0.24-0.12-0.51-0.24-0.602c-0.148-0.091-0.72-1.711-1.26-3.631l-0.99-3.449h-1.14h-1.172
		v1.291h0.004V495.689z"/>
	<path id="structure106_Unlabeled-1925-1810_Unlabeled" bar:type="" bar:growlevel="0" fill="#FFB2BA" d="M576.3,543.061
		c-0.63,0.42-1.229,1.229-1.59,2.102l-0.569,1.438l1.739,2.131c3.3,3.959,2.852,3.632,4.32,3.302c2.58-0.57,4.2-2.49,4.2-4.98
		c0-1.29-0.12-1.647-0.87-2.37c-0.813-0.777-4.591-2.277-5.7-2.277C577.53,542.4,576.84,542.7,576.3,543.061z"/>
	<path id="structure108_Unlabeled-2318-1833_Unlabeled" bar:type="" bar:growlevel="0" fill="#FFB2BA" d="M694.859,549.689
		c-1.079,2.488-2.279,3.811-3.539,3.811c-1.261,0-1.29,0.33-0.211,2.25c1.351,2.46,1.051,5.311-0.869,8.16
		c-0.9,1.35-1.051,1.89-0.48,1.89c0.21,0,2.07-0.66,4.17-1.5c2.103-0.81,5.222-1.859,6.99-2.31c1.74-0.45,3.18-0.96,3.18-1.143
		c0-0.18-0.479-0.567-1.08-0.897c-1.47-0.78-4.17-3.78-5.129-5.641c-0.871-1.739-1.591-4.142-1.591-5.399
		C696.3,547.59,695.609,547.98,694.859,549.689z"/>
	<path fill="#A8E959" d="M560.28,492.51c-0.48-9.99-2.011-18.6-4.563-25.77c-2.25-6.24-4.289-8.7-8.46-10.2
		c-1.291-0.465-4.398-0.74-7.343-0.773v33.75c0.018-0.141,0.035-0.269,0.053-0.364c0.21-0.933,0.271-0.48,0.301,2.1
		c0.091,7.41,1.229,18.39,2.762,26.04c0.479,2.43,0.87,4.5,0.87,4.59c0,0.062,0.209,0.12,0.447,0.12c0.512,0,4.86-6.51,10.712-16.05
		C560.939,496.38,560.52,497.46,560.28,492.51z"/>
	<path id="structure12_label9_ICj" bar:type="" bar:growlevel="0" fill="#E9DB00" d="M556.65,512.85
		c-0.15,0.063-0.66,0.183-1.11,0.271c-0.45,0.12-1.32,0.6-1.89,1.14c-1.62,1.41-2.341,3.03-2.49,5.643l-0.12,2.25l2.01,3.96
		c1.71,3.42,2.103,3.988,2.73,3.988c0.87,0,2.01-0.479,3.659-1.591l1.261-0.84v-2.1c0-1.83,0.09-2.19,0.75-2.82
		c0.84-0.87,0.898-0.87,3.96-0.3c2.97,0.568,3.81,0.568,4.29,0c1.2-1.44-4.5-7.29-8.641-8.853
		C559.62,513.061,557.189,512.64,556.65,512.85z"/>
	<path fill="#97FF00" d="M580.141,433.98c-2.909-2.883-3.271-6.813-1.2-12.933c1.529-4.56,1.142-6.96-2.698-16.77
		c-1.143-2.94-2.37-6.45-2.7-7.771c-1.08-4.32-0.359-8.04,2.37-11.85c0.54-0.78,0.989-1.562,0.989-1.771s-0.632-0.688-1.409-1.079
		c-2.46-1.229-4.32-1.529-8.7-1.319c-4.17,0.18-5.432,0-6.57-1.021c-1.289-1.17-1.35-0.898-1.14,4.44
		c0.3,7.92-0.602,15.3-3.063,25.08c-2.25,8.97-4.289,12.6-7.947,14.13c-0.801,0.326-2.516,0.417-8.153,0.36v32.063
		c4.451-0.05,8.35,0.897,10.673,2.677c2.82,2.13,5.04,6.841,7.11,14.972c1.47,5.908,2.01,9,2.397,14.641
		c0.48,6.66,0.48,6.57,1.473,6.57h0.84l0.18-5.04c0.21-6,1.17-11.103,3.48-18.48c0.84-2.64,1.857-6.12,2.277-7.68
		c1.802-6.66,7.74-19.353,12.66-27.063C581.49,435.36,581.49,435.36,580.141,433.98z"/>
	<path id="structure14_label14_LSV" bar:type="" bar:growlevel="0" fill="#92FF00" d="M575.79,384.96c-1.83,2.67-2.49,4.8-2.49,7.83
		c0,3.149,0.42,4.74,3,11.28c3.932,10.02,4.23,12.06,2.641,17.01c-0.811,2.55-0.959,3.42-0.959,6.27
		c-0.029,2.67,0.091,3.513,0.538,4.353c0.632,1.2,2.553,3.3,3.03,3.3c0.15,0,0.69-0.63,1.2-1.438c0.48-0.78,1.98-2.521,3.3-3.871
		c2.58-2.609,4.86-3.989,6.66-3.989c0.87,0,0.99-0.12,1.26-1.141c0.66-2.462,1.262-7.649,1.44-12.12
		c0.18-4.949-0.03-7.289-1.141-11.789c-0.812-3.303-3.271-10.74-3.689-11.131c-0.18-0.181-1.53-0.721-3.03-1.171
		c-3.659-1.108-5.939-2.188-8.13-3.868c-1.02-0.75-1.979-1.382-2.1-1.382C577.17,383.1,576.48,383.939,575.79,384.96z"/>
	<path fill="#8CFF00" d="M557.82,374.4c-0.631-3.57-0.57-3.512-2.853-2.61c-2.64,1.05-6.42,1.41-14.97,1.41
		c-0.028,0-0.055,0-0.083,0v4.506c0.521-0.086,1.04,0.271,1.434,1.074c0.421,0.87,0.511,1.858,0.479,4.89
		c-0.063,4.172-1.599,17.57-1.913,16.546v23.204c0.029,0,0.054,0,0.083,0c7.41,0,7.319,0,8.58-0.66
		c3.239-1.647,4.83-4.438,6.87-12.027C559.141,397.02,559.859,385.8,557.82,374.4z"/>
	<path id="structure16_label16_LSD" bar:type="" bar:growlevel="0" fill="#DEFFB2" d="M572.67,353.82
		c-5.25,3.84-5.609,4.17-7.47,6.81c-2.19,3.15-5.16,6.87-6.87,8.7l-1.17,1.2l0.57,2.909c0.688,3.359,1.56,5.311,2.76,6.181
		c0.779,0.569,1.29,0.63,6.149,0.66c4.738,0,5.521,0.09,7.108,0.659c1.95,0.75,3.479,1.649,5.55,3.391
		c1.71,1.41,4.29,2.7,7.44,3.689c2.58,0.811,3.659,0.961,3.659,0.511c0-0.57-2.882-6.69-7.109-15.03c-2.46-4.86-4.8-9.87-5.189-11.1
		c-1.051-3.182-0.989-6.812,0.119-9.78c0.9-2.431,0.933-2.82,0.36-2.82C578.37,349.8,575.7,351.6,572.67,353.82z"/>
	<path id="structure17_label17_VCl" bar:type="" bar:growlevel="0" fill="#8847F2" d="M755.04,426.42c-1.59,0.57-2.49,1.2-3.33,2.34
		c-2.069,2.76-8.34,18.33-11.13,27.75c-1.021,3.45-1.08,3.78-0.78,5.61c0.78,4.86,2.46,7.979,4.95,9.18
		c1.229,0.603,1.71,0.66,3.66,0.511c3.27-0.238,7.59-2.398,10.229-5.068c6.209-6.302,12.689-21.33,12.779-29.643
		c0.03-2.277-0.09-3.09-0.57-4.05c-0.897-1.89-3.447-4.14-6.33-5.58c-2.459-1.26-2.729-1.317-5.488-1.409
		C757.141,426.03,755.76,426.15,755.04,426.42z"/>
	<path id="structure19_label21_AIV" bar:type="" bar:growlevel="0" fill="#EEF423" d="M764.22,459.21
		c-4.5,7.8-8.909,11.43-15.479,12.84c-0.48,0.09-0.841,0.3-0.841,0.511c0,0.182,1.438,1.829,3.239,3.659
		c1.771,1.83,3.869,4.2,4.709,5.221c1.021,1.319,1.98,2.159,3,2.672c0.813,0.42,3.933,2.277,6.9,4.14
		c12.061,7.5,18.45,10.563,26.97,12.9c7.47,2.038,10.44,2.397,19.83,2.397c9,0,11.49-0.239,19.11-1.83
		c3.778-0.81,3.778-0.81,3.96-1.738c0.271-1.439,1.859-4.592,3.659-7.262c0.898-1.317,1.62-2.55,1.62-2.729
		c0-0.18-1.591-0.603-3.511-0.96c-22.891-4.2-47.341-14.46-67.261-28.263c-2.37-1.617-4.47-2.97-4.71-2.97
		C765.21,457.8,764.67,458.43,764.22,459.21z"/>
	<path id="structure20_label22_AID" bar:type="" bar:growlevel="0" fill="#D0D447" d="M771.78,436.561
		c-0.932,6.989-2.011,10.771-4.71,16.859c-0.813,1.8-1.472,3.51-1.472,3.75c0,0.51,10.409,7.59,15.449,10.53
		c17.7,10.318,37.471,17.79,56.103,21.12c1.5,0.27,3.06,0.567,3.479,0.66c0.721,0.117,0.99-0.093,2.25-1.74
		c0.811-1.051,3.512-4.5,6.03-7.681c2.521-3.182,4.59-5.939,4.59-6.182s-0.93-0.63-2.399-1.05
		c-7.739-2.102-23.101-7.59-33.358-11.88c-20.551-8.61-35.37-16.71-43.2-23.58c-1.08-0.99-2.13-1.771-2.31-1.771
		C772.08,435.6,771.87,436.05,771.78,436.561z"/>
	<path id="structure21_label23_DI" bar:type="" bar:growlevel="0" fill="#C4C923" d="M771.3,416.311c0,0.959,0.15,5.459,0.33,9.989
		c0.42,9.42,0.15,8.61,3.66,11.642c11.79,10.198,45,25.561,74.01,34.261c2.22,0.66,4.261,1.2,4.53,1.2
		c0.51,0,6.09-7.17,10.17-13.021c2.79-3.989,3.811-5.76,3.54-6.03c-0.09-0.09-2.58-0.777-5.521-1.5
		c-29.521-7.229-65.278-22.14-87.209-36.357c-1.62-1.021-3.062-1.893-3.211-1.893C771.42,414.6,771.3,415.38,771.3,416.311z"/>
	<path id="structure22_label24_GI" bar:type="" bar:growlevel="0" fill="#C3C900" d="M772.68,393.36
		c-0.18,1.858-0.869,11.818-1.198,17.791l-0.182,3l3.54,2.31c18.93,12.21,48.75,25.32,75.36,33.09c7.59,2.22,16.409,4.41,17.34,4.29
		c0.63-0.06,1.14-0.75,2.97-3.99c3.87-6.81,11.49-22.409,11.49-23.52c0-0.15-0.45-0.36-1.021-0.45
		c-0.541-0.12-4.079-0.99-7.859-2.01c-43.53-11.431-83.79-24.36-97.591-31.32c-1.17-0.569-2.25-1.05-2.399-1.05
		S772.8,392.34,772.68,393.36z"/>
	<path id="structure25_label27_S1ULp" bar:type="" bar:growlevel="0" fill="#FDFF76" d="M884.641,278.97
		c-17.608,8.76-60.45,27.42-106.438,46.41c-5.521,2.28-10.11,4.17-10.17,4.23c-0.092,0.06,0.358,1.738,0.96,3.778
		c2.52,8.342,5.01,19.381,5.76,25.41c0.54,4.352,0.602,13.5,0.12,18.03c-0.15,1.71-0.57,4.59-0.9,6.42
		c-0.93,5.13-1.229,7.71-0.93,8.01c0.568,0.57,10.74,4.92,16.83,7.2c16.83,6.3,45.479,15.15,72.93,22.562
		c8.46,2.278,18.96,4.979,19.32,4.979c0.42,0,5.188-12.84,7.47-20.1c7.95-25.262,11.73-52.081,11.223-79.353
		c-0.183-9.42-0.451-13.438-1.291-21c-1.021-8.97-2.852-18.87-4.979-26.7c-0.84-3-1.08-3.6-1.59-3.66
		C892.62,275.16,888.87,276.87,884.641,278.97z"/>
	<path id="structure26_label28_S1J" bar:type="" bar:growlevel="0" fill="#E8E93B" d="M847.35,208.11
		c-8.698,7.02-26.43,22.108-66.06,56.25c-12.57,10.83-25.5,21.9-28.71,24.6s-5.85,5.07-5.85,5.31c-0.03,0.21,1.229,1.89,2.788,3.75
		c5.279,6.27,10.319,13.77,13.142,19.47c0.688,1.41,1.108,2.01,1.438,1.92c0.239-0.09,27.602-14.73,60.75-32.55
		c45.75-24.57,60.329-32.55,60.392-32.97c0.09-0.63-3.48-7.83-6.392-12.84c-2.58-4.5-7.648-12.09-11.068-16.65
		c-5.37-7.2-15.69-19.2-16.5-19.2C851.1,205.2,849.3,206.49,847.35,208.11z"/>
	<path id="structure27_label29_S1FL" bar:type="" bar:growlevel="0" fill="#FEFFB2" d="M734.7,130.11
		c-4.74,13.05-41.4,124.71-41.4,126.148c0,0.271,1.021,0.87,2.641,1.562c11.642,5.01,26.222,14.34,36.87,23.55
		c1.38,1.17,2.67,2.13,2.88,2.13c0.239,0,9.239-8.94,20.041-19.86c21.63-21.87,59.698-59.55,70.471-69.75
		c4.35-4.109,6.897-6.72,6.84-7.02c-0.181-0.96-12.99-12.33-22.109-19.62c-21.42-17.07-42.569-29.25-63.118-36.3
		c-5.16-1.8-10.771-3.45-11.643-3.45C735.811,127.5,735.391,128.19,734.7,130.11z"/>
	<path id="structure28_label30_M1" bar:type="" bar:growlevel="0" fill="#FBFF8E" d="M655.98,117.33
		c-0.271,2.91-5.791,96.15-6.813,115.2c-0.21,3.72-0.3,6.99-0.21,7.229c0.09,0.24,0.78,0.6,1.47,0.812
		c2.58,0.75,8.61,3.358,11.521,5.01c2.22,1.23,3.988,1.95,6.75,2.7c6.93,1.92,12.658,3.75,17.818,5.729
		c2.819,1.08,5.461,1.98,5.852,2.01c0.81,0.03,0.359,1.29,5.13-13.62c9.51-29.64,34.979-106.65,37.38-113.13
		c0.3-0.75,0.45-1.56,0.36-1.8c-0.181-0.51-6.813-2.13-18.24-4.47c-19.23-3.96-39.42-6.6-56.312-7.38l-4.528-0.21L655.98,117.33z"/>
	<path id="structure29_label31_M2" bar:type="" bar:growlevel="0" fill="#E2E923" d="M636.3,115.38c-13.08,0.54-25.68,2.16-35.1,4.5
		c-8.88,2.22-21.36,7.08-21.54,8.43c-0.12,0.75,2.699,7.92,9.359,23.91c9.028,21.603,26.188,61.41,33.329,77.34l2.909,6.51
		l1.53,0.148c8.398,0.812,13.08,1.53,18.3,2.76c1.802,0.45,3.302,0.72,3.36,0.66c0.09-0.06,0.63-8.49,1.199-18.72
		c0.959-16.65,3.898-66.48,5.579-94.56c0.359-5.82,0.569-10.681,0.449-10.8C655.439,115.35,640.53,115.2,636.3,115.38z"/>
	<path id="structure30_text5105_Cg1" bar:type="" bar:growlevel="0" fill="#F1F48E" d="M575.76,129.9
		c-10.71,6.36-19.17,14.31-25.71,24.15c-4.56,6.87-7.56,13.05-9.09,18.69l-0.78,2.91l-0.119,14.58l-0.091,14.55l8.49,4.08
		c4.681,2.25,15.66,7.528,24.39,11.729c25.41,12.18,39.15,18.51,40.261,18.51c0.271,0,1.291-0.39,2.312-0.9
		c2.01-0.96,4.893-1.8,6.33-1.8c1.5,0,3.149-0.36,3.149-0.66c0-0.18-1.142-2.82-2.521-5.91c-9.66-21.45-32.28-74.37-39.51-92.43
		c-2.7-6.78-3.66-8.85-4.08-8.91C578.49,128.46,577.141,129.09,575.76,129.9z"/>
	<path fill="#97FF59" d="M775.08,365.46c-0.3-7.17-1.38-13.56-4.11-24.45c-5.188-20.76-12.75-34.35-27.568-49.53
		c-8.699-8.91-16.409-15.33-25.949-21.63c-6.63-4.38-10.38-6.51-17.7-10.08c-10.771-5.22-20.521-8.67-35.07-12.42
		c-7.738-1.98-20.52-3.06-30.18-2.55c-7.438,0.42-9.601,1.11-12.688,4.14c-2.4,2.37-4.11,4.92-8.313,12.54
		c-8.37,15.03-12.75,21.3-19.53,27.87c-4.619,4.47-9.51,8.13-13.92,10.47c-0.81,0.42-3.33,2.13-5.55,3.78
		c-4.92,3.66-10.47,6.54-14.851,7.709l-3,0.811l-14.972,0.12c-0.607,0.004-1.19,0.008-1.763,0.012v49.998c0.079,0,0.153,0,0.233,0
		c11.909,0,14.188-0.061,16.59-0.54c4.108-0.78,7.319-1.92,9.6-3.45c4.11-2.76,13.59-9.779,15.6-11.58
		c1.143-0.99,3.15-2.64,4.44-3.63c3-2.28,16.83-16.02,21.81-21.66c4.53-5.159,6.36-7.47,9.723-12.39
		c12.06-17.58,25.29-27.87,39.989-31.05c3.118-0.66,11.068-0.9,15.479-0.48c14.61,1.5,32.7,7.23,45.271,14.37
		c26.459,15.03,40.591,37.62,44.311,70.86c0.479,4.409,0.479,16.859,0,21.148c-1.17,10.352-3.479,19.62-7.29,29.13
		c-1.38,3.479-4.92,11.222-9.569,20.972c-6,12.54-7.739,17.7-9.898,29.159c-1.561,8.369-2.91,13.648-5.102,20.188
		c-3.271,9.84-7.381,18.78-12.688,27.69c-1.29,2.13-2.312,4.05-2.312,4.29c0,2.13,4.682-3.843,9.271-11.882
		c5.939-10.318,9.148-19.561,12.45-35.851c1.647-8.04,2.76-12,6.06-21.06c2.97-8.223,4.32-11.37,7.89-18.24
		c4.23-8.16,7.563-13.41,12.092-19.05C770.939,400.439,775.77,381.66,775.08,365.46z"/>
	<path id="structure34_label37_LV" bar:type="" bar:growlevel="0" fill="#FF005D" d="M602.4,333.57
		c-1.563,0.479-4.11,1.979-9.24,5.398c-2.91,1.95-6.42,4.262-7.801,5.102c-5.521,3.54-8.129,8.369-7.8,14.55
		c0.209,3.51,0.568,4.38,7.229,17.79c4.71,9.51,5.46,11.16,7.352,16.95c2.521,7.621,3.358,11.43,3.568,16.35
		c0.21,4.44,0.57,4.71,1.682,1.351c2.158-6.601,4.229-21.988,5.129-38.311c0.962-17.04,1.771-37.26,1.562-38.34
		C603.87,333.27,603.689,333.18,602.4,333.57z"/>
	<path id="structure35_label38_CPu" bar:type="" bar:growlevel="0" fill="#FFEC00" d="M662.37,277.5
		c-16.59,1.5-31.71,12.48-45.54,33.09c-2.67,3.99-4.95,9.03-6.45,14.19c-0.96,3.3-1.41,7.47-2.58,24.27
		c-1.53,22.261-1.89,26.13-3.148,35.25c-1.261,8.97-2.341,20.521-3.302,35.4c-0.3,5.04-0.357,7.53-0.119,9.72l0.302,2.97l4.858,4.71
		c8.399,8.103,13.409,12.45,20.102,17.461c7.438,5.552,12.63,8.671,24.21,14.642c4.529,2.31,9.96,5.25,12.09,6.54
		c12.21,7.318,17.91,14.16,17.91,21.51c0,2.28-0.933,6.12-2.25,9.479c-0.57,1.438-1.051,2.761-1.051,2.938
		c0,0.36,0.75,0.391,1.648,0.062c1.32-0.512,3.15,0.96,3.15,2.521c0,0.24,0.18,0.45,0.39,0.45c0.18,0,3.12,0.27,6.48,0.6l6.09,0.603
		l0.72-0.75c1.261-1.353,2.94-0.87,3.69,1.08c0.21,0.6,0.75,0.959,2.43,1.59c1.17,0.42,2.311,0.779,2.55,0.779
		c0.21,0,1.261-0.392,2.311-0.899c2.25-1.08,3.659-1.17,4.142-0.3c0.391,0.75-0.09,2.64-1.681,6.567
		c-0.569,1.41-1.021,2.73-1.021,2.94c0,1.229,1.261-0.18,4.29-4.8c8.46-12.813,13.562-22.801,17.67-34.563
		c2.73-7.8,3.812-12.029,6.51-25.979c1.563-7.92,3.78-14.131,9.121-25.353c7.799-16.38,9.601-20.487,11.699-26.67
		c2.34-6.84,3.93-13.8,5.07-22.05c0.63-4.561,0.539-20.43-0.15-25.5c-2.67-19.8-8.58-34.62-18.9-47.46
		c-6.357-7.95-14.52-14.64-25.469-20.91c-12.451-7.14-31.83-13.02-46.438-14.13C667.26,277.17,666.21,277.17,662.37,277.5z"/>
	<path id="structure3_label0_AcbC" bar:type="" bar:growlevel="0" fill="#FFF359" d="M601.8,433.86c0,0.84,2.07,9.54,3.091,12.987
		c1.352,4.65,1.47,5.342,0.989,6.03c-0.6,0.812-1.8,0.15-2.819-1.53c-1.561-2.579-1.681-2.188-1.471,6.513
		c0.54,24.84,5.58,42.54,15.03,52.647c8.31,8.91,22.05,14.67,36.479,15.302c5.341,0.238,7.649-0.182,11.132-1.922
		c7.709-3.84,14.909-14.907,16.17-24.777c0.959-7.771-3.48-14.25-14.853-21.57c-4.35-2.79-7.14-4.351-16.35-9.09
		c-8.91-4.59-11.853-6.3-17.853-10.38c-7.409-5.012-14.159-10.62-23.22-19.2C602.79,433.8,601.8,433.02,601.8,433.86z
		 M640.35,482.311c7.473,2.671,11.643,6.722,12.78,12.479c0.66,3.21-0.66,7.11-3.36,9.96c-3.329,3.54-6.538,3.36-11.697-0.63
		c-4.771-3.66-8.432-11.19-8.012-16.44c0.149-1.857,1.229-4.5,2.159-5.25C633.87,481.05,636.689,481.02,640.35,482.311z"/>
	<path id="structure46_label55_lo" bar:type="" bar:growlevel="0" fill="#B8FF00" d="M767.88,553.62
		c-4.11,1.53-8.28,6.36-9.63,11.13c-1.05,3.72-2.85,6.27-6.15,8.82c-1.229,0.93-5.25,3.72-8.909,6.147
		c-6.421,4.23-7.948,5.61-5.818,5.19c5.16-1.05,54.84-25.65,55.17-27.36c0.12-0.6-0.96-1.83-2.16-2.46
		c-0.479-0.24-2.1-0.72-3.6-1.05C783.061,553.23,769.68,552.93,767.88,553.62z"/>
	<path id="structure4_label1_AcbSh" bar:type="" bar:growlevel="0" fill="#E9DA00" d="M590.85,426.18
		c-1.709,0.603-4.35,2.761-6.42,5.28c-4.229,5.13-12.09,20.01-14.938,28.29c-1.563,4.62-1.95,6.63-1.62,8.939
		c1.68,12.211,0.63,29.521-1.979,32.641c-0.45,0.51-0.689,1.109-0.602,1.41c0.45,1.438,5.609,15.09,6.03,15.87
		c0.84,1.68,2.038,2.817,9,8.64c5.52,4.59,8.188,7.08,13.14,12.33c3.45,3.6,6.689,6.93,7.229,7.35
		c1.17,0.933,10.2,5.94,12.899,7.143c1.051,0.479,2.82,1.647,3.96,2.67c2.91,2.607,5.971,3.96,8.91,3.96
		c1.021,0,1.561-0.15,1.86-0.54c0.24-0.271,0.96-1.2,1.619-2.01c2.011-2.58,6.42-4.353,9.75-3.9c0.688,0.09,3.148,0.42,5.461,0.75
		c5.607,0.813,12.119,0.813,16.709,0c1.858-0.3,6.091-1.2,9.391-1.95c5.04-1.17,6.66-1.438,10.05-1.56
		c3.33-0.12,4.29-0.063,5.4,0.357c2.76,1.021,2.55,1.263,2.55-2.909c0.03-4.229,0.6-6.721,3.21-13.738
		c3.149-8.49,6.181-13.683,9.63-16.53c1.021-0.87,1.892-1.71,1.95-1.89c0.06-0.33-3.21-1.683-4.05-1.683
		c-0.21,0-0.69,0.33-1.11,0.75c-1.29,1.29-2.909,0.87-3.479-0.869c-0.393-1.261-0.15-1.198-7.563-1.858l-5.608-0.51l-0.779,0.96
		c-1.05,1.229-2.28,1.26-3.48,0.06c-0.51-0.51-0.868-1.2-0.868-1.647c0-0.48-0.182-0.78-0.449-0.78c-0.24,0-0.45,0.12-0.45,0.27
		c0,0.69-3.33,5.221-5.37,7.353c-5.88,6.06-10.561,7.8-19.26,7.08c-7.711-0.633-14.521-2.433-21.24-5.58
		c-9.42-4.473-16.05-10.83-20.52-19.771c-5.643-11.31-8.61-28.17-8.61-49.02c0-4.261-0.091-5.25-0.75-7.65
		c-0.39-1.5-1.351-5.55-2.101-9s-1.562-6.63-1.802-7.08C595.5,425.79,593.52,425.22,590.85,426.18z"/>
	<path id="structure51_label60_aca" bar:type="" bar:growlevel="0" fill="#DBFFB2" d="M633.061,482.01
		c-0.568,0.271-1.318,1.051-1.801,1.83c-1.05,1.8-1.29,5.82-0.54,8.76c1.5,5.79,6.091,11.553,11.011,13.803
		c2.762,1.229,5.91,0.63,7.949-1.563c2.461-2.608,3.57-5.67,3.36-9.27c-0.271-4.74-3.149-8.521-8.521-11.28
		C639.391,481.65,635.4,480.84,633.061,482.01z"/>
	<path id="structure52_label61_mfb" bar:type="" bar:growlevel="0" fill="#925FDC" d="M598.38,547.68
		c-0.45,1.17-0.148,1.893,1.352,3.24c3.061,2.73,11.13,7.08,18.601,9.99c13.438,5.25,23.188,7.59,39.569,9.39
		c10.858,1.23,15.659,1.11,22.591-0.45c4.5-1.02,6.898-2.25,8.67-4.47c2.97-3.72,3.54-6.78,1.83-9.81
		c-2.643-4.71-7.08-5.25-19.74-2.4c-11.188,2.521-11.49,2.55-17.25,2.55c-3.99,0-6.33-0.147-9.75-0.688
		c-8.25-1.263-11.91-0.36-14.729,3.72c-1.41,2.07-2.341,2.46-4.562,2.01c-2.55-0.54-5.22-1.92-7.229-3.777
		c-1.143-1.053-2.91-2.223-4.893-3.211c-2.67-1.319-8.04-4.199-11.278-6.029C600.33,547.05,598.62,547.02,598.38,547.68z"/>
	<path id="structure58_text5107_Cg2" bar:type="" bar:growlevel="0" fill="#DBDF6B" d="M540,250.56c0,27.42,0.12,46.38,0.3,47.91
		c0.391,3.36,1.32,4.95,3.57,6.09c0.87,0.45,2.37,0.9,3.36,1.02c1.89,0.21,2.129,0.72,0.329,0.72c-0.602,0-1.62,0.15-2.222,0.33
		c-1.05,0.271-1.14,0.39-1.14,1.44c0,0.72-0.271,1.56-0.75,2.25c-0.96,1.41-0.933,1.68,0.09,1.68c0.45,0,1.29,0.09,1.89,0.18
		c1.053,0.182,1.11,0.15,1.32-0.778c0.3-1.32,2.399-3.36,3.93-3.841c3.063-0.899,6.182-0.181,8.223,1.891
		c0.72,0.75,1.59,1.35,1.948,1.35c0.961-0.029,5.791-2.13,8.489-3.75c7.802-4.65,17.7-13.71,23.552-21.6
		c3.42-4.59,7.408-14.07,11.459-27.3c1.229-4.05,2.609-8.31,3.029-9.51c1.2-3.36,3.062-6.72,4.353-7.89
		c0.629-0.57,1.17-1.17,1.17-1.29s-1.11-0.69-2.461-1.26c-5.279-2.13-19.649-8.88-51.3-24.12c-10.172-4.89-18.632-8.88-18.812-8.88
		C540.09,205.2,540,218.04,540,250.56z"/>
	<path id="structure5_label2_LAcbSh" bar:type="" bar:growlevel="0" fill="#FFFAB2" d="M590.85,426.18
		c-1.709,0.603-4.35,2.761-6.42,5.28c-4.229,5.13-12.09,20.01-14.938,28.29c-1.563,4.62-1.95,6.63-1.62,8.939
		c1.68,12.211,0.63,29.521-1.979,32.641c-0.45,0.51-0.689,1.109-0.602,1.41c0.45,1.438,5.609,15.09,6.03,15.87
		c0.84,1.68,2.038,2.817,9,8.64c5.52,4.59,8.188,7.08,13.14,12.33c3.45,3.6,6.689,6.93,7.229,7.35
		c1.17,0.933,10.2,5.94,12.899,7.143c1.051,0.479,2.82,1.647,3.96,2.67c2.91,2.607,5.971,3.96,8.91,3.96
		c1.021,0,1.561-0.15,1.86-0.54c0.24-0.271,0.96-1.2,1.619-2.01c2.011-2.58,6.42-4.353,9.75-3.9c0.688,0.09,3.148,0.42,5.461,0.75
		c5.607,0.813,12.119,0.813,16.709,0c1.858-0.3,6.091-1.2,9.391-1.95c5.04-1.17,6.66-1.438,10.05-1.56
		c3.33-0.12,4.29-0.063,5.4,0.357c2.76,1.021,2.55,1.263,2.55-2.909c0.03-4.229,0.6-6.721,3.21-13.738
		c3.149-8.49,6.181-13.683,9.63-16.53c1.021-0.87,1.892-1.71,1.95-1.89c0.06-0.33-3.21-1.683-4.05-1.683
		c-0.21,0-0.69,0.33-1.11,0.75c-1.29,1.29-2.909,0.87-3.479-0.869c-0.393-1.261-0.15-1.198-7.563-1.858l-5.608-0.51l-0.779,0.96
		c-1.05,1.229-2.28,1.26-3.48,0.06c-0.51-0.51-0.868-1.2-0.868-1.647c0-0.48-0.182-0.78-0.449-0.78c-0.24,0-0.45,0.12-0.45,0.27
		c0,0.69-3.33,5.221-5.37,7.353c-5.88,6.06-10.561,7.8-19.26,7.08c-7.711-0.633-14.521-2.433-21.24-5.58
		c-9.42-4.473-16.05-10.83-20.52-19.771c-5.643-11.31-8.61-28.17-8.61-49.02c0-4.261-0.091-5.25-0.75-7.65
		c-0.39-1.5-1.351-5.55-2.101-9s-1.562-6.63-1.802-7.08C595.5,425.79,593.52,425.22,590.85,426.18z"/>
	<path id="structure60_label69_cg" bar:type="" bar:growlevel="0" fill="#3FFF00" d="M620.16,236.7c-4.98,0.9-8.7,3.45-10.771,7.35
		c-1.171,2.28-2.279,5.43-4.921,14.1c-2.22,7.26-5.487,16.14-7.62,20.73c-2.22,4.8-5.038,8.55-11.01,14.7
		c-1.949,2.01-3.54,3.78-3.54,3.99c0,1.648,7.8-4.142,13.471-10.021c5.489-5.729,9.989-12.3,16.979-24.9
		c4.59-8.28,6.6-11.43,8.85-13.62c3.393-3.39,6-4.17,15.15-4.44c6.72-0.18,14.188,0.21,20.311,1.11
		c4.739,0.72,4.739,0.72,4.739,0.21c0-1.08-11.79-5.73-18-7.11C635.76,237,624.21,235.98,620.16,236.7z"/>
	<path fill="#97FF59" d="M775.08,365.46c-0.3-7.17-1.38-13.56-4.11-24.45c-5.188-20.76-12.75-34.35-27.568-49.53
		c-8.699-8.91-16.409-15.33-25.949-21.63c-6.63-4.38-10.38-6.51-17.7-10.08c-10.771-5.22-20.521-8.67-35.07-12.42
		c-7.738-1.98-20.52-3.06-30.18-2.55c-7.438,0.42-9.601,1.11-12.688,4.14c-2.4,2.37-4.11,4.92-8.313,12.54
		c-8.37,15.03-12.75,21.3-19.53,27.87c-4.619,4.47-9.51,8.13-13.92,10.47c-0.81,0.42-3.33,2.13-5.55,3.78
		c-4.92,3.66-10.47,6.54-14.851,7.709l-3,0.811l-14.972,0.12c-0.607,0.004-1.19,0.008-1.763,0.012v49.998c0.079,0,0.153,0,0.233,0
		c11.909,0,14.188-0.061,16.59-0.54c4.108-0.78,7.319-1.92,9.6-3.45c4.11-2.76,13.59-9.779,15.6-11.58
		c1.143-0.99,3.15-2.64,4.44-3.63c3-2.28,16.83-16.02,21.81-21.66c4.53-5.159,6.36-7.47,9.723-12.39
		c12.06-17.58,25.29-27.87,39.989-31.05c3.118-0.66,11.068-0.9,15.479-0.48c14.61,1.5,32.7,7.23,45.271,14.37
		c26.459,15.03,40.591,37.62,44.311,70.86c0.479,4.409,0.479,16.859,0,21.148c-1.17,10.352-3.479,19.62-7.29,29.13
		c-1.38,3.479-4.92,11.222-9.569,20.972c-6,12.54-7.739,17.7-9.898,29.159c-1.561,8.369-2.91,13.648-5.102,20.188
		c-3.271,9.84-7.381,18.78-12.688,27.69c-1.29,2.13-2.312,4.05-2.312,4.29c0,2.13,4.682-3.843,9.271-11.882
		c5.939-10.318,9.148-19.561,12.45-35.851c1.647-8.04,2.76-12,6.06-21.06c2.97-8.223,4.32-11.37,7.89-18.24
		c4.23-8.16,7.563-13.41,12.092-19.05C770.939,400.439,775.77,381.66,775.08,365.46z"/>
	<path id="structure65_label75_ICj" bar:type="" bar:growlevel="0" fill="#E9DB00" d="M657.9,571.47c0,2.011,1.05,3.063,3.51,3.511
		c1.77,0.33,2.82,0.932,4.438,2.671c1.562,1.648,2.882,2.25,4.979,2.25c1.26,0,3.357-1.409,4.021-2.729
		c0.602-1.107,0.569-3.271-0.061-4.8l-0.479-1.23l-2.279,0.15c-2.103,0.12-6.45-0.09-11.94-0.57l-2.188-0.21V571.47L657.9,571.47z"
		/>
	<path id="structure66_label76_VP" bar:type="" bar:growlevel="0" fill="#FFE900" d="M598.38,547.68
		c-0.45,1.17-0.148,1.893,1.352,3.24c3.061,2.73,11.13,7.08,18.601,9.99c13.438,5.25,23.188,7.59,39.569,9.39
		c10.858,1.23,15.659,1.11,22.591-0.45c4.5-1.02,6.898-2.25,8.67-4.47c2.97-3.72,3.54-6.78,1.83-9.81
		c-2.643-4.71-7.08-5.25-19.74-2.4c-11.188,2.521-11.49,2.55-17.25,2.55c-3.99,0-6.33-0.147-9.75-0.688
		c-8.25-1.263-11.91-0.36-14.729,3.72c-1.41,2.07-2.341,2.46-4.562,2.01c-2.55-0.54-5.22-1.92-7.229-3.777
		c-1.143-1.053-2.91-2.223-4.893-3.211c-2.67-1.319-8.04-4.199-11.278-6.029C600.33,547.05,598.62,547.02,598.38,547.68z"/>
	<path id="structure67_label77_LSS" bar:type="" bar:growlevel="0" fill="#8F6BE1" d="M707.76,515.4c-3.27,1.17-6.51,3.6-8.64,6.42
		c-2.761,3.66-7.14,13.77-9,20.79c-0.99,3.777-1.17,8.817-0.33,10.079c0.78,1.198,2.28,1.141,3.39-0.182
		c1.08-1.26,2.643-4.68,3.271-7.107c0.6-2.37,2.908-7.32,4.71-10.11c0.75-1.11,2.398-3.39,3.72-5.04c2.25-2.85,2.49-3.27,4.262-8.01
		C711.87,514.92,711.66,513.99,707.76,515.4z"/>
	<path id="structure68_label78_ICjM" bar:type="" bar:growlevel="0" fill="#FFF459" d="M565.859,471.96
		c-2.189,7.05-3.119,12.66-3.119,18.54c0,4.11,0.028,4.53,0.99,7.65c1.14,3.63,1.68,4.197,2.52,2.55c1.5-2.91,2.43-12.21,2.13-21.72
		c-0.239-8.672-0.39-10.08-1.08-10.08C566.91,468.9,566.58,469.65,565.859,471.96z"/>
	<path id="structure69_label79_DCl" bar:type="" bar:growlevel="0" fill="#FFDE00" d="M770.73,396
		c-1.171,3.45-3.723,8.91-5.16,11.01c-0.54,0.78-1.86,2.521-2.94,3.84c-3.271,4.021-9.63,14.313-9.63,15.54
		c0,0.63,0.33,0.63,1.74,0.03c1.8-0.75,4.77-0.87,6.84-0.3c3.12,0.898,7.77,4.05,8.79,6c0.239,0.42,0.63,0.78,0.87,0.78
		c0.39,0,0.42-0.9,0.24-6.69c-0.393-11.1-0.212-17.58,0.72-28.71c0.359-4.41,0.359-4.5-0.091-4.5C771.9,393,771.3,394.32,770.73,396
		z"/>
	<path id="structure6_label3_VP" bar:type="" bar:growlevel="0" fill="#FFE900" d="M706.141,528.78
		c-4.711,5.7-8.371,11.909-9.391,15.87c-1.17,4.647,0.061,9.18,3.57,12.96c0.897,0.96,2.34,2.159,3.239,2.64
		c1.351,0.75,1.921,0.87,3.841,0.87c2.88,0,4.5-0.72,6.959-3.03c1.95-1.858,4.739-5.37,4.711-5.91c0-0.18-0.813-0.93-1.83-1.647
		c-3.36-2.46-6.24-6.66-7.26-10.62c-0.66-2.55-1.473-10.05-1.263-11.852C708.99,525.84,708.42,525.99,706.141,528.78z"/>
	<path id="structure70_label80_E" bar:type="" bar:growlevel="0" fill="#FF0045" d="M609.811,319.59
		c-3.568,4.17-13.229,14.37-16.021,16.92c-2.399,2.16-3,3.09-2.04,3.09c0.27,0,1.98-1.02,3.84-2.31c3.42-2.34,6.63-3.99,7.71-3.99
		c0.603,0,0.69,0.21,1.021,2.25c0.118,0.84-0.42,13.41-1.473,34.2c-1.107,21.33-3.447,37.561-6.329,43.561
		c-0.75,1.562-1.108,2.881-1.318,4.649c-0.182,1.38-0.54,3.63-0.812,5.04c-0.329,1.77-0.391,2.55-0.148,2.64
		c0.75,0.24,1.92,1.381,2.43,2.433c0.33,0.6,0.99,3.119,1.53,5.58c1.62,7.71,3.568,14.908,4.5,16.829
		c1.38,2.818,3.3,3.721,3.3,1.561c0-0.54-0.6-3.09-1.319-5.67c-3.061-10.771-3.931-16.23-3.659-22.771
		c0.358-9.06,1.801-26.25,2.909-34.799c0.329-2.55,0.841-6.6,1.171-9c0.688-5.37,1.229-12.03,2.398-28.8
		c1.53-22.2,1.859-24.54,4.32-30.811c0.6-1.5,1.08-2.851,1.08-3.061C612.9,316.29,611.97,317.01,609.811,319.59z"/>
	<path id="structure71_label81_IG" bar:type="" bar:growlevel="0" fill="#B2FF00" d="M551.28,307.53
		c-2.37,0.568-4.38,2.489-4.38,4.17v0.688l4.14-0.18c4.979-0.21,8.46-0.75,8.67-1.32c0.21-0.54-1.26-2.1-2.67-2.818
		C555.689,307.38,552.9,307.11,551.28,307.53z"/>
	<path id="structure77_label87_olfa" bar:type="" bar:growlevel="0" fill="#A282D0" d="M550.8,554.49
		c-1.648,1.29-2.04,3.75-0.75,4.59c2.37,1.56,6.182-2.61,4.11-4.47C553.5,554.01,551.46,553.95,550.8,554.49z"/>
	<path fill="#5DFF00" d="M775.08,365.46c-0.3-7.17-1.38-13.56-4.11-24.45c-5.188-20.76-12.75-34.35-27.568-49.53
		c-8.699-8.91-16.409-15.33-25.949-21.63c-6.63-4.38-10.38-6.51-17.7-10.08c-10.771-5.22-20.521-8.67-35.07-12.42
		c-7.738-1.98-20.52-3.06-30.18-2.55c-7.438,0.42-9.601,1.11-12.688,4.14c-2.4,2.37-4.11,4.92-8.313,12.54
		c-8.37,15.03-12.75,21.3-19.53,27.87c-4.619,4.47-9.51,8.13-13.92,10.47c-0.81,0.42-3.33,2.13-5.55,3.78
		c-4.92,3.66-10.47,6.54-14.851,7.709l-3,0.811l-14.972,0.12c-0.607,0.004-1.19,0.008-1.763,0.012v49.998c0.079,0,0.153,0,0.233,0
		c11.909,0,14.188-0.061,16.59-0.54c4.108-0.78,7.319-1.92,9.6-3.45c4.11-2.76,13.59-9.779,15.6-11.58
		c1.143-0.99,3.15-2.64,4.44-3.63c3-2.28,16.83-16.02,21.81-21.66c4.53-5.159,6.36-7.47,9.723-12.39
		c12.06-17.58,25.29-27.87,39.989-31.05c3.118-0.66,11.068-0.9,15.479-0.48c14.61,1.5,32.7,7.23,45.271,14.37
		c26.459,15.03,40.591,37.62,44.311,70.86c0.479,4.409,0.479,16.859,0,21.148c-1.17,10.352-3.479,19.62-7.29,29.13
		c-1.38,3.479-4.92,11.222-9.569,20.972c-6,12.54-7.739,17.7-9.898,29.159c-1.561,8.369-2.91,13.648-5.102,20.188
		c-3.271,9.84-7.381,18.78-12.688,27.69c-1.29,2.13-2.312,4.05-2.312,4.29c0,2.13,4.682-3.843,9.271-11.882
		c5.939-10.318,9.148-19.561,12.45-35.851c1.647-8.04,2.76-12,6.06-21.06c2.97-8.223,4.32-11.37,7.89-18.24
		c4.23-8.16,7.563-13.41,12.092-19.05C770.939,400.439,775.77,381.66,775.08,365.46z"/>
	<path id="structure79_label93_acer" bar:type="" bar:growlevel="0" fill="#F200DD" d="M544.62,550.74
		c-1.352,1.08-1.71,2.938-0.9,4.528c0.932,1.739,3.841,2.132,5.313,0.659c0.75-0.75,0.869-1.107,0.869-2.43s-0.119-1.68-0.869-2.43
		c-0.75-0.723-1.142-0.87-2.342-0.87C545.79,550.2,545.01,550.41,544.62,550.74z"/>
	<path id="structure7_label4_IEn" bar:type="" bar:growlevel="0" fill="#5F23ED" d="M724.83,504.48
		c-3.09,5.31-5.37,8.397-11.61,15.567c-3.42,3.96-4.317,5.82-4.317,9c0,3.392,0.777,9.57,1.47,11.853
		c0.66,2.13,2.188,4.857,3.66,6.51c1.438,1.65,4.56,4.29,5.067,4.29c1.143,0,3.33-4.98,5.103-11.67
		c1.408-5.25,2.487-8.16,4.408-11.73c3.271-6.06,6.75-10.229,10.262-12.18c0.84-0.479,1.529-1.021,1.529-1.229
		c0-0.181-0.899-0.75-1.979-1.261c-2.58-1.2-5.278-3.147-7.08-5.068c-1.47-1.562-3.659-4.771-3.989-5.791
		C726.99,501.63,726.15,502.2,724.83,504.48z"/>
	<path id="structure84_text3108_S1DZ" bar:type="" bar:growlevel="0" fill="#FEFF3B" d="M829.02,191.31
		c-12.868,11.94-92.817,91.56-92.817,92.43c0,0.24,2.25,2.64,5.01,5.37c4.74,4.71,5.04,4.92,5.67,4.56
		c0.84-0.54,10.683-8.94,40.2-34.35c36.93-31.8,58.021-49.71,62.313-52.92c0.777-0.6,1.407-1.29,1.407-1.62
		c0-0.72-16.407-17.28-17.157-17.28C833.37,187.5,831.27,189.21,829.02,191.31z"/>
	<path id="structure85_text3110_S1DZO" bar:type="" bar:growlevel="0" fill="#E8E900" d="M824.7,286.98
		c-33.24,17.88-60.48,32.7-60.54,32.94c-0.062,0.21,0.51,1.83,1.26,3.54c0.721,1.74,1.5,3.72,1.71,4.41
		c0.21,0.72,0.54,1.35,0.75,1.44c0.511,0.18,42.78-17.462,70.17-29.312c21.96-9.48,36.271-15.96,47.49-21.48
		c5.851-2.91,7.56-3.87,7.56-4.29c0-1.83-6.93-19.86-7.618-19.8C885.3,254.46,857.939,269.1,824.7,286.98z"/>
	<path fill="#FF23E9" d="M539.917,303.893v8.099c0.455,0.035,0.925,0.007,1.403-0.111c1.17-0.3,2.489-1.83,2.729-3.18
		C544.494,306.105,542.335,303.904,539.917,303.893z"/>
	<path id="structure88_text4577_Pir-2" bar:type="" bar:growlevel="0" fill="#F3FF59" d="M807.689,504.84
		c-1.142,1.05-1.649,2.04-2.67,5.16c-2.729,8.58-10.921,19.26-16.319,21.36c-3.69,1.408-8.311,0.987-16.771-1.563
		c-5.368-1.59-9.688-2.22-14.278-2.01c-4.563,0.21-6.541,0.84-9.183,3.03c-1.05,0.867-2.789,2.67-3.869,4.05
		c-3.898,4.95-5.881,9.12-6.75,14.13c-0.538,3.18-1.17,4.8-2.398,6.24c-0.931,1.107-3.602,2.55-5.67,3.09
		c-1.591,0.39-1.71,0.75-0.602,1.8c0.602,0.54,4.409,5.01,4.802,5.61c0.18,0.27,5.188-0.96,6.028-1.473
		c1.709-1.05,2.369-2.67,3.841-9.42c0.271-1.317,1.051-3.81,1.711-5.55c1.68-4.38,5.76-12.688,6.868-13.92
		c1.472-1.68,3.091-2.13,7.619-2.1c5.763,0.06,11.972,1.56,18.54,4.529c5.28,2.341,8.852,2.729,12.602,1.289
		c2.851-1.08,7.891-4.591,10.739-7.5c6.812-6.931,12.029-18.148,11.222-24.061C812.7,504.36,809.76,502.89,807.689,504.84z"/>
	<path id="structure8_label5_DEn" bar:type="" bar:growlevel="0" fill="#E0E959" d="M738.33,465.66
		c-2.55,13.32-5.49,23.01-9.57,31.529l-1.979,4.141l0.93,1.859c4.229,8.579,12.811,13.141,24.84,13.198
		c6.183,0.03,9.48-0.987,12.33-3.84c3-2.97,3.9-7.739,2.37-12.3c-2.28-6.813-9-16.65-16.858-24.78
		c-2.041-2.1-3.722-3.567-4.052-3.567c-0.93,0-2.79-1.11-3.688-2.16c-1.143-1.353-2.25-3.813-2.643-5.973
		c-0.18-0.959-0.479-1.77-0.659-1.77C739.17,462,738.689,463.65,738.33,465.66z"/>
	<path id="structure91_text3742_Tu-2" bar:type="" bar:growlevel="0" fill="#FFFAB2" d="M559.8,528.36
		c-0.42,0.329-1.47,0.96-2.31,1.35c-0.96,0.45-1.59,0.93-1.59,1.2c0,1.08,7.17,12.029,11.76,17.938
		c3.449,4.44,9.72,10.803,13.199,13.383c1.438,1.05,5.761,3.81,9.601,6.117c12.72,7.65,18.12,11.313,24.69,16.771
		c4.947,4.14,5.67,4.648,8.368,6.06c4.262,2.19,6.421,2.103,14.552-0.51c9.147-2.97,13.319-3.51,18.27-2.4
		c3.57,0.78,5.551,1.86,8.91,4.86c4.02,3.601,5.55,4.229,7.2,2.91c0.81-0.63,0.81-0.66,0.6-3.3c-0.239-3.24,0-3.632,2.49-4.17
		c3.78-0.78,11.101,1.38,15.96,4.71c2.34,1.59,3.54,1.857,5.76,1.199c3.063-0.869,3.722-1.83,4.892-7.052
		c1.381-6.27,2.311-7.14,8.398-7.83c5.07-0.539,7.352-1.948,9.33-5.698c1.229-2.312,3.99-4.979,6.3-6.062
		c1.021-0.479,3.09-1.108,4.53-1.41c1.771-0.33,2.67-0.659,2.729-0.96c0.028-0.21-1.08-1.738-2.489-3.357
		c-1.891-2.131-2.761-2.91-3.271-2.91c-0.39,0-1.618,0.479-2.76,1.05c-4.26,2.16-8.37,5.91-10.59,9.688
		c-0.63,1.109-1.681,2.521-2.28,3.121c-1.529,1.528-2.729,1.891-5.37,1.561c-3.33-0.391-5.397-0.3-6.3,0.27
		c-1.14,0.75-1.648,1.71-2.729,5.013c-1.291,3.84-2.37,5.43-4.5,6.447c-1.32,0.66-1.893,0.78-2.882,0.632
		c-2.278-0.359-5.431-2.279-9.42-5.729c-2.789-2.43-3.989-3.15-5.25-3.15c-1.381,0-2.789,1.053-4.438,3.303
		c-3.36,4.56-4.5,4.737-11.43,1.527c-5.882-2.729-6.303-2.85-10.23-2.817c-4.29,0-7.02,0.688-14.4,3.567
		c-5.1,1.98-5.34,2.04-7.948,2.04c-2.222,0-3.029-0.147-4.529-0.778c-2.28-0.959-4.891-2.699-7.682-5.131
		c-4.261-3.721-6.238-5.188-14.13-10.471c-4.409-2.97-9.961-6.81-12.301-8.55c-9.27-6.93-16.199-15.3-26.82-32.43
		C561.18,527.55,560.76,527.55,559.8,528.36z"/>
	<path id="structure92_text4579_Pir-3" bar:type="" bar:growlevel="0" fill="#D8E900" d="M759,485.13c0,0.181,0.72,1.352,1.62,2.61
		c3.81,5.46,6.63,11.16,7.41,14.97c0.96,4.71-1.921,10.2-6.48,12.271c-4.29,1.979-11.01,2.158-18.12,0.511l-2.188-0.511
		l-1.893,0.988c-1.05,0.54-2.789,1.8-3.869,2.79c-3.961,3.603-8.608,12-10.561,18.99c-1.95,7.17-2.55,8.88-3.87,11.49
		c-0.75,1.41-1.35,2.67-1.35,2.79s1.05,0.988,2.34,1.95c1.26,0.959,3.09,2.397,4.05,3.237l1.74,1.5l1.561-0.39
		c2.459-0.63,5.22-2.04,6.062-3.12c1.05-1.41,1.858-3.42,2.1-5.16c0.78-5.817,4.021-12.21,8.88-17.37
		c3.633-3.897,6.57-5.1,12.421-5.1c4.562,0.03,7.261,0.45,12.899,2.07c7.53,2.188,10.68,2.67,14.313,2.22
		c3.117-0.392,5.1-1.59,8.579-5.19c4.591-4.8,8.25-10.56,9.931-15.688c0.99-3.063,2.13-5.46,2.85-6.063
		c0.9-0.75,0.57-1.229-0.779-1.229c-3.721-0.03-11.671-1.62-17.188-3.45c-7.471-2.49-12.99-5.28-23.971-12.12
		C760.439,485.01,759,484.35,759,485.13z"/>
	<path id="structure96_text4591_Tu-3" bar:type="" bar:growlevel="0" fill="#E9E159" d="M569.82,522.33
		c-0.511,0.54-0.78,0.6-2.37,0.45c-6.24-0.603-5.73-0.63-6.3,0.239c-0.393,0.568-0.48,1.198-0.393,2.368
		c0.12,1.29,0.48,2.132,2.132,4.802c4.681,7.528,10.5,15.811,11.13,15.811c0.211,0,0.601-0.54,0.87-1.2
		c0.448-1.17,1.948-2.397,2.97-2.397c1.171,0,4.921,1.527,5.761,2.367c1.38,1.41,1.17,3.813-0.54,5.671
		c-0.78,0.87-2.04,1.562-2.88,1.562c-1.32,0-0.602,1.17,2.489,3.96c3.721,3.36,8.909,7.17,19.108,13.95
		c4.62,3.12,9.092,6.357,11.28,8.25c6.898,5.938,9.148,7.2,13.35,7.38c2.94,0.148,3.33,0.062,9.962-2.46
		c5.818-2.22,9.811-3.18,13.108-3.18s4.71,0.39,9.99,2.817c4.68,2.16,6.72,2.643,8.31,1.98c0.99-0.42,3.603-3.36,3.603-4.05
		c0-0.24-0.632-0.54-1.5-0.723c-2.103-0.447-3.091-1.02-4.2-2.43c-1.17-1.47-1.98-1.92-4.32-2.4c-2.25-0.447-3.36-1.47-3.63-3.33
		l-0.21-1.317l-5.13-0.69c-2.851-0.39-5.73-0.75-6.42-0.87l-1.29-0.18v1.11c0,1.438-1.32,2.88-2.641,2.88
		c-1.142,0-6.541-1.08-7.649-1.53c-1.38-0.57-1.86-2.25-0.96-3.45c0.568-0.75,0.568-1.62,0-1.62c-1.53,0-17.46-5.789-21.42-7.8
		c-0.99-0.479-1.921-0.898-2.04-0.898c-0.12,0-0.45,0.391-0.75,0.868c-0.271,0.48-0.931,1.11-1.44,1.382
		c-0.898,0.479-1.05,0.479-2.28,0c-1.5-0.569-2.817-1.979-2.817-2.972c0-0.39,0.27-1.05,0.6-1.47s0.603-0.87,0.603-1.021
		c0-0.119-0.78-0.75-1.74-1.381c-1.98-1.261-3.87-3.028-4.11-3.841c-0.239-0.72,0.3-1.68,1.05-1.92c0.33-0.09,0.603-0.33,0.603-0.51
		c0-0.3-5.521-6.21-11.13-11.94c-1.383-1.408-5.313-4.89-8.73-7.738l-6.21-5.159h-1.62C570.75,521.7,570.27,521.85,569.82,522.33z"
		/>
	<path id="structure97_text3744_Tu-3" bar:type="" bar:growlevel="0" fill="#E9E159" d="M717.9,554.16
		c-1.65,2.46-4.591,5.188-6.631,6.21c-1.709,0.84-2.13,0.93-4.802,0.93c-4.77,0-12.06,2.28-18.72,5.853
		c-3.24,1.737-6.75,2.88-10.649,3.51c-2.729,0.42-2.579,0.148-1.829,3.18c0.238,0.932,0.238,1.65,0.028,2.521
		c-0.18,0.658-0.3,1.229-0.237,1.26c0.06,0.03,0.72,0.3,1.47,0.569c0.75,0.301,2.52,1.471,3.897,2.671
		c5.223,4.38,7.83,5.908,10.23,5.938c1.8,0,2.85-0.39,4.08-1.59c1.29-1.229,1.89-2.43,2.909-5.67c1.5-4.95,3.209-5.939,8.788-5.04
		c3.48,0.57,5.371-0.51,7.65-4.32c2.34-3.96,6.63-7.89,10.95-10.02c1.17-0.602,2.16-1.26,2.16-1.472c0-0.841-6.603-6.091-7.65-6.091
		C719.16,552.63,718.59,553.17,717.9,554.16z"/>
	<path id="structure98_text4581_Pir-1" bar:type="" bar:growlevel="0" fill="#C6D400" d="M831.9,501.78
		c-4.44,1.08-13.5,2.22-17.91,2.22c-2.131,0-2.19,0.09-1.26,2.04c2.34,4.8-2.791,17.25-10.41,25.26
		c-4.08,4.261-10.44,8.22-13.98,8.67c-3.06,0.393-4.92-0.06-11.49-2.79c-6.3-2.58-11.67-3.777-17.129-3.777
		c-4.08,0-6.03,0.51-7.2,1.89c-1.021,1.229-5.761,10.89-7.108,14.61c-0.601,1.59-1.38,4.35-1.71,6.147
		c-1.41,7.11-2.55,8.58-7.262,9.45c-1.141,0.21-2.038,0.51-2.038,0.66c0,0.148,0.51,1.05,1.17,1.979
		c1.59,2.37,3.659,6.33,4.857,9.33c0.57,1.38,1.2,2.58,1.41,2.643c0.51,0.21,9.51-5.82,11.7-7.86c2.28-2.1,3.42-3.9,4.38-6.84
		c1.17-3.54,2.49-5.82,4.86-8.221c2.88-2.939,4.979-3.932,8.85-4.171c4.021-0.271,12.84,0.329,15.69,1.079
		c2.698,0.69,4.857,1.83,5.13,2.7c0.09,0.33,0.359,0.603,0.6,0.603c0.511,0,5.94-3.9,10.62-7.62
		c8.971-7.143,18.689-16.38,21.12-20.07c1.439-2.189,3.18-5.88,4.74-10.05c1.5-4.021,5.37-16.74,5.37-17.67
		C834.9,501.18,834.42,501.15,831.9,501.78z"/>
	<path id="structure9_label6_VP" bar:type="" bar:growlevel="0" fill="#FFE900" d="M598.38,547.68
		c-0.45,1.17-0.148,1.893,1.352,3.24c3.061,2.73,11.13,7.08,18.601,9.99c13.438,5.25,23.188,7.59,39.569,9.39
		c10.858,1.23,15.659,1.11,22.591-0.45c4.5-1.02,6.898-2.25,8.67-4.47c2.97-3.72,3.54-6.78,1.83-9.81
		c-2.643-4.71-7.08-5.25-19.74-2.4c-11.188,2.521-11.49,2.55-17.25,2.55c-3.99,0-6.33-0.147-9.75-0.688
		c-8.25-1.263-11.91-0.36-14.729,3.72c-1.41,2.07-2.341,2.46-4.562,2.01c-2.55-0.54-5.22-1.92-7.229-3.777
		c-1.143-1.053-2.91-2.223-4.893-3.211c-2.67-1.319-8.04-4.199-11.278-6.029C600.33,547.05,598.62,547.02,598.38,547.68z"/>
	
		<text id="label30" bar:growlevel="0" transform="matrix(1 0 0 1 676.2197 186.4072)" fill="#232323" enable-background="new    " font-family="'TimesNewRomanPSMT'" font-size="9">M1</text>
	
		<text id="label31" bar:growlevel="0" transform="matrix(1 0 0 1 622.25 183.2666)" fill="#232323" enable-background="new    " font-family="'TimesNewRomanPSMT'" font-size="9">M2</text>
	
		<text id="label36" bar:growlevel="0" transform="matrix(1 0 0 1 542.082 306.1016)" fill="#232323" enable-background="new    " font-family="'TimesNewRomanPSMT'" font-size="9">azp</text>
	
		<text id="label37" bar:growlevel="0" transform="matrix(1 0 0 1 586.5703 363.3281)" fill="#232323" enable-background="new    " font-family="'TimesNewRomanPSMT'" font-size="9">LV</text>
	
		<text id="label38" bar:growlevel="0" transform="matrix(1 0 0 1 673.29 382.542)" fill="#232323" enable-background="new    " font-family="'TimesNewRomanPSMT'" font-size="9">CPu</text>
	
		<text id="label8" bar:growlevel="0" transform="matrix(1 0 0 1 544.3066 468.9004)" fill="#232323" enable-background="new    " font-family="'TimesNewRomanPSMT'" font-size="9">VDB</text>
	
		<text id="label9" bar:growlevel="0" transform="matrix(1 0 0 1 552.1201 520.7461)" fill="#232323" enable-background="new    " font-family="'TimesNewRomanPSMT'" font-size="9">ICj</text>
	
		<text id="text3744" bar:growlevel="0" transform="matrix(1 0 0 1 685.6104 575.7373)" fill="#232323" enable-background="new    " font-family="'TimesNewRomanPSMT'" font-size="9">Tu-3</text>
	
		<text id="text3742" bar:growlevel="0" transform="matrix(1 0 0 1 645.1318 585.6465)" fill="#232323" enable-background="new    " font-family="'TimesNewRomanPSMT'" font-size="9">Tu-2</text>
	
		<text id="text4577" bar:growlevel="0" transform="matrix(1 0 0 1 754.6348 531.1563)" fill="#232323" enable-background="new    " font-family="'TimesNewRomanPSMT'" font-size="9">Pir-2</text>
	
		<text id="text4579" bar:growlevel="0" transform="matrix(1 0 0 1 754.1543 523.7148)" fill="#232323" enable-background="new    " font-family="'TimesNewRomanPSMT'" font-size="9">Pir-3</text>
	
		<text id="label1" bar:growlevel="0" transform="matrix(1 0 0 1 576.5303 501.2432)" fill="#232323" enable-background="new    " font-family="'TimesNewRomanPSMT'" font-size="9">AcbSh</text>
	
		<text id="label2" bar:growlevel="0" transform="matrix(1 0 0 1 658.4004 540.5996)" fill="#232323" enable-background="new    " font-family="'TimesNewRomanPSMT'" font-size="9">LAcbSh</text>
	
		<text id="label3" bar:growlevel="0" transform="matrix(1 0 0 1 700.5605 553.832)" fill="#232323" enable-background="new    " font-family="'TimesNewRomanPSMT'" font-size="9">VP</text>
	
		<text id="label4" bar:growlevel="0" transform="matrix(1 0 0 1 713.0801 528.6377)" fill="#232323" enable-background="new    " font-family="'TimesNewRomanPSMT'" font-size="9">IEn</text>
	
		<text id="label5" bar:growlevel="0" transform="matrix(1 0 0 1 739.2695 499.8428)" fill="#232323" enable-background="new    " font-family="'TimesNewRomanPSMT'" font-size="9">DEn</text>
	
		<text id="label6" bar:growlevel="0" transform="matrix(1 0 0 1 669.5703 565.3242)" fill="#232323" enable-background="new    " font-family="'TimesNewRomanPSMT'" font-size="9">VP</text>
	
		<text id="Unlabeled-1718-1200" bar:growlevel="0" transform="matrix(1 0 0 1 549.9336 367.5)" fill="#232323" enable-background="new    " font-family="'TimesNewRomanPSMT'" font-size="9">DP</text>
	
		<text id="label87" bar:growlevel="0" transform="matrix(1 0 0 1 552.0527 557.7842)" fill="#232323" enable-background="new    " font-family="'TimesNewRomanPSMT'" font-size="9">olfa</text>
	
		<text id="label81" bar:growlevel="0" transform="matrix(1 0 0 1 555.0674 311.3926)" fill="#232323" enable-background="new    " font-family="'TimesNewRomanPSMT'" font-size="9">IG</text>
	
		<text id="label80" bar:growlevel="0" transform="matrix(1 0 0 1 605.1406 329.5527)" fill="#232323" enable-background="new    " font-family="'TimesNewRomanPSMT'" font-size="9">E</text>
	
		<text id="Unlabeled-1925-1810" bar:growlevel="0" transform="matrix(1 0 0 1 579.9004 547.2002)" fill="#232323" enable-background="new    " font-family="'TimesNewRomanPSMT'" font-size="9">ICj</text>
	
		<text id="text3110" bar:growlevel="0" transform="matrix(1 0 0 1 834.2744 292.6689)" fill="#232323" enable-background="new    " font-family="'TimesNewRomanPSMT'" font-size="9">S1DZO</text>
	
		<text id="label16" bar:growlevel="0" transform="matrix(1 0 0 1 563.5 375.1602)" fill="#232323" enable-background="new    " font-family="'TimesNewRomanPSMT'" font-size="9">LSD</text>
	
		<text id="label16_1_" bar:growlevel="0" transform="matrix(1 0 0 1 557.1602 436.6504)" fill="#232323" enable-background="new    " font-family="'TimesNewRomanPSMT'" font-size="9">LSI</text>
	
		<text id="label17" bar:growlevel="0" transform="matrix(1 0 0 1 747.6406 451.4336)" fill="#232323" enable-background="new    " font-family="'TimesNewRomanPSMT'" font-size="9">VCl</text>
	
		<text id="label14" bar:growlevel="0" transform="matrix(1 0 0 1 581.4395 410.3369)" fill="#232323" enable-background="new    " font-family="'TimesNewRomanPSMT'" font-size="9">LSV</text>
	
		<text id="label15" bar:growlevel="0" transform="matrix(1 0 0 1 552.0527 380.8281)" fill="#232323" enable-background="new    " font-family="'TimesNewRomanPSMT'" font-size="9">SHi</text>
	
		<text id="label93" bar:growlevel="0" transform="matrix(1 0 0 1 546.1455 553.543)" fill="#232323" enable-background="new    " font-family="'TimesNewRomanPSMT'" font-size="9">acer</text>
	
		<text id="text3108" bar:growlevel="0" transform="matrix(1 0 0 1 794.7656 239.2705)" fill="#232323" enable-background="new    " font-family="'TimesNewRomanPSMT'" font-size="9">S1DZ</text>
	
		<text id="label69" bar:growlevel="0" transform="matrix(1 0 0 1 612.6895 246.3076)" fill="#232323" enable-background="new    " font-family="'TimesNewRomanPSMT'" font-size="9">cg</text>
	
		<text id="label61" bar:growlevel="0" transform="matrix(1 0 0 1 642.3105 565.3145)" fill="#232323" enable-background="new    " font-family="'TimesNewRomanPSMT'" font-size="9">mfb</text>
	
		<text id="label60" bar:growlevel="0" transform="matrix(1 0 0 1 636.5498 496.3623)" fill="#232323" enable-background="new    " font-family="'TimesNewRomanPSMT'" font-size="9">aca</text>
	
		<text id="text5107" bar:growlevel="0" transform="matrix(1 0 0 1 553.0195 266.7646)" fill="#232323" enable-background="new    " font-family="'TimesNewRomanPSMT'" font-size="9">Cg2</text>
	
		<text id="text5105" bar:growlevel="0" transform="matrix(1 0 0 1 555.0674 198.875)" fill="#232323" enable-background="new    " font-family="'TimesNewRomanPSMT'" font-size="9">Cg1</text>
	
		<text id="label78" bar:growlevel="0" transform="matrix(1 0 0 1 566.1406 484.1797)" fill="#232323" enable-background="new    " font-family="'TimesNewRomanPSMT'" font-size="9">ICjM</text>
	
		<text id="label79" bar:growlevel="0" transform="matrix(1 0 0 1 760.79 420.0986)" fill="#232323" enable-background="new    " font-family="'TimesNewRomanPSMT'" font-size="9">DCl</text>
	
		<text id="label75" bar:growlevel="0" transform="matrix(1 0 0 1 669.1602 574.7061)" fill="#232323" enable-background="new    " font-family="'TimesNewRomanPSMT'" font-size="9">ICj</text>
	
		<text id="label77" bar:growlevel="0" transform="matrix(1 0 0 1 703.6797 523.1865)" fill="#232323" enable-background="new    " font-family="'TimesNewRomanPSMT'" font-size="9">LSS</text>
	
		<text id="label70" bar:growlevel="0" transform="matrix(1 0 0 1 744.2402 309.1787)" fill="#232323" enable-background="new    " font-family="'TimesNewRomanPSMT'" font-size="9">ec</text>
	
		<text id="text4591" bar:growlevel="0" transform="matrix(1 0 0 1 626.3477 577.6064)" fill="#232323" enable-background="new    " font-family="'TimesNewRomanPSMT'" font-size="9">Tu-3</text>
	
		<text id="text3746" bar:growlevel="0" transform="matrix(1 0 0 1 642.1084 597.375)" fill="#232323" enable-background="new    " font-family="'TimesNewRomanPSMT'" font-size="9">Tu-1</text>
	
		<text id="text4581" bar:growlevel="0" transform="matrix(1 0 0 1 755.332 542.3652)" fill="#232323" enable-background="new    " font-family="'TimesNewRomanPSMT'" font-size="9">Pir-1</text>
	
		<text id="label55" bar:growlevel="0" transform="matrix(1 0 0 1 768.8691 563.6797)" fill="#232323" enable-background="new    " font-family="'TimesNewRomanPSMT'" font-size="9">lo</text>
	
		<text id="label0" bar:growlevel="0" transform="matrix(1 0 0 1 612.9297 476.5186)" fill="#232323" enable-background="new    " font-family="'TimesNewRomanPSMT'" font-size="9">AcbC</text>
	
		<text id="Unlabeled-2318-1833" bar:growlevel="0" transform="matrix(1 0 0 1 696 558.9004)" fill="#232323" enable-background="new    " font-family="'TimesNewRomanPSMT'" font-size="9">LAcbSh</text>
	
		<text id="text3042" bar:growlevel="0" transform="matrix(1 0 0 1 558.9404 336.7832)" fill="#232323" enable-background="new    " font-family="'TimesNewRomanPSMT'" font-size="9">gcc</text>
	
		<text id="label23" bar:growlevel="0" transform="matrix(1 0 0 1 807.5098 450.3838)" fill="#232323" enable-background="new    " font-family="'TimesNewRomanPSMT'" font-size="9">DI</text>
	
		<text id="label22" bar:growlevel="0" transform="matrix(1 0 0 1 794.4902 469.8975)" fill="#232323" enable-background="new    " font-family="'TimesNewRomanPSMT'" font-size="9">AID</text>
	
		<text id="label21" bar:growlevel="0" transform="matrix(1 0 0 1 780.1406 488.3506)" fill="#232323" enable-background="new    " font-family="'TimesNewRomanPSMT'" font-size="9">AIV</text>
	
		<text id="label27" bar:growlevel="0" transform="matrix(1 0 0 1 821.8594 363.3184)" fill="#232323" enable-background="new    " font-family="'TimesNewRomanPSMT'" font-size="9">S1ULp</text>
	
		<text id="label24" bar:growlevel="0" transform="matrix(1 0 0 1 813.9004 426.3594)" fill="#232323" enable-background="new    " font-family="'TimesNewRomanPSMT'" font-size="9">GI</text>
	
		<text id="label29" bar:growlevel="0" transform="matrix(1 0 0 1 740.5801 210.4316)" fill="#232323" enable-background="new    " font-family="'TimesNewRomanPSMT'" font-size="9">S1FL</text>
	
		<text id="label28" bar:growlevel="0" transform="matrix(1 0 0 1 807.5498 273.123)" fill="#232323" enable-background="new    " font-family="'TimesNewRomanPSMT'" font-size="9">S1J</text>
	
		<text id="Unlabeled-1870-1650" bar:growlevel="0" transform="matrix(1 0 0 1 560.7002 507.2998)" fill="#232323" enable-background="new    " font-family="'TimesNewRomanPSMT'" font-size="9">Tu</text>
</g>
</svg>
