<?xml version="1.0" encoding="utf-8"?>
<!-- Generator: Adobe Illustrator 16.0.0, SVG Export Plug-In . SVG Version: 6.00 Build 0)  -->
<!DOCTYPE svg PUBLIC "-//W3C//DTD SVG 1.1//EN" "http://www.w3.org/Graphics/SVG/1.1/DTD/svg11.dtd">
<svg version="1.1"
	 id="body" inkscape:version="0.47pre4 r22446" sodipodi:docname="87_pretrace_pretrace_v1.svg" xmlns:rdf="http://www.w3.org/1999/02/22-rdf-syntax-ns#" xmlns:dc="http://purl.org/dc/elements/1.1/" xmlns:cc="http://creativecommons.org/ns#" xmlns:bar="http://www.3dbar.org" xmlns:sodipodi="http://sodipodi.sourceforge.net/DTD/sodipodi-0.dtd" xmlns:svg="http://www.w3.org/2000/svg" xmlns:inkscape="http://www.inkscape.org/namespaces/inkscape"
	 xmlns="http://www.w3.org/2000/svg" xmlns:xlink="http://www.w3.org/1999/xlink" x="0px" y="0px" width="1008px" height="1008px"
	 viewBox="0 0 1008 1008" enable-background="new 0 0 1008 1008" xml:space="preserve">
<sodipodi:namedview  bordercolor="#666666" borderopacity="1" gridtolerance="10" guidetolerance="10" id="namedview404" inkscape:cx="536.01837" inkscape:cy="493.85925" inkscape:zoom="9.7401783" objecttolerance="10" pagecolor="#ffffff" showgrid="false" inkscape:window-maximized="1" inkscape:window-x="1680" inkscape:pageshadow="2" inkscape:current-layer="content" inkscape:window-y="24" inkscape:window-height="1128" inkscape:pageopacity="0" inkscape:window-width="1918" inkscape:object-paths="true">
	</sodipodi:namedview>
<title  id="title3">SVG drawing</title>
<desc  id="desc5">This was produced by version 4.2 of GNU libplot, a free library for exporting 2-D vector graphics.</desc>
<defs>
	
	<rdf:RDF>
		<cc:Work  rdf:about="">
			<dc:format>image/svg+xml</dc:format>
			<dc:type  rdf:resource="http://purl.org/dc/dcmitype/StillImage"></dc:type>
		</cc:Work>
	</rdf:RDF>
	<bar:data  name="coronalcoord" content="-1.32"></bar:data>
	
		<bar:data  name="rendererConf" content="{&apos;ReferenceHeight&apos;: 900, &apos;ReferenceWidth&apos;: 1200, &apos;imageSize&apos;: (1200, 900)}">
		</bar:data>
	
		<bar:data  name="tracingConf" content="{&apos;DumpEachStepSVG&apos;: False, &apos;DumpEachStepPNG&apos;: False, &apos;GrowDefaultBoundaryColor&apos;: 200, &apos;CacheLevel&apos;: 5, &apos;NewPathIdTemplate&apos;: &apos;structure%d_%s_%s&apos;, &apos;PoTraceConf&apos;: {&apos;potrace_accuracy_parameter&apos;: &apos;0.001&apos;, &apos;potrace_width_string&apos;: &apos;1200pt&apos;, &apos;potrace_svg_resolution_string&apos;: &apos;300x300&apos;, &apos;potrace_height_string&apos;: &apos;900pt&apos;}, &apos;DetectUnlabelled&apos;: True, &apos;DumpVBrain&apos;: False, &apos;DumpWrongSeed&apos;: True, &apos;DumpDirectory&apos;: &apos;.&apos;, &apos;MinFiterTimesApplication&apos;: 3, &apos;RegionAlreadyTraced&apos;: 100, &apos;UnlabelledTreshold&apos;: 500}">
		</bar:data>
	<bar:data  name="transformationmatrix" content="0.0176211454,-9.5150660793,0.0176211454,-1.5355884426"></bar:data>
</defs>
<g id="content">
	<path fill="#FF000C" d="M946.05,372c-6.84-78.84-42.18-145.02-103.53-193.77c-23.696-18.87-36.42-27.51-52.286-35.55
		C764.58,129.69,741,123,708.6,119.58c-15.93-1.68-28.979-2.31-48.3-2.31c-37.56,0.03-59.25,2.49-78.27,8.91
		c-16.08,5.43-25.08,12.09-31.98,23.64c-4.316,7.23-7.8,17.49-9.146,27.03c-0.438,3.138-0.555,3.668-0.888,3.739v477.872
		c6.431-0.012,12.935-0.798,26.984-2.361c7.35-0.81,16.68-1.83,20.73-2.25c8.036-0.81,11.576-1.35,31.77-4.77
		c7.35-1.23,14.22-2.34,15.27-2.46l1.894-0.21l-0.21,1.26c-0.184,1.14-0.12,1.32,0.81,2.25c2.25,2.25,6.24,1.98,7.894-0.51
		c0.566-0.9,0.33-2.19-0.48-2.7c-1.47-0.9-0.63-1.05,5.521-1.021c5.188,0.063,6.236-0.027,7.408-0.479
		c3.722-1.47,4.92-3.3,5.521-8.43c0.479-4.11,1.021-5.19,3.3-6.48c2.07-1.2,3.84-1.229,5.46-0.06c0.63,0.479,3.9,3.75,7.23,7.29
		c8.37,8.85,11.76,11.697,17.158,14.486c3.212,1.65,5.972,2.644,10.472,3.75c8.31,2.07,15.479,3.271,39.96,6.634
		c8.188,1.14,12.3,1.89,22.08,4.02c17.64,3.87,22.41,4.17,36.779,2.25c12.421-1.65,23.851-5.189,36.721-11.37
		c9.81-4.71,15.18-8.37,24.12-16.38c18.54-16.62,41.816-47.91,51-68.52c3.21-7.2,5.698-15.24,6.75-21.9
		c0.81-5.28,1.738-15.12,1.738-19.05c0-4.62-0.392-6.934-1.771-10.29c-0.78-1.894-1.021-2.91-1.021-4.29v-1.83l2.819-2.76
		c1.563-1.5,3.12-3.303,3.45-3.99c0.36-0.72,1.38-3.48,2.25-6.15c7.17-21.54,12.42-48.75,14.58-75.54
		C947.55,409.8,947.49,388.68,946.05,372z"/>
	<path id="structure10_label9_PLH" bar:growlevel="0" bar:type="" fill="#B29AE1" d="M636.3,485.13
		c-11.88,0.48-17.67,1.29-27.146,3.9c-8.04,2.188-11.25,2.76-14.28,2.606c-3.604-0.21-5.37-1.71-5.37-4.526
		c0-1.08-0.03-1.11-1.05-1.11h-1.05v1.86c-0.03,1.05-0.24,2.58-0.54,3.39c-0.96,2.76-3.75,7.41-5.67,9.48
		c-1.054,1.076-1.894,2.1-1.894,2.25c0,0.146,0.54,0.866,1.17,1.59l1.144,1.316l1.77-0.869c4.41-2.157,10.143-0.931,17.313,3.659
		l2.04,1.32l1.856-0.271c5.521-0.843,13.29-0.633,19.95,0.567c3.57,0.63,4.35,1.17,4.89,3.12c0.45,1.65,0.15,4.8-0.776,8.25
		c-1.771,6.6-2.94,9.21-8.58,19.38c-4.473,8.07-5.013,9.24-5.37,11.46c-0.15,0.96-0.42,5.37-0.603,9.84
		c-0.181,4.44-0.447,11.61-0.631,15.9c-0.39,9.78-0.986,16.92-1.646,19.05c-1.894,6.3-7.5,13.894-12.934,17.49
		c-4.736,3.149-11.31,5.521-16.8,6.06c-3.96,0.394-6.63-0.986-7.59-3.93c-0.479-1.438-0.21-5.07,0.54-7.5
		c0.479-1.56,0.54-2.28,0.36-4.648c-0.15-1.562-0.33-6.568-0.45-11.158l-0.24-8.313h-5.609h-5.607l-0.183,1.021
		c-0.511,3.18-5.521,13.646-9.181,19.229c-2.7,4.08-6.779,7.65-8.76,7.65c-0.48,0-0.51,0.51-0.51,5.91
		c0.026,5.31-0.184,7.856-0.813,10.316c-0.18,0.75-0.09,0.841,1.41,1.354c1.17,0.39,2.07,0.987,3.42,2.34
		c2.88,2.88,4.352,6.688,4.41,11.31v2.37h1.02c1.354,0,14.132-1.646,20.04-2.58c11.4-1.8,14.764-2.67,24.54-6.448
		c2.94-1.142,5.644-2.068,6.03-2.068c0.87,0,8.4-6.03,14.37-11.49c2.43-2.22,5.068-4.438,5.85-4.89c0.782-0.452,1.95-1.29,2.61-1.83
		c1.95-1.683,6.33-3.66,9.66-4.354c2.369-0.479,3.567-0.566,6.237-0.42c1.83,0.091,3.75,0.271,4.29,0.36
		c1.619,0.3,1.199-0.63-0.777-1.68c-2.644-1.382-4.65-3.304-5.461-5.132c-0.603-1.408-0.631-1.712-0.302-2.788
		c0.302-0.962,0.271-1.23,0-1.32c-2.729-0.93-5.25-3.392-6.147-6.03c-3.063-8.97,8.76-16.77,18.3-12.06
		c1.021,0.51,1.95,0.93,2.04,0.93s0.57-0.9,1.08-1.979c2.58-5.488,8.397-11.068,13.89-13.352c3.394-1.38,12.604-4.32,17.58-5.55
		c5.341-1.353,5.7-1.74,2.7-2.82c-6.149-2.22-13.649-6.989-19.2-12.21c-0.93-0.87-1.89-1.59-2.13-1.59c-0.271,0-0.51,0.45-0.63,1.17
		c-0.36,2.37-3.63,5.46-6.21,5.88c-4.62,0.78-15-6.84-20.432-15.03c-4.438-6.656-7.801-16.196-7.858-22.17
		c-0.03-2.52,0.061-3.18,0.63-4.196c1.59-3.03,5.04-4.95,8.79-4.95c1.17,0,2.101-0.09,2.101-0.183c0-0.091-0.21-0.96-0.447-1.891
		c-0.961-3.75-2.553-16.05-2.553-19.83c0-1.02-0.118-1.5-0.357-1.438C642.33,484.86,639.51,485.01,636.3,485.13z"/>
	<path id="structure11_label10_EAM" bar:growlevel="0" bar:type="" fill="#FF4100" d="M659.07,463.89
		c-0.604,1.021-3.03,4.894-5.4,8.61c-4.59,7.17-7.439,10.65-9.6,11.61l-1.2,0.54l0.18,2.396c0.57,7.83,1.65,15.54,2.7,19.5
		c1.65,6.33,8.31,19.65,14.52,28.95c8.19,12.33,18.424,20.97,30.36,25.62c3.48,1.38,3.51,1.38,6.3,1.2
		c2.04-0.15,3.57-0.063,5.521,0.33l2.7,0.51l1.05-1.2c3.42-3.9,3.96-4.56,3.84-4.86c-0.06-0.18-1.41-0.84-2.97-1.47
		c-4.92-1.92-10.74-5.188-12.78-7.14c-0.48-0.48-1.98-1.71-3.36-2.79c-10.83-8.37-22.59-24.96-29.696-41.91
		c-1.86-4.44-2.37-6.57-2.73-11.46c-0.45-6.15,0.45-18.24,1.95-26.73c0.24-1.406,0.45-2.79,0.45-3.09
		C660.9,461.49,660.12,462.06,659.07,463.89z"/>
	<path id="structure125_label138_cg" bar:growlevel="0" bar:type="" fill="#3FFF00" d="M619.2,232.26c-2.34,0.33-6,1.53-7.65,2.49
		c-3,1.74-6.81,5.64-9.66,9.9c-0.656,0.99-3.33,5.52-5.938,10.05c-5.37,9.39-8.73,14.64-12.12,18.84
		c-2.49,3.06-5.64,6.21-7.771,7.71c-0.688,0.51-1.26,1.08-1.26,1.26c0,0.69,1.26,0.39,4.144-0.96
		c8.276-3.93,14.816-10.08,22.5-21.15c2.85-4.14,5.88-7.35,8.606-9.21c5.46-3.66,12.09-5.85,20.521-6.72
		c9.93-1.02,33.566,1.17,45.54,4.26c1.83,0.45,7.438,1.74,12.446,2.82c27.54,6.03,38.461,9.66,58.65,19.68
		c4.979,2.46,9.21,4.47,9.39,4.47c0.87,0,0.03-0.99-2.606-3.03c-22.8-17.76-54.84-30.24-95.04-36.99
		C639.36,232.38,626.19,231.24,619.2,232.26z"/>
	<path fill="#610BE5" d="M686.91,346.29c-3.24-3.45-6.24-5.1-14.61-7.89c-12.93-4.35-49.59-17.88-55.646-20.55
		c-3.813-1.68-19.144-9.27-21.66-10.71l-1.26-0.72l0.6-1.2c0.36-0.63,1.29-2.07,2.1-3.21c0.813-1.11,1.474-2.16,1.474-2.34
		c0-0.6-1.53-0.06-11.644,4.05c-9.21,3.75-10.106,4.2-11.79,5.64c-4.438,3.93-13.71,9-22.47,12.36
		c-6.037,2.295-9.104,3.326-11.983,3.326v37.111l5.354-1.077c5.49-1.11,7.74-1.32,8.7-0.81c0.356,0.21,1.83,0.09,4.41-0.27
		c6.6-0.96,11.64-1.29,17.52-1.11c6.78,0.18,10.68,0.84,17.4,2.88c11.816,3.57,13.196,3.78,25.646,3.78
		c9.48,0.03,10.41,0.06,13.354,0.72c4.26,0.9,10.14,2.91,15.18,5.13c6.33,2.82,8.13,3.33,11.521,3.36
		c6.602,0.03,10.858-2.07,23.908-11.76c6.24-4.62,6.69-5.25,6.934-9.15C690.09,350.88,689.28,348.84,686.91,346.29z"/>
	<path id="structure127_label140_st" bar:growlevel="0" bar:type="" fill="#B18EE1" d="M700.35,348.51
		c-0.479,0.24-2.906,2.46-5.396,4.89c-3.394,3.33-6.09,5.61-10.95,9.21c-6.57,4.92-12.78,9.21-13.74,9.51
		c-0.659,0.24-9.21,13.32-9.21,14.13c0,1.14,3.99,1.95,9.75,1.95c4.74-0.03,7.86-0.57,10.684-1.92l2.22-1.05v-1.83
		c0-3.18,1.41-5.46,4.29-6.9c1.17-0.57,2.25-0.9,3.09-0.9c1.229,0,1.38-0.09,2.58-1.74c6-8.13,8.49-12.99,9.06-17.85
		c0.271-1.98-0.63-8.01-1.17-8.01C701.4,348.03,700.86,348.24,700.35,348.51z"/>
	<path id="structure128_label141_ic" bar:growlevel="0" bar:type="" fill="#A500FF" d="M710.67,331.02
		c-1.86,0.54-4.26,1.86-5.79,3.21c-1.74,1.53-2.82,3.66-3.24,6.39c-0.356,2.37-0.3,3.15,0.87,10.08c1.26,7.62-0.6,12.24-10.38,25.32
		c-1.59,2.16-3.688,4.77-4.646,5.79c-3.271,3.54-7.5,5.79-11.764,6.27c-1.59,0.21-1.646,0.24-2.7,1.95
		c-0.986,1.65-1.05,1.86-0.72,2.82c0.42,1.23,1.59,2.25,2.644,2.25c0.39,0,1.856-0.24,3.236-0.51c2.25-0.48,2.644-0.48,3.78-0.09
		c1.771,0.63,2.28,1.62,1.8,3.45c-0.75,2.816-9.75,27.63-13.35,36.78c-1.08,2.729-2.73,7.47-3.66,10.5
		c-0.96,3.026-2.43,7.35-3.3,9.6c-1.65,4.26-2.46,7.56-3.42,14.37c-1.05,7.316-1.354,11.46-1.354,18.6c0,7.26,0.21,9.3,1.354,12.813
		c1.41,4.316,7.35,10.08,13.646,13.229c4.5,2.28,12.843,4.47,15.423,4.11c3.631-0.51,6.147-3.394,10.737-12.15
		c6.21-11.816,8.67-21.09,9.21-34.35c0.57-14.19,2.82-26.46,7.95-43.05c2.79-8.974,6.391-24.304,9.15-38.854
		c3.146-16.59,4.438-22.83,5.396-26.1c1.2-4.11,1.354-6.51,0.604-10.68c-1.53-8.73-7.41-17.85-13.474-20.85
		c-1.89-0.9-2.67-1.14-4.438-1.2C713.01,330.66,711.45,330.78,710.67,331.02z"/>
	<path fill="#97FF59" d="M844.5,443.07c-2.46-21.63-10.26-53.34-17.85-72.57c-7.021-17.79-22.86-43.86-38.7-63.6
		c-7.59-9.48-16.2-18.75-23.94-25.74l-3.87-3.51l-7.979-4.11c-23.04-11.85-35.521-16.11-66.51-22.71
		c-9.094-1.92-14.521-2.43-26.224-2.43c-11.46,0-17.67,0.81-25.89,3.33c-12.271,3.75-23.28,9.6-42.99,22.71
		c-9.63,6.42-11.817,7.56-19.59,10.38c-10.35,3.72-15.96,5.31-23.61,6.66c-2.259,0.408-4.711,0.586-7.334,0.552v21.347
		c4.992-0.005,9.997-0.244,13.638-0.719c7.946-1.05,13.8-2.19,18.42-3.57c2.938-0.87,20.696-7.92,24.93-9.9
		c2.61-1.2,3.09-1.56,5.67-4.32c11.1-11.85,23.1-20.25,34.08-23.91c9.93-3.33,17.31-3.66,28.5-1.38
		c10.65,2.22,22.979,6.57,28.71,10.23c0.78,0.48,2.28,0.9,4.53,1.32c14.34,2.55,35.46,10.41,52.856,19.71
		c12.514,6.66,22.894,13.74,29.82,20.34c4.35,4.14,13.563,15.12,20.19,24.06c20.13,27.12,33.18,58.08,37.736,89.46
		c1.264,8.55,1.563,12.896,1.71,24.45c0.271,20.606-0.39,25.89-4.56,36.3c-3.69,9.24-8.07,17.01-19.771,35.1
		c-3.812,5.88-5.521,9.63-10.771,23.55c-5.13,13.563-7.26,17.94-12.12,24.69c-2.606,3.63-2.52,4.47,0.24,2.43
		c2.04-1.47,5.13-4.89,7.02-7.77c3.42-5.104,6.24-11.67,10.384-24c1.736-5.19,2.816-7.83,5.066-12.3
		c3.33-6.634,7.38-13.29,11.01-18.15c2.82-3.75,3.87-5.79,7.684-14.85c1.41-3.304,3.3-7.713,4.229-9.813
		C845.13,480.93,846.87,463.95,844.5,443.07z"/>
	<path id="structure12_label11_AM" bar:growlevel="0" bar:type="" fill="#CF7900" d="M594.69,422.76
		c-6.424,9.813-12.33,16.65-18.87,21.84c-2.91,2.313-4.92,3.304-6.78,3.304h-1.38l-0.3,1.406c-0.87,3.99-0.66,9.394,0.446,12.844
		c0.87,2.729,2.82,6.479,3.934,7.59c0.66,0.66,2.7,1.89,5.01,3.026c3.84,1.894,3.9,1.894,6,1.771c3.48-0.24,8.28-2.61,14.1-6.99
		c3.78-2.85,13.74-11.7,17.25-15.33c3.184-3.27,6.304-7.26,6.304-8.01c0-0.27-0.45-0.72-0.96-0.99
		c-7.32-3.75-16.771-13.92-20.94-22.526c-0.42-0.87-0.9-1.563-1.08-1.594C597.24,419.1,596.01,420.75,594.69,422.76z"/>
	<path id="structure130_label143_mfb" bar:growlevel="0" bar:type="" fill="#925FDC" d="M636.3,485.13
		c-11.88,0.48-17.67,1.29-27.146,3.9c-8.04,2.188-11.25,2.76-14.28,2.606c-3.604-0.21-5.37-1.71-5.37-4.526
		c0-1.08-0.03-1.11-1.05-1.11h-1.05v1.86c-0.03,1.05-0.24,2.58-0.54,3.39c-0.96,2.76-3.75,7.41-5.67,9.48
		c-1.054,1.076-1.894,2.1-1.894,2.25c0,0.146,0.54,0.866,1.17,1.59l1.144,1.316l1.77-0.869c4.41-2.157,10.143-0.931,17.313,3.659
		l2.04,1.32l1.856-0.271c5.521-0.843,13.29-0.633,19.95,0.567c3.57,0.63,4.35,1.17,4.89,3.12c0.45,1.65,0.15,4.8-0.776,8.25
		c-1.771,6.6-2.94,9.21-8.58,19.38c-4.473,8.07-5.013,9.24-5.37,11.46c-0.15,0.96-0.42,5.37-0.603,9.84
		c-0.181,4.44-0.447,11.61-0.631,15.9c-0.39,9.78-0.986,16.92-1.646,19.05c-1.894,6.3-7.5,13.894-12.934,17.49
		c-4.736,3.149-11.31,5.521-16.8,6.06c-3.96,0.394-6.63-0.986-7.59-3.93c-0.479-1.438-0.21-5.07,0.54-7.5
		c0.479-1.56,0.54-2.28,0.36-4.648c-0.15-1.562-0.33-6.568-0.45-11.158l-0.24-8.313h-5.609h-5.607l-0.183,1.021
		c-0.511,3.18-5.521,13.646-9.181,19.229c-2.7,4.08-6.779,7.65-8.76,7.65c-0.48,0-0.51,0.51-0.51,5.91
		c0.026,5.31-0.184,7.856-0.813,10.316c-0.18,0.75-0.09,0.841,1.41,1.354c1.17,0.39,2.07,0.987,3.42,2.34
		c2.88,2.88,4.352,6.688,4.41,11.31v2.37h1.02c1.354,0,14.132-1.646,20.04-2.58c11.4-1.8,14.764-2.67,24.54-6.448
		c2.94-1.142,5.644-2.068,6.03-2.068c0.87,0,8.4-6.03,14.37-11.49c2.43-2.22,5.068-4.438,5.85-4.89c0.782-0.452,1.95-1.29,2.61-1.83
		c1.95-1.683,6.33-3.66,9.66-4.354c2.369-0.479,3.567-0.566,6.237-0.42c1.83,0.091,3.75,0.271,4.29,0.36
		c1.619,0.3,1.199-0.63-0.777-1.68c-2.644-1.382-4.65-3.304-5.461-5.132c-0.603-1.408-0.631-1.712-0.302-2.788
		c0.302-0.962,0.271-1.23,0-1.32c-2.729-0.93-5.25-3.392-6.147-6.03c-3.063-8.97,8.76-16.77,18.3-12.06
		c1.021,0.51,1.95,0.93,2.04,0.93s0.57-0.9,1.08-1.979c2.58-5.488,8.397-11.068,13.89-13.352c3.394-1.38,12.604-4.32,17.58-5.55
		c5.341-1.353,5.7-1.74,2.7-2.82c-6.149-2.22-13.649-6.989-19.2-12.21c-0.93-0.87-1.89-1.59-2.13-1.59c-0.271,0-0.51,0.45-0.63,1.17
		c-0.36,2.37-3.63,5.46-6.21,5.88c-4.62,0.78-15-6.84-20.432-15.03c-4.438-6.656-7.801-16.196-7.858-22.17
		c-0.03-2.52,0.061-3.18,0.63-4.196c1.59-3.03,5.04-4.95,8.79-4.95c1.17,0,2.101-0.09,2.101-0.183c0-0.091-0.21-0.96-0.447-1.891
		c-0.961-3.75-2.553-16.05-2.553-19.83c0-1.02-0.118-1.5-0.357-1.438C642.33,484.86,639.51,485.01,636.3,485.13z"/>
	<path id="structure133_label147_AD" bar:growlevel="0" bar:type="" fill="#E9C76B" d="M609.3,366.54c0,1.77-2.85,5.31-6.72,8.37
		l-1.44,1.14l-0.06,9.09c-0.03,6.81,0.06,9.06,0.33,9.06c0.688,0,8.85-11.85,11.97-17.4c2.4-4.32,4.08-6.96,5.43-8.61
		c0.724-0.87,1.29-1.71,1.29-1.89c0-0.18-1.946-0.3-5.396-0.3C609.69,366,609.3,366.03,609.3,366.54z"/>
	<path id="structure135_label149_RtSt" bar:growlevel="0" bar:type="" fill="#7B3BED" d="M665.1,374.22
		c-2.369,0.84-2.816,0.9-6.54,0.9h-3.96l-0.656,2.1c-0.813,2.61-0.99,8.91-0.271,10.68c0.72,1.8,1.95,3.6,2.46,3.6
		c0.3,0,1.38-1.17,2.46-2.64c2.644-3.57,10.11-14.88,10.11-15.3C668.7,373.05,667.95,373.17,665.1,374.22z"/>
	<path fill="#7123FA" d="M554.52,361.02c-0.18-0.69-0.3-0.72-2.43-0.72c-1.29,0-4.14,0.39-6.75,0.9
		c-2.313,0.452-4.606,0.846-5.324,0.891v3.609c0.019,0,0.028,0,0.045,0c8.279,0,10.619-0.33,12.779-1.71
		C554.22,363.09,554.79,362.1,554.52,361.02z"/>
	<path id="structure137_label152_IAD" bar:growlevel="0" bar:type="" fill="#D49A00" d="M592.02,410.85
		c-1.47,0.66-1.646,0.934-8.396,11.04c-3.78,5.67-7.89,11.94-9.12,13.86c-2.34,3.66-5.43,7.08-7.32,8.1
		c-1.35,0.724-1.35,1.32-0.06,2.67c0.87,0.934,1.17,1.08,2.396,1.08c1.86,0,2.854-0.446,5.884-2.729
		c6.39-4.8,13.83-13.5,20.22-23.64l1.71-2.7l-1.05-2.67c-0.604-1.44-1.23-3.33-1.41-4.2C594.45,409.86,594.27,409.83,592.02,410.85z
		"/>
	<path id="structure138_label153_PC" bar:growlevel="0" bar:type="" fill="#DF8800" d="M582,410.43c0,0.934-4.38,11.19-7.35,17.224
		c-4.65,9.479-7.44,13.616-10.65,15.81c-1.68,1.11-1.92,1.74-0.66,1.74c1.47,0,4.53-1.71,6.57-3.66c1.92-1.86,2.97-3.33,9.688-13.71
		c1.83-2.85,4.98-7.563,6.934-10.44c1.95-2.85,3.566-5.34,3.566-5.486c0-0.184-0.896-0.304-2.01-0.304c-1.53,0-2.43-0.18-3.63-0.75
		C582.72,410.04,582,409.92,582,410.43z"/>
	<path id="structure139_label154_IG" bar:growlevel="0" bar:type="" fill="#B2FF00" d="M544.65,287.22
		c-1.594,0.72-2.854,2.55-2.854,4.14c0,0.6,0.12,0.6,2.04,0.42c2.104-0.21,7.021-0.99,7.95-1.26c0.75-0.24,0.63-0.78-0.45-1.86
		C549.51,286.92,546.72,286.32,544.65,287.22z"/>
	<path id="structure13_label12_Re" bar:growlevel="0" bar:type="" fill="#FFBA2C" d="M556.2,461.16c-3.75,1.32-7.2,4.229-8.55,7.229
		c-2.131,4.62-3.15,13.894-3.15,28.563c0,12.566,0.42,15.03,2.94,17.31c1.316,1.2,3.116,1.684,5.04,1.32
		c1.526-0.3,13.05-6.09,13.68-6.87c1.59-1.979,2.7-8.43,3.24-18.66c0.18-3.3,0.6-8.488,0.93-11.55c0.81-7.05,0.688-8.85-0.813-12.06
		c-0.656-1.41-1.56-2.764-2.188-3.304C564.51,460.65,559.95,459.84,556.2,461.16z"/>
	<path id="structure140_label155_ANS" bar:growlevel="0" bar:type="" fill="#7447E9" d="M585.15,504.42
		c-1.98,0.63-3.03,1.29-4.264,2.7c-1.5,1.71-2.25,4.02-2.276,7.05c-0.03,2.04,0.06,2.46,0.96,4.141c1.17,2.159,3,4.289,3.72,4.289
		c0.36,0,0.51-0.27,0.51-0.986c0.03-1.38,1.17-4.592,2.4-6.63c0.567-0.962,1.83-2.462,2.76-3.33c2.313-2.132,4.53-3.15,7.32-3.36
		c2.88-0.24,2.88-0.688,0.06-2.04C592.17,504.27,587.85,503.58,585.15,504.42z"/>
	<path id="structure141_label156_MPO" bar:growlevel="0" bar:type="" fill="#FF6A00" d="M550.92,564.36
		c-0.84,0.776-1.74,2.066-2.43,3.479c-1.26,2.644-1.474,4.11-2.61,17.79c-1.229,14.7-1.438,18.75-1.2,23.13l0.21,4.144h0.724
		c2.156,0,5.697-3.184,8.76-7.804c2.04-3.09,5.91-10.77,7.71-15.3c1.8-4.56,1.71-7.8-0.39-13.5c-1.804-4.83-6.063-12.6-7.173-13.02
		C553.29,562.8,552.27,563.13,550.92,564.36z"/>
	<path id="structure143_label160_MeAD" bar:growlevel="0" bar:type="" fill="#FF4900" d="M686.19,605.58
		c-2.91,3.96-5.25,7.8-7.71,12.72c-2.37,4.771-4.684,10.894-4.684,12.36c0.03,0.93,5.91,7.5,7.05,7.77
		c0.99,0.304,3.724-0.146,4.92-0.75c1.804-0.93,2.854-2.816,3.66-6.51c0.33-1.5,0.99-3.51,1.474-4.47
		c1.856-3.66,6.236-8.76,11.88-13.86c2.066-1.83,3.72-3.54,3.72-3.84s-0.48-0.9-1.05-1.35c-2.82-2.131-8.223-3.631-14.37-3.96
		l-3.36-0.184L686.19,605.58z"/>
	<path id="structure144_label161_STMPL" bar:growlevel="0" bar:type="" fill="#A4FF00" d="M606.45,509.58
		c-2.28,0.33-2.854,0.45-2.854,0.688c0,0.12,1.11,1.384,2.49,2.764c4.95,5.1,7.23,10.979,5.43,14.066
		c-1.616,2.82-4.406,3.57-13.646,3.66c-5.521,0.09-6.69,0-8.22-0.45c-3.304-1.02-5.224-2.938-5.73-5.76
		c-0.15-0.87-0.51-1.47-1.35-2.188c-0.63-0.54-1.59-1.65-2.104-2.46c-1.5-2.313-1.947-2.07-2.159,1.26
		c-0.117,1.527-0.538,7.71-0.931,13.74c-0.42,6.026-0.78,12.146-0.84,13.616l-0.09,2.671l1.646,0.569
		c2.79,0.96,8.644,2.01,13.144,2.37c6.72,0.54,16.02-0.479,21.659-2.37c1.561-0.51,1.711-0.66,2.67-2.49
		c0.54-1.05,2.671-4.979,4.711-8.696c4.526-8.25,5.729-10.83,7.14-15.12c1.65-5.13,2.04-7.144,1.92-10.23
		c-0.12-3.96-0.3-4.106-6.39-5.066C620.07,509.7,608.46,509.28,606.45,509.58z"/>
	<path id="structure145_label162_DCl" bar:growlevel="0" bar:type="" fill="#FFDE00" d="M843.36,482.04
		c-0.96,4.38-2.67,9.39-4.83,14.1c-2.13,4.684-4.23,9.724-4.23,10.2c0,0.48,0.36,0.45,2.13-0.12c1.264-0.42,1.71-0.45,2.7-0.146
		c1.32,0.39,3.15,1.856,3.42,2.76c0.24,0.78,0.96,0.72,1.38-0.09c0.75-1.41,1.2-3.87,1.474-8.49c0.146-2.64,0.446-6.57,0.63-8.76
		c0.39-4.65,0.18-7.29-0.96-11.58C844.56,478.02,844.11,478.59,843.36,482.04z"/>
	<path fill="#FFB2DC" d="M543,513.78c-0.39-2.82-1.32-6.69-2.01-8.521c-0.271-0.729-0.627-1.158-0.978-1.258V629.4h0.888V579.06
		c0-43.856,0.06-50.52,0.446-51.96c0.271-0.896,0.604-2.52,0.75-3.6c0.15-1.08,0.48-3.15,0.75-4.62
		C543.27,516.63,543.3,515.79,543,513.78z"/>
	<path id="structure147_label164_lo" bar:growlevel="0" bar:type="" fill="#B8FF00" d="M731.4,657.27
		c-2.7,0.54-3.631,1.264-2.61,2.04c0.18,0.184,6.03,1.08,12.96,2.04c11.82,1.594,15.75,2.313,32.43,5.82
		c3.184,0.66,7.32,1.41,9.24,1.68c9.03,1.17,23.34-0.06,34.891-2.97c7.143-1.8,18.393-5.91,18.393-6.688
		c0-0.211-0.183-0.394-0.42-0.394c-0.57,0-9.87,2.13-15.78,3.604c-11.43,2.85-20.76,4.196-29.01,4.196
		c-6.54,0-11.46-0.868-33.03-5.88c-5.97-1.38-12.03-2.729-13.5-2.97C741.93,657.18,733.38,656.91,731.4,657.27z"/>
	<path id="structure148_label165_cst" bar:growlevel="0" bar:type="" fill="#BCFFB2" d="M689.61,375.93
		c-3.42,0.81-5.91,3.93-5.91,7.44c0,1.53,1.02,1.2,3.146-0.99c2.19-2.22,4.95-5.79,4.95-6.36
		C691.8,375.54,691.29,375.54,689.61,375.93z"/>
	<path id="structure14_label13_VRe" bar:growlevel="0" bar:type="" fill="#FFAB00" d="M570.9,472.44c0,1.438-0.21,4.229-0.45,6.21
		c-0.24,1.979-0.63,7.106-0.9,11.396c-0.54,9-1.02,12.72-2.1,15.9c-0.42,1.26-0.75,2.34-0.75,2.396c0,0.42,1.38-0.06,5.28-1.83
		c4.646-2.156,7.71-4.076,9.479-6.06c1.14-1.26,4.05-6.03,4.86-7.95c1.979-4.83,0.84-9.51-3.69-15.24
		c-1.859-2.34-2.07-2.486-5.55-4.229c-2.01-0.99-4.05-2.13-4.59-2.521c-0.511-0.39-1.08-0.72-1.261-0.72
		C571.02,469.8,570.9,470.76,570.9,472.44z"/>
	<path id="structure152_label168_AVDM" bar:growlevel="0" bar:type="" fill="#FFDFB2" d="M621.6,366c-1.35,0.33-3.39,2.61-5.31,5.91
		c-5.31,9.18-8.58,14.25-13.26,20.64c-1.53,2.07-2.49,3.66-2.61,4.354c-0.78,4.83-2.49,9.116-4.59,11.46
		c-0.66,0.75-1.23,1.59-1.23,1.856c0,1.98,4.23,11.88,5.07,11.88c0.3,0,1.23-1.38,2.55-3.84c2.73-5.01,7.38-12.479,11.73-18.81
		c5.25-7.62,6.239-9.45,7.979-14.55c1.17-3.36,2.974-12.81,2.974-15.45C624.9,366.09,624.21,365.37,621.6,366z"/>
	<path id="structure155_label171_ictd" bar:growlevel="0" bar:type="" fill="#F247DD" d="M638.49,646.2
		c-1.44,0.33-1.894,0.84-1.894,2.066c0,1.83,1.74,3.03,4.354,3.03c2.52,0,4.35-1.2,4.35-2.88c0-1.05-0.566-1.8-1.71-2.25
		C642.75,645.84,639.87,645.87,638.49,646.2z"/>
	<path id="structure159_label175_eml" bar:growlevel="0" bar:type="" fill="#9C6BE9" d="M649.53,381.21
		c-6.184,15.66-11.79,28.53-18.99,43.59c-8.76,18.3-10.44,21.184-15.93,26.88c-3.45,3.63-11.644,11.07-16.11,14.67
		c-5.31,4.29-11.31,7.594-15.09,8.313c-1.11,0.21-2.01,0.479-2.01,0.63s0.81,1.35,1.8,2.67c1.979,2.61,3.03,4.47,3.6,6.45
		c0.394,1.26,0.42,1.29,1.65,1.29c1.2,0,1.26-0.063,1.59-1.141c0.42-1.383,2.31-4.409,4.2-6.659c2.13-2.58,3.54-4.08,11.46-12.45
		c19.47-20.55,22.56-24.3,25.979-31.47c0.87-1.83,3.063-7.054,4.86-11.58c1.83-4.53,5.19-12.78,7.5-18.304
		c5.52-13.26,7.35-18.087,8.64-22.708c0.57-2.1,1.264-4.44,1.53-5.13c0.51-1.47,0.36-1.77-0.96-2.04l-0.9-0.18L649.53,381.21z"/>
	<path fill="#E99659" d="M540.016,500.876v0.943C540.044,501.48,540.045,501.151,540.016,500.876z"/>
	<path id="structure165_label184_sm" bar:growlevel="0" bar:type="" fill="#C19AF6" d="M640.8,508.68
		c-4.8,1.264-7.08,5.07-6.3,10.44c1.44,9.93,6.27,19.95,12.72,26.396c7.11,7.11,13.5,10.2,17.19,8.344
		c2.79-1.44,4.29-3.48,4.29-5.854c0-1.438-0.15-1.71-3.48-5.67c-5.489-6.57-13.47-20.22-17.729-30.39l-1.5-3.604l-1.771-0.06
		C643.26,508.26,641.7,508.44,640.8,508.68z"/>
	<path id="structure168_label201_df" bar:growlevel="0" bar:type="" fill="#CCFFB2" d="M571.2,309.48
		c-3.813,1.2-14.79,3.12-21.45,3.72c-6.87,0.6-6.75,0.6-6.75,1.2c0,0.9,2.46,4.29,3.57,4.92c0.688,0.42,1.526,0.6,2.55,0.57
		c2.188-0.06,10.47-1.77,12.51-2.61c2.49-1.02,6.96-3.54,9.72-5.52C574.77,309.33,574.71,308.37,571.2,309.48z"/>
	<path fill="#B58EE9" d="M604.44,635.85c-0.54,0.12-3.33,1.144-6.24,2.25c-9.87,3.813-13.354,4.684-27,6.724
		c-12.739,1.888-25.238,3.178-31.188,3.18v10.171c1.716-0.001,3.454-0.104,6.194-0.331c8.04-0.66,39.479-4.08,41.34-4.5
		c5.58-1.229,11.67-5.55,15.15-10.739c1.529-2.25,2.67-4.857,2.7-6.091C605.4,635.7,605.34,635.67,604.44,635.85z"/>
	<path id="structure172_label208_PaV" bar:growlevel="0" bar:type="" fill="#FFB776" d="M540.9,560.55
		c0,10.681,0.06,12.75,0.42,12.75c0.896,0,3.06-10.68,3.66-18.146c0.146-1.83,0.09-2.67-0.271-3.514c-0.54-1.29-2.79-3.84-3.39-3.84
		C540.96,547.8,540.9,549.93,540.9,560.55z"/>
	<path id="structure174_Unlabeled-870-536_S1DZ" bar:growlevel="0" bar:type="" fill="#FEFF3B" d="M783.18,214.08
		c-19.08,29.46-34.68,53.73-34.68,53.94c0,0.24,1.05,1.2,2.34,2.16c1.26,0.93,4.021,3.12,6.12,4.83s4.021,3.09,4.26,3.09
		c0.394,0,73.41-105,73.354-105.54c-0.03-0.51-15.48-12.06-16.144-12.06C818.01,160.5,808.47,175.02,783.18,214.08z"/>
	<path id="structure175_label66_Cg2" bar:growlevel="0" bar:type="" fill="#DBDF6B" d="M540.3,241.02c0,28.68,0.09,41.88,0.3,41.88
		c0.184,0,0.631-0.21,1.021-0.45c0.78-0.51,3.479-0.96,3.479-0.57c0,0.15-0.54,0.3-1.196,0.3c-0.66,0.03-1.71,0.33-2.313,0.63
		l-1.14,0.6l-0.09,4.23c-0.063,4.11-0.063,4.26,0.54,4.26c0.328,0,0.6-0.21,0.6-0.45c0-0.66,0.84-2.25,1.62-3.09
		c0.96-1.08,2.25-1.62,3.75-1.62c1.857,0,3.3,0.66,4.77,2.16c1.474,1.53,1.38,1.53,7.86-0.33c17.04-4.89,23.07-10.5,36.3-33.72
		c2.37-4.14,4.892-8.46,5.642-9.6c1.682-2.67,5.068-6.69,6.812-8.16c0.75-0.6,1.35-1.32,1.35-1.59c-0.026-0.3-11.64-6.54-34.05-18.3
		c-18.688-9.81-34.29-17.88-34.62-17.94l-0.63-0.09L540.3,241.02L540.3,241.02z"/>
	<path fill="#FFAA59" d="M548.16,552.66c-0.24-0.394-0.66-0.66-1.08-0.66c-1.29,0-1.68,0.87-2.13,4.98
		c-0.813,6.96-2.16,13.59-3.48,17.036c-0.54,1.474-0.566,2.521-0.566,28.44v26.939h-0.888v4.796c2.063-0.055,3.24-1.596,4.124-5.519
		c0.42-1.8,0.48-4.35,0.514-17.13c0.026-16.53,0.356-21.78,2.696-42.39C548.49,559.29,548.76,553.77,548.16,552.66z"/>
	<path fill="#FFD4B2" d="M546.18,631.08c-1.68-0.811-2.396-0.63-2.97,0.66c-0.783,1.762-1.975,2.638-3.194,2.627v13.391
		c1.492,0.005,2.893-0.021,4.124-0.088c2.25-0.12,5.224-0.3,6.604-0.42l2.46-0.24v-2.066C553.2,638.76,550.32,633.03,546.18,631.08z
		"/>
	<path id="structure180_Unlabeled-2107-816_Unlabeled" bar:growlevel="0" bar:type="" fill="#FFB2BA" d="M629.7,244.5
		c-3.63,0.45-8.313,1.5-11.07,2.46c-7.56,2.67-12.27,6.3-16.89,12.99c-2.76,4.02-5.91,8.13-7.98,10.38
		c-1.59,1.74-1.89,2.37-1.106,2.37c0.236,0,2.486-1.32,5.01-2.94c15.21-9.75,25.05-14.7,35.88-18.03c9.12-2.79,14.88-3.45,29.1-3.27
		c8.461,0.12,10.264,0.09,10.264-0.27c0-0.21-0.12-0.39-0.271-0.39c-0.146,0-2.607-0.39-5.46-0.9c-8.85-1.5-18.93-2.46-27.569-2.55
		C635.4,244.29,630.93,244.35,629.7,244.5z"/>
	<path id="structure182_Unlabeled-2202-1291_Unlabeled" bar:growlevel="0" bar:type="" fill="#FFB2BA" d="M658.29,389.25
		c-1.05,1.38-1.89,2.67-1.89,2.82c0,0.51,3.18,2.73,4.77,3.36c3.09,1.167,6.48,0.48,9.09-1.8c0.604-0.51,1.23-0.93,1.41-0.93
		s0.33-0.21,0.33-0.48s0.42-1.17,0.9-1.98c0.51-0.78,0.896-1.56,0.896-1.71c0-0.12-2.066-0.33-4.56-0.42
		c-2.974-0.09-5.19-0.33-6.24-0.66C660.06,386.55,660.33,386.46,658.29,389.25z"/>
	<path fill="#FFB2BA" d="M562.62,397.62c-0.66-1.32-0.87-2.25-0.96-4.2c-0.09-1.89-0.24-2.52-0.54-2.52
		c-0.604,0-5.55,3.12-7.59,4.74c-0.934,0.75-2.974,2.58-4.53,4.08c-5.013,4.81-7.502,6.688-8.984,6.772v4.732
		c2.747-0.008,5.491-1.461,9.284-4.364c1.38-1.08,2.97-2.104,3.51-2.25c0.634-0.21,0.99-0.514,0.99-0.844c0-0.688,4.62-3,7.5-3.75
		c1.08-0.3,2.01-0.566,2.07-0.6C563.4,399.36,563.1,398.58,562.62,397.62z"/>
	<path id="structure185_Unlabeled-2479-1766_Unlabeled" bar:growlevel="0" bar:type="" fill="#FFB2BA" d="M742.65,529.83
		c-2.61,1.89-6.24,3.66-8.974,4.41c-1.17,0.3-2.158,0.72-2.22,0.93c-0.06,0.21,0.36,0.87,0.93,1.47c2.4,2.46,3.69,7.38,3.42,12.96
		c-0.236,5.49-1.05,7.62-3.356,8.82c-2.55,1.32-11.73,0.93-18.45-0.75c-3.96-0.99-3.9-0.99-3.9-0.51c0,0.21-1.02,1.53-2.25,2.91
		c-2.31,2.58-2.64,3.21-1.71,3.54c3.69,1.229,7.144,3.96,8.343,6.54c2.101,4.56,1.407,11.066-1.713,15.72
		c-1.26,1.89-1.406,2.43-0.72,2.43c0.24,0,2.25-0.54,4.41-1.2c14.61-4.438,27.36-4.59,35.7-0.42c2.729,1.38,2.97,0.9,0.96-1.8
		c-3.03-4.021-6.09-11.64-9.57-23.85c-1.59-5.521-2.188-12.303-1.68-18.184c0.57-6.06,2.28-13.05,3.21-13.05
		c0.24,0,0.42-0.3,0.42-0.75c0-0.42-0.18-0.75-0.36-0.72C744.93,528.33,743.82,529.02,742.65,529.83z"/>
	<path id="structure187_Unlabeled-2316-1984_Unlabeled" bar:growlevel="0" bar:type="" fill="#FFB2BA" d="M694.8,594.63
		c-1.5,0.63-8.88,2.7-10.5,2.97c-0.896,0.15-3.21,0.57-5.1,0.934c-2.7,0.54-4.62,0.66-8.91,0.688c-3.03,0.03-5.49,0.12-5.49,0.24
		c0,0.09,0.271,1.38,0.63,2.85c1.381,5.82-0.026,9.844-4.106,11.79c-0.99,0.45-1.92,0.604-3.724,0.604
		c-3.236,0-3.116,0.479,0.394,1.77c6.54,2.37,10.647,5.13,11.31,7.563c0.36,1.29,0.03,3-0.72,4.02
		c-0.78,1.021-0.57,1.354,0.812,1.354c0.988,0,1.648,0.236,2.552,0.896c1.47,1.051,1.856,1.11,1.856,0.271
		c0-1.41,2.37-7.62,4.684-12.271c3.3-6.566,8.579-14.699,9.6-14.699c0.24,0,0.42-0.237,0.42-0.539c0-0.632,4.83-5.432,6.99-6.961
		c0.779-0.539,1.41-1.171,1.41-1.407C696.9,594.24,695.88,594.21,694.8,594.63z"/>
	<path id="structure1_label0_AHA" bar:growlevel="0" bar:type="" fill="#DF5900" d="M576.18,554.61
		c-0.84,13.979-1.316,38.58-0.87,46.29c0.21,3.566,0.33,4.35,0.724,4.438c0.3,0.063,0.688-0.45,1.2-1.5
		c1.827-3.96,5.25-8.01,9.116-10.8c4.65-3.33,12.604-5.94,18.304-5.97c3.21-0.03,5.188,0.6,6.42,2.01
		c0.51,0.57,1.05,1.02,1.196,1.02c0.604,0,0.724-2.156,1.384-20.55c0.236-6.778,0.54-13.56,0.656-15.09
		c0.21-3.15,0.24-3.12-2.46-2.31c-4.38,1.35-8.696,1.979-14.396,2.156c-7.563,0.21-12.9-0.51-20.434-2.76
		C576.39,551.34,576.36,551.46,576.18,554.61z"/>
	<path id="structure20_label19_SO" bar:growlevel="0" bar:type="" fill="#FF6400" d="M636.24,613.5c-2.974,0.75-6.24,2.22-6.24,2.82
		c0,0.566,0.51,0.6,2.85,0.026c2.344-0.566,6.78-0.566,8.94,0c3.42,0.9,7.17,3.304,11.52,7.474c2.58,2.43,6.394,7.05,7.924,9.566
		c1.076,1.771,1.77,2.19,1.77,1.021c0-1.11,1.26-2.97,2.7-3.99c2.34-1.65,3.24-2.67,3.6-3.96c0.87-3.3-1.646-5.94-8.46-8.85
		c-3.51-1.53-10.106-3.75-12.63-4.29C645.24,612.72,639.15,612.81,636.24,613.5z"/>
	<path id="structure21_label20_ESO" bar:growlevel="0" bar:type="" fill="#5217E1" d="M656.46,596.82
		c-2.01,3.54-6.54,5.729-11.82,5.67H641.7l-0.184,1.02c-0.6,3.271,2.07,6.3,8.04,9.063c7.44,3.51,13.11,2.696,15.604-2.19
		c0.78-1.53,1.02-4.59,0.57-6.81c-0.54-2.644-1.29-4.771-1.65-4.771c-0.69,0-4.021-1.77-5.04-2.67c-0.6-0.51-1.2-0.93-1.38-0.93
		C657.51,595.2,656.94,595.92,656.46,596.82z"/>
	<path fill="#D4AE47" d="M548.04,466.92c-0.394-0.393-4.263-0.658-8.024-0.694v33.824c0.558-0.007,1.065,0.062,2.268,0.201
		l1.83,0.24l0.18-7.771c0.3-11.97,1.35-19.92,3.061-23.79C547.83,467.91,548.13,467.01,548.04,466.92z"/>
	<path fill="#FF9A00" d="M567.18,449.58l0.514-2.25l-0.813-0.93c-0.42-0.514-0.78-1.08-0.78-1.264c0-0.18-0.356-0.236-0.81-0.146
		c-3.96,0.75-4.47,0.776-6.78,0.479c-1.35-0.146-2.91-0.42-3.42-0.6c-1.229-0.393-3.146-2.58-3.688-4.143
		c-0.21-0.688-0.604-1.229-0.844-1.229c-0.236,0-1.078,0.6-1.89,1.32c-2.426,2.186-5.063,3.146-8.654,3.179v22.208
		c3.107,0,6.195,0.098,6.978,0.292l1.26,0.33l1.95-1.92c3.45-3.36,8.25-5.16,11.76-4.44c0.87,0.184,2.43,0.75,3.48,1.29
		c1.02,0.51,1.946,0.87,2.038,0.78s-0.062-1.2-0.302-2.46C566.55,457.14,566.58,452.4,567.18,449.58z"/>
	<path fill="#D4AE47" d="M553.98,404.4c-1.2,0-2.104,0.446-4.74,2.486c-3.15,2.434-4.74,3.33-6.96,3.96
		c-0.772,0.225-1.52,0.339-2.268,0.354v32.346c3.768,0,4.156-0.061,5.744-0.81c0.96-0.45,2.4-1.44,3.21-2.19l1.5-1.41l-0.146-4.26
		c-0.15-3.24-0.063-4.89,0.33-7.08c0.656-3.84,2.52-10.92,4.17-16.14c0.776-2.34,1.38-4.62,1.38-5.04
		C556.2,405.66,554.94,404.4,553.98,404.4z"/>
	<path id="structure25_label25_PT" bar:growlevel="0" bar:type="" fill="#F4D88E" d="M560.1,400.38c-3.3,1.11-6.3,2.76-6.3,3.45
		c0,0.36,0.21,0.57,0.604,0.57c0.93,0,1.8,1.17,1.8,2.396c0,0.604-0.33,2.104-0.78,3.33c-1.11,3.3-2.97,9.87-3.87,13.95
		c-2.49,11.01-0.84,19.5,4.05,20.82c2.04,0.54,5.25,0.236,7.054-0.69c3.026-1.56,6.3-5.58,9.688-11.91
		c3.24-6.06,9.063-19.38,9.57-21.93c0.146-0.75,0-1.08-0.9-2.01c-0.566-0.604-1.47-1.804-2.01-2.67
		c-1.47-2.463-3.12-3.184-9.75-4.32c-2.01-0.33-4.05-0.87-4.59-1.2C563.37,399.42,562.83,399.45,560.1,400.38z"/>
	<path id="structure27_label27_Rt" bar:growlevel="0" bar:type="" fill="#C99300" d="M650.73,387.69
		c-0.724,2.01-3.304,8.46-5.73,14.31s-6.15,14.91-8.25,20.1c-4.17,10.354-6.15,14.61-8.49,18.03c-2.76,4.11-7.856,9.84-21.51,24.271
		c-12.33,12.986-14.4,15.446-16.05,18.96c-0.69,1.406-0.9,2.31-0.9,3.63c0,3.479,1.41,4.56,6,4.5c3.3-0.03,6.271-0.63,14.104-2.79
		c8.729-2.4,15.39-3.33,27.146-3.75c4.29-0.15,5.67-0.3,6.66-0.75c1.62-0.72,3.99-2.94,5.64-5.25c2.28-3.21,9.48-14.61,10.98-17.4
		c1.83-3.42,4.26-9.66,6.27-16.2c0.87-2.816,2.644-7.8,3.9-11.1c2.61-6.69,8.19-21.87,11.25-30.6c2.25-6.36,2.46-7.71,1.38-8.583
		c-0.87-0.72-3.54-0.75-6.27-0.12c-2.25,0.54-3.15,0.27-4.11-1.26c-0.75-1.23-1.17-1.23-2.49-0.06c-0.6,0.54-1.8,1.29-2.7,1.71
		c-5.486,2.521-13.106-2.46-14.46-9.48c-0.21-1.02-0.54-1.86-0.72-1.86S651.45,385.65,650.73,387.69z"/>
	<path id="structure28_label30_AA" bar:growlevel="0" bar:type="" fill="#FF5100" d="M732.3,583.8c-8.58,0.84-18.81,3.75-29.91,8.55
		c-2.01,0.87-4.62,2.224-5.85,3.03c-2.31,1.53-8.04,6.87-8.04,7.47c0,0.45,1.35,0.75,3.271,0.75c4.289,0,10.801,1.894,13.471,3.9
		c0.87,0.66,1.74,1.2,1.95,1.2s1.47-0.84,2.76-1.83c4.2-3.24,7.68-5.37,12.896-7.92c11.7-5.73,22.53-9.24,29.79-9.66
		c1.804-0.12,2.764-0.3,2.764-0.54c0-0.42-4.11-2.58-6.45-3.39C744.66,583.92,737.88,583.29,732.3,583.8z"/>
	<path id="structure29_label31_LOT-1" bar:growlevel="0" bar:type="" fill="#F0FF00" d="M687.39,636.27
		c-1.14,1.384-2.729,2.19-4.646,2.37c-0.87,0.094-1.44,0.271-1.44,0.514c0,0.688,7.92,8.066,10.65,9.93
		c5.46,3.72,9.6,5.28,19.74,7.438c6,1.289,16.38,3,16.617,2.789c0.093-0.116-0.391-1.979-1.051-4.17
		c-2.13-7.02-2.31-9.3-0.96-12.026c0.394-0.78,0.604-1.5,0.48-1.62c-0.12-0.15-5.73-0.33-12.42-0.42
		c-12.813-0.21-13.83-0.303-18.24-1.771c-2.01-0.688-4.92-2.34-6.15-3.479C688.95,634.83,688.5,634.92,687.39,636.27z"/>
	<path id="structure2_label1_STMPM" bar:growlevel="0" bar:type="" fill="#B9FF3B" d="M606.45,509.58
		c-2.28,0.33-2.854,0.45-2.854,0.688c0,0.12,1.11,1.384,2.49,2.764c4.95,5.1,7.23,10.979,5.43,14.066
		c-1.616,2.82-4.406,3.57-13.646,3.66c-5.521,0.09-6.69,0-8.22-0.45c-3.304-1.02-5.224-2.938-5.73-5.76
		c-0.15-0.87-0.51-1.47-1.35-2.188c-0.63-0.54-1.59-1.65-2.104-2.46c-1.5-2.313-1.947-2.07-2.159,1.26
		c-0.117,1.527-0.538,7.71-0.931,13.74c-0.42,6.026-0.78,12.146-0.84,13.616l-0.09,2.671l1.646,0.569
		c2.79,0.96,8.644,2.01,13.144,2.37c6.72,0.54,16.02-0.479,21.659-2.37c1.561-0.51,1.711-0.66,2.67-2.49
		c0.54-1.05,2.671-4.979,4.711-8.696c4.526-8.25,5.729-10.83,7.14-15.12c1.65-5.13,2.04-7.144,1.92-10.23
		c-0.12-3.96-0.3-4.106-6.39-5.066C620.07,509.7,608.46,509.28,606.45,509.58z"/>
	<path id="structure30_label32_LOT-2" bar:growlevel="0" bar:type="" fill="#FAFFB2" d="M716.4,617.73
		c-7.264,0.688-15.604,1.68-18.69,2.25c-2.67,0.446-2.58,0.39-5.31,4.406c-1.771,2.58-2.014,3.21-3.15,8.014l-0.54,2.22l1.23,1.107
		c1.56,1.383,4.71,3.029,7.26,3.813c3.21,0.99,6.78,1.229,18.81,1.38l11.49,0.12l0.96-1.23c0.54-0.688,4.59-5.01,9.03-9.6
		c4.41-4.59,8.01-8.521,8.01-8.729c0-0.328-9-2.852-14.04-3.932C728.61,616.95,723.81,617.01,716.4,617.73z"/>
	<path id="structure31_label33_LOT-3" bar:growlevel="0" bar:type="" fill="#F4FF59" d="M739.5,592.14
		c-8.82,2.94-19.68,7.98-25.2,11.7c-6.66,4.5-17.7,14.22-17.7,15.63c0,0.45,0.36,0.42,5.25-0.27c5.46-0.75,18.21-2.01,22.804-2.25
		c4.08-0.21,5.64,0.06,15.776,2.729l5.58,1.44l0.813-0.87c1.438-1.59,4.35-6.21,5.04-7.92c0.446-1.2,0.688-2.521,0.776-4.563
		c0.12-2.816,0.092-3-1.438-7.56C748.08,590.85,746.58,589.8,739.5,592.14z"/>
	<path id="structure32_text3195_ACo" bar:growlevel="0" bar:type="" fill="#F8FFB2" d="M744.27,623.19
		c-0.93,1.02-4.77,5.04-8.55,8.938c-3.776,3.9-7.08,7.44-7.316,7.891c-0.57,1.079-0.12,1.383,2.157,1.383
		c2.103,0,11.553,0.75,17.189,1.38c8.64,0.93,17.04,2.37,20.94,3.6c1.29,0.42,2.43,0.72,2.486,0.66c0.063-0.09,0.304-1.62,0.54-3.42
		c0.42-3.24,1.17-6.604,2.313-10.29c0.3-1.05,0.566-2.13,0.566-2.46c0-1.563-5.22-4.65-10.35-6.12c-2.31-0.63-16.89-3.45-17.94-3.45
		C746.1,621.3,745.2,622.14,744.27,623.19z"/>
	<path id="structure33_text3197_OlfCx-1" bar:growlevel="0" bar:type="" fill="#E7FF00" d="M726.42,642.96
		c-0.72,1.41-0.78,1.771-0.66,4.41c0.09,2.22,0.394,3.75,1.29,6.688c0.69,2.344,1.29,3.844,1.53,3.844c0.21,0,0.75-0.15,1.229-0.33
		c1.53-0.604,5.854-0.841,9.87-0.54c4.354,0.33,7.86,0.987,21.33,4.14c5.011,1.17,9.45,2.13,9.87,2.13h0.813l-0.21-2.76
		c-0.094-1.5-0.184-5.07-0.184-7.92v-5.19l-1.59-0.566c-5.13-1.92-20.37-4.11-35.85-5.16C726.78,641.22,727.35,641.13,726.42,642.96
		z"/>
	<path id="structure35_label35_BMA" bar:growlevel="0" bar:type="" fill="#FF3800" d="M751.17,589.5c-3.15,0.39-5.37,0.9-5.37,1.29
		c0.03,0.21,0.45,0.63,0.99,0.96c1.56,0.99,2.76,3.24,4.41,8.19c1.739,5.188,2.04,7.196,1.5,9.75c-0.48,2.31-2.61,6.51-4.47,8.85
		c-0.844,1.02-1.53,2.04-1.53,2.28c0,0.27,0.96,0.54,3.09,0.93c7.229,1.23,13.74,2.58,15.75,3.27c4.2,1.44,8.49,3.99,8.91,5.28
		c0.3,0.96,0.84,0.72,2.76-1.29c3.69-3.87,5.07-7.59,5.79-15.66c0.36-4.106,0.03-7.616-0.87-9.39c-0.81-1.59-4.77-5.25-7.979-7.38
		c-3.15-2.1-8.974-4.95-12.304-6.03C757.92,589.29,755.31,589.02,751.17,589.5z"/>
	<path id="structure36_label36_EAC" bar:growlevel="0" bar:type="" fill="#FFC5B2" d="M662.7,506.64c0,0.78,4.35,9.271,7.2,13.98
		c2.906,4.86,6.33,9.688,9.81,13.89c3.271,3.934,9.51,9.99,12.81,12.394c1.474,1.08,3.12,2.366,3.66,2.88
		c1.17,1.08,7.5,4.41,11.07,5.816c6.03,2.4,14.04,3.78,20.49,3.54c6.42-0.21,7.71-1.736,8.066-9.54
		c0.271-5.789-1.076-10.646-3.656-13.196l-1.29-1.264l-2.91,0.394c-3.48,0.42-10.26,0.21-14.7-0.48
		c-7.59-1.17-12.93-5.88-18.479-16.26c-0.721-1.38-1.438-2.49-1.561-2.49c-0.149,0-0.63,0.24-1.05,0.54
		c-2.01,1.41-4.23,1.59-8.16,0.66c-7.89-1.89-14.37-5.22-18.96-9.72C663.24,506.01,662.7,505.74,662.7,506.64z"/>
	<path id="structure37_label40_GP" bar:growlevel="0" bar:type="" fill="#FFF8B2" d="M727.83,381.21
		c-0.72,4.32-3.36,17.58-4.86,24.36c-2.1,9.446-3.566,15.18-5.79,22.56c-5.369,17.79-7.26,27.9-7.979,43.17
		c-0.63,12.99-2.46,20.434-7.682,31.2c-3,6.15-4.858,9.45-6.632,11.61c-0.72,0.87-1.29,1.736-1.29,1.946
		c0,0.57,2.644,5.4,4.354,8.04c0.81,1.23,2.76,3.54,4.318,5.131c4.592,4.563,7.318,5.579,16.712,6.271
		c6.986,0.479,13.71-0.48,18.538-2.67c4.771-2.16,9.722-6.21,14.102-11.55c8.67-10.563,13.77-22.17,15.96-36.33
		c0.78-5.012,0.78-18.75,0.03-24c-3.12-21.184-11.313-41.16-26.224-63.9c-4.59-6.99-12.479-18.12-12.867-18.15
		C728.37,378.9,728.04,379.95,727.83,381.21z"/>
	<path id="structure38_label41_IPAC" bar:growlevel="0" bar:type="" fill="#FFE300" d="M744.03,531.66
		c-2.88,8.7-3.09,20.28-0.48,29.37c5.16,18.06,9.15,25.736,14.61,28.14c3,1.35,10.2,2.01,15.03,1.44
		c2.13-0.271,2.729-0.9,1.17-1.264c-1.29-0.27-3-1.83-3.87-3.566c-1.11-2.13-1.11-4.354-0.03-6.21c1.68-2.854,5.79-5.94,10.53-7.92
		c1.41-0.604,2.01-0.99,1.95-1.32c-0.063-0.271-1.32-0.99-2.94-1.68c-3.78-1.62-5.04-2.28-8.25-4.44
		c-10.56-7.05-19.41-16.26-23.55-24.54c-1.38-2.7-2.7-6.99-2.7-8.7C745.5,529.14,744.75,529.5,744.03,531.66z"/>
	<path id="structure39_label42_I" bar:growlevel="0" bar:type="" fill="#FFC6B2" d="M780.48,571.95
		c-6.634,2.88-10.684,6.87-10.65,10.5c0.03,4.2,2.67,7.05,6.6,7.05c3.42,0,10.44-2.49,11.88-4.23
		c0.184-0.236,0.57-1.229,0.844-2.188c1.106-3.78,0.026-7.44-3.03-10.5C784.11,570.57,783.72,570.51,780.48,571.95z"/>
	<path id="structure3_label2_PaAP" bar:growlevel="0" bar:type="" fill="#FF963B" d="M549.36,527.4c-2.644,0.3-3.304,0.72-6.33,3.93
		l-2.13,2.31v6.604v6.6l1.59,1.683c0.896,0.897,1.856,2.188,2.16,2.881c0.6,1.35,0.75,1.408,1.83,0.688
		c0.72-0.45,0.776-0.45,1.406,0.183c0.604,0.567,0.66,1.021,0.75,4.077c0.094,2.4,0.21,3.45,0.45,3.423c0.21,0,2.22-2.279,4.5-5.013
		c2.28-2.76,5.34-6.39,6.78-8.066c2.88-3.421,4.2-5.46,5.37-8.25c0.659-1.62,0.776-2.344,0.81-5.014v-3.09l-1.14-0.99
		c-1.74-1.5-3.84-1.979-9.21-2.1C553.65,527.19,550.56,527.25,549.36,527.4z"/>
	<path id="structure40_label43_VEn" bar:growlevel="0" bar:type="" fill="#835FBF" d="M813.45,543.21c-0.12,0.3-1.354,3.9-2.76,8.04
		c-2.82,8.34-4.5,12.57-6.48,16.53c-3.21,6.356-7.8,11.97-11.91,14.52c-1.2,0.75-2.88,1.98-3.78,2.761
		c-1.89,1.683-3.06,2.279-6.27,3.329c-5.61,1.83-8.25,2.37-12.66,2.521c-2.88,0.12-4.29,0.27-4.26,0.51c0,0.181,1.32,0.96,2.91,1.74
		c5.31,2.55,10.83,6.6,13.106,9.57c0.604,0.81,1.23,1.47,1.384,1.47c0.146,0,0.93-0.45,1.736-0.99c0.813-0.57,3.12-1.8,5.16-2.79
		c11.79-5.607,15.96-8.67,18.66-13.83c1.56-3,2.01-5.34,2.01-10.83c0-6.989,0.932-14.76,3.15-26.816
		c0.566-3.094,1.05-5.764,1.05-5.91C814.5,542.49,813.69,542.67,813.45,543.21z"/>
	<path id="structure41_label44_CxA-1" bar:growlevel="0" bar:type="" fill="#F7FF59" d="M771.42,654.51c0.12,3.45,0.3,6.9,0.42,7.74
		l0.21,1.47l4.8,0.96c7.83,1.59,11.94,2.04,16.894,1.804c6.566-0.304,15.989-1.62,22.26-3.12c1.979-0.45,2.25-0.604,2.25-1.2
		c0-0.394-1.5-2.76-3.6-5.644l-3.604-4.92l-2.7,0.15c-3.3,0.24-6.96,0.96-11.696,2.4c-12.78,3.81-12.634,3.776-15.33,1.979
		c-0.99-0.66-3.36-2.7-5.341-4.5c-2.103-1.979-3.813-3.33-4.173-3.33C771.21,648.3,771.21,648.39,771.42,654.51z"/>
	<path id="structure42_label45_CxA-2" bar:growlevel="0" bar:type="" fill="#FBFFB2" d="M772.83,638.16
		c-0.75,3.27-1.23,6.51-1.23,8.188c0,1.144,0.15,1.32,3.844,4.684c4.89,4.47,5.367,4.856,6.896,5.67c1.65,0.87,3.18,0.72,8.07-0.78
		c8.188-2.521,11.82-3.479,14.79-3.9c1.74-0.236,3.6-0.51,4.17-0.6l1.02-0.15l-0.21-1.56c-0.12-0.87-0.33-2.97-0.479-4.71
		c-0.15-1.74-0.271-3.18-0.271-3.24c-0.06-0.27-1.47,0.09-3.776,1.021c-3.42,1.35-7.021,2.22-9.184,2.22
		c-3.6,0-12.356-2.82-17.25-5.55c-1.14-0.63-2.76-1.802-3.6-2.61c-0.84-0.78-1.68-1.438-1.86-1.438
		C773.58,635.4,773.16,636.66,772.83,638.16z"/>
	<path id="structure43_label46_CxA-3" bar:growlevel="0" bar:type="" fill="#F1FF00" d="M788.49,601.02
		c-2.104,1.08-4.29,2.313-4.83,2.79c-0.99,0.813-0.99,0.87-0.69,2.19c0.45,1.98,0.394,6.81-0.146,10.44
		c-0.934,6.27-2.49,9.656-6.304,13.438c-2.76,2.79-3.18,4.44-1.56,6.271c2.521,2.906,10.32,6.6,17.16,8.1
		c3.45,0.78,7.62,0.51,10.979-0.69c1.41-0.51,3.45-1.229,4.563-1.616l2.04-0.69v-2.4c0-1.316,0.21-5.156,0.45-8.55
		c0.81-11.28,0.479-18.356-0.962-21.63c-1.262-2.82-7.052-7.29-11.398-8.82C794.31,598.59,792.99,598.77,788.49,601.02z"/>
	<path id="structure44_label47_DEn" bar:growlevel="0" bar:type="" fill="#E0E959" d="M820.8,531.18c-1.5,0.54-1.95,1.054-3.45,3.84
		c-1.526,2.91-1.646,3.304-2.97,9.934c-2.729,13.71-3.87,22.47-3.896,29.85c0,3.934,0.116,5.313,0.536,6.75
		c2.04,6.78,7.08,10.23,13.474,9.184c8.91-1.474,18-10.771,20.52-20.94c0.843-3.39,0.66-7.86-0.479-12.84
		c-2.82-12.271-4.92-17.644-8.13-20.854c-1.594-1.59-1.83-1.71-6.394-3.27C825.45,531.27,822.12,530.67,820.8,531.18z"/>
	<path id="structure45_label48_I" bar:growlevel="0" bar:type="" fill="#FFC6B2" d="M789.03,557.55c-3.69,0.96-4.23,1.354-4.23,3.21
		c0,1.44,0.63,2.07,2.79,2.88c6.42,2.434,9.78,1.17,10.29-3.776c0.18-1.594,0.12-1.83-0.51-2.4
		C796.41,556.53,792.84,556.56,789.03,557.55z"/>
	<path id="structure46_label49_Pir-1" bar:growlevel="0" bar:type="" fill="#C6D400" d="M901.35,556.26
		c-2.13,8.61-6.18,17.82-11.58,26.34c-5.276,8.37-14.88,21.78-21,29.25c-5.606,6.87-18.21,19.2-25.47,24.934
		c-8.67,6.84-19.14,11.85-29.46,14.066c-1.68,0.36-2.34,0.633-2.34,0.961c0,0.271,1.47,2.433,3.27,4.859
		c1.771,2.4,3.424,4.68,3.66,5.04c0.24,0.39,0.63,0.69,0.87,0.69c0.66,0,17.94-4.054,21.063-4.95
		c4.89-1.38,13.316-6.36,20.188-11.88c20.94-16.86,47.91-52.381,57.72-75.99c1.474-3.54,3.9-10.95,4.144-12.63l0.146-1.23
		l-5.64-0.659c-3.12-0.357-7.62-0.987-10.021-1.407c-2.397-0.394-4.438-0.75-4.527-0.75
		C902.279,552.901,901.83,554.43,901.35,556.26z"/>
	<path id="structure47_label50_Pir-2" bar:growlevel="0" bar:type="" fill="#F3FF59" d="M894.21,555.06
		c-14.19,24.724-15.69,26.974-26.94,40.474c-3.656,4.35-8.97,11.01-11.816,14.816c-10.771,14.37-15.604,18.934-24.9,23.521
		c-4.89,2.43-8.22,3.688-15.45,5.88l-5.25,1.56l0.03,3.15c0.03,1.71,0.21,3.9,0.42,4.83l0.33,1.71h1.17
		c1.71,0,8.644-1.86,12.394-3.3c8.729-3.391,16.229-8.19,25.106-16.08c11.973-10.62,18.99-18.45,28.684-31.92
		c14.276-19.83,18.896-28.17,22.5-40.59c0.6-2.014,1.078-4.264,1.106-4.98l0.063-1.35l-2.554-0.511
		c-1.406-0.303-2.64-0.539-2.76-0.569C896.25,551.7,895.29,553.23,894.21,555.06z"/>
	<path id="structure48_label51_Pir-3" bar:growlevel="0" bar:type="" fill="#D8E900" d="M836.94,534.39
		c-1.144,0.33-1.5,0.9-0.724,1.2c0.54,0.21,3,3.93,3.813,5.79c2.58,5.94,5.67,18.54,5.67,23.13c-0.03,9.57-6.72,19.894-15.96,24.54
		c-3.12,1.563-5.34,2.07-8.25,1.894c-4.74-0.304-8.73-3.66-10.41-8.73c-0.3-0.898-0.99-0.57-1.23,0.57
		c-0.93,5.1-5.816,10.35-13.17,14.22c-1.17,0.63-1.946,1.229-1.92,1.47c0.063,0.24,0.813,0.604,1.65,0.813
		c3.96,1.02,10.109,5.13,12.24,8.22c0.446,0.66,1.08,2.22,1.38,3.51c0.93,3.934,0.989,8.04,0.27,19.38
		c-0.356,5.764-0.6,10.53-0.479,10.62c0.21,0.21,9.33-2.52,13.29-3.988c4.14-1.5,10.408-4.562,13.08-6.392
		c6.446-4.35,10.526-8.67,19.438-20.58c2.58-3.479,7.53-9.688,10.98-13.83c11.188-13.38,13.59-16.89,24.3-35.52
		c2.7-4.684,4.857-8.67,4.77-8.854c-0.06-0.18-1.05-0.51-2.157-0.72c-3.659-0.72-14.883-3.54-20.343-5.13
		c-10.736-3.09-21.27-6.66-30.27-10.23c-2.431-0.96-4.53-1.736-4.65-1.736C838.14,534.06,837.54,534.21,836.94,534.39z"/>
	<path id="structure49_label52_VCl" bar:growlevel="0" bar:type="" fill="#8847F2" d="M835.65,506.52
		c-1.44,0.634-2.16,1.65-4.17,5.764c-1.054,2.13-2.644,4.8-3.54,5.97c-2.671,3.42-8.04,11.729-8.04,12.45
		c0,0.146,1.08,0.27,2.396,0.27c2.104,0,2.973,0.184,7.38,1.65c6.75,2.25,8.104,2.22,10.32-0.3c2.4-2.73,3.09-6.21,3.12-15.48
		l0.03-7.08l-0.9-1.29c-0.479-0.688-1.38-1.5-1.95-1.8C839.1,506.01,836.94,505.95,835.65,506.52z"/>
	<path fill="#E99659" d="M540,501.6c0,0.125,0.011,0.229,0.016,0.343v-1.206C540.002,500.947,540,501.229,540,501.6z"/>
	<path fill="#E99659" d="M579.06,503.1c-0.236,0-1.106,0.394-1.89,0.9c-0.81,0.48-4.89,2.46-9.06,4.38
		c-4.144,1.92-9.24,4.354-11.313,5.43c-3.356,1.74-3.93,1.95-5.49,1.95c-2.366-0.026-4.106-1.05-5.276-3.12
		c-1.021-1.8-1.44-3.84-1.71-8.729l-0.21-3.51h-1.382c-0.75,0-1.682-0.094-2.039-0.184c-0.492-0.134-0.637-0.117-0.677,0.517v1.206
		c0.037,0.896,0.211,1.489,0.584,1.971c1.11,1.41,3,8.97,3,11.938c0,1.711-0.93,6.304-1.946,9.724c-0.87,2.97-1.08,7.229-0.33,7.229
		c0.236,0,1.196-0.896,2.158-1.979c2.642-3,3.42-3.36,8.278-3.69c10.021-0.72,15.271,1.26,15.24,5.73c-0.03,3-1.771,7.646-4.11,10.8
		c-0.566,0.78-3.33,4.08-6.12,7.35c-2.816,3.271-5.816,6.87-6.72,8.04c-1.53,2.04-1.62,2.19-1.92,4.8
		c-0.18,1.474-0.33,2.94-0.33,3.21c0,0.844,0.78,0.634,1.2-0.327c0.479-1.229,2.76-3.513,3.688-3.75
		c1.352-0.329,2.222,0.301,3.722,2.577c3.54,5.521,6.449,12.54,7.05,17.224l0.36,2.52h5.46h5.46l0.18-2.188
		c0.09-1.17,0.24-5.553,0.33-9.66c0.24-11.34,1.71-37.8,2.85-51.15c0.15-1.89,0.304-4.89,0.304-6.63c0-3.72,0.656-6.33,2.1-8.188
		c0.51-0.66,0.9-1.383,0.9-1.593C581.4,505.26,579.57,503.1,579.06,503.1z"/>
	<path id="structure50_label53_AIP" bar:growlevel="0" bar:type="" fill="#D8DF00" d="M845.61,500.37
		c-0.24,4.2-0.63,6.24-1.594,8.31c-0.688,1.474-0.72,1.83-0.72,7.95c-0.03,8.82-0.78,12.54-3.146,15.66
		c-0.57,0.75-1.054,1.5-1.054,1.65c0,0.326,8.521,3.656,15.75,6.18c17.644,6.146,37.563,11.22,53.554,13.646
		c5.58,0.844,14.13,1.894,14.276,1.74c0.75-0.75,2.82-18.54,2.82-24.18c0-4.5-0.39-6.69-1.71-10.05c-0.9-2.224-1.11-3.092-1.08-4.74
		v-2.01l-1.38-0.303c-0.75-0.181-17.853-4.171-37.95-8.881c-20.13-4.71-36.81-8.55-37.08-8.55
		C845.85,496.8,845.76,497.31,845.61,500.37z"/>
	<path id="structure51_label54_DI" bar:growlevel="0" bar:type="" fill="#C4C923" d="M845.01,472.92
		c-0.09,0.24-0.27,1.35-0.356,2.46c-0.184,1.74-0.093,2.49,0.6,4.771c0.99,3.356,1.26,7.616,0.78,12.566
		c-0.184,1.95-0.3,3.604-0.271,3.66c0.063,0.03,17.49,4.14,38.73,9.12l38.64,9.03l2.22-1.98c1.2-1.106,2.61-2.606,3.12-3.39
		c1.263-2.01,6.78-18.63,6.302-19.08c-0.182-0.18-88.229-17.58-88.948-17.58C845.46,472.5,845.1,472.68,845.01,472.92z"/>
	<path id="structure52_label55_GI" bar:growlevel="0" bar:type="" fill="#C3C900" d="M845.64,457.11
		c0.063,3.75-0.026,8.64-0.21,10.856c-0.18,2.224-0.3,4.05-0.27,4.11c0.06,0.03,20.01,3.99,44.34,8.819
		c24.33,4.801,44.52,8.817,44.88,8.881c0.57,0.146,0.69-0.12,1.41-2.94c2.52-9.78,5.4-23.25,5.25-24.688l-0.09-0.9l-46.05-5.28
		c-25.32-2.91-46.804-5.37-47.73-5.486l-1.65-0.214L845.64,457.11z"/>
	<path id="structure53_label56_S2" bar:growlevel="0" bar:type="" fill="#E6E98E" d="M887.64,372.87
		c-30.656,6.06-55.8,11.1-55.89,11.19s0.51,2.4,1.35,5.16c5.644,18.69,10.144,40.23,11.854,56.4c0.24,2.49,0.479,4.5,0.54,4.53
		c0.026,0.026,21.06,2.43,46.71,5.366c25.646,2.94,47.22,5.4,47.88,5.49l1.26,0.15l0.33-1.5c1.142-5.37,3.45-24.271,4.23-34.563
		c1.47-19.59,1.106-41.879-0.934-60.24c-0.33-2.82-0.39-3.06-0.988-3.03C943.65,361.86,918.27,366.81,887.64,372.87z"/>
	<path id="structure54_label57_CPu" bar:growlevel="0" bar:type="" fill="#FFEC00" d="M697.2,281.49c0,0.24,1.316,1.41,2.938,2.67
		c3.33,2.58,6.54,5.46,6.99,6.33c0.3,0.51,0.09,0.81-1.438,2.28c-4.95,4.71-7.95,10.95-8.82,18.36c-0.69,6.09,0.09,16.59,1.83,23.88
		c1.29,5.43,1.856,7.29,2.28,7.29c0.27,0,0.42-0.33,0.42-0.84c0-1.23,0.84-3.87,1.619-5.13c2.25-3.54,6.897-5.88,11.221-5.7
		c3.27,0.15,5.76,1.41,8.76,4.44c5.28,5.31,8.79,12.63,9.63,20.13c0.36,3.15,0.24,4.2-1.05,8.55c-0.45,1.47-1.35,5.31-2.01,8.52
		c-1.08,5.37-1.144,5.88-0.724,6.54c0.271,0.36,3,4.29,6.094,8.73c9.356,13.35,14.579,21.99,20.04,33.21
		c7.196,14.79,11.31,28.29,13.076,42.9c0.54,4.59,0.45,15.446-0.18,19.946c-2.22,16.2-8.91,30.45-19.32,41.16
		c-2.76,2.854-2.88,3-3,4.53c-0.326,4.229,2.434,11.13,6.724,16.89c4.95,6.604,13.438,14.28,20.91,18.9
		c2.55,1.59,3.51,2.07,7.827,3.99c5.609,2.52,8.673,6.63,8.643,11.64c0,1.68,0.09,2.19,0.39,2.19c0.48,0,3.271-3.604,5.61-7.23
		c3.688-5.7,5.22-9.06,10.29-22.47c5.67-15,6.356-16.38,13.05-26.7c12.6-19.35,18.96-32.58,20.82-43.2
		c0.236-1.41,0.6-6.12,0.81-10.5c1.41-31.35-3.359-58.08-15.42-86.25c-8.729-20.43-20.07-37.98-37.95-58.74
		c-4.92-5.73-8.55-9.12-14.67-13.68c-18.45-13.77-48.569-27.48-70.95-32.28C697.59,280.98,697.2,280.95,697.2,281.49z
		 M796.47,556.83c1.17,0.42,1.53,1.05,1.53,2.729c0,1.711-1.08,3.78-2.4,4.684c-0.93,0.63-1.29,0.688-3.146,0.566
		c-4.38-0.3-7.95-2.1-7.95-3.96c0-1.856,1.38-2.76,5.79-3.75C793.17,556.47,795.12,556.38,796.47,556.83z"/>
	<path id="structure55_label58_S1ULp" bar:growlevel="0" bar:type="" fill="#FDFF76" d="M877.59,334.89
		C847.02,348.3,822,359.37,822,359.49c0,0.15,0.78,1.95,1.77,4.05c1.98,4.29,4.474,10.65,6.394,16.32
		c0.897,2.64,1.438,3.84,1.74,3.84c0.236,0,25.616-4.98,56.396-11.04l55.95-11.04l-0.06-2.1c-0.184-6.24-4.563-28.65-8.04-41.1
		c-1.95-6.93-2.28-7.92-2.644-7.92C933.3,310.53,908.13,321.48,877.59,334.89z"/>
	<path id="structure56_label59_S1BF" bar:growlevel="0" bar:type="" fill="#FEFF00" d="M798.15,225.51
		c-19.95,28.8-36.33,52.56-36.394,52.771c-0.06,0.21,3.604,4.05,8.13,8.58c10.563,10.53,17.4,18.51,26.224,30.63
		c8.46,11.61,18.446,27.66,23.76,38.25c0.84,1.71,1.71,3.15,1.92,3.24c0.36,0.12,111.09-48.24,111.6-48.75
		c0.304-0.3-1.02-4.71-3.39-11.28c-16.35-45.27-43.71-83.91-82.14-116.04c-6.66-5.55-12.24-9.81-12.844-9.81
		C834.6,173.1,824.34,187.68,798.15,225.51z"/>
	<path id="structure57_label60_S1FL" bar:growlevel="0" bar:type="" fill="#FEFFB2" d="M734.85,124.26
		c-0.42,1.2-30.146,122.19-30.06,122.43c0.03,0.15,2.04,0.99,4.41,1.86c13.47,4.89,25.856,10.98,35.79,17.61
		c1.438,0.96,2.79,1.74,3,1.71c0.42,0,69.6-106.83,69.75-107.67c0.18-0.99-13.474-9.72-23.974-15.36
		c-16.316-8.76-35.156-15.78-52.8-19.74C734.85,123.75,735.03,123.78,734.85,124.26z"/>
	<path id="structure58_label61_S1HL" bar:growlevel="0" bar:type="" fill="#D3D43B" d="M654.9,117.78c0,0.09-1.563,26.1-3.45,57.81
		c-1.92,31.68-3.42,57.75-3.36,57.93c0.09,0.18,2.22,0.63,4.74,1.02c15.39,2.31,31.8,6.03,44.82,10.11
		c2.97,0.96,5.729,1.77,6.146,1.86l0.75,0.12l15.12-61.35c8.34-33.75,15.09-61.44,15-61.5c-0.21-0.18-12.99-2.22-17.97-2.88
		c-11.28-1.44-24.12-2.46-37.8-3C670.35,117.57,654.9,117.48,654.9,117.78z"/>
	<path id="structure59_label62_LV" bar:growlevel="0" bar:type="" fill="#FF005D" d="M647.85,268.68
		c-0.33,0.09-2.066,0.42-3.896,0.78c-8.313,1.56-16.71,5.28-24.271,10.68c-5.88,4.23-16.02,13.65-20.88,19.41
		c-2.13,2.52-4.5,6-4.5,6.6c0,0.42,14.011,7.59,20.854,10.68c5.01,2.25,9.026,3.81,26.1,10.08c14.01,5.16,24.09,8.76,31.29,11.22
		c6.75,2.31,8.22,2.97,11.4,5.16c5.01,3.45,6.96,7.26,6.236,12.12c-0.21,1.41-0.18,1.59,0.303,1.59c0.328,0,2.397-1.89,4.771-4.29
		c2.94-3.03,4.53-4.44,5.34-4.74c1.32-0.48,1.32-0.48-0.09-4.92c-2.79-8.67-4.229-17.46-4.229-25.95c0-7.53,0.812-11.49,3.358-16.62
		c1.41-2.85,3.63-5.88,5.67-7.8c0.813-0.78,1.5-1.56,1.5-1.77c0-1.14-8.43-8.1-13.41-11.07c-6.896-4.11-19.946-8.49-31.14-10.47
		C658.8,268.77,649.35,268.32,647.85,268.68z"/>
	<path id="structure5_label4_SPa" bar:growlevel="0" bar:type="" fill="#FFD9B2" d="M636.3,485.13
		c-11.88,0.48-17.67,1.29-27.146,3.9c-8.04,2.188-11.25,2.76-14.28,2.606c-3.604-0.21-5.37-1.71-5.37-4.526
		c0-1.08-0.03-1.11-1.05-1.11h-1.05v1.86c-0.03,1.05-0.24,2.58-0.54,3.39c-0.96,2.76-3.75,7.41-5.67,9.48
		c-1.054,1.076-1.894,2.1-1.894,2.25c0,0.146,0.54,0.866,1.17,1.59l1.144,1.316l1.77-0.869c4.41-2.157,10.143-0.931,17.313,3.659
		l2.04,1.32l1.856-0.271c5.521-0.843,13.29-0.633,19.95,0.567c3.57,0.63,4.35,1.17,4.89,3.12c0.45,1.65,0.15,4.8-0.776,8.25
		c-1.771,6.6-2.94,9.21-8.58,19.38c-4.473,8.07-5.013,9.24-5.37,11.46c-0.15,0.96-0.42,5.37-0.603,9.84
		c-0.181,4.44-0.447,11.61-0.631,15.9c-0.39,9.78-0.986,16.92-1.646,19.05c-1.894,6.3-7.5,13.894-12.934,17.49
		c-4.736,3.149-11.31,5.521-16.8,6.06c-3.96,0.394-6.63-0.986-7.59-3.93c-0.479-1.438-0.21-5.07,0.54-7.5
		c0.479-1.56,0.54-2.28,0.36-4.648c-0.15-1.562-0.33-6.568-0.45-11.158l-0.24-8.313h-5.609h-5.607l-0.183,1.021
		c-0.511,3.18-5.521,13.646-9.181,19.229c-2.7,4.08-6.779,7.65-8.76,7.65c-0.48,0-0.51,0.51-0.51,5.91
		c0.026,5.31-0.184,7.856-0.813,10.316c-0.18,0.75-0.09,0.841,1.41,1.354c1.17,0.39,2.07,0.987,3.42,2.34
		c2.88,2.88,4.352,6.688,4.41,11.31v2.37h1.02c1.354,0,14.132-1.646,20.04-2.58c11.4-1.8,14.764-2.67,24.54-6.448
		c2.94-1.142,5.644-2.068,6.03-2.068c0.87,0,8.4-6.03,14.37-11.49c2.43-2.22,5.068-4.438,5.85-4.89c0.782-0.452,1.95-1.29,2.61-1.83
		c1.95-1.683,6.33-3.66,9.66-4.354c2.369-0.479,3.567-0.566,6.237-0.42c1.83,0.091,3.75,0.271,4.29,0.36
		c1.619,0.3,1.199-0.63-0.777-1.68c-2.644-1.382-4.65-3.304-5.461-5.132c-0.603-1.408-0.631-1.712-0.302-2.788
		c0.302-0.962,0.271-1.23,0-1.32c-2.729-0.93-5.25-3.392-6.147-6.03c-3.063-8.97,8.76-16.77,18.3-12.06
		c1.021,0.51,1.95,0.93,2.04,0.93s0.57-0.9,1.08-1.979c2.58-5.488,8.397-11.068,13.89-13.352c3.394-1.38,12.604-4.32,17.58-5.55
		c5.341-1.353,5.7-1.74,2.7-2.82c-6.149-2.22-13.649-6.989-19.2-12.21c-0.93-0.87-1.89-1.59-2.13-1.59c-0.271,0-0.51,0.45-0.63,1.17
		c-0.36,2.37-3.63,5.46-6.21,5.88c-4.62,0.78-15-6.84-20.432-15.03c-4.438-6.656-7.801-16.196-7.858-22.17
		c-0.03-2.52,0.061-3.18,0.63-4.196c1.59-3.03,5.04-4.95,8.79-4.95c1.17,0,2.101-0.09,2.101-0.183c0-0.091-0.21-0.96-0.447-1.891
		c-0.961-3.75-2.553-16.05-2.553-19.83c0-1.02-0.118-1.5-0.357-1.438C642.33,484.86,639.51,485.01,636.3,485.13z"/>
	<path id="structure60_label63_M1" bar:growlevel="0" bar:type="" fill="#FBFF8E" d="M640.65,117.93
		c-16.2,0.6-34.354,2.25-34.354,3.06c0,0.18,3.78,24.96,8.4,55.11c4.62,30.12,8.396,54.93,8.396,55.14c0,0.24,0.69,0.36,2.19,0.36
		c3.359,0,10.02,0.57,16.38,1.38c3.21,0.39,5.88,0.66,5.97,0.57c0.184-0.18,6.934-111.24,6.96-114.24v-1.71l-3.96,0.06
		C648.45,117.66,643.95,117.81,640.65,117.93z"/>
	<path id="structure61_label64_M2" bar:growlevel="0" bar:type="" fill="#E2E923" d="M598.8,122.07
		c-12.688,2.61-23.188,6.21-30.87,10.53c-1.5,0.84-2.729,1.74-2.729,1.98c0,0.33,49.856,97.71,50.279,98.19
		c0.061,0.06,1.171-0.12,2.521-0.39c1.32-0.27,3.03-0.48,3.75-0.48c0.75,0,1.35-0.09,1.35-0.24c-0.026-0.12-3.84-25.05-8.486-55.41
		l-8.49-55.2l-0.87-0.06C604.74,120.96,601.86,121.44,598.8,122.07z"/>
	<path id="structure62_label65_Cg1" bar:growlevel="0" bar:type="" fill="#F1F48E" d="M562.05,136.38
		c-8.76,6.75-15.51,17.88-18.896,31.14c-2.134,8.37-2.94,15.57-2.79,25.05l0.09,6.12l34.646,18.24
		c19.054,10.02,34.83,18.24,35.04,18.24c0.66,0.03,5.16-2.22,5.104-2.55c-0.063-0.15-11.34-22.2-25.11-48.96
		C568.8,142.14,565.02,135,564.48,135C564.15,135,563.04,135.63,562.05,136.38z"/>
	<path fill="#69FF00" d="M844.5,443.07c-2.46-21.63-10.26-53.34-17.85-72.57c-7.021-17.79-22.86-43.86-38.7-63.6
		c-7.59-9.48-16.2-18.75-23.94-25.74l-3.87-3.51l-7.979-4.11c-23.04-11.85-35.521-16.11-66.51-22.71
		c-9.094-1.92-14.521-2.43-26.224-2.43c-11.46,0-17.67,0.81-25.89,3.33c-12.271,3.75-23.28,9.6-42.99,22.71
		c-9.63,6.42-11.817,7.56-19.59,10.38c-10.35,3.72-15.96,5.31-23.61,6.66c-2.259,0.408-4.711,0.586-7.334,0.552v21.347
		c4.992-0.005,9.997-0.244,13.638-0.719c7.946-1.05,13.8-2.19,18.42-3.57c2.938-0.87,20.696-7.92,24.93-9.9
		c2.61-1.2,3.09-1.56,5.67-4.32c11.1-11.85,23.1-20.25,34.08-23.91c9.93-3.33,17.31-3.66,28.5-1.38
		c10.65,2.22,22.979,6.57,28.71,10.23c0.78,0.48,2.28,0.9,4.53,1.32c14.34,2.55,35.46,10.41,52.856,19.71
		c12.514,6.66,22.894,13.74,29.82,20.34c4.35,4.14,13.563,15.12,20.19,24.06c20.13,27.12,33.18,58.08,37.736,89.46
		c1.264,8.55,1.563,12.896,1.71,24.45c0.271,20.606-0.39,25.89-4.56,36.3c-3.69,9.24-8.07,17.01-19.771,35.1
		c-3.812,5.88-5.521,9.63-10.771,23.55c-5.13,13.563-7.26,17.94-12.12,24.69c-2.606,3.63-2.52,4.47,0.24,2.43
		c2.04-1.47,5.13-4.89,7.02-7.77c3.42-5.104,6.24-11.67,10.384-24c1.736-5.19,2.816-7.83,5.066-12.3
		c3.33-6.634,7.38-13.29,11.01-18.15c2.82-3.75,3.87-5.79,7.684-14.85c1.41-3.304,3.3-7.713,4.229-9.813
		C845.13,480.93,846.87,463.95,844.5,443.07z"/>
	<path fill="#A682E1" d="M552.6,319.53c-2.156,0.39-4.02,0.57-4.646,0.45c-1.47-0.27-2.94-1.68-4.38-4.11l-1.23-2.07h-2.323v11.295
		c0.521,0.007,1.021-0.058,1.693-0.195c4.41-0.9,15.09-4.86,15.09-5.58C556.8,318.78,556.86,318.78,552.6,319.53z"/>
	<path fill="#4AFF00" d="M686.91,346.29c-3.24-3.45-6.24-5.1-14.61-7.89c-12.93-4.35-49.59-17.88-55.646-20.55
		c-3.813-1.68-19.144-9.27-21.66-10.71l-1.26-0.72l0.6-1.2c0.36-0.63,1.29-2.07,2.1-3.21c0.813-1.11,1.474-2.16,1.474-2.34
		c0-0.6-1.53-0.06-11.644,4.05c-9.21,3.75-10.106,4.2-11.79,5.64c-4.438,3.93-13.71,9-22.47,12.36
		c-6.037,2.295-9.104,3.326-11.983,3.326v37.111l5.354-1.077c5.49-1.11,7.74-1.32,8.7-0.81c0.356,0.21,1.83,0.09,4.41-0.27
		c6.6-0.96,11.64-1.29,17.52-1.11c6.78,0.18,10.68,0.84,17.4,2.88c11.816,3.57,13.196,3.78,25.646,3.78
		c9.48,0.03,10.41,0.06,13.354,0.72c4.26,0.9,10.14,2.91,15.18,5.13c6.33,2.82,8.13,3.33,11.521,3.36
		c6.602,0.03,10.858-2.07,23.908-11.76c6.24-4.62,6.69-5.25,6.934-9.15C690.09,350.88,689.28,348.84,686.91,346.29z"/>
	<path fill="#FF59B8" d="M608.4,365.7c-1.5,0-8.37-1.59-13.11-3.03c-6.72-2.04-10.979-2.88-16.68-3.33
		c-5.13-0.39-12.12-0.06-18.514,0.81c-5.276,0.72-5.01,0.63-5.22,1.8c-0.39,2.04-3.51,3.63-8.13,4.08
		c-1.737,0.159-4.229,0.241-6.734,0.243v40.22c1.523-0.072,3.69-1.743,9.646-7.403c7.646-7.2,17.82-12.63,29.22-15.54
		c9.9-2.55,16.08-4.53,19.44-6.21c2.159-1.08,6.566-4.53,8.25-6.42c1.26-1.44,2.04-2.85,2.31-4.29
		C609.06,365.82,609,365.7,608.4,365.7z"/>
	<path fill="#610BE5" d="M686.91,346.29c-3.24-3.45-6.24-5.1-14.61-7.89c-12.93-4.35-49.59-17.88-55.646-20.55
		c-3.813-1.68-19.144-9.27-21.66-10.71l-1.26-0.72l0.6-1.2c0.36-0.63,1.29-2.07,2.1-3.21c0.813-1.11,1.474-2.16,1.474-2.34
		c0-0.6-1.53-0.06-11.644,4.05c-9.21,3.75-10.106,4.2-11.79,5.64c-4.438,3.93-13.71,9-22.47,12.36
		c-6.037,2.295-9.104,3.326-11.983,3.326v37.111l5.354-1.077c5.49-1.11,7.74-1.32,8.7-0.81c0.356,0.21,1.83,0.09,4.41-0.27
		c6.6-0.96,11.64-1.29,17.52-1.11c6.78,0.18,10.68,0.84,17.4,2.88c11.816,3.57,13.196,3.78,25.646,3.78
		c9.48,0.03,10.41,0.06,13.354,0.72c4.26,0.9,10.14,2.91,15.18,5.13c6.33,2.82,8.13,3.33,11.521,3.36
		c6.602,0.03,10.858-2.07,23.908-11.76c6.24-4.62,6.69-5.25,6.934-9.15C690.09,350.88,689.28,348.84,686.91,346.29z"/>
	<path id="structure6_label5_LA" bar:growlevel="0" bar:type="" fill="#CAB2FF" d="M600.27,587.55
		c-11.396,2.13-19.47,8.104-23.43,17.313c-2.34,5.43-3.146,10.77-1.95,13.02c1.23,2.34,3.184,3.063,7.563,2.7
		c5.01-0.36,10.62-2.25,15.18-5.04c7.86-4.83,14.67-15.24,14.67-22.38c0-2.91-0.63-4.05-2.85-5.16
		C607.62,587.1,603.72,586.89,600.27,587.55z"/>
	<path fill="#97FF59" d="M844.5,443.07c-2.46-21.63-10.26-53.34-17.85-72.57c-7.021-17.79-22.86-43.86-38.7-63.6
		c-7.59-9.48-16.2-18.75-23.94-25.74l-3.87-3.51l-7.979-4.11c-23.04-11.85-35.521-16.11-66.51-22.71
		c-9.094-1.92-14.521-2.43-26.224-2.43c-11.46,0-17.67,0.81-25.89,3.33c-12.271,3.75-23.28,9.6-42.99,22.71
		c-9.63,6.42-11.817,7.56-19.59,10.38c-10.35,3.72-15.96,5.31-23.61,6.66c-2.259,0.408-4.711,0.586-7.334,0.552v21.347
		c4.992-0.005,9.997-0.244,13.638-0.719c7.946-1.05,13.8-2.19,18.42-3.57c2.938-0.87,20.696-7.92,24.93-9.9
		c2.61-1.2,3.09-1.56,5.67-4.32c11.1-11.85,23.1-20.25,34.08-23.91c9.93-3.33,17.31-3.66,28.5-1.38
		c10.65,2.22,22.979,6.57,28.71,10.23c0.78,0.48,2.28,0.9,4.53,1.32c14.34,2.55,35.46,10.41,52.856,19.71
		c12.514,6.66,22.894,13.74,29.82,20.34c4.35,4.14,13.563,15.12,20.19,24.06c20.13,27.12,33.18,58.08,37.736,89.46
		c1.264,8.55,1.563,12.896,1.71,24.45c0.271,20.606-0.39,25.89-4.56,36.3c-3.69,9.24-8.07,17.01-19.771,35.1
		c-3.812,5.88-5.521,9.63-10.771,23.55c-5.13,13.563-7.26,17.94-12.12,24.69c-2.606,3.63-2.52,4.47,0.24,2.43
		c2.04-1.47,5.13-4.89,7.02-7.77c3.42-5.104,6.24-11.67,10.384-24c1.736-5.19,2.816-7.83,5.066-12.3
		c3.33-6.634,7.38-13.29,11.01-18.15c2.82-3.75,3.87-5.79,7.684-14.85c1.41-3.304,3.3-7.713,4.229-9.813
		C845.13,480.93,846.87,463.95,844.5,443.07z"/>
	<path id="structure7_label6_VLH" bar:growlevel="0" bar:type="" fill="#5717BF" d="M642.69,583.53
		c-2.554,0.81-5.28,2.938-6.66,5.188c-1.021,1.65-1.08,1.95-1.08,4.2c0,1.98,0.146,2.73,0.78,4.11c1.616,3.42,4.106,5.01,8.25,5.276
		c5.76,0.394,11.366-2.396,12.896-6.39c0.48-1.26,0.48-1.32-0.33-3.03c-0.688-1.409-0.87-2.276-0.99-4.68
		c-0.146-2.82-0.18-2.94-1.02-3.57C652.05,582.9,646.38,582.36,642.69,583.53z"/>
	<path id="structure83_label91_opt" bar:growlevel="0" bar:type="" fill="#9653F6" d="M634.65,616.08
		c-6.03,0.99-9.66,2.82-14.49,7.38c-3.75,3.54-8.58,7.68-11.854,10.14c-2.22,1.684-2.606,2.104-2.76,3.063
		c-0.27,1.59-1.95,4.89-3.566,7.05c-2.434,3.21-6.063,6.21-9.57,7.92c-1.41,0.69-1.892,1.47-0.87,1.47c1.32,0,12-1.68,24-3.72
		c22.41-3.87,22.71-3.896,32.01-3.93c9.184-0.03,10.5-0.24,12.66-2.07c1.47-1.29,2.19-2.91,2.4-5.58l0.146-1.95l-2.1-3.146
		c-5.13-7.62-12.57-14.313-17.7-15.9C640.98,616.17,636.51,615.78,634.65,616.08z"/>
	<path id="structure84_label92_f" bar:growlevel="0" bar:type="" fill="#54FF00" d="M593.34,508.89
		c-3.27,1.23-6.09,3.934-7.856,7.53c-2.764,5.67-1.86,10.98,2.22,13.08c2.31,1.2,7.74,1.5,15.87,0.9c4.526-0.33,6.63-1.17,7.77-3.15
		c1.05-1.83,0.813-4.83-0.63-7.74c-2.188-4.438-5.64-8.13-9.21-9.896c-1.65-0.813-2.31-0.96-4.5-1.051
		C595.41,508.53,594.03,508.65,593.34,508.89z"/>
	<path id="structure85_label93_SM" bar:growlevel="0" bar:type="" fill="#5600ED" d="M640.8,508.68c-4.8,1.264-7.08,5.07-6.3,10.44
		c1.44,9.93,6.27,19.95,12.72,26.396c7.11,7.11,13.5,10.2,17.19,8.344c2.79-1.44,4.29-3.48,4.29-5.854c0-1.438-0.15-1.71-3.48-5.67
		c-5.489-6.57-13.47-20.22-17.729-30.39l-1.5-3.604l-1.771-0.06C643.26,508.26,641.7,508.44,640.8,508.68z"/>
	<path id="structure89_label97_sm" bar:growlevel="0" bar:type="" fill="#C19AF6" d="M599.28,377.25
		c-1.62,1.23-10.2,4.08-18.604,6.18c-6.84,1.71-9.658,2.7-14.486,5.04c-4.144,2.04-4.264,2.1-4.474,3.18
		c-0.51,2.79,0.813,6.99,2.58,8.25c0.54,0.39,1.92,0.81,3.511,1.08c4.143,0.688,7.649,1.59,8.939,2.31
		c0.75,0.42,1.65,1.38,2.43,2.55c1.684,2.58,2.974,3.84,4.83,4.74c4.41,2.188,10.08,0.51,12.934-3.78
		c0.688-1.02,1.59-2.938,2.01-4.26c1.47-4.62,1.71-6.72,1.857-16.53c0.149-8.82,0.119-9.21-0.391-9.21
		C600.09,376.8,599.58,377.01,599.28,377.25z"/>
	<path id="structure8_label7_HDB" bar:growlevel="0" bar:type="" fill="#83E900" d="M666.69,571.77
		c-3.99,2.674-8.19,7.354-9.9,10.98c-0.78,1.65-0.84,2.07-0.84,5.4c0,3.479,0.03,3.656,0.93,5.25c1.65,2.938,4.86,4.946,9.12,5.76
		c3.09,0.57,15.81-0.48,16.71-1.38c0.39-0.394,0.479-7.23,0.12-9.271c-1.26-7.229-5.67-14.188-10.891-17.16
		C670.05,570.27,668.82,570.36,666.69,571.77z"/>
	<path id="structure92_label100_AVVL" bar:growlevel="0" bar:type="" fill="#FF9800" d="M624.72,366.36
		c0.724,2.46,0.09,8.1-1.646,15c-1.592,6.33-3,9.09-9.934,19.44c-3.026,4.53-6.479,9.87-7.646,11.854
		c-2.79,4.68-5.49,9.84-5.49,10.406c0,0.634,3.54,5.854,5.82,8.61c2.46,2.97,5.88,6.18,8.88,8.4c2.938,2.188,5.607,3.72,6.09,3.54
		c0.63-0.271,6.51-11.94,13.32-26.46c6.12-13.11,17.79-41.22,17.79-42.9c0-0.51-0.75-0.96-3.96-2.37
		c-7.62-3.36-15.271-5.55-21.063-6.03C624.51,365.67,624.51,365.67,624.72,366.36z"/>
	<path id="structure9_label8_MCPO" bar:growlevel="0" bar:type="" fill="#E99159" d="M692.61,563.13
		c-7.83,1.68-22.11,6.18-22.11,6.96c0,0.21,0.63,0.69,1.41,1.11c3.33,1.74,7.59,7.08,9.39,11.729c1.563,4.08,1.92,6.03,1.92,10.53
		v4.14h0.813c1.77,0,14.37-3.96,21.896-6.866c3.934-1.53,5.224-2.434,6.813-4.804c3.146-4.71,3.87-11.188,1.739-15.776
		C711.75,564.27,701.91,561.12,692.61,563.13z"/>
	
		<text id="label30" bar:growlevel="0" transform="matrix(1 0 0 1 704.4004 599.2246)" fill="#232323" enable-background="new    " font-family="'TimesNewRomanPSMT'" font-size="9">AA</text>
	
		<text id="label31" bar:growlevel="0" transform="matrix(1 0 0 1 700.1201 649.041)" fill="#232323" enable-background="new    " font-family="'TimesNewRomanPSMT'" font-size="9">LOT-1</text>
	
		<text id="label32" bar:growlevel="0" transform="matrix(1 0 0 1 715.3799 632.6445)" fill="#232323" enable-background="new    " font-family="'TimesNewRomanPSMT'" font-size="9">LOT-2</text>
	
		<text id="label33" bar:growlevel="0" transform="matrix(1 0 0 1 716.0703 612.1045)" fill="#232323" enable-background="new    " font-family="'TimesNewRomanPSMT'" font-size="9">LOT-3</text>
	
		<text id="label35" bar:growlevel="0" transform="matrix(1 0 0 1 756.3301 613.1543)" fill="#232323" enable-background="new    " font-family="'TimesNewRomanPSMT'" font-size="9">BMA</text>
	
		<text id="label36" bar:growlevel="0" transform="matrix(1 0 0 1 683.8701 535.5146)" fill="#232323" enable-background="new    " font-family="'TimesNewRomanPSMT'" font-size="9">EAC</text>
	
		<text id="label37" bar:growlevel="0" transform="matrix(1 0 0 1 691.5605 503.1348)" fill="#FF0000" enable-background="new    " font-family="'TimesNewRomanPSMT'" font-size="9">.B</text>
	
		<text id="label38" bar:growlevel="0" transform="matrix(1 0 0 1 705.4805 504.1748)" fill="#FF0000" enable-background="new    " font-family="'TimesNewRomanPSMT'" font-size="9">.B</text>
	
		<text id="label39" bar:growlevel="0" transform="matrix(1 0 0 1 734.3799 524.375)" fill="#FF0000" enable-background="new    " font-family="'TimesNewRomanPSMT'" font-size="9">.B</text>
	
		<text id="Unlabeled-2316-1984" bar:growlevel="0" transform="matrix(1 0 0 1 674.4004 607.5)" fill="#232323" enable-background="new    " font-family="'TimesNewRomanPSMT'" font-size="9">grey</text>
	
		<text id="label143" bar:growlevel="0" transform="matrix(1 0 0 1 625.3906 604.9248)" fill="#232323" enable-background="new    " font-family="'TimesNewRomanPSMT'" font-size="9">mfb</text>
	
		<text id="label142" bar:growlevel="0" transform="matrix(1 0 0 1 814.4561 358.1348)" fill="#232323" enable-background="new    " font-family="'TimesNewRomanPSMT'" font-size="9">ec</text>
	
		<text id="label141" bar:growlevel="0" transform="matrix(1 0 0 1 696.6602 428.625)" fill="#232323" enable-background="new    " font-family="'TimesNewRomanPSMT'" font-size="9">ic</text>
	
		<text id="label140" bar:growlevel="0" transform="matrix(1 0 0 1 680.0303 375.3545)" fill="#232323" enable-background="new    " font-family="'TimesNewRomanPSMT'" font-size="9">st</text>
	
		<text id="label147" bar:growlevel="0" transform="matrix(1 0 0 1 610.1201 373.2549)" fill="#232323" enable-background="new    " font-family="'TimesNewRomanPSMT'" font-size="9">AD</text>
	
		<text id="label149" bar:growlevel="0" transform="matrix(1 0 0 1 660.9502 381.2646)" fill="#232323" enable-background="new    " font-family="'TimesNewRomanPSMT'" font-size="9">RtSt</text>
	
		<text id="label8" bar:growlevel="0" transform="matrix(1 0 0 1 688.4102 581.8145)" fill="#232323" enable-background="new    " font-family="'TimesNewRomanPSMT'" font-size="9">MCPO</text>
	
		<text id="label9" bar:growlevel="0" transform="matrix(1 0 0 1 626.6094 570.6748)" fill="#232323" enable-background="new    " font-family="'TimesNewRomanPSMT'" font-size="9">PLH</text>
	
		<text id="label201" bar:growlevel="0" transform="matrix(1 0 0 1 558.4355 314.4619)" fill="#232323" enable-background="new    " font-family="'TimesNewRomanPSMT'" font-size="9">df</text>
	
		<text id="label0" bar:growlevel="0" transform="matrix(1 0 0 1 587.0498 574.4941)" fill="#232323" enable-background="new    " font-family="'TimesNewRomanPSMT'" font-size="9">AHA</text>
	
		<text id="label1" bar:growlevel="0" transform="matrix(1 0 0 1 581.5498 545.2441)" fill="#232323" enable-background="new    " font-family="'TimesNewRomanPSMT'" font-size="9">STMPM</text>
	
		<text id="label2" bar:growlevel="0" transform="matrix(1 0 0 1 546.6074 539.0254)" fill="#232323" enable-background="new    " font-family="'TimesNewRomanPSMT'" font-size="9">PaAP</text>
	
		<text id="label3" bar:growlevel="0" transform="matrix(1 0 0 1 561.5723 562.6406)" fill="#232323" enable-background="new    " font-family="'TimesNewRomanPSMT'" font-size="9">MPA</text>
	
		<text id="label4" bar:growlevel="0" transform="matrix(1 0 0 1 548.04 623.5547)" fill="#232323" enable-background="new    " font-family="'TimesNewRomanPSMT'" font-size="9">SPa</text>
	
		<text id="label5" bar:growlevel="0" transform="matrix(1 0 0 1 587.5703 607.5742)" fill="#232323" enable-background="new    " font-family="'TimesNewRomanPSMT'" font-size="9">LA</text>
	
		<text id="label6" bar:growlevel="0" transform="matrix(1 0 0 1 641.25 595.7344)" fill="#232323" enable-background="new    " font-family="'TimesNewRomanPSMT'" font-size="9">VLH</text>
	
		<text id="label7" bar:growlevel="0" transform="matrix(1 0 0 1 664.0605 590.5146)" fill="#232323" enable-background="new    " font-family="'TimesNewRomanPSMT'" font-size="9">HDB</text>
	
		<text id="text3197" bar:growlevel="0" transform="matrix(1 0 0 1 737.1387 652.6934)" fill="#232323" enable-background="new    " font-family="'TimesNewRomanPSMT'" font-size="9">OlfCx-1</text>
	
		<text id="text3195" bar:growlevel="0" transform="matrix(1 0 0 1 746.2402 637.6846)" fill="#232323" enable-background="new    " font-family="'TimesNewRomanPSMT'" font-size="9">ACo</text>
	
		<text id="label175" bar:growlevel="0" transform="matrix(1 0 0 1 640.6836 406.3291)" fill="#232323" enable-background="new    " font-family="'TimesNewRomanPSMT'" font-size="9">eml</text>
	
		<text id="label171" bar:growlevel="0" transform="matrix(1 0 0 1 640.9297 648.125)" fill="#232323" enable-background="new    " font-family="'TimesNewRomanPSMT'" font-size="9">ictd</text>
	
		<text id="label138" bar:growlevel="0" transform="matrix(1 0 0 1 619.2002 240.6143)" fill="#232323" enable-background="new    " font-family="'TimesNewRomanPSMT'" font-size="9">cg</text>
	
		<text id="label139" bar:growlevel="0" transform="matrix(1 0 0 1 669 358.9844)" fill="#232323" enable-background="new    " font-family="'TimesNewRomanPSMT'" font-size="9">fi</text>
	
		<text id="label19" bar:growlevel="0" transform="matrix(1 0 0 1 661 625.7744)" fill="#232323" enable-background="new    " font-family="'TimesNewRomanPSMT'" font-size="9">SO</text>
	
		<text id="label12" bar:growlevel="0" transform="matrix(1 0 0 1 553.1094 489.5547)" fill="#232323" enable-background="new    " font-family="'TimesNewRomanPSMT'" font-size="9">Re</text>
	
		<text id="label13" bar:growlevel="0" transform="matrix(1 0 0 1 572.2803 491.6445)" fill="#232323" enable-background="new    " font-family="'TimesNewRomanPSMT'" font-size="9">VRe</text>
	
		<text id="label10" bar:growlevel="0" transform="matrix(1 0 0 1 667.8184 541.5205)" fill="#232323" enable-background="new    " font-family="'TimesNewRomanPSMT'" font-size="9">EAM</text>
	
		<text id="label11" bar:growlevel="0" transform="matrix(1 0 0 1 585.2197 452.6445)" fill="#232323" enable-background="new    " font-family="'TimesNewRomanPSMT'" font-size="9">AM</text>
	
		<text id="label16" bar:growlevel="0" transform="matrix(1 0 0 1 544.5918 641.0703)" fill="#232323" enable-background="new    " font-family="'TimesNewRomanPSMT'" font-size="9">RCh</text>
	
		<text id="label15" bar:growlevel="0" transform="matrix(1 0 0 1 546.2305 655.625)" fill="#232323" enable-background="new    " font-family="'TimesNewRomanPSMT'" font-size="9">sox</text>
	
		<text id="label93" bar:growlevel="0" transform="matrix(1 0 0 1 644.8906 539.9443)" fill="#232323" enable-background="new    " font-family="'TimesNewRomanPSMT'" font-size="9">SM</text>
	
		<text id="label91" bar:growlevel="0" transform="matrix(1 0 0 1 632.3701 634.0244)" fill="#232323" enable-background="new    " font-family="'TimesNewRomanPSMT'" font-size="9">opt</text>
	
		<text id="label97" bar:growlevel="0" transform="matrix(1 0 0 1 578.8398 395.8848)" fill="#232323" enable-background="new    " font-family="'TimesNewRomanPSMT'" font-size="9">sm</text>
	
		<text id="label161" bar:growlevel="0" transform="matrix(1 0 0 1 615.6406 514.6045)" fill="#232323" enable-background="new    " font-family="'TimesNewRomanPSMT'" font-size="9">STMPL</text>
	
		<text id="label160" bar:growlevel="0" transform="matrix(1 0 0 1 683.0498 627.7646)" fill="#232323" enable-background="new    " font-family="'TimesNewRomanPSMT'" font-size="9">MeAD</text>
	
		<text id="label162" bar:growlevel="0" transform="matrix(1 0 0 1 842.5098 496.1543)" fill="#232323" enable-background="new    " font-family="'TimesNewRomanPSMT'" font-size="9">DCl</text>
	
		<text id="label165" bar:growlevel="0" transform="matrix(1 0 0 1 686.2998 379.5645)" fill="#232323" enable-background="new    " font-family="'TimesNewRomanPSMT'" font-size="9">cst</text>
	
		<text id="label164" bar:growlevel="0" transform="matrix(1 0 0 1 763.5703 663.2852)" fill="#232323" enable-background="new    " font-family="'TimesNewRomanPSMT'" font-size="9">lo</text>
	
		<text id="label184" bar:growlevel="0" transform="matrix(1 0 0 1 650.5215 529.8369)" fill="#232323" enable-background="new    " font-family="'TimesNewRomanPSMT'" font-size="9">sm</text>
	
		<text id="label69" bar:growlevel="0" transform="matrix(1 0 0 1 549.6094 341.3242)" fill="#232323" enable-background="new    " font-family="'TimesNewRomanPSMT'" font-size="9">vhc</text>
	
		<text id="label68" bar:growlevel="0" transform="matrix(1 0 0 1 541.6074 322.6494)" fill="#232323" enable-background="new    " font-family="'TimesNewRomanPSMT'" font-size="9">TS</text>
	
		<text id="label65" bar:growlevel="0" transform="matrix(1 0 0 1 565.9297 197.3242)" fill="#232323" enable-background="new    " font-family="'TimesNewRomanPSMT'" font-size="9">Cg1</text>
	
		<text id="label64" bar:growlevel="0" transform="matrix(1 0 0 1 594.0996 178.7549)" fill="#232323" enable-background="new    " font-family="'TimesNewRomanPSMT'" font-size="9">M2</text>
	
		<text id="label63" bar:growlevel="0" transform="matrix(1 0 0 1 626.8203 175.0352)" fill="#232323" enable-background="new    " font-family="'TimesNewRomanPSMT'" font-size="9">M1</text>
	
		<text id="label62" bar:growlevel="0" transform="matrix(1 0 0 1 651.9502 305.0244)" fill="#232323" enable-background="new    " font-family="'TimesNewRomanPSMT'" font-size="9">LV</text>
	
		<text id="label61" bar:growlevel="0" transform="matrix(1 0 0 1 672.9697 181.9941)" fill="#232323" enable-background="new    " font-family="'TimesNewRomanPSMT'" font-size="9">S1HL</text>
	
		<text id="label60" bar:growlevel="0" transform="matrix(1 0 0 1 743.7402 201.4941)" fill="#232323" enable-background="new    " font-family="'TimesNewRomanPSMT'" font-size="9">S1FL</text>
	
		<text id="Unlabeled-2479-1766" bar:growlevel="0" transform="matrix(1 0 0 1 725.7109 578.4131)" fill="#232323" enable-background="new    " font-family="'TimesNewRomanPSMT'" font-size="9">grey</text>
	
		<text id="Unlabeled-2202-1291" bar:growlevel="0" transform="matrix(1 0 0 1 663.9004 391.7998)" fill="#232323" enable-background="new    " font-family="'TimesNewRomanPSMT'" font-size="9">grey</text>
	
		<text id="label71" bar:growlevel="0" transform="matrix(1 0 0 1 558.4355 377.8184)" fill="#232323" enable-background="new    " font-family="'TimesNewRomanPSMT'" font-size="9">D3V</text>
	
		<text id="label100" bar:growlevel="0" transform="matrix(1 0 0 1 617.209 418.1045)" fill="#232323" enable-background="new    " font-family="'TimesNewRomanPSMT'" font-size="9">AVVL</text>
	
		<text id="label41" bar:growlevel="0" transform="matrix(1 0 0 1 752.3105 572.415)" fill="#232323" enable-background="new    " font-family="'TimesNewRomanPSMT'" font-size="9">IPAC</text>
	
		<text id="label40" bar:growlevel="0" transform="matrix(1 0 0 1 733.7598 461.7051)" fill="#232323" enable-background="new    " font-family="'TimesNewRomanPSMT'" font-size="9">GP</text>
	
		<text id="label43" bar:growlevel="0" transform="matrix(1 0 0 1 778.1094 596.7852)" fill="#232323" enable-background="new    " font-family="'TimesNewRomanPSMT'" font-size="9">VEn</text>
	
		<text id="label42" bar:growlevel="0" transform="matrix(1 0 0 1 778.3203 582.5146)" fill="#232323" enable-background="new    " font-family="'TimesNewRomanPSMT'" font-size="9">I</text>
	
		<text id="label45" bar:growlevel="0" transform="matrix(1 0 0 1 787.6895 650.4941)" fill="#232323" enable-background="new    " font-family="'TimesNewRomanPSMT'" font-size="9">CxA-2</text>
	
		<text id="label44" bar:growlevel="0" transform="matrix(1 0 0 1 777.6602 663.6348)" fill="#232323" enable-background="new    " font-family="'TimesNewRomanPSMT'" font-size="9">CxA-1</text>
	
		<text id="label47" bar:growlevel="0" transform="matrix(1 0 0 1 819.6201 566.1543)" fill="#232323" enable-background="new    " font-family="'TimesNewRomanPSMT'" font-size="9">DEn</text>
	
		<text id="label46" bar:growlevel="0" transform="matrix(1 0 0 1 793.3398 631.9551)" fill="#232323" enable-background="new    " font-family="'TimesNewRomanPSMT'" font-size="9">CxA-3</text>
	
		<text id="label66" bar:growlevel="0" transform="matrix(1 0 0 1 552.9941 245.8369)" fill="#232323" enable-background="new    " font-family="'TimesNewRomanPSMT'" font-size="9">Cg2</text>
	
		<text id="Unlabeled-870-536" bar:growlevel="0" transform="matrix(1 0 0 1 793.0449 214.7881)" fill="#232323" enable-background="new    " font-family="'TimesNewRomanPSMT'" font-size="9">S1DZ</text>
	
		<text id="label56" bar:growlevel="0" transform="matrix(1 0 0 1 886.4697 415.4043)" fill="#232323" enable-background="new    " font-family="'TimesNewRomanPSMT'" font-size="9">S2</text>
	
		<text id="label57" bar:growlevel="0" transform="matrix(1 0 0 1 786.5996 430.0342)" fill="#232323" enable-background="new    " font-family="'TimesNewRomanPSMT'" font-size="9">CPu</text>
	
		<text id="label54" bar:growlevel="0" transform="matrix(1 0 0 1 879.8301 496.7646)" fill="#232323" enable-background="new    " font-family="'TimesNewRomanPSMT'" font-size="9">DI</text>
	
		<text id="label55" bar:growlevel="0" transform="matrix(1 0 0 1 880.8799 471.6943)" fill="#232323" enable-background="new    " font-family="'TimesNewRomanPSMT'" font-size="9">GI</text>
	
		<text id="label52" bar:growlevel="0" transform="matrix(1 0 0 1 827.6299 527.5244)" fill="#232323" enable-background="new    " font-family="'TimesNewRomanPSMT'" font-size="9">VCl</text>
	
		<text id="label53" bar:growlevel="0" transform="matrix(1 0 0 1 872.46 529.7246)" fill="#232323" enable-background="new    " font-family="'TimesNewRomanPSMT'" font-size="9">AIP</text>
	
		<text id="label50" bar:growlevel="0" transform="matrix(1 0 0 1 868.7803 603.5342)" fill="#232323" enable-background="new    " font-family="'TimesNewRomanPSMT'" font-size="9">Pir-2</text>
	
		<text id="label51" bar:growlevel="0" transform="matrix(1 0 0 1 864.7207 589.835)" fill="#232323" enable-background="new    " font-family="'TimesNewRomanPSMT'" font-size="9">Pir-3</text>
	
		<text id="label58" bar:growlevel="0" transform="matrix(1 0 0 1 869.6699 360.2949)" fill="#232323" enable-background="new    " font-family="'TimesNewRomanPSMT'" font-size="9">S1ULp</text>
	
		<text id="label59" bar:growlevel="0" transform="matrix(1 0 0 1 839.1299 281.375)" fill="#232323" enable-background="new    " font-family="'TimesNewRomanPSMT'" font-size="9">S1BF</text>
	
		<text id="label67" bar:growlevel="0" transform="matrix(1 0 0 1 546.2305 305.0244)" fill="#232323" enable-background="new    " font-family="'TimesNewRomanPSMT'" font-size="9">cc</text>
	
		<text id="label92" bar:growlevel="0" transform="matrix(1 0 0 1 596.4199 523.3145)" fill="#232323" enable-background="new    " font-family="'TimesNewRomanPSMT'" font-size="9">f</text>
	
		<text id="label168" bar:growlevel="0" transform="matrix(1 0 0 1 610.0459 391.2246)" fill="#232323" enable-background="new    " font-family="'TimesNewRomanPSMT'" font-size="9">AVDM</text>
	
		<text id="label208" bar:growlevel="0" transform="matrix(1 0 0 1 542.0361 561.7666)" fill="#232323" enable-background="new    " font-family="'TimesNewRomanPSMT'" font-size="9">PaV</text>
	
		<text id="label23" bar:growlevel="0" transform="matrix(1 0 0 1 543.332 415.3535)" fill="#232323" enable-background="new    " font-family="'TimesNewRomanPSMT'" font-size="9">PVA</text>
	
		<text id="label22" bar:growlevel="0" transform="matrix(1 0 0 1 543.9824 452.6445)" fill="#232323" enable-background="new    " font-family="'TimesNewRomanPSMT'" font-size="9">CM</text>
	
		<text id="label21" bar:growlevel="0" transform="matrix(1 0 0 1 543.332 470.4092)" fill="#232323" enable-background="new    " font-family="'TimesNewRomanPSMT'" font-size="9">PVA</text>
	
		<text id="label20" bar:growlevel="0" transform="matrix(1 0 0 1 652.2305 610.0244)" fill="#232323" enable-background="new    " font-family="'TimesNewRomanPSMT'" font-size="9">ESO</text>
	
		<text id="label27" bar:growlevel="0" transform="matrix(1 0 0 1 647.2197 435.9346)" fill="#232323" enable-background="new    " font-family="'TimesNewRomanPSMT'" font-size="9">Rt</text>
	
		<text id="label25" bar:growlevel="0" transform="matrix(1 0 0 1 559.7803 423.7441)" fill="#232323" enable-background="new    " font-family="'TimesNewRomanPSMT'" font-size="9">PT</text>
	
		<text id="Unlabeled-2107-816" bar:growlevel="0" transform="matrix(1 0 0 1 618.5996 252)" fill="#232323" enable-background="new    " font-family="'TimesNewRomanPSMT'" font-size="9">grey</text>
	
		<text id="label49" bar:growlevel="0" transform="matrix(1 0 0 1 866.29 623.6045)" fill="#232323" enable-background="new    " font-family="'TimesNewRomanPSMT'" font-size="9">Pir-1</text>
	
		<text id="Unlabeled-1869-1305" bar:growlevel="0" transform="matrix(1 0 0 1 550.4004 403.0674)" fill="#232323" enable-background="new    " font-family="'TimesNewRomanPSMT'" font-size="9">grey</text>
	
		<text id="label150" bar:growlevel="0" transform="matrix(1 0 0 1 546.2305 364.8604)" fill="#232323" enable-background="new    " font-family="'TimesNewRomanPSMT'" font-size="9">SFO</text>
	
		<text id="label152" bar:growlevel="0" transform="matrix(1 0 0 1 587.4102 426.2549)" fill="#232323" enable-background="new    " font-family="'TimesNewRomanPSMT'" font-size="9">IAD</text>
	
		<text id="label153" bar:growlevel="0" transform="matrix(1 0 0 1 583.4805 416.7744)" fill="#232323" enable-background="new    " font-family="'TimesNewRomanPSMT'" font-size="9">PC</text>
	
		<text id="label154" bar:growlevel="0" transform="matrix(1 0 0 1 546.2305 288.6543)" fill="#232323" enable-background="new    " font-family="'TimesNewRomanPSMT'" font-size="9">IG</text>
	
		<text id="label155" bar:growlevel="0" transform="matrix(1 0 0 1 584.8701 511.4746)" fill="#232323" enable-background="new    " font-family="'TimesNewRomanPSMT'" font-size="9">ANS</text>
	
		<text id="label156" bar:growlevel="0" transform="matrix(1 0 0 1 548.3291 588.8389)" fill="#232323" enable-background="new    " font-family="'TimesNewRomanPSMT'" font-size="9">MPO</text>
	
		<text id="label157" bar:growlevel="0" transform="matrix(1 0 0 1 543.1992 583.6533)" fill="#232323" enable-background="new    " font-family="'TimesNewRomanPSMT'" font-size="9">Pe</text>
	
		<text id="label163" bar:growlevel="0" transform="matrix(1 0 0 1 541.6074 516.9893)" fill="#232323" enable-background="new    " font-family="'TimesNewRomanPSMT'" font-size="9">3V</text>
	
		<text id="label48" bar:growlevel="0" transform="matrix(1 0 0 1 791.2197 563.7246)" fill="#232323" enable-background="new    " font-family="'TimesNewRomanPSMT'" font-size="9">I</text>
</g>
</svg>
