<?xml version="1.0" encoding="utf-8"?>
<!-- Generator: Adobe Illustrator 16.0.0, SVG Export Plug-In . SVG Version: 6.00 Build 0)  -->
<!DOCTYPE svg PUBLIC "-//W3C//DTD SVG 1.1//EN" "http://www.w3.org/Graphics/SVG/1.1/DTD/svg11.dtd">
<svg version="1.1"
	 id="body" xmlns:bar="http://www.3dbar.org" xmlns:cc="http://creativecommons.org/ns#" xmlns:dc="http://purl.org/dc/elements/1.1/" xmlns:inkscape="http://www.inkscape.org/namespaces/inkscape" xmlns:rdf="http://www.w3.org/1999/02/22-rdf-syntax-ns#" xmlns:sodipodi="http://sodipodi.sourceforge.net/DTD/sodipodi-0.dtd" xmlns:svg="http://www.w3.org/2000/svg" sodipodi:docname="68_pretrace_pretrace_v1.svg" inkscape:version="0.47pre4 r22446"
	 xmlns="http://www.w3.org/2000/svg" xmlns:xlink="http://www.w3.org/1999/xlink" x="0px" y="0px" width="1008px" height="1008px"
	 viewBox="0 0 1008 1008" enable-background="new 0 0 1008 1008" xml:space="preserve">
<sodipodi:namedview  showgrid="false" pagecolor="#ffffff" objecttolerance="10" inkscape:zoom="10.081752" inkscape:cy="466.41353" inkscape:cx="344.72867" id="namedview4523" guidetolerance="10" gridtolerance="10" borderopacity="1" bordercolor="#666666" inkscape:window-y="24" inkscape:window-x="1680" inkscape:pageopacity="0" inkscape:window-width="1918" inkscape:window-maximized="1" inkscape:window-height="1128" inkscape:pageshadow="2" inkscape:current-layer="content" inkscape:object-paths="true">
	</sodipodi:namedview>
<title  id="title4292">SVG drawing</title>
<desc  id="desc4294">This was produced by version 4.2 of GNU libplot, a free library for exporting 2-D vector graphics.</desc>
<defs>
	
	<rdf:RDF>
		<cc:Work  rdf:about="">
			<dc:format>image/svg+xml</dc:format>
			<dc:type  rdf:resource="http://purl.org/dc/dcmitype/StillImage"></dc:type>
		</cc:Work>
	</rdf:RDF>
	<bar:data  name="coronalcoord" content="0.96"></bar:data>
	
		<bar:data  name="rendererConf" content="{&apos;ReferenceHeight&apos;: 900, &apos;ReferenceWidth&apos;: 1200, &apos;imageSize&apos;: (1200, 900)}">
		</bar:data>
	
		<bar:data  name="tracingConf" content="{&apos;DumpEachStepSVG&apos;: False, &apos;DumpEachStepPNG&apos;: False, &apos;GrowDefaultBoundaryColor&apos;: 200, &apos;CacheLevel&apos;: 5, &apos;NewPathIdTemplate&apos;: &apos;structure%d_%s_%s&apos;, &apos;PoTraceConf&apos;: {&apos;potrace_accuracy_parameter&apos;: &apos;0.001&apos;, &apos;potrace_width_string&apos;: &apos;1200pt&apos;, &apos;potrace_svg_resolution_string&apos;: &apos;300x300&apos;, &apos;potrace_height_string&apos;: &apos;900pt&apos;}, &apos;DetectUnlabelled&apos;: True, &apos;DumpVBrain&apos;: False, &apos;DumpWrongSeed&apos;: True, &apos;DumpDirectory&apos;: &apos;.&apos;, &apos;MinFiterTimesApplication&apos;: 3, &apos;RegionAlreadyTraced&apos;: 100, &apos;UnlabelledTreshold&apos;: 500}">
		</bar:data>
	<bar:data  name="transformationmatrix" content="0.0176211454,-9.5150660793,0.0176211454,-1.5355884426"></bar:data>
</defs>
<g id="content">
	<path fill="#FF000C" d="M910.32,410.1c6.989-40.59,4.948-72.688-6.87-107.85c-7.41-22.17-20.13-47.61-34.8-69.75
		c-21.15-31.89-45.813-54.06-85.2-76.65c-38.88-22.29-84.72-33.18-140.102-33.27c-11.938,0-15.841,0.27-24.959,1.8
		c-17.521,2.88-33.989,9.72-47.399,19.65c-13.29,9.84-22.381,20.97-27.48,33.72c-1.319,3.27-2.91,8.37-2.91,9.27
		c0,0.27-0.238,0.48-0.567,0.48c-0.013,0-0.021-0.003-0.03-0.003v358.906c0.021-0.019,0.043-0.038,0.063-0.043
		c0.237-0.03,0.6,0.63,0.93,1.8c3.029,10.32,13.41,21.87,28.949,32.1c7.051,4.65,9.028,6.09,17.761,12.84
		c15.6,12.12,24.148,18.271,32.55,23.433c13.71,8.46,21.84,11.067,37.29,12c9.601,0.6,20.16-0.183,37.71-2.73
		c11.25-1.647,14.37-2.52,18.09-5.01l2.01-1.352l3.393,0.512c5.46,0.87,10.02,0.54,16.56-1.142
		c8.972-2.311,13.98-4.948,27.093-14.25c5.459-3.87,7.59-4.62,19.709-6.961c10.92-2.1,15.541-3.42,20.25-5.789
		c4.801-2.398,9.061-5.641,15.238-11.579l3.87-3.689l4.86-2.34c13.71-6.57,19.829-11.91,29.46-25.65
		c10.5-14.97,16.438-25.89,21.96-40.2c1.979-5.13,5.31-13.68,7.409-19.05c4.318-11.01,12.391-32.04,13.229-34.438
		c0.75-2.13,1.32-2.07,1.32,0.147c0,1.98,0.81,3.69,1.77,3.69c1.41,0,3.54-3.9,4.563-8.313c0.72-3.18,0.658-5.46-0.182-6.39
		c-0.75-0.813-1.261-0.75-2.25,0.3c-0.841,0.9-1.5,1.17-1.5,0.602c0-0.182,0.541-2.039,1.17-4.142
		C905.82,432.48,908.49,420.811,910.32,410.1z"/>
	<path id="structure2_label94_vBrain" bar:type="" bar:growlevel="0" fill="#FF000C" d="M555.12,574.32
		c-1.11,0.51-1.92,1.56-1.92,2.489c0,0.391,0.39,1.108,0.84,1.618c1.62,1.83,5.25,1.32,6.06-0.81
		C560.939,575.43,557.58,573.21,555.12,574.32z"/>
	<path id="structure4_label94_vBrain" bar:type="" bar:growlevel="0" fill="#FF000C" d="M761.97,606.57
		c-1.409,1.41-0.93,3.75,0.9,4.527c2.31,0.933,4.56-1.317,3.63-3.63C765.72,605.64,763.38,605.16,761.97,606.57z"/>
	<path id="structure100_text4591_Tu-1" bar:type="" bar:growlevel="0" fill="#FFEF00" d="M753.99,588
		c-1.95,0.87-4.771,3.99-8.222,9.03c-2.641,3.87-10.591,15.147-10.948,15.54c-0.063,0.06-0.75-0.42-1.53-1.08
		c-5.91-4.92-11.101-6.42-17.01-4.893c-2.341,0.603-3.091,0.933-13.38,6.183c-7.74,3.93-14.223,6.3-21.99,8.04
		c-13.32,3-27,2.88-39.812-0.302c-9.091-2.25-18.091-6.181-23.551-10.318c-1.529-1.11-1.56-1.142-4.29-1.11
		c-1.979,0-2.76,0.12-2.76,0.391c0,0.689,13.95,9.479,19.62,12.33c5.13,2.579,11.16,4.38,18.54,5.552
		c3.84,0.6,5.43,0.657,14.938,0.688c8.25,0,11.76-0.12,15.603-0.54c6.3-0.688,23.188-3.09,25.948-3.72
		c3.24-0.72,6.539-2.101,8.521-3.54l1.8-1.32l2.19,0.48c1.5,0.33,3.66,0.479,6.84,0.51c4.892,0,7.59-0.45,14.4-2.43
		c5.158-1.471,13.14-5.88,21.447-11.853l3.9-2.817l-0.09-1.17c-0.12-1.59-2.101-7.473-3.601-10.74
		c-1.052-2.25-1.381-2.7-2.279-3.061C756.87,587.25,755.52,587.311,753.99,588z"/>
	<path id="structure103_text4051-7_S1DZ" bar:type="" bar:growlevel="0" fill="#FEFF3B" d="M853.02,221.16
		c-11.788,11.16-36.897,33.66-69.959,62.76c-5.971,5.25-10.858,9.72-10.858,9.87c0,0.18,1.647,2.01,3.688,4.08
		c2.039,2.07,4.289,4.56,4.979,5.49c0.72,0.96,1.53,1.74,1.8,1.74c0.3,0,2.13-1.38,4.08-3.09c3.3-2.82,13.59-11.4,49.23-41.01
		c24.027-19.98,32.459-27.21,32.487-27.84c0.063-0.87-10.528-15.66-11.188-15.66C857.07,217.5,855.18,219.15,853.02,221.16z"/>
	<path fill="#FF23E9" d="M540,300.399v7.101c1.29,0,1.68-0.15,2.4-0.87c0.479-0.479,0.959-1.2,1.08-1.65
		C544.094,302.525,542.145,300.396,540,300.399z"/>
	<path fill="#FFB2BA" d="M630.24,587.73c-2.551-0.513-7.65-2.25-10.59-3.57c-5.103-2.313-11.973-6.75-12.48-8.07
		c-0.15-0.39-0.51-0.688-0.811-0.688c-0.3,0-0.812-0.271-1.109-0.602c-0.96-1.05-1.439-0.78-1.141,0.66
		c0.841,4.38-0.959,7.53-5.579,9.63c-4.5,2.01-12.091,1.08-19.08-2.37c-5.641-2.76-25.11-18.09-28.74-22.62
		c-3.3-4.08-5.49-8.938-6.479-14.397c-0.899-4.83-1.682-7.263-2.609-8.19c-0.542-0.558-1.064-0.799-1.62-0.757v9.65
		c0.021-0.019,0.043-0.038,0.063-0.043c0.237-0.03,0.6,0.63,0.93,1.8c3.029,10.318,13.41,21.87,28.949,32.1
		c6.659,4.38,9.061,6.09,14.398,10.26c2.67,2.07,5.07,3.78,5.28,3.78c0.239,0,0.479-0.18,0.568-0.42
		c0.092-0.24,0.812-0.81,1.62-1.29c1.142-0.66,1.949-0.87,4.05-1.05c3.271-0.24,4.319-0.75,5.552-2.641
		c1.528-2.312,2.16-2.399,9.028-1.262c3.092,0.54,6.75,1.11,8.159,1.262c2.761,0.329,12.271,0.421,13.021,0.118
		C632.609,588.63,632.04,588.12,630.24,587.73z"/>
	<path id="structure107_Unlabeled-2483-1794_Unlabeled" bar:type="" bar:growlevel="0" fill="#FFB2BA" d="M743.189,539.73
		c-1.771,2.788-5.13,9.27-6.539,12.657c-0.603,1.44-1.41,4.143-1.802,5.973c-0.421,1.829-0.959,3.72-1.198,4.229
		c-0.603,1.23-0.603,1.29,0.567,2.34c0.57,0.48,1.32,1.5,1.683,2.25c0.567,1.143,0.63,1.683,0.51,3.512
		c-0.09,1.198-0.271,2.608-0.391,3.12c-0.149,0.868-0.119,0.988,0.42,0.988c0.75,0,5.398-1.68,8.25-2.97
		c1.141-0.51,2.311-0.93,2.641-0.93c0.3,0,0.57-0.212,0.57-0.45c0-0.24-0.183-0.45-0.36-0.45c-0.33,0-4.44-4.68-7.56-8.58
		c-0.57-0.688-0.57-0.81-0.121-2.91c0.631-2.88,3-8.1,6.421-14.22c1.56-2.76,2.818-5.102,2.818-5.189c0-0.211-3.538-1.5-4.141-1.5
		C744.75,537.6,743.97,538.561,743.189,539.73z"/>
	<path id="structure109_Unlabeled-2194-1978_Unlabeled" bar:type="" bar:growlevel="0" fill="#FFB2BA" d="M657.45,593.07
		c-1.352,0.567-2.521,2.76-3.15,5.85c-0.659,3.18,0.87,5.521,3.391,5.19c3.512-0.48,6.392-5.82,4.829-9.063
		C661.65,593.189,659.37,592.29,657.45,593.07z"/>
	<path fill="#83E900" d="M600.12,569.25c-5.19-6.42-11.91-16.11-16.83-24.3c-5.431-9.03-14.94-27.48-17.729-34.353
		c-2.461-6.09-3.181-9.06-6.061-24.93c-5.34-29.67-4.77-27.51-10.8-40.62c-1.352-2.97-3.061-6.988-3.78-8.938
		c-2.18-5.89-3.57-8.346-4.92-8.331v108.912c1.771-0.25,3.012,2.509,4.23,9.009c0.987,5.46,3.18,10.319,6.479,14.397
		c3.63,4.53,23.102,19.86,28.74,22.62c6.987,3.45,14.58,4.38,19.08,2.37c3.84-1.74,5.76-4.229,5.789-7.438
		C604.32,575.16,603.391,573.27,600.12,569.25z"/>
	<path fill="#A8E959" d="M600.12,569.25c-5.19-6.42-11.91-16.11-16.83-24.3c-5.431-9.03-14.94-27.48-17.729-34.353
		c-2.461-6.09-3.181-9.06-6.061-24.93c-5.34-29.67-4.77-27.51-10.8-40.62c-1.352-2.97-3.061-6.988-3.78-8.938
		c-2.18-5.89-3.57-8.346-4.92-8.331v108.912c1.771-0.25,3.012,2.509,4.23,9.009c0.987,5.46,3.18,10.319,6.479,14.397
		c3.63,4.53,23.102,19.86,28.74,22.62c6.987,3.45,14.58,4.38,19.08,2.37c3.84-1.74,5.76-4.229,5.789-7.438
		C604.32,575.16,603.391,573.27,600.12,569.25z"/>
	<path fill="#A8E959" d="M600.12,569.25c-5.19-6.42-11.91-16.11-16.83-24.3c-5.431-9.03-14.94-27.48-17.729-34.353
		c-2.461-6.09-3.181-9.06-6.061-24.93c-5.34-29.67-4.77-27.51-10.8-40.62c-1.352-2.97-3.061-6.988-3.78-8.938
		c-2.18-5.89-3.57-8.346-4.92-8.331v108.912c1.771-0.25,3.012,2.509,4.23,9.009c0.987,5.46,3.18,10.319,6.479,14.397
		c3.63,4.53,23.102,19.86,28.74,22.62c6.987,3.45,14.58,4.38,19.08,2.37c3.84-1.74,5.76-4.229,5.789-7.438
		C604.32,575.16,603.391,573.27,600.12,569.25z"/>
	<path id="structure13_label8_LSV" bar:type="" bar:growlevel="0" fill="#92FF00" d="M607.8,399.3
		c-9.06,2.34-14.79,9.78-17.069,22.11c-0.329,1.8-1.17,8.1-1.829,14.04c-1.142,10.02-2.489,21-2.909,23.609
		c-0.091,0.63-0.03,1.141,0.118,1.141c0.149,0,1.592-1.29,3.212-2.853c5.697-5.55,12.357-10.47,17.607-12.987l2.853-1.38
		l0.358-10.383c0.329-9.18,0.899-21.897,1.409-30.84l0.181-3.06l-0.84,0.028C610.439,398.73,609.03,399,607.8,399.3z"/>
	<path id="structure14_label12_IEn" bar:type="" bar:growlevel="0" fill="#5F23ED" d="M766.98,517.08
		c-1.41,1.77-4.98,5.97-7.893,9.33c-6.51,7.47-8.188,9.81-12.12,16.71c-3.778,6.6-6.449,12.39-7.078,15.36
		c-0.479,2.157-0.479,2.25,0.091,2.938c3.75,4.65,7.26,8.58,7.709,8.58c0.778,0,2.818-1.47,4.5-3.271
		c2.131-2.25,3.42-5.188,3.961-9.028c1.107-7.65,3.239-11.7,10.709-20.37c1.53-1.74,4.261-4.68,6.091-6.51
		c3.78-3.78,6.06-5.16,10.08-6c1.38-0.303,2.37-0.66,2.37-0.9c0-0.18-0.632-0.51-1.41-0.72c-2.101-0.513-6.15-2.49-8.312-4.021
		c-1.021-0.72-2.698-2.22-3.721-3.3s-1.95-1.979-2.101-1.979C769.71,513.9,768.42,515.34,766.98,517.08z"/>
	<path fill="#97FF00" d="M611.609,395.43c-0.271-3.96-0.932-7.648-2.489-13.83c-1.65-6.539-2.761-8.88-5.55-11.85
		c-5.853-6.15-14.881-9.99-32.521-13.8c-9.238-1.98-12.12-3.66-14.34-8.312c-0.54-1.108-1.109-2.01-1.26-2.01
		c-0.21-0.03-0.45,2.22-0.69,6.03c-0.93,15.479-3.39,21.96-9.239,24.239c-1.5,0.601-2.311,0.689-5.521,0.689v5.963
		c0.06,0.002,0.117,0.001,0.18,0.008c1.021,0.119,2.07,1.529,2.313,3.149c0.119,0.63,0.33,2.76,0.51,4.74
		c0.33,3.359,0.63,4.438,4.65,17.1c6.51,20.49,6.93,21.9,9.357,32.46c3.03,13.17,3.21,16.38,1.11,19.2
		c-0.392,0.51-1.2,1.14-1.801,1.351c-1.052,0.359-1.079,0.42-0.931,1.591c0.511,3.961,7.229,39.448,7.859,41.698
		c1.08,3.69,3.12,8.73,5.608,13.95c3.239,6.813,10.859,21,11.28,21c0.449,0,0.479,0.3-0.301-5.46c-0.81-6-0.96-19.71-0.271-23.85
		c0.391-2.34,0.358-2.58-0.392-5.7c-2.13-9-3.18-18.3-2.608-23.49c0.659-6.21,2.311-9.96,7.561-17.1l1.439-1.98l0.601-4.47
		c0.78-5.73,1.53-11.97,2.88-23.851c1.021-9.119,1.98-14.432,3.12-17.762c3.271-9.42,9.03-14.7,17.85-16.438l1.771-0.36
		L611.609,395.43z M571.53,447.689c-1.47,3.778-3.24,4.528-5.28,2.278c-2.25-2.487-3.811-7.14-5.25-15.72
		c-1.141-6.688-2.07-10.29-3.57-13.65c-1.619-3.567-2.52-6.688-2.55-8.788c-0.03-1.562,0.061-1.829,0.811-2.489
		s0.932-0.69,1.802-0.33c0.63,0.24,1.38,1.02,2.159,2.188c0.688,0.99,2.068,3.75,3.118,6.12c1.053,2.4,3.36,7.17,5.132,10.65
		c3.868,7.56,4.351,9.237,4.318,14.397C572.22,445.35,572.1,446.25,571.53,447.689z"/>
	<path id="structure16_label16_LSD" bar:type="" bar:growlevel="0" fill="#DEFFB2" d="M585.84,328.2
		c-6.149,3.148-15.51,6.688-25.14,9.45l-5.55,1.619l0.09,1.891c0.24,5.76,3,10.41,7.41,12.42c0.897,0.42,4.647,1.41,8.31,2.25
		c17.61,3.9,26.46,7.56,32.25,13.38c1.95,1.92,2.49,2.25,2.49,1.44c0-0.271-1.98-5.49-4.38-11.642
		c-4.17-10.648-8.643-22.319-11.07-28.948c-0.811-2.16-1.29-3.062-1.62-3.062C588.359,327.03,587.1,327.57,585.84,328.2z"/>
	<path id="structure17_label17_LV" bar:type="" bar:growlevel="0" fill="#FF005D" d="M620.04,305.85
		c-0.601,0.419-3.84,2.82-7.2,5.339c-7.109,5.341-14.16,10.109-19.38,13.08c-2.04,1.141-3.87,2.159-4.05,2.221
		c-0.21,0.06-0.03,0.898,0.54,2.49c1.8,5.039,8.04,21.39,11.55,30.27c5.67,14.311,8.16,22.41,9.6,30.84
		c0.33,1.98,0.603,4.38,0.603,5.34c0,1.53,0.09,1.771,0.567,1.771c0.42,0,0.631-0.33,0.871-1.29C613.71,393.6,614.4,388.14,615,381
		c1.62-19.41,2.1-28.86,2.1-41.37v-11.25l0.933-4.5c1.17-5.819,2.76-11.94,3.75-14.67c0.42-1.2,0.869-2.61,0.93-3.149
		c0.148-0.899,0.09-0.959-0.72-0.959C621.54,305.1,620.641,305.43,620.04,305.85z"/>
	<path id="structure18_label18_CPu" bar:type="" bar:growlevel="0" fill="#FFEC00" d="M675.45,275.01
		c-3.48,0.3-10.17,1.41-13.2,2.19c-6.359,1.65-11.43,3.81-15.99,6.81c-2.13,1.41-2.85,2.13-5.16,5.19
		c-1.47,1.95-4.05,5.13-5.697,7.08c-1.683,1.979-3.69,4.648-4.5,5.97c-3.303,5.52-7.62,15-10.563,23.25l-0.93,2.55l-0.21,14.85
		c-0.15,8.16-0.33,15.778-0.42,16.948c-0.091,1.142-0.33,4.65-0.48,7.802c-0.18,3.119-0.6,9.42-0.93,13.948
		c-0.33,4.53-0.66,12.302-0.72,17.25c-0.09,8.433-0.45,14.91-1.5,26.853c-0.24,2.729-0.45,7.438-0.45,10.47v5.521l1.17,1.829
		c1.56,2.49,3.72,6.843,5.31,10.62c1.682,4.05,2.341,5.13,4.98,8.16c4.35,4.98,10.32,10.021,23.699,20.04
		c10.681,8.01,13.53,10.38,17.791,14.82c5.01,5.188,7.83,9.688,9.027,14.34c0.723,2.7,0.69,6.061-0.027,8.04
		c-0.36,0.96-0.45,1.649-0.271,1.8c0.15,0.15,2.67,0.812,5.58,1.5l5.34,1.26l0.96-0.6c1.893-1.17,4.893-0.48,5.223,1.14l0.18,0.842
		l21.779,4.108c12,2.28,22.051,4.142,22.381,4.11c0.3,0,1.35-0.72,2.31-1.62c1.92-1.8,4.5-3.391,5.94-3.66
		c1.17-0.24,2.43,0.51,2.43,1.47c0,0.75-1.77,4.592-2.7,5.91c-0.93,1.32-0.75,1.65,1.17,2.37c0.96,0.33,1.892,0.63,2.04,0.63
		c0.181,0,0.9-0.897,1.65-2.04c1.71-2.58,4.08-5.49,8.55-10.59c9.479-10.77,13.979-16.83,17.58-23.67
		c3.149-5.939,4.89-11.04,8.16-23.85c2.64-10.383,4.859-18.421,7.2-26.16c3.027-10.021,4.709-17.19,6.567-28.44
		c2.49-14.67,3.33-24.78,3.092-36.39c-0.239-11.101-1.319-19.41-3.842-29.46c-5.1-20.37-13.408-34.98-28.05-49.2
		c-20.399-19.8-46.41-31.38-76.17-33.9C690.45,274.83,678.27,274.77,675.45,275.01z"/>
	<path id="structure19_label20_DEn" bar:type="" bar:growlevel="0" fill="#E0E959" d="M784.02,483.811
		c-5.1,15.329-7.408,20.369-12.6,27.512c-0.72,0.988-1.32,1.979-1.32,2.22c0,0.689,4.83,5.25,6.813,6.45
		c5.79,3.51,16.08,5.818,24.51,5.55c5.939-0.21,8.58-1.47,10.29-4.979c0.812-1.649,0.84-1.892,0.84-6.062
		c0-3.96-0.09-4.649-0.96-7.83c-0.54-1.92-1.38-4.56-1.92-5.91c-0.898-2.43-0.96-2.489-6.568-8.04
		c-4.682-4.619-5.972-5.729-7.289-6.27c-3-1.2-4.711-3-5.973-6.183c-0.479-1.229-0.658-2.52-0.777-5.31
		c-0.093-2.58-0.24-3.66-0.48-3.66C788.37,471.3,786.45,476.55,784.02,483.811z"/>
	<path id="structure20_label21_VCl" bar:type="" bar:growlevel="0" fill="#8847F2" d="M800.25,445.62
		c-1.53,0.689-3.09,2.22-3.87,3.72c-0.81,1.59-5.37,14.04-6.06,16.53c-0.393,1.35-0.84,3.84-1.021,5.49
		c-0.988,8.817,1.95,14.188,8.49,15.54c5.16,1.05,9.75-2.16,12.96-9.12c2.34-5.04,4.858-16.353,4.562-20.433
		c-0.302-3.96-2.25-7.408-5.642-9.897C806.22,444.93,803.07,444.3,800.25,445.62z"/>
	<path id="structure21_label22_AIV" bar:type="" bar:growlevel="0" fill="#EEF423" d="M810.33,478.68
		c-2.76,5.521-6.45,8.521-10.53,8.521c-1.05,0-1.5,0.12-1.5,0.39c0,0.511,7.682,8.07,13.92,13.682
		c12.3,11.04,24.932,20.908,36.24,28.318c6.36,4.17,13.08,8.011,13.979,8.011c0.841,0,11.461-19.171,11.461-20.671
		c0-0.42-1.5-1.29-6.66-3.868c-14.851-7.352-31.472-18.512-48.99-32.882c-3.12-2.55-5.85-4.68-6.03-4.68
		C812.04,475.5,811.2,476.939,810.33,478.68z"/>
	<path id="structure22_label23_AID" bar:type="" bar:growlevel="0" fill="#D0D447" d="M816,454.439c0,3.421-1.74,13.351-3.18,18
		c-0.75,2.521-0.75,2.608-0.211,3.061c18.239,14.97,28.83,22.71,41.341,30.21c8.069,4.86,18.63,10.29,20.01,10.29
		c0.33,0,0.72-0.57,1.14-1.74c0.36-0.93,1.98-5.16,3.632-9.39c1.618-4.23,2.971-7.89,2.971-8.13s-1.2-1.051-2.762-1.86
		c-12.358-6.45-37.83-23.16-56.55-37.11c-2.818-2.13-5.221-3.987-5.341-4.17C816.6,452.85,816,453.33,816,454.439z"/>
	<path id="structure23_label24_DI" bar:type="" bar:growlevel="0" fill="#C4C923" d="M814.92,433.41
		c0.689,4.92,1.141,9.84,1.32,14.46l0.21,5.28l3,2.34c8.52,6.63,32.76,23.31,44.46,30.569c8.22,5.13,17.88,10.5,18.18,10.108
		c0.21-0.27,10.11-25.95,10.11-26.25c0-0.149-1.261-0.87-2.82-1.56c-14.34-6.393-61.38-29.49-71.55-35.132
		C814.891,431.61,814.65,431.61,814.92,433.41z"/>
	<path id="structure24_label25_GI" bar:type="" bar:growlevel="0" fill="#C3C900" d="M807.9,406.68c0,0.09,0.659,2.131,1.47,4.563
		c1.739,5.188,3.3,11.04,4.38,16.26c0.54,2.521,0.96,3.84,1.29,4.05c7.8,4.8,74.88,37.65,76.86,37.65c0.33,0,0.688-0.24,0.84-0.54
		c0.479-0.9,6.99-18.3,8.369-22.352c0.688-2.131,1.291-4.108,1.291-4.408c0-0.421-0.511-0.69-2.16-1.171
		c-16.68-4.921-62.221-21.842-87.36-32.462C808.98,406.62,807.9,406.26,807.9,406.68z"/>
	<path id="structure25_label26_DCl" bar:type="" bar:growlevel="0" fill="#FFDE00" d="M805.95,405.061
		c-0.061,0.209-0.72,3.842-1.5,8.039c-1.71,9.48-3.932,19.893-5.88,27.66c-0.813,3.271-1.472,6.063-1.472,6.24
		c0,0.51,0.779,0.33,1.382-0.33c0.868-0.99,3.06-1.859,4.8-1.89c3.567-0.03,8.85,3.81,10.92,7.979c0.568,1.17,1.17,2.04,1.438,2.04
		c0.392,0,0.421-0.93,0.271-7.14c-0.21-9.33-1.2-16.38-3.66-26.16c-2.04-8.04-5.01-16.8-5.73-16.8
		C806.28,404.7,806.04,404.88,805.95,405.061z"/>
	<path id="structure26_label30_S2" bar:type="" bar:growlevel="0" fill="#E6E98E" d="M809.04,375.66
		c0.12,6.24-0.149,9.39-1.62,19.74c-1.05,7.26-1.08,7.38-0.57,8.91l0.541,1.561l6.182,2.58c14.607,6.147,39.988,15.96,58.229,22.56
		c14.25,5.13,28.98,9.99,30.33,9.99c0.75,0,0.811-0.18,1.86-3.99c4.14-15.147,7.02-30.63,8.608-46.02c0.75-7.38,0.779-9,0.091-9.21
		c-0.3-0.091-20.789-2.4-45.539-5.13s-47.643-5.312-50.853-5.7c-3.21-0.42-6.18-0.75-6.6-0.75h-0.75L809.04,375.66z"/>
	<path id="structure27_label31_S1ULp" bar:type="" bar:growlevel="0" fill="#FDFF76" d="M866.1,235.68
		c-5.01,4.41-20.34,17.312-43.857,36.812c-22.893,18.99-31.41,26.1-37.053,30.93c-1.17,0.99-2.157,2.04-2.157,2.28
		c0,0.24,0.987,2.01,2.25,3.898c4.02,6.15,9.147,17.312,16.619,36.211c3.479,8.729,5.608,15.841,6.601,21.899l0.358,2.16
		l1.079,0.148c2.371,0.36,20.49,2.432,50.462,5.73c17.25,1.89,36.181,3.99,42.091,4.68c5.909,0.66,10.857,1.142,10.947,1.021
		c0.393-0.391,0.24-27.99-0.18-32.102c-3.3-32.58-13.08-61.56-32.699-96.75c-5.068-9.06-11.221-18.899-11.818-18.899
		C868.5,233.7,867.33,234.6,866.1,235.68z"/>
	<path id="structure28_label32_S1FL" bar:type="" bar:growlevel="0" fill="#FEFFB2" d="M700.2,127.62c0,0.09-0.87,6.48-1.95,14.19
		c-1.05,7.71-4.439,32.46-7.47,54.99c-3.063,22.53-5.97,43.92-6.48,47.521c-0.479,3.63-0.84,6.63-0.78,6.688
		c0.03,0.062,3.183,1.021,6.962,2.16c21.209,6.42,43.858,15.45,56.068,22.35c5.7,3.24,16.41,10.8,22.353,15.75
		c1.408,1.17,2.76,2.1,3.027,2.07c0.48-0.09,10.563-8.91,37.473-32.79c32.038-28.438,47.397-42.57,47.397-43.62
		c0-1.08-9.989-12.358-17.43-19.68c-13.95-13.71-28.53-24.69-49.83-37.44c-7.32-4.41-11.79-6.87-17.88-9.93
		c-19.53-9.78-41.91-17.13-65.49-21.48C701.311,127.53,700.2,127.38,700.2,127.62z"/>
	<path id="structure29_label33_M1" bar:type="" bar:growlevel="0" fill="#FBFF8E" d="M639.42,130.38
		c0.9,34.14,1.771,66.3,2.13,78.72c0.24,8.16,0.511,18.99,0.63,24.03l0.211,9.15l3.932,0.36c8.188,0.75,15.81,2.28,23.277,4.71
		c4.683,1.53,12,3.45,13.17,3.45c0.45,0,0.603-0.42,0.871-2.49c0.659-5.01,13.05-96.15,14.609-107.61
		c0.9-6.51,1.65-12.18,1.65-12.63c0-0.78-0.03-0.78-4.41-1.41c-14.67-2.16-28.95-3.271-45.813-3.57l-10.438-0.18L639.42,130.38z"/>
	<path id="structure30_label34_M2" bar:type="" bar:growlevel="0" fill="#E2E923" d="M630.9,123.21
		c-17.61,1.32-34.32,6.03-47.82,13.44c-5.189,2.88-7.68,4.53-7.68,5.19c0,0.3,1.89,4.5,4.229,9.36
		c2.312,4.86,9.75,20.46,16.471,34.65c15.091,31.77,26.909,56.58,27.091,56.73c0.061,0.09,0.931-0.09,1.891-0.33
		c1.47-0.39,2.91-0.45,8.521-0.3c3.722,0.09,7.199,0.24,7.739,0.33l1.021,0.147l-0.209-5.34c-0.091-2.94-0.511-17.37-0.9-32.04
		c-0.42-14.7-0.96-33.99-1.2-42.9c-0.237-8.91-0.54-21.36-0.658-27.69L639.21,123l-3.479,0.06
		C633.811,123.09,631.65,123.15,630.9,123.21z"/>
	<path id="structure31_label35_Cg1" bar:type="" bar:growlevel="0" fill="#F1F48E" d="M570.6,144.69
		c-13.979,10.5-23.188,22.38-27.869,36.03c-2.011,5.79-2.431,8.49-2.431,15.271v5.85l26.341,13.5
		c55.142,28.26,55.199,28.32,55.859,28.11c0.33-0.09,0.6-0.33,0.6-0.51s-1.647-3.69-3.63-7.86c-2.01-4.14-11.34-23.73-20.76-43.53
		c-9.39-19.8-18.54-39.03-20.31-42.75c-1.771-3.72-3.393-6.78-3.632-6.84C574.53,141.93,572.67,143.16,570.6,144.69z"/>
	<path id="structure32_label36_Cg2" bar:type="" bar:growlevel="0" fill="#DBDF6B" d="M540.3,249.63
		c0,53.49-0.239,48.33,2.432,51.03c0.959,0.96,1.829,1.5,2.851,1.8l1.47,0.42l-1.56,0.81c-0.87,0.45-1.71,1.11-1.92,1.47
		c-0.603,1.17-1.83,2.31-2.7,2.49c-0.721,0.148-0.87,0.358-0.87,1.08v0.868h2.43c2.313,0,2.432-0.028,3.182-0.898
		c1.108-1.32,2.341-1.86,4.41-1.891c2.398-0.061,4.561,0.569,5.311,1.529l0.6,0.78l4.11-0.54c6-0.78,11.521-2.25,15.18-4.05
		c9.69-4.771,21.33-15.18,28.021-25.05c3.028-4.44,4.14-6.6,8.159-16.08c4.261-9.99,6.688-14.85,8.729-17.37
		c0.811-1.021,1.47-1.95,1.47-2.102c0-0.359-0.93-0.81-45.84-23.85c-19.199-9.84-35.01-17.88-35.188-17.88
		C540.42,202.2,540.3,220.35,540.3,249.63z"/>
	<path fill="#97FF59" d="M803.67,350.67c-1.68-4.62-9.27-23.16-11.729-28.62c-2.88-6.39-6.33-12.3-10.229-17.55
		c-2.7-3.57-10.14-11.1-14.311-14.43c-4.052-3.24-13.199-9.78-17.159-12.271c-14.102-8.82-46.563-21.479-71.04-27.69l-3.75-0.96
		l-7.353,0.06c-12.897,0.12-24.27,0.99-29.038,2.22c-2.609,0.66-5.972,2.16-8.069,3.601c-3.722,2.55-8.222,7.74-12.99,14.97
		c-5.67,8.58-12.78,16.62-19.5,21.99c-6.33,5.07-14.01,9.45-20.55,11.729c-1.65,0.57-3.78,1.38-4.74,1.8
		c-5.58,2.52-15.688,3.99-29.31,4.292c-1.326,0.026-2.621,0.038-3.9,0.043V341.7c6.863-0.015,25.099-4.808,37.74-9.959
		c4.648-1.86,14.55-6.78,18.39-9.12c8.13-4.92,18.54-12.602,28.021-20.64c9.357-7.95,20.76-17.25,22.619-18.42
		c6.271-4.02,15.358-6.99,25.381-8.34c5.34-0.72,17.97-0.75,24.449-0.03c23.729,2.64,44.368,10.71,62.521,24.45
		c8.64,6.54,17.61,15.628,23.46,23.76c13.65,18.96,21.15,48.358,19.32,75.659c-1.23,17.762-4.74,37.289-9.603,53.279
		c-2.369,7.83-5.397,18.9-5.397,19.771c0,0.39,0.18,0.688,0.39,0.688s1.17-2.34,2.25-5.489c1.05-3,2.97-8.221,4.26-11.608
		c3.36-8.853,5.433-16.683,8.82-33.603c3.899-19.438,6.479-37.38,6.479-45.028C809.1,369.21,807.42,360.99,803.67,350.67z"/>
	<path fill="#83E900" d="M600.12,569.25c-5.19-6.42-11.91-16.11-16.83-24.3c-5.431-9.03-14.94-27.48-17.729-34.353
		c-2.461-6.09-3.181-9.06-6.061-24.93c-5.34-29.67-4.77-27.51-10.8-40.62c-1.352-2.97-3.061-6.988-3.78-8.938
		c-2.18-5.89-3.57-8.346-4.92-8.331v108.912c1.771-0.25,3.012,2.509,4.23,9.009c0.987,5.46,3.18,10.319,6.479,14.397
		c3.63,4.53,23.102,19.86,28.74,22.62c6.987,3.45,14.58,4.38,19.08,2.37c3.84-1.74,5.76-4.229,5.789-7.438
		C604.32,575.16,603.391,573.27,600.12,569.25z"/>
	<path id="structure5_label0_AcbSh" bar:type="" bar:growlevel="0" fill="#E9DA00" d="M605.85,444.99
		c-5.52,2.91-10.59,6.75-16.26,12.3c-6.06,5.94-10.26,12.18-11.97,17.76c-0.811,2.58-0.84,2.97-0.84,9c0,5.761,0.06,6.78,0.988,12
		c1.109,6.391,2.012,10.141,5.25,21.54c2.939,10.26,4.319,14.221,6.632,18.96c2.76,5.61,5.817,10.95,6.33,10.95
		c0.567,0,0.538-0.51-0.212-2.58c-0.448-1.2-0.659-2.55-0.688-4.229c-0.03-2.13,0.061-2.521,0.63-3.148
		c0.81-0.84,3.271-1.8,4.681-1.8c1.771,0,3.392,1.17,8.399,6c6.63,6.39,11.25,9.6,19.86,13.83c2.31,1.14,5.55,2.64,7.197,3.33
		c4.23,1.8,9.87,4.647,12,6.09c4.262,2.91,5.91,5.1,7.353,9.81c1.47,4.83,2.28,6.091,4.53,7.021c1.527,0.63,5.25,0.93,6.81,0.51
		c1.86-0.51,3.06-1.92,5.25-6.27c2.88-5.643,4.8-8.013,7.71-9.513c1.38-0.72,4.08-0.66,5.82,0.12c1.14,0.48,1.5,0.87,2.31,2.49
		c1.5,3,2.852,4.14,4.86,4.14c1.35,0,2.67-0.93,5.699-4.02c4.108-4.17,7.229-5.28,15.658-5.46c4.291-0.063,5.61-0.21,8.07-0.841
		c1.62-0.449,3.45-0.779,4.08-0.779h1.107l0.15-2.19c0.09-1.229,0.57-3.42,1.141-5.159c1.199-3.688,5.102-12.301,7.682-17.011
		c1.05-1.92,1.92-3.63,1.92-3.778c0-0.239-42.72-8.489-43.92-8.461c-0.33,0-0.9,0.302-1.32,0.659c-1.02,0.99-3.6,0.99-4.68-0.027
		c-0.42-0.393-0.78-1.053-0.84-1.5c-0.092-0.75-0.271-0.813-5.762-2.132c-4.648-1.08-5.698-1.261-5.818-0.931
		c-0.54,1.65-5.16,4.23-8.82,4.98c-3.06,0.6-9.898,0.6-13.17-0.03c-11.398-2.103-26.55-10.59-36.63-20.521
		c-2.67-2.607-3.391-3.539-4.26-5.397c-3.33-7.05-3.722-17.58-1.2-34.2c0.45-3,0.42-3.36-0.15-7.35
		c-0.63-4.5-1.08-8.521-1.409-12.99c-0.148-2.28-0.271-2.76-0.688-2.76C609.061,443.4,607.5,444.12,605.85,444.99z"/>
	<path id="structure62_label73_cg" bar:type="" bar:growlevel="0" fill="#3FFF00" d="M624.15,242.67
		c-3.78,1.71-6.24,5.67-12.091,19.38c-4.352,10.2-5.7,12.93-8.399,16.98c-5.04,7.5-14.101,16.53-21.57,21.51
		c-1.529,1.02-2.07,1.86-1.14,1.86c0.688,0,5.25-2.19,8.31-3.99c10.771-6.36,20.221-15.78,28.95-28.74
		c9.87-14.67,15.181-18.3,28.71-19.62c5.73-0.54,15.54-1.05,20.91-1.05c5.49,0,5.52-0.36,0.21-2.04
		c-10.08-3.18-23.07-4.86-37.29-4.86C626.16,242.1,625.17,242.19,624.15,242.67z"/>
	<path fill="#97FF59" d="M803.67,350.67c-1.68-4.62-9.27-23.16-11.729-28.62c-2.88-6.39-6.33-12.3-10.229-17.55
		c-2.7-3.57-10.14-11.1-14.311-14.43c-4.052-3.24-13.199-9.78-17.159-12.271c-14.102-8.82-46.563-21.479-71.04-27.69l-3.75-0.96
		l-7.353,0.06c-12.897,0.12-24.27,0.99-29.038,2.22c-2.609,0.66-5.972,2.16-8.069,3.601c-3.722,2.55-8.222,7.74-12.99,14.97
		c-5.67,8.58-12.78,16.62-19.5,21.99c-6.33,5.07-14.01,9.45-20.55,11.729c-1.65,0.57-3.78,1.38-4.74,1.8
		c-5.58,2.52-15.688,3.99-29.31,4.292c-1.326,0.026-2.621,0.038-3.9,0.043V341.7c6.863-0.015,25.099-4.808,37.74-9.959
		c4.648-1.86,14.55-6.78,18.39-9.12c8.13-4.92,18.54-12.602,28.021-20.64c9.357-7.95,20.76-17.25,22.619-18.42
		c6.271-4.02,15.358-6.99,25.381-8.34c5.34-0.72,17.97-0.75,24.449-0.03c23.729,2.64,44.368,10.71,62.521,24.45
		c8.64,6.54,17.61,15.628,23.46,23.76c13.65,18.96,21.15,48.358,19.32,75.659c-1.23,17.762-4.74,37.289-9.603,53.279
		c-2.369,7.83-5.397,18.9-5.397,19.771c0,0.39,0.18,0.688,0.39,0.688s1.17-2.34,2.25-5.489c1.05-3,2.97-8.221,4.26-11.608
		c3.36-8.853,5.433-16.683,8.82-33.603c3.899-19.438,6.479-37.38,6.479-45.028C809.1,369.21,807.42,360.99,803.67,350.67z"/>
	<path id="structure64_label75_lo" bar:type="" bar:growlevel="0" fill="#B8FF00" d="M801.27,575.97
		c-3.06,0.66-7.647,2.433-9.72,3.78c-1.89,1.2-4.8,4.29-6.75,7.17c-1.92,2.88-5.7,9.63-5.7,10.23c0,0.63,0.512,0.6,6.541-0.603
		c13.739-2.76,19.471-5.43,28.289-13.229c1.44-1.32,2.643-2.58,2.67-2.853c0-0.897-2.1-2.938-4.08-3.897
		c-1.829-0.9-2.25-0.99-5.34-1.08C804.75,575.43,803.16,575.55,801.27,575.97z"/>
	<path id="structure65_label76_aca" bar:type="" bar:growlevel="0" fill="#DBFFB2" d="M622.92,482.34
		c-2.55,1.62-2.55,6.96,0.03,12.063c3.659,7.288,14.43,16.71,20.909,18.329c3.181,0.778,3.721-0.271,2.671-5.489
		c-0.78-3.96-2.73-9.99-3.99-12.24c-2.55-4.62-7.59-9.84-11.37-11.85c-1.979-1.053-2.49-1.171-4.77-1.29
		C624.27,481.77,623.7,481.86,622.92,482.34z"/>
	<path id="structure66_label77_mfb" bar:type="" bar:growlevel="0" fill="#925FDC" d="M597.66,536.43
		c-2.101,0.813-2.61,1.65-2.58,4.17c0.061,2.4,0.93,5.131,4.02,12.9c2.37,5.91,4.98,13.14,7.052,19.5
		c1.261,3.9,1.198,3.84,5.551,6.75c5.1,3.42,10.92,6,17.397,7.71c3.75,0.99,5.94,1.14,22.95,1.62c7.17,0.18,7.71,0.15,12.602-0.63
		c5.039-0.78,15.75-2.853,17.938-3.45c0.75-0.24,1.11-0.51,1.11-0.87c0-0.81,1.17-2.16,2.31-2.64c0.601-0.24,3.03-0.54,6.03-0.722
		c2.76-0.148,6.899-0.421,9.21-0.568c2.312-0.15,5.73-0.3,7.59-0.3c4.71,0,17.131-2.07,24.631-4.143c1.92-0.51,1.92-0.51,2.459-2.01
		c2.223-6.3-1.83-11.37-9.027-11.37c-1.771,0.03-3.48,0.24-5.553,0.78c-2.55,0.66-3.658,0.777-7.35,0.81
		c-4.979,0-8.938,0.69-11.641,2.013c-1.079,0.539-2.521,1.709-4.26,3.51c-3.302,3.358-3.959,3.81-5.762,3.81
		c-1.229,0-1.62-0.147-2.64-1.08c-0.66-0.6-1.591-1.92-2.07-2.909c-1.05-2.25-2.067-2.938-4.68-3.119
		c-2.521-0.209-3.721,0.238-5.853,2.221c-1.979,1.83-3.6,4.229-5.368,7.95c-2.399,5.067-3.841,6.237-7.62,6.237
		c-5.159,0-6.959-1.47-8.762-7.14c-1.317-4.11-1.68-4.89-3.06-6.569c-2.31-2.881-6.96-5.729-15.36-9.421
		c-14.58-6.42-19.739-9.659-27.989-17.579C602.4,535.62,601.26,535.05,597.66,536.43z"/>
	<path id="structure67_label78_LSS" bar:type="" bar:growlevel="0" fill="#8F6BE1" d="M744.15,529.2c-2.07,1.02-4.98,3.6-6.211,5.52
		c-0.63,0.99-2.159,3.78-3.359,6.183c-5.01,9.897-7.8,17.76-7.26,20.31c0.18,0.75,0.448,0.9,2.22,1.38
		c3.06,0.841,3.72,0.813,4.17-0.148c0.21-0.42,0.72-2.279,1.14-4.109c1.2-5.46,4.65-12.87,9.42-20.25
		c3.063-4.71,3.99-6.689,3.871-8.189c-0.091-1.108-0.121-1.141-1.438-1.229C745.8,528.6,744.93,528.78,744.15,529.2z"/>
	<path id="structure68_label79_ICj" bar:type="" bar:growlevel="0" fill="#E9DB00" d="M620.04,595.5
		c-8.13,2.76-11.82,6.18-11.19,10.35c0.302,2.131,1.683,3.15,4.32,3.15c2.28,0,4.74-0.78,8.7-2.73c4.319-2.188,6.75-4.229,7.08-6.09
		c0.33-1.647-0.33-3.63-1.561-4.68c-0.899-0.811-1.229-0.9-2.882-0.9C623.25,594.6,621.811,594.9,620.04,595.5z"/>
	<path id="structure69_label80_SIB" bar:type="" bar:growlevel="0" fill="#FFE600" d="M579.42,511.71
		c-0.33,3.3-0.24,13.351,0.15,17.79c0.21,2.07,0.63,5.49,0.96,7.65c0.72,4.47,0.93,4.947,5.609,12.3
		c6,9.45,12.988,18.989,17.101,23.31c2.43,2.521,3.358,3.15,3.358,2.222c0-0.659-4.801-14.489-6.448-18.632
		c-0.841-2.158-2.521-5.397-4.143-8.1c-4.29-7.05-8.31-15.27-9.93-20.189c-1.563-4.738-5.28-17.641-5.28-18.271
		c0-0.21-0.27-0.39-0.567-0.39C579.72,509.4,579.63,509.73,579.42,511.71z"/>
	<path id="structure6_label1_AcbC" bar:type="" bar:growlevel="0" fill="#FFF359" d="M614.85,446.311
		c0.302,4.979,0.69,7.949,1.65,12.209c2.28,10.291,2.55,17.91,0.66,18.633c-1.17,0.447-2.58-2.461-3.87-8.04
		c-0.45-1.921-0.96-3.513-1.14-3.513c-0.723,0-1.95,12.092-1.95,19.053c0,8.487,1.14,14.1,3.63,17.817
		c2.1,3.15,8.729,8.853,15.479,13.32c8.459,5.61,16.021,9.03,23.521,10.62c3.45,0.72,11.82,0.72,14.82,0
		c2.34-0.57,5.817-2.16,6.027-2.76c0.091-0.211-0.118-0.69-0.447-1.021c-0.78-0.78-1.053-1.859-0.813-3.09
		c0.42-2.04,1.95-2.67,2.82-1.141c0.658,1.171,1.438,1.171,1.68-0.029c0.9-4.562-1.021-10.892-4.858-16.05
		c-4.291-5.79-9.092-10.08-22.409-20.07c-11.58-8.7-16.08-12.39-20.881-17.22c-4.289-4.29-5.91-6.57-7.352-10.11
		c-2.521-6.21-5.489-11.82-6.3-11.82C614.7,443.1,614.67,443.52,614.85,446.311z M628.83,482.1c5.1,1.563,11.52,7.98,14.52,14.49
		c1.74,3.78,3.75,11.19,3.75,13.892c0,1.979-0.39,2.521-1.83,2.521c-3.567,0-10.47-4.47-16.317-10.562
		c-4.8-4.948-7.23-9.148-7.98-13.618c-0.3-1.803-0.27-2.37,0.12-3.75C622.05,481.77,624.63,480.78,628.83,482.1z"/>
	<path id="structure70_label81_PLd" bar:type="" bar:growlevel="0" fill="#6D2FE9" d="M555.48,409.561
		c-1.053,1.5-0.36,5.342,1.92,10.709c1.738,4.143,2.697,7.803,3.897,14.82c0.99,5.91,2.04,9.75,3.36,12.45
		c3.3,6.69,7.438,3.72,7.438-5.34c0-5.103-0.63-7.11-4.8-15.36c-1.979-3.898-4.229-8.55-4.95-10.319
		c-1.647-3.898-2.49-5.398-3.778-6.658C557.37,408.689,556.141,408.6,555.48,409.561z"/>
	<path id="structure72_label83_E" bar:type="" bar:growlevel="0" fill="#FF0045" d="M630.54,296.64c-4.89,4.08-8.91,7.59-8.91,7.77
		c-0.03,0.21,0.15,0.39,0.39,0.39c1.053,0,1.11,0.78,0.212,3.181c-0.962,2.641-2.852,9.931-4.109,15.869
		c-0.84,3.87-0.84,3.99-0.78,13.802c0.091,10.47-0.27,18.479-1.62,36c-0.778,10.35-1.407,16.829-1.92,19.71
		c-0.448,2.488-1.17,4.68-1.59,4.949c-0.63,0.392-1.859,28.352-1.859,41.489c0.029,9.24,0.119,11.313,0.689,15.63
		c2.068,15.631,4.59,23.61,6.66,21.09c1.17-1.35,0.479-9.987-1.5-18.84c-0.48-2.16-1.051-5.607-1.23-7.68
		c-0.51-4.89-0.51-19.53-0.028-24.15c0.841-8.31,1.318-16.26,1.561-27.147c0.15-6.36,0.48-14.19,0.72-17.4
		c1.021-13.02,1.44-21.898,1.65-36.75l0.239-15.6l1.229-3.602c2.102-6.3,6.99-17.068,10.229-22.68c0.841-1.41,2.881-4.14,4.528-6.12
		c3.631-4.2,5.4-6.54,5.4-6.99C640.5,288.57,638.7,289.86,630.54,296.64z"/>
	<path id="structure73_label84_IG" bar:type="" bar:growlevel="0" fill="#B2FF00" d="M547.68,307.2
		c-1.05,0.33-2.278,1.438-2.278,2.04c0,0.39,0.688,0.42,4.739,0.21c2.579-0.12,4.8-0.271,4.949-0.36c0.51-0.3,0.15-1.02-0.75-1.5
		C553.2,307.02,549.03,306.75,547.68,307.2z"/>
	<path id="structure74_label85_ICj" bar:type="" bar:growlevel="0" fill="#E9DB00" d="M694.65,580.74
		c-7.53,0.479-8.67,0.66-9.87,1.59c-1.021,0.81-1.05,2.16-0.063,2.82c1.263,0.84,3.69,0.84,11.73-0.03
		c10.47-1.14,20.188-1.17,27-0.15c6.658,1.021,7.29,1.05,7.8,0.63c0.688-0.567,0.54-1.647-0.271-2.039
		c-1.17-0.541-9.898-2.398-13.62-2.908C713.16,580.08,704.311,580.11,694.65,580.74z"/>
	<path id="structure78_label89_mcer" bar:type="" bar:growlevel="0" fill="#D86BC8" d="M903.6,444.33
		c-2.58,2.85-4.56,10.02-3.539,12.87c0.359,0.93,0.512,1.05,1.439,1.05c0.9,0,1.17-0.18,1.98-1.38
		c2.158-3.24,3.6-10.891,2.397-12.72C905.22,443.16,904.65,443.189,903.6,444.33z"/>
	<path id="structure7_label2_LAcbSh" bar:type="" bar:growlevel="0" fill="#FFFAB2" d="M605.85,444.99
		c-5.52,2.91-10.59,6.75-16.26,12.3c-6.06,5.94-10.26,12.18-11.97,17.76c-0.811,2.58-0.84,2.97-0.84,9c0,5.761,0.06,6.78,0.988,12
		c1.109,6.391,2.012,10.141,5.25,21.54c2.939,10.26,4.319,14.221,6.632,18.96c2.76,5.61,5.817,10.95,6.33,10.95
		c0.567,0,0.538-0.51-0.212-2.58c-0.448-1.2-0.659-2.55-0.688-4.229c-0.03-2.13,0.061-2.521,0.63-3.148
		c0.81-0.84,3.271-1.8,4.681-1.8c1.771,0,3.392,1.17,8.399,6c6.63,6.39,11.25,9.6,19.86,13.83c2.31,1.14,5.55,2.64,7.197,3.33
		c4.23,1.8,9.87,4.647,12,6.09c4.262,2.91,5.91,5.1,7.353,9.81c1.47,4.83,2.28,6.091,4.53,7.021c1.527,0.63,5.25,0.93,6.81,0.51
		c1.86-0.51,3.06-1.92,5.25-6.27c2.88-5.643,4.8-8.013,7.71-9.513c1.38-0.72,4.08-0.66,5.82,0.12c1.14,0.48,1.5,0.87,2.31,2.49
		c1.5,3,2.852,4.14,4.86,4.14c1.35,0,2.67-0.93,5.699-4.02c4.108-4.17,7.229-5.28,15.658-5.46c4.291-0.063,5.61-0.21,8.07-0.841
		c1.62-0.449,3.45-0.779,4.08-0.779h1.107l0.15-2.19c0.09-1.229,0.57-3.42,1.141-5.159c1.199-3.688,5.102-12.301,7.682-17.011
		c1.05-1.92,1.92-3.63,1.92-3.778c0-0.239-42.72-8.489-43.92-8.461c-0.33,0-0.9,0.302-1.32,0.659c-1.02,0.99-3.6,0.99-4.68-0.027
		c-0.42-0.393-0.78-1.053-0.84-1.5c-0.092-0.75-0.271-0.813-5.762-2.132c-4.648-1.08-5.698-1.261-5.818-0.931
		c-0.54,1.65-5.16,4.23-8.82,4.98c-3.06,0.6-9.898,0.6-13.17-0.03c-11.398-2.103-26.55-10.59-36.63-20.521
		c-2.67-2.607-3.391-3.539-4.26-5.397c-3.33-7.05-3.722-17.58-1.2-34.2c0.45-3,0.42-3.36-0.15-7.35
		c-0.63-4.5-1.08-8.521-1.409-12.99c-0.148-2.28-0.271-2.76-0.688-2.76C609.061,443.4,607.5,444.12,605.85,444.99z"/>
	<path id="structure82_label93_acer" bar:type="" bar:growlevel="0" fill="#F200DD" d="M554.85,574.561
		c-0.959,0.512-1.35,1.17-1.35,2.369c0,0.87,0.18,1.261,0.78,1.74c1.05,0.811,2.55,1.08,3.84,0.63c3.3-1.08,2.28-5.1-1.261-5.1
		C556.08,574.2,555.18,574.38,554.85,574.561z"/>
	<path fill="#DDFFB2" d="M600.12,569.25c-5.19-6.42-11.91-16.11-16.83-24.3c-5.431-9.03-14.94-27.48-17.729-34.353
		c-2.461-6.09-3.181-9.06-6.061-24.93c-5.34-29.67-4.77-27.51-10.8-40.62c-1.352-2.97-3.061-6.988-3.78-8.938
		c-2.18-5.89-3.57-8.346-4.92-8.331v108.912c1.771-0.25,3.012,2.509,4.23,9.009c0.987,5.46,3.18,10.319,6.479,14.397
		c3.63,4.53,23.102,19.86,28.74,22.62c6.987,3.45,14.58,4.38,19.08,2.37c3.84-1.74,5.76-4.229,5.789-7.438
		C604.32,575.16,603.391,573.27,600.12,569.25z"/>
	<path fill="#77D400" d="M557.43,442.5c-3.028-13.47-2.789-12.66-10.14-35.7c-3.899-12.27-4.08-12.898-4.47-16.92
		c-0.24-2.28-0.57-4.68-0.78-5.34c-0.367-1.274-1.188-2.008-2.04-2.012v45.303c1.465-0.039,2.922,2.56,4.83,7.799
		c0.689,1.89,2.76,6.78,4.62,10.92c1.859,4.11,3.898,8.94,4.5,10.71c1.08,3.09,1.17,3.24,1.95,3.24c0.539,0,1.17-0.33,1.739-0.9
		C560.01,457.26,559.95,453.78,557.43,442.5z"/>
	<path fill="#8CFF00" d="M554.37,339.39c-0.39,0.12-3.09,0.69-5.97,1.32c-4.11,0.84-5.94,1.08-8.4,1.08v34.673
		c2.508,0.077,3.417-0.037,5.01-0.503c6.84-2.1,9.15-9.3,9.87-30.63l0.21-6.12L554.37,339.39z"/>
	<path fill="#69FF00" d="M803.67,350.67c-1.68-4.62-9.27-23.16-11.729-28.62c-2.88-6.39-6.33-12.3-10.229-17.55
		c-2.7-3.57-10.14-11.1-14.311-14.43c-4.052-3.24-13.199-9.78-17.159-12.271c-14.102-8.82-46.563-21.479-71.04-27.69l-3.75-0.96
		l-7.353,0.06c-12.897,0.12-24.27,0.99-29.038,2.22c-2.609,0.66-5.972,2.16-8.069,3.601c-3.722,2.55-8.222,7.74-12.99,14.97
		c-5.67,8.58-12.78,16.62-19.5,21.99c-6.33,5.07-14.01,9.45-20.55,11.729c-1.65,0.57-3.78,1.38-4.74,1.8
		c-5.58,2.52-15.688,3.99-29.31,4.292c-1.326,0.026-2.621,0.038-3.9,0.043V341.7c6.863-0.015,25.099-4.808,37.74-9.959
		c4.648-1.86,14.55-6.78,18.39-9.12c8.13-4.92,18.54-12.602,28.021-20.64c9.357-7.95,20.76-17.25,22.619-18.42
		c6.271-4.02,15.358-6.99,25.381-8.34c5.34-0.72,17.97-0.75,24.449-0.03c23.729,2.64,44.368,10.71,62.521,24.45
		c8.64,6.54,17.61,15.628,23.46,23.76c13.65,18.96,21.15,48.358,19.32,75.659c-1.23,17.762-4.74,37.289-9.603,53.279
		c-2.369,7.83-5.397,18.9-5.397,19.771c0,0.39,0.18,0.688,0.39,0.688s1.17-2.34,2.25-5.489c1.05-3,2.97-8.221,4.26-11.608
		c3.36-8.853,5.433-16.683,8.82-33.603c3.899-19.438,6.479-37.38,6.479-45.028C809.1,369.21,807.42,360.99,803.67,350.67z"/>
	<path id="structure8_label3_VP" bar:type="" bar:growlevel="0" fill="#FFE900" d="M597.66,536.43c-2.101,0.813-2.61,1.65-2.58,4.17
		c0.061,2.4,0.93,5.131,4.02,12.9c2.37,5.91,4.98,13.14,7.052,19.5c1.261,3.9,1.198,3.84,5.551,6.75c5.1,3.42,10.92,6,17.397,7.71
		c3.75,0.99,5.94,1.14,22.95,1.62c7.17,0.18,7.71,0.15,12.602-0.63c5.039-0.78,15.75-2.853,17.938-3.45
		c0.75-0.24,1.11-0.51,1.11-0.87c0-0.81,1.17-2.16,2.31-2.64c0.601-0.24,3.03-0.54,6.03-0.722c2.76-0.148,6.899-0.421,9.21-0.568
		c2.312-0.15,5.73-0.3,7.59-0.3c4.71,0,17.131-2.07,24.631-4.143c1.92-0.51,1.92-0.51,2.459-2.01c2.223-6.3-1.83-11.37-9.027-11.37
		c-1.771,0.03-3.48,0.24-5.553,0.78c-2.55,0.66-3.658,0.777-7.35,0.81c-4.979,0-8.938,0.69-11.641,2.013
		c-1.079,0.539-2.521,1.709-4.26,3.51c-3.302,3.358-3.959,3.81-5.762,3.81c-1.229,0-1.62-0.147-2.64-1.08
		c-0.66-0.6-1.591-1.92-2.07-2.909c-1.05-2.25-2.067-2.938-4.68-3.119c-2.521-0.209-3.721,0.238-5.853,2.221
		c-1.979,1.83-3.6,4.229-5.368,7.95c-2.399,5.067-3.841,6.237-7.62,6.237c-5.159,0-6.959-1.47-8.762-7.14
		c-1.317-4.11-1.68-4.89-3.06-6.569c-2.31-2.881-6.96-5.729-15.36-9.421c-14.58-6.42-19.739-9.659-27.989-17.579
		C602.4,535.62,601.26,535.05,597.66,536.43z"/>
	<path id="structure91_text7414_Pir-2" bar:type="" bar:growlevel="0" fill="#F3FF59" d="M842.4,528.63
		c-2.07,1.26-4.802,3.931-8.761,8.58c-2.189,2.61-4.62,5.43-5.432,6.271c-2.609,2.818-6.479,4.318-11.16,4.318
		c-3.358,0-5.58-0.42-10.38-1.95c-5.97-1.92-8.76-2.34-14.069-2.159c-7.891,0.302-13.021,2.579-17.641,7.949
		c-3.93,4.592-6.18,8.763-8.939,16.683c-1.288,3.688-2.13,5.607-2.698,6.21c-0.603,0.63-1.893,1.17-5.25,2.25
		c-2.461,0.81-4.472,1.56-4.472,1.71c0,0.148,0.841,1.648,1.892,3.3c1.05,1.68,2.369,3.87,2.91,4.86c1.14,1.979,1.83,2.67,4.08,4.05
		c2.908,1.77,4.68,1.38,6.3-1.353c0.45-0.777,2.13-5.13,3.72-9.688c3.3-9.393,4.62-12.722,6.33-15.931
		c4.35-8.132,11.311-12.239,18.99-11.189c1.5,0.18,5.039,1.17,8.909,2.43c9.841,3.21,10.921,3.45,15.271,3.48
		c3.689,0,3.811-0.03,5.82-1.021c4.647-2.277,14.1-13.56,17.818-21.239c1.079-2.221,1.38-3.209,1.5-4.858
		c0.119-1.8,0.062-2.13-0.511-2.7C845.79,527.79,843.811,527.79,842.4,528.63z"/>
	<path id="structure93_text7416_Pir-3" bar:type="" bar:growlevel="0" fill="#D8E900" d="M809.79,500.46
		c0.09,0.39,0.66,2.19,1.229,4.05c3.449,10.893,2.279,17.4-3.568,20.07c-3.15,1.438-7.682,1.62-14.7,0.51
		c-4.71-0.72-8.79-0.6-11.7,0.33c-3.78,1.2-6.148,3.061-11.22,8.7c-9.33,10.38-12.09,14.819-13.11,21.18
		c-1.108,6.75-1.89,8.7-4.77,11.67c-1.08,1.143-2.432,2.313-3,2.61c-0.57,0.3-1.05,0.72-1.05,0.93c0,0.392,5.01,7.38,5.397,7.53
		c0.42,0.149,8.79-2.58,9.54-3.09c0.932-0.66,1.38-1.65,3.12-6.72c2.641-7.74,5.46-12.87,9.57-17.25
		c4.89-5.223,10.528-7.53,18.42-7.5c4.47,0,7.17,0.479,12.6,2.22c4.98,1.59,6.69,1.92,10.5,1.92c3.841,0,6.603-0.69,8.971-2.25
		c0.87-0.57,3-2.82,5.37-5.641c5.25-6.239,9.239-10.229,11.221-11.159c0.931-0.42,1.561-0.933,1.591-1.23
		c0-0.3-1.562-1.59-3.96-3.33c-7.62-5.43-17.4-13.29-26.34-21.18C810.391,499.74,809.49,499.23,809.79,500.46z"/>
	<path id="structure95_text7418_Pir-1" bar:type="" bar:growlevel="0" fill="#C6D400" d="M847.32,531.57
		c-0.813,4.979-7.2,14.67-14.49,21.96c-6.66,6.63-9.93,6.84-25.38,1.77c-7.47-2.43-8.641-2.7-12.091-2.7
		c-4.352,0-7.439,1.11-10.529,3.75c-4.86,4.17-6.93,8.103-12.33,23.521c-2.76,7.95-3.75,10.08-5.16,11.28
		c-0.81,0.688-1.17,0.777-2.279,0.659c-0.811-0.092-1.829-0.512-2.641-1.08c-1.41-0.989-1.92-1.142-1.92-0.602
		c0,0.182,0.6,1.83,1.35,3.66c0.723,1.86,1.62,4.47,1.98,5.82c0.359,1.38,0.84,2.487,1.02,2.487c0.211,0,1.382-0.479,2.643-1.05
		c1.89-0.87,6.239-2.16,10.14-2.97c0.603-0.12,1.17-0.9,2.853-3.99c3.027-5.55,5.31-8.88,8.039-11.729
		c2.041-2.103,2.851-2.73,5.131-3.813c9.147-4.438,17.76-4.38,21.869,0.183c0.721,0.81,1.438,1.47,1.561,1.47
		c0.15,0,1.141-0.87,2.22-1.95c1.71-1.71,2.61-2.25,7.5-4.68c13.32-6.57,18.3-10.74,26.94-22.683c3.33-4.56,8.46-12.357,8.46-12.81
		c0-0.18-0.63-0.66-1.41-1.05c-1.979-0.96-7.29-4.021-10.229-5.94c-1.352-0.87-2.58-1.59-2.7-1.59
		C847.74,529.5,847.5,530.43,847.32,531.57z"/>
	<path id="structure96_text4587_Tu-2" bar:type="" bar:growlevel="0" fill="#FFFAB2" d="M749.7,580.14
		c-1.771,0.96-3.36,2.19-5.13,3.96c-2.82,2.79-4.44,5.07-7.771,10.95c-2.37,4.17-4.02,6.15-5.13,6.15c-0.358,0-1.92-0.63-3.45-1.38
		c-2.369-1.2-3.147-1.44-5.04-1.563c-3.96-0.238-5.1,0.063-18.51,4.893c-4.71,1.71-10.38,3.66-12.6,4.35
		c-13.053,4.021-24.75,5.73-36.271,5.28c-10.89-0.45-16.859-1.771-27.148-6.03l-4.142-1.74l-1.83,0.99
		c-0.989,0.57-2.76,1.38-3.93,1.83c-1.141,0.45-2.13,1.02-2.189,1.23c-0.091,0.51,4.619,3.629,8.25,5.459
		c7.439,3.688,15.63,6.211,24.841,7.591c5.068,0.75,18.568,0.75,23.671,0c10.979-1.65,21.09-4.86,30.027-9.57
		c10.98-5.76,13.021-6.54,16.98-6.601c3.87-0.029,7.8,1.528,11.91,4.681c1.199,0.93,2.278,1.68,2.43,1.68
		c0.359,0,4.439-5.64,9.721-13.38c6.359-9.33,8.699-11.52,12.3-11.52c1.2,0,1.711-0.12,1.711-0.393c0-0.21-1.08-2.159-2.432-4.35
		c-1.89-3.15-2.55-3.96-3.06-3.96C752.55,578.7,751.109,579.33,749.7,580.14z"/>
	<path id="structure98_text4589_Tu-3" bar:type="" bar:growlevel="0" fill="#E9E159" d="M744.3,571.98
		c-3.12,1.47-11.159,4.107-15.3,5.038c-1.891,0.421-5.641,1.142-8.34,1.592c-3.812,0.658-4.86,0.93-4.801,1.26
		c0.061,0.33,0.87,0.569,2.7,0.81c3.868,0.57,11.938,2.46,12.75,2.973c1.8,1.197-0.182,2.817-2.729,2.25
		c-1.86-0.422-10.29-1.44-13.83-1.65c-3.24-0.24-9.3,0.12-18.3,1.05c-6.99,0.722-9.75,0.75-11.58,0.12
		c-1.32-0.479-1.47-0.479-5.7,0.45c-4.859,1.05-8.82,1.8-14.52,2.79c-4.621,0.777-11.19,0.87-22.2,0.27
		c-5.103-0.3-7.562-0.3-9.45-0.06c-3.18,0.42-11.04,0.42-14.4,0.03c-1.41-0.15-5.067-0.723-8.16-1.263
		c-6.868-1.14-7.5-1.05-9.027,1.263c-1.23,1.89-2.37,2.43-5.521,2.64c-2.101,0.12-2.761,0.3-4.08,1.08
		c-0.841,0.51-1.591,1.17-1.648,1.438c-0.063,0.359,1.26,1.529,4.229,3.842c7.109,5.52,14.039,10.5,14.521,10.5
		c0.357,0,0.42-0.183,0.238-0.842c-1.381-5.461,1.262-8.579,10.052-11.851c1.59-0.6,3.567-1.17,4.38-1.26
		c3.148-0.42,5.52,1.62,5.52,4.71c0,1.59-0.72,2.79-2.52,4.32c-0.75,0.63-1.38,1.289-1.38,1.47c0,0.39,9.09,4.02,12.75,5.1
		c6.539,1.891,12.06,2.55,21.39,2.55c7.352,0,13.2-0.567,20.01-1.947c8.25-1.683,14.37-3.57,30.33-9.393
		c7.29-2.64,9.24-3.147,12.42-3.18c2.461,0,2.67,0.03,5.853,1.56c1.829,0.87,3.567,1.563,3.87,1.563c0.959,0,2.64-2.103,5.13-6.48
		c3.18-5.55,4.829-7.948,7.108-10.29c1.922-1.979,5.102-4.229,7.381-5.25c0.778-0.357,1.261-0.777,1.261-1.078
		c0-0.479-1.74-3.119-4.11-6.212C747.63,570.66,747.15,570.66,744.3,571.98z M661.08,593.37c2.13,1.29,2.52,4.71,0.84,7.41
		c-1.17,1.857-2.76,3.12-4.229,3.33c-1.591,0.21-2.608-0.48-3.238-2.16c-0.42-1.08-0.45-1.53-0.15-3.03
		c0.631-3.09,1.802-5.28,3.15-5.85C658.5,592.65,660.12,592.77,661.08,593.37z"/>
	<path id="structure9_label4_CB" bar:type="" bar:growlevel="0" fill="#FFF000" d="M605.85,444.99c-5.52,2.91-10.59,6.75-16.26,12.3
		c-6.06,5.94-10.26,12.18-11.97,17.76c-0.811,2.58-0.84,2.97-0.84,9c0,5.761,0.06,6.78,0.988,12
		c1.109,6.391,2.012,10.141,5.25,21.54c2.939,10.26,4.319,14.221,6.632,18.96c2.76,5.61,5.817,10.95,6.33,10.95
		c0.567,0,0.538-0.51-0.212-2.58c-0.448-1.2-0.659-2.55-0.688-4.229c-0.03-2.13,0.061-2.521,0.63-3.148
		c0.81-0.84,3.271-1.8,4.681-1.8c1.771,0,3.392,1.17,8.399,6c6.63,6.39,11.25,9.6,19.86,13.83c2.31,1.14,5.55,2.64,7.197,3.33
		c4.23,1.8,9.87,4.647,12,6.09c4.262,2.91,5.91,5.1,7.353,9.81c1.47,4.83,2.28,6.091,4.53,7.021c1.527,0.63,5.25,0.93,6.81,0.51
		c1.86-0.51,3.06-1.92,5.25-6.27c2.88-5.643,4.8-8.013,7.71-9.513c1.38-0.72,4.08-0.66,5.82,0.12c1.14,0.48,1.5,0.87,2.31,2.49
		c1.5,3,2.852,4.14,4.86,4.14c1.35,0,2.67-0.93,5.699-4.02c4.108-4.17,7.229-5.28,15.658-5.46c4.291-0.063,5.61-0.21,8.07-0.841
		c1.62-0.449,3.45-0.779,4.08-0.779h1.107l0.15-2.19c0.09-1.229,0.57-3.42,1.141-5.159c1.199-3.688,5.102-12.301,7.682-17.011
		c1.05-1.92,1.92-3.63,1.92-3.778c0-0.239-42.72-8.489-43.92-8.461c-0.33,0-0.9,0.302-1.32,0.659c-1.02,0.99-3.6,0.99-4.68-0.027
		c-0.42-0.393-0.78-1.053-0.84-1.5c-0.092-0.75-0.271-0.813-5.762-2.132c-4.648-1.08-5.698-1.261-5.818-0.931
		c-0.54,1.65-5.16,4.23-8.82,4.98c-3.06,0.6-9.898,0.6-13.17-0.03c-11.398-2.103-26.55-10.59-36.63-20.521
		c-2.67-2.607-3.391-3.539-4.26-5.397c-3.33-7.05-3.722-17.58-1.2-34.2c0.45-3,0.42-3.36-0.15-7.35
		c-0.63-4.5-1.08-8.521-1.409-12.99c-0.148-2.28-0.271-2.76-0.688-2.76C609.061,443.4,607.5,444.12,605.85,444.99z"/>
	
		<text id="label30" bar:growlevel="0" transform="matrix(1 0 0 1 853.0303 403.1553)" fill="#232323" enable-background="new    " font-family="'TimesNewRomanPSMT'" font-size="9">S2</text>
	
		<text id="label31" bar:growlevel="0" transform="matrix(1 0 0 1 842.04 321.2012)" fill="#232323" enable-background="new    " font-family="'TimesNewRomanPSMT'" font-size="9">S1ULp</text>
	
		<text id="label32" bar:growlevel="0" transform="matrix(1 0 0 1 749.6406 215.3125)" fill="#232323" enable-background="new    " font-family="'TimesNewRomanPSMT'" font-size="9">S1FL</text>
	
		<text id="label33" bar:growlevel="0" transform="matrix(1 0 0 1 661.2598 187.7871)" fill="#232323" enable-background="new    " font-family="'TimesNewRomanPSMT'" font-size="9">M1</text>
	
		<text id="label34" bar:growlevel="0" transform="matrix(1 0 0 1 613.2002 184.6572)" fill="#232323" enable-background="new    " font-family="'TimesNewRomanPSMT'" font-size="9">M2</text>
	
		<text id="label35" bar:growlevel="0" transform="matrix(1 0 0 1 572.4902 201.3701)" fill="#232323" enable-background="new    " font-family="'TimesNewRomanPSMT'" font-size="9">Cg1</text>
	
		<text id="label36" bar:growlevel="0" transform="matrix(1 0 0 1 560.3105 258.1396)" fill="#232323" enable-background="new    " font-family="'TimesNewRomanPSMT'" font-size="9">Cg2</text>
	
		<text id="Unlabeled-2483-1794" bar:growlevel="0" transform="matrix(1 0 0 1 740.7002 568.7998)" fill="#232323" enable-background="new    " font-family="'TimesNewRomanPSMT'" font-size="9">CPu</text>
	
		<text id="label8" bar:growlevel="0" transform="matrix(1 0 0 1 595.0303 431.5908)" fill="#232323" enable-background="new    " font-family="'TimesNewRomanPSMT'" font-size="9">LSV</text>
	
		<text id="label0" bar:growlevel="0" transform="matrix(1 0 0 1 583.75 494.2813)" fill="#232323" enable-background="new    " font-family="'TimesNewRomanPSMT'" font-size="9">AcbSh</text>
	
		<text id="label1" bar:growlevel="0" transform="matrix(1 0 0 1 649.8496 518.3164)" fill="#232323" enable-background="new    " font-family="'TimesNewRomanPSMT'" font-size="9">AcbC</text>
	
		<text id="label2" bar:growlevel="0" transform="matrix(1 0 0 1 692.1797 540.6094)" fill="#232323" enable-background="new    " font-family="'TimesNewRomanPSMT'" font-size="9">LAcbSh</text>
	
		<text id="label3" bar:growlevel="0" transform="matrix(1 0 0 1 619.0898 573.3457)" fill="#232323" enable-background="new    " font-family="'TimesNewRomanPSMT'" font-size="9">VP</text>
	
		<text id="label4" bar:growlevel="0" transform="matrix(1 0 0 1 658 577.876)" fill="#232323" enable-background="new    " font-family="'TimesNewRomanPSMT'" font-size="9">CB</text>
	
		<text id="label5" bar:growlevel="0" transform="matrix(1 0 0 1 579.3496 578.916)" fill="#232323" enable-background="new    " font-family="'TimesNewRomanPSMT'" font-size="9">HDB</text>
	
		<text id="label85" bar:growlevel="0" transform="matrix(1 0 0 1 710.6357 581.9541)" fill="#232323" enable-background="new    " font-family="'TimesNewRomanPSMT'" font-size="9">ICj</text>
	
		<text id="label84" bar:growlevel="0" transform="matrix(1 0 0 1 549.8164 308.4492)" fill="#232323" enable-background="new    " font-family="'TimesNewRomanPSMT'" font-size="9">IG</text>
	
		<text id="label81" bar:growlevel="0" transform="matrix(1 0 0 1 563.9697 427.7598)" fill="#232323" enable-background="new    " font-family="'TimesNewRomanPSMT'" font-size="9">PLd</text>
	
		<text id="label80" bar:growlevel="0" transform="matrix(1 0 0 1 584.2402 534.6787)" fill="#232323" enable-background="new    " font-family="'TimesNewRomanPSMT'" font-size="9">SIB</text>
	
		<text id="label83" bar:growlevel="0" transform="matrix(1 0 0 1 626.6406 304.1182)" fill="#232323" enable-background="new    " font-family="'TimesNewRomanPSMT'" font-size="9">E</text>
	
		<text id="text4051-7" bar:growlevel="0" transform="matrix(1 0 0 1 835.2031 249.6543)" fill="#232323" enable-background="new    " font-family="'TimesNewRomanPSMT'" font-size="9">S1DZ</text>
	
		<text id="label89" bar:growlevel="0" transform="matrix(1 0 0 1 903.75 450.7637)" fill="#232323" enable-background="new    " font-family="'TimesNewRomanPSMT'" font-size="9">mcer</text>
	
		<text id="text7418" bar:growlevel="0" transform="matrix(1 0 0 1 811.5947 563.5781)" fill="#232323" enable-background="new    " font-family="'TimesNewRomanPSMT'" font-size="9">Pir-1</text>
	
		<text id="text7416" bar:growlevel="0" transform="matrix(1 0 0 1 810.375 540.9961)" fill="#232323" enable-background="new    " font-family="'TimesNewRomanPSMT'" font-size="9">Pir-3</text>
	
		<text id="text7414" bar:growlevel="0" transform="matrix(1 0 0 1 809.8613 552.8652)" fill="#232323" enable-background="new    " font-family="'TimesNewRomanPSMT'" font-size="9">Pir-2</text>
	
		<text id="label18" bar:growlevel="0" transform="matrix(1 0 0 1 699.9805 379.001)" fill="#232323" enable-background="new    " font-family="'TimesNewRomanPSMT'" font-size="9">CPu</text>
	
		<text id="label12" bar:growlevel="0" transform="matrix(1 0 0 1 741.4102 560.8135)" fill="#232323" enable-background="new    " font-family="'TimesNewRomanPSMT'" font-size="9">IEn</text>
	
		<text id="label16" bar:growlevel="0" transform="matrix(1 0 0 1 571.5195 348.3662)" fill="#232323" enable-background="new    " font-family="'TimesNewRomanPSMT'" font-size="9">LSD</text>
	
		<text id="label17" bar:growlevel="0" transform="matrix(1 0 0 1 601.1895 339.6445)" fill="#232323" enable-background="new    " font-family="'TimesNewRomanPSMT'" font-size="9">LV</text>
	
		<text id="label14" bar:growlevel="0" transform="matrix(1 0 0 1 555.3232 386.8691)" fill="#232323" enable-background="new    " font-family="'TimesNewRomanPSMT'" font-size="9">LSI</text>
	
		<text id="label93" bar:growlevel="0" transform="matrix(1 0 0 1 557.0918 576.5059)" fill="#232323" enable-background="new    " font-family="'TimesNewRomanPSMT'" font-size="9">acer</text>
	
		<text id="label96" bar:growlevel="0" transform="matrix(1 0 0 1 549.8164 474.4004)" fill="#232323" enable-background="new    " font-family="'TimesNewRomanPSMT'" font-size="9">MS</text>
	
		<text id="label97" bar:growlevel="0" transform="matrix(1 0 0 1 545.4004 423.1338)" fill="#232323" enable-background="new    " font-family="'TimesNewRomanPSMT'" font-size="9">Ld</text>
	
		<text id="label98" bar:growlevel="0" transform="matrix(1 0 0 1 547.1807 361.2539)" fill="#232323" enable-background="new    " font-family="'TimesNewRomanPSMT'" font-size="9">SHi</text>
	
		<text id="Unlabeled-2194-1978" bar:growlevel="0" transform="matrix(1 0 0 1 658.7998 597.2998)" fill="#232323" enable-background="new    " font-family="'TimesNewRomanPSMT'" font-size="9">ICj</text>
	
		<text id="Unlabeled-2194-1978_1_" bar:growlevel="0" transform="matrix(1 0 0 1 610.2002 582.5264)" fill="#232323" enable-background="new    " font-family="'TimesNewRomanPSMT'" font-size="9">grey</text>
	
		<text id="text4589" bar:growlevel="0" transform="matrix(1 0 0 1 698.2266 599.7061)" fill="#232323" enable-background="new    " font-family="'TimesNewRomanPSMT'" font-size="9">Tu-3</text>
	
		<text id="text4587" bar:growlevel="0" transform="matrix(1 0 0 1 701.2578 609.1689)" fill="#232323" enable-background="new    " font-family="'TimesNewRomanPSMT'" font-size="9">Tu-2</text>
	
		<text id="label102" bar:growlevel="0" transform="matrix(1 0 0 1 541.9248 305.3281)" fill="#232323" enable-background="new    " font-family="'TimesNewRomanPSMT'" font-size="9">azp</text>
	
		<text id="label78" bar:growlevel="0" transform="matrix(1 0 0 1 740.3701 539.5498)" fill="#232323" enable-background="new    " font-family="'TimesNewRomanPSMT'" font-size="9">LSS</text>
	
		<text id="label79" bar:growlevel="0" transform="matrix(1 0 0 1 617.9785 602.5205)" fill="#232323" enable-background="new    " font-family="'TimesNewRomanPSMT'" font-size="9">ICj</text>
	
		<text id="label74" bar:growlevel="0" transform="matrix(1 0 0 1 774.6504 311.6592)" fill="#232323" enable-background="new    " font-family="'TimesNewRomanPSMT'" font-size="9">ec</text>
	
		<text id="label75" bar:growlevel="0" transform="matrix(1 0 0 1 795.6201 587.6084)" fill="#232323" enable-background="new    " font-family="'TimesNewRomanPSMT'" font-size="9">lo</text>
	
		<text id="label76" bar:growlevel="0" transform="matrix(1 0 0 1 628.2002 498.0918)" fill="#232323" enable-background="new    " font-family="'TimesNewRomanPSMT'" font-size="9">aca</text>
	
		<text id="label77" bar:growlevel="0" transform="matrix(1 0 0 1 675.1699 579.416)" fill="#232323" enable-background="new    " font-family="'TimesNewRomanPSMT'" font-size="9">mfb</text>
	
		<text id="label73" bar:growlevel="0" transform="matrix(1 0 0 1 625.9199 250.8291)" fill="#232323" enable-background="new    " font-family="'TimesNewRomanPSMT'" font-size="9">cg</text>
	
		<text id="text4529" bar:growlevel="0" transform="matrix(1 0 0 1 555 533.2051)" fill="#232323" enable-background="new    " font-family="'TimesNewRomanPSMT'" font-size="9">VDB</text>
	
		<text id="text4591" bar:growlevel="0" transform="matrix(1 0 0 1 710.9355 616.3926)" fill="#232323" enable-background="new    " font-family="'TimesNewRomanPSMT'" font-size="9">Tu-1</text>
	
		<text id="label23" bar:growlevel="0" transform="matrix(1 0 0 1 833.8301 488.6006)" fill="#232323" enable-background="new    " font-family="'TimesNewRomanPSMT'" font-size="9">AID</text>
	
		<text id="label22" bar:growlevel="0" transform="matrix(1 0 0 1 825.29 507.6338)" fill="#232323" enable-background="new    " font-family="'TimesNewRomanPSMT'" font-size="9">AIV</text>
	
		<text id="label21" bar:growlevel="0" transform="matrix(1 0 0 1 794.6504 469.207)" fill="#232323" enable-background="new    " font-family="'TimesNewRomanPSMT'" font-size="9">VCl</text>
	
		<text id="label20" bar:growlevel="0" transform="matrix(1 0 0 1 783.8496 512.3945)" fill="#232323" enable-background="new    " font-family="'TimesNewRomanPSMT'" font-size="9">DEn</text>
	
		<text id="label26" bar:growlevel="0" transform="matrix(1 0 0 1 799.6406 442.7422)" fill="#232323" enable-background="new    " font-family="'TimesNewRomanPSMT'" font-size="9">DCl</text>
	
		<text id="label25" bar:growlevel="0" transform="matrix(1 0 0 1 849.4102 441.2227)" fill="#232323" enable-background="new    " font-family="'TimesNewRomanPSMT'" font-size="9">GI</text>
	
		<text id="label24" bar:growlevel="0" transform="matrix(1 0 0 1 843.7197 465.8369)" fill="#232323" enable-background="new    " font-family="'TimesNewRomanPSMT'" font-size="9">DI</text>
	
		<text id="text3033" bar:growlevel="0" transform="matrix(1 0 0 1 566.3613 330.5615)" fill="#232323" enable-background="new    " font-family="'TimesNewRomanPSMT'" font-size="9">cc</text>
</g>
</svg>
