<?xml version="1.0" encoding="utf-8"?>
<!-- Generator: Adobe Illustrator 16.0.0, SVG Export Plug-In . SVG Version: 6.00 Build 0)  -->
<!DOCTYPE svg PUBLIC "-//W3C//DTD SVG 1.1//EN" "http://www.w3.org/Graphics/SVG/1.1/DTD/svg11.dtd">
<svg version="1.1"
	 id="body" xmlns:bar="http://www.3dbar.org" xmlns:cc="http://creativecommons.org/ns#" xmlns:dc="http://purl.org/dc/elements/1.1/" xmlns:inkscape="http://www.inkscape.org/namespaces/inkscape" xmlns:rdf="http://www.w3.org/1999/02/22-rdf-syntax-ns#" xmlns:sodipodi="http://sodipodi.sourceforge.net/DTD/sodipodi-0.dtd" xmlns:svg="http://www.w3.org/2000/svg" sodipodi:docname="69_pretrace_pretrace_v1.svg" inkscape:version="0.47pre4 r22446"
	 xmlns="http://www.w3.org/2000/svg" xmlns:xlink="http://www.w3.org/1999/xlink" x="0px" y="0px" width="1008px" height="1008px"
	 viewBox="0 0 1008 1008" enable-background="new 0 0 1008 1008" xml:space="preserve">
<sodipodi:namedview  showgrid="false" pagecolor="#ffffff" objecttolerance="10" inkscape:zoom="1.7033601" inkscape:cy="516.6861" inkscape:cx="750.84047" id="namedview5164" guidetolerance="10" gridtolerance="10" borderopacity="1" bordercolor="#666666" inkscape:window-y="24" inkscape:pageshadow="2" inkscape:pageopacity="0" inkscape:current-layer="content" inkscape:window-x="1680" inkscape:window-width="1918" inkscape:object-paths="true" inkscape:window-maximized="1" inkscape:window-height="1128">
	</sodipodi:namedview>
<title  id="title4916">SVG drawing</title>
<desc  id="desc4918">This was produced by version 4.2 of GNU libplot, a free library for exporting 2-D vector graphics.</desc>
<defs>
	
	<rdf:RDF>
		<cc:Work  rdf:about="">
			<dc:format>image/svg+xml</dc:format>
			<dc:type  rdf:resource="http://purl.org/dc/dcmitype/StillImage"></dc:type>
		</cc:Work>
	</rdf:RDF>
	<bar:data  name="coronalcoord" content="0.84"></bar:data>
	
		<bar:data  name="rendererConf" content="{&apos;ReferenceHeight&apos;: 900, &apos;ReferenceWidth&apos;: 1200, &apos;imageSize&apos;: (1200, 900)}">
		</bar:data>
	
		<bar:data  name="tracingConf" content="{&apos;DumpEachStepSVG&apos;: False, &apos;DumpEachStepPNG&apos;: False, &apos;GrowDefaultBoundaryColor&apos;: 200, &apos;CacheLevel&apos;: 5, &apos;NewPathIdTemplate&apos;: &apos;structure%d_%s_%s&apos;, &apos;PoTraceConf&apos;: {&apos;potrace_accuracy_parameter&apos;: &apos;0.001&apos;, &apos;potrace_width_string&apos;: &apos;1200pt&apos;, &apos;potrace_svg_resolution_string&apos;: &apos;300x300&apos;, &apos;potrace_height_string&apos;: &apos;900pt&apos;}, &apos;DetectUnlabelled&apos;: True, &apos;DumpVBrain&apos;: False, &apos;DumpWrongSeed&apos;: True, &apos;DumpDirectory&apos;: &apos;.&apos;, &apos;MinFiterTimesApplication&apos;: 3, &apos;RegionAlreadyTraced&apos;: 100, &apos;UnlabelledTreshold&apos;: 500}">
		</bar:data>
	<bar:data  name="transformationmatrix" content="0.0176211454,-9.5150660793,0.0176211454,-1.5355884426"></bar:data>
</defs>
<g id="content">
	<path fill="#FF000C" d="M913.71,351.3c-1.47-14.52-3.271-25.17-6.54-38.25c-3.18-12.72-6.9-24.45-11.13-35.1
		c-14.851-37.32-44.22-76.11-80.64-106.44c-26.762-22.29-52.92-35.67-86.854-44.49c-29.816-7.71-75.06-11.22-108.479-8.37
		c-13.262,1.14-24.87,3.54-33.42,6.9c-1.474,0.57-3,1.05-3.36,1.05c-0.39,0-0.69,0.12-0.69,0.27c0,0.15-1.288,0.9-2.85,1.68
		c-10.47,5.19-18.21,12.18-25.17,22.74c-6.811,10.32-11.82,21.63-13.71,30.78c-0.274,1.235-0.479,1.738-0.808,1.813v97.221
		c0.02-0.001,0.033-0.005,0.058-0.005c0.271,0,0.479,0.51,0.569,1.26c0.119,0.72,0.271,2.34,0.391,3.6l0.18,2.34h-1.195v255.363
		c0.287-0.011,0.58,0.614,0.955,1.887c1.95,6.84,7.08,14.82,13.98,21.78c8.938,9,20.609,16.59,34.59,22.47
		c7.38,3.12,11.521,5.854,19.11,12.72c6.42,5.791,10.92,9.15,18.18,13.62c13.17,8.07,19.2,10.052,35.521,11.671
		c6.479,0.631,22.591,0.723,27.147,0.149c9.66-1.2,32.16-5.58,43.682-8.46c4.709-1.2,7.979-2.37,17.972-6.45
		c10.56-4.35,14.369-5.818,19.35-7.56c10.32-3.604,22.05-10.17,31.86-17.82c1.83-1.41,6.897-5.01,11.25-7.92
		c9.21-6.24,12.84-8.85,15.6-11.28c1.08-0.989,2.131-1.77,2.34-1.77c0.24,0,0.271,0.42,0.15,1.316
		c-0.181,1.11-0.12,1.383,0.358,1.62c2.552,1.38,10.949-6.566,15.238-14.43c1.32-2.37,1.23-3.03-0.3-2.729
		c-0.72,0.119-1.05,0.093-1.05-0.181c0-0.18,1.47-1.92,3.27-3.84c3.842-4.143,9.092-10.229,11.133-12.931
		c3.721-4.979,4.979-7.683,13.947-30.271l6.271-15.66h0.987c0.813,0,1.173-0.239,2.223-1.59c3.027-3.84,4.89-7.08,6.42-11.311
		c1.2-3.392,3.75-12,3.75-12.722c0-0.87-0.54-1.381-1.438-1.381c-0.899,0-1.08,0.602,2.578-8.55
		c10.563-26.37,16.439-48.42,18.722-70.35C914.46,377.88,914.37,357.93,913.71,351.3z"/>
	<path id="structure2_label100_vBrain" bar:type="" bar:growlevel="0" fill="#FF000C" d="M557.4,574.29
		c-0.42,0.21-0.934,0.75-1.144,1.2c-1.08,2.277,1.92,4.26,3.69,2.46c1.197-1.2,0.896-2.88-0.66-3.69
		C558.48,573.811,558.33,573.811,557.4,574.29z"/>
	<path id="structure100_text4595_Tu-3" bar:type="" bar:growlevel="0" fill="#E9E159" d="M740.85,575.61
		c-4.646,2.698-11.039,6.986-15.688,10.56c-1.86,1.41-4.144,3.15-5.07,3.84c-0.897,0.723-2.31,1.53-3.12,1.801
		c-1.29,0.449-1.47,0.632-1.47,1.353c0,2.04-2.521,2.278-8.398,0.81c-2.552-0.656-4.858-1.02-7.198-1.14l-3.45-0.18l-0.091-1.144
		l-0.09-1.106H684.03c-7.44,0-12.9,0.116-13.98,0.329c-0.96,0.181-3.18,0.897-4.92,1.617c-4.17,1.684-5.88,2.04-8.67,1.894
		c-1.95-0.12-2.7-0.33-4.71-1.38c-1.32-0.66-2.939-1.354-3.6-1.53c-1.74-0.51-8.854-0.813-8.854-0.392
		c0,0.182,0.21,1.229,0.48,2.369c0.27,1.109,0.93,5.131,1.47,8.909c1.229,8.4,1.108,8.16,5.7,9.33
		c11.97,3.063,25.77,3.69,34.56,1.65c1.353-0.33,6.394-2.011,11.224-3.75c14.25-5.19,18.72-6.271,25.47-6.24
		c3.479,0,4.409,0.12,6.688,0.81c1.438,0.422,2.67,0.78,2.729,0.78c0.09,0,1.2-1.53,2.521-3.39c2.971-4.23,4.709-6.36,8.551-10.65
		c5.011-5.58,7.619-6.87,12.181-5.938c2.76,0.566,2.729,0.566,2.729,0.18c0-0.15-1.709-2.82-3.811-5.91
		c-2.729-4.05-3.96-5.67-4.41-5.7C745.02,573.36,743.01,574.35,740.85,575.61z M653.67,596.58c2.13,0.63,3.15,1.65,2.91,2.88
		c-0.33,1.65-1.5,3.57-3.18,5.34c-3.063,3.184-4.62,3.66-6.45,2.07c-2.22-1.95-2.521-3.931-1.021-6.75
		c1.17-2.25,1.65-2.79,3.12-3.45C650.52,595.98,651.63,595.95,653.67,596.58z M677.7,601.35c1.53,0.78,1.59,3.03,0.147,3.69
		c-2.367,1.08-6.209-0.54-5.729-2.43C672.48,601.11,675.811,600.39,677.7,601.35z"/>
	<path id="structure101_text5283_Tu-1" bar:type="" bar:growlevel="0" fill="#FFEF00" d="M615,607.26c0,0.813,9.66,7.41,16.35,11.19
		c6.69,3.81,12.45,6.09,18,7.17c12.99,2.52,32.521,3.12,44.25,1.38c8.67-1.29,31.44-5.73,36.9-7.2l1.26-0.33l-0.21-1.409
		c-0.27-2.131-1.53-4.471-2.79-5.311c-2.25-1.47-11.938-2.64-16.229-1.98c-2.94,0.45-4.893,1.144-9.514,3.36
		c-6.867,3.271-12.209,5.01-18.867,6.181c-4.771,0.843-17.67,0.75-23.853-0.147c-13.89-2.04-30.81-7.05-40.77-12.03
		C617.1,606.9,615,606.51,615,607.26z"/>
	<path id="structure102_text4597_Tu-1" bar:type="" bar:growlevel="0" fill="#FFEF00" d="M757.5,593.37c0,0.3,0.21,1.05,0.45,1.647
		c1.17,2.763-1.562,3.303-4.38,0.869c-1.98-1.71-3.394-2.486-4.5-2.486c-1.354,0-1.563,0.27-2.223,2.55
		c-1.5,5.188-4.921,9.06-8.729,9.87c-0.99,0.21-1.86,0.987-2.55,2.276c-0.604,1.08-0.512,6,0.119,8.16
		c0.449,1.53,0.631,1.74,1.291,1.74c0.93,0,6.117-1.98,18.42-7.021l9.146-3.75l-0.09-1.408c-0.12-2.279-0.898-4.859-2.55-8.342
		c-1.262-2.67-1.74-3.391-2.67-3.961C757.891,592.65,757.5,592.62,757.5,593.37z"/>
	<path id="structure10_label10_IEn" bar:type="" bar:growlevel="0" fill="#5F23ED" d="M768.061,508.86
		c-6.688,9.27-14.067,20.34-19.229,28.89c-8.07,13.32-11.521,24.27-8.938,28.14c1.381,2.07,5.432,6.514,5.908,6.514
		c0.63,0,2.16-1.712,2.854-3.184c0.239-0.54,0.72-2.34,1.05-3.987c0.84-4.172,2.34-8.343,4.95-13.683
		c3.81-7.77,7.619-13.26,11.698-16.739c4.921-4.229,10.648-7.197,16.438-8.431c0.72-0.18,1.2-1.08,0.54-1.08s-6.99-5.85-8.07-7.5
		c-2.1-3.12-3.658-7.979-3.658-11.31c0-0.933-0.118-1.29-0.422-1.29C770.939,505.2,769.53,506.85,768.061,508.86z"/>
	<path id="structure112_Unlabeled-1851-1390_Unlabeled" bar:type="" bar:growlevel="0" fill="#FFB2BA" d="M554.7,416.07
		c0,0.33,0.54,3.21,1.17,6.42c0.63,3.18,1.5,8.01,1.86,10.68c0.6,4.2,0.657,4.891,0.27,5.13c-0.359,0.21-0.3,0.84,0.391,4.261
		c0.569,2.789,0.813,4.893,0.813,7.021c0,3.3,1.08,32.37,1.35,37.02c0.66,10.41,4.71,24.514,10.051,35.07
		c2.643,5.22,8.103,13.5,8.939,13.53c0.45,0,0.45-0.3-0.09-3.78c-0.99-6.03-1.23-27.72-0.33-27.72c0.238,0,0.33-0.78,0.271-2.34
		c-0.028-1.264-0.147-8.04-0.271-15.063c-0.183-11.396-0.15-12.96,0.3-14.7c0.54-2.1,2.37-5.729,3.78-7.526
		c1.35-1.684,1.229-1.921-1.263-2.313c-2.671-0.39-4.261-1.438-5.311-3.479c-0.989-1.92-1.2-5.67-0.479-8.881
		c0.271-1.229,0.567-2.699,0.658-3.271l0.183-0.99l-1.53,0.21c-1.891,0.24-4.771-0.447-6.63-1.59c-2.643-1.62-4.62-5.49-6.78-13.26
		c-1.08-3.84-1.77-5.55-3.93-9.84C555.72,415.95,554.7,414.54,554.7,416.07z"/>
	<path fill="#FFB2BA" d="M628.98,581.88l-5.7-4.38h-2.104c-2.55,0-4.8-0.93-7.47-3.12c-1.68-1.35-2.311-1.647-2.311-1.08
		c0,0.15,0.328,1.29,0.75,2.521c1.561,4.618,0.777,8.25-2.399,11.43c-2.37,2.4-4.92,2.82-8.97,1.53
		c-3.15-0.99-21.12-10.92-27.631-15.271c-10.143-6.777-20.012-17.52-25.473-27.84c-1.619-3.06-2.277-4.89-3.51-9.689
		c-0.96-3.777-1.439-5.011-2.46-6.117c-0.405-0.438-1.021-0.654-1.647-0.666v14.469c0.289-0.011,0.582,0.614,0.957,1.887
		c1.95,6.84,7.08,14.82,13.98,21.78c8.938,9,20.609,16.59,34.59,22.47c6.301,2.643,11.49,5.88,16.021,9.96
		c1.408,1.263,2.188,1.474,2.188,0.54c0-1.92,2.55-6.39,3.933-6.87c0.567-0.18,0.867-0.51,0.867-0.896
		c0-0.813,2.434-2.854,4.803-4.021c1.857-0.93,2.067-0.96,5.397-0.93c2.49,0,4.11,0.18,5.853,0.63
		c7.171,1.892,8.368,2.19,9.027,2.19C639.57,590.4,638.01,588.9,628.98,581.88z"/>
	<path id="structure115_Unlabeled-2168-1989_Unlabeled" bar:type="" bar:growlevel="0" fill="#FFB2BA" d="M649.05,596.67
		c-1.47,0.66-1.95,1.2-3.12,3.45c-1.02,1.92-1.197,3.6-0.51,4.95c0.689,1.29,2.49,2.729,3.42,2.729c2.4,0,7.08-5.04,7.74-8.34
		c0.24-1.229-0.78-2.25-2.91-2.88C651.63,595.95,650.52,595.98,649.05,596.67z"/>
	<path fill="#DDFFB2" d="M610.77,572.64c-2.696-5.37-4.407-7.47-19.316-23.79c-5.88-6.446-11.88-13.289-13.354-15.21
		c-2.67-3.51-5.696-8.34-7.617-12.146c-5.25-10.473-9.271-24.57-9.933-34.894c-0.27-4.646-1.35-33.72-1.35-37.05
		c0-5.97-2.79-16.35-7.71-28.8c-2.222-5.64-6.87-15.15-8.91-18.3c-1.449-2.217-1.763-2.539-2.518-2.548v129.212
		c1.788,0.039,2.803,1.733,4.104,6.866c1.229,4.8,1.893,6.656,3.511,9.688c5.461,10.32,15.329,21.063,25.473,27.84
		c6.51,4.354,24.479,14.28,27.63,15.271c4.05,1.29,6.6,0.87,8.97-1.53C613.62,583.35,613.95,578.939,610.77,572.64z"/>
	<path fill="#97FF00" d="M614.07,379.86c-0.48-3.271-2.223-10.5-3.48-14.55l-1.107-3.57l-2.399-1.86
		c-7.229-5.61-19.11-12.51-26.28-15.27c-1.89-0.75-6.566-2.341-10.408-3.602c-7.562-2.46-9.182-3.27-11.578-5.88
		c-1.41-1.5-2.91-4.17-2.91-5.22c0-0.812-0.813-0.601-1.021,0.27c-0.12,0.45-0.896,2.432-1.771,4.44l-1.562,3.63v6.6
		c0,3.632,0.092,8.49,0.15,10.802c0.148,4.108,0.12,4.229-0.69,5.88c-1.938,3.938-6.32,6.22-10.945,6.239v5.956l0.747,0.555
		c0.988,0.75,2.459,3.358,3.841,6.87c1.141,2.85,5.067,15.72,6.778,22.108c0.569,2.13,1.143,3.84,1.289,3.84
		c0.12,0,0.513-0.329,0.813-0.72c1.38-1.74,4.438-1.02,9.358,2.22c4.681,3.093,6.812,5.313,8.431,8.73
		c2.25,4.8,5.25,14.819,6.147,20.67c0.513,3.3,0.603,3.6,1.021,3.6c0.868-0.026,6.898-10.71,13.56-24
		c2.7-5.396,5.07-9.776,5.7-10.438c2.399-2.67,6.66-4.021,12.63-4.05l3.934-0.03l0.329-4.95C615,392.91,614.73,384.24,614.07,379.86
		z"/>
	<path id="structure13_label14_CPu" bar:type="" bar:growlevel="0" fill="#FFEC00" d="M665.4,263.01c-3,0.21-7.5,0.75-10.144,1.2
		l-2.76,0.48l0.18,0.96c0.212,1.17,0.183,1.2-4.229,2.1c-1.8,0.39-3.9,0.96-4.65,1.29c-3.03,1.32-6.96,4.95-11.55,10.71
		c-4.771,5.94-7.53,11.01-8.4,15.45c-0.81,4.17-2.188,9.96-3.896,16.5c-0.9,3.39-1.801,7.35-2.014,8.85
		c-0.51,3.66-0.51,17.94,0.03,23.91c0.33,3.81,0.33,6.06,0.063,11.7c-0.48,10.02-1.172,15.96-2.61,22.439
		c-0.75,3.301-0.778,3.721-0.569,9.301c0.149,4.199,0.063,8.31-0.301,14.64c-0.479,8.37-0.479,8.82,0,9.87
		c0.513,1.08,0.513,1.32,0.03,5.04c-0.271,2.13-0.84,6-1.229,8.55c-1.107,6.75-1.229,11.04-0.511,17.34l0.63,5.19l1.922,2.46
		c3.512,4.47,5.608,6.896,9.602,11.16c8.49,9.026,14.91,14.46,27.357,23.22c12.212,8.61,15.183,11.1,17.521,14.729
		c1.62,2.489,2.25,4.649,2.22,7.649c0,2.7-0.66,5.28-1.83,7.41l-0.777,1.41l1.197,1.407c1.683,1.979,1.95,2.133,3.211,1.529
		c1.949-0.93,3.779,0.18,4.5,2.79c0.092,0.33,5.433,1.8,18.959,5.25c17.28,4.38,18.842,4.74,19.2,4.261
		c0.604-0.811,2.28-1.351,3.33-1.08c1.2,0.33,1.683,0.933,1.892,2.279l0.182,1.11l6.51,1.62l6.51,1.617l2.19-2.221
		c1.199-1.229,3.21-2.938,4.438-3.81c4.86-3.42,12-6.24,12-4.71c0,0.688-2.729,4.617-6.42,9.18c-1.92,2.399-3.446,4.561-3.42,4.8
		c0.063,0.24,0.631,0.631,1.263,0.87c1.021,0.391,1.229,0.391,1.438,0.03c8.91-14.642,13.86-22.051,25.08-37.5
		c4.261-5.88,7.62-14.7,10.08-26.58c0.42-1.98,1.649-8.34,2.729-14.103c2.432-12.931,3.898-19.59,5.698-25.737
		c1.593-5.521,2.58-10.32,3.36-16.23c0.898-6.869,0.75-22.319-0.301-33.75c-2.433-26.16-6.183-41.608-14.159-58.35
		c-9.24-19.439-25.47-39-40.771-49.11c-12.06-7.95-27.3-13.08-47.64-15.96C682.23,262.98,672.18,262.53,665.4,263.01z"/>
	<path id="structure14_label18_DEn" bar:type="" bar:growlevel="0" fill="#E0E959" d="M781.35,479.46c-0.06,0.21-0.6,2.22-1.17,4.44
		c-1.947,7.5-4.35,13.526-7.289,18.27l-1.381,2.19l0.21,2.34c0.393,4.59,2.07,9.239,4.38,12.146c0.513,0.66,2.313,2.37,3.99,3.843
		c4.98,4.317,8.4,5.578,13.563,4.979c5.908-0.66,9.421-2.82,10.527-6.45c0.87-2.97,0.394-5.908-2.46-14.52
		c-3.3-9.934-6.238-14.854-9.238-15.42c-3.568-0.66-6.988-3.063-8.432-5.854c-0.84-1.71-1.647-4.35-1.647-5.49
		C782.4,479.07,781.62,478.71,781.35,479.46z"/>
	<path id="structure15_label19_VCl" bar:type="" bar:growlevel="0" fill="#8847F2" d="M790.62,449.88
		c-3.062,6.54-3.54,7.59-4.83,10.92c-2.7,6.87-4.05,16.47-2.97,21.09c1.56,6.63,6.447,9.9,14.068,9.421
		c7.528-0.479,14.068-4.711,16.682-10.801c3.06-7.106,1.106-19.71-3.9-25.5c-3.57-4.106-9.779-7.229-15.688-7.856l-1.979-0.212
		L790.62,449.88z"/>
	<path id="structure16_label20_DCl" bar:type="" bar:growlevel="0" fill="#FFDE00" d="M801.48,409.11
		c-0.633,5.55-4.593,22.38-7.383,31.29c-2.188,7.02-2.158,6.6-0.539,6.6c2.972,0,8.608,2.01,11.852,4.23
		c0.779,0.537,2.13,1.646,3,2.459c0.87,0.841,1.74,1.407,1.979,1.317c0.722-0.27,1.771-7.29,1.949-13.106
		c0.21-7.74-0.63-13.86-2.819-20.554c-1.979-6-6.147-13.946-7.288-13.946C801.78,407.4,801.63,407.73,801.48,409.11z"/>
	<path id="structure17_label21_AIV" bar:type="" bar:growlevel="0" fill="#EEF423" d="M811.59,483.9
		c-2.97,4.17-8.52,7.02-14.85,7.646c-1.143,0.12-2.04,0.33-2.04,0.511c0,0.183,0.42,0.779,0.897,1.353
		c0.512,0.57,1.353,1.77,1.859,2.7c4.354,7.71,41.432,26.25,62.939,31.438c1.738,0.42,3.357,0.75,3.631,0.75
		c0.328,0,0.869-0.87,1.619-2.487c1.261-2.729,7.351-17.853,7.351-18.239c0-0.12-0.78-0.45-1.71-0.69
		c-4.439-1.229-14.58-4.647-19.59-6.63c-10.71-4.2-24.604-10.68-33.604-15.72c-2.369-1.354-4.527-2.434-4.8-2.4
		C813.061,482.13,812.28,482.939,811.59,483.9z"/>
	<path id="structure18_label22_AID" bar:type="" bar:growlevel="0" fill="#D0D447" d="M812.4,458.61c0,0.146,0.27,0.93,0.566,1.77
		c0.96,2.49,1.803,6.12,2.131,9.21c0.393,3.45,0.029,6.75-1.08,9.813c-0.391,1.106-0.721,2.1-0.721,2.188
		c0,0.36,9.512,5.46,16.801,9.03c8.399,4.108,17.762,8.188,24.75,10.77c7.893,2.91,17.103,5.763,18.029,5.551
		c0.33-0.061,1.65-3,4.2-9.391c2.067-5.13,3.812-9.569,3.897-9.93c0.149-0.57-0.118-0.69-2.791-1.47
		c-18.09-5.104-41.906-15.093-60.81-25.474C813.45,458.52,812.4,458.1,812.4,458.61z"/>
	<path id="structure19_label23_DI" bar:type="" bar:growlevel="0" fill="#C4C923" d="M812.609,438.09
		c0.211,3.3-0.359,9.69-1.262,14.25c-0.631,3.03-0.688,3.78-0.391,4.26c1.08,1.74,21.061,11.91,35.34,18
		c12.78,5.461,32.46,12.271,34.53,11.94c0.567-0.09,1.35-1.771,5.1-10.89c2.461-5.94,4.44-10.95,4.474-11.104
		c0-0.18-4.5-1.8-9.961-3.66c-19.802-6.63-50.699-18.236-64.109-24.06C812.34,435.09,812.43,435.061,812.609,438.09z"/>
	<path id="structure20_label24_GI" bar:type="" bar:growlevel="0" fill="#C3C900" d="M806.4,412.95c0,0.239,0.51,1.62,1.17,3.06
		c2.25,5.104,3.75,10.65,4.738,17.46l0.238,1.65l3,1.29c8.82,3.87,34.29,13.68,49.65,19.14c11.64,4.142,24.027,8.25,24.87,8.25
		c0.72,0,0.93-0.39,2.938-5.34c3.063-7.44,6.392-16.2,6.392-16.71c0-0.24-0.511-0.57-1.261-0.75
		c-19.921-5.1-64.647-18.99-85.351-26.52c-3-1.08-5.67-1.98-5.91-1.98C806.609,412.5,806.4,412.71,806.4,412.95z"/>
	<path id="structure21_label25_S2" bar:type="" bar:growlevel="0" fill="#E6E98E" d="M855.75,350.76
		c-30.359,3.301-55.23,6.03-55.29,6.063c-0.03,0.06,0.21,1.618,0.51,3.51c0.96,5.49,1.53,11.7,1.8,18.75
		c0.24,7.021-0.026,19.021-0.537,24l-0.33,3.06l1.647,2.49c0.933,1.38,1.771,2.67,1.92,2.854c0.75,0.93,29.28,10.617,51.183,17.367
		c20.188,6.239,41.367,12.271,42.539,12.092c0.568-0.092,0.988-1.053,3.271-7.893c9.932-29.79,13.17-53.85,10.891-80.55
		c-0.658-7.8-0.658-7.8-1.617-7.771C911.311,344.76,886.109,347.46,855.75,350.76z"/>
	<path id="structure22_label26_S1ULp" bar:type="" bar:growlevel="0" fill="#FDFF76" d="M863.4,227.97
		c-10.23,7.892-56.012,40.08-83.012,58.352c-4.352,2.91-7.892,5.43-7.892,5.609c0,0.15,1.26,2.13,2.82,4.41
		c10.407,15.271,18.567,34.11,23.52,54.271l1.41,5.79l1.351-0.03c1.803,0,110.609-11.79,110.819-12
		c0.479-0.45-2.188-16.47-4.319-25.95c-6.959-30.99-17.971-57.18-34.289-81.72c-4.619-6.9-7.229-10.5-7.711-10.47
		C865.859,226.23,864.63,227.01,863.4,227.97z"/>
	<path id="structure23_label27_S1FL" bar:type="" bar:growlevel="0" fill="#FEFFB2" d="M701.25,122.46
		c-0.3,0.99-19.08,117.93-18.99,118.35c0.063,0.33,1.893,0.99,6.24,2.25c32.311,9.39,56.28,20.94,70.439,33.93
		c1.381,1.29,2.641,2.31,2.817,2.31c0.511,0,6.99-4.74,26.94-19.65c37.197-27.87,64.5-49.05,64.5-50.1
		c0-1.35-22.53-24.42-31.65-32.37c-28.05-24.51-52.408-38.1-85.5-47.7c-10.199-2.94-16.26-4.35-27-6.18
		C701.28,121.95,701.43,121.95,701.25,122.46z"/>
	<path id="structure24_label28_M1" bar:type="" bar:growlevel="0" fill="#FBFF8E" d="M652.38,120.03
		c-0.21,2.13-3.33,50.34-5.43,84.12c-0.72,11.88-1.41,22.98-1.53,24.66c-0.09,1.71-0.12,3.09-0.061,3.09
		c1.08,0,11.067,2.37,19.438,4.65c5.854,1.56,12.03,3.21,13.71,3.66c1.683,0.45,3.15,0.72,3.271,0.63
		c0.27-0.3,19.409-118.47,19.2-118.65c-0.24-0.27-2.644-0.6-9.78-1.41c-10.74-1.23-21.72-2.07-32.91-2.46l-5.729-0.21L652.38,120.03
		z"/>
	<path id="structure25_label29_M2" bar:type="" bar:growlevel="0" fill="#E2E923" d="M627.45,118.53
		c-11.82,0.66-22.41,2.1-30.9,4.229c-5.79,1.44-13.35,4.2-13.35,4.86c0,1.74,26.909,77.58,35.04,98.73c1.05,2.76,1.199,3,1.89,2.88
		c0.39-0.06,2.61-0.12,4.92-0.12c3.603,0,5.22,0.18,11.4,1.229c3.96,0.69,7.5,1.26,7.858,1.26c0.479,0,0.722-0.21,0.812-0.689
		c0.06-0.36,0.688-9.99,1.38-21.36c0.66-11.4,2.25-36.24,3.48-55.2c1.196-18.99,2.22-34.859,2.22-35.34v-0.81l-10.11,0.03
		C636.51,118.26,629.939,118.41,627.45,118.53z"/>
	<path id="structure26_label30_Cg1" bar:type="" bar:growlevel="0" fill="#F1F48E" d="M579.3,129.12
		c-9.78,4.98-17.397,11.76-23.64,21.09c-6.57,9.78-11.61,20.52-13.86,29.43c-1.2,4.71-1.56,7.472-1.438,11.13l0.092,3.12
		l22.199,11.222c12.209,6.18,29.101,14.76,37.5,19.05c14.817,7.56,15.328,7.77,16.051,7.32c0.42-0.24,1.26-0.72,1.89-1.08
		c0.603-0.33,1.11-0.75,1.11-0.93c0-0.18-1.2-3.51-2.67-7.41c-8.07-21.51-27.48-75.99-32.313-90.75c-0.96-2.97-1.26-3.51-1.77-3.51
		C582.12,127.8,580.71,128.4,579.3,129.12z"/>
	<path id="structure27_label31_Cg2" bar:type="" bar:growlevel="0" fill="#DBDF6B" d="M540.3,237.21c0,37.56,0.062,42.99,0.45,44.16
		c0.27,0.72,0.54,2.58,0.66,4.11c0.18,2.79,0.21,2.85,1.35,3.99c1.021,1.05,1.143,1.32,1.143,2.67c0,1.8-0.899,3.12-2.553,3.72
		l-1.05,0.36v2.79c0,1.92,0.12,2.79,0.36,2.79c1.199,0,4.14-0.72,4.14-1.02c0-0.75,1.891-2.58,3.45-3.36
		c2.16-1.05,4.74-1.08,6.99-0.12l1.59,0.69l2.311-0.69c5.012-1.5,13.021-4.2,16.829-5.7c3.54-1.38,4.32-1.83,6.75-3.84
		c5.88-4.86,12.21-11.52,14.94-15.81c3.66-5.67,10.29-20.88,13.89-31.89c0.841-2.58,1.83-4.89,2.432-5.79
		c0.568-0.84,1.021-1.74,1.021-2.04c-0.03-0.57,0.72-0.18-42.78-22.17c-17.04-8.61-31.17-15.66-31.438-15.66
		C540.33,194.4,540.3,198.03,540.3,237.21z"/>
	<path id="structure28_label32_LV" bar:type="" bar:growlevel="0" fill="#FF005D" d="M615.72,295.56
		c-1.829,1.2-5.909,4.35-9.12,6.99c-3.18,2.64-8.31,6.75-11.369,9.15c-3.657,2.85-5.67,4.62-5.851,5.16
		c-0.239,0.688,0.09,1.5,2.49,6.148c4.021,7.771,19.2,38.4,19.858,40.051c0.301,0.779,0.898,2.819,1.318,4.5
		c1.32,5.189,1.354,5.341,1.771,5.341c0.688,0,0.93-4.771,0.93-17.552c0-11.46-0.03-11.85-0.99-19.02
		c-0.51-4.021-0.96-8.37-0.96-9.63c0-2.94,0.69-6.391,3.45-17.25c2.1-8.28,3.18-14.43,2.76-15.57c-0.119-0.27-0.39-0.48-0.6-0.48
		C619.17,293.4,617.52,294.39,615.72,295.56z"/>
	<path fill="#69FF00" d="M802.71,382.05c-0.33-12.39-1.38-21.148-3.81-30.93c-5.73-23.16-15.271-44.04-27.541-60.24
		c-10.471-13.8-21.75-22.8-39.512-31.5c-14.101-6.93-28.681-12.15-52.947-18.93c-6.57-1.83-7.53-2.04-13.803-2.7
		c-10.261-1.11-19.021-0.87-28.5,0.75c-12.238,2.1-16.08,5.49-24.117,21.27c-4.5,8.85-7.713,13.23-13.144,17.94
		c-10.92,9.51-25.47,16.05-49.62,22.29c-5.063,1.305-7.693,1.842-9.656,1.891v28.53c5.67,0.017,11.306-1.356,16.946-4.141
		c1.44-0.72,5.28-2.28,8.49-3.48c14.521-5.34,18.897-7.05,21.45-8.28c2.85-1.35,7.197-4.438,14.729-10.378
		c9.9-7.8,23.854-20.82,29.4-27.45c5.7-6.81,10.857-10.14,17.607-11.31c1.353-0.24,3.42-0.66,4.563-0.9
		c15.3-3.24,34.229-2.16,55.5,3.15c24.24,6.06,40.141,17.22,57.24,40.141c15.027,20.131,23.188,42.181,26.43,71.58
		c2.91,26.101,2.43,41.489-1.771,56.399c-2.312,8.22-5.25,21.18-5.25,23.102c0,0.479,0.182,0.75,0.448,0.75
		c0.24,0,0.45-0.118,0.45-0.302c0-0.146,0.96-2.37,2.13-4.857c4.41-9.449,5.61-12.989,8.82-25.829
		C801.75,410.73,803.1,398.97,802.71,382.05z"/>
	<path id="structure30_label35_LSD" bar:type="" bar:growlevel="0" fill="#DEFFB2" d="M583.65,316.08
		c-1.803,0.75-8.07,3.09-18.303,6.87c-2.971,1.109-6.391,2.46-7.591,3.03l-2.22,1.02l0.21,1.561c0.42,3.539,3.063,7.319,6.479,9.329
		c0.75,0.45,5.188,2.07,9.868,3.602c4.711,1.56,10.053,3.479,11.854,4.29c5.55,2.488,16.528,9.06,21.688,12.93
		c1.38,1.05,2.643,1.891,2.789,1.891c0.57,0,0.211-1.109-1.14-3.601c-2.22-4.11-18.75-36.84-19.89-39.36
		c-0.66-1.438-1.23-2.34-1.5-2.34C585.66,315.33,584.641,315.66,583.65,316.08z"/>
	<path fill="#97FF59" d="M802.71,382.05c-0.33-12.39-1.38-21.148-3.81-30.93c-5.73-23.16-15.271-44.04-27.541-60.24
		c-10.471-13.8-21.75-22.8-39.512-31.5c-14.101-6.93-28.681-12.15-52.947-18.93c-6.57-1.83-7.53-2.04-13.803-2.7
		c-10.261-1.11-19.021-0.87-28.5,0.75c-12.238,2.1-16.08,5.49-24.117,21.27c-4.5,8.85-7.713,13.23-13.144,17.94
		c-10.92,9.51-25.47,16.05-49.62,22.29c-5.063,1.305-7.693,1.842-9.656,1.891v28.53c5.67,0.017,11.306-1.356,16.946-4.141
		c1.44-0.72,5.28-2.28,8.49-3.48c14.521-5.34,18.897-7.05,21.45-8.28c2.85-1.35,7.197-4.438,14.729-10.378
		c9.9-7.8,23.854-20.82,29.4-27.45c5.7-6.81,10.857-10.14,17.607-11.31c1.353-0.24,3.42-0.66,4.563-0.9
		c15.3-3.24,34.229-2.16,55.5,3.15c24.24,6.06,40.141,17.22,57.24,40.141c15.027,20.131,23.188,42.181,26.43,71.58
		c2.91,26.101,2.43,41.489-1.771,56.399c-2.312,8.22-5.25,21.18-5.25,23.102c0,0.479,0.182,0.75,0.448,0.75
		c0.24,0,0.45-0.118,0.45-0.302c0-0.146,0.96-2.37,2.13-4.857c4.41-9.449,5.61-12.989,8.82-25.829
		C801.75,410.73,803.1,398.97,802.71,382.05z"/>
	<path id="structure3_Unlabeled-2046-1375_E" bar:type="" bar:growlevel="0" fill="#FF0045" d="M613.08,412.35
		c-0.3,0.813-1.62,9.03-2.13,13.2c-0.841,7.143-0.9,12.511-0.183,18.9c0.963,8.25,3.239,24.96,3.449,25.317
		c0.33,0.479,1.381,0.393,1.592-0.147c0.092-0.24-0.449-5.28-1.199-11.16c-3.063-23.64-3-21.75-1.079-34.56
		c1.35-8.974,1.438-11.79,0.39-11.94C613.53,411.9,613.2,412.08,613.08,412.35z"/>
	<path fill="#83E900" d="M610.77,572.64c-2.696-5.37-4.407-7.47-19.316-23.79c-5.88-6.446-11.88-13.289-13.354-15.21
		c-2.67-3.51-5.696-8.34-7.617-12.146c-5.25-10.473-9.271-24.57-9.933-34.894c-0.27-4.646-1.35-33.72-1.35-37.05
		c0-5.97-2.79-16.35-7.71-28.8c-2.222-5.64-6.87-15.15-8.91-18.3c-1.449-2.217-1.763-2.539-2.518-2.548v129.212
		c1.788,0.039,2.803,1.733,4.104,6.866c1.229,4.8,1.893,6.656,3.511,9.688c5.461,10.32,15.329,21.063,25.473,27.84
		c6.51,4.354,24.479,14.28,27.63,15.271c4.05,1.29,6.6,0.87,8.97-1.53C613.62,583.35,613.95,578.939,610.77,572.64z"/>
	<path fill="#97FF00" d="M614.07,379.86c-0.48-3.271-2.223-10.5-3.48-14.55l-1.107-3.57l-2.399-1.86
		c-7.229-5.61-19.11-12.51-26.28-15.27c-1.89-0.75-6.566-2.341-10.408-3.602c-7.562-2.46-9.182-3.27-11.578-5.88
		c-1.41-1.5-2.91-4.17-2.91-5.22c0-0.812-0.813-0.601-1.021,0.27c-0.12,0.45-0.896,2.432-1.771,4.44l-1.562,3.63v6.6
		c0,3.632,0.092,8.49,0.15,10.802c0.148,4.108,0.12,4.229-0.69,5.88c-1.938,3.938-6.32,6.22-10.945,6.239v5.956l0.747,0.555
		c0.988,0.75,2.459,3.358,3.841,6.87c1.141,2.85,5.067,15.72,6.778,22.108c0.569,2.13,1.143,3.84,1.289,3.84
		c0.12,0,0.513-0.329,0.813-0.72c1.38-1.74,4.438-1.02,9.358,2.22c4.681,3.093,6.812,5.313,8.431,8.73
		c2.25,4.8,5.25,14.819,6.147,20.67c0.513,3.3,0.603,3.6,1.021,3.6c0.868-0.026,6.898-10.71,13.56-24
		c2.7-5.396,5.07-9.776,5.7-10.438c2.399-2.67,6.66-4.021,12.63-4.05l3.934-0.03l0.329-4.95C615,392.91,614.73,384.24,614.07,379.86
		z"/>
	<path id="structure4_label0_AcbSh" bar:type="" bar:growlevel="0" fill="#E9DA00" d="M607.2,447.75
		c-5.341,1.74-15.72,7.59-19.142,10.77c-3.961,3.724-7.648,9.24-8.578,12.934c-0.541,1.979-0.633,9.896-0.271,21.566l0.182,6.541
		l1.592,1.709c0.959,1.021,2.85,2.49,4.92,3.78c11.31,6.96,22.02,17.16,31.617,30c3.393,4.5,4.291,6,6.449,10.5
		c2.16,4.5,4.922,8.79,7.5,11.61c2.4,2.607,9.184,7.2,15.03,10.14c3.3,1.65,5.79,0.933,8.07-2.37c3.27-4.71,6.896-7.526,9.146-7.106
		c2.104,0.39,4.08,3.75,4.08,6.96c0,0.688-0.27,2.64-0.6,4.316c-0.66,3.42-0.75,5.04-0.271,6.66c0.271,0.99,0.42,1.143,1.229,1.143
		c0.777,0,1.438-0.539,4.5-3.75c2.58-2.67,4.021-3.933,5.13-4.473c1.47-0.72,1.71-0.72,4.229-0.447
		c3.66,0.357,4.291,0.811,5.434,3.567c0.72,1.771,1.05,2.28,1.59,2.34c0.391,0.063,0.897-0.06,1.141-0.27
		c0.24-0.21,1.382-2.22,2.553-4.47c3.688-7.29,5.368-8.7,10.379-8.7c5.221,0,9.091,1.47,10.351,3.896
		c0.271,0.604,0.813,2.67,1.141,4.65c0.723,4.32,1.922,7.08,3.271,7.649c1.141,0.479,2.85-0.063,3.54-1.079
		c0.479-0.75,0.479-0.69-0.09-6.12c-0.15-1.41-0.063-1.801,0.539-2.7c1.021-1.5,2.311-1.8,3.75-0.84
		c3.061,2.01,5.311,5.159,5.671,7.856c0.239,1.74-0.72,4.894-2.13,7.021c-2.041,3.09-1.44,2.938,4.83-1.229
		c2.789-1.829,6.479-4.107,8.158-5.011c1.682-0.87,3.062-1.8,3.062-2.04c0-0.21-1.23-1.83-2.73-3.6
		c-1.5-1.771-2.938-3.63-3.146-4.17c-1.29-3.03,0.57-10.474,4.71-18.75c0.989-1.95,1.771-3.78,1.771-4.11
		c0-0.54-1.261-1.229-2.278-1.229c-0.209,0-1.5,1.38-2.88,3.06c-4.649,5.76-10.053,10.47-12.479,10.92
		c-3.45,0.66-1.771-4.56,4.5-13.92c1.14-1.71,2.011-3.271,1.949-3.45c-0.062-0.21-3-1.08-6.511-1.949L721.77,534l-0.776,0.6
		c-1.17,0.934-2.94,0.813-4.021-0.27c-0.479-0.48-0.87-1.17-0.87-1.5s-0.237-0.66-0.51-0.75c-0.3-0.09-8.79-2.25-18.898-4.83
		l-18.33-4.65l-1.142,0.75c-1.35,0.934-2.52,0.813-3.778-0.39c-0.658-0.601-0.842-1.05-0.842-2.01c0-1.05-0.18-1.41-1.438-2.643
		c-1.591-1.561-2.102-1.711-2.94-0.778c-0.72,0.811-3.39,2.157-5.52,2.791c-3.9,1.196-11.854,1.14-18.03-0.12
		c-10.14-2.04-19.021-6.604-27.51-14.104l-2.73-2.396l-2.817,0.18c-3.479,0.24-3.933,0.06-4.409-1.979
		c-0.48-2.011-0.24-3.961,1.5-11.851c1.53-6.93,2.159-10.62,2.729-15.6c0.36-3.36,0.603-3.96,1.65-4.354
		c0.479-0.18,0.72-0.51,0.72-0.96c-0.029-0.39-0.658-5.489-1.47-11.34C610.68,445.47,611.189,446.46,607.2,447.75z"/>
	<path id="structure5_label1_AcbC" bar:type="" bar:growlevel="0" fill="#FFF359" d="M613.8,450.689c0,0.391,0.48,4.351,1.08,8.791
		c0.63,4.89,1.021,8.696,0.9,9.63c-0.063,0.87,0,1.646,0.146,1.77c0.513,0.3,1.474,2.49,1.474,3.39c0,0.87,0.026,0.87,1.738,0.87
		c2.012,0,3.448,0.54,5.908,2.313c3.99,2.85,7.53,7.47,10.5,13.738c2.521,5.369,4.051,10.948,3.604,13.318
		c-0.24,1.38-1.563,2.7-2.974,2.973c-2.52,0.447-7.05-1.29-10.979-4.29c-1.142-0.869-2.25-1.593-2.46-1.593s-1.352,0.33-2.521,0.724
		c-1.17,0.39-2.76,0.81-3.51,0.93c-0.84,0.12-1.41,0.39-1.41,0.601c0,0.513,3.54,3.813,6.301,5.883
		c7.409,5.55,15.633,9.118,24.449,10.618c5.82,0.988,14.854,0.962,14.854-0.092c0-0.27-0.303-0.776-0.66-1.17
		c-0.84-0.897-0.84-2.276,0.06-3.237c1.62-1.713,4.8-0.359,4.8,2.067c0,0.84,0.12,1.08,0.541,1.08c0.869,0,2.939-1.647,4.079-3.21
		c1.41-1.92,2.013-3.93,2.19-7.14c0.3-4.83-0.813-7.593-4.65-11.61c-2.607-2.7-5.489-4.979-14.76-11.49
		c-7.859-5.55-11.46-8.25-16.2-12.33c-6.479-5.58-14.34-13.8-19.8-20.729C614.49,449.939,613.8,449.49,613.8,450.689z"/>
	<path id="structure61_label72_cg" bar:type="" bar:growlevel="0" fill="#3FFF00" d="M621.391,229.2
		c-2.341,0.479-4.229,1.53-5.729,3.12c-1.92,2.01-2.49,3.148-4.32,8.7c-3.026,9.03-9.239,23.64-12.39,28.98
		c-2.7,4.59-7.051,9.75-11.972,14.1c-1.591,1.41-2.882,2.73-2.882,2.91c0,0.78,1.2,0.33,4.474-1.65
		c5.276-3.18,8.58-5.67,12.237-9.15c4.921-4.74,6.989-7.65,11.013-15.45c5.908-11.4,8.908-15.54,13.5-18.6
		c4.17-2.79,11.58-4.41,23.97-5.19c4.38-0.3,6.51-0.3,9.45-0.03c4.856,0.45,5.76,0.45,5.76-0.03c0-0.24-2.22-0.93-6.063-1.95
		c-7.317-1.89-9.271-2.31-21-4.26C628.17,229.14,623.641,228.72,621.391,229.2z"/>
	<path fill="#97FF59" d="M802.71,382.05c-0.33-12.39-1.38-21.148-3.81-30.93c-5.73-23.16-15.271-44.04-27.541-60.24
		c-10.471-13.8-21.75-22.8-39.512-31.5c-14.101-6.93-28.681-12.15-52.947-18.93c-6.57-1.83-7.53-2.04-13.803-2.7
		c-10.261-1.11-19.021-0.87-28.5,0.75c-12.238,2.1-16.08,5.49-24.117,21.27c-4.5,8.85-7.713,13.23-13.144,17.94
		c-10.92,9.51-25.47,16.05-49.62,22.29c-5.063,1.305-7.693,1.842-9.656,1.891v28.53c5.67,0.017,11.306-1.356,16.946-4.141
		c1.44-0.72,5.28-2.28,8.49-3.48c14.521-5.34,18.897-7.05,21.45-8.28c2.85-1.35,7.197-4.438,14.729-10.378
		c9.9-7.8,23.854-20.82,29.4-27.45c5.7-6.81,10.857-10.14,17.607-11.31c1.353-0.24,3.42-0.66,4.563-0.9
		c15.3-3.24,34.229-2.16,55.5,3.15c24.24,6.06,40.141,17.22,57.24,40.141c15.027,20.131,23.188,42.181,26.43,71.58
		c2.91,26.101,2.43,41.489-1.771,56.399c-2.312,8.22-5.25,21.18-5.25,23.102c0,0.479,0.182,0.75,0.448,0.75
		c0.24,0,0.45-0.118,0.45-0.302c0-0.146,0.96-2.37,2.13-4.857c4.41-9.449,5.61-12.989,8.82-25.829
		C801.75,410.73,803.1,398.97,802.71,382.05z"/>
	<path id="structure63_label74_lo" bar:type="" bar:growlevel="0" fill="#B8FF00" d="M792.359,579.45
		c-1.051,0.239-3.029,0.96-4.409,1.62c-5.55,2.697-9.69,7.26-13.38,14.729c-1.262,2.55-3.271,7.71-3.271,8.434
		c0,1.77,16.592-6.541,25.592-12.844c5.278-3.72,9.182-6.84,9.182-7.35c0.027-0.96-2.94-3.33-5.37-4.26
		C798.87,579.061,794.73,578.88,792.359,579.45z"/>
	<path id="structure64_label75_aca" bar:type="" bar:growlevel="0" fill="#DBFFB2" d="M616.95,475.74
		c-0.812,0.39-1.44,0.99-1.92,1.89c-1.892,3.36-0.063,12.062,3.93,18.812c1.26,2.132,4.92,5.882,7.38,7.528
		c3.36,2.25,5.58,3.12,8.313,3.271c2.277,0.12,2.488,0.09,3.33-0.63c0.867-0.75,0.867-0.813,0.841-3.724
		c0-2.579-0.15-3.329-1.11-6.18c-2.37-6.96-5.76-12.72-9.779-16.71C623.67,475.8,619.92,474.33,616.95,475.74z"/>
	<path id="structure65_label76_mfb" bar:type="" bar:growlevel="0" fill="#925FDC" d="M579.3,501.42c0,2.46,3,10.563,6.69,18.21
		c3.18,6.51,14.729,26.431,20.25,34.92c3.06,4.683,4.318,6.392,8.46,11.25c4.8,5.67,7.409,9.063,8.04,10.44
		c0.479,1.05,1.619,2.1,6.72,6.027c3.39,2.643,6.931,5.521,7.92,6.422l1.771,1.618l3.301,0.209c4.38,0.271,6.54,0.813,9.51,2.343
		c2.432,1.261,2.55,1.291,5.34,1.261c2.973,0,4.65-0.48,9.78-2.642c2.7-1.142,5.58-1.318,18.63-1.198
		c11.76,0.09,18.393,0.51,23.79,1.47c2.938,0.51,5.67,0.57,7.229,0.15c2.221-0.634,8.487-5.672,10.857-8.73
		c2.37-3.12,3.301-5.311,3.45-8.01c0.18-2.94-0.69-4.71-3.602-7.41c-1.858-1.71-2.25-1.95-3.301-1.95
		c-0.869,0-1.351,0.21-1.857,0.75c-0.99,1.08-1.143,2.22-0.63,5.13c0.446,2.644,0.329,3.604-0.66,4.684
		c-0.54,0.63-2.16,0.986-3.063,0.688c-1.47-0.45-2.729-3.479-3.6-8.55c-0.66-4.08-1.29-5.07-3.78-6.3c-3-1.5-9-1.891-11.699-0.78
		c-1.738,0.72-3.931,3.57-5.971,7.771c-1.95,3.963-2.85,5.313-3.6,5.313c-0.66,0-1.354-1.021-2.014-2.97
		c-0.356-1.08-0.896-2.04-1.289-2.28c-0.721-0.479-4.051-1.021-6.211-1.05c-1.92,0-3,0.778-7.35,5.278
		c-3.9,4.052-4.62,4.438-5.43,2.818c-0.511-1.02-0.48-4.83,0.06-7.05c0.511-2.16,0.57-6.15,0.12-7.8
		c-0.18-0.66-0.84-1.682-1.47-2.313c-1.021-1.02-1.29-1.14-2.642-1.14c-1.291,0-1.738,0.18-3.238,1.29
		c-1.803,1.35-3.45,3.146-5.16,5.64c-1.32,1.95-2.49,2.854-4.23,3.271c-1.317,0.3-1.646,0.27-2.88-0.271
		c-1.739-0.776-7.92-4.408-10.95-6.447c-5.367-3.603-9.356-8.699-13.26-16.949c-2.52-5.342-7.26-11.88-14.76-20.37
		c-5.07-5.73-14.46-13.86-20.13-17.431c-4.32-2.729-6.062-3.933-7.2-5.103C579.78,500.13,579.3,500.07,579.3,501.42z"/>
	<path id="structure66_label77_PLd" bar:type="" bar:growlevel="0" fill="#6D2FE9" d="M553.83,406.17
		c-0.811,0.813-1.05,2.37-0.63,3.96c0.18,0.72,1.95,4.562,3.93,8.521c3.12,6.3,3.75,7.8,4.89,11.85
		c2.883,10.229,5.041,13.32,10.144,14.58c3.448,0.84,5.25-0.03,5.55-2.7c0.42-3.75-3.54-19.02-6.566-25.35
		c-1.354-2.854-2.82-4.44-6.69-7.32C559.62,406.11,555.33,404.67,553.83,406.17z"/>
	<path id="structure69_label80_E" bar:type="" bar:growlevel="0" fill="#FF0045" d="M647.7,265.62c-2.37,0.54-3.812,1.05-5.853,2.07
		c-4.197,2.07-6.688,4.23-11.25,9.66c-3.391,4.05-9.811,10.32-19.051,18.6c-6.146,5.52-17.76,14.61-22.62,17.729
		c-1.02,0.632-1.92,1.44-2.01,1.771c-0.149,0.66,2.46,6.72,4.08,9.45c0.54,0.898,3.18,6.09,5.851,11.55
		c2.67,5.43,6.063,12.12,7.529,14.85c3.63,6.72,4.38,8.34,5.67,12c1.2,3.45,3.15,10.891,3.75,14.312c0.45,2.46,0.99,2.85,1.471,1.05
		c2.159-7.95,3.33-27.87,2.279-38.01c-0.42-3.99-0.51-6.36-0.357-10.95c0.237-7.2,0.75-11.13,2.131-16.11
		c1.318-4.739,3.568-14.07,4.229-17.49c0.271-1.41,0.842-3.45,1.23-4.56c1.89-5.01,7.92-13.26,13.736-18.78
		c3.271-3.09,5.61-4.26,10.23-5.16c3.391-0.66,4.26-1.11,3.96-1.92C652.47,265.11,650.189,265.08,647.7,265.62z M620.1,295.32
		c0,2.76-0.63,6.06-2.97,15.24c-3.688,14.43-3.72,14.908-2.13,26.938c0.96,7.11,0.99,7.71,0.99,18.149
		c0,10.051-0.33,16.381-0.96,18.631l-0.24,0.869l-0.181-0.75c-1.563-6.601-2.729-10.859-3.513-12.659
		c-0.538-1.2-5.67-11.58-11.43-23.04c-5.76-11.49-10.47-21.15-10.47-21.48c0-0.779,1.05-1.738,6.146-5.7
		c2.313-1.77,7.11-5.608,10.65-8.52s7.141-5.79,7.95-6.39c2.279-1.62,5.608-3.51,5.908-3.33C619.98,293.37,620.1,294.3,620.1,295.32
		z"/>
	<path id="structure6_label2_LAcbSh" bar:type="" bar:growlevel="0" fill="#FFFAB2" d="M607.2,447.75
		c-5.341,1.74-15.72,7.59-19.142,10.77c-3.961,3.724-7.648,9.24-8.578,12.934c-0.541,1.979-0.633,9.896-0.271,21.566l0.182,6.541
		l1.592,1.709c0.959,1.021,2.85,2.49,4.92,3.78c11.31,6.96,22.02,17.16,31.617,30c3.393,4.5,4.291,6,6.449,10.5
		c2.16,4.5,4.922,8.79,7.5,11.61c2.4,2.607,9.184,7.2,15.03,10.14c3.3,1.65,5.79,0.933,8.07-2.37c3.27-4.71,6.896-7.526,9.146-7.106
		c2.104,0.39,4.08,3.75,4.08,6.96c0,0.688-0.27,2.64-0.6,4.316c-0.66,3.42-0.75,5.04-0.271,6.66c0.271,0.99,0.42,1.143,1.229,1.143
		c0.777,0,1.438-0.539,4.5-3.75c2.58-2.67,4.021-3.933,5.13-4.473c1.47-0.72,1.71-0.72,4.229-0.447
		c3.66,0.357,4.291,0.811,5.434,3.567c0.72,1.771,1.05,2.28,1.59,2.34c0.391,0.063,0.897-0.06,1.141-0.27
		c0.24-0.21,1.382-2.22,2.553-4.47c3.688-7.29,5.368-8.7,10.379-8.7c5.221,0,9.091,1.47,10.351,3.896
		c0.271,0.604,0.813,2.67,1.141,4.65c0.723,4.32,1.922,7.08,3.271,7.649c1.141,0.479,2.85-0.063,3.54-1.079
		c0.479-0.75,0.479-0.69-0.09-6.12c-0.15-1.41-0.063-1.801,0.539-2.7c1.021-1.5,2.311-1.8,3.75-0.84
		c3.061,2.01,5.311,5.159,5.671,7.856c0.239,1.74-0.72,4.894-2.13,7.021c-2.041,3.09-1.44,2.938,4.83-1.229
		c2.789-1.829,6.479-4.107,8.158-5.011c1.682-0.87,3.062-1.8,3.062-2.04c0-0.21-1.23-1.83-2.73-3.6
		c-1.5-1.771-2.938-3.63-3.146-4.17c-1.29-3.03,0.57-10.474,4.71-18.75c0.989-1.95,1.771-3.78,1.771-4.11
		c0-0.54-1.261-1.229-2.278-1.229c-0.209,0-1.5,1.38-2.88,3.06c-4.649,5.76-10.053,10.47-12.479,10.92
		c-3.45,0.66-1.771-4.56,4.5-13.92c1.14-1.71,2.011-3.271,1.949-3.45c-0.062-0.21-3-1.08-6.511-1.949L721.77,534l-0.776,0.6
		c-1.17,0.934-2.94,0.813-4.021-0.27c-0.479-0.48-0.87-1.17-0.87-1.5s-0.237-0.66-0.51-0.75c-0.3-0.09-8.79-2.25-18.898-4.83
		l-18.33-4.65l-1.142,0.75c-1.35,0.934-2.52,0.813-3.778-0.39c-0.658-0.601-0.842-1.05-0.842-2.01c0-1.05-0.18-1.41-1.438-2.643
		c-1.591-1.561-2.102-1.711-2.94-0.778c-0.72,0.811-3.39,2.157-5.52,2.791c-3.9,1.196-11.854,1.14-18.03-0.12
		c-10.14-2.04-19.021-6.604-27.51-14.104l-2.73-2.396l-2.817,0.18c-3.479,0.24-3.933,0.06-4.409-1.979
		c-0.48-2.011-0.24-3.961,1.5-11.851c1.53-6.93,2.159-10.62,2.729-15.6c0.36-3.36,0.603-3.96,1.65-4.354
		c0.479-0.18,0.72-0.51,0.72-0.96c-0.029-0.39-0.658-5.489-1.47-11.34C610.68,445.47,611.189,446.46,607.2,447.75z"/>
	<path id="structure70_label81_IG" bar:type="" bar:growlevel="0" fill="#B2FF00" d="M549.21,297.12c-2.37,0.84-4.71,3-4.021,3.66
		c0.119,0.12,2.487-0.39,5.311-1.08c4.109-1.05,5.1-1.41,5.1-1.8C555.6,296.85,551.43,296.34,549.21,297.12z"/>
	<path id="structure71_label82_LSS" bar:type="" bar:growlevel="0" fill="#8F6BE1" d="M751.2,526.62
		c-5.16,1.47-10.17,4.59-14.312,8.97c-4.229,4.471-9.962,14.25-10.229,17.49c-0.15,1.95,0.24,2.22,2.188,1.5
		c3.449-1.32,7.922-5.79,16.229-16.23c6.51-8.158,8.22-10.56,8.22-11.52C753.3,526.11,753.09,526.11,751.2,526.62z"/>
	<path id="structure72_label83_CB" bar:type="" bar:growlevel="0" fill="#FFF000" d="M607.2,447.75
		c-5.341,1.74-15.72,7.59-19.142,10.77c-3.961,3.724-7.648,9.24-8.578,12.934c-0.541,1.979-0.633,9.896-0.271,21.566l0.182,6.541
		l1.592,1.709c0.959,1.021,2.85,2.49,4.92,3.78c11.31,6.96,22.02,17.16,31.617,30c3.393,4.5,4.291,6,6.449,10.5
		c2.16,4.5,4.922,8.79,7.5,11.61c2.4,2.607,9.184,7.2,15.03,10.14c3.3,1.65,5.79,0.933,8.07-2.37c3.27-4.71,6.896-7.526,9.146-7.106
		c2.104,0.39,4.08,3.75,4.08,6.96c0,0.688-0.27,2.64-0.6,4.316c-0.66,3.42-0.75,5.04-0.271,6.66c0.271,0.99,0.42,1.143,1.229,1.143
		c0.777,0,1.438-0.539,4.5-3.75c2.58-2.67,4.021-3.933,5.13-4.473c1.47-0.72,1.71-0.72,4.229-0.447
		c3.66,0.357,4.291,0.811,5.434,3.567c0.72,1.771,1.05,2.28,1.59,2.34c0.391,0.063,0.897-0.06,1.141-0.27
		c0.24-0.21,1.382-2.22,2.553-4.47c3.688-7.29,5.368-8.7,10.379-8.7c5.221,0,9.091,1.47,10.351,3.896
		c0.271,0.604,0.813,2.67,1.141,4.65c0.723,4.32,1.922,7.08,3.271,7.649c1.141,0.479,2.85-0.063,3.54-1.079
		c0.479-0.75,0.479-0.69-0.09-6.12c-0.15-1.41-0.063-1.801,0.539-2.7c1.021-1.5,2.311-1.8,3.75-0.84
		c3.061,2.01,5.311,5.159,5.671,7.856c0.239,1.74-0.72,4.894-2.13,7.021c-2.041,3.09-1.44,2.938,4.83-1.229
		c2.789-1.829,6.479-4.107,8.158-5.011c1.682-0.87,3.062-1.8,3.062-2.04c0-0.21-1.23-1.83-2.73-3.6
		c-1.5-1.771-2.938-3.63-3.146-4.17c-1.29-3.03,0.57-10.474,4.71-18.75c0.989-1.95,1.771-3.78,1.771-4.11
		c0-0.54-1.261-1.229-2.278-1.229c-0.209,0-1.5,1.38-2.88,3.06c-4.649,5.76-10.053,10.47-12.479,10.92
		c-3.45,0.66-1.771-4.56,4.5-13.92c1.14-1.71,2.011-3.271,1.949-3.45c-0.062-0.21-3-1.08-6.511-1.949L721.77,534l-0.776,0.6
		c-1.17,0.934-2.94,0.813-4.021-0.27c-0.479-0.48-0.87-1.17-0.87-1.5s-0.237-0.66-0.51-0.75c-0.3-0.09-8.79-2.25-18.898-4.83
		l-18.33-4.65l-1.142,0.75c-1.35,0.934-2.52,0.813-3.778-0.39c-0.658-0.601-0.842-1.05-0.842-2.01c0-1.05-0.18-1.41-1.438-2.643
		c-1.591-1.561-2.102-1.711-2.94-0.778c-0.72,0.811-3.39,2.157-5.52,2.791c-3.9,1.196-11.854,1.14-18.03-0.12
		c-10.14-2.04-19.021-6.604-27.51-14.104l-2.73-2.396l-2.817,0.18c-3.479,0.24-3.933,0.06-4.409-1.979
		c-0.48-2.011-0.24-3.961,1.5-11.851c1.53-6.93,2.159-10.62,2.729-15.6c0.36-3.36,0.603-3.96,1.65-4.354
		c0.479-0.18,0.72-0.51,0.72-0.96c-0.029-0.39-0.658-5.489-1.47-11.34C610.68,445.47,611.189,446.46,607.2,447.75z"/>
	<path id="structure73_label84_ICj" bar:type="" bar:growlevel="0" fill="#E9DB00" d="M615.99,592.32
		c-4.2,0.81-5.04,1.229-6.21,3.119c-1.23,1.921-2.07,4.229-1.921,5.25c0.061,0.421,1.229,1.737,3.091,3.447
		c2.43,2.224,3.18,2.764,3.93,2.764c1.38,0,2.28-0.9,3.69-3.57c0.658-1.29,2.31-3.75,3.63-5.43c2.76-3.514,3.06-4.264,2.159-5.19
		c-0.539-0.54-1.051-0.63-3.42-0.72C619.41,591.96,617.189,592.11,615.99,592.32z"/>
	<path id="structure74_label85_ICj" bar:type="" bar:growlevel="0" fill="#E9DB00" d="M696.54,591.48
		c-0.51,1.078-0.09,1.26,3.33,1.26c2.188,0.027,3.72,0.24,6.479,0.93c4.563,1.17,6.75,1.44,7.949,0.93
		c0.99-0.42,1.17-1.38,0.301-1.8c-1.051-0.54-13.317-2.1-16.381-2.1C697.08,590.7,696.84,590.82,696.54,591.48z"/>
	<path id="structure75_label86_STMA" bar:type="" bar:growlevel="0" fill="#8AD400" d="M612.51,470.46
		c-0.39,0.3-0.66,1.56-1.107,5.34c-0.633,4.892-1.619,10.23-3.149,16.65c-0.45,1.89-0.84,4.71-0.96,6.6
		c-0.182,3.21-0.148,3.36,0.54,4.17l0.75,0.841l3.42-0.357c6.12-0.604,10.2-1.684,10.2-2.67c0-0.301-0.36-0.842-0.78-1.264
		c-1.89-1.77-4.2-5.938-5.729-10.316c-2.459-7.11-2.013-12.063,1.229-13.86c0.479-0.27,0.54-0.51,0.33-1.77
		C616.859,471.18,614.13,469.26,612.51,470.46z"/>
	<path id="structure76_label87_SIB" bar:type="" bar:growlevel="0" fill="#FFE600" d="M578.609,510.33
		c-0.271,11.67,0.449,21.75,1.857,25.47c0.631,1.65,0.33,1.32,13.65,15.9c9.779,10.71,12.06,13.38,14.34,16.83
		c2.16,3.27,5.58,6.51,8.398,7.92c1.771,0.87,2.432,1.05,4.021,1.05c1.8,0,1.92-0.03,1.92-0.689c0-0.961-1.438-2.971-6.029-8.431
		c-7.317-8.67-9.658-11.938-15.931-22.38c-11.91-19.83-18.12-31.92-20.818-40.59C579.061,502.29,578.79,503.16,578.609,510.33z"/>
	<path id="structure78_label89_mcer" bar:type="" bar:growlevel="0" fill="#D86BC8" d="M891.87,462.99
		c-0.57,0.42-0.63,0.54-6.3,14.43c-4.053,9.84-4.771,12.18-3.75,12.18c0.66,0,1.47-0.84,3.479-3.566c3-4.11,4.893-8.67,7.65-18.24
		c0.93-3.21,0.93-5.01,0-5.102C892.62,462.63,892.141,462.78,891.87,462.99z"/>
	<path id="structure79_label90_mcer" bar:type="" bar:growlevel="0" fill="#D86BC8" d="M845.82,553.38
		c-4.354,2.94-12.12,10.71-13.473,13.41c-0.959,1.979-0.841,2.91,0.393,2.91c2.938,0,9.27-5.94,13.47-12.66
		c1.83-2.91,2.31-4.44,1.38-4.44C847.26,552.6,846.45,552.96,845.82,553.38z"/>
	<path id="structure7_label3_VP" bar:type="" bar:growlevel="0" fill="#FFE900" d="M579.3,501.42c0,2.46,3,10.563,6.69,18.21
		c3.18,6.51,14.729,26.431,20.25,34.92c3.06,4.683,4.318,6.392,8.46,11.25c4.8,5.67,7.409,9.063,8.04,10.44
		c0.479,1.05,1.619,2.1,6.72,6.027c3.39,2.643,6.931,5.521,7.92,6.422l1.771,1.618l3.301,0.209c4.38,0.271,6.54,0.813,9.51,2.343
		c2.432,1.261,2.55,1.291,5.34,1.261c2.973,0,4.65-0.48,9.78-2.642c2.7-1.142,5.58-1.318,18.63-1.198
		c11.76,0.09,18.393,0.51,23.79,1.47c2.938,0.51,5.67,0.57,7.229,0.15c2.221-0.634,8.487-5.672,10.857-8.73
		c2.37-3.12,3.301-5.311,3.45-8.01c0.18-2.94-0.69-4.71-3.602-7.41c-1.858-1.71-2.25-1.95-3.301-1.95
		c-0.869,0-1.351,0.21-1.857,0.75c-0.99,1.08-1.143,2.22-0.63,5.13c0.446,2.644,0.329,3.604-0.66,4.684
		c-0.54,0.63-2.16,0.986-3.063,0.688c-1.47-0.45-2.729-3.479-3.6-8.55c-0.66-4.08-1.29-5.07-3.78-6.3c-3-1.5-9-1.891-11.699-0.78
		c-1.738,0.72-3.931,3.57-5.971,7.771c-1.95,3.963-2.85,5.313-3.6,5.313c-0.66,0-1.354-1.021-2.014-2.97
		c-0.356-1.08-0.896-2.04-1.289-2.28c-0.721-0.479-4.051-1.021-6.211-1.05c-1.92,0-3,0.778-7.35,5.278
		c-3.9,4.052-4.62,4.438-5.43,2.818c-0.511-1.02-0.48-4.83,0.06-7.05c0.511-2.16,0.57-6.15,0.12-7.8
		c-0.18-0.66-0.84-1.682-1.47-2.313c-1.021-1.02-1.29-1.14-2.642-1.14c-1.291,0-1.738,0.18-3.238,1.29
		c-1.803,1.35-3.45,3.146-5.16,5.64c-1.32,1.95-2.49,2.854-4.23,3.271c-1.317,0.3-1.646,0.27-2.88-0.271
		c-1.739-0.776-7.92-4.408-10.95-6.447c-5.367-3.603-9.356-8.699-13.26-16.949c-2.52-5.342-7.26-11.88-14.76-20.37
		c-5.07-5.73-14.46-13.86-20.13-17.431c-4.32-2.729-6.062-3.933-7.2-5.103C579.78,500.13,579.3,500.07,579.3,501.42z"/>
	<path id="structure88_label99_acer" bar:type="" bar:growlevel="0" fill="#F200DD" d="M556.8,574.8c-1.47,1.47-0.09,4.17,1.95,3.78
		c0.48-0.12,1.05-0.36,1.26-0.57s0.45-0.777,0.57-1.26C560.97,574.71,558.27,573.33,556.8,574.8z"/>
	<path fill="#A8E959" d="M610.77,572.64c-2.696-5.37-4.407-7.47-19.316-23.79c-5.88-6.446-11.88-13.289-13.354-15.21
		c-2.67-3.51-5.696-8.34-7.617-12.146c-5.25-10.473-9.271-24.57-9.933-34.894c-0.27-4.646-1.35-33.72-1.35-37.05
		c0-5.97-2.79-16.35-7.71-28.8c-2.222-5.64-6.87-15.15-8.91-18.3c-1.449-2.217-1.763-2.539-2.518-2.548v129.212
		c1.788,0.039,2.803,1.733,4.104,6.866c1.229,4.8,1.893,6.656,3.511,9.688c5.461,10.32,15.329,21.063,25.473,27.84
		c6.51,4.354,24.479,14.28,27.63,15.271c4.05,1.29,6.6,0.87,8.97-1.53C613.62,583.35,613.95,578.939,610.77,572.64z"/>
	<path fill="#83E900" d="M610.77,572.64c-2.696-5.37-4.407-7.47-19.316-23.79c-5.88-6.446-11.88-13.289-13.354-15.21
		c-2.67-3.51-5.696-8.34-7.617-12.146c-5.25-10.473-9.271-24.57-9.933-34.894c-0.27-4.646-1.35-33.72-1.35-37.05
		c0-5.97-2.79-16.35-7.71-28.8c-2.222-5.64-6.87-15.15-8.91-18.3c-1.449-2.217-1.763-2.539-2.518-2.548v129.212
		c1.788,0.039,2.803,1.733,4.104,6.866c1.229,4.8,1.893,6.656,3.511,9.688c5.461,10.32,15.329,21.063,25.473,27.84
		c6.51,4.354,24.479,14.28,27.63,15.271c4.05,1.29,6.6,0.87,8.97-1.53C613.62,583.35,613.95,578.939,610.77,572.64z"/>
	<path fill="#77D400" d="M557.52,431.73c-1.828-11.91-5.188-25.771-10.078-41.882c-3.351-11.02-5.45-15.721-7.378-15.771v25.54
		c2.325,0.387,9.75,15.405,14.548,29.382c0.988,2.88,2.041,6.15,2.342,7.26c0.33,1.261,0.688,2.04,0.93,2.04
		C558.45,438.3,558.42,437.43,557.52,431.73z"/>
	<path fill="#8CFF00" d="M555.15,327.66c-0.092-0.09-1.5,0.27-3.15,0.779c-4.41,1.409-8.76,2.221-11.85,2.221
		c-0.027,0-0.063-0.002-0.088-0.002v37.086c4.631,0.006,9.052-2.425,10.918-6.184c0.658-1.291,0.72-4.621,0.3-14.012
		c-0.33-6.87-0.12-8.43,1.8-12.96C554.46,331.26,555.45,327.96,555.15,327.66z"/>
	<path id="structure93_text4051-7-0_S1DZ" bar:type="" bar:growlevel="0" fill="#FEFF3B" d="M848.7,213.63
		c-4.71,3.9-16.2,12.87-29.7,23.22c-10.859,8.31-47.88,36.03-52.891,39.6c-2.459,1.77-3.779,2.88-3.813,3.27
		c0,0.3,1.021,1.62,2.25,2.94c1.23,1.29,3.33,3.75,4.684,5.43c1.35,1.68,2.696,3.09,3,3.15c0.75,0.12,12.93-8.07,40.02-26.91
		c31.859-22.17,53.55-37.83,53.55-38.67c0-0.96-11.67-15.69-12.39-15.63C853.23,210.03,851.1,211.65,848.7,213.63z"/>
	<path fill="#FF23E9" d="M540.063,288.326v7.676c1.223-0.029,2.429-0.589,3.147-1.672
		C545.064,291.572,542.809,288.375,540.063,288.326z"/>
	<path id="structure96_text4605_Pir-2" bar:type="" bar:growlevel="0" fill="#F3FF59" d="M831.689,518.76
		c-0.989,1.11-1.592,2.49-3.301,7.74c-4.83,14.7-12.722,24.66-20.762,26.1c-3.39,0.604-6.51-0.09-15.146-3.42
		c-7.684-2.97-8.854-3.27-12.934-3.119c-2.97,0.093-3.51,0.209-5.369,1.079c-3.961,1.86-5.729,3.813-10.261,11.37
		c-4.858,8.104-6.778,13.354-7.319,19.95c-0.181,2.28-0.567,4.65-0.897,5.67c-0.33,0.96-0.603,1.92-0.603,2.101
		c0,0.183,0.659,1.229,1.473,2.343c0.81,1.08,1.947,2.76,2.55,3.688c1.229,1.95,1.8,2.34,3.3,2.34c1.26,0,2.67-1.08,3.48-2.729
		c0.51-0.96,0.6-1.771,0.6-5.01c0-2.132,0.21-5.04,0.45-6.45c1.02-5.88,4.35-13.894,6.897-16.5c2.041-2.13,4.619-3.24,7.949-3.45
		c2.94-0.148,5.46,0.15,12.301,1.5c5.791,1.17,11.609,1.32,14.521,0.45c4.62-1.41,8.25-4.021,13.771-9.84
		c4.5-4.74,6.959-8.134,9.359-13.021c2.189-4.41,3.63-8.55,4.8-13.92c1.08-4.71,0.87-5.64-1.35-6.78
		C833.37,517.92,832.47,517.89,831.689,518.76z"/>
	<path id="structure97_text4607_Pir-3" bar:type="" bar:growlevel="0" fill="#D8E900" d="M799.59,500.16
		c0.09,0.39,0.99,3.06,1.98,5.938c2.396,7.054,3.027,9.57,3.027,12.271c0,5.01-2.729,7.77-9.117,9.18
		c-2.791,0.63-6.24,0.511-8.28-0.3c-3.271-1.29-6.72-0.72-12.48,2.1c-6.029,2.94-10.858,7.17-14.67,12.9
		c-5.25,7.92-8.729,15.78-10.318,23.311c-0.688,3.303-1.108,4.289-2.642,5.973c-0.688,0.75-1.02,1.38-0.899,1.736
		c0.12,0.48,6.479,10.08,7.859,11.854c0.24,0.3,0.63,0.479,0.87,0.39c0.66-0.27,1.05-2.04,1.53-7.08
		c0.33-3.446,0.659-5.22,1.409-7.438c2.131-6.51,8.881-18.12,12.391-21.33c2.729-2.521,6.479-3.96,10.141-3.96
		c2.489,0,5.221,0.72,10.319,2.7c9.51,3.75,10.59,4.02,14.67,4.05c3.57,0,3.602,0,5.91-1.143c5.101-2.521,10.68-9.327,14.189-17.341
		c0.721-1.59,2.067-5.25,3-8.1c1.229-3.66,2.011-5.55,2.729-6.48c0.57-0.75,0.99-1.47,0.931-1.646
		c-0.061-0.15-1.979-1.2-4.291-2.313c-10.078-4.8-18.896-9.75-24.6-13.8C800.04,499.35,799.32,499.08,799.59,500.16z"/>
	<path id="structure98_text4609_Pir-1" bar:type="" bar:growlevel="0" fill="#C6D400" d="M837.21,521.46
		c0.12,1.17-0.09,2.61-0.81,5.46c-1.291,5.25-2.4,8.34-4.53,12.63c-2.46,4.98-5.103,8.55-10.11,13.684
		c-5.85,6.026-9.3,8.34-14.13,9.446c-2.97,0.724-8.58,0.42-14.43-0.75c-10.5-2.1-15.24-1.737-18.72,1.474
		c-1.83,1.68-2.883,3.42-4.53,7.408c-2.46,6.092-3.63,11.972-3.24,16.562c0.181,2.22-0.36,4.41-1.38,5.64
		c-0.811,0.96-2.46,1.894-3.391,1.894c-0.479,0-0.842,0.119-0.842,0.27c0,0.12,0.42,1.17,0.933,2.313c1.35,2.97,2.34,6,2.579,7.829
		c0.091,0.868,0.33,1.591,0.511,1.591c0.18,0,1.56-0.42,3.09-0.961l2.729-0.989l0.931-2.852c2.521-7.618,7.229-15,11.819-18.479
		c2.25-1.71,6.631-3.84,8.908-4.319c2.369-0.511,6.393-0.237,8.399,0.539c0.9,0.36,2.431,1.29,3.42,2.07
		c0.96,0.811,1.92,1.561,2.13,1.71c0.393,0.3,12.604-7.74,18.45-12.149c6.99-5.25,20.313-18.567,30.931-30.897
		c4.109-4.771,8.189-10.683,8.012-11.642c-0.063-0.271-1.5-0.75-3.989-1.381c-4.71-1.198-12.271-3.688-18-5.971
		c-2.312-0.93-4.353-1.68-4.562-1.68C837.15,519.9,837.09,520.38,837.21,521.46z"/>
	<path id="structure99_text4593_Tu-2" bar:type="" bar:growlevel="0" fill="#FFFAB2" d="M745.2,585.21
		c-2.521,0.87-10.17,9.18-15.36,16.771l-2.1,3.027l-2.313-0.75c-2.818-0.896-8.551-1.229-12.391-0.688
		c-3.898,0.566-9.811,2.188-15.84,4.38c-15.842,5.729-17.521,6.18-24.9,6.6c-5.908,0.33-15.72-0.66-23.396-2.37
		c-4.2-0.96-5.82-1.68-6.42-2.816c-0.24-0.48-0.871-3.75-1.383-7.29c-0.511-3.54-1.197-7.59-1.527-9.063l-0.631-2.606h-0.989
		c-0.54,0-2.312-0.36-3.932-0.78c-1.648-0.42-4.052-1.05-5.368-1.41c-1.74-0.45-3.36-0.63-5.854-0.63c-3.33-0.03-3.54,0-5.396,0.93
		c-2.16,1.08-4.803,3.21-4.803,3.87c0,0.54,0.239,0.54,3-0.06c3.029-0.631,7.109-0.631,8.313,0c1.71,0.869,1.529,1.59-1.41,5.279
		c-2.07,2.577-5.4,8.101-5.4,8.907c0,0.813,9.211,4.771,17.28,7.41c15.9,5.16,31.92,7.65,43.771,6.813
		c9.897-0.724,15.447-2.25,25.381-6.934c7.316-3.479,11.607-4.08,19.619-2.7c4.317,0.75,5.761,1.32,6.841,2.763
		c0.776,1.021,1.71,3.449,1.71,4.438c0,0.87,0.51,0.99,2.43,0.604c2.04-0.45,2.04-0.48,1.29-3.42c-0.33-1.23-0.45-2.67-0.356-4.41
		c0.146-3.271,0.81-4.5,2.879-5.223c2.488-0.867,3.271-1.287,4.438-2.311c1.684-1.5,3.36-4.26,4.2-7.05
		c1.229-4.052,2.34-4.261,6.51-1.11c2.224,1.71,2.974,2.04,4.144,1.86c0.93-0.12,1.08-1.08,0.448-2.67
		c-0.722-1.771-0.632-2.104,0.42-1.894c0.658,0.15,0.898,0.092,0.898-0.21c-0.03-0.566-3.898-5.938-4.648-6.45
		C752.49,584.79,747.66,584.37,745.2,585.21z"/>
	<path id="structure9_label9_LSV" bar:type="" bar:growlevel="0" fill="#92FF00" d="M605.641,403.5
		c-2.488,0.42-5.131,1.47-6.688,2.64c-1.38,1.021-1.74,1.62-4.44,6.96c-6.84,13.563-10.979,21.184-14.368,26.461
		c-4.529,7.079-5.791,15.989-2.818,19.859c0.99,1.32,2.85,2.19,5.188,2.46l1.894,0.21l2.606-2.55c1.474-1.41,3.45-3.09,4.474-3.78
		c5.55-3.72,13.68-7.71,17.25-8.49c0.896-0.209,1.736-0.446,1.856-0.566s0-2.34-0.27-4.98c-0.66-6.3-0.33-11.188,1.56-23.486
		c0.722-4.65,1.05-5.94,1.683-6.36c0.421-0.271,0.841-8.19,0.421-8.431C613.561,403.14,607.47,403.2,605.641,403.5z"/>
	
		<text id="Unlabeled-1851-1390" bar:growlevel="0" transform="matrix(1 0 0 1 570 466.7998)" fill="#232323" enable-background="new    " font-family="'TimesNewRomanPSMT'" font-size="9">LPO</text>
	
		<text id="text3051" bar:growlevel="0" transform="matrix(1 0 0 1 542.2168 293.4004)" fill="#232323" enable-background="new    " font-family="'TimesNewRomanPSMT'" font-size="9">azp</text>
	
		<text id="text3050" bar:growlevel="0" transform="matrix(1 0 0 1 544.415 322.6807)" fill="#232323" enable-background="new    " font-family="'TimesNewRomanPSMT'" font-size="9">cc</text>
	
		<text id="text5283" bar:growlevel="0" transform="matrix(1 0 0 1 711.4141 618.2559)" fill="#232323" enable-background="new    " font-family="'TimesNewRomanPSMT'" font-size="9">Tu-1</text>
	
		<text id="label30" bar:growlevel="0" transform="matrix(1 0 0 1 573.8906 187.207)" fill="#232323" enable-background="new    " font-family="'TimesNewRomanPSMT'" font-size="9">Cg1</text>
	
		<text id="label31" bar:growlevel="0" transform="matrix(1 0 0 1 563.21 255.9395)" fill="#232323" enable-background="new    " font-family="'TimesNewRomanPSMT'" font-size="9">Cg2</text>
	
		<text id="label32" bar:growlevel="0" transform="matrix(1 0 0 1 599.3398 325.1318)" fill="#232323" enable-background="new    " font-family="'TimesNewRomanPSMT'" font-size="9">LV</text>
	
		<text id="label35" bar:growlevel="0" transform="matrix(1 0 0 1 568.3799 334.084)" fill="#232323" enable-background="new    " font-family="'TimesNewRomanPSMT'" font-size="9">LSD</text>
	
		<text id="label9" bar:growlevel="0" transform="matrix(1 0 0 1 591.0498 435.1914)" fill="#232323" enable-background="new    " font-family="'TimesNewRomanPSMT'" font-size="9">LSV</text>
	
		<text id="label0" bar:growlevel="0" transform="matrix(1 0 0 1 591.0498 491.3564)" fill="#232323" enable-background="new    " font-family="'TimesNewRomanPSMT'" font-size="9">AcbSh</text>
	
		<text id="label1" bar:growlevel="0" transform="matrix(1 0 0 1 644.6201 508.5645)" fill="#232323" enable-background="new    " font-family="'TimesNewRomanPSMT'" font-size="9">AcbC</text>
	
		<text id="label3" bar:growlevel="0" transform="matrix(1 0 0 1 640.6797 581.5273)" fill="#232323" enable-background="new    " font-family="'TimesNewRomanPSMT'" font-size="9">VP</text>
	
		<text id="label4" bar:growlevel="0" transform="matrix(1 0 0 1 586.3105 578.5664)" fill="#232323" enable-background="new    " font-family="'TimesNewRomanPSMT'" font-size="9">HDB</text>
	
		<text id="Unlabeled-2168-1989" bar:growlevel="0" transform="matrix(1 0 0 1 650.0996 601.5)" fill="#232323" enable-background="new    " font-family="'TimesNewRomanPSMT'" font-size="9">ICj</text>
	
		<text id="label85" bar:growlevel="0" transform="matrix(1 0 0 1 704.7402 592.4893)" fill="#232323" enable-background="new    " font-family="'TimesNewRomanPSMT'" font-size="9">ICj</text>
	
		<text id="label84" bar:growlevel="0" transform="matrix(1 0 0 1 615.9297 600.5098)" fill="#232323" enable-background="new    " font-family="'TimesNewRomanPSMT'" font-size="9">ICj</text>
	
		<text id="label87" bar:growlevel="0" transform="matrix(1 0 0 1 584.3496 528.2178)" fill="#232323" enable-background="new    " font-family="'TimesNewRomanPSMT'" font-size="9">SIB</text>
	
		<text id="label86" bar:growlevel="0" transform="matrix(1 0 0 1 612.4502 488.4004)" fill="#232323" enable-background="new    " font-family="'TimesNewRomanPSMT'" font-size="9">STMA</text>
	
		<text id="label81" bar:growlevel="0" transform="matrix(1 0 0 1 550.0254 298.1826)" fill="#232323" enable-background="new    " font-family="'TimesNewRomanPSMT'" font-size="9">IG</text>
	
		<text id="label80" bar:growlevel="0" transform="matrix(1 0 0 1 625.3301 285.8447)" fill="#232323" enable-background="new    " font-family="'TimesNewRomanPSMT'" font-size="9">E</text>
	
		<text id="label82" bar:growlevel="0" transform="matrix(1 0 0 1 739.6699 538.8594)" fill="#232323" enable-background="new    " font-family="'TimesNewRomanPSMT'" font-size="9">LSS</text>
	
		<text id="label89" bar:growlevel="0" transform="matrix(1 0 0 1 887.1895 478.1387)" fill="#232323" enable-background="new    " font-family="'TimesNewRomanPSMT'" font-size="9">mcer</text>
	
		<text id="text4051-7-0" bar:growlevel="0" transform="matrix(1 0 0 1 831.0498 240.2148)" fill="#232323" enable-background="new    " font-family="'TimesNewRomanPSMT'" font-size="9">S1DZ</text>
	
		<text id="text4607" bar:growlevel="0" transform="matrix(1 0 0 1 807.7607 546.7832)" fill="#232323" enable-background="new    " font-family="'TimesNewRomanPSMT'" font-size="9">Pir-3</text>
	
		<text id="text4605" bar:growlevel="0" transform="matrix(1 0 0 1 807.2461 558.6533)" fill="#232323" enable-background="new    " font-family="'TimesNewRomanPSMT'" font-size="9">Pir-2</text>
	
		<text id="label18" bar:growlevel="0" transform="matrix(1 0 0 1 779.6699 513.085)" fill="#232323" enable-background="new    " font-family="'TimesNewRomanPSMT'" font-size="9">DEn</text>
	
		<text id="label19" bar:growlevel="0" transform="matrix(1 0 0 1 790.4697 473.6484)" fill="#232323" enable-background="new    " font-family="'TimesNewRomanPSMT'" font-size="9">VCl</text>
	
		<text id="label12" bar:growlevel="0" transform="matrix(1 0 0 1 575.0195 381.7813)" fill="#232323" enable-background="new    " font-family="'TimesNewRomanPSMT'" font-size="9">LSI</text>
	
		<text id="label10" bar:growlevel="0" transform="matrix(1 0 0 1 759.1602 529.1074)" fill="#232323" enable-background="new    " font-family="'TimesNewRomanPSMT'" font-size="9">IEn</text>
	
		<text id="label11" bar:growlevel="0" transform="matrix(1 0 0 1 545.2178 441.9063)" fill="#232323" enable-background="new    " font-family="'TimesNewRomanPSMT'" font-size="9">MS</text>
	
		<text id="label14" bar:growlevel="0" transform="matrix(1 0 0 1 693.71 384.3926)" fill="#232323" enable-background="new    " font-family="'TimesNewRomanPSMT'" font-size="9">CPu</text>
	
		<text id="label90" bar:growlevel="0" transform="matrix(1 0 0 1 836.3496 564.9844)" fill="#232323" enable-background="new    " font-family="'TimesNewRomanPSMT'" font-size="9">mcer</text>
	
		<text id="label99" bar:growlevel="0" transform="matrix(1 0 0 1 557.915 576.459)" fill="#232323" enable-background="new    " font-family="'TimesNewRomanPSMT'" font-size="9">acer</text>
	
		<text id="text4597" bar:growlevel="0" transform="matrix(1 0 0 1 750.9219 606.5078)" fill="#232323" enable-background="new    " font-family="'TimesNewRomanPSMT'" font-size="9">Tu-1</text>
	
		<text id="label76" bar:growlevel="0" transform="matrix(1 0 0 1 672.8398 584.0879)" fill="#232323" enable-background="new    " font-family="'TimesNewRomanPSMT'" font-size="9">mfb</text>
	
		<text id="text4593" bar:growlevel="0" transform="matrix(1 0 0 1 701.7363 611.0313)" fill="#232323" enable-background="new    " font-family="'TimesNewRomanPSMT'" font-size="9">Tu-2</text>
	
		<text id="label101" bar:growlevel="0" transform="matrix(1 0 0 1 547.6426 515.875)" fill="#232323" enable-background="new    " font-family="'TimesNewRomanPSMT'" font-size="9">VDB</text>
	
		<text id="label28" bar:growlevel="0" transform="matrix(1 0 0 1 664.7402 178.916)" fill="#232323" enable-background="new    " font-family="'TimesNewRomanPSMT'" font-size="9">M1</text>
	
		<text id="label74" bar:growlevel="0" transform="matrix(1 0 0 1 786.21 591.0986)" fill="#232323" enable-background="new    " font-family="'TimesNewRomanPSMT'" font-size="9">lo</text>
	
		<text id="label75" bar:growlevel="0" transform="matrix(1 0 0 1 620.54 493.5918)" fill="#232323" enable-background="new    " font-family="'TimesNewRomanPSMT'" font-size="9">aca</text>
	
		<text id="label105" bar:growlevel="0" transform="matrix(1 0 0 1 541.7822 350.0811)" fill="#232323" enable-background="new    " font-family="'TimesNewRomanPSMT'" font-size="9">SHi</text>
	
		<text id="label77" bar:growlevel="0" transform="matrix(1 0 0 1 564.4004 422.1895)" fill="#232323" enable-background="new    " font-family="'TimesNewRomanPSMT'" font-size="9">PLd</text>
	
		<text id="label103" bar:growlevel="0" transform="matrix(1 0 0 1 544.415 393.4355)" fill="#232323" enable-background="new    " font-family="'TimesNewRomanPSMT'" font-size="9">Ld</text>
	
		<text id="label72" bar:growlevel="0" transform="matrix(1 0 0 1 620.3398 237.2559)" fill="#232323" enable-background="new    " font-family="'TimesNewRomanPSMT'" font-size="9">cg</text>
	
		<text id="label73" bar:growlevel="0" transform="matrix(1 0 0 1 783.6201 325.7119)" fill="#232323" enable-background="new    " font-family="'TimesNewRomanPSMT'" font-size="9">ec</text>
	
		<text id="text4609" bar:growlevel="0" transform="matrix(1 0 0 1 808.9805 569.3662)" fill="#232323" enable-background="new    " font-family="'TimesNewRomanPSMT'" font-size="9">Pir-1</text>
	
		<text id="text4595" bar:growlevel="0" transform="matrix(1 0 0 1 698.7051 601.5684)" fill="#232323" enable-background="new    " font-family="'TimesNewRomanPSMT'" font-size="9">Tu-3</text>
	
		<text id="label23" bar:growlevel="0" transform="matrix(1 0 0 1 840.9297 464.9063)" fill="#232323" enable-background="new    " font-family="'TimesNewRomanPSMT'" font-size="9">DI</text>
	
		<text id="label22" bar:growlevel="0" transform="matrix(1 0 0 1 832.8906 487.2002)" fill="#232323" enable-background="new    " font-family="'TimesNewRomanPSMT'" font-size="9">AID</text>
	
		<text id="label21" bar:growlevel="0" transform="matrix(1 0 0 1 825.4004 507.8643)" fill="#232323" enable-background="new    " font-family="'TimesNewRomanPSMT'" font-size="9">AIV</text>
	
		<text id="label20" bar:growlevel="0" transform="matrix(1 0 0 1 795.8105 441.3418)" fill="#232323" enable-background="new    " font-family="'TimesNewRomanPSMT'" font-size="9">DCl</text>
	
		<text id="label27" bar:growlevel="0" transform="matrix(1 0 0 1 749.9902 203.1201)" fill="#232323" enable-background="new    " font-family="'TimesNewRomanPSMT'" font-size="9">S1FL</text>
	
		<text id="label26" bar:growlevel="0" transform="matrix(1 0 0 1 830.5498 304.2285)" fill="#232323" enable-background="new    " font-family="'TimesNewRomanPSMT'" font-size="9">S1ULp</text>
	
		<text id="label25" bar:growlevel="0" transform="matrix(1 0 0 1 853.0303 391.9941)" fill="#232323" enable-background="new    " font-family="'TimesNewRomanPSMT'" font-size="9">S2</text>
	
		<text id="label24" bar:growlevel="0" transform="matrix(1 0 0 1 846.6201 442.6123)" fill="#232323" enable-background="new    " font-family="'TimesNewRomanPSMT'" font-size="9">GI</text>
	
		<text id="label29" bar:growlevel="0" transform="matrix(1 0 0 1 619.9297 176.0654)" fill="#232323" enable-background="new    " font-family="'TimesNewRomanPSMT'" font-size="9">M2</text>
	
		<text id="Unlabeled-2046-1375" bar:growlevel="0" transform="matrix(1 0 0 1 613.2002 417)" fill="#232323" enable-background="new    " font-family="'TimesNewRomanPSMT'" font-size="9">E</text>
</g>
<text id="label4_1_" bar:growlevel="0" transform="matrix(1 0 0 1 591.8398 589.4951)" fill="#232323" enable-background="new    " font-family="'TimesNewRomanPSMT'" font-size="9">grey</text>
</svg>
