<?xml version="1.0" encoding="utf-8"?>
<!-- Generator: Adobe Illustrator 16.0.0, SVG Export Plug-In . SVG Version: 6.00 Build 0)  -->
<!DOCTYPE svg PUBLIC "-//W3C//DTD SVG 1.1//EN" "http://www.w3.org/Graphics/SVG/1.1/DTD/svg11.dtd">
<svg version="1.1"
	 id="body" xmlns:bar="http://www.3dbar.org" xmlns:cc="http://creativecommons.org/ns#" xmlns:dc="http://purl.org/dc/elements/1.1/" xmlns:inkscape="http://www.inkscape.org/namespaces/inkscape" xmlns:rdf="http://www.w3.org/1999/02/22-rdf-syntax-ns#" xmlns:sodipodi="http://sodipodi.sourceforge.net/DTD/sodipodi-0.dtd" xmlns:svg="http://www.w3.org/2000/svg" inkscape:version="0.47pre4 r22446" sodipodi:docname="132_pretrace_pretrace_v1.svg"
	 xmlns="http://www.w3.org/2000/svg" xmlns:xlink="http://www.w3.org/1999/xlink" x="0px" y="0px" width="1008px" height="1008px"
	 viewBox="0 0 1008 1008" enable-background="new 0 0 1008 1008" xml:space="preserve">
<sodipodi:namedview  bordercolor="#666666" borderopacity="1" gridtolerance="10" guidetolerance="10" id="namedview403" inkscape:cx="537.55477" inkscape:cy="677.68514" inkscape:zoom="27.750126" objecttolerance="10" pagecolor="#ffffff" showgrid="false" inkscape:window-height="1026" inkscape:window-maximized="1" inkscape:window-x="0" inkscape:object-paths="true" inkscape:window-width="1678" inkscape:pageopacity="0" inkscape:current-layer="content" inkscape:pageshadow="2" inkscape:window-y="0">
	</sodipodi:namedview>
<title  id="title3">SVG drawing</title>
<desc  id="desc5">This was produced by version 4.2 of GNU libplot, a free library for exporting 2-D vector graphics.</desc>
<defs>
	
	<rdf:RDF>
		<cc:Work  rdf:about="">
			<dc:format>image/svg+xml</dc:format>
			<dc:type  rdf:resource="http://purl.org/dc/dcmitype/StillImage"></dc:type>
		</cc:Work>
	</rdf:RDF>
	<bar:data  name="coronalcoord" content="-6.72"></bar:data>
	
		<bar:data  name="rendererConf" content="{&apos;ReferenceHeight&apos;: 900, &apos;ReferenceWidth&apos;: 1200, &apos;imageSize&apos;: (1200, 900)}">
		</bar:data>
	
		<bar:data  name="tracingConf" content="{&apos;DumpEachStepSVG&apos;: False, &apos;DumpEachStepPNG&apos;: False, &apos;GrowDefaultBoundaryColor&apos;: 200, &apos;CacheLevel&apos;: 5, &apos;NewPathIdTemplate&apos;: &apos;structure%d_%s_%s&apos;, &apos;PoTraceConf&apos;: {&apos;potrace_accuracy_parameter&apos;: &apos;0.001&apos;, &apos;potrace_width_string&apos;: &apos;1200pt&apos;, &apos;potrace_svg_resolution_string&apos;: &apos;300x300&apos;, &apos;potrace_height_string&apos;: &apos;900pt&apos;}, &apos;DetectUnlabelled&apos;: True, &apos;DumpVBrain&apos;: False, &apos;DumpWrongSeed&apos;: True, &apos;DumpDirectory&apos;: &apos;.&apos;, &apos;MinFiterTimesApplication&apos;: 3, &apos;RegionAlreadyTraced&apos;: 100, &apos;UnlabelledTreshold&apos;: 500}">
		</bar:data>
	<bar:data  name="transformationmatrix" content="0.0176211454,-9.5150660793,0.0176211454,-1.5355884426"></bar:data>
</defs>
<g id="content">
	<path fill="#FF000C" d="M982.65,358.8c-4.29-36.75-19.052-76.74-38.552-104.4c-12.96-18.36-28.408-35.37-46.528-51.18
		c-4.021-3.54-18.722-15.72-26.19-21.72c-14.43-11.58-27.36-20.04-41.729-27.3c-8.312-4.17-11.852-5.7-28.2-12.12
		c-30.69-12-41.61-15.24-71.25-21c-52.98-10.35-82.471-12.54-111.602-8.25c-15.63,2.28-30.3,6.66-38.85,11.58
		c-7.71,4.41-13.92,11.46-18.9,21.39c-5.908,11.82-8.85,23.94-8.85,36.6c0,10.65,1.95,19.98,6.09,29.34
		c5.312,11.88,14.43,21.6,25.08,26.729c1.71,0.812,3.96,1.74,5.01,2.04c1.052,0.3,1.92,0.69,1.92,0.9c0,0.51-0.539,0.48-4.26-0.09
		c-2.28-0.36-4.29-0.45-7.74-0.36c-4.198,0.15-4.948,0.27-7.648,1.14c-9.66,3.12-21.78,11.91-25.92,18.75
		c-1.352,2.22-2.91,6.96-3.57,10.71c-0.346,2.09-0.635,3.041-0.96,2.849v28.321c0.24,0,0.9,0.51,1.44,1.17
		c0.51,0.63,0.96,1.35,0.96,1.59c0,0.489-1.206,0.727-2.4,0.709v347.743c0.672,0.004,1.361-0.172,2.01-0.572
		c1.92-1.17,2.341-3.03,1.261-5.28c-0.359-0.72-0.569-1.38-0.511-1.438c0.062-0.062,3.96,0.148,8.642,0.479
		c13.56,0.99,18.358,0.63,29.369-2.13c11.851-3,23.851-7.98,29.789-12.45c4.922-3.72,9.961-9.72,12.75-15.27
		c1.472-2.91,2.972-6.87,3.422-9.03c0.328-1.62,0.3-1.95-0.182-2.94c-0.75-1.59-2.01-2.158-7.108-3.329
		c-1.262-0.301-1.021-0.899,0.72-1.711c1.859-0.868,6.78-4.079,10.92-7.17c1.77-1.35,6.39-5.608,11.52-10.648
		c8.49-8.4,10.682-10.32,25.052-22.05c11.188-9.182,15.448-12.9,18.51-16.29c10.02-11.13,17.04-22.62,19.32-31.65
		c1.079-4.26,1.5-9.21,1.079-12.6l-0.329-2.79l8.88-13.71c15.93-24.631,24.6-38.82,26.398-43.29c0.96-2.341,1.59-2.7,1.59-0.87
		c0,2.34,1.562,4.17,3.69,4.41c4.17,0.479,6.09-4.921,2.61-7.41c-1.592-1.142-4.5-0.63-5.49,0.898c-0.391,0.66-1.11,0.812-1.11,0.21
		c0-0.21,0.33-1.648,0.721-3.21c2.011-7.89,1.681-17.04-1.021-30.148c-2.1-10.17-4.32-17.13-7.35-23.1
		c-3.271-6.48-5.642-9.72-12.15-16.71c-2.189-2.34-4.229-4.8-4.53-5.49c-0.42-0.87-0.568-1.92-0.568-3.93
		c0-6.96-2.46-14.19-7.2-21.45c-2.13-3.27-2.25-4.14-0.9-6.72c1.11-2.13,1.17-3.63,0.15-6.63c-1.352-3.99-2.55-6.03-8.521-14.22
		c-6.39-8.79-19.528-26.01-21.72-28.5c-6.09-6.84-13.56-11.85-23.64-15.78c-7.08-2.76-19.74-6.87-27.12-8.79
		c-21.72-5.64-34.352-9.27-34.352-9.84c0-0.66,1.352-0.45,10.052,1.56c26.22,6.06,48.54,13.08,60.028,18.9
		c7.92,3.99,13.052,7.92,17.88,13.71c3.092,3.72,3.99,4.89,11.7,15.27c10.86,14.58,17.4,21.21,34.11,34.56
		c6.36,5.07,16.02,12.33,19.56,14.7c4.562,3.03,8.61,4.05,11.972,3.06c0.898-0.27,2.04-0.57,2.52-0.66c1.05-0.21,1.05-0.18-0.6,4.41
		c-1.051,2.85-1.142,3.42-1.142,6.15c0.03,3.75,0.54,5.22,4.2,11.52c5.49,9.57,9.45,21.12,13.44,39.33
		c2.37,10.8,4.62,21.931,5.16,25.5c0.658,4.29,0.75,13.92,0.18,16.65c-0.66,2.938-1.021,4.05-1.38,4.05
		c-0.182,0-0.84-1.2-1.471-2.67c-2.221-5.16-5.279-9.3-7.261-9.812c-0.479-0.118-1.229,0-1.979,0.33
		c-1.38,0.631-5.642,4.98-7.2,7.352c-0.602,0.898-1.95,3-3.03,4.68c-1.08,1.65-4.17,6.03-6.87,9.75
		c-18.3,25.08-21.568,31.44-24.54,47.521c-2.58,13.83-2.76,31.591-0.448,43.051c1.56,7.77,5.789,16.229,12,24
		c7.078,8.85,23.908,22.949,31.738,26.58c12.182,5.608,26.762,5.55,57.48-0.21c25.95-4.892,38.34-8.671,53.85-16.472
		c15.66-7.89,28.2-17.068,40.29-29.55c17.76-18.3,29.7-38.729,35.13-60.149c1.892-7.5,2.551-11.789,2.551-16.949
		c0.029-4.92,0.271-3.721-2.971-15.301c-1.14-4.17-1.47-7.529-0.779-8.369c0.211-0.24,1.351-0.812,2.521-1.262
		c2.85-1.079,4.62-2.398,6.18-4.618c1.682-2.4,2.642-4.562,4.62-10.65c5.94-18.06,9.78-37.38,11.04-55.5
		C983.55,376.98,983.31,364.44,982.65,358.8z"/>
	<path id="structure2_label148_vBrain" bar:growlevel="0" bar:type="" fill="#FF000C" d="M752.43,407.43
		c-3.42,2.07-3.448,6.42-0.09,8.312c2.28,1.26,4.71,0.6,6.271-1.71C761.22,410.19,756.36,405.03,752.43,407.43z"/>
	<path id="structure4_label148_vBrain" bar:growlevel="0" bar:type="" fill="#FF000C" d="M733.92,458.7c-2.31,1.17-3.18,4.02-1.83,6
		c1.05,1.56,2.102,2.188,3.66,2.188c2.37,0,4.2-1.858,4.2-4.29C739.95,459.36,736.71,457.29,733.92,458.7z"/>
	<path id="structure6_label148_vBrain" bar:growlevel="0" bar:type="" fill="#FF000C" d="M697.35,565.08
		c-0.479,0.06-2.188,0.27-3.75,0.45c-4.38,0.479-11.31,1.95-14.908,3.148c-9.87,3.271-17.432,8.972-19.472,14.58
		c-1.47,4.08,1.11,15.09,5.761,24.33c3.421,6.78,6.811,9.931,11.189,10.32c2.7,0.24,4.65-0.45,14.43-5.25
		c5.04-2.46,11.19-5.37,13.65-6.51c10.68-4.802,13.23-6.271,16.05-9.36c3.12-3.42,5.76-9.06,5.76-12.36
		c0.03-4.92-3.18-10.858-8.158-15c-4.32-3.6-6.42-4.26-14.102-4.38C700.74,564.99,697.86,565.02,697.35,565.08z"/>
	<path id="structure123_label119_fmj" bar:growlevel="0" bar:type="" fill="#D2FFB2" d="M658.2,193.77c0,0.81,2.58,4.53,4.979,7.23
		c6.54,7.32,23.16,24.51,27.69,28.62c2.938,2.67,5.13,4.86,4.92,4.92s-0.39,0.24-0.39,0.39c0,0.48,12.3,13.83,17.818,19.32
		c9.42,9.39,18.182,15.66,23.88,17.13c2.432,0.63,8.7,0.72,11.25,0.15c3.302-0.72,6.75-2.19,10.17-4.26
		c5.61-3.39,10.052-4.5,17.882-4.53c21.06,0,44.55,11.52,70.05,34.32c29.1,26.01,48,60.48,52.529,95.79
		c0.779,5.91,0.779,19.56,0,25.5c-1.591,12.54-4.079,21.9-9.631,36.302c-5.608,14.58-11.488,28.02-15.33,35.04
		c-5.729,10.5-10.289,16.26-20.85,26.31c-12.78,12.15-17.97,15.9-27.18,19.68c-6,2.46-9.63,3.63-13.23,4.17
		c-3.63,0.57-4.56,0.932-4.56,1.74c0,0.57,0.12,0.602,3.63,0.392c4.5-0.24,9.57-1.11,12.72-2.132c3.09-1.02,9.9-4.318,13.95-6.75
		c15.45-9.3,29.04-23.88,40.17-43.198c7.23-12.512,15-31.17,19.53-46.83c6.84-23.7,7.68-47.311,2.37-67.47
		c-0.512-1.89-1.5-5.82-2.25-8.7c-5.61-22.38-16.562-43.41-32.7-62.85c-4.2-5.07-16.29-17.13-21.271-21.24
		c-9.63-7.89-26.698-18.87-38.88-24.96c-13.29-6.69-23.608-10.02-38.04-12.3c-9.12-1.47-18.96-5.19-38.58-14.64
		c-4.948-2.37-10.438-4.98-12.238-5.76c-1.771-0.81-3.15-1.5-3.092-1.56c0.182-0.18,4.44,1.771,15.48,7.021
		c12.72,6.09,15.27,7.229,20.4,9.24c8.188,3.21,12.75,4.44,21.21,5.85c20.55,3.42,40.92,13.02,67.14,31.65
		c10.59,7.5,23.43,20.19,32.729,32.25c11.069,14.4,20.341,31.8,25.591,48.09c1.409,4.38,5.37,19.53,6.3,24.09
		c2.91,14.28,2.76,30.72-0.45,47.371c-3.03,15.659-9.6,34.438-17.97,51.3c-3.812,7.68-6.3,12.09-10.26,18.12
		c-11.94,18.09-27.66,32.22-44.132,39.63c-5.729,2.55-10.68,3.78-17.04,4.14c-3,0.181-3.568,0.3-3.658,0.72
		c-0.15,0.812,2.04,1.29,6.09,1.262c4.17,0,7.5-0.602,12.3-2.13c16.08-5.19,31.771-17.61,45.03-35.642
		c8.55-11.64,15.54-24.33,21.39-38.818c5.43-13.41,11.82-36.961,13.65-50.28c2.31-16.83,0.81-35.07-4.62-56.91
		c-7.47-29.88-26.46-59.31-54.15-83.82c-9.99-8.82-29.46-20.4-57.898-34.35C763.83,229.2,748.89,223.2,717.6,213
		c-21.148-6.87-25.5-8.37-39.148-13.5c-13.95-5.25-17.13-6.3-18.99-6.3C658.41,193.2,658.2,193.29,658.2,193.77z M769.59,255.21
		c-0.21,0.06-0.57,0.06-0.75,0c-0.21-0.09-0.06-0.15,0.36-0.15S769.77,255.12,769.59,255.21z M777.09,255.21
		c-0.21,0.06-0.63,0.06-0.898,0c-0.302-0.09-0.12-0.15,0.358-0.15C777.06,255.06,777.27,255.12,777.09,255.21z M779.31,255.48
		c-0.09,0.09-0.358,0.12-0.568,0.03c-0.24-0.09-0.15-0.18,0.18-0.18C779.25,255.3,779.43,255.39,779.31,255.48z M781.11,255.78
		c-0.092,0.09-0.36,0.12-0.57,0.03c-0.24-0.09-0.15-0.18,0.18-0.18C781.05,255.6,781.23,255.69,781.11,255.78z M742.11,258.78
		c-0.092,0.09-0.36,0.12-0.57,0.03c-0.24-0.09-0.15-0.18,0.18-0.18C742.05,258.6,742.23,258.69,742.11,258.78z M744.69,259.11
		c-0.21,0.06-0.632,0.06-0.9,0c-0.3-0.09-0.12-0.15,0.36-0.15C744.66,258.96,744.87,259.02,744.69,259.11z M754.41,259.08
		c-0.09,0.09-0.36,0.12-0.57,0.03c-0.24-0.09-0.148-0.18,0.18-0.18C754.35,258.9,754.53,258.99,754.41,259.08z M750.69,259.41
		c-0.69,0.06-1.922,0.06-2.7,0c-0.78-0.06-0.21-0.09,1.26-0.09C750.75,259.32,751.38,259.35,750.69,259.41z"/>
	<path id="structure124_label120_dhc" bar:growlevel="0" bar:type="" fill="#C9FFB2" d="M658.2,193.77c0,0.81,2.58,4.53,4.979,7.23
		c6.54,7.32,23.16,24.51,27.69,28.62c2.938,2.67,5.13,4.86,4.92,4.92s-0.39,0.24-0.39,0.39c0,0.48,12.3,13.83,17.818,19.32
		c9.42,9.39,18.182,15.66,23.88,17.13c2.432,0.63,8.7,0.72,11.25,0.15c3.302-0.72,6.75-2.19,10.17-4.26
		c5.61-3.39,10.052-4.5,17.882-4.53c21.06,0,44.55,11.52,70.05,34.32c29.1,26.01,48,60.48,52.529,95.79
		c0.779,5.91,0.779,19.56,0,25.5c-1.591,12.54-4.079,21.9-9.631,36.302c-5.608,14.58-11.488,28.02-15.33,35.04
		c-5.729,10.5-10.289,16.26-20.85,26.31c-12.78,12.15-17.97,15.9-27.18,19.68c-6,2.46-9.63,3.63-13.23,4.17
		c-3.63,0.57-4.56,0.932-4.56,1.74c0,0.57,0.12,0.602,3.63,0.392c4.5-0.24,9.57-1.11,12.72-2.132c3.09-1.02,9.9-4.318,13.95-6.75
		c15.45-9.3,29.04-23.88,40.17-43.198c7.23-12.512,15-31.17,19.53-46.83c6.84-23.7,7.68-47.311,2.37-67.47
		c-0.512-1.89-1.5-5.82-2.25-8.7c-5.61-22.38-16.562-43.41-32.7-62.85c-4.2-5.07-16.29-17.13-21.271-21.24
		c-9.63-7.89-26.698-18.87-38.88-24.96c-13.29-6.69-23.608-10.02-38.04-12.3c-9.12-1.47-18.96-5.19-38.58-14.64
		c-4.948-2.37-10.438-4.98-12.238-5.76c-1.771-0.81-3.15-1.5-3.092-1.56c0.182-0.18,4.44,1.771,15.48,7.021
		c12.72,6.09,15.27,7.229,20.4,9.24c8.188,3.21,12.75,4.44,21.21,5.85c20.55,3.42,40.92,13.02,67.14,31.65
		c10.59,7.5,23.43,20.19,32.729,32.25c11.069,14.4,20.341,31.8,25.591,48.09c1.409,4.38,5.37,19.53,6.3,24.09
		c2.91,14.28,2.76,30.72-0.45,47.371c-3.03,15.659-9.6,34.438-17.97,51.3c-3.812,7.68-6.3,12.09-10.26,18.12
		c-11.94,18.09-27.66,32.22-44.132,39.63c-5.729,2.55-10.68,3.78-17.04,4.14c-3,0.181-3.568,0.3-3.658,0.72
		c-0.15,0.812,2.04,1.29,6.09,1.262c4.17,0,7.5-0.602,12.3-2.13c16.08-5.19,31.771-17.61,45.03-35.642
		c8.55-11.64,15.54-24.33,21.39-38.818c5.43-13.41,11.82-36.961,13.65-50.28c2.31-16.83,0.81-35.07-4.62-56.91
		c-7.47-29.88-26.46-59.31-54.15-83.82c-9.99-8.82-29.46-20.4-57.898-34.35C763.83,229.2,748.89,223.2,717.6,213
		c-21.148-6.87-25.5-8.37-39.148-13.5c-13.95-5.25-17.13-6.3-18.99-6.3C658.41,193.2,658.2,193.29,658.2,193.77z M769.59,255.21
		c-0.21,0.06-0.57,0.06-0.75,0c-0.21-0.09-0.06-0.15,0.36-0.15S769.77,255.12,769.59,255.21z M777.09,255.21
		c-0.21,0.06-0.63,0.06-0.898,0c-0.302-0.09-0.12-0.15,0.358-0.15C777.06,255.06,777.27,255.12,777.09,255.21z M779.31,255.48
		c-0.09,0.09-0.358,0.12-0.568,0.03c-0.24-0.09-0.15-0.18,0.18-0.18C779.25,255.3,779.43,255.39,779.31,255.48z M781.11,255.78
		c-0.092,0.09-0.36,0.12-0.57,0.03c-0.24-0.09-0.15-0.18,0.18-0.18C781.05,255.6,781.23,255.69,781.11,255.78z M742.11,258.78
		c-0.092,0.09-0.36,0.12-0.57,0.03c-0.24-0.09-0.15-0.18,0.18-0.18C742.05,258.6,742.23,258.69,742.11,258.78z M744.69,259.11
		c-0.21,0.06-0.632,0.06-0.9,0c-0.3-0.09-0.12-0.15,0.36-0.15C744.66,258.96,744.87,259.02,744.69,259.11z M754.41,259.08
		c-0.09,0.09-0.36,0.12-0.57,0.03c-0.24-0.09-0.148-0.18,0.18-0.18C754.35,258.9,754.53,258.99,754.41,259.08z M750.69,259.41
		c-0.69,0.06-1.922,0.06-2.7,0c-0.78-0.06-0.21-0.09,1.26-0.09C750.75,259.32,751.38,259.35,750.69,259.41z"/>
	<path id="structure125_label121_alv" bar:growlevel="0" bar:type="" fill="#8CFF59" d="M658.2,193.77c0,0.81,2.58,4.53,4.979,7.23
		c6.54,7.32,23.16,24.51,27.69,28.62c2.938,2.67,5.13,4.86,4.92,4.92s-0.39,0.24-0.39,0.39c0,0.48,12.3,13.83,17.818,19.32
		c9.42,9.39,18.182,15.66,23.88,17.13c2.432,0.63,8.7,0.72,11.25,0.15c3.302-0.72,6.75-2.19,10.17-4.26
		c5.61-3.39,10.052-4.5,17.882-4.53c21.06,0,44.55,11.52,70.05,34.32c29.1,26.01,48,60.48,52.529,95.79
		c0.779,5.91,0.779,19.56,0,25.5c-1.591,12.54-4.079,21.9-9.631,36.302c-5.608,14.58-11.488,28.02-15.33,35.04
		c-5.729,10.5-10.289,16.26-20.85,26.31c-12.78,12.15-17.97,15.9-27.18,19.68c-6,2.46-9.63,3.63-13.23,4.17
		c-3.63,0.57-4.56,0.932-4.56,1.74c0,0.57,0.12,0.602,3.63,0.392c4.5-0.24,9.57-1.11,12.72-2.132c3.09-1.02,9.9-4.318,13.95-6.75
		c15.45-9.3,29.04-23.88,40.17-43.198c7.23-12.512,15-31.17,19.53-46.83c6.84-23.7,7.68-47.311,2.37-67.47
		c-0.512-1.89-1.5-5.82-2.25-8.7c-5.61-22.38-16.562-43.41-32.7-62.85c-4.2-5.07-16.29-17.13-21.271-21.24
		c-9.63-7.89-26.698-18.87-38.88-24.96c-13.29-6.69-23.608-10.02-38.04-12.3c-9.12-1.47-18.96-5.19-38.58-14.64
		c-4.948-2.37-10.438-4.98-12.238-5.76c-1.771-0.81-3.15-1.5-3.092-1.56c0.182-0.18,4.44,1.771,15.48,7.021
		c12.72,6.09,15.27,7.229,20.4,9.24c8.188,3.21,12.75,4.44,21.21,5.85c20.55,3.42,40.92,13.02,67.14,31.65
		c10.59,7.5,23.43,20.19,32.729,32.25c11.069,14.4,20.341,31.8,25.591,48.09c1.409,4.38,5.37,19.53,6.3,24.09
		c2.91,14.28,2.76,30.72-0.45,47.371c-3.03,15.659-9.6,34.438-17.97,51.3c-3.812,7.68-6.3,12.09-10.26,18.12
		c-11.94,18.09-27.66,32.22-44.132,39.63c-5.729,2.55-10.68,3.78-17.04,4.14c-3,0.181-3.568,0.3-3.658,0.72
		c-0.15,0.812,2.04,1.29,6.09,1.262c4.17,0,7.5-0.602,12.3-2.13c16.08-5.19,31.771-17.61,45.03-35.642
		c8.55-11.64,15.54-24.33,21.39-38.818c5.43-13.41,11.82-36.961,13.65-50.28c2.31-16.83,0.81-35.07-4.62-56.91
		c-7.47-29.88-26.46-59.31-54.15-83.82c-9.99-8.82-29.46-20.4-57.898-34.35C763.83,229.2,748.89,223.2,717.6,213
		c-21.148-6.87-25.5-8.37-39.148-13.5c-13.95-5.25-17.13-6.3-18.99-6.3C658.41,193.2,658.2,193.29,658.2,193.77z M769.59,255.21
		c-0.21,0.06-0.57,0.06-0.75,0c-0.21-0.09-0.06-0.15,0.36-0.15S769.77,255.12,769.59,255.21z M777.09,255.21
		c-0.21,0.06-0.63,0.06-0.898,0c-0.302-0.09-0.12-0.15,0.358-0.15C777.06,255.06,777.27,255.12,777.09,255.21z M779.31,255.48
		c-0.09,0.09-0.358,0.12-0.568,0.03c-0.24-0.09-0.15-0.18,0.18-0.18C779.25,255.3,779.43,255.39,779.31,255.48z M781.11,255.78
		c-0.092,0.09-0.36,0.12-0.57,0.03c-0.24-0.09-0.15-0.18,0.18-0.18C781.05,255.6,781.23,255.69,781.11,255.78z M742.11,258.78
		c-0.092,0.09-0.36,0.12-0.57,0.03c-0.24-0.09-0.15-0.18,0.18-0.18C742.05,258.6,742.23,258.69,742.11,258.78z M744.69,259.11
		c-0.21,0.06-0.632,0.06-0.9,0c-0.3-0.09-0.12-0.15,0.36-0.15C744.66,258.96,744.87,259.02,744.69,259.11z M754.41,259.08
		c-0.09,0.09-0.36,0.12-0.57,0.03c-0.24-0.09-0.148-0.18,0.18-0.18C754.35,258.9,754.53,258.99,754.41,259.08z M750.69,259.41
		c-0.69,0.06-1.922,0.06-2.7,0c-0.78-0.06-0.21-0.09,1.26-0.09C750.75,259.32,751.38,259.35,750.69,259.41z"/>
	<path id="structure126_label122_bic" bar:growlevel="0" bar:type="" fill="#9477C3" d="M716.55,361.11
		c-0.96,3.12-2.16,5.55-3.93,8.13c-0.72,1.05-1.32,1.98-1.32,2.07s0.87,1.11,1.95,2.25c4.41,4.65,8.73,10.8,10.47,14.85
		c1.53,3.63,3.45,9.688,4.29,13.74c1.26,6,0.99,12.27-0.96,20.43c-1.05,4.38-1.77,6.33-4.41,11.64c-1.979,3.99-2.34,4.98-2.34,6.24
		c0,1.44,0.03,1.47,1.32,2.04c2.85,1.26,6.42,1.92,10.68,1.92c3.9,0.03,4.11,0,5.852-0.87c1.56-0.78,1.89-1.108,2.608-2.55
		c1.05-2.19,2.16-5.55,2.852-8.7c0.658-3.18,0.778-15.12,0.148-19.2c-1.77-11.698-4.648-22.77-7.62-29.52
		c-3.12-7.08-6.54-12.06-12.96-18.75c-2.16-2.25-4.199-4.62-4.528-5.22c-0.33-0.6-0.75-1.11-0.932-1.11
		C717.54,358.5,717,359.67,716.55,361.11z"/>
	<path id="structure127_label123_s5" bar:growlevel="0" bar:type="" fill="#AF8EDC" d="M697.05,565.5
		c-4.02,0.36-8.55,1.08-12.72,1.98c-9.87,2.188-18.811,7.05-22.8,12.328c-1.98,2.642-2.55,4.562-2.34,7.71
		c0.18,2.94,1.38,8.28,1.858,8.28c0.182,0,0.51-0.51,0.72-1.108c0.54-1.41,2.852-3.75,4.74-4.682c2.61-1.318,4.771-1.8,8.19-1.8
		c7.648,0.03,14.52,3.36,15.99,7.71c1.17,3.42,0.358,9.39-1.892,14.22c-1.2,2.552-1.438,3.36-0.96,3.36c0.15,0,3.3-1.47,6.99-3.271
		c3.688-1.771,9.18-4.351,12.18-5.699c10.71-4.801,13.26-6.812,16.41-12.932c2.311-4.438,2.76-7.29,1.83-10.949
		c-1.2-4.591-5.88-10.471-10.53-13.229C711.75,565.68,704.31,564.87,697.05,565.5z"/>
	<path id="structure128_label124_m5" bar:growlevel="0" bar:type="" fill="#895FC7" d="M669.69,588.87
		c-2.49,0.688-3.03,0.93-4.922,2.31c-1.618,1.2-2.818,2.88-3.328,4.74c-0.33,1.2-0.271,1.53,0.63,4.11
		c1.438,4.108,4.89,10.92,6.63,13.108c3.78,4.682,7.858,5.58,13.92,3.062c3.57-1.5,4.05-1.92,5.61-5.011
		c2.01-4.021,2.788-6.989,2.788-11.039c0.03-3.03-0.028-3.45-0.81-5.012c-1.979-4.02-7.29-6.448-14.76-6.72
		C672.51,588.33,671.46,588.39,669.69,588.87z"/>
	<path id="structure129_label125_cp" bar:growlevel="0" bar:type="" fill="#E1B2FF" d="M703.95,500.31
		c-7.23,10.922-21.602,26.432-35.55,38.4c-9.722,8.34-23.012,18.39-34.83,26.37c-4.95,3.33-7.5,4.86-13.92,8.49
		c-4.95,2.79-8.521,5.46-13.021,9.778c-6.75,6.45-11.91,9.96-19.979,13.5c-6.66,2.94-10.052,4.86-13.262,7.562
		c-1.71,1.438-2.01,2.188-0.898,2.188c2.64,0,17.64-0.658,21.06-0.898c8.22-0.63,15.42-1.92,21.9-3.96
		c3.6-1.11,5.398-1.98,9.148-4.44c6.45-4.26,9.932-7.17,17.552-14.85c7.77-7.8,9.96-9.75,23.67-20.94
		c11.52-9.39,15.18-12.568,18.93-16.438c8.64-8.972,16.59-21.062,19.5-29.73c1.41-4.29,1.95-7.68,1.95-12.569
		c0-3.869-0.03-4.171-0.57-4.171C705.3,498.6,704.64,499.26,703.95,500.31z"/>
	<path id="structure131_label127_Or" bar:growlevel="0" bar:type="" fill="#CDE900" d="M839.76,307.59
		c0.062,0.21,1.771,1.86,3.84,3.66c5.04,4.41,17.49,16.71,22.08,21.87c7.142,7.95,10.381,12.33,14.4,19.53
		c9.39,16.83,12.72,30.9,13.229,56.16c0.12,6.54,0.271,8.79,0.54,8.79c0.722,0,3.78-3.6,4.65-5.46l0.9-1.89v-6
		c0-8.85-0.99-16.8-3.15-25.8c-3.45-14.28-9.87-29.76-17.94-43.2c-5.52-9.21-15.238-22.02-17.158-22.62
		c-2.762-0.87-20.521-5.43-21.15-5.43C839.82,307.2,839.7,307.38,839.76,307.59z"/>
	<path id="structure133_label130_Zo" bar:growlevel="0" bar:type="" fill="#7F76FF" d="M573.57,241.68
		c-10.052,1.8-24.96,12.12-29.16,20.16c-1.38,2.64-2.49,6.27-3.3,10.71c-0.602,3.33-0.66,4.56-0.66,16.68v13.08l0.84,1.08
		c1.2,1.59,3,2.52,5.4,2.76c2.278,0.21,2.25,0.24,1.59-2.01c-1.08-3.51-1.53-9.12-1.53-19.14c0-10.11,0.21-12.81,1.38-17.31
		c1.71-6.78,6.87-13.11,14.34-17.61c5.25-3.15,12-3.81,24.631-2.4c13.079,1.47,26.311,4.53,41.851,9.63
		c15.3,5.04,24.09,8.82,30.899,13.35c5.221,3.48,13.619,10.38,20.221,16.59c5.279,4.98,12,13.38,19.529,24.45
		c4.619,6.78,5.369,8.25,5.79,11.43l0.301,2.34l1.38,0.48c2.22,0.75,2.67,0.63,3.06-0.81c0.75-2.82-0.93-7.68-4.38-12.81
		c-5.609-8.31-24-32.55-27.42-36.12c-4.5-4.68-9.87-8.7-15.18-11.37c-5.04-2.55-21.57-8.43-30.15-10.74
		c-23.55-6.3-29.939-8.04-34.2-9.3c-2.729-0.81-6.119-1.77-7.529-2.1C585.03,241.23,578.19,240.84,573.57,241.68z"/>
	<path id="structure136_label133_EW" bar:growlevel="0" bar:type="" fill="#836BFF" d="M540.9,417.27
		c-0.722,1.352-0.842,3.66-0.57,9.9c0.42,10.11,1.2,17.04,1.979,17.34c0.57,0.24,1.562-0.75,2.222-2.16
		c1.29-2.818,0.33-18.54-1.472-23.97C542.49,416.67,541.5,416.16,540.9,417.27z"/>
	<path id="structure137_label134_IPDL" bar:growlevel="0" bar:type="" fill="#7647E5" d="M551.55,566.67
		c0.12,0.811,0.062,1.98-0.12,2.67c-0.3,1.08-0.238,1.5,0.69,4.08c0.57,1.59,1.5,3.75,2.1,4.83c1.44,2.58,4.11,5.4,5.972,6.36
		c1.318,0.658,1.8,0.75,3.988,0.63c1.352-0.03,2.58-0.182,2.7-0.3c0.12-0.12-0.24-1.2-0.78-2.37c-0.81-1.74-1.02-2.642-1.14-4.802
		l-0.15-2.698l-2.25-2.102c-3.6-3.358-9.75-7.77-10.829-7.77C551.43,565.2,551.4,565.59,551.55,566.67z"/>
	<path id="structure138_label135_IPA" bar:growlevel="0" bar:type="" fill="#596EE9" d="M543.33,558.6
		c-0.54,0.12-1.35,0.602-1.8,1.021c-0.66,0.66-0.78,1.08-0.87,3.03c-0.21,3.988,1.17,7.979,3.21,9.358
		c1.29,0.87,3.899,0.96,5.399,0.15c1.711-0.93,2.189-2.16,2.039-5.16c-0.18-2.97-1.02-5.52-2.25-6.66
		C547.44,558.81,545.25,558.15,543.33,558.6z"/>
	<path id="structure139_label136_SNR" bar:growlevel="0" bar:type="" fill="#7059FF" d="M697.95,504.33
		c-14.55,7.38-27.84,16.05-36.48,23.79l-1.38,1.229l0.12,2.552c0.271,5.188-1.32,6.358-11.37,8.52
		c-1.62,0.36-15.09,11.76-22.02,18.63c-5.67,5.61-7.142,7.59-7.44,9.87c-0.09,0.812-0.42,2.19-0.688,3.09
		c-0.271,0.87-0.422,1.682-0.302,1.771c0.12,0.12,1.17-0.3,2.37-0.932c10.8-5.64,32.79-21.479,48.69-35.068
		c4.92-4.2,19.229-18.42,23.13-22.98c4.08-4.74,8.82-10.8,8.82-11.279C701.4,502.83,700.5,503.07,697.95,504.33z"/>
	<path id="structure13_label7_3N" bar:growlevel="0" bar:type="" fill="#76A1E9" d="M542.91,444.54c-0.75,0.75-0.84,1.11-1.11,3.96
		c-0.358,4.17-0.358,15.3,0,20.52c0.36,4.83,0.75,6.48,1.53,6.48c0.3,0,2.13-0.48,4.08-1.08c6.99-2.1,10.29-4.59,12.96-9.75
		c0.899-1.71,2.43-4.438,3.39-6.03c1.801-3.028,2.07-4.108,1.32-5.22c-1.26-1.77-7.95-5.49-13.68-7.59
		c-2.28-0.812-6.99-2.16-7.472-2.1C543.84,443.73,543.39,444.09,542.91,444.54z"/>
	<path id="structure140_label137_IPI" bar:growlevel="0" bar:type="" fill="#596DFF" d="M543.6,574.65
		c-1.38,1.648-0.238,8.278,3.602,21c2.068,6.93,3.18,11.58,3.78,16.05c0.21,1.74,0.42,3.24,0.42,3.358c0,0.66,1.83,0.12,7.108-2.22
		l2.76-1.229l-0.148-1.38c-0.39-3.271-1.41-8.102-2.34-10.922c-2.79-8.46-8.82-20.188-12.182-23.67
		C545.16,574.17,544.26,573.87,543.6,574.65z"/>
	<path id="structure141_label138_PTg" bar:growlevel="0" bar:type="" fill="#AC8EE5" d="M649.35,528.72
		c-10.68,2.04-11.488,2.34-12.688,4.682c-0.602,1.14-0.69,1.68-0.57,3.358c0.24,3.722,1.59,4.86,5.46,4.562
		c4.892-0.36,13.38-2.222,15.66-3.392c1.8-0.898,2.46-1.83,2.79-3.81c0.39-2.312,0.09-4.14-0.81-5.25
		c-0.722-0.84-0.812-0.87-3.48-0.84C654.18,528.03,651.33,528.36,649.35,528.72z"/>
	<path fill="#D847CA" d="M542.67,647.43c-0.81-0.84-1.11-0.93-2.67-0.93v7.2c1.38,0,1.68-0.12,2.58-1.021
		c0.9-0.898,1.02-1.198,1.02-2.67C543.6,648.54,543.48,648.24,542.67,647.43z"/>
	<path id="structure146_label144_dcw" bar:growlevel="0" bar:type="" fill="#D0FFB2" d="M658.2,193.77c0,0.81,2.58,4.53,4.979,7.23
		c6.54,7.32,23.16,24.51,27.69,28.62c2.938,2.67,5.13,4.86,4.92,4.92s-0.39,0.24-0.39,0.39c0,0.48,12.3,13.83,17.818,19.32
		c9.42,9.39,18.182,15.66,23.88,17.13c2.432,0.63,8.7,0.72,11.25,0.15c3.302-0.72,6.75-2.19,10.17-4.26
		c5.61-3.39,10.052-4.5,17.882-4.53c21.06,0,44.55,11.52,70.05,34.32c29.1,26.01,48,60.48,52.529,95.79
		c0.779,5.91,0.779,19.56,0,25.5c-1.591,12.54-4.079,21.9-9.631,36.302c-5.608,14.58-11.488,28.02-15.33,35.04
		c-5.729,10.5-10.289,16.26-20.85,26.31c-12.78,12.15-17.97,15.9-27.18,19.68c-6,2.46-9.63,3.63-13.23,4.17
		c-3.63,0.57-4.56,0.932-4.56,1.74c0,0.57,0.12,0.602,3.63,0.392c4.5-0.24,9.57-1.11,12.72-2.132c3.09-1.02,9.9-4.318,13.95-6.75
		c15.45-9.3,29.04-23.88,40.17-43.198c7.23-12.512,15-31.17,19.53-46.83c6.84-23.7,7.68-47.311,2.37-67.47
		c-0.512-1.89-1.5-5.82-2.25-8.7c-5.61-22.38-16.562-43.41-32.7-62.85c-4.2-5.07-16.29-17.13-21.271-21.24
		c-9.63-7.89-26.698-18.87-38.88-24.96c-13.29-6.69-23.608-10.02-38.04-12.3c-9.12-1.47-18.96-5.19-38.58-14.64
		c-4.948-2.37-10.438-4.98-12.238-5.76c-1.771-0.81-3.15-1.5-3.092-1.56c0.182-0.18,4.44,1.771,15.48,7.021
		c12.72,6.09,15.27,7.229,20.4,9.24c8.188,3.21,12.75,4.44,21.21,5.85c20.55,3.42,40.92,13.02,67.14,31.65
		c10.59,7.5,23.43,20.19,32.729,32.25c11.069,14.4,20.341,31.8,25.591,48.09c1.409,4.38,5.37,19.53,6.3,24.09
		c2.91,14.28,2.76,30.72-0.45,47.371c-3.03,15.659-9.6,34.438-17.97,51.3c-3.812,7.68-6.3,12.09-10.26,18.12
		c-11.94,18.09-27.66,32.22-44.132,39.63c-5.729,2.55-10.68,3.78-17.04,4.14c-3,0.181-3.568,0.3-3.658,0.72
		c-0.15,0.812,2.04,1.29,6.09,1.262c4.17,0,7.5-0.602,12.3-2.13c16.08-5.19,31.771-17.61,45.03-35.642
		c8.55-11.64,15.54-24.33,21.39-38.818c5.43-13.41,11.82-36.961,13.65-50.28c2.31-16.83,0.81-35.07-4.62-56.91
		c-7.47-29.88-26.46-59.31-54.15-83.82c-9.99-8.82-29.46-20.4-57.898-34.35C763.83,229.2,748.89,223.2,717.6,213
		c-21.148-6.87-25.5-8.37-39.148-13.5c-13.95-5.25-17.13-6.3-18.99-6.3C658.41,193.2,658.2,193.29,658.2,193.77z M769.59,255.21
		c-0.21,0.06-0.57,0.06-0.75,0c-0.21-0.09-0.06-0.15,0.36-0.15S769.77,255.12,769.59,255.21z M777.09,255.21
		c-0.21,0.06-0.63,0.06-0.898,0c-0.302-0.09-0.12-0.15,0.358-0.15C777.06,255.06,777.27,255.12,777.09,255.21z M779.31,255.48
		c-0.09,0.09-0.358,0.12-0.568,0.03c-0.24-0.09-0.15-0.18,0.18-0.18C779.25,255.3,779.43,255.39,779.31,255.48z M781.11,255.78
		c-0.092,0.09-0.36,0.12-0.57,0.03c-0.24-0.09-0.15-0.18,0.18-0.18C781.05,255.6,781.23,255.69,781.11,255.78z M742.11,258.78
		c-0.092,0.09-0.36,0.12-0.57,0.03c-0.24-0.09-0.15-0.18,0.18-0.18C742.05,258.6,742.23,258.69,742.11,258.78z M744.69,259.11
		c-0.21,0.06-0.632,0.06-0.9,0c-0.3-0.09-0.12-0.15,0.36-0.15C744.66,258.96,744.87,259.02,744.69,259.11z M754.41,259.08
		c-0.09,0.09-0.36,0.12-0.57,0.03c-0.24-0.09-0.148-0.18,0.18-0.18C754.35,258.9,754.53,258.99,754.41,259.08z M750.69,259.41
		c-0.69,0.06-1.922,0.06-2.7,0c-0.78-0.06-0.21-0.09,1.26-0.09C750.75,259.32,751.38,259.35,750.69,259.41z"/>
	<path id="structure14_label8_InC" bar:growlevel="0" bar:type="" fill="#B2B7FF" d="M575.76,441.81
		c-0.81,1.142-2.67,3.392-4.08,5.012l-2.58,2.97l0.24,1.68c0.33,2.521,0.21,8.852-0.21,11.73c-0.479,3.42-1.71,8.068-2.79,10.648
		c-1.35,3.21-1.38,3.45-0.33,3.45c3.57,0,6.63-1.438,9.84-4.648c8.19-8.16,10.98-18.392,7.142-26.102
		c-1.32-2.608-4.59-6.75-5.37-6.75C577.44,439.8,576.6,440.7,575.76,441.81z"/>
	<path fill="#4423CB" d="M614.7,558.12c-1.29-2.64-4.5-4.86-9.51-6.63c-2.25-0.812-2.552-0.84-8.342-0.812
		c-4.858,0-6.688,0.12-9.6,0.66c-6.57,1.2-6.81,1.29-8.521,3c-1.859,1.86-5.461,3.69-8.641,4.38c-5.64,1.262-9.57-0.148-11.34-4.05
		c-0.78-1.71-0.87-2.25-0.87-4.92c-0.03-3.93,1.021-7.14,3.15-9.75c0.988-1.17,1.108-1.8,0.358-1.8c-0.3,0-2.278,0.33-4.408,0.75
		c-6.9,1.318-14.07,2.31-16.98,2.31v20.34c0.24,0,0.66-0.448,0.9-0.988c1.318-2.82,5.01-3.03,7.979-0.42
		c1.05,0.93,1.44,1.56,1.86,2.938c0.27,0.96,0.63,1.771,0.778,1.771c0.961,0,7.562,4.77,11.07,8.01c1.71,1.56,2.61,1.979,2.61,1.17
		c0-0.69,1.2-1.98,2.43-2.61c1.71-0.84,7.29-2.188,14.22-3.39c9.48-1.65,21.932-4.35,28.65-6.18c1.74-0.48,3.51-0.932,3.99-1.021
		C615.48,560.64,615.54,559.92,614.7,558.12z"/>
	<path id="structure151_label151_tth" bar:growlevel="0" bar:type="" fill="#A15FFA" d="M610.05,562.08
		c-5.13,1.47-19.89,4.68-27.3,5.97c-7.14,1.2-12.81,2.521-14.91,3.42c-3.63,1.562-3.93,6.63-0.75,12.9
		c0.84,1.71,1.71,3.18,1.92,3.24c0.722,0.27,5.37-0.842,9.54-2.28c3.812-1.32,8.82-3.21,18.9-7.141
		c4.41-1.71,16.08-7.471,18.81-9.271c3.3-2.189,4.11-4.979,2.04-7.08c-0.78-0.75-1.05-0.84-2.76-0.81
		C614.34,561.03,612.33,561.42,610.05,562.08z"/>
	<path id="structure152_label152_ml" bar:growlevel="0" bar:type="" fill="#00D7F2" d="M618.39,567.24
		c-1.198,1.95-15.778,9.3-25.29,12.75c-2.068,0.75-5.97,2.22-8.698,3.3c-6.091,2.37-10.17,3.72-12.9,4.17
		c-1.44,0.24-2.1,0.51-2.1,0.78c0,0.479,3.27,5.818,5.278,8.67c1.591,2.22,2.73,3.09,4.052,3.09c0.6,0,2.488-0.69,4.618-1.68
		c1.98-0.932,4.98-2.34,6.69-3.15c5.85-2.729,10.92-6.42,17.16-12.42c2.069-1.98,5.13-4.56,6.75-5.73
		c1.648-1.17,3.3-2.55,3.688-3.118c1.23-1.86,2.37-7.2,1.53-7.2C618.93,566.7,618.6,566.94,618.39,567.24z"/>
	<path fill="#00FF47" d="M614.7,558.12c-1.29-2.64-4.5-4.86-9.51-6.63c-2.25-0.812-2.552-0.84-8.342-0.812
		c-4.858,0-6.688,0.12-9.6,0.66c-6.57,1.2-6.81,1.29-8.521,3c-1.859,1.86-5.461,3.69-8.641,4.38c-5.64,1.262-9.57-0.148-11.34-4.05
		c-0.78-1.71-0.87-2.25-0.87-4.92c-0.03-3.93,1.021-7.14,3.15-9.75c0.988-1.17,1.108-1.8,0.358-1.8c-0.3,0-2.278,0.33-4.408,0.75
		c-6.9,1.318-14.07,2.31-16.98,2.31v20.34c0.24,0,0.66-0.448,0.9-0.988c1.318-2.82,5.01-3.03,7.979-0.42
		c1.05,0.93,1.44,1.56,1.86,2.938c0.27,0.96,0.63,1.771,0.778,1.771c0.961,0,7.562,4.77,11.07,8.01c1.71,1.56,2.61,1.979,2.61,1.17
		c0-0.69,1.2-1.98,2.43-2.61c1.71-0.84,7.29-2.188,14.22-3.39c9.48-1.65,21.932-4.35,28.65-6.18c1.74-0.48,3.51-0.932,3.99-1.021
		C615.48,560.64,615.54,559.92,614.7,558.12z"/>
	<path id="structure154_label154_mlf" bar:growlevel="0" bar:type="" fill="#00CF69" d="M566.88,452.07
		c-1.229,1.26-1.41,1.59-1.26,2.31c0.148,0.72-0.21,1.562-2.102,4.771c-1.26,2.13-2.76,4.83-3.328,5.97
		c-2.552,5.1-7.021,8.01-15.87,10.35c-1.23,0.33-1.23,0.33-1.41,2.07c-0.18,1.65,0.21,7.32,0.54,7.86c0.39,0.63,4.74,1.26,7.8,1.14
		c2.76-0.12,3.3-0.24,5.28-1.2c7.56-3.6,12.27-13.62,12.778-27.12c0.182-5.16,0-7.62-0.6-7.62
		C568.5,450.6,567.69,451.26,566.88,452.07z"/>
	<path id="structure15_label9_Su3" bar:growlevel="0" bar:type="" fill="#6A47FF" d="M560.55,428.58
		c-6.87,1.02-14.25,3.18-14.25,4.17c0,0.21,1.26,0.81,2.79,1.35c4.08,1.41,6.87,2.79,10.11,4.92c3.239,2.16,6.87,5.762,8.43,8.37
		c0.601,1.021,1.23,1.71,1.53,1.71c0.66,0,5.79-6.028,7.979-9.39c0.932-1.47,2.49-3.75,3.42-5.1c0.96-1.352,1.74-2.61,1.74-2.82
		c0-0.39-3.898-1.98-6.66-2.67C573.78,428.64,562.77,428.25,560.55,428.58z"/>
	<path id="structure161_label164_dtgx" bar:growlevel="0" bar:type="" fill="#F0EAD6" d="M697.74,382.5
		c-6.45,4.41-17.91,10.32-26.94,13.89c-16.62,6.57-31.77,9.9-45.148,9.87c-5.91,0-10.142-0.479-14.73-1.71
		c-1.53-0.42-2.82-0.75-2.938-0.75c-0.092,0-0.182,0.33-0.182,0.75s-0.12,0.75-0.27,0.75c-0.15,0-0.78,0.9-1.41,2.01
		c-0.602,1.11-1.83,3.062-2.73,4.352c-0.869,1.29-1.59,2.55-1.59,2.79s-0.18,0.45-0.39,0.45s-1.38,1.02-2.61,2.278
		c-1.229,1.262-4.35,4.052-6.898,6.21c-6.36,5.37-9.69,8.79-12.092,12.392c-1.108,1.648-2.01,3.21-2.01,3.45
		c0,0.27,0.48,0.93,1.08,1.5c1.562,1.5,4.2,5.55,5.13,7.948c1.11,2.82,1.17,7.23,0.12,10.62c-1.8,5.94-6.898,13.11-11.28,15.96
		c-1.92,1.261-3.81,1.892-6.51,2.19c-1.68,0.18-1.77,0.24-2.79,1.8c-1.53,2.28-4.59,5.04-6.81,6.12c-2.61,1.29-5.82,1.74-8.852,1.29
		c-3.84-0.602-3.898-0.54-2.64,1.438c1.62,2.552,3.36,8.102,4.56,14.4c0.78,4.14,0.78,23.79,0,31.74c-0.3,3.028-0.479,5.58-0.39,5.7
		c0.271,0.27,9.36-1.382,14.13-2.552c2.312-0.568,5.37-1.108,6.812-1.198c2.43-0.15,2.729-0.12,4.289,0.658
		c2.221,1.08,4.619,3.48,5.699,5.642c0.722,1.528,0.841,2.13,0.87,4.5c0.03,1.528-0.09,3.358-0.239,4.08l-0.271,1.318l1.17-0.18
		c0.63-0.09,2.64-0.45,4.44-0.81c5.34-0.99,11.01-1.382,14.369-0.961c7.5,0.931,13.619,4.829,14.699,9.359
		c0.15,0.602,0.48,0.84,1.562,1.141c1.71,0.449,2.55,1.681,2.55,3.721c0,0.99,0.12,1.438,0.39,1.438c0.21,0,0.87-0.63,1.471-1.438
		c2.79-3.63,13.5-13.53,21.75-20.102c2.011-1.59,3.659-3.09,3.659-3.3c0.03-0.3-0.39-0.33-1.829-0.148
		c-1.051,0.119-3,0.238-4.351,0.238c-2.16,0-2.521-0.09-3.21-0.72c-0.99-0.93-1.47-2.46-1.47-4.53c0-2.43,1.02-4.08,3.239-5.188
		c1.561-0.78,14.311-3.21,16.859-3.21c1.44,0,3.391,0.688,3.391,1.17c0,0.688,0.841,0.239,2.851-1.5
		c8.819-7.71,21.54-15.931,35.67-23.102l5.01-2.52l1.44-2.25c0.779-1.23,5.22-8.13,9.84-15.3c11.55-17.94,13.29-20.67,13.29-21
		c0-0.36-0.3-0.36-4.2,0c-7.14,0.66-15.81,0.96-17.729,0.6c-3.539-0.63-5.851-2.25-7.17-4.92c-1.229-2.46-1.29-4.649-0.181-6.87
		c0.931-1.95,3.601-5.04,6.181-7.2c2.101-1.77,6.181-4.409,6.811-4.409c0.479,0,0.479,0.029-0.09-2.699
		c-0.391-1.892-0.45-4.261-0.36-14.852c0.12-15.39,0.3-14.46-4.71-24.3c-4.71-9.24-5.069-10.26-5.069-14.49
		c0-2.13-0.12-3.36-0.33-3.33C700.5,380.73,699.18,381.54,697.74,382.5z M653.88,495.03c3.78,1.229,7.89,4.17,13.5,9.72
		c3.45,3.42,4.29,4.44,4.59,5.46c0.48,1.74,0,3.39-1.318,4.74c-1.682,1.68-2.67,1.8-7.682,1.08c-6.93-0.99-12.72-1.32-16.409-0.932
		c-9.239,0.96-28.891,4.29-44.909,7.62c-14.28,2.94-16.682,3.33-18.99,3.062c-2.04-0.24-4.05-1.142-4.65-2.102
		c-0.659-0.96-1.05-3.448-1.56-9.54c-0.271-3.21-0.33-5.58-0.182-6c0.632-1.68,2.642-2.97,5.79-3.688
		c7.262-1.71,56.58-9.271,66.092-10.142C649.95,494.13,651.84,494.37,653.88,495.03z M600.3,528.3c3.09,0.78,7.142,2.642,8.82,4.021
		c1.74,1.409,2.91,3.688,3.09,6.028c0.21,2.342-0.24,3.75-1.68,5.342c-3,3.3-6.66,4.05-12.21,2.46
		C588.3,543.27,581.76,536.16,584.4,531c0.688-1.35,2.608-2.61,4.92-3.21C591.57,527.22,597.15,527.46,600.3,528.3z"/>
	<path id="structure162_label165_ts" bar:growlevel="0" bar:type="" fill="#00EF7A" d="M697.74,382.5
		c-6.45,4.41-17.91,10.32-26.94,13.89c-16.62,6.57-31.77,9.9-45.148,9.87c-5.91,0-10.142-0.479-14.73-1.71
		c-1.53-0.42-2.82-0.75-2.938-0.75c-0.092,0-0.182,0.33-0.182,0.75s-0.12,0.75-0.27,0.75c-0.15,0-0.78,0.9-1.41,2.01
		c-0.602,1.11-1.83,3.062-2.73,4.352c-0.869,1.29-1.59,2.55-1.59,2.79s-0.18,0.45-0.39,0.45s-1.38,1.02-2.61,2.278
		c-1.229,1.262-4.35,4.052-6.898,6.21c-6.36,5.37-9.69,8.79-12.092,12.392c-1.108,1.648-2.01,3.21-2.01,3.45
		c0,0.27,0.48,0.93,1.08,1.5c1.562,1.5,4.2,5.55,5.13,7.948c1.11,2.82,1.17,7.23,0.12,10.62c-1.8,5.94-6.898,13.11-11.28,15.96
		c-1.92,1.261-3.81,1.892-6.51,2.19c-1.68,0.18-1.77,0.24-2.79,1.8c-1.53,2.28-4.59,5.04-6.81,6.12c-2.61,1.29-5.82,1.74-8.852,1.29
		c-3.84-0.602-3.898-0.54-2.64,1.438c1.62,2.552,3.36,8.102,4.56,14.4c0.78,4.14,0.78,23.79,0,31.74c-0.3,3.028-0.479,5.58-0.39,5.7
		c0.271,0.27,9.36-1.382,14.13-2.552c2.312-0.568,5.37-1.108,6.812-1.198c2.43-0.15,2.729-0.12,4.289,0.658
		c2.221,1.08,4.619,3.48,5.699,5.642c0.722,1.528,0.841,2.13,0.87,4.5c0.03,1.528-0.09,3.358-0.239,4.08l-0.271,1.318l1.17-0.18
		c0.63-0.09,2.64-0.45,4.44-0.81c5.34-0.99,11.01-1.382,14.369-0.961c7.5,0.931,13.619,4.829,14.699,9.359
		c0.15,0.602,0.48,0.84,1.562,1.141c1.71,0.449,2.55,1.681,2.55,3.721c0,0.99,0.12,1.438,0.39,1.438c0.21,0,0.87-0.63,1.471-1.438
		c2.79-3.63,13.5-13.53,21.75-20.102c2.011-1.59,3.659-3.09,3.659-3.3c0.03-0.3-0.39-0.33-1.829-0.148
		c-1.051,0.119-3,0.238-4.351,0.238c-2.16,0-2.521-0.09-3.21-0.72c-0.99-0.93-1.47-2.46-1.47-4.53c0-2.43,1.02-4.08,3.239-5.188
		c1.561-0.78,14.311-3.21,16.859-3.21c1.44,0,3.391,0.688,3.391,1.17c0,0.688,0.841,0.239,2.851-1.5
		c8.819-7.71,21.54-15.931,35.67-23.102l5.01-2.52l1.44-2.25c0.779-1.23,5.22-8.13,9.84-15.3c11.55-17.94,13.29-20.67,13.29-21
		c0-0.36-0.3-0.36-4.2,0c-7.14,0.66-15.81,0.96-17.729,0.6c-3.539-0.63-5.851-2.25-7.17-4.92c-1.229-2.46-1.29-4.649-0.181-6.87
		c0.931-1.95,3.601-5.04,6.181-7.2c2.101-1.77,6.181-4.409,6.811-4.409c0.479,0,0.479,0.029-0.09-2.699
		c-0.391-1.892-0.45-4.261-0.36-14.852c0.12-15.39,0.3-14.46-4.71-24.3c-4.71-9.24-5.069-10.26-5.069-14.49
		c0-2.13-0.12-3.36-0.33-3.33C700.5,380.73,699.18,381.54,697.74,382.5z M653.88,495.03c3.78,1.229,7.89,4.17,13.5,9.72
		c3.45,3.42,4.29,4.44,4.59,5.46c0.48,1.74,0,3.39-1.318,4.74c-1.682,1.68-2.67,1.8-7.682,1.08c-6.93-0.99-12.72-1.32-16.409-0.932
		c-9.239,0.96-28.891,4.29-44.909,7.62c-14.28,2.94-16.682,3.33-18.99,3.062c-2.04-0.24-4.05-1.142-4.65-2.102
		c-0.659-0.96-1.05-3.448-1.56-9.54c-0.271-3.21-0.33-5.58-0.182-6c0.632-1.68,2.642-2.97,5.79-3.688
		c7.262-1.71,56.58-9.271,66.092-10.142C649.95,494.13,651.84,494.37,653.88,495.03z M600.3,528.3c3.09,0.78,7.142,2.642,8.82,4.021
		c1.74,1.409,2.91,3.688,3.09,6.028c0.21,2.342-0.24,3.75-1.68,5.342c-3,3.3-6.66,4.05-12.21,2.46
		C588.3,543.27,581.76,536.16,584.4,531c0.688-1.35,2.608-2.61,4.92-3.21C591.57,527.22,597.15,527.46,600.3,528.3z"/>
	<path id="structure164_label167_Me5" bar:growlevel="0" bar:type="" fill="#2400CB" d="M608.1,374.82
		c-0.238,0.21-6.898,2.19-12.238,3.6c-13.021,3.48-38.19,8.91-44.58,9.66c-1.53,0.18-1.682,0.27-1.682,0.93
		c0,1.05-0.6,2.28-2.67,5.55c-0.988,1.62-1.83,3.15-1.83,3.39c0,0.6,2.131,1.59,9,4.14c14.972,5.55,33.66,10.26,43.381,10.92
		l2.699,0.182l0.69-1.62c0.359-0.9,2.398-4.801,4.53-8.67c7.56-13.8,7.948-15.72,5.158-24.48c-0.898-2.88-1.26-3.6-1.738-3.66
		C608.49,374.7,608.16,374.73,608.1,374.82z M607.02,387.78c0.271,0.24,0.48,0.54,0.48,0.63c0,0.39-1.02,1.29-1.41,1.29
		c-0.33,0-0.358,0.27-0.21,1.05c0.18,0.99,0.12,1.11-0.75,1.44c-0.81,0.3-0.93,0.48-0.78,1.05c0.33,1.29-1.108,2.13-1.948,1.11
		c-0.512-0.6-0.092-1.62,0.81-1.83c0.6-0.15,0.72-0.33,0.6-0.93c-0.148-0.78,0.45-1.59,1.2-1.59c0.33,0,0.392-0.21,0.24-0.9
		C604.92,387.57,606.03,386.76,607.02,387.78z M599.94,400.26c0.54,0.54,0.42,1.38-0.21,1.74c-0.33,0.15-0.66,0.3-0.75,0.3
		c-0.24,0-1.08-0.93-1.08-1.2c0-0.39,0.898-1.198,1.318-1.198C599.4,399.9,599.73,400.05,599.94,400.26z M595.44,402.96
		c0.898,0.9-0.092,2.31-1.2,1.71c-0.54-0.27-0.75-1.47-0.33-1.86C594.21,402.48,595.05,402.57,595.44,402.96z"/>
	<path fill="#3B40FF" d="M575.64,339.75c-0.33-0.33-6.39-0.78-12.84-0.93c-5.16-0.15-8.25-0.06-13.2,0.33
		c-3.876,0.314-6.76,0.479-9.6,0.487v40.196c0.024-0.021,0.045-0.033,0.06-0.033c0.12,0,0.632,0.78,1.11,1.71
		c0.48,0.96,1.23,2.07,1.65,2.46c0.96,0.9,0.96,0.9,6.06-2.91c6.93-5.19,13.562-12.21,18.03-19.02c2.398-3.63,5.398-9.9,6.78-14.04
		C574.77,344.7,575.88,339.99,575.64,339.75z"/>
	<path fill="#DF0045" d="M543.21,384.63c-0.81-0.3-2.61-2.76-2.61-3.54c0-0.413-0.273-0.48-0.6-0.305V404.7
		c0.87,0,2.311-1.38,2.521-2.432c0.271-1.318,1.381-3.479,4.109-7.798C550.38,388.47,550.02,387.39,543.21,384.63z"/>
	<path id="structure168_label172_me5" bar:growlevel="0" bar:type="" fill="#BA8EFA" d="M612,388.44c0,1.77-2.19,6.63-6.36,14.13
		c-2.938,5.25-5.55,10.648-5.818,11.97c-0.33,1.68,0.54,1.14,2.52-1.5c2.58-3.45,5.19-8.13,7.771-13.98
		c2.188-4.89,3.06-7.77,3.09-10.05c0-0.9-0.12-1.11-0.601-1.11C612.21,387.9,612,388.11,612,388.44z"/>
	<path fill="#76DFCC" d="M547.14,492.48c-0.81-2.37-2.1-4.95-3.028-6.062c-0.96-1.14-1.41-3.54-1.41-7.65
		c0-1.948-0.182-3.93-0.45-4.979c-0.75-2.79-1.14-14.7-0.72-21.84c0.45-7.682,0.45-7.08-0.12-10.05
		c-0.271-1.41-0.57-3.96-0.69-5.642c-0.148-2.25-0.3-3.06-0.6-3.06c-0.041,0-0.08,0.02-0.12,0.036v107.96
		c1.693-0.046,8.735-0.841,8.91-1.018c0.27-0.238,1.02-9.18,1.32-15.3C550.92,510.3,550.05,500.97,547.14,492.48z"/>
	<path id="structure173_label177_3PC" bar:growlevel="0" bar:type="" fill="#005EFF" d="M545.4,436.59c0,2.16-0.15,3.96-0.45,4.892
		c-0.24,0.81-0.45,1.618-0.45,1.8c0,0.18,0.9,0.568,2.04,0.87c2.19,0.6,7.47,2.579,10.56,3.96c2.102,0.96,4.86,2.64,6.69,4.08
		c1.41,1.108,2.04,0.96,3.78-0.812l1.35-1.38l-0.54-1.11c-2.188-4.59-7.229-9.148-13.62-12.358c-2.278-1.142-8.22-3.33-9.028-3.33
		C545.52,433.2,545.4,434.28,545.4,436.59z"/>
	<path id="structure174_label145_alv" bar:growlevel="0" bar:type="" fill="#8CFF59" d="M658.2,193.77c0,0.81,2.58,4.53,4.979,7.23
		c6.54,7.32,23.16,24.51,27.69,28.62c2.938,2.67,5.13,4.86,4.92,4.92s-0.39,0.24-0.39,0.39c0,0.48,12.3,13.83,17.818,19.32
		c9.42,9.39,18.182,15.66,23.88,17.13c2.432,0.63,8.7,0.72,11.25,0.15c3.302-0.72,6.75-2.19,10.17-4.26
		c5.61-3.39,10.052-4.5,17.882-4.53c21.06,0,44.55,11.52,70.05,34.32c29.1,26.01,48,60.48,52.529,95.79
		c0.779,5.91,0.779,19.56,0,25.5c-1.591,12.54-4.079,21.9-9.631,36.302c-5.608,14.58-11.488,28.02-15.33,35.04
		c-5.729,10.5-10.289,16.26-20.85,26.31c-12.78,12.15-17.97,15.9-27.18,19.68c-6,2.46-9.63,3.63-13.23,4.17
		c-3.63,0.57-4.56,0.932-4.56,1.74c0,0.57,0.12,0.602,3.63,0.392c4.5-0.24,9.57-1.11,12.72-2.132c3.09-1.02,9.9-4.318,13.95-6.75
		c15.45-9.3,29.04-23.88,40.17-43.198c7.23-12.512,15-31.17,19.53-46.83c6.84-23.7,7.68-47.311,2.37-67.47
		c-0.512-1.89-1.5-5.82-2.25-8.7c-5.61-22.38-16.562-43.41-32.7-62.85c-4.2-5.07-16.29-17.13-21.271-21.24
		c-9.63-7.89-26.698-18.87-38.88-24.96c-13.29-6.69-23.608-10.02-38.04-12.3c-9.12-1.47-18.96-5.19-38.58-14.64
		c-4.948-2.37-10.438-4.98-12.238-5.76c-1.771-0.81-3.15-1.5-3.092-1.56c0.182-0.18,4.44,1.771,15.48,7.021
		c12.72,6.09,15.27,7.229,20.4,9.24c8.188,3.21,12.75,4.44,21.21,5.85c20.55,3.42,40.92,13.02,67.14,31.65
		c10.59,7.5,23.43,20.19,32.729,32.25c11.069,14.4,20.341,31.8,25.591,48.09c1.409,4.38,5.37,19.53,6.3,24.09
		c2.91,14.28,2.76,30.72-0.45,47.371c-3.03,15.659-9.6,34.438-17.97,51.3c-3.812,7.68-6.3,12.09-10.26,18.12
		c-11.94,18.09-27.66,32.22-44.132,39.63c-5.729,2.55-10.68,3.78-17.04,4.14c-3,0.181-3.568,0.3-3.658,0.72
		c-0.15,0.812,2.04,1.29,6.09,1.262c4.17,0,7.5-0.602,12.3-2.13c16.08-5.19,31.771-17.61,45.03-35.642
		c8.55-11.64,15.54-24.33,21.39-38.818c5.43-13.41,11.82-36.961,13.65-50.28c2.31-16.83,0.81-35.07-4.62-56.91
		c-7.47-29.88-26.46-59.31-54.15-83.82c-9.99-8.82-29.46-20.4-57.898-34.35C763.83,229.2,748.89,223.2,717.6,213
		c-21.148-6.87-25.5-8.37-39.148-13.5c-13.95-5.25-17.13-6.3-18.99-6.3C658.41,193.2,658.2,193.29,658.2,193.77z M769.59,255.21
		c-0.21,0.06-0.57,0.06-0.75,0c-0.21-0.09-0.06-0.15,0.36-0.15S769.77,255.12,769.59,255.21z M777.09,255.21
		c-0.21,0.06-0.63,0.06-0.898,0c-0.302-0.09-0.12-0.15,0.358-0.15C777.06,255.06,777.27,255.12,777.09,255.21z M779.31,255.48
		c-0.09,0.09-0.358,0.12-0.568,0.03c-0.24-0.09-0.15-0.18,0.18-0.18C779.25,255.3,779.43,255.39,779.31,255.48z M781.11,255.78
		c-0.092,0.09-0.36,0.12-0.57,0.03c-0.24-0.09-0.15-0.18,0.18-0.18C781.05,255.6,781.23,255.69,781.11,255.78z M742.11,258.78
		c-0.092,0.09-0.36,0.12-0.57,0.03c-0.24-0.09-0.15-0.18,0.18-0.18C742.05,258.6,742.23,258.69,742.11,258.78z M744.69,259.11
		c-0.21,0.06-0.632,0.06-0.9,0c-0.3-0.09-0.12-0.15,0.36-0.15C744.66,258.96,744.87,259.02,744.69,259.11z M754.41,259.08
		c-0.09,0.09-0.36,0.12-0.57,0.03c-0.24-0.09-0.148-0.18,0.18-0.18C754.35,258.9,754.53,258.99,754.41,259.08z M750.69,259.41
		c-0.69,0.06-1.922,0.06-2.7,0c-0.78-0.06-0.21-0.09,1.26-0.09C750.75,259.32,751.38,259.35,750.69,259.41z"/>
	<path id="structure176_Unlabeled-2647-988_Unlabeled" bar:growlevel="0" bar:type="" fill="#FFB2BA" d="M792.75,296.1
		c-5.88,1.26-11.01,5.04-16.35,12c-5.28,6.9-11.552,11.97-20.37,16.47c-2.011,1.02-3.63,2.04-3.63,2.25c0,0.87,4.83,6.87,8.58,10.68
		c2.22,2.22,4.02,4.14,4.02,4.26c0,0.39,0.54,0.27,3.42-0.63c4.562-1.47,8.25-1.92,13.8-1.77c3.812,0.12,5.58,0.33,8.432,0.99
		c4.68,1.05,9.6,2.79,14.22,4.98c2.04,0.99,3.898,1.77,4.109,1.77c0.539,0,0.539-0.81-0.029-2.37c-2.01-5.7-2.37-16.17-0.721-21.54
		c0.811-2.61,2.819-6.54,3.75-7.26c0.391-0.3,0.721-0.69,0.721-0.84c0-0.9,6.84-6.24,8.7-6.84c1.14-0.36,0.658-1.23-1.41-2.61
		c-4.8-3.18-11.73-6.54-17.73-8.55C798.93,295.98,795.12,295.56,792.75,296.1z"/>
	<path id="structure178_Unlabeled-2512-1358_Unlabeled" bar:growlevel="0" bar:type="" fill="#FFB2BA" d="M752.43,407.43
		c-3.42,2.07-3.448,6.42-0.09,8.312c2.28,1.26,4.71,0.6,6.271-1.71C761.22,410.19,756.36,405.03,752.43,407.43z"/>
	<path id="structure17_label11_Su3C" bar:growlevel="0" bar:type="" fill="#6847F2" d="M569.01,417.03
		c-3.33,0.33-8.85,1.56-12.18,2.729c-3.3,1.142-8.22,3.48-10.38,4.92l-1.682,1.11l0.182,3.33c0.12,1.83,0.27,3.39,0.33,3.45
		c0.06,0.06,1.108-0.33,2.34-0.841c4.979-2.069,13.2-3.631,19.17-3.631c5.07,0,10.95,1.142,14.07,2.73
		c1.62,0.84,2.068,0.72,3.54-0.812c0.75-0.75,2.608-2.46,4.14-3.778c1.5-1.32,2.76-2.58,2.76-2.82c0-0.66-2.88-2.76-5.52-3.99
		c-3.09-1.47-5.34-2.068-9.062-2.43C573.36,416.67,572.7,416.67,569.01,417.03z"/>
	<path id="structure180_Unlabeled-2921-1443_Unlabeled" bar:growlevel="0" bar:type="" fill="#FFB2BA" d="M875.85,432.48
		c-3.448,2.13-12.18,6.118-13.318,6.118c-0.36,0-0.63,0.12-0.63,0.24c0,0.36-6.54,2.37-9.96,3.09
		c-1.53,0.302-4.44,0.722-6.422,0.932c-3.539,0.33-5.01,0.238-10.17-0.57c-0.898-0.15-0.93-0.09-1.92,2.37
		c-2.488,6.148-5.97,12.27-10.108,17.82c-6.63,8.88-17.04,17.608-22.74,19.05c-0.75,0.18-1.38,0.51-1.38,0.688
		c0,0.21,1.2,3.392,2.64,7.08l2.642,6.72l1.47,0.392c4.89,1.26,12.51,1.71,17.1,0.99c3-0.45,8.642-2.28,11.49-3.722
		c5.19-2.608,8.43-4.949,12.9-9.3c6.72-6.54,11.64-13.979,19.38-29.28c4.528-8.909,10.979-22.438,10.979-22.979
		C877.8,431.52,877.26,431.64,875.85,432.48z"/>
	<path id="structure182_Unlabeled-2451-1529_Unlabeled" bar:growlevel="0" bar:type="" fill="#FFB2BA" d="M733.92,458.7
		c-2.31,1.17-3.18,4.02-1.83,6c1.05,1.56,2.102,2.188,3.66,2.188c2.37,0,4.2-1.858,4.2-4.29
		C739.95,459.36,736.71,457.29,733.92,458.7z"/>
	<path id="structure18_label13_mRt" bar:growlevel="0" bar:type="" fill="#777777" d="M697.74,382.5
		c-6.45,4.41-17.91,10.32-26.94,13.89c-16.62,6.57-31.77,9.9-45.148,9.87c-5.91,0-10.142-0.479-14.73-1.71
		c-1.53-0.42-2.82-0.75-2.938-0.75c-0.092,0-0.182,0.33-0.182,0.75s-0.12,0.75-0.27,0.75c-0.15,0-0.78,0.9-1.41,2.01
		c-0.602,1.11-1.83,3.062-2.73,4.352c-0.869,1.29-1.59,2.55-1.59,2.79s-0.18,0.45-0.39,0.45s-1.38,1.02-2.61,2.278
		c-1.229,1.262-4.35,4.052-6.898,6.21c-6.36,5.37-9.69,8.79-12.092,12.392c-1.108,1.648-2.01,3.21-2.01,3.45
		c0,0.27,0.48,0.93,1.08,1.5c1.562,1.5,4.2,5.55,5.13,7.948c1.11,2.82,1.17,7.23,0.12,10.62c-1.8,5.94-6.898,13.11-11.28,15.96
		c-1.92,1.261-3.81,1.892-6.51,2.19c-1.68,0.18-1.77,0.24-2.79,1.8c-1.53,2.28-4.59,5.04-6.81,6.12c-2.61,1.29-5.82,1.74-8.852,1.29
		c-3.84-0.602-3.898-0.54-2.64,1.438c1.62,2.552,3.36,8.102,4.56,14.4c0.78,4.14,0.78,23.79,0,31.74c-0.3,3.028-0.479,5.58-0.39,5.7
		c0.271,0.27,9.36-1.382,14.13-2.552c2.312-0.568,5.37-1.108,6.812-1.198c2.43-0.15,2.729-0.12,4.289,0.658
		c2.221,1.08,4.619,3.48,5.699,5.642c0.722,1.528,0.841,2.13,0.87,4.5c0.03,1.528-0.09,3.358-0.239,4.08l-0.271,1.318l1.17-0.18
		c0.63-0.09,2.64-0.45,4.44-0.81c5.34-0.99,11.01-1.382,14.369-0.961c7.5,0.931,13.619,4.829,14.699,9.359
		c0.15,0.602,0.48,0.84,1.562,1.141c1.71,0.449,2.55,1.681,2.55,3.721c0,0.99,0.12,1.438,0.39,1.438c0.21,0,0.87-0.63,1.471-1.438
		c2.79-3.63,13.5-13.53,21.75-20.102c2.011-1.59,3.659-3.09,3.659-3.3c0.03-0.3-0.39-0.33-1.829-0.148
		c-1.051,0.119-3,0.238-4.351,0.238c-2.16,0-2.521-0.09-3.21-0.72c-0.99-0.93-1.47-2.46-1.47-4.53c0-2.43,1.02-4.08,3.239-5.188
		c1.561-0.78,14.311-3.21,16.859-3.21c1.44,0,3.391,0.688,3.391,1.17c0,0.688,0.841,0.239,2.851-1.5
		c8.819-7.71,21.54-15.931,35.67-23.102l5.01-2.52l1.44-2.25c0.779-1.23,5.22-8.13,9.84-15.3c11.55-17.94,13.29-20.67,13.29-21
		c0-0.36-0.3-0.36-4.2,0c-7.14,0.66-15.81,0.96-17.729,0.6c-3.539-0.63-5.851-2.25-7.17-4.92c-1.229-2.46-1.29-4.649-0.181-6.87
		c0.931-1.95,3.601-5.04,6.181-7.2c2.101-1.77,6.181-4.409,6.811-4.409c0.479,0,0.479,0.029-0.09-2.699
		c-0.391-1.892-0.45-4.261-0.36-14.852c0.12-15.39,0.3-14.46-4.71-24.3c-4.71-9.24-5.069-10.26-5.069-14.49
		c0-2.13-0.12-3.36-0.33-3.33C700.5,380.73,699.18,381.54,697.74,382.5z M653.88,495.03c3.78,1.229,7.89,4.17,13.5,9.72
		c3.45,3.42,4.29,4.44,4.59,5.46c0.48,1.74,0,3.39-1.318,4.74c-1.682,1.68-2.67,1.8-7.682,1.08c-6.93-0.99-12.72-1.32-16.409-0.932
		c-9.239,0.96-28.891,4.29-44.909,7.62c-14.28,2.94-16.682,3.33-18.99,3.062c-2.04-0.24-4.05-1.142-4.65-2.102
		c-0.659-0.96-1.05-3.448-1.56-9.54c-0.271-3.21-0.33-5.58-0.182-6c0.632-1.68,2.642-2.97,5.79-3.688
		c7.262-1.71,56.58-9.271,66.092-10.142C649.95,494.13,651.84,494.37,653.88,495.03z M600.3,528.3c3.09,0.78,7.142,2.642,8.82,4.021
		c1.74,1.409,2.91,3.688,3.09,6.028c0.21,2.342-0.24,3.75-1.68,5.342c-3,3.3-6.66,4.05-12.21,2.46
		C588.3,543.27,581.76,536.16,584.4,531c0.688-1.35,2.608-2.61,4.92-3.21C591.57,527.22,597.15,527.46,600.3,528.3z"/>
	<path id="structure19_label14_SubB" bar:growlevel="0" bar:type="" fill="#AF82FA" d="M709.41,441.39
		c-6.3,3.54-11.91,9.932-11.91,13.562c0,3.358,2.1,6.6,5.19,7.979c1.5,0.69,1.828,0.722,8.158,0.69
		c5.82-0.03,11.312-0.36,15.842-0.93c1.618-0.182,1.108,0.54,8.52-11.762c3.75-6.238,4.29-7.47,3.03-7.108
		c-3.24,0.96-5.221,1.14-8.01,0.81c-4.892-0.6-9.66-2.07-9.99-3.09c-0.09-0.24-0.51-0.15-1.471,0.3
		c-2.25,1.08-5.011,0.75-6.391-0.81C711.63,440.22,711.48,440.22,709.41,441.39z"/>
	<path id="structure20_label15_Pn" bar:growlevel="0" bar:type="" fill="#59FFD0" d="M580.2,614.91
		c-3.99,0.42-8.34,1.229-13.32,2.49c-3.148,0.81-7.95,1.89-10.68,2.398c-5.46,1.05-6.54,1.53-7.38,3.24
		c-1.17,2.34-0.722,10.68,0.75,13.979c0.72,1.65,2.37,3.062,4.29,3.631c0.87,0.271,3.778,0.631,6.448,0.811
		c6.03,0.42,8.222,0.15,11.46-1.44c2.102-1.02,2.972-1.829,10.592-9.479c4.56-4.59,8.67-8.79,9.09-9.36
		c1.71-2.25,1.56-4.528-0.33-5.43C589.2,614.85,584.4,614.46,580.2,614.91z"/>
	<path fill="#792FDC" d="M625.53,604.41c-0.9-0.75-4.05-1.71-7.562-2.312c-1.77-0.3-2.25-0.27-4.08,0.271
		c-8.188,2.43-15.84,3.42-31.738,4.05c-8.16,0.33-9.722,0.33-10.352-0.03c-0.72-0.39-0.96-0.3-4.35,1.74
		c-4.5,2.73-11.16,5.94-14.7,7.11c-4.74,1.56-7.32,1.949-12.75,1.949v28.739l8.34,0.602c10.8,0.81,18.69,0.87,22.71,0.18
		c13.892-2.43,29.46-7.86,37.352-13.021c6.358-4.199,11.52-10.109,15-17.341c1.83-3.81,3-7.528,3-9.6
		C626.4,605.34,626.28,605.07,625.53,604.41z M585.66,627.27c-3.271,3.24-6.33,6.422-6.812,7.052
		c-2.068,2.729-7.14,6.239-10.35,7.08c-1.62,0.448-8.19,0.42-11.55-0.03c-3.9-0.51-6.36-1.92-7.5-4.32c-0.812-1.74-1.41-5.49-1.47-9
		c-0.03-2.97,0.06-3.45,0.72-4.8c1.05-2.1,2.13-2.58,8.25-3.75c2.818-0.51,7.41-1.53,10.2-2.25c10.198-2.64,17.97-3.33,22.618-2.07
		c1.892,0.54,3.03,1.562,3.03,2.73C592.77,619.83,591.66,621.3,585.66,627.27z"/>
	<path fill="#0020E9" d="M550.98,613.11c-0.36-4.562-1.5-9.54-4.08-18.062c-2.4-7.858-3.632-13.17-3.812-16.56l-0.18-3.062
		l0.96-0.93c0.51-0.51,0.93-1.05,0.93-1.2c0-0.148-0.66-0.93-1.47-1.74c-1.17-1.17-1.62-1.92-2.1-3.51
		c-0.36-1.108-0.632-2.28-0.632-2.58c0-0.386-0.313-0.588-0.6-0.56v52.171c4.173-0.021,8.475-0.465,10.47-1.211
		C551.16,615.6,551.19,615.54,550.98,613.11z"/>
	<path id="structure23_label18_IPL" bar:growlevel="0" bar:type="" fill="#001DFF" d="M550.32,571.53
		c-0.392,0.63-2.67,1.47-4.08,1.47c-1.86,0-1.86,0.48-0.062,2.16c1.98,1.83,4.5,5.79,7.41,11.729c4.32,8.73,6.602,15.392,7.44,21.57
		c0.238,1.74,0.479,2.64,0.75,2.64c0.6,0,6.87-3.658,10.02-5.818c1.562-1.08,3.63-2.49,4.562-3.09c0.93-0.632,1.71-1.352,1.71-1.592
		c0-0.238-0.42-0.72-0.96-1.05c-1.352-0.84-3.512-3.84-6.96-9.63c-2.58-4.29-3.062-4.92-3.602-4.77c-3.96,1.17-7.59-0.271-10.5-4.11
		c-1.648-2.19-3.45-5.64-4.229-8.13C551.31,571.29,550.8,570.81,550.32,571.53z"/>
	<path id="structure27_label22_LPAG" bar:growlevel="0" bar:type="" fill="#0003FF" d="M608.1,374.82
		c-0.238,0.21-6.898,2.19-12.238,3.6c-13.021,3.48-38.19,8.91-44.58,9.66c-1.53,0.18-1.682,0.27-1.682,0.93
		c0,1.05-0.6,2.28-2.67,5.55c-0.988,1.62-1.83,3.15-1.83,3.39c0,0.6,2.131,1.59,9,4.14c14.972,5.55,33.66,10.26,43.381,10.92
		l2.699,0.182l0.69-1.62c0.359-0.9,2.398-4.801,4.53-8.67c7.56-13.8,7.948-15.72,5.158-24.48c-0.898-2.88-1.26-3.6-1.738-3.66
		C608.49,374.7,608.16,374.73,608.1,374.82z M607.02,387.78c0.271,0.24,0.48,0.54,0.48,0.63c0,0.39-1.02,1.29-1.41,1.29
		c-0.33,0-0.358,0.27-0.21,1.05c0.18,0.99,0.12,1.11-0.75,1.44c-0.81,0.3-0.93,0.48-0.78,1.05c0.33,1.29-1.108,2.13-1.948,1.11
		c-0.512-0.6-0.092-1.62,0.81-1.83c0.6-0.15,0.72-0.33,0.6-0.93c-0.148-0.78,0.45-1.59,1.2-1.59c0.33,0,0.392-0.21,0.24-0.9
		C604.92,387.57,606.03,386.76,607.02,387.78z M599.94,400.26c0.54,0.54,0.42,1.38-0.21,1.74c-0.33,0.15-0.66,0.3-0.75,0.3
		c-0.24,0-1.08-0.93-1.08-1.2c0-0.39,0.898-1.198,1.318-1.198C599.4,399.9,599.73,400.05,599.94,400.26z M595.44,402.96
		c0.898,0.9-0.092,2.31-1.2,1.71c-0.54-0.27-0.75-1.47-0.33-1.86C594.21,402.48,595.05,402.57,595.44,402.96z"/>
	<path id="structure29_label24_BIC" bar:growlevel="0" bar:type="" fill="#002FFF" d="M708.3,374.19c-1.41,1.35-3.33,3.12-4.29,3.9
		c-2.37,1.98-3.028,3.36-3.028,6.21c0.028,3.3,0.93,5.85,4.738,13.352c5.46,10.71,5.762,12.06,5.28,25.05
		c-0.42,12.09-0.03,16.71,1.561,18.51c1.261,1.35,5.131,1.561,6.659,0.36c0.45-0.36,0.812-1.021,0.932-1.802
		c0.119-0.658,1.02-2.788,2.01-4.71c2.43-4.71,3.66-7.858,4.56-11.52c1.021-4.23,1.98-10.95,1.98-14.1c0-4.71-1.38-11.102-3.9-18
		c-1.41-3.9-2.31-5.67-4.38-8.79c-2.76-4.14-8.49-10.95-9.21-10.95C711,371.7,709.71,372.81,708.3,374.19z"/>
	<path id="structure30_text3201_PrS" bar:growlevel="0" bar:type="" fill="#E0FF59" d="M770.97,440.04
		c-1.8,1.14-4.77,4.47-6.778,7.56c-3.33,5.102-5.37,8.102-10.382,14.94c-2.79,3.84-5.01,7.14-4.92,7.35
		c0.092,0.182,2.79,3.392,6.03,7.11c5.521,6.3,6.09,6.84,8.521,8.31c3.119,1.86,7.89,3.96,11.608,5.07c2.25,0.69,3.3,0.812,6.3,0.84
		c3.182,0.03,3.78-0.06,5.19-0.688c3.12-1.41,4.83-4.352,5.31-9.24c0.211-2.07,0.182-2.19-0.688-3.45
		c-2.7-3.93-5.58-11.58-8.01-21.33c-1.86-7.35-6.092-15.45-8.852-16.858C773.07,439.02,772.5,439.08,770.97,440.04z"/>
	<path id="structure31_label25_PrS" bar:growlevel="0" bar:type="" fill="#E0FF59" d="M791.91,481.74
		c-0.57,7.02-5.25,10.62-12.45,9.66c-3.36-0.45-7.5-1.771-11.729-3.78c-3.539-1.68-4.229-1.89-4.229-1.23
		c0,0.21,10.5,12.36,23.31,27.03l23.28,26.64l1.83-0.18c3.51-0.39,8.58-1.89,8.58-2.55c0-0.24-4.83-12.78-10.71-27.84L799.05,482.1
		h-1.2c-1.29,0-3.96-1.108-4.619-1.89C792.45,479.22,792.09,479.64,791.91,481.74z"/>
	<path id="structure32_label26_MoDG" bar:growlevel="0" bar:type="" fill="#E9FF59" d="M773.7,339.78
		c-1.41,0.27-4.021,0.96-5.852,1.56l-3.3,1.11l-1.26,2.85c-1.74,3.96-2.28,6.54-2.13,10.14c0.12,2.58,0.24,3.18,1.2,5.22
		c0.6,1.26,1.83,3.57,2.729,5.1c5.58,9.48,9.54,20.91,13.53,39.09c2.37,10.74,4.979,23.94,5.43,27.271
		c0.9,6.898,0.48,14.61-1.05,19.05l-0.63,1.771l1.08,4.29c3.63,14.398,7.83,22.89,12,24.27c1.858,0.6,5.13,0.24,7.438-0.81
		c6.062-2.852,14.73-10.592,20.432-18.21c4.56-6.12,7.738-11.91,10.77-19.562c6.721-16.95,8.55-35.01,5.13-51.15
		c-2.278-10.83-7.56-22.17-14.22-30.57c-2.729-3.45-8.25-8.7-11.55-11.07c-3.271-2.31-11.04-6.15-15.75-7.77
		c-6.3-2.16-9.9-2.85-16.05-2.94C777.72,339.36,775.56,339.45,773.7,339.78z M811.32,382.77c3.87,1.89,6.27,5.64,6.3,9.78
		c0.03,1.8-0.12,2.34-0.87,3.72c-1.38,2.49-3.48,3.842-8.04,5.102c-3,0.87-5.729,1.08-7.41,0.63c-1.77-0.479-3.84-2.61-4.59-4.65
		c-1.229-3.54,0-8.878,2.85-12.51C802.11,381.57,807.12,380.7,811.32,382.77z"/>
	<path id="structure33_text3203_PaS" bar:growlevel="0" bar:type="" fill="#B6DF00" d="M751.02,486.78
		c-2.158,1.05-3.868,4.83-4.92,10.77c-1.26,7.23-1.56,10.562-1.198,13.95c0.75,7.05,2.369,11.4,5.188,14.01
		c2.37,2.19,5.55,2.07,7.53-0.27c3.12-3.63,3.75-13.86,1.649-26.34c-1.199-7.11-2.399-10.682-4.051-11.972
		C754.26,486.18,752.37,486.09,751.02,486.78z"/>
	<path id="structure34_label27_PaS" bar:growlevel="0" bar:type="" fill="#B6DF00" d="M746.22,473.19
		c-5.55,7.948-9.45,14.488-11.37,19.078c-3.21,7.65-6,21.722-6.21,31.2l-0.09,3.45l39.54,7.26l39.57,7.29l1.02-0.66
		c0.57-0.358,0.99-0.81,0.96-0.988c-0.12-0.512-60.63-69.69-60.988-69.69C748.5,470.1,747.39,471.48,746.22,473.19z M754.77,486.48
		c1.771,1.05,2.94,3.75,4.08,9.42c1.62,7.948,2.222,17.97,1.382,22.89c-0.932,5.4-3.15,8.31-6.36,8.31c-4.26,0-7.44-4.8-8.82-13.318
		c-0.63-3.812-0.568-6.45,0.3-12.36c1.352-9.33,3.03-13.5,5.972-14.85C752.85,485.88,753.72,485.85,754.77,486.48z"/>
	<path id="structure35_label28_MEnt" bar:growlevel="0" bar:type="" fill="#E4FF59" d="M783,566.97
		c-13.44,13.021-24.48,23.91-24.54,24.24c-0.06,0.42,1.14,1.5,4.95,4.35c5.37,3.99,7.53,5.37,10.8,6.812
		c5.55,2.398,10.35,3.33,18.42,3.54c6.54,0.18,11.94-0.15,20.28-1.29c3-0.391,5.52-0.72,5.609-0.72c0.091,0,0.181-13.382,0.181-29.7
		v-29.7h-3.51c-2.7-0.03-3.932-0.15-5.19-0.6c-0.9-0.33-1.86-0.57-2.1-0.57C807.66,543.33,796.44,553.98,783,566.97z"/>
	<path id="structure36_label29_DIEnt" bar:growlevel="0" bar:type="" fill="#D2E959" d="M885.33,485.85
		c-2.94,5.7-9.42,15.99-13.62,21.602c-2.61,3.45-7.2,8.938-9.72,11.58c-1.2,1.26-2.19,2.46-2.19,2.67
		c0,0.358,31.92,58.35,32.432,58.92c0.39,0.42,1.92-0.391,6.688-3.54c15.09-9.9,27.75-21.84,38.88-36.63
		c4.98-6.63,11.4-16.92,11.4-18.3c0-0.48-6.42-4.5-30.78-19.352c-16.92-10.318-31.05-18.78-31.41-18.84
		C886.47,483.9,886.17,484.23,885.33,485.85z"/>
	<path id="structure37_label30_VIEnt" bar:growlevel="0" bar:type="" fill="#F2FFB2" d="M857.97,523.08
		c-1.438,1.53-5.97,5.37-8.91,7.59c-8.398,6.33-19.318,11.55-27.568,13.141l-2.79,0.539v29.61v29.64h0.72
		c1.98,0,23.55-4.229,32.16-6.3c10.83-2.608,20.55-6,30.12-10.56c4.858-2.28,10.5-5.34,10.5-5.7c0-0.54-32.55-59.04-32.852-59.04
		C859.17,522,858.54,522.48,857.97,523.08z"/>
	<path id="structure38_label31_DLEnt" bar:growlevel="0" bar:type="" fill="#D6FF00" d="M900,449.46
		c-3.3,11.34-6.42,19.53-11.01,29.13c-1.26,2.58-2.222,4.771-2.16,4.83c0.51,0.54,62.04,37.83,62.55,37.92s0.84-0.39,2.16-3.21
		c6.06-12.899,10.11-27.21,10.74-37.979c0.238-3.602-0.78-9.87-1.65-10.32c-0.57-0.3-58.74-22.26-59.49-22.44
		C900.75,447.27,900.51,447.69,900,449.46z"/>
	<path id="structure39_label32_VS" bar:growlevel="0" bar:type="" fill="#F1FFB2" d="M897.6,413.91
		c-0.568,0.898-1.77,2.28-2.64,3.03c-0.93,0.778-1.8,1.858-2.07,2.52c-0.688,1.74-4.56,5.13-9.659,8.49l-4.561,3l-3.21,6.6
		c-14.91,30.75-19.65,38.7-28.021,46.83c-3.391,3.3-5.609,5.07-8.699,6.96c-8.07,4.95-15.99,6.99-24.392,6.33
		c-2.938-0.24-6.898-0.84-8.76-1.35c-0.45-0.12-0.688-0.062-0.688,0.18c0,0.51,15.6,40.26,15.96,40.65
		c0.329,0.358,3.06-0.57,7.56-2.58c7.65-3.392,13.32-7.682,25.08-18.96c13.29-12.78,18.51-20.37,26.85-39.21
		c3.24-7.262,10.08-24.45,12.12-30.392c3.602-10.438,5.79-20.729,6.78-31.8C899.46,411.66,899.04,411.6,897.6,413.91z"/>
	<path id="structure40_label33_PRh" bar:growlevel="0" bar:type="" fill="#EBF400" d="M906.75,422.16
		c-0.06,0.21-0.48,2.22-0.9,4.438c-0.75,3.66-2.52,10.892-4.38,17.762c-0.39,1.438-0.63,2.67-0.568,2.729
		c0.21,0.18,59.22,22.41,59.488,22.41c0.392,0,0.21-0.84-1.05-5.31c-2.01-7.23-1.74-9.36,1.352-10.29
		c2.188-0.66,3.93-1.682,5.369-3.24c1.471-1.562,3.931-6.062,3.779-6.87c-0.06-0.36-9.12-3.6-31.29-11.25
		c-17.159-5.91-31.29-10.74-31.438-10.74C906.99,421.8,906.84,421.98,906.75,422.16z"/>
	<path id="structure41_label34_Ect" bar:growlevel="0" bar:type="" fill="#F9FF47" d="M908.55,398.91
		c0.24,2.79-0.27,12.148-0.93,17.28c-0.271,2.01-0.51,4.05-0.54,4.528l-0.03,0.87l31.17,10.74c17.16,5.938,31.38,10.77,31.59,10.77
		c0.54,0,0.96-1.02,2.79-6.93c2.07-6.688,4.83-17.49,6.24-24.57c1.562-7.738,1.65-8.398,1.2-8.398c-0.21,0-16.05-1.47-35.19-3.3
		c-19.14-1.802-35.188-3.302-35.64-3.302h-0.84L908.55,398.91z"/>
	<path id="structure42_label35_LMol" bar:growlevel="0" bar:type="" fill="#F5FFB2" d="M811.41,316.56
		c-1.08,1.44-2.46,4.32-3.18,6.63c-1.682,5.49-1.29,15.66,0.84,21.9c0.898,2.55,1.05,2.76,3.87,4.68
		c16.35,11.28,27.27,32.91,28.17,55.98c0.358,9.72-1.38,20.97-4.98,31.95c-0.688,2.04-1.17,3.898-1.11,4.08
		c0.182,0.479,2.4,0.988,5.312,1.2c4.56,0.358,11.4-0.69,17.97-2.762l3.57-1.108l0.6-2.58c0.812-3.45,1.682-8.25,2.19-11.73
		c0.75-5.49,0.18-22.53-0.99-28.98c-2.13-11.88-8.4-25.74-18.27-40.47c-6.9-10.29-14.73-20.55-22.171-28.95
		c-3.271-3.72-10.319-10.8-10.739-10.8C812.28,315.6,811.8,316.05,811.41,316.56z"/>
	<path id="structure43_label36_Rad" bar:growlevel="0" bar:type="" fill="#E7FF3B" d="M820.65,308.64c-0.812,0.45-2.16,1.29-3,1.86
		c-1.592,1.08-4.95,4.14-4.95,4.5c0,0.12,1.71,1.95,3.81,4.08c10.74,10.95,23.46,27.3,32.642,42
		c7.438,11.85,13.02,25.17,14.67,34.92c0.72,4.26,1.38,13.86,1.38,19.86c0,6.63-0.63,11.79-2.37,19.648
		c-0.36,1.53-0.63,2.852-0.63,2.94c0,0.87,7.318-2.4,15.24-6.78c1.14-0.66,1.318-0.93,1.858-2.67c2.4-8.07,3.182-12.54,3.63-21.33
		c0.63-12.27-0.6-19.65-5.22-31.47c-2.07-5.34-7.59-16.38-10.41-20.94c-5.64-9.03-15.93-20.85-29.7-34.11
		c-6.81-6.57-14.43-13.35-15-13.35C822.36,307.8,821.49,308.19,820.65,308.64z"/>
	<path id="structure44_label37_GrDG" bar:growlevel="0" bar:type="" fill="#DEFF00" d="M805.5,381.78c-3.24,0.54-4.92,1.59-6.6,4.11
		c-2.432,3.63-3.24,8.97-1.83,12.06c0.81,1.8,1.948,3.09,3.238,3.63c2.28,0.99,9.062,0.03,12.57-1.771
		c1.771-0.93,3.54-2.67,4.17-4.168c1.05-2.55,0.3-6.78-1.648-9.51C813.27,383.22,808.8,381.24,805.5,381.78z"/>
	<path id="structure45_label38_CA1" bar:growlevel="0" bar:type="" fill="#BCD400" d="M820.65,308.64c-0.812,0.45-2.16,1.29-3,1.86
		c-1.592,1.08-4.95,4.14-4.95,4.5c0,0.12,1.71,1.95,3.81,4.08c10.74,10.95,23.46,27.3,32.642,42
		c7.438,11.85,13.02,25.17,14.67,34.92c0.72,4.26,1.38,13.86,1.38,19.86c0,6.63-0.63,11.79-2.37,19.648
		c-0.36,1.53-0.63,2.852-0.63,2.94c0,0.87,7.318-2.4,15.24-6.78c1.14-0.66,1.318-0.93,1.858-2.67c2.4-8.07,3.182-12.54,3.63-21.33
		c0.63-12.27-0.6-19.65-5.22-31.47c-2.07-5.34-7.59-16.38-10.41-20.94c-5.64-9.03-15.93-20.85-29.7-34.11
		c-6.81-6.57-14.43-13.35-15-13.35C822.36,307.8,821.49,308.19,820.65,308.64z"/>
	<path id="structure46_label39_Py" bar:growlevel="0" bar:type="" fill="#EEFF76" d="M828.15,306.18
		c-0.33,0.09-1.53,0.36-2.642,0.63c-1.648,0.36-2.01,0.57-1.95,0.99c0.062,0.3,1.44,1.71,3.092,3.15
		c11.85,10.32,25.5,24.3,33.63,34.47c5.85,7.29,10.41,14.82,14.938,24.66c5.7,12.45,7.98,21.66,7.98,32.31
		c0,9.48-0.812,16.08-2.852,23.312c-0.568,2.068-1.05,3.84-1.05,3.96c0,0.54,1.021,0.148,3.062-1.17c5.729-3.69,9.72-7.11,10.5-9
		c0.42-1.05,0.39-13.83-0.062-20.642c-0.84-13.08-2.938-23.729-6.45-32.97c-1.38-3.66-5.76-12.42-8.488-17.01
		c-3.9-6.6-10.562-14.4-21.96-25.77c-8.79-8.82-17.16-16.29-18.54-16.62C836.31,306.24,828.93,306,828.15,306.18z"/>
	<path id="structure47_label40_TeA" bar:growlevel="0" bar:type="" fill="#D0D46B" d="M941.16,352.44l-37.892,9.51l0.15,0.75
		c2.82,13.02,4.08,20.79,4.71,28.74l0.391,4.83l1.529,0.182c4.23,0.479,68.13,6.45,69.15,6.45c1.38,0,1.29,0.148,1.92-4.352
		c1.62-11.34,2.22-22.62,1.71-31.68c-0.54-9.99-2.49-23.76-3.33-23.88C979.26,342.96,962.01,347.22,941.16,352.44z"/>
	<path id="structure48_label42_AuV" bar:growlevel="0" bar:type="" fill="#FFFDB2" d="M932.94,323.79
		c-20.28,8.79-36.842,16.08-36.842,16.26c0,0.15,0.602,1.86,1.352,3.75c1.648,4.17,4.35,12.48,5.1,15.66
		c0.3,1.29,0.66,2.34,0.812,2.34c0.33,0,76.26-18.96,76.408-19.08c0.24-0.21-2.67-12.6-4.318-18.57
		c-2.34-8.43-4.95-16.35-5.34-16.32C969.9,307.86,953.19,315.03,932.94,323.79z"/>
	<path id="structure49_label43_Au1" bar:growlevel="0" bar:type="" fill="#FFFB00" d="M909.9,280.53
		c-18.57,13.68-33.78,25.05-33.842,25.26c-0.028,0.18,0.632,1.29,1.472,2.46c5.58,7.56,11.489,17.34,15.63,25.86
		c1.47,3.03,2.76,5.49,2.88,5.49c0.51,0,74.16-31.98,74.16-32.19c0-0.54-4.05-11.07-6.21-16.11c-2.971-7.02-7.8-16.77-11.16-22.59
		c-3.96-6.9-8.1-13.11-8.7-13.08C943.86,255.63,928.47,266.85,909.9,280.53z"/>
	<path id="structure50_label44_AuD" bar:growlevel="0" bar:type="" fill="#FFFA00" d="M895.8,262.47
		c-16.92,15.99-30.78,29.34-30.84,29.67c-0.06,0.36,0.99,1.8,3,4.14c1.71,1.98,4.08,4.83,5.31,6.36c1.2,1.53,2.4,2.76,2.61,2.7
		c0.24-0.06,15.601-11.28,34.17-24.96c22.59-16.62,33.75-25.02,33.75-25.38c0-1.32-15.78-21.57-16.8-21.57
		C926.76,233.43,912.72,246.51,895.8,262.47z"/>
	<path id="structure51_label45_V2L" bar:growlevel="0" bar:type="" fill="#FDFFB2" d="M836.76,213.12
		c-11.58,22.68-21.06,41.43-21.06,41.67c0,0.27,1.438,1.26,3.39,2.34c5.102,2.85,14.79,8.67,18.42,11.1
		c7.17,4.8,12.42,9.27,21.03,17.91c3.18,3.18,5.88,5.76,6.03,5.7c0.479-0.18,61.979-58.47,62.068-58.83
		c0.21-0.96-17.46-19.14-26.04-26.76c-12.21-10.83-41.31-34.35-42.51-34.35C857.94,171.9,848.34,190.44,836.76,213.12z"/>
	<path id="structure52_label46_V1B" bar:growlevel="0" bar:type="" fill="#FEFFB2" d="M782.25,135.66
		c-1.23,3.63-26.25,89.94-26.19,90.33c0.062,0.42,1.98,1.38,7.592,3.78c13.29,5.73,29.67,13.59,44.068,21.18
		c3.932,2.1,7.32,3.72,7.5,3.66c0.33-0.12,42.48-82.41,42.48-82.92c0-0.54-9.87-7.02-17.25-11.34
		c-11.79-6.93-22.59-11.7-49.05-21.78c-3.87-1.47-7.352-2.82-7.74-2.97C782.73,135.21,782.4,135.21,782.25,135.66z"/>
	<path id="structure53_label47_V1M" bar:growlevel="0" bar:type="" fill="#FAFF00" d="M697.68,116.76
		c-0.568,3.18-12.778,83.64-12.778,84.3c0,0.72,0.27,0.87,3.688,2.13c4.892,1.8,11.73,4.08,28.41,9.51
		c14.82,4.86,22.5,7.5,32.34,11.25c3.36,1.26,6.15,2.25,6.24,2.16c0.21-0.18,26.52-90.15,26.52-90.63s-2.52-1.44-10.198-3.9
		c-12.812-4.05-24.87-6.93-46.021-10.98c-9.75-1.86-26.64-4.8-27.51-4.8C698.04,115.8,697.8,116.13,697.68,116.76z"/>
	<path id="structure54_label48_DS" bar:growlevel="0" bar:type="" fill="#D3FF00" d="M771.6,262.98c-5.58,0.72-8.67,1.71-12.81,4.17
		c-1.62,0.96-3.66,2.16-4.56,2.67c-4.83,2.82-8.882,8.25-10.682,14.43c-3.12,10.74-0.24,27,6.99,39.66
		c0.78,1.38,1.53,2.49,1.65,2.49c0.148,0,1.858-0.81,3.84-1.83c8.79-4.5,15.12-9.57,20.37-16.47c4.59-6,8.608-9.3,13.59-11.19
		c2.188-0.81,2.818-0.93,5.76-0.93c3,0,3.57,0.09,6.45,1.08c6.568,2.25,14.76,6.27,18.81,9.3l1.59,1.17l1.98-0.6
		c3.09-0.96,6.78-1.32,9.81-0.93c3.21,0.39,16.17,3.51,25.802,6.21c0.358,0.12,0.51,0,0.51-0.45c0-0.87-11.88-12.75-17.55-17.55
		c-12.182-10.29-22.5-17.37-32.7-22.41c-12.062-5.97-21.9-8.61-32.7-8.85C774.96,262.89,772.17,262.92,771.6,262.98z"/>
	<path id="structure55_label49_PrS" bar:growlevel="0" bar:type="" fill="#E0FF59" d="M745.77,319.26
		c-0.51,0.72-1.288,2.04-1.77,2.94c-1.68,3.33-5.1,11.31-5.1,11.88c0.028,0.6,1.29,1.62,7.198,5.79c5.4,3.81,8.882,5.04,12.632,4.53
		c1.89-0.27,6.27-2.07,6.27-2.58c0-0.18-1.56-1.86-3.48-3.75c-5.43-5.34-9.658-11.07-12.568-17.01c-0.812-1.68-1.65-3.06-1.86-3.06
		S746.28,318.57,745.77,319.26z"/>
	<path id="structure56_label50_Post" bar:growlevel="0" bar:type="" fill="#D0FF00" d="M672.6,241.86
		c-5.85,10.26-10.68,18.84-10.738,19.11c-0.062,0.33,0.778,0.9,2.85,1.95c10.44,5.16,15.87,10.14,25.44,23.28
		c11.608,15.93,16.618,21.72,25.648,29.67c8.852,7.8,21.96,18.18,22.59,17.94c0.24-0.09,1.44-2.55,2.73-5.49
		c2.609-5.94,3.72-8.1,5.069-9.63c1.021-1.17,1.051-0.84-0.811-6.24c-0.72-2.16-1.71-5.73-2.16-7.95
		c-0.75-3.66-0.84-4.65-0.84-10.35c0-5.55,0.09-6.57,0.66-8.61c1.41-5.16,3.09-8.25,6.15-11.52c2.818-3,2.729-3.18-1.142-2.37
		c-2.7,0.57-7.5,0.57-10.2,0c-4.5-0.96-9.898-4.29-17.818-10.98c-4.892-4.11-7.95-7.17-15.512-15.42
		C693.96,233.7,684,223.2,683.61,223.2C683.4,223.2,678.45,231.6,672.6,241.86z"/>
	<path id="structure57_label51_V2ML" bar:growlevel="0" bar:type="" fill="#F8FF00" d="M658.8,112.11
		c-0.03,0.96,5.73,80.31,5.852,81.24c0.148,0.93,0.27,0.96,9.54,4.44c5.13,1.95,9.6,3.51,9.868,3.51c0.302,0,0.57-0.33,0.66-0.84
		c0.392-1.89,12.78-83.55,12.78-84.18c0-0.66-0.15-0.72-6.81-1.65c-11.642-1.62-25.562-3.03-29.852-3.03
		C659.1,111.6,658.8,111.69,658.8,112.11z"/>
	<path id="structure58_label52_V2MM" bar:growlevel="0" bar:type="" fill="#FAFF59" d="M639.15,111.3
		c-6.36,0.27-10.17,0.6-17.79,1.56c-5.04,0.63-5.19,0.66-5.102,1.32c0.062,0.36,9.48,18.21,20.94,39.69
		c20.608,38.58,20.85,39.03,21.75,39.03c0.51,0,1.92,0.27,3.12,0.6c1.198,0.36,2.25,0.57,2.34,0.51c0.12-0.15-5.82-82.44-5.97-82.56
		C658.17,111.24,643.98,111.12,639.15,111.3z"/>
	<path id="structure59_label53_RSD" bar:growlevel="0" bar:type="" fill="#EEF447" d="M609.6,114.75
		c-11.729,2.37-20.46,5.22-28.198,9.18c-5.58,2.85-9.78,6.42-14.07,11.97c-3.48,4.53-7.98,12.57-7.38,13.17
		c0.3,0.3,95.88,43.2,96.84,43.44c0.33,0.12,0.51,0,0.51-0.36c0-0.3-9.358-18.06-20.76-39.48c-17.07-31.98-20.91-38.94-21.39-38.94
		C614.82,113.73,612.33,114.18,609.6,114.75z"/>
	<path id="structure60_label54_RSGc" bar:growlevel="0" bar:type="" fill="#FFFEB2" d="M558.24,152.16
		c-2.46,6.33-4.23,13.05-5.222,19.89c-0.988,6.78-0.568,22.68,0.632,23.13c0.21,0.09,2.52-0.33,5.13-0.9
		c12-2.64,25.77-4.08,45.93-4.74c16.021-0.51,33.12,0.15,43.83,1.71c3.78,0.54,4.26,0.57,4.26,0.06c0-0.42-92.16-41.91-93.06-41.91
		C559.5,149.4,558.9,150.48,558.24,152.16z"/>
	<path id="structure61_label55_RSGb" bar:growlevel="0" bar:type="" fill="#FFFE00" d="M600.3,189.81
		c-11.67,0.45-26.55,1.86-34.74,3.27c-5.908,0.99-12.06,2.49-12.06,2.91c0,0.66,1.44,6.33,2.25,8.91
		c5.76,18.15,19.59,32.31,35.13,35.97l1.53,0.36l3.27-2.01c17.012-10.53,52.17-29.64,64.262-34.95c2.04-0.9,3.778-1.8,3.869-1.98
		c0.091-0.21-0.601-1.23-1.5-2.25c-2.311-2.67-4.109-5.34-4.109-6.12c0-0.6-0.271-0.72-2.61-1.26
		c-5.67-1.32-13.858-2.25-23.938-2.76C626.28,189.63,606.15,189.57,600.3,189.81z"/>
	<path id="structure62_label56_RSGa" bar:growlevel="0" bar:type="" fill="#FFFD59" d="M661.2,203.76
		c-3.45,1.47-15.69,7.59-23.642,11.82c-20.46,10.95-44.158,24.6-44.158,25.47c0,0.24,0.84,0.57,2.34,0.9
		c24.898,5.46,48.18,12.09,61.95,17.73c1.77,0.72,3.39,1.32,3.6,1.32c0.271,0,21.479-36.69,22.05-38.13
		c0.062-0.15-4.108-4.71-9.27-10.17c-6.512-6.84-9.57-9.9-9.99-9.9C663.72,202.8,662.43,203.25,661.2,203.76z"/>
	<path id="structure63_label57_SuG" bar:growlevel="0" bar:type="" fill="#463BFF" d="M570.6,247.41c-5.1,0.6-9.778,3.06-14.67,7.74
		c-6.688,6.39-8.64,11.85-9.18,25.65c-0.33,7.95,0.63,20.43,1.83,24.06c0.36,1.14,0.6,1.44,1.14,1.44c1.5,0,2.91-2.64,3.602-6.78
		c0.239-1.47,0.6-5.1,0.778-8.07c0.602-9.78,1.5-14.85,3.211-18.36c1.171-2.34,3.989-4.83,7.381-6.51
		c6.988-3.45,11.76-3.6,29.46-1.05c15.54,2.25,27.869,4.92,37.35,8.07c17.55,5.85,26.79,11.13,41.82,23.82
		c5.25,4.44,9.33,8.4,14.16,13.83c5.368,6.03,9.658,9.69,14.578,12.39c2.94,1.62,3.24,1.62,3.24-0.06c0-2.76-0.99-4.86-5.13-11.01
		c-11.31-16.65-17.07-23.19-30.27-34.2c-11.79-9.84-18.36-13.32-37.352-19.77c-18.568-6.3-33.568-9.75-48.45-11.1
		C580.83,247.23,572.85,247.17,570.6,247.41z"/>
	<path id="structure64_label58_Op" bar:growlevel="0" bar:type="" fill="#7C76E9" d="M573.45,264c-4.23,0.57-8.07,1.95-11.28,4.08
		c-5.55,3.66-6.81,7.41-7.92,23.37c-0.27,3.78-0.69,7.83-0.96,9c-0.51,2.28-1.38,4.41-2.07,4.98c-0.239,0.18-0.42,0.54-0.42,0.81
		c0,0.69,5.102,0.36,6.9-0.45c1.29-0.57,1.59-0.93,5.1-6.72c10.74-17.64,10.71-17.61,13.8-19.17c2.94-1.47,5.102-1.92,9.602-1.92
		c2.55,0,5.1,0.21,6.898,0.54c2.762,0.51,4.381,0.87,21,4.68c18.092,4.14,31.29,9.96,52.65,23.19c13.17,8.16,28.8,18.6,39.06,26.04
		c6.36,4.62,7.11,4.68,4.23,0.39c-1.62-2.37-1.65-2.46-1.38-5.31c0.09-0.81-0.062-0.93-1.71-1.56
		c-6.87-2.58-12.72-7.02-20.011-15.21c-7.229-8.07-16.5-16.29-26.189-23.07c-11.85-8.34-28.5-14.91-47.46-18.72
		c-9.78-1.98-22.08-3.87-31.351-4.8C577.26,263.67,576.18,263.67,573.45,264z"/>
	<path id="structure65_label59_InG" bar:growlevel="0" bar:type="" fill="#B5B2FF" d="M580.5,278.58c-2.64,0.57-5.28,1.92-6.81,3.48
		c-0.69,0.72-3.092,4.32-5.342,8.04c-4.17,6.81-8.34,13.62-9.148,14.88c-0.24,0.39-0.33,0.78-0.24,0.9c0.12,0.09,2.1,0,4.44-0.21
		l4.229-0.39l-0.18-0.78c-0.271-1.17,1.858-4.14,4.47-6.33c2.46-2.07,7.11-4.44,10.23-5.28c3.18-0.81,13.438-0.75,19.35,0.18
		c15.09,2.31,26.22,6.42,40.65,15.06c10.318,6.15,21.42,14.04,34.8,24.69c3.96,3.18,10.17,7.98,13.8,10.74
		c10.08,7.62,15.57,12.54,18.21,16.38c1.65,2.4,2.7,5.07,2.88,7.29c0.09,1.29,0.271,2.07,0.48,2.07c0.448,0,2.31-3.18,3.3-5.64
		c1.53-3.81,2.07-6.81,1.859-10.17c-0.211-3.78-0.811-6.81-2.039-10.23c-1.711-4.86-1.83-5.04-6.75-8.67
		c-12.722-9.39-33.722-23.28-48.812-32.31c-15.72-9.39-29.76-15.33-43.53-18.45c-2.97-0.66-8.608-1.95-12.51-2.88
		c-3.898-0.9-8.76-1.92-10.8-2.25C588.72,278.01,583.41,277.95,580.5,278.58z"/>
	<path id="structure66_label60_InWh" bar:growlevel="0" bar:type="" fill="#0900E9" d="M586.35,292.53
		c-3.27,0.21-4.648,0.51-7.738,1.68c-5.07,1.89-11.25,7.47-10.95,9.9c0.09,0.75,0.21,0.84,1.14,0.81c0.57,0,2.25-0.39,3.72-0.81
		c6.302-1.92,14.012-0.57,26.79,4.62c13.5,5.49,28.41,15.3,41.4,27.24c10.89,9.99,26.64,29.49,34.83,43.08
		c2.43,4.02,4.11,5.88,6.33,6.96c1.47,0.75,2.01,0.84,4.38,0.81c3.33-0.03,5.521-0.72,9.3-2.97c6.09-3.6,14.4-10.53,15.48-12.9
		c0.81-1.77,0.75-5.22-0.12-7.35c-1.05-2.55-3.062-5.28-6.03-8.25c-3.479-3.45-6.148-5.67-14.85-12.27
		c-3.87-2.94-9.932-7.65-13.5-10.5c-23.94-19.08-41.762-30.09-56.79-35.1C608.49,293.73,595.92,291.87,586.35,292.53z"/>
	<path id="structure67_label61_DpG" bar:growlevel="0" bar:type="" fill="#3F3BE9" d="M575.25,303.48c-0.33,0.06-1.8,0.45-3.3,0.87
		c-1.74,0.48-4.98,0.96-9.15,1.38c-3.54,0.36-7.26,0.72-8.25,0.84c-0.99,0.12-3.21,0.09-4.95-0.06c-4.02-0.36-6.39-0.39-8.158-0.09
		l-1.44,0.21v16.5v16.47h1.021c0.569,0,3.511-0.21,6.539-0.48c9.78-0.87,22.23-0.6,29.7,0.63c3.21,0.54,6.182,1.62,8.34,3.06
		c5.19,3.45,17.762,19.5,22.352,28.59c1.41,2.79,3.87,10.14,4.2,12.48c0.119,0.81,0.42,2.04,0.658,2.73
		c0.57,1.56,0.392,4.95-0.358,7.11c-0.271,0.78-1.23,3.088-2.16,5.1c-2.37,5.188-2.4,4.77,0.42,5.52c5.22,1.41,7.68,1.68,15.09,1.68
		c5.04,0,8.13-0.148,10.8-0.51c12.421-1.74,26.342-5.67,38.4-10.92c5.82-2.52,14.1-6.75,14.1-7.2c0-0.3-0.63-0.39-2.608-0.39
		c-2.28,0-2.88-0.12-4.44-0.87c-2.31-1.11-4.17-3.06-6.3-6.63c-5.46-9.06-14.88-21.66-23.91-31.98
		c-12.81-14.64-28.77-27.12-45.18-35.34c-6.96-3.48-15.45-6.69-21.36-8.01C582.84,303.63,576.51,303.18,575.25,303.48z"/>
	<path id="structure68_label62_DpWh" bar:growlevel="0" bar:type="" fill="#0700FF" d="M575.25,303.48c-0.33,0.06-1.8,0.45-3.3,0.87
		c-1.74,0.48-4.98,0.96-9.15,1.38c-3.54,0.36-7.26,0.72-8.25,0.84c-0.99,0.12-3.21,0.09-4.95-0.06c-4.02-0.36-6.39-0.39-8.158-0.09
		l-1.44,0.21v16.5v16.47h1.021c0.569,0,3.511-0.21,6.539-0.48c9.78-0.87,22.23-0.6,29.7,0.63c3.21,0.54,6.182,1.62,8.34,3.06
		c5.19,3.45,17.762,19.5,22.352,28.59c1.41,2.79,3.87,10.14,4.2,12.48c0.119,0.81,0.42,2.04,0.658,2.73
		c0.57,1.56,0.392,4.95-0.358,7.11c-0.271,0.78-1.23,3.088-2.16,5.1c-2.37,5.188-2.4,4.77,0.42,5.52c5.22,1.41,7.68,1.68,15.09,1.68
		c5.04,0,8.13-0.148,10.8-0.51c12.421-1.74,26.342-5.67,38.4-10.92c5.82-2.52,14.1-6.75,14.1-7.2c0-0.3-0.63-0.39-2.608-0.39
		c-2.28,0-2.88-0.12-4.44-0.87c-2.31-1.11-4.17-3.06-6.3-6.63c-5.46-9.06-14.88-21.66-23.91-31.98
		c-12.81-14.64-28.77-27.12-45.18-35.34c-6.96-3.48-15.45-6.69-21.36-8.01C582.84,303.63,576.51,303.18,575.25,303.48z"/>
	<path id="structure69_label63_DLPAG" bar:growlevel="0" bar:type="" fill="#B2B5FF" d="M575.88,340.26
		c-0.06,0.21-0.36,1.32-0.63,2.49c-3.42,14.7-12.66,28.11-26.67,38.61c-2.01,1.5-3.66,2.91-3.72,3.12
		c-0.062,0.21,0.568,0.72,1.38,1.14c0.81,0.42,1.83,1.17,2.279,1.71l0.811,0.96l3.21-0.51c17.4-2.79,55.8-12.06,56.4-13.62
		c0.39-1.08-5.222-10.29-10.44-17.13c-6.36-8.31-11.22-13.44-14.34-15C580.89,340.38,576.15,339.36,575.88,340.26z"/>
	<path fill="#7677E9" d="M597.84,413.25c-13.62-1.47-32.43-6.48-48.54-12.93c-2.25-0.87-4.29-1.62-4.56-1.62
		c-0.45,0-1.562,2.16-1.892,3.688c-0.21,1.052-1.35,2.222-2.368,2.49c-0.156,0.036-0.317,0.046-0.48,0.04v13.233
		c0.055,0.024,0.108,0.047,0.15,0.047c0.18,0,0.51-0.33,0.688-0.75c0.21-0.45,0.602-0.75,0.96-0.75c0.9,0,1.682,1.95,2.312,5.67
		c0.3,1.68,0.659,3.03,0.84,3.03c0.149,0,1.229-0.602,2.34-1.32c4.47-2.91,13.26-5.94,20.101-6.96
		c4.319-0.63,10.109-0.45,13.561,0.45c2.939,0.778,6.66,2.52,8.85,4.198c0.9,0.66,1.83,1.23,2.07,1.23s1.05-0.51,1.8-1.11
		c3.062-2.488,4.62-4.17,5.312-5.729C600.09,413.7,600.03,413.49,597.84,413.25z"/>
	<path id="structure78_label74_CEnt" bar:growlevel="0" bar:type="" fill="#C5E900" d="M728.34,529.41
		c-0.18,3.63,0.271,13.32,0.812,17.64c1.618,13.23,7.408,23.97,19.35,35.82c3.75,3.72,8.94,8.188,9.42,8.07
		c0.21-0.062,11.46-10.83,25.021-23.94c21-20.31,24.658-23.97,24.658-24.66c0-0.479-0.118-0.84-0.27-0.84
		c-0.12,0-17.521-3.18-38.61-7.05s-38.79-7.142-39.33-7.23l-0.93-0.18L728.34,529.41z"/>
	<path id="structure7_label0_RRF" bar:growlevel="0" bar:type="" fill="#2800D8" d="M646.5,494.61
		c-10.47,1.108-57.84,8.43-64.95,10.02c-2.04,0.48-3.51,1.26-4.47,2.37c-0.93,1.14-0.96,1.74-0.33,8.67
		c0.63,6.75,0.72,7.17,1.71,8.28c1.92,2.22,6.21,2.16,17.34-0.15c15.33-3.18,19.352-3.96,29.642-5.7
		c22.528-3.81,26.43-4.02,39-1.979c3.09,0.51,4.29,0.3,5.76-0.93c1.89-1.562,2.28-3.69,1.17-6c-0.75-1.53-6.75-7.382-10.38-10.11
		C655.74,495.15,652.08,494.01,646.5,494.61z"/>
	<path id="structure82_label79_rs" bar:growlevel="0" bar:type="" fill="#650BE1" d="M588.06,528.24
		c-5.46,1.95-5.608,7.229-0.358,12.18c3.148,2.97,7.41,5.04,12.33,6.061c4.14,0.841,7.17,0.211,9.688-1.979
		c1.771-1.56,2.432-3.09,2.4-5.55c-0.062-3.9-1.92-6.45-6.3-8.58c-3.84-1.86-6.45-2.43-11.67-2.58
		C590.31,527.7,589.41,527.76,588.06,528.24z"/>
	<path id="structure8_label1_ID" bar:growlevel="0" bar:type="" fill="#8453FA" d="M568.05,536.52c-3.21,0.512-4.83,1.29-6.51,3.092
		c-2.64,2.85-3.66,6-3.48,10.738c0.21,6.182,2.642,8.552,8.7,8.552c4.59,0,9.63-2.07,12.33-5.07c1.83-2.04,2.46-4.5,2.01-8.07
		c-0.33-2.608-1.318-4.62-3.118-6.42C575.07,536.49,572.58,535.77,568.05,536.52z"/>
	<path fill="#4423CB" d="M614.7,558.12c-1.29-2.64-4.5-4.86-9.51-6.63c-2.25-0.812-2.552-0.84-8.342-0.812
		c-4.858,0-6.688,0.12-9.6,0.66c-6.57,1.2-6.81,1.29-8.521,3c-1.859,1.86-5.461,3.69-8.641,4.38c-5.64,1.262-9.57-0.148-11.34-4.05
		c-0.78-1.71-0.87-2.25-0.87-4.92c-0.03-3.93,1.021-7.14,3.15-9.75c0.988-1.17,1.108-1.8,0.358-1.8c-0.3,0-2.278,0.33-4.408,0.75
		c-6.9,1.318-14.07,2.31-16.98,2.31v20.34c0.24,0,0.66-0.448,0.9-0.988c1.318-2.82,5.01-3.03,7.979-0.42
		c1.05,0.93,1.44,1.56,1.86,2.938c0.27,0.96,0.63,1.771,0.778,1.771c0.961,0,7.562,4.77,11.07,8.01c1.71,1.56,2.61,1.979,2.61,1.17
		c0-0.69,1.2-1.98,2.43-2.61c1.71-0.84,7.29-2.188,14.22-3.39c9.48-1.65,21.932-4.35,28.65-6.18c1.74-0.48,3.51-0.932,3.99-1.021
		C615.48,560.64,615.54,559.92,614.7,558.12z"/>
	
		<text id="label30" bar:growlevel="0" transform="matrix(1 0 0 1 838.96 568.335)" fill="#232323" enable-background="new    " font-family="'TimesNewRomanPSMT'" font-size="9">VIEnt</text>
	
		<text id="label31" bar:growlevel="0" transform="matrix(1 0 0 1 911.3281 483.6299)" fill="#232323" enable-background="new    " font-family="'TimesNewRomanPSMT'" font-size="9">DLEnt</text>
	
		<text id="label32" bar:growlevel="0" transform="matrix(1 0 0 1 832.8301 511.2246)" fill="#232323" enable-background="new    " font-family="'TimesNewRomanPSMT'" font-size="9">VS</text>
	
		<text id="label33" bar:growlevel="0" transform="matrix(1 0 0 1 924.7637 447.9131)" fill="#232323" enable-background="new    " font-family="'TimesNewRomanPSMT'" font-size="9">PRh</text>
	
		<text id="label34" bar:growlevel="0" transform="matrix(1 0 0 1 939.5586 420.9385)" fill="#232323" enable-background="new    " font-family="'TimesNewRomanPSMT'" font-size="9">Ect</text>
	
		<text id="label35" bar:growlevel="0" transform="matrix(1 0 0 1 841.6094 384.7725)" fill="#232323" enable-background="new    " font-family="'TimesNewRomanPSMT'" font-size="9">LMol</text>
	
		<text id="label36" bar:growlevel="0" transform="matrix(1 0 0 1 855.7695 369.4092)" fill="#232323" enable-background="new    " font-family="'TimesNewRomanPSMT'" font-size="9">Rad</text>
	
		<text id="label37" bar:growlevel="0" transform="matrix(1 0 0 1 803.6094 395.0137)" fill="#232323" enable-background="new    " font-family="'TimesNewRomanPSMT'" font-size="9">GrDG</text>
	
		<text id="label38" bar:growlevel="0" transform="matrix(1 0 0 1 841.3701 348.2461)" fill="#232323" enable-background="new    " font-family="'TimesNewRomanPSMT'" font-size="9">CA1</text>
	
		<text id="label39" bar:growlevel="0" transform="matrix(1 0 0 1 880.6895 376.5811)" fill="#232323" enable-background="new    " font-family="'TimesNewRomanPSMT'" font-size="9">Py</text>
	
		<text id="Unlabeled-3597-1837" bar:growlevel="0" transform="matrix(1 0 0 1 541.8457 304.8984)" fill="#232323" enable-background="new    " font-family="'TimesNewRomanPSMT'" font-size="9">vBrain</text>
	
		<text id="label140" bar:growlevel="0" transform="matrix(1 0 0 1 541.8457 650.5693)" fill="#232323" enable-background="new    " font-family="'TimesNewRomanPSMT'" font-size="9">bas</text>
	
		<text id="text3203" bar:growlevel="0" transform="matrix(1 0 0 1 746.3398 510.0244)" fill="#232323" enable-background="new    " font-family="'TimesNewRomanPSMT'" font-size="9">PaS</text>
	
		<text id="label145" bar:growlevel="0" transform="matrix(1 0 0 1 896.9004 438.6816)" fill="#232323" enable-background="new    " font-family="'TimesNewRomanPSMT'" font-size="9">alv</text>
	
		<text id="text3201" bar:growlevel="0" transform="matrix(1 0 0 1 766.1504 474.1885)" fill="#232323" enable-background="new    " font-family="'TimesNewRomanPSMT'" font-size="9">PrS</text>
	
		<text id="label8" bar:growlevel="0" transform="matrix(1 0 0 1 570.0996 457.7256)" fill="#232323" enable-background="new    " font-family="'TimesNewRomanPSMT'" font-size="9">InC</text>
	
		<text id="label9" bar:growlevel="0" transform="matrix(1 0 0 1 564.6514 437.4014)" fill="#232323" enable-background="new    " font-family="'TimesNewRomanPSMT'" font-size="9">Su3</text>
	
		<text id="Unlabeled-2451-1529" bar:growlevel="0" transform="matrix(1 0 0 1 735.5996 462.2998)" fill="#232323" enable-background="new    " font-family="'TimesNewRomanPSMT'" font-size="9">a</text>
	
		<text id="label133" bar:growlevel="0" transform="matrix(1 0 0 1 541.8447 431.0459)" fill="#232323" enable-background="new    " font-family="'TimesNewRomanPSMT'" font-size="9">EW</text>
	
		<text id="label0" bar:growlevel="0" transform="matrix(1 0 0 1 613.7998 511.3848)" fill="#232323" enable-background="new    " font-family="'TimesNewRomanPSMT'" font-size="9">RRF</text>
	
		<text id="label1" bar:growlevel="0" transform="matrix(1 0 0 1 566.1504 550.1914)" fill="#232323" enable-background="new    " font-family="'TimesNewRomanPSMT'" font-size="9">ID</text>
	
		<text id="label2" bar:growlevel="0" transform="matrix(1 0 0 1 576.2803 563.2637)" fill="#232323" enable-background="new    " font-family="'TimesNewRomanPSMT'" font-size="9">VTA</text>
	
		<text id="label7" bar:growlevel="0" transform="matrix(1 0 0 1 548.9414 461.5898)" fill="#232323" enable-background="new    " font-family="'TimesNewRomanPSMT'" font-size="9">3N</text>
	
		<text id="label177" bar:growlevel="0" transform="matrix(1 0 0 1 550.3594 444.3838)" fill="#232323" enable-background="new    " font-family="'TimesNewRomanPSMT'" font-size="9">3PC</text>
	
		<text id="label172" bar:growlevel="0" transform="matrix(1 0 0 1 604.291 407.001)" fill="#232323" enable-background="new    " font-family="'TimesNewRomanPSMT'" font-size="9">me5</text>
	
		<text id="label171" bar:growlevel="0" transform="matrix(1 0 0 1 543.957 389.9707)" fill="#232323" enable-background="new    " font-family="'TimesNewRomanPSMT'" font-size="9">Aq</text>
	
		<text id="label138" bar:growlevel="0" transform="matrix(1 0 0 1 646.54 535.6191)" fill="#232323" enable-background="new    " font-family="'TimesNewRomanPSMT'" font-size="9">PTg</text>
	
		<text id="label18" bar:growlevel="0" transform="matrix(1 0 0 1 562.627 596.749)" fill="#232323" enable-background="new    " font-family="'TimesNewRomanPSMT'" font-size="9">IPL</text>
	
		<text id="label13" bar:growlevel="0" transform="matrix(1 0 0 1 643.7598 456.7754)" fill="#232323" enable-background="new    " font-family="'TimesNewRomanPSMT'" font-size="9">mRt</text>
	
		<text id="label10" bar:growlevel="0" transform="matrix(1 0 0 1 543.957 517.5459)" fill="#232323" enable-background="new    " font-family="'TimesNewRomanPSMT'" font-size="9">CLi</text>
	
		<text id="label11" bar:growlevel="0" transform="matrix(1 0 0 1 564.5391 424.8682)" fill="#232323" enable-background="new    " font-family="'TimesNewRomanPSMT'" font-size="9">Su3C</text>
	
		<text id="label16" bar:growlevel="0" transform="matrix(1 0 0 1 544.8379 638.666)" fill="#232323" enable-background="new    " font-family="'TimesNewRomanPSMT'" font-size="9">tfp</text>
	
		<text id="label17" bar:growlevel="0" transform="matrix(1 0 0 1 545.9863 612.0859)" fill="#232323" enable-background="new    " font-family="'TimesNewRomanPSMT'" font-size="9">IPC</text>
	
		<text id="label14" bar:growlevel="0" transform="matrix(1 0 0 1 706.1406 456.4346)" fill="#232323" enable-background="new    " font-family="'TimesNewRomanPSMT'" font-size="9">SubB</text>
	
		<text id="label15" bar:growlevel="0" transform="matrix(1 0 0 1 561.4395 631.8662)" fill="#232323" enable-background="new    " font-family="'TimesNewRomanPSMT'" font-size="9">Pn</text>
	
		<text id="label169" bar:growlevel="0" transform="matrix(1 0 0 1 564.3008 351.666)" fill="#232323" enable-background="new    " font-family="'TimesNewRomanPSMT'" font-size="9">DMPAG</text>
	
		<text id="label165" bar:growlevel="0" transform="matrix(1 0 0 1 612.1797 436.6416)" fill="#232323" enable-background="new    " font-family="'TimesNewRomanPSMT'" font-size="9">ts</text>
	
		<text id="label164" bar:growlevel="0" transform="matrix(1 0 0 1 566.4902 497.3926)" fill="#232323" enable-background="new    " font-family="'TimesNewRomanPSMT'" font-size="9">dtgx</text>
	
		<text id="label167" bar:growlevel="0" transform="matrix(1 0 0 1 602.0195 398.6846)" fill="#232323" enable-background="new    " font-family="'TimesNewRomanPSMT'" font-size="9">Me5</text>
	
		<text id="Unlabeled-2921-1443" bar:growlevel="0" transform="matrix(1 0 0 1 844.7998 459.9004)" fill="#232323" enable-background="new    " font-family="'TimesNewRomanPSMT'" font-size="9">Cx</text>
	
		<text id="Unlabeled-2647-988" bar:growlevel="0" transform="matrix(1 0 0 1 789.5996 321)" fill="#232323" enable-background="new    " font-family="'TimesNewRomanPSMT'" font-size="9">grey</text>
	
		<text id="label119" bar:growlevel="0" transform="matrix(1 0 0 1 675.5498 210.7637)" fill="#232323" enable-background="new    " font-family="'TimesNewRomanPSMT'" font-size="9">fmj</text>
	
		<text id="label65" bar:growlevel="0" transform="matrix(1 0 0 1 552.3887 411.2998)" fill="#232323" enable-background="new    " font-family="'TimesNewRomanPSMT'" font-size="9">VLPAG</text>
	
		<text id="label63" bar:growlevel="0" transform="matrix(1 0 0 1 568.1504 371.79)" fill="#232323" enable-background="new    " font-family="'TimesNewRomanPSMT'" font-size="9">DLPAG</text>
	
		<text id="label62" bar:growlevel="0" transform="matrix(1 0 0 1 612.9395 375.5508)" fill="#232323" enable-background="new    " font-family="'TimesNewRomanPSMT'" font-size="9">DpWh</text>
	
		<text id="label61" bar:growlevel="0" transform="matrix(1 0 0 1 624.5098 350.5967)" fill="#232323" enable-background="new    " font-family="'TimesNewRomanPSMT'" font-size="9">DpG</text>
	
		<text id="label60" bar:growlevel="0" transform="matrix(1 0 0 1 631.9004 323.332)" fill="#232323" enable-background="new    " font-family="'TimesNewRomanPSMT'" font-size="9">InWh</text>
	
		<text id="label79" bar:growlevel="0" transform="matrix(1 0 0 1 595.8594 539.0293)" fill="#232323" enable-background="new    " font-family="'TimesNewRomanPSMT'" font-size="9">rs</text>
	
		<text id="label74" bar:growlevel="0" transform="matrix(1 0 0 1 752.2402 556.9424)" fill="#232323" enable-background="new    " font-family="'TimesNewRomanPSMT'" font-size="9">CEnt</text>
	
		<text id="label144" bar:growlevel="0" transform="matrix(1 0 0 1 875.7305 312.0596)" fill="#232323" enable-background="new    " font-family="'TimesNewRomanPSMT'" font-size="9">dcw</text>
	
		<text id="label48" bar:growlevel="0" transform="matrix(1 0 0 1 771.3799 285.9492)" fill="#232323" enable-background="new    " font-family="'TimesNewRomanPSMT'" font-size="9">DS</text>
	
		<text id="label130" bar:growlevel="0" transform="matrix(1 0 0 1 568.7402 245.3281)" fill="#232323" enable-background="new    " font-family="'TimesNewRomanPSMT'" font-size="9">Zo</text>
	
		<text id="label136" bar:growlevel="0" transform="matrix(1 0 0 1 650.8594 546.541)" fill="#232323" enable-background="new    " font-family="'TimesNewRomanPSMT'" font-size="9">SNR</text>
	
		<text id="label137" bar:growlevel="0" transform="matrix(1 0 0 1 552.3887 603.2061)" fill="#232323" enable-background="new    " font-family="'TimesNewRomanPSMT'" font-size="9">IPI</text>
	
		<text id="label134" bar:growlevel="0" transform="matrix(1 0 0 1 556.7813 577.9033)" fill="#232323" enable-background="new    " font-family="'TimesNewRomanPSMT'" font-size="9">IPDL</text>
	
		<text id="label135" bar:growlevel="0" transform="matrix(1 0 0 1 543.957 567.2031)" fill="#232323" enable-background="new    " font-family="'TimesNewRomanPSMT'" font-size="9">IPA</text>
	
		<text id="label40" bar:growlevel="0" transform="matrix(1 0 0 1 939.0234 378.6309)" fill="#232323" enable-background="new    " font-family="'TimesNewRomanPSMT'" font-size="9">TeA</text>
	
		<text id="label43" bar:growlevel="0" transform="matrix(1 0 0 1 915.7383 304.8984)" fill="#232323" enable-background="new    " font-family="'TimesNewRomanPSMT'" font-size="9">Au1</text>
	
		<text id="label42" bar:growlevel="0" transform="matrix(1 0 0 1 929.4082 340.7441)" fill="#232323" enable-background="new    " font-family="'TimesNewRomanPSMT'" font-size="9">AuV</text>
	
		<text id="label45" bar:growlevel="0" transform="matrix(1 0 0 1 858.0703 240.7373)" fill="#232323" enable-background="new    " font-family="'TimesNewRomanPSMT'" font-size="9">V2L</text>
	
		<text id="label44" bar:growlevel="0" transform="matrix(1 0 0 1 892.54 276.2334)" fill="#232323" enable-background="new    " font-family="'TimesNewRomanPSMT'" font-size="9">AuD</text>
	
		<text id="label47" bar:growlevel="0" transform="matrix(1 0 0 1 717.2598 172.126)" fill="#232323" enable-background="new    " font-family="'TimesNewRomanPSMT'" font-size="9">V1M</text>
	
		<text id="label46" bar:growlevel="0" transform="matrix(1 0 0 1 796.1201 199.3096)" fill="#232323" enable-background="new    " font-family="'TimesNewRomanPSMT'" font-size="9">V1B</text>
	
		<text id="Unlabeled-2512-1358" bar:growlevel="0" transform="matrix(1 0 0 1 754.5 411.2998)" fill="#232323" enable-background="new    " font-family="'TimesNewRomanPSMT'" font-size="9">a</text>
	
		<text id="label56" bar:growlevel="0" transform="matrix(1 0 0 1 638.3594 236.9795)" fill="#232323" enable-background="new    " font-family="'TimesNewRomanPSMT'" font-size="9">RSGa</text>
	
		<text id="label57" bar:growlevel="0" transform="matrix(1 0 0 1 610.6895 264.9688)" fill="#232323" enable-background="new    " font-family="'TimesNewRomanPSMT'" font-size="9">SuG</text>
	
		<text id="label54" bar:growlevel="0" transform="matrix(1 0 0 1 579.9004 181.1172)" fill="#232323" enable-background="new    " font-family="'TimesNewRomanPSMT'" font-size="9">RSGc</text>
	
		<text id="label55" bar:growlevel="0" transform="matrix(1 0 0 1 594.0996 214.3418)" fill="#232323" enable-background="new    " font-family="'TimesNewRomanPSMT'" font-size="9">RSGb</text>
	
		<text id="label52" bar:growlevel="0" transform="matrix(1 0 0 1 643.8633 140.4033)" fill="#232323" enable-background="new    " font-family="'TimesNewRomanPSMT'" font-size="9">V2MM</text>
	
		<text id="label53" bar:growlevel="0" transform="matrix(1 0 0 1 605.4297 156.541)" fill="#232323" enable-background="new    " font-family="'TimesNewRomanPSMT'" font-size="9">RSD</text>
	
		<text id="label50" bar:growlevel="0" transform="matrix(1 0 0 1 704.2998 282.3633)" fill="#232323" enable-background="new    " font-family="'TimesNewRomanPSMT'" font-size="9">Post</text>
	
		<text id="label51" bar:growlevel="0" transform="matrix(1 0 0 1 665.5498 156.4238)" fill="#232323" enable-background="new    " font-family="'TimesNewRomanPSMT'" font-size="9">V2ML</text>
	
		<text id="label58" bar:growlevel="0" transform="matrix(1 0 0 1 618.3906 281.0596)" fill="#232323" enable-background="new    " font-family="'TimesNewRomanPSMT'" font-size="9">Op</text>
	
		<text id="label59" bar:growlevel="0" transform="matrix(1 0 0 1 627.8496 299.0977)" fill="#232323" enable-background="new    " font-family="'TimesNewRomanPSMT'" font-size="9">InG</text>
	
		<text id="label125" bar:growlevel="0" transform="matrix(1 0 0 1 639.0703 569.7549)" fill="#232323" enable-background="new    " font-family="'TimesNewRomanPSMT'" font-size="9">cp</text>
	
		<text id="label124" bar:growlevel="0" transform="matrix(1 0 0 1 671.2197 605.6016)" fill="#232323" enable-background="new    " font-family="'TimesNewRomanPSMT'" font-size="9">m5</text>
	
		<text id="label127" bar:growlevel="0" transform="matrix(1 0 0 1 858.2002 315.2998)" fill="#232323" enable-background="new    " font-family="'TimesNewRomanPSMT'" font-size="9">Or</text>
	
		<text id="label121" bar:growlevel="0" transform="matrix(1 0 0 1 738.1895 269.0605)" fill="#232323" enable-background="new    " font-family="'TimesNewRomanPSMT'" font-size="9">alv</text>
	
		<text id="label120" bar:growlevel="0" transform="matrix(1 0 0 1 733.9395 254.7275)" fill="#232323" enable-background="new    " font-family="'TimesNewRomanPSMT'" font-size="9">dhc</text>
	
		<text id="label123" bar:growlevel="0" transform="matrix(1 0 0 1 696.9805 586.8281)" fill="#232323" enable-background="new    " font-family="'TimesNewRomanPSMT'" font-size="9">s5</text>
	
		<text id="label122" bar:growlevel="0" transform="matrix(1 0 0 1 730.1504 410.0264)" fill="#232323" enable-background="new    " font-family="'TimesNewRomanPSMT'" font-size="9">bic</text>
	
		<text id="label128" bar:growlevel="0" transform="matrix(1 0 0 1 765.5098 245.1279)" fill="#FF0000" enable-background="new    " font-family="'TimesNewRomanPSMT'" font-size="9">.LV</text>
	
		<text id="label22" bar:growlevel="0" transform="matrix(1 0 0 1 569.4199 398.2949)" fill="#232323" enable-background="new    " font-family="'TimesNewRomanPSMT'" font-size="9">LPAG</text>
	
		<text id="label27" bar:growlevel="0" transform="matrix(1 0 0 1 775.6689 528.1621)" fill="#232323" enable-background="new    " font-family="'TimesNewRomanPSMT'" font-size="9">PaS</text>
	
		<text id="label26" bar:growlevel="0" transform="matrix(1 0 0 1 800.1602 428.1104)" fill="#232323" enable-background="new    " font-family="'TimesNewRomanPSMT'" font-size="9">MoDG</text>
	
		<text id="label25" bar:growlevel="0" transform="matrix(1 0 0 1 793.1631 508.1475)" fill="#232323" enable-background="new    " font-family="'TimesNewRomanPSMT'" font-size="9">PrS</text>
	
		<text id="label24" bar:growlevel="0" transform="matrix(1 0 0 1 711.5498 408.3164)" fill="#232323" enable-background="new    " font-family="'TimesNewRomanPSMT'" font-size="9">BIC</text>
	
		<text id="label29" bar:growlevel="0" transform="matrix(1 0 0 1 889.1299 531.0176)" fill="#232323" enable-background="new    " font-family="'TimesNewRomanPSMT'" font-size="9">DIEnt</text>
	
		<text id="label28" bar:growlevel="0" transform="matrix(1 0 0 1 785.4199 583.3574)" fill="#232323" enable-background="new    " font-family="'TimesNewRomanPSMT'" font-size="9">MEnt</text>
	
		<text id="label49" bar:growlevel="0" transform="matrix(1 0 0 1 741.2402 335.124)" fill="#232323" enable-background="new    " font-family="'TimesNewRomanPSMT'" font-size="9">PrS</text>
	
		<text id="label151" bar:growlevel="0" transform="matrix(1 0 0 1 578.6895 578.9668)" fill="#232323" enable-background="new    " font-family="'TimesNewRomanPSMT'" font-size="9">tth</text>
	
		<text id="label152" bar:growlevel="0" transform="matrix(1 0 0 1 581.4502 592.9082)" fill="#232323" enable-background="new    " font-family="'TimesNewRomanPSMT'" font-size="9">ml</text>
	
		<text id="label153" bar:growlevel="0" transform="matrix(1 0 0 1 548.1553 547.4961)" fill="#232323" enable-background="new    " font-family="'TimesNewRomanPSMT'" font-size="9">xscp</text>
	
		<text id="label154" bar:growlevel="0" transform="matrix(1 0 0 1 559.6602 482.3691)" fill="#232323" enable-background="new    " font-family="'TimesNewRomanPSMT'" font-size="9">mlf</text>
</g>
</svg>
