<?xml version="1.0" encoding="utf-8"?>
<!-- Generator: Adobe Illustrator 24.1.1, SVG Export Plug-In . SVG Version: 6.00 Build 0)  -->
<svg version="1.1"
	 id="body" inkscape:version="0.47pre4 r22446" sodipodi:docname="122_pretrace_pretrace_v1.svg" xmlns:bar="http://www.3dbar.org" xmlns:cc="http://creativecommons.org/ns#" xmlns:dc="http://purl.org/dc/elements/1.1/" xmlns:inkscape="http://www.inkscape.org/namespaces/inkscape" xmlns:rdf="http://www.w3.org/1999/02/22-rdf-syntax-ns#" xmlns:sodipodi="http://sodipodi.sourceforge.net/DTD/sodipodi-0.dtd" xmlns:svg="http://www.w3.org/2000/svg"
	 xmlns="http://www.w3.org/2000/svg" xmlns:xlink="http://www.w3.org/1999/xlink" x="0px" y="0px" viewBox="0 0 3024 3024"
	 style="enable-background:new 0 0 3024 3024;" xml:space="preserve">
<style type="text/css">
	.st0{fill:#FF000C;}
	.st1{fill:#B5B2FF;}
	.st2{fill:#3B4ED4;}
	.st3{fill:#BB9AFF;}
	.st4{fill:#3FFF00;}
	.st5{fill:#C9FFB2;}
	.st6{fill:#D2FFB2;}
	.st7{fill:#9653F6;}
	.st8{fill:#D0FFB2;}
	.st9{fill:#B8B2FF;}
	.st10{fill:#0011FF;}
	.st11{fill:#6B3BCB;}
	.st12{fill:#E99700;}
	.st13{fill:#EEFF76;}
	.st14{fill:#DEFF00;}
	.st15{fill:#DFFF00;}
	.st16{fill:#7678FF;}
	.st17{fill:#009ACF;}
	.st18{fill:#3F3BE9;}
	.st19{fill:#9353FF;}
	.st20{fill:#6A3BDC;}
	.st21{fill:#F5FFB2;}
	.st22{fill:#FFC559;}
	.st23{fill:#7A47DC;}
	.st24{fill:#7F76FF;}
	.st25{fill:#8D77BF;}
	.st26{fill:#B2FFDE;}
	.st27{fill:#E547D8;}
	.st28{fill:#FDB2FF;}
	.st29{fill:#B2B7FF;}
	.st30{fill:#DF0045;}
	.st31{fill:#A682DC;}
	.st32{fill:#FFAE59;}
	.st33{fill:#8EF4AC;}
	.st34{fill:#00D43B;}
	.st35{fill:#0004E9;}
	.st36{fill:#0003FF;}
	.st37{fill:#5023FF;}
	.st38{fill:#8CFF59;}
	.st39{fill:#B79AED;}
	.st40{fill:#5000C3;}
	.st41{fill:#00CF69;}
	.st42{fill:#5600D4;}
	.st43{fill:#F9FFB2;}
	.st44{fill:#E7FF00;}
	.st45{fill:#FFB2BA;}
	.st46{fill:#0700FF;}
	.st47{fill:#3B40FF;}
	.st48{fill:#FFBAB2;}
	.st49{fill:#0900E9;}
	.st50{fill:#DFB259;}
	.st51{fill:#E9B759;}
	.st52{fill:#FFA900;}
	.st53{fill:#7059FF;}
	.st54{fill:#E9BD47;}
	.st55{fill:#1F00FF;}
	.st56{fill:#8253E1;}
	.st57{fill:#FFE4B2;}
	.st58{fill:#FFA600;}
	.st59{fill:#F1FFB2;}
	.st60{fill:#F4FFB2;}
	.st61{fill:#FAD6A5;}
	.st62{fill:#3BEFD0;}
	.st63{fill:#7C76E9;}
	.st64{fill:#463BFF;}
	.st65{fill:#FFFD59;}
	.st66{fill:#FFC159;}
	.st67{fill:#6A3BC7;}
	.st68{fill:#C0A6F6;}
	.st69{fill:#D3FF00;}
	.st70{fill:#FFCBB2;}
	.st71{fill:#F0FF59;}
	.st72{fill:#B2FFED;}
	.st73{fill:#D6FF00;}
	.st74{fill:#EBF400;}
	.st75{fill:#F9FF47;}
	.st76{fill:#E9FF59;}
	.st77{fill:#D5E93B;}
	.st78{fill:#BCD400;}
	.st79{fill:#CDE900;}
	.st80{fill:#E7FF3B;}
	.st81{fill:#59FFD7;}
	.st82{fill:#D0D46B;}
	.st83{fill:#FFFDB2;}
	.st84{fill:#FFFB00;}
	.st85{fill:#FFFA00;}
	.st86{fill:#FDFFB2;}
	.st87{fill:#E7E959;}
	.st88{fill:#F8FF00;}
	.st89{fill:#FAFF59;}
	.st90{fill:#EEF447;}
	.st91{fill:#FFFEB2;}
	.st92{fill:#FFFE00;}
	.st93{fill:#2E00FF;}
	.st94{fill:#00D7F2;}
	.st95{fill:#E1B2FF;}
	.st96{fill:#3B68E9;}
	.st97{fill:#3BFAFF;}
	.st98{fill:#976BFF;}
	.st99{fill:#232323;enable-background:new    ;}
	.st100{font-family:'TimesNewRomanPSMT';}
	.st101{font-size:27px;}
	.st102{fill:#FF0000;enable-background:new    ;}
</style>
<sodipodi:namedview  bordercolor="#666666" borderopacity="1" gridtolerance="10" guidetolerance="10" id="namedview468" inkscape:current-layer="content" inkscape:cx="561.73708" inkscape:cy="670.27159" inkscape:object-nodes="true" inkscape:object-paths="true" inkscape:pageopacity="0" inkscape:pageshadow="2" inkscape:snap-bbox="true" inkscape:snap-intersection-paths="true" inkscape:snap-nodes="true" inkscape:snap-smooth-nodes="true" inkscape:window-height="1128" inkscape:window-maximized="1" inkscape:window-width="1918" inkscape:window-x="1680" inkscape:window-y="24" inkscape:zoom="16" objecttolerance="10" pagecolor="#ffffff" showgrid="false">
	</sodipodi:namedview>
<desc  id="desc5">This was produced by version 4.2 of GNU libplot, a free library for exporting 2-D vector graphics.</desc>
<defs>
	<rdf:RDF>
		<cc:Work  rdf:about="">
			<dc:format>image/svg+xml</dc:format>
			<dc:type  rdf:resource="http://purl.org/dc/dcmitype/StillImage"></dc:type>
		</cc:Work>
	</rdf:RDF>
	<bar:data  content="-5.52" name="coronalcoord"></bar:data>
	
		<bar:data  content="{&apos;ReferenceHeight&apos;: 900, &apos;ReferenceWidth&apos;: 1200, &apos;imageSize&apos;: (1200, 900)}" name="rendererConf">
		</bar:data>
	
		<bar:data  content="{&apos;DumpEachStepSVG&apos;: False, &apos;DumpEachStepPNG&apos;: False, &apos;GrowDefaultBoundaryColor&apos;: 200, &apos;CacheLevel&apos;: 5, &apos;NewPathIdTemplate&apos;: &apos;structure%d_%s_%s&apos;, &apos;PoTraceConf&apos;: {&apos;potrace_accuracy_parameter&apos;: &apos;0.001&apos;, &apos;potrace_width_string&apos;: &apos;1200pt&apos;, &apos;potrace_svg_resolution_string&apos;: &apos;300x300&apos;, &apos;potrace_height_string&apos;: &apos;900pt&apos;}, &apos;DetectUnlabelled&apos;: True, &apos;DumpVBrain&apos;: False, &apos;DumpWrongSeed&apos;: True, &apos;DumpDirectory&apos;: &apos;.&apos;, &apos;MinFiterTimesApplication&apos;: 3, &apos;RegionAlreadyTraced&apos;: 100, &apos;UnlabelledTreshold&apos;: 500}" name="tracingConf">
		</bar:data>
	<bar:data  content="0.0176211454,-9.5150660793,0.0176211454,-1.5355884426" name="transformationmatrix"></bar:data>
</defs>
<g id="content">
	<path class="st0" d="M2379.3,1080c-33.7-74.7-87.7-151.9-149.3-213.5c-91.2-91.1-218.9-169.3-366.3-224.4
		c-80-29.9-148.9-46.7-237.1-57.7c-57.4-7.2-103-10.3-163.8-11.1c-74.9-0.9-132.4,3.2-175.9,12.9c-63.1,13.9-114.8,43.9-153.7,89.2
		c-19.3,22.4-28.2,36.2-31.6,49c-1,3.6-2,5.6-2.8,5.9v283.8c0.5-0.2,1,0.9,1.4,3.4c3.6,20.7,7.7,34.7,14.8,49.5
		c11.3,23.9,29.1,42.6,50.7,53.5c6.6,3.3,9,6.2,5.3,6.2c-2.7,0-10.5,4.3-14,7.7c-1.8,1.7-4.3,5.3-5.6,7.8c-4,8.1-6,10-15.8,15.1
		c-14.9,7.8-22,15.6-25.6,28.2c-2,6.9-1.5,17.3,1.1,23.1c3.3,7.6,11.3,13.9,21.4,17c3.7,1.1,5.9,3.1,5.9,5.1c0,0.6-5,3.6-11,6.7
		c-6.1,3.1-12.4,6.5-14,7.7c-6.9,5.2-10,13.9-10.2,28.5c-0.2,13.8-0.5,15.3-4.1,15.7c-0.1,0-0.2,0-0.3,0v736.9
		c1.6,0.1,3.2,0.5,6.4,1.3c5.3,1.3,9.2,1.7,18,1.5c10.2-0.2,12.7,0.2,25.7,3.1c7.9,1.8,16.1,3.3,18.1,3.3c4.6,0,14.3-3,21.1-6.4
		c2.9-1.4,5.5-2.6,5.9-2.6c0.4,0,1.4,1.3,2.3,3.1c2.2,4.7,6.8,7.7,18,11.4c5.6,1.9,14.8,5.7,20.7,8.4c9.7,4.6,11.3,5.7,20.7,14.8
		c19,18.1,35,26.2,52,26.3c11.5,0,18.8-3.9,17.5-9.3c-0.7-2.6-1.9-2.3,15.8-4.7c51.7-7,108.7-27.6,216.8-78.2
		c9.1-4.2,16.7-7.7,17.1-7.7c0.3,0,0.5,5.4,0.5,12v12l3.4,6.8c6.1,12.5,17.2,19,35.5,21.1c3.1,0.3,5.6,1,5.6,1.4s-1.2,2.5-2.6,4.6
		c-6.7,9.8-8.6,21.9-5.7,33.8c4.1,15.8,13.4,30.4,30.8,47.8c18.4,18.4,29.2,25.3,50.7,32.3c20.5,6.7,41,9.2,72.6,8.9
		c24.3-0.3,32.2,1.2,65.3,11.9c18,5.8,33.3,9.9,44.5,11.9c9.8,1.7,36.9,1.4,48.1-0.4c25.6-4.4,36.4-8.3,70.2-24.9
		c39-19.2,43.9-20.7,82-25.2c48.6-5.7,74-11.3,104.1-23c57.6-22.4,104.9-60.5,149.9-120.5c29.7-39.7,58.8-92.1,69.3-124.8
		c4.7-14.7,7.3-44.7,7.3-84c0-44.5-3.2-60.9-14-73.8c-11.7-13.9-16-22.4-16-31.5c0-8.6,2.1-12.3,13.3-23.5
		c14.2-14.1,22.9-26.6,30.6-44.1c13.1-29.6,20.5-64,24.9-114.2c0.5-6.5,1.2-29.3,1.4-50.9C2448.4,1305.2,2426.9,1185.6,2379.3,1080z
		 M1844.2,1555.5c-4,42.8-10.4,67.9-23.8,94.9c-15.4,30.8-31.7,52.6-64.6,86.8c-8.5,8.7-21.2,22.9-28.2,31.2
		c-6.9,8.4-13.1,15.2-13.8,15.2c-0.6,0-1.6-0.6-2.3-1.4c-0.6-0.7-1.7-1.3-2.3-1.3c-2.2,0-1.4-2.7,1.8-6.6
		c11.7-14.4,22.1-37.6,22.1-49.2c0-2.8,1.4-5.1,9.7-15.8c18-23.1,47.5-65.7,60-86.3c9.5-15.8,20.1-39.2,25-55.4
		c8.2-26.6,11.3-54.3,8.4-74.7c-2.7-19.3-11.3-50.5-22.6-81.8c-7.8-21.6-8.1-22.4-7.3-23.1c0.3-0.4,2.8,0.4,5.6,1.8
		c2.7,1.3,6.3,2.4,8,2.4c4.2,0,9-4.3,11-10c1.9-5.3,3.5-5.7,4.7-1.1C1848.7,1431.3,1851.3,1481.7,1844.2,1555.5z"/>
	<path class="st1" d="M1098.7,1302.1c0-3.1,0-5.4-0.1-7.1v18.8h0.1V1302.1z"/>
	<path class="st2" d="M1129.4,1999c-1.4-5.2-8.1-12.3-14.9-15.8c-5-2.5-6.4-2.8-14.9-3.1c-0.3,0-0.6,0-1,0v45.2
		c1.6,0,2.9,0.3,5.3,1.1c5.4,1.6,23.7,2.3,25,0.9C1130.2,2026.1,1130.5,2003.1,1129.4,1999z"/>
	<path id="structure12_label10_PIF" bar:growlevel="0" bar:type="" class="st3" d="M1121.5,1916.1c0.5,1.9,1.8,10.6,2.9,19.3
		c0.5,3.6,0.5,3.8,4.2,4.2c2.1,0.3,7,1.6,11,3c22.8,7.7,44.2,22.5,54.4,37.9c4.1,6,8.1,16.1,8.1,20.1c0,1.4,0.6,1.5,5.8,1.2
		c7.2-0.6,10.8,0.5,17.3,5.7c2.9,2.2,5.7,4,6.4,4c0.6,0,3-3.5,5.1-7.9c2.2-4.3,6.7-12.2,9.9-17.6c3.3-5.4,5.8-10.3,5.6-10.9
		c-0.6-1.7-14.2-13.4-24.1-20.8c-21.9-16.3-46.8-28.3-71.5-34.6c-10.6-2.6-26.6-5.3-32.3-5.3
		C1121.3,1914.1,1121,1914.3,1121.5,1916.1z"/>
	<path id="structure132_label142_cg" bar:growlevel="0" bar:type="" class="st4" d="M1366.6,808.1c-5.4,1.3-8.2,3.1-14.7,9.5
		c-14.9,14.9-22.4,29.8-30.1,59.7c-4.5,17.6-9.2,31-18.5,52.2c-18.2,41.7-22.2,55.1-22.3,74.3c0,9.5,1.5,16.6,4.8,21.8
		c1.6,2.8,2.2,3,6.6,3h4.9l0.5-12c1.2-22.7,5.3-47.1,11.1-64.5c5.4-16.3,31.6-62.2,45.3-79.1c11.4-14.3,36.1-28,64-35.6l10.3-2.8
		l22.9,0.1c30,0.1,58.2,2.5,117.9,10.2c29.9,3.8,44.3,4.9,60.3,4.4c14.6-0.5,19.8-1.5,19.8-4.2c0-1.3-3.2-2.2-19.5-5.3
		c-40.3-7.7-58.6-10.2-186.6-24.8c-50-5.8-69.3-7.8-72-7.6C1370.7,807.3,1368.5,807.6,1366.6,808.1z"/>
	<path id="structure133_label143_dhc" bar:growlevel="0" bar:type="" class="st5" d="M1431.3,835.1c-25.7,3.3-59.9,19.3-73.9,34.3
		c-8.8,9.4-30,43.8-42.8,69.1c-8.6,17.1-14.6,46.4-16.7,81.5l-0.5,9.1l11.5,0.5c55.9,2.9,94-2.9,115.2-17.6
		c6.8-4.7,20-17.8,37.2-37.2c36.4-41.1,54.2-54.7,85.5-65.6c16.8-5.9,40-11.3,61.6-14.4c14.4-2.1,37.4-4.1,46.1-4.1
		c5.6,0,7.5-0.3,7.5-1.2c0-1.3-4.5-1.9-39.6-5.1c-65.7-6.1-101.3-5.8-133.2,1c-8.1,1.8-27.2,7.9-34.4,11.1c-1.9,0.8-3.4,1.3-3.4,1
		c0-0.9,10.2-4.9,21.2-8.5c40.9-13.1,87.2-13.4,192.2-1.4c10.6,1.3,23.8,2.7,29.3,3.1c15.6,1.5,26.9,4.5,57.6,15.5
		c43,15.3,97.4,38.8,138.6,60c52.3,26.9,77.6,44.7,111.7,78.7c37.4,37.4,65.6,75.8,100.9,137.3c49.4,86.2,83.3,186.9,98.6,293.4
		c1.8,12.8,2,17.2,1.9,51.8c0,45.5-2.2,77.3-9.4,143.1c-7.4,66.1-14.7,110-22.9,136.8c-19.1,62.5-52.1,114.6-91.7,144.2
		c-14.7,11-63.5,39.7-86.5,50.8c-10.5,5.1-29.6,13.1-85,35.4c-15.1,6.1-42,16.3-59.8,22.6c-17.8,6.3-39.5,14.2-48.2,17.6
		c-18.5,7.3-39,17.7-39.4,20c-0.4,2.3,1.3,1.9,10.3-2c15.3-6.6,39.3-15.5,70.8-26.1c17.5-5.9,40.8-14.4,52-18.8
		c51.9-20.8,129.5-55.4,153-68.2c25.7-14,45.9-29.2,64.3-48.1c39.7-41,60.9-86.6,78.2-167.3c19.1-89.6,34.6-240.3,32.7-319.1
		c-1.5-60.8-6.8-94.3-24.4-155.3c-28.3-98-64.3-169.3-116.6-230.5c-35.6-41.7-91.3-90-136.1-118c-39.1-24.5-100.5-53.9-136.7-65.3
		c-13.1-4.1-78.8-19.3-133.8-30.7l-21.8-4.6l-3.2,2.2c-8.3,5.6-31.2,5.3-78.9-0.8c-41.8-5.5-74-8.5-106.1-10.3
		C1445.2,834,1440.1,834,1431.3,835.1z"/>
	<path id="structure134_label144_fmj" bar:growlevel="0" bar:type="" class="st6" d="M1431.3,835.1c-25.7,3.3-59.9,19.3-73.9,34.3
		c-8.8,9.4-30,43.8-42.8,69.1c-8.6,17.1-14.6,46.4-16.7,81.5l-0.5,9.1l11.5,0.5c55.9,2.9,94-2.9,115.2-17.6
		c6.8-4.7,20-17.8,37.2-37.2c36.4-41.1,54.2-54.7,85.5-65.6c16.8-5.9,40-11.3,61.6-14.4c14.4-2.1,37.4-4.1,46.1-4.1
		c5.6,0,7.5-0.3,7.5-1.2c0-1.3-4.5-1.9-39.6-5.1c-65.7-6.1-101.3-5.8-133.2,1c-8.1,1.8-27.2,7.9-34.4,11.1c-1.9,0.8-3.4,1.3-3.4,1
		c0-0.9,10.2-4.9,21.2-8.5c40.9-13.1,87.2-13.4,192.2-1.4c10.6,1.3,23.8,2.7,29.3,3.1c15.6,1.5,26.9,4.5,57.6,15.5
		c43,15.3,97.4,38.8,138.6,60c52.3,26.9,77.6,44.7,111.7,78.7c37.4,37.4,65.6,75.8,100.9,137.3c49.4,86.2,83.3,186.9,98.6,293.4
		c1.8,12.8,2,17.2,1.9,51.8c0,45.5-2.2,77.3-9.4,143.1c-7.4,66.1-14.7,110-22.9,136.8c-19.1,62.5-52.1,114.6-91.7,144.2
		c-14.7,11-63.5,39.7-86.5,50.8c-10.5,5.1-29.6,13.1-85,35.4c-15.1,6.1-42,16.3-59.8,22.6c-17.8,6.3-39.5,14.2-48.2,17.6
		c-18.5,7.3-39,17.7-39.4,20c-0.4,2.3,1.3,1.9,10.3-2c15.3-6.6,39.3-15.5,70.8-26.1c17.5-5.9,40.8-14.4,52-18.8
		c51.9-20.8,129.5-55.4,153-68.2c25.7-14,45.9-29.2,64.3-48.1c39.7-41,60.9-86.6,78.2-167.3c19.1-89.6,34.6-240.3,32.7-319.1
		c-1.5-60.8-6.8-94.3-24.4-155.3c-28.3-98-64.3-169.3-116.6-230.5c-35.6-41.7-91.3-90-136.1-118c-39.1-24.5-100.5-53.9-136.7-65.3
		c-13.1-4.1-78.8-19.3-133.8-30.7l-21.8-4.6l-3.2,2.2c-8.3,5.6-31.2,5.3-78.9-0.8c-41.8-5.5-74-8.5-106.1-10.3
		C1445.2,834,1440.1,834,1431.3,835.1z"/>
	<path id="structure135_label146_opt" bar:growlevel="0" bar:type="" class="st7" d="M1450.6,1174.6c0,0.6,2.8,3.7,6.2,6.8l6.2,5.5
		l7.7,1c23.2,2.9,61.1,13.5,77.9,21.8c9.3,4.6,18.1,13,22,20.9l2.7,5.2l27,13.2c40.4,19.9,76.9,40.8,92.3,53.1
		c11,8.7,15.8,16.2,34.2,53.5c12.7,25.5,14.6,28,36.2,48.4c23.5,22.1,46,45,56,56.9c8.9,10.4,11.3,12.3,11.3,8.6
		c0-5.2-15.4-53.6-24.7-77.5c-5.7-14.8-21.4-40.4-37.3-61c-20.9-26.9-65.5-64.6-100.4-84.6c-19.1-11-31.4-16-45.5-18.5
		c-35.4-6.4-36.3-6.8-51.4-20.7c-11.9-10.9-18-14.4-35.9-20.6c-20.2-6.9-31.8-9.2-60.3-11.7C1455.3,1173,1450.6,1173,1450.6,1174.6z
		"/>
	<path id="structure136_label147_dcw" bar:growlevel="0" bar:type="" class="st8" d="M1431.3,835.1c-25.7,3.3-59.9,19.3-73.9,34.3
		c-8.8,9.4-30,43.8-42.8,69.1c-8.6,17.1-14.6,46.4-16.7,81.5l-0.5,9.1l11.5,0.5c55.9,2.9,94-2.9,115.2-17.6
		c6.8-4.7,20-17.8,37.2-37.2c36.4-41.1,54.2-54.7,85.5-65.6c16.8-5.9,40-11.3,61.6-14.4c14.4-2.1,37.4-4.1,46.1-4.1
		c5.6,0,7.5-0.3,7.5-1.2c0-1.3-4.5-1.9-39.6-5.1c-65.7-6.1-101.3-5.8-133.2,1c-8.1,1.8-27.2,7.9-34.4,11.1c-1.9,0.8-3.4,1.3-3.4,1
		c0-0.9,10.2-4.9,21.2-8.5c40.9-13.1,87.2-13.4,192.2-1.4c10.6,1.3,23.8,2.7,29.3,3.1c15.6,1.5,26.9,4.5,57.6,15.5
		c43,15.3,97.4,38.8,138.6,60c52.3,26.9,77.6,44.7,111.7,78.7c37.4,37.4,65.6,75.8,100.9,137.3c49.4,86.2,83.3,186.9,98.6,293.4
		c1.8,12.8,2,17.2,1.9,51.8c0,45.5-2.2,77.3-9.4,143.1c-7.4,66.1-14.7,110-22.9,136.8c-19.1,62.5-52.1,114.6-91.7,144.2
		c-14.7,11-63.5,39.7-86.5,50.8c-10.5,5.1-29.6,13.1-85,35.4c-15.1,6.1-42,16.3-59.8,22.6c-17.8,6.3-39.5,14.2-48.2,17.6
		c-18.5,7.3-39,17.7-39.4,20c-0.4,2.3,1.3,1.9,10.3-2c15.3-6.6,39.3-15.5,70.8-26.1c17.5-5.9,40.8-14.4,52-18.8
		c51.9-20.8,129.5-55.4,153-68.2c25.7-14,45.9-29.2,64.3-48.1c39.7-41,60.9-86.6,78.2-167.3c19.1-89.6,34.6-240.3,32.7-319.1
		c-1.5-60.8-6.8-94.3-24.4-155.3c-28.3-98-64.3-169.3-116.6-230.5c-35.6-41.7-91.3-90-136.1-118c-39.1-24.5-100.5-53.9-136.7-65.3
		c-13.1-4.1-78.8-19.3-133.8-30.7l-21.8-4.6l-3.2,2.2c-8.3,5.6-31.2,5.3-78.9-0.8c-41.8-5.5-74-8.5-106.1-10.3
		C1445.2,834,1440.1,834,1431.3,835.1z"/>
	<path id="structure137_label149_SNCD" bar:growlevel="0" bar:type="" class="st9" d="M1400.2,1852.1c-5.2,3.4-17.5,11-27.5,16.7
		c-21.7,12.6-35.5,21.5-44.5,28.8c-20.2,16.1-49.6,44.3-60.2,57.4c-14.4,17.8-35.2,53.4-35.2,60.1c0,4.7,0.8,6,3.6,6
		c6.2,0,19.1-11.5,77.8-69.4c38.4-37.9,45.7-44.5,64.4-58.4c12.5-9.4,19-15.7,24-23.3c3.7-5.5,8.9-17,9.8-21.5
		C1413.3,1844.3,1411.1,1844.9,1400.2,1852.1z"/>
	<path id="structure138_label150_SNCD" bar:growlevel="0" bar:type="" class="st9" d="M1539.5,1751.6
		c-22.7,12.8-33.7,19.4-53.4,32.6c-20.6,13.7-34.2,24-46.1,35.1c-12.3,11.3-11.3,12.6,5.2,6.6c40-14.3,74.2-33.6,95.8-54.1
		c12.3-11.7,22-22.7,22-25.2c0-1.2-5.3-3.4-7.7-3.4C1554.9,1743.1,1547.8,1746.9,1539.5,1751.6z"/>
	<path id="structure139_label151_InCSh" bar:growlevel="0" bar:type="" class="st10" d="M1187.3,1574.1c-4.2,5.6-6.5,10-7.4,14.3
		c-0.6,3.1,2.4,7.3,7.4,10.2c2,1.2,5.9,4.6,8.6,7.5c15.7,16.4,22,37.9,17,57.5c-7.5,29.2-32,50.4-62.2,53.9l-5,0.6l-1.5,6.7
		c-0.9,3.7-2.6,8.6-3.8,10.9c-1.3,2.3-2.1,4.6-1.8,5.2c0.6,1.6,13.1,2.3,22.8,1.3c19.8-2.2,36.1-10.3,51.7-25.9
		c11.7-11.8,20.3-25.7,24.8-40.1c2.4-8.1,2.2-29.9-0.5-42.8c-5.2-24.8-15.7-44.9-29.2-56.6c-4.9-4.1-12.2-8.2-14.9-8.2
		C1192.2,1568.5,1189.9,1570.6,1187.3,1574.1z"/>
	<path id="structure140_label152_PLi" bar:growlevel="0" bar:type="" class="st11" d="M1578.5,1374.7c-2.8,2.4-2.9,2.6-2,6.6
		c3.2,14.1,3.5,56.4,0.5,83.3c-4.5,41.7-15.6,79.3-32,108.9c-14.8,26.6-28.9,40.7-52.6,52.3c-12.2,5.9-24.4,9.2-37.5,10
		c-11.5,0.6-12.3,1.7-4.1,5.1c8.5,3.5,13,4.4,21.3,4.3c18.6-0.1,40.1-10.4,57.1-27.6c12.2-12.1,24.2-31.2,35.6-56.4
		c13.4-29.5,20.7-56.6,23.4-86.7c2.2-24.1,0.8-92.7-1.9-99.8C1585.3,1371.5,1582.2,1371.6,1578.5,1374.7z"/>
	<path id="structure141_label153_MGM" bar:growlevel="0" bar:type="" class="st12" d="M1625.6,1488.9c-0.3,2.4-1.5,10.7-2.7,18.4
		c-6.1,39-6.5,66.6-1.3,87.3c3.6,14.4,16.4,34.2,22,34.2c2.2,0,23.1-3.2,27.2-4.1c3-0.7,2.4-2.6-1.5-5.8
		c-7.8-6.2-13.5-18.8-15.3-33.8c-2.1-16.7-1-35.3,3.6-65.3c1.4-9.6,2.9-20.8,3.2-24.8l0.5-7.3l-15.2-1.2c-8.3-0.6-16.2-1.3-17.5-1.6
		C1626.4,1484.6,1626.2,1484.8,1625.6,1488.9z"/>
	<path id="structure142_label154_Py" bar:growlevel="0" bar:type="" class="st13" d="M1667,945.3c-7.5,1.6-15.4,5.1-22.9,10.2
		c-22,14.9-41.4,38.5-41.5,50.2c0,3.8,0.1,3.9,3,3.9c5.4,0,9.1-3.4,29.4-27.5c7.5-8.8,19.8-20,26.1-23.7c3.6-2.2,5.2-2.4,13.8-2.8
		c16.7-0.5,58.1,5.8,75.3,11.6c21.3,7.1,51.3,20.7,111.2,50.4c51.9,25.7,70.8,37,85.7,50.8c9.3,8.6,46.6,53.5,72,86.5
		c24.8,32.1,37.6,54.2,52.9,90c9.5,22.4,33.9,82,39,95.4c32.7,86.9,46.4,172.2,41.2,256.5c-8.2,133.7-14.2,164.2-45.7,232.6
		c-4.9,10.5-8.8,19.6-8.8,20.1c0,1.1,6.5,0.3,9-1.1c0.8-0.4,4-5.4,7-11c26.8-49.7,42.2-112.1,48.8-197.8c7.2-95,0-171.9-25.2-266
		c-5.9-21.9-9.3-32.2-17.1-51.8c-14.5-36.3-39.9-88.6-63.2-130c-11.5-20.4-17.6-29.3-32.3-47.6c-30.1-37.3-34.6-42.9-41.9-53.6
		c-25.5-36.7-65.2-62.5-171.7-111.4c-66.1-30.3-63.8-29.6-108.5-33.5C1678,943.6,1675.5,943.6,1667,945.3z"/>
	<path id="structure143_label156_GrDG" bar:growlevel="0" bar:type="" class="st14" d="M1707.5,1136.6c-13,1.2-23.9,3.3-42.8,8.1
		c-19.3,4.9-27.3,6.1-38.4,6.2c-9,0-9,0-3.7,10.2c7.4,14.1,19.2,27.4,28.4,32c1.8,0.9,9.2,3.5,16.3,5.9
		c34.2,11.3,63.3,27.2,89.5,49.1c4.5,3.7,14,12.6,21,19.8c14.2,14.5,15.6,15.1,15.6,7c0-8.1-3.1-13-17-26.7
		c-19.9-19.7-39.7-36-52-42.9c-3.1-1.7-12-5.9-19.6-9.3c-19.3-8.6-26.4-12.4-31.2-17.2c-5.4-5.1-5.8-8.9-1.5-13.8
		c7.6-8.8,27.2-12.8,58.9-12c33.6,0.8,58.8,7.3,90.9,23.3c35.6,17.8,57,37.4,80.8,73.7c14.8,22.5,23.8,41.5,30.9,65.2
		c5.1,16.9,7,20.6,10.8,21c4.5,0.4,5.3-1.4,5.2-11.9c-0.2-15.7-6.9-39.7-16.6-59.5c-12.1-24.7-27.4-43.5-54.4-66.9
		c-42.5-36.6-83-57.4-119.1-61.3C1748.9,1135.5,1719.7,1135.5,1707.5,1136.6z"/>
	<path id="structure146_label159_SLu" bar:growlevel="0" bar:type="" class="st15" d="M1858.3,1265.6c0,0.6,1.8,5.2,4,10.1
		c24.3,54.9,42,136.3,52.4,240.7c1.8,18.1,2.1,55.4,0.4,70.7c-4.3,42.6-15.6,81-32.6,111.6c-16.5,29.6-33.1,49.2-79.5,93.1
		c-11.7,11.1-21.2,20.7-21.2,21.4c0,1.9,2.3,1.3,8.8-1.9c23.3-11.8,52.5-37.4,80.3-70.8c38.7-46.3,53.5-81.5,60.7-143.9
		c5.8-49.5,4.3-79.5-7.1-148.1c-11.2-66.4-19.9-101.1-33.7-133.2c-7.3-16.8-18.4-36.2-27.3-47.5
		C1860.8,1264.3,1858.3,1263.2,1858.3,1265.6z"/>
	<path class="st16" d="M1116.2,1368.3l-0.6-17.6h-16.9h-0.1v83.2c2.5,0,4.9-0.6,6.6-1.7C1113.9,1426.5,1117.6,1404.9,1116.2,1368.3z
		"/>
	<path id="structure152_label165_MA3" bar:growlevel="0" bar:type="" class="st17" d="M1114.6,1623.1c-3.9,7.2-4.5,13.6-3,28.4
		c4.4,40.7,5.6,66.8,3.4,72.9c-1.5,4.3-4.9,7-8.8,7c-4.5,0-3.8,2,1.3,3.9c2.8,1,6.4,3.4,9.6,6.5c2.9,2.7,5.7,4.9,6.2,4.9
		c0.5,0,2.4-1.2,4.1-2.7l3.2-2.6l0.5-11.5c0.6-16.5,5.5-48.8,8.7-58.9c1.5-4.5,4.5-11.7,6.8-16c2.3-4.3,4.1-8.3,4.1-8.8
		c0-0.5-2-1.7-4.4-2.5c-9-3-21.3-13.6-25.8-22.2C1118.7,1617.8,1117.3,1618.3,1114.6,1623.1z"/>
	<path id="structure154_label167_DpG" bar:growlevel="0" bar:type="" class="st18" d="M1306.6,1343c0,1.5,43.6,44.5,56.2,55.3
		c22.1,19,40.1,30.4,51.5,32.8c2.4,0.5,14.8-2.1,53.7-11.3c2.3-0.5,4.2-1.4,4.2-2c0-0.5-3.5-2.3-7.8-3.7c-4.4-1.4-23.7-10.6-43-20.3
		c-19.3-9.7-46.4-22.7-60.3-28.8s-31.1-13.9-38.5-17.3C1308.9,1341.5,1306.6,1340.8,1306.6,1343z"/>
	<path id="structure155_label168_TG" bar:growlevel="0" bar:type="" class="st19" d="M1582.1,1323.2c-2.5,0.8-3.5,2.1-6.5,7.9
		c-16.9,33.8-47.3,64.4-77.8,79c-9.5,4.5-13,5.6-33.8,10.8c-71.6,17.9-116.8,25.8-200.1,34.7c-5.1,0.5-5.3,0.6-4.8,3
		c1.4,6.2,1.6,16.3,0.5,20.9c-2.4,10.4-9.2,21.6-17.8,29.4c-6.9,6.3-17.5,13.7-19.6,13.7c-2.4,0-4.8,4-9.4,15.9
		c-2.6,6.8-6.4,12.4-14.6,22c-2.3,2.8-4.3,5.8-4.3,6.5s2.2,2.5,4.8,4.1c17.5,9.9,29.7,28.7,36.7,56.4c4.8,19.2,5.3,38.3,1.2,50.5
		c-3.9,11.7-12.4,25.5-22.1,35.8c-20.8,22.3-48.1,32-76.4,27.5l-6.3-1.1l-4,3.5c-4.3,3.8-4.8,5.4-2.9,9.2
		c3.4,6.8,10.8,33.5,13.6,49.7c0.7,4.2,1.3,10.7,1.3,14.5v6.8l11.5,5.5c14.5,6.8,26.8,12.2,48,20.5c18.4,7.2,61.2,22,64,22
		c2,0,9.7-6.1,9.7-7.7c0-0.5-4.3-2.1-9.6-3.4c-37.8-9.6-59.4-33.7-61.2-68.1c-1.5-28.8,15.6-59.4,41.9-74.9
		c23.5-13.8,45.3-14.9,79.3-3.9c22.4,7.3,36.2,17.3,42.8,31c1.8,3.7,3.2,7.2,3.2,7.8c0,2.5,2.6,0.8,9.9-6.5c4.2-4.2,9.8-9.2,12.4-11
		c5.8-4,6.3-6.2,1.3-5.1c-1.9,0.4-8.1,0.8-13.8,0.8c-10.3-0.1-10.4-0.1-18.1-3.7c-12.7-6.1-21.3-16.4-26.6-31.8
		c-3.2-9.2-3.3-21.4-0.4-29.1c5.1-13.2,15.4-23.5,32-31.8c12.7-6.4,19.2-8,29.3-7.4c16.7,1,31.1,10.1,41.3,25.8
		c6.2,9.6,9,20.5,7.4,29.2c-2.3,12.7-14,27.7-29.2,37.4c-4.3,2.7-7.7,5.4-7.8,5.9c0,0.7,3.2,1.2,9.3,1.4c8,0.3,10,0.7,15.2,3.1
		c7.2,3.3,14.3,9.7,16.9,15c3.7,7.7,1.8,19.2-5.4,33.4c-6.8,13.3-22.1,34.3-33.3,46c-4.4,4.6-18,26.9-18,29.6
		c0,2.6,2.8,1.4,15.6-7.1c10.2-6.8,14.8-10.6,23.1-19c17.3-17.5,37.8-33.5,68.4-52.8c13.3-8.5,43.1-25.8,51.3-30
		c1.7-0.9,5.4-3.6,8.1-6c6.8-6.2,15.4-11.1,25.6-14.8c12.3-4.4,22.8-6,38.3-6c14-0.1,20.8,0.9,31.8,4.5l6.9,2.3l9.7-9.4
		c5.3-5.1,9.7-9.8,9.9-10.4c0.2-0.7-5-1.2-16.7-1.5c-22.3-0.7-34.3-3.3-43-9.2l-3.2-2.3l-20,4.9c-21.7,5.3-53.9,12.8-69,15.9
		c-5.7,1.2-13.1,2-18.5,2.1c-8.2,0.1-9.4-0.2-14.2-2.4c-13.1-6.5-13.9-20.1-2.8-42.3c4.4-8.6,12-21,18.5-30.2
		c7.1-10,6.8-12.8-0.8-7.9c-16.6,10.4-36.4,15.2-49.7,11.9c-23.9-5.9-44.6-27.4-51.4-53.2c-2.4-9.1-2.6-25.7-0.5-35.2
		c4.8-21.2,16.3-41.8,32.9-58.6c10.3-10.5,28.7-27.3,80.6-73.2c23.8-21.1,47.7-42.5,53.1-47.7c5.5-5.2,12.7-11.7,16-14.4
		c3.3-2.7,6-5.4,6-5.9c0-0.6-1.2-3.6-2.7-6.8c-2.3-4.9-5.3-15.1-7.6-25.4C1587.3,1321.7,1586.7,1321.6,1582.1,1323.2z"/>
	<path id="structure156_label169_EpP" bar:growlevel="0" bar:type="" class="st20" d="M1633.9,1686.3c-5.9,2.4-11.5,4.6-12.4,4.9
		c-3.3,0.9-1.7,3.2,4,5.9c8.1,3.9,16.7,5.4,38.2,6.6l19,1.1l3.5-2.3c1.9-1.3,4.5-2.7,5.9-3.3c3.5-1.5,3.1-3.2-1.9-6.3
		c-10.4-6.8-21.6-10.1-35.7-10.6l-9.9-0.4L1633.9,1686.3z"/>
	<path id="structure157_label170_GrDG" bar:growlevel="0" bar:type="" class="st14" d="M1992.5,1631.1c-1,1.3-2,3-2.3,3.8
		c-0.3,0.8-3.7,12.9-7.6,26.7c-13.3,46.7-20.3,66.3-30,83.7c-20.3,36.4-43.9,61.6-70.5,74.9c-4,2-16.1,6.6-27,10.1
		c-77.8,25.5-99.9,33.6-120.6,44c-12.9,6.6-28.4,16.6-40.1,26c-18.5,14.9-51.3,48.2-68.1,69.1c-8.6,10.6-12.5,13.8-15.4,12.2
		c-2.5-1.3-3.1-3.2-3-11.6c0.1-4.2-0.3-7.4-0.8-7.4c-0.5,0-2.3,1.5-4,3.3l-3.2,3.4l0.4,9.9c0.5,11.3,2.2,18,5.7,22.1
		c2.3,2.6,2.7,2.8,7.1,2.4c3.2-0.3,6.3-1.3,9.9-3.5c7.7-4.6,22.2-19,37.6-37.3c29.3-34.8,53.8-55.6,84.1-70.9
		c12.1-6.1,19.7-9.1,56.9-21.8c63.4-21.7,94.2-35.2,117.5-51.7c9.7-6.8,26.5-23.7,35.2-35.4c13.3-17.9,25.7-41.7,32.8-62.7
		c8.5-25.5,17.1-65.3,17.1-79.2c0-6.3-0.1-6.7-3.1-9.6C1997.3,1628.2,1995,1628,1992.5,1631.1z"/>
	<path id="structure158_label171_LMol" bar:growlevel="0" bar:type="" class="st21" d="M1715.6,1038.9c-12,1.8-30.5,5.7-48.7,10.2
		c-43.7,11-57.5,17.2-74.4,33.3c-12.8,12.2-19.6,23.9-21.5,36.8c-0.6,4.1-0.8,7.6-0.4,7.9c1.1,1.2,8.1-1.5,16.8-6.4
		c26.3-14.7,55.6-23.4,94.5-28c15.8-1.9,65.9-2.7,84.6-1.3c14.8,1,23.4,2.4,36.4,6.1c39.1,11.1,85.4,41.2,126.5,82.2
		c27.5,27.4,42.5,52.3,54.2,90c9.3,30.1,31.3,130.7,41.1,188.1c21.6,125.7,22.1,205.7,1.5,265.1c-5.1,14.9-6.8,19.2-13.1,31.4
		c-10.5,20.8-26.2,43.6-40.9,59.8c-3.8,4.1-6.8,8.1-6.8,8.9c0,1.1,1.1,1.3,7,0.7c29.4-2.6,59.8-15.4,76.5-32.2
		c6.6-6.7,8.1-8.8,12.8-17.8c7.9-15.6,12.7-39.5,15.3-77.4c0.5-7.2,1.2-34.7,1.5-61.2c0.8-76.1-0.5-91.8-16.5-183.2
		c-6.4-36.7-10.4-57-15.8-80.1c-27.1-116.6-77.7-201.2-155.2-259.6c-31.4-23.7-74.7-47.9-112.5-62.8c-24.7-9.8-27-10.4-45-10.6
		C1725.3,1038.7,1717.2,1038.8,1715.6,1038.9z"/>
	<path id="structure159_label172_MZMG" bar:growlevel="0" bar:type="" class="st22" d="M1819.3,1480c-1.3,37.3-8.6,80.9-16.3,97.2
		c-11.3,23.8-30.7,39-63.5,49.6c-21.9,7-39.9,7.1-57.1,0.1l-6.2-2.5l-15.2,2.4c-17.9,2.8-18.5,3.4-8.9,9.3c14.9,9,35,12.3,59.9,9.9
		c48.9-4.8,89.5-29,109.1-65c11.7-21.3,17.7-64.9,13.2-94.1l-1.5-9.4l-5.4-6.8c-3-3.7-5.9-6.7-6.5-6.7
		C1820.2,1464.1,1819.7,1468.8,1819.3,1480z"/>
	<path id="structure160_label173_PaC" bar:growlevel="0" bar:type="" class="st23" d="M1177.2,1272.1c-8.6,3.7-10.8,9.2-7.5,19.1
		c4.7,14.1,17.4,26.3,36.7,35.5c5.8,2.7,6.6,2.9,16.8,2.9c9.7,0,11.3-0.3,15.3-2.3c3.9-1.9,4.5-2.7,4.8-5.1
		c0.6-6.4-8.5-19.7-24.1-35.4c-12.8-12.9-17.9-15.6-29.7-15.9C1183,1270.7,1180.1,1271,1177.2,1272.1z"/>
	<path id="structure161_label174_Zo" bar:growlevel="0" bar:type="" class="st24" d="M1206.7,1125.8c-13.1,0.4-26.5,0.9-29.7,1.2
		c-12.4,1-19.5,5.7-25.7,16.7c-4.3,7.9-7.4,10.7-17.4,15.6c-13.6,6.7-21.2,16-23.7,29.1c-1.3,6.8-0.5,15.8,1.9,20.7
		c2.4,4.9,8.7,10.7,14.7,13.5c5.8,2.6,8.5,2.8,9.2,0.4c0.3-1,2.2-3.1,4.1-4.8c1.9-1.7,3.5-3.5,3.5-4c0-0.5-1.2-1.6-2.6-2.3
		c-7.7-4-12.7-11.7-13.3-20.8c-0.7-9.4,3.7-16.6,16.8-27.4c3.9-3.2,10.3-8.7,14.3-12.3c11.6-10.4,16.2-12.1,39.2-14.1
		c32.3-3,44.1-3.5,70.7-3.5c36.6-0.1,61.7,2.4,117,11.6c46.3,7.6,56.2,10.3,62.3,17.3c2.3,2.6,2.6,3.6,2.1,6.1c-0.7,4,1,4.1,6.3,0.4
		c5.9-4.1,8.5-7.7,8.5-11.7c0-4.2-3-7.1-10.3-9.8c-6.4-2.4-42.4-6.9-64.8-8.2c-16.9-0.9-26.5-2.4-56.3-8.9c-9.2-2-20.9-4.1-26-4.6
		C1297.3,1124.7,1243.7,1124.7,1206.7,1125.8z"/>
	<path id="structure162_label175_MT" bar:growlevel="0" bar:type="" class="st25" d="M1390.7,1841.7c-4,3.2-13.1,9.9-20.4,14.9
		c-7.4,4.9-13.3,9.6-13.3,10.3c0,2.1,4.1,5.8,6.6,5.8c1.1,0,7.1-3,13.2-6.6l11.2-6.5l6.1-10.6
		C1402.9,1833.6,1402.2,1832.4,1390.7,1841.7z"/>
	<path id="structure16_label15_PBP" bar:growlevel="0" bar:type="" class="st26" d="M1140.1,1827.9c0,15.3,11.6,57.2,21.2,76.8
		c6.7,13.6,11.8,19.2,20.9,23c22,9.1,46.8,25.1,64.7,41.7c3.1,2.8,5.9,5.1,6.4,5.1s1.5-1.3,2.4-2.8c8.1-13.7,32.8-40.1,57.5-61.6
		c15.2-13.2,25.9-21.2,38.7-29c5.3-3.3,9.6-6.4,9.6-6.9c-0.1-1.3-5.1-6.8-6.3-6.8c-2,0-24.2,13.6-50.4,30.9
		c-15,10-31.2,20.1-36,22.4c-17.6,8.9-29.3,8.6-33.5-0.8c-2.3-5.2-1.8-9.9,2.1-17.5c2.2-4.3,5.4-8.2,13.9-16.6
		c6.1-6,11.2-11.5,11.2-12.2c0-0.8-5.9-3.2-17.3-6.9c-31.9-10.5-66.9-24.2-89.7-35.3c-7.1-3.4-13.5-6.2-14.1-6.2
		C1140.5,1825,1140.1,1826.1,1140.1,1827.9z"/>
	<path id="structure170_label183_a" bar:growlevel="0" bar:type="" class="st27" d="M1537.7,1149.1c-2.3,2.4-2.7,3.2-2.3,6
		c0.8,5,3.4,7,8.8,7c3.9,0,4.9-0.4,6.8-2.5c3-3.5,2.8-7.3-0.5-10.6C1546.8,1145.3,1541.5,1145.3,1537.7,1149.1z"/>
	<path id="structure172_label185_3n" bar:growlevel="0" bar:type="" class="st28" d="M1251.4,2048.5c-2.3,2.1-4.2,4.1-4.2,4.6
		c0,1.5,8.5,10.7,15.2,16.5c17.7,15.1,35.2,21.7,51.8,19.3c7.3-1.1,9.7-2.9,9.4-6.8c-0.3-2.7-0.4-2.8-7.5-4
		c-19.4-3.2-34.2-11.1-51.1-27.2c-3.7-3.4-7.3-6.3-7.9-6.3C1256.3,2044.7,1253.8,2046.4,1251.4,2048.5z"/>
	<path id="structure173_label186_a" bar:growlevel="0" bar:type="" class="st27" d="M1636.7,1892.5c-5.1,4-6.8,13.1-3.4,18.6
		c1.5,2.6,2.3,3,5.8,3c3.3,0,4.3-0.5,6.3-2.7c4.6-5.6,5-14.5,0.9-18.6C1643.6,1890.3,1639.7,1890.1,1636.7,1892.5z"/>
	<path id="structure174_label187_a" bar:growlevel="0" bar:type="" class="st27" d="M1701.6,1785.6c-4,5.5-10,18.2-14.4,30.9
		c-2,5.9-5.3,14.2-7.2,18.4c-1.9,4.1-3.5,8.1-3.5,8.8c0,3.5,12.2-3.5,17.5-10c4.8-5.8,9.2-15.5,11.3-24.8c1.2-4.7,2.9-10.8,3.9-13.5
		c1.1-2.7,1.9-6.8,2-9c0.1-4.1,0.1-4.1-3.2-4.3C1704.7,1781.7,1704.2,1782.1,1701.6,1785.6z"/>
	<path id="structure17_label16_InC" bar:growlevel="0" bar:type="" class="st29" d="M1184.2,1605.5c0,15.3-5.3,26.9-22.7,49.9
		c-3.4,4.4-7,10.3-8,13.1c-1.4,3.8-7.1,42.1-7.1,47.9c0,1.3,7.6,0.7,14.9-1.1c23-5.9,40.8-21.9,49.1-44.3c2.3-6.1,2.9-9.3,3.2-17.2
		c0.3-5.8,0-11.9-0.7-15.3c-2.7-14.2-12.2-29.8-22.9-37.6C1184.6,1596.8,1184.2,1597.1,1184.2,1605.5z"/>
	<polygon class="st30" points="1098.6,1463.2 1098.6,1558.6 1101.4,1558.6 1101.4,1510.9 1101.4,1463.2 	"/>
	<path id="structure185_label204_fr" bar:growlevel="0" bar:type="" class="st31" d="M1140.2,1998.3c-8,2.5-10,6.5-10,20.3v8.6
		l17.5,3.9c14.2,3.2,18.5,3.7,22.2,3.2l4.6-0.6l-0.5-8.3c-1-14.7-4.9-23.6-11.8-26.7C1157.7,1996.6,1146.1,1996.4,1140.2,1998.3z"/>
	<path id="structure187_label207_mp" bar:growlevel="0" bar:type="" class="st32" d="M1204.1,2002.2c-3.8,1-7.4,3.6-8.8,6.5
		c-1.6,3-1.4,12.4,0.2,17.1c2.6,7.3,6.9,10.4,20.3,14.8c4.2,1.4,12.2,4.6,17.9,7.3c5.7,2.7,10.9,4.9,11.7,4.9
		c1.7,0,18.1-16.1,18.1-17.8c0-0.7-1.4-1.1-4-1.1c-4.7,0-14-2.8-19-5.7c-4.3-2.4-7.3-6.7-8.1-11.4c-1.1-6.5-11.9-14.2-20.6-14.8
		C1209.2,2001.7,1205.8,2001.9,1204.1,2002.2z"/>
	<path id="structure188_label208_PN" bar:growlevel="0" bar:type="" class="st33" d="M1124.8,1950.9c0,6.4-0.3,12.8-0.5,14.2
		l-0.5,2.6l9.9,2.4c11.8,2.9,23.6,7.6,30.2,11.8c2.6,1.6,8.1,5.8,12.3,9.4c12.8,10.7,21,14.6,25,12c1-0.6,1.1-1.7,0.3-5.7
		c-4.3-20.4-24.8-40.1-55-52.5c-5-2-18.6-5.9-20.9-5.9C1125.1,1939.3,1124.8,1944.5,1124.8,1950.9z"/>
	<path id="structure189_label209_scp" bar:growlevel="0" bar:type="" class="st34" d="M1582.1,1323.2c-2.5,0.8-3.5,2.1-6.5,7.9
		c-16.9,33.8-47.3,64.4-77.8,79c-9.5,4.5-13,5.6-33.8,10.8c-71.6,17.9-116.8,25.8-200.1,34.7c-5.1,0.5-5.3,0.6-4.8,3
		c1.4,6.2,1.6,16.3,0.5,20.9c-2.4,10.4-9.2,21.6-17.8,29.4c-6.9,6.3-17.5,13.7-19.6,13.7c-2.4,0-4.8,4-9.4,15.9
		c-2.6,6.8-6.4,12.4-14.6,22c-2.3,2.8-4.3,5.8-4.3,6.5s2.2,2.5,4.8,4.1c17.5,9.9,29.7,28.7,36.7,56.4c4.8,19.2,5.3,38.3,1.2,50.5
		c-3.9,11.7-12.4,25.5-22.1,35.8c-20.8,22.3-48.1,32-76.4,27.5l-6.3-1.1l-4,3.5c-4.3,3.8-4.8,5.4-2.9,9.2
		c3.4,6.8,10.8,33.5,13.6,49.7c0.7,4.2,1.3,10.7,1.3,14.5v6.8l11.5,5.5c14.5,6.8,26.8,12.2,48,20.5c18.4,7.2,61.2,22,64,22
		c2,0,9.7-6.1,9.7-7.7c0-0.5-4.3-2.1-9.6-3.4c-37.8-9.6-59.4-33.7-61.2-68.1c-1.5-28.8,15.6-59.4,41.9-74.9
		c23.5-13.8,45.3-14.9,79.3-3.9c22.4,7.3,36.2,17.3,42.8,31c1.8,3.7,3.2,7.2,3.2,7.8c0,2.5,2.6,0.8,9.9-6.5c4.2-4.2,9.8-9.2,12.4-11
		c5.8-4,6.3-6.2,1.3-5.1c-1.9,0.4-8.1,0.8-13.8,0.8c-10.3-0.1-10.4-0.1-18.1-3.7c-12.7-6.1-21.3-16.4-26.6-31.8
		c-3.2-9.2-3.3-21.4-0.4-29.1c5.1-13.2,15.4-23.5,32-31.8c12.7-6.4,19.2-8,29.3-7.4c16.7,1,31.1,10.1,41.3,25.8
		c6.2,9.6,9,20.5,7.4,29.2c-2.3,12.7-14,27.7-29.2,37.4c-4.3,2.7-7.7,5.4-7.8,5.9c0,0.7,3.2,1.2,9.3,1.4c8,0.3,10,0.7,15.2,3.1
		c7.2,3.3,14.3,9.7,16.9,15c3.7,7.7,1.8,19.2-5.4,33.4c-6.8,13.3-22.1,34.3-33.3,46c-4.4,4.6-18,26.9-18,29.6
		c0,2.6,2.8,1.4,15.6-7.1c10.2-6.8,14.8-10.6,23.1-19c17.3-17.5,37.8-33.5,68.4-52.8c13.3-8.5,43.1-25.8,51.3-30
		c1.7-0.9,5.4-3.6,8.1-6c6.8-6.2,15.4-11.1,25.6-14.8c12.3-4.4,22.8-6,38.3-6c14-0.1,20.8,0.9,31.8,4.5l6.9,2.3l9.7-9.4
		c5.3-5.1,9.7-9.8,9.9-10.4c0.2-0.7-5-1.2-16.7-1.5c-22.3-0.7-34.3-3.3-43-9.2l-3.2-2.3l-20,4.9c-21.7,5.3-53.9,12.8-69,15.9
		c-5.7,1.2-13.1,2-18.5,2.1c-8.2,0.1-9.4-0.2-14.2-2.4c-13.1-6.5-13.9-20.1-2.8-42.3c4.4-8.6,12-21,18.5-30.2
		c7.1-10,6.8-12.8-0.8-7.9c-16.6,10.4-36.4,15.2-49.7,11.9c-23.9-5.9-44.6-27.4-51.4-53.2c-2.4-9.1-2.6-25.7-0.5-35.2
		c4.8-21.2,16.3-41.8,32.9-58.6c10.3-10.5,28.7-27.3,80.6-73.2c23.8-21.1,47.7-42.5,53.1-47.7c5.5-5.2,12.7-11.7,16-14.4
		c3.3-2.7,6-5.4,6-5.9c0-0.6-1.2-3.6-2.7-6.8c-2.3-4.9-5.3-15.1-7.6-25.4C1587.3,1321.7,1586.7,1321.6,1582.1,1323.2z"/>
	<path id="structure18_label17_Dk" bar:growlevel="0" bar:type="" class="st35" d="M1156.5,1566.7c-15.1,4-29.3,14.9-35.4,27.4
		c-2.7,5.6-3.1,7.1-3.1,13.5c0,5.9,0.4,8.1,2.3,12.1c4.3,9.1,12,16.7,21.9,21.6c8.4,4.2,9.5,3.9,15.4-4.3c7-9.8,9.8-16,13.1-29.4
		c2.5-10,3.4-12.2,5.9-14.8c1.6-1.7,3-3.7,3-4.5c0.1-2.4,3.5-9.3,7.3-14.3c2.1-2.6,3.4-5.3,3.2-5.9
		C1189,1564.8,1167.3,1563.9,1156.5,1566.7z"/>
	<path class="st36" d="M1240.4,1410.4c-6.6-13.7-12.6-23.2-22.3-35.5l-6.9-8.5l-15.5-3c-34.4-6.6-67.8-11.8-75.9-11.8h-3l-0.4,28.5
		c-0.4,25.7-0.6,29.3-2.3,35.7c-2.4,8.9-5.2,13.9-9.1,16.5c-2.1,1.4-4.3,2.1-6.4,2.1v29.7h0h2.7v47.3v47.3h-2.7h-0.1v91.3
		c0.6-1.4,1.2-5.4,1.8-11.9c1.3-15.1,4-30.9,4.9-28.9c0.4,0.8,1.4,5.7,2.3,10.8c1.2,6.9,2,9.4,3,9.6c1,0.2,1.6-0.6,2.1-2.4
		c0.3-1.4,1.8-4.3,3.2-6.4c2.5-3.5,2.6-4,1.8-8.4c-1.7-9.3,2.3-19.7,11-29.2c9.4-10,21.7-16.3,36-18.4c6.6-1,8.9-0.9,17.8,0.5
		l10.2,1.6l3.5-4c8.3-9.4,14-18,16.4-24.3c1.3-3.7,3.6-8.8,5-11.4c2.5-4.5,2.6-4.9,1.7-10.3c-0.5-3.1-0.9-8.5-1-11.9
		c0-3.5-0.5-11.1-1.2-16.9l-1.1-10.6l20.3-10.4c11.3-5.8,20.5-10.6,20.7-10.8C1258.4,1455.1,1247.9,1426,1240.4,1410.4z"/>
	<path id="structure194_label214_pc" bar:growlevel="0" bar:type="" class="st37" d="M1236.4,1467.2l-19.4,10.1l0.1,3.2
		c0.1,5.8,2.3,33.7,2.9,37.7c0.9,5.9,2.8,5.8,11.9-1.2c11.3-8.6,18.9-17,23.6-26.4c3.7-7.5,3.9-8.2,4.1-17.4
		c0.4-10.3-0.5-15.8-2.6-16C1256.3,1457.1,1247,1461.6,1236.4,1467.2z"/>
	<path id="structure195_label218_alv" bar:growlevel="0" bar:type="" class="st38" d="M1647.2,891.4c-22.9,1.2-53.8,5.7-75.7,11.1
		c-19.2,4.7-30.9,8.8-44,15.3c-21,10.4-36,23.4-64.7,55.6c-9,10.1-16.9,19.2-17.6,20.2c-2.9,4-19.7,18.2-25.8,21.9
		c-20.7,12.1-56.1,17.1-104.5,14.8c-13.1-0.5-23.9-0.8-24.3-0.4c-2.4,2.4,7.9,8,20.7,11.2c15.8,4,26,4.9,52.5,4.4l23.4-0.5l21.2-4.3
		c40.4-8.1,41.4-8.6,90.4-51.7c64.6-56.7,78.6-64.3,129.6-70.9c15.8-2,57.7-2.3,70.2-0.4c24.5,3.7,46.3,9.5,82.3,22.1
		c68.8,24.1,112.6,44.6,155.1,72.9c39.2,26,76.1,60.9,105.3,100c26.4,35.2,70.7,113,93.9,164.7c20.1,44.8,33.5,86.5,44.1,136.8
		c12.2,58.5,15.2,88.3,13.9,139.9c-0.7,25-1.9,41.5-7.7,103.9c-10.3,113.2-13.2,125.8-43.7,188.5c-18.2,37.4-31.6,57.1-54.7,80.3
		c-24,24-47.2,40.7-83.7,60.2c-38.2,20.3-78.7,37.3-142,59.4c-35.2,12.3-46.7,16.7-63.9,24.4c-21.6,9.5-39.9,20.5-39.9,23.8
		c0,2.3,2.4,1.5,9.7-2.7c14-8.1,29.7-14.4,78.9-32c33.9-12.1,54.4-20.1,109.6-42.7c37.2-15.2,45.2-19.2,82.5-40.9
		c26.5-15.4,32-18.9,42.1-26.6c10.2-7.8,28.7-26.5,37.3-37.4c28.4-36.7,50.8-87.9,60.5-138.2c6.9-36.2,16.6-114,20.7-167.4
		c3-37.5,3.6-51.7,3.6-82.4c0-34.8-0.2-37.1-6.3-74c-15.3-92-46.8-182.8-90.3-260.7c-53.7-96.1-106-156.7-170.4-197.1
		c-30.1-18.9-83.8-45.4-135.7-66.7c-32.1-13.3-68.4-26.3-85.3-30.6C1700,891.6,1673.2,890.1,1647.2,891.4z"/>
	<path id="structure197_label221_PrEW" bar:growlevel="0" bar:type="" class="st39" d="M1102.5,1622.2c-0.5,3.9-1.5,20.8-2.2,37.6
		c-1.2,33.3-0.3,57,2.4,65.9c1.4,4.6,1.5,4.8,4.5,4.8c6.3,0,8.6-5.1,8.6-19.2c0-14.5-4.7-65.8-8.2-89.1c-0.8-5.6-1.3-6.9-2.6-6.9
		C1103.8,1615.3,1103.3,1616.7,1102.5,1622.2z"/>
	<path id="structure19_text3258_p1Rt" bar:growlevel="0" bar:type="" class="st40" d="M1582.1,1323.2c-2.5,0.8-3.5,2.1-6.5,7.9
		c-16.9,33.8-47.3,64.4-77.8,79c-9.5,4.5-13,5.6-33.8,10.8c-71.6,17.9-116.8,25.8-200.1,34.7c-5.1,0.5-5.3,0.6-4.8,3
		c1.4,6.2,1.6,16.3,0.5,20.9c-2.4,10.4-9.2,21.6-17.8,29.4c-6.9,6.3-17.5,13.7-19.6,13.7c-2.4,0-4.8,4-9.4,15.9
		c-2.6,6.8-6.4,12.4-14.6,22c-2.3,2.8-4.3,5.8-4.3,6.5s2.2,2.5,4.8,4.1c17.5,9.9,29.7,28.7,36.7,56.4c4.8,19.2,5.3,38.3,1.2,50.5
		c-3.9,11.7-12.4,25.5-22.1,35.8c-20.8,22.3-48.1,32-76.4,27.5l-6.3-1.1l-4,3.5c-4.3,3.8-4.8,5.4-2.9,9.2
		c3.4,6.8,10.8,33.5,13.6,49.7c0.7,4.2,1.3,10.7,1.3,14.5v6.8l11.5,5.5c14.5,6.8,26.8,12.2,48,20.5c18.4,7.2,61.2,22,64,22
		c2,0,9.7-6.1,9.7-7.7c0-0.5-4.3-2.1-9.6-3.4c-37.8-9.6-59.4-33.7-61.2-68.1c-1.5-28.8,15.6-59.4,41.9-74.9
		c23.5-13.8,45.3-14.9,79.3-3.9c22.4,7.3,36.2,17.3,42.8,31c1.8,3.7,3.2,7.2,3.2,7.8c0,2.5,2.6,0.8,9.9-6.5c4.2-4.2,9.8-9.2,12.4-11
		c5.8-4,6.3-6.2,1.3-5.1c-1.9,0.4-8.1,0.8-13.8,0.8c-10.3-0.1-10.4-0.1-18.1-3.7c-12.7-6.1-21.3-16.4-26.6-31.8
		c-3.2-9.2-3.3-21.4-0.4-29.1c5.1-13.2,15.4-23.5,32-31.8c12.7-6.4,19.2-8,29.3-7.4c16.7,1,31.1,10.1,41.3,25.8
		c6.2,9.6,9,20.5,7.4,29.2c-2.3,12.7-14,27.7-29.2,37.4c-4.3,2.7-7.7,5.4-7.8,5.9c0,0.7,3.2,1.2,9.3,1.4c8,0.3,10,0.7,15.2,3.1
		c7.2,3.3,14.3,9.7,16.9,15c3.7,7.7,1.8,19.2-5.4,33.4c-6.8,13.3-22.1,34.3-33.3,46c-4.4,4.6-18,26.9-18,29.6
		c0,2.6,2.8,1.4,15.6-7.1c10.2-6.8,14.8-10.6,23.1-19c17.3-17.5,37.8-33.5,68.4-52.8c13.3-8.5,43.1-25.8,51.3-30
		c1.7-0.9,5.4-3.6,8.1-6c6.8-6.2,15.4-11.1,25.6-14.8c12.3-4.4,22.8-6,38.3-6c14-0.1,20.8,0.9,31.8,4.5l6.9,2.3l9.7-9.4
		c5.3-5.1,9.7-9.8,9.9-10.4c0.2-0.7-5-1.2-16.7-1.5c-22.3-0.7-34.3-3.3-43-9.2l-3.2-2.3l-20,4.9c-21.7,5.3-53.9,12.8-69,15.9
		c-5.7,1.2-13.1,2-18.5,2.1c-8.2,0.1-9.4-0.2-14.2-2.4c-13.1-6.5-13.9-20.1-2.8-42.3c4.4-8.6,12-21,18.5-30.2
		c7.1-10,6.8-12.8-0.8-7.9c-16.6,10.4-36.4,15.2-49.7,11.9c-23.9-5.9-44.6-27.4-51.4-53.2c-2.4-9.1-2.6-25.7-0.5-35.2
		c4.8-21.2,16.3-41.8,32.9-58.6c10.3-10.5,28.7-27.3,80.6-73.2c23.8-21.1,47.7-42.5,53.1-47.7c5.5-5.2,12.7-11.7,16-14.4
		c3.3-2.7,6-5.4,6-5.9c0-0.6-1.2-3.6-2.7-6.8c-2.3-4.9-5.3-15.1-7.6-25.4C1587.3,1321.7,1586.7,1321.6,1582.1,1323.2z"/>
	<path id="structure200_label225_mlf" bar:growlevel="0" bar:type="" class="st41" d="M1175.2,1594.8c-0.9,1.5-2.7,7.4-4,12.9
		c-2.9,12.2-5.5,18.1-14.3,31c-7.5,10.9-12.7,21.2-16.4,32.1c-3.5,10.5-10.2,59.2-9,65.6c0.7,3.7,1.7,4.4,4.6,3.7
		c5.1-1.3,8.5-13.1,12.2-43.3c3.5-28.4,3.9-29.4,14.8-43.7c16.1-21.1,22.2-36.1,20.9-51.1
		C1182.9,1592.3,1178.8,1588.8,1175.2,1594.8z"/>
	<path id="structure201_label226_mtg" bar:growlevel="0" bar:type="" class="st42" d="M1117.6,1744.8c0,0.5,1,4.5,2.3,8.8
		c3.2,10.8,4.6,20.9,6.3,43c2.2,28.2,4.2,39.2,7.6,39.2c2.5,0,3.8-1.4,5-5.8c2.5-8.1,1.3-21.8-4.1-44.8
		c-4.9-21.6-12.1-40.3-15.6-40.9C1118.2,1744,1117.6,1744.3,1117.6,1744.8z"/>
	<path id="structure202_text3270_OlfCx" bar:growlevel="0" bar:type="" class="st43" d="M2127.4,1916.2c-7.1,9.3-26,28.4-36.5,37.1
		c-9,7.4-25,18.7-33,23.3c-5.1,3-5.8,5.5-1.3,4.7c24-4.3,94.2-7.3,123.5-5.1c26.4,1.9,63.5,6.1,108.7,12.3c3.4,0.4,4.2,0.4,4.2-0.7
		c0-1.3-156.8-78.1-159.4-78.1C2132.9,1909.7,2130.1,1912.6,2127.4,1916.2z"/>
	<path id="structure203_text3275_OlfCx-1" bar:growlevel="0" bar:type="" class="st44" d="M2296.1,2000.2
		c-14.5,20.5-21.7,29.3-31.1,38.4c-30.2,28.9-74.3,46.8-132.2,53.8c-12.9,1.5-53.7,1.4-87.5-0.1c-34.2-1.6-53.4-0.7-73.6,3.5
		c-7.2,1.4-15.8,3-19.1,3.2c-7.5,0.7-8,2.3-1.3,3.7c9.8,2.1,23.8,10.1,29.5,16.9c8.6,10.3,8.1,20.5-1.4,29
		c-10.7,9.4-30.6,16-63.5,21.1c-17,2.6-47.2,2.9-57.3,0.5c-14.3-3.3-28.7-9.4-33.4-14c-4.7-4.8-5.9-7.9-5.9-14.9
		c0-6.3,1.2-10,5.5-16.8c0.9-1.4,1.3-2.7,0.9-3.1c-1.1-1.1-7.6,1-19.3,6c-28.9,12.5-37.4,16-45.3,18.7c-4.7,1.6-9.4,3.3-10.3,3.7
		c-4.1,1.6-16.8,3.8-25.3,4.2c-15.3,0.8-26.6-2.2-39.4-10.5c-5.8-3.8-15.8-13.6-15.8-15.5c0-1.4-3.2-0.7-11.7,2.3
		c-5,1.8-8.6,3.6-8.8,4.4c-0.6,3.3,19.5,17.5,32.4,22.7c22.1,9,36.1,11.3,75,12.2c36.4,0.9,40.7,1.6,73.2,12.2
		c8.3,2.6,17.9,5.7,21.3,6.7c35.2,10.3,74,8.6,109.8-4.9c4.9-1.8,19.2-8.5,32-14.9c25.7-12.7,38.3-18,49.7-20.7c4.1-1,19.4-3.1,34-5
		c50-5.9,74.4-11.4,104.8-23.6c38.7-15.4,69.9-35.8,101.2-66.4c16.5-16.1,43.3-46.9,43.3-49.7c0-0.7-21.8-12-23.2-12
		C2302.7,1991.5,2299.6,1995.5,2296.1,2000.2z"/>
	<path id="structure205_Unlabeled-2409-737_Unlabeled" bar:growlevel="0" bar:type="" class="st45" d="M1635.1,917.4
		c-21.5,2.4-43.6,6.8-48.4,9.4c-1.8,1-7,17.1-8.8,27.2c-3.4,19.6,2.1,42.8,15.2,64.4c2.8,4.7,5.1,6.2,5.1,3.2
		c0-4.5,2.1-12.9,3.2-12.9c0.8,0,1.3-1.1,1.3-3.4c0.1-13.9,29.5-45.4,52.5-56c3.1-1.4,9.2-3.3,13.5-4.1c7.7-1.5,8.7-1.5,32.4,0.5
		c25,2.2,36.7,3.6,45.8,6c6.8,1.7,24,9.1,64.2,27.5c106.6,49,146.3,74.7,171.7,111.4c7.4,10.7,11.9,16.4,41.9,53.6
		c14.8,18.3,20.8,27.2,32.3,47.6c23.3,41.5,48.7,93.8,63.2,130c7.8,19.5,11.3,29.9,17.1,51.8c25.2,94.1,32.4,171,25.2,266
		c-6.6,85-21.8,147.3-48.2,196.7c-2.7,5-4.9,9.7-4.9,10.3c0,1.6,5.8,0.7,19.9-3.2c6.4-1.7,12.6-3.2,13.7-3.2c2.2,0,1.6,0.9,11.9-22
		c13.2-29.6,19.9-56.3,24.8-99.9c1.8-16.1,9.7-102.2,11.9-129.6c0.7-8.8,1.2-29.5,1.2-53.6c0-35.5-0.2-40.7-2.1-55.8
		c-4.3-34.3-14.7-84.3-24.7-118.8c-14.5-50.4-40-107.8-74.3-167.8c-36.5-63.9-55.5-90.6-87.9-123.7c-36.3-37-73.3-63.4-123.8-88.6
		c-31.1-15.5-54.4-25-99.1-40.7c-35.2-12.3-54.5-17.6-78.8-21.6C1689.5,916.2,1650.2,915.6,1635.1,917.4z"/>
	<path class="st45" d="M1570.4,1126.2c-0.1-0.4-0.1-1-0.1-1.7c0.1-13.5,8-28.5,22.2-42.1c8.6-8.3,16-13.4,26-18.1
		c4.1-1.9,7.6-4,7.6-4.5c0-0.5-3.4-4.6-7.7-9c-4.2-4.4-10.2-11.3-13.2-15.2c-3.1-3.9-6-7.1-6.8-7.1s-1.2,1.2-1.2,3.3
		c0,3-0.7,4.1-5.2,8.4c-2.9,2.7-13.1,10.5-22.8,17.5c-27.3,19.4-48.2,28.9-85,37.9c-19.3,4.8-42.1,8.7-62.5,10.9
		c-43.1,4.4-118-4.6-126.8-15.3c-2.3-2.7-4.5-1.6-9.1,4.6c-5,6.8-17.1,26.7-17.1,28.2c0,0.5,5.3,0.9,14.8,0.9
		c19.5,0,30.1,1.2,50,5.5c29.7,6.5,39.3,8,56.3,8.9c8.9,0.5,26,2.2,38,3.6c3.6,0.4,6.8,0.9,9.7,1.3
		C1481.8,1146.8,1526.1,1138,1570.4,1126.2z"/>
	<path id="structure210_Unlabeled-3224-1667_Unlabeled" bar:growlevel="0" bar:type="" class="st45" d="M2379.2,1790.5
		c0.4,32.3,0.2,38.8-1.1,46.2c-3,16.7-10.4,35.5-31.9,79.7c-11.2,22.9-20.5,39.5-33.3,59.1c-5,7.7-9.1,14.4-9.1,14.9
		c0,1.3,20.9,11.9,23.3,11.9c4.6,0,35.4-47.8,52.2-81c20.8-40.9,23.9-51.8,26.2-92.2c1-17.8,1.2-53.7,0.4-64.9l-0.6-7.2l-11.3-2.1
		c-6.2-1.1-12.2-2-13.2-2h-1.9L2379.2,1790.5z"/>
	<path id="structure211_Unlabeled-2872-1688_Unlabeled" bar:growlevel="0" bar:type="" class="st45" d="M2061.7,1773.7
		c-8.6,18.5-28.8,33.9-56.2,43.1c-11.3,3.7-25.6,6.6-34.9,6.8l-7.9,0.2l-6,5.8c-36.3,34.8-89.5,60.8-201.9,98.6
		c-17.5,5.9-34.2,11.9-36.9,13.2c-14.8,7.5-29.5,19.7-47.2,39.1c-10,11-17.2,20.3-38.6,49.5c-6.3,8.6-8.4,10.9-10.1,10.9
		c-1.6,0-2.2,0.5-2.2,1.9c0,1-1.2,3.5-2.6,5.6c-3.6,5.3-6.5,13.6-7,20.4c-1,12,5.2,28.4,16.4,43.5c6.2,8.4,19.9,23.1,21.4,23.1
		c0.5,0,1.3-0.5,1.9-1.3c0.5-0.6,5-2.5,9.8-4.2c4.8-1.6,8.7-3.5,8.7-4c0-0.5-0.5-2.7-1.3-4.7c-5.1-14.4-1.1-28.5,12.7-45.2
		c26.7-32.1,72.6-60.2,121.8-74.3c7.7-2.3,33.2-8.3,56.7-13.5c59.9-13.2,78.4-18.4,102.7-28.4c21.1-8.5,32.8-15.5,65.6-38.6
		c22.6-15.9,32.8-23.9,41.8-32.4c7.6-7.2,18.4-21.1,22.1-28.2c2.3-4.3,2.3-4.3,0.4-5.3c-1-0.5-4-3.1-6.7-5.8
		c-11.3-11.6-18.2-35.8-18.4-65.7c-0.1-9.8-0.4-14.7-1.1-14.7C2064.2,1769.2,2062.9,1771.2,2061.7,1773.7z"/>
	<path id="structure213_Unlabeled-2066-1709_Unlabeled" bar:growlevel="0" bar:type="" class="st45" d="M1331.2,1799.5
		c-4,5.4-8.9,12.2-11.1,15.3c-2.2,3.1-4.5,5.7-5.1,5.7c-0.6,0-1.2,0.8-1.2,1.7c0,1-0.4,2.1-0.9,2.3c-1.5,1-1,4.1,0.7,4.1
		c0.8,0,8.4-1,16.7-2.3c17.7-2.5,22.6-4.4,25.1-9.6c1.1-2.2,1.4-4.1,1-5.4c-0.3-1.2-4-5.3-8.1-9.3c-5.8-5.6-7.6-7.8-7.6-9.7
		C1340.8,1787.9,1338.4,1789.7,1331.2,1799.5z"/>
	<path id="structure216_Unlabeled-1984-1799_Unlabeled" bar:growlevel="0" bar:type="" class="st45" d="M1262.5,1873.2
		c0,0.8-5,6.4-11.2,12.4c-12,11.6-16.2,18.1-17.3,26.1c-1.1,7.5,3.1,13.5,10.6,15.3c4.3,1,15.1-1.9,24.2-6.5
		c9.8-5,57.5-36.1,57.5-37.6c0-0.6-4.3-1.2-12.3-1.5c-6.8-0.3-16-1.2-20.5-2c-11.3-2-26-5.8-26.4-6.8
		C1266.6,1871.2,1262.5,1871.7,1262.5,1873.2z"/>
	<path id="structure218_Unlabeled-1828-1906_Unlabeled" bar:growlevel="0" bar:type="" class="st45" d="M1120.3,1970.9
		c-1.7,1.5-5.5,3.8-8.3,5.1c-4.9,2.3-6.9,4.7-3.9,4.7c0.8,0,3.8,1.2,6.7,2.6c6.7,3.4,13.2,10.6,14.6,15.9c1.1,4.3,2.3,4.9,4.9,2.2
		c4-4.4,20.8-6,28-2.8c6.9,3.2,10.8,12.1,11.8,26.9l0.5,8.5l2.7-0.5c1.5-0.3,6-2.1,10.1-4l7.4-3.3l-0.4-7.3
		c-0.4-5.8-0.1-7.9,1.2-10.6c0.9-1.8,1.4-3.4,1.3-3.5c-0.2-0.1-2.6-1.3-5.3-2.7c-2.8-1.3-8.4-5.2-12.5-8.5
		c-12.6-10.2-19.1-14.4-27.5-17.7c-7.3-2.9-24.4-7.7-26.9-7.7C1123.9,1968.2,1122,1969.4,1120.3,1970.9z"/>
	<path id="structure23_label24_DpWh" bar:growlevel="0" bar:type="" class="st46" d="M1240.9,1311.3c0,0.6,0.9,3.2,2,5.8
		c1.8,4.5,1.8,4.8,0.4,7c-1.9,2.9-6,4.8-13.3,6c-2.9,0.5-5.2,1.3-5.2,2c0,0.5,3.3,2,7.5,3.1c4,1.2,12.4,4.1,18.6,6.5
		c27.9,11.1,39.9,23.2,33.3,34c-4.8,7.7-13.8,7.4-45.1-1.5c-12.2-3.5-22.9-6.4-23.7-6.4c-1.9,0-1.9,2.2,0.1,3.7
		c3,2.5,14.7,19,19.6,27.8c7.1,12.8,16.7,35.8,21.8,52.7c1.2,3.7,2.8,3.7,28.7,0.9c41.7-4.5,65.6-8.1,101-14.9
		c20.4-4,23.6-4.9,23.6-6.2c0-1.1-1.1-2-3-2.6c-4.6-1.5-18.4-10-26.8-16.4c-14.7-11.2-26.7-22.1-53.9-49l-27.5-27.1l-12.6-5.9
		c-6.9-3.3-17.5-8.1-23.4-10.6c-5.9-2.5-13-5.9-15.7-7.3C1241.9,1309.9,1240.9,1309.7,1240.9,1311.3z"/>
	<path class="st47" d="M1240.4,1410.4c-6.6-13.7-12.6-23.2-22.3-35.5l-6.9-8.5l-15.5-3c-34.4-6.6-67.8-11.8-75.9-11.8h-3l-0.4,28.5
		c-0.4,25.7-0.6,29.3-2.3,35.7c-2.4,8.9-5.2,13.9-9.1,16.5c-2.1,1.4-4.3,2.1-6.4,2.1v29.7h0h2.7v47.3v47.3h-2.7h-0.1v91.3
		c0.6-1.4,1.2-5.4,1.8-11.9c1.3-15.1,4-30.9,4.9-28.9c0.4,0.8,1.4,5.7,2.3,10.8c1.2,6.9,2,9.4,3,9.6c1,0.2,1.6-0.6,2.1-2.4
		c0.3-1.4,1.8-4.3,3.2-6.4c2.5-3.5,2.6-4,1.8-8.4c-1.7-9.3,2.3-19.7,11-29.2c9.4-10,21.7-16.3,36-18.4c6.6-1,8.9-0.9,17.8,0.5
		l10.2,1.6l3.5-4c8.3-9.4,14-18,16.4-24.3c1.3-3.7,3.6-8.8,5-11.4c2.5-4.5,2.6-4.9,1.7-10.3c-0.5-3.1-0.9-8.5-1-11.9
		c0-3.5-0.5-11.1-1.2-16.9l-1.1-10.6l20.3-10.4c11.3-5.8,20.5-10.6,20.7-10.8C1258.4,1455.1,1247.9,1426,1240.4,1410.4z"/>
	<path class="st48" d="M1283.6,1363.4c-5.4-10.6-30.8-22.8-66.6-31.9c-31.8-8.3-90.9-16.6-118.4-17.2v36.1c12,0,24.2,0.7,34.3,2.1
		c35.5,4.8,75,12.5,98.5,19.3c26.2,7.6,31.9,8.9,39.2,9.1c7.7,0.1,11.1-1.2,13-5C1285.3,1372.6,1285.3,1366.6,1283.6,1363.4z"/>
	<path id="structure26_label27_InWh" bar:growlevel="0" bar:type="" class="st49" d="M1265.2,1283.2c-21.4,2.6-30.6,7.1-30.6,15
		c0,7.5,5.2,11.5,26.7,20.9c7.8,3.4,23.3,10.5,34.5,15.8c26.6,12.7,29.8,14.1,56.7,26.1c34.7,15.4,48.4,21.9,77,36.4
		c24.5,12.5,36.8,17.8,44.8,19.3c6.1,1.2,28.3-7.5,31.6-12.2c3.2-4.6,1.1-15.4-5.5-27.7c-8.1-15-25.5-38.8-34.6-47.2
		c-23-21.2-73.3-39.2-127.3-45.2C1323.8,1282.8,1275.3,1282,1265.2,1283.2z"/>
	<path id="structure27_label29_Po" bar:growlevel="0" bar:type="" class="st50" d="M1590.8,1363.8c-6.4,5.4-8.6,8.5-6,8.5
		c3.8,0,5.8,28.7,5,71.6c-0.7,37.5-2.6,52.9-9.8,77.9c-6,21.1-18,48.3-30.3,69.2c-6.2,10.4-8.5,13.5-25.3,33.8
		c-9.5,11.5-26.1,35.9-26.1,38.5c0,2.1,0.4,2,10.3-2.4c6.5-2.9,38.3-11.7,72-20c10.3-2.5,36.7-7.6,56.1-10.7c2.1-0.4,3.8-1,3.8-1.5
		c0-0.4-1.9-3.1-4.2-5.7c-13.2-14.8-18.4-33.1-18.4-63.9c0-17.3,1.4-31.1,5.2-54.2c2.3-13.8,2.4-15.7,3.1-65.1
		c0.7-58.4,0.4-56.1,8.7-64.7c2.6-2.7,4.8-5.3,4.8-5.7s-5.6-0.7-12.3-0.7c-11.2,0-12.9-0.3-16.9-2.2c-2.4-1.2-5.9-3.6-7.6-5.4
		c-1.7-1.8-3.6-3.2-4.1-3.2C1598.2,1357.9,1594.6,1360.6,1590.8,1363.8z"/>
	<path id="structure28_label30_SG" bar:growlevel="0" bar:type="" class="st51" d="M1645,1368.6c-6.2,2-11.9,6.8-14.7,12.2
		c-3.2,6.5-3.5,10.3-3.9,57.2l-0.4,46.5l12.3,1.1c6.8,0.5,14.8,1.3,17.9,1.5l5.5,0.5l0.5-7c3.1-36.4,4.8-84.2,3.4-92.9
		c-1.3-7.9-4.4-14.6-8.3-17.3C1654.5,1368.3,1648.6,1367.4,1645,1368.6z"/>
	<path id="structure29_label31_PoT" bar:growlevel="0" bar:type="" class="st52" d="M1590.8,1363.8c-6.4,5.4-8.6,8.5-6,8.5
		c3.8,0,5.8,28.7,5,71.6c-0.7,37.5-2.6,52.9-9.8,77.9c-6,21.1-18,48.3-30.3,69.2c-6.2,10.4-8.5,13.5-25.3,33.8
		c-9.5,11.5-26.1,35.9-26.1,38.5c0,2.1,0.4,2,10.3-2.4c6.5-2.9,38.3-11.7,72-20c10.3-2.5,36.7-7.6,56.1-10.7c2.1-0.4,3.8-1,3.8-1.5
		c0-0.4-1.9-3.1-4.2-5.7c-13.2-14.8-18.4-33.1-18.4-63.9c0-17.3,1.4-31.1,5.2-54.2c2.3-13.8,2.4-15.7,3.1-65.1
		c0.7-58.4,0.4-56.1,8.7-64.7c2.6-2.7,4.8-5.3,4.8-5.7s-5.6-0.7-12.3-0.7c-11.2,0-12.9-0.3-16.9-2.2c-2.4-1.2-5.9-3.6-7.6-5.4
		c-1.7-1.8-3.6-3.2-4.1-3.2C1598.2,1357.9,1594.6,1360.6,1590.8,1363.8z"/>
	<path id="structure2_label0_SNR" bar:growlevel="0" bar:type="" class="st53" d="M1556.8,1755.8c-24.4,29.4-61.9,52.7-117.2,72.5
		c-10.1,3.6-14.1,5.5-16.7,7.8c-1.9,1.7-4.5,4.1-5.8,5.2c-1.3,1.2-3.5,5.2-4.9,8.9c-7,19-14.4,28.7-31.5,41.7
		c-21.2,16-30.3,24.1-60.3,53.7c-62.4,61.6-73.3,71.6-81.5,75.2c-2.3,1.1-3.6,2.2-3.4,3.1c0.4,2.2,10.8,7.1,17.9,8.6
		c5.4,1.1,8.2,1.2,16.5,0.4c5.5-0.6,24.2-1.4,41.5-1.8c34.3-0.7,38.3-1.3,63.9-7.6c44.3-11,132.5-41.2,159.3-54.7
		c23.5-11.9,47.6-34.8,61.7-58.5c2.4-4.2,9.7-15.1,16.2-24.1c13.2-18.5,19.8-28.8,25.1-39.5c8.1-15.9,12.1-33.5,11.6-50.4l-0.3-9.4
		l-8.1-4.9c-18.2-10.9-69.9-35.4-75-35.4C1564.9,1746.7,1561.4,1750.1,1556.8,1755.8z"/>
	<path id="structure30_label32_PIL" bar:growlevel="0" bar:type="" class="st54" d="M1630.1,1631.6c-35.9,6.2-50.3,9.4-97.2,21.9
		c-20.5,5.5-33.5,10.9-37.6,15.8c-3.1,3.8-7.6,15-8.9,22.4c-1.3,7.8-0.2,12.2,4.4,17.4c5.6,6.1,16.9,7.7,33.9,4.8
		c23.1-4.1,87.6-19.7,101.3-24.7c15.3-5.5,20-7.9,21.8-11.7c1.8-3.6,3.4-19.1,3.4-32.6v-8.6l-4.4-3.2c-2.4-1.8-4.9-3.2-5.6-3.2
		C1640.6,1629.9,1635.6,1630.7,1630.1,1631.6z"/>
	<path id="structure31_label33_SNL" bar:growlevel="0" bar:type="" class="st55" d="M1603.1,1720.2c-11.7,1.8-18.4,3.9-28,8.6
		c-9.6,4.7-18.1,11.3-17.3,13.6c0.3,0.7,2.9,2.1,5.8,3c14.8,4.7,57.5,24.8,76.2,35.9c9.3,5.6,10,5.5,9.2-0.5c-0.9-7.4-3-15-4.9-17.6
		c-3.7-5.3-4.8-13.4-2.4-17.9c0.7-1.4,4.9-5.9,9.5-10c4.9-4.5,8.1-8.1,7.9-8.9c-0.4-1.8-10.5-5.1-20-6.4
		C1630.1,1718.5,1612.2,1718.7,1603.1,1720.2z"/>
	<path id="structure32_label34_PP" bar:growlevel="0" bar:type="" class="st56" d="M1811.1,1596.3c-5.3,7.1-19.5,20.1-27.7,25.7
		c-37,24.6-93.6,32.6-125.2,17.6c-3.2-1.4-5.9-2.7-6.2-2.7s-0.7,7.6-0.9,16.8c-0.4,12.6-0.8,18-1.9,21c-0.8,2.3-1.5,4.5-1.5,5
		c0,0.6,2.9,1.3,7.4,1.7c13.9,1.2,28.9,6.3,37.4,12.9c3.8,2.9,4.1,3,8.4,2.1c6.2-1.4,10.4-1.3,16,0.4c6.3,1.8,13,8.2,14.5,13.9
		c0.6,2.3,1.3,4.6,1.4,5.2c0.2,0.7,1.1,1.1,1.9,0.9c3.3-0.6,43-55.6,62.2-86c8.6-13.7,20-35,20-37.4
		C1816.9,1590.6,1814.5,1591.9,1811.1,1596.3z"/>
	<path id="structure33_label35_MGD" bar:growlevel="0" bar:type="" class="st57" d="M1657.6,1368.6c0,0.6,1.3,2.6,2.8,4.5
		c4.9,6.3,6.2,12.4,6.2,31.6c0,15.8-1.8,52.8-3.5,73.3c-0.4,4.9-0.7,9.1-0.6,9.2c0.1,0.1,7.5,0.4,16.4,0.8c26.7,1,58.1-2.6,86.8-9.9
		c15.3-4,50.8-16.8,51.1-18.6s-20.4-24.2-35-37.7c-6.7-6.1-17.1-16.1-23.3-22l-11.3-11l-11.3-4.5c-13.1-5.3-21.5-8-39.6-12.4
		c-10.6-2.6-15.5-3.3-25.8-3.8C1660.7,1367.7,1657.6,1367.8,1657.6,1368.6z"/>
	<path id="structure34_label36_MGV" bar:growlevel="0" bar:type="" class="st58" d="M1801.6,1466.4c-24,9-27.4,10.1-41.5,13.3
		c-28.4,6.6-39.6,7.9-70.3,8.4l-27.5,0.4l-0.6,5.6c-0.4,3-1.6,12-2.8,19.9c-3.7,23.9-4.9,37-4.9,54c0,26.6,3.7,39.2,14.3,49.4
		c12.3,11.7,33.4,16.6,56.1,13c8.2-1.3,27.4-7.8,37-12.6c20.5-10.3,35.3-25.3,42.6-43.1c7.5-18.4,14.8-67.3,14.8-99.2
		c0-14.2,0-14.2-2-14.1C1815.5,1461.6,1808.8,1463.7,1801.6,1466.4z"/>
	<path id="structure35_label37_VS" bar:growlevel="0" bar:type="" class="st59" d="M2139,1840.8c-0.3,0.2-10.1,2.8-21.9,5.8
		c-11.8,3-21.5,5.5-21.6,5.7c-0.1,0.1-2.2,3.7-4.6,7.8c-12.5,21.7-25,33.6-64.3,61.3c-32.8,23.1-44.5,30.1-65.6,38.6
		c-24.3,10-42.8,15.1-102.7,28.3c-23.5,5.2-49.1,11.3-56.7,13.5c-49.1,14.1-95,42.2-121.8,74.3c-15.1,18.3-18.5,33.8-10.8,49.4
		c5.3,11,21.3,22.7,36.3,26.7c7.9,2.1,24.7,1.9,35.4-0.4c4.3-1,8.1-2,8.4-2.2c0.3-0.3-0.4-3.1-1.5-6.2c-1.3-3.7-2.2-8.8-2.4-14.1
		c-0.4-10.2,1.9-18.6,7.2-25.6c1.9-2.5,3.4-5.5,3.4-6.5c0-4.3,12.1-12.6,32.7-22.5c18.4-8.8,34.9-15.3,70.8-27.9
		c64-22.3,98.7-36.6,137.9-56.9c38.9-20.1,65-38.4,88.9-62.4c14.3-14.2,21.5-23,32.5-39.5c7.1-10.6,25.1-44.3,25.1-46.8
		C2143.6,1840.3,2139.8,1839.9,2139,1840.8z"/>
	<path id="structure36_label38_PoDG" bar:growlevel="0" bar:type="" class="st60" d="M1705.8,1153.7c-21.5,2.1-36.5,9-36.5,16.8
		c0,7,8.2,13,34.3,24.5c9.9,4.4,21.5,10.3,25.8,13.1c20.5,13.4,55.7,45.7,61.4,56.3c3.1,5.7,3.8,10.9,2.3,16.1
		c-0.6,1.9,0.2,3.2,5.1,9.1c16.4,19.3,25.7,39,32.9,69.6c1.4,6.4,4.4,18,6.4,25.7c12,45.2,14.6,95.8,8.5,164.3
		c-4.8,54.4-13.6,84.9-34.7,119.7c-14.1,23.5-26.6,39.1-53.6,67.5c-10.3,11-24,26.1-30.3,33.8c-6.4,7.6-12.5,15-13.7,16.4
		c-3,3.4-4.5,7.6-7.6,20.1c-5,20.1-12.7,31.2-25.9,37.4l-6.5,3.1l-9.4,13.5c-5.1,7.4-11.8,16.7-14.9,20.7c-3.1,3.9-5.5,7.6-5.5,8.2
		c0,0.5,0.6,1.5,1.4,2.3c5.8,4.8,5,15.5-1.4,21c-2.6,2.2-3.5,2.4-6.8,1.9l-3.8-0.5l-2,6.1c-3.1,9.4-9.4,21.6-16.3,31.1l-6.3,8.7
		l-0.5,8.3c-0.6,10,0.3,13.3,3.7,13.3c3.9,0,5.4-1.3,15.8-14.1c18.2-22.5,50.3-54.6,69.8-69.8c18.7-14.6,39.1-25.9,65.1-36.2
		c12.4-4.9,54.4-19.1,92.9-31.5c29.7-9.5,41.6-16.5,60.1-34.8c19.4-19.3,37-46.3,47.4-73.1c4.4-11.3,14.8-44,14.8-46.5
		c0-1-0.5-1.7-1.1-1.7c-1.1,0.1-12.6,17.6-24.8,37.6c-15.9,26.2-39,49.9-62.7,64.8c-10,6.2-46.9,24.3-63.9,31.2
		c-16.4,6.8-34.5,12.9-42,14.1c-4.9,0.9-6.5,0.8-8.4-0.2c-2.2-1.2-2.5-0.9-18.2,14.6c-21.5,21.2-29.6,26.3-36.2,22.9
		c-3.5-1.9-4.6-4.5-3.5-8.6c3.6-13.1,23.7-38.1,62.4-77.4c33.1-33.7,44.9-46,55.9-58.5c18.1-20.6,31.9-39.8,37.6-52.4
		c19.5-42.8,23.5-118.7,11.3-214.6c-8.5-66.4-21.2-106.2-50.8-157.9c-17.6-30.8-33-50.2-52-65.8c-13.3-10.9-17.7-15.1-17.7-17.1
		c0-2.3,4.5-6.8,7.7-7.6c1.3-0.4,6.4,0.1,11.2,0.9c35.8,6.4,80.4,34.8,115.8,74.2c9.7,10.7,21.2,25,27.3,33.7
		c4.1,6.1,6.4,7.7,6.4,4.4c0-6.3-15.8-40.7-26.5-57.5c-9.5-15-23.7-33.3-32.8-42.5c-22.7-22.6-55.9-41.2-91.4-51.6
		C1758.3,1153.9,1730.6,1151.4,1705.8,1153.7z"/>
	<path id="structure37_label39_PoDG" bar:growlevel="0" bar:type="" class="st60" d="M1705.8,1153.7c-21.5,2.1-36.5,9-36.5,16.8
		c0,7,8.2,13,34.3,24.5c9.9,4.4,21.5,10.3,25.8,13.1c20.5,13.4,55.7,45.7,61.4,56.3c3.1,5.7,3.8,10.9,2.3,16.1
		c-0.6,1.9,0.2,3.2,5.1,9.1c16.4,19.3,25.7,39,32.9,69.6c1.4,6.4,4.4,18,6.4,25.7c12,45.2,14.6,95.8,8.5,164.3
		c-4.8,54.4-13.6,84.9-34.7,119.7c-14.1,23.5-26.6,39.1-53.6,67.5c-10.3,11-24,26.1-30.3,33.8c-6.4,7.6-12.5,15-13.7,16.4
		c-3,3.4-4.5,7.6-7.6,20.1c-5,20.1-12.7,31.2-25.9,37.4l-6.5,3.1l-9.4,13.5c-5.1,7.4-11.8,16.7-14.9,20.7c-3.1,3.9-5.5,7.6-5.5,8.2
		c0,0.5,0.6,1.5,1.4,2.3c5.8,4.8,5,15.5-1.4,21c-2.6,2.2-3.5,2.4-6.8,1.9l-3.8-0.5l-2,6.1c-3.1,9.4-9.4,21.6-16.3,31.1l-6.3,8.7
		l-0.5,8.3c-0.6,10,0.3,13.3,3.7,13.3c3.9,0,5.4-1.3,15.8-14.1c18.2-22.5,50.3-54.6,69.8-69.8c18.7-14.6,39.1-25.9,65.1-36.2
		c12.4-4.9,54.4-19.1,92.9-31.5c29.7-9.5,41.6-16.5,60.1-34.8c19.4-19.3,37-46.3,47.4-73.1c4.4-11.3,14.8-44,14.8-46.5
		c0-1-0.5-1.7-1.1-1.7c-1.1,0.1-12.6,17.6-24.8,37.6c-15.9,26.2-39,49.9-62.7,64.8c-10,6.2-46.9,24.3-63.9,31.2
		c-16.4,6.8-34.5,12.9-42,14.1c-4.9,0.9-6.5,0.8-8.4-0.2c-2.2-1.2-2.5-0.9-18.2,14.6c-21.5,21.2-29.6,26.3-36.2,22.9
		c-3.5-1.9-4.6-4.5-3.5-8.6c3.6-13.1,23.7-38.1,62.4-77.4c33.1-33.7,44.9-46,55.9-58.5c18.1-20.6,31.9-39.8,37.6-52.4
		c19.5-42.8,23.5-118.7,11.3-214.6c-8.5-66.4-21.2-106.2-50.8-157.9c-17.6-30.8-33-50.2-52-65.8c-13.3-10.9-17.7-15.1-17.7-17.1
		c0-2.3,4.5-6.8,7.7-7.6c1.3-0.4,6.4,0.1,11.2,0.9c35.8,6.4,80.4,34.8,115.8,74.2c9.7,10.7,21.2,25,27.3,33.7
		c4.1,6.1,6.4,7.7,6.4,4.4c0-6.3-15.8-40.7-26.5-57.5c-9.5-15-23.7-33.3-32.8-42.5c-22.7-22.6-55.9-41.2-91.4-51.6
		C1758.3,1153.9,1730.6,1151.4,1705.8,1153.7z"/>
	<path id="structure38_label40_AHiPM" bar:growlevel="0" bar:type="" class="st61" d="M1891.6,2052c-9.6,4-31.7,12-49,17.8
		c-33.1,11.2-62.1,22-73.8,27.4c-4.2,2-8.4,3.2-10.4,3.2c-3.1,0-3.9,0.4-6.2,3.7c-4.8,6.6-6.6,12.8-6.7,22.9
		c0,11.1,2.8,22.1,5.8,22.1c3.5,0,23-7.6,49.5-19.4c17.4-7.6,29.5-11.9,48.1-16.6c25-6.5,55.5-11.3,78.6-12.3
		c9.1-0.4,11.9-0.8,11.9-1.8c0-0.6-0.7-1.2-1.6-1.2c-3.2,0-10.9-4.7-14.9-9c-4.8-5.1-9-13.4-10.5-20.5c-1-4.9-0.7-17.8,0.5-21.6
		c0.5-1.7,0.4-2-1.4-1.9C1910.1,2044.8,1901.2,2048,1891.6,2052z"/>
	<path id="structure39_label41_InG" bar:growlevel="0" bar:type="" class="st1" d="M1218.4,1212.6c-31.9,3-63,11.5-88.9,24.6
		c-21.8,10.9-24.6,14.8-25.2,36.1c-0.4,13.3-1.3,17.1-4.2,17.1c-1.1,0-1.3,2-1.3,11.6v11.5l9.7,0.6c19.2,1.2,57.1,6.2,79.2,10.4
		c5.1,1,10.1,1.8,11.1,1.8c3.4,0,1.6-2.3-5.4-6.9c-9.9-6.6-17-13.9-21.1-21.7c-4.3-8.2-5.3-15.1-2.9-19.6c2.3-4.3,9.5-7.7,17.4-8.2
		c11.8-0.8,21.1,4.3,35.6,19.6c5.1,5.4,9.7,9.8,10.2,9.8c0.4,0,1.3-1.6,2-3.5c1.6-5.6,7-8.6,20.1-11.3c21.5-4.6,69.8-3.5,103.8,2.3
		c28.8,4.9,61,14.8,82.1,25.6c9,4.5,21.6,13.1,27.2,18.7c5.2,5.2,20,24.4,26.5,34.5c9.4,14.7,14.7,28.3,13.6,34.8
		c-0.7,4.6,0.5,4.5,8.7-1.2c22.6-15.6,41.6-36.7,56.1-62.5c6.4-11.3,6.4-12.1,0.7-12.1c-9.5,0-21.3-5.4-33.5-15.2
		c-17.1-13.8-44-45-51.4-59.7c-3-5.9-1.6-5.4-25-10.3c-50.3-10.6-106.4-19.6-154-24.8c-14-1.5-24.5-2-52.2-2.2
		C1238,1212.5,1220.6,1212.5,1218.4,1212.6z"/>
	<path class="st62" d="M1130.8,1833.3c-2-4.9-4-19.5-5.6-41.3c-1.4-19.5-3.7-33.1-7.1-43.2c-3.1-9.1-3.7-9.9-8.8-12.5
		c-3.3-1.7-7.1-2.6-10.7-2.7v111.9c7.7,0,15.5-1.3,23.6-4C1132.2,1838.1,1132.6,1837.9,1130.8,1833.3z"/>
	<path id="structure40_label42_Op" bar:growlevel="0" bar:type="" class="st63" d="M1325,1173.5c-27.7,1.9-89.2,7.3-100.3,8.9
		c-27.4,4-45.4,10.7-70.4,26.3c-12.6,7.8-17.8,12.2-17.8,14.8c0,2.4,3.3,6.6,5.2,6.6c0.8,0,7.7-2.1,15-4.6
		c25.1-8.5,40.3-11.5,66.2-13.5c17.9-1.3,55.1-0.6,76.5,1.4c51.1,4.9,125.3,16.7,175,28.1c5.4,1.3,10,2,10.3,1.8
		c0.3-0.3,0-2.1-0.5-4c-0.6-1.9-1.1-4.5-1.1-5.8c0-1.9-1.1-2.9-6.9-6.1c-20.3-11.1-30.9-21.4-30.9-30.2c0-5.4,2.6-7.9,9.8-9.4
		c3-0.5,5.5-1.4,5.5-2c0-0.4-2.5-3.2-5.6-6.1l-5.7-5.2l-13,0.5c-8.2,0.3-20.7-0.1-33.4-1C1381.1,1172.4,1345,1172.2,1325,1173.5z"/>
	<path id="structure41_label43_SuG" bar:growlevel="0" bar:type="" class="st64" d="M1232.3,1134.8c-28.3,1.8-52.2,4.3-57.4,6.1
		c-7.3,2.5-8.6,3.6-35.1,27.3c-6.6,5.9-11,12.5-11.9,17.9c-0.8,4.8,1,12.4,4,17.3c2.6,4.1,10.4,9.6,13.7,9.6c0.8,0,5.7-2.7,10.8-5.9
		c18.5-11.7,36.6-19,58.1-23.2c12.9-2.5,19.5-3.3,49.2-5.9c78-6.7,98.1-7.4,131.4-4.9c9.9,0.7,25.2,1.3,34,1.3c15.8,0,16,0,18.2-2.3
		c4.8-4.7,2.1-10.3-7-14.8c-10.3-5-70.7-15.5-122.6-21.3C1302.7,1134.3,1251,1133.5,1232.3,1134.8z"/>
	<path id="structure42_label44_RSGa" bar:growlevel="0" bar:type="" class="st65" d="M1224.5,1072.9c-34,23.8-61.8,43.8-61.8,44.4
		c-0.1,0.5,2.9,2.3,6.5,4.1l6.5,3.1l36.4-0.2c20.1-0.1,41-0.4,46.6-0.8l10.3-0.5l1.6-2.9c6.8-11.6,13.7-22.2,17.1-26.5
		c2.3-2.9,4.9-7,5.7-9.4c3.1-7.8,12.5-14.5,31.2-21.7c10.2-4,30.4-10.1,40.8-12.3c2.8-0.6,5.1-1.7,5.1-2.3c0-0.8-4.9-1.3-18.6-1.6
		c-31.6-0.8-54.1-6.2-61.8-14.9c-1-1-2.2-1.9-2.7-1.9C1286.8,1029.5,1258.5,1049,1224.5,1072.9z"/>
	<path id="structure43_label45_LPMC" bar:growlevel="0" bar:type="" class="st66" d="M1573.9,1240.4c0,4.6,10.2,64.4,13.9,81.9
		c6.4,29.8,13,41.4,25.3,45.2c3.5,1.1,8.1,1.1,28,0.4c16.2-0.7,26.9-0.7,33.8-0.1c12.2,1.2,39.8,8,54.2,13.6
		c15.6,6,16.4,5.8,10.7-1.5c-1.8-2.3-8.7-15.1-15.3-28.4c-6.7-13.3-14.3-27.7-17-32c-9.5-15.5-21.1-23.9-69.8-51
		c-15.8-8.8-60.9-31-63.1-31C1574.2,1237.3,1573.9,1238.7,1573.9,1240.4z"/>
	<path id="structure44_label46_PPT" bar:growlevel="0" bar:type="" class="st67" d="M1483,1233c0,1.9,2.4,9.9,4.1,13.8
		c6.3,14.8,38.3,51.9,55.8,65.1c11.9,8.9,25.2,13.7,34.1,12.3c6.3-1,9.5-2.3,9.5-3.9c0-0.8-1.7-10.9-3.8-22.4l-3.8-20.9l-9.9-5.4
		c-17.2-9.3-82.2-39.7-85-39.7C1483.4,1231.9,1483,1232.4,1483,1233z"/>
	<path id="structure45_label47_OT" bar:growlevel="0" bar:type="" class="st68" d="M1450.6,1189c-4.8,1.7-6.7,7-4.4,13
		c2.8,7.3,15.2,17.6,31.1,25.7c5.3,2.8,19.4,9.4,31.3,14.8c11.9,5.3,32,14.9,44.7,21.2c12.8,6.3,23.7,11.5,24.2,11.5
		c0.6,0,0.9-1.1,0.5-3c-0.3-1.5-1.5-10.3-2.9-19.5c-3-20.3-4.8-25-12.7-32.9c-6.8-6.9-17-12.2-34.7-17.9
		C1493.5,1190.5,1461.5,1185.2,1450.6,1189z"/>
	<path id="structure46_label48_DS" bar:growlevel="0" bar:type="" class="st69" d="M1573.4,932.6c-16.9,8-35.9,22.5-73.4,55.5
		c-28.6,25.2-34.2,29.8-44.7,36.8c-12.4,8.3-19.2,10.5-49.7,16.7c-45,8.9-73.8,17.1-92.3,26.1c-21.2,10.4-26.3,20.3-13.3,26.9
		c18.2,9.2,84.8,15.7,121.8,11.9c20.4-2.2,43.3-6.1,62.5-10.9c36.7-9,57.7-18.5,85-37.9c9.6-6.9,19.9-14.8,22.8-17.5
		c5.2-4.9,5.2-5,5.2-10.2c0-4.4-0.5-5.9-2.8-9.3c-4.9-7.3-12.5-24.1-14.8-33.3c-4.3-17.3-3.7-32.4,2.3-49.9c1.5-4.3,2.7-8,2.7-8.4
		C1584.7,927.8,1581,928.9,1573.4,932.6z"/>
	<path id="structure47_label49_LMol" bar:growlevel="0" bar:type="" class="st21" d="M1715.6,1038.9c-12,1.8-30.5,5.7-48.7,10.2
		c-43.7,11-57.5,17.2-74.4,33.3c-12.8,12.2-19.6,23.9-21.5,36.8c-0.6,4.1-0.8,7.6-0.4,7.9c1.1,1.2,8.1-1.5,16.8-6.4
		c26.3-14.7,55.6-23.4,94.5-28c15.8-1.9,65.9-2.7,84.6-1.3c14.8,1,23.4,2.4,36.4,6.1c39.1,11.1,85.4,41.2,126.5,82.2
		c27.5,27.4,42.5,52.3,54.2,90c9.3,30.1,31.3,130.7,41.1,188.1c21.6,125.7,22.1,205.7,1.5,265.1c-5.1,14.9-6.8,19.2-13.1,31.4
		c-10.5,20.8-26.2,43.6-40.9,59.8c-3.8,4.1-6.8,8.1-6.8,8.9c0,1.1,1.1,1.3,7,0.7c29.4-2.6,59.8-15.4,76.5-32.2
		c6.6-6.7,8.1-8.8,12.8-17.8c7.9-15.6,12.7-39.5,15.3-77.4c0.5-7.2,1.2-34.7,1.5-61.2c0.8-76.1-0.5-91.8-16.5-183.2
		c-6.4-36.7-10.4-57-15.8-80.1c-27.1-116.6-77.7-201.2-155.2-259.6c-31.4-23.7-74.7-47.9-112.5-62.8c-24.7-9.8-27-10.4-45-10.6
		C1725.3,1038.7,1717.2,1038.8,1715.6,1038.9z"/>
	<path id="structure48_label50_PMCo" bar:growlevel="0" bar:type="" class="st70" d="M1922.6,2101.4c-28,1.7-76.3,10.6-88.3,16.2
		c-9,4.3-14.8,13.3-14.8,23.3c0.1,11.5,5,17.3,20.1,23.2c14.1,5.7,24.4,7.4,43.3,7.4c31.1,0,66.5-6.6,86-16
		c7.9-3.9,15.5-10.8,17.2-15.8c4.6-14.1-11.7-31.1-35.1-36.4C1941.4,2101,1935.1,2100.6,1922.6,2101.4z"/>
	<path id="structure49_label51_APir" bar:growlevel="0" bar:type="" class="st71" d="M2135.5,1975.8c-3.7,0.2-16,0.7-27.4,1.3
		c-22.8,1.1-42.3,2.9-53.7,5c-5.9,1.1-11.1,3.1-24.1,9.4c-24.5,11.7-51.6,23.8-85,38.3c-28.5,12.2-29.8,12.9-31.3,16
		c-2.3,4.7-2.9,14.2-1.3,22c2.9,13.2,9.4,22.6,19.2,27.4c5.3,2.6,6.9,3,15.5,3.3c8.2,0.3,11.5-0.1,22.2-2.4
		c19.6-4.2,29.3-4.9,61.9-4.3c15.9,0.3,36.9,1,46.5,1.5c52.8,3.1,104.8-6.1,144.4-25.7c26.8-13.1,44.6-27.5,60.8-49.7
		c11.3-15.1,17.9-24.8,17.9-26c0-1.3,0.1-1.3-29.7-5.3C2208,1978.1,2163.5,1974.6,2135.5,1975.8z"/>
	<path id="structure4_label2_RPC" bar:growlevel="0" bar:type="" class="st72" d="M1265.8,1709c-23.8,5.9-44.5,23.3-55.6,47.1
		c-5.5,11.7-7.5,20.7-7.4,33.4c0.2,15,3.2,26,10.4,38c3,5,6,6.5,6,2.8c0-6.6,9.4-17.6,19.4-23c14.4-7.7,47.2-12.5,59.6-8.8
		c7.5,2.3,13.3,9.6,15,18.7c0.4,1.8,1.1,3.3,1.7,3.3c0.5,0,5.2-5.8,10.3-13c11.4-16,20.1-26.4,33.8-40.8c10.1-10.5,10.5-11.2,10-14
		c-1.2-5.9-6.2-14.3-12.3-20.5c-5-4.9-7.9-6.9-16.3-11c-11.1-5.4-27.1-10.6-39.2-12.7C1290.7,1706.6,1274.6,1706.8,1265.8,1709z"/>
	<path id="structure50_label52_DLEnt" bar:growlevel="0" bar:type="" class="st73" d="M2197.9,1722.1
		c-15.2,87.8-31.2,136.6-58.1,176.8c-2.9,4.3-5.2,8.4-5.2,9.1c0,1.3,164.6,81.6,167.4,81.6c1.9,0,15.7-20.6,27.3-40.9
		c13.4-23.4,37.9-75.4,43.9-93.2c5.5-16.4,6.2-22.7,6.2-52.1c0-14.1-0.3-31.4-0.6-38.3l-0.5-12.7l-89.2-16.8
		c-49.1-9.3-89.5-16.8-89.8-16.8C2198.8,1718.8,2198.3,1720.3,2197.9,1722.1z"/>
	<path id="structure51_label53_PRh" bar:growlevel="0" bar:type="" class="st74" d="M2209.9,1636.6c-1.6,14.7-6.5,51.1-9.4,69.8
		c-1,6.8-1.3,10.9-0.7,11.4c0.7,0.6,200.7,38.9,203.2,38.8c2.2,0-1.4-20.4-5-28.1c-1.2-2.6-4.1-7-6.4-9.7
		c-5.4-6.2-10.4-13.4-13.7-19.8c-2.2-4.1-2.5-6-2.6-11.7c0-9.2,1.9-12.4,14.5-25.3c5.9-5.9,10.3-11.2,10.3-12.1
		c0-1.6-6.5-2.6-92.4-14.6c-50.9-7-93.3-12.8-94.3-12.8C2211.6,1622.5,2211.4,1623.6,2209.9,1636.6z"/>
	<path id="structure52_label54_Ect" bar:growlevel="0" bar:type="" class="st75" d="M2219.2,1541.7c0,2.5-2.8,33-5,55.4
		c-1.3,13.1-2.2,23.8-2,24.1c0.6,0.6,188,26.6,189.6,26.3c3.6-0.7,16.6-23.9,22.9-41.4c4.1-11.2,10.6-36.1,10.3-39.2l-0.3-2.3
		l-106.2-12c-58.4-6.5-106.9-11.9-107.7-11.9C2219.9,1540.6,2219.2,1541.1,2219.2,1541.7z"/>
	<path id="structure53_label55_MoDG" bar:growlevel="0" bar:type="" class="st76" d="M1795.3,1205c0.1,0.7,3,3.1,6.6,5.3
		c14.7,9.2,42.8,34.6,57.1,51.8c25.7,30.7,44.2,74.8,56.4,134.6c3.5,17,11.9,65.6,14.8,85.9c6.4,43.9,6.2,86.9-0.5,131
		c-8.3,53.8-25.5,89-66.1,135.4c-27.5,31.6-51.1,51.2-77.2,64.3c-8.5,4.2-11,5.9-10.8,7.1c1,4.5,26.6-3,58.8-16.9
		c17.1-7.5,40.8-19.1,50.3-24.7c28.8-16.9,52.6-41.9,71.8-75.2c5.7-9.8,5.8-10.5,9.8-54.5c3.3-35.9,3.2-122.5-0.1-164.3
		c-2-24.6-10.4-85-16.3-116.6c-4.3-23.4-6-29.7-8.9-33.3c-1.4-1.8-3.2-5.4-4.1-7.9c-0.8-2.6-4.7-9.4-8.5-15
		c-31.9-46.7-75.8-85.3-117.4-103.1C1800.4,1204.3,1795.3,1203,1795.3,1205z"/>
	<path id="structure54_label56_CA3" bar:growlevel="0" bar:type="" class="st77" d="M1705.8,1153.7c-21.5,2.1-36.5,9-36.5,16.8
		c0,7,8.2,13,34.3,24.5c9.9,4.4,21.5,10.3,25.8,13.1c20.5,13.4,55.7,45.7,61.4,56.3c3.1,5.7,3.8,10.9,2.3,16.1
		c-0.6,1.9,0.2,3.2,5.1,9.1c16.4,19.3,25.7,39,32.9,69.6c1.4,6.4,4.4,18,6.4,25.7c12,45.2,14.6,95.8,8.5,164.3
		c-4.8,54.4-13.6,84.9-34.7,119.7c-14.1,23.5-26.6,39.1-53.6,67.5c-10.3,11-24,26.1-30.3,33.8c-6.4,7.6-12.5,15-13.7,16.4
		c-3,3.4-4.5,7.6-7.6,20.1c-5,20.1-12.7,31.2-25.9,37.4l-6.5,3.1l-9.4,13.5c-5.1,7.4-11.8,16.7-14.9,20.7c-3.1,3.9-5.5,7.6-5.5,8.2
		c0,0.5,0.6,1.5,1.4,2.3c5.8,4.8,5,15.5-1.4,21c-2.6,2.2-3.5,2.4-6.8,1.9l-3.8-0.5l-2,6.1c-3.1,9.4-9.4,21.6-16.3,31.1l-6.3,8.7
		l-0.5,8.3c-0.6,10,0.3,13.3,3.7,13.3c3.9,0,5.4-1.3,15.8-14.1c18.2-22.5,50.3-54.6,69.8-69.8c18.7-14.6,39.1-25.9,65.1-36.2
		c12.4-4.9,54.4-19.1,92.9-31.5c29.7-9.5,41.6-16.5,60.1-34.8c19.4-19.3,37-46.3,47.4-73.1c4.4-11.3,14.8-44,14.8-46.5
		c0-1-0.5-1.7-1.1-1.7c-1.1,0.1-12.6,17.6-24.8,37.6c-15.9,26.2-39,49.9-62.7,64.8c-10,6.2-46.9,24.3-63.9,31.2
		c-16.4,6.8-34.5,12.9-42,14.1c-4.9,0.9-6.5,0.8-8.4-0.2c-2.2-1.2-2.5-0.9-18.2,14.6c-21.5,21.2-29.6,26.3-36.2,22.9
		c-3.5-1.9-4.6-4.5-3.5-8.6c3.6-13.1,23.7-38.1,62.4-77.4c33.1-33.7,44.9-46,55.9-58.5c18.1-20.6,31.9-39.8,37.6-52.4
		c19.5-42.8,23.5-118.7,11.3-214.6c-8.5-66.4-21.2-106.2-50.8-157.9c-17.6-30.8-33-50.2-52-65.8c-13.3-10.9-17.7-15.1-17.7-17.1
		c0-2.3,4.5-6.8,7.7-7.6c1.3-0.4,6.4,0.1,11.2,0.9c35.8,6.4,80.4,34.8,115.8,74.2c9.7,10.7,21.2,25,27.3,33.7
		c4.1,6.1,6.4,7.7,6.4,4.4c0-6.3-15.8-40.7-26.5-57.5c-9.5-15-23.7-33.3-32.8-42.5c-22.7-22.6-55.9-41.2-91.4-51.6
		C1758.3,1153.9,1730.6,1151.4,1705.8,1153.7z"/>
	<path id="structure55_label57_CA1" bar:growlevel="0" bar:type="" class="st78" d="M1669.7,956.1c-0.4,0.2-2.4,0.5-4.2,0.9
		c-6.4,1-20.9,14-36.7,32.8c-14.4,17.2-21.2,22.6-25.3,20c-2.8-1.7-3.3-1.2-4.3,4.7c-1.8,10.6-1.6,11.3,5.4,20.4
		c3.5,4.5,10.1,12.1,14.6,16.7l8.3,8.6l8.6-2.8c11.3-3.8,43.4-11.9,60-15.3c37-7.5,51.9-5.8,88.1,9.4c59.5,25,112.6,59.9,149.4,97.9
		c57,58.9,92.8,131.5,115.9,234.8c6,27.1,19.9,105.2,24.4,137.6c5.2,37.8,6.5,71.2,5.1,128.8c-1.4,56-3.5,79.1-9.3,101.6
		c-4.7,18-5.3,34.7-2.1,55.8c3,19.6,8.8,33.8,17.4,42.4c3.4,3.3,6.1,5.3,7,5.1c1.8-0.3,10.6-17.4,20.5-39.7
		c23.5-52.7,29.6-83.4,36.9-184.7c4.1-57.2,4.3-89.1,0.4-125.1c-7.7-73.2-21.2-122.8-56.3-208.3c-29.9-72.9-36.8-87.6-52.5-111.6
		c-18.3-28.3-82.1-107.2-96.7-119.8c-14.7-12.6-36.4-25.4-78.8-46.4c-67.2-33.2-105.4-50.1-123-54.7
		C1723.4,960.2,1675.2,954.2,1669.7,956.1z"/>
	<path id="structure56_label58_Or" bar:growlevel="0" bar:type="" class="st79" d="M1705.8,1153.7c-21.5,2.1-36.5,9-36.5,16.8
		c0,7,8.2,13,34.3,24.5c9.9,4.4,21.5,10.3,25.8,13.1c20.5,13.4,55.7,45.7,61.4,56.3c3.1,5.7,3.8,10.9,2.3,16.1
		c-0.6,1.9,0.2,3.2,5.1,9.1c16.4,19.3,25.7,39,32.9,69.6c1.4,6.4,4.4,18,6.4,25.7c12,45.2,14.6,95.8,8.5,164.3
		c-4.8,54.4-13.6,84.9-34.7,119.7c-14.1,23.5-26.6,39.1-53.6,67.5c-10.3,11-24,26.1-30.3,33.8c-6.4,7.6-12.5,15-13.7,16.4
		c-3,3.4-4.5,7.6-7.6,20.1c-5,20.1-12.7,31.2-25.9,37.4l-6.5,3.1l-9.4,13.5c-5.1,7.4-11.8,16.7-14.9,20.7c-3.1,3.9-5.5,7.6-5.5,8.2
		c0,0.5,0.6,1.5,1.4,2.3c5.8,4.8,5,15.5-1.4,21c-2.6,2.2-3.5,2.4-6.8,1.9l-3.8-0.5l-2,6.1c-3.1,9.4-9.4,21.6-16.3,31.1l-6.3,8.7
		l-0.5,8.3c-0.6,10,0.3,13.3,3.7,13.3c3.9,0,5.4-1.3,15.8-14.1c18.2-22.5,50.3-54.6,69.8-69.8c18.7-14.6,39.1-25.9,65.1-36.2
		c12.4-4.9,54.4-19.1,92.9-31.5c29.7-9.5,41.6-16.5,60.1-34.8c19.4-19.3,37-46.3,47.4-73.1c4.4-11.3,14.8-44,14.8-46.5
		c0-1-0.5-1.7-1.1-1.7c-1.1,0.1-12.6,17.6-24.8,37.6c-15.9,26.2-39,49.9-62.7,64.8c-10,6.2-46.9,24.3-63.9,31.2
		c-16.4,6.8-34.5,12.9-42,14.1c-4.9,0.9-6.5,0.8-8.4-0.2c-2.2-1.2-2.5-0.9-18.2,14.6c-21.5,21.2-29.6,26.3-36.2,22.9
		c-3.5-1.9-4.6-4.5-3.5-8.6c3.6-13.1,23.7-38.1,62.4-77.4c33.1-33.7,44.9-46,55.9-58.5c18.1-20.6,31.9-39.8,37.6-52.4
		c19.5-42.8,23.5-118.7,11.3-214.6c-8.5-66.4-21.2-106.2-50.8-157.9c-17.6-30.8-33-50.2-52-65.8c-13.3-10.9-17.7-15.1-17.7-17.1
		c0-2.3,4.5-6.8,7.7-7.6c1.3-0.4,6.4,0.1,11.2,0.9c35.8,6.4,80.4,34.8,115.8,74.2c9.7,10.7,21.2,25,27.3,33.7
		c4.1,6.1,6.4,7.7,6.4,4.4c0-6.3-15.8-40.7-26.5-57.5c-9.5-15-23.7-33.3-32.8-42.5c-22.7-22.6-55.9-41.2-91.4-51.6
		C1758.3,1153.9,1730.6,1151.4,1705.8,1153.7z"/>
	<path id="structure57_label59_Py" bar:growlevel="0" bar:type="" class="st13" d="M1767.2,1201.2c-5.6,4.4-4.3,7.1,8.1,16.9
		c11.5,9,27.8,25.6,36,36.5c11.1,14.8,22.7,33.9,34.8,57.8c23.6,46.3,34.3,88,41.8,163.2c2.7,27.4,3.6,44.4,3.6,70.4
		c0,35.5-2.4,61.2-7.8,84.2c-9.6,40.9-24.8,62.1-95.2,133.6c-37.1,37.6-51.7,54.1-63.5,71.6c-8.2,12.1-10,18.4-6.3,22
		c2.4,2.4,8,2.3,12.9-0.1c5.8-3,10.5-7,29.4-25.6c9.6-9.5,29.7-28.7,44.5-42.8c35.8-34,49.9-49.3,63.8-69.4
		c29.1-41.9,44.6-93.9,46.3-155.1c0.6-22.8-0.3-38.6-3.9-70.2c-11.9-104.6-29-176-55.2-230.3c-5.3-10.9-5.3-11-17.5-22.8
		c-27.6-26.7-49.1-40.8-63.1-41.5C1770.5,1199.4,1769.3,1199.6,1767.2,1201.2z"/>
	<path id="structure58_label60_Rad" bar:growlevel="0" bar:type="" class="st80" d="M1858.3,1265.6c0,0.6,1.8,5.2,4,10.1
		c24.3,54.9,42,136.3,52.4,240.7c1.8,18.1,2.1,55.4,0.4,70.7c-4.3,42.6-15.6,81-32.6,111.6c-16.5,29.6-33.1,49.2-79.5,93.1
		c-11.7,11.1-21.2,20.7-21.2,21.4c0,1.9,2.3,1.3,8.8-1.9c23.3-11.8,52.5-37.4,80.3-70.8c38.7-46.3,53.5-81.5,60.7-143.9
		c5.8-49.5,4.3-79.5-7.1-148.1c-11.2-66.4-19.9-101.1-33.7-133.2c-7.3-16.8-18.4-36.2-27.3-47.5
		C1860.8,1264.3,1858.3,1263.2,1858.3,1265.6z"/>
	<path id="structure59_label61_Rad" bar:growlevel="0" bar:type="" class="st80" d="M1669.7,956.1c-0.4,0.2-2.4,0.5-4.2,0.9
		c-6.4,1-20.9,14-36.7,32.8c-14.4,17.2-21.2,22.6-25.3,20c-2.8-1.7-3.3-1.2-4.3,4.7c-1.8,10.6-1.6,11.3,5.4,20.4
		c3.5,4.5,10.1,12.1,14.6,16.7l8.3,8.6l8.6-2.8c11.3-3.8,43.4-11.9,60-15.3c37-7.5,51.9-5.8,88.1,9.4c59.5,25,112.6,59.9,149.4,97.9
		c57,58.9,92.8,131.5,115.9,234.8c6,27.1,19.9,105.2,24.4,137.6c5.2,37.8,6.5,71.2,5.1,128.8c-1.4,56-3.5,79.1-9.3,101.6
		c-4.7,18-5.3,34.7-2.1,55.8c3,19.6,8.8,33.8,17.4,42.4c3.4,3.3,6.1,5.3,7,5.1c1.8-0.3,10.6-17.4,20.5-39.7
		c23.5-52.7,29.6-83.4,36.9-184.7c4.1-57.2,4.3-89.1,0.4-125.1c-7.7-73.2-21.2-122.8-56.3-208.3c-29.9-72.9-36.8-87.6-52.5-111.6
		c-18.3-28.3-82.1-107.2-96.7-119.8c-14.7-12.6-36.4-25.4-78.8-46.4c-67.2-33.2-105.4-50.1-123-54.7
		C1723.4,960.2,1675.2,954.2,1669.7,956.1z"/>
	<path id="structure5_label3_RMC" bar:growlevel="0" bar:type="" class="st81" d="M1277.2,1798c-24.5,2.5-42.2,9-50.7,18.5
		c-5,5.9-8.1,14-6.8,18.7c0.9,3.5,13.4,13,23.7,17.8c8.5,4,28.7,10.2,31.4,9.5c2.3-0.5,27.7-24.8,33.3-31.7
		c5.8-7.1,5.8-7.4,5.4-11.5c-1-9.4-7.2-18.2-14.1-20.3C1294.6,1797.6,1285.3,1797.2,1277.2,1798z"/>
	<path id="structure60_label62_TeA" bar:growlevel="0" bar:type="" class="st82" d="M2221.6,1487.7c-0.4,15-1,32.8-1.5,39.4
		c-0.4,6.7-0.5,12.3-0.2,12.7c0.9,0.7,215.4,24.5,215.9,23.8c2.4-2.3,8-51,9-77.8l0.5-15.5h-4.1c-2.3,0-51.8-2.3-110.2-4.9
		c-58.3-2.7-106.6-4.9-107.5-4.9C2222.3,1460.5,2222.1,1463.7,2221.6,1487.7z"/>
	<path id="structure61_label64_AuV" bar:growlevel="0" bar:type="" class="st83" d="M2324.2,1365.9l-107.8,8.6l0.4,2.7
		c2.4,13.5,5,49.1,5,68.1v14.1l3.9,0.4c2.1,0.3,49.3,2.5,105,5c55.7,2.4,104.4,4.8,108.3,5l6.9,0.5v-25c0-23.6-0.9-53.6-2.3-78
		l-0.6-10.5l-5.5,0.1C2434.5,1357.2,2383.5,1361.1,2324.2,1365.9z"/>
	<path id="structure62_label65_Au1" bar:growlevel="0" bar:type="" class="st84" d="M2250.2,1096.5c-57.4,31.4-104.8,57.5-105.2,58
		c-0.5,0.5,1.9,6.6,6.1,15.3c12.5,26.1,22.1,49.2,31.5,76.1c14.6,41.8,28,92,33.4,124.9l0.5,3.4l5.6-0.5c3.1-0.3,51.6-4.1,107.7-8.6
		s104.6-8.3,107.5-8.6l5.3-0.5l-0.6-10.1c-1.5-25.3-6.5-65.7-11.8-95.5c-12.6-70.9-32-130.9-62.3-192c-7.9-15.9-9.8-19.1-11.4-19.1
		C2355.5,1039.4,2307.7,1065.1,2250.2,1096.5z"/>
	<path id="structure63_label66_AuD" bar:growlevel="0" bar:type="" class="st85" d="M2200.7,1019.1c-54.8,40.5-95.5,71.2-95.7,72.1
		c-0.1,0.9,1.7,4.2,4.1,7.5c6.8,9.4,18.8,28.3,26.6,42c4.3,7.6,7.8,12.9,8.6,12.9c2,0,211-114.6,211.5-116c0.6-1.7-1.9-6.6-13-25
		c-18.6-31-41.8-64.3-44.8-64.1C2296.9,948.5,2253.2,980.4,2200.7,1019.1z"/>
	<path id="structure64_label67_MoDG" bar:growlevel="0" bar:type="" class="st76" d="M1709.8,1091.1c-45.4,2.2-81.6,10-110.5,23.8
		c-15.5,7.5-23.4,12.8-25.5,17.5c-4.6,10.2,0.7,24.5,17.5,46.8c15.8,20.9,49.7,51.9,65.6,60c29.6,14.9,64.3,40.9,93.4,70.1
		c16.4,16.4,29.8,34.3,46.6,62.4c6.6,11,10.2,14.8,16.8,17.8c5.8,2.6,9.2,2.3,12.7-1.4c6.8-7.2,7.3-16.9,2.2-37.1
		c-9.1-35.5-20.2-53-55.5-87.7c-21.8-21.3-41.3-35.5-66.9-48.2c-11-5.6-29.2-12.9-41.4-16.7c-11.9-3.7-17.8-6.9-24.8-13.4
		c-6.6-6-16-19.6-20.2-28.7l-2.6-5.8l14-0.5c13.1-0.5,15.4-0.9,32.1-5.2c22.9-5.9,34.2-7.8,53.2-9.1c40.9-2.8,66.4,2.2,100.3,19.4
		c32.4,16.5,73.1,49.2,95.8,77.3c19.9,24.4,35.7,62.9,37,90c0.4,9.2,0.4,10.1-1.5,12.3c-1.1,1.4-2.5,2.5-3.3,2.5
		c-1.1,0-1.3,0.5-0.7,2.4c6.3,24.7,17.6,95.6,21.5,135.3c2.3,23.5,3.4,54.3,3.5,100.4c0.1,45.4-1,67.9-5.2,102.8
		c-1.6,13.2-1.6,12.9-0.2,12.9c1.3,0,11.5-16.2,16.2-25.6c1.7-3.5,4.6-11.8,6.5-18.4c3.5-12.9,4-14.3,6.4-16.6
		c2.2-2.3,4.6-1.7,8.3,1.6l3.3,3.2l-0.1,7.9c-0.1,11.5-5.6,38-13.5,65.9c-13.9,48.4-42.5,90.6-77.2,113.6
		c-24,15.9-48,26.2-115.3,49.4c-36.4,12.5-47.2,16.7-58.5,23c-10,5.4-24.5,15-33.3,22c-11.8,9.5-31.3,29.2-45.4,45.9
		c-21.5,25.6-33.8,36.9-44.5,40.9c-9.8,3.8-14.8-2.7-16.9-21.9c-0.6-5-1.4-9.2-1.8-9.2c-1.6,0-20.4,16.6-20.9,18.4
		c-2.4,9.5-1.2,23.5,2.6,31.1c5.9,11.8,20.2,18.9,37.8,18.9h6.5l8-10.9c21.4-29.2,28.6-38.5,38.6-49.5
		c17.6-19.3,32.3-31.6,47.2-39.1c2.7-1.3,19.3-7.3,36.9-13.2c85.5-28.8,133.4-49.3,168.4-72.4c49.1-32.1,88.5-84.8,105.4-140.5
		c17.5-57.5,16.5-134.2-3.3-252.7c-9-54.2-30.5-154-40.5-188.1c-11.7-40.2-24.9-63.4-52.1-91.3c-52.3-53.7-107.9-85.9-157.6-90.9
		C1765.4,1091.5,1721.2,1090.6,1709.8,1091.1z"/>
	<path id="structure65_label69_V2L" bar:growlevel="0" bar:type="" class="st86" d="M1991.6,833c-29.7,56.8-54.1,104.1-54.1,105.1
		c0,1.2,3.8,4.1,13.1,10.1c50.6,32.7,110.6,87.7,146.7,134.5c3,3.9,6,7,6.8,7c2-0.1,193-141.5,193.3-143.1
		c0.3-1.5-17.4-24-33.8-43.2c-12.3-14.3-52-54.3-66.8-67.1c-35-30.6-67.4-54.9-107.8-81.2c-15.1-9.8-40.9-25.4-42.1-25.4
		C2046.2,729.7,2021.4,776.2,1991.6,833z"/>
	<path id="structure66_label70_V1" bar:growlevel="0" bar:type="" class="st87" d="M1622,588.6c-1.1,6.5-31.1,238.9-31.1,241.2
		c0,2.1,0.4,2.5,3,3c58.4,10.1,189.6,38.4,214.4,46.3c29.2,9.4,79.5,32.3,113.4,51.7c7.4,4.3,13.7,7.7,13.9,7.7
		c0.5,0,109.8-208.3,109.8-209.4c0-1.2-33.4-19.4-59.8-32.7c-86.2-43.2-177.6-76.4-259-94.1c-29.2-6.3-91.4-16.6-100.7-16.6
		C1622.8,585.7,1622.5,586,1622,588.6z"/>
	<path id="structure67_label71_V2ML" bar:growlevel="0" bar:type="" class="st88" d="M1490.4,694c-4.1,65.4-7.5,120.2-7.4,121.9
		c0,3.5-3,2.9,32.8,7c14.9,1.7,37.4,4.4,50.1,6c12.8,1.5,23.4,2.6,23.7,2.3c0.7-0.7,32.4-245.4,31.9-246c-1.3-1.3-62.1-6.8-92.6-8.5
		c-9.6-0.5-20.6-1.2-24.3-1.3l-6.8-0.5L1490.4,694z"/>
	<path id="structure68_label72_V2MM" bar:growlevel="0" bar:type="" class="st89" d="M1401.8,574.9c-18,0.7-46.7,2.5-47.3,3
		c-0.1,0.2,6.4,51.8,14.4,114.9l14.7,114.8l49,5.6c26.9,3.1,49.1,5.5,49.1,5.4c0.4-0.4,15.7-243.1,15.3-243.4
		C1496.3,574.5,1418.8,574.3,1401.8,574.9z"/>
	<path id="structure69_label73_RSD" bar:growlevel="0" bar:type="" class="st90" d="M1333.6,579.9c-21.3,2.5-31.8,4.2-47.7,7.6
		c-46.1,10.1-87.3,29.7-120.2,57c-9.6,8-22.9,21.4-22.9,23s194.4,163.9,196.4,163.9c0.7,0,2-1.3,2.9-2.8
		c2.7-4.5,15.9-17.4,19.9-19.3c2.6-1.3,6-1.9,12.5-2.1l8.8-0.4l-0.4-2.3c-0.2-1.4-6.8-52.9-14.7-114.8
		c-12-94.5-14.5-112.2-15.7-112.1C1351.8,577.7,1343.2,578.7,1333.6,579.9z"/>
	<path id="structure70_label74_RSGc" bar:growlevel="0" bar:type="" class="st91" d="M1135,674.5c-18.7,21.4-27.7,35.1-32.8,50.2
		l-2.2,6.3l-0.3,99.6l-0.3,99.7h101.7h101.6l4.3-10.2c6.5-15.2,10.1-25.9,13.5-39.5c4.2-17,7.8-27.5,13.1-38.1
		c2.4-4.9,4.4-9.4,4.4-10c0-1.1-195.6-164.2-196.9-164.2C1140.6,668.5,1137.8,671.2,1135,674.5z"/>
	<path id="structure71_label75_RSGb" bar:growlevel="0" bar:type="" class="st92" d="M1161.4,931l-62,0.3l0.4,40.3
		c0.3,31.7,0.7,42,1.8,48.8c6.2,36,18.2,60.9,38.8,80.8c8.9,8.5,19,15.8,21.2,15.2c1.2-0.4,122.4-85.1,124.6-87
		c0.4-0.4-0.4-3-1.6-5.8c-8-17-4.6-40.4,11.5-77.8c3.2-7.7,5.9-14.2,5.9-14.7c0-0.5-16.3-0.7-39.3-0.6
		C1241.1,930.8,1195.4,930.9,1161.4,931z"/>
	<path id="structure7_label5_PaR" bar:growlevel="0" bar:type="" class="st93" d="M1385.7,1627.9c-10.1,1.6-24.6,8.4-34,16
		c-13.1,10.8-19,21.8-19,36.1c0,13.6,5.4,26.8,15,37.1c14.4,15.2,35.8,18.4,56.7,8.6c9.6-4.6,17-9.9,25.1-18.1
		c16.4-16.5,19-32.3,8.6-52.1c-4.1-7.9-14-18-21.3-21.9C1407.1,1628.5,1395.7,1626.4,1385.7,1627.9z"/>
	<path id="structure81_label86_ml" bar:growlevel="0" bar:type="" class="st94" d="M1406.6,1728.3c-10.8,2.9-14.7,5.8-36.5,27.8
		c-23.6,23.6-28.3,29.3-29,34.7c-0.5,3.7-0.4,3.8,7.1,11.1c4.2,4,8,8.3,8.3,9.4c0.5,1.3,0.1,3.2-1,5.4c-2.4,5-7.5,7.1-22.4,9.2
		c-24.3,3.5-22.9,3-29,9.7c-3,3.3-12.5,12.5-21.2,20.4c-8.7,7.9-15.8,15-15.8,15.8c-0.2,3.9,38.9,10.6,55.6,9.5
		c7.6-0.4,7.8-0.5,19-6.9c22.8-13.2,50.8-33,62.9-44.5c13.7-13,31.9-37.5,39.3-53.1c9.3-19.3,8.5-31-2.5-40.4
		C1431.8,1728.2,1418.5,1725.1,1406.6,1728.3z"/>
	<path id="structure83_label91_cp" bar:growlevel="0" bar:type="" class="st95" d="M1697.7,1697.3c-8,1.9-13.4,6-34.4,26.1
		c-12.4,12.1-21.1,21.1-21.7,22.8c-1.6,4.1-0.5,11,2.5,16.4c4.2,7.6,5.6,15.1,5.7,31.4c0.1,32-6.8,49.7-34.8,89
		c-6,8.5-14.1,20.4-18,26.6c-9,14.2-14.8,21.6-25.7,32.4c-9.5,9.4-20.2,17.7-29.6,23.3c-23,13.4-112.8,45.1-165.1,58.2
		c-28.4,7.1-33.8,7.8-63.3,8.1c-14.3,0.1-31,0.6-36.9,1.2l-10.8,1.1l-3.8,3.7c-2.2,2.1-3.9,4.5-3.9,5.3c0,3.1,20.8,20.7,30.7,25.9
		c7,3.9,20.5,8.2,27.2,8.7c5.5,0.5,23.8-1.5,41.1-4.7c27.2-4.9,60.3-15.2,99-30.8c42-16.9,117.2-51.3,125.1-57.2
		c8.5-6.4,25.1-23.1,32-32.2c7.4-9.8,14.8-23.7,17.6-33.4c1.6-5.4,1.8-7.1,1-10.6c-1.7-7.3,1.1-14.1,6.9-17.2
		c3.4-1.7,9.9-9.5,20.2-24.5c4.1-5.9,9.7-13.9,12.6-17.7c6-8.1,8.5-13.3,15-31.4c7.1-19.6,10.6-26.2,21.5-40.8
		c16.6-22.1,23.3-37.2,24.2-53.8c0.6-13.9-2.7-20.6-12.4-25C1715.3,1696.2,1704.4,1695.8,1697.7,1697.3z"/>
	<path id="structure87_label94_APT" bar:growlevel="0" bar:type="" class="st96" d="M1572,1380.9c-0.6,0.8-20,18.1-43,38.4
		c-85.6,75.9-93.8,83.7-105.2,101.9c-15.8,25.1-19.6,55.1-10.4,79.6c4.3,11.4,14.1,24.6,24,31.9l3.3,2.5l13.3-0.4
		c19.4-0.6,32.4-4.6,48.8-14.8c11.5-7.3,17.5-12.2,24.3-20.4c27.3-32.4,45.8-85.5,50.4-144.4c1.7-22.4,0.9-66.9-1.4-74.2
		C1575.4,1379.1,1573.6,1379.1,1572,1380.9z"/>
	<path class="st97" d="M1167.6,1916.2c-9.9-13.9-21.9-48.3-26.7-77c-0.6-4-1.4-6-2.3-6c-0.7,0-1.3,0.4-1.3,0.9
		c0,1.3-11.3,6.8-18.9,9.2c-5.8,1.8-8.5,2.1-19.9,2.1v67.7c26.7-0.1,37.7,1.1,57.3,6.1c6.9,1.7,13,3.2,13.7,3.2
		C1171.4,1922.2,1170.9,1920.7,1167.6,1916.2z"/>
	<path class="st98" d="M1121.8,1919.1l-1.1-5.4l-21.9-0.3l-0.2,0v65.9c1.7,0.1,3.2,0,4.7-0.3c6.1-1.3,13.7-5,17.4-8.5
		c2.9-2.7,3.1-3.4,3.7-10.5C1125,1951.5,1123.5,1927.5,1121.8,1919.1z"/>
	<text id="label30" bar:growlevel="0" transform="matrix(1 0 0 1 1635.8623 1439.2188)" class="st99 st100 st101">SG</text>
	<text id="label31" bar:growlevel="0" transform="matrix(1 0 0 1 1561.9697 1602.1504)" class="st99 st100 st101">PoT</text>
	<text id="label32" bar:growlevel="0" transform="matrix(1 0 0 1 1563.9209 1680.5117)" class="st99 st100 st101">PIL</text>
	<text id="label33" bar:growlevel="0" transform="matrix(1 0 0 1 1588.7002 1749.4199)" class="st99 st100 st101">SNL</text>
	<text id="label34" bar:growlevel="0" transform="matrix(1 0 0 1 1696.5215 1679.4297)" class="st99 st100 st101">PP</text>
	<text id="label35" bar:growlevel="0" transform="matrix(1 0 0 1 1690.5508 1450.709)" class="st99 st100 st101">MGD</text>
	<text id="label36" bar:growlevel="0" transform="matrix(1 0 0 1 1703.9014 1565.6113)" class="st99 st100 st101">MGV</text>
	<text id="label37" bar:growlevel="0" transform="matrix(1 0 0 1 1903.0703 2008.4688)" class="st99 st100 st101">VS</text>
	<text id="label38" bar:growlevel="0" transform="matrix(1 0 0 1 1675.2813 1878.959)" class="st99 st100 st101">PoDG</text>
	<text id="label39" bar:growlevel="0" transform="matrix(1 0 0 1 1753.041 1195.6211)" class="st99 st100 st101">PoDG</text>
	<text id="label143" bar:growlevel="0" transform="matrix(1 0 0 1 1370.9014 954.541)" class="st99 st100 st101">dhc</text>
	<text id="label142" bar:growlevel="0" transform="matrix(1 0 0 1 1362.4111 836.5215)" class="st99 st100 st101">cg</text>
	<text id="label147" bar:growlevel="0" transform="matrix(1 0 0 1 2083.3721 1144.6211)" class="st99 st100 st101">dcw</text>
	<text id="label146" bar:growlevel="0" transform="matrix(1 0 0 1 1752.8008 1386.9297)" class="st99 st100 st101">opt</text>
	<text id="label145" bar:growlevel="0" transform="matrix(1 0 0 1 1628.3301 1263.6895)" class="st99 st100 st101">bsc</text>
	<text id="label144" bar:growlevel="0" transform="matrix(1 0 0 1 1384.1318 890.1602)" class="st99 st100 st101">fmj</text>
	<text id="label149" bar:growlevel="0" transform="matrix(1 0 0 1 1300.5215 1952.0703)" class="st99 st100 st101">SNCD</text>
	<text id="label148" bar:growlevel="0" transform="matrix(1 0 0 1 2032.791 2175.541)" class="st99 st100 st101">af</text>
	<text id="label8" bar:growlevel="0" transform="matrix(1 0 0 1 1101.3818 2011.3047)" class="st99 st100 st101">IP</text>
	<text id="label207" bar:growlevel="0" transform="matrix(1 0 0 1 1220.9189 2032.5332)" class="st99 st100 st101">mp</text>
	<text id="label0" bar:growlevel="0" transform="matrix(1 0 0 1 1447.5215 1922.8203)" class="st99 st100 st101">SNR</text>
	<text id="label1" bar:growlevel="0" transform="matrix(1 0 0 1 1112.9248 1818.584)" class="st99 st100 st101">RLi</text>
	<text id="label2" bar:growlevel="0" transform="matrix(1 0 0 1 1251.1416 1773.4492)" class="st99 st100 st101">RPC</text>
	<text id="label3" bar:growlevel="0" transform="matrix(1 0 0 1 1243.3662 1837.1875)" class="st99 st100 st101">RMC</text>
	<text id="label5" bar:growlevel="0" transform="matrix(1 0 0 1 1367.4502 1693.0508)" class="st99 st100 st101">PaR</text>
	<text id="label6" bar:growlevel="0" transform="matrix(1 0 0 1 1101.3818 1890.7813)" class="st99 st100 st101">vtgx</text>
	<text id="label7" bar:growlevel="0" transform="matrix(1 0 0 1 1103.2627 1952.3574)" class="st99 st100 st101">IF</text>
	<text id="text3258" bar:growlevel="0" transform="matrix(1 0 0 1 1310.0313 1548.3906)" class="st99 st100 st101">p1Rt</text>
	<text id="Unlabeled-2872-1688" bar:growlevel="0" transform="matrix(1 0 0 1 1985.1807 1879.9063)" class="st99 st100 st101">Cx</text>
	<text id="label86" bar:growlevel="0" transform="matrix(1 0 0 1 1368.0508 1806.9004)" class="st99 st100 st101">ml</text>
	<text id="Unlabeled-2616-1248" bar:growlevel="0" transform="matrix(1 0 0 1 1788.9795 1672.0059)" class="st99 st100 st101">vBrain</text>
	<text id="label174" bar:growlevel="0" transform="matrix(1 0 0 1 1162.6123 1138.9199)" class="st99 st100 st101">Zo</text>
	<text id="label175" bar:growlevel="0" transform="matrix(1 0 0 1 1382.6611 1855.9785)" class="st99 st100 st101">MT</text>
	<text id="label172" bar:growlevel="0" transform="matrix(1 0 0 1 1716.71 1639.7715)" class="st99 st100 st101">MZMG</text>
	<text id="label173" bar:growlevel="0" transform="matrix(1 0 0 1 1193.6025 1285.6797)" class="st99 st100 st101">PaC</text>
	<text id="label170" bar:growlevel="0" transform="matrix(1 0 0 1 1807.7588 1857.0313)" class="st99 st100 st101">GrDG</text>
	<text id="label171" bar:growlevel="0" transform="matrix(1 0 0 1 2015.6318 1799.5801)" class="st99 st100 st101">LMol</text>
	<text id="label195" bar:growlevel="0" transform="matrix(1 0 0 1 1100.002 1506.0156)" class="st99 st100 st101">Aq</text>
	<text id="label214" bar:growlevel="0" transform="matrix(1 0 0 1 1230.8066 1491.4785)" class="st99 st100 st101">pc</text>
	<text id="label218" bar:growlevel="0" transform="matrix(1 0 0 1 2113.0908 1219.041)" class="st99 st100 st101">alv</text>
	<text id="label10" bar:growlevel="0" transform="matrix(1 0 0 1 1218.3057 1984.6309)" class="st99 st100 st101">PIF</text>
	<text id="label16" bar:growlevel="0" transform="matrix(1 0 0 1 1188.3613 1638.959)" class="st99 st100 st101">InC</text>
	<text id="label17" bar:growlevel="0" transform="matrix(1 0 0 1 1151.8955 1589.8027)" class="st99 st100 st101">Dk</text>
	<text id="label15" bar:growlevel="0" transform="matrix(1 0 0 1 1174.7295 1900.9199)" class="st99 st100 st101">PBP</text>
	<text id="label169" bar:growlevel="0" transform="matrix(1 0 0 1 1677.2588 1694.4297)" class="st99 st100 st101">EpP</text>
	<text id="label91" bar:growlevel="0" transform="matrix(1 0 0 1 1448.1807 2024.1309)" class="st99 st100 st101">cp</text>
	<text id="label94" bar:growlevel="0" transform="matrix(1 0 0 1 1449.5811 1538.6992)" class="st99 st100 st101">APT</text>
	<text id="label160" bar:growlevel="0" transform="matrix(1 0 0 1 1105.9492 1394.3105)" class="st99 st100 st101">PlPAG</text>
	<text id="label165" bar:growlevel="0" transform="matrix(1 0 0 1 1118.4912 1646.166)" class="st99 st100 st101">MA3</text>
	<text id="label167" bar:growlevel="0" transform="matrix(1 0 0 1 1426.3721 1413.6602)" class="st99 st100 st101">DpG</text>
	<text id="label187" bar:growlevel="0" transform="matrix(1 0 0 1 1695.5605 1810.4688)" class="st99 st100 st101">a</text>
	<text id="label186" bar:growlevel="0" transform="matrix(1 0 0 1 1638.5605 1902.6309)" class="st99 st100 st101">a</text>
	<text id="label185" bar:growlevel="0" transform="matrix(1 0 0 1 1273.0674 2070.5664)" class="st99 st100 st101">3n</text>
	<text id="label183" bar:growlevel="0" transform="matrix(1 0 0 1 1545.5898 1154.4297)" class="st99 st100 st101">a</text>
	<text id="label183_1_" bar:growlevel="0" transform="matrix(1 0 0 1 1535.2832 1112.4297)" class="st99 st100 st101">grey</text>
	<text id="label188" bar:growlevel="0" transform="matrix(1 0 0 1 1772.6025 1922.4883)" class="st99 st100 st101">hif</text>
	<text id="label68" bar:growlevel="0" transform="matrix(1 0 0 1 2020.6006 1117.5313)" class="st99 st100 st101">Or</text>
	<text id="label66" bar:growlevel="0" transform="matrix(1 0 0 1 2203.1904 1070.5508)" class="st99 st100 st101">AuD</text>
	<text id="text3275" bar:growlevel="0" transform="matrix(1 0 0 1 2025.0537 2131.8652)" class="st99 st100 st101">OlfCx-1</text>
	<text id="label64" bar:growlevel="0" transform="matrix(1 0 0 1 2308.4893 1425.6602)" class="st99 st100 st101">AuV</text>
	<text id="label62" bar:growlevel="0" transform="matrix(1 0 0 1 2305.041 1522.1113)" class="st99 st100 st101">TeA</text>
	<text id="label61" bar:growlevel="0" transform="matrix(1 0 0 1 2047.249 1337.9395)" class="st99 st100 st101">Rad</text>
	<text id="label60" bar:growlevel="0" transform="matrix(1 0 0 1 1908.3525 1379.7285)" class="st99 st100 st101">Rad</text>
	<text id="Unlabeled-2066-1709" bar:growlevel="0" transform="matrix(1 0 0 1 1338.0801 1811.5059)" class="st99 st100 st101">grey</text>
	<text id="label213" bar:growlevel="0" transform="matrix(1 0 0 1 1138.5889 1542.2949)" class="st99 st100 st101">LPAG</text>
	<text id="label74" bar:growlevel="0" transform="matrix(1 0 0 1 1167.9795 848.0117)" class="st99 st100 st101">RSGc</text>
	<text id="label75" bar:growlevel="0" transform="matrix(1 0 0 1 1154.8105 1010.9688)" class="st99 st100 st101">RSGb</text>
	<text id="label70" bar:growlevel="0" transform="matrix(1 0 0 1 1774.7002 757.1699)" class="st99 st100 st101">V1</text>
	<text id="label71" bar:growlevel="0" transform="matrix(1 0 0 1 1511.6611 712.2617)" class="st99 st100 st101">V2ML</text>
	<text id="label72" bar:growlevel="0" transform="matrix(1 0 0 1 1388.7197 703.8906)" class="st99 st100 st101">V2MM</text>
	<text id="label73" bar:growlevel="0" transform="matrix(1 0 0 1 1267.9697 716.7617)" class="st99 st100 st101">RSD</text>
	<text id="label221" bar:growlevel="0" transform="matrix(1 0 0 1 1105.9492 1718.5098)" class="st99 st100 st101">PrEW</text>
	<text id="label226" bar:growlevel="0" transform="matrix(1 0 0 1 1129.583 1790.7617)" class="st99 st100 st101">mtg</text>
	<text id="label225" bar:growlevel="0" transform="matrix(1 0 0 1 1145.9512 1674.8418)" class="st99 st100 st101">mlf</text>
	<text id="Unlabeled-3224-1667" bar:growlevel="0" transform="matrix(1 0 0 1 2373.0801 1896.1074)" class="st99 st100 st101">DLEnt</text>
	<text id="label48" bar:growlevel="0" transform="matrix(1 0 0 1 1448.749 1067.4297)" class="st99 st100 st101">DS</text>
	<text id="label69" bar:growlevel="0" transform="matrix(1 0 0 1 2086.7588 930.0313)" class="st99 st100 st101">V2L</text>
	<text id="label41" bar:growlevel="0" transform="matrix(1 0 0 1 1296.1123 1259.9688)" class="st99 st100 st101">InG</text>
	<text id="label40" bar:growlevel="0" transform="matrix(1 0 0 1 1805.0898 2099.791)" class="st99 st100 st101">AHiPM</text>
	<text id="label43" bar:growlevel="0" transform="matrix(1 0 0 1 1241.3916 1165.4395)" class="st99 st100 st101">SuG</text>
	<text id="label45" bar:growlevel="0" transform="matrix(1 0 0 1 1612.041 1329.5996)" class="st99 st100 st101">LPMC</text>
	<text id="label44" bar:growlevel="0" transform="matrix(1 0 0 1 1220.6611 1094.5801)" class="st99 st100 st101">RSGa</text>
	<text id="label47" bar:growlevel="0" transform="matrix(1 0 0 1 1500.3525 1230.8711)" class="st99 st100 st101">OT</text>
	<text id="label46" bar:growlevel="0" transform="matrix(1 0 0 1 1530.5313 1296.1504)" class="st99 st100 st101">PPT</text>
	<text id="label67" bar:growlevel="0" transform="matrix(1 0 0 1 1720.9404 1126.5898)" class="st99 st100 st101">MoDG</text>
	<text id="label204" bar:growlevel="0" transform="matrix(1 0 0 1 1163.5088 2021.1602)" class="st99 st100 st101">fr</text>
	<text id="label56" bar:growlevel="0" transform="matrix(1 0 0 1 1839.9209 1610.5215)" class="st99 st100 st101">CA3</text>
	<text id="label57" bar:growlevel="0" transform="matrix(1 0 0 1 2069.6904 1417.8301)" class="st99 st100 st101">CA1</text>
	<text id="label54" bar:growlevel="0" transform="matrix(1 0 0 1 2302.0703 1603.2285)" class="st99 st100 st101">Ect</text>
	<text id="label55" bar:growlevel="0" transform="matrix(1 0 0 1 1966.7588 1608.4199)" class="st99 st100 st101">MoDG</text>
	<text id="label52" bar:growlevel="0" transform="matrix(1 0 0 1 2236.2813 1857.0605)" class="st99 st100 st101">DLEnt</text>
	<text id="label53" bar:growlevel="0" transform="matrix(1 0 0 1 2275.3398 1697.2188)" class="st99 st100 st101">PRh</text>
	<text id="label50" bar:growlevel="0" transform="matrix(1 0 0 1 1863.0508 2147.4297)" class="st99 st100 st101">PMCo</text>
	<text id="label51" bar:growlevel="0" transform="matrix(1 0 0 1 2065.8525 2045.041)" class="st99 st100 st101">APir</text>
	<text id="label58" bar:growlevel="0" transform="matrix(1 0 0 1 1855.2813 1507.1406)" class="st99 st100 st101">Or</text>
	<text id="label59" bar:growlevel="0" transform="matrix(1 0 0 1 1896.2295 1572.9297)" class="st99 st100 st101">Py</text>
	<text id="Unlabeled-1984-1799" bar:growlevel="0" transform="matrix(1 0 0 1 1267.8818 1897.0059)" class="st99 st100 st101">grey</text>
	<text id="text3270" bar:growlevel="0" transform="matrix(1 0 0 1 2127.9385 1968.9414)" class="st99 st100 st101">OlfCx</text>
	<text id="label168" bar:growlevel="0" transform="matrix(1 0 0 1 1543.6709 1394.3105)" class="st99 st100 st101">TG</text>
	<text id="label208" bar:growlevel="0" transform="matrix(1 0 0 1 1171.3779 1975.8262)" class="st99 st100 st101">PN</text>
	<text id="label42" bar:growlevel="0" transform="matrix(1 0 0 1 1266.4111 1201.6211)" class="st99 st100 st101">Op</text>
	<text id="label209" bar:growlevel="0" transform="matrix(1 0 0 1 1172.21 1833.002)" class="st99 st100 st101">scp</text>
	<text id="label22" bar:growlevel="0" transform="matrix(1 0 0 1 1439.8398 1598.0117)" class="st102 st100 st101">.APTV</text>
	<text id="label27" bar:growlevel="0" transform="matrix(1 0 0 1 1342.7588 1338.9297)" class="st99 st100 st101">InWh</text>
	<text id="label26" bar:growlevel="0" transform="matrix(1 0 0 1 1101.3818 1337.9395)" class="st99 st100 st101">csc</text>
	<text id="label25" bar:growlevel="0" transform="matrix(1 0 0 1 1118.4912 1454.8496)" class="st99 st100 st101">DMPAG</text>
	<text id="label24" bar:growlevel="0" transform="matrix(1 0 0 1 1269.6514 1422.4785)" class="st99 st100 st101">DpWh</text>
	<text id="label29" bar:growlevel="0" transform="matrix(1 0 0 1 1594.249 1415.1895)" class="st99 st100 st101">Po</text>
	<text id="label28" bar:growlevel="0" transform="matrix(1 0 0 1 1503.8301 1461.1211)" class="st102 st100 st101">.APTD</text>
	<text id="label49" bar:growlevel="0" transform="matrix(1 0 0 1 1689.499 1073.6992)" class="st99 st100 st101">LMol</text>
	<text id="Unlabeled-1828-1906" bar:growlevel="0" transform="matrix(1 0 0 1 1136.4795 1984.3047)" class="st99 st100 st101">grey</text>
	<text id="label65" bar:growlevel="0" transform="matrix(1 0 0 1 2277.6221 1235.2188)" class="st99 st100 st101">Au1</text>
	<text id="label150" bar:growlevel="0" transform="matrix(1 0 0 1 1512.5605 1784.9395)" class="st99 st100 st101">SNCD</text>
	<text id="label151" bar:growlevel="0" transform="matrix(1 0 0 1 1208.5498 1605.5723)" class="st99 st100 st101">InCSh</text>
	<text id="label152" bar:growlevel="0" transform="matrix(1 0 0 1 1580.6611 1499.1895)" class="st99 st100 st101">PLi</text>
	<text id="label153" bar:growlevel="0" transform="matrix(1 0 0 1 1645.4014 1524.0898)" class="st99 st100 st101">MGM</text>
	<text id="label154" bar:growlevel="0" transform="matrix(1 0 0 1 2059.4893 1205.8203)" class="st99 st100 st101">Py</text>
	<text id="label155" bar:growlevel="0" transform="matrix(1 0 0 1 2133.4668 1242.8535)" class="st102 st100 st101">.LV</text>
	<text id="label156" bar:growlevel="0" transform="matrix(1 0 0 1 1653.4697 1172.5508)" class="st99 st100 st101">GrDG</text>
	<text id="label159" bar:growlevel="0" transform="matrix(1 0 0 1 1921.6123 1515.4785)" class="st99 st100 st101">SLu</text>
</g>
</svg>
