<?xml version="1.0" encoding="utf-8"?>
<!-- Generator: Adobe Illustrator 24.1.1, SVG Export Plug-In . SVG Version: 6.00 Build 0)  -->
<svg version="1.1"
	 id="body" inkscape:version="0.47pre4 r22446" sodipodi:docname="126_pretrace_v1.svg" xmlns:bar="http://www.3dbar.org" xmlns:cc="http://creativecommons.org/ns#" xmlns:dc="http://purl.org/dc/elements/1.1/" xmlns:inkscape="http://www.inkscape.org/namespaces/inkscape" xmlns:rdf="http://www.w3.org/1999/02/22-rdf-syntax-ns#" xmlns:sodipodi="http://sodipodi.sourceforge.net/DTD/sodipodi-0.dtd" xmlns:svg="http://www.w3.org/2000/svg"
	 xmlns="http://www.w3.org/2000/svg" xmlns:xlink="http://www.w3.org/1999/xlink" x="0px" y="0px" viewBox="0 0 3024 3024"
	 style="enable-background:new 0 0 3024 3024;" xml:space="preserve">
<style type="text/css">
	.st0{fill:#FF000C;}
	.st1{fill:#2E00FF;}
	.st2{fill:#B5B2FF;}
	.st3{fill:#7059FF;}
	.st4{fill:#3F3BE9;}
	.st5{fill:#3FFF00;}
	.st6{fill:#D2FFB2;}
	.st7{fill:#C9FFB2;}
	.st8{fill:#8CFF59;}
	.st9{fill:#E547D8;}
	.st10{fill:#9477C3;}
	.st11{fill:#0011FF;}
	.st12{fill:#001DFF;}
	.st13{fill:#BBB2FF;}
	.st14{fill:#B8B2FF;}
	.st15{fill:#E99700;}
	.st16{fill:#E7FF3B;}
	.st17{fill:#FFC559;}
	.st18{fill:#5923E1;}
	.st19{fill:#7F76FF;}
	.st20{fill:#B2B7FF;}
	.st21{fill:#EEFF76;}
	.st22{fill:#1800FF;}
	.st23{fill:#3BFAFF;}
	.st24{fill:#9D82D8;}
	.st25{fill:#DF0045;}
	.st26{fill:#00D7F2;}
	.st27{fill:#6A47FF;}
	.st28{fill:#D0FFB2;}
	.st29{fill:#009ACF;}
	.st30{fill:#FFAE59;}
	.st31{fill:#0003FF;}
	.st32{fill:#B79AED;}
	.st33{fill:#5600D4;}
	.st34{fill:#00CF69;}
	.st35{fill:#FBFFB2;}
	.st36{fill:#B2FFDE;}
	.st37{fill:#FFB2BA;}
	.st38{fill:#0700FF;}
	.st39{fill:#E9BD47;}
	.st40{fill:#1F00FF;}
	.st41{fill:#0020E9;}
	.st42{fill:#FFA900;}
	.st43{fill:#AF82FA;}
	.st44{fill:#777777;}
	.st45{fill:#F0FF59;}
	.st46{fill:#F1FFB2;}
	.st47{fill:#CDE900;}
	.st48{fill:#FFA600;}
	.st49{fill:#B2BAFF;}
	.st50{fill:#E9B759;}
	.st51{fill:#D6FF00;}
	.st52{fill:#EBF400;}
	.st53{fill:#F9FF47;}
	.st54{fill:#D0D46B;}
	.st55{fill:#FFFDB2;}
	.st56{fill:#FFFB00;}
	.st57{fill:#BCD400;}
	.st58{fill:#D5E93B;}
	.st59{fill:#976BFF;}
	.st60{fill:#F4FFB2;}
	.st61{fill:#FFFA00;}
	.st62{fill:#D9DF47;}
	.st63{fill:#FDFFB2;}
	.st64{fill:#FEFFB2;}
	.st65{fill:#FAFF00;}
	.st66{fill:#F8FF00;}
	.st67{fill:#FAFF59;}
	.st68{fill:#BB9AFF;}
	.st69{fill:#EEF447;}
	.st70{fill:#FFFEB2;}
	.st71{fill:#FFFE00;}
	.st72{fill:#FFFD59;}
	.st73{fill:#D0FF00;}
	.st74{fill:#D3FF00;}
	.st75{fill:#F5FFB2;}
	.st76{fill:#E9FF59;}
	.st77{fill:#DEFF00;}
	.st78{fill:#463BFF;}
	.st79{fill:#8EF4AC;}
	.st80{fill:#7C76E9;}
	.st81{fill:#0900E9;}
	.st82{fill:#FFE4B2;}
	.st83{fill:#B2B5FF;}
	.st84{fill:#3B40FF;}
	.st85{fill:#FFBAB2;}
	.st86{fill:#59FFD7;}
	.st87{fill:#E1B2FF;}
	.st88{fill:#A15FFA;}
	.st89{fill:#B2FFED;}
	.st90{fill:#3BEFD0;}
	.st91{fill:#232323;enable-background:new    ;}
	.st92{font-family:'TimesNewRomanPSMT';}
	.st93{font-size:27px;}
	.st94{fill:#FF0000;enable-background:new    ;}
</style>
<sodipodi:namedview  bordercolor="#666666" borderopacity="1" gridtolerance="10" guidetolerance="10" id="namedview424" inkscape:current-layer="content" inkscape:cx="461.86685" inkscape:cy="792.20003" inkscape:guide-bbox="true" inkscape:object-paths="true" inkscape:pageopacity="0" inkscape:pageshadow="2" inkscape:snap-nodes="true" inkscape:window-height="948" inkscape:window-maximized="1" inkscape:window-width="1272" inkscape:window-x="0" inkscape:window-y="25" inkscape:zoom="1.0265236" objecttolerance="10" pagecolor="#ffffff" showgrid="false" showguides="true">
	</sodipodi:namedview>
<desc  id="desc5">This was produced by version 4.2 of GNU libplot, a free library for exporting 2-D vector graphics.</desc>
<defs>
	
		<inkscape:perspective  id="perspective44315" inkscape:persp3d-origin="504 : 336 : 1" inkscape:vp_x="0 : 504 : 1" inkscape:vp_y="0 : 1000 : 0" inkscape:vp_z="1008 : 504 : 1" sodipodi:type="inkscape:persp3d">
		</inkscape:perspective>
	<bar:data  content="-6.0" name="coronalcoord"></bar:data>
	
		<bar:data  content="{&apos;ReferenceHeight&apos;: 900, &apos;ReferenceWidth&apos;: 1200, &apos;imageSize&apos;: (1200, 900)}" name="rendererConf">
		</bar:data>
	
		<bar:data  content="{&apos;DumpEachStepSVG&apos;: False, &apos;DumpEachStepPNG&apos;: False, &apos;GrowDefaultBoundaryColor&apos;: 200, &apos;CacheLevel&apos;: 5, &apos;NewPathIdTemplate&apos;: &apos;structure%d_%s_%s&apos;, &apos;PoTraceConf&apos;: {&apos;potrace_accuracy_parameter&apos;: &apos;0.001&apos;, &apos;potrace_width_string&apos;: &apos;1200pt&apos;, &apos;potrace_svg_resolution_string&apos;: &apos;300x300&apos;, &apos;potrace_height_string&apos;: &apos;900pt&apos;}, &apos;DetectUnlabelled&apos;: True, &apos;DumpVBrain&apos;: False, &apos;DumpWrongSeed&apos;: True, &apos;DumpDirectory&apos;: &apos;.&apos;, &apos;MinFiterTimesApplication&apos;: 3, &apos;RegionAlreadyTraced&apos;: 100, &apos;UnlabelledTreshold&apos;: 500}" name="tracingConf">
		</bar:data>
	<bar:data  content="0.0176211454,-9.5150660793,0.0176211454,-1.5355884426" name="transformationmatrix"></bar:data>
</defs>
<g id="content">
	<path class="st0" d="M2433.3,1170.6c-10.5-30.9-23.9-57.5-48.1-96.3c-40.6-64.9-88.2-124-144.6-179.6
		c-60.6-59.6-124.9-108.1-193.4-145.6c-111.2-61-279.1-115.7-428.8-139.6c-13.9-2.3-37.5-6.1-52.7-8.5
		c-69-11.3-104.2-14.8-150.3-14.8c-35.2-0.1-58.2,1.8-87.3,7.1c-57.7,10.4-107.9,32.4-149.5,65.2c-11.8,9.4-35.3,32.8-44,44.1
		c-18.8,24.4-36.2,56.9-40.7,76.5c-0.7,3.1-1.4,4.5-2.3,4.3c-0.1,0-0.2-0.1-0.3-0.2v130.9c0.1,0,0.1,0,0.2,0c0.7,0,2,3.4,3.3,9.3
		c6.3,27.6,21.4,63.3,36.5,86.1c19.9,30.2,41,46.5,71,54.4c3.7,1,6,2.1,6,2.8c0,1.7-1.3,1.6-14.8-1c-15.4-3-32.9-3.8-41.4-2
		c-12.7,2.7-33.4,12.9-44.6,21.9c-5.8,4.7-12.9,13.8-14,18c-0.4,1.6-1.3,2.3-2.2,2.1v1024.6c13.7-0.1,27.7-0.6,33.3-1.6
		c14.8-2.6,39.9-11.8,57.8-21c9.5-4.9,16.7-11.7,20.3-19.2l2.5-5.2l9.9,0.1c5.8,0.1,12.4-0.4,16.1-1.2c7-1.4,6-2.1,11.3,7.3
		c1.7,3.1,5.1,7.7,7.6,10.2c3.7,3.9,5.5,4.9,10.4,6.4c13.3,3.8,50.6,0.6,96.8-8.2c51.6-9.9,87.8-26.5,135.3-61.9
		c26.2-19.5,37.9-26.4,57.8-33.8c6.5-2.4,14.9-6.1,18.5-8.2c12.1-6.9,26-21.7,33.8-35.8c1.7-3.1,3.5-5.5,4.1-5.5
		c0.7,0,0.9,4.3,0.5,15.4c-0.4,17,0.5,24.8,3.8,31.4c4,7.9,11.3,10.1,20.4,6.2c2.4-1.1,4.8-1.7,5-1.4c0.4,0.4,0.1,1.9-0.5,3.5
		c-7.9,19.3-9.7,32.2-6.8,49.9c5.2,31.9,23,57.7,48.7,70.7c27.6,13.9,116.6,31,198.8,38c69.3,5.8,134.5,1,196.2-14.9
		c70.5-18.1,142.4-52.9,193-93.5c55.1-44.2,101.3-108.5,128.2-178.3c20.3-53,23.8-96.7,9.5-121.3c-1.4-2.7-6.5-8.7-11.2-13.6
		c-10.6-11.1-12.5-14.7-12.6-23c0-5.1,0.4-6.8,2.1-9.2c2.9-4,7-6.4,14.7-8c8.9-2,13.6-4.3,17.4-8.6c6.1-6.7,8.8-13.9,16.6-44
		c11.4-44,17.1-78.2,22.7-135C2468.5,1356.4,2462.9,1256.9,2433.3,1170.6z M1639,1355.6l-5.1,2.4l-5.5-2c-9.4-3.2-16.6-2-22.1,3.9
		c-3.4,3.7-4.2,3-4.9-4.2c-1.4-15.3-8-41.8-15.1-60.8c-4-10.5-13.6-31.2-17.8-38.1c-3.6-5.8-3.5-9,0.5-15.1c2.7-4.1,4.5-8.2,7.2-16
		c0.7-2.1,3.2-1.2,3.2,1.2c0,3.6,3.3,9.4,6.6,11.3c1.6,1,4.4,1.8,6.4,1.8c6.9,0,13.1-9.6,11.8-18.4c-1.3-8.8-8.8-15.2-15.4-13.1
		c-3.2,1.1-7,5-8,8.1c-0.3,1-1.2,1.8-1.9,1.8c-1,0-1.3-1.4-1.3-5.7c0-16.7-10.9-32.9-29-43.4c-11.2-6.4-10.5-9,1.1-4.5
		c23.5,9.2,53.2,13.5,70.9,10.3c3.5-0.6,6.8-0.9,7.1-0.5s0.1,1.5-0.6,2.6c-8.3,13-10.7,19.3-11.4,30.4c-1,14.7,2.3,24.5,17.5,51.4
		c24,42.7,43.3,70.5,61.7,89.1c9.1,9.3,9,10.4-0.6,7.1C1674.8,1348.5,1653.6,1348.7,1639,1355.6z M1775,1670.8
		c-1.6,2.8-5.6,11.2-8.7,18.5c-10,23.5-16.4,31.1-45.5,54.5c-8.9,7.2-21.1,17.8-27.1,23.6c-15.1,14.7-16.2,14.2-7.7-3.3
		c13.2-27.2,26.8-43.9,46.7-57.7c4.9-3.3,11-7.7,13.7-9.7c5.7-4.2,16.3-17.2,23.5-28.6c5.3-8.5,8.1-10.2,8.1-5.1
		C1778,1664.5,1776.7,1668,1775,1670.8z"/>
	<path id="structure10_label9_PaR" bar:growlevel="0" bar:type="" class="st1" d="M1345.6,1692.1c-21.1,4-35.6,15.7-41,32.8
		c-1.4,4.5-1.9,8.4-1.9,15.8c0,27.4,10.4,43.3,31.4,47.7c12.2,2.6,38,1.4,52.9-2.3c16.4-4.1,32-16,38.1-28.8
		c5.7-12,5.8-26.9,0.4-38.4c-4.6-9.7-16.2-18.6-30.6-23.5C1382,1691.1,1359.3,1689.5,1345.6,1692.1z"/>
	<path class="st2" d="M1574.2,1312.3c-11.2-23.2-37.3-48.4-77.4-74.7c-40.1-26.3-84.2-45.7-129.1-57.1
		c-50.5-12.7-85-17.9-122.7-18.6c-30.4-0.6-46.2,1.2-61.9,7c-17.3,6.4-28.3,16.1-44.1,38.6c-5.6,8-13.3,15.6-18.9,18.4
		c-2.2,1.1-7.3,1.3-28.8,1.4v21c9.3,0,18.7-0.5,27-1.5c16.3-2,56.4-7.4,70.2-9.5l10.3-1.5l-0.3-3.1c-0.4-6.1,1.3-6.8,31.1-12.9
		c21.9-4.4,24-4.7,37.2-4.7c15.8-0.1,22,1.3,43.5,8.8c33,11.7,89.5,39.9,124.4,62.1c31.9,20.3,61,43.7,78,62.9
		c15.6,17.5,41,53.5,48,67.9c1.9,4.1,4,7.4,4.5,7.4c2,0,10.7-31.7,15.4-55.8C1584.7,1347.5,1582.7,1329.9,1574.2,1312.3z"/>
	<path id="structure11_label10_SNR" bar:growlevel="0" bar:type="" class="st3" d="M1545.6,1783.4c-15.4,9.4-39.9,27.1-69.6,50.4
		c-38.4,30.2-47.5,38.7-110.5,103.3c-34.7,35.7-40.9,42.5-42.1,46c-3.5,10.1-15.1,28.8-27.5,44.3c-7.6,9.4-28.4,31.1-36,37.2
		c-3.2,2.5-5.7,5-5.7,5.7c0,1.7,10.2,3.1,22.9,3.1c13.6,0,24.5-2,40.4-7.3c22.4-7.5,73.1-31.1,93.6-43.5
		c13.7-8.3,24.4-12.5,47.3-18.7c29.3-7.8,46.2-13.9,68.9-24.9c33-15.9,44.3-27,56.7-56.1c5.8-13.5,14.1-37.6,19.8-57.3
		c4.1-13.9,4.2-15.2,3.8-22.5c-0.5-9.3-4.1-20.3-11-34.9c-6.1-12.9-10.7-17.9-20.6-22.9c-6.4-3.1-18.1-7.1-20.8-7.1
		C1554.7,1778.1,1550.4,1780.5,1545.6,1783.4z M1506.7,1907.7c4.2,1,8.5,5.3,8.5,8.6c0,9.1-12.5,16.8-53.1,33
		c-33,13.2-42.6,15-45.9,8.7c-3-5.5,10.7-19.7,30-31c16.5-9.6,43.4-19.4,55.5-20.3C1502.4,1906.9,1504.7,1907.2,1506.7,1907.7z"/>
	<path class="st4" d="M1520.5,1487.9c-5.9,2.2-16.3,1.9-22.7-0.5c-7.9-3-15.5-10.6-22.9-22.9c-26.7-44.7-66.3-90-114.1-130.3
		c-51.4-43.3-74.9-60.8-95.8-71.3c-16.6-8.4-60.7-26.6-64.1-26.6c-1.3,0-11.9,1.4-23.8,3.1c-45.8,6.6-70.8,9.4-86,9.4v51.2
		c21.3,0,42.6,0.5,50.8,1.4c41.7,4.9,75.7,19.1,108.1,45.2c11.6,9.4,40.4,38.8,53,54.1c31.9,39,57.5,80.6,77.9,126.7l4.9,10.9
		l6.8,0.6c10.9,0.9,23.2,0.6,35.6-0.8c39.1-4.6,60.5-14.1,88.8-39.5C1530.1,1487,1531,1484.1,1520.5,1487.9z"/>
	<path id="structure122_label128_cg" bar:growlevel="0" bar:type="" class="st5" d="M1387.6,827.4c-4.6,0.4-5.8,1.9-7.8,10.1
		c-4.3,16.8-2.1,35.5,7,58.2c4.6,11.4,9.4,21,20.9,42.2c4.6,8.4,10.4,19.4,13,24.6c11.1,21.6,27.2,38.2,47.3,48.5l8.1,4.1l4.3-4.5
		c2.3-2.5,5.6-5.6,7.3-6.8c4.9-3.3,4.3-4.3-3.6-5.7c-5.7-0.9-14.8-4.9-21.1-9c-20.5-13.6-38.1-43.9-47.6-82.4
		c-3.8-15.1-6.4-31.1-6.4-39c0-8.6,2.9-13.6,10.2-17.1c8.5-4.1,17.5-5.2,38.7-4.7c14.9,0.4,18.6,0.3,18.6-0.7
		c0-1.3-25.6-9.7-41.4-13.6C1418.5,827.6,1402.3,826.2,1387.6,827.4z"/>
	<path id="structure123_label129_fmj" bar:growlevel="0" bar:type="" class="st6" d="M1438.7,846.7c-11.8,0.7-18.9,2.9-23.8,7.3
		c-6.6,5.8-7.1,11.5-3.1,34.5c11.6,65.2,41.1,107.3,77,110c5.7,0.4,7.2,0.2,12.2-1.9c3.2-1.3,10.5-3.5,16.5-5
		c18.7-4.5,31.6-9.5,67.5-26.1c31.2-14.4,43.6-18.6,65-22.1c19.9-3.2,50-3.2,71.5,0c11.3,1.6,13.4,1.7,13.4,0.2
		c0-0.7-5.1-2.5-14.1-4.9c-54.8-14.5-123.1-24.5-192.9-28.1c-20.1-1.1-25.7-1.6-24.9-2.3c1-1.1,55.5,2.8,85.7,5.9
		c66.2,7.1,126.8,19.5,170.5,35.1c6.7,2.4,19,6.7,27.4,9.5c102.3,34.3,200.3,90.8,257.5,148.5c57.5,58.1,118.1,166.4,146.5,261.9
		c15.2,50.9,21,92.3,22,156.1c1.1,74.3-6.3,142.5-22.7,208.6c-10.5,42.5-22.2,74.6-39.7,109.2c-37.3,73.5-81.5,124.7-135.9,157.2
		c-36.3,21.6-95.2,43.9-155.3,58.8c-18.6,4.6-20.4,6.1-8.7,7.6c4.1,0.5,7.4-0.1,20.6-3.6c95.8-25.3,153.6-52.3,200.9-93.8
		c8.7-7.7,22.8-22.2,42.4-44.2c43.6-48.4,71.8-115,91.4-215.3c4.2-21.4,5.9-30.6,14.1-75.2c3.7-20.3,6.9-45.2,9.1-69
		c2.2-24.8,2.2-91.5,0-115c-8.2-87.6-28.3-160.2-63.6-230.3c-12.1-23.8-20.8-38.6-38.9-65.8c-27.2-40.7-39.8-56.3-68.6-85.1
		c-20.9-20.8-33.9-32.1-54.9-47.9c-31.4-23.4-68.5-45.1-103.6-60.5c-6.9-3.1-18.6-8.3-26.1-11.7c-58.4-26.5-113.8-43.7-201.3-62.5
		c-26.7-5.8-135-27.2-141.6-28c-7.5-1-20.1-4-31.5-7.3c-8.3-2.4-13.4-3.4-22-4C1458.6,846.2,1447.9,846.1,1438.7,846.7z"/>
	<path id="structure124_label130_dhc" bar:growlevel="0" bar:type="" class="st7" d="M1438.7,846.7c-11.8,0.7-18.9,2.9-23.8,7.3
		c-6.6,5.8-7.1,11.5-3.1,34.5c11.6,65.2,41.1,107.3,77,110c5.7,0.4,7.2,0.2,12.2-1.9c3.2-1.3,10.5-3.5,16.5-5
		c18.7-4.5,31.6-9.5,67.5-26.1c31.2-14.4,43.6-18.6,65-22.1c19.9-3.2,50-3.2,71.5,0c11.3,1.6,13.4,1.7,13.4,0.2
		c0-0.7-5.1-2.5-14.1-4.9c-54.8-14.5-123.1-24.5-192.9-28.1c-20.1-1.1-25.7-1.6-24.9-2.3c1-1.1,55.5,2.8,85.7,5.9
		c66.2,7.1,126.8,19.5,170.5,35.1c6.7,2.4,19,6.7,27.4,9.5c102.3,34.3,200.3,90.8,257.5,148.5c57.5,58.1,118.1,166.4,146.5,261.9
		c15.2,50.9,21,92.3,22,156.1c1.1,74.3-6.3,142.5-22.7,208.6c-10.5,42.5-22.2,74.6-39.7,109.2c-37.3,73.5-81.5,124.7-135.9,157.2
		c-36.3,21.6-95.2,43.9-155.3,58.8c-18.6,4.6-20.4,6.1-8.7,7.6c4.1,0.5,7.4-0.1,20.6-3.6c95.8-25.3,153.6-52.3,200.9-93.8
		c8.7-7.7,22.8-22.2,42.4-44.2c43.6-48.4,71.8-115,91.4-215.3c4.2-21.4,5.9-30.6,14.1-75.2c3.7-20.3,6.9-45.2,9.1-69
		c2.2-24.8,2.2-91.5,0-115c-8.2-87.6-28.3-160.2-63.6-230.3c-12.1-23.8-20.8-38.6-38.9-65.8c-27.2-40.7-39.8-56.3-68.6-85.1
		c-20.9-20.8-33.9-32.1-54.9-47.9c-31.4-23.4-68.5-45.1-103.6-60.5c-6.9-3.1-18.6-8.3-26.1-11.7c-58.4-26.5-113.8-43.7-201.3-62.5
		c-26.7-5.8-135-27.2-141.6-28c-7.5-1-20.1-4-31.5-7.3c-8.3-2.4-13.4-3.4-22-4C1458.6,846.2,1447.9,846.1,1438.7,846.7z"/>
	<path id="structure125_label131_alv" bar:growlevel="0" bar:type="" class="st8" d="M1662.4,942c-4.4,0.5-12.5,1.7-18,2.8
		c-20.4,3.8-29.8,7.2-64.8,23.3c-32,14.8-45.7,19.9-65.7,24.8c-12.2,3-21.1,7.2-29,13.9c-7.9,6.7-8.2,8.6-1.3,11.1
		c9.9,3.3,19.6,4.6,32.5,4.1c15.7-0.5,22.1-2.4,45-13.2c49.1-23.2,91.2-35.8,131.8-39.7c15.8-1.4,44.6-0.6,58.5,1.8
		c15.6,2.7,22.9,4.6,44.6,11.7c74.8,24.4,144.4,62.8,203.4,112.2c41.2,34.6,79,76.3,98.2,108.4c43.1,72.3,73.1,142.8,89.9,211.9
		c16.6,67.7,19.1,119.6,9.9,205.2c-12.1,111.6-41.9,202.9-89.6,274.3c-19.4,29.2-43.6,57.2-63.6,73.7c-19.1,15.8-41.8,30.3-66,42.1
		c-24.1,11.7-29.6,13.8-99.2,37c-16.7,5.6-24.6,8.5-24.6,9.4c0,2.1,3.5,1.5,23.1-3.8c47.6-12.7,103.3-34.3,132.2-51.2
		c58.1-34,104.4-87.7,142.1-164.7c32.2-65.7,51.5-147.6,58.1-247c1.5-21.5,1.5-83.3,0.1-103.1c-1.4-19.9-4.2-44.6-6.6-57.9
		c-12.8-74.4-46.7-158.8-94.6-235.5c-41.3-66.1-79.7-105.9-141.4-146.6c-52.7-34.7-115.8-65.1-181.5-87.4
		c-25-8.5-44.5-13.1-67.5-16.2C1706,941.6,1673.5,940.9,1662.4,942z"/>
	<path id="structure126_label132_a" bar:growlevel="0" bar:type="" class="st9" d="M1584.6,1210.6c-7.7,6.6-7,22.3,1.4,27.5
		c8.3,5.1,17.5-2.3,17.5-14c0-6.2-1.6-10.2-5.3-13.3C1594.1,1207.5,1588.5,1207.5,1584.6,1210.6z"/>
	<path id="structure127_label133_bic" bar:growlevel="0" bar:type="" class="st10" d="M1604.4,1500.1c-7.4,2.9-12.2,8.3-14.6,16.1
		c-6,20,5.9,35,25.3,31.6c12.7-2.3,23.4-9.8,26.4-18.5c4.1-11.8-0.3-22.4-11.4-28.2C1623.6,1497.8,1611.4,1497.3,1604.4,1500.1z"/>
	<path id="structure128_label135_InCSh" bar:growlevel="0" bar:type="" class="st11" d="M1210.9,1549.2c-6.8,5-15.2,13.6-15.2,15.6
		c0,0.7,2.9,4.2,6.4,7.6c11.8,11.8,20.3,24.7,23.4,36c1.6,5.8,1.4,18.9-0.4,27c-5.2,24.1-21.5,34.9-61.4,40.6l-11.3,1.6v9.5
		c0,5.2-0.3,10.4-0.6,11.6l-0.5,2.2l9.8-0.5c21.9-1.3,42.5-8.3,61.7-21.1c8.5-5.5,25.5-22.5,29.5-29.4c5.1-8.7,7.1-15.9,7.2-25.5
		c0-17.5-6.1-35.5-18.5-54.5c-6.2-9.5-20.4-24.9-23-24.9C1217.2,1545,1214.1,1546.9,1210.9,1549.2z"/>
	<path id="structure12_label11_IPL" bar:growlevel="0" bar:type="" class="st12" d="M1159.9,2066.8c-9.4,18.8-12.8,26.7-12.8,29.1
		c0,4.5,3.7,11.3,8.9,16.5l4.5,4.4l11.1-4.9c18.3-8,25.8-14.1,31-24.9l2.3-5l-1.6-3.1c-4.9-9.2-27.4-38-29.5-37.8
		C1173.2,2041,1167,2052.7,1159.9,2066.8z"/>
	<path id="structure130_label137_SNCM" bar:growlevel="0" bar:type="" class="st13" d="M1315.6,1977.9c-6.2,2.8-22.9,13-31,19.1
		c-14.9,11-26,23.8-33.4,38c-3.6,7-3.8,7.6-3.8,15.8c0,7.7-0.3,9-2.4,12.8c-3.6,6.1-3.4,7,1.8,7c5.8,0,9.6-2.6,23-15.3
		c27.8-26.6,53.7-63.3,53.7-76c0-2.7-0.3-3.2-2-3.2C1320.4,1976.1,1317.7,1976.9,1315.6,1977.9z"/>
	<path id="structure134_label142_SNCD" bar:growlevel="0" bar:type="" class="st14" d="M1528.1,1777.6c-4.8,2.1-9.5,5.6-40,30.1
		c-51.5,41.1-54.4,43.7-111.1,98.6c-34.9,33.8-50.7,48.6-66.6,62.2c-20.3,17.4-26.9,24.7-22.4,24.7c0.7,0,4.2-1.9,7.8-4.1
		c3.5-2.3,10.3-6.2,14.8-8.6c7.5-4,8.8-4.4,12.2-4l3.8,0.5l32.1-33c46.9-48.3,75-76,90.3-88.6c34.6-28.7,77.2-60.6,95.6-71.6
		c4-2.4,7.4-4.9,7.5-5.4C1552.1,1776.2,1532.9,1775.5,1528.1,1777.6z"/>
	<path id="structure135_label144_MGM" bar:growlevel="0" bar:type="" class="st15" d="M1639,1534c-5.2,8.1-18,14.5-28.9,14.6
		c-6.6,0-13.6-3.1-17.3-7.7c-3.9-4.9-4.6-4-4.1,4.3c1.4,23.8,7.5,42.8,19,59.1c6.7,9.4,23.7,25.6,36.9,35.2
		c6.6,4.7,12.5,8.6,13.2,8.8c1.2,0.3,1.3-1.5,1.3-11.3c0-6.3,0.4-16.6,1.1-22.7s0.8-13.6,0.5-16.7c-1-8.9-5-25.6-8.4-34.7
		c-3.7-10.2-6-18.6-7.5-27.1c-0.6-3.6-1.5-6.2-2.1-6.1C1642.1,1529.8,1640.5,1531.7,1639,1534z"/>
	<path id="structure136_label145_Rad" bar:growlevel="0" bar:type="" class="st16" d="M1857.3,1318.9c-5.2,2.6-6.8,5.7-7.1,13.5
		c-0.4,8.3,2,18,8.4,35.7c6.6,18,13.2,32.9,21.5,47.7c12.6,22.6,19.5,40.1,24.3,61.7c6.9,31.1,7.1,72.1,0.5,109.2
		c-3.6,20.4-1.1,43.1,6.8,60.5c9.3,20.3,24.9,22.3,36.3,4.5c2.7-4.3,18.2-38.2,18.2-39.9c0-1.6-1.2-1.4-4.8,0.6
		c-5.6,3.3-10.1-0.3-13.1-10.4c-2.3-7.5-3.3-15.1-5.5-42.8c-2.4-31-5.1-46.5-12.2-72.3c-8.6-31.5-19.3-57.5-37.4-91.7
		c-27.6-52.3-33.7-66.1-31.3-71.9c2.1-4.9,7.7-2.5,18.8,7.8c17.8,16.7,39.2,48.4,52.3,77.6c22.2,49.5,41.4,118.4,41.4,149
		c0,11.1-1.4,25.1-3.7,35.3c-2.1,9.5-2.1,10.3-0.5,10.3c3.1,0,11.2-20.3,13.8-34.7c1.9-10.1,2.1-37,0.4-51.3
		c-6.1-52.3-14-80.9-31.5-114.3C1924.3,1349.2,1878.1,1308.2,1857.3,1318.9z"/>
	<path id="structure137_label146_MZMG" bar:growlevel="0" bar:type="" class="st17" d="M1687.4,1364.2c-2.2,0.5-3.9,1.4-3.9,2
		c0,0.6,3.1,2.3,7,3.7c19,7,54.8,24.8,69.8,34.5c8.5,5.5,22,19.3,29.6,30c15.9,22.4,31.6,62.1,37.2,94.1c1.8,10.3,1.8,25.6,0.1,33.2
		c-1.6,6.8-8.8,25.2-13.7,34.9c-4.7,9.4-12.9,21-19.3,27.3c-7.3,7.2-7.2,9,0.4,6.4c2.6-0.9,4.3-1,6.1-0.4c1.4,0.5,2.7,0.8,2.9,0.6
		c3.1-4.6,29.1-54.8,30.8-59.5c3.2-9,3.2-31.3-0.1-49.8c-4.4-25-16-60.8-26.4-80.9c-14.1-27.5-43.4-52.3-84.1-71l-12-5.5l-10.3-0.3
		C1695.8,1363.4,1689.4,1363.7,1687.4,1364.2z"/>
	<path id="structure138_label147_DT" bar:growlevel="0" bar:type="" class="st18" d="M1611.5,1357.1c-5.6,2.9-9.5,8.8-10.2,15.6
		c-0.3,2.9-1.6,8.8-3,13.1c-1.3,4.3-2.2,8.5-1.9,9.3c1.1,2.8,7.9,5.4,14.1,5.5c4.9,0,6.9-0.5,12-3c6.7-3.3,9.7-6.7,12.4-13.7
		c2.1-5.6,2.3-15.7,0.4-20.5C1632.6,1356.4,1619.4,1353,1611.5,1357.1z"/>
	<path id="structure139_label148_Zo" bar:growlevel="0" bar:type="" class="st19" d="M1154.1,1064.4c-5.8,0.9-18,5.5-27.7,10.4
		c-15.6,7.7-26.2,17.1-31.2,27.2l-2.5,5.2l-0.3,58.4l-0.3,58.3l6-0.4c5.4-0.4,6.3-0.6,8.5-3.2c4-4.4,4.1-7.6,1-22.9
		c-4-19.4-5-29.5-5-47.4c0.1-18.4,1.4-26.7,6.1-36.7c5.3-11.3,15.1-19.8,32.7-28.4c19.2-9.3,26.5-9.2,90.6,1.5
		c53.4,8.9,69.3,11.1,92.7,12.3c37.4,2,55,5,72.9,12.2c11,4.4,67,29.7,86.8,39.1c45.3,21.5,65.3,36.1,74.2,53.9
		c2.3,4.9,2.8,6.8,2.8,12.2c0,6.5-1.2,9.7-6.3,18.3c-1.2,2.1-1.4,3.3-0.8,4.1c6.4,8.9,10.4,12.4,10.4,9.4c0-0.5,1.6-3.7,3.6-6.9
		c6.5-10.5,9.4-24.4,7.3-35.6c-2.3-12.1-10.9-24.3-22.9-32.3c-6-4-91.5-47.3-119.3-60.5c-45-21.2-53.6-23.4-108-27.4
		c-53.1-3.8-80.3-7.2-109.4-13.5C1183.8,1064.6,1166.1,1062.5,1154.1,1064.4z"/>
	<path id="structure13_label12_InC" bar:growlevel="0" bar:type="" class="st20" d="M1189.1,1573.7c-5.7,9.5-6,10.5-11.4,30.7
		c-6.7,25.3-6.6,25-15.4,42.8c-6.3,12.8-8.3,17.6-9.1,22.7c-0.6,3.6-0.8,6.8-0.5,7c0.3,0.3,5.7-0.3,12.1-1.3
		c32.1-4.9,48.6-13,55.7-27.2c4.9-9.4,7.1-27.8,4.9-38.8c-1.5-7.3-7.3-18.4-13.8-26.5c-6.3-7.8-15.3-16.6-17.1-16.6
		C1193.8,1566.6,1191.5,1569.8,1189.1,1573.7z"/>
	<path id="structure142_label151_Py" bar:growlevel="0" bar:type="" class="st21" d="M1790.6,1034.2c-24.7,4-37.7,8.4-43.1,14.6
		c-2.8,3.1-6.1,10.8-5.1,11.8c0.6,0.6,5-0.4,19-4.6c16.4-4.9,39.9-8.6,53.6-8.6c23.3,0,46.3,6.6,77.8,22.1
		c25,12.4,43.3,25.4,76.9,54.8c21.6,19,41.3,37.6,51.1,48.5c14.9,16.6,32.1,39.9,43.1,58.2c6.4,10.8,9.5,16.8,21.8,42.6
		c5.5,11.6,17.6,30.7,30.7,48.3c8.3,11.2,10.8,16.8,19.8,45c3.5,11.2,9.3,28.7,12.6,39.1c20.6,63.1,27.1,100.4,24.4,140.8
		c-3.4,51.7-13.2,109.7-24,141.8c-5.7,16.8-16.3,39.7-25.9,55.7c-3.2,5.4-6.4,11.3-7,12.9c-0.6,1.7-3.1,5.8-5.7,9.1
		c-12,16-18.5,26.2-18.5,29.3c0,3.4,3.9,7.8,6.8,7.8c5.4,0,47.9-80.3,59.5-112.4c10.3-28.4,17.8-67,24.7-125.2
		c2.9-24,2.9-51.9,0.1-67.7c-2.3-12.9-12.1-53.4-16.8-69.1c-1.6-5.7-4.9-17.5-7.2-26.1c-7.2-27-13.1-46.8-17.3-58.5
		c-7.2-20-17-37.4-26.8-47.8c-4.8-4.9-12.9-16.7-16.6-24.1c-1.1-2.1-3.2-7.2-4.7-11.4c-4.2-12.1-11.9-29.3-16.6-37.7
		c-12.1-21.2-56.7-72.4-88.7-101.8c-17.5-16.1-24-21.6-41-34.3c-42-31.3-94.9-52.8-134.6-54.6
		C1805.9,1032.2,1800.4,1032.6,1790.6,1034.2z"/>
	<path id="structure143_label152_SNCV" bar:growlevel="0" bar:type="" class="st22" d="M1491.4,1909c-13,2.9-36.4,12.7-48.7,20.4
		c-19.2,12.1-30.3,25.3-25.4,30.2c1.9,1.9,11.8,1.3,19.8-1.3c10.4-3.2,47.9-18.4,58.8-23.8c15.3-7.6,21.4-14.7,18.4-21.2
		C1511.6,1908.1,1503.2,1906.4,1491.4,1909z"/>
	<path class="st23" d="M1634,1720c-8.3-1.8-15-2.5-25.7-2.9c-16.7-0.5-26.7,0.4-60.8,6.1c-12.2,2.1-24.1,3.8-26.7,3.8
		c-5.5,0.2-8.8-1.8-11.3-6.7c-4-7.5,0.4-29.8,9.5-47.6c4-7.8,56.7-102.4,64.6-116l4.5-7.6l-0.2-14.5c-0.1-10.9,0.3-15.4,1.3-18.1
		c0.7-2,1.6-5.8,2-8.6c1.8-13.6,11.4-56.6,18.5-82.9c1.9-7.3,3.5-13.4,3.5-13.7c0-0.3-1.7-0.7-3.9-1c-5.1-0.8-13.9-4.9-18.1-8.6
		c-5.3-4.7-9.5-14.7-9.5-22.8c0-2.1-0.5-3.3-1.1-3.3c-0.7,0-2.4,5.4-4.7,14.7c-7.6,32.5-19.5,61.5-32.4,79.4
		c-11.4,15.8-32.5,36.1-48.2,46.5c-19.9,13.1-44,20.5-76.3,23.2c-31.2,2.7-72.4-6.3-118.4-25.8c-6.4-2.7-13.6-5.9-15.9-7.1
		c-2.4-1.2-4.9-2.2-5.7-2.2c-0.8,0-2.8,2.2-4.4,4.7c-3.7,5.8-12.2,13.9-17.9,17.3c-2.3,1.3-7.7,3.9-12.1,5.6
		c-12.2,4.9-25.5,11.3-25.5,12.3c0,0.5,3.6,4.6,7.9,9.1c24.9,25.7,37.9,62.8,30,85.5c-2.6,7.5-10.5,18.7-18.7,26.8
		c-20.8,20.3-47.7,32.3-77.8,34.6l-8.7,0.6l-0.5,3.2c-2,12.1-16.9,26.2-30.7,29.2c-4.5,0.9-5,1.3-4.5,2.9c3,9,3.5,14.3,3.5,35.5
		c0.1,26-0.6,30-6.7,35.5c-2,1.7-4.5,3.4-5.6,3.6c-5.7,1.2-10.9,1.8-16,1.8v113.6c4,0,5-0.4,7.6-2.9c3.1-2.9,8.8-4.9,13.9-4.9
		c3.6,0,3.6-1.8,0.3-6.2c-4.1-5.3-8-12.7-10.5-20.3c-2.1-6-2.3-8.3-2.1-14.4c0.8-14,9.7-32.1,18-36.3c3.9-2,4.3-2,7.3-0.7
		c1.8,0.7,8.4,6.5,15.2,13.3c38.4,38.7,80.1,56.5,119.2,51c17.3-2.4,34.8-10.5,47-21.8c11.8-11,19.6-16.8,30.9-23.4
		c19.3-11.2,39.9-19.7,50.7-21c12.2-1.4,14.7,6.1,8,25c-1.3,3.8-2.2,7.2-1.9,7.5c0.4,0.4,5.9-0.9,12.6-2.8l12-3.3l9-8.3
		c13.1-12.1,45.5-38.5,81.9-67c11-8.6,18.6-13.4,21.3-13.5c0.9,0,1.7-1.1,2.1-3c4.2-19.4,33-36.8,63-38.2c17-0.7,29.8,3,39.3,11.4
		c2.3,2,4.6,3.6,5.1,3.6c0.5,0,3.7-2.8,7.1-6.2c4.5-4.4,8.1-7.1,12.7-9.3c3.5-1.6,6.4-3.4,6.4-4
		C1667.3,1729.2,1647.2,1722.8,1634,1720z M1303.2,1842.9c-7.2,22-14.7,34.1-23.7,38.7c-8.3,4.1-13.2,5-31.1,5
		c-49.3-0.1-72-10-83.3-36.3c-8.4-19.7-14.4-58.3-12.5-80.3c2.7-31.3,16.7-49,43.1-54.5c7.8-1.6,34.7-1,44,1
		c20.4,4.5,31.4,12.1,46.6,31.9c16.6,21.9,23.7,39.9,23.7,60.4C1310,1818.9,1308.3,1827.4,1303.2,1842.9z M1428.4,1748.8
		c-7,24.1-27.5,37.7-62.1,41c-25.4,2.4-42.4-1.4-52.1-11.8c-7.4-7.9-11.1-18.2-11.9-33.3c-0.9-16,3.1-27.7,12.7-37.4
		c13.4-13.5,33.7-19.2,58.8-16.6c25.9,2.7,44.4,12.8,52,28.4c3,5.9,3.4,7.6,3.8,15.5C1429.8,1741.4,1429.5,1744.9,1428.4,1748.8z"/>
	<path id="structure145_label154_MEntR" bar:growlevel="0" bar:type="" class="st24" d="M1724,2093.5c-15.6,4.1-29.3,7.7-30.3,8.1
		c-1.2,0.3-2.1,1-2.1,1.7c0,2.9,19.1,10.6,34.3,13.9c14.3,3.2,63.8,9.5,64.8,8.5c3.9-4.4,15.2-20.2,15.2-21.1s-2.5-1.4-12.3-1.8
		c-13.9-0.6-23-2.3-29.1-5.4c-3.4-1.7-4.3-2.8-5.9-6.8c-1.5-4-2.2-4.7-4.1-4.6C1753.3,2086,1739.6,2089.4,1724,2093.5z"/>
	<path class="st25" d="M1097.2,1468.4c-2.3-2.5-4.1-4.9-4.1-5.4c0-0.4-0.8-0.8-1.8-0.8v69.3c1.1-0.1,2.2-0.8,2.6-2
		c0.4-1.1,1-9.3,1.4-18.2c0.5-15.9,1.8-25.5,4.7-33.9l1.4-4.3L1097.2,1468.4z"/>
	<path id="structure149_label158_ml" bar:growlevel="0" bar:type="" class="st26" d="M1391.7,1847.1c-6,9-17,21.7-30.5,35.4
		c-10.7,10.8-50.6,48.3-69.1,65.1c-16.7,15-48.1,39.1-66,50.4c-4.9,3.1-8.8,6-8.8,6.7c0,0.5,1.9,1.9,4.1,3
		c18,8.7,49.5-5.6,92.3-42.1c14.4-12.2,44.9-43,53.7-54.2c21.9-27.6,34.6-54.1,32.1-67C1398.7,1839.3,1396.4,1840.1,1391.7,1847.1z"
		/>
	<path id="structure14_label13_Su3" bar:growlevel="0" bar:type="" class="st27" d="M1157.1,1566.8c-11.1,1-23.4,3.8-29.3,6.4
		c-6.3,3-15,9.7-17.9,13.9c-1.7,2.4-2.4,4.6-2.4,7.2c0,3.5,0.4,4.2,5.1,8.6c17.5,16.1,25,23.3,31.8,30.7c4.1,4.5,8.1,8.2,8.7,8.2
		c1.3,0,12.2-14.6,15.2-20.3c3.1-6.1,8.4-19.1,11.3-27.7c1.4-4.1,4.6-11.3,7.1-16c2.4-4.6,4.5-8.9,4.5-9.6
		C1191.2,1565.8,1174.4,1565.1,1157.1,1566.8z"/>
	<path id="structure155_label165_dcw" bar:growlevel="0" bar:type="" class="st28" d="M1438.7,846.7c-11.8,0.7-18.9,2.9-23.8,7.3
		c-6.6,5.8-7.1,11.5-3.1,34.5c11.6,65.2,41.1,107.3,77,110c5.7,0.4,7.2,0.2,12.2-1.9c3.2-1.3,10.5-3.5,16.5-5
		c18.7-4.5,31.6-9.5,67.5-26.1c31.2-14.4,43.6-18.6,65-22.1c19.9-3.2,50-3.2,71.5,0c11.3,1.6,13.4,1.7,13.4,0.2
		c0-0.7-5.1-2.5-14.1-4.9c-54.8-14.5-123.1-24.5-192.9-28.1c-20.1-1.1-25.7-1.6-24.9-2.3c1-1.1,55.5,2.8,85.7,5.9
		c66.2,7.1,126.8,19.5,170.5,35.1c6.7,2.4,19,6.7,27.4,9.5c102.3,34.3,200.3,90.8,257.5,148.5c57.5,58.1,118.1,166.4,146.5,261.9
		c15.2,50.9,21,92.3,22,156.1c1.1,74.3-6.3,142.5-22.7,208.6c-10.5,42.5-22.2,74.6-39.7,109.2c-37.3,73.5-81.5,124.7-135.9,157.2
		c-36.3,21.6-95.2,43.9-155.3,58.8c-18.6,4.6-20.4,6.1-8.7,7.6c4.1,0.5,7.4-0.1,20.6-3.6c95.8-25.3,153.6-52.3,200.9-93.8
		c8.7-7.7,22.8-22.2,42.4-44.2c43.6-48.4,71.8-115,91.4-215.3c4.2-21.4,5.9-30.6,14.1-75.2c3.7-20.3,6.9-45.2,9.1-69
		c2.2-24.8,2.2-91.5,0-115c-8.2-87.6-28.3-160.2-63.6-230.3c-12.1-23.8-20.8-38.6-38.9-65.8c-27.2-40.7-39.8-56.3-68.6-85.1
		c-20.9-20.8-33.9-32.1-54.9-47.9c-31.4-23.4-68.5-45.1-103.6-60.5c-6.9-3.1-18.6-8.3-26.1-11.7c-58.4-26.5-113.8-43.7-201.3-62.5
		c-26.7-5.8-135-27.2-141.6-28c-7.5-1-20.1-4-31.5-7.3c-8.3-2.4-13.4-3.4-22-4C1458.6,846.2,1447.9,846.1,1438.7,846.7z"/>
	<path id="structure156_label166_alv" bar:growlevel="0" bar:type="" class="st8" d="M1662.4,942c-4.4,0.5-12.5,1.7-18,2.8
		c-20.4,3.8-29.8,7.2-64.8,23.3c-32,14.8-45.7,19.9-65.7,24.8c-12.2,3-21.1,7.2-29,13.9c-7.9,6.7-8.2,8.6-1.3,11.1
		c9.9,3.3,19.6,4.6,32.5,4.1c15.7-0.5,22.1-2.4,45-13.2c49.1-23.2,91.2-35.8,131.8-39.7c15.8-1.4,44.6-0.6,58.5,1.8
		c15.6,2.7,22.9,4.6,44.6,11.7c74.8,24.4,144.4,62.8,203.4,112.2c41.2,34.6,79,76.3,98.2,108.4c43.1,72.3,73.1,142.8,89.9,211.9
		c16.6,67.7,19.1,119.6,9.9,205.2c-12.1,111.6-41.9,202.9-89.6,274.3c-19.4,29.2-43.6,57.2-63.6,73.7c-19.1,15.8-41.8,30.3-66,42.1
		c-24.1,11.7-29.6,13.8-99.2,37c-16.7,5.6-24.6,8.5-24.6,9.4c0,2.1,3.5,1.5,23.1-3.8c47.6-12.7,103.3-34.3,132.2-51.2
		c58.1-34,104.4-87.7,142.1-164.7c32.2-65.7,51.5-147.6,58.1-247c1.5-21.5,1.5-83.3,0.1-103.1c-1.4-19.9-4.2-44.6-6.6-57.9
		c-12.8-74.4-46.7-158.8-94.6-235.5c-41.3-66.1-79.7-105.9-141.4-146.6c-52.7-34.7-115.8-65.1-181.5-87.4
		c-25-8.5-44.5-13.1-67.5-16.2C1706,941.6,1673.5,940.9,1662.4,942z"/>
	<path class="st29" d="M1113.6,1604.4c-0.9,0-1.2,2.5-1.3,11c-0.1,7.6-0.8,15-2.3,23.8c-3.1,17.2-7,24.9-11.3,22.2
		c-7.4-4.6-7.3-35.4,0.2-58.7c0.6-2,0.5-2-7.6-2c0,0-0.1,0-0.1,0v135c3,0,8.5,2.2,11.9,4.7c0.8,0.6,1.8,0.8,2.2,0.5
		c0.3-0.4,0.6-4.9,0.7-10.1c0.1-11.3,0.2-11.3,12.8-19.4c4.6-3,9.7-7,11.4-9.1c3.9-4.5,7-12.6,9.6-25.1c3.2-15.1,5-20.8,9-27.2
		c2-3.3,3.6-6.6,3.6-7.2C1152.5,1641.4,1115.2,1604.4,1113.6,1604.4z"/>
	<path id="structure167_label184_mp" bar:growlevel="0" bar:type="" class="st30" d="M1227.2,2037c-1.3,0.3-2.6,0.8-3.1,1.3
		c-0.5,0.5-1.6,0.8-2.4,0.8c-2.3,0-10.5,7.8-12.7,12.1c-2.3,4.4-3.1,14.3-1.7,18.7c0.5,1.7,2.4,4.5,4.1,6.1c2.7,2.6,3.9,3.1,8.4,3.4
		c4.3,0.3,6,0,9.7-1.9c10.8-5.5,17.5-14.5,17.5-23.4c0-2.9-0.5-6.5-1.3-8.1c-1.5-3.8-5.9-7.5-10.3-8.7
		C1232.1,2036.4,1231.1,2036.3,1227.2,2037z"/>
	<path class="st31" d="M1279.5,1453.6c-2.6-12.1-7.1-23.8-9.1-23.8c-0.9,0-6.8,2.4-13.1,5.4c-26.4,12.4-41.7,17.3-54.9,17.5
		c-7.5,0.1-8.6-0.2-14.2-2.9c-4.2-2.1-6.9-4.2-9.2-7c-4.3-5.8-4.9-10.4-2.6-21.8c0.4-2,0.3-2.9-0.5-2.9c-0.5,0-4.8,3.5-9.3,7.7
		c-16.9,15.9-45.7,31.8-66.3,36.5c-2.8,0.6-4.5,1.5-4.5,2.3c0,1.5,4.3,6,6.3,6.8c1.2,0.4,1.2,0.9-0.3,3.9
		c-2.9,5.9-4.2,14.8-5.2,34.2c-1.1,19.8-1.8,22.9-5.3,22.9v68.4c5.1,0,10.3-0.4,12.6-1.1c3.4-1.1,3.5-1.3,3.1-4.3
		c-0.6-4.5,2.4-9.3,9.5-15c7.5-5.9,13.3-8.8,22.7-11.1c12.1-2.8,22.7-3.8,39.1-3.4l15.4,0.3l4.5-5.4c8.5-10.3,20.9-18.3,40.8-26.6
		c17.7-7.4,21.5-9.5,28.4-16.6c7.1-7.1,12.2-16,14-24.6C1282.7,1486,1281.7,1464.1,1279.5,1453.6z"/>
	<path id="structure170_label190_PrEW" bar:growlevel="0" bar:type="" class="st32" d="M1100.9,1601.5c-4.4,4.9-7.3,21.7-6.8,40.1
		c0.3,10.3,0.6,13.3,2.1,16.3c3.2,6.6,7.4,4.8,10.3-4.5c2.3-7.6,5.7-29.9,5.7-38.3c0-9.9-2.6-15.3-7.4-15.3
		C1103.5,1599.9,1101.7,1600.6,1100.9,1601.5z"/>
	<path id="structure171_label191_mtg" bar:growlevel="0" bar:type="" class="st33" d="M1107.2,1731.9c-1.3,1.3-0.5,13.5,1.6,26
		c3.6,21,2.9,35.2-2.3,45.7c-1.4,3-2.6,5.7-2.6,6.1c0,0.4,1.2,0.7,2.7,0.7c3.4,0,8.4-4.3,10.3-9.1c4.7-11.5,3.4-58.1-1.7-66
		C1112.8,1731.9,1108.9,1730.2,1107.2,1731.9z"/>
	<path id="structure172_label192_mlf" bar:growlevel="0" bar:type="" class="st34" d="M1168.6,1620.8c-1.2,2.6-5.8,9.5-10.2,15.6
		c-10.6,14.4-14.3,22.2-17.1,36.4c-4.6,23-8,29.5-19.8,37.1c-11.6,7.5-14.8,10.3-15.5,13.7c-0.6,3.7,0.7,6.5,3.4,7.4
		c1.2,0.3,2.8,1.2,3.6,2c3.7,3.1,17.8-2.4,27.2-10.8c9.3-8.3,11.3-14.2,11.3-33.4c0.1-18.8,1.4-23.8,10.2-41.1
		c7.4-14.2,11.4-24.8,11.4-29.3C1173.2,1614.6,1171,1615.8,1168.6,1620.8z"/>
	<path id="structure176_Unlabeled-2901-1880_Cx" bar:growlevel="0" bar:type="" class="st35" d="M2080.4,1961.3
		c-3.6,3.8-18.7,16.7-26.6,22.6c-37.1,27.8-81.1,48.9-140.7,67.2c-26.5,8.2-55.6,15.8-60.5,15.8s-10-1.4-10.9-2.9
		c-0.5-0.7-1.3-0.8-2.5-0.2c-2.2,0.9-28,34.3-28,36.1c0,0.6,0.5,1.2,1.3,1.2c2.9,0,14.1-3.1,28.7-7.7c17.7-5.7,19.8-6,48.8-8.5
		c11.9-1,30.2-2.9,40.6-4.1c64-7.7,87.6-14.7,165.8-49.4c37-16.5,44.2-19.4,46.9-19.4c1.1,0,1.9-0.5,1.9-1.2
		c0-1.3-59.4-51.3-61.5-51.8C2083.1,1959.1,2081.6,1960,2080.4,1961.3z"/>
	<path id="structure177_label143_PBP" bar:growlevel="0" bar:type="" class="st36" d="M1402.5,1870.1l-9.6,2.7l-3.8,6.9
		c-4,7.2-11.1,18.1-15.4,23.6c-2.6,3.5-3.3,6.2-1.3,6.2c1.3,0,42.4-39.4,42.8-41.1C1415.6,1866.7,1413.3,1867,1402.5,1870.1z"/>
	<path id="structure178_Unlabeled-2601-801_Unlabeled" bar:growlevel="0" bar:type="" class="st37" d="M1810.4,989.1
		c0,0.6-1.5,1.9-3.3,2.8c-18.6,8.8-42.7,28.3-52.4,42.3c-5.2,7.6-4.8,11.6,1.1,8.5c4-2.2,21.4-6.2,36.2-8.5
		c12.1-1.8,16.9-2.2,23-1.7c41.2,3.3,91.6,24.1,132.7,54.7c16.9,12.7,23.5,18.2,41,34.3c31.9,29.3,76.6,80.6,88.6,101.8
		c4.8,8.5,12.4,25.7,16.6,37.7c1.5,4.2,3.6,9.4,4.7,11.4c3.7,7.4,11.8,19.2,16.6,24.1c9.8,10.3,19.6,27.8,26.8,47.8
		c4.2,11.7,10.1,31.5,17.3,58.5c2.3,8.6,5.6,20.4,7.2,26.1c4.7,15.8,14.5,56.3,16.8,69.1c2.8,15.8,2.8,43.6-0.1,67.7
		c-6.8,58.2-14.4,96.8-24.7,125.2c-8.6,23.9-36.4,78.9-52.6,104.1c-6.6,10.3-6.6,10.4,3.2,9.9c14.2-0.9,30.7-9.4,45.7-23.5
		c4-3.9,8.2-6.9,9.2-6.9c1.4,0,2.4-2.3,6.3-15.6c15.4-52.1,24.8-104.9,30.3-172.5c2.1-24.1,2.7-63.2,1.4-81
		c-7-96.5-42-197.8-104.4-302.4c-19.2-32-57-73.8-98.2-108.4c-50.4-42.2-105.8-74.8-171.5-101
		C1812.9,987.7,1810.4,987.1,1810.4,989.1z"/>
	<path class="st38" d="M1369.8,1504.4c-26.7-53.7-56.7-95.9-96.1-135.4c-18.9-18.9-26.4-25.3-41.2-35.1c-28.6-19-61-29.7-99.2-32.8
		c-5.4-0.4-23.8-0.7-41.9-0.7v32.4c28.2-0.3,47.2,2.7,71.5,10.7c31.9,10.5,69,33.8,87.5,54.5c21.1,23.8,30.5,46.7,32.2,78.1
		c0.5,10.8,0.2,13.8-3.6,25.4c-0.6,1.8,0,2.3,6.4,5.3c32.4,14.8,63.5,25.2,89.5,29.7c5,0.9,9.3,1.3,9.6,1
		C1385.2,1536.6,1380.7,1526.4,1369.8,1504.4z"/>
	<path id="structure180_Unlabeled-1932-887_Unlabeled" bar:growlevel="0" bar:type="" class="st37" d="M1208.3,1067.5
		c0,2.5,0.4,2.6,18,6.2c22.5,4.6,51.4,7.9,99,11.3c14.1,1,30.5,2.4,36.5,3.1c28.7,3.6,43.6,9.7,131.8,54.1
		c25,12.6,45.8,22.9,46.2,22.9c0.4,0,0.6-0.6,0.6-1.3c0-1.9,2.4-1.7,9,0.9c23.2,9.1,54.6,13.7,70.5,10.4c2.9-0.5,6.3-0.8,7.5-0.5
		c1.9,0.5,3.3-0.4,8.7-5.4c7.7-7.2,12.8-10.6,19.8-13.1c3.6-1.4,5.1-2.3,5.1-3.4c0-2.9,25.6-22.1,45.1-33.8
		c12.7-7.7,28-14.9,37.8-18.1c4.4-1.3,8-3,8-3.6c0-0.5-2.2-2.3-4.9-3.8c-8.6-4.9-11.2-11.3-8.3-21.1c1.8-6.2,1.8-6.9,0-6.9
		c-2.4,0-24.5,9-50.8,20.7c-28.5,12.7-41.1,17.1-57.9,20.2c-28.1,5.2-52.9,5.2-113.2,0.1c-39.5-3.3-47.3-4.4-58.7-8.2l-7-2.3l-4,4.1
		c-2.6,2.7-4,4.9-4,6.4c0,1.3-0.3,2.3-0.5,2.3c-0.4,0-5.8-2.6-12-5.8c-6.2-3.1-14.9-7.3-19.4-9.1c-4.4-1.8-8.9-3.6-9.9-4
		c-3.2-1.4-17.8-5.3-24.8-6.8c-14-2.8-24.8-3.8-55.8-5c-45-2-76.5-5.3-102.2-10.9C1208.5,1064.8,1208.3,1064.8,1208.3,1067.5z"/>
	<path id="structure182_Unlabeled-2434-1203_Unlabeled" bar:growlevel="0" bar:type="" class="st37" d="M1658.3,1350.3
		c-10.4,1.3-24.3,6.4-24.3,8.8c0,0.6,0.6,2.6,1.3,4.3c1.9,4.7,1.7,14.8-0.4,20.4c-2.7,7-5.8,10.4-12.4,13.7
		c-8.2,4-15.7,4.1-22.2,0.4c-2.4-1.3-4.7-2.4-5-2.4s-1.1,1.7-1.7,3.7c-1.3,4.3-1.6,4.1,7.1,8.3c5.2,2.5,6.8,2.9,13.5,2.9
		c6.3,0,8.4-0.4,11.7-2.2c4.8-2.5,12.9-8.6,16.6-12.6c1.5-1.5,3.2-2.8,3.9-2.8s1.2-0.5,1.2-1.3c0-2.1,9.5-11.9,15.7-16.3
		c7.4-5.1,14.3-8.6,17.6-8.6c1.4,0,2.7-0.4,2.7-0.8c0-1.4,8.7-2.8,18-2.8c10.2,0,11-0.7,5.6-4.8c-2.3-1.8-3.9-2.3-5.4-2
		c-1.2,0.3-4.7-0.3-7.7-1.3C1682.8,1351.5,1666.5,1349.2,1658.3,1350.3z"/>
	<path id="structure184_Unlabeled-2582-1514_Unlabeled" bar:growlevel="0" bar:type="" class="st37" d="M1793,1630.6
		c-0.9,0.5-2.6,0.7-3.9,0.5c-1.6-0.5-3.5,0.4-7.3,3c-32.5,22-86.9,25.4-114.2,7.1c-3.6-2.3-6.9-4.3-7.5-4.3c-0.6,0-1,2.3-1,6.5
		c0,6.4,0.1,6.6,3.4,9.4c8.5,7.7,20.6,11.4,41.4,12.8c24.8,1.7,43.6-1.6,62.1-10.8c6.1-3.1,11.3-5.2,11.7-4.9c0.3,0.4,0,1.9-0.6,3.5
		c-2.1,5.1-2.3,6.9-0.6,6.9c1,0,1.4,0.8,1.4,2.7c0,2.2,0.4,2.7,1.9,2.7c7.7,0,25.1-22,25.1-31.5c0-3.1-0.3-3.4-2.8-4
		C1798.2,1629.3,1794.9,1629.5,1793,1630.6z"/>
	<path id="structure186_Unlabeled-2889-1641_Unlabeled" bar:growlevel="0" bar:type="" class="st37" d="M2068.3,1747.2
		c-4.9,7.4-16.8,18.9-25.8,24.8c-8.8,5.9-21.5,12.1-31.8,15.5c-8.6,2.9-24.8,6.7-29.3,6.8c-2.8,0.1-4.1,1.1-10.3,7.9
		c-18.9,20.5-50.1,52.1-56.6,57.3c-7.8,6.2-17.5,11.6-26.5,14.7c-3.1,1.1-18.6,5.8-34.6,10.4c-53.1,15.5-85,26.4-108.5,36.8
		c-32,14.2-74.3,44.5-93.1,66.8c-3,3.4-7.5,7.8-10.2,9.8c-3.6,2.7-4.8,4.1-4.9,5.9c0,1.3-1,4.6-2.3,7.3c-5.8,12.8-8,30.7-5.5,45.9
		c5.3,32.5,22.9,58.1,48.8,71.2c32.5,16.4,145.7,36,232.2,40.1c19.3,1,51.6,0,75.5-2.2c86.9-7.9,165.9-34.4,241.9-81.1
		c2.3-1.4,4.2-3,4.2-3.5c-0.1-1-25.3-22-28-23.3c-1.2-0.5-2.3-0.2-4.5,1.6c-6.1,5.1-30.4,16-63.8,28.4
		c-25.2,9.4-69.1,24.6-86.4,29.8c-65.3,19.9-129.3,26.9-168.6,18.4c-13-2.9-24.8-4.3-60-7.7c-47.2-4.5-78.9-8.5-94.4-11.9
		c-15.2-3.2-34.3-11-34.3-13.9c0-0.7-0.8-1.3-1.9-1.3c-1,0-4.1-2.3-7.1-4.9c-15.3-14.7-16.5-34.9-3.3-60.3
		c4.9-9.4,16.6-21.3,28.5-29.2c29.3-19.3,77.6-37,165.1-60.8c64.4-17.4,76-20.6,89.1-24.9c35.9-11.6,54.8-21.6,75.2-39.8
		c10-8.9,24.4-24.1,33.8-35.9c7.5-9.3,28.2-40,28.2-41.9c0-0.6-0.5-1.2-1.2-1.2c-1.7,0-6-4.8-6-6.6c0-1.1-0.7-1.5-2.3-1.5
		c-3.1,0-8.6-6-12.1-13.1c-3.9-8-4.9-14.8-4.3-28.4C2074.1,1740,2073.6,1739.3,2068.3,1747.2z"/>
	<path id="structure188_Unlabeled-2753-1946_Unlabeled" bar:growlevel="0" bar:type="" class="st37" d="M1943.6,2019.8
		c-6.7,1.7-32.2,7.6-56.7,13.1c-74,16.6-93.7,22-108,29.9c-11.3,6.3-18,13.1-20.8,20.6c-1,3-1,3.9,0.6,7.6c1.3,3.3,2.5,4.7,5.8,6.3
		c5.8,3.1,15,4.8,28.4,5.4c13.6,0.6,18.4,0,18.4-2.3c0-1.3,22.4-31.8,26.1-35.6c0.4-0.4,4.3-1.7,8.6-2.8c7.4-1.8,8-2.2,8.3-4.3
		c0.3-2.3,1.4-2.8,25.2-10.7c13.7-4.6,32.4-10.8,41.6-13.9c23.1-7.7,38.7-14,38.7-15.4C1959.8,2016.1,1957.4,2016.4,1943.6,2019.8z"
		/>
	<path id="structure18_label17_PIL" bar:growlevel="0" bar:type="" class="st39" d="M1600.5,1647.1c-23.9,2.9-51.3,10.7-70.6,20.3
		l-11,5.3l-2.7,6.7c-8.7,20.9-10.4,37.4-4.4,44.4c3.3,3.9,7.9,3.7,36.2-0.9c36.1-5.8,39.9-6.3,55.4-6.3l13.9-0.1l1.1-15.3
		c1.2-18.2,4-33.7,6.9-38.8c3.2-5.3,8.2-9.9,13.7-12.2c8.5-3.7,6.6-4.3-12.1-4.2C1617.7,1646,1605.8,1646.5,1600.5,1647.1z"/>
	<path id="structure19_label18_SNL" bar:growlevel="0" bar:type="" class="st40" d="M1589.5,1735.9c-24.8,3.3-47.5,17.1-54,32.6
		c-2.3,5.8-2,6.9,2.6,6.9c5.7,0,18.2,2.3,26.8,5c14.5,4.5,23.1,10.8,28.9,21.1c4.4,7.9,11,24.5,13,32.8c2.1,8.5,3.6,8.6,5.8,0.5
		c0.8-3.2,4-15.6,7.1-27.5c6.1-23.8,10.4-35.9,16.7-46.7c2.3-4,4-7.8,4-8.7c0-3.8-13-12.2-23-14.7
		C1610.8,1735.4,1597.2,1734.8,1589.5,1735.9z"/>
	<path class="st41" d="M1154.9,2111.2c-8.5-9.1-10-16.1-5.2-25c2.9-5.2,3.4-7.5,2-7.5c-0.5,0-3.6,0.6-7,1.4
		c-14.6,3.4-35.1,5.4-53.4,5.7v42.8c0.5,0,0.9,0,1.3,0h30.6l10.3-2.9c13-3.5,24.6-7.7,25-9.1
		C1158.8,2116,1157.2,2113.5,1154.9,2111.2z"/>
	<path id="structure20_label19_PoT" bar:growlevel="0" bar:type="" class="st42" d="M1573.4,1575.3c-7.2,12.8-15.4,27.4-18.3,32.7
		c-2.8,5.2-11.5,20.9-19.4,34.8c-7.8,13.9-14.2,25.8-14.2,26.4c0,1.5,1.5,1.1,10.6-3.2c10.9-5.2,31.5-12.1,45.4-15.1
		c19.7-4.4,28.6-5.3,51.3-5.4c13.7-0.1,21.4-0.4,21.3-1c0-0.5-3.7-3.5-8.3-6.8c-10.8-7.7-29.7-26.4-35.7-35.4
		c-8.7-13.1-14.1-27.4-16.4-42.7c-0.6-4.6-1.5-7.5-2.2-7.5S1580.6,1562.6,1573.4,1575.3z"/>
	<path id="structure21_label20_SubB" bar:growlevel="0" bar:type="" class="st43" d="M1644.8,1648.1c-9.4,2.5-16.4,8.2-19.7,15.8
		c-2.4,5.6-5.3,22.6-5.9,35.2c-0.3,5.6-0.7,11.9-0.9,13.9c-0.4,3.8-0.4,3.8,3,4.3c11.5,1.9,26.6,5.6,36.7,9c11.3,3.8,12.2,4,19,3.4
		c4.6-0.4,8.4-0.1,10.4,0.5c3.4,1.2,8.7,6.4,8.7,8.6c0,2.8,2.5,1.2,5.6-3.4c7.6-11.3,18-21.2,33.9-32c5.8-4,12.7-9.5,15.5-12.4
		c11.9-12.2,29.2-38.9,26.7-41.3c-0.4-0.3-5.6,1.9-11.7,4.9c-18.5,9.2-37.3,12.5-62.1,10.8c-19.9-1.3-33.4-5.3-40.3-11.8
		C1656,1646.4,1653.7,1645.8,1644.8,1648.1z"/>
	<path class="st44" d="M1634,1720c-8.3-1.8-15-2.5-25.7-2.9c-16.7-0.5-26.7,0.4-60.8,6.1c-12.2,2.1-24.1,3.8-26.7,3.8
		c-5.5,0.2-8.8-1.8-11.3-6.7c-4-7.5,0.4-29.8,9.5-47.6c4-7.8,56.7-102.4,64.6-116l4.5-7.6l-0.2-14.5c-0.1-10.9,0.3-15.4,1.3-18.1
		c0.7-2,1.6-5.8,2-8.6c1.8-13.6,11.4-56.6,18.5-82.9c1.9-7.3,3.5-13.4,3.5-13.7c0-0.3-1.7-0.7-3.9-1c-5.1-0.8-13.9-4.9-18.1-8.6
		c-5.3-4.7-9.5-14.7-9.5-22.8c0-2.1-0.5-3.3-1.1-3.3c-0.7,0-2.4,5.4-4.7,14.7c-7.6,32.5-19.5,61.5-32.4,79.4
		c-11.4,15.8-32.5,36.1-48.2,46.5c-19.9,13.1-44,20.5-76.3,23.2c-31.2,2.7-72.4-6.3-118.4-25.8c-6.4-2.7-13.6-5.9-15.9-7.1
		c-2.4-1.2-4.9-2.2-5.7-2.2c-0.8,0-2.8,2.2-4.4,4.7c-3.7,5.8-12.2,13.9-17.9,17.3c-2.3,1.3-7.7,3.9-12.1,5.6
		c-12.2,4.9-25.5,11.3-25.5,12.3c0,0.5,3.6,4.6,7.9,9.1c24.9,25.7,37.9,62.8,30,85.5c-2.6,7.5-10.5,18.7-18.7,26.8
		c-20.8,20.3-47.7,32.3-77.8,34.6l-8.7,0.6l-0.5,3.2c-2,12.1-16.9,26.2-30.7,29.2c-4.5,0.9-5,1.3-4.5,2.9c3,9,3.5,14.3,3.5,35.5
		c0.1,26-0.6,30-6.7,35.5c-2,1.7-4.5,3.4-5.6,3.6c-5.7,1.2-10.9,1.8-16,1.8v113.6c4,0,5-0.4,7.6-2.9c3.1-2.9,8.8-4.9,13.9-4.9
		c3.6,0,3.6-1.8,0.3-6.2c-4.1-5.3-8-12.7-10.5-20.3c-2.1-6-2.3-8.3-2.1-14.4c0.8-14,9.7-32.1,18-36.3c3.9-2,4.3-2,7.3-0.7
		c1.8,0.7,8.4,6.5,15.2,13.3c38.4,38.7,80.1,56.5,119.2,51c17.3-2.4,34.8-10.5,47-21.8c11.8-11,19.6-16.8,30.9-23.4
		c19.3-11.2,39.9-19.7,50.7-21c12.2-1.4,14.7,6.1,8,25c-1.3,3.8-2.2,7.2-1.9,7.5c0.4,0.4,5.9-0.9,12.6-2.8l12-3.3l9-8.3
		c13.1-12.1,45.5-38.5,81.9-67c11-8.6,18.6-13.4,21.3-13.5c0.9,0,1.7-1.1,2.1-3c4.2-19.4,33-36.8,63-38.2c17-0.7,29.8,3,39.3,11.4
		c2.3,2,4.6,3.6,5.1,3.6c0.5,0,3.7-2.8,7.1-6.2c4.5-4.4,8.1-7.1,12.7-9.3c3.5-1.6,6.4-3.4,6.4-4
		C1667.3,1729.2,1647.2,1722.8,1634,1720z M1303.2,1842.9c-7.2,22-14.7,34.1-23.7,38.7c-8.3,4.1-13.2,5-31.1,5
		c-49.3-0.1-72-10-83.3-36.3c-8.4-19.7-14.4-58.3-12.5-80.3c2.7-31.3,16.7-49,43.1-54.5c7.8-1.6,34.7-1,44,1
		c20.4,4.5,31.4,12.1,46.6,31.9c16.6,21.9,23.7,39.9,23.7,60.4C1310,1818.9,1308.3,1827.4,1303.2,1842.9z M1428.4,1748.8
		c-7,24.1-27.5,37.7-62.1,41c-25.4,2.4-42.4-1.4-52.1-11.8c-7.4-7.9-11.1-18.2-11.9-33.3c-0.9-16,3.1-27.7,12.7-37.4
		c13.4-13.5,33.7-19.2,58.8-16.6c25.9,2.7,44.4,12.8,52,28.4c3,5.9,3.4,7.6,3.8,15.5C1429.8,1741.4,1429.5,1744.9,1428.4,1748.8z"/>
	<path id="structure26_label26_APir" bar:growlevel="0" bar:type="" class="st45" d="M2133.5,2015.6c-4.7,1.9-23.3,10-41.3,18
		c-38,16.9-52.6,22.9-72.5,29.4c-35.7,11.8-66.3,17-134.1,22.9c-26.9,2.3-27.4,2.4-46,8.5c-8.4,2.7-18.7,5.7-23.1,6.6l-7.8,1.6
		l-8.1,10.5c-4.5,5.8-8.1,11.2-8.1,11.9c0,1.5,0.4,1.6,32.4,4.6c30.4,2.9,42.8,4.5,55.5,7.3c39.2,8.5,103.3,1.4,168.6-18.4
		c8.2-2.4,27-8.7,41.8-13.9c72-25,110.4-41.5,110.2-47.3c0-1.4-41.8-37.1-50.6-43.2C2146.4,2011.3,2143.4,2011.6,2133.5,2015.6z"/>
	<path id="structure27_label27_VS" bar:growlevel="0" bar:type="" class="st46" d="M2154.7,1781.4c-8.8,8.5-21,16.5-30.6,20.2
		c-5.5,2.2-9.3,3-15.9,3.4l-8.7,0.5l-10.8,16.2c-12.2,18.4-20.2,28.6-33.5,42.9c-28.3,30.3-49,43.1-93.1,57.3
		c-13.1,4.3-24.8,7.6-89.1,24.9c-87.6,23.8-135.8,41.5-165.1,60.8c-12,7.8-23.7,19.8-28.5,29.2c-10.1,19.5-11.8,36.1-5,49.4
		c2.4,4.9,11.2,14.6,13.9,15.4c0.9,0.3,16.8-3.4,35.6-8.3c31.6-8.2,33.9-8.9,34.8-11.1c2-4.5,6.5-10,10.9-13.3
		c16.4-12.2,31.9-17,118-36.2c24.8-5.5,54.4-12.4,65.7-15.3c18.3-4.6,22-5.8,31.5-10.6c50.7-25.4,87.5-59,123.3-112.7
		c20.6-31,37.8-65.3,51.4-102.8C2166.4,1771.7,2165.9,1770.7,2154.7,1781.4z"/>
	<path id="structure28_label28_Or" bar:growlevel="0" bar:type="" class="st47" d="M1857.3,1318.9c-5.2,2.6-6.8,5.7-7.1,13.5
		c-0.4,8.3,2,18,8.4,35.7c6.6,18,13.2,32.9,21.5,47.7c12.6,22.6,19.5,40.1,24.3,61.7c6.9,31.1,7.1,72.1,0.5,109.2
		c-3.6,20.4-1.1,43.1,6.8,60.5c9.3,20.3,24.9,22.3,36.3,4.5c2.7-4.3,18.2-38.2,18.2-39.9c0-1.6-1.2-1.4-4.8,0.6
		c-5.6,3.3-10.1-0.3-13.1-10.4c-2.3-7.5-3.3-15.1-5.5-42.8c-2.4-31-5.1-46.5-12.2-72.3c-8.6-31.5-19.3-57.5-37.4-91.7
		c-27.6-52.3-33.7-66.1-31.3-71.9c2.1-4.9,7.7-2.5,18.8,7.8c17.8,16.7,39.2,48.4,52.3,77.6c22.2,49.5,41.4,118.4,41.4,149
		c0,11.1-1.4,25.1-3.7,35.3c-2.1,9.5-2.1,10.3-0.5,10.3c3.1,0,11.2-20.3,13.8-34.7c1.9-10.1,2.1-37,0.4-51.3
		c-6.1-52.3-14-80.9-31.5-114.3C1924.3,1349.2,1878.1,1308.2,1857.3,1318.9z"/>
	<path id="structure29_label29_MGV" bar:growlevel="0" bar:type="" class="st48" d="M1785.2,1442c-6.8,4.4-26.5,13.9-37.2,17.8
		c-23.3,8.6-41.8,11.4-77.2,11.7l-24,0.1l-0.5,5.4c-0.3,3-1.2,12.1-2,20.3c-2.3,24.1-0.5,39.3,7.7,63.9c5.6,16.8,9,32.1,9.1,40.9
		c0.1,3-0.4,11.4-1,18.7c-0.8,10.4-0.8,13.6,0.1,14.7c0.5,0.7,4,3.2,7.5,5.6c24.5,16.4,71.5,15.6,104.9-1.7
		c21.4-11.2,35.3-28.3,47.5-58.7c7-17.6,8.7-25.6,8-38.4c-1-16.6-4.9-33-13.9-58.4c-7.7-21.9-19.4-45.1-22.7-45.1
		C1790.8,1438.8,1787.9,1440.3,1785.2,1442z"/>
	<path class="st49" d="M1151.5,2020.9c-18.7-13.4-39.3-20.3-60.2-20.3v84.8c19.1,0,38.4-2.2,57-6.3l6.1-1.4l8.9-17.9
		c5-9.8,9-18.7,9-19.6C1172.3,2037.9,1162,2028.4,1151.5,2020.9z"/>
	<path id="structure30_label30_SG" bar:growlevel="0" bar:type="" class="st50" d="M1642.5,1395.7c-7.4,7.8-17.7,14.1-24.6,14.9
		l-4.3,0.4l-7.3,29.4c-7.6,30.4-13.7,58.6-13.7,63.2c0,3.1,1.7,3.4,4,0.9c0.8-0.9,4-2.8,7.1-4.2c6.3-2.9,15.2-3.5,21.9-1.4
		c5,1.4,11.7,6.1,13.6,9.3c2.6,4.5,3.6,3.2,4.2-5.8c0.4-4.5,1.9-18.8,3.3-31.7c3.2-27.2,4.2-51.8,2.7-64.9
		C1647.7,1391.4,1647.2,1390.7,1642.5,1395.7z"/>
	<path id="structure31_label31_DLEnt" bar:growlevel="0" bar:type="" class="st51" d="M2204.2,1718.9c-0.2,0.6-1.6,7-3.2,14.2
		c-19.4,89.2-49.5,153.4-93.6,199.3c-14.3,14.9-22.7,24.7-22.3,26c0.4,1.8,145.3,122,147.1,122c1.9,0,17.1-10.5,30.1-20.8
		c52.3-41.2,95.6-98.4,123.9-163.3c15.1-34.7,23.4-66.1,24.3-92.7c0.5-13.6-0.6-28.1-2.3-30.9c-0.5-0.9-199.8-55.1-202.6-55.1
		C2205,1717.8,2204.4,1718.3,2204.2,1718.9z"/>
	<path id="structure32_label32_PRh" bar:growlevel="0" bar:type="" class="st52" d="M2219.5,1637.9c-2.6,12.4-4.9,24.2-9,47.2
		c-2.7,14.9-5.2,28.2-5.5,29.4c-0.5,2.2-0.3,2.4,4.2,3.7c11,3.1,196.3,52.7,197,52.7c1.5,0,0.8-3.3-2-9c-1.9-3.8-5.9-8.8-11.8-15.1
		c-10.3-10.7-14.2-17.6-14.2-24.7c0-5.2,1.2-8.6,4.3-11.8c3.3-3.5,6.2-4.9,14.8-7c4.1-1,9.1-2.9,11.3-4.1c4.2-2.5,9.7-9.9,10.6-14.4
		c0.5-2.8,0.4-2.9-3.8-3.8c-4.4-1-189.8-43.9-193.6-44.8C2220.4,1635.8,2219.9,1636.2,2219.5,1637.9z"/>
	<path id="structure33_label33_Ect" bar:growlevel="0" bar:type="" class="st53" d="M2229,1565c-1.3,16.2-4.5,42.9-7.2,59.7
		c-1,5.9-1.7,10.8-1.6,10.8c0.7,0.4,197.6,45.8,199,45.8c2.2,0.1,3.6-4,10-28.7c6.8-26.1,15.8-70,14.7-71.1
		c-0.4-0.4-209.3-31.1-211.6-31.1C2230.3,1550.4,2230.2,1550.8,2229,1565z"/>
	<path id="structure34_label34_TeA" bar:growlevel="0" bar:type="" class="st54" d="M2230.4,1470c0.4,6.4,0.6,26.7,0.6,45.4
		l-0.2,33.8l2.9,0.5c13.5,2.4,206.5,30.2,208.3,30.1c2.3-0.3,2.3-0.5,3.9-12c3.4-25,10.5-98.2,9.6-98.9
		c-0.4-0.3-218.8-10.5-223.4-10.4h-2.6L2230.4,1470z"/>
	<path id="structure35_label36_AuV" bar:growlevel="0" bar:type="" class="st55" d="M2336.5,1367.4c-63.8,8.7-116.2,15.8-116.3,15.9
		s0.8,5.8,2,12.7c2.7,15.8,4.6,30.4,6.2,47.5c0.6,7.3,1.4,13.5,1.7,13.8c0.5,0.5,225,11.2,225.5,10.6c1.4-1.3,4.6-69.8,4.6-96.3
		v-20.2l-3.8,0.1C2454.3,1351.7,2400.4,1358.8,2336.5,1367.4z"/>
	<path id="structure36_label37_Au1" bar:growlevel="0" bar:type="" class="st56" d="M2274.4,1147.2
		c-63.4,32.2-115.3,58.7-115.6,58.9c-0.2,0.3,3.2,7.7,7.7,16.5c23.6,47.2,41.4,99.9,52.5,155.3c1.1,5.1,1.1,5.2,3.9,4.7
		c1.6-0.3,55.5-7.6,119.9-16.3c64.3-8.6,117.2-15.9,117.4-16.2c0.6-0.6-1.6-43.7-3.1-58.9c-6.2-65.2-20.2-118.4-42.9-164.2
		c-2.4-5-8.2-15.7-12.7-23.7c-6.4-11.3-8.6-14.7-10.1-14.7C2390.4,1088.8,2337.7,1115.1,2274.4,1147.2z"/>
	<path id="structure37_label38_CA1" bar:growlevel="0" bar:type="" class="st57" d="M1790.9,1050c-13.9,2.2-37.6,8.3-44.3,11.5
		c-4.9,2.3-5.1,2.7-7.1,8.3c-5.8,16.8,1.3,24.5,27.8,29.7c71.3,14,138.6,48,183.1,92.3c27.3,27.2,60.5,69.2,79.6,101
		c24,40,49.4,99.4,61.1,143.4c3.5,13.1,8.6,38.3,10.9,54.2c5.1,35,6.8,57.9,6.8,95.2c0,49.8-1.9,60.1-20.2,111.9
		c-12,33.9-15.4,47.5-15.4,61.9c0,9.8,1.3,15.9,4.6,22.9c3,5.9,9,13.1,11.2,13.1c0.8,0,2.3-2,3.5-4.8c1.1-2.6,4.9-8.2,8.3-12.3
		c12.6-15.6,35.4-56.4,43.9-78.9c12.5-33,21.4-78.5,26.6-135.9c3-33.1,2.2-55.7-3.1-84.4c-4.5-24.5-8.6-38.7-29.6-102.8
		c-11.8-36-12.2-37.3-18.2-46.8c-3.4-5.3-9.3-14.1-13.1-19.4c-13-18-24.5-38.3-30.5-53.6c-3.5-9-12.7-25.2-22.7-40.1
		c-18.7-27.9-35.7-47.3-66.8-75.5c-35.1-32-46.6-41.5-66.2-54.4c-15-10-23.6-14.6-42.9-23C1846,1049.3,1820.8,1045.5,1790.9,1050z"
		/>
	<path id="structure38_label39_Py" bar:growlevel="0" bar:type="" class="st21" d="M1862.6,1322.2c-1.9,2.3-0.5,10.2,3.5,19.9
		c2.1,4.9,9.9,20.4,17.3,34.5c24.8,46.4,32.7,63.8,42,92.8c10.4,31.9,15.1,56.1,17.7,90c2.6,34.6,4.8,46.3,9.5,51.4
		c4.7,5,10.3,2.5,14.2-6.4c4.6-10.4,7.9-40.4,6.3-57.5c-2.7-29.7-19.3-88-36-127.1c-14.9-35-34.2-65.7-53.5-85
		C1872.2,1323.1,1865.3,1319,1862.6,1322.2z"/>
	<path id="structure39_label40_CA3" bar:growlevel="0" bar:type="" class="st58" d="M1857.3,1318.9c-5.2,2.6-6.8,5.7-7.1,13.5
		c-0.4,8.3,2,18,8.4,35.7c6.6,18,13.2,32.9,21.5,47.7c12.6,22.6,19.5,40.1,24.3,61.7c6.9,31.1,7.1,72.1,0.5,109.2
		c-3.6,20.4-1.1,43.1,6.8,60.5c9.3,20.3,24.9,22.3,36.3,4.5c2.7-4.3,18.2-38.2,18.2-39.9c0-1.6-1.2-1.4-4.8,0.6
		c-5.6,3.3-10.1-0.3-13.1-10.4c-2.3-7.5-3.3-15.1-5.5-42.8c-2.4-31-5.1-46.5-12.2-72.3c-8.6-31.5-19.3-57.5-37.4-91.7
		c-27.6-52.3-33.7-66.1-31.3-71.9c2.1-4.9,7.7-2.5,18.8,7.8c17.8,16.7,39.2,48.4,52.3,77.6c22.2,49.5,41.4,118.4,41.4,149
		c0,11.1-1.4,25.1-3.7,35.3c-2.1,9.5-2.1,10.3-0.5,10.3c3.1,0,11.2-20.3,13.8-34.7c1.9-10.1,2.1-37,0.4-51.3
		c-6.1-52.3-14-80.9-31.5-114.3C1924.3,1349.2,1878.1,1308.2,1857.3,1318.9z"/>
	<path class="st59" d="M1115.2,1946.8c-3.9-7.8-11.3-16-16.9-18.6c-2-0.9-4.5-1.4-7-1.5v74.2h17l3.2-6.8c5.6-12.1,7.3-19.1,7.3-30.2
		C1118.8,1954.1,1118.7,1953.8,1115.2,1946.8z"/>
	<path id="structure40_label41_PoDG" bar:growlevel="0" bar:type="" class="st60" d="M1739.7,1233.6c-8.9,1-14.5,3.6-16.1,7.6
		c-3.9,9.3,1,25.5,13,43.3c10.3,15.1,12.6,17.3,48.2,44.1c29.5,22.2,38.5,29.7,50,41.5c26.7,27.5,48.6,62.5,59.3,94.8
		c5.9,17.7,8.7,34.4,9.6,57.7c0.9,24.7-3,58.9-8.9,77.4c-6.6,20.7-23.8,55.1-50.3,100.6c-18.6,31.9-28.7,46-50,69.8
		c-14.4,16.1-29.7,29.5-53.8,47.5c-41.9,31.2-49.6,37.4-59,46.7c-6.9,6.8-9.8,10.3-10.3,12.3c-0.3,1.6-0.4,3.3,0,3.9
		c0.3,0.5,2.8,0.9,5.5,0.9c8.3,0,21-4.9,57.1-22c26-12.4,28.1-13.1,58-22.5c30.7-9.5,46.5-15.3,59-21.7
		c10.6-5.5,32.8-21.1,48.9-34.3c13.8-11.3,34.5-32.6,46.8-48c11.3-13.9,29.4-40.9,37.4-55.3c14.1-25.6,23.6-55.8,27.3-87.3
		c1.4-12.6,1.4-49.1-0.1-62.6c-3.2-30.2-11.8-71.9-19.1-93.9c-11.6-34.7-33.8-71.4-66.3-109.5c-12.1-14.1-33.1-35.3-44.3-44.6
		c-24.3-20.1-51.7-33.4-82.8-40.3C1777.2,1234.9,1752.3,1232.2,1739.7,1233.6z M1876.4,1319.5c7.6,3,14.1,7.2,23.6,15.1
		c20.4,16.9,40,42.9,55.3,73.5c15.8,31.7,22,53.6,28.6,101.7c1.1,8,1.5,17.6,1.6,33.3c0,21-0.1,22.5-2.4,31.5
		c-2.8,10.9-5.4,17.4-12.6,30.6c-2.8,5.2-7.4,14.7-10.1,21c-13.2,30.3-19,37.5-29.9,37.5c-10,0-17.5-9.2-23.1-27.9
		c-5-16.7-5.8-33.5-2.6-51.3c3.4-18.9,4.2-29.3,4.1-54.4c0-20.4-0.4-26.4-2.1-37.2c-4.6-30.1-11.3-48.3-30.7-84.3
		c-15.3-28.4-28.3-67-26.5-78.3C1851.7,1317.7,1861.6,1313.8,1876.4,1319.5z"/>
	<path id="structure41_label42_Rad" bar:growlevel="0" bar:type="" class="st16" d="M1790.9,1050c-13.9,2.2-37.6,8.3-44.3,11.5
		c-4.9,2.3-5.1,2.7-7.1,8.3c-5.8,16.8,1.3,24.5,27.8,29.7c71.3,14,138.6,48,183.1,92.3c27.3,27.2,60.5,69.2,79.6,101
		c24,40,49.4,99.4,61.1,143.4c3.5,13.1,8.6,38.3,10.9,54.2c5.1,35,6.8,57.9,6.8,95.2c0,49.8-1.9,60.1-20.2,111.9
		c-12,33.9-15.4,47.5-15.4,61.9c0,9.8,1.3,15.9,4.6,22.9c3,5.9,9,13.1,11.2,13.1c0.8,0,2.3-2,3.5-4.8c1.1-2.6,4.9-8.2,8.3-12.3
		c12.6-15.6,35.4-56.4,43.9-78.9c12.5-33,21.4-78.5,26.6-135.9c3-33.1,2.2-55.7-3.1-84.4c-4.5-24.5-8.6-38.7-29.6-102.8
		c-11.8-36-12.2-37.3-18.2-46.8c-3.4-5.3-9.3-14.1-13.1-19.4c-13-18-24.5-38.3-30.5-53.6c-3.5-9-12.7-25.2-22.7-40.1
		c-18.7-27.9-35.7-47.3-66.8-75.5c-35.1-32-46.6-41.5-66.2-54.4c-15-10-23.6-14.6-42.9-23C1846,1049.3,1820.8,1045.5,1790.9,1050z"
		/>
	<path id="structure42_label43_Or" bar:growlevel="0" bar:type="" class="st47" d="M1790.6,1034.2c-24.7,4-37.7,8.4-43.1,14.6
		c-2.8,3.1-6.1,10.8-5.1,11.8c0.6,0.6,5-0.4,19-4.6c16.4-4.9,39.9-8.6,53.6-8.6c23.3,0,46.3,6.6,77.8,22.1
		c25,12.4,43.3,25.4,76.9,54.8c21.6,19,41.3,37.6,51.1,48.5c14.9,16.6,32.1,39.9,43.1,58.2c6.4,10.8,9.5,16.8,21.8,42.6
		c5.5,11.6,17.6,30.7,30.7,48.3c8.3,11.2,10.8,16.8,19.8,45c3.5,11.2,9.3,28.7,12.6,39.1c20.6,63.1,27.1,100.4,24.4,140.8
		c-3.4,51.7-13.2,109.7-24,141.8c-5.7,16.8-16.3,39.7-25.9,55.7c-3.2,5.4-6.4,11.3-7,12.9c-0.6,1.7-3.1,5.8-5.7,9.1
		c-12,16-18.5,26.2-18.5,29.3c0,3.4,3.9,7.8,6.8,7.8c5.4,0,47.9-80.3,59.5-112.4c10.3-28.4,17.8-67,24.7-125.2
		c2.9-24,2.9-51.9,0.1-67.7c-2.3-12.9-12.1-53.4-16.8-69.1c-1.6-5.7-4.9-17.5-7.2-26.1c-7.2-27-13.1-46.8-17.3-58.5
		c-7.2-20-17-37.4-26.8-47.8c-4.8-4.9-12.9-16.7-16.6-24.1c-1.1-2.1-3.2-7.2-4.7-11.4c-4.2-12.1-11.9-29.3-16.6-37.7
		c-12.1-21.2-56.7-72.4-88.7-101.8c-17.5-16.1-24-21.6-41-34.3c-42-31.3-94.9-52.8-134.6-54.6
		C1805.9,1032.2,1800.4,1032.6,1790.6,1034.2z"/>
	<path id="structure43_label44_AuD" bar:growlevel="0" bar:type="" class="st61" d="M2233.9,1084.6
		c-57.9,38.9-105.4,70.9-105.6,71.4c-0.1,0.4,2.1,4.1,4.9,8.3c5.2,8,17.2,27.7,21.6,35.7c1.8,3.3,3.2,4.8,4.4,4.8
		c3-0.1,231.3-116.5,231.6-118.1c0.4-2.3-21.4-36.3-40.1-62.4c-5.4-7.5-7.6-9.9-9.3-10.1C2339.8,1014.2,2308.6,1034.5,2233.9,1084.6
		z"/>
	<path id="structure44_label45_PtPC" bar:growlevel="0" bar:type="" class="st62" d="M2193.1,1029.4c-57.4,48.7-95.6,81.6-95.6,82.5
		c0,0.8,3.3,6,7.5,11.5c4.1,5.4,10.6,14.8,14.6,20.9s7.6,10.9,8.3,10.7c0.5-0.1,48.6-31.9,106.8-70.8c76.4-51,105.8-71.1,105.8-72.4
		c0-2.8-48.4-63.4-50.8-63.5C2289.1,948.3,2245.7,984.7,2193.1,1029.4z"/>
	<path id="structure45_label46_V2L" bar:growlevel="0" bar:type="" class="st63" d="M1986.8,860.6c-29,62.1-52.7,113.8-52.8,114.9
		c-0.2,1.7,1.8,3.2,13.4,9.6c51.9,29,102.5,70.8,140,115.9c5.5,6.6,8.2,9.2,9.3,8.9c2.5-0.6,191.5-161.2,191.5-162.6
		c0.2-3.4-49.5-54.5-76.9-79.1c-36.3-32.7-71.3-59.9-109.5-85.1c-26.9-17.6-57.5-35.6-60.8-35.6
		C2039.8,747.6,2027.2,773.9,1986.8,860.6z"/>
	<path id="structure46_label47_V1B" bar:growlevel="0" bar:type="" class="st64" d="M1825.8,694.7c-5.5,17-23.5,71.5-39.9,121
		c-16.5,49.6-29.7,90.4-29.4,90.6c0.3,0.3,9.2,3.2,19.8,6.3c32.9,9.9,63.3,21.1,89.1,32.9c6.7,3.1,18.1,8.2,25.6,11.3
		c7.4,3.2,19.6,8.9,27.3,12.6c7.7,3.8,14.2,6.5,14.6,6c1.7-1.9,105.6-226,105.7-228c0.1-2.1-1.6-3.2-19.1-11.8
		c-34-17.1-72.9-33.8-113.9-49.1c-23.5-8.7-65.1-22.8-67.5-22.8C1836.1,663.9,1835,666.9,1825.8,694.7z"/>
	<path id="structure47_label48_V1M" bar:growlevel="0" bar:type="" class="st65" d="M1621.9,612.8c-1.6,5-52.6,252.3-52,252.7
		c0.4,0.4,21.6,4.8,47.1,9.7c52.7,10.4,85.5,17.6,116.4,25.5c12.2,3.1,21.8,5.2,22.2,4.8c1.4-1.6,80.3-241.7,79.6-242.5
		c-0.5-0.4-9.5-3.4-20.2-6.6c-58.4-17.6-118.2-32.1-171.4-41.6C1623.7,611.3,1622.4,611.2,1621.9,612.8z"/>
	<path id="structure48_label49_V2ML" bar:growlevel="0" bar:type="" class="st66" d="M1484.9,609.5c0.3,10.3,1.4,67.6,2.5,127.3
		c1.1,59.7,2.3,109.3,2.7,110.3c0.5,1.5,2.8,2.5,10.9,4.8c5.6,1.5,14.7,3.7,20.1,4.7c5.5,1,18.2,3.4,28.3,5.3
		c10.2,2,18.7,3.3,19.1,3c0.5-0.6,53-250.7,53-252.8c0-0.7-32-6.3-77.9-13.4c-16.5-2.6-35.6-5.2-53.9-7.3l-5.3-0.6L1484.9,609.5z"/>
	<path id="structure49_label50_V2MM" bar:growlevel="0" bar:type="" class="st67" d="M1382,587.9c-20.3,1.7-34.8,3.3-35.5,4
		c-0.5,0.5,12,48.3,30.5,117.6l31.3,117l8.2,1.1c11.7,1.5,25.7,5.2,50.2,13.2c11.8,3.8,21.6,6.7,21.9,6.5
		c0.7-0.8-4.5-255.4-5.3-256.1c-1.5-1.6-26.5-3-60.8-3.3C1402.4,587.8,1384.3,587.8,1382,587.9z"/>
	<path id="structure4_label3_PIF" bar:growlevel="0" bar:type="" class="st68" d="M1102.1,1921.4c-5.2,2.9-5.7,5.2-1.4,7.8
		c7.6,4.7,15.6,16.4,17.9,26.1c0.9,3.9,1.3,4.4,5,5.8c6.6,2.6,25.8,13.2,37.6,20.7c26.2,16.6,49.3,37,58.6,51.6l2.4,3.9l5.5-0.5
		c6.7-0.7,10.8,0.5,14.3,4.1c1.4,1.5,3.1,2.7,3.7,2.7c0.6,0,2.3-2.6,3.8-5.7c4.3-9.3,10.9-18.5,19.5-27.6
		c9.8-10.3,16.7-18.4,16.7-19.7c0-1.9-2.7-1-8.8,3c-7.9,5.1-20.6,11.5-28.1,14.1c-8.1,2.8-19.4,3.3-24.8,1.3
		c-5.1-2-10.2-6.2-11.7-10.1c-2.3-5.4-1.6-11.1,2.3-19c2-4,3.6-7.6,3.6-8c0-0.4-2.2-1.3-4.7-2c-16.7-4.2-43.7-17.9-71.8-36.5
		c-18.8-12.4-20.6-13.2-28.8-13.8C1107.1,1919.3,1105.6,1919.6,1102.1,1921.4z"/>
	<path id="structure50_label51_RSD" bar:growlevel="0" bar:type="" class="st69" d="M1336.1,593c-71.5,12-128.6,38.7-174.8,81.8
		c-5.4,4.9-9.7,9.5-9.7,10.2c0,1.5,222.2,159.4,224.4,159.4c1.4,0,2.1-1.3,3.4-6.5c2.8-11.1,2.7-11.1,18.4-11.1
		c8.6,0,9.4-0.2,9.4-1.7c0-1.3-55.3-208.8-60.8-228.5C1344.9,591.4,1345.1,591.4,1336.1,593z"/>
	<path id="structure51_label52_RSGc" bar:growlevel="0" bar:type="" class="st70" d="M1143.8,693c-8.7,10.1-17.7,22.1-24.2,32.3
		c-7.4,11.6-18.3,33.8-21.9,44.4c-5.5,16.5-5.5,15.9-5.5,78.8c0,57.1,0.3,64.1,3.2,74c0.5,1.5,8.5,1.6,152.1,1.6
		c83.3,0,151.6-0.3,151.6-0.5c0-0.4-2.2-5.1-4.9-10.6c-11.9-24.2-15.8-37.7-16.5-55.2c-0.4-9.4-0.7-12-1.8-12.3
		c-0.8-0.4-51.6-36.2-112.9-79.7c-61.3-43.6-112-79.2-112.6-79.2C1149.9,686.4,1146.8,689.4,1143.8,693z"/>
	<path id="structure52_label53_RSGb" bar:growlevel="0" bar:type="" class="st71" d="M1097.1,927.8c1.1,6.8,11.1,35.3,17,48.3
		c14.9,32.6,32.8,56.5,53.5,71.5c6.8,4.9,19.9,10.8,32.2,14.6c10.9,3.2,32.7,8,41.9,9.1l5,0.5l80-65.4c44-36,80.1-66.2,80.3-67.1
		c0.2-0.9-1.4-4.7-3.4-8.4l-3.8-6.8h-151.6h-151.7L1097.1,927.8z"/>
	<path id="structure53_label54_RSGa" bar:growlevel="0" bar:type="" class="st72" d="M1328,1005.5c-43.3,35.4-78.8,64.9-79,65.5
		c-0.2,0.9,2.1,1.5,7.7,2.2c12.7,1.6,40.3,3.6,64.6,4.7c39.9,1.7,49.4,3,74.4,10c2.3,0.6,4.4,1,4.7,0.7c0.2-0.2,7.9-23.8,17.2-52.3
		l16.7-51.9l-5.2-7.4c-2.8-4.1-8.4-13.8-12.4-21.4c-4-7.7-7.8-14.1-8.6-14.3C1407.4,941.2,1371.3,970.1,1328,1005.5z"/>
	<path id="structure54_label55_Post" bar:growlevel="0" bar:type="" class="st73" d="M1433.8,987.2c-3.2,8.5-32.9,101.9-32.5,102.2
		c0.3,0.3,4.3,2.1,9,4c4.8,1.9,13.9,6.1,20.2,9.4c6.4,3.2,11.9,5.9,12.2,5.9c0.3,0,0.5-1.1,0.5-2.3c0-1.5,1.3-3.6,3.6-5.9
		c2-2,3.6-4,3.6-4.2c0-0.4-1.1-1.6-2.3-2.9c-3.8-3.4-6.7-10.4-6.7-16.1c0-6.8,2.3-11.3,8.7-17.2c9.4-8.7,23.6-14.8,48.1-20.6
		c6.2-1.4,14.3-4,18-5.5c9.6-4.1,22.4-11.5,22.4-13.1c0-1.6-0.4-1.6-7.8,0.3c-9.4,2.3-28.2,2.1-38.3-0.5
		c-10.3-2.5-20.1-6.5-28.5-11.4c-7.8-4.6-19.8-13.9-24.6-19.3C1435.9,985.9,1434.5,985.3,1433.8,987.2z"/>
	<path id="structure55_label56_DS" bar:growlevel="0" bar:type="" class="st74" d="M1696.8,969c-34.9,2.7-70.6,12-110.3,28.4
		c-15.4,6.4-24.2,11-45.2,23.1c-20.5,12-28.2,15.3-43.4,19.1c-26.8,6.5-39.2,11.9-48.5,21.1c-4.7,4.6-6.1,6.8-6.9,10.1
		c-1.4,5.6-1.3,7.6,0.4,13.2c2.7,9.3,10.7,14,29.5,17.6c10.2,2,78.8,7.7,100,8.3c31.1,0.9,58.5-2.3,80.3-9.5
		c5.8-1.9,22.9-8.9,38.1-15.7c15.1-6.7,32.6-14,38.8-16.5l11.3-4.3l1.1-5.1c0.6-3.2,2.4-7.3,5-11.3c2.3-3.3,4.1-6.6,4.1-7.1
		c0-2,7.4-11.7,13.8-18.4c9.8-10.1,29.8-24.4,42.3-30.3c6.3-3,4.9-4.1-13.9-10.1c-21.4-6.8-29.4-8.8-44.1-11
		C1735.5,968.8,1710.3,967.9,1696.8,969z"/>
	<path id="structure56_label57_LMol" bar:growlevel="0" bar:type="" class="st75" d="M1744.3,1100.5c-21.2,7.1-50.3,24.2-75.3,44.2
		c-8.7,6.9-10.1,9.5-4.5,8.5c28-5.1,59.7-6.1,90.1-2.7c62.1,6.9,119.9,31.3,163.3,68.7c25.4,21.9,59.4,61.5,83.2,96.9
		c23.3,34.7,43.3,75.2,53.5,108.4c15,48.3,16.6,79.4,7.7,146.7c-12.6,95.7-37.4,165.6-76.3,214.4c-3,3.9-5.5,7.4-5.5,7.9
		c0,1.4,3.2,1.1,13.5-1.3c26.5-6,47.7-16.9,63.5-32.5c8-7.9,17.7-21.9,19.4-27.7c1.5-5.7,8.1-25.4,14.8-44.3
		c14.2-40.4,16.7-55.3,16.7-102.6c0-69-9.5-130.5-28.4-183.8c-25-70.7-53.1-121-96.2-172.4c-33.9-40.5-58.4-62.1-94.4-83.3
		c-26.6-15.7-66.1-32-96.8-40.1c-10-2.6-35.1-7.7-38.1-7.7C1753.3,1097.7,1748.8,1099,1744.3,1100.5z"/>
	<path id="structure57_label58_MoDG" bar:growlevel="0" bar:type="" class="st76" d="M1695.7,1149.6c-20.2,1.3-36.1,4.4-45.2,8.8
		c-8.5,4.2-22.9,18-27.5,26.6c-8,14.7-8.8,32-2.2,48.4c4.5,11.3,27.8,51.8,41.3,72c14.9,22.4,32.8,43.4,45.1,53.1
		c3.2,2.5,11.6,7.3,19.7,11.3c26.6,12.8,43.5,24.2,59.7,40.6c14.9,14.9,21.6,25.7,31,49.3c11.9,30,19.3,61.1,20.5,84.9
		c0.6,14.5-1.1,24.6-5.8,33.8c-1.9,3.7-8.8,17-15.3,29.5c-9.3,17.7-11.9,23.5-11.9,26.2c0,5.8-5.7,15.7-13.6,23.7
		c-4.5,4.6-7.7,7.2-9.5,7.6c-3.4,0.6-6.8,6-12.9,20.4c-11.9,28.1-16.9,34.3-50,60.9c-8.8,7.2-20.8,17.7-26.5,23.4
		c-14.8,14.8-21.8,25.6-32.8,50.6c-3.9,8.6-4.1,9.6-3.6,14.7c0.5,4.3,0.2,6.4-1.3,10.3c-2.7,7.2-6.8,13.2-10.4,15.4
		c-3.1,1.8-5.6,7-15.8,32.8c-17.6,43.9-19.3,50.3-20.4,75.2c-0.6,14.8,0.5,23.2,3.8,30.1c2.9,6,6.3,8,12.6,7.4
		c8.5-0.9,17.3-6.9,28.5-19.5c20.3-22.9,60.2-51.4,91.7-65.3c23.5-10.4,55.4-21.3,108.5-36.8c16-4.7,31.6-9.4,34.7-10.4
		c9.1-3.2,18.9-8.5,26.9-15.1c8.2-6.6,54.3-53.9,65.7-67.4c42.7-50.5,68.6-121.5,81.7-223.8c4.1-32.5,4.9-42.3,4.9-62.1
		c-0.1-33.3-5.3-61.5-17.9-96.4c-21.7-59.8-67.7-129-118.6-178.3c-48.8-47.2-112.4-75.1-185.6-81.3
		C1735.3,1149.1,1706.7,1148.9,1695.7,1149.6z M1703.8,1200.3c77.7,7.1,145.9,31,190,66.6c3.9,3.2,14.4,13.1,23.3,22
		c56.5,56.6,94,121.5,103.4,178.7c7.4,45.6,8,103.5,1.3,142.7c-7.5,44.3-23.9,83.3-48.1,113.4c-18.5,23-61.6,67.7-79.5,82.2
		c-13,10.5-25,18.5-37.5,24.7c-10.7,5.4-16.2,7.4-53.1,19.2c-58.9,18.9-95.1,34.9-116.9,51.6c-3.1,2.3-11.2,9.1-18.2,15.1
		c-16.8,14.6-21.2,17.6-25.8,18.1c-6,0.7-12.5-4.7-14-11.7c-2.6-11.3,10.8-34.8,31.4-55.5c11-11.1,24.7-22.9,57.5-50.2
		c14.7-12.2,30.1-24.9,34.3-28.4c24.8-20.7,47.1-45.9,67.2-76.1c21.3-31.9,54.5-93.2,60.8-112.1c6.2-18.6,7.9-37.9,6.1-67.7
		c-3.5-56.8-18.4-100.3-46.6-135.2c-9-11.2-24.3-25.2-45.7-41.8c-12.2-9.5-21.4-15.5-33.8-21.6c-26.7-13.3-29.9-16.7-79.8-85.3
		c-19.3-26.5-26.4-37.1-26.4-39.7c0-4.1,4.4-7.8,11.4-9.4C1670.9,1198.1,1682.9,1198.4,1703.8,1200.3z"/>
	<path id="structure58_label59_GrDG" bar:growlevel="0" bar:type="" class="st77" d="M1668.6,1199.4c-11.3,1.5-15.9,5.3-14,11.5
		c1,3.4,17.4,26.6,45.1,64.1c19.4,26.4,21.9,29.3,30.4,38.2c8.5,8.5,13.7,12.2,27.6,19.3c14,7,26.6,15.4,43.4,28.8
		c32.1,25.8,47.5,44,61.6,72.6c17.2,35.4,25,75.7,23.9,123.7c-0.5,22-1.3,27.2-6.3,42.3c-6,18.4-36.7,75.3-58.9,109.3
		c-24.8,37.9-44.3,58.8-92.1,98.2c-43.5,35.8-52.4,43.7-68,59.3c-18.3,18.4-27.5,31.5-31.4,44.5c-2.7,9.2-1.4,15.7,3.9,20.2
		c6.4,5.3,12.1,3.9,24-6.2c25.3-21.4,30.3-25.5,37.6-30.2c24.1-15.9,61.5-30.9,134.7-54.2c25.5-8.2,44.3-18.6,66.5-37.2
		c20.3-16.9,65.2-64.3,81-85.6c39.1-52.4,54.4-123.5,46.4-214.9c-2.8-31.9-5.8-48.5-12.3-68.7c-15.7-48.4-49.8-100.5-96.1-146.8
		c-19.6-19.7-36-32.2-57.3-44c-34.8-19.2-88-35.2-136.4-41c-10.8-1.3-44.8-4.1-46.9-4C1674.5,1198.7,1671.6,1199,1668.6,1199.4z
		 M1778.5,1235.4c25.7,4,51.1,11.9,68.9,21.3c20.1,10.7,34.4,21.8,55.3,42.9c46.2,46.3,79.3,97.5,92.2,142.3
		c7.1,24.9,14.1,60.7,16.7,85.8c1.8,17.6,1.9,47.4,0.1,62.7c-5.1,44.6-18.9,78.7-49.5,122.4c-25.3,36.2-52.4,63-91.4,90.4
		c-20.9,14.7-33.1,19.9-81.9,35.1c-21.2,6.6-29.8,9.7-42.8,15.8c-8.9,4.1-22.7,10.5-30.6,14.2c-25.3,11.7-37.5,15.6-42.2,13.4
		c-4.5-2-2.6-6.9,5.9-15.6c9.1-9.2,20.5-18.3,59.7-47.2c23-17,26.8-20.3,43.5-36.7c20.4-20.3,36.4-39.8,49.7-61.1
		c20.7-33.2,52.5-93.5,59.8-113.2c8-22.1,10.8-41.9,10.9-77c0-27.9-0.8-36-5.4-54.4c-8.8-35.5-31.9-74.6-62.7-106.7
		c-10.3-10.7-23.9-21.9-56.5-46.3c-12.3-9.3-25.1-19.6-29-23.5c-12.1-12.3-23.4-31.3-26.5-44.6c-3.1-13.4,1.1-19.5,14.9-22.2
		C1742.6,1232.2,1766.6,1233.5,1778.5,1235.4z"/>
	<path id="structure59_label60_SuG" bar:growlevel="0" bar:type="" class="st78" d="M1160.2,1078.9c-7.1,0.9-14.5,3.6-22.9,8.1
		c-15.1,8.3-23.1,15.5-28,25.5c-4.7,9.5-5.8,16.6-5.8,38.3c-0.1,20.3,0.8,29.3,4.5,46.8c2.6,12.7,2.7,17.5,0.4,21.1
		c-2.4,3.7-2.3,4.9,0.8,4.9c3.4,0,11.4-8.3,12.2-12.7c0.3-1.7,0.4-12.4,0.3-23.8c-0.3-17.5,0-21.6,1.4-26.5
		c5-18.7,17-30.8,35.6-35.9c11.8-3.2,22.9-4,52.4-3.4c27.1,0.5,47.8,2.1,80.1,6c75.6,9.3,104.3,18,173.7,52.7
		c43.8,22,66.5,36.1,81.5,50.8c3,2.9,5.8,5.3,6.2,5.3c1.1,0,2.9-2.3,5.8-7.6c2.1-4,2.4-5.5,2.4-12.6c0-7.1-0.3-8.7-2.6-13.5
		c-4-8.1-16.4-20.1-30.2-29.3c-16-10.5-55.2-29.5-116.1-56.3c-30-13.1-39.7-15.2-86.8-18c-25.1-1.5-42.8-3.9-97.3-13
		C1178.5,1077.8,1172.7,1077.2,1160.2,1078.9z"/>
	<path id="structure5_label4_PN" bar:growlevel="0" bar:type="" class="st79" d="M1119.7,1966.8c-0.8,7.6-4.1,19.1-7.6,27
		c-1.5,3.2-2.7,6.4-2.7,6.9c0,0.5,2.9,1.8,6.5,2.7c29.5,7.7,59,31.9,82.9,68c3.7,5.6,7,9.7,8.1,10.1c1.1,0.3,4.1,0.5,6.8,0.6
		c5.8,0.1,6.1-1.4,0.8-4c-7.8-3.8-10.6-15.2-6.1-25.3c2-4.5,10.5-13.8,12.6-13.8c5.8,0-16-25-34.1-39.2c-8.6-6.8-26-18.4-36.9-24.9
		c-9.7-5.7-26.7-14.1-28.4-14.1C1120.6,1960.8,1120,1963,1119.7,1966.8z"/>
	<path id="structure60_label61_Op" bar:growlevel="0" bar:type="" class="st80" d="M1177.7,1122c-16.4,1.5-26.5,4.5-35.8,10.5
		c-8.9,5.9-14.9,15.1-18.3,28.1c-1.6,6.1-1.8,9.2-1.5,28.4c0.3,24.7,0.3,24.8-7.3,31.7l-4.1,3.9h-9.2c-7.6,0-9.3,0.3-9.3,1.3
		c0,1.2,2,1.4,12.6,1.4h12.7l4.9-3.2c6.9-4.4,12-9.9,19.5-21.1c19.9-29.4,43.3-40.7,87.9-42.1c36-1.2,84.8,5.6,137.3,19.1
		c53,13.6,101.8,36.5,146.5,69c53.2,38.5,72.7,70.1,68.9,111.3c-1.6,17.8,0,29.4,5,37.1c4,5.9,5.1,5,8.9-7.1
		c4.8-15.1,5.3-18.7,4.2-29.6c-3.5-34.6-14.8-70.3-31.7-100.6c-6.6-11.8-11.7-18.4-21.2-27.5c-16.9-16.2-40.1-31.1-77.8-50
		c-62.1-31-93.9-42.1-143-49.8C1268.3,1123.7,1207.8,1119.3,1177.7,1122z"/>
	<path class="st2" d="M1574.2,1312.3c-11.2-23.2-37.3-48.4-77.4-74.7c-40.1-26.3-84.2-45.7-129.1-57.1
		c-50.5-12.7-85-17.9-122.7-18.6c-30.4-0.6-46.2,1.2-61.9,7c-17.3,6.4-28.3,16.1-44.1,38.6c-5.6,8-13.3,15.6-18.9,18.4
		c-2.2,1.1-7.3,1.3-28.8,1.4v21c9.3,0,18.7-0.5,27-1.5c16.3-2,56.4-7.4,70.2-9.5l10.3-1.5l-0.3-3.1c-0.4-6.1,1.3-6.8,31.1-12.9
		c21.9-4.4,24-4.7,37.2-4.7c15.8-0.1,22,1.3,43.5,8.8c33,11.7,89.5,39.9,124.4,62.1c31.9,20.3,61,43.7,78,62.9
		c15.6,17.5,41,53.5,48,67.9c1.9,4.1,4,7.4,4.5,7.4c2,0,10.7-31.7,15.4-55.8C1584.7,1347.5,1582.7,1329.9,1574.2,1312.3z"/>
	<path id="structure62_label63_InWh" bar:growlevel="0" bar:type="" class="st81" d="M1255.6,1215.7c-13.6,1.9-51.2,9.8-53.9,11.4
		c-3.3,1.9-4,4.6-1.8,6.7c0.9,0.8,9.9,4.9,20.1,9.1c55.7,23,64.5,28.3,112.5,67.6c34,27.8,45.6,38.1,65.3,57.7
		c33.8,33.7,60.2,66.8,78.7,98.6c5.4,9.3,11.6,15.6,18.8,19.2c5.5,2.6,6.6,2.9,14.5,2.8c9.4,0,15.4-1.8,22.5-6.6
		c8.5-5.7,22.9-28.8,30.7-49.1c1.5-4.1,1.6-4.9,0.4-9c-3.4-11.9-30.2-51.2-50.4-74.3c-21.3-24.3-59.7-53.4-103-78.2
		c-13.2-7.6-53.1-27.8-66.6-33.8C1301.5,1219,1276.5,1212.8,1255.6,1215.7z"/>
	<path class="st4" d="M1520.5,1487.9c-5.9,2.2-16.3,1.9-22.7-0.5c-7.9-3-15.5-10.6-22.9-22.9c-26.7-44.7-66.3-90-114.1-130.3
		c-51.4-43.3-74.9-60.8-95.8-71.3c-16.6-8.4-60.7-26.6-64.1-26.6c-1.3,0-11.9,1.4-23.8,3.1c-45.8,6.6-70.8,9.4-86,9.4v51.2
		c21.3,0,42.6,0.5,50.8,1.4c41.7,4.9,75.7,19.1,108.1,45.2c11.6,9.4,40.4,38.8,53,54.1c31.9,39,57.5,80.6,77.9,126.7l4.9,10.9
		l6.8,0.6c10.9,0.9,23.2,0.6,35.6-0.8c39.1-4.6,60.5-14.1,88.8-39.5C1530.1,1487,1531,1484.1,1520.5,1487.9z"/>
	<path id="structure64_label65_MGD" bar:growlevel="0" bar:type="" class="st82" d="M1672,1369.9c-6.9,3.8-11.1,6.8-16.6,12.2
		c-8.1,7.6-8.1,7.6-6.3,17.4c2,11.2,2,40.1-0.1,55.6c-0.8,6.1-1.4,12.4-1.4,13.9v2.6l26.8-0.5c36.9-0.7,50.3-2.8,74.2-11.5
		c18.2-6.7,42.1-19.4,42.1-22.5c0-2.3-8.6-13.2-17.1-21.5c-5.8-5.8-10.6-9.4-19.5-14.6c-21.1-12.6-64.9-32.8-73.2-33.8
		C1678.5,1366.8,1676.2,1367.5,1672,1369.9z"/>
	<path id="structure65_label66_DLPAG" bar:growlevel="0" bar:type="" class="st83" d="M1202.2,1372.6c-16.2,22.7-26.3,44.9-26.3,58
		c0,7.6,1.1,10.1,6.6,15.2c10,9.2,28.4,8.6,54.3-1.6c11.5-4.6,33.7-15.5,33.7-16.6c0-1.5-6.8-12.7-12.2-19.8
		c-5.1-6.8-18.6-20.5-26.5-26.8c-8.9-7.1-21-15-22.9-15C1207.5,1365.9,1205.5,1368,1202.2,1372.6z"/>
	<path class="st84" d="M1180.4,1350.3c-17.9-7.7-37.2-13.1-55.8-15.4c-8.1-1.1-21.3-1.7-33.3-1.9V1455c0.5,0,0.9,0.7,0.9,1.7
		c0,0.9,0.5,2.9,1,4.5c1.3,3.5,1.4,3.4,17.1-1.7c23.4-7.7,48.4-23.3,62.4-38.9c3.2-3.6,6.8-9,9.5-14.8c5.2-10.5,14-25.2,20.1-33.7
		c2.3-3.2,4.2-6.4,4.2-7.2C1206.5,1363.2,1193.8,1356.1,1180.4,1350.3z"/>
	<path class="st85" d="M1369.8,1504.4c-26.7-53.7-56.7-95.9-96.1-135.4c-18.9-18.9-26.4-25.3-41.2-35.1c-28.6-19-61-29.7-99.2-32.8
		c-5.4-0.4-23.8-0.7-41.9-0.7v32.4c28.2-0.3,47.2,2.7,71.5,10.7c31.9,10.5,69,33.8,87.5,54.5c21.1,23.8,30.5,46.7,32.2,78.1
		c0.5,10.8,0.2,13.8-3.6,25.4c-0.6,1.8,0,2.3,6.4,5.3c32.4,14.8,63.5,25.2,89.5,29.7c5,0.9,9.3,1.3,9.6,1
		C1385.2,1536.6,1380.7,1526.4,1369.8,1504.4z"/>
	<path id="structure6_label5_PBP" bar:growlevel="0" bar:type="" class="st36" d="M1115.2,1843.8c-6.8,6.2-14.9,25.2-14.9,34.6
		c0,9.9,6.8,26.7,14.5,36.1c2.1,2.5,5.9,5.7,8.8,7.3c2.8,1.4,11.5,7,19.4,12.2c28.6,18.9,58,33.5,73.3,36.3c3.2,0.5,3.3,0.4,11-8.4
		c4.3-5,14.4-14.9,22.5-22.3c16.9-15.3,42-40.8,42.1-42.6c0-1.5-1.8-1.1-12.2,2.9c-12.1,4.8-20.6,6.3-34.2,6.3
		c-12.9,0-21.1-1.4-34.2-5.8c-24.4-8.1-46.4-22.5-70.4-46.2c-7-6.8-13.3-12.9-13.9-13.2c-0.6-0.5-2.7-0.8-4.6-0.8
		C1119.8,1840.2,1118.4,1840.9,1115.2,1843.8z"/>
	<path class="st38" d="M1369.8,1504.4c-26.7-53.7-56.7-95.9-96.1-135.4c-18.9-18.9-26.4-25.3-41.2-35.1c-28.6-19-61-29.7-99.2-32.8
		c-5.4-0.4-23.8-0.7-41.9-0.7v32.4c28.2-0.3,47.2,2.7,71.5,10.7c31.9,10.5,69,33.8,87.5,54.5c21.1,23.8,30.5,46.7,32.2,78.1
		c0.5,10.8,0.2,13.8-3.6,25.4c-0.6,1.8,0,2.3,6.4,5.3c32.4,14.8,63.5,25.2,89.5,29.7c5,0.9,9.3,1.3,9.6,1
		C1385.2,1536.6,1380.7,1526.4,1369.8,1504.4z"/>
	<path id="structure7_label6_RMC" bar:growlevel="0" bar:type="" class="st86" d="M1242.1,1792.5c-21.4,3-47.5,15.6-64.3,31.1
		c-6.2,5.8-14.5,17.5-14.5,20.6c0,1.1,1.6,5.3,3.6,9.4c4,8.4,10.5,15.9,17.5,20.4c12.4,8,34.2,12.2,63.7,12.2
		c15.2,0,23.9-1,27.3-3.2c2.1-1.3,5.5-9.4,8.1-18.9c2.3-8.5,2.8-30.7,0.9-40.1c-3.2-15.3-11.2-26.8-21.1-30
		C1257.8,1792.1,1248.8,1791.6,1242.1,1792.5z"/>
	<path id="structure81_label85_cp" bar:growlevel="0" bar:type="" class="st87" d="M1671.4,1730.9c-7.5,1.8-17.2,7.2-22.6,12.5
		c-5.5,5.4-9.9,12-15.2,22.7c-5.4,10.9-7.7,17.7-12.7,37.2c-15.6,61.4-28.4,102-39.2,124.8c-10.5,22.1-18.7,31.2-38.3,42.5
		c-23,13.2-50.4,24.2-80,32.1c-29.4,7.8-38,11.1-52,19.7c-12.6,7.9-29.6,16.5-53.4,27.1c-28.8,12.8-39.5,16.9-54.2,20.8
		c-11.3,3-13.6,3.2-25.5,3.3c-7.7,0.1-15.9-0.5-20-1.2l-6.8-1.2l-6.4,3.9c-3.5,2.2-6.4,4.6-6.4,5.3c0,2.3,6.5,12.5,11.1,17.6
		c6,6.7,9.3,7.7,24.5,8.2c17.6,0.6,49-3.1,83.7-9.6c50.3-9.6,87.3-26.6,134-61.5c25.9-19.4,39.9-27.5,59-34.4
		c15.6-5.6,23.5-10.3,33.4-20.3c12.9-12.9,18.9-23.8,31-55.8c9.5-25,20.5-52.7,23.2-58c1.2-2.4,1.9-5.6,1.9-9.5
		c0.1-4.8,0.8-7.2,3.7-13.3c2.1-4.6,4.7-8.5,6.4-9.9c2.2-1.8,4.5-6,8.9-15.9c3.3-7.5,7.7-16.6,9.9-20.3c2.3-3.8,5.7-11.1,7.7-16.2
		c4-10.2,12.6-27.8,16.6-34.1c5.8-9.2-1.2-18.1-13.9-17.9C1678.2,1729.6,1674.4,1730.2,1671.4,1730.9z"/>
	<path id="structure82_label86_tth" bar:growlevel="0" bar:type="" class="st88" d="M1379.1,1841.1c-15.3,4.4-41.3,17.6-56.3,28.7
		c-4.8,3.5-17.7,15.7-33.5,31.6c-14.1,14.1-32.3,31.9-40.5,39.3c-26,23.8-37.9,40.1-37.8,51.9c0.1,4.1,3.1,10.4,5.2,10.4
		c3.2,0,35.5-22.3,55.1-38.2c12.1-9.6,19.8-16.6,49-43.7c30.1-28,54.1-51.9,62.6-62.5c6.2-7.7,12.5-16.9,12.5-18.4
		C1395.5,1838.8,1386,1839.2,1379.1,1841.1z"/>
	<path class="st44" d="M1634,1720c-8.3-1.8-15-2.5-25.7-2.9c-16.7-0.5-26.7,0.4-60.8,6.1c-12.2,2.1-24.1,3.8-26.7,3.8
		c-5.5,0.2-8.8-1.8-11.3-6.7c-4-7.5,0.4-29.8,9.5-47.6c4-7.8,56.7-102.4,64.6-116l4.5-7.6l-0.2-14.5c-0.1-10.9,0.3-15.4,1.3-18.1
		c0.7-2,1.6-5.8,2-8.6c1.8-13.6,11.4-56.6,18.5-82.9c1.9-7.3,3.5-13.4,3.5-13.7c0-0.3-1.7-0.7-3.9-1c-5.1-0.8-13.9-4.9-18.1-8.6
		c-5.3-4.7-9.5-14.7-9.5-22.8c0-2.1-0.5-3.3-1.1-3.3c-0.7,0-2.4,5.4-4.7,14.7c-7.6,32.5-19.5,61.5-32.4,79.4
		c-11.4,15.8-32.5,36.1-48.2,46.5c-19.9,13.1-44,20.5-76.3,23.2c-31.2,2.7-72.4-6.3-118.4-25.8c-6.4-2.7-13.6-5.9-15.9-7.1
		c-2.4-1.2-4.9-2.2-5.7-2.2c-0.8,0-2.8,2.2-4.4,4.7c-3.7,5.8-12.2,13.9-17.9,17.3c-2.3,1.3-7.7,3.9-12.1,5.6
		c-12.2,4.9-25.5,11.3-25.5,12.3c0,0.5,3.6,4.6,7.9,9.1c24.9,25.7,37.9,62.8,30,85.5c-2.6,7.5-10.5,18.7-18.7,26.8
		c-20.8,20.3-47.7,32.3-77.8,34.6l-8.7,0.6l-0.5,3.2c-2,12.1-16.9,26.2-30.7,29.2c-4.5,0.9-5,1.3-4.5,2.9c3,9,3.5,14.3,3.5,35.5
		c0.1,26-0.6,30-6.7,35.5c-2,1.7-4.5,3.4-5.6,3.6c-5.7,1.2-10.9,1.8-16,1.8v113.6c4,0,5-0.4,7.6-2.9c3.1-2.9,8.8-4.9,13.9-4.9
		c3.6,0,3.6-1.8,0.3-6.2c-4.1-5.3-8-12.7-10.5-20.3c-2.1-6-2.3-8.3-2.1-14.4c0.8-14,9.7-32.1,18-36.3c3.9-2,4.3-2,7.3-0.7
		c1.8,0.7,8.4,6.5,15.2,13.3c38.4,38.7,80.1,56.5,119.2,51c17.3-2.4,34.8-10.5,47-21.8c11.8-11,19.6-16.8,30.9-23.4
		c19.3-11.2,39.9-19.7,50.7-21c12.2-1.4,14.7,6.1,8,25c-1.3,3.8-2.2,7.2-1.9,7.5c0.4,0.4,5.9-0.9,12.6-2.8l12-3.3l9-8.3
		c13.1-12.1,45.5-38.5,81.9-67c11-8.6,18.6-13.4,21.3-13.5c0.9,0,1.7-1.1,2.1-3c4.2-19.4,33-36.8,63-38.2c17-0.7,29.8,3,39.3,11.4
		c2.3,2,4.6,3.6,5.1,3.6c0.5,0,3.7-2.8,7.1-6.2c4.5-4.4,8.1-7.1,12.7-9.3c3.5-1.6,6.4-3.4,6.4-4
		C1667.3,1729.2,1647.2,1722.8,1634,1720z M1303.2,1842.9c-7.2,22-14.7,34.1-23.7,38.7c-8.3,4.1-13.2,5-31.1,5
		c-49.3-0.1-72-10-83.3-36.3c-8.4-19.7-14.4-58.3-12.5-80.3c2.7-31.3,16.7-49,43.1-54.5c7.8-1.6,34.7-1,44,1
		c20.4,4.5,31.4,12.1,46.6,31.9c16.6,21.9,23.7,39.9,23.7,60.4C1310,1818.9,1308.3,1827.4,1303.2,1842.9z M1428.4,1748.8
		c-7,24.1-27.5,37.7-62.1,41c-25.4,2.4-42.4-1.4-52.1-11.8c-7.4-7.9-11.1-18.2-11.9-33.3c-0.9-16,3.1-27.7,12.7-37.4
		c13.4-13.5,33.7-19.2,58.8-16.6c25.9,2.7,44.4,12.8,52,28.4c3,5.9,3.4,7.6,3.8,15.5C1429.8,1741.4,1429.5,1744.9,1428.4,1748.8z"/>
	<path id="structure8_label7_RPC" bar:growlevel="0" bar:type="" class="st89" d="M1194.4,1716c-23.2,4.9-36.5,20.3-40.5,46.7
		c-3,19.2-0.9,41.3,6.8,73.6c0.6,2.6,1.5,4.8,2.2,4.8c0.5,0,2.6-2.5,4.7-5.7c7.6-11.6,23.8-24.5,40.9-32.5
		c24.6-11.5,44.8-14.3,58-7.7c6.5,3.2,9.9,7,13.9,15.5c4.7,10,5.8,16,5.8,30.4c0,13.6-0.8,19.2-4.5,30.2c-2.6,7.6-2.6,8.5-0.5,8.5
		c2.7,0,10.5-9.4,14-16.7c3.9-8.2,11.6-31.1,13.1-39.1c1.8-9.5,1.4-25.2-0.9-34.6c-3.6-14.9-12.1-30.1-25.8-46.6
		c-9.1-10.9-14.1-15.1-23.3-19.7c-12.4-6.1-18.8-7.3-41-7.7C1206.7,1715.3,1196.3,1715.5,1194.4,1716z"/>
	<path class="st90" d="M1108.4,1757c-2.3-13.6-3.5-16.1-9.4-18.9c-2-0.9-4.9-1.4-7.7-1.3v75.6c4.6-0.1,9.3-0.9,10.8-2.3
		C1110.3,1802.7,1112.6,1782.5,1108.4,1757z"/>
	<text id="label30" bar:growlevel="0" transform="matrix(1 0 0 1 1607.124 1473.666)" class="st91 st92 st93">SG</text>
	<text id="label31" bar:growlevel="0" transform="matrix(1 0 0 1 2220.9873 1889.5098)" class="st91 st92 st93">DLEnt</text>
	<text id="label32" bar:growlevel="0" transform="matrix(1 0 0 1 2278.8545 1709.8086)" class="st91 st92 st93">PRh</text>
	<text id="label33" bar:growlevel="0" transform="matrix(1 0 0 1 2318.1563 1623.125)" class="st91 st92 st93">Ect</text>
	<text id="label34" bar:growlevel="0" transform="matrix(1 0 0 1 2328.085 1521.7656)" class="st91 st92 st93">TeA</text>
	<text id="label36" bar:growlevel="0" transform="matrix(1 0 0 1 2326.6465 1423.5566)" class="st91 st92 st93">AuV</text>
	<text id="label37" bar:growlevel="0" transform="matrix(1 0 0 1 2309.335 1264.7422)" class="st91 st92 st93">Au1</text>
	<text id="label38" bar:growlevel="0" transform="matrix(1 0 0 1 2076.2959 1372.3691)" class="st91 st92 st93">CA1</text>
	<text id="label39" bar:growlevel="0" transform="matrix(1 0 0 1 1931.6396 1450.3105)" class="st91 st92 st93">Py</text>
	<text id="label143" bar:growlevel="0" transform="matrix(1 0 0 1 1395.8936 1877.9258)" class="st91 st92 st93">PBP</text>
	<text id="label142" bar:growlevel="0" transform="matrix(1 0 0 1 1486.2275 1817.7676)" class="st91 st92 st93">SNCD</text>
	<text id="label147" bar:growlevel="0" transform="matrix(1 0 0 1 1617.7471 1376.541)" class="st91 st92 st93">DT</text>
	<text id="label146" bar:growlevel="0" transform="matrix(1 0 0 1 1820.5166 1484.6504)" class="st91 st92 st93">MZMG</text>
	<text id="label145" bar:growlevel="0" transform="matrix(1 0 0 1 1912.4648 1357.7266)" class="st91 st92 st93">Rad</text>
	<text id="label144" bar:growlevel="0" transform="matrix(1 0 0 1 1645.166 1612.5625)" class="st91 st92 st93">MGM</text>
	<text id="label148" bar:growlevel="0" transform="matrix(1 0 0 1 1142.9063 1076.8457)" class="st91 st92 st93">Zo</text>
	<text id="label8" bar:growlevel="0" transform="matrix(1 0 0 1 1100.3057 1789.8125)" class="st91 st92 st93">RLi</text>
	<text id="label9" bar:growlevel="0" transform="matrix(1 0 0 1 1340.4551 1750.5859)" class="st91 st92 st93">PaR</text>
	<text id="label133" bar:growlevel="0" transform="matrix(1 0 0 1 1598.5752 1533.3184)" class="st91 st92 st93">bic</text>
	<text id="label0" bar:growlevel="0" transform="matrix(1 0 0 1 1106.2588 2115.2715)" class="st91 st92 st93">IPC</text>
	<text id="label1" bar:growlevel="0" transform="matrix(1 0 0 1 1118.7568 2053.7305)" class="st91 st92 st93">IPR</text>
	<text id="label2" bar:growlevel="0" transform="matrix(1 0 0 1 1106.2588 1970.418)" class="st91 st92 st93">IF</text>
	<text id="label3" bar:growlevel="0" transform="matrix(1 0 0 1 1179.2197 1985.8027)" class="st91 st92 st93">PIF</text>
	<text id="label4" bar:growlevel="0" transform="matrix(1 0 0 1 1159.3154 2006.834)" class="st91 st92 st93">PN</text>
	<text id="label5" bar:growlevel="0" transform="matrix(1 0 0 1 1144.1396 1915.7188)" class="st91 st92 st93">PBP</text>
	<text id="label6" bar:growlevel="0" transform="matrix(1 0 0 1 1201.8252 1849.873)" class="st91 st92 st93">RMC</text>
	<text id="label7" bar:growlevel="0" transform="matrix(1 0 0 1 1193.8447 1768.3496)" class="st91 st92 st93">RPC</text>
	<text id="Unlabeled-2434-1203_" bar:growlevel="0" transform="matrix(1 0 0 1 1650.2051 1365.8926)" class="st91 st92 st93">bsc</text>
	<text id="label85" bar:growlevel="0" transform="matrix(1 0 0 1 1336.585 2084.9961)" class="st91 st92 st93">cp</text>
	<text id="label86" bar:growlevel="0" transform="matrix(1 0 0 1 1286.7393 1922.002)" class="st91 st92 st93">tth</text>
	<text id="label190" bar:growlevel="0" transform="matrix(1 0 0 1 1101.4043 1635.1738)" class="st91 st92 st93">PrEW</text>
	<text id="label191" bar:growlevel="0" transform="matrix(1 0 0 1 1111.2422 1755.0449)" class="st91 st92 st93">mtg</text>
	<text id="label192" bar:growlevel="0" transform="matrix(1 0 0 1 1128.8467 1718.8223)" class="st91 st92 st93">mlf</text>
	<text id="label18" bar:growlevel="0" transform="matrix(1 0 0 1 1568.0068 1773.5703)" class="st91 st92 st93">SNL</text>
	<text id="label19" bar:growlevel="0" transform="matrix(1 0 0 1 1557.9873 1635.666)" class="st91 st92 st93">PoT</text>
	<text id="Unlabeled-1799-717" bar:growlevel="0" transform="matrix(1 0 0 1 1128.8467 1039.3496)" class="st91 st92 st93">vBrain</text>
	<text id="label12" bar:growlevel="0" transform="matrix(1 0 0 1 1183.0225 1641.0195)" class="st91 st92 st93">InC</text>
	<text id="label13" bar:growlevel="0" transform="matrix(1 0 0 1 1137.1641 1596.5703)" class="st91 st92 st93">Su3</text>
	<text id="label10" bar:growlevel="0" transform="matrix(1 0 0 1 1507.2275 1872.8281)" class="st91 st92 st93">SNR</text>
	<text id="label11" bar:growlevel="0" transform="matrix(1 0 0 1 1157.666 2094.3555)" class="st91 st92 st93">IPL</text>
	<text id="label16" bar:growlevel="0" transform="matrix(1 0 0 1 1294.6084 1497.7402)" class="st91 st92 st93">DpWh</text>
	<text id="label17" bar:growlevel="0" transform="matrix(1 0 0 1 1550.5459 1694.1758)" class="st91 st92 st93">PIL</text>
	<text id="label14" bar:growlevel="0" transform="matrix(1 0 0 1 1119.7734 1679.9863)" class="st91 st92 st93">MA3</text>
	<text id="label15" bar:growlevel="0" transform="matrix(1 0 0 1 1137.1611 1529.7793)" class="st91 st92 st93">LPAG</text>
	<text id="label165" bar:growlevel="0" transform="matrix(1 0 0 1 2149.585 1226.0938)" class="st91 st92 st93">dcw</text>
	<text id="label166" bar:growlevel="0" transform="matrix(1 0 0 1 2148.5654 1284.6055)" class="st91 st92 st93">alv</text>
	<text id="label184" bar:growlevel="0" transform="matrix(1 0 0 1 1216.2422 2061.8164)" class="st91 st92 st93">mp</text>
	<text id="Unlabeled-2601-801" bar:growlevel="0" transform="matrix(1 0 0 1 1816.7051 1011.291)" class="st91 st92 st93">Or</text>
	<text id="Unlabeled-2434-1203" bar:growlevel="0" transform="matrix(1 0 0 1 1612.1895 1294.7363)" class="st91 st92 st93">vBrain</text>
	<text id="label68" bar:growlevel="0" transform="matrix(1 0 0 1 1139.5576 1324.2695)" class="st91 st92 st93">csc</text>
	<text id="label67" bar:growlevel="0" transform="matrix(1 0 0 1 1149.3545 1377.9395)" class="st91 st92 st93">DMPAG</text>
	<text id="label66" bar:growlevel="0" transform="matrix(1 0 0 1 1188.5566 1430.8203)" class="st91 st92 st93">DLPAG</text>
	<text id="label65" bar:growlevel="0" transform="matrix(1 0 0 1 1677.3252 1433.9688)" class="st91 st92 st93">MGD</text>
	<text id="label64" bar:growlevel="0" transform="matrix(1 0 0 1 1313.4873 1386.9531)" class="st91 st92 st93">DpG</text>
	<text id="label63" bar:growlevel="0" transform="matrix(1 0 0 1 1371.2373 1323.2207)" class="st91 st92 st93">InWh</text>
	<text id="label62" bar:growlevel="0" transform="matrix(1 0 0 1 1366.7666 1229.1836)" class="st91 st92 st93">InG</text>
	<text id="label61" bar:growlevel="0" transform="matrix(1 0 0 1 1333.1953 1162.8438)" class="st91 st92 st93">Op</text>
	<text id="label60" bar:growlevel="0" transform="matrix(1 0 0 1 1296.5947 1123.8066)" class="st91 st92 st93">SuG</text>
	<text id="Unlabeled-2582-1514" bar:growlevel="0" transform="matrix(1 0 0 1 1727.6045 1723.1914)" class="st91 st92 st93">vBrain</text>
	<text id="label76" bar:growlevel="0" transform="matrix(1 0 0 1 1688.6836 931.209)" class="st94 st92 st93">.LV</text>
	<text id="Unlabeled-2753-1946" bar:growlevel="0" transform="matrix(1 0 0 1 1796.0068 2079.5898)" class="st91 st92 st93">grey</text>
	<text id="Unlabeled-2901-1880" bar:growlevel="0" transform="matrix(1 0 0 1 2083.166 2001.5488)" class="st91 st92 st93">Cx</text>
	<text id="label132" bar:growlevel="0" transform="matrix(1 0 0 1 1584.835 1229.2754)" class="st91 st92 st93">a</text>
	<text id="label48" bar:growlevel="0" transform="matrix(1 0 0 1 1667.5459 768.4531)" class="st91 st92 st93">V1M</text>
	<text id="label130" bar:growlevel="0" transform="matrix(1 0 0 1 1473.5361 953.4355)" class="st91 st92 st93">dhc</text>
	<text id="label131" bar:growlevel="0" transform="matrix(1 0 0 1 1534.6143 1005.6758)" class="st91 st92 st93">alv</text>
	<text id="label137" bar:growlevel="0" transform="matrix(1 0 0 1 1274.792 2030.123)" class="st91 st92 st93">SNCM</text>
	<text id="label135" bar:growlevel="0" transform="matrix(1 0 0 1 1217.7744 1573.8008)" class="st91 st92 st93">InCSh</text>
	<text id="label41" bar:growlevel="0" transform="matrix(1 0 0 1 1754.6045 1288.7734)" class="st91 st92 st93">PoDG</text>
	<text id="label40" bar:growlevel="0" transform="matrix(1 0 0 1 1933.1953 1552.6094)" class="st91 st92 st93">CA3</text>
	<text id="label43" bar:growlevel="0" transform="matrix(1 0 0 1 2093.3086 1272.0098)" class="st91 st92 st93">Or</text>
	<text id="label42" bar:growlevel="0" transform="matrix(1 0 0 1 2038.2275 1293.4844)" class="st91 st92 st93">Rad</text>
	<text id="label45" bar:growlevel="0" transform="matrix(1 0 0 1 2191.3447 1065.1738)" class="st91 st92 st93">PtPC</text>
	<text id="label44" bar:growlevel="0" transform="matrix(1 0 0 1 2232.8643 1123.6855)" class="st91 st92 st93">AuD</text>
	<text id="label47" bar:growlevel="0" transform="matrix(1 0 0 1 1860.7764 829.0645)" class="st91 st92 st93">V1B</text>
	<text id="label46" bar:growlevel="0" transform="matrix(1 0 0 1 2071.4971 949.2051)" class="st91 st92 st93">V2L</text>
	<text id="label56" bar:growlevel="0" transform="matrix(1 0 0 1 1600.5557 1056.8047)" class="st91 st92 st93">DS</text>
	<text id="label57" bar:growlevel="0" transform="matrix(1 0 0 1 1813.1045 1159.2109)" class="st91 st92 st93">LMol</text>
	<text id="label54" bar:growlevel="0" transform="matrix(1 0 0 1 1338.9551 1033.8203)" class="st91 st92 st93">RSGa</text>
	<text id="label55" bar:growlevel="0" transform="matrix(1 0 0 1 1426.7373 1041.1426)" class="st91 st92 st93">Post</text>
	<text id="label52" bar:growlevel="0" transform="matrix(1 0 0 1 1198.1953 853.0977)" class="st91 st92 st93">RSGc</text>
	<text id="label53" bar:growlevel="0" transform="matrix(1 0 0 1 1223.0068 989.9512)" class="st91 st92 st93">RSGb</text>
	<text id="label50" bar:growlevel="0" transform="matrix(1 0 0 1 1391.124 722.4844)" class="st91 st92 st93">V2MM</text>
	<text id="label51" bar:growlevel="0" transform="matrix(1 0 0 1 1283.9063 735.0273)" class="st91 st92 st93">RSD</text>
	<text id="Unlabeled-2582-1514_" bar:growlevel="0" transform="matrix(1 0 0 1 1787.9063 1643.0898)" class="st91 st92 st93">MZMG</text>
	<text id="label58" bar:growlevel="0" transform="matrix(1 0 0 1 1816.7373 1220.8438)" class="st91 st92 st93">MoDG</text>
	<text id="label59" bar:growlevel="0" transform="matrix(1 0 0 1 1673.8447 1229.2129)" class="st91 st92 st93">GrDG</text>
	<text id="label129" bar:growlevel="0" transform="matrix(1 0 0 1 1432.1338 888.834)" class="st91 st92 st93">fmj</text>
	<text id="label128" bar:growlevel="0" transform="matrix(1 0 0 1 1386.6855 853.1289)" class="st91 st92 st93">cg</text>
	<text id="Unlabeled-1932-887" bar:growlevel="0" transform="matrix(1 0 0 1 1613.3057 1141.791)" class="st91 st92 st93">grey</text>
	<text id="label20" bar:growlevel="0" transform="matrix(1 0 0 1 1649.8447 1705.668)" class="st91 st92 st93">SubB</text>
	<text id="label27" bar:growlevel="0" transform="matrix(1 0 0 1 1857.4453 1997.1406)" class="st91 st92 st93">VS</text>
	<text id="label26" bar:growlevel="0" transform="matrix(1 0 0 1 1939.8252 2115.209)" class="st91 st92 st93">APir</text>
	<text id="label25" bar:growlevel="0" transform="matrix(1 0 0 1 1414.374 1646.0781)" class="st91 st92 st93">mRt</text>
	<text id="label29" bar:growlevel="0" transform="matrix(1 0 0 1 1704.1758 1567.7031)" class="st91 st92 st93">MGV</text>
	<text id="label28" bar:growlevel="0" transform="matrix(1 0 0 1 1915.166 1630.416)" class="st91 st92 st93">Or</text>
	<text id="label49" bar:growlevel="0" transform="matrix(1 0 0 1 1506.7764 736.5859)" class="st91 st92 st93">V2ML</text>
	<text id="label151" bar:growlevel="0" transform="matrix(1 0 0 1 2066.7861 1214.4512)" class="st91 st92 st93">Py</text>
	<text id="label152" bar:growlevel="0" transform="matrix(1 0 0 1 1469.2764 1931.2188)" class="st91 st92 st93">SNCV</text>
	<text id="label153" bar:growlevel="0" transform="matrix(1 0 0 1 1097.8096 1875.4082)" class="st91 st92 st93">vtgx</text>
	<text id="label154" bar:growlevel="0" transform="matrix(1 0 0 1 1743.2373 2105.8477)" class="st91 st92 st93">MEntR</text>
	<text id="label155" bar:growlevel="0" transform="matrix(1 0 0 1 1098.4072 1473.666)" class="st91 st92 st93">Aq</text>
	<text id="label158" bar:growlevel="0" transform="matrix(1 0 0 1 1319.2236 1940.4941)" class="st91 st92 st93">ml</text>
	<text id="label159" bar:growlevel="0" transform="matrix(1 0 0 1 1952.5166 1821.5781)" class="st91 st92 st93">hif</text>
	<text id="Unlabeled-2889-1641" bar:growlevel="0" transform="matrix(1 0 0 1 2003.0068 1842.8926)" class="st91 st92 st93">Cx</text>
</g>
</svg>
