<?xml version="1.0" encoding="utf-8"?>
<!-- Generator: Adobe Illustrator 24.1.1, SVG Export Plug-In . SVG Version: 6.00 Build 0)  -->
<svg version="1.1"
	 id="body" inkscape:version="0.47pre4 r22446" sodipodi:docname="89_pretrace_pretrace_v1.svg" xmlns:bar="http://www.3dbar.org" xmlns:cc="http://creativecommons.org/ns#" xmlns:dc="http://purl.org/dc/elements/1.1/" xmlns:inkscape="http://www.inkscape.org/namespaces/inkscape" xmlns:rdf="http://www.w3.org/1999/02/22-rdf-syntax-ns#" xmlns:sodipodi="http://sodipodi.sourceforge.net/DTD/sodipodi-0.dtd" xmlns:svg="http://www.w3.org/2000/svg"
	 xmlns="http://www.w3.org/2000/svg" xmlns:xlink="http://www.w3.org/1999/xlink" x="0px" y="0px" viewBox="0 0 3024 3024"
	 style="enable-background:new 0 0 3024 3024;" xml:space="preserve">
<style type="text/css">
	.st0{fill:#FF000C;}
	.st1{fill:#E7FF00;}
	.st2{fill:#7447E9;}
	.st3{fill:#3A00BF;}
	.st4{fill:#E98D3B;}
	.st5{fill:#3FFF00;}
	.st6{fill:#B18EE1;}
	.st7{fill:#C19AF6;}
	.st8{fill:#FFDE00;}
	.st9{fill:#FFD9B2;}
	.st10{fill:#F4C647;}
	.st11{fill:#E3FFB2;}
	.st12{fill:#F4B200;}
	.st13{fill:#DF8800;}
	.st14{fill:#7123FA;}
	.st15{fill:#E9FF59;}
	.st16{fill:#7B3BED;}
	.st17{fill:#A0FF00;}
	.st18{fill:#B2FF00;}
	.st19{fill:#FF6400;}
	.st20{fill:#BCFFB2;}
	.st21{fill:#FFDFB2;}
	.st22{fill:#B6FF00;}
	.st23{fill:#925FDC;}
	.st24{fill:#CCFFB2;}
	.st25{fill:#610BE5;}
	.st26{fill:#FFB776;}
	.st27{fill:#C4A6FF;}
	.st28{fill:#FEFF3B;}
	.st29{fill:#FFB2DC;}
	.st30{fill:#FFAA59;}
	.st31{fill:#FFB2BA;}
	.st32{fill:#FFBA2C;}
	.st33{fill:#FFAB00;}
	.st34{fill:#FF6700;}
	.st35{fill:#CF7900;}
	.st36{fill:#FF9500;}
	.st37{fill:#FF9A00;}
	.st38{fill:#C99300;}
	.st39{fill:#FFB300;}
	.st40{fill:#D49A00;}
	.st41{fill:#F4D88E;}
	.st42{fill:#D4AE47;}
	.st43{fill:#FFF500;}
	.st44{fill:#F8FFB2;}
	.st45{fill:#B29AE1;}
	.st46{fill:#FF3800;}
	.st47{fill:#F1FF00;}
	.st48{fill:#FBFFB2;}
	.st49{fill:#F7FF59;}
	.st50{fill:#835FBF;}
	.st51{fill:#FFC6B2;}
	.st52{fill:#FF5100;}
	.st53{fill:#FF8159;}
	.st54{fill:#FF3C00;}
	.st55{fill:#FFC5B2;}
	.st56{fill:#5717BF;}
	.st57{fill:#E99159;}
	.st58{fill:#FF7B59;}
	.st59{fill:#6B47C7;}
	.st60{fill:#FF4100;}
	.st61{fill:#FFF8B2;}
	.st62{fill:#E0E959;}
	.st63{fill:#C6D400;}
	.st64{fill:#F3FF59;}
	.st65{fill:#D8E900;}
	.st66{fill:#D8DF00;}
	.st67{fill:#83E900;}
	.st68{fill:#8847F2;}
	.st69{fill:#C4C923;}
	.st70{fill:#C3C900;}
	.st71{fill:#E6E98E;}
	.st72{fill:#FFEC00;}
	.st73{fill:#FDFF76;}
	.st74{fill:#FEFF00;}
	.st75{fill:#D2D400;}
	.st76{fill:#D3D43B;}
	.st77{fill:#FBFF8E;}
	.st78{fill:#FF4900;}
	.st79{fill:#E2E923;}
	.st80{fill:#F1F48E;}
	.st81{fill:#DBDF6B;}
	.st82{fill:#4AFF00;}
	.st83{fill:#FF005D;}
	.st84{fill:#69FF00;}
	.st85{fill:#FF59B8;}
	.st86{fill:#E9C76B;}
	.st87{fill:#FFD4B2;}
	.st88{fill:#97FF59;}
	.st89{fill:#6417F2;}
	.st90{fill:#B58EE9;}
	.st91{fill:#54FF00;}
	.st92{fill:#9653F6;}
	.st93{fill:#A500FF;}
	.st94{fill:#FF9800;}
	.st95{fill:#232323;enable-background:new    ;}
	.st96{font-family:'TimesNewRomanPSMT';}
	.st97{font-size:27px;}
	.st98{fill:#FF0000;enable-background:new    ;}
</style>
<sodipodi:namedview  bordercolor="#666666" borderopacity="1" gridtolerance="10" guidetolerance="10" id="namedview402" inkscape:current-layer="content" inkscape:cx="358.06582" inkscape:cy="407.14563" inkscape:object-paths="true" inkscape:pageopacity="0" inkscape:pageshadow="2" inkscape:window-height="1128" inkscape:window-maximized="1" inkscape:window-width="1918" inkscape:window-x="1680" inkscape:window-y="24" inkscape:zoom="4.4416502" objecttolerance="10" pagecolor="#ffffff" showgrid="false">
	</sodipodi:namedview>
<desc  id="desc5">This was produced by version 4.2 of GNU libplot, a free library for exporting 2-D vector graphics.</desc>
<defs>
	<rdf:RDF>
		<cc:Work  rdf:about="">
			<dc:format>image/svg+xml</dc:format>
			<dc:type  rdf:resource="http://purl.org/dc/dcmitype/StillImage"></dc:type>
		</cc:Work>
	</rdf:RDF>
	<bar:data  content="-1.56" name="coronalcoord"></bar:data>
	
		<bar:data  content="{&apos;ReferenceHeight&apos;: 900, &apos;ReferenceWidth&apos;: 1200, &apos;imageSize&apos;: (1200, 900)}" name="rendererConf">
		</bar:data>
	
		<bar:data  content="{&apos;DumpEachStepSVG&apos;: False, &apos;DumpEachStepPNG&apos;: False, &apos;GrowDefaultBoundaryColor&apos;: 200, &apos;CacheLevel&apos;: 5, &apos;NewPathIdTemplate&apos;: &apos;structure%d_%s_%s&apos;, &apos;PoTraceConf&apos;: {&apos;potrace_accuracy_parameter&apos;: &apos;0.001&apos;, &apos;potrace_width_string&apos;: &apos;1200pt&apos;, &apos;potrace_svg_resolution_string&apos;: &apos;300x300&apos;, &apos;potrace_height_string&apos;: &apos;900pt&apos;}, &apos;DetectUnlabelled&apos;: True, &apos;DumpVBrain&apos;: False, &apos;DumpWrongSeed&apos;: True, &apos;DumpDirectory&apos;: &apos;.&apos;, &apos;MinFiterTimesApplication&apos;: 3, &apos;RegionAlreadyTraced&apos;: 100, &apos;UnlabelledTreshold&apos;: 500}" name="tracingConf">
		</bar:data>
	<bar:data  content="0.0176211454,-9.5150660793,0.0176211454,-1.5355884426" name="transformationmatrix"></bar:data>
</defs>
<g id="content">
	<path class="st0" d="M2375.2,1318.1c-12-105.7-59.3-224.2-134.7-337.5c-53.2-79.7-119.1-153.9-187.4-210.6
		c-33.6-28-78.3-60.1-104.8-75.3c-57.7-33.3-175.6-78.9-240.8-93.2c-44-9.7-102.5-17.7-166.9-22.9c-25.2-2-112.1-2.3-140.9-0.5
		c-87.2,5.6-144.5,17.1-193.3,39c-33.8,15-56.1,41.1-66.7,77.9c-1.7,5.9-5.9,26.5-5.9,28.8c0,0.1-0.3,0.2-0.7,0.2v1468.7
		c12.8-0.1,26.9-0.8,38.5-2.1c29.1-3.1,76.9-10.7,116.5-18.4c18.3-3.6,19.6-3.8,39.6-4.1c30.8-0.4,52.2-3.2,94.9-12.6
		c37.8-8.3,58.6-11.2,92.3-13c18.2-1,25.1-2.6,32.5-7.6c6.7-4.4,7.7-7.1,8.5-20.1c0.5-9.9,0.9-11.7,3.2-16.3
		c1.9-3.8,3.2-5.3,4.8-5.5c4.1-0.6,5.9,0.6,9.9,6.8c10.9,16.6,29.8,39.5,38.8,46.8c13,10.4,43,26.4,69.8,37
		c65.1,25.8,131.7,36.2,232,36.2c51.6,0,60.4-0.9,78.7-8.2c33.7-13.3,78.6-46.2,133.6-97.6c40.8-38.2,77.9-85.8,109.1-140.2
		c39.3-68.5,55.7-115.2,55.6-158.9c0-11.5-0.4-15.9-2.3-25.2c-2.9-13.7-3-19.1-0.4-25.8c1.1-2.9,7.1-14.6,13.3-25.9
		c22.7-41.6,35.6-72.2,47.3-112.9c18.1-62.5,27.3-135.8,28.9-230.4C2378.7,1361.8,2377.9,1341.8,2375.2,1318.1z"/>
	<path id="structure101_label107_OlfCx-1" bar:growlevel="0" bar:type="" class="st1" d="M1701.4,2131.2
		c-3.1,7.6-10.6,14.5-19.7,18.2c-5,2-5.4,3.3-1.6,4.9c3.1,1.3,8.1,6.6,8.1,8.5c0,1.9-2.3,3.8-6,5c-2.3,0.7-7.2,0.9-16.2,0.5
		c-14.9-0.6-16.4,0.3-7.2,4.3c23.4,10.4,40.4,16.8,60.5,22.9c33.9,10.3,77.8,18,115.5,20.4l9.4,0.6l-0.8-4.4
		c-0.4-2.4-0.7-13.8-0.6-25.3V2166l-12.6-4.2c-12.4-4.1-13-4.2-26.5-4.7c-8.1-0.3-19.4,0.1-27.9,0.8c-22.5,2-29.6,1.7-39.8-1.8
		c-9.7-3.3-16.7-7.1-22-11.7c-3.4-3.2-8.6-12.5-8.6-15.7C1705.2,2125.9,1703,2127.2,1701.4,2131.2z"/>
	<path id="structure10_label9_ANS" bar:growlevel="0" bar:type="" class="st2" d="M1285.8,1758.2c-11.4,2.1-25,6-29.3,8.5
		c-6.8,3.8-7.1,8.6-1.4,20.3c6,12.4,13.4,17.4,21.1,14.1c1.8-0.7,7.5-4.1,12.8-7.6c14.4-9.6,30.2-15.4,38.8-14.2
		c2,0.3,7.8,2.2,13,4.1c10.4,4.1,17.5,5.1,19.1,2.6c3.1-4.9-4.9-15.5-15.8-20.9C1328.7,1757.3,1305.3,1754.5,1285.8,1758.2z"/>
	<path class="st3" d="M1631.7,2117.2c-6.9-1.9-13.7-7.2-31.9-24.9c-20.1-19.5-20.9-20.8-20.8-31.7c0-12.8,5.4-25.3,20.7-48.5
		c7.5-11.4,7.4-12.8-0.5-8.7c-6.1,3-23,8.5-29.9,9.5c-16.1,2.5-31.5-1.3-35.8-9.1c-2-3.3-3.2-3.3-4.7,0.1c-1.6,3.9-7.5,8.6-13,10.5
		c-5.9,2-17.3,2-24.1-0.1c-9.9-2.9-15.4-10.4-15.3-20.8c0.1-9.8,5.8-17.3,16.3-21.2c6.2-2.3,14-2,22.1,1.1c5.5,2,12.6,7.7,13.6,10.8
		c0.7,2.1,3,2.3,3.7,0.4c1.3-3.2-12.7-32.2-26.7-55.5c-14.7-24.4-28.8-44.5-50.8-72.3c-16.5-20.9-33.8-50.8-44.5-76.9
		c-5.1-12.4-12.5-34.7-14.9-45.1c-0.9-3.7-1.9-7.1-2.3-7.5c-0.4-0.4-5.5,0.9-11.3,3c-21.1,7.5-68.9,23.4-70.1,23.4
		c-0.7,0-1.4,0.5-1.4,1.3c0,0.8,1.7,1.4,5.5,1.8c13.5,1.5,26.9,6.3,35.7,12.5c7.8,5.7,11.6,15,7.3,18.1c-2.5,1.7-5.3,1.2-16.6-3.3
		c-11.8-4.7-19.1-5.3-28.4-2.4c-8.5,2.5-18.3,7.5-28.3,14.3c-4.4,3.1-9.4,5.8-11.1,6c-7.7,1.4-14.2-3.9-20.1-16.4
		c-4-8.3-4.4-12.5-1.7-15.9c1-1.3,1.8-2.7,1.8-3.1c0-0.5-2.1-1.6-4.6-2.4c-6.3-2.2-17.8-1.4-31.4,1.9c-8.8,2.2-12.2,2.5-23.4,2.6
		c-15.4,0-24.9-1.8-43.6-8.3c-8.3-2.9-13.3-4.3-18.3-4.3v13.1h2.5v6.7v6.6l7.9,0.6c35,2.7,66.1,15.9,74.3,31.6
		c2.6,5,3.2,17.5,1.2,23.9c-4,12.1-15.3,26.7-39.3,50.7l-17.9,17.7v4.8c0,5.9-2.8,17.7-6.2,26.1c-2.6,6.5-2.6,6.7-3.6,35.7
		c-2.5,72.1-5.8,121.8-8.7,133.7c-0.4,1.6,0,2.1,2.7,2.5c6.4,1.2,17.6,7.7,24.4,14.1l6.6,6.2l12,2.8c28.8,6.6,62.4,9.7,89,8.3
		c24.9-1.4,38.7,0.3,44.1,5.3c2.3,2.1,4.5,6.9,4.5,9.7c0,2.8,2.2,2.2,9.7-2.9c16.8-11.3,32.4-24.3,56.1-46.9
		c27.9-26.6,41.1-37.4,56.3-46.2c11.3-6.4,15.9-7.6,29.8-7.6c11.2,0,12-0.1,12-1.7c0-2.3,4.7-6.1,9.3-7.4c6.7-1.9,26.1,1.4,40.4,6.9
		c7.3,2.8,16.7,9.3,22.6,15.5c3.6,3.9,4.2,5.1,4.2,8.2c0,3.2-0.8,4.5-6,10.6c-9.4,11-12.8,20.2-9.6,26c2.3,4.1,4,4,4-0.4
		c0-5.7,2.5-12.4,5.9-16c2.6-2.8,3.5-3.1,5.6-2.6c3.5,0.8,4.5,1.9,9.1,9c11.6,18.1,35.7,46.4,39.6,46.4c0.4,0,1.2-1.9,1.5-4.3
		c1.1-7.7,6.5-10.3,14.6-6.9c1.7,0.7,3.4,1.4,3.8,1.4c0.3,0,0.5-4.2,0.6-9.4l0.1-9.4L1631.7,2117.2z M1358.6,1844.2
		c-0.3,7.1-0.7,9-3.6,14.9c-3.1,6.7-7.1,11.6-11.5,14.7c-2.2,1.5-2.2,1.5-0.6,4c5,7.7,9.1,19.8,11.6,35.3
		c1.6,10.2,1.4,40.3-0.5,55.8c-4.6,37.3-10.9,74.3-15,87.7c-3.5,11.2-12.7,18-30.7,22.5c-31,7.9-90.7,3.6-115.9-8.3
		c-7.6-3.6-12.1-8.8-18.1-21.2c-12.5-25.6-16.5-47.2-12.7-68.5c6.2-34.6,15.1-59.3,28.6-79.4c13.7-20.3,30.2-32,54.6-38.1
		c15.7-4,24.4-4.9,44.9-4.9c21.5,0,19.8,1,15.5-9.4c-2.7-6.5-4.9-17-5-24c0-11,4.4-23.1,10-27.3c6.8-5,17.1-6,24.8-2.4
		c8,3.8,13.9,12.4,20.3,30.5C1358.7,1835.4,1358.9,1836.5,1358.6,1844.2z"/>
	<path id="structure12_label11_PaMP" bar:growlevel="0" bar:type="" class="st4" d="M1135.5,1827.3v44.3h2.5c1.4,0.1,4,0.7,6,1.4
		c6.9,2.6,6.8,2.7,6.8-0.7c0-4.5,2.4-13.1,5.4-19.3c5.1-10.4,15.8-18.6,27.7-21.2c6.5-1.3,20.3-0.6,28.4,1.4c5.2,1.3,6.2,1.4,7,0.4
		c1.4-2.2,0.2-14.8-2-19.3c-7.2-14.9-40-29-71.7-30.8l-10.2-0.5L1135.5,1827.3L1135.5,1827.3z"/>
	<path id="structure133_label142_cg" bar:growlevel="0" bar:type="" class="st5" d="M1340.7,901.4c-7.9,0.9-10.1,1.9-15.8,7.4
		c-9.9,9.4-17.1,23.9-29.6,59.7c-4.3,12.3-9.5,25.5-11.4,29.1c-7.7,14.2-25.1,34.7-39.4,46.5c-9.9,8.4-8.3,10,3.9,4
		c20.8-10.4,41-28.4,63-55.7c15.6-19.3,26.6-30.5,38.3-38.2c29.8-19.9,59.9-25.3,110-19.8c26.8,3,56.9,8.9,87.3,17.5
		c5.2,1.4,19.5,5,31.8,8.1c79.6,19.3,151.6,46.9,212.5,81.4c9.1,5.1,11.3,5.9,11.3,3.9c0-1.6-28.3-26.4-48.2-42.1
		c-11.5-9.1-29.2-21.3-38.2-26.5c-39.4-22.3-119.3-47-192.2-59.4C1465.8,907.3,1364.5,898.5,1340.7,901.4z"/>
	<path id="structure134_label144_st" bar:growlevel="0" bar:type="" class="st6" d="M1665.2,1244.4c-2,0.4-6.3,0.5-9.5,0.3l-5.9-0.5
		l-2.3,4c-8.5,14.5-46.4,39.7-73.1,48.4c-7,2.3-11.4,4.9-16.7,9.6c-4.3,3.8-4.5,5.6-0.9,8.3c3.2,2.3,8.3,9.9,9.9,14.6l1.2,3.2l8,1.2
		c4.3,0.6,8.1,1,8.3,0.8c0.2-0.2,1.2-2.3,2.2-4.7c1.6-3.7,2.6-4.6,7-6.7c6.8-3.1,17.6-3.8,28.3-1.7l7.7,1.4l3.1-2.3
		c5.9-4.1,22.4-18,22.5-18.8c0-0.4-1-1.7-2.3-2.9c-3-2.8-2.9-6,0.5-12.7c5.4-10.9,17.1-20.1,25.6-20.1h3.5l-0.5-4.9
		c-0.5-5.2-2.8-10.4-6.5-14.8C1672.6,1243.2,1671.4,1243,1665.2,1244.4z"/>
	<path id="structure135_label145_sm" bar:growlevel="0" bar:type="" class="st7" d="M1303.8,1311.4c-7.7,2.5-19.3,4-37.7,4.9
		c-29.3,1.4-46.9,4.7-55,10c-10.9,7.1-11.9,9.4-9.5,21.4c1.6,8.8,5,16.5,7.9,18.4c1.1,0.8,8.7,3.8,16.9,6.8
		c24.5,8.8,37.4,15.5,46.9,24.2c3.1,2.9,5.9,4.8,6.8,4.6c0.8-0.2,5.8-5.9,11.1-13c8.1-10.6,10-13.8,12-19.8
		c4.4-13.2,8.7-39.3,8.7-52.7C1311.9,1309.2,1311.7,1309,1303.8,1311.4z"/>
	<path id="structure136_label148_DCl" bar:growlevel="0" bar:type="" class="st8" d="M2047.8,1622c-1.1,9.7-5.9,31.3-9,40.9
		c-1.7,5.3-5.7,15-8.7,21.6c-3.1,6.6-6.8,16-8.5,21c-3.3,10.2-8.3,31.7-7.5,32.4c0.3,0.3,3.1-0.4,6.2-1.4c9-3,19.9-1.2,28,4.8
		c0.8,0.6,1.7,0.9,2,0.6c1.4-1.4,2.8-35.3,2.7-70.6c-0.1-42.3-0.7-53.8-3.1-54.3C2048.7,1616.9,2048.2,1617.9,2047.8,1622z"/>
	<path class="st9" d="M1631.7,2117.2c-6.9-1.9-13.7-7.2-31.9-24.9c-20.1-19.5-20.9-20.8-20.8-31.7c0-12.8,5.4-25.3,20.7-48.5
		c7.5-11.4,7.4-12.8-0.5-8.7c-6.1,3-23,8.5-29.9,9.5c-16.1,2.5-31.5-1.3-35.8-9.1c-2-3.3-3.2-3.3-4.7,0.1c-1.6,3.9-7.5,8.6-13,10.5
		c-5.9,2-17.3,2-24.1-0.1c-9.9-2.9-15.4-10.4-15.3-20.8c0.1-9.8,5.8-17.3,16.3-21.2c6.2-2.3,14-2,22.1,1.1c5.5,2,12.6,7.7,13.6,10.8
		c0.7,2.1,3,2.3,3.7,0.4c1.3-3.2-12.7-32.2-26.7-55.5c-14.7-24.4-28.8-44.5-50.8-72.3c-16.5-20.9-33.8-50.8-44.5-76.9
		c-5.1-12.4-12.5-34.7-14.9-45.1c-0.9-3.7-1.9-7.1-2.3-7.5c-0.4-0.4-5.5,0.9-11.3,3c-21.1,7.5-68.9,23.4-70.1,23.4
		c-0.7,0-1.4,0.5-1.4,1.3c0,0.8,1.7,1.4,5.5,1.8c13.5,1.5,26.9,6.3,35.7,12.5c7.8,5.7,11.6,15,7.3,18.1c-2.5,1.7-5.3,1.2-16.6-3.3
		c-11.8-4.7-19.1-5.3-28.4-2.4c-8.5,2.5-18.3,7.5-28.3,14.3c-4.4,3.1-9.4,5.8-11.1,6c-7.7,1.4-14.2-3.9-20.1-16.4
		c-4-8.3-4.4-12.5-1.7-15.9c1-1.3,1.8-2.7,1.8-3.1c0-0.5-2.1-1.6-4.6-2.4c-6.3-2.2-17.8-1.4-31.4,1.9c-8.8,2.2-12.2,2.5-23.4,2.6
		c-15.4,0-24.9-1.8-43.6-8.3c-8.3-2.9-13.3-4.3-18.3-4.3v13.1h2.5v6.7v6.6l7.9,0.6c35,2.7,66.1,15.9,74.3,31.6
		c2.6,5,3.2,17.5,1.2,23.9c-4,12.1-15.3,26.7-39.3,50.7l-17.9,17.7v4.8c0,5.9-2.8,17.7-6.2,26.1c-2.6,6.5-2.6,6.7-3.6,35.7
		c-2.5,72.1-5.8,121.8-8.7,133.7c-0.4,1.6,0,2.1,2.7,2.5c6.4,1.2,17.6,7.7,24.4,14.1l6.6,6.2l12,2.8c28.8,6.6,62.4,9.7,89,8.3
		c24.9-1.4,38.7,0.3,44.1,5.3c2.3,2.1,4.5,6.9,4.5,9.7c0,2.8,2.2,2.2,9.7-2.9c16.8-11.3,32.4-24.3,56.1-46.9
		c27.9-26.6,41.1-37.4,56.3-46.2c11.3-6.4,15.9-7.6,29.8-7.6c11.2,0,12-0.1,12-1.7c0-2.3,4.7-6.1,9.3-7.4c6.7-1.9,26.1,1.4,40.4,6.9
		c7.3,2.8,16.7,9.3,22.6,15.5c3.6,3.9,4.2,5.1,4.2,8.2c0,3.2-0.8,4.5-6,10.6c-9.4,11-12.8,20.2-9.6,26c2.3,4.1,4,4,4-0.4
		c0-5.7,2.5-12.4,5.9-16c2.6-2.8,3.5-3.1,5.6-2.6c3.5,0.8,4.5,1.9,9.1,9c11.6,18.1,35.7,46.4,39.6,46.4c0.4,0,1.2-1.9,1.5-4.3
		c1.1-7.7,6.5-10.3,14.6-6.9c1.7,0.7,3.4,1.4,3.8,1.4c0.3,0,0.5-4.2,0.6-9.4l0.1-9.4L1631.7,2117.2z M1358.6,1844.2
		c-0.3,7.1-0.7,9-3.6,14.9c-3.1,6.7-7.1,11.6-11.5,14.7c-2.2,1.5-2.2,1.5-0.6,4c5,7.7,9.1,19.8,11.6,35.3
		c1.6,10.2,1.4,40.3-0.5,55.8c-4.6,37.3-10.9,74.3-15,87.7c-3.5,11.2-12.7,18-30.7,22.5c-31,7.9-90.7,3.6-115.9-8.3
		c-7.6-3.6-12.1-8.8-18.1-21.2c-12.5-25.6-16.5-47.2-12.7-68.5c6.2-34.6,15.1-59.3,28.6-79.4c13.7-20.3,30.2-32,54.6-38.1
		c15.7-4,24.4-4.9,44.9-4.9c21.5,0,19.8,1,15.5-9.4c-2.7-6.5-4.9-17-5-24c0-11,4.4-23.1,10-27.3c6.8-5,17.1-6,24.8-2.4
		c8,3.8,13.9,12.4,20.3,30.5C1358.7,1835.4,1358.9,1836.5,1358.6,1844.2z"/>
	<path class="st10" d="M1140.6,1687.9c-1.4-26.5-2.1-29.8-7.6-30.3v97.7c0.1,0,0.1,0,0.2,0c2.3-0.2,3.1-1,4.8-4.3
		C1141.9,1742.8,1142.6,1726.9,1140.6,1687.9z"/>
	<path id="structure139_label151_STSL" bar:growlevel="0" bar:type="" class="st11" d="M1669.6,1268.6c-5.1,2.6-12.3,10-15.7,16.3
		c-2.3,4.2-2.7,6.2-2.5,9.5c0.3,3.8,0.5,4.2,3,5c2.5,0.9,3,0.6,10.8-7.7c8.8-9.4,13.8-16.6,14.6-21.8l0.5-3.2h-3.5
		C1674.8,1266.8,1671.7,1267.6,1669.6,1268.6z"/>
	<path id="structure13_label12_PaXi" bar:growlevel="0" bar:type="" class="st12" d="M1141.9,1720.7c0,15.3-1,24.8-3.2,30.1
		c-0.7,1.8-1.3,3.5-1.3,3.9s4.1,2.2,9.3,4c20.1,7.1,42.2,11.2,54.5,10c3.2-0.4,11.4-1.8,18.1-3.2c6.7-1.5,15.2-3,18.9-3.2l6.8-0.5
		l4.4-8.1c2.5-4.5,7.7-13.1,11.5-19.3c3.8-6.1,6.9-11.5,6.9-12c0-1.6-2.6-0.7-9.8,3.7c-15.6,9.3-28.7,13-46,12.9
		c-10.4,0-13.2-0.4-20.1-2.4c-15.8-4.7-29.8-12.8-41.7-24.1c-3.5-3.3-6.8-6.1-7.4-6.1C1142.2,1706,1141.9,1710.7,1141.9,1720.7z"/>
	<path id="structure140_label152_PC" bar:growlevel="0" bar:type="" class="st13" d="M1276.1,1409.6c-2.4,3.9-6.1,9.9-8.2,13.4
		c-7.8,13.7-23.6,32.3-34.6,40.8c-10.2,7.7-22.9,14.2-32.5,16.4c-2.9,0.7-5,1.7-5,2.3c0,2.3,9,19.2,10.2,19.2
		c3.9,0,29.7-18.4,40.9-29.1c12.5-12,19-20.6,34.6-46c2.7-4.3,7.6-10.9,11-14.5c3.3-3.6,6-6.9,6-7.4c0-0.8-9.9-2.1-15.8-2.1
		C1281.2,1402.7,1279.5,1404.4,1276.1,1409.6z"/>
	<path class="st14" d="M1159.7,1246.6c-4-0.3-15.1-0.4-26.6-0.4v12c7.3,0,14.7,0.2,21.1,0.7l9.9,0.8l2-2.5c1.4-1.7,2-3.8,2-6.3v-3.8
		L1159.7,1246.6z"/>
	<path id="structure142_label154_MoDG" bar:growlevel="0" bar:type="" class="st15" d="M1212,1239.7c-15.4,1.4-25.2,3-25.2,4.2
		c0,1.3,9.7,4.7,21.6,7.7c5.4,1.3,11.8,2,21.7,2.3c16.4,0.5,23.6-0.6,34-5.6c6.6-3.1,8.1-5.4,4.4-6.3
		C1257.9,1239.6,1227.9,1238.5,1212,1239.7z"/>
	<path id="structure144_label156_RtSt" bar:growlevel="0" bar:type="" class="st16" d="M1503.6,1301.5c0,2.3,11.2,23.3,15.7,29.6
		c5.3,7.4,13,15.8,14.5,15.8c1.3,0,1.8-1.2,6-13.5c3.4-10.1,8.7-18.8,15.2-25.3c6.3-6.3,6.7-7.6,2-6.8c-16.8,2.8-32.8,2.8-43.9,0.1
		C1506.1,1299.7,1503.6,1299.7,1503.6,1301.5z"/>
	<path id="structure145_label157_STSM" bar:growlevel="0" bar:type="" class="st17" d="M1548.9,1315.2c-4.3,5.9-10.3,20.2-9,21.4
		c0.3,0.4,2.3-0.3,4.4-1.3c4-2,13.1-3.8,19-3.8c4,0,4.2-1,1.1-7.3c-3-5.7-8.8-11.6-11.5-11.6
		C1551.6,1312.7,1550,1313.7,1548.9,1315.2z"/>
	<path id="structure146_label159_IG" bar:growlevel="0" bar:type="" class="st18" d="M1144.4,1066.1c-3.9,2.1-7,5.9-7,8.4
		c0,2-0.2,2,19.6-0.9c11.4-1.6,12.2-2.4,6.4-6.3C1158.3,1063.9,1149.3,1063.4,1144.4,1066.1z"/>
	<path id="structure14_label13_SO" bar:growlevel="0" bar:type="" class="st19" d="M1495.9,2044.8c-3.1,1.4-5.8,4.6-5.8,6.8
		c0,1,1.4,1.8,4.4,2.6c11.8,3,19.2,8.5,28.2,21.2c2.8,4,9.4,12.1,14.6,18c5.2,5.9,9.5,11.1,9.5,11.4c0,0.5,0.5,0.7,1.2,0.7
		c0.6,0,1.7-1.9,2.3-4.2c1.4-5.3,3.6-8.8,10.3-16.8c5.6-6.6,6.7-9,5.8-12.7c-1.4-5.3-13.3-15.3-24.3-20.3
		C1528.4,2045.4,1502.7,2041.6,1495.9,2044.8z"/>
	<path id="structure152_label167_cst" bar:growlevel="0" bar:type="" class="st20" d="M1601.7,1320.9c-10.6,1.2-16.1,5.8-16.1,13.5
		c0,3.4,0.4,4.6,1.5,5c2,0.8,18.4-4.8,29.5-10c6.6-3.1,8.5-4.4,8.5-5.8c0-1.5-0.8-1.8-5.1-2.3
		C1609.8,1320.3,1607.5,1320.2,1601.7,1320.9z"/>
	<path id="structure155_label169_AVDM" bar:growlevel="0" bar:type="" class="st21" d="M1417.1,1276.8
		c-13.1,7.2-41.4,33.1-58.1,53.2c-13.9,16.7-23.6,31-30.5,44.6l-6.1,12v9.6c0,11.3,2,17,7.7,22.1c6.1,5.6,13.5,5.5,24.9-0.3
		c31.5-15.8,66-62.2,76.3-102.5c4.1-16,3.8-31.2-0.8-38.2C1427.7,1273.3,1423.8,1273.1,1417.1,1276.8z"/>
	<path id="structure156_label170_aot" bar:growlevel="0" bar:type="" class="st22" d="M1619.3,2136.7c-1.9,1.8-2.3,3.1-2.3,7.1
		c0,5,0.1,5,4.3,8.1c2.3,1.8,8.5,5.6,13.7,8.5c8.4,4.7,10.4,5.4,17.5,6.5c4.5,0.6,13,1.2,18.9,1.3c8.9,0,11.3-0.3,13.3-1.6
		c3.5-2.3,3.3-6-0.5-9.2c-4.2-3.6-6.4-4.2-19.4-5.5c-14.6-1.4-19.2-3.2-25.2-9.8c-3.4-3.8-5.5-5-9.3-6.2
		C1624,2133.9,1621.8,2134,1619.3,2136.7z"/>
	<path id="structure157_label171_cst" bar:growlevel="0" bar:type="" class="st20" d="M1710,2022.8c-8.1,3.7-17.3,10.9-19.7,15.5
		c-0.7,1.4-1.3,4.4-1.3,6.8c0,5.6,2.9,9.2,7.4,9.2c9.1,0,27.6-32,19.2-33C1714.6,2021.1,1712.1,2021.8,1710,2022.8z"/>
	<path class="st3" d="M1631.7,2117.2c-6.9-1.9-13.7-7.2-31.9-24.9c-20.1-19.5-20.9-20.8-20.8-31.7c0-12.8,5.4-25.3,20.7-48.5
		c7.5-11.4,7.4-12.8-0.5-8.7c-6.1,3-23,8.5-29.9,9.5c-16.1,2.5-31.5-1.3-35.8-9.1c-2-3.3-3.2-3.3-4.7,0.1c-1.6,3.9-7.5,8.6-13,10.5
		c-5.9,2-17.3,2-24.1-0.1c-9.9-2.9-15.4-10.4-15.3-20.8c0.1-9.8,5.8-17.3,16.3-21.2c6.2-2.3,14-2,22.1,1.1c5.5,2,12.6,7.7,13.6,10.8
		c0.7,2.1,3,2.3,3.7,0.4c1.3-3.2-12.7-32.2-26.7-55.5c-14.7-24.4-28.8-44.5-50.8-72.3c-16.5-20.9-33.8-50.8-44.5-76.9
		c-5.1-12.4-12.5-34.7-14.9-45.1c-0.9-3.7-1.9-7.1-2.3-7.5c-0.4-0.4-5.5,0.9-11.3,3c-21.1,7.5-68.9,23.4-70.1,23.4
		c-0.7,0-1.4,0.5-1.4,1.3c0,0.8,1.7,1.4,5.5,1.8c13.5,1.5,26.9,6.3,35.7,12.5c7.8,5.7,11.6,15,7.3,18.1c-2.5,1.7-5.3,1.2-16.6-3.3
		c-11.8-4.7-19.1-5.3-28.4-2.4c-8.5,2.5-18.3,7.5-28.3,14.3c-4.4,3.1-9.4,5.8-11.1,6c-7.7,1.4-14.2-3.9-20.1-16.4
		c-4-8.3-4.4-12.5-1.7-15.9c1-1.3,1.8-2.7,1.8-3.1c0-0.5-2.1-1.6-4.6-2.4c-6.3-2.2-17.8-1.4-31.4,1.9c-8.8,2.2-12.2,2.5-23.4,2.6
		c-15.4,0-24.9-1.8-43.6-8.3c-8.3-2.9-13.3-4.3-18.3-4.3v13.1h2.5v6.7v6.6l7.9,0.6c35,2.7,66.1,15.9,74.3,31.6
		c2.6,5,3.2,17.5,1.2,23.9c-4,12.1-15.3,26.7-39.3,50.7l-17.9,17.7v4.8c0,5.9-2.8,17.7-6.2,26.1c-2.6,6.5-2.6,6.7-3.6,35.7
		c-2.5,72.1-5.8,121.8-8.7,133.7c-0.4,1.6,0,2.1,2.7,2.5c6.4,1.2,17.6,7.7,24.4,14.1l6.6,6.2l12,2.8c28.8,6.6,62.4,9.7,89,8.3
		c24.9-1.4,38.7,0.3,44.1,5.3c2.3,2.1,4.5,6.9,4.5,9.7c0,2.8,2.2,2.2,9.7-2.9c16.8-11.3,32.4-24.3,56.1-46.9
		c27.9-26.6,41.1-37.4,56.3-46.2c11.3-6.4,15.9-7.6,29.8-7.6c11.2,0,12-0.1,12-1.7c0-2.3,4.7-6.1,9.3-7.4c6.7-1.9,26.1,1.4,40.4,6.9
		c7.3,2.8,16.7,9.3,22.6,15.5c3.6,3.9,4.2,5.1,4.2,8.2c0,3.2-0.8,4.5-6,10.6c-9.4,11-12.8,20.2-9.6,26c2.3,4.1,4,4,4-0.4
		c0-5.7,2.5-12.4,5.9-16c2.6-2.8,3.5-3.1,5.6-2.6c3.5,0.8,4.5,1.9,9.1,9c11.6,18.1,35.7,46.4,39.6,46.4c0.4,0,1.2-1.9,1.5-4.3
		c1.1-7.7,6.5-10.3,14.6-6.9c1.7,0.7,3.4,1.4,3.8,1.4c0.3,0,0.5-4.2,0.6-9.4l0.1-9.4L1631.7,2117.2z M1358.6,1844.2
		c-0.3,7.1-0.7,9-3.6,14.9c-3.1,6.7-7.1,11.6-11.5,14.7c-2.2,1.5-2.2,1.5-0.6,4c5,7.7,9.1,19.8,11.6,35.3
		c1.6,10.2,1.4,40.3-0.5,55.8c-4.6,37.3-10.9,74.3-15,87.7c-3.5,11.2-12.7,18-30.7,22.5c-31,7.9-90.7,3.6-115.9-8.3
		c-7.6-3.6-12.1-8.8-18.1-21.2c-12.5-25.6-16.5-47.2-12.7-68.5c6.2-34.6,15.1-59.3,28.6-79.4c13.7-20.3,30.2-32,54.6-38.1
		c15.7-4,24.4-4.9,44.9-4.9c21.5,0,19.8,1,15.5-9.4c-2.7-6.5-4.9-17-5-24c0-11,4.4-23.1,10-27.3c6.8-5,17.1-6,24.8-2.4
		c8,3.8,13.9,12.4,20.3,30.5C1358.7,1835.4,1358.9,1836.5,1358.6,1844.2z"/>
	<path class="st23" d="M1631.7,2117.2c-6.9-1.9-13.7-7.2-31.9-24.9c-20.1-19.5-20.9-20.8-20.8-31.7c0-12.8,5.4-25.3,20.7-48.5
		c7.5-11.4,7.4-12.8-0.5-8.7c-6.1,3-23,8.5-29.9,9.5c-16.1,2.5-31.5-1.3-35.8-9.1c-2-3.3-3.2-3.3-4.7,0.1c-1.6,3.9-7.5,8.6-13,10.5
		c-5.9,2-17.3,2-24.1-0.1c-9.9-2.9-15.4-10.4-15.3-20.8c0.1-9.8,5.8-17.3,16.3-21.2c6.2-2.3,14-2,22.1,1.1c5.5,2,12.6,7.7,13.6,10.8
		c0.7,2.1,3,2.3,3.7,0.4c1.3-3.2-12.7-32.2-26.7-55.5c-14.7-24.4-28.8-44.5-50.8-72.3c-16.5-20.9-33.8-50.8-44.5-76.9
		c-5.1-12.4-12.5-34.7-14.9-45.1c-0.9-3.7-1.9-7.1-2.3-7.5c-0.4-0.4-5.5,0.9-11.3,3c-21.1,7.5-68.9,23.4-70.1,23.4
		c-0.7,0-1.4,0.5-1.4,1.3c0,0.8,1.7,1.4,5.5,1.8c13.5,1.5,26.9,6.3,35.7,12.5c7.8,5.7,11.6,15,7.3,18.1c-2.5,1.7-5.3,1.2-16.6-3.3
		c-11.8-4.7-19.1-5.3-28.4-2.4c-8.5,2.5-18.3,7.5-28.3,14.3c-4.4,3.1-9.4,5.8-11.1,6c-7.7,1.4-14.2-3.9-20.1-16.4
		c-4-8.3-4.4-12.5-1.7-15.9c1-1.3,1.8-2.7,1.8-3.1c0-0.5-2.1-1.6-4.6-2.4c-6.3-2.2-17.8-1.4-31.4,1.9c-8.8,2.2-12.2,2.5-23.4,2.6
		c-15.4,0-24.9-1.8-43.6-8.3c-8.3-2.9-13.3-4.3-18.3-4.3v13.1h2.5v6.7v6.6l7.9,0.6c35,2.7,66.1,15.9,74.3,31.6
		c2.6,5,3.2,17.5,1.2,23.9c-4,12.1-15.3,26.7-39.3,50.7l-17.9,17.7v4.8c0,5.9-2.8,17.7-6.2,26.1c-2.6,6.5-2.6,6.7-3.6,35.7
		c-2.5,72.1-5.8,121.8-8.7,133.7c-0.4,1.6,0,2.1,2.7,2.5c6.4,1.2,17.6,7.7,24.4,14.1l6.6,6.2l12,2.8c28.8,6.6,62.4,9.7,89,8.3
		c24.9-1.4,38.7,0.3,44.1,5.3c2.3,2.1,4.5,6.9,4.5,9.7c0,2.8,2.2,2.2,9.7-2.9c16.8-11.3,32.4-24.3,56.1-46.9
		c27.9-26.6,41.1-37.4,56.3-46.2c11.3-6.4,15.9-7.6,29.8-7.6c11.2,0,12-0.1,12-1.7c0-2.3,4.7-6.1,9.3-7.4c6.7-1.9,26.1,1.4,40.4,6.9
		c7.3,2.8,16.7,9.3,22.6,15.5c3.6,3.9,4.2,5.1,4.2,8.2c0,3.2-0.8,4.5-6,10.6c-9.4,11-12.8,20.2-9.6,26c2.3,4.1,4,4,4-0.4
		c0-5.7,2.5-12.4,5.9-16c2.6-2.8,3.5-3.1,5.6-2.6c3.5,0.8,4.5,1.9,9.1,9c11.6,18.1,35.7,46.4,39.6,46.4c0.4,0,1.2-1.9,1.5-4.3
		c1.1-7.7,6.5-10.3,14.6-6.9c1.7,0.7,3.4,1.4,3.8,1.4c0.3,0,0.5-4.2,0.6-9.4l0.1-9.4L1631.7,2117.2z M1358.6,1844.2
		c-0.3,7.1-0.7,9-3.6,14.9c-3.1,6.7-7.1,11.6-11.5,14.7c-2.2,1.5-2.2,1.5-0.6,4c5,7.7,9.1,19.8,11.6,35.3
		c1.6,10.2,1.4,40.3-0.5,55.8c-4.6,37.3-10.9,74.3-15,87.7c-3.5,11.2-12.7,18-30.7,22.5c-31,7.9-90.7,3.6-115.9-8.3
		c-7.6-3.6-12.1-8.8-18.1-21.2c-12.5-25.6-16.5-47.2-12.7-68.5c6.2-34.6,15.1-59.3,28.6-79.4c13.7-20.3,30.2-32,54.6-38.1
		c15.7-4,24.4-4.9,44.9-4.9c21.5,0,19.8,1,15.5-9.4c-2.7-6.5-4.9-17-5-24c0-11,4.4-23.1,10-27.3c6.8-5,17.1-6,24.8-2.4
		c8,3.8,13.9,12.4,20.3,30.5C1358.7,1835.4,1358.9,1836.5,1358.6,1844.2z"/>
	<path class="st24" d="M1133,1131.1v-1.7C1132.8,1129.8,1132.8,1130.3,1133,1131.1z"/>
	<path class="st24" d="M1239.9,1116.9c-0.2,0.3-6.5,1.6-13.9,3.2c-24.1,4.8-57.9,8.2-82,8.2c-7.4,0-10.3,0-11,1.2v1.7
		c0.2,0.6,0.5,1.4,0.8,2.3c4.4,11.8,31.8,19.5,54.1,15.2c9.4-1.9,20.8-6.2,30.5-11.8c10.4-5.8,26-17.4,26-19
		C1244.4,1116.6,1240.8,1116,1239.9,1116.9z"/>
	<path class="st25" d="M1644.8,1237c-7.2-7.2-25.8-16.9-65.4-34.1c-12.6-5.4-28.6-13.1-35.5-16.8c-15.9-8.9-162.6-105.4-173.9-114.4
		c-6.8-5.6-10.3-10.6-10.9-15.8c-0.3-2.3-0.9-4.1-1.3-4.1c-0.5,0-3.2,2-6,4.3c-25.2,21.4-67,46.3-92.8,55.2
		c-7.2,2.5-9.9,4.1-17.1,9.8c-27.5,21.9-53.3,31.8-75.2,28.8c-8.5-1.1-21.4-5.1-25.3-7.9c-1.4-1-3.7-3.1-5.1-4.6
		c-1.2-1.2-2.4-2.3-3.1-2.6v110.7c5.5,0,11.1,0.2,17.1,0.5c14.7,0.8,18.8,0.7,22.6-0.3c7.7-2,23.8-4.7,35.1-5.9
		c14.3-1.3,48-0.6,58.7,1.4c16.1,3.1,30,6.7,37.8,10c33.8,14,44.3,16.5,77.4,17.6c25.4,0.9,40.5,2.8,64.1,8.2
		c17.6,4,22.4,5.6,37.2,12.5c22.4,10.4,31.5,12.7,50.4,12.7c29.5,0.1,55.1-8.8,85.5-29.5C1645.2,1254.5,1652.4,1244.7,1644.8,1237z"
		/>
	<path class="st10" d="M1140.6,1687.9c-1.4-26.5-2.1-29.8-7.6-30.3v97.7c0.1,0,0.1,0,0.2,0c2.3-0.2,3.1-1,4.8-4.3
		C1141.9,1742.8,1142.6,1726.9,1140.6,1687.9z"/>
	<path id="structure169_label201_PaV" bar:growlevel="0" bar:type="" class="st26" d="M1135.5,1907.6c0,25,0.3,36.7,1,38.1
		c3.2,6,7.7,7.6,11.6,4c2.8-2.6,8.5-14.9,10.7-23.2c3.5-13.3,3.3-24.7-0.8-38.1c-3.1-9.7-8.7-14.8-18.6-16.4l-3.9-0.6L1135.5,1907.6
		L1135.5,1907.6z"/>
	<path id="structure170_label202_PaMM" bar:growlevel="0" bar:type="" class="st27" d="M1185.3,1832c-9.5,1.7-14.8,4.4-21.1,10.7
		c-8.5,8.5-12.4,17.7-12.5,29.3c0,4.2,0.5,5.8,2.2,7.8c2.8,3.2,5.6,10.6,6.9,18.4c0.8,4,1.5,5.8,2.3,5.7
		c1.9-0.5,19.7-17.4,29.4-28.1c11.6-12.7,18.9-22.3,23.3-30.9c3.9-7.5,4.1-8.8,1.9-9.7C1210.5,1832.5,1192.8,1830.7,1185.3,1832z"/>
	<path id="structure172_Unlabeled-949-516_S1DZ" bar:growlevel="0" bar:type="" class="st28" d="M1895.8,670.7
		c-10.9,17.8-176.1,305.2-176.1,306.2c0.1,0.8,3,3.3,6.6,5.7c3.6,2.3,11.3,7.6,17,11.9c5.8,4.2,11,7.7,11.6,7.7
		c1.1-0.1,194.3-301.9,195-304.7c0.3-1.3-11.1-7.6-33.9-18.8C1898.7,670.3,1896.6,669.4,1895.8,670.7z"/>
	<polygon class="st29" points="1133,1769 1133,2107.4 1135.5,2107.4 1135.5,1938.2 1135.5,1769 	"/>
	<path class="st30" d="M1147.5,1950.8c-3,2.3-4,2.3-7.3-0.5c-1.5-1.3-3.1-2.3-3.7-2.3c-0.7,0-1,22.2-1,80.1v80.1h-2.5v9.7
		c0.1,0,0.2,0,0.3,0c7.3-0.4,9.2-4.9,11.6-27.3c2.1-19.4,5.1-77.7,6.5-121.3C1152.1,1947.4,1152,1947.2,1147.5,1950.8z"/>
	<path class="st9" d="M1631.7,2117.2c-6.9-1.9-13.7-7.2-31.9-24.9c-20.1-19.5-20.9-20.8-20.8-31.7c0-12.8,5.4-25.3,20.7-48.5
		c7.5-11.4,7.4-12.8-0.5-8.7c-6.1,3-23,8.5-29.9,9.5c-16.1,2.5-31.5-1.3-35.8-9.1c-2-3.3-3.2-3.3-4.7,0.1c-1.6,3.9-7.5,8.6-13,10.5
		c-5.9,2-17.3,2-24.1-0.1c-9.9-2.9-15.4-10.4-15.3-20.8c0.1-9.8,5.8-17.3,16.3-21.2c6.2-2.3,14-2,22.1,1.1c5.5,2,12.6,7.7,13.6,10.8
		c0.7,2.1,3,2.3,3.7,0.4c1.3-3.2-12.7-32.2-26.7-55.5c-14.7-24.4-28.8-44.5-50.8-72.3c-16.5-20.9-33.8-50.8-44.5-76.9
		c-5.1-12.4-12.5-34.7-14.9-45.1c-0.9-3.7-1.9-7.1-2.3-7.5c-0.4-0.4-5.5,0.9-11.3,3c-21.1,7.5-68.9,23.4-70.1,23.4
		c-0.7,0-1.4,0.5-1.4,1.3c0,0.8,1.7,1.4,5.5,1.8c13.5,1.5,26.9,6.3,35.7,12.5c7.8,5.7,11.6,15,7.3,18.1c-2.5,1.7-5.3,1.2-16.6-3.3
		c-11.8-4.7-19.1-5.3-28.4-2.4c-8.5,2.5-18.3,7.5-28.3,14.3c-4.4,3.1-9.4,5.8-11.1,6c-7.7,1.4-14.2-3.9-20.1-16.4
		c-4-8.3-4.4-12.5-1.7-15.9c1-1.3,1.8-2.7,1.8-3.1c0-0.5-2.1-1.6-4.6-2.4c-6.3-2.2-17.8-1.4-31.4,1.9c-8.8,2.2-12.2,2.5-23.4,2.6
		c-15.4,0-24.9-1.8-43.6-8.3c-8.3-2.9-13.3-4.3-18.3-4.3v13.1h2.5v6.7v6.6l7.9,0.6c35,2.7,66.1,15.9,74.3,31.6
		c2.6,5,3.2,17.5,1.2,23.9c-4,12.1-15.3,26.7-39.3,50.7l-17.9,17.7v4.8c0,5.9-2.8,17.7-6.2,26.1c-2.6,6.5-2.6,6.7-3.6,35.7
		c-2.5,72.1-5.8,121.8-8.7,133.7c-0.4,1.6,0,2.1,2.7,2.5c6.4,1.2,17.6,7.7,24.4,14.1l6.6,6.2l12,2.8c28.8,6.6,62.4,9.7,89,8.3
		c24.9-1.4,38.7,0.3,44.1,5.3c2.3,2.1,4.5,6.9,4.5,9.7c0,2.8,2.2,2.2,9.7-2.9c16.8-11.3,32.4-24.3,56.1-46.9
		c27.9-26.6,41.1-37.4,56.3-46.2c11.3-6.4,15.9-7.6,29.8-7.6c11.2,0,12-0.1,12-1.7c0-2.3,4.7-6.1,9.3-7.4c6.7-1.9,26.1,1.4,40.4,6.9
		c7.3,2.8,16.7,9.3,22.6,15.5c3.6,3.9,4.2,5.1,4.2,8.2c0,3.2-0.8,4.5-6,10.6c-9.4,11-12.8,20.2-9.6,26c2.3,4.1,4,4,4-0.4
		c0-5.7,2.5-12.4,5.9-16c2.6-2.8,3.5-3.1,5.6-2.6c3.5,0.8,4.5,1.9,9.1,9c11.6,18.1,35.7,46.4,39.6,46.4c0.4,0,1.2-1.9,1.5-4.3
		c1.1-7.7,6.5-10.3,14.6-6.9c1.7,0.7,3.4,1.4,3.8,1.4c0.3,0,0.5-4.2,0.6-9.4l0.1-9.4L1631.7,2117.2z M1358.6,1844.2
		c-0.3,7.1-0.7,9-3.6,14.9c-3.1,6.7-7.1,11.6-11.5,14.7c-2.2,1.5-2.2,1.5-0.6,4c5,7.7,9.1,19.8,11.6,35.3
		c1.6,10.2,1.4,40.3-0.5,55.8c-4.6,37.3-10.9,74.3-15,87.7c-3.5,11.2-12.7,18-30.7,22.5c-31,7.9-90.7,3.6-115.9-8.3
		c-7.6-3.6-12.1-8.8-18.1-21.2c-12.5-25.6-16.5-47.2-12.7-68.5c6.2-34.6,15.1-59.3,28.6-79.4c13.7-20.3,30.2-32,54.6-38.1
		c15.7-4,24.4-4.9,44.9-4.9c21.5,0,19.8,1,15.5-9.4c-2.7-6.5-4.9-17-5-24c0-11,4.4-23.1,10-27.3c6.8-5,17.1-6,24.8-2.4
		c8,3.8,13.9,12.4,20.3,30.5C1358.7,1835.4,1358.9,1836.5,1358.6,1844.2z"/>
	<path id="structure179_Unlabeled-2118-808_Unlabeled" bar:growlevel="0" bar:type="" class="st31" d="M1410.3,932.9
		c-22.8,2-41.9,8.7-60.8,21.2c-11.6,7.7-22.7,18.8-38.3,38.2c-11.3,14.2-24.4,28.2-31.1,33.3c-3.2,2.4-3.4,4.9-0.4,4.3
		c1.2-0.3,13.9-8.1,28.2-17.6c49.4-32.6,74.4-46.4,93.5-51.9c29.3-8.3,70.2-13,106.5-12c16,0.4,20,0.3,20-0.6
		c0-2.3-42.5-10.6-68.4-13.5C1444.1,932.6,1421,931.9,1410.3,932.9z"/>
	<path id="structure181_Unlabeled-2273-1252_Unlabeled" bar:growlevel="0" bar:type="" class="st31" d="M1553.1,1332.6
		c-2.7,0.4-6.6,1.6-8.5,2.5c-2,0.9-4.3,1.9-5.1,2.2c-0.9,0.4-1.6,1.2-1.6,1.9c0,0.6-0.6,2.4-1.4,3.8c-0.7,1.4-1.3,3.2-1.3,4.1
		c0,4.2,19.3,2.5,43.9-3.9c6.8-1.7,7.5-2.1,7-3.8c-0.3-1.1-0.5-2.6-0.5-3.5c0-1.1-0.7-1.5-2.4-1.5c-1.4,0-5.8-0.6-9.7-1.4
		C1565.3,1331.5,1560.4,1331.4,1553.1,1332.6z"/>
	<path class="st31" d="M1202.7,1352.8c-0.8-3-1.7-8.1-2.1-11.5c-0.3-3.5-0.9-6-1.5-6c-0.5,0.1-6.8,5.3-14,11.6
		c-18.1,16.1-33,24.8-47.4,27.2c-1.6,0.3-3.1,0.4-4.7,0.5v23.3c6.9,0,8.2-0.3,14.3-3.3c3.7-1.8,9.9-6.1,13.8-9.4
		c13.6-11.8,16.4-13.9,24.1-17.7c5.8-3,9.4-4.1,13.8-4.6C1205.7,1361.9,1205.5,1362.8,1202.7,1352.8z"/>
	<path id="structure184_Unlabeled-2011-1601_Unlabeled" bar:growlevel="0" bar:type="" class="st31" d="M1321.2,1646.2
		c-10.5,2.3-26.6,3.2-39.6,2.1c-6.7-0.5-12.3-0.7-12.6-0.5c-0.2,0.3,0.8,4.1,2.3,8.5c3.8,11,5,22.1,4.3,36.1
		c-0.3,6.3-0.8,13-1.1,14.8c-0.9,5.8,1.4,4.1,8.6-5.9c12.2-16.6,24.5-31.5,35.7-43c6.1-6.2,11.1-11.8,11.1-12.3
		C1329.9,1644.5,1328.4,1644.6,1321.2,1646.2z"/>
	<path class="st32" d="M1220.7,1634.1c-14.3-5.9-30.5-17.6-47.8-34.5c-14.8-14.5-15.8-15.3-22.7-18.5c-4.7-2.2-6.4-2.4-16-2.6
		c-0.4,0-0.8,0-1.2,0v78.3c2.5,0.2,4.9,2.8,6.1,7.7c0.5,2.3,1.4,12.2,1.9,21.8l0.9,17.6l4.7,4.8c10.4,10.7,26.9,21.3,40.1,25.8
		c7.2,2.4,18.3,4.5,20.2,3.8c2.1-0.8,6.6-9.4,9.5-18.3c5.9-17.6,8.2-33.6,8.8-61.7l0.5-22.1L1220.7,1634.1z"/>
	<path id="structure19_label18_VRe" bar:growlevel="0" bar:type="" class="st33" d="M1226.4,1649.2c0,32.2-5.1,62.8-13.5,79.9
		c-2,4-3.6,7.8-3.6,8.4c0,1.8,17.1,0.5,25.2-1.8c11.7-3.3,27.6-11.6,34.5-17.9c7.8-7.2,9.4-40.4,2.8-60.2
		c-3.3-10-3.9-10.5-11.4-11.9c-3.5-0.6-12-2.7-18.6-4.6c-6.7-1.9-12.9-3.5-13.7-3.5C1226.6,1637.6,1226.4,1638.8,1226.4,1649.2z"/>
	<path id="structure1_label0_AHC" bar:growlevel="0" bar:type="" class="st34" d="M1267.4,1859.6c-13.3,1.2-31.6,6-43.1,11.4
		c-25.1,11.8-44.1,38.8-55.3,78.4c-4.9,17.5-8.3,36.4-8.3,46.9c0,23.4,11.5,56.7,23.9,69.1c9.9,9.8,45.1,16.8,84.5,16.9
		c40.2,0,62.7-7.7,68.7-23.8c4.1-11,12.2-58.4,16-94.2c2-19.1,1.4-45.8-1.4-59.8c-2.2-11.1-6.1-22.1-9.3-26l-2.1-2.5l-4.4,1.3
		c-8.4,2.4-14.8-0.9-22.9-11.7l-4.9-6.5l-19,0.2C1279.5,1859.3,1269.4,1859.5,1267.4,1859.6z"/>
	<path id="structure20_label19_AM" bar:growlevel="0" bar:type="" class="st35" d="M1305.4,1433.9c-4.9,7.8-11.4,18.6-14.7,24.1
		c-10.2,17.3-24.1,34.1-45.6,55c-18.4,17.9-31.2,26.5-52.4,35c-8.9,3.6-26.9,8.6-31.1,8.6c-1.4,0-2.6,0.4-2.6,1.1s3.2,3.8,7.2,6.9
		c47.7,37.6,108,55.6,180.4,53.8c17.6-0.4,20-0.6,22.1-2.2c1.9-1.4,3.8-6,10.1-24.2c12.2-35.4,23.6-64,32.3-81.4
		c2-4,3.6-7.7,3.6-8.4c0-0.7-2-1.7-4.7-2.3c-6.9-1.8-19.7-7.5-27.9-12.4c-22.9-13.8-48.2-39-61.7-61.5c-2-3.2-4-5.9-4.8-6.1
		C1314.7,1419.9,1310.7,1425.5,1305.4,1433.9z"/>
	<path id="structure21_label20_AMV" bar:growlevel="0" bar:type="" class="st36" d="M1148.1,1558.6c0.1,4.1,4.4,14.2,9.2,21.5
		c18.4,28.1,48.7,50.5,80.8,59.8c33.4,9.6,58.6,11.3,86.3,5.8c9.4-1.9,9.4-1.9,17.1-8.3c4.3-3.6,10.7-8.7,14.3-11.4
		c3.5-2.7,6.5-5.4,6.5-5.9c0-0.7-6.4-1.1-23.1-1c-24.8,0-37.4-1-57.4-4.3c-44.9-7.6-84.9-25.1-117.8-51.6c-7.2-5.9-8.4-6.5-11.9-6.5
		S1148.1,1556.9,1148.1,1558.6z"/>
	<path class="st37" d="M1199.4,1491.8l-4.8-9.6h-6.8c-13.8,0.1-22.6-7.3-22.6-18.8c0-4.1-1.4-3.8-6.2,1.5c-6.2,6.9-17.1,11.7-26,12
		v100.7c6.6,0.1,13.3,1.3,18.1,3.7c8,3.9,8.5,3.3,3.8-4.5c-4-6.5-6.8-13.9-6.8-17.7c0-2.4-0.5-3.2-3.3-4.7c-7.9-4.2-7.6-10.5,1.1-19
		c5.3-5.2,7.9-6.8,31.5-18.5c14.2-7,26-13.4,26.3-14.1C1204,1502.1,1202.1,1497.1,1199.4,1491.8z"/>
	<path id="structure23_label22_Rt" bar:growlevel="0" bar:type="" class="st38" d="M1488.8,1297.7c1.6,10.5-6.8,53.3-15.3,77.1
		c-0.7,2.1-1.4,4.3-1.4,4.9c0,0.5,2.5,1.9,5.7,3.1c10.5,3.8,20,12.5,25,23.1c4.2,8.8,5.7,17,5,30.1c-0.8,18.6-6.1,35.6-17.1,54
		c-8.4,14-18.2,25.5-40.4,47.3c-11.1,10.9-26,26.6-33.2,35.1c-16.7,19.5-20.3,22.8-46.6,42.7c-44.6,33.8-58.4,47.2-84.9,82.9
		c-15.4,20.7-39.4,59.1-39.4,63c0,0.9,1.8,2.2,4.9,3.5l4.8,2l4.8-1.9c7.6-3,21.5-6.2,34.9-8.2c14.4-2,16.2-2.5,52.8-14.9
		c38.1-12.9,47.4-16.3,63.1-23.2c43.3-19.3,77.3-44.6,110-82.2c9.4-10.7,12.9-15.8,35.5-51c17.5-27,37.3-63.9,47.9-89.1
		c13.3-31.3,19.5-60,18.1-82.7c-1.3-20.8-7.4-33.1-19-38.8c-4.6-2.3-5.3-2.3-24.5-2.6c-20.5-0.3-28.2-1.4-35.2-5
		c-6-3.1-10.1-9.4-10.1-15.7c0-2.4-0.9-3.9-5-7.8c-8.3-8.2-19.1-25.3-25.4-40.1c-1.8-4.3-2.3-4.7-8-6.9c-3.4-1.3-6.5-2.4-6.8-2.4
		C1488.5,1293.8,1488.5,1295.5,1488.8,1297.7z"/>
	<path id="structure24_label23_VA" bar:growlevel="0" bar:type="" class="st39" d="M1470.8,1383.1c-8.4,24.9-17.4,44.6-49.6,107.8
		c-13.9,27.1-20.6,42.1-30,66.7c-6.3,16.5-18.1,50.9-18.1,52.7c0,2.3,1.8,1.3,11.1-5.7c11.3-8.6,21.7-18.9,33.8-33.6
		c5.2-6.2,19.2-21,31.2-32.8c23.8-23.5,29.3-29.8,37.4-42.2c14.3-21.7,20.7-41.4,20.8-64c0.1-17.3-3.5-27.6-13-37.9
		C1486.6,1385.7,1472.2,1379,1470.8,1383.1z"/>
	<path id="structure25_label26_IAD" bar:growlevel="0" bar:type="" class="st40" d="M1313.7,1397.2c-5.3,1.7-12.1,5.9-17.6,11.1
		c-5.7,5.3-10.5,12.2-24.6,34.6c-13.5,21.5-33.3,40.1-59.2,56c-4.4,2.7-18.9,10.3-32.3,16.9c-26.5,13.1-34.1,17.9-38.2,24.4
		c-4.3,6.8-3.4,10.6,2.9,13.9c5.2,2.6,12.2,3.1,22.3,1.4c17.3-3.1,40.2-12.7,56.6-23.9c15.1-10.3,44.1-40.2,58.2-59.9
		c3-4.3,7.8-11.9,10.7-16.9c2.9-4.9,9.4-15.6,14.4-23.5c14.5-22.8,15.6-25.3,14.3-31.9c-0.5-2.3-1-2.8-3-2.7
		C1317.1,1396.5,1315,1396.9,1313.7,1397.2z"/>
	<path id="structure26_label27_PT" bar:growlevel="0" bar:type="" class="st41" d="M1199.1,1369.6c-12.5,12.6-22.3,32-28.3,56.2
		c-3.5,13.9-4.8,23-4.9,34.2c-0.1,8.3,0.1,9.4,2.3,13.1c3.7,6.4,8.5,8.4,20,8.3c7.3,0,10.4-0.5,16.7-2.5c15.2-5,26.3-12.2,40-26.1
		c8.8-8.9,16.2-18.4,22.1-28.4c1.6-2.7,4.9-8.1,7.3-12c2.3-3.9,4.3-7.7,4.3-8.6c0-1.9-6.5-8.2-12.9-12.6c-7-4.8-25.3-13.1-40.7-18.5
		c-7.9-2.8-15.2-5.8-16.3-6.8c-1-0.9-2.3-1.7-3-1.7S1202.1,1366.5,1199.1,1369.6z"/>
	<path class="st42" d="M1198.8,1362.6c-3.4,0.4-8,2-13.3,4.6c-8,4-10.6,5.8-24.4,17.8c-3.9,3.3-10.1,7.7-13.8,9.5
		c-6.2,3-7.4,3.3-14.3,3.3v78.5c7.6-0.1,15.2-2.6,21.9-7.7c7.8-5.9,9.2-8.7,11.7-24c5.7-33.9,17.5-60.8,33.7-76.5
		C1205.5,1363,1205.2,1361.8,1198.8,1362.6z"/>
	<path id="structure28_label30_BAOT" bar:growlevel="0" bar:type="" class="st43" d="M1661.4,2098.9c-10.4,2.9-21.1,10.7-22.5,16.5
		c-0.3,1.4-1,2.7-1.4,3.1c-0.5,0.3-1.1,3.9-1.3,7.8c-0.5,9,1.1,13.9,6.1,18.4c4.4,4,10.8,5.9,21.7,6.6c7.2,0.5,9.7,0.2,14.9-1.3
		c17.3-5.2,27.6-20.3,25.1-36.6c-0.9-6.2-6.2-11.3-13.9-13.4C1682,2097.6,1667.5,2097.1,1661.4,2098.9z"/>
	<path id="structure29_label31_ACo" bar:growlevel="0" bar:type="" class="st44" d="M1713.1,2099.5c-10.8,14.4-10.2,35.3,1.4,45.2
		c4.5,3.9,13.8,8.7,21.4,11.3c9.9,3.2,16.7,3.7,30,2.3c18.4-1.9,36.3-2.5,45-1.4c4.5,0.5,12.4,2.4,18.7,4.6c6,2,11.4,3.6,12.1,3.6
		c0.6,0,1.4-1.3,1.6-3c0.6-4.1,3.3-29.7,3.9-36.6l0.4-5.9l-4.8-3.7c-5.9-4.4-8.5-5.8-16-8.3c-7.9-2.6-18.7-4.3-34.7-5.5
		c-7.4-0.5-16.7-1.4-20.8-1.9c-4.1-0.4-17-1.2-28.8-1.7c-11.8-0.4-22.8-1.1-24.3-1.4C1715.8,2096.5,1715.1,2096.8,1713.1,2099.5z"/>
	<path class="st45" d="M1631.7,2117.2c-6.9-1.9-13.7-7.2-31.9-24.9c-20.1-19.5-20.9-20.8-20.8-31.7c0-12.8,5.4-25.3,20.7-48.5
		c7.5-11.4,7.4-12.8-0.5-8.7c-6.1,3-23,8.5-29.9,9.5c-16.1,2.5-31.5-1.3-35.8-9.1c-2-3.3-3.2-3.3-4.7,0.1c-1.6,3.9-7.5,8.6-13,10.5
		c-5.9,2-17.3,2-24.1-0.1c-9.9-2.9-15.4-10.4-15.3-20.8c0.1-9.8,5.8-17.3,16.3-21.2c6.2-2.3,14-2,22.1,1.1c5.5,2,12.6,7.7,13.6,10.8
		c0.7,2.1,3,2.3,3.7,0.4c1.3-3.2-12.7-32.2-26.7-55.5c-14.7-24.4-28.8-44.5-50.8-72.3c-16.5-20.9-33.8-50.8-44.5-76.9
		c-5.1-12.4-12.5-34.7-14.9-45.1c-0.9-3.7-1.9-7.1-2.3-7.5c-0.4-0.4-5.5,0.9-11.3,3c-21.1,7.5-68.9,23.4-70.1,23.4
		c-0.7,0-1.4,0.5-1.4,1.3c0,0.8,1.7,1.4,5.5,1.8c13.5,1.5,26.9,6.3,35.7,12.5c7.8,5.7,11.6,15,7.3,18.1c-2.5,1.7-5.3,1.2-16.6-3.3
		c-11.8-4.7-19.1-5.3-28.4-2.4c-8.5,2.5-18.3,7.5-28.3,14.3c-4.4,3.1-9.4,5.8-11.1,6c-7.7,1.4-14.2-3.9-20.1-16.4
		c-4-8.3-4.4-12.5-1.7-15.9c1-1.3,1.8-2.7,1.8-3.1c0-0.5-2.1-1.6-4.6-2.4c-6.3-2.2-17.8-1.4-31.4,1.9c-8.8,2.2-12.2,2.5-23.4,2.6
		c-15.4,0-24.9-1.8-43.6-8.3c-8.3-2.9-13.3-4.3-18.3-4.3v13.1h2.5v6.7v6.6l7.9,0.6c35,2.7,66.1,15.9,74.3,31.6
		c2.6,5,3.2,17.5,1.2,23.9c-4,12.1-15.3,26.7-39.3,50.7l-17.9,17.7v4.8c0,5.9-2.8,17.7-6.2,26.1c-2.6,6.5-2.6,6.7-3.6,35.7
		c-2.5,72.1-5.8,121.8-8.7,133.7c-0.4,1.6,0,2.1,2.7,2.5c6.4,1.2,17.6,7.7,24.4,14.1l6.6,6.2l12,2.8c28.8,6.6,62.4,9.7,89,8.3
		c24.9-1.4,38.7,0.3,44.1,5.3c2.3,2.1,4.5,6.9,4.5,9.7c0,2.8,2.2,2.2,9.7-2.9c16.8-11.3,32.4-24.3,56.1-46.9
		c27.9-26.6,41.1-37.4,56.3-46.2c11.3-6.4,15.9-7.6,29.8-7.6c11.2,0,12-0.1,12-1.7c0-2.3,4.7-6.1,9.3-7.4c6.7-1.9,26.1,1.4,40.4,6.9
		c7.3,2.8,16.7,9.3,22.6,15.5c3.6,3.9,4.2,5.1,4.2,8.2c0,3.2-0.8,4.5-6,10.6c-9.4,11-12.8,20.2-9.6,26c2.3,4.1,4,4,4-0.4
		c0-5.7,2.5-12.4,5.9-16c2.6-2.8,3.5-3.1,5.6-2.6c3.5,0.8,4.5,1.9,9.1,9c11.6,18.1,35.7,46.4,39.6,46.4c0.4,0,1.2-1.9,1.5-4.3
		c1.1-7.7,6.5-10.3,14.6-6.9c1.7,0.7,3.4,1.4,3.8,1.4c0.3,0,0.5-4.2,0.6-9.4l0.1-9.4L1631.7,2117.2z M1358.6,1844.2
		c-0.3,7.1-0.7,9-3.6,14.9c-3.1,6.7-7.1,11.6-11.5,14.7c-2.2,1.5-2.2,1.5-0.6,4c5,7.7,9.1,19.8,11.6,35.3
		c1.6,10.2,1.4,40.3-0.5,55.8c-4.6,37.3-10.9,74.3-15,87.7c-3.5,11.2-12.7,18-30.7,22.5c-31,7.9-90.7,3.6-115.9-8.3
		c-7.6-3.6-12.1-8.8-18.1-21.2c-12.5-25.6-16.5-47.2-12.7-68.5c6.2-34.6,15.1-59.3,28.6-79.4c13.7-20.3,30.2-32,54.6-38.1
		c15.7-4,24.4-4.9,44.9-4.9c21.5,0,19.8,1,15.5-9.4c-2.7-6.5-4.9-17-5-24c0-11,4.4-23.1,10-27.3c6.8-5,17.1-6,24.8-2.4
		c8,3.8,13.9,12.4,20.3,30.5C1358.7,1835.4,1358.9,1836.5,1358.6,1844.2z"/>
	<path id="structure30_label32_BMA" bar:growlevel="0" bar:type="" class="st46" d="M1745.7,2008c-7.6,1.5-10.9,3.3-15.8,8.7
		c-7,7.6-15.1,20.3-18.4,29c-5.8,15-6.9,34.4-2.5,43.4c3.6,7.2,4.3,7.4,32.9,8.9c26.9,1.3,63.1,4.2,71.6,5.8
		c11.8,2.1,21,5.7,28.8,11.3c2.4,1.7,4.9,2.9,5.5,2.7c0.5-0.3,1.8-5,2.7-10.6c0.9-5.7,3.2-16.6,5.2-24.2c6.3-23.9,7.9-31.8,7.9-38.3
		c0-8.1-2.2-12.1-9.4-17.3c-10.5-7.5-17.1-9.6-39.1-12.9c-6.7-1-18.6-2.8-26.6-4.1C1774.8,2008.4,1751.1,2007.1,1745.7,2008z"/>
	<path id="structure31_label33_CxA-3" bar:growlevel="0" bar:type="" class="st47" d="M1880.7,2052.1c-8.3,3.1-16,10.1-20.3,18.4
		c-2.9,5.7-6.1,17.6-9,33.2c-3.1,16.6-3.1,17.2,1.4,21.2c6.1,5.5,15.1,9.2,27.4,11.3c41.3,6.8,77.9,7.6,95.7,2.2
		c4.3-1.4,4.7-1.7,4.7-4.4c0-4.4-3.4-22.6-5.9-31.4c-4.3-15-10-24-21.3-33.8c-8.7-7.5-18.7-12.7-29.4-15.4
		C1913.3,2050.7,1886.8,2050,1880.7,2052.1z"/>
	<path id="structure32_label34_CxA-2" bar:growlevel="0" bar:type="" class="st48" d="M1848,2126c-0.8,3.7-3.1,23.9-3.8,32.8
		l-0.6,7.8l5.3,2c20,7.6,26,8.5,56.6,8.5c30.4,0,48-2.3,68.2-9.1l9.6-3.2v-3.8c0-4.1-1.9-23.3-2.3-23.8c-0.1-0.1-2.8,0.5-5.9,1.5
		c-13.5,4.4-36.8,4.9-67.8,1.4c-11.3-1.3-24.8-3.1-29.7-4c-9.6-2-20.3-6.6-23.9-10.4C1851,2122.9,1848.6,2123,1848,2126z"/>
	<path id="structure33_label35_CxA-1" bar:growlevel="0" bar:type="" class="st49" d="M1972.6,2168.6c-17.4,6-39.2,9-66.8,9
		c-25.8,0-34.8-1.1-47.6-5.5c-14.6-5.1-14.2-5-14.9-2.2c-0.9,3.5,0.1,45.4,1.1,46.4c1.6,1.5,51.4,3,86.3,2.3
		c33.3-0.5,40.6-1.1,51.6-4l3.8-1.1l-0.5-6.9c-0.3-3.8-0.7-14.5-1-23.9C1984,2163.1,1985.1,2164.4,1972.6,2168.6z"/>
	<path id="structure34_label36_VEn" bar:growlevel="0" bar:type="" class="st50" d="M1948,1958.8c-2.5,4.2-13,13.4-18.5,16.2
		c-6.8,3.4-12.9,5.1-24.1,6.8c-26.5,4-51.3,22.5-53.1,40c-0.5,4.1-0.4,4.3,3.1,6.7c2,1.4,4.6,3.9,5.7,5.6c1.2,1.7,3.1,3.3,4.3,3.7
		c1.3,0.3,8.5,0.7,16.2,1c26.4,1,47.6-4.6,65.3-17.2c6.2-4.4,15.9-14.3,20.1-20.3c4-6,9.3-16.7,9.8-20.3c0.4-2.6,0.3-3.1-1.3-3.1
		c-1,0-4.2-1.3-7.3-2.8c-6-3-11.2-8.2-14.7-14.8c-1.2-2.3-2.6-4-3.1-4C1950,1956.2,1948.9,1957.4,1948,1958.8z"/>
	<path id="structure35_label37_I" bar:growlevel="0" bar:type="" class="st51" d="M1844,1959.4c-9.5,2.5-19.8,12.2-22.3,20.9
		c-2.2,7.4-1.3,12.4,2.7,16.1c3.1,2.8,3.6,3,9.8,3c14.9,0,26.6-6.8,29.4-16.9c1.3-5,0.5-8-3.5-12.3c-1.9-2-4.1-5.6-5.1-7.9
		C1853,1957.5,1852.2,1957.2,1844,1959.4z"/>
	<path id="structure36_label38_AA" bar:growlevel="0" bar:type="" class="st52" d="M1823.5,1954.2c-11.7,12.6-22.5,17.1-38.6,16
		c-9.3-0.6-31.8-5.5-45-9.8c-8.5-2.7-9.7-2.9-21.2-2.8c-17.7,0.2-41.6,4.9-62.2,12.3c-11.5,4.2-16.5,6.8-26.5,13.9
		c-8.6,6.1-10.2,8.5-5.8,9c4.2,0.4,11.9,5.8,16.4,11.4c6.2,7.7,18.8,26.7,23.5,35.6c5.1,9.5,7.2,18.1,6.4,26
		c-0.7,7.2-4.1,17.6-8.2,24.9c-1.7,3.1-3.1,5.8-3.1,6.3c0,0.4,6.2,0.7,13.7,0.7c12.2,0,14.3,0.3,18.9,2.1
		c4.8,1.9,11.5,7.8,11.5,10.1c0,0.5,0.8,0.9,1.7,0.9c1.2,0,2.1-1,2.8-3.1c0.5-1.7,2.2-4.8,3.7-6.8c3.2-4.4,3.2-4.7,0.7-6.9
		c-6.9-6.2-8.7-24.8-4-40.4c1.5-5,1.7-7.6,0.6-7.6c-0.4,0-2.4,1.5-4.4,3.5c-6.5,6.1-11.3,6.4-14.7,0.8c-4.8-7.8,0.2-16.4,14.5-24.9
		c9.9-5.9,14.2-5.9,14.3-0.4c0,3.3,2.3,2.3,6.1-2.7c8.6-11.1,12.2-13.4,23.9-15c10.2-1.4,20.1-0.4,64.9,6.8
		c20.7,3.2,25.7,4.4,31.8,7.6c2.1,1.1,4.1,1.9,4.5,1.9c0.5,0,1.5-2.2,2.4-4.8c3.5-10.8,13.8-21.7,26.9-28.5c4.2-2.3,7.7-4.5,7.7-5.1
		c0-0.6-1.7-1.5-3.8-2.1c-4.9-1.3-15-5.4-15.7-6.4c-1.2-2-3.1-0.7-3.1,2.2c0,7.2-6.9,14.9-16.7,18.5c-11.4,4.3-22,3.1-25.7-3
		c-2.4-4.1-2.3-11.4,0.4-17.2c2.1-4.4,10.5-13.4,14.8-15.7c2.5-1.4,2.5-2.3-0.3-5.7c-1.2-1.4-2.7-4.2-3.2-6.1
		c-0.6-2-1.5-3.6-2.1-3.6C1831.2,1946.3,1827.5,1949.9,1823.5,1954.2z"/>
	<path id="structure37_label39_CeM" bar:growlevel="0" bar:type="" class="st53" d="M1737.4,1823.9c-19.3,3.4-34.7,12.6-45.5,27
		c-10.6,14-14,24.3-13.9,42.3c0,20.6,4.4,34,14.5,44.1c9.1,9.1,34.7,20.3,60.7,26.6c5.8,1.3,10.7,2.3,11,2.1
		c0.3-0.2-0.3-4.4-1.1-9.4c-1.1-6.8-1.4-15.2-1.5-33.3c0-21.5,0.3-25.5,2.1-34.8c3.8-20,10.9-38.1,20.3-51.9c2.8-4.1,5-8,4.8-8.5
		c-0.3-0.6-3.6-1.9-7.6-2.8C1773.2,1823.5,1744.9,1822.6,1737.4,1823.9z"/>
	<path id="structure38_label40_CeC" bar:growlevel="0" bar:type="" class="st54" d="M1785.3,1834.9c-17.8,25.4-26.4,62.2-23.5,101.8
		c0.5,8,1.5,18.1,2.1,22.4l1,7.8l8.5,1.5c5.9,1.1,11.3,1.4,18.1,1.1c16.7-0.8,22.2-4,38.3-22.5c12.2-14,12.4-14.3,16.2-25
		c2.1-6,2.7-9.3,2.8-15.3c0.1-6.8-0.3-8.3-2.7-13.5c-6.3-13.3-29.7-44.9-40.6-54.9c-5.6-5.1-12.5-9.9-14.4-9.9
		C1790.4,1828.4,1787.8,1831.4,1785.3,1834.9z"/>
	<path id="structure39_label41_EAC" bar:growlevel="0" bar:type="" class="st55" d="M1575.6,1838.4c-7.2,2.6-17.2,4.4-24.7,4.4
		c-5.6,0-9.2-0.6-18.3-3.2c-1.6-0.5-2.1-0.2-2.1,1c0,1.6,11.9,17.5,26.9,36c10.4,12.7,36.4,39.9,40.1,41.8c2.2,1.2,3.2,0.9,12.1-2.2
		c16.2-5.7,36.4-7.6,46.9-4.5c7.1,2.1,12.6,8,14.8,15.9c3.2,12.1,0.1,20.1-13.2,33.3c-11.7,11.7-11.7,12.2,0.5,7.9
		c17.5-6.2,45.1-11.8,58-11.8c8.5,0,8.3-1.4-0.6-5.2c-21.4-9-30.9-18.5-36.4-37c-2.5-8.5-3.2-27.8-1.3-37c2-9.2,8.3-21.5,15.4-29.9
		c8.5-10.1,8.5-10.1-6.3-5.8c-38.8,11.5-71.5,10.8-96.8-2.3C1583.2,1836.1,1582.5,1836,1575.6,1838.4z"/>
	<path id="structure3_label2_VLH" bar:growlevel="0" bar:type="" class="st56" d="M1495.9,1971.4c-8.8,2.2-16.6,8.7-18.4,15.6
		c-1.4,5-0.5,14.3,1.5,17.9c4.4,7.5,14,11.2,27.4,10.5c12.6-0.6,20.3-5.3,23.3-14.1c4-11.8-2.8-23.9-15.4-27.8
		C1507.3,1971.3,1499.7,1970.5,1495.9,1971.4z"/>
	<path id="structure40_label42_MCPO" bar:growlevel="0" bar:type="" class="st57" d="M1630.1,1911.7c-5,0.7-12.4,2.3-16.7,3.6
		c-13.6,4.2-47.7,21.6-47.7,24.4c0,0.6,1.1,1.9,2.5,2.7c13.1,8.1,22.8,17.7,27.4,27.2c3.9,8.2,4.5,17.9,1.7,25.8
		c-3.2,9-3.2,8.5-1,8.5c7.7,0,56.1-34.8,67.1-48.4c6.5-8,8.5-12.6,8.5-19.9c0-12.1-5.4-20.7-14.6-23.5
		C1651.6,1910.4,1640.3,1910.2,1630.1,1911.7z"/>
	<path id="structure41_label43_BLA" bar:growlevel="0" bar:type="" class="st58" d="M1932.3,1858.9c-9.5,4.6-22.7,12.7-30,18.4
		c-3.2,2.5-15.1,14-26.4,25.4c-24.2,24.5-23.6,23.3-23.6,42.3c0,11.4,0.1,11.9,2.9,17.6c4.9,10,14.2,16.8,27.4,20.1
		c7.6,1.9,8.9,1.8,17-0.4c9.6-2.7,22.2-9.1,27.9-14.1c8.3-7.4,11-16.5,12.6-42.1c1.4-23.9,2.7-33.4,6.8-50.7
		c1.2-5.1,2.2-11.1,2.2-13.1C1949.1,1854.5,1943.7,1853.4,1932.3,1858.9z"/>
	<path id="structure42_label44_ASt" bar:growlevel="0" bar:type="" class="st59" d="M1662.9,1064.8c0,0.7,1.9,2.7,4.3,4.5
		c10.9,8.4,14.2,13,13.2,18.3c-0.3,1.7-3.5,8.8-7.2,15.8c-15.5,29.8-20.7,50.7-18.5,74.2c2.2,23,5.4,33.6,13.2,43.9
		c3.1,4.1,6.2,8.6,7,10.1c2,3.9,1.9,8-0.4,9.4c-2.3,1.5-2.3,2.2,0.7,5.7c1.4,1.5,3.3,4.8,4.3,7.1c1,2.4,2.3,4.1,3,4
		c0.6-0.2,2.2-2.9,3.2-6c6.5-17.8,25.7-31.2,42.4-29.5c9.3,1,18.9,7.4,23,15.3c2.8,5.5,2.5,10.9-2.3,40c-4.8,28.5-4.8,28.5,0.4,42.8
		c3.7,10.1,16.2,35.5,31.7,64.1c23.7,43.7,29.7,57.3,39.4,88.2c10.7,34.2,17.9,72.3,20.8,109.3c1.3,17.1,0.5,49.1-1.4,61.7
		c-8.7,55.2-45.8,122.6-91.8,166.8c-6.2,5.9-11.3,11.3-11.3,11.8c0,0.6,3.8,0.8,12.4,0.5c19.1-0.9,37.8,2.4,47.3,8.4
		c5,3.1,18.5,16.9,26.1,26.6c9.5,12.3,22.8,32.7,24.9,38.3c1.5,4.3,1.8,6.3,1.3,12.3c-0.3,4-0.7,8.5-1.1,10.1
		c-0.7,3.8,1.4,4.1,3.8,0.5c0.8-1.3,4.9-6.8,8.8-12.2c6.8-9.2,8-10.3,20.5-19.2c24.9-17.8,32.5-24.8,57-53.6
		c39-45.4,53.8-68.8,70.1-110.1c14.8-37.5,22.2-70.7,26.2-117.4c4.8-56.4,2.1-82.9-15.8-156.7c-18.6-76.7-41-130.9-75.4-183.6
		c-27.7-42.4-71.2-87.8-118-123.5c-45.3-34.4-94.7-59.9-145.8-75.3C1666,1063.1,1662.9,1062.7,1662.9,1064.8z"/>
	<path id="structure43_label45_EAM" bar:growlevel="0" bar:type="" class="st60" d="M1508.1,1650.4c-6.7,7-15.6,15.8-19.8,19.4
		c-23.1,20.3-53.3,38.9-83.7,51.5c-5.2,2.2-9.8,4.2-10.3,4.6c-2,1.7,8.6,36.9,17.6,58c10.4,24.5,24.4,48.6,39.6,68.6
		c4.6,6,12.7,16.6,17.9,23.4c12.2,16,24.6,34,35.1,51.6c8.5,14.1,21.7,39.2,24.8,47c1.8,4.6,3.8,5.6,4.7,2.3
		c0.3-1.1,2.3-5.5,4.4-9.8c7.6-15.4,19.3-25.1,47.4-39.9c6.2-3.3,11.3-6.4,11.3-6.9c0-0.5-5.2-6-11.5-12.3
		c-16.3-16.1-31.1-33.7-53.1-62.9c-4.6-6-8.7-11-9.1-11c-0.5,0-3.7-2.9-7.2-6.3c-26.9-26.6-38.2-69.3-28.4-107.5
		c3.8-15.2,14.2-40.1,27.5-66.2C1526,1633,1525.2,1632.7,1508.1,1650.4z"/>
	<path id="structure44_label46_GP" bar:growlevel="0" bar:type="" class="st61" d="M1742.8,1313.8c-0.4,2.2-2,13-3.7,24.1
		c-5.8,37.1-6.1,40.4-14.5,137.7c-7.3,85.4-10.8,123.3-13.1,141.3c-8.7,68.8-27.7,124-55.5,161.1c-14.9,19.9-41.8,42.5-63.4,53.5
		c-3.9,2-7,4-7,4.7c0,1.2,10.7,6.7,17.5,8.9c13.2,4.3,32.8,6,49.1,4.1c21.2-2.4,48.8-10.1,59.4-16.4c3.2-1.9,8.9-4.5,12.5-5.8
		c3.7-1.3,8.8-3.9,11.4-5.9c7.2-5.4,20.3-18.3,29.1-28.3c38.3-44.4,66.3-99.4,74.4-146.3c2-11.4,2.8-55,1.4-71.4
		c-5.3-58.9-22-120.1-44.4-162.6c-3-5.7-11.3-21.3-18.5-34.7c-15.8-29.3-25.1-48.4-29-59.7c-1.6-4.5-3.4-8.3-4.1-8.3
		C1743.8,1310,1743,1311.7,1742.8,1313.8z"/>
	<path id="structure45_label47_DEn" bar:growlevel="0" bar:type="" class="st62" d="M1997.7,1801.4c-2.3,0.5-6.7,2.2-9.9,3.8
		c-6.9,3.5-9.2,6.6-18.8,25c-10.4,20-12.3,27.3-15.9,58c-3.6,30.9-4.7,51.3-3.2,60.2c2,11.4,9.2,22,18.3,26.7
		c3.1,1.6,5.8,2.2,13,2.4c7.9,0.4,10.3,0.1,17.5-2c25.9-7.5,37.6-21.4,46.7-55.9c5.5-20.8,7.7-41.7,6.9-65.6
		c-0.6-18-2.1-26.8-5.9-35.2c-3.5-7.6-7.4-11.6-14.3-15c-5.8-2.9-6.4-3-18.1-3.2C2007.3,1800.7,2000,1801,1997.7,1801.4z"/>
	<path id="structure46_label48_Pir-1" bar:growlevel="0" bar:type="" class="st63" d="M2218,1894.5c-1.3,8.7-14,32.9-26.7,50.7
		c-2.8,3.9-25.1,32-49.6,62.5c-24.4,30.5-51.2,63.9-59.4,74.2c-22.9,28.8-35.2,41.9-52.1,55c-9.2,7.1-23.9,16.4-35.5,22.3l-10.5,5.4
		l0.5,5.4c0.3,3,0.8,13.8,1.1,24c0.4,13.4,0.9,18.7,1.7,18.7c3.1,0,21.1-8.6,33.3-15.8c29.8-17.6,71.5-51,110.2-88.3
		c42-40.5,77.2-87,109.8-145.5c8.2-14.8,28.5-55.6,29.3-59.2l0.5-2.3l-12.4-2.4c-6.8-1.3-18-3.9-24.8-5.6
		c-6.8-1.7-12.9-3.1-13.6-3.1C2219,1890.5,2218.3,1891.9,2218,1894.5z"/>
	<path id="structure47_label49_Pir-2" bar:growlevel="0" bar:type="" class="st64" d="M2195.8,1885.7c-2.7,2.3-18.9,23.6-50.1,66
		c-64.9,88.1-72.7,97.6-121.9,146.7c-25.8,25.7-32.2,31.7-38.1,35.4c-4.2,2.6-4.3,2.7-3.8,6.4c0.3,2,0.9,7.9,1.4,13.1
		c0.5,5.2,1.2,9.6,1.3,9.9c0.3,0.3,4-1.3,8.4-3.4c27.7-13.7,50.3-31.6,72.3-57.2c4.2-4.9,14-16.9,21.5-26.6c7.6-9.6,33.6-42,57.6-72
		c46.3-57.7,56.3-71.5,66.4-91.7c5.4-10.9,6-12.7,6-17.6v-5.4l-8.1-2.4C2199.1,1883.8,2198.3,1883.8,2195.8,1885.7z"/>
	<path id="structure48_label50_Pir-3" bar:growlevel="0" bar:type="" class="st65" d="M2048.1,1816.1c0,2.7,0.8,8,1.8,11.8
		c5.8,22.7,3.8,63.9-4.6,93.7c-5.7,20.3-12.3,32.8-21.8,41.5c-9.2,8.3-24.3,14.4-38.1,15.4l-7.3,0.5l-1.5,4.2
		c-0.8,2.3-3.2,7.3-5.4,11.1c-13.8,24.1-35.6,38.6-66.2,43.9c-7.7,1.3-25.4,1.6-34.8,0.5l-6.5-0.7l0.5,4.3c0.3,2.6-0.1,7.3-1,11.4
		c-2.5,12.2-1.9,12.9,5.5,5.9c2.6-2.4,7.1-5.6,9.9-6.9c5-2.3,5.8-2.4,19.6-2.3c11.3,0,16.2,0.4,22.9,2c20.8,4.8,40.5,19.6,48.5,36.4
		c4.9,10.3,6,14.7,11.4,43.6c1.2,6.1,8.1,0.4,45.4-37.3c50.9-51.3,54.3-55.4,113.7-136.2c31-42,45.9-61.9,52.4-69.9
		c1.7-2.1,3.1-4.3,3.1-5c0-0.7-3.7-2.4-8.8-4.1c-39.4-13.3-90.5-38.3-124.4-60.6c-6.7-4.4-12.6-8-13.2-8
		C2048.5,1811.3,2048.1,1812.8,2048.1,1816.1z"/>
	<path id="structure49_label51_AIP" bar:growlevel="0" bar:type="" class="st66" d="M2053.2,1712.5c-1.2,10.3-4.3,61.8-4.8,78.3
		l-0.5,18.6l14.3,9.4c48.6,32,108.1,58.2,165.4,73c15.3,4,37.6,8.6,41.3,8.6h2.9l4.3-12c7.4-20.8,11.1-35.8,13.3-55.5
		c1.5-13.2,0.6-35.1-1.9-45c-2-7.9-2.5-15.5-1.4-20.4c0.8-3.4,1.9-3-16.6-6.1c-84.8-14.3-167.5-34.1-205.6-49.1
		c-4.9-1.9-9.2-3.5-9.5-3.5C2054,1708.7,2053.5,1710.4,2053.2,1712.5z"/>
	<path id="structure4_label3_HDB" bar:growlevel="0" bar:type="" class="st67" d="M1556.9,1944.4c-10.1,8-18.5,19.9-22.4,32
		c-1.9,5.8-2.3,9-2.4,16.4c-0.1,11,0.9,12.9,8.9,16.9c5.3,2.6,5.7,2.7,18.9,2.6c12.6,0,14.1-0.3,22.5-3c10.1-3.2,11-4,14.1-12.2
		c1.6-4.1,2.1-7.2,2.1-13.1c0-7.1-0.3-8.2-3.5-14.8c-2.7-5.4-5.3-8.8-10.8-14.3c-7.4-7.3-17.4-13.9-20.9-13.9
		C1562.3,1940.9,1559.4,1942.5,1556.9,1944.4z"/>
	<path id="structure50_label52_VCl" bar:growlevel="0" bar:type="" class="st68" d="M2018.7,1737.4c-4.5,2.1-5.9,4.1-7.9,11.3
		c-1.6,5.5-3.9,10.5-17.2,38c-4.1,8.5-7.6,15.9-7.6,16.5c0,1.3,1.4,1.2,7.9-0.9c11.3-3.5,28.6-3.2,37.5,0.8c4.4,2,11.8,8.4,12.6,11
		c0.4,0.9,1.1,1.7,1.7,1.7c0.9,0,1.3-4.4,1.7-18.3c0.4-10,1.1-25.9,1.7-35.4c1.2-20,1.2-20.3-6.2-23.8
		C2037,1735.3,2024.2,1734.9,2018.7,1737.4z"/>
	<path id="structure51_label54_DI" bar:growlevel="0" bar:type="" class="st69" d="M2053.9,1676.8l-0.1,31l7.6,3.2
		c28.6,12.1,95.7,29.2,165.4,42.4c22.3,4.2,57.2,10.3,58.9,10.3c0.8,0,2.5-2.2,4-5.2c1.4-2.8,5.2-10,8.6-15.9
		c8.6-15.2,24.3-46.9,24.3-49c0-1.2-0.8-1.9-2.4-2.3c-7.3-1.5-262.7-45.5-264.3-45.5C2054,1645.7,2054,1645.9,2053.9,1676.8z"/>
	<path id="structure52_label55_GI" bar:growlevel="0" bar:type="" class="st70" d="M2051,1591.4c-0.8,11.3-0.7,16.1,0.3,23.5
		c0.6,5.1,1.5,13.9,1.9,19.5l0.6,10.2l2.8,0.5c61.4,10.9,264.3,45.5,266,45.4c2-0.3,2.8-1.6,7.1-12c8.7-21.2,22.7-64.4,22.7-70.3
		c0-1.5-0.5-2.2-1.7-2.2c-1,0-67.4-6.5-147.6-14.4c-80.2-7.9-147-14.4-148.4-14.4h-2.6L2051,1591.4z"/>
	<path id="structure53_label56_S2" bar:growlevel="0" bar:type="" class="st71" d="M2206.1,1371.7c-91.1,14-167.3,25.7-169.4,26.1
		c-4.8,0.7-4.8,0.5-0.8,16.5c10.3,41,15.8,89.8,15.9,139c0.1,12.8,0.4,23.2,0.7,23.2c0.3,0,67.9,6.7,150.4,14.9
		c82.3,8.1,149.9,14.7,150.1,14.5c1.3-1.4,9-38.7,12.3-60.4c8.4-53.8,11.9-112.1,11.3-187.5l-0.1-11.9l-2.4,0.1
		C2372.8,1346.2,2297.2,1357.6,2206.1,1371.7z"/>
	<path id="structure54_label57_CPu" bar:growlevel="0" bar:type="" class="st72" d="M1662.9,1064.8c0,0.7,1.9,2.7,4.3,4.5
		c10.9,8.4,14.2,13,13.2,18.3c-0.3,1.7-3.5,8.8-7.2,15.8c-15.5,29.8-20.7,50.7-18.5,74.2c2.2,23,5.4,33.6,13.2,43.9
		c3.1,4.1,6.2,8.6,7,10.1c2,3.9,1.9,8-0.4,9.4c-2.3,1.5-2.3,2.2,0.7,5.7c1.4,1.5,3.3,4.8,4.3,7.1c1,2.4,2.3,4.1,3,4
		c0.6-0.2,2.2-2.9,3.2-6c6.5-17.8,25.7-31.2,42.4-29.5c9.3,1,18.9,7.4,23,15.3c2.8,5.5,2.5,10.9-2.3,40c-4.8,28.5-4.8,28.5,0.4,42.8
		c3.7,10.1,16.2,35.5,31.7,64.1c23.7,43.7,29.7,57.3,39.4,88.2c10.7,34.2,17.9,72.3,20.8,109.3c1.3,17.1,0.5,49.1-1.4,61.7
		c-8.7,55.2-45.8,122.6-91.8,166.8c-6.2,5.9-11.3,11.3-11.3,11.8c0,0.6,3.8,0.8,12.4,0.5c19.1-0.9,37.8,2.4,47.3,8.4
		c5,3.1,18.5,16.9,26.1,26.6c9.5,12.3,22.8,32.7,24.9,38.3c1.5,4.3,1.8,6.3,1.3,12.3c-0.3,4-0.7,8.5-1.1,10.1
		c-0.7,3.8,1.4,4.1,3.8,0.5c0.8-1.3,4.9-6.8,8.8-12.2c6.8-9.2,8-10.3,20.5-19.2c24.9-17.8,32.5-24.8,57-53.6
		c39-45.4,53.8-68.8,70.1-110.1c14.8-37.5,22.2-70.7,26.2-117.4c4.8-56.4,2.1-82.9-15.8-156.7c-18.6-76.7-41-130.9-75.4-183.6
		c-27.7-42.4-71.2-87.8-118-123.5c-45.3-34.4-94.7-59.9-145.8-75.3C1666,1063.1,1662.9,1062.7,1662.9,1064.8z"/>
	<path id="structure55_label58_S1ULp" bar:growlevel="0" bar:type="" class="st73" d="M2165.6,1235.2
		c-95,31.5-173.4,57.5-174.2,57.8c-1.1,0.4,0.1,3.5,5.7,15.2c13.4,28,23.5,53.2,30.6,76.5c3.8,12.4,3.8,12.6,6.4,12.6
		c2.3,0,333.6-50.5,339.9-51.8c2.3-0.4,2.4-0.6,2-6c-3.2-43.2-12.1-88.3-25.9-133c-5.3-17.3-9.6-28.7-10.7-28.6
		C2338.8,1177.9,2260.6,1203.7,2165.6,1235.2z"/>
	<path id="structure56_label59_S1BF" bar:growlevel="0" bar:type="" class="st74" d="M1948.6,700.4
		c-18.4,28-192.1,301.5-192.1,302.6c0,0.8,6.4,6.8,14.2,13.2c60.2,50.1,116.6,111.1,153.4,165.5c16.1,23.8,41.2,65.8,56.5,94.2
		c6.8,12.7,8.9,16,10.4,16c1.6,0,347.7-114,348.6-114.8c0.5-0.5-0.7-4-8.5-23.8c-34.8-88-89.8-179.2-156.6-259.7
		c-20.3-24.5-35.3-40.8-62.5-68c-38.5-38.5-62.2-59-105.8-90.9c-29.1-21.3-52.3-36.8-55.2-36.8
		C1950.7,698,1949.5,699.1,1948.6,700.4z"/>
	<path id="structure57_label60_S1Sh" bar:growlevel="0" bar:type="" class="st75" d="M1758.3,617.3c0,0.2-25.6,74-56.7,164
		c-31.2,90.1-56.6,164.1-56.4,164.5c0.1,0.5,7.7,3.5,16.8,6.8c21.2,7.7,30.2,11.5,43.5,18.2c5.8,2.9,11.3,5.3,12.2,5.3
		c1.1-0.1,26.6-43.4,89.2-151.9c48.2-83.5,87.8-152.6,88.1-153.7c0.3-1.6-1.8-2.8-18.9-10c-33-14.1-63.8-25.9-99.2-38
		C1762.4,617.5,1758.3,616.4,1758.3,617.3z"/>
	<path id="structure58_label61_S1HL" bar:growlevel="0" bar:type="" class="st76" d="M1482.9,577.5c-0.3,0.9-15,330.7-14.8,330.9
		c0.2,0.2,9.1,1.4,19.8,2.9c46.1,6.1,88,14.9,130.1,27.2c22,6.4,25.9,7.5,26.4,7c0.8-1,113.1-326.4,113.1-327.8
		c0-1.7-11.3-5.6-32.7-11.1c-46.9-12.2-128.7-23.6-195.9-27.4C1507.2,578,1482.9,577.1,1482.9,577.5z"/>
	<path id="structure59_label62_M1" bar:growlevel="0" bar:type="" class="st77" d="M1426.7,578.4c-17.9,0.5-54.6,2.5-55,3
		c-0.5,0.5,18.3,319.1,18.8,319.7c0.4,0.4,10.1,1.4,21.6,2.3c11.4,0.9,28.5,2.4,37.9,3.4c9.4,1.1,17,1.8,17.2,1.6
		c0.1-0.2,3.3-71.2,7.1-157.8c3.8-86.7,7.1-161,7.5-165.4l0.5-7.8l-17,0.2C1455.9,577.6,1438.6,578,1426.7,578.4z"/>
	<path id="structure5_label4_MeAD" bar:growlevel="0" bar:type="" class="st78" d="M1615.7,1994.4c-4.1,1.8-10.3,9.2-19,22.8
		c-13.5,21.2-18,33.2-17.3,45.7c0.3,4,1.2,7.6,2.3,10c1.2,2.3,9.1,10.5,20.4,21.4c14.8,14.2,19.7,18.3,24.1,20.4
		c8.2,3.9,10.3,3.6,13.9-1.9c3-4.6,8.4-9.2,13.3-11.3c3.2-1.3,7-6.8,11.5-16.6c3.7-8.2,5-14.2,5-22.9c0-11.9-2.8-18.3-18.6-42.1
		c-10.3-15.8-16.3-22.4-22-25C1625,1992.8,1619.6,1992.7,1615.7,1994.4z"/>
	<path id="structure60_label63_M2" bar:growlevel="0" bar:type="" class="st79" d="M1345.7,583.8c-36.9,4.2-74.7,11.5-96.2,18.5
		c-4,1.3-4.3,1.5-3.9,3.8c0.3,1.3,20.6,68,45.1,148.4c24.6,80.3,44.6,146.2,44.6,146.3c0,0.1,12.2,0.2,27,0.3c14.9,0,27-0.1,27-0.3
		s-4-71.2-9-157.9s-9-158.3-9-159.3c0-1.5-0.6-1.7-5.6-1.6C1362.6,582.1,1353.6,582.9,1345.7,583.8z"/>
	<path id="structure61_label64_Cg1" bar:growlevel="0" bar:type="" class="st80" d="M1238.6,605.5c-25.2,8.8-45.1,18.2-55.8,26.1
		c-22.4,16.6-37.7,41.8-44.5,73.1c-4,18.7-4.6,28.3-4.6,85.2v53.6l93.9,33.9l93.9,34l4-3.7c2.2-2,5.1-4.1,6.5-4.7
		c1.7-0.6,2.5-1.7,2.5-3c-0.1-1-20.3-68-44.9-148.6C1240.8,591.9,1244.8,603.3,1238.6,605.5z"/>
	<path id="structure62_label65_Cg2" bar:growlevel="0" bar:type="" class="st81" d="M1133.7,947.8V1051l2.1-0.6
		c3.8-1.3,8.5-1.5,10.3-0.6c1.3,0.7,0.8,0.8-2,0.5c-2.3-0.3-5,0.1-7,0.9l-3.3,1.4v11.7c0,9.9,0.2,11.8,1.4,11.8
		c0.7,0,1.3-0.6,1.3-1.4c0-0.7,1.7-3.1,3.9-5.3c7.3-7.7,17.8-7.6,26,0.2l2.4,2.3l12.4-2.4c15-3,34-7.7,40.9-10.4
		c14.6-5.5,41.7-30.9,56.3-52.7c5.8-8.7,8.7-15.1,15.8-35.5c10.3-29.6,15.7-41.9,22.9-52.8c1.7-2.6,3-5.2,2.8-5.8
		c-0.4-1-178-65.9-183.6-67.1l-2.5-0.5V947.8L1133.7,947.8z"/>
	<path class="st82" d="M1644.8,1237c-7.2-7.2-25.8-16.9-65.4-34.1c-12.6-5.4-28.6-13.1-35.5-16.8c-15.9-8.9-162.6-105.4-173.9-114.4
		c-6.8-5.6-10.3-10.6-10.9-15.8c-0.3-2.3-0.9-4.1-1.3-4.1c-0.5,0-3.2,2-6,4.3c-25.2,21.4-67,46.3-92.8,55.2
		c-7.2,2.5-9.9,4.1-17.1,9.8c-27.5,21.9-53.3,31.8-75.2,28.8c-8.5-1.1-21.4-5.1-25.3-7.9c-1.4-1-3.7-3.1-5.1-4.6
		c-1.2-1.2-2.4-2.3-3.1-2.6v110.7c5.5,0,11.1,0.2,17.1,0.5c14.7,0.8,18.8,0.7,22.6-0.3c7.7-2,23.8-4.7,35.1-5.9
		c14.3-1.3,48-0.6,58.7,1.4c16.1,3.1,30,6.7,37.8,10c33.8,14,44.3,16.5,77.4,17.6c25.4,0.9,40.5,2.8,64.1,8.2
		c17.6,4,22.4,5.6,37.2,12.5c22.4,10.4,31.5,12.7,50.4,12.7c29.5,0.1,55.1-8.8,85.5-29.5C1645.2,1254.5,1652.4,1244.7,1644.8,1237z"
		/>
	<path id="structure64_label67_LV" bar:growlevel="0" bar:type="" class="st83" d="M1443.8,1002.3c-9.8,1.2-22.1,4.7-29.2,8.5
		c-8.9,4.7-53.5,36.9-54.4,39.2c-1.3,3.2,0.1,9.8,2.8,13.7c3.3,4.9,12.1,11.3,52.2,37.6c19,12.5,51.4,33.9,72,47.6
		c54,35.6,60.4,39.3,97.3,55.3c43.6,18.8,59.9,28.1,63.8,36.2l1.5,3.1l9.9-0.4c5.7-0.3,11-0.9,12.4-1.6c5.2-2.5,4.1-8.1-3.5-17.6
		c-5.9-7.5-7.6-10.5-10.2-18.6c-4.9-15.9-6.7-38.7-4.2-52.9c2.8-15.7,10.6-36.4,21.2-55.7c4-7.4,4.8-13.3,2.2-17
		c-2.1-3-15.1-13.3-22.1-17.4c-6.7-4-45.1-22.1-64.7-30.5c-35-14.9-66.8-24.2-97.7-28.3C1480.7,1001.8,1453.2,1001.1,1443.8,1002.3z
		"/>
	<path class="st84" d="M2047.6,1484.6c-8.5-82.9-33.5-153.1-86.8-243.4c-43.9-74.5-70.5-109.4-125.5-165
		c-22.1-22.3-22.8-22.9-33.8-29.3c-31-18.2-62-33.3-98.6-48.1c-59.1-23.8-139.9-46-180.4-49.7c-35-3.1-87.6,1.8-121.1,11.3
		c-19,5.5-43.8,19.3-93.1,51.7c-31.6,20.7-40.1,25.8-60.7,36.1c-23.9,11.9-44.2,17.8-83.3,24.6c-14.7,2.5-22.9,3.8-31.3,3.8v51.3
		c50.2,0.1,98.1-6.5,129-18c28.4-10.6,72.4-37.6,94.1-57.8c6.1-5.8,41.2-31.6,53.2-39.3c12.4-7.9,25.4-11.3,46.8-12
		c36.7-1.3,75.7,6.7,121.2,24.7c14.7,5.8,50.6,22,66.2,29.7c4.5,2.3,12.5,5.2,18,6.7c93.1,24.6,180.3,81.1,249.8,161.9
		c41.5,48.2,73.7,109.7,95.5,181.7c12.4,41,25.9,102.2,28.6,130.1c2.2,21.5,0.8,60.8-3.2,93.7c-4.2,35.1-13,68.1-26.9,101.6
		c-15.8,37.9-29.9,59.4-68.9,105c-21.3,25-33.2,35.9-56.1,52.1c-11.8,8.3-15.3,11.9-25,25.8c-6.8,9.6-8.3,12.9-5.8,12.9
		c1.9,0,14.3-11.4,33-30.5c14.9-15.1,19.1-18.8,27.9-24.7c10.3-6.8,26.2-15.2,30.8-16.3c3.7-0.8,6.9,1.1,8,4.8
		c0.8,2.7,0.5,5.2-1.7,14.9c-3.9,16.6-5.4,27.5-6.5,45.5c-2.2,36-5.8,44.9-21.6,54c-8.6,5-6.8,7,3.2,3.6c10-3.4,19.2-10.4,24.9-18.7
		l2.7-3.9l-1-9.8c-1.2-11.8-0.4-24.8,3.6-58.5c2.3-20.2,3.2-25.3,5.9-33.2c4-12.2,11.1-26.5,20.7-41.9c8.2-13.1,11.8-20.2,23.1-44.1
		c6.8-14.5,8-18.1,13.3-41.4c3.8-16.6,6.8-25.9,13.3-40c16.1-34.7,22.1-70.2,22.1-130.1C2051.2,1526,2050.6,1513.4,2047.6,1484.6z"
		/>
	<path class="st85" d="M1363.6,1269.1c-14.8-1.2-38.2-7.8-56.2-15.8c-8.8-4-26.8-9.1-31.8-9.1c-1.6,0-4.4,1-6.4,2.3
		c-5,3.4-16.2,7.3-24.8,8.5c-13.7,2-32.7-0.6-52.2-7.3l-10.4-3.5l-6.2,1.6l-6.3,1.5l-0.5,4.1c-1.1,8.6-4.6,10.5-16.4,8.8
		c-4.7-0.7-12.1-1.1-19.4-1.1v115.1c1.6,0,3.1-0.2,4.7-0.5c13.9-2.3,29.3-11,45.6-25.5c17-15.1,26.6-23,30.5-25c8-4,29.7-7.6,54-8.5
		c16.1-0.7,25.4-1.8,34.5-4.1c9.2-2.3,13.9-4.8,23.7-12.2c9.8-7.6,28.2-18.6,37.5-22.8C1372.9,1271.7,1373,1270,1363.6,1269.1z"/>
	<path id="structure68_label72_AD" bar:growlevel="0" bar:type="" class="st86" d="M1383.9,1270.2c-11.6,1-36.8,13.7-55.6,27.9
		c-4.8,3.6-10.2,7.3-12,8.3l-3.2,1.6l-1.1,13.4c-1.7,21.8-7.3,48.1-11.7,55.1c-0.8,1.3-5,7-9.4,12.8c-4.3,5.7-7.9,10.8-7.9,11.3
		c0,1.2,2.5,1.8,11.3,2.5c6,0.5,6.5,0.4,11.6-2.6c2.9-1.7,7.4-3.6,9.9-4.1l4.7-1l1.6-6.2c4.9-19,27-50.7,55-78.8
		c16.3-16.4,26.7-25.4,36.5-31.7c7.3-4.6,6.8-5.8-2.8-7C1402.2,1270.5,1388.6,1269.8,1383.9,1270.2z"/>
	<path class="st87" d="M1163.7,2118.5c-6.7-4.8-14.8-8.3-18.8-8.4c-2.3,0-3.1,0.5-4,2.7c-1.4,3.5-4.9,6.2-7.9,6.3v72.6
		c10.8,0,21.8-0.7,34.9-2c7.2-0.7,13.5-1.3,14-1.3c1.6,0,4.1-11.3,4.6-21.2C1187.6,2146.6,1179.7,2129.9,1163.7,2118.5z"/>
	<path class="st25" d="M1644.8,1237c-7.2-7.2-25.8-16.9-65.4-34.1c-12.6-5.4-28.6-13.1-35.5-16.8c-15.9-8.9-162.6-105.4-173.9-114.4
		c-6.8-5.6-10.3-10.6-10.9-15.8c-0.3-2.3-0.9-4.1-1.3-4.1c-0.5,0-3.2,2-6,4.3c-25.2,21.4-67,46.3-92.8,55.2
		c-7.2,2.5-9.9,4.1-17.1,9.8c-27.5,21.9-53.3,31.8-75.2,28.8c-8.5-1.1-21.4-5.1-25.3-7.9c-1.4-1-3.7-3.1-5.1-4.6
		c-1.2-1.2-2.4-2.3-3.1-2.6v110.7c5.5,0,11.1,0.2,17.1,0.5c14.7,0.8,18.8,0.7,22.6-0.3c7.7-2,23.8-4.7,35.1-5.9
		c14.3-1.3,48-0.6,58.7,1.4c16.1,3.1,30,6.7,37.8,10c33.8,14,44.3,16.5,77.4,17.6c25.4,0.9,40.5,2.8,64.1,8.2
		c17.6,4,22.4,5.6,37.2,12.5c22.4,10.4,31.5,12.7,50.4,12.7c29.5,0.1,55.1-8.8,85.5-29.5C1645.2,1254.5,1652.4,1244.7,1644.8,1237z"
		/>
	<path class="st88" d="M2047.6,1484.6c-8.5-82.9-33.5-153.1-86.8-243.4c-43.9-74.5-70.5-109.4-125.5-165
		c-22.1-22.3-22.8-22.9-33.8-29.3c-31-18.2-62-33.3-98.6-48.1c-59.1-23.8-139.9-46-180.4-49.7c-35-3.1-87.6,1.8-121.1,11.3
		c-19,5.5-43.8,19.3-93.1,51.7c-31.6,20.7-40.1,25.8-60.7,36.1c-23.9,11.9-44.2,17.8-83.3,24.6c-14.7,2.5-22.9,3.8-31.3,3.8v51.3
		c50.2,0.1,98.1-6.5,129-18c28.4-10.6,72.4-37.6,94.1-57.8c6.1-5.8,41.2-31.6,53.2-39.3c12.4-7.9,25.4-11.3,46.8-12
		c36.7-1.3,75.7,6.7,121.2,24.7c14.7,5.8,50.6,22,66.2,29.7c4.5,2.3,12.5,5.2,18,6.7c93.1,24.6,180.3,81.1,249.8,161.9
		c41.5,48.2,73.7,109.7,95.5,181.7c12.4,41,25.9,102.2,28.6,130.1c2.2,21.5,0.8,60.8-3.2,93.7c-4.2,35.1-13,68.1-26.9,101.6
		c-15.8,37.9-29.9,59.4-68.9,105c-21.3,25-33.2,35.9-56.1,52.1c-11.8,8.3-15.3,11.9-25,25.8c-6.8,9.6-8.3,12.9-5.8,12.9
		c1.9,0,14.3-11.4,33-30.5c14.9-15.1,19.1-18.8,27.9-24.7c10.3-6.8,26.2-15.2,30.8-16.3c3.7-0.8,6.9,1.1,8,4.8
		c0.8,2.7,0.5,5.2-1.7,14.9c-3.9,16.6-5.4,27.5-6.5,45.5c-2.2,36-5.8,44.9-21.6,54c-8.6,5-6.8,7,3.2,3.6c10-3.4,19.2-10.4,24.9-18.7
		l2.7-3.9l-1-9.8c-1.2-11.8-0.4-24.8,3.6-58.5c2.3-20.2,3.2-25.3,5.9-33.2c4-12.2,11.1-26.5,20.7-41.9c8.2-13.1,11.8-20.2,23.1-44.1
		c6.8-14.5,8-18.1,13.3-41.4c3.8-16.6,6.8-25.9,13.3-40c16.1-34.7,22.1-70.2,22.1-130.1C2051.2,1526,2050.6,1513.4,2047.6,1484.6z"
		/>
	<path class="st45" d="M1631.7,2117.2c-6.9-1.9-13.7-7.2-31.9-24.9c-20.1-19.5-20.9-20.8-20.8-31.7c0-12.8,5.4-25.3,20.7-48.5
		c7.5-11.4,7.4-12.8-0.5-8.7c-6.1,3-23,8.5-29.9,9.5c-16.1,2.5-31.5-1.3-35.8-9.1c-2-3.3-3.2-3.3-4.7,0.1c-1.6,3.9-7.5,8.6-13,10.5
		c-5.9,2-17.3,2-24.1-0.1c-9.9-2.9-15.4-10.4-15.3-20.8c0.1-9.8,5.8-17.3,16.3-21.2c6.2-2.3,14-2,22.1,1.1c5.5,2,12.6,7.7,13.6,10.8
		c0.7,2.1,3,2.3,3.7,0.4c1.3-3.2-12.7-32.2-26.7-55.5c-14.7-24.4-28.8-44.5-50.8-72.3c-16.5-20.9-33.8-50.8-44.5-76.9
		c-5.1-12.4-12.5-34.7-14.9-45.1c-0.9-3.7-1.9-7.1-2.3-7.5c-0.4-0.4-5.5,0.9-11.3,3c-21.1,7.5-68.9,23.4-70.1,23.4
		c-0.7,0-1.4,0.5-1.4,1.3c0,0.8,1.7,1.4,5.5,1.8c13.5,1.5,26.9,6.3,35.7,12.5c7.8,5.7,11.6,15,7.3,18.1c-2.5,1.7-5.3,1.2-16.6-3.3
		c-11.8-4.7-19.1-5.3-28.4-2.4c-8.5,2.5-18.3,7.5-28.3,14.3c-4.4,3.1-9.4,5.8-11.1,6c-7.7,1.4-14.2-3.9-20.1-16.4
		c-4-8.3-4.4-12.5-1.7-15.9c1-1.3,1.8-2.7,1.8-3.1c0-0.5-2.1-1.6-4.6-2.4c-6.3-2.2-17.8-1.4-31.4,1.9c-8.8,2.2-12.2,2.5-23.4,2.6
		c-15.4,0-24.9-1.8-43.6-8.3c-8.3-2.9-13.3-4.3-18.3-4.3v13.1h2.5v6.7v6.6l7.9,0.6c35,2.7,66.1,15.9,74.3,31.6
		c2.6,5,3.2,17.5,1.2,23.9c-4,12.1-15.3,26.7-39.3,50.7l-17.9,17.7v4.8c0,5.9-2.8,17.7-6.2,26.1c-2.6,6.5-2.6,6.7-3.6,35.7
		c-2.5,72.1-5.8,121.8-8.7,133.7c-0.4,1.6,0,2.1,2.7,2.5c6.4,1.2,17.6,7.7,24.4,14.1l6.6,6.2l12,2.8c28.8,6.6,62.4,9.7,89,8.3
		c24.9-1.4,38.7,0.3,44.1,5.3c2.3,2.1,4.5,6.9,4.5,9.7c0,2.8,2.2,2.2,9.7-2.9c16.8-11.3,32.4-24.3,56.1-46.9
		c27.9-26.6,41.1-37.4,56.3-46.2c11.3-6.4,15.9-7.6,29.8-7.6c11.2,0,12-0.1,12-1.7c0-2.3,4.7-6.1,9.3-7.4c6.7-1.9,26.1,1.4,40.4,6.9
		c7.3,2.8,16.7,9.3,22.6,15.5c3.6,3.9,4.2,5.1,4.2,8.2c0,3.2-0.8,4.5-6,10.6c-9.4,11-12.8,20.2-9.6,26c2.3,4.1,4,4,4-0.4
		c0-5.7,2.5-12.4,5.9-16c2.6-2.8,3.5-3.1,5.6-2.6c3.5,0.8,4.5,1.9,9.1,9c11.6,18.1,35.7,46.4,39.6,46.4c0.4,0,1.2-1.9,1.5-4.3
		c1.1-7.7,6.5-10.3,14.6-6.9c1.7,0.7,3.4,1.4,3.8,1.4c0.3,0,0.5-4.2,0.6-9.4l0.1-9.4L1631.7,2117.2z M1358.6,1844.2
		c-0.3,7.1-0.7,9-3.6,14.9c-3.1,6.7-7.1,11.6-11.5,14.7c-2.2,1.5-2.2,1.5-0.6,4c5,7.7,9.1,19.8,11.6,35.3
		c1.6,10.2,1.4,40.3-0.5,55.8c-4.6,37.3-10.9,74.3-15,87.7c-3.5,11.2-12.7,18-30.7,22.5c-31,7.9-90.7,3.6-115.9-8.3
		c-7.6-3.6-12.1-8.8-18.1-21.2c-12.5-25.6-16.5-47.2-12.7-68.5c6.2-34.6,15.1-59.3,28.6-79.4c13.7-20.3,30.2-32,54.6-38.1
		c15.7-4,24.4-4.9,44.9-4.9c21.5,0,19.8,1,15.5-9.4c-2.7-6.5-4.9-17-5-24c0-11,4.4-23.1,10-27.3c6.8-5,17.1-6,24.8-2.4
		c8,3.8,13.9,12.4,20.3,30.5C1358.7,1835.4,1358.9,1836.5,1358.6,1844.2z"/>
	<path id="structure7_label6_RChL" bar:growlevel="0" bar:type="" class="st89" d="M1177.8,2131.3c0,0.3,1.6,3.8,3.5,7.8
		c1.9,4,4,9.6,4.7,12.3c1.5,6.6,1.3,19.6-0.4,27.9c-1.8,8.6-1.9,8.1,1.1,8.1c10.3,0,113.7-17.7,128.6-22.1c6.9-2,10.2-5,10.2-9.4
		c0-6.9-3.2-10.6-11.3-13.1c-4.9-1.5-9.3-1.7-42.3-1.7c-29.9-0.1-38.9-0.4-47.3-1.6c-15.5-2.3-30.2-5-38-6.9
		C1179.5,2130.7,1177.8,2130.4,1177.8,2131.3z"/>
	<path id="structure80_label88_sox" bar:growlevel="0" bar:type="" class="st90" d="M1447,2061.1c-15.8,9.5-27.8,19.4-50.9,41.7
		c-26.4,25.5-46.6,42.2-64.6,53.5c-9.2,5.8-12.3,8.2-12.3,9.5c0,1.4,23.9,1.3,39.2-0.4c6.9-0.7,18.2-2.2,24.9-3.2l12.3-1.9l5.4-6.1
		c17.8-20.1,30.6-41.6,38.7-65.2c4.4-12.8,7.8-19.4,13.1-25.5C1459.6,2055.7,1457.4,2054.8,1447,2061.1z"/>
	<path id="structure81_label89_f" bar:growlevel="0" bar:type="" class="st91" d="M1316.4,1795.1c-10.4,3.6-15.3,13.1-15.3,30.1
		c0,15,4.8,29.6,13.7,41.5c7.8,10.5,15.4,13.4,24.3,9.2c12.2-5.8,20.5-21.2,19.4-35.8c-0.6-7.6-7.6-26.5-12.4-33.9
		C1338.5,1794.5,1328.7,1790.9,1316.4,1795.1z"/>
	<path class="st23" d="M1631.7,2117.2c-6.9-1.9-13.7-7.2-31.9-24.9c-20.1-19.5-20.9-20.8-20.8-31.7c0-12.8,5.4-25.3,20.7-48.5
		c7.5-11.4,7.4-12.8-0.5-8.7c-6.1,3-23,8.5-29.9,9.5c-16.1,2.5-31.5-1.3-35.8-9.1c-2-3.3-3.2-3.3-4.7,0.1c-1.6,3.9-7.5,8.6-13,10.5
		c-5.9,2-17.3,2-24.1-0.1c-9.9-2.9-15.4-10.4-15.3-20.8c0.1-9.8,5.8-17.3,16.3-21.2c6.2-2.3,14-2,22.1,1.1c5.5,2,12.6,7.7,13.6,10.8
		c0.7,2.1,3,2.3,3.7,0.4c1.3-3.2-12.7-32.2-26.7-55.5c-14.7-24.4-28.8-44.5-50.8-72.3c-16.5-20.9-33.8-50.8-44.5-76.9
		c-5.1-12.4-12.5-34.7-14.9-45.1c-0.9-3.7-1.9-7.1-2.3-7.5c-0.4-0.4-5.5,0.9-11.3,3c-21.1,7.5-68.9,23.4-70.1,23.4
		c-0.7,0-1.4,0.5-1.4,1.3c0,0.8,1.7,1.4,5.5,1.8c13.5,1.5,26.9,6.3,35.7,12.5c7.8,5.7,11.6,15,7.3,18.1c-2.5,1.7-5.3,1.2-16.6-3.3
		c-11.8-4.7-19.1-5.3-28.4-2.4c-8.5,2.5-18.3,7.5-28.3,14.3c-4.4,3.1-9.4,5.8-11.1,6c-7.7,1.4-14.2-3.9-20.1-16.4
		c-4-8.3-4.4-12.5-1.7-15.9c1-1.3,1.8-2.7,1.8-3.1c0-0.5-2.1-1.6-4.6-2.4c-6.3-2.2-17.8-1.4-31.4,1.9c-8.8,2.2-12.2,2.5-23.4,2.6
		c-15.4,0-24.9-1.8-43.6-8.3c-8.3-2.9-13.3-4.3-18.3-4.3v13.1h2.5v6.7v6.6l7.9,0.6c35,2.7,66.1,15.9,74.3,31.6
		c2.6,5,3.2,17.5,1.2,23.9c-4,12.1-15.3,26.7-39.3,50.7l-17.9,17.7v4.8c0,5.9-2.8,17.7-6.2,26.1c-2.6,6.5-2.6,6.7-3.6,35.7
		c-2.5,72.1-5.8,121.8-8.7,133.7c-0.4,1.6,0,2.1,2.7,2.5c6.4,1.2,17.6,7.7,24.4,14.1l6.6,6.2l12,2.8c28.8,6.6,62.4,9.7,89,8.3
		c24.9-1.4,38.7,0.3,44.1,5.3c2.3,2.1,4.5,6.9,4.5,9.7c0,2.8,2.2,2.2,9.7-2.9c16.8-11.3,32.4-24.3,56.1-46.9
		c27.9-26.6,41.1-37.4,56.3-46.2c11.3-6.4,15.9-7.6,29.8-7.6c11.2,0,12-0.1,12-1.7c0-2.3,4.7-6.1,9.3-7.4c6.7-1.9,26.1,1.4,40.4,6.9
		c7.3,2.8,16.7,9.3,22.6,15.5c3.6,3.9,4.2,5.1,4.2,8.2c0,3.2-0.8,4.5-6,10.6c-9.4,11-12.8,20.2-9.6,26c2.3,4.1,4,4,4-0.4
		c0-5.7,2.5-12.4,5.9-16c2.6-2.8,3.5-3.1,5.6-2.6c3.5,0.8,4.5,1.9,9.1,9c11.6,18.1,35.7,46.4,39.6,46.4c0.4,0,1.2-1.9,1.5-4.3
		c1.1-7.7,6.5-10.3,14.6-6.9c1.7,0.7,3.4,1.4,3.8,1.4c0.3,0,0.5-4.2,0.6-9.4l0.1-9.4L1631.7,2117.2z M1358.6,1844.2
		c-0.3,7.1-0.7,9-3.6,14.9c-3.1,6.7-7.1,11.6-11.5,14.7c-2.2,1.5-2.2,1.5-0.6,4c5,7.7,9.1,19.8,11.6,35.3
		c1.6,10.2,1.4,40.3-0.5,55.8c-4.6,37.3-10.9,74.3-15,87.7c-3.5,11.2-12.7,18-30.7,22.5c-31,7.9-90.7,3.6-115.9-8.3
		c-7.6-3.6-12.1-8.8-18.1-21.2c-12.5-25.6-16.5-47.2-12.7-68.5c6.2-34.6,15.1-59.3,28.6-79.4c13.7-20.3,30.2-32,54.6-38.1
		c15.7-4,24.4-4.9,44.9-4.9c21.5,0,19.8,1,15.5-9.4c-2.7-6.5-4.9-17-5-24c0-11,4.4-23.1,10-27.3c6.8-5,17.1-6,24.8-2.4
		c8,3.8,13.9,12.4,20.3,30.5C1358.7,1835.4,1358.9,1836.5,1358.6,1844.2z"/>
	<path id="structure85_label93_opt" bar:growlevel="0" bar:type="" class="st92" d="M1464.5,2054.7c-10.5,5.4-18.4,16.1-23.9,32.8
		c-6.9,20.8-19.7,43.4-34.5,60.9c-3.7,4.4-6.8,8.6-6.8,9.2c0,1.8,2.4,1.4,20.5-2.5c43.2-9.4,59.8-11.8,91.6-13.4
		c24.6-1.2,32.4-3.3,39.5-10.7c2.3-2.4,2.7-3.7,3-8.9c0.4-6,0.4-6.1-4.1-12.8c-2.5-3.7-8.7-11.4-13.7-17.1c-5-5.7-11.3-13.4-14-17.2
		c-11.6-16.3-20.8-21.1-42.3-22.1C1469.4,2052.3,1468.8,2052.4,1464.5,2054.7z"/>
	<path id="structure86_label94_ic" bar:growlevel="0" bar:type="" class="st93" d="M1714.7,1223.9c-6.5,2.2-11.1,5-16.9,10.5
		c-7.2,6.7-10.2,12.3-15,27.9c-4.8,15.4-8.2,20.7-22.9,34.8c-16,15.5-29.3,25.5-42.3,31.8c-23.5,11.4-54.7,19.9-74.5,20.2l-7.9,0.1
		v4.1c0,4.9,2.3,9.1,6.9,12.1c6.4,4.2,12.5,5.2,35.8,5.9c21,0.6,21.7,0.6,26.1,3c8.3,4.3,13.6,11.6,17.3,23.7
		c2.5,8.4,2.3,36-0.4,49.7c-7.8,38.8-33,91.2-74.3,154.2c-7,10.6-16.1,25.2-20.2,32.4c-13.8,23.9-28.4,55.7-35.5,76.5
		c-7.7,23.1-8.2,47.8-1.4,71.2c7.8,27,28.3,52.7,46.3,58.5c11.6,3.7,32.4,2,45.2-3.8c20.1-9,31.3-16,46.5-29.1
		c15.7-13.4,24.6-23.5,35.6-40.1c19.3-29.3,34.6-71.6,43.5-121.5c4.8-26.7,7-48.6,17.9-175.5c8.5-99.4,8.9-102.8,21.6-179
		c3.7-22.5,6.8-42.5,6.8-44.6c0-8.7-4.8-15.9-13.6-20.8c-4.2-2.3-5.9-2.7-13-2.9C1721.4,1222.8,1716.9,1223.2,1714.7,1223.9z"/>
	<path id="structure93_label101_AVVL" bar:growlevel="0" bar:type="" class="st94" d="M1431,1276.8c0.3,1.2,1.2,4,2,6.2
		c2.1,5.4,2.1,17.1,0,27c-7.9,38.3-40,85.1-72.3,105.2c-10.7,6.8-21.2,9.1-27.1,6c-3.2-1.7-8.1-7.3-9.3-10.6
		c-0.4-1.4-1.4-2.5-2.1-2.5c-1.3,0-5.8,7.6-5.8,9.7c0,4.8,17.1,28,31,41.9c16.5,16.6,33.8,28.9,50.3,35.6c8.4,3.4,17.4,6,18.1,5.3
		c1.6-1.7,38.5-76.4,43.2-87.7c10.9-25.7,21.8-60.9,26.6-86.4c1.1-5.5,2.2-15.2,2.4-21.8l0.5-11.9l-8-3.7
		c-13-6.1-23.4-9.2-47.1-13.9C1430.7,1274.7,1430.6,1274.8,1431,1276.8z"/>
	<text id="label30" bar:growlevel="0" transform="matrix(1 0 0 1 1651.8994 2135.0332)" class="st95 st96 st97">BAOT</text>
	<text id="label31" bar:growlevel="0" transform="matrix(1 0 0 1 1746.7012 2136.1016)" class="st95 st96 st97">ACo</text>
	<text id="label32" bar:growlevel="0" transform="matrix(1 0 0 1 1751.4414 2069.2324)" class="st95 st96 st97">BMA</text>
	<text id="label33" bar:growlevel="0" transform="matrix(1 0 0 1 1912.6592 2117.2617)" class="st95 st96 st97">CxA-3</text>
	<text id="label34" bar:growlevel="0" transform="matrix(1 0 0 1 1912.6592 2166.3711)" class="st95 st96 st97">CxA-2</text>
	<text id="label35" bar:growlevel="0" transform="matrix(1 0 0 1 1890.6689 2207.1113)" class="st95 st96 st97">CxA-1</text>
	<text id="label36" bar:growlevel="0" transform="matrix(1 0 0 1 1882.6299 2018.0801)" class="st95 st96 st97">VEn</text>
	<text id="label37" bar:growlevel="0" transform="matrix(1 0 0 1 1837.3018 1989.8809)" class="st95 st96 st97">I</text>
	<text id="label38" bar:growlevel="0" transform="matrix(1 0 0 1 1717.8115 1996.1504)" class="st95 st96 st97">AA</text>
	<text id="label39" bar:growlevel="0" transform="matrix(1 0 0 1 1693.9902 1899.0117)" class="st95 st96 st97">CeM</text>
	<text id="label142" bar:growlevel="0" transform="matrix(1 0 0 1 1343.3506 928.6016)" class="st95 st96 st97">cg</text>
	<text id="label147" bar:growlevel="0" transform="matrix(1 0 0 1 1837.2109 2240.4727)" class="st95 st96 st97">af</text>
	<text id="label146" bar:growlevel="0" transform="matrix(1 0 0 1 1976.7402 1325.502)" class="st95 st96 st97">ec</text>
	<text id="label145" bar:growlevel="0" transform="matrix(1 0 0 1 1238.8896 1354.752)" class="st95 st96 st97">sm</text>
	<text id="label144" bar:growlevel="0" transform="matrix(1 0 0 1 1597.7471 1303.8398)" class="st95 st96 st97">st</text>
	<text id="label149" bar:growlevel="0" transform="matrix(1 0 0 1 1164.1182 1914.1016)" class="st95 st96 st97">SPa</text>
	<text id="label148" bar:growlevel="0" transform="matrix(1 0 0 1 2035.1494 1697.3516)" class="st95 st96 st97">DCl</text>
	<text id="label9" bar:growlevel="0" transform="matrix(1 0 0 1 1267.4248 1782.1816)" class="st95 st96 st97">ANS</text>
	<text id="label201" bar:growlevel="0" transform="matrix(1 0 0 1 1142.7549 1933.0078)" class="st95 st96 st97">PaV</text>
	<text id="label202" bar:growlevel="0" transform="matrix(1 0 0 1 1173.6396 1864.0859)" class="st95 st96 st97">PaMM</text>
	<text id="label0" bar:growlevel="0" transform="matrix(1 0 0 1 1233.0713 1976.2324)" class="st95 st96 st97">AHC</text>
	<text id="label1" bar:growlevel="0" transform="matrix(1 0 0 1 1401.0127 1941.7617)" class="st95 st96 st97">PLH</text>
	<text id="label2" bar:growlevel="0" transform="matrix(1 0 0 1 1490.2012 2004.459)" class="st95 st96 st97">VLH</text>
	<text id="label3" bar:growlevel="0" transform="matrix(1 0 0 1 1555.4453 1989.8203)" class="st95 st96 st97">HDB</text>
	<text id="label4" bar:growlevel="0" transform="matrix(1 0 0 1 1588.542 2065.0313)" class="st95 st96 st97">MeAD</text>
	<text id="label5" bar:growlevel="0" transform="matrix(1 0 0 1 1138.4805 2159.1797)" class="st95 st96 st97">RCh</text>
	<text id="label6" bar:growlevel="0" transform="matrix(1 0 0 1 1203.6396 2169.4629)" class="st95 st96 st97">RChL</text>
	<text id="label89" bar:growlevel="0" transform="matrix(1 0 0 1 1326.1592 1843.6016)" class="st95 st96 st97">f</text>
	<text id="label88" bar:growlevel="0" transform="matrix(1 0 0 1 1361.4092 2153.8008)" class="st95 st96 st97">sox</text>
	<text id="label170" bar:growlevel="0" transform="matrix(1 0 0 1 1643.4414 2156.9199)" class="st95 st96 st97">aot</text>
	<text id="label171" bar:growlevel="0" transform="matrix(1 0 0 1 1699.8408 2040.0703)" class="st95 st96 st97">cst</text>
	<text id="label195" bar:growlevel="0" transform="matrix(1 0 0 1 1135.542 1694.2324)" class="st95 st96 st97">Xi</text>
	<text id="label191" bar:growlevel="0" transform="matrix(1 0 0 1 1567.6592 1259.709)" class="st95 st96 st97">fi</text>
	<text id="label18" bar:growlevel="0" transform="matrix(1 0 0 1 1224.7012 1697.3809)" class="st95 st96 st97">VRe</text>
	<text id="label19" bar:growlevel="0" transform="matrix(1 0 0 1 1294.6299 1546.9922)" class="st95 st96 st97">AM</text>
	<text id="Unlabeled-1726-1257" bar:growlevel="0" transform="matrix(1 0 0 1 1142.7549 1381.8691)" class="st95 st96 st97">grey</text>
	<text id="label12" bar:growlevel="0" transform="matrix(1 0 0 1 1166.9189 1750.1211)" class="st95 st96 st97">PaXi</text>
	<text id="label13" bar:growlevel="0" transform="matrix(1 0 0 1 1529.7227 2068.3066)" class="st95 st96 st97">SO</text>
	<text id="label10" bar:growlevel="0" transform="matrix(1 0 0 1 1230.4609 1836.252)" class="st95 st96 st97">JPLH</text>
	<text id="label11" bar:growlevel="0" transform="matrix(1 0 0 1 1173.7539 1822.707)" class="st95 st96 st97">PaMP</text>
	<text id="label17" bar:growlevel="0" transform="matrix(1 0 0 1 1148.1396 1629.4922)" class="st95 st96 st97">Re</text>
	<text id="label169" bar:growlevel="0" transform="matrix(1 0 0 1 1369.2607 1366.8711)" class="st95 st96 st97">AVDM</text>
	<text id="label93" bar:growlevel="0" transform="matrix(1 0 0 1 1468.4805 2111.0215)" class="st95 st96 st97">opt</text>
	<text id="label94" bar:growlevel="0" transform="matrix(1 0 0 1 1620.6689 1624.2422)" class="st95 st96 st97">ic</text>
	<text id="label164" bar:growlevel="0" transform="matrix(1 0 0 1 1141.6709 1993.2773)" class="st95 st96 st97">Pe</text>
	<text id="label167" bar:growlevel="0" transform="matrix(1 0 0 1 1605.7861 1327.25)" class="st95 st96 st97">cst</text>
	<text id="label187" bar:growlevel="0" transform="matrix(1 0 0 1 1191.042 1134.9102)" class="st95 st96 st97">df</text>
	<text id="label68" bar:growlevel="0" transform="matrix(1 0 0 1 1148.1396 1100.7715)" class="st95 st96 st97">cc</text>
	<text id="label67" bar:growlevel="0" transform="matrix(1 0 0 1 1530.7305 1075.543)" class="st95 st96 st97">LV</text>
	<text id="label66" bar:growlevel="0" transform="matrix(1 0 0 1 1141.6709 1187.3203)" class="st95 st96 st97">vhc</text>
	<text id="label65" bar:growlevel="0" transform="matrix(1 0 0 1 1183.1201 965.1992)" class="st95 st96 st97">Cg2</text>
	<text id="label64" bar:growlevel="0" transform="matrix(1 0 0 1 1200.8799 788.6797)" class="st95 st96 st97">Cg1</text>
	<text id="label63" bar:growlevel="0" transform="matrix(1 0 0 1 1318.0908 755.6211)" class="st95 st96 st97">M2</text>
	<text id="label62" bar:growlevel="0" transform="matrix(1 0 0 1 1411.4189 737.502)" class="st95 st96 st97">M1</text>
	<text id="label61" bar:growlevel="0" transform="matrix(1 0 0 1 1555.4189 759.7617)" class="st95 st96 st97">S1HL</text>
	<text id="label60" bar:growlevel="0" transform="matrix(1 0 0 1 1730.6494 805.7227)" class="st95 st96 st97">S1Sh</text>
	<text id="Unlabeled-949-516" bar:growlevel="0" transform="matrix(1 0 0 1 1842.3115 823.6465)" class="st95 st96 st97">S1DZ</text>
	<text id="Unlabeled-2273-1252" bar:growlevel="0" transform="matrix(1 0 0 1 1549.2402 1344.3047)" class="st95 st96 st97">grey</text>
	<text id="label101" bar:growlevel="0" transform="matrix(1 0 0 1 1404.3232 1423.9746)" class="st95 st96 st97">AVVL</text>
	<text id="label107" bar:growlevel="0" transform="matrix(1 0 0 1 1728.3672 2186.873)" class="st95 st96 st97">OlfCx-1</text>
	<text id="label70" bar:growlevel="0" transform="matrix(1 0 0 1 1156.2725 1318.5488)" class="st95 st96 st97">D3V</text>
	<text id="label72" bar:growlevel="0" transform="matrix(1 0 0 1 1318.8115 1325.5313)" class="st95 st96 st97">AD</text>
	<text id="Unlabeled-2011-1601" bar:growlevel="0" transform="matrix(1 0 0 1 1290.3408 1664.6074)" class="st95 st96 st97">Th</text>
	<text id="label41" bar:growlevel="0" transform="matrix(1 0 0 1 1600.8994 1890.6699)" class="st95 st96 st97">EAC</text>
	<text id="label40" bar:growlevel="0" transform="matrix(1 0 0 1 1779.7012 1916.7715)" class="st95 st96 st97">CeC</text>
	<text id="label43" bar:growlevel="0" transform="matrix(1 0 0 1 1877.5615 1938.7324)" class="st95 st96 st97">BLA</text>
	<text id="label42" bar:growlevel="0" transform="matrix(1 0 0 1 1612.7324 1949.2051)" class="st95 st96 st97">MCPO</text>
	<text id="label45" bar:growlevel="0" transform="matrix(1 0 0 1 1484.5 1886.502)" class="st95 st96 st97">EAM</text>
	<text id="label44" bar:growlevel="0" transform="matrix(1 0 0 1 1846.5127 1869.791)" class="st95 st96 st97">ASt</text>
	<text id="label47" bar:growlevel="0" transform="matrix(1 0 0 1 1975.8408 1894.8711)" class="st95 st96 st97">DEn</text>
	<text id="label46" bar:growlevel="0" transform="matrix(1 0 0 1 1752.7012 1609.7227)" class="st95 st96 st97">GP</text>
	<text id="label204" bar:growlevel="0" transform="matrix(1 0 0 1 1136.0283 1790.0449)" class="st95 st96 st97">3V</text>
	<text id="label56" bar:growlevel="0" transform="matrix(1 0 0 1 2188.2109 1489.6016)" class="st95 st96 st97">S2</text>
	<text id="label57" bar:growlevel="0" transform="matrix(1 0 0 1 1880.9189 1479.1602)" class="st95 st96 st97">CPu</text>
	<text id="label54" bar:growlevel="0" transform="matrix(1 0 0 1 2160.6104 1714.1504)" class="st95 st96 st97">DI</text>
	<text id="label55" bar:growlevel="0" transform="matrix(1 0 0 1 2170.7207 1639.9922)" class="st95 st96 st97">GI</text>
	<text id="label52" bar:growlevel="0" transform="matrix(1 0 0 1 2002.9902 1787.2617)" class="st95 st96 st97">VCl</text>
	<text id="label53" bar:growlevel="0" transform="matrix(1 0 0 1 1664.7402 1698.4922)" class="st98 st96 st97">.B</text>
	<text id="label50" bar:growlevel="0" transform="matrix(1 0 0 1 2098.2402 1985.1992)" class="st95 st96 st97">Pir-3</text>
	<text id="label51" bar:growlevel="0" transform="matrix(1 0 0 1 2136.1006 1812.6992)" class="st95 st96 st97">AIP</text>
	<text id="label58" bar:growlevel="0" transform="matrix(1 0 0 1 2132.2305 1321.0898)" class="st95 st96 st97">S1ULp</text>
	<text id="label59" bar:growlevel="0" transform="matrix(1 0 0 1 1988.3799 1032.1309)" class="st95 st96 st97">S1BF</text>
	<text id="label92" bar:growlevel="0" transform="matrix(1 0 0 1 1433.3213 1976.6211)" class="st95 st96 st97">mfb</text>
	<text id="Unlabeled-2118-808" bar:growlevel="0" transform="matrix(1 0 0 1 1372.2402 956.3086)" class="st95 st96 st97">grey</text>
	<text id="label23" bar:growlevel="0" transform="matrix(1 0 0 1 1443.4609 1489.541)" class="st95 st96 st97">VA</text>
	<text id="label22" bar:growlevel="0" transform="matrix(1 0 0 1 1504.6006 1532.3809)" class="st95 st96 st97">Rt</text>
	<text id="label21" bar:growlevel="0" transform="matrix(1 0 0 1 1153.542 1503.7227)" class="st95 st96 st97">CM</text>
	<text id="label20" bar:growlevel="0" transform="matrix(1 0 0 1 1230.6309 1625.1348)" class="st95 st96 st97">AMV</text>
	<text id="label27" bar:growlevel="0" transform="matrix(1 0 0 1 1203.6104 1430.0215)" class="st95 st96 st97">PT</text>
	<text id="label26" bar:growlevel="0" transform="matrix(1 0 0 1 1181.0518 1538.6504)" class="st95 st96 st97">IAD</text>
	<text id="label28" bar:growlevel="0" transform="matrix(1 0 0 1 1148.1396 1415.0117)" class="st95 st96 st97">PVA</text>
	<text id="label49" bar:growlevel="0" transform="matrix(1 0 0 1 2117.4092 2014.959)" class="st95 st96 st97">Pir-2</text>
	<text id="label151" bar:growlevel="0" transform="matrix(1 0 0 1 1663 1285.2715)" class="st95 st96 st97">STSL</text>
	<text id="label152" bar:growlevel="0" transform="matrix(1 0 0 1 1254.9092 1452.9395)" class="st95 st96 st97">PC</text>
	<text id="label153" bar:growlevel="0" transform="matrix(1 0 0 1 1139.1719 1252.916)" class="st95 st96 st97">SFO</text>
	<text id="label154" bar:growlevel="0" transform="matrix(1 0 0 1 1230.9092 1246.1504)" class="st95 st96 st97">MoDG</text>
	<text id="label156" bar:growlevel="0" transform="matrix(1 0 0 1 1525.0674 1318.5488)" class="st95 st96 st97">RtSt</text>
	<text id="label157" bar:growlevel="0" transform="matrix(1 0 0 1 1554.209 1323.541)" class="st95 st96 st97">STSM</text>
	<text id="label159" bar:growlevel="0" transform="matrix(1 0 0 1 1153.542 1068.5801)" class="st95 st96 st97">IG</text>
	<text id="label48" bar:growlevel="0" transform="matrix(1 0 0 1 2114.8018 2069.291)" class="st95 st96 st97">Pir-1</text>
</g>
</svg>
