<?xml version="1.0" encoding="utf-8"?>
<!-- Generator: Adobe Illustrator 24.1.1, SVG Export Plug-In . SVG Version: 6.00 Build 0)  -->
<svg version="1.1"
	 id="body" inkscape:version="0.47pre4 r22446" sodipodi:docname="59_pretrace_pretrace_v1.svg" xmlns:bar="http://www.3dbar.org" xmlns:cc="http://creativecommons.org/ns#" xmlns:dc="http://purl.org/dc/elements/1.1/" xmlns:inkscape="http://www.inkscape.org/namespaces/inkscape" xmlns:rdf="http://www.w3.org/1999/02/22-rdf-syntax-ns#" xmlns:sodipodi="http://sodipodi.sourceforge.net/DTD/sodipodi-0.dtd" xmlns:svg="http://www.w3.org/2000/svg"
	 xmlns="http://www.w3.org/2000/svg" xmlns:xlink="http://www.w3.org/1999/xlink" x="0px" y="0px" viewBox="0 0 3024 3024"
	 style="enable-background:new 0 0 3024 3024;" xml:space="preserve">
<style type="text/css">
	.st0{fill:#FF000C;}
	.st1{fill:#F3FF59;}
	.st2{fill:#D8E900;}
	.st3{fill:#FFB2BA;}
	.st4{fill:#6B3BD0;}
	.st5{fill:#8CFF00;}
	.st6{fill:#97FF00;}
	.st7{fill:#92FF00;}
	.st8{fill:#FFEF00;}
	.st9{fill:#FFFAB2;}
	.st10{fill:#E9E159;}
	.st11{fill:#5F23ED;}
	.st12{fill:#E0E959;}
	.st13{fill:#EEF423;}
	.st14{fill:#D0D447;}
	.st15{fill:#C4C923;}
	.st16{fill:#8847F2;}
	.st17{fill:#C3C900;}
	.st18{fill:#FDFF76;}
	.st19{fill:#FFDE00;}
	.st20{fill:#E8E900;}
	.st21{fill:#E8E93B;}
	.st22{fill:#FEFFB2;}
	.st23{fill:#FFEC00;}
	.st24{fill:#FBFF8E;}
	.st25{fill:#E2E923;}
	.st26{fill:#F1F48E;}
	.st27{fill:#DBDF6B;}
	.st28{fill:#FF005D;}
	.st29{fill:#DEFFB2;}
	.st30{fill:#FFF359;}
	.st31{fill:#97FF59;}
	.st32{fill:#E9DA00;}
	.st33{fill:#FFE900;}
	.st34{fill:#F6FF00;}
	.st35{fill:#3FFF00;}
	.st36{fill:#B8FF00;}
	.st37{fill:#DBFFB2;}
	.st38{fill:#E9DB00;}
	.st39{fill:#FFF459;}
	.st40{fill:#FF0045;}
	.st41{fill:#B2FF00;}
	.st42{fill:#FF23E9;}
	.st43{fill:#8F6BE1;}
	.st44{fill:#F200DD;}
	.st45{fill:#5DFF00;}
	.st46{fill:#925FDC;}
	.st47{fill:#FEFF3B;}
	.st48{fill:#C6D400;}
	.st49{fill:#232323;enable-background:new    ;}
	.st50{font-family:'TimesNewRomanPSMT';}
	.st51{font-size:27px;}
</style>
<sodipodi:namedview  bordercolor="#666666" borderopacity="1" gridtolerance="10" guidetolerance="10" id="namedview247" inkscape:current-layer="content" inkscape:cx="557.00054" inkscape:cy="680.62087" inkscape:object-paths="true" inkscape:pageopacity="0" inkscape:pageshadow="2" inkscape:window-height="1128" inkscape:window-maximized="1" inkscape:window-width="1918" inkscape:window-x="1680" inkscape:window-y="24" inkscape:zoom="6.7357669" objecttolerance="10" pagecolor="#ffffff" showgrid="false">
	</sodipodi:namedview>
<desc  id="desc5">This was produced by version 4.2 of GNU libplot, a free library for exporting 2-D vector graphics.</desc>
<defs>
	<rdf:RDF>
		<cc:Work  rdf:about="">
			<dc:format>image/svg+xml</dc:format>
			<dc:type  rdf:resource="http://purl.org/dc/dcmitype/StillImage"></dc:type>
		</cc:Work>
	</rdf:RDF>
	<bar:data  content="2.04" name="coronalcoord"></bar:data>
	
		<bar:data  content="{&apos;ReferenceHeight&apos;: 900, &apos;ReferenceWidth&apos;: 1200, &apos;imageSize&apos;: (1200, 900)}" name="rendererConf">
		</bar:data>
	
		<bar:data  content="{&apos;DumpEachStepSVG&apos;: False, &apos;DumpEachStepPNG&apos;: False, &apos;GrowDefaultBoundaryColor&apos;: 200, &apos;CacheLevel&apos;: 5, &apos;NewPathIdTemplate&apos;: &apos;structure%d_%s_%s&apos;, &apos;PoTraceConf&apos;: {&apos;potrace_accuracy_parameter&apos;: &apos;0.001&apos;, &apos;potrace_width_string&apos;: &apos;1200pt&apos;, &apos;potrace_svg_resolution_string&apos;: &apos;300x300&apos;, &apos;potrace_height_string&apos;: &apos;900pt&apos;}, &apos;DetectUnlabelled&apos;: True, &apos;DumpVBrain&apos;: False, &apos;DumpWrongSeed&apos;: True, &apos;DumpDirectory&apos;: &apos;.&apos;, &apos;MinFiterTimesApplication&apos;: 3, &apos;RegionAlreadyTraced&apos;: 100, &apos;UnlabelledTreshold&apos;: 500}" name="tracingConf">
		</bar:data>
	<bar:data  content="0.0176211454,-9.5150660793,0.0176211454,-1.5355884426" name="transformationmatrix"></bar:data>
</defs>
<g id="content">
	<path class="st0" d="M2223.8,1185c-13.6-70.4-51.3-160.1-94.4-225c-30.1-45.1-86-105.7-138.2-149.3c-22.2-18.6-55.7-42.3-78.6-55.3
		c-12.3-7.1-44.6-23.1-62.7-31.1c-82.6-36.4-173.2-61.4-299.3-82.3c-74-12.3-133.7-13.6-187.7-4c-42.2,7.5-81,23-102,40.7
		c-19,16.1-40.1,50.1-49.9,80.8c-2.4,7.3-3.6,10-4.7,10.2l-0.1,427.7c0,0,0.1,0,0.1,0c0.8,0,2.5,2.4,4.2,6.1c1.9,3.9,5,8.4,8.4,12
		c3,3.1,5.4,5.9,5.4,6.3c0,0.4-0.8,0.8-1.8,1.2c-1,0.3-3,2.1-4.5,3.9l-2.6,3.2l-3.2-1.5c-2-1-4-1.5-5.9-1.5l-0.1,508.5
		c0.2-0.1,0.3-0.1,0.5-0.1c0.9,0,1.3,2.6,1.8,10.1c1.5,24.2,7.2,63.9,12.8,89.4c7.6,34.6,15.6,56.4,24.3,66.8
		c10.8,12.7,47.7,40.2,79.7,59.5c17.1,10.3,22.6,14.8,39.1,32.8c35.6,38.4,68.9,63.5,106.6,80.5c13.4,6,28.1,11.2,39.1,13.7
		c13.2,3.1,45.1,6.6,64.4,7.1c19.8,0.5,26-0.4,36.6-5c9.3-4.1,27.1-8.8,70.9-18.9c65.4-15.2,74.5-17.7,97.2-27.3
		c61.2-25.9,169.7-86.4,213.6-119.3c12.7-9.5,29.1-25.2,36.1-34.5c6.2-8.3,13.4-22.1,16.6-32c4.2-12.9,5.9-22.3,7.8-43.7
		c1.9-21.1,5.6-34.6,14.1-51.8c6.3-12.5,9-17.3,26.8-45.9c43.9-70.6,70.7-122.7,90.2-175.9C2225.5,1429.1,2242.1,1279.6,2223.8,1185
		z"/>
	<path id="structure2_label92_vBrain" bar:growlevel="0" bar:type="" class="st0" d="M1214.7,1875.9c-8,4.3-7.7,15.5,0.4,19.4
		c3.1,1.4,3.3,1.3,6.5-0.3c4.7-2.5,7-7.6,5.7-12.1C1225.5,1876.9,1219.3,1873.5,1214.7,1875.9z"/>
	<path id="structure100_label56-0_Pir-2" bar:growlevel="0" bar:type="" class="st1" d="M1969,1782.3c-3,3.9-1.6,11.2,3.5,18.3
		c6.8,9.6,10,24,8,37.8c-2.9,20.7-10.1,29.3-24.8,29.3c-7.4,0-14.1-1.4-34.1-7.2c-18.5-5.3-27.5-6.4-44.2-5.3
		c-17.9,1.2-48.2,6.7-54.6,9.8c-10,5.1-15.5,17.5-18.4,41.4c-2.5,20.4-3.8,26.8-6.6,32.6c-4.8,10.3-12.6,17.3-29.9,26.8
		c-4.7,2.6-9.7,5.8-11.1,7.1c-5.5,5-9,15-10.5,29.7c-1.4,14.7-1.2,19.4,1.7,28.5c1.4,4.6,3.2,11.2,3.8,14.7c0.6,3.5,1.6,6.4,2.2,6.4
		c0.5,0,2.9-0.6,5.1-1.4c5.2-1.7,5.2-1.6,5.2-29.3v-21.2l2.8-5.6c5.6-11.3,18.5-22.6,35.5-31.3c16.4-8.4,24.3-18.3,28.4-35.5
		c5.4-22.8,7.7-28.9,13.9-36.5c3.9-4.8,13.2-11.5,18.4-13.3c11.5-4.1,34.1-0.1,77,13.6c25.6,8.1,29.5,8.6,37.3,4.3
		c8.9-4.8,16-16.5,20.5-33.6c2-7.2,2.3-10.7,2.4-21.2c0-14.8-1.8-23.2-7.6-35.1C1985.3,1790.2,1972.6,1777.7,1969,1782.3z"/>
	<path id="structure101_label57-7_Pir-3" bar:growlevel="0" bar:type="" class="st2" d="M1831.1,1741.7c0,0.5,1.2,3.8,2.6,7.4
		c8.6,21.9,12,40.1,8.7,47.9c-1.7,4.1-6.4,9.2-10.9,11.8c-2.1,1.3-8.8,4.1-14.9,6.4c-13.2,4.9-16.1,6.6-25.4,15.6
		c-9.5,9.3-13.1,14-19.5,26.6c-8,15.6-11.1,20.4-19.6,31.1c-9.8,12.3-16.5,22.4-23.5,35.8c-3.1,5.9-7.5,12.9-9.7,15.4
		c-4.4,5-13,9.8-19.1,10.6c-2.3,0.3-3.7,1-3.7,1.7c0,0.6,4.3,5.6,9.7,10.9c14.6,14.7,27.7,33.1,34.8,49.1c1.5,3.3,3.1,6,3.7,6
		c0.6,0,1.2-4,1.5-11.1c0.8-16.6,4.5-27.9,11.2-34.1c1.3-1.3,7.2-5,12.9-8.4c13.8-7.9,19.1-12.2,23.9-18.5
		c5.3-7.2,7.2-13.8,9.4-32.7c3.7-30.8,9.1-43.4,21.1-49c8.5-4.1,46.9-10.1,63.5-10.1c11.4,0,16.3,0.9,36.5,6.7
		c30.2,8.6,39.9,8.7,47.4,0.8c6.2-6.5,9.4-19.6,8.6-35.4c-0.5-11.3-2.3-17.1-6.6-23.6c-4.4-6.5-6.7-11.3-6.7-14.9
		c0-3.6,1.4-6.5,3.2-6.5c1.3,0,1.9-3.1,0.7-3.9c-1.9-1.2-25.2-4.3-40.8-5.6c-9.6-0.8-22.6-2.4-28.8-3.7
		c-20.5-4.1-43.1-12.8-60.6-23.1C1833.8,1740.9,1831.1,1740,1831.1,1741.7z"/>
	<path class="st3" d="M1237.8,1403.8c-2.7-0.5-23.8-1.9-31.4-2.1l0,185.8c3.8,0.1,7.7-0.5,10.5-1.6c2.2-0.8,2.3-1.3,2.3-8.1
		c0-15.1,6.5-78.6,13.5-131.6c2-15,3.9-29.4,4.1-32c0.5-3.8,0.9-4.7,2.3-4.7c1.3,0,1.7-0.6,1.7-2.6
		C1240.7,1404.7,1240.2,1404.3,1237.8,1403.8z"/>
	<path id="structure108_Unlabeled-2147-1669_Unlabeled" bar:growlevel="0" bar:type="" class="st3" d="M1513.7,1798.3
		c-8.4,1-12.4,5.9-10.4,12.7c2.1,7.1,15.8,19,25.1,21.7c3.3,1,4.3,0.9,7-0.4c4.1-2,6.2-6.6,5-11.1c-1-3.8-7.3-12.3-10.4-14.4
		c-1.3-0.9-2.3-2.3-2.3-3.6c0-1.5-0.9-2.6-3.6-4c-1.9-1-4.1-1.7-4.7-1.7C1518.9,1797.6,1516.3,1798,1513.7,1798.3z"/>
	<path class="st4" d="M1260.4,1719.4c1.1-13.6,1.1-15.1-0.7-24.3c-1.9-9.7-13.2-55.6-14.1-57.1c-0.8-1.4-3.2-0.9-6.1,1.4
		c-7.6,5.8-20.6,9.3-33.1,9.3l0,31.3c0.1-0.4,0.1-0.6,0.2-0.6c0.4,0,0.9,10.3,1.2,22.7c0.4,12.5,1,28.4,1.5,35.4
		c1.2,15.6,4.4,46.6,5,47.2c0.2,0.3,2.3-0.3,4.7-1.1c8.7-3.1,16.2-4.5,23.7-4.6c8-0.1,8.3,0,16.6,6.2c2.2,1.5,2.3-0.3,1.2-9.6
		C1258.9,1764.3,1258.9,1738.9,1260.4,1719.4z"/>
	<path id="structure110_Unlabeled-2264-1688_Unlabeled" bar:growlevel="0" bar:type="" class="st3" d="M1620.7,1816.3
		c-3.4,2.2-4.8,4.4-4.8,8.2c0,9.3,14.8,19.7,22.3,15.8c4-2.1,5.8-5.3,5-9.4C1641.4,1819.3,1628.8,1811.2,1620.7,1816.3z"/>
	<path id="structure112_Unlabeled-1993-1836_Unlabeled" bar:growlevel="0" bar:type="" class="st3" d="M1377.5,1950
		c-1.3,2.5-0.8,8.5,1.4,16.6c1.8,6.5,5.4,10.4,13.7,14.7c12.2,6.3,19.4,7.7,45.2,8.2c19.2,0.4,29.8,1.8,39.1,5
		c6.8,2.3,11.7,2.3,14,0c2.5-2.5,2.3-4.2-0.9-7.2c-1.4-1.4-2.7-2.9-2.7-3.3c0-1.3-11.9-3.8-29.1-6.1c-24.3-3.3-32-4.7-37.5-6.5
		c-3.1-0.9-11.3-5.8-21.5-12.6c-9.1-6.1-17.4-11.1-18.5-11.1C1379.5,1947.8,1378.2,1948.7,1377.5,1950z"/>
	<path id="structure114_Unlabeled-2253-1853_Unlabeled" bar:growlevel="0" bar:type="" class="st3" d="M1611.6,1967
		c-1.3,5-1.3,9.9,0,14.3c0.7,2.8,1.6,3.8,4.2,4.9c4.1,1.7,15.1,2,18,0.4c3.1-1.6,4.7-6.3,4.7-13.4v-6.1l-12-2c-6.6-1.1-12.4-2-13-2
		C1613,1963.1,1612.1,1964.9,1611.6,1967z"/>
	<path class="st5" d="M1257.4,1568.4c-2.7-8.8-6.6-16.6-8.2-16.6c-0.5,0-1.5,1.1-2.2,2.4c-2.4,5.4-11.3,17.9-15.8,22.5
		c-7,7-16.1,10.8-24.9,10.8l0,60.5c6.2,0,12.4-0.4,16.2-1.3c8.3-2,15.1-5.6,21.3-11.3c6.8-6.4,10.9-13.2,13.9-22.7
		c2-6.6,2.3-9,2.3-21.8C1259.9,1577.8,1259.7,1575.8,1257.4,1568.4z"/>
	<path id="structure12_label9_LSI" bar:growlevel="0" bar:type="" class="st6" d="M1271.3,1450.7c0,3.9-3.3,25.1-6.3,41.2
		c-3.8,19.6-9.5,42.7-12.8,51.1l-2.7,7l3.2,6c12.3,23.6,10.7,56.3-3.8,74.3c-1.5,1.9-2.8,4.4-2.8,5.5s2.8,13.1,6.2,26.6
		c9.9,39.1,9.5,36.6,8.2,64.3c-1.9,38.3-0.4,55.4,6.5,71.6c12.9,30.2,31,65,36.5,70.5c3.8,3.7,25.7,17.7,27.7,17.7
		c2.5,0,1.2-2.2-6.2-9.8c-9.2-9.5-15-17.7-23.2-32.5c-7.3-13.4-9.7-19.2-13.5-32.1c-10.3-35.6-12.7-78.8-6.6-119.1
		c3.4-23,13.9-54.2,25.9-77.8l4.6-9l0.5-61.2c0.4-41.1,0.9-62.4,1.5-64.8c2.2-7.7,2.1-8-7.2-10.8c-13.5-4-21-8-28-15
		c-3.3-3.3-6.5-6.1-6.9-6.1C1271.6,1448.3,1271.3,1449.3,1271.3,1450.7z"/>
	<path id="structure13_label10_LSV" bar:growlevel="0" bar:type="" class="st7" d="M1316,1474.7c-0.3,0.7-0.9,4.4-1.4,8.4
		c-1.3,9.4-1.8,119.1-0.5,119c0.5,0,3-3.1,5.4-6.9c6.5-9.9,14.8-20.3,23.5-29l7.6-7.7l1.1-7.6c0.5-4.2,1.1-16.4,1.1-27
		c0.1-18.1,0-19.6-1.9-23.6c-4-8.8-12-16.3-24.6-23.1C1319,1473.3,1316.7,1472.7,1316,1474.7z"/>
	<path id="structure15_label12_Tu-1" bar:growlevel="0" bar:type="" class="st8" d="M1231.9,1780.4c-8,1.6-16.6,4.7-17.1,6
		c-0.7,1.8,2.4,22.6,6.1,41.2c5.6,27.4,11.7,48.2,18.4,62.1c3.4,7.1,4.9,9.2,12.8,16.7c14.2,13.8,38.7,32.1,63.1,47.3
		c29.3,18.2,27.4,16.6,56.4,45.9c28.6,28.8,38.7,37.5,59.4,51.3c25.2,16.8,50.5,28.6,74.2,34.7c15.4,4,57.6,8.9,76.2,8.9
		c11.7,0,20.5-1.6,30.1-5.5c12.8-5.1,26.3-8.7,75.2-20.1c24.2-5.7,49-11.5,55.1-13.1l11.1-3l-0.5-3.7c-1.6-11.1-30.2-25.8-50.4-26.1
		c-7.3-0.1-8.6,0.2-12.7,2.4c-2.5,1.4-6.9,5-9.8,7.8l-5.1,5.2l-11.1-5.4c-14.5-6.9-18.5-7.5-27-3.6c-10.6,5-18.8,15.5-21.6,27.6
		c-1.7,7.1-4.1,12.5-7.5,15.9c-3,3.2-4.6,3.1-7.6-0.2c-3.1-3.5-6.1-3.5-14.5,0.1c-7.2,3.1-13.1,4.1-18.3,3.1c-2.6-0.5-4.6-1.8-8-5.6
		c-4.3-4.6-5-4.9-10-5.6c-6-0.7-10.4-3-12.2-6.2c-1-1.8-1.6-2.1-4.4-1.6c-1.7,0.3-9.2,0.8-16.6,1.1c-15.3,0.6-25.2-0.3-38.1-3.8
		c-17-4.6-26.4-9.7-53.3-29.2c-6.2-4.5-15.3-11.1-20.3-14.7c-24.3-17.5-44.6-34.9-67.5-57.8c-18.6-18.6-28.7-26.8-52.2-42.4
		c-31.4-20.9-37-26.5-44.2-43.9c-3.1-7.6-3.7-10.4-2.2-10.4c1.7,0,0.9-2.5-3.1-10c-4.3-8-10.4-25.1-10.4-29c0-1.8,0.5-2.4,2.5-2.9
		c3.6-0.7,12.6,2.3,20.2,6.8c6.7,4.1,27.3,11.6,31.6,11.6c1.3,0,2.4-0.5,2.4-1.2c0-2.2-15.7-35.5-19.5-41.4
		c-5.6-8.5-9.4-10.5-18.8-10.4C1239,1779.6,1234,1780,1231.9,1780.4z"/>
	<path id="structure16_text3044_Tu-2" bar:growlevel="0" bar:type="" class="st9" d="M1237.5,1858.8c0.4,1.6,2.8,7.5,5.4,13
		c6.9,14.3,12.1,19,42.8,39.3c21.7,14.2,31.1,22,55.3,45.6c24.8,24.1,47.9,43.5,73.4,61c4.7,3.2,13.2,9.4,18.9,13.6
		c11.6,8.6,20.7,14.1,30.5,18.2c16.4,6.8,37.4,9.7,57.6,8c13.4-1.1,14.5-1.4,14.5-3.6c0-0.9,2.1-4.1,4.5-7.2c5-6.4,5.6-8.8,2.7-14.4
		c-2.2-4.2-2.3-7.5-0.5-9c2.3-2,1.4-3.4-3.6-5.9c-4.5-2.2-5.8-2.3-12.4-2c-9.8,0.5-14.6,3.2-24.1,13.1l-7.2,7.7l-6-0.5
		c-6.8-0.6-17.4-4-23.2-7.4c-2.1-1.3-6-4.8-8.6-7.8c-7.5-8.7-15.5-16.3-25.3-23.8l-9-6.8l-9.1-1.6c-13.7-2.3-24.3-6.9-30.5-13.1
		c-4.8-4.8-8.5-20.3-6-25c1.5-3,0.2-7.1-5.7-17.5c-12.2-21.4-28.5-37.6-53-52.7c-5.6-3.5-11.7-7.6-13.5-9.3c-3.5-3.2-12.2-6-30.1-10
		c-9.5-2.2-27.8-4.6-33.9-4.6h-4.4L1237.5,1858.8z"/>
	<path id="structure17_label13_Tu-2" bar:growlevel="0" bar:type="" class="st9" d="M1645.7,1996c-1.3,0.2-5.2,0.8-8.8,1.4
		c-13.4,2-23.7,6.7-31,14c-6.8,6.8-8.4,11.4-8.4,23.4c0,5.5,0.3,10.3,0.7,10.7c0.4,0.4,2.7,0.2,5.2-0.5c4.5-1.2,4.6-1.2,7.2,1.4
		c1.4,1.3,2.6,3.1,2.6,3.7c0,2.8,2.7,0.8,5.3-3.8c5.3-9.4,13.4-16.3,22.2-19c5.7-1.7,10.2-0.5,22.2,5.6c5.3,2.6,10.1,4.9,10.6,4.9
		c0.6,0,4-2.8,7.6-6.2c8.3-7.8,12.8-9.5,23.3-8.8c12.2,0.8,28.7,7.2,39.1,15c2.6,2,5.1,3.6,5.6,3.6c1.6,0,1-3.6-2.2-13
		c-5.1-15.2-5.3-15.5-11.2-18.5c-9.5-4.8-27.4-9.6-45.6-12.3C1681.5,1996.4,1650.3,1995.2,1645.7,1996z"/>
	<path id="structure18_label14_Tu-3" bar:growlevel="0" bar:type="" class="st10" d="M1675.8,1953.3c-13.2,1.9-16.9,3.1-26.6,8.5
		c-3.7,2.1-7.7,4.1-8.7,4.4c-1.9,0.6-2.1,1.3-2.1,6.9c0,7.2-1.6,11.9-4.7,13.5c-2.9,1.6-13.9,1.3-18-0.4c-2.6-1.1-3.5-2.1-4.2-4.9
		c-1.3-4.4-1.3-9.7,0-14c0.5-2,0.7-3.7,0.5-4c-0.6-0.6-22.4-5.6-31.3-7.1c-6.9-1.2-8.4-1.2-13.9,0.2c-3.4,0.7-12.1,1.7-19.3,2.1
		c-15.9,0.9-20.3,2.3-31.2,10.5c-8.7,6.5-16.6,10.6-23.7,12.2c-2.6,0.5-4.9,1.6-5.1,2.3c-0.3,0.6,0.8,2.3,2.3,3.8
		c3.2,3.1,3.5,4.8,1,7.3c-2.3,2.3-7.2,2.3-14,0c-8.4-3-18.9-4.4-35.9-5c-13.2-0.5-15.8-0.5-15.8,0.6c0.1,0.7,3.3,3.7,7.4,6.7
		c7.9,5.9,18.7,16.2,24.8,23.7c2.2,2.6,6,5.9,8.6,7.4c6.8,4,18.1,7.4,24.8,7.5c5.6,0.2,5.8,0.1,8-3c4.4-5.8,11.2-11.7,17.1-14.6
		c5.1-2.5,6.9-3,12.3-3c7.3,0.1,10.7,1.5,18.7,8.1c4,3.2,5.8,5.6,8.7,11.5c2,4.1,4.4,10.6,5.4,14.6c2,8,4.3,10.8,9.9,11.8
		c5.9,1.2,15.2-2.8,23.7-9.9l3.5-3l-1.1-6.8c-1.2-8.2-0.1-15.8,3.2-22.5c10.6-20.8,46.9-28.5,95.8-20.3c11.9,2,29,6.6,36.3,9.7
		c2.4,1.1,4.8,1.9,5.2,1.9c1.8,0,0.6-3.2-4.1-11.2c-8.9-15.1-20.2-28.8-33.9-41.5C1692.3,1950.5,1693.5,1950.6,1675.8,1953.3z
		 M1582.5,2027c1.7,1.1,3.6,3.3,4.4,5.2c1.3,3,1.3,3.7-0.2,8.1c-1.6,5.3-6.8,11.6-10,12.4c-3.1,0.8-8.1-1.3-10.8-4.4
		c-1.9-2.2-2.3-3.4-1.9-6.3c0.6-4.5,5.8-13.1,9.2-15.1C1576.6,2024.7,1578.8,2024.7,1582.5,2027z"/>
	<path id="structure19_label15_IEn" bar:growlevel="0" bar:type="" class="st11" d="M1713.6,1784.1c-12.2,17.3-25.5,31.9-36.9,40.9
		l-3.5,2.8l1.6,6.4c1.2,4.6,1.5,8.4,1.3,13.4c-0.4,6-1,8-4.6,15.1c-5.9,12-6.4,14-4.3,21.5c3.2,11.2,4,19.6,3.4,32.7l-0.4,12.2
		l10.6,10.6c11.8,11.9,12.2,12.1,22.3,9.4c10.8-2.9,16.7-8.9,25.7-25.9c6.1-11.7,13.6-23,23-34.7c7.7-9.5,12.7-17.3,12.7-19.3
		c0-0.9-1.8-1.6-6.2-2.3c-29.2-4.5-40.7-32.7-35.5-86.9c0.5-4.9,0.4-6-0.7-6C1721.4,1774.1,1717.5,1778.7,1713.6,1784.1z"/>
	<path id="structure20_label16_DEn" bar:growlevel="0" bar:type="" class="st12" d="M1748.5,1636.5c-7.4,24.4-9.1,34.8-10.1,62.6
		c-0.8,22.1-2.6,41.6-4.5,50.1c-1.3,5.6-3,9.5-6.1,14.1c-3.9,5.7-5.1,15.6-5.1,40.3c0,17.9,0.3,21.2,2.1,28.3
		c5.6,22.1,16.8,33.4,34.6,34.5l7.5,0.4l4-8.3c6.7-13.7,14.9-24.4,25.2-32.8c6.9-5.6,9.2-6.8,20.3-10.9
		c18.9-6.8,24.9-11.8,26.8-22.2c1.4-7.7-2.3-24.2-10-44.1c-4.1-10.7-4.5-11.3-8.6-14c-9.5-6.3-25.3-18.4-31.3-24.1
		c-14.5-13.7-21.7-26.8-23.8-43.5c-0.4-3.2-1-4.3-3.2-5.6c-6.3-3.6-11.6-14.9-12.3-26.6c-0.4-4.9-0.9-7.4-1.6-7.4
		C1751.8,1627.4,1750,1631.5,1748.5,1636.5z"/>
	<path id="structure21_label20_AIV" bar:growlevel="0" bar:type="" class="st13" d="M1813.1,1626.7c-15.8,16.3-32.7,31.6-38.3,34.6
		c-5.7,3-5.9,4-3.2,14.9c5.3,20.8,19.4,35.6,58,61.6c12.3,8.3,35.6,19.8,48.5,24c12.2,4.1,28.6,7.4,42.5,8.6
		c41.8,3.8,59,7,85.9,16.4c12.1,4.2,31.7,13.4,38.7,18.2c2.6,1.8,5.3,3.2,6,3.2c1.3,0,1.4-0.5,3.2-10.3c1.4-8.8,5.8-21.9,10.3-31.9
		c2.2-4.7,4-8.7,4-9.1c0-0.4-3.8-1.6-8.3-2.7c-38.6-9.4-78.2-23.3-109.6-38.4c-28.6-13.8-42-22.1-61.8-38.5
		c-11.8-9.8-42.3-39.6-54-52.9c-4.8-5.3-9.1-9.5-9.6-9.5C1824.8,1614.9,1819.3,1620.3,1813.1,1626.7z"/>
	<path id="structure22_label21_AID" bar:growlevel="0" bar:type="" class="st14" d="M1856.8,1567.2c-0.6,1.2-3,5.1-5,8.8
		c-4.9,8.6-13.2,21-20,29.9c-2.9,3.8-5.2,7.4-5.2,8c0,2.7,35.6,39.7,53.5,55.4c6.5,5.7,16.2,13.7,21.6,17.7
		c28.4,21.4,75.4,42.8,128.2,58.5c13.9,4.1,35.4,9.5,38.1,9.5c1.7,0,2.9-1.3,5.6-6.1c2-3.3,9.4-15.4,16.4-26.8
		c7.1-11.4,13-21.4,13-22.1c0-1-2.8-2.1-9.6-3.9c-59.2-15.3-126.9-48.9-186.6-92.6c-12.9-9.4-29.2-22.5-38.4-30.9
		c-4.5-4.1-8.6-7.5-9.2-7.5C1858.5,1565.3,1857.5,1566.2,1856.8,1567.2z"/>
	<path id="structure23_label22_DI" bar:growlevel="0" bar:type="" class="st15" d="M1878.5,1522.8c-0.9,2.8-5.4,12.9-10.1,22.3
		c-4.7,9.4-8.6,17.9-8.6,18.7c0,1.6,17.8,17.5,33.3,29.4c44.6,34.6,95.7,64.3,144.9,84.2c22.1,9,63.1,21.8,66.1,20.7
		c2-0.8,31.1-51.2,31.1-53.8c0-0.7-3.1-2.3-7.5-3.9c-12.6-4.3-44.4-17.1-61.8-24.8c-59.4-26.4-140.8-69-177.2-93.1
		c-4.2-2.8-7.8-5-8.1-5C1880.4,1517.6,1879.4,1519.9,1878.5,1522.8z"/>
	<path id="structure24_label23_VCl" bar:growlevel="0" bar:type="" class="st16" d="M1836,1502.3c-9.3,3.1-11.4,4.9-21.2,18.9
		c-23,32.7-48.2,72.4-54.5,86.1c-4,8.6-5.7,16.2-5.7,25.6c0,9.4,1.8,15.9,5.9,22.1c5.6,8.2,9.8,9.4,16.7,4.8
		c4.8-3.2,28.6-25.3,39-36.1c18.4-19.3,33.6-41.9,49.9-74.5l5.6-11.3l-0.4-10.8c-0.3-9.7-0.6-11.4-2.8-15.6
		c-2.6-5-6.4-8.4-11.3-10.1C1852.6,1499.9,1842.1,1500.4,1836,1502.3z"/>
	<path id="structure25_label24_GI" bar:growlevel="0" bar:type="" class="st17" d="M1883.8,1464.6c1.3,12.9,0.8,30.1-1,41.6
		l-1.7,10.7l2.4,1.9c3.7,3,23,14.8,39.3,24.1c49.1,28.1,112.9,59.8,161.6,80.4c20,8.5,48.9,19.4,51.2,19.4
		c1.7,0,27.5-50.2,27.5-53.6c0-0.6-4.8-2.8-10.5-4.9c-30.8-11.2-75.7-29.8-113.7-47.3c-43.6-20.1-112-55.2-142.3-72.9
		c-6.2-3.7-11.8-6.7-12.4-6.7C1883.5,1457.3,1883.3,1459,1883.8,1464.6z"/>
	<path id="structure26_label25_S1ULp" bar:growlevel="0" bar:type="" class="st18" d="M2194.2,1154.1
		c-110,32.8-279.9,87.6-337.8,109c-14.3,5.3-14.8,5.5-14.3,7.8c0.2,1.3,2.4,10.3,4.9,19.9c5.5,20.8,11.6,48.2,15,67.1
		c1.3,7.4,3.3,16.7,4.5,20.7c5.2,17.8,12.3,50.2,14.9,69l1.2,7.8l11.3,6.8c52.8,31.4,146.1,76.9,217.9,106.1
		c14,5.8,50.8,19.5,51.8,19.5c0.4,0,3.5-6.4,6.8-14.2c32.9-77.5,53.1-168.1,58.4-263c1.4-23.3,0.5-73.8-1.4-92.1
		c-2.7-25.7-11.8-70-14.2-69.8C2212.7,1148.7,2204.1,1151.1,2194.2,1154.1z"/>
	<path id="structure27_label26_DCl" bar:growlevel="0" bar:type="" class="st19" d="M1865.9,1395.8c-1,16.9-4.9,35.2-11.5,53.7
		c-4.2,12.1-14.7,33.7-21.3,44.5c-2.6,4.1-4.7,8.2-4.7,8.9c0,1.5-0.2,1.5,10.3-1.4c7.7-2.2,11.3-2.3,17.5-0.4
		c9.6,2.8,16.3,13.5,16.3,26.1c0,6.8,1.8,6.3,4.7-1.7c10.7-28.6,9-65.3-6-129.1C1868,1383,1866.6,1382.9,1865.9,1395.8z"/>
	<path id="structure28_label27_S1DZO" bar:growlevel="0" bar:type="" class="st20" d="M2183,1094.7
		c-45.8,19.4-268.6,107.4-338.4,133.5c-6.2,2.3-11.8,4.6-12.5,4.9c-1.1,0.7-0.5,3.5,3.4,16.5c2.6,8.6,4.9,16.1,5.1,16.8
		c0.5,1.8,3.1,1.1,25.1-6.8c62.5-22.7,248.8-82.6,328.8-105.8l19.3-5.6l-0.6-3.1c-0.5-3.1-13-40.7-16.4-49.9
		C2194.8,1090,2194.2,1089.9,2183,1094.7z"/>
	<path id="structure29_label28_S1J" bar:growlevel="0" bar:type="" class="st21" d="M2053.5,911.7c-30,27.5-47.7,44.2-162.2,153.6
		c-34.3,32.8-80.2,75.9-89.7,84.2c-3.1,2.7-5.6,5.4-5.6,6.1c-0.1,0.7,1.6,3.9,3.6,7.1c8,12.7,16.8,31.9,25.7,56
		c4.6,12.7,4.9,13.1,7.3,13c5.9-0.4,281.6-108.4,351.1-137.6c5.6-2.3,10.1-4.8,10.1-5.4c0-0.7-2.6-7.5-5.8-15.2
		c-23.4-56.3-52.3-107.1-81.7-143.6c-15.8-19.8-30.2-36-31.8-36C2073.7,893.9,2064.4,901.9,2053.5,911.7z"/>
	<path id="structure30_label29_S1FL" bar:growlevel="0" bar:type="" class="st22" d="M1874,739.3c-1.4,3.9-167.4,261.7-195.3,303.4
		c-5.9,8.9-11,16.8-11.2,17.6c-0.3,0.9,0.9,2.2,3.5,3.6c27,15,71.8,43.4,90.7,57.5c4.7,3.5,9,6.4,9.5,6.4c0.5,0,5.4-4.8,10.8-10.5
		c18.8-20.3,52.7-56.3,124.6-132.1c65.7-69.3,113.7-120.4,122.8-130.8c2.8-3.1,3.3-4.2,2.6-5.4c-1.6-2.5-26.1-24.8-40.9-37.1
		c-34.4-28.7-67.7-50.9-101.8-68C1877.8,738.1,1874.8,737.2,1874,739.3z"/>
	<path id="structure31_label30_CPu" bar:growlevel="0" bar:type="" class="st23" d="M1565.3,1126.6c-14.7,2.6-27.1,8.1-44.7,19.7
		c-14.5,9.5-18.5,13.3-26.4,25.2c-13.2,19.6-21.7,31.2-39.4,54c-23,29.6-40.2,52.6-44.4,59.6c-5.4,9-11.1,21.9-15.3,34.6
		c-14.1,42.3-20.2,93.9-23.5,198.7c-0.3,8.6-0.7,20.9-1,27.2c-0.4,9.5-0.3,11.5,0.7,11.5c5.6,0,44.1,23.2,69.1,41.7
		c35.6,26.3,98.9,87.4,125.8,121.4c25.9,32.9,34.7,59.8,27.2,83.8c-1.1,3.4-1.8,6.8-1.6,7.6c0.3,1.3,20.1,9.2,23.2,9.3
		c0.7,0,1.9-0.8,2.4-1.8c0.6-1,2.4-2.4,4.1-3.2c8.2-4.2,20,4.1,21.9,15.5c0.5,3.5,0.8,3.8,5.3,5.1c6.9,2.3,8.3,2.1,9-1.3
		c0.3-1.5,1.8-4,3.2-5.5c2.6-2.5,3.2-2.7,7.2-2.3l4.4,0.5l9.8-13.2c19.9-26.9,34.2-48.4,38.1-57.6c2.2-5,2.8-9.6,6.2-45.2
		c3.8-38.9,5.9-57.4,8.6-73.7c3.7-22.4,6.5-30.7,22-64.9c31.8-70.4,43.5-108.8,48.2-158.4c1.9-19.8,1.4-68.8-0.8-89.1
		c-7.6-67.2-19.7-99.9-47.3-127.7c-15.1-15.2-34-27.8-64.1-42.8c-42.1-21.1-75.2-30.2-107.5-30.1
		C1578.4,1125.3,1569.2,1125.9,1565.3,1126.6z"/>
	<path id="structure32_label31_M1" bar:growlevel="0" bar:type="" class="st24" d="M1531.4,641.6c0,0.9-1,13.1-2.3,27.3
		c-4.7,54.1-15.5,200.2-19.8,267.8c-1.2,19.3-2.4,37.6-2.6,40.7l-0.5,5.5l5.8,1c15.1,2.7,30.6,8.5,49.5,18.7
		c26.8,14.6,49.7,27.2,75.5,41.9c14.8,8.4,27.5,15.4,28.3,15.6c1.5,0.4,3.3-2.2,29.2-41.5c50.3-76.8,179.7-278.9,179.7-280.7
		c0-0.7-2.3-2.4-5.1-3.7c-88.2-41.1-177.4-67-310.3-89.5c-14.3-2.5-26.4-4.5-26.7-4.5C1531.6,640.1,1531.4,640.8,1531.4,641.6z"/>
	<path id="structure33_label32_M2" bar:growlevel="0" bar:type="" class="st25" d="M1405.4,633.9c-51.5,3.7-97.1,15.9-127.8,34.5
		c-10.6,6.4-16.1,10.5-16.2,12.2c0,1.5-0.4,0.9,32.5,51.4c72,110.7,162.3,245.9,172.4,258.2c0.2,0.2,2.7-0.7,5.6-2
		c7.7-3.5,15.8-5.1,25.5-5.1h8.6l0.6-10.6c4-67.6,20.2-286.8,23.9-323.7c0.4-4.4,0.7-8.2,0.5-8.3c-1.2-1.2-37.5-5.2-58.6-6.6
		C1456,632.8,1420.6,632.8,1405.4,633.9z"/>
	<path id="structure34_text3042_Cg1" bar:growlevel="0" bar:type="" class="st26" d="M1253.3,687.5c-18.4,19.7-36.9,53.6-44.3,81.4
		c-2,7.4-2,8.5-2.3,88.2c-0.2,44.5-0.1,80.8,0.2,80.8c0.3,0,18.2,5.7,39.9,12.5c105.9,33.8,191.1,60.4,192.8,60.4
		c0.6,0,3.8-2.5,7-5.5c3.3-3.1,9-7.5,12.6-10c3.5-2.4,6.5-4.8,6.5-5.3c0-0.5-1.2-2.5-2.5-4.3c-14.5-18.7-136.3-201.7-193.7-291
		c-4.7-7.4-9-13.3-9.5-13.3C1259.3,681.5,1256.3,684.2,1253.3,687.5z"/>
	<path class="st26" d="M1206.4,937.8L1206.4,937.8l0-76.8c0-5.7,0-11.1,0-16.3L1206.4,937.8z"/>
	<path id="structure36_text3040_Cg2" bar:growlevel="0" bar:type="" class="st27" d="M1206.5,1060.2c0,81.9,0.4,123.8,1,128.5
		c1.7,12.7,6.8,22.1,15.7,29.3l4.1,3.2l-4,2.3c-5.5,3.2-7.4,6.3-6,10c0.5,1.5,1,3.9,1,5.2c0,3.3-4.8,8.6-8.6,9.3
		c-2.3,0.4-3.1,1-3.1,2.3c0,1.7,0.4,1.8,6.1,1.2c7.1-0.7,7.4-0.9,7.4-3.5c0-3.8,5.6-11.5,9.9-13.8c7.6-3.8,17.6-2,22.9,4.3
		c1.3,1.4,3.1,2.6,4.1,2.6c2.4,0,15.8-5.2,24.3-9.5c15.8-7.9,42.8-30.7,73.9-62.2c21.6-22,31.7-35.8,43.8-60.2
		c7.2-14.6,10.9-24.3,17.4-45.4c7.6-24.9,11.6-34.6,19.3-45.7c4.1-5.9,4.7-7.4,2.8-7.4c-1.4,0-62.9-19.2-154.5-48.3
		c-39.9-12.7-73.5-23.2-74.9-23.5l-2.5-0.4L1206.5,1060.2L1206.5,1060.2z"/>
	<path class="st27" d="M1206.4,1250v1.1c0.1-0.2,0.1-0.4,0.1-0.7C1206.5,1250.2,1206.4,1250.1,1206.4,1250z"/>
	<path id="structure38_label36_LV" bar:growlevel="0" bar:type="" class="st28" d="M1360.5,1345.4c-8.2,4.5-17.3,12.8-19.8,18.1
		c-5.7,12.4-6.1,35.1-1.2,60c1.6,7.9,4.9,23.1,7.3,33.8c9.5,42.4,10,45.6,9.9,69.1v21l2-0.3c4.2-0.5,4.6-4.6,5.2-64.6
		c0.6-55.1,0.6-55.4,3.4-76.1c1.5-11.4,3.9-26.1,5.1-32.8c2.6-13.9,3-25.7,0.8-28.7C1371.4,1342.2,1366.3,1342.3,1360.5,1345.4z"/>
	<path id="structure39_label37_LSD" bar:growlevel="0" bar:type="" class="st29" d="M1322.6,1412.7c-2.3,1.7-6.8,4-10.2,5
		c-8.4,2.7-22.9,2.2-33.5-1.3c-4-1.3-7.5-2.3-7.8-2.3c-1,0-0.9,10.5,0.2,20.7c2,18.3,9.5,25.6,34.8,34.1c16.7,5.6,30.2,13,37.5,20.7
		c2.9,3.1,5,3.6,5,1.4c0-0.8-3.9-15.1-8.6-31.8c-4.9-17.6-8.9-33.5-9.4-37.9C1328.9,1407.6,1329,1407.8,1322.6,1412.7z"/>
	<path id="structure3_label0_AcbC" bar:growlevel="0" bar:type="" class="st30" d="M1368.6,1559.2c-2.7,3.3-2,44.9,1.4,78.3
		c5.6,55.7,14.4,92.3,31.5,130.5c17.2,38.5,39.5,59.5,82.4,77.5c17.1,7.2,21.8,8.2,37.2,8.1c12.1,0,14.4-0.3,21.6-2.5
		c4.5-1.3,12-4.3,16.7-6.6c7.4-3.5,9.7-5.3,17.1-12.8c7.1-7.1,9.4-10,12.4-16.3c5.4-11.1,6.8-17.8,6.2-31.5
		c-0.6-17.6-4.9-28.8-18.5-49.1c-17.4-25.9-51.8-62.4-101.8-107.8c-23.8-21.7-59.1-46.9-87.4-62.4
		C1376,1558.4,1370.5,1556.9,1368.6,1559.2z M1525.5,1747.9c4,1,9.1,2.6,11.5,3.6c9.8,4.2,22.8,15.3,29.3,25.1
		c3.7,5.5,4.7,12.2,3,18.9c-1.3,4.6-5.8,9.9-9.7,11.5c-4.7,2-13.4,1.5-20.5-1.1c-8.7-3.2-11.3-3.6-11.3-1.9c0,0.7,1,2,2.3,2.8
		c3.2,2.1,9.5,10.6,10.4,14.4c1.3,4.5-0.8,9.1-5,11.1c-2.7,1.3-3.7,1.3-7,0.4c-9.3-2.7-23-14.6-25.1-21.7
		c-2.1-6.8,2.9-12.6,10.7-12.6c5.4,0,4.9-1.6-2.3-6.3c-9-5.9-18.7-15.5-21.6-21.3c-2.3-4.7-2.3-5.3-1.3-9.2
		C1492.6,1748.2,1505.9,1743.2,1525.5,1747.9z"/>
	<path class="st31" d="M1865.3,1379.4c-1.8-15.4-9-50.7-16.3-80.1c-15.8-63.3-34-112.9-51.5-139.8c-13.4-20.7-26.3-32.3-62.7-56.6
		c-23.2-15.6-98.1-59.2-150.8-87.9l-22.4-12.2h-6.5c-3.5,0-11.6,0.5-17.9,0.9c-26.6,2.2-46.4,8.4-62.5,19.5
		c-19.7,13.7-23.2,18.4-46.4,61.9c-19.3,36.3-23.2,43-32.9,56.7c-8.4,11.8-18.7,23.5-32.4,36.9c-22.8,22.1-31.7,28.3-69.7,47.3
		c-28.2,14.1-44.4,19.7-70.6,24.4c-6.2,1.1-11.3,1.7-16.3,1.7l0,150c12,0.1,25.3,0.8,34.3,2.1c10.7,1.6,19.7,4.1,27.9,8
		c11.4,5.2,18.4,6.8,30.6,6.8c12.6-0.1,18.7-2.1,25.4-8.3l4.3-4.1l-0.3-14.9c-0.2-12.9,0.1-15.6,1.5-19.4c2.7-7,7-13,18-24.6
		c20.8-22.1,36.4-41,73-88.8c56.5-73.9,75.6-96.2,93.2-108.5c9.9-7,25.3-15.8,32.7-18.8c35-13.9,82.3-7,140.1,20.4
		c23.2,11.1,43.7,23.5,59.2,36c30.2,24.4,46.8,57.1,54.5,107.4c8.6,55.4,9,103.1,1.4,148.1c-6.1,36-16.9,67.6-44.1,128.7
		c-6.8,15.3-13.8,31.9-15.5,37c-6.3,18.1-9.3,38.5-16.4,112c-1.3,13.1-2.7,26-3.1,28.6c-1.5,8.7-12.8,27.4-33.7,56
		c-8.5,11.4-9.9,14.4-7.4,14.4c1.6,0,15-14,22.4-23.6c11.4-14.8,26-37,27.7-42.4c2.7-8.3,4.3-23.5,5.3-48.8
		c1.1-27.1,2.4-37.6,6.7-54.4c9.5-37.5,19.1-54.7,77.8-140.5c17.5-25.6,26.2-42.6,34-66.2C1863.2,1422,1867.2,1394.8,1865.3,1379.4z
		"/>
	<path id="structure4_label1_AcbSh" bar:growlevel="0" bar:type="" class="st32" d="M1342,1567.2c-15.2,15.8-29,36.1-38.1,56.2
		c-5.1,11.3-11.8,28.9-15,39.9l-2.3,7.4l1.7,7.9c3.4,15.8,6.4,38.9,8.1,62.3c1.4,18.1,3.2,32.7,6.8,52.4c1.7,9.2,3.1,19,3.1,21.6
		c0,6.6-2.3,13.6-5.4,17.3c-1.5,1.6-2.7,3.6-2.7,4.3c0,1.7,10.3,19.8,15.6,27c12.8,18,36.6,37,53.8,42.9
		c18.4,6.4,26.8,12.1,36.8,25.3c9.9,13,19.5,19.7,32.9,23.1c5.3,1.3,10,1.5,31.9,1.3c19.7-0.2,27.4,0.1,33.3,1.2
		c16.9,3,25.2,0.4,25.2-8.1c0-7.8,5.1-15.4,12.2-18.1c3.6-1.4,5-1.4,12.5-0.5c11.7,1.4,20.7,1.3,23.8-0.3c1.4-0.7,4.7-4.2,7.3-7.8
		c8.7-12.1,18.4-19.6,25.2-19.6c3.9,0,9.8,2.5,14.8,6.2c4.7,3.5,13.8,14.1,18.3,21.2c2.8,4.4,6.1,14.5,7.5,23
		c0.6,3.9,1.5,6.3,2.2,6.3c0.6,0,3.4-1.1,6.2-2.3c3.6-1.6,9.1-2.9,19-4.2c7.6-1.1,13.9-2.3,13.9-2.6s-2.3-2.8-5.1-5.4
		c-2.8-2.6-10.3-10.4-16.6-17.4c-10.3-11.3-11.9-13.3-14.1-19.4c-6.1-15.8-6.1-27.6-0.1-58.9c1.1-5.4,1.6-10.1,1.2-10.4
		c-1.1-1-9.3-3.6-11.2-3.6c-0.9,0-2.1,0.8-2.6,1.8c-3.2,6.1-12.9,5.1-20.5-2.2c-3.9-3.6-5.6-6.8-5.6-10.7v-3l-11.9-4.2
		c-6.6-2.3-12.3-4.2-12.9-4.2c-0.4,0-2,2.2-3.3,4.8c-10,19.1-32.9,33.3-59.3,36.8c-15.5,2.1-32.2-2.2-57.1-14.4
		c-22.4-11.1-35.4-20.5-47.2-34.1c-13.3-15.4-25.3-38.9-36.4-71.4c-12.7-37.3-21.3-99.1-21.3-153c0-12.1-0.4-20.8-0.8-21.2
		c-0.5-0.3-4.2-0.7-8.3-1.1l-7.3-0.5L1342,1567.2z"/>
	<path id="structure5_label2_LAcbSh" bar:growlevel="0" bar:type="" class="st9" d="M1342,1567.2c-15.2,15.8-29,36.1-38.1,56.2
		c-5.1,11.3-11.8,28.9-15,39.9l-2.3,7.4l1.7,7.9c3.4,15.8,6.4,38.9,8.1,62.3c1.4,18.1,3.2,32.7,6.8,52.4c1.7,9.2,3.1,19,3.1,21.6
		c0,6.6-2.3,13.6-5.4,17.3c-1.5,1.6-2.7,3.6-2.7,4.3c0,1.7,10.3,19.8,15.6,27c12.8,18,36.6,37,53.8,42.9
		c18.4,6.4,26.8,12.1,36.8,25.3c9.9,13,19.5,19.7,32.9,23.1c5.3,1.3,10,1.5,31.9,1.3c19.7-0.2,27.4,0.1,33.3,1.2
		c16.9,3,25.2,0.4,25.2-8.1c0-7.8,5.1-15.4,12.2-18.1c3.6-1.4,5-1.4,12.5-0.5c11.7,1.4,20.7,1.3,23.8-0.3c1.4-0.7,4.7-4.2,7.3-7.8
		c8.7-12.1,18.4-19.6,25.2-19.6c3.9,0,9.8,2.5,14.8,6.2c4.7,3.5,13.8,14.1,18.3,21.2c2.8,4.4,6.1,14.5,7.5,23
		c0.6,3.9,1.5,6.3,2.2,6.3c0.6,0,3.4-1.1,6.2-2.3c3.6-1.6,9.1-2.9,19-4.2c7.6-1.1,13.9-2.3,13.9-2.6s-2.3-2.8-5.1-5.4
		c-2.8-2.6-10.3-10.4-16.6-17.4c-10.3-11.3-11.9-13.3-14.1-19.4c-6.1-15.8-6.1-27.6-0.1-58.9c1.1-5.4,1.6-10.1,1.2-10.4
		c-1.1-1-9.3-3.6-11.2-3.6c-0.9,0-2.1,0.8-2.6,1.8c-3.2,6.1-12.9,5.1-20.5-2.2c-3.9-3.6-5.6-6.8-5.6-10.7v-3l-11.9-4.2
		c-6.6-2.3-12.3-4.2-12.9-4.2c-0.4,0-2,2.2-3.3,4.8c-10,19.1-32.9,33.3-59.3,36.8c-15.5,2.1-32.2-2.2-57.1-14.4
		c-22.4-11.1-35.4-20.5-47.2-34.1c-13.3-15.4-25.3-38.9-36.4-71.4c-12.7-37.3-21.3-99.1-21.3-153c0-12.1-0.4-20.8-0.8-21.2
		c-0.5-0.3-4.2-0.7-8.3-1.1l-7.3-0.5L1342,1567.2z"/>
	<path id="structure6_label3_VP" bar:growlevel="0" bar:type="" class="st33" d="M1599.7,1906.3c-4.8,3.1-11.8,10.3-17,17.5
		c-5.2,7.2-9.5,9.1-18.8,8.3c-15.6-1.3-21.6-1.6-23.8-1.1c-5.5,1.3-11.4,9.3-11.4,15.1c0,3.9-2.5,8.6-5.7,11
		c-2.1,1.5-3.8,1.8-9.6,1.7c-4.4-0.1-7.2,0.3-7.2,0.8c0,0.4,0.8,2.1,1.8,3.4c1,1.4,2.1,3.8,2.3,5.3c0.7,3.6,2.1,3.5,7.3-0.5
		c9.4-7.2,18.7-10.3,31.3-10.3c4.4,0,12.2-0.6,17.3-1.5l9.1-1.5l11.6,2.4c6.3,1.3,15.2,3.2,19.6,4.2c14.2,3.1,30.2,5.5,32.2,4.9
		c1.1-0.3,3.9-1.4,6.3-2.4l4.2-1.9v-4.6c0-5.3-1.8-13.3-4.5-20.6c-3.6-9.7-16.8-25.3-25.6-30.4
		C1612.7,1902.6,1605.4,1902.6,1599.7,1906.3z"/>
	<path id="structure72_label75_DP" bar:growlevel="0" bar:type="" class="st34" d="M1240.3,1415.1c-3.2,53.5-9.5,125.4-13.7,158.8
		c-0.5,4.2-0.4,4.8,1,4.8c3.5,0,14.2-14.4,21.1-28.3c2-4.1,5-12.3,6.8-18.5c4.1-14,10.4-45.8,13.5-66.9c2.2-14.7,2.3-17.5,1.7-34.1
		l-0.6-18.1l-4.9-2.2c-5-2.3-18.4-5.7-22.1-5.7C1240.9,1405.1,1240.9,1405.3,1240.3,1415.1z"/>
	<path id="structure73_label76_cg" bar:growlevel="0" bar:type="" class="st35" d="M1485,984.3c-8.4,1.5-14.5,4-22.3,8.9
		c-17.9,11.2-30.4,26.3-38,46c-1.7,4.4-5.4,15.6-8.1,24.8c-2.8,9.2-6.9,21.3-9.2,27c-9,22.9-23.7,47.3-39.2,65.3
		c-9.3,10.8-45.5,45.5-56.6,54.6c-6.9,5.5-8.6,7.9-5.4,7.9c1.8,0,20.7-10.6,29.3-16.4c13.4-9.1,38.2-32.9,51.2-49.3
		c13-16.4,19.2-26.2,34.5-54.9c27-50.8,32-58.3,44.1-68.1c22.4-18,44.8-25.7,78.6-27c9.7-0.4,13.7-0.8,13.7-1.6
		c0-0.6-4.3-3.2-9.6-5.7C1524.9,985,1502.9,981,1485,984.3z"/>
	<path class="st31" d="M1865.3,1379.4c-1.8-15.4-9-50.7-16.3-80.1c-15.8-63.3-34-112.9-51.5-139.8c-13.4-20.7-26.3-32.3-62.7-56.6
		c-23.2-15.6-98.1-59.2-150.8-87.9l-22.4-12.2h-6.5c-3.5,0-11.6,0.5-17.9,0.9c-26.6,2.2-46.4,8.4-62.5,19.5
		c-19.7,13.7-23.2,18.4-46.4,61.9c-19.3,36.3-23.2,43-32.9,56.7c-8.4,11.8-18.7,23.5-32.4,36.9c-22.8,22.1-31.7,28.3-69.7,47.3
		c-28.2,14.1-44.4,19.7-70.6,24.4c-6.2,1.1-11.3,1.7-16.3,1.7l0,150c12,0.1,25.3,0.8,34.3,2.1c10.7,1.6,19.7,4.1,27.9,8
		c11.4,5.2,18.4,6.8,30.6,6.8c12.6-0.1,18.7-2.1,25.4-8.3l4.3-4.1l-0.3-14.9c-0.2-12.9,0.1-15.6,1.5-19.4c2.7-7,7-13,18-24.6
		c20.8-22.1,36.4-41,73-88.8c56.5-73.9,75.6-96.2,93.2-108.5c9.9-7,25.3-15.8,32.7-18.8c35-13.9,82.3-7,140.1,20.4
		c23.2,11.1,43.7,23.5,59.2,36c30.2,24.4,46.8,57.1,54.5,107.4c8.6,55.4,9,103.1,1.4,148.1c-6.1,36-16.9,67.6-44.1,128.7
		c-6.8,15.3-13.8,31.9-15.5,37c-6.3,18.1-9.3,38.5-16.4,112c-1.3,13.1-2.7,26-3.1,28.6c-1.5,8.7-12.8,27.4-33.7,56
		c-8.5,11.4-9.9,14.4-7.4,14.4c1.6,0,15-14,22.4-23.6c11.4-14.8,26-37,27.7-42.4c2.7-8.3,4.3-23.5,5.3-48.8
		c1.1-27.1,2.4-37.6,6.7-54.4c9.5-37.5,19.1-54.7,77.8-140.5c17.5-25.6,26.2-42.6,34-66.2C1863.2,1422,1867.2,1394.8,1865.3,1379.4z
		"/>
	<path id="structure75_label78_lo" bar:growlevel="0" bar:type="" class="st36" d="M1899.6,1933.4c-6.8,1-12.3,3.6-20.1,9.5
		c-13.2,10.3-24.7,22.9-31,34.4c-4.8,8.5-16.3,19.7-31,29.9c-17.6,12.1-26.1,19-31.9,25.3c-5.5,6.1-6.7,9.5-2.8,8.6
		c7.1-1.8,65.3-30.7,98.1-48.8c39.7-21.9,75.4-43.3,75.9-45.6c0.4-1.9-5.8-6.3-11.9-8.6C1933.9,1933.8,1912.1,1931.7,1899.6,1933.4z
		"/>
	<path id="structure76_label79_aca" bar:growlevel="0" bar:type="" class="st37" d="M1504.1,1747.1c-13.1,3.3-19.1,16.1-12.2,26.4
		c8.1,12.2,33.7,29,51.2,33.5c15.5,4.1,25.1-2,26.6-16.4c0.5-4.8,0.3-6.1-1.8-10.7c-3.3-7.3-17.5-21.1-26.2-25.7
		C1530.7,1748.3,1512.7,1744.9,1504.1,1747.1z"/>
	<path id="structure77_label81_ICj" bar:growlevel="0" bar:type="" class="st38" d="M1542.8,2023.1c-1.2,1.2-0.6,6.4,1.2,10.4
		c1.7,3.7,1.7,4.5,0.6,7.1c-0.7,1.6-3,4.9-5,7.3c-4.8,5.6-4.9,8.6-0.6,12.9c2.3,2.3,3.9,3.1,6.1,3.1c5.8,0,9.3,1.6,13.9,6.7
		c3.9,4.1,5.4,5,8.7,5.5c4.9,0.7,11.2-0.6,19.6-4.2c3.3-1.4,6.7-2.5,7.6-2.5c0.8,0,2.8,1.4,4.4,3.2c3.7,4,5.3,3.8,9-1.1
		c5.8-7.5,7.3-18.4,3.3-23.7c-3.4-4.6-7.4-3.8-17.4,3.6c-12.7,9.4-20.3,11.9-26.7,8.6c-3.9-2-5.2-4.3-7.4-12.6
		C1556.3,2031.9,1546.9,2019,1542.8,2023.1z"/>
	<path id="structure78_label82_ICjM" bar:growlevel="0" bar:type="" class="st39" d="M1283.6,1684.1c-4.6,23.7-5.9,66.7-3,89.1
		c2.8,20.6,8.9,45.5,14,57c2.3,5.3,3.8,5.2,7.6-0.1c2.5-3.6,2.8-4.6,3.1-13.1c0.3-7.2-0.2-11.7-2-20.9c-3.4-17.9-5.8-35-7.3-55.4
		c-2-25.5-5.8-55.5-8.2-63.3C1286.7,1673.8,1285,1676.3,1283.6,1684.1z"/>
	<path id="structure79_label83_E" bar:growlevel="0" bar:type="" class="st40" d="M1477.6,1187c-12.5,15-26.4,32.7-56,71.4
		c-37.3,48.9-49.1,63-76.4,92.7c-7,7.6-11,12.9-13,17l-2.9,5.9l0.1,18.9c0.2,26,1.1,31.6,9.9,62.3c10.2,35.4,13.9,50.5,14.5,59.9
		c0.4,5.8,0.9,7.9,1.7,7.9c2.1,0,1.5-13.7-1-27.5c-1.3-6.8-4.7-23.1-7.7-36.3c-11.1-50.2-12.6-60-11.1-75.1c0.6-5.5,1.9-13,3-16.4
		c1.7-5.5,2.7-7,7.5-11.6c10.3-9.9,20.8-15.4,25.4-13.3c4.3,2,5,12.6,1.8,28.1c-1.8,8.6-4.8,28.6-6.9,47.2
		c-1.8,14.8-2,21.1-2.1,66.7c-0.1,43.4-0.3,51.1-1.5,55.7c-0.8,2.9-2.1,5.9-3,6.8c-1.4,1.3-1.5,1.3-2.8-0.3
		c-0.9-1.3-1.3-4.3-1.3-10.2c0-6.4-0.3-8.4-1.2-8.4c-1,0-1.4,2.4-1.8,9.6c-0.4,5.4-0.8,12.2-1.2,15.2l-0.6,5.5l8.5,0.5
		c6,0.4,8.7,0.3,9.4-0.5c0.6-0.7,1.3-13.3,2.1-36.2c3.2-107.1,9.2-158.6,23.2-201.2c4.5-13.7,13.4-32.8,19.2-41.5
		c4.7-6.9,20.3-27.6,43.3-57.1c18.7-24.1,31.4-41.9,31.4-44C1488.2,1175.7,1485.3,1177.8,1477.6,1187z"/>
	<path id="structure7_label4_VP" bar:growlevel="0" bar:type="" class="st33" d="M1343.3,1895.7c0,0.5,3.8,5,8.4,9.8
		c10,10.5,18,21.9,23.8,33.7c2.9,6,4.6,8.6,5.7,8.6c0.9,0,9,4.9,18.1,11.1c10.3,6.8,18.4,11.7,21.5,12.6c5.5,1.8,13.4,3.2,37.8,6.5
		c9.2,1.3,18.8,2.9,21.4,3.7c4.3,1.2,5.3,1.2,10.8-0.2c3.3-0.8,8.9-2.8,12.5-4.4c7.9-3.6,8.7-5.5,5.6-11.9c-1.5-3.2-3.2-5-6.1-6.5
		c-3.9-2.2-4.1-2.2-30.2-2c-29.9,0.2-35-0.4-45.7-5.7c-8.1-3.9-14.3-9.1-20.5-17.2c-11.1-14.4-18.6-20.1-35.5-26.1
		c-10-3.7-12.5-4.9-19.6-9.5C1345.8,1894.7,1343.3,1893.9,1343.3,1895.7z"/>
	<path id="structure80_text3079_IG" bar:growlevel="0" bar:type="" class="st41" d="M1232.2,1233.6c-5.9,2.1-10.4,7.3-11.8,13.9
		l-0.6,3.1l3.9-0.6c2.2-0.3,9.9-2.1,17.3-3.9c14.2-3.5,14.9-4.1,11-8C1246.8,1232.9,1239,1231.2,1232.2,1233.6z"/>
	<path class="st42" d="M1217.3,1234.5c-1.6-4.8-4.7-6.8-10.8-6.8c0,0-0.1,0-0.1,0l0,20.4C1213.8,1248.3,1219.7,1241.7,1217.3,1234.5
		z"/>
	<path id="structure83_label86_LSS" bar:growlevel="0" bar:type="" class="st43" d="M1662.7,1828.1c-2.8,1.6-4.5,5.4-6.3,14.1
		c-7.6,36.7-7.5,54.7,0.3,69.8c2.5,4.9,9.8,13.2,11.7,13.2c3.5,0,2.9-25.2-1.1-39.3c-1-3.6-1.8-7.5-1.8-8.5s2-6.3,4.5-11.5
		c5-10.7,6.8-17.9,5.9-25.1c-0.8-6.1-1.7-8.7-4.3-11.4C1669.4,1827.1,1665.3,1826.5,1662.7,1828.1z"/>
	<path id="structure87_label89_IG" bar:growlevel="0" bar:type="" class="st41" d="M1236.7,1414.2c-0.3,2.6-2.2,17-4.1,32
		c-6.8,52.3-13.5,116.5-13.5,131c0,7.4,0.6,8.1,4.2,5.2c1.6-1.3,2.2-3.2,3.3-12.8c4.1-33.4,10.3-105.4,12.8-149.2
		c0.5-9.4,0.4-11-0.7-11C1237.7,1409.6,1237.2,1410.9,1236.7,1414.2z"/>
	<path id="structure8_label5_Tu" bar:growlevel="0" bar:type="" class="st8" d="M1231.9,1780.4c-8,1.6-16.6,4.7-17.1,6
		c-0.7,1.8,2.4,22.6,6.1,41.2c5.6,27.4,11.7,48.2,18.4,62.1c3.4,7.1,4.9,9.2,12.8,16.7c14.2,13.8,38.7,32.1,63.1,47.3
		c29.3,18.2,27.4,16.6,56.4,45.9c28.6,28.8,38.7,37.5,59.4,51.3c25.2,16.8,50.5,28.6,74.2,34.7c15.4,4,57.6,8.9,76.2,8.9
		c11.7,0,20.5-1.6,30.1-5.5c12.8-5.1,26.3-8.7,75.2-20.1c24.2-5.7,49-11.5,55.1-13.1l11.1-3l-0.5-3.7c-1.6-11.1-30.2-25.8-50.4-26.1
		c-7.3-0.1-8.6,0.2-12.7,2.4c-2.5,1.4-6.9,5-9.8,7.8l-5.1,5.2l-11.1-5.4c-14.5-6.9-18.5-7.5-27-3.6c-10.6,5-18.8,15.5-21.6,27.6
		c-1.7,7.1-4.1,12.5-7.5,15.9c-3,3.2-4.6,3.1-7.6-0.2c-3.1-3.5-6.1-3.5-14.5,0.1c-7.2,3.1-13.1,4.1-18.3,3.1c-2.6-0.5-4.6-1.8-8-5.6
		c-4.3-4.6-5-4.9-10-5.6c-6-0.7-10.4-3-12.2-6.2c-1-1.8-1.6-2.1-4.4-1.6c-1.7,0.3-9.2,0.8-16.6,1.1c-15.3,0.6-25.2-0.3-38.1-3.8
		c-17-4.6-26.4-9.7-53.3-29.2c-6.2-4.5-15.3-11.1-20.3-14.7c-24.3-17.5-44.6-34.9-67.5-57.8c-18.6-18.6-28.7-26.8-52.2-42.4
		c-31.4-20.9-37-26.5-44.2-43.9c-3.1-7.6-3.7-10.4-2.2-10.4c1.7,0,0.9-2.5-3.1-10c-4.3-8-10.4-25.1-10.4-29c0-1.8,0.5-2.4,2.5-2.9
		c3.6-0.7,12.6,2.3,20.2,6.8c6.7,4.1,27.3,11.6,31.6,11.6c1.3,0,2.4-0.5,2.4-1.2c0-2.2-15.7-35.5-19.5-41.4
		c-5.6-8.5-9.4-10.5-18.8-10.4C1239,1779.6,1234,1780,1231.9,1780.4z"/>
	<path id="structure93_label98_acer" bar:growlevel="0" bar:type="" class="st44" d="M1211.8,1878.4c-2.1,2.1-2.6,3.4-2.6,6.4
		c0,6.8,3.3,10.8,9,10.8c3.8,0,6-1.4,7.7-4.5c3.8-7.3-0.2-15.3-7.7-15.3C1215.2,1875.8,1213.9,1876.3,1211.8,1878.4z"/>
	<path class="st45" d="M1865.3,1379.4c-1.8-15.4-9-50.7-16.3-80.1c-15.8-63.3-34-112.9-51.5-139.8c-13.4-20.7-26.3-32.3-62.7-56.6
		c-23.2-15.6-98.1-59.2-150.8-87.9l-22.4-12.2h-6.5c-3.5,0-11.6,0.5-17.9,0.9c-26.6,2.2-46.4,8.4-62.5,19.5
		c-19.7,13.7-23.2,18.4-46.4,61.9c-19.3,36.3-23.2,43-32.9,56.7c-8.4,11.8-18.7,23.5-32.4,36.9c-22.8,22.1-31.7,28.3-69.7,47.3
		c-28.2,14.1-44.4,19.7-70.6,24.4c-6.2,1.1-11.3,1.7-16.3,1.7l0,150c12,0.1,25.3,0.8,34.3,2.1c10.7,1.6,19.7,4.1,27.9,8
		c11.4,5.2,18.4,6.8,30.6,6.8c12.6-0.1,18.7-2.1,25.4-8.3l4.3-4.1l-0.3-14.9c-0.2-12.9,0.1-15.6,1.5-19.4c2.7-7,7-13,18-24.6
		c20.8-22.1,36.4-41,73-88.8c56.5-73.9,75.6-96.2,93.2-108.5c9.9-7,25.3-15.8,32.7-18.8c35-13.9,82.3-7,140.1,20.4
		c23.2,11.1,43.7,23.5,59.2,36c30.2,24.4,46.8,57.1,54.5,107.4c8.6,55.4,9,103.1,1.4,148.1c-6.1,36-16.9,67.6-44.1,128.7
		c-6.8,15.3-13.8,31.9-15.5,37c-6.3,18.1-9.3,38.5-16.4,112c-1.3,13.1-2.7,26-3.1,28.6c-1.5,8.7-12.8,27.4-33.7,56
		c-8.5,11.4-9.9,14.4-7.4,14.4c1.6,0,15-14,22.4-23.6c11.4-14.8,26-37,27.7-42.4c2.7-8.3,4.3-23.5,5.3-48.8
		c1.1-27.1,2.4-37.6,6.7-54.4c9.5-37.5,19.1-54.7,77.8-140.5c17.5-25.6,26.2-42.6,34-66.2C1863.2,1422,1867.2,1394.8,1865.3,1379.4z
		"/>
	<path id="structure95_label101_mfb" bar:growlevel="0" bar:type="" class="st46" d="M1343.3,1895.7c0,0.5,3.8,5,8.4,9.8
		c10,10.5,18,21.9,23.8,33.7c2.9,6,4.6,8.6,5.7,8.6c0.9,0,9,4.9,18.1,11.1c10.3,6.8,18.4,11.7,21.5,12.6c5.5,1.8,13.4,3.2,37.8,6.5
		c9.2,1.3,18.8,2.9,21.4,3.7c4.3,1.2,5.3,1.2,10.8-0.2c3.3-0.8,8.9-2.8,12.5-4.4c7.9-3.6,8.7-5.5,5.6-11.9c-1.5-3.2-3.2-5-6.1-6.5
		c-3.9-2.2-4.1-2.2-30.2-2c-29.9,0.2-35-0.4-45.7-5.7c-8.1-3.9-14.3-9.1-20.5-17.2c-11.1-14.4-18.6-20.1-35.5-26.1
		c-10-3.7-12.5-4.9-19.6-9.5C1345.8,1894.7,1343.3,1893.9,1343.3,1895.7z"/>
	<path id="structure98_Unlabeled-2719-806_S1DZ" bar:growlevel="0" bar:type="" class="st47" d="M2025.1,859.5
		c-13.2,14.6-56.4,60.5-122.5,130.2c-107.9,113.9-130,137.6-130,139.2c0,0.5,3.8,4.9,8.4,9.6c4.5,4.8,9.3,10.2,10.5,12.1
		c1.3,1.8,3,3.3,3.8,3.3c2.5,0,29.1-24.8,130.8-122c72.3-69,107.8-102.6,133.5-125.8c7.7-7,13.7-13.1,13.7-14
		c0-2-37.5-40.5-39.4-40.5C2032.9,851.6,2029,855.2,2025.1,859.5z"/>
	<path id="structure99_label55-1_Pir-1" bar:growlevel="0" bar:type="" class="st48" d="M1971.5,1779.4c0,1,0.8,2.1,1.9,2.3
		c4.9,1.5,14.1,12.8,19.5,23.4c1.4,3,3.8,8.8,5.2,13.1c2.3,7.1,2.5,8.7,2.5,22.1c0.1,16.9-1.5,24.5-8,37.8
		c-6.7,13.9-13.7,20.1-23.6,20.9c-4.7,0.4-7.6-0.4-26.8-6.5c-37.5-12-59-16.6-71.9-15.4c-7.8,0.7-15,4.4-22.1,11.3
		c-7.4,7.3-10.4,13.8-14.9,31.9c-2.5,10.1-5,17.7-6.9,21.3c-4.5,8.6-13,16.6-23.2,21.9c-4.7,2.3-11,5.9-14,7.9
		c-7.7,5.1-18.4,16.4-21.6,22.7l-2.7,5.3v24.1c0,27.5-0.7,25.7,8.5,21.8c4.1-1.8,5.6-3,6.5-5.1c2.8-6.8,15.6-18,38.1-33.6
		c14.7-10.1,24.3-19.1,28.4-26.5c10-17.7,30.8-38.4,45.5-45.3c4.1-1.8,5.7-2,20.6-2c14,0,17.2,0.3,23.7,2.1c8,2.2,15,5.3,19.7,9
		c1.6,1.2,3.6,2,4.3,1.6c3.3-1.3,29.7-19.7,39.6-27.6c34-27.3,47.4-52.3,51.8-96.2l1-10.3l-3.5-3.2c-10.1-9-38.3-21.1-65-27.9
		C1971.8,1777.2,1971.5,1777.1,1971.5,1779.4z"/>
	<path id="structure9_label6_ICj" bar:growlevel="0" bar:type="" class="st38" d="M1224.9,1815.5c-2.1,3.3,10.2,34.5,15.2,38.6
		c0.6,0.5,4.9,1.4,9.2,2c12.8,1.4,23.3,3.3,36.6,6.8c6.8,1.7,12.7,2.9,13,2.6c0.4-0.4-0.2-2-1.1-3.5c-1-1.6-4.7-8.5-8.2-15.4
		l-6.6-12.5l-7.9-2c-10.6-2.7-21.2-6.8-28.4-11.2c-3.1-1.9-7.7-4.1-10.1-4.9C1232,1814.4,1225.7,1814.1,1224.9,1815.5z"/>
	<text id="text3051" bar:growlevel="0" transform="matrix(1 0 0 1 1229.3984 1340.1602)" class="st49 st50 st51">gcc</text>
	<text id="label30" bar:growlevel="0" transform="matrix(1 0 0 1 1572.5615 1382.9473)" class="st49 st50 st51">CPu</text>
	<text id="label31" bar:growlevel="0" transform="matrix(1 0 0 1 1643.3604 849.0332)" class="st49 st50 st51">M1</text>
	<text id="label32" bar:growlevel="0" transform="matrix(1 0 0 1 1415.6299 800.9941)" class="st49 st50 st51">M2</text>
	<text id="label36" bar:growlevel="0" transform="matrix(1 0 0 1 1345.9121 1391.3184)" class="st49 st50 st51">LV</text>
	<text id="label37" bar:growlevel="0" transform="matrix(1 0 0 1 1281.1426 1451.9277)" class="st49 st50 st51">LSD</text>
	<text id="Unlabeled-1993-1836" bar:growlevel="0" transform="matrix(1 0 0 1 1394.5713 1969.3633)" class="st49 st50 st51">ICj</text>
	<text id="Unlabeled-2264-1688" bar:growlevel="0" transform="matrix(1 0 0 1 1629.4707 1827.1621)" class="st49 st50 st51">grey</text>
	<text id="label8" bar:growlevel="0" transform="matrix(1 0 0 1 1229.3984 1623.209)" class="st49 st50 st51">SHi</text>
	<text id="label9" bar:growlevel="0" transform="matrix(1 0 0 1 1265.6006 1580.4707)" class="st49 st50 st51">LSI</text>
	<text id="label0" bar:growlevel="0" transform="matrix(1 0 0 1 1425.2598 1712.0742)" class="st49 st50 st51">AcbC</text>
	<text id="label1" bar:growlevel="0" transform="matrix(1 0 0 1 1300.4023 1702.6816)" class="st49 st50 st51">AcbSh</text>
	<text id="label2" bar:growlevel="0" transform="matrix(1 0 0 1 1518.8311 1883.4648)" class="st49 st50 st51">LAcbSh</text>
	<text id="label3" bar:growlevel="0" transform="matrix(1 0 0 1 1601.6709 1942.2598)" class="st49 st50 st51">VP</text>
	<text id="label4" bar:growlevel="0" transform="matrix(1 0 0 1 1386.7344 1937.1836)" class="st49 st50 st51">VP</text>
	<text id="label5" bar:growlevel="0" transform="matrix(1 0 0 1 1226.75 1807.1934)" class="st49 st50 st51">Tu</text>
	<text id="label6" bar:growlevel="0" transform="matrix(1 0 0 1 1239.6816 1851.0586)" class="st49 st50 st51">ICj</text>
	<text id="label85" bar:growlevel="0" transform="matrix(1 0 0 1 1213.3086 1241.0684)" class="st49 st50 st51">azp</text>
	<text id="label86" bar:growlevel="0" transform="matrix(1 0 0 1 1664.0908 1854.1797)" class="st49 st50 st51">LSS</text>
	<text id="label81" bar:growlevel="0" transform="matrix(1 0 0 1 1573.5811 2067.3379)" class="st49 st50 st51">ICj</text>
	<text id="label83" bar:growlevel="0" transform="matrix(1 0 0 1 1380.4707 1332.3867)" class="st49 st50 st51">E</text>
	<text id="label82" bar:growlevel="0" transform="matrix(1 0 0 1 1286.9609 1760.1719)" class="st49 st50 st51">ICjM</text>
	<text id="label82_1_" bar:growlevel="0" transform="matrix(1 0 0 1 1229.3984 1737.8789)" class="st49 st50 st51">Nv</text>
	<text id="label89" bar:growlevel="0" transform="matrix(1 0 0 1 1227.749 1501.1836)" class="st49 st50 st51">IG</text>
	<text id="text3079" bar:growlevel="0" transform="matrix(1 0 0 1 1234.8271 1240.4688)" class="st49 st50 st51">IG</text>
	<text id="label12" bar:growlevel="0" transform="matrix(1 0 0 1 1478.5977 2065.3945)" class="st49 st50 st51">Tu-1</text>
	<text id="label13" bar:growlevel="0" transform="matrix(1 0 0 1 1672.4668 2009.959)" class="st49 st50 st51">Tu-2</text>
	<text id="label10" bar:growlevel="0" transform="matrix(1 0 0 1 1320.5908 1533.8535)" class="st49 st50 st51">LSV</text>
	<text id="label16" bar:growlevel="0" transform="matrix(1 0 0 1 1755.2305 1786.2773)" class="st49 st50 st51">DEn</text>
	<text id="label14" bar:growlevel="0" transform="matrix(1 0 0 1 1476.8018 2030.4707)" class="st49 st50 st51">Tu-3</text>
	<text id="label15" bar:growlevel="0" transform="matrix(1 0 0 1 1688.4805 1893.9063)" class="st49 st50 st51">IEn</text>
	<text id="label98" bar:growlevel="0" transform="matrix(1 0 0 1 1216.7949 1890.5781)" class="st49 st50 st51">acer</text>
	<text id="label55-1" bar:growlevel="0" transform="matrix(1 0 0 1 1866.4385 1894.1484)" class="st49 st50 st51">Pir-1</text>
	<text id="Unlabeled-1796-1229" bar:growlevel="0" transform="matrix(1 0 0 1 1221.9717 1426.8613)" class="st49 st50 st51">IL</text>
	<text id="Unlabeled-2147-1669" bar:growlevel="0" transform="matrix(1 0 0 1 1516.9707 1810.9609)" class="st49 st50 st51">aca</text>
	<text id="label78" bar:growlevel="0" transform="matrix(1 0 0 1 1889.7207 1964.959)" class="st49 st50 st51">lo</text>
	<text id="label79" bar:growlevel="0" transform="matrix(1 0 0 1 1519.1006 1785.2578)" class="st49 st50 st51">aca</text>
	<text id="label75" bar:growlevel="0" transform="matrix(1 0 0 1 1241.4072 1467.6602)" class="st49 st50 st51">DP</text>
	<text id="label76" bar:growlevel="0" transform="matrix(1 0 0 1 1469.75 1006.4707)" class="st49 st50 st51">cg</text>
	<text id="label77" bar:growlevel="0" transform="matrix(1 0 0 1 1822.9707 1356.8418)" class="st49 st50 st51">ec</text>
	<text id="label101" bar:growlevel="0" transform="matrix(1 0 0 1 1477.8242 1971.3672)" class="st49 st50 st51">mfb</text>
	<text id="label57-7" bar:growlevel="0" transform="matrix(1 0 0 1 1865.4248 1850.3906)" class="st49 st50 st51">Pir-3</text>
	<text id="Unlabeled-2253-1853" bar:growlevel="0" transform="matrix(1 0 0 1 1622.2695 1975.6621)" class="st49 st50 st51">ICj</text>
	<text id="label56-0" bar:growlevel="0" transform="matrix(1 0 0 1 1865.8232 1872.3398)" class="st49 st50 st51">Pir-2</text>
	<text id="text3040" bar:growlevel="0" transform="matrix(1 0 0 1 1228.9766 1091.9707)" class="st49 st50 st51">Cg2</text>
	<text id="text3042" bar:growlevel="0" transform="matrix(1 0 0 1 1237.5928 896.5762)" class="st49 st50 st51">Cg1</text>
	<text id="text3044" bar:growlevel="0" transform="matrix(1 0 0 1 1486.2676 2049.6094)" class="st49 st50 st51">Tu-2</text>
	<text id="label23" bar:growlevel="0" transform="matrix(1 0 0 1 1792.8506 1584.6133)" class="st49 st50 st51">VCl</text>
	<text id="label22" bar:growlevel="0" transform="matrix(1 0 0 1 1971.4121 1619.4473)" class="st49 st50 st51">DI</text>
	<text id="label21" bar:growlevel="0" transform="matrix(1 0 0 1 1925.7207 1680.0586)" class="st49 st50 st51">AID</text>
	<text id="label20" bar:growlevel="0" transform="matrix(1 0 0 1 1878.4707 1737.8789)" class="st49 st50 st51">AIV</text>
	<text id="label27" bar:growlevel="0" transform="matrix(1 0 0 1 1984.4316 1198.1758)" class="st49 st50 st51">S1DZO</text>
	<text id="label26" bar:growlevel="0" transform="matrix(1 0 0 1 1856.3193 1491.5039)" class="st49 st50 st51">DCl</text>
	<text id="label25" bar:growlevel="0" transform="matrix(1 0 0 1 2019.6201 1374.6367)" class="st49 st50 st51">S1ULp</text>
	<text id="label24" bar:growlevel="0" transform="matrix(1 0 0 1 1999.9707 1565.8281)" class="st49 st50 st51">GI</text>
	<text id="label29" bar:growlevel="0" transform="matrix(1 0 0 1 1811.3604 945.1699)" class="st49 st50 st51">S1FL</text>
	<text id="label28" bar:growlevel="0" transform="matrix(1 0 0 1 1970.4512 1095.6445)" class="st49 st50 st51">S1J</text>
	<text id="Unlabeled-2719-806" bar:growlevel="0" transform="matrix(1 0 0 1 1926.9365 1001.1504)" class="st49 st50 st51">S1DZ</text>
</g>
</svg>
