<?xml version="1.0" encoding="utf-8"?>
<!-- Generator: Adobe Illustrator 24.1.1, SVG Export Plug-In . SVG Version: 6.00 Build 0)  -->
<svg version="1.1"
	 id="body" inkscape:version="0.47pre4 r22446" sodipodi:docname="189_pretrace_pretrace_v1.svg" xmlns:bar="http://www.3dbar.org" xmlns:cc="http://creativecommons.org/ns#" xmlns:dc="http://purl.org/dc/elements/1.1/" xmlns:inkscape="http://www.inkscape.org/namespaces/inkscape" xmlns:rdf="http://www.w3.org/1999/02/22-rdf-syntax-ns#" xmlns:sodipodi="http://sodipodi.sourceforge.net/DTD/sodipodi-0.dtd" xmlns:svg="http://www.w3.org/2000/svg"
	 xmlns="http://www.w3.org/2000/svg" xmlns:xlink="http://www.w3.org/1999/xlink" x="0px" y="0px" viewBox="0 0 3024 3024"
	 style="enable-background:new 0 0 3024 3024;" xml:space="preserve">
<style type="text/css">
	.st0{fill:#FF000C;}
	.st1{fill:#00D7F2;}
	.st2{fill:#8600FF;}
	.st3{fill:#00EF7A;}
	.st4{fill:#00F448;}
	.st5{fill:#915FE5;}
	.st6{fill:#00FFD5;}
	.st7{fill:#955FE1;}
	.st8{fill:#00FF1C;}
	.st9{fill:#00CF69;}
	.st10{fill:#59DFD0;}
	.st11{fill:#00EFC8;}
	.st12{fill:#FFB2BA;}
	.st13{fill:#4CA6C7;}
	.st14{fill:#47FF7C;}
	.st15{fill:#23DF5A;}
	.st16{fill:#B2FFCC;}
	.st17{fill:#59FF90;}
	.st18{fill:#85FFC1;}
	.st19{fill:#FF5974;}
	.st20{fill:#00FFF3;}
	.st21{fill:#6C0BF2;}
	.st22{fill:#98E4FF;}
	.st23{fill:#5523C7;}
	.st24{fill:#33C2F7;}
	.st25{fill:#9F76E9;}
	.st26{fill:#59CB88;}
	.st27{fill:#00FFAF;}
	.st28{fill:#00FF34;}
	.st29{fill:#B2FFC2;}
	.st30{fill:#6100FA;}
	.st31{fill:#650BE1;}
	.st32{fill:#4CC7EF;}
	.st33{fill:#00FFA4;}
	.st34{fill:#AD8ED8;}
	.st35{fill:#B2FFE5;}
	.st36{fill:#8EDFA5;}
	.st37{fill:#6B3BC3;}
	.st38{fill:#B2FFE3;}
	.st39{fill:#85EFB9;}
	.st40{fill:#2CDF84;}
	.st41{fill:#66B0C7;}
	.st42{fill:#2CDFD0;}
	.st43{fill:#00EFD6;}
	.st44{fill:#FF59A4;}
	.st45{fill:#B2FFE4;}
	.st46{fill:#59E9B5;}
	.st47{fill:#00FFAA;}
	.st48{fill:#59FFCB;}
	.st49{fill:#00C2FF;}
	.st50{fill:#4CBEE7;}
	.st51{fill:#59EFE0;}
	.st52{fill:#7923FF;}
	.st53{fill:#B88EF2;}
	.st54{fill:#8553C7;}
	.st55{fill:#23F460;}
	.st56{fill:#85DFD7;}
	.st57{fill:#59FFF2;}
	.st58{fill:#85FFF5;}
	.st59{fill:#8EE9A9;}
	.st60{fill:#232323;enable-background:new    ;}
	.st61{font-family:'TimesNewRomanPSMT';}
	.st62{font-size:27px;}
</style>
<sodipodi:namedview  bordercolor="#666666" borderopacity="1" gridtolerance="10" guidetolerance="10" id="namedview298" inkscape:current-layer="content" inkscape:cx="519.40176" inkscape:cy="364.48756" inkscape:pageopacity="0" inkscape:pageshadow="2" inkscape:window-height="1026" inkscape:window-maximized="1" inkscape:window-width="1678" inkscape:window-x="0" inkscape:window-y="0" inkscape:zoom="5.6535695" objecttolerance="10" pagecolor="#ffffff" showgrid="false">
	</sodipodi:namedview>
<desc  id="desc5">This was produced by version 4.2 of GNU libplot, a free library for exporting 2-D vector graphics.</desc>
<defs>
	<rdf:RDF>
		<cc:Work  rdf:about="">
			<dc:format>image/svg+xml</dc:format>
			<dc:type  rdf:resource="http://purl.org/dc/dcmitype/StillImage"></dc:type>
		</cc:Work>
	</rdf:RDF>
	<bar:data  content="-13.56" name="coronalcoord"></bar:data>
	
		<bar:data  content="{&apos;ReferenceHeight&apos;: 900, &apos;ReferenceWidth&apos;: 1200, &apos;imageSize&apos;: (1200, 900)}" name="rendererConf">
		</bar:data>
	
		<bar:data  content="{&apos;DumpEachStepSVG&apos;: False, &apos;DumpEachStepPNG&apos;: False, &apos;GrowDefaultBoundaryColor&apos;: 200, &apos;CacheLevel&apos;: 5, &apos;NewPathIdTemplate&apos;: &apos;structure%d_%s_%s&apos;, &apos;PoTraceConf&apos;: {&apos;potrace_accuracy_parameter&apos;: &apos;0.001&apos;, &apos;potrace_width_string&apos;: &apos;1200pt&apos;, &apos;potrace_svg_resolution_string&apos;: &apos;300x300&apos;, &apos;potrace_height_string&apos;: &apos;900pt&apos;}, &apos;DetectUnlabelled&apos;: True, &apos;DumpVBrain&apos;: False, &apos;DumpWrongSeed&apos;: True, &apos;DumpDirectory&apos;: &apos;.&apos;, &apos;MinFiterTimesApplication&apos;: 3, &apos;RegionAlreadyTraced&apos;: 100, &apos;UnlabelledTreshold&apos;: 500}" name="tracingConf">
		</bar:data>
	<bar:data  content="0.0176211454,-9.5150660793,0.0176211454,-1.5355884426" name="transformationmatrix"></bar:data>
</defs>
<g id="content">
	<path class="st0" d="M2081,1260.4c-1.8-31.9-6-52.7-19.2-93.6c-16.2-50.3-29-83.2-45.2-115.7c-14.4-28.9-24.5-44.3-41.6-63.4
		c-21.9-24.5-48.1-41.9-84-56.1c-32.9-13-56.7-18-84.6-18.1c-18.4,0-25.3,0.9-48.6,6.8c-33.9,8.4-57.6,11.2-111.1,13.4
		c-26.6,1.1-40.2,3.5-55.9,9.9c-3.5,1.5-7,2.7-7.7,2.7c-2.5,0-8.2-10.7-12.1-22.8c-4.4-13.9-10.6-26.6-16.9-34.8
		c-17.6-23.4-55.8-50.1-93.6-65.6c-47.9-19.7-131.2-36.4-179.2-36.9V2147c0.1,0,0.1-0.1,0.2-0.1c0.4,0,2.6,2,5,4.4
		c10.9,10.9,38.9,19.7,76.2,24.1c19.6,2.3,68.9,2.3,85.9,0c38.9-5.3,68.4-14.7,135.5-42.9c27.4-11.5,30.9-12.9,49-19.5
		c32.3-11.7,79.4-33.5,109.4-50.5c14.5-8.2,28.1-17.8,36-25.4c4.5-4.2,17.2-16,28.3-26.1c30.7-27.8,55.4-51,64.4-60.6
		c35.6-37.2,54.9-82.4,61.1-142.8c2.1-20.1,1.4-53.4-1.3-71.5c-7.8-51.5-27.1-92.7-60.6-130.1c-11.9-13.3-28.9-27.4-42.7-35.4
		c-3.6-2.1-6.6-4.2-6.6-4.7c0-0.5,3.5-1,8.8-1.1c13.9-0.2,25.1-3.6,32.4-9.7c3.8-3.2,7.2-10.5,7.9-17.4c0.4-3.1,0.9-5.6,1.4-5.6
		c0.4,0,3.4,2,6.7,4.5c14.1,10.7,34.1,17.5,55.2,18.5c16.1,0.9,25.8-1.9,38.5-11c26.8-19.1,57.9-66.9,67.6-103.9
		c2.7-10.2,3.3-26.2,1.3-34.2c-1.5-6-5.3-14.8-8.6-19.4c-2.7-4.1-3-5.8-0.7-5.8c3.7,0,11.5-4.8,17-10.4c9.3-9.7,20.2-27.7,26-43.2
		C2078.7,1316.9,2082.2,1280,2081,1260.4z M1635,1493.1c-3.1-0.3-10-0.5-15.3-0.5c-10.9,0-11.5-0.4-7.9-5.5c1-1.4,2.1-4.1,2.3-5.8
		c0.3-1.7,0.9-3.1,1.3-3.1c0.4,0,6.3,3,13,6.5C1642,1492.1,1643.5,1494,1635,1493.1z"/>
	<path id="structure101_label107_ml" bar:growlevel="0" bar:type="" class="st1" d="M1288.3,2091.3c-0.4,5.6-0.6,13.3-0.6,17.3v7
		l3-0.6c5.5-1.2,42.3-1.5,55.1-0.5c7,0.5,23.5,2.4,36.5,4.1c13.1,1.7,24.5,2.9,25.3,2.6c1-0.3,1.6-1.4,1.6-2.7
		c0-1.8-0.9-2.7-4.7-4.4c-2.6-1.3-5.4-2.3-6.2-2.3s-8.5-3.6-17.1-8c-8.6-4.4-17.6-8.6-20.2-9.4c-2.9-0.9-10.1-1.6-19.8-2
		c-35.9-1.3-40.2-1.6-43.6-3.8c-1.7-1.1-4-3.2-5-4.7C1289.6,2079.3,1288.9,2080.5,1288.3,2091.3z"/>
	<path id="structure103_label109_py" bar:growlevel="0" bar:type="" class="st2" d="M1291.5,2115.4c-1.7,0.4-3.3,1.1-3.7,1.4
		c-0.4,0.4-1.2,4.2-1.8,8.5c-0.6,4.2-1.7,9.3-2.4,11.3c-1.7,4.9-1.6,6.5,0.9,10.7c6.8,11.5,34.3,21.4,72.1,26.1
		c36.4,4.5,90.5,3.7,100.8-1.4c4.4-2.3,10.3-7.7,10.3-9.7c0-3-11.3-12.4-27.9-23.4c-10.4-6.8-19.8-11.6-28.8-14.7
		c-6.7-2.3-35.5-6.7-58.1-8.7C1341.5,2114.3,1295.9,2114.3,1291.5,2115.4z"/>
	<path class="st3" d="M1345.8,2016.8c-0.3-2.4-2.2-19.6-4.1-38.2c-12.3-115.3-17.2-156-20.3-167.9c-0.7-3-3-8.7-4.9-12.7
		c-4.4-9.1-11.8-16.4-19.3-19.2c-3.7-1.4-9.9-2.3-15.8-2.4v12.5c0.8-0.2,1.6,0.1,2.3,1c4.2,5.7,5,23.8,5,131
		c0,57.9,0.4,95.5,0.9,96.3c0.7,1.2,1.2,1.2,3.5-0.3c3.6-2.2,10.9-2,16.3,0.4c3.3,1.4,4.8,1.6,6.1,0.9c2.6-1.4,11.3-1.2,18.6,0.4
		c3.5,0.7,7.7,1.6,9.4,1.9l3.1,0.5L1345.8,2016.8z"/>
	<path id="structure105_label111_cbw" bar:growlevel="0" bar:type="" class="st4" d="M1621.6,1088.1c0,3.2,3.6,10.2,16.5,31.4
		c12.9,21.3,30.6,48.6,39.2,60.3c12.8,17.2,53.6,62.8,81.1,90.8c23.4,23.8,39.7,38.4,93.7,84.5c20.2,17.1,40.7,35,45.6,39.7
		c6.6,6.2,9.7,8.6,11.4,8.6c2.1,0,2.3-0.4,2.3-3.9c0-2.1-0.7-4.9-1.6-6.1c-2.4-3.9-62.5-63.4-85.2-84.5
		c-11.4-10.6-33.8-31.3-49.9-46c-68.6-62.5-106.2-105.8-139-160.1c-4.4-7.2-8.7-13.9-9.8-15.1
		C1623.3,1085.1,1621.6,1085.3,1621.6,1088.1z"/>
	<path id="structure106_label112_SubP" bar:growlevel="0" bar:type="" class="st5" d="M1377.7,1584.9c-26.1,7.7-51,20.9-64,33.8
		c-7.9,7.8-12,16-12.1,24c0,7.5,1.8,9.2,9.7,9.2h5.4l5.5-5.7c3.1-3.1,8.6-9.1,12.4-13.4c3.9-4.2,10.3-10.3,14.3-13.2
		c7.9-6,24.4-14.6,31.4-16.4c3.9-1,4.4-1.4,5.3-4.5c1.3-4.4,4.2-7.8,9.9-11.7c6.3-4.2,5.9-5.3-1.4-5.3
		C1389.9,1581.8,1384.8,1582.8,1377.7,1584.9z"/>
	<path class="st6" d="M1289,2025.6c-0.3-2.3-0.9-53.5-1.3-113.6c-0.7-106.6-1-115.6-3.7-120.5c-0.6-1.2-1.7-1.8-2.7-1.8v237.2l2.2,2
		c1.5,1.4,2.8,1.9,4.1,1.4C1289.5,2029.8,1289.6,2029.3,1289,2025.6z"/>
	<path class="st7" d="M2072.1,1206c-6.8-27.7-24.3-80-38.5-115c-27.7-68.5-56-108-96.8-135.3c-19.5-13-54.5-27.9-82.3-34.9
		c-18.5-4.7-25.1-5.5-48.1-5.5c-23.6,0-26.8,0.5-49.5,6.3c-29.5,7.7-58,11.3-105.6,13.1c-31.8,1.3-49.8,4.5-63.5,11.4l-4.3,2.3
		l-2.5-2.4c-3.9-3.7-7.6-11.3-12.2-25.2c-6.2-18.9-12.1-28.9-25.1-42.6c-15.8-16.6-48.4-38.7-73.9-49.9
		c-44.4-19.6-113.1-35.6-173.2-40.2c-6.4-0.5-10.9-0.7-15.4-0.7v33.5c25.3,0.2,52.5,0.9,61,1.8c16.3,1.8,27.1,3.6,38.3,6.6
		c16.1,4.2,23.3,7.6,49.1,23.7c27.9,17.3,37.3,22,57.6,29.3c29.9,10.6,45.1,22.7,50.4,40c4.8,15.4,0.2,25.2-16,33.7
		c-14.8,7.8-33.3,10.8-66.8,10.8c-24.4-0.1-46.5-1.6-77.4-5.3c-40.1-4.9-41.7-4.9-83.7-5.3c-4.5,0-8.6-0.1-12.6-0.1v62.3
		c12.6,0,26.2-0.2,44.7-0.7c58.4-1.4,91.4-0.1,127.6,5.1c41.1,5.9,60,13.4,78.1,30.9c13.4,13,20.3,23.6,41,63.9
		c17.1,33,32.1,58,57.5,95.5c37.7,55.6,67.4,94,110.8,143.5c61.7,70.3,106.8,129.3,122.9,160.7c5.6,11,9.4,15.4,18.1,21.3
		c16.3,11.1,35.2,16,58.7,15.5l13.3-0.4l6.9-3.4c30.8-15.2,69.8-71.6,78.4-113.5c1.8-8.7,1.9-24.7,0.1-31.6
		c-2.1-8.2-7.2-17.9-12.2-22.9c-2.4-2.4-4.1-4.5-3.7-4.5c0.4,0,1.1,0.4,1.7,1.1c2,2,9.4,1.3,13.8-1.3c8.6-5,20.3-20.1,28.5-36.3
		c9.4-19,11.3-31,11.3-70.6C2079.1,1240.5,2078,1229.9,2072.1,1206z M2003.7,1439.4c-5.5,8.6-15.4,18.7-25.4,26.2
		c-10.6,8-14.4,13.2-24.3,33.9c-8.1,16.9-11.4,21.5-16.2,22.4c-9.5,1.8-38.3-14.1-54-29.8c-10.4-10.3-13.9-16.3-23.3-39.4
		c-15.3-37.5-21.8-48.9-44.9-78.5c-23.4-30-34.8-42.8-67.5-75.6c-36.3-36.5-61.3-64.2-76.3-84.2c-23.7-31.8-53.6-76.9-69.6-104.8
		c-19.3-33.7-36.7-80.2-38-101l-0.5-8.3l2.8-2.7c3.4-3.4,8.5-3.8,14.4-0.8c5.1,2.4,15,11.8,20.8,19.5c2.4,3.2,9.4,13.9,15.4,23.5
		c35.3,56.2,75.2,110.8,109.4,149.4c30.8,34.8,84.5,80,184.9,155.3c37,27.8,53.1,39.1,76,53c19.2,11.6,20.9,12.8,23,16.2
		C2013.9,1419.6,2012.2,1426.5,2003.7,1439.4z M1730.5,1137.5c0-0.7,0.7-0.3,1.9,1.2s1.1,1.5-0.3,0.4
		C1731.2,1138.4,1730.5,1137.6,1730.5,1137.5z M1742.4,1149.7c0.2,0,1.3,1,2.5,2.3c1.2,1.3,1.9,2.3,1.6,2.3c-0.2,0-1.4-1-2.5-2.3
		C1742.8,1150.7,1742.1,1149.7,1742.4,1149.7z M1786.5,1193.8c0.2,0,1.3,1,2.5,2.3c1.2,1.3,1.9,2.3,1.6,2.3c-0.2,0-1.3-1-2.5-2.3
		C1786.9,1194.8,1786.2,1193.8,1786.5,1193.8z M2045.8,1308.8c-4.1,12.1-10.3,15.1-22.8,10.9c-21.7-7.4-55.6-30.6-108.1-74.2
		c-57-47.3-93-80-146.6-133.2c-58-57.5-89.6-90.9-92.9-98.1c-2.4-5.3-2.2-7.4,1.7-11.3c3.8-3.9,11.4-6.6,22.2-8
		c10.7-1.4,42.8-0.4,52.7,1.6c24.4,5,41.6,13.4,55.3,26.8c3.5,3.3,16.2,17.5,28.3,31.3c17.6,20.3,32,35.4,73.3,76.6
		c57.3,57.2,74.2,72.4,97.8,88.4c27.2,18.2,39.4,35.4,41.8,58.7C2049.3,1285.5,2047.7,1303.1,2045.8,1308.8z"/>
	<path id="structure110_label116_AmbL" bar:growlevel="0" bar:type="" class="st8" d="M1586,1871.1c-9.2,2.3-14.1,6.4-16.2,13.2
		c-4,13.3,1.6,38.3,11.6,52.3c6.4,8.9,16.8,18.3,24.8,22c6.1,3,7.7,3.3,14,3.3c8.7,0,15-2.5,19.7-7.6c9.5-10.6,5.2-31.9-11.5-57.1
		c-8.8-13.2-16.6-20.4-26.3-24.2C1598.2,1871.5,1589,1870.4,1586,1871.1z"/>
	<path class="st9" d="M1345.8,2016.8c-0.3-2.4-2.2-19.6-4.1-38.2c-12.3-115.3-17.2-156-20.3-167.9c-0.7-3-3-8.7-4.9-12.7
		c-4.4-9.1-11.8-16.4-19.3-19.2c-3.7-1.4-9.9-2.3-15.8-2.4v12.5c0.8-0.2,1.6,0.1,2.3,1c4.2,5.7,5,23.8,5,131
		c0,57.9,0.4,95.5,0.9,96.3c0.7,1.2,1.2,1.2,3.5-0.3c3.6-2.2,10.9-2,16.3,0.4c3.3,1.4,4.8,1.6,6.1,0.9c2.6-1.4,11.3-1.2,18.6,0.4
		c3.5,0.7,7.7,1.6,9.4,1.9l3.1,0.5L1345.8,2016.8z"/>
	<path id="structure115_label121_SolCe" bar:growlevel="0" bar:type="" class="st10" d="M1405.6,1631.4c-5.5,2.8-8.1,7.9-8.1,15.8
		c0,7.4,1.9,10.7,8.2,14.1c4.3,2.3,5.2,2.4,11.7,2c8.1-0.5,14.2-3.1,17-6.9c2.9-4.1,2.4-11.1-1.1-18.1c-2.6-5-3.4-5.9-7-7.3
		C1420.2,1628.7,1410.5,1629,1405.6,1631.4z"/>
	<path class="st11" d="M1285.2,2032.3c-1.4-3.1-2.5-4.2-3.9-4.2v110.7c1.7,0,2-0.9,4.7-15.8c0.8-4.5,1.2-18,1.2-46.4
		C1287.2,2037.4,1287.2,2036.6,1285.2,2032.3z"/>
	<path class="st4" d="M1812.1,1501.1c-0.5-6.5-3.8-14.3-9.7-22.9c-4.2-6.3-10.4-12.6-39-40c-44.4-42.4-86.2-89.4-110-123.3
		c-26.7-38.1-72.4-112.4-104.3-169.6c-10.8-19.4-12.6-22-20.9-30.7c-19.3-20.2-53.6-34.2-95.7-39.2c-12.2-1.3-14.7-1.4-151.2-1.2
		v23.5c13.2,0,26.3,0.2,36.9,0.7c56,2.6,97.2,8.9,132.8,20.4c25.7,8.3,44.7,19.8,63.7,38.5c21.8,21.5,39.1,48.4,67.5,105.3
		c8.9,17.8,19.6,38.6,23.9,46.3c17.3,31.5,41.5,69.8,56.4,88.9c7.8,10,19.6,22.7,21.2,22.7c0.5,0,0.8,0.4,0.8,0.9
		c0,1.8-5.2,0.8-10.6-1.9c-6.9-3.4-21.9-17.5-31.8-29.9c-17.5-21.9-36-51.9-72.4-117.6c-20.9-37.7-26.6-47.5-35.9-61.2
		c-18.5-27.4-39.4-48.3-61.5-61.5c-26.3-15.8-62.8-26.1-110.1-31c-13.6-1.4-24.4-1.6-80.1-1.6c-0.3,0-0.6,0-0.9,0v31.3
		c56.2-0.3,72.7,0.2,97.2,3c45.9,5.1,77.5,19.5,109.3,49.9c21.2,20.3,33.7,41.8,58,100.4c31.2,75.3,43.7,97.3,70.2,123.8
		c20.9,20.8,42.3,34.6,96.8,62.6c25.7,13.1,40.1,19.5,55.3,24.5C1798.5,1522,1813.5,1518.2,1812.1,1501.1z"/>
	<path class="st12" d="M1676.7,1414.2c-12.7-12.6-33.2-41.6-53.5-75.5c-13.7-23-22.7-39.7-40.9-76.1
		c-28.4-56.9-45.7-83.8-67.5-105.3c-23.2-22.9-45.8-34.7-84.4-44.5c-39.5-9.9-93.4-15.3-149-15.3v19.3c0.3,0,0.6,0,0.9,0
		c55.7,0,66.5,0.2,80.1,1.6c29.2,3.1,56.4,8.6,76.9,15.6c38.6,13.4,67.7,37,94.7,76.9c9.3,13.7,15,23.5,35.9,61.2
		c36.4,65.7,54.9,95.8,72.4,117.6c13.8,17.3,32.1,32.7,39,32.7C1683.9,1422.4,1683,1420.6,1676.7,1414.2z"/>
	<path id="structure123_Unlabeled-2451-1201_Unlabeled" bar:growlevel="0" bar:type="" class="st12" d="M1864.6,1141.1
		c0,0.6,2.3,3.1,5.2,5.5c19.8,16.2,46.8,43.7,54.8,55.9c5,7.7,45.4,48.1,48.1,48.1c0.9,0,1.7-0.4,1.7-1c0-1-28.5-40.5-40.9-56.6
		c-9.7-12.6-18-21.2-28.9-30C1885,1147.2,1864.6,1135.9,1864.6,1141.1z"/>
	<path class="st12" d="M1476.9,1251.1c-12.7-13.2-48.6-24-109.4-32.9c-24.5-3.7-73.5-8.7-86.1-9v56c11.6,0,34.9-0.2,51.8-0.4
		c36.2-0.4,38.7-0.2,75.1,8.6c49.1,11.8,66,13.3,78.2,7.4c6.2-3.1,7.3-3.7,7.3-4.5C1493.8,1273.7,1482.7,1257.3,1476.9,1251.1z"/>
	<path class="st12" d="M1542.7,1385.8c-8.6-14.5-28.8-58.8-33.6-73.4c-1.3-4-2.8-4.2-8.4-1.1c-10.6,5.9-34.9,8.6-64.1,6.9
		c-10.4-0.6-24.3-1.7-30.8-2.4c-18.6-2.1-59.8-3.1-124.6-3.1v79.8c12.9,0,25.7,0.1,41,0.3c24.2,0.4,24.4,0.3,53.1-3.4
		c34.3-4.5,44.9-6.3,59.9-10.4c16.8-4.6,21.7-5.3,35-5.3c25.3,0.2,48.1,6.5,68.2,19c4.1,2.6,7.9,4.7,8.4,4.7
		C1548.8,1397.2,1547.6,1394.1,1542.7,1385.8z"/>
	<path class="st12" d="M1614.2,1475.3c-0.6-0.4-1.4-0.7-1.8-0.7c-0.9,0-17.6-13.4-24.8-19.9c-8.4-7.7-11.3-8.9-21.7-8.9
		c-4.6,0-10.3-0.4-12.5-1c-2.6-0.7-4.2-0.7-4.7-0.2c-0.3,0.5-7,1.2-14.9,1.4c-17.4,0.7-55.9,5.2-117,13.7
		c-25.7,3.5-54.7,4.5-98.4,3.3c-13.6-0.4-25.4-0.5-37.1-0.5v26.8c0.2,0,0.3,0,0.5,0c108.4,0,124.5-0.2,140.9-1.5
		c64.4-5.4,127.7-6.8,138-2.8c4,1.5-1.1,8.6-11.1,15.1c-28.9,19.1-84.2,33.9-167.5,45c-37.8,5-46.3,5.5-100.8,5.5v34.3
		c14.3,0,28.7-0.2,45.6-0.5c36.6-0.8,45.7-0.8,46.3,0.1c0.5,0.9,2.4,0.7,8.8-0.9c6.3-1.6,9.7-2.1,14.7-1.7c4.3,0.4,7.4,0.1,9.4-0.7
		c1.7-0.7,5.7-1.3,8.9-1.3s5.8-0.4,5.8-0.7c0-0.4,3.2-1.3,7-1.9c19.5-3.2,51.8-13.1,72.6-22.1c6.5-2.8,12.7-5.3,14-5.6
		c1.3-0.3,2.4-0.8,2.7-1.2c0.3-0.4,3.9-2.4,8.1-4.5c4.2-2.1,12.8-6.7,19.1-10c6.3-3.4,12.2-6.2,13.2-6.2c0.9,0,1.9-0.5,2.2-1.2
		c0.3-0.6,4.1-3.3,8.6-5.9c11.4-6.6,23.8-14.8,30.7-20.3c3.2-2.5,6.9-4.9,8.4-5.3c1.9-0.4,2.4-1.1,2.4-2.9c0-1.3,0.8-3.4,1.8-4.8
		C1614.1,1483.8,1615.7,1476.3,1614.2,1475.3z"/>
	<path id="structure128_Unlabeled-2047-1754_Unlabeled" bar:growlevel="0" bar:type="" class="st12" d="M1501.9,1638.3
		c0,0.5-1.6,1-3.8,1c-7.9,0.1-14.2,5-14.2,11.3c0,5.9,4.9,11.9,11.3,13.9c8,2.7,21.6-0.8,25.7-6.5c1.8-2.4,1.9-3.2,1.2-8.6l-0.8-5.9
		l-6.4-2.5C1507.1,1638,1501.9,1636.9,1501.9,1638.3z"/>
	<path id="structure12_label13_PM" bar:growlevel="0" bar:type="" class="st13" d="M1568.7,996.7c-6,2.4-4.8,16.6,3.6,42.3
		c13.9,42.3,33.5,79,73,136.4c35,50.9,47.7,66,105,124.1c30.3,30.8,46.2,48.6,67.2,75.7c20.3,26,31.1,45,43.5,76
		c3.1,7.6,7,16.7,8.7,20.3c8.2,16.5,18.9,26.7,41,39.5c11.7,6.8,18.7,9.5,24,9.8c7.6,0.4,8.5-0.8,21.1-27.4
		c6.9-14.5,12-21,21.6-28.3c18.6-13.9,33.3-33.8,33.3-45.2c0-6.3-2-8.2-18.9-18.4c-25.1-15.1-44.5-28.5-82.6-57.2
		c-113.6-85.4-158.6-124.3-196.7-169.6c-29.8-35.5-71.4-93.6-99.2-138.9C1594.5,1004.9,1579.9,992.2,1568.7,996.7z M1625.7,1087.8
		c1.5,1.6,5.9,8.2,9.8,14.7c32.7,54.2,73.3,100.9,141.3,162.5c13.9,12.5,34.1,31.1,45,41.3c29.5,27.5,86.8,84.6,88.7,88.4
		c2.1,4.1,2.2,7.3,0.3,8.9c-2,1.6-3.3,0.6-16.6-11.5c-5.9-5.6-25.6-22.6-43.4-37.8c-74.6-63.5-90.3-78.5-136.3-130.3
		c-37.9-42.7-48.2-56.8-79.6-109.2c-11.8-19.7-14.9-26.1-14-28.5C1621.8,1084.3,1622.7,1084.5,1625.7,1087.8z"/>
	<path class="st14" d="M1812.1,1501.1c-0.5-6.5-3.8-14.3-9.7-22.9c-4.2-6.3-10.4-12.6-39-40c-44.4-42.4-86.2-89.4-110-123.3
		c-26.7-38.1-72.4-112.4-104.3-169.6c-10.8-19.4-12.6-22-20.9-30.7c-19.3-20.2-53.6-34.2-95.7-39.2c-12.2-1.3-14.7-1.4-151.2-1.2
		v23.5c13.2,0,26.3,0.2,36.9,0.7c56,2.6,97.2,8.9,132.8,20.4c25.7,8.3,44.7,19.8,63.7,38.5c21.8,21.5,39.1,48.4,67.5,105.3
		c8.9,17.8,19.6,38.6,23.9,46.3c17.3,31.5,41.5,69.8,56.4,88.9c7.8,10,19.6,22.7,21.2,22.7c0.5,0,0.8,0.4,0.8,0.9
		c0,1.8-5.2,0.8-10.6-1.9c-6.9-3.4-21.9-17.5-31.8-29.9c-17.5-21.9-36-51.9-72.4-117.6c-20.9-37.7-26.6-47.5-35.9-61.2
		c-18.5-27.4-39.4-48.3-61.5-61.5c-26.3-15.8-62.8-26.1-110.1-31c-13.6-1.4-24.4-1.6-80.1-1.6c-0.3,0-0.6,0-0.9,0v31.3
		c56.2-0.3,72.7,0.2,97.2,3c45.9,5.1,77.5,19.5,109.3,49.9c21.2,20.3,33.7,41.8,58,100.4c31.2,75.3,43.7,97.3,70.2,123.8
		c20.9,20.8,42.3,34.6,96.8,62.6c25.7,13.1,40.1,19.5,55.3,24.5C1798.5,1522,1813.5,1518.2,1812.1,1501.1z"/>
	<path id="structure14_label15_Crus2" bar:growlevel="0" bar:type="" class="st15" d="M1703.4,995.7c-11.5,1.3-20.2,3.5-24.1,6.5
		c-3.4,2.4-3.7,2.9-3.7,7c0,5.6,2,8.3,20.8,28.7c20.5,22.1,101.1,102.6,122.4,122.2c66.2,60.8,130.2,114,167,138.6
		c18.8,12.5,39.1,22,47.2,22c9.3,0,14.3-12.2,14.3-35.2c0-13.9-1.2-19.5-6.1-29.6c-3.6-7.5-5.3-9.7-13.6-18
		c-6.3-6.3-13.5-12.2-21.2-17.5c-26.9-18.5-43.7-33.7-101.1-91.3c-39.4-39.7-56.5-57.8-78.5-83.3c-12.8-14.8-23.2-25.4-29.3-29.7
		c-12-8.6-29-15.2-46.6-18.5C1739.7,995.4,1714.8,994.5,1703.4,995.7z M1869.8,1140.7c11.7,4.5,32.5,19,46.4,32.3
		c8.5,8.2,15.7,17.3,41.5,52.7c12.2,16.8,22.8,31.2,23.3,31.9c2.1,2.7-6.9-4.9-19-16.1c-17.6-16.3-32.7-32.1-37.4-39.2
		c-8.6-12.7-34.6-39.2-56.4-57.1c-3.7-3.1-7.1-5.9-7.6-6.4C1858.9,1137.2,1862.9,1138,1869.8,1140.7z"/>
	<path id="structure15_label16_ECu" bar:growlevel="0" bar:type="" class="st16" d="M1609.5,1494.6c-3.1,0.5-5.9,2.1-10.3,5.6
		c-6.9,5.7-19.3,13.8-30.8,20.4c-8.7,5-9.8,6.4-9.8,12.8c0,5.1,2.9,9.2,10.6,14.8c9.9,7.4,16.3,10.9,24.3,13.4
		c6.9,2.2,8.4,2.3,18.9,1.8c17.1-0.8,31-4.6,54-14.9c12.5-5.6,18.7-9.5,20.4-12.9c2.7-5.1,1.2-12.2-4.7-21.2
		c-2.7-4.2-3.8-4.9-14.4-10c-6.4-3.1-13.5-6.2-16-7C1641.7,1494.2,1619.5,1492.6,1609.5,1494.6z"/>
	<path id="structure16_label17_Cu" bar:growlevel="0" bar:type="" class="st17" d="M1542.5,1534.8c-7.1,3.9-15.7,8.4-19.1,10.1
		l-6.2,3v5.7c0,9-2.5,24.8-6.5,39.8c-5,19.5-5,18.8-2.4,19.3c1.2,0.2,11.5,1.4,22.9,2.7c51.7,5.8,73.9,5.2,97.5-2.6
		c11.2-3.8,15.9-6.5,20.8-11.7c4.2-4.6,4.4-5.8,1.8-9.4c-1.1-1.4-2-4.5-2.3-7.6c-0.3-3.1-1-5.1-1.6-5.1c-0.5,0-3.6,2.1-6.7,4.5
		c-7.2,5.8-11.1,7.7-19.7,10.1c-9.4,2.4-19.8,2.4-26.2,0c-12.6-5-18.1-13-14.1-20.8c1.4-2.7,8.1-9.1,9.5-9.1c0.5,0,0.9-0.5,0.9-1.2
		c0-0.6-2.5-2.4-5.6-3.9c-5.8-2.7-17.2-10.4-21.7-14.6c-4.1-3.9-6.3-8.9-5.7-13c0.5-2.9,0.4-3.4-1-3.3
		C1556.1,1527.8,1549.6,1530.9,1542.5,1534.8z"/>
	<path id="structure17_label18_Mx" bar:growlevel="0" bar:type="" class="st18" d="M1650,1600.2c-5.7,6.4-11.2,9.5-23.5,13.4
		c-22.7,7.2-49.1,7.8-94,2.3c-15.3-1.9-39.5-4.1-56-5c-9.4-0.5-10.6-0.4-10.6,0.8c0,3.2,15.7,10.4,52.5,23.9
		c30.7,11.3,33,12.6,33,18c0,3.1,10.1,10.3,38.5,27.5c9.5,5.8,17.8,10.4,18.4,10.4c0.6,0,0.6-1.1,0.2-3.4
		c-1.7-7.3-0.9-13.8,2.5-20.9c8.6-18.2,29.2-40.2,44.2-47.9c6-3,25.9-9.7,34.2-11.6c5.8-1.3,6.8-3.2,2.3-3.9
		c-1.6-0.3-7.2-1.2-12.4-2c-5.2-0.8-12.2-2.4-15.8-3.7c-3.4-1.2-6.9-2.3-7.7-2.5C1655,1595.4,1652.6,1597.3,1650,1600.2z"/>
	<path id="structure18_label19_5Sol" bar:growlevel="0" bar:type="" class="st19" d="M1688.3,1608.3c-18.6,4.8-33,10.4-40.9,16.1
		c-5.6,4.1-18,16.1-23.1,22.6c-5.1,6.5-12.3,18-14.2,22.8c-2.5,6.3-2.5,15-0.1,20.7c1.7,3.9,2.7,4.8,12,10.3
		c19.2,11.4,54,26.9,56,24.8c0.3-0.3,0.1-5-0.5-10.4c-2.9-27.7,6.7-70.1,22.2-98.9c2.2-4.1,4-8.1,4-8.8
		C1703.5,1605.4,1698.4,1605.7,1688.3,1608.3z"/>
	<path id="structure19_label20_Sp5I" bar:growlevel="0" bar:type="" class="st20" d="M1707.3,1604.7c-1.6,0.4-3.6,3.7-9.3,15
		c-14.6,29.7-21.6,60.7-20.4,89.7c0.6,15.4,1.2,17.1,5.3,18.5c11,3.8,22.4,14.9,35.4,34.6c25.1,38.3,33.8,58.2,33.8,78.8
		c0,38.8,7.7,69.2,22,87.5c4.7,6,14.8,14.7,17,14.7c2,0,15.4-7.3,24.1-13c22.5-14.9,42.7-35.5,55.7-56.7
		c25.2-41,32.4-100.1,17.9-147.4c-11.2-36.4-36.1-68.7-71-91.8c-26.7-17.8-61.6-28.4-97.2-29.8
		C1714.4,1604.6,1708.4,1604.6,1707.3,1604.7z"/>
	<path class="st21" d="M1868.8,1533.2c-0.4-7-0.8-8.5-5.2-17.1c-15.1-30-60.7-89.2-124.1-161.6c-43.9-50.1-77.2-93.7-114.9-150.3
		c-25.7-38.6-36.5-56.8-54.3-91.3c-19.4-37.5-26.7-48.8-40.7-61.7c-18.6-17.1-41.7-24.8-91.3-30.1c-32-3.4-46.4-3.9-99.3-3.1
		c-30.4,0.5-42.9,0.7-57.6,0.7v55.1c9.8,0,22.5-0.6,46.3-1.8c16-0.8,98,1.2,108.4,2.5c30.4,4.2,58.1,13.7,77.7,26.6
		c13.8,9.1,23,20.1,34.4,40.5c36.3,65.4,89.9,151.7,115.5,185.9c23.8,31.7,64.5,76,111,120.5c26.9,25.8,32,31.9,36.8,45.4
		c2.5,6.8,2.3,15-0.5,18.9c-10.5,14.3-45,4.9-110.8-30c-59.2-31.5-80.5-47.4-102.3-76.1c-16.2-21.5-29.5-47.8-53.6-106.1
		c-22.9-55.4-33.8-74.5-54.7-95.7c-28.6-29-57.1-43.7-96.9-50.1c-26.5-4.3-40.8-4.9-111.2-4.9v60.5c33.3,0.5,96.6,8.4,137.4,17.6
		c31.2,7,50.3,15.1,59.2,25c10.7,11.9,19.8,28.5,27.8,50.9c10.2,28.2,26.5,64.6,37,82.6c2.9,4.9,9.2,14.2,14,20.7
		c13.3,17.7,20.6,31.1,20.6,37.5c0,2.3,0.5,3.2,2.1,4c1.1,0.5,4.7,3.3,7.9,6.3c19.7,17.9,40.1,30.6,74.3,46.1
		c18.7,8.5,37.3,19.4,45.4,26.7c5.4,4.9,54.9,22.1,93.2,32.4c19.6,5.3,41.7,5.2,53.5-0.2C1865.2,1554.3,1869.7,1546.5,1868.8,1533.2
		z"/>
	<path id="structure20_label21_PCRt" bar:growlevel="0" bar:type="" class="st22" d="M1571.2,1680.5c-3.7,8.1-10.8,15.9-17.4,18.9
		c-8,3.8-12.4,4.2-39.1,4.2c-14,0-25.5,0.3-25.5,0.6s10.4,11.1,23.2,23.8c60.2,60.4,127.1,139.8,163.1,193.6l8.5,12.8l5-0.7
		c22.8-3.1,46.6,5.1,70.2,24c3.2,2.5,6.2,4.6,6.9,4.6c0.9,0,1.2-1.7,1.2-6.7c0-10.5,3-15.6,9.8-16.5c4.3-0.6,4.6-1.8,1.4-4.9
		c-3.6-3.3-9.7-12.2-13.1-19.3c-8.4-16.7-13.3-41.5-13.3-66.6c0-13.6-1.1-21.1-4.5-31.3c-6.8-20.1-30-59-44.1-73.9
		c-8.8-9.3-14.9-13.1-27.3-17.3c-22-7.3-39.2-15.8-65.9-32.3c-23.4-14.6-33.2-20.3-34.7-20.3
		C1574.9,1673.6,1573,1676.6,1571.2,1680.5z"/>
	<path id="structure21_label22_IRt" bar:growlevel="0" bar:type="" class="st23" d="M1435.5,1701.7c-2.1,2.1-3.8,4.4-3.8,5
		c0,0.6,2.5,4.2,5.7,8.1c29.3,35.4,95.2,134.1,125.7,188.4c4.9,8.6,6.8,9.3,5.7,1.8c-1.3-8.8-0.7-17.3,1.3-21.9
		c2.3-5.2,4.9-7.7,11-10.4c6.8-3.2,15.6-2.7,24.1,1.5c13.1,6.5,28.8,27,36.7,48.1c2,5.2,2.3,5.6,10.2,10.4c4.4,2.7,10.3,6.7,13,8.7
		c2.7,2.2,5.5,3.9,6.3,3.9c0.7,0,2.4-1.3,4-2.8c1.4-1.5,4-3.5,5.6-4.6c1.5-1,2.9-2.3,2.9-2.9c0-3.2-34.8-51.2-58-80.2
		c-38.4-47.9-94-109.3-126.5-139.7c-12.6-11.8-12.7-11.9-17.7-12.4c-12.2-1.3-27.5-3.2-31.9-4
		C1441.2,1697.1,1439.6,1697.4,1435.5,1701.7z"/>
	<path id="structure23_label24_Pa5" bar:growlevel="0" bar:type="" class="st24" d="M1719.3,1568.3c-17.9,3-26.6,11.6-17.8,17.6
		c5,3.5,14.5,5,34.8,5.8c11.2,0.4,22,1.4,26.5,2.3c18.6,3.7,44.5,14.1,59.7,24.1c15.8,10.4,33,17.1,33,12.8c0-5.6-12.4-19.3-27.9-31
		c-24.6-18.5-44.5-27.6-67.8-31.1C1749.9,1567.2,1727,1566.9,1719.3,1568.3z"/>
	<path id="structure24_label25_Ro" bar:growlevel="0" bar:type="" class="st25" d="M1360.1,1770.8c-8.5,7.1-17.7,9.8-32.9,9.8
		c-6.6,0-8.9,0.3-8.9,1.2c0,0.5,4.2,4.3,9.5,8.2c5.1,3.9,12.7,10.5,16.7,14.8c7.6,7.8,11.3,10.1,16.1,10.1c4.8,0,7.7-2.3,10.5-7.8
		c2.3-4.8,2.5-6.1,2.5-14.7c0-5.3-0.5-11.1-1.2-13.1c-2.6-7.9-5-13-5.9-13C1366,1766.3,1363.1,1768.4,1360.1,1770.8z"/>
	<path class="st26" d="M1781.5,1993c-8,2.5-19,5.6-24.5,6.8c-45.4,10.4-49.8,11.9-63.5,21c-13.5,8.9-19.7,14.9-27.5,26.6
		c-6,9.2-17.4,22-19.4,22c-0.4,0-0.8,0.5-0.8,1.2c0,2.1-8.5,13.4-13.7,18.3c-6.8,6.4-9.8,7.8-18,8.3c-8.9,0.5-11.9-0.5-29-10.1
		c-15.1-8.5-32-16.7-38.7-19c-2.4-0.8-8.9-2-14.4-2.7c-17.2-2.3-23.5-4.2-31.4-10.1c-8.9-6.6-14.1-18.2-17.8-39.4
		c-4-22.7-0.1-45,10.7-61.5c4.7-7.1,9-9.6,16.3-9.6c11.3,0.1,19,5.9,33.6,25.2c4.7,6.1,14.2,16.8,22.2,24.8
		c16.4,16.4,38.5,35.9,40.9,35.9c1.4,0,1.5-0.9,1.5-6.4c0-3.4,0.4-8.1,1-10.3c0.9-3.6,0.7-4.9-1.4-11.4c-4.8-14.5-29.3-70.6-38-87.1
		c-22.1-42-78.5-129.1-117.1-180.9c-13.1-17.5-20.8-27-22.1-27c-1.2,0-15.8,12.9-35.2,31c-6.9,6.5-15.9,14.8-20.1,18.5
		c-8.5,7.6-8.3,6.3-3.8,19.2c4.8,13.6,3.5,28.3-3.1,35.2c-2.6,2.9-3.5,3.2-7.4,3.2c-5.8,0-8.8-1.9-17.9-11.3
		c-9.2-9.4-27.6-23.3-32-24.2c-11.1-2.1-18.7-13.4-21.6-32c-3.1-20.8,5.9-47.5,19.6-58.1c8.2-6.3,16.6-7.9,32.9-6.3
		c5.8,0.5,6.9,0.5,6.9-0.7c0-0.9-3.5-2.5-10.7-5.1c-5.9-2.1-11.5-4.3-12.5-5c-2-1.4-3.8-7.5-3.8-12.7c0-1.9-0.6-4.4-1.4-5.5
		c-1.3-1.9-1.9-2-7.4-1.4c-3.3,0.4-6.7,1.1-7.4,1.7c-0.7,0.5-2.1,1.3-3,1.6c-2.3,0.8-4.1,5.7-4.8,12.9c-0.8,8-3.7,11.3-11.4,13
		c-1.7,0.3-3.4,0.5-5.1,0.5v94.4c10.8,0,11.5,0.1,17.3,2.9c14.3,6.8,22.1,20.5,25.9,46.1c2.7,17.5,7.3,57.3,14.4,124
		c7.6,71.6,7.7,72.4,9.5,73.6c3.9,2.3,6.9,5.5,8.6,8.8c1.5,3.1,1.8,4.9,1.4,12.1c-0.4,7.7-0.5,8.6-2.5,10.3
		c-1.9,1.5-3.1,1.7-6.8,1.3c-3.8-0.5-4.8-0.3-5.2,0.9c-1.3,3.2-0.5,4.7,2.6,5.8c3.6,1.2,8.5,5,8.5,6.6c0.1,3,1.5,3.6,6.1,2.5
		c7.3-1.8,24.8,1.3,35.7,6.2c7,3.1,10.7,6.4,17.9,16c3.2,4.3,9.4,11.1,13.7,14.9c11.1,10.2,12.4,14.7,5.1,16.6
		c-1.9,0.5-5.5,0.7-8.1,0.4c-6.1-0.6-6.5,1.3-0.9,4c9.4,4.6,38.7,25.2,41.6,29.3c2.1,3,1.6,4.8-1.8,8.1c-6.7,6.5-4.2,6.5,21.4,0.1
		c26.6-6.7,50.4-15.4,102.3-37.3c13.1-5.6,28.7-11.9,34.6-14.1c12.2-4.5,15.3-6.2,44.6-24.8c23.8-15.2,39.6-24.5,54.3-31.8
		c16.9-8.6,30.9-18.8,54-39.7c12.8-11.7,27.6-27.4,27.6-29.5C1803.4,1987.4,1796.6,1988.3,1781.5,1993z M1497.7,2133.3
		c-5,7.1-19,7.1-34.3-0.1c-7.7-3.6-10.5-9-6.4-11.9c3-2.1,4.6-1.8,13.4,2.2c8.6,3.9,10.7,4.3,10.7,2.3c0-2.5-12.8-8.6-31.9-15.3
		c-13.3-4.6-18.1-8.1-22.3-16.4c-2.6-5-1.4-9,3-10.4c2.1-0.6,6.8,0.6,12,3.3c2.6,1.3,10.1,6.1,16.6,10.8
		c6.5,4.7,15.6,10.5,20.3,13.1C1497.6,2121.4,1502.1,2126.9,1497.7,2133.3z M1570.5,2130c-3.6,1.7-5.5,2.1-12.8,2
		c-26.4-0.3-56.4-12.5-98.7-40.1c-14.8-9.6-33-18.8-55.4-28c-16.6-6.8-22.6-10.2-29.2-16.6c-5.3-5.1-5.8-7.1-2.1-9.1
		c2.8-1.4,9.1-0.8,20.7,2.1c4.7,1.2,12.8,3.6,18,5.4c5.2,1.7,24.5,7.8,42.8,13.5c81.3,25.1,112,38.2,121.9,51.8
		C1580.7,2118,1578.6,2126,1570.5,2130z"/>
	<path id="structure26_label27_LRt" bar:growlevel="0" bar:type="" class="st27" d="M1501.2,1947.1c-6.1,3.8-10.8,11.3-15.7,25.3
		l-3,8.5l0.1,18c0,17.1,0.2,18.5,2.8,28.3c3.4,12.8,6.9,19.9,12.6,25.3c7.6,7.4,14.4,10,31.6,12.2c16.1,2,27.2,6.2,51,19.7
		c20.8,11.7,23,12.6,32,12.5c6-0.1,8.5-0.5,11.6-2.2c5.7-2.8,12.1-9.2,17.4-17c4-5.9,4.4-7.2,4.1-10.3c-0.9-6.6-8.6-14.2-26.6-26.6
		c-24.1-16.6-59-49.1-75.2-70.4c-11-14.3-16.7-19.9-23.2-22.9C1514.3,1944.7,1505.6,1944.5,1501.2,1947.1z"/>
	<path id="structure27_label28_LRt" bar:growlevel="0" bar:type="" class="st27" d="M1688.4,1934.5c-7.7,1.8-16,9.4-19.1,17.6
		c-4.4,11.7-6.4,30.6-4.7,42.8c2,13.1,6.2,21.6,13.8,27c5.9,4.3,7,4.3,13.5-0.3c8.1-5.7,15.2-9.4,23.8-12l7.5-2.3l1.3-4.6
		c3-9.9,1.3-24.7-4.8-42.2c-3.3-9.5-5-12.8-8.8-17.6C1706,1936.8,1695.6,1932.8,1688.4,1934.5z"/>
	<path class="st28" d="M1497.3,1282.6c-2.6-5-5.1-6.7-6.8-4.1c-1.1,1.8-8,4.3-14.1,5.2c-12.1,1.7-28.5-0.8-68.1-10.3
		c-36.4-8.8-39-9.1-75.1-8.6c-21.2,0.2-37.6,0.4-51.8,0.4v47.4c64.7,0,105.9,1.1,124.6,3.2c35.2,4,65.1,3.8,83.1-0.4
		c8.5-2,17.4-6.4,17.4-8.6C1506.4,1304.7,1500.3,1288.8,1497.3,1282.6z"/>
	<path class="st14" d="M1812.1,1501.1c-0.5-6.5-3.8-14.3-9.7-22.9c-4.2-6.3-10.4-12.6-39-40c-44.4-42.4-86.2-89.4-110-123.3
		c-26.7-38.1-72.4-112.4-104.3-169.6c-10.8-19.4-12.6-22-20.9-30.7c-19.3-20.2-53.6-34.2-95.7-39.2c-12.2-1.3-14.7-1.4-151.2-1.2
		v23.5c13.2,0,26.3,0.2,36.9,0.7c56,2.6,97.2,8.9,132.8,20.4c25.7,8.3,44.7,19.8,63.7,38.5c21.8,21.5,39.1,48.4,67.5,105.3
		c8.9,17.8,19.6,38.6,23.9,46.3c17.3,31.5,41.5,69.8,56.4,88.9c7.8,10,19.6,22.7,21.2,22.7c0.5,0,0.8,0.4,0.8,0.9
		c0,1.8-5.2,0.8-10.6-1.9c-6.9-3.4-21.9-17.5-31.8-29.9c-17.5-21.9-36-51.9-72.4-117.6c-20.9-37.7-26.6-47.5-35.9-61.2
		c-18.5-27.4-39.4-48.3-61.5-61.5c-26.3-15.8-62.8-26.1-110.1-31c-13.6-1.4-24.4-1.6-80.1-1.6c-0.3,0-0.6,0-0.9,0v31.3
		c56.2-0.3,72.7,0.2,97.2,3c45.9,5.1,77.5,19.5,109.3,49.9c21.2,20.3,33.7,41.8,58,100.4c31.2,75.3,43.7,97.3,70.2,123.8
		c20.9,20.8,42.3,34.6,96.8,62.6c25.7,13.1,40.1,19.5,55.3,24.5C1798.5,1522,1813.5,1518.2,1812.1,1501.1z"/>
	<path class="st29" d="M1577.2,1442.9c-1.1-8-13.9-29.3-23-38.5c-9.4-9.4-27.6-19.8-43.3-24.8c-12.3-3.8-26.8-6-40.5-6.1
		c-13.3,0-18.2,0.7-35,5.3c-15,4.1-25.6,5.9-59.9,10.4c-28.7,3.7-28.9,3.8-53.1,3.4c-15.2-0.2-28-0.3-41-0.3v27.8
		c64.4,0,72.9-0.4,102.2-4.5c15-2.2,28.5-3.5,61.6-6.3c9.2-0.7,22.5-2.2,29.7-3.2c16.7-2.3,31.2-2.1,38.9,0.9
		c7.2,2.8,10.9,6,19.5,17.5c10.2,13.3,16,19.2,20.4,20.3c1.9,0.5,8.1,1.1,13.8,1.3l10.2,0.3L1577.2,1442.9z"/>
	<path id="structure42_label44_cu" bar:growlevel="0" bar:type="" class="st30" d="M1683.7,1515.1c0,0.5,0.8,2.5,1.8,4.5
		c4.6,9,4,15.6-2,20.2c-3.3,2.5-21.4,11.3-31.6,15.3c-8.5,3.4-24.5,7.5-34.5,8.7c-6.8,0.9-10.2,0.9-17,0c-7.8-1.1-8.7-1.1-11,0.4
		c-6.3,4-10.2,9.7-10.2,15c0,2.3,1,3.8,4.9,7.6c8.1,7.8,18.4,10,33.6,7.1c3.9-0.7,9.9-2.7,13.3-4.4c6.5-3.2,17.3-12.1,21.2-17.6
		c4.9-6.7,30.5-19.7,45-22.9c4.5-1,13.3-11.8,13.4-16.5c0-2.3-22.3-18.3-25.6-18.3C1684.3,1514.2,1683.7,1514.7,1683.7,1515.1z"/>
	<path id="structure46_label48_rs" bar:growlevel="0" bar:type="" class="st31" d="M1771.4,1942.1c-4.5,4.5-5.1,15.6-1.3,23.4
		c1,2.1,3.4,5.9,5.4,8.5c2,2.7,3.6,5.9,3.6,7c0,2.4,4.4,4.9,11.5,6.5c8.9,1.9,14.6,0.8,18.9-3.6c3.8-3.9,4.5-8.5,2.1-14
		c-3.6-8.1-19.4-25.5-25.7-28.3C1780.5,1939.2,1774.1,1939.4,1771.4,1942.1z"/>
	<path id="structure47_label49_C1" bar:growlevel="0" bar:type="" class="st32" d="M1640.9,1980.1c-8.1,2-19.5,9.3-23.6,14.9
		c-7.9,11.2-11.4,30.8-6.8,38.4c3.8,6.4,16.7,8.5,26.1,4.1c10.9-5.1,21.4-14.3,27.6-24.1l3.2-5l-1.8-7c-1-3.8-1.8-8.8-1.8-11.2
		c0-3.4-0.5-4.6-2.4-6.5c-1.4-1.3-3.4-2.8-4.5-3.3C1655.1,1979.5,1644.5,1979.3,1640.9,1980.1z"/>
	<path id="structure49_label51_IOC" bar:growlevel="0" bar:type="" class="st33" d="M1286.9,2031.2c-0.8,0.9-0.7,2.5,0.4,6.5
		c1,3.7,1.3,9.8,1.3,20.6c0,16.2,0.6,20,3.9,24.8c3.5,5.2,7.3,7.1,14.2,7.1c3.3,0,13.3,0.6,22.1,1.3c8.7,0.8,17.1,1.2,18.4,0.9
		c2.3-0.5,2.6-1,2.6-4c0-2.1,1.1-5.7,2.7-8.7c3.1-5.9,3.4-9.8,1.3-12.9c-2.3-3.2-6.8-4.6-18.6-5.5c-19.6-1.5-24.2-3.1-31.4-10.5
		c-4.3-4.5-10.4-13.4-12.4-18.2C1290.1,2029.7,1288.5,2029.2,1286.9,2031.2z"/>
	<path class="st34" d="M1544.6,1439.5c-2.2-2.3-7.6-8.7-11.9-14.4c-13-16.9-17.9-19.4-37.6-19.3c-6.9,0-17.2,0.8-25.2,2
		c-7.4,1.1-23.8,2.8-36.4,3.8c-27.5,2.3-36.5,3.1-51.3,5.4c-16.5,2.5-29.3,3.5-54.9,4.5c-14.6,0.6-30.3,0.8-45.9,0.8v40.3
		c11.7,0,23.4,0.2,37.1,0.5c43.7,1.2,72.7,0.2,98.4-3.3c61.6-8.6,99.7-13,117.3-13.7c9.3-0.4,14.6-0.9,14.6-1.5
		C1548.7,1444,1546.9,1441.8,1544.6,1439.5z"/>
	<path id="structure51_label53_IOD" bar:growlevel="0" bar:type="" class="st35" d="M1371.1,2038.6c-1.5,1.5-0.4,5,2.8,8.1
		c5.6,5.7,13.1,10,26.6,15.5c29.1,12,42.6,18.7,59,29.7c14.4,9.7,25.4,16,41.5,23.9c22.9,11.2,37.5,15.1,56.4,15.2
		c10.6,0.1,12.1-0.1,14.4-1.8c3.7-2.7,6.6-7.4,6.6-10.6c-0.1-15.2-33.8-31.4-119.7-57.7c-14.1-4.2-34.1-10.5-44.5-13.9
		c-10.3-3.4-22-6.8-25.8-7.6C1381.2,2038,1372.2,2037.6,1371.1,2038.6z"/>
	<path class="st3" d="M1345.8,2016.8c-0.3-2.4-2.2-19.6-4.1-38.2c-12.3-115.3-17.2-156-20.3-167.9c-0.7-3-3-8.7-4.9-12.7
		c-4.4-9.1-11.8-16.4-19.3-19.2c-3.7-1.4-9.9-2.3-15.8-2.4v12.5c0.8-0.2,1.6,0.1,2.3,1c4.2,5.7,5,23.8,5,131
		c0,57.9,0.4,95.5,0.9,96.3c0.7,1.2,1.2,1.2,3.5-0.3c3.6-2.2,10.9-2,16.3,0.4c3.3,1.4,4.8,1.6,6.1,0.9c2.6-1.4,11.3-1.2,18.6,0.4
		c3.5,0.7,7.7,1.6,9.4,1.9l3.1,0.5L1345.8,2016.8z"/>
	<path class="st6" d="M1289,2025.6c-0.3-2.3-0.9-53.5-1.3-113.6c-0.7-106.6-1-115.6-3.7-120.5c-0.6-1.2-1.7-1.8-2.7-1.8v237.2l2.2,2
		c1.5,1.4,2.8,1.9,4.1,1.4C1289.5,2029.8,1289.6,2029.3,1289,2025.6z"/>
	<path class="st36" d="M1560.7,1485c-10.3-4-73.6-2.6-138,2.8c-16.5,1.3-32.5,1.5-140.9,1.5c-0.2,0-0.3,0-0.5,0v61.3
		c54.5,0,63-0.4,100.8-5.5c83.3-11.1,138.6-25.9,167.5-45C1559.7,1493.6,1564.7,1486.6,1560.7,1485z"/>
	<path id="structure60_label63_RVRG" bar:growlevel="0" bar:type="" class="st37" d="M1645.2,1937.8c0.2,7.1-0.1,8.4-2.4,12.6
		c-4.1,7.6-12.3,12-22.1,12c-10.2,0-20-4.8-30.2-14.7c-8.9-8.7-8.9-7.6,0,12.9c8.5,19.6,16.9,40.1,17.8,43.4c0.9,3.9,2.7,3,5-2.4
		c2.6-6.3,8-12.2,14.9-16.2c6.5-3.9,15.4-6.8,20.6-6.8c3.8,0,10.6,2.6,11.7,4.4c0.4,0.5,1.3,1,2,1c0.9,0,1.3-1.2,1.3-4.8
		c0-6.8,1.4-15.2,4.2-24.3l2.4-7.9l-3.6-3.5c-3.7-3.7-18.7-13.5-20.6-13.5C1645.5,1930,1645.2,1932.2,1645.2,1937.8z"/>
	<path id="structure61_label64_IOB" bar:growlevel="0" bar:type="" class="st38" d="M1357.8,2073.4c-4,2.6-7.1,8.8-7.1,14.1v4.1
		l6.6,1.5c4.2,1,12,4.3,22.2,9.5c8.6,4.4,18,8.7,20.8,9.5c5.3,1.5,9.8,4.4,9.8,6.3c0,2,10.7,6,17.3,6.6c4.8,0.4,6.6,0.2,8.4-1
		c4.4-2.9,3.2-5.3-7.6-15.8c-5.4-5.2-12.2-12.9-15.2-16.8c-3.1-4.1-7.2-8.6-9.3-10.1c-6.8-5-25.6-10.1-37.2-10.1
		C1362.1,2071.3,1360.1,2071.8,1357.8,2073.4z"/>
	<path class="st9" d="M1345.8,2016.8c-0.3-2.4-2.2-19.6-4.1-38.2c-12.3-115.3-17.2-156-20.3-167.9c-0.7-3-3-8.7-4.9-12.7
		c-4.4-9.1-11.8-16.4-19.3-19.2c-3.7-1.4-9.9-2.3-15.8-2.4v12.5c0.8-0.2,1.6,0.1,2.3,1c4.2,5.7,5,23.8,5,131
		c0,57.9,0.4,95.5,0.9,96.3c0.7,1.2,1.2,1.2,3.5-0.3c3.6-2.2,10.9-2,16.3,0.4c3.3,1.4,4.8,1.6,6.1,0.9c2.6-1.4,11.3-1.2,18.6,0.4
		c3.5,0.7,7.7,1.6,9.4,1.9l3.1,0.5L1345.8,2016.8z"/>
	<path id="structure64_label67_InM" bar:growlevel="0" bar:type="" class="st39" d="M1390,1697.1c-0.3,1.6-1.1,7.7-1.8,13.3
		c-1.8,13-5,24.1-10.2,35c-6,12.9-5.2,13.9,4.1,5.3c18.9-17.6,31.7-29.3,42.2-38.9c6.6-5.9,11.9-11.2,11.9-11.8
		c0-0.7-2.9-1.3-9.6-1.6c-8.8-0.5-26.1-2.5-33.3-3.9C1390.5,1694,1390.4,1694.2,1390,1697.1z"/>
	<path id="structure65_label68_Gr" bar:growlevel="0" bar:type="" class="st40" d="M1509.8,1551.1c-5.5,3-26.7,11.3-37.6,14.9
		c-12.7,4-34.9,9.8-44.3,11.3c-3.9,0.6-7,1.6-7,2.1c0,0.5,1.8,1.9,4,3.1c2.2,1.2,7.1,4.8,11,8c4,3.2,10.9,8.7,15.5,12.2l8.4,6.3
		l20.4,1.6c11.3,0.9,21.5,1.6,22.8,1.7c2.3,0,2.5-0.5,5.3-10c4.5-15.4,7.2-29.9,7.8-42C1516.6,1547.9,1516.5,1547.6,1509.8,1551.1z"
		/>
	<path id="structure66_text3099_10N" bar:growlevel="0" bar:type="" class="st41" d="M1343.3,1648.8c-8.6,1.4-15.2,3.6-18.2,5.9
		c-2.1,1.6-2.3,2.5-2.3,6.9c0.1,9.7-0.5,9.2,24.8,18.7c12.4,4.7,26.4,9.5,31.1,10.6c16.1,4,37.2,6.8,51.9,6.8h9.2l0.9-3.4
		c1.4-4.9,1.3-7.2-0.9-11.7c-3.8-7.8-16.4-14.6-48.2-25.9C1365.4,1647.6,1357.9,1646.3,1343.3,1648.8z"/>
	<path id="structure68_text3101_SolVL" bar:growlevel="0" bar:type="" class="st42" d="M1531.2,1657.8c-0.5,2.6-1.5,5-3.3,6.8
		c-1.4,1.5-2.6,3.5-2.6,4.4c0,2.4,10.5,16.7,16.2,21.9c6.6,6.1,10.7,8.3,13.9,7.5c4-1,11.7-9.6,15.3-17.1c1.7-3.6,3.2-7.2,3.2-8
		c0-0.8-4-4.2-9.4-7.8c-5.1-3.5-9.8-6.9-10.4-7.7c-0.8-1-2.3-1.2-6.2-0.8c-3.9,0.4-6.2,0.1-10-1.4c-2.7-1.1-5.2-1.9-5.5-1.9
		C1532,1653.7,1531.5,1655.5,1531.2,1657.8z"/>
	<path id="structure69_text3105_SolDL" bar:growlevel="0" bar:type="" class="st43" d="M1425.8,1605.6c-18,10-32.6,10-39.2,0
		c-2.4-3.7-2.5-3.7-11.3-0.5c-2.7,1-4.9,2.3-4.9,2.9c0,2,18.8,16.3,26.7,20.3c4.3,2.2,6.7,2.3,13.9,0.8c4.9-1,8.3-0.5,17.7,2.4
		c1.6,0.5,2,0.4,2-1.2c0-4.9,5-5.7,10.5-1.4c1.5,1.2,3.2,2.2,3.4,2.2c0.3,0,2-1.1,3.7-2.3c1.7-1.4,4.6-2.9,6.4-3.5
		c1.9-0.6,3.4-1.7,3.4-2.4c0-2.1-22.2-21.5-24.5-21.3C1433.4,1601.6,1429.8,1603.4,1425.8,1605.6z"/>
	<path class="st44" d="M1339.2,1584.1c-18.7,0.5-44.7,0.7-57.9,0.7v96.7c2.8,0.1,5.7-0.2,8.2-1c5.5-1.7,7.2-4.1,8.1-12.1
		c0.8-7.5,2.9-12.1,6-13.5c2.5-1.1,2.5-1.8-0.3-5.1c-5.1-6.1-1-19.8,9.2-30.6c9.8-10.3,31.8-23.1,52.2-30.5
		C1378.9,1583.7,1377.5,1583.4,1339.2,1584.1z"/>
	<path id="structure70_text3107_SollM" bar:growlevel="0" bar:type="" d="M1432.3,1627.3c-1.3,1.3-0.5,6.6,1.6,11.3
		c3.4,7.5,3.9,13,1.2,16.8c-2.7,4-8,7-13.5,7.7c-2.8,0.4-4.3,1.1-4.3,1.8c0,0.7,3,2.7,6.6,4.5c3.5,1.8,8.2,4.7,10.3,6.4
		c3.7,3.1,7.4,8.7,7.4,11.5c0,3,6.4,0.5,10.3-4c6.3-7.6,5.1-22.3-3.1-38.3c-2.2-4.1-3.6-8.1-3.6-9.9c0-2.6-0.6-3.6-3.8-5.8
		C1438,1626.9,1433.7,1625.9,1432.3,1627.3z"/>
	<path id="structure74_label73_IOPr" bar:growlevel="0" bar:type="" class="st45" d="M1427.1,2085.8c-1.4,1.4-1.7,2.4-1.3,4.7
		c1.4,6.7,9.2,14.8,16.5,17.3c24.2,8.6,38.2,14.9,38.7,17.7c0.5,2.5-2.4,2-9.8-1.5c-7.7-3.7-13.7-4.2-15.2-1.4
		c-1.4,2.5-1.2,3.2,1.3,6.2c2.6,3.1,12.6,7.6,20.9,9.3c7.1,1.4,14.2,0.1,18.3-3.7c6-5.7,2.2-11.7-13-20.3
		c-8.3-4.7-15.8-9.5-30.4-19.6C1438.3,2084.2,1431,2081.8,1427.1,2085.8z"/>
	<path id="structure75_label74_IOBe" bar:growlevel="0" bar:type="" class="st46" d="M1294.4,2016.8c-4.3,1.9-5.3,3.6-4.7,8.6
		c1.1,9,11.9,25.7,19.9,30.6c3.6,2.2,12.9,4.1,24,5c7.3,0.5,7.9,0.4,8.8-1.3c2.3-4.2,1.3-6.5-9.1-20.2c-8.5-11.3-11.1-14-16-17.3
		C1307.3,2015.7,1300.5,2014.1,1294.4,2016.8z"/>
	<path id="structure76_label75_IOVL" bar:growlevel="0" bar:type="" class="st47" d="M1317.6,2017.9c-4,0.5-3.7,2,1.3,5.3
		c2.9,1.9,7.5,7.1,14.8,16.7c11.3,14.8,13.7,16.7,19.3,15.7c3.8-0.7,4.5-2.2,5.3-10.4c1.4-14.9-4.3-21.7-21.4-25.5
		C1330.3,2018.2,1321.8,2017.4,1317.6,2017.9z"/>
	<path class="st11" d="M1285.2,2032.3c-1.4-3.1-2.5-4.2-3.9-4.2v110.7c1.7,0,2-0.9,4.7-15.8c0.8-4.5,1.2-18,1.2-46.4
		C1287.2,2037.4,1287.2,2036.6,1285.2,2032.3z"/>
	<path id="structure78_label77_IRt" bar:growlevel="0" bar:type="" class="st23" d="M1663.5,2015.1c-8,12.7-27.1,25.7-37.9,25.7
		c-1.9,0-3.1,0.5-3.1,1.1s3.5,3.8,7.7,6.8c8.2,6.2,14.6,13.3,15.4,17.5c0.3,1.4,1,2.5,1.6,2.5c2.1,0,12.9-12.3,18.7-21.2
		c3.3-5.1,8.3-11.3,11.8-14.5c3.2-3.1,5.9-6.2,5.9-6.8c0-0.7-1.3-1.8-2.7-2.4c-2.7-1.1-11.7-10.2-11.7-11.8
		C1669.3,2009.6,1665.9,2011.5,1663.5,2015.1z"/>
	<path id="structure79_label78_LRtS5" bar:growlevel="0" bar:type="" class="st48" d="M1702.6,1934.7c0,0.7,1.1,1.9,2.3,2.6
		c3.4,1.8,8.6,8,11.3,13.6c3.6,7.4,7.8,20.7,9.5,30.2c1.5,8.4,1.1,16-1.2,23.6c-0.5,1.9-0.4,2.1,1.5,1.7c12.5-2.6,26.5-5.8,34.6-7.7
		c9.8-2.4,9.8-2.4,13.2-6.9c1.9-2.5,3.9-5.9,4.4-7.7c1.4-4.6-1.3-9.5-9.9-17.8c-18.6-18-41-30-60.5-32.1
		C1703.6,1933.5,1702.6,1933.6,1702.6,1934.7z"/>
	<path id="structure7_label8_12N" bar:growlevel="0" bar:type="" class="st49" d="M1320.1,1683.9c-17.7,4.8-30.6,27.5-30.6,54
		c0,19.9,6.6,35.2,17,39.8c4.3,1.9,29.9,2.6,37,1.1c22-4.9,39.2-31.5,44.5-68.8c2.3-16.3,2.6-15.6-7.7-18.1
		C1343.1,1682.7,1330.8,1681.1,1320.1,1683.9z"/>
	<path id="structure80_text3108_PSol" bar:growlevel="0" bar:type="" class="st50" d="M1415.5,1581.9c0,4,3.7,7.9,15.5,16.7
		c6.6,4.9,15.4,12,19.5,15.8c8.1,7.5,10.5,9,15.4,9.9c1.7,0.3,7.8,2.3,13.5,4.6s15,5.5,20.7,7.2c18.1,5.5,28.9,10.8,30.2,14.8
		c0.6,2,8.4,5.3,14,6.1c8.9,1.3,9.5-6.5,0.8-11c-1.4-0.7-12.5-5-24.5-9.4c-46.4-16.9-55.2-21.6-82.9-44.6
		C1424.3,1581.1,1415.5,1577,1415.5,1581.9z"/>
	<path id="structure81_text3110_SolG" bar:growlevel="0" bar:type="" class="st51" d="M1404.2,1582.1c-2.4,1.2-6.9,4-10,6.2
		c-10.5,7.7-11.8,16-3.4,21.3c8.1,5.1,18.6,4.2,32.1-2.6c10.3-5.2,10.8-6.5,3.9-11.3c-6.4-4.4-11-9.4-11.8-13.1
		c-0.5-2.4-1-2.8-3.4-2.8C1410,1579.9,1406.7,1580.9,1404.2,1582.1z"/>
	<path id="structure84_label81_cbw" bar:growlevel="0" bar:type="" class="st4" d="M1621.6,1088.1c0,3.2,3.6,10.2,16.5,31.4
		c12.9,21.3,30.6,48.6,39.2,60.3c12.8,17.2,53.6,62.8,81.1,90.8c23.4,23.8,39.7,38.4,93.7,84.5c20.2,17.1,40.7,35,45.6,39.7
		c6.6,6.2,9.7,8.6,11.4,8.6c2.1,0,2.3-0.4,2.3-3.9c0-2.1-0.7-4.9-1.6-6.1c-2.4-3.9-62.5-63.4-85.2-84.5
		c-11.4-10.6-33.8-31.3-49.9-46c-68.6-62.5-106.2-105.8-139-160.1c-4.4-7.2-8.7-13.9-9.8-15.1
		C1623.3,1085.1,1621.6,1085.3,1621.6,1088.1z"/>
	<path id="structure85_label82_dsc-oc" bar:growlevel="0" bar:type="" class="st52" d="M1709.9,1535.4c-0.6,1.7-2.5,5-4.2,7.2
		c-1.7,2.3-3.1,4.5-3.1,4.9c0,0.5,2.5,0.9,5.8,0.9c10.7,0,37.1,5.2,61.1,12.2c18.4,5.3,27,8.6,36.8,14.6
		c22.5,13.6,40.5,30.6,70.7,67.2c20.5,24.8,37.9,64.4,43.9,100c1.9,10.9,2.2,39.5,0.5,53.1c-3.7,30.5-10.6,58.6-20.9,84.4
		c-9.5,23.7-24.5,46-43.7,64.6c-13.9,13.4-27.6,22-39.2,24.4l-5.2,1.1l0.5,4.2c0.4,3.4,0.1,4.9-1.4,7.5c-1.2,1.8-2.5,3.5-3.2,3.9
		c-0.6,0.4-2.8,2.8-4.8,5.3c-6,7.6-18.9,20.8-31.2,31.8c-22.8,20.4-33.2,27.7-56.2,39.7c-15,7.8-25.7,14.1-56.5,33.8
		c-8.1,5-10.3,7.6-6.6,7.6c2.8,0,31.6-12.8,56-24.8c35.7-17.7,52.7-27.8,64.7-38.8c57.2-51.6,93.9-86,104-97.7
		c31-36.2,46.6-74.6,53.6-132.9c1.5-12.5,1.4-51.7-0.1-64.3c-5.8-49-21.6-88.5-49.6-124.7c-22-28.3-53.5-52.7-75.1-58
		c-18.3-4.5-41.6-11.7-66.4-20.4c-15.2-5.4-28-9.8-28.4-9.8S1710.5,1533.6,1709.9,1535.4z"/>
	<path id="structure86_label83_sp5" bar:growlevel="0" bar:type="" class="st53" d="M1697.4,1549.4c-9.5,1.6-19.9,5.9-33.5,14
		c-12.1,7.1-14.4,10-14.4,18.4c0,8,0.9,10.2,5.6,12.8c9.5,5.5,27.8,8.6,57.9,9.6c24.8,0.9,35.6,2.3,54.5,7.6
		c32.2,8.8,59.3,25.1,82.8,49.7c33.9,35.5,49.7,80.1,46,130.2c-2.5,34-11.5,61.6-28.7,87.6c-15.9,24.3-42.8,48.1-69.3,61.5
		c-3.1,1.5-5.6,3.3-5.6,4c0,0.5,3.3,4.7,7.3,9.2c4,4.4,8.3,9.8,9.6,11.9c2.3,3.6,2.6,3.9,5.6,3.3c19.9-3.4,41.2-20.3,63.2-49.7
		c20.2-27,34.2-65.5,41.3-113.6c2.3-15.6,3.2-44.2,1.8-56.3c-3-25-10.3-48.2-23.6-74.3c-10.1-19.9-13.3-24.4-41.4-56.7
		c-24.5-28.3-47.5-44.9-74.3-53.7C1749.5,1554,1710.9,1547,1697.4,1549.4z M1764.7,1569c4.8,1,11.9,2.8,15.8,4.1
		c30,10,72.6,42.7,75.7,57.8l0.5,2.9l-5.2-1.6c-7.9-2.4-16.1-6.1-22.5-10.1c-3.2-1.9-8.5-5.2-11.8-7.3c-13.2-8.2-35.9-16.7-54-20.4
		c-6.6-1.4-13.8-2-25.6-2.3c-22.9-0.5-33.8-3-38.9-8.6c-1.6-1.8-1.7-2.1-0.3-5c2.4-5,11.3-9.1,24.5-11.3
		C1730.8,1566,1754.7,1567,1764.7,1569z"/>
	<path id="structure87_label85_vsc" bar:growlevel="0" bar:type="" class="st54" d="M1709.9,1535.4c-0.6,1.7-2.5,5-4.2,7.2
		c-1.7,2.3-3.1,4.5-3.1,4.9c0,0.5,2.5,0.9,5.8,0.9c10.7,0,37.1,5.2,61.1,12.2c18.4,5.3,27,8.6,36.8,14.6
		c22.5,13.6,40.5,30.6,70.7,67.2c20.5,24.8,37.9,64.4,43.9,100c1.9,10.9,2.2,39.5,0.5,53.1c-3.7,30.5-10.6,58.6-20.9,84.4
		c-9.5,23.7-24.5,46-43.7,64.6c-13.9,13.4-27.6,22-39.2,24.4l-5.2,1.1l0.5,4.2c0.4,3.4,0.1,4.9-1.4,7.5c-1.2,1.8-2.5,3.5-3.2,3.9
		c-0.6,0.4-2.8,2.8-4.8,5.3c-6,7.6-18.9,20.8-31.2,31.8c-22.8,20.4-33.2,27.7-56.2,39.7c-15,7.8-25.7,14.1-56.5,33.8
		c-8.1,5-10.3,7.6-6.6,7.6c2.8,0,31.6-12.8,56-24.8c35.7-17.7,52.7-27.8,64.7-38.8c57.2-51.6,93.9-86,104-97.7
		c31-36.2,46.6-74.6,53.6-132.9c1.5-12.5,1.4-51.7-0.1-64.3c-5.8-49-21.6-88.5-49.6-124.7c-22-28.3-53.5-52.7-75.1-58
		c-18.3-4.5-41.6-11.7-66.4-20.4c-15.2-5.4-28-9.8-28.4-9.8S1710.5,1533.6,1709.9,1535.4z"/>
	<path class="st55" d="M1537.9,925.5c-2.7-14-14.4-26.7-32.8-35.4c-3.5-1.6-11.6-5-18.1-7.3c-17.1-6.2-34.5-14.9-55.4-28
		c-29.3-18.3-40.1-23-61.6-27.3c-19.7-3.9-53.4-6.1-88.7-6.2v133.5c0.2,0,0.3,0,0.5,0c48.7,0.1,58.3,0.3,68.4,1.6
		c16.7,2.3,47.3,5.7,62.5,7.1c17.6,1.5,69.1,1.5,78.8,0c19.2-3.1,32.8-8.5,40.2-15.9C1538.7,940.7,1539.9,936.3,1537.9,925.5z"/>
	<path class="st21" d="M1868.8,1533.2c-0.4-7-0.8-8.5-5.2-17.1c-15.1-30-60.7-89.2-124.1-161.6c-43.9-50.1-77.2-93.7-114.9-150.3
		c-25.7-38.6-36.5-56.8-54.3-91.3c-19.4-37.5-26.7-48.8-40.7-61.7c-18.6-17.1-41.7-24.8-91.3-30.1c-32-3.4-46.4-3.9-99.3-3.1
		c-30.4,0.5-42.9,0.7-57.6,0.7v55.1c9.8,0,22.5-0.6,46.3-1.8c16-0.8,98,1.2,108.4,2.5c30.4,4.2,58.1,13.7,77.7,26.6
		c13.8,9.1,23,20.1,34.4,40.5c36.3,65.4,89.9,151.7,115.5,185.9c23.8,31.7,64.5,76,111,120.5c26.9,25.8,32,31.9,36.8,45.4
		c2.5,6.8,2.3,15-0.5,18.9c-10.5,14.3-45,4.9-110.8-30c-59.2-31.5-80.5-47.4-102.3-76.1c-16.2-21.5-29.5-47.8-53.6-106.1
		c-22.9-55.4-33.8-74.5-54.7-95.7c-28.6-29-57.1-43.7-96.9-50.1c-26.5-4.3-40.8-4.9-111.2-4.9v60.5c33.3,0.5,96.6,8.4,137.4,17.6
		c31.2,7,50.3,15.1,59.2,25c10.7,11.9,19.8,28.5,27.8,50.9c10.2,28.2,26.5,64.6,37,82.6c2.9,4.9,9.2,14.2,14,20.7
		c13.3,17.7,20.6,31.1,20.6,37.5c0,2.3,0.5,3.2,2.1,4c1.1,0.5,4.7,3.3,7.9,6.3c19.7,17.9,40.1,30.6,74.3,46.1
		c18.7,8.5,37.3,19.4,45.4,26.7c5.4,4.9,54.9,22.1,93.2,32.4c19.6,5.3,41.7,5.2,53.5-0.2C1865.2,1554.3,1869.7,1546.5,1868.8,1533.2
		z"/>
	<path class="st34" d="M1544.6,1439.5c-2.2-2.3-7.6-8.7-11.9-14.4c-13-16.9-17.9-19.4-37.6-19.3c-6.9,0-17.2,0.8-25.2,2
		c-7.4,1.1-23.8,2.8-36.4,3.8c-27.5,2.3-36.5,3.1-51.3,5.4c-16.5,2.5-29.3,3.5-54.9,4.5c-14.6,0.6-30.3,0.8-45.9,0.8v40.3
		c11.7,0,23.4,0.2,37.1,0.5c43.7,1.2,72.7,0.2,98.4-3.3c61.6-8.6,99.7-13,117.3-13.7c9.3-0.4,14.6-0.9,14.6-1.5
		C1548.7,1444,1546.9,1441.8,1544.6,1439.5z"/>
	<path class="st7" d="M2072.1,1206c-6.8-27.7-24.3-80-38.5-115c-27.7-68.5-56-108-96.8-135.3c-19.5-13-54.5-27.9-82.3-34.9
		c-18.5-4.7-25.1-5.5-48.1-5.5c-23.6,0-26.8,0.5-49.5,6.3c-29.5,7.7-58,11.3-105.6,13.1c-31.8,1.3-49.8,4.5-63.5,11.4l-4.3,2.3
		l-2.5-2.4c-3.9-3.7-7.6-11.3-12.2-25.2c-6.2-18.9-12.1-28.9-25.1-42.6c-15.8-16.6-48.4-38.7-73.9-49.9
		c-44.4-19.6-113.1-35.6-173.2-40.2c-6.4-0.5-10.9-0.7-15.4-0.7v33.5c25.3,0.2,52.5,0.9,61,1.8c16.3,1.8,27.1,3.6,38.3,6.6
		c16.1,4.2,23.3,7.6,49.1,23.7c27.9,17.3,37.3,22,57.6,29.3c29.9,10.6,45.1,22.7,50.4,40c4.8,15.4,0.2,25.2-16,33.7
		c-14.8,7.8-33.3,10.8-66.8,10.8c-24.4-0.1-46.5-1.6-77.4-5.3c-40.1-4.9-41.7-4.9-83.7-5.3c-4.5,0-8.6-0.1-12.6-0.1v62.3
		c12.6,0,26.2-0.2,44.7-0.7c58.4-1.4,91.4-0.1,127.6,5.1c41.1,5.9,60,13.4,78.1,30.9c13.4,13,20.3,23.6,41,63.9
		c17.1,33,32.1,58,57.5,95.5c37.7,55.6,67.4,94,110.8,143.5c61.7,70.3,106.8,129.3,122.9,160.7c5.6,11,9.4,15.4,18.1,21.3
		c16.3,11.1,35.2,16,58.7,15.5l13.3-0.4l6.9-3.4c30.8-15.2,69.8-71.6,78.4-113.5c1.8-8.7,1.9-24.7,0.1-31.6
		c-2.1-8.2-7.2-17.9-12.2-22.9c-2.4-2.4-4.1-4.5-3.7-4.5c0.4,0,1.1,0.4,1.7,1.1c2,2,9.4,1.3,13.8-1.3c8.6-5,20.3-20.1,28.5-36.3
		c9.4-19,11.3-31,11.3-70.6C2079.1,1240.5,2078,1229.9,2072.1,1206z M2003.7,1439.4c-5.5,8.6-15.4,18.7-25.4,26.2
		c-10.6,8-14.4,13.2-24.3,33.9c-8.1,16.9-11.4,21.5-16.2,22.4c-9.5,1.8-38.3-14.1-54-29.8c-10.4-10.3-13.9-16.3-23.3-39.4
		c-15.3-37.5-21.8-48.9-44.9-78.5c-23.4-30-34.8-42.8-67.5-75.6c-36.3-36.5-61.3-64.2-76.3-84.2c-23.7-31.8-53.6-76.9-69.6-104.8
		c-19.3-33.7-36.7-80.2-38-101l-0.5-8.3l2.8-2.7c3.4-3.4,8.5-3.8,14.4-0.8c5.1,2.4,15,11.8,20.8,19.5c2.4,3.2,9.4,13.9,15.4,23.5
		c35.3,56.2,75.2,110.8,109.4,149.4c30.8,34.8,84.5,80,184.9,155.3c37,27.8,53.1,39.1,76,53c19.2,11.6,20.9,12.8,23,16.2
		C2013.9,1419.6,2012.2,1426.5,2003.7,1439.4z M1730.5,1137.5c0-0.7,0.7-0.3,1.9,1.2s1.1,1.5-0.3,0.4
		C1731.2,1138.4,1730.5,1137.6,1730.5,1137.5z M1742.4,1149.7c0.2,0,1.3,1,2.5,2.3c1.2,1.3,1.9,2.3,1.6,2.3c-0.2,0-1.4-1-2.5-2.3
		C1742.8,1150.7,1742.1,1149.7,1742.4,1149.7z M1786.5,1193.8c0.2,0,1.3,1,2.5,2.3c1.2,1.3,1.9,2.3,1.6,2.3c-0.2,0-1.3-1-2.5-2.3
		C1786.9,1194.8,1786.2,1193.8,1786.5,1193.8z M2045.8,1308.8c-4.1,12.1-10.3,15.1-22.8,10.9c-21.7-7.4-55.6-30.6-108.1-74.2
		c-57-47.3-93-80-146.6-133.2c-58-57.5-89.6-90.9-92.9-98.1c-2.4-5.3-2.2-7.4,1.7-11.3c3.8-3.9,11.4-6.6,22.2-8
		c10.7-1.4,42.8-0.4,52.7,1.6c24.4,5,41.6,13.4,55.3,26.8c3.5,3.3,16.2,17.5,28.3,31.3c17.6,20.3,32,35.4,73.3,76.6
		c57.3,57.2,74.2,72.4,97.8,88.4c27.2,18.2,39.4,35.4,41.8,58.7C2049.3,1285.5,2047.7,1303.1,2045.8,1308.8z"/>
	<path class="st4" d="M1812.1,1501.1c-0.5-6.5-3.8-14.3-9.7-22.9c-4.2-6.3-10.4-12.6-39-40c-44.4-42.4-86.2-89.4-110-123.3
		c-26.7-38.1-72.4-112.4-104.3-169.6c-10.8-19.4-12.6-22-20.9-30.7c-19.3-20.2-53.6-34.2-95.7-39.2c-12.2-1.3-14.7-1.4-151.2-1.2
		v23.5c13.2,0,26.3,0.2,36.9,0.7c56,2.6,97.2,8.9,132.8,20.4c25.7,8.3,44.7,19.8,63.7,38.5c21.8,21.5,39.1,48.4,67.5,105.3
		c8.9,17.8,19.6,38.6,23.9,46.3c17.3,31.5,41.5,69.8,56.4,88.9c7.8,10,19.6,22.7,21.2,22.7c0.5,0,0.8,0.4,0.8,0.9
		c0,1.8-5.2,0.8-10.6-1.9c-6.9-3.4-21.9-17.5-31.8-29.9c-17.5-21.9-36-51.9-72.4-117.6c-20.9-37.7-26.6-47.5-35.9-61.2
		c-18.5-27.4-39.4-48.3-61.5-61.5c-26.3-15.8-62.8-26.1-110.1-31c-13.6-1.4-24.4-1.6-80.1-1.6c-0.3,0-0.6,0-0.9,0v31.3
		c56.2-0.3,72.7,0.2,97.2,3c45.9,5.1,77.5,19.5,109.3,49.9c21.2,20.3,33.7,41.8,58,100.4c31.2,75.3,43.7,97.3,70.2,123.8
		c20.9,20.8,42.3,34.6,96.8,62.6c25.7,13.1,40.1,19.5,55.3,24.5C1798.5,1522,1813.5,1518.2,1812.1,1501.1z"/>
	<path class="st26" d="M1781.5,1993c-8,2.5-19,5.6-24.5,6.8c-45.4,10.4-49.8,11.9-63.5,21c-13.5,8.9-19.7,14.9-27.5,26.6
		c-6,9.2-17.4,22-19.4,22c-0.4,0-0.8,0.5-0.8,1.2c0,2.1-8.5,13.4-13.7,18.3c-6.8,6.4-9.8,7.8-18,8.3c-8.9,0.5-11.9-0.5-29-10.1
		c-15.1-8.5-32-16.7-38.7-19c-2.4-0.8-8.9-2-14.4-2.7c-17.2-2.3-23.5-4.2-31.4-10.1c-8.9-6.6-14.1-18.2-17.8-39.4
		c-4-22.7-0.1-45,10.7-61.5c4.7-7.1,9-9.6,16.3-9.6c11.3,0.1,19,5.9,33.6,25.2c4.7,6.1,14.2,16.8,22.2,24.8
		c16.4,16.4,38.5,35.9,40.9,35.9c1.4,0,1.5-0.9,1.5-6.4c0-3.4,0.4-8.1,1-10.3c0.9-3.6,0.7-4.9-1.4-11.4c-4.8-14.5-29.3-70.6-38-87.1
		c-22.1-42-78.5-129.1-117.1-180.9c-13.1-17.5-20.8-27-22.1-27c-1.2,0-15.8,12.9-35.2,31c-6.9,6.5-15.9,14.8-20.1,18.5
		c-8.5,7.6-8.3,6.3-3.8,19.2c4.8,13.6,3.5,28.3-3.1,35.2c-2.6,2.9-3.5,3.2-7.4,3.2c-5.8,0-8.8-1.9-17.9-11.3
		c-9.2-9.4-27.6-23.3-32-24.2c-11.1-2.1-18.7-13.4-21.6-32c-3.1-20.8,5.9-47.5,19.6-58.1c8.2-6.3,16.6-7.9,32.9-6.3
		c5.8,0.5,6.9,0.5,6.9-0.7c0-0.9-3.5-2.5-10.7-5.1c-5.9-2.1-11.5-4.3-12.5-5c-2-1.4-3.8-7.5-3.8-12.7c0-1.9-0.6-4.4-1.4-5.5
		c-1.3-1.9-1.9-2-7.4-1.4c-3.3,0.4-6.7,1.1-7.4,1.7c-0.7,0.5-2.1,1.3-3,1.6c-2.3,0.8-4.1,5.7-4.8,12.9c-0.8,8-3.7,11.3-11.4,13
		c-1.7,0.3-3.4,0.5-5.1,0.5v94.4c10.8,0,11.5,0.1,17.3,2.9c14.3,6.8,22.1,20.5,25.9,46.1c2.7,17.5,7.3,57.3,14.4,124
		c7.6,71.6,7.7,72.4,9.5,73.6c3.9,2.3,6.9,5.5,8.6,8.8c1.5,3.1,1.8,4.9,1.4,12.1c-0.4,7.7-0.5,8.6-2.5,10.3
		c-1.9,1.5-3.1,1.7-6.8,1.3c-3.8-0.5-4.8-0.3-5.2,0.9c-1.3,3.2-0.5,4.7,2.6,5.8c3.6,1.2,8.5,5,8.5,6.6c0.1,3,1.5,3.6,6.1,2.5
		c7.3-1.8,24.8,1.3,35.7,6.2c7,3.1,10.7,6.4,17.9,16c3.2,4.3,9.4,11.1,13.7,14.9c11.1,10.2,12.4,14.7,5.1,16.6
		c-1.9,0.5-5.5,0.7-8.1,0.4c-6.1-0.6-6.5,1.3-0.9,4c9.4,4.6,38.7,25.2,41.6,29.3c2.1,3,1.6,4.8-1.8,8.1c-6.7,6.5-4.2,6.5,21.4,0.1
		c26.6-6.7,50.4-15.4,102.3-37.3c13.1-5.6,28.7-11.9,34.6-14.1c12.2-4.5,15.3-6.2,44.6-24.8c23.8-15.2,39.6-24.5,54.3-31.8
		c16.9-8.6,30.9-18.8,54-39.7c12.8-11.7,27.6-27.4,27.6-29.5C1803.4,1987.4,1796.6,1988.3,1781.5,1993z M1497.7,2133.3
		c-5,7.1-19,7.1-34.3-0.1c-7.7-3.6-10.5-9-6.4-11.9c3-2.1,4.6-1.8,13.4,2.2c8.6,3.9,10.7,4.3,10.7,2.3c0-2.5-12.8-8.6-31.9-15.3
		c-13.3-4.6-18.1-8.1-22.3-16.4c-2.6-5-1.4-9,3-10.4c2.1-0.6,6.8,0.6,12,3.3c2.6,1.3,10.1,6.1,16.6,10.8
		c6.5,4.7,15.6,10.5,20.3,13.1C1497.6,2121.4,1502.1,2126.9,1497.7,2133.3z M1570.5,2130c-3.6,1.7-5.5,2.1-12.8,2
		c-26.4-0.3-56.4-12.5-98.7-40.1c-14.8-9.6-33-18.8-55.4-28c-16.6-6.8-22.6-10.2-29.2-16.6c-5.3-5.1-5.8-7.1-2.1-9.1
		c2.8-1.4,9.1-0.8,20.7,2.1c4.7,1.2,12.8,3.6,18,5.4c5.2,1.7,24.5,7.8,42.8,13.5c81.3,25.1,112,38.2,121.9,51.8
		C1580.7,2118,1578.6,2126,1570.5,2130z"/>
	<path id="structure97_label103_SolM" bar:growlevel="0" bar:type="" class="st56" d="M1358.9,1613.2c-11.3,6.8-19.1,13.6-30,26.4
		c-9.4,11-9.9,11.7-8.7,13.8c1.4,2.7,1.4,2.7,6.8,0c6.7-3.3,14.2-5.1,24.6-5.7c10.7-0.5,16.6,0.6,34.5,6.9
		c10.2,3.6,13.2,4.2,13.2,2.8c0-0.5-0.6-2.3-1.4-4.2c-1.9-4.6-1.2-11,1.9-16.1c2.8-4.9,2.9-6.4,0.2-7.1c-3.1-0.7-12.7-7.1-21.9-14.6
		c-4.6-3.7-9-6.7-10-6.7C1367.1,1608.7,1362.9,1610.7,1358.9,1613.2z"/>
	<path id="structure98_label104_sol" bar:growlevel="0" bar:type="" class="st57" d="M1457.1,1624.9c-5.3,1.1-9.6,4-11,7.3
		c-2.5,5.9,4,18.1,13.4,25.1c9.6,7.3,31,13.6,46.4,13.9c9.5,0.1,10.2,0,15.8-2.8c6.9-3.4,9-6.3,9-12.6c0-3.8-0.4-4.8-3-7.3
		c-1.6-1.6-3.7-2.9-4.6-2.9c-1.4,0-1.5,0.5-1,2.9c1.6,6.8-0.5,11-7.3,14.3c-5,2.4-14.9,3.3-19.6,1.7c-6.5-2.1-11.3-8.1-11.3-13.9
		c0-6.2,6.3-11.2,14.2-11.3c5.3,0,5-2.2-0.5-3.6c-2.4-0.5-9.9-3.2-16.7-5.8C1467.4,1624.6,1463.1,1623.7,1457.1,1624.9z"/>
	<path id="structure99_label105_SolV" bar:growlevel="0" bar:type="" class="st58" d="M1454.5,1658.4c0.4,1.6,0.9,4.4,1.2,6.1
		c0.3,1.7,1.4,5.7,2.6,8.7c2.6,6.7,2.7,9.5,0.4,14.4c-1.2,2.7-3,4.6-5.8,6.3c-2.3,1.4-4.1,3-4.1,3.5c0,1.1,16.4,3.4,34.7,4.9
		c14.8,1.3,59.8,0.6,64.5-0.9c4.1-1.3,4.2-2.8,0.2-5c-4.4-2.3-14.4-13-19.6-21c-4.8-7-5.5-7.4-11.1-5c-10.3,4.3-43.1-2.7-57.2-12.3
		C1455.1,1654.6,1453.8,1654.7,1454.5,1658.4z"/>
	<path class="st59" d="M1812.1,1501.1c-0.5-6.5-3.8-14.3-9.7-22.9c-4.2-6.3-10.4-12.6-39-40c-44.4-42.4-86.2-89.4-110-123.3
		c-26.7-38.1-72.4-112.4-104.3-169.6c-10.8-19.4-12.6-22-20.9-30.7c-19.3-20.2-53.6-34.2-95.7-39.2c-12.2-1.3-14.7-1.4-151.2-1.2
		v23.5c13.2,0,26.3,0.2,36.9,0.7c56,2.6,97.2,8.9,132.8,20.4c25.7,8.3,44.7,19.8,63.7,38.5c21.8,21.5,39.1,48.4,67.5,105.3
		c8.9,17.8,19.6,38.6,23.9,46.3c17.3,31.5,41.5,69.8,56.4,88.9c7.8,10,19.6,22.7,21.2,22.7c0.5,0,0.8,0.4,0.8,0.9
		c0,1.8-5.2,0.8-10.6-1.9c-6.9-3.4-21.9-17.5-31.8-29.9c-17.5-21.9-36-51.9-72.4-117.6c-20.9-37.7-26.6-47.5-35.9-61.2
		c-18.5-27.4-39.4-48.3-61.5-61.5c-26.3-15.8-62.8-26.1-110.1-31c-13.6-1.4-24.4-1.6-80.1-1.6c-0.3,0-0.6,0-0.9,0v31.3
		c56.2-0.3,72.7,0.2,97.2,3c45.9,5.1,77.5,19.5,109.3,49.9c21.2,20.3,33.7,41.8,58,100.4c31.2,75.3,43.7,97.3,70.2,123.8
		c20.9,20.8,42.3,34.6,96.8,62.6c25.7,13.1,40.1,19.5,55.3,24.5C1798.5,1522,1813.5,1518.2,1812.1,1501.1z"/>
	<text id="Unlabeled-1550-1389" bar:growlevel="0" transform="matrix(1 0 0 1 1323.5293 1346.209)" class="st60 st61 st62">cbw</text>
	<text id="Unlabeled-1796-1278" bar:growlevel="0" transform="matrix(1 0 0 1 1319.7178 1250.5078)" class="st60 st61 st62">9a-bCb</text>
	<text id="label33" bar:growlevel="0" transform="matrix(1 0 0 1 1580.8086 923.4648)" class="st60 st61 st62">pms</text>
	<text id="Unlabeled-1500-1539" bar:growlevel="0" transform="matrix(1 0 0 1 1360.7949 1474.3105)" class="st60 st61 st62">10Cb</text>
	<text id="label8" bar:growlevel="0" transform="matrix(1 0 0 1 1319.7676 1736.8184)" class="st60 st61 st62">12N</text>
	<text id="label9" bar:growlevel="0" transform="matrix(1 0 0 1 1339.8652 893.0566)" class="st60 st61 st62">7Cb</text>
	<text id="label2" bar:growlevel="0" transform="matrix(1 0 0 1 1323.5234 1295.7363)" class="st60 st61 st62">9a-bCb</text>
	<text id="label3" bar:growlevel="0" transform="matrix(1 0 0 1 1323.5293 1409.7344)" class="st60 st61 st62">9cCb</text>
	<text id="label5" bar:growlevel="0" transform="matrix(1 0 0 1 1350.0664 1527.3809)" class="st60 st61 st62">10Cb</text>
	<text id="label7" bar:growlevel="0" transform="matrix(1 0 0 1 1617.998 1488.5137)" class="st60 st61 st62">vBrain</text>
	<text id="label85" bar:growlevel="0" transform="matrix(1 0 0 1 1774.5488 2030.0605)" class="st60 st61 st62">vsc</text>
	<text id="label84" bar:growlevel="0" transform="matrix(1 0 0 1 2005.0361 1366.5234)" class="st60 st61 st62">apmf</text>
	<text id="label81" bar:growlevel="0" transform="matrix(1 0 0 1 1891.666 1383.8965)" class="st60 st61 st62">cbw</text>
	<text id="label83" bar:growlevel="0" transform="matrix(1 0 0 1 1903.7275 1723.7969)" class="st60 st61 st62">sp5</text>
	<text id="label82" bar:growlevel="0" transform="matrix(1 0 0 1 1910.2988 1875.3223)" class="st60 st61 st62">dsc-oc</text>
	<text id="label89" bar:growlevel="0" transform="matrix(1 0 0 1 1410.5586 1208.0371)" class="st60 st61 st62">sf</text>
	<text id="text3110" bar:growlevel="0" transform="matrix(1 0 0 1 1395.7109 1602.8652)" class="st60 st61 st62">SolG</text>
	<text id="label18" bar:growlevel="0" transform="matrix(1 0 0 1 1564.8477 1651.6934)" class="st60 st61 st62">Mx</text>
	<text id="label19" bar:growlevel="0" transform="matrix(1 0 0 1 1623.1074 1675.3984)" class="st60 st61 st62">5Sol</text>
	<text id="label13" bar:growlevel="0" transform="matrix(1 0 0 1 1896.0781 1432.9844)" class="st60 st61 st62">PM</text>
	<text id="label10" bar:growlevel="0" transform="matrix(1 0 0 1 1323.5264 1139.8164)" class="st60 st61 st62">8Cb</text>
	<text id="label16" bar:growlevel="0" transform="matrix(1 0 0 1 1601.0586 1538.1836)" class="st60 st61 st62">ECu</text>
	<text id="label17" bar:growlevel="0" transform="matrix(1 0 0 1 1531.877 1590.4219)" class="st60 st61 st62">Cu</text>
	<text id="label14" bar:growlevel="0" transform="matrix(1 0 0 1 1676.8672 1448.3184)" class="st60 st61 st62">Cop</text>
	<text id="label15" bar:growlevel="0" transform="matrix(1 0 0 1 1807.2178 1126.1523)" class="st60 st61 st62">Crus2</text>
	<text id="label92" bar:growlevel="0" transform="matrix(1 0 0 1 1416.3477 1448.2891)" class="st60 st61 st62">plf</text>
	<text id="label99" bar:growlevel="0" transform="matrix(1 0 0 1 1427.8672 1003.459)" class="st60 st61 st62">ppf</text>
	<text id="text3108" bar:growlevel="0" transform="matrix(1 0 0 1 1424.4336 1589.4648)" class="st60 st61 st62">PSol</text>
	<text id="text3105" bar:growlevel="0" transform="matrix(1 0 0 1 1409.2344 1624.0898)" class="st60 st61 st62">SolDL</text>
	<text id="text3107" bar:growlevel="0" transform="matrix(1 0 0 1 1438.5928 1670.4063)" class="st60 st61 st62">SollM</text>
	<text id="text3101" bar:growlevel="0" transform="matrix(1 0 0 1 1540.1064 1681.6992)" class="st60 st61 st62">SolVL</text>
	<text id="label78" bar:growlevel="0" transform="matrix(1 0 0 1 1740.6758 1986.041)" class="st60 st61 st62">LRtS5</text>
	<text id="label68" bar:growlevel="0" transform="matrix(1 0 0 1 1482.7988 1577.3906)" class="st60 st61 st62">Gr</text>
	<text id="label67" bar:growlevel="0" transform="matrix(1 0 0 1 1393.9473 1716.1523)" class="st60 st61 st62">InM</text>
	<text id="label64" bar:growlevel="0" transform="matrix(1 0 0 1 1376.1084 2093.377)" class="st60 st61 st62">IOB</text>
	<text id="label63" bar:growlevel="0" transform="matrix(1 0 0 1 1611.7373 1976.6523)" class="st60 st61 st62">RVRG</text>
	<text id="label107" bar:growlevel="0" transform="matrix(1 0 0 1 1323.5264 2111.4355)" class="st60 st61 st62">ml</text>
	<text id="label105" bar:growlevel="0" transform="matrix(1 0 0 1 1480.1035 1689.8145)" class="st60 st61 st62">SolV</text>
	<text id="label104" bar:growlevel="0" transform="matrix(1 0 0 1 1458.7256 1639.0703)" class="st60 st61 st62">sol</text>
	<text id="label103" bar:growlevel="0" transform="matrix(1 0 0 1 1350.0664 1639.6406)" class="st60 st61 st62">SolM</text>
	<text id="label100" bar:growlevel="0" transform="matrix(1 0 0 1 1483.877 1144.9629)" class="st60 st61 st62">cbw</text>
	<text id="text13583" bar:growlevel="0" transform="matrix(1 0 0 1 1300.4727 1612.3105)" class="st60 st61 st62">4V</text>
	<text id="label109" bar:growlevel="0" transform="matrix(1 0 0 1 1385.9873 2152.541)" class="st60 st61 st62">py</text>
	<text id="label74" bar:growlevel="0" transform="matrix(1 0 0 1 1300.4727 2030.1855)" class="st60 st61 st62">IOBe</text>
	<text id="label75" bar:growlevel="0" transform="matrix(1 0 0 1 1339.8652 2041.5449)" class="st60 st61 st62">IOVL</text>
	<text id="label76" bar:growlevel="0" transform="matrix(1 0 0 1 1284.5703 2114.6426)" class="st60 st61 st62">RPa</text>
	<text id="label77" bar:growlevel="0" transform="matrix(1 0 0 1 1659.7051 2036.2129)" class="st60 st61 st62">IRt</text>
	<text id="label73" bar:growlevel="0" transform="matrix(1 0 0 1 1487.999 2130.1172)" class="st60 st61 st62">IOPr</text>
	<text id="label49" bar:growlevel="0" transform="matrix(1 0 0 1 1621.127 2018.1191)" class="st60 st61 st62">C1</text>
	<text id="label48" bar:growlevel="0" transform="matrix(1 0 0 1 1778.8965 1970.7109)" class="st60 st61 st62">rs</text>
	<text id="text3099" bar:growlevel="0" transform="matrix(1 0 0 1 1372.6367 1682.0098)" class="st60 st61 st62">10N</text>
	<text id="label44" bar:growlevel="0" transform="matrix(1 0 0 1 1595.2373 1584.1523)" class="st60 st61 st62">cu</text>
	<text id="label116" bar:growlevel="0" transform="matrix(1 0 0 1 1593.4063 1918.5586)" class="st60 st61 st62">AmbL</text>
	<text id="label117" bar:growlevel="0" transform="matrix(1 0 0 1 1308.8867 1828.2754)" class="st60 st61 st62">mlf</text>
	<text id="label110" bar:growlevel="0" transform="matrix(1 0 0 1 1322.2051 1944.2441)" class="st60 st61 st62">ts</text>
	<text id="label111" bar:growlevel="0" transform="matrix(1 0 0 1 1891.3965 1383.8965)" class="st60 st61 st62">cbw</text>
	<text id="label53" bar:growlevel="0" transform="matrix(1 0 0 1 1507.2383 2109.4688)" class="st60 st61 st62">IOD</text>
	<text id="label51" bar:growlevel="0" transform="matrix(1 0 0 1 1306.8418 2078.2188)" class="st60 st61 st62">IOC</text>
	<text id="label113" bar:growlevel="0" transform="matrix(1 0 0 1 1284.5703 1936.709)" class="st60 st61 st62">ROb</text>
	<text id="label121" bar:growlevel="0" transform="matrix(1 0 0 1 1405.9619 1649.9043)" class="st60 st61 st62">SolCe</text>
	<text id="Unlabeled-2451-1201" bar:growlevel="0" transform="matrix(1 0 0 1 1932.0781 1201.9102)" class="st60 st61 st62">cbw</text>
	<text id="label112" bar:growlevel="0" transform="matrix(1 0 0 1 1331.0527 1616.9355)" class="st60 st61 st62">SubP</text>
	<text id="label22" bar:growlevel="0" transform="matrix(1 0 0 1 1530.0488 1815.4023)" class="st60 st61 st62">IRt</text>
	<text id="label21" bar:growlevel="0" transform="matrix(1 0 0 1 1628.8965 1800.0996)" class="st60 st61 st62">PCRt</text>
	<text id="label20" bar:growlevel="0" transform="matrix(1 0 0 1 1781.6855 1759.6523)" class="st60 st61 st62">Sp5I</text>
	<text id="label27" bar:growlevel="0" transform="matrix(1 0 0 1 1592.0264 2075.9063)" class="st60 st61 st62">LRt</text>
	<text id="label26" bar:growlevel="0" transform="matrix(1 0 0 1 1455.1074 1903.166)" class="st60 st61 st62">Gi</text>
	<text id="label25" bar:growlevel="0" transform="matrix(1 0 0 1 1349.0469 1796.3535)" class="st60 st61 st62">Ro</text>
	<text id="label24" bar:growlevel="0" transform="matrix(1 0 0 1 1724.4453 1588.4121)" class="st60 st61 st62">Pa5</text>
	<text id="label28" bar:growlevel="0" transform="matrix(1 0 0 1 1675.8477 1986.041)" class="st60 st61 st62">LRt</text>
	<text id="Unlabeled-2047-1754" bar:growlevel="0" transform="matrix(1 0 0 1 1500.9775 1651.9102)" class="st60 st61 st62">grey</text>
</g>
</svg>
