<?xml version="1.0" encoding="utf-8"?>
<!-- Generator: Adobe Illustrator 24.1.1, SVG Export Plug-In . SVG Version: 6.00 Build 0)  -->
<svg version="1.1"
	 id="body" inkscape:version="0.47pre4 r22446" sodipodi:docname="99_pretrace_pretrace_v1.svg" xmlns:bar="http://www.3dbar.org" xmlns:cc="http://creativecommons.org/ns#" xmlns:dc="http://purl.org/dc/elements/1.1/" xmlns:inkscape="http://www.inkscape.org/namespaces/inkscape" xmlns:rdf="http://www.w3.org/1999/02/22-rdf-syntax-ns#" xmlns:sodipodi="http://sodipodi.sourceforge.net/DTD/sodipodi-0.dtd" xmlns:svg="http://www.w3.org/2000/svg"
	 xmlns="http://www.w3.org/2000/svg" xmlns:xlink="http://www.w3.org/1999/xlink" x="0px" y="0px" viewBox="0 0 3024 3024"
	 style="enable-background:new 0 0 3024 3024;" xml:space="preserve">
<style type="text/css">
	.st0{fill:#FF000C;}
	.st1{fill:#925FDC;}
	.st2{fill:#6B2FC3;}
	.st3{fill:#9653F6;}
	.st4{fill:#FF7F00;}
	.st5{fill:#E7FF00;}
	.st6{fill:#FFB2EE;}
	.st7{fill:#FFB200;}
	.st8{fill:#DFC06B;}
	.st9{fill:#E9FF59;}
	.st10{fill:#3FFF00;}
	.st11{fill:#D0FFB2;}
	.st12{fill:#FF8B00;}
	.st13{fill:#610BE5;}
	.st14{fill:#B18EE1;}
	.st15{fill:#A500FF;}
	.st16{fill:#DFFF00;}
	.st17{fill:#AB4E52;}
	.st18{fill:#F4FFB2;}
	.st19{fill:#B2FF00;}
	.st20{fill:#8CFF59;}
	.st21{fill:#FFDDB2;}
	.st22{fill:#DEFF00;}
	.st23{fill:#FF3800;}
	.st24{fill:#8D6BDC;}
	.st25{fill:#FF8759;}
	.st26{fill:#835FBF;}
	.st27{fill:#B29AE1;}
	.st28{fill:#510BD8;}
	.st29{fill:#D4C18E;}
	.st30{fill:#5100DC;}
	.st31{fill:#9876E1;}
	.st32{fill:#E96A00;}
	.st33{fill:#FF5E00;}
	.st34{fill:#BCFFB2;}
	.st35{fill:#B58EE9;}
	.st36{fill:#00D7F2;}
	.st37{fill:#E547D8;}
	.st38{fill:#540BCB;}
	.st39{fill:#FFB2DC;}
	.st40{fill:#FF6F00;}
	.st41{fill:#C19AF6;}
	.st42{fill:#FEFF3B;}
	.st43{fill:#97FF59;}
	.st44{fill:#CCFFB2;}
	.st45{fill:#872FFA;}
	.st46{fill:#C1A6FA;}
	.st47{fill:#FFD5B2;}
	.st48{fill:#E99B59;}
	.st49{fill:#FFA259;}
	.st50{fill:#F4B200;}
	.st51{fill:#EEFF76;}
	.st52{fill:#FFAA59;}
	.st53{fill:#FFB2BA;}
	.st54{fill:#FFBA2C;}
	.st55{fill:#FFD76B;}
	.st56{fill:#FFE7B2;}
	.st57{fill:#FF9A00;}
	.st58{fill:#FFE8B2;}
	.st59{fill:#DFB259;}
	.st60{fill:#DF8800;}
	.st61{fill:#9576D0;}
	.st62{fill:#FFC359;}
	.st63{fill:#FF8C59;}
	.st64{fill:#FF4F00;}
	.st65{fill:#FFCAB2;}
	.st66{fill:#FFC3B2;}
	.st67{fill:#FFCBB2;}
	.st68{fill:#590BFF;}
	.st69{fill:#FF4C00;}
	.st70{fill:#E6FFB2;}
	.st71{fill:#FF9A59;}
	.st72{fill:#FF7B59;}
	.st73{fill:#7D53E5;}
	.st74{fill:#FFF8B2;}
	.st75{fill:#FF8159;}
	.st76{fill:#FF3C00;}
	.st77{fill:#FFC4B2;}
	.st78{fill:#FF3600;}
	.st79{fill:#E0E959;}
	.st80{fill:#FFC8B2;}
	.st81{fill:#FF4600;}
	.st82{fill:#6B47C7;}
	.st83{fill:#C6D400;}
	.st84{fill:#F3FF59;}
	.st85{fill:#D8E900;}
	.st86{fill:#C99300;}
	.st87{fill:#D4A523;}
	.st88{fill:#FFEC00;}
	.st89{fill:#C4C923;}
	.st90{fill:#C3C900;}
	.st91{fill:#E6E98E;}
	.st92{fill:#FFCEB2;}
	.st93{fill:#FDFF76;}
	.st94{fill:#FF005D;}
	.st95{fill:#FEFF00;}
	.st96{fill:#D8DF00;}
	.st97{fill:#E8E976;}
	.st98{fill:#FBFF8E;}
	.st99{fill:#E2E923;}
	.st100{fill:#EEF447;}
	.st101{fill:#FFFEB2;}
	.st102{fill:#E7FF3B;}
	.st103{fill:#E99859;}
	.st104{fill:#F5FFB2;}
	.st105{fill:#CDE900;}
	.st106{fill:#69FF00;}
	.st107{fill:#C9FFB2;}
	.st108{fill:#DFA300;}
	.st109{fill:#FFA200;}
	.st110{fill:#FFE3B2;}
	.st111{fill:#FFBD59;}
	.st112{fill:#FF9E00;}
	.st113{fill:#FF6100;}
	.st114{fill:#FFE1B2;}
	.st115{fill:#F4C2C2;}
	.st116{fill:#FF59B8;}
	.st117{fill:#FFC423;}
	.st118{fill:#FFAB00;}
	.st119{fill:#54FF00;}
	.st120{fill:#905FD8;}
	.st121{fill:#E96600;}
	.st122{fill:#232323;enable-background:new    ;}
	.st123{font-family:'TimesNewRomanPSMT';}
	.st124{font-size:27px;}
	.st125{fill:#FF0000;enable-background:new    ;}
</style>
<sodipodi:namedview  bordercolor="#666666" borderopacity="1" gridtolerance="10" guidetolerance="10" id="namedview517" inkscape:current-layer="content" inkscape:cx="581.47639" inkscape:cy="612.34008" inkscape:object-paths="true" inkscape:pageopacity="0" inkscape:pageshadow="2" inkscape:window-height="1026" inkscape:window-maximized="1" inkscape:window-width="1678" inkscape:window-x="0" inkscape:window-y="0" inkscape:zoom="1.6550452" objecttolerance="10" pagecolor="#ffffff" showgrid="false">
	</sodipodi:namedview>
<desc  id="desc5">This was produced by version 4.2 of GNU libplot, a free library for exporting 2-D vector graphics.</desc>
<defs>
	<rdf:RDF>
		<cc:Work  rdf:about="">
			<dc:format>image/svg+xml</dc:format>
			<dc:type  rdf:resource="http://purl.org/dc/dcmitype/StillImage"></dc:type>
		</cc:Work>
	</rdf:RDF>
	<bar:data  content="-2.76" name="coronalcoord"></bar:data>
	
		<bar:data  content="{&apos;ReferenceHeight&apos;: 900, &apos;ReferenceWidth&apos;: 1200, &apos;imageSize&apos;: (1200, 900)}" name="rendererConf">
		</bar:data>
	
		<bar:data  content="{&apos;DumpEachStepSVG&apos;: False, &apos;DumpEachStepPNG&apos;: False, &apos;GrowDefaultBoundaryColor&apos;: 200, &apos;CacheLevel&apos;: 5, &apos;NewPathIdTemplate&apos;: &apos;structure%d_%s_%s&apos;, &apos;PoTraceConf&apos;: {&apos;potrace_accuracy_parameter&apos;: &apos;0.001&apos;, &apos;potrace_width_string&apos;: &apos;1200pt&apos;, &apos;potrace_svg_resolution_string&apos;: &apos;300x300&apos;, &apos;potrace_height_string&apos;: &apos;900pt&apos;}, &apos;DetectUnlabelled&apos;: True, &apos;DumpVBrain&apos;: False, &apos;DumpWrongSeed&apos;: True, &apos;DumpDirectory&apos;: &apos;.&apos;, &apos;MinFiterTimesApplication&apos;: 3, &apos;RegionAlreadyTraced&apos;: 100, &apos;UnlabelledTreshold&apos;: 500}" name="tracingConf">
		</bar:data>
	<bar:data  content="0.0176211454,-9.5150660793,0.0176211454,-1.5355884426" name="transformationmatrix"></bar:data>
</defs>
<g id="content">
	<path class="st0" d="M2369.8,1266.6c-11.5-65.7-28.8-125.8-54.5-189.9c-38.6-95.9-93.3-193.9-136.4-244
		c-42.1-49-108-98.3-197.4-148c-141.1-78.4-309.6-132.9-450.5-145.8c-102.6-9.3-201.9,2.3-298.3,35.1c-28.8,9.8-43.3,18.4-61.3,36.4
		c-18.5,18.5-31.1,40.4-38.3,66c-0.5,2-1.2,3.7-1.8,4.6v543.6c0.9,0,1.7,0.9,2.4,2.6c1.5,3.8,10.8,13,17.3,17.2
		c2.8,1.9,5.1,4.1,5.1,4.8c0,2.3-6.3,8.2-11.1,10.3c-3.2,1.4-8.4,2.1-13.8,2.2v959.8c0.1,0,0.1,0,0.2,0c52.8,0,56.9-0.2,60.2-1.7
		c2-0.9,4.1-2.3,4.9-3.1c1.7-2.2,4.2-1.9,7.6,0.6c8,5.9,20.9,10.3,32.8,11.1c13,0.8,22.1-1.5,30-7.9c5.2-4.2,9.5-5.4,22-6.3
		c13.2-0.9,22.5-3.1,40.6-9.7c31.4-11.4,70.6-30.4,102.7-49.7c8.6-5.1,10.3-5.5,10.3-2c0,3,0.7,4.1,3.2,5.5
		c3.1,1.7,8.4-0.4,13.2-5.2c3.5-3.5,4.2-4.9,4.2-7.5c0-2.2-0.6-3.9-1.9-5c-1.1-1-1.8-2.2-1.6-2.6c0.2-0.5,5.9-5,12.5-10.1
		c6.7-5.1,14.7-11.4,17.7-14c3-2.7,6.1-4.9,6.8-4.9c0.8,0,1.5,1.2,1.9,3.1c1.2,6.2,7.8,10,13.1,7.4c6-3.2,7.4-9.6,2.9-14.1
		c-1.4-1.4-3.9-2.9-5.4-3.1c-1.5-0.4-2.8-1-2.8-1.5c0-0.5,5-6.1,11.1-12.3c6.1-6.2,12.9-13.4,15.1-16l4.1-4.8l5.2,1.4
		c6.7,1.7,11.6,1.7,16.2-0.1c5.2-2.1,7.7-2.5,7.7-1.4c0,0.4-0.8,4-1.8,7.9c-8.9,35.1,6.2,66.9,46.2,96.8
		c54.8,41.1,151.5,76,241.8,87.1c112.1,13.9,224.7-11.9,299.7-68.4c39.8-30.1,73.5-73.9,105.2-136.7c16.7-33.2,30.5-65.3,39.2-91.3
		c20.3-61,34.8-148.8,31.3-188.8c-1.7-18.9-4.7-27.6-13.5-39.6c-5.7-7.7-7-13-5.8-22.8c1.4-9.7,3.7-13.7,14.7-24.8
		c11.3-11.4,13.7-15.5,20.5-36.5c13.7-41.4,27.5-99.2,32.9-136.4C2386.9,1438.9,2384.6,1350.9,2369.8,1266.6z"/>
	<path id="structure101_label107_mfb" bar:growlevel="0" bar:type="" class="st1" d="M1505,1805.1c-10.9,5.7-20.2,10.6-20.5,11.1
		c-0.4,0.4-2.9,4.5-5.4,9.1c-7.3,12.9-15.6,24-25.2,34.1c-15.8,16.4-24.9,20.9-40.4,19.7c-5.5-0.5-7.9-0.3-7.9,0.4
		c0,0.5,1.5,3.1,3.5,5.7c8.2,11,13.6,24.7,15.4,39.3c1.9,14.3-0.5,32.4-6.8,51.3c-7,21.1-24.9,52.6-35.8,62.8
		c-10.7,10.2-24.5,13.4-38.5,9.2c-21.4-6.4-41-25.5-57.7-56.2c-10.5-19.3-20.8-45.5-23.1-59.3c-1.3-7.2-0.2-13.8,3.9-22.2
		c3.4-7.4,13.2-17.4,21.3-21.8c12.7-7,53.5-17.4,82.6-21c2.7-0.4,4.7-1.1,4.7-1.7c0-0.5-4.9-3.7-11.1-7l-11-5.8l-23.9-1.1
		c-13.1-0.6-34.6-1.9-47.7-2.8c-13.1-1-24.1-1.8-24.5-1.8c-1.7,0-0.4,2.4,2.3,4.7c10.3,8.1,7.5,20.1-8.4,35.8
		c-14.7,14.7-26.6,21.3-39.8,22.2c-4.3,0.4-7,0.9-7,1.5c0,0.5,3.6,3.4,8,6.3c8.9,5.9,17.1,13.3,20.3,18.4c3.7,5.9,7.7,18.9,7.8,24.9
		c0.1,11.8-4,14.9-25,19.3c-23.3,4.9-38.2,9.2-38.2,11.2c0,0.9,2.7,1.3,9.7,1.7c14.1,0.7,25.2,4.6,38.4,13.5
		c12.6,8.5,31.3,25.2,45.2,40.2c16.3,17.7,41.9,53,53.9,74.1c2.7,4.8,5,7.7,5.7,7.7c0.8-0.2,1.7-2.4,2.4-5.9
		c2.7-13.2,10.3-23.1,19.9-26.1c7.4-2.3,40.6-2.3,50.7-0.1c11.9,2.6,16.9,5,22.6,10.5c8.2,8,8.7,14,2.1,23.7
		c-5.8,8.2-23,20.4-36.5,25.8c-9,3.6-16.7,4.8-28.9,4.4c-8.9-0.3-10.8-0.5-15.2-2.8c-2.8-1.3-5.5-2.4-6-2.4c-0.7,0-0.9,2.4-0.5,8.3
		c0.9,13.9-3,24.8-12,33.8c-2.7,2.7-4.9,5.3-4.9,5.8c0,1.8,4.5,0.5,18.6-5c35.3-14.1,76-35.2,106.2-55.1
		c26.7-17.6,56.9-42.8,75.6-63.2l8.6-9.4l-0.5-5.6c-1-9.8,1.8-30.5,5.8-42.8c2.2-6.5,23.3-49.7,34-69.6c7-12.8,8.2-15.8,6.5-15.8
		c-0.4,0-4.3,1.8-8.6,4.1c-4.4,2.2-9.3,4.2-10.9,4.6c-2.8,0.5-3,0.8-4.8,8c-4.9,19.5-17.2,40.1-31.5,52.7c-5.8,5.1-6.8,7.1-3.3,7.1
		c3.1,0,6.7,3.2,7.4,6.8c1,5.2-4,18.3-8.9,23.7c-2.9,3.1-10,6.5-13.8,6.5c-4.5,0-8.6-2.2-10.7-5.7c-2.3-3.9-2.4-12.4-0.1-17.5
		c1-2.1,1.4-4.1,1.2-4.3c-0.3-0.3-3.4-0.1-6.9,0.5c-3.6,0.6-8.3,0.8-10.6,0.4c-17-2.5-25.6-20-20.1-40.5c4.7-16.9,17-37,32.6-52.9
		l9.7-10l-1.7-6.4c-4-14.3-4-35.3-0.4-53.6c3.6-17.4,12.9-38.3,24.1-54.2c3.8-5.3,6.8-10.1,6.8-10.6
		C1527.9,1793.7,1524,1795.4,1505,1805.1z"/>
	<path id="structure102_label108_ns" bar:growlevel="0" bar:type="" class="st2" d="M1505,1805.1c-10.9,5.7-20.2,10.6-20.5,11.1
		c-0.4,0.4-2.9,4.5-5.4,9.1c-7.3,12.9-15.6,24-25.2,34.1c-15.8,16.4-24.9,20.9-40.4,19.7c-5.5-0.5-7.9-0.3-7.9,0.4
		c0,0.5,1.5,3.1,3.5,5.7c8.2,11,13.6,24.7,15.4,39.3c1.9,14.3-0.5,32.4-6.8,51.3c-7,21.1-24.9,52.6-35.8,62.8
		c-10.7,10.2-24.5,13.4-38.5,9.2c-21.4-6.4-41-25.5-57.7-56.2c-10.5-19.3-20.8-45.5-23.1-59.3c-1.3-7.2-0.2-13.8,3.9-22.2
		c3.4-7.4,13.2-17.4,21.3-21.8c12.7-7,53.5-17.4,82.6-21c2.7-0.4,4.7-1.1,4.7-1.7c0-0.5-4.9-3.7-11.1-7l-11-5.8l-23.9-1.1
		c-13.1-0.6-34.6-1.9-47.7-2.8c-13.1-1-24.1-1.8-24.5-1.8c-1.7,0-0.4,2.4,2.3,4.7c10.3,8.1,7.5,20.1-8.4,35.8
		c-14.7,14.7-26.6,21.3-39.8,22.2c-4.3,0.4-7,0.9-7,1.5c0,0.5,3.6,3.4,8,6.3c8.9,5.9,17.1,13.3,20.3,18.4c3.7,5.9,7.7,18.9,7.8,24.9
		c0.1,11.8-4,14.9-25,19.3c-23.3,4.9-38.2,9.2-38.2,11.2c0,0.9,2.7,1.3,9.7,1.7c14.1,0.7,25.2,4.6,38.4,13.5
		c12.6,8.5,31.3,25.2,45.2,40.2c16.3,17.7,41.9,53,53.9,74.1c2.7,4.8,5,7.7,5.7,7.7c0.8-0.2,1.7-2.4,2.4-5.9
		c2.7-13.2,10.3-23.1,19.9-26.1c7.4-2.3,40.6-2.3,50.7-0.1c11.9,2.6,16.9,5,22.6,10.5c8.2,8,8.7,14,2.1,23.7
		c-5.8,8.2-23,20.4-36.5,25.8c-9,3.6-16.7,4.8-28.9,4.4c-8.9-0.3-10.8-0.5-15.2-2.8c-2.8-1.3-5.5-2.4-6-2.4c-0.7,0-0.9,2.4-0.5,8.3
		c0.9,13.9-3,24.8-12,33.8c-2.7,2.7-4.9,5.3-4.9,5.8c0,1.8,4.5,0.5,18.6-5c35.3-14.1,76-35.2,106.2-55.1
		c26.7-17.6,56.9-42.8,75.6-63.2l8.6-9.4l-0.5-5.6c-1-9.8,1.8-30.5,5.8-42.8c2.2-6.5,23.3-49.7,34-69.6c7-12.8,8.2-15.8,6.5-15.8
		c-0.4,0-4.3,1.8-8.6,4.1c-4.4,2.2-9.3,4.2-10.9,4.6c-2.8,0.5-3,0.8-4.8,8c-4.9,19.5-17.2,40.1-31.5,52.7c-5.8,5.1-6.8,7.1-3.3,7.1
		c3.1,0,6.7,3.2,7.4,6.8c1,5.2-4,18.3-8.9,23.7c-2.9,3.1-10,6.5-13.8,6.5c-4.5,0-8.6-2.2-10.7-5.7c-2.3-3.9-2.4-12.4-0.1-17.5
		c1-2.1,1.4-4.1,1.2-4.3c-0.3-0.3-3.4-0.1-6.9,0.5c-3.6,0.6-8.3,0.8-10.6,0.4c-17-2.5-25.6-20-20.1-40.5c4.7-16.9,17-37,32.6-52.9
		l9.7-10l-1.7-6.4c-4-14.3-4-35.3-0.4-53.6c3.6-17.4,12.9-38.3,24.1-54.2c3.8-5.3,6.8-10.1,6.8-10.6
		C1527.9,1793.7,1524,1795.4,1505,1805.1z"/>
	<path id="structure103_label109_opt" bar:growlevel="0" bar:type="" class="st3" d="M1717.9,1797.1c-4.6,2.1-16.9,12.8-33.5,29.3
		c-12.2,12.2-17.5,18.4-29.3,34.2c-30.6,41-44.6,62.4-59.8,91.3c-14.3,27.2-57.4,112.5-57.4,113.7c0,1.6,6.5,3.3,13.1,3.2
		c5.2,0,7-0.4,10.6-2.5c2.3-1.3,5.3-4.1,6.7-6c3-4.2,21-28.4,47.1-62.9c10.6-14.1,21.6-29.3,24.4-33.8c2.7-4.5,11.6-20.9,19.8-36.5
		c8.1-15.6,17.4-32.6,20.5-37.8c13.7-22.7,33.1-51.9,38.3-57.6c2.4-2.6,7.7-14,9.7-20.8c1.7-5.7,1.9-12.6,0.4-14.1
		C1727,1795.4,1721.7,1795.6,1717.9,1797.1z"/>
	<path id="structure10_label9_DA" bar:growlevel="0" bar:type="" class="st4" d="M1191.7,1842.7c-5.8,1.3-13,6.2-16.2,11
		c-5,7.3-6.9,13.5-7,22.7c0,7.1,0.3,8.6,2.3,12.7c3.1,5.9,8.1,10.3,16.1,14.1c13.6,6.4,24.1,7.7,35.1,4.2
		c10-3.1,27.5-16.6,35.8-27.6c10.4-13.8,9.1-24.4-3.7-30.7c-5.2-2.6-7.3-3-24.6-4.8C1206.4,1841.9,1196.5,1841.5,1191.7,1842.7z"/>
	<path id="structure113_label118_OlfCx-1" bar:growlevel="0" bar:type="" class="st5" d="M1616.4,1996.2c-5.5,7.4-17.4,23-26.4,34.9
		c-16.7,22-19.6,26.9-23.9,40.4c-2,6-2.5,9.5-2.9,20c-0.4,14.3,1.1,22.7,6.1,33.5c6.2,13.2,19.4,29.1,34.7,41.4
		c12.8,10.4,38.3,26.4,54.5,34.4l5.9,3l7.9-4.2c14.9-7.9,31.9-20.7,31.9-24c0-0.9-0.1-1.7-0.2-1.7c-0.2,0-2.7-0.5-5.7-0.9
		c-3-0.5-13.5-1.4-23.4-1.7c-21.1-1-25.6-2.1-37.4-9.1c-28.1-16.8-44-44.5-44-76.9c0-18,5.2-35.2,19.8-65.3
		C1633,1979.5,1633.8,1973.3,1616.4,1996.2z"/>
	<path id="structure11_label10_A13" bar:growlevel="0" bar:type="" class="st6" d="M1238.1,1807.8c-27.1,9.2-33.2,12.2-39.5,19
		c-5.3,5.9-4.9,10.7,1.4,13.1c6.7,2.5,60.3,7.6,110.6,10.3c30.7,1.7,35.6,1.7,35.6,0.2c0-0.7-6.6-4.6-14.6-8.7
		c-8.1-4.1-23.9-12.6-35.4-18.9c-23.3-12.9-38.5-20.7-40.2-20.6C1255.3,1802.2,1247.3,1804.7,1238.1,1807.8z"/>
	<path id="structure13_label12_SubV" bar:growlevel="0" bar:type="" class="st7" d="M1176.2,1655.4c-6.8,10.4-11,25.5-11,39.6
		c0,20.2,7.3,38.3,21.5,53.4c17.2,18.3,37.8,25.8,70.4,25.8h13.1l1.1-4.9c2.3-10,9.3-16.7,17.4-16.7c2.7,0,4.2-0.9,9.6-5.9
		c18.1-16.7,28.9-43.8,28.9-72.2c0-7.7-1.3-20.5-2.3-21.6c-0.1-0.1-4.8,1-10.4,2.4c-20.3,5.2-43.5,8.2-63.8,8.2
		c-14.1,0-22.8-1.4-38.3-5.8c-10.7-3.1-21.4-5.4-29.3-6.3C1179.1,1651,1179.1,1651,1176.2,1655.4z"/>
	<path id="structure14_label13_VM" bar:growlevel="0" bar:type="" class="st8" d="M1340.2,1650.1c-4,0.5-8.9,1.1-10.8,1.5
		c-4,0.8-3.9,0-2.2,12.8c1.7,13.7-0.1,29.2-5.4,45.2c-4.8,14.4-11.5,25.5-21.2,35.1c-6.6,6.6-6.9,8.3-1.8,9.2
		c6,1.2,15.4,6.6,20.5,12.1c5.5,5.8,8.3,10.5,9.4,15.8l0.6,3.5l17.2-0.5c28.5-0.8,69.2-8.4,102.7-19c13.3-4.2,48.6-22.7,87.3-45.6
		c9.4-5.5,19-11.2,21.3-12.4c4.8-2.6,5.6-4.6,1.9-4.6c-7.5,0-34.5-2.1-43-3.2c-5.4-0.7-13.5-1.7-17.9-2.2c-8.6-1-20.8-4.7-29.3-9
		c-3-1.5-10-5.9-15.6-9.6c-5.6-3.8-14.5-9-20-11.5c-12.1-5.8-33.4-13.5-41.7-15.3C1378,1649.3,1356.5,1648.4,1340.2,1650.1z"/>
	<path id="structure150_label156_MoDG" bar:growlevel="0" bar:type="" class="st9" d="M1139.7,1113.1c-1,0.7-3.1,1.6-4.8,1.9l-3,0.5
		v52.8v52.8l2.3,4.6c2.9,5.7,9.8,12.8,16.6,17.1c2.8,1.8,7.3,4.8,10.1,6.7c4.7,3.2,5.4,3.3,9.9,3c4.2-0.4,5.5-0.2,10.3,2.3
		c3,1.6,7.8,4.2,10.8,5.8l5.3,2.8l30.2,0.6c32.6,0.6,40.8,1.3,59.3,4.9c11,2.2,13.5,2.3,27.4,1.9c12.5-0.4,18.1-1,29.8-3.3
		c31.3-6.2,33-7.1,84.6-44.6c28.3-20.5,45.2-30.6,59.7-35.5c4.5-1.6,8.3-3.3,8.3-3.8c0-0.5-1.3-3.3-2.8-6.2
		c-3.7-6.8-10.9-14.3-14-14.3c-1.2,0-2.2,0.4-2.2,0.9c0,1.4-6.7,4.4-15,6.7c-19.8,5.3-51.1,19.7-74.2,34c-8.2,5-14.5,8.3-18.9,9.6
		c-3.7,1.1-19.1,6-34.3,11c-29.9,9.6-33.1,10.2-42.8,7.6c-2.6-0.7-7.5-2.5-10.8-4.1c-8.9-4.1-17.6-5.1-35.1-3.8
		c-7.8,0.6-17.7,1.9-22.1,2.9c-12.3,2.8-15.9,2.3-23.8-3c-5-3.4-17-8.3-24.8-10.1c-14.5-3.3-20.2-9.5-26-28
		c-2.6-8.1-3.9-22.9-4.9-56.9c-0.4-15.8-0.7-18.2-2-18.2C1142,1111.8,1140.6,1112.4,1139.7,1113.1z"/>
	<path id="structure158_label166_cg" bar:growlevel="0" bar:type="" class="st10" d="M1356.2,832c-22.9,2.7-36.9,11.6-50.3,32
		c-5.4,8.3-7.9,13.9-14.9,33.2c-13.9,37.9-29.3,65.3-47.6,84.6c-6.5,6.8-21.2,19.3-26.7,22.5c-6.9,4-0.1,5.2,13.4,2.3
		c23.1-5.1,45.9-17.4,62-33.4c5.8-5.7,7.8-8.6,12.7-18c6.9-13.2,19.2-34,25-42.3c5.2-7.3,15.7-18.3,23.5-24.7
		c13.8-11.2,26.6-18.4,42.2-23.7c9.1-3.1,10.4-3.3,23.6-3.7c10.3-0.3,16.7,0,24.3,1.2c9.4,1.3,12.7,1.4,34.7,0.4
		c54.8-2.5,100.4,2.9,170.5,20.3c26.6,6.6,36.5,8.5,43.1,8.5c4.8,0,5.5-0.2,5.5-1.7c0-1.3-2.4-2.6-11.9-6.2
		c-25.6-9.6-48.8-16.1-81.4-22.6c-44.7-8.9-115.1-19.1-177.7-25.7C1388.2,831.1,1370.7,830.3,1356.2,832z"/>
	<path id="structure159_label167_dcw" bar:growlevel="0" bar:type="" class="st11" d="M1474.8,862.2c-3.7,0.2-7.6,0.4-8.7,0.7
		c-3.1,0.7-2.5,2.9,0.9,3.5c6.6,1.3,28.1,8.2,40.2,13.1c7.2,2.9,16.4,5.9,20.3,6.8c17.6,3.9,51.5,14.3,76.5,23.6
		c59,21.9,108.4,48.3,148.5,79.5c14,10.9,40.9,33.9,55.5,47.4c22,20.3,62.6,63.4,79.6,84.4c44.9,55.7,101.4,152.4,128.1,219.4
		c14.1,35.5,22.3,63.3,37.4,127.1c4.2,17.8,9.6,39.9,12.1,49.1c10.8,40.3,12.7,59.8,12.7,130.9c0,27.8,0.4,56.4,1.1,66.9
		c2.4,40.4-3.5,98.3-13.4,129.3c-11.9,37.7-16.1,63.7-15.3,94.2c0.4,14.7,0.8,19.2,2.9,28.6c3.5,15.6,3.5,30.2,0.1,41.7
		c-4.4,14.8-11.1,25.6-22.5,36.5c-3.8,3.5-6.8,6.8-6.8,7.4c0,1.7,4.1,0.9,8.6-1.7c15.3-8.8,28.2-34.2,31-61.3
		c1-10.3,0.5-16.3-1.9-26.1c-6.4-25.1-2.8-58.7,12.2-114.8c13.2-49.2,13.9-55.1,14.8-138.6c1-90.4-0.2-131.5-5.4-176.8
		c-6.4-57-20.6-133.1-36.9-198c-31.6-126.4-63.5-193.9-126.4-267.3c-29-33.9-81.8-86.8-111-111c-29.9-24.8-65.1-47.5-95.3-61.4
		l-13.1-5.9l-4.3,1.1c-5.9,1.5-13.3,0.4-40.9-6.5C1579.3,865.1,1535.1,859.8,1474.8,862.2z"/>
	<path id="structure15_label14_ZID" bar:growlevel="0" bar:type="" class="st12" d="M1590.6,1694.5c-12.8,3.6-26.2,9.4-37.3,16
		c-37.7,22.5-78,44.6-92.9,51.1c-9.6,4.1-24.5,8.6-44.9,13.4c-28.4,6.7-49.6,9.7-72.2,10.5c-10.7,0.4-15.1,0.8-15.1,1.6
		c0,2.1-6.8,7.8-12.7,10.8c-14.7,7.5-29.7,8.3-38.4,2.3c-4.5-3.2-4.1-3.2-11-1.2c-6.5,1.7-7.1,3.7-2,6c1.8,0.9,14.8,7.9,28.9,15.7
		l25.6,14l13.1-1.1c33.3-2.6,71-11.3,127.1-28.9c38.4-12.1,65.1-22.2,84.1-31.9c8.8-4.5,12.1-6.8,18.9-13.1
		c19.8-18.6,48.2-39.7,76.8-57.2c5.8-3.6,6.9-5.5,3.6-6.3c-3.7-0.7-26.1-3.1-34.9-3.6C1599.8,1692.4,1597.4,1692.6,1590.6,1694.5z"
		/>
	<path class="st13" d="M1838.6,1224.5c-7.9-9.1-11.2-13.9-23.1-34.8c-15.8-27.7-19.8-36.7-24.2-54.3c-3.3-13.3-5-25-5.9-44.3
		c-1.9-35.7-3.1-42-13.3-64.8c-3.4-7.6-7.7-18-9.7-22.9l-3.5-8.9l-8.1-6.3c-35.4-27.4-76.7-50.1-129.1-71.3
		c-37.6-15.1-83.2-28.9-112.3-33.9c-15.7-2.8-56.3-3-71.7-0.5c-36.9,6.1-64,18.1-81.1,35.9c-3.4,3.6-13.2,15.5-21.7,26.4
		c-24.9,32.3-31.3,39.7-47.4,55.8c-21,20.9-37.9,33.2-57.3,41.7c-7,3-8,3.7-9.9,7.4c-2.8,5.2-13.6,15.8-20,19.7
		c-9.5,5.6-15.7,7.6-24.5,8c-4.4,0.2-10.3-0.1-13-0.7c-6.5-1.4-13.3-5.1-14.9-8.1l-1.3-2.3l-15,0.1v31.7c1.4,0,2.8,0,4.1,0
		c40.4-1.9,92.8-23.6,129.1-53.5c17.8-14.7,31.2-29.1,56.7-61c20.5-25.7,37-43.2,52.2-55.4c17.8-14.3,42.5-25.7,65.7-30.4
		c19.5-4,45.9-4.1,65.1-0.5c34.4,6.6,140.8,45.6,179.8,66.1c37.3,19.6,60.8,48.5,71.3,87.8c2.2,8.1,2.3,10.7,2.4,24.4
		c0,13.6-0.3,16-2.1,22.1c-5,16.2-12.9,25.5-27.8,33.1c-23.2,11.9-56.8,21.8-81.7,23.9c-8.2,0.7-122.7,6.7-141.3,7.3
		c-16.1,0.6-20.3,1.1-20.3,2.3c0,0.4,2.3,3.8,4.9,7.4c2.8,3.6,5.5,7.9,6,9.4c1.3,3.5,1.3,3.5,12.4,1.2c25-5.2,55.7-5.8,78.8-1.4
		c17.1,3.2,35.5,7.5,43.7,10.1c8.3,2.6,8,2.4,64.3,52c22.3,19.7,41.6,36.4,42.9,37.1c4.6,2.4,18.4,3.4,31.3,2.3
		c28-2.3,51.3-10.3,68.2-23.2c8-6.1,10-8.8,10.7-14.5C1848.8,1238.2,1846.3,1233.2,1838.6,1224.5z"/>
	<path id="structure161_label169_st" bar:growlevel="0" bar:type="" class="st14" d="M1843.7,1254.5c-1.7,1.7-5.9,5-9.4,7.5
		c-18.5,12.8-44.1,20.3-72.2,21.4c-10.5,0.4-14.7,0.8-14.7,1.6c0,0.6,4.2,5.2,9.5,10.3c12.1,11.8,15,13.2,29.5,14
		c16.7,0.9,22,3.3,23.6,10.3c0.5,2.4,1,2.7,4,2.7c5.1,0,16.3-3.1,22.7-6.4c8.4-4.1,15.9-12.1,20.4-21.5c5.6-11.4,9.4-30.5,7.8-39.3
		l-0.5-3.4l-8.9-0.2l-8.8-0.1L1843.7,1254.5z"/>
	<path id="structure162_label170_ic" bar:growlevel="0" bar:type="" class="st15" d="M1877.8,1242.5c-1.8,1.1-5.3,3.3-7.7,4.9
		l-4.4,3.1l-0.5,11.3c-0.5,13.5-2.2,20.2-7.4,31.4c-9.8,21-27.1,30.1-56.8,30.1c-17.3,0-28.4-2.8-40.5-10.1
		c-6.7-4-16.8-13.6-22.4-21c-2.4-3.2-4.9-5.9-5.6-5.9c-1.6,0-1.5,9,0.2,15.8c2.1,8.4,8.7,20.9,15,28.3c3.2,3.7,14,14.1,24.1,23.1
		c20.3,17.9,27.3,25,35.2,35.6c10.1,13.4,13.1,22.1,13.9,39.3c1.9,37.2-10.3,79.3-34.3,118.4c-18.5,30.2-54.9,76.2-81.4,103
		c-21.9,22.1-37,34-65.7,52.2c-52.3,32.9-80.5,56.7-107.4,90c-20,24.8-29.8,44.2-35,69.1c-1.6,7.8-2,12.6-2.1,25.8
		c0,18.4,1.4,26.9,5.9,36.2c6.4,13.1,26.3,24.6,42.3,24.5c6.2,0,17.3-2.5,23.2-5.3c14.3-6.7,13.7-6,55.8-56.3
		c69.4-82.6,69.1-82.3,121.1-135.9c16.3-16.8,32-33.6,34.9-37.2c23-28.9,69.8-106.6,93-154.5c21.6-44.5,31.2-73.3,34.8-104.4
		c1.1-9.8,1.4-54.7,0.9-112.9c-0.1-14.9,0.2-29.5,0.7-33.3c3.9-27.8,2.3-51.9-3.7-60.5C1899.4,1241.1,1884.9,1238.3,1877.8,1242.5z
		 M1618.3,1788.8c5.2,1.5,12.7,9.2,14,14.3c2.7,9.8-1.8,19.8-14.3,32.4c-7.2,7.2-10,9.3-16.3,12.4c-13.1,6.4-22.1,6.9-29.9,2
		c-12.1-7.7-10.1-24.7,4.9-42.4c9.5-11.2,24.1-19.6,34.4-19.7C1613,1787.7,1616.2,1788.1,1618.3,1788.8z"/>
	<path id="structure164_label173_SLu" bar:growlevel="0" bar:type="" class="st16" d="M1644,1005.5c0,1.1,1.8,3.1,4.8,5.1
		c7.2,5.1,15.7,13.8,19.2,19.4c4.1,6.8,8.2,18,9.4,26c1.8,12-2.4,25.2-10.4,32c-10,8.5-25.6,16.9-37.6,20.1
		c-16.7,4.3-31.9,4.6-74.1,1.1c-33.8-2.9-49.1-3.7-67.2-3.7c-20.1,0-20.9,0.5-9,6.1c14.7,6.9,32,11.8,54.6,15.2
		c15.6,2.3,63.2,2.3,80.5,0c66.3-9,83.9-21,89.2-61.4c1.8-13.3-1-23.6-9.3-34.3c-10.1-13.1-34.6-27.4-46.8-27.4
		C1644.7,1003.8,1644,1004.1,1644,1005.5z"/>
	<path id="structure165_label174_MHb" bar:growlevel="0" bar:type="" class="st17" d="M1165.4,1256.4c-5.5,5.8-9,19.3-10.4,40
		l-0.4,6.8l7.6,6.2c9.1,7.5,14.8,10.9,21.2,12.6c9.5,2.5,19.4,1.1,20.9-3c0.4-0.8,1-5.8,1.5-11c0.5-5.3,1.3-11.7,1.8-14.4
		c0.9-4.4,0.8-5-0.6-5.8c-3.5-1.8-14.6-13.9-20.3-22.2c-7.5-10.7-8.6-11.8-13.8-12.4C1169,1252.9,1168.6,1253.1,1165.4,1256.4z"/>
	<path id="structure166_label175_PoDG" bar:growlevel="0" bar:type="" class="st18" d="M1453.2,1082.4
		c-16.2,4.9-38.9,16.1-56.9,28.1c-9.3,6.1-14.9,10.9-29.1,24.7c-20.3,19.5-31.9,29.3-49,40.7c-22.1,14.8-38.3,21.1-66.3,26
		c-9.5,1.7-15,2.1-31.3,2.1c-10.9,0.1-22.5-0.3-25.8-0.7c-5.4-0.6-6.1-0.5-6.1,0.7c0,2,6.6,4.8,16.6,7c7.1,1.6,11.8,1.9,36.9,2.1
		c22.2,0.2,30.5,0.5,36.5,1.7c4.2,0.8,12,1.4,17.2,1.4c8.1,0,11.7-0.5,24.3-3.7c8.1-2,20.7-4.9,27.9-6.7
		c17.6-4.1,26.8-7.7,41.8-16.4c14.8-8.6,28.4-14.7,45.6-20.2c7.9-2.5,12.4-4.4,12.4-5.2c0-2.4-20.6,0.4-33.3,4.6
		c-9.9,3.2-31.5,12-40,16.3c-10,4.9-19.7,8.1-23.1,7.4c-3.2-0.7-6.1-4.4-6.1-7.7c0-4.6,1.8-7.4,10.3-16.1c4.9-4.9,8.6-9.4,8.6-10.4
		c0-2.8,4.9-12.1,8.8-16.9c6-7.2,17-16.4,30.3-25.3c20.3-13.5,31.4-19.2,50.9-26c10.7-3.7,15.3-6.2,15.3-8.2
		C1469.4,1079.6,1461.3,1080,1453.2,1082.4z"/>
	<path id="structure167_label176_IG" bar:growlevel="0" bar:type="" class="st19" d="M1154.8,1017.6c-3.7,1.6-7.3,6.4-8,10.7
		l-0.6,3.4l3.4-0.5c6.5-1.1,22.4-5,23.7-5.8c1.8-1.2,0.7-3.1-3.1-6C1166.2,1016.5,1159.2,1015.7,1154.8,1017.6z"/>
	<path class="st20" d="M1838.6,1224.5c-7.9-9.1-11.2-13.9-23.1-34.8c-15.8-27.7-19.8-36.7-24.2-54.3c-3.3-13.3-5-25-5.9-44.3
		c-1.9-35.7-3.1-42-13.3-64.8c-3.4-7.6-7.7-18-9.7-22.9l-3.5-8.9l-8.1-6.3c-35.4-27.4-76.7-50.1-129.1-71.3
		c-37.6-15.1-83.2-28.9-112.3-33.9c-15.7-2.8-56.3-3-71.7-0.5c-36.9,6.1-64,18.1-81.1,35.9c-3.4,3.6-13.2,15.5-21.7,26.4
		c-24.9,32.3-31.3,39.7-47.4,55.8c-21,20.9-37.9,33.2-57.3,41.7c-7,3-8,3.7-9.9,7.4c-2.8,5.2-13.6,15.8-20,19.7
		c-9.5,5.6-15.7,7.6-24.5,8c-4.4,0.2-10.3-0.1-13-0.7c-6.5-1.4-13.3-5.1-14.9-8.1l-1.3-2.3l-15,0.1v31.7c1.4,0,2.8,0,4.1,0
		c40.4-1.9,92.8-23.6,129.1-53.5c17.8-14.7,31.2-29.1,56.7-61c20.5-25.7,37-43.2,52.2-55.4c17.8-14.3,42.5-25.7,65.7-30.4
		c19.5-4,45.9-4.1,65.1-0.5c34.4,6.6,140.8,45.6,179.8,66.1c37.3,19.6,60.8,48.5,71.3,87.8c2.2,8.1,2.3,10.7,2.4,24.4
		c0,13.6-0.3,16-2.1,22.1c-5,16.2-12.9,25.5-27.8,33.1c-23.2,11.9-56.8,21.8-81.7,23.9c-8.2,0.7-122.7,6.7-141.3,7.3
		c-16.1,0.6-20.3,1.1-20.3,2.3c0,0.4,2.3,3.8,4.9,7.4c2.8,3.6,5.5,7.9,6,9.4c1.3,3.5,1.3,3.5,12.4,1.2c25-5.2,55.7-5.8,78.8-1.4
		c17.1,3.2,35.5,7.5,43.7,10.1c8.3,2.6,8,2.4,64.3,52c22.3,19.7,41.6,36.4,42.9,37.1c4.6,2.4,18.4,3.4,31.3,2.3
		c28-2.3,51.3-10.3,68.2-23.2c8-6.1,10-8.8,10.7-14.5C1848.8,1238.2,1846.3,1233.2,1838.6,1224.5z"/>
	<path id="structure16_label15_ZIV" bar:growlevel="0" bar:type="" class="st21" d="M1536.5,1776.5c-34.2,16.6-124.5,44.7-169.8,53
		c-15.3,2.8-32.8,5-39.6,5c-3.6,0-5.2,0.4-5.2,1.2c0,0.6,6.8,4.5,15.1,8.6l15.2,7.6l17.9-0.5c25.7-0.7,40.8-3.5,63.4-11.6
		c13.4-4.8,98.6-47.8,101.3-51c1-1.3,3.9-4.7,6.5-7.7C1548.6,1772.5,1547.3,1771.2,1536.5,1776.5z"/>
	<path id="structure171_label181_GrDG" bar:growlevel="0" bar:type="" class="st22" d="M1453.7,1064c-18.1,5-31.8,12.6-63.2,35.5
		c-28.2,20.5-39.1,29.3-54.7,43.8c-13,12.1-25.3,22-35.6,28.4c-30.5,18.9-69.7,26.5-105.2,20.5c-14-2.4-21.6-8-27.4-20.4
		c-4.4-9.4-5.8-15.3-7.2-33.5c-1.3-14.4-2.4-22.7-3.3-23.3c-1-0.7-11.9-3.2-12.2-2.8c-0.5,0.4,0.6,26.3,2.5,56.3
		c0.6,11.1,1.2,14.3,3.6,21.1c5.2,14.8,10.4,20.9,19.5,23.4c2.9,0.7,7.5,2.1,10.2,2.8c5,1.4,15.9,6.5,23.4,10.8
		c3.7,2.1,4.8,2.3,11.3,1.9c4-0.3,10.6-1.2,14.9-2c5.7-1.2,12.2-1.6,25.2-1.7c17.5-0.1,17.5-0.1,23.4,2.5c11.6,5,15.5,6.1,22.9,6.1
		c6.8,0.1,9-0.5,33.6-8.6c14.5-4.7,28.8-9.3,31.9-10.1c6.9-1.7,11.7-4.1,25.4-12.8c18.1-11.3,50.9-26.2,70.3-31.7
		c11.3-3.3,13.1-4.1,13.1-5.9c0-1.1-1.7-1.3-8.9-1.3c-7,0-11.3,0.5-19.3,2.6c-18.9,4.9-44.8,15.6-57.6,23.8
		c-13.3,8.6-23.2,12.4-44.3,17.2c-7.4,1.7-19.2,4.6-26.1,6.4c-15.8,4.1-25.6,4.9-37.3,2.7c-6.4-1.2-16.6-1.7-39.6-2.2
		c-34.6-0.7-39.5-1.4-50.8-6.9c-6.1-3-13.8-8.5-9.9-7.1c17.4,5.9,46.4,6.3,75.2,1c22.3-4.1,35.3-8.8,51.4-18.6
		c21.9-13.1,34.8-23.6,62.1-49.9c11.5-11.3,17.5-16.3,26.1-22c13.1-8.6,39.6-22,53-26.6c8.5-3,10.7-3.3,23.2-4
		c11.7-0.5,14.2-0.9,16.2-2.4c5-3.8,2.6-9.7-4.9-12.4C1477.3,1062.1,1461.6,1061.8,1453.7,1064z"/>
	<path id="structure172_label182_BMA" bar:growlevel="0" bar:type="" class="st23" d="M1746.2,2028.9c-16.7,5.6-19.2,6.7-21.8,9.4
		c-1.6,1.7-3.9,3.5-5,4c-2.4,0.9-3.3,4.2-3.3,12.2c-0.1,15.1-6.2,32.1-16.7,46.1c-2.7,3.6-4.9,6.9-4.9,7.5c0,0.4,1.9,0.9,4.3,0.9
		c2.3,0,9.1,1.4,14.9,3.1c9.5,2.8,33.8,8.1,34.3,7.5c0.7-0.8,3.3-6.6,4.9-10.7c3.6-9.4,5.4-18.7,8.1-41.9
		c1.5-12.8,3.5-27.8,4.5-33.4c1-5.6,1.8-10.4,1.8-10.6C1767.3,2022,1764.7,2022.8,1746.2,2028.9z"/>
	<path id="structure173_label183_IMG" bar:growlevel="0" bar:type="" class="st24" d="M1958.9,1793.4c-6.9,6-14,13.8-20,21.6
		l-3.4,4.6l0.5,7.7c0.7,9.5-1,18.8-5.5,29.7c-1.8,4.2-3.4,8.5-3.7,9.6c-0.8,3.3,1.9,2.5,5.6-1.8c5.1-5.9,10.9-18.7,14.9-33
		c2.1-7.2,5-15.9,6.7-19.4c2.9-6.2,11.3-19.5,13.1-20.6c1.4-0.8,1.1-4.1-0.3-4.1C1966.2,1787.7,1962.6,1790.3,1958.9,1793.4z"/>
	<path id="structure174_label184_LaVL" bar:growlevel="0" bar:type="" class="st25" d="M2024.4,1821.2c-0.3,1.2-1.1,5.3-1.9,9.3
		c-2,10.3-7.7,28.8-14,45.2c-3.6,9.2-6.3,18.1-7.6,25.3c-3.5,17.3-4.2,15.5,9.3,21.9c16.7,7.9,36.9,17,38,17c0.5,0,0.9-3.2,0.9-8
		c0-17,3.2-39.6,9.1-63.3c2.2-8.7,3.5-15.9,3.1-17.2c-0.8-3.5-7.2-10.7-15.1-17.5c-8.6-7.2-19-14.7-20.4-14.7
		C2025.2,1819.2,2024.5,1820.1,2024.4,1821.2z"/>
	<path id="structure175_label185_VEn" bar:growlevel="0" bar:type="" class="st26" d="M2064.1,1986.3c-1.4,22.5-11.3,46.3-24.3,58.5
		c-8.7,8.2-20.3,12.6-26.8,10.3c-1.5-0.5-4-1-5.4-1c-2.2,0-2.5,0.4-3.1,3.8c-0.4,2.2-1.9,7.6-3.3,12.2c-1.4,4.7-2.4,8.6-2.2,8.9
		c0.9,0.9,14.4-1.7,22.5-4.3c28.9-9.4,55.5-32.6,73.7-64c2.3-4,4.2-7.8,4.2-8.5c0-0.5-1.9-1.5-4.2-2.2c-9.4-2.3-20.3-10.3-26.2-19.1
		C2065.5,1975.6,2064.7,1976.5,2064.1,1986.3z"/>
	<path id="structure176_label186_PLH" bar:growlevel="0" bar:type="" class="st27" d="M1505,1805.1c-10.9,5.7-20.2,10.6-20.5,11.1
		c-0.4,0.4-2.9,4.5-5.4,9.1c-7.3,12.9-15.6,24-25.2,34.1c-15.8,16.4-24.9,20.9-40.4,19.7c-5.5-0.5-7.9-0.3-7.9,0.4
		c0,0.5,1.5,3.1,3.5,5.7c8.2,11,13.6,24.7,15.4,39.3c1.9,14.3-0.5,32.4-6.8,51.3c-7,21.1-24.9,52.6-35.8,62.8
		c-10.7,10.2-24.5,13.4-38.5,9.2c-21.4-6.4-41-25.5-57.7-56.2c-10.5-19.3-20.8-45.5-23.1-59.3c-1.3-7.2-0.2-13.8,3.9-22.2
		c3.4-7.4,13.2-17.4,21.3-21.8c12.7-7,53.5-17.4,82.6-21c2.7-0.4,4.7-1.1,4.7-1.7c0-0.5-4.9-3.7-11.1-7l-11-5.8l-23.9-1.1
		c-13.1-0.6-34.6-1.9-47.7-2.8c-13.1-1-24.1-1.8-24.5-1.8c-1.7,0-0.4,2.4,2.3,4.7c10.3,8.1,7.5,20.1-8.4,35.8
		c-14.7,14.7-26.6,21.3-39.8,22.2c-4.3,0.4-7,0.9-7,1.5c0,0.5,3.6,3.4,8,6.3c8.9,5.9,17.1,13.3,20.3,18.4c3.7,5.9,7.7,18.9,7.8,24.9
		c0.1,11.8-4,14.9-25,19.3c-23.3,4.9-38.2,9.2-38.2,11.2c0,0.9,2.7,1.3,9.7,1.7c14.1,0.7,25.2,4.6,38.4,13.5
		c12.6,8.5,31.3,25.2,45.2,40.2c16.3,17.7,41.9,53,53.9,74.1c2.7,4.8,5,7.7,5.7,7.7c0.8-0.2,1.7-2.4,2.4-5.9
		c2.7-13.2,10.3-23.1,19.9-26.1c7.4-2.3,40.6-2.3,50.7-0.1c11.9,2.6,16.9,5,22.6,10.5c8.2,8,8.7,14,2.1,23.7
		c-5.8,8.2-23,20.4-36.5,25.8c-9,3.6-16.7,4.8-28.9,4.4c-8.9-0.3-10.8-0.5-15.2-2.8c-2.8-1.3-5.5-2.4-6-2.4c-0.7,0-0.9,2.4-0.5,8.3
		c0.9,13.9-3,24.8-12,33.8c-2.7,2.7-4.9,5.3-4.9,5.8c0,1.8,4.5,0.5,18.6-5c35.3-14.1,76-35.2,106.2-55.1
		c26.7-17.6,56.9-42.8,75.6-63.2l8.6-9.4l-0.5-5.6c-1-9.8,1.8-30.5,5.8-42.8c2.2-6.5,23.3-49.7,34-69.6c7-12.8,8.2-15.8,6.5-15.8
		c-0.4,0-4.3,1.8-8.6,4.1c-4.4,2.2-9.3,4.2-10.9,4.6c-2.8,0.5-3,0.8-4.8,8c-4.9,19.5-17.2,40.1-31.5,52.7c-5.8,5.1-6.8,7.1-3.3,7.1
		c3.1,0,6.7,3.2,7.4,6.8c1,5.2-4,18.3-8.9,23.7c-2.9,3.1-10,6.5-13.8,6.5c-4.5,0-8.6-2.2-10.7-5.7c-2.3-3.9-2.4-12.4-0.1-17.5
		c1-2.1,1.4-4.1,1.2-4.3c-0.3-0.3-3.4-0.1-6.9,0.5c-3.6,0.6-8.3,0.8-10.6,0.4c-17-2.5-25.6-20-20.1-40.5c4.7-16.9,17-37,32.6-52.9
		l9.7-10l-1.7-6.4c-4-14.3-4-35.3-0.4-53.6c3.6-17.4,12.9-38.3,24.1-54.2c3.8-5.3,6.8-10.1,6.8-10.6
		C1527.9,1793.7,1524,1795.4,1505,1805.1z"/>
	<path id="structure177_label187_PTe" bar:growlevel="0" bar:type="" class="st28" d="M1507.7,2016.7c-4,1.8-8.2,3.7-9.4,4.3
		c-5.6,2.8-8.5,17.7-4.6,23.8c4,6.3,12.5,7,20.4,1.7c8.6-5.8,15.1-24.5,10.4-30.2C1521.7,2012.9,1516.2,2012.9,1507.7,2016.7z"/>
	<path class="st29" d="M1163.4,1518.1c0-0.7-0.4-1.3-0.8-1.3c-1.9,0-5.3-4.9-6.8-9.9c-1.4-4.8-1.5-7.6-1.1-25.8
		c0.4-11.3,0.9-24.8,1.2-30.2c0.4-5.8,0.3-9.6-0.2-9.6c-0.5,0-3.3,2.3-6.3,5.3c-3.9,3.8-6.8,5.7-10.3,6.8c-2.5,0.8-5.1,1.2-7.7,1.3
		v62.5c4.1,0,8.2,0.3,14.9,0.9C1165,1519.7,1163.4,1519.7,1163.4,1518.1z"/>
	<path id="structure17_label16_SubI" bar:growlevel="0" bar:type="" class="st30" d="M1461.7,1827.2c-34.7,17.5-56.1,23.2-91.6,24.9
		c-8.5,0.4-13.1,1-13.1,1.6c0,1.5,32.4,18.4,41.2,21.5c6.5,2.3,9.6,2.9,17.7,3.1c8.5,0.3,10.6,0.1,14.9-1.5
		c13.3-5,31.6-24.3,46.3-48.6c2.7-4.5,5-8.6,5-9.1C1482,1817.4,1478.6,1818.7,1461.7,1827.2z"/>
	<path class="st31" d="M1195.6,2202.6c-0.5,0,0.1-1.2,1.4-2.5c4.8-4.9,1.6-10.1-6.2-10.1c-5.5,0-8.7,1.9-14,8.1
		c-6.9,8.1-10.3,8.8-22.7,4.5c-7.2-2.5-14.9-3.8-22.8-3.8v21.6c36.3,0.2,55.8-0.1,58.1-0.7c5.7-1.5,9-4.9,9-9
		C1198.5,2206.8,1196.9,2202.6,1195.6,2202.6z"/>
	<path id="structure184_label197_ArcL" bar:growlevel="0" bar:type="" class="st32" d="M1176.9,2150.2c0,0.5,0.8,4,1.9,7.9
		c1.3,4.9,2.1,11.1,2.3,20.3c0.3,7.4,0.7,13.3,1,13.3c0.2,0,2.3-0.6,4.6-1.5c5.8-2.1,8.2-1.2,13.8,5.3
		c13.3,15.6,17.7,18.7,26.2,18.7c7.6,0,8.6-3.2,4.4-12.2c-3.6-7.5-11.3-16.8-25.9-31.1C1190.1,2156.3,1176.9,2146.6,1176.9,2150.2z"
		/>
	<path class="st20" d="M1838.6,1224.5c-7.9-9.1-11.2-13.9-23.1-34.8c-15.8-27.7-19.8-36.7-24.2-54.3c-3.3-13.3-5-25-5.9-44.3
		c-1.9-35.7-3.1-42-13.3-64.8c-3.4-7.6-7.7-18-9.7-22.9l-3.5-8.9l-8.1-6.3c-35.4-27.4-76.7-50.1-129.1-71.3
		c-37.6-15.1-83.2-28.9-112.3-33.9c-15.7-2.8-56.3-3-71.7-0.5c-36.9,6.1-64,18.1-81.1,35.9c-3.4,3.6-13.2,15.5-21.7,26.4
		c-24.9,32.3-31.3,39.7-47.4,55.8c-21,20.9-37.9,33.2-57.3,41.7c-7,3-8,3.7-9.9,7.4c-2.8,5.2-13.6,15.8-20,19.7
		c-9.5,5.6-15.7,7.6-24.5,8c-4.4,0.2-10.3-0.1-13-0.7c-6.5-1.4-13.3-5.1-14.9-8.1l-1.3-2.3l-15,0.1v31.7c1.4,0,2.8,0,4.1,0
		c40.4-1.9,92.8-23.6,129.1-53.5c17.8-14.7,31.2-29.1,56.7-61c20.5-25.7,37-43.2,52.2-55.4c17.8-14.3,42.5-25.7,65.7-30.4
		c19.5-4,45.9-4.1,65.1-0.5c34.4,6.6,140.8,45.6,179.8,66.1c37.3,19.6,60.8,48.5,71.3,87.8c2.2,8.1,2.3,10.7,2.4,24.4
		c0,13.6-0.3,16-2.1,22.1c-5,16.2-12.9,25.5-27.8,33.1c-23.2,11.9-56.8,21.8-81.7,23.9c-8.2,0.7-122.7,6.7-141.3,7.3
		c-16.1,0.6-20.3,1.1-20.3,2.3c0,0.4,2.3,3.8,4.9,7.4c2.8,3.6,5.5,7.9,6,9.4c1.3,3.5,1.3,3.5,12.4,1.2c25-5.2,55.7-5.8,78.8-1.4
		c17.1,3.2,35.5,7.5,43.7,10.1c8.3,2.6,8,2.4,64.3,52c22.3,19.7,41.6,36.4,42.9,37.1c4.6,2.4,18.4,3.4,31.3,2.3
		c28-2.3,51.3-10.3,68.2-23.2c8-6.1,10-8.8,10.7-14.5C1848.8,1238.2,1846.3,1233.2,1838.6,1224.5z"/>
	<path id="structure18_label17_MCLH" bar:growlevel="0" bar:type="" class="st33" d="M1491.8,1927.8c-14.6,13.9-29,36.4-34.2,53.5
		c-5.1,16.7-1,32.9,9.9,39.3c3.8,2.3,5,2.4,13.6,2.4c8.4,0,10.4-0.4,18.1-3c4.8-1.6,10.4-4,12.6-5.5c18.5-11.8,34.7-34.4,41.2-58
		c2.9-10,3.2-9.5-6.4-8.9c-9.7,0.5-16.7-1-25.6-5.4c-6.2-3.1-16.1-11.6-19.2-16.5c-1.1-1.7-2.5-3.1-3.3-3.1
		C1497.8,1922.7,1494.8,1925,1491.8,1927.8z"/>
	<path id="structure190_label206_cst" bar:growlevel="0" bar:type="" class="st34" d="M1779.9,1315.4c0,7.1-0.9,6.8,17.4,7.6
		l12.3,0.6v-2.9c0-7.1-5.4-10-20-10.7l-9.7-0.5V1315.4z"/>
	<path id="structure196_label212_sox" bar:growlevel="0" bar:type="" class="st35" d="M1696.4,1805.6c-9.8,3.9-5.2-1-48.9,50.9
		c-62.5,74.4-63.9,76-70.4,87.5c-9.5,16.7-36.9,72-39.2,79.1c-3.2,10.4-4.7,18.9-5.3,32.5c-0.4,11.3-0.4,12.9,0.8,12.9
		c0.8,0,1.8-0.5,2.3-1.2c0.5-0.6,13.3-25.4,28.3-55.1c37.7-74.4,40.4-79.5,55.8-102.6c31.2-46.9,53.3-74.2,78.5-97.1
		C1711.3,1800.9,1711,1799.8,1696.4,1805.6z"/>
	<path id="structure197_label213_cst" bar:growlevel="0" bar:type="" class="st34" d="M1807.3,1737.1c-9.1,6.7-22.7,23.6-24.7,30.7
		c-1.4,4.8-1.2,5.9,1.4,9c4.1,4.9,10.5,3.5,16.9-3.6c5.7-6.2,10.1-18.8,11.8-33.5C1813.5,1733.6,1812.7,1733.2,1807.3,1737.1z"/>
	<path id="structure198_label214_ml" bar:growlevel="0" bar:type="" class="st36" d="M1604,1682c-20.4,7.2-50.5,13.2-76.2,15.2
		c-5.9,0.4-7.9,0.9-7.9,1.9c0,0.8,1,1.3,2.5,1.3c1.3,0,7.3,0.4,13.2,0.9c5.9,0.4,15.7,0.8,21.6,0.9c10.4,0.2,11.1,0.1,19.3-3.1
		c4.7-1.9,12-4.2,16.2-5.3c6-1.5,9.1-3,14.7-6.8C1617.7,1679.7,1616.3,1677.7,1604,1682z"/>
	<path id="structure199_label215_a" bar:growlevel="0" bar:type="" class="st37" d="M1501.5,2105c-5.2,5.2-1.4,14.8,5.9,14.8
		c4.8,0,6.9-1.3,8.5-5.1c1.6-3.8,0.4-8.5-2.6-10.6C1510,2101.8,1504.3,2102.3,1501.5,2105z"/>
	<path id="structure1_label0_TuLH" bar:growlevel="0" bar:type="" class="st38" d="M1505,1805.1c-10.9,5.7-20.2,10.6-20.5,11.1
		c-0.4,0.4-2.9,4.5-5.4,9.1c-7.3,12.9-15.6,24-25.2,34.1c-15.8,16.4-24.9,20.9-40.4,19.7c-5.5-0.5-7.9-0.3-7.9,0.4
		c0,0.5,1.5,3.1,3.5,5.7c8.2,11,13.6,24.7,15.4,39.3c1.9,14.3-0.5,32.4-6.8,51.3c-7,21.1-24.9,52.6-35.8,62.8
		c-10.7,10.2-24.5,13.4-38.5,9.2c-21.4-6.4-41-25.5-57.7-56.2c-10.5-19.3-20.8-45.5-23.1-59.3c-1.3-7.2-0.2-13.8,3.9-22.2
		c3.4-7.4,13.2-17.4,21.3-21.8c12.7-7,53.5-17.4,82.6-21c2.7-0.4,4.7-1.1,4.7-1.7c0-0.5-4.9-3.7-11.1-7l-11-5.8l-23.9-1.1
		c-13.1-0.6-34.6-1.9-47.7-2.8c-13.1-1-24.1-1.8-24.5-1.8c-1.7,0-0.4,2.4,2.3,4.7c10.3,8.1,7.5,20.1-8.4,35.8
		c-14.7,14.7-26.6,21.3-39.8,22.2c-4.3,0.4-7,0.9-7,1.5c0,0.5,3.6,3.4,8,6.3c8.9,5.9,17.1,13.3,20.3,18.4c3.7,5.9,7.7,18.9,7.8,24.9
		c0.1,11.8-4,14.9-25,19.3c-23.3,4.9-38.2,9.2-38.2,11.2c0,0.9,2.7,1.3,9.7,1.7c14.1,0.7,25.2,4.6,38.4,13.5
		c12.6,8.5,31.3,25.2,45.2,40.2c16.3,17.7,41.9,53,53.9,74.1c2.7,4.8,5,7.7,5.7,7.7c0.8-0.2,1.7-2.4,2.4-5.9
		c2.7-13.2,10.3-23.1,19.9-26.1c7.4-2.3,40.6-2.3,50.7-0.1c11.9,2.6,16.9,5,22.6,10.5c8.2,8,8.7,14,2.1,23.7
		c-5.8,8.2-23,20.4-36.5,25.8c-9,3.6-16.7,4.8-28.9,4.4c-8.9-0.3-10.8-0.5-15.2-2.8c-2.8-1.3-5.5-2.4-6-2.4c-0.7,0-0.9,2.4-0.5,8.3
		c0.9,13.9-3,24.8-12,33.8c-2.7,2.7-4.9,5.3-4.9,5.8c0,1.8,4.5,0.5,18.6-5c35.3-14.1,76-35.2,106.2-55.1
		c26.7-17.6,56.9-42.8,75.6-63.2l8.6-9.4l-0.5-5.6c-1-9.8,1.8-30.5,5.8-42.8c2.2-6.5,23.3-49.7,34-69.6c7-12.8,8.2-15.8,6.5-15.8
		c-0.4,0-4.3,1.8-8.6,4.1c-4.4,2.2-9.3,4.2-10.9,4.6c-2.8,0.5-3,0.8-4.8,8c-4.9,19.5-17.2,40.1-31.5,52.7c-5.8,5.1-6.8,7.1-3.3,7.1
		c3.1,0,6.7,3.2,7.4,6.8c1,5.2-4,18.3-8.9,23.7c-2.9,3.1-10,6.5-13.8,6.5c-4.5,0-8.6-2.2-10.7-5.7c-2.3-3.9-2.4-12.4-0.1-17.5
		c1-2.1,1.4-4.1,1.2-4.3c-0.3-0.3-3.4-0.1-6.9,0.5c-3.6,0.6-8.3,0.8-10.6,0.4c-17-2.5-25.6-20-20.1-40.5c4.7-16.9,17-37,32.6-52.9
		l9.7-10l-1.7-6.4c-4-14.3-4-35.3-0.4-53.6c3.6-17.4,12.9-38.3,24.1-54.2c3.8-5.3,6.8-10.1,6.8-10.6
		C1527.9,1793.7,1524,1795.4,1505,1805.1z"/>
	<path id="structure200_label216_a" bar:growlevel="0" bar:type="" class="st37" d="M1449.9,2143.6c-5.4,3.6-6.6,5.4-6.6,9.7
		c0,4.1,1.8,5.5,6.3,4.9c6.3-0.8,13.5-7.9,13.5-13.3C1463.1,2139.5,1457,2138.9,1449.9,2143.6z"/>
	<path class="st39" d="M1141.3,2180.3c-3.3-4.4-4.8-7.1-6.6-13c-0.7-2.3-1-40.9-1-137.4v-134.3h-2.3v290.2c7.3,0,13.1-0.3,13.1-0.6
		C1144.5,2184.9,1143.1,2182.7,1141.3,2180.3z"/>
	<path id="structure205_label221_VMHC" bar:growlevel="0" bar:type="" class="st40" d="M1245.2,2056.5
		c-8.6,14.2-27.1,34.9-39.9,44.5c-7.7,5.8-16.8,10.8-22.9,12.3c-2.1,0.6-3.8,1.4-3.8,2c0,2.2,28.5,42.2,30.2,42.2
		c0.6,0,2.5-2.3,4.3-5.2c3.8-6.1,12.7-14.9,19.5-19.3c16.5-10.5,39.3-18.1,61-20.2c4.4-0.4,6.5-1,6.5-1.8c0-1.3-8-11.3-23.8-29.6
		c-14.9-17.2-25.7-28.3-27.6-28.3C1248,2053.2,1246.3,2054.7,1245.2,2056.5z"/>
	<path id="structure213_label237_sm" bar:growlevel="0" bar:type="" class="st41" d="M1184.1,1260.5c0,2.2,9.1,14.3,15.3,20.6
		c5.1,5.1,7.6,6.8,18.1,11.8c19.9,9.6,31.1,12.6,53.4,14.2c14.4,1.1,40.2,0.5,47.8-1c2.4-0.5,5.1-1.6,5.9-2.5
		c0.9-0.8,4-6.3,7.1-12.2c4.5-8.6,5.7-11.6,6-16.1l0.5-5.5l-3.6,0.5c-19.2,3.1-31.8,3-49.8-0.6c-15.8-3.1-29.7-4.2-61.2-4.9
		l-27.5-0.5l-5-2.5C1185.6,1259.1,1184.1,1258.8,1184.1,1260.5z"/>
	<path id="structure216_label242_S1DZ" bar:growlevel="0" bar:type="" class="st42" d="M1920.1,663.3
		c-27.3,47.7-147.7,262.2-148,263.5c-0.2,1.4,1.8,3.2,9.3,8.5c5.3,3.7,14,10.3,19.4,14.6c5.4,4.4,10.5,7.9,11.3,7.9
		c1.1-0.1,27-42.6,83.3-136.3c44.9-74.9,81.6-136.6,81.6-137.1c0-0.5-1-1.6-2.2-2.3c-3.9-2.6-48.8-25.8-49.8-25.8
		C1924.6,656.4,1922.3,659.5,1920.1,663.3z"/>
	<path id="structure217_label243_ec" bar:growlevel="0" bar:type="" class="st43" d="M1474.8,862.2c-3.7,0.2-7.6,0.4-8.7,0.7
		c-3.1,0.7-2.5,2.9,0.9,3.5c6.6,1.3,28.1,8.2,40.2,13.1c7.2,2.9,16.4,5.9,20.3,6.8c17.6,3.9,51.5,14.3,76.5,23.6
		c59,21.9,108.4,48.3,148.5,79.5c14,10.9,40.9,33.9,55.5,47.4c22,20.3,62.6,63.4,79.6,84.4c44.9,55.7,101.4,152.4,128.1,219.4
		c14.1,35.5,22.3,63.3,37.4,127.1c4.2,17.8,9.6,39.9,12.1,49.1c10.8,40.3,12.7,59.8,12.7,130.9c0,27.8,0.4,56.4,1.1,66.9
		c2.4,40.4-3.5,98.3-13.4,129.3c-11.9,37.7-16.1,63.7-15.3,94.2c0.4,14.7,0.8,19.2,2.9,28.6c3.5,15.6,3.5,30.2,0.1,41.7
		c-4.4,14.8-11.1,25.6-22.5,36.5c-3.8,3.5-6.8,6.8-6.8,7.4c0,1.7,4.1,0.9,8.6-1.7c15.3-8.8,28.2-34.2,31-61.3
		c1-10.3,0.5-16.3-1.9-26.1c-6.4-25.1-2.8-58.7,12.2-114.8c13.2-49.2,13.9-55.1,14.8-138.6c1-90.4-0.2-131.5-5.4-176.8
		c-6.4-57-20.6-133.1-36.9-198c-31.6-126.4-63.5-193.9-126.4-267.3c-29-33.9-81.8-86.8-111-111c-29.9-24.8-65.1-47.5-95.3-61.4
		l-13.1-5.9l-4.3,1.1c-5.9,1.5-13.3,0.4-40.9-6.5C1579.3,865.1,1535.1,859.8,1474.8,862.2z"/>
	<path id="structure221_label247_df" bar:growlevel="0" bar:type="" class="st44" d="M1211.6,1049.8c-11.8,4.8-44.8,13-59.1,14.8
		c-6.3,0.8-6.8,2.4-2.1,6.7c6.1,5.4,22,7.9,32.8,5.1c11.9-3,24.1-10.9,32.2-20.6C1221.6,1048.1,1220.3,1046.3,1211.6,1049.8z"/>
	<path id="structure224_label253_vlh" bar:growlevel="0" bar:type="" class="st45" d="M1507.7,2016.7c-4,1.8-8.2,3.7-9.4,4.3
		c-5.6,2.8-8.5,17.7-4.6,23.8c4,6.3,12.5,7,20.4,1.7c8.6-5.8,15.1-24.5,10.4-30.2C1521.7,2012.9,1516.2,2012.9,1507.7,2016.7z"/>
	<path class="st46" d="M1150.8,2191.1c-6-2.9-12.7-4.5-19.4-4.6v12.2c9.4,0.1,13,0.5,17.6,2c13.1,4.2,16.1,4.9,18.4,4.3
		c1.3-0.3,2.3-1.1,2.3-1.7C1169.6,2201.9,1159,2195,1150.8,2191.1z"/>
	<path id="structure227_label258_ArcD" bar:growlevel="0" bar:type="" class="st47" d="M1133.7,2113.9v23.9h5.5
		c6.7,0,21.7,3,27.4,5.4c2.3,1,4.6,1.8,5,1.8c2.7,0-0.3-5.3-16.2-29.2c-10.9-16.3-18.4-25.7-20.3-25.7
		C1133.9,2090.1,1133.7,2093.6,1133.7,2113.9z"/>
	<path id="structure228_label259_ArcM" bar:growlevel="0" bar:type="" class="st48" d="M1133.7,2151.5v14l3.2,6.2
		c1.7,3.4,5.3,8.6,8,11.7c6.3,6.9,25,20,27.5,19.1c0.4-0.2,2.4-2.5,4.6-5.2l4-4.9l-0.1-11.3c-0.1-12.2-1.2-19.8-4.1-28.5l-1.8-5.6
		l-6.5-2.6c-7.5-3.1-16.7-5.2-27.4-6.1l-7.5-0.6L1133.7,2151.5L1133.7,2151.5z"/>
	<path id="structure229_label260_VMHSh" bar:growlevel="0" bar:type="" class="st49" d="M1171.2,1993.9c-5.5,1.3-12.9,5.9-19.5,12.3
		c-10.5,9.8-9.7,6.5-11.8,48.7l-1.8,36.9l5,6.1c5.9,7.3,26.6,38.6,29.4,44.5c1.5,3.1,3.2,4.9,6.9,7c18,10.8,48.4,42.6,53.4,55.8
		c1.7,4.4,1.7,5,0.4,6.9c-0.7,1.2-2.3,2.3-3.4,2.3c-4.8,0.4-9.5-0.4-12.4-2c-3.1-1.5-15.2-13.8-15.2-15.3c0-1.8-2.4-0.6-3.9,1.9
		c-1.5,2.5-1.5,3-0.1,7.4c2.3,7.1,2.3,7.2,8.3,11.3c6.9,4.7,13.4,7.1,23.8,8.9c14.6,2.5,26.5,0.5,35.5-6.3c6.8-5.1,11.8-6.8,23-7.4
		c12.7-0.6,21.6-2.7,28.8-6.5c16.7-8.7,23.8-21.6,22.9-41.6c-0.6-13.3-3.5-21.9-13.5-40.1c-8.2-14.8-30.2-47.3-41.8-61.7
		c-20.8-25.8-52.1-54-69.4-62.6c-11-5.5-16.4-6.8-29.4-7.1C1180,1993.1,1173.1,1993.3,1171.2,1993.9z M1199,2019.4
		c7.7,1.6,22.3,8.8,30.2,14.8c14,10.6,27.2,23.9,49.4,49.6c34.3,39.8,44,57,45.6,80.6c1.1,17-5.8,25.9-24,30.9
		c-15.2,4-37.7,5.3-46.8,2.6c-9.7-3-21.5-11.7-32.8-24.1c-15.6-17.2-54.4-74.4-63.2-93.1c-4.3-9.1-5.8-15.7-5.8-26.1
		s1.6-17.9,5.2-23.9c1.9-3.2,3.7-4.7,8.6-7C1176.3,2018.3,1187.3,2017,1199,2019.4z"/>
	<path class="st50" d="M1222.8,1809.3c-3.1,0-10.1-2.7-25.2-9.9c-8.2-3.9-17.1-7.6-19.8-8.1c-2.6-0.6-25.3-1.2-46.4-1.4v53
		c10.7,0,21.3-0.2,36.5-0.5c13.6-0.4,26.1-0.6,27.7-0.6c3.2,0,3.9-1.6,1.2-3.3c-4.2-2.7-1.7-10,5.3-15.1c3.7-2.7,15.8-8.8,21-10.6
		C1225.2,1811.8,1225.1,1809.3,1222.8,1809.3z"/>
	<path id="structure231_text3327_Py" bar:growlevel="0" bar:type="" class="st51" d="M1456.8,914.4c-29.9,3.2-56.7,16.4-81.3,39.9
		c-5.5,5.2-25,25.3-43.4,44.5c-69.6,73-95.7,94.5-126,103.9c-7.1,2.3-27.1,3.7-47.1,3.6c-6.5-0.1-12.2,0.2-12.7,0.4
		c-0.5,0.4-1,1.4-1,2.3c0,3.5,3.9,4.2,25.6,4.9c26.6,0.7,36.9-0.2,46.3-4.2c12.7-5.5,28.3-15.7,45.7-29.9
		c12.1-9.9,50.4-48.2,70.9-71.1c32.2-35.8,48-50.8,64.8-61.9c21.5-14.1,42.3-20.6,66.6-20.7c22.9-0.1,45.4,5.9,83.2,22.3
		c32,13.9,32.8,14.3,47.5,27.9c15.8,14.5,19.7,17.3,32.5,22.7c8.5,3.7,10.4,4.2,16.8,4.3c9.2,0.3,18.2,3.6,30.1,11.3
		c11.9,7.6,19.5,15.7,24.4,25.6l4,7.8v10.4c0,27.4-11.4,46.4-33.6,55.9c-12.6,5.3-35,10.3-60,13.1c-18.9,2.3-56.8,2.3-72.9,0
		c-24.5-3.3-44.4-8.9-61.6-17.4l-10.3-5l-10.4,1.2c-14.5,1.5-22.1,3.7-33.2,9.5c-16.7,8.6-33.1,21.5-58.5,45.5
		c-15.8,14.9-18.8,19.1-17.8,24.7c1.1,5.8,7.2,7.6,12.5,3.9c1.6-1.1,10.9-8,20.6-15.3c49.4-36.9,53.5-38.2,111-35.5
		c77.1,3.8,116.9,2.7,150.3-4.1c16.7-3.3,40-10.4,49-14.9c17.9-8.9,28.3-23.8,34.7-49.4c4.2-17.2,2.3-29.4-6.8-42.5
		c-12.4-17.7-47.9-38.7-109.8-65c-13.1-5.6-32.9-14.4-44.1-19.5c-50.5-23.6-70.8-30.2-92.9-29.8
		C1464.6,914,1458.5,914.2,1456.8,914.4z"/>
	<path class="st52" d="M1144,1885.8c-3-6.2-5-7.6-11.9-7.8c-0.2,0-0.5,0-0.7,0v17.8h2.3l0.2,96.5c0.3,95.8,0.3,96.6,2.1,96.6
		c1.7,0,1.9-1.1,3.3-31.9c5.2-111,6.3-135.4,6.4-150.3C1145.9,1891.3,1145.7,1889.5,1144,1885.8z"/>
	<path id="structure237_Unlabeled-2110-708_Unlabeled" bar:growlevel="0" bar:type="" class="st53" d="M1404.2,862
		c-25.7,5.7-55.9,25.9-73.1,49c-5.3,7.1-16.9,26.3-24.9,41.4c-3.9,7.2-8,14.3-9.2,15.9c-1.2,1.5-2.2,3.6-2.2,4.5s-1.6,5.7-3.6,10.5
		c-4.3,10.4-5.4,15.8-3.3,15.8c3,0,19.9-19.7,46.8-54.5c8.5-10.9,18.3-22.8,21.7-26.4c17.1-17.8,44.5-30,81.1-35.9
		c11.1-1.7,47.9-2.3,63.3-0.8c6.9,0.6,8.3,0.5,8.3-0.5c0-1.5-17.9-8.2-33.9-12.6c-6.7-1.8-11.1-3.4-11.1-4.1c0-0.7-1.7-1.1-5.7-1.1
		c-3.2,0-9.7-0.6-14.7-1.3C1432.8,860.4,1411.6,860.4,1404.2,862z"/>
	<path id="structure239_Unlabeled-2469-1171_Unlabeled" bar:growlevel="0" bar:type="" class="st53" d="M1731.3,1278
		c0,0.9-0.3,3.2-0.5,4.9c-0.5,3-0.4,3.4,1.1,3.4c1.1,0,3.4,2.3,6.2,5.9c5.6,7.4,15.8,16.9,22.4,20.9c6,3.7,14.7,7.3,17.5,7.4
		c1.9,0,2-0.4,2-5.9c0-5.5-0.1-5.8-2-5.8c-1.2,0-4.2-1-6.8-2.3c-6.1-2.9-23.6-19.5-23.6-22.6c0-1.7-0.6-2.2-4-2.7
		c-2.3-0.3-5.6-1.5-7.3-2.7C1732.4,1276,1731.3,1275.9,1731.3,1278z"/>
	<path class="st54" d="M1187.9,1752.5c-0.6-1.8-3.4-6-6.1-9.4c-10-12.5-16.1-28.7-17.1-45.7c-0.4-5.6-1.1-9.9-1.9-11.2
		c-1.8-2.9-9.3-6.2-16.5-7.3c-3.6-0.6-9.2-0.9-14.9-0.9v111c0.2,0,0.3,0,0.5,0c29.6,0,35.9,0.3,43.6,1.7c10.1,1.8,9.5,2.2,12.1-5.8
		C1189.4,1778.9,1189.7,1757.5,1187.9,1752.5z"/>
	<path class="st53" d="M1210.2,1327.5c-4.9-1.5-8.1-3-8.1-3.7c0-0.9-1.4-1.1-6.2-0.7c-11.6,0.8-20.7-2.8-32.7-12.9
		c-6.9-5.8-10-7-10.9-4.5c-0.4,0.7-2.3,2.2-4.4,3.2c-3.2,1.7-5.8,2.1-14.8,2.4c-0.6,0-1.2,0-1.8,0v19.8c2.9,0,5.6-0.8,10-2.2
		c6.9-2.3,7.7-2.3,22.5-1.8c16.9,0.5,23,1.7,27.8,5.4c2.6,2,3.2,3.1,3.2,5.6c0,1.6,0.4,3.1,0.8,3.1c0.4,0,2.7-1.1,5-2.3
		c2.3-1.3,7.1-3.3,10.6-4.4c3.6-1.2,6.6-2.6,6.8-3.3C1218.2,1330.5,1215.6,1329.2,1210.2,1327.5z"/>
	<path id="structure242_Unlabeled-2532-1695_Unlabeled" bar:growlevel="0" bar:type="" class="st53" d="M1775,1759
		c-18.5,13.1-35.2,24.2-45.2,30.1c-7.7,4.4-9.4,6.8-4.9,6.8c1.3,0,3,0.5,3.6,1.1c1.8,1.8,1.2,9.7-1.3,16.5
		c-4.5,12.6-4.1,12.9,5.5,4.6c6.7-5.8,11-8.6,13.3-8.6c2.7,0,7.7,7.3,10,14.6c0.7,2.3,3.2,2.1,3.2-0.3c0-3.1,5.9-19.9,9.5-27.1
		c1.8-3.6,5.4-9.8,8-13.8c3.2-5,4.9-8.6,5.2-11.5c0.7-5,2.8-9.3,7.7-15.9c2.1-2.7,3.7-5.4,3.7-6
		C1793.4,1746.6,1789.5,1748.7,1775,1759z"/>
	<path class="st53" d="M1165.5,1842.2c-12.1,0.4-27.3,0.8-34.1,0.8v35.1c5.5,0,7.1,0.4,8.6,1.8c2.8,2.5,5.1,8,5.9,14.1l0.5,5.2h11
		c6,0,13.1,0.3,15.8,0.5c5.5,0.7,6.2-0.6,2.3-4.2c-1.3-1.2-3.4-4.2-4.7-6.7c-2.1-4-2.3-5.6-2.3-12.6c0.1-13.1,5.7-24.5,14.6-29.7
		C1191.6,1841.6,1190.4,1841.3,1165.5,1842.2z"/>
	<path class="st55" d="M1178.3,1615.7c-20.5,1-34.2,1.6-46.9,1.6v60c11.7,0.1,23.4,2.2,28.8,6.3c1.7,1.3,3.4,2.3,3.9,2.3
		c0.5,0,1.6-3.8,2.7-8.4c3.9-16.1,12.2-28.9,25-38c10-7.2,32-17,45.3-20.3c2.5-0.6,4.7-1.6,4.7-2.3
		C1241.7,1615.3,1201.9,1614.5,1178.3,1615.7z"/>
	<path id="structure25_label25_SubD" bar:growlevel="0" bar:type="" class="st56" d="M1246.6,1617c-25.6,6.1-49.1,16.8-61.7,28.3
		c-1.9,1.7-3.4,3.6-3.4,4.2c0,0.7,2.5,1.5,7.1,2.2c4,0.6,13,2.7,20.1,4.7c16.2,4.4,23.5,5.9,33.1,6.7c8.8,0.7,32.9-0.7,46.8-2.8
		c13.9-2,36-7.5,36-8.8c0-0.7-1.4-4.1-3.2-7.6c-4.5-8.9-12.6-16.4-23.4-21.4c-11.2-5.2-17.8-6.8-31.1-7.2
		C1257.3,1615,1254.3,1615.2,1246.6,1617z"/>
	<path class="st57" d="M1256.7,1612.4c-0.3-1.4-2.3-12.3-4.6-24.4c-2.3-12.1-4.3-22.3-4.6-22.8c-0.3-0.4-1.4-0.7-2.4-0.7
		c-1.1,0-4.4-1.2-7.4-2.6c-5.4-2.6-11-7.7-16.6-15.4c-5-6.8-11-12.7-16.6-16.3c-8.4-5.5-16.7-7.6-37.6-9.8
		c-14.1-1.4-25-2.2-35.4-2.3v98.9c7,0,14.1-0.3,25-0.8c14-0.7,42.4-1.4,63.1-1.4h37.7L1256.7,1612.4z"/>
	<path id="structure27_label27_VL" bar:growlevel="0" bar:type="" class="st58" d="M1384.4,1528.3c-9,11.9-39.3,42.7-50.9,51.5
		c-18.9,14.5-39.7,26.1-54.6,30.6c-4.1,1.3-7.5,2.7-7.5,3.2c0,0.5,2.2,1.4,4.8,1.6c6,0.8,19.7,5.4,24.9,8.4
		c10.9,6.2,18.9,14.8,22.1,23.4c0.9,2.4,1.6,4.4,1.7,4.5c0.1,0.2,4.4-0.4,9.5-1.1c11-1.5,37.3-1.8,47.2-0.4
		c10,1.4,18.5,3.7,32.6,8.9c17.2,6.5,29.1,12.3,38.1,18.9c13.5,9.9,31.6,17.6,45.1,19.3l4.1,0.4l5.1-6.7c2.8-3.7,5-7.1,5-7.6
		c0-0.5-2.8-3.6-6.2-7c-4.7-4.8-7.1-8.1-9.8-13.8c-5.8-12.2-6.8-17.7-6.8-35.9c0-19.8,2.4-33.6,10.4-60.1l2.8-9.2l-2.6-2.8
		c-6.5-6.8-20.1-14-39.4-20.5c-21.1-7.2-56.3-15.5-65.3-15.3C1391.8,1518.7,1391.1,1519.3,1384.4,1528.3z"/>
	<path id="structure28_label28_Po" bar:growlevel="0" bar:type="" class="st59" d="M1651.7,1295.8c-0.4,0.2-4,1-7.7,1.8
		c-21.4,4.9-54.2,21.7-112,57.5c-44.9,27.9-45.2,28-64.9,28c-15.1,0-22.1-1.5-33.5-7.3c-4.2-2.2-8.1-4-8.5-4c-0.5,0-0.7,1.1-0.4,2.4
		c9,40.3-1.6,94.6-26.3,134.2c-2.6,4.1-4.7,7.8-4.7,8.3c0,0.4,3,1.3,6.6,1.8c39.4,6.5,83.2,21.5,95.9,32.9c2.5,2.3,5,4,5.6,3.8
		c0.5-0.2,2.9-5.4,5.2-11.5c10.3-27.5,34.6-78.2,47.3-99.4c25.4-41.9,63.2-82.4,89-95.6c7.5-3.8,16.4-6,21.3-5.2l3.6,0.6v-4.1
		c0-5.7,2.3-12.4,5.9-17.8c1.7-2.6,3.1-5,3.1-5.6c0-0.4-1.5-2.6-3.4-4.8c-3.1-3.6-6.1-8.7-8.2-14.2c-0.9-2.3-1.2-2.4-7-2.3
		C1655.3,1295.5,1652.2,1295.6,1651.7,1295.8z"/>
	<path id="structure29_label29_PC" bar:growlevel="0" bar:type="" class="st60" d="M1384.1,1445.7c-8.2,21-50.5,74.7-73.4,93.1
		c-23.9,19.2-39.6,26.6-55.6,26.6c-5.2,0-6.1,0.3-6.1,1.5c0,0.9,1.9,11.9,4.2,24.3l4.2,22.8h3.3c8.4,0,28.3-6.7,42.2-14.1
		c35.6-19.1,78.1-61.1,99.3-98c7.7-13.3,17.5-38.3,19.2-48.8l0.5-3.7l-3.9-1c-2.2-0.6-9.5-2.6-16.5-4.6c-6.8-1.9-13.1-3.5-13.9-3.5
		C1386.7,1440.3,1385.5,1442.2,1384.1,1445.7z"/>
	<path id="structure2_label1_PeFLH" bar:growlevel="0" bar:type="" class="st61" d="M1372.2,1867.4c-1.3,0.2-5.3,0.8-9,1.3
		c-17.6,2.4-45.2,8.6-60.3,13.6c-18.7,6-30.3,14.9-36.5,28c-6.1,12.9-5.3,22.3,3.9,47.3c8.5,23.3,22.7,48.6,35.4,63.6
		c24.3,28.7,54.9,36.3,74.9,18.5c11.3-10,28.2-39,36.2-62.1c5.9-16.6,7.3-25.6,7.2-43.3c0-14.4-0.3-16.5-2.4-23.7
		c-2.9-9.4-6.7-17.1-11.9-24.5c-5.5-7.7-6.9-8.7-18.2-13.5c-5.6-2.3-10.3-4.6-10.7-5C1380.2,1866.9,1376.7,1866.8,1372.2,1867.4z
		 M1366.4,1937c10.7,5,22.1,18.3,25.7,29.9c3.4,11,1.8,26-4.2,38c-1.6,3.3-3.4,8.5-3.9,11.3c-1.6,10.1-8.7,20.5-16.6,24.3
		c-7.5,3.6-17.4,1.7-22.4-4.2c-2.2-2.6-6.1-11.5-6.1-13.8c0-0.5-1.6-2.8-3.6-5c-9.2-10.4-14.3-38-10.3-55
		C1330.2,1940.4,1349.1,1928.8,1366.4,1937z"/>
	<path id="structure30_label30_MDM" bar:growlevel="0" bar:type="" class="st62" d="M1211.5,1334.4c-8.9,2.9-15.3,6.6-18.6,10.8
		c-1.6,2.1-5.8,7-9.2,11.1c-14.5,16.9-22.5,36.2-24.8,59.4c-1.6,17.9-3.8,57.2-4,72.7c-0.1,16.9,1,22.5,5.4,26.6
		c2.3,2.1,2.8,2.2,16.4,2.1c32-0.1,54.5-8.6,79.2-30c4.1-3.6,7.4-7.1,7.4-7.8c0-0.8-2.2-3.3-4.8-5.8c-5.4-4.9-8.5-10.8-11.6-21.2
		c-1.9-6.6-2.1-8.8-2.1-28.7c0-16.3,0.4-24.1,1.7-31.9c2.3-15.3,6.5-34.5,9.5-44.8c1.4-5,2.7-9.6,2.7-10.3c0-0.9-2.5-1.2-10.2-1.3
		c-5.6-0.1-13-0.8-16.6-1.6C1223.3,1331.8,1219.1,1331.9,1211.5,1334.4z"/>
	<path id="structure31_label31_PLCo-1" bar:growlevel="0" bar:type="" class="st63" d="M1699.4,2180.6c-6,5.6-18.2,13.9-27,18.5
		c-3.3,1.6-5.9,3.6-5.9,4.3c0.1,3.1,46.6,21.7,79.7,31.8c38.8,11.9,81.8,20.7,116.6,23.9c5.7,0.5,12.7,1.3,15.6,1.5l5.1,0.4v-18.5
		c0-16.2-0.2-18.4-1.4-18.4c-0.7,0-13.7-4.1-28.6-9c-34.4-11.3-31.1-11.3-81.1-3.5c-34.6,5.3-43.2,2.6-52.7-16.7
		c-4.5-9.3-11.7-19.4-13.7-19.4C1705.3,2175.7,1702.3,2177.9,1699.4,2180.6z"/>
	<path id="structure32_label32_PLCo-2" bar:growlevel="0" bar:type="" class="st64" d="M1724.1,2151.9c-3.2,4.3-8.4,10.9-11.4,14.7
		c-5.9,7-6.7,8.9-4.2,10.9c2.5,2.1,8.4,11.3,12.2,19.2c8.5,17.7,17.7,19.9,58,13.7c26.2-4,39.3-5.4,44.5-4.7
		c2.3,0.3,15.7,4.4,29.8,9c14.1,4.7,26.9,8.7,28.4,9.1l2.8,0.5l0.5-8.4c0.4-4.6,0.8-12.1,1.2-16.5l0.6-8.1l-6.7-1.7
		c-3.7-0.9-12.2-3.6-19.1-6c-14-4.9-19-5.7-44.1-7.1c-9.3-0.5-19.6-1.5-22.9-2.3c-14.2-3-31.8-11-51.3-23.3
		c-5.9-3.8-11.2-6.8-11.6-6.8C1730.2,2144.1,1727.3,2147.6,1724.1,2151.9z"/>
	<path id="structure33_label33_PLCo-3" bar:growlevel="0" bar:type="" class="st65" d="M1886.7,2113.1c-4.1,4.8-11.7,8.5-21.2,10.7
		c-16.2,3.8-62.4,2.6-112-2.8l-5.4-0.5l-8.1,10.4c-4.5,5.8-8.2,11-8.4,11.6c-0.2,1.2,1.5,2.3,15.8,11.1
		c18.6,11.5,34.5,18.2,48.8,20.6c4.2,0.7,15.9,1.7,25.8,2.3c20.9,1,23.9,1.5,38.9,6.8c11,3.9,25.3,7.9,25.9,7.3
		c0.6-0.6,5.8-71.2,5.8-79.7C1892.4,2108,1890.6,2108.7,1886.7,2113.1z"/>
	<path id="structure34_label34_BMP" bar:growlevel="0" bar:type="" class="st66" d="M1786.7,2017.7c-1,0.3-5.5,1.3-10.1,2.3
		c-5.9,1.3-8.4,2.3-8.7,3.3c-1.5,5.6-4.1,23.6-6.8,47.9c-2.1,18.5-4.9,31.1-9,40.1c-1.4,3.3-2.7,6.5-2.7,7.1c0,1.5,1.9,1.9,17.1,3.5
		c32.8,3.5,82,4.4,96.8,1.9c16.9-3,26.8-10.3,29.2-21.6c1-4.6,0.8-5.2-3.1-16.2c-5-14-8.3-27-9.1-36.8l-0.6-7.5l-11.3-0.5
		c-6.2-0.2-14.1-1.1-17.6-1.9c-12.2-2.9-29-9.1-40.9-15.2C1797.6,2018,1792,2016.5,1786.7,2017.7z"/>
	<path id="structure35_label35_BLV" bar:growlevel="0" bar:type="" class="st66" d="M1927.1,2032.2c-1.4,0.3-11.9,2.2-23.1,4.4
		c-11.3,2.2-21.2,4-22.2,4c-1.5,0-1.6,0.5-1.3,6c1,15.1,6.9,36.5,14.8,53.2c6.7,14.3,16.9,26,27.4,31.1c4.7,2.3,6.7,2.8,14.4,3.1
		c7.9,0.4,9.9,0.1,15.6-1.9c15.5-5.4,29.7-20.3,40.1-42c7.3-15.2,10.1-23.1,11.1-31.1c0.5-4.2,0.4-4.6-1.9-6.1
		c-3.3-2.2-6.6-3.2-16-4.6c-6.9-1.1-10.3-2.3-23.8-8.9l-15.9-7.7l-8.1,0.1C1933.5,2031.8,1928.6,2032,1927.1,2032.2z"/>
	<path id="structure36_label36_PMCo" bar:growlevel="0" bar:type="" class="st67" d="M1691.8,2111.3c-1.7,0.7-4.8,2.9-6.8,4.8
		c-10.4,9.6-31.7,23-49.3,31.1c-6.9,3.2-9.6,4.9-9.5,5.9c0.4,2.2,14.2,11.1,21.7,13.9c5.8,2.3,8,2.6,23.1,3.3s26.3,1.8,32.5,3.1
		c1.9,0.5,3-0.3,6.8-4.4c5.4-5.9,36.4-46.9,36.4-48.1c0-0.4-4.8-1.8-10.5-2.9c-5.9-1.2-15.2-3.4-20.7-5
		C1704.2,2109.6,1696.9,2109.1,1691.8,2111.3z"/>
	<path id="structure37_label37_MePV" bar:growlevel="0" bar:type="" class="st68" d="M1690.8,2034.6c-9.5,5.7-18.1,10.3-34.6,18.4
		c-4.9,2.4-13,6.5-17.8,9c-8.7,4.6-18.3,7.4-24.7,7.4c-1.9,0-6.4-0.9-10-2c-4-1.2-6.8-1.6-7.4-1.1c-0.4,0.5-1.3,4.9-1.9,9.7
		c-2.3,19.9,3.4,43.3,14.7,59.9c4.7,6.8,13.4,15.4,15.6,15.4c3.1,0,31.4-14.5,41.8-21.4c25.3-16.8,41.1-36.1,46.4-56.3
		c1.7-6.8,3.1-18.4,3.1-24.8c-0.1-4.6-0.3-5.1-3-6.8c-1.7-1.1-3.3-3.2-4.2-5.6c-1.7-4.7-4.2-7.5-6.7-7.5
		C1701.1,2029,1696,2031.5,1690.8,2034.6z"/>
	<path id="structure38_label38_MePD" bar:growlevel="0" bar:type="" class="st69" d="M1739.8,1812.1c-2.4,1.6-8.9,7.4-14.4,12.9
		c-8.6,8.6-11.8,12.8-23,29.8c-18.5,28.1-26.7,41.9-40.8,68.9c-15.1,29.2-20.3,38.4-25.1,45.4c-2.3,3.3-5,9.2-7.2,15.3
		c-1.8,5.5-7.7,19-13.1,30.2c-12.5,25.9-18.9,42.2-18.9,48.2c0,5.2,18.6,7.7,29.6,4c8.6-2.9,55.1-26.8,71.6-36.8
		c24.8-15,24.8-15,28.1-21.7c4.1-8.2,5.4-17.7,6.5-45.9c1.7-43.3,5.2-66.2,14.4-93.5c3.4-10.2,6.9-22,7.7-26.1
		c2.8-13.5,0.8-23.9-5.7-31C1746.5,1808.6,1745.3,1808.6,1739.8,1812.1z"/>
	<path id="structure39_label39_STIA" bar:growlevel="0" bar:type="" class="st70" d="M1747.3,1870.3c-3.4,10.3-6.5,20.9-7,23.6
		c-3.7,20.5-6,44.7-7.2,73.4c-0.5,12.3-1.1,24-1.4,25.8c-0.4,2.8-0.4,3.4,0.8,3.4c0.8,0,1.9-0.8,2.4-1.8c2.7-5.1,12.4-5.8,17.2-1.3
		c5.4,5.1,5.6,12.4,0.5,17.8c-3.9,4-8.3,4.9-13,2.7c-4-2-7.5-6.8-7.5-10.4c0-4-2.3-3.1-3.7,1.2c-0.6,2.2-2.5,5.6-4.1,7.6
		c-3.4,4.4-3.7,6.2-1.3,6.8c3,0.7,4.9,4.9,4.9,10.2c-0.1,2.7,0.2,4.9,0.4,4.9c0.4,0,8.6-2.6,18.2-5.8c25-8.2,39.5-11.7,46.3-11
		c11.8,1.2,10.5,1.6,11.8-4c3.6-15.8,22-48,43.8-76.8c4.8-6.3,8.7-12,8.7-12.5c0-1-0.7-0.9-13,1.2c-21.9,3.7-59-6.2-71.5-19
		c-9.5-9.6-17.1-32-17.1-49.6C1755.6,1847.4,1753.7,1850.6,1747.3,1870.3z"/>
	<path id="structure3_label2_PeF" bar:growlevel="0" bar:type="" class="st71" d="M1345.9,1936.1c-16,6.4-24.2,25-21.5,48.7
		c1.3,11.1,3.1,17.8,6.8,25.8c4.2,9.1,5.6,8.7,6-1.8c0.3-6.9,0.8-9.3,3.1-14.1c3.1-6.8,7.5-12.1,11.4-14.1c5-2.6,15.3,0.5,22.6,7
		c3.6,3.2,8.4,12.2,9.2,17.2c0.8,4.8,2.4,4.3,4.9-1.4c9.4-21.4,6-41.3-9.4-56.9c-8-8.1-14.3-11.3-22.9-11.9
		C1351.7,1934.5,1349.1,1934.8,1345.9,1936.1z"/>
	<path id="structure40_label40_BLA" bar:growlevel="0" bar:type="" class="st72" d="M1920.1,1875.6c-7.3,8.5-22.8,23.4-29.9,28.7
		c-9.5,7.1-13.1,9.4-21.7,13.7c-7.9,4-10.1,6-20.3,19.6c-20.1,26.5-38.5,58.6-42.5,74c-2.5,9.6-2.8,9.2,9.2,14.8
		c16.7,8,31.5,12.4,47.3,14.3c10.3,1.3,14.3,0.8,41.5-4.5c22.5-4.4,33.8-5.8,38.8-5c2.3,0.3,10.6,3.8,18.7,7.7
		c8.1,4,16.4,7.5,18.4,7.7l3.5,0.4l0.5-28.2c0.6-32,1.9-44.4,6.5-63.8c3.4-14.4,6.8-32.3,6.8-35.9c-0.1-2-1.5-3.2-8.8-7.9
		c-9.8-6.3-19.1-13.9-34.7-28.3c-5.9-5.4-11.7-10.3-13-10.7c-1.2-0.4-5.4-0.8-9.4-0.8h-7.3L1920.1,1875.6z"/>
	<path id="structure41_label41_EP" bar:growlevel="0" bar:type="" class="st73" d="M1601.6,1789.9c-13.9,5.1-26.1,16.3-33.1,30.3
		c-4,7.8-5.2,14.1-3.7,19.5c1.2,4.5,5.7,9.8,9.6,11.4c6.9,3,20.8,0.6,30.6-5c9.5-5.4,22.1-19.4,25.8-28.3c1.9-4.5,1.9-14.1,0-17.9
		c-2.1-4.1-5.7-7.7-9.5-9.7C1617.4,1788.2,1606.7,1788,1601.6,1789.9z"/>
	<path id="structure42_label42_GP" bar:growlevel="0" bar:type="" class="st74" d="M1903.8,1472.2c-1.9,12.1-12.1,42.3-22,64.7
		c-20.3,46.1-70.4,132.5-99.1,170.6c-5,6.8-17.6,20.4-36.1,39.5c-39,40.1-54,56.2-54,57.6c-0.1,5.2,37.5-14.2,65.3-33.8
		c44.4-31.2,52.8-36.7,80-51.8c33.6-18.6,41.2-23.5,49.3-31.3c16.9-16.2,24.8-35,28.4-68c4.1-36.7,3-64.6-5.2-126.4
		c-2.7-20.3-3.5-24.8-4.8-25C1904.7,1468.2,1904.2,1469.1,1903.8,1472.2z"/>
	<path id="structure43_label43_CeM" bar:growlevel="0" bar:type="" class="st75" d="M1814.2,1752.9c-3.4,1.3-3.4,1.2-6.8,9.8
		c-3.5,8.7-6.7,12.6-12.6,15.5c-5,2.4-5.1,2.5-8.2,1.1c-1.7-0.8-3.1-1.9-3.1-2.4c0-4.5-7.9,6-14.6,19.3
		c-12.8,25.4-16.3,56.6-9.6,83.3c3.6,14.3,10.2,25.4,18.3,30.9c8.8,6.1,31.1,13.7,41.9,14.2l4.9,0.3l2.2-5.4
		c6-14.9,2.3-36.7-10.2-61.2c-7.2-13.8-8.6-19.2-8.6-33.3c0-17.7,3.9-39.2,10.9-61.2c1.9-6,3.5-11.3,3.5-11.6
		C1822.2,1751.3,1817.5,1751.8,1814.2,1752.9z"/>
	<path id="structure44_label44_CeC" bar:growlevel="0" bar:type="" class="st76" d="M1864.5,1758.1c0,0.5,1.2,4.5,2.6,8.8
		c6.8,20.5,5.9,43.3-2.7,63.1c-8.1,18.6-21.6,34.9-30.2,36.5c-1.9,0.4-5.1,0.2-7.7-0.5c-2.4-0.6-4.7-0.8-5-0.5
		c-0.3,0.4,0.7,4.3,2.3,8.9c6.3,18.3,7.6,32.2,3.9,42.5c-1.1,3-2.3,6.1-2.5,7.1c-0.5,1.6,0,1.6,12,1.3c11.1-0.4,13.5-0.8,21.1-3.3
		c16.3-5.5,32.8-16.7,49.5-33.4c12.4-12.4,18.2-20.3,22-30c4.3-10.7,5.8-17.6,5.8-26.5c0-14-4.1-21.9-19.5-38.2
		c-14.3-14.8-29.7-26.7-44.1-34C1866,1756.9,1864.5,1756.5,1864.5,1758.1z"/>
	<path id="structure45_label45_CeL" bar:growlevel="0" bar:type="" class="st77" d="M1824.7,1750.5c-2.7,0.7-10.5,27-14.3,48.6
		c-2.5,14.2-2.8,35.9-0.5,44.4c3.5,12.9,13,23.4,21.1,23.4c12.5-0.1,31.1-24.8,37.8-50.2c1.9-7.3,2.3-10.8,2.3-21.3
		c0.1-13.9-1-20.1-5.8-32.7l-2.9-7.4l-5.9-1.7c-3.2-1-8.4-2.2-11.3-2.7C1840,1749.9,1827.8,1749.7,1824.7,1750.5z"/>
	<path id="structure46_label46_BLP" bar:growlevel="0" bar:type="" class="st78" d="M1997.7,1918.5c0,1.7-5.1,27.6-7.3,36.9
		c-1.5,6.5-3.3,16.1-4,21.5c-2,15.1-3.2,43.7-2.5,58l0.5,12.7l4.1,0.6c2.3,0.4,6.7,1.5,9.6,2.6c3,1.2,8.6,2.6,12.3,3.2l7,1.2
		l3.8-2.5c2.2-1.4,7.6-6.2,12-10.7c20.4-20.8,25.9-43.6,19.1-78.4c-1.3-6.5-2.6-14.3-3.1-17.5l-0.7-5.7l-10.8-4.8
		c-5.9-2.5-16.8-7.6-24.2-11.1C2001.5,1918.8,1997.7,1917.4,1997.7,1918.5z"/>
	<path id="structure47_label47_DEn" bar:growlevel="0" bar:type="" class="st79" d="M2085.9,1794.6c0,1.7-3.6,21.1-5.3,28.6
		c-1,4.5-3.9,15.6-6.3,24.7c-5.8,20.9-10.4,41.9-12.9,57.6c-1.5,9.5-2,16.3-1.9,30.7c0,16.7,0.2,19.3,2.3,27
		c2.9,10.8,5.7,16.4,11.7,23c9.4,10.3,20.5,15.3,32.3,14.7c8.3-0.4,13-2.9,19.3-9.9c11.5-12.9,19.3-42,16.7-62.1
		c-3.4-24.8-24.7-81.6-45.7-122.7c-4.8-9.2-6.5-11.8-8-12C2086.8,1794,2085.9,1794.2,2085.9,1794.6z"/>
	<path id="structure48_label48_LaVM" bar:growlevel="0" bar:type="" class="st80" d="M1967,1792c-9.3,11.7-14,21.1-18.4,36.6
		c-1.8,6.5-4.5,14.8-5.9,18.5c-2.7,7-8.3,16.5-11,18.7c-2.5,2-2,4.6,1,4.6c6.2,0,9.2,1.9,21.1,12.9c19.4,17.9,38.1,32.1,42.1,32.1
		c1.9,0,1.7,0.4,4.4-14.4c1.3-6.6,3.6-14.5,6.5-22c9.1-23.5,16.9-50.8,16.9-59.1c0-3-0.4-3.2-11.9-10.3
		c-18.4-11.3-38.3-22.8-39.6-22.8C1971.7,1786.8,1969.3,1789.1,1967,1792z"/>
	<path id="structure49_label49_LaDL" bar:growlevel="0" bar:type="" class="st81" d="M2071.5,1699.1c-6.2,4.4-26.7,17.2-39,24.2
		c-14.1,8.1-18,11.8-25.8,24.4c-5.2,8.5-22.7,26.9-30.8,32.8c-2.4,1.6-4.3,3.5-4.3,4c0,0.5,7.8,5.5,17.4,11.1
		c36.7,21.2,61.8,39.5,69.5,50.5c1.3,2.1,3.1,3.7,3.7,3.7c0.7,0,2.3-3.4,3.9-8.5c4.3-13.3,7.9-34.7,11.1-65.3
		c1.3-12.2,1.6-72.4,0.4-76.8C2076.7,1696.2,2075.6,1696.2,2071.5,1699.1z"/>
	<path id="structure50_label50_ASt" bar:growlevel="0" bar:type="" class="st82" d="M1835.7,1068.1c0,0.7,1.6,5,3.7,9.6
		c11.8,26.7,24.7,62.1,27.4,75.2c1.4,7.1,1.4,7.7-0.4,16.9c-2.8,14-2.5,21.1,1.4,36.4c3.1,12.4,3.2,13.5,2.8,23.8
		c-0.4,5.9-0.8,12.2-1.2,13.7c-0.7,3.9,0.3,3.8,6.4-0.3c6.5-4.3,11.5-4.9,18.9-2.1c7.5,2.8,10.6,6.2,13.2,14.4
		c1.8,5.9,2.1,8.4,2.1,22.4c0,9.6-0.7,21.1-1.7,29.7c-1.5,13.1-1.6,16.7-0.5,59.9c0.9,36.1,0.9,50.2,0.1,66.1
		c-0.6,11.1-1.3,20.5-1.5,20.9c-0.3,0.4,1.4,14.4,3.6,31.1c8.9,66.2,10.3,90.4,7.3,123.6c-3.7,40.5-10.8,59.6-28.4,77.3
		c-8.5,8.5-15.8,13.1-48.2,31.1l-27.3,15v3.7c0,2-0.4,6.2-1,9.4c-0.5,3.2-0.8,6-0.5,6.3c0.3,0.3,3.4-0.1,7-0.9
		c10.5-2.3,14.6-2.6,22.4-1.5c12.9,1.8,28.6,7.8,41.5,15.8c18.6,11.7,46.4,39.4,50.3,50.3c0.6,1.7,1.6,3.2,2.2,3.2
		c0.5,0,2.3-2.2,4.1-4.8c4.9-7.4,22.1-23.9,31.9-30.8c14.8-10.3,30.1-26.6,38.5-40.6c4.4-7.4,9.5-12.3,17.2-16.7
		c15.4-8.7,32.3-19.1,40.6-24.8l9-6.1l0.7-32.8c1-47.3,0-76.2-3.5-103.1c-2-14.7-4-24.9-9.4-44.6c-2.4-9.2-8.3-33-13.1-53.1
		c-23.3-99-40.9-144-88.9-227.7c-39.4-68.8-66.4-106.2-109.8-152.3C1839.2,1067.8,1835.7,1064.9,1835.7,1068.1z"/>
	<path id="structure51_label51_Pir-1" bar:growlevel="0" bar:type="" class="st83" d="M2282.3,1875.2c-0.1,11.6-5.8,30.9-23,78.2
		c-13,35.7-32.8,77.3-51.7,108.8c-19,31.7-54.4,79.3-72.9,97.9c-20.7,20.9-43.5,33.5-89.3,49.2c-35,12-60.5,18.5-81.1,20.3
		c-15.4,1.5-54.2-0.7-76.5-4.2l-3.5-0.6v18.1v18l14,0.6c22.4,1.1,54.4-0.7,81.2-4.6c69.7-9.9,131.6-34.9,178.4-72
		c11.3-9,33.4-31.5,44.4-45.3c21.1-26.5,40.7-58.5,59.1-96.7c26.1-54.2,40-93.6,51.1-146c5.1-23.8,5.1-23.8,3.7-24.2
		c-1.1-0.3-22.1-3.6-31.1-4.8l-2.8-0.4L2282.3,1875.2z"/>
	<path id="structure52_label52_Pir-2" bar:growlevel="0" bar:type="" class="st84" d="M2273.5,1866.9c-3.6,1.4-9.4,9.5-15.2,21.2
		c-5.7,11.4-16.8,37.5-33,77.4c-19.2,47.1-31.1,70.5-52.3,102.1c-29.8,44.6-57.9,74.2-88,92.9c-10.3,6.5-30.8,16.1-42.2,20.1
		c-11.8,4-28.2,8-42.5,10.4c-43.5,7.3-74.8,8.1-103.2,2.7c-5.1-1-9.4-1.7-9.5-1.5c-0.5,0.5-2.2,19.5-2.4,26.4l-0.3,6.3l11.7,1.4
		c30.1,3.9,66.6,4.4,83.7,1.3c29-5.3,82.6-22.9,109.8-36c22.1-10.7,40-24.7,57.2-45.2c7.5-8.9,29.8-38.3,40.1-52.9
		c23.7-33.4,50.5-84.5,67.5-128.6c6.6-17,21.2-59.9,23.8-69.4c1.4-5.5,2.9-13.4,3.2-17.6c0.4-7.1,0.4-7.9-1.4-9.7
		C2278.4,1865.9,2276.6,1865.6,2273.5,1866.9z"/>
	<path id="structure53_label53_Pir-3" bar:growlevel="0" bar:type="" class="st85" d="M2094.3,1800.5c0.3,1.2,3.9,9.4,8.1,18.3
		c19.1,40.3,33.6,79.2,38.4,103c3.2,15.4,2,30.4-3.7,47.3c-6.6,19.6-17.8,31.1-31.9,32.6l-4.9,0.5l-5.3,9.1
		c-15,25.7-35.3,45.5-58.4,57.1c-13.1,6.6-27.1,10.9-35.1,10.9h-3.5l-3.5,7.7c-8,17.9-23,35.9-35.2,42.4c-16.1,8.5-32.1,7.2-45.5-4
		c-5.1-4.1-12.3-13-15.7-19.2c-2.3-4.2-4.9-5.9-4.9-3.2c0,3.4-2.9,49.9-4,64.9c-0.7,9.4-1.4,18.5-1.4,20.3v3.2l8.8,1.5
		c30.6,5.2,61.5,4.4,104-2.7c50.4-8.6,86.3-26,120.5-58.9c23.5-22.4,52.7-62.4,73.7-100.6c9.4-17,16.6-32.7,28.6-62.3
		c30.9-75.5,37.4-89.6,45.6-98.3c3.3-3.4,3.5-6.1,0.4-6.1c-0.9,0-8.3-1.8-16.5-4c-47.8-13.2-100-33.3-143.4-55
		c-7.3-3.7-14-6.7-14.7-6.7C2094.2,1798.5,2093.9,1799.1,2094.3,1800.5z"/>
	<path id="structure54_label54_Rt" bar:growlevel="0" bar:type="" class="st86" d="M1690.3,1253c-12,2.9-22.1,14.6-24.8,28.4
		c-2.3,12.1,1.5,23.5,10.6,32.6c2.9,2.9,12.6,11.1,21.6,18.1c36.7,28.9,52.2,49.6,56.9,76.1c1.3,6.8,1.3,30.4,0.1,43.3
		c-4.2,45.6-16.7,82.6-42.8,126.9c-20.3,34.6-34.1,54-49.5,69.4c-10.7,10.7-15.8,14.6-32.4,24.7c-16.3,10-26.5,17-26.5,18.4
		c0,0.8,2.3,1.4,8.4,1.8c4.6,0.3,14.6,1.3,22.2,2.3l13.9,1.8l8.7-5.9c14.5-9.9,27.4-20.7,44.2-37.2c24.6-24.1,45.8-49.5,69.7-83.3
		c27.9-39.5,40.8-67.7,47.5-104.5c2-10.6,2.8-40,1.4-49.1c-1.2-7.6-5.1-16.7-10.9-25.3c-5.2-7.6-20.2-22.9-37.3-38.2
		c-18.1-16.1-24.2-22.6-30-31.3c-8.1-12.4-11.5-24.7-10.6-38l0.5-8.1l-12.3-10.9c-6.8-5.9-13.8-11.3-15.5-11.9
		C1700.2,1252.1,1694.6,1252,1690.3,1253z"/>
	<path id="structure55_label55_VPL" bar:growlevel="0" bar:type="" class="st87" d="M1674.7,1321.6c-6.9,9.5-7.2,20.3-1.1,33.8
		c11.3,24.9,13,64,4,97.5c-10,38-39.8,96.5-65.9,129.6c-3.8,4.9-26.5,28.3-52.3,54c-44.5,44.5-55.9,56.6-55.9,59.8
		c0,1.4,0.9,1.5,12.9,1c42.6-2.1,81.7-10.9,112-25.3c13.2-6.3,22.1-12.5,32.7-22.9c11.3-11.2,18.6-20.4,31-39.1
		c45.5-68.4,62.6-117.4,62.8-181.4c0-16-0.2-19.5-1.9-26.4c-4.2-17.3-12.2-30.1-29.8-47.4c-11.5-11.5-42.4-36.9-44.8-36.9
		C1677.9,1317.9,1676.2,1319.5,1674.7,1321.6z"/>
	<path id="structure56_label56_CPu" bar:growlevel="0" bar:type="" class="st88" d="M1835.7,1068.1c0,0.7,1.6,5,3.7,9.6
		c11.8,26.7,24.7,62.1,27.4,75.2c1.4,7.1,1.4,7.7-0.4,16.9c-2.8,14-2.5,21.1,1.4,36.4c3.1,12.4,3.2,13.5,2.8,23.8
		c-0.4,5.9-0.8,12.2-1.2,13.7c-0.7,3.9,0.3,3.8,6.4-0.3c6.5-4.3,11.5-4.9,18.9-2.1c7.5,2.8,10.6,6.2,13.2,14.4
		c1.8,5.9,2.1,8.4,2.1,22.4c0,9.6-0.7,21.1-1.7,29.7c-1.5,13.1-1.6,16.7-0.5,59.9c0.9,36.1,0.9,50.2,0.1,66.1
		c-0.6,11.1-1.3,20.5-1.5,20.9c-0.3,0.4,1.4,14.4,3.6,31.1c8.9,66.2,10.3,90.4,7.3,123.6c-3.7,40.5-10.8,59.6-28.4,77.3
		c-8.5,8.5-15.8,13.1-48.2,31.1l-27.3,15v3.7c0,2-0.4,6.2-1,9.4c-0.5,3.2-0.8,6-0.5,6.3c0.3,0.3,3.4-0.1,7-0.9
		c10.5-2.3,14.6-2.6,22.4-1.5c12.9,1.8,28.6,7.8,41.5,15.8c18.6,11.7,46.4,39.4,50.3,50.3c0.6,1.7,1.6,3.2,2.2,3.2
		c0.5,0,2.3-2.2,4.1-4.8c4.9-7.4,22.1-23.9,31.9-30.8c14.8-10.3,30.1-26.6,38.5-40.6c4.4-7.4,9.5-12.3,17.2-16.7
		c15.4-8.7,32.3-19.1,40.6-24.8l9-6.1l0.7-32.8c1-47.3,0-76.2-3.5-103.1c-2-14.7-4-24.9-9.4-44.6c-2.4-9.2-8.3-33-13.1-53.1
		c-23.3-99-40.9-144-88.9-227.7c-39.4-68.8-66.4-106.2-109.8-152.3C1839.2,1067.8,1835.7,1064.9,1835.7,1068.1z"/>
	<path id="structure57_label57_DI" bar:growlevel="0" bar:type="" class="st89" d="M2085,1545.4c0,1,0.4,5.8,0.9,10.6
		c2,20.3,3,40.5,3.5,73.7l0.5,35l19.8,3.4c74.6,12.9,172.4,27.1,197.6,28.8l4.1,0.3l10.4-10.8c12.1-12.6,13.3-14.9,20.8-37.4
		c8.8-26.8,23.8-83.7,25.7-97.8l0.5-4.1l-18.8,0.6c-23.8,0.8-185.7-1.5-248-3.6C2085.5,1543.6,2085,1543.7,2085,1545.4z"/>
	<path id="structure58_label58_GI" bar:growlevel="0" bar:type="" class="st90" d="M2085,1545.4c0,1,0.4,5.8,0.9,10.6
		c2,20.3,3,40.5,3.5,73.7l0.5,35l19.8,3.4c74.6,12.9,172.4,27.1,197.6,28.8l4.1,0.3l10.4-10.8c12.1-12.6,13.3-14.9,20.8-37.4
		c8.8-26.8,23.8-83.7,25.7-97.8l0.5-4.1l-18.8,0.6c-23.8,0.8-185.7-1.5-248-3.6C2085.5,1543.6,2085,1543.7,2085,1545.4z"/>
	<path id="structure59_label59_S2" bar:growlevel="0" bar:type="" class="st91" d="M2211.9,1311.6c-83.9,23.2-154.1,42.7-155.9,43.2
		c-2.4,0.6-3.4,1.5-3.4,2.7c0,0.9,1.8,9.7,4,19.5c11.2,50,22.2,113.4,27,154.9c0.7,6.1,1.3,11.3,1.5,11.3c1.6,1.3,276.8,5,281.8,3.9
		c2.7-0.7,2.9-1.2,6.5-23.1c11.6-70.8,10.8-159.1-2.3-242.4c-2-12.2-2-12.3-4.3-12.2C2365.6,1269.5,2295.8,1288.4,2211.9,1311.6z"/>
	<path id="structure5_label4_DMD" bar:growlevel="0" bar:type="" class="st92" d="M1146,1918.8c-0.3,10.8-1.3,36.2-2.3,56.5
		c-1,20.3-1.8,37.2-1.8,37.5c0,1.9,2.4,0.3,7.1-4.6c12.8-13.2,29.9-20.7,64.3-28c18.5-3.9,21.1-4.9,24.2-9.2c4.3-6,1.9-22.6-5-34.5
		c-7.3-12.4-38.5-32.6-55.6-36c-4.1-0.8-11.8-1.4-18.5-1.4h-11.6L1146,1918.8z"/>
	<path id="structure60_label60_S1ULp" bar:growlevel="0" bar:type="" class="st93" d="M2169.4,1166
		c-122.9,51.5-152.8,64.4-152.8,65.6c0,0.9,2.8,10.1,6.2,20.3c7.5,22.6,16.2,52.7,23.4,81.3c3.7,14.8,5.8,21.2,6.7,21.4
		c1,0.2,290.5-79.1,312.3-85.5c2.3-0.7,3.3-1.5,3.3-2.7c0-1-1.8-10.9-4-22.1c-8.1-40.3-19.4-81.9-32.5-119.5
		c-3.7-10.9-7-20.4-7.3-21.3c-0.3-0.8-0.9-1.5-1.5-1.4C2322.6,1102,2253.4,1130.8,2169.4,1166z"/>
	<path id="structure61_label61_LV" bar:growlevel="0" bar:type="" class="st94" d="M1763.7,1002.8c0,1.7,4.9,13.8,12.1,29.6
		c7.2,16,9,25,10.4,53.7c1.5,29.8,4,44.7,10,62.4c4.3,12.4,6.9,17.6,20.9,42c11.9,20.8,14.6,24.9,22.9,34.1c7.7,8.5,9.6,12.9,9,20.2
		l-0.5,5.8l8.5-0.4c4.7-0.1,8.9-0.7,9.4-1.3c0.5-0.5,1.6-4.6,2.4-9c1.9-11.1,1.2-22.4-2.4-35c-3.3-11.7-3.8-22.9-1.4-33.6
		c2-9.1,1.8-14.8-0.7-24.6c-4.6-17.6-21.4-60.8-30.4-78.4c-5.2-10.2-5.9-11.1-17.7-22.6c-6.8-6.6-18.7-17.6-26.6-24.5
		C1764.8,999.9,1763.7,999.1,1763.7,1002.8z"/>
	<path id="structure62_label62_S1BF" bar:growlevel="0" bar:type="" class="st95" d="M1895.4,821.9
		c-45.2,75.2-82.2,137.1-82.2,137.5c0,0.5,3.6,3.9,7.9,7.7c27.3,23.4,78.7,76.2,104.7,107.4c38,45.6,65.7,92.6,85.1,143.7
		c2.3,6.4,4.6,11.5,5,11.5c0.7,0,306.8-127.8,307.5-128.4c0.6-0.4-17.2-44.4-26.4-65c-9.9-22.4-36.2-75.3-46.9-94.6
		c-19.3-34.5-44.3-73.6-60.1-93.8c-33.4-42.8-81.5-84.1-144.6-124.1c-28.1-17.9-63.8-38.6-66.4-38.6
		C1977.9,685.2,1952.4,727,1895.4,821.9z"/>
	<path id="structure63_label63_AIP" bar:growlevel="0" bar:type="" class="st96" d="M2089.4,1685.3c-0.1,11.1-0.1,29.6,0,41.2
		c0.2,19-0.4,35.7-2.3,58.5l-0.5,7.6l9.3,5.1c37,20.4,100,45.6,148.4,59.6c24.9,7.1,56.7,13.8,68.3,14.3l4.9,0.2l1.2-6.8
		c5.3-30.8,7.8-59.4,7.2-83c-0.6-25.7-2.8-33.6-12.4-46.7c-2.4-3.3-5-7.7-5.8-9.8c-1.7-4.9-1.7-12.7,0.1-18.9
		c2.7-9.6,3.1-8.7-3.4-9.4c-42.3-4.4-106.1-13.8-182.3-26.6c-17.5-2.9-32-5.3-32.1-5.3C2089.7,1665.3,2089.4,1674.3,2089.4,1685.3z"
		/>
	<path id="structure64_label64_S1Tr" bar:growlevel="0" bar:type="" class="st97" d="M1475.7,539.6c0,1.3-5,68-11.3,148.4
		c-6.2,80.4-11.2,146.9-11.1,147.9c0.3,1.6,1.4,1.9,10.2,2.9c37.9,4.3,109.1,15.3,141.8,21.9c59.3,11.9,106.7,30.1,150.5,57.4
		c7.3,4.6,13.8,8.3,14.4,8.3c1.1,0,151.7-265.5,152.6-269.1c0.5-2-4.1-4.5-28.1-15.3c-137.6-62.3-284.4-100.3-400.7-104.1l-18.3-0.5
		L1475.7,539.6L1475.7,539.6z"/>
	<path id="structure65_label66_M1" bar:growlevel="0" bar:type="" class="st98" d="M1434.8,537.6c-19.8,0.8-31.4,1.7-54.2,4.2
		c-13,1.3-13.8,1.6-13.8,3.4c0,3.7,20.6,285,20.9,285.4c0.2,0.2,7.2,0.9,15.6,1.7c8.5,0.7,22.8,2.3,31.9,3.2
		c9.1,1,16.7,1.6,16.9,1.3c0.6-0.5,23.6-298.8,23.1-299.3C1474.5,536.9,1453.8,536.9,1434.8,537.6z"/>
	<path id="structure66_label67_M2" bar:growlevel="0" bar:type="" class="st99" d="M1343.2,547c-33.4,5.8-67.9,14.2-102.1,25.3
		c-8.6,2.8-15.8,5.4-16.1,5.9c-0.4,0.7,104.3,258.6,105.6,260c0.2,0.2,2.3-0.4,4.6-1.3c11.4-4.4,16.4-5.2,34.2-5.7l17.3-0.5v-2.4
		c0-3.5-19.7-276.2-20.3-280.7C1365.7,543,1366.8,543,1343.2,547z"/>
	<path id="structure67_label68_RSD" bar:growlevel="0" bar:type="" class="st100" d="M1212,582.8c-24.5,11.2-43.6,27.8-58.7,51
		c-14.1,21.7-21.8,44.8-21.2,64l0.3,9.4l86.8,76.7c47.8,42.2,87.3,76.8,87.8,76.8c0.5,0,2.2-1.6,3.5-3.6c3-4.3,12.6-13.5,16.6-15.8
		c1.5-0.9,2.8-2.1,2.8-2.5c0-0.5-23.8-59.1-52.8-130.3C1231.5,596.7,1224,579,1222.4,579C1221.4,579,1216.7,580.8,1212,582.8z"/>
	<path id="structure68_label69_RSGc" bar:growlevel="0" bar:type="" class="st101" d="M1131.9,870.6v162h3.9c2.1,0,5.2-0.3,7-0.5
		c3-0.5,3.3-0.9,3.9-4c0.3-1.9,1.6-4.7,2.9-6.3c6.4-7.6,16.8-7.6,23.1,0c1.3,1.4,2.8,2.7,3.4,2.7c2.3,0,20.7-8.4,29.3-13.3
		c25-14.5,45.4-34.4,59.3-58c10.4-17.4,18.5-35.3,27.8-60.9c4.4-12.2,8.9-22.1,12.8-28.1c1.3-2.2,1.4-2.6,0.3-3.8
		c-10.5-9.8-172.2-151.7-172.8-151.7C1132.2,708.6,1131.9,763.7,1131.9,870.6z"/>
	<path id="structure69_label72_Rad" bar:growlevel="0" bar:type="" class="st102" d="M1447.6,927.7c-22.2,3.6-41.9,12.9-62.3,29.2
		c-10.6,8.5-21.3,19.3-44.4,44.6c-57.2,63-90.2,92.3-119.4,106.3c-12.9,6.2-15.7,6.7-41.2,6.7h-22.4l0.4,2.9
		c0.4,1.6,1.1,7.1,1.6,12.2l1.1,9.3l36.1-0.3l36.1-0.3l8.3-2.9c28.9-10.1,68.8-38.3,135.3-95.2c26.8-23,48.4-40.6,55.3-45
		c6.1-4,10-4.9,21.3-5.6c11.8-0.6,21.3,0.4,47.2,5.6c36.5,7.2,54.3,12.3,65.6,19c13.1,7.6,24.8,21.1,24.8,28.3
		c0,3.4-4.8,12.5-9.2,17.6c-7,8-18.3,13.5-29.3,14.5c-3.9,0.3-15.4-0.5-32.6-2.3c-14.6-1.5-26.8-2.8-27.2-2.8
		c-0.5,0-0.7,1.1-0.7,2.4c0,1.4-0.4,3-0.7,3.6c-1.3,1.9-6.8,3.7-13.7,4.4c-5.6,0.5-7,1-8.5,2.9c-2,2.5-5.3,4-20.2,9.3
		c-36.4,12.9-80.1,45.7-83.5,62.7c-0.4,2-0.3,2.9,0.5,2.9c0.5,0,4.8-3.4,9.3-7.6c11.5-10.6,22.9-19.5,33.9-26.9
		c24.1-15.9,33.4-18.1,76-18.1c23.3,0,33.9,0.5,64.3,3c57.2,4.7,75.2,3.6,94.6-5.6c8.9-4.3,19.7-11.3,24.1-15.9c2-2.1,4.8-6,6.1-8.8
		c2.3-4.7,2.5-5.9,2.5-15.5c0-8.5-0.4-11.5-2.2-16.7c-5-14.7-12.6-25.2-24.1-33.5c-3.2-2.3-6.2-4.8-6.8-5.7
		c-0.6-0.9-4.9-3.1-9.5-4.9c-17.1-6.6-23.4-11-42.6-29.2c-8.1-7.7-8.8-8.2-24.2-15.3c-34.2-15.7-55.5-23.7-73.9-27.7
		C1480.5,926.6,1459.3,925.8,1447.6,927.7z"/>
	<path id="structure6_label5_VMHVL" bar:growlevel="0" bar:type="" class="st103" d="M1289,2114c-30.2,4.1-52.5,13.7-68,29.1
		c-5.6,5.6-10.7,13.6-10.7,16.7c0,0.8,3,4.9,6.6,9.3c12.2,14.6,24.2,24.4,34.2,27.9c3.8,1.3,7.3,1.6,18.2,1.5
		c34.3-0.2,52.5-8.5,54.7-25.1c0.7-4.7-0.7-17.9-2.6-25.2c-2-7.5-9.4-22.1-14.8-29.5C1301.5,2111.9,1302.7,2112.1,1289,2114z"/>
	<path id="structure70_label73_LMol" bar:growlevel="0" bar:type="" class="st104" d="M1440.9,991.5c-2.6,0.6-7,2.7-9.7,4.5
		c-7.5,4.9-28.8,22.3-55.4,45.1c-63.3,54.3-104.3,83.5-130.5,93.1c-4.2,1.5-9.4,3.1-11.4,3.7c-2.2,0.5-3.9,1.5-3.9,2.2
		c0,3.2,17.9,3.2,29.8,0.2c23.6-6,43.3-18.2,92.2-56.8c30.4-24,42.6-32.6,59.8-42c24-13.1,42.1-17.7,65.3-16.5l11.6,0.6l21.9-10.6
		c12.1-5.8,21.9-11,21.9-11.6c0-0.9-18.7-5.3-42.8-10C1475.3,990.5,1448.6,989.6,1440.9,991.5z"/>
	<path id="structure71_label74_MoDG" bar:growlevel="0" bar:type="" class="st9" d="M1511.7,1014.7l-22.1,10.9l-18.4,0.2
		c-16.7,0.2-19.3,0.5-27,2.5c-11.7,3.2-22.2,7.7-35.8,15.2c-15.8,8.9-25.8,15.9-52.4,37c-30.4,24-38.2,29.8-51.4,38.5
		c-31.2,20.4-58,28.3-75.5,22.1c-3.2-1.1-9.6-1.4-36.2-1.4h-32.3l0.5,6c1.9,21.2,9.4,36.6,20.4,42.2c8,4.1,16.3,5.2,38.1,5.2
		c18.1,0,20.8-0.2,31.1-2.4c33.4-7.1,54.2-19,87.7-50.1c5.5-5,14.6-13,20.3-17.6c14.7-11.7,55.3-40.9,63.7-45.9
		c17.4-10.1,36.4-16.2,47.9-15.4c8.4,0.5,15.3,2.6,18.7,5.5c1.7,1.4,3.8,2.3,5.7,2.3c1.7,0,12.8,1,24.7,2.3
		c34.9,3.6,42.5,2.9,54.4-5.1c12.8-8.5,19.1-21.8,14.7-31c-3.7-7.7-15.9-18.3-28.3-24.1c-7.2-3.3-20.5-7.6-24.2-7.6
		C1534.8,1003.8,1523.9,1008.7,1511.7,1014.7z"/>
	<polygon class="st105" points="1130.1,1099.4 1130.1,1107.4 1130.1,1115.4 1131.4,1115.4 1131.4,1099.3 	"/>
	<path class="st105" d="M1727.1,996.6c-20.2-22.9-40.1-34.4-104.7-59.8c-52.2-20.7-99.7-36.3-122.4-40c-9.5-1.6-38.7-1.9-49.5-0.5
		c-33.1,4.3-60.8,17.4-87.4,41.3c-12.6,11.4-23.5,23.6-44.4,49.6c-29.3,36.5-45.1,52.4-68.9,69.1c-30.9,21.7-73.7,38.2-110,42.2
		l-8.4,0.9v16.1h1.3c4.3,0,7.6-1.6,11.4-5.8l3.8-4.1h18.5c31,0,39.7-1.5,56.9-10.1c27.3-13.6,50.1-34.6,134.5-123.7
		c19.8-20.9,32.1-31.4,47.3-40.4c20.7-12.1,41.1-17.7,65.3-17.7c22.7-0.1,41.2,5.8,89.1,28.3c12.6,5.9,25.8,12,29.3,13.3
		c13,5.2,46.6,20,59.1,25.9c13.7,6.6,40.4,21.9,50.2,28.7c19.3,13.7,30.2,32.6,28.4,49.3c-1.8,16.7-10.4,37.5-19.9,48
		c-5.6,6.2-14.4,12.4-22.6,15.8c-7.1,3-26.8,8.7-40,11.7c-32.3,7.3-79.8,8.8-153.2,5c-49.9-2.5-59.8-0.7-84.2,15.3
		c-13.8,9.1-42.3,30.7-42.3,32c0,2.3,3.1,1.3,13.2-3.6c12.9-6.3,34.5-14.6,45.1-17.3c8.3-2.1,28.8-4.6,31.1-3.7
		c3.2,1.2,151.2-5.3,190.5-8.4c26.1-2.1,54.5-9.8,80.5-22.1c15.8-7.4,24.8-16.7,29.7-30.6C1764.7,1071.1,1753.1,1026.2,1727.1,996.6
		z"/>
	<path class="st106" d="M1286.5,977.9c-19.4,16.7-44.9,27.9-69,30.3c-5.9,0.6-8.5,1.6-20.7,7.6c-23.3,11.4-44.3,17.2-65.3,17.2v32.7
		c13.1,0,26.7-1.9,45.3-6c43.9-10.1,75.4-25.7,102.7-50.9c4.7-4.4,5.5-5.7,6.9-11.1c0.9-3.3,3.2-10,5.1-14.7
		C1296.6,970.1,1296.1,969.5,1286.5,977.9z"/>
	<path class="st107" d="M1838.6,1224.5c-7.9-9.1-11.2-13.9-23.1-34.8c-15.8-27.7-19.8-36.7-24.2-54.3c-3.3-13.3-5-25-5.9-44.3
		c-1.9-35.7-3.1-42-13.3-64.8c-3.4-7.6-7.7-18-9.7-22.9l-3.5-8.9l-8.1-6.3c-35.4-27.4-76.7-50.1-129.1-71.3
		c-37.6-15.1-83.2-28.9-112.3-33.9c-15.7-2.8-56.3-3-71.7-0.5c-36.9,6.1-64,18.1-81.1,35.9c-3.4,3.6-13.2,15.5-21.7,26.4
		c-24.9,32.3-31.3,39.7-47.4,55.8c-21,20.9-37.9,33.2-57.3,41.7c-7,3-8,3.7-9.9,7.4c-2.8,5.2-13.6,15.8-20,19.7
		c-9.5,5.6-15.7,7.6-24.5,8c-4.4,0.2-10.3-0.1-13-0.7c-6.5-1.4-13.3-5.1-14.9-8.1l-1.3-2.3l-15,0.1v31.7c1.4,0,2.8,0,4.1,0
		c40.4-1.9,92.8-23.6,129.1-53.5c17.8-14.7,31.2-29.1,56.7-61c20.5-25.7,37-43.2,52.2-55.4c17.8-14.3,42.5-25.7,65.7-30.4
		c19.5-4,45.9-4.1,65.1-0.5c34.4,6.6,140.8,45.6,179.8,66.1c37.3,19.6,60.8,48.5,71.3,87.8c2.2,8.1,2.3,10.7,2.4,24.4
		c0,13.6-0.3,16-2.1,22.1c-5,16.2-12.9,25.5-27.8,33.1c-23.2,11.9-56.8,21.8-81.7,23.9c-8.2,0.7-122.7,6.7-141.3,7.3
		c-16.1,0.6-20.3,1.1-20.3,2.3c0,0.4,2.3,3.8,4.9,7.4c2.8,3.6,5.5,7.9,6,9.4c1.3,3.5,1.3,3.5,12.4,1.2c25-5.2,55.7-5.8,78.8-1.4
		c17.1,3.2,35.5,7.5,43.7,10.1c8.3,2.6,8,2.4,64.3,52c22.3,19.7,41.6,36.4,42.9,37.1c4.6,2.4,18.4,3.4,31.3,2.3
		c28-2.3,51.3-10.3,68.2-23.2c8-6.1,10-8.8,10.7-14.5C1848.8,1238.2,1846.3,1233.2,1838.6,1224.5z"/>
	<path class="st108" d="M1191.7,1332.6c-4.8-3.7-10.9-4.9-27.8-5.4c-14.8-0.5-15.6-0.4-22.5,1.8c-4.3,1.4-7.1,2.1-10,2.2V1454
		c8.2-0.1,13.9-2.8,19.2-8.8c4.9-5.7,6.2-9.6,7.3-23.9c2.3-28.8,10.5-48.5,28.6-68.6c6.7-7.5,8.4-10.4,8.4-14.4
		C1194.9,1335.6,1194.4,1334.6,1191.7,1332.6z"/>
	<path id="structure76_label81_MDC" bar:growlevel="0" bar:type="" class="st109" d="M1329.5,1296.5c-5.5,10.2-13.7,19.2-20.9,23
		c-5.4,2.8-18,7-37.1,12.1l-11.3,3.1l-1.6,4.9c-4.2,12.1-9.5,36.4-12.1,55.3c-2.3,16.5-2.3,44.1-0.1,54.4c2.1,10,6.7,19.4,11.9,24.2
		c5.4,4.9,7.1,4.8,12.2-1.5c17.6-21.8,31.4-52.9,45.8-103.2c3.3-11.9,8-28.1,10.3-36c4.3-14.7,9.5-37.6,9.5-42.1
		S1334,1288.1,1329.5,1296.5z"/>
	<path id="structure77_label82_MDL" bar:growlevel="0" bar:type="" class="st110" d="M1338,1278.8c0,6.5-3.1,23.8-6.8,38.2
		c-5.4,21.3-20.3,72.2-25.2,86.4c-12.9,36.8-28.3,63.4-47.4,81.4c-21.7,20.4-44.5,30.4-76,33.3c-4.8,0.4-6.6,1-6.6,1.9
		c0,0.8,1,1.3,3,1.3c4.3,0,12.9,2.4,19.1,5.3c8.7,4.1,15.3,9.7,22.5,19c10.8,14.1,15.5,17.4,27.8,18.9c18,2.3,34.6-4.2,58.6-22.9
		c22.6-17.7,62-65.5,74.1-90c2-4,4.1-9.5,4.8-12.2c1.6-6.5,1.6-39.5,0.1-51.3c-2.1-15.2-6.5-39.8-8.7-48.9
		c-3.9-15.6-13.3-33.1-25.2-46.5c-3.3-3.7-7.3-9.1-8.8-11.9C1339.8,1274.8,1338,1274.1,1338,1278.8z"/>
	<path id="structure78_label83_CL" bar:growlevel="0" bar:type="" class="st111" d="M1347.7,1267.7c-7.7,1.6-8.8,2.1-8.8,3.7
		c0,3,7.5,14.8,13.5,21.7c11.3,12.7,20.8,29.7,24.8,44.7c4.7,18,9.6,50.5,10.8,71.4c0.4,6.5,0.2,14.5-0.5,20.2
		c-0.5,5.1-0.8,9.4-0.6,9.6c0.6,0.6,32.4,9.4,34,9.4c1.9,0,2.1-0.6,4.1-11.3c2-10.6,2.7-40.7,1.3-51.2c-2.3-16.4-7.3-31.4-17.4-51.1
		c-13.8-27.2-44.6-69.3-50.5-69C1357.4,1265.9,1352.5,1266.7,1347.7,1267.7z"/>
	<path id="structure79_label84_LDVL" bar:growlevel="0" bar:type="" class="st112" d="M1537.4,1179.3c-5.4,0.4-13.3,1.2-17.6,1.7
		c-8.4,1.2-29.4,5.9-31.4,7.3c-1.1,0.6-1,1.9,0.6,8.7c7.2,29.6,2.9,67.9-11.1,97.2c-12.6,26.7-32.8,43.6-58.2,48.9
		c-2.9,0.5-5.2,1.3-5.2,1.5c0,0.3,1.5,4.4,3.5,9.2c1.9,4.8,3.8,10,4,11.6c0.9,3.8,4.8,6.9,13.6,11c10.8,5,18.8,6.8,31.5,6.7
		c18.8-0.1,21.8-1.3,62.9-26.8c32-19.8,44.6-27.3,61.7-36.5c29.3-15.9,52.5-24.4,66.7-24.5l6.1-0.1l0.4-8.2
		c0.4-6.8,0.9-9.3,3.2-14.2c5.7-12.2,15.5-19.6,27-20.3c4.3-0.3,6.6-0.8,6.6-1.5c0-1-27.5-25.7-53-47.5
		c-12.8-11-12.4-10.7-37.3-16.5C1580.4,1179.7,1559.7,1177.6,1537.4,1179.3z"/>
	<path id="structure7_label6_MTu" bar:growlevel="0" bar:type="" class="st113" d="M1360.9,2095.4c-13.1,1.6-18.6,5-23.6,14.3
		c-6.4,11.9-7,20.9-2.4,32c1.7,4.2,3.1,8.2,3.1,8.8c0,1.4,7.4,7.3,11.3,9c4,1.7,26.4,1.4,33.8-0.5c17.8-4.5,43.1-22.5,47.3-33.5
		c5.1-13.5-6.2-24.7-29.2-28.7C1392.1,2095.2,1368.9,2094.4,1360.9,2095.4z"/>
	<path id="structure80_label85_LDDM" bar:growlevel="0" bar:type="" class="st114" d="M1472.3,1195.4c-12.2,6.5-28,16.9-52.9,35.3
		c-30.1,22.1-38.6,27.4-52.3,32.3c-3.2,1.1-5.7,2.5-5.7,3.1c0,0.5,2,3,4.4,5.5c11.3,11.5,30.9,39.8,41.8,60.1
		c5.5,10.2,6.5,11.4,8.5,11.4c5,0,14.5-3.1,23.6-7.5c8.5-4.1,10.3-5.5,18.9-14c14-14.1,22.4-29.8,28.3-52.7
		c6.1-24.3,6.7-55.8,1.2-74.3C1486.4,1188.9,1484.6,1189,1472.3,1195.4z"/>
	<path id="structure82_label87_LHb" bar:growlevel="0" bar:type="" class="st115" d="M1208,1293.3c-0.4,1.9-1.2,8.4-1.8,14.5
		c-0.8,7.6-1.6,11.5-2.6,12.7c-2.8,3.1-1.8,4.3,5.6,6.8c14,4.7,25.5,6.9,36.6,7.5c12.2,0.5,16.7-0.4,43.2-8.4
		c16.8-5.1,21.7-7.4,27.9-13.1c6.5-5.8,6.5-7.3,0.3-6.4c-2.6,0.4-16.3,0.7-30.4,0.7c-23-0.1-26.6-0.3-34.8-2.1
		c-11.4-2.5-22.6-6.4-33.2-11.5c-4.5-2.2-8.5-4-9.1-4C1209.1,1290,1208.3,1291.5,1208,1293.3z"/>
	<path class="st116" d="M1161.1,1250.7l-3.2-1.7l-1.4,2.3c-3.1,4.7-7.8,8.2-13.5,9.9c-3.7,1.2-7.6,1.7-11.5,1.7v48.6
		c6.8-0.1,13.6-1,16.5-2.6c2.1-1.1,4.2-2.9,4.6-4c0.5-1.1,1.3-7.3,1.8-13.9c1.2-13.9,3.5-23.8,7.3-31.2c1.4-2.9,2.7-5.8,2.7-6.4
		C1164.3,1253,1162.9,1251.7,1161.1,1250.7z"/>
	<path id="structure84_label89_VPM" bar:growlevel="0" bar:type="" class="st117" d="M1650.2,1346.1c-12.7,4.4-23.4,12.2-42,30.6
		c-27.7,27.2-47.5,54.5-67.3,92.8c-27.5,53.3-45.2,100.8-50.3,135.1c-0.8,5.4-1.4,15.5-1.4,22.4c-0.1,23.7,4.9,37.9,17.5,50.1
		c2.3,2.4,5,4.3,5.8,4.3c2.3,0,90.3-87.8,98.9-98.7c27.8-35,59.7-99.3,67.7-136.5c5.7-26.5,4.6-61.9-2.4-82.9
		c-2.9-8.4-7.4-17.5-9.2-18.4C1664.5,1343.3,1656.4,1343.9,1650.2,1346.1z"/>
	<path class="st13" d="M1838.6,1224.5c-7.9-9.1-11.2-13.9-23.1-34.8c-15.8-27.7-19.8-36.7-24.2-54.3c-3.3-13.3-5-25-5.9-44.3
		c-1.9-35.7-3.1-42-13.3-64.8c-3.4-7.6-7.7-18-9.7-22.9l-3.5-8.9l-8.1-6.3c-35.4-27.4-76.7-50.1-129.1-71.3
		c-37.6-15.1-83.2-28.9-112.3-33.9c-15.7-2.8-56.3-3-71.7-0.5c-36.9,6.1-64,18.1-81.1,35.9c-3.4,3.6-13.2,15.5-21.7,26.4
		c-24.9,32.3-31.3,39.7-47.4,55.8c-21,20.9-37.9,33.2-57.3,41.7c-7,3-8,3.7-9.9,7.4c-2.8,5.2-13.6,15.8-20,19.7
		c-9.5,5.6-15.7,7.6-24.5,8c-4.4,0.2-10.3-0.1-13-0.7c-6.5-1.4-13.3-5.1-14.9-8.1l-1.3-2.3l-15,0.1v31.7c1.4,0,2.8,0,4.1,0
		c40.4-1.9,92.8-23.6,129.1-53.5c17.8-14.7,31.2-29.1,56.7-61c20.5-25.7,37-43.2,52.2-55.4c17.8-14.3,42.5-25.7,65.7-30.4
		c19.5-4,45.9-4.1,65.1-0.5c34.4,6.6,140.8,45.6,179.8,66.1c37.3,19.6,60.8,48.5,71.3,87.8c2.2,8.1,2.3,10.7,2.4,24.4
		c0,13.6-0.3,16-2.1,22.1c-5,16.2-12.9,25.5-27.8,33.1c-23.2,11.9-56.8,21.8-81.7,23.9c-8.2,0.7-122.7,6.7-141.3,7.3
		c-16.1,0.6-20.3,1.1-20.3,2.3c0,0.4,2.3,3.8,4.9,7.4c2.8,3.6,5.5,7.9,6,9.4c1.3,3.5,1.3,3.5,12.4,1.2c25-5.2,55.7-5.8,78.8-1.4
		c17.1,3.2,35.5,7.5,43.7,10.1c8.3,2.6,8,2.4,64.3,52c22.3,19.7,41.6,36.4,42.9,37.1c4.6,2.4,18.4,3.4,31.3,2.3
		c28-2.3,51.3-10.3,68.2-23.2c8-6.1,10-8.8,10.7-14.5C1848.8,1238.2,1846.3,1233.2,1838.6,1224.5z"/>
	<path id="structure89_label95_VRe" bar:growlevel="0" bar:type="" class="st118" d="M1189.3,1757.3c1.3,8.3,0.5,21.3-1.4,27.7
		c-1.1,3.2-1.9,6.5-1.9,7.3c0,1.7,21.4,12.2,31,15.1s12.8,2.5,34.6-4.1c10.7-3.3,19.9-6.3,20.3-6.8c0.5-0.4,0.2-2.3-0.7-4.4
		c-0.9-2.3-1.4-6.2-1.4-10.6v-6.9l-14.7-0.1c-8,0-17.2-0.5-20.4-1.2c-15-2.8-29.4-8.9-38.8-16.5c-2.9-2.3-5.8-4.3-6.2-4.3
		C1188.9,1752.6,1188.8,1754.2,1189.3,1757.3z"/>
	<path id="structure93_label99_f" bar:growlevel="0" bar:type="" class="st119" d="M1347.6,1984.1c-8.1,8.5-11.6,20.2-9.6,31.9
		c2.2,13.1,6.2,21.3,11.8,24.2c1.3,0.7,4.8,1.6,7.6,1.9c4.3,0.5,5.7,0.3,9.9-1.8c5.9-2.9,10.7-8,14-14.8c2.1-4.4,2.3-6.1,2.3-13.6
		c-0.1-10.6-2.3-17-7.9-22.9c-5.4-5.5-10.5-7.9-17.9-8.5l-6.1-0.4L1347.6,1984.1z"/>
	<path id="structure95_label101_mt" bar:growlevel="0" bar:type="" class="st120" d="M1285,1753.5c-8.5,2.1-13.9,11-15.1,25.7
		c-1.7,20.2,11.3,28.8,34.3,22.9c8.7-2.2,16.7-6.4,20.8-11c2.7-2.9,3.1-4.1,3.1-7.7c0-12.3-15.5-26.8-31.9-29.8
		C1290.2,1752.5,1289.3,1752.5,1285,1753.5z"/>
	<path id="structure9_label8_VMHDM" bar:growlevel="0" bar:type="" class="st121" d="M1173.8,2020.7c-8.8,2.6-13.9,5.4-16.2,9.1
		c-4,6.2-5.4,13-5.4,24.8c0.1,16.6,2.2,22.2,17.7,47.4c6.8,10.9,7.3,11.5,10,11.5c8.4-0.1,24.8-10.5,39.4-25.2
		c13.4-13.3,27.8-32.3,27.8-36.6c0-1.8-4.3-6.2-12.6-13c-11.4-9.4-22.5-15.5-33-18.2C1194.2,2018.5,1180.8,2018.6,1173.8,2020.7z"/>
	<text id="label30" bar:growlevel="0" transform="matrix(1 0 0 1 1171.1865 1445.7285)" class="st122 st123 st124">MDM</text>
	<text id="label31" bar:growlevel="0" transform="matrix(1 0 0 1 1798.2949 2236.8438)" class="st122 st123 st124">PLCo-1</text>
	<text id="label32" bar:growlevel="0" transform="matrix(1 0 0 1 1791.1494 2200.7031)" class="st122 st123 st124">PLCo-2</text>
	<text id="label33" bar:growlevel="0" transform="matrix(1 0 0 1 1793.2793 2158.9434)" class="st122 st123 st124">PLCo-3</text>
	<text id="label34" bar:growlevel="0" transform="matrix(1 0 0 1 1786.8896 2092.1035)" class="st122 st123 st124">BMP</text>
	<text id="label35" bar:growlevel="0" transform="matrix(1 0 0 1 1919.2793 2093.123)" class="st122 st123 st124">BLV</text>
	<text id="label36" bar:growlevel="0" transform="matrix(1 0 0 1 1668.1992 2153.6797)" class="st122 st123 st124">PMCo</text>
	<text id="label37" bar:growlevel="0" transform="matrix(1 0 0 1 1620.1201 2102.5117)" class="st122 st123 st124">MePV</text>
	<text id="label38" bar:growlevel="0" transform="matrix(1 0 0 1 1656.2109 1963.6133)" class="st122 st123 st124">MePD</text>
	<text id="label39" bar:growlevel="0" transform="matrix(1 0 0 1 1750.6787 1973.002)" class="st122 st123 st124">STIA</text>
	<text id="text3327" bar:growlevel="0" transform="matrix(1 0 0 1 1543.6641 938.4824)" class="st122 st123 st124">Py</text>
	<text id="text3329" bar:growlevel="0" transform="matrix(1 0 0 1 1696.5352 1017.8477)" class="st125 st123 st124">.Py</text>
	<text id="label8" bar:growlevel="0" transform="matrix(1 0 0 1 1170.1172 2062.1816)" class="st122 st123 st124">VMHDM</text>
	<text id="label9" bar:growlevel="0" transform="matrix(1 0 0 1 1193.0859 1892.9043)" class="st122 st123 st124">DA</text>
	<text id="label206" bar:growlevel="0" transform="matrix(1 0 0 1 1794.4512 1317.0547)" class="st122 st123 st124">cst</text>
	<text id="label0" bar:growlevel="0" transform="matrix(1 0 0 1 1344.8379 2085.7754)" class="st122 st123 st124">TuLH</text>
	<text id="label1" bar:growlevel="0" transform="matrix(1 0 0 1 1315.0781 1916.5742)" class="st122 st123 st124">PeFLH</text>
	<text id="label2" bar:growlevel="0" transform="matrix(1 0 0 1 1337.9707 1971.9238)" class="st122 st123 st124">PeF</text>
	<text id="label4" bar:growlevel="0" transform="matrix(1 0 0 1 1165.8281 1957.2852)" class="st122 st123 st124">DMD</text>
	<text id="label5" bar:growlevel="0" transform="matrix(1 0 0 1 1245.0703 2177.3301)" class="st122 st123 st124">VMHVL</text>
	<text id="label6" bar:growlevel="0" transform="matrix(1 0 0 1 1349.2793 2134.8242)" class="st122 st123 st124">MTu</text>
	<text id="label85" bar:growlevel="0" transform="matrix(1 0 0 1 1395.6299 1282.5254)" class="st122 st123 st124">LDDM</text>
	<text id="label84" bar:growlevel="0" transform="matrix(1 0 0 1 1535.5195 1270.0117)" class="st122 st123 st124">LDVL</text>
	<text id="label87" bar:growlevel="0" transform="matrix(1 0 0 1 1276.2451 1319.9336)" class="st122 st123 st124">LHb</text>
	<text id="label81" bar:growlevel="0" transform="matrix(1 0 0 1 1270.0107 1383.7539)" class="st122 st123 st124">MDC</text>
	<text id="label80" bar:growlevel="0" transform="matrix(1 0 0 1 1145.4141 1361.1074)" class="st122 st123 st124">PV</text>
	<text id="label83" bar:growlevel="0" transform="matrix(1 0 0 1 1396.1074 1390.1035)" class="st122 st123 st124">CL</text>
	<text id="label82" bar:growlevel="0" transform="matrix(1 0 0 1 1302.2109 1456.4336)" class="st122 st123 st124">MDL</text>
	<text id="label89" bar:growlevel="0" transform="matrix(1 0 0 1 1554.6885 1519.6445)" class="st122 st123 st124">VPM</text>
	<text id="label88" bar:growlevel="0" transform="matrix(1 0 0 1 1141.1309 1281.3008)" class="st122 st123 st124">D3V</text>
	<text id="label176" bar:growlevel="0" transform="matrix(1 0 0 1 1156.2598 1023.623)" class="st122 st123 st124">IG</text>
	<text id="label174" bar:growlevel="0" transform="matrix(1 0 0 1 1186.582 1301.3301)" class="st122 st123 st124">MHb</text>
	<text id="label175" bar:growlevel="0" transform="matrix(1 0 0 1 1306.084 1201.7012)" class="st122 st123 st124">PoDG</text>
	<text id="label173" bar:growlevel="0" transform="matrix(1 0 0 1 1690.0195 1065.3242)" class="st122 st123 st124">SLu</text>
	<text id="label170" bar:growlevel="0" transform="matrix(1 0 0 1 1790.4287 1612.6445)" class="st122 st123 st124">ic</text>
	<text id="label194" bar:growlevel="0" transform="matrix(1 0 0 1 1138.6758 2213.8789)" class="st122 st123 st124">MEE</text>
	<text id="label215" bar:growlevel="0" transform="matrix(1 0 0 1 1508.3086 2111.9336)" class="st122 st123 st124">a</text>
	<text id="label214" bar:growlevel="0" transform="matrix(1 0 0 1 1564.3477 1695.1445)" class="st122 st123 st124">ml</text>
	<text id="label12" bar:growlevel="0" transform="matrix(1 0 0 1 1225.7109 1727.5117)" class="st122 st123 st124">SubV</text>
	<text id="label13" bar:growlevel="0" transform="matrix(1 0 0 1 1366.0781 1729.6133)" class="st122 st123 st124">VM</text>
	<text id="label10" bar:growlevel="0" transform="matrix(1 0 0 1 1231.5 1836.1445)" class="st122 st123 st124">A13</text>
	<text id="label16" bar:growlevel="0" transform="matrix(1 0 0 1 1406.4609 1870.6133)" class="st122 st123 st124">SubI</text>
	<text id="label17" bar:growlevel="0" transform="matrix(1 0 0 1 1476.5947 1968.6172)" class="st122 st123 st124">MCLH</text>
	<text id="label14" bar:growlevel="0" transform="matrix(1 0 0 1 1401.5977 1802.4238)" class="st122 st123 st124">ZID</text>
	<text id="label15" bar:growlevel="0" transform="matrix(1 0 0 1 1376.4287 1841.6328)" class="st122 st123 st124">ZIV</text>
	<text id="label169" bar:growlevel="0" transform="matrix(1 0 0 1 1812.8701 1298.2422)" class="st122 st123 st124">st</text>
	<text id="label95" bar:growlevel="0" transform="matrix(1 0 0 1 1207.1689 1797.5352)" class="st122 st123 st124">VRe</text>
	<text id="label99" bar:growlevel="0" transform="matrix(1 0 0 1 1356.8701 2022.0547)" class="st122 st123 st124">f</text>
	<text id="label167" bar:growlevel="0" transform="matrix(1 0 0 1 1668 925.3438)" class="st122 st123 st124">dcw</text>
	<text id="label166" bar:growlevel="0" transform="matrix(1 0 0 1 1340.5781 864.7754)" class="st122 st123 st124">cg</text>
	<text id="label187" bar:growlevel="0" transform="matrix(1 0 0 1 1498.5293 2042.9922)" class="st122 st123 st124">PTe</text>
	<text id="label186" bar:growlevel="0" transform="matrix(1 0 0 1 1436.8477 1984.4629)" class="st122 st123 st124">PLH</text>
	<text id="label185" bar:growlevel="0" transform="matrix(1 0 0 1 2056.0781 2040.2617)" class="st122 st123 st124">VEn</text>
	<text id="label184" bar:growlevel="0" transform="matrix(1 0 0 1 2032.8574 1898.8145)" class="st122 st123 st124">LaVL</text>
	<text id="label183" bar:growlevel="0" transform="matrix(1 0 0 1 1944.75 1817.0645)" class="st122 st123 st124">IMG</text>
	<text id="label182" bar:growlevel="0" transform="matrix(1 0 0 1 1734.3281 2070.1133)" class="st122 st123 st124">BMA</text>
	<text id="label181" bar:growlevel="0" transform="matrix(1 0 0 1 1304.8594 1226.8574)" class="st122 st123 st124">GrDG</text>
	<text id="label189" bar:growlevel="0" transform="matrix(1 0 0 1 1141.3096 1491.1035)" class="st122 st123 st124">IMD</text>
	<text id="label188" bar:growlevel="0" transform="matrix(1 0 0 1 1132.2832 1963.291)" class="st122 st123 st124">3V</text>
	<text id="Unlabeled-1799-1110" bar:growlevel="0" transform="matrix(1 0 0 1 1143.2549 1246.7793)" class="st122 st123 st124">vBrain</text>
	<text id="label118" bar:growlevel="0" transform="matrix(1 0 0 1 1586.8594 2135.0547)" class="st122 st123 st124">OlfCx-1</text>
	<text id="label69" bar:growlevel="0" transform="matrix(1 0 0 1 1172.5195 900.2949)" class="st122 st123 st124">RSGc</text>
	<text id="label68" bar:growlevel="0" transform="matrix(1 0 0 1 1206.2988 737.334)" class="st122 st123 st124">RSD</text>
	<text id="label67" bar:growlevel="0" transform="matrix(1 0 0 1 1309.5293 702.8945)" class="st122 st123 st124">M2</text>
	<text id="label66" bar:growlevel="0" transform="matrix(1 0 0 1 1401.3281 688.2852)" class="st122 st123 st124">M1</text>
	<text id="label64" bar:growlevel="0" transform="matrix(1 0 0 1 1606.0898 728.1992)" class="st122 st123 st124">S1Tr</text>
	<text id="label63" bar:growlevel="0" transform="matrix(1 0 0 1 2179.7109 1775.5742)" class="st122 st123 st124">AIP</text>
	<text id="label62" bar:growlevel="0" transform="matrix(1 0 0 1 2032.3799 988.0449)" class="st122 st123 st124">S1BF</text>
	<text id="label61" bar:growlevel="0" transform="matrix(1 0 0 1 1815.3574 1146.8047)" class="st122 st123 st124">LV</text>
	<text id="label60" bar:growlevel="0" transform="matrix(1 0 0 1 2145.6592 1250.3945)" class="st122 st123 st124">S1ULp</text>
	<text id="label107" bar:growlevel="0" transform="matrix(1 0 0 1 1439.9707 1930.1934)" class="st122 st123 st124">mfb</text>
	<text id="label216" bar:growlevel="0" transform="matrix(1 0 0 1 1454.0098 2148.834)" class="st122 st123 st124">a</text>
	<text id="label197" bar:growlevel="0" transform="matrix(1 0 0 1 1209.7764 2197.9531)" class="st122 st123 st124">ArcL</text>
	<text id="label101" bar:growlevel="0" transform="matrix(1 0 0 1 1283.2793 1787.0645)" class="st122 st123 st124">mt</text>
	<text id="label213" bar:growlevel="0" transform="matrix(1 0 0 1 1799.7305 1754.6934)" class="st122 st123 st124">cst</text>
	<text id="label193" bar:growlevel="0" transform="matrix(1 0 0 1 1140.4043 1916.5449)" class="st122 st123 st124">Pe</text>
	<text id="label212" bar:growlevel="0" transform="matrix(1 0 0 1 1601.5488 1918.6738)" class="st122 st123 st124">sox</text>
	<text id="label78" bar:growlevel="0" transform="matrix(1 0 0 1 1138.5 1054.7031)" class="st122 st123 st124">cc</text>
	<text id="label79" bar:growlevel="0" transform="matrix(1 0 0 1 1135.3652 1085.7988)" class="st122 st123 st124">dhc</text>
	<text id="label109" bar:growlevel="0" transform="matrix(1 0 0 1 1608.3574 1947.9531)" class="st122 st123 st124">opt</text>
	<text id="label108" bar:growlevel="0" transform="matrix(1 0 0 1 1464.6885 1886.334)" class="st122 st123 st124">ns</text>
	<text id="label74" bar:growlevel="0" transform="matrix(1 0 0 1 1429.0488 1054.8535)" class="st122 st123 st124">MoDG</text>
	<text id="label75" bar:growlevel="0" transform="matrix(1 0 0 1 1371.46 990.6836)" class="st125 st123 st124">.CA1</text>
	<text id="label76" bar:growlevel="0" transform="matrix(1 0 0 1 1451.9092 911.7852)" class="st122 st123 st124">Or</text>
	<text id="label77" bar:growlevel="0" transform="matrix(1 0 0 1 1431.7676 1131.1504)" class="st125 st123 st124">.CA3</text>
	<text id="label70" bar:growlevel="0" transform="matrix(1 0 0 1 1589.7188 1020.4238)" class="st125 st123 st124">.CA2</text>
	<text id="label71" bar:growlevel="0" transform="matrix(1 0 0 1 1585.79 1098.748)" class="st125 st123 st124">.CA3</text>
	<text id="label72" bar:growlevel="0" transform="matrix(1 0 0 1 1447.9512 980.6934)" class="st122 st123 st124">Rad</text>
	<text id="label73" bar:growlevel="0" transform="matrix(1 0 0 1 1425.3281 1019.334)" class="st122 st123 st124">LMol</text>
	<text id="label221" bar:growlevel="0" transform="matrix(1 0 0 1 1224.6445 2113.6211)" class="st122 st123 st124">VMHC</text>
	<text id="label248" bar:growlevel="0" transform="matrix(1 0 0 1 1291.4385 1127.1836)" class="st125 st123 st124">.hif</text>
	<text id="label242" bar:growlevel="0" transform="matrix(1 0 0 1 1892.25 789.502)" class="st122 st123 st124">S1DZ</text>
	<text id="label243" bar:growlevel="0" transform="matrix(1 0 0 1 2039.4902 1353.623)" class="st122 st123 st124">ec</text>
	<text id="label247" bar:growlevel="0" transform="matrix(1 0 0 1 1180.6201 1070.8145)" class="st122 st123 st124">df</text>
	<text id="Unlabeled-2469-1171" bar:growlevel="0" transform="matrix(1 0 0 1 1746.6299 1293.5781)" class="st122 st123 st124">grey</text>
	<text id="Unlabeled-1742-1798" bar:growlevel="0" transform="matrix(1 0 0 1 1141.6055 1862.7559)" class="st122 st123 st124">PHD</text>
	<text id="label48" bar:growlevel="0" transform="matrix(1 0 0 1 1963.3008 1865.5332)" class="st122 st123 st124">LaVM</text>
	<text id="label41" bar:growlevel="0" transform="matrix(1 0 0 1 1583.2207 1832.002)" class="st122 st123 st124">EP</text>
	<text id="label40" bar:growlevel="0" transform="matrix(1 0 0 1 1890.8994 1979.2754)" class="st122 st123 st124">BLA</text>
	<text id="label43" bar:growlevel="0" transform="matrix(1 0 0 1 1775.7363 1887.5664)" class="st122 st123 st124">CeM</text>
	<text id="label45" bar:growlevel="0" transform="matrix(1 0 0 1 1817.0391 1816.3438)" class="st122 st123 st124">CeL</text>
	<text id="label44" bar:growlevel="0" transform="matrix(1 0 0 1 1869.0879 1863.3535)" class="st122 st123 st124">CeC</text>
	<text id="label47" bar:growlevel="0" transform="matrix(1 0 0 1 2077.7109 1942.7324)" class="st122 st123 st124">DEn</text>
	<text id="label237" bar:growlevel="0" transform="matrix(1 0 0 1 1284.8086 1286.9629)" class="st122 st123 st124">sm</text>
	<text id="label259" bar:growlevel="0" transform="matrix(1 0 0 1 1142.8125 2168.0059)" class="st122 st123 st124">ArcM</text>
	<text id="label258" bar:growlevel="0" transform="matrix(1 0 0 1 1142.7217 2130.1504)" class="st122 st123 st124">ArcD</text>
	<text id="label205" bar:growlevel="0" transform="matrix(1 0 0 1 1545.5098 899.5117)" class="st122 st123 st124">alv</text>
	<text id="label253" bar:growlevel="0" transform="matrix(1 0 0 1 1513.6494 2023.6445)" class="st122 st123 st124">vlh</text>
	<text id="label256" bar:growlevel="0" transform="matrix(1 0 0 1 1134.0352 2193.1973)" class="st122 st123 st124">MEI</text>
	<text id="label56" bar:growlevel="0" transform="matrix(1 0 0 1 1955.5195 1512.4434)" class="st122 st123 st124">CPu</text>
	<text id="label57" bar:growlevel="0" transform="matrix(1 0 0 1 2197.8281 1659.7129)" class="st122 st123 st124">DI</text>
	<text id="label54" bar:growlevel="0" transform="matrix(1 0 0 1 1767.2695 1497.834)" class="st122 st123 st124">Rt</text>
	<text id="label55" bar:growlevel="0" transform="matrix(1 0 0 1 1666.2305 1532.2754)" class="st122 st123 st124">VPL</text>
	<text id="label52" bar:growlevel="0" transform="matrix(1 0 0 1 2160.5684 2105.5449)" class="st122 st123 st124">Pir-2</text>
	<text id="label53" bar:growlevel="0" transform="matrix(1 0 0 1 2139.668 2062.3574)" class="st122 st123 st124">Pir-3</text>
	<text id="label50" bar:growlevel="0" transform="matrix(1 0 0 1 1920.6592 1781.9043)" class="st122 st123 st124">ASt</text>
	<text id="label51" bar:growlevel="0" transform="matrix(1 0 0 1 2181.2373 2143.5215)" class="st122 st123 st124">Pir-1</text>
	<text id="label58" bar:growlevel="0" transform="matrix(1 0 0 1 2198.5195 1585.8828)" class="st122 st123 st124">GI</text>
	<text id="label59" bar:growlevel="0" transform="matrix(1 0 0 1 2214.0586 1437.2324)" class="st122 st123 st124">S2</text>
	<text id="label46" bar:growlevel="0" transform="matrix(1 0 0 1 1997.5195 2002.252)" class="st122 st123 st124">BLP</text>
	<text id="Unlabeled-2532-1695" bar:growlevel="0" transform="matrix(1 0 0 1 1751.1299 1793.9805)" class="st122 st123 st124">OlfCx-1</text>
	<text id="Unlabeled-1772-1201" bar:growlevel="0" transform="matrix(1 0 0 1 1138.0781 1324.3281)" class="st122 st123 st124">grey</text>
	<text id="label168" bar:growlevel="0" transform="matrix(1 0 0 1 1773.0879 1237.6445)" class="st122 st123 st124">fi</text>
	<text id="label42" bar:growlevel="0" transform="matrix(1 0 0 1 1847.0391 1665.9531)" class="st122 st123 st124">GP</text>
	<text id="Unlabeled-2110-708" bar:growlevel="0" transform="matrix(1 0 0 1 1405.5293 875.0781)" class="st122 st123 st124">grey</text>
	<text id="label260" bar:growlevel="0" transform="matrix(1 0 0 1 1275.4453 2073.9238)" class="st122 st123 st124">VMHSh</text>
	<text id="label23" bar:growlevel="0" transform="matrix(1 0 0 1 1142.6543 1760.5293)" class="st122 st123 st124">Re</text>
	<text id="label22" bar:growlevel="0" transform="matrix(1 0 0 1 1144.6201 1822.6602)" class="st122 st123 st124">PaXi</text>
	<text id="label27" bar:growlevel="0" transform="matrix(1 0 0 1 1393.1396 1602.2324)" class="st122 st123 st124">VL</text>
	<text id="label26" bar:growlevel="0" transform="matrix(1 0 0 1 1147.6494 1572.9531)" class="st122 st123 st124">CM</text>
	<text id="label25" bar:growlevel="0" transform="matrix(1 0 0 1 1224.8994 1650.2949)" class="st122 st123 st124">SubD</text>
	<text id="label24" bar:growlevel="0" transform="matrix(1 0 0 1 1142.1885 1652.6035)" class="st122 st123 st124">Rh</text>
	<text id="label29" bar:growlevel="0" transform="matrix(1 0 0 1 1351.7695 1519.7031)" class="st122 st123 st124">PC</text>
	<text id="label28" bar:growlevel="0" transform="matrix(1 0 0 1 1476.6299 1458.084)" class="st122 st123 st124">Po</text>
	<text id="label49" bar:growlevel="0" transform="matrix(1 0 0 1 2005.8574 1785.0254)" class="st122 st123 st124">LaDL</text>
	<text id="label156" bar:growlevel="0" transform="matrix(1 0 0 1 1240.7227 1258.502)" class="st122 st123 st124">MoDG</text>
</g>
</svg>
