<?xml version="1.0" encoding="utf-8"?>
<!-- Generator: Adobe Illustrator 24.1.1, SVG Export Plug-In . SVG Version: 6.00 Build 0)  -->
<svg version="1.1"
	 id="body" inkscape:version="0.47pre4 r22446" sodipodi:docname="118_pretrace_pretrace_v1.svg" xmlns:bar="http://www.3dbar.org" xmlns:cc="http://creativecommons.org/ns#" xmlns:dc="http://purl.org/dc/elements/1.1/" xmlns:inkscape="http://www.inkscape.org/namespaces/inkscape" xmlns:rdf="http://www.w3.org/1999/02/22-rdf-syntax-ns#" xmlns:sodipodi="http://sodipodi.sourceforge.net/DTD/sodipodi-0.dtd" xmlns:svg="http://www.w3.org/2000/svg"
	 xmlns="http://www.w3.org/2000/svg" xmlns:xlink="http://www.w3.org/1999/xlink" x="0px" y="0px" viewBox="0 0 3024 3024"
	 style="enable-background:new 0 0 3024 3024;" xml:space="preserve">
<style type="text/css">
	.st0{fill:#FF000C;}
	.st1{fill:#DCDF8E;}
	.st2{fill:#CCD400;}
	.st3{fill:#FDFFB2;}
	.st4{fill:#0004E9;}
	.st5{fill:#3FFF00;}
	.st6{fill:#8CFF59;}
	.st7{fill:#D0FFB2;}
	.st8{fill:#DEFF00;}
	.st9{fill:#F4FFB2;}
	.st10{fill:#B8B2FF;}
	.st11{fill:#F5FFB2;}
	.st12{fill:#B2B7FF;}
	.st13{fill:#DFB547;}
	.st14{fill:#009ACF;}
	.st15{fill:#0011FF;}
	.st16{fill:#8D77BF;}
	.st17{fill:#FFC559;}
	.st18{fill:#DFFF00;}
	.st19{fill:#5000C3;}
	.st20{fill:#DFC98E;}
	.st21{fill:#6B3BCB;}
	.st22{fill:#DF0045;}
	.st23{fill:#EEFF76;}
	.st24{fill:#BCD400;}
	.st25{fill:#7E53D8;}
	.st26{fill:#A982ED;}
	.st27{fill:#B2FF00;}
	.st28{fill:#5C2FBF;}
	.st29{fill:#DAFF00;}
	.st30{fill:#C9FFB2;}
	.st31{fill:#E99700;}
	.st32{fill:#7047CB;}
	.st33{fill:#FF6359;}
	.st34{fill:#9653F6;}
	.st35{fill:#B2FFDE;}
	.st36{fill:#DFA000;}
	.st37{fill:#76E7E9;}
	.st38{fill:#A682DC;}
	.st39{fill:#00D43B;}
	.st40{fill:#B2C5FF;}
	.st41{fill:#E9FF59;}
	.st42{fill:#5600D4;}
	.st43{fill:#633BBF;}
	.st44{fill:#FFAE59;}
	.st45{fill:#7247C3;}
	.st46{fill:#FFB2BA;}
	.st47{fill:#7059FF;}
	.st48{fill:#1F00FF;}
	.st49{fill:#DF7800;}
	.st50{fill:#8253E1;}
	.st51{fill:#6D2FF6;}
	.st52{fill:#E9BD47;}
	.st53{fill:#FFA900;}
	.st54{fill:#FFA600;}
	.st55{fill:#FFAE00;}
	.st56{fill:#FAD6A5;}
	.st57{fill:#E7FF00;}
	.st58{fill:#FFCBB2;}
	.st59{fill:#F0FF59;}
	.st60{fill:#D45C3B;}
	.st61{fill:#D6FF00;}
	.st62{fill:#EBF400;}
	.st63{fill:#F9FF47;}
	.st64{fill:#D0D46B;}
	.st65{fill:#FFFDB2;}
	.st66{fill:#FFFB00;}
	.st67{fill:#FF7100;}
	.st68{fill:#FFE4B2;}
	.st69{fill:#CDE900;}
	.st70{fill:#FFB700;}
	.st71{fill:#FFD059;}
	.st72{fill:#FFCC47;}
	.st73{fill:#FFE2B2;}
	.st74{fill:#FFFA00;}
	.st75{fill:#E7E959;}
	.st76{fill:#F8FF00;}
	.st77{fill:#FAFF59;}
	.st78{fill:#EEF447;}
	.st79{fill:#FFFEB2;}
	.st80{fill:#FFFE00;}
	.st81{fill:#E7FF3B;}
	.st82{fill:#67FF00;}
	.st83{fill:#C0A6F6;}
	.st84{fill:#793BFA;}
	.st85{fill:#0045FF;}
	.st86{fill:#FFC159;}
	.st87{fill:#826BF2;}
	.st88{fill:#FF59B8;}
	.st89{fill:#6A3BC7;}
	.st90{fill:#DFB259;}
	.st91{fill:#5023FF;}
	.st92{fill:#3C3BE9;}
	.st93{fill:#3BEFD0;}
	.st94{fill:#F1FFB2;}
	.st95{fill:#D3FF00;}
	.st96{fill:#976BFF;}
	.st97{fill:#E1B2FF;}
	.st98{fill:#00D7F2;}
	.st99{fill:#4CC9F7;}
	.st100{fill:#232323;enable-background:new    ;}
	.st101{font-family:'TimesNewRomanPSMT';}
	.st102{font-size:27px;}
</style>
<sodipodi:namedview  bordercolor="#666666" borderopacity="1" gridtolerance="10" guidetolerance="10" id="namedview493" inkscape:current-layer="content" inkscape:cx="500.6921" inkscape:cy="502.75106" inkscape:object-paths="true" inkscape:pageopacity="0" inkscape:pageshadow="2" inkscape:window-height="1026" inkscape:window-maximized="1" inkscape:window-width="1678" inkscape:window-x="0" inkscape:window-y="0" inkscape:zoom="2.5290954" objecttolerance="10" pagecolor="#ffffff" showgrid="false">
	</sodipodi:namedview>
<desc  id="desc5">This was produced by version 4.2 of GNU libplot, a free library for exporting 2-D vector graphics.</desc>
<defs>
	<rdf:RDF>
		<cc:Work  rdf:about="">
			<dc:format>image/svg+xml</dc:format>
			<dc:type  rdf:resource="http://purl.org/dc/dcmitype/StillImage"></dc:type>
		</cc:Work>
	</rdf:RDF>
	<bar:data  content="-5.04" name="coronalcoord"></bar:data>
	
		<bar:data  content="{&apos;ReferenceHeight&apos;: 900, &apos;ReferenceWidth&apos;: 1200, &apos;imageSize&apos;: (1200, 900)}" name="rendererConf">
		</bar:data>
	
		<bar:data  content="{&apos;DumpEachStepSVG&apos;: False, &apos;DumpEachStepPNG&apos;: False, &apos;GrowDefaultBoundaryColor&apos;: 200, &apos;CacheLevel&apos;: 5, &apos;NewPathIdTemplate&apos;: &apos;structure%d_%s_%s&apos;, &apos;PoTraceConf&apos;: {&apos;potrace_accuracy_parameter&apos;: &apos;0.001&apos;, &apos;potrace_width_string&apos;: &apos;1200pt&apos;, &apos;potrace_svg_resolution_string&apos;: &apos;300x300&apos;, &apos;potrace_height_string&apos;: &apos;900pt&apos;}, &apos;DetectUnlabelled&apos;: True, &apos;DumpVBrain&apos;: False, &apos;DumpWrongSeed&apos;: True, &apos;DumpDirectory&apos;: &apos;.&apos;, &apos;MinFiterTimesApplication&apos;: 3, &apos;RegionAlreadyTraced&apos;: 100, &apos;UnlabelledTreshold&apos;: 500}" name="tracingConf">
		</bar:data>
	<bar:data  content="0.0176211454,-9.5150660793,0.0176211454,-1.5355884426" name="transformationmatrix"></bar:data>
</defs>
<g id="content">
	<path class="st0" d="M2425.7,1395.3c-7.7-127.4-25.3-202.9-70.7-303.8c-27.8-61.7-68.8-130.5-103.2-173.3
		c-33.1-41.1-90.4-86.2-176.6-138.8c-59-36-134.6-76.4-181.8-97c-84.8-37.2-201.2-74.1-303.3-96.2
		c-168.5-36.5-261.8-46.3-324.4-34.3c-46.6,9-81.7,27.8-115.7,62c-21.7,21.9-35.6,43.2-40.5,62.2c-0.5,2.3-1.2,4.8-1.4,5.6
		c-0.3,1.2-0.8,1.6-1.3,1.6v427.6c9.9,0,18,0.4,18,0.7c0,0.5-0.8,4-1.9,7.9c-2.3,8.9-2.6,22.6-0.5,31.1c5,20.8,21.7,40.1,44,51
		c18.1,8.8,48.9,19.6,64.9,22.7c2.8,0.5,5.1,1.5,5.1,2.1c0,0.6-2,2.2-4.3,3.5c-7,3.9-21.6,15.2-38,29.6
		c-8.4,7.4-15.8,13.4-16.3,13.4c-0.6,0-0.8-1-0.5-2.5c3.1-17.5,2.9-23.9-1.6-39.3c-3.4-11.8-6.8-18.5-10.9-21.8
		c-11.1-8.7-41.6-18.4-58-18.4V2167c2.4,0,4.9-0.2,7.6-0.5c24.6-2.8,111.1-24.1,123.8-30.6c6-3.1,12.2-8.2,13.1-10.8
		c0.3-1,3.1-3.5,6.2-5.8c18.4-13.1,20.5-25.8,7.6-45.2c-2.4-3.7-7.3-9.2-10.9-12.3c-14.7-13-15-13.2-15-16.6c0-2.1,0.7-3.8,2.3-5.2
		c3.9-3.9,8.1-3.2,35,5.9l24.2,8.1l7.3,6.8c13.4,12.4,28.1,21.3,40.5,24.6c19.7,5,53.9,4.1,92.8-2.3c49.1-8.2,72.9-19.1,100.3-46.1
		c6.1-6,11.4-11,11.8-11c0.4,0,0.9,3.5,1.2,7.8c1.1,14.4,6.4,28.7,14.8,39.9c5.5,7.3,9.6,11,15.8,14c7.1,3.6,11.6,7.6,18.4,16.8
		c7.2,9.6,12.1,14.4,16.5,15.8c2.5,0.8,3.7,2.2,7,8.4c6.7,12.5,11.4,19.2,19.3,26.6c8.6,8,19,14.5,29.6,18.4
		c9.6,3.5,16.1,4.1,27.4,2.3c5-0.8,10.4-1.2,12-0.9c3.4,0.7,4.7,2.9,8.3,14.4c4.4,13.9,7.6,16.7,33.2,29.7
		c14.4,7.3,25.5,11.4,40.1,15.2c21.9,5.7,28.7,6.3,64.8,6.3c32.7,0,40.5-0.4,68.8-4.1c33-4.2,51.2-8.5,66.3-15.7
		c14.7-6.9,23.2-13.7,29.3-23c5.8-8.9,13.1-14.5,23.2-17.4c6.2-1.7,9.3-1.8,39.6-1c25.7,0.7,44.8-0.2,60.2-2.8
		c31.3-5.4,76.5-35.3,121.6-80.5c22.8-22.8,38.7-43.3,59.4-76.5c21.7-34.7,43.2-76.1,49.4-94.9c1.9-5.9,6.4-22.3,10-36.4
		c5.9-23.8,12.4-46.9,19.2-68.9c2.7-8.7,2.8-9.5,2.8-26.1c0-16.2-0.2-17.6-2.8-27.4c-5.1-19.3-12.8-37.1-23.3-54
		c-4-6.5-4.9-8.6-4.9-11.9c0-3.4,0.5-4.6,3.1-7.3c1.7-1.8,6.1-4.7,9.8-6.4c9.3-4.4,12.9-9.1,19.5-25.4c9.7-23.8,16.2-57.6,17.6-91.3
		C2431.3,1545.8,2428.5,1442.4,2425.7,1395.3z M1507.3,1194c-6.7-0.7-16.7-2.6-22.4-4.1c-28.6-7.4-38.5-7.2-88.7,1.1
		c-24.4,4-23.1,3.9-23.1,2.3c0-0.6,5.8-3.3,13.8-6.4c20.9-8,43.4-17.9,62.3-27.5c15.9-8.1,37.3-20.3,44.5-25.6
		c3.2-2.3,6.3-3.1,6.3-1.4c0,0.5-1.2,3.1-2.6,5.7c-3.3,5.9-5.5,13.3-5.5,18.5c0.1,4.8,3.1,12.8,6.8,17.6
		c3.6,4.8,13.1,11.5,21.7,15.6C1533.1,1195.7,1529.8,1196.7,1507.3,1194z"/>
	<path id="structure2_label204_vBrain" bar:growlevel="0" bar:type="" class="st0" d="M1445.3,1166.7c-5.3,3.2-5.3,8.1-0.1,11.2
		c5.5,3.2,15,1.3,17.2-3.6c0.9-1.8,0.7-2.6-0.8-4.7C1458,1164.6,1450.8,1163.3,1445.3,1166.7z"/>
	<path id="structure113_label125_PtPR" bar:growlevel="0" bar:type="" class="st1" d="M2064.6,919.3c-44.5,50.6-80.9,92.4-81.1,93.1
		c-0.2,0.6,2.5,3.2,5.8,5.9c19.5,15.2,45.6,40.2,61.5,58.9c4.7,5.4,9,9.9,9.6,9.9c0.6,0,46.3-33.4,101.6-74.3
		c55.3-40.9,100.9-74.5,101.5-74.9c1.4-0.9,0.2-2.6-10.7-16.7c-10.9-13.9-37.1-40.4-53.1-53.7c-14.5-12.1-51.8-40.1-53.3-40.1
		C2145.9,827.4,2109.1,868.7,2064.6,919.3z"/>
	<path id="structure114_label126_PtPD" bar:growlevel="0" bar:type="" class="st2" d="M1978.9,864.5
		c-34.9,56.4-63.5,103.1-63.6,103.7c-0.2,0.5,5.1,4.1,11.6,7.7c13.6,7.8,34.5,21.3,46.4,30c4.5,3.3,8.6,6,9,6
		c1.6,0,161.8-183.2,161.8-185c0-2-12.8-11-43.2-30.3c-19.2-12.2-56.8-34.9-57.9-34.9C2042.6,761.7,2013.8,807.9,1978.9,864.5z"/>
	<path id="structure115_label127_V2L" bar:growlevel="0" bar:type="" class="st3" d="M1891.4,817.3
		c-26.6,61.3-48.4,112.2-48.4,113.2c0,1.3,5.3,4.3,25.9,14.5c14.2,7,30.1,15.1,35.5,18c6.3,3.4,10,4.9,10.5,4.3
		c2.3-2.4,126.1-204,126.1-205.5c0-1.2-4.6-4.2-16.8-11.2c-27.8-15.8-82.3-44.8-83.9-44.8C1940,705.9,1917.9,756,1891.4,817.3z"/>
	<path id="structure12_label9_Dk" bar:growlevel="0" bar:type="" class="st4" d="M1157.2,1592.3c-12,3.7-21.3,15.5-24.8,31.4
		c-1.1,5-1.3,9.4-1.1,17.6c0.8,19.8,7.4,33.5,24.2,50.2c5.3,5.4,10.3,9.7,11.1,9.7c0.8,0,1.6-1.1,1.9-2.5
		c1.9-8.5,5.8-19.1,10.9-28.8c6.8-13,9.3-21,13-42.3c1.5-8.6,3.5-18,4.5-21c1-2.9,1.8-5.6,1.8-6c0-1.2-11.3-6.2-17.5-7.8
		C1175.4,1591.4,1161.2,1591.1,1157.2,1592.3z"/>
	<path id="structure131_label144_cg" bar:growlevel="0" bar:type="" class="st5" d="M1377.7,810.3c-28.4,2.8-48.4,12.2-61.9,29.3
		c-2.3,3-7.7,11.3-11.9,18.5c-10.5,18.3-28,44.4-38.2,57.1c-21.4,26.7-45.9,50.6-65,63.2c-4.8,3.2-6.3,5.7-3.4,5.7
		c2.3,0,27.3-13,39.2-20.5c25.6-16,35.3-24.5,93-80.8c16.4-16,32.1-31,35-33.2c10.6-8.2,26.2-14.2,45.1-17.4
		c14.1-2.3,52.7-2,73.8,0.5c27.6,3.4,33.8,4,47.7,4c13.8,0.1,17.5-0.4,17.5-2.4c0-1.2-5-2.4-37.9-9.1
		C1452.5,813.2,1403.7,807.8,1377.7,810.3z"/>
	<path id="structure132_label145_alv" bar:growlevel="0" bar:type="" class="st6" d="M1531.4,876.9c-40.2,2.1-73.9,7.6-87.8,14.4
		c-6.6,3.2-13.9,10.7-18,18.5c-4.7,8.9-8.8,22.4-14.2,46c-2.9,12.3-6.8,27.3-8.7,33.2c-14.6,44-42.4,68.4-98.9,86.7
		c-16.7,5.4-39.7,11.3-63.8,16.3c-18,3.7-65.3,11.8-69,11.8c-1.3,0-2.1,0.5-2.1,1.4c0,1.8,1.9,1.7,29.8-0.5
		c75.3-5.9,141.1-15.5,168.5-24.4c34.3-11.2,50.9-33.8,56.9-77.5c0.7-5.6,2.2-19.7,3.1-31.3c1-11.6,2.4-23.4,3.2-26.1
		c9.2-30.8,47.3-49.2,111.9-54.1c20.1-1.5,36.4,0.3,66.5,7.2c51.3,11.8,143.3,45.8,203.1,75.2c109.6,53.9,183.2,126.4,231.5,228
		c13.1,27.4,28.2,64.8,35.7,88.4c9.4,29.3,15.4,53.2,26.6,107.6c7.1,34.6,6.5,32,16.6,64.8c19.8,63.8,24,84.4,27.5,132.3
		c1.6,22.2,2.2,79.7,1,103.5c-4.8,98.3-19.8,161.3-50.9,212.3c-18.3,30.1-36.7,47.3-73.9,69.6c-27.8,16.7-35.6,20.2-70.6,32.2
		c-30.4,10.3-41.7,15-63.6,26.3c-34.3,17.6-58.1,25.6-112.3,38.5c-29.3,6.9-51.2,15.4-63.4,24.3c-8.5,6.3-16.4,16.6-12.6,16.6
		c0.5,0,3.5-2.3,6.6-5.2c6.5-6,12.9-10.3,22-14.9c13.9-7,27.1-10.9,59.5-17.7c27.9-5.9,39.2-8.9,51.6-13.9
		c5.6-2.3,29.4-11.8,52.9-21.1c56.3-22.1,71.6-28.7,99-42.4c31.1-15.5,50.4-27.2,72.1-43.7c11-8.3,22.1-20.9,33.9-38.6
		c30.5-45.7,48.3-100.2,56.5-172.8c1.3-11.2,1.6-25.4,1.9-81.4c0.4-68.8-0.2-95.7-3-122.4c-3.2-32.2-8.4-58-16.5-82.7
		c-1.9-5.8-5.8-20.6-8.6-32.9c-25.5-111.5-50.2-187.5-82.4-252.9c-20.8-42.2-40.2-69.9-72-102.5c-27.8-28.5-59.8-53.9-98.1-77.7
		c-40.9-25.6-98.8-53.8-150.8-73.6c-56.4-21.6-93.2-33.7-126.4-41.5c-12.6-3-13.8-3.2-34.6-3.4
		C1555.2,876.2,1539.2,876.4,1531.4,876.9z"/>
	<path class="st7" d="M2185.9,1416c-1.8-36.1-5.7-64.3-13.1-96c-18.4-77.8-63.4-170.5-112.3-230.9c-55-68-121.5-114-242.2-167.6
		c-77.6-34.4-150.3-58.9-243.7-82c-19.7-4.9-21.6-5.1-24.3-4.1c-7.1,2.9-29.3,2.3-62.6-1.8c-37.5-4.6-74.1-3.5-95.6,2.7
		c-19.6,5.7-23.7,8.6-63.8,47.8c-49.4,48.2-60,57.8-77,69.8c-25.6,18.2-59.4,34.8-94.1,46.6c-17.9,6-24.1,6.9-50.4,6.7v82.5
		c13.9,0,27.6-0.5,36.5-1.7c63.5-8.5,119.8-26.9,158-52c11.9-7.7,19.9-14.7,28.3-24.2c11.9-13.5,17.1-22,38.7-63
		c18.7-35.5,33-52.4,53.8-63.4c24.8-13.1,74.4-20.3,117.3-16.6c36.7,3,80.5,13,126.8,28.8c176.3,60.3,287.9,131.1,353,224.1
		c32.2,46,63.4,119.2,88.8,208.5c6.3,22.2,17.9,68.1,24.4,97c2.8,12.3,6.9,28.1,9.1,34.9c9.9,30.6,15.6,63.1,18.4,105.5
		c1.5,22.7,2.3,130.9,1,152.1c-5.7,97.5-32,173.6-78.4,226.6c-13.7,15.6-49.7,39.1-90.5,59.1c-24.7,12.1-43.6,20.1-92.7,39.4
		c-21.3,8.4-45.2,17.9-53.1,21.1c-15.4,6.3-26.7,9.5-51.8,14.7c-40.8,8.5-58.5,14.4-74,24.8c-6.6,4.5-16,13.2-16,14.9s3.1,1.6,4.5,0
		c2.2-2.7,18.5-12.6,28.6-17.4c14.9-7.1,33.9-13.1,54.7-17.3c29.1-5.8,42.8-9.7,74.6-21.7c66.8-25.1,141.4-57.3,165.8-71.6
		c37.2-21.8,62.7-45.7,82.6-77.3c5.8-9.4,24-45.6,28.8-57.6c14.9-37.3,23-95.7,27-195.3c1-23.8,2.3-42.9,5.3-72.4
		C2185.3,1500.5,2187.8,1454.6,2185.9,1416z"/>
	<path id="structure136_label150_GrDG" bar:growlevel="0" bar:type="" class="st8" d="M1579.4,2006c-3.4,2.3-5.9,8.2-5.9,14.3
		c0,5.8,1.5,9.6,9.4,23c4.2,7.3,7.4,9.1,14.9,8.7c4.5-0.3,5.3-0.5,6.5-2.7c2.2-3.8,0.5-6.8-5.3-10.3c-5.9-3.5-10.2-8.2-12.2-13.6
		c-1.5-3.9-1.5-4.1,0.4-8c2.2-4.4,2.6-10.2,0.9-11.9C1586.5,2004.1,1581.9,2004.3,1579.4,2006z"/>
	<path id="structure137_label151_PoDG" bar:growlevel="0" bar:type="" class="st9" d="M1589.4,1992.5c-7.4,4-7.5,4.1-7.5,7.6
		c0,3,0.3,3.5,1.8,3.5c2.5,0,6.3,4,6.3,6.5c0,1.2-0.8,3.6-1.8,5.5c-2.5,4.6-2.3,8.4,1,13.9c1.9,3.3,4,5.6,6.8,7.2
		c2.3,1.3,5.3,3.5,6.8,4.9c1.4,1.4,3.2,2.5,3.8,2.5c1.1,0,10.4-16.1,10.4-18c0-0.5-1-0.9-2.3-0.9c-3.8,0-4.5-2.7-4.5-17.8
		c0-7.5-0.3-13.7-0.6-13.7c-0.4,0-2,0.8-3.6,1.8c-5.4,3.2-7.4,2-6.4-4C1600.4,1987.2,1598.8,1987.4,1589.4,1992.5z"/>
	<path id="structure138_label152_SNCD" bar:growlevel="0" bar:type="" class="st10" d="M1538.6,1806c-10.7,4.4-18.9,10.2-44.4,31.1
		c-32.6,26.8-35.6,28.8-68.5,45.3c-42.4,21.3-59,34.2-75.2,58.7c-7.1,10.7-15.1,27.4-19,39.6c-5.4,16.9-5.3,22.1,0.4,16.1
		c1.2-1.3,4.5-4.1,7.4-6.3c2.9-2.2,7.1-6.5,9.4-9.5c5.1-7,24.8-26.5,36.7-36.6c11.1-9.3,15.7-12.2,40.1-26.2
		c31.4-18,40-23.9,56.3-39.3c15.7-14.8,30-29.8,41.8-43.9c4.1-5,11.8-13.5,16.8-19c5.1-5.6,9.3-10.5,9.3-11.1
		C1549.6,1803.2,1544,1803.8,1538.6,1806z"/>
	<path id="structure139_label153_LMol" bar:growlevel="0" bar:type="" class="st11" d="M2042.4,1694.3c-2.7,18.9-3.9,24.2-6.8,33.2
		c-7,21.1-21.5,45.5-40.1,67.4c-8.1,9.5-25.6,26.8-35,34.7c-16.1,13.3-37.4,25.3-52.4,29.4c-4.1,1.2-7.5,2.5-7.5,3.1
		c0,0.5,1.7,1.9,3.9,3.2c3.5,2,4.7,2.2,15.9,2.2c12.9,0,19.1-1.2,29.7-5.5c19.9-8.1,59.1-39.7,72.5-58.4c8.4-11.8,18-36.7,22.5-58.6
		c2.1-9.8,2.4-14,2.5-26.9c0.1-10.1-0.4-17.2-1.2-21C2045.1,1690.8,2043.1,1689.5,2042.4,1694.3z"/>
	<path id="structure13_label10_InC" bar:growlevel="0" bar:type="" class="st12" d="M1194.6,1616.4c-0.3,0.9-1.2,5.8-2,11.1
		c-3,19.6-6.2,30.3-12.2,40.7c-6.6,11.3-12.5,29.3-12.5,38v3.5l6.8-0.6c3.8-0.4,10.3-1.6,14.7-2.9c18-5.2,28.1-12.8,35.7-26.7
		c6.6-12.2,8.8-19.4,8.9-29c0.1-7.1-0.2-8.7-2.4-13.1c-4.2-8.7-12.7-15.1-26.1-19.8C1196.8,1614.4,1195.2,1614.3,1194.6,1616.4z"/>
	<path id="structure140_label154_IGL" bar:growlevel="0" bar:type="" class="st13" d="M1820.7,1464.5c-9.5,13.1-40.8,34.5-60.6,41.4
		c-4.8,1.7-4.9,1.9-4.7,4.8c1.9,24.5,0.9,37.8-4.3,58.9c-6.8,27.4-19.6,55.9-29.6,65.4c-5.4,5.1-2.9,6.5,5,2.9
		c23.7-11.1,37.8-33.7,52.3-83.4c3-10.1,6.3-20.6,7.4-23.3c6-15.4,25.5-47.2,35.5-58.2c4.6-5,5-5.8,5-9.6
		C1826.8,1457.7,1825.4,1458,1820.7,1464.5z"/>
	<path id="structure141_label155_MA3" bar:growlevel="0" bar:type="" class="st14" d="M1146.5,1694.1c-5.7,4.5-11,11.9-18.9,26.4
		c-13.9,25.5-21,50.9-19.4,69.8l0.5,6.2l3.2,0.6c7.9,1.4,16.6,7.3,20.4,14c2.5,4.1,3.7,3.3,4.4-3c1.5-13.3,5.7-24.3,14.2-37.8
		c9.7-15.3,14-31.3,15.5-57.3l0.6-10.3l-7.2-6.1c-4-3.3-7.6-6-8.1-6C1151.4,1690.5,1149,1692.1,1146.5,1694.1z"/>
	<path id="structure142_label156_InCSh" bar:growlevel="0" bar:type="" class="st15" d="M1197.7,1604.7c-3,7.9-2.5,9,5.2,11.6
		c15.1,5,24.1,11.7,29,21.3c2.3,4.4,2.7,6.5,2.7,11.6c0,8.8-1.3,13.1-7.4,25.9c-4.5,9.3-6.4,12.2-11,16.7
		c-9.2,9-24.1,15.5-40.5,17.5c-4.4,0.5-8.1,1.1-8.2,1.2c-0.1,0.2-0.5,3.3-0.7,7.1l-0.4,6.8l7.3,1.7c14,3.1,25,1.6,36.6-4.9
		c6.5-3.6,22.1-14,24.4-16.3c0.8-0.8,3.4-3.2,5.8-5.5c14-13.2,19-28,16.7-50.6c-1.3-11.7-3.8-18.4-9.8-25.1
		c-7-7.9-22.6-17.2-36.5-21.9C1200.4,1598.5,1200,1598.6,1197.7,1604.7z"/>
	<path id="structure147_label163_MT" bar:growlevel="0" bar:type="" class="st16" d="M1338.8,1991.2c-15.4,11.5-30.6,39.1-33.6,60.7
		l-0.5,4.5l6.3,5.9c7.6,7.2,14.8,12.2,25.2,17.6c7.3,3.7,12.7,4.9,12.7,2.9c0-0.5-1-2.6-2.2-4.7c-4.2-7.2-5.4-14.1-5.4-30.8
		c-0.1-15.8,1.5-31,5-46.8c2.2-10.3,2.3-14,0.2-14C1345.5,1986.6,1342.1,1988.6,1338.8,1991.2z"/>
	<path id="structure148_label164_MZMG" bar:growlevel="0" bar:type="" class="st17" d="M1683.7,1437.7c0,0.7,4.6,4.7,10.1,8.9
		c12.9,9.7,28.1,24.3,35.5,34.2c7,9.3,14,23.1,16.6,32.8c2.4,9.3,3.3,30.8,1.7,43.4c-4.2,33.8-19.4,63-37.8,72.6
		c-8.7,4.6-15.8,5.9-32.5,5.9c-16.3,0-26-1.4-37.2-5.5c-8.3-3-19-9.9-22.1-14.3c-1.1-1.4-2.5-2.7-3.2-2.7c-1.7,0-1.6,2.8,0.3,8.7
		c1.3,4.4,2.1,5.1,7.4,8.6c14.9,9.4,34.5,15.8,52.7,17.4c13.9,1.2,32.6-2.8,41.6-8.8c16.9-11.3,35.3-57.8,39.1-99.3
		c2.3-24.4-2.3-39.5-18.1-60.7c-6.2-8.4-24-26.7-34.1-35.4l-7.7-6.5l-6.1-0.3C1685,1436.6,1683.7,1436.8,1683.7,1437.7z"/>
	<path id="structure149_label165_SLu" bar:growlevel="0" bar:type="" class="st18" d="M1800.7,1213.9c0,0.8,4.1,8.8,9.1,17.8
		c8.5,15.4,13.4,23,34.6,54.1c28.4,41.4,49.2,86.1,56.4,120.7c2.3,10.8,7.5,50.7,10.1,76.9c5.9,61.6,2.9,103.7-10.4,144.3
		c-5.7,17.2-23.5,50.2-42.8,78.9c-15.7,23.4-28.6,39.9-56.3,71.4c-7.7,8.7-24.5,28.8-37.3,44.5c-28.9,35.3-45.4,54.2-67.3,76.8
		c-21,21.7-60.7,66.2-60.7,68c0,4.7,5.7-0.5,65.7-59.1c35.9-35.1,64.7-65.2,79.7-83.2c5.8-6.9,21.2-26.4,34.5-43.2
		c13.2-16.8,30-37.5,37.2-45.9c21.3-24.8,29.6-37.1,40.6-59.4c17.9-36.7,29.4-75.4,34.2-115.2c1.8-15,1.5-63.8-0.5-81.4
		c-9.2-81.5-19-116.6-45.9-164.7c-15.5-27.6-38.6-65.1-47-76.1c-5-6.6-14.6-15.1-24.8-22.3
		C1803.4,1212.4,1800.7,1211.6,1800.7,1213.9z"/>
	<path class="st19" d="M1484.5,1629.7c-24.5,12-57.8,14.6-75.3,5.9c-27.1-13.6-41.7-53.7-41.8-114.8c0-37.7,4.8-67.4,18.3-114.3
		c11.4-39.9,20.1-64.6,31.1-90c3.7-8.5,6.8-15.9,6.8-16.6c0-0.8-0.7-1-2-0.7c-12.8,3-15.8,3.3-27.9,3.3c-20.7,0-45.3-3.9-62.5-10
		c-8.9-3.1-9.9-3.2-10.6-0.5c-1.8,7.2-14.5,21.5-25.9,29.3c-17.5,11.8-36.2,18.2-53.2,18.2c-9.6,0-17-1.7-27.6-6.2
		c-20.4-8.7-42.1-28.4-46.1-41.8c-0.5-1.9-1.5-3.7-2.2-4c-0.6-0.3-4.1,1.5-7.7,3.9c-8.2,5.3-18.5,10.5-25,12.6
		c-4,1.3-15.3,2-26.1,2.1v66.8c25.6-0.2,50.2,0,57.1,0.8c19.2,2,36.2,6.8,58,16.6c21.5,9.6,48.6,26.2,54.7,33.4
		c7.9,9.4,14.7,24,16.8,36.6c1,5.8,1.2,6.2,5.2,8.8c14.9,9.9,22.1,40,13.6,57.3c-3.2,6.7-10.3,12.8-20.5,17.8
		c-10.6,5.3-20.3,7.6-30.8,7.7c-12.2,0-19.2-2.3-27.4-9.2c-2.3-1.9-4.6-3.5-5.1-3.5c-0.5,0-1.2,1.9-1.4,4.2
		c-1.7,12.3-6.3,27.2-10.8,34.9c-1.4,2.3-5.2,7.1-8.6,10.9c-3.4,3.8-6.2,7.6-6.2,8.5c0,1.3,1.5,2.1,6.6,3.6
		c14.4,4.3,31.2,14.1,38.8,22.6c8,8.9,10.4,16.9,10.4,34.6c0,15.2-3.3,25-12.1,35.6c-6.6,7.9-6,8.3,7.6,5.3
		c11-2.3,32.7-3.2,43.7-1.8c20,2.7,41.1,9,47.2,14.1c9.7,8.4,7.9,27.1-5.1,52.7c-14.6,28.6-33.4,47.9-54.5,55.4
		c-10.9,4-18,5-30.2,4.4c-17.2-0.8-28.9-5.9-40.7-17.6c-11.3-11.4-18.8-26.8-18.8-39c0-7.1,3.6-17.9,9.1-27
		c4.1-7.1,12.7-19.1,14.2-20.1c1.3-0.8,1.3-3.1-0.1-3.1c-0.6,0-4.1,1.6-7.9,3.5c-12.4,6.5-21.6,7.8-34.2,5c-9.1-2-8.5-2.5-10.3,7.8
		c-2.7,15.5-6.9,26.2-15.8,40.1l-3.1,4.7l1.5,13.3c2.8,25.6,3.5,38.7,3.6,61.9c0.1,20.8-0.1,23.8-1.5,26.3c-1.4,2.5-2.1,3-4.7,3
		h-3.1v6.5c-0.1,3.6-0.6,9.8-1.4,13.8c-4.4,24.1-5.9,34.2-6,43.7l-0.2,10.5l3.2,5.3c1.9,3,5.8,7.4,9,10.1
		c11.8,9.8,20.9,18.6,24,23.3c4.2,6.5,5.3,6.2,5.2-1.2c-0.1-5.4,0.1-6.1,2.4-8.1c6.2-5.4,21.5-0.7,72.5,22
		c10.1,4.5,18.9,8.2,19.6,8.2c1.7,0,1.4-2.4-0.5-5.2c-5.1-7.4-10.1-21.3-12.2-34.7c-1.7-10.7-1.7-31.6,0-43.7
		c4.1-28.3,13-44,29.3-52.3c4-1.9,8.6-3.8,10.3-4.1c1.8-0.3,3.2-1.1,3.2-1.8c0-0.7,0.6-1.3,1.4-1.3c1.1,0,1.3-0.5,0.9-2.1
		c-1.5-4.9-1.5-7.9-0.2-13.1c1.6-6.3,6.2-15.9,11.7-24.5c11.5-17.7,45.9-53.1,71.2-73c7.7-6.1,21.4-15.4,25.7-17.5
		c2.8-1.3,3.3-2.1,4.2-6.7c2.9-13.7,12.7-28.3,43.4-64c24.8-28.9,37.8-45.2,37.8-47.3C1496.5,1624.1,1495.4,1624.4,1484.5,1629.7z
		 M1208,1902.4c-5,18.4-17.8,32.3-30.8,33.5c-4.7,0.4-5.7,0.1-9.4-2.3c-8-5.1-12.8-19.3-12.8-38c0-12.1,1.9-21.2,7.5-35.4
		c6.1-15.8,13.8-27.1,20.3-30c3.5-1.5,3.8-1.5,8.1,0.5c4,1.8,7.9,5.9,10.2,10.6c0.9,1.9,2.1,3,3.2,3c1.3,0,1.5,0.3,0.7,0.8
		c-0.9,0.5-0.7,2.3,1.1,8.3C1210.6,1869,1211.4,1889.8,1208,1902.4z"/>
	<path id="structure150_label166_IMA" bar:growlevel="0" bar:type="" class="st20" d="M1686.9,1259c-5.3,6.8-12.4,20.6-15.8,30.9
		c-12.1,36.4-9.7,84,7,133.7l4.2,12.6l6.1,0.3c3.3,0.2,6-0.1,6-0.5c0-0.4-2-6.8-4.4-14.2c-10.7-32.4-15.2-59.5-14.2-85.3
		c1-27.8,7.6-49.9,20.9-70.4c3.2-4.9,5.8-9.4,5.8-9.9c0-0.9-5.8-2.2-10-2.2C1691.6,1254,1689.1,1256.1,1686.9,1259z"/>
	<path id="structure151_label168_PLi" bar:growlevel="0" bar:type="" class="st21" d="M1490.2,1260.5c0,0.6,2.1,2.3,4.6,3.9
		c6.2,3.6,14.3,12.5,19.3,21c10.7,18.3,16.6,42.8,18.5,78c0.5,9.4,2,27,3.2,39.1c2.8,27,3.9,64.4,2.3,81.6
		c-4.2,44.8-18.1,86.5-40.1,120c-8.3,12.6-20.6,23.9-31.3,28.9c-2.9,1.3-3.3,3.5-0.9,3.5c2.4,0,13.4-3.9,19.1-6.8
		c12.9-6.5,20-13.1,29.4-27.4c20-30.1,28.6-53.1,34.6-91.8c1.7-11.1,2.1-16.9,2.1-38.7c0.1-25,0-26.4-3.7-55.3
		c-2.1-16.4-4.2-35.2-4.8-41.9c-3.7-46.1-11.7-79-25.1-103c-3-5.5-5.5-10.4-5.5-11.1c0-0.8-2.8-1.1-10.8-1.1
		C1492.9,1259.4,1490.2,1259.6,1490.2,1260.5z"/>
	<path class="st22" d="M1113.9,1444.3c-3.4,2.8-5,2.2-5.7-2.3c-0.3-1.8-0.9-2.9-1.4-3.4v166.1c0.6-0.3,1.2-0.8,1.4-1.3
		c0.4-0.8,0.9-29.9,1.2-64.5l0.6-63l2.8-5.9c3.8-7.6,5.7-15.2,5.7-22.2C1118.5,1441.4,1117.8,1440.9,1113.9,1444.3z"/>
	<path id="structure153_label171_Py" bar:growlevel="0" bar:type="" class="st23" d="M1554.5,925.2c-45.8,2.3-75.1,14.2-85,34.7
		c-5.5,11.6-5.7,13.2-6.4,60.6c-0.6,40.2-0.8,43.8-2.7,51.8c-3.2,13.7-3.2,13.7-1.3,13.3c2.5-0.5,9.1-13.8,11.5-23.4
		c3.3-13,4.2-26.3,4-57.4c-0.1-24.6,0-28.9,1.4-32.4c6.3-16.7,21.6-26.8,49.1-32.4c13.9-2.8,24.3-3.7,48.1-4.2
		c35.4-0.7,45.1,1.1,85.9,16c40.2,14.8,62.4,24.5,112.1,49.2c48,23.9,84.5,43.8,105.8,58.1c34.7,23.1,62.1,52,104,109.5
		c19.6,26.9,29,43.2,34.7,60.2c3.8,11.2,5.8,22.1,8.1,43.3c4.1,38.7,20.3,138.5,29.8,184.5c6.5,31.1,14.4,58.7,42.5,147.6
		c19.5,61.6,20,64.1,19.3,95c-0.5,22.5-2.3,36.9-10.1,82.9c-9.4,55.2-14.4,73.9-26.2,96.7c-13.4,25.8-35.7,48.6-70.3,71.6
		c-34,22.8-79.4,39.4-198,72.9c-8.6,2.4-15.6,4.9-15.6,5.3c0,0.5,5,1.7,11.3,2.6l11.3,1.7l15-3.9c81.3-20.6,142-44.3,182.4-70.9
		c24-15.8,55.8-46,69-65.6c15.8-23.2,27.3-58.6,34.5-105.6c5.2-34.3,9.9-87.5,9.2-104.4c-1.1-26.9-5.9-50.7-21.2-104.2
		c-16.6-58.1-42.6-165.2-51.7-212.6c-2.3-11.6-6.9-36.4-10.5-54.9c-3.6-18.5-6.5-34.7-6.4-36c0-1.3-0.3-2.4-0.6-2.7
		c-0.4-0.3-2.2-7.4-4.1-15.8c-7.2-32.3-11.9-45.4-22.4-62.9c-21.5-35.9-71.5-96.4-99.3-120.2c-21.9-18.8-56.2-40.4-109.7-69.3
		c-38.6-20.8-70.2-35.3-111.6-51.1c-57.3-22-69.8-25.1-106.6-27.2C1568.5,924.7,1566.1,924.6,1554.5,925.2z"/>
	<path id="structure154_label172_CA1" bar:growlevel="0" bar:type="" class="st24" d="M1162.6,1113.8c0.1,2.1,17.6,13.1,33.4,21
		c9.8,4.9,39.9,16.8,49.8,19.8c8.9,2.5,22.9,4.6,36.7,5.4l9.6,0.5l0.6-2.3c0.8-3.1,0.1-3.6-6.4-4.9c-8.8-1.6-28.3-7.8-46.3-14.7
		C1180.5,1116,1162.6,1110.2,1162.6,1113.8z"/>
	<path id="structure156_label175_PCom" bar:growlevel="0" bar:type="" class="st25" d="M1132.9,1373.9c0,0.7,3.1,1.6,8.4,2.6
		c28.9,5.3,63.6,20.6,72.1,31.7c4.9,6.5,5.9,9.8,11.3,37.7c2.8,14.2,7.2,27.4,9.6,28.3c0.6,0.3,3-1,5-2.6
		c13.6-10.9,26.7-13.9,42.7-9.6c12.1,3.2,11.2,3.2,11.2-0.4c0-7.9-8.3-27.6-15.3-36.4c-4.9-6.1-22.2-17.7-40.9-27.3
		c-31-15.9-50.9-22-78.3-24.2C1142.3,1372.4,1132.9,1372.5,1132.9,1373.9z"/>
	<path class="st26" d="M1117.4,1432.4c-0.2-4.6-0.6-8.6-1.1-9c-0.4-0.5-5.1-0.8-9.5-0.9v12.4c1.1,0.2,2.7,4.4,2.7,7.2
		c0,3.2,0.8,3.3,5,0.6l3.1-2L1117.4,1432.4z"/>
	<path id="structure158_label177_GrDG" bar:growlevel="0" bar:type="" class="st8" d="M1640,1088.3c-6.9,1.7-17.6,6.9-45,21.8
		c-18,9.7-32.2,15.9-53.8,23.4c-12.5,4.3-16.7,7-19.5,12.6c-3.6,6.9-1.4,14.3,5.4,18.3c4.1,2.4,13.1,2.5,27,0.1
		c14.7-2.5,53.5-2.6,64.8-0.2c15,3.2,33.7,10.6,52.7,21.1c13.3,7.2,22.9,14,37.3,26.4c14.6,12.5,16,13.5,19,13.5
		c2.4,0,2.5-0.2,2.5-4.1c0-5.2-2.5-10.3-8.3-16.3c-10.5-11.2-57.5-38.8-78.5-46.2c-12.7-4.5-47.9-8.2-77.9-8.2
		c-18.2,0-18.6-1.4-3.2-8.6c12.3-5.8,59.5-25.5,70.9-29.6c4.6-1.7,11.4-3.5,15.1-4.1c9.9-1.6,13.3-0.4,19.9,6.7
		c5.1,5.5,11.3,9.6,17.3,11.5c1.6,0.5,11.6,1.3,22.2,1.6c20.3,0.8,26.4,1.6,36,4.7c12.8,4.1,35.8,17.6,55.6,32.5
		c17.3,13.1,23.8,20.4,35.6,40.1c4,6.5,7.9,11.7,12.4,16c8.2,8.1,14.7,13,17.1,13c1.7,0,1.8-0.4,1.3-4.3c-1-8.7-7.8-24.6-15.3-35.7
		c-14.4-21.5-79.6-68.5-107.7-77.7c-9.8-3.2-17.1-3.9-30.8-2.7c-9.8,0.8-13,0.8-16.5-0.2c-5-1.4-11.6-7-17.2-14.9
		c-4.9-6.9-8.4-9.9-12.8-11.2C1660.8,1086.1,1647.1,1086.5,1640,1088.3z"/>
	<path id="structure159_label178_IG" bar:growlevel="0" bar:type="" class="st27" d="M1108.3,973.8c-0.4,0.3-0.6,7.8-0.6,16.6v16
		h12.3c6.8,0,14.8-0.5,18-1c6.6-1.2,6.7-1.4,3.9-9.3c-4.2-12.2-10.1-19.3-18.4-21.7C1118.9,973.2,1109.4,972.7,1108.3,973.8z"/>
	<path id="structure15_label12_MCPC" bar:growlevel="0" bar:type="" class="st28" d="M1258.9,1461.4c-6,1.7-15.7,6.8-20.2,10.6
		c-3,2.5-3.8,4.1-6.4,12.9c-1.6,5.5-4,12.3-5.4,15.2c-2.7,6-2.8,6.9-1,15.3c0.7,3.5,1.4,9.5,1.4,13.5c0.1,6.8,0.3,7.4,3,10.5
		c13,14.9,38.3,16.4,62.8,3.8c10.5-5.4,15.4-9.8,19-17.3c2.9-5.8,3-6.3,3-17.3c-0.1-9.9-0.4-12.1-2.5-18.4c-1.3-3.9-3.5-8.8-4.8-11
		c-2.7-4.6-8.8-10.4-13.6-12.8C1283.8,1461.2,1267.9,1458.9,1258.9,1461.4z"/>
	<path id="structure160_label179_FC" bar:growlevel="0" bar:type="" class="st29" d="M1149.1,1118.7c0,9.8,0.5,12.9,2.3,12.9
		c1.5,0,2.3-3,2.2-9c0-7.7-1.1-12.1-2.9-12.4C1149.2,1109.9,1149.1,1110.8,1149.1,1118.7z"/>
	<path class="st30" d="M1531.2,869.5c-41-2.5-88.2,5-111,17.8c-14.8,8.2-28,22-40,41.4c-2.1,3.4-9.3,16.6-15.9,29.2
		c-22.9,43.4-30.4,53.7-51.8,70.3c-45.4,35.2-134.8,62.4-205.8,62.4v18.8h25.7l24.8-3.8c48.9-7.5,74.3-12,99.9-17.7
		c90.7-20.4,128-45.6,145.3-98.6c1.7-5.1,5.3-19,8-31c5.9-25.2,9.5-36.8,14.2-46.3c3.9-7.8,10.6-15.6,16.8-19.5
		c14.4-9.1,63.8-16.3,112.5-16.4c13.7,0,17.3-0.3,17.3-1.2C1571.2,873.2,1553.6,870.9,1531.2,869.5z"/>
	<path id="structure162_label181_MGM" bar:growlevel="0" bar:type="" class="st31" d="M1605.4,1448c-11.3,12.7-21.7,42.1-25.3,71.5
		c-1.3,11.6-1.2,35.7,0.5,46.3c1.8,11.1,5.7,23.3,9.9,31.1c6.2,11.3,19,26.1,22.7,26.1c1.4,0,1.5,0.5-2.4-14.8
		c-5.4-21.2-8.2-45.3-8.2-71.1c0-26.3,3-58.1,7.6-81.2c1.3-6,2.3-11.4,2.3-12C1612.6,1441.6,1609.7,1443.3,1605.4,1448z"/>
	<path id="structure16_label13_Lth" bar:growlevel="0" bar:type="" class="st32" d="M1175.8,1488.3c-17.7,7.3-34.2,30.8-39,55.3
		c-1.6,8.6-1.6,14.7,0.1,21.3c3,11.6,10.6,17.6,22.6,17.6c16.4,0,36.5-13.7,44.5-30.2c4.6-9.4,5.8-16.6,5.1-31.9
		c-0.6-17.6-4.1-27.3-11.3-32.2C1193.4,1485.3,1183.1,1485.4,1175.8,1488.3z"/>
	<path id="structure176_label198_bsc" bar:growlevel="0" bar:type="" class="st33" d="M1437.5,1186.2c-24.5,2.9-80.5,12.3-92.7,15.6
		c-14.1,3.8-50.8,12.4-79.5,18.8c-13.5,3.1-26.2,6.3-28.3,7.4c-10.2,5.2-16.2,10.7-11.7,10.7c2,0,70.7-11.1,117.6-18.9
		c74.5-12.5,108.7-15.8,145.7-14.3c39.9,1.7,68.4,5.8,108.1,15.8c25.1,6.2,30.7,8.2,42,14.5c20.6,11.4,33.1,15.7,53.1,17.8
		c21.4,2.3,32.7,5.1,46.2,11.8c24.4,11.9,42.8,33,61.7,70.7c17.2,34.2,21.3,54.5,27.8,133.9c4.8,60,4.7,83.5-0.5,109.8
		c-3.9,19.3-15,50.4-25.3,70.5c-4.6,8.9-7.4,13.1-19.5,28.9c-7.5,9.7-7.5,14,0.1,14c3.2,0,4.8-0.6,7.7-3c2.1-1.7,5.7-4.1,7.9-5.4
		c7.8-4.5,15.5-14.7,24.7-32.9c5.7-11.3,12.1-27.5,15.5-38.4c6.2-20.6,7.8-48,5.3-87.8c-0.8-12.6-1.9-30.4-2.3-39.6
		c-2.9-51.8-6.9-82-15.8-116.6c-9.1-35.8-14.4-49-23.9-59.1c-2.9-3.2-8.6-10.3-12.7-16c-14.3-20.2-22.4-30.4-27.7-35.5
		c-10.2-9.4-23.1-13.9-51.4-17.9c-22.8-3.3-31.7-6.9-54.8-22.1c-14.1-9.4-25.1-13.4-50.6-18.6c-11.5-2.4-13.1-2.5-42.8-2.7
		c-42.3-0.3-57.4-1.6-79.3-7.1C1464.7,1186.1,1449.9,1184.7,1437.5,1186.2z"/>
	<path id="structure179_label201_opt" bar:growlevel="0" bar:type="" class="st34" d="M1437.5,1186.2c-24.5,2.9-80.5,12.3-92.7,15.6
		c-14.1,3.8-50.8,12.4-79.5,18.8c-13.5,3.1-26.2,6.3-28.3,7.4c-10.2,5.2-16.2,10.7-11.7,10.7c2,0,70.7-11.1,117.6-18.9
		c74.5-12.5,108.7-15.8,145.7-14.3c39.9,1.7,68.4,5.8,108.1,15.8c25.1,6.2,30.7,8.2,42,14.5c20.6,11.4,33.1,15.7,53.1,17.8
		c21.4,2.3,32.7,5.1,46.2,11.8c24.4,11.9,42.8,33,61.7,70.7c17.2,34.2,21.3,54.5,27.8,133.9c4.8,60,4.7,83.5-0.5,109.8
		c-3.9,19.3-15,50.4-25.3,70.5c-4.6,8.9-7.4,13.1-19.5,28.9c-7.5,9.7-7.5,14,0.1,14c3.2,0,4.8-0.6,7.7-3c2.1-1.7,5.7-4.1,7.9-5.4
		c7.8-4.5,15.5-14.7,24.7-32.9c5.7-11.3,12.1-27.5,15.5-38.4c6.2-20.6,7.8-48,5.3-87.8c-0.8-12.6-1.9-30.4-2.3-39.6
		c-2.9-51.8-6.9-82-15.8-116.6c-9.1-35.8-14.4-49-23.9-59.1c-2.9-3.2-8.6-10.3-12.7-16c-14.3-20.2-22.4-30.4-27.7-35.5
		c-10.2-9.4-23.1-13.9-51.4-17.9c-22.8-3.3-31.7-6.9-54.8-22.1c-14.1-9.4-25.1-13.4-50.6-18.6c-11.5-2.4-13.1-2.5-42.8-2.7
		c-42.3-0.3-57.4-1.6-79.3-7.1C1464.7,1186.1,1449.9,1184.7,1437.5,1186.2z"/>
	<path id="structure17_label14_PBP" bar:growlevel="0" bar:type="" class="st35" d="M1456,1857.5c-11.2,3.1-31.2,7.2-43.7,8.9
		c-5.9,0.8-19.9,3-31.1,4.9c-11.2,1.9-24.9,4.2-30.6,5c-13,2-38.2,2.3-41.2,0.5c-3.2-1.9-13.6,0.1-21.8,4.1
		c-14.2,6.9-22.9,19.4-27.4,39.9c-7,31.9-4.8,62.6,6.3,85.1c4,8.3,9,13.9,16.9,19.3c11.4,7.7,17.4,15.8,18.3,24.9
		c0.7,6.4,2.5,6.4,3.3,0.1c1.4-11.1,9.2-29.9,17-41.2c2.8-4.1,4.1-7.2,4.6-10.3c3.2-22,17.8-52.7,34.7-72.2
		c13.5-15.7,31-27.7,65.9-45.1C1468.4,1860.8,1480.5,1850.7,1456,1857.5z"/>
	<path id="structure180_label202_VG-1" bar:growlevel="0" bar:type="" class="st36" d="M1819.1,1476.3l-5.2,6.3l1.6,9.3
		c2.1,12,2.8,43.7,1.4,60.5c-2.2,26.5-4.4,34.1-18.6,62.5c-13.1,26.1-28.6,52.7-38.6,65.9c-2.3,2.9-4.1,5.8-4.1,6.5
		c0,1.2,7.7,2.3,16.3,2.3c3.9,0,4.1-0.2,5.6-3.4c0.8-1.8,4.7-7.3,8.6-12.2c12.2-15.2,19.3-28.9,29.2-55.4c11.3-31,14.3-45.9,14.8-77
		c0.4-20-1.5-66.2-2.9-70.5C1826.4,1468.7,1824.1,1470.2,1819.1,1476.3z"/>
	<path class="st37" d="M1484.5,1629.7c-24.5,12-57.8,14.6-75.3,5.9c-27.1-13.6-41.7-53.7-41.8-114.8c0-37.7,4.8-67.4,18.3-114.3
		c11.4-39.9,20.1-64.6,31.1-90c3.7-8.5,6.8-15.9,6.8-16.6c0-0.8-0.7-1-2-0.7c-12.8,3-15.8,3.3-27.9,3.3c-20.7,0-45.3-3.9-62.5-10
		c-8.9-3.1-9.9-3.2-10.6-0.5c-1.8,7.2-14.5,21.5-25.9,29.3c-17.5,11.8-36.2,18.2-53.2,18.2c-9.6,0-17-1.7-27.6-6.2
		c-20.4-8.7-42.1-28.4-46.1-41.8c-0.5-1.9-1.5-3.7-2.2-4c-0.6-0.3-4.1,1.5-7.7,3.9c-8.2,5.3-18.5,10.5-25,12.6
		c-4,1.3-15.3,2-26.1,2.1v66.8c25.6-0.2,50.2,0,57.1,0.8c19.2,2,36.2,6.8,58,16.6c21.5,9.6,48.6,26.2,54.7,33.4
		c7.9,9.4,14.7,24,16.8,36.6c1,5.8,1.2,6.2,5.2,8.8c14.9,9.9,22.1,40,13.6,57.3c-3.2,6.7-10.3,12.8-20.5,17.8
		c-10.6,5.3-20.3,7.6-30.8,7.7c-12.2,0-19.2-2.3-27.4-9.2c-2.3-1.9-4.6-3.5-5.1-3.5c-0.5,0-1.2,1.9-1.4,4.2
		c-1.7,12.3-6.3,27.2-10.8,34.9c-1.4,2.3-5.2,7.1-8.6,10.9c-3.4,3.8-6.2,7.6-6.2,8.5c0,1.3,1.5,2.1,6.6,3.6
		c14.4,4.3,31.2,14.1,38.8,22.6c8,8.9,10.4,16.9,10.4,34.6c0,15.2-3.3,25-12.1,35.6c-6.6,7.9-6,8.3,7.6,5.3
		c11-2.3,32.7-3.2,43.7-1.8c20,2.7,41.1,9,47.2,14.1c9.7,8.4,7.9,27.1-5.1,52.7c-14.6,28.6-33.4,47.9-54.5,55.4
		c-10.9,4-18,5-30.2,4.4c-17.2-0.8-28.9-5.9-40.7-17.6c-11.3-11.4-18.8-26.8-18.8-39c0-7.1,3.6-17.9,9.1-27
		c4.1-7.1,12.7-19.1,14.2-20.1c1.3-0.8,1.3-3.1-0.1-3.1c-0.6,0-4.1,1.6-7.9,3.5c-12.4,6.5-21.6,7.8-34.2,5c-9.1-2-8.5-2.5-10.3,7.8
		c-2.7,15.5-6.9,26.2-15.8,40.1l-3.1,4.7l1.5,13.3c2.8,25.6,3.5,38.7,3.6,61.9c0.1,20.8-0.1,23.8-1.5,26.3c-1.4,2.5-2.1,3-4.7,3
		h-3.1v6.5c-0.1,3.6-0.6,9.8-1.4,13.8c-4.4,24.1-5.9,34.2-6,43.7l-0.2,10.5l3.2,5.3c1.9,3,5.8,7.4,9,10.1
		c11.8,9.8,20.9,18.6,24,23.3c4.2,6.5,5.3,6.2,5.2-1.2c-0.1-5.4,0.1-6.1,2.4-8.1c6.2-5.4,21.5-0.7,72.5,22
		c10.1,4.5,18.9,8.2,19.6,8.2c1.7,0,1.4-2.4-0.5-5.2c-5.1-7.4-10.1-21.3-12.2-34.7c-1.7-10.7-1.7-31.6,0-43.7
		c4.1-28.3,13-44,29.3-52.3c4-1.9,8.6-3.8,10.3-4.1c1.8-0.3,3.2-1.1,3.2-1.8c0-0.7,0.6-1.3,1.4-1.3c1.1,0,1.3-0.5,0.9-2.1
		c-1.5-4.9-1.5-7.9-0.2-13.1c1.6-6.3,6.2-15.9,11.7-24.5c11.5-17.7,45.9-53.1,71.2-73c7.7-6.1,21.4-15.4,25.7-17.5
		c2.8-1.3,3.3-2.1,4.2-6.7c2.9-13.7,12.7-28.3,43.4-64c24.8-28.9,37.8-45.2,37.8-47.3C1496.5,1624.1,1495.4,1624.4,1484.5,1629.7z
		 M1208,1902.4c-5,18.4-17.8,32.3-30.8,33.5c-4.7,0.4-5.7,0.1-9.4-2.3c-8-5.1-12.8-19.3-12.8-38c0-12.1,1.9-21.2,7.5-35.4
		c6.1-15.8,13.8-27.1,20.3-30c3.5-1.5,3.8-1.5,8.1,0.5c4,1.8,7.9,5.9,10.2,10.6c0.9,1.9,2.1,3,3.2,3c1.3,0,1.5,0.3,0.7,0.8
		c-0.9,0.5-0.7,2.3,1.1,8.3C1210.6,1869,1211.4,1889.8,1208,1902.4z"/>
	<path id="structure183_label207_fr" bar:growlevel="0" bar:type="" class="st38" d="M1180.9,1831.7c-8.7,5.3-20.1,28.4-24.3,49.5
		c-3.1,15.7,0,39,6.3,47.2c4.6,5.9,7.1,7.4,13,7.3c13.9-0.2,27.8-15.4,32.1-35.1c2.2-9.6,1.4-33.7-1.3-44
		C1201.3,1835.8,1190.7,1825.7,1180.9,1831.7z"/>
	<path id="structure185_label210_scp" bar:growlevel="0" bar:type="" class="st39" d="M1266.2,1697.8c-9.4,0.8-25.5,4.4-31.1,7
		c-7.8,3.5-25.1,23.5-32.8,37.8c-10,18.7-10.4,29.1-2.1,46.4c8,16.6,22.2,28.5,39.8,33.4c8.6,2.4,26.7,2.2,36.4-0.5
		c26.2-7,45.7-25.6,62.2-59c7.4-15,10.3-25.1,10.3-35.5c0-13.1-3.2-16.7-20.2-22.2c-12.9-4.1-23.8-6.4-36.6-7.6
		C1280.6,1696.7,1278.3,1696.7,1266.2,1697.8z"/>
	<path id="structure18_label15_APTV" bar:growlevel="0" bar:type="" class="st40" d="M1405.7,1344.6c-1.3,2.3-12.2,35.8-16.3,49.8
		c-11.7,39.9-15.2,55.3-19.6,87.3c-1.2,8.6-1.5,17.7-1.6,38.7c0,24.4,0.3,28.9,2.1,40.4c5.6,34.6,13.2,53.1,27.6,66.5
		c10.6,10,21.4,13.4,40,12.5c19.3-0.8,35.8-8.5,49.7-22.9c12.6-12.9,27.5-40.9,36.9-68.9c11.4-34.2,15.8-70.9,13.5-112.2
		c-1.3-20.5-1.5-22.5-3.4-22.5c-2.7,0-30.8-9.9-42.1-14.8c-31.5-13.7-63.9-34-78.6-49.4c-3.1-3.2-6.1-5.9-6.5-5.9
		C1406.9,1343.1,1406.2,1343.8,1405.7,1344.6z"/>
	<path id="structure193_label223_MoDG" bar:growlevel="0" bar:type="" class="st41" d="M1993.1,1591.7c-2,0.5-4.8,2.4-6.8,4.7
		c-3,3.2-4.3,6.1-8.7,19.5c-18.3,55.3-38.4,90.3-71.2,123.8c-18.1,18.4-135.3,133.5-145.3,142.7c-5.7,5.1-27.4,24.3-48.3,42.5
		c-43.4,37.7-54.5,48.2-68.3,64c-12.9,14.9-22.7,29.1-32.8,47.6c-4.6,8.3-9,15.5-9.9,15.9c-4.4,2.3-13.6-0.5-16.8-5
		c-1-1.4-4.1-7-6.9-12.5c-4.2-8.3-5-10.6-5-14.6c0-2.7-0.5-4.8-0.9-4.8c-0.5,0-2.4,1.5-4.3,3.4c-1.8,1.9-5.5,5.2-8,7.6l-4.8,4.1
		l1,7.5c0.4,4.1,1.5,9.8,2.3,12.5c2,7.2,8.6,19.4,13.6,25.6c4.4,5.2,13.6,12.2,16.1,12.2c1.6,0,11.5-10.1,19.1-19.3
		c7.3-8.9,11.5-15.4,18.8-29.1c13.6-25.3,23.6-36.5,49.1-55.5c27-20,101.4-73.3,110.4-79c28.7-18.4,74.6-36.8,107.9-43.5
		c15.5-3.1,22.4-5.2,32.9-10.3c29.3-14.1,64.3-46.4,86.4-79.7c21.4-32.4,28.4-53.2,29.8-89.1c1.3-33.2-4.6-58.1-18.1-75.6
		C2014.7,1594.6,2003.1,1588.9,1993.1,1591.7z"/>
	<path id="structure195_label226_mtg" bar:growlevel="0" bar:type="" class="st42" d="M1141.9,1788.3c-4.4,12.2-6,28.1-4,38.1
		c1.4,6.6,3.9,35.6,3.9,45.8c0,6.1,0.4,8.4,1.4,9.4c1.9,2,3.3,1.8,5.4-0.4c1.6-1.8,1.7-3.6,1.6-30c0-19-0.5-33-1.5-43.7
		c-2.2-22.1-2.5-24.3-3.8-24.3C1144.4,1783.2,1143,1785.5,1141.9,1788.3z"/>
	<path class="st43" d="M1152.2,1978c-9.8-7.9-15.3-10.2-31.2-12.5c-5.5-0.8-9.9-1.2-14.2-1.3v13.5c0.7,0,1.4,0,2.2,0.1
		c5.3,0.5,24.2,6.8,45,14.8c15.1,5.9,16.7,6.3,16.7,4.4C1170.7,1995,1161.3,1985.4,1152.2,1978z"/>
	<path id="structure197_label229_mp" bar:growlevel="0" bar:type="" class="st44" d="M1179.9,1985.7c-3.1,1.3-4.1,4.1-3.7,10.4
		c0.2,3.2,0.5,5.9,0.7,6c0.5,0.4,59.2,28.2,65.3,30.9c6.6,2.9,59,20.3,59.5,19.8c1-1-1.8-10.3-4.4-14.2c-6.2-9.8-14.4-14.9-45.8-29
		C1205.1,1989,1186.6,1982.8,1179.9,1985.7z"/>
	<path id="structure19_label16_REth" bar:growlevel="0" bar:type="" class="st45" d="M1481.2,1646.9c-3.2,3.9-11.5,13.8-18.4,22
		c-25.4,29.6-33,39.4-39.4,50c-3.9,6.5-7.8,16.5-7.8,19.8c0,2.9-0.2,2.9,14.7-2.3c13.1-4.6,27.4-8.2,45.6-11.3
		c18.4-3.1,47.5-10.3,57.1-13.9c4.4-1.6,17.1-12.2,31.6-26.1c12.1-11.7,14.7-13.9,21.3-17c4.1-2,8.8-4,10.4-4.2c5-1,3.3-2.9-5.6-5.7
		c-26.5-8.5-69-16.7-91.9-17.8l-11.7-0.5L1481.2,1646.9z"/>
	<path id="structure201_Unlabeled-1840-970_Unlabeled" bar:growlevel="0" bar:type="" class="st46" d="M1141.9,1107.7
		c-3.7,0.7-9.1,1.3-11.9,1.3c-4.4,0.1-5.2,0.4-5.2,1.7c0,1-0.8,4.9-1.9,8.8c-2.2,8.2-2.6,22.4-0.9,29.6c1.7,7.5,4.8,14.9,6,14.9
		c0.7,0,1.3-0.4,1.3-1c0-1.5,6.7-10.6,7.9-10.7c0.5,0,1.1-0.6,1.1-1.4s2.6-4.9,5.7-9.3l5.8-7.7l-0.4-12c-0.4-10.5-0.3-11.9,1.1-11.9
		c0.8,0,1.4-0.7,1.4-1.8C1151.8,1106.1,1151.4,1106.1,1141.9,1107.7z"/>
	<path id="structure202_Unlabeled-2453-1016_Unlabeled" bar:growlevel="0" bar:type="" class="st46" d="M1693,1149.4
		c-2.6,2.1-4,4.9-4,8.2c0,3.9,0.8,5.5,2.9,5.5c1,0,5.1,2.3,9.1,5.1c69.4,48.4,116.2,107.6,151.3,191.3c19.3,45.9,29.4,91.9,33,149.2
		c1.3,20.1,0.5,53.8-1.4,68.4c-4.5,33-14.2,66.6-27.1,93.4c-10.8,22.8-21,36.3-61,81.6c-7.8,8.9-18.4,21.4-23.3,27.9
		c-29,37.4-77.8,95.8-106.5,127.3c-25.5,28-49.1,56.6-58.1,70.5c-2.3,3.6-4.9,7.3-5.8,8.3c-1.9,1.9-3.2,7.7-2.3,10
		c0.6,1.8,2.9,1.6,6.4-0.5c1.6-1,3.4-1.8,4.1-1.8c0.6,0,1.6-1,2.2-2.2c0.5-1.2,6-6.3,12.2-11.3c9.7-7.8,11.3-9.5,11.3-11.7
		c0-2.1,4.1-7.3,21.9-27.2c12.1-13.5,29.5-32.4,38.8-42c21.9-22.6,38.4-41.5,67.3-76.8c12.9-15.8,29.7-35.8,37.3-44.5
		c27.7-31.5,40.7-48,56.3-71.4c19.3-28.7,37.2-61.7,42.8-78.9c13.3-40.6,16.4-82.7,10.4-144.3c-2.6-26.3-7.7-66.2-10.1-76.9
		c-7.2-34.6-28.1-79.3-56.4-120.7c-21.2-31.1-26.1-38.7-34.6-54.1c-5-9-9.1-17.4-9.1-18.5c0-1.3-1.3-3.1-4.2-5.4
		c-2.4-1.8-6.8-5.4-9.7-7.8c-7-6-26.4-19-38.3-25.8c-11-6.3-35.5-18.6-44.6-22.4c-3.4-1.4-6.4-2.9-6.6-3.2
		C1696.8,1147.3,1695,1147.7,1693,1149.4z"/>
	<path id="structure204_Unlabeled-2432-1653_Unlabeled" bar:growlevel="0" bar:type="" class="st46" d="M1667.9,1723.3
		c-4,0.7-9.8,1.5-13,1.9s-6.7,1.2-7.7,1.8c-1,0.5-5.6,2.2-10.3,3.4c-4.6,1.4-16.9,5.5-27.5,9.2c-27.7,9.8-42.5,13.6-63.5,16.5
		c-9.9,1.4-28.8,2.8-37.7,2.8h-7.7l-15.3,15.1c-8.5,8.3-19.5,18.5-24.7,22.6c-24.3,19.4-119.6,78.4-126.7,78.4
		c-0.6,0-1.2,0.6-1.2,1.3c0,2.7,13.8,1.3,48.2-4.9c8.4-1.4,21.1-3.5,28.3-4.5c16.2-2.3,28.4-4.6,44.4-8.6c7.9-2.1,13.3-3,14.9-2.6
		c2.8,0.6,1.4,1.5,33.4-24.8c22-18.2,35.4-26.1,44.9-26.8c5.2-0.4,5.4-0.5,11.9-7c3.6-3.7,7.3-6.7,8.2-6.7c1,0,1.6-0.6,1.6-1.6
		c0-5.8,78-41.7,85.5-39.3c1.4,0.4,3.1-0.5,6.8-3.9c2.7-2.5,9.5-8.3,15.3-12.9c5.7-4.6,10.3-8.9,10.3-9.5
		C1686.4,1721.6,1677.7,1721.7,1667.9,1723.3z"/>
	<path class="st46" d="M1265,2074.2c-2.4-3.7-7.3-9.2-10.9-12.3c-14.7-13-15-13.2-15-16.6c0-3.7,3.3-7.5,6.8-7.5
		c3.4,0,2.8-2.3-1.2-3.9c-7.1-2.9-67.2-31.6-67.5-32.3c-0.2-0.4-1.1-0.7-2.1-0.7c-1,0-2-0.6-2.3-1.4c-0.4-0.7-1.4-1.3-2.6-1.3
		c-1.1,0-8.5-2.5-16.3-5.6c-23.5-9-40-14.3-45.8-14.8c-0.5,0-0.9-0.1-1.3-0.1v43.1c4.6-0.1,9,0.2,13,0.9c31.5,5.6,65.1,21.8,95,45.9
		c24.2,19.5,37.8,37.2,37.8,49c0,2.9,0.4,4.8,1,4.8c1.6,0,9.3-5.9,13-10C1276,2101.1,1275.5,2089.9,1265,2074.2z"/>
	<path id="structure20_label17_SNR" bar:growlevel="0" bar:type="" class="st47" d="M1567.4,1790.1c-3.1,0.5-25.8,23.8-42.5,43.5
		c-13.4,15.8-35.2,38.5-49.1,51.1c-11.3,10.3-22.1,17.5-50.8,33.9c-23.8,13.6-26.9,15.6-36,23c-16,13-40,37.2-41.5,41.6
		c-0.3,1-0.1,2.7,0.5,3.8c0.9,1.6,0.8,3.3-0.4,8.5c-0.8,3.6-2.3,11.6-3.2,17.7l-1.7,11.3l2.3,3.7c4.9,8,11.1,12.9,20.2,16
		c8.5,2.9,24.8,2.7,41.8-0.4c29.1-5.6,66.1-16.5,91.3-27.1c24.2-10.1,44.5-24.6,71.5-50.8c19.2-18.7,28.1-29.3,44.7-53.2
		c20.3-29.3,28.6-43.4,35.5-60.7c2.3-5.8,2.3-6.6,1.4-10.9c-4.1-17.8-20.7-34.7-42.9-43.7C1595,1792.1,1575.7,1788.7,1567.4,1790.1z
		"/>
	<path id="structure21_label18_SNL" bar:growlevel="0" bar:type="" class="st48" d="M1640,1752.9c-26.5,9.4-71.5,31.6-71.5,35.2
		c0,0.7,3,1.3,8.8,1.6c32.2,1.9,65.4,23,72.8,46.2c0.8,2.7,2,4.9,2.7,4.9c2.5,0,9.2-27.4,9.3-38.1c0-8.4-1.3-11.9-5.9-14.9
		c-4.9-3.4-11.9-11.5-13.1-15.2c-1.5-5.3,0.2-10,5.9-16.3C1657,1747.6,1655.9,1747.3,1640,1752.9z"/>
	<path id="structure22_label19_ZIC" bar:growlevel="0" bar:type="" class="st49" d="M1669.7,1666.7c-28.4,17.2-76.9,34-121.3,42.2
		c-6.8,1.3-12.8,2.3-13.1,2.3s-2,2.5-3.6,5.6c-3.6,7.1-12.1,19.2-22.1,31.1c-4.2,5-7.6,9.6-7.6,10.2c0,1.7,26.3,0.6,44.1-1.8
		c21.3-3,33.7-6.3,73.3-19.7c11.9-4,23.2-7.8,25.2-8.5c5.1-1.6,11-9.4,18.4-24.5c5.9-12,14.4-34.6,14.4-38.3
		C1677.4,1662.8,1675.8,1663,1669.7,1666.7z"/>
	<path id="structure23_label20_PP" bar:growlevel="0" bar:type="" class="st50" d="M1724.1,1639.2c-0.7,0.4-5.4,1.8-10.3,3.1
		c-18.4,4.8-15.8,3.4-32,17.1c-1.6,1.3-3.2,4.8-5.3,10.9c-7.4,22.5-12.5,34.1-20.3,46.2c-2.7,4.1-4.9,7.9-4.9,8.5
		c0,1.1,2,0.9,17.1-1.5c4.7-0.7,11.3-1.4,14.7-1.4c6.1,0,6.1,0,13.4-5.5c11-8.4,22.1-13.4,30.1-13.4c2.5,0,3.5-0.9,8.8-8
		c3.2-4.3,5.9-8.3,5.9-8.7s-2.3-3-4.9-5.7c-7.1-7-9.4-12.3-10.1-22.9c-0.5-6.6-0.2-9.6,1-13.1c0.8-2.4,1.4-4.9,1.4-5.4
		C1728.7,1638.1,1726,1638,1724.1,1639.2z"/>
	<path id="structure24_label21_LT" bar:growlevel="0" bar:type="" class="st51" d="M1735.9,1694.4c-5.4,7.5-6.7,10.4-4.3,10.4
		c2.2,0,6.1,5,7.5,9.4c1.4,4.9,1.6,17.5,0.4,27c-1.6,12.6-2.8,28.7-2.3,30.8c0.3,1.1,1,2.1,1.6,2.1c0.6,0,6.2-10.4,12.3-23
		c12.1-25.1,19.7-38.4,27.5-48.5c2.7-3.6,4.9-6.9,4.9-7.5c0-0.4-1.4-1.2-3.2-1.4c-1.7-0.4-3.4-1.3-3.9-2.1c-0.6-1.1-3.2-1.5-12-2.2
		c-6.1-0.4-13-1.1-15.2-1.6C1742.1,1686.2,1741.9,1686.2,1735.9,1694.4z"/>
	<path id="structure25_label22_PIL" bar:growlevel="0" bar:type="" class="st52" d="M1542.4,1607.7c-12.8,1.3-24.3,4.1-33.4,8.2
		c-5.5,2.5-6.5,3.4-12.8,12c-3.9,5.1-6.9,9.7-6.9,10.2c0,0.5,3.8,1.2,8.4,1.5c26.1,2,68.4,10.3,93.7,18.5l11.4,3.7l15-1.9
		c13.8-1.7,40.9-6.8,49.1-9c5.2-1.5,4.1-3.1-3.2-4.3c-9.2-1.6-23.8-6.7-33.3-11.6c-9.3-4.8-16.6-9.9-24.5-17.3
		c-5.5-5-5.8-5.2-14.9-7.2C1575,1607.1,1557.9,1606.1,1542.4,1607.7z"/>
	<path id="structure26_label23_PoT" bar:growlevel="0" bar:type="" class="st53" d="M1528.9,1296.3c0,0.4,1.2,5,2.6,10.1
		c5.7,19.8,9,39.4,11.3,67.8c0.7,8.9,3,29.3,4.9,45.4c5.3,42.4,5.6,62.1,1.3,91.8c-5.3,36.7-18,68.5-38.8,97.3
		c-4.8,6.7-3.7,7.6,4.7,4.5c2.5-0.9,8.7-2.7,14-3.9c8.3-1.8,11.8-2.1,28.8-2.1c16.7,0,20.8,0.3,29.6,2.1c5.6,1.2,10.4,1.8,10.7,1.5
		c0.4-0.3-0.1-1.6-0.9-3c-9.3-14.8-13.2-24.4-16-38c-6.6-32.1,0-77.9,15.4-108.2c7.6-14.9,17.2-23.2,35-30.6c3.2-1.3,7.6-2.7,9.7-3
		c6-1,4.9-3-4.5-8.4c-21.7-12.3-42.2-31.6-61.9-58.2c-7.4-10-20.8-30.1-33.8-50.7C1532.5,1297.4,1528.9,1293,1528.9,1296.3z"/>
	<path id="structure27_label24_MGV" bar:growlevel="0" bar:type="" class="st54" d="M1648.1,1507.9c-14.4,2.2-26.1,7.8-37,18.2
		l-7.6,7.1v13.2c0,22.9,3.8,50.6,8,59.5c1.3,2.7,4.9,7.7,8.1,11.1c7.4,7.8,17.9,13.3,31.1,16.1c12,2.6,40.1,2.9,48.8,0.4
		c13.3-3.6,23.5-12.1,31.5-26.3c11.6-20.4,16.7-40.5,16.8-66.3c0.1-13.9,0.1-14.1-2.2-16.5c-3.4-3.7-17.5-10.2-27.4-12.6
		c-14.3-3.6-27.5-4.9-47.2-4.9C1661.5,1507.1,1651.1,1507.4,1648.1,1507.9z"/>
	<path id="structure28_label25_SPFPC" bar:growlevel="0" bar:type="" class="st55" d="M1665.2,1651.4c-14,3.6-31.8,6.9-50.8,9.4
		c-14.9,2-24.5,4.8-32.4,9.3c-2.8,1.6-11.1,8.7-18.9,16.4c-7.7,7.4-16.1,15.1-18.7,17.1c-9,6.8-6,7.3,15.4,2.7
		c48.5-10.4,90-26.1,117.2-44.5c11.5-7.7,15.8-11.2,15.8-12.7C1692.7,1647,1677.3,1648.3,1665.2,1651.4z"/>
	<path id="structure29_text3287_AHiPM" bar:growlevel="0" bar:type="" class="st56" d="M1905.5,2049.2c-23,9.3-55.5,21.4-70.7,26.3
		c-14.3,4.6-25.6,7.3-46.3,11.3c-27.3,5.3-51.9,14.8-71.5,27.6c-10.8,7.1-28.9,24.9-33.3,32.8c-1.6,3-4.2,6.9-5.7,8.8
		c-2.8,3.5-10.7,8.7-13.4,8.7c-3.7,0-1.2,2.6,5.4,5.6c8.8,4.1,9.2,4.2,15.9,5.1c3.4,0.5,8.3,0.5,12.7-0.1c4-0.5,11.6-1,17-1.2
		c5.5-0.1,12-0.6,14.4-1.3c3.9-1,4.9-1.7,7.2-5.3c3.8-5.9,11.4-11.7,23.7-18c26.5-13.7,42.1-18.4,108.7-33.5
		c24.8-5.7,45.2-8.1,66.6-8.1c11.9,0,18.4-0.7,18.4-2.2c0-0.5-2.3-2.2-5.2-3.7c-7.4-3.8-17.2-13.9-21.1-21.7
		c-4.8-9.5-6.4-16.4-6.4-27.6c0.1-6.3-0.3-9.6-0.9-9.6C1920.4,2043.4,1913.4,2046,1905.5,2049.2z"/>
	<path id="structure30_label29_OlfCx-1" bar:growlevel="0" bar:type="" class="st57" d="M2267.8,2048.9
		c-25.2,37.4-71.7,72.8-113,86.1c-16.7,5.3-21.4,4.2-58.1-13.5c-40.3-19.5-46.2-21.1-75.6-21.1c-20.1,0-20.4,0-37.5,3.5
		c-9.5,2-17.4,4-17.4,4.5c0,0.5,2.4,2.3,5.4,4c10.2,5.9,20.8,18.6,25.2,30.4c7.9,21.1,1.7,40.5-18,56.3
		c-16.5,13.2-39.7,21.4-70.7,25.1c-14.4,1.7-59.2,1.3-76.9-0.5c-50.3-5.4-88.5-22.9-95.9-43.7c-0.7-2.1-1.3-4.9-1.3-6
		c0-1.9-0.4-2.2-2-1.8c-1.2,0.3-4.4,1-7.3,1.5c-4.2,0.9-5.2,1.3-4.9,2.5c0.7,2.3,4.2,12.8,5.7,16.9c3.5,10,7.1,12.9,30.5,24.7
		c22.6,11.4,43.1,17.7,68.3,20.9c12.1,1.5,62,1.5,77.5,0c62.2-6.2,89.6-12.9,108.9-26.7c6.5-4.7,10.4-8.8,16.1-16.8
		c4.4-6.5,9.3-10.4,17.1-13.8c8.6-3.8,13.4-4.2,36.6-3.1c33.2,1.7,65.3-0.6,81.4-5.9c20.8-6.9,48.9-24.4,77.4-48.2
		c18.5-15.6,58.1-56.2,58.1-59.7c0-1.2-22.1-21.6-23.9-22C2272.9,2042.4,2270.4,2045.3,2267.8,2048.9z"/>
	<path id="structure31_label30_PMCo" bar:growlevel="0" bar:type="" class="st58" d="M1922,2109c-16.7,0.8-25.4,2-42.9,5.5
		c-26.9,5.6-73,17-84.7,21.1c-22.3,7.7-42.4,17.8-52,26.1c-10.6,9.2-9.6,20.1,2.8,31.7c15.9,14.9,43.8,25,81.3,29.6
		c15.8,1.9,61.2,2.7,76.7,1.3c37.6-3.3,63.6-13,81.3-30c10.3-9.9,14.3-18.6,15-31.8c0.4-9.9-1.1-16.9-5.8-26.6
		c-4.4-8.8-16-20.7-24.5-25l-5.8-2.9l-13.6,0.2C1942.2,2108.3,1929.7,2108.6,1922,2109z"/>
	<path id="structure32_label31_APir" bar:growlevel="0" bar:type="" class="st59" d="M2071.9,2007.6c-5.9,5.8-12.7,10-22.1,13.2
		c-19,6.5-40.4,5.1-53-3.3c-3.4-2.3-5.5-3.1-7.1-2.8c-1.3,0.3-16.3,6.3-33.6,13.6c-17.2,7.2-31.6,13.1-32,13.1
		c-2.2,0-2.5,16.4-0.5,25.5c3.2,15.6,14,29.4,28,36.3c8.9,4.4,13,4.4,32.3,0.4c22.4-4.6,38.3-5.7,54.2-3.7
		c16.6,2.1,27.1,5.9,61.5,22.5c26.3,12.7,30.3,14.2,38.3,15c17.2,1.6,59.6-19.3,88.7-43.7c19.6-16.5,45-46,45-52.4
		c0-2.3-20.3-19.8-27.6-24c-6.8-3.9-14.7-5.2-28.6-5.1c-13.2,0.2-24,1.8-42.3,6.4c-6.9,1.7-15,3.8-18,4.5
		c-15.4,3.9-45.2-3.2-67.6-16.1c-4.1-2.3-8.3-4.2-9.2-4.2C2077.2,2003,2074.4,2005,2071.9,2007.6z"/>
	<path id="structure33_label32_BL" bar:growlevel="0" bar:type="" class="st60" d="M2059.9,1979.7c-7.6,1.6-11.8,3.5-24.7,11.3
		c-5.9,3.5-17.8,9.9-26.4,14.1c-11,5.5-15.5,8.1-15.3,9.1c0.4,2.3,10.8,7.3,17.9,8.8c9,1.9,25.7,1.3,34.8-1.3
		c15.8-4.6,28.8-14.2,34.5-25.7c3.2-6.7,3.9-13.1,1.5-15.4C2080.1,1978.6,2067.9,1978.1,2059.9,1979.7z"/>
	<path id="structure34_label33_DLEnt" bar:growlevel="0" bar:type="" class="st61" d="M2165.2,1759.3c0,2.3-5,36.5-6.8,46.1
		c-3.3,18-8.9,38.8-13.7,50.7c-5.6,14.1-20.4,44.3-27.7,56.3c-13,21.4-30.3,41.3-49.3,56.4c-4.9,4-9.5,7.4-10.3,7.7
		c-0.6,0.3-1.2,1.1-1.2,1.8c0,1.1,1.1,1.2,7,0.5c11.6-1.2,18.1-0.4,20.2,2.8c1.4,2.2,0.6,7.4-2.1,13.3c-2.3,5-2.7,6.3-1.7,7.5
		c0.6,0.7,6.4,4,13,7.2c19.5,9.6,35.6,14.1,51.4,14.1c7.8,0.1,10.7-0.5,22.5-3.7c18.9-5.2,31.2-7.4,45.9-7.9
		c21.1-0.8,27.9,1.3,42.1,13.1c5.3,4.5,15.5,13.3,22.4,19.6c19.1,17.2,20.3,18.3,21.2,18.3c1.3,0,6.8-7.2,16.6-21.6
		c19.4-28.4,44-71.4,56-97.8c6.5-14.5,9.1-22.8,18.5-59.7c4.4-17.1,10.1-38,12.6-46.3c5.1-16.7,8.4-28.4,7.9-28.7
		c-0.4-0.3-243.1-50-244-50C2165.4,1758.9,2165.2,1759.1,2165.2,1759.3z"/>
	<path id="structure35_label34_PRh" bar:growlevel="0" bar:type="" class="st62" d="M2171.1,1674c-1.2,24.4-3.3,58-4.6,70.5
		c-0.6,7.2-1,13.3-0.6,13.6c1,0.9,243.4,50.3,244,49.8c1.3-1.3,0.4-28.1-1.2-35.9c-3.5-17.6-12.2-39.2-23-57.1
		c-3.1-5.1-6-10.3-6.5-11.7l-0.8-2.4l-102-19.1c-56-10.5-102.5-19.1-103.3-19.1C2171.8,1662.6,2171.5,1664.2,2171.1,1674z"/>
	<path id="structure36_label35_Ect" bar:growlevel="0" bar:type="" class="st63" d="M2177.4,1584c-1.4,11.4-4.9,51.8-5.5,63.8
		l-0.6,13.7l2.5,0.5c1.4,0.3,47.2,8.8,101.6,19c54.4,10.3,99.9,18.8,100.9,19c1.6,0.4,2.2-0.1,3.1-2.7c1.3-4.2,6.2-8.3,14-12
		c7.5-3.4,10.3-6.6,15.7-17.8c6.2-13.1,11.7-31.7,15.3-52.6c2-11.3,2.2-14.5,1-14.5c-1.5,0-238.2-19.8-242.7-20.3l-4.6-0.5
		L2177.4,1584z"/>
	<path id="structure37_label36_TeA" bar:growlevel="0" bar:type="" class="st64" d="M2184.6,1504.4c-0.3,2.6-1.2,12.9-1.9,22.8
		c-0.8,9.9-2.3,25.7-3.2,35.1c-0.9,9.4-1.6,17.1-1.5,17.2c0.5,0.3,243.5,20.3,246,20.2h2.8l0.6-6.3c1.5-15.2,2.1-35.9,1.6-60.7
		c-0.3-14.7-0.7-26.6-1-26.6c-4.3,0-214.7-5.5-226.6-5.8l-16.3-0.6L2184.6,1504.4z"/>
	<path id="structure38_label38_AuV" bar:growlevel="0" bar:type="" class="st65" d="M2297.9,1395.3c-61.4,3.9-111.6,7.1-111.6,7.1
		c0,0.1,0,15.8,0,34.9c0,19.3-0.3,41-0.7,48.4l-0.6,13.6l117.6,2.9c64.8,1.6,119.5,3,121.7,2.9h4l-0.6-29.5
		c-0.5-26.8-1.2-43.3-2.9-76.1l-0.6-11.4l-7.3,0.1C2412.8,1388.3,2359.3,1391.4,2297.9,1395.3z"/>
	<path id="structure39_label39_Au1" bar:growlevel="0" bar:type="" class="st66" d="M2220.8,1103.9c-83,42-110.5,56.3-110.5,57.5
		c0,0.9,3.1,7.4,6.8,14.4c37.5,69.9,60.5,142,67.3,211.7c0.7,7.3,1.5,13.5,1.7,13.8c0.4,0.3,212.9-12.3,230.4-13.8l6.9-0.5v-5.1
		c0-11.2-4.9-59.7-8.6-86.6c-8.2-58.4-21.5-107.9-44.9-166c-13.1-32.5-35.7-81.4-37.7-81.4
		C2331.7,1047.9,2281.5,1073.1,2220.8,1103.9z"/>
	<path class="st67" d="M1249.9,2106.7c-11.8-24.8-58.6-61-97.4-75.4c-18.6-6.9-32.8-10.3-45.8-10.4v144.6c5.1,0,9.9-0.3,14.8-1.1
		c27.5-4.3,106.4-24.1,116.7-29.4C1251.8,2128.1,1255.7,2118.8,1249.9,2106.7z M1155.4,2095.5c-5.9,0-8.5-7.1-4-10.7
		c3.1-2.4,5.8-2.4,8.3-0.1C1163.8,2088.5,1161,2095.5,1155.4,2095.5z M1156.4,2079.2c-5.3,1.5-13.5-2.5-13.8-6.8
		c-0.4-4.9,0.6-6.8,5-9.5c3.3-2,6.8-2.1,10.7-0.3C1166.6,2066.5,1165.4,2076.7,1156.4,2079.2z"/>
	<path id="structure40_label40_MGD" bar:growlevel="0" bar:type="" class="st68" d="M1642.3,1428.1c-9.5,2-19.6,6.3-25.7,10.9
		c-2.5,1.8-3,3.1-4.7,11.3c-4.6,22.1-7.2,43.2-8,64.8c-0.4,11.8-0.3,15.1,0.5,15.1c0.6,0,4.4-2.9,8.5-6.3
		c16.6-14.2,33.4-18.7,65.4-17.7c27.5,0.9,49.3,5.9,62.8,14.5c5.4,3.3,5.9,3.2,5.3-2.2c-1.4-11.7-9-27.6-19.5-40.7
		c-13.1-16.3-38-36.7-55.4-45.4c-8.8-4.4-10.6-5-16.6-5.3C1651,1427,1645.6,1427.4,1642.3,1428.1z"/>
	<path id="structure41_label41_Or" bar:growlevel="0" bar:type="" class="st69" d="M1690.9,1164.2c0,1.7,5.7,10.9,11.3,18.3
		c2.7,3.5,9.4,11.2,15,17.1c5.7,5.8,11,12.2,11.9,14.2c1.4,2.9,3.1,11.6,5.6,28.1c0.4,2.5,0.9,3,5.8,4.4c7.8,2.3,17.4,8,22.9,13.5
		c5.6,5.5,12.1,14,23.8,30.7c4.5,6.6,11.2,15.1,14.8,19c10.4,11.4,15.8,24.4,25.5,62.8c8.6,34,13,68,15.8,123.8
		c0.5,10.2,1.2,20.9,1.3,23.9c1.4,16.5,2.1,41.9,1.3,54.1c-1.8,28-6.9,46.9-20.7,75.5c-9.4,19.4-19,32-29,37.7
		c-7.6,4.2-16.9,14.7-24.9,27.8c-2.1,3.4-10.3,19.2-18.2,35.1c-8,15.8-16.6,32-19.1,35.6c-2.5,3.7-18.5,25.4-35.6,48.2
		c-17.2,22.8-35.8,48.2-41.5,56.7c-19.3,28.8-41.7,59.1-65.4,88.7c-6.6,8.3-12,15.4-12,16c0,2.1,4.1,0.8,13.9-4.4
		c8.5-4.6,10.3-5.9,12.2-9.2c6.7-12,35.1-46.6,64-78.1c23.8-25.9,75.8-88.3,103.2-123.8c4.9-6.5,15.5-19,23.3-27.9
		c40.1-45.4,50.2-58.9,61-81.6c12.9-26.8,22.6-60.4,27.1-93.4c2-14.6,2.7-48.3,1.4-68.4c-3.6-57.3-13.8-103.3-33-149.2
		c-35.1-83.7-81.9-142.8-151.3-191.3C1693.8,1163.1,1690.9,1162,1690.9,1164.2z"/>
	<path id="structure42_label45_VG-2" bar:growlevel="0" bar:type="" class="st70" d="M1808,1491.3c-2.9,4.5-3.8,6.8-3.4,8.4
		c1.4,5.8,1.6,22,0.6,30.2c-3.1,24.5-12,54.4-24.8,83.3c-2.6,5.8-10.2,20-16.9,31.6c-12.9,22.1-20.4,36.7-20.4,39.4
		c0,1.7,4.6,3.5,8.8,3.5c2.7,0,3.8-1.4,14-16.7c20.2-30.1,41.9-72.4,46.4-89.9c2.5-9.8,3.6-19.2,4.5-37.8c1.2-25.2-1.1-58.1-4-58.1
		C1812.4,1485.3,1810.2,1488,1808,1491.3z"/>
	<path id="structure43_label46_VG-3" bar:growlevel="0" bar:type="" class="st71" d="M1799.5,1505.3c-2.9,4.9-12.7,24.7-14,28.2
		c-0.5,1.4-3.2,10.4-5.9,19.9c-7.7,27-15.9,46.6-25.4,60.8c-2.3,3.5-8.4,10.2-14.3,15.7c-5.6,5.3-10.8,10.9-11.5,12.4
		c-3.2,6.8-2.5,22.1,1.3,29.6c2.3,4.6,9.6,12.4,11.6,12.4c0.9,0,2.1-1.6,3-4.3c1.6-4.4,8-16.2,23.5-42.8
		c9.4-16.4,10.9-19.4,17.7-36.4c13.2-33,19.7-60.6,19.7-83.9c0-6.8-0.3-13.1-0.5-13.9C1803.7,1500.5,1801.8,1501.3,1799.5,1505.3z"
		/>
	<path id="structure44_label47_DLG" bar:growlevel="0" bar:type="" class="st72" d="M1698.8,1263.1c-10.5,15.9-17.3,32.9-20.6,51.8
		c-2.3,13.6-2.5,38-0.4,53.9c2.4,18.1,8.3,41.9,14.9,60.2c2.7,7.5,3,7.8,10.5,14.2c20.1,16.7,38.2,38.2,46.3,54.6l4.6,9.3l3.2-0.5
		c5.1-0.8,24.3-10.6,36-18.5c11.8-7.9,25.4-20.1,29.9-26.9c3.2-4.9,3.2-4-0.1-36.6c-4.5-44-11.3-67.1-29.1-99.4
		c-16.7-30.4-33.8-48.7-55.8-59.4c-9.5-4.7-21.8-8.6-29.8-9.5l-4.7-0.5L1698.8,1263.1z"/>
	<path id="structure45_label48_LPLC" bar:growlevel="0" bar:type="" class="st73" d="M1616.2,1227.8c0,0.4,1.6,3.5,3.5,6.9
		c6.9,12.1,9.7,26.1,7.4,37.5c-2.7,12.6-12.8,26.1-23.2,31.1c-5.1,2.4-5.5,2.4-22.8,2.3c-12.4,0-20.3-0.4-27-1.6
		c-16-2.7-17.1-2.8-17.1-1.1c0,2.1,28.3,45.6,38.6,59.5c21.5,28.5,41,46.3,65.3,59.5c6.9,3.8,9.1,4.5,14.7,4.9
		c5.5,0.5,8.1,1.3,14.8,4.7c4.6,2.3,8.8,4.2,9.4,4.2c1.7,0,1.3-1.7-2.4-13.1c-10.4-31.3-15.1-59.9-14.2-87.6
		c0.9-29,7.3-51.5,20.1-70.9c3.2-4.9,5.7-9.2,5.4-9.7c-0.2-0.5-3.5-1.4-7.5-2.1c-12.7-2-25.7-7-41.2-15.9
		C1628.7,1229.9,1616.2,1225.4,1616.2,1227.8z"/>
	<path id="structure46_label50_AuD" bar:growlevel="0" bar:type="" class="st74" d="M2162.5,1012.5c-101.4,75-103.7,76.8-100.1,78.9
		c3.3,2.1,30.7,42,40.6,59.3c2.7,4.8,5.6,8.6,6.3,8.7c2.1,0,222.3-112,222.3-113s-0.5-2.1-9.9-19.3c-19.3-35.3-53.7-89.1-57.1-89.1
		C2264,938.1,2218.1,971.6,2162.5,1012.5z"/>
	<path id="structure47_label51_V1" bar:growlevel="0" bar:type="" class="st75" d="M1703.1,618.3c-5.2,18-64.5,237.1-64.3,237.4
		c0.2,0.2,11.1,3.6,24.1,7.6c53.9,16.2,101.3,34,158.1,59.1c10.4,4.7,19.4,8.5,19.8,8.5c0.8,0,98.5-223.7,98.4-225.3
		c0-0.4-5.9-3.6-13.2-7c-50.1-23.9-102.1-44.2-168.6-65.7c-22.3-7.3-51.4-16.1-52.9-16.1C1704,616.8,1703.4,617.5,1703.1,618.3z"/>
	<path id="structure48_label52_V2ML" bar:growlevel="0" bar:type="" class="st76" d="M1516.7,579.2c-0.9,10.9-16.7,243.2-16.4,243.3
		c0.1,0.1,8.5,1.9,18.6,4c25.5,5.3,62,14,88.7,21.2c26.9,7.3,30,8.1,30.3,7.6c0.6-0.8,64.5-236.3,64.5-237.7
		c0-1.8-1.5-2.3-32.4-10.6c-25.6-7-49.9-13-79.6-19.4c-29.9-6.5-70.4-14.8-72-14.8C1517.7,572.7,1517.2,574.6,1516.7,579.2z"/>
	<path id="structure49_label53_V2MM" bar:growlevel="0" bar:type="" class="st77" d="M1342.6,550.4c0,1.2,9.2,59.8,20.4,130.3
		l20.4,128.3l17.1,0.6c22.6,0.7,47.9,3.7,79.7,9.4c7.2,1.3,14.5,2.5,16.2,2.8l3.2,0.4L1508,699c4.6-67.8,8.4-124.1,8.3-125.1
		c0-1.7-0.8-2.1-5.1-2.9c-67.1-12.2-109.1-18.4-143.8-20.9c-6.9-0.5-15.3-1.1-18.6-1.4C1342.7,548.3,1342.6,548.3,1342.6,550.4z"/>
	<path class="st37" d="M1484.5,1629.7c-24.5,12-57.8,14.6-75.3,5.9c-27.1-13.6-41.7-53.7-41.8-114.8c0-37.7,4.8-67.4,18.3-114.3
		c11.4-39.9,20.1-64.6,31.1-90c3.7-8.5,6.8-15.9,6.8-16.6c0-0.8-0.7-1-2-0.7c-12.8,3-15.8,3.3-27.9,3.3c-20.7,0-45.3-3.9-62.5-10
		c-8.9-3.1-9.9-3.2-10.6-0.5c-1.8,7.2-14.5,21.5-25.9,29.3c-17.5,11.8-36.2,18.2-53.2,18.2c-9.6,0-17-1.7-27.6-6.2
		c-20.4-8.7-42.1-28.4-46.1-41.8c-0.5-1.9-1.5-3.7-2.2-4c-0.6-0.3-4.1,1.5-7.7,3.9c-8.2,5.3-18.5,10.5-25,12.6
		c-4,1.3-15.3,2-26.1,2.1v66.8c25.6-0.2,50.2,0,57.1,0.8c19.2,2,36.2,6.8,58,16.6c21.5,9.6,48.6,26.2,54.7,33.4
		c7.9,9.4,14.7,24,16.8,36.6c1,5.8,1.2,6.2,5.2,8.8c14.9,9.9,22.1,40,13.6,57.3c-3.2,6.7-10.3,12.8-20.5,17.8
		c-10.6,5.3-20.3,7.6-30.8,7.7c-12.2,0-19.2-2.3-27.4-9.2c-2.3-1.9-4.6-3.5-5.1-3.5c-0.5,0-1.2,1.9-1.4,4.2
		c-1.7,12.3-6.3,27.2-10.8,34.9c-1.4,2.3-5.2,7.1-8.6,10.9c-3.4,3.8-6.2,7.6-6.2,8.5c0,1.3,1.5,2.1,6.6,3.6
		c14.4,4.3,31.2,14.1,38.8,22.6c8,8.9,10.4,16.9,10.4,34.6c0,15.2-3.3,25-12.1,35.6c-6.6,7.9-6,8.3,7.6,5.3
		c11-2.3,32.7-3.2,43.7-1.8c20,2.7,41.1,9,47.2,14.1c9.7,8.4,7.9,27.1-5.1,52.7c-14.6,28.6-33.4,47.9-54.5,55.4
		c-10.9,4-18,5-30.2,4.4c-17.2-0.8-28.9-5.9-40.7-17.6c-11.3-11.4-18.8-26.8-18.8-39c0-7.1,3.6-17.9,9.1-27
		c4.1-7.1,12.7-19.1,14.2-20.1c1.3-0.8,1.3-3.1-0.1-3.1c-0.6,0-4.1,1.6-7.9,3.5c-12.4,6.5-21.6,7.8-34.2,5c-9.1-2-8.5-2.5-10.3,7.8
		c-2.7,15.5-6.9,26.2-15.8,40.1l-3.1,4.7l1.5,13.3c2.8,25.6,3.5,38.7,3.6,61.9c0.1,20.8-0.1,23.8-1.5,26.3c-1.4,2.5-2.1,3-4.7,3
		h-3.1v6.5c-0.1,3.6-0.6,9.8-1.4,13.8c-4.4,24.1-5.9,34.2-6,43.7l-0.2,10.5l3.2,5.3c1.9,3,5.8,7.4,9,10.1
		c11.8,9.8,20.9,18.6,24,23.3c4.2,6.5,5.3,6.2,5.2-1.2c-0.1-5.4,0.1-6.1,2.4-8.1c6.2-5.4,21.5-0.7,72.5,22
		c10.1,4.5,18.9,8.2,19.6,8.2c1.7,0,1.4-2.4-0.5-5.2c-5.1-7.4-10.1-21.3-12.2-34.7c-1.7-10.7-1.7-31.6,0-43.7
		c4.1-28.3,13-44,29.3-52.3c4-1.9,8.6-3.8,10.3-4.1c1.8-0.3,3.2-1.1,3.2-1.8c0-0.7,0.6-1.3,1.4-1.3c1.1,0,1.3-0.5,0.9-2.1
		c-1.5-4.9-1.5-7.9-0.2-13.1c1.6-6.3,6.2-15.9,11.7-24.5c11.5-17.7,45.9-53.1,71.2-73c7.7-6.1,21.4-15.4,25.7-17.5
		c2.8-1.3,3.3-2.1,4.2-6.7c2.9-13.7,12.7-28.3,43.4-64c24.8-28.9,37.8-45.2,37.8-47.3C1496.5,1624.1,1495.4,1624.4,1484.5,1629.7z
		 M1208,1902.4c-5,18.4-17.8,32.3-30.8,33.5c-4.7,0.4-5.7,0.1-9.4-2.3c-8-5.1-12.8-19.3-12.8-38c0-12.1,1.9-21.2,7.5-35.4
		c6.1-15.8,13.8-27.1,20.3-30c3.5-1.5,3.8-1.5,8.1,0.5c4,1.8,7.9,5.9,10.2,10.6c0.9,1.9,2.1,3,3.2,3c1.3,0,1.5,0.3,0.7,0.8
		c-0.9,0.5-0.7,2.3,1.1,8.3C1210.6,1869,1211.4,1889.8,1208,1902.4z"/>
	<path id="structure50_label54_RSD" bar:growlevel="0" bar:type="" class="st78" d="M1298.9,549c-52.5,4.3-90.1,17.5-123.9,43.7
		c-10.1,7.8-34.2,31.1-33.8,32.8c0.4,1.4,184.9,200.1,186.6,200.6c0.6,0.3,3.1-0.8,5.4-2.4c9.2-6.2,25.1-11.4,41.4-13.5
		c4.5-0.5,8.2-1.1,8.4-1.3c0.2-0.2-39.8-253-40.9-258.1l-0.5-2.4l-19.4,0.2C1311.3,548.6,1300.9,548.8,1298.9,549z"/>
	<path id="structure51_label55_RSGc" bar:growlevel="0" bar:type="" class="st79" d="M1134.7,632.1c-11.3,13.5-20.6,30.6-24.6,45
		l-2.1,7.7l-0.3,118.5l-0.2,118.6h8.3c4.6,0,36.4-0.8,70.5-1.8c34.2-1,65.4-1.8,69.4-1.8h7.4l6.7-8.8c10.2-13.2,19.1-26.6,30.6-46.1
		c11.3-19.2,16.7-26.8,22.3-31.9c2-1.8,3.6-3.8,3.6-4.5c0-1.5-184.1-199.8-185.9-200.2C1139.9,626.7,1137.3,629,1134.7,632.1z"/>
	<path id="structure52_label56_RSGb" bar:growlevel="0" bar:type="" class="st80" d="M1185.5,920.6c-38.1,1.1-71.2,2.1-73.5,2.1
		l-4.3,0.1V948v25.2h5.2c14.7,0,24.6,8.5,29.4,25.4c1.1,3.8,1.9,5.2,3.1,5.2c3.4,0,19.1-5.9,30.2-11.3
		c21.1-10.3,37.1-21.9,57.4-41.8c14-13.8,28.5-29.8,28.5-31.5c0-0.5-1.4-0.9-3.3-0.9C1256.3,918.5,1223.7,919.4,1185.5,920.6z"/>
	<path id="structure53_label57_Or" bar:growlevel="0" bar:type="" class="st69" d="M1529.9,892.6c-42.8,4.9-69.2,14.4-85.9,31
		c-5.4,5.3-7.7,8.6-10.3,14c-3.2,6.5-3.4,7.7-3.3,14.3c0.1,9,2.5,15.6,11.2,30.6c6.8,12,15.4,28.7,17.2,33.9
		c2.5,7.3,3.2,4.1,3.8-16.7c0.4-16,0.8-21.4,2.3-27.4c5.7-22.6,19.3-34.3,49-42.1c16.7-4.4,27-5.4,54.2-5.4
		c42.3,0.1,53.7,2.3,98.6,18.5c50.8,18.4,87.6,34.5,128.3,56.3c50.5,26.9,85.9,48.4,108.4,66.1c32.2,25,92.9,98.4,113.3,137
		c10.3,19.3,16.5,44.3,32.9,131.8c9.2,49.1,13.1,67.1,25.7,120.1c11.3,47.6,22.9,92.8,31,120.6c17,59.4,22.1,85.4,22.2,112.9
		c0,21.1-5.4,76-10.5,106.4c-7.3,43.3-19.1,77.2-34.6,99.5c-9.2,13.3-32.2,36.7-49.6,50.7c-40.8,32.5-102.9,59-195.8,83.3
		c-14.4,3.7-14,3.6-14,4.9c0,0.7,1.6,1.4,4.3,1.7c2.3,0.3,12.1,1.5,21.6,2.8c9.6,1.3,21.8,2.6,27.1,2.9l9.7,0.6l12.8-6.5
		c15.4-7.8,27.6-12.7,56.3-22.6c33.2-11.4,39.1-14,62.7-27.5c48.1-27.5,69.9-49.7,91.5-92.8c21.7-43.2,33.1-92.9,38.8-168.1
		c2.9-38.3,2.7-100.2-0.4-139.9c-3.1-39-7.6-59.8-25.2-117.1c-11.3-36.8-11.3-36.5-19.8-77.8c-13.5-65.1-21.8-94.2-38.7-136.8
		c-39.5-99.4-84.4-162.6-154.3-217.1c-43.8-34.1-93.2-61.1-163.8-89.6c-65.6-26.5-118.4-43.3-158.8-50.7
		C1572.1,891.5,1546.9,890.6,1529.9,892.6z"/>
	<path id="structure54_label58_Rad" bar:growlevel="0" bar:type="" class="st81" d="M1560.1,936.3c-36.4,2-60.8,8.8-73.7,20.6
		c-10.3,9.5-12,15.6-11.3,44.7c1.1,51.9-2.9,70.3-19.1,89l-3.8,4.4l0.4,10.8c0.4,11.8,2.8,21.5,5.2,22c4.1,0.8,58.7-52.3,79.3-77.2
		c18.4-22.2,31.7-34.2,45.7-41.4c15.3-7.7,30.7-8.9,50.6-3.8c31.4,8.1,71.9,24.2,115.9,46.2c53.3,26.6,81.9,46.4,118.3,81.8
		c53.7,52.3,87.9,109.3,103.9,173.3c10.8,43,7,77.1-9.4,85.1c-5,2.4-7.6,1.6-12.8-4c-5.8-6.4-9.7-13.1-28.1-49.1
		c-19.9-39.1-28.3-53.6-50.2-86.4c-13.4-20.1-16.5-24.1-24.6-32.1c-6.8-6.6-12.5-11.1-20.6-16.3c-6.2-3.9-19.3-12.4-29.3-19
		c-37.4-24.8-77.1-40.7-95.4-38.2c-2.3,0.3-4.1,1-4.1,1.5c0,0.5,2.5,2,5.7,3.1c7.7,3.1,34,16.2,45.5,22.8
		c12.6,7.3,31.4,20,39.1,26.6c7.4,6.2,10.3,8.4,20.3,14.9c12.2,7.9,22.5,17.5,29.5,27.4c12.1,17.1,39,61.7,52.6,87.6
		c12.2,23.2,22.5,53.6,28.4,84.6c2.5,13.1,7.8,51.5,9.6,69.3c2.2,20.3,2.1,58.6,0,76.9c-3.9,34.6-13.5,68.7-29.9,105.8
		c-10.9,24.7-21.9,41.7-41.6,64.7c-12.1,14-18.5,22.1-52,64.4c-33.6,42.6-48.5,58.8-106.7,115.7c-44.8,43.9-55.3,53.7-71.9,67.2
		c-15.5,12.6-15.5,12.6-15.6,28.5c-0.2,22.4,3.3,23,16.9,2.7c7.7-11.4,16-21.3,29.7-35.5c10.9-11.2,21.2-20.4,73.8-66.4
		c37.8-32.9,35.2-30.5,115-109.5c69-68.3,78.3-78.1,90.8-96.4c15.7-22.7,29.3-51.9,40.4-86.8c2.2-6.6,5.1-14,6.6-16.6
		c9.2-15.1,29.3-9.8,43.1,11.3c11.3,17.3,15.9,34.8,15.9,60.4c0,12,0.3,14.1,2.3,20c3.3,9.7,4.5,22.4,3.2,35.3
		c-3,29.6-15.4,64.8-28.8,81.4c-14,17.5-48.2,44.7-66.7,53.3c-14.1,6.5-31.7,9.2-42.2,6.5c-3.2-0.8-7.2-2.5-8.9-3.8
		c-3.5-2.7-4.4-2.7-20,1.1c-22.2,5.4-50.7,16.4-75.5,29.3c-17.5,9.1-21.9,12-63.5,41.8c-53.9,38.5-75,54-83.4,61.2
		c-13.6,11.7-24.8,26.5-35.3,46.8c-6.1,11.9-14.8,23.8-25.7,35.7c-4.5,4.8-8.1,9-8.1,9.3c0,0.4,2.1,2.5,4.7,4.8
		c2.5,2.3,7.4,8,10.8,12.5c6.4,8.6,12.2,13.8,15.6,13.8c1.3,0,3-1.5,5.4-4.9c13.8-20,48.2-43.6,88.5-60.6
		c25.3-10.6,39.2-15.2,109.5-35.4c60.8-17.5,75.7-22.1,99.7-30.2c47.1-15.9,75.9-30.6,104.9-53.2c41-31.9,58.8-62.4,69.8-119.8
		c3.2-17.1,11.7-68.7,13.4-81.9c3.6-28.1,4-50.1,1-68.1c-1.7-10.4-4.6-20.3-22.5-77.3c-24.6-77.9-31.9-103.8-38.3-135
		c-10.2-49.8-25.2-143.7-29.7-184.9c-5-45.4-12.2-60.7-56.1-118.8c-19.2-25.3-28.2-35.7-47.3-54.9c-17.8-17.8-28.3-26.5-44.6-37.1
		c-34.6-22.5-115.5-64.2-170.1-87.8c-13.2-5.7-45.2-17.9-62.9-24.1c-10.5-3.7-23.7-7-32.5-8.4
		C1600.1,935.9,1576.3,935.4,1560.1,936.3z"/>
	<path class="st82" d="M2185.9,1416c-1.8-36.1-5.7-64.3-13.1-96c-18.4-77.8-63.4-170.5-112.3-230.9c-55-68-121.5-114-242.2-167.6
		c-77.6-34.4-150.3-58.9-243.7-82c-19.7-4.9-21.6-5.1-24.3-4.1c-7.1,2.9-29.3,2.3-62.6-1.8c-37.5-4.6-74.1-3.5-95.6,2.7
		c-19.6,5.7-23.7,8.6-63.8,47.8c-49.4,48.2-60,57.8-77,69.8c-25.6,18.2-59.4,34.8-94.1,46.6c-17.9,6-24.1,6.9-50.4,6.7v82.5
		c13.9,0,27.6-0.5,36.5-1.7c63.5-8.5,119.8-26.9,158-52c11.9-7.7,19.9-14.7,28.3-24.2c11.9-13.5,17.1-22,38.7-63
		c18.7-35.5,33-52.4,53.8-63.4c24.8-13.1,74.4-20.3,117.3-16.6c36.7,3,80.5,13,126.8,28.8c176.3,60.3,287.9,131.1,353,224.1
		c32.2,46,63.4,119.2,88.8,208.5c6.3,22.2,17.9,68.1,24.4,97c2.8,12.3,6.9,28.1,9.1,34.9c9.9,30.6,15.6,63.1,18.4,105.5
		c1.5,22.7,2.3,130.9,1,152.1c-5.7,97.5-32,173.6-78.4,226.6c-13.7,15.6-49.7,39.1-90.5,59.1c-24.7,12.1-43.6,20.1-92.7,39.4
		c-21.3,8.4-45.2,17.9-53.1,21.1c-15.4,6.3-26.7,9.5-51.8,14.7c-40.8,8.5-58.5,14.4-74,24.8c-6.6,4.5-16,13.2-16,14.9s3.1,1.6,4.5,0
		c2.2-2.7,18.5-12.6,28.6-17.4c14.9-7.1,33.9-13.1,54.7-17.3c29.1-5.8,42.8-9.7,74.6-21.7c66.8-25.1,141.4-57.3,165.8-71.6
		c37.2-21.8,62.7-45.7,82.6-77.3c5.8-9.4,24-45.6,28.8-57.6c14.9-37.3,23-95.7,27-195.3c1-23.8,2.3-42.9,5.3-72.4
		C2185.3,1500.5,2187.8,1454.6,2185.9,1416z"/>
	<path id="structure56_label60_OT" bar:growlevel="0" bar:type="" class="st83" d="M1447,1206.4c-20.5,1.5-50.4,5-72.6,8.6
		c-12.2,1.9-14.7,2.6-14.7,3.8c0,2.5,8.7,14.9,13.1,18.9c7.4,6.5,10.3,7.4,25.3,7.8c24.6,0.7,41.9,3.2,58.7,8.4
		c12.5,3.9,17.5,4.6,36.4,5.2c12.9,0.4,16.8,0.3,16.8-0.5c0-0.6-1.4-5.2-3.1-10.3c-4-11.6-5.5-22.7-4.7-33.5l0.6-8.2l-11-0.5
		C1478.4,1205.3,1459.6,1205.4,1447,1206.4z"/>
	<path id="structure57_label61_OPT" bar:growlevel="0" bar:type="" class="st84" d="M1383.5,1246.4c-13,1.8-17.1,2.5-23.4,4.1
		c-9.7,2.4-26.2,7.7-30.6,10c-4.7,2.3-10.1,7.5-12.2,11.7c-5,9.6,0.5,16,18.5,21.7c28.1,8.8,69.1,11.2,84.9,4.9c5-2,5.1-2.1,11-12.4
		c10.6-18.8,16.3-25.8,23.2-28.6c1.5-0.6,2.9-1.7,2.9-2.3c0-1.5-16.3-5.5-29.5-7.2C1418.7,1246.8,1388.6,1245.7,1383.5,1246.4z"/>
	<path id="structure58_label62_APTD" bar:growlevel="0" bar:type="" class="st85" d="M1453.4,1258.5c-8,4.1-15.8,15.6-29.3,43.2
		c-6.9,14-16.7,37.1-16.7,39.2c0,1.6,8.9,11,15.6,16.4c18.7,15.2,44.7,30.5,70.8,41.5c13.6,5.8,36.7,13.6,40.1,13.6
		c2.3,0,2.3-0.1,1.8-4.8c-1.3-10.7-3.2-33.3-3.7-44.3c-1.8-37.6-8.4-63.4-20.8-82.1c-11.1-16.7-21.7-22.1-47.6-24.2
		C1458.3,1256.6,1456.8,1256.9,1453.4,1258.5z"/>
	<path id="structure59_label63_LPMC" bar:growlevel="0" bar:type="" class="st86" d="M1503.1,1209.3c-0.3,1.3-0.4,8-0.1,14.8
		c0.5,15.4,2.8,23.7,11,40.2c6.9,14.1,18.9,34.4,21,35.5c2.4,1.3,22.4,4.4,35.4,5.6c13,1.1,25.9,0.5,31.4-1.3
		c5.7-2,12.4-7.7,17.2-14.3c10.5-15,11.3-33.2,2.3-51.5c-6.2-12.5-5.7-12.2-25.6-17c-32.7-7.8-59.4-12.3-82.7-13.8l-9.2-0.5
		L1503.1,1209.3z"/>
	<path id="structure60_label64_MPT" bar:growlevel="0" bar:type="" class="st87" d="M1244.9,1236.1c-8.4,1.4-18,3-21.3,3.5
		c-5.7,1-6.5,1.4-15.5,8.9c-5.2,4.3-16.6,14.3-25.4,22.1l-15.8,14.2l0.4,3.5c1.2,9,11.1,21.7,25.2,32.4c8,6,23.8,13.9,33,16.6
		c9.2,2.6,25.9,2.3,36.4-0.9c26.2-7.8,47.6-23.1,56.4-40.3c3.1-6.3,3.2-7.7,0.4-10.5c-4.2-4-4.4-10.3-0.4-15.6c3-4,2.4-4.7-2.9-3.8
		c-15.6,2.4-35.7-3.1-44.9-12.3c-4.8-4.8-7.1-10-7.1-15.9C1263.4,1232.4,1265.3,1232.6,1244.9,1236.1z"/>
	<path class="st88" d="M1177.6,1250.3c-0.7-15.6-5.9-32.4-12.1-38.8c-5.8-6-18.4-11.5-36.7-16.1c-8.3-2.1-15.3-3.1-22.1-3.1v112.9
		c1.3,0,2.6-0.1,4.1-0.1c10.5-0.3,17.9-0.9,21-1.8c11.4-3.3,29.5-13.9,36.5-21.2C1176.1,1273.5,1178.3,1266,1177.6,1250.3z"/>
	<path id="structure62_label67_PPT" bar:growlevel="0" bar:type="" class="st89" d="M1354.2,1218.3c-0.2,0.2-20.2,3.5-44.5,7.4
		c-31.5,4.9-44.5,7.4-45.2,8.4c-3,3.5-0.4,12.2,5.3,18.5c7,7.7,19,12.6,33.6,13.7c8.4,0.6,13.1-0.5,26.2-6.1c14.2-6,41-13.4,49-13.4
		c3.8,0,3.4-2.8-0.5-4.9c-4.4-2.4-11.1-9.7-15.8-17.4c-3-4.8-4.6-6.6-5.9-6.6C1355.4,1218,1354.3,1218.2,1354.2,1218.3z"/>
	<path id="structure63_label68_PoDG" bar:growlevel="0" bar:type="" class="st9" d="M1641.7,1110c-9.3,2.4-77,30.2-86,35.4
		c-3.6,2-4.5,4.2-1.8,4.3c0.8,0,8.6,0.2,17.3,0.4c32.5,0.8,58.3,3.6,70.7,7.7c13.9,4.6,32,14,54.3,28c13,8.1,13.9,7.2,5-4.4
		c-6.8-8.9-12.1-19.1-12.1-23.4c0-13.2,16.8-15.6,44.3-6c21.4,7.4,40.9,17.6,67.7,35.5c24.3,16.1,32.8,21.6,33.8,21.6
		c2,0,0.6-3.3-4.8-11.6c-8.3-12.5-12-16.8-20.5-24c-16.4-13.9-43.7-31.7-57.2-37.3c-12.7-5.3-18.7-6.4-40.8-7.2
		c-16.7-0.6-21.3-1.1-26.2-2.6c-6.7-2.1-13.4-6.7-17.5-11.9c-1.4-1.9-4-4-5.6-4.8C1658.5,1107.7,1649.6,1107.9,1641.7,1110z"/>
	<path id="structure64_label69_MoDG" bar:growlevel="0" bar:type="" class="st41" d="M1622.3,1049.7c-24,3.4-40.3,10.4-61,26.1
		c-12.8,9.8-18.5,14.8-39.1,35.5c-24.3,24.2-28.4,30.6-28.6,44.6c-0.1,5.8,0.4,7.7,2.4,11.9c4.5,9.3,15.4,17.6,32.7,24.8l7.9,3.3
		l28.8,0.5c28,0.5,29.2,0.6,42.1,3.4c24.9,5.4,32.8,8.4,48.3,18.6c12.8,8.4,26.9,15.8,34.2,17.8c2.7,0.7,12.1,2.4,20.7,3.7
		c8.6,1.3,17.5,2.8,19.6,3.3c2.1,0.5,4.1,0.7,4.2,0.5c0.5-0.4-0.9-12.5-1.9-16.7c-0.4-1.8-0.8-2-3.1-1.5c-3.2,0.7-4.6-0.2-19.8-13.1
		c-18.3-15.6-28.4-22.3-47.5-31.9c-12.9-6.4-26.5-11.7-36.6-14.4c-17.9-4.7-48.7-4.9-77.6-0.5c-7.6,1.1-12.3,1.4-14.8,0.9
		c-2.2-0.4-4.1-0.7-4.5-0.8c-1.7-0.1-7.9-6.8-8.8-9.4c-1.4-4.3,0.4-9.6,4.9-14.6c3.5-3.7,4.9-4.4,23.4-11.1
		c22.8-8.3,30.3-11.8,55-25.2c9.9-5.4,21.5-11.4,25.7-13.4c14-6.5,31-8.1,40-3.7c2.9,1.4,5.2,3.7,8.3,7.9c6,8.6,10.9,13.5,15,15.7
		c4.1,2.1,8.2,2.3,25.3,1.3c10.4-0.7,12.5-0.5,19,1.1c10.3,2.6,19.3,6.5,31.1,13.6c33.4,19.8,69.1,47.4,80.4,62.2
		c7.9,10.4,14.5,23.5,17.9,35.7c1.8,6.8,1.1,9.3-2.6,8.6c-1.4-0.4-2.3-0.1-2.3,0.7c0,0.6,6,10.3,13.3,21.4
		c22.7,34.5,30.4,48.1,51.3,89.7c18.6,37.1,25,46.3,32.1,46.3c2.8,0,3.2-0.3,3.2-2.3c0-3.1-34.3-97-44.2-121.3
		c-20.4-49.7-40.5-86.3-61.7-112.7c-21-25.9-57.4-54.6-90.8-71.4c-22.5-11.3-69.3-26.9-98.9-33.1
		C1653,1049.3,1632.4,1048.3,1622.3,1049.7z"/>
	<path id="structure65_label70_LMol" bar:growlevel="0" bar:type="" class="st11" d="M1596.8,1004.1c-12.1,3.2-20.9,8.1-32.8,18.1
		c-8.6,7.3-14.7,13.8-31.8,34.2c-28.7,34.2-82.8,82.8-113.1,101.6c-34.7,21.5-85.4,38.3-141.4,47c-14.2,2.3-42.9,2.3-54.9,0.1
		c-19.8-3.6-37.4-11-53-22.1c-9.7-6.8-23.8-19.9-28.5-26.4c-1.8-2.4-3.7-4.4-4.2-4.4c-1.6,0.1-7.8,9.5-7.8,11.9
		c0,5,11.3,18.9,21.7,26.7c8.5,6.4,16.2,10.4,32.8,17.2c22.3,9.1,40.9,14.6,53.4,15.8c5.3,0.5,8.8,0,29-4.5c27-6,68-15.8,80.1-19
		c9.6-2.6,40.1-13.9,61.2-22.6c19.7-8.1,53.8-25,69.8-34.6c22.9-13.7,34-22.3,55.8-43c40.4-38.5,66.5-51.4,104.4-51.5
		c17.6-0.1,30.6,2.4,60.3,11.3c46.2,13.9,67.9,23.5,95.2,41.5c18.8,12.5,42.6,32.2,53.3,44.2c17.8,19.9,33.7,44.3,49.9,76.7
		c14.3,28.4,25,55,48.8,120.4c9.8,27.1,17.8,48,18.5,48c1.7,0,7.6-7,9.4-11.5c4.5-10.5,5.8-31.5,3.1-50.5
		c-3.5-23.9-12.9-54.3-25-80.8c-25.4-55.4-72.3-111.5-128-152.8c-37.3-27.8-105.4-61.9-161.7-81.1c-25.3-8.6-33.6-10.4-47.5-10.8
		C1605.2,1003.1,1599.9,1003.3,1596.8,1004.1z"/>
	<path id="structure66_label71_Po" bar:growlevel="0" bar:type="" class="st90" d="M1528.9,1296.3c0,0.4,1.2,5,2.6,10.1
		c5.7,19.8,9,39.4,11.3,67.8c0.7,8.9,3,29.3,4.9,45.4c5.3,42.4,5.6,62.1,1.3,91.8c-5.3,36.7-18,68.5-38.8,97.3
		c-4.8,6.7-3.7,7.6,4.7,4.5c2.5-0.9,8.7-2.7,14-3.9c8.3-1.8,11.8-2.1,28.8-2.1c16.7,0,20.8,0.3,29.6,2.1c5.6,1.2,10.4,1.8,10.7,1.5
		c0.4-0.3-0.1-1.6-0.9-3c-9.3-14.8-13.2-24.4-16-38c-6.6-32.1,0-77.9,15.4-108.2c7.6-14.9,17.2-23.2,35-30.6c3.2-1.3,7.6-2.7,9.7-3
		c6-1,4.9-3-4.5-8.4c-21.7-12.3-42.2-31.6-61.9-58.2c-7.4-10-20.8-30.1-33.8-50.7C1532.5,1297.4,1528.9,1293,1528.9,1296.3z"/>
	<path class="st91" d="M1231.9,1471.6c-3.1-5.2-5.6-14.2-9.2-32.6c-1.9-9.8-4.1-19.9-4.9-22.3c-1.8-5.5-9.4-13.9-16.5-18.3
		c-12.2-7.4-38.3-16.9-56.3-20.7c-10.4-2.2-33.6-5.1-37.8-4.8c-0.1,0-0.3,0-0.5,0v48.2c3.2,0,6.6,0.2,14.9,0.5
		c24.5,1,40.2,4.3,50.8,10.6c4.2,2.6,7.3,6.1,22.2,25.9c14.7,19.3,18.3,24.8,23,34.4c3.1,6.3,6,11.4,6.6,11.5c2,0,9.4-21.6,9.4-27.3
		C1233.7,1475.6,1232.8,1473.2,1231.9,1471.6z"/>
	<path class="st92" d="M1216.3,1489.4c-2.1-3.9-11.8-17.7-21.6-30.8c-19.3-25.7-20.1-26.5-31.9-30.5c-8.4-2.9-21.2-4.9-34.1-5.6
		l-11-0.5l0.2,9.5c0.2,6.1,0.6,10,1.4,10.7c2.4,2.4-0.2,17-5,26.8l-3.2,6.8l-0.2,57.6c-0.2,56-0.8,72.8-3.1,77
		c-0.4,0.7-0.7,1-0.9,1.2v165.9c0.6-0.4,1.1-1.5,1.4-3.3c3-16.8,6.5-27.8,13.9-43.2c10.2-21.1,19.8-35.3,26.5-38.8
		c3.3-1.8,3-3.9-2.3-10.2c-5.3-6.7-11.8-19.4-13.9-27.6c-3.7-14.4-2.3-29.5,3.7-42.3c4-8.5,7.4-12.8,12.9-16.2
		c12-7.3,25.3-7.2,42.9,0.4c6.3,2.7,7.9,3.1,8.6,2.1c0.4-0.7,0.8-1.5,0.8-1.9s2.9-3.9,6.4-7.6c10.9-12,16.7-26.8,19-48.5
		C1228.4,1522.9,1225,1505.8,1216.3,1489.4z M1202.4,1556.2c-5.2,8.8-19.6,20.3-30.7,24.5c-20.7,7.8-36.2-3.3-36.2-26
		c0-37.1,36.5-78.3,59.9-67.7c5,2.3,8.9,7,11.2,13.8C1212.5,1518.8,1210.8,1541.9,1202.4,1556.2z"/>
	<path class="st93" d="M1141.2,1879.5c0-21.1-2.2-49.7-4.4-57.6c-2.3-7.7-5.3-12.9-10.3-17.4c-5.1-4.6-12.6-7.3-19.8-7.4v118.3
		c9.2,0.3,22.6,14.4,23.9,26.4c1,8.5,2.6,6.5,3.8-4.5c0.5-5.3,2.3-16.1,3.9-24C1141.1,1899.6,1141.3,1897.7,1141.2,1879.5z"/>
	<path class="st7" d="M2185.9,1416c-1.8-36.1-5.7-64.3-13.1-96c-18.4-77.8-63.4-170.5-112.3-230.9c-55-68-121.5-114-242.2-167.6
		c-77.6-34.4-150.3-58.9-243.7-82c-19.7-4.9-21.6-5.1-24.3-4.1c-7.1,2.9-29.3,2.3-62.6-1.8c-37.5-4.6-74.1-3.5-95.6,2.7
		c-19.6,5.7-23.7,8.6-63.8,47.8c-49.4,48.2-60,57.8-77,69.8c-25.6,18.2-59.4,34.8-94.1,46.6c-17.9,6-24.1,6.9-50.4,6.7v82.5
		c13.9,0,27.6-0.5,36.5-1.7c63.5-8.5,119.8-26.9,158-52c11.9-7.7,19.9-14.7,28.3-24.2c11.9-13.5,17.1-22,38.7-63
		c18.7-35.5,33-52.4,53.8-63.4c24.8-13.1,74.4-20.3,117.3-16.6c36.7,3,80.5,13,126.8,28.8c176.3,60.3,287.9,131.1,353,224.1
		c32.2,46,63.4,119.2,88.8,208.5c6.3,22.2,17.9,68.1,24.4,97c2.8,12.3,6.9,28.1,9.1,34.9c9.9,30.6,15.6,63.1,18.4,105.5
		c1.5,22.7,2.3,130.9,1,152.1c-5.7,97.5-32,173.6-78.4,226.6c-13.7,15.6-49.7,39.1-90.5,59.1c-24.7,12.1-43.6,20.1-92.7,39.4
		c-21.3,8.4-45.2,17.9-53.1,21.1c-15.4,6.3-26.7,9.5-51.8,14.7c-40.8,8.5-58.5,14.4-74,24.8c-6.6,4.5-16,13.2-16,14.9s3.1,1.6,4.5,0
		c2.2-2.7,18.5-12.6,28.6-17.4c14.9-7.1,33.9-13.1,54.7-17.3c29.1-5.8,42.8-9.7,74.6-21.7c66.8-25.1,141.4-57.3,165.8-71.6
		c37.2-21.8,62.7-45.7,82.6-77.3c5.8-9.4,24-45.6,28.8-57.6c14.9-37.3,23-95.7,27-195.3c1-23.8,2.3-42.9,5.3-72.4
		C2185.3,1500.5,2187.8,1454.6,2185.9,1416z"/>
	<path id="structure72_label78_VS" bar:growlevel="0" bar:type="" class="st94" d="M1777.7,2032.6c-57.1,17.2-97.1,35.4-125.9,57.3
		c-12.4,9.4-27.5,25.9-27.5,30c0,2.3,5.4,13.1,10.5,21c7.8,12.2,21.3,23.9,27.4,23.9c4.1-0.1,9.8-2.8,13.6-6.6
		c3.5-3.4,10-13.9,16.5-26.6c5.6-10.7,12.9-20.7,20.3-27.4c11.8-10.6,37.3-20.8,72.9-29c33.9-7.8,59.9-15.8,83.5-25.8
		c16-6.8,16.6-8,3.8-9c-10.9-0.9-38.3-4.5-62.9-8.5c-10.6-1.7-19.5-3.1-19.8-3C1789.7,2029.1,1784.2,2030.7,1777.7,2032.6z"/>
	<path id="structure73_label79_DS" bar:growlevel="0" bar:type="" class="st95" d="M1426.9,979.2c-2.5,30.4-5.8,46.4-12.3,60.4
		c-8.2,17.5-20.3,29.3-37.6,37.3c-25.7,11.6-104.9,23.3-203.6,30.1c-11.6,0.7-21.2,1.5-21.4,1.7c-0.2,0.2,0.1,1.8,0.7,3.6
		c1.3,3.7,1.5,15,0.5,18.2c-0.4,1.2-1.2,2.1-1.7,2.1c-1.4,0.1-13.2,16.6-13.2,18.5c0,2.3,8.8,12.8,16.5,19.7
		c19.3,17.5,39,27.8,63,33c8.2,1.8,11.7,2.1,31.7,2c18.7,0,24.5-0.4,34.4-2c44.7-7.3,87.8-20.7,120-37.2c10.6-5.4,25.5-15,37.8-24.5
		c15.9-12.1,16.3-12.7,12.1-17.7c-3.6-4.2-8.9-6.7-14.9-6.7l-5.1-0.1l7-7.2c15.9-16.4,21.9-34.7,22.1-67.9
		c0.1-12.4-0.2-14.7-2.1-20.3c-3.1-9-10.3-24.2-18.3-37.9c-3.8-6.5-7.9-14.7-9.4-18.2c-1.3-3.6-3-6.5-3.5-6.5
		C1428.9,959.7,1427.9,966.9,1426.9,979.2z M1183.7,1117.6c7.9,2.7,21.5,7.6,30.2,10.8c45.6,17.5,57.7,21.5,72.7,24.5l7.8,1.6
		l-0.9,3.1l-0.9,3.1l-12.2-0.5c-13.9-0.6-25.7-2.4-34.7-5.2c-8.8-2.7-31.7-11.5-43.2-16.7c-16.2-7.3-41.8-22.9-41.8-25.6
		C1160.8,1110.9,1168.5,1112.6,1183.7,1117.6z M1340.1,1153.8c-0.6,0.2-1.7,0.2-2.3,0c-0.6-0.3-0.2-0.4,1.1-0.4
		C1340.2,1153.4,1340.7,1153.5,1340.1,1153.8z M1332.9,1154.7c-0.6,0.2-1.9,0.2-2.7,0c-0.9-0.3-0.4-0.4,1.1-0.4
		C1332.8,1154.3,1333.5,1154.4,1332.9,1154.7z M1318.5,1155.6c-3.6,0.2-9.6,0.2-13.5,0c-3.9-0.1-0.9-0.3,6.5-0.3
		C1319,1155.3,1322.1,1155.5,1318.5,1155.6z"/>
	<path class="st96" d="M1136.9,1962.2c-2.9-5.1-5.6-13.2-6.7-20.5c-1.2-7-3.5-11.9-8.5-17.1c-5.7-5.9-10.4-8.7-15-8.8v48.7
		c8.5,0,17.2,0.7,22.8,2.1c4.4,1.1,8.4,2,8.8,2C1139.8,1968.6,1139.2,1966.2,1136.9,1962.2z"/>
	<path id="structure75_label81_cp" bar:growlevel="0" bar:type="" class="st97" d="M1716.5,1705.2c-8.8,2.8-16.3,7.8-40,27
		c-16.9,13.7-28.6,24.5-31.1,28.8c-4.8,8.2-2,16.2,8.8,24.8c6.5,5.1,7.8,7.4,8.5,14c1.2,11.4-8,43.8-18.6,65.7
		c-8.1,16.8-32.9,54.1-49.4,74.3c-21.2,26.1-59.5,59-81.6,70.4c-33.4,17.1-102.9,36.7-130,36.7c-15.4,0-25.5-3.8-33.5-12.6
		c-2.7-3-5.3-5.4-5.8-5.4c-1.6,0-2.1,3.6-2.1,18c0,21.3,3.3,32.5,11.1,37.6c3.3,2.2,4,2.3,21.8,2.7c26.8,0.6,52.9-1.9,82.1-8
		c36.1-7.5,53.4-15.5,76.8-35.5c8-6.8,34-36.1,52.8-59.4c25.5-31.5,48.4-62.5,67.8-91.4c6.2-9.2,25.8-36.1,43.7-59.8
		c17.8-23.8,34-45.5,36-48.5l3.6-5.2l-0.3-8.3c-0.2-4.5,0.4-14,1.3-21.2c2.3-19.1,2.1-32.6-0.3-38c-2.5-5.7-6.3-7.9-12.9-7.8
		C1722.4,1704.1,1718.5,1704.6,1716.5,1705.2z"/>
	<path id="structure76_label82_ml" bar:growlevel="0" bar:type="" class="st98" d="M1526.2,1713.6c-10,3.2-36.4,9.5-50.7,12
		c-39.4,7-60.4,14.5-80.7,29.1c-27.6,19.7-65,56.8-80.1,79.7c-8.2,12.3-11.9,21.1-12.4,29.9c-0.4,6.4-0.3,6.8,2.1,9.2
		c6.6,6.6,23.4,5.5,39.2-2.4c22.3-11.3,98.9-59.8,117.1-74.3c12.9-10.3,40-37.5,50.9-51.3c16.3-20.4,24.1-33.5,19.9-33.1
		C1530.7,1712.3,1528.4,1712.9,1526.2,1713.6z"/>
	<path class="st19" d="M1484.5,1629.7c-24.5,12-57.8,14.6-75.3,5.9c-27.1-13.6-41.7-53.7-41.8-114.8c0-37.7,4.8-67.4,18.3-114.3
		c11.4-39.9,20.1-64.6,31.1-90c3.7-8.5,6.8-15.9,6.8-16.6c0-0.8-0.7-1-2-0.7c-12.8,3-15.8,3.3-27.9,3.3c-20.7,0-45.3-3.9-62.5-10
		c-8.9-3.1-9.9-3.2-10.6-0.5c-1.8,7.2-14.5,21.5-25.9,29.3c-17.5,11.8-36.2,18.2-53.2,18.2c-9.6,0-17-1.7-27.6-6.2
		c-20.4-8.7-42.1-28.4-46.1-41.8c-0.5-1.9-1.5-3.7-2.2-4c-0.6-0.3-4.1,1.5-7.7,3.9c-8.2,5.3-18.5,10.5-25,12.6
		c-4,1.3-15.3,2-26.1,2.1v66.8c25.6-0.2,50.2,0,57.1,0.8c19.2,2,36.2,6.8,58,16.6c21.5,9.6,48.6,26.2,54.7,33.4
		c7.9,9.4,14.7,24,16.8,36.6c1,5.8,1.2,6.2,5.2,8.8c14.9,9.9,22.1,40,13.6,57.3c-3.2,6.7-10.3,12.8-20.5,17.8
		c-10.6,5.3-20.3,7.6-30.8,7.7c-12.2,0-19.2-2.3-27.4-9.2c-2.3-1.9-4.6-3.5-5.1-3.5c-0.5,0-1.2,1.9-1.4,4.2
		c-1.7,12.3-6.3,27.2-10.8,34.9c-1.4,2.3-5.2,7.1-8.6,10.9c-3.4,3.8-6.2,7.6-6.2,8.5c0,1.3,1.5,2.1,6.6,3.6
		c14.4,4.3,31.2,14.1,38.8,22.6c8,8.9,10.4,16.9,10.4,34.6c0,15.2-3.3,25-12.1,35.6c-6.6,7.9-6,8.3,7.6,5.3
		c11-2.3,32.7-3.2,43.7-1.8c20,2.7,41.1,9,47.2,14.1c9.7,8.4,7.9,27.1-5.1,52.7c-14.6,28.6-33.4,47.9-54.5,55.4
		c-10.9,4-18,5-30.2,4.4c-17.2-0.8-28.9-5.9-40.7-17.6c-11.3-11.4-18.8-26.8-18.8-39c0-7.1,3.6-17.9,9.1-27
		c4.1-7.1,12.7-19.1,14.2-20.1c1.3-0.8,1.3-3.1-0.1-3.1c-0.6,0-4.1,1.6-7.9,3.5c-12.4,6.5-21.6,7.8-34.2,5c-9.1-2-8.5-2.5-10.3,7.8
		c-2.7,15.5-6.9,26.2-15.8,40.1l-3.1,4.7l1.5,13.3c2.8,25.6,3.5,38.7,3.6,61.9c0.1,20.8-0.1,23.8-1.5,26.3c-1.4,2.5-2.1,3-4.7,3
		h-3.1v6.5c-0.1,3.6-0.6,9.8-1.4,13.8c-4.4,24.1-5.9,34.2-6,43.7l-0.2,10.5l3.2,5.3c1.9,3,5.8,7.4,9,10.1
		c11.8,9.8,20.9,18.6,24,23.3c4.2,6.5,5.3,6.2,5.2-1.2c-0.1-5.4,0.1-6.1,2.4-8.1c6.2-5.4,21.5-0.7,72.5,22
		c10.1,4.5,18.9,8.2,19.6,8.2c1.7,0,1.4-2.4-0.5-5.2c-5.1-7.4-10.1-21.3-12.2-34.7c-1.7-10.7-1.7-31.6,0-43.7
		c4.1-28.3,13-44,29.3-52.3c4-1.9,8.6-3.8,10.3-4.1c1.8-0.3,3.2-1.1,3.2-1.8c0-0.7,0.6-1.3,1.4-1.3c1.1,0,1.3-0.5,0.9-2.1
		c-1.5-4.9-1.5-7.9-0.2-13.1c1.6-6.3,6.2-15.9,11.7-24.5c11.5-17.7,45.9-53.1,71.2-73c7.7-6.1,21.4-15.4,25.7-17.5
		c2.8-1.3,3.3-2.1,4.2-6.7c2.9-13.7,12.7-28.3,43.4-64c24.8-28.9,37.8-45.2,37.8-47.3C1496.5,1624.1,1495.4,1624.4,1484.5,1629.7z
		 M1208,1902.4c-5,18.4-17.8,32.3-30.8,33.5c-4.7,0.4-5.7,0.1-9.4-2.3c-8-5.1-12.8-19.3-12.8-38c0-12.1,1.9-21.2,7.5-35.4
		c6.1-15.8,13.8-27.1,20.3-30c3.5-1.5,3.8-1.5,8.1,0.5c4,1.8,7.9,5.9,10.2,10.6c0.9,1.9,2.1,3,3.2,3c1.3,0,1.5,0.3,0.7,0.8
		c-0.9,0.5-0.7,2.3,1.1,8.3C1210.6,1869,1211.4,1889.8,1208,1902.4z"/>
	<path class="st96" d="M1136.9,1962.2c-2.9-5.1-5.6-13.2-6.7-20.5c-1.2-7-3.5-11.9-8.5-17.1c-5.7-5.9-10.4-8.7-15-8.8v48.7
		c8.5,0,17.2,0.7,22.8,2.1c4.4,1.1,8.4,2,8.8,2C1139.8,1968.6,1139.2,1966.2,1136.9,1962.2z"/>
	<path id="structure9_label6_PR" bar:growlevel="0" bar:type="" class="st99" d="M1266.2,1697.8c-9.4,0.8-25.5,4.4-31.1,7
		c-7.8,3.5-25.1,23.5-32.8,37.8c-10,18.7-10.4,29.1-2.1,46.4c8,16.6,22.2,28.5,39.8,33.4c8.6,2.4,26.7,2.2,36.4-0.5
		c26.2-7,45.7-25.6,62.2-59c7.4-15,10.3-25.1,10.3-35.5c0-13.1-3.2-16.7-20.2-22.2c-12.9-4.1-23.8-6.4-36.6-7.6
		C1280.6,1696.7,1278.3,1696.7,1266.2,1697.8z"/>
	<text id="Unlabeled-1840-970" bar:growlevel="0" transform="matrix(1 0 0 1 1129.2559 1145.0586)" class="st100 st101 st102">grey</text>
	<text id="label30" bar:growlevel="0" transform="matrix(1 0 0 1 1839.207 2179.1016)" class="st100 st101 st102">PMCo</text>
	<text id="label31" bar:growlevel="0" transform="matrix(1 0 0 1 2088.6865 2080.9082)" class="st100 st101 st102">APir</text>
	<text id="label32" bar:growlevel="0" transform="matrix(1 0 0 1 2030.665 2011.9707)" class="st100 st101 st102">BL</text>
	<text id="label33" bar:growlevel="0" transform="matrix(1 0 0 1 2213.9961 1912.7305)" class="st100 st101 st102">DLEnt</text>
	<text id="label34" bar:growlevel="0" transform="matrix(1 0 0 1 2258.125 1742.4805)" class="st100 st101 st102">PRh</text>
	<text id="label35" bar:growlevel="0" transform="matrix(1 0 0 1 2272.6162 1647.4414)" class="st100 st101 st102">Ect</text>
	<text id="label36" bar:growlevel="0" transform="matrix(1 0 0 1 2277.5635 1553.4512)" class="st100 st101 st102">TeA</text>
	<text id="label38" bar:growlevel="0" transform="matrix(1 0 0 1 2282.665 1460.5098)" class="st100 st101 st102">AuV</text>
	<text id="label39" bar:growlevel="0" transform="matrix(1 0 0 1 2257.2256 1254.7402)" class="st100 st101 st102">Au1</text>
	<text id="label147" bar:growlevel="0" transform="matrix(1 0 0 1 2133.5352 1409.2988)" class="st100 st101 st102">dcw</text>
	<text id="label146" bar:growlevel="0" transform="matrix(1 0 0 1 2046.9863 2206.9414)" class="st100 st101 st102">af</text>
	<text id="label145" bar:growlevel="0" transform="matrix(1 0 0 1 1375.1973 1051.0391)" class="st100 st101 st102">alv</text>
	<text id="label144" bar:growlevel="0" transform="matrix(1 0 0 1 1348.6455 836.9004)" class="st100 st101 st102">cg</text>
	<text id="label9" bar:growlevel="0" transform="matrix(1 0 0 1 1146.0244 1646.4199)" class="st100 st101 st102">Dk</text>
	<text id="label207" bar:growlevel="0" transform="matrix(1 0 0 1 1193.2168 1894.9707)" class="st100 st101 st102">fr</text>
	<text id="label201" bar:growlevel="0" transform="matrix(1 0 0 1 1832.3662 1492.8809)" class="st100 st101 st102">opt</text>
	<text id="label202" bar:growlevel="0" transform="matrix(1 0 0 1 1823.0967 1548.1445)" class="st100 st101 st102">VG-1</text>
	<text id="label0" bar:growlevel="0" transform="matrix(1 0 0 1 1112.6357 2108.7207)" class="st100 st101 st102">ML</text>
	<text id="label1" bar:growlevel="0" transform="matrix(1 0 0 1 1171.1064 1963.9414)" class="st100 st101 st102">VTAR</text>
	<text id="label3" bar:growlevel="0" transform="matrix(1 0 0 1 1119.8457 1874.0918)" class="st100 st101 st102">RLi</text>
	<text id="label6" bar:growlevel="0" transform="matrix(1 0 0 1 1249.8242 1768.6094)" class="st100 st101 st102">PR</text>
	<text id="label81" bar:growlevel="0" transform="matrix(1 0 0 1 1453.1357 2060)" class="st100 st101 st102">cp</text>
	<text id="label80" bar:growlevel="0" transform="matrix(1 0 0 1 1111.4434 1955.1563)" class="st100 st101 st102">IF</text>
	<text id="label82" bar:growlevel="0" transform="matrix(1 0 0 1 1393.2559 1798.9082)" class="st100 st101 st102">ml</text>
	<text id="label176" bar:growlevel="0" transform="matrix(1 0 0 1 1113.7344 1428.1094)" class="st100 st101 st102">SCO</text>
	<text id="label177" bar:growlevel="0" transform="matrix(1 0 0 1 1584.2949 1155.5)" class="st100 st101 st102">GrDG</text>
	<text id="label175" bar:growlevel="0" transform="matrix(1 0 0 1 1242.1777 1430.1816)" class="st100 st101 st102">PCom</text>
	<text id="label172" bar:growlevel="0" transform="matrix(1 0 0 1 1242.1777 1145.0586)" class="st100 st101 st102">CA1</text>
	<text id="label171" bar:growlevel="0" transform="matrix(1 0 0 1 1538.0352 931.9707)" class="st100 st101 st102">Py</text>
	<text id="label178" bar:growlevel="0" transform="matrix(1 0 0 1 1113.7344 999.0723)" class="st100 st101 st102">IG</text>
	<text id="label179" bar:growlevel="0" transform="matrix(1 0 0 1 1150.4629 1122.6172)" class="st100 st101 st102">FC</text>
	<text id="label210" bar:growlevel="0" transform="matrix(1 0 0 1 1286.875 1769.6582)" class="st100 st101 st102">scp</text>
	<text id="label198" bar:growlevel="0" transform="matrix(1 0 0 1 1640.2461 1224.4414)" class="st100 st101 st102">bsc</text>
	<text id="label18" bar:growlevel="0" transform="matrix(1 0 0 1 1598.2461 1791.5918)" class="st100 st101 st102">SNL</text>
	<text id="label19" bar:growlevel="0" transform="matrix(1 0 0 1 1574.5156 1728.9199)" class="st100 st101 st102">ZIC</text>
	<text id="label12" bar:growlevel="0" transform="matrix(1 0 0 1 1232.2744 1514.2402)" class="st100 st101 st102">MCPC</text>
	<text id="label13" bar:growlevel="0" transform="matrix(1 0 0 1 1157.9365 1545.1094)" class="st100 st101 st102">Lth</text>
	<text id="label10" bar:growlevel="0" transform="matrix(1 0 0 1 1199.7324 1653.7559)" class="st100 st101 st102">InC</text>
	<text id="label11" bar:growlevel="0" transform="matrix(1 0 0 1 1271.1865 1598.1191)" class="st100 st101 st102">p1Rt</text>
	<text id="label16" bar:growlevel="0" transform="matrix(1 0 0 1 1468.7949 1692.3809)" class="st100 st101 st102">REth</text>
	<text id="label17" bar:growlevel="0" transform="matrix(1 0 0 1 1485.1162 1936.7891)" class="st100 st101 st102">SNR</text>
	<text id="label14" bar:growlevel="0" transform="matrix(1 0 0 1 1280.3955 1948.25)" class="st100 st101 st102">PBP</text>
	<text id="label15" bar:growlevel="0" transform="matrix(1 0 0 1 1420.4668 1531.5195)" class="st100 st101 st102">APTV</text>
	<text id="label169" bar:growlevel="0" transform="matrix(1 0 0 1 1111.4434 1459.4316)" class="st100 st101 st102">Aq</text>
	<text id="label165" bar:growlevel="0" transform="matrix(1 0 0 1 1921.0449 1538.5098)" class="st100 st101 st102">SLu</text>
	<text id="label164" bar:growlevel="0" transform="matrix(1 0 0 1 1682.1865 1642.2207)" class="st100 st101 st102">MZMG</text>
	<text id="label166" bar:growlevel="0" transform="matrix(1 0 0 1 1671.4473 1311.1113)" class="st100 st101 st102">IMA</text>
	<text id="label181" bar:growlevel="0" transform="matrix(1 0 0 1 1587.5352 1543.0098)" class="st100 st101 st102">MGM</text>
	<text id="label180" bar:growlevel="0" transform="matrix(1 0 0 1 1112.6357 1102.2207)" class="st100 st101 st102">dhc</text>
	<text id="label69" bar:growlevel="0" transform="matrix(1 0 0 1 1582.5244 1081.3086)" class="st100 st101 st102">MoDG</text>
	<text id="label68" bar:growlevel="0" transform="matrix(1 0 0 1 1629.5967 1134.082)" class="st100 st101 st102">PoDG</text>
	<text id="label67" bar:growlevel="0" transform="matrix(1 0 0 1 1289.8135 1252.6113)" class="st100 st101 st102">PPT</text>
	<text id="label65" bar:growlevel="0" transform="matrix(1 0 0 1 1112.6357 1278.7402)" class="st100 st101 st102">D3V</text>
	<text id="label64" bar:growlevel="0" transform="matrix(1 0 0 1 1213.1973 1297.582)" class="st100 st101 st102">MPT</text>
	<text id="label63" bar:growlevel="0" transform="matrix(1 0 0 1 1533.415 1271.4512)" class="st100 st101 st102">LPMC</text>
	<text id="label62" bar:growlevel="0" transform="matrix(1 0 0 1 1436.9053 1338.3223)" class="st100 st101 st102">APTD</text>
	<text id="label61" bar:growlevel="0" transform="matrix(1 0 0 1 1359.3857 1284.0195)" class="st100 st101 st102">OPT</text>
	<text id="label60" bar:growlevel="0" transform="matrix(1 0 0 1 1415.665 1235.9609)" class="st100 st101 st102">OT</text>
	<text id="label78" bar:growlevel="0" transform="matrix(1 0 0 1 1707.7744 2081.9609)" class="st100 st101 st102">VS</text>
	<text id="label79" bar:growlevel="0" transform="matrix(1 0 0 1 1352.0967 1120.4902)" class="st100 st101 st102">DS</text>
	<text id="label70" bar:growlevel="0" transform="matrix(1 0 0 1 1571.0352 1037.4512)" class="st100 st101 st102">LMol</text>
	<text id="label71" bar:growlevel="0" transform="matrix(1 0 0 1 1565.9961 1430.1816)" class="st100 st101 st102">Po</text>
	<text id="label72" bar:growlevel="0" transform="matrix(1 0 0 1 1118.457 1401.9629)" class="st100 st101 st102">pc</text>
	<text id="label73" bar:growlevel="0" transform="matrix(1 0 0 1 1122.7246 1509.2969)" class="st100 st101 st102">p1PAG</text>
	<text id="label228" bar:growlevel="0" transform="matrix(1 0 0 1 1119.8457 1977.8691)" class="st100 st101 st102">IPF</text>
	<text id="label229" bar:growlevel="0" transform="matrix(1 0 0 1 1233.3242 2009.9004)" class="st100 st101 st102">mp</text>
	<text id="Unlabeled-2432-1653" bar:growlevel="0" transform="matrix(1 0 0 1 1511.7559 1786.7773)" class="st100 st101 st102">grey</text>
	<text id="label223" bar:growlevel="0" transform="matrix(1 0 0 1 1960.0498 1729.6953)" class="st100 st101 st102">MoDG</text>
	<text id="label226" bar:growlevel="0" transform="matrix(1 0 0 1 1141.1973 1816.5195)" class="st100 st101 st102">mtg</text>
	<text id="label48" bar:growlevel="0" transform="matrix(1 0 0 1 1581.7744 1347.7109)" class="st100 st101 st102">LPLC</text>
	<text id="Unlabeled-2453-1016" bar:growlevel="0" transform="matrix(1 0 0 1 1785.3564 1220.6777)" class="st100 st101 st102">Py</text>
	<text id="label41" bar:growlevel="0" transform="matrix(1 0 0 1 1840.7949 1442.2402)" class="st100 st101 st102">Or</text>
	<text id="label40" bar:growlevel="0" transform="matrix(1 0 0 1 1632.3564 1487.6582)" class="st100 st101 st102">MGD</text>
	<text id="label45" bar:growlevel="0" transform="matrix(1 0 0 1 1797.2656 1585.8203)" class="st100 st101 st102">VG-2</text>
	<text id="label47" bar:growlevel="0" transform="matrix(1 0 0 1 1722.7168 1387.4004)" class="st100 st101 st102">DLG</text>
	<text id="label56" bar:growlevel="0" transform="matrix(1 0 0 1 1124.6973 966.4707)" class="st100 st101 st102">RSGb</text>
	<text id="label57" bar:growlevel="0" transform="matrix(1 0 0 1 1503.5967 919.4609)" class="st100 st101 st102">Or</text>
	<text id="label54" bar:growlevel="0" transform="matrix(1 0 0 1 1269.0244 699.082)" class="st100 st101 st102">RSD</text>
	<text id="label55" bar:growlevel="0" transform="matrix(1 0 0 1 1164.7461 825.4707)" class="st100 st101 st102">RSGc</text>
	<text id="label52" bar:growlevel="0" transform="matrix(1 0 0 1 1553.6973 725.2109)" class="st100 st101 st102">V2ML</text>
	<text id="label53" bar:growlevel="0" transform="matrix(1 0 0 1 1392.7744 695.9609)" class="st100 st101 st102">V2MM</text>
	<text id="label50" bar:growlevel="0" transform="matrix(1 0 0 1 2166.6865 1074.0488)" class="st100 st101 st102">AuD</text>
	<text id="label51" bar:growlevel="0" transform="matrix(1 0 0 1 1762.375 785.8086)" class="st100 st101 st102">V1</text>
	<text id="label58" bar:growlevel="0" transform="matrix(1 0 0 1 1534.7656 999.8906)" class="st100 st101 st102">Rad</text>
	<text id="label59" bar:growlevel="0" transform="matrix(1 0 0 1 1118.6738 1062.5918)" class="st100 st101 st102">scc</text>
	<text id="label125" bar:growlevel="0" transform="matrix(1 0 0 1 2085.7744 977.9316)" class="st100 st101 st102">PtPR</text>
	<text id="label127" bar:growlevel="0" transform="matrix(1 0 0 1 1912.4668 854.5098)" class="st100 st101 st102">V2L</text>
	<text id="label46" bar:growlevel="0" transform="matrix(1 0 0 1 1761.4707 1616.6191)" class="st100 st101 st102">VG-3</text>
	<text id="Unlabeled-1796-1937" bar:growlevel="0" transform="matrix(1 0 0 1 1113.7344 2004.9258)" class="st100 st101 st102">RM</text>
	<text id="label168" bar:growlevel="0" transform="matrix(1 0 0 1 1549.3467 1457.1289)" class="st100 st101 st102">PLi</text>
	<text id="text3287" bar:growlevel="0" transform="matrix(1 0 0 1 1761.1104 2121.875)" class="st100 st101 st102">AHiPM</text>
	<text id="label23" bar:growlevel="0" transform="matrix(1 0 0 1 1535.1865 1590.0195)" class="st100 st101 st102">PoT</text>
	<text id="label22" bar:growlevel="0" transform="matrix(1 0 0 1 1546.7949 1638.0488)" class="st100 st101 st102">PIL</text>
	<text id="label21" bar:growlevel="0" transform="matrix(1 0 0 1 1743.5967 1713.2598)" class="st100 st101 st102">LT</text>
	<text id="label20" bar:growlevel="0" transform="matrix(1 0 0 1 1685.3662 1693.4004)" class="st100 st101 st102">PP</text>
	<text id="label25" bar:growlevel="0" transform="matrix(1 0 0 1 1578.2949 1696.25)" class="st100 st101 st102">SPFPC</text>
	<text id="label24" bar:growlevel="0" transform="matrix(1 0 0 1 1647.207 1579.5488)" class="st100 st101 st102">MGV</text>
	<text id="label29" bar:growlevel="0" transform="matrix(1 0 0 1 2029.4053 2151.6875)" class="st100 st101 st102">OlfCx-1</text>
	<text id="label150" bar:growlevel="0" transform="matrix(1 0 0 1 1584.2949 2031.7988)" class="st100 st101 st102">GrDG</text>
	<text id="label151" bar:growlevel="0" transform="matrix(1 0 0 1 1599.3564 2022.4082)" class="st100 st101 st102">PoDG</text>
	<text id="label152" bar:growlevel="0" transform="matrix(1 0 0 1 1474.5547 1871.6309)" class="st100 st101 st102">SNCD</text>
	<text id="label153" bar:growlevel="0" transform="matrix(1 0 0 1 1970.3047 1837.3691)" class="st100 st101 st102">LMol</text>
	<text id="label154" bar:growlevel="0" transform="matrix(1 0 0 1 1768.8857 1526.1191)" class="st100 st101 st102">IGL</text>
	<text id="label155" bar:growlevel="0" transform="matrix(1 0 0 1 1141.4365 1753.9707)" class="st100 st101 st102">MA3</text>
	<text id="label156" bar:growlevel="0" transform="matrix(1 0 0 1 1233.8105 1679.7949)" class="st100 st101 st102">InCSh</text>
	<text id="label163" bar:growlevel="0" transform="matrix(1 0 0 1 1325.0352 2051.1504)" class="st100 st101 st102">MT</text>
	<text id="label126" bar:growlevel="0" transform="matrix(1 0 0 1 1986.6865 902.75)" class="st100 st101 st102">PtPD</text>
</g>
</svg>
