<?xml version="1.0" encoding="utf-8"?>
<!-- Generator: Adobe Illustrator 24.1.1, SVG Export Plug-In . SVG Version: 6.00 Build 0)  -->
<svg version="1.1"
	 id="body" inkscape:version="0.47pre4 r22446" sodipodi:docname="190_pretrace_pretrace_v1.svg" xmlns:bar="http://www.3dbar.org" xmlns:cc="http://creativecommons.org/ns#" xmlns:dc="http://purl.org/dc/elements/1.1/" xmlns:inkscape="http://www.inkscape.org/namespaces/inkscape" xmlns:rdf="http://www.w3.org/1999/02/22-rdf-syntax-ns#" xmlns:sodipodi="http://sodipodi.sourceforge.net/DTD/sodipodi-0.dtd" xmlns:svg="http://www.w3.org/2000/svg"
	 xmlns="http://www.w3.org/2000/svg" xmlns:xlink="http://www.w3.org/1999/xlink" x="0px" y="0px" viewBox="0 0 3024 3024"
	 style="enable-background:new 0 0 3024 3024;" xml:space="preserve">
<style type="text/css">
	.st0{fill:#FF000C;}
	.st1{fill:#00EFD6;}
	.st2{fill:#59EFE0;}
	.st3{fill:#59DFD0;}
	.st4{fill:#00FFE3;}
	.st5{fill:#6B3BC3;}
	.st6{fill:#8553C7;}
	.st7{fill:#8EDFA5;}
	.st8{fill:#C49AFA;}
	.st9{fill:#59FFF2;}
	.st10{fill:#59E9B5;}
	.st11{fill:#00CF69;}
	.st12{fill:#00CFBB;}
	.st13{fill:#915FE5;}
	.st14{fill:#00C2FF;}
	.st15{fill:#2CDFD0;}
	.st16{fill:#FFB2BA;}
	.st17{fill:#2CDF84;}
	.st18{fill:#59FF90;}
	.st19{fill:#B2FFCC;}
	.st20{fill:#FF5974;}
	.st21{fill:#85FFC1;}
	.st22{fill:#98E4FF;}
	.st23{fill:#00FFF3;}
	.st24{fill:#23F460;}
	.st25{fill:#5523C7;}
	.st26{fill:#00FF1C;}
	.st27{fill:#59CB88;}
	.st28{fill:#9F76E9;}
	.st29{fill:#00EF7A;}
	.st30{fill:#B2FFE5;}
	.st31{fill:#47FF7C;}
	.st32{fill:#00FFA4;}
	.st33{fill:#B2FFE3;}
	.st34{fill:#00FFAF;}
	.st35{fill:#59FFCB;}
	.st36{fill:#85FFF5;}
	.st37{fill:#85DFD7;}
	.st38{fill:#8EE9A9;}
	.st39{fill:#6100FA;}
	.st40{fill:#B88EF2;}
	.st41{fill:#23DF5A;}
	.st42{fill:#650BE1;}
	.st43{fill:#590BD4;}
	.st44{fill:#00E996;}
	.st45{fill:#4CA6C7;}
	.st46{fill:#645452;}
	.st47{fill:#00EFC8;}
	.st48{fill:#B2FFE4;}
	.st49{fill:#E359E9;}
	.st50{fill:#00FFD5;}
	.st51{fill:#00FF34;}
	.st52{fill:#00FF7B;}
	.st53{fill:#FFB2C8;}
	.st54{fill:#00FF51;}
	.st55{fill:#4CBEE7;}
	.st56{fill:#33C2F7;}
	.st57{fill:#00A9DF;}
	.st58{fill:#7923FF;}
	.st59{fill:#00F448;}
	.st60{fill:#2CFFEA;}
	.st61{fill:#AD8ED8;}
	.st62{fill:#B2FFC2;}
	.st63{fill:#8600FF;}
	.st64{fill:#00D7F2;}
	.st65{fill:#232323;enable-background:new    ;}
	.st66{font-family:'TimesNewRomanPSMT';}
	.st67{font-size:27px;}
	.st68{font-family:'ArialMT';}
</style>
<sodipodi:namedview  bordercolor="#666666" borderopacity="1" gridtolerance="10" guidetolerance="10" id="namedview305" inkscape:current-layer="content" inkscape:cx="569.29493" inkscape:cy="498.55462" inkscape:pageopacity="0" inkscape:pageshadow="2" inkscape:window-height="1027" inkscape:window-maximized="1" inkscape:window-width="1680" inkscape:window-x="0" inkscape:window-y="0" inkscape:zoom="4" objecttolerance="10" pagecolor="#ffffff" showgrid="false">
	</sodipodi:namedview>
<desc  id="desc5">This was produced by version 4.2 of GNU libplot, a free library for exporting 2-D vector graphics.</desc>
<defs>
	<rdf:RDF>
		<cc:Work  rdf:about="">
			<dc:format>image/svg+xml</dc:format>
			<dc:type  rdf:resource="http://purl.org/dc/dcmitype/StillImage"></dc:type>
		</cc:Work>
	</rdf:RDF>
	<bar:data  content="-13.68" name="coronalcoord"></bar:data>
	
		<bar:data  content="{&apos;ReferenceHeight&apos;: 900, &apos;ReferenceWidth&apos;: 1200, &apos;imageSize&apos;: (1200, 900)}" name="rendererConf">
		</bar:data>
	
		<bar:data  content="{&apos;DumpEachStepSVG&apos;: False, &apos;DumpEachStepPNG&apos;: False, &apos;GrowDefaultBoundaryColor&apos;: 200, &apos;CacheLevel&apos;: 5, &apos;NewPathIdTemplate&apos;: &apos;structure%d_%s_%s&apos;, &apos;PoTraceConf&apos;: {&apos;potrace_accuracy_parameter&apos;: &apos;0.001&apos;, &apos;potrace_width_string&apos;: &apos;1200pt&apos;, &apos;potrace_svg_resolution_string&apos;: &apos;300x300&apos;, &apos;potrace_height_string&apos;: &apos;900pt&apos;}, &apos;DetectUnlabelled&apos;: True, &apos;DumpVBrain&apos;: False, &apos;DumpWrongSeed&apos;: True, &apos;DumpDirectory&apos;: &apos;.&apos;, &apos;MinFiterTimesApplication&apos;: 3, &apos;RegionAlreadyTraced&apos;: 100, &apos;UnlabelledTreshold&apos;: 500}" name="tracingConf">
		</bar:data>
	<bar:data  content="0.0176211454,-9.5150660793,0.0176211454,-1.5355884426" name="transformationmatrix"></bar:data>
</defs>
<g id="content">
	<path class="st0" d="M2149,1231c-0.7-21.9-4.9-37.7-15.8-60.8c-12.6-26.5-36.8-63.4-59-90c-33-39.7-75.6-77.2-124-109.4
		c-31-20.6-58.6-34.6-86.8-43.9c-16-5.3-25.5-7-49.7-9.1c-55.2-4.7-109.1-10.4-134.1-14c-23.1-3.3-32.9-2.7-47,3.2
		c-16,6.7-22.3,18.2-22.3,41.1c0,11.5-0.5,12.1-5.5,6.9c-4.7-4.9-10.6-8.3-20.3-11.7c-16.7-6-19.2-8.3-39-37.3
		c-14-20.5-20.5-28.7-26.5-33.2c-17.6-13.6-74.3-41.9-104.5-52.1c-19.5-6.7-47.8-11-89.6-13.7c-8.6-0.6-45.3-1.2-77.4-1.4v1327.1
		c0.3,0,2.9,2.3,5.8,5c3.7,3.4,8,6.3,14.1,9.2c4.9,2.3,8.8,4.5,8.9,4.9c0,0.3-1.2,1.8-2.7,3.2c-8.4,8.5,4.2,21.7,15.2,15.9
		c3.2-1.6,4.8-5.7,3.6-9.6c-0.4-1.6-0.8-3.2-0.8-3.6c0-1.2,3.5-0.8,15.3,1.4c22,4.3,35.4,5.4,64.4,5.5c21.3,0,28.7-0.4,35.1-1.5
		c42-7.7,59.9-11.3,74.6-15.1c58.8-15,139.5-46.6,187.3-73.4c41.9-23.5,74.7-45.6,97.6-66.1c14.5-13,96.8-95.8,105.9-106.6
		c14.7-17.5,30.2-43,36.3-59.8c11-30,18.7-80.1,16.3-105.4c-2.3-24.1-17.5-65.5-36.8-100.3c-33.7-60.6-71.5-95.9-119-110.9
		c-47.8-15.1-59.8-19.7-62.5-23.9c-1.9-3.1,0.7-2.8,12.8,1.4c29.5,10.2,51.3,13.8,77.1,13c28.7-1,40.3-5.8,42.3-17.7
		c0.4-2,1.1-3.6,1.6-3.6c0.6,0,5.5,2.2,11,4.9c18,8.9,36.2,14,49,14c18.3-0.1,39.9-8,59.9-22.1c11.2-7.7,41-31.7,55.3-44.3
		c20.8-18.4,31-29.8,54-61c12.5-17,16.4-23.8,18-31.6c0.9-4.4,1.3-4.9,8.4-10.3C2134.6,1314.1,2150.6,1280.3,2149,1231z"/>
	<path id="structure100_text3094_SolDL" bar:growlevel="0" bar:type="" class="st1" d="M1377.1,1584.7c-2.3,5.6-11.5,11.4-21.3,13.6
		c-8.6,2-7.1,3,15.8,10.9c14.8,5,30.6,11.6,34.3,14.2c3.3,2.3,4.2,2.3,4.9-0.5c0.7-3,6.8-7.3,12.8-9.2c2.7-0.8,4.9-2,4.9-2.5
		c0-0.5-3.8-2.5-8.5-4.4c-9.2-3.6-16.5-7.7-23.5-13.1c-2.4-2-6.8-5.4-9.7-7.6C1380.5,1581.3,1378.6,1581,1377.1,1584.7z"/>
	<path id="structure102_text3112_SolG" bar:growlevel="0" bar:type="" class="st2" d="M1364.9,1571c-4,1.9-11.9,6-17.6,9.3
		c-12.2,6.9-12.8,7.9-7.4,13.7c3.3,3.6,3.9,3.8,9.5,4.1c14,0.9,29.4-9.4,29.4-19.7c0-3-3.7-10.2-5.4-10.5
		C1372.7,1567.7,1368.9,1569.2,1364.9,1571z"/>
	<path id="structure104_text3096_SolCe" bar:growlevel="0" bar:type="" class="st3" d="M1373.8,1626.9c-4.6,2.8-6.7,6.1-6.7,10.6
		c0,5,2.2,8.8,6.1,10.7c5.9,2.8,12.3,0.2,15.5-6.4c2.5-5.1,1.7-9.7-2.3-13.8C1383,1624.7,1378.2,1624.2,1373.8,1626.9z"/>
	<path class="st4" d="M1286.4,1656.3c-2.8-1.5-5.9-3.9-6.9-5.2c-1.7-2.3-1.7-2.7-0.5-5c0.7-1.4,3.3-3.3,5.8-4.5l4.4-2.2l-0.6-4.6
		c-0.3-2.6-0.5-5.8-0.5-7.2c0-3.1-0.7-3.1-9.4-0.3c-3.6,1.3-8.4,2.4-10.5,2.8l-4,0.6v16.7v16.8l-2.7,5.4c-2.2,4.4-3.4,5.8-6.8,7.4
		c-2.2,1.2-5.4,2.1-7.2,2.1v31.8c1,0.8,1.7-0.1,2.2-2.8c0.4-1.9,2.6-7.5,5-12.5c6.6-13.6,19.3-26.4,32.7-32.8c2.3-1.2,4.2-2.5,4.2-3
		C1291.6,1659.4,1289.2,1657.7,1286.4,1656.3z"/>
	<path id="structure107_label110_RVRG" bar:growlevel="0" bar:type="" class="st5" d="M1619.5,1877.9c2.3,12.8,2.3,14.2,1.4,21.1
		c-3.3,23.9-16.2,31.6-39.5,23.7c-7.7-2.6-9.1-2.7-9.1-1.1c0,0.7,3.5,7.9,7.9,16.1c4.3,8.1,10.3,20.2,13.2,26.6
		c5.1,11.3,7.7,14.5,7.7,9.8c0-7.3,11.3-20.7,24.4-28.7c5-3.2,14.2-7.2,16.7-7.5c0.1,0-0.3-4.5-0.7-10c-1.2-15.2-4-25.6-10.2-38.2
		C1624.8,1876.7,1618.1,1869.9,1619.5,1877.9z"/>
	<path id="structure108_label111_vsc" bar:growlevel="0" bar:type="" class="st6" d="M1760,1526.4c0.4,1.2,0.6,3.5,0.6,5.3
		c-0.1,2.8,0.3,3.3,2.8,4.2c4.6,1.6,29.4,15.7,39.2,22.1c27.4,18.1,46.4,36.8,62.5,61.3c24.9,38.3,39.3,81.2,42.9,127.8
		c2.4,30.3-3.2,64.3-15,92.3c-16.3,38.3-54.9,80.9-80.8,89.1l-6.8,2.2v3.7c0,6-3.7,10.4-11,13c-1.7,0.5-3.2,2.4-5.2,6.3
		c-3.6,7.1-11.3,14.6-24.6,24.1c-11,7.8-11.6,8.4-27.5,28.1c-10.8,13.4-17.5,19.5-37.5,34.6c-15.5,11.6-28.1,20.2-42.5,28.8
		c-10.5,6.3-16.5,11.9-16.5,15.6c0,1.2,0.5,2.1,0.9,2.1c1.3,0,13.9-6.4,28.8-14.7c34.9-19.4,67.4-40.9,87.3-57.9
		c20.7-17.5,102.7-99.7,115.7-115.7c11.3-14.1,23.8-33.9,29.8-47.3c7.1-15.7,13.7-41.2,18.1-70.4c1.2-7.7,1.5-15.9,1.5-31.5
		c0.1-21,0-21.2-2.8-31.5c-15.4-55.5-48-114.4-81.8-147.8c-20.9-20.6-43.8-35.1-67.8-42.9C1760.1,1523.8,1759.1,1523.7,1760,1526.4z
		"/>
	<path class="st7" d="M1477.9,1477.2c-29,7.3-59.4,13-87.8,16.6c-18.1,2.3-40,2.3-72.4,0.3c-16.5-1.1-43.4-1.6-70.2-1.6v44.5
		c12.7,0,25.5-0.3,32.9-0.9c35.7-2.9,89.7-13.8,146.9-29.8c53.6-14.9,97.1-29.6,99.6-33.6C1530.3,1467.3,1510,1469.2,1477.9,1477.2z
		"/>
	<path id="structure110_label114_vert" bar:growlevel="0" bar:type="" class="st8" d="M1273.6,2155.2c-6.7,6.7,0.4,17.9,10.7,16.9
		c7.2-0.8,10.3-7.4,6.3-13.9C1287.9,2153.7,1277.2,2151.7,1273.6,2155.2z"/>
	<path id="structure112_label116_sol" bar:growlevel="0" bar:type="" class="st9" d="M1424,1613.9c-11.7,4.4-15.8,9-12.2,13.9
		c5.1,6.9,21.1,17.3,33.1,21.5c6.5,2.3,8.4,2.5,19.3,2.4c10.5,0,12.9-0.3,17.3-2c6.4-2.6,8.8-5.4,8.8-10.5c0-5.7-3.7-10.3-10.4-12.9
		c-7-2.6-8.3-2.5-9,0.4c-1.3,5.1-3.2,7.7-7.3,9.5c-6.6,2.9-16.5,0.9-22.9-4.6c-4-3.3-8-10.7-8-14.7c0-3.2-0.8-5.2-2.2-5.1
		C1430.2,1611.8,1427.2,1612.8,1424,1613.9z"/>
	<path id="structure114_label119_IOBe" bar:growlevel="0" bar:type="" class="st10" d="M1279.7,1996.3c-7.8,3-21.1,12.2-22.5,15.8
		c-0.5,1.4-1.2,6.8-1.4,12.2l-0.4,9.8l7.6-0.6c4.1-0.4,11-1.3,15.2-2s13.6-1.7,20.9-2.2c15.6-1.1,19.7-2.2,20.9-5.6
		c0.7-2,0.4-3.1-1.3-5.7c-2.6-4.1-14.4-13.7-22.6-18.6C1289.1,1995.4,1284.5,1994.5,1279.7,1996.3z"/>
	<path class="st11" d="M1790.9,1948.8c-0.3-0.3-2.1-0.3-4,0.1c-3.2,0.5-3.8,1-5.1,4.4c-3.5,8.4-15.8,16.5-30.9,20.3
		c-4,1-12.1,2.2-18,2.5c-9.4,0.7-12.5,1.4-24.7,5.6c-7.7,2.6-17.9,5.4-22.8,6.3c-10.3,1.9-10.5,2.1-19.5,13.9
		c-10.7,14.1-20.2,31-34.4,61.2c-4.3,9.2-17,18.8-30,22.6c-3,0.8-8.5,1.6-12.2,1.6c-6.1,0.1-7.5-0.3-13.5-3.2
		c-4.3-2.2-11.4-7.4-20.2-14.7c-16.8-14.1-23.5-17.6-44.1-22.9c-7.8-2.1-17-4.9-20.3-6.5c-6.8-3.2-12.6-8.6-14.8-13.7
		c-2-4.9-3.1-17.6-2.2-25.4c2.8-22.5,14.6-34.4,35-35.4c14-0.6,23.7,2.4,34.7,11.1c12.9,10.1,29,20.1,36.1,22.4
		c13.1,4.3,31.8,6.6,31.8,3.8c0-0.7-1.7-4.1-3.7-7.7c-2.1-3.5-6.7-12.8-10.3-20.5c-8-17.4-18.1-37.6-24-48.2
		c-3.7-6.6-5.3-8.5-9.7-11.4c-8.5-5.8-13.5-13.5-13.5-20.9c0-4.9-11.2-25.2-26.4-48c-35.7-53.7-81.4-102.6-118.7-127.1
		c-7.9-5.2-22.7-12.9-24.8-12.9c-1.3,0-24.3,18.4-29.1,23.1c-3.5,3.5-20.9,15.8-23.6,16.7c-1.9,0.6,0,3.1,2.7,3.7
		c3.7,0.7,8.2,4.9,10.2,9.2c3.6,7.8,1.2,22-4.8,28.1c-3.7,3.9-8.3,5.1-13.8,3.9c-13.4-3-36.4-20.9-36.4-28.4c0-1.6-0.8-2.2-5.1-3.1
		c-14.8-3.2-27.5-12.3-31.1-22.2c-0.6-1.6-1.6-3-2.3-3c-0.1,0-0.2,0-0.3,0.1v28.2c7.7,0,10.8,0.2,7,0.3c-1.9,0.1-4.5,0.1-7,0.1v3.9
		c1.2,0,2.5,0.8,3.3,2.6c2.5,5.1,2.9,17.4,3.2,93.2c0.2,51.7,0.5,78.6,1.2,78.6c0.5,0,1.7-1.3,2.8-3c1-1.5,3-3.5,4.3-4.1
		c2.2-1.2,2.9-1.2,6.2,0c7.4,2.5,8,7.4,5.9,45c-0.5,9.9-0.7,18.3-0.4,18.6c0.4,0.3,2.5-0.2,4.9-1c2.3-0.8,5.4-1.5,6.8-1.5
		c7.4,0,32.8,18.9,34.5,25.7c0.4,1.4,0.2,3.2-0.4,4.1c-0.8,1.3-0.7,2.9,0.3,6.8c4,15.3,3.5,28.3-1.4,38.9c-1.5,3.2-2.7,6-2.7,6.4
		c0,0.9,11.6,4,12.3,3.2c0.4-0.3-0.1-2-0.9-3.7c-2.3-4.8-1.9-8.6,1.7-15.8c2.7-5.3,3.9-6.8,6.5-7.8c3.7-1.5,11.5-1.6,17.9-0.3
		c9.3,2.1,32.8,15.3,44,24.8c9.5,8.1,11.4,21.1,4.1,27.7c-1.1,1-1.9,2.2-1.9,2.8c0,0.5,3.5,1.7,8.1,2.5c12.3,2.4,23.3,5.8,29.3,9.2
		c19.3,10.8,24.9,21.3,15.8,29.6c-1.1,1-1.9,2.3-1.9,3c0,1.7,3,1.3,22.5-3.4c42.5-10.2,103.7-31.8,151.2-53.5
		c6.2-2.8,11.9-5.3,12.6-5.5c0.8-0.3,2.2-2.4,3-4.9c2.1-5.8,7.4-10.4,21-18.4c11.7-6.9,27.2-17.5,41.8-28.6
		c19.4-14.8,24.1-19.4,37.4-36c12.2-15.4,13.2-16.4,24.3-24.4c12.7-9.2,22.3-18.7,25-24.7C1790.6,1950.9,1791.1,1949,1790.9,1948.8z
		 M1288.6,1800.9c-0.3,0.7-0.5,0.5-0.5-0.5c-0.1-1,0.2-1.5,0.4-1.2C1288.8,1799.5,1288.9,1800.3,1288.6,1800.9z M1289.5,1806.3
		c-0.3,0.7-0.5,0.4-0.5-0.5c-0.1-1,0.2-1.5,0.5-1.2C1289.7,1804.9,1289.8,1805.7,1289.5,1806.3z M1290.4,1811.7
		c-0.3,0.7-0.5,0.4-0.5-0.5c-0.1-1,0.2-1.5,0.5-1.2C1290.6,1810.3,1290.7,1811.1,1290.4,1811.7z M1291.3,1817.1
		c-0.3,0.7-0.5,0.5-0.5-0.5c-0.1-1,0.2-1.5,0.5-1.2C1291.5,1815.7,1291.6,1816.5,1291.3,1817.1z M1292.2,1823.4
		c-0.3,0.7-0.5,0.5-0.5-0.5c-0.1-1,0.2-1.5,0.4-1.2C1292.4,1822,1292.5,1822.8,1292.2,1823.4z M1293.1,1828.8
		c-0.3,0.7-0.5,0.4-0.5-0.5c-0.1-1,0.2-1.5,0.4-1.2C1293.3,1827.4,1293.4,1828.2,1293.1,1828.8z M1294,1835.1
		c-0.3,0.7-0.5,0.5-0.5-0.5c-0.1-1,0.2-1.5,0.5-1.2C1294.2,1833.7,1294.3,1834.5,1294,1835.1z M1294.9,1840.5
		c-0.3,0.7-0.5,0.5-0.5-0.5c-0.1-1,0.2-1.5,0.5-1.2C1295.1,1839.1,1295.2,1839.9,1294.9,1840.5z M1295.8,1846.8
		c-0.3,0.7-0.5,0.4-0.5-0.5c-0.1-1,0.2-1.5,0.5-1.2C1296,1845.4,1296.1,1846.2,1295.8,1846.8z M1296.7,1853.1
		c-0.3,0.6-0.5,0.2-0.5-1.1c0-1.3,0.2-1.7,0.5-1.2C1296.9,1851.5,1296.9,1852.6,1296.7,1853.1z M1297.6,1858.5
		c-0.3,0.7-0.5,0.5-0.5-0.5c-0.1-1,0.2-1.5,0.4-1.2C1297.8,1857.1,1297.9,1857.9,1297.6,1858.5z M1298.5,1864.8
		c-0.3,0.7-0.5,0.4-0.5-0.5c-0.1-1,0.2-1.5,0.5-1.2C1298.7,1863.4,1298.8,1864.2,1298.5,1864.8z M1299.4,1870.2
		c-0.3,0.7-0.5,0.4-0.5-0.5c-0.1-1,0.2-1.5,0.5-1.2C1299.6,1868.8,1299.7,1869.6,1299.4,1870.2z M1300.3,1875.6
		c-0.3,0.7-0.5,0.5-0.5-0.5c-0.1-1,0.2-1.5,0.5-1.2C1300.5,1874.2,1300.6,1875,1300.3,1875.6z M1305.7,1908
		c-0.3,0.7-0.5,0.5-0.5-0.5c-0.1-1,0.2-1.5,0.4-1.2C1305.9,1906.6,1306,1907.4,1305.7,1908z M1307.5,1917.9
		c-0.3,0.7-0.5,0.5-0.5-0.5c-0.1-1,0.2-1.5,0.5-1.2C1307.7,1916.5,1307.8,1917.3,1307.5,1917.9z M1308.4,1922.4
		c-0.3,0.7-0.5,0.5-0.5-0.5c-0.1-1,0.2-1.5,0.5-1.2C1308.6,1921,1308.7,1921.8,1308.4,1922.4z M1346.2,1745.7
		c4.5-5.3,11.8-6.8,17.2-3.5c5.8,3.5,2.9,10.2-5.8,13.5c-6,2.3-10.4,1.8-12.4-1.2C1343.1,1751.7,1343.4,1749.1,1346.2,1745.7z
		 M1477.3,2119.1c-3.4,7-9.6,7.9-23,3.4c-21.1-7.2-31-16.9-26.5-26.2c3.2-6.8,11.3-8.4,22.3-4.5c13.5,4.8,25.9,13.9,27.8,20.3
		C1478.8,2115,1478.8,2116.1,1477.3,2119.1z M1537.5,2111.7c-4.7,1.2-6.8,1.3-13.1,0.4c-9.8-1.3-24.9-6-43.5-13.5
		c-8.4-3.3-25.4-9.6-37.7-13.9c-38.3-13.3-54.7-20.4-74.3-32.4c-25.6-15.5-40.5-29-40.5-36.4c0-2.8,2.3-6.3,4.1-6.3
		c0.7,0,1.3-0.6,1.3-1.4c0-1.3,0.1-1.3,1.4,0c0.7,0.8,2.2,1.4,3.1,1.4c3.1,0,13.5,4.9,27.6,12.9c33.8,19.3,55.2,27.5,103.7,40.2
		c53.9,14.1,78.8,24.9,81.5,35.6C1552.7,2103.9,1547.3,2109.2,1537.5,2111.7z"/>
	<path id="structure117_label122_SolIM" bar:growlevel="0" bar:type="" class="st12" d="M1391.6,1624.6c-1.5,4.2-1.9,6.7-1.4,9.7
		c1,6.9-2.5,12.4-9.3,14.8c-5.8,2-4.5,3.7,6.5,8.5c5.5,2.3,13.7,6.2,18.2,8.5c4.6,2.3,8.9,4.2,9.6,4.2c2,0,2.6-5.1,2.1-16.6
		c-0.5-12.2-2.7-22.2-5.7-25.7c-2.3-2.8-13.6-9.1-16.3-9.1C1394.2,1618.9,1393.2,1620.4,1391.6,1624.6z"/>
	<path class="st13" d="M1334.1,1584.7c-0.9,0-9.5,4.1-19.2,9.2c-32.4,16.9-52.7,25.3-64.7,26.5c-0.9,0.1-1.8,0.1-2.8,0.1v5.2
		c7.7,0,9.2,0.3,11.6,2c3.4,2.6,8.3,2.7,16.9,0.3c14.1-3.9,26.3-11.5,43.5-27c6.2-5.6,12.3-11,13.8-12
		C1336,1586.9,1336.5,1584.7,1334.1,1584.7z"/>
	<path id="structure11_label10_12N" bar:growlevel="0" bar:type="" class="st14" d="M1286.5,1663.5c-21.4,11.2-35.4,31.1-38.3,54.5
		c-1.6,13.7,1,21.5,9.8,29.8c13.5,12.7,36.6,15.8,53.4,7.5c16.3-8.3,35.6-21,42-27.8c14.4-15.2,15.8-38.8,3.1-54.5
		c-1.5-1.9-3.7-2.3-23.3-5.1c-11.8-1.7-25.6-4-30.5-5.3c-5-1.3-9.4-2.3-9.6-2.3C1292.8,1660.3,1289.8,1661.8,1286.5,1663.5z"/>
	<path id="structure120_label129_SolVL" bar:growlevel="0" bar:type="" class="st15" d="M1490,1634c1.5,6.5,1.5,7.9-0.5,10.5
		c-2.5,3.1-9.7,6.7-15.5,7.4c-5.1,0.7-5.8,1.8-3.7,5.9c3.8,7.5,11,13.9,22,20c7.5,4.1,19.2,8.6,22.1,8.6c3.3,0,13.2-10.2,16.2-16.7
		c2.2-4.6,2.3-5.9,2-13.3c-0.3-6-1-9.5-2.4-13.1c-2.3-4.9-4.9-6.3-5.9-2.9c-0.7,2.2-3.9,3.1-8.4,2.4c-1.8-0.3-8.1-3-14-5.9
		c-5.8-3.1-11-5.5-11.5-5.5C1489.7,1631.5,1489.6,1632.4,1490,1634z"/>
	<path class="st16" d="M2083,1349.5c-21.4-2.5-71.4-29.4-151.4-81.7c-75.8-49.4-107.5-74.8-161.4-128.4c-33.7-33.8-47.3-49-73-81.5
		c-18.1-23-32.5-39.1-63.3-70.6c-19-19.4-22-23-22-26.2c0-2.2-0.4-2.6-2.1-2.6c-1.2,0-3.4-1.4-5.2-3.2c-4.7-4.9-10.6-8.3-20.3-11.7
		c-16.7-6-19.2-8.3-39-37.3c-14-20.5-20.5-28.7-26.5-33.2c-17.6-13.6-74.3-41.9-104.5-52.1c-19.5-6.7-47.8-11-89.6-13.7
		c-8.6-0.6-45.3-1.2-77.4-1.4v43.8c37.5,0,74.8,0.2,81.5,0.8c38.8,3.1,72.9,11.6,111.5,27.9c21.3,9,32.1,14.7,35.9,19
		c2.8,3.1,3.2,4.1,3.2,7.9c0,11.3-14.9,21.1-39.2,25.9c-7.3,1.4-14.8,1.6-76.9,1.7c-65.4,0.1-69.8,0.2-87.3,2.2
		c-11.6,1.3-20.2,1.9-28.8,1.9v109.8c6.7,0,30.6-1.4,53.1-3.1c65.8-5.1,99.1-6.2,129.6-4.1c32.3,2.2,45.4,6.1,62.5,19.1
		c21.6,16.2,37.7,33.7,59.3,64c14.8,20.8,25.7,38.2,57.2,91.5c44.7,75.3,72.2,114.8,104.4,150.3c6.1,6.7,21.7,23.5,34.7,37.4
		c40.6,43.5,40.9,44,40.9,52.6c0,12.9-7,15.2-29.3,9.5c-24.6-6.2-70-24.6-95.3-38.5c-22.9-12.6-34.5-21.3-48.9-37
		c-19.8-21.5-24.8-31.3-54.9-106.4c-25.9-64.8-35.7-84.9-52.6-107.5c-24-32.3-51.6-46.5-102.4-53c-37.8-4.9-91.5-5-137.3-0.5
		c-8.5,0.9-14.9,1.3-21.1,1.3v66.3c40.5,0.1,83.9,0.6,99.9,1.3c68.2,2.9,91.6,6,113.1,15c16.3,6.8,29.7,20.1,38.2,37.4
		c4.3,8.8,21.6,8.3-251.2,8.3v45.3c68.9-0.1,165.3-1.3,184.5-2.6c21.3-1.4,44.4-4.5,78.1-10.4c1.9-0.4,2.9-0.2,2.9,0.5
		c0,1.4,17.5,42,24.1,56.1c3.1,6.3,6.9,13.9,8.6,16.9c4.1,7,4.2,8.6,0.4,7.7c-20.3-4.1-39.3-1.9-92.5,11.2
		c-16.1,4-35.1,8.2-42.3,9.4c-41.4,7-102.6,10.5-163.8,10.5v20.1c149,0,146.8,0.2,212.8-18c11.9-3.2,25.5-6.7,30.3-7.7
		c10.7-2.2,23.8-2.3,28.5-0.4c1.9,0.8,8.5,6.7,16,13.9c17.6,17.4,22.7,19.7,35.6,16.6c2.3-0.5,2.3-0.4,3.1,5.7
		c0.4,3.3,0.7,8.4,0.7,11.1l0.1,4.9l-4.9,0.6c-9.5,1.2-30.3,2.5-59.4,3.9c-47.8,2.3-69,4.1-97.8,8.6c-46.2,7.2-72.6,8.5-165,8.6
		v29.7c26.8,0,53.7,0.5,70.2,1.6c32.5,2.1,54.4,2,72.4-0.3c28.4-3.6,58.8-9.4,87.8-16.6c25-6.3,45.3-9.1,48.6-6.8
		c3.6,2.4-3.2,5.8-28.8,14.6c-74.9,25.6-166.8,47.2-217.3,51.2c-7.5,0.6-20.2,0.9-32.9,0.9v37.8c14,0,53.5-5.9,121.9-18.4
		c17.8-3.2,33.3-5.9,34.4-5.9c1.1,0,2.2,0.4,2.3,1.1c0.4,1,3.6-0.3,27.3-10.7c5.5-2.4,16.4-6.9,24.3-10.1c7.9-3.1,15-6,15.8-6.4
		c0.7-0.4,8.1-3.6,16.3-7.1c8.2-3.5,18.8-8.2,23.7-10.4c4.9-2.3,9.5-4.1,10.3-4.1c0.9,0,1.8-0.4,2-0.8c0.2-0.4,2.9-2.1,6.1-3.7
		c7.7-3.9,19.4-11.1,24-14.9c2.1-1.7,4.1-3.1,4.7-3.1c0.5,0,1-0.3,1-0.7c0-1.8,8.8-9.3,14.1-12.2c11-5.8,18-7.4,31.8-7.4h12.2
		l16.2,5.8c8.9,3.1,20.4,7.6,25.6,9.7c19.5,8.3,37.6,19.8,38.7,24.8c0.7,2.9,5.4,3.5,5.4,0.8c0-1.1,0.5-1.9,1.2-1.9
		c0.7,0,5.8,1.6,11.4,3.7c27.6,9.8,52.3,13.9,77.8,13.1c28.7-1,40.3-5.9,42.3-17.7c0.4-2,1.1-3.6,1.6-3.6c0.6,0,5.5,2.2,11,4.9
		c18,8.9,36.2,14,49,14c18.2-0.1,39.9-8.1,59.8-21.9c9.8-6.8,35.5-27.2,49.7-39.3c22.8-19.5,34.5-32.1,54.5-59
		c19.2-25.8,21.9-30.4,23.7-40.1l0.5-3.2L2083,1349.5z M2032.3,1362.5c-4,15.1-16.2,26.2-39.1,35.9c-27.2,11.5-38.2,19.9-50.4,38.2
		c-14.5,21.9-28.7,30.7-46.2,28.9c-8.2-0.8-12.9-3.1-18.6-8.9c-7.1-7.4-12.8-16.6-24.9-40.6c-14.2-28.3-18.1-35.1-29-51.2
		c-14.3-21.4-30.8-42.5-64.7-82.7c-36.3-43-70.4-88.9-104.6-140.6c-17.1-25.8-24.7-38.7-36.5-62.1c-23.5-46.4-35.6-82.2-29.4-86.1
		c1.9-1.3,7.7-0.7,12.1,0.9c16.4,6.2,45.4,35.6,71.3,72.2c3.3,4.7,10.6,15.8,16.2,24.8c12.6,20.2,21,32.4,31.1,45.5
		c36.8,47.4,85.2,92.8,133.1,124.7c41.4,27.6,117.7,67.8,161.5,85c6.2,2.4,12.5,5,14.1,5.9
		C2032.3,1354.2,2033.6,1357.6,2032.3,1362.5z"/>
	<path class="st16" d="M1652.3,1347c-20.3-27.4-30.4-44.1-60.1-99.7c-18.1-34-30.9-57-38.5-69.3c-23.6-38.3-51.6-63.1-87.8-77.7
		c-35.5-14.4-103.4-23.8-146-20.5c-7.4,0.6-25.6,2.3-40.4,3.7c-14.8,1.5-29.2,2.7-31.9,2.7c0,0-0.1,0-0.1,0v11.5
		c5.7-0.1,13.1-0.7,28.5-2.2c25.8-2.3,32-2.6,62.8-2.6c30.2,0,36,0.3,49.5,2.1c42.1,5.6,60.1,10.3,83.3,21.8
		c23.8,12,43.1,27.5,57.2,46.4c6,8.1,9.2,13.6,41.3,72.4c30,55,43.4,78.8,50.7,90c8.2,12.6,36.4,39.6,41.3,39.6
		C1664.9,1365.1,1662.5,1360.7,1652.3,1347z"/>
	<path class="st16" d="M1493.7,1329.5c-15-8.3-34.5-10.5-151.3-17.5c-49.7-2.9-74.5-4.2-95-4.3v12.8c20.8,0.3,47.6,1.2,63,2.3
		c79.9,5.5,130.5,13,130.5,19.2c0,2.2-4.8,5.8-11.9,9.2c-17.5,8.1-59,16.6-80.8,16.6c-4.3,0-26.1-1.3-48.3-2.7
		c-21.7-1.5-45.1-2.7-52.5-2.7v23.4c37.9,0,76-3.3,131.6-9.9c69-8.3,109.7-18.2,121.2-29.7C1505.5,1341,1503,1334.6,1493.7,1329.5z"
		/>
	<path class="st16" d="M1262.7,1629.7c-0.5,0-2.1-0.9-3.5-2c-2.2-1.5-4.1-2-10.1-2.2c-0.5,0-1.1,0-1.6,0v12.2c1.2,0,2.4,0.3,3.7,0.9
		c3.3,1.8,4.8,6.2,4.8,14.4c0,8.6-2.3,14.6-6.2,16.4c-0.8,0.3-1.5,0.5-2.3,0.4v9.3c1.8,0,5-0.9,7.2-2.1c3.2-1.6,4.6-3,6.8-7.3
		c2.4-4.9,2.7-6.3,3-16.9C1264.8,1640.4,1264,1629.7,1262.7,1629.7z"/>
	<path class="st16" d="M1416.7,1671.5c0-0.7-0.6-1.3-1.3-1.3c-0.8,0-5.1-1.9-9.7-4.2c-4.5-2.3-12.7-6.1-18.2-8.5
		c-7.6-3.2-10-4.8-10.2-6.1c-0.4-2.1-0.5-2.2-6.9-2.3c-2.4-0.1-9.6-1.5-15.9-3.3c-20.7-5.9-45.6-8.9-59.3-7
		c-7.6,1.1-13.8,3.7-15.8,6.8c-1.4,2.2-1.4,2.6-0.3,4.8c0.7,1.3,3.5,3.6,6.2,5.2c2.7,1.6,5.4,3.2,5.8,3.7c2.1,1.6,22.1,5.8,42.2,8.6
		c13.8,1.9,19.1,2.6,22.1,4.3h60.9C1416.5,1671.9,1416.7,1671.6,1416.7,1671.5z"/>
	<path class="st16" d="M1355.4,1672.2c2.1,1.3,3,3.2,5,6.5c5.3,9,6.3,23.4,2.3,33.8c-3.6,9.4-2.4,9.5,8.8,0.5
		c4.6-3.7,8.9-6.8,9.6-6.8c0.6,0,1.3-0.5,1.4-1.2c0.2-0.7,4-4.4,8.4-8.2c10.5-9.1,23-21.4,25.3-24.6H1355.4z"/>
	<path id="structure12_label12_Gr" bar:growlevel="0" bar:type="" class="st17" d="M1452.2,1532.9c-9.9,4.1-22,9.3-27,11.5
		s-18.5,8.1-29.9,13c-11.5,5-21,9.4-21,9.9c0,2.4,16.6,16.4,26.7,22.5c13.6,8.2,25.2,10.9,34.6,8.2c6.4-1.9,17.6-9.3,22.9-15.2
		c9.2-10.2,13.9-26.8,13.9-49c0-6.1-0.3-8.4-1.1-8.3C1470.7,1525.4,1462.1,1528.8,1452.2,1532.9z"/>
	<path id="structure13_label13_Cu" bar:growlevel="0" bar:type="" class="st18" d="M1515.7,1505.8c-3.2,1.5-14,6.3-23.8,10.6
		l-18,7.7l-0.2,4.9c-0.9,20-3.5,33.9-8,43.5c-3,6.3-10.3,14.6-16.6,18.5c-7.2,4.6-6.4,5.8,6.1,8.1c13.4,2.5,28.2,4.5,33.8,4.5h4.2
		v-3.2c0-9.7,10.3-17.4,29.7-22c9.9-2.3,25.7-3.4,28.5-1.9c1.3,0.7,3.6,0.6,8.8-0.4c8.9-1.7,20.4-1.7,30.2,0
		c4.2,0.7,11.1,1.6,15.3,1.9c7.1,0.4,7.9,0.4,11.7-1.9c6.7-3.8,29.2-14.8,30.3-14.8c0.6,0,1.2-0.5,1.2-1.2c0-0.5-3.1-2-6.7-3.1
		c-4.7-1.4-7.7-3-10.1-5.1c-3.2-3.1-3.2-3.3-2.9-8.4c0.2-3,1.2-6.8,2.3-9c3.6-6.8,2.9-7-8.9-1.9c-21,9.1-39.8,15.2-47,15.2
		c-5.5,0-10.8-2.7-12.2-6.1c-1-2.3-1.8-2.8-5.3-3.2c-11.1-1.4-22.9-13.1-30.3-29.6C1524.7,1501.8,1524.1,1501.7,1515.7,1505.8z"/>
	<path id="structure14_label14_ECu" bar:growlevel="0" bar:type="" class="st19" d="M1599.8,1470.5c-8.3,1.3-14.7,3.3-22.8,7.7
		c-7.7,4.1-12.2,4.9-15.4,3c-1.3-0.9-2.3-0.4-6.3,2.6c-5.3,4.2-17.1,11.4-24.6,15.1c-2.9,1.4-5.2,3.1-5.2,3.7
		c0,2.2,5.1,12.5,8.8,17.9c6.9,10.3,15.3,16.5,24.3,17.9c3.1,0.4,3.8,0.4,3.8-0.7c0-3.6,18.4-7.8,34.3-7.8c10.1,0,18.6-2,27.5-6.2
		c23.4-11.3,35.5-26.8,30.8-39.4c-2.3-6.3-10.3-11.3-21.2-13.4C1626.5,1469.4,1608.5,1469.3,1599.8,1470.5z"/>
	<path id="structure15_label15_5Sol" bar:growlevel="0" bar:type="" class="st20" d="M1642,1563.9c-24.6,10.3-46.3,26.4-52.5,38.6
		c-8.9,17.6-4,37.7,11.8,48.2c2.6,1.7,10.3,6.1,16.9,9.7c15,8.1,29.8,17.7,41.2,27c8.7,6.9,23.6,21.7,28.4,28.1
		c3.2,4.1,5.5,4.6,4.8,0.9c-0.3-1.3-6-15.6-12.8-31.7c-13.9-32.9-22.2-54.9-23.8-61.9c-4.6-21.5,7.1-43.7,28.9-54.7
		c7-3.6,5.8-4.3-8.5-5.7C1650.2,1560,1651.2,1560,1642,1563.9z"/>
	<path id="structure16_label16_Mx" bar:growlevel="0" bar:type="" class="st21" d="M1568.3,1575.4c-1.4,0.2-5.4,0.8-8.6,1.4l-6,0.9
		l0.1,3.1c0.2,7.1-7.6,13.7-25.2,21.2c-16.9,7.3-25.8,8.5-31,4.5c-1.6-1.3-5-2-13.4-2.8c-11.5-1.1-27.6-3.6-37.5-5.9
		c-4.9-1.2-6-1.2-9.4,0c-2.1,0.7-4.5,1.4-5.4,1.4c-1,0-1.7,0.5-1.7,1.2c0,0.7,10.7,4.5,30,10.4c16.4,5,36.2,11.6,43.8,14.7
		c9.6,3.7,16.9,5.9,23.6,7.1c15.9,2.8,34,6.9,49,11.3c21.5,6.2,21.7,6.2,15.8-1.3c-4.1-5.5-6.3-10.4-7.2-16.5
		c-2.3-15,4.3-28.9,19.1-40.3c3.6-2.8,6.7-5.7,6.7-6.3c0.1-0.7-1.4-1.1-4.8-1.1c-2.6,0-8.2-0.5-12.3-1.3
		C1585.6,1575.7,1572.5,1574.8,1568.3,1575.4z"/>
	<path id="structure18_label18_PCRt" bar:growlevel="0" bar:type="" class="st22" d="M1525.6,1634.3c0,0.5,0.8,2.1,1.7,3.4
		c5.9,8.4,7.8,23.3,4.1,31.7c-2.8,5.9-12.1,15.6-18,18.4c-7.5,3.7-30.1,4.8-52.7,2.5c-4-0.4-5.2-0.3-5.2,0.7c0,0.6,6.1,5,13.7,9.7
		c79,49.2,159.8,125.7,205.5,194.6c5.7,8.6,6.3,8.9,12.9,6.7c6.3-2.3,16.7-3.3,21.8-2.3c5.8,1.3,25.5,11,34.9,17.4
		c4.1,2.8,7.8,5,8.3,5s1.5-1.5,2.4-3.4c2.4-5,8.3-7.6,16.9-7.6c5,0,7.7,0.5,10.6,1.9c2.2,1,4.3,1.9,4.9,1.9c1.1,0,3.5-10.5,2.7-11.4
		c-0.4-0.3-3,0-5.9,0.5c-10,2-18.7-1.5-29.6-11.8c-8.4-7.9-15.3-26.9-35.3-97c-9.7-34.1-17.5-57.7-21.3-64.8
		c-13.5-25.1-46.7-53.7-84-72.4c-18.2-9.1-41.6-16.4-71.9-22.6C1529.7,1633.2,1525.6,1632.8,1525.6,1634.3z"/>
	<path id="structure19_label19_Sp5I" bar:growlevel="0" bar:type="" class="st23" d="M1690.6,1565.7c-6.8,2.5-12.6,6.1-18.9,12.1
		c-9.5,8.8-14.2,17.7-15.8,29.4c-1.7,13.7,0.9,21.9,28.7,88.2c10.4,24.9,20.4,51.5,25,66.8c1.3,4.1,7,24,13,44.4
		c11.7,40.3,17.8,59.6,23,72c2.8,6.8,4.4,9.1,9.3,14c8.4,8.3,14.5,11.2,24,11.2c6.7,0,7.8-0.3,14.2-3.5
		c22.5-11.4,49.1-32.7,58.8-46.9c15.6-22.9,25.7-62.2,25.8-100.3c0.1-24.4-3.8-44.5-13.5-68.9c-17.5-44.2-39.5-70.7-75.1-90.2
		c-15.2-8.4-44.3-18.7-72.6-25.9C1699.2,1563.6,1697.2,1563.4,1690.6,1565.7z"/>
	<path class="st24" d="M1476.4,897.2c-3.8-4.3-14.6-10-35.9-19c-38.6-16.3-72.7-24.8-111.5-27.9c-6.7-0.5-44-0.8-81.5-0.8v87.3
		c8.6,0,17.2-0.6,28.8-1.9c17.6-2,21.9-2.1,87.3-2.2c62.1-0.1,69.7-0.3,76.9-1.7c17.9-3.5,30.1-9.5,36.2-17.6c2.4-3.2,3-4.8,3-8.4
		C1479.7,901.4,1479.2,900.3,1476.4,897.2z"/>
	<path id="structure21_label21_IRt" bar:growlevel="0" bar:type="" class="st25" d="M1409.9,1679.3c-3,3.1-10.3,9.8-16.2,15
		c-5.9,5.2-10.9,10.1-11.1,10.6c-0.2,0.7,3.2,3,8.1,5.4c39.8,20,92.5,73.6,134.4,136.7c9.4,14,19.4,30.8,22.1,36.7
		c1.6,3.5,3.3,3,4.5-1.4c2.6-10,11.7-20.3,21.2-24.1c4.4-1.8,6.8-2.2,16-2.2c9.6,0,11.3,0.2,14.8,2.2c4.8,2.5,18.5,16.3,23,23.2
		c8.9,13.5,15.7,35.6,15.7,51.8c0,4.5,0.3,5.2,1.6,5.2c1,0,2.4,0.8,3.3,1.8c1.8,2,4.1,2.4,4.1,0.6c0-1.9,5.3-12.4,9.2-18.2
		c4.6-6.8,12.8-15.3,16.2-16.7c1.4-0.5,2.5-1.5,2.5-2.2c0-1.3-12.5-19.3-23.5-33.8c-43.2-56.7-104.8-114.2-169-157.4
		c-26.7-18-63.7-38.8-69-38.8C1415.8,1673.8,1414,1675.1,1409.9,1679.3z"/>
	<path id="structure22_label22_AmbL" bar:growlevel="0" bar:type="" class="st26" d="M1579.7,1856.5c-9.7,2.1-19.3,8.7-24,16.7
		c-7.6,13-5.7,30.5,4.3,38.6c8.8,7.1,25.7,13.2,36.6,13.3c7.8,0,10.3-0.8,14.8-4.8c6-5.2,9.5-15.4,9.5-27.6
		c0-17.3-7.4-30.8-19.3-35.3C1598,1856.1,1584.6,1855.5,1579.7,1856.5z"/>
	<path class="st27" d="M1790.9,1948.8c-0.3-0.3-2.1-0.3-4,0.1c-3.2,0.5-3.8,1-5.1,4.4c-3.5,8.4-15.8,16.5-30.9,20.3
		c-4,1-12.1,2.2-18,2.5c-9.4,0.7-12.5,1.4-24.7,5.6c-7.7,2.6-17.9,5.4-22.8,6.3c-10.3,1.9-10.5,2.1-19.5,13.9
		c-10.7,14.1-20.2,31-34.4,61.2c-4.3,9.2-17,18.8-30,22.6c-3,0.8-8.5,1.6-12.2,1.6c-6.1,0.1-7.5-0.3-13.5-3.2
		c-4.3-2.2-11.4-7.4-20.2-14.7c-16.8-14.1-23.5-17.6-44.1-22.9c-7.8-2.1-17-4.9-20.3-6.5c-6.8-3.2-12.6-8.6-14.8-13.7
		c-2-4.9-3.1-17.6-2.2-25.4c2.8-22.5,14.6-34.4,35-35.4c14-0.6,23.7,2.4,34.7,11.1c12.9,10.1,29,20.1,36.1,22.4
		c13.1,4.3,31.8,6.6,31.8,3.8c0-0.7-1.7-4.1-3.7-7.7c-2.1-3.5-6.7-12.8-10.3-20.5c-8-17.4-18.1-37.6-24-48.2
		c-3.7-6.6-5.3-8.5-9.7-11.4c-8.5-5.8-13.5-13.5-13.5-20.9c0-4.9-11.2-25.2-26.4-48c-35.7-53.7-81.4-102.6-118.7-127.1
		c-7.9-5.2-22.7-12.9-24.8-12.9c-1.3,0-24.3,18.4-29.1,23.1c-3.5,3.5-20.9,15.8-23.6,16.7c-1.9,0.6,0,3.1,2.7,3.7
		c3.7,0.7,8.2,4.9,10.2,9.2c3.6,7.8,1.2,22-4.8,28.1c-3.7,3.9-8.3,5.1-13.8,3.9c-13.4-3-36.4-20.9-36.4-28.4c0-1.6-0.8-2.2-5.1-3.1
		c-14.8-3.2-27.5-12.3-31.1-22.2c-0.6-1.6-1.6-3-2.3-3c-0.1,0-0.2,0-0.3,0.1v28.2c7.7,0,10.8,0.2,7,0.3c-1.9,0.1-4.5,0.1-7,0.1v3.9
		c1.2,0,2.5,0.8,3.3,2.6c2.5,5.1,2.9,17.4,3.2,93.2c0.2,51.7,0.5,78.6,1.2,78.6c0.5,0,1.7-1.3,2.8-3c1-1.5,3-3.5,4.3-4.1
		c2.2-1.2,2.9-1.2,6.2,0c7.4,2.5,8,7.4,5.9,45c-0.5,9.9-0.7,18.3-0.4,18.6c0.4,0.3,2.5-0.2,4.9-1c2.3-0.8,5.4-1.5,6.8-1.5
		c7.4,0,32.8,18.9,34.5,25.7c0.4,1.4,0.2,3.2-0.4,4.1c-0.8,1.3-0.7,2.9,0.3,6.8c4,15.3,3.5,28.3-1.4,38.9c-1.5,3.2-2.7,6-2.7,6.4
		c0,0.9,11.6,4,12.3,3.2c0.4-0.3-0.1-2-0.9-3.7c-2.3-4.8-1.9-8.6,1.7-15.8c2.7-5.3,3.9-6.8,6.5-7.8c3.7-1.5,11.5-1.6,17.9-0.3
		c9.3,2.1,32.8,15.3,44,24.8c9.5,8.1,11.4,21.1,4.1,27.7c-1.1,1-1.9,2.2-1.9,2.8c0,0.5,3.5,1.7,8.1,2.5c12.3,2.4,23.3,5.8,29.3,9.2
		c19.3,10.8,24.9,21.3,15.8,29.6c-1.1,1-1.9,2.3-1.9,3c0,1.7,3,1.3,22.5-3.4c42.5-10.2,103.7-31.8,151.2-53.5
		c6.2-2.8,11.9-5.3,12.6-5.5c0.8-0.3,2.2-2.4,3-4.9c2.1-5.8,7.4-10.4,21-18.4c11.7-6.9,27.2-17.5,41.8-28.6
		c19.4-14.8,24.1-19.4,37.4-36c12.2-15.4,13.2-16.4,24.3-24.4c12.7-9.2,22.3-18.7,25-24.7C1790.6,1950.9,1791.1,1949,1790.9,1948.8z
		 M1288.6,1800.9c-0.3,0.7-0.5,0.5-0.5-0.5c-0.1-1,0.2-1.5,0.4-1.2C1288.8,1799.5,1288.9,1800.3,1288.6,1800.9z M1289.5,1806.3
		c-0.3,0.7-0.5,0.4-0.5-0.5c-0.1-1,0.2-1.5,0.5-1.2C1289.7,1804.9,1289.8,1805.7,1289.5,1806.3z M1290.4,1811.7
		c-0.3,0.7-0.5,0.4-0.5-0.5c-0.1-1,0.2-1.5,0.5-1.2C1290.6,1810.3,1290.7,1811.1,1290.4,1811.7z M1291.3,1817.1
		c-0.3,0.7-0.5,0.5-0.5-0.5c-0.1-1,0.2-1.5,0.5-1.2C1291.5,1815.7,1291.6,1816.5,1291.3,1817.1z M1292.2,1823.4
		c-0.3,0.7-0.5,0.5-0.5-0.5c-0.1-1,0.2-1.5,0.4-1.2C1292.4,1822,1292.5,1822.8,1292.2,1823.4z M1293.1,1828.8
		c-0.3,0.7-0.5,0.4-0.5-0.5c-0.1-1,0.2-1.5,0.4-1.2C1293.3,1827.4,1293.4,1828.2,1293.1,1828.8z M1294,1835.1
		c-0.3,0.7-0.5,0.5-0.5-0.5c-0.1-1,0.2-1.5,0.5-1.2C1294.2,1833.7,1294.3,1834.5,1294,1835.1z M1294.9,1840.5
		c-0.3,0.7-0.5,0.5-0.5-0.5c-0.1-1,0.2-1.5,0.5-1.2C1295.1,1839.1,1295.2,1839.9,1294.9,1840.5z M1295.8,1846.8
		c-0.3,0.7-0.5,0.4-0.5-0.5c-0.1-1,0.2-1.5,0.5-1.2C1296,1845.4,1296.1,1846.2,1295.8,1846.8z M1296.7,1853.1
		c-0.3,0.6-0.5,0.2-0.5-1.1c0-1.3,0.2-1.7,0.5-1.2C1296.9,1851.5,1296.9,1852.6,1296.7,1853.1z M1297.6,1858.5
		c-0.3,0.7-0.5,0.5-0.5-0.5c-0.1-1,0.2-1.5,0.4-1.2C1297.8,1857.1,1297.9,1857.9,1297.6,1858.5z M1298.5,1864.8
		c-0.3,0.7-0.5,0.4-0.5-0.5c-0.1-1,0.2-1.5,0.5-1.2C1298.7,1863.4,1298.8,1864.2,1298.5,1864.8z M1299.4,1870.2
		c-0.3,0.7-0.5,0.4-0.5-0.5c-0.1-1,0.2-1.5,0.5-1.2C1299.6,1868.8,1299.7,1869.6,1299.4,1870.2z M1300.3,1875.6
		c-0.3,0.7-0.5,0.5-0.5-0.5c-0.1-1,0.2-1.5,0.5-1.2C1300.5,1874.2,1300.6,1875,1300.3,1875.6z M1305.7,1908
		c-0.3,0.7-0.5,0.5-0.5-0.5c-0.1-1,0.2-1.5,0.4-1.2C1305.9,1906.6,1306,1907.4,1305.7,1908z M1307.5,1917.9
		c-0.3,0.7-0.5,0.5-0.5-0.5c-0.1-1,0.2-1.5,0.5-1.2C1307.7,1916.5,1307.8,1917.3,1307.5,1917.9z M1308.4,1922.4
		c-0.3,0.7-0.5,0.5-0.5-0.5c-0.1-1,0.2-1.5,0.5-1.2C1308.6,1921,1308.7,1921.8,1308.4,1922.4z M1346.2,1745.7
		c4.5-5.3,11.8-6.8,17.2-3.5c5.8,3.5,2.9,10.2-5.8,13.5c-6,2.3-10.4,1.8-12.4-1.2C1343.1,1751.7,1343.4,1749.1,1346.2,1745.7z
		 M1477.3,2119.1c-3.4,7-9.6,7.9-23,3.4c-21.1-7.2-31-16.9-26.5-26.2c3.2-6.8,11.3-8.4,22.3-4.5c13.5,4.8,25.9,13.9,27.8,20.3
		C1478.8,2115,1478.8,2116.1,1477.3,2119.1z M1537.5,2111.7c-4.7,1.2-6.8,1.3-13.1,0.4c-9.8-1.3-24.9-6-43.5-13.5
		c-8.4-3.3-25.4-9.6-37.7-13.9c-38.3-13.3-54.7-20.4-74.3-32.4c-25.6-15.5-40.5-29-40.5-36.4c0-2.8,2.3-6.3,4.1-6.3
		c0.7,0,1.3-0.6,1.3-1.4c0-1.3,0.1-1.3,1.4,0c0.7,0.8,2.2,1.4,3.1,1.4c3.1,0,13.5,4.9,27.6,12.9c33.8,19.3,55.2,27.5,103.7,40.2
		c53.9,14.1,78.8,24.9,81.5,35.6C1552.7,2103.9,1547.3,2109.2,1537.5,2111.7z"/>
	<path id="structure24_label24_Ro" bar:growlevel="0" bar:type="" class="st28" d="M1316.8,1752.7c-7.7,4.8-13.9,6.8-22.7,7.4
		c-9.2,0.5-9.5,1-5.3,7.6c4.8,7.6,20.2,18.6,30.5,22c12.6,4,20.1-1.3,22.8-16.2C1345.5,1754.8,1331.5,1743.4,1316.8,1752.7z"/>
	<path class="st29" d="M1790.9,1948.8c-0.3-0.3-2.1-0.3-4,0.1c-3.2,0.5-3.8,1-5.1,4.4c-3.5,8.4-15.8,16.5-30.9,20.3
		c-4,1-12.1,2.2-18,2.5c-9.4,0.7-12.5,1.4-24.7,5.6c-7.7,2.6-17.9,5.4-22.8,6.3c-10.3,1.9-10.5,2.1-19.5,13.9
		c-10.7,14.1-20.2,31-34.4,61.2c-4.3,9.2-17,18.8-30,22.6c-3,0.8-8.5,1.6-12.2,1.6c-6.1,0.1-7.5-0.3-13.5-3.2
		c-4.3-2.2-11.4-7.4-20.2-14.7c-16.8-14.1-23.5-17.6-44.1-22.9c-7.8-2.1-17-4.9-20.3-6.5c-6.8-3.2-12.6-8.6-14.8-13.7
		c-2-4.9-3.1-17.6-2.2-25.4c2.8-22.5,14.6-34.4,35-35.4c14-0.6,23.7,2.4,34.7,11.1c12.9,10.1,29,20.1,36.1,22.4
		c13.1,4.3,31.8,6.6,31.8,3.8c0-0.7-1.7-4.1-3.7-7.7c-2.1-3.5-6.7-12.8-10.3-20.5c-8-17.4-18.1-37.6-24-48.2
		c-3.7-6.6-5.3-8.5-9.7-11.4c-8.5-5.8-13.5-13.5-13.5-20.9c0-4.9-11.2-25.2-26.4-48c-35.7-53.7-81.4-102.6-118.7-127.1
		c-7.9-5.2-22.7-12.9-24.8-12.9c-1.3,0-24.3,18.4-29.1,23.1c-3.5,3.5-20.9,15.8-23.6,16.7c-1.9,0.6,0,3.1,2.7,3.7
		c3.7,0.7,8.2,4.9,10.2,9.2c3.6,7.8,1.2,22-4.8,28.1c-3.7,3.9-8.3,5.1-13.8,3.9c-13.4-3-36.4-20.9-36.4-28.4c0-1.6-0.8-2.2-5.1-3.1
		c-14.8-3.2-27.5-12.3-31.1-22.2c-0.6-1.6-1.6-3-2.3-3c-0.1,0-0.2,0-0.3,0.1v28.2c7.7,0,10.8,0.2,7,0.3c-1.9,0.1-4.5,0.1-7,0.1v3.9
		c1.2,0,2.5,0.8,3.3,2.6c2.5,5.1,2.9,17.4,3.2,93.2c0.2,51.7,0.5,78.6,1.2,78.6c0.5,0,1.7-1.3,2.8-3c1-1.5,3-3.5,4.3-4.1
		c2.2-1.2,2.9-1.2,6.2,0c7.4,2.5,8,7.4,5.9,45c-0.5,9.9-0.7,18.3-0.4,18.6c0.4,0.3,2.5-0.2,4.9-1c2.3-0.8,5.4-1.5,6.8-1.5
		c7.4,0,32.8,18.9,34.5,25.7c0.4,1.4,0.2,3.2-0.4,4.1c-0.8,1.3-0.7,2.9,0.3,6.8c4,15.3,3.5,28.3-1.4,38.9c-1.5,3.2-2.7,6-2.7,6.4
		c0,0.9,11.6,4,12.3,3.2c0.4-0.3-0.1-2-0.9-3.7c-2.3-4.8-1.9-8.6,1.7-15.8c2.7-5.3,3.9-6.8,6.5-7.8c3.7-1.5,11.5-1.6,17.9-0.3
		c9.3,2.1,32.8,15.3,44,24.8c9.5,8.1,11.4,21.1,4.1,27.7c-1.1,1-1.9,2.2-1.9,2.8c0,0.5,3.5,1.7,8.1,2.5c12.3,2.4,23.3,5.8,29.3,9.2
		c19.3,10.8,24.9,21.3,15.8,29.6c-1.1,1-1.9,2.3-1.9,3c0,1.7,3,1.3,22.5-3.4c42.5-10.2,103.7-31.8,151.2-53.5
		c6.2-2.8,11.9-5.3,12.6-5.5c0.8-0.3,2.2-2.4,3-4.9c2.1-5.8,7.4-10.4,21-18.4c11.7-6.9,27.2-17.5,41.8-28.6
		c19.4-14.8,24.1-19.4,37.4-36c12.2-15.4,13.2-16.4,24.3-24.4c12.7-9.2,22.3-18.7,25-24.7C1790.6,1950.9,1791.1,1949,1790.9,1948.8z
		 M1288.6,1800.9c-0.3,0.7-0.5,0.5-0.5-0.5c-0.1-1,0.2-1.5,0.4-1.2C1288.8,1799.5,1288.9,1800.3,1288.6,1800.9z M1289.5,1806.3
		c-0.3,0.7-0.5,0.4-0.5-0.5c-0.1-1,0.2-1.5,0.5-1.2C1289.7,1804.9,1289.8,1805.7,1289.5,1806.3z M1290.4,1811.7
		c-0.3,0.7-0.5,0.4-0.5-0.5c-0.1-1,0.2-1.5,0.5-1.2C1290.6,1810.3,1290.7,1811.1,1290.4,1811.7z M1291.3,1817.1
		c-0.3,0.7-0.5,0.5-0.5-0.5c-0.1-1,0.2-1.5,0.5-1.2C1291.5,1815.7,1291.6,1816.5,1291.3,1817.1z M1292.2,1823.4
		c-0.3,0.7-0.5,0.5-0.5-0.5c-0.1-1,0.2-1.5,0.4-1.2C1292.4,1822,1292.5,1822.8,1292.2,1823.4z M1293.1,1828.8
		c-0.3,0.7-0.5,0.4-0.5-0.5c-0.1-1,0.2-1.5,0.4-1.2C1293.3,1827.4,1293.4,1828.2,1293.1,1828.8z M1294,1835.1
		c-0.3,0.7-0.5,0.5-0.5-0.5c-0.1-1,0.2-1.5,0.5-1.2C1294.2,1833.7,1294.3,1834.5,1294,1835.1z M1294.9,1840.5
		c-0.3,0.7-0.5,0.5-0.5-0.5c-0.1-1,0.2-1.5,0.5-1.2C1295.1,1839.1,1295.2,1839.9,1294.9,1840.5z M1295.8,1846.8
		c-0.3,0.7-0.5,0.4-0.5-0.5c-0.1-1,0.2-1.5,0.5-1.2C1296,1845.4,1296.1,1846.2,1295.8,1846.8z M1296.7,1853.1
		c-0.3,0.6-0.5,0.2-0.5-1.1c0-1.3,0.2-1.7,0.5-1.2C1296.9,1851.5,1296.9,1852.6,1296.7,1853.1z M1297.6,1858.5
		c-0.3,0.7-0.5,0.5-0.5-0.5c-0.1-1,0.2-1.5,0.4-1.2C1297.8,1857.1,1297.9,1857.9,1297.6,1858.5z M1298.5,1864.8
		c-0.3,0.7-0.5,0.4-0.5-0.5c-0.1-1,0.2-1.5,0.5-1.2C1298.7,1863.4,1298.8,1864.2,1298.5,1864.8z M1299.4,1870.2
		c-0.3,0.7-0.5,0.4-0.5-0.5c-0.1-1,0.2-1.5,0.5-1.2C1299.6,1868.8,1299.7,1869.6,1299.4,1870.2z M1300.3,1875.6
		c-0.3,0.7-0.5,0.5-0.5-0.5c-0.1-1,0.2-1.5,0.5-1.2C1300.5,1874.2,1300.6,1875,1300.3,1875.6z M1305.7,1908
		c-0.3,0.7-0.5,0.5-0.5-0.5c-0.1-1,0.2-1.5,0.4-1.2C1305.9,1906.6,1306,1907.4,1305.7,1908z M1307.5,1917.9
		c-0.3,0.7-0.5,0.5-0.5-0.5c-0.1-1,0.2-1.5,0.5-1.2C1307.7,1916.5,1307.8,1917.3,1307.5,1917.9z M1308.4,1922.4
		c-0.3,0.7-0.5,0.5-0.5-0.5c-0.1-1,0.2-1.5,0.5-1.2C1308.6,1921,1308.7,1921.8,1308.4,1922.4z M1346.2,1745.7
		c4.5-5.3,11.8-6.8,17.2-3.5c5.8,3.5,2.9,10.2-5.8,13.5c-6,2.3-10.4,1.8-12.4-1.2C1343.1,1751.7,1343.4,1749.1,1346.2,1745.7z
		 M1477.3,2119.1c-3.4,7-9.6,7.9-23,3.4c-21.1-7.2-31-16.9-26.5-26.2c3.2-6.8,11.3-8.4,22.3-4.5c13.5,4.8,25.9,13.9,27.8,20.3
		C1478.8,2115,1478.8,2116.1,1477.3,2119.1z M1537.5,2111.7c-4.7,1.2-6.8,1.3-13.1,0.4c-9.8-1.3-24.9-6-43.5-13.5
		c-8.4-3.3-25.4-9.6-37.7-13.9c-38.3-13.3-54.7-20.4-74.3-32.4c-25.6-15.5-40.5-29-40.5-36.4c0-2.8,2.3-6.3,4.1-6.3
		c0.7,0,1.3-0.6,1.3-1.4c0-1.3,0.1-1.3,1.4,0c0.7,0.8,2.2,1.4,3.1,1.4c3.1,0,13.5,4.9,27.6,12.9c33.8,19.3,55.2,27.5,103.7,40.2
		c53.9,14.1,78.8,24.9,81.5,35.6C1552.7,2103.9,1547.3,2109.2,1537.5,2111.7z"/>
	<path id="structure27_label27_IOD" bar:growlevel="0" bar:type="" class="st30" d="M1330.3,2011.3c-5.8,5.8,3.3,17.5,25.4,32.2
		c26.9,18,40.1,24.1,87.1,40.7c15.1,5.3,32.9,12,39.7,14.7c36.4,14.8,55.7,16.9,65.8,7.2c3.4-3.2,3.5-8.8,0.2-12.8
		c-7.3-8.7-37.5-20.2-84.5-31.9c-36.1-9.1-66.9-21-93.8-36.4c-19.2-11-27-14.6-32.9-15.2C1333,2009.4,1332.1,2009.5,1330.3,2011.3z"
		/>
	<path class="st31" d="M1748.3,1401.6c-13-13.9-28.5-30.7-34.7-37.4c-32.2-35.5-59.7-75-104.4-150.3c-31.6-53.4-42.5-70.7-57.2-91.5
		c-21.6-30.3-37.7-47.8-59.3-64c-17.2-13-30.2-16.9-62.5-19.1c-30.5-2.1-63.8-1-129.6,4.1c-22.5,1.7-46.4,3.1-53.1,3.1v39.5
		c0,0,0.1,0,0.1,0c2.8,0,17.2-1.2,31.9-2.7c14.9-1.4,33-3.1,40.4-3.7c42.6-3.3,110.4,6.1,146,20.5c23.3,9.4,45.1,24.3,61.4,42.2
		c17.8,19.5,29.6,38.6,64.9,104.8c29.5,55.4,39.3,71.6,58.9,98.1c12.8,17.3,13.7,18.7,11.8,19.4c-0.7,0.3-2.3,0-3.4-0.6
		c-8.4-4.3-31-27.1-38.6-38.6c-7.2-11.1-20.3-34.3-50.8-90c-32.1-58.9-35.3-64.3-41.3-72.4c-14.1-18.8-33.4-34.4-57.2-46.4
		c-23.1-11.5-41.6-16.4-82.8-21.7c-11-1.4-21.7-2.1-41.4-2.3c-28-0.5-43.4,0.2-79.6,3.7c-10.5,1-15.7,1.4-20.3,1.5v24.2
		c6.3,0,12.7-0.4,21.1-1.3c45.7-4.5,99.5-4.3,137.3,0.5c50.9,6.5,78.4,20.7,102.4,53c16.8,22.7,26.6,42.8,52.6,107.5
		c30.1,75.1,35.1,84.9,54.9,106.4c14.4,15.7,25.9,24.4,48.9,37c25.3,13.9,70.7,32.3,95.3,38.5c22.3,5.7,29.3,3.3,29.3-9.5
		C1789.3,1445.6,1788.9,1445.1,1748.3,1401.6z"/>
	<path id="structure30_label30_IOC" bar:growlevel="0" bar:type="" class="st32" d="M1313.8,2028.1c-0.4,0.4-5.9,0.9-12.5,1.4
		c-6.6,0.4-17.2,1.5-23.7,2.6c-6.4,1-13.9,1.8-16.7,1.8h-5l-0.6,17.1c-0.5,16.1-0.5,17.4,1.3,21.5c2.8,6.5,5,8.2,13.6,10.1
		c19.9,4.4,41.5,0.2,46.9-9.2c5.8-10,6.8-25.7,2.3-42.5c-0.7-2.6-1.4-3.3-3-3.3C1315.3,2027.5,1314.1,2027.8,1313.8,2028.1z"/>
	<path id="structure31_label31_IOB" bar:growlevel="0" bar:type="" class="st33" d="M1336.6,2052.8c-5.6,2.3-9.9,10-9.9,17.7
		c0,12.2,9.6,19,43.1,30.3c23.9,8,27.4,8.5,32,3.8c4.8-4.8,5.2-13.4,1.1-20.8c-4.7-8.4-35.3-27.4-49.3-30.7
		C1347.1,2051.7,1339.9,2051.5,1336.6,2052.8z"/>
	<path id="structure32_label32_LRt" bar:growlevel="0" bar:type="" class="st34" d="M1503.5,1966.4c-21.2,3.2-32.8,25-28.3,52.9
		c2.3,14.3,8.8,19.4,32.4,25.7c26.5,7.1,30,8.8,47.3,23.4c18.4,15.5,24,18.5,35.1,18.5c21.7,0,42.8-16.6,45.4-35.6
		c2-14.7-4.4-33.4-14.9-43.7l-4-3.9l-8.3,0.3c-19.9,0.7-35.6-5.7-60-24.2c-4.2-3.2-9.1-6.7-10.8-7.7
		C1529.2,1967.1,1514.7,1964.7,1503.5,1966.4z"/>
	<path id="structure33_label33_LRtS5" bar:growlevel="0" bar:type="" class="st35" d="M1692.1,1901.2c-11.9,2.5-16.2,4.7-23,11.6
		c-6.8,6.8-12.3,15.4-15.9,24.8c-2,5.1-2.3,7.7-2.8,19.8c-0.5,15.6,0,17.6,5.9,23c5.3,5,10.2,6.9,19,7.4c10.1,0.5,15.7-0.6,33.6-6.6
		c13-4.4,15.7-5,26.1-5.8c23.4-1.8,40.7-9.6,46.2-21.1c2.5-5.2,2.4-5.8-1.4-6.5c-5.4-1-15.6-6.8-20.7-11.7c-3.7-3.6-4.8-5.3-5.3-8.4
		c-0.7-4.5-2.3-6-13.7-13.1c-9.6-5.9-17.6-10.1-25.2-12.9C1708.3,1899.4,1701.1,1899.2,1692.1,1901.2z"/>
	<path id="structure34_label34_SolV" bar:growlevel="0" bar:type="" class="st36" d="M1416.1,1637.6c2.4,14.8,2.7,25.9,0.9,32.4
		c-0.4,1.7,0.2,2.3,5.1,4.6c3.2,1.4,10,4.9,15.2,7.7c13.6,7.5,17.2,8.1,44.6,8.2c12.4,0,24-0.4,25.9-0.7c4-0.8,4.4-3,0.9-4.4
		c-21.4-8.6-34.6-18.2-38.7-28.3c-1.5-3.8-1.8-4-5.4-4c-11.5,0-26.5-5.2-39.1-13.7c-4.3-2.9-8.4-5.2-8.9-5.2
		C1415.8,1634.2,1415.7,1635.2,1416.1,1637.6z"/>
	<path id="structure35_text3102_SolM" bar:growlevel="0" bar:type="" class="st37" d="M1320.3,1600.5c-7.9,7-17.4,14.5-22.7,17.9
		l-9.2,5.8l0.2,4.8c0.2,2.7,0.5,6.2,0.7,7.8c0.5,2.9,0.6,3,3.9,2.3c1.8-0.4,8.6-0.6,15-0.6c13.9,0.2,29.7,2.6,46.2,7.3
		c13.4,3.8,16.4,4.3,16.4,3.3c0-0.5-1-2.8-2.3-5.2c-1.3-2.4-2.3-5.6-2.3-7c0-3.4,5.4-9.2,10.3-11.1c3.6-1.4,4.1-1.4,7.2,0.1
		c1.8,0.8,3.5,2.1,3.8,2.8c0.9,2.4,2.9,1.1,4.2-3.1c2.5-7.3,2.3-7.8-5-10.6c-3.6-1.3-12.3-4.4-19.4-6.8c-7-2.4-15.1-5.6-18-7
		c-5.6-2.8-11.4-7.9-12.3-10.9c-0.3-1-1.2-1.8-1.9-1.8C1334.5,1588.3,1327.7,1593.8,1320.3,1600.5z"/>
	<path class="st31" d="M1748.3,1401.6c-13-13.9-28.5-30.7-34.7-37.4c-32.2-35.5-59.7-75-104.4-150.3c-31.6-53.4-42.5-70.7-57.2-91.5
		c-21.6-30.3-37.7-47.8-59.3-64c-17.2-13-30.2-16.9-62.5-19.1c-30.5-2.1-63.8-1-129.6,4.1c-22.5,1.7-46.4,3.1-53.1,3.1v39.5
		c0,0,0.1,0,0.1,0c2.8,0,17.2-1.2,31.9-2.7c14.9-1.4,33-3.1,40.4-3.7c42.6-3.3,110.4,6.1,146,20.5c23.3,9.4,45.1,24.3,61.4,42.2
		c17.8,19.5,29.6,38.6,64.9,104.8c29.5,55.4,39.3,71.6,58.9,98.1c12.8,17.3,13.7,18.7,11.8,19.4c-0.7,0.3-2.3,0-3.4-0.6
		c-8.4-4.3-31-27.1-38.6-38.6c-7.2-11.1-20.3-34.3-50.8-90c-32.1-58.9-35.3-64.3-41.3-72.4c-14.1-18.8-33.4-34.4-57.2-46.4
		c-23.1-11.5-41.6-16.4-82.8-21.7c-11-1.4-21.7-2.1-41.4-2.3c-28-0.5-43.4,0.2-79.6,3.7c-10.5,1-15.7,1.4-20.3,1.5v24.2
		c6.3,0,12.7-0.4,21.1-1.3c45.7-4.5,99.5-4.3,137.3,0.5c50.9,6.5,78.4,20.7,102.4,53c16.8,22.7,26.6,42.8,52.6,107.5
		c30.1,75.1,35.1,84.9,54.9,106.4c14.4,15.7,25.9,24.4,48.9,37c25.3,13.9,70.7,32.3,95.3,38.5c22.3,5.7,29.3,3.3,29.3-9.5
		C1789.3,1445.6,1788.9,1445.1,1748.3,1401.6z"/>
	<path class="st38" d="M1748.3,1401.6c-13-13.9-28.5-30.7-34.7-37.4c-32.2-35.5-59.7-75-104.4-150.3c-31.6-53.4-42.5-70.7-57.2-91.5
		c-21.6-30.3-37.7-47.8-59.3-64c-17.2-13-30.2-16.9-62.5-19.1c-30.5-2.1-63.8-1-129.6,4.1c-22.5,1.7-46.4,3.1-53.1,3.1v39.5
		c0,0,0.1,0,0.1,0c2.8,0,17.2-1.2,31.9-2.7c14.9-1.4,33-3.1,40.4-3.7c42.6-3.3,110.4,6.1,146,20.5c23.3,9.4,45.1,24.3,61.4,42.2
		c17.8,19.5,29.6,38.6,64.9,104.8c29.5,55.4,39.3,71.6,58.9,98.1c12.8,17.3,13.7,18.7,11.8,19.4c-0.7,0.3-2.3,0-3.4-0.6
		c-8.4-4.3-31-27.1-38.6-38.6c-7.2-11.1-20.3-34.3-50.8-90c-32.1-58.9-35.3-64.3-41.3-72.4c-14.1-18.8-33.4-34.4-57.2-46.4
		c-23.1-11.5-41.6-16.4-82.8-21.7c-11-1.4-21.7-2.1-41.4-2.3c-28-0.5-43.4,0.2-79.6,3.7c-10.5,1-15.7,1.4-20.3,1.5v24.2
		c6.3,0,12.7-0.4,21.1-1.3c45.7-4.5,99.5-4.3,137.3,0.5c50.9,6.5,78.4,20.7,102.4,53c16.8,22.7,26.6,42.8,52.6,107.5
		c30.1,75.1,35.1,84.9,54.9,106.4c14.4,15.7,25.9,24.4,48.9,37c25.3,13.9,70.7,32.3,95.3,38.5c22.3,5.7,29.3,3.3,29.3-9.5
		C1789.3,1445.6,1788.9,1445.1,1748.3,1401.6z"/>
	<path id="structure45_label44_cu" bar:growlevel="0" bar:type="" class="st39" d="M1595.6,1460.5c-11.3,2-24,8.1-29.8,14.1
		c-4.8,5-5,6.9-0.5,7.3c2.5,0.2,5.2-0.7,11.3-3.9c15.9-8.4,36.2-11.3,54.8-8.1c13.8,2.4,22.5,8.3,24.8,16.8
		c3.2,12-11.7,28.6-34.4,38.2c-8.6,3.6-13.5,4.6-30.9,5.8c-25.7,1.7-33,5.5-25.4,13c1.9,2,4.1,3.1,6.7,3.5
		c11.1,1.8,44.9-10.6,79.5-29.1c26.1-14,34.1-17,44.4-17.1c5.8,0,5.5-1.4-1.3-7c-10.6-8.7-28.5-17.4-57.8-27.8
		c-15.9-5.7-16.6-5.9-26.6-6.1C1604.5,1459.9,1597.9,1460.1,1595.6,1460.5z"/>
	<path id="structure48_label47_sp5" bar:growlevel="0" bar:type="" class="st40" d="M1683.5,1503.2c-6.2,1.8-15.8,6.3-30.5,14.4
		c-15.9,8.7-17.9,10.3-20.7,16c-3.1,6.6-3.8,12.3-2,15.9c3.7,7,20.1,10.7,59.8,13.6c15.5,1.1,31.3,4.9,59.9,14.4
		c57.4,19.1,87.7,45.3,110.1,95.4c8.6,19.2,14.3,38.3,17.1,57.2c1.8,12.3,1.4,38.3-1,53.5c-3.7,24.5-11.9,49.9-20.9,65.2
		c-8.5,14.2-28,31.5-52.2,46.1l-10.6,6.4l-2,5.8c-3,8.8-2.7,11.5,1.5,16.3c4.5,5.2,7.6,6.4,14.6,5.9c10.8-0.7,23.3-8.3,39.7-24.1
		c33.6-32.3,52.7-68.5,59.7-112.5c2.3-14.4,2.3-48.2,0.1-63.4c-4.6-31.1-13.7-59.7-27.4-86.3c-6.8-13.1-18.7-31.9-26.9-42
		c-16.7-20.7-47.1-43.7-78.8-59.8c-11.8-6-11.8-6-15.9-4.9c-2.2,0.6-8.3,1.4-13.5,1.9c-14.8,1.3-23.6,3.2-39.4,8.7
		c-7.1,2.4-10,3.1-12.5,2.5c-3.9-0.7-8.4-4.9-8.4-7.8c0-5,8.9-13,21.2-18.8c7.7-3.8,14.1-5.3,21.7-5.3c6.8,0,6.3-1.9-1.1-4.5
		c-3.2-1.1-9.5-3.9-13.7-6.1c-7.2-3.7-8.5-4.1-15.5-4.3C1690.8,1502,1686.4,1502.4,1683.5,1503.2z"/>
	<path id="structure4_label3_Crus2" bar:growlevel="0" bar:type="" class="st41" d="M1752.8,1005.9c-13.7,3.1-18.5,7-18.5,15.4
		c0,8.5,7.1,19.5,27.4,42.8c45.1,51.8,165.8,149,239,192.5c17.9,10.7,40.2,21.6,50,24.5c11.7,3.5,23.9,3.5,31.2,0.2
		c9-4.1,17.3-14.3,21.5-26.5c2.3-6.6,2-17.1-0.9-24.7c-6.4-16.9-25.6-39.7-52.6-62.2c-31.9-26.8-126.4-93.5-167.1-118
		c-21.7-13-53.2-27.8-77.4-36.2C1780.6,1005.1,1766,1002.9,1752.8,1005.9z"/>
	<path id="structure51_label50_rs" bar:growlevel="0" bar:type="" class="st42" d="M1764.5,1912.1c-4.2,1.1-7.8,3.4-9,5.8
		c-1.7,3.3-1.7,11,0,14.3c1.8,3.6,9,9.1,16.5,12.8c5.2,2.6,6.8,3,13.2,3c13.2,0,19.3-4,19.3-12.6c0-4.7,0-4.8-3.1-5.3
		c-4.4-0.8-9.7-5-12.2-9.8c-3.1-5.8-7.5-8.1-16.2-8.4C1769.4,1911.6,1765.5,1911.8,1764.5,1912.1z"/>
	<path id="structure55_label54_apmf" bar:growlevel="0" bar:type="" class="st43" d="M1648.4,903.3c-12.1,2-24.8,7.9-29.3,13.7
		c-5.8,7.4-8.6,20.7-7.7,36.6c0.5,8.3,0.8,9.7,2.9,12.4c1.4,1.7,10.7,11.7,20.9,22.2c32.1,33.1,45.5,48.1,63.7,71.3
		c23.5,30.1,38.3,46.4,71.5,79.7c53.8,53.6,85.6,79,161.4,128.4c78.9,51.6,129.3,78.8,150.6,81.6l4.5,0.6l8.5-6.6
		c12.4-9.5,25.7-23.3,32.7-33.8c14.5-21.8,19.8-41.5,19.8-74.1c0.1-18.4-1.4-27.8-6.7-43.6c-10-30-38.1-75.7-69.7-113.5
		c-18.5-22.1-50.3-52.9-75-72.7c-47.8-38.3-91.9-64-132.8-77.7c-14.8-4.9-26.3-7.2-42.8-8.5c-40.4-3.1-128-12.1-142.9-14.9
		C1668.3,903.2,1654.2,902.4,1648.4,903.3z M1781.5,1005.6c27.5,6.2,71.6,25.1,102.2,43.8c34.7,21.1,90,59.4,137.3,94.8
		c26.8,20.2,36.1,27.9,50.9,42.8c13.4,13.3,22.4,24.8,27.8,35.1c8.8,17,8.7,28.4-0.5,43.7c-11.5,19.3-29.3,23.8-55,14.2
		c-18.2-6.8-54.1-27.5-85.3-49.2c-98.7-68.5-197.5-156.1-221-195.9c-4.3-7.3-5.9-13-4.6-17.1
		C1737,1005.8,1758.4,1000.4,1781.5,1005.6z"/>
	<path id="structure57_label56_IOK" bar:growlevel="0" bar:type="" class="st44" d="M1260.7,1934.9c-1,0.5-2.7,3.1-3.9,5.7
		c-1.7,3.6-2.2,6.1-2.2,11.9c0,6.8,0.3,7.8,4,15.6c4.9,9.9,5,11.7,1.8,27.1c-1.3,6.1-2.3,11.4-2.3,11.8c0,1.6,2.3,0.7,8.2-3.3
		l6.1-4.2l0.4-6.4c1.3-15.4,2.4-46.1,1.9-49.5c-0.7-4.2-2-6.8-4-8.4C1269.1,1933.8,1262.8,1933.7,1260.7,1934.9z"/>
	<path id="structure5_label4_PM" bar:growlevel="0" bar:type="" class="st45" d="M1588.8,993.3c-6.2,4,5.9,39.7,29.4,86.1
		c11.8,23.4,19.4,36.3,36.5,62.1c34.2,51.7,68.3,97.6,104.6,140.6c33.9,40.2,50.4,61.3,64.7,82.7c10.9,16.1,14.8,23,29,51.2
		c12.1,24,17.8,33.2,24.9,40.6c5.8,5.8,10.4,8.1,18.6,8.9c17.5,1.8,31.7-7,46.2-28.9c12.2-18.3,23.2-26.6,50.4-38.2
		c23-9.7,35.1-20.8,39.1-35.9c1.4-4.9,0.1-8.3-3.9-10.3c-1.6-0.8-7.9-3.4-14.1-5.8c-43.8-17.2-120.1-57.3-161.5-85
		c-47.9-31.9-96.3-77.3-133.1-124.7c-10.2-13.1-18.5-25.4-31.1-45.5c-5.6-8.9-12.9-20.1-16.2-24.8c-25.9-36.5-54.9-66-71.3-72.2
		C1596.6,992.5,1590.7,992,1588.8,993.3z M1664.7,1097.1c4.5,4.1,14.1,16,35,43.9c9.8,13.1,21.2,28,25.3,32.9
		c18.8,22.9,60.3,67.3,108,115.6c15.9,16.1,29.4,30.2,30.1,31.4c0.9,1.8,0.8,2.4-0.6,4.5c-2.3,3.1-4.9,3.3-9.6,1
		c-8.6-4.1-96.7-97-131.9-139.1c-28.5-34-61.2-82.4-61.2-90.8C1659.7,1093.5,1660.7,1093.6,1664.7,1097.1z"/>
	<path id="structure60_label59_C1-A1" bar:growlevel="0" bar:type="" class="st46" d="M1637.6,1939.7c-5,1.6-8.9,3.7-16.4,8.8
		c-13,9-19.5,18.5-19.6,28.6c0,5.5,0.4,6.4,5.4,15.6c4.6,8.3,5.9,9.9,9.1,11.4c2,1,4.3,1.8,5.2,1.8c4.2,0,17.9-13.1,22.5-21.5
		c6.4-11.9,9-37.6,4.3-43.3C1646.2,1938.8,1642.1,1938.2,1637.6,1939.7z"/>
	<path class="st47" d="M1259.7,1970.1c-1.4-3.1-3.1-5.6-3.6-5.6c-0.7,0-1,5.9-1,18.2c0,14.8-0.3,19.3-1.6,23.4
		c-1.4,4.8-3.7,7.4-6,7.5v84.8c4.2,0.1,7.5-5.5,9-15.7c0.9-5.7,0.8-6.9-0.9-12.1c-1.9-5.4-1.9-6.4-1-16.6c0.6-6,1-16.6,1-23.4
		c-0.1-11.2,0.3-14.4,3.1-28.4C1262.9,1981.7,1263.1,1977.3,1259.7,1970.1z"/>
	<path id="structure63_label62_IOPr" bar:growlevel="0" bar:type="" class="st48" d="M1433.3,2090.9c-3.7,1.6-5.9,5.1-5.9,9.5
		c0,9,7.8,15.2,26.9,21.6c15.2,5.1,23.5,2.5,23.5-7.3c0-6.5-5.9-12.3-19.4-18.8C1445.9,2089.7,1439,2088.4,1433.3,2090.9z"/>
	<path id="structure65_label64_10n" bar:growlevel="0" bar:type="" class="st49" d="M1760,1526.4c0.4,1.2,0.6,3.5,0.6,5.3
		c-0.1,2.8,0.3,3.3,2.8,4.2c4.6,1.6,29.4,15.7,39.2,22.1c27.4,18.1,46.4,36.8,62.5,61.3c24.9,38.3,39.3,81.2,42.9,127.8
		c2.4,30.3-3.2,64.3-15,92.3c-16.3,38.3-54.9,80.9-80.8,89.1l-6.8,2.2v3.7c0,6-3.7,10.4-11,13c-1.7,0.5-3.2,2.4-5.2,6.3
		c-3.6,7.1-11.3,14.6-24.6,24.1c-11,7.8-11.6,8.4-27.5,28.1c-10.8,13.4-17.5,19.5-37.5,34.6c-15.5,11.6-28.1,20.2-42.5,28.8
		c-10.5,6.3-16.5,11.9-16.5,15.6c0,1.2,0.5,2.1,0.9,2.1c1.3,0,13.9-6.4,28.8-14.7c34.9-19.4,67.4-40.9,87.3-57.9
		c20.7-17.5,102.7-99.7,115.7-115.7c11.3-14.1,23.8-33.9,29.8-47.3c7.1-15.7,13.7-41.2,18.1-70.4c1.2-7.7,1.5-15.9,1.5-31.5
		c0.1-21,0-21.2-2.8-31.5c-15.4-55.5-48-114.4-81.8-147.8c-20.9-20.6-43.8-35.1-67.8-42.9C1760.1,1523.8,1759.1,1523.7,1760,1526.4z
		"/>
	<path id="structure66_label65_IRt" bar:growlevel="0" bar:type="" class="st25" d="M1647.1,1977.6c-2.2,7.6-14.2,22.2-22.2,27
		c-3.6,2.1-3.7,3.4-0.6,7c5.7,6.7,12.1,23.9,12.1,32.3c0,5.2,1.9,4.2,5.3-2.7c7-14.3,20.2-35,28.5-44.8c2.7-3.1,4.9-6.1,4.9-6.6
		c0-0.5-2.2-1.3-4.9-1.9c-6-1.3-11.9-4.9-16.4-10.3c-1.9-2.3-3.9-4.1-4.5-4.1C1648.7,1973.5,1647.7,1975.3,1647.1,1977.6z"/>
	<path class="st50" d="M1253.9,1903.8c-0.2-55.4-0.6-107.5-1.1-115.6c-0.8-16.1-2.2-22.1-5.4-21.5v246.5c0.2,0,0.4,0,0.5,0
		c1.8,0,2.6-0.8,4.2-4.3l2-4.2L1253.9,1903.8z"/>
	<path class="st11" d="M1790.9,1948.8c-0.3-0.3-2.1-0.3-4,0.1c-3.2,0.5-3.8,1-5.1,4.4c-3.5,8.4-15.8,16.5-30.9,20.3
		c-4,1-12.1,2.2-18,2.5c-9.4,0.7-12.5,1.4-24.7,5.6c-7.7,2.6-17.9,5.4-22.8,6.3c-10.3,1.9-10.5,2.1-19.5,13.9
		c-10.7,14.1-20.2,31-34.4,61.2c-4.3,9.2-17,18.8-30,22.6c-3,0.8-8.5,1.6-12.2,1.6c-6.1,0.1-7.5-0.3-13.5-3.2
		c-4.3-2.2-11.4-7.4-20.2-14.7c-16.8-14.1-23.5-17.6-44.1-22.9c-7.8-2.1-17-4.9-20.3-6.5c-6.8-3.2-12.6-8.6-14.8-13.7
		c-2-4.9-3.1-17.6-2.2-25.4c2.8-22.5,14.6-34.4,35-35.4c14-0.6,23.7,2.4,34.7,11.1c12.9,10.1,29,20.1,36.1,22.4
		c13.1,4.3,31.8,6.6,31.8,3.8c0-0.7-1.7-4.1-3.7-7.7c-2.1-3.5-6.7-12.8-10.3-20.5c-8-17.4-18.1-37.6-24-48.2
		c-3.7-6.6-5.3-8.5-9.7-11.4c-8.5-5.8-13.5-13.5-13.5-20.9c0-4.9-11.2-25.2-26.4-48c-35.7-53.7-81.4-102.6-118.7-127.1
		c-7.9-5.2-22.7-12.9-24.8-12.9c-1.3,0-24.3,18.4-29.1,23.1c-3.5,3.5-20.9,15.8-23.6,16.7c-1.9,0.6,0,3.1,2.7,3.7
		c3.7,0.7,8.2,4.9,10.2,9.2c3.6,7.8,1.2,22-4.8,28.1c-3.7,3.9-8.3,5.1-13.8,3.9c-13.4-3-36.4-20.9-36.4-28.4c0-1.6-0.8-2.2-5.1-3.1
		c-14.8-3.2-27.5-12.3-31.1-22.2c-0.6-1.6-1.6-3-2.3-3c-0.1,0-0.2,0-0.3,0.1v28.2c7.7,0,10.8,0.2,7,0.3c-1.9,0.1-4.5,0.1-7,0.1v3.9
		c1.2,0,2.5,0.8,3.3,2.6c2.5,5.1,2.9,17.4,3.2,93.2c0.2,51.7,0.5,78.6,1.2,78.6c0.5,0,1.7-1.3,2.8-3c1-1.5,3-3.5,4.3-4.1
		c2.2-1.2,2.9-1.2,6.2,0c7.4,2.5,8,7.4,5.9,45c-0.5,9.9-0.7,18.3-0.4,18.6c0.4,0.3,2.5-0.2,4.9-1c2.3-0.8,5.4-1.5,6.8-1.5
		c7.4,0,32.8,18.9,34.5,25.7c0.4,1.4,0.2,3.2-0.4,4.1c-0.8,1.3-0.7,2.9,0.3,6.8c4,15.3,3.5,28.3-1.4,38.9c-1.5,3.2-2.7,6-2.7,6.4
		c0,0.9,11.6,4,12.3,3.2c0.4-0.3-0.1-2-0.9-3.7c-2.3-4.8-1.9-8.6,1.7-15.8c2.7-5.3,3.9-6.8,6.5-7.8c3.7-1.5,11.5-1.6,17.9-0.3
		c9.3,2.1,32.8,15.3,44,24.8c9.5,8.1,11.4,21.1,4.1,27.7c-1.1,1-1.9,2.2-1.9,2.8c0,0.5,3.5,1.7,8.1,2.5c12.3,2.4,23.3,5.8,29.3,9.2
		c19.3,10.8,24.9,21.3,15.8,29.6c-1.1,1-1.9,2.3-1.9,3c0,1.7,3,1.3,22.5-3.4c42.5-10.2,103.7-31.8,151.2-53.5
		c6.2-2.8,11.9-5.3,12.6-5.5c0.8-0.3,2.2-2.4,3-4.9c2.1-5.8,7.4-10.4,21-18.4c11.7-6.9,27.2-17.5,41.8-28.6
		c19.4-14.8,24.1-19.4,37.4-36c12.2-15.4,13.2-16.4,24.3-24.4c12.7-9.2,22.3-18.7,25-24.7C1790.6,1950.9,1791.1,1949,1790.9,1948.8z
		 M1288.6,1800.9c-0.3,0.7-0.5,0.5-0.5-0.5c-0.1-1,0.2-1.5,0.4-1.2C1288.8,1799.5,1288.9,1800.3,1288.6,1800.9z M1289.5,1806.3
		c-0.3,0.7-0.5,0.4-0.5-0.5c-0.1-1,0.2-1.5,0.5-1.2C1289.7,1804.9,1289.8,1805.7,1289.5,1806.3z M1290.4,1811.7
		c-0.3,0.7-0.5,0.4-0.5-0.5c-0.1-1,0.2-1.5,0.5-1.2C1290.6,1810.3,1290.7,1811.1,1290.4,1811.7z M1291.3,1817.1
		c-0.3,0.7-0.5,0.5-0.5-0.5c-0.1-1,0.2-1.5,0.5-1.2C1291.5,1815.7,1291.6,1816.5,1291.3,1817.1z M1292.2,1823.4
		c-0.3,0.7-0.5,0.5-0.5-0.5c-0.1-1,0.2-1.5,0.4-1.2C1292.4,1822,1292.5,1822.8,1292.2,1823.4z M1293.1,1828.8
		c-0.3,0.7-0.5,0.4-0.5-0.5c-0.1-1,0.2-1.5,0.4-1.2C1293.3,1827.4,1293.4,1828.2,1293.1,1828.8z M1294,1835.1
		c-0.3,0.7-0.5,0.5-0.5-0.5c-0.1-1,0.2-1.5,0.5-1.2C1294.2,1833.7,1294.3,1834.5,1294,1835.1z M1294.9,1840.5
		c-0.3,0.7-0.5,0.5-0.5-0.5c-0.1-1,0.2-1.5,0.5-1.2C1295.1,1839.1,1295.2,1839.9,1294.9,1840.5z M1295.8,1846.8
		c-0.3,0.7-0.5,0.4-0.5-0.5c-0.1-1,0.2-1.5,0.5-1.2C1296,1845.4,1296.1,1846.2,1295.8,1846.8z M1296.7,1853.1
		c-0.3,0.6-0.5,0.2-0.5-1.1c0-1.3,0.2-1.7,0.5-1.2C1296.9,1851.5,1296.9,1852.6,1296.7,1853.1z M1297.6,1858.5
		c-0.3,0.7-0.5,0.5-0.5-0.5c-0.1-1,0.2-1.5,0.4-1.2C1297.8,1857.1,1297.9,1857.9,1297.6,1858.5z M1298.5,1864.8
		c-0.3,0.7-0.5,0.4-0.5-0.5c-0.1-1,0.2-1.5,0.5-1.2C1298.7,1863.4,1298.8,1864.2,1298.5,1864.8z M1299.4,1870.2
		c-0.3,0.7-0.5,0.4-0.5-0.5c-0.1-1,0.2-1.5,0.5-1.2C1299.6,1868.8,1299.7,1869.6,1299.4,1870.2z M1300.3,1875.6
		c-0.3,0.7-0.5,0.5-0.5-0.5c-0.1-1,0.2-1.5,0.5-1.2C1300.5,1874.2,1300.6,1875,1300.3,1875.6z M1305.7,1908
		c-0.3,0.7-0.5,0.5-0.5-0.5c-0.1-1,0.2-1.5,0.4-1.2C1305.9,1906.6,1306,1907.4,1305.7,1908z M1307.5,1917.9
		c-0.3,0.7-0.5,0.5-0.5-0.5c-0.1-1,0.2-1.5,0.5-1.2C1307.7,1916.5,1307.8,1917.3,1307.5,1917.9z M1308.4,1922.4
		c-0.3,0.7-0.5,0.5-0.5-0.5c-0.1-1,0.2-1.5,0.5-1.2C1308.6,1921,1308.7,1921.8,1308.4,1922.4z M1346.2,1745.7
		c4.5-5.3,11.8-6.8,17.2-3.5c5.8,3.5,2.9,10.2-5.8,13.5c-6,2.3-10.4,1.8-12.4-1.2C1343.1,1751.7,1343.4,1749.1,1346.2,1745.7z
		 M1477.3,2119.1c-3.4,7-9.6,7.9-23,3.4c-21.1-7.2-31-16.9-26.5-26.2c3.2-6.8,11.3-8.4,22.3-4.5c13.5,4.8,25.9,13.9,27.8,20.3
		C1478.8,2115,1478.8,2116.1,1477.3,2119.1z M1537.5,2111.7c-4.7,1.2-6.8,1.3-13.1,0.4c-9.8-1.3-24.9-6-43.5-13.5
		c-8.4-3.3-25.4-9.6-37.7-13.9c-38.3-13.3-54.7-20.4-74.3-32.4c-25.6-15.5-40.5-29-40.5-36.4c0-2.8,2.3-6.3,4.1-6.3
		c0.7,0,1.3-0.6,1.3-1.4c0-1.3,0.1-1.3,1.4,0c0.7,0.8,2.2,1.4,3.1,1.4c3.1,0,13.5,4.9,27.6,12.9c33.8,19.3,55.2,27.5,103.7,40.2
		c53.9,14.1,78.8,24.9,81.5,35.6C1552.7,2103.9,1547.3,2109.2,1537.5,2111.7z"/>
	<path class="st51" d="M1498.6,1242.1c-8.5-17.4-21.9-30.6-38.2-37.4c-21.5-9-44.9-12.2-113.1-15c-16-0.7-59.4-1.2-99.9-1.3v62.1
		C1520.2,1250.4,1503,1250.9,1498.6,1242.1z"/>
	<path id="structure70_label69_12GH" bar:growlevel="0" bar:type="" class="st52" d="M1352.3,1741.8c-10.8,3.9-11.3,14.9-0.6,14.9
		c8.2-0.1,15.6-5.9,14.2-11.3C1364.9,1741.4,1358.2,1739.6,1352.3,1741.8z"/>
	<path class="st53" d="M1254.4,1642.6c-1.7-3.1-4.3-4.8-6.9-4.8v32.2c2.2,0,4.5-1.7,6.5-5.4
		C1256.5,1659.6,1256.8,1647.1,1254.4,1642.6z"/>
	<path id="structure74_label74_CuR" bar:growlevel="0" bar:type="" class="st54" d="M1531.6,1577.1c-16.2,2.6-27,6.8-33.3,12.9
		c-4.5,4.3-5.9,8.8-3.9,12.6c2.4,4.8,5,5.8,12.5,5.4c7.8-0.5,14.9-2.9,28.1-9.3c12.4-5.9,18.5-11.7,18.5-17.5c0-2-0.5-3.9-1-4.2
		C1550.4,1575.7,1539.4,1575.8,1531.6,1577.1z"/>
	<path id="structure75_label75_PSol" bar:growlevel="0" bar:type="" class="st55" d="M1378.9,1578c0,2.7,0.5,3.3,3.4,4.9
		c1.8,1,5.8,3.9,8.7,6.4c13.1,11.3,24.7,16.7,51.3,24.7c32.8,9.6,40,12.4,61.9,23.9c3.8,2.1,9.2,4.1,11.9,4.8c4.4,0.9,5,0.8,6.8-0.7
		c1.3-1.2,1.8-2.6,1.6-4.4c-0.2-2.3-1.1-3.2-4.9-5.3c-7.7-4.1-28.9-11.7-55.6-20c-57.5-17.7-60.4-18.9-75.6-31.2
		c-4.2-3.3-8-6.1-8.6-6.1C1379.3,1574.8,1378.9,1576.3,1378.9,1578z"/>
	<path id="structure76_label77_Pa5" bar:growlevel="0" bar:type="" class="st56" d="M1710.8,1519.8c-7.7,2.5-16.7,7.9-22.5,13.6
		c-6.1,5.9-6.7,8.5-2.6,12.7c3.6,3.5,9.1,3.5,18.7,0c11.2-4.1,25.4-7.2,39.1-8.6c14.6-1.4,17-2.4,17-7c0-4.1-3.6-7.3-10.8-9.6
		C1741,1518,1718.1,1517.4,1710.8,1519.8z"/>
	<path class="st57" d="M1403.8,1550.5c-1.2,0-16.7,2.6-34.5,5.9c-68.4,12.5-107.9,18.4-121.9,18.4v45c12.9-0.1,24.5-4.5,63-23.9
		c24-12.1,49.7-23.8,81.6-37.3C1405,1553.1,1408.7,1550.5,1403.8,1550.5z"/>
	<path id="structure79_label82_dsc-oc" bar:growlevel="0" bar:type="" class="st58" d="M1760,1526.4c0.4,1.2,0.6,3.5,0.6,5.3
		c-0.1,2.8,0.3,3.3,2.8,4.2c4.6,1.6,29.4,15.7,39.2,22.1c27.4,18.1,46.4,36.8,62.5,61.3c24.9,38.3,39.3,81.2,42.9,127.8
		c2.4,30.3-3.2,64.3-15,92.3c-16.3,38.3-54.9,80.9-80.8,89.1l-6.8,2.2v3.7c0,6-3.7,10.4-11,13c-1.7,0.5-3.2,2.4-5.2,6.3
		c-3.6,7.1-11.3,14.6-24.6,24.1c-11,7.8-11.6,8.4-27.5,28.1c-10.8,13.4-17.5,19.5-37.5,34.6c-15.5,11.6-28.1,20.2-42.5,28.8
		c-10.5,6.3-16.5,11.9-16.5,15.6c0,1.2,0.5,2.1,0.9,2.1c1.3,0,13.9-6.4,28.8-14.7c34.9-19.4,67.4-40.9,87.3-57.9
		c20.7-17.5,102.7-99.7,115.7-115.7c11.3-14.1,23.8-33.9,29.8-47.3c7.1-15.7,13.7-41.2,18.1-70.4c1.2-7.7,1.5-15.9,1.5-31.5
		c0.1-21,0-21.2-2.8-31.5c-15.4-55.5-48-114.4-81.8-147.8c-20.9-20.6-43.8-35.1-67.8-42.9C1760.1,1523.8,1759.1,1523.7,1760,1526.4z
		"/>
	<path class="st59" d="M1545.7,1356.1c-1.7-3-5.6-10.6-8.6-16.9c-6.7-14-24.1-54.6-24.1-56.1c0-0.7-1-0.9-2.9-0.5
		c-33.8,5.9-56.8,9-78.1,10.4c-19.2,1.3-115.6,2.5-184.5,2.6v12.1c12.1,0,23,0.4,38,1.2c85,4.3,166.6,10,181.3,12.6
		c23.1,4,36.3,11,36.3,19.4c0,7.2-17.1,15.5-45.9,22.3c-26.6,6.3-64.7,11.8-123.3,17.6c-33,3.3-59.5,5.1-86.4,5.1v9.1
		c61.2,0,122.4-3.5,163.8-10.5c7.2-1.3,26.2-5.5,42.3-9.5c53.2-13,72.3-15.3,92.5-11.2C1549.9,1364.7,1549.9,1363.2,1545.7,1356.1z"
		/>
	<path id="structure84_label87_cbw" bar:growlevel="0" bar:type="" class="st59" d="M1659.7,1096.8c0,7,32.9,56.3,57.4,85.9
		c19.3,23.3,58.7,66.5,98.9,108.2c32.3,33.6,35.6,36.4,41.6,36.4c4,0,5.5-1.3,5.5-4.6c0-1.9-4.2-6.7-21.9-24.4
		c-35.2-35.5-82.3-85.3-104.1-110.1c-13-14.8-17.6-20.5-38.3-48.1c-19.6-26.2-31.9-41.5-34.8-43.7
		C1661.3,1094.7,1659.7,1094.8,1659.7,1096.8z"/>
	<path id="structure85_label88_SolI" bar:growlevel="0" bar:type="" class="st60" d="M1432.9,1614.3c0,5.5,2.7,12,6.8,15.9
		c6.1,6.1,19,8.8,25.7,5.3c4.6-2.3,7.3-12.2,3.8-13.2c-0.9-0.3-9.1-2.7-18.3-5.5c-9.2-2.8-16.9-5-17.3-5
		C1433.1,1611.7,1432.9,1612.9,1432.9,1614.3z"/>
	<path class="st59" d="M1545.7,1356.1c-1.7-3-5.6-10.6-8.6-16.9c-6.7-14-24.1-54.6-24.1-56.1c0-0.7-1-0.9-2.9-0.5
		c-33.8,5.9-56.8,9-78.1,10.4c-19.2,1.3-115.6,2.5-184.5,2.6v12.1c12.1,0,23,0.4,38,1.2c85,4.3,166.6,10,181.3,12.6
		c23.1,4,36.3,11,36.3,19.4c0,7.2-17.1,15.5-45.9,22.3c-26.6,6.3-64.7,11.8-123.3,17.6c-33,3.3-59.5,5.1-86.4,5.1v9.1
		c61.2,0,122.4-3.5,163.8-10.5c7.2-1.3,26.2-5.5,42.3-9.5c53.2-13,72.3-15.3,92.5-11.2C1549.9,1364.7,1549.9,1363.2,1545.7,1356.1z"
		/>
	<path class="st61" d="M1574.5,1436.2c0-2.7-0.4-7.7-0.7-11.1c-0.7-6.1-0.7-6.2-3.1-5.7c-7.8,1.9-10.8,1.7-16.9-1.2
		c-4.9-2.3-8.3-5.1-18.7-15.4c-7.5-7.3-14.1-13.1-16-13.9c-4.8-1.9-17.8-1.7-28.5,0.4c-4.9,1-18.5,4.4-30.3,7.6
		c-32.3,8.9-45.2,12-59.2,13.9c-28.2,4-36.2,4.1-153.5,4.1v47.7c40.5,0,81.1-0.4,94-1.2c25.3-1.5,50-4.1,70.9-7.4
		c28.8-4.5,50-6.3,97.8-8.6c29.1-1.4,49.9-2.7,59.4-3.9l4.9-0.6L1574.5,1436.2z"/>
	<path class="st62" d="M1310.5,1322.8c-15.4-1.1-42.2-2-63-2.3v41.9c7.4,0,30.8,1.2,52.5,2.7c22.2,1.4,44,2.7,48.3,2.7
		c21.8,0,63.3-8.6,80.8-16.6c7.1-3.3,11.9-7,11.9-9.2C1441,1335.8,1390.4,1328.3,1310.5,1322.8z"/>
	<path class="st27" d="M1790.9,1948.8c-0.3-0.3-2.1-0.3-4,0.1c-3.2,0.5-3.8,1-5.1,4.4c-3.5,8.4-15.8,16.5-30.9,20.3
		c-4,1-12.1,2.2-18,2.5c-9.4,0.7-12.5,1.4-24.7,5.6c-7.7,2.6-17.9,5.4-22.8,6.3c-10.3,1.9-10.5,2.1-19.5,13.9
		c-10.7,14.1-20.2,31-34.4,61.2c-4.3,9.2-17,18.8-30,22.6c-3,0.8-8.5,1.6-12.2,1.6c-6.1,0.1-7.5-0.3-13.5-3.2
		c-4.3-2.2-11.4-7.4-20.2-14.7c-16.8-14.1-23.5-17.6-44.1-22.9c-7.8-2.1-17-4.9-20.3-6.5c-6.8-3.2-12.6-8.6-14.8-13.7
		c-2-4.9-3.1-17.6-2.2-25.4c2.8-22.5,14.6-34.4,35-35.4c14-0.6,23.7,2.4,34.7,11.1c12.9,10.1,29,20.1,36.1,22.4
		c13.1,4.3,31.8,6.6,31.8,3.8c0-0.7-1.7-4.1-3.7-7.7c-2.1-3.5-6.7-12.8-10.3-20.5c-8-17.4-18.1-37.6-24-48.2
		c-3.7-6.6-5.3-8.5-9.7-11.4c-8.5-5.8-13.5-13.5-13.5-20.9c0-4.9-11.2-25.2-26.4-48c-35.7-53.7-81.4-102.6-118.7-127.1
		c-7.9-5.2-22.7-12.9-24.8-12.9c-1.3,0-24.3,18.4-29.1,23.1c-3.5,3.5-20.9,15.8-23.6,16.7c-1.9,0.6,0,3.1,2.7,3.7
		c3.7,0.7,8.2,4.9,10.2,9.2c3.6,7.8,1.2,22-4.8,28.1c-3.7,3.9-8.3,5.1-13.8,3.9c-13.4-3-36.4-20.9-36.4-28.4c0-1.6-0.8-2.2-5.1-3.1
		c-14.8-3.2-27.5-12.3-31.1-22.2c-0.6-1.6-1.6-3-2.3-3c-0.1,0-0.2,0-0.3,0.1v28.2c7.7,0,10.8,0.2,7,0.3c-1.9,0.1-4.5,0.1-7,0.1v3.9
		c1.2,0,2.5,0.8,3.3,2.6c2.5,5.1,2.9,17.4,3.2,93.2c0.2,51.7,0.5,78.6,1.2,78.6c0.5,0,1.7-1.3,2.8-3c1-1.5,3-3.5,4.3-4.1
		c2.2-1.2,2.9-1.2,6.2,0c7.4,2.5,8,7.4,5.9,45c-0.5,9.9-0.7,18.3-0.4,18.6c0.4,0.3,2.5-0.2,4.9-1c2.3-0.8,5.4-1.5,6.8-1.5
		c7.4,0,32.8,18.9,34.5,25.7c0.4,1.4,0.2,3.2-0.4,4.1c-0.8,1.3-0.7,2.9,0.3,6.8c4,15.3,3.5,28.3-1.4,38.9c-1.5,3.2-2.7,6-2.7,6.4
		c0,0.9,11.6,4,12.3,3.2c0.4-0.3-0.1-2-0.9-3.7c-2.3-4.8-1.9-8.6,1.7-15.8c2.7-5.3,3.9-6.8,6.5-7.8c3.7-1.5,11.5-1.6,17.9-0.3
		c9.3,2.1,32.8,15.3,44,24.8c9.5,8.1,11.4,21.1,4.1,27.7c-1.1,1-1.9,2.2-1.9,2.8c0,0.5,3.5,1.7,8.1,2.5c12.3,2.4,23.3,5.8,29.3,9.2
		c19.3,10.8,24.9,21.3,15.8,29.6c-1.1,1-1.9,2.3-1.9,3c0,1.7,3,1.3,22.5-3.4c42.5-10.2,103.7-31.8,151.2-53.5
		c6.2-2.8,11.9-5.3,12.6-5.5c0.8-0.3,2.2-2.4,3-4.9c2.1-5.8,7.4-10.4,21-18.4c11.7-6.9,27.2-17.5,41.8-28.6
		c19.4-14.8,24.1-19.4,37.4-36c12.2-15.4,13.2-16.4,24.3-24.4c12.7-9.2,22.3-18.7,25-24.7C1790.6,1950.9,1791.1,1949,1790.9,1948.8z
		 M1288.6,1800.9c-0.3,0.7-0.5,0.5-0.5-0.5c-0.1-1,0.2-1.5,0.4-1.2C1288.8,1799.5,1288.9,1800.3,1288.6,1800.9z M1289.5,1806.3
		c-0.3,0.7-0.5,0.4-0.5-0.5c-0.1-1,0.2-1.5,0.5-1.2C1289.7,1804.9,1289.8,1805.7,1289.5,1806.3z M1290.4,1811.7
		c-0.3,0.7-0.5,0.4-0.5-0.5c-0.1-1,0.2-1.5,0.5-1.2C1290.6,1810.3,1290.7,1811.1,1290.4,1811.7z M1291.3,1817.1
		c-0.3,0.7-0.5,0.5-0.5-0.5c-0.1-1,0.2-1.5,0.5-1.2C1291.5,1815.7,1291.6,1816.5,1291.3,1817.1z M1292.2,1823.4
		c-0.3,0.7-0.5,0.5-0.5-0.5c-0.1-1,0.2-1.5,0.4-1.2C1292.4,1822,1292.5,1822.8,1292.2,1823.4z M1293.1,1828.8
		c-0.3,0.7-0.5,0.4-0.5-0.5c-0.1-1,0.2-1.5,0.4-1.2C1293.3,1827.4,1293.4,1828.2,1293.1,1828.8z M1294,1835.1
		c-0.3,0.7-0.5,0.5-0.5-0.5c-0.1-1,0.2-1.5,0.5-1.2C1294.2,1833.7,1294.3,1834.5,1294,1835.1z M1294.9,1840.5
		c-0.3,0.7-0.5,0.5-0.5-0.5c-0.1-1,0.2-1.5,0.5-1.2C1295.1,1839.1,1295.2,1839.9,1294.9,1840.5z M1295.8,1846.8
		c-0.3,0.7-0.5,0.4-0.5-0.5c-0.1-1,0.2-1.5,0.5-1.2C1296,1845.4,1296.1,1846.2,1295.8,1846.8z M1296.7,1853.1
		c-0.3,0.6-0.5,0.2-0.5-1.1c0-1.3,0.2-1.7,0.5-1.2C1296.9,1851.5,1296.9,1852.6,1296.7,1853.1z M1297.6,1858.5
		c-0.3,0.7-0.5,0.5-0.5-0.5c-0.1-1,0.2-1.5,0.4-1.2C1297.8,1857.1,1297.9,1857.9,1297.6,1858.5z M1298.5,1864.8
		c-0.3,0.7-0.5,0.4-0.5-0.5c-0.1-1,0.2-1.5,0.5-1.2C1298.7,1863.4,1298.8,1864.2,1298.5,1864.8z M1299.4,1870.2
		c-0.3,0.7-0.5,0.4-0.5-0.5c-0.1-1,0.2-1.5,0.5-1.2C1299.6,1868.8,1299.7,1869.6,1299.4,1870.2z M1300.3,1875.6
		c-0.3,0.7-0.5,0.5-0.5-0.5c-0.1-1,0.2-1.5,0.5-1.2C1300.5,1874.2,1300.6,1875,1300.3,1875.6z M1305.7,1908
		c-0.3,0.7-0.5,0.5-0.5-0.5c-0.1-1,0.2-1.5,0.4-1.2C1305.9,1906.6,1306,1907.4,1305.7,1908z M1307.5,1917.9
		c-0.3,0.7-0.5,0.5-0.5-0.5c-0.1-1,0.2-1.5,0.5-1.2C1307.7,1916.5,1307.8,1917.3,1307.5,1917.9z M1308.4,1922.4
		c-0.3,0.7-0.5,0.5-0.5-0.5c-0.1-1,0.2-1.5,0.5-1.2C1308.6,1921,1308.7,1921.8,1308.4,1922.4z M1346.2,1745.7
		c4.5-5.3,11.8-6.8,17.2-3.5c5.8,3.5,2.9,10.2-5.8,13.5c-6,2.3-10.4,1.8-12.4-1.2C1343.1,1751.7,1343.4,1749.1,1346.2,1745.7z
		 M1477.3,2119.1c-3.4,7-9.6,7.9-23,3.4c-21.1-7.2-31-16.9-26.5-26.2c3.2-6.8,11.3-8.4,22.3-4.5c13.5,4.8,25.9,13.9,27.8,20.3
		C1478.8,2115,1478.8,2116.1,1477.3,2119.1z M1537.5,2111.7c-4.7,1.2-6.8,1.3-13.1,0.4c-9.8-1.3-24.9-6-43.5-13.5
		c-8.4-3.3-25.4-9.6-37.7-13.9c-38.3-13.3-54.7-20.4-74.3-32.4c-25.6-15.5-40.5-29-40.5-36.4c0-2.8,2.3-6.3,4.1-6.3
		c0.7,0,1.3-0.6,1.3-1.4c0-1.3,0.1-1.3,1.4,0c0.7,0.8,2.2,1.4,3.1,1.4c3.1,0,13.5,4.9,27.6,12.9c33.8,19.3,55.2,27.5,103.7,40.2
		c53.9,14.1,78.8,24.9,81.5,35.6C1552.7,2103.9,1547.3,2109.2,1537.5,2111.7z"/>
	<path class="st29" d="M1790.9,1948.8c-0.3-0.3-2.1-0.3-4,0.1c-3.2,0.5-3.8,1-5.1,4.4c-3.5,8.4-15.8,16.5-30.9,20.3
		c-4,1-12.1,2.2-18,2.5c-9.4,0.7-12.5,1.4-24.7,5.6c-7.7,2.6-17.9,5.4-22.8,6.3c-10.3,1.9-10.5,2.1-19.5,13.9
		c-10.7,14.1-20.2,31-34.4,61.2c-4.3,9.2-17,18.8-30,22.6c-3,0.8-8.5,1.6-12.2,1.6c-6.1,0.1-7.5-0.3-13.5-3.2
		c-4.3-2.2-11.4-7.4-20.2-14.7c-16.8-14.1-23.5-17.6-44.1-22.9c-7.8-2.1-17-4.9-20.3-6.5c-6.8-3.2-12.6-8.6-14.8-13.7
		c-2-4.9-3.1-17.6-2.2-25.4c2.8-22.5,14.6-34.4,35-35.4c14-0.6,23.7,2.4,34.7,11.1c12.9,10.1,29,20.1,36.1,22.4
		c13.1,4.3,31.8,6.6,31.8,3.8c0-0.7-1.7-4.1-3.7-7.7c-2.1-3.5-6.7-12.8-10.3-20.5c-8-17.4-18.1-37.6-24-48.2
		c-3.7-6.6-5.3-8.5-9.7-11.4c-8.5-5.8-13.5-13.5-13.5-20.9c0-4.9-11.2-25.2-26.4-48c-35.7-53.7-81.4-102.6-118.7-127.1
		c-7.9-5.2-22.7-12.9-24.8-12.9c-1.3,0-24.3,18.4-29.1,23.1c-3.5,3.5-20.9,15.8-23.6,16.7c-1.9,0.6,0,3.1,2.7,3.7
		c3.7,0.7,8.2,4.9,10.2,9.2c3.6,7.8,1.2,22-4.8,28.1c-3.7,3.9-8.3,5.1-13.8,3.9c-13.4-3-36.4-20.9-36.4-28.4c0-1.6-0.8-2.2-5.1-3.1
		c-14.8-3.2-27.5-12.3-31.1-22.2c-0.6-1.6-1.6-3-2.3-3c-0.1,0-0.2,0-0.3,0.1v28.2c7.7,0,10.8,0.2,7,0.3c-1.9,0.1-4.5,0.1-7,0.1v3.9
		c1.2,0,2.5,0.8,3.3,2.6c2.5,5.1,2.9,17.4,3.2,93.2c0.2,51.7,0.5,78.6,1.2,78.6c0.5,0,1.7-1.3,2.8-3c1-1.5,3-3.5,4.3-4.1
		c2.2-1.2,2.9-1.2,6.2,0c7.4,2.5,8,7.4,5.9,45c-0.5,9.9-0.7,18.3-0.4,18.6c0.4,0.3,2.5-0.2,4.9-1c2.3-0.8,5.4-1.5,6.8-1.5
		c7.4,0,32.8,18.9,34.5,25.7c0.4,1.4,0.2,3.2-0.4,4.1c-0.8,1.3-0.7,2.9,0.3,6.8c4,15.3,3.5,28.3-1.4,38.9c-1.5,3.2-2.7,6-2.7,6.4
		c0,0.9,11.6,4,12.3,3.2c0.4-0.3-0.1-2-0.9-3.7c-2.3-4.8-1.9-8.6,1.7-15.8c2.7-5.3,3.9-6.8,6.5-7.8c3.7-1.5,11.5-1.6,17.9-0.3
		c9.3,2.1,32.8,15.3,44,24.8c9.5,8.1,11.4,21.1,4.1,27.7c-1.1,1-1.9,2.2-1.9,2.8c0,0.5,3.5,1.7,8.1,2.5c12.3,2.4,23.3,5.8,29.3,9.2
		c19.3,10.8,24.9,21.3,15.8,29.6c-1.1,1-1.9,2.3-1.9,3c0,1.7,3,1.3,22.5-3.4c42.5-10.2,103.7-31.8,151.2-53.5
		c6.2-2.8,11.9-5.3,12.6-5.5c0.8-0.3,2.2-2.4,3-4.9c2.1-5.8,7.4-10.4,21-18.4c11.7-6.9,27.2-17.5,41.8-28.6
		c19.4-14.8,24.1-19.4,37.4-36c12.2-15.4,13.2-16.4,24.3-24.4c12.7-9.2,22.3-18.7,25-24.7C1790.6,1950.9,1791.1,1949,1790.9,1948.8z
		 M1288.6,1800.9c-0.3,0.7-0.5,0.5-0.5-0.5c-0.1-1,0.2-1.5,0.4-1.2C1288.8,1799.5,1288.9,1800.3,1288.6,1800.9z M1289.5,1806.3
		c-0.3,0.7-0.5,0.4-0.5-0.5c-0.1-1,0.2-1.5,0.5-1.2C1289.7,1804.9,1289.8,1805.7,1289.5,1806.3z M1290.4,1811.7
		c-0.3,0.7-0.5,0.4-0.5-0.5c-0.1-1,0.2-1.5,0.5-1.2C1290.6,1810.3,1290.7,1811.1,1290.4,1811.7z M1291.3,1817.1
		c-0.3,0.7-0.5,0.5-0.5-0.5c-0.1-1,0.2-1.5,0.5-1.2C1291.5,1815.7,1291.6,1816.5,1291.3,1817.1z M1292.2,1823.4
		c-0.3,0.7-0.5,0.5-0.5-0.5c-0.1-1,0.2-1.5,0.4-1.2C1292.4,1822,1292.5,1822.8,1292.2,1823.4z M1293.1,1828.8
		c-0.3,0.7-0.5,0.4-0.5-0.5c-0.1-1,0.2-1.5,0.4-1.2C1293.3,1827.4,1293.4,1828.2,1293.1,1828.8z M1294,1835.1
		c-0.3,0.7-0.5,0.5-0.5-0.5c-0.1-1,0.2-1.5,0.5-1.2C1294.2,1833.7,1294.3,1834.5,1294,1835.1z M1294.9,1840.5
		c-0.3,0.7-0.5,0.5-0.5-0.5c-0.1-1,0.2-1.5,0.5-1.2C1295.1,1839.1,1295.2,1839.9,1294.9,1840.5z M1295.8,1846.8
		c-0.3,0.7-0.5,0.4-0.5-0.5c-0.1-1,0.2-1.5,0.5-1.2C1296,1845.4,1296.1,1846.2,1295.8,1846.8z M1296.7,1853.1
		c-0.3,0.6-0.5,0.2-0.5-1.1c0-1.3,0.2-1.7,0.5-1.2C1296.9,1851.5,1296.9,1852.6,1296.7,1853.1z M1297.6,1858.5
		c-0.3,0.7-0.5,0.5-0.5-0.5c-0.1-1,0.2-1.5,0.4-1.2C1297.8,1857.1,1297.9,1857.9,1297.6,1858.5z M1298.5,1864.8
		c-0.3,0.7-0.5,0.4-0.5-0.5c-0.1-1,0.2-1.5,0.5-1.2C1298.7,1863.4,1298.8,1864.2,1298.5,1864.8z M1299.4,1870.2
		c-0.3,0.7-0.5,0.4-0.5-0.5c-0.1-1,0.2-1.5,0.5-1.2C1299.6,1868.8,1299.7,1869.6,1299.4,1870.2z M1300.3,1875.6
		c-0.3,0.7-0.5,0.5-0.5-0.5c-0.1-1,0.2-1.5,0.5-1.2C1300.5,1874.2,1300.6,1875,1300.3,1875.6z M1305.7,1908
		c-0.3,0.7-0.5,0.5-0.5-0.5c-0.1-1,0.2-1.5,0.4-1.2C1305.9,1906.6,1306,1907.4,1305.7,1908z M1307.5,1917.9
		c-0.3,0.7-0.5,0.5-0.5-0.5c-0.1-1,0.2-1.5,0.5-1.2C1307.7,1916.5,1307.8,1917.3,1307.5,1917.9z M1308.4,1922.4
		c-0.3,0.7-0.5,0.5-0.5-0.5c-0.1-1,0.2-1.5,0.5-1.2C1308.6,1921,1308.7,1921.8,1308.4,1922.4z M1346.2,1745.7
		c4.5-5.3,11.8-6.8,17.2-3.5c5.8,3.5,2.9,10.2-5.8,13.5c-6,2.3-10.4,1.8-12.4-1.2C1343.1,1751.7,1343.4,1749.1,1346.2,1745.7z
		 M1477.3,2119.1c-3.4,7-9.6,7.9-23,3.4c-21.1-7.2-31-16.9-26.5-26.2c3.2-6.8,11.3-8.4,22.3-4.5c13.5,4.8,25.9,13.9,27.8,20.3
		C1478.8,2115,1478.8,2116.1,1477.3,2119.1z M1537.5,2111.7c-4.7,1.2-6.8,1.3-13.1,0.4c-9.8-1.3-24.9-6-43.5-13.5
		c-8.4-3.3-25.4-9.6-37.7-13.9c-38.3-13.3-54.7-20.4-74.3-32.4c-25.6-15.5-40.5-29-40.5-36.4c0-2.8,2.3-6.3,4.1-6.3
		c0.7,0,1.3-0.6,1.3-1.4c0-1.3,0.1-1.3,1.4,0c0.7,0.8,2.2,1.4,3.1,1.4c3.1,0,13.5,4.9,27.6,12.9c33.8,19.3,55.2,27.5,103.7,40.2
		c53.9,14.1,78.8,24.9,81.5,35.6C1552.7,2103.9,1547.3,2109.2,1537.5,2111.7z"/>
	<path id="structure94_label103_py" bar:growlevel="0" bar:type="" class="st63" d="M1330.7,2104.6c-12.7,0.8-40.2,3.2-53.8,4.9
		c-16.4,1.8-20.3,3.1-24.8,8.6c-1.5,1.8-3.2,5-3.7,7.3c-1,3.8-0.9,4.2,1.6,7.6c12,16.3,47.5,27,101.4,30.5
		c27.9,1.8,44.9,0.6,77.1-5.5c18.9-3.6,19.6-3.9,23.9-8.6c3.4-3.7,3.7-4.4,3.7-9.1c0-4.9-0.1-5.1-5.1-10.2
		c-9.5-9.5-21.2-14.8-42.5-19C1382.5,2105.9,1351.1,2103.3,1330.7,2104.6z"/>
	<path id="structure95_label104_ml" bar:growlevel="0" bar:type="" class="st64" d="M1257,2082.7c-0.8,6.5-4.3,13.9-7.3,15.2
		c-2,0.9-2.3,1.4-1.7,4.2c1.3,7.7,6.1,10,17,8.3c24-3.8,67.3-6.8,90.2-6.2c22,0.5,23.9-0.1,11.3-4.1c-12.4-4-22.7-8.5-29.1-12.7
		c-7.9-5.2-10.4-6.4-17-8.1c-5.6-1.4-5.7-1.4-11.3,0.8c-9.8,4-17.1,5.3-25.6,4.7c-10.3-0.8-18.5-2.7-21.7-4.9
		c-1.3-1.1-2.9-1.9-3.3-1.9C1257.9,2077.9,1257.3,2080.1,1257,2082.7z"/>
	<path class="st61" d="M1574.5,1436.2c0-2.7-0.4-7.7-0.7-11.1c-0.7-6.1-0.7-6.2-3.1-5.7c-7.8,1.9-10.8,1.7-16.9-1.2
		c-4.9-2.3-8.3-5.1-18.7-15.4c-7.5-7.3-14.1-13.1-16-13.9c-4.8-1.9-17.8-1.7-28.5,0.4c-4.9,1-18.5,4.4-30.3,7.6
		c-32.3,8.9-45.2,12-59.2,13.9c-28.2,4-36.2,4.1-153.5,4.1v47.7c40.5,0,81.1-0.4,94-1.2c25.3-1.5,50-4.1,70.9-7.4
		c28.8-4.5,50-6.3,97.8-8.6c29.1-1.4,49.9-2.7,59.4-3.9l4.9-0.6L1574.5,1436.2z"/>
	<text id="label30" bar:growlevel="0" transform="matrix(1 0 0 1 1274.5234 2073.3906)" class="st65 st66 st67">IOC</text>
	<text id="label31" bar:growlevel="0" transform="matrix(1 0 0 1 1344.9648 2085.3555)" class="st65 st66 st67">IOB</text>
	<text id="label32" bar:growlevel="0" transform="matrix(1 0 0 1 1533.8682 2030.6309)" class="st65 st66 st67">LRt</text>
	<text id="label33" bar:growlevel="0" transform="matrix(1 0 0 1 1675.498 1952.1387)" class="st65 st66 st67">LRtS5</text>
	<text id="label34" bar:growlevel="0" transform="matrix(1 0 0 1 1434.9736 1669.082)" class="st65 st66 st67">SolV</text>
	<text id="label9" bar:growlevel="0" transform="matrix(1 0 0 1 1256.0635 1518.1914)" class="st65 st66 st67">10Cb</text>
	<text id="Unlabeled-1679-1150" bar:growlevel="0" transform="matrix(1 0 0 1 1562.957 1211.2539)" class="st65 st66 st67">cbw</text>
	<text id="label0" bar:growlevel="0" transform="matrix(1 0 0 1 1312.0498 902.957)" class="st65 st66 st67">7Cb</text>
	<text id="label1" bar:growlevel="0" transform="matrix(1 0 0 1 1663.3193 1399.5918)" class="st65 st66 st67">Cop</text>
	<text id="label2" bar:growlevel="0" transform="matrix(1 0 0 1 1272.3291 1069.6855)" class="st65 st66 st67">8Cb</text>
	<text id="label3" bar:growlevel="0" transform="matrix(1 0 0 1 1890.8682 1145.6875)" class="st65 st66 st67">Crus2</text>
	<text id="label4" bar:growlevel="0" transform="matrix(1 0 0 1 1890.1504 1377.627)" class="st65 st66 st67">PM</text>
	<text id="label5" bar:growlevel="0" transform="matrix(1 0 0 1 1333.9082 1231.3809)" class="st65 st66 st67">9a-bCb</text>
	<text id="label7" bar:growlevel="0" transform="matrix(1 0 0 1 1279.1406 1349.6484)" class="st65 st66 st67">9cCb</text>
	<text id="label87" bar:growlevel="0" transform="matrix(1 0 0 1 1842.5986 1307.3242)" class="st65 st66 st67">cbw</text>
	<text id="label82" bar:growlevel="0" transform="matrix(1 0 0 1 1909.5596 1807.0313)" class="st65 st66 st67">dsc-oc</text>
	<text id="label88" bar:growlevel="0" transform="matrix(1 0 0 1 1449.1563 1627.7402)" class="st65 st66 st67">SolI</text>
	<text id="text3096" bar:growlevel="0" transform="matrix(1 0 0 1 1376.4912 1639.6875)" class="st65 st66 st67">SolCe</text>
	<text id="text3112" bar:growlevel="0" transform="matrix(1 0 0 1 1352.6992 1589.0625)" class="st65 st66 st67">SolG</text>
	<text id="text3094" bar:growlevel="0" transform="matrix(1 0 0 1 1382.2012 1609.1367)" class="st65 st66 st67">SolDL</text>
	<text id="label18" bar:growlevel="0" transform="matrix(1 0 0 1 1592.8486 1746.5137)" class="st65 st66 st67">PCRt</text>
	<text id="label19" bar:growlevel="0" transform="matrix(1 0 0 1 1760.459 1730.459)" class="st65 st66 st67">Sp5I</text>
	<text id="label12" bar:growlevel="0" transform="matrix(1 0 0 1 1412.7871 1576.832)" class="st65 st66 st67">Gr</text>
	<text id="label13" bar:growlevel="0" transform="matrix(1 0 0 1 1490.6084 1557.3281)" class="st65 st66 st67">Cu</text>
	<text id="label10" bar:growlevel="0" transform="matrix(1 0 0 1 1277.6699 1716.1465)" class="st65 st66 st67">12N</text>
	<text id="label11" bar:growlevel="0" transform="matrix(1 0 0 1 1317.3906 1664.9277)" class="st65 st66 st67">10N</text>
	<text id="label16" bar:growlevel="0" transform="matrix(1 0 0 1 1538.248 1621.4512)" class="st65 st66 st67">Mx</text>
	<text id="label14" bar:growlevel="0" transform="matrix(1 0 0 1 1569.4785 1509.9785)" class="st65 st66 st67">ECu</text>
	<text id="label15" bar:growlevel="0" transform="matrix(1 0 0 1 1597.3809 1627.002)" class="st65 st66 st67">5Sol</text>
	<text id="label93" bar:growlevel="0" transform="matrix(1 0 0 1 1402.6797 1313.625)" class="st65 st66 st67">cbw</text>
	<text id="label95" bar:growlevel="0" transform="matrix(1 0 0 1 1395.6895 1444.207)" class="st65 st66 st67">plf</text>
	<text id="Unlabeled-1780-1404" bar:growlevel="0" transform="matrix(1 0 0 1 1472.459 1340.8398)" class="st65 st66 st67">9cCb </text>
	<text id="text3102" bar:growlevel="0" transform="matrix(1 0 0 1 1319.9805 1628.6074)" class="st65 st66 st67">SolM</text>
	<text id="Unlabeled-1794-1757" bar:growlevel="0" transform="matrix(1 0 0 1 1253.333 1631.2148)" class="st65 st66 st67">grey</text>
	<text id="label119" bar:growlevel="0" transform="matrix(1 0 0 1 1267.3047 2023.0137)" class="st65 st66 st67">IOBe</text>
	<text id="label69" bar:growlevel="0" transform="matrix(1 0 0 1 1353.8857 1749.7793)" class="st65 st66 st67">12GH</text>
	<text id="label66" bar:growlevel="0" transform="matrix(1 0 0 1 1250.3711 1855.873)" class="st65 st66 st67">ROb</text>
	<text id="label65" bar:growlevel="0" transform="matrix(1 0 0 1 1646.5498 2004.918)" class="st65 st66 st67">IRt</text>
	<text id="label64" bar:growlevel="0" transform="matrix(1 0 0 1 1771.9199 1987.4824)" class="st65 st66 st67">10n</text>
	<text id="label62" bar:growlevel="0" transform="matrix(1 0 0 1 1448.4297 2111.584)" class="st65 st66 st67">IOPr</text>
	<text id="label60" bar:growlevel="0" transform="matrix(1 0 0 1 1250.3711 2050.6582)" class="st65 st66 st67">RPa</text>
	<text id="label104" bar:growlevel="0" transform="matrix(1 0 0 1 1279.1436 2097.4785)" class="st65 st66 st67">ml</text>
	<text id="label103" bar:growlevel="0" transform="matrix(1 0 0 1 1372.6797 2141.2617)" class="st65 st66 st67">py</text>
	<text id="Unlabeled-1860-1771" bar:growlevel="0" transform="matrix(1 0 0 1 1372.6797 1701.4395)" class="st65 st66 st67">grey</text>
	<text id="label78" bar:growlevel="0" transform="matrix(1 0 0 1 1274.5234 1592.0742)" class="st65 st66 st67">AP</text>
	<text id="label74" bar:growlevel="0" transform="matrix(1 0 0 1 1519.1084 1591.8047)" class="st65 st66 st67">CuR</text>
	<text id="label75" bar:growlevel="0" transform="matrix(1 0 0 1 1499.6084 1629.6953)" class="st65 st66 st67">PSol</text>
	<text id="label77" bar:growlevel="0" transform="matrix(1 0 0 1 1714.4688 1533.293)" class="st65 st66 st67">Pa5</text>
	<text id="label102" bar:growlevel="0" transform="matrix(1 0 0 1 1290.7773 1914.6914)" class="st65 st66 st67">ts</text>
	<text id="label72" bar:growlevel="0" transform="matrix(1 0 0 1 1250.3711 1647.1699)" class="st65 st66 st67">CC</text>
	<text id="Unlabeled-1758-846" bar:growlevel="0" transform="matrix(1 0 0 1 1272.3291 1019.7402)" class="st65 st66 st67">grey</text>
	<text id="label44" bar:growlevel="0" transform="matrix(1 0 0 1 1665.3291 1499.3594)" class="st65 st66 st67">cu</text>
	<text id="label47" bar:growlevel="0" transform="matrix(1 0 0 1 1789.7998 1583.793)" class="st65 st66 st67">sp5</text>
	<text id="label114" bar:growlevel="0" transform="matrix(1 0 0 1 1282.0791 2165.0566)" class="st65 st66 st67">vert</text>
	<text id="label116" bar:growlevel="0" transform="matrix(1 0 0 1 1421.1162 1627.6094)" class="st65 st66 st67">sol</text>
	<text id="label110" bar:growlevel="0" transform="matrix(1 0 0 1 1603.498 1937.6465)" class="st65 st66 st67">RVRG</text>
	<text id="label111" bar:growlevel="0" transform="matrix(1 0 0 1 1760.1895 1995.1055)" class="st65 st66 st67">vsc</text>
	<text id="label56" bar:growlevel="0" transform="matrix(1 0 0 1 1263.0947 1956.4277)" class="st65 st66 st67">IOK</text>
	<text id="label54" bar:growlevel="0" transform="matrix(1 0 0 1 2024.3389 1320.8555)" class="st65 st66 st67">apmf</text>
	<text id="label50" bar:growlevel="0" transform="matrix(1 0 0 1 1768.4395 1935.6035)" class="st65 st66 st67">rs</text>
	<text id="label59" bar:growlevel="0" transform="matrix(1 0 0 1 1625.6699 1973.1719)" class="st65 st66 st67">C1-A1</text>
	<text id="label124" bar:growlevel="0" transform="matrix(1 0 0 1 1301.1191 1603.6621)" class="st65 st66 st67">SubP</text>
	<text id="label127" bar:growlevel="0" transform="matrix(1 0 0 1 1381.1084 984.4082)" class="st65 st66 st67">ppf</text>
	<text id="label126" bar:growlevel="0" transform="matrix(1 0 0 1 1381.1084 1191.0234)" class="st65 st66 st67">sf</text>
	<text id="label120" bar:growlevel="0" transform="matrix(1 0 0 1 1272.3291 1807.0313)" class="st65 st66 st67">mlf</text>
	<text id="label122" bar:growlevel="0" transform="matrix(1 0 0 1 1395.6895 1649.4355)" class="st65 st66 st67">SolIM</text>
	<text id="label129" bar:growlevel="0" transform="matrix(1 0 0 1 1487.7871 1667.2891)" class="st65 st66 st67">SolVL</text>
	<text id="label23" bar:growlevel="0" transform="matrix(1 0 0 1 1416.8682 1893.0879)" class="st65 st66 st67">Gi</text>
	<text id="label22" bar:growlevel="0" transform="matrix(1 0 0 1 1568.4238 1890.7559)" class="st65 st66 st67">AmbL</text>
	<text id="label21" bar:growlevel="0" transform="matrix(1 0 0 1 1516.1406 1799.4414)" class="st65 st66 st67">IRt</text>
	<text id="label27" bar:growlevel="0" transform="matrix(1 0 0 1 1472.0137 2076.2637)" class="st65 st66 st67">IOD</text>
	<text id="label24" bar:growlevel="0" transform="matrix(1 0 0 1 1306.8262 1775.916)" class="st65 st66 st67">Ro</text>
</g>
<text id="label108" bar:growlevel="0" transform="matrix(1 0 0 1 1251.7598 1686.4395)" class="st65 st68 st67">SolC</text>
</svg>
