<?xml version="1.0" encoding="utf-8"?>
<!-- Generator: Adobe Illustrator 24.1.1, SVG Export Plug-In . SVG Version: 6.00 Build 0)  -->
<svg version="1.1"
	 id="body" inkscape:version="0.47pre4 r22446" sodipodi:docname="78_pretrace_pretrace_v1.svg" xmlns:bar="http://www.3dbar.org" xmlns:cc="http://creativecommons.org/ns#" xmlns:dc="http://purl.org/dc/elements/1.1/" xmlns:inkscape="http://www.inkscape.org/namespaces/inkscape" xmlns:rdf="http://www.w3.org/1999/02/22-rdf-syntax-ns#" xmlns:sodipodi="http://sodipodi.sourceforge.net/DTD/sodipodi-0.dtd" xmlns:svg="http://www.w3.org/2000/svg"
	 xmlns="http://www.w3.org/2000/svg" xmlns:xlink="http://www.w3.org/1999/xlink" x="0px" y="0px" viewBox="0 0 3024 3024"
	 style="enable-background:new 0 0 3024 3024;" xml:space="preserve">
<style type="text/css">
	.st0{fill:#FF000C;}
	.st1{fill:#7447D4;}
	.st2{fill:#E5FFB2;}
	.st3{fill:#FF0045;}
	.st4{fill:#FFF6B2;}
	.st5{fill:#8F6BE1;}
	.st6{fill:#B9E959;}
	.st7{fill:#C0E976;}
	.st8{fill:#E4FFB2;}
	.st9{fill:#DF5F00;}
	.st10{fill:#777777;}
	.st11{fill:#FF6400;}
	.st12{fill:#FF6A00;}
	.st13{fill:#B4FF59;}
	.st14{fill:#8CFF00;}
	.st15{fill:#B2FF00;}
	.st16{fill:#5C23BF;}
	.st17{fill:#9DFF00;}
	.st18{fill:#FFD2B2;}
	.st19{fill:#FFAA59;}
	.st20{fill:#D86BC8;}
	.st21{fill:#8647F6;}
	.st22{fill:#6523C3;}
	.st23{fill:#54FF00;}
	.st24{fill:#610BE5;}
	.st25{fill:#95E93B;}
	.st26{fill:#E99659;}
	.st27{fill:#69FF00;}
	.st28{fill:#ABFF00;}
	.st29{fill:#9AE900;}
	.st30{fill:#6B17E5;}
	.st31{fill:#8053C3;}
	.st32{fill:#ACE93B;}
	.st33{fill:#F200DD;}
	.st34{fill:#D45400;}
	.st35{fill:#FF23E9;}
	.st36{fill:#FEFF3B;}
	.st37{fill:#DF6D00;}
	.st38{fill:#FFB2DC;}
	.st39{fill:#FFF8B2;}
	.st40{fill:#92FF00;}
	.st41{fill:#2CFF00;}
	.st42{fill:#A682E1;}
	.st43{fill:#97FF00;}
	.st44{fill:#FFEC00;}
	.st45{fill:#FFE200;}
	.st46{fill:#5F23ED;}
	.st47{fill:#FF5100;}
	.st48{fill:#FFEF00;}
	.st49{fill:#F7FF59;}
	.st50{fill:#FBFFB2;}
	.st51{fill:#F1FF00;}
	.st52{fill:#E0E959;}
	.st53{fill:#C6D400;}
	.st54{fill:#F3FF59;}
	.st55{fill:#D8E900;}
	.st56{fill:#8847F2;}
	.st57{fill:#D8DF00;}
	.st58{fill:#FFDE00;}
	.st59{fill:#C4C923;}
	.st60{fill:#FFE900;}
	.st61{fill:#C3C900;}
	.st62{fill:#E6E98E;}
	.st63{fill:#FDFF76;}
	.st64{fill:#FEFFB2;}
	.st65{fill:#D3D43B;}
	.st66{fill:#FBFF8E;}
	.st67{fill:#E2E923;}
	.st68{fill:#F1F48E;}
	.st69{fill:#DBDF6B;}
	.st70{fill:#FF005D;}
	.st71{fill:#FFE600;}
	.st72{fill:#DEFFB2;}
	.st73{fill:#97FF59;}
	.st74{fill:#E95B00;}
	.st75{fill:#83E900;}
	.st76{fill:#A500FF;}
	.st77{fill:#E99159;}
	.st78{fill:#C6FF59;}
	.st79{fill:#3FFF00;}
	.st80{fill:#82FF00;}
	.st81{fill:#B8FF00;}
	.st82{fill:#490BDC;}
	.st83{fill:#232323;enable-background:new    ;}
	.st84{font-family:'TimesNewRomanPSMT';}
	.st85{font-size:27px;}
</style>
<sodipodi:namedview  bordercolor="#666666" borderopacity="1" gridtolerance="10" guidetolerance="10" id="namedview361" inkscape:current-layer="content" inkscape:cx="916.9469" inkscape:cy="504.97792" inkscape:pageopacity="0" inkscape:pageshadow="2" inkscape:window-height="1128" inkscape:window-maximized="1" inkscape:window-width="1918" inkscape:window-x="1680" inkscape:window-y="24" inkscape:zoom="1.5620895" objecttolerance="10" pagecolor="#ffffff" showgrid="false">
	</sodipodi:namedview>
<desc  id="desc5">This was produced by version 4.2 of GNU libplot, a free library for exporting 2-D vector graphics.</desc>
<defs>
	<rdf:RDF>
		<cc:Work  rdf:about="">
			<dc:format>image/svg+xml</dc:format>
			<dc:type  rdf:resource="http://purl.org/dc/dcmitype/StillImage"></dc:type>
		</cc:Work>
	</rdf:RDF>
	<bar:data  content="-0.24" name="coronalcoord"></bar:data>
	
		<bar:data  content="{&apos;ReferenceHeight&apos;: 900, &apos;ReferenceWidth&apos;: 1200, &apos;imageSize&apos;: (1200, 900)}" name="rendererConf">
		</bar:data>
	
		<bar:data  content="{&apos;DumpEachStepSVG&apos;: False, &apos;DumpEachStepPNG&apos;: False, &apos;GrowDefaultBoundaryColor&apos;: 200, &apos;CacheLevel&apos;: 5, &apos;NewPathIdTemplate&apos;: &apos;structure%d_%s_%s&apos;, &apos;PoTraceConf&apos;: {&apos;potrace_accuracy_parameter&apos;: &apos;0.001&apos;, &apos;potrace_width_string&apos;: &apos;1200pt&apos;, &apos;potrace_svg_resolution_string&apos;: &apos;300x300&apos;, &apos;potrace_height_string&apos;: &apos;900pt&apos;}, &apos;DetectUnlabelled&apos;: True, &apos;DumpVBrain&apos;: False, &apos;DumpWrongSeed&apos;: True, &apos;DumpDirectory&apos;: &apos;.&apos;, &apos;MinFiterTimesApplication&apos;: 3, &apos;RegionAlreadyTraced&apos;: 100, &apos;UnlabelledTreshold&apos;: 500}" name="tracingConf">
		</bar:data>
	<bar:data  content="0.0176211454,-9.5150660793,0.0176211454,-1.5355884426" name="transformationmatrix"></bar:data>
</defs>
<g id="content">
	<path class="st0" d="M2351.1,1361.9c-8.9-119.7-41.2-220.9-103.8-325.4c-18.6-31.2-45.5-70.2-82.5-119.7
		c-27.3-36.4-37.4-48.2-63.4-73.3c-87-84.2-233.1-168.2-359.6-207c-70.8-21.8-161.6-34.3-260.1-35.7c-61.1-0.9-108.5,2.5-147.6,10.6
		c-73.8,15.3-155.8,72.5-176,122.8c-4.6,11.4-11.2,40-11.2,48.7c0,2.1-0.4,3.1-1.3,3.1c-0.1,0-0.2,0-0.3,0v281.7
		c1,0.5,2.1,3.9,3.7,10.4c1.4,5.8,2.4,10.5,2.3,10.7c-0.2,0.1-2.9,0-5.9-0.3v20.5c3.1,0,4.2-0.6,7.2-3.6c2-2,3.9-3.6,4.2-3.6
		c0.3,0,1.6,1.9,3,4.3c1.3,2.3,3.4,5.2,4.7,6.4c3,2.8,3,4.4,0.1,5.1c-4.4,1.1-9.5,9.1-9.5,14.9c0,1.4-1.1,1.6-9.7,1.6V2144
		c11.5,0,11.2-0.1,9.6,5.4c-0.8,2.7-0.7,3.9,0.5,6.5c3.8,7.9,15.8,8.1,19.1,0.3c1.6-3.9,1.6-5.7-0.1-8.9c-1.9-3.5-1.7-5,0.7-5.4
		c14.5-3.2,24.6-6.2,40.9-12.3c20-7.5,33.3-11.3,47.5-13.9c21.5-3.8,27.8-5.9,32.3-11.3c2.9-3.5,3.6-6.2,2.9-10.8
		c-0.4-2.8-0.3-3.6,0.7-3.6c6.5,0,53.7,7.6,79.2,12.7c16.7,3.3,76.4,16.5,80,17.6c1,0.4,1.5,1.4,1.5,3.3c0,4.1,2.4,7.6,12.3,17.6
		c8.6,8.6,9,8.9,16.3,11.3c25.3,7.9,70.9,8.5,137.9,1.9c19.4-2,19.8-1.9,14,3.2c-6.3,5.5-3.1,12.1,7.2,14.8c3.9,1,9.5,1.4,19.8,1.4
		c30-0.1,43.7-4.1,43.7-13c0-5-5.1-8.3-17.3-10.9c-1.4-0.4-2.5-1.1-2.5-1.7c0-1.8,20.3-3.7,30.3-2.9c4.3,0.4,17,1.8,28.2,3.2
		c11.1,1.4,23.9,2.6,28.5,2.6c6.8,0,8.4,0.3,8.4,1.3c0,0.7-0.4,1.4-0.8,1.4c-0.4,0-1.3,1.3-1.9,2.7c-4,9.8,14.8,15.2,21.1,6.1
		c0.8-1.1,1.4-3,1.4-4.1c0-1.2,0.2-2.1,0.5-2.1c0.2,0,3.3,1,6.9,2.2c11.6,4,24.9,5.3,45.7,4.8c26.1-0.6,44.3-4.1,73.3-13.7
		c33.7-11.2,66.3-27.6,102.2-51.3c9.2-6,20.7-13.6,25.7-16.8c36.9-24.2,76.8-61.2,111.6-103.8c40.5-49.5,63-86.6,84-138.6
		c12.1-30.2,18.5-50.9,22.2-72.4c5-29.4,7.9-36.8,23.6-60.1c29.1-43.3,44.6-103.9,49.8-193
		C2354.4,1472.4,2353.9,1399.5,2351.1,1361.9z"/>
	<path id="structure2_label138_vBrain" bar:growlevel="0" bar:type="" class="st0" d="M1305.6,2099.9c-4.9,2.9-6.1,7.5-3.4,12.6
		c4.3,8.3,17.6,4.9,17.6-4.6c0-3-2.5-7-5.4-8.5C1310.9,2097.7,1309.1,2097.8,1305.6,2099.9z"/>
	<path class="st1" d="M1209.4,1621.1c-8.1,0-33.3-18.9-44.1-33.2c-6.3-8.4-15.8-26.2-17.5-33.4c-0.6-2.5-1.6-4.1-2.4-4.5v34.3
		c0.5,0.1,1.1,0.6,1.9,1.4c0.7,0.9,3,5.7,5,10.6c2,4.9,4.5,11.1,5.7,13.6c1.1,2.6,1.7,5.3,1.4,6c-0.8,2.1-6.1,3.3-13.9,3.2v4.4
		l13.9,2c12,1.7,41.4,6.8,50,8.6l2.4,0.5v-6.8C1211.7,1621.2,1211.7,1621.1,1209.4,1621.1z"/>
	<path id="structure103_label108_STLJ" bar:growlevel="0" bar:type="" class="st2" d="M1453.5,1638c-4.8,19.7-6.2,30.2-6.2,46.2
		c0,11.3,0.4,15.5,1.9,21.8c2.6,10.8,8.5,22.3,11.4,22.3c1.3,0,1.3-8.9,0-62.6c-0.7-31.4-1.4-40.9-2.7-40.9
		C1457.1,1624.7,1455.5,1629.5,1453.5,1638z"/>
	<path id="structure104_label109_E" bar:growlevel="0" bar:type="" class="st3" d="M1489.7,1061.1c-9.5,0.3-10.6,0.5-10.6,2
		c0,0.9,0.8,2.3,1.9,3.3c6.4,5.8,6,11.6-1.8,31.7c-6.3,16.3-14,39.1-18.9,56c-4.6,15.9-9.1,33.3-9.1,35.2c0,5.6,3.5-1.4,14.9-29.6
		c13.5-33.6,24.1-56.1,32.7-69c6.8-10.3,15.6-21.3,20.1-24.9C1525.7,1060.2,1525.7,1060.2,1489.7,1061.1z"/>
	<path id="structure105_label110_IPACM" bar:growlevel="0" bar:type="" class="st4" d="M1525.8,1767c0,1.9,35.6,44.1,59.1,70.1
		c15.1,16.6,74,74.3,87.3,85.3c5.1,4.3,12.5,10,16.3,12.6c8.2,5.7,31.9,17.8,41.6,21.3c12.8,4.6,28.2,3.9,48.1-2.3
		c5.1-1.6,5.9-2.2,5.9-4.1c0-1.2,0.5-3.2,1.1-4.5c0.5-1.3,0.8-2.5,0.5-2.8s-4,0-8.1,0.6c-14.4,2-25.2-1.6-51.2-17.1
		c-7.6-4.5-17.9-11.3-22.9-15c-19.3-14.5-45.2-37-64.7-56.3c-12.1-11.9-13-12.6-21.2-16.2c-8.1-3.6-9.2-4.4-22.5-17.2
		C1559.9,1787.5,1525.8,1760.9,1525.8,1767z"/>
	<path id="structure106_label111_LSS" bar:growlevel="0" bar:type="" class="st5" d="M1844.6,1904.2c-10.8,3.7-34,16.2-43.2,23.3
		c-10.1,7.6-17.8,18.3-17.1,23.2c0.3,1.9,0.7,2.1,5.7,2c9.4,0,26-8,50.5-24.3c14.9-9.9,20.2-15,20.2-19.7c0-4-2.6-6.8-6.5-6.8
		C1852.5,1901.9,1848.2,1903,1844.6,1904.2z"/>
	<path id="structure107_label112_STLD" bar:growlevel="0" bar:type="" class="st6" d="M1447.9,1523.7c-15,17.7-28.1,44.3-31,63.3
		c-2.1,13.3,1.1,28.6,6.4,31.5c1.3,0.6,4.2,0.9,7.3,0.7c7.6-0.5,11.4-3.6,20.4-16c7.2-10,7.5-10.4,7-14.4
		c-0.3-2.3-0.8-19.2-1.1-37.6C1456.2,1512.3,1456.5,1513.5,1447.9,1523.7z"/>
	<path id="structure108_label113_STMV" bar:growlevel="0" bar:type="" class="st7" d="M1338.2,1725.2c-2,0.8-11.1,3.5-20.3,6.2
		c-9.2,2.6-21.9,6.5-28.3,8.6c-15.2,4.8-27.5,7.2-35.9,7.2c-7.9,0-8.1,0.4-4.2,6.5c4.4,6.9,10.9,10.6,18.5,10.6
		c9.6,0,49.8-9.8,58.9-14.4c6.8-3.5,15.1-14.8,16.7-23.2C1344.3,1723.3,1343.8,1723.1,1338.2,1725.2z"/>
	<path id="structure109_label114_STMAM" bar:growlevel="0" bar:type="" class="st8" d="M1310.4,1568.1c-29.1,29.6-33.4,34.8-39.7,48
		c-6,12.6-14.5,33.7-13.8,34.3c1.2,1.3,11,3.2,24.1,4.9c7.7,1.1,18.2,2.7,23.4,3.8l9.4,1.9l3.5-4c5-5.8,22.9-29.4,36.2-48.1
		c14.8-20.5,42.8-62.1,42.8-63.4c0-1.2,0.7-1.2-18.5-0.1c-14.1,0.7-28.7,0.3-39.6-1.4l-3.7-0.5L1310.4,1568.1z"/>
	<path id="structure10_label7_PS" bar:growlevel="0" bar:type="" class="st9" d="M1296.3,1759.4c-6.7,1.6-16.3,3.7-21.4,4.5
		c-9.3,1.5-9.3,1.5-8.7,3.9c1,4.3,6.7,14.8,11.3,20.9c6.8,8.9,23,23.9,31.8,29.4c4.2,2.7,10.6,5.8,14.2,7.1
		c12.5,4.3,24.3,1.7,28.1-6.3c2.3-4.8,2-14.3-0.6-20.7c-4.8-11.4-14.8-24.5-25.7-33.1c-5.5-4.4-13.8-9-15.8-8.8
		C1308.9,1756.3,1303,1757.7,1296.3,1759.4z"/>
	<path class="st1" d="M1145.3,1741.7v18.9h2.5v14.9c0,12.6,0.2,14.8,1.3,14.8c1.8,0,11-12.4,17-23.2c5-8.8,10.4-21.3,10.4-23.9
		C1176.6,1741.9,1173.3,1741.7,1145.3,1741.7z"/>
	<path class="st10" d="M1159.3,1614.6c-0.3-1.1-3.1-8.1-6.2-15.5c-4.7-11-6.1-13.6-7.7-13.8v33.1
		C1156.7,1618.4,1160,1617.5,1159.3,1614.6z"/>
	<path id="structure115_label120_SO" bar:growlevel="0" bar:type="" class="st11" d="M1310,2082.4c-4.8,1.4-8.3,3.7-8.3,5.3
		c0,0.9,2.3,1.5,7.9,2.3c4.3,0.5,15.5,2.3,24.8,3.7c20.3,3.2,21.2,3.2,21.2,0.9c0-3.7-9.4-9.8-18.6-12.2
		C1330.7,2080.7,1315.3,2080.7,1310,2082.4z"/>
	<path id="structure116_label122_MPOL" bar:growlevel="0" bar:type="" class="st12" d="M1204.2,1827c-1.9,0.5-2.1-3.3,2.6,50.7
		c6.3,70.9,7.8,94.7,7.6,116.4l-0.2,16l4.4,3c10,6.8,17.5,16.6,17.5,23.2c0,4.6,3.6,3.2,11.7-4.4c11.3-10.6,17.5-20.3,21.8-33.6
		c2-6.4,2.1-8.1,2.1-29.7c-0.1-26-2.6-68-4.7-76c-2.9-11.8-13-26.6-28.7-41.9c-10.4-10.2-12.9-12.2-22.1-19.1
		C1209.4,1826.5,1208,1826,1204.2,1827z"/>
	<path id="structure117_label123_SFi" bar:growlevel="0" bar:type="" class="st13" d="M1156.7,1464.7c-1.5,2.7-1.4,56.5,0.1,63.7
		c2.5,11.6,12.5,25.3,19.4,26.6c8.4,1.5,10.9-2.2,10.7-15.8c-0.4-21.4-11.5-58.7-21.9-72.7
		C1161.8,1462.1,1158.5,1461.5,1156.7,1464.7z"/>
	<path class="st14" d="M1166.6,1216.3c0-2.8-0.7-6.9-1.5-9.1l-1.5-4.1h-18.3v37.6l0.1,0l3.7,2.1c2.1,1.2,4.1,2.2,4.8,2.2
		c0.5,0,1.3-1.9,1.7-4.3c0.9-6.2,2.3-9.2,7-14.5C1166.6,1221.7,1166.7,1221.2,1166.6,1216.3z"/>
	<path id="structure119_label125_IG" bar:growlevel="0" bar:type="" class="st15" d="M1169.4,1128c-2.9,1.2-5.4,3.5-5.4,5
		c0,0.9,1.8,1.2,7.6,1.2c13.1,0,16.3-1.7,10.3-5.4C1178.7,1126.9,1173.1,1126.6,1169.4,1128z"/>
	<path id="structure11_label8_StA" bar:growlevel="0" bar:type="" class="st16" d="M1242.7,1751.4c0.3,2.4,1.2,8.2,1.9,12.9
		c4.2,27.1-1.2,44.5-17.1,55.1c-3.2,2.1-5.8,4.3-5.8,5c0,0.9,4,1.2,18.7,1.2c32.9,0,67.7-3.4,67.7-6.7c0-0.6-2.6-3.1-5.8-5.4
		c-16.2-11.9-31.8-31.4-36.4-45.6c-0.9-2.7-1.7-3.4-4.7-4.3c-4.6-1.3-10.7-6.9-13.5-12.2c-1.4-2.6-2.8-4-3.9-4
		C1242.2,1747.1,1242.2,1747.6,1242.7,1751.4z"/>
	<path id="structure120_label126_STD" bar:growlevel="0" bar:type="" class="st17" d="M1417.1,1487.8c-5,2.5-13.1,6.8-18,9.6
		c-22.8,13.4-62.3,42-62.3,45.3c0,2.5,37.3,3.2,58.9,1.1l12.6-1.3l2.6-5.7c1.4-3.1,5.5-9.4,9.2-13.9c9-11.3,10.6-15.6,10.6-28.8
		l0.1-10.4l-2.3-0.3C1427.4,1483.5,1422.3,1485.4,1417.1,1487.8z"/>
	<path id="structure121_label127_MPOM" bar:growlevel="0" bar:type="" class="st18" d="M1162.4,1773.7l-4.8,7.6l0.9,37.6
		c0.5,20.7,1.5,66.2,2.3,101.1s1.6,65.1,1.9,67.1l0.5,3.6l9.1,2.6c11.8,3.4,23.7,7.8,32.8,12.2c4,2,7.6,3.6,7.7,3.6
		c0.2,0,0.6-3.8,0.9-8.4c0.6-9-0.5-37-2.5-64.1c-1.8-23.5-8.5-103.8-9.1-107.2c-0.4-2.6-0.7-2.9-4.7-3.3
		c-10.3-1.3-23.9-8.7-27.4-15.2c-1.9-3.6-2.1-4.9-2.1-17.8c0-7.7,0.4-16.9,0.8-20.5C1169.9,1763.7,1168.5,1764,1162.4,1773.7z"/>
	<path id="structure122_label128_Pe" bar:growlevel="0" bar:type="" class="st19" d="M1151.7,1788.5l-3.9,4.3v97.1v97.1l6.9,1.5
		c3.8,0.8,7,1.3,7.2,1.2c0.2-0.1-0.5-32-1.5-70.8c-1-38.8-2.1-85-2.3-102.8c-0.5-22.2-1-32.1-1.6-32.1
		C1155.9,1784.1,1153.8,1786.1,1151.7,1788.5z"/>
	<path id="structure128_label134_mcer" bar:growlevel="0" bar:type="" class="st20" d="M1663.2,2150.4c-13,1.7-20.6,4.4-23.8,8.6
		c-4,5-1.2,10.2,6.9,12.7c4.1,1.4,8.3,1.6,22.2,1.5c26.5-0.1,39.2-2.9,41.9-9.4c2.5-6.1-2.3-10.5-14.1-13.1
		C1689.5,2149.3,1673.1,2149.2,1663.2,2150.4z"/>
	<path id="structure12_label9_SHy" bar:growlevel="0" bar:type="" class="st21" d="M1175,1749.2c-4.4,11.6-6.8,26.6-6.8,42.9
		c-0.1,17.5,1,20.6,8.9,25.6c14.7,9.5,31.8,11,45.4,4c21.4-10.8,27-29.3,20.3-67l-1.5-8.3l-9.5-1c-8.6-0.9-23.2-2-45.6-3.2l-8.2-0.5
		L1175,1749.2z"/>
	<path class="st22" d="M1297.9,2095.2c-0.2-2.3-1.1-5-2-6c-4-4.3-20-7-59.9-9.9c-46.3-3.4-46.3-3.4-65.7-18.4
		c-12-9.4-19.1-13.6-24.9-14v95.7c15,0,29.9-1.6,42.2-4.7c5.7-1.3,19-5.8,29.6-9.7c22-8.2,31.1-10.8,52.2-14.7
		c16.8-3.1,23.5-5.7,26.8-10.8C1297.9,2100.1,1298.2,2098.6,1297.9,2095.2z"/>
	<path class="st23" d="M1290.8,1377.2c-5.5-17.4-19.9-43.2-33.8-60.3c-6.6-8.1-19.1-20.4-24.1-23.7c-2-1.3-7.8-3.8-13-5.6
		c-17.6-6.1-37.8-18.3-52.1-31.5c-7.1-6.5-18.9-14.3-22.4-14.7v303.3c0.3,0.6,0.8,2,1.2,4c2.4,11.4,10.5,28.2,18.9,39.1
		c7.8,10.2,25.5,25,36,30.3c5.7,3,11.8,3.2,13.6,0.7c2.4-3.3,3.4-9.1,3.4-20.7c0-10.1-1-19.2-2.7-25c-0.4-1.1,0-1.5,1.2-1.5
		c1,0,4.3-3.2,8.4-8.2c8-9.8,37-38.3,48-47.2l7.7-6.3l3.3-10.3C1299.5,1451.8,1301.6,1411.9,1290.8,1377.2z M1181.6,1555.1
		c-4.1,1.5-8.2,0-13.5-5.4c-5.8-5.8-10.8-15.8-12.1-23.9c-1.4-9.6-2.3-48.3-1.1-54.4c1.1-5.8,3.1-9.5,5-9.5c0.7,0,2.5,1.4,4,3.2
		c5.9,6.7,13.8,24.9,18.1,42C1189.4,1536.5,1189.3,1552,1181.6,1555.1z M1224.7,1497.4c-3.5,23.7-11.5,63.4-12.6,62.3
		c-0.7-0.6-17.6-69.2-22.3-90.6c-12.7-56.6-15.8-81.2-12.8-101.3c2.8-18.7,6.5-28.7,12.2-32.5c3.8-2.5,5.7-2.6,10.5-0.2
		c9.2,4.4,19.8,20.1,25.1,36.8C1233.3,1399.2,1233.3,1438.9,1224.7,1497.4z"/>
	<path class="st24" d="M1290.8,1377.2c-5.5-17.4-19.9-43.2-33.8-60.3c-6.6-8.1-19.1-20.4-24.1-23.7c-2-1.3-7.8-3.8-13-5.6
		c-17.6-6.1-37.8-18.3-52.1-31.5c-7.1-6.5-18.9-14.3-22.4-14.7v303.3c0.3,0.6,0.8,2,1.2,4c2.4,11.4,10.5,28.2,18.9,39.1
		c7.8,10.2,25.5,25,36,30.3c5.7,3,11.8,3.2,13.6,0.7c2.4-3.3,3.4-9.1,3.4-20.7c0-10.1-1-19.2-2.7-25c-0.4-1.1,0-1.5,1.2-1.5
		c1,0,4.3-3.2,8.4-8.2c8-9.8,37-38.3,48-47.2l7.7-6.3l3.3-10.3C1299.5,1451.8,1301.6,1411.9,1290.8,1377.2z M1181.6,1555.1
		c-4.1,1.5-8.2,0-13.5-5.4c-5.8-5.8-10.8-15.8-12.1-23.9c-1.4-9.6-2.3-48.3-1.1-54.4c1.1-5.8,3.1-9.5,5-9.5c0.7,0,2.5,1.4,4,3.2
		c5.9,6.7,13.8,24.9,18.1,42C1189.4,1536.5,1189.3,1552,1181.6,1555.1z M1224.7,1497.4c-3.5,23.7-11.5,63.4-12.6,62.3
		c-0.7-0.6-17.6-69.2-22.3-90.6c-12.7-56.6-15.8-81.2-12.8-101.3c2.8-18.7,6.5-28.7,12.2-32.5c3.8-2.5,5.7-2.6,10.5-0.2
		c9.2,4.4,19.8,20.1,25.1,36.8C1233.3,1399.2,1233.3,1438.9,1224.7,1497.4z"/>
	<path class="st25" d="M1347.2,1677.4c-8.1-5.4-26.9-14-35.1-16.2c-6.6-1.7-23-4.5-35.1-5.9c-5-0.5-17.5-3.4-27.9-6.2
		c-28.5-7.8-37-9.4-73.4-13.5c-12.7-1.5-21.9-2.2-30.4-2.3v107.6c32.2,0,64.2,1.7,93.4,5c17.6,2,27,0.9,48.2-5.6
		c5.9-1.8,19.6-5.8,30.3-9c22.4-6.6,29-9,35.6-13.5c6.8-4.4,10.1-10,10.1-16.7C1362.9,1691.5,1358.5,1684.9,1347.2,1677.4z"/>
	<path id="structure13_label10_MPA" bar:growlevel="0" bar:type="" class="st26" d="M1304.4,1821c-13.1,3.2-52,5.7-75.8,4.8
		c-15.6-0.6-16-0.5-16,1.2c0,1.1,1.6,3,4.3,4.9c13.9,9.9,29.7,25.7,39.3,39.2c11,15.2,11.9,18.5,14,51.1c0.9,14.4,1.7,35.5,1.7,46.9
		c0,18.2-0.2,21.5-1.9,27.4c-2.3,8.5-8.5,20.2-14.6,27.6c-4.1,5.2-16.8,16.5-18.5,16.5c-0.4,0-1.2,2.5-1.7,5.6
		c-1.4,7.5-5.5,15.3-11.4,22.2c-2.8,3.2-5,6.6-5,7.5c0,0.9,0.1,1.6,0.3,1.6c0.1,0,8.1,0.6,17.7,1.4c9.6,0.6,17.6,1.2,17.6,1.1
		c0.1-0.1,1-3.6,2.2-7.8c8.7-33.6,32.9-50.3,60.1-41.3c19.8,6.5,37.9,29.8,46.6,60c1.3,4.2,2.4,7.8,2.5,8c0.2,0.1,7.4,1.7,16,3.4
		c8.6,1.8,30.2,6.5,48,10.4c28.1,6.3,32.4,7.1,33.1,5.9c0.4-0.7,3.1-2.8,6.1-4.7c7.5-4.6,13.3-14,7.9-12.7
		c-10.7,2.7-31.6,3.4-42.1,1.6c-21.1-3.8-40.4-14.9-55.2-32c-10.8-12.4-17.9-24-20.8-33.7c-1.6-5.5-1.9-17.3-0.5-24.3
		c1.5-7.9,3.6-36.2,4.1-56.6c1.3-47.1-5.5-85.9-19.5-110.4c-4.2-7.5-14.5-19.4-16.7-19.4c-0.7,0-4.3-1.4-8.1-3.1
		C1311.1,1819.9,1309.7,1819.7,1304.4,1821z"/>
	<path class="st27" d="M2041.2,1526.6c-3.8-35.6-13-76.8-30.1-135c-37.8-128.3-93-211.4-193.6-292c-26.1-20.9-43.6-32.8-72.4-49.9
		c-62.5-36.6-143.8-68.5-212.4-83.2c-13.2-2.9-14-3-36.5-3c-24.4,0-29.6,0.6-48.7,5.4c-26.4,6.7-51.8,19-70.7,34.1
		c-8.8,7.1-13.9,13-23.2,26.6c-21.4,31.4-39.5,49-75.2,73.2c-19.4,13.1-24.4,15.8-38.6,20.4c-24.4,8.2-59.4,12.3-94.4,12.3v67.3
		c21.2-0.3,50.8-5.8,85.9-16.2c24.6-7.2,37.7-12.2,56.6-21.4c19.4-9.5,32.9-18.2,68-43.8c37.7-27.5,56.7-40.1,74.9-49.1
		c19.3-9.7,23.9-10.5,67.8-12c15.8-0.5,36.3-1.4,45.5-1.8c53.8-2.4,109.2,7.4,163.3,29c64.1,25.6,131.9,73.4,176.8,124.6
		c59.7,68,101.5,157.2,128.7,274.4c11.3,49,14.8,68.4,15.8,90.4c1.1,20.6-2.1,51-7.7,74.4c-2.1,8.9-2.3,11.1-0.6,11.1
		c2.1,0,12.3-30.1,16.3-48.1c4.2-18.8,5.2-27.9,5.7-51.3C2042.5,1546,2042.3,1537.2,2041.2,1526.6z"/>
	<path id="structure142_label155_STIL" bar:growlevel="0" bar:type="" class="st28" d="M1386.4,1622.7
		c-5.7,15.7-18.5,37.1-29.1,48.4c-3.3,3.6-6.1,7-6.1,7.6c0,0.5,1.6,2.4,3.6,4.2c4,3.7,9,12.9,9,16.8c0,7.8-5.4,15.7-14,20.1
		c-2.7,1.4-5,3.1-5,3.7c0,2.5-4,11.4-7.4,16.6c-4.2,6.3-10.3,10.6-18,13.1c-3.5,1.1-5.2,2.1-5.2,3c0,0.8,2.3,2.9,5.2,4.8
		c2.8,1.8,7.6,5.5,10.7,8.3c5.8,5.3,6.9,5.8,9.2,3.8c2.3-2.1,10.8-6.1,15.8-7.4c6.1-1.6,14.2-1.6,18.3,0.1c1.8,0.8,3.9,1.2,4.5,1
		c1.7-0.7,9.6-17,12.8-26.5c9.8-29.3,10.7-66.4,2.7-112.1C1391,1614.3,1389.8,1613.3,1386.4,1622.7z"/>
	<path id="structure143_label156_STLP" bar:growlevel="0" bar:type="" class="st29" d="M1433.4,1476c-1.8,4.7-2,6.4-1.5,13.3
		c1,13.6-2.1,22.3-11.8,33.9c-9.5,11.3-11.9,17.4-18,45c-2.3,10.3-5.6,23.7-7.4,29.7c-1.9,6-3.3,12.6-3.2,14.6c0,2,1.1,9.1,2.3,15.8
		c7,37,7.3,73.6,0.5,100.1c-2.6,10.4-6.8,21.9-10.9,29.8c-2,3.9-3.4,7.2-3.1,7.5c0.2,0.3,10.5-1.8,22.8-4.5
		c23.8-5.3,45.8-9.5,49.4-9.5c2.3,0,2.9-1.3,6.4-15.6l1.5-6.1l-2.9-4c-6.8-9.4-10-20.7-10.6-37c-0.7-18.2,2.2-38.1,9.2-62.4
		c2.8-9.8,3-11.1,2.5-20.6c-0.4-7-0.8-10.1-1.6-10.1c-0.6,0-3,2.9-5.3,6.3c-6,9.2-10.3,13.5-15.4,15.8c-8.2,3.9-13.9,2.1-17.6-5.7
		c-2-4-2.2-5.4-2.2-16.9c0.1-12.1,0.2-13,3.3-22.1c6.5-18.9,18.8-40.1,30.1-51.9l5.8-6v-5.7c0-11.1-4.7-23.4-12.5-33.2
		C1437.5,1469.4,1435.9,1469.4,1433.4,1476z"/>
	<path id="structure144_label157_mfba" bar:growlevel="0" bar:type="" class="st30" d="M1637.9,1973.9c-4.4,0.5-18.5,2.6-31,4.9
		c-23.6,4.2-39.9,6.8-57.2,8.7c-10.9,1.3-46.4,1.6-54.6,0.5c-6.4-0.8-6.7,0.1-1.4,4.8c14.4,12.8,16.3,36.2,5.5,69.2
		c-1.8,5.4-6,15.7-9.4,22.6c-3.4,7-6.2,13.1-6.2,13.6c0,0.4,0.5,0.8,1.2,0.8c2.4,0,35.2-9.2,52.7-14.8c22.8-7.3,27.5-8.2,52.6-10
		c36.5-2.5,53.2-5.5,66.1-11.6c7.5-3.5,10.9-6.8,19.6-18.4c14.2-19.1,17.2-34.8,9.6-50.9C1677.8,1977.3,1663.9,1971.7,1637.9,1973.9
		z"/>
	<path id="structure145_label158_mfbb" bar:growlevel="0" bar:type="" class="st31" d="M1416.1,1968.6c-11.3,2.3-29.2,9.8-38.4,16.2
		c-6.5,4.4-12.5,10.8-15.1,15.8c-1.2,2.5-2.9,8.1-3.8,12.5c-2.9,15.4-0.1,27.9,9.4,42c16.7,25.1,36.1,39.9,59.8,45.6
		c13.6,3.3,33.6,3.2,49.4-0.1c4.3-0.9,4.4-1.1,8.5-8.6c11.6-21.3,20.2-50,20.2-67.4c-0.1-20.5-10.4-35.3-28.3-40.2
		c-3.5-0.9-10.6-4-15.8-6.8c-19.4-10.4-17.1-9.6-30.2-9.8C1425.4,1967.8,1418.3,1968.2,1416.1,1968.6z"/>
	<path id="structure148_label161_STMAL" bar:growlevel="0" bar:type="" class="st32" d="M1385.3,1563.3
		c-22.1,33.1-51.2,73.7-64.3,89.6c-3.2,3.9-5.7,7.4-5.5,7.9c0.2,0.4,4.9,2.8,10.4,5.2c5.6,2.4,13,6,16.6,8.1c3.5,2,6.8,3.7,7.5,3.7
		c1.9,0,12.7-12.3,18.6-21.1c16.6-24.8,25-49.3,38.3-110.6c0.4-2.4,0.4-2.4-4-2.4h-4.5L1385.3,1563.3z"/>
	<path id="structure149_label163_acer" bar:growlevel="0" bar:type="" class="st33" d="M1304.7,2100.4c-2.4,1.7-4.1,6.8-3.3,9.8
		c0.8,3.4,5.3,6.8,8.9,6.8c3.8,0,8.2-3.5,9-7.1c0.7-3.2-1.4-8.6-3.9-9.9C1312.7,2098.6,1307,2098.8,1304.7,2100.4z"/>
	<path id="structure14_label13_VLPO" bar:growlevel="0" bar:type="" class="st34" d="M1289,2030.9c-11.5,4-20.2,12.5-26.8,26.8
		c-4.9,10.4-7.8,22.4-5.6,22.4c5.8,0,29.4,4.1,33.8,5.8c6.4,2.6,9.6,2.8,11.3,0.8c4-4.9,16.7-7.6,28.3-5.9
		c12.4,1.6,21.9,6.8,26.6,14.3c1.4,2.4,2.3,3,4.9,3c3.9,0,3.9-0.4-0.1-12.3c-6-17.9-13.2-30.2-24.3-41.2
		c-11.2-11.3-21.2-15.8-35.1-15.8C1297.1,2028.8,1293.3,2029.5,1289,2030.9z"/>
	<path class="st35" d="M1153.7,1093.7c-1.8-3.5-4.9-5.3-8.4-5.3v20.5C1151.9,1108.6,1157.8,1101.5,1153.7,1093.7z"/>
	<path id="structure155_Unlabeled-2849-813-7_S1DZ" bar:growlevel="0" bar:type="" class="st36" d="M1922.3,939.6
		c-59.8,84.1-108.9,153.6-109.1,154.6c-0.2,1.3,2.7,4.1,12,11.7c15.1,12.2,14.7,12,15.5,10.7c0.4-0.5,55.7-64.6,123-142.5
		c67.3-77.8,122.4-142,122.4-142.6c0-2.4-51.3-44.6-54.3-44.6C2031.4,786.8,1982,855.6,1922.3,939.6z"/>
	<path class="st37" d="M1228,2021.4c-8.6-9.4-25.1-18.1-47.8-25.5c-9.2-3.1-27.3-7.6-30.1-7.6h-2.3v25.5v25.4l4.6,1.6
		c2.5,0.9,4.3,1.9,4.1,2.2c-0.3,0.3-2.3-0.3-4.6-1.1c-2-0.8-4.3-1.1-6.7-1.1v5.5c1.2,0,2.3,0.1,3.4,0.5c4.2,1.3,11.7,6.1,22.9,14.8
		c14.1,11.1,20.4,13.5,39.3,15.3l5.8,0.5l2.9-3.8c1.6-2.2,4.9-6.4,7.3-9.4c5.8-7.3,8.6-15.3,8.6-25
		C1235.6,2030.8,1234.5,2028.3,1228,2021.4z"/>
	<polygon class="st38" points="1145.6,1760.6 1145.3,1760.6 1145.3,2039.6 1145.6,2039.6 1148.7,2039.6 1148.7,1900.1 
		1148.7,1760.6 	"/>
	<path id="structure15_label14_SHy" bar:growlevel="0" bar:type="" class="st21" d="M1276.7,1536.5c-11.3,1.4-22.6,4.6-30.1,8.4
		c-8.1,4-15.5,10.9-24.6,22.8l-5.1,6.8l1,7.9c1.3,10.1,1.3,23.8,0.1,30c-0.7,3.2-1.9,5.5-3.6,7.1c-2.4,2.3-2.6,3-2.6,8.7
		c0,5.3,0.3,6.4,1.6,6.8c0.8,0.2,5.6,1.3,10.5,2.3c16.4,3.5,23.8,6.1,27.3,9.5c1.7,1.7,3.5,3.1,4.1,3.1c0.5,0,2.8-4.6,5-10.2
		c6-15.6,14.7-32.9,19.5-39.2c2.4-3.2,16.5-18.1,31.1-33c14.8-14.9,26.8-27.5,26.8-28C1337.7,1537.2,1290.4,1534.8,1276.7,1536.5z"
		/>
	<path id="structure16_label15_GP" bar:growlevel="0" bar:type="" class="st39" d="M1508.7,1517c0,6.9-8.6,100.2-10.8,118.1
		c-5.8,44.6-12.4,88.5-14.8,96.4c-2.2,7.2-2,7.6,3.1,7.6c2.8,0,5.5-0.6,6.9-1.6c3.6-2.3,16.5-2,26.4,0.6
		c15.9,4.1,36.1,13.3,62.2,28.1c7.8,4.4,14.6,8,15.1,8c1.3,0,1.4,0.4-2.3-18.6c-17.3-91.4-46.2-177.7-76.7-229.1
		C1511.3,1515.3,1508.7,1512.7,1508.7,1517z"/>
	<path class="st23" d="M1290.8,1377.2c-5.5-17.4-19.9-43.2-33.8-60.3c-6.6-8.1-19.1-20.4-24.1-23.7c-2-1.3-7.8-3.8-13-5.6
		c-17.6-6.1-37.8-18.3-52.1-31.5c-7.1-6.5-18.9-14.3-22.4-14.7v303.3c0.3,0.6,0.8,2,1.2,4c2.4,11.4,10.5,28.2,18.9,39.1
		c7.8,10.2,25.5,25,36,30.3c5.7,3,11.8,3.2,13.6,0.7c2.4-3.3,3.4-9.1,3.4-20.7c0-10.1-1-19.2-2.7-25c-0.4-1.1,0-1.5,1.2-1.5
		c1,0,4.3-3.2,8.4-8.2c8-9.8,37-38.3,48-47.2l7.7-6.3l3.3-10.3C1299.5,1451.8,1301.6,1411.9,1290.8,1377.2z M1181.6,1555.1
		c-4.1,1.5-8.2,0-13.5-5.4c-5.8-5.8-10.8-15.8-12.1-23.9c-1.4-9.6-2.3-48.3-1.1-54.4c1.1-5.8,3.1-9.5,5-9.5c0.7,0,2.5,1.4,4,3.2
		c5.9,6.7,13.8,24.9,18.1,42C1189.4,1536.5,1189.3,1552,1181.6,1555.1z M1224.7,1497.4c-3.5,23.7-11.5,63.4-12.6,62.3
		c-0.7-0.6-17.6-69.2-22.3-90.6c-12.7-56.6-15.8-81.2-12.8-101.3c2.8-18.7,6.5-28.7,12.2-32.5c3.8-2.5,5.7-2.6,10.5-0.2
		c9.2,4.4,19.8,20.1,25.1,36.8C1233.3,1399.2,1233.3,1438.9,1224.7,1497.4z"/>
	<path class="st24" d="M1290.8,1377.2c-5.5-17.4-19.9-43.2-33.8-60.3c-6.6-8.1-19.1-20.4-24.1-23.7c-2-1.3-7.8-3.8-13-5.6
		c-17.6-6.1-37.8-18.3-52.1-31.5c-7.1-6.5-18.9-14.3-22.4-14.7v303.3c0.3,0.6,0.8,2,1.2,4c2.4,11.4,10.5,28.2,18.9,39.1
		c7.8,10.2,25.5,25,36,30.3c5.7,3,11.8,3.2,13.6,0.7c2.4-3.3,3.4-9.1,3.4-20.7c0-10.1-1-19.2-2.7-25c-0.4-1.1,0-1.5,1.2-1.5
		c1,0,4.3-3.2,8.4-8.2c8-9.8,37-38.3,48-47.2l7.7-6.3l3.3-10.3C1299.5,1451.8,1301.6,1411.9,1290.8,1377.2z M1181.6,1555.1
		c-4.1,1.5-8.2,0-13.5-5.4c-5.8-5.8-10.8-15.8-12.1-23.9c-1.4-9.6-2.3-48.3-1.1-54.4c1.1-5.8,3.1-9.5,5-9.5c0.7,0,2.5,1.4,4,3.2
		c5.9,6.7,13.8,24.9,18.1,42C1189.4,1536.5,1189.3,1552,1181.6,1555.1z M1224.7,1497.4c-3.5,23.7-11.5,63.4-12.6,62.3
		c-0.7-0.6-17.6-69.2-22.3-90.6c-12.7-56.6-15.8-81.2-12.8-101.3c2.8-18.7,6.5-28.7,12.2-32.5c3.8-2.5,5.7-2.6,10.5-0.2
		c9.2,4.4,19.8,20.1,25.1,36.8C1233.3,1399.2,1233.3,1438.9,1224.7,1497.4z"/>
	<path id="structure19_label19_LSV" bar:growlevel="0" bar:type="" class="st40" d="M1366.5,1458.7c-12.1,4.3-37.3,17.2-50.3,25.6
		c-21,13.7-40.9,29.3-60.1,47.3c-13.2,12.3-13.4,14-0.9,9.4c16.9-6.2,45.7-7.6,75.7-3.6c4,0.5,8,0.7,9.1,0.5
		c3.6-0.9,21.1-30.9,29.6-50.9c4.8-11.3,10.4-27.4,10.4-29.8C1380,1454.7,1376.5,1455.1,1366.5,1458.7z"/>
	<path class="st41" d="M1176.6,1628.7c-11.5-2-22.9-3.3-31.3-3.7v7.7c19.4,0,67.6,6.5,88.8,11.9c15.5,3.9,16.3,4.1,16.3,2.3
		C1250.4,1643.3,1226.5,1637.3,1176.6,1628.7z"/>
	<path id="structure21_label22_TS" bar:growlevel="0" bar:type="" class="st42" d="M1188,1336.3c-6.1,5.7-10.3,21.2-11.1,41.7
		c-0.6,15.8,0.3,25.3,4.8,50c6.5,35.7,28.3,127.4,30.4,127.4c2.8,0,12.6-54.4,16.3-90.9c2.1-19.9,2.8-52,1.4-65.1
		c-2.1-19.9-7.6-37.6-15.3-49.4C1205.3,1335.9,1194.5,1330.2,1188,1336.3z"/>
	<path id="structure22_label23_LSI" bar:growlevel="0" bar:type="" class="st43" d="M1167.6,1214.7c0,5.2-0.9,7.5-4.9,11.5
		c-4.4,4.7-6.1,8.4-6.7,14.7l-0.4,5.5l3.5,2.3c2,1.3,6.3,5,9.8,8.4c11.7,11.3,34.9,25.1,51.4,30.5c9.7,3.2,17,8.1,26,17.3
		c18,18.4,35.6,46.7,43.9,70.4c5.7,16.3,7.3,26.8,7.3,47.9c0,24.4-2.5,40.8-10.8,69.1c-3.3,11.6-3.7,13.7-2.2,13.7
		c0.4,0,4-2.3,7.8-5.2c27.1-20.4,53.9-35.5,77.8-43.5l11.3-3.9l2.7-11.3c10.2-42,10.3-76.6,0.5-112.1c-3.5-12.7-9.4-27.4-11.3-28.4
		c-0.7-0.4-5.4-1.9-10.4-3.4c-10.9-3.3-25.6-10.5-51.2-24.8c-43.6-24.6-89.4-44.4-114.8-49.8c-11.4-2.4-17.5-4.9-23.2-9.2
		c-2.6-2-5.1-3.6-5.6-3.6C1168,1210.7,1167.6,1212.5,1167.6,1214.7z"/>
	<path id="structure24_label25_CPu" bar:growlevel="0" bar:type="" class="st44" d="M1534.7,1059.5c-10.2,0.6-10.9,1.1-21.2,12
		c-10.3,10.9-20.9,27.5-30.1,47c-4.7,9.9-29.1,69.8-33.8,82.7c-2.2,6-3.3,11.5-4.4,20.8c-4.5,40.1-5.4,65.2-4.8,145.2
		c0.5,68.7,0.3,77.8-2.6,93.5l-1.5,8.3l5.1,5.7c3.1,3.3,6.6,8.5,8.5,12.6c3.4,7.2,5.6,8.9,5.6,4.5c0.1-9.7,2.1-35.3,3.1-41.6
		c4.3-23.3,12.6-35.2,26.5-37.8c13.1-2.5,22.2,6.2,25.8,24.9c1.9,9.8,1.9,28.4-0.1,54l-1.7,21.7l2.3,3.1c6,8.1,17.1,28.5,25.7,47.3
		c22.1,48.9,43.2,117.7,55.6,181.6c2.3,11.9,4.8,23.9,5.3,26.6l1.1,4.9l15.3,9.4c111.5,68.1,129.9,77.1,186.3,91.3
		c37.4,9.4,54.5,12.3,75.2,12.3h14l13.1-13.3c22.1-22.2,31.5-34.6,45.9-60.5c17.5-31.3,55.1-112.3,63.3-136.1
		c16.6-48.1,20.1-98,10.3-145.8c-22.4-109.7-47.5-182.1-86.1-248.2c-20.9-35.7-43.2-64.8-71.2-92.7
		c-58.5-58.4-135.5-103.1-210.1-122C1616.2,1060.9,1573.4,1056.8,1534.7,1059.5z"/>
	<path id="structure25_label26_IPACL" bar:growlevel="0" bar:type="" class="st45" d="M1599.8,1780.2c0.3,0.9,3.1,5.6,6.5,10.3
		c4.5,6.6,7.4,9.8,11.6,12.8c9.7,6.8,26.1,15.8,41.8,22.5c8.3,3.7,28.8,13,45.5,20.7c16.7,7.7,38.8,17.5,49.1,21.8
		c24.2,10,36.3,15.8,35.9,16.9c-0.5,1.5-18.9,1.1-27.6-0.7c-10.1-2.1-25-6.3-49.6-14c-11.1-3.6-29.1-9-40-12.2
		c-10.9-3.1-23.7-7.2-28.4-8.9c-9.7-3.7-11.7-4-11.7-1.6c0,3.6,46.8,45.5,71.3,63.9c9.4,7,32.1,20.8,42.8,25.9
		c11.7,5.5,24.3,7.2,35.4,4.6c4.3-1.1,5.8-2,10.7-7.2c7.4-7.7,15.6-13.3,31.7-21.7c22.5-11.7,31-13.9,35-8.9
		c1.3,1.6,1.7,3.1,1.4,4.5c-0.3,1.2-0.8,3.1-1.1,4.3c-0.4,1.4-0.2,2.3,0.5,2.3c1.5,0,26.1-22.5,26.1-23.8c0-0.8-3.8-1.3-14.1-1.6
		c-16-0.5-31.4-3-56.5-8.7c-37.4-8.7-64.4-17.9-90.9-30.9c-19.7-9.7-42.1-22.8-113.9-66.4
		C1602.2,1778.4,1599.1,1777.4,1599.8,1780.2z"/>
	<path id="structure26_label27_IEn" bar:growlevel="0" bar:type="" class="st46" d="M1911.9,1867.5c-13.6,15.2-51.6,50-72.4,66.4
		c-27.6,21.7-32.6,26.5-41.2,39.3c-6.2,9.4-6.2,9.1,0,14.7c2.9,2.7,5.8,6.1,6.5,7.6c1.4,3.6,3.5,3.4,8.7-0.6
		c5.5-4.1,12.3-7.3,19-8.6c4-0.8,6.3-2,10.1-5.2c2.7-2.3,12.2-9.6,21.2-16.3c20.6-15.4,28.3-22.1,33.8-29.5
		c5.7-7.5,8.5-14.6,10.6-26.7c0.9-5.3,4.3-18,7.7-28.2c3.2-10.1,5.9-19.1,5.9-20C1921.8,1857.3,1919.6,1858.9,1911.9,1867.5z"/>
	<path id="structure27_label28_AA" bar:growlevel="0" bar:type="" class="st47" d="M1766.1,1980c-21.1,2.1-40.2,8.7-55.9,19.2
		c-5.7,3.8-21.5,19.1-21.5,20.7c0,0.5-0.8,3.1-1.9,5.8c-3.8,10.2-18.6,30-25.9,34.7c-8.1,5.2-21.9,9.4-39.3,11.8
		c-3.5,0.4-17.6,1.7-31.1,2.7c-27.1,2-31.3,2.8-53.4,9.9c-16.1,5.1-39.2,11.8-48.9,13.9c-5.2,1.2-6.9,2-8.4,4.1
		c-1.9,2.7-2.3,5.4-0.9,5.4c0.5,0,3.5-1,6.8-2.3c9.1-3.4,29.9-8.4,43.5-10.3c22.1-3.2,36.8-3.8,85.7-3.1c39.9,0.4,47.7,0.4,56.3-0.9
		c16.1-2.3,39-3.4,64.5-3.1l23.9,0.3l1.5-8.6c4.8-26.6,17.3-50.6,37.5-71.6c6.8-7.1,7.2-7.7,6.7-10.6c-0.8-4.5-6.9-10.8-13.4-14
		C1784.2,1980,1776.6,1978.9,1766.1,1980z"/>
	<path id="structure28_label29_Tu" bar:growlevel="0" bar:type="" class="st48" d="M1690.1,2089.8c-2.4,0.2-9.4,1-15.3,1.9
		c-9.5,1.4-17,1.5-63,1.3c-42.1-0.3-55,0-66.6,1.1c-45.3,4.4-81.5,16.9-83.8,28.9c-0.3,1.7-0.1,3.9,0.6,5
		c2.3,4.4,16.6,18.9,20.7,21.1c5,2.6,15.5,5.3,26.9,6.9c11.2,1.5,68.4,1.5,86.4,0c27.1-2.3,59.9-5.8,86-8.8
		c30.8-3.7,37.5-3.7,63.3-0.4c8.6,1.2,15.8,1.8,16,1.5c0.4-0.3,0-4.7-0.6-9.8c-0.7-5.5-1.3-17.5-1.3-29.3v-20l-32.4,0.2
		C1709.2,2089.4,1692.6,2089.6,1690.1,2089.8z"/>
	<path id="structure29_label30_CxA-1" bar:growlevel="0" bar:type="" class="st49" d="M1872.8,2076.2c-22.2,8.5-75,26-85.9,28.7
		c-5.2,1.3-12,2.5-15.1,2.8c-4.9,0.5-6,0.4-8.3-1.4c-4.6-3.3-4.8-3-4,10c0.6,11.9,2.9,32.2,3.6,33c0.3,0.2,9.6,0.5,21,0.8l20.5,0.4
		l1.1-2.4c4-8.7,29.7-15.5,62.4-16.5l17.6-0.5l2.1-19.9c2.9-27,3.4-41,1.8-41C1888.6,2070.3,1881.2,2073,1872.8,2076.2z"/>
	<path id="structure30_label31_CxA-2" bar:growlevel="0" bar:type="" class="st50" d="M1873.2,2042.9c-23.3,10.5-62,24.2-88.2,31.4
		c-12.2,3.3-19.3,6.9-22.3,11.5c-2.1,3.1-2.4,4.6-2.4,10.6c0,5.7,0.4,7.3,1.8,8.9c1.7,1.9,2.3,2,9.9,1.5c4.6-0.4,12.6-1.8,18.4-3.3
		c16-4.2,74.6-24.2,97.5-33.2c2.4-0.9,2.4-1,2.4-9.3c0-10.6-1.7-24.1-3.1-24C1886.7,2037,1880.4,2039.7,1873.2,2042.9z"/>
	<path id="structure31_label32_CxA-3" bar:growlevel="0" bar:type="" class="st51" d="M1829.5,1987.2c-11,3.2-20.3,9.8-32.2,22.9
		c-18.1,19.6-31.1,44.4-34.9,66.1c-1.2,6.8-0.7,8.6,1.8,6.8c5.8-4.1,10.3-6,20.1-8.8c19.1-5.5,49.2-15.6,63.8-21.2
		c19.4-7.5,38.8-16.1,39.3-17.6c0.8-2.2-3.3-15.1-7.8-24.3c-5.3-11-12.1-18.5-20.3-22.5c-4.8-2.3-6.5-2.6-14.8-2.8
		C1837.5,1985.7,1833.5,1986.1,1829.5,1987.2z"/>
	<path id="structure32_label33_DEn" bar:growlevel="0" bar:type="" class="st52" d="M1970,1775.2c-12.6,26.8-30,57.7-39.9,70.8
		c-4.7,6.2-6.1,9.1-7.9,15.2c-1.2,4.1-4.4,14.4-7.2,22.9c-2.7,8.5-5.4,18.5-5.9,22.3c-1,6.5-0.9,7,1.3,11.7
		c3.1,6.8,6.3,10.3,11.8,13c14.8,7.2,36.7,4.2,62.3-8.5c14.5-7.2,23.6-13.7,35.3-25.3c23.5-23.2,37.4-50.7,36-70.8
		c-0.6-8.5-2.9-14.8-7.3-19.7c-2.9-3.3-3.9-3.9-5.8-3.4c-4.2,1.1-16.8,0.5-21.8-1c-9.3-2.7-15.3-6.7-24.3-15.7
		c-4.7-4.8-10.8-11.8-13.5-15.6c-2.7-3.8-5.6-6.9-6.4-6.9C1975.7,1764.2,1973.5,1767.8,1970,1775.2z"/>
	<path id="structure33_label34_Pir-1" bar:growlevel="0" bar:type="" class="st53" d="M2201.3,1830.1c0.4,1.2,0.9,4.4,1.1,7.3
		c1.6,20.6-30,76.8-67.6,120.3c-17.7,20.5-42.6,44.5-62.6,60.4c-37.1,29.4-58.7,36.4-105.4,34c-26.8-1.4-37.1,0.4-62.9,11.6
		l-12.2,5.3l-0.6,9.4c-0.7,9.8-4,43.8-4.8,49.6l-0.4,3.4h20.4c23.6,0,32.4-1.1,48.4-5.8c29.1-8.6,80.4-28.1,89.6-34.2
		c1.7-1.2,9-5.9,16.2-10.7c45.3-29.6,88.5-72,131.8-129.3c20.3-26.8,31.9-45.4,46.2-74.3c7.8-15.7,16.1-34.5,15.5-34.9
		c-0.7-0.7-50-14.1-51.6-14.1C2200.9,1828.1,2200.7,1828.6,2201.3,1830.1z"/>
	<path id="structure34_label35_Pir-2" bar:growlevel="0" bar:type="" class="st54" d="M2184.8,1827.5c-1.1,1.1-3.8,6.3-6,11.4
		c-12.8,29.2-33.7,63.5-54.3,89.1c-13.7,16.9-50.5,52.2-69,66.1c-17.2,12.9-21.5,15-43.6,21.9c-30.1,9.2-41,11.1-72.5,12
		c-25.6,0.8-30.3,1.4-42.8,5.3c-8.5,2.7-8.4,2.5-7.3,8.7c0.5,2.9,1.3,10.1,1.6,15.8c0.3,5.8,0.8,10.6,1.2,10.6s3.7-1.4,7.3-3.1
		c10.9-4.9,22.5-9.3,30.6-11.5c7.3-2,8.6-2.1,35.6-1.8c31,0.3,41.7-0.6,55.7-4.8c14.6-4.2,29-12.2,45.4-25.1
		c52.2-40.7,97.2-94.1,122.9-145.9c16.5-33.2,16.9-50.9,1.2-50.9C2187.8,1825.4,2186.3,1825.9,2184.8,1827.5z"/>
	<path id="structure35_label36_Pir-3" bar:growlevel="0" bar:type="" class="st55" d="M2068.9,1780.2c-3.2,5.6-12.1,14.8-17.6,18.4
		c-2.3,1.5-4.3,3.3-4.3,4s1.4,3.4,3.2,6.1c4.2,6.4,5.8,11.9,5.8,20.8c0,17-9.5,37.5-27.4,58.8c-14.9,17.7-34.1,31.6-55.3,39.9
		c-25,9.7-45.3,9.4-57-0.8c-1.8-1.5-4.2-4.7-5.4-6.9c-2.3-4.1-4.4-5.3-4.4-2.3c0,0.9-1.7,5-3.8,9.2c-5.2,10.5-14.1,19-40.5,39
		c-11.8,8.9-21.4,16.7-21.4,17.2c0,0.7,2.3,1.4,6,1.6c7.4,0.7,15.8,4.5,21.2,9.6c7.7,7,15.9,22.5,18.7,35.2c0.6,2.9,1.6,5.3,2.2,5.3
		c0.6,0,3.4-0.8,6.4-1.8c12.5-4.3,22.1-5.6,48.1-6.3c27-0.7,33.2-1.6,55.4-7.7c34.9-9.5,44.4-14.4,68.9-35.4
		c11.3-9.6,35.7-33.1,45.8-44c22.8-24.5,46.4-60.7,62.6-96.1c3.7-7.9,7.5-15.2,8.6-16.4c1-1.1,1.6-2.5,1.3-3.2
		c-0.3-0.7-7.7-3-18.7-5.6c-10.1-2.4-23.1-5.9-28.9-7.8c-16-5.1-35.7-15.6-58.1-30.6c-3.6-2.4-7.1-4.4-7.8-4.4
		S2070.2,1777.8,2068.9,1780.2z"/>
	<path id="structure36_label37_VCl" bar:growlevel="0" bar:type="" class="st56" d="M2039.7,1666.9c-9.6,3.2-19,10.9-28.6,23.8
		c-6,7.9-12.5,21.3-32.8,67.3l-1.9,4.1l7,9.4c18.4,24.6,33.2,33.5,53.2,32c6.6-0.4,8.1-0.9,12.6-3.8c19.7-12.6,30.3-34.1,33.8-68.4
		c2.6-26.1-1.8-48-11.5-57.3c-5.5-5.3-11-7.3-21-7.7C2045.9,1666.3,2041,1666.5,2039.7,1666.9z"/>
	<path id="structure37_label38_AIP" bar:growlevel="0" bar:type="" class="st57" d="M2084.2,1703.7c0.1,31.9-1.9,45.4-9.4,65.7
		c-1.2,3.1-1.9,5.8-1.7,5.9c0.3,0.3,7.2,4.8,15.5,10c27.8,17.7,42,24,68,30.3c17.9,4.4,47.7,12.2,76.5,20.3
		c11.6,3.2,21.2,5.7,21.5,5.5c0.5-0.6,7.9-20.2,12.1-32c5.1-14.8,7.6-24.5,11.2-44.3c3.4-18.4,6.7-29.6,11.3-38.6
		c1.4-3,2.7-5.8,2.7-6.3c0-0.5-1.9-1.2-4.2-1.4c-19.6-2.8-80.8-14.8-153.4-30.2c-25.6-5.5-47.3-9.9-48.2-9.9
		C2084.2,1678.7,2084.2,1679.7,2084.2,1703.7z"/>
	<path id="structure38_label39_DCl" bar:growlevel="0" bar:type="" class="st58" d="M2043.1,1562.4c-0.6,22.5-2.6,37.9-7.5,57.1
		c-4,15.8-10.7,35.6-17.2,50.3c-7.8,17.8-7.5,19.1,2.8,9.2c13.3-12.9,25.3-16.3,39.8-11.3c8.8,3,15.6,10,18.8,19.6
		c1,2.8,2.3,5,2.9,5c1.4,0,1.4,0.4,0.2-12.6c-3.9-42.8-16.5-89.9-35.6-132.9C2044.1,1539.7,2043.6,1541.7,2043.1,1562.4z"/>
	<path id="structure39_label40_DI" bar:growlevel="0" bar:type="" class="st59" d="M2072.3,1615.8c0.3,1.7,2,9.9,3.8,18.4
		c1.8,8.4,4.2,21.6,5.3,29.3l2,13.9l38.7,8.3c68.1,14.7,138.1,28.4,168.3,33.1c2.6,0.5,3,0,10.8-12c9.7-14.8,16.7-28.3,22.9-44.7
		c4.1-10.9,5.3-14.8,4.2-14.8c-5,0-238-31.1-253.4-33.9C2072,1612.8,2072,1612.8,2072.3,1615.8z"/>
	<path id="structure3_label0_VP" bar:growlevel="0" bar:type="" class="st60" d="M1460.1,1732.4c0,0.3-1.9,7.4-4.1,15.9
		c-7.4,27.6-12.1,40.6-17.9,49.7c-4.3,6.7-5.4,12.3-5.4,28.8c0,16.9,1.2,22.6,7.3,35.3c7.6,15.8,19.2,27.4,39.5,39.3
		c5.7,3.4,13.7,8.6,17.7,11.6c9.3,6.8,25.9,23.4,31.6,31.4c8.9,12.7,15.1,26.8,16.4,37.9l0.6,5.2l5.1-0.5
		c12.8-1.4,37.4-5.2,55.4-8.5c38.9-7,50.3-7.3,63.5-1.3c11.4,5.1,19.7,19.1,19.7,33.4c0,3,0.4,4.8,1,4.8c0.6,0,4.3-3.1,8.4-7
		c14.9-14.3,35-23.8,58.6-27.6c10.3-1.7,21.4-1.7,27.1,0c7.3,2.2,7.6,2.1,12.8-6.4c6.7-10.4,16.8-20.9,31.7-32.5
		c6.9-5.3,12.6-10.3,12.6-10.8c0-2.3-3-1.1-12,4.6c-19.4,12.1-33,17.8-42.9,18.1c-4.1,0.1-10.2,1.1-15.4,2.4
		c-17.5,4.8-28.4,5-40.4,0.9c-6.3-2.3-32.3-15.1-38.7-19.3c-6.8-4.3-19.6-14.5-28.5-22.5c-12.9-11.6-57.1-54.6-68.1-66.3
		c-19-20.2-56.7-63.8-69.4-80.4c-3.9-5-5.7-6.5-12.9-10.3c-10.4-5.5-19.9-12.5-21.7-16.2c-1.3-2.5-2-2.9-6.3-3.3
		c-3.4-0.4-5.7-0.1-7.5,0.8c-3.6,1.9-7.5,0.5-12-4.1C1462.9,1732.3,1460.1,1730.8,1460.1,1732.4z"/>
	<path id="structure40_label41_GI" bar:growlevel="0" bar:type="" class="st61" d="M2047.8,1546.2c0,0.4,1.9,5.2,4.1,10.6
		c5.6,13.4,11.3,29.3,15.2,42.7c1.9,6.2,3.9,11.7,4.4,12.2c1.3,1.3,72.3,11.2,189.1,26.5c58.5,7.6,67.8,8.6,68.8,7.6
		c1.1-1.1,5.7-17.5,8.6-30.4c4-17.8,9.5-53.8,8.5-54.9c-0.2-0.2-5.4,0-11.6,0.5c-12.9,1.1-78.7,0.4-104.4-1.1
		c-67.7-3.7-157.7-10.8-179.3-14C2049.4,1545.6,2047.8,1545.7,2047.8,1546.2z"/>
	<path id="structure41_label42_S2" bar:growlevel="0" bar:type="" class="st62" d="M2164.4,1303.2c-91.5,23.5-166.7,42.9-166.9,43.1
		c-0.3,0.2,2.7,9.9,6.5,21.7c19.6,60.8,33.8,120.3,37.5,158.1c0.8,7.8,1.7,12,3.2,14.9l2.1,4.1l25,2.4
		c101.3,9.9,206.4,15.4,252.9,13.3c11.7-0.5,21.6-1.3,22-1.6c0.9-1,3.2-28.8,4.5-54.3c1.2-24.5,0.5-119-0.9-139.1
		c-2.5-32.8-6.2-62.5-11-88.2c-3.4-18.4-3.2-17.6-6-17.5C2332,1260.4,2256,1279.7,2164.4,1303.2z"/>
	<path id="structure42_label43_S1ULp" bar:growlevel="0" bar:type="" class="st63" d="M1964.6,973.2
		c-66.8,77.2-122.1,141.4-122.9,142.7c-1.3,2.3-1.3,2.3,6.8,9.5c13.6,12.2,43.6,42.8,53.6,54.7c26.5,31.3,48.1,64,66.6,100.9
		c8.4,16.8,19.1,41.1,24.2,55.3c1.6,4.4,3.2,8.5,3.6,8.8c0.5,0.5,322.2-81.1,336.9-85.4c2.2-0.6,2-2.4-2-19.3
		c-22-93.1-64.3-180.6-133.9-277.5c-31.1-43.2-52.3-71.2-67-88.1c-12.3-14.2-40.9-42.1-42.9-42.1
		C2086.7,832.7,2036,890.7,1964.6,973.2z"/>
	<path id="structure43_label44_S1FL" bar:growlevel="0" bar:type="" class="st64" d="M1743.2,639.4c-3.7,10.3-110.3,355-110.1,355.9
		c0.2,0.7,7.2,4,15.8,7.6c56.2,22.7,108.5,51.3,150,82.3c6.4,4.8,12.1,8.6,12.6,8.6c1-0.1,218.5-305.3,219-307.3
		c0.2-0.6-5.8-5.4-13.1-10.6c-79.1-56.3-170.1-102.9-259.5-133.1C1743.6,637.9,1743.7,637.9,1743.2,639.4z"/>
	<path id="structure44_label45_S1HL" bar:growlevel="0" bar:type="" class="st65" d="M1530.1,781.2
		c-13.3,96.9-24.1,176.8-24.1,177.6c0.1,1.4,7.1,3.4,31.1,8.5c25.2,5.5,61.2,16.2,87.6,26.1c3.6,1.3,6.8,2.3,7.1,2
		c0.6-0.7,111-355,111-356.6c0-1.2-14.1-5.4-35.6-10.7c-37.1-9.2-84-16.7-132.7-21.2c-10.6-1-19.5-1.8-19.9-1.8
		C1554.4,605,1543.3,684.3,1530.1,781.2z"/>
	<path id="structure45_label46_M1" bar:growlevel="0" bar:type="" class="st66" d="M1428.2,602.4c-10.3,0.4-21.4,0.9-24.5,1.3
		c-5,0.5-5.7,0.8-5.7,2.5c-0.1,3.2,22.5,332.7,23,336.9l0.4,3.7l10.1,0.6c19.1,1.2,40,4.4,61.7,9.6c6.1,1.4,11.3,2.5,11.5,2.3
		c0.5-0.4,48.9-353.7,48.5-354.1c-0.5-0.5-27.7-2.2-51.8-3C1473.2,601.3,1456.4,601.3,1428.2,602.4z"/>
	<path id="structure46_label47_M2" bar:growlevel="0" bar:type="" class="st67" d="M1389,604.8c-54.1,5.6-77.6,11.3-113.4,27.7
		c-15.8,7.2-32.8,16.7-46.7,26.3c-16.6,11.3-20.8,14.8-20.5,17.1c0.3,2.7,157.4,284.7,158.7,284.7c0.5,0,4.9-1.8,9.5-4.1
		c10-4.7,19.9-7.3,33.8-8.6c8.8-1,10.1-1.3,10.1-2.7c0-2.6-22.4-329-23-335.4C1397,603.5,1397.5,603.9,1389,604.8z"/>
	<path id="structure47_label48_Cg1" bar:growlevel="0" bar:type="" class="st68" d="M1197.2,683.7c-9.5,8.6-16.3,15.9-24.5,26.8
		c-13.1,17.4-19.6,35.9-24.6,69.6c-1.3,8-1.6,20-1.9,63l-0.4,53.1l98.8,44.7c54.4,24.7,99.1,44.8,99.4,44.8c0.3,0,2.3-2.5,4.6-5.7
		c2.3-3.1,6.9-8.4,10.5-11.7c4-3.9,6.3-6.7,6.1-7.7c-0.4-2.8-157.8-284.5-158.8-284.6C1206.2,676.1,1201.8,679.5,1197.2,683.7z"/>
	<path id="structure48_label49_Cg2" bar:growlevel="0" bar:type="" class="st69" d="M1146.3,981c0.3,81.6,0.3,83.7,2.2,91.6
		c4.8,19.9,10.4,33,17.5,40.3c2.4,2.5,4.4,4.7,4.4,4.9c0,0.2-1.1,0.3-2.4,0.3c-5.8,0-10.2,5.1-11.4,13.2l-0.5,3.9h3.1
		c2.3,0,3.2-0.4,3.7-1.8c0.7-2.3,4.6-4.9,9-6.2c4.9-1.3,9.5,0.1,12.6,3.6l2.3,2.8l9.2-1.1c13.5-1.5,34.2-5.9,43.9-9.1
		c13.6-4.5,22.5-9.3,30.7-16.5c12.2-10.7,29.6-29.3,35.5-37.9c10-14.6,13.5-22.1,24.2-51.3c2.3-6.5,6.3-15.8,8.7-20.6
		c2.4-4.9,4.3-9.4,4.1-10.2c-0.3-1.3-193.1-89.4-195.7-89.4C1146.1,897.5,1146,909.3,1146.3,981z"/>
	<path id="structure49_label50_LV" bar:growlevel="0" bar:type="" class="st70" d="M1458,1063.2c-7.9,0.9-13.2,2.6-24.4,7.9
		c-16.8,8-42.6,24.7-76.5,49.6c-38.1,27.8-50.6,36-70.8,45.8c-6.8,3.2-12.4,6.3-12.4,6.8c0,1.2,11.3,14.9,36.4,44.1
		c50,58.1,54.6,64.4,63.9,83.6c18.9,39.5,23.1,81.9,13.1,130.6c-6.3,30.6-19.1,63.5-34.7,89.3c-3.9,6.4-4.9,9.4-3.1,9.4
		c0.5,0,5.9-3.7,12.2-8.1c23-16.6,44.4-29.7,59.2-36.2c4.6-2,9-4.3,9.9-5.1c2.2-2.1,5.6-12.2,7.6-22.6c1.5-7.9,1.6-14,1.4-78.3
		c-0.5-100.1,1.8-145.5,9.3-183.1c4.8-24,19.4-71.9,30.4-99.9c5.8-14.7,6.6-18.4,5-24.1C1482.1,1063.7,1475.3,1061.1,1458,1063.2z"
		/>
	<path id="structure4_label1_SIB" bar:growlevel="0" bar:type="" class="st71" d="M1461,1904.7c-15,3.9-29,13.7-33.4,23.5
		c-1.8,4-2.2,6.2-2.2,14.2c0,7.9,0.4,10.2,2.1,14c3,6.6,6.8,9.8,12.8,11.1c3,0.6,9.2,3.4,15.3,6.8c20.3,11.2,28,13,57,13.7
		c11.3,0.3,23.2,0.2,26.5-0.2l5.9-0.6l-0.5-5.8c-2.2-23.3-24.1-53-53.8-72.9l-8.6-5.8l-7.1,0.1
		C1470.9,1902.9,1464.8,1903.7,1461,1904.7z"/>
	<path id="structure50_label52_LSD" bar:growlevel="0" bar:type="" class="st72" d="M1264.4,1176.2c-17.7,7.4-64.9,20.3-87.8,23.9
		c-8.7,1.4-12.6,2.4-12.6,3.2c0,2.3,9,10.7,14.4,13.6c3.2,1.7,10.8,4.2,19.1,6.3c7.6,1.9,18.1,4.9,23.2,6.8
		c25.6,9.1,61.2,25.8,91.8,43.2c22.1,12.5,37.3,20,48,23.8c8.6,3.1,12.3,3.5,12.3,1.5c0-2.3-11.6-20.5-18.5-29
		c-3.9-4.7-21.6-25.6-39.5-46.5c-17.8-20.9-34.5-40.5-37-43.6c-2.9-3.5-5.1-5.6-6.3-5.6C1270.6,1173.9,1267.4,1174.9,1264.4,1176.2z
		"/>
	<path class="st73" d="M2041.2,1526.6c-3.8-35.6-13-76.8-30.1-135c-37.8-128.3-93-211.4-193.6-292c-26.1-20.9-43.6-32.8-72.4-49.9
		c-62.5-36.6-143.8-68.5-212.4-83.2c-13.2-2.9-14-3-36.5-3c-24.4,0-29.6,0.6-48.7,5.4c-26.4,6.7-51.8,19-70.7,34.1
		c-8.8,7.1-13.9,13-23.2,26.6c-21.4,31.4-39.5,49-75.2,73.2c-19.4,13.1-24.4,15.8-38.6,20.4c-24.4,8.2-59.4,12.3-94.4,12.3v67.3
		c21.2-0.3,50.8-5.8,85.9-16.2c24.6-7.2,37.7-12.2,56.6-21.4c19.4-9.5,32.9-18.2,68-43.8c37.7-27.5,56.7-40.1,74.9-49.1
		c19.3-9.7,23.9-10.5,67.8-12c15.8-0.5,36.3-1.4,45.5-1.8c53.8-2.4,109.2,7.4,163.3,29c64.1,25.6,131.9,73.4,176.8,124.6
		c59.7,68,101.5,157.2,128.7,274.4c11.3,49,14.8,68.4,15.8,90.4c1.1,20.6-2.1,51-7.7,74.4c-2.1,8.9-2.3,11.1-0.6,11.1
		c2.1,0,12.3-30.1,16.3-48.1c4.2-18.8,5.2-27.9,5.7-51.3C2042.5,1546,2042.3,1537.2,2041.2,1526.6z"/>
	<path id="structure5_label2_LPO" bar:growlevel="0" bar:type="" class="st74" d="M1376.9,1791c-3.9,2.6-13.8,6-20.5,7
		c-4.1,0.6-4.4,0.8-3.9,3.1c0.4,1.3,0.8,4.6,1.1,7.4c1.3,11-7,19.7-18.6,19.7c-2,0-3.5,0.4-3.5,1c0,0.5,1.8,3.1,4.1,5.6
		c8.5,9.5,15.6,25,20.6,45.1c5.4,21.6,6.2,30,6.3,63.5c0,16.6-0.4,35.9-0.8,42.9c-0.6,10.6-0.5,12.9,0.5,12.9c0.7,0,2.2-1.4,3.2-3.1
		c8.6-13.2,43.5-29.3,64-29.3c2.1,0,3.8-0.5,3.8-1c0-0.5-1.2-2.4-2.6-4.2c-7.5-9.7-8.1-26.2-1.4-36.4c7.7-11.5,24.4-20.5,42.6-22.8
		c2.6-0.4,4.7-1.1,4.6-1.6c0-0.6-2.9-2.9-6.4-5.1c-8.5-5.3-20.2-16.9-25.4-24.9c-4.7-7.3-8.8-16.9-11.1-26
		c-1.9-7.6-2.1-27.2-0.4-34.8c0.6-2.9,1-5.5,0.7-5.8c-0.3-0.2-2.4,0.3-4.8,1.1c-3.6,1.2-5.3,1.3-10.6,0.5c-8.1-1.3-13-3.4-20.8-9.4
		C1386.4,1787.7,1382.9,1786.8,1376.9,1791z"/>
	<path id="structure6_label3_HDB" bar:growlevel="0" bar:type="" class="st75" d="M1416.1,1968.6c-11.3,2.3-29.2,9.8-38.4,16.2
		c-6.5,4.4-12.5,10.8-15.1,15.8c-1.2,2.5-2.9,8.1-3.8,12.5c-2.9,15.4-0.1,27.9,9.4,42c16.7,25.1,36.1,39.9,59.8,45.6
		c13.6,3.3,33.6,3.2,49.4-0.1c4.3-0.9,4.4-1.1,8.5-8.6c11.6-21.3,20.2-50,20.2-67.4c-0.1-20.5-10.4-35.3-28.3-40.2
		c-3.5-0.9-10.6-4-15.8-6.8c-19.4-10.4-17.1-9.6-30.2-9.8C1425.4,1967.8,1418.3,1968.2,1416.1,1968.6z"/>
	<path id="structure70_label75_ic" bar:growlevel="0" bar:type="" class="st76" d="M1481.8,1413.4c-14.3,4.1-21.9,20.9-24.5,54.3
		c-1.3,16-0.5,79.2,1.4,129.1c1.3,32.6,3,91.5,3.4,117.5c0.2,12.1,0.4,13.9,2.3,17.8c5,10.2,14.9,10.4,18,0.6
		c2.2-6.9,9-51,14.5-94.1c4.1-32.5,15.3-163.6,15.3-180.4c0-24.1-5.2-40-14.7-44.3C1493.5,1412.2,1486.9,1412,1481.8,1413.4z"/>
	<path id="structure7_label4_MCPO" bar:growlevel="0" bar:type="" class="st77" d="M1637.9,1973.9c-4.4,0.5-18.5,2.6-31,4.9
		c-23.6,4.2-39.9,6.8-57.2,8.7c-10.9,1.3-46.4,1.6-54.6,0.5c-6.4-0.8-6.7,0.1-1.4,4.8c14.4,12.8,16.3,36.2,5.5,69.2
		c-1.8,5.4-6,15.7-9.4,22.6c-3.4,7-6.2,13.1-6.2,13.6c0,0.4,0.5,0.8,1.2,0.8c2.4,0,35.2-9.2,52.7-14.8c22.8-7.3,27.5-8.2,52.6-10
		c36.5-2.5,53.2-5.5,66.1-11.6c7.5-3.5,10.9-6.8,19.6-18.4c14.2-19.1,17.2-34.8,9.6-50.9C1677.8,1977.3,1663.9,1971.7,1637.9,1973.9
		z"/>
	<path id="structure8_label5_STLV" bar:growlevel="0" bar:type="" class="st78" d="M1446.6,1752.7c-26.9,4.6-67.5,13.9-67.5,15.4
		c0,0.5,0.6,1.6,1.4,2.5c2,2.3,3.8,9,3,11.6c-1.3,4.3-0.9,4.9,4.3,7.6c2.9,1.4,7,4,9.3,5.9c8.5,6.9,16.3,10,25.9,10
		c9.4,0,14-4.1,19.9-17.6c3.8-8.6,10.9-31.1,10.9-34.5C1453.8,1751.4,1453.8,1751.4,1446.6,1752.7z"/>
	<path id="structure96_label101_cg" bar:growlevel="0" bar:type="" class="st79" d="M1405.7,948.5c-22.9,3.5-37.7,10.4-49.7,23.1
		c-10.9,11.7-18.5,25.9-27.6,51.5c-9.9,27.8-19.3,44.3-35.5,62.3c-5,5.6-9.1,10.5-9.1,11.1c0,2.1,3.4,0.5,11.2-5.1
		c24.2-17.6,40.4-34.8,59.4-62.8c14.1-21,29.2-33.2,56.8-46.4c25.6-12.3,57.3-19.7,84.1-19.7c11.3,0,12.2-1.5,2.5-4
		c-29.2-7-47.4-9.6-70.5-10C1416.9,948.2,1407.2,948.3,1405.7,948.5z"/>
	<path class="st73" d="M2041.2,1526.6c-3.8-35.6-13-76.8-30.1-135c-37.8-128.3-93-211.4-193.6-292c-26.1-20.9-43.6-32.8-72.4-49.9
		c-62.5-36.6-143.8-68.5-212.4-83.2c-13.2-2.9-14-3-36.5-3c-24.4,0-29.6,0.6-48.7,5.4c-26.4,6.7-51.8,19-70.7,34.1
		c-8.8,7.1-13.9,13-23.2,26.6c-21.4,31.4-39.5,49-75.2,73.2c-19.4,13.1-24.4,15.8-38.6,20.4c-24.4,8.2-59.4,12.3-94.4,12.3v67.3
		c21.2-0.3,50.8-5.8,85.9-16.2c24.6-7.2,37.7-12.2,56.6-21.4c19.4-9.5,32.9-18.2,68-43.8c37.7-27.5,56.7-40.1,74.9-49.1
		c19.3-9.7,23.9-10.5,67.8-12c15.8-0.5,36.3-1.4,45.5-1.8c53.8-2.4,109.2,7.4,163.3,29c64.1,25.6,131.9,73.4,176.8,124.6
		c59.7,68,101.5,157.2,128.7,274.4c11.3,49,14.8,68.4,15.8,90.4c1.1,20.6-2.1,51-7.7,74.4c-2.1,8.9-2.3,11.1-0.6,11.1
		c2.1,0,12.3-30.1,16.3-48.1c4.2-18.8,5.2-27.9,5.7-51.3C2042.5,1546,2042.3,1537.2,2041.2,1526.6z"/>
	<path id="structure98_label103_acp" bar:growlevel="0" bar:type="" class="st80" d="M1493.7,1737.2c-2.4,1-2.7,4-0.8,6.8
		c2.2,3.1,13.7,10.4,26.2,16.9c21,10.7,41.9,27.4,77,61.4l13,12.6l11.7,4.9c18.5,7.6,32,12.3,50.3,17.6c9.5,2.7,28.1,8.4,41.4,12.6
		c37.3,11.8,50.2,14.9,66.9,16.2c8.1,0.6,8.3,0.6,8.3-1.3c0-2.3-1.2-2.9-33.3-16.3c-11.6-4.9-33.1-14.4-47.7-21.2
		c-14.6-6.8-32.9-15.1-40.7-18.5c-17.4-7.6-26-11.9-37.8-18.9c-12.5-7.4-15.1-9.7-21.1-18.2c-11.6-16.7-13.8-18.9-26.1-25.8
		c-26.1-14.8-47.3-24.2-62.6-27.9C1510.6,1736.2,1497.3,1735.8,1493.7,1737.2z"/>
	<path id="structure99_label104_lo" bar:growlevel="0" bar:type="" class="st81" d="M2014.5,2105c-12.3,5-38.1,14.3-52.6,18.8
		c-24.7,7.6-25.2,7.7-72.9,8.5c-33.1,0.5-44,1-50.4,2.2c-21.2,3.9-35.2,10.9-33.3,16.7c1.6,5.1,11.9,8.7,30.3,10.7
		c51.6,5.7,114.3-12.4,180.1-51.8c8.9-5.4,11.9-8.5,8.1-8.4C2022.9,2101.8,2018.8,2103.3,2014.5,2105z"/>
	<path id="structure9_label6_Fu" bar:growlevel="0" bar:type="" class="st82" d="M1359.3,1764.9c-8.5,1.4-21.6,7.8-21.6,10.5
		c0,0.7,1.9,3.9,4.3,7c2.3,3.2,5.5,8,6.9,10.8c3.1,5.8,2.3,5.8,14.9,2.8c12.1-2.9,19.8-8.9,19.8-15.4c-0.1-4.5-2.8-10.3-6-12.6
		C1373.3,1764.9,1366.1,1763.7,1359.3,1764.9z"/>
	<text id="label30" bar:growlevel="0" transform="matrix(1 0 0 1 1783.2959 2128.7402)" class="st83 st84 st85">CxA-1</text>
	<text id="label31" bar:growlevel="0" transform="matrix(1 0 0 1 1815.7275 2086.9746)" class="st83 st84 st85">CxA-2</text>
	<text id="label32" bar:growlevel="0" transform="matrix(1 0 0 1 1814.6758 2049.3496)" class="st83 st84 st85">CxA-3</text>
	<text id="label33" bar:growlevel="0" transform="matrix(1 0 0 1 1957.2051 1869.6484)" class="st83 st84 st85">DEn</text>
	<text id="label34" bar:growlevel="0" transform="matrix(1 0 0 1 2097.6064 2011.9023)" class="st83 st84 st85">Pir-1</text>
	<text id="label35" bar:growlevel="0" transform="matrix(1 0 0 1 2103.3379 1973.6133)" class="st83 st84 st85">Pir-2</text>
	<text id="label36" bar:growlevel="0" transform="matrix(1 0 0 1 2086.2959 1946.9707)" class="st83 st84 st85">Pir-3</text>
	<text id="label37" bar:growlevel="0" transform="matrix(1 0 0 1 2013.666 1749.5039)" class="st83 st84 st85">VCl</text>
	<text id="label38" bar:growlevel="0" transform="matrix(1 0 0 1 2150.2559 1766.1895)" class="st83 st84 st85">AIP</text>
	<text id="label39" bar:growlevel="0" transform="matrix(1 0 0 1 2047.6855 1651.5391)" class="st83 st84 st85">DCl</text>
	<text id="label142" bar:growlevel="0" transform="matrix(1 0 0 1 1156.5059 2103.6895)" class="st83 st84 st85">och</text>
	<text id="label146" bar:growlevel="0" transform="matrix(1 0 0 1 1159.3633 1697.7461)" class="st83 st84 st85">ac</text>
	<text id="label145" bar:growlevel="0" transform="matrix(1 0 0 1 1239.3965 1331.2617)" class="st83 st84 st85">fi</text>
	<text id="label144" bar:growlevel="0" transform="matrix(1 0 0 1 1203.4551 1603.3184)" class="st83 st84 st85">f</text>
	<text id="label8" bar:growlevel="0" transform="matrix(1 0 0 1 1243.8672 1815.3379)" class="st83 st84 st85">StA</text>
	<text id="label9" bar:growlevel="0" transform="matrix(1 0 0 1 1183.3281 1792.3535)" class="st83 st84 st85">SHy</text>
	<text id="label0" bar:growlevel="0" transform="matrix(1 0 0 1 1544.3174 1901.0332)" class="st83 st84 st85">VP</text>
	<text id="label1" bar:growlevel="0" transform="matrix(1 0 0 1 1463.6172 1956.3926)" class="st83 st84 st85">SIB</text>
	<text id="label2" bar:growlevel="0" transform="matrix(1 0 0 1 1380.3965 1883.2383)" class="st83 st84 st85">LPO</text>
	<text id="label3" bar:growlevel="0" transform="matrix(1 0 0 1 1401.0674 2042.0566)" class="st83 st84 st85">HDB</text>
	<text id="label4" bar:growlevel="0" transform="matrix(1 0 0 1 1545.1855 2035.7871)" class="st83 st84 st85">MCPO</text>
	<text id="label5" bar:growlevel="0" transform="matrix(1 0 0 1 1404.0977 1787.1035)" class="st83 st84 st85">STLV</text>
	<text id="label6" bar:growlevel="0" transform="matrix(1 0 0 1 1359.3379 1787.1035)" class="st83 st84 st85">Fu</text>
	<text id="label7" bar:growlevel="0" transform="matrix(1 0 0 1 1299.9971 1799.6758)" class="st83 st84 st85">PS</text>
	<text id="label19" bar:growlevel="0" transform="matrix(1 0 0 1 1300.8086 1517.5352)" class="st83 st84 st85">LSV</text>
	<text id="label13" bar:growlevel="0" transform="matrix(1 0 0 1 1270.0879 2069.2422)" class="st83 st84 st85">VLPO</text>
	<text id="label10" bar:growlevel="0" transform="matrix(1 0 0 1 1285.0264 1911.2051)" class="st83 st84 st85">MPA</text>
	<text id="label14" bar:growlevel="0" transform="matrix(1 0 0 1 1233.5459 1591.7383)" class="st83 st84 st85">SHy</text>
	<text id="label15" bar:growlevel="0" transform="matrix(1 0 0 1 1516.8086 1698.3164)" class="st83 st84 st85">GP</text>
	<text id="label161" bar:growlevel="0" transform="matrix(1 0 0 1 1348.6553 1648.1777)" class="st83 st84 st85">STMAL</text>
	<text id="label165" bar:growlevel="0" transform="matrix(1 0 0 1 1147.0293 1900.1289)" class="st83 st84 st85">3V</text>
	<text id="label114" bar:growlevel="0" transform="matrix(1 0 0 1 1307.1367 1624.1426)" class="st83 st84 st85">STMAM</text>
	<text id="Unlabeled-1799-909" bar:growlevel="0" transform="matrix(1 0 0 1 1148.4121 1102.998)" class="st83 st84 st85">azp</text>
	<text id="label107" bar:growlevel="0" transform="matrix(1 0 0 1 1152.3428 1578.625)" class="st83 st84 st85">MnPO</text>
	<text id="label104" bar:growlevel="0" transform="matrix(1 0 0 1 1856.5586 2153.8574)" class="st83 st84 st85">lo</text>
	<text id="label103" bar:growlevel="0" transform="matrix(1 0 0 1 1571.916 1788.1523)" class="st83 st84 st85">acp</text>
	<text id="label102" bar:growlevel="0" transform="matrix(1 0 0 1 1889.5586 1194.6777)" class="st83 st84 st85">ec</text>
	<text id="label101" bar:growlevel="0" transform="matrix(1 0 0 1 1382.9775 978.4316)" class="st83 st84 st85">cg</text>
	<text id="label109" bar:growlevel="0" transform="matrix(1 0 0 1 1494.0977 1078.0469)" class="st83 st84 st85">E</text>
	<text id="label108" bar:growlevel="0" transform="matrix(1 0 0 1 1454.4053 1671.1621)" class="st83 st84 st85">STLJ</text>
	<text id="label75" bar:growlevel="0" transform="matrix(1 0 0 1 1474.3867 1542.7676)" class="st83 st84 st85">ic</text>
	<text id="Unlabeled-2849-813-7" bar:growlevel="0" transform="matrix(1 0 0 1 1955.4004 938.4414)" class="st83 st84 st85">S1DZ</text>
	<text id="label48" bar:growlevel="0" transform="matrix(1 0 0 1 1218.9648 870.4688)" class="st83 st84 st85">Cg1</text>
	<text id="label134" bar:growlevel="0" transform="matrix(1 0 0 1 1674.8477 2160.1289)" class="st83 st84 st85">mcer</text>
	<text id="label41" bar:growlevel="0" transform="matrix(1 0 0 1 2177.916 1603.2012)" class="st83 st84 st85">GI</text>
	<text id="label40" bar:growlevel="0" transform="matrix(1 0 0 1 2173.0264 1672.873)" class="st83 st84 st85">DI</text>
	<text id="label43" bar:growlevel="0" transform="matrix(1 0 0 1 2053.416 1145.5605)" class="st83 st84 st85">S1ULp</text>
	<text id="label42" bar:growlevel="0" transform="matrix(1 0 0 1 2179.0264 1455.873)" class="st83 st84 st85">S2</text>
	<text id="label45" bar:growlevel="0" transform="matrix(1 0 0 1 1579.8086 804.8203)" class="st83 st84 st85">S1HL</text>
	<text id="label44" bar:growlevel="0" transform="matrix(1 0 0 1 1784.4971 872.5723)" class="st83 st84 st85">S1FL</text>
	<text id="label47" bar:growlevel="0" transform="matrix(1 0 0 1 1319.8281 787.9277)" class="st83 st84 st85">M2</text>
	<text id="label46" bar:growlevel="0" transform="matrix(1 0 0 1 1447.627 788.2559)" class="st83 st84 st85">M1</text>
	<text id="label67" bar:growlevel="0" transform="matrix(1 0 0 1 1167.1709 2027.3418)" class="st83 st84 st85">VMPO</text>
	<text id="label116" bar:growlevel="0" transform="matrix(1 0 0 1 1147.8379 1752.6563)" class="st83 st84 st85">MnPO</text>
	<text id="label117" bar:growlevel="0" transform="matrix(1 0 0 1 1150.6973 1610.3359)" class="st83 st84 st85">LTer</text>
	<text id="label110" bar:growlevel="0" transform="matrix(1 0 0 1 1701.8799 1936.0645)" class="st83 st84 st85">IPACM</text>
	<text id="label111" bar:growlevel="0" transform="matrix(1 0 0 1 1829.4355 1924.0176)" class="st83 st84 st85">LSS</text>
	<text id="label52" bar:growlevel="0" transform="matrix(1 0 0 1 1239.666 1226.0625)" class="st83 st84 st85">LSD</text>
	<text id="label112" bar:growlevel="0" transform="matrix(1 0 0 1 1440.8477 1565.6348)" class="st83 st84 st85">STLD</text>
	<text id="label50" bar:growlevel="0" transform="matrix(1 0 0 1 1376.7666 1204.1309)" class="st83 st84 st85">LV</text>
	<text id="label113" bar:growlevel="0" transform="matrix(1 0 0 1 1294.9258 1750.5566)" class="st83 st84 st85">STMV</text>
	<text id="label125" bar:growlevel="0" transform="matrix(1 0 0 1 1174.9111 1130.2305)" class="st83 st84 st85">IG</text>
	<text id="label124" bar:growlevel="0" transform="matrix(1 0 0 1 1155.0273 1218)" class="st83 st84 st85">SHi</text>
	<text id="label127" bar:growlevel="0" transform="matrix(1 0 0 1 1179.0176 1983.7266)" class="st83 st84 st85">MPOM</text>
	<text id="label126" bar:growlevel="0" transform="matrix(1 0 0 1 1399.0586 1520.7168)" class="st83 st84 st85">STD</text>
	<text id="label120" bar:growlevel="0" transform="matrix(1 0 0 1 1339.5059 2089.0762)" class="st83 st84 st85">SO</text>
	<text id="label123" bar:growlevel="0" transform="matrix(1 0 0 1 1173.9648 1525.5469)" class="st83 st84 st85">SFi</text>
	<text id="label122" bar:growlevel="0" transform="matrix(1 0 0 1 1241.3174 1944.9004)" class="st83 st84 st85">MPOL</text>
	<text id="label128" bar:growlevel="0" transform="matrix(1 0 0 1 1155.3311 1867.6055)" class="st83 st84 st85">Pe</text>
	<text id="label23" bar:growlevel="0" transform="matrix(1 0 0 1 1320.3672 1370.2383)" class="st83 st84 st85">LSI</text>
	<text id="label22" bar:growlevel="0" transform="matrix(1 0 0 1 1188.1855 1412.0078)" class="st83 st84 st85">TS</text>
	<text id="label20" bar:growlevel="0" transform="matrix(1 0 0 1 1152.8623 1628.7578)" class="st83 st84 st85">CST</text>
	<text id="label27" bar:growlevel="0" transform="matrix(1 0 0 1 1824.6943 1963.6523)" class="st83 st84 st85">IEn</text>
	<text id="label26" bar:growlevel="0" transform="matrix(1 0 0 1 1725.0977 1911.4141)" class="st83 st84 st85">IPACL</text>
	<text id="label25" bar:growlevel="0" transform="matrix(1 0 0 1 1722.3672 1466.3438)" class="st83 st84 st85">CPu</text>
	<text id="label29" bar:growlevel="0" transform="matrix(1 0 0 1 1610.5879 2131.8633)" class="st83 st84 st85">Tu</text>
	<text id="label28" bar:growlevel="0" transform="matrix(1 0 0 1 1708.6553 2046.1973)" class="st83 st84 st85">AA</text>
	<text id="label49" bar:growlevel="0" transform="matrix(1 0 0 1 1191.4258 1027.5469)" class="st83 st84 st85">Cg2</text>
	<text id="label153" bar:growlevel="0" transform="matrix(1 0 0 1 1164.0361 1180.5156)" class="st83 st84 st85">cc</text>
	<text id="label155" bar:growlevel="0" transform="matrix(1 0 0 1 1370.3057 1721.1973)" class="st83 st84 st85">STIL</text>
	<text id="label156" bar:growlevel="0" transform="matrix(1 0 0 1 1421.377 1744.8926)" class="st83 st84 st85">STLP</text>
	<text id="label157" bar:growlevel="0" transform="matrix(1 0 0 1 1591.5361 2055.709)" class="st83 st84 st85">mfba</text>
	<text id="label158" bar:growlevel="0" transform="matrix(1 0 0 1 1424.9443 2061.709)" class="st83 st84 st85">mfbb</text>
	<text id="label163" bar:growlevel="0" transform="matrix(1 0 0 1 1310.0166 2107.8867)" class="st83 st84 st85">acer</text>
</g>
</svg>
