<?xml version="1.0" encoding="utf-8"?>
<!-- Generator: Adobe Illustrator 24.1.1, SVG Export Plug-In . SVG Version: 6.00 Build 0)  -->
<svg version="1.1"
	 id="body" inkscape:version="0.48.1 r9760" sodipodi:docname="97_pretrace_v1.svg" xmlns:bar="http://www.3dbar.org" xmlns:cc="http://creativecommons.org/ns#" xmlns:dc="http://purl.org/dc/elements/1.1/" xmlns:inkscape="http://www.inkscape.org/namespaces/inkscape" xmlns:rdf="http://www.w3.org/1999/02/22-rdf-syntax-ns#" xmlns:sodipodi="http://sodipodi.sourceforge.net/DTD/sodipodi-0.dtd" xmlns:svg="http://www.w3.org/2000/svg"
	 xmlns="http://www.w3.org/2000/svg" xmlns:xlink="http://www.w3.org/1999/xlink" x="0px" y="0px" viewBox="0 0 3024 3024"
	 style="enable-background:new 0 0 3024 3024;" xml:space="preserve">
<style type="text/css">
	.st0{fill:#FF000C;}
	.st1{fill:#905FD8;}
	.st2{fill:#9653F6;}
	.st3{fill:#6B2FC3;}
	.st4{fill:#54FF00;}
	.st5{fill:#FFB559;}
	.st6{fill:#DFC06B;}
	.st7{fill:#FFB200;}
	.st8{fill:#C19AF6;}
	.st9{fill:#FFE7B2;}
	.st10{fill:#3FFF00;}
	.st11{fill:#B18EE1;}
	.st12{fill:#97FF59;}
	.st13{fill:#A500FF;}
	.st14{fill:#B2FF00;}
	.st15{fill:#EEFF76;}
	.st16{fill:#8CFF59;}
	.st17{fill:#FFE8B2;}
	.st18{fill:#DFFF00;}
	.st19{fill:#F5FFB2;}
	.st20{fill:#DEFF00;}
	.st21{fill:#FFC423;}
	.st22{fill:#D4B76B;}
	.st23{fill:#FF4C00;}
	.st24{fill:#8D6BDC;}
	.st25{fill:#835FBF;}
	.st26{fill:#C6D400;}
	.st27{fill:#DF8800;}
	.st28{fill:#FF5E00;}
	.st29{fill:#E547D8;}
	.st30{fill:#9876E1;}
	.st31{fill:#FFA259;}
	.st32{fill:#BCFFB2;}
	.st33{fill:#FF9A00;}
	.st34{fill:#FFD76B;}
	.st35{fill:#FFBA2C;}
	.st36{fill:#872FFA;}
	.st37{fill:#925FDC;}
	.st38{fill:#CDE900;}
	.st39{fill:#F4B200;}
	.st40{fill:#540BCB;}
	.st41{fill:#E7FF3B;}
	.st42{fill:#610BE5;}
	.st43{fill:#AB4E52;}
	.st44{fill:#CCFFB2;}
	.st45{fill:#C1A6FA;}
	.st46{fill:#FFD5B2;}
	.st47{fill:#E96600;}
	.st48{fill:#FF3800;}
	.st49{fill:#FF6F00;}
	.st50{fill:#B58EE9;}
	.st51{fill:#FFCAB2;}
	.st52{fill:#FF4F00;}
	.st53{fill:#FFB2DC;}
	.st54{fill:#FFAA59;}
	.st55{fill:#F8FFB2;}
	.st56{fill:#E9FF59;}
	.st57{fill:#FFB2BA;}
	.st58{fill:#FFC8B2;}
	.st59{fill:#FF4900;}
	.st60{fill:#E6FFB2;}
	.st61{fill:#FFC3B2;}
	.st62{fill:#FF7B59;}
	.st63{fill:#FF8159;}
	.st64{fill:#FFAB00;}
	.st65{fill:#9576D0;}
	.st66{fill:#E96A00;}
	.st67{fill:#E99B59;}
	.st68{fill:#8F6BD0;}
	.st69{fill:#FFB2EE;}
	.st70{fill:#B29AE1;}
	.st71{fill:#FF8C59;}
	.st72{fill:#FF4600;}
	.st73{fill:#FF3600;}
	.st74{fill:#E0E959;}
	.st75{fill:#6B47C7;}
	.st76{fill:#FF3C00;}
	.st77{fill:#FFC4B2;}
	.st78{fill:#FFC6B2;}
	.st79{fill:#F3FF59;}
	.st80{fill:#D8E900;}
	.st81{fill:#510BD8;}
	.st82{fill:#D8DF00;}
	.st83{fill:#FFF8B2;}
	.st84{fill:#FFEC00;}
	.st85{fill:#C99300;}
	.st86{fill:#D4A523;}
	.st87{fill:#C4C923;}
	.st88{fill:#C3C900;}
	.st89{fill:#E6E98E;}
	.st90{fill:#FDFF76;}
	.st91{fill:#FF005D;}
	.st92{fill:#FF7F00;}
	.st93{fill:#FEFF00;}
	.st94{fill:#FEFF3B;}
	.st95{fill:#E8E976;}
	.st96{fill:#FBFF8E;}
	.st97{fill:#E2E923;}
	.st98{fill:#EEF447;}
	.st99{fill:#FFFEB2;}
	.st100{fill:#F4FFB2;}
	.st101{fill:#FF9E00;}
	.st102{fill:#FFCEB2;}
	.st103{fill:#FFE1B2;}
	.st104{fill:#DFB259;}
	.st105{fill:#FFC359;}
	.st106{fill:#D4C18E;}
	.st107{fill:#DFA300;}
	.st108{fill:#F4C2C2;}
	.st109{fill:#FF59B8;}
	.st110{fill:#FFE3B2;}
	.st111{fill:#FFBD59;}
	.st112{fill:#E99859;}
	.st113{fill:#69FF00;}
	.st114{fill:#C9FFB2;}
	.st115{fill:#6417F2;}
	.st116{fill:#7D53E5;}
	.st117{fill:#232323;enable-background:new    ;}
	.st118{font-family:'TimesNewRomanPSMT';}
	.st119{font-size:27px;}
	.st120{fill:#FF0000;enable-background:new    ;}
	.st121{font-size:12px;}
</style>
<sodipodi:namedview  bordercolor="#666666" borderopacity="1" gridtolerance="10" guidetolerance="10" id="namedview506" inkscape:current-layer="content" inkscape:cx="667.37609" inkscape:cy="448.51628" inkscape:object-paths="true" inkscape:pageopacity="0" inkscape:pageshadow="2" inkscape:window-height="973" inkscape:window-maximized="1" inkscape:window-width="1653" inkscape:window-x="0" inkscape:window-y="0" inkscape:zoom="3.7498588" objecttolerance="10" pagecolor="#ffffff" showgrid="false">
	</sodipodi:namedview>
<desc  id="desc5">This was produced by version 4.2 of GNU libplot, a free library for exporting 2-D vector graphics.</desc>
<defs>
	<bar:data  content="-2.52" name="coronalcoord"></bar:data>
	
		<bar:data  content="{&apos;ReferenceHeight&apos;: 900, &apos;ReferenceWidth&apos;: 1200, &apos;imageSize&apos;: (1200, 900)}" name="rendererConf">
		</bar:data>
	
		<bar:data  content="{&apos;DumpEachStepSVG&apos;: False, &apos;DumpEachStepPNG&apos;: False, &apos;GrowDefaultBoundaryColor&apos;: 200, &apos;CacheLevel&apos;: 5, &apos;NewPathIdTemplate&apos;: &apos;structure%d_%s_%s&apos;, &apos;PoTraceConf&apos;: {&apos;potrace_accuracy_parameter&apos;: &apos;0.001&apos;, &apos;potrace_width_string&apos;: &apos;1200pt&apos;, &apos;potrace_svg_resolution_string&apos;: &apos;300x300&apos;, &apos;potrace_height_string&apos;: &apos;900pt&apos;}, &apos;DetectUnlabelled&apos;: True, &apos;DumpVBrain&apos;: False, &apos;DumpWrongSeed&apos;: True, &apos;DumpDirectory&apos;: &apos;.&apos;, &apos;MinFiterTimesApplication&apos;: 3, &apos;RegionAlreadyTraced&apos;: 100, &apos;UnlabelledTreshold&apos;: 500}" name="tracingConf">
		</bar:data>
	<bar:data  content="0.0176211454,-9.5150660793,0.0176211454,-1.5355884426" name="transformationmatrix"></bar:data>
</defs>
<g id="content">
	<path class="st0" d="M2417.8,1395.1c-5.2-59.2-17.5-126.7-33.7-185.8c-5.3-19.7-9.1-30.9-16.2-48.6
		c-45.6-113-141.4-258.6-231.1-350.9c-75.7-77.9-196.2-151.7-328.1-200.8c-74.9-27.9-142.7-44.5-213.8-52.6
		c-163.9-18.5-307.4-7.8-382.9,28.7c-32.6,15.8-62,42.9-79.6,73.6c-5.9,10.3-13.1,28.6-15.9,40.5c-1.3,5.8-2.5,11.1-2.7,11.6
		c-0.2,0.6-0.7,1.1-1.3,1.1v515.3c0.8,0.7,1.7,2.6,2.7,5.9c2.7,8.4,7.8,16.1,13.4,20.3c2.5,1.9,4.6,4,4.6,4.5
		c0,1.5-8.3,4.9-14.7,5.8c-2,0.3-4,0.5-6.1,0.5v980.3c7.1,0.1,13.3-1.2,40.5-7.4c7.7-1.8,18.5-3.8,24-4.6c5.6-0.7,11.6-1.9,13.5-2.7
		c5.1-2.2,9.2-6.6,9.9-10.6c0.6-4.1,0.6-4.1,12.2,0.7c16.6,6.8,37.4,10.4,51.9,8.6c27.4-3.4,76.5-19.7,111.1-37.1
		c14-6.9,34.1-21,68.2-47.5c3.3-2.5,6.6-4.5,7.1-4.3c0.5,0.2,1.5,1.7,2.1,3.4c3.1,9.4,19.3,9.7,23.6,0.6c1.3-2.9,1.3-3.3-0.1-6.3
		c-1.6-3.4-7.3-6.9-11.1-6.9c-3.7,0-2-2.3,7.6-9.9c10.7-8.6,17.1-15.4,20.3-21.3l2.1-4.1l5.4,0.5c3,0.3,17.5,0.8,32.2,1.1
		c25,0.6,26.7,0.7,26.7,2.3c0,3.2,3.9,11.8,8.1,18.2c8.2,12.2,28.4,29.8,50.9,44.3c30.5,19.6,92.3,50.2,125.5,62.1
		c30.8,11.1,62.4,16.7,107.6,19.4c22.9,1.3,34,1.1,49.7-1c15.8-2.2,32.6-2.4,47-0.9c13,1.4,29.3,1.3,40.5-0.4
		c33.8-4.9,80.4-19.3,125.6-38.8c35.6-15.4,57.6-30.1,80.1-53.5c12.3-12.9,19.6-22.1,31.5-40c24.8-37.6,50-89.8,83.3-172.3
		c31.6-78.8,55.3-147.4,63.4-183.6c8.5-38.5,8.6-55.5,0.4-80.4c-6.2-18.5-7.3-27.4-4.9-38.6c1.7-7.7,4.9-14.3,11-22.7
		c9.3-12.7,15.8-29.7,23.7-61.7c4.7-19,10.3-47.3,13.8-70.2c1.7-11.4,2-16.7,2-41.8C2418.9,1420.6,2418.4,1402.5,2417.8,1395.1z"/>
	<path id="structure103_label109_mt" bar:growlevel="0" bar:type="" class="st1" d="M1303.7,1708.4c-4.5,1.3-9.8,7-13,13.8
		c-3.9,8.2-4.4,18-1.9,30.4c4.7,22.6,14,31.1,30.1,27.4c11.4-2.7,18.9-8.1,21.3-15.5c1.6-4.9,0.6-21.5-1.8-30.1
		c-3.6-12.7-9.9-21.5-17.8-24.9C1316.8,1707.8,1307.4,1707.2,1303.7,1708.4z"/>
	<path id="structure106_label112_opt" bar:growlevel="0" bar:type="" class="st2" d="M1661.8,1883.8c-3.9,1.6-12.4,7.9-21,15.6
		c-16.8,14.9-50.8,55.3-67.5,80.2c-11.9,17.6-14.9,24.8-26,60.6c-6.1,19.8-6.2,20.1-11.3,26c-5.2,6.1-15.5,21.2-17.6,25.8
		c-0.6,1.3-0.8,2.7-0.5,3c0.4,0.4,10,0.8,21.5,1.1l21.1,0.4l6.8-10.3c13-19.4,25.8-41.6,69.7-119.6c31.1-55.4,36.5-66.2,37.2-74.6
		c0.4-5.7,0.3-6.2-1.7-7.7C1670.1,1882.8,1665.1,1882.5,1661.8,1883.8z"/>
	<path id="structure107_label113_ns" bar:growlevel="0" bar:type="" class="st3" d="M1762.5,1794.4c-18.3,15.6-26.5,21.4-39,27.7
		c-11.4,5.8-18.6,8.7-28.8,11.3c-7.4,1.9-7.5,2-17.8,11.6c-32.3,30.2-75.1,64-87.6,69.1c-7.4,3.1-21.7,3.8-30.4,1.6
		c-3.5-0.9-5.8-1.2-6-0.6c-0.2,0.5-1.8,3.2-3.7,6.1c-8.9,13.9-31,27.7-47,29.6c-13,1.5-21-5.7-21.1-19c0-5.4,0.5-7.3,3.1-12.5
		c3.8-7.7,13.7-17.9,24.7-25.3c4.3-2.9,7.8-5.6,7.8-5.8c0-0.4-1.6-3.4-3.6-6.8c-14.4-25.1-14-61.3,0.9-86.1c3.9-6.5,4.3-7.8,2.3-7.8
		c-2.9,0-96,47-111.6,56.3c-16.3,9.8-29.4,16.5-39.9,20.3c-3.1,1.2-5.6,2.5-5.4,3.1c0.2,0.5,4.8,5.1,10.2,10.1
		c16.6,15.2,34,35.4,44.7,51.7c10,15.2,13.6,27.6,13.6,47.3c0.1,13.3-1.2,19.6-6,29.7c-4,8.2-8.2,13-14.8,16.5
		c-7.8,4.2-14.5,5.6-26,5.7c-16.1,0-32.6-3.2-53.5-10.5c-22.9-8-41.5-20.9-55.8-38.9c-5.9-7.4-12.8-20.5-14.8-28.5
		c-4.4-17.4,3.5-45.9,17.5-63.2c2.4-3.1,4.5-6.1,4.5-6.8c0-0.8-1.4-1.4-4-1.8c-5.8-0.8-13.6-4-18.1-7.5c-5-3.8-6.8-3.9-8.8-0.5
		c-5.9,10-28,28.4-43,35.8c-4.9,2.3-8.8,4.8-8.9,5.4c0,0.5,2.6,3.1,5.8,5.6c9.3,7.4,14,16.2,12.7,23.4c-2,10.9-16.8,21.6-41.6,30.2
		c-17.7,6.1-28.2,10.5-28.2,12c0,1,0.6,1.3,2.5,0.9c1.3-0.3,5.7-1.1,9.6-1.9c14.5-2.8,41.5-1.3,58.2,3.2
		c10.7,2.9,27.2,9.7,37.9,15.8c11.9,6.8,33.8,21.4,41,27.6c19.6,16.7,36.2,46.9,40.2,73.7c1.6,10.7,1.3,26.3-0.9,36.4
		c-1.4,6.8-5.5,18.3-6.8,19.6c-1.1,1.1-1.2,4.1-0.1,4.1c0.4,0,4.6-1.8,9.4-4.1c11.9-5.7,20.6-7.8,31.7-7.9c7.9-0.1,9.5,0.2,13.5,2.2
		c3.8,1.8,5,3.1,7.1,7.5c2.8,5.6,3.6,12.3,2.1,18.3c-0.6,2.5-0.5,3,0.7,3c1.7,0,10.9-6.2,26.6-18.1l10.4-7.8l1-7.6
		c0.6-4.4,2.1-9.5,3.5-12.4c6.8-14.1,27.5-25.2,44.6-24l6,0.4l3.7-4.6c5.5-6.8,7.7-11.2,8.9-17.2c3.5-17.6,18.7-54.5,31.9-77.3
		c6.4-11.1,5.8-11.8-4.5-5c-7.6,4.9-15,7.6-18.7,6.7c-2.7-0.6-6.6-5-7.4-8.2c-2-7.7,5-24.2,14-33.1c13-12.9,28.8-18.4,33.7-11.9
		c1.6,2.3,1.9,3.9,1.9,12c0,5.9,0.4,9.4,0.9,9.4c0.5,0,3.5-3.2,6.8-7c8-9.6,56.3-57.7,66.5-66.2c10-8.3,20.9-15.5,32.3-21.4
		c10.1-5.2,15.8-5.8,19.5-2.1c3,2.9,2.9,5.9-0.5,14.9c-3.4,9.4-7.6,17.4-39.6,74.2c-40.9,72.7-53.7,94.7-66,112.8
		c-5.9,8.7-6.2,9.4-5.7,13.1c2.4,16,22.1,36.8,55.4,58.7c43.2,28.4,118.2,63.2,154.6,72c3.6,0.8,6.7,1.4,6.8,1.3
		c0.5-0.7,5-23.8,5-26.1c0-2-0.5-2.4-4.7-3.5c-25.7-6.5-104.4-36-127.6-47.7c-23.7-12.1-47.9-28.7-52.4-36.1
		c-3.7-5.9-5.5-15.7-4.9-26c0.7-11.2,3.2-20.3,8.5-29.7c27.7-50.5,35.8-67.2,48.7-100.1c21.9-56,28.4-68.8,41.8-81.4
		c7.6-7.3,14.5-10.9,23.1-12.2c14.8-2.3,22.5,5.4,22.5,22.4c0,4.9,0.3,6.6,1.2,6.6c0.8,0,1.7-3.2,2.8-10.4
		c1.5-10.6,4.3-22.1,8.1-34.5c1.3-3.8,2.9-10.5,3.8-14.9c3.1-16.2,11.1-34.5,20.6-47.1c4.9-6.6,6-9.2,3.8-9.2
		C1777.6,1782.1,1770.5,1787.7,1762.5,1794.4z"/>
	<path id="structure108_label114_f" bar:growlevel="0" bar:type="" class="st4" d="M1357.6,1955c-13,6.5-11.8,29.9,2.6,49
		c6.3,8.6,14.9,10.5,24.4,5.7c9.2-4.7,12.4-9.3,12.4-17.8c0-15.7-8-31-19.2-36.5C1371.8,1952.4,1363.2,1952.2,1357.6,1955z"/>
	<path id="structure10_label9_ZIR" bar:growlevel="0" bar:type="" class="st5" d="M1589.6,1717.8c-9.3,2.3-19.8,2.5-29.4,0.8l-9-1.5
		l-13.4,6.3c-74.2,34.8-178.8,65.7-276.8,81.7c-17.7,2.9-19.6,4.3-6.8,5.1c4.5,0.3,16.4,1.2,26.3,1.9c45,3.5,55.1,5.7,58.6,12.3
		c1.3,2.6,1.3,3.1-0.1,6.8c-2.3,5.9-11,14.8-18.4,18.6c-11.7,6.1-32.4,11.9-55.6,15.6c-6.2,0.9-10.2,2-10.2,2.6c0,0.5,1.5,2,3.4,3.2
		c12.9,8.5,35.2,9.8,66.1,3.8c30.5-5.9,51.4-14.2,82.2-32.6c15.5-9.3,45.4-24.7,87.2-44.8l26.1-12.5l15.3-15.4
		c17.2-17.1,28.3-26.3,49.9-40.9c8-5.5,14.6-10.5,14.6-11.3C1599.5,1716.1,1596.3,1716.1,1589.6,1717.8z"/>
	<path id="structure11_label10_VM" bar:growlevel="0" bar:type="" class="st6" d="M1344.8,1635.1c-13.6,1.4-29.7,5.9-29.7,8.3
		c0,0.8,1.4,5.8,3.1,11.1c5.8,18.3,7,25.7,7.1,42.2l0.1,14.9l3.8,4.1c6,6.5,9.1,14,11.5,27.6c2.5,14.2,1.2,22.4-4.6,28.2
		c-7.5,7.5-24.4,12-31,8.3c-6.1-3.5-5.9-0.3,0.4,8.3c3.6,4.7,5.6,6.6,7,6.6c3,0,34.6-7.3,58.4-13.4c61.6-15.8,115.7-34.7,164.8-57.2
		c7.5-3.4,13.2-6.6,13.2-7.3c0-0.6-3-2.6-6.6-4.2c-3.7-1.7-9.6-4.9-13.3-6.9c-3.6-2.2-7.5-4.4-8.5-4.9c-1-0.5-13.3-8.6-27.4-18.1
		c-31.1-20.7-38.2-25-52.5-31.9c-17.8-8.5-31.8-12.3-53.6-14.8C1377,1634.7,1353.1,1634.2,1344.8,1635.1z"/>
	<path id="structure12_label11_SubV" bar:growlevel="0" bar:type="" class="st7" d="M1283.8,1654.7c-32.1,13-62,23.2-74,25.3
		c-14.9,2.5-29.9,0.6-49-6.5c-5.9-2.2-11.2-4-11.5-4c-1.4,0-0.7,11.4,1.2,18c2,7.2,9.8,24.3,15.9,34.8
		c10.8,18.4,26.5,35.6,37.9,41.6c24.2,12.6,53.7,15.2,71.6,6.5c7.3-3.6,14.3-10.3,13.6-13c-0.3-1.1-1.2-5.7-2-10.1
		c-1.2-6.7-1.3-9.2-0.5-14.4c1.9-11.2,7.4-20.3,14.6-23.9c4.2-2.2,11.7-2.3,17.5-0.3c2.8,0.9,4.5,1.1,5,0.5
		c0.6-0.6,0.8-6.5,0.5-16.1c-0.5-13.7-0.8-16.3-3.7-27.3c-4.7-17.7-6.3-22.1-8.4-22.1C1311.9,1643.7,1298.8,1648.6,1283.8,1654.7z"
		/>
	<path id="structure137_label146_sm" bar:growlevel="0" bar:type="" class="st8" d="M1164.8,1270.3c0,2.3,25.1,18.9,36.4,24
		c5.9,2.6,28.7,9.8,42.5,13.3c14.5,3.7,36.5,7.3,44.8,7.3c9.4,0,12.3-1.2,25.2-9.6c14.2-9.5,17.1-12.2,20.6-19.4
		c1.8-3.5,3.2-6.8,3.2-7.3c0-0.5-1.3-0.5-2.9-0.2c-23,4.9-34.3,4.5-75.3-2.7c-15.3-2.6-26-2.9-43.3-0.8c-14.7,1.7-19.2,1.3-35.9-2.7
		C1165.5,1268.7,1164.8,1268.6,1164.8,1270.3z"/>
	<path id="structure13_label12_SubD" bar:growlevel="0" bar:type="" class="st9" d="M1243.4,1594.4c-13.4,2.9-27.9,10.2-51.6,25.9
		c-15.8,10.5-24,17.5-31.6,26.6c-7.6,9.2-10.8,14.8-11.1,19.2c-0.1,2.7,0.2,2.9,8,5.9c15.1,5.8,23.2,7.6,36.5,8.1
		c15.5,0.6,21-0.4,45.5-8.8c18.6-6.4,72-27.3,73.5-28.7c0.5-0.5-0.2-3.2-1.6-6.7c-7.6-18-25.4-35.5-41.7-41.1
		C1261.4,1592,1254.9,1591.9,1243.4,1594.4z"/>
	<path id="structure141_label150_cg" bar:growlevel="0" bar:type="" class="st10" d="M1349.3,843c-1.3,0.2-5.3,0.8-9,1.3
		c-19.4,2.9-37.4,12.2-49.5,25.7c-8.3,9.2-15.8,21.7-30.1,50.2c-13.9,27.5-20.6,39.3-32,55.5c-10.5,14.9-20.5,23.7-45.2,39.2
		c-6.8,4.3-12.3,8.4-12.3,8.9c-0.1,1.6,3.5,1.4,11.8-0.6c20.3-5.2,45.6-20.4,62.7-37.7c12.9-13,21.2-25.2,28.4-41.5
		c15.1-34,28-48.9,53.6-61.6c26.3-13.1,66-20.3,98-17.7c29.2,2.4,62.5,9.9,80.8,18.2c5,2.3,7.3,2.7,20.7,3.5
		c43.3,2.9,90.7,9.2,140,18.5c9.3,1.7,17.6,3.2,18.7,3.2c9.2,0-17.9-11.8-52-22.6c-60.9-19.3-166.6-37.5-243.8-42.2
		C1375.3,842.6,1354.2,842.3,1349.3,843z"/>
	<path id="structure142_label151_st" bar:growlevel="0" bar:type="" class="st11" d="M1804.1,1229.8c-6.6,3.1-24.2,14.4-35.6,22.9
		c-7.4,5.5-11.5,7.8-17.5,10.1c-9.1,3.2-19,5.7-29.7,7.3c-4.6,0.7-7.5,1.5-7.5,2.2c0,1.7,7.6,8.3,11.1,9.8c5.2,2.2,12,3.1,28.8,4.5
		c15.9,1.2,16.1,1.2,18.8,3.9c1.8,1.8,2.8,4,3.2,6.4c0.6,4.5,0.6,4.5,11.9,1.5c9.9-2.7,22-8.4,22.4-10.6c0.2-0.9-0.7-2.8-2-4.3
		c-2.8-3.3-2.9-5.3-0.5-10.3c2.1-4.3,11.5-13.7,17-16.7c4.1-2.3,4.4-3.7,2.3-12c-1.6-6.1-6.1-14.5-8.5-15.8
		C1815.3,1227,1808.9,1227.6,1804.1,1229.8z"/>
	<path class="st12" d="M2092.7,1610.8c-4.8-72.3-12.4-118.3-29.3-176.6c-7.4-25.6-37.3-116-45.2-136.7
		c-28.6-74.5-79.7-157.6-148-240.3c-52.9-64.1-87.2-96-135.2-125.8c-14.3-8.9-36.4-20.4-41-21.5c-2-0.5-14.1-2.8-27.2-5.2
		c-53.7-10.2-109.1-17.1-147-18.5c-6.9-0.3-29.8-2.2-50.8-4.2c-53.6-5.2-69.4-5.1-97.3,0.7c-20.2,4.2-38,11.4-49.6,20.2
		c-7.9,5.9-17.5,16.3-27.7,29.9c-12,15.8-17.3,21.7-24.3,26.9c-3.7,2.7-8.3,7.3-11.3,11.3c-14,18.7-31.8,33-55,44.7
		c-10.4,5.2-20.4,8.5-31,10.2c-4.7,0.7-12.1,2.3-16.6,3.5c-13.8,3.8-28.8,5.6-43.7,5.7v40.8c3.1,0.1,5.7,0,7.9-0.2
		c28.2-3.1,63.5-11.1,79.4-17.8c11.5-4.9,55.1-33.6,74.6-49.1c15.6-12.4,24.8-21.6,41.6-41.8c26.9-32.4,40.6-43.7,64.4-53.1
		c10.8-4.3,29-8.6,43.2-10.4c15.5-1.9,52.5-1.4,68.8,0.8c36.5,5.1,77.8,15.5,97.2,24.6c3.7,1.7,11.3,4.2,16.7,5.7
		c32.5,8.5,74.9,32.1,108,60.5c16.2,13.8,54.6,54.6,72.7,77c16.1,20.2,23.3,32.3,28.9,49.1c1.7,5,3.6,9.4,4.2,9.8
		c0.6,0.4,5.2,2.2,10.2,4c70.3,25.6,134,106.7,185.4,236.1c9.6,24.2,20.6,55.2,35.6,100.4c18.4,55.8,21.5,69,25.1,108.4
		c4.1,44.8,4.3,81.6,0.4,115.2c-1.7,14.7-1.7,28-0.2,42.6c0.6,6,1.2,20.5,1.2,32.1c0,21-0.1,21.3-3.8,41.8c-5.5,29.6-6,35.4-6,58.5
		c0,19.4,0.3,22.7,4.2,53.5c4.3,33.1,5.9,53.8,6,75c0,12.1,1.3,17.7,4,17.7c3,0,3.5-3.4,2.9-17.5c-0.9-20-2-34.2-5.5-70.3
		c-5.9-63.1-6.3-82.6-1.8-103.1c6.8-30.7,6.9-31.3,7.1-46.3c0-7.9-0.5-21.5-1.1-30.2c-1.5-19.7-0.6-34.8,4.3-71.5
		C2093.1,1640.5,2093.9,1628.6,2092.7,1610.8z"/>
	<path id="structure144_label153_ic" bar:growlevel="0" bar:type="" class="st13" d="M1833.9,1213.6c-8.3,2.6-12.4,6.4-13.6,12.2
		c-0.5,2.2,0.3,4.5,3.3,10.5c3.9,7.6,4,8,3.9,16c-0.1,8.8-2.6,17.6-7.1,25.3c-5.3,9.2-18.6,17.4-35.2,21.8
		c-17.5,4.6-49.1,3.6-61.2-1.9c-2.6-1.3-6.8-4.1-9.3-6.4c-4.3-4.1-11.9-14.2-14.8-20.1c-2-3.8-5-4-5-0.4c0,3.5,2.4,12.5,4.7,17.1
		c2.7,5.6,8.2,12.2,12.6,15.3c2.2,1.4,10.3,5.5,18.3,9.1c37.9,17.2,58.8,32,66.1,47.1c8.5,17.5,12.9,49.1,11,77.7
		c-1.4,21.6-6.1,44.8-12.1,60.8c-14,37.2-48.7,100.3-71.6,130.1c-11.3,14.8-34.1,32-76.4,57.7c-8.1,4.9-23,15.1-33.3,22.8
		c-10.2,7.6-24.5,17.7-31.7,22.7c-18.4,12.4-30.9,22.7-45.1,36.8c-18.4,18.3-25.9,29.6-31.1,46.3c-2.3,7.7-2.4,9-2.4,25.2
		c0,16,0.2,17.6,2.4,25c8.1,26.5,25.4,43.9,50.2,50.7c8.6,2.3,24.8,2.2,31.6-0.4c8-2.9,28.2-17.5,52.9-38
		c59.8-49.9,105.3-100,143.3-157.9c13.7-20.9,20-31.7,29.3-50.4c11.5-23.1,16.3-35.4,24.5-63c8.5-28.5,19-59.2,40.8-118.4
		c9.2-24.8,13.5-38.1,14.5-43.6c1.4-8,2.4-22.4,4.1-58.5c1-21.3,2.3-29.1,6.9-40.1c10.4-25,11.6-30.8,10-44.1
		c-2.5-21-14.9-46.7-31.8-66.8C1868.4,1217.1,1848.8,1209,1833.9,1213.6z M1690.7,1739.6c8.4,4.8,13.3,15.1,11.8,25.1
		c-1.5,10.2-5.7,18.7-16.4,33.5c-14.7,20.3-21.1,24.2-57.3,35.6c-26.4,8.3-46.3,13.1-56.9,13.7c-8.8,0.5-9.2,0.5-11.3-1.7
		c-6.4-6.4-5.1-25,2.6-40.5c6.8-13.4,21.4-29.4,35.8-38.9c12.6-8.4,37.8-20.2,54.8-25.7C1669.7,1735.5,1682.7,1735.1,1690.7,1739.6z
		"/>
	<path id="structure146_label156_IG" bar:growlevel="0" bar:type="" class="st14" d="M1132.3,1025.5c-3.2,2.3-6.2,5.9-6.2,7.7
		c0,1.1,2.9,0.8,17.4-1.5c7.1-1.2,8.7-1.7,8.7-3c0-2.2-7.7-5.4-12.8-5.4C1136.8,1023.4,1134.5,1024.1,1132.3,1025.5z"/>
	<path id="structure147_label158_Py" bar:growlevel="0" bar:type="" class="st15" d="M1415.9,942c-12.2,2-26.5,6.9-35.3,12.3
		c-5.6,3.4-11.9,8.9-25,21.9c-9.6,9.5-28.4,27.3-41.8,39.6c-13.3,12.3-32.2,29.9-41.9,39c-31,29.3-43.1,39-57.1,45.5
		c-4.4,2.2-10.7,4.5-13.9,5.3c-5,1.2-32.3,6.3-43.8,8.2c-5.3,0.8-5,2.8,0.6,4c5.8,1.3,22.5,1.3,32.4,0.1c9.6-1.2,22.4-4.6,31.1-8.2
		c13.5-5.6,22.1-13.1,75.6-65.6c34.7-34,65.8-62.9,80.4-74.6c10.6-8.5,21.2-14.8,30.4-17.7c7.6-2.5,8.8-2.6,23.8-2.6
		c16.7,0,24.5,1.2,36.8,5.4c9.5,3.2,11.6,4.6,21.2,13.9c10,9.5,16.7,13.7,25.7,15.8c6.9,1.6,13.6,1.7,15,0.3
		c2.4-2.4,14.4-0.4,25.8,4.6c14.9,6.4,48.9,29.1,64.1,42.7c5.5,5,9.9,13.2,10.7,19.9c1.5,12.9-10.4,36.5-23.2,46
		c-10.4,7.7-14.9,9.4-61.5,22.4c-29.5,8.3-50.6,11.8-82.8,13.9c-17.3,1.2-42.6,3.8-60.9,6.3c-8.8,1.3-14.6,2.6-20.3,4.9
		c-10,3.9-47.8,20.3-53.8,23.3c-13,6.6-23.7,22.6-20.1,30.1c1.5,3.2,6.1,4.9,11.5,4.2c4.6-0.5,13.3-4.3,19.1-8.3
		c14.3-9.7,41.1-23.9,55.6-29.3c15.8-5.9,29-8.6,66.6-13.2c23.4-3,32.1-4.6,63.1-11.7c40.3-9.4,73.9-19.3,87.7-25.9
		c16.3-7.9,27.5-21.6,31.7-38.6c2-8.2,2-26.3,0-35.4c-2.4-11-6.1-17.4-15.4-26.6c-13-12.9-27.1-21.2-57.6-34
		c-7.8-3.3-20.3-9-27.5-12.7c-19.6-9.8-39.2-16.1-69.9-22.7c-13.6-2.8-16.8-3.2-31.8-3.5C1429.2,940.8,1422,941,1415.9,942z"/>
	<path class="st16" d="M1806,1223.8c-0.7-4.7-3.4-9.9-8.6-16.4c-4.5-5.7-24.7-25.7-49-48.6c-7.8-7.5-15.2-14.9-16.3-16.7
		c-3.3-5.2-4.8-10.7-8.1-30.8c-5.4-33.4-10.9-47.9-33-87.5c-16-28.6-30.2-47.7-43.4-58.8c-16.2-13.5-47.8-32.4-65.3-39.2
		c-24.7-9.5-64.1-18.5-98.1-22.3c-15.5-1.8-51.9-1.5-64.8,0.4c-23.3,3.6-44.4,10.5-58.4,19.3c-14.9,9.4-24.7,19-48.7,47.9
		c-16.9,20.5-33.1,35.1-58.8,53c-12.5,8.8-43.5,28.7-49.1,31.5c-2.6,1.4-4.3,3.2-5.8,6.3c-7,13.8-31.6,25.4-54.5,25.6
		c-7.2,0.1-10.3-0.3-13.1-1.4c-4.2-1.9-7.6-4.8-8.6-7.6c-0.7-1.9-1.3-2-9.9-2v30.9c15.1,0,30.2-3.1,49.1-9.4
		c23.2-7.7,44-18.7,63.9-33.7c22.3-16.7,38.7-31.7,90.1-82c38-37.1,46.4-44.3,60.2-51.1c18.7-9.4,29.1-11.3,61.5-12
		c49.1-0.9,81.6,4.8,118.3,20.9c47.8,21,102.7,67.7,114.1,97.1c5.4,13.9,5.3,25.8-0.1,42.2c-11.1,32.9-31.2,52.6-66.1,64.8
		c-12.2,4.2-22.3,6.5-43.4,9.7c-41.5,6.3-78.6,14.4-105.3,23l-10.2,3.2v5.7c0,6.2,1.1,10.1,4.2,15c2.1,3.4,5,4.5,7.1,2.6
		c1.3-1.2,17.9-7.7,26.3-10.3c38.7-12.2,74.4-15.2,96.5-8.5c7.8,2.4,19.4,8.4,29.3,14.9c7.6,5.1,11.6,8.5,33.2,28.2
		c4.7,4.3,12.5,10.3,17.4,13.2s14.1,9.3,20.5,14c6.5,4.8,14.3,10,17.6,11.6c5.5,2.7,6.4,2.9,14.8,2.8c9.7-0.1,20.3-1.8,32.5-5.4
		c9.9-2.8,16.7-6.2,23.8-11.9c6.5-5,26.6-18.4,33.9-22.3C1806.6,1227.2,1806.6,1227.2,1806,1223.8z"/>
	<path id="structure14_label13_VL" bar:growlevel="0" bar:type="" class="st17" d="M1363.7,1512.7c-14,15.4-51.1,52.6-59,58.9
		c-8.8,7-18,11.8-30.4,15.5c-5.8,1.8-10.8,3.2-11.1,3.2c-0.2,0-0.4,0.5-0.4,1.3c0,0.7,1.3,1.4,3,1.8c4.9,0.9,14.2,5.8,21.1,11
		c10.1,7.7,18.4,18.5,24.1,31.2c1.5,3.2,3.2,6,3.6,6c0.5,0,3.8-1,7.2-2.2c19.2-6.5,48.8-7.4,77.4-2.3c29.2,5.1,45.8,13,90.5,42.8
		c13.7,9.1,25.5,16.6,26.1,16.6c1,0,1.3-2.3,1.3-10.6c0-9,0.4-11.6,2.5-18.2c3.1-9.5,7.8-18.8,14.7-29.3
		c4.9-7.4,17.8-23.9,20.5-26.1c0.7-0.6,1.3-5.6,1.6-15.3c0.4-15.6,2.2-23.9,7-35.9c1.4-3.5,2.6-6.7,2.6-7c0-2-43.5-21.7-69.2-31.5
		c-23-8.6-30.6-10.1-87.8-16.9c-16.8-2-31.6-3.8-32.8-4C1374.3,1501.3,1372.7,1502.7,1363.7,1512.7z"/>
	<path id="structure151_label163_SLu" bar:growlevel="0" bar:type="" class="st18" d="M1530,984.8c-0.9,0.4-1.6,1.5-1.6,2.2
		c0,3.7,13.1,14.6,30.5,25.6c20,12.6,33.9,25.3,39.2,35.7c4.2,8.3,3.9,13.9-1.5,24.8c-5.6,11.1-12.1,17.5-24.7,23.9
		c-16.8,8.6-37,13.8-86.8,22.3c-44.4,7.6-58.1,10.4-74.9,15.5c-5.3,1.6-7.9,2.8-7.9,3.7c0,1.4-1.3,1.5,25.4-1.6
		c8.3-0.9,23.9-2.3,34.7-3.1c41-3,50-4.6,99.9-18.5c39.3-11,48.7-16.4,58.9-33.8c7-12.1,8.5-16.6,8.5-26.9c0-8.7-0.1-9.3-3.2-14.3
		c-3.5-5.8-8.4-10.3-23.5-21.5c-14.8-11-31.3-21.6-41.8-26.7C1548.1,985.4,1534.3,982.2,1530,984.8z"/>
	<path id="structure152_label164_LMol" bar:growlevel="0" bar:type="" class="st19" d="M1389.8,1036.2c-18.5,9.4-26.8,15.1-60.8,42
		c-12.9,10.2-25.9,20.5-29.1,22.9c-14.9,11.3-39.2,25.1-54.5,30.8c-7,2.6-9.1,4.9-4.4,4.9c3.4,0,19.3-2.4,26.6-4.1
		c21.4-4.9,62.6-27.6,90.1-49.9c13.1-10.6,32.9-31,42.8-44.1C1408.4,1028.6,1406,1028.1,1389.8,1036.2z"/>
	<path id="structure153_label165_GrDG" bar:growlevel="0" bar:type="" class="st20" d="M1401.9,1097.5c-10.1,3.3-15.3,6-37.1,18.6
		c-27.4,15.9-38.7,23.3-48.7,32.1c-10.1,8.9-16.1,13.1-28.3,19.5c-36.6,19.4-82.4,31.5-103.8,27.5c-7.3-1.4-15.8-5.7-19.7-10
		c-1.8-2-3.6-3.6-4.1-3.6c-1.8,0-0.8,4.2,1.8,8.3c6.8,10.4,23.2,16,46,16c29.7,0,61.9-12.8,102.1-40.4
		c18.3-12.6,39.9-26.2,59.3-37.3c18.1-10.4,24.9-13.9,37.3-19.1c12.3-5.2,14.8-6.9,14.4-10.6l-0.3-2.8l-6.3-0.2
		C1410,1095.5,1406.5,1096,1401.9,1097.5z"/>
	<path id="structure154_label166_VPM" bar:growlevel="0" bar:type="" class="st21" d="M1616.5,1498.7
		c-26.6,17.3-49.1,46.5-56.2,72.9c-4.3,16.5-5.4,36.8-2,36.8c1.1,0,15.3-11.5,22.4-18.2c15.5-14.6,30.6-38.6,37.5-59.9
		c2.9-8.8,5-19.3,5.9-29.3C1624.9,1493.6,1624.5,1493.5,1616.5,1498.7z"/>
	<path id="structure155_label167_AngT" bar:growlevel="0" bar:type="" class="st22" d="M1427,1375.5c2,16.2-8.5,60.8-18.7,80
		c-2.4,4.6-2.9,7.1-1.3,7.1c1.9,0,15.5-13.1,38.5-36.8c17.6-18.1,22.6-23.8,22.6-25.6c0-1.3-1.3-3.7-2.7-5.4
		c-4.4-5-33.9-23.9-37.3-23.9C1426.6,1370.8,1426.5,1371.3,1427,1375.5z"/>
	<path id="structure156_label168_MePD" bar:growlevel="0" bar:type="" class="st23" d="M1709.7,1870.6
		c-14.7,4.8-26.8,18.2-37.8,41.5c-6.4,13.3-26.7,64.4-26.2,65.7c0.2,0.5,3.2,2,6.5,3.1c5.2,1.9,7.8,2.3,16.6,2.3
		c9.4,0,10.9-0.3,15.5-2.4c9.2-4.2,16.5-12.4,31-34.4c8.3-12.7,16.6-28.6,19.8-37.9c2-5.9,2.4-8.8,2.5-16.7c0.1-8.4-0.2-10-2.2-13.9
		c-3.3-6.8-5.8-8.2-14.7-8.4C1716.5,1869.5,1711.8,1869.9,1709.7,1870.6z"/>
	<path id="structure157_label169_IMG" bar:growlevel="0" bar:type="" class="st24" d="M1980.1,1794.4c-5.1,5.4-19.3,24.4-24,32.2
		c-3.5,5.8-5.9,13.3-5.2,16.2c0.7,2.9,4,3.7,7.5,2c6.1-3.2,16.7-17.9,26.1-36.1c4-7.8,5-10.8,5.1-14.4c0.1-4.3-0.1-4.6-2.3-4.9
		C1985.5,1789.3,1984,1790.4,1980.1,1794.4z"/>
	<path id="structure158_label170_VEn" bar:growlevel="0" bar:type="" class="st25" d="M2078.6,1912.3c0.4,3.4,1.6,16.7,2.9,29.5
		c2.3,23.4,4.2,51.7,4.4,64.4c0.1,8-1.1,10.2-5,9.4c-2.1-0.5-2.7-0.2-3.9,2c-0.7,1.4-2.4,3.6-3.9,4.9c-2.5,2.4-11.4,7-13.5,7
		c-2.7,0-0.5,9.6,3.2,13.7c2,2.2,3.3,2.9,7,3.1c3.9,0.5,5.3,0.1,9.3-2.1c13-7.1,22.9-22.6,26.6-42.3c2-10.4,2-31.7,0-43.9
		c-1.4-8.2-1.7-9.2-5.4-13.5c-7.6-8.9-14.6-21.7-18.2-33.2c-1-3.1-2.1-5.1-2.9-5.1C2078.3,1906.3,2078.1,1907.4,2078.6,1912.3z"/>
	<path id="structure159_label171_Pir-1" bar:growlevel="0" bar:type="" class="st26" d="M2324.4,1820.1c-9.1,10.2-19.7,28-33.4,56.1
		c-12.2,25.2-18.4,40.9-28.2,71.5c-19.9,62.6-39.1,106.8-59.8,138.2c-16.6,25-43.1,51.8-69.3,70.1c-27.4,19.1-63.6,36.4-96.7,46.1
		c-27.4,8-41.1,9.6-82.8,9.4l-32.7-0.2v13.6v13.5h4.8c2.5,0,13.1,0.6,23.4,1.5c15.7,1.3,20.6,1.4,30.2,0.5
		c35.6-3.2,93.2-20.8,145.1-44.3c75.9-34.3,116.1-91.8,185.2-264.6c17.3-43.4,41.6-108.8,41.6-112.2c0-1.1-1.4-1.5-10.8-3
		C2330.1,1814.6,2329.2,1814.8,2324.4,1820.1z"/>
	<path id="structure15_label14_PC" bar:growlevel="0" bar:type="" class="st27" d="M1366.4,1444.8c-7.9,12.3-23.3,27.9-35.5,36
		c-19.8,13.1-47.1,22.9-68.2,24.6c-10.4,0.8-23.2-2.7-33.2-9.2c-1.4-0.9-2.7-1.3-3.1-1c-0.5,0.4,12.1,83.3,14.7,96.3
		c0.5,2.5,0.7,2.6,4.4,2c8.1-1.2,29.9-6.7,37.4-9.4c10.5-3.8,18.3-9.1,33.2-22.9c20.1-18.4,60-61.4,77.1-82.7
		c6.2-7.7,15.6-22.5,15.6-24.4c0-0.9-34.3-18.6-35.8-18.5C1372.5,1435.7,1369.6,1439.8,1366.4,1444.8z"/>
	<path id="structure160_label172_MCLH" bar:growlevel="0" bar:type="" class="st28" d="M1508.2,1894.8
		c-10.3,6.8-19.4,16.3-23.4,24.1c-2.8,5.7-3.2,7.4-3.2,12.9c0,7.6,2.3,13,6.6,16.1c3.9,2.8,14.4,3.3,21.9,1.2
		c15.1-4.3,32.4-17,40.2-29.4c2.8-4.4,2.1-5.3-7.6-10.1c-7.6-3.7-10.5-5.8-16.8-12c-4.2-4.1-8.4-7.5-9.1-7.5
		C1515.9,1890.1,1512.1,1892.1,1508.2,1894.8z"/>
	<path id="structure161_label174_a" bar:growlevel="0" bar:type="" class="st29" d="M1457,2133.7c-1.9,1.3-3.6,3.3-3.9,4.5
		c-1.3,5.4,2.8,10.6,9.1,11.6c5.3,0.7,8.9-0.2,12.1-3.2c3.9-3.6,3.8-8.1-0.4-12.2c-2.8-2.8-3.5-3.1-8.4-3.1
		C1461.4,2131.3,1459.8,2131.7,1457,2133.7z"/>
	<path class="st30" d="M1186.5,2208.6c-9.1-3.2-10.1-3.2-12.3-0.7c-2.3,2.5-13,7.6-19.7,9.3c-7,1.7-26.8,4.8-36.1,5.6
		c-1.7,0.1-3.7,0.2-5.8,0.2v20.6c7.8,0,16.1-1.8,31.9-5.5c9.4-2.3,21.5-4.7,26.6-5.5c13.3-2.1,20.7-3.8,23.1-5.4
		c3.1-2,5.7-6.7,5.7-10.4C1199.9,2213,1200.9,2213.5,1186.5,2208.6z"/>
	<path id="structure164_label180_VMHSh" bar:growlevel="0" bar:type="" class="st31" d="M1158.5,1980.6
		c-14.5,2.8-29.6,8.6-34.7,13.4l-3.9,3.6l-0.3,44.6l-0.3,44.6l4,2.3c2.3,1.3,9.1,6.7,15.3,12c16.3,13.9,30.6,25.3,41.4,32.9
		c13,9,20.9,15.7,28.6,23.9c3.6,4,8.5,9.1,10.9,11.6c8.1,8.6,27.1,17.2,40,18.2c10.5,0.8,22.1-3.1,50.2-16.6l14.1-6.8l3.6-7.3
		c5.4-11.1,7.5-20.2,7.9-36.1c0.7-20.6-2.2-33.9-11.5-53.5c-5.9-12.5-14.6-25.2-22.6-33.5c-15.5-15.8-52.2-38.3-75.7-46.5
		c-15-5.2-23.4-6.5-45.2-6.8C1169.7,1980.3,1159.8,1980.4,1158.5,1980.6z M1197.4,1992.5c19.7,5.3,44.4,16.3,62.8,28.1
		c5.2,3.3,13.6,8.2,18.6,10.7c14.4,7.4,19.4,14,29.5,38.6c12.2,30.2,17,57,12.8,71.4c-1.9,6.4-8.9,15.7-15.9,21.1
		c-6.8,5.2-18.5,10.8-25.8,12.1c-7.7,1.5-21.1,0.7-27.3-1.5c-19.7-7.1-72.5-47.6-96.5-73.9c-14.3-15.6-24.8-32.8-28.2-45.6
		c-2.3-8.5-2.8-29.3-1.1-36.2c3-11.4,8.5-18.4,18-22.9c10-4.6,14.1-5.3,29-5C1185,1989.7,1188.4,1990.2,1197.4,1992.5z"/>
	<path class="st16" d="M1806,1223.8c-0.7-4.7-3.4-9.9-8.6-16.4c-4.5-5.7-24.7-25.7-49-48.6c-7.8-7.5-15.2-14.9-16.3-16.7
		c-3.3-5.2-4.8-10.7-8.1-30.8c-5.4-33.4-10.9-47.9-33-87.5c-16-28.6-30.2-47.7-43.4-58.8c-16.2-13.5-47.8-32.4-65.3-39.2
		c-24.7-9.5-64.1-18.5-98.1-22.3c-15.5-1.8-51.9-1.5-64.8,0.4c-23.3,3.6-44.4,10.5-58.4,19.3c-14.9,9.4-24.7,19-48.7,47.9
		c-16.9,20.5-33.1,35.1-58.8,53c-12.5,8.8-43.5,28.7-49.1,31.5c-2.6,1.4-4.3,3.2-5.8,6.3c-7,13.8-31.6,25.4-54.5,25.6
		c-7.2,0.1-10.3-0.3-13.1-1.4c-4.2-1.9-7.6-4.8-8.6-7.6c-0.7-1.9-1.3-2-9.9-2v30.9c15.1,0,30.2-3.1,49.1-9.4
		c23.2-7.7,44-18.7,63.9-33.7c22.3-16.7,38.7-31.7,90.1-82c38-37.1,46.4-44.3,60.2-51.1c18.7-9.4,29.1-11.3,61.5-12
		c49.1-0.9,81.6,4.8,118.3,20.9c47.8,21,102.7,67.7,114.1,97.1c5.4,13.9,5.3,25.8-0.1,42.2c-11.1,32.9-31.2,52.6-66.1,64.8
		c-12.2,4.2-22.3,6.5-43.4,9.7c-41.5,6.3-78.6,14.4-105.3,23l-10.2,3.2v5.7c0,6.2,1.1,10.1,4.2,15c2.1,3.4,5,4.5,7.1,2.6
		c1.3-1.2,17.9-7.7,26.3-10.3c38.7-12.2,74.4-15.2,96.5-8.5c7.8,2.4,19.4,8.4,29.3,14.9c7.6,5.1,11.6,8.5,33.2,28.2
		c4.7,4.3,12.5,10.3,17.4,13.2s14.1,9.3,20.5,14c6.5,4.8,14.3,10,17.6,11.6c5.5,2.7,6.4,2.9,14.8,2.8c9.7-0.1,20.3-1.8,32.5-5.4
		c9.9-2.8,16.7-6.2,23.8-11.9c6.5-5,26.6-18.4,33.9-22.3C1806.6,1227.2,1806.6,1227.2,1806,1223.8z"/>
	<path id="structure169_label188_cst" bar:growlevel="0" bar:type="" class="st32" d="M1742.1,1288.5c0.9,3.4,0.9,8.4,0.1,10.8
		c-0.7,1.9-0.4,2,9,2.6c9,0.6,21.2,0.1,23-1c0.4-0.3,0.8-2.1,0.8-4.1c0-2.8-0.6-4.2-2.5-6.2c-2.3-2.2-3.4-2.5-10.2-3.1
		c-4.1-0.4-10.5-0.8-14.2-1.2l-6.7-0.5L1742.1,1288.5z"/>
	<path class="st33" d="M1241.4,1592c-0.4-0.2-4.4-22.7-8.8-50l-7.9-49.9l-4,0.8c-2.3,0.4-9.1,0.7-15.3,0.6
		c-12.2,0-21.7-1.7-31.1-5.4c-7.2-2.8-11.2-3.6-28.4-5.8c-10-1.3-22.4-2.1-33.3-2.3v133.6c8,0,15.8-0.5,25-1.7
		c36.5-4.7,104.7-16.7,104.7-18.5C1242.2,1592.8,1241.8,1592.2,1241.4,1592z"/>
	<path class="st34" d="M1220.4,1599.4c-1.2,0-11.2,1.6-22.2,3.6c-26.1,4.7-67.4,10.6-78.8,11.3c-2.2,0.1-4.4,0.2-6.8,0.2v70.4
		c0,0,0,0,0,0c9.7,0,12.9-1.4,21.9-9.7c5.4-5,7.7-6.6,10.5-7c2.6-0.4,3.6-1,3.6-2.2c0-6.1,14.6-24.7,27.2-34.5
		c9-7,26-18.2,37.9-24.9C1222.2,1601.8,1224.5,1599.4,1220.4,1599.4z"/>
	<path class="st35" d="M1201.7,1781.5c-2.5-9.8-10.6-26.1-16.5-33c-20.5-24.1-35.8-54-37.3-72.9l-0.5-6.9h-3c-2.4,0-4.2,1.2-9.7,6.2
		c-9.4,8.7-12.6,10.3-22.1,10.3c0,0,0,0,0,0v125.1c46.9,0,85.7-0.3,86.4-0.6c0.5-0.4,1.8-2.3,2.8-4.1
		C1204.1,1800.8,1204.1,1791,1201.7,1781.5z"/>
	<path id="structure191_label216_vlh" bar:growlevel="0" bar:type="" class="st36" d="M1531.2,1959.4c-11.8,4.2-23.7,14.9-29.3,26.3
		c-9.5,19.3-3.7,32,12.1,26.4c9.4-3.3,25.9-17.4,29.7-25.2c3-6.1,4.1-15.4,2.8-21.5C1544.7,1957.4,1540.8,1956,1531.2,1959.4z"/>
	<path id="structure192_label217_mfb" bar:growlevel="0" bar:type="" class="st37" d="M1762.5,1794.4c-18.3,15.6-26.5,21.4-39,27.7
		c-11.4,5.8-18.6,8.7-28.8,11.3c-7.4,1.9-7.5,2-17.8,11.6c-32.3,30.2-75.1,64-87.6,69.1c-7.4,3.1-21.7,3.8-30.4,1.6
		c-3.5-0.9-5.8-1.2-6-0.6c-0.2,0.5-1.8,3.2-3.7,6.1c-8.9,13.9-31,27.7-47,29.6c-13,1.5-21-5.7-21.1-19c0-5.4,0.5-7.3,3.1-12.5
		c3.8-7.7,13.7-17.9,24.7-25.3c4.3-2.9,7.8-5.6,7.8-5.8c0-0.4-1.6-3.4-3.6-6.8c-14.4-25.1-14-61.3,0.9-86.1c3.9-6.5,4.3-7.8,2.3-7.8
		c-2.9,0-96,47-111.6,56.3c-16.3,9.8-29.4,16.5-39.9,20.3c-3.1,1.2-5.6,2.5-5.4,3.1c0.2,0.5,4.8,5.1,10.2,10.1
		c16.6,15.2,34,35.4,44.7,51.7c10,15.2,13.6,27.6,13.6,47.3c0.1,13.3-1.2,19.6-6,29.7c-4,8.2-8.2,13-14.8,16.5
		c-7.8,4.2-14.5,5.6-26,5.7c-16.1,0-32.6-3.2-53.5-10.5c-22.9-8-41.5-20.9-55.8-38.9c-5.9-7.4-12.8-20.5-14.8-28.5
		c-4.4-17.4,3.5-45.9,17.5-63.2c2.4-3.1,4.5-6.1,4.5-6.8c0-0.8-1.4-1.4-4-1.8c-5.8-0.8-13.6-4-18.1-7.5c-5-3.8-6.8-3.9-8.8-0.5
		c-5.9,10-28,28.4-43,35.8c-4.9,2.3-8.8,4.8-8.9,5.4c0,0.5,2.6,3.1,5.8,5.6c9.3,7.4,14,16.2,12.7,23.4c-2,10.9-16.8,21.6-41.6,30.2
		c-17.7,6.1-28.2,10.5-28.2,12c0,1,0.6,1.3,2.5,0.9c1.3-0.3,5.7-1.1,9.6-1.9c14.5-2.8,41.5-1.3,58.2,3.2
		c10.7,2.9,27.2,9.7,37.9,15.8c11.9,6.8,33.8,21.4,41,27.6c19.6,16.7,36.2,46.9,40.2,73.7c1.6,10.7,1.3,26.3-0.9,36.4
		c-1.4,6.8-5.5,18.3-6.8,19.6c-1.1,1.1-1.2,4.1-0.1,4.1c0.4,0,4.6-1.8,9.4-4.1c11.9-5.7,20.6-7.8,31.7-7.9c7.9-0.1,9.5,0.2,13.5,2.2
		c3.8,1.8,5,3.1,7.1,7.5c2.8,5.6,3.6,12.3,2.1,18.3c-0.6,2.5-0.5,3,0.7,3c1.7,0,10.9-6.2,26.6-18.1l10.4-7.8l1-7.6
		c0.6-4.4,2.1-9.5,3.5-12.4c6.8-14.1,27.5-25.2,44.6-24l6,0.4l3.7-4.6c5.5-6.8,7.7-11.2,8.9-17.2c3.5-17.6,18.7-54.5,31.9-77.3
		c6.4-11.1,5.8-11.8-4.5-5c-7.6,4.9-15,7.6-18.7,6.7c-2.7-0.6-6.6-5-7.4-8.2c-2-7.7,5-24.2,14-33.1c13-12.9,28.8-18.4,33.7-11.9
		c1.6,2.3,1.9,3.9,1.9,12c0,5.9,0.4,9.4,0.9,9.4c0.5,0,3.5-3.2,6.8-7c8-9.6,56.3-57.7,66.5-66.2c10-8.3,20.9-15.5,32.3-21.4
		c10.1-5.2,15.8-5.8,19.5-2.1c3,2.9,2.9,5.9-0.5,14.9c-3.4,9.4-7.6,17.4-39.6,74.2c-40.9,72.7-53.7,94.7-66,112.8
		c-5.9,8.7-6.2,9.4-5.7,13.1c2.4,16,22.1,36.8,55.4,58.7c43.2,28.4,118.2,63.2,154.6,72c3.6,0.8,6.7,1.4,6.8,1.3
		c0.5-0.7,5-23.8,5-26.1c0-2-0.5-2.4-4.7-3.5c-25.7-6.5-104.4-36-127.6-47.7c-23.7-12.1-47.9-28.7-52.4-36.1
		c-3.7-5.9-5.5-15.7-4.9-26c0.7-11.2,3.2-20.3,8.5-29.7c27.7-50.5,35.8-67.2,48.7-100.1c21.9-56,28.4-68.8,41.8-81.4
		c7.6-7.3,14.5-10.9,23.1-12.2c14.8-2.3,22.5,5.4,22.5,22.4c0,4.9,0.3,6.6,1.2,6.6c0.8,0,1.7-3.2,2.8-10.4
		c1.5-10.6,4.3-22.1,8.1-34.5c1.3-3.8,2.9-10.5,3.8-14.9c3.1-16.2,11.1-34.5,20.6-47.1c4.9-6.6,6-9.2,3.8-9.2
		C1777.6,1782.1,1770.5,1787.7,1762.5,1794.4z"/>
	<polygon class="st38" points="1112.5,1108.2 1112.5,1116.1 1112.6,1116.1 1112.6,1112.1 1112.6,1108.2 	"/>
	<path class="st39" d="M1188.6,1811.4c-0.8-0.3-34.9-0.5-76-0.5v54c4.6,0,8.3-0.5,9.8-1.3c1.3-0.7,5.9-5.1,10.3-9.8
		c13.8-14.9,30.7-27.4,48.6-35.7C1189.7,1814.1,1191.4,1812.5,1188.6,1811.4z"/>
	<path id="structure1_label0_TuLH" bar:growlevel="0" bar:type="" class="st40" d="M1762.5,1794.4c-18.3,15.6-26.5,21.4-39,27.7
		c-11.4,5.8-18.6,8.7-28.8,11.3c-7.4,1.9-7.5,2-17.8,11.6c-32.3,30.2-75.1,64-87.6,69.1c-7.4,3.1-21.7,3.8-30.4,1.6
		c-3.5-0.9-5.8-1.2-6-0.6c-0.2,0.5-1.8,3.2-3.7,6.1c-8.9,13.9-31,27.7-47,29.6c-13,1.5-21-5.7-21.1-19c0-5.4,0.5-7.3,3.1-12.5
		c3.8-7.7,13.7-17.9,24.7-25.3c4.3-2.9,7.8-5.6,7.8-5.8c0-0.4-1.6-3.4-3.6-6.8c-14.4-25.1-14-61.3,0.9-86.1c3.9-6.5,4.3-7.8,2.3-7.8
		c-2.9,0-96,47-111.6,56.3c-16.3,9.8-29.4,16.5-39.9,20.3c-3.1,1.2-5.6,2.5-5.4,3.1c0.2,0.5,4.8,5.1,10.2,10.1
		c16.6,15.2,34,35.4,44.7,51.7c10,15.2,13.6,27.6,13.6,47.3c0.1,13.3-1.2,19.6-6,29.7c-4,8.2-8.2,13-14.8,16.5
		c-7.8,4.2-14.5,5.6-26,5.7c-16.1,0-32.6-3.2-53.5-10.5c-22.9-8-41.5-20.9-55.8-38.9c-5.9-7.4-12.8-20.5-14.8-28.5
		c-4.4-17.4,3.5-45.9,17.5-63.2c2.4-3.1,4.5-6.1,4.5-6.8c0-0.8-1.4-1.4-4-1.8c-5.8-0.8-13.6-4-18.1-7.5c-5-3.8-6.8-3.9-8.8-0.5
		c-5.9,10-28,28.4-43,35.8c-4.9,2.3-8.8,4.8-8.9,5.4c0,0.5,2.6,3.1,5.8,5.6c9.3,7.4,14,16.2,12.7,23.4c-2,10.9-16.8,21.6-41.6,30.2
		c-17.7,6.1-28.2,10.5-28.2,12c0,1,0.6,1.3,2.5,0.9c1.3-0.3,5.7-1.1,9.6-1.9c14.5-2.8,41.5-1.3,58.2,3.2
		c10.7,2.9,27.2,9.7,37.9,15.8c11.9,6.8,33.8,21.4,41,27.6c19.6,16.7,36.2,46.9,40.2,73.7c1.6,10.7,1.3,26.3-0.9,36.4
		c-1.4,6.8-5.5,18.3-6.8,19.6c-1.1,1.1-1.2,4.1-0.1,4.1c0.4,0,4.6-1.8,9.4-4.1c11.9-5.7,20.6-7.8,31.7-7.9c7.9-0.1,9.5,0.2,13.5,2.2
		c3.8,1.8,5,3.1,7.1,7.5c2.8,5.6,3.6,12.3,2.1,18.3c-0.6,2.5-0.5,3,0.7,3c1.7,0,10.9-6.2,26.6-18.1l10.4-7.8l1-7.6
		c0.6-4.4,2.1-9.5,3.5-12.4c6.8-14.1,27.5-25.2,44.6-24l6,0.4l3.7-4.6c5.5-6.8,7.7-11.2,8.9-17.2c3.5-17.6,18.7-54.5,31.9-77.3
		c6.4-11.1,5.8-11.8-4.5-5c-7.6,4.9-15,7.6-18.7,6.7c-2.7-0.6-6.6-5-7.4-8.2c-2-7.7,5-24.2,14-33.1c13-12.9,28.8-18.4,33.7-11.9
		c1.6,2.3,1.9,3.9,1.9,12c0,5.9,0.4,9.4,0.9,9.4c0.5,0,3.5-3.2,6.8-7c8-9.6,56.3-57.7,66.5-66.2c10-8.3,20.9-15.5,32.3-21.4
		c10.1-5.2,15.8-5.8,19.5-2.1c3,2.9,2.9,5.9-0.5,14.9c-3.4,9.4-7.6,17.4-39.6,74.2c-40.9,72.7-53.7,94.7-66,112.8
		c-5.9,8.7-6.2,9.4-5.7,13.1c2.4,16,22.1,36.8,55.4,58.7c43.2,28.4,118.2,63.2,154.6,72c3.6,0.8,6.7,1.4,6.8,1.3
		c0.5-0.7,5-23.8,5-26.1c0-2-0.5-2.4-4.7-3.5c-25.7-6.5-104.4-36-127.6-47.7c-23.7-12.1-47.9-28.7-52.4-36.1
		c-3.7-5.9-5.5-15.7-4.9-26c0.7-11.2,3.2-20.3,8.5-29.7c27.7-50.5,35.8-67.2,48.7-100.1c21.9-56,28.4-68.8,41.8-81.4
		c7.6-7.3,14.5-10.9,23.1-12.2c14.8-2.3,22.5,5.4,22.5,22.4c0,4.9,0.3,6.6,1.2,6.6c0.8,0,1.7-3.2,2.8-10.4
		c1.5-10.6,4.3-22.1,8.1-34.5c1.3-3.8,2.9-10.5,3.8-14.9c3.1-16.2,11.1-34.5,20.6-47.1c4.9-6.6,6-9.2,3.8-9.2
		C1777.6,1782.1,1770.5,1787.7,1762.5,1794.4z"/>
	<polygon class="st41" points="1112.5,1116.3 1112.5,1124.2 1112.6,1124.2 1112.6,1120.3 1112.6,1116.3 	"/>
	<path class="st42" d="M1806,1223.8c-0.7-4.7-3.4-9.9-8.6-16.4c-4.5-5.7-24.7-25.7-49-48.6c-7.8-7.5-15.2-14.9-16.3-16.7
		c-3.3-5.2-4.8-10.7-8.1-30.8c-5.4-33.4-10.9-47.9-33-87.5c-16-28.6-30.2-47.7-43.4-58.8c-16.2-13.5-47.8-32.4-65.3-39.2
		c-24.7-9.5-64.1-18.5-98.1-22.3c-15.5-1.8-51.9-1.5-64.8,0.4c-23.3,3.6-44.4,10.5-58.4,19.3c-14.9,9.4-24.7,19-48.7,47.9
		c-16.9,20.5-33.1,35.1-58.8,53c-12.5,8.8-43.5,28.7-49.1,31.5c-2.6,1.4-4.3,3.2-5.8,6.3c-7,13.8-31.6,25.4-54.5,25.6
		c-7.2,0.1-10.3-0.3-13.1-1.4c-4.2-1.9-7.6-4.8-8.6-7.6c-0.7-1.9-1.3-2-9.9-2v30.9c15.1,0,30.2-3.1,49.1-9.4
		c23.2-7.7,44-18.7,63.9-33.7c22.3-16.7,38.7-31.7,90.1-82c38-37.1,46.4-44.3,60.2-51.1c18.7-9.4,29.1-11.3,61.5-12
		c49.1-0.9,81.6,4.8,118.3,20.9c47.8,21,102.7,67.7,114.1,97.1c5.4,13.9,5.3,25.8-0.1,42.2c-11.1,32.9-31.2,52.6-66.1,64.8
		c-12.2,4.2-22.3,6.5-43.4,9.7c-41.5,6.3-78.6,14.4-105.3,23l-10.2,3.2v5.7c0,6.2,1.1,10.1,4.2,15c2.1,3.4,5,4.5,7.1,2.6
		c1.3-1.2,17.9-7.7,26.3-10.3c38.7-12.2,74.4-15.2,96.5-8.5c7.8,2.4,19.4,8.4,29.3,14.9c7.6,5.1,11.6,8.5,33.2,28.2
		c4.7,4.3,12.5,10.3,17.4,13.2s14.1,9.3,20.5,14c6.5,4.8,14.3,10,17.6,11.6c5.5,2.7,6.4,2.9,14.8,2.8c9.7-0.1,20.3-1.8,32.5-5.4
		c9.9-2.8,16.7-6.2,23.8-11.9c6.5-5,26.6-18.4,33.9-22.3C1806.6,1227.2,1806.6,1227.2,1806,1223.8z"/>
	<path id="structure202_label239_MHb" bar:growlevel="0" bar:type="" class="st43" d="M1156.2,1274.2l0.1,7.9l-3.8,4.9
		c-4.4,5.9-7.4,12.1-7.5,15.5c0,6.2,23,21.2,32.7,21.4c6.2,0,12.1-5.5,14.5-13.7c1.5-5,2.8-19.6,1.7-19.6
		c-1.4,0-24.4-15.4-30.2-20.1C1156.3,1264.6,1156,1264.8,1156.2,1274.2z"/>
	<path id="structure205_label243_df" bar:growlevel="0" bar:type="" class="st44" d="M1192.2,1060.8c-11.3,4.2-42.8,11.3-61.8,13.9
		c-9,1.3-9.7,2.3-5.6,7.1c9.6,11.5,52.9,3.7,68-12.2C1201.2,1060.6,1201.1,1057.6,1192.2,1060.8z"/>
	<path class="st45" d="M1174.4,2205.3c-0.9-0.8-11.7-2.9-15.6-3c-2.1,0-6,1-8.9,2.3c-2.9,1.3-9.5,3.3-14.8,4.6
		c-8.1,2.1-11.4,2.4-22.6,2.3c0,0,0,0,0,0v10.3c12.8,0,29.9-2.1,42-5.2C1165.3,2214,1176.6,2207.6,1174.4,2205.3z"/>
	<path id="structure208_label250_ArcD" bar:growlevel="0" bar:type="" class="st46" d="M1115.3,2110.9c0,13.7,0.3,24.8,0.7,24.8
		c0.4,0,2.9-0.9,5.6-2.1c4.8-1.9,6-2,28.6-1.9c18.1,0.1,23.6-0.1,23.6-0.9c0-0.6-4-4.2-8.7-7.9c-4.9-3.7-14.8-12-22.3-18.3
		c-14.1-12.1-21.1-17-25.1-18.1l-2.3-0.5L1115.3,2110.9L1115.3,2110.9z"/>
	<path id="structure209_label251_VMHDM" bar:growlevel="0" bar:type="" class="st47" d="M1159.2,1990c-6.2,1.1-13.2,3.5-17.5,5.9
		c-4.9,2.8-10.9,9.4-13,14.5c-5.8,13.4-3.5,42.3,4.7,58.2c2.3,4.6,10.5,17,14,21.2c3.2,3.7,3.7,3.6,14.3-3.4
		c22.4-14.8,42-36.7,54.4-60.9c4.5-8.9,8.9-19.8,8.9-22c0-1.7-14.4-7-29.3-10.8C1184.1,1989.6,1167.4,1988.4,1159.2,1990z"/>
	<path id="structure20_label19_BMA" bar:growlevel="0" bar:type="" class="st48" d="M1746.5,2025.9c-16,8.3-26.7,14.8-29.2,17.7
		c-0.8,0.9-3.3,6.7-5.8,13c-5,13.2-14.4,31.8-19.4,38.4c-4.3,5.8-4.4,8.1-0.5,11.7c9.9,9.4,31.8,13.6,66.7,12.6
		c12.2-0.3,16.2-0.7,16.8-1.6c1.8-2.8,6.3-15.7,7.7-21.8c2.3-10,2-27.8-0.5-38.4c-2.2-9-5-17.5-8.2-23.7c-4-7.8-9.4-15.9-10.7-15.9
		C1762.6,2017.9,1755,2021.5,1746.5,2025.9z"/>
	<path id="structure210_label252_VMHC" bar:growlevel="0" bar:type="" class="st49" d="M1225.4,2005c-11.9,33.1-34.6,62.3-63.4,81.5
		c-5.4,3.5-9.7,7-9.7,7.8c0,2.6,34.5,35.1,37.2,35.1c0.5,0,2.4-2.4,4.1-5.3c10.8-19,40.2-47.3,64.9-62.5
		c8.6-5.2,21.9-11.4,30.4-14.2c3.5-1.1,6.5-2.5,6.5-3.1c0-2.2-8.9-9-17.8-13.6c-5-2.6-12.7-7.1-17-9.9c-8.5-5.6-31.1-17.4-33.2-17.4
		C1226.5,2003.5,1225.7,2004.2,1225.4,2005z"/>
	<path id="structure212_label256_sox" bar:growlevel="0" bar:type="" class="st50" d="M1632.3,1900.1c-18.6,13-65.6,59.6-86.6,85.8
		c-15.3,19.1-32.8,52.7-43.7,83.9c-4.5,13-6.8,22.6-5.5,23.7c0.4,0.5,5,1.1,10.3,1.4l9.4,0.6l2.2-3.9c4.1-7.4,13.5-21,17.9-25.9
		c4.2-4.7,4.7-5.8,9.2-20.6c5.6-18.7,11.9-37.2,15.2-44.6c8.5-18.7,42.4-62.8,70.9-92.3c5.1-5.2,9.3-10,9.3-10.5
		C1640.9,1895.4,1637.6,1896.5,1632.3,1900.1z"/>
	<path id="structure213_label257_cst" bar:growlevel="0" bar:type="" class="st32" d="M1789.8,1798.2c-7,4.4-11.5,12.2-12,20.8
		c-0.4,7.5,1.1,9.2,8.6,9.7c6.7,0.4,10.4-1.9,14-8.7c2-4.1,2.4-6,2.4-11.7c0-9.3-1.2-11.3-6.3-11.6
		C1793.8,1796.5,1791.6,1797,1789.8,1798.2z"/>
	<path id="structure214_label41_PLCo-3" bar:growlevel="0" bar:type="" class="st51" d="M1851.9,2106c-15.4,4.2-63.2,12.7-71.8,12.7
		c-5.9,0-6.7,2.1-1.9,5.8c5.7,4.5,8.6,7.9,11,13.1c2.1,4.6,2.3,5.4,1.7,16c-0.5,11.1-0.5,11.1,1.8,12.9c4.6,3.6,19.9,7,40.8,9.1
		c11.7,1.1,77.3,2.2,83.2,1.4l4.2-0.6l-0.5-13.7c-1.3-30.2-3.7-34.7-23.4-44.4C1878.3,2109,1859.4,2103.9,1851.9,2106z"/>
	<path id="structure215_label40_PLCo-2" bar:growlevel="0" bar:type="" class="st52" d="M1790.2,2166.6c-0.2,0.5-4.3,28.4-5,32.8
		l-0.5,4.5l7.1,1.5c13,2.8,38.3,6.8,52.3,8.2c16.8,1.8,28.1,1.8,45.6,0.2c7.5-0.7,17.5-1.6,22.3-1.9l8.7-0.6v-17.1V2177l-19.5,0.6
		c-22,0.7-58.9-0.6-76-2.8c-13.2-1.6-24.7-4.1-29.5-6.7C1792.5,2166.6,1790.5,2165.9,1790.2,2166.6z"/>
	<path class="st53" d="M1142.6,2196.1c-10.2-6.4-24.9-20.7-26-25.2c-0.4-1.7-0.8-67.4-1-146.1l-0.3-142.8h-2.7v328.5
		c6.8-0.1,13.7-0.5,18.2-1.3c9.5-1.6,19.1-5,19.3-6.8C1150.3,2201.6,1147.4,2199.1,1142.6,2196.1z"/>
	<path class="st54" d="M1119.3,1876.8c-1.2-1.8-2.2-2.1-6.7-2.1c-0.1,0-0.1,0-0.1,0v7.2h0h2.7v102.1c0,101.5,0,102.1,1.8,102.1
		s1.8-0.6,1.8-34.5c0-18.9,0.5-63.2,1.1-98.3C1121.1,1881.1,1121.1,1879.6,1119.3,1876.8z"/>
	<path id="structure21_label20_ACo" bar:growlevel="0" bar:type="" class="st55" d="M1685.4,2103.7c-3.4,4.9-30.3,39.4-33.5,42.8
		c-2.2,2.3-3.9,4.9-3.9,5.7c0,2.3,24.3,12.6,66.6,28.4c33.8,12.6,67.8,23.7,68.9,22.4c1.2-1.2,5.9-34.9,7.2-50.2
		c0.8-10.7-0.8-16.1-6.8-22.7c-2.5-2.7-6.5-6.2-8.8-7.7l-4.3-2.7h-19.7c-21.2,0-33-1-40.9-3.3c-10.7-3.2-20.2-8.6-21.2-12.2
		C1688.4,2102.2,1686.7,2101.9,1685.4,2103.7z"/>
	<path id="structure221_text3314_GrDG" bar:growlevel="0" bar:type="" class="st20" d="M1122.5,1126.1c0,0.7,1.8,4.9,4.1,9.4
		c6.4,12.6,7,16.6,7.1,45.9c0.1,26.6,0.3,27.9,4.5,30.6c1.1,0.7,8.1,3,15.5,5c19.9,5.4,27.7,8.6,38.1,15.7l9.2,6.2l6-1.1
		c20.3-3.8,22.3-4,35.7-3.5c13.6,0.5,15.6,0.9,37.6,6.6c9,2.3,10.3,2.4,16.5,1.5c5.9-0.8,7.6-1.5,14.7-6.4c10.7-7.2,14-8.2,29-8.5
		l12.2-0.3l33.2-16.7c18.3-9.2,36.1-17.9,39.5-19.3c8.3-3.4,10.4-4.8,10.4-6.8c0-1.4-0.7-1.7-4.2-1.7c-7.5,0-20.4,3.2-32,7.9
		c-6.1,2.5-20.2,8.4-31.3,13c-23.6,9.9-52.1,20.3-63,23c-14.2,3.4-16.9,3.4-42.8-1.1c-29.5-5.2-30.1-5.2-46.6-5.6
		c-15.1-0.3-14.8-0.2-37.5-9.2c-6.2-2.5-14.6-5.7-18.7-7c-11.9-3.9-13.7-7.7-15.9-33.8c-2.1-23.9-5.8-35.5-13.1-41.5
		C1126.8,1125.6,1122.5,1124.3,1122.5,1126.1z"/>
	<path id="structure222_text3317_MoDG" bar:growlevel="0" bar:type="" class="st56" d="M1113.7,1175.2c0.3,50.8,0.4,51.1,2.4,57.4
		c2.9,8.6,5.7,13.1,11.3,18.3c6.5,5.9,26.4,13.9,47.7,19.1c21.3,5.2,25.2,5.6,38.9,4c18.9-2.2,30.8-1.9,48.9,1.4
		c32.8,5.7,45.7,6.6,60.8,4.1c18.5-3,24.6-6.1,68-35.1c18.5-12.4,39.5-26.1,46.6-30.5c7-4.4,12.8-8.3,12.8-8.7
		c0-0.5-1.1-2.4-2.3-4.3c-2.8-4.2-4.9-10.9-4.9-15.6c0-2.5-0.4-3.4-1.4-3.4c-2.1,0-5,1.8-6.8,4.1c-0.9,1.1-4.7,3.2-8.5,4.9
		c-10.8,4.5-42.8,20.2-56.2,27.4c-17.1,9.4-18,9.6-32.4,9.8c-13.8,0.1-16.7,1.1-28.4,9c-3.2,2.3-7.5,4.5-9.3,5
		c-6.1,1.6-14.5,1.1-24.5-1.8c-17-4.9-23.5-5.9-39.1-5.7c-11.6,0.1-16.5,0.5-24.8,2.3c-11.9,2.6-10.6,2.9-22.3-5.1
		c-8.3-5.6-17.6-9.4-33.8-13.7c-15-4.1-18.2-5.4-21.1-9.2l-2.3-3.1l0.2-22.1c0.4-30.9-0.8-38.2-8.7-52c-4-7.3-4.2-7.5-7.6-7.5h-3.4
		L1113.7,1175.2z"/>
	<path id="structure225_Unlabeled-1786-1015_MoDG" bar:growlevel="0" bar:type="" class="st56" d="M1445.1,1018.5
		c-7.2,1.1-21.5,4.4-28.9,6.8c-8.2,2.6-8.2,2.6-11.4,7.8c-7.2,11.6-31.3,37.3-46.1,49.1c-18.6,14.9-39.1,28-60.8,38.9
		c-21.9,11-36.7,14.8-63.5,16.5c-7,0.4-13.2,1.1-13.7,1.3c-0.5,0.3-10.5,1.2-22.4,2c-20.2,1.4-45.9,1.3-51.3-0.2
		c-2.9-0.8-2.7,0.8,1,8.3c1.6,3.4,4.3,10.3,5.9,15.2c4.9,14.9,8.6,20.8,16,25.5c6.6,4.2,12.6,5.6,24.4,5.6c25.1,0,56.1-9.1,91-26.5
		c12.8-6.4,20.5-11.6,31.5-21.2c10.1-8.7,18.6-14.4,45.4-30.1c28.4-16.6,43-23,52.7-23c1.7,0,5.3-0.8,7.9-1.8
		c2.6-1,17.5-4.4,33.3-7.7c38.3-7.7,51-12.1,60-20.3c4.9-4.5,6.8-8.4,6.8-13.9c0-12.2-14.3-24.8-34.7-30.2c-5.8-1.6-10.3-2-23.8-2.2
		C1455.3,1018.2,1446.7,1018.3,1445.1,1018.5z"/>
	<path id="structure227_Unlabeled-2121-725_Unlabeled" bar:growlevel="0" bar:type="" class="st57" d="M1392.5,865.1
		c-13.7,1.4-31.9,5.1-44.5,9.3c-35.3,11.6-54.3,28.3-69.5,60.7c-2.7,5.8-6.3,13.4-8,16.9c-1.7,3.6-3.1,6.9-3.1,7.5
		c0,4.6,12.5-7.6,25.6-24.9c17.2-22.7,27.8-32.6,43.3-40.1c21.3-10.4,49.5-16.2,78.8-16.2c13.6,0.1,55.6,3.4,88,7.1
		c3.8,0.4,4.7,0.4,4.7-0.7c0-2.4-24-10.2-45.3-14.5C1438.8,865.2,1411.3,863.2,1392.5,865.1z"/>
	<path id="structure229_Unlabeled-2455-1175_Unlabeled" bar:growlevel="0" bar:type="" class="st57" d="M1700.3,1270.6
		c0,2.3,8,13.9,13.2,19.4c5.2,5.3,11.3,8.5,18.9,10.2c8.6,1.9,8.8,1.8,10.2-2.3c1-2.9,1-4.2,0.2-6.6c-0.6-1.6-1.1-3.5-1.1-4.3
		c0-1-1.4-1.5-4.9-2c-8.1-0.9-13.9-3.2-18.6-7.6c-2.4-2.2-4.4-4.7-4.4-5.7c0-1.4-0.6-1.7-3.3-1.7c-1.9,0-5-0.3-6.8-0.5
		C1700.7,1268.9,1700.3,1269.1,1700.3,1270.6z"/>
	<path id="structure22_label21_MeAV" bar:growlevel="0" bar:type="" class="st58" d="M1605.3,2061.4c-6.2,2.8-10.3,14.5-10.9,31.6
		c-0.7,17.2,1.4,24.3,9.5,31.5c9.2,8.2,38.3,26.6,42,26.6c2.1,0,8.8-7.4,18.8-20.7c2.4-3.2,8.6-11.2,13.7-17.7
		c6-7.7,9.3-12.6,9.3-14.1c0-5.7-11-13.3-39.8-27.6l-20.4-10.1l-9.7-0.4C1610.7,2060.2,1607.2,2060.4,1605.3,2061.4z"/>
	<path class="st57" d="M1188.1,1324.8c-2.6-2.4-3.1-2.6-5.9-1.6c-4,1.3-9.4,0.5-15.5-2.4c-5.9-2.7-14.7-8.9-18.9-13.3
		c-3.6-3.8-4.6-4-6.9-1.3c-0.9,1.1-2.9,2.5-4.3,3.2c-3.4,1.8-16.1,3.8-24,3.9v18.1c36-0.3,44.6,0.5,51.2,3.6
		c3.9,1.8,4.1,1.8,6.4,0.4c4.3-2.8,8.6-4.4,14.8-5.4c3.3-0.5,6-1.3,6-1.7S1189.6,1326.2,1188.1,1324.8z"/>
	<path id="structure23_label22_MeAD" bar:growlevel="0" bar:type="" class="st59" d="M1737.2,1902c-3.7,15.1-16.6,38.7-33.5,61.1
		c-7.7,10.3-12.7,14.7-21.1,18.5c-7.7,3.6-18.4,3.6-29.4-0.1c-4.5-1.4-8.3-2.3-8.6-1.8c-0.4,0.4-2,4-3.6,8.1
		c-3.5,9-7.1,16-23.3,46.3c-7,13.1-12.8,24.5-12.8,25.1c0,0.9,1.4,1,6.1,0.5c11.3-1,15.9,0.3,35.7,10.2c9.9,4.9,21.2,10.9,25,13.1
		c6.9,4,15.3,11.3,16.1,13.9c0.2,0.7,1,1.1,1.7,0.8c2.1-0.8,12.3-18.9,17.6-31.1c6.2-14.3,22-61.8,24.9-75.2
		c4.6-20.6,7.1-43.9,8.3-76c0.5-15.5,0.4-17.3-0.8-17.3C1738.6,1898.2,1737.8,1899.5,1737.2,1902z"/>
	<path id="structure24_label23_STIA" bar:growlevel="0" bar:type="" class="st60" d="M1746.4,1868.2c-4.2,17.1-4.7,21-5.6,47.6
		c-0.9,26-2.5,44.5-5.4,61.2c-2.4,13.9-4.5,21.8-11.3,43.2c-3.2,9.9-5.8,18.5-5.8,19.1c0,1.9,2.5,1.2,8-2.4c3-1.9,8-4.8,11.3-6.5
		c3.2-1.7,5.9-3.4,5.9-3.9c0-0.5-0.9-1.9-2-3.1c-4.2-4.4-1.4-16.8,5.5-24.8c6.3-7.1,27.7-18.5,34.9-18.6c7.5,0,8.3,8.3,2,19.5
		c-4.5,8.1-3.8,8.3,9.2,2.2c18.6-8.7,49.2-18.4,62.5-19.6l5.5-0.5l0.5-6.4c1.1-12.3,6.3-25,15.8-38.2c2.5-3.6,4.7-6.9,4.7-7.5
		c0-1.5-2.6-0.8-9.3,2.8c-22.1,11.9-39.7,11.4-66.8-1.8c-28.1-13.7-47-33.9-52.7-56.5c-0.9-3.7-1.7-9.1-1.7-12.1
		c0-3.8-0.4-5.2-1.3-5.2C1749.6,1856.8,1748.3,1860.6,1746.4,1868.2z"/>
	<path id="structure25_label24_BMP" bar:growlevel="0" bar:type="" class="st61" d="M1856,1982.4c-18.2,2.8-40.9,9.7-60.8,18.6
		c-6.7,3-28.5,14.4-30.1,15.7c-0.3,0.3,0.5,1.9,1.6,3.7c4.9,8.1,11,21.2,13.5,29c6.8,21.3,6.1,42.8-2.1,62.2
		c-1.3,2.9-2.3,5.7-2.3,6.2c0,2.9,51.6-5.8,86-14.5c26.8-6.8,49.3-15.4,54.1-20.7c1.8-2.1,2-1.5-4.2-19.2c-2-5.9-4.6-15.4-5.7-21.1
		l-1.9-10.3l-6.6-1.7c-19-4.8-29.7-17.3-34.2-40c-0.7-4-1.8-7.5-2.3-7.8C1860,1981.9,1859.9,1981.9,1856,1982.4z"/>
	<path id="structure26_label25_BLV" bar:growlevel="0" bar:type="" class="st61" d="M2009.9,2032.5c-19.1,0.4-50.3,0.6-69.5,0.5
		l-34.9-0.4v3c0,4.8,3.5,19.5,6.9,29.4c9.1,26.3,21.5,40.8,38.2,44.6c5.8,1.3,16.6,1.2,23.3-0.4c21.2-5,51.1-27,62.5-46.1
		c4.2-7.1,9.6-21.2,10.8-28.3c0.5-2.9,0.4-3.3-1-3.2C2045.3,2031.6,2029,2032,2009.9,2032.5z"/>
	<path id="structure27_label26_BLA" bar:growlevel="0" bar:type="" class="st62" d="M1962.9,1841c-4.6,4.5-5.4,5-9,5h-4l-1.2,4.6
		c-1.8,6.8-9.1,21-15.5,30.1c-7.5,10.5-27.1,30.3-36.6,36.9c-11,7.6-21.1,20.2-28.1,34.9c-5.2,10.9-6.7,17.4-6,27.6
		c1.6,27.3,13.4,44.5,34.4,49.9c8.3,2.3,39.9,3.2,78.2,2.6l34-0.6l-0.5-4.1c-0.4-2.3-1.1-7.4-1.6-11.3c-0.7-4.5-1.1-21.5-1.1-45.9
		c-0.1-37.4,0-39,2-46.1c2.4-9,5-15.1,7.9-18.9c2.8-3.7,2.7-4.9-0.6-6.9c-3.9-2.3-7.6-7.6-13-19.1c-2.6-5.6-6.5-12.7-8.5-15.8
		c-8.7-13-21.7-27.8-24.3-27.8C1968.7,1836.1,1965.8,1838.3,1962.9,1841z"/>
	<path id="structure28_label27_CeM" bar:growlevel="0" bar:type="" class="st63" d="M1826.3,1751.6c-13.4,7.2-30.1,17.7-36.9,23.5
		c-6.6,5.5-15.8,16.7-21.2,26.1c-8.3,14-13.8,31.1-15.8,48.9c-3,26.6,7.7,49,32.4,67.5c8.9,6.8,29.5,17.6,33.3,17.6
		c2.1,0,3.7-1.2,7.3-5.2c2.5-2.8,5.7-7.4,7-10.1c2.2-4.3,2.4-6,2.4-13.5c0-6.9-0.6-10.4-2.9-18.4c-4.9-16.7-9.7-45.4-10.7-63.5
		c-1.2-20.2,6.6-56,15.4-71.7c2.5-4.5,2.9-6.6,1.2-6.6C1837.2,1746.1,1832,1748.6,1826.3,1751.6z M1798.8,1796.5
		c6.9,2.6,6.3,19.8-1.1,28c-4,4.5-8.7,6-13.7,4.5c-5.4-1.5-7.6-4.9-6.9-10.3c1.3-11.1,10.1-22,18.7-23
		C1796.2,1795.6,1797.5,1795.9,1798.8,1796.5z"/>
	<path id="structure29_label28_VRe" bar:growlevel="0" bar:type="" class="st64" d="M1194.5,1760.7c0,0.6,1.4,4.7,3.2,9
		c7,17.1,8.2,27.6,4.1,36.1c-1.2,2.3-1.9,4.5-1.5,4.8c0.3,0.3,5.3,0.1,11.3-0.5c5.8-0.5,13.1-1,16-1c7.7,0,71.6-10.4,80.6-13.1
		c2.3-0.7,2-1.7-3-8.2c-2.5-3.3-6.8-10.5-9.7-16.2c-2.8-5.6-5.5-10.2-5.9-10.2c-0.5,0-1.9,1-3.2,2.2c-9.8,9.3-26.8,14.1-43.3,12.2
		c-14.7-1.6-34.4-8-43.3-13.9C1195.9,1759.3,1194.5,1759,1194.5,1760.7z"/>
	<path id="structure2_label1_PeFLH" bar:growlevel="0" bar:type="" class="st65" d="M1345.7,1870.4c-17.6,5.3-39.1,8.9-54,8.9h-9.5
		l-4.6,4.7c-12.2,12.6-19.9,31.7-20.7,51.7c-0.4,9.5-0.3,11.8,1.4,17.5c7.4,24.4,31.7,48.7,60.4,60.5c15.7,6.4,34.3,11.4,48.6,13.2
		c28.4,3.4,45.8-3.2,54.4-21.1c7.3-15,7.8-38.5,1.4-59c-5.1-16.4-26.5-44-53.4-69.1c-8.4-7.7-11.4-10.1-13.2-10
		C1355.3,1867.7,1350.4,1868.9,1345.7,1870.4z M1374.9,1953.6c10.2,3.5,18.8,15.6,22,30.9c1.3,6.1,1.3,7.8,0.4,11.5
		c-1.6,5.9-5.2,10.1-11.8,13.5c-12.6,6.6-21.8,2.6-30.5-13.2c-8.9-16-8.9-33.4,0-39.8C1361.1,1952.2,1367.7,1951.2,1374.9,1953.6z"
		/>
	<path id="structure31_label30_ArcL" bar:growlevel="0" bar:type="" class="st66" d="M1180.7,2141.8c0.4,3.4,0.7,11.8,0.6,18.7
		c0,14.9-2,23.9-7.7,34.6c-3.8,7.4-4.2,9-2.3,9c4.1,0,23.5,6.7,36.5,12.6c9.5,4.2,14.2,5.9,14.9,5.2c0.3-0.4,1-4,1.4-8
		c1.9-14.7-2.6-39.1-8.9-48.3c-5.7-8.4-30.3-29.9-34.1-29.9C1180.2,2135.8,1180.1,2136.7,1180.7,2141.8z"/>
	<path id="structure32_label31_ArcM" bar:growlevel="0" bar:type="" class="st67" d="M1129.2,2132.2c-2.6,0.5-6.7,1.6-9,2.5
		l-4.4,1.6l-0.3,15.5c-0.2,13.9-0.1,15.8,1.5,19c4,7.6,17.4,19.7,30.6,27.4c3.9,2.3,6.8,3.2,13,4.1c9.2,1.2,8.4,1.6,13.1-7
		c5-9.4,6.6-16.8,7-33.8c0.3-10.4,0-17.3-0.8-21.6l-1.2-6.3l-7.6-0.5C1155.8,2131.8,1133.7,2131.5,1129.2,2132.2z"/>
	<path id="structure33_label32_SOR" bar:growlevel="0" bar:type="" class="st68" d="M1461.9,2112.9c-12.5,3.3-24.4,12.5-29,22.4
		c-3.2,6.8-4.6,16.7-2.3,16.7c2.5,0,49.1-37.2,49.1-39.2C1479.8,2111,1468.5,2111.1,1461.9,2112.9z"/>
	<path id="structure34_label33_A13" bar:growlevel="0" bar:type="" class="st69" d="M1203,1811.5c-9.4,1.3-21.6,5.4-25.5,8.6
		c-2.1,1.6-1,12.8,1.6,18.1c5.6,11.1,20.4,20.8,40.1,26.3c7.1,2,30,2.7,40.5,1.4c12.4-1.7,33.2-6,43.1-9.2
		c14-4.3,21.7-8.4,28.2-14.8c11.3-11.3,11-19.7-1-23.3c-6-1.8-21.5-3.8-38.4-4.9c-7.6-0.5-20.6-1.5-28.8-2.3
		C1244.2,1809.7,1216,1809.7,1203,1811.5z"/>
	<path id="structure3_label2_PLH" bar:growlevel="0" bar:type="" class="st70" d="M1762.5,1794.4c-18.3,15.6-26.5,21.4-39,27.7
		c-11.4,5.8-18.6,8.7-28.8,11.3c-7.4,1.9-7.5,2-17.8,11.6c-32.3,30.2-75.1,64-87.6,69.1c-7.4,3.1-21.7,3.8-30.4,1.6
		c-3.5-0.9-5.8-1.2-6-0.6c-0.2,0.5-1.8,3.2-3.7,6.1c-8.9,13.9-31,27.7-47,29.6c-13,1.5-21-5.7-21.1-19c0-5.4,0.5-7.3,3.1-12.5
		c3.8-7.7,13.7-17.9,24.7-25.3c4.3-2.9,7.8-5.6,7.8-5.8c0-0.4-1.6-3.4-3.6-6.8c-14.4-25.1-14-61.3,0.9-86.1c3.9-6.5,4.3-7.8,2.3-7.8
		c-2.9,0-96,47-111.6,56.3c-16.3,9.8-29.4,16.5-39.9,20.3c-3.1,1.2-5.6,2.5-5.4,3.1c0.2,0.5,4.8,5.1,10.2,10.1
		c16.6,15.2,34,35.4,44.7,51.7c10,15.2,13.6,27.6,13.6,47.3c0.1,13.3-1.2,19.6-6,29.7c-4,8.2-8.2,13-14.8,16.5
		c-7.8,4.2-14.5,5.6-26,5.7c-16.1,0-32.6-3.2-53.5-10.5c-22.9-8-41.5-20.9-55.8-38.9c-5.9-7.4-12.8-20.5-14.8-28.5
		c-4.4-17.4,3.5-45.9,17.5-63.2c2.4-3.1,4.5-6.1,4.5-6.8c0-0.8-1.4-1.4-4-1.8c-5.8-0.8-13.6-4-18.1-7.5c-5-3.8-6.8-3.9-8.8-0.5
		c-5.9,10-28,28.4-43,35.8c-4.9,2.3-8.8,4.8-8.9,5.4c0,0.5,2.6,3.1,5.8,5.6c9.3,7.4,14,16.2,12.7,23.4c-2,10.9-16.8,21.6-41.6,30.2
		c-17.7,6.1-28.2,10.5-28.2,12c0,1,0.6,1.3,2.5,0.9c1.3-0.3,5.7-1.1,9.6-1.9c14.5-2.8,41.5-1.3,58.2,3.2
		c10.7,2.9,27.2,9.7,37.9,15.8c11.9,6.8,33.8,21.4,41,27.6c19.6,16.7,36.2,46.9,40.2,73.7c1.6,10.7,1.3,26.3-0.9,36.4
		c-1.4,6.8-5.5,18.3-6.8,19.6c-1.1,1.1-1.2,4.1-0.1,4.1c0.4,0,4.6-1.8,9.4-4.1c11.9-5.7,20.6-7.8,31.7-7.9c7.9-0.1,9.5,0.2,13.5,2.2
		c3.8,1.8,5,3.1,7.1,7.5c2.8,5.6,3.6,12.3,2.1,18.3c-0.6,2.5-0.5,3,0.7,3c1.7,0,10.9-6.2,26.6-18.1l10.4-7.8l1-7.6
		c0.6-4.4,2.1-9.5,3.5-12.4c6.8-14.1,27.5-25.2,44.6-24l6,0.4l3.7-4.6c5.5-6.8,7.7-11.2,8.9-17.2c3.5-17.6,18.7-54.5,31.9-77.3
		c6.4-11.1,5.8-11.8-4.5-5c-7.6,4.9-15,7.6-18.7,6.7c-2.7-0.6-6.6-5-7.4-8.2c-2-7.7,5-24.2,14-33.1c13-12.9,28.8-18.4,33.7-11.9
		c1.6,2.3,1.9,3.9,1.9,12c0,5.9,0.4,9.4,0.9,9.4c0.5,0,3.5-3.2,6.8-7c8-9.6,56.3-57.7,66.5-66.2c10-8.3,20.9-15.5,32.3-21.4
		c10.1-5.2,15.8-5.8,19.5-2.1c3,2.9,2.9,5.9-0.5,14.9c-3.4,9.4-7.6,17.4-39.6,74.2c-40.9,72.7-53.7,94.7-66,112.8
		c-5.9,8.7-6.2,9.4-5.7,13.1c2.4,16,22.1,36.8,55.4,58.7c43.2,28.4,118.2,63.2,154.6,72c3.6,0.8,6.7,1.4,6.8,1.3
		c0.5-0.7,5-23.8,5-26.1c0-2-0.5-2.4-4.7-3.5c-25.7-6.5-104.4-36-127.6-47.7c-23.7-12.1-47.9-28.7-52.4-36.1
		c-3.7-5.9-5.5-15.7-4.9-26c0.7-11.2,3.2-20.3,8.5-29.7c27.7-50.5,35.8-67.2,48.7-100.1c21.9-56,28.4-68.8,41.8-81.4
		c7.6-7.3,14.5-10.9,23.1-12.2c14.8-2.3,22.5,5.4,22.5,22.4c0,4.9,0.3,6.6,1.2,6.6c0.8,0,1.7-3.2,2.8-10.4
		c1.5-10.6,4.3-22.1,8.1-34.5c1.3-3.8,2.9-10.5,3.8-14.9c3.1-16.2,11.1-34.5,20.6-47.1c4.9-6.6,6-9.2,3.8-9.2
		C1777.6,1782.1,1770.5,1787.7,1762.5,1794.4z"/>
	<path id="structure40_label39_PLCo-1" bar:growlevel="0" bar:type="" class="st71" d="M1783.7,2204.8c-1,1.8-5.3,25.5-4.9,26.6
		c0.4,0.9,3.9,1.9,10.7,3.2c23.2,4.2,39.1,5.9,70,7.4c21.5,1.1,25.9,0.9,47.2-1.9c7.3-0.9,13.5-1.7,13.7-1.7c0.2,0,0.4-5.9,0.4-13.1
		V2212l-11.9,0.6c-6.6,0.4-17.8,1.3-25,2c-13.9,1.5-22.9,1.3-43.6-1.1c-13.6-1.5-36.2-5.1-47.4-7.6
		C1783.7,2203.9,1784.2,2204,1783.7,2204.8z"/>
	<path id="structure41_label42_LaDL" bar:growlevel="0" bar:type="" class="st72" d="M2065.7,1717.4c-8.6,4.7-18.5,11.3-27,18.3
		c-14.9,12.1-34.6,32.7-44.2,46.4c-3.6,5.1-4.1,6.5-4.1,10.3c0.1,5.5-4.1,14.9-13.6,30.3c-3.6,5.8-6.5,11.1-6.5,11.7
		c0,0.7,1.6,2.9,3.7,4.8c10.3,10.1,22.5,27.3,29.3,41.7c5.3,11.3,7.9,14.9,12.9,17.9c3.1,2,4.2,2.1,20.8,2.1
		c11.2,0.1,20.2,0.5,24.7,1.4c4,0.7,7.4,1.3,7.6,1.3c0.2,0,0.1-1.6-0.3-3.6c-0.3-2-1-9.5-1.4-16.8c-1.4-21.1,0.2-40,6.4-74
		c3.6-20.1,4.7-35,3.6-51.8c-1.9-29.6-3.1-43.7-4.1-43.7C2072.9,1713.7,2069.4,1715.4,2065.7,1717.4z"/>
	<path id="structure42_label43_BLP" bar:growlevel="0" bar:type="" class="st73" d="M2024.3,1901.5c-2.9,0.2-5.7,1-6.6,1.9
		c-2.6,2.3-6.7,10.9-8.7,18.4c-3.5,12.4-4.5,42.4-2.7,76.8c0.8,14.6,2.8,32.4,3.8,33.3c0.2,0.2,10.4,0,22.8-0.5
		c23.1-0.7,27.9-1.5,35.6-5.4c3.8-2,7.7-5.9,8.8-9c1.2-3.3-0.4-53.9-2.1-68.4c-2.8-23.3-5.6-44.2-5.9-44.6
		C2067.4,1902.3,2036,1900.5,2024.3,1901.5z"/>
	<path id="structure43_label44_DEn" bar:growlevel="0" bar:type="" class="st74" d="M2085,1758.9c0.9,12.3,0.7,27.7-0.4,35.6
		c-0.5,3.5-2.6,13.9-4.7,22.9l-3.9,16.5l0.1,27.9c0,25.8,0.2,28.4,2,35.3c10.2,38,26.8,59.5,49.7,64.3c5.7,1.2,20.7,0.6,24.8-1
		c4.8-1.8,8.5-6.2,10.4-12.6c5-15.7,2-61.5-5.6-84.1c-7.2-21.6-29.2-60.8-51.8-92.5c-8.7-12.2-17.4-21.4-20.1-21.4
		C2084.6,1749.7,2084.5,1751.8,2085,1758.9z"/>
	<path id="structure44_label45_ASt" bar:growlevel="0" bar:type="" class="st75" d="M1820.6,1147.8c0.5,23.7,2.2,69.5,2.6,69.9
		c0.2,0.2,2.7-0.8,5.5-2.3c4.8-2.4,5.9-2.6,14.7-2.6c8.2,0.1,10.2,0.4,15.3,2.5c12,5,23.6,16,34.6,32.6
		c10.4,15.7,17.1,30.7,20.3,45.9c3.2,15.6,1.8,25.6-6.4,44.1c-7.9,17.9-8.5,21.5-10.8,72.4c-1,22.1-2.4,34-5.4,43.5
		c-1.6,5.2-1.7,6.5-0.7,7.8c5.3,7.2,9.5,13.7,13.4,20.9c6.1,11.3,23.8,48.9,26,55.5c7.2,21.5,3.4,48.5-12.8,90.1
		c-10,25.6-30.2,66.6-38.2,77.6c-6.8,9.3-19.3,19.1-46.9,36.9c-16.6,10.6-20.8,14.2-16.9,14.2c0.7,0,4.9-2,9.2-4.3
		c10.4-5.8,22-10.5,28.4-11.9c15.3-3.1,59.1,10.3,67.2,20.6c4,5,12,18.5,17.5,29.4c6,12.1,10.9,25.6,12.4,34.8
		c0.6,3.8,1.6,6.9,2.1,6.9c0.5,0,2.3-2.3,4-5.2c4.1-7.3,19.1-27.7,24.3-33.2c2.4-2.5,5.6-4.9,7.1-5.4c2.1-0.5,4.5-3.2,9.8-10.2
		c3.9-5.2,12.6-15,19.3-22c18.4-19,35-31.9,51.1-40c4.1-2.1,7.4-4.1,7.4-4.7c0-0.4,0.6-6.5,1.4-13.2c4.2-38.7,4.1-71.2-0.1-119
		c-2.1-23.6-4.5-39.2-8.8-56.2c-5.8-22.7-33.3-105.2-46.9-140.5c-22.3-58.2-44.5-102.6-71.1-142.7c-15.1-22.7-27.7-38.2-45.4-55.9
		c-24.9-24.8-48.3-40.6-73.7-49.8C1819.5,1130.8,1820.2,1129.8,1820.6,1147.8z"/>
	<path id="structure45_label46_CeC" bar:growlevel="0" bar:type="" class="st76" d="M1891.6,1749.4c-1.1,3.9-2.4,13.7-4.1,31.3
		c-3.6,35.5-7.2,47-20.8,65.3c-6.9,9.4-13.2,14.8-19.2,16.6c-5.9,1.7-8.8,1.4-15.7-2c-2.5-1.4-4.9-2.1-5.3-1.8
		c-0.8,0.8,3,20.2,6,30.8c3.5,12.2,4,16.8,2.3,23.4c-1.8,6.6-5,12.2-10.1,17.6c-2.2,2.3-3.9,4.6-3.9,5.1c0,1.7,9.1,3.9,18.5,4.4
		c16.2,0.9,27.5-3.3,51.2-19c32.9-21.8,57.7-55.3,59.7-80.6c1.4-17.6-7.6-43.1-24.9-71c-6.7-10.7-11-14.1-23.5-19
		C1893.6,1747.4,1892.3,1747.3,1891.6,1749.4z"/>
	<path id="structure46_label47_CeL" bar:growlevel="0" bar:type="" class="st77" d="M1847.4,1742.1c-5.3,1.6-6.6,3-11.3,12.2
		c-7.6,14.7-13.4,39.6-14.1,60.1c-0.5,15.1,1.6,36.4,4.1,40.9c2.2,3.9,10,7.7,15.8,7.7c9.2,0,16-5,26.2-19.3
		c12.2-17.2,15.4-27.7,18.9-63.5c0.7-7.7,2-18.2,2.8-23.3c0.8-5.1,1.1-9.6,0.6-10c-1-0.9-10.1-3.2-19.1-4.9
		C1862.1,1740.3,1853.4,1740.4,1847.4,1742.1z"/>
	<path id="structure47_label49_I" bar:growlevel="0" bar:type="" class="st78" d="M1774.5,1982.2c-13.2,5.1-24,12.1-28.7,18.4
		c-5.8,8-7.7,19-4,22.7c2.9,2.9,6.1,1.9,21.8-6.3c13.4-7,13.8-7.3,17.4-12.9c4.7-7.2,6.7-12.3,6.7-17.3
		C1787.6,1979.9,1784,1978.6,1774.5,1982.2z"/>
	<path id="structure48_label50_Pir-2" bar:growlevel="0" bar:type="" class="st79" d="M2300.9,1812.3c-4,2.1-13.2,11.5-17.8,18.4
		c-6.4,9.7-8.8,15.3-29.3,68.7c-38.9,100.7-48.7,123.6-64.4,149.9c-19.1,31.8-44,61-66.6,78.1c-30.1,22.6-72.1,40.2-114.9,48.1
		c-10.3,2-12.8,2.1-48.4,1.9l-37.6-0.3v16.9v16.8l35.8-0.1c38.3,0,43.7-0.4,65-5.3c35.4-8.1,75.2-25.6,107.6-47.3
		c31.1-20.8,59.8-50.4,78-80.6c19.2-31.7,36.3-72.6,54.6-130.4c8.6-27.4,14.5-42.4,25.1-65.2c12.6-26.9,26.7-51.1,35.6-61
		c6-6.7,6.5-6.2-8.6-8.7C2304.4,1810.6,2304.5,1810.6,2300.9,1812.3z"/>
	<path id="structure49_label51_Pir-3" bar:growlevel="0" bar:type="" class="st80" d="M2100.8,1762.7c0,0.8,1.5,3.5,3.4,6.1
		c21.1,28.5,43.6,68.3,52.6,92.4c6.7,17.7,11,54.7,8.8,74c-2.4,21.4-8.6,27.3-28.4,27.2c-9.7-0.1-17.1-2.3-25.1-7.6
		c-2.9-1.9-5.7-3.5-6.1-3.5c-0.5,0-0.7,1.2-0.4,2.9c2.8,14,2.9,39,0.1,50.2c-2.3,9.5-5.8,17.7-10.5,24.8
		c-9.6,14.4-22.9,21.4-30.1,16c-2.9-2.2-6.6-8.1-6.6-10.7c-0.1-3.5-1.3-4.2-6-3.6l-4.4,0.6l-1.2,5.6c-1.6,7.6-5.7,17.7-10.3,25.7
		c-12.8,21.9-44.5,43.7-68.9,47.8c-17.4,2.9-34.2-5.5-44.7-22.3c-2.3-3.6-4.6-6.6-5.1-6.6c-0.6,0-1.9,0.8-2.8,1.7
		c-3.6,4-25.3,12.7-46.5,18.5c-3.3,0.9-5.2,1.9-5.2,2.7c0,0.7,0.7,1.4,1.6,1.4c3.2,0,23.5,7.5,32.4,11.9
		c10.9,5.4,16.8,10.3,19.3,15.9c2.8,6.5,4.2,16.6,4.3,29.9v12.3l14.7,0.6c8.1,0.4,26.4,0.4,40.8,0.2c24.8-0.4,26.6-0.5,39.1-3.1
		c26.6-5.7,46.1-12.3,69.8-24c39.7-19.5,66.9-44.1,94.5-85.5c21.9-32.7,30.1-51.4,75.1-168.3c9.5-24.8,18.6-47.9,20.3-51.3
		c5.8-12.3,14.8-24.5,21.9-29.7c3.2-2.3,4.9-4.9,3.2-4.9c-0.3,0-9.1-1.4-19.5-3.2c-86.6-14.5-140.2-27.5-168.7-41
		c-5.2-2.5-9.9-4.5-10.3-4.5C2101.2,1761.4,2100.8,1762,2100.8,1762.7z"/>
	<path id="structure4_label3_PTe" bar:growlevel="0" bar:type="" class="st81" d="M1531.2,1959.4c-11.8,4.2-23.7,14.9-29.3,26.3
		c-9.5,19.3-3.7,32,12.1,26.4c9.4-3.3,25.9-17.4,29.7-25.2c3-6.1,4.1-15.4,2.8-21.5C1544.7,1957.4,1540.8,1956,1531.2,1959.4z"/>
	<path id="structure50_label52_AIP" bar:growlevel="0" bar:type="" class="st82" d="M2228,1635.1l-134.3,0.3l-0.5,5.2
		c-0.8,7.1-3.8,30.8-6.4,50.6c-1.4,10.6-2.4,23.7-2.8,36l-0.5,19.4l4.7,4.2c23.3,20.9,76.5,36.2,194.5,55.9
		c36.9,6.1,68.1,10.7,69.5,10.2c0.7-0.2,3.7-8.5,6.8-18.3c13.7-44.3,19.1-70.3,19.1-93c0-13.1-1.3-20.7-6.8-37.3
		c-3.8-11.4-4.2-13.9-4.7-23.4c-0.4-10.1-0.5-10.5-2.3-10.3C2363.1,1634.8,2301.9,1635,2228,1635.1z"/>
	<path id="structure51_label53_GP" bar:growlevel="0" bar:type="" class="st83" d="M1886.9,1465.5c-0.5,1.6-7,19.5-14.5,39.9
		c-15.4,42.1-28.6,81-35.3,103.9c-5.4,18.3-12.1,35.7-20.6,53.6c-24.5,51-70.3,114-115.7,158.8c-5.2,5.2-9.5,10-9.5,10.5
		c0,1.8,3.1,1.3,12-1.6c10.5-3.5,24.3-10.2,33.5-16.1c4-2.6,15.5-11.7,25.6-20.2c32-26.7,38.3-31.4,77.9-57.5
		c23-15.1,31.4-22.1,38.1-30.8c5.3-7.1,23.1-41.8,31.9-62.3c10.6-24.6,18-47,20.9-63.6c2-11.5,1.8-28-0.4-37.3
		c-3.1-12.7-27.6-63.8-36.6-76.1C1890.4,1461.8,1888.2,1461.4,1886.9,1465.5z"/>
	<path id="structure52_label54_CPu" bar:growlevel="0" bar:type="" class="st84" d="M1820.6,1147.8c0.5,23.7,2.2,69.5,2.6,69.9
		c0.2,0.2,2.7-0.8,5.5-2.3c4.8-2.4,5.9-2.6,14.7-2.6c8.2,0.1,10.2,0.4,15.3,2.5c12,5,23.6,16,34.6,32.6
		c10.4,15.7,17.1,30.7,20.3,45.9c3.2,15.6,1.8,25.6-6.4,44.1c-7.9,17.9-8.5,21.5-10.8,72.4c-1,22.1-2.4,34-5.4,43.5
		c-1.6,5.2-1.7,6.5-0.7,7.8c5.3,7.2,9.5,13.7,13.4,20.9c6.1,11.3,23.8,48.9,26,55.5c7.2,21.5,3.4,48.5-12.8,90.1
		c-10,25.6-30.2,66.6-38.2,77.6c-6.8,9.3-19.3,19.1-46.9,36.9c-16.6,10.6-20.8,14.2-16.9,14.2c0.7,0,4.9-2,9.2-4.3
		c10.4-5.8,22-10.5,28.4-11.9c15.3-3.1,59.1,10.3,67.2,20.6c4,5,12,18.5,17.5,29.4c6,12.1,10.9,25.6,12.4,34.8
		c0.6,3.8,1.6,6.9,2.1,6.9c0.5,0,2.3-2.3,4-5.2c4.1-7.3,19.1-27.7,24.3-33.2c2.4-2.5,5.6-4.9,7.1-5.4c2.1-0.5,4.5-3.2,9.8-10.2
		c3.9-5.2,12.6-15,19.3-22c18.4-19,35-31.9,51.1-40c4.1-2.1,7.4-4.1,7.4-4.7c0-0.4,0.6-6.5,1.4-13.2c4.2-38.7,4.1-71.2-0.1-119
		c-2.1-23.6-4.5-39.2-8.8-56.2c-5.8-22.7-33.3-105.2-46.9-140.5c-22.3-58.2-44.5-102.6-71.1-142.7c-15.1-22.7-27.7-38.2-45.4-55.9
		c-24.9-24.8-48.3-40.6-73.7-49.8C1819.5,1130.8,1820.2,1129.8,1820.6,1147.8z"/>
	<path id="structure53_label55_Rt" bar:growlevel="0" bar:type="" class="st85" d="M1648.4,1245.1c-9.5,6.9-18.7,21.6-20.9,33.1
		c-2.3,12.5,3.9,27.8,16.4,40.5c10.6,10.7,21.6,16.9,50.1,28.2c20.3,8.1,32.9,14.2,39,19.3c14.2,11.8,18.7,24.3,18.8,51.8
		c0.1,22.7-2.3,37.3-11.4,72c-2.6,9.9-6.8,26.6-9.4,37.1c-8.3,33.9-17.9,58.2-32,80.4c-22.7,35.6-56.1,61.7-126.2,98.4
		c-9.5,4.9-17.4,9.5-17.4,10.2c0,1.8,2.7,2.4,13.5,2.8c11.2,0.4,21.5-0.9,32.6-4.2c4.8-1.4,8.6-3.9,19.1-11.5
		c7.2-5.3,19.3-13.4,27-18.1c32.4-19.4,58-37.6,68.7-49c23.1-24.4,68-104.8,81.3-145.5c6.8-21,9.5-40.2,9.5-67.5
		c0-29.1-3.1-47.1-10.4-62.6c-7.9-16.8-27.2-30.3-71.5-50.4c-10.1-4.5-12.5-6-17.4-10.9c-7.5-7.4-12-16.7-12.6-26
		c-0.4-5.6-0.7-6.6-2.3-7.4c-1.2-0.4-6.2-4.1-11.4-7.9c-16.7-12.3-23.2-16.6-25.9-16.6C1654.5,1241.2,1651.3,1243,1648.4,1245.1z"/>
	<path id="structure54_label56_VPL" bar:growlevel="0" bar:type="" class="st86" d="M1652,1339.3c-18.5,2.7-32.4,12.5-34.1,24.2
		c-0.6,4.2,0.1,16,3.2,51.8c3.1,35.6,3.8,51.9,3.3,73.9c-0.4,19.4-0.6,22.4-2.7,30.6c-7,27.4-24.3,56.1-44.4,73.7
		c-3.4,3.1-9.3,8-13.1,11.1c-8.1,6.6-14.8,13.8-23.3,25c-15.8,21.1-23.5,39.4-23.6,56.6c-0.1,11.6,0.2,12.2,7.4,16.5
		c9.4,5.7,24.4,12.8,26.8,12.8c2.4,0,13.9-5.6,34.4-16.8c42.6-23.3,68.8-41.3,88.2-60.6c11.3-11.3,19.1-21.2,28.4-37.1
		c12.9-21.5,19.8-40.1,29.3-78.6c3.4-13.9,8.1-32,10.3-40.4c2.3-8.3,5.2-21.5,6.6-29.3c2.2-12.4,2.4-16.3,2.4-33.8
		c0-22-0.9-27.6-5.9-37.4c-4.6-9.2-13.5-17.4-25.1-23.3c-6.7-3.4-43.4-18.1-47.3-19C1668.5,1338.3,1658.4,1338.4,1652,1339.3z"/>
	<path id="structure55_label57_DI" bar:growlevel="0" bar:type="" class="st87" d="M2241.5,1552c-83.3,2.5-151.6,4.9-152,5.2
		c-0.4,0.4,0.3,10.7,1.4,22.9c1.1,12.3,2.2,29.8,2.4,38.9l0.5,16.6l70.2-0.5c38.6-0.4,100.1-0.6,136.5-0.6h66.2l1.6-5.2
		c2-6.2,5.5-12.8,11.1-20.3c4.9-6.6,8.8-14.7,13.3-27.6c2.8-8.2,9.4-31.6,9.4-33.6c0-0.4-2.2-0.5-4.7-0.5
		C2395,1547.4,2324.7,1549.5,2241.5,1552z"/>
	<path id="structure56_label58_GI" bar:growlevel="0" bar:type="" class="st88" d="M2246.3,1463.9c-92.4,12-168.3,22.1-168.6,22.3
		c-0.3,0.3,0.7,6.7,2.3,14.2c1.5,7.7,4.1,23.1,5.6,34.6c1.6,11.3,3,20.8,3.1,21c0.2,0.2,289.6-8.3,308.2-9c6.8-0.3,5.7,2,10.4-21
		c6.6-32.1,9.5-53,10.8-75c0.4-9.1,0.4-9.2-1.5-9.1C2415.3,1442.1,2338.8,1451.9,2246.3,1463.9z"/>
	<path id="structure57_label59_S2" bar:growlevel="0" bar:type="" class="st89" d="M2202.3,1257.2
		c-124.2,43.2-175.3,61.3-175.3,62.2c0,0.7,6.7,21.4,14.8,45.9c19.5,58.9,26.6,82.6,33,110.5c2.1,8.7,2.3,9.3,4.4,9.3
		c1.3-0.1,78-9.9,170.5-22l168.3-21.8l-0.3-15.8c-0.6-39-6.7-87.8-17.3-141.2c-8.1-40.8-20-88.3-22-88.1
		C2378,1196.3,2298.7,1223.7,2202.3,1257.2z"/>
	<path id="structure58_label60_S1ULp" bar:growlevel="0" bar:type="" class="st90" d="M2159.9,1159.6
		c-94.4,37.3-171.9,68-172.2,68.3c-0.3,0.3,3.3,8.3,8,17.9c9.6,19.5,20,43.6,25.8,59.7c2.2,5.9,4.1,11.2,4.6,11.6
		c0.5,0.6,351.3-120.2,352.7-121.6c0.6-0.6-6.1-19.9-12.7-36.3c-6.9-17.4-12.4-29.5-23-51.6c-6.5-13.2-8.1-15.9-9.6-15.9
		C2332.5,1091.9,2254.4,1122.4,2159.9,1159.6z"/>
	<path id="structure59_label61_LV" bar:growlevel="0" bar:type="" class="st91" d="M1614.8,940c0,0.6,3.1,3.2,7,5.5
		c20.9,12.9,34.2,24.4,45.6,39.6c17.3,22.9,40.9,65.8,49.4,89.4c3.6,10.1,5.6,18.8,9,39.8c4.4,26.4,4.3,26.2,23.7,44.3
		c8.3,7.7,23.2,22.3,33.2,32.4c15.7,15.8,18.5,19.2,21.3,24.9c1.8,3.6,3.3,7.6,3.3,8.7c0,2.1,0.3,2.2,5.7,2.2h5.6l1.7-4.1
		c1.4-3.6,1.6-5.4,1-13.2c-0.4-5-0.9-23.6-1.3-41.1c-0.6-28.7-0.9-32.8-2.7-39.5c-3.9-14.9-9.5-26.9-18.7-40.1
		c-19.1-27.5-71-83.1-94.5-101.3c-25.6-19.7-54.2-36.5-77.8-45.5C1617.9,938.5,1614.8,938.1,1614.8,940z"/>
	<path id="structure5_label4_DA" bar:growlevel="0" bar:type="" class="st92" d="M1167.9,1825c-10.1,6.1-22.5,15.9-31.2,24.8
		c-13.5,13.6-16.4,20-15.4,34l0.5,7.9l5.9,0.6c23.6,2.3,42.8,7,56.6,13.7l10.2,5l9.2-4.5c9.2-4.5,19.3-11.3,28.4-19.1
		c5.8-5,16.3-16.9,16.3-18.7c0-0.9-1.6-1.2-6.2-1.2c-14.7,0-29.1-3.6-42.8-10.6c-14.4-7.4-22.6-17.8-23.7-30c-0.3-3.1-1-5.3-1.5-5.3
		C1173.8,1821.7,1170.9,1823.2,1167.9,1825z"/>
	<path id="structure60_label62_S1BF" bar:growlevel="0" bar:type="" class="st93" d="M1851,809.4c-43.6,79.8-79.2,145.5-79.2,146.2
		c0,0.5,4.5,4.7,10.1,9.2c23.1,18.9,43.3,39.4,73.6,74.9c49.9,58.2,97.7,125.9,125.5,178.1c4.5,8.3,5.1,9.2,7.2,8.9
		c1.3-0.2,79.3-30.7,173.4-67.8c137.7-54.3,171.3-67.8,171.3-69.1c0-2-3.3-8.6-14.7-29c-53.5-96.2-123.5-191.6-188.3-256.5
		c-41-41.1-96-82-158-117.6c-18.3-10.5-40-22.3-41-22.3C1930.6,664.3,1894.6,729.6,1851,809.4z"/>
	<path id="structure61_label63_S1DZ" bar:growlevel="0" bar:type="" class="st94" d="M1799.3,781.3c-37.7,80.7-68.5,147-68.3,147.2
		c0.3,0.2,5.1,3.3,10.8,7c5.8,3.7,14.4,9.5,19.2,13.1c4.9,3.6,9.2,6.4,9.7,6.2c1-0.4,159.1-289.3,159.1-290.7
		c0-1.3-58.2-29.5-61-29.5C1868.3,634.6,1837.1,700.6,1799.3,781.3z"/>
	<path id="structure62_label64_S1Tr" bar:growlevel="0" bar:type="" class="st95" d="M1476.7,552.9c-0.7,5.6-23.9,295.3-23.7,295.6
		c0.1,0.1,11.6,1.9,25.6,3.9c61.9,9,119.2,21.3,159.6,34.4c26.3,8.5,56.4,21.5,78.8,33.9c6.4,3.6,12.2,6.4,12.9,6.3
		c1.4-0.3,136.9-289.1,137-291.9c0-1.4-1.3-2.3-4.8-3.8c-49.9-20.9-85.4-33.7-124.2-44.9c-77.2-22.3-141.4-31.9-248.3-36.9
		l-12.2-0.5L1476.7,552.9z"/>
	<path id="structure63_label66_M1" bar:growlevel="0" bar:type="" class="st96" d="M1385.3,550.2c-8.6,0.5-16,1.2-16.4,1.4
		c-0.4,0.4,0.5,60.9,2,134.7c1.4,73.7,2.7,139,2.7,145.1v11.1h5.8c8.5,0,30.7,1.7,52.7,4c10.6,1.2,19.6,1.8,19.9,1.4
		c0.5-0.5,24.3-293.9,24.2-297.8C1476.2,548.8,1410.9,548.8,1385.3,550.2z"/>
	<path id="structure64_label67_M2" bar:growlevel="0" bar:type="" class="st97" d="M1351.1,552.8c-24.6,2.5-54.1,7.1-72.5,11.3
		c-16,3.5-30.2,7.7-30.2,8.8c-0.1,0.5,16.3,62.6,36.2,138c28.1,106.1,36.5,137.1,37.6,137.1c0.8,0,5.3-1,10.2-2.3
		c9.9-2.5,29.9-4.4,36.7-3.5l4.4,0.6l-0.5-17c-0.7-22.9-4.9-249.5-4.9-263.2v-10.8l-4.7,0.1C1360.9,552,1355.3,552.4,1351.1,552.8z"
		/>
	<path id="structure65_label68_RSD" bar:growlevel="0" bar:type="" class="st98" d="M1242.6,573.6c-34.7,12.1-58.5,26.4-81.1,48.9
		c-19.3,19.3-32.4,40-40.5,64.2c-2.9,8.5-6.7,25.9-6.7,30.6v3.5l92,69.1c50.6,38,92.6,69.3,93.5,69.5c0.8,0.3,4.5-1.4,8.2-3.5
		c3.6-2.2,7.9-4.5,9.5-5.1c1.5-0.7,2.9-1.7,2.9-2.3c0-1-67.8-257.7-71.6-271.2C1247.5,572.3,1247.1,572,1242.6,573.6z"/>
	<path id="structure66_label69_RSGc" bar:growlevel="0" bar:type="" class="st99" d="M1113.5,877.9v156.2h5.9c5.5,0,5.8-0.2,7.1-2.6
		c1.8-3.4,6-6.8,10-8.2c2.7-0.9,4-0.8,7.9,0.4c2.5,0.8,5.8,2.3,7.2,3.3c5.1,3.7,13.3,0.2,37.5-15.8c22.1-14.8,27.5-19.5,37.4-32.8
		c11.8-15.9,21.4-32.5,35.5-60.9c14-28.2,20.6-38.9,30.4-49.2c3.7-3.9,6.5-7.5,6.2-8.2c-0.5-1.4-181.3-137.5-183.5-138.2
		C1113.6,721.7,1113.5,729.5,1113.5,877.9z"/>
	<path id="structure67_label70_Or" bar:growlevel="0" bar:type="" class="st38" d="M1421.7,919.5c-17.5,1.4-33.4,5.5-46,11.9
		c-14.2,7.2-21.9,13.7-56.6,47.9c-82,80.6-108.3,101-151.4,116.9c-17.3,6.3-40.9,11.8-50.8,11.8h-4.3v4.2v4.1l17.4-0.5
		c15-0.5,20.3-1.1,40.2-4.7c28.5-5.1,36.2-6.9,43.6-10.3c12.5-5.7,29.3-18.8,54.5-42.9c7.2-6.8,26-24.3,41.8-39
		c15.8-14.6,36.5-34.1,45.9-43.4c18-17.6,24-22.2,35.3-26.9c14.9-6.2,36.8-9.8,53.5-8.6c16.4,1.1,46.9,7.7,70,15.1
		c6.4,2.1,19.6,7.6,30.6,12.9c10.6,5.1,24.4,11.3,30.5,14c33.8,14,55.1,29.5,63.5,46.2c4.3,8.6,5.5,15.1,5.4,30.3
		c0,12.7-0.2,14.6-2.4,21.2c-4.3,12.9-11.1,22.1-21.7,29.6c-7.6,5.4-11.1,7-25,11.8c-37,12.8-96,26.5-135.3,31.5
		c-27,3.5-37.9,5.2-48.6,7.7c-19.5,4.5-41.4,14.7-69.3,32.2c-17.2,10.8-24.2,13-31.5,9.4c-1.7-0.8-3.4-1.3-3.7-0.9
		c-1.4,1.4,0.9,8.4,3.9,11.3c2.7,2.7,3.3,3,6.6,2.4c2-0.3,11-3.6,20-7.3c30.2-12.6,60.7-22.1,70.5-22.1c2.7,0,7.6-0.6,10.9-1.4
		c3.4-0.7,9.2-1.3,12.9-1.2c5.8,0.1,7.7-0.3,13.3-2.6c20.3-8.6,64.8-18.9,118-27.2c9.6-1.4,21.3-3.7,26.1-4.9
		c43.7-11.1,67.5-31.5,80-68.8c9.6-28.9,1.6-51.7-28.5-80.6c-22-21.2-49.3-40.6-74.6-53.3c-26.5-13.3-51.6-20.7-82.4-24.3
		C1472.6,919.9,1431,918.8,1421.7,919.5z"/>
	<path id="structure68_label71_PoDG" bar:growlevel="0" bar:type="" class="st100" d="M1137.2,1136.1c0.3,1.2,1.3,4.4,2.4,7.4
		c2.1,5.7,3.8,17,5.3,34.5c1.1,12.2,3.5,20.3,6.8,22.3c1.2,0.8,6,2.7,11,4.4c4.9,1.6,14,5,20.2,7.6c17.3,6.9,19.4,7.4,33.2,7.4
		c13.5,0,21.8,1.1,48.3,5.9c27.8,5.1,33.7,4.4,67.9-7.9c10.2-3.7,26.4-10,36-14c9.6-4.1,21.1-8.9,25.5-10.7
		c7.6-3.2,10.1-5.6,5.8-5.6c-5.9,0-34,9.4-61.2,20.3c-23.3,9.4-25.7,9.5-29.6,1.9c-1.4-2.8-1.9-5.4-1.9-10.3c0-5.6,0.4-7.3,3.2-13.1
		c6.1-12.6,17-24.5,34.2-37.4c7.5-5.6,9.5-8.3,6.4-8.3c-2,0-14.1,7.7-33.2,20.8c-36.5,25.1-62.9,38.1-89.5,43.7
		c-10.5,2.3-31.2,2.2-40.1-0.1c-7.8-2.1-18-6.7-21.8-9.9c-3.7-3.2-8.1-12.1-9.4-19c-2.5-14.8-6.6-25.9-12.6-35.1
		C1139.7,1134.2,1136.1,1131.7,1137.2,1136.1z"/>
	<path id="structure69_label72_LDVL" bar:growlevel="0" bar:type="" class="st101" d="M1538.7,1182.7c-12,0.9-24.6,3.1-38.3,6.5
		c-17.5,4.3-44.1,13.8-44.1,15.7c0,0.4,1.8,4.4,4.1,8.8c14.8,29.9,13.8,80.1-3.2,153c-1.9,8.4-3.5,16-3.5,17.1c0,1.3,1.4,2.7,4,4.4
		c4.1,2.6,10.4,9,10.4,10.5c0,2.3,3.1,0,12.6-9.6c36.1-36.5,87.8-67.4,140.4-84.1c5.2-1.6,9.5-3.1,9.7-3.1c0.1-0.1-0.8-3.2-2.1-6.9
		c-3-8.9-2.9-14.1,0.4-22.9c4.2-11.6,11.2-21.2,20-27.7c2.4-1.8,4.4-3.7,4.4-4.4c0-0.6-1.5-2.2-3.3-3.3c-1.9-1.3-9.4-7.9-16.9-14.8
		c-7.4-6.9-15.9-14.4-18.9-16.6c-11.6-8.9-27.7-17.5-37.9-20.1c-4.9-1.3-23.9-3.4-27.4-3.1C1548.4,1182,1543.7,1182.3,1538.7,1182.7
		z"/>
	<path id="structure6_label5_DMD" bar:growlevel="0" bar:type="" class="st102" d="M1121.2,1902c-0.3,5.1-0.7,28.2-1,51.3
		c-0.4,31.7-0.4,42.1,0.5,42.1c0.6,0,2.8-1.4,4.8-3.2c5-4.2,24.5-13.7,38.9-18.7c25.7-9.1,34.7-13.5,42.6-20.7
		c5.1-4.8,7.4-9.3,7.4-14.9c0-6.3-1.8-10-7.8-16.3c-9.3-9.7-26.4-18.8-42.9-22.9c-11.2-2.7-31.3-5.8-37.6-5.8h-4.1L1121.2,1902z"/>
	<path id="structure70_label73_LDDM" bar:growlevel="0" bar:type="" class="st103" d="M1436.1,1216.2c-8.9,5.6-30.9,20-48.8,31.9
		c-17.9,12-33.4,22-34.4,22.3c-2.7,0.8-2.3,3.6,0.6,4.9c5.2,2.3,12.5,9,26.2,23.8c18.9,20.6,25.3,28.2,32.1,38.4
		c6.3,9.4,10.4,17.6,12.6,25.7l1.5,5.2l12.1,7.2c6.7,4,12.7,7.3,13.3,7.5c1.4,0.4,2-1.4,6.8-22.3c8.1-36,11.8-64.7,11.8-92.3
		c0-25.6-2.8-41.3-9.9-55.3c-2.6-5.4-3.8-6.8-5.6-7C1453.1,1206.1,1447.3,1209.1,1436.1,1216.2z"/>
	<path id="structure72_label75_Po" bar:growlevel="0" bar:type="" class="st104" d="M1618.6,1306c-34.9,12-62.9,25.7-91.5,45.1
		c-24.4,16.5-31.2,22.7-80.6,73.6c-13.1,13.6-29.2,29.6-35.7,35.6c-6.6,5.9-13.4,12.9-15.2,15.4c-1.9,2.4-6.9,8.5-11.3,13.7
		c-4.3,5.1-7.9,9.8-7.9,10.5c0,1.5,1.2,1.8,24.8,4.5c67.6,7.8,74.4,9.3,106.2,22.1c15.8,6.3,40.5,17.3,50,22.1c4.2,2.2,8.3,4,9,4
		c0.6,0,2.8-2.8,4.6-6.2c4.8-8.7,13.2-19.7,22.2-28.6c8-8,23.4-20.1,28.6-22.6l3-1.4v-9.1c0-13.6-1.5-38.4-4.6-74.3
		c-3.4-39.8-3.6-47.1-1.3-51.3c6.6-12.5,20.2-19.5,39.5-20.5c6.1-0.3,9.6-0.8,9.6-1.4c0-0.5-2.4-2.3-5.4-4
		c-11.5-6.3-24.4-18.4-28.9-27.4c-1.1-2.1-2.3-3.4-3.3-3.3C1629.5,1302.5,1624.2,1304.1,1618.6,1306z"/>
	<path id="structure73_label76_MDM" bar:growlevel="0" bar:type="" class="st105" d="M1293.9,1315.3c-2.4,0.5-6.3,2.3-8.5,3.9
		c-12.9,9.5-32.2,13.9-61.3,14c-9.8,0-14.8-0.4-20.3-1.7c-13.3-3.2-26.6-1.7-33.2,3.5l-2.6,2.2l2,4.2c2.8,5.7,3.3,13.1,1.6,20.1
		c-0.8,3.1-5,12.8-9.5,21.6c-12.9,25.8-12.2,23.3-11.6,44.6c0.6,25.6,3.9,41.8,10,50.9c3.3,4.9,10.6,8.9,21.7,12
		c6.1,1.6,9.7,2,23.4,2c16,0.1,16.3,0.1,20.3-2.3c12.1-7.1,43-48.2,54.4-72.1c8.6-18.4,17.5-45,21.8-65.3c1.8-8.6,2.3-14.1,2.4-23
		C1304.7,1313.6,1304.4,1313,1293.9,1315.3z"/>
	<path class="st106" d="M1162.1,1481.2c-8.1-12.7-11.3-26.5-12.3-54c-0.3-7.7-0.9-14.1-1.3-14.1c-0.5,0-2.8,1.4-5.3,3.2
		c-10.8,7.4-19.8,6.1-27-3.9c-1.2-1.7-2.5-3-3.6-3.5v70.7c12.3,0,24.7,1.2,40.5,3.4c5.1,0.7,9.5,1.1,9.8,0.8
		C1163.2,1483.5,1162.8,1482.3,1162.1,1481.2z"/>
	<path class="st107" d="M1169.7,1341.3c-2.7-5.6-6.8-7.8-16.1-9.2c-3.8-0.6-22.3-0.9-41-0.8v75.6c0.5-0.1,1,0.4,1.4,1.7
		c0.9,2.6,6.6,8.7,9.5,10.4c3.2,1.6,10.5,1.6,14.4,0c1.7-0.7,4.9-2.7,7.1-4.4c3.3-2.5,4.6-4.3,7.1-10.6c1.6-4.1,6.2-13.7,10-21.1
		c8.3-15.8,9.9-20.9,9.9-30.2C1172,1347.2,1171.5,1345,1169.7,1341.3z"/>
	<path id="structure76_label79_LHb" bar:growlevel="0" bar:type="" class="st108" d="M1194.3,1300.1c-0.5,6-1.1,8.7-3.3,13.2
		c-1.5,3.2-3.2,6.4-3.9,7.2c-3.8,5.2,11.6,11.3,31.2,12.2c18.4,0.9,42.8-2.1,53.8-6.5c6.7-2.6,15-7.7,15-9.1c0-0.5-2.1-1.3-4.7-1.6
		c-7.9-1.1-28.6-4.9-36.7-6.9c-11.9-3-35.7-10.3-43.2-13.3c-3.7-1.5-7-2.8-7.3-2.8S1194.5,1295.9,1194.3,1300.1z"/>
	<path class="st109" d="M1154.7,1273.9l-0.3-8.6l-8.9-3.6l-8.9-3.7l-5,2.5c-6.6,3.3-12.8,4.9-19,4.9v47.7c8-0.1,20.6-2.1,24.1-4
		c3-1.5,7.5-6.3,7.5-8c0-2.1,4.2-10.1,7.6-14.4l3.3-4.3L1154.7,1273.9z"/>
	<path id="structure78_label81_MDL" bar:growlevel="0" bar:type="" class="st110" d="M1329,1294.3c-0.7,1.3-17.1,12.7-21.9,15.4
		c-3.7,2.1-3.9,2.3-3.3,5.3c1.4,8.2,1.4,22,0,30.4c-3.9,23-13.8,53.5-24.5,75.5c-8.5,17.6-32.2,50.3-46.2,63.6
		c-7.6,7.3-7.7,8.6-1.2,12.9c16.7,11.3,44.6,9.4,77.7-5.1c39.8-17.5,69.5-54.6,75.2-94.1c1.5-10.3,0.9-19.3-1.9-27.9
		c-4.1-12.2-14.9-26.2-32.3-41.8c-6.2-5.5-12.2-11.8-13.5-13.8c-2.8-5-5-12.6-5-17.5c0-2.8-0.4-3.9-1.3-3.9
		C1330.2,1293.4,1329.3,1293.7,1329,1294.3z"/>
	<path id="structure79_label82_CL" bar:growlevel="0" bar:type="" class="st111" d="M1344.3,1274.7c-8.8,4.9-13.3,16.1-11.3,27.9
		c1.7,9.2,5.4,14.9,14.8,23c26.9,23.3,38.3,42,38.3,62.6c0,11.6-4.1,27.7-10,39.5c-1.4,2.9-2.6,5.8-2.6,6.6c0,0.8,6.1,4.4,17.1,9.9
		c9.4,4.7,17.5,8.6,17.9,8.6c1.1,0,7.2-15.8,10.3-26.6c8-27.5,9.7-49.1,5-63.9c-3.6-11.7-11.5-25.4-21.7-37.8
		c-9-10.9-35.9-39.7-40.3-43.2C1353.2,1274.4,1348.2,1272.5,1344.3,1274.7z"/>
	<path id="structure7_label6_VMHVL" bar:growlevel="0" bar:type="" class="st112" d="M1285.4,2048.9c-22.7,8.3-46.1,23.9-66.9,44.9
		c-14,14-27.6,31.8-27.6,36.1c0,3.4,35.8,29.8,53,39c21.3,11.3,46.4,7.4,65-10.3c9.5-9.1,12.4-14.8,13.1-26.1
		c0.6-9.2-0.6-19.3-3.8-31.9c-5.6-21.9-19.4-54.9-22.9-54.7C1294.6,2045.9,1290.1,2047.3,1285.4,2048.9z"/>
	<path class="st113" d="M2092.7,1610.8c-4.8-72.3-12.4-118.3-29.3-176.6c-7.4-25.6-37.3-116-45.2-136.7
		c-28.6-74.5-79.7-157.6-148-240.3c-52.9-64.1-87.2-96-135.2-125.8c-14.3-8.9-36.4-20.4-41-21.5c-2-0.5-14.1-2.8-27.2-5.2
		c-53.7-10.2-109.1-17.1-147-18.5c-6.9-0.3-29.8-2.2-50.8-4.2c-53.6-5.2-69.4-5.1-97.3,0.7c-20.2,4.2-38,11.4-49.6,20.2
		c-7.9,5.9-17.5,16.3-27.7,29.9c-12,15.8-17.3,21.7-24.3,26.9c-3.7,2.7-8.3,7.3-11.3,11.3c-14,18.7-31.8,33-55,44.7
		c-10.4,5.2-20.4,8.5-31,10.2c-4.7,0.7-12.1,2.3-16.6,3.5c-13.8,3.8-28.8,5.6-43.7,5.7v40.8c3.1,0.1,5.7,0,7.9-0.2
		c28.2-3.1,63.5-11.1,79.4-17.8c11.5-4.9,55.1-33.6,74.6-49.1c15.6-12.4,24.8-21.6,41.6-41.8c26.9-32.4,40.6-43.7,64.4-53.1
		c10.8-4.3,29-8.6,43.2-10.4c15.5-1.9,52.5-1.4,68.8,0.8c36.5,5.1,77.8,15.5,97.2,24.6c3.7,1.7,11.3,4.2,16.7,5.7
		c32.5,8.5,74.9,32.1,108,60.5c16.2,13.8,54.6,54.6,72.7,77c16.1,20.2,23.3,32.3,28.9,49.1c1.7,5,3.6,9.4,4.2,9.8
		c0.6,0.4,5.2,2.2,10.2,4c70.3,25.6,134,106.7,185.4,236.1c9.6,24.2,20.6,55.2,35.6,100.4c18.4,55.8,21.5,69,25.1,108.4
		c4.1,44.8,4.3,81.6,0.4,115.2c-1.7,14.7-1.7,28-0.2,42.6c0.6,6,1.2,20.5,1.2,32.1c0,21-0.1,21.3-3.8,41.8c-5.5,29.6-6,35.4-6,58.5
		c0,19.4,0.3,22.7,4.2,53.5c4.3,33.1,5.9,53.8,6,75c0,12.1,1.3,17.7,4,17.7c3,0,3.5-3.4,2.9-17.5c-0.9-20-2-34.2-5.5-70.3
		c-5.9-63.1-6.3-82.6-1.8-103.1c6.8-30.7,6.9-31.3,7.1-46.3c0-7.9-0.5-21.5-1.1-30.2c-1.5-19.7-0.6-34.8,4.3-71.5
		C2093.1,1640.5,2093.9,1628.6,2092.7,1610.8z"/>
	<path class="st114" d="M1806,1223.8c-0.7-4.7-3.4-9.9-8.6-16.4c-4.5-5.7-24.7-25.7-49-48.6c-7.8-7.5-15.2-14.9-16.3-16.7
		c-3.3-5.2-4.8-10.7-8.1-30.8c-5.4-33.4-10.9-47.9-33-87.5c-16-28.6-30.2-47.7-43.4-58.8c-16.2-13.5-47.8-32.4-65.3-39.2
		c-24.7-9.5-64.1-18.5-98.1-22.3c-15.5-1.8-51.9-1.5-64.8,0.4c-23.3,3.6-44.4,10.5-58.4,19.3c-14.9,9.4-24.7,19-48.7,47.9
		c-16.9,20.5-33.1,35.1-58.8,53c-12.5,8.8-43.5,28.7-49.1,31.5c-2.6,1.4-4.3,3.2-5.8,6.3c-7,13.8-31.6,25.4-54.5,25.6
		c-7.2,0.1-10.3-0.3-13.1-1.4c-4.2-1.9-7.6-4.8-8.6-7.6c-0.7-1.9-1.3-2-9.9-2v30.9c15.1,0,30.2-3.1,49.1-9.4
		c23.2-7.7,44-18.7,63.9-33.7c22.3-16.7,38.7-31.7,90.1-82c38-37.1,46.4-44.3,60.2-51.1c18.7-9.4,29.1-11.3,61.5-12
		c49.1-0.9,81.6,4.8,118.3,20.9c47.8,21,102.7,67.7,114.1,97.1c5.4,13.9,5.3,25.8-0.1,42.2c-11.1,32.9-31.2,52.6-66.1,64.8
		c-12.2,4.2-22.3,6.5-43.4,9.7c-41.5,6.3-78.6,14.4-105.3,23l-10.2,3.2v5.7c0,6.2,1.1,10.1,4.2,15c2.1,3.4,5,4.5,7.1,2.6
		c1.3-1.2,17.9-7.7,26.3-10.3c38.7-12.2,74.4-15.2,96.5-8.5c7.8,2.4,19.4,8.4,29.3,14.9c7.6,5.1,11.6,8.5,33.2,28.2
		c4.7,4.3,12.5,10.3,17.4,13.2s14.1,9.3,20.5,14c6.5,4.8,14.3,10,17.6,11.6c5.5,2.7,6.4,2.9,14.8,2.8c9.7-0.1,20.3-1.8,32.5-5.4
		c9.9-2.8,16.7-6.2,23.8-11.9c6.5-5,26.6-18.4,33.9-22.3C1806.6,1227.2,1806.6,1227.2,1806,1223.8z"/>
	<path id="structure82_label86_Rad" bar:growlevel="0" bar:type="" class="st41" d="M1417.9,949.7c-11.5,1.4-23.3,6.8-36.2,16.4
		c-12.8,9.5-40.1,34.6-73.6,67.2c-41.9,41-61.3,59.4-69.4,65.9c-16.3,13.1-38.4,19.8-65.3,20c-12.8,0.1-18.9-0.9-21.4-3.5
		c-1.1-1.1-3.1-1.2-11.5-0.4c-5.7,0.4-14.2,0.9-19,0.9h-8.8v4.1v4.1h5.2c7.3,0,14.6,3.6,20.7,10.3c4.4,4.9,5,5.2,10.3,6
		c8.5,1.2,37.7,0.9,56.5-0.5c23.4-1.8,36.2-5.4,57.8-16.2c19-9.5,33.7-19.7,66.6-46.1c31-24.8,43.5-33.4,62.4-42.7
		c15.2-7.5,27.6-11.8,42.7-14.9c9.6-2.1,13.7-2.4,26.6-2.4c25.7-0.1,42.6,5.4,54.4,17.5c10.4,10.7,10.5,20.1,0.4,29.6
		c-9.3,8.7-20.3,12.5-60.2,20.7c-27.9,5.7-35.6,7.7-35.6,9.1c0,0.4,0.5,1.6,1.1,2.5c1.9,3.1-1.3,6.2-10.6,10.5
		c-15,7-50.2,28.8-66.1,40.8c-10.3,7.7-22.5,18.9-22.5,20.4c0,1.6,2.3,1.6,4.8,0c3.6-2.3,44.4-19.9,65.2-28
		c22.1-8.6,41-13.2,83.1-20.3c65-10.8,88.1-17.2,105.4-28.9c10.9-7.4,18.9-20.3,19.5-31.7c0.4-5.4,0.1-6.8-2.3-11.7
		c-5.6-11.3-15.7-20.3-40.9-36.9c-16.4-10.8-27.4-20-28.3-23.7c-0.5-1.9-1.1-2.2-5.2-2.2c-12.2,0-28-8.6-38.3-20.8
		c-4.6-5.5-11.8-9-24.4-12.1C1445.4,949,1430.7,948,1417.9,949.7z"/>
	<path class="st42" d="M1806,1223.8c-0.7-4.7-3.4-9.9-8.6-16.4c-4.5-5.7-24.7-25.7-49-48.6c-7.8-7.5-15.2-14.9-16.3-16.7
		c-3.3-5.2-4.8-10.7-8.1-30.8c-5.4-33.4-10.9-47.9-33-87.5c-16-28.6-30.2-47.7-43.4-58.8c-16.2-13.5-47.8-32.4-65.3-39.2
		c-24.7-9.5-64.1-18.5-98.1-22.3c-15.5-1.8-51.9-1.5-64.8,0.4c-23.3,3.6-44.4,10.5-58.4,19.3c-14.9,9.4-24.7,19-48.7,47.9
		c-16.9,20.5-33.1,35.1-58.8,53c-12.5,8.8-43.5,28.7-49.1,31.5c-2.6,1.4-4.3,3.2-5.8,6.3c-7,13.8-31.6,25.4-54.5,25.6
		c-7.2,0.1-10.3-0.3-13.1-1.4c-4.2-1.9-7.6-4.8-8.6-7.6c-0.7-1.9-1.3-2-9.9-2v30.9c15.1,0,30.2-3.1,49.1-9.4
		c23.2-7.7,44-18.7,63.9-33.7c22.3-16.7,38.7-31.7,90.1-82c38-37.1,46.4-44.3,60.2-51.1c18.7-9.4,29.1-11.3,61.5-12
		c49.1-0.9,81.6,4.8,118.3,20.9c47.8,21,102.7,67.7,114.1,97.1c5.4,13.9,5.3,25.8-0.1,42.2c-11.1,32.9-31.2,52.6-66.1,64.8
		c-12.2,4.2-22.3,6.5-43.4,9.7c-41.5,6.3-78.6,14.4-105.3,23l-10.2,3.2v5.7c0,6.2,1.1,10.1,4.2,15c2.1,3.4,5,4.5,7.1,2.6
		c1.3-1.2,17.9-7.7,26.3-10.3c38.7-12.2,74.4-15.2,96.5-8.5c7.8,2.4,19.4,8.4,29.3,14.9c7.6,5.1,11.6,8.5,33.2,28.2
		c4.7,4.3,12.5,10.3,17.4,13.2s14.1,9.3,20.5,14c6.5,4.8,14.3,10,17.6,11.6c5.5,2.7,6.4,2.9,14.8,2.8c9.7-0.1,20.3-1.8,32.5-5.4
		c9.9-2.8,16.7-6.2,23.8-11.9c6.5-5,26.6-18.4,33.9-22.3C1806.6,1227.2,1806.6,1227.2,1806,1223.8z"/>
	<path class="st12" d="M2092.7,1610.8c-4.8-72.3-12.4-118.3-29.3-176.6c-7.4-25.6-37.3-116-45.2-136.7
		c-28.6-74.5-79.7-157.6-148-240.3c-52.9-64.1-87.2-96-135.2-125.8c-14.3-8.9-36.4-20.4-41-21.5c-2-0.5-14.1-2.8-27.2-5.2
		c-53.7-10.2-109.1-17.1-147-18.5c-6.9-0.3-29.8-2.2-50.8-4.2c-53.6-5.2-69.4-5.1-97.3,0.7c-20.2,4.2-38,11.4-49.6,20.2
		c-7.9,5.9-17.5,16.3-27.7,29.9c-12,15.8-17.3,21.7-24.3,26.9c-3.7,2.7-8.3,7.3-11.3,11.3c-14,18.7-31.8,33-55,44.7
		c-10.4,5.2-20.4,8.5-31,10.2c-4.7,0.7-12.1,2.3-16.6,3.5c-13.8,3.8-28.8,5.6-43.7,5.7v40.8c3.1,0.1,5.7,0,7.9-0.2
		c28.2-3.1,63.5-11.1,79.4-17.8c11.5-4.9,55.1-33.6,74.6-49.1c15.6-12.4,24.8-21.6,41.6-41.8c26.9-32.4,40.6-43.7,64.4-53.1
		c10.8-4.3,29-8.6,43.2-10.4c15.5-1.9,52.5-1.4,68.8,0.8c36.5,5.1,77.8,15.5,97.2,24.6c3.7,1.7,11.3,4.2,16.7,5.7
		c32.5,8.5,74.9,32.1,108,60.5c16.2,13.8,54.6,54.6,72.7,77c16.1,20.2,23.3,32.3,28.9,49.1c1.7,5,3.6,9.4,4.2,9.8
		c0.6,0.4,5.2,2.2,10.2,4c70.3,25.6,134,106.7,185.4,236.1c9.6,24.2,20.6,55.2,35.6,100.4c18.4,55.8,21.5,69,25.1,108.4
		c4.1,44.8,4.3,81.6,0.4,115.2c-1.7,14.7-1.7,28-0.2,42.6c0.6,6,1.2,20.5,1.2,32.1c0,21-0.1,21.3-3.8,41.8c-5.5,29.6-6,35.4-6,58.5
		c0,19.4,0.3,22.7,4.2,53.5c4.3,33.1,5.9,53.8,6,75c0,12.1,1.3,17.7,4,17.7c3,0,3.5-3.4,2.9-17.5c-0.9-20-2-34.2-5.5-70.3
		c-5.9-63.1-6.3-82.6-1.8-103.1c6.8-30.7,6.9-31.3,7.1-46.3c0-7.9-0.5-21.5-1.1-30.2c-1.5-19.7-0.6-34.8,4.3-71.5
		C2093.1,1640.5,2093.9,1628.6,2092.7,1610.8z"/>
	<path id="structure8_label7_RChL" bar:growlevel="0" bar:type="" class="st115" d="M1351.3,2152.4c-6.2,1.6-13.9,5-30.8,13.4
		c-42.6,21.5-54,24.9-69.8,20.8c-6.2-1.6-18.6-7.3-24.5-11.3c-6.6-4.4-6.7-4.1-3.7,7.8c1.7,6.7,2,10.4,2.1,23.9v16l3.2,0.8
		c8.6,2.3,12.1,2.8,22.6,3.3c13.5,0.6,21.3-0.4,40-5.1c26.3-6.8,61.1-19.6,83.7-31.1c11.8-5.9,12.7-6.6,14.7-10.4
		c2.4-4.9,2.7-13,0.5-19.2c-1.6-4.9-6-9.1-10.9-10.4C1372.4,2149.5,1360.4,2150.1,1351.3,2152.4z"/>
	<path id="structure9_label8_EP" bar:growlevel="0" bar:type="" class="st116" d="M1663.2,1738.5c-18.2,3.9-50.8,18.5-66.9,29.9
		c-19.1,13.5-33.4,32.2-37.7,49.3c-1.8,7.1-1.9,21-0.1,25.1c0.7,2,2.3,3.5,3.8,4.1c7.3,2.9,36.6-3.6,76.6-16.7
		c25.8-8.6,33-13.3,45.7-30.4c13.3-17.8,17.9-28.6,17.3-40.2c-0.5-8-2.6-12.6-7.8-17.4c-2-1.7-5.1-3.6-7-4.1
		C1682.3,1736.7,1670.4,1737,1663.2,1738.5z"/>
	<text id="label30" bar:growlevel="0" transform="matrix(1 0 0 1 1185.582 2194.8418)" class="st117 st118 st119">ArcL</text>
	<text id="label31" bar:growlevel="0" transform="matrix(1 0 0 1 1138.8125 2160.248)" class="st117 st118 st119">ArcM</text>
	<text id="label32" bar:growlevel="0" transform="matrix(1 0 0 1 1445.7617 2129.377)" class="st117 st118 st119">SOR</text>
	<text id="label33" bar:growlevel="0" transform="matrix(1 0 0 1 1227.8232 1848.5645)" class="st117 st118 st119">A13</text>
	<text id="label39" bar:growlevel="0" transform="matrix(1 0 0 1 1825.6309 2231.8145)" class="st117 st118 st119">PLCo-1</text>
	<text id="Unlabeled-2121-725" bar:growlevel="0" transform="matrix(1 0 0 1 1322.293 892.8711)" class="st117 st118 st119">grey</text>
	<text id="text3322" bar:growlevel="0" transform="matrix(1 0 0 1 1509.1279 972.6426)" class="st120 st118 st119">.Py</text>
	<text id="label146" bar:growlevel="0" transform="matrix(1 0 0 1 1274.501 1301.6758)" class="st117 st118 st119">sm</text>
	<text id="label8" bar:growlevel="0" transform="matrix(1 0 0 1 1614.1309 1805.334)" class="st117 st118 st119">EP</text>
	<text id="label9" bar:growlevel="0" transform="matrix(1 0 0 1 1394.9199 1815.8652)" class="st117 st118 st119">ZIR</text>
	<text id="label0" bar:growlevel="0" transform="matrix(1 0 0 1 1373.5342 2106.0254)" class="st117 st118 st119">TuLH</text>
	<text id="label1" bar:growlevel="0" transform="matrix(1 0 0 1 1295.6221 1936.1934)" class="st117 st118 st119">PeFLH</text>
	<text id="label2" bar:growlevel="0" transform="matrix(1 0 0 1 1444.8418 1977.3242)" class="st117 st118 st119">PLH</text>
	<text id="label3" bar:growlevel="0" transform="matrix(1 0 0 1 1508.7861 2003.0938)" class="st117 st118 st119">PTe</text>
	<text id="label4" bar:growlevel="0" transform="matrix(1 0 0 1 1154.7412 1881.3242)" class="st117 st118 st119">DA</text>
	<text id="label5" bar:growlevel="0" transform="matrix(1 0 0 1 1146.5703 1950.8711)" class="st117 st118 st119">DMD</text>
	<text id="label6" bar:growlevel="0" transform="matrix(1 0 0 1 1215.9727 2132.3945)" class="st117 st118 st119">VMHVL</text>
	<text id="label7" bar:growlevel="0" transform="matrix(1 0 0 1 1269.0664 2211.541)" class="st117 st118 st119">RChL</text>
	<text id="label85" bar:growlevel="0" transform="matrix(1 0 0 1 1332.9111 1027.8848)" class="st120 st118 st119">.CA1</text>
	<text id="label84" bar:growlevel="0" transform="matrix(1 0 0 1 1119.7813 1099.7148)" class="st117 st118 st119">dhc</text>
	<text id="label86" bar:growlevel="0" transform="matrix(1 0 0 1 1406.8906 1003.6152)" class="st117 st118 st119">Rad</text>
	<text id="label81" bar:growlevel="0" transform="matrix(1 0 0 1 1302.582 1423.6738)" class="st117 st118 st119">MDL</text>
	<text id="label80" bar:growlevel="0" transform="matrix(1 0 0 1 1116.9727 1281.8945)" class="st117 st118 st119">D3V</text>
	<text id="label83" bar:growlevel="0" transform="matrix(1 0 0 1 1118.2813 1058.2832)" class="st117 st118 st119">cc</text>
	<text id="label82" bar:growlevel="0" transform="matrix(1 0 0 1 1374.9727 1349.6641)" class="st117 st118 st119">CL</text>
	<text id="label174" bar:growlevel="0" transform="matrix(1 0 0 1 1462.1152 2143.3691)" class="st117 st118 st119">a</text>
	<text id="label175" bar:growlevel="0" transform="matrix(1 0 0 1 1120.502 2237.6465)" class="st117 st118 st119">MEE</text>
	<text id="label172" bar:growlevel="0" transform="matrix(1 0 0 1 1514.0234 1924.584)" class="st117 st118 st119">MCLH</text>
	<text id="label170" bar:growlevel="0" transform="matrix(1 0 0 1 2096.5918 1998.4141)" class="st117 st118 st119">VEn</text>
	<text id="label171" bar:growlevel="0" transform="matrix(1 0 0 1 2232.9111 2070.6543)" class="st117 st118 st119">Pir-1</text>
	<text id="label43" bar:growlevel="0" transform="matrix(1 0 0 1 2019.043 1977.2656)" class="st117 st118 st119">BLP</text>
	<text id="label198" bar:growlevel="0" transform="matrix(1 0 0 1 1299.043 1120.584)" class="st120 st118 st119">.hif</text>
	<text id="text3314" bar:growlevel="0" transform="matrix(1 0 0 1 1204.3496 1231.5801)" class="st117 st118 st119">GrDG</text>
	<text id="label18" bar:growlevel="0" transform="matrix(1 0 0 1 1122.3506 1835.2656)" class="st117 st118 st119">PaXi</text>
	<text id="label19" bar:growlevel="0" transform="matrix(1 0 0 1 1716.5479 2087.041)" class="st117 st118 st119">BMA</text>
	<text id="Unlabeled-1786-1015" bar:growlevel="0" transform="matrix(1 0 0 1 1180.8887 1173.1152)" class="st117 st118 st119">MoDG</text>
	<text id="label12" bar:growlevel="0" transform="matrix(1 0 0 1 1200.4326 1648.1348)" class="st117 st118 st119">SubD</text>
	<text id="label13" bar:growlevel="0" transform="matrix(1 0 0 1 1419.8516 1590.084)" class="st117 st118 st119">VL</text>
	<text id="label10" bar:growlevel="0" transform="matrix(1 0 0 1 1384.2119 1725.1445)" class="st117 st118 st119">VM</text>
	<text id="label11" bar:growlevel="0" transform="matrix(1 0 0 1 1207.8418 1726.2227)" class="st117 st118 st119">SubV</text>
	<text id="label16" bar:growlevel="0" transform="matrix(1 0 0 1 1129.25 1642.9648)" class="st117 st118 st119">Rh</text>
	<text id="label17" bar:growlevel="0" transform="matrix(1 0 0 1 1132.6426 1753.0273)" class="st117 st118 st119">Re</text>
	<text id="label14" bar:growlevel="0" transform="matrix(1 0 0 1 1295.6221 1531.0449)" class="st117 st118 st119">PC</text>
	<text id="label15" bar:growlevel="0" transform="matrix(1 0 0 1 1126.9912 1546.0059)" class="st117 st118 st119">CM</text>
	<text id="label169" bar:growlevel="0" transform="matrix(1 0 0 1 1963.9912 1823.3047)" class="st117 st118 st119">IMG</text>
	<text id="label165" bar:growlevel="0" transform="matrix(1 0 0 1 1390.0342 1110.1738)" class="st117 st118 st119">GrDG</text>
	<text id="label164" bar:growlevel="0" transform="matrix(1 0 0 1 1334.082 1088.3945)" class="st117 st118 st119">LMol</text>
	<text id="label167" bar:growlevel="0" transform="matrix(1 0 0 1 1446.0137 1403.4531)" class="st117 st118 st119">AngT</text>
	<text id="label166" bar:growlevel="0" transform="matrix(1 0 0 1 1586.4111 1556.4238)" class="st117 st118 st119">VPM</text>
	<text id="label187" bar:growlevel="0" transform="matrix(1 0 0 1 1455.8809 911.8438)" class="st117 st118 st119">alv</text>
	<text id="label182" bar:growlevel="0" transform="matrix(1 0 0 1 1114.127 1941.2246)" class="st117 st118 st119">3V</text>
	<text id="label181" bar:growlevel="0" transform="matrix(1 0 0 1 1117.9063 1903.832)" class="st117 st118 st119">Pe</text>
	<text id="label180" bar:growlevel="0" transform="matrix(1 0 0 1 1308.8516 2052.2031)" class="st117 st118 st119">VMHSh</text>
	<text id="label188" bar:growlevel="0" transform="matrix(1 0 0 1 1749.9111 1294.7949)" class="st117 st118 st119">cst</text>
	<text id="label112" bar:growlevel="0" transform="matrix(1 0 0 1 1571.3809 2013.1738)" class="st117 st118 st119">opt</text>
	<text id="label69" bar:growlevel="0" transform="matrix(1 0 0 1 1148.2021 896.0059)" class="st117 st118 st119">RSGc</text>
	<text id="label68" bar:growlevel="0" transform="matrix(1 0 0 1 1199.5625 740.9629)" class="st117 st118 st119">RSD</text>
	<text id="label67" bar:growlevel="0" transform="matrix(1 0 0 1 1307.7734 709.3145)" class="st117 st118 st119">M2</text>
	<text id="label66" bar:growlevel="0" transform="matrix(1 0 0 1 1398.8232 708.2656)" class="st117 st118 st119">M1</text>
	<text id="label64" bar:growlevel="0" transform="matrix(1 0 0 1 1614.2842 739.8848)" class="st117 st118 st119">S1Tr</text>
	<text id="label63" bar:growlevel="0" transform="matrix(1 0 0 1 1808.0732 836.4648)" class="st117 st118 st121">S1DZ</text>
	<text id="label62" bar:growlevel="0" transform="matrix(1 0 0 1 2006.1113 983.5742)" class="st117 st118 st119">S1BF</text>
	<text id="label61" bar:growlevel="0" transform="matrix(1 0 0 1 1744.8125 1101.7461)" class="st117 st118 st119">LV</text>
	<text id="label60" bar:growlevel="0" transform="matrix(1 0 0 1 2136.1611 1219.8848)" class="st117 st118 st119">S1ULp</text>
	<text id="label217" bar:growlevel="0" transform="matrix(1 0 0 1 1459.3145 1930.8906)" class="st117 st118 st119">mfb</text>
	<text id="label216" bar:growlevel="0" transform="matrix(1 0 0 1 1529.375 1968.3906)" class="st117 st118 st119">vlh</text>
	<text id="Unlabeled-1799-1126" bar:growlevel="0" transform="matrix(1 0 0 1 1117.6924 1251.8711)" class="st117 st118 st119">vBrain</text>
	<text id="label78" bar:growlevel="0" transform="matrix(1 0 0 1 1123.9326 1375.7832)" class="st117 st118 st119">PV</text>
	<text id="label79" bar:growlevel="0" transform="matrix(1 0 0 1 1217.1113 1309.1582)" class="st117 st118 st119">LHb</text>
	<text id="label109" bar:growlevel="0" transform="matrix(1 0 0 1 1300.0342 1752.625)" class="st117 st118 st119">mt</text>
	<text id="label75" bar:growlevel="0" transform="matrix(1 0 0 1 1521.9111 1463.5449)" class="st117 st118 st119">Po</text>
	<text id="label76" bar:growlevel="0" transform="matrix(1 0 0 1 1188.0137 1413.9863)" class="st117 st118 st119">MDM</text>
	<text id="label77" bar:growlevel="0" transform="matrix(1 0 0 1 1132.9717 1456.4961)" class="st117 st118 st119">IMD</text>
	<text id="label70" bar:growlevel="0" transform="matrix(1 0 0 1 1457.0615 935.2012)" class="st117 st118 st119">Or</text>
	<text id="label71" bar:growlevel="0" transform="matrix(1 0 0 1 1239.043 1213.8848)" class="st117 st118 st119">PoDG</text>
	<text id="label72" bar:growlevel="0" transform="matrix(1 0 0 1 1513.7227 1274.7227)" class="st117 st118 st119">LDVL</text>
	<text id="label73" bar:growlevel="0" transform="matrix(1 0 0 1 1382.7119 1287.3848)" class="st117 st118 st119">LDDM</text>
	<text id="label252" bar:growlevel="0" transform="matrix(1 0 0 1 1212.6406 2075.4238)" class="st117 st118 st119">VMHC</text>
	<text id="label249" bar:growlevel="0" transform="matrix(1 0 0 1 1119.249 2215.2207)" class="st117 st118 st119">MEI</text>
	<text id="label241" bar:growlevel="0" transform="matrix(1 0 0 1 1506.9043 946.0039)" class="st120 st118 st119">.CA2</text>
	<text id="label242" bar:growlevel="0" transform="matrix(1 0 0 1 1609.0449 1010.4512)" class="st120 st118 st119">.Py</text>
	<text id="label243" bar:growlevel="0" transform="matrix(1 0 0 1 1158.3125 1079.2754)" class="st117 st118 st119">df</text>
	<text id="label245" bar:growlevel="0" transform="matrix(1 0 0 1 1370.6484 1167.541)" class="st120 st118 st119">.CA3</text>
	<text id="Unlabeled-2455-1175" bar:growlevel="0" transform="matrix(1 0 0 1 1730.8906 1291.5723)" class="st117 st118 st119">grey</text>
	<text id="label48" bar:growlevel="0" transform="matrix(1 0 0 1 1763.9521 1771.5254)" class="st120 st118 st119">.B</text>
	<text id="label41" bar:growlevel="0" transform="matrix(1 0 0 1 1855.332 2158.7031)" class="st117 st118 st119">PLCo-3</text>
	<text id="label40" bar:growlevel="0" transform="matrix(1 0 0 1 1854.2539 2204.0645)" class="st117 st118 st119">PLCo-2</text>
	<text id="text3317" bar:growlevel="0" transform="matrix(1 0 0 1 1212.0898 1262.9609)" class="st117 st118 st119">MoDG</text>
	<text id="label45" bar:growlevel="0" transform="matrix(1 0 0 1 1953.1611 1788.4141)" class="st117 st118 st119">ASt</text>
	<text id="label44" bar:growlevel="0" transform="matrix(1 0 0 1 2097.0137 1893.9238)" class="st117 st118 st119">DEn</text>
	<text id="label47" bar:growlevel="0" transform="matrix(1 0 0 1 1832.3809 1816.8848)" class="st117 st118 st119">CeL</text>
	<text id="label46" bar:growlevel="0" transform="matrix(1 0 0 1 1877.8027 1867.5254)" class="st117 st118 st119">CeC</text>
	<text id="label114" bar:growlevel="0" transform="matrix(1 0 0 1 1371.793 1994.1836)" class="st117 st118 st119">f</text>
	<text id="label239" bar:growlevel="0" transform="matrix(1 0 0 1 1168.4199 1295.1758)" class="st117 st118 st119">MHb</text>
	<text id="label234" bar:growlevel="0" transform="matrix(1 0 0 1 1742.2637 1240.9727)" class="st117 st118 st119">fi</text>
	<text id="label251" bar:growlevel="0" transform="matrix(1 0 0 1 1167.4326 2042.7266)" class="st117 st118 st119">VMHDM</text>
	<text id="label250" bar:growlevel="0" transform="matrix(1 0 0 1 1132.666 2117.7402)" class="st117 st118 st119">ArcD</text>
	<text id="label257" bar:growlevel="0" transform="matrix(1 0 0 1 1790.6221 1814.875)" class="st117 st118 st119">cst</text>
	<text id="label256" bar:growlevel="0" transform="matrix(1 0 0 1 1527.3125 2052.9238)" class="st117 st118 st119">sox</text>
	<text id="label56" bar:growlevel="0" transform="matrix(1 0 0 1 1656.9424 1520.5449)" class="st117 st118 st119">VPL</text>
	<text id="label57" bar:growlevel="0" transform="matrix(1 0 0 1 2228.082 1599.6543)" class="st117 st118 st119">DI</text>
	<text id="label54" bar:growlevel="0" transform="matrix(1 0 0 1 1967.6826 1533.2363)" class="st117 st118 st119">CPu</text>
	<text id="label55" bar:growlevel="0" transform="matrix(1 0 0 1 1756.0918 1501.5547)" class="st117 st118 st119">Rt</text>
	<text id="label52" bar:growlevel="0" transform="matrix(1 0 0 1 2204.082 1727.3047)" class="st117 st118 st119">AIP</text>
	<text id="label53" bar:growlevel="0" transform="matrix(1 0 0 1 1849.1221 1649.2754)" class="st117 st118 st119">GP</text>
	<text id="label50" bar:growlevel="0" transform="matrix(1 0 0 1 2217.4326 2031.2656)" class="st117 st118 st119">Pir-2</text>
	<text id="label51" bar:growlevel="0" transform="matrix(1 0 0 1 2189.4111 1995.2656)" class="st117 st118 st119">Pir-3</text>
	<text id="label113" bar:growlevel="0" transform="matrix(1 0 0 1 1473.2842 1863.3848)" class="st117 st118 st119">ns</text>
	<text id="label58" bar:growlevel="0" transform="matrix(1 0 0 1 2235.043 1520.5449)" class="st117 st118 st119">GI</text>
	<text id="label59" bar:growlevel="0" transform="matrix(1 0 0 1 2217.4912 1371.8047)" class="st117 st118 st119">S2</text>
	<text id="label168" bar:growlevel="0" transform="matrix(1 0 0 1 1711.1504 1920.3535)" class="st117 st118 st119">MePD</text>
	<text id="Unlabeled-1834-1214" bar:growlevel="0" transform="matrix(1 0 0 1 1123.4902 1328.0723)" class="st117 st118 st119">grey</text>
	<text id="label42" bar:growlevel="0" transform="matrix(1 0 0 1 1998.3721 1832.7559)" class="st117 st118 st119">LaDL</text>
	<text id="label23" bar:growlevel="0" transform="matrix(1 0 0 1 1763.6221 1964.6348)" class="st117 st118 st119">STIA</text>
	<text id="label22" bar:growlevel="0" transform="matrix(1 0 0 1 1632.6406 2044.7949)" class="st117 st118 st119">MeAD</text>
	<text id="label21" bar:growlevel="0" transform="matrix(1 0 0 1 1615.7227 2111.3105)" class="st117 st118 st119">MeAV</text>
	<text id="label20" bar:growlevel="0" transform="matrix(1 0 0 1 1696.1221 2158.7363)" class="st117 st118 st119">ACo</text>
	<text id="label27" bar:growlevel="0" transform="matrix(1 0 0 1 1764.8809 1879.1934)" class="st117 st118 st119">CeM</text>
	<text id="label26" bar:growlevel="0" transform="matrix(1 0 0 1 1919.1113 1976.2461)" class="st117 st118 st119">BLA</text>
	<text id="label25" bar:growlevel="0" transform="matrix(1 0 0 1 1951.9326 2079.625)" class="st117 st118 st119">BLV</text>
	<text id="label24" bar:growlevel="0" transform="matrix(1 0 0 1 1804.5732 2060.6348)" class="st117 st118 st119">BMP</text>
	<text id="label28" bar:growlevel="0" transform="matrix(1 0 0 1 1210.2412 1798.9766)" class="st117 st118 st119">VRe</text>
	<text id="label49" bar:growlevel="0" transform="matrix(1 0 0 1 1760.7734 2008.8848)" class="st117 st118 st119">I</text>
	<text id="label150" bar:growlevel="0" transform="matrix(1 0 0 1 1317.8232 869.6348)" class="st117 st118 st119">cg</text>
	<text id="label151" bar:growlevel="0" transform="matrix(1 0 0 1 1767.2227 1278.9863)" class="st117 st118 st119">st</text>
	<text id="label152" bar:growlevel="0" transform="matrix(1 0 0 1 2012.5273 1335.9297)" class="st117 st118 st119">ec</text>
	<text id="label153" bar:growlevel="0" transform="matrix(1 0 0 1 1809.7314 1553.2461)" class="st117 st118 st119">ic</text>
	<text id="label154" bar:growlevel="0" transform="matrix(1 0 0 1 1919.9199 2263.1934)" class="st120 st118 st119">.af</text>
	<text id="label156" bar:growlevel="0" transform="matrix(1 0 0 1 1137.1924 1026.8945)" class="st117 st118 st119">IG</text>
	<text id="label158" bar:growlevel="0" transform="matrix(1 0 0 1 1423.9326 945.5645)" class="st117 st118 st119">Py</text>
	<text id="label163" bar:growlevel="0" transform="matrix(1 0 0 1 1612.1123 1058.0723)" class="st117 st118 st119">SLu</text>
</g>
</svg>
