<?xml version="1.0" encoding="utf-8"?>
<!-- Generator: Adobe Illustrator 24.1.1, SVG Export Plug-In . SVG Version: 6.00 Build 0)  -->
<svg version="1.1"
	 id="body" inkscape:version="0.47pre4 r22446" sodipodi:docname="121_pretrace_pretrace_v1.svg" xmlns:bar="http://www.3dbar.org" xmlns:cc="http://creativecommons.org/ns#" xmlns:dc="http://purl.org/dc/elements/1.1/" xmlns:inkscape="http://www.inkscape.org/namespaces/inkscape" xmlns:rdf="http://www.w3.org/1999/02/22-rdf-syntax-ns#" xmlns:sodipodi="http://sodipodi.sourceforge.net/DTD/sodipodi-0.dtd" xmlns:svg="http://www.w3.org/2000/svg"
	 xmlns="http://www.w3.org/2000/svg" xmlns:xlink="http://www.w3.org/1999/xlink" x="0px" y="0px" viewBox="0 0 3024 3024"
	 style="enable-background:new 0 0 3024 3024;" xml:space="preserve">
<style type="text/css">
	.st0{fill:#FF000C;}
	.st1{fill:#3FFF00;}
	.st2{fill:#D2FFB2;}
	.st3{fill:#C9FFB2;}
	.st4{fill:#8CFF59;}
	.st5{fill:#FF6359;}
	.st6{fill:#D0FFB2;}
	.st7{fill:#3BEFD0;}
	.st8{fill:#9353FF;}
	.st9{fill:#7678FF;}
	.st10{fill:#7F76FF;}
	.st11{fill:#FFC559;}
	.st12{fill:#DFFF00;}
	.st13{fill:#EEFF76;}
	.st14{fill:#3BFAFF;}
	.st15{fill:#DEFF00;}
	.st16{fill:#F5FFB2;}
	.st17{fill:#DFC98E;}
	.st18{fill:#6B3BCB;}
	.st19{fill:#6A3BDC;}
	.st20{fill:#F4FFB2;}
	.st21{fill:#B8B2FF;}
	.st22{fill:#5C2FBF;}
	.st23{fill:#0011FF;}
	.st24{fill:#B79AED;}
	.st25{fill:#009ACF;}
	.st26{fill:#8D77BF;}
	.st27{fill:#E99700;}
	.st28{fill:#E9B759;}
	.st29{fill:#B2FFED;}
	.st30{fill:#59FFD7;}
	.st31{fill:#E547D8;}
	.st32{fill:#8EF4AC;}
	.st33{fill:#A682DC;}
	.st34{fill:#FFAE59;}
	.st35{fill:#00D43B;}
	.st36{fill:#00CF69;}
	.st37{fill:#DF0045;}
	.st38{fill:#0003FF;}
	.st39{fill:#5023FF;}
	.st40{fill:#3B40FF;}
	.st41{fill:#5600D4;}
	.st42{fill:#F9FFB2;}
	.st43{fill:#E7FF00;}
	.st44{fill:#B2B7FF;}
	.st45{fill:#FFB2BA;}
	.st46{fill:#0004E9;}
	.st47{fill:#E9BD47;}
	.st48{fill:#3B68E9;}
	.st49{fill:#5000C3;}
	.st50{fill:#7E53D8;}
	.st51{fill:#1F00FF;}
	.st52{fill:#FFA900;}
	.st53{fill:#8253E1;}
	.st54{fill:#6D2FF6;}
	.st55{fill:#FFCBB2;}
	.st56{fill:#FAD6A5;}
	.st57{fill:#F0FF59;}
	.st58{fill:#D6FF00;}
	.st59{fill:#EBF400;}
	.st60{fill:#F9FF47;}
	.st61{fill:#D0D46B;}
	.st62{fill:#E7FF3B;}
	.st63{fill:#D5E93B;}
	.st64{fill:#BCD400;}
	.st65{fill:#FFCC47;}
	.st66{fill:#CDE900;}
	.st67{fill:#FFFDB2;}
	.st68{fill:#FFFB00;}
	.st69{fill:#FFFA00;}
	.st70{fill:#FDFFB2;}
	.st71{fill:#E7E959;}
	.st72{fill:#F8FF00;}
	.st73{fill:#FAFF59;}
	.st74{fill:#EEF447;}
	.st75{fill:#FFFEB2;}
	.st76{fill:#FFFE00;}
	.st77{fill:#B2FFDE;}
	.st78{fill:#D3FF00;}
	.st79{fill:#463BFF;}
	.st80{fill:#B5B2FF;}
	.st81{fill:#C0A6F6;}
	.st82{fill:#793BFA;}
	.st83{fill:#E9FF59;}
	.st84{fill:#FFC159;}
	.st85{fill:#6A3BC7;}
	.st86{fill:#7059FF;}
	.st87{fill:#0900E9;}
	.st88{fill:#3F3BE9;}
	.st89{fill:#FFE4B2;}
	.st90{fill:#DFB259;}
	.st91{fill:#FFE2B2;}
	.st92{fill:#7A47DC;}
	.st93{fill:#FFBAB2;}
	.st94{fill:#7C76E9;}
	.st95{fill:#FF7100;}
	.st96{fill:#FFA600;}
	.st97{fill:#F1FFB2;}
	.st98{fill:#E1B2FF;}
	.st99{fill:#00D7F2;}
	.st100{fill:#9653F6;}
	.st101{fill:#976BFF;}
	.st102{fill:#232323;enable-background:new    ;}
	.st103{font-family:'TimesNewRomanPSMT';}
	.st104{font-size:27px;}
</style>
<sodipodi:namedview  bordercolor="#666666" borderopacity="1" gridtolerance="10" guidetolerance="10" id="namedview495" inkscape:current-layer="content" inkscape:cx="473.20785" inkscape:cy="480.65144" inkscape:object-paths="true" inkscape:pageopacity="0" inkscape:pageshadow="2" inkscape:window-height="1128" inkscape:window-maximized="1" inkscape:window-width="1918" inkscape:window-x="1680" inkscape:window-y="24" inkscape:zoom="1.8483124" objecttolerance="10" pagecolor="#ffffff" showgrid="false">
	</sodipodi:namedview>
<desc  id="desc5">This was produced by version 4.2 of GNU libplot, a free library for exporting 2-D vector graphics.</desc>
<defs>
	<rdf:RDF>
		<cc:Work  rdf:about="">
			<dc:format>image/svg+xml</dc:format>
			<dc:type  rdf:resource="http://purl.org/dc/dcmitype/StillImage"></dc:type>
		</cc:Work>
	</rdf:RDF>
	<bar:data  content="-5.4" name="coronalcoord"></bar:data>
	
		<bar:data  content="{&apos;ReferenceHeight&apos;: 900, &apos;ReferenceWidth&apos;: 1200, &apos;imageSize&apos;: (1200, 900)}" name="rendererConf">
		</bar:data>
	
		<bar:data  content="{&apos;DumpEachStepSVG&apos;: False, &apos;DumpEachStepPNG&apos;: False, &apos;GrowDefaultBoundaryColor&apos;: 200, &apos;CacheLevel&apos;: 5, &apos;NewPathIdTemplate&apos;: &apos;structure%d_%s_%s&apos;, &apos;PoTraceConf&apos;: {&apos;potrace_accuracy_parameter&apos;: &apos;0.001&apos;, &apos;potrace_width_string&apos;: &apos;1200pt&apos;, &apos;potrace_svg_resolution_string&apos;: &apos;300x300&apos;, &apos;potrace_height_string&apos;: &apos;900pt&apos;}, &apos;DetectUnlabelled&apos;: True, &apos;DumpVBrain&apos;: False, &apos;DumpWrongSeed&apos;: True, &apos;DumpDirectory&apos;: &apos;.&apos;, &apos;MinFiterTimesApplication&apos;: 3, &apos;RegionAlreadyTraced&apos;: 100, &apos;UnlabelledTreshold&apos;: 500}" name="tracingConf">
		</bar:data>
	<bar:data  content="0.0176211454,-9.5150660793,0.0176211454,-1.5355884426" name="transformationmatrix"></bar:data>
</defs>
<g id="content">
	<path class="st0" d="M2434.5,1268.2c-13.5-71.5-48-159.1-97.1-247.3c-41.5-74.5-71-114.4-120.8-163.1
		c-35.8-35.1-68.4-61-119.5-94.9c-115.1-76.6-217.4-127.7-298.8-149.3c-60-15.8-166.6-33.8-265.9-44.6
		c-93.2-10.2-165.6-13.4-212.4-9.5c-73.4,6.1-125.4,27.3-169.6,68.9c-22.4,21.1-39.7,54.1-46.9,89.5c-1,5.2-2.1,10.3-2.3,11.4
		c-0.2,1-0.7,1.8-1.3,2v309.1c0.8,0.6,2.6,4.3,4.1,8.7c10.4,29,32.1,59.1,52.7,72.9c6.8,4.5,16.1,9,18.9,9c0.4,0,1.1,0.6,1.3,1.3
		c0.4,0.9-2.3,4.4-7.7,10.1c-19.3,20.4-30.2,36.8-33.8,50.8c-3.2,12.3,0.3,19.3,13.5,27.4c1.9,1.2,2.7,6.3,2,12.4
		c-0.5,4.2-1.3,5.5-4.5,8.8l-3.9,4h-9.4c-11.2,0-13.9,1.1-24,9.4c-4.3,3.5-6.7,5.3-9.2,5.3v691.3c7.5,0.1,11.1,2.3,21.4,13
		c5.1,5.3,11.6,11.1,14.2,12.8c6.6,4.2,20,9.5,32.8,13c18.5,5,24.7,8.8,43.4,26.8c19.4,18.6,23.8,20.9,41,20.9
		c12.3,0,14.1,0.6,25.3,8.5c4,2.8,10.2,6.5,13.9,8.1c8.6,4,27.2,10.3,32.5,11c5,0.7,5.6,2.5,1.1,4c-3.7,1.2-7.7,5.6-7.7,8.5
		c0,5,6.6,9.5,13.5,9.5c7,0,13.5-4.6,13.5-9.7c0-2.4-5.5-8.3-7.7-8.3c-0.7,0-1.3-0.6-1.3-1.3c0-1.1,1.6-1.4,8.8-1.4
		c9.3,0,35.8-2.1,47-3.7c13.9-2,30.5-9,43.5-18.3c3.9-2.8,7.4-5,7.9-5c0.4,0,0.8,1,0.8,2.2c0,2.9,3.6,7.9,6.7,9.4
		c5.6,2.7,19.4-2.6,28-10.7c6.6-6.2,7.6-9.4,4.8-14.8c-1.8-3.7-1.9-4.3-0.7-5c0.7-0.4,6.5-3.7,12.8-7.2c12.4-6.9,25.1-16,39-28
		c4.9-4.3,9.5-7.8,10.3-7.8c1.4,0,1.2,1.1-1.8,11.7c-1.1,4-2.1,10.7-2.3,16.3c-0.4,8.6-0.3,9.9,1.8,15c4.8,11.9,12.1,21.4,18.3,24
		c1.8,0.7,4.9,1.3,7.1,1.3h3.8v6c0,15.7,9.5,27.9,45.7,58.2c11.8,10,25.5,21.4,30.2,25.4c11.5,9.7,17,13.7,25.1,18.3
		c8,4.6,15.8,11.1,37.4,31.1c18.7,17.5,24.1,21.7,34.6,27c23.2,11.6,61,18.4,102.6,18.4c37.8,0,64-7.6,90.4-26.1
		c31-21.7,50.5-32.4,71.6-39.3c20-6.7,29.3-8,72.9-10.6c55.4-3.3,72.2-6.2,89.9-15.3c24-12.3,52-34.3,81.5-63.8
		c17.7-17.8,30.2-32.5,48.1-56.3c45.7-61.2,77.2-117.4,85.3-152.5c4-17.2,5-28.3,5-54.9c0.1-25-0.7-37.4-3.9-62.4
		c-2.5-19.3-6.7-26.6-24.3-42c-9.8-8.5-11.8-11.2-11.8-16c0-4.1,2.5-7.1,7.4-9.1c12.8-5.2,15.8-8.6,24.9-27.6
		c8.6-17.8,26.7-62.6,33.4-82.7c17.5-52.2,25.7-103.7,26.7-169.2C2445.1,1352.2,2441.7,1306.6,2434.5,1268.2z M1586.7,1210.1
		c-3.5,0-10.3,0.6-15.2,1.4c-8.8,1.5-9,1.4-12.9-0.4c-2.3-1.1-8-5.2-12.9-9.4c-4.9-4.1-11.8-9.6-15.6-12.4
		c-12.9-9.7-38.9-21.7-57.3-26.5c-7.3-1.9-28.4-5.9-31.2-5.9c-0.4,0-0.7-0.5-0.7-1.2c0-1.3,16.6-5.8,58-15.5
		c15.8-3.7,30.1-7.1,31.5-7.6c3.4-1.1,6.8-1.2,6.8-0.4c0,0.4-0.8,2.9-1.8,5.5c-3.4,9-1.8,17.7,5.5,29.1c7.6,11.6,23.9,25,44.4,36.4
		c4.2,2.3,7.7,4.9,7.7,5.5C1593,1209.8,1591.3,1210.1,1586.7,1210.1z M1810.2,1605.2c-18.1,47.4-31.4,71.6-55,99.9
		c-7.7,9.3-59.9,63-61.1,63c-0.6,0-1.2-0.6-1.2-1.4c0-1.5,26.1-45.6,46.5-78.7c10.7-17.2,26.4-45.9,41.8-76.3
		c22.8-45.3,26.1-55.3,30.5-93.8c1.1-8.6,2.1-23.6,2.4-33.1c0.7-22.7,2-22.9,4.6-0.9c3.1,25.6,3.8,35.6,3.8,56.5
		C1822.5,1571,1821.8,1574.9,1810.2,1605.2z"/>
	<path id="structure2_label202_vBrain" bar:growlevel="0" bar:type="" class="st0" d="M1502.9,1150.6c-2.5,2.3-3,3.2-3,6.8
		c0,3.6,0.5,4.6,3,6.8c3.3,3,6.8,3.3,10,1.2c5.4-3.8,5.2-12.4-0.2-15.7C1508.7,1147.4,1506.3,1147.6,1502.9,1150.6z"/>
	<path class="st0" d="M1164.6,2069.3c-9.2-13.8-37.7-24.7-64.7-24.7v76.7c21.9,0,39.4-3.5,52.6-10.4
		C1169.8,2101.6,1174.7,2084.7,1164.6,2069.3z"/>
	<path id="structure118_label127_cg" bar:growlevel="0" bar:type="" class="st1" d="M1365.7,806.5c-6.8,1.4-10.9,3.5-18.1,9
		c-10.3,7.7-17.1,17.1-32,44.2c-5.2,9.4-17.2,31-26.7,48.1c-21,37.6-42.8,78.6-47.6,89.5c-8.5,19.3-8.5,32.2-0.2,45.3l3,4.7h6.2
		c3.4,0,6.2-0.3,6.2-0.6c0-0.3-1.1-2.8-2.4-5.6c-2.3-4.5-2.5-6-2.5-14.2v-9.2l5.4-10.6c8.5-16.4,50-83.2,76.1-122.2
		c16.6-24.8,25.1-33.3,40.7-40.4c20.6-9.5,41.7-12,85.8-9.8c30.7,1.5,81.5,2,90.7,0.9c5-0.6,6.1-1.1,5.8-2.3
		c-0.3-1.6-4.9-2.4-61-11.3c-56.2-8.9-114.2-16.9-121.5-16.6C1372.2,805.2,1368.7,805.9,1365.7,806.5z"/>
	<path id="structure119_label128_fmj" bar:growlevel="0" bar:type="" class="st2" d="M1555.7,834.7c-4.9,1.9-50.3,2.5-78,1.2
		c-38.2-2-50.3-2.2-62.6-1.1c-29.5,2.8-48.2,10.1-62.8,24.8c-7.7,7.7-20.7,26.7-48.2,70.3c-32.8,51.8-47.5,76.7-50.2,84.5
		c-3.9,10.9-3.1,21.8,2.1,29.4c2.1,3.1,2.1,3.1,8.3,2.8c36.9-1.5,71.5-5.5,94.5-11c36.1-8.6,54.1-21.5,98.2-71.1
		c10-11.2,21.6-23.6,25.8-27.6c24.1-22.8,58.8-42,89.2-49.7c6.7-1.7,10.1-3,10.3-3.9c0.2-1.1-1.8-1.4-11.3-1.9
		c-50.3-2.6-96.2,2.6-128.9,14.6c-9.7,3.5-11.7,3.5-2.8,0c14.3-5.6,36.1-10.9,57.6-13.9c6.8-1,20.1-1.6,38.4-2
		c26.4-0.4,32.4-0.3,70,2.4c18.7,1.3,42.3,4.4,54.4,7.2c97.5,22.1,192,63.1,277.7,120.7c80.4,54,136.6,135.9,188.6,274.9
		c8.6,22.9,21.5,59.8,25.1,71.8c13.6,44.8,21.6,93.6,24.5,149.1c1.2,22.5,0.6,84.7-1,108.4c-3.8,57.8-13.5,152.7-17.6,173
		c-7.7,37.7-26.4,76-54,110.5c-9.8,12.2-36.3,38.9-49,49.2c-26.3,21.4-45.2,33.3-80.9,51c-76.5,37.9-139.6,60.9-204.8,74.7
		c-14.9,3.1-31.1,8.5-42.3,14.1c-9.6,4.9-19.3,12.2-19.3,14.8c0,2.4,1,2.3,6.1-0.9c13.6-8.3,30.8-14.1,71.6-24.3
		c40.2-10,92.8-24.1,103.6-27.9c11.8-4.2,27.1-11.2,67.5-30.9c37.4-18.2,53.6-26.5,68-35.3c40-24.3,63.1-46.1,94.6-89.3
		c20-27.4,35.4-57.2,46.1-89.6c8.3-25.1,11-40.4,12.7-72.2c1.8-33.3,3.2-51.3,8.6-100.8c4.2-40,5.9-57.9,8.3-93.2
		c1.5-22.1,1.5-98.8,0-115.2c-7-75.3-21.3-134.6-50.1-207.4c-38.3-97.2-83.5-159.8-153-212c-61.9-46.4-170.7-99.2-278.1-134.8
		c-47.2-15.7-71.1-21.5-133.7-32.6C1561.5,832.7,1560.7,832.7,1555.7,834.7z"/>
	<path id="structure120_label129_dhc" bar:growlevel="0" bar:type="" class="st3" d="M1555.7,834.7c-4.9,1.9-50.3,2.5-78,1.2
		c-38.2-2-50.3-2.2-62.6-1.1c-29.5,2.8-48.2,10.1-62.8,24.8c-7.7,7.7-20.7,26.7-48.2,70.3c-32.8,51.8-47.5,76.7-50.2,84.5
		c-3.9,10.9-3.1,21.8,2.1,29.4c2.1,3.1,2.1,3.1,8.3,2.8c36.9-1.5,71.5-5.5,94.5-11c36.1-8.6,54.1-21.5,98.2-71.1
		c10-11.2,21.6-23.6,25.8-27.6c24.1-22.8,58.8-42,89.2-49.7c6.7-1.7,10.1-3,10.3-3.9c0.2-1.1-1.8-1.4-11.3-1.9
		c-50.3-2.6-96.2,2.6-128.9,14.6c-9.7,3.5-11.7,3.5-2.8,0c14.3-5.6,36.1-10.9,57.6-13.9c6.8-1,20.1-1.6,38.4-2
		c26.4-0.4,32.4-0.3,70,2.4c18.7,1.3,42.3,4.4,54.4,7.2c97.5,22.1,192,63.1,277.7,120.7c80.4,54,136.6,135.9,188.6,274.9
		c8.6,22.9,21.5,59.8,25.1,71.8c13.6,44.8,21.6,93.6,24.5,149.1c1.2,22.5,0.6,84.7-1,108.4c-3.8,57.8-13.5,152.7-17.6,173
		c-7.7,37.7-26.4,76-54,110.5c-9.8,12.2-36.3,38.9-49,49.2c-26.3,21.4-45.2,33.3-80.9,51c-76.5,37.9-139.6,60.9-204.8,74.7
		c-14.9,3.1-31.1,8.5-42.3,14.1c-9.6,4.9-19.3,12.2-19.3,14.8c0,2.4,1,2.3,6.1-0.9c13.6-8.3,30.8-14.1,71.6-24.3
		c40.2-10,92.8-24.1,103.6-27.9c11.8-4.2,27.1-11.2,67.5-30.9c37.4-18.2,53.6-26.5,68-35.3c40-24.3,63.1-46.1,94.6-89.3
		c20-27.4,35.4-57.2,46.1-89.6c8.3-25.1,11-40.4,12.7-72.2c1.8-33.3,3.2-51.3,8.6-100.8c4.2-40,5.9-57.9,8.3-93.2
		c1.5-22.1,1.5-98.8,0-115.2c-7-75.3-21.3-134.6-50.1-207.4c-38.3-97.2-83.5-159.8-153-212c-61.9-46.4-170.7-99.2-278.1-134.8
		c-47.2-15.7-71.1-21.5-133.7-32.6C1561.5,832.7,1560.7,832.7,1555.7,834.7z"/>
	<path id="structure121_label130_alv" bar:growlevel="0" bar:type="" class="st4" d="M1584,884.8c-24.2,4.1-50.4,15-74.3,31
		c-19,12.6-28.5,21.3-51.1,46.9c-40.5,45.7-58.3,60-86,69.4c-21.7,7.2-60.8,12.8-103.5,14.8c-18.2,0.8-22.5,1.4-22.5,2.7
		c0,2.3,10.1,12.2,14.8,14.6c5.8,3.1,14.7,3.6,32.8,2.1c36.9-3.1,73-10.5,110.7-23c24.5-8.1,36.6-14.8,47.1-26.3
		c2.6-2.8,11.7-13.9,20.3-24.5c25.9-32.3,39.8-46.4,57.9-58.6c11.8-8,17.1-10.6,30.1-15.1c13-4.5,27.5-7.7,44.6-9.6
		c16.1-1.8,53.9-1.4,70.2,0.9c37.4,5.2,48.1,8.1,92.3,25.3c22.7,8.7,25.1,9.9,88.2,42.5c64.7,33.5,90.9,52,129.5,92.2
		c27.5,28.6,55.2,64.7,73.7,96.2c7.7,13.1,22,42.7,31.2,64.5c31.4,73.9,62.5,176.7,71.5,237c5.3,34.7,5.5,77.4,0.9,157.1
		c-1.8,31.1-5.6,85.2-7.3,105.3c-4.5,53.4-11.6,83.2-27.1,114.2c-21.9,43.8-52.7,80.6-89.4,106.5c-23.8,16.7-80.1,48.2-110.8,61.7
		c-38.5,17.1-81,31-143.5,47.3c-35.9,9.3-52.7,15.6-67.1,24.8c-17.2,11.2-28.5,25.4-24.2,30.6c2,2.3,3.2,1.5,5.9-4.3
		c3.6-7.7,13-16.9,22.9-22.4c13.3-7.5,29.7-13,54.9-18.3c41.2-8.6,98.9-28.1,146.7-49.3c36.4-16.2,73-34.4,87.6-43.6
		c77.8-49,129.9-116.9,144.6-188.4c4.5-22,15-127.5,17.9-180.9c5-90.6-1.2-167.9-18.9-234.5c-6.7-25-26.2-80.4-42.4-120.6
		c-29.4-72.6-60.4-127.5-96.2-170.2c-24.8-29.7-47.7-50.3-79.1-71.4c-80.2-53.8-167-92.9-257-115.6c-24.9-6.3-32.5-7.6-56.2-10.1
		C1599.5,883.2,1593.9,883.1,1584,884.8z"/>
	<path id="structure138_label147_bsc" bar:growlevel="0" bar:type="" class="st5" d="M1414.6,1158.2c-1.2,3.1-5.4,4.5-18.5,6.4
		c-10,1.4-13.2,2.3-13.4,3.2c-0.2,0.9,2.3,2.7,7.6,5.4c4.2,2.3,11.5,6.6,16.2,9.6c4.6,3.2,8.7,5.7,9.2,5.7s2.6-1,4.7-2.3
		c12.4-7.1,25.7-7.6,54.8-1.7c19.9,4,39.5,11.6,53.4,20.8c3.6,2.3,11,8.8,16.6,14.4c9.9,10,10.3,10.3,23,16.4
		c13.5,6.6,27.9,12.1,58.4,22.5c20.3,6.9,31.2,11.3,51.9,21.2c24,11.6,38.6,20.1,45.5,26.5c7.8,7.4,22.8,26,32.1,40.1
		c13.1,19.6,17.9,31.8,17.9,45.9c-0.1,20.3-9.5,28.2-28,23.4c-7.7-2.1-18.9-6.9-25.2-11.2c-7.1-4.8-8.5-4.8-7.6-0.4
		c0.3,1.9,0.5,4.1,0.5,4.9c0,0.7,2.5,3.2,5.7,5.3c7.6,5.4,20.4,17.9,27.2,26.6c28.3,36.2,38.6,73.1,31.5,112.5
		c-1.7,9.4-6.9,30.1-9.4,37.3c-1,2.7-1.8,5.5-1.8,6c0,1.5,10.1,2.4,14.6,1.3c2.2-0.6,4.9-2,6-3c3.7-3.3,13.7-26.5,17.2-39.9
		c6.3-23.9,10.9-84.2,8.2-108.3c-1.8-16.6-13.7-76.5-19.4-98.2c-4.1-15.5-13-30.1-23.8-39.7c-3.2-2.7-28.3-17.6-68.4-40.6
		c-77.1-44.2-94.1-53.6-99.5-55.3c-6.2-1.8-17.1-2.4-24.2-1.3c-14,2.2-15.8,2.2-20.7-0.7c-2.4-1.5-9.1-6.7-14.8-11.4
		c-15.8-13.4-25.6-19.3-43.5-26.9c-23-9.6-43.3-14-71.9-15.5C1416.7,1156.9,1415,1157,1414.6,1158.2z"/>
	<path id="structure139_label148_dcw" bar:growlevel="0" bar:type="" class="st6" d="M1555.7,834.7c-4.9,1.9-50.3,2.5-78,1.2
		c-38.2-2-50.3-2.2-62.6-1.1c-29.5,2.8-48.2,10.1-62.8,24.8c-7.7,7.7-20.7,26.7-48.2,70.3c-32.8,51.8-47.5,76.7-50.2,84.5
		c-3.9,10.9-3.1,21.8,2.1,29.4c2.1,3.1,2.1,3.1,8.3,2.8c36.9-1.5,71.5-5.5,94.5-11c36.1-8.6,54.1-21.5,98.2-71.1
		c10-11.2,21.6-23.6,25.8-27.6c24.1-22.8,58.8-42,89.2-49.7c6.7-1.7,10.1-3,10.3-3.9c0.2-1.1-1.8-1.4-11.3-1.9
		c-50.3-2.6-96.2,2.6-128.9,14.6c-9.7,3.5-11.7,3.5-2.8,0c14.3-5.6,36.1-10.9,57.6-13.9c6.8-1,20.1-1.6,38.4-2
		c26.4-0.4,32.4-0.3,70,2.4c18.7,1.3,42.3,4.4,54.4,7.2c97.5,22.1,192,63.1,277.7,120.7c80.4,54,136.6,135.9,188.6,274.9
		c8.6,22.9,21.5,59.8,25.1,71.8c13.6,44.8,21.6,93.6,24.5,149.1c1.2,22.5,0.6,84.7-1,108.4c-3.8,57.8-13.5,152.7-17.6,173
		c-7.7,37.7-26.4,76-54,110.5c-9.8,12.2-36.3,38.9-49,49.2c-26.3,21.4-45.2,33.3-80.9,51c-76.5,37.9-139.6,60.9-204.8,74.7
		c-14.9,3.1-31.1,8.5-42.3,14.1c-9.6,4.9-19.3,12.2-19.3,14.8c0,2.4,1,2.3,6.1-0.9c13.6-8.3,30.8-14.1,71.6-24.3
		c40.2-10,92.8-24.1,103.6-27.9c11.8-4.2,27.1-11.2,67.5-30.9c37.4-18.2,53.6-26.5,68-35.3c40-24.3,63.1-46.1,94.6-89.3
		c20-27.4,35.4-57.2,46.1-89.6c8.3-25.1,11-40.4,12.7-72.2c1.8-33.3,3.2-51.3,8.6-100.8c4.2-40,5.9-57.9,8.3-93.2
		c1.5-22.1,1.5-98.8,0-115.2c-7-75.3-21.3-134.6-50.1-207.4c-38.3-97.2-83.5-159.8-153-212c-61.9-46.4-170.7-99.2-278.1-134.8
		c-47.2-15.7-71.1-21.5-133.7-32.6C1561.5,832.7,1560.7,832.7,1555.7,834.7z"/>
	<path class="st7" d="M1161.9,1893c0-0.7-3.1-9.1-6.8-18.5c-3.7-9.4-6.8-17.5-6.8-17.9c0-0.5-1.2-2.3-2.7-4.2
		c-5-6.4-11.2-26.1-13.5-43.7c-1.5-11.2-1.6-23.8-0.2-25.4c1.5-1.9-0.1-12.2-3-18.4c-6.2-13.7-22.3-31-29.3-31.7v150.3
		c6.2,0,12.4,0.4,15.7,1.2c3.1,0.7,9.1,1.8,13.4,2.3c4.4,0.5,12.7,2.3,18.5,3.7C1162.7,1894.7,1161.9,1894.5,1161.9,1893z"/>
	<path id="structure143_label152_TG" bar:growlevel="0" bar:type="" class="st8" d="M1450.3,1355.7c-8.2,14.4-27.5,36.8-37.6,43.7
		c-20.2,13.7-61.4,26-98.2,29.3l-7.1,0.6l-1.4,6.3c-1.7,7.2-3.3,10.8-6.6,14c-1.3,1.2-11.9,6.8-23.5,12.5
		c-11.6,5.7-21.2,10.8-21.2,11.3c0,0.5,3.2,0.9,8.8,0.9c8.2-0.1,9.3,0.2,14.2,2.6c4.6,2.4,5.6,3.4,7.8,7.8c5.4,11,6.3,23.1,2.3,33.7
		c-5.3,14.3-29.7,28.8-53.4,31.9c-8.2,1.1-20.9,0.1-26.3-1.9c-3.6-1.4-6-1.1-9.6,1.4c-4.1,2.8-4.2,4.9-0.6,7.1
		c4.9,2.8,16.5,12.4,22.9,19c11.3,11.3,19.3,23.3,22.5,33.8c0.9,3,1.7,9.7,2,17.1c0.5,10.5,0.3,13.2-1.4,19.8
		c-3.5,14.1-10.1,24.4-24,37.8c-19.3,18.6-40.1,27.4-69.3,29.5l-8.8,0.6l-1.2,6.8c-2.2,13.1-7.9,23.7-15.2,28
		c-1.7,1-3.1,2.2-3.1,2.6c0,0.4,1.4,3.1,3.2,5.8c3.8,5.9,6.5,13,7.3,19.1c0.3,2.3,1.3,5,2.1,6c3.4,3.9,6.4,12.2,11.7,32.4l3.3,12.6
		l14.3,6.4c25.9,11.6,62.9,25.1,93.6,34.1c14,4.1,17.5,4.8,17.5,3.1c0-2.2,6.8-14.2,11.3-20.3c2.7-3.6,4.9-6.9,4.9-7.5
		c0-0.5-3.8-0.9-10.3-0.9c-16,0-29.6-3.3-40.7-10c-10.3-6.2-16.6-15.9-23.2-36c-5.1-15.5-6.4-22.9-6.3-38.2
		c0.1-16.8,2.4-26.6,9.9-41.8c4.4-9,5.9-11.2,12.8-18c8.9-8.9,16.1-13.2,27.6-16.4c12.9-3.5,28.8-2.2,59.4,5
		c38.3,9.1,58.9,24.7,60.6,46.1c0.3,3.8,0.8,5.7,1.4,5.5c0.6-0.2,3.2-2.7,5.8-5.7c9.3-10.4,27.6-28.7,34.3-34
		c10.6-8.5,27.9-15.8,37.6-15.9c3.3,0,3.6-1.1,1.1-4.2c-3-3.8-2.3-8.9,1.8-17c3.8-7.2,8.8-14.3,13.4-18.7c1.5-1.5,2.8-3.1,2.8-3.8
		c0-0.5-1.8-1.3-4-1.5c-11.3-1.6-42.9-20.1-55.8-32.7c-17.5-17.2-33.7-42.1-40.4-62.6c-2.8-8.4-3.2-10.7-3.2-18.3
		c0-26.2,14.1-57.8,39.2-87.8c14.3-17,37.6-42.6,56.1-61.1c9.4-9.6,17.3-17.9,17.3-18.3c0-0.4-2.2-0.4-4.7-0.1
		c-8.6,1.3-16.2,0.6-22.4-2C1452.7,1351.8,1452.5,1351.8,1450.3,1355.7z"/>
	<path class="st9" d="M1099.8,1350.5v92.7c11.5,0,16-10.9,18-43.2c0.5-8.2,0.9-22.7,0.9-32.2v-17.3L1099.8,1350.5L1099.8,1350.5z"/>
	<path id="structure146_label155_Zo" bar:growlevel="0" bar:type="" class="st10" d="M1169.1,1144.2c-14,14.5-22,25-27.9,36.8
		c-3.9,7.7-4.7,10.2-5.1,15.5c-0.7,11.3,1.3,15.8,9.6,21.1c4.6,2.9,8.7,3.2,12.7,1.2c3.2-1.6,3.1-1.2,1.3-6.8
		c-2-5.9-1.3-17.3,1.4-24.5c4.6-12.1,16.7-26.7,26.6-31.9c10.7-5.7,20-6.6,49.9-4.8c53.1,3.2,110.3,9.4,132.3,14.3l7.7,1.7l15.7-2.2
		c16.9-2.4,20.3-3.4,20.3-6.2c0-1.5-1-2-6.3-2.9c-8.4-1.3-70.3-7.5-121.5-12c-35.1-3.1-86.8-8.4-101.3-10.4l-4.1-0.5L1169.1,1144.2z
		"/>
	<path id="structure147_label156_MZMG" bar:growlevel="0" bar:type="" class="st11" d="M1713.5,1417.8l-0.4,5.2l9.4,9.9
		c10.3,10.8,27.5,33.2,34.4,44.6c5.7,9.4,9.5,19,11.3,27.6c3.2,15.4-0.3,46.7-7.7,69.6c-10.3,31.4-31.5,47.6-64.9,49.2
		c-21.2,1.1-40-4.1-56.4-15.6c-3.1-2.2-6.1-4-6.7-4c-0.6,0-0.8,1.6-0.4,4.7c0.4,2.6,0.8,7.7,1.2,11.3l0.6,6.6l7,2.7
		c18,6.9,36.8,9.8,53.3,8.2c25.2-2.5,45.4-11.4,60.9-27.1c8.6-8.6,12-14.9,16.4-31.1c7-25.6,9.2-42.7,7.7-61.7
		c-2.2-29.1-18.2-62.2-42.1-87.6c-7.7-8.1-19.4-17.6-21.8-17.6C1714.2,1412.6,1713.7,1413.9,1713.5,1417.8z"/>
	<path id="structure148_label157_SLu" bar:growlevel="0" bar:type="" class="st12" d="M1809.9,1220.3c0,0.6,3.1,5.8,6.8,11.4
		c11.5,17.5,18.8,33.7,30.7,68.9c15.4,45.5,28.7,96.4,33,125.6c4.1,28.3,4.2,79.1,0.1,139.5c-3.4,48.9-7.7,70.4-18.6,92.2
		c-5.7,11.4-8.8,16.3-20.1,31.1c-24.7,32.3-49.9,60.7-99,110.7c-34.9,35.5-39.2,40.5-35,40.5c3.7,0,99.4-85.9,118-105.8
		c31.1-33.5,52.4-66.6,60.9-95c10.3-34,16.7-87.8,16.7-138.9c0-22.9-0.8-34.9-3.6-54.1c-9.4-64.1-37.8-151.9-62.7-193.6
		C1825.9,1233.5,1809.9,1214.7,1809.9,1220.3z"/>
	<path id="structure149_label158_Py" bar:growlevel="0" bar:type="" class="st13" d="M1625.6,932.1c-19.9,3.3-38.9,15.8-49.6,32.8
		c-1.5,2.4-5.1,11.8-8.2,21.5c-3.1,9.4-7.1,22-9.1,27.8c-2.3,6.8-3.5,11.8-3.3,14c0.3,3.1,0.5,3.3,3.2,3.6
		c5.7,0.5,10.6-3.8,13.4-11.7c0.7-2.2,2.7-10.2,4.4-17.9c5.2-23.5,8.6-31.8,16.1-39.1c5.4-5.2,13.6-9.4,24.1-12.5
		c12.6-3.6,22.1-4.6,44.4-4.6c19.4,0.1,21.3,0.2,31.3,2.5c36.3,8.6,77.5,28.6,157.9,76.9c59.7,35.7,87,57.8,120.2,96.9
		c30,35.3,50.7,67.2,66.2,102.4c14.5,32.8,46.8,118.8,55.8,148.6c9.6,31.7,13.8,51.1,21.2,97.8c10.2,64.5,13.1,93.4,15.8,151.8
		c2.2,47.9-2.7,93.3-15.8,147.4c-9.6,40.1-20.6,63.8-40.1,86.8c-8.6,10.3-41,44.6-52.5,55.5c-25,24-42.4,34.7-74.3,45.4
		c-12.6,4.2-17.2,6.1-17.2,7.2c0,3.1,8.1,8,18.2,11.2l5.1,1.6l6.1-2.5c23.1-9.6,52.9-27.6,77.2-46.5c40.7-31.6,72.8-77.9,83.2-119.5
		c2.1-8.4,7.7-42.6,11.3-67.9c8.1-57.6,11.4-114.4,9.6-160.4c-1.8-43.8-4.8-68-14.1-114.6c-19.4-96.9-35.6-151.7-64.3-216
		c-9.7-22-35.1-73.4-42.3-85.9c-27.5-47.9-66.8-89.9-113.8-121.9c-16.6-11.3-24.2-15.8-56.7-33.9c-15.8-8.8-36.3-20.3-45.4-25.4
		c-21.1-11.8-56.6-29.3-70.5-34.8c-19.5-7.6-47.1-14.4-67.4-16.6C1655.5,931,1632.5,931,1625.6,932.1z"/>
	<path class="st14" d="M1161.9,1893c0-0.7-3.1-9.1-6.8-18.5c-3.7-9.4-6.8-17.5-6.8-17.9c0-0.5-1.2-2.3-2.7-4.2
		c-5-6.4-11.2-26.1-13.5-43.7c-1.5-11.2-1.6-23.8-0.2-25.4c1.5-1.9-0.1-12.2-3-18.4c-6.2-13.7-22.3-31-29.3-31.7v150.3
		c6.2,0,12.4,0.4,15.7,1.2c3.1,0.7,9.1,1.8,13.4,2.3c4.4,0.5,12.7,2.3,18.5,3.7C1162.7,1894.7,1161.9,1894.5,1161.9,1893z"/>
	<path id="structure150_label159_GrDG" bar:growlevel="0" bar:type="" class="st15" d="M1709.1,1120.6c-6.2,1.2-11.8,2.7-38.3,10.5
		c-11,3.2-16.9,3.1-30.8-1c-13.3-3.9-20.5-4.8-29.3-3.8c-9.7,1.2-14.2,2.2-23.2,5.5c-8.9,3.2-14.7,6.9-15,9.6
		c-0.4,2.4,4.9,5.7,17.3,10.7c13.5,5.5,20.9,9,39,18.9c9.4,5.1,25.7,13.3,36,18.2c39.8,18.7,70.3,39.3,88.2,59.8
		c10,11.4,12.1,13.4,13.6,13.1c2.8-0.6,1.3-5-5-15.8c-4.2-7.4-7.8-12.3-12.2-16.6c-13.9-13.7-43-34.2-65.5-46.2
		c-7.2-3.8-22.4-12.2-33.8-18.7l-20.9-11.9l9.2-0.6c5-0.4,14.8-1.7,21.7-3c53.2-10.1,61.9-11,78.1-8.1c16.6,2.9,29.7,8.4,55.1,23
		c21.8,12.5,35.4,22.2,52.7,37.5c27.2,24.1,33.8,33.5,38.9,55c4.8,19.9,6.2,24.4,9.3,27.6c3.2,3.4,5.8,3.9,10.7,1.8
		c4.3-1.8,5.4-5.2,4.8-15.2c-1.3-17-5.5-28.7-15.1-41.6c-7.6-10.3-42.1-44-53.9-52.8c-38.2-28.4-92.8-54.5-119.3-56.9
		C1718.3,1119.5,1712.9,1119.9,1709.1,1120.6z"/>
	<path id="structure151_label160_LMol" bar:growlevel="0" bar:type="" class="st16" d="M1673.1,1018.9
		c-18.6,3.5-44.7,16.5-76.5,37.8c-29.7,20-52.4,40.9-59.4,54.4c-3,5.8-3,12.5-0.1,15.7c1.3,1.3,2.7,2.3,3.4,2.3
		c0.6,0,5.8-3.4,11.3-7.5c37.5-27.8,71.2-44.9,97.9-49.9c13.5-2.4,55-2.2,74.5,0.4c36.9,4.9,68.3,14.9,92.3,29.3
		c18.8,11.2,41.5,29,60.3,47.3c29.6,28.9,49,57.1,63.1,91.7c12.9,31.7,26.8,91.9,42.3,183.2c2.3,13.3,5.3,30.6,6.8,38.3
		c1.4,7.6,5.5,31.3,9,52.6c7.1,43.6,9.4,56,14.4,76.2c4.6,18.4,5.8,31.6,5.1,53.8c-1.1,32.5-6.7,60.8-17.3,87.4
		c-5,12.2-9.3,20.5-20.3,38.3c-24.5,39.6-38,54.9-63.5,71.8c-9.8,6.6-34.6,19-48.2,24.4c-7,2.7-8.8,3.7-8.8,5.1
		c0,2.8,13,14.9,21.1,19.7c8.9,5.1,18.5,9,27.7,11.1c9,2,24.8,1.5,32.1-1c5.6-1.9,28.5-16.9,39.3-25.7c34.3-28,56.8-63.8,66.8-106.1
		c4.8-20.3,7.3-45.6,7.9-81.9c0.5-31.1-0.1-45.9-4.7-99.6c-4.8-55.6-8.8-88.5-20.3-164.1c-5.9-39.3-8.6-52.1-15.7-76
		c-23.3-78.8-55.2-144-93-190.4c-39-47.7-97.7-88.7-166.2-116.1c-8.9-3.5-22.9-9.6-31-13.5c-8.2-3.9-17.3-7.7-20.3-8.6
		C1695.5,1017.8,1681.3,1017.3,1673.1,1018.9z"/>
	<path id="structure152_label161_Py" bar:growlevel="0" bar:type="" class="st13" d="M1731.1,1174.5c-3.1,1.4-4,2.9-4,7.4
		c0,2.9,0.4,3.2,6.2,6.2c24.8,12.4,50,31.9,59,45.3c16.4,24.8,36.8,73.3,49,116.9c11.1,39.4,17.3,68.3,21.9,101.1
		c1.7,12.5,1.4,58-0.4,80.6c-1.8,20.6-5.5,54.1-7.5,67.9c-5.4,36.7-21.2,70.3-46.3,98.2c-3.8,4.2-20.3,22.6-36.6,40.9
		c-16.3,18.3-35.1,39.2-41.7,46.3c-13.6,14.8-20.9,23.7-37.3,45.5c-13.9,18.5-19.6,25.3-37.4,44.5c-16.3,17.7-20.6,23-20.6,25.3
		c0,2.3,3.1,2.3,7.1-0.2c4.7-2.8,48.7-46.1,63.7-62.5c7.2-7.9,27.4-29.1,44.9-47.1c44.9-46.1,67.4-71.4,89.9-101
		c21.5-28.4,29-44.7,34.2-75c5.6-32.5,9.5-130.1,6.8-168.9c-2.2-32-13.1-78.6-31.8-135.9c-18.4-56.5-31.4-81.2-54.8-104.3
		C1774.1,1184.6,1742.5,1169.3,1731.1,1174.5z"/>
	<path id="structure153_label162_IMA" bar:growlevel="0" bar:type="" class="st17" d="M1692.1,1339.9l-4.9,49.8l2.5,1.8
		c1.4,1,6.8,5.1,11.9,9.2c5.1,4.1,9.7,7.5,10.3,7.5c1.5,0,0.8-8.1-1.2-13.8c-1.8-5.1-2-7.3-1.9-24.5c0-12.2,0.7-25.8,2-38.7
		c1.1-10.9,2.3-22.7,2.5-26.1l0.5-6.3l-7.6-4.3c-4.2-2.3-8-4.2-8.5-4.2C1697.4,1290.2,1694.7,1312.6,1692.1,1339.9z"/>
	<path id="structure154_label163_PLi" bar:growlevel="0" bar:type="" class="st18" d="M1526.4,1351.9c0,0.7,1.1,2.8,2.3,4.7
		c3.2,4.6,8.8,15.8,12,23.9c8.6,21.4,12.5,49.2,10.1,69.6c-3.9,31.4-10.8,59.4-21.2,85.1c-6,14.8-11.7,25.7-31.8,60.7
		c-11.3,19.7-20.7,31.1-29.1,34.7c-2.4,1.1-4.4,2.5-4.4,3.1c0,0.6,1.9,1.7,4.3,2.4c11.4,3.7,14.9,2.9,22.3-5
		c17.5-18.7,45.4-71.7,58.7-111.8c9.8-29.2,13-46.5,13-70.6c0-47-11.3-83.2-29.7-95.4C1528.4,1350.3,1526.4,1349.8,1526.4,1351.9z"
		/>
	<path id="structure155_label164_EpP" bar:growlevel="0" bar:type="" class="st19" d="M1660.1,1688.6c-34.4,1.9-49.1,4.5-51.7,9.2
		c-1.6,3-1.2,8.7,0.8,11.3c3.7,4.7,15.4,8.7,25.6,8.7c5.8,0,6.6-0.3,13.6-4.5c16.2-9.8,38.6-18.9,46.4-18.9c1.6,0,2.6-0.4,2.6-1.3
		C1697.4,1690.3,1675.8,1687.8,1660.1,1688.6z"/>
	<path id="structure156_label165_GrDG" bar:growlevel="0" bar:type="" class="st15" d="M1936.4,1724.4c-4.9,2.2-8.5,6-17.3,18.4
		c-15,21.3-21.5,28-41.2,42.8c-26.6,20-54.3,35.5-85,47.7c-17.5,6.9-42.2,19-60.3,29.4c-8.2,4.8-31.4,18.2-51.8,29.9
		c-20.3,11.7-39,23-41.6,24.9c-7.6,5.8-22.1,21.5-39.2,42.2c-19.9,24-25,28.4-27.6,23.5c-0.5-1-0.9-7.4-0.9-14.3
		c0-14.9-0.8-18.2-4.6-18.2c-2.3,0-3.4,1.3-9.5,9.6c-7,10-9.8,15.1-10.8,20c-0.6,3.1,1.2,3.9,3.3,1.3c1.9-2.2,9-6.6,10.9-6.6
		c2.5,0,3.5,3.2,3.9,12.6c0.4,8.6,2,14.9,4.3,16.4c2.1,1.3,6.6,0.7,9.3-1.3c1.4-1.1,8.2-8.1,14.9-15.5c12.7-14,31.6-32.8,44.8-44.6
		c12.3-11,22.1-18.5,36.9-28.3c29.6-19.6,57.6-34.1,99-51.3c43.8-18.3,61.7-24.9,94.9-35.5c23.7-7.5,37.5-15.4,51-29.2
		c12.2-12.4,21.2-27.7,25.5-43.9C1951.5,1731.6,1947.8,1719.4,1936.4,1724.4z"/>
	<path id="structure157_label166_PoDG" bar:growlevel="0" bar:type="" class="st20" d="M1729.8,1189.2c0,2,4,7.7,10.6,15
		c8.6,9.6,15.2,21.5,21,37.4c1.8,5.2,4.2,11.2,5.3,13.2c1.4,2.5,1.8,4.6,1.4,6.1c-0.7,2.6,0.3,5.9,10.4,36.4
		c15.8,47.2,24.4,83.2,35.8,149.8c10,58.6,12.3,102.9,6.8,129.2c-1.4,7.1-16.5,46.8-24,63.4c-10.1,22.4-22.2,42.2-37.5,61.2
		c-8.5,10.6-16.3,18.8-58.3,61.9c-12,12.2-23.5,24.6-25.7,27.5c-5.1,6.8-32.2,50-32.2,51.4c0,0.5,0.6,2,1.4,3.2
		c1.1,1.7,1.2,2.8,0.4,5.7c-2.8,10.7-21.9,29.9-29.6,29.9c-1,0-2.8,1.3-4,3c-2.3,3.1-3.1,6-1.4,6c0.5,0,1.3,0.8,1.9,1.9
		c0.7,1.5,0.6,2.8-0.5,5.8c-1.8,4.7-10.5,13.9-15.7,16.6c-2.7,1.4-6.8,5.8-15.1,16.2c-6.3,7.9-12.1,15.4-12.8,16.7
		c-1.3,2.1-1.3,2.3,0.4,3.6c3.1,2.1,4.2,8.5,3.5,19.9c-0.7,11.4-0.1,13.9,3.9,13.9c3.2,0,8.3-5.2,25.8-26.6
		c7.4-8.9,17.9-20.9,23.5-26.5l10-10.3l0.6-9.2c0.4-6.8,0.3-9.2-0.5-9.4c-2.2-0.7,3.9-8.6,21.3-27.6c19.5-21.2,23.5-26.1,37.8-45.1
		c14.6-19.4,22.6-29.2,38.2-46.3c31.8-34.7,82.8-92.4,88.4-99.8c16.4-21.8,28.5-50.5,33.1-78c2-12.2,5.6-42.5,7.8-67.1
		c0.8-8.5,1.6-28.7,1.9-45c0.5-32.3-0.4-44.2-5.7-72c-11.7-62.1-31.1-122.1-54.4-167.9c-13.8-27.2-25.3-38.7-57.9-58.1
		C1732.8,1187.5,1729.8,1186.4,1729.8,1189.2z"/>
	<path id="structure158_label167_SNCD" bar:growlevel="0" bar:type="" class="st21" d="M1541.3,1746c-10.1,3.2-32.2,16.1-48.7,28.5
		c-28.7,21.6-76.1,63.8-78.5,69.9c-0.5,1.4-1.6,6-2.4,10.4c-1.8,9.9-5.3,21.3-8.2,26.5c-1.2,2.2-2.2,4.2-2.2,4.7
		c0,2.3,7.1-0.7,14.9-6.2c11.4-8.1,22.1-18.2,54-50.1c36.3-36.5,45-44.1,66.9-58.7c7.1-4.7,14.3-9.8,16-11.3
		c3.8-3.3,4.8-7.7,2.7-12.1c-1.4-2.9-1.6-3.1-6.1-3C1547.1,1744.8,1543.3,1745.4,1541.3,1746z"/>
	<path id="structure159_label168_MCPC" bar:growlevel="0" bar:type="" class="st22" d="M1250,1476.2c-7.5,1.6-12.4,3.6-12.4,5.1
		c0,0.5,0.9,3.3,1.9,6c2.7,7,3.3,20.3,1.4,27.4c-2.1,6.9-7.2,12-23.3,22.5c-6.8,4.4-12.3,8.6-12.3,9.1c0,2.9,21.6,4.9,32.9,3.1
		c8.7-1.4,17.4-4.3,26.2-8.9c18.3-9.5,25.5-19.4,25.5-34.9c0-10.6-3.1-20.4-7.9-25.7C1277.1,1474.9,1263.3,1473.3,1250,1476.2z"/>
	<path id="structure160_label170_InCSh" bar:growlevel="0" bar:type="" class="st23" d="M1193.4,1562.7c0,8.5,1.6,15.8,4.7,20.8
		c1.1,1.6,6.1,7.7,11.3,13.5c18.5,20.6,21.3,29.6,14.8,47.6c-8.4,23.1-18.2,33-34.8,35.4c-8.8,1.3-22,0.5-27.4-1.4
		c-8.6-3.2-8.1-3.7-8.1,6.6c0,11.6-1.2,17.1-5,22.8c-1.7,2.5-3.1,5-3.1,5.4c0,2.6,25.5-1.1,38.3-5.5c14.8-5.2,24.2-11.3,37.7-24.2
		c17.8-17.4,24.2-31.4,24.1-53.6c0-21.2-4.4-32-20.3-50.2c-7.7-8.7-27.7-24.9-30.9-24.9C1193.7,1554.8,1193.4,1556.8,1193.4,1562.7z
		"/>
	<path id="structure161_label171_PrEW" bar:growlevel="0" bar:type="" class="st24" d="M1105.8,1589.2c-0.3,2.2-0.7,22.5-1,45.3
		c-0.5,44.5-0.4,47.3,3.6,47.3c3.1,0,4-1.7,6-11.8c1.8-8.3,2-12.2,2-34.1c0-19.6-0.3-26.6-1.5-33.7c-1.9-10.9-4.3-16.7-6.8-16.7
		C1106.6,1585.4,1106.1,1586.2,1105.8,1589.2z"/>
	<path id="structure162_label172_MA3" bar:growlevel="0" bar:type="" class="st25" d="M1122,1619.4c-2.3,9.4-3.7,17.8-4.2,25
		c-1.1,15.2-2.3,23.4-5.8,37.8c-4.5,18.8-6,29.8-5.6,40.4c0.4,11.2,1.9,14.7,9.1,22.1c6.7,6.8,8.3,6.9,14.1,0.9
		c9.9-10.2,11.7-18.9,11.7-57.6c0-17,0.4-29.5,1-32.7c1-4.9,1-5.3-2.2-12.2c-3.9-8.5-8.8-22.8-11-31.5c-0.8-3.5-2.1-6.5-2.6-6.5
		C1125.9,1605.2,1124.1,1610.9,1122,1619.4z"/>
	<path id="structure166_label177_MT" bar:growlevel="0" bar:type="" class="st26" d="M1402.3,1812.2c-5,2.3-19.3,16.7-23.4,23.7
		c-6.8,11.7-10,23.8-10.2,40.8c-0.2,7.5,0.1,9.6,1.6,12.5c4.8,9.3,20.7,9.1,28.1-0.3c6.3-8,9.6-17.5,14.2-40.7
		c3.8-19.5,4.5-31.5,1.9-35.4C1412.6,1809.8,1408.2,1809.6,1402.3,1812.2z"/>
	<path id="structure167_label178_SNCD" bar:growlevel="0" bar:type="" class="st21" d="M1357.6,1885.7c-4.4,2.7-12.5,8.5-18.1,12.6
		c-43.4,32.8-69.2,71.8-71.9,108.5l-0.6,7.7l7.2-0.1c5.8,0,8,0.4,11.4,2c2.3,1.2,4.3,2,4.5,1.8c0.2-0.2,1.2-4.2,2.3-8.9
		c10-41.5,33.8-79.5,63.2-101.3c5.9-4.3,15.9-10.7,18.1-11.5c0.8-0.3,0.8-0.8-0.1-2.1c-4-5.9-4.6-7.3-5.1-10.4
		c-0.4-1.9-1.1-3.4-1.7-3.4C1366.2,1880.6,1362,1882.9,1357.6,1885.7z"/>
	<path id="structure168_label179_MGM" bar:growlevel="0" bar:type="" class="st27" d="M1593.9,1489.3c0,0.6-0.8,6.7-1.8,13.2
		c-1,6.7-2.3,18-2.8,25.2c-2.7,38.5,6.8,72.1,24.6,86.7c5.9,4.9,15.2,10.6,17.1,10.6c2.3,0,2.2-2-1.2-30.6c-2.3-19.5-3-31.1-4-63.5
		c-0.6-21.8-1.5-40.3-1.8-41.2c-0.5-1.4-2.2-1.5-15.4-1.5C1597.5,1488.2,1593.9,1488.5,1593.9,1489.3z"/>
	<path id="structure169_label180_SG" bar:growlevel="0" bar:type="" class="st28" d="M1598,1363l-3.6,0.5v61.7v61.7l14.4,0.5
		c7.9,0.2,14.5,0.3,14.7,0.2c0.2-0.2-0.2-3.6-0.8-7.7c-1.3-8.6-0.7-55.3,1.1-91.5c0.5-12,0.8-22.1,0.5-22.4
		c-0.3-0.3-3.9-1.3-7.9-2.2C1608.7,1362.2,1604.5,1362.1,1598,1363z"/>
	<path id="structure16_label12_RPC" bar:growlevel="0" bar:type="" class="st29" d="M1264,1682.2c-31.9,6.9-52.5,37.3-52.6,77
		c0,13.9,1.7,24.1,6.2,37.7c4.9,14.7,9.5,23.8,15.1,29.4c5.5,5.7,8.4,6.3,8.4,1.8c0-5.4,2.7-15.5,5.5-21.1c7.1-14,19.2-21,36.4-21
		c16.1,0,29.6,6.8,37.4,19c1.6,2.4,3.3,4.4,3.9,4.4c1.3,0,14.9-15.9,32.9-38.3c7.6-9.4,16.2-19.9,19.1-23.3
		c4.7-5.7,5.2-6.7,5.2-10.4c0-17.9-12.1-32.1-35.6-41.8c-9.5-4-24.2-7.8-44.8-11.7C1282.8,1680.6,1273.5,1680.1,1264,1682.2z"/>
	<path id="structure17_label13_RMC" bar:growlevel="0" bar:type="" class="st30" d="M1274.2,1787c-18.9,3-32.1,19.7-32.1,40.6v6
		l3.9,1.8c11.2,5.2,27.5,8,40.4,7l7.7-0.7l11.7-11.8c16-16.4,17.6-18.2,16.9-20.7c-1.9-6.9-14-17.5-23.6-20.4
		C1292.1,1786.7,1281.4,1786,1274.2,1787z"/>
	<path id="structure184_label196_a" bar:growlevel="0" bar:type="" class="st31" d="M1325.5,2070c-6.2,2.3-8.7,6.1-6.9,10.8
		c1.8,4.8,10.4,7.7,17.3,5.9c10.6-2.9,10.7-14.1,0.2-17C1331.5,2068.5,1329.7,2068.6,1325.5,2070z"/>
	<path id="structure185_label197_MT" bar:growlevel="0" bar:type="" class="st26" d="M1267,2016.1c-1.9,0.6-3.7,1.4-3.9,1.6
		c-1,0.9-5,17.1-4.5,18.3c0.3,0.7,1.4,1.3,2.6,1.3c3.5,0,8.6,2.5,16.4,8.1c7.4,5.3,10.5,7.2,11.9,7.2c0.4,0,0.8-7.4,0.7-16.3
		c-0.1-15.8-0.2-16.4-2.2-18C1283.7,2014.7,1273.5,2013.7,1267,2016.1z"/>
	<path id="structure18_label14_PN" bar:growlevel="0" bar:type="" class="st32" d="M1125.9,1887.7c0,0.5,0.8,2.4,1.7,4.3
		c1.9,3.7,3.7,22.7,3.7,39.1c0,5.3,0.4,8,1,8c0.5,0,2.6-1.6,4.5-3.5c1.9-2.1,4.9-4,6.8-4.5c10.3-2.9,28.5,1.2,35.7,7.8
		c5.3,5,9.3,18.2,8.3,27.2c-0.4,2.7-1.4,8.5-2.4,12.9c-1.1,4.4-1.6,8.2-1.3,8.5s2.9-0.5,5.7-1.8c9.9-4.4,25.9-5,41.2-1.5
		c6.7,1.5,6.8,1.5,6.8-4.4c0-7.7-2.9-16-10.3-29.8c-3.6-6.7-7.6-14.1-8.7-16.6c-3.1-6.4-9.8-13.3-18.3-18.9
		c-21.1-14-45-23.2-70.5-27.1C1127.3,1887,1125.9,1887.1,1125.9,1887.7z"/>
	<path id="structure190_label206_fr" bar:growlevel="0" bar:type="" class="st33" d="M1140.8,1932.7c-4,2.4-7.6,7.1-10,12.5
		c-2.3,4.9-5.8,17.8-5.8,20.8c0,2.5,7.6,9.2,15,13c10,5.2,32.2,12.4,38.5,12.4c2.9,0,4.3-3,6.9-14.8c2.6-12,2.1-22.4-1.7-30.3
		c-4.9-10.5-12.4-14.3-29.5-14.9C1144.8,1930.9,1143.1,1931.1,1140.8,1932.7z"/>
	<path id="structure191_label207_mp" bar:growlevel="0" bar:type="" class="st34" d="M1196.3,1983.6c-6.4,1.6-14.9,6-15.3,7.9
		c-0.2,1.1,1.3,2.3,4.9,4.2c7.1,3.5,13.2,8.4,25,19.9c12.6,12.2,16.8,15.6,23.5,18.6c4.6,2.2,6.5,2.5,13.6,2.5
		c4.5,0,8.5-0.3,8.8-0.5c0.3-0.4,1.8-5,3.3-10.3c4.5-15.7,3.7-22.3-3.7-30.3c-4.6-4.9-11.3-8-23-10.5
		C1222,1982.6,1203,1981.9,1196.3,1983.6z"/>
	<path id="structure192_label210_scp" bar:growlevel="0" bar:type="" class="st35" d="M1264,1682.2c-31.9,6.9-52.5,37.3-52.6,77
		c0,13.9,1.7,24.1,6.2,37.7c4.9,14.7,9.5,23.8,15.1,29.4c5.5,5.7,8.4,6.3,8.4,1.8c0-5.4,2.7-15.5,5.5-21.1c7.1-14,19.2-21,36.4-21
		c16.1,0,29.6,6.8,37.4,19c1.6,2.4,3.3,4.4,3.9,4.4c1.3,0,14.9-15.9,32.9-38.3c7.6-9.4,16.2-19.9,19.1-23.3
		c4.7-5.7,5.2-6.7,5.2-10.4c0-17.9-12.1-32.1-35.6-41.8c-9.5-4-24.2-7.8-44.8-11.7C1282.8,1680.6,1273.5,1680.1,1264,1682.2z"/>
	<path id="structure195_label213_mlf" bar:growlevel="0" bar:type="" class="st36" d="M1169.1,1604.4c0,3-8.5,18.4-13.9,25
		c-12.6,15.8-13.5,19.5-13.2,55.4c0.1,14.8,0.4,27.1,0.5,27.3c0.9,0.9,3.9-1.1,5.9-4.1c4.1-5.9,4.6-8.9,4.8-30.2l0.1-20l3.8-7.7
		c2.1-4.1,6.7-11.3,10.2-16c3.5-4.7,6.8-10.1,7.3-12.2c1.7-6.2-0.8-18.5-3.9-18.5C1169.9,1603.4,1169.1,1603.9,1169.1,1604.4z"/>
	<polygon class="st37" points="1099.8,1456.7 1099.8,1555.7 1102.5,1555.7 1102.5,1506.2 1102.5,1456.7 	"/>
	<path class="st38" d="M1237.9,1484.2c-1.9-4.1-10.5-10.9-25.2-19.9c-11.3-6.8-14.2-9.8-17.3-16.8c-3.2-7.4-1.9-17.6,2.8-22.1
		c2.4-2.3,11.3-6.4,20-9.2c8.3-2.7,11.3-5.4,11.3-10.4c0-3.2-0.6-4.6-3.6-8c-15.4-17.8-45.5-34.3-76.8-41.9
		c-10.8-2.7-28.1-5.2-29-4.3c-0.3,0.3-0.9,13.6-1.4,29.6c-0.9,30.6-1.5,38-4.5,47.6c-3,9.9-8.2,15.2-14.4,15.1v12.8h2.7v49.1v49.1
		h-2.7v178.9c1.9,0,3.9,0.2,5.2,0.7c2.1,0.7,2.1,0.6,1.3-4.1c-1.3-8.3-0.4-21.8,2-33.7c2.7-13.6,2.7-13.8,0.3-14.1
		c-3.8-0.5-4.8-4.4-4.7-18.7c0.4-42.5,1.1-74.6,1.7-76.8c1.6-6,6.6,0.7,8.8,12c0.8,3.7,1.6,10,2,13.9c1.3,17.4,2.7,17.6,6.6,0.6
		c2.5-10.7,2.9-13.9,2.9-24.7c0-6.8,0.4-14.5,1-17.1c3.5-16.6,16.7-29.4,31.5-30.2c7.7-0.4,14,1.3,25,7.1c4.7,2.4,8.8,4.4,9.3,4.4
		c1.3,0,33.8-21.7,39.5-26.4c6.2-5,8.9-10.7,9.5-19.9C1242.2,1499.8,1240.5,1489.7,1237.9,1484.2z"/>
	<path id="structure200_label217_pc" bar:growlevel="0" bar:type="" class="st39" d="M1210.5,1419.2c-14,5.3-16.7,8.8-16,20.3
		c0.7,11.5,3.9,15.8,18.9,25c5.3,3.3,12.2,7.9,15.3,10.4c3.3,2.4,6.7,4.2,8,4.3c3.9,0,13.6-5.5,15.9-9c2.4-3.6,2.3-8.3-0.2-13.5
		c-1.4-2.8-20.3-28.7-27.1-37.2C1222.1,1415.4,1220.5,1415.4,1210.5,1419.2z"/>
	<path class="st40" d="M1237.9,1484.2c-1.9-4.1-10.5-10.9-25.2-19.9c-11.3-6.8-14.2-9.8-17.3-16.8c-3.2-7.4-1.9-17.6,2.8-22.1
		c2.4-2.3,11.3-6.4,20-9.2c8.3-2.7,11.3-5.4,11.3-10.4c0-3.2-0.6-4.6-3.6-8c-15.4-17.8-45.5-34.3-76.8-41.9
		c-10.8-2.7-28.1-5.2-29-4.3c-0.3,0.3-0.9,13.6-1.4,29.6c-0.9,30.6-1.5,38-4.5,47.6c-3,9.9-8.2,15.2-14.4,15.1v12.8h2.7v49.1v49.1
		h-2.7v178.9c1.9,0,3.9,0.2,5.2,0.7c2.1,0.7,2.1,0.6,1.3-4.1c-1.3-8.3-0.4-21.8,2-33.7c2.7-13.6,2.7-13.8,0.3-14.1
		c-3.8-0.5-4.8-4.4-4.7-18.7c0.4-42.5,1.1-74.6,1.7-76.8c1.6-6,6.6,0.7,8.8,12c0.8,3.7,1.6,10,2,13.9c1.3,17.4,2.7,17.6,6.6,0.6
		c2.5-10.7,2.9-13.9,2.9-24.7c0-6.8,0.4-14.5,1-17.1c3.5-16.6,16.7-29.4,31.5-30.2c7.7-0.4,14,1.3,25,7.1c4.7,2.4,8.8,4.4,9.3,4.4
		c1.3,0,33.8-21.7,39.5-26.4c6.2-5,8.9-10.7,9.5-19.9C1242.2,1499.8,1240.5,1489.7,1237.9,1484.2z"/>
	<path id="structure206_label226_mtg" bar:growlevel="0" bar:type="" class="st41" d="M1131.7,1784.9c-1.8,7.1,2.2,36.4,6.8,50.8
		c3.9,12,7,17.5,9.9,17.5c2.2,0,2.3-0.2,2.5-7.5c0.2-4.3-0.4-11-1.2-15.3c-2.7-14.5-10.6-41.3-13.5-45.8
		C1134.5,1781.8,1132.4,1782,1131.7,1784.9z"/>
	<path id="structure208_text3296_OlfCx" bar:growlevel="0" bar:type="" class="st42" d="M2071.8,1947.4
		c-16.8,15.8-51,38.7-75.8,50.8c-5.4,2.6-6.8,4.9-3.2,4.9c1.2,0,10.4-0.6,20.5-1.4c20.2-1.4,59.9-3.3,105.3-5
		c31.3-1.2,60.6-0.4,88.6,2.3c26.7,2.7,26.6,2.7,26.6,1.1c0-3.1-64.1-28.4-110.7-43.7c-18.9-6.2-43.9-13.7-45.5-13.7
		C2077.2,1942.8,2074.5,1944.9,2071.8,1947.4z"/>
	<path id="structure209_text3288_OlfCx-1" bar:growlevel="0" bar:type="" class="st43" d="M2256.4,2014.9c-0.6,2.2-2.7,7.2-4.6,11.3
		c-17,36.5-55.8,60.1-108.5,66c-4.5,0.4-33,0.9-63.4,0.9c-82,0.1-139.5,2.2-139.5,4.9c0,0.5,2.4,2.7,5.3,4.8c13,9.1,19.5,24,17.2,39
		c-3.5,23.2-19.8,38.7-47.7,45.7c-26.7,6.8-42.8,7.8-88.7,6c-39-1.4-41-1.8-56.8-9.6c-17.5-8.5-27.5-21-27.4-34
		c0.1-3.2,0.6-7.6,1.3-9.5c1.7-4.7,1.7-5.9-0.2-5.9c-2.3,0-23.7,10.5-31.2,15.3c-8,5-11.4,5.2-15.1,0.9c-1.4-1.7-2.5-3.6-2.5-4.2
		c0-1.4-2.3-2.6-6.8-3.3c-13.4-2.4-32.8-12.2-40.9-20.7c-1.7-1.8-3.8-3.2-4.5-3.2c-2.3,0-7.5,3.5-7.1,4.9
		c0.6,2.9,26.9,23.6,36.7,29.1c8,4.4,15.5,10.6,37.9,31.5c19.4,18.2,23.8,21.5,34.5,26.9c19.1,9.5,44.5,14.9,83.3,17.6
		c37.4,2.4,66.3-2.1,90.4-14.1c7.5-3.8,12.7-7.1,36.4-23.4c23.6-16.2,50.9-28.2,75.9-33.2c7.1-1.4,18.4-2.7,32.1-3.6
		c88.5-5.9,95-7.1,121.9-23.7c23.4-14.5,57.2-43.4,79.7-68c14.8-16.3,26-30.3,26.1-32.5c0-1.3-2.1-3.1-7.4-6.5
		c-9.9-6.1-22.6-12.9-24.3-12.9C2258.1,2011.1,2257.1,2012.7,2256.4,2014.9z"/>
	<path id="structure20_label16_InC" bar:growlevel="0" bar:type="" class="st44" d="M1184.1,1569.4c-7.7,16.2-12.2,27.1-12.2,29.5
		c0,1.1,0.9,4.8,1.9,8.3c2.7,8.7,2.2,15.6-1.7,20.8c-13.7,18.5-19,29.2-19.1,38.2c0,6.9,1.2,9.1,6,11.3c4,1.8,5.8,2,20.1,2h15.8l6-3
		c10.2-5,17.4-15.1,23.2-32.3c4.6-13.8,3.4-23.4-4.2-34.6c-1.5-2.3-6.8-8.3-11.4-13.5c-11.9-12.9-15.8-21.4-15.8-34.2
		C1192.5,1554.4,1190.4,1556.3,1184.1,1569.4z"/>
	<path id="structure212_Unlabeled-2313-893_Unlabeled" bar:growlevel="0" bar:type="" class="st45" d="M1557.1,1042.7
		c-10.3,17.9-33.4,35.4-65.9,49.8c-22,9.7-58.5,20.7-77.2,23.2c-9.3,1.3-35.8,0.5-55-1.4c-21.8-2.3-46.3-2.6-73.3-1
		c-13.3,0.8-34.8,1.9-47.7,2.4c-12.9,0.4-25.8,1.4-28.8,2.1l-5.4,1.1l-2.2,5.4c-1.2,2.9-2.2,6.5-2.3,8l-0.1,2.7l22.5,2.4
		c12.4,1.3,41.1,4.1,63.9,6.1c56.3,4.9,112.7,10.5,121.9,12.2c4.2,0.7,13.4,1.5,20.5,1.9c12.2,0.6,12.8,0.5,12.8-1.1
		c0-1.5,2.1-2.3,14.7-5.6c8-2.1,25.1-6.3,38-9.3c12.9-3,27.4-6.4,32.1-7.6c4.8-1.3,9.9-2.3,11.4-2.3c3.4,0,3.5-1.4,0.4-4.8
		c-2.2-2.2-2.5-3.3-2.4-7.2c0.1-8,6-17.1,19.4-30.1c8.4-7.9,24-20.6,32.8-26.6c3.1-2.1,5.7-4.4,5.7-5.2c0-0.9-1.3-1.8-3.8-2.5
		c-5.7-1.6-14.8-7.3-21.2-13.1c-3-2.8-6-5-6.8-5C1560.7,1037.3,1558.8,1039.8,1557.1,1042.7z"/>
	<path class="st45" d="M1194.4,1328.1c-6.8-9.2-16.7-25.6-19.5-32.3c-2.1-4.9-2.5-7.4-2.6-13.7v-7.7l-6.6-0.1
		c-8.9-0.1-15.6-3.4-19.5-9.7c-2.3-3.8-2.8-5.6-3.1-11.4l-0.3-7l-3.2-0.6c-5.5-1-15.9,0.1-20.2,2.2c-2.2,1.1-6.9,4.4-10.5,7.4
		c-4.3,3.5-6.7,5.3-9.2,5.3v56.6c15.5,0,31.1,1.3,48.4,3.8c16.7,2.4,25,4.8,37.4,10.4C1200.8,1338.1,1201.6,1337.8,1194.4,1328.1z"
		/>
	<path id="structure215_Unlabeled-2215-1612_Unlabeled" bar:growlevel="0" bar:type="" class="st45" d="M1468.8,1684.4
		c0,0.5,1.2,2.2,2.6,3.5c9.5,8.9,2.7,38.9-14.9,64.9c-10.3,15.5-26.6,33.4-43.7,48.3c-4.3,3.8-7.9,7.5-7.9,8.1c0,0.8,1.3,1.2,4,1.2
		c3.2,0,4.3,0.5,5.4,2.2c1.7,2.6,2.2,10.6,1.1,20.5c-0.6,5.3-0.5,7,0.3,7c0.6,0,5.2-4,10.3-8.8c11.2-10.7,27.5-25.2,44-38.8
		c24.8-20.7,41.8-32.4,59.8-41.4c10.3-5.1,14.3-6.4,20.5-6.4c3.6,0,6.9-1.1,15.3-4.9c19.8-8.9,53.5-20.3,60-20.3
		c3.1,0,1.7-2.5-1.7-3.1c-5.1-0.9-12.6-4.8-14.8-7.5c-1.9-2.4-2.1-7.5-0.4-12.7l0.7-2.1l-7.6,0.6c-9,0.7-47.3-0.8-68.3-2.7
		c-12.2-1.2-46.5-5.8-61.4-8.2C1469.8,1683.4,1468.8,1683.6,1468.8,1684.4z"/>
	<path id="structure217_Unlabeled-2641-1819_Unlabeled" bar:growlevel="0" bar:type="" class="st45" d="M1854.9,1871.4
		c-97.4,35.5-145.5,55.7-177.3,74.6c-23.5,14-36.2,25.1-60.1,52.5c-20.1,23-38.6,42.2-43,44.5c-2.4,1.3-2.9,2.1-3.3,6.3
		c-0.6,4.8,0.9,12.9,3.2,17.1c2.7,5.1,8.7,13.2,14.6,19.3c6.7,7,42.9,38,44.6,38c0.5,0,2.3-1,4.1-2.2c1.8-1.3,3.7-2.4,4.3-2.6
		c0.8-0.3,0.6-1.1-0.5-3c-4.9-7.9-6.2-15.6-3.9-24.4c5.7-22.3,30.2-48.3,59-62.8c13.3-6.7,32.7-12.2,123.8-35.5
		c31.2-8,67-17.4,79.6-20.9c12.6-3.4,23.9-6.5,25-6.8c2.3-0.5,2.4-1.1,0.6-6.9c-1.8-5.9-1.7-18.7,0.1-24.9
		c2.4-8.2,8.5-18.6,15.3-26.3c3.2-3.4,4-6,2-6c-0.6,0-3.4,0.6-6.1,1.3c-2.8,0.7-8.8,1.4-13.9,1.4c-14.4,0-27.6-3.9-42.3-12.4
		c-7.6-4.5-21.1-16.9-21.1-19.4C1859.4,1870.7,1857.6,1870.4,1854.9,1871.4z"/>
	<path id="structure21_label17_Dk" bar:growlevel="0" bar:type="" class="st46" d="M1152.3,1542.7c-11.8,3.2-21.2,13.8-24.7,27.4
		c-2.1,8.4-1.4,26.4,1.3,38.8c3.9,17,12,38.6,14.4,38.6c0.5,0,2.2-2.6,3.5-5.7c1.3-3.1,4.5-7.9,6.9-10.8
		c6.6-7.6,10.1-14.2,16.6-30.6c6.8-17,14-33.2,18.3-40.4c1.6-2.8,3-5.5,3-5.9c0-1.3-10.3-6.9-17.3-9.5
		C1166.8,1541.7,1158.3,1541,1152.3,1542.7z"/>
	<path id="structure24_label22_PIL" bar:growlevel="0" bar:type="" class="st47" d="M1592.6,1625.1c-6.4,0.4-28.7,1.8-49.5,3.1
		c-20.8,1.3-40.1,2.7-43,3.1c-14.2,2.3-27.6,13.7-36.3,30.8c-5,9.8-5,15.9,0.1,19.3c2.6,1.7,32.1,6.5,57.2,9.4
		c29.1,3.2,72.4,5.1,85,3.7c5.7-0.6,21.6-3.6,22.8-4.2c0.5-0.2,3.8-50.9,3.8-57.6c0-5.9-0.2-6.5-2.3-7.4
		C1627.8,1624,1610.8,1624,1592.6,1625.1z"/>
	<path id="structure25_text3295_APT" bar:growlevel="0" bar:type="" class="st48" d="M1504.7,1347.8c-6.5,1.9-23.8,17.6-47.3,42.7
		c-41.2,43.8-55.9,62.1-66.6,83.2c-9.7,19-14,34.6-14.1,50.6c0,12.2,1.3,17,9,33.1c10.2,21.2,27.5,43.8,42.8,55.5
		c9.2,7,30.6,19.3,33.7,19.3c7.9,0,19.5-10.3,28.9-25.3c9.5-15.3,29.5-51.5,33.9-61.4c8.3-18.3,13.2-33.2,18.2-53.7
		c6.1-25.6,7.3-34.5,7.3-55.8c0-16.9-0.3-20.6-2.2-29.3c-4.2-19.9-13.3-42.3-21.9-53.7c-3.1-4.1-4.5-5.1-7-5.6
		C1514.9,1346.7,1507.6,1346.9,1504.7,1347.8z"/>
	<path id="structure26_label26_p1Rt" bar:growlevel="0" bar:type="" class="st49" d="M1450.3,1355.7c-8.2,14.4-27.5,36.8-37.6,43.7
		c-20.2,13.7-61.4,26-98.2,29.3l-7.1,0.6l-1.4,6.3c-1.7,7.2-3.3,10.8-6.6,14c-1.3,1.2-11.9,6.8-23.5,12.5
		c-11.6,5.7-21.2,10.8-21.2,11.3c0,0.5,3.2,0.9,8.8,0.9c8.2-0.1,9.3,0.2,14.2,2.6c4.6,2.4,5.6,3.4,7.8,7.8c5.4,11,6.3,23.1,2.3,33.7
		c-5.3,14.3-29.7,28.8-53.4,31.9c-8.2,1.1-20.9,0.1-26.3-1.9c-3.6-1.4-6-1.1-9.6,1.4c-4.1,2.8-4.2,4.9-0.6,7.1
		c4.9,2.8,16.5,12.4,22.9,19c11.3,11.3,19.3,23.3,22.5,33.8c0.9,3,1.7,9.7,2,17.1c0.5,10.5,0.3,13.2-1.4,19.8
		c-3.5,14.1-10.1,24.4-24,37.8c-19.3,18.6-40.1,27.4-69.3,29.5l-8.8,0.6l-1.2,6.8c-2.2,13.1-7.9,23.7-15.2,28
		c-1.7,1-3.1,2.2-3.1,2.6c0,0.4,1.4,3.1,3.2,5.8c3.8,5.9,6.5,13,7.3,19.1c0.3,2.3,1.3,5,2.1,6c3.4,3.9,6.4,12.2,11.7,32.4l3.3,12.6
		l14.3,6.4c25.9,11.6,62.9,25.1,93.6,34.1c14,4.1,17.5,4.8,17.5,3.1c0-2.2,6.8-14.2,11.3-20.3c2.7-3.6,4.9-6.9,4.9-7.5
		c0-0.5-3.8-0.9-10.3-0.9c-16,0-29.6-3.3-40.7-10c-10.3-6.2-16.6-15.9-23.2-36c-5.1-15.5-6.4-22.9-6.3-38.2
		c0.1-16.8,2.4-26.6,9.9-41.8c4.4-9,5.9-11.2,12.8-18c8.9-8.9,16.1-13.2,27.6-16.4c12.9-3.5,28.8-2.2,59.4,5
		c38.3,9.1,58.9,24.7,60.6,46.1c0.3,3.8,0.8,5.7,1.4,5.5c0.6-0.2,3.2-2.7,5.8-5.7c9.3-10.4,27.6-28.7,34.3-34
		c10.6-8.5,27.9-15.8,37.6-15.9c3.3,0,3.6-1.1,1.1-4.2c-3-3.8-2.3-8.9,1.8-17c3.8-7.2,8.8-14.3,13.4-18.7c1.5-1.5,2.8-3.1,2.8-3.8
		c0-0.5-1.8-1.3-4-1.5c-11.3-1.6-42.9-20.1-55.8-32.7c-17.5-17.2-33.7-42.1-40.4-62.6c-2.8-8.4-3.2-10.7-3.2-18.3
		c0-26.2,14.1-57.8,39.2-87.8c14.3-17,37.6-42.6,56.1-61.1c9.4-9.6,17.3-17.9,17.3-18.3c0-0.4-2.2-0.4-4.7-0.1
		c-8.6,1.3-16.2,0.6-22.4-2C1452.7,1351.8,1452.5,1351.8,1450.3,1355.7z"/>
	<path id="structure28_label28_PCom" bar:growlevel="0" bar:type="" class="st50" d="M1233.8,1354.7c-2.6,0.8-1.9,2.6,2,5.3
		c2,1.3,6.8,5.8,10.6,9.8c14.6,15.2,18.9,25,14.8,33.6c-1.8,3.8-7.4,8.1-11.6,8.9c-3.7,0.6-10-1.4-14.1-4.5
		c-1.7-1.3-3.4-2.3-3.9-2.3c-0.4,0-1.5,1.6-2.4,3.5c-0.8,1.9-2.5,4-3.8,4.6c-1.3,0.6-2.3,1.5-2.3,1.9s6.3,9.1,14,19.4
		c16.6,22,17.9,24.6,17.1,31.9c-0.5,3.5-0.3,5.3,0.4,5.3c1.7,0,42.7-20.8,44.9-22.8c6.6-6,8.6-22.5,5.3-43.4
		c-1.2-8-3.2-12.2-9.3-19.5c-8-9.8-28.5-26.8-36.3-30.1C1256,1354.8,1237.3,1353.7,1233.8,1354.7z"/>
	<path id="structure29_label29_SNL" bar:growlevel="0" bar:type="" class="st51" d="M1622.8,1720c-15,3.3-37.2,11-56.4,19.5l-10,4.4
		l0.1,7.2l0.1,7.2l5-0.5c6.3-0.7,16.8,1.4,22,4.4c7.2,4.2,23.1,23.2,28.1,33.4c1.6,3.4,3.2,7.8,3.6,9.7c0.4,2.5,0.9,3.3,2,3.2
		c2-0.5,3.6-9.7,3.7-21.5c0-6.7-0.7-13.3-2.3-22.1c-3-15.6-2.7-22.2,1.1-29.2c2.5-4.7,8.5-10.3,14-13.1c1.3-0.7,2.5-1.9,2.5-2.6
		C1636.2,1718.3,1630.8,1718.3,1622.8,1720z"/>
	<path id="structure30_label30_PoT" bar:growlevel="0" bar:type="" class="st52" d="M1525.9,1318.6c-2,1.3-6.3,2.9-9.5,3.7l-5.8,1.4
		v6c0,4.8-0.5,7.1-2.4,10.8c-1.3,2.6-2.3,5-2.3,5.5c0,0.4,3.1,0.7,7,0.7c19.3,0.1,32.7,13.1,42,40.9c7.5,22.3,10.6,58.8,7.2,83.3
		c-4.9,35.6-23,83.6-47.4,126c-6.1,10.5-18.9,29.9-21,31.6c-1.6,1.3-1.8,3.6-0.2,3.6c0.5,0,2.4-0.4,4.1-0.9c3.4-1,112-8.1,123.7-8.1
		c2.8,0,1.5-2.2-3.1-5.3c-12.7-8.6-22.3-25.6-27.2-47.8c-1.6-7.4-1.9-11.5-1.9-30.2c0-18.6,0.3-23.2,2.2-33.3
		c2.1-11.4,2.1-13.2,2.4-76.9l0.4-65.3l-5.4-1.6c-6.7-2-16.3-7.5-25.7-14.5c-7.8-5.9-25.6-23.3-29.3-28.6c-1.3-1.8-2.6-3.3-3.1-3.3
		C1530,1316.4,1528,1317.4,1525.9,1318.6z"/>
	<path id="structure31_label31_PP" bar:growlevel="0" bar:type="" class="st53" d="M1633.5,1628.8c0,0.6-0.8,14.5-1.9,30.7
		c-1.1,16.3-1.6,29.8-1.3,30.2c0.4,0.3,7.2,0,15.2-0.5c26.9-2.1,39.9-1.3,52.4,2.9c3.5,1.2,8.6,2.4,11.4,2.7l5.1,0.6v-6.8
		c0-3.7,0.4-9.3,1-12.4c1.5-8.5,8.3-28.3,13-38.1c2.3-4.8,4-9,3.6-9.3c-0.3-0.3-1.8,0-3.4,0.6c-16.3,6.4-29.3,9.1-43.8,9.1
		c-12.7,0-23.9-2-38.5-6.8c-6.6-2.2-12.1-4-12.3-4C1633.7,1627.7,1633.5,1628.3,1633.5,1628.8z"/>
	<path id="structure32_label32_LT" bar:growlevel="0" bar:type="" class="st54" d="M1762.8,1602.3c-3.2,4.9-13.1,14.1-21.6,20.1
		c-6.5,4.6-7.1,5.3-11.3,13.4c-8.5,16.6-14.7,37.4-14.8,50l-0.1,8.1l4.5,7.4c2.4,4.1,4.9,7.5,5.4,7.5c1.2-0.1,17.7-26.9,29.3-47.7
		c11.3-20.3,31.5-59.6,31.5-61.3c0-1-2.1-1.3-10.3-1.3h-10.3L1762.8,1602.3z"/>
	<path id="structure33_label33_PMCo" bar:growlevel="0" bar:type="" class="st55" d="M1913.4,2099.9c-49,5.7-103.6,14.3-125.6,19.7
		c-6.9,1.7-18.1,4.9-24.8,7.2c-6.7,2.3-12.9,4.4-13.7,4.7c-0.9,0.3-2.7,2.8-4.1,5.6c-2.1,4.2-2.5,6.2-2.5,12.2c0,6.1,0.4,8,2.6,12.6
		c7,14.4,28.6,27.3,50.5,30.1c12,1.4,73.1,2.3,85.5,1c22.9-2.3,45.7-8,56.2-14.1c11.2-6.7,20.8-19.3,23.9-31.5
		c2.7-10.3,1.1-23.3-3.8-31.8c-4.9-8.2-18-18.2-23.8-17.9C1932.9,2097.6,1923.6,2098.7,1913.4,2099.9z"/>
	<path id="structure34_label34_AHiPM" bar:growlevel="0" bar:type="" class="st56" d="M1928.3,2031.4c-17.2,8.5-31.2,14.6-40.8,17.9
		c-11,3.8-60,17.2-93.3,25.4c-33.8,8.4-43.9,11.1-54,14.5c-17.9,6.2-29.6,12.2-36.7,19.1c-9.4,8.9-13.1,27.4-7.8,39.4
		c3.3,7.6,6.8,7.5,21.6-1c27.4-15.6,58.8-26.2,99.6-33.4c22.1-4,61.4-9.6,86.7-12.6c27.4-3.1,27-3.1,27-4.5c0-0.6-0.8-1.4-1.7-1.8
		c-3.1-1-8.9-7.7-10.3-11.9c-2-5.7-1.8-10.6,0.5-17.9c3.2-10.4,8.5-19.6,17.9-30.9C1944.3,2024.7,1942.8,2024.4,1928.3,2031.4z"/>
	<path id="structure35_text3305_APir" bar:growlevel="0" bar:type="" class="st57" d="M2100.6,1997.6c-79.5,3.8-91.7,4.5-109.2,6.4
		c-8.5,0.9-9.4,1.3-24.9,8.8c-18.1,8.9-22.8,12.4-31.4,23.3c-11.8,14.9-17.2,27.1-17.2,38.2c0,7.8,1.9,12.4,6.8,16.7
		c6.8,6.1,7,6.1,29.5,4.3c24.4-1.9,85.3-3.2,143.3-3.2c45.6,0,53-0.4,70.6-4.6c41.8-9.9,72.6-33.6,85.6-66
		c4.7-11.8,4.8-11.5-2.6-14.9c-6.9-3.2-17.4-4.9-48.7-7.8C2183.8,1997.2,2126.1,1996.5,2100.6,1997.6z"/>
	<path id="structure36_label36_DLEnt" bar:growlevel="0" bar:type="" class="st58" d="M2177.7,1724.2c-0.3,1.2-0.6,7.9-0.9,15.1
		c-0.9,23.4-4.9,42.2-14.6,70.3c-7.4,21.2-17.2,42.1-29,61.6c-10.9,17.9-32.9,47-47.3,62.3c-3.8,4-6.8,7.7-6.8,8.3
		c0,0.4,1.7,1.3,3.9,2c17.7,4.7,58.6,18.2,84,27.7c49.1,18.4,95.2,39.2,116.8,52.7c4.3,2.8,8.2,5,8.5,5c0.4,0,4.9-5.8,10.1-12.9
		c44-59.5,73.8-112.2,82.3-145.3c5.3-21.2,7.4-48.3,5.8-78.4c-0.5-10.7-1.1-19.4-1.2-19.5c-1.9-0.7-207.9-50.8-209.3-50.8
		C2178.8,1722.2,2178,1722.9,2177.7,1724.2z"/>
	<path id="structure37_label37_PRh" bar:growlevel="0" bar:type="" class="st59" d="M2185.8,1631.5c-1.6,9.7-6.4,60.5-7.4,78.1
		l-0.6,11.3l103.9,25.5c57.2,14,104.6,25.4,105.5,25.4c2,0,2-2.2-0.3-20.8c-2.6-20.9-3.5-22.7-20.7-39.5c-7.3-7.2-13.8-13.9-14.3-15
		c-3.3-6.5,0.9-13.3,10.2-16.5c3.8-1.3,6.7-2.9,8.8-5.2c3.6-3.8,7.9-10.3,7.9-12.1c0-0.8-25.9-5.6-95.6-17.6
		c-52.6-9.1-95.9-16.5-96.3-16.4C2186.5,1628.6,2186.1,1630,2185.8,1631.5z"/>
	<path id="structure38_label38_Ect" bar:growlevel="0" bar:type="" class="st60" d="M2193.3,1544.7c0,6.3-2.3,35.4-5,60.8
		c-1.3,11.9-2.1,21.8-1.8,22c0.4,0.4,190.6,33.4,192.7,33.5c1.3,0,8.1-15.1,20.9-46.4c12.2-29.6,14.9-37.3,13.9-38.3
		c-0.4-0.4-49.3-8.5-108.7-18c-59.4-9.4-108.9-17.5-110-17.7C2193.4,1540.2,2193.3,1540.5,2193.3,1544.7z"/>
	<path id="structure39_label39_TeA" bar:growlevel="0" bar:type="" class="st61" d="M2196,1478.1c0,5.3-0.4,21.4-1,35.6
		c-0.6,14.2-0.9,26-0.7,26.2c0.4,0.4,218.7,35.6,220.3,35.6c1.6,0,10-28.8,15.2-52.2c3.5-15.7,6.9-35.8,6.2-36.5
		c-0.3-0.4-51.5-4.3-113.8-8.9c-62.3-4.7-116.2-8.6-119.7-9l-6.6-0.5L2196,1478.1L2196,1478.1z"/>
	<path id="structure40_label41_Rad" bar:growlevel="0" bar:type="" class="st62" d="M1742.4,1172.5c0,0.8,1.7,1.7,4.8,2.5
		c6.8,1.7,24.2,10.9,32.2,16.9c32.8,24.6,46.9,40.1,62.2,68.1c20.3,37.4,42.9,104.3,54.3,160.8c6.9,34.6,9.1,58.5,8.2,90.3
		c-1.3,53-7.9,100.2-18.3,132.3c-8.6,26.4-32.7,62.6-61.9,93.1c-21.9,22.8-102,94.3-127.3,113.8c-3.7,2.9-17.1,15.2-29.7,27.4
		c-15,14.6-24.2,22.8-26.6,23.9c-4.2,1.8-4.9,3.4-4.9,11.9c0,5.8,1.1,6.2,6.1,2.3c1.8-1.4,16.9-10.4,33.5-20
		c16.6-9.4,38.3-22,48.1-27.8c31-18.1,43.7-24.4,72.9-36.2c22.3-9,40.1-18.4,61.2-32c15.9-10.3,30.3-21.2,39.7-30.1
		c7.1-6.7,8.3-8.3,12.2-16.5c15.4-32.5,25.6-81.5,30.1-145c1.9-26.5,3.4-91.3,2.8-116.8c-1.1-44.8-9-90.3-26.3-151.7
		c-6-21.2-15.6-50.3-16.9-51.4c-5.8-4.5-7.2-6.2-9.1-12c-2-6-2.5-6.6-15.5-18.9c-50.8-48.2-85.4-73.8-112.3-83.1
		C1753.9,1171.7,1742.4,1170.5,1742.4,1172.5z"/>
	<path id="structure41_label42_CA3" bar:growlevel="0" bar:type="" class="st63" d="M1729.8,1189.2c0,2,4,7.7,10.6,15
		c8.6,9.6,15.2,21.5,21,37.4c1.8,5.2,4.2,11.2,5.3,13.2c1.4,2.5,1.8,4.6,1.4,6.1c-0.7,2.6,0.3,5.9,10.4,36.4
		c15.8,47.2,24.4,83.2,35.8,149.8c10,58.6,12.3,102.9,6.8,129.2c-1.4,7.1-16.5,46.8-24,63.4c-10.1,22.4-22.2,42.2-37.5,61.2
		c-8.5,10.6-16.3,18.8-58.3,61.9c-12,12.2-23.5,24.6-25.7,27.5c-5.1,6.8-32.2,50-32.2,51.4c0,0.5,0.6,2,1.4,3.2
		c1.1,1.7,1.2,2.8,0.4,5.7c-2.8,10.7-21.9,29.9-29.6,29.9c-1,0-2.8,1.3-4,3c-2.3,3.1-3.1,6-1.4,6c0.5,0,1.3,0.8,1.9,1.9
		c0.7,1.5,0.6,2.8-0.5,5.8c-1.8,4.7-10.5,13.9-15.7,16.6c-2.7,1.4-6.8,5.8-15.1,16.2c-6.3,7.9-12.1,15.4-12.8,16.7
		c-1.3,2.1-1.3,2.3,0.4,3.6c3.1,2.1,4.2,8.5,3.5,19.9c-0.7,11.4-0.1,13.9,3.9,13.9c3.2,0,8.3-5.2,25.8-26.6
		c7.4-8.9,17.9-20.9,23.5-26.5l10-10.3l0.6-9.2c0.4-6.8,0.3-9.2-0.5-9.4c-2.2-0.7,3.9-8.6,21.3-27.6c19.5-21.2,23.5-26.1,37.8-45.1
		c14.6-19.4,22.6-29.2,38.2-46.3c31.8-34.7,82.8-92.4,88.4-99.8c16.4-21.8,28.5-50.5,33.1-78c2-12.2,5.6-42.5,7.8-67.1
		c0.8-8.5,1.6-28.7,1.9-45c0.5-32.3-0.4-44.2-5.7-72c-11.7-62.1-31.1-122.1-54.4-167.9c-13.8-27.2-25.3-38.7-57.9-58.1
		C1732.8,1187.5,1729.8,1186.4,1729.8,1189.2z"/>
	<path id="structure42_label43_Rad" bar:growlevel="0" bar:type="" class="st62" d="M1634,947.4c-20,2.4-33.8,8-42.5,17.4
		c-7.2,7.7-9.6,14.4-16.5,44.8c-2.3,10.6-5.8,17.6-9.6,20.1c-1.6,1-3.2,2.8-3.6,4c-1.2,4.4,17,18.5,28.5,22.1l5,1.5l10.5-6.8
		c22.5-14.7,42.8-25,58.7-29.9c7.2-2.3,9.5-2.5,21.1-2.5c15.5-0.1,18.9,0.8,37.4,9.8c6.5,3.1,17.9,8.2,25.5,11.2
		c37.8,15.1,62.7,28,92.9,48.1c35,23.3,58.7,44.8,83.1,75.3c9.7,12.2,24.4,33.8,32.7,48.1c25.5,44.3,52.5,114,64.8,167.2
		c4.6,20.1,18.7,117.1,24.7,169.8c1.9,17.5,7.2,84,8.2,103.5c1.9,37-1,85.9-6.5,112.9c-2.3,11.5-8.7,30.9-13.7,41.8
		c-14.8,32.7-40,61.5-72.7,83.3c-17.5,11.6-31.9,29.2-36.3,44.5c-3,10.2-1,29.8,3,29.8c3.3,0,34.2-11.1,44.2-15.8
		c22.2-10.7,38.3-23.9,70.6-57.8c37.9-40,45.9-50.7,55.9-74.3c12.1-28.7,23.5-80.6,28.5-129.2c1.7-16.4,1.4-69.8-0.4-96.8
		c-3.1-42.4-5.8-65.3-13.8-116.1c-11.5-72.7-17.3-93.8-48.3-175.9c-21.2-56.2-27.9-72.2-39.2-94.1c-18.8-36.4-47.4-74.8-79.7-107.1
		c-25.7-25.7-47.1-41.3-99.9-72.9c-77.3-46.3-116.7-65.5-151.6-74c-8.5-2.1-11.4-2.3-31.5-2.5C1651.1,946.7,1638,947,1634,947.4z"/>
	<path id="structure43_label44_CA1" bar:growlevel="0" bar:type="" class="st64" d="M1634,947.4c-20,2.4-33.8,8-42.5,17.4
		c-7.2,7.7-9.6,14.4-16.5,44.8c-2.3,10.6-5.8,17.6-9.6,20.1c-1.6,1-3.2,2.8-3.6,4c-1.2,4.4,17,18.5,28.5,22.1l5,1.5l10.5-6.8
		c22.5-14.7,42.8-25,58.7-29.9c7.2-2.3,9.5-2.5,21.1-2.5c15.5-0.1,18.9,0.8,37.4,9.8c6.5,3.1,17.9,8.2,25.5,11.2
		c37.8,15.1,62.7,28,92.9,48.1c35,23.3,58.7,44.8,83.1,75.3c9.7,12.2,24.4,33.8,32.7,48.1c25.5,44.3,52.5,114,64.8,167.2
		c4.6,20.1,18.7,117.1,24.7,169.8c1.9,17.5,7.2,84,8.2,103.5c1.9,37-1,85.9-6.5,112.9c-2.3,11.5-8.7,30.9-13.7,41.8
		c-14.8,32.7-40,61.5-72.7,83.3c-17.5,11.6-31.9,29.2-36.3,44.5c-3,10.2-1,29.8,3,29.8c3.3,0,34.2-11.1,44.2-15.8
		c22.2-10.7,38.3-23.9,70.6-57.8c37.9-40,45.9-50.7,55.9-74.3c12.1-28.7,23.5-80.6,28.5-129.2c1.7-16.4,1.4-69.8-0.4-96.8
		c-3.1-42.4-5.8-65.3-13.8-116.1c-11.5-72.7-17.3-93.8-48.3-175.9c-21.2-56.2-27.9-72.2-39.2-94.1c-18.8-36.4-47.4-74.8-79.7-107.1
		c-25.7-25.7-47.1-41.3-99.9-72.9c-77.3-46.3-116.7-65.5-151.6-74c-8.5-2.1-11.4-2.3-31.5-2.5C1651.1,946.7,1638,947,1634,947.4z"/>
	<path id="structure44_label45_DLG" bar:growlevel="0" bar:type="" class="st65" d="M1714.2,1303.9c-4.8,32.7-6.5,82.9-3.1,90.7
		c1.9,4.5,7.2,8.9,16.5,13.7c10.3,5.3,19.7,8.1,27.4,8.3c8.2,0.1,12.3-2.1,15.6-8.5c2.3-4.3,2.5-5.5,2.5-15.2
		c0-12.4-1.3-18.2-6.4-28.4c-4.7-9.4-16.6-27.1-26.6-39.6c-8.9-11.2-22.1-24.8-24-24.8C1715.2,1300.1,1714.5,1301.5,1714.2,1303.9z"
		/>
	<path id="structure45_label46_Or" bar:growlevel="0" bar:type="" class="st66" d="M1617.3,908.3c-32.5,2.8-55,8-72.9,17
		c-8.6,4.3-9.7,5.8-12.2,14.9c-1.4,4.7-1.7,9-1.6,22c0,14.7,0.3,17.1,2.4,25.2c3.6,13.2,9,23.9,17.2,33.9c1.5,1.9,3.2,3.4,3.8,3.4
		c1,0,4.6-10.2,12.5-35.5c6.3-20,9.7-26.6,17.9-35.1c22.6-23,49.9-28.4,98.6-19.7c35.8,6.5,67.3,19.3,120.2,48.7
		c11.4,6.4,30.4,17,42.3,23.6c31.1,17.3,39.1,22,52.1,30.4c54.6,35.6,96.9,80.9,127,136.2c7.7,14,23.9,47.5,35.6,73.1
		c30.3,66.7,48,126.2,68.2,229.3c9.4,48.3,12.7,81.9,12.7,131.5c0,51.7-4.1,99.2-14.5,164.6c-6.3,39.9-9.1,50-20.2,72.5
		c-7.2,14.7-16.6,29.3-27.2,42.8c-9.5,12-31.1,33-43.9,43c-21.5,16.6-48.8,33.6-68.8,42.6c-5.2,2.3-9.5,4.8-9.7,5.5
		c-0.3,1.4,11.8,4.1,21.9,4.9c5.4,0.5,5.4,0.5,18-6.8c51.9-29.5,76.8-50.4,103.2-86.7c27.6-38,41.7-69.9,48.8-111.6
		c4-22.8,5.4-38,9.5-98c10.2-149.4,9.5-187-4-248.8c-19.5-88-60.8-203.4-93.5-261.1c-31.4-55.4-86.7-117.8-132.5-150
		c-22.3-15.7-48.9-30.3-125-69.1c-12.5-6.3-49.2-21.2-70.2-28.3c-16.9-5.8-35.5-9.5-62.1-12.7
		C1659.6,908.6,1625.7,907.6,1617.3,908.3z"/>
	<path id="structure46_label48_AuV" bar:growlevel="0" bar:type="" class="st67" d="M2310.4,1388.2c-85.1,4.9-118.4,7.1-118.6,7.9
		c-0.3,0.6,0.3,7.5,1,15.3c0.8,7.8,1.9,23.8,2.4,35.4c0.5,11.6,1,21.1,1.1,21.2c0.3,0.1,238.6,17.6,239.7,17.5
		c2.6-0.1,7.6-61.7,7.6-94.3v-10.1l-7.4,0.1C2432,1381.3,2375.5,1384.5,2310.4,1388.2z"/>
	<path id="structure47_label49_Au1" bar:growlevel="0" bar:type="" class="st68" d="M2249,1133.9c-75.3,42.8-111.3,63.6-111.4,64.6
		c0,0.8,1,3.7,2.2,6.3c3,6.8,14.8,38.6,19.3,51.7c13.4,39.3,24.8,86.4,30,122.9c1.2,8.1,2.2,14.9,2.3,15
		c0.1,0.3,231.8-12.9,244.9-13.9l7.5-0.5l-0.5-11c-2.8-65.3-7-96.9-19-141.4c-10.4-39-27.9-85.7-49.2-131.7
		c-9-19.3-12.2-25.4-13.4-25.4C2360.8,1070.6,2310.2,1099.2,2249,1133.9z"/>
	<path id="structure48_label50_AuD" bar:growlevel="0" bar:type="" class="st69" d="M2204.6,1050c-57.4,39.1-104.5,71.6-104.7,72.3
		c-0.2,0.6,3.2,7.4,7.5,15c8.4,15,18.5,35.5,24.8,50c2.9,6.8,4.3,9.2,5.4,9c0.8-0.1,51.4-28.5,112.3-63.1
		c88.3-50.2,110.8-63.4,110.8-64.8c0-3.1-20.3-40.9-38.9-72.8c-6.8-11.5-10.3-16.8-11.3-16.7C2309.6,978.9,2262,1011,2204.6,1050z"
		/>
	<path id="structure49_label51_V2L" bar:growlevel="0" bar:type="" class="st70" d="M1970.1,837.4c-31.9,63.9-57.8,116.3-57.6,116.5
		c0.3,0.2,7.1,4.1,15.3,8.7c43.9,24.9,75.8,48.2,104.8,76.5c23.2,22.8,39.2,42,56.8,68.7c6.3,9.6,9.3,13.2,10.3,13
		c2.3-0.5,209.9-142,210.4-143.4c0.8-2.1-21.8-36-37.1-55.7c-39.9-51.3-91.4-99.3-153-142.4c-25.7-17.9-88.2-57.9-90.6-57.9
		C2028.7,721.4,2003.7,770.5,1970.1,837.4z"/>
	<path id="structure50_label52_V1" bar:growlevel="0" bar:type="" class="st71" d="M1658.8,590.6c-0.5,2-15.3,57.9-32.8,124.3
		c-17.6,66.5-32,121.3-32,122c0,0.7,6.5,2.3,20.5,5c24.5,4.7,39.9,8.4,62.7,15c68.8,20.1,154.7,54.7,218.2,88
		c8.1,4.2,15.2,7.7,15.8,7.7c1-0.1,116.8-230,116.7-231.9c-0.2-2.3-56.3-33.8-94.6-52.8c-61.9-30.9-104.8-46.8-160.2-59.4
		c-28.9-6.6-84.4-17.2-109.1-20.8l-4.2-0.6L1658.8,590.6z"/>
	<path id="structure51_label53_V2ML" bar:growlevel="0" bar:type="" class="st72" d="M1501.7,570.4c-1.4,8.4-35.4,246-35.2,246.2
		c0.2,0.2,15.5,2.7,33.9,5.7c18.5,2.9,46.7,7.6,62.7,10.3c16,2.8,29.3,4.8,29.6,4.5c0.8-0.8,65.9-246.3,66-248.6
		c0-1.6-0.7-2-4.2-2.4c-2.4-0.3-15.2-2.2-28.6-4.1c-39.5-5.8-111.7-14.5-120.3-14.5C1502.5,567.5,1502.1,567.8,1501.7,570.4z"/>
	<path id="structure52_label54_V2MM" bar:growlevel="0" bar:type="" class="st73" d="M1339.2,562.3c0,1.6,6.5,56.6,14.4,122.1
		c7.9,65.5,14.4,119.4,14.4,119.8c0,0.4,4.8,0.9,10.6,1.2c10.4,0.5,33,3.4,68.5,8.6c10.2,1.5,18.5,2.7,18.6,2.5
		c0.3-0.4,35.5-246.8,35.5-248.4c0-0.8-0.5-1.5-1.2-1.5c-0.6,0-10.2-0.8-21.3-1.8c-40.9-3.5-62.5-4.7-100.5-5.1l-39-0.5
		L1339.2,562.3L1339.2,562.3z"/>
	<path id="structure53_label55_RSD" bar:growlevel="0" bar:type="" class="st74" d="M1328.9,560.1c-56.3,4.4-91.4,13-124.7,30.6
		c-22.7,11.9-48.9,32-62.3,47.5c-6.8,7.9-17.8,24.3-17.8,26.5c0,1.7,196.7,177.6,199.1,178.1c0.7,0.1,3.6-3.2,6.6-7.7
		c10.3-15.3,24.3-26.6,35.2-28.7c2.9-0.5,3.1-0.7,2.6-3.4c-0.6-3.4-29.3-240.9-29.3-242.5C1338.3,559.4,1336.9,559.3,1328.9,560.1z"
		/>
	<path id="structure54_label56_RSGc" bar:growlevel="0" bar:type="" class="st75" d="M1118.7,674.3c-7.6,16.6-13.4,36.3-16.2,55.4
		c-1.7,11.4-1.8,17.5-1.8,134.8v122.8l10.5-0.3c105.6-2.7,136.6-3.7,136.8-4.4c0.2-0.5,5.9-11.3,12.8-24.2
		c10.8-20.3,22.4-41.3,49.3-89.5c12-21.4,13.3-24.3,12.4-25.6c-1.6-2.3-197.8-176.5-199.1-176.8
		C1122.8,666.5,1121,669.2,1118.7,674.3z"/>
	<path id="structure55_label57_RSGb" bar:growlevel="0" bar:type="" class="st76" d="M1170.5,986.1c-30.1,0.8-58.2,1.6-62.4,1.6
		l-7.5,0.1l0.3,25.4l0.3,25.5l3,8.5c5.6,16,17.2,37.1,27.6,50c12.9,16.1,27.3,27.4,40.7,31.9c4.3,1.4,21.8,4.6,25.5,4.6
		c0.3,0,1.3-2.3,2.2-5.2c2.1-6.5,7.8-17.9,12.5-24.9c11.2-16.5,29.4-29.3,47.7-33.5c7.2-1.6,8.8-3.3,4.3-4.3
		c-9.9-2.2-26.9-23.7-29.8-37.6c-1.8-8.9,0.9-20.4,8.1-34.8c2-4,3.6-7.6,3.6-8.1C1246.5,984,1239.6,984.1,1170.5,986.1z"/>
	<path id="structure5_label0_PBP" bar:growlevel="0" bar:type="" class="st77" d="M1150.6,1832.2c0.4,1.6,0.9,6.3,1.2,10.4
		c0.5,6.8,0.4,7.7-1.4,10.2l-2.1,2.8l2.9,7.7c1.6,4.3,5.1,13.3,7.9,20.1l4.9,12.2l6.8,2.7c7.6,3,25.8,13.1,32.8,18.3
		c8.9,6.6,12.4,11.3,22,29.8c10.4,20.3,12.2,25.2,12.3,33.5c0.1,6,0.1,6.1,2.8,6.7c5.7,1.3,11.8,4.8,15.6,8.8
		c5,5.5,7.4,10.6,7.4,16.5c0,3.6,0.4,4.8,1.4,4.8c0.9,0,1.3-0.9,1.3-3c0-6.4,2.9-21.1,5.8-29.9c10.8-32.2,34.7-61.8,71.7-88.8
		c5.8-4.2,13.5-9.4,17.2-11.6l6.8-4l0.5-7.8c0.8-10.4,2.9-20.4,5.7-26.5c4.3-10,2.7-9.8-9.5,0.6c-16.8,14.5-30.9,23.5-49.8,32
		c-17.6,8-30.6,11-36.5,8.5c-3.1-1.3-4.6-5-4-9.6c0.4-2.7,0.3-2.9-3.4-3.9c-28.4-7.4-84.2-27.5-109.6-39.2
		C1150.8,1828.4,1149.8,1828.3,1150.6,1832.2z"/>
	<path id="structure60_label62_DS" bar:growlevel="0" bar:type="" class="st78" d="M1522.8,938.9c-15.5,12.2-32,29.8-55.4,59.3
		c-23.1,29.3-31.3,35-66.4,46.4c-38.7,12.6-81.3,20.8-119.4,22.9c-26.1,1.4-43.7,8.6-58.9,24.2c-8.2,8.4-19,24.7-17.3,26.3
		c0.4,0.4,2.8,0.2,5.4-0.4c2.5-0.6,14.8-1.4,27.2-1.9c12.4-0.4,33.7-1.4,47.3-2.3c27.5-1.6,51.9-1.3,73.8,1c19.2,2,45.7,2.7,55,1.4
		c18.7-2.5,55.2-13.5,77.2-23.2c19.4-8.6,35.6-18.3,47.1-28.2c14.5-12.5,27-31.5,20.6-31.5c-2,0-3.2-1.4-4.1-4.5
		c-0.4-1.3-2.4-4.3-4.7-6.9c-17.6-20.9-25.1-54-18.3-80.8c2.2-8.5,2.2-7.7,0.2-7.7C1531.1,932.9,1527,935.6,1522.8,938.9z"/>
	<path id="structure61_label63_SuG" bar:growlevel="0" bar:type="" class="st79" d="M1203.7,1150.8c-17.4,2-30.3,12.3-40,31.9
		c-4.9,9.9-6.3,18.6-4.2,27.1c0.9,3.3,1.7,6.3,2,6.6c0.3,0.3,4.4-1.6,9.3-4.1c11.5-6.1,32-15.1,41.6-18.3c8.8-3,16.4-4.1,36.4-5.4
		c16.9-1.2,29.1-3.2,52.3-8.6c21.2-4.9,32.4-7,52.9-9.9c8.8-1.3,16.2-2.3,16.4-2.3c0.3,0,0.4-0.5,0.4-1.3
		c0-3.6-87.7-13.4-136.8-15.4c-7.2-0.3-15.5-0.6-18.5-0.8C1212.5,1150.2,1207.2,1150.4,1203.7,1150.8z"/>
	<path id="structure62_label64_InG" bar:growlevel="0" bar:type="" class="st80" d="M1278,1208.9c-36.7,3.3-47.3,5.4-80.9,16.1
		c-16.1,5.1-33.6,10.6-38.8,12.2c-7.2,2.3-10.1,3.6-12.3,5.8c-2.8,2.8-3,3.3-3,9.3c0,5.1,0.4,7.2,2.5,11.1
		c4.8,9.1,13.5,12.3,29.4,10.7c12.4-1.2,41.5-3.3,68.7-4.9c39.6-2.3,52.3-1.7,76.2,3.6c18,4,29.5,8.5,54,20.6
		c23.9,11.8,42.8,20.3,45.1,20.3c1.7,0,1.6-0.8-0.9-6.4c-6.7-14.6-11.6-42.2-13-72.8l-0.5-12.2l-4.9-1.6
		c-10.4-3.3-33.3-7.2-60.3-10.2C1326.9,1209.1,1286.8,1208.1,1278,1208.9z"/>
	<path id="structure63_label65_OT" bar:growlevel="0" bar:type="" class="st81" d="M1434.6,1181.3c-8.3,1.5-15.3,4.9-22,10.9
		c-3.8,3.3-11.3,13.5-11.3,15.3c0,1.9,9.9,18.7,15.8,26.9c9.4,13.1,18.4,21,27.3,23.9c4.4,1.4,5.3,1.4,15.2,0
		c28.3-4,43.3-2.4,65.4,6.7c4.1,1.7,10.5,0.4,15-3c6.4-4.9,10.7-15,12.1-28.2l0.6-5.7l-6.2-6.8c-19.4-21.8-52.7-35.9-94.3-40
		C1441.4,1180.3,1440.5,1180.3,1434.6,1181.3z"/>
	<path id="structure64_label66_OPT" bar:growlevel="0" bar:type="" class="st82" d="M1468.8,1257.5c-1.3,0.2-5.3,0.8-9,1.4
		c-14.6,2.2-25.9,13.2-23.9,23.5c1.6,8.5,21,24.8,37.5,31.7c14.8,6.1,22.7,8,34.1,8.1c9.5,0.1,10.8-0.1,15.8-2.4
		c6.3-3,11-7,12.7-11.3c4-9.2,5.1-26.7,2.3-33.1c-2.1-4.6-4.8-6.5-15.2-10.7c-14.6-5.8-19.6-6.8-36.6-7.2
		C1478,1257.2,1470.1,1257.2,1468.8,1257.5z"/>
	<path id="structure65_label67_LMol" bar:growlevel="0" bar:type="" class="st16" d="M1673.1,1018.9c-18.6,3.5-44.7,16.5-76.5,37.8
		c-29.7,20-52.4,40.9-59.4,54.4c-3,5.8-3,12.5-0.1,15.7c1.3,1.3,2.7,2.3,3.4,2.3c0.6,0,5.8-3.4,11.3-7.5
		c37.5-27.8,71.2-44.9,97.9-49.9c13.5-2.4,55-2.2,74.5,0.4c36.9,4.9,68.3,14.9,92.3,29.3c18.8,11.2,41.5,29,60.3,47.3
		c29.6,28.9,49,57.1,63.1,91.7c12.9,31.7,26.8,91.9,42.3,183.2c2.3,13.3,5.3,30.6,6.8,38.3c1.4,7.6,5.5,31.3,9,52.6
		c7.1,43.6,9.4,56,14.4,76.2c4.6,18.4,5.8,31.6,5.1,53.8c-1.1,32.5-6.7,60.8-17.3,87.4c-5,12.2-9.3,20.5-20.3,38.3
		c-24.5,39.6-38,54.9-63.5,71.8c-9.8,6.6-34.6,19-48.2,24.4c-7,2.7-8.8,3.7-8.8,5.1c0,2.8,13,14.9,21.1,19.7
		c8.9,5.1,18.5,9,27.7,11.1c9,2,24.8,1.5,32.1-1c5.6-1.9,28.5-16.9,39.3-25.7c34.3-28,56.8-63.8,66.8-106.1
		c4.8-20.3,7.3-45.6,7.9-81.9c0.5-31.1-0.1-45.9-4.7-99.6c-4.8-55.6-8.8-88.5-20.3-164.1c-5.9-39.3-8.6-52.1-15.7-76
		c-23.3-78.8-55.2-144-93-190.4c-39-47.7-97.7-88.7-166.2-116.1c-8.9-3.5-22.9-9.6-31-13.5c-8.2-3.9-17.3-7.7-20.3-8.6
		C1695.5,1017.8,1681.3,1017.3,1673.1,1018.9z"/>
	<path id="structure66_label68_MoDG" bar:growlevel="0" bar:type="" class="st83" d="M1654.9,1071.6c-25.4,2.7-57.2,17.7-96.9,45.8
		c-15.5,10.9-20,15.3-22.1,21.5c-6.1,18.5,11.2,41.4,46.8,61.9c3.5,2,14,7.8,23.4,12.9c18,9.7,59,32.9,118.3,67
		c31,17.8,35.9,20.3,39.2,20.3c5.1,0,6.6-0.6,8.1-3.7c1.7-3.2,1.7-8.5,0-17.5c-2.3-11.7-4.1-16.7-6.8-18c-1.3-0.7-3.6-2.8-5-4.7
		c-4.9-6.5-17.9-19.4-26.7-26.5c-18.9-15.2-35.2-25-69.3-41.7c-13.8-6.7-31.9-16-40.5-20.7c-8.5-4.7-21.5-11.1-29-14
		c-15-6.1-20.7-9.1-22.1-11.7c-0.7-1.4-0.4-2.2,2.4-4.4c7.4-6,25.1-11.6,39.4-12.4c8.5-0.4,9.8-0.2,23.4,3.3
		c19.3,5.1,22.1,5.1,40.5-0.4c31.5-9.4,38-10.5,48.7-8.6c30.2,5.6,85.4,33.7,119.6,60.8c11.5,9.2,37,34.5,45.4,45.1
		c11.6,14.6,15.1,22.4,17.6,39.4c1.2,8.6,1.3,11.7,0.5,14.6c-1.2,4.2-4.6,7.5-7.8,7.5c-1.2,0-2.2,0.4-2.2,0.9
		c0,0.5,2.6,8.7,5.9,18.3c17.6,52.8,31.6,115.5,35.6,160.7c1.3,14.3,0.6,106.9-0.9,128.8c-4.4,62.6-10.9,101.1-22.7,135
		c-5.8,16.6-5.8,17.1-4.1,17.1c0.7,0,3.4-3.2,6.1-7c6.8-9.8,14.1-17,18.2-17.7c5-1,7.4,0,9.2,3.8c3.5,7.4-0.2,28.7-7.6,43.6
		c-13.6,27.2-36.3,46.3-66.2,55.7c-37.3,11.7-54.8,18.1-97.2,35.7c-40.3,16.8-63.9,28.6-91.8,46c-29.8,18.5-55.3,40.4-84.8,72.5
		c-20.1,21.8-22.1,23.8-25.4,24.5c-6.2,1.3-9.3-4-9.7-16.7c-0.4-12.2-0.6-12.6-4.1-12.6c-4.6,0-13.2,7.2-16.6,13.9
		c-1.9,3.6-3.2,14.2-2.7,21.2c0.5,7.8,2.7,13.6,8.6,22.2c7.7,11.3,15.4,14.3,24.8,9.4c4.3-2.3,23-21.5,42.9-44.5
		c23.9-27.4,36.6-38.4,60.1-52.5c29.2-17.4,74.8-37,152.1-65.3c51.8-19,67.7-26,85.5-37.6c23.6-15.4,38.7-31.6,58.7-63.2
		c21.5-34.1,28-47.9,34.9-75.1c6.7-26,9.6-56.7,8-82.3c-0.9-15.1-1.7-19.8-5.9-35.8c-3.5-13.9-7.7-36.4-13.4-72.3
		c-2.3-14.1-6.5-39.1-9.5-55.3c-3-16.4-7.6-42.7-10.3-58.5c-10.1-58-22.3-113.2-30.8-139.5c-15.8-48.8-41.4-87.3-82.2-123.3
		c-29.1-25.6-57.1-43-83.7-52.2c-18.9-6.6-44.6-11.8-67.5-14C1701.8,1070.5,1665.2,1070.5,1654.9,1071.6z"/>
	<path id="structure67_label69_PoDG" bar:growlevel="0" bar:type="" class="st20" d="M1704.6,1141.8c-3.2,0.4-13.5,2.2-23,4
		c-17.8,3.3-35.6,6.3-42.8,7.2c-2.5,0.4-4.3,1-4.3,1.6c0,1.1,30.1,18.5,49.9,29c23,12.1,57.2,36.6,67.7,48.6
		c6.9,7.9,8.4,6.5,3.9-3.6c-3.4-7.7-10.9-18.9-17.9-27c-6.8-7.8-11.1-15.7-11.3-20.4c-0.2-7,7.9-11.3,19.7-10.3
		c25.8,1.9,64.7,27.6,121,80.1c9.1,8.6,17.1,15.7,17.8,15.8c1.6,0.4,1.2-3.2-1.7-14.2c-4-15.6-11.4-26.5-29.7-43.2
		c-22.5-20.6-37.7-31.8-61.5-45.3c-24.8-14-38.9-20-52.7-22.1C1733,1140.7,1713.2,1140.7,1704.6,1141.8z"/>
	<path id="structure68_label70_LPMC" bar:growlevel="0" bar:type="" class="st84" d="M1553.1,1231.9c-0.3,1.2-0.9,4.7-1.4,7.7
		c-2.3,13-8.1,22-15.8,25c-4.7,1.7-4.9,2.5-1.8,5c1.3,1,3.2,3.5,4.3,5.5c4,7.5,1.9,26.7-4,36.1c-3.3,5.4-3.2,5.7,5.3,15.2
		c7.8,8.7,18.4,18.3,26.7,24.2c6,4.3,6.5,4.5,11,4.1c5.6-0.5,25.1-7,38.4-12.8c21.2-9.1,42-20.4,57.2-31.4
		c8.3-5.9,22.5-19.1,22.5-20.8c0-1-26.1-14-41-20.5c-4-1.8-17.5-6.8-30.2-11c-34.4-11.8-55.6-20.3-64.4-25.9
		C1555.3,1229.4,1553.6,1229.3,1553.1,1231.9z"/>
	<path id="structure69_label71_PPT" bar:growlevel="0" bar:type="" class="st85" d="M1404.9,1224.3c0,7.3,1.7,29,3.2,40.3
		c2.5,19.3,6.8,36.5,11.5,45.9c6.6,13.1,23.9,34.2,33.7,40.6c15,9.9,36.1,8.6,49-3c5.6-5,7.5-9.4,7.5-17.4l0.1-6.8l-4.5-0.7
		c-24.1-4.1-43.7-12.9-59-26.6c-13.1-11.7-14.1-20.5-3.5-30.1c2.6-2.3,5-4.2,5.5-4.2c0.5,0,0.8-0.6,0.8-1.4c0-0.7-0.7-1.3-1.5-1.3
		c-2.7,0-10.4-4.1-15.3-8c-5.5-4.4-14-14.8-20.3-24.7C1406.7,1218.8,1404.9,1218.1,1404.9,1224.3z"/>
	<path id="structure6_label1_SNR" bar:growlevel="0" bar:type="" class="st86" d="M1555.8,1759.1c-1.4,0.4-3.2,1.3-4.1,2.1
		c-0.8,0.7-7.5,5.4-14.9,10.3c-23.9,16-34.2,25.1-68.5,60.2c-35,35.8-50.1,48.9-64.8,55.7c-3.5,1.6-6.8,3.6-7.5,4.2
		c-0.5,0.7-3.1,2.3-5.6,3.3c-3.8,1.6-5.6,1.8-10.1,1.3c-5.4-0.5-5.8-0.4-11.9,3.2c-33.5,20.2-58,53-71.8,95.8
		c-3.6,11.3-6.6,24.5-5.8,25.4c0.4,0.3,2-0.2,3.5-1c2.9-1.5,3.3-1.5,14.7,0.7c26.1,5,48,5,68.9-0.1c3.2-0.7,13.1-4.1,22-7.5
		c8.9-3.3,28.2-10,42.8-14.8c21.1-6.9,29.5-10.2,41-15.8c30.2-14.9,53.6-33.6,73.4-58.6c22.5-28.3,41-59.6,52.7-89
		c4.2-10.8,5.2-14.2,5.6-20c0.8-13-4-23.1-19.4-40.8c-7.6-8.9-13.9-13.3-21.1-14.8C1569.7,1758.1,1559.5,1758.1,1555.8,1759.1z"/>
	<path id="structure70_label72_InWh" bar:growlevel="0" bar:type="" class="st87" d="M1250.1,1269.2c-11.6,0.6-32.3,2-45.9,3.1
		c-13.6,1-25.6,1.8-26.7,1.8c-1.3,0-2.1,0.5-2.1,1.4c0,0.7,0.4,1.3,0.8,1.3s11.8,5.2,25.1,11.7c13.4,6.4,27.7,12.7,31.9,14
		c23.8,7.3,29.3,9.4,42.6,16.2c15.6,7.8,41,22.2,71.3,40.2c31.5,18.7,50.8,27.5,65.1,29.6c10.3,1.5,13,0.5,19.8-7.7
		c7.4-8.6,19.8-27.1,19.7-29.2c0-0.9-1.8-3.1-4-4.8c-5-4-16.5-17.5-21.4-25.2l-3.7-5.8l-11.8-4.9c-6.4-2.6-20.6-9.4-31.5-14.9
		c-28.8-14.6-41.7-19.3-65.8-24.2C1292.4,1267.5,1285.1,1267.2,1250.1,1269.2z"/>
	<path id="structure71_label73_DpG" bar:growlevel="0" bar:type="" class="st88" d="M1233,1304.5c0,0.5,1.3,2.8,3.1,5
		c4.9,6.3,7,13.2,6.7,20.7c-0.4,8.4-2.5,12.4-7.5,14.9c-2.2,1.1-6.2,2.2-9,2.4c-5.8,0.6-6.4,2-2,4.7c2.7,1.6,4.3,1.8,16.5,1.7
		c10.3-0.1,14.3,0.3,17.3,1.4c9.9,3.8,38.5,29.3,43.7,39.1c2.9,5.6,5,17,5,27.5v7l6.1-0.5c44.4-4.5,84.9-17,103.5-32
		c7.4-5.9,7.2-6.8-1.4-7.4c-13.9-0.9-33.5-9.3-65.1-28.2c-31.7-18.9-62.6-36.3-76.8-43.3C1256,1309.1,1233,1301.7,1233,1304.5z"/>
	<path id="structure72_label74_MGD" bar:growlevel="0" bar:type="" class="st89" d="M1625.1,1373.1c-0.6,7.3-2,42.9-2.8,71.9
		c-0.5,16.8,0.4,38.1,1.9,41.8c0.4,1.3,2.6,1.4,17.4,1.4c41.2,0,72.1-8,94-24.5c4.2-3.2,6-5,6-6.4c-0.1-2.4-7.8-12.2-19.8-25.1
		l-9-9.5v-6.4v-6.4l-8.7-7.3c-14-11.6-27.4-20.2-38.2-24.1c-10.6-4.1-32-10.6-37-11.4l-3.2-0.5L1625.1,1373.1z"/>
	<path id="structure73_label75_Po" bar:growlevel="0" bar:type="" class="st90" d="M1525.9,1318.6c-2,1.3-6.3,2.9-9.5,3.7l-5.8,1.4
		v6c0,4.8-0.5,7.1-2.4,10.8c-1.3,2.6-2.3,5-2.3,5.5c0,0.4,3.1,0.7,7,0.7c19.3,0.1,32.7,13.1,42,40.9c7.5,22.3,10.6,58.8,7.2,83.3
		c-4.9,35.6-23,83.6-47.4,126c-6.1,10.5-18.9,29.9-21,31.6c-1.6,1.3-1.8,3.6-0.2,3.6c0.5,0,2.4-0.4,4.1-0.9c3.4-1,112-8.1,123.7-8.1
		c2.8,0,1.5-2.2-3.1-5.3c-12.7-8.6-22.3-25.6-27.2-47.8c-1.6-7.4-1.9-11.5-1.9-30.2c0-18.6,0.3-23.2,2.2-33.3
		c2.1-11.4,2.1-13.2,2.4-76.9l0.4-65.3l-5.4-1.6c-6.7-2-16.3-7.5-25.7-14.5c-7.8-5.9-25.6-23.3-29.3-28.6c-1.3-1.8-2.6-3.3-3.1-3.3
		C1530,1316.4,1528,1317.4,1525.9,1318.6z"/>
	<path id="structure74_label76_LPLC" bar:growlevel="0" bar:type="" class="st91" d="M1692.3,1294.2c-3.1,5.5-28.5,23.8-46.6,33.6
		c-20.5,11.1-48.4,22.7-62.5,26.1c-8.1,1.9-8.1,3.3-0.1,6.8c5.7,2.4,6.2,2.5,17.1,2c11.1-0.4,11.5-0.4,25.7,3.2
		c21.2,5.4,43.3,13.1,51.4,17.6c3.9,2.3,7.7,3.9,8.5,3.8c1.1-0.3,2.1-7.7,5.6-43c4.8-48.2,4.9-51.3,3-51.3
		C1693.7,1292.9,1692.7,1293.5,1692.3,1294.2z"/>
	<path id="structure75_label77_PaC" bar:growlevel="0" bar:type="" class="st92" d="M1172.4,1277.3c-1.1,2.8-0.5,9.5,1.4,15
		c2.3,7,6.4,14.6,14.9,27.4c8.1,12.2,16.2,21.2,22.2,24.3c4.1,2.2,5.6,2.4,13.6,2.4c7.2,0,9.5-0.4,11.5-1.6
		c8.4-5.5,8.9-21.9,1.1-33.7c-2.8-4.2-11.3-12-13.1-12c-0.4,0-11.7-5.3-25.1-11.7c-13.4-6.5-24.8-11.7-25.2-11.7
		C1173.3,1275.8,1172.7,1276.5,1172.4,1277.3z"/>
	<path class="st93" d="M1245.2,1369c-9.3-9.4-16-14.1-35.6-25.4c-24.3-13.9-37.7-19.1-57.6-22.2c-14.9-2.4-37.2-4.3-52.2-4.6v32.9
		c25.8,0,51.5,4.7,75.1,14.3c23.4,9.5,39.6,20.7,55.9,38.9c5.5,5.9,10.6,8.8,16.1,8.8c5.2,0,7.7-1,11.2-4.4
		C1266.8,1398.6,1262.7,1386.4,1245.2,1369z"/>
	<path id="structure79_label82_Op" bar:growlevel="0" bar:type="" class="st94" d="M1362.2,1169.3c-21.5,3.1-39,6-51.8,9
		c-36.8,8.5-45.2,9.8-67.1,11.2c-16.6,1-25.1,2.5-35.4,6.3c-11.3,4.2-31.5,13.4-40.7,18.6c-4.8,2.7-10.1,5.3-11.9,5.8l-3.2,0.9v6.5
		c0,3.6-0.3,7.4-0.5,8.5c-0.4,1.6-0.2,2.1,1.3,2.1c1.9,0,28.9-8.2,57.8-17.6c17-5.5,23.8-6.9,43.2-9.4c24.8-3.1,45.1-4,62.9-2.8
		c29.3,2.1,60,6.3,77.3,10.5c12.9,3.2,14.2,2.3,9.2-6.4l-2.7-4.8l3.5-5.2c2-3,5-6.8,6.8-8.4c1.8-1.7,3.2-3.8,3.2-4.5
		c-0.1-2.3-12.7-10.4-27-17.7C1378,1167.4,1377,1167.2,1362.2,1169.3z"/>
	<path class="st95" d="M1165.9,2073.4c-4.1-8.3-15.3-16.6-28.7-21.5c-9.8-3.6-24.7-5.9-37.4-6.2v74.4c20.6-0.1,40.9-3.9,51.7-9.7
		c6.3-3.4,12.7-9.4,14.9-13.9C1169.2,2090.4,1169.1,2079.6,1165.9,2073.4z"/>
	<path id="structure80_label83_MGV" bar:growlevel="0" bar:type="" class="st96" d="M1736.6,1463c-6.4,5.2-21.6,13.3-31.2,16.6
		c-17.5,5.9-34.6,8.6-60.9,9.3l-20.1,0.5l0.5,4.1c0.4,2.3,1,19.1,1.4,37.4c1,41.7,3.6,70,6.7,72.6c22.7,19.3,59.5,25.6,88.9,14.8
		c8-2.9,14.9-7.7,22.6-15.9c10.4-11.1,15.8-23.8,20.9-49.1c6.1-30.8,5-48.9-4-67.4c-3.9-7.9-17.1-27.5-18.5-27.4
		C1742.4,1458.6,1739.6,1460.6,1736.6,1463z"/>
	<path id="structure81_label84_VS" bar:growlevel="0" bar:type="" class="st97" d="M1921.6,1966.2c-3.9,1.5-47.4,13.1-103.1,27.4
		c-89.2,22.9-108.8,28.5-122,35.1c-28.8,14.5-53.3,40.5-59,62.8c-4.6,17.9,5.4,32.4,30.6,44.4c7.2,3.3,20.3,7.6,23.7,7.6
		c0.9,0,1.2-1.9,1.2-7.5c0-4,0.6-9.8,1.3-12.8l1.4-5.2l-2.4-2.5c-2.2-2.3-2.3-2.8-1.3-5.3c1.4-4.1,6.6-10.9,12.5-16.3
		c15.2-13.9,39.2-24.4,79.4-34.6c70.2-17.7,120.6-35.3,164.7-57.3c24.7-12.3,30.6-15.7,30.6-17.2c0-0.7-3.3-1.6-9.2-2.6
		c-18-3-33.3-8.6-39.4-14.2C1927.6,1965.1,1925.3,1964.7,1921.6,1966.2z"/>
	<path id="structure84_label87_cp" bar:growlevel="0" bar:type="" class="st98" d="M1690.3,1695.3c-12.9,2.5-30.6,10.7-50.5,23.5
		c-13.8,8.8-18.4,12.9-21,18.7c-2.5,5.6-2.4,15.7,0.4,28.4c2.9,13.4,2.9,28.8-0.1,40.9c-10.3,42.7-44.2,101.2-78.2,135
		c-15.4,15.4-28.4,25.2-47.5,35.9c-13.5,7.6-25.4,12.4-51.5,21c-13.5,4.4-32,10.9-41.2,14.2c-27.2,10.2-38.7,12.2-61.9,11.4
		c-7.9-0.4-17.6-1.2-21.6-2c-21.5-4.1-22.9-4.1-25.3,0.5c-1.5,3.1-2,14-0.9,24.8c0.8,7.3-1,6.1,18.1,12.5c19.3,6.5,28.6,7,67.2,3.5
		c20.1-1.8,30.5-4.3,42.6-10.2c10.3-5,23.5-14.4,24.7-17.5c2.7-7,19.2-15,31-15c5,0,6.2-0.5,16.2-5.9c14.1-7.8,18.4-10.6,29-18.9
		c16.6-13,28.1-23.7,33.4-31.3c6.1-8.8,16.5-22.4,28.4-37.2c8-10.1,8.8-11.4,8.8-14.8c0-5.6,3.2-11.3,10.3-18.3
		c7.7-7.6,12.5-14,13.9-18.9c2.2-7.5,16.2-25.8,23-30.1c2.2-1.3,7.2-8.6,19.3-27.8c8.9-14.2,17.8-27.7,19.8-29.9
		c4.8-5.4,10.3-14.1,30.1-47.5c9.3-15.5,16.8-29.1,16.8-30.1c0-1.1-1.4-4.4-3.2-7.5c-3-5.4-3.3-5.7-8.4-7.1
		C1706.4,1694.2,1696.9,1694.1,1690.3,1695.3z"/>
	<path id="structure85_label88_a" bar:growlevel="0" bar:type="" class="st31" d="M1464.5,2023.4c-8.4,2.3-17.3,7.7-19.6,12.1
		c-2,4-0.8,10.4,2.5,13.7c2.4,2.4,3,2.6,8.3,2.3c9.4-0.5,23.4-8.9,27.1-16.1c3.8-7.2-0.4-13.5-8.8-13.3
		C1471.4,2022,1467.1,2022.7,1464.5,2023.4z"/>
	<path id="structure87_label90_ml" bar:growlevel="0" bar:type="" class="st99" d="M1448.6,1686.1c-8.4,2.3-18.4,7.7-26.2,13.9
		c-14.4,11.6-36.4,35.7-64.3,70.3c-18,22.4-31.8,38.3-48.9,56.3c-8,8.4-17.4,18.6-20.7,22.8c-5.7,6.8-13.2,19.9-13.2,22.8
		c0,1.3,2.5,2.2,19.8,5.8l12.9,2.8l12.7-6.3c22.4-10.9,32.9-18.8,66.2-49.5c11.2-10.3,24.3-22.3,29.3-26.8
		c37.9-34.3,58.9-68,59.3-95.7c0.1-9.9-1.3-13.5-6.7-16.3C1464.9,1684,1456.1,1684,1448.6,1686.1z"/>
	<path id="structure88_label92_opt" bar:growlevel="0" bar:type="" class="st100" d="M1414.6,1158.2c-1.2,3.1-5.4,4.5-18.5,6.4
		c-10,1.4-13.2,2.3-13.4,3.2c-0.2,0.9,2.3,2.7,7.6,5.4c4.2,2.3,11.5,6.6,16.2,9.6c4.6,3.2,8.7,5.7,9.2,5.7s2.6-1,4.7-2.3
		c12.4-7.1,25.7-7.6,54.8-1.7c19.9,4,39.5,11.6,53.4,20.8c3.6,2.3,11,8.8,16.6,14.4c9.9,10,10.3,10.3,23,16.4
		c13.5,6.6,27.9,12.1,58.4,22.5c20.3,6.9,31.2,11.3,51.9,21.2c24,11.6,38.6,20.1,45.5,26.5c7.8,7.4,22.8,26,32.1,40.1
		c13.1,19.6,17.9,31.8,17.9,45.9c-0.1,20.3-9.5,28.2-28,23.4c-7.7-2.1-18.9-6.9-25.2-11.2c-7.1-4.8-8.5-4.8-7.6-0.4
		c0.3,1.9,0.5,4.1,0.5,4.9c0,0.7,2.5,3.2,5.7,5.3c7.6,5.4,20.4,17.9,27.2,26.6c28.3,36.2,38.6,73.1,31.5,112.5
		c-1.7,9.4-6.9,30.1-9.4,37.3c-1,2.7-1.8,5.5-1.8,6c0,1.5,10.1,2.4,14.6,1.3c2.2-0.6,4.9-2,6-3c3.7-3.3,13.7-26.5,17.2-39.9
		c6.3-23.9,10.9-84.2,8.2-108.3c-1.8-16.6-13.7-76.5-19.4-98.2c-4.1-15.5-13-30.1-23.8-39.7c-3.2-2.7-28.3-17.6-68.4-40.6
		c-77.1-44.2-94.1-53.6-99.5-55.3c-6.2-1.8-17.1-2.4-24.2-1.3c-14,2.2-15.8,2.2-20.7-0.7c-2.4-1.5-9.1-6.7-14.8-11.4
		c-15.8-13.4-25.6-19.3-43.5-26.9c-23-9.6-43.3-14-71.9-15.5C1416.7,1156.9,1415,1157,1414.6,1158.2z"/>
	<path class="st101" d="M1130.1,1922c-0.3-12.1-0.9-23.8-1.3-25.9c-1-5.1-4.8-8.9-10.4-10.6c-3.2-1-11-1.6-18.4-1.8v66.8
		c6.4,0,11.3,2.6,18.3,9.5c2.9,3,5.6,5.3,6,5.3c0.4,0,0.9-1.7,1.3-3.8c0.4-2.1,1.6-6.8,3-10.6
		C1130.6,1944.1,1130.6,1944,1130.1,1922z"/>
	<text id="text3295" bar:growlevel="0" transform="matrix(1 0 0 1 1439.1191 1494.2695)" class="st102 st103 st104">APT</text>
	<text id="text3296" bar:growlevel="0" transform="matrix(1 0 0 1 2091.4814 1981.8145)" class="st102 st103 st104">OlfCx</text>
	<text id="label30" bar:growlevel="0" transform="matrix(1 0 0 1 1537.0674 1603.9863)" class="st102 st103 st104">PoT</text>
	<text id="label31" bar:growlevel="0" transform="matrix(1 0 0 1 1662.915 1672.9277)" class="st102 st103 st104">PP</text>
	<text id="label32" bar:growlevel="0" transform="matrix(1 0 0 1 1734.4053 1648.6563)" class="st102 st103 st104">LT</text>
	<text id="label33" bar:growlevel="0" transform="matrix(1 0 0 1 1820.5967 2162.7988)" class="st102 st103 st104">PMCo</text>
	<text id="label34" bar:growlevel="0" transform="matrix(1 0 0 1 1770.8564 2102.2266)" class="st102 st103 st104">AHiPM</text>
	<text id="label36" bar:growlevel="0" transform="matrix(1 0 0 1 2213.9863 1887.0684)" class="st102 st103 st104">DLEnt</text>
	<text id="label37" bar:growlevel="0" transform="matrix(1 0 0 1 2252.5059 1709.4961)" class="st102 st103 st104">PRh</text>
	<text id="label38" bar:growlevel="0" transform="matrix(1 0 0 1 2271.6748 1613.4375)" class="st102 st103 st104">Ect</text>
	<text id="label39" bar:growlevel="0" transform="matrix(1 0 0 1 2288.5059 1524.666)" class="st102 st103 st104">TeA</text>
	<text id="label147" bar:growlevel="0" transform="matrix(1 0 0 1 1574.5381 1237.3867)" class="st102 st103 st104">bsc</text>
	<text id="label148" bar:growlevel="0" transform="matrix(1 0 0 1 2051.957 1115.707)" class="st102 st103 st104">dcw</text>
	<text id="label9" bar:growlevel="0" transform="matrix(1 0 0 1 1106.251 1839.9531)" class="st102 st103 st104">RLi</text>
	<text id="label206" bar:growlevel="0" transform="matrix(1 0 0 1 1167.915 1967.4063)" class="st102 st103 st104">fr</text>
	<text id="label207" bar:growlevel="0" transform="matrix(1 0 0 1 1218.54 2008.4473)" class="st102 st103 st104">mp</text>
	<text id="label0" bar:growlevel="0" transform="matrix(1 0 0 1 1233.2266 1922.5586)" class="st102 st103 st104">PBP</text>
	<text id="label1" bar:growlevel="0" transform="matrix(1 0 0 1 1462.6973 1909.9863)" class="st102 st103 st104">SNR</text>
	<text id="label2" bar:growlevel="0" transform="matrix(1 0 0 1 1111.8848 2089.627)" class="st102 st103 st104">ML</text>
	<text id="label4" bar:growlevel="0" transform="matrix(1 0 0 1 1110.4639 1931.9336)" class="st102 st103 st104">IF</text>
	<text id="Unlabeled-2641-1819" bar:growlevel="0" transform="matrix(1 0 0 1 1842.3467 1931.9336)" class="st102 st103 st104">Cx</text>
	<text id="label84" bar:growlevel="0" transform="matrix(1 0 0 1 1775.1455 2037.6074)" class="st102 st103 st104">VS</text>
	<text id="label87" bar:growlevel="0" transform="matrix(1 0 0 1 1380.6748 2043.6973)" class="st102 st103 st104">cp</text>
	<text id="label83" bar:growlevel="0" transform="matrix(1 0 0 1 1670.8955 1561.1465)" class="st102 st103 st104">MGV</text>
	<text id="label82" bar:growlevel="0" transform="matrix(1 0 0 1 1310.3271 1198.0254)" class="st102 st103 st104">Op</text>
	<text id="label88" bar:growlevel="0" transform="matrix(1 0 0 1 1455.1064 2037.6973)" class="st102 st103 st104">a</text>
	<text id="label177" bar:growlevel="0" transform="matrix(1 0 0 1 1378.7002 1866.8789)" class="st102 st103 st104">MT</text>
	<text id="label172" bar:growlevel="0" transform="matrix(1 0 0 1 1118.4414 1729.7207)" class="st102 st103 st104">MA3</text>
	<text id="label170" bar:growlevel="0" transform="matrix(1 0 0 1 1231.1875 1602.7012)" class="st102 st103 st104">InCSh</text>
	<text id="label171" bar:growlevel="0" transform="matrix(1 0 0 1 1111.8848 1624.4688)" class="st102 st103 st104">PrEW</text>
	<text id="label178" bar:growlevel="0" transform="matrix(1 0 0 1 1298.3037 1965.2734)" class="st102 st103 st104">SNCD</text>
	<text id="label179" bar:growlevel="0" transform="matrix(1 0 0 1 1608.4375 1518.3379)" class="st102 st103 st104">MGM</text>
	<text id="label196" bar:growlevel="0" transform="matrix(1 0 0 1 1331.9863 2078.166)" class="st102 st103 st104">a</text>
	<text id="label12" bar:growlevel="0" transform="matrix(1 0 0 1 1256.957 1750.1465)" class="st102 st103 st104">RPC</text>
	<text id="label13" bar:growlevel="0" transform="matrix(1 0 0 1 1256.8779 1822.2949)" class="st102 st103 st104">RMC</text>
	<text id="label10" bar:growlevel="0" transform="matrix(1 0 0 1 1109.0459 1872.4277)" class="st102 st103 st104">vtgx</text>
	<text id="label16" bar:growlevel="0" transform="matrix(1 0 0 1 1192.2256 1634.4355)" class="st102 st103 st104">InC</text>
	<text id="label17" bar:growlevel="0" transform="matrix(1 0 0 1 1147.2227 1577.0547)" class="st102 st103 st104">Dk</text>
	<text id="label14" bar:growlevel="0" transform="matrix(1 0 0 1 1155.1328 1923.8594)" class="st102 st103 st104">PN</text>
	<text id="label169" bar:growlevel="0" transform="matrix(1 0 0 1 1101.3408 1479.2324)" class="st102 st103 st104">Aq</text>
	<text id="label168" bar:growlevel="0" transform="matrix(1 0 0 1 1264.9053 1518.3379)" class="st102 st103 st104">MCPC</text>
	<text id="label90" bar:growlevel="0" transform="matrix(1 0 0 1 1371.707 1789.8965)" class="st102 st103 st104">ml</text>
	<text id="label91" bar:growlevel="0" transform="matrix(1 0 0 1 2009.9863 2188.8672)" class="st102 st103 st104">af</text>
	<text id="label161" bar:growlevel="0" transform="matrix(1 0 0 1 1854.6162 1365.8477)" class="st102 st103 st104">Py</text>
	<text id="label160" bar:growlevel="0" transform="matrix(1 0 0 1 2014.8174 1490.1367)" class="st102 st103 st104">LMol</text>
	<text id="label162" bar:growlevel="0" transform="matrix(1 0 0 1 1702.6357 1319.8867)" class="st102 st103 st104">IMA</text>
	<text id="label165" bar:growlevel="0" transform="matrix(1 0 0 1 1903.2461 1785.7266)" class="st102 st103 st104">GrDG</text>
	<text id="label164" bar:growlevel="0" transform="matrix(1 0 0 1 1638.5049 1702.3223)" class="st102 st103 st104">EpP</text>
	<text id="label167" bar:growlevel="0" transform="matrix(1 0 0 1 1457.9863 1823.3184)" class="st102 st103 st104">SNCD</text>
	<text id="label166" bar:growlevel="0" transform="matrix(1 0 0 1 1600.2461 1931.9473)" class="st102 st103 st104">PoDG</text>
	<text id="Unlabeled-2313-893" bar:growlevel="0" transform="matrix(1 0 0 1 1507.5479 1112.0332)" class="st102 st103 st104">grey</text>
	<text id="label180" bar:growlevel="0" transform="matrix(1 0 0 1 1609.4863 1397.166)" class="st102 st103 st104">SG</text>
	<text id="Unlabeled-1756-1124" bar:growlevel="0" transform="matrix(1 0 0 1 1106.3477 1284.832)" class="st102 st103 st104">SC</text>
	<text id="label69" bar:growlevel="0" transform="matrix(1 0 0 1 1661.8662 1169.4961)" class="st102 st103 st104">PoDG</text>
	<text id="label68" bar:growlevel="0" transform="matrix(1 0 0 1 1666.2783 1108.9277)" class="st102 st103 st104">MoDG</text>
	<text id="label67" bar:growlevel="0" transform="matrix(1 0 0 1 1647.5576 1054.5977)" class="st102 st103 st104">LMol</text>
	<text id="label66" bar:growlevel="0" transform="matrix(1 0 0 1 1465.8174 1295.8867)" class="st102 st103 st104">OPT</text>
	<text id="label65" bar:growlevel="0" transform="matrix(1 0 0 1 1454.2363 1232.166)" class="st102 st103 st104">OT</text>
	<text id="label64" bar:growlevel="0" transform="matrix(1 0 0 1 1295.9863 1252.3867)" class="st102 st103 st104">InG</text>
	<text id="label63" bar:growlevel="0" transform="matrix(1 0 0 1 1191.1357 1181.0156)" class="st102 st103 st104">SuG</text>
	<text id="label62" bar:growlevel="0" transform="matrix(1 0 0 1 1406.7783 1086.9961)" class="st102 st103 st104">DS</text>
	<text id="label217" bar:growlevel="0" transform="matrix(1 0 0 1 1214.7842 1452.1387)" class="st102 st103 st104">pc</text>
	<text id="label216" bar:growlevel="0" transform="matrix(1 0 0 1 1136.1367 1518.3379)" class="st102 st103 st104">LPAG</text>
	<text id="label210" bar:growlevel="0" transform="matrix(1 0 0 1 1279.0381 1761.3086)" class="st102 st103 st104">scp</text>
	<text id="label197" bar:growlevel="0" transform="matrix(1 0 0 1 1275.6455 2033.1426)" class="st102 st103 st104">MT</text>
	<text id="label213" bar:growlevel="0" transform="matrix(1 0 0 1 1147.7295 1669.8438)" class="st102 st103 st104">mlf</text>
	<text id="label78" bar:growlevel="0" transform="matrix(1 0 0 1 1109.0459 1340.0957)" class="st102 st103 st104">csc</text>
	<text id="label74" bar:growlevel="0" transform="matrix(1 0 0 1 1635.2266 1447.3281)" class="st102 st103 st104">MGD</text>
	<text id="label75" bar:growlevel="0" transform="matrix(1 0 0 1 1560.6162 1398.2461)" class="st102 st103 st104">Po</text>
	<text id="label76" bar:growlevel="0" transform="matrix(1 0 0 1 1624.3076 1359.2461)" class="st102 st103 st104">LPLC</text>
	<text id="label77" bar:growlevel="0" transform="matrix(1 0 0 1 1200.1738 1319.0313)" class="st102 st103 st104">PaC</text>
	<text id="label70" bar:growlevel="0" transform="matrix(1 0 0 1 1564.3955 1312.5977)" class="st102 st103 st104">LPMC</text>
	<text id="label71" bar:growlevel="0" transform="matrix(1 0 0 1 1459.876 1343.916)" class="st102 st103 st104">PPT</text>
	<text id="label72" bar:growlevel="0" transform="matrix(1 0 0 1 1293.0186 1316.0781)" class="st102 st103 st104">InWh</text>
	<text id="label73" bar:growlevel="0" transform="matrix(1 0 0 1 1312.6064 1400.3477)" class="st102 st103 st104">DpG</text>
	<text id="label220" bar:growlevel="0" transform="matrix(1 0 0 1 1141.0322 1440.9902)" class="st102 st103 st104">DMPAG</text>
	<text id="label226" bar:growlevel="0" transform="matrix(1 0 0 1 1141.0322 1820.4063)" class="st102 st103 st104">mtg</text>
	<text id="label48" bar:growlevel="0" transform="matrix(1 0 0 1 2289.0771 1446.3086)" class="st102 st103 st104">AuV</text>
	<text id="label130" bar:growlevel="0" transform="matrix(1 0 0 1 1422.1064 1014.9375)" class="st102 st103 st104">alv</text>
	<text id="label41" bar:growlevel="0" transform="matrix(1 0 0 1 1908.3467 1573.7168)" class="st102 st103 st104">Rad</text>
	<text id="label43" bar:growlevel="0" transform="matrix(1 0 0 1 2046.4668 1422.2754)" class="st102 st103 st104">Rad</text>
	<text id="label45" bar:growlevel="0" transform="matrix(1 0 0 1 1713.2559 1380.5156)" class="st102 st103 st104">DLG</text>
	<text id="label44" bar:growlevel="0" transform="matrix(1 0 0 1 2024.3564 1354.3867)" class="st102 st103 st104">CA1</text>
	<text id="label46" bar:growlevel="0" transform="matrix(1 0 0 1 2113.1875 1380.5156)" class="st102 st103 st104">Or</text>
	<text id="label56" bar:growlevel="0" transform="matrix(1 0 0 1 1150.457 878.1074)" class="st102 st103 st104">RSGc</text>
	<text id="label57" bar:growlevel="0" transform="matrix(1 0 0 1 1145.0283 1056.7266)" class="st102 st103 st104">RSGb</text>
	<text id="label54" bar:growlevel="0" transform="matrix(1 0 0 1 1377.165 698.4668)" class="st102 st103 st104">V2MM</text>
	<text id="label55" bar:growlevel="0" transform="matrix(1 0 0 1 1254.376 717.6074)" class="st102 st103 st104">RSD</text>
	<text id="label52" bar:growlevel="0" transform="matrix(1 0 0 1 1780.1553 761.1367)" class="st102 st103 st104">V1</text>
	<text id="label53" bar:growlevel="0" transform="matrix(1 0 0 1 1518.2266 711.0059)" class="st102 st103 st104">V2ML</text>
	<text id="label50" bar:growlevel="0" transform="matrix(1 0 0 1 2196.1357 1102.6875)" class="st102 st103 st104">AuD</text>
	<text id="label51" bar:growlevel="0" transform="matrix(1 0 0 1 2081.6875 950.7363)" class="st102 st103 st104">V2L</text>
	<text id="label127" bar:growlevel="0" transform="matrix(1 0 0 1 1356.0479 833.1973)" class="st102 st103 st104">cg</text>
	<text id="text3305" bar:growlevel="0" transform="matrix(1 0 0 1 2054.3857 2058.3672)" class="st102 st103 st104">APir</text>
	<text id="label129" bar:growlevel="0" transform="matrix(1 0 0 1 1344.7979 967.9277)" class="st102 st103 st104">dhc</text>
	<text id="label128" bar:growlevel="0" transform="matrix(1 0 0 1 1355.415 890.1074)" class="st102 st103 st104">fmj</text>
	<text id="label92" bar:growlevel="0" transform="matrix(1 0 0 1 1766.1455 1456.7168)" class="st102 st103 st104">opt</text>
	<text id="text3288" bar:growlevel="0" transform="matrix(1 0 0 1 2013.915 2133.8496)" class="st102 st103 st104">OlfCx-1</text>
	<text id="label42" bar:growlevel="0" transform="matrix(1 0 0 1 1834.6064 1469.2891)" class="st102 st103 st104">CA3</text>
	<text id="label22" bar:growlevel="0" transform="matrix(1 0 0 1 1538.0283 1669.7754)" class="st102 st103 st104">PIL</text>
	<text id="label26" bar:growlevel="0" transform="matrix(1 0 0 1 1321.6357 1583.6172)" class="st102 st103 st104">p1Rt</text>
	<text id="label29" bar:growlevel="0" transform="matrix(1 0 0 1 1584.499 1754.2793)" class="st102 st103 st104">SNL</text>
	<text id="label28" bar:growlevel="0" transform="matrix(1 0 0 1 1257.5576 1428.9492)" class="st102 st103 st104">PCom</text>
	<text id="Unlabeled-2215-1612" bar:growlevel="0" transform="matrix(1 0 0 1 1506.6455 1723.1348)" class="st102 st103 st104">grey</text>
	<text id="label49" bar:growlevel="0" transform="matrix(1 0 0 1 2280.376 1272.9375)" class="st102 st103 st104">Au1</text>
	<text id="label152" bar:growlevel="0" transform="matrix(1 0 0 1 1431.2266 1387.2363)" class="st102 st103 st104">TG</text>
	<text id="label154" bar:growlevel="0" transform="matrix(1 0 0 1 1111.8848 1394.377)" class="st102 st103 st104">PlPAG</text>
	<text id="label155" bar:growlevel="0" transform="matrix(1 0 0 1 1158.0771 1171.5684)" class="st102 st103 st104">Zo</text>
	<text id="label156" bar:growlevel="0" transform="matrix(1 0 0 1 1755.7363 1600.1465)" class="st102 st103 st104">MZMG</text>
	<text id="label157" bar:growlevel="0" transform="matrix(1 0 0 1 1880.5674 1624.8672)" class="st102 st103 st104">SLu</text>
	<text id="label158" bar:growlevel="0" transform="matrix(1 0 0 1 2050.8467 1242.8184)" class="st102 st103 st104">Py</text>
	<text id="label159" bar:growlevel="0" transform="matrix(1 0 0 1 1606.9668 1147.5391)" class="st102 st103 st104">GrDG</text>
	<text id="label163" bar:growlevel="0" transform="matrix(1 0 0 1 1551.1357 1488.0391)" class="st102 st103 st104">PLi</text>
</g>
</svg>
