<?xml version="1.0" encoding="utf-8"?>
<!-- Generator: Adobe Illustrator 24.1.1, SVG Export Plug-In . SVG Version: 6.00 Build 0)  -->
<svg version="1.1"
	 id="body" inkscape:version="0.47pre4 r22446" sodipodi:docname="108_pretrace_pretrace_v1.svg" xmlns:bar="http://www.3dbar.org" xmlns:cc="http://creativecommons.org/ns#" xmlns:dc="http://purl.org/dc/elements/1.1/" xmlns:inkscape="http://www.inkscape.org/namespaces/inkscape" xmlns:rdf="http://www.w3.org/1999/02/22-rdf-syntax-ns#" xmlns:sodipodi="http://sodipodi.sourceforge.net/DTD/sodipodi-0.dtd" xmlns:svg="http://www.w3.org/2000/svg"
	 xmlns="http://www.w3.org/2000/svg" xmlns:xlink="http://www.w3.org/1999/xlink" x="0px" y="0px" viewBox="0 0 3024 3024"
	 style="enable-background:new 0 0 3024 3024;" xml:space="preserve">
<style type="text/css">
	.st0{fill:#FF000C;}
	.st1{fill:#905FD8;}
	.st2{fill:#6B2FC3;}
	.st3{fill:#925FDC;}
	.st4{fill:#00D7F2;}
	.st5{fill:#E1B2FF;}
	.st6{fill:#E547D8;}
	.st7{fill:#A500FF;}
	.st8{fill:#9653F6;}
	.st9{fill:#B18EE1;}
	.st10{fill:#9576D0;}
	.st11{fill:#610BE5;}
	.st12{fill:#97FF59;}
	.st13{fill:#D0FFB2;}
	.st14{fill:#FF6100;}
	.st15{fill:#3FFF00;}
	.st16{fill:#FFB2DC;}
	.st17{fill:#8CFF59;}
	.st18{fill:#FFA559;}
	.st19{fill:#A682DC;}
	.st20{fill:#C9FFB2;}
	.st21{fill:#DF00B4;}
	.st22{fill:#DEFF00;}
	.st23{fill:#DFC98E;}
	.st24{fill:#DFFF00;}
	.st25{fill:#732FED;}
	.st26{fill:#DFB547;}
	.st27{fill:#B2FF00;}
	.st28{fill:#DAFF00;}
	.st29{fill:#EEFF76;}
	.st30{fill:#FFD0B2;}
	.st31{fill:#876BC7;}
	.st32{fill:#E9AB00;}
	.st33{fill:#FFD7B2;}
	.st34{fill:#9C6BE9;}
	.st35{fill:#B58EE9;}
	.st36{fill:#FFE1B2;}
	.st37{fill:#C6D400;}
	.st38{fill:#00D43B;}
	.st39{fill:#AB4E52;}
	.st40{fill:#C19AF6;}
	.st41{fill:#CCFFB2;}
	.st42{fill:#FF7500;}
	.st43{fill:#FF8B00;}
	.st44{fill:#E7FF00;}
	.st45{fill:#FFB2BA;}
	.st46{fill:#FFDDB2;}
	.st47{fill:#696969;}
	.st48{fill:#FFDA59;}
	.st49{fill:#FF9A00;}
	.st50{fill:#B29AE1;}
	.st51{fill:#FF005D;}
	.st52{fill:#FFCBB2;}
	.st53{fill:#FF3100;}
	.st54{fill:#FFC3B2;}
	.st55{fill:#FF3600;}
	.st56{fill:#F0FF59;}
	.st57{fill:#FF8C59;}
	.st58{fill:#FF4F00;}
	.st59{fill:#FFCAB2;}
	.st60{fill:#FFC8B2;}
	.st61{fill:#E0E959;}
	.st62{fill:#FF4600;}
	.st63{fill:#F3FF59;}
	.st64{fill:#D8E900;}
	.st65{fill:#D6FF00;}
	.st66{fill:#EBF400;}
	.st67{fill:#FFA359;}
	.st68{fill:#F9FF47;}
	.st69{fill:#FFEC00;}
	.st70{fill:#C99300;}
	.st71{fill:#D4A523;}
	.st72{fill:#FFC423;}
	.st73{fill:#FFFDB2;}
	.st74{fill:#FFFB00;}
	.st75{fill:#FFCC47;}
	.st76{fill:#FFFA00;}
	.st77{fill:#E6E98E;}
	.st78{fill:#E8E900;}
	.st79{fill:#FEFF00;}
	.st80{fill:#CCD400;}
	.st81{fill:#E1E900;}
	.st82{fill:#E9FF59;}
	.st83{fill:#D2D48E;}
	.st84{fill:#EEF447;}
	.st85{fill:#FFFEB2;}
	.st86{fill:#69FF00;}
	.st87{fill:#F5FFB2;}
	.st88{fill:#E7FF3B;}
	.st89{fill:#CDE900;}
	.st90{fill:#BCD400;}
	.st91{fill:#F4FFB2;}
	.st92{fill:#E96800;}
	.st93{fill:#D5E93B;}
	.st94{fill:#DF8D00;}
	.st95{fill:#FFA000;}
	.st96{fill:#DFB259;}
	.st97{fill:#FFBD59;}
	.st98{fill:#D19FE8;}
	.st99{fill:#F4BBFF;}
	.st100{fill:#FF59B8;}
	.st101{fill:#FFAE00;}
	.st102{fill:#FFE9B2;}
	.st103{fill:#FFE3B2;}
	.st104{fill:#F4BB23;}
	.st105{fill:#FFC359;}
	.st106{fill:#F4CF6B;}
	.st107{fill:#FFBA00;}
	.st108{fill:#DF8800;}
	.st109{fill:#54FF00;}
	.st110{fill:#4CC9F7;}
	.st111{fill:#232323;enable-background:new    ;}
	.st112{font-family:'TimesNewRomanPSMT';}
	.st113{font-size:27px;}
	.st114{fill:#FF0000;enable-background:new    ;}
</style>
<sodipodi:namedview  bordercolor="#666666" borderopacity="1" gridtolerance="10" guidetolerance="10" id="namedview493" inkscape:current-layer="content" inkscape:cx="528.70681" inkscape:cy="759.39533" inkscape:guide-bbox="true" inkscape:object-paths="true" inkscape:pageopacity="0" inkscape:pageshadow="2" inkscape:snap-global="true" inkscape:window-height="1129" inkscape:window-maximized="1" inkscape:window-width="1920" inkscape:window-x="1680" inkscape:window-y="24" inkscape:zoom="3.0692917" objecttolerance="10" pagecolor="#ffffff" showgrid="false" showguides="true">
	</sodipodi:namedview>
<desc  id="desc5">This was produced by version 4.2 of GNU libplot, a free library for exporting 2-D vector graphics.</desc>
<defs>
	<rdf:RDF>
		<cc:Work  rdf:about="">
			<dc:format>image/svg+xml</dc:format>
			<dc:type  rdf:resource="http://purl.org/dc/dcmitype/StillImage"></dc:type>
		</cc:Work>
	</rdf:RDF>
	<bar:data  content="-3.84" name="coronalcoord"></bar:data>
	
		<bar:data  content="{&apos;ReferenceHeight&apos;: 900, &apos;ReferenceWidth&apos;: 1200, &apos;imageSize&apos;: (1200, 900)}" name="rendererConf">
		</bar:data>
	
		<bar:data  content="{&apos;DumpEachStepSVG&apos;: False, &apos;DumpEachStepPNG&apos;: False, &apos;GrowDefaultBoundaryColor&apos;: 200, &apos;CacheLevel&apos;: 5, &apos;NewPathIdTemplate&apos;: &apos;structure%d_%s_%s&apos;, &apos;PoTraceConf&apos;: {&apos;potrace_accuracy_parameter&apos;: &apos;0.001&apos;, &apos;potrace_width_string&apos;: &apos;1200pt&apos;, &apos;potrace_svg_resolution_string&apos;: &apos;300x300&apos;, &apos;potrace_height_string&apos;: &apos;900pt&apos;}, &apos;DetectUnlabelled&apos;: True, &apos;DumpVBrain&apos;: False, &apos;DumpWrongSeed&apos;: True, &apos;DumpDirectory&apos;: &apos;.&apos;, &apos;MinFiterTimesApplication&apos;: 3, &apos;RegionAlreadyTraced&apos;: 100, &apos;UnlabelledTreshold&apos;: 500}" name="tracingConf">
		</bar:data>
	<bar:data  content="0.0176211454,-9.5150660793,0.0176211454,-1.5355884426" name="transformationmatrix"></bar:data>
</defs>
<g id="content">
	<path class="st0" d="M2410.8,1310c-3.6-21.3-6.2-30-14.5-47.4c-3.4-7.3-8-18.8-10.3-25.7c-3.5-10.5-4.2-14.4-5.4-25.7
		c-2.5-26.5-9.8-48.8-26.6-80.7c-17.9-34.2-86.1-153.3-111.4-194.5c-34.3-56-102.6-130.4-160.6-175.3
		c-67.3-52-186.4-117.5-283.8-156.2c-73.1-29-153.6-48.9-258-63.5c-78.1-11-165.1-16.7-207.4-13.6c-57.5,4.2-109.3,19.2-143,41.2
		c-18,11.9-33.3,32.3-51.3,68.7c-10.4,21-16.6,36.9-23.1,59.1c-0.2,0.6-0.6,0.9-1.1,1V1128c0.8,0.7,2.2,2.8,3.5,5.3
		c3.5,7,8.6,14.7,14.8,22.3c4.6,5.8,12.9,20,13,22.2c0,0.7-1.3,1.2-3.3,1.2c-1.9,0-8.5,1.3-14.7,2.7c-5.7,1.3-11.4,2.5-13.3,2.7
		v1033.4c13.6,0,27.4,0.1,35.4,0.1c7.3,0.1,16.8-0.6,29.3-2.3c10.2-1.3,25.9-2.9,35.1-3.3c39.4-2.1,92.2-14.9,115.5-28.3
		c13.9-7.9,33.3-23.5,78.8-63c26.9-23.3,41.1-35.2,50.5-42.1c3.7-2.7,7.8-6.1,9.2-7.6c2.7-2.9,5.2-8.3,5.2-11.2c0-1,0.1-1.8,0.3-1.8
		c0.1,0,3.1,0.6,6.5,1.3c15.9,3.3,34.6,0.8,51.2-7c7.9-3.8,21.4-12.1,22.6-14.1c0.3-0.4,1.4-0.9,2.3-0.9c1.7,0,1.7,0.6,1.2,12.8
		c-2.5,59,29.7,111.1,92.9,150.3c32,19.8,93.8,47.8,137.5,62.3c48.5,16,74,17.9,149,10.8c15.8-1.5,34.5-2.5,54.5-3.1
		c20.4-0.5,33.8-1.3,40.1-2.3c31.2-4.9,65.8-15.3,88.6-26.7c31.9-15.9,62.5-42.3,91.6-79.2c21.8-27.5,24.8-33.1,33-59.7
		c3.5-11.5,8-23.3,12.3-32.9c24.5-53.9,71.6-185.7,81.7-228.2c3.5-14.8,5.2-30.1,4.6-41c-1.1-17.8-4.9-28.9-17.5-49.2
		c-6.9-11.3-8.1-17.6-4.7-25.1c1.8-4,4.9-7.2,29.8-31.2c19.3-18.6,31.4-35.5,37.1-51.3c5.9-16.5,14.4-60.8,19.4-100.8
		c6.6-51.5,8.6-86.4,8.6-144.9C2415.8,1346.7,2415.2,1336,2410.8,1310z M1322.8,1264.1c-6.1,2-9.4,2.5-16.6,2.6
		c-10.4,0.1-13.6-1.1-26-9.2c-3.9-2.6-7.4-4.7-7.8-4.7c-0.4,0-0.8-0.7-0.8-1.6c0-1,1.8-2.4,4.9-4.1c6-3.2,16.1-11.7,20.3-17.2
		c1.7-2.3,3.7-4.1,4.2-4.1c0.6,0,1.8,1.4,2.6,2.9c7.6,14.8,25.8,20.5,48.3,15.2c4.4-1.1,8.5-1.9,9.3-1.9
		C1368.5,1242.1,1339.7,1258.6,1322.8,1264.1z"/>
	<path id="structure2_label204_vBrain" bar:growlevel="0" bar:type="" class="st0" d="M1465.4,2083.5c-6.6,3-9.3,9.8-5.9,15.2
		c7.2,11.5,25.8,6.6,24.1-6.3c-0.5-4.3-2.6-6.8-7.4-8.9C1471.7,2081.4,1469.9,2081.4,1465.4,2083.5z"/>
	<path class="st0" d="M1129.2,2225.3c-3.8-0.8-9.4-1.2-15-1.2v25.7c9.9,0,19.9-1.6,26.8-5.1
		C1153.2,2238.4,1147.7,2229.2,1129.2,2225.3z"/>
	<path id="structure100_label98_mt" bar:growlevel="0" bar:type="" class="st1" d="M1245.7,1852.3c-5.6,1.2-8.5,3.1-13.1,8.1
		c-6,6.8-9.6,14.4-9.6,20.6c0,11.3,4.3,22.1,14.9,37.6c15.1,22.2,26.4,53.8,29.7,83.7c0.5,4.5,0.9,5.7,2.2,5.7s1.6-1.2,2.2-6.9
		c0.9-11.1,0.6-17.2-1.3-31.4c-4.1-29.3-3.4-41.7,3-60.2c3.5-10.3,3.7-11.3,3.7-21.6c0-9.1-0.3-11.6-2-15.8
		c-3-7.5-8.5-15.6-12.2-17.8C1259.3,1851.8,1251.6,1851,1245.7,1852.3z"/>
	<path id="structure101_label99_ns" bar:growlevel="0" bar:type="" class="st2" d="M1389.5,1865.9c-16.3,3.1-42,23.8-54.1,43.4
		c-16.2,26.3-11.4,63.1,8.2,63.1c3.3,0,5.9-0.8,10.6-3.3c9.6-5,23.2-13.7,35.9-22.9c14.9-10.9,43.8-30.2,53.6-35.7
		c7.5-4.3,14.9-10.7,17.3-15.1c0.6-1.1,1.2-4,1.3-6.3c0-5.8-2.8-8.8-12.2-13.4C1433.8,1867.7,1404.2,1863,1389.5,1865.9z"/>
	<path id="structure102_label100_mfb" bar:growlevel="0" bar:type="" class="st3" d="M1389.5,1865.9c-16.3,3.1-42,23.8-54.1,43.4
		c-16.2,26.3-11.4,63.1,8.2,63.1c3.3,0,5.9-0.8,10.6-3.3c9.6-5,23.2-13.7,35.9-22.9c14.9-10.9,43.8-30.2,53.6-35.7
		c7.5-4.3,14.9-10.7,17.3-15.1c0.6-1.1,1.2-4,1.3-6.3c0-5.8-2.8-8.8-12.2-13.4C1433.8,1867.7,1404.2,1863,1389.5,1865.9z"/>
	<path id="structure107_label105_ml" bar:growlevel="0" bar:type="" class="st4" d="M1606.3,1655.7c-8.6,3.2-28.5,9.4-44.1,13.9
		c-15.6,4.4-33.2,9.7-39.2,11.6c-14.1,4.7-35.4,10.4-83.7,22.6l-39.6,10.1l-16.7,0.1c-9.2,0-22.2-0.2-29-0.6
		c-9.8-0.5-12.4-0.5-12.4,0.4c0,1.5,12,10,18.1,12.8c11.1,5.1,26.8,7.1,54.4,7.1c25.4,0,44.8-2.8,77.8-11.1
		c44.2-11.2,68.6-21.3,97.2-40.5c14.8-9.9,36-28.3,36-31.1C1625.2,1649,1623,1649.6,1606.3,1655.7z"/>
	<path id="structure112_label110_cp" bar:growlevel="0" bar:type="" class="st5" d="M1805.2,1502.5c0,8.1-2.5,20.5-9.9,48.2
		c-9.9,37.1-13.5,52.2-13.5,56.7c0,5.8-2.2,12.3-5.5,16.9c-1.5,2.2-8,7.8-14.2,12.7c-13.8,10.7-22.2,19.7-28.8,30.3
		c-11.4,18.7-13,20.5-38.8,46.7c-26.7,27.2-36,38-55.4,64.3c-37.2,50.6-65.4,85.2-103,126.5c-23.2,25.4-43.4,48.4-52.7,59.9
		c-12.7,15.8-26.2,35-29.5,42.1c-5.6,12-4.1,27.8,3.6,38.9c7.1,10.2,17.5,13.9,38.1,13.9c14.1-0.1,22.7-1.9,34.8-7.6
		c15.5-7.2,23.1-13.2,38.6-30.3c16.8-18.5,23.2-26.6,32.9-41c14.2-21.3,28.1-39.1,35.5-45.6c3.3-2.9,12.5-17.6,40.9-65.7
		c10.1-17.1,24.5-40.9,32-53.1c7.5-12.2,21.1-34.7,30.3-50c9.3-15.4,20.9-33.4,25.9-40.1c7.4-9.9,10.9-15.8,19.2-32.2l10.1-20.2
		l0.1-13.6c0.1-13,0.3-14,3-21.2c8.8-23.6,15.2-55.8,17.2-86.8c1.3-21.2-0.5-36-6-50C1806.9,1494.9,1805.2,1494.9,1805.2,1502.5z"/>
	<path id="structure113_label111_a" bar:growlevel="0" bar:type="" class="st6" d="M1464.5,2084.1c-3.6,1.7-5.8,5.6-5.8,10.3
		c0,3.1,0.5,4.3,3,6.8c9.5,9.4,26.6-0.2,21-11.8C1479.8,2083.3,1471.1,2080.8,1464.5,2084.1z"/>
	<path id="structure115_label113_ic" bar:growlevel="0" bar:type="" class="st7" d="M1805.2,1502.5c0,8.1-2.5,20.5-9.9,48.2
		c-9.9,37.1-13.5,52.2-13.5,56.7c0,5.8-2.2,12.3-5.5,16.9c-1.5,2.2-8,7.8-14.2,12.7c-13.8,10.7-22.2,19.7-28.8,30.3
		c-11.4,18.7-13,20.5-38.8,46.7c-26.7,27.2-36,38-55.4,64.3c-37.2,50.6-65.4,85.2-103,126.5c-23.2,25.4-43.4,48.4-52.7,59.9
		c-12.7,15.8-26.2,35-29.5,42.1c-5.6,12-4.1,27.8,3.6,38.9c7.1,10.2,17.5,13.9,38.1,13.9c14.1-0.1,22.7-1.9,34.8-7.6
		c15.5-7.2,23.1-13.2,38.6-30.3c16.8-18.5,23.2-26.6,32.9-41c14.2-21.3,28.1-39.1,35.5-45.6c3.3-2.9,12.5-17.6,40.9-65.7
		c10.1-17.1,24.5-40.9,32-53.1c7.5-12.2,21.1-34.7,30.3-50c9.3-15.4,20.9-33.4,25.9-40.1c7.4-9.9,10.9-15.8,19.2-32.2l10.1-20.2
		l0.1-13.6c0.1-13,0.3-14,3-21.2c8.8-23.6,15.2-55.8,17.2-86.8c1.3-21.2-0.5-36-6-50C1806.9,1494.9,1805.2,1494.9,1805.2,1502.5z"/>
	<path id="structure116_label114_opt" bar:growlevel="0" bar:type="" class="st8" d="M1580.2,1164.7c-28.4,2.3-34.4,3.1-34.8,4.3
		c-0.9,2.2,1.4,2.7,14,3.2c75.1,3.5,84.8,4.7,115.7,14c18.1,5.5,31.7,10.7,39.1,15c7.8,4.7,19,15.4,28.1,26.9
		c4.1,5.3,13.2,16.7,20.2,25.5c6.9,8.7,14.1,18.2,16,21.1c11.2,16.8,15.9,40.3,11.5,57.2c-2.9,11.2-2.5,16.5,1.6,26.9
		c4.9,12.4,7.6,21.4,12.4,43c3.5,15.5,4.2,20.5,4.3,27.9c0,8.7-0.1,9.3-3.4,15.6c-4.1,7.8-5.7,17.6-4.9,30.1
		c0.4,7.4,0.8,8.6,6.4,19.8c8.8,17.8,10,23.6,9.9,47.1c-0.1,27.9-4.1,54-12.6,82.4c-3.8,12.8-4,13.6-3.1,19.4
		c1.1,7.8,1.2,23,0.1,28.8c-0.9,4.8-8.7,23.7-16.3,39.4c-3.2,6.7-6.8,12.2-13,19.9c-9.8,12.2-13.1,18.4-29.1,54.8
		c-19.9,45.1-39.8,86.7-50.5,105.2c-7,12.2-6.2,13.2,4.2,5.4c8.8-6.7,18.9-16.3,25.6-24.5c3-3.6,12-16.7,20-29.3
		c58.2-90.6,88.7-148.8,108-206.7c12.9-38.8,21.1-75.6,22.7-102.8l0.6-9.5l-3.6-1.9c-16.7-8.6-33.1-31-42.1-58
		c-3.7-11.1-5.1-19.4-12.2-72.6c-5.8-44.4-7-51.6-10.4-65.3c-7.4-29.3-22.8-65.3-37.1-86.8c-6.2-9.4-32.9-36.5-44.3-45
		c-13-9.6-29.8-16.6-56.4-23.3c-25.1-6.3-34.2-7.5-57.4-7.7C1598.1,1164,1584.9,1164.2,1580.2,1164.7z"/>
	<path id="structure119_label117_st" bar:growlevel="0" bar:type="" class="st9" d="M1937.3,1942.2c-21.8,22.5-70.9,48.6-110.7,59
		c-23.7,6.1-42.8,8.1-92.1,9.5c-22.6,0.6-35.1,1.3-41.4,2.3c-5.6,1-14.5,1.5-23.4,1.6c-18.7,0.1-21.7-0.8-35.3-10.3
		c-14-10-23.4-14.6-30.4-15c-5.2-0.4-5.8-0.2-8,2.2c-2.7,3-3.1,4.9-0.7,4.9c3.8,0,12.7,5.5,20.3,12.5c12.9,12.1,27.4,17.6,51.5,20.1
		c16,1.5,27,0.3,43.4-5.3c17.6-5.8,21.1-5.9,39.9-1.2c13,3.3,16.5,3.9,27.5,4.2c14.1,0.5,21.7-0.7,41.8-6.5
		c31.7-9.1,55.8-22.1,100.3-53.7c12.6-9,15.8-12.1,21.4-20.5C1948.7,1934.5,1946.7,1932.6,1937.3,1942.2z"/>
	<path id="structure13_label9_PeFLH" bar:growlevel="0" bar:type="" class="st10" d="M1281.8,1971.4c-0.5,0.3-2.9,0.6-5.3,1
		l-4.3,0.6l0.4,8.2c0.5,9.2-0.5,24.5-2.1,32.1l-1.1,4.9l-2.1-14c-2.9-20-3.3-21.9-5.1-22.2c-0.8-0.2-1.5,0.3-1.5,0.9
		c0,0.7-1.2,3.2-2.6,5.4c-3.2,5-8.8,8.6-16.9,10.5c-5.8,1.4-5.9,1.5-9.3,7c-7.8,13-12.1,33.9-8.6,43c1.3,3.3,2.9,5,8.9,9.4
		c8,5.7,29.7,19,42,25.6c10.1,5.4,22.1,10,34,13c13.3,3.3,29.9,3.5,36.7,0.5c3.5-1.6,4.8-2.7,5.7-5.1c1.4-4.2,9.2-10.9,14.8-12.8
		c5.4-2,9.1-6.4,13.4-16.5c4.2-10,4-13.7-1.7-25.3c-7.6-15.5-23.5-38.4-34-49c-10.5-10.6-26.8-16.4-48.2-17.1
		C1288.2,1971.3,1282.4,1971.3,1281.8,1971.4z M1301.6,2032.6c5.7,2.6,12.2,9.1,14.9,14.7c1.7,3.4,2.2,5.9,2.2,11.2
		c0,9-2.4,12.9-10.4,16.9c-6.6,3.2-12,3.6-17.5,1.1c-10.4-4.8-18.4-20.1-16.3-31c0.7-3.8,7.2-11.4,11.5-13.5
		C1290.3,2029.8,1296.3,2030.1,1301.6,2032.6z"/>
	<path class="st11" d="M1931.8,1171.4c-0.9-26-7.6-50.9-21.2-79.2c-11.6-24.1-25.7-44.4-47.6-68.8c-16.1-18-70.2-71.4-83.8-82.7
		c-29.1-24.2-56.5-42.5-88.7-59.1c-44.1-22.7-86.1-35.9-138.6-43.5c-43.3-6.3-96.9-7.7-124.5-3.2c-26.3,4.2-50.3,17.7-71.6,40.1
		c-13.7,14.3-23.2,28.1-36.1,51.7c-13.5,24.9-25.3,41.2-42.1,58.3c-15.8,16-35.6,31-51.3,39c-3.8,2-8.2,5.2-11.7,8.7
		c-8.4,8.5-21,14.3-40.7,19.2c-9.7,2.3-16.6,2.7-19.6,1.2c-1.1-0.5-3.2-2.3-4.9-3.7l-2.8-2.7l-9.4,1.5c-8.3,1.3-15.7,2-23,2v24.4
		c3.2,0,6.5,0,9.7-0.1c42.2-1,73.5-5.9,90.5-14c18-8.6,44.5-33.2,70.1-65c13.1-16.4,21.5-28.3,41.6-59.3c9.7-15.1,20.5-31.3,24-36
		c20.3-27.5,56.9-52.4,85.7-58.1c14.8-3,55.5-2.4,84.6,1.1c24.3,3,35.9,5.6,79.1,18c44.8,13,83.6,26.5,102.4,36
		c31.5,15.8,108.6,81.2,142.2,120.5c29.5,34.6,62.5,88.2,72.2,117.4c5.1,15.4,6.2,23.4,5.7,39.6c-1.7,44.3-17.1,80.5-38.9,91.6
		c-6.7,3.3-12.6,4.7-21.3,4.7c-24.8,0-49.4-8.5-70.2-24c-5.1-3.9-17.7-15.3-28.2-25.5c-25.6-25.1-34.9-32.6-53.6-42.6
		c-22.4-12.1-67.3-27.4-84.9-29.2c-4.6-0.4-5.9-0.2-7.2,1c-1.7,1.8-2,5.3-0.6,9.3c1,2.6,1.2,2.7,8.2,3.3c30.2,2.5,75.5,15.8,92.4,27
		c11.4,7.6,31,25.8,44.1,41c11.5,13.5,25.5,40.7,36.4,71.1c7.1,19.6,10.8,36.9,15.4,71.1c8.3,61.4,10.4,76.3,12.2,83.3
		c5.4,21.1,17.8,43.7,30.4,55.4c4.9,4.5,15,11.5,16.8,11.5c1.4,0,15.8-13.2,22.1-20.3c6.7-7.6,11.4-15.7,12.7-21.8
		c1.2-5.7,0.7-10.8-2.4-30.5c-4.8-30.3-4.8-50,0-84.1c3.5-24.6,4.9-35.5,7.3-60.6c2.7-27.3,4-36.9,7.7-54.5
		C1932.1,1196.6,1932.5,1193.4,1931.8,1171.4z"/>
	<path id="structure142_label139_ic" bar:growlevel="0" bar:type="" class="st7" d="M1917.1,1104.5c0.3,1.2,2.3,6.9,4.4,12.9
		c3.3,9.4,5,12.5,13,23.8c25,35.8,38.3,58.8,51.5,89.6c8.8,20.4,13.7,36.8,13.7,46.3c0,1.9-1.4,9.2-3.1,16.3
		c-11.4,47.9-14.7,92.7-9,125.5c7.7,44.5,22,91,35.8,116.6c11.9,22.2,18.2,33.2,19.1,33.2c0.6,0,0.9-12.3,0.9-35.3
		c0-39.3,0.5-45.6,5.5-63c5-17.9,6.2-25.8,6.1-40.8v-13.5l-5.5-18.4c-6.2-20.8-7.2-25.9-5.8-28.7c0.8-1.4,1.6-1.7,3.7-1.3
		c1.5,0.3,2.7,0.3,2.7-0.1c0-3.4-15.9-63.5-23.5-88.5c-14.9-49.7-43.7-100.8-85-151C1923.4,1106.1,1915.6,1098.6,1917.1,1104.5z"/>
	<path class="st12" d="M2107.6,1367.4c-16.1-72.4-53.6-155.3-105.7-234.3c-43.3-65.4-103.6-138.5-152.5-184.9
		c-40.8-38.6-86.8-71.9-127.4-92.1c-18.7-9.4-25.6-11.5-72.5-23.7c-61.7-15.8-86.8-21.1-125.1-26.1c-37.1-4.8-82.1-6.7-112-4.6
		c-28.3,2-54.8,6.9-65.4,12.2c-15.8,7.9-26.1,21.5-39.9,52.6c-10.6,24.2-12.4,27.3-21.9,37.1c-13,13.4-32.6,27.6-61.8,44.8
		c-30.7,17.9-55.2,26.9-87.3,32c-6.8,1.1-14.2,1.6-21.9,1.5v67.7c2.9,0,5.7-0.2,8.7-0.4c28.4-2.8,72.4-13,95-21.9
		c17.5-6.8,37.5-21.3,57.8-41.5c19.9-19.9,29.4-32.9,43.6-59.1c13.9-25.8,23.1-38.6,40-55.3c16.4-16.4,31.2-26,50.2-32.7
		c16.7-5.9,37.2-7.9,73.2-7.1c62.2,1.4,120.6,12.2,168.3,31.2c50.1,20,99.3,50.7,139.9,87.5c15.3,13.8,62.6,61.4,73.7,74.1
		c18.9,21.5,33,41.5,42.9,60.3c4.3,8.2,7.3,12.1,16.7,22.8c43.2,48.3,75.4,98.5,94,146.3c7.5,19.2,18.5,57.2,28.3,97.4
		c3.5,14.4,5.5,20.5,8.2,25.8c10.1,19.5,21.2,67.2,31.3,133.9c3,19.3,8.4,61.6,10.1,79.2c1.4,13,1.6,64.7,0.5,82.5
		c-0.6,10-0.6,12,0.5,12c2.3,0,7.5-20,9.6-36.9c1.4-10.9,6.9-73.3,8.6-95.8C2120.7,1475,2118.3,1415.4,2107.6,1367.4z"/>
	<path class="st13" d="M2107.6,1367.4c-16.1-72.4-53.6-155.3-105.7-234.3c-43.3-65.4-103.6-138.5-152.5-184.9
		c-40.8-38.6-86.8-71.9-127.4-92.1c-18.7-9.4-25.6-11.5-72.5-23.7c-61.7-15.8-86.8-21.1-125.1-26.1c-37.1-4.8-82.1-6.7-112-4.6
		c-28.3,2-54.8,6.9-65.4,12.2c-15.8,7.9-26.1,21.5-39.9,52.6c-10.6,24.2-12.4,27.3-21.9,37.1c-13,13.4-32.6,27.6-61.8,44.8
		c-30.7,17.9-55.2,26.9-87.3,32c-6.8,1.1-14.2,1.6-21.9,1.5v67.7c2.9,0,5.7-0.2,8.7-0.4c28.4-2.8,72.4-13,95-21.9
		c17.5-6.8,37.5-21.3,57.8-41.5c19.9-19.9,29.4-32.9,43.6-59.1c13.9-25.8,23.1-38.6,40-55.3c16.4-16.4,31.2-26,50.2-32.7
		c16.7-5.9,37.2-7.9,73.2-7.1c62.2,1.4,120.6,12.2,168.3,31.2c50.1,20,99.3,50.7,139.9,87.5c15.3,13.8,62.6,61.4,73.7,74.1
		c18.9,21.5,33,41.5,42.9,60.3c4.3,8.2,7.3,12.1,16.7,22.8c43.2,48.3,75.4,98.5,94,146.3c7.5,19.2,18.5,57.2,28.3,97.4
		c3.5,14.4,5.5,20.5,8.2,25.8c10.1,19.5,21.2,67.2,31.3,133.9c3,19.3,8.4,61.6,10.1,79.2c1.4,13,1.6,64.7,0.5,82.5
		c-0.6,10-0.6,12,0.5,12c2.3,0,7.5-20,9.6-36.9c1.4-10.9,6.9-73.3,8.6-95.8C2120.7,1475,2118.3,1415.4,2107.6,1367.4z"/>
	<path id="structure14_label10_Te" bar:growlevel="0" bar:type="" class="st14" d="M1366.4,2079.1c-6,1.9-11.9,6.4-14.9,11.3
		c-2.5,4.1-2.7,11.3-0.5,15.7c4.2,8.2,8.3,11.3,17.5,13.5c8.9,2.1,12.1,1.2,26.7-7.8c1.5-0.9,3.4-3.1,4.3-4.8
		c3.1-6,0.7-18.9-4.5-23.6C1389.1,2078,1375.7,2076,1366.4,2079.1z"/>
	<path id="structure158_label155_cg" bar:growlevel="0" bar:type="" class="st15" d="M1314.3,761.1c-10.5,3.3-19.6,12.7-27.1,27.7
		c-5.9,12.1-8.7,20.3-15.2,45.1c-12.7,48.4-25.3,78.2-44.3,104c-9.3,12.7-7.9,13,10.1,1.8c25.8-15.8,46.3-32.5,54.9-44.6
		c2.3-3.1,7.4-13.3,11.6-22.9c9.4-21.2,14.1-30.2,20.4-38.8c12.1-16.3,23.1-22.3,49.8-27.3c21.5-4,38.3-5.2,68-5.3
		c61.7,0,116.2,7.9,194,28.2c13.4,3.5,25.2,6.4,26.4,6.4c1.1,0,2-0.5,2-1.3c0-2.4-71.4-25-105.8-33.5
		c-39.2-9.6-209.2-39.2-232.1-40.4C1321,759.8,1317.6,760,1314.3,761.1z"/>
	<path class="st16" d="M1148.5,2099.6c-5.4-2-10.2-5.8-14.8-12.1c-4.9-6.7-8.6-8.3-19.4-8.4v117c6-0.1,9.2-1.9,11.9-6.5
		c3.5-6.1,4.3-12.2,5-38.9c0.6-23.7,0.8-25.5,2.7-29.4c2.3-4.7,11.3-13.5,16-15.8C1154,2103.4,1153.5,2101.4,1148.5,2099.6z"/>
	<path class="st17" d="M2107.6,1367.4c-16.1-72.4-53.6-155.3-105.7-234.3c-43.3-65.4-103.6-138.5-152.5-184.9
		c-40.8-38.6-86.8-71.9-127.4-92.1c-18.7-9.4-25.6-11.5-72.5-23.7c-61.7-15.8-86.8-21.1-125.1-26.1c-37.1-4.8-82.1-6.7-112-4.6
		c-28.3,2-54.8,6.9-65.4,12.2c-15.8,7.9-26.1,21.5-39.9,52.6c-10.6,24.2-12.4,27.3-21.9,37.1c-13,13.4-32.6,27.6-61.8,44.8
		c-30.7,17.9-55.2,26.9-87.3,32c-6.8,1.1-14.2,1.6-21.9,1.5v67.7c2.9,0,5.7-0.2,8.7-0.4c28.4-2.8,72.4-13,95-21.9
		c17.5-6.8,37.5-21.3,57.8-41.5c19.9-19.9,29.4-32.9,43.6-59.1c13.9-25.8,23.1-38.6,40-55.3c16.4-16.4,31.2-26,50.2-32.7
		c16.7-5.9,37.2-7.9,73.2-7.1c62.2,1.4,120.6,12.2,168.3,31.2c50.1,20,99.3,50.7,139.9,87.5c15.3,13.8,62.6,61.4,73.7,74.1
		c18.9,21.5,33,41.5,42.9,60.3c4.3,8.2,7.3,12.1,16.7,22.8c43.2,48.3,75.4,98.5,94,146.3c7.5,19.2,18.5,57.2,28.3,97.4
		c3.5,14.4,5.5,20.5,8.2,25.8c10.1,19.5,21.2,67.2,31.3,133.9c3,19.3,8.4,61.6,10.1,79.2c1.4,13,1.6,64.7,0.5,82.5
		c-0.6,10-0.6,12,0.5,12c2.3,0,7.5-20,9.6-36.9c1.4-10.9,6.9-73.3,8.6-95.8C2120.7,1475,2118.3,1415.4,2107.6,1367.4z"/>
	<path id="structure16_label12_ArcLP" bar:growlevel="0" bar:type="" class="st18" d="M1192.8,2148.6c-5.6,21.5-16.9,43.1-31.5,60.1
		c-2.8,3.2-5,6.4-5,7.1c0,1.4,0.5,1.4,23.9-1.7c7.9-1,21.9-2.3,31.1-2.7c17.9-1,30.2-2.5,47.2-5.9c15.3-3.1,17.6-3.8,17.6-5.4
		c0-5-10.4-12.1-38.2-25.6c-21.6-10.6-27.7-14.2-36.8-22C1194.9,2147.4,1193.4,2146.6,1192.8,2148.6z"/>
	<path class="st19" d="M1313.7,1349.3c-2.1,4.9-9.8,16.2-15,21.7c-16.9,17.8-41.5,28.2-62.3,26.4c-8.1-0.7-20.8-4.9-28.7-9.3
		c-3.2-1.7-10.4-6.8-16.2-11.1c-18.5-14-42.1-27.4-50.1-28.5l-3.7-0.4l-0.4,4.5c-1,9.9-7,15.8-18.4,17.5c-1.6,0.2-3.1,0.3-4.7,0.4
		v20.9c1-0.7,4-3.5,7.5-6.9c8.5-8.3,18.9-14,28.3-15.7c5.2-0.9,6.6-0.8,12.2,0.9c6.8,2.1,13.7,6.2,21.5,13.1
		c5.4,4.6,13.1,15.8,29.4,42.5c14.1,23.1,23.8,31.9,38,34.7c6.4,1.3,14.8,0.1,21.1-3c8.2-4,20.1-18,27-31.8
		c5.7-11.2,12.3-36.4,16.5-61.8c1-6.3,1.8-12.7,1.8-14.2C1317.4,1345.6,1315.2,1345.7,1313.7,1349.3z"/>
	<path class="st20" d="M1931.8,1171.4c-0.9-26-7.6-50.9-21.2-79.2c-11.6-24.1-25.7-44.4-47.6-68.8c-16.1-18-70.2-71.4-83.8-82.7
		c-29.1-24.2-56.5-42.5-88.7-59.1c-44.1-22.7-86.1-35.9-138.6-43.5c-43.3-6.3-96.9-7.7-124.5-3.2c-26.3,4.2-50.3,17.7-71.6,40.1
		c-13.7,14.3-23.2,28.1-36.1,51.7c-13.5,24.9-25.3,41.2-42.1,58.3c-15.8,16-35.6,31-51.3,39c-3.8,2-8.2,5.2-11.7,8.7
		c-8.4,8.5-21,14.3-40.7,19.2c-9.7,2.3-16.6,2.7-19.6,1.2c-1.1-0.5-3.2-2.3-4.9-3.7l-2.8-2.7l-9.4,1.5c-8.3,1.3-15.7,2-23,2v24.4
		c3.2,0,6.5,0,9.7-0.1c42.2-1,73.5-5.9,90.5-14c18-8.6,44.5-33.2,70.1-65c13.1-16.4,21.5-28.3,41.6-59.3c9.7-15.1,20.5-31.3,24-36
		c20.3-27.5,56.9-52.4,85.7-58.1c14.8-3,55.5-2.4,84.6,1.1c24.3,3,35.9,5.6,79.1,18c44.8,13,83.6,26.5,102.4,36
		c31.5,15.8,108.6,81.2,142.2,120.5c29.5,34.6,62.5,88.2,72.2,117.4c5.1,15.4,6.2,23.4,5.7,39.6c-1.7,44.3-17.1,80.5-38.9,91.6
		c-6.7,3.3-12.6,4.7-21.3,4.7c-24.8,0-49.4-8.5-70.2-24c-5.1-3.9-17.7-15.3-28.2-25.5c-25.6-25.1-34.9-32.6-53.6-42.6
		c-22.4-12.1-67.3-27.4-84.9-29.2c-4.6-0.4-5.9-0.2-7.2,1c-1.7,1.8-2,5.3-0.6,9.3c1,2.6,1.2,2.7,8.2,3.3c30.2,2.5,75.5,15.8,92.4,27
		c11.4,7.6,31,25.8,44.1,41c11.5,13.5,25.5,40.7,36.4,71.1c7.1,19.6,10.8,36.9,15.4,71.1c8.3,61.4,10.4,76.3,12.2,83.3
		c5.4,21.1,17.8,43.7,30.4,55.4c4.9,4.5,15,11.5,16.8,11.5c1.4,0,15.8-13.2,22.1-20.3c6.7-7.6,11.4-15.7,12.7-21.8
		c1.2-5.7,0.7-10.8-2.4-30.5c-4.8-30.3-4.8-50,0-84.1c3.5-24.6,4.9-35.5,7.3-60.6c2.7-27.3,4-36.9,7.7-54.5
		C1932.1,1196.6,1932.5,1193.4,1931.8,1171.4z"/>
	<path id="structure175_label175_A11" bar:growlevel="0" bar:type="" class="st21" d="M1133.5,1705.6c-5.8,5-7.4,18.8-5.1,43.7
		c1.5,15.9,4.7,23.7,10.3,25.1c3.1,0.8,9-0.7,12.5-3.2c2.8-1.9,3.2-3,5.5-12c2.9-11.5,3.9-26.8,2.3-35.2c-1.3-7.6-5.2-14.7-9.8-18.2
		c-3.2-2.4-4.8-3-8.3-3C1137.4,1702.9,1136,1703.3,1133.5,1705.6z"/>
	<path id="structure177_label178_GrDG" bar:growlevel="0" bar:type="" class="st22" d="M1481.8,999.1c-5.8,1-10.8,4.4-13.6,9.2
		c-3.9,6.7-10.8,23-21.7,51.2c-5.8,15-12,30.2-13.6,33.7c-8.6,18-42.6,61.8-66.1,85.1c-17.5,17.3-21.6,22.9-21.6,29.2
		c0,3.9,1.6,5.6,6.6,6.9c5.3,1.4,15.9-0.2,23.6-3.6c10.1-4.6,16.9-10.3,39.1-32.4c26.7-26.8,35.8-34.3,50.3-41.5
		c15-7.5,33.6-11.7,51-11.7c18.4,0,32.1,3.1,73.4,16.6c14.2,4.7,26.3,8.6,26.9,8.6c1.5,0,1.2-6.1-0.5-9.2c-1.8-3.1-3-3.6-29.1-14.4
		c-20.3-8.4-32.6-11.8-50.6-13.9c-15.3-1.8-41.5-1.3-51.5,1c-12.6,2.8-28.1,11.1-47.7,25.5c-5.9,4.3-11.3,8.4-12.2,9
		c-0.9,0.6,4.6-8.2,12.2-19.6c21.7-32.6,36.5-57.5,36.5-61.7c0-2.6,7.7-24.8,10.4-30.2c6.8-12.9,12.7-15.5,30.5-13.5
		c14.2,1.5,29.4,4.9,50.2,10.9c27.5,8,44.1,12,77.8,18.9c5.1,1,12.1,2.9,15.8,4.1c8.7,3.1,24.6,11.1,32.2,16.1
		c8.7,5.8,13.5,5.2,10.8-1.4c-3.3-8-25.1-21-47.3-28.3c-4-1.3-12.2-3.3-18.4-4.7c-34.5-7.1-70.9-17.4-100.8-28.5
		C1506.1,1000.1,1492.7,997.2,1481.8,999.1z"/>
	<path id="structure178_label179_IMA" bar:growlevel="0" bar:type="" class="st23" d="M1621.6,1178.2c0,2.8,8.7,29.8,13.9,43.1
		c8.5,22,12.8,29.3,35.4,61.5c6.4,9,16.8,23.9,23.2,33.1c15.8,22.8,22,30.5,27.6,34.9c5.5,4.2,7.9,4.8,7.9,1.8
		c0-4-5.9-12.4-22.4-32.2c-33-39.5-49.6-64.3-62.3-92.9c-4.9-10.8-11.6-29.9-13.9-38.9c-3.3-13.2-2.8-12.2-6.2-12.2
		C1622.2,1176.4,1621.6,1176.7,1621.6,1178.2z"/>
	<path id="structure179_label181_SLu" bar:growlevel="0" bar:type="" class="st24" d="M1654.9,1105.6c0,2,27.4,24.3,55.8,45.5
		c29.4,22,66.2,45.7,86.2,55.7c18.4,9.2,30,12,40.2,9.5c16.8-3.9,29.9-16.7,34.2-33.3c4.8-18.6-3.5-51-17.1-66.9
		c-5.6-6.5-7.3-4.7-4.1,4.3c4.9,13.9,9.1,35.8,9.1,47.4c0,16.4-5.9,27.5-17.6,32.8c-3.9,1.7-5.9,2.1-14.8,2.1
		c-10,0-10.6-0.2-17.8-3.3c-9.1-4.1-23.8-12.2-39.8-21.9c-17.3-10.4-18.2-11.1-67.2-43.8c-24.4-16.2-44.9-29.5-45.7-29.5
		C1655.5,1104.4,1654.9,1104.9,1654.9,1105.6z"/>
	<path class="st25" d="M1213.3,1665.2c-0.6-5.7,2.5-12.8,8.2-18.5c2.3-2.3,4.1-4.5,4.1-4.9c0-0.5-1.6-0.9-3.5-0.9
		c-4.1,0-10.7-2.1-21.7-6.6c-11.1-4.7-33.5-8.6-66.5-11.9c-7.7-0.8-13.8-1.2-19.7-1.2v63.6c4.3,0,8.7-0.4,16.7-1.1
		c34.9-3.3,51.7-2.7,81.6,3.1c13.1,2.5,13.1,2.4,8.3-4C1217,1677.8,1213.9,1670.6,1213.3,1665.2z"/>
	<path id="structure180_label182_IGL" bar:growlevel="0" bar:type="" class="st26" d="M1753,1337.9c-7.6,2.2-14,5.6-17.5,9.4
		c-2.7,3-3.2,4.3-3.2,7.5c0,2.1,0.6,4.5,1.3,5.3c1.4,2,4.1,2.1,4.1,0.3c0-0.8,0.8-3,1.8-4.9c4-8,16.7-11.3,33.3-8.6
		c5.2,0.8,10.5,1.7,12,2c2.4,0.5,2.4,0.5,2.4-4.3v-4.9l-4.7-1.1C1775,1336.6,1758.8,1336.3,1753,1337.9z"/>
	<path id="structure181_label183_IG" bar:growlevel="0" bar:type="" class="st27" d="M1138.7,973.4c-0.5,0.2-2,0.5-3.4,0.8
		c-2.9,0.7-6,3.5-6,5.6c0,1.6,2.3,1.4,16-1.2c7.6-1.4,9.2-2.9,5.7-4.8C1149.4,973.1,1140.9,972.7,1138.7,973.4z"/>
	<path id="structure183_label185_FC" bar:growlevel="0" bar:type="" class="st28" d="M1132,1075.7c0,0.5,1.1,2.3,2.3,4.1
		c5.4,7,6.2,16.1,2.6,28.6c-2.5,8.7-2.8,12.2-1.1,12.2c2.6,0,6.9-6.5,10.3-15.1c2.7-7.1,3.1-16,1-21c-0.8-1.7-2.7-4.7-4.3-6.5
		c-2.5-2.9-3.4-3.3-6.8-3.3C1133.7,1074.7,1132,1075.1,1132,1075.7z"/>
	<path id="structure184_text3307_Py" bar:growlevel="0" bar:type="" class="st29" d="M1458.7,864.2c-29,2.8-57.6,17.7-75.9,39.3
		c-17.1,20.3-35.6,47.6-53.3,78.9c-13,23-36,55.5-55.3,78.3c-14.8,17.4-18.1,25.8-26.2,66.2c-5.7,28.3-9.4,36.5-17.9,40
		c-6.3,2.5-10.3-1.5-17.7-18.1c-8.4-18.6-15.3-29.5-24.8-39.1c-9.1-9.2-12.8-10.9-24.8-11.3c-9.9-0.4-14.5,0.5-14.5,2.9
		c0,0.9,1.7,1.6,5.2,2.3c13.5,2.6,16.1,3.6,22.6,8.9c8.5,6.9,16.9,20.1,23.5,36.6c8.6,21.3,17.1,31.4,29,33.8
		c13.3,2.7,22.4-3.6,27.2-18.8c2.5-8.1,3.6-14.5,5.4-33.5c2.6-25.5,6.8-35.2,27.6-64.3c21.6-30.2,42.3-61.6,78.2-118.6
		c14-22.2,20.8-31.4,30.6-41.1c13.9-13.9,30.2-22.8,50.4-27.2c13.6-2.9,39.7-2.9,55.4,0c25.6,4.9,43.7,10.3,72,22
		c34.9,14.4,43.6,17.3,68,22.9c26.4,5.9,59.1,16,69.4,21.2c12.2,6.1,50.8,37.3,70.1,56.6c13.3,13.2,20.7,23.2,25.7,34.9
		c1.6,3.8,3.4,7,4,7.2c0.5,0.2,2.8-1.2,5-3c4.9-3.9,5.1-6.1,1.6-12.1c-7.2-12.4-24-31.9-46.4-53.7c-33.9-33.1-56.2-45.7-101.8-58
		c-24.6-6.6-34.4-9.6-80.1-25c-53.7-18.2-74.2-24-93.8-26.6C1484,863.7,1468.2,863.2,1458.7,864.2z"/>
	<path id="structure185_text3309_Py" bar:growlevel="0" bar:type="" class="st29" d="M1816.5,1042.2l-4.4,4.4l2,10.7
		c2.3,12.3,4.7,17.2,13,27.8c7.6,9.5,23.9,27.4,25,27.4c1.6,0,15.9-10.3,16-11.5c0.1-5.4-41.9-63.2-45.8-63.2
		C1821.6,1037.8,1818.9,1039.8,1816.5,1042.2z"/>
	<path id="structure186_label186_Py" bar:growlevel="0" bar:type="" class="st29" d="M1525.7,1055.5c-13,2.8-21.1,8.7-21.1,15.6
		c0,5.8,2.1,6.6,19.2,7.4c17.2,0.8,25.3,2.7,45.6,10.9c40.3,16.1,94.8,47,171,96.9c12.6,8.3,27.5,17.6,32.9,20.8
		c15.4,8.8,36.2,18.4,49.8,23.1c11.8,4,12.8,4.1,22.7,4.2c9.4,0,10.7-0.2,14.8-2.3c10.2-5.4,20-17.6,27-33.7l3.6-8.1l-0.1-13.5
		c-0.1-12.5-0.3-14.4-3.2-25.6c-4.8-18-16.8-48.6-19.1-48.6c-1.4,0-15.8,10.1-15.8,11.1c0,0.4,1,2,2.3,3.5
		c6.2,7.4,13.6,23.9,16.2,36.3c2.3,10.3,2.1,24.5-0.4,32c-4.6,14.5-15.7,25.4-30.7,30.5c-16.5,5.6-38.5-3.2-88.2-35.6
		c-28.9-18.7-73.2-52.5-99.9-76.1c-13.3-11.7-23.3-18.4-40.1-26.6c-29.8-14.6-59.7-24-75.1-23.8
		C1534.3,1054.1,1529.3,1054.7,1525.7,1055.5z"/>
	<path id="structure188_label188_VTM" bar:growlevel="0" bar:type="" class="st30" d="M1411.9,2106c-13.2,4.4-19.2,7.1-26.8,12.1
		c-8.3,5.3-11.5,8.9-20.9,22.7c-4.4,6.4-10.8,15.6-14.3,20.3c-6.6,8.9-7.5,10.8-4.8,10.8c3,0,80.3-65.6,80.3-68.1
		C1425.4,2101.8,1423.2,2102.2,1411.9,2106z"/>
	<path class="st31" d="M1138.4,2228.8c-5.3-2.2-15-3.6-24.2-3.8v23.5c7.6,0,15.2-0.9,21.4-2.9
		C1148.8,2241.5,1150.2,2233.8,1138.4,2228.8z"/>
	<path id="structure18_label14_VPPC" bar:growlevel="0" bar:type="" class="st32" d="M1254.4,1637.8c-25.7,2.3-26.6,2.7-33.6,10.1
		c-5.3,5.7-6.9,9.4-6.9,15.8c0,9.2,5.8,20,14.2,26.4c9.3,7,43.6,14.9,79.4,18.2c11.2,1.1,22.6,2.3,25.4,2.8
		c10.3,1.6,34.9,2.9,51.6,2.5l17.1-0.4l37.8-9.5c65.7-16.6,85-22.1,85-23.8c0-0.6-0.4-1.2-0.7-1.2c-1.7,0-30.4-4.9-50.6-8.6
		c-37.6-6.9-54.7-11.1-81-19.7c-20.3-6.6-25.6-7.5-51.8-9.1c-12.5-0.7-27.4-1.9-32.9-2.6C1298.2,1637.3,1264.3,1636.8,1254.4,1637.8
		z"/>
	<path id="structure190_label191_DTM" bar:growlevel="0" bar:type="" class="st33" d="M1153,2055.7c-5.3,1.1-8.6,3-12,6.8
		c-4,4.7-6.5,10.4-7,17.1c-0.4,4.7-0.1,6.1,1.5,8.8c2.6,4.1,9.8,9.4,15.1,11c5,1.5,20,1.6,25,0.3c5-1.4,10.8-7.4,12.1-12.5
		c1.5-5.8,0.8-15.8-1.4-20.3c-2.1-4-8.6-8.9-13.7-10.3C1167.8,2055.2,1157.4,2054.8,1153,2055.7z"/>
	<path id="structure191_label194_eml" bar:growlevel="0" bar:type="" class="st34" d="M1683.7,1368.9c0,0.9,3.1,6.3,6.8,11.9
		c22.4,33.8,30.6,66.1,28.3,110.9c-1.5,30.7-3.9,44.5-10.3,61c-4.8,12.4-9.6,21.2-22.4,40.3c-16.5,24.8-29.2,37.6-48.8,49.4
		c-9.3,5.5-15.9,12.8-11.8,12.8c2.1,0,35.6-16,44.3-21.2c25.1-14.8,46.7-39.1,58.5-66.1c13.1-29.8,19.5-69.4,16.7-103.1
		c-2.5-30.2-10.1-66.5-16.4-78.9c-5.3-10.4-22.5-18.7-38.8-18.7C1684.4,1367.2,1683.7,1367.3,1683.7,1368.9z"/>
	<path id="structure199_label201_sox" bar:growlevel="0" bar:type="" class="st35" d="M1796.5,1646.6c-0.7,2.3-0.7,4.9,0,9.5
		c1.7,10.9,0.4,15.5-10.9,38.2c-8.1,16.2-11.5,22.1-19,31.9c-8.2,11-16.9,25.2-69.1,111.6c-30.2,50.1-52,86.9-52.3,88.4
		c-0.2,0.9,0.2,1.6,0.8,1.6c2.4,0,35.3-19.4,37.4-22.1c3-3.9,13.6-22.7,21-37.3c8.6-16.8,23-47.8,39.4-85
		c7.6-17.4,15.1-33.6,16.5-36c1.4-2.5,6.3-9.2,10.9-14.8c8.8-11,13.2-19.3,23.7-43.7c6-14.2,7.2-20.9,6.4-35.3
		c-0.5-8.7-0.8-10.1-2.2-10.1C1798,1643.5,1797,1644.6,1796.5,1646.6z"/>
	<path id="structure19_label15_OPC" bar:growlevel="0" bar:type="" class="st36" d="M1352.5,1542.9c-15.8,6.5-36.7,28-46,47
		c-7.3,15.1-9.3,32.7-4.5,40.3c4.1,6.7,13.3,9.6,30.3,9.6c19.3,0,32.2-5.4,46.5-19.5c6.7-6.6,14.7-17.8,17.6-24.8
		c3.6-8.4,2.1-22.9-3.5-34c-3.5-6.9-11.6-15.5-17.3-18.3C1369.4,1540.1,1359.7,1540,1352.5,1542.9z"/>
	<path id="structure200_label202_Pir-1" bar:growlevel="0" bar:type="" class="st37" d="M2308,1862.9l0.5,7.1l-23,57.5
		c-25.4,63.5-29.3,73.1-52.4,127.3c-22.8,53.2-20,48.3-42.3,76.1c-8,9.9-18.7,23.5-23.8,30.1c-18.4,24-29.3,35.3-42.3,43.7
		c-8.1,5.3-35.8,19.3-44.6,22.7c-9.8,3.7-18.9,5.7-26.5,5.7h-6.3l-0.6,4.1c-0.6,4.5,0.1,21.1,1.1,24.4c0.8,2.7,2.4,2.6,15.4-0.6
		c16.6-4.3,41.4-12.9,52.6-18.2c36.7-17.5,69.8-46.9,103.9-92.5c12.2-16.2,16.1-23.8,21.5-41c6.6-21.3,8.4-26.3,14.1-38.7
		c9.7-20.9,28.2-67.9,43.6-110.7c15.4-42.6,33.6-97.8,33.6-102c0-1.9-0.3-2-12.6-2h-12.5L2308,1862.9z"/>
	<path id="structure205_label208_scp" bar:growlevel="0" bar:type="" class="st38" d="M1332.2,1724.1c-17.5,3.2-38.5,12.1-49.8,21.1
		c-9.8,7.9-17.5,19.3-22,32.8c-1.8,5.5-2.1,8-2.1,19.4c0.1,17.5,1.3,20.9,11.7,31.1c12.4,12.3,27.1,18.3,45.2,18.4
		c17.5,0,52.1-11.5,74.4-24.9c17.9-10.7,40-30.7,55.8-50.2c8.1-10.2,27-37.7,28-41c0.4-1,0.4-2.1,0.1-2.3c-0.3-0.4-5.5,0.4-11.6,1.4
		c-17.7,3.2-31.6,4.5-47.4,4.6c-28,0-43.6-2.3-55.8-8.1c-6.4-3.1-8.1-3.6-13.3-3.5C1342.1,1722.8,1336.2,1723.4,1332.2,1724.1z"/>
	<path id="structure210_label216_MHb" bar:growlevel="0" bar:type="" class="st39" d="M1154.5,1259.5c-4.7,3.6-11.1,9.3-14.1,12.6
		c-7.9,8.5-8.8,11.7-8.8,32.5c0,15.4,0.2,16.7,3,27.2c1.5,6,2.9,12,2.9,13.2c0,1.6,0.5,2.3,1.6,2.3c2.7,0.1,15.7,5.8,24.8,11.1
		c4.9,2.8,9.4,5.1,10.2,5.1c3.9,0,12.3-6.2,14.7-10.8c2.7-5.2,2.3-9.8-2.3-23.6c-4.6-14-6.1-24.4-4.5-30.8
		c1.7-6.6,6.7-13.8,16.9-24.4c5.3-5.6,9.6-10.5,9.6-11c0-0.5-3.8-1.2-8.3-1.5c-10.4-0.8-22.1-3.2-29.5-6.3c-3.2-1.3-6.1-2.3-6.7-2.3
		C1163.5,1253,1159.2,1255.9,1154.5,1259.5z"/>
	<path id="structure211_label218_sm" bar:growlevel="0" bar:type="" class="st40" d="M1168.6,1224.3c-0.5,9.2-2.3,21.2-3.8,26.3
		c-0.5,1.5,0.3,2.2,4.6,3.9c12.7,5.1,17.5,5.8,51.7,6.5c35.3,0.8,35.9,0.9,51.8,7.4c16.9,6.8,20.9,7.9,28.8,7.9
		c8.5,0,11.3-1.4,11.3-5.3v-2.6l-7.8-0.4c-8.8-0.5-14.2-2.3-23.4-8.6c-9.5-6.5-10.6-6.8-21.4-6.9c-11.1-0.2-19.8-2.1-39.2-8.6
		c-19-6.4-30-12.4-43.3-23.8c-3.9-3.2-7.3-5.9-7.7-5.9C1169.5,1214.2,1168.9,1218.8,1168.6,1224.3z"/>
	<path id="structure216_label227_df" bar:growlevel="0" bar:type="" class="st41" d="M1206.2,1032c-7.8,2.8-37.4,10.3-49.2,12.6
		c-5,0.9-8.8,2.1-8.8,2.6c0,2,4.3,5.1,8.1,5.9c10.7,2.4,44.8-8.5,55.7-17.7c3.9-3.3,4.8-5.9,2.2-5.7
		C1213.3,1029.8,1209.8,1030.8,1206.2,1032z"/>
	<path class="st42" d="M1186.8,2139.6c-3-3.3-6.8-8.1-8.3-10.7c-3-4.9-5.5-6-6.5-3.1c-0.9,3.1-6.6,7.2-12,8.8
		c-3.7,1.1-8.3,1.5-16.1,1.6h-11.1v8.6c0,13.1-1.6,33.2-3.2,38.3c-1.9,6.6-4.8,10.4-9.7,12.9c-2,1-4,1.5-5.8,1.7v17.9
		c5,0.1,10.8,0.4,19.2,1l19.8,1.4l3.9-4.4c10.1-11.3,18.5-23.6,25-36.4c4.5-9.1,10.3-25.3,10.3-29.2
		C1192.3,2146.2,1190.7,2143.8,1186.8,2139.6z"/>
	<path id="structure21_label17_ZID" bar:growlevel="0" bar:type="" class="st43" d="M1724.1,1577c-4,9.6-21.1,31.3-32.7,41.4
		c-13.7,12-22.2,17-54.5,32.2c-16.4,7.6-19.3,9.4-26.1,15.2c-22.1,19.1-54.4,37.5-81.4,46.4c-13.1,4.3-42.2,12.3-48.8,13.5
		c-3.6,0.5-4,0.9-10.2,10.9c-14.5,23.1-31.2,44.3-46.8,59.1c-8.6,8.1-9,8.7-9,12.2c0,3.6,0.1,3.7,3.1,3.7c4.4,0,22.3-5.4,39.8-12
		c18.4-6.9,71.9-29.3,88.1-36.8c21.9-10.1,43.7-23.4,59.5-36.1c13.9-11.2,50.4-45.2,74.7-69.4c24.8-24.8,35.3-36.4,45.4-50
		c5.1-7,5.6-7.9,5.1-11.3c-0.3-2-1-7.7-1.6-12.9C1727.4,1573.5,1726.3,1571.9,1724.1,1577z"/>
	<polygon class="st16" points="1114.2,1792 1114.2,1888.3 1116.7,1888.3 1116.7,1840.1 1116.7,1792 	"/>
	<path id="structure222_Unlabeled-1250-1966_OlfCx-1" bar:growlevel="0" bar:type="" class="st44" d="M1562.5,2030.4
		c-2.8,3.3-3,4-3.9,15.4c-3.6,44.4,12.1,84.1,46.7,118.9c18.9,18.9,40.6,34.1,70.6,49.7l11.5,6h10.7c8.1,0,10.8-0.3,10.8-1.2
		c0-0.5-9.4-5.4-21-10.8c-27.4-12.7-37.4-18.3-45.8-25.6c-16.7-14.6-42.4-48.6-52-69c-8.7-18.3-14.9-39.8-15.9-54.8
		c-0.5-7.9-0.9-9.5-3.3-13.5c-2.3-3.8-2.9-5.5-3.1-11.5c-0.2-4.5-0.6-7-1.4-7C1565.8,2026.9,1564.1,2028.5,1562.5,2030.4z"/>
	<path class="st45" d="M1373.5,2120.2c-11.1-1.1-16.3-4-20.7-11.3c-1.6-2.7-3.1-6.7-3.5-8.8c-0.5-3.1-0.9-4-2.1-3.5
		c-0.8,0.3-3.2,0.9-5.5,1.5c-2.3,0.5-4.6,1.2-5.1,1.4c-0.8,0.2-1.2,2.2-1.2,5.6c0,11.5-5.8,26.6-13.9,35.9
		c-11.4,13-33.5,21.3-52.6,19.7c-24.3-2-40.3-13.8-53.5-39.1c-11.6-22.3-18.2-51.7-13.5-59.7c2.3-3.9,8.3-6.4,16.1-6.9
		c7.4-0.4,7.5-0.6,5.2-6.1c-3.4-8.2,0.8-30,8.3-42.4c3.2-5.1,3.6-6.6,2.3-6.6c-5.6,0-20.4-2.3-25.3-4c-21.7-7.4-47.3-38.4-60.3-73
		c-8.8-23.4-13.4-47.5-14.1-73.8c-0.4-15.6-0.2-19.4,1.3-28.8c2.3-12.8,5.9-24.8,11.4-36.4c5.1-10.7,5.1-11.3,0.3-10.3
		c-7.1,1.3-9.8,0.9-12.5-2.2c-3.3-3.7-5-10-6.2-22.2c-2.3-25-0.7-38.6,5.2-43.7c3.1-2.7,3.4-2.8,9.4-2.3c5.9,0.5,6.1,0.4,6.1-1.5
		c0-4.5,7.6-13.4,14.1-16.6c1.6-0.8,3-2,3-2.7c0-1.5-6.9-1.3-35.3,1.4c-7.9,0.7-12.3,1.1-16.7,1.1V1792h2.5v48.2v48.2h-2.5v190.8
		c7.3,0,14.6,1.5,16.4,4.4c1.6,2.5,3,0.8,3.5-4.3c0.9-10.1,7-19.3,14.8-22.3c5-1.9,17.4-2.2,23.3-0.4c5.6,1.6,12.1,6.4,14.1,10.5
		c2.3,4.4,3,14.5,1.4,20.3c-1.3,5.1-7.2,11.2-12.2,12.5c-2,0.5-7.9,1-13.2,1c-8.8,0-9.7,0.2-9.7,1.6c0,1-1.3,2.3-3,3.1
		c-4.7,2.3-13.8,11.1-15.8,15.5c-1,2.1-2.2,6.3-2.5,9.3l-0.5,5.5l7.7,0.6c8.3,0.7,14.7,0.2,22-1.9c5-1.3,10.6-5.5,11.5-8.5
		c1-3,3.5-1.8,6.5,3.1c1.5,2.6,5.3,7.4,8.3,10.7c3.1,3.2,5.5,6.4,5.5,6.9c0,0.5,0.6,1,1.4,1c0.8,0,4.1,2.3,7.4,5
		c9.1,7.7,15.2,11.3,36.8,22c28.6,13.9,38.2,20.4,38.2,26c0,1.1,0.4,1.9,0.9,1.9c2.2,0,25.6-6.8,33.3-9.6
		c10.9-4.1,17.5-7.4,26.8-13.4c6.9-4.5,7.5-5.1,7-7.4c-0.4-2,0.5-3.9,5.8-11c3.5-4.7,9.9-13.9,14.3-20.3c4.4-6.5,9.4-13.2,11.2-15
		c1.8-1.8,3.2-3.7,3.2-4.1C1378.6,2121.1,1376.3,2120.5,1373.5,2120.2z"/>
	<path id="structure225_Unlabeled-2903-1751_Unlabeled" bar:growlevel="0" bar:type="" class="st45" d="M2104.1,1796.1
		c-2.8,3.5-3.4,7.4-4,22c-0.4,8.3-1.3,17.7-2.9,25.6c-2.7,14.4-9.3,41-10.4,42.3c-0.4,0.4-0.8,1.7-0.8,2.7c0,1.1-2,7.7-4.4,14.9
		c-11.6,34.6-22.1,54.2-38,71.5c-9.8,10.5-11.6,14-11.6,21.8c0.1,8.8,2.5,14.8,16.5,39.6c6.8,12.1,12.3,22.6,12.3,23.4
		c0,1.9,1.7,3.8,3.3,3.8c1.7,0,3.9-4.9,3.9-8.8c0-4.2-2.2-11.8-5-17.5c-1.2-2.3-2.2-5.3-2.2-6.7c0-1.4-0.8-3.1-2.2-4
		c-2.1-1.6-11.3-16.8-13.1-21.8c-1.3-3.6-1.3-11.9,0.3-15.3c0.6-1.6,4.8-7.1,9-12.3c9.4-11.3,20.3-27.2,26-37.8
		c6.8-12.7,15.3-36.2,25.5-71c4.1-13.7,4.1-14.5,4.6-29.3c0.4-9.4,0.9-15.6,1.4-15.9c0.7-0.5,0.4-4.3-1-13.1c-1.1-6.8-2-13.3-2-14.5
		C2109.4,1793,2106.4,1793.1,2104.1,1796.1z"/>
	<path id="structure22_label18_ZIV" bar:growlevel="0" bar:type="" class="st46" d="M1725.1,1607.7c-14.1,19.5-48.2,54.4-92.1,94.6
		c-21.9,20-30,26.8-40.8,34.3c-20.3,14.3-40.8,24.7-84.1,42.8c-50.2,21.1-69.8,28.3-85.8,32l-7.1,1.6l0.5,2.7c2,9.6,15.1,18,37,23.5
		c20.6,5.2,42.7,3.2,66.4-6c9.7-3.8,34.2-16.3,52.9-27.1c30.6-17.5,51.9-33.2,65.3-48.1c13.4-14.9,34.7-35.5,46.5-44.9
		c6.1-4.9,16.4-12.2,22.7-16.1c6.4-4.1,12.6-8.6,14-10.4c1.3-1.8,5.7-8.3,9.4-14.4c8-13.1,14.8-21.6,21-26.5c2.5-2,4.5-4,4.5-4.5
		c0.1-0.5-2-2-4.4-3.3c-7.2-4-13.4-14.1-17.6-28.5c-1.2-4-2.5-6.9-3.2-7C1729.7,1602.2,1727.3,1604.6,1725.1,1607.7z"/>
	<path id="structure23_label19_STh" bar:growlevel="0" bar:type="" class="st47" d="M1613.9,1794c-10.9,8-30.8,22.2-44.1,31.6
		c-27.4,19.3-37.8,27.1-52.4,39.7c-27.6,23.8-55.6,56.1-69.5,80.2c-14.9,26.1-16.4,54.2-4.1,78.7c2.3,4.5,4.5,7.7,5.4,7.9
		c1.4,0.3,1.5-0.3,1-5.8c-0.7-7.2,0.9-15.1,4.5-21.8c3.4-6.2,21.9-31.7,30.3-41.9c9.8-11.8,24.1-28.1,45.3-51.3
		c24.2-26.6,36.5-40.7,52.1-59.8c24.2-29.5,54.5-69.1,54.5-71.1C1636.9,1777.8,1632.2,1780.6,1613.9,1794z"/>
	<path id="structure24_label20_PSTh" bar:growlevel="0" bar:type="" class="st48" d="M1435.5,1950.5c-5.8,1.1-12.4,4.4-22.7,11.2
		c-20.3,13.4-33.5,25.4-38.3,34.8c-3.3,6.4-3.6,14.9-0.6,19.7c2.8,4.4,7.7,7.7,14.2,9.4c14.8,3.8,30.7-0.9,42.4-12.8l5.6-5.6
		l-0.4-13.3c-0.5-14.9,0.8-22.9,6-36c1.5-3.7,2.7-7.1,2.7-7.6C1444.3,1949.3,1440.9,1949.4,1435.5,1950.5z"/>
	<path class="st49" d="M1210.8,1605.7l-9.4-30.2l-5.9-3.1c-7.8-4.1-15.5-9.8-22.6-16.7c-7-6.9-13.2-19-17.6-34.5
		c-1.8-6.2-3.8-11.3-5.1-12.9c-4.4-5.1-4.7-5.2-36-5.2v117.8c14.4,0.1,28.9,1.6,49.8,4.7c19.2,2.8,28.8,5.1,39.2,9.5
		c5.3,2.2,11.3,4.1,13.3,4.5c3.4,0.5,3.7,0.4,3.7-1.5C1220.2,1636.8,1216,1622.2,1210.8,1605.7z"/>
	<path id="structure28_label24_PLH" bar:growlevel="0" bar:type="" class="st50" d="M1699,1701.9c-15.4,10.1-38.7,31.4-60.6,55.2
		c-11.3,12.2-22.4,21.5-40.4,33.4c-26.5,17.6-68.5,39.9-86.7,45.9c-24.1,7.9-46.1,8.1-67.8,0.5c-20.1-7-26.6-12.8-29.2-25.5
		c-0.5-2.7-1.3-4.9-1.7-4.9c-0.5,0-3.7,2.3-7.2,4.9c-7,5.4-19.3,13.2-26.7,17c-16.6,8.4-47.1,18.1-59.9,19.1
		c-17,1.4-37.2-6.5-50.1-19.4c-11.4-11.4-14.5-30.5-8.1-50.5c10-30.9,38.8-50,83.2-55.3c2.4-0.3,4.2-0.9,4.2-1.5
		c-0.1-0.9-5.6-5.6-9.5-8c-1.3-0.8-18.7-3-35.5-4.3c-6.7-0.6-15.6-1.6-19.8-2.3l-7.7-1.2l-6.8,3.6c-7.9,4.3-17.9,11.3-28.2,20
		c-8.3,6.9-17,12.3-24.5,15.2c-5.8,2.2-6.5,4.3-2.2,6.1c3.2,1.4,9.7,7.7,13.5,13.2c4.3,6.2,10.5,20.1,12.6,27.8
		c3.7,14.2,1.9,35.6-4.6,54.9c-1.4,4.4-2.7,8.7-2.7,9.5c0,2,3,2.2,4.4,0.4c3.2-3.8,18.2-5.5,24-2.7c9.5,4.6,18.4,24.8,17,39.1
		c-0.3,3.2-2,9.9-3.7,14.8c-4.5,12.7-5.8,20.3-5.8,34c0,10.6,2,30.8,3.1,31.9c0.3,0.3,2.4,0.1,4.8-0.4c7.6-1.7,14.9-2.1,23.7-1.1
		c17.8,1.8,32.2,7.4,41.5,15.9c9.9,9.2,27.8,34.6,35.7,50.7c3.7,7.4,4.2,9.3,4.2,14.1c0,5-0.6,6.7-4.8,14.9c-2.5,5.1-4.7,9.6-4.7,10
		c0,0.4,2.2,0.6,4.8,0.6c10.2,0,18,4.1,21.7,11.5c2.9,5.8,3.5,10.1,2.3,15c-0.5,2.3-0.8,4.4-0.5,4.7c0.3,0.4,5.9-1.1,12.5-3.2
		c6.5-2.1,13.1-4.1,14.8-4.4c1.5-0.4,7.8-4.8,13.9-9.8c6.1-4.9,14.2-11.3,18-14.1c7.7-5.7,11.4-10.4,12.1-15.8
		c0.5-3.4,0.4-3.6-3.5-5.4c-4.6-2.3-9.4-7-13-12.9c-1.4-2.3-4.6-7.2-7.1-11c-4.5-6.7-10.3-18.8-10.3-21.8c0-3.2-2.8-2.4-6.3,1.6
		c-8.2,9.3-20.7,14.9-32.9,15c-21.7,0-32.6-12.9-24.8-29.3c5-10.4,14.9-19.9,35.1-33.6c14.5-9.9,22.8-13.8,30.4-14.4
		c5.1-0.4,6-0.7,7.3-2.8c14.7-24.5,38.3-52.7,62.4-74.3c20.2-18.2,21.1-18.9,85.5-64.6c11.2-7.9,26.7-19.3,34.7-25.2
		c13-9.7,15.1-11.8,22-20.5c12.2-15.9,23.1-28.2,40.9-45.8c9.2-9.1,16.7-17.1,16.7-17.7C1708.9,1696.4,1705.7,1697.5,1699,1701.9z
		 M1425.9,1867.5c21.4,4.7,35,11.9,36.9,19.5c0.9,3.4-2.1,9.8-6.7,14.6c-2.5,2.6-9.6,7.5-17.7,12.3c-14.9,8.8-27.6,17.3-41.9,27.9
		c-23,17.1-46.5,31.1-52.6,31.1c-7.5,0-14.1-6.5-17.1-16.6c-1.7-5.7-1.7-19,0-27c4.5-21.1,25.4-45.7,49.5-58.3c4-2.1,8.8-4.2,10.8-5
		C1392.5,1864.3,1415.4,1865.1,1425.9,1867.5z"/>
	<path id="structure31_label27_LV" bar:growlevel="0" bar:type="" class="st51" d="M1929.7,1141.9c0.3,1.9,1.2,7.3,2.1,12
		c2.2,11.5,2.2,33.8,0,47.7c-0.8,5.7-4,21.7-6.9,35.6c-6.3,29.2-8.2,40.9-10.7,67.8c-2.3,25-3.9,37.4-7.4,61.4
		c-2.7,18-2.9,21-2.9,43.7c0,23.2,0.1,25.1,3,42.8c3.8,23.3,3.6,28.4-1.1,37.3c-4.3,8.2-13.9,19.3-24,28l-8.1,7v6.5
		c0,21.7-9.1,63.6-22.4,103.9c-20.4,61.4-46.1,110.8-106.2,205.2c-17.9,28-19.8,30.6-30.6,41.8c-14.3,14.7-29.6,25.7-56,40.1
		c-12.9,7-14.6,8.3-23.3,17.1c-5.2,5.2-12.3,13.3-15.8,18c-8.5,11.3-19.3,27.3-19.3,28.5c0,0.5,2.3,1.3,5.2,2
		c7.3,1.4,14.3,5,27.6,14c6.5,4.3,13,8.5,14.6,9.1c8,3.4,28.6,3.3,51.1-0.1c4.5-0.6,19.8-1.4,34.7-1.8c55.6-1.2,77.9-3.9,105.3-12.6
		c34.8-11.3,75-33.2,95.4-52.4c12.3-11.5,18.5-21,27.4-41.7c6.6-15.3,13.9-28.3,25.2-45c26.3-38.6,35.9-54.1,57.2-92.6
		c22.4-40.6,28.8-58.9,28.8-83.2c0-11.9-3.4-43-5.8-52.3c-4.7-18.1-15.5-42.2-32.9-73c-16.5-29.1-22.2-41.6-30.1-66.1
		c-8-24.9-17.6-68.1-19.5-87.8c-2.6-26.5,1.1-65.3,9.7-102.6c4.4-19.4,4.7-21.6,3.8-29.7c-2-16.3-18-55.1-34.1-82.5
		c-10-17-31.7-49.3-33.1-49.3C1929.5,1138.6,1929.3,1139.4,1929.7,1141.9z"/>
	<path id="structure32_label29_PMCo" bar:growlevel="0" bar:type="" class="st52" d="M1574.8,2058.3c0,19.4,12,52.8,27,75.3
		c15.7,23.4,36,47,46.8,54.4c5.6,3.8,23.2,12.8,47.3,24l16.2,7.6l8.2-0.4c6.6-0.3,9.1-0.8,13.1-2.8c16.5-8.1,27.9-34.9,28.1-65.9
		c0-14.5-1.8-20.9-7.6-26.6c-4.2-4.2-19.6-13.9-46.8-29.4c-29.6-17-37.9-20.3-56.5-21.9c-15.4-1.4-23.2-3.2-38.9-8.7
		c-17.4-6.1-34.9-12-36-12C1575.2,2052.1,1574.8,2054.9,1574.8,2058.3z"/>
	<path id="structure33_label30_AHiAL" bar:growlevel="0" bar:type="" class="st53" d="M1587.7,2001.8c-2.6,3.2-7.9,9.3-11.8,13.7
		c-6.8,7.7-7.2,8.3-7.7,13.3c-0.9,7.4,0.7,14.5,4.1,18.4c2.6,3,8.5,6.7,10.6,6.7c0.5,0,9.5,3.1,19.8,6.8c22.2,7.9,30.1,10,40.5,10.8
		c25.2,1.9,32.9,4.9,69.8,26.4c27.1,15.8,38.2,23,50.4,33c15.1,12.2,20.6,15,29.4,15c10.9,0,17.6-4,21.4-13c2.3-5.1,3.7-18.6,2-18.6
		c-1.9,0-12.4-10.7-14.8-15c-5.6-10.3-13.8-41.9-16.3-62.5l-1-8.9h-4.7c-6.4,0-18.6-2.3-31-5.6c-15.4-4.2-21.3-4-36.9,1.3
		c-16.6,5.7-21.8,6.5-38.6,5.9c-27.4-1.1-43.8-7-59.2-21.5c-7.6-7.1-12.2-10-18.3-11.1C1592.5,1996.3,1592.2,1996.5,1587.7,2001.8z"
		/>
	<path id="structure35_label32_BMP" bar:growlevel="0" bar:type="" class="st54" d="M1848.4,2010c-18.8,8.1-43.5,15.3-59.7,17.4
		l-4.4,0.5l0.6,4.7c2.1,16.6,8.1,44.5,11.9,55.1c5.5,15.4,12,23,24.9,29.3c14.6,6.9,63.1,22.4,82.8,26.3c13.1,2.5,30.7,2.7,39.2,0.4
		c7-1.9,14.9-5.8,20.7-10c7-5.1,6.8-4.2,3.2-18.6c-3.6-14.5-5.9-27.2-5.9-32.2c0-3.1-0.6-4-7.3-10.3c-13-12.2-27.9-21.1-51.6-30.6
		c-21.1-8.5-30.9-16.1-38.8-30.2c-2-3.5-4-6.3-4.5-6.3C1859.2,2005.5,1854.1,2007.4,1848.4,2010z"/>
	<path id="structure36_label33_BLP" bar:growlevel="0" bar:type="" class="st55" d="M1931.3,1957.9c-2.9,3.4-53.9,38-63.7,43.1
		c-3.6,1.9-6.6,3.8-6.6,4.2c0,2.3,8.3,14.4,13,19.3c6.6,6.8,13.7,10.8,31.6,18.1c21.4,8.6,35.6,17.2,48.1,28.9
		c3.8,3.6,7.4,6.6,7.9,6.6c0.5,0,5.8-2.3,11.6-5.3c14.4-7.2,26.4-11.5,36.8-13.3c7.6-1.3,10.5-1.3,21-0.5
		c24.8,2.1,29.7,2.3,29.7,0.7c0-0.7-5.6-11.2-12.3-23.2c-14.1-25.1-16.4-30.8-16.5-40v-6.5l-15-5.6c-19-7-81.2-27.9-83.2-27.9
		C1933,1956.7,1931.8,1957.2,1931.3,1957.9z"/>
	<path id="structure37_text3326_APir" bar:growlevel="0" bar:type="" class="st56" d="M2005.4,2060.6c-3,0.6-8.5,2.3-12.2,3.6
		c-9.7,3.4-30.6,13.8-31.2,15.4c-1.2,3.2,5.2,35.2,9.6,47.7c3.6,10.3,5.3,26.2,6.1,56.2l0.6,21.2l8.1,3.1
		c24.8,9.3,50.8,10.1,63.8,2.2c1.9-1.3,3.4-3.9,6.4-11.3c4.8-11.9,4.8-12.1,5.9-35.4c0.6-14.3,1.3-20.5,2.7-25.6
		c3.8-13.9,4.6-19.9,4.6-35.6c-0.1-15.3-1.7-30.3-3.8-34.9c-2-4.3-4.9-5.4-17-6.2C2025.5,2059.4,2011,2059.3,2005.4,2060.6z"/>
	<path id="structure38_text3328_APir" bar:growlevel="0" bar:type="" class="st56" d="M1978,2218.9v13l7,3.6
		c11.3,5.8,18.8,7.8,30.3,7.8c11.6,0,19.7-2.2,26.9-7c4.4-3,4.5-3.2,6.1-10.6c2.8-12.7,3-14.3,1.4-14.3c-0.7,0-3.7,0.8-6.7,1.9
		c-12.6,4.4-33.3,2.8-53.4-4.1c-4.9-1.7-9.6-3.2-10.4-3.2C1978.2,2206,1978,2207.9,1978,2218.9z"/>
	<path id="structure39_label34_APir" bar:growlevel="0" bar:type="" class="st56" d="M1977.3,2246.6c-0.6,7.6-1.3,15.9-1.7,18.4
		l-0.5,4.8h15.2c20.8,0,52.3-3.1,56.1-5.4c0.9-0.5,0.9-2.4,0.1-9.1c-0.5-4.7-0.7-11-0.4-14.1c0.5-4.1,0.3-5.6-0.5-5.6
		c-0.5,0-4,1.4-7.5,3.1c-8.3,4-13.7,5.2-22.7,5.2s-19.4-2.7-29-7.5c-3.9-1.9-7.2-3.5-7.5-3.5
		C1978.5,2233,1977.8,2239.2,1977.3,2246.6z"/>
	<path id="structure40_label35_PLCo-1" bar:growlevel="0" bar:type="" class="st57" d="M1966.7,2218c-2.4,1.2-7.3,4.4-10.8,7.2
		c-6.8,5.4-20.6,12.8-30,15.8c-13.2,4.3-40,8.2-68.6,10c-31.4,1.9-55.4-0.8-87-9.6c-14.1-3.9-36.6-11.9-48.9-17.4l-9.5-4.1l-9.6,0.3
		c-7.2,0.3-9.7,0.6-9.7,1.5c0,1.9,40.7,20.2,69.8,31.3c25.5,9.7,45.4,15.8,66.3,20.2c10,2,13.7,2.3,37.6,2.7
		c27.5,0.4,32.6,0.2,84.3-4.4l23.6-2.1l0.5-2.7c0.9-5.1,2.3-21.7,2.9-35.5c0.6-14.9,0.5-15.4-4.1-15.4
		C1972.2,2215.9,1969.3,2216.9,1966.7,2218z"/>
	<path id="structure41_label36_PLCo-2" bar:growlevel="0" bar:type="" class="st58" d="M1958.2,2198.3c-8.9,2.5-14.2,5.3-35.5,18.8
		c-4.4,2.8-10.6,5.8-13.8,6.8c-20.6,6.4-60.9,10.3-75.4,7.3c-3-0.6-11.9-1.3-19.8-1.4c-27.4-0.8-52.1-5.7-67.2-13.1
		c-2.9-1.4-5.8-2.6-6.5-2.6c-0.7,0-3.8,1.2-6.8,2.6c-3.1,1.4-7.6,2.9-10,3.2c-2.7,0.4-4.4,1.1-4.4,1.8c0,2.4,37,15.8,59.9,21.6
		c24.1,6.1,32.4,7.1,60.3,7.2c31.4,0,60.2-2.8,80.1-7.7c13.3-3.3,28.9-11,38.2-18.7c6.3-5.2,12.3-8.2,16.8-8.2h4v-8.1
		c0-7.3-0.2-8.1-2-9.1C1972.9,2197,1963.7,2196.9,1958.2,2198.3z"/>
	<path id="structure42_label37_PLCo-3" bar:growlevel="0" bar:type="" class="st59" d="M1817.1,2122.7c-1.3,8.6-4,14-8.9,18.4
		c-4.9,4.3-10.8,5.9-18.5,5.1c-6.2-0.6-10-2.6-21-11c-10.1-7.7-10.3-7.6-8,1.2c2.7,10.4,1.3,29.8-3.6,46.4
		c-2.8,9.7-6.6,17.5-11.8,24.2c-2.2,2.8-4,5.5-4,6c0,2,12.7,7.1,26,10.4c13.8,3.4,26.2,5,46,5.9c10.2,0.4,20.5,1.2,23,1.6
		c13.9,2.6,55.7-1.7,73.2-7.6c4.1-1.4,10.9-5,17.7-9.4c21.8-13.9,31.3-17.6,43.4-16.8l7.5,0.5v-3.8c-0.1-16.4-3.2-54.9-5.1-62.5
		c-0.7-3-2.3-2.6-7.6,1.5c-5.9,4.7-15.9,9.5-23.3,11.2c-7.6,1.8-22.8,1.8-32.9,0.1c-4.4-0.8-13.5-2.8-20.2-4.6
		c-14.8-3.9-58.7-18.4-64.8-21.5c-2.4-1.3-4.8-2.3-5.2-2.3C1818.4,2116,1817.6,2119,1817.1,2122.7z"/>
	<path id="structure43_label38_LaVM" bar:growlevel="0" bar:type="" class="st60" d="M1986.4,1859.3c-11.9,17.7-19.4,31.5-25.4,46.7
		c-1.6,4-5,10.9-7.4,15.1c-2.4,4.2-4.4,8.1-4.4,8.6c0,2.1-6.6,14.9-10,19.4c-2,2.7-3.5,5.4-3.3,6.1c0.2,0.9,11.5,5.1,32.2,12.1
		c17.5,5.8,39.2,13.4,47.9,16.6c8.7,3.2,16.1,5.9,16.4,5.9c0.3,0,1.2-1.4,2-3.2c0.8-1.8,4.9-6.9,9.2-11.4
		c16.1-17.5,27.5-39,38.9-73.9l3.9-11.6l-1.6-3.1c-2.7-4.9-14.8-16.4-22.7-21.6c-16.5-10.8-34.1-15.6-57.9-15.6h-11.3L1986.4,1859.3
		z"/>
	<path id="structure44_label39_DEn" bar:growlevel="0" bar:type="" class="st61" d="M2110.9,1839c-0.4,15.2-0.5,15.9-4.6,29.6
		c-10.2,34.9-18.6,58.3-25.5,71c-5.7,10.6-16.6,26.6-26,37.8c-9,10.9-10.3,13.4-10.3,20.2c0,6,0.6,7.7,6.9,18.9
		c7,12.1,14.2,17.3,28,19.5c7.7,1.3,17.2,0.1,23.4-2.9c9.4-4.6,19.5-17.3,28.1-35.2c5.6-11.7,7.7-20,9.1-34.8
		c2.1-23.5-1.5-51-10.2-77.5c-5.1-15.9-16-56.8-16-60.4c0-0.9-0.5-1.7-1.3-1.7C2111.7,1823.5,2111.4,1826.7,2110.9,1839z"/>
	<path id="structure45_label40_LaDL" bar:growlevel="0" bar:type="" class="st62" d="M2076.6,1693.2c-3.2,3.3-4.1,4.9-5,9.3
		c-1.7,8.8-4.5,17.3-8.7,27.3c-9,21-47.5,88.2-63.4,110.5c-2.9,4.1-5.3,7.8-5.3,8.4c0,0.5,2.6,0.5,6.1,0.3c8-0.6,23.5,1.1,34.2,3.9
		c17.3,4.4,35.6,15.8,45.6,28.1c2.5,3.1,5.1,5.4,5.9,5.3c0.9-0.2,2.4-4.6,5.1-14.9c5.7-22.1,8.4-38.5,9.2-55.3
		c0.8-17.2,1.7-19.9,8-22.8c0.2-0.1-1.5-6-3.8-13c-9.7-30.8-12.4-45.4-12.6-68.5c-0.1-15.6-0.3-17-2-19.3c-1.4-1.9-2.8-2.6-5.6-2.8
		C2081,1689.3,2080.2,1689.6,2076.6,1693.2z"/>
	<path id="structure46_label41_Pir-2" bar:growlevel="0" bar:type="" class="st63" d="M2292.3,1858.2c-5.8,6.9-15.2,27.1-30.5,64.7
		c-33.8,83.5-53.6,127.2-69.4,153.5c-20.3,33.9-51,74.2-74.1,97.2c-10.7,10.6-21.5,18.4-33.4,24.1c-7.9,3.8-26.5,10.1-29.5,10.1
		c-1.2,0-2.2,0.9-2.7,2.3c-1.1,2.8-4.1,14.9-4.9,19.5l-0.6,3.4h4.3c6.4,0,15.1-1.5,23.7-4.2c8.6-2.7,42.5-19.5,51.3-25.5
		c12.1-8.2,22.1-18.8,41.4-43.7c7.6-9.7,18.5-23.6,24.5-30.9c18.4-22.4,18.9-23.3,40.1-73c25.4-59.4,29-68.1,53.8-130.5
		c19.9-49.9,21.4-54,21.5-59.4c0.1-8.6-1.5-10.8-8-10.8C2295.3,1855,2294.7,1855.2,2292.3,1858.2z"/>
	<path id="structure47_label42_Pir-3" bar:growlevel="0" bar:type="" class="st64" d="M2118.4,1841.9c0,3.3,6.3,26.5,12.1,44.5
		c8.1,24.9,11,44.9,10.1,70.1c-0.5,17-2.3,25.5-7.5,37.3c-8.6,19.4-20.1,34.1-30.8,39.4c-5.7,2.8-6.5,3-16.4,3
		c-9.8,0-10.7-0.2-16.6-3c-9.4-4.4-10.4-3.7-6.5,4.1c4.9,9.7,6.2,18.4,3.5,24c-1.4,2.9-1.4,3.4-0.1,6.1c2.6,5.6,3.9,16.6,3.8,35.3
		c0,17.4-0.1,18.4-3,28.8c-3.2,11.7-4.5,23.3-4.6,38.3c0,11.9-1,17.2-5,27c-1.7,4.3-3.1,8.3-3.1,8.9c0,2.7,16.3-1.9,30.1-8.5
		c13.3-6.3,20.7-11.7,34.3-25.3c26.2-26,58.7-69.7,79.1-105.9c12.3-22,33.4-69.1,57.6-129c19.1-47.1,27.4-65.5,34.2-76
		c1.7-2.6,3.2-5.2,3.2-5.9c0-0.7-5-1.4-16.8-2.2c-31.8-2.2-143.3-11.8-153.9-13.3C2118.5,1839.5,2118.4,1839.6,2118.4,1841.9z"/>
	<path id="structure48_label43_DLEnt" bar:growlevel="0" bar:type="" class="st65" d="M2109.4,1795.4c0,5.7,6.9,42.7,8.2,43.7
		c0.4,0.4,97.4,9,126.8,11.3c33.8,2.7,62.1,4.4,76.4,4.7l13,0.3l2.1-7.6c2.5-9.3,5.8-27.7,5.8-33c0-3.5-0.3-4-2-4
		c-6.5,0-94.3-7.2-176-14.4c-27.8-2.5-51.4-4.5-52.4-4.5C2109.7,1792,2109.4,1792.5,2109.4,1795.4z"/>
	<path id="structure49_label44_PRh" bar:growlevel="0" bar:type="" class="st66" d="M2099.4,1681.1c-1.9,5.3-4.1,11.4-4.9,13.7
		c-2.3,5.7-2.3,32.7-0.1,45c2.7,14.6,12.1,48.6,14.1,50.7c1.2,1.3,213.2,19.5,227.5,19.5h5.6v-8c0-16.2-4.1-29.3-14.5-45.9
		c-7.3-11.7-8.9-15.7-8.9-21.6c0-6.5,3.4-12.2,12.6-21.3c4.4-4.4,8.1-8.6,8.1-9.1c0-0.6-0.9-1.3-2-1.5c-4.2-1-229.4-31.1-231.8-31.1
		C2102.8,1671.5,2102.5,1672,2099.4,1681.1z"/>
	<path id="structure4_label0_PMV" bar:growlevel="0" bar:type="" class="st67" d="M1210.3,2056.2c-4.6,1.4-6.1,2.5-8.4,5.8
		c-4.9,7,2,37.4,13.5,59.6c13.1,25.3,29.2,37.1,53.5,39.1c19.1,1.6,41.1-6.7,52.6-19.7c8-9.2,13.9-24.4,13.9-35.7v-5.1l-10.1-0.5
		c-24-1.2-48.9-11.7-87.3-37.2l-11.4-7.6l-6.1,0.1C1217.1,2054.9,1212.5,2055.5,1210.3,2056.2z"/>
	<path id="structure50_label45_Ect" bar:growlevel="0" bar:type="" class="st68" d="M2116.2,1545.5c-0.3,1.6-0.7,6.8-1,11.5
		c-1.4,23.7-8,91-9.9,101.3c-1.2,6.4-2.1,11.7-2,11.9c0.2,0.1,53.9,7.5,119.5,16.4l119.2,16.2l12.6-12.8
		c19.2-19.5,28.9-34.6,34.1-53.1c4.9-17.2,14.2-65.9,15.6-81.3l0.5-6.5l-11.2-0.5c-9.4-0.4-265.3-6-274.1-5.9
		C2117,1542.7,2116.6,1543,2116.2,1545.5z"/>
	<path id="structure51_label46_CPu" bar:growlevel="0" bar:type="" class="st69" d="M2044,1374.1c0.3,3.4,2.7,14,5.5,23.7
		c6.7,22.9,7.3,27.4,6,40c-1.3,12.1-3.1,21-6.1,31.1c-3.5,11.7-4.6,19.4-5.8,40.4c-0.8,14.8-0.8,24.4,0,41.8l1,22.6l7.6,15.8
		c16,33.6,19.8,49.1,21,87c0.5,17.8,1,19.5,4,15.8c0.7-0.8,2.6-2,4.3-2.7c3.9-1.6,7.7-0.3,9.3,3.4c2.2,4.9,3.2,3,4.2-7.9
		c5-49.5,2.3-97.3-9.9-177.1c-13.4-87.7-28.3-139.9-39.8-139.9C2043.6,1368.1,2043.5,1368.5,2044,1374.1z"/>
	<path id="structure52_label47_Rt" bar:growlevel="0" bar:type="" class="st70" d="M1731.8,1362.8c-0.9,2.9-3.2,15.9-3.3,19.2
		c-0.1,2.2,0.9,5.9,2.3,9.2c3.1,7.1,7,22.4,9.9,38.1c9.1,49.5,5.9,92.6-9.5,132.2l-3.7,9.4l1.5,12.6c0.9,6.9,1.9,13.1,2.4,13.7
		c0.5,0.5,0.5,1.2,0.3,1.5c-0.9,0.9,4.2,18.2,7.4,24.6c3.8,7.6,10.1,14.4,14.9,15.8c3.2,1,3.7,0.8,7.7-2
		c5.5-3.9,14.2-12.2,16.5-15.9c1.3-2.1,2.1-5.6,2.6-11.3c0.5-4.9,2.9-16.5,5.8-27.7c18.3-70.5,19.6-76.9,17.6-87.3
		c-2.9-14.5-19.5-45.2-46.6-86.1c-7.7-11.5-14.8-23.1-16-25.7c-2.3-5-5-14.2-5-17.3C1736.8,1362.6,1732.7,1360.2,1731.8,1362.8z"/>
	<path id="structure53_label48_VPL" bar:growlevel="0" bar:type="" class="st71" d="M1687.9,1390.8c1.8,39.1-16.2,101.3-47.5,163.7
		c-25.3,50.6-50.5,81.3-91,110.6c-10.3,7.6-12.5,9.9-8.7,9.9c1.1,0,12.5-3.1,25.5-6.8c23.5-6.8,54.3-17.3,63.5-21.8
		c14.8-7.3,34.7-23.6,44.5-36.7c22.4-29.8,35.5-55.1,40-77.7c2-10,4.5-40.8,4.5-55.6c0-20.2-3.3-41.4-9.2-57.9
		c-5-14.1-18.4-38.8-21-38.8C1687.7,1379.8,1687.5,1381.9,1687.9,1390.8z"/>
	<path id="structure54_label49_VPM" bar:growlevel="0" bar:type="" class="st72" d="M1642.3,1351.5c-7.6,0.9-16.9,3.4-20.3,5.3
		c-5.4,3.2-15.6,14.4-22.6,25c-7,10.6-17.3,30.2-25.4,48.5c-23.9,54-59.5,105.2-105.4,151c-26.4,26.5-47.3,41.5-70.9,50.8
		c-8.3,3.3-25.5,7.7-30.1,7.7c-1.6,0-2.5,0.4-2.5,1.3c0,1.4,1.1,1.8,6.8,2.8c2,0.4,10.9,3,19.9,5.8c17.7,5.8,34.6,10.4,50.8,13.9
		c15.3,3.2,68.4,12.8,78.4,14.1l8.7,1.1l8.8-6.1c30-20.7,51.4-40.5,68.4-63c34.3-45.7,67.7-123.9,78.3-183.6
		c2.3-12.8,2.4-44.6,0.2-51.8c-3.2-10.2-11.1-18.3-21-21.2C1659.8,1351.8,1647.6,1350.9,1642.3,1351.5z"/>
	<path class="st11" d="M1931.8,1171.4c-0.9-26-7.6-50.9-21.2-79.2c-11.6-24.1-25.7-44.4-47.6-68.8c-16.1-18-70.2-71.4-83.8-82.7
		c-29.1-24.2-56.5-42.5-88.7-59.1c-44.1-22.7-86.1-35.9-138.6-43.5c-43.3-6.3-96.9-7.7-124.5-3.2c-26.3,4.2-50.3,17.7-71.6,40.1
		c-13.7,14.3-23.2,28.1-36.1,51.7c-13.5,24.9-25.3,41.2-42.1,58.3c-15.8,16-35.6,31-51.3,39c-3.8,2-8.2,5.2-11.7,8.7
		c-8.4,8.5-21,14.3-40.7,19.2c-9.7,2.3-16.6,2.7-19.6,1.2c-1.1-0.5-3.2-2.3-4.9-3.7l-2.8-2.7l-9.4,1.5c-8.3,1.3-15.7,2-23,2v24.4
		c3.2,0,6.5,0,9.7-0.1c42.2-1,73.5-5.9,90.5-14c18-8.6,44.5-33.2,70.1-65c13.1-16.4,21.5-28.3,41.6-59.3c9.7-15.1,20.5-31.3,24-36
		c20.3-27.5,56.9-52.4,85.7-58.1c14.8-3,55.5-2.4,84.6,1.1c24.3,3,35.9,5.6,79.1,18c44.8,13,83.6,26.5,102.4,36
		c31.5,15.8,108.6,81.2,142.2,120.5c29.5,34.6,62.5,88.2,72.2,117.4c5.1,15.4,6.2,23.4,5.7,39.6c-1.7,44.3-17.1,80.5-38.9,91.6
		c-6.7,3.3-12.6,4.7-21.3,4.7c-24.8,0-49.4-8.5-70.2-24c-5.1-3.9-17.7-15.3-28.2-25.5c-25.6-25.1-34.9-32.6-53.6-42.6
		c-22.4-12.1-67.3-27.4-84.9-29.2c-4.6-0.4-5.9-0.2-7.2,1c-1.7,1.8-2,5.3-0.6,9.3c1,2.6,1.2,2.7,8.2,3.3c30.2,2.5,75.5,15.8,92.4,27
		c11.4,7.6,31,25.8,44.1,41c11.5,13.5,25.5,40.7,36.4,71.1c7.1,19.6,10.8,36.9,15.4,71.1c8.3,61.4,10.4,76.3,12.2,83.3
		c5.4,21.1,17.8,43.7,30.4,55.4c4.9,4.5,15,11.5,16.8,11.5c1.4,0,15.8-13.2,22.1-20.3c6.7-7.6,11.4-15.7,12.7-21.8
		c1.2-5.7,0.7-10.8-2.4-30.5c-4.8-30.3-4.8-50,0-84.1c3.5-24.6,4.9-35.5,7.3-60.6c2.7-27.3,4-36.9,7.7-54.5
		C1932.1,1196.6,1932.5,1193.4,1931.8,1171.4z"/>
	<path id="structure57_label52_AuV" bar:growlevel="0" bar:type="" class="st73" d="M2223.2,1457.3c-42,0.3-82.9,0.6-90.6,0.7
		l-14.2,0.1v22.8c0,12.5-0.4,31.2-1,41.5c-0.5,10.3-0.7,18.9-0.4,19.2c0.6,0.6,287.6,6.9,288.2,6.3c1.2-1.1,6.1-51.8,8.1-82.3
		l0.6-9.2l-57.1,0.2C2325.4,1456.5,2265.4,1456.9,2223.2,1457.3z"/>
	<path id="structure58_label53_Au1" bar:growlevel="0" bar:type="" class="st74" d="M2232.7,1255.3c-78.9,23-143.9,42.2-144.4,42.6
		c-0.4,0.4,1.7,8,4.7,16.8c15,44.6,21.9,79.3,24.6,124.9c0.6,9.4,1.2,17.3,1.3,17.5c0.4,0.4,293.9-1.6,294.5-2.1
		c1.1-1.2,2.1-44.6,1.6-71.2c-1.1-62.3-6.5-95-20.3-122.8c-7-14.1-12.9-31.2-14.9-44c-0.4-2.7-1-3.8-2.1-3.7
		C2376.9,1213.4,2311.6,1232.3,2232.7,1255.3z"/>
	<path id="structure59_label54_DLG" bar:growlevel="0" bar:type="" class="st75" d="M1628.8,1178.4c0,1.9,5.2,20.1,8.1,28.3
		c7.3,20.8,19.1,44.5,30.8,61.9c8.8,13.2,23.9,32.8,41.6,54c11.4,13.8,18.7,23.8,19.9,27.5c0.8,2.4,2.5,2.1,4.3-0.9
		c1.9-3.2,8.3-7.6,14.7-10c10.4-3.9,20.3-4.2,33.6-1.3c3.1,0.7,5.8,1.2,5.9,1.1c0.6-0.9,3.1-11.9,3.5-15.8
		c1.3-10.4-2.6-29.1-8.3-40.3c-4.1-8.4-6.4-11.6-21.3-30.2c-6.9-8.7-16-20.2-20.2-25.4c-17.1-21.9-28.3-29.1-60.8-39.2
		C1651.2,1179.1,1628.8,1174.8,1628.8,1178.4z"/>
	<path class="st12" d="M2107.6,1367.4c-16.1-72.4-53.6-155.3-105.7-234.3c-43.3-65.4-103.6-138.5-152.5-184.9
		c-40.8-38.6-86.8-71.9-127.4-92.1c-18.7-9.4-25.6-11.5-72.5-23.7c-61.7-15.8-86.8-21.1-125.1-26.1c-37.1-4.8-82.1-6.7-112-4.6
		c-28.3,2-54.8,6.9-65.4,12.2c-15.8,7.9-26.1,21.5-39.9,52.6c-10.6,24.2-12.4,27.3-21.9,37.1c-13,13.4-32.6,27.6-61.8,44.8
		c-30.7,17.9-55.2,26.9-87.3,32c-6.8,1.1-14.2,1.6-21.9,1.5v67.7c2.9,0,5.7-0.2,8.7-0.4c28.4-2.8,72.4-13,95-21.9
		c17.5-6.8,37.5-21.3,57.8-41.5c19.9-19.9,29.4-32.9,43.6-59.1c13.9-25.8,23.1-38.6,40-55.3c16.4-16.4,31.2-26,50.2-32.7
		c16.7-5.9,37.2-7.9,73.2-7.1c62.2,1.4,120.6,12.2,168.3,31.2c50.1,20,99.3,50.7,139.9,87.5c15.3,13.8,62.6,61.4,73.7,74.1
		c18.9,21.5,33,41.5,42.9,60.3c4.3,8.2,7.3,12.1,16.7,22.8c43.2,48.3,75.4,98.5,94,146.3c7.5,19.2,18.5,57.2,28.3,97.4
		c3.5,14.4,5.5,20.5,8.2,25.8c10.1,19.5,21.2,67.2,31.3,133.9c3,19.3,8.4,61.6,10.1,79.2c1.4,13,1.6,64.7,0.5,82.5
		c-0.6,10-0.6,12,0.5,12c2.3,0,7.5-20,9.6-36.9c1.4-10.9,6.9-73.3,8.6-95.8C2120.7,1475,2118.3,1415.4,2107.6,1367.4z"/>
	<path class="st13" d="M2107.6,1367.4c-16.1-72.4-53.6-155.3-105.7-234.3c-43.3-65.4-103.6-138.5-152.5-184.9
		c-40.8-38.6-86.8-71.9-127.4-92.1c-18.7-9.4-25.6-11.5-72.5-23.7c-61.7-15.8-86.8-21.1-125.1-26.1c-37.1-4.8-82.1-6.7-112-4.6
		c-28.3,2-54.8,6.9-65.4,12.2c-15.8,7.9-26.1,21.5-39.9,52.6c-10.6,24.2-12.4,27.3-21.9,37.1c-13,13.4-32.6,27.6-61.8,44.8
		c-30.7,17.9-55.2,26.9-87.3,32c-6.8,1.1-14.2,1.6-21.9,1.5v67.7c2.9,0,5.7-0.2,8.7-0.4c28.4-2.8,72.4-13,95-21.9
		c17.5-6.8,37.5-21.3,57.8-41.5c19.9-19.9,29.4-32.9,43.6-59.1c13.9-25.8,23.1-38.6,40-55.3c16.4-16.4,31.2-26,50.2-32.7
		c16.7-5.9,37.2-7.9,73.2-7.1c62.2,1.4,120.6,12.2,168.3,31.2c50.1,20,99.3,50.7,139.9,87.5c15.3,13.8,62.6,61.4,73.7,74.1
		c18.9,21.5,33,41.5,42.9,60.3c4.3,8.2,7.3,12.1,16.7,22.8c43.2,48.3,75.4,98.5,94,146.3c7.5,19.2,18.5,57.2,28.3,97.4
		c3.5,14.4,5.5,20.5,8.2,25.8c10.1,19.5,21.2,67.2,31.3,133.9c3,19.3,8.4,61.6,10.1,79.2c1.4,13,1.6,64.7,0.5,82.5
		c-0.6,10-0.6,12,0.5,12c2.3,0,7.5-20,9.6-36.9c1.4-10.9,6.9-73.3,8.6-95.8C2120.7,1475,2118.3,1415.4,2107.6,1367.4z"/>
	<path id="structure62_label57_AuD" bar:growlevel="0" bar:type="" class="st76" d="M2218.2,1166.3
		c-66.6,30.1-129.2,58.2-138.9,62.6c-14,6.3-17.6,8.3-17.4,9.4c0.3,0.8,3.2,7.3,6.5,14.5c3.3,7.2,8.9,19.9,12.2,28.3
		c3.4,8.4,6.6,15.4,7,15.6c0.6,0.2,248.2-71.6,285.8-82.8l6.1-1.9l-0.6-7.3c-1.7-19.9-11.7-47.7-28.2-78.6
		c-6.2-11.6-8.2-14.6-9.6-14.6C2340.2,1111.8,2284.8,1136.3,2218.2,1166.3z"/>
	<path id="structure63_label58_S2" bar:growlevel="0" bar:type="" class="st77" d="M2162.5,1102.5c-73,39.5-132.8,72.4-133,72.9
		c-0.2,0.5,3.1,7.2,7.3,14.8c4.2,7.5,11.4,20.9,15.9,29.7c7.3,14,8.6,16,10.3,15.8c1-0.3,64-28.4,139.8-62.5
		c112.9-50.8,138-62.3,138-63.7c0-1.5-12.5-24.3-36.1-65.5c-4.1-7.3-8-13.3-8.5-13.3C2295.6,1030.6,2235.5,1063,2162.5,1102.5z"/>
	<path id="structure64_label59_S1" bar:growlevel="0" bar:type="" class="st78" d="M2112.5,1020.1c-67.8,49.7-123.4,90.8-123.6,91.5
		c-0.1,0.7,5.1,9.4,11.7,19.4c6.6,9.9,15.4,23.8,19.6,30.8c4.2,7,8.1,12.7,8.6,12.6c2.5-0.6,266.8-144.4,266.8-145.2
		c0-2.5-57.4-99.4-58.9-99.4C2236.3,929.9,2180.4,970.5,2112.5,1020.1z"/>
	<path id="structure65_label60_S1BF" bar:growlevel="0" bar:type="" class="st79" d="M1975.1,806.2c-33.3,41.5-73.4,91.4-89.1,111
		c-15.8,19.5-28.6,36.1-28.6,36.7c0,0.7,6.2,7.8,13.8,15.8c25.9,27.3,45.4,49.6,68.6,78.5c14.6,18.2,36.6,47.3,42.9,56.8
		c2.6,3.9,4.3,5.7,5.3,5.4c2.5-0.5,248.3-180.5,248.3-181.8c0-2.4-19.5-29.3-35-48.2c-30.4-37.2-70.7-78.4-104.1-106.4
		c-17.5-14.8-57.1-43-60.1-43C2036.3,730.9,2008.4,764.8,1975.1,806.2z"/>
	<path id="structure66_label61_PtPD" bar:growlevel="0" bar:type="" class="st80" d="M1869.6,787.2c-40.5,61.7-73.8,112.8-74,113.6
		c-0.3,1.1,1.7,3.2,6.1,6.5c10,7.6,31.5,25.7,43,36.4c5.7,5.3,10.8,9.4,11.4,9.4c1.8-0.5,178.5-221,178.5-222.9
		c0-1.3-3.3-3.9-12-9.4c-24.8-15.8-76.1-45.6-78.5-45.6C1943.8,675.1,1910.2,725.6,1869.6,787.2z"/>
	<path id="structure67_label62_LPtA" bar:growlevel="0" bar:type="" class="st81" d="M1624.7,558.3c-1.5,6.3-46.3,243.4-46.3,245
		c0,1.8,0.9,2.3,7.5,4c37.3,10.3,101.5,32.7,127.5,44.6c20.9,9.5,45,23.8,68,40.1c6.3,4.4,12.1,8,12.9,7.8
		c1.4-0.3,148.7-223.4,148.7-225.2c0-0.5-9-5.8-20-11.5c-101.1-52.8-181.6-82.8-275.7-102.4c-9.9-2.1-18.9-4-20-4.2
		C1625.7,556.2,1625.2,556.5,1624.7,558.3z"/>
	<path id="structure68_label63_MoDG" bar:growlevel="0" bar:type="" class="st82" d="M1491.5,965.9c-7.8,1.2-16.9,4.1-24.8,8
		c-12.8,6.4-20.8,13.6-31.9,28.4c-13,17.3-24.9,37.2-52.3,86.9c-19.8,36-40.4,70.3-72.7,121.1c-7.8,12.2-8.3,14.2-4.3,20.3
		c3.6,5.6,6.8,8.4,13.1,11.3c5,2.3,6.1,2.5,17.1,2.5c19.8-0.1,32.1-4.4,55.2-19.3c49.1-31.6,63-38.4,94.1-46.4
		c37.6-9.6,65.4-13.6,111.1-15.9l21-1.1l-0.6-2.7c-0.4-1.5-0.7-4-0.7-5.5l-0.1-2.6l-26.5-8.7c-14.6-4.9-32.4-10.2-39.6-12
		c-27.1-6.7-47.4-6.3-71.1,1.4c-20.6,6.7-32.4,15.2-60.3,43.5c-26.7,27-34.7,33.3-48.2,37.9c-10.8,3.6-22.1,2.5-24.7-2.4
		c-0.9-1.5-0.9-2.8,0-5.7c1.8-5.9,5.9-11.1,19.7-24.8c14.3-14.2,29.3-31.7,45.1-52.6c19.1-25.1,21.3-29.3,33.7-61.5
		c15-39.2,22.8-56.6,27-61.2c3.4-3.8,8.6-5.9,15.8-6.3c11.2-0.6,22.5,2.3,50.8,13.1c23.5,8.9,63.7,20.2,99.3,27.6
		c19,4,37.2,11.3,51.5,20.7c11.1,7.3,13.9,11.1,13.1,17.3c-0.4,2.4-0.1,7.1,0.6,10.6l1.2,6.3l5.3,2.8c3,1.5,16.4,8.5,29.7,15.5
		c26.6,13.9,36.8,18.4,45.1,20c15.9,3.1,20.9-7.1,12.1-24.8c-6.6-13.3-18-28.1-36-46.5c-8-8.3-12.7-12.4-13.9-12.4
		c-1.1,0-6.7,1-12.6,2.2l-10.7,2.1l-3.1-3.5c-9.3-10.3-38.4-31.1-54.6-39c-14.8-7.2-56.5-20.9-102.6-33.7
		C1519.8,965.1,1508.8,963.3,1491.5,965.9z"/>
	<path id="structure69_label64_MPtA" bar:growlevel="0" bar:type="" class="st83" d="M1379.2,647.2c-0.4,65.5-0.5,119.3-0.3,119.4
		c0.2,0.2,14.6,2.7,32,5.7c73,12.4,126.2,22.5,149.8,28.4c8.8,2.2,16.2,3.9,16.4,3.7c0.7-0.7,47.3-246.7,46.8-247.7
		c-0.2-0.5-3.2-1.5-6.6-2.1c-3.3-0.6-14.1-2.5-23.9-4.2c-63.4-11.1-143.9-20-196.9-21.8l-16.7-0.5L1379.2,647.2z"/>
	<path id="structure70_label65_RSD" bar:growlevel="0" bar:type="" class="st84" d="M1341.2,528.1c-60.2,3-116.8,18.5-151.3,41.6
		c-14.2,9.5-27.7,25.7-41,49.1c-5.7,10-10.6,20-10.6,21.4c0,0.7,1.9,2.6,4.3,4.2c70.7,50.2,139,103.1,155.3,120.5
		c1.5,1.5,3,2.8,3.4,2.8c0.4,0,2.3-1.2,4.4-2.6c5.2-3.9,11.8-5.8,19.3-5.7c3.4,0,15.8,1.5,27.5,3.2c11.6,1.8,22,3.2,23,3.2
		c1.8,0,2.1-0.5,2.5-5.7c0.3-3.1,0.6-56.5,0.9-118.7c0.4-99.7,0.2-113.1-1-113.6C1376.7,527.5,1352,527.6,1341.2,528.1z"/>
	<path id="structure71_label66_RSGc" bar:growlevel="0" bar:type="" class="st85" d="M1131.6,653.3c-6.7,15.4-10.9,27.3-14.1,39.6
		l-2.6,10.2v139.5V982h4.4c6.7,0,10-0.9,10-2.7c0-2.4,3.2-4.6,8.7-5.9c7.7-1.8,10.5-1.6,13.7,1.1l2.8,2.3l6.6-1.5
		c15.1-3.7,38.5-12.9,48.1-19c7.1-4.5,10.3-7.6,17.7-17.6c19.7-26.4,31.8-54.8,45.9-108.8c7.4-28.2,13.3-42.7,22.7-54.9
		c2.6-3.4,4.8-6.7,4.8-7.1c0-2.2-30.5-28.2-59.4-50.6c-32.1-24.9-101.3-75.5-103.3-75.5C1137.1,641.8,1134.4,647,1131.6,653.3z"/>
	<path class="st86" d="M2107.6,1367.4c-16.1-72.4-53.6-155.3-105.7-234.3c-43.3-65.4-103.6-138.5-152.5-184.9
		c-40.8-38.6-86.8-71.9-127.4-92.1c-18.7-9.4-25.6-11.5-72.5-23.7c-61.7-15.8-86.8-21.1-125.1-26.1c-37.1-4.8-82.1-6.7-112-4.6
		c-28.3,2-54.8,6.9-65.4,12.2c-15.8,7.9-26.1,21.5-39.9,52.6c-10.6,24.2-12.4,27.3-21.9,37.1c-13,13.4-32.6,27.6-61.8,44.8
		c-30.7,17.9-55.2,26.9-87.3,32c-6.8,1.1-14.2,1.6-21.9,1.5v67.7c2.9,0,5.7-0.2,8.7-0.4c28.4-2.8,72.4-13,95-21.9
		c17.5-6.8,37.5-21.3,57.8-41.5c19.9-19.9,29.4-32.9,43.6-59.1c13.9-25.8,23.1-38.6,40-55.3c16.4-16.4,31.2-26,50.2-32.7
		c16.7-5.9,37.2-7.9,73.2-7.1c62.2,1.4,120.6,12.2,168.3,31.2c50.1,20,99.3,50.7,139.9,87.5c15.3,13.8,62.6,61.4,73.7,74.1
		c18.9,21.5,33,41.5,42.9,60.3c4.3,8.2,7.3,12.1,16.7,22.8c43.2,48.3,75.4,98.5,94,146.3c7.5,19.2,18.5,57.2,28.3,97.4
		c3.5,14.4,5.5,20.5,8.2,25.8c10.1,19.5,21.2,67.2,31.3,133.9c3,19.3,8.4,61.6,10.1,79.2c1.4,13,1.6,64.7,0.5,82.5
		c-0.6,10-0.6,12,0.5,12c2.3,0,7.5-20,9.6-36.9c1.4-10.9,6.9-73.3,8.6-95.8C2120.7,1475,2118.3,1415.4,2107.6,1367.4z"/>
	<path id="structure74_label69_LMol" bar:growlevel="0" bar:type="" class="st87" d="M1468.6,937.8c-29.9,3.4-47.2,21.7-82.5,87.1
		c-5.3,9.8-13.2,25.5-17.6,34.9c-13.3,28.6-22.9,47.1-50.2,96.3c-6.3,11.3-15,27.4-19.3,35.5c-9.2,17.4-13.9,24.3-20.4,30.2
		c-9.3,8.3-20,12.1-34.1,12.1c-20.4,0-37.8-7.3-52.6-22c-6.6-6.6-12.2-14.4-39.8-56.5c-16.1-24.5-16.5-25.1-16.5-29.7
		c0-2.6-0.5-5.2-1-5.8c-0.7-0.7-0.3-3.2,1.5-9.4c3.6-11.8,3.6-20.9,0-27.4c-4.3-7.8-5.2-8.3-13.8-7.7l-7.5,0.5v24.1
		c0,21.4,0.2,24.7,1.7,28.6c2.3,6,9.8,18.1,16.2,26.2c3,3.7,7.9,11.3,11,17.1c8.4,15.5,22.1,35.6,28.7,42.2
		c13.5,13.4,27.1,21.3,49.2,28.9c24.8,8.4,39,10.1,48.9,6c12.2-5,24.3-16.4,35.3-33.1c27.3-41.6,55.6-88.7,79.1-131.5
		c38.7-70.5,54.3-92.9,73.6-105.9c13.5-9.2,28.3-13.6,45.5-13.6c13.6,0,19.7,1.1,48.4,9c41.5,11.3,83.4,24.4,101.9,31.7
		c18.4,7.3,45,24.9,61.8,41l6,5.8l10.9-2.1c7.5-1.4,10.8-2.4,10.8-3.2c0-1.6-2.4-3.8-15.3-13.7c-18.9-14.6-40.9-28.1-62.6-38.4
		c-19.1-9.2-83.2-32.5-120-43.6C1508.6,939.8,1485.5,935.9,1468.6,937.8z"/>
	<path id="structure75_label70_Rad" bar:growlevel="0" bar:type="" class="st88" d="M1464.1,877.2c-1.3,0.2-5.3,0.8-9,1.4
		c-16.9,2.3-33.2,8.5-44.8,16.7c-14.3,10.2-25,23.3-45.6,56.1c-35.2,55.9-55.4,86.4-76.2,115.6c-18.4,25.7-23.8,37-25.8,55
		c-3.1,26.5-4,32.4-5.6,38.3c-4.5,16.4-11.5,23.3-23.5,23.3c-13.9-0.1-23.6-9.4-33.1-32.1c-8.6-20.3-12.7-27.1-21.3-35.8
		c-6.8-6.8-11.1-9.1-20.1-10.7c-4.2-0.7-8.5-1.6-9.4-1.9c-1.5-0.5-2.2,0.4-4.3,5.3c-1.4,3.2-4.2,7.7-6.1,9.9c-3.5,4-3.6,4.1-3,8.8
		c0.5,4.2,2.7,7.9,19.5,33.6c10.3,15.8,21.7,32.8,25.1,37.7c16.2,22.6,33.8,33.2,58.8,35.3c18.7,1.5,34.5-4.9,45.4-18.7
		c2.4-3.2,7.8-12,11.9-19.6c4.1-7.7,13.5-25.1,21.1-38.7c22.1-40,33.5-61.3,40.2-75.4c30.4-63.4,50.3-98.8,67.4-119.5
		c8.9-10.9,21.2-19,34.2-22.6c9.4-2.6,30.5-2.2,45.2,0.9c28.3,6,84.1,24.1,138,44.7c29.5,11.3,57.4,27,85.1,47.9
		c21.3,16.1,47.7,43.6,60.8,63.2c15.5,23.4,14.5,38.8-2.3,37.2c-8.1-0.7-16.9-4.3-42.3-17.5c-38.8-20.1-49.1-24.8-81.5-37.6
		c-32.5-12.8-62.4-21.9-86.4-26.2c-17.2-3.1-49-2.4-49,1c0,0.8,3,1.3,12,1.6c9.8,0.4,13.6,0.9,21.8,3.2c25,7.3,51.5,19.1,76.1,33.9
		c8.1,4.9,37.3,23.9,64.8,42.3c53.6,35.7,79.4,51.8,99.4,61.7c17.3,8.6,25,9.6,39.1,5.7c7.2-2.1,13.7-8.8,16.2-17
		c3.7-11.8,2.3-31.7-3.6-53.1c-4.9-18.3-7.7-24.7-13.3-30.9c-9.1-10.4-18.6-22.6-21.1-27.1c-1.5-2.9-3.2-8.5-4.5-15.6
		c-1.2-6.1-2.9-13.1-3.7-15.6c-2.3-6.9-8-17.3-13.3-24.3c-16-21.4-70.9-67.1-89.8-74.6c-10.3-4.1-34.4-11.3-52.9-15.8
		c-8.2-2.1-19.2-4.7-24.4-6c-12-2.9-26.4-8-53.6-19.2c-29.7-12.2-46-17.2-69.3-21.5C1490.6,877.3,1472.6,876,1464.1,877.2z"/>
	<path id="structure76_label71_Or" bar:growlevel="0" bar:type="" class="st89" d="M1440,841.6c-20.5,2.9-42.8,14.3-66.8,34.1
		c-15,12.5-21.2,20.4-47.1,60.6c-18.5,28.8-27.7,41.9-39.6,56.8c-31,38.6-60,64.3-80.5,71.1c-13.2,4.3-45,9.6-58.1,9.6
		c-4.7,0-6.3,1.7-4.3,4.4c3.1,4.2,5.5,10.7,5.5,14.9v4.5h10.6c13.9,0.1,18.2,1.9,28.4,12.3c9,9.4,13.3,16,22.8,35.5
		c10.3,21.2,12.6,23.6,19.8,20.9c8.1-3.1,10.7-9.2,17.4-41.8c8-38.9,11.4-47.3,27-65.3c17.8-20.6,40.3-52.7,56.3-80.6
		c21.3-37.2,46-71.8,60.4-85c21.1-19.3,50.3-30.6,79.3-30.6c28.5,0,46.2,4.1,114.5,27c54,18,67.6,22.2,84.8,26.5
		c18.5,4.7,30,8.7,44.4,15.8c22.1,10.7,36.3,21.2,59.8,44.4c24.5,24.2,38.9,41.2,45.7,54.1c1.8,3.5,6.6,10.4,10.6,15.3
		c9.6,11.9,21.3,27.6,28.3,38.3c16.9,25.7,31.4,65.3,32.9,90c0.7,10.6-0.6,16.4-6.5,28.1c-10.3,20.6-22.1,31.3-36.2,32.8
		c-9.5,1-27.2-4-49-14c-16-7.3-31.1-16-56.1-32.4c-88.4-57.9-146.9-90.3-188.3-104.3c-12.3-4.2-18.5-5.2-35.5-5.8
		c-11.7-0.4-12.4-0.3-12.4,1.3c0,3.6,8.6,8.3,27.9,15.3c34.1,12.3,61.7,26.9,74.3,39.3c4.2,4.2,7.6,10,7.7,13c0,1.4,0.8,1.6,5.2,1.6
		c13.8,0,57.1,14.3,82.5,27.3c20.9,10.6,33,20,58.5,45.2c23.7,23.4,35.4,32.3,52.5,39.7c13,5.7,23,7.7,39.9,8.2
		c17.6,0.5,21.9-0.4,30.7-6.3c14.3-9.8,25-30.4,31-59.5c3.1-15.2,4-43.3,1.7-54.5c-5.6-27.4-26.1-65.6-59.9-111.3
		c-14.8-20.1-31.5-38.4-54.8-60.1c-41.3-38.3-82-70-104.3-81c-23.1-11.4-66.6-26.1-122.4-41.5c-27.8-7.7-39.9-10-66.2-13.1
		C1501.6,841.2,1447.2,840.6,1440,841.6z"/>
	<path class="st17" d="M2107.6,1367.4c-16.1-72.4-53.6-155.3-105.7-234.3c-43.3-65.4-103.6-138.5-152.5-184.9
		c-40.8-38.6-86.8-71.9-127.4-92.1c-18.7-9.4-25.6-11.5-72.5-23.7c-61.7-15.8-86.8-21.1-125.1-26.1c-37.1-4.8-82.1-6.7-112-4.6
		c-28.3,2-54.8,6.9-65.4,12.2c-15.8,7.9-26.1,21.5-39.9,52.6c-10.6,24.2-12.4,27.3-21.9,37.1c-13,13.4-32.6,27.6-61.8,44.8
		c-30.7,17.9-55.2,26.9-87.3,32c-6.8,1.1-14.2,1.6-21.9,1.5v67.7c2.9,0,5.7-0.2,8.7-0.4c28.4-2.8,72.4-13,95-21.9
		c17.5-6.8,37.5-21.3,57.8-41.5c19.9-19.9,29.4-32.9,43.6-59.1c13.9-25.8,23.1-38.6,40-55.3c16.4-16.4,31.2-26,50.2-32.7
		c16.7-5.9,37.2-7.9,73.2-7.1c62.2,1.4,120.6,12.2,168.3,31.2c50.1,20,99.3,50.7,139.9,87.5c15.3,13.8,62.6,61.4,73.7,74.1
		c18.9,21.5,33,41.5,42.9,60.3c4.3,8.2,7.3,12.1,16.7,22.8c43.2,48.3,75.4,98.5,94,146.3c7.5,19.2,18.5,57.2,28.3,97.4
		c3.5,14.4,5.5,20.5,8.2,25.8c10.1,19.5,21.2,67.2,31.3,133.9c3,19.3,8.4,61.6,10.1,79.2c1.4,13,1.6,64.7,0.5,82.5
		c-0.6,10-0.6,12,0.5,12c2.3,0,7.5-20,9.6-36.9c1.4-10.9,6.9-73.3,8.6-95.8C2120.7,1475,2118.3,1415.4,2107.6,1367.4z"/>
	<path id="structure78_label73_CA1" bar:growlevel="0" bar:type="" class="st90" d="M1464.1,877.2c-1.3,0.2-5.3,0.8-9,1.4
		c-16.9,2.3-33.2,8.5-44.8,16.7c-14.3,10.2-25,23.3-45.6,56.1c-35.2,55.9-55.4,86.4-76.2,115.6c-18.4,25.7-23.8,37-25.8,55
		c-3.1,26.5-4,32.4-5.6,38.3c-4.5,16.4-11.5,23.3-23.5,23.3c-13.9-0.1-23.6-9.4-33.1-32.1c-8.6-20.3-12.7-27.1-21.3-35.8
		c-6.8-6.8-11.1-9.1-20.1-10.7c-4.2-0.7-8.5-1.6-9.4-1.9c-1.5-0.5-2.2,0.4-4.3,5.3c-1.4,3.2-4.2,7.7-6.1,9.9c-3.5,4-3.6,4.1-3,8.8
		c0.5,4.2,2.7,7.9,19.5,33.6c10.3,15.8,21.7,32.8,25.1,37.7c16.2,22.6,33.8,33.2,58.8,35.3c18.7,1.5,34.5-4.9,45.4-18.7
		c2.4-3.2,7.8-12,11.9-19.6c4.1-7.7,13.5-25.1,21.1-38.7c22.1-40,33.5-61.3,40.2-75.4c30.4-63.4,50.3-98.8,67.4-119.5
		c8.9-10.9,21.2-19,34.2-22.6c9.4-2.6,30.5-2.2,45.2,0.9c28.3,6,84.1,24.1,138,44.7c29.5,11.3,57.4,27,85.1,47.9
		c21.3,16.1,47.7,43.6,60.8,63.2c15.5,23.4,14.5,38.8-2.3,37.2c-8.1-0.7-16.9-4.3-42.3-17.5c-38.8-20.1-49.1-24.8-81.5-37.6
		c-32.5-12.8-62.4-21.9-86.4-26.2c-17.2-3.1-49-2.4-49,1c0,0.8,3,1.3,12,1.6c9.8,0.4,13.6,0.9,21.8,3.2c25,7.3,51.5,19.1,76.1,33.9
		c8.1,4.9,37.3,23.9,64.8,42.3c53.6,35.7,79.4,51.8,99.4,61.7c17.3,8.6,25,9.6,39.1,5.7c7.2-2.1,13.7-8.8,16.2-17
		c3.7-11.8,2.3-31.7-3.6-53.1c-4.9-18.3-7.7-24.7-13.3-30.9c-9.1-10.4-18.6-22.6-21.1-27.1c-1.5-2.9-3.2-8.5-4.5-15.6
		c-1.2-6.1-2.9-13.1-3.7-15.6c-2.3-6.9-8-17.3-13.3-24.3c-16-21.4-70.9-67.1-89.8-74.6c-10.3-4.1-34.4-11.3-52.9-15.8
		c-8.2-2.1-19.2-4.7-24.4-6c-12-2.9-26.4-8-53.6-19.2c-29.7-12.2-46-17.2-69.3-21.5C1490.6,877.3,1472.6,876,1464.1,877.2z"/>
	<path id="structure79_label75_PoDG" bar:growlevel="0" bar:type="" class="st91" d="M1494.2,1024.6c-6.8,3-11.8,12.2-18.4,34.3
		c-2.1,6.9-4.6,14.2-5.6,16.2c-3.5,7-17.5,29.9-29.1,47.3c-15.6,23.5-15.7,24.7-1.4,14.5c16.7-11.9,32.3-20.2,42.9-23
		c20.3-5.3,60.9-3,84.2,4.9c4.2,1.4,14.5,5.4,22.9,8.9c8.5,3.5,15.8,6.4,16.5,6.4c2.4,0,1.1-2.4-3.1-5.6
		c-13.5-10.2-39-22.8-65.1-32.2c-24-8.6-30.8-13.1-33.2-21.9c-1.4-5-0.5-7.1,5.5-13c5.4-5.3,11.1-8.4,19.6-10.7
		c8.9-2.4,30.2-2.3,45.5,0.4c29.7,5.2,67.1,17.3,109.3,35.3c9.2,4,16.9,7.1,17.4,7.1c1,0,0.9-2.8-0.3-9.6c-0.7-4.3-1.4-5.7-2.5-5.7
		c-0.8,0-5.1-2.3-9.6-5.1c-8.8-5.7-23.2-12.8-31.5-15.6c-2.9-1.1-14-3.7-24.7-5.9c-24.3-5-48.2-10.9-63.9-15.7
		c-17.7-5.3-31.5-8.7-44.2-10.8C1512.4,1023.1,1498.3,1022.8,1494.2,1024.6z"/>
	<path id="structure7_label3_PH" bar:growlevel="0" bar:type="" class="st92" d="M1193.6,1748.2c-2.4,0.7-7.3,1.5-10.8,1.8
		c-17.3,1.7-21.4,5-32.1,26.5c-8.7,17.3-12.7,28.5-15.3,43.8c-1.6,9.4-1.8,13.2-1.3,28.8c0.5,20.2,2.3,33.2,7.4,52.4
		c8.2,31.2,20.9,54.9,40.3,75.5c9.2,9.7,18,15.9,26.8,18.9c12.2,4.1,31,4.4,39.8,0.5c8.1-3.6,13.2-11.9,13.2-21.2
		c0-9.3-14-42-24.7-57.7c-7.4-10.8-9.7-15.2-12.3-23.9c-3.3-11-2.9-15.8,2.5-27.5c12.1-26.2,17.1-53,13.4-71.5
		c-4-19.3-15-38.2-26.4-44.8C1209.3,1747.2,1200.4,1746.3,1193.6,1748.2z"/>
	<path id="structure80_label76_CA3" bar:growlevel="0" bar:type="" class="st93" d="M1525.7,1055.5c-13,2.8-21.1,8.7-21.1,15.6
		c0,5.8,2.1,6.6,19.2,7.4c17.2,0.8,25.3,2.7,45.6,10.9c40.3,16.1,94.8,47,171,96.9c12.6,8.3,27.5,17.6,32.9,20.8
		c15.4,8.8,36.2,18.4,49.8,23.1c11.8,4,12.8,4.1,22.7,4.2c9.4,0,10.7-0.2,14.8-2.3c10.2-5.4,20-17.6,27-33.7l3.6-8.1l-0.1-13.5
		c-0.1-12.5-0.3-14.4-3.2-25.6c-4.8-18-16.8-48.6-19.1-48.6c-1.4,0-15.8,10.1-15.8,11.1c0,0.4,1,2,2.3,3.5
		c6.2,7.4,13.6,23.9,16.2,36.3c2.3,10.3,2.1,24.5-0.4,32c-4.6,14.5-15.7,25.4-30.7,30.5c-16.5,5.6-38.5-3.2-88.2-35.6
		c-28.9-18.7-73.2-52.5-99.9-76.1c-13.3-11.7-23.3-18.4-40.1-26.6c-29.8-14.6-59.7-24-75.1-23.8
		C1534.3,1054.1,1529.3,1054.7,1525.7,1055.5z"/>
	<path id="structure81_label77_LPMR" bar:growlevel="0" bar:type="" class="st94" d="M1467.2,1184.8c-21.4,7-44,19.9-100.5,57.4
		c-18.2,12-34.5,20.3-45.4,23.4c-8.3,2.3-9.4,3.8-4.8,6.4c3.1,1.8,14.7,15,24.1,27.4c12.2,15.9,29.4,53.7,42.9,93.8
		c2.5,7.7,5.4,16.7,6.3,20c0.9,3.4,2.1,6.1,2.6,6.1c0.5,0,2.7-2.6,4.8-5.7c15.2-22.5,48.3-57.1,72.1-75.1
		c8.5-6.5,23.2-15.3,37.8-22.6c4-2.1,7.4-4.1,7.4-4.5c0-0.5-2.2-7.5-4.9-15.6c-8.7-26.4-20.6-72.9-26.7-104.5
		c-1.2-5.8-2.5-10.5-3.1-10.5C1479.4,1180.9,1473.6,1182.7,1467.2,1184.8z"/>
	<path id="structure82_label78_LPLR" bar:growlevel="0" bar:type="" class="st95" d="M1534.7,1169.3c-26.5,4.9-51.5,10.3-52.9,11.6
		c-1.3,1.2,11.2,56.8,19.7,87.3c4.6,16.4,13,42.2,14,42.8c0.4,0.3,4-0.2,7.7-1.1c5-1.1,9-1.4,15-1c9,0.6,14.8,2.1,41,10.4
		c37,11.8,72.2,19.5,98.9,21.7c15.2,1.3,31.6,0.5,31.6-1.4c0-0.7-4.4-7.5-9.7-15c-25.6-36.1-47.4-67.9-51.7-75.1
		c-6.7-11.3-13.5-27.6-20.5-49c-3.3-10.2-6.4-19.7-6.8-21.3c-0.4-2.4-1.1-3-3.4-3.3c-3.1-0.5-29.2-2-55.4-3.1
		c-14.6-0.6-15.8-0.8-17.3-2.6C1543.4,1168.2,1541.9,1168,1534.7,1169.3z"/>
	<path id="structure83_label79_Po" bar:growlevel="0" bar:type="" class="st96" d="M1526.6,1309.6c-3.1,0.4-8.5,2-12.2,3.4
		c-8.7,3.3-31.5,16-40.7,22.6c-23.8,17-59.7,53.9-76.7,78.8l-4.9,7.2l1.7,8.1c1.5,7.1,4.6,33.9,8.4,72.9c0.6,6.6,1.2,24.5,1.2,40.9
		c0,24.8-0.3,30.4-1.6,36.9c-3.3,15.8-15.4,35-28.6,45.4c-6.4,5-19.7,12.2-22.8,12.2c-0.8,0-1.4,0.6-1.4,1.5c0,1.3,1,1.3,9,0.8
		c42.6-2.8,79-23.9,122.4-71c43.7-47.6,72.2-90.3,95.4-143.3c16-36.5,34.3-63.4,47.7-70.2c9-4.6,30.7-6.3,40.5-3.2
		c5.5,1.7,12.9,6.7,15.8,10.6c2.6,3.6,2.8,3.8,6.8,3.2c4.8-0.5,13.4,0.9,21.3,3.4c4.6,1.5,11.9,5.7,17.9,10.3
		c0.6,0.4,1.4,0.5,1.8,0.3c1-1.1,4.9-21.8,4.3-23.4c-0.3-0.9-1.2-1.6-2.1-1.6c-2.3,0-9.2-4.9-13.8-9.7l-4-4.3l-15.2,0.4
		c-32.4,0.8-68.6-6.4-125.5-24.6C1547.4,1309.6,1538.2,1308,1526.6,1309.6z"/>
	<path id="structure84_label80_CL" bar:growlevel="0" bar:type="" class="st97" d="M1313.8,1272.6c0,0.5,1,5,2.3,10.2
		c2.7,11.4,5,26.3,5,33.8c0,14.5,14.4,65.6,28.8,102.8c8.8,22.6,10.8,31,10.9,45.6v9.2l2.4,0.4c3.8,0.7,35.3,2.7,35.7,2.3
		c0.7-0.8-4.1-40.9-5.9-49.9c-7.8-37.2-35.3-104.4-51.4-126c-7.4-10-16.4-20.7-21.8-25.8C1316.4,1272,1313.8,1270.8,1313.8,1272.6z"
		/>
	<path id="structure85_label81_LHbL" bar:growlevel="0" bar:type="" class="st98" d="M1253.1,1266.5c-2.6,18.4-4,70.3-2.8,108
		l0.6,21.4h2.2c1.2,0,5.9-1.2,10.5-2.7c9.4-3,21.2-9.7,29-16.5c10.7-9.4,21-24.8,25.4-38c2.1-6.4,2.4-8.6,2.3-19.4
		c0-8.5-0.5-15.6-2-23.4c-2-11.3-4-20.5-4.9-21.3c-0.3-0.3-2.1,0.2-4.1,1c-7.7,3.1-13,2-39.6-8.3c-5.2-2-10.9-3.9-12.7-4.2l-3.2-0.6
		L1253.1,1266.5z"/>
	<path id="structure86_label82_LHbM" bar:growlevel="0" bar:type="" class="st99" d="M1204.3,1268.3c-14.3,13.8-22.8,26.8-22.8,34.9
		c0,6.8,1.7,15.2,5.6,27c4,12.2,4.6,17.7,2.3,22.2c-1.6,3.1-6.6,7.7-10.5,9.7c-1.5,0.8-2.7,1.9-2.7,2.5c0.1,0.5,2.8,3,6.1,5.3
		c3.3,2.3,9.2,6.7,13,9.6c7.9,6,18.3,11.6,26.8,14.5c4.3,1.4,8.9,2.1,17.4,2.4l11.6,0.5l-0.7-7.1c-0.4-4-0.6-26.2-0.6-49.4
		c0-40,0.9-61.6,3.1-72.8c0.4-2.4,0.5-4.7,0.3-4.9c-0.3-0.3-9.8-0.6-21.2-0.8l-20.7-0.3L1204.3,1268.3z"/>
	<path class="st100" d="M1157.8,1196.5c-11.6-17.1-11.7-17.2-20.6-15.7c-2.6,0.4-8.1,1.6-12.1,2.6c-4.5,1.2-7.7,1.7-10.9,1.7v183.6
		c8.6,0.1,13-1.2,17-5.2c6.1-6,6.8-14.1,2.6-30.4c-3.8-14.6-4.9-26.6-3.6-38.8c1.7-16,5.1-21.2,22.9-34.9
		c8.6-6.6,10.5-8.6,11.3-11.2c1.2-4.5,2.5-16,3.2-27l0.5-9.4L1157.8,1196.5z"/>
	<path id="structure8_label4_SPF" bar:growlevel="0" bar:type="" class="st101" d="M1164.8,1684.3c-5.9,2.7-10.1,6.3-13.2,11.3
		c-3.3,5.3-3.3,8.9,0.1,12.2c3.8,3.7,7.2,11.9,8.2,20.1c0.9,6.7,0.5,14.7-1.4,27c-0.7,4.7,0.1,4.9,5.2,1.2c4.7-3.4,13.9-6.3,20-6.3
		c2.5,0,6.6-0.6,9-1.4c2.4-0.7,6.4-1.3,8.8-1.3c8.9,0,24.8-7.3,36.1-16.6c10.4-8.6,22.2-17.1,28.8-20.9c3.3-1.9,6-3.9,6-4.4
		c0-0.4-6.8-2.6-15.2-4.7c-8.4-2-19.4-5.4-24.4-7.4c-10.3-4.1-20.3-6.4-40.4-9.1C1174.5,1681.6,1170.4,1681.6,1164.8,1684.3z"/>
	<path id="structure90_label87_VG" bar:growlevel="0" bar:type="" class="st102" d="M1750,1347.7c-8.1,2.3-12.3,8.3-12.3,17.4
		c0.1,11.6,2.9,17.7,20.5,44.2c15.6,23.2,27.2,42.4,34,56.3c2.9,5.8,5.8,10.5,6.3,10.5c0.7,0,1.2-3.7,1.4-11.2
		c0.4-10.8,0.5-11.3,4.1-18.6c2.1-4.1,4-9.6,4.3-12.1c1.2-9.9-8.6-53.2-16.7-74.6l-3.7-9.4l-6-1.5
		C1774,1346.7,1755.8,1346,1750,1347.7z"/>
	<path id="structure91_label88_MDL" bar:growlevel="0" bar:type="" class="st103" d="M1319.3,1340.3c-4.2,34.7-12.8,71.3-19.9,85.3
		c-1.3,2.5-1.7,6.3-2.1,18.9c-0.4,11.6-0.9,17.6-2.3,23c-3.7,14.7-10.5,29-18.1,37.7c-2,2.3-3.6,4.7-3.6,5.2
		c0,2.2-7.9,18.4-12.9,26.6c-7.6,12.3-15.1,22.1-25.1,31.9c-4.9,4.9-8.8,9.2-8.8,9.6c0,2.6,22,2.2,33.3-0.8
		c22.8-5.9,42.8-18.5,59.7-37.4c9.5-10.7,23.9-29.7,29.8-39.3c14.8-24,15.1-44.3,1.3-79c-8.5-21.1-22.9-67.2-26.9-85.8
		c-0.6-2.8-1.5-5.1-2.2-5.1S1320,1334.8,1319.3,1340.3z"/>
	<path id="structure92_label89_PF" bar:growlevel="0" bar:type="" class="st104" d="M1201,1417.3c0.7,8.9,0.8,26.8,0.2,54.3
		c-0.3,13.1-0.1,15.8,1.6,22.7c2.8,11,6.8,18.7,12.4,24c5.4,5.1,9,6.4,18,6.4c12.3,0,25.1-4.7,36.5-13.3c7.1-5.4,10.3-9.3,15.2-18.4
		c7.3-13.5,11.1-27.2,12.2-44.3c0.6-9.2,0-14.9-1.7-14.9c-0.6,0-2.3,1.9-3.8,4.3c-4.4,6.9-14.7,16.7-20.7,19.6
		c-4.8,2.3-6.3,2.6-13.9,2.6c-7.8,0-9.1-0.3-14.8-3c-9.9-4.7-18.6-14.2-30.2-33.3c-5.2-8.5-10-15.5-10.6-15.5
		C1200.5,1408.6,1200.4,1410.4,1201,1417.3z"/>
	<path id="structure93_label90_MDM" bar:growlevel="0" bar:type="" class="st105" d="M1148,1479c-0.4,10-1.9,14.4-6.5,18.6
		c-3.2,3.1-3,4.3,1.2,5.5c7,1.9,8.7,4.6,14.5,22.9c4.7,15.1,8.3,21.5,16.6,29.8c12.9,12.8,23.8,18.8,39.6,22.1l9.5,1.9l3.3-2.5
		c9-6.8,23.2-23.2,32-36.9c5-7.7,13.2-24.3,13.2-26.6c0-2.3-1.2-2.1-7.8,2c-7.5,4.5-14,7-22.9,8.7c-16.8,3.4-27.7-2.8-34.9-20
		c-2.9-6.9-5.5-18.2-5.5-23.9c0-5.1-1.8-5.5-5.9-0.9c-1.9,2.1-5.5,4.8-7.9,6c-9.8,4.9-18.8,2.2-30-9.3c-3.5-3.7-6.8-6.7-7.3-6.7
		C1148.8,1469.8,1148.2,1473.9,1148,1479z"/>
	<path id="structure94_label91_PVP" bar:growlevel="0" bar:type="" class="st106" d="M1142.5,1371.1c-3.4,1.2-8.7,3.9-12,5.9
		c-5.8,3.9-15.7,13.6-15.7,15.6c0.1,0.6,1.7,1.9,3.7,2.9c4.8,2.3,9.3,9.6,11.3,18c3.3,14.6,15.3,47.7,19.5,53.9
		c7.7,11.4,17.8,19.2,26.3,20.2c9.2,1,19.4-5.7,23-14.9c1.9-4.7,2.1-7,2.4-27.6c0.4-24.3-0.9-37.4-4.1-44.8
		c-4.1-9.1-16.7-21.6-27.4-27.3c-5.8-3-7.5-3.4-13.8-3.7C1149.9,1369,1147.6,1369.3,1142.5,1371.1z"/>
	<path class="st107" d="M1136.4,1436.1c-2-4.9-4.6-13.2-5.8-18.4c-2.6-11.1-4.8-16-8.8-19.9c-2.2-2.1-4.9-3.3-7.6-3.5v107.8h22.3
		l3.5-3.2C1151.4,1488.7,1150.4,1472,1136.4,1436.1z"/>
	<path id="structure96_label93_PC" bar:growlevel="0" bar:type="" class="st108" d="M1359.3,1479c-2.1,12.6-22.4,43.3-43.9,66
		c-16.4,17.4-38,29.7-60.1,34.2c-13.4,2.8-35.2,1.6-50.1-2.8c-1.6-0.4-2.1-0.2-2.1,1.1c-0.1,2.8,18.4,62.4,19.3,62.8
		c0.5,0.2,7.8-0.4,16.2-1.4c11.7-1.4,21.3-1.9,41.2-2c26.2-0.1,28-0.4,24.4-3.3c-5.6-4.6-7-18.1-3.1-30.5
		c4.5-14.5,13.6-29,26.2-41.5c8.8-8.7,17.2-15,24.8-18.5c7.5-3.5,16.8-3.5,23.3-0.1c8.8,4.6,16.7,14.4,20.7,25.6
		c1.3,3.4,2.3,7.6,2.3,9.1c0,3.2,2.1,4.1,3.1,1.5c0.4-0.8,1.1-7.7,1.6-15.4c0.8-10.6,0.8-19.1-0.1-36.1c-1-20.3-3.2-48.6-4-49.3
		c-0.3-0.3-33.8-3.1-37.2-3.1C1360.3,1475.2,1359.8,1475.9,1359.3,1479z"/>
	<path class="st19" d="M1313.7,1349.3c-2.1,4.9-9.8,16.2-15,21.7c-16.9,17.8-41.5,28.2-62.3,26.4c-8.1-0.7-20.8-4.9-28.7-9.3
		c-3.2-1.7-10.4-6.8-16.2-11.1c-18.5-14-42.1-27.4-50.1-28.5l-3.7-0.4l-0.4,4.5c-1,9.9-7,15.8-18.4,17.5c-1.6,0.2-3.1,0.3-4.7,0.4
		v20.9c1-0.7,4-3.5,7.5-6.9c8.5-8.3,18.9-14,28.3-15.7c5.2-0.9,6.6-0.8,12.2,0.9c6.8,2.1,13.7,6.2,21.5,13.1
		c5.4,4.6,13.1,15.8,29.4,42.5c14.1,23.1,23.8,31.9,38,34.7c6.4,1.3,14.8,0.1,21.1-3c8.2-4,20.1-18,27-31.8
		c5.7-11.2,12.3-36.4,16.5-61.8c1-6.3,1.8-12.7,1.8-14.2C1317.4,1345.6,1315.2,1345.7,1313.7,1349.3z"/>
	<path id="structure99_label97_f" bar:growlevel="0" bar:type="" class="st109" d="M1287.2,2031.7c-4.7,2.1-10.1,7.6-11.7,11.9
		c-4.4,11.7,6.2,31,18.6,33.6c10.7,2.3,22-3.9,24.2-13.5c2-8-1-17.4-7.5-24C1303.8,2032.4,1293.4,2028.8,1287.2,2031.7z"/>
	<path id="structure9_label5_PR" bar:growlevel="0" bar:type="" class="st110" d="M1332.2,1724.1c-17.5,3.2-38.5,12.1-49.8,21.1
		c-9.8,7.9-17.5,19.3-22,32.8c-1.8,5.5-2.1,8-2.1,19.4c0.1,17.5,1.3,20.9,11.7,31.1c12.4,12.3,27.1,18.3,45.2,18.4
		c17.5,0,52.1-11.5,74.4-24.9c17.9-10.7,40-30.7,55.8-50.2c8.1-10.2,27-37.7,28-41c0.4-1,0.4-2.1,0.1-2.3c-0.3-0.4-5.5,0.4-11.6,1.4
		c-17.7,3.2-31.6,4.5-47.4,4.6c-28,0-43.6-2.3-55.8-8.1c-6.4-3.1-8.1-3.6-13.3-3.5C1342.1,1722.8,1336.2,1723.4,1332.2,1724.1z"/>
	<text id="label30" bar:growlevel="0" transform="matrix(1 0 0 1 1672.3564 2066.6035)" class="st111 st112 st113">AHiAL</text>
	<text id="label32" bar:growlevel="0" transform="matrix(1 0 0 1 1844.6768 2081.2441)" class="st111 st112 st113">BMP</text>
	<text id="label33" bar:growlevel="0" transform="matrix(1 0 0 1 1945.3564 2026.9141)" class="st111 st112 st113">BLP</text>
	<text id="label34" bar:growlevel="0" transform="matrix(1 0 0 1 1992.9229 2251.3633)" class="st111 st112 st113">APir</text>
	<text id="label35" bar:growlevel="0" transform="matrix(1 0 0 1 1886.4434 2269.2715)" class="st111 st112 st113">PLCo-1</text>
	<text id="label36" bar:growlevel="0" transform="matrix(1 0 0 1 1840.5518 2240.9512)" class="st111 st112 st113">PLCo-2</text>
	<text id="label37" bar:growlevel="0" transform="matrix(1 0 0 1 1807.5283 2207.4199)" class="st111 st112 st113">PLCo-3</text>
	<text id="label38" bar:growlevel="0" transform="matrix(1 0 0 1 1976.7949 1927.7051)" class="st111 st112 st113">LaVM</text>
	<text id="label39" bar:growlevel="0" transform="matrix(1 0 0 1 2076.6357 1985.1523)" class="st111 st112 st113">DEn</text>
	<text id="text3326" bar:growlevel="0" transform="matrix(1 0 0 1 2002.2861 2159.6035)" class="st111 st112 st113">APir</text>
	<text id="text3328" bar:growlevel="0" transform="matrix(1 0 0 1 1995.7324 2223.2754)" class="st111 st112 st113">APir</text>
	<text id="label143" bar:growlevel="0" transform="matrix(1 0 0 1 2096.5254 1507.3145)" class="st111 st112 st113">ec</text>
	<text id="label144" bar:growlevel="0" transform="matrix(1 0 0 1 1939.418 1105.166)" class="st111 st112 st113">dcw</text>
	<text id="label9" bar:growlevel="0" transform="matrix(1 0 0 1 1276.626 2022.7129)" class="st111 st112 st113">PeFLH</text>
	<text id="label201" bar:growlevel="0" transform="matrix(1 0 0 1 1704.5742 1850.1523)" class="st111 st112 st113">sox</text>
	<text id="label202" bar:growlevel="0" transform="matrix(1 0 0 1 2224.2412 2121.0957)" class="st111 st112 st113">Pir-1</text>
	<text id="label0" bar:growlevel="0" transform="matrix(1 0 0 1 1241.1064 2130.2949)" class="st111 st112 st113">PMV</text>
	<text id="label3" bar:growlevel="0" transform="matrix(1 0 0 1 1172.1143 1851.2266)" class="st111 st112 st113">PH</text>
	<text id="label4" bar:growlevel="0" transform="matrix(1 0 0 1 1175.2969 1721.6953)" class="st111 st112 st113">SPF</text>
	<text id="label5" bar:growlevel="0" transform="matrix(1 0 0 1 1311.9658 1801.252)" class="st111 st112 st113">PR</text>
	<text id="label85" bar:growlevel="0" transform="matrix(1 0 0 1 1128.126 1237.584)" class="st111 st112 st113">D3V</text>
	<text id="label87" bar:growlevel="0" transform="matrix(1 0 0 1 1750.1152 1388.7246)" class="st111 st112 st113">VG</text>
	<text id="label81" bar:growlevel="0" transform="matrix(1 0 0 1 1259.2939 1329.1953)" class="st111 st112 st113">LHbL</text>
	<text id="label80" bar:growlevel="0" transform="matrix(1 0 0 1 1340.8242 1389.7441)" class="st111 st112 st113">CL</text>
	<text id="label82" bar:growlevel="0" transform="matrix(1 0 0 1 1202.8359 1362.1875)" class="st111 st112 st113">LHbM</text>
	<text id="label89" bar:growlevel="0" transform="matrix(1 0 0 1 1229.4658 1497.3242)" class="st111 st112 st113">PF</text>
	<text id="label88" bar:growlevel="0" transform="matrix(1 0 0 1 1305.7852 1473.2949)" class="st111 st112 st113">MDL</text>
	<text id="label176" bar:growlevel="0" transform="matrix(1 0 0 1 1832.9063 1049.082)" class="st111 st112 st113">CA2</text>
	<text id="label174" bar:growlevel="0" transform="matrix(1 0 0 1 1128.9375 1066.2246)" class="st111 st112 st113">dhc</text>
	<text id="label175" bar:growlevel="0" transform="matrix(1 0 0 1 1139.2266 1743.3242)" class="st111 st112 st113">A11</text>
	<text id="label172" bar:growlevel="0" transform="matrix(1 0 0 1 1375.957 1450.8828)" class="st114 st112 st113">.iml</text>
	<text id="label173" bar:growlevel="0" transform="matrix(1 0 0 1 1249.9863 1432.584)" class="st111 st112 st113">fr</text>
	<text id="label138" bar:growlevel="0" transform="matrix(1 0 0 1 1851.7559 1368.9258)" class="st111 st112 st113">fi</text>
	<text id="label178" bar:growlevel="0" transform="matrix(1 0 0 1 1377.457 1191.3242)" class="st111 st112 st113">GrDG</text>
	<text id="label179" bar:growlevel="0" transform="matrix(1 0 0 1 1641.3955 1227.2344)" class="st111 st112 st113">IMA</text>
	<text id="label194" bar:growlevel="0" transform="matrix(1 0 0 1 1733.5254 1499.4258)" class="st111 st112 st113">eml</text>
	<text id="label191" bar:growlevel="0" transform="matrix(1 0 0 1 1144.3477 2084.2012)" class="st111 st112 st113">DTM</text>
	<text id="label192" bar:growlevel="0" transform="matrix(1 0 0 1 1115.376 1854.6895)" class="st111 st112 st113">3V</text>
	<text id="label218" bar:growlevel="0" transform="matrix(1 0 0 1 1204.2363 1251.8926)" class="st111 st112 st113">sm</text>
	<text id="label18" bar:growlevel="0" transform="matrix(1 0 0 1 1553.6768 1785.623)" class="st111 st112 st113">ZIV</text>
	<text id="label19" bar:growlevel="0" transform="matrix(1 0 0 1 1467.5742 1940.8242)" class="st111 st112 st113">STh</text>
	<text id="label12" bar:growlevel="0" transform="matrix(1 0 0 1 1193.0625 2200.2559)" class="st111 st112 st113">ArcLP</text>
	<text id="label13" bar:growlevel="0" transform="matrix(1 0 0 1 1141.3242 1665.502)" class="st111 st112 st113">RRe</text>
	<text id="label10" bar:growlevel="0" transform="matrix(1 0 0 1 1364.0449 2106.2949)" class="st111 st112 st113">Te</text>
	<text id="label11" bar:growlevel="0" transform="matrix(1 0 0 1 1121.2441 2125.2969)" class="st111 st112 st113">3V</text>
	<text id="label17" bar:growlevel="0" transform="matrix(1 0 0 1 1533.457 1738.6133)" class="st111 st112 st113">ZID</text>
	<text id="label14" bar:growlevel="0" transform="matrix(1 0 0 1 1296.9658 1686.3828)" class="st111 st112 st113">VPPC</text>
	<text id="label15" bar:growlevel="0" transform="matrix(1 0 0 1 1327.1455 1601.7852)" class="st111 st112 st113">OPC</text>
	<text id="label93" bar:growlevel="0" transform="matrix(1 0 0 1 1358.7363 1525.5234)" class="st111 st112 st113">PC</text>
	<text id="label90" bar:growlevel="0" transform="matrix(1 0 0 1 1180.8926 1551.6543)" class="st111 st112 st113">MDM</text>
	<text id="label91" bar:growlevel="0" transform="matrix(1 0 0 1 1145.5537 1437.8047)" class="st111 st112 st113">PVP</text>
	<text id="label97" bar:growlevel="0" transform="matrix(1 0 0 1 1292.7646 2063.4551)" class="st111 st112 st113">f</text>
	<text id="label98" bar:growlevel="0" transform="matrix(1 0 0 1 1237.2949 1897.373)" class="st111 st112 st113">mt</text>
	<text id="label99" bar:growlevel="0" transform="matrix(1 0 0 1 1384.957 1900.8535)" class="st111 st112 st113">ns</text>
	<text id="Unlabeled-2903-1751" bar:growlevel="0" transform="matrix(1 0 0 1 2102.1973 1854.0703)" class="st111 st112 st113">ec</text>
	<text id="label186" bar:growlevel="0" transform="matrix(1 0 0 1 1872.3105 1125.75)" class="st111 st112 st113">Py</text>
	<text id="label185" bar:growlevel="0" transform="matrix(1 0 0 1 1142.918 1088.4258)" class="st111 st112 st113">FC</text>
	<text id="label183" bar:growlevel="0" transform="matrix(1 0 0 1 1142.918 976.1641)" class="st111 st112 st113">IG</text>
	<text id="label182" bar:growlevel="0" transform="matrix(1 0 0 1 1759.4766 1342.5137)" class="st111 st112 st113">IGL</text>
	<text id="label181" bar:growlevel="0" transform="matrix(1 0 0 1 1828.1768 1211.666)" class="st111 st112 st113">SLu</text>
	<text id="label189" bar:growlevel="0" transform="matrix(1 0 0 1 1120.4766 2235.9043)" class="st111 st112 st113">InfS</text>
	<text id="label188" bar:growlevel="0" transform="matrix(1 0 0 1 1378.2646 2137.6133)" class="st111 st112 st113">VTM</text>
	<text id="label69" bar:growlevel="0" transform="matrix(1 0 0 1 1453.0869 962.2129)" class="st111 st112 st113">LMol</text>
	<text id="label68" bar:growlevel="0" transform="matrix(1 0 0 1 1132.7158 1027.6133)" class="st111 st112 st113">cc</text>
	<text id="label66" bar:growlevel="0" transform="matrix(1 0 0 1 1149.3955 827.8438)" class="st111 st112 st113">RSGc</text>
	<text id="label65" bar:growlevel="0" transform="matrix(1 0 0 1 1266.2158 659.334)" class="st111 st112 st113">RSD</text>
	<text id="label64" bar:growlevel="0" transform="matrix(1 0 0 1 1441.5967 662.8145)" class="st111 st112 st113">MPtA</text>
	<text id="label63" bar:growlevel="0" transform="matrix(1 0 0 1 1475.707 993.8926)" class="st111 st112 st113">MoDG</text>
	<text id="label62" bar:growlevel="0" transform="matrix(1 0 0 1 1711.1455 738.0254)" class="st111 st112 st113">LPtA</text>
	<text id="label61" bar:growlevel="0" transform="matrix(1 0 0 1 1884.2754 820.1953)" class="st111 st112 st113">PtPD</text>
	<text id="label60" bar:growlevel="0" transform="matrix(1 0 0 1 2005.7461 939.5938)" class="st111 st112 st113">S1BF</text>
	<text id="label105" bar:growlevel="0" transform="matrix(1 0 0 1 1478.6768 1715.6641)" class="st111 st112 st113">ml</text>
	<text id="Unlabeled-1799-1010" bar:growlevel="0" transform="matrix(1 0 0 1 1127.3467 1167.5215)" class="st111 st112 st113">vBrain</text>
	<text id="label216" bar:growlevel="0" transform="matrix(1 0 0 1 1143.0059 1304.8789)" class="st111 st112 st113">MHb</text>
	<text id="label197" bar:growlevel="0" transform="matrix(1 0 0 1 1682.1064 1020.2344)" class="st111 st112 st113">hif</text>
	<text id="label100" bar:growlevel="0" transform="matrix(1 0 0 1 1335.9053 1940.2129)" class="st111 st112 st113">mfb</text>
	<text id="label78" bar:growlevel="0" transform="matrix(1 0 0 1 1547.1064 1258.1035)" class="st111 st112 st113">LPLR</text>
	<text id="label79" bar:growlevel="0" transform="matrix(1 0 0 1 1480.6553 1413.7441)" class="st111 st112 st113">Po</text>
	<text id="label75" bar:growlevel="0" transform="matrix(1 0 0 1 1461.8467 1108.2539)" class="st111 st112 st113">PoDG</text>
	<text id="label76" bar:growlevel="0" transform="matrix(1 0 0 1 1522.8369 1071.416)" class="st111 st112 st113">CA3</text>
	<text id="label77" bar:growlevel="0" transform="matrix(1 0 0 1 1388.3467 1294.6758)" class="st111 st112 st113">LPMR</text>
	<text id="label70" bar:growlevel="0" transform="matrix(1 0 0 1 1440.1553 930.8926)" class="st111 st112 st113">Rad</text>
	<text id="label71" bar:growlevel="0" transform="matrix(1 0 0 1 1421.5254 864.0254)" class="st111 st112 st113">Or</text>
	<text id="label73" bar:growlevel="0" transform="matrix(1 0 0 1 1371.4863 965.6641)" class="st111 st112 st113">CA1</text>
	<text id="label227" bar:growlevel="0" transform="matrix(1 0 0 1 1176.3652 1046.123)" class="st111 st112 st113">df</text>
	<text id="label48" bar:growlevel="0" transform="matrix(1 0 0 1 1653.7266 1558.9746)" class="st111 st112 st113">VPL</text>
	<text id="label41" bar:growlevel="0" transform="matrix(1 0 0 1 2209.626 2075.1289)" class="st111 st112 st113">Pir-2</text>
	<text id="label40" bar:growlevel="0" transform="matrix(1 0 0 1 2032.5059 1826.3926)" class="st111 st112 st113">LaDL</text>
	<text id="label43" bar:growlevel="0" transform="matrix(1 0 0 1 2182.5059 1832.9941)" class="st111 st112 st113">DLEnt</text>
	<text id="label139" bar:growlevel="0" transform="matrix(1 0 0 1 2006.0742 1411.7344)" class="st111 st112 st113">ic</text>
	<text id="label45" bar:growlevel="0" transform="matrix(1 0 0 1 2220.668 1624.7949)" class="st111 st112 st113">Ect</text>
	<text id="label44" bar:growlevel="0" transform="matrix(1 0 0 1 2191.5059 1757.4551)" class="st111 st112 st113">PRh</text>
	<text id="label47" bar:growlevel="0" transform="matrix(1 0 0 1 1755.457 1550.6328)" class="st111 st112 st113">Rt</text>
	<text id="label46" bar:growlevel="0" transform="matrix(1 0 0 1 2058.6357 1579.8535)" class="st111 st112 st113">CPu</text>
	<text id="label114" bar:growlevel="0" transform="matrix(1 0 0 1 1810.9268 1627.9453)" class="st111 st112 st113">opt</text>
	<text id="Unlabeled-2007-1119" bar:growlevel="0" transform="matrix(1 0 0 1 1299.3955 1249.2715)" class="st111 st112 st113">vBrain</text>
	<text id="Unlabeled-1250-1966" bar:growlevel="0" transform="matrix(1 0 0 1 1570.5117 2095.0195)" class="st111 st112 st113">OlfCx-1</text>
	<text id="label110" bar:growlevel="0" transform="matrix(1 0 0 1 1488.3037 2035.2852)" class="st111 st112 st113">cp</text>
	<text id="label117" bar:growlevel="0" transform="matrix(1 0 0 1 1785.6621 2020.1953)" class="st111 st112 st113">st</text>
	<text id="label111" bar:growlevel="0" transform="matrix(1 0 0 1 1466.1973 2099.5742)" class="st111 st112 st113">a</text>
	<text id="label57" bar:growlevel="0" transform="matrix(1 0 0 1 2182.5352 1224.7441)" class="st111 st112 st113">AuD</text>
	<text id="label54" bar:growlevel="0" transform="matrix(1 0 0 1 1695.5146 1282.1953)" class="st111 st112 st113">DLG</text>
	<text id="label52" bar:growlevel="0" transform="matrix(1 0 0 1 2244.6973 1506.7734)" class="st111 st112 st113">AuV</text>
	<text id="label53" bar:growlevel="0" transform="matrix(1 0 0 1 2227.8955 1361.5742)" class="st111 st112 st113">Au1</text>
	<text id="label113" bar:growlevel="0" transform="matrix(1 0 0 1 1691.9766 1758.4746)" class="st111 st112 st113">ic</text>
	<text id="label58" bar:growlevel="0" transform="matrix(1 0 0 1 2166.2754 1153.0137)" class="st111 st112 st113">S2</text>
	<text id="label59" bar:growlevel="0" transform="matrix(1 0 0 1 2128.2646 1071.2051)" class="st111 st112 st113">S1</text>
	<text id="text3307" bar:growlevel="0" transform="matrix(1 0 0 1 1449.0645 873.2637)" class="st111 st112 st113">Py</text>
	<text id="label92" bar:growlevel="0" transform="matrix(1 0 0 1 1128.9023 1472.0234)" class="st111 st112 st113">PoMn</text>
	<text id="label208" bar:growlevel="0" transform="matrix(1 0 0 1 1359.0059 1786.6426)" class="st111 st112 st113">scp</text>
	<text id="label42" bar:growlevel="0" transform="matrix(1 0 0 1 2192.1787 2028.4395)" class="st111 st112 st113">Pir-3</text>
	<text id="label23" bar:growlevel="0" transform="matrix(1 0 0 1 1130.3467 1592.4258)" class="st111 st112 st113">CM</text>
	<text id="label20" bar:growlevel="0" transform="matrix(1 0 0 1 1384.623 2008.7949)" class="st111 st112 st113">PSTh</text>
	<text id="label27" bar:growlevel="0" transform="matrix(1 0 0 1 1921.1768 1707.623)" class="st111 st112 st113">LV</text>
	<text id="label24" bar:growlevel="0" transform="matrix(1 0 0 1 1284.5146 1895.2754)" class="st111 st112 st113">PLH</text>
	<text id="label29" bar:growlevel="0" transform="matrix(1 0 0 1 1639.8955 2151.2051)" class="st111 st112 st113">PMCo</text>
	<text id="label49" bar:growlevel="0" transform="matrix(1 0 0 1 1564.8955 1523.4531)" class="st111 st112 st113">VPM</text>
	<text id="text3309" bar:growlevel="0" transform="matrix(1 0 0 1 1848.958 1086.3457)" class="st111 st112 st113">Py</text>
	<text id="Unlabeled-1747-1626" bar:growlevel="0" transform="matrix(1 0 0 1 1134.0967 1993.7188)" class="st111 st112 st113">PHD</text>
	<text id="label155" bar:growlevel="0" transform="matrix(1 0 0 1 1312.8037 800.7246)" class="st111 st112 st113">cg</text>
	<text id="label159" bar:growlevel="0" transform="matrix(1 0 0 1 1429.7461 824.7246)" class="st111 st112 st113">alv</text>
	<text id="label230" bar:growlevel="0" transform="matrix(1 0 0 1 1138.8398 2167.1074)" class="st111 st112 st113">ArcMP</text>
</g>
</svg>
