<?xml version="1.0" encoding="utf-8"?>
<!-- Generator: Adobe Illustrator 24.1.1, SVG Export Plug-In . SVG Version: 6.00 Build 0)  -->
<svg version="1.1"
	 id="body" inkscape:version="0.47pre4 r22446" sodipodi:docname="185_pretrace_pretrace_v1.svg" xmlns:bar="http://www.3dbar.org" xmlns:cc="http://creativecommons.org/ns#" xmlns:dc="http://purl.org/dc/elements/1.1/" xmlns:inkscape="http://www.inkscape.org/namespaces/inkscape" xmlns:rdf="http://www.w3.org/1999/02/22-rdf-syntax-ns#" xmlns:sodipodi="http://sodipodi.sourceforge.net/DTD/sodipodi-0.dtd" xmlns:svg="http://www.w3.org/2000/svg"
	 xmlns="http://www.w3.org/2000/svg" xmlns:xlink="http://www.w3.org/1999/xlink" x="0px" y="0px" viewBox="0 0 3024 3024"
	 style="enable-background:new 0 0 3024 3024;" xml:space="preserve">
<style type="text/css">
	.st0{fill:#FF000C;}
	.st1{fill:#8600FF;}
	.st2{fill:#59FFF2;}
	.st3{fill:#23F460;}
	.st4{fill:#B2FFC1;}
	.st5{fill:#4CA6C7;}
	.st6{fill:#B88EF2;}
	.st7{fill:#00FFAF;}
	.st8{fill:#85EFB9;}
	.st9{fill:#2CFFEA;}
	.st10{fill:#4CBEE7;}
	.st11{fill:#47FF7C;}
	.st12{fill:#530BC7;}
	.st13{fill:#2CDFD0;}
	.st14{fill:#00EFD6;}
	.st15{fill:#00CFBB;}
	.st16{fill:#C49AFA;}
	.st17{fill:#B2FFE4;}
	.st18{fill:#E500D0;}
	.st19{fill:#FFB2BA;}
	.st20{fill:#B2FFCC;}
	.st21{fill:#59FF90;}
	.st22{fill:#85FFC1;}
	.st23{fill:#00C2FF;}
	.st24{fill:#FF59A4;}
	.st25{fill:#9F76E9;}
	.st26{fill:#00FFF3;}
	.st27{fill:#59CB88;}
	.st28{fill:#FF5974;}
	.st29{fill:#2CEFDD;}
	.st30{fill:#85FFF5;}
	.st31{fill:#85DFD7;}
	.st32{fill:#00FF6B;}
	.st33{fill:#00FFA3;}
	.st34{fill:#00CF69;}
	.st35{fill:#98E4FF;}
	.st36{fill:#B2FFE5;}
	.st37{fill:#8053D0;}
	.st38{fill:#B79AE5;}
	.st39{fill:#00B4EF;}
	.st40{fill:#8EDFA5;}
	.st41{fill:#B2FFC2;}
	.st42{fill:#8EE9A9;}
	.st43{fill:#00FF34;}
	.st44{fill:#00F448;}
	.st45{fill:#23DF5A;}
	.st46{fill:#3B95EF;}
	.st47{fill:#650BE1;}
	.st48{fill:#8553C7;}
	.st49{fill:#5523C7;}
	.st50{fill:#33C2F7;}
	.st51{fill:#7FBACF;}
	.st52{fill:#00EFC8;}
	.st53{fill:#B2FFBB;}
	.st54{fill:#66B0C7;}
	.st55{fill:#00D7F2;}
	.st56{fill:#B2FFE7;}
	.st57{fill:#00FFD5;}
	.st58{fill:#9A76E5;}
	.st59{fill:#6B3BC3;}
	.st60{fill:#885FC3;}
	.st61{fill:#BA9AE9;}
	.st62{fill:#7923FF;}
	.st63{fill:#E359E9;}
	.st64{fill:#4CC7EF;}
	.st65{fill:#00EF7A;}
	.st66{fill:#232323;enable-background:new    ;}
	.st67{font-family:'TimesNewRomanPSMT';}
	.st68{font-size:27px;}
</style>
<sodipodi:namedview  bordercolor="#666666" borderopacity="1" gridtolerance="10" guidetolerance="10" id="namedview318" inkscape:current-layer="content" inkscape:cx="554.67236" inkscape:cy="481.12532" inkscape:object-paths="true" inkscape:pageopacity="0" inkscape:pageshadow="2" inkscape:window-height="1027" inkscape:window-maximized="1" inkscape:window-width="1680" inkscape:window-x="0" inkscape:window-y="0" inkscape:zoom="6.3282683" objecttolerance="10" pagecolor="#ffffff" showgrid="false">
	</sodipodi:namedview>
<desc  id="desc5">This was produced by version 4.2 of GNU libplot, a free library for exporting 2-D vector graphics.</desc>
<defs>
	<rdf:RDF>
		<cc:Work  rdf:about="">
			<dc:format>image/svg+xml</dc:format>
			<dc:type  rdf:resource="http://purl.org/dc/dcmitype/StillImage"></dc:type>
		</cc:Work>
	</rdf:RDF>
	<bar:data  content="-13.08" name="coronalcoord"></bar:data>
	
		<bar:data  content="{&apos;ReferenceHeight&apos;: 900, &apos;ReferenceWidth&apos;: 1200, &apos;imageSize&apos;: (1200, 900)}" name="rendererConf">
		</bar:data>
	
		<bar:data  content="{&apos;DumpEachStepSVG&apos;: False, &apos;DumpEachStepPNG&apos;: False, &apos;GrowDefaultBoundaryColor&apos;: 200, &apos;CacheLevel&apos;: 5, &apos;NewPathIdTemplate&apos;: &apos;structure%d_%s_%s&apos;, &apos;PoTraceConf&apos;: {&apos;potrace_accuracy_parameter&apos;: &apos;0.001&apos;, &apos;potrace_width_string&apos;: &apos;1200pt&apos;, &apos;potrace_svg_resolution_string&apos;: &apos;300x300&apos;, &apos;potrace_height_string&apos;: &apos;900pt&apos;}, &apos;DetectUnlabelled&apos;: True, &apos;DumpVBrain&apos;: False, &apos;DumpWrongSeed&apos;: True, &apos;DumpDirectory&apos;: &apos;.&apos;, &apos;MinFiterTimesApplication&apos;: 3, &apos;RegionAlreadyTraced&apos;: 100, &apos;UnlabelledTreshold&apos;: 500}" name="tracingConf">
		</bar:data>
	<bar:data  content="0.0176211454,-9.5150660793,0.0176211454,-1.5355884426" name="transformationmatrix"></bar:data>
</defs>
<g id="content">
	<path class="st0" d="M2166,1148.7c-5.6-17-23.5-48-42.2-72.8c-15.7-20.9-25.8-32.3-50.4-56.8c-50.8-50.7-104.2-89.8-170.7-125.3
		c-82.3-43.8-158.4-65.1-224.9-63c-26.1,0.8-48.1,5.1-69.8,13.8c-24.5,9.5-38.6,18.6-50.1,32.2c-4.9,5.8-11.9,10.2-17.5,11
		c-5.8,0.8-9.6-0.9-13.3-5.9c-5.6-7.6-16.9-17.3-30.5-26.2c-7.2-4.7-13-8.9-13-9.4c-0.1-0.5,3.8-0.9,10.1-0.9
		c8.4,0,10.8-0.4,14.2-1.9c10-4.7,13.6-14,10.5-27.5c-1.5-6.6-14.9-33.6-21.9-43.9c-14.3-21.5-31.1-36-56-48.4
		c-30.6-15.4-87.8-27.8-145-31.7c-7.9-0.5-33.6-0.8-59.6-0.8v1531.5c3.3-0.3,5.7-2,6.9-5.3c0.8-2,1.7-3.6,2.1-3.6s5,2.3,10.3,5
		c5.2,2.7,10.2,4.9,11,4.9c1.1,0,1.3,0.7,0.8,4c-1.3,8.9,7.3,14.7,14.7,9.9c3.7-2.4,4.7-4.1,4.1-7l-0.5-2.5l13.8,0.6
		c30.6,1.3,87-3.4,111.4-9.5c13.6-3.4,19.3-6.7,30.8-17.6c14.7-13.9,20.4-16,42.2-15.2c28.5,1.2,42.5-3.2,116.1-37.2
		c50.5-23.2,63.1-29.3,85.5-41.1c66.2-35,110.8-68.7,134.4-101.3c7.1-9.9,30.5-56.2,39.8-78.6c11.5-28,20.6-57.4,24.7-80.2
		c5.4-30.7,4.8-62.9-1.9-94c-9.2-43-19.9-69.1-38.6-93.8c-10.5-13.9-33.2-35.4-43.9-41.8c-4.4-2.6-3.7-4.3,1.5-3.6
		c14,2,19.2,2.4,24,1.9c15.1-1.6,33.6-8.6,41.3-15.8c2.3-2.1,5.2-6.1,6.6-8.9c2.3-4.6,2.5-5.9,2.4-15.2c0-7.6,0.3-10.1,1.2-10.1
		c0.6,0,3.2,1.6,5.9,3.6c15.1,11.5,40,19.8,59.6,19.8c33.1,0,81.8-18.9,104.4-40.4c27-25.9,51.4-81,46.4-104.9
		c-1.4-7-4.3-13.3-8.4-18.7c-5.3-6.8-5.2-6.9,7.9-8.7c11.9-1.6,15.5-3.2,21.7-9.4c6.4-6.5,12.2-16.5,20.4-34.7
		c19-42.7,29.9-81.6,36.4-130.6c1.3-9.3,1.6-18.3,1.6-39.1C2172.3,1174.1,2171.2,1164.7,2166,1148.7z"/>
	<path id="structure103_label115_py" bar:growlevel="0" bar:type="" class="st1" d="M1385.2,2174.9c-2.3,0.2-10.4,1.2-18,2.2
		c-12.7,1.6-44.6,3.6-82.4,4.9c-11.7,0.4-16,0.3-22.9-1c-13.8-2.6-15.6-2.7-17.4-0.6c-1.4,1.6-1.6,3.3-1.4,15.9l0.3,14.1l2.7,2.2
		c4.1,3.3,18.2,10,24.3,11.5c17.7,4.4,61.5,4.4,101.7,0c15-1.6,35.9-5.1,42.8-7.2c10.6-3.1,27.2-14.3,25.9-17.6
		c-0.5-1.4-17.8-11.3-34.5-19.7C1397.1,2175,1393.3,2174.1,1385.2,2174.9z"/>
	<path id="structure107_label120_sol" bar:growlevel="0" bar:type="" class="st2" d="M1450,1634.8c0,0.7,1.2,3.1,2.6,5.1
		c3.2,4.7,6.8,12,7.6,15.1c1.3,5.1-5.4,24.7-9.8,28.8c-3.8,3.5-2.9,4.8,2.9,4.1c11.7-1.3,24.9-8.7,32.8-18.3
		c5-5.9,13.1-12.1,20.3-15.3c9.4-4.1,9.3-4.2-19.5-12.5c-13.2-3.9-32.6-8.5-35.6-8.5C1450.7,1633.4,1450,1634,1450,1634.8z"/>
	<path class="st3" d="M2094.5,1157.7c-12.6-26.7-39.5-67.2-68.1-102.2c-28.9-35.5-64.3-70.3-97.6-96.2
		c-50.9-39.6-109.6-69.5-168-85.5c-62.5-17.1-115.5-16.3-151.5,2.3c-17,8.7-28.7,19.7-48.1,44.9c-11.8,15.4-17,20.8-22.9,23.8
		c-7.7,4-14.5,1.2-21.1-8.7c-2.3-3.4-4.8-6.8-5.6-7.7c-2.3-2.3-6.5-1.7-12.2,1.8c-8.2,5-10.2,4.9-24.8-0.8
		c-27.5-10.8-46.6-14.5-75.1-14.5c-15.1,0-21.3,0.4-34.6,2.4c-37.2,5.4-58.9,6.5-129.1,6.5v55.4c7.8,0,33.1-2.8,76.9-8.5
		c49.8-6.5,61.3-7.7,105.8-11.4c30.7-2.6,64.6-2.9,74.7-0.5c12.6,2.9,14.8,4.5,27.6,20.3c13.3,16.4,36,39.9,50.2,52.2
		c47.1,40.6,159.1,109.8,210.6,130.1c25,9.9,51.6,12.2,74.1,6.5c12.4-3.1,45.6-15.8,52.2-19.7c13.2-8,18-17.5,20-39.2
		c3.7-42.8,9.4-59.1,18.8-53.9c5.8,3.2,6.9,18.5,3.6,46.7c-5.1,43.9-3,63,12.9,113.8c4.6,14.7,7.7,21,16.8,33.1
		c4,5.4,7.3,10.6,7.3,11.5c0,2.2-3.2,3.5-6.3,2.6c-7.1-2.1-16.3-8.6-30.2-21.5c-21.3-19.9-37.6-32.6-49.7-38.7
		c-9.5-4.8-14.3-5.7-31.3-5.6c-14.7,0-22.8,0.5-64.3,4.6c-29.4,2.8-38.2,2.2-47.7-3.3c-12.4-7.2-13.5-7.6-20.4-7.2
		c-7.6,0.4-12.7,3.1-15.2,8c-2.3,4.4-2.7,15.5-0.8,21.9c3.5,12.2,9.4,21.4,27.1,42.8c6.2,7.6,20.4,25.5,31.7,39.9
		c23.7,30.3,30.2,38.3,44,53.7c16.3,18.2,22.1,22.4,42.1,30.5c30.1,12.2,47.8,23.3,50.4,31.5c1.7,5.5-3,9.4-9.6,7.9
		c-4.6-1-9.1-3.2-19.2-9.7c-4.4-2.8-12.8-7.6-18.4-10.8c-22.6-12.4-30.2-18.8-60.2-50.4c-18.7-19.9-24.8-26.7-59-68.4
		c-44.3-53.7-61.6-74-81-94.9c-61.6-66.4-96.1-110.2-120.3-152.1c-3.8-6.5-10.5-18.2-15.1-26.1c-11.2-19.3-15.6-25.7-22.4-33
		c-14.9-15.9-24.6-18.1-67.7-14.7c-36.1,2.9-61.3,6.7-85.9,13c-32.2,8.3-76.1,13-122,12.9v31.9c4.1,0,7.9,0,11.3-0.1
		c46.2-1.5,123.5-10,179.4-19.5c34.3-5.8,52.1-2.2,69.7,14.4c9.5,8.9,14.7,15.9,31.9,43.5c32,51.3,54.4,84.4,78.9,116.8
		c19.3,25.3,37.4,45.8,69.5,78.2c27.6,28,47.7,47,89.6,84.7c16.1,14.6,36.6,33.1,45.7,41.3c20.3,18.4,31.1,26.9,38.3,30.7
		c14.8,7.8,17.9,11.2,27.9,31.1c3.2,6.4,7.5,14.2,9.4,17.4c4.6,7.5,12.1,14.9,17.7,17.7c13.5,6.6,35.5,1.9,46.2-9.8
		c5.9-6.5,10.2-14.8,16-31.6c3.9-11.1,4.9-15.2,4.9-19.5c0-10.1-3.1-13.6-21.7-24.8c-29.4-17.6-51.8-27.4-69.4-30.4
		c-14.2-2.4-22.2-5.8-38.5-15.9c-30.8-19.4-41.2-29.9-53-53.6c-5.2-10.3-11.6-28.6-12.4-35.4c-0.9-8,4.4-15.8,16.4-24
		c3.8-2.6,15.7-6.2,24.7-7.5c17.5-2.6,43.9,0.4,60.8,6.7c20.3,7.6,46.5,25.4,97.3,65.3c46,36.2,56.2,41.9,71.1,39.4
		c7.5-1.2,22.1-8.8,27.9-14.7c10.8-10.7,18.4-32.9,24.3-71.1c1.3-8.5,3.6-20.6,5.1-27C2110,1203.8,2107.4,1185.2,2094.5,1157.7z"/>
	<path class="st4" d="M1472.5,789.3c-13.3-27.6-32.2-41.7-67.7-50c-23.2-5.5-74.3-13-114.6-16.8c-5.6-0.5-31.7-1-54.5-1.3v66.3
		c24.8,0.1,50,1.1,77.8,3c30.6,2.2,38.4,3,82.4,8.6c65.6,8.5,73.6,9.2,78.7,7.2C1478.4,804.9,1477.9,800.3,1472.5,789.3z"/>
	<path class="st5" d="M2166,1152.3c-5.3-18.4-22.4-48.6-42.6-75.6c-70.3-93.9-197.1-183.6-315.6-223.2
		c-91.7-30.7-170.6-28.9-227.2,5.2c-8.7,5.2-15.2,10.8-24.1,20.8c-6.8,7.6-18.6,11.5-24.6,8.2c-1.3-0.6-4.5-4-7.3-7.4
		c-6.2-7.6-14.7-14.8-27.4-23.2c-17.4-11.5-25.1-15.4-34.7-17.5c-26.4-5.8-56.2-9.1-95.4-10.8c-8.6-0.4-70.4-0.6-131.4-0.7v94.6
		c0.3,0,0.6,0,0.9,0c62.8-0.1,97.5-1.9,129.1-6.8c17.1-2.7,41.9-3.2,57-1.4c18.8,2.4,37.8,7.6,55.1,14.9c9.7,4.1,14.2,4,21.4-0.5
		c5.9-3.6,9.8-4.3,12.4-2.2c0.8,0.6,3.1,3.8,5,6.8c8.4,13.2,15.9,15.1,26.6,6.6c2.4-1.8,9.5-10.2,15.9-18.5
		c20.1-26.2,34.3-39.2,52.2-48c36.7-18,91.4-18,153.3,0c115.8,33.8,215.4,109.9,296.9,227.2c23.4,33.6,38.1,61.9,44.5,85.9
		c3.1,11.3,2.9,26.9-0.4,39.2c-1.3,4.9-3.4,15.8-4.7,24.3c-6.1,39.9-13.5,62.3-24,73.8c-7.7,8.4-25.7,17.5-34.6,17.6
		c-4.9,0-13.9-2.9-20.4-6.5c-8-4.6-18.5-12.2-50.6-37.3c-65.1-50.6-82.5-61.1-111.1-67c-22.4-4.6-50.9-2.6-64.9,4.5
		c-5.8,3-14.9,12.2-16.7,16.8c-1.9,4.8-1.3,9.1,3.3,23c6,18.4,16.7,37.2,27.8,48.4c9.4,9.4,40.9,30.3,53.6,35.4
		c3.2,1.3,10.5,3.2,16.3,4.2c12.6,2.3,23,5.9,41.2,14.7c16.7,8.1,41.8,23,46.4,27.5c4.3,4.3,6.7,11.2,5.8,17.1
		c-0.8,5.5-8.7,27.7-12.8,35.9c-8.6,17.5-25,27.2-43.9,26c-16.2-1.1-24.8-9.5-40-39.2c-9.3-18.3-12.4-21.9-24.6-28.5
		c-10.7-5.9-18.7-12.2-40.3-31.6c-8.6-7.9-28.1-25.4-43.2-39c-93.7-84.6-134-126.7-175.9-184.1c-14-19.2-43.2-63-62.3-93.6
		c-19.3-30.8-23.6-37.1-31-45c-12.2-13-25.7-19.2-44-20c-9-0.5-12.9-0.1-29.7,2.8c-44.3,7.3-87.5,12.7-139.9,17.2
		c-14.1,1.2-32.9,2-49.9,2.1v40.9c14.9,0.1,27.5-0.3,42.3-1c95.1-4.7,110.3-5.6,132.8-7.8c35.2-3.6,53.9,0.5,69.4,15.2
		c9.4,8.8,14.5,16.8,29.2,45.6c22.7,44.3,59.6,101.6,89.5,139.1c34.8,43.5,69.3,75.2,121.1,111.1c42.1,29.3,50.1,36.8,74.3,70.7
		c20.6,28.9,48.1,71.3,66.1,102.1c10.1,17.2,15.4,23.6,25.3,30.1c17.5,11.7,35.8,17.2,56.7,17.1c21.3-0.1,46.1-6.5,69.8-17.9
		c19.6-9.4,31.6-18.2,41.6-30.4c21.7-26.6,38.1-64.2,38.2-87.5c0-12.7-4.9-24.5-13.1-31.8l-2.9-2.5l13.5-2.1
		c16.2-2.3,20.4-4.3,26.8-12.1c7.7-9.6,22-40.1,31.7-68C2170.6,1271.5,2178.1,1194.3,2166,1152.3z"/>
	<path id="structure110_label127_sp5" bar:growlevel="0" bar:type="" class="st6" d="M1622.7,1592c-21.1,2.5-22.4,22.7-2.1,32
		c3.5,1.5,9.5,3.7,13.5,4.8c10.3,2.8,26.5,11.1,44,22.5c10.1,6.7,16.4,10.2,18.7,10.5c2.4,0.4,4.2,1.5,6.2,3.9
		c4.6,5.3,16,15.1,24.2,20.7c9.2,6.3,17.3,10.5,36,18.5c29.5,12.7,41.1,21.6,49.5,38.3c4.3,8.6,6.7,15.5,9.2,27.1
		c1.9,8.6,2.1,11.7,2.1,35c0,15.6-0.4,29.3-1.2,35.1c-4.5,36.6-12.9,66.3-24.2,85.7c-7.5,12.8-34.7,41.8-50.4,53.6
		c-7.3,5.6-7.4,5.6-7.9,10.5c-1.2,9.3,1.9,15.9,8.7,19.3c7.7,3.7,17.7,1.8,28.2-5.3c6.8-4.5,22.7-20.9,30.5-31.3
		c29.1-38.7,43.5-75.1,50.7-128c2.3-17.5,2.3-75.8,0-90.7c-3.8-24.1-15.6-49.9-32.9-72.2c-11.7-14.8-31-32.7-47.4-43.5
		c-8.6-5.7-44.7-24.1-56.2-28.7C1686.7,1595.7,1649.1,1588.9,1622.7,1592z M1705.6,1618.5c3.6,4.4,3,21.4-1.2,28.8
		c-3.6,6.4-7.6,6.9-13,2c-3.7-3.4-5.9-14.6-3.9-19.8C1690.5,1621.8,1702.4,1614.6,1705.6,1618.5z M1785.5,1664.6
		c6.1,2.9,8.5,11.3,5,18.2c-2.5,5-5.5,6.6-13.1,7.1c-6,0.4-7.3,0.2-11.8-2.1c-10.5-5.1-13.4-16.3-5.5-21.5
		C1766.3,1662.2,1778.7,1661.4,1785.5,1664.6z"/>
	<path id="structure112_label129_LRt" bar:growlevel="0" bar:type="" class="st7" d="M1545.6,2071c-1.6,0.4-4.1,2.3-5.6,4
		c-2.4,2.7-2.7,3.7-2.7,9.2c0,15.2,9.2,25.5,23,25.7c4.8,0.1,5.9-0.3,7.9-2.1c3.3-3.1,4.4-7.4,4-15.3c-0.4-7.7-2.4-12.4-7.2-16.9
		C1559.7,2070.3,1552.7,2068.7,1545.6,2071z"/>
	<path id="structure114_label132_InM" bar:growlevel="0" bar:type="" class="st8" d="M1335.2,1703.7c3.9,13.5,5,24,5,44.1
		c0,14.9,0.5,15.9,4.8,9.3c3.8-6,13.7-18,21.6-26.3c4.2-4.4,6.9-7.9,6.7-8.6c-0.3-0.7-3-4.8-6-9c-4.1-5.8-6.3-8-8.5-8.7
		c-3.2-1-16.1-2.7-21.2-2.7C1334.9,1701.8,1334.7,1701.9,1335.2,1703.7z"/>
	<path id="structure118_label137_SolI" bar:growlevel="0" bar:type="" class="st9" d="M1451.2,1645.1c-2.9,1.2-4.9,5.6-5.4,12.4
		c-0.7,9.3,2.2,25.4,4.7,25.4c2.3,0,8.3-15,9.2-23.5c0.4-4.2,0.1-5.9-1.8-10.2C1455.5,1644.1,1454.8,1643.6,1451.2,1645.1z"/>
	<path id="structure119_label138_PSol" bar:growlevel="0" bar:type="" class="st10" d="M1420.2,1615.5c-6.7,1-8.8,2.2-8.8,4.8
		c0,4.6,3,6.6,13.6,9.1c5.5,1.3,14.3,2.7,19.6,3.2c12.5,1,26.4,4.1,50.5,11.3c10.6,3.2,20.1,5.8,21.1,5.6c1.3-0.2,1.9-1.1,2.1-2.9
		c0.3-2.1-0.5-3.3-4-6.8c-5.1-4.9-20.4-13-31.3-16.6C1461.6,1616.2,1436.3,1613.1,1420.2,1615.5z"/>
	<path class="st11" d="M1792.6,1532.2c-8.8-22.5-28.4-63.6-37.9-79.6c-13.1-22-30.8-36.9-51.1-43.3c-5-1.6-13-4.1-17.5-5.6
		c-10.4-3.3-22.1-9.4-32.9-16.9c-25.3-17.7-73.8-75.2-110.9-131.2c-16.4-24.8-24.3-39.5-39.2-73.2c-9.7-22.1-19.9-42.2-25.6-50.9
		c-5.9-8.9-16.3-18.9-23.1-22.1c-7.2-3.5-13.2-4.9-26.5-6.1c-12.9-1.1-23.6-0.4-46.3,2.7c-17.6,2.5-34.6,3.3-94.7,4.6
		c-19.3,0.4-35.2,0.5-51.1,0.5v38.6c10.3,0.2,25.1,0.6,44.1,1.4c12.2,0.4,40.9,1.3,63.9,1.7c51.2,1,61.2,2,81,8.3
		c16.3,5.2,34.7,15.2,44.7,24.3c5.4,4.9,12.7,16.4,25.7,39.9c5.8,10.4,16,29,22.8,41.4c47.9,87,85.2,134.1,140.6,177.5
		c11.6,9.1,34.6,24.6,49.2,33.1c5.8,3.4,10.2,6.4,9.6,6.6c-0.5,0.2-5.6-1-11.2-2.5c-39.9-11.3-68.3-29.8-109.6-71
		c-31.4-31.5-45-50.5-92.7-129.4c-11.7-19.4-24-39.2-27.5-44c-18.9-27.2-37.4-45.2-52.5-50.9c-10.8-4.1-32.8-7.7-60.4-10.2
		c-31.6-2.8-56.8-3.5-127.8-3.5v47.2c4.8,0,9.4,0.3,16.5,0.9c21.4,1.7,94.8,1.7,106.8,0c19.6-2.9,34.8-0.9,50.1,6.7
		c13.4,6.6,18.7,11.4,36.3,32.7c5.6,6.8,8.5,8.9,22.2,16.7c18.5,10.4,27.7,18.6,38.3,34.5c9.2,13.6,29,48.9,39.2,69.6
		c12.8,26,16.8,32.3,39.1,60.8c19.8,25.4,25.8,32.1,34.8,39.2c8.1,6.5,14.4,9.7,27.9,14.4c19.5,6.7,47.8,19.8,80.6,37.4
		c18.8,10.1,29.1,17.1,39.4,27.1c7.2,6.8,10.3,9.2,13.1,10c5,1.4,9.2,0,12.6-4.2C1798.9,1557.9,1798.8,1548.2,1792.6,1532.2z"/>
	<path id="structure120_label139_Z" bar:growlevel="0" bar:type="" class="st12" d="M1420.2,1615.5c-6.7,1-8.8,2.2-8.8,4.8
		c0,4.6,3,6.6,13.6,9.1c5.5,1.3,14.3,2.7,19.6,3.2c12.5,1,26.4,4.1,50.5,11.3c10.6,3.2,20.1,5.8,21.1,5.6c1.3-0.2,1.9-1.1,2.1-2.9
		c0.3-2.1-0.5-3.3-4-6.8c-5.1-4.9-20.4-13-31.3-16.6C1461.6,1616.2,1436.3,1613.1,1420.2,1615.5z"/>
	<path id="structure121_label140_SolVL" bar:growlevel="0" bar:type="" class="st13" d="M1482.9,1673.9c-0.8,0.9-3.5,3.1-5.9,4.7
		c-2.4,1.6-4.4,3.6-4.4,4.4c0,2,8.2,9.4,16.1,14.7c6.8,4.6,20.8,11.4,26.8,13.1c3.6,1.1,4,1,9.8-2.3c7.8-4.3,16.6-11.1,16.6-13
		c0-1-1.7-1.9-6.1-2.9c-8.3-2.1-20.7-7-36-14.4c-7-3.4-13.3-6.2-14-6.2C1485.1,1672.1,1483.8,1672.9,1482.9,1673.9z"/>
	<path id="structure122_label141_SolDL" bar:growlevel="0" bar:type="" class="st14" d="M1381.6,1617.9c0,2.4,6.1,10.9,12,16.7
		c7.5,7.2,16.6,11.6,25.2,12.2c4.6,0.3,7.3,0,8.8-0.8c1.4-0.8,5.8-1.2,13.8-1.3c8.6,0,11.7-0.3,12.1-1.2c0.2-0.6-0.9-3.1-2.5-5.6
		c-3.1-4.8-3.1-4.8-13.5-5.8c-7.3-0.7-20-4.1-38.3-10.4c-8.9-3.1-16.5-5.5-16.8-5.5C1381.9,1616.3,1381.6,1617,1381.6,1617.9z"/>
	<path id="structure123_label142_SolIM" bar:growlevel="0" bar:type="" class="st15" d="M1426.8,1646.6c-3.7,1.8-9.4,8.2-11.8,13.2
		c-4.1,8.3-4.1,19.5-0.2,24.8c3.4,4.7,6.9,5.8,17.2,5.8c6.8,0,10.2-0.5,12.2-1.5c5.1-2.6,5.3-3.3,3.2-11.9c-2.4-9.4-2.7-21.1-0.6-26
		c2.4-5.9,2.4-5.9-7.7-5.9C1432.4,1645.1,1429,1645.5,1426.8,1646.6z"/>
	<path id="structure124_label143_vert" bar:growlevel="0" bar:type="" class="st16" d="M1266.9,2227.3c-1.3,2.1,0.5,7.2,3.2,9.5
		c3.4,3,7.7,3.1,11.7,0.3c4-2.7,4.6-6.2,1.3-8.4C1280.1,2226.7,1267.9,2225.7,1266.9,2227.3z"/>
	<path id="structure125_label144_IODM" bar:growlevel="0" bar:type="" class="st17" d="M1243.2,2099.1l-3,1.3l0.5,7.5
		c0.4,4.1,0.9,11.7,1.2,16.9c0.5,7.4,0.9,9.4,2,9.6c1.4,0.3,13.9-15.7,17.1-22c2.5-4.9,2-9.6-1.4-12.6c-1.9-1.6-3.4-2-7.9-2
		C1248.7,2097.9,1244.8,2098.4,1243.2,2099.1z"/>
	<path class="st18" d="M1241.5,2211.9c-1.3-1.2-3.6-1.9-5.7-2v12.1c4.3,0,7.2-2.4,7.2-6.1C1243,2214.4,1242.3,2212.6,1241.5,2211.9z
		"/>
	<path class="st19" d="M1518.3,816c-1.5-6.6-14.9-33.6-21.9-43.9c-14.3-21.5-31.1-36-56-48.4c-30.6-15.4-87.8-27.8-145-31.7
		c-7.9-0.5-33.6-0.8-59.6-0.8v30c22.8,0.2,48.8,0.7,54.5,1.3c40.3,3.9,91.3,11.3,114.6,16.8c16.5,3.9,30,9.3,39.8,15.9
		c6,4.1,14.9,13,19.4,19.2c5.7,7.9,13,23.4,13,27.6c0,7.3-1.8,7.2-81-3c-52.7-6.8-72.9-8.5-124.2-10.9c-10.9-0.5-23-0.7-36-0.7v40.7
		c59.8-0.1,117.7,0.1,131,0.7c51.4,2.3,97.1,8.6,109.1,15.3c4.7,2.5,7.5,3.3,7.5,1.9c0-0.4,4.6-0.6,10.2-0.6
		c8.4,0,10.8-0.4,14.2-1.9C1517.7,838.8,1521.3,829.5,1518.3,816z"/>
	<path class="st19" d="M1873.1,1560.9c-2-2-7.6-10.7-12.8-19.4c-18.1-30.9-45.4-73.3-66.1-102.1c-24.1-33.9-32.1-41.5-74.3-70.7
		c-51.8-35.9-86.2-67.6-121.1-111.1c-30-37.4-66.9-94.8-89.5-139.1c-14.7-28.8-19.8-36.8-29.2-45.6c-15.5-14.7-34.2-18.8-69.4-15.2
		c-22.4,2.3-37.6,3.1-132.8,7.8c-14.8,0.7-27.4,1.1-42.3,1v44.5c15.9,0,31.8-0.2,51.1-0.5c60-1.3,77-2.1,94.7-4.6
		c22.7-3.2,33.4-3.8,46.3-2.7c13.2,1.2,19.3,2.6,26.5,6.1c6.8,3.2,17.2,13.2,23.1,22.1c5.7,8.6,15.8,28.8,25.6,50.8
		c14.9,33.7,22.9,48.3,39.2,73.2c37.1,56,85.6,113.5,110.9,131.2c10.8,7.6,22.5,13.6,32.9,16.9c4.5,1.4,12.4,4,17.5,5.6
		c20.3,6.4,38,21.3,51.1,43.3c9.5,16,29.1,57.2,37.9,79.7c6.2,16,6.3,25.6,0.3,33c-3.4,4.2-7.6,5.6-12.6,4.2
		c-2.9-0.8-5.9-3.2-13.1-10c-10.3-10-20.6-17-39.4-27.1c-32.9-17.6-61.1-30.8-80.6-37.4c-13.5-4.7-19.8-7.9-27.9-14.4
		c-9-7.1-15-13.9-34.8-39.2c-22.2-28.5-26.3-34.8-39.1-60.8c-10.3-20.7-30.1-56-39.2-69.6c-10.5-15.8-19.7-24-38.3-34.5
		c-13.8-7.8-16.6-10-22.2-16.7c-17.6-21.2-22.9-26.1-36.3-32.7c-15.3-7.6-30.5-9.5-50.1-6.7c-12.1,1.7-85.4,1.7-106.8,0
		c-7.1-0.6-11.6-0.9-16.5-0.9v55.9c49.6,0.1,99.6,0.3,104.4,0.7c5.7,0.4,15.2,1.3,21.1,1.9c5.9,0.5,26.4,1.1,45.5,1.2l34.6,0.1
		l6.1,2.4c3.3,1.3,8.7,4,11.9,5.7c6.9,3.9,7.3,5.3,3,11.8c-3.8,5.6-9.5,9.8-15.4,11.6c-2.6,0.8-14.4,3.1-26.3,5
		c-11.9,2-27.9,4.9-35.6,6.7c-14.8,3.2-32.6,6.5-50.8,9.2c-9.4,1.4-15.2,1.5-43.7,1.2c-18.1-0.3-42.8-0.4-54.9-0.4v85.1
		c73,0,100.2-1.2,132.8-5.8c29-4.1,33.9-4.4,71.1-4.5c35.3,0,36.1,0,42.8,2.1c13.5,4.3,22.9,10.3,35.4,22.8c4.8,4.9,8.7,9.4,8.7,10
		c0,0.9-6.1,1.2-29.5,1.2c-21.6,0-33.6,0.4-45.2,1.6c-45.4,4.6-61.1,6.4-83.7,9.6c-40.4,5.8-43.1,5.8-131.4,5.8c-0.3,0-0.6,0-0.9,0
		v35.3c46.4,0,92.9-2.2,135-6.6c89.2-9.3,150.8-20.3,179.9-31.9c3-1.3,3-1.3,6.6,2.8c12.7,14.6,23.2,28.2,23.2,30.2
		c0,1.4,0.5,2.2,1.6,2.2c2,0,8.3,8.1,8.3,10.7c0,1.3,0.5,1.9,1.8,1.9c2.5,0,13,7.8,13.5,10.2c0.4,1.4,1.3,2.1,3.6,2.3
		c3.8,0.4,37.8,13.8,51.8,20.3c9.1,4.3,32.1,17.2,58.2,32.6c6.6,3.9,10.6,6.8,10.6,7.7c0,1,1.3,1.8,3.9,2.4
		c2.1,0.5,11.7,5.9,21.3,12c24.8,15.4,39.5,24.2,40.4,24.2c0.4,0,1-0.4,1.2-1.1c0.3-0.7,2.3-0.7,8,0.3c17.4,2.8,33.2,0.6,49.1-6.8
		c9.8-4.6,15.6-9.6,18.9-16.6c2.3-4.6,2.5-5.8,2.4-15.2c0-5.5,0.3-10.1,0.7-10.1C1877.5,1566.8,1876.5,1564.3,1873.1,1560.9z"/>
	<path id="structure12_label12_ECu" bar:growlevel="0" bar:type="" class="st20" d="M1589.8,1517.6c-6.7,1.3-13.3,4.9-23.4,13
		c-6,4.9-9.4,11.7-10,20.4l-0.4,6.3l5.7,7.7c7.6,10.3,14.8,17.1,22.2,21c11,5.8,13.9,6.2,39.8,5.5c18.7-0.5,25-0.3,34.2,0.9
		c20.9,2.8,46.8,9.8,65.3,17.7c12.2,5.3,13.1,4.7,5.4-4c-5.7-6.2-10.3-14.9-10.3-19c0.1-4.6,4.4-8.6,9.4-8.6c4.5,0,2.3-2.3-8.3-8.5
		c-46.3-27.3-57.5-33-87.7-45c-18.2-7.2-20.1-7.7-27.4-8.2C1599.4,1516.5,1593.8,1516.9,1589.8,1517.6z"/>
	<path class="st19" d="M1703.2,1474.4c-13.1-7.8-33.7-21.8-44.6-30.3c-55.3-43.2-92.7-90.4-140.6-177.5c-6.8-12.4-17-31.1-22.8-41.4
		c-13-23.5-20.3-34.9-25.7-39.9c-10-9.1-28.4-19.1-44.7-24.3c-19.8-6.3-29.8-7.3-81-8.3c-23-0.4-51.8-1.3-63.9-1.7
		c-19-0.8-33.8-1.2-44.1-1.4v22.6c71,0,96.2,0.7,127.8,3.5c27.6,2.4,49.6,6.1,60.4,10.2c15,5.7,33.6,23.7,52.5,50.9
		c3.4,4.8,15.8,24.6,27.5,44c45,74.5,60.6,96.7,87.3,124.2c31.6,32.5,60.4,54.5,86,65.8c10.4,4.5,30.2,11.3,33,11.3
		C1714,1482.2,1711.5,1479.4,1703.2,1474.4z"/>
	<path id="structure132_Unlabeled-1832-2223_Unlabeled" bar:growlevel="0" bar:type="" class="st19" d="M1261.3,2093.9
		c-2.2,1.2-3.9,2.6-3.9,3.1c0,0.5,1,1.8,2.3,2.9c3.3,2.9,3.9,7.6,1.4,12.5c-3.2,6.4-15.6,22.2-17.3,22.3c-1.2,0-1.6,0.7-1.6,2.7
		c0,1.4,0.5,2.7,1,2.7c0.5,0,3.3-1.4,6.1-3.1c8.8-5.3,14.7-7.7,19.3-7.7c6,0,37.9,10.5,52.4,17.3c6.4,3.1,12.2,5.9,12.9,6.4
		c1.4,1.1,1.4,6.4,0,8.7c-0.6,0.9-0.9,1.9-0.7,2.2c0.3,0.2,9.1,0.6,19.6,1c16.7,0.6,19.1,0.5,19.1-0.7c0-0.7-1.4-1.8-2.9-2.5
		c-8.3-3.2-49-23.9-56.5-28.6c-10.2-6.4-20.7-14.9-20.7-16.7c0-1,1.2-1.3,4.5-1.3c5.1,0,9.5,2,30.1,13.7
		c29.7,16.9,54.3,28.3,72.4,33.7c9.3,2.7,11.8,2.8,11.8,0.4c0-2.7-4.5-5.6-19.8-13.1c-7.6-3.8-18.8-9.4-24.8-12.4
		c-5.9-3.2-15.1-7.7-20.3-10c-5.2-2.4-12.6-6.3-16.4-8.7c-5.8-3.7-6.9-4.9-6.9-6.8c0-2.3,0.1-2.4,4.1-1.8c2.3,0.3,10,2.9,17.3,5.9
		c18,7.2,28.6,10.4,39.8,12.1c15.1,2.3,19,3.3,25.1,6c6.4,2.9,8.2,3.2,8.2,1.4c0-1.4-19.3-12.9-34.1-20.3
		c-19.6-9.8-42.5-17.1-53.6-17.1c-8.8,0-19,1.7-28.3,4.7c-18.8,6.1-33.3,2.5-33.3-8.3C1267.3,2090.9,1266.4,2090.8,1261.3,2093.9z"
		/>
	<path id="structure13_label13_Cu" bar:growlevel="0" bar:type="" class="st21" d="M1552.6,1541.5c-11.4,9.3-36.4,24.7-51.5,31.6
		c-4.9,2.3-8.8,4.5-8.8,5.1c0,0.6,1.8,2.3,4,3.8c13.8,9.4,25.7,27,29.1,42.6c1.1,5.2,1.9,7,2.9,7c0.8,0,5.8-0.8,11-1.8
		c20-3.6,33.8-4.8,56.4-4.8c23.7,0,24.6-0.2,18.4-4.5c-9.1-6.4-10.9-17.2-4-23.5c3.1-2.8,2.4-4.1-1.9-4.1
		c-11.1-0.1-25.6-5.8-34.2-13.5c-6.4-5.7-16.6-19.3-18-23.8c-0.9-2.8-0.8-4.5,0.4-9.4c0.9-3.2,1.5-6.2,1.5-6.7
		C1558,1538.1,1555.7,1539,1552.6,1541.5z"/>
	<path id="structure14_label14_Mx" bar:growlevel="0" bar:type="" class="st22" d="M1568.4,1626.2c-17.7,1.8-40.1,5.7-50.6,8.6
		c-4.7,1.3-6,3.1-3.6,4.6c3,1.9,5,5.8,4.5,8.7c-0.5,2.9-0.3,3.1,2.5,3.7c4.7,1,24,8.2,39.3,14.5c16.2,6.8,19.5,7.2,23.3,3
		c3.8-4.2,16.1-12.1,23.9-15.1c9.9-4,17.6-4.9,33.5-4.3c11.7,0.5,19.9,1.4,34,3.9c6,1.1,4-1.8-5.4-7.6
		c-28.3-17.2-37.5-19.8-72.7-20.4C1585.9,1625.5,1572.9,1625.7,1568.4,1626.2z"/>
	<path id="structure17_label18_12N" bar:growlevel="0" bar:type="" class="st23" d="M1278.9,1680.2c-5,1.3-10.4,5.2-12.9,9.4
		c-3.9,6.7-9.6,31.5-11.3,48.9c-1.1,12.1-0.1,23.3,2.8,29.9c2.2,5.1,8.5,11.5,14.3,14.5c10.2,5.2,32,6,47.4,1.9
		c5.2-1.4,14.2-7.6,17.4-11.9l2.7-3.8v-21.2c-0.1-30.6-1.9-41.9-7.6-47.4c-3.2-3.1-20.2-11.6-33.4-16.9
		C1289.2,1679.8,1283.9,1678.9,1278.9,1680.2z"/>
	<path class="st24" d="M1332.6,1613.6c-31.3,2.6-63.9,3.9-96.8,3.8v72.5c0.6,0,1.3,0,1.9-0.1c5.8-0.5,9.5-2.3,22.4-10.5
		c13.1-8.4,15.3-9.4,28.5-13c21-5.9,25.8-8.7,28.1-16.7c1.8-6.3,4.4-10.7,9.5-16c4.6-4.9,17.2-15.1,21.1-17.2c1.1-0.5,2-1.6,2-2.3
		C1349.2,1612.4,1346.6,1612.3,1332.6,1613.6z"/>
	<path id="structure19_label21_Ro" bar:growlevel="0" bar:type="" class="st25" d="M1261,1778.8c0,2.3,6.1,16.5,9.9,22.9
		c4.7,8,10.2,13.9,15.7,17.1c9,5.2,20.8,2.8,28.1-5.7c4.4-5.3,9.2-15.3,10.3-22c1.3-7.5,0.6-8.2-5.7-6.2
		c-17.7,5.6-39.9,3.5-52.2-4.8C1262.8,1777.1,1261,1776.7,1261,1778.8z"/>
	<path id="structure1_label0_Sp5I" bar:growlevel="0" bar:type="" class="st26" d="M1614,1652.3c-8.9,2.3-20.1,8.4-26.4,14.2
		c-5,4.7-5.3,5-5.3,9.2c0,5.6,3.2,14.6,10.2,28.7c5.9,12,13.6,24,30.7,47.8c13.9,19.3,20.2,26.8,32,38c13.1,12.6,18.9,22,25,41.3
		c3.2,9.8,4.4,17.3,5.1,30.5c1.2,19.6,8.2,75.3,10.8,85.9c3.8,14.8,15.8,30.1,28.4,36.1c3.8,1.8,8.9,3.4,11.4,3.8
		c4.1,0.4,4.7,0.4,4.7-1.2c0.1-1.1,2.8-3.7,7.5-7.1c9.3-6.8,32.1-29.5,41.7-41.5c8.7-10.9,14.2-21.2,19.5-36.9
		c9.7-28.3,14.5-59.8,14.5-96.2c0-26.8-2.3-40.9-9.3-57.1c-8-18.5-18.3-27.6-45.2-39.7c-6.7-3-16.2-7.3-21.2-9.5
		c-15.5-6.9-36.3-21.8-44.9-32.1c-2.2-2.6-4.1-4.1-5.4-4.1c-1.1,0-5-1.4-8.7-3.2c-11.7-5.5-30.7-8.5-54.2-8.4
		C1623.8,1650.6,1619.2,1650.9,1614,1652.3z"/>
	<path class="st27" d="M1483.1,1887.6c-22.6-37.4-54.9-86.9-88.2-135c-20.2-29.1-19.6-28.4-21-28.4c-1.4,0-12.5,11.9-21.7,23.4
		c-4.7,5.8-9.1,12.5-11.5,17.5c-3.8,7.9-6,10.7-11.9,14.8c-2.7,1.8-3,2.4-3,6.4c0,10.2-7.3,24.5-15.7,30.7
		c-18.5,13.9-36.9-1.2-50.9-41.9c-4.1-11.7-4.7-14.8-5.1-22.6c-0.5-10.3,0.6-22.1,3.8-36.8c5-23,7.7-28.9,15.3-33.4
		c6.6-3.8,12.8-3.9,22-0.4c10.6,4.1,31.1,14,34.8,16.7c2.7,2.1,4.2,2.4,12.1,2.8c7.7,0.5,8.9,0.4,8.9-0.9c0-0.8-1.3-2.3-2.9-3.4
		c-11.2-7.7-19.1-17.3-26.5-31.8c-2.4-4.8-4.9-8.6-5.5-8.6c-0.6,0-3.7,1.4-6.8,3.1c-3.1,1.7-9.5,4.2-14.2,5.5
		c-17.9,5-22.1,6.8-32,13.2c-14.5,9.4-19.6,11.8-26.2,12.2c-0.4,0-0.8,0-1.2,0.1v81.2c8.8-0.1,17,5.9,22,16.4
		c5.8,12.2,8.2,25.6,13.4,78.4c3.8,37.5,4.9,52.9,5.9,77.8c1.9,48.5,2,49.5,3.1,49.5c0.6,0,2.5-1.4,4.2-3.2
		c12.2-12.7,29.6-14,61.8-4.8c38.2,10.9,69,32.6,80.2,56.2c1.5,3.2,2.8,6.5,2.8,7.2c0,2.3,2.6,1.5,8.4-2.6c7.9-5.6,16.7-9.8,29.3-14
		c12.9-4.2,42.8-12.1,67.1-17.6c12.7-2.8,17.2-4.1,17.4-5.2C1552.3,2006.3,1523.6,1954.9,1483.1,1887.6z"/>
	<path id="structure22_label24_5Sol" bar:growlevel="0" bar:type="" class="st28" d="M1558.2,1672.8c-4.9,12.7-16.6,26.1-29.4,33.9
		c-3.4,2.1-6.4,4.4-6.6,5.1c-0.2,0.8,2.3,2.3,7.2,4.2c31.3,12.8,78.7,37,98.4,50.4c3.2,2.3,4.9,2.4,4.9,0.5
		c0-0.7-6.7-10.6-14.7-21.9c-8.1-11.3-16.8-24.2-19.4-28.7c-9.3-16.2-17.2-35.2-17.2-41.2c0-1.8-0.5-2.2-2.9-2.2
		c-1.6,0-5.8-1.3-9.3-2.7c-3.4-1.5-6.8-2.7-7.7-2.7C1560.8,1667.6,1559.5,1669.5,1558.2,1672.8z"/>
	<path id="structure23_label25_SolL" bar:growlevel="0" bar:type="" class="st29" d="M1509.2,1653.2c-11.2,4.9-23.1,14.4-22,17.5
		c1.2,3,32.9,17.4,46.8,21.2c9.9,2.8,10.5,2.6,15-3.4c3.9-5.1,10.8-18.6,10.8-21.1c0-0.7-4.2-3-11-5.6
		c-10.6-4.1-31.6-11.3-32.9-11.3C1515.6,1650.6,1512.5,1651.7,1509.2,1653.2z"/>
	<path id="structure24_label26_SolV" bar:growlevel="0" bar:type="" class="st30" d="M1464.2,1685.2c-6,2.5-18.7,4.9-31.2,5.7
		l-8.6,0.5l-9.2,6.2c-8.1,5.4-9.3,6.6-9.3,8.7c0,3.4,6,7.9,15.6,11.6c17.9,7,39.6,7.9,65.9,2.6c12.6-2.5,28.3-7.1,28.3-8.4
		c0-0.5-2.5-2-5.6-3.2c-11.7-4.4-26.8-13.9-34.5-21.7c-2.4-2.4-4.9-4.5-5.4-4.4C1469.8,1683,1467.1,1684,1464.2,1685.2z"/>
	<path id="structure25_label27_SolM" bar:growlevel="0" bar:type="" class="st31" d="M1357.1,1612.1c-5.5,2-12.9,6.8-22.1,14.5
		c-14.2,11.9-20,22.9-16.7,31.7c0.8,2.1,1.8,3.9,2.2,3.9s2-0.6,3.6-1.4c4.7-2.4,11.1-0.5,20.8,6.2c34.4,23.8,53.5,36,58,37.2
		c2.1,0.5,20.2-11,20.3-12.8c0-0.5-1.3-1.5-2.7-2.2c-11.3-4.7-11.8-23.9-1-36.2c1.5-1.8,2.8-3.6,2.8-4.1c0-0.5-1.9-1.2-4.2-1.5
		c-13.6-2-30.9-15.5-36-28.1c-1.5-3.8-1.9-4-8.6-6.1C1365.4,1610.6,1362,1610.4,1357.1,1612.1z"/>
	<path id="structure26_label28_GiV" bar:growlevel="0" bar:type="" class="st32" d="M1300.4,1981.7c-5.5,1.4-10.1,4.1-15.8,9.5
		l-5.5,5l0.4,24.8c0.3,13.8,0.7,29.5,1,35.1l0.5,10.3l2.9-0.5c19.3-3.1,25.1-3.5,36.1-3c23.7,1.1,41,6.5,73.7,22.7
		c13.4,6.7,16.4,7.8,21.4,8.2c4.3,0.4,6.5,0.1,8.6-1c3.3-1.7,3.4-2.8,1.5-10.2c-0.8-2.9-1.4-8.2-1.5-11.8c-0.1-5.7,0.3-7.2,2.9-12.2
		c3.4-6.9,3.3-9-1.3-18.3c-12.3-24.6-47.9-47.2-89.2-56.5C1324.4,1981.2,1306.6,1980.1,1300.4,1981.7z"/>
	<path id="structure28_label30_IOM" bar:growlevel="0" bar:type="" class="st33" d="M1258.6,2131.9c-3.1,1.4-7.8,4.1-10.5,5.9
		l-5,3.2v8.1v8.1h2.8c2.1,0,3.9,1.1,7.4,4.5c2.6,2.5,7.2,5.8,10.3,7.4c5.4,2.7,5.9,2.8,13.5,2.3c4.3-0.4,11.2-1.4,15.2-2.4
		c4.1-0.9,11.1-2.2,15.8-2.7c4.6-0.5,11.8-1.3,15.9-1.8c4.8-0.5,8.2-1.4,9.3-2.3c1.9-1.8,2.3-7.7,0.5-9.1
		c-4.1-3.1-27.4-12.8-42.8-17.7C1269.8,2128.3,1266.8,2128,1258.6,2131.9z"/>
	<path class="st34" d="M1275.9,1923.3c-0.3-3.3-1.3-15.6-2.3-27.2c-2.4-28.5-6.8-70.5-8.6-81c-3.6-23-10.4-36.8-20.3-40.9
		c-2.2-1-5.5-1.4-8.8-1.4v50.4c0.1,0,0.2-0.1,0.4-0.1c1.3,0,3.7,5,5,10.8s2.6,37,2.7,63.2c0,24.1,0.3,25.3,4.3,19.2
		c5.2-8.2,11.8-5.8,21.8,7.6C1275.4,1931.3,1276.6,1931.2,1275.9,1923.3z"/>
	<path id="structure2_label1_PCRt" bar:growlevel="0" bar:type="" class="st35" d="M1512.1,1714.5c-7.6,2.8-25.5,6.8-36.9,8.5
		c-7.7,1.1-13.9,1.3-24.9,1c-16.8-0.5-17.3-0.3-10.3,5.5c5.1,4.4,49,48.6,60,60.5c29.8,32.2,42.9,48.9,70.6,89.4
		c5.7,8.3,6.9,9.6,8.5,9.2c5.1-1.6,6.5-1.4,10.9,1.5c9,6,38.9,31.2,45.4,38.2c9.6,10.3,13.6,16.3,25,38c11.9,22.6,21.9,38,27.8,43.3
		c6.5,5.8,7.2,5.3,7.1-4.7c0-6.8,0.4-8.8,1.9-11.4c2.7-4.7,7.9-7.2,19.5-9.4c1.3-0.3,2.4-0.9,2.4-1.4c0-0.5-2.6-3.3-5.8-6.3
		c-6.8-6.4-13.2-16.3-16.2-24.8c-3.3-9.5-10.1-59.8-12.1-89.8c-1.5-22.1-4.3-32.7-13.2-50.1c-4.7-9.3-5.5-10.3-18.8-23.4
		c-15-14.9-22.9-20.6-45.4-33.6c-23.9-13.8-83.9-41.9-88.7-41.8C1517.8,1712.7,1514.8,1713.5,1512.1,1714.5z"/>
	<path id="structure30_label32_IOD" bar:growlevel="0" bar:type="" class="st36" d="M1303.3,2077.6c-8.9,2.9-13,3.9-17.5,4.4
		c-10.5,1.2-18.5,6.5-18.5,12.2c0,10.7,14.6,14.3,33.3,8.2c16.7-5.4,29.2-5.9,44.3-2.1c18.6,4.9,35,12.2,61.5,27.5
		c7.9,4.6,17.3,9.7,20.7,11.5c3.5,1.7,10.9,6.5,16.6,10.4c8.4,5.9,11.8,7.7,18.5,9.9c16.6,5.3,39.1,8.6,55.6,8
		c9.6-0.3,11.8-0.6,16.3-2.8c6.8-3.1,10.5-7,10.5-11.1c0-5.4-5.3-7.2-25.7-8.5c-13.2-0.9-29.9-3.4-38.3-5.9c-6.2-1.8-14-5-42.3-17.5
		c-12.4-5.5-27-11.4-32.6-13.4c-14.1-4.9-16.7-6.1-30.6-14.3c-14-8.4-17.7-10-29.3-12.7C1330.2,2078,1308.7,2076,1303.3,2077.6z"/>
	<path id="structure31_label33_SpV" bar:growlevel="0" bar:type="" class="st37" d="M1480.2,1582.1c-4.4,1.9-12.7,5-18.2,6.9
		c-5.6,1.9-10.2,3.9-10.2,4.4c0,0.5,1,2.8,2.2,4.9c2,3.5,3.8,10.1,4.3,15.9c0.3,2,1.3,2.4,12,5.1c14.2,3.6,23.8,7.2,33.3,12.6
		c7.9,4.6,6.6,4.5,18.8,1.3l3.5-0.9l-0.5-5.1c-1.3-11.4-7.6-23.9-17.5-34.6c-6.8-7.2-15.8-14.3-18.1-14.1
		C1488.9,1578.6,1484.7,1580.2,1480.2,1582.1z"/>
	<path id="structure32_label34_e" bar:growlevel="0" bar:type="" class="st38" d="M1480.2,1582.1c-4.4,1.9-12.7,5-18.2,6.9
		c-5.6,1.9-10.2,3.9-10.2,4.4c0,0.5,1,2.8,2.2,4.9c2,3.5,3.8,10.1,4.3,15.9c0.3,2,1.3,2.4,12,5.1c14.2,3.6,23.8,7.2,33.3,12.6
		c7.9,4.6,6.6,4.5,18.8,1.3l3.5-0.9l-0.5-5.1c-1.3-11.4-7.6-23.9-17.5-34.6c-6.8-7.2-15.8-14.3-18.1-14.1
		C1488.9,1578.6,1484.7,1580.2,1480.2,1582.1z"/>
	<path id="structure33_label35_C2" bar:growlevel="0" bar:type="" class="st39" d="M1357.1,1612.1c-5.5,2-12.9,6.8-22.1,14.5
		c-14.2,11.9-20,22.9-16.7,31.7c0.8,2.1,1.8,3.9,2.2,3.9s2-0.6,3.6-1.4c4.7-2.4,11.1-0.5,20.8,6.2c34.4,23.8,53.5,36,58,37.2
		c2.1,0.5,20.2-11,20.3-12.8c0-0.5-1.3-1.5-2.7-2.2c-11.3-4.7-11.8-23.9-1-36.2c1.5-1.8,2.8-3.6,2.8-4.1c0-0.5-1.9-1.2-4.2-1.5
		c-13.6-2-30.9-15.5-36-28.1c-1.5-3.8-1.9-4-8.6-6.1C1365.4,1610.6,1362,1610.4,1357.1,1612.1z"/>
	<path class="st38" d="M1587.2,1496.6c-1.9-2.4-4.1-4.5-5-4.5c-0.9,0-6.1,3.2-11.8,7.1c-39.2,27.5-84,49.2-122.6,59.5
		c-25.9,6.9-72.1,14.3-119.8,19.3c-44,4.5-44.2,4.6-92.3,4.6v33.6c33.8-0.2,72.7-1.6,98.5-3.9c54.5-4.8,77.2-8.7,112.5-19.4
		c44.7-13.6,79.2-31.3,113.4-58.5c6.9-5.5,15.8-11.9,19.5-14.1c7.6-4.5,9.7-7.4,10.4-14.8
		C1590.6,1501.5,1590.4,1500.7,1587.2,1496.6z"/>
	<path class="st40" d="M1566.6,1470.6c-10.3-12.3-12.7-14.7-14.3-14.2c-1,0.3-7.1,2.3-13.6,4.5c-28.2,9.5-88.7,19.6-167.8,27.9
		c-42.1,4.4-88.6,6.6-135,6.6v35.3c123.8,0,212.7-7.8,239.6-21c6.2-3.1,6.8-2.4,1.9,2.3c-18.6,17.7-120.7,30.7-241.5,30.7v38.5
		c24.8,0,49.7-0.5,60.9-1.4c76.9-6.7,136.2-16.5,171.3-28.3c21.3-7.3,43.4-17.4,65.9-30.2c14.8-8.5,45.6-28.9,46.3-30.7
		C1581.1,1488.4,1579.5,1485.9,1566.6,1470.6z"/>
	<path class="st41" d="M1517.8,1431.9c-12.4-12.4-21.9-18.4-35.4-22.8c-6.7-2.1-7.5-2.1-42.8-2.1c-37.2,0.1-42.1,0.4-71.1,4.5
		c-32.6,4.7-59.8,5.9-132.8,5.9v42.8c0.3,0,0.6,0,0.9,0c88.3,0,91-0.1,131.4-5.9c22.6-3.2,38.3-5,83.7-9.6
		c11.6-1.2,23.6-1.6,45.2-1.6c23.4,0,29.5-0.3,29.5-1.2C1526.5,1441.2,1522.6,1436.7,1517.8,1431.9z"/>
	<path class="st42" d="M1792.6,1532.2c-8.8-22.5-28.4-63.6-37.9-79.6c-13.1-22-30.8-36.9-51.1-43.3c-5-1.6-13-4.1-17.5-5.6
		c-10.4-3.3-22.1-9.4-32.9-16.9c-25.3-17.7-73.8-75.2-110.9-131.2c-16.4-24.8-24.3-39.5-39.2-73.2c-9.7-22.1-19.9-42.2-25.6-50.9
		c-5.9-8.9-16.3-18.9-23.1-22.1c-7.2-3.5-13.2-4.9-26.5-6.1c-12.9-1.1-23.6-0.4-46.3,2.7c-17.6,2.5-34.6,3.3-94.7,4.6
		c-19.3,0.4-35.2,0.5-51.1,0.5v38.6c10.3,0.2,25.1,0.6,44.1,1.4c12.2,0.4,40.9,1.3,63.9,1.7c51.2,1,61.2,2,81,8.3
		c16.3,5.2,34.7,15.2,44.7,24.3c5.4,4.9,12.7,16.4,25.7,39.9c5.8,10.4,16,29,22.8,41.4c47.9,87,85.2,134.1,140.6,177.5
		c11.6,9.1,34.6,24.6,49.2,33.1c5.8,3.4,10.2,6.4,9.6,6.6c-0.5,0.2-5.6-1-11.2-2.5c-39.9-11.3-68.3-29.8-109.6-71
		c-31.4-31.5-45-50.5-92.7-129.4c-11.7-19.4-24-39.2-27.5-44c-18.9-27.2-37.4-45.2-52.5-50.9c-10.8-4.1-32.8-7.7-60.4-10.2
		c-31.6-2.8-56.8-3.5-127.8-3.5v47.2c4.8,0,9.4,0.3,16.5,0.9c21.4,1.7,94.8,1.7,106.8,0c19.6-2.9,34.8-0.9,50.1,6.7
		c13.4,6.6,18.7,11.4,36.3,32.7c5.6,6.8,8.5,8.9,22.2,16.7c18.5,10.4,27.7,18.6,38.3,34.5c9.2,13.6,29,48.9,39.2,69.6
		c12.8,26,16.8,32.3,39.1,60.8c19.8,25.4,25.8,32.1,34.8,39.2c8.1,6.5,14.4,9.7,27.9,14.4c19.5,6.7,47.8,19.8,80.6,37.4
		c18.8,10.1,29.1,17.1,39.4,27.1c7.2,6.8,10.3,9.2,13.1,10c5,1.4,9.2,0,12.6-4.2C1798.9,1557.9,1798.8,1548.2,1792.6,1532.2z"/>
	<path class="st3" d="M2094.5,1157.7c-12.6-26.7-39.5-67.2-68.1-102.2c-28.9-35.5-64.3-70.3-97.6-96.2
		c-50.9-39.6-109.6-69.5-168-85.5c-62.5-17.1-115.5-16.3-151.5,2.3c-17,8.7-28.7,19.7-48.1,44.9c-11.8,15.4-17,20.8-22.9,23.8
		c-7.7,4-14.5,1.2-21.1-8.7c-2.3-3.4-4.8-6.8-5.6-7.7c-2.3-2.3-6.5-1.7-12.2,1.8c-8.2,5-10.2,4.9-24.8-0.8
		c-27.5-10.8-46.6-14.5-75.1-14.5c-15.1,0-21.3,0.4-34.6,2.4c-37.2,5.4-58.9,6.5-129.1,6.5v55.4c7.8,0,33.1-2.8,76.9-8.5
		c49.8-6.5,61.3-7.7,105.8-11.4c30.7-2.6,64.6-2.9,74.7-0.5c12.6,2.9,14.8,4.5,27.6,20.3c13.3,16.4,36,39.9,50.2,52.2
		c47.1,40.6,159.1,109.8,210.6,130.1c25,9.9,51.6,12.2,74.1,6.5c12.4-3.1,45.6-15.8,52.2-19.7c13.2-8,18-17.5,20-39.2
		c3.7-42.8,9.4-59.1,18.8-53.9c5.8,3.2,6.9,18.5,3.6,46.7c-5.1,43.9-3,63,12.9,113.8c4.6,14.7,7.7,21,16.8,33.1
		c4,5.4,7.3,10.6,7.3,11.5c0,2.2-3.2,3.5-6.3,2.6c-7.1-2.1-16.3-8.6-30.2-21.5c-21.3-19.9-37.6-32.6-49.7-38.7
		c-9.5-4.8-14.3-5.7-31.3-5.6c-14.7,0-22.8,0.5-64.3,4.6c-29.4,2.8-38.2,2.2-47.7-3.3c-12.4-7.2-13.5-7.6-20.4-7.2
		c-7.6,0.4-12.7,3.1-15.2,8c-2.3,4.4-2.7,15.5-0.8,21.9c3.5,12.2,9.4,21.4,27.1,42.8c6.2,7.6,20.4,25.5,31.7,39.9
		c23.7,30.3,30.2,38.3,44,53.7c16.3,18.2,22.1,22.4,42.1,30.5c30.1,12.2,47.8,23.3,50.4,31.5c1.7,5.5-3,9.4-9.6,7.9
		c-4.6-1-9.1-3.2-19.2-9.7c-4.4-2.8-12.8-7.6-18.4-10.8c-22.6-12.4-30.2-18.8-60.2-50.4c-18.7-19.9-24.8-26.7-59-68.4
		c-44.3-53.7-61.6-74-81-94.9c-61.6-66.4-96.1-110.2-120.3-152.1c-3.8-6.5-10.5-18.2-15.1-26.1c-11.2-19.3-15.6-25.7-22.4-33
		c-14.9-15.9-24.6-18.1-67.7-14.7c-36.1,2.9-61.3,6.7-85.9,13c-32.2,8.3-76.1,13-122,12.9v31.9c4.1,0,7.9,0,11.3-0.1
		c46.2-1.5,123.5-10,179.4-19.5c34.3-5.8,52.1-2.2,69.7,14.4c9.5,8.9,14.7,15.9,31.9,43.5c32,51.3,54.4,84.4,78.9,116.8
		c19.3,25.3,37.4,45.8,69.5,78.2c27.6,28,47.7,47,89.6,84.7c16.1,14.6,36.6,33.1,45.7,41.3c20.3,18.4,31.1,26.9,38.3,30.7
		c14.8,7.8,17.9,11.2,27.9,31.1c3.2,6.4,7.5,14.2,9.4,17.4c4.6,7.5,12.1,14.9,17.7,17.7c13.5,6.6,35.5,1.9,46.2-9.8
		c5.9-6.5,10.2-14.8,16-31.6c3.9-11.1,4.9-15.2,4.9-19.5c0-10.1-3.1-13.6-21.7-24.8c-29.4-17.6-51.8-27.4-69.4-30.4
		c-14.2-2.4-22.2-5.8-38.5-15.9c-30.8-19.4-41.2-29.9-53-53.6c-5.2-10.3-11.6-28.6-12.4-35.4c-0.9-8,4.4-15.8,16.4-24
		c3.8-2.6,15.7-6.2,24.7-7.5c17.5-2.6,43.9,0.4,60.8,6.7c20.3,7.6,46.5,25.4,97.3,65.3c46,36.2,56.2,41.9,71.1,39.4
		c7.5-1.2,22.1-8.8,27.9-14.7c10.8-10.7,18.4-32.9,24.3-71.1c1.3-8.5,3.6-20.6,5.1-27C2110,1203.8,2107.4,1185.2,2094.5,1157.7z"/>
	<path class="st4" d="M1472.5,789.3c-13.3-27.6-32.2-41.7-67.7-50c-23.2-5.5-74.3-13-114.6-16.8c-5.6-0.5-31.7-1-54.5-1.3v66.3
		c24.8,0.1,50,1.1,77.8,3c30.6,2.2,38.4,3,82.4,8.6c65.6,8.5,73.6,9.2,78.7,7.2C1478.4,804.9,1477.9,800.3,1472.5,789.3z"/>
	<path class="st43" d="M1459.5,1287.3c-3.2-1.7-8.6-4.3-11.9-5.7l-6.1-2.4l-34.7-0.1c-19.1-0.1-39.5-0.6-45.5-1.2
		c-25-2.5-35.9-2.7-125.5-2.6v57c12.2,0,36.8,0.2,54.9,0.4c28.4,0.4,34.3,0.3,43.6-1.2c18.2-2.7,36-5.9,50.8-9.2
		c7.7-1.7,23.8-4.7,35.6-6.7s23.7-4.2,26.3-5c5.9-1.8,11.6-6,15.4-11.6C1466.8,1292.6,1466.4,1291.2,1459.5,1287.3z"/>
	<path class="st44" d="M1983.2,1252.9c-7.6-9.7-14.1-20.3-16.8-27.2c-3.7-9.4-13.7-45.1-15.8-56.2c-2.5-13.1-4-30.3-3.2-39.8
		c0.3-4.5,1.3-15.6,2.4-24.8c2.5-22,2.6-39.4,0.5-45.1c-3.2-8.4-9.6-7.7-13.7,1.3c-2.9,6.4-4.6,15.2-6.8,34.8
		c-3.4,31.9-4.5,35.7-12.7,44.5c-6.7,7.2-12.2,10.2-35.5,18.8c-20.8,7.7-29.3,10.1-42.2,11.5c-15.9,1.8-37.1-1.5-55.3-8.6
		c-33.8-13.1-90.6-45-148.2-83.4c-57.7-38.4-83.7-61.2-116.4-101.4c-4.9-6.1-10.3-12.1-12-13.1c-8.5-5.7-20.3-7.2-49.9-6.6
		c-32,0.7-80.6,4.9-127.4,11c-47.6,6.2-77.5,9.8-89.1,10.8c-1.4,0.1-3.1,0.1-5.4,0.1v12.5c18.4,0.1,36.4-0.3,45.9-1.1
		c34.5-3,57-6.4,76.1-11.3c27-7.1,57.2-11.4,100-14.1c28.4-1.8,37.4,0.5,50.8,13.3c8.9,8.5,14.1,16.3,31.9,47.1
		c21.9,38.1,32,53,57.6,85.1c21.1,26.5,40.1,48.2,74.3,85.1c15.4,16.6,37.8,42.9,77.3,90.8c39.8,48.1,48.9,58.4,74.9,84.7
		c20,20.2,25.6,24.5,47.2,36.1c5.9,3.2,13.3,7.6,16.3,9.5c15.5,10.4,25.5,12.8,28.2,6.8c4-8.8-14.2-22.1-49.4-35.9
		c-18.8-7.4-26.5-12.8-41.4-29.4c-13.9-15.3-23.7-27.4-46.1-56.2c-11.3-14.4-25.6-32.4-31.9-40c-6.3-7.7-13.7-17.3-16.4-21.4
		c-16.8-25.7-15.1-46.7,4.1-50.9c4.6-0.9,12.3,1.1,17.6,4.7c10.1,6.8,10.8,7,30.3,6.9c12.9,0,23.9-0.7,41.4-2.6
		c18.3-2,28.4-2.6,43.2-2.6c18-0.1,19.7,0.1,25.2,2c11.5,4.1,29.3,16.4,46.5,31.9c4.5,4.1,12.1,11,16.8,15.3
		c14,12.7,23.2,18,28.8,16.6C1988.4,1261.4,1988,1259.1,1983.2,1252.9z"/>
	<path class="st45" d="M2094.5,1157.7c-12.6-26.7-39.5-67.2-68.1-102.2c-28.9-35.5-64.3-70.3-97.6-96.2
		c-50.9-39.6-109.6-69.5-168-85.5c-62.5-17.1-115.5-16.3-151.5,2.3c-17,8.7-28.7,19.7-48.1,44.9c-11.8,15.4-17,20.8-22.9,23.8
		c-7.7,4-14.5,1.2-21.1-8.7c-2.3-3.4-4.8-6.8-5.6-7.7c-2.3-2.3-6.5-1.7-12.2,1.8c-8.2,5-10.2,4.9-24.8-0.8
		c-27.5-10.8-46.6-14.5-75.1-14.5c-15.1,0-21.3,0.4-34.6,2.4c-37.2,5.4-58.9,6.5-129.1,6.5v55.4c7.8,0,33.1-2.8,76.9-8.5
		c49.8-6.5,61.3-7.7,105.8-11.4c30.7-2.6,64.6-2.9,74.7-0.5c12.6,2.9,14.8,4.5,27.6,20.3c13.3,16.4,36,39.9,50.2,52.2
		c47.1,40.6,159.1,109.8,210.6,130.1c25,9.9,51.6,12.2,74.1,6.5c12.4-3.1,45.6-15.8,52.2-19.7c13.2-8,18-17.5,20-39.2
		c3.7-42.8,9.4-59.1,18.8-53.9c5.8,3.2,6.9,18.5,3.6,46.7c-5.1,43.9-3,63,12.9,113.8c4.6,14.7,7.7,21,16.8,33.1
		c4,5.4,7.3,10.6,7.3,11.5c0,2.2-3.2,3.5-6.3,2.6c-7.1-2.1-16.3-8.6-30.2-21.5c-21.3-19.9-37.6-32.6-49.7-38.7
		c-9.5-4.8-14.3-5.7-31.3-5.6c-14.7,0-22.8,0.5-64.3,4.6c-29.4,2.8-38.2,2.2-47.7-3.3c-12.4-7.2-13.5-7.6-20.4-7.2
		c-7.6,0.4-12.7,3.1-15.2,8c-2.3,4.4-2.7,15.5-0.8,21.9c3.5,12.2,9.4,21.4,27.1,42.8c6.2,7.6,20.4,25.5,31.7,39.9
		c23.7,30.3,30.2,38.3,44,53.7c16.3,18.2,22.1,22.4,42.1,30.5c30.1,12.2,47.8,23.3,50.4,31.5c1.7,5.5-3,9.4-9.6,7.9
		c-4.6-1-9.1-3.2-19.2-9.7c-4.4-2.8-12.8-7.6-18.4-10.8c-22.6-12.4-30.2-18.8-60.2-50.4c-18.7-19.9-24.8-26.7-59-68.4
		c-44.3-53.7-61.6-74-81-94.9c-61.6-66.4-96.1-110.2-120.3-152.1c-3.8-6.5-10.5-18.2-15.1-26.1c-11.2-19.3-15.6-25.7-22.4-33
		c-14.9-15.9-24.6-18.1-67.7-14.7c-36.1,2.9-61.3,6.7-85.9,13c-32.2,8.3-76.1,13-122,12.9v31.9c4.1,0,7.9,0,11.3-0.1
		c46.2-1.5,123.5-10,179.4-19.5c34.3-5.8,52.1-2.2,69.7,14.4c9.5,8.9,14.7,15.9,31.9,43.5c32,51.3,54.4,84.4,78.9,116.8
		c19.3,25.3,37.4,45.8,69.5,78.2c27.6,28,47.7,47,89.6,84.7c16.1,14.6,36.6,33.1,45.7,41.3c20.3,18.4,31.1,26.9,38.3,30.7
		c14.8,7.8,17.9,11.2,27.9,31.1c3.2,6.4,7.5,14.2,9.4,17.4c4.6,7.5,12.1,14.9,17.7,17.7c13.5,6.6,35.5,1.9,46.2-9.8
		c5.9-6.5,10.2-14.8,16-31.6c3.9-11.1,4.9-15.2,4.9-19.5c0-10.1-3.1-13.6-21.7-24.8c-29.4-17.6-51.8-27.4-69.4-30.4
		c-14.2-2.4-22.2-5.8-38.5-15.9c-30.8-19.4-41.2-29.9-53-53.6c-5.2-10.3-11.6-28.6-12.4-35.4c-0.9-8,4.4-15.8,16.4-24
		c3.8-2.6,15.7-6.2,24.7-7.5c17.5-2.6,43.9,0.4,60.8,6.7c20.3,7.6,46.5,25.4,97.3,65.3c46,36.2,56.2,41.9,71.1,39.4
		c7.5-1.2,22.1-8.8,27.9-14.7c10.8-10.7,18.4-32.9,24.3-71.1c1.3-8.5,3.6-20.6,5.1-27C2110,1203.8,2107.4,1185.2,2094.5,1157.7z"/>
	<path id="structure4_label3_LPGi" bar:growlevel="0" bar:type="" class="st46" d="M1529.2,2016.9c-39.4,9-67.1,17.1-80,23.5
		c-14.4,7.1-22.2,14.7-24.5,23.6c-2.4,9.5,1.3,25.5,7.6,32.6c5.2,5.9,20.4,15.6,31.3,20c25.3,10,64.3,15.4,83.7,11.5
		c18.7-3.8,41.2-13.4,49.3-21.2c2.5-2.4,4.6-4.9,4.6-5.7c0-0.8-1.3-1.5-3.4-1.9c-5.2-0.8-10.2-4.9-13.4-11
		c-1.5-2.9-6.8-16-11.8-29.2c-16.6-43.9-17.9-46.8-21.6-46.7C1549.7,2012.4,1539.9,2014.4,1529.2,2016.9z M1559.9,2071.8
		c4,2,9.5,8,11.4,12.4c2,4.5,1.9,15.8-0.1,19.6c-2.4,4.7-5.7,6.6-10.9,6.6c-8.9,0-17.4-5.8-21.4-14.8c-2.7-6.1-2.9-15.5-0.2-19
		C1544.1,2069.3,1551.7,2067.6,1559.9,2071.8z"/>
	<path class="st5" d="M2166,1152.3c-5.3-18.4-22.4-48.6-42.6-75.6c-70.3-93.9-197.1-183.6-315.6-223.2
		c-91.7-30.7-170.6-28.9-227.2,5.2c-8.7,5.2-15.2,10.8-24.1,20.8c-6.8,7.6-18.6,11.5-24.6,8.2c-1.3-0.6-4.5-4-7.3-7.4
		c-6.2-7.6-14.7-14.8-27.4-23.2c-17.4-11.5-25.1-15.4-34.7-17.5c-26.4-5.8-56.2-9.1-95.4-10.8c-8.6-0.4-70.4-0.6-131.4-0.7v94.6
		c0.3,0,0.6,0,0.9,0c62.8-0.1,97.5-1.9,129.1-6.8c17.1-2.7,41.9-3.2,57-1.4c18.8,2.4,37.8,7.6,55.1,14.9c9.7,4.1,14.2,4,21.4-0.5
		c5.9-3.6,9.8-4.3,12.4-2.2c0.8,0.6,3.1,3.8,5,6.8c8.4,13.2,15.9,15.1,26.6,6.6c2.4-1.8,9.5-10.2,15.9-18.5
		c20.1-26.2,34.3-39.2,52.2-48c36.7-18,91.4-18,153.3,0c115.8,33.8,215.4,109.9,296.9,227.2c23.4,33.6,38.1,61.9,44.5,85.9
		c3.1,11.3,2.9,26.9-0.4,39.2c-1.3,4.9-3.4,15.8-4.7,24.3c-6.1,39.9-13.5,62.3-24,73.8c-7.7,8.4-25.7,17.5-34.6,17.6
		c-4.9,0-13.9-2.9-20.4-6.5c-8-4.6-18.5-12.2-50.6-37.3c-65.1-50.6-82.5-61.1-111.1-67c-22.4-4.6-50.9-2.6-64.9,4.5
		c-5.8,3-14.9,12.2-16.7,16.8c-1.9,4.8-1.3,9.1,3.3,23c6,18.4,16.7,37.2,27.8,48.4c9.4,9.4,40.9,30.3,53.6,35.4
		c3.2,1.3,10.5,3.2,16.3,4.2c12.6,2.3,23,5.9,41.2,14.7c16.7,8.1,41.8,23,46.4,27.5c4.3,4.3,6.7,11.2,5.8,17.1
		c-0.8,5.5-8.7,27.7-12.8,35.9c-8.6,17.5-25,27.2-43.9,26c-16.2-1.1-24.8-9.5-40-39.2c-9.3-18.3-12.4-21.9-24.6-28.5
		c-10.7-5.9-18.7-12.2-40.3-31.6c-8.6-7.9-28.1-25.4-43.2-39c-93.7-84.6-134-126.7-175.9-184.1c-14-19.2-43.2-63-62.3-93.6
		c-19.3-30.8-23.6-37.1-31-45c-12.2-13-25.7-19.2-44-20c-9-0.5-12.9-0.1-29.7,2.8c-44.3,7.3-87.5,12.7-139.9,17.2
		c-14.1,1.2-32.9,2-49.9,2.1v40.9c14.9,0.1,27.5-0.3,42.3-1c95.1-4.7,110.3-5.6,132.8-7.8c35.2-3.6,53.9,0.5,69.4,15.2
		c9.4,8.8,14.5,16.8,29.2,45.6c22.7,44.3,59.6,101.6,89.5,139.1c34.8,43.5,69.3,75.2,121.1,111.1c42.1,29.3,50.1,36.8,74.3,70.7
		c20.6,28.9,48.1,71.3,66.1,102.1c10.1,17.2,15.4,23.6,25.3,30.1c17.5,11.7,35.8,17.2,56.7,17.1c21.3-0.1,46.1-6.5,69.8-17.9
		c19.6-9.4,31.6-18.2,41.6-30.4c21.7-26.6,38.1-64.2,38.2-87.5c0-12.7-4.9-24.5-13.1-31.8l-2.9-2.5l13.5-2.1
		c16.2-2.3,20.4-4.3,26.8-12.1c7.7-9.6,22-40.1,31.7-68C2170.6,1271.5,2178.1,1194.3,2166,1152.3z"/>
	<path class="st11" d="M1792.6,1532.2c-8.8-22.5-28.4-63.6-37.9-79.6c-13.1-22-30.8-36.9-51.1-43.3c-5-1.6-13-4.1-17.5-5.6
		c-10.4-3.3-22.1-9.4-32.9-16.9c-25.3-17.7-73.8-75.2-110.9-131.2c-16.4-24.8-24.3-39.5-39.2-73.2c-9.7-22.1-19.9-42.2-25.6-50.9
		c-5.9-8.9-16.3-18.9-23.1-22.1c-7.2-3.5-13.2-4.9-26.5-6.1c-12.9-1.1-23.6-0.4-46.3,2.7c-17.6,2.5-34.6,3.3-94.7,4.6
		c-19.3,0.4-35.2,0.5-51.1,0.5v38.6c10.3,0.2,25.1,0.6,44.1,1.4c12.2,0.4,40.9,1.3,63.9,1.7c51.2,1,61.2,2,81,8.3
		c16.3,5.2,34.7,15.2,44.7,24.3c5.4,4.9,12.7,16.4,25.7,39.9c5.8,10.4,16,29,22.8,41.4c47.9,87,85.2,134.1,140.6,177.5
		c11.6,9.1,34.6,24.6,49.2,33.1c5.8,3.4,10.2,6.4,9.6,6.6c-0.5,0.2-5.6-1-11.2-2.5c-39.9-11.3-68.3-29.8-109.6-71
		c-31.4-31.5-45-50.5-92.7-129.4c-11.7-19.4-24-39.2-27.5-44c-18.9-27.2-37.4-45.2-52.5-50.9c-10.8-4.1-32.8-7.7-60.4-10.2
		c-31.6-2.8-56.8-3.5-127.8-3.5v47.2c4.8,0,9.4,0.3,16.5,0.9c21.4,1.7,94.8,1.7,106.8,0c19.6-2.9,34.8-0.9,50.1,6.7
		c13.4,6.6,18.7,11.4,36.3,32.7c5.6,6.8,8.5,8.9,22.2,16.7c18.5,10.4,27.7,18.6,38.3,34.5c9.2,13.6,29,48.9,39.2,69.6
		c12.8,26,16.8,32.3,39.1,60.8c19.8,25.4,25.8,32.1,34.8,39.2c8.1,6.5,14.4,9.7,27.9,14.4c19.5,6.7,47.8,19.8,80.6,37.4
		c18.8,10.1,29.1,17.1,39.4,27.1c7.2,6.8,10.3,9.2,13.1,10c5,1.4,9.2,0,12.6-4.2C1798.9,1557.9,1798.8,1548.2,1792.6,1532.2z"/>
	<path id="structure55_label58_rs" bar:growlevel="0" bar:type="" class="st47" d="M1709.8,1985.4c-4.8,1.2-10.2,4.3-12,7
		c-3.7,5.7-2.2,22.5,2.9,32.5c4.1,8.1,9.1,10.5,19.6,9.6c15.3-1.3,26.4-9.5,27.4-20.4c0.4-4.1,0.2-4.7-2-6.4
		c-3.7-2.9-5.9-8.1-5.9-13.8v-4.9l-4.5-1c-2.5-0.5-6-1.6-7.7-2.3C1724,1984.3,1715.4,1984.1,1709.8,1985.4z"/>
	<path id="structure56_label59_vsc" bar:growlevel="0" bar:type="" class="st48" d="M1720.5,1582.2c-2.1,2.4-2.3,3.4-1.9,6.5
		c1.3,7.6,12,21.3,22.5,28.8c3,2.2,11,6.7,17.6,10c15.7,7.8,24.1,13.4,37.4,24.6c22.4,18.9,36.7,36.6,48.4,60.1
		c13.7,27.6,16.3,41.5,16.3,86.8c0,35.9-2,53.5-9.1,82.7c-10.5,43-31.8,81.4-61.5,110.9c-9.8,9.8-12.5,11.9-19.1,15.1
		c-8,4-13.5,4.9-19.4,3.4c-2.7-0.7-3-0.6-3,1.4c0,3.2-4,10.8-7.3,13.9c-4.1,3.9-11.6,7.2-19.3,8.5c-6.4,1-8.6,0.7-15.5-2
		c-2.6-1.1-3-1-6,1.7c-1.8,1.5-4.6,3.1-6.3,3.3c-5.1,1-7.7-1-11.8-8.7c-2-3.9-4.1-7-4.7-7c-0.8,0-1.2,1.8-1.2,6.1
		c0,13-6.8,29.9-17.3,43.1c-6.5,8.2-12.9,13.2-24,19c-10.5,5.4-17.8,8-26.6,9.3c-6.1,0.9-6.8,1.3-9.4,4.5
		c-8.9,11-40.1,23.8-62.6,25.6c-14,1.2-45.1-3.4-63.3-9.4c-19-6.2-37.2-17.2-44-26.6l-2-2.7l-3,1.8c-2.1,1.2-4.5,1.7-8.1,1.7
		c-4.6-0.1-7-1-23-8.6c-36.4-17.5-48.8-21.2-74.5-22c-15.6-0.5-22.1,0-33.8,2.5l-4.5,1v7.1v7.1h5.3c3.2,0,6.9-0.6,9.4-1.7
		c10.4-4.5,21.5-4.3,45.3,0.4c14.2,2.9,18.5,4.5,31.4,12.2c15,9,19.4,11.1,33.5,16c6.8,2.4,23.9,9.4,38,15.6
		c14.1,6.2,28.6,12.3,32.2,13.7c8.9,3.1,23.5,5.7,42.5,7.3c17.4,1.4,21.3,2.3,24.8,5.3c1.9,1.6,2.3,2.5,1.9,4.4
		c-1.5,5.9-9.4,11.2-20.3,13.3c-14,2.7-56.6-3.9-70.5-10.9c-2-1.1-6.9-4.3-11.1-7.3c-8.2-5.8-23.2-14.3-25.4-14.3
		c-2.7,0-1.1,2.5,3.7,5.8c2.7,1.9,6.4,5,8.2,7c4.1,4.5,9.2,15.1,9.8,20.5c1,7.6-4,13.2-13.6,15.4c-2.7,0.6-4.9,1.5-4.9,2.1
		c0,1.6,20.8,12.6,22.1,11.7c0.6-0.4,3.6-2.7,6.6-5c9.4-7,13.7-8,35.3-7.7c16.7,0.2,19.3,0,27-1.9c18.5-4.6,32.8-10.2,71.6-28
		c14.9-6.8,33.1-15.1,40.5-18.5c19.3-8.7,60.8-29.4,75.6-37.7c60.1-33.2,99.9-65,121-96.4c3.4-5,11-18.7,16.9-30.6
		c45.5-91.2,57.5-153.4,42.5-220.9c-2.9-13-9.5-36.9-12.6-45.3c-13-35.6-42-70.8-74.9-90.9c-3.6-2.2-17.2-10.6-30.2-18.6
		c-13.1-8.1-25.3-15.2-27-15.8c-1.8-0.6-5.3-1.2-7.9-1.3C1723.4,1579.4,1722.7,1579.6,1720.5,1582.2z"/>
	<path class="st27" d="M1483.1,1887.6c-22.6-37.4-54.9-86.9-88.2-135c-20.2-29.1-19.6-28.4-21-28.4c-1.4,0-12.5,11.9-21.7,23.4
		c-4.7,5.8-9.1,12.5-11.5,17.5c-3.8,7.9-6,10.7-11.9,14.8c-2.7,1.8-3,2.4-3,6.4c0,10.2-7.3,24.5-15.7,30.7
		c-18.5,13.9-36.9-1.2-50.9-41.9c-4.1-11.7-4.7-14.8-5.1-22.6c-0.5-10.3,0.6-22.1,3.8-36.8c5-23,7.7-28.9,15.3-33.4
		c6.6-3.8,12.8-3.9,22-0.4c10.6,4.1,31.1,14,34.8,16.7c2.7,2.1,4.2,2.4,12.1,2.8c7.7,0.5,8.9,0.4,8.9-0.9c0-0.8-1.3-2.3-2.9-3.4
		c-11.2-7.7-19.1-17.3-26.5-31.8c-2.4-4.8-4.9-8.6-5.5-8.6c-0.6,0-3.7,1.4-6.8,3.1c-3.1,1.7-9.5,4.2-14.2,5.5
		c-17.9,5-22.1,6.8-32,13.2c-14.5,9.4-19.6,11.8-26.2,12.2c-0.4,0-0.8,0-1.2,0.1v81.2c8.8-0.1,17,5.9,22,16.4
		c5.8,12.2,8.2,25.6,13.4,78.4c3.8,37.5,4.9,52.9,5.9,77.8c1.9,48.5,2,49.5,3.1,49.5c0.6,0,2.5-1.4,4.2-3.2
		c12.2-12.7,29.6-14,61.8-4.8c38.2,10.9,69,32.6,80.2,56.2c1.5,3.2,2.8,6.5,2.8,7.2c0,2.3,2.6,1.5,8.4-2.6c7.9-5.6,16.7-9.8,29.3-14
		c12.9-4.2,42.8-12.1,67.1-17.6c12.7-2.8,17.2-4.1,17.4-5.2C1552.3,2006.3,1523.6,1954.9,1483.1,1887.6z"/>
	<path id="structure5_label5_IRt" bar:growlevel="0" bar:type="" class="st49" d="M1366.3,1710.3c0,0.7,5,8.3,10.9,16.8
		c56.5,80.5,99.1,146.6,137.7,213.8c3.2,5.6,6.3,10.2,6.9,10.2c0.6,0,1.1-1.3,1.1-3.4c0-4.2,2.5-9.6,6.4-14l3-3.4l-1.5-5.7
		c-1.8-6.8-1.9-9.4-0.4-14.2c1.5-5.1,6.6-10,13.9-13.4c5.5-2.6,7.1-3,13.9-3c7.1,0,7.9,0.2,11.1,2.6c4.9,3.7,8,10.9,8.5,19.3
		c0.4,6,0.5,6.7,2.9,7.8c7.4,3.8,16.7,19.2,20.3,33.6c2.4,9.6,3.2,23.9,1.9,36.3l-0.7,6.8l5.3,0.4c11.2,0.8,14,5.6,14.4,25
		c0.5,21.6-2.3,40.9-7.7,50.6c-3.3,6.1-11.8,14.5-17.4,17.1c-2.4,1.2-4.4,2.5-4.5,3.1c0,1.4,6.3,3.1,12.3,3.1
		c11.3,0,28.9-6.7,42.2-16.1c15.5-10.8,28.2-33.2,29.7-52.1c1-12.8-0.6-17.5-13.5-38.8c-6.1-10.2-13.7-23.6-16.7-29.8
		c-6.8-13.8-11.4-20.3-19.5-27.9c-6.2-5.9-9.3-7.7-18.3-10.3c-9.8-2.8-23.7-13-27.4-20.3c-0.9-1.6-2.1-5.7-2.7-9.1
		c-1.1-5.3-2.2-7.6-8.2-16.4c-33.9-49.2-51.6-70.4-99.4-119c-27.9-28.3-38.5-37.9-44.5-39.8c-2.5-0.8-7.7-3.1-11.5-5.1l-6.9-3.6
		l-6.3,1.2c-8.3,1.5-21.4,0.7-28.3-1.7C1366.9,1708.6,1366.3,1708.6,1366.3,1710.3z"/>
	<path class="st44" d="M1983.2,1252.9c-7.6-9.7-14.1-20.3-16.8-27.2c-3.7-9.4-13.7-45.1-15.8-56.2c-2.5-13.1-4-30.3-3.2-39.8
		c0.3-4.5,1.3-15.6,2.4-24.8c2.5-22,2.6-39.4,0.5-45.1c-3.2-8.4-9.6-7.7-13.7,1.3c-2.9,6.4-4.6,15.2-6.8,34.8
		c-3.4,31.9-4.5,35.7-12.7,44.5c-6.7,7.2-12.2,10.2-35.5,18.8c-20.8,7.7-29.3,10.1-42.2,11.5c-15.9,1.8-37.1-1.5-55.3-8.6
		c-33.8-13.1-90.6-45-148.2-83.4c-57.7-38.4-83.7-61.2-116.4-101.4c-4.9-6.1-10.3-12.1-12-13.1c-8.5-5.7-20.3-7.2-49.9-6.6
		c-32,0.7-80.6,4.9-127.4,11c-47.6,6.2-77.5,9.8-89.1,10.8c-1.4,0.1-3.1,0.1-5.4,0.1v12.5c18.4,0.1,36.4-0.3,45.9-1.1
		c34.5-3,57-6.4,76.1-11.3c27-7.1,57.2-11.4,100-14.1c28.4-1.8,37.4,0.5,50.8,13.3c8.9,8.5,14.1,16.3,31.9,47.1
		c21.9,38.1,32,53,57.6,85.1c21.1,26.5,40.1,48.2,74.3,85.1c15.4,16.6,37.8,42.9,77.3,90.8c39.8,48.1,48.9,58.4,74.9,84.7
		c20,20.2,25.6,24.5,47.2,36.1c5.9,3.2,13.3,7.6,16.3,9.5c15.5,10.4,25.5,12.8,28.2,6.8c4-8.8-14.2-22.1-49.4-35.9
		c-18.8-7.4-26.5-12.8-41.4-29.4c-13.9-15.3-23.7-27.4-46.1-56.2c-11.3-14.4-25.6-32.4-31.9-40c-6.3-7.7-13.7-17.3-16.4-21.4
		c-16.8-25.7-15.1-46.7,4.1-50.9c4.6-0.9,12.3,1.1,17.6,4.7c10.1,6.8,10.8,7,30.3,6.9c12.9,0,23.9-0.7,41.4-2.6
		c18.3-2,28.4-2.6,43.2-2.6c18-0.1,19.7,0.1,25.2,2c11.5,4.1,29.3,16.4,46.5,31.9c4.5,4.1,12.1,11,16.8,15.3
		c14,12.7,23.2,18,28.8,16.6C1988.4,1261.4,1988,1259.1,1983.2,1252.9z"/>
	<path id="structure61_text3128_Pa5" bar:growlevel="0" bar:type="" class="st50" d="M1694.9,1620.8c-5.7,4.1-7.3,7.4-7.3,14.8
		c0.1,12.2,6.4,19.5,13.7,15.7c4.6-2.5,7.8-20.1,5.3-29.4c-1-3.6-1.3-3.8-4.5-3.8C1699.8,1618.1,1697.5,1618.9,1694.9,1620.8z"/>
	<path id="structure63_label65_PMn" bar:growlevel="0" bar:type="" class="st51" d="M1250.6,1913.7c-1.1,0.7-2.9,3.4-4,6l-2.2,4.8
		l0.3,65.7c0.4,70.9,0,79.6-4,94.7c-3.2,12.2-3.6,14.6-1.9,15.2c0.7,0.3,2.6-0.1,4-0.9c1.4-0.7,5.4-1.8,8.7-2.3
		c7.2-1.2,9.9-2.4,16.8-7.7c2.8-2.3,6.6-4.6,8.4-5.3l3.2-1.4v-17.4c0-18.7-1.3-68.1-2.7-108l-0.9-25l-6.4-8
		c-3.4-4.4-7.5-8.9-8.9-9.9C1258.1,1912.1,1253.2,1911.8,1250.6,1913.7z"/>
	<path class="st52" d="M1242.5,2172.3c0-35.9-1.3-66.5-3.1-70.7c-0.6-1.4-1.6-2-3.6-2v108.7c1.5,0,3.1,0.2,4.5,0.6l2.3,0.5
		L1242.5,2172.3z"/>
	<path id="structure66_label68_AmbSC" bar:growlevel="0" bar:type="" class="st53" d="M1549.9,1894.9c-7.7,2.1-13.7,6-17.5,11.5
		c-2,3-2.3,4.5-2.3,10c0,11.1,5.2,18.6,14.8,21.2c4.9,1.3,17.1,0.5,21.9-1.4c9.2-3.7,12.8-12.9,10.1-25.8
		C1573.9,1896.3,1564.7,1890.9,1549.9,1894.9z"/>
	<path id="structure67_label69_10N" bar:growlevel="0" bar:type="" class="st54" d="M1322.7,1661.5c-2.3,1.7-1.4,4.1,4.8,13.7
		c6.9,10.6,13.3,16.9,25,24.7c16.3,10.8,30.7,14.9,44.8,13c7.9-1.2,9.1-1.9,8.3-5c-0.4-1.7-2.6-3.4-9.3-6.9
		c-10.4-5.6-30.7-18.7-44.3-28.8c-5.4-4-12-8.2-14.6-9.5C1332.1,1660.1,1325.4,1659.6,1322.7,1661.5z"/>
	<path id="structure69_label71_ml" bar:growlevel="0" bar:type="" class="st55" d="M1243.7,2157.8c-1.1,1-0.7,21.9,0.4,21.9
		c0.5,0,1.7-0.5,2.7-0.9c1.2-0.7,3.2-0.5,6.8,0.4c10,2.6,24.7,3.5,38,2.3c6.8-0.5,22.1-1.4,34.3-1.9c23.9-0.9,63.9-5.1,63.9-6.8
		c0-0.5-2.7-2.3-5.9-3.9l-5.9-3l-22.2-1c-19.1-0.9-24.3-0.8-37.9,0.5c-8.6,0.8-20.2,2.5-25.6,3.8c-13.8,3.1-22.8,3.1-29.3-0.2
		c-2.6-1.3-6.9-4.5-9.5-7.2C1248.8,2157.4,1245.4,2156,1243.7,2157.8z"/>
	<path id="structure70_label72_IOPr" bar:growlevel="0" bar:type="" class="st17" d="M1322.2,2111.6c0,2,1.2,3.1,6.9,6.8
		c3.8,2.4,11.2,6.3,16.4,8.7c5.2,2.3,14.4,6.8,20.3,9.9c5.9,3.1,17.7,9.1,26.1,13.2c14.8,7.3,20.3,11.1,18.9,13
		c-0.9,1.5-4,1.2-12.2-1.2c-18.2-5.3-42.8-16.7-72.4-33.7c-20.5-11.7-24.9-13.7-30.1-13.7c-6.2,0-5.8,1.5,1.6,7.7
		c12.7,10.5,25,17.2,87,46.9l29.7,14.2h7.2c12.2,0,17.6-4.2,17.6-13.7c0-3.8-0.8-6.2-4.2-13.1c-3.7-7-5.2-9.1-10.2-13
		c-7-5.8-20.2-12.4-27-13.7c-2.7-0.5-9.2-1.6-14.4-2.4c-11.2-1.7-21.8-4.9-39.8-12.1c-7.3-3-15-5.6-17.3-5.9
		C1322.3,2109.2,1322.2,2109.3,1322.2,2111.6z"/>
	<path id="structure71_label73_Li" bar:growlevel="0" bar:type="" class="st56" d="M1580.1,1888.6c-2.1,2.1-1.4,10.2,1.2,15.4
		c4.1,7.9,18.1,17.9,29.9,21.2c13.7,4,23.8,14.8,35.7,38.4c3.9,7.6,11.1,20.3,15.9,28.2c4.8,7.8,12,20.7,15.8,28.6
		c3.9,7.9,7.6,15,8.1,15.8c1.8,2.1,9.1,1.6,12.7-0.8c3.5-2.3,4.2-4.9,2.2-8.1c-0.7-1.2-2.2-4.4-3.1-7c-1.3-3.9-2.4-5.2-5-6.7
		c-8.5-4.5-18.5-19-34.3-49.3c-14.3-27.5-20.3-34.6-46.4-56.1C1586.8,1886.9,1583.7,1885.1,1580.1,1888.6z"/>
	<path id="structure72_text3132_Pa5" bar:growlevel="0" bar:type="" class="st50" d="M1766.2,1664c-3.2,0.7-7.4,3.2-9,5.3
		c-1.5,2-1.4,7.7,0.1,10.8c2,3.8,7.3,8,11.1,8.8c5.4,1.2,14.1,0.6,17.3-1.1c3.3-1.7,6.3-7.4,6.4-12c0-8.3-6-12.9-16.7-12.7
		C1771.9,1663.2,1767.7,1663.5,1766.2,1664z"/>
	<path class="st57" d="M1243.9,2010.9c-0.1-96-1.3-169.1-3-176.6c-0.7-3.6-1.8-7.3-2.3-8.4c-0.6-1.1-1.7-1.7-2.7-1.7v271.9
		c1.1,0,2.2-2.4,3.6-7.1C1243.6,2074.9,1243.9,2069.5,1243.9,2010.9z"/>
	<path id="structure7_label7_IRt" bar:growlevel="0" bar:type="" class="st49" d="M1366.3,1710.3c0,0.7,5,8.3,10.9,16.8
		c56.5,80.5,99.1,146.6,137.7,213.8c3.2,5.6,6.3,10.2,6.9,10.2c0.6,0,1.1-1.3,1.1-3.4c0-4.2,2.5-9.6,6.4-14l3-3.4l-1.5-5.7
		c-1.8-6.8-1.9-9.4-0.4-14.2c1.5-5.1,6.6-10,13.9-13.4c5.5-2.6,7.1-3,13.9-3c7.1,0,7.9,0.2,11.1,2.6c4.9,3.7,8,10.9,8.5,19.3
		c0.4,6,0.5,6.7,2.9,7.8c7.4,3.8,16.7,19.2,20.3,33.6c2.4,9.6,3.2,23.9,1.9,36.3l-0.7,6.8l5.3,0.4c11.2,0.8,14,5.6,14.4,25
		c0.5,21.6-2.3,40.9-7.7,50.6c-3.3,6.1-11.8,14.5-17.4,17.1c-2.4,1.2-4.4,2.5-4.5,3.1c0,1.4,6.3,3.1,12.3,3.1
		c11.3,0,28.9-6.7,42.2-16.1c15.5-10.8,28.2-33.2,29.7-52.1c1-12.8-0.6-17.5-13.5-38.8c-6.1-10.2-13.7-23.6-16.7-29.8
		c-6.8-13.8-11.4-20.3-19.5-27.9c-6.2-5.9-9.3-7.7-18.3-10.3c-9.8-2.8-23.7-13-27.4-20.3c-0.9-1.6-2.1-5.7-2.7-9.1
		c-1.1-5.3-2.2-7.6-8.2-16.4c-33.9-49.2-51.6-70.4-99.4-119c-27.9-28.3-38.5-37.9-44.5-39.8c-2.5-0.8-7.7-3.1-11.5-5.1l-6.9-3.6
		l-6.3,1.2c-8.3,1.5-21.4,0.7-28.3-1.7C1366.9,1708.6,1366.3,1708.6,1366.3,1710.3z"/>
	<path class="st44" d="M1463.4,1514.6c-31.8,9.1-87,14.1-178.5,16.3c-16.4,0.4-32.8,0.6-49.1,0.6v10.9c33.1,0,66.4-1,97.7-3.1
		c51.7-3.5,94.7-9.4,118.5-16.2c12.8-3.6,22.3-7.8,22.3-9.7S1474.1,1511.4,1463.4,1514.6z"/>
	<path id="structure87_label89_MV" bar:growlevel="0" bar:type="" class="st58" d="M1434.3,1597.5c-13.8,3.9-32.4,7.9-47.3,10.2
		c-5.2,0.8-10.8,1.7-12.3,2c-1.6,0.3-3,0.9-3,1.5c0,1.1,35.1,13.3,38.2,13.2c1.3,0,1.5-0.4,1.1-2.3c-1.5-6,6-8,26.9-7.3
		c7.9,0.4,15.5,0.8,16.9,1.2c2.4,0.5,2.4,0.5,2.4-3.9c0-8.9-4.3-18.4-8.4-18.2C1447.8,1593.9,1441.2,1595.6,1434.3,1597.5z"/>
	<path class="st44" d="M1983.2,1252.9c-7.6-9.7-14.1-20.3-16.8-27.2c-3.7-9.4-13.7-45.1-15.8-56.2c-2.5-13.1-4-30.3-3.2-39.8
		c0.3-4.5,1.3-15.6,2.4-24.8c2.5-22,2.6-39.4,0.5-45.1c-3.2-8.4-9.6-7.7-13.7,1.3c-2.9,6.4-4.6,15.2-6.8,34.8
		c-3.4,31.9-4.5,35.7-12.7,44.5c-6.7,7.2-12.2,10.2-35.5,18.8c-20.8,7.7-29.3,10.1-42.2,11.5c-15.9,1.8-37.1-1.5-55.3-8.6
		c-33.8-13.1-90.6-45-148.2-83.4c-57.7-38.4-83.7-61.2-116.4-101.4c-4.9-6.1-10.3-12.1-12-13.1c-8.5-5.7-20.3-7.2-49.9-6.6
		c-32,0.7-80.6,4.9-127.4,11c-47.6,6.2-77.5,9.8-89.1,10.8c-1.4,0.1-3.1,0.1-5.4,0.1v12.5c18.4,0.1,36.4-0.3,45.9-1.1
		c34.5-3,57-6.4,76.1-11.3c27-7.1,57.2-11.4,100-14.1c28.4-1.8,37.4,0.5,50.8,13.3c8.9,8.5,14.1,16.3,31.9,47.1
		c21.9,38.1,32,53,57.6,85.1c21.1,26.5,40.1,48.2,74.3,85.1c15.4,16.6,37.8,42.9,77.3,90.8c39.8,48.1,48.9,58.4,74.9,84.7
		c20,20.2,25.6,24.5,47.2,36.1c5.9,3.2,13.3,7.6,16.3,9.5c15.5,10.4,25.5,12.8,28.2,6.8c4-8.8-14.2-22.1-49.4-35.9
		c-18.8-7.4-26.5-12.8-41.4-29.4c-13.9-15.3-23.7-27.4-46.1-56.2c-11.3-14.4-25.6-32.4-31.9-40c-6.3-7.7-13.7-17.3-16.4-21.4
		c-16.8-25.7-15.1-46.7,4.1-50.9c4.6-0.9,12.3,1.1,17.6,4.7c10.1,6.8,10.8,7,30.3,6.9c12.9,0,23.9-0.7,41.4-2.6
		c18.3-2,28.4-2.6,43.2-2.6c18-0.1,19.7,0.1,25.2,2c11.5,4.1,29.3,16.4,46.5,31.9c4.5,4.1,12.1,11,16.8,15.3
		c14,12.7,23.2,18,28.8,16.6C1988.4,1261.4,1988,1259.1,1983.2,1252.9z"/>
	<path id="structure8_label8_RVRG" bar:growlevel="0" bar:type="" class="st59" d="M1576.9,1926.3c-4.1,12.4-27.3,17.2-39.1,8
		c-2.3-1.7-4.7-3.1-5.4-3.1c-1.9,0-7.5,7.8-8.6,12.1c-2,7.3-0.6,11.5,9.3,29.4c5.1,9.2,12.3,22.6,16,29.9c3.7,7.3,7.2,13.2,7.7,13.2
		c0.5,0,3.7-1.2,6.9-2.7c7.4-3.3,28.8-10.5,33.8-11.3c3.6-0.5,3.7-0.7,4.4-4.8c0.4-2.3,0.7-10.8,0.6-19c-0.1-17.3-1.6-24.5-7.6-36.7
		c-3.8-7.7-12.7-18.2-15.5-18.2C1578.6,1923.2,1577.5,1924.5,1576.9,1926.3z"/>
	<path id="structure90_label97_pms" bar:growlevel="0" bar:type="" class="st60" d="M1590.7,1508.4c-0.5,2.2-1.3,4.9-1.7,6
		c-0.6,2.1-0.5,2.2,2.9,1.6c1.9-0.4,5.9-0.6,8.7-0.6c3.5,0,5.1-0.4,5.1-1.2c0-1.3-11.2-9.6-12.9-9.6
		C1592.2,1504.7,1591.3,1506.4,1590.7,1508.4z"/>
	<path id="structure91_label98_icp" bar:growlevel="0" bar:type="" class="st61" d="M1720.5,1582.2c-2.1,2.4-2.3,3.4-1.9,6.5
		c1.3,7.6,12,21.3,22.5,28.8c3,2.2,11,6.7,17.6,10c15.7,7.8,24.1,13.4,37.4,24.6c22.4,18.9,36.7,36.6,48.4,60.1
		c13.7,27.6,16.3,41.5,16.3,86.8c0,35.9-2,53.5-9.1,82.7c-10.5,43-31.8,81.4-61.5,110.9c-9.8,9.8-12.5,11.9-19.1,15.1
		c-8,4-13.5,4.9-19.4,3.4c-2.7-0.7-3-0.6-3,1.4c0,3.2-4,10.8-7.3,13.9c-4.1,3.9-11.6,7.2-19.3,8.5c-6.4,1-8.6,0.7-15.5-2
		c-2.6-1.1-3-1-6,1.7c-1.8,1.5-4.6,3.1-6.3,3.3c-5.1,1-7.7-1-11.8-8.7c-2-3.9-4.1-7-4.7-7c-0.8,0-1.2,1.8-1.2,6.1
		c0,13-6.8,29.9-17.3,43.1c-6.5,8.2-12.9,13.2-24,19c-10.5,5.4-17.8,8-26.6,9.3c-6.1,0.9-6.8,1.3-9.4,4.5
		c-8.9,11-40.1,23.8-62.6,25.6c-14,1.2-45.1-3.4-63.3-9.4c-19-6.2-37.2-17.2-44-26.6l-2-2.7l-3,1.8c-2.1,1.2-4.5,1.7-8.1,1.7
		c-4.6-0.1-7-1-23-8.6c-36.4-17.5-48.8-21.2-74.5-22c-15.6-0.5-22.1,0-33.8,2.5l-4.5,1v7.1v7.1h5.3c3.2,0,6.9-0.6,9.4-1.7
		c10.4-4.5,21.5-4.3,45.3,0.4c14.2,2.9,18.5,4.5,31.4,12.2c15,9,19.4,11.1,33.5,16c6.8,2.4,23.9,9.4,38,15.6
		c14.1,6.2,28.6,12.3,32.2,13.7c8.9,3.1,23.5,5.7,42.5,7.3c17.4,1.4,21.3,2.3,24.8,5.3c1.9,1.6,2.3,2.5,1.9,4.4
		c-1.5,5.9-9.4,11.2-20.3,13.3c-14,2.7-56.6-3.9-70.5-10.9c-2-1.1-6.9-4.3-11.1-7.3c-8.2-5.8-23.2-14.3-25.4-14.3
		c-2.7,0-1.1,2.5,3.7,5.8c2.7,1.9,6.4,5,8.2,7c4.1,4.5,9.2,15.1,9.8,20.5c1,7.6-4,13.2-13.6,15.4c-2.7,0.6-4.9,1.5-4.9,2.1
		c0,1.6,20.8,12.6,22.1,11.7c0.6-0.4,3.6-2.7,6.6-5c9.4-7,13.7-8,35.3-7.7c16.7,0.2,19.3,0,27-1.9c18.5-4.6,32.8-10.2,71.6-28
		c14.9-6.8,33.1-15.1,40.5-18.5c19.3-8.7,60.8-29.4,75.6-37.7c60.1-33.2,99.9-65,121-96.4c3.4-5,11-18.7,16.9-30.6
		c45.5-91.2,57.5-153.4,42.5-220.9c-2.9-13-9.5-36.9-12.6-45.3c-13-35.6-42-70.8-74.9-90.9c-3.6-2.2-17.2-10.6-30.2-18.6
		c-13.1-8.1-25.3-15.2-27-15.8c-1.8-0.6-5.3-1.2-7.9-1.3C1723.4,1579.4,1722.7,1579.6,1720.5,1582.2z"/>
	<path id="structure92_label99_dsc-oc" bar:growlevel="0" bar:type="" class="st62" d="M1720.5,1582.2c-2.1,2.4-2.3,3.4-1.9,6.5
		c1.3,7.6,12,21.3,22.5,28.8c3,2.2,11,6.7,17.6,10c15.7,7.8,24.1,13.4,37.4,24.6c22.4,18.9,36.7,36.6,48.4,60.1
		c13.7,27.6,16.3,41.5,16.3,86.8c0,35.9-2,53.5-9.1,82.7c-10.5,43-31.8,81.4-61.5,110.9c-9.8,9.8-12.5,11.9-19.1,15.1
		c-8,4-13.5,4.9-19.4,3.4c-2.7-0.7-3-0.6-3,1.4c0,3.2-4,10.8-7.3,13.9c-4.1,3.9-11.6,7.2-19.3,8.5c-6.4,1-8.6,0.7-15.5-2
		c-2.6-1.1-3-1-6,1.7c-1.8,1.5-4.6,3.1-6.3,3.3c-5.1,1-7.7-1-11.8-8.7c-2-3.9-4.1-7-4.7-7c-0.8,0-1.2,1.8-1.2,6.1
		c0,13-6.8,29.9-17.3,43.1c-6.5,8.2-12.9,13.2-24,19c-10.5,5.4-17.8,8-26.6,9.3c-6.1,0.9-6.8,1.3-9.4,4.5
		c-8.9,11-40.1,23.8-62.6,25.6c-14,1.2-45.1-3.4-63.3-9.4c-19-6.2-37.2-17.2-44-26.6l-2-2.7l-3,1.8c-2.1,1.2-4.5,1.7-8.1,1.7
		c-4.6-0.1-7-1-23-8.6c-36.4-17.5-48.8-21.2-74.5-22c-15.6-0.5-22.1,0-33.8,2.5l-4.5,1v7.1v7.1h5.3c3.2,0,6.9-0.6,9.4-1.7
		c10.4-4.5,21.5-4.3,45.3,0.4c14.2,2.9,18.5,4.5,31.4,12.2c15,9,19.4,11.1,33.5,16c6.8,2.4,23.9,9.4,38,15.6
		c14.1,6.2,28.6,12.3,32.2,13.7c8.9,3.1,23.5,5.7,42.5,7.3c17.4,1.4,21.3,2.3,24.8,5.3c1.9,1.6,2.3,2.5,1.9,4.4
		c-1.5,5.9-9.4,11.2-20.3,13.3c-14,2.7-56.6-3.9-70.5-10.9c-2-1.1-6.9-4.3-11.1-7.3c-8.2-5.8-23.2-14.3-25.4-14.3
		c-2.7,0-1.1,2.5,3.7,5.8c2.7,1.9,6.4,5,8.2,7c4.1,4.5,9.2,15.1,9.8,20.5c1,7.6-4,13.2-13.6,15.4c-2.7,0.6-4.9,1.5-4.9,2.1
		c0,1.6,20.8,12.6,22.1,11.7c0.6-0.4,3.6-2.7,6.6-5c9.4-7,13.7-8,35.3-7.7c16.7,0.2,19.3,0,27-1.9c18.5-4.6,32.8-10.2,71.6-28
		c14.9-6.8,33.1-15.1,40.5-18.5c19.3-8.7,60.8-29.4,75.6-37.7c60.1-33.2,99.9-65,121-96.4c3.4-5,11-18.7,16.9-30.6
		c45.5-91.2,57.5-153.4,42.5-220.9c-2.9-13-9.5-36.9-12.6-45.3c-13-35.6-42-70.8-74.9-90.9c-3.6-2.2-17.2-10.6-30.2-18.6
		c-13.1-8.1-25.3-15.2-27-15.8c-1.8-0.6-5.3-1.2-7.9-1.3C1723.4,1579.4,1722.7,1579.6,1720.5,1582.2z"/>
	<path id="structure93_label102_10n" bar:growlevel="0" bar:type="" class="st63" d="M1512.1,1714.5c-7.6,2.8-25.5,6.8-36.9,8.5
		c-7.7,1.1-13.9,1.3-24.9,1c-16.8-0.5-17.3-0.3-10.3,5.5c5.1,4.4,49,48.6,60,60.5c29.8,32.2,42.9,48.9,70.6,89.4
		c5.7,8.3,6.9,9.6,8.5,9.2c5.1-1.6,6.5-1.4,10.9,1.5c9,6,38.9,31.2,45.4,38.2c9.6,10.3,13.6,16.3,25,38c11.9,22.6,21.9,38,27.8,43.3
		c6.5,5.8,7.2,5.3,7.1-4.7c0-6.8,0.4-8.8,1.9-11.4c2.7-4.7,7.9-7.2,19.5-9.4c1.3-0.3,2.4-0.9,2.4-1.4c0-0.5-2.6-3.3-5.8-6.3
		c-6.8-6.4-13.2-16.3-16.2-24.8c-3.3-9.5-10.1-59.8-12.1-89.8c-1.5-22.1-4.3-32.7-13.2-50.1c-4.7-9.3-5.5-10.3-18.8-23.4
		c-15-14.9-22.9-20.6-45.4-33.6c-23.9-13.8-83.9-41.9-88.7-41.8C1517.8,1712.7,1514.8,1713.5,1512.1,1714.5z"/>
	<path id="structure95_label105_C1" bar:growlevel="0" bar:type="" class="st64" d="M1597.2,2002.1c-12.2,2.8-40.1,13.3-40.1,15.2
		c0,0.6,1.4,4.6,3.1,8.6c1.7,4.1,7.4,19,12.7,33.1c10.6,28.2,11.1,29.2,14.5,33.2c2.9,3.4,5,3.5,10.7,0.2
		c10.2-5.8,17.9-17.3,20.7-30.4c3.2-15.1,3.8-42.3,1.3-51.8c-0.5-1.8-2.1-4.6-3.6-6c-2.6-2.7-3.1-2.8-10.1-2.7
		C1602.3,2001.6,1598.2,2001.8,1597.2,2002.1z"/>
	<path id="structure98_label110_ts" bar:growlevel="0" bar:type="" class="st65" d="M1250.6,1913.7c-1.1,0.7-2.9,3.4-4,6l-2.2,4.8
		l0.3,65.7c0.4,70.9,0,79.6-4,94.7c-3.2,12.2-3.6,14.6-1.9,15.2c0.7,0.3,2.6-0.1,4-0.9c1.4-0.7,5.4-1.8,8.7-2.3
		c7.2-1.2,9.9-2.4,16.8-7.7c2.8-2.3,6.6-4.6,8.4-5.3l3.2-1.4v-17.4c0-18.7-1.3-68.1-2.7-108l-0.9-25l-6.4-8
		c-3.4-4.4-7.5-8.9-8.9-9.9C1258.1,1912.1,1253.2,1911.8,1250.6,1913.7z"/>
	<path class="st45" d="M2094.5,1157.7c-12.6-26.7-39.5-67.2-68.1-102.2c-28.9-35.5-64.3-70.3-97.6-96.2
		c-50.9-39.6-109.6-69.5-168-85.5c-62.5-17.1-115.5-16.3-151.5,2.3c-17,8.7-28.7,19.7-48.1,44.9c-11.8,15.4-17,20.8-22.9,23.8
		c-7.7,4-14.5,1.2-21.1-8.7c-2.3-3.4-4.8-6.8-5.6-7.7c-2.3-2.3-6.5-1.7-12.2,1.8c-8.2,5-10.2,4.9-24.8-0.8
		c-27.5-10.8-46.6-14.5-75.1-14.5c-15.1,0-21.3,0.4-34.6,2.4c-37.2,5.4-58.9,6.5-129.1,6.5v55.4c7.8,0,33.1-2.8,76.9-8.5
		c49.8-6.5,61.3-7.7,105.8-11.4c30.7-2.6,64.6-2.9,74.7-0.5c12.6,2.9,14.8,4.5,27.6,20.3c13.3,16.4,36,39.9,50.2,52.2
		c47.1,40.6,159.1,109.8,210.6,130.1c25,9.9,51.6,12.2,74.1,6.5c12.4-3.1,45.6-15.8,52.2-19.7c13.2-8,18-17.5,20-39.2
		c3.7-42.8,9.4-59.1,18.8-53.9c5.8,3.2,6.9,18.5,3.6,46.7c-5.1,43.9-3,63,12.9,113.8c4.6,14.7,7.7,21,16.8,33.1
		c4,5.4,7.3,10.6,7.3,11.5c0,2.2-3.2,3.5-6.3,2.6c-7.1-2.1-16.3-8.6-30.2-21.5c-21.3-19.9-37.6-32.6-49.7-38.7
		c-9.5-4.8-14.3-5.7-31.3-5.6c-14.7,0-22.8,0.5-64.3,4.6c-29.4,2.8-38.2,2.2-47.7-3.3c-12.4-7.2-13.5-7.6-20.4-7.2
		c-7.6,0.4-12.7,3.1-15.2,8c-2.3,4.4-2.7,15.5-0.8,21.9c3.5,12.2,9.4,21.4,27.1,42.8c6.2,7.6,20.4,25.5,31.7,39.9
		c23.7,30.3,30.2,38.3,44,53.7c16.3,18.2,22.1,22.4,42.1,30.5c30.1,12.2,47.8,23.3,50.4,31.5c1.7,5.5-3,9.4-9.6,7.9
		c-4.6-1-9.1-3.2-19.2-9.7c-4.4-2.8-12.8-7.6-18.4-10.8c-22.6-12.4-30.2-18.8-60.2-50.4c-18.7-19.9-24.8-26.7-59-68.4
		c-44.3-53.7-61.6-74-81-94.9c-61.6-66.4-96.1-110.2-120.3-152.1c-3.8-6.5-10.5-18.2-15.1-26.1c-11.2-19.3-15.6-25.7-22.4-33
		c-14.9-15.9-24.6-18.1-67.7-14.7c-36.1,2.9-61.3,6.7-85.9,13c-32.2,8.3-76.1,13-122,12.9v31.9c4.1,0,7.9,0,11.3-0.1
		c46.2-1.5,123.5-10,179.4-19.5c34.3-5.8,52.1-2.2,69.7,14.4c9.5,8.9,14.7,15.9,31.9,43.5c32,51.3,54.4,84.4,78.9,116.8
		c19.3,25.3,37.4,45.8,69.5,78.2c27.6,28,47.7,47,89.6,84.7c16.1,14.6,36.6,33.1,45.7,41.3c20.3,18.4,31.1,26.9,38.3,30.7
		c14.8,7.8,17.9,11.2,27.9,31.1c3.2,6.4,7.5,14.2,9.4,17.4c4.6,7.5,12.1,14.9,17.7,17.7c13.5,6.6,35.5,1.9,46.2-9.8
		c5.9-6.5,10.2-14.8,16-31.6c3.9-11.1,4.9-15.2,4.9-19.5c0-10.1-3.1-13.6-21.7-24.8c-29.4-17.6-51.8-27.4-69.4-30.4
		c-14.2-2.4-22.2-5.8-38.5-15.9c-30.8-19.4-41.2-29.9-53-53.6c-5.2-10.3-11.6-28.6-12.4-35.4c-0.9-8,4.4-15.8,16.4-24
		c3.8-2.6,15.7-6.2,24.7-7.5c17.5-2.6,43.9,0.4,60.8,6.7c20.3,7.6,46.5,25.4,97.3,65.3c46,36.2,56.2,41.9,71.1,39.4
		c7.5-1.2,22.1-8.8,27.9-14.7c10.8-10.7,18.4-32.9,24.3-71.1c1.3-8.5,3.6-20.6,5.1-27C2110,1203.8,2107.4,1185.2,2094.5,1157.7z"/>
	<text id="label30" bar:growlevel="0" transform="matrix(1 0 0 1 1254.0303 2158.834)" class="st66 st67 st68">IOM</text>
	<text id="label31" bar:growlevel="0" transform="matrix(1 0 0 1 1249.1201 1810.8926)" class="st66 st67 st68">mlf</text>
	<text id="label32" bar:growlevel="0" transform="matrix(1 0 0 1 1476.9268 2148.9023)" class="st66 st67 st68">IOD</text>
	<text id="label33" bar:growlevel="0" transform="matrix(1 0 0 1 1476.9268 1600.8828)" class="st66 st67 st68">SpVe</text>
	<text id="label35" bar:growlevel="0" transform="matrix(1 0 0 1 1340.8291 1640.4141)" class="st66 st67 st68">C2</text>
	<text id="label38" bar:growlevel="0" transform="matrix(1 0 0 1 1274.5498 1511.498)" class="st66 st67 st68">10Cb</text>
	<text id="label39" bar:growlevel="0" transform="matrix(1 0 0 1 1269.7451 1440.8379)" class="st66 st67 st68">9cCb</text>
	<text id="Unlabeled-1569-1072" bar:growlevel="0" transform="matrix(1 0 0 1 1267.0498 1371.7637)" class="st66 st67 st68">grey</text>
	<text id="Unlabeled-1832-2223" bar:growlevel="0" transform="matrix(1 0 0 1 1274.5498 2116.666)" class="st66 st67 st68">grey</text>
	<text id="label143" bar:growlevel="0" transform="matrix(1 0 0 1 1275.5693 2233.9941)" class="st66 st67 st68">vert</text>
	<text id="label142" bar:growlevel="0" transform="matrix(1 0 0 1 1427.6035 1675.2129)" class="st66 st67 st68">SolIM</text>
	<text id="label141" bar:growlevel="0" transform="matrix(1 0 0 1 1414.666 1638.1406)" class="st66 st67 st68">SolDL</text>
	<text id="label140" bar:growlevel="0" transform="matrix(1 0 0 1 1506.9121 1696.2383)" class="st66 st67 st68">SolVL</text>
	<text id="label147" bar:growlevel="0" transform="matrix(1 0 0 1 1355.9395 1276.9473)" class="st66 st67 st68">sf</text>
	<text id="label145" bar:growlevel="0" transform="matrix(1 0 0 1 1240.2607 2215.8926)" class="st66 st67 st68">asp</text>
	<text id="label144" bar:growlevel="0" transform="matrix(1 0 0 1 1249.1201 2110.084)" class="st66 st67 st68">IODM</text>
	<text id="label149" bar:growlevel="0" transform="matrix(1 0 0 1 1355.9395 1062.0195)" class="st66 st67 st68">ppf</text>
	<text id="label148" bar:growlevel="0" transform="matrix(1 0 0 1 1355.9395 1456.5898)" class="st66 st67 st68">plf</text>
	<text id="label8" bar:growlevel="0" transform="matrix(1 0 0 1 1543.3789 1971.8105)" class="st66 st67 st68">RVRG</text>
	<text id="label9" bar:growlevel="0" transform="matrix(1 0 0 1 1778.6084 1044.7676)" class="st66 st67 st68">Crus2</text>
	<text id="label0" bar:growlevel="0" transform="matrix(1 0 0 1 1713.6572 1804.6191)" class="st66 st67 st68">Sp5I</text>
	<text id="label1" bar:growlevel="0" transform="matrix(1 0 0 1 1570.4072 1824.4824)" class="st66 st67 st68">PCRt</text>
	<text id="label3" bar:growlevel="0" transform="matrix(1 0 0 1 1459.709 2085.6797)" class="st66 st67 st68">LPGi</text>
	<text id="label4" bar:growlevel="0" transform="matrix(1 0 0 1 1568.9688 2048.0527)" class="st66 st67 st68">CVL</text>
	<text id="label5" bar:growlevel="0" transform="matrix(1 0 0 1 1617.7803 1997.8555)" class="st66 st67 st68">IRt</text>
	<text id="label7" bar:growlevel="0" transform="matrix(1 0 0 1 1477.918 1841.1973)" class="st66 st67 st68">IRt</text>
	<text id="label89" bar:growlevel="0" transform="matrix(1 0 0 1 1411 1611.4219)" class="st66 st67 st68">MVe</text>
	<text id="label88" bar:growlevel="0" transform="matrix(1 0 0 1 1275.5693 1536.1934)" class="st66 st67 st68">cbw</text>
	<text id="label138" bar:growlevel="0" transform="matrix(1 0 0 1 1484.3564 1629.873)" class="st66 st67 st68">PSol</text>
	<text id="label139" bar:growlevel="0" transform="matrix(1 0 0 1 1434.083 1622.6094)" class="st66 st67 st68">Z</text>
	<text id="label18" bar:growlevel="0" transform="matrix(1 0 0 1 1275.5078 1746.0781)" class="st66 st67 st68">12N</text>
	<text id="label19" bar:growlevel="0" transform="matrix(1 0 0 1 1254.3232 1652.2852)" class="st66 st67 st68">4V</text>
	<text id="label12" bar:growlevel="0" transform="matrix(1 0 0 1 1595.8193 1564.3086)" class="st66 st67 st68">ECu</text>
	<text id="label13" bar:growlevel="0" transform="matrix(1 0 0 1 1536.4492 1600.8828)" class="st66 st67 st68">Cu</text>
	<text id="label10" bar:growlevel="0" transform="matrix(1 0 0 1 1962.7803 1511.4395)" class="st66 st67 st68">PM</text>
	<text id="label11" bar:growlevel="0" transform="matrix(1 0 0 1 1712.9688 1510.0566)" class="st66 st67 st68">Cop</text>
	<text id="label14" bar:growlevel="0" transform="matrix(1 0 0 1 1555.8584 1656.7559)" class="st66 st67 st68">Mx</text>
	<text id="label97" bar:growlevel="0" transform="matrix(1 0 0 1 1595.041 1509.9688)" class="st66 st67 st68">pms</text>
	<text id="label98" bar:growlevel="0" transform="matrix(1 0 0 1 1760.248 1607.6074)" class="st66 st67 st68">icp</text>
	<text id="label99" bar:growlevel="0" transform="matrix(1 0 0 1 1873.1377 1788.957)" class="st66 st67 st68">dsc-oc</text>
	<text id="label69" bar:growlevel="0" transform="matrix(1 0 0 1 1360.2373 1693.6074)" class="st66 st67 st68">10N</text>
	<text id="label68" bar:growlevel="0" transform="matrix(1 0 0 1 1549.3789 1924.1895)" class="st66 st67 st68">AmbSC</text>
	<text id="label67" bar:growlevel="0" transform="matrix(1 0 0 1 1240.2607 2197.4785)" class="st66 st67 st68">RPa</text>
	<text id="label65" bar:growlevel="0" transform="matrix(1 0 0 1 1264.1377 1941.5039)" class="st66 st67 st68">PMn</text>
	<text id="label63" bar:growlevel="0" transform="matrix(1 0 0 1 1680.5693 1167.6094)" class="st66 st67 st68">cbw</text>
	<text id="Unlabeled-1744-666" bar:growlevel="0" transform="matrix(1 0 0 1 1275.5693 807.1836)" class="st66 st67 st68">grey</text>
	<text id="label105" bar:growlevel="0" transform="matrix(1 0 0 1 1608.418 2054.3262)" class="st66 st67 st68">C1</text>
	<text id="Unlabeled-1794-1175" bar:growlevel="0" transform="matrix(1 0 0 1 1355.9365 1167.6094)" class="st66 st67 st68">cbw</text>
	<text id="label102" bar:growlevel="0" transform="matrix(1 0 0 1 1678.1992 1922.6914)" class="st66 st67 st68">10n</text>
	<text id="label100" bar:growlevel="0" transform="matrix(1 0 0 1 2044.709 1405.9102)" class="st66 st67 st68">apmf</text>
	<text id="label78" bar:growlevel="0" transform="matrix(1 0 0 1 1241.1572 1985.2227)" class="st66 st67 st68">ROb</text>
	<text id="label71" bar:growlevel="0" transform="matrix(1 0 0 1 1301.8789 2173.4141)" class="st66 st67 st68">ml</text>
	<text id="label72" bar:growlevel="0" transform="matrix(1 0 0 1 1415.3096 2172.6934)" class="st66 st67 st68">IOPr</text>
	<text id="label73" bar:growlevel="0" transform="matrix(1 0 0 1 1593.1768 1902.8281)" class="st66 st67 st68">Li</text>
	<text id="label132" bar:growlevel="0" transform="matrix(1 0 0 1 1343.9072 1726.5469)" class="st66 st67 st68">InM</text>
	<text id="label137" bar:growlevel="0" transform="matrix(1 0 0 1 1451.4385 1657.8223)" class="st66 st67 st68">SolI</text>
	<text id="label40" bar:growlevel="0" transform="matrix(1 0 0 1 1274.5498 1140.123)" class="st66 st67 st68">8Cb</text>
	<text id="label43" bar:growlevel="0" transform="matrix(1 0 0 1 1269.7451 1304.1348)" class="st66 st67 st68">9a-bCb</text>
	<text id="label115" bar:growlevel="0" transform="matrix(1 0 0 1 1361.6377 2207.9531)" class="st66 st67 st68">py</text>
	<text id="text3132" bar:growlevel="0" transform="matrix(1 0 0 1 1769.9365 1676.9551)" class="st66 st67 st68">Pa5</text>
	<text id="label110" bar:growlevel="0" transform="matrix(1 0 0 1 1269.748 1956.5352)" class="st66 st67 st68">ts</text>
	<text id="label57" bar:growlevel="0" transform="matrix(1 0 0 1 1517.8193 859.7539)" class="st66 st67 st68">pms</text>
	<text id="label58" bar:growlevel="0" transform="matrix(1 0 0 1 1711.8877 2015.6777)" class="st66 st67 st68">rs</text>
	<text id="label59" bar:growlevel="0" transform="matrix(1 0 0 1 1676.8193 2082.5293)" class="st66 st67 st68">vsc</text>
	<text id="label125" bar:growlevel="0" transform="matrix(1 0 0 1 1267.0498 769.1973)" class="st66 st67 st68">6cCb</text>
	<text id="label124" bar:growlevel="0" transform="matrix(1 0 0 1 1261.4072 966.6621)" class="st66 st67 st68">7Cb</text>
	<text id="label127" bar:growlevel="0" transform="matrix(1 0 0 1 1830.7803 1714.7539)" class="st66 st67 st68">sp5</text>
	<text id="label120" bar:growlevel="0" transform="matrix(1 0 0 1 1490.3213 1655.0059)" class="st66 st67 st68">sol</text>
	<text id="label129" bar:growlevel="0" transform="matrix(1 0 0 1 1547.4883 2087.75)" class="st66 st67 st68">LRt</text>
	<text id="text3128" bar:growlevel="0" transform="matrix(1 0 0 1 1702.1084 1631.4609)" class="st66 st67 st68">Pa5</text>
	<text id="label22" bar:growlevel="0" transform="matrix(1 0 0 1 1387.8301 1926.8613)" class="st66 st67 st68">Gi</text>
	<text id="label21" bar:growlevel="0" transform="matrix(1 0 0 1 1281.2383 1810.8926)" class="st66 st67 st68">Ro</text>
	<text id="label27" bar:growlevel="0" transform="matrix(1 0 0 1 1367.0176 1666.0508)" class="st66 st67 st68">SolM</text>
	<text id="label26" bar:growlevel="0" transform="matrix(1 0 0 1 1439.7813 1710.4512)" class="st66 st67 st68">SolV</text>
	<text id="label25" bar:growlevel="0" transform="matrix(1 0 0 1 1519.375 1674.1074)" class="st66 st67 st68">SolL</text>
	<text id="label24" bar:growlevel="0" transform="matrix(1 0 0 1 1553.96 1712.3164)" class="st66 st67 st68">5Sol</text>
	<text id="label28" bar:growlevel="0" transform="matrix(1 0 0 1 1328.6084 2038.6602)" class="st66 st67 st68">GiV</text>
	<text id="label150" bar:growlevel="0" transform="matrix(1 0 0 1 1355.9395 828.0371)" class="st66 st67 st68">psf</text>
</g>
<text id="label38_1_" bar:growlevel="0" transform="matrix(1 0 0 1 1293.3301 1600.8828)" class="st66 st67 st68">10Cb</text>
</svg>
