<?xml version="1.0" encoding="utf-8"?>
<!-- Generator: Adobe Illustrator 24.1.1, SVG Export Plug-In . SVG Version: 6.00 Build 0)  -->
<svg version="1.1"
	 id="body" inkscape:version="0.47pre4 r22446" sodipodi:docname="61_pretrace_pretrace_v1.svg" xmlns:bar="http://www.3dbar.org" xmlns:cc="http://creativecommons.org/ns#" xmlns:dc="http://purl.org/dc/elements/1.1/" xmlns:inkscape="http://www.inkscape.org/namespaces/inkscape" xmlns:rdf="http://www.w3.org/1999/02/22-rdf-syntax-ns#" xmlns:sodipodi="http://sodipodi.sourceforge.net/DTD/sodipodi-0.dtd" xmlns:svg="http://www.w3.org/2000/svg"
	 xmlns="http://www.w3.org/2000/svg" xmlns:xlink="http://www.w3.org/1999/xlink" x="0px" y="0px" viewBox="0 0 3024 3024"
	 style="enable-background:new 0 0 3024 3024;" xml:space="preserve">
<style type="text/css">
	.st0{fill:#FF000C;}
	.st1{fill:#F1F48E;}
	.st2{fill:#FFB2BA;}
	.st3{fill:#E0E959;}
	.st4{fill:#EEF423;}
	.st5{fill:#D0D447;}
	.st6{fill:#C4C923;}
	.st7{fill:#C3C900;}
	.st8{fill:#8847F2;}
	.st9{fill:#DEFFB2;}
	.st10{fill:#FDFF76;}
	.st11{fill:#FFEC00;}
	.st12{fill:#E8E93B;}
	.st13{fill:#FFF359;}
	.st14{fill:#FEFFB2;}
	.st15{fill:#FBFF8E;}
	.st16{fill:#E2E923;}
	.st17{fill:#FF005D;}
	.st18{fill:#97FF59;}
	.st19{fill:#E9DA00;}
	.st20{fill:#97FF00;}
	.st21{fill:#E9DB00;}
	.st22{fill:#FFFAB2;}
	.st23{fill:#F3FF59;}
	.st24{fill:#FFE900;}
	.st25{fill:#E9E159;}
	.st26{fill:#D8E900;}
	.st27{fill:#5F23ED;}
	.st28{fill:#DBDF6B;}
	.st29{fill:#3FFF00;}
	.st30{fill:#DBFFB2;}
	.st31{fill:#B8FF00;}
	.st32{fill:#925FDC;}
	.st33{fill:#FFDE00;}
	.st34{fill:#8F6BE1;}
	.st35{fill:#FFF459;}
	.st36{fill:#FF0045;}
	.st37{fill:#FF23E9;}
	.st38{fill:#B2FF00;}
	.st39{fill:#A8E959;}
	.st40{fill:#FFEF00;}
	.st41{fill:#C6D400;}
	.st42{fill:#92FF00;}
	.st43{fill:#F6FF00;}
	.st44{fill:#5DFF00;}
	.st45{fill:#E8E900;}
	.st46{fill:#FEFF3B;}
	.st47{fill:#F200DD;}
	.st48{fill:#8CFF00;}
	.st49{fill:#232323;enable-background:new    ;}
	.st50{font-family:'TimesNewRomanPSMT';}
	.st51{font-size:27px;}
</style>
<script  id="script3090"></script>
<script  id="script3088"></script>
<script  id="script3086"></script>
<script  id="script3084"></script>
<script  id="script3082"></script>
<sodipodi:namedview  bordercolor="#666666" borderopacity="1" gridtolerance="10" guidetolerance="10" id="namedview244" inkscape:current-layer="content" inkscape:cx="581.81907" inkscape:cy="744.25192" inkscape:object-paths="true" inkscape:pageopacity="0" inkscape:pageshadow="2" inkscape:window-height="1128" inkscape:window-maximized="1" inkscape:window-width="1918" inkscape:window-x="1680" inkscape:window-y="24" inkscape:zoom="3.7731317" objecttolerance="10" pagecolor="#ffffff" showgrid="false">
	</sodipodi:namedview>
<desc  id="desc5">This was produced by version 4.2 of GNU libplot, a free library for exporting 2-D vector graphics.</desc>
<defs>
	<rdf:RDF>
		<cc:Work  rdf:about="">
			<dc:format>image/svg+xml</dc:format>
			<dc:type  rdf:resource="http://purl.org/dc/dcmitype/StillImage"></dc:type>
		</cc:Work>
	</rdf:RDF>
	<bar:data  content="1.8" name="coronalcoord"></bar:data>
	
		<bar:data  content="{&apos;ReferenceHeight&apos;: 900, &apos;ReferenceWidth&apos;: 1200, &apos;imageSize&apos;: (1200, 900)}" name="rendererConf">
		</bar:data>
	
		<bar:data  content="{&apos;DumpEachStepSVG&apos;: False, &apos;DumpEachStepPNG&apos;: False, &apos;GrowDefaultBoundaryColor&apos;: 200, &apos;CacheLevel&apos;: 5, &apos;NewPathIdTemplate&apos;: &apos;structure%d_%s_%s&apos;, &apos;PoTraceConf&apos;: {&apos;potrace_accuracy_parameter&apos;: &apos;0.001&apos;, &apos;potrace_width_string&apos;: &apos;1200pt&apos;, &apos;potrace_svg_resolution_string&apos;: &apos;300x300&apos;, &apos;potrace_height_string&apos;: &apos;900pt&apos;}, &apos;DetectUnlabelled&apos;: True, &apos;DumpVBrain&apos;: False, &apos;DumpWrongSeed&apos;: True, &apos;DumpDirectory&apos;: &apos;.&apos;, &apos;MinFiterTimesApplication&apos;: 3, &apos;RegionAlreadyTraced&apos;: 100, &apos;UnlabelledTreshold&apos;: 500}" name="tracingConf">
		</bar:data>
	<bar:data  content="0.0176211454,-9.5150660793,0.0176211454,-1.5355884426" name="transformationmatrix"></bar:data>
</defs>
<g id="content">
	<path class="st0" d="M1200,1896.8"/>
	<path class="st0" d="M2239.9,1260c-4.3-83.5-17.5-151.5-41.1-211.5c-5.9-15.1-21.1-46.4-32.7-67.5
		c-49.9-91.2-102.8-149.3-185.8-204.2c-39.1-25.9-81.1-49.1-119.9-66.3c-145.3-64.3-347.4-98.4-474.2-80c-28.5,4-53.3,11.4-74.7,22
		c-21.2,10.5-35.7,22-52.3,41.2c-17.8,20.8-26.2,34.2-35.7,57.8c-7.2,17.6-16.1,48.1-18.2,62c-0.5,2.7-0.9,3.9-1.7,4l0.3,370.3
		c0.6,0.4,1.3,1.6,1.8,3c1.4,4,7.6,10.3,12.6,13c3.5,1.7,5,4.5,2.5,4.5c-0.6,0-2.7,1.1-4.6,2.3l-3.4,2.3l-3.9-1.9
		c-2-1-3.6-1.5-5.1-1.7l0.4,635.7c0.4,0.5,0.7,1.5,0.9,3c1,6.5,5.9,20.2,11.4,31.4c2.9,6,5.3,11.2,5.3,11.4c0,0.2-2,0.4-4.4,0.4
		c-9.6-0.3-15.6,7.9-11.3,15.4c2.4,4.1,6.5,5.8,12.7,5.5c2.3-0.1,8.4-5.1,8.4-6.9c0-3.1,3.5-1,6.8,3.9
		c10.3,15.6,28.5,37.5,46.2,55.5c38.3,39,116.2,102.4,147.1,119.7c32.6,18.2,107.4,24.8,193.8,17.1c37-3.2,61.3-7.7,90-16.7
		c29.8-9.3,54.3-20.9,91.4-43.1c28.8-17.4,46.7-26.4,95-48.2c48.2-21.8,63.5-30,92.3-49.5c35-23.8,62.5-46.7,77.7-64.9
		c9.9-11.9,13.9-18.1,17.3-26.3c4.4-11.1,5-14.9,5.8-37.5c0.8-28.3,1.4-30.1,20.3-54.1c45-57.2,63.7-86.8,81.2-127.9
		c24.6-57.9,40.6-131.9,46.1-213.6C2240.9,1377.9,2241.8,1296.9,2239.9,1260z"/>
	<path class="st1" d="M1203.1,888.5v53.4l0.6,0.3l-0.1-105.4C1203.2,847.5,1203.1,862.6,1203.1,888.5z"/>
	<path class="st1" d="M1467.6,975c-3.6-6.6-28.1-51.3-54.4-99.3c-53.6-97.8-88.6-162-104.7-192.2c-7.5-14-11.3-20.3-12.5-20.5
		c-0.9-0.1-4.9,2.3-8.8,5.2c-13.9,10.4-35.6,34-46.2,50.2c-13,20-25.8,53.7-33.1,87.2c-2.5,11.5-3.7,18.1-4.3,31.1l0.1,105.4
		l2.8,1.2c6.8,2.9,44.6,15.1,105.5,34.1c34.4,10.7,76.5,23.9,93.6,29.4c17.1,5.5,32.3,10.2,33.8,10.3c2.4,0.4,3-0.1,5.4-4
		c7.1-11.4,16.3-19.8,24.3-22.1c2.7-0.7,4.6-1.9,4.8-2.7C1474,987.6,1471.2,981.6,1467.6,975z"/>
	<path id="structure102_Unlabeled-2138-957_Unlabeled" bar:growlevel="0" bar:type="" class="st2" d="M1501,1157.6
		c-13.4,9.4-26.2,22.7-35.6,36.8c-7.7,11.5-6.6,12.9,4.6,5.6c9.9-6.4,27.4-24.1,34.5-34.7C1512.8,1152.7,1511.6,1150.1,1501,1157.6z
		"/>
	<path class="st2" d="M1221.1,1410.8c-6.1,0.9-13.4,1.7-17.1,1.8l0.1,92.3h20.1l1.5-16.8c2.3-25.3,6.1-56.3,7.7-62.7
		c1-4,1.9-5.8,3.2-6.2c1.3-0.3,1.6-1.3,1.6-5.2C1238.2,1408,1239,1408.2,1221.1,1410.8z"/>
	<path class="st2" d="M1280.6,1792.1c-2.4-5-6.3-14.6-8.5-21.2c-3.5-10.3-4.1-13.1-4.1-19v-7l-3.3-0.6c-1.9-0.3-4.7-0.5-6.2-0.5
		c-2.8,0-2.9,0.1-4,6c-2.3,13.6-7.7,22.2-20,31.9c-8.9,7-13.4,11.3-17.3,16.4c-5.8,7.7-7,3.1-7.5-30.2l-0.4-25.8h-5l0.1,83.7
		c2.8,0,5.4-0.4,6.9-1.3c1.3-0.7,3.1-1.3,4-1.3c1.3,0,2.5-1.4,4.2-5.2c5-10.9,13.6-17.3,22.9-17.3c3,0,4.8-0.4,4.8-1.1
		c0-1.4,18.3-0.3,28.8,2c4.7,1,8.6,1.8,8.8,1.8C1285.6,1803.2,1284.5,1800.1,1280.6,1792.1z"/>
	<path id="structure105_Unlabeled-2355-1737_Unlabeled" bar:growlevel="0" bar:type="" class="st2" d="M1701.4,1855.6
		c-3.1,11.1-6.8,27.8-12.2,54.2c-6.8,33.6-9.5,43.1-13,48.4c-1.3,1.8-2.3,3.8-2.3,4.2c0,2.5,8.5-0.1,27.3-8.4
		c15.3-6.8,22.5-8.6,32.3-8.6c5.3,0,7.9-0.4,7.9-1c0-0.5-2.7-3.9-6-7.4c-11.8-12.6-20.8-29.7-25.4-48.3c-2.3-9.8-4.6-23.7-4.6-28.5
		c0-2.1-0.3-4.3-0.5-5.1C1704,1852.9,1702,1853.3,1701.4,1855.6z"/>
	<path id="structure108_Unlabeled-1910-1812_Unlabeled" bar:growlevel="0" bar:type="" class="st2" d="M1296.2,1924.8
		c-4.5,1.5-5.8,2.5-7.8,5.6c-2,3.1-2.4,4.7-2.4,9.6c0,5.6,0.2,6,3.7,10.2c5.6,6.5,8.9,7.8,19.3,7.8c7.6,0,9.2-0.3,11.7-2
		c4.1-2.8,5.2-8.8,3.4-17.9c-2.6-12.6-5.3-15.2-15.6-15.2C1304.1,1923,1299.7,1923.6,1296.2,1924.8z"/>
	<path id="structure10_label11_DEn" bar:growlevel="0" bar:type="" class="st3" d="M1794.2,1645.4c-3.3,9.8-10,30.8-14.8,46.6
		l-8.8,28.8l0.1,11.3c0.1,9.1,0.5,13.1,2.4,20.3c6,23.2,19.8,41.7,38.2,51.2c12.6,6.5,18.8,7.9,36.7,8.4l15.4,0.4l4.1-6.1
		c12-18.1,19.6-41.9,19.6-60.7c0-14.7-3.6-33.8-10-52.7c-4-12-10.7-27.4-11.8-27.4c-0.5,0-3.2,1.4-5.9,3.2
		c-5.5,3.6-12.1,6.2-18.4,7.1c-8.5,1.3-20.6-3.7-27-11.1c-6-6.8-11.6-22.9-11.6-33.6C1802.5,1623.6,1800.2,1627.7,1794.2,1645.4z"/>
	<path id="structure110_Unlabeled-1960-1832_Unlabeled" bar:growlevel="0" bar:type="" class="st2" d="M1344.1,1943.3
		c-4.9,5.2-4.9,12.4-0.1,18.3c3,3.4,5.5,4.8,17.6,9.1c20,7.1,35.7,8.7,45.2,4.5c5.6-2.4,5.5-4.4-0.4-8c-3.4-2.2-5.1-2.7-7.5-2.3
		c-3.2,0.5-2.7,0.7-24.5-14.2c-7.7-5.2-16.8-9.1-22.4-9.5C1347,1940.7,1346.5,1940.9,1344.1,1943.3z"/>
	<path id="structure112_Unlabeled-2390-1904_Unlabeled" bar:growlevel="0" bar:type="" class="st2" d="M1730.6,2007.2
		c-4,2-7.5,7.5-8,12.7c-0.4,4.2-0.3,4.4,4,7.8c2.4,2,7.2,6.1,10.6,9.3c4.2,3.9,6.8,5.6,8.1,5.4c4.3-0.6,5.1-8.5,2.5-25.5
		c-1.4-9.1-1.7-9.9-3.8-10.4C1740,2005.3,1733.8,2005.7,1730.6,2007.2z"/>
	<path id="structure11_label12_AIV" bar:growlevel="0" bar:type="" class="st4" d="M1893.9,1610.8c-0.3,0.6-1.7,4.8-3.2,9.3
		c-4.3,12.7-11.9,27.4-18.4,36c-3.2,4.3-5.9,8.1-5.9,8.4c0,0.4,1.7,4.7,3.7,9.6c3.7,8.9,3.9,9.1,12,15.8
		c18.2,15.2,75.1,55.9,95.5,68.2c23.1,14,55.8,26.6,82.8,31.9c9.9,2,29.4,4.5,29.7,3.9c0.1-0.1,0.9-2.3,1.8-4.7
		c3.2-8.7,8.3-16.4,25.1-37.4c3.8-4.7,6.8-9,6.8-9.4c0-0.5-3.3-2.1-7.5-3.5c-43.7-15.4-133.4-67.1-204.4-117.7
		c-8.8-6.4-16.4-11.5-16.8-11.5C1894.7,1609.7,1894.1,1610.2,1893.9,1610.8z"/>
	<path id="structure12_label13_AID" bar:growlevel="0" bar:type="" class="st5" d="M1906.1,1564.9c-2.2,9-5.5,22.2-7.5,29.3
		c-1.9,7.1-3.3,13.4-3.1,14c0.9,2.4,43.6,32.1,74.8,51.9c46.9,29.9,91.6,55,122,68.5c14.2,6.3,29.7,12.3,31.9,12.3
		c0.7,0,4.3-4,8-8.8c9.7-12.8,25.8-36.2,25.8-37.5c0-0.6-3.5-2.4-7.8-4.1c-44.9-16.9-135.5-70.7-226.3-134.3
		c-6.3-4.3-12-7.9-12.6-7.9C1910.4,1548.5,1908.9,1553.5,1906.1,1564.9z"/>
	<path id="structure13_label14_DI" bar:growlevel="0" bar:type="" class="st6" d="M1911.9,1513.6c0,12.1-0.2,24.5-0.5,27.6l-0.4,5.8
		l9.9,7c14.3,10.3,73.7,49.9,92.7,61.9c39.8,25.1,77.2,46.6,105.1,60.4c14.6,7.2,37.7,17,40.1,17c3.2,0,34.4-60,34.4-66.3
		c0-1.4-0.7-2.1-2.9-2.5c-5.2-1.2-33.9-12.1-52.9-20.3c-54.4-23.3-158.5-75.1-211.9-105.4c-6.8-4-12.8-7.1-13.1-7.1
		S1911.9,1501.6,1911.9,1513.6z"/>
	<path id="structure14_label15_GI" bar:growlevel="0" bar:type="" class="st7" d="M1899.7,1435.1c0,0.5,1.2,5,2.7,10
		c2.8,9.4,6.7,28.3,7.7,37.3c0.4,3,0.8,6.1,1,6.9c1.4,5,132,72.5,200.6,103.5c38.3,17.4,81,33.8,82.9,32c0.8-0.9,9.4-25,13.4-38.3
		c4.1-13.3,13-47.8,13-50.6c0-1.2-9-4.1-43.4-14c-153.3-43.9-249.5-74.3-272.3-85.9C1901.2,1434,1899.7,1433.7,1899.7,1435.1z"/>
	<path id="structure15_label16_VCl" bar:growlevel="0" bar:type="" class="st8" d="M1865,1527.2c-7.3,3.7-14,9.8-18.5,16.8
		c-24.6,38.3-31.6,50.1-38.6,65.6l-4.8,10.3l0.2,9.5c0.3,20.9,7.7,35.9,21,42.8c4.3,2.3,5.8,2.5,13.9,2.6c8.7,0,9.4-0.2,15.9-3.4
		c21-10.3,33.8-34.9,48.4-93.3c7.4-29.3,7.1-33.7-2.7-43.2c-5.9-5.8-14.9-10.1-22.4-10.5C1871.9,1524.1,1870.8,1524.3,1865,1527.2z"
		/>
	<path id="structure16_label19_LSD" bar:growlevel="0" bar:type="" class="st9" d="M1311,1365.1c-10.4,13.5-20.4,29.2-22.1,34.7
		c-1.1,3.6-1.5,8.4-1.6,15.9c0,15.2-0.1,15.2,17.6,24.4c13.9,7.1,14.2,7.4,24.8,18.1c6.8,6.8,12.2,11.5,14.8,12.7
		c4.7,2.3,11.6,2.7,11.6,0.8c0-3.2-21-58.4-30.6-80.6c-5-11.6-6.6-18.7-5.9-27.4c0.4-5.7,0.3-6.9-0.8-6.9
		C1318.1,1356.8,1314.5,1360.6,1311,1365.1z"/>
	<path id="structure17_label20_S1ULp" bar:growlevel="0" bar:type="" class="st10" d="M2197.2,1135.7
		c-55.4,22.8-190.9,75-287.6,110.8c-17.1,6.4-31.4,11.8-31.8,12.2c-0.4,0.4,1.7,7.8,4.7,16.7c12.2,36.5,16.9,64,17.8,102.1
		c0.4,20.8-0.3,37.8-2.1,51l-0.5,3.7l7.6,3.6c28.1,13.3,116.8,41.3,268.8,84.9c25.9,7.4,47.3,13.3,47.4,13.1
		c0.2-0.2,1.7-7.9,3.4-17.4c7.2-39.2,10.7-72.2,13.3-122.3c1.5-29.8,1.5-122.4,0-144.4c-2.7-40.1-7.5-77.8-13.2-106.7
		c-1.7-8.5-3.2-15.8-3.2-16C2221.9,1125.8,2218.8,1126.8,2197.2,1135.7z"/>
	<path id="structure18_label21_CPu" bar:growlevel="0" bar:type="" class="st11" d="M1593.7,1115.6c-25,3.1-47.1,10.7-64.5,22.2
		c-11.2,7.4-16,12-19,17.8c-8.6,17.1-30.9,40.2-46.5,48.1c-4.7,2.3-6.8,4.3-12,10.7c-12.4,15.4-29.9,39.7-32.8,45.7
		c-5,9.8-11.2,26.1-13.7,35.8c-6.1,23.5-16.2,134.6-16.1,176.4c0.1,11.1,0.9,29.1,2.1,43.7c1.6,19.1,1.9,28,1.4,38.7l-0.5,13.9
		l16.5,13.1c45.6,36.4,124.6,105.8,155.6,136.7c16.8,16.7,25.1,26.8,33.7,40.9c11,18.1,18.5,40.7,18.5,55.4c0,5,0.1,5.3,2.3,5.3
		c1.4,0,2.3-0.5,2.3-1.4c0-2.3,5-6.7,7.6-6.7c3,0,6.4,3.6,7.1,7.6l0.5,2.9l18.2,3.4c17.1,3.2,18.3,3.3,19.2,1.8
		c2.3-4,6.3-7.7,9.5-8.6c2.6-0.8,4.4-2.3,7.6-6.7c10.5-14.3,34.7-33,47.7-36.9c3.4-1,3.7-1.4,6.7-9.1c17.5-45,33.2-98.2,37.2-124.9
		c2.2-15,3.2-19,8.6-35.4c6.6-19.7,17.6-46.5,29.6-71.9c23-49,31.4-76.1,36-116c2-17,2.3-58.8,0.5-75.2c-3.5-33-12.7-69.8-23.1-92.4
		c-14.8-32-54.5-68.7-107-98.8c-35.5-20.3-61.6-30.6-88.7-35.1C1627.4,1115.2,1602.9,1114.5,1593.7,1115.6z"/>
	<path id="structure19_label22_S1J" bar:growlevel="0" bar:type="" class="st12" d="M2118.9,912.1c-1.7,2.9-48.6,41.6-92.7,76.7
		c-67.9,54.1-182.9,143.2-203.8,158c-2.1,1.4-3.7,3.1-3.7,3.8c0,0.6,2,3.9,4.4,7.2c12,16.3,22,33.1,32.6,54.3
		c3.7,7.4,6.9,13.3,7.4,13.3c1,0,5.8-2.1,58.2-25.7c159.6-71.7,280.9-128.7,282.3-132.6c0.6-1.4,0-3.4-5.8-18.2
		c-13.1-33.6-39.2-82.3-63.7-119.5C2123,912.7,2120.4,909.8,2118.9,912.1z"/>
	<path id="structure1_label0_AcbC" bar:growlevel="0" bar:type="" class="st13" d="M1391.8,1575.7c-0.3,2.6-0.9,9.2-1.4,14.7
		c-0.5,5.4-1.3,10.3-1.8,10.7c-0.4,0.5-2.3-2.4-4.4-6.6c-2.1-4-4.2-7.3-5-7.3c-3.5,0-8,70.2-6,95c2.8,37,13.8,76.1,30.7,109.3
		c8.4,16.3,15.4,26.3,27,37.9c13,13.2,23.8,20.5,48.1,32.3c40.3,19.6,51.3,22.4,76.5,19.3c15.8-1.9,21.8-3.3,29.7-7.5
		c7.5-3.9,16.6-12.7,21.1-20.3c1.7-2.9,4.5-9.4,6.3-14.4c3-8.5,3.1-10,3.2-20c0-12.4-1.3-19.8-5.6-32.3c-7.3-21.1-20.1-41.3-37.8-60
		c-19.2-20.1-76.8-71.6-138-123.3c-19.3-16.4-39.5-32.3-40.9-32.3C1392.7,1571,1392.1,1572.4,1391.8,1575.7z M1526,1736.6
		c6.5,3.1,9.1,5,15.6,11.6c11.5,11.6,15.8,22.2,14.2,34.9c-1.4,10.3-9,20.1-20.2,25.6c-5.6,2.7-7.1,3.1-13.5,3.1
		c-6.5,0-7.7-0.4-12.9-3.1c-6.5-3.5-14.8-11.9-18.4-18.7c-5.9-11.1-8.4-32.8-4.9-43.1c3.7-10.6,11.4-15.1,24.8-14.4
		C1517.2,1732.7,1519.2,1733.3,1526,1736.6z"/>
	<path id="structure20_label23_S1FL" bar:growlevel="0" bar:type="" class="st14" d="M1841.3,724.7c-4.1,9.4-33.8,76.4-65.8,149.2
		c-32,72.7-64.2,145.7-71.5,162c-7.2,16.4-13.1,30.2-13.1,30.6c0,0.5,9.2,5.5,20.5,11.2c36.3,18,61.1,32,74,41.7
		c3.2,2.3,6.4,4.3,7.2,4.3c0.7-0.1,7.5-5.6,14.8-12.2c21.8-19.7,99.8-88.8,191.3-169.6c46.8-41.2,85.1-75.5,85.3-76.1
		c0.4-1.3-21.2-23.2-34.5-35.1c-34-30.4-76.7-59.9-127.9-88.5c-26.5-14.8-67.1-34.4-71.3-34.4
		C1849.1,707.9,1847.1,711.8,1841.3,724.7z"/>
	<path id="structure21_label24_M1" bar:growlevel="0" bar:type="" class="st15" d="M1588.8,638.8c-0.7,3.2-4.3,27.5-25.2,172.6
		c-10.6,73.5-21.1,146.1-23.4,161.2c-2.3,15.2-4,28.2-4,28.8c0,0.8,3.8,2.6,9.7,4.8c33.6,12.1,111.2,44.6,136.2,57.2
		c2.9,1.5,5.9,2.7,6.8,2.7c1.9,0-4,13.1,77.8-172.7c32.1-73,63.6-144.5,70.1-158.9c6.4-14.4,11.6-26.6,11.6-27.2
		c0-1.1-27.9-12.4-50.6-20.4c-43.3-15.4-95.8-29.6-145.6-39.6c-20.4-4.1-57.6-10.4-61.1-10.4C1589.9,636.8,1589,637.5,1588.8,638.8z
		"/>
	<path id="structure22_label25_M2" bar:growlevel="0" bar:type="" class="st16" d="M1422.1,627.9c-34.7,2.2-67.4,8.3-91.6,17.1
		c-9.7,3.5-31.1,14.2-32.1,16.1c-0.9,1.4-0.8,1.4,21.2,42.3c15.8,29.4,97.5,179,150.9,276.3l5.2,9.4l8,0.6c10.6,0.7,23.2,3.4,37.7,8
		c6.6,2.1,12.4,3.5,13.1,3.3c1.4-0.6-1,15.5,27.3-180.3c12.1-83.7,23-159.3,24.4-168.1c1.3-8.8,2.3-16.1,2.1-16.3
		c-1.4-1.3-59.4-7.1-86.2-8.6C1483.4,626.8,1438.7,626.8,1422.1,627.9z"/>
	<path id="structure23_label28_LV" bar:growlevel="0" bar:type="" class="st17" d="M1380.5,1314.5c-25.7,17.5-46.3,34.9-49.9,42.6
		c-4.1,8.6-5.1,24.5-2.3,37.3c0.4,2.3,4.6,13.5,9.1,24.9c19,48.3,27.3,75.4,29.2,96c1.3,12.5,5.3,5.2,9-15.8
		c1.1-5.9,7.1-74.5,10.3-116.7c1.2-15.8,4.6-41.8,7.7-59.1c2.4-13.6,2.5-16.7,0.4-17.2C1393.2,1306.5,1387.2,1310,1380.5,1314.5z"/>
	<path class="st18" d="M1875.9,1257.8c-25.5-65.5-57.3-113.8-91.6-139.1c-21.7-16-98.9-55.2-161.6-82c-22.9-9.7-50.1-13.8-92.8-13.7
		c-31.4,0-40.1,0.8-47.1,4.2c-7,3.5-15.2,10.8-21.8,19.5c-2.8,3.7-10.7,16.4-17.7,28.1c-29.3,49.4-53.6,82.3-78.8,106.6
		c-19.2,18.4-41.7,30.5-64.5,34.6c-4.3,0.7-11.2,2.3-15.2,3.5c-14.6,4.4-35.3,7.9-64.1,11.1c-8.3,0.9-12.6,1.3-16.7,1.4l0.1,180.5
		c5.5-0.1,11.2-0.8,20.2-2.1c14.3-2.2,16-2.3,26.4-1.3c13.1,1.3,21,0.7,27-1.9c5.7-2.4,8.6-5.5,15.4-16.6
		c6.3-10.1,16.6-24.3,23.4-32.4c2.5-3,6.8-8.3,9.5-11.7c8-10.5,61-61.9,89.1-86.4c4.1-3.6,10.5-11.3,19.3-22.9
		c7.2-9.6,15.6-20.6,18.5-24.3c3.1-3.7,6.9-9.1,8.6-12c8.8-15.5,26.4-34.3,40.8-43.7c4.6-3,11.4-7.8,15.1-10.8
		c27.4-21.6,57.2-31.6,93.6-31.6c31.3,0.1,57.3,6.9,92.7,24.7c61.9,31.1,110.9,72.6,129.5,110c9.4,18.7,18.7,53.2,23.1,85
		c2,14.3,2.7,57.2,1.3,74.4c-3.2,39.1-12.4,72.8-30.9,112.3c-15.7,33.8-18.3,39.5-23.6,52.7c-12.6,31.2-17.6,47.7-20.3,65.8
		c-3.3,23.1-13.3,59.4-27.6,99.8c-11.4,32.3-18.5,48.7-28,64.6c-5.8,10-2.7,9.9,6.9-0.2c9.3-9.7,13.1-17.3,25.4-51.4
		c10.2-28.1,11.3-31.7,21.2-64.4c18.4-61.4,27.4-83.3,46.8-113.8c4.4-6.9,11.2-17.8,15-24.1c3.9-6.4,11.5-18.2,16.9-26.3
		c24.8-37.3,34.1-59.3,38.2-91.8C1905,1371.4,1898.1,1314.8,1875.9,1257.8z"/>
	<path id="structure2_label1_AcbSh" bar:growlevel="0" bar:type="" class="st19" d="M1360.2,1565.4c-11.5,6.4-24.2,17.2-31.2,26.6
		c-13.7,18.4-38.5,64.6-41.4,77c-1,4.2-0.9,4.7,1.2,6.8c2,2.1,2.2,3.1,2.2,10.5c0,4.6-0.5,13.5-1.2,19.8
		c-1.4,14.9-1.3,47.4,0.1,57.8c1.5,11.3,1.4,30.7-0.2,34.6l-1.3,3l4,3.2c6.7,5.5,17,15.8,18.7,18.6c1.4,2.3,1.7,5.4,2.2,21.6
		c0.3,10.3,0.8,19.9,1.3,21.1c0.5,1.3,5.5,7.5,11,14c5.6,6.4,14.4,17.5,19.6,24.8c15,20.7,17.6,23.6,33.8,38.9
		c22.5,21.2,31.1,27.2,46.4,32.1c6.9,2.3,8.2,2.3,8.2,0.5c0-2.5,4.5-10.6,7.9-14.1c7.3-7.7,12.3-8.5,33.9-5.6
		c16.5,2.2,25.3,1,36.8-4.7c9.4-4.8,15.6-5.8,37.9-6.2c27.4-0.6,26.5-0.5,32.8-6.2c9.6-8.9,16.7-10.7,32.2-8.6
		c6.8,0.9,8.6,0.9,12-0.3c4.1-1.4,4.4-1.7,9.2-9.1c2.5-3.9,6.8-7.7,9.7-8.7c0.5-0.2,1.8-4,3-8.4c4.3-16.1,16.1-47.8,22.2-60
		c2.3-4.6,2.5-5.8,2.1-10.2c-0.4-2.7-0.6-4.9-0.7-4.9c0,0-7.6-1.4-16.7-3.2c-9.2-1.7-17.4-3.1-18.2-3.1c-0.8,0-2.3,1.4-3.1,3.3
		c-3.4,6.8-8.3,6.4-12-1.3c-1.7-3.6-2.7-4.7-4.2-4.8c-1.8,0-2.1,0.4-2.1,3.5c0,5.3-4.1,18.5-8.4,26.6c-7.1,13.8-20.9,24.8-35.1,28.3
		c-8.3,2-22.7,3.7-31.7,3.7c-15,0-26.2-3.5-55.3-17.1c-26.7-12.6-41.1-21.7-53.9-34.1c-25.8-25.1-47.4-73.8-57-128.3
		c-1.9-10.5-2.1-14.6-2.1-41c0-30,1.1-48,4.1-68.4l1.6-11.3l-2.7-6.7c-3-7.1-7.2-12.7-9.6-12.7
		C1365.3,1562.9,1362.7,1564.1,1360.2,1565.4z"/>
	<path class="st20" d="M1335.4,1571.4c-3.1-6.1-4-9.4-6.3-22c-3.8-21.2-7-29.8-15.6-41c-6.8-9-11.4-20.9-11.4-29.2
		c0-9,5.5-20.9,12.4-27c2.1-1.9,3.8-3.8,3.8-4.3c0-0.4-6-4-13.4-7.7c-7.3-3.7-13.9-7.4-14.5-8.2c-2-2.3-3.5-1.5-4.5,2.4
		c-5.8,22.3-13.9,40.7-21.7,49l-2.7,2.8l0.8,8.9c1.1,11.4,0.3,18.3-4.3,35.9c-8.4,32.5-16.5,52.6-23.7,58.4
		c-7.5,6.1-16,8.5-30.2,8.6l0.1,144h4.2l0.2-31.6l0.3-31.7l2.5-1.9c3.7-2.8,11.3-2.4,17.9,0.7c15,7.1,26.8,32,26.8,56.9v9.4l3.6,0.2
		c8.2,0.4,7.4,1,8.7-6.8c1.6-9.7,5-22.9,9.7-37.4c2.2-6.8,5.2-17.1,6.8-22.9c3.4-12.6,6.8-20.9,15.9-38.3
		c13.1-24.8,27.4-47.6,34.4-54.4c2.1-1.9,3.7-4,3.7-4.5C1339,1579.1,1337.4,1575.4,1335.4,1571.4z"/>
	<path id="structure3_label2_ICj" bar:growlevel="0" bar:type="" class="st21" d="M1233,1802.8c-11.2,5.6-19.1,22.2-17.9,37.8
		c1.1,14.5,7.3,17.4,22.1,10.3c10.8-5.2,12.6-5,27.5,2.7c13,6.8,16.7,7.6,20.3,4.6c3.5-2.8,2.8-6.8-2.2-13
		c-2.4-2.9-8-10.7-12.5-17.5c-10-15.1-15.1-21.2-20.4-24.7C1244.7,1799.7,1239.4,1799.6,1233,1802.8z"/>
	<path id="structure45_text3093_Tu-2" bar:growlevel="0" bar:type="" class="st22" d="M1320.2,1956.2c-1.7,1.5-3.4,1.8-10.1,1.8
		c-6.4,0-8,0.3-8,1.4c0,1.4,25,28.1,40.1,42.8c15.2,14.7,27.7,23.4,55.3,38.4c7.7,4.1,20.9,11.4,29.4,16.1
		c8.6,4.6,18.6,10,22.5,11.8l7,3.3h16.2c19.3-0.1,30.5-1.7,46.7-6.8c17.2-5.4,17.5-5.4,34.3-0.2c23.8,7.5,31.2,8.5,40.1,5.9
		c9.7-2.9,16.9-8.4,24.9-19.1c5.8-7.8,9.1-9.7,14.4-8.3c1.9,0.4,8.6,4,14.9,7.7c6.4,3.8,14.2,7.8,17.5,9c6.4,2.3,15.1,2.9,18.2,1.2
		c3.1-1.6,6.8-8.6,10.3-18.8c1.8-5.4,4.2-10.8,5.4-12.1c4-4.4,9.5-2.7,23,7.3c17,12.7,25.6,17.2,30,16.1c3.4-0.8,8.3-5.5,9.8-9.4
		c2.5-6.2,2.7-12.5,0.7-25.7c-1.1-6.9-1.9-14.8-1.9-17.8c0-4.6,0.4-5.7,2.7-8.3c4.5-5.1,11.6-6.1,26.8-3.7c3.2,0.5,3.8,0.4,3.8-1
		c0-2-3.2-6.4-9.8-13.3c-4.4-4.6-5.2-5.1-8.6-5.1c-11.1,0-25.8,7.7-29.9,15.4c-1.8,3.6-1.5,11.8,1,28.3c2.4,16.1,2.8,23.2,1.1,26.6
		c-2,4-4.2,3.3-12.4-4.1c-10.2-9.3-21.4-17.7-28.3-21.2c-4.9-2.4-6.4-2.8-10.3-2.4c-3.6,0.4-5.2,1.1-7.6,3.4c-1.6,1.6-3.4,4-3.9,5.3
		c-0.5,1.3-1.6,4.3-2.4,6.7c-2.8,7.9-8.5,9.5-23.7,6.1c-13.9-3.1-27.4-4.8-38.9-4.9c-10.3-0.1-11.5,0.1-14.6,2
		c-2,1.3-4.7,4.3-6.7,7.7c-1.8,3.1-4.1,6.5-5,7.5c-4.1,4.7-21.8,10-29,8.9c-2.1-0.4-7.7-1.8-12.7-3.1c-10.9-3.2-23.3-5.4-29.7-5.4
		c-2.6,0-11.6,1.8-20.8,4.1c-14.9,3.9-17,4.2-27.4,4.3c-12.9,0.1-14.9-0.4-34.7-8.2c-22.5-8.9-40.1-18.2-53-27.9
		c-7.7-5.9-20.3-18.3-34.6-34c-15.2-16.9-28.2-30.1-29.4-30.1C1322.8,1954.5,1321.4,1955.3,1320.2,1956.2z"/>
	<path id="structure46_text3095_Tu-2" bar:growlevel="0" bar:type="" class="st22" d="M1230.7,1853.9c-4.6,1.5-5.7,1.6-8.8,0.6
		c-1.9-0.6-3.8-1-4-0.7c-0.3,0.3,0.1,3.5,0.9,7.1c1.8,8.8,9.7,24.8,16,32.3c7.7,9.3,48.3,50.4,49.8,50.4c0.9,0,1.3-1.3,1.3-4.9
		c0-3.6,0.5-5.6,2.3-8.1c1.3-1.8,2.3-3.6,2.3-4c-0.1-0.4-2.2-2.3-4.7-4.2c-10.5-8.4-29.3-34.4-39.8-55.3c-3.1-6.2-5.8-12.2-6.1-13.3
		C1239.2,1851.4,1237.9,1851.4,1230.7,1853.9z"/>
	<path id="structure48_label50_Pir-2" bar:growlevel="0" bar:type="" class="st23" d="M2038.4,1790c-6.4,4.8-12.7,14.3-23.7,36.1
		c-5.9,11.9-12.4,23.8-14.2,26.5c-10,14.7-24.6,21.8-45,21.7c-11.5,0-19.6-1.4-46-7.7c-11.3-2.7-22.4-5-24.9-5
		c-14.3,0-31,11.3-46.4,31.4c-9.1,11.7-22.1,31.9-31.3,48.1c-8.3,14.8-15.4,23-22.1,26.1c-2.2,0.9-3.9,2.3-3.9,3
		c0,0.6,0.4,1.2,0.7,1.2c0.9,0,10.9,12,13.8,16.4c2.1,3.2,2.4,3.4,6.9,3.4c11.9,0,22-8.7,30.4-26.5c2.1-4.5,6.8-16.6,10.3-27
		c3.5-10.4,7.6-20.8,9.1-23.1c7.9-12.3,20.1-18.2,37.7-18.2c10.9,0,15.2,0.7,40.9,6.8c20.9,5,32.1,6.2,40.9,4.3
		c11.8-2.5,36.3-17.6,45.5-28.1c12.4-14.1,21.1-30.2,24.4-45.7c1.3-5.7,3.7-16.3,5.4-23.5c1.7-7.2,3.1-14.3,3.1-15.8
		C2050,1788.1,2044.2,1785.8,2038.4,1790z"/>
	<path id="structure4_label3_VP" bar:growlevel="0" bar:type="" class="st24" d="M1641.5,1915.3c-1.1,0.8-3.9,4.3-6,7.7
		c-5.3,8.2-7.7,9.4-18.4,8.3c-10.7-1.1-18.8-0.9-22.8,0.4c-1.9,0.6-5.9,3.4-9,6.1c-9,8-7.9,7.7-34.8,8.5c-25.9,0.7-30,1.4-39.3,6.1
		c-10.6,5.6-21.7,6.8-39.4,4.1c-16.7-2.4-22.6-1.6-28.7,4c-5.4,5-8.8,11.7-8.9,17.3c-0.1,4,0.3,4.9,2.8,7.1c4.2,3.8,10.1,5,34.4,7.2
		c32.8,2.9,50.1,2.3,74.7-2.7c28.3-5.8,39.6-7.4,56.5-7.9l15.5-0.5l12.4-4.2c21.4-7.4,29.4-10.5,29.7-11.8c0.1-0.7-1.3-2.1-3.1-3.1
		c-1.8-1-4.1-2.8-4.9-4c-2.7-3.7-4.4-13.9-4.9-29.5C1646.6,1912.6,1646.3,1912,1641.5,1915.3z"/>
	<path id="structure51_text3720_Tu-3" bar:growlevel="0" bar:type="" class="st25" d="M1247.2,1800c0,0.7,0.4,1.4,0.8,1.4
		c2.6,0,12.6,11.3,20.4,23c4.8,7.2,11.1,16.2,13.9,20c3,3.8,5.3,7.7,5.3,8.8c0,1.2-1,3.2-2.2,4.6c-3.4,4-7.6,3.3-18.5-2.8
		c-13.5-7.7-18.1-8.9-24.4-6.8c-2.7,1-2.9,1.3-2.4,4.3c0.9,6.9,13.2,29.7,25,46.3c5.8,8.3,18.9,22.6,23.4,25.8
		c2.5,1.8,2.5,1.8,7.9-0.1c7.6-2.5,17.4-2.7,20.6-0.3c3.5,2.6,5.2,6.1,6.8,13.7c1.1,5.2,1.2,7.7,0.4,11.2l-0.9,4.4l9.8,10.1
		c5.4,5.5,15.4,16,22,23.5c23.9,26.5,35.6,35.9,59.8,48c12.1,6,35.1,15.2,43.4,17.4c12.8,3.2,27.6,2.1,47.9-3.7
		c14.8-4.2,25.7-3.6,47.7,2.7c10.5,3.1,16.6,3.3,25,1.3c10.3-2.4,14-4.9,19.5-13.5c6.4-9.9,8.8-11.3,20.6-11.3c9.9,0,26,2,38.3,4.7
		c10.2,2.3,17.7,2.5,20.9,0.8c1.3-0.6,3-2.8,3.8-4.7c0.8-2,2.2-5.1,3-7.2c1.9-4.7,6.1-8.7,10.4-10c4.3-1.3,8.7,0.4,18.3,6.6
		c3.8,2.4,7.1,4.4,7.6,4.4c0.4,0,1-1.6,1.3-3.7c0.6-4.9,4.2-10.1,8.4-12.1c2.6-1.3,4.7-1.4,9.2-1.1c5.6,0.5,5.8,0.5,5.3-1.4
		c-0.3-1.1-0.8-4.9-1.1-8.4c-0.7-7.5,0.7-11.2,6.5-16.7c3.6-3.5,12.9-8.2,18.3-9.3c5.4-1,6.3-1.4,6.3-2.7c0-1.5-16.5-14-22.5-17.1
		c-10.2-5.1-22.6-6.3-33.9-3.2c-3.5,1-11.6,4.1-18,6.8c-16.9,7.4-19.6,8.3-30.1,10.3c-9.8,1.9-15.9,3.8-30.3,9.4
		c-4.6,1.8-13.1,4.7-18.8,6.5c-14,4.2-24.1,9.2-30.3,14.8c-4.1,3.8-6.1,6.8-10.9,16.3c-8.5,16.6-13.3,21.5-21.1,21.5
		c-4.4,0-79.6-23.8-89.5-28.3c-7.3-3.3-16-8.5-19.5-11.8c-1.3-1.1-4.3-2.7-6.8-3.5c-4.9-1.6-8.6-4.9-10.2-8.7
		c-0.6-1.8-1.7-2.5-4.3-3.1c-1.9-0.4-5.8-1.6-8.7-2.8c-6.7-2.7-6.9-2.7-12.8,0.2c-9.8,4.8-25.1,3.4-46.1-4.1
		c-12.1-4.3-14.7-5.7-17.6-9.1c-5-5.9-4.8-13.5,0.3-18.4c2.5-2.4,3.1-2.5,8-2.1c5.5,0.4,14.8,4.5,22.2,9.5
		c18.4,12.6,21.4,14.5,23.5,14.5c3.5,0,2.4-1.7-5.5-8.6c-14.9-13.1-31.2-29.6-37.2-37.5c-3.4-4.6-10.3-13.8-15.3-20.4
		c-5-6.7-14.2-18-20.4-25.2c-12.5-14.3-17.9-21.5-21.4-28.4c-2.7-5.6-7.8-21.3-10.6-32.9l-2-8.7l-6.8-1.4
		C1262.5,1798.5,1247.2,1797.6,1247.2,1800z"/>
	<path id="structure52_label51_Pir-3" bar:growlevel="0" bar:type="" class="st26" d="M1876.3,1688c0,0.5,1.3,5.5,3.1,11.1
		c6.7,22,9.5,41.5,7.7,54.8c-3.2,25.8-17,54.5-32.2,67.1c-2.3,1.9-8.3,6.1-13.2,9.3c-13.7,9-28.1,21.1-45.1,38.1
		c-26.1,26.2-41,47.2-49.5,69.7c-3,7.8-2.9,8.5,2.1,10.4c4.7,2,16.8,10,24.8,16.5l5.1,4.1l3.9-1.2c6.8-2.2,16.1-12.8,23.9-26.9
		c19.3-34.8,39.3-60.9,54.6-71.2c14.3-9.5,21.2-10.3,43.1-4.7c40.9,10.4,57.4,11.4,75.4,4.6c12.7-4.9,18.7-12.3,33.9-42.3
		c12-23.7,19.3-34.8,24.6-37.6c4.2-2.3,3.1-4-4.6-6.2c-16.3-4.9-43.4-17.2-58.1-26.3c-8.3-4.9-53-36-66.2-45.7
		c-5.7-4.2-15.1-11.4-20.9-16.1C1878.7,1687.4,1876.3,1686,1876.3,1688z"/>
	<path id="structure5_label5_IEn" bar:growlevel="0" bar:type="" class="st27" d="M1763.9,1740.4c-18.9,52.7-18.1,51.2-37.5,70.9
		c-17.7,18-19.7,21-21.1,33.2c-1,8.6,0.1,22.1,2.8,35.5c3.7,18.4,8.5,30.9,16.4,43c5.1,7.9,17.1,21.3,19.1,21.3
		c0.5,0,1.5-1.7,2.2-3.9c3.2-10.8,15.9-32.7,27-46.5c19.4-24.1,46.8-49.5,69.8-64.6c11.3-7.5,17.5-12.6,17.5-14.6
		c0-1.4-1.5-1.6-11.9-2.1c-13.1-0.5-20.3-2-30.4-6c-26.2-10.4-45.4-38.5-47.4-69.6c-0.4-4.8-0.9-7.8-1.5-7.8
		C1768.3,1729.4,1766.1,1734.3,1763.9,1740.4z"/>
	<path class="st28" d="M1439.6,1019.1c-0.5-1.4-25.8-9.7-111.3-36.3c-73.4-22.9-103.4-32.5-115.2-36.8c-4.7-1.8-8.9-3.2-9.3-3.2
		c0,0,0,0,0,0.1l0.2,224.1c0.7,25.9,2.3,24.4,7,29.6c3.6,4,9,7.4,15.2,9.5c1.5,0.4,1.1,0.9-2.3,2.2c-2.3,0.9-5.4,2.3-7,3.3
		c-2.9,1.7-2.9,1.8-2.3,6.8c0.4,3.8,0.3,5.8-0.8,7.8c-2.3,4.4-2,4.9,2.9,4.2c3.3-0.4,5-1.4,8.3-4.5c8.5-8.3,17.2-9.7,26.7-4.5
		c3.2,1.7,7,3.1,8.6,3.1c4,0,22.5-4.3,30-6.9c3.4-1.3,11.4-4.9,17.6-8c39.8-20.2,71.5-51.8,93.3-93.2c7.5-14.1,11.1-22.6,18.2-43.6
		c8.5-24.8,11.1-31.8,16.4-42.9C1438,1024.6,1439.8,1019.7,1439.6,1019.1z"/>
	<path id="structure64_label63_cg" bar:growlevel="0" bar:type="" class="st29" d="M1467.5,991.7c-10.4,3.9-22.1,17.6-31.5,37.4
		c-5,10.7-7.6,17.2-15.9,41.6c-12.8,37.3-23.5,57.9-43.1,82.6c-17.4,21.9-46.2,45.4-69.8,56.9c-4.2,2.1-5.5,4.3-2.4,4.3
		c5.6,0,24.9-7.8,35.6-14.4c29.5-18,63.3-59,100.6-121.9c15.9-26.9,19.5-32.1,28-40.5c8.1-8,15.2-12.3,23-13.9
		c14.2-2.7,65.8-2,87.7,1.3c10.9,1.6,12.2,1.6,12.2,0.2c0-1.3-32.6-14.3-56-22.4c-26.1-9-37.7-11.7-52.5-12.1
		C1474.2,990.6,1470,990.8,1467.5,991.7z"/>
	<path class="st18" d="M1875.9,1257.8c-25.5-65.5-57.3-113.8-91.6-139.1c-21.7-16-98.9-55.2-161.6-82c-22.9-9.7-50.1-13.8-92.8-13.7
		c-31.4,0-40.1,0.8-47.1,4.2c-7,3.5-15.2,10.8-21.8,19.5c-2.8,3.7-10.7,16.4-17.7,28.1c-29.3,49.4-53.6,82.3-78.8,106.6
		c-19.2,18.4-41.7,30.5-64.5,34.6c-4.3,0.7-11.2,2.3-15.2,3.5c-14.6,4.4-35.3,7.9-64.1,11.1c-8.3,0.9-12.6,1.3-16.7,1.4l0.1,180.5
		c5.5-0.1,11.2-0.8,20.2-2.1c14.3-2.2,16-2.3,26.4-1.3c13.1,1.3,21,0.7,27-1.9c5.7-2.4,8.6-5.5,15.4-16.6
		c6.3-10.1,16.6-24.3,23.4-32.4c2.5-3,6.8-8.3,9.5-11.7c8-10.5,61-61.9,89.1-86.4c4.1-3.6,10.5-11.3,19.3-22.9
		c7.2-9.6,15.6-20.6,18.5-24.3c3.1-3.7,6.9-9.1,8.6-12c8.8-15.5,26.4-34.3,40.8-43.7c4.6-3,11.4-7.8,15.1-10.8
		c27.4-21.6,57.2-31.6,93.6-31.6c31.3,0.1,57.3,6.9,92.7,24.7c61.9,31.1,110.9,72.6,129.5,110c9.4,18.7,18.7,53.2,23.1,85
		c2,14.3,2.7,57.2,1.3,74.4c-3.2,39.1-12.4,72.8-30.9,112.3c-15.7,33.8-18.3,39.5-23.6,52.7c-12.6,31.2-17.6,47.7-20.3,65.8
		c-3.3,23.1-13.3,59.4-27.6,99.8c-11.4,32.3-18.5,48.7-28,64.6c-5.8,10-2.7,9.9,6.9-0.2c9.3-9.7,13.1-17.3,25.4-51.4
		c10.2-28.1,11.3-31.7,21.2-64.4c18.4-61.4,27.4-83.3,46.8-113.8c4.4-6.9,11.2-17.8,15-24.1c3.9-6.4,11.5-18.2,16.9-26.3
		c24.8-37.3,34.1-59.3,38.2-91.8C1905,1371.4,1898.1,1314.8,1875.9,1257.8z"/>
	<path id="structure66_label65_aca" bar:growlevel="0" bar:type="" class="st30" d="M1502.1,1733.1c-7,1.3-11.1,4.3-14.1,10.2
		c-2.6,5.2-2.7,5.8-2.7,17.6c0,19.2,3.6,29.2,14,39.8c7.9,8,14.3,11.1,22.9,11.1c5.4,0,7.3-0.4,13.2-3.2c25.6-12.1,27.5-41,4.1-62.5
		c-7.4-6.8-14.8-10.8-22.9-12.5C1509.8,1732,1507.8,1731.9,1502.1,1733.1z"/>
	<path id="structure67_label66_lo" bar:growlevel="0" bar:type="" class="st31" d="M1908.3,1949.5c-16.3,3.2-17.7,4.1-29.6,18.4
		c-8.9,10.7-13.8,16-33.1,36.2c-9.3,9.7-16.9,18.1-16.9,18.6c0,0.5,0.5,1,1.3,1c0.6,0,9.8-4.2,20.4-9.4
		c10.6-5.1,31.6-14.9,46.7-21.7c53.5-23.9,58.1-26.7,57.4-34.4c-0.3-3.1-0.7-3.6-4.3-5.4c-2.3-1.2-6.8-2.4-10.3-3
		C1933.7,1949.1,1912.1,1948.8,1908.3,1949.5z"/>
	<path id="structure68_label67_mfb" bar:growlevel="0" bar:type="" class="st32" d="M1641.5,1915.3c-1.1,0.8-3.9,4.3-6,7.7
		c-5.3,8.2-7.7,9.4-18.4,8.3c-10.7-1.1-18.8-0.9-22.8,0.4c-1.9,0.6-5.9,3.4-9,6.1c-9,8-7.9,7.7-34.8,8.5c-25.9,0.7-30,1.4-39.3,6.1
		c-10.6,5.6-21.7,6.8-39.4,4.1c-16.7-2.4-22.6-1.6-28.7,4c-5.4,5-8.8,11.7-8.9,17.3c-0.1,4,0.3,4.9,2.8,7.1c4.2,3.8,10.1,5,34.4,7.2
		c32.8,2.9,50.1,2.3,74.7-2.7c28.3-5.8,39.6-7.4,56.5-7.9l15.5-0.5l12.4-4.2c21.4-7.4,29.4-10.5,29.7-11.8c0.1-0.7-1.3-2.1-3.1-3.1
		c-1.8-1-4.1-2.8-4.9-4c-2.7-3.7-4.4-13.9-4.9-29.5C1646.6,1912.6,1646.3,1912,1641.5,1915.3z"/>
	<path id="structure6_label6_LAcbSh" bar:growlevel="0" bar:type="" class="st22" d="M1360.2,1565.4c-11.5,6.4-24.2,17.2-31.2,26.6
		c-13.7,18.4-38.5,64.6-41.4,77c-1,4.2-0.9,4.7,1.2,6.8c2,2.1,2.2,3.1,2.2,10.5c0,4.6-0.5,13.5-1.2,19.8
		c-1.4,14.9-1.3,47.4,0.1,57.8c1.5,11.3,1.4,30.7-0.2,34.6l-1.3,3l4,3.2c6.7,5.5,17,15.8,18.7,18.6c1.4,2.3,1.7,5.4,2.2,21.6
		c0.3,10.3,0.8,19.9,1.3,21.1c0.5,1.3,5.5,7.5,11,14c5.6,6.4,14.4,17.5,19.6,24.8c15,20.7,17.6,23.6,33.8,38.9
		c22.5,21.2,31.1,27.2,46.4,32.1c6.9,2.3,8.2,2.3,8.2,0.5c0-2.5,4.5-10.6,7.9-14.1c7.3-7.7,12.3-8.5,33.9-5.6
		c16.5,2.2,25.3,1,36.8-4.7c9.4-4.8,15.6-5.8,37.9-6.2c27.4-0.6,26.5-0.5,32.8-6.2c9.6-8.9,16.7-10.7,32.2-8.6
		c6.8,0.9,8.6,0.9,12-0.3c4.1-1.4,4.4-1.7,9.2-9.1c2.5-3.9,6.8-7.7,9.7-8.7c0.5-0.2,1.8-4,3-8.4c4.3-16.1,16.1-47.8,22.2-60
		c2.3-4.6,2.5-5.8,2.1-10.2c-0.4-2.7-0.6-4.9-0.7-4.9c0,0-7.6-1.4-16.7-3.2c-9.2-1.7-17.4-3.1-18.2-3.1c-0.8,0-2.3,1.4-3.1,3.3
		c-3.4,6.8-8.3,6.4-12-1.3c-1.7-3.6-2.7-4.7-4.2-4.8c-1.8,0-2.1,0.4-2.1,3.5c0,5.3-4.1,18.5-8.4,26.6c-7.1,13.8-20.9,24.8-35.1,28.3
		c-8.3,2-22.7,3.7-31.7,3.7c-15,0-26.2-3.5-55.3-17.1c-26.7-12.6-41.1-21.7-53.9-34.1c-25.8-25.1-47.4-73.8-57-128.3
		c-1.9-10.5-2.1-14.6-2.1-41c0-30,1.1-48,4.1-68.4l1.6-11.3l-2.7-6.7c-3-7.1-7.2-12.7-9.6-12.7
		C1365.3,1562.9,1362.7,1564.1,1360.2,1565.4z"/>
	<path id="structure70_label69_DCl" bar:growlevel="0" bar:type="" class="st33" d="M1895.8,1444.8c-4.1,22.6-15.5,47.7-34.1,75.5
		c-4.2,6.4-5.3,9.3-3.3,9.3c0.5,0,3.7-1.3,6.9-2.9c8.3-4.1,13.6-4,22.8,0.4c8.2,3.9,14.1,9,17.1,14.5c3.3,6.4,5,5.6,5.9-2.9
		c1-9.9,0.7-37.5-0.5-49.2c-2.3-20.5-9.7-53.6-12.1-53.6C1897.8,1436,1896.7,1439.7,1895.8,1444.8z"/>
	<path id="structure71_label70_LSS" bar:growlevel="0" bar:type="" class="st34" d="M1730,1779.3c-9.8,5.1-20,13-30.1,22.9
		c-10.5,10.6-13.7,15.3-11.9,17.8c2.5,3.6,2.9,5.6,1.4,9c-2.5,6-7.6,10.1-13,10.1c-2.5,0-3,0.5-5.5,6c-9.3,20.4-21.4,54.9-23.4,66.4
		c-1.7,10.1,0.2,34.8,3.3,43.3c2.7,7.4,12.6,11.3,19.6,8c7.5-3.6,9.7-10.2,18.5-53.2c6.5-31.8,10.4-48.8,13-56.2
		c0.8-2.3,2.2-7.6,3.2-11.9c2.1-9.4,3.4-12.2,8.5-17.7c5.9-6.4,25.6-41.7,25.6-46C1739.5,1775.4,1737,1775.7,1730,1779.3z"/>
	<path id="structure72_label71_VP" bar:growlevel="0" bar:type="" class="st24" d="M1286.8,1805.6c0,1.4,1,6.4,2.3,11.1
		c5.4,20.2,9.6,30.3,17,40.2c6.8,9.2,7,8.7,6.7-13l-0.3-18.7l-3.6-4.4c-5-6-18.3-17.6-20.3-17.6
		C1287.3,1803.2,1286.8,1803.8,1286.8,1805.6z"/>
	<path id="structure73_label73_ICjM" bar:growlevel="0" bar:type="" class="st35" d="M1285.2,1678.3c-0.5,1.6-3.4,11-6.5,20.7
		c-7.8,25.3-10,35.1-10.5,48.4l-0.4,11.3l4.2,12.1c5.7,16.6,12.5,30.6,14.8,30.6c3.8,0,5.4-15.2,3.2-30.6c-3-20.7-2.8-49.3,0.4-78.8
		c0.8-7.3,0.7-9.7-0.2-12.6C1288.7,1674.8,1286.4,1674.3,1285.2,1678.3z"/>
	<path id="structure74_label74_E" bar:growlevel="0" bar:type="" class="st36" d="M1393,1280c-11.6,10.7-31.3,29.6-43.7,42
		c-28.1,28.2-28.7,29.2-28.7,44.6c0,11.1,2.1,20.7,4.4,20.7c1,0,1.4-2.6,1.7-11.5c0.5-15.8,1.7-18.5,10.9-27.6
		c9.5-9.4,23.8-20.7,40.8-32.4c13.4-9.2,16.7-10.7,17.6-8.2c0.3,0.6-0.9,9.3-2.5,19.1c-4.3,25.6-6.2,43.3-11.3,106.1
		c-4.9,59.8-6.5,72.6-10.9,84.9c-3,8.4-4.1,17-4.6,35c-0.3,9.4-0.2,10.2,1.5,11.1c2.9,1.5,5.6,6.1,9.9,17.1
		c5.1,12.7,7.6,17.1,9.5,17.1c2.2,0,3.6-14.8,4.2-42.3c0.4-16.7,0.1-26.2-1.4-45.1c-2.3-29.7-2.3-47.8-0.1-80.2
		c0.9-14,2-29.3,2.3-34c1.3-21.5,7.7-78.2,10.4-91.8c2.1-10.9,5.4-21.2,10.6-33.3c2.1-4.7,3.7-9.1,3.7-9.7
		C1417.3,1258.4,1412.4,1262.2,1393,1280z"/>
	<path class="st37" d="M1203.9,1231.7l0-21.6"/>
	<path class="st37" d="M1213.9,1220.9c0-4.1-0.4-5-3.1-7.7c-2.5-2.5-3.5-3-6.9-3l0,21.6c3.4-0.1,4.4-0.5,6.9-3
		C1213.6,1225.9,1213.9,1225,1213.9,1220.9z"/>
	<path id="structure76_text3054_IG" bar:growlevel="0" bar:type="" class="st38" d="M1234.6,1219.5c-4.5,1.4-10.8,6.2-10.8,8.2
		c0,1.7,5.4,1.6,19.3-0.4c12.9-1.8,14.1-3.1,6.7-6.8C1244.5,1217.9,1240.6,1217.6,1234.6,1219.5z"/>
	<path id="structure7_label7_VDB" bar:growlevel="0" bar:type="" class="st39" d="M1212.1,1676.5l-2.3,1.3v57.1
		c0,45,0.3,58.1,1.2,61.8c0.7,2.7,1.8,4.8,2.4,4.8s2.3-1.5,3.7-3.3c3.9-5,8.1-9.1,17.5-16.6c9.8-7.7,14.4-13.8,17.5-23
		c2.6-7.7,4.5-22.9,3.7-30.9c-2.3-22.6-12.8-42.9-25.3-49.3C1225.2,1675.6,1215.6,1674.6,1212.1,1676.5z"/>
	<path class="st40" d="M1204,1830.5c0,1.1,0.1,2.9,0.3,4.9l0-9C1204,1827.1,1204,1828.3,1204,1830.5z"/>
	<path class="st40" d="M1801.9,1998.4l-4.1-6.9l-6.8-1.6c-8.5-2-19.3-2.1-23-0.1c-7,3.6-7.6,7-5,25.7c3.2,21.2,1.8,29.3-5.8,35.9
		c-6.1,5.4-10.7,3.7-31.8-11.4c-13.9-10-15.7-10.9-20.9-10.9c-4.5,0-6.3,2.3-9.5,12c-4.9,14.8-8.9,20.7-15.2,21.9
		c-6.3,1.2-18.7-3.2-30.8-11c-13-8.3-20.3-10.3-24.4-6.9c-1,0.9-4.1,4.5-6.7,8c-9.1,12.2-19.4,18.5-31.3,19.1
		c-7.9,0.4-14-0.9-32.4-6.7c-12-3.8-13.6-4.1-19.3-3.6c-3.4,0.3-10.7,1.9-16,3.6c-12.1,4-20.4,5.6-35.7,6.9
		c-22.9,2-25.9,1.2-56.7-15.8c-10.2-5.6-24.9-13.8-32.8-18.1c-33.4-18.4-44.3-27.3-79.7-65.3c-8-8.6-15.8-16.4-17.1-17.1
		c-2.3-1.3-40.8-40-56.3-56.7c-3.9-4.2-8.6-10-10.5-12.9c-6.8-10.2-12.3-24.8-12.3-32.4c0-1.7-0.6-4.7-1.4-6.6
		c-1.6-4-1.9-15.1-0.4-20.2c0.4-1.7,0.9-3.4,0.9-3.8c0-1.2-3-0.8-5.4,0.6c-1.3,0.7-3.3,1.3-4.7,1.3c-1.3,0-1.9,0.1-2.2,0.8l0,9
		c0.3,2.5,0.6,5.4,1,7.9c6.2,35.3,34,78.8,79.6,124.7c33,33.1,95.9,85.1,130.8,108c14.6,9.6,23.7,13.7,40.2,17.9
		c29.3,7.5,72.3,10.7,119.9,9c100.6-3.6,153-17.7,223.3-60.2c12-7.3,16.8-10.7,16.8-11.9C1816,2026.5,1808.7,2009.6,1801.9,1998.4z"
		/>
	<path id="structure81_label77_Pir-1" bar:growlevel="0" bar:type="" class="st41" d="M2049.7,1793.9c0.4,3.5,0,6.8-1,10.2
		c-0.8,2.7-3.1,12.3-5,21.3c-3.9,18-5.9,23.4-12,33.8c-10.1,17-18.1,25.4-34.5,36.3c-15.1,10.1-28.5,14.7-39.8,13.6
		c-2.8-0.3-13.9-2.5-24.5-5c-33.8-7.9-44.5-8.9-58-5.5c-8.6,2.2-13.3,4.9-18.2,10.2c-5,5.5-6.9,9.4-12.9,27.3
		c-9,26.8-14.8,38.7-23.1,47c-5.2,5.2-10.4,8-16.8,8.8c-2.3,0.4-4.1,1-4.1,1.4c0,0.5,2.4,5.1,5.3,10.4c4.4,8,8.8,18,11.3,25.6
		c0.3,0.9,1.1,1.6,1.7,1.6c2.4,0,49.1-49,61.4-64.3c10.1-12.7,16.4-16,32.8-17.6c17.5-1.7,36.1,0.9,40.9,5.7
		c2.3,2.2,2.5,3.1,2.1,5.7c-0.5,2.6-0.4,3.2,0.9,3.2c1.9,0,13.2-6.8,30.5-18.3c48.4-32.2,84.2-65.4,95.5-88.5
		c5.8-12.1,6.8-18,7-41.4l0.3-20.8l-6.4-0.5c-3.5-0.4-11.3-1.4-17.2-2.5c-5.9-1.1-12.1-2.2-13.7-2.3l-2.8-0.4L2049.7,1793.9z"/>
	<path id="structure88_label83_IG" bar:growlevel="0" bar:type="" class="st38" d="M1235.2,1419.6c-2.1,3.3-5.4,27.3-9.1,64
		c-1.9,19.3-1.9,19.9,0.9,19.9c1.5,0,2.6-0.7,3.1-2.1c1.4-3.1,6.8-26.8,9-38.9c2.3-13.1,3.5-38.7,1.9-41.7
		C1240,1419,1236.1,1418.1,1235.2,1419.6z"/>
	<path id="structure8_label9_LSV" bar:growlevel="0" bar:type="" class="st42" d="M1313.3,1453.5c-14,14-13.6,36.6,1.2,55.5
		c7.7,9.9,12.1,22.1,15.6,42.7c1,6,2.4,12.7,3.1,14.8c1.9,5.1,6,11.6,7.6,11.6c0.6,0,3.1-1.5,5.4-3.5c5.3-4.4,15.2-10.8,17.7-11.4
		c1.8-0.5,1.9-1.3,2.4-11.9c1-18.3,0.7-31.5-0.7-41.1c-1.4-9.5-5-25.1-7.3-32.2c-1.4-4.1-1.5-4.2-4.7-4.2c-6.9,0-16.4-6.5-26.7-18.2
		C1320.3,1448.2,1318.9,1447.9,1313.3,1453.5z"/>
	<path id="structure91_text3055_DP" bar:growlevel="0" bar:type="" class="st43" d="M1282.3,1404.6c-5.5,4.7-10.9,5.7-28.5,4.9
		l-15.6-0.6v4.3c0,3.1,0.5,4.8,2.1,6.4c1.9,2,2,2.9,1.9,14.4c-0.1,14.2-1.7,25.7-6.8,47.6c-3.4,15.3-4.1,19.2-3,19.2
		c1.3,0,24.5-12.1,27.8-14.5c9.1-6.6,17.5-22.9,23.8-46.7c2.3-8.8,2.7-11.8,2.6-20.3c-0.1-5.5,0.2-11.6,0.5-13.8
		C1288.1,1400.9,1286.9,1400.6,1282.3,1404.6z"/>
	<path class="st44" d="M1875.9,1257.8c-25.5-65.5-57.3-113.8-91.6-139.1c-21.7-16-98.9-55.2-161.6-82c-22.9-9.7-50.1-13.8-92.8-13.7
		c-31.4,0-40.1,0.8-47.1,4.2c-7,3.5-15.2,10.8-21.8,19.5c-2.8,3.7-10.7,16.4-17.7,28.1c-29.3,49.4-53.6,82.3-78.8,106.6
		c-19.2,18.4-41.7,30.5-64.5,34.6c-4.3,0.7-11.2,2.3-15.2,3.5c-14.6,4.4-35.3,7.9-64.1,11.1c-8.1,0.9-12.5,1.3-16.6,1.4v180.5
		c5.5-0.1,11.2-0.8,20.2-2.1c14.3-2.2,16-2.3,26.4-1.3c13,1.3,21,0.7,27-1.9c5.7-2.4,8.5-5.5,15.4-16.6
		c6.3-10.1,16.6-24.3,23.4-32.4c2.5-3,6.8-8.3,9.5-11.7c8-10.5,61-61.9,89.1-86.4c4.1-3.6,10.5-11.3,19.3-22.9
		c7.2-9.6,15.6-20.6,18.5-24.3c3.1-3.7,6.9-9.1,8.6-12c8.8-15.5,26.4-34.3,40.8-43.7c4.6-3,11.4-7.8,15.1-10.8
		c27.4-21.6,57.1-31.6,93.6-31.6c31.3,0.1,57.3,6.9,92.7,24.7c61.9,31.1,110.9,72.6,129.5,110c9.4,18.7,18.7,53.2,23.1,85
		c2,14.3,2.7,57.2,1.3,74.4c-3.1,39.1-12.4,72.8-30.9,112.3c-15.7,33.8-18.3,39.5-23.6,52.7c-12.6,31.2-17.6,47.7-20.3,65.8
		c-3.3,23.1-13.3,59.4-27.6,99.8c-11.4,32.3-18.5,48.7-28,64.6c-5.9,10-2.7,9.9,6.9-0.2c9.3-9.7,13.1-17.3,25.4-51.4
		c10.2-28.1,11.3-31.7,21.1-64.4c18.4-61.4,27.4-83.3,46.8-113.8c4.4-6.9,11.2-17.8,15-24.1c3.9-6.4,11.5-18.2,16.9-26.3
		c24.8-37.3,34.1-59.3,38.2-91.8C1905,1371.4,1898.1,1314.8,1875.9,1257.8z"/>
	<path id="structure94_label91_ICj" bar:growlevel="0" bar:type="" class="st21" d="M1580.8,1983.6c-4.9,0.7-19.8,3.4-33.3,6
		l-24.5,4.8l-18.9-0.1c-10.6-0.1-25.2-0.7-33.3-1.5c-17.3-1.8-19.4-1.9-19.4-0.4c0,1.6,8.7,7.1,18,11.4c4.2,1.9,25.7,9.3,47.9,16.3
		c36.4,11.6,40.7,12.8,44.5,12.1c6.4-0.9,11.2-6.3,18.2-20.5c6.8-13.6,11.2-18.5,21.2-23.7c3.8-1.9,6.8-4,6.8-4.7
		C1608.1,1981.9,1592.7,1982,1580.8,1983.6z"/>
	<path id="structure95_text3092_S1DZO" bar:growlevel="0" bar:type="" class="st45" d="M2186.4,1077
		c-34.6,18-159.2,75.7-284.7,131.8c-36.8,16.4-38.1,17.1-37.7,19.3c0.8,4,12.2,29.3,13.5,29.5c4.4,1,338.5-127.6,342.9-132
		c0.5-0.5,0.5-2.5-0.3-5.7c-2.3-9.4-7.3-27.4-11-39.2c-3.2-10.4-4-11.9-5.6-11.8C2202.5,1069,2194.8,1072.6,2186.4,1077z"/>
	<path id="structure96_text3094_S1DZ" bar:growlevel="0" bar:type="" class="st46" d="M2005.5,936.1
		c-132.3,116.7-210,185.7-211.3,187.8c-0.8,1.3,21.9,24.9,23.9,24.9c3.1,0,125.6-94.5,213-164.3c52.6-41.9,89.1-72.4,89.1-74.4
		c0-1.4-11.3-16.3-21.5-28.4c-4.8-5.7-9.4-11.2-10.4-12.4c-1.1-1.2-2.5-2.2-3.2-2.2C2084.3,867.2,2048.5,898.2,2005.5,936.1z"/>
	<path id="structure98_label93_acer" bar:growlevel="0" bar:type="" class="st47" d="M1211.7,1892.3c-6.6,2.7-8.4,11.4-3.4,16.3
		c6.7,6.8,19.2,2.8,19.2-6.1C1227.4,1894.4,1219.3,1889,1211.7,1892.3z"/>
	<path class="st48" d="M1262.1,1495.1c-0.5-5.8-0.9-6.9-2.2-6.9c-0.9,0-8.2,3.4-16.3,7.7c-8,4.2-16.3,8.1-18.4,8.6
		c-2.1,0.5-10.2,0.8-21.1,0.7l0.1,92.8c13.5-0.1,25.4-3.9,31.8-10.5c6.3-6.5,13.7-25.7,21.6-56.1
		C1262.1,1514.2,1263.1,1505.6,1262.1,1495.1z"/>
	<text id="text3055" bar:growlevel="0" transform="matrix(1 0 0 1 1252.0693 1435.8535)" class="st49 st50 st51">DP</text>
	<text id="text3054" bar:growlevel="0" transform="matrix(1 0 0 1 1239.4629 1223.2871)" class="st49 st50 st51">IG</text>
	<text id="Unlabeled-1763-1241" bar:growlevel="0" transform="matrix(1 0 0 1 1216.9688 1456.9395)" class="st49 st50 st51">IL</text>
	<text id="label9" bar:growlevel="0" transform="matrix(1 0 0 1 1330.3184 1514.4805)" class="st49 st50 st51">LSV</text>
	<text id="label0" bar:growlevel="0" transform="matrix(1 0 0 1 1414.6172 1710.8965)" class="st49 st50 st51">AcbC</text>
	<text id="label1" bar:growlevel="0" transform="matrix(1 0 0 1 1302.2666 1780.8984)" class="st49 st50 st51">AcbSh</text>
	<text id="label2" bar:growlevel="0" transform="matrix(1 0 0 1 1224.8672 1837.3398)" class="st49 st50 st51">ICj</text>
	<text id="label3" bar:growlevel="0" transform="matrix(1 0 0 1 1579.3477 1967.9512)" class="st49 st50 st51">VP</text>
	<text id="label5" bar:growlevel="0" transform="matrix(1 0 0 1 1743.5977 1853.002)" class="st49 st50 st51">IEn</text>
	<text id="label6" bar:growlevel="0" transform="matrix(1 0 0 1 1552.0781 1911.5098)" class="st49 st50 st51">LAcbSh</text>
	<text id="label7" bar:growlevel="0" transform="matrix(1 0 0 1 1218.7031 1735.0977)" class="st49 st50 st51">VDB</text>
	<text id="label83" bar:growlevel="0" transform="matrix(1 0 0 1 1232.5898 1467.0195)" class="st49 st50 st51">IG</text>
	<text id="text3095" bar:growlevel="0" transform="matrix(1 0 0 1 1238.3438 1882.5762)" class="st49 st50 st51">Tu-2</text>
	<text id="text3094" bar:growlevel="0" transform="matrix(1 0 0 1 1974.8496 1003.5645)" class="st49 st50 st51">S1DZ</text>
	<text id="text3092" bar:growlevel="0" transform="matrix(1 0 0 1 2078.959 1166.9668)" class="st49 st50 st51">S1DZO</text>
	<text id="label19" bar:growlevel="0" transform="matrix(1 0 0 1 1301.3086 1429.8359)" class="st49 st50 st51">LSD</text>
	<text id="label12" bar:growlevel="0" transform="matrix(1 0 0 1 1960.7666 1723.8281)" class="st49 st50 st51">AIV</text>
	<text id="label13" bar:growlevel="0" transform="matrix(1 0 0 1 1985.6953 1657.998)" class="st49 st50 st51">AID</text>
	<text id="label10" bar:growlevel="0" transform="matrix(1 0 0 1 1218.7031 1556.4668)" class="st49 st50 st51">SHi</text>
	<text id="label11" bar:growlevel="0" transform="matrix(1 0 0 1 1801.9775 1746.4512)" class="st49 st50 st51">DEn</text>
	<text id="label16" bar:growlevel="0" transform="matrix(1 0 0 1 1833.3281 1610.6191)" class="st49 st50 st51">VCl</text>
	<text id="label14" bar:growlevel="0" transform="matrix(1 0 0 1 2020.916 1602.2754)" class="st49 st50 st51">DI</text>
	<text id="label15" bar:growlevel="0" transform="matrix(1 0 0 1 2047.0488 1533.5039)" class="st49 st50 st51">GI</text>
	<text id="label93" bar:growlevel="0" transform="matrix(1 0 0 1 1214.5576 1907.8672)" class="st49 st50 st51">acer</text>
	<text id="label91" bar:growlevel="0" transform="matrix(1 0 0 1 1549.4678 2015.9883)" class="st49 st50 st51">ICj</text>
	<text id="Unlabeled-1795-1611" bar:growlevel="0" transform="matrix(1 0 0 1 1251.1289 1788.6035)" class="st49 st50 st51">Tu</text>
	<text id="text3061" bar:growlevel="0" transform="matrix(1 0 0 1 1267.7344 1333.9355)" class="st49 st50 st51">gcc</text>
	<text id="label69" bar:growlevel="0" transform="matrix(1 0 0 1 1894.7373 1491.498)" class="st49 st50 st51">DCl</text>
	<text id="label66" bar:growlevel="0" transform="matrix(1 0 0 1 1890.5391 1977.8223)" class="st49 st50 st51">lo</text>
	<text id="label65" bar:growlevel="0" transform="matrix(1 0 0 1 1503.208 1778.7969)" class="st49 st50 st51">aca</text>
	<text id="label64" bar:growlevel="0" transform="matrix(1 0 0 1 1864.5264 1423.5645)" class="st49 st50 st51">ec</text>
	<text id="label63" bar:growlevel="0" transform="matrix(1 0 0 1 1465.0166 1012.9414)" class="st49 st50 st51">cg</text>
	<text id="label60" bar:growlevel="0" transform="matrix(1 0 0 1 1216.9688 908.4082)" class="st49 st50 st51">Cg1</text>
	<text id="Unlabeled-1960-1832" bar:growlevel="0" transform="matrix(1 0 0 1 1355.2178 1954.3828)" class="st49 st50 st51">ICj</text>
	<text id="Unlabeled-2355-1737" bar:growlevel="0" transform="matrix(1 0 0 1 1705.3184 1930.084)" class="st49 st50 st51">VP</text>
	<text id="text3080" bar:growlevel="0" transform="matrix(1 0 0 1 1213.916 1218.3066)" class="st49 st50 st51">azp</text>
	<text id="label74" bar:growlevel="0" transform="matrix(1 0 0 1 1393.3184 1294.002)" class="st49 st50 st51">E</text>
	<text id="label77" bar:growlevel="0" transform="matrix(1 0 0 1 1905.7002 1912.0566)" class="st49 st50 st51">Pir-1</text>
	<text id="label70" bar:growlevel="0" transform="matrix(1 0 0 1 1677.9141 1871.4219)" class="st49 st50 st51">LSS</text>
	<text id="label71" bar:growlevel="0" transform="matrix(1 0 0 1 1302.416 1836.2871)" class="st49 st50 st51">VP</text>
	<text id="label73" bar:growlevel="0" transform="matrix(1 0 0 1 1278.3867 1728.6582)" class="st49 st50 st51">ICjM</text>
	<text id="text3093" bar:growlevel="0" transform="matrix(1 0 0 1 1460.209 2065.8984)" class="st49 st50 st51">Tu-2</text>
	<text id="Unlabeled-2390-1904" bar:growlevel="0" transform="matrix(1 0 0 1 1735.0166 2018.2813)" class="st49 st50 st51">ICj</text>
	<text id="label67" bar:growlevel="0" transform="matrix(1 0 0 1 1464.0586 1982.5332)" class="st49 st50 st51">mfb</text>
	<text id="text4526" bar:growlevel="0" transform="matrix(1 0 0 1 1225.1748 1099.9922)" class="st49 st50 st51">Cg2</text>
	<text id="label50" bar:growlevel="0" transform="matrix(1 0 0 1 1914.3721 1890.8887)" class="st49 st50 st51">Pir-2</text>
	<text id="label51" bar:growlevel="0" transform="matrix(1 0 0 1 1923.6885 1865.1641)" class="st49 st50 st51">Pir-3</text>
	<text id="text3720" bar:growlevel="0" transform="matrix(1 0 0 1 1469.5283 2040.1777)" class="st49 st50 st51">Tu-3</text>
	<text id="text3722" bar:growlevel="0" transform="matrix(1 0 0 1 1451.54 2087.0684)" class="st49 st50 st51">Tu-1</text>
	<text id="label23" bar:growlevel="0" transform="matrix(1 0 0 1 1838.3086 936.3398)" class="st49 st50 st51">S1FL</text>
	<text id="label22" bar:growlevel="0" transform="matrix(1 0 0 1 1994.2764 1099.3301)" class="st49 st50 st51">S1J</text>
	<text id="label21" bar:growlevel="0" transform="matrix(1 0 0 1 1604.7275 1384.8887)" class="st49 st50 st51">CPu</text>
	<text id="label20" bar:growlevel="0" transform="matrix(1 0 0 1 2035.7666 1350.0527)" class="st49 st50 st51">S1ULp</text>
	<text id="label25" bar:growlevel="0" transform="matrix(1 0 0 1 1449.8672 813.7383)" class="st49 st50 st51">M2</text>
	<text id="label24" bar:growlevel="0" transform="matrix(1 0 0 1 1653.2373 847.1641)" class="st49 st50 st51">M1</text>
	<text id="label28" bar:growlevel="0" transform="matrix(1 0 0 1 1346.3086 1395.5391)" class="st49 st50 st51">LV</text>
	<text id="Unlabeled-1910-1812" bar:growlevel="0" transform="matrix(1 0 0 1 1305.7178 1939.9824)" class="st49 st50 st51">ICj</text>
	<text id="Unlabeled-2138-957" bar:growlevel="0" transform="matrix(1 0 0 1 1489.3184 1174.084)" class="st49 st50 st51">cc</text>
</g>
</svg>
