<?xml version="1.0" encoding="utf-8"?>
<!-- Generator: Adobe Illustrator 24.1.1, SVG Export Plug-In . SVG Version: 6.00 Build 0)  -->
<svg version="1.1"
	 id="body" inkscape:version="0.47pre4 r22446" sodipodi:docname="147_pretrace_pretrace_v1.svg" xmlns:bar="http://www.3dbar.org" xmlns:cc="http://creativecommons.org/ns#" xmlns:dc="http://purl.org/dc/elements/1.1/" xmlns:inkscape="http://www.inkscape.org/namespaces/inkscape" xmlns:rdf="http://www.w3.org/1999/02/22-rdf-syntax-ns#" xmlns:sodipodi="http://sodipodi.sourceforge.net/DTD/sodipodi-0.dtd" xmlns:svg="http://www.w3.org/2000/svg"
	 xmlns="http://www.w3.org/2000/svg" xmlns:xlink="http://www.w3.org/1999/xlink" x="0px" y="0px" viewBox="0 0 3024 3024"
	 style="enable-background:new 0 0 3024 3024;" xml:space="preserve">
<style type="text/css">
	.st0{fill:#FF000C;}
	.st1{fill:#E547D8;}
	.st2{fill:#00E945;}
	.st3{fill:#AF8EDC;}
	.st4{fill:#895FC7;}
	.st5{fill:#650BE1;}
	.st6{fill:#59DF9D;}
	.st7{fill:#792FDC;}
	.st8{fill:#B2FFEF;}
	.st9{fill:#00FFFB;}
	.st10{fill:#59DFFF;}
	.st11{fill:#B2F0FF;}
	.st12{fill:#3BFFDC;}
	.st13{fill:#2400CB;}
	.st14{fill:#D847CA;}
	.st15{fill:#FF00FE;}
	.st16{fill:#A15FFA;}
	.st17{fill:#00D7F2;}
	.st18{fill:#00EF7A;}
	.st19{fill:#00DFB7;}
	.st20{fill:#59FFD0;}
	.st21{fill:#00CF69;}
	.st22{fill:#7677E9;}
	.st23{fill:#00D43B;}
	.st24{fill:#BA8EFA;}
	.st25{fill:#3B40FF;}
	.st26{fill:#FFB2BA;}
	.st27{fill:#00FFDE;}
	.st28{fill:#A06BF6;}
	.st29{fill:#FF59C3;}
	.st30{fill:#2CEF8D;}
	.st31{fill:#5923CB;}
	.st32{fill:#7747D8;}
	.st33{fill:#00FF60;}
	.st34{fill:#00D1D4;}
	.st35{fill:#AC8EE5;}
	.st36{fill:#4C00F2;}
	.st37{fill:#00D0FF;}
	.st38{fill:#3BE95B;}
	.st39{fill:#FF59A4;}
	.st40{fill:#5D17FF;}
	.st41{fill:#905FFF;}
	.st42{fill:#6047E5;}
	.st43{fill:#3BD1D4;}
	.st44{fill:#E4FF59;}
	.st45{fill:#C5E900;}
	.st46{fill:#D6FF00;}
	.st47{fill:#EBF400;}
	.st48{fill:#F9FF47;}
	.st49{fill:#B6DF00;}
	.st50{fill:#D0D46B;}
	.st51{fill:#FDFFB2;}
	.st52{fill:#FEFFB2;}
	.st53{fill:#FFFD59;}
	.st54{fill:#FAFF00;}
	.st55{fill:#FAFF59;}
	.st56{fill:#EEF447;}
	.st57{fill:#B2BFFF;}
	.st58{fill:#0036FF;}
	.st59{fill:#0035FF;}
	.st60{fill:#FFEEB2;}
	.st61{fill:#5974FF;}
	.st62{fill:#0003FF;}
	.st63{fill:#FF0070;}
	.st64{fill:#CB59FF;}
	.st65{fill:#00E5C7;}
	.st66{fill:#76FFDA;}
	.st67{fill:#232323;}
	.st68{font-family:'TimesNewRomanPSMT';}
	.st69{font-size:27px;}
	.st70{fill:#232323;enable-background:new    ;}
	.st71{fill:#FF0000;enable-background:new    ;}
</style>
<sodipodi:namedview  bordercolor="#666666" borderopacity="1" gridtolerance="10" guidetolerance="10" id="namedview362" inkscape:current-layer="content" inkscape:cx="523.51712" inkscape:cy="660.22004" inkscape:pageopacity="0" inkscape:pageshadow="2" inkscape:window-height="1128" inkscape:window-maximized="1" inkscape:window-width="1918" inkscape:window-x="1680" inkscape:window-y="24" inkscape:zoom="3.9846088" objecttolerance="10" pagecolor="#ffffff" showgrid="false">
	</sodipodi:namedview>
<desc  id="desc5">This was produced by version 4.2 of GNU libplot, a free library for exporting 2-D vector graphics.</desc>
<defs>
	<rdf:RDF>
		<cc:Work  rdf:about="">
			<dc:format>image/svg+xml</dc:format>
			<dc:type  rdf:resource="http://purl.org/dc/dcmitype/StillImage"></dc:type>
		</cc:Work>
	</rdf:RDF>
	<bar:data  content="-8.52" name="coronalcoord"></bar:data>
	
		<bar:data  content="{&apos;ReferenceHeight&apos;: 900, &apos;ReferenceWidth&apos;: 1200, &apos;imageSize&apos;: (1200, 900)}" name="rendererConf">
		</bar:data>
	
		<bar:data  content="{&apos;DumpEachStepSVG&apos;: False, &apos;DumpEachStepPNG&apos;: False, &apos;GrowDefaultBoundaryColor&apos;: 200, &apos;CacheLevel&apos;: 5, &apos;NewPathIdTemplate&apos;: &apos;structure%d_%s_%s&apos;, &apos;PoTraceConf&apos;: {&apos;potrace_accuracy_parameter&apos;: &apos;0.001&apos;, &apos;potrace_width_string&apos;: &apos;1200pt&apos;, &apos;potrace_svg_resolution_string&apos;: &apos;300x300&apos;, &apos;potrace_height_string&apos;: &apos;900pt&apos;}, &apos;DetectUnlabelled&apos;: True, &apos;DumpVBrain&apos;: False, &apos;DumpWrongSeed&apos;: True, &apos;DumpDirectory&apos;: &apos;.&apos;, &apos;MinFiterTimesApplication&apos;: 3, &apos;RegionAlreadyTraced&apos;: 100, &apos;UnlabelledTreshold&apos;: 500}" name="tracingConf">
		</bar:data>
	<bar:data  content="0.0176211454,-9.5150660793,0.0176211454,-1.5355884426" name="transformationmatrix"></bar:data>
</defs>
<g id="content">
	<path class="st0" d="M2316.1,1183.6c-7.7-46.5-28.8-144-35.6-164.7c-12.5-37.9-29.8-65.7-76.5-122.9
		c-10.3-12.7-23.8-29.3-29.8-36.9c-13.9-17.5-19.1-23.4-34.7-39.4c-44.7-45.4-107.5-89.1-192-133.7
		c-97.4-51.4-213.5-84.4-336.1-95.7c-22.4-2.1-88.4-2.3-103.9-0.4c-57.6,7.1-113.6,28.5-155.8,59.8c-13.9,10.3-33.6,30.2-41.1,41.6
		c-11.8,17.8-15.6,28.8-14.8,42.8c1.4,27.1,24.4,58.1,65.9,89.3c9.3,7,28.2,19.7,34.6,23.3c5,2.8,4.9,4.9-0.1,4.1
		c-15.9-2.3-22.9-2.6-34.2-1.5c-33.7,3.2-70.6,19.3-104.1,45.5c-7.3,5.8-10,7-10,4.9c0-0.5,1.1-4,2.3-7.5
		c11.7-32.2,4.9-84.6-14.4-110.1c-16.2-21.4-45.8-34.2-75.3-34.4v1544.9c5.9,0,11.7-2.6,14-7.4c1.4-3,1.4-3.3,0-6.3
		c-0.8-1.7-1.8-3.1-2.3-3.1c-0.5,0-0.8-0.6-0.8-1.4c0-1.8,2.6-1.7,26.6,0.5c38.7,3.5,74.9,3.8,108.4,0.9c21.5-1.9,44.2-6.8,64.7-14
		c54.8-19.2,161.1-81.3,208.7-122.2c11.5-9.9,25.1-23.6,28.1-28.4c1.6-2.5,4.8-5,10.8-8.7c14.8-9,49.1-32,69.3-46.5
		c35-25,57.5-42.3,120.6-92.5c21.5-17.1,45.2-35.8,52.6-41.5c27.4-21,40.4-36.1,45.1-52.5c2.9-9.8,2-13.1-9.7-36.7
		c-5.7-11.5-14.5-30.1-19.5-41.2c-5-11.2-10.2-22.2-11.4-24.6c-2.4-4.9-6.5-7.8-10.9-7.8c-3.2,0-10.8,3.4-12.7,5.8
		c-0.7,0.8-2,1.4-3,1.4c-1.4,0-1.7-0.5-1.3-2.5c7.8-38.1,8.2-72.6,0.8-94.7c-6.5-19.6-18.9-31.6-31.3-30.3
		c-8.6,0.9-19.6,6.3-32,15.7c-3.3,2.6-6.6,4.8-7.1,4.8c-1.3,0-1.2-5,0.9-27.3c2.1-22.9,3.5-35.7,7.3-64.1
		c3.3-25.5,4.1-42.4,2.7-52.6c-2.2-14.3-7.8-28.8-18.7-47.7c-12.1-20.9-17.4-34-19.1-47.3c-1.3-9.4,0-36,3.1-62.1
		c3.1-27.1,3-35.4-0.4-45.4c-1.5-4.2-3.2-10.4-3.6-13.6c-1.3-8.4-1.2-27,0.4-52.7c0.9-13.4,1.3-27.2,1-34.4
		c-0.6-14.2,0.4-15.3,4.2-4.9c18.4,49.7,60.9,104.8,101.9,132.3c9.5,6.3,14.9,14.3,19.6,28.3c3,9.2,12.2,42.5,12.2,44.3
		c0,2.4-2,1.4-6.4-3.2c-7.4-7.7-15.8-10-23.8-6.4c-11.2,5.1-12.8,15.6-6.3,41.4c7.6,29.8,17.8,48.6,28.9,52.8c3.9,1.4,4.3,1.4,9,0
		c6-1.9,11.2-6.8,12.8-11.9c0.5-2.1,1.1-7.2,1.1-11.5c0-9.6,1.5-10.3,4.5-2.2c3.9,10.8,12.8,30.9,20.7,47.1
		c24.5,49.8,52.6,86.8,80.2,105.5c23.2,15.8,69.4,26,103,22.9c37.5-3.6,63.4-15.2,87.8-39.6c21.2-21.3,35.2-41.8,59.8-87.8
		c29.1-54.4,34.5-67.8,40.6-99.3c3.8-19.5,4.2-31.9,1.8-48.3c-0.8-5.4-1.4-12.5-1.4-15.8c0-12.7,6.8-30.2,17.1-43.7
		c11.1-14.5,12.4-19.1,13.5-46.3C2323.7,1237,2322.5,1222,2316.1,1183.6z M1741.3,1113.1c-5.4,7.2-8.1,13.9-9.3,23.8
		c-1,7.7-2.6,9.8-3.9,5c-1.2-4.9-14.2-39.5-18-47.9c-2.2-4.7-5.6-11.5-7.6-15.2c-3.6-6.6-4.4-9.1-2.9-9.1c0.5,0,9.1,4.3,19.4,9.5
		c20.2,10.4,26,14.7,27.6,20.3C1747.9,1103.8,1747.4,1105,1741.3,1113.1z"/>
	<path id="structure2_text6478_vBrain" bar:growlevel="0" bar:type="" class="st0" d="M1798.1,1325.4c-5.5,3.3-7.4,8.9-5.7,16.5
		c1.6,6.9,6,14.7,12.1,21.1c8,8.6,13.9,9.6,20.2,3.3c2.9-2.9,3.1-3.4,2.7-7.8c-0.8-9.3-11.3-29.4-17.1-33
		C1806.4,1323.1,1801.8,1323.1,1798.1,1325.4z"/>
	<path id="structure4_text6478_vBrain" bar:growlevel="0" bar:type="" class="st0" d="M1810.7,1542.3c-10.4,4.7-9.9,18.4,0.8,22.9
		c4,1.6,4.3,1.7,8.3,0.2c10.7-4.1,11.4-18,1.2-22.9C1816.2,1540,1815.4,1540,1810.7,1542.3z"/>
	<path id="structure6_text6478_vBrain" bar:growlevel="0" bar:type="" class="st0" d="M1832.9,1565.5c-8.8,4.4-9.2,16.7-0.6,21.8
		c11,6.8,23.8-6.4,16.9-17.4C1845.8,1564.3,1838.9,1562.4,1832.9,1565.5z"/>
	<path id="structure100_label101_a" bar:growlevel="0" bar:type="" class="st1" d="M1834.3,1565.2c-2,0.7-3.7,1.3-3.8,1.3
		s-1,1.3-2,3.1c-3.4,5.4-2,13.8,2.8,16.9c8.1,5.3,18.6,0.4,19.3-8.9C1851.4,1568.4,1843.1,1562.1,1834.3,1565.2z"/>
	<path id="structure101_label102_mcp" bar:growlevel="0" bar:type="" class="st2" d="M1801.4,1640.9c-8.4,2.3-21.7,10.4-31.9,19.4
		c-6.1,5.4-10.3,14.8-31.1,69.5l-9.2,24.2l1.9,9.5c6.9,34.9,2.7,68.8-12.8,102.3c-2.7,5.9-8.3,18.6-12.3,28.3
		c-13.6,32.3-20.3,43.8-37,64.4c-15.7,19.1-28.8,32.8-37.3,38.9c-1.9,1.4-3.5,3.9-5.3,8.5c-3.8,9.8-14.9,32.6-20.7,42.7
		c-24.1,41.3-57.2,75.5-93.7,96.8c-5.8,3.3-12.3,8.6-22.1,17.5c-7.7,7-28.4,25.4-46.3,40.9c-49.2,42.8-53.4,46.8-48.3,46.8
		c4.2,0,48.9-22.9,79.4-40.8c71.8-41.9,119-78.1,135.9-104.2c29.4-45.2,49.4-74.2,102.6-148.8c53.4-75,85.3-122.1,104.5-154.4
		c16-26.9,16.7-28.3,18.8-38.1c10.9-53,7.3-96.1-9.5-114.8C1819.2,1640.8,1811.2,1638.1,1801.4,1640.9z"/>
	<path id="structure102_label103_s5" bar:growlevel="0" bar:type="" class="st3" d="M1847.7,1762.3c-7.1,3.5-12.1,9.6-21.3,25.8
		c-4.8,8.3-12,20.4-16.1,27c-10.3,16.5-44.3,67.3-60.8,90.7c-15.8,22.5-46.4,74.2-73.4,123.9c-9.3,17-22.2,43.5-22.2,45.4
		c0,4,1.7,2.9,32.8-19.3c36.8-26.3,67.1-49.5,138.6-106.7c13.4-10.6,28.5-22.6,33.8-26.5c20.5-15.4,31.9-26.5,39.7-38.6
		c5.2-7.9,7.3-14.3,7.5-22.1l0.1-6.8l-10.5-21.6c-10.6-21.9-19.4-40.5-27.4-58.3C1861.7,1760.2,1857.4,1757.5,1847.7,1762.3z"/>
	<path id="structure103_label104_m5" bar:growlevel="0" bar:type="" class="st4" d="M1724.7,1760.7c-3.2,3.6-6.1,9-11.9,22.3
		c-2.7,6.4-13.1,27.7-23.1,47.3c-32.8,64.1-37.6,76-44.5,110.7c-3.3,16.2-7.6,33.2-11.7,44.9c-2.6,7.7-2.8,10-0.9,10
		c2.4,0,20.3-18.3,33.1-33.8c19.9-24,24.9-32.7,39.6-67.1c5.2-12.2,11.1-25.5,13.1-29.7c14.6-31.3,19.1-67.9,12.5-101.3
		C1729.7,1757.8,1728.2,1757,1724.7,1760.7z"/>
	<path id="structure104_label105_rs" bar:growlevel="0" bar:type="" class="st5" d="M1565.2,1794.4c-10.4,3.9-21.8,17.8-25.9,32
		c-2,6.5-3.7,24.6-3.1,32.1c0.6,8.9,3.6,16,8.6,21.2c5.6,5.8,10.9,7,21.9,5.1c10-1.7,17.6-5.7,24.8-12.9c4.7-4.8,6.6-7.6,11-16.8
		c7.8-16.7,9.3-21.3,8.8-29.5c-0.7-12.5-7.9-22.3-21.2-28.9c-5.3-2.6-7-3-14.2-3.1C1571.5,1793.5,1566.7,1793.9,1565.2,1794.4z"/>
	<path id="structure105_label106_ll" bar:growlevel="0" bar:type="" class="st6" d="M1735.7,1511.1c0,0.7,2.1,4.7,4.7,8.8
		c9.4,15.1,14.2,29.2,14.2,41.3c0,10.5-5.7,26.7-14,40.1c-4.1,6.7-14.6,17.2-19.3,19.7c-3.3,1.7-3.6,4.1-0.5,4.1
		c1.2,0,4.4,0.8,7.1,1.9c13.5,5,23,21.8,21.9,38.6c-0.8,12.3-7.2,28-22.7,55.8c-11.9,21.2-22.4,36.6-27.4,39.7
		c-9.4,6-17.4,3.8-19.9-5.6c-4.2-15.8-5.4-18.6-9.4-23.1c-2.3-2.5-6.8-6.4-10.2-8.6c-11.6-7.7-16.5-15.3-17.1-26.8
		c-0.6-9,1.8-16.2,7.9-24.3c7.8-10.4,25.5-26,40.7-35.8c4.3-2.8,7.8-5.5,7.9-6c0-0.6-2.7-1.3-6.8-1.6c-18.2-1.6-37.4-10.3-51.5-23.4
		c-10.4-9.6-21.2-25.6-26.2-39c-4.7-12.5-5.6-8-3.8,20c2.4,37.5,5.9,59.1,14,84.2c11,34.5,13.9,47,14.6,64.5
		c0.6,15.1-0.4,22-6.2,39.9c-14,42.8-33.9,89.4-54.7,126.9c-7.8,14.1-7.3,15.8,2.6,7.7c3.2-2.7,9.5-7.1,13.9-9.9
		c16.9-10.6,28.3-12.1,32.7-4c2.6,4.9,2.2,24.8-1,39.6c-3.3,15.6-10.7,40.9-14.7,50.2c-13.5,31.5-39.7,58.8-60,62.6
		c-3.8,0.7-3.9,1.1-1.3,7.6c6.2,16.5-3.4,43-18.9,52.1c-3.7,2.2-5,2.4-12.2,2.4c-6.3-0.1-9.3-0.5-13.3-2.2
		c-7.3-2.9-15.1-10.3-18.8-17.9c-2.8-5.8-3-6.5-3-16.4c0-9.4,0.3-10.9,2.4-15.5c1.3-2.8,4.1-6.8,6-9.1c2.1-2.2,3.7-4.4,3.7-5.1
		c0-0.5-1.3-1-3-1c-1.7,0-5-1-7.5-2.3c-2.4-1.3-4.7-2.3-4.9-2.3c-1.5,0-11,17.7-15.2,28.4c-8.3,21-10.7,46.9-6.2,66.5
		c3,12.8,20.9,20.4,38.8,16.7c6-1.3,9.5-3.1,21.9-11.2c49.6-32.3,88.4-84.2,110.2-147.6c5.8-16.6,9.8-31.9,14-53
		c3.4-17.2,8.5-33.6,15.3-49.6c2.3-5.5,14-29.3,26.1-53.2c12.1-23.8,23.6-47.3,25.7-52.2c5.8-13.7,9.5-20.5,13-24.2
		c1.7-1.9,3.1-3.6,3.1-3.8c0-0.7,18.6-49.6,23.6-62.2c2.4-6.1,6.4-15.5,8.7-20.7c4.4-9.5,4.4-9.8,5.5-23.1
		c1.5-20.3,4.1-45.4,8.1-77.4c1.9-15.8,3.7-32.2,3.8-36.3l0.3-7.6l-9.5-3.3c-10.2-3.7-20.7-8.6-26.7-12.8
		C1738.2,1509.6,1735.7,1509.1,1735.7,1511.1z"/>
	<path id="structure106_label107_ll" bar:growlevel="0" bar:type="" class="st6" d="M1735.7,1511.1c0,0.7,2.1,4.7,4.7,8.8
		c9.4,15.1,14.2,29.2,14.2,41.3c0,10.5-5.7,26.7-14,40.1c-4.1,6.7-14.6,17.2-19.3,19.7c-3.3,1.7-3.6,4.1-0.5,4.1
		c1.2,0,4.4,0.8,7.1,1.9c13.5,5,23,21.8,21.9,38.6c-0.8,12.3-7.2,28-22.7,55.8c-11.9,21.2-22.4,36.6-27.4,39.7
		c-9.4,6-17.4,3.8-19.9-5.6c-4.2-15.8-5.4-18.6-9.4-23.1c-2.3-2.5-6.8-6.4-10.2-8.6c-11.6-7.7-16.5-15.3-17.1-26.8
		c-0.6-9,1.8-16.2,7.9-24.3c7.8-10.4,25.5-26,40.7-35.8c4.3-2.8,7.8-5.5,7.9-6c0-0.6-2.7-1.3-6.8-1.6c-18.2-1.6-37.4-10.3-51.5-23.4
		c-10.4-9.6-21.2-25.6-26.2-39c-4.7-12.5-5.6-8-3.8,20c2.4,37.5,5.9,59.1,14,84.2c11,34.5,13.9,47,14.6,64.5
		c0.6,15.1-0.4,22-6.2,39.9c-14,42.8-33.9,89.4-54.7,126.9c-7.8,14.1-7.3,15.8,2.6,7.7c3.2-2.7,9.5-7.1,13.9-9.9
		c16.9-10.6,28.3-12.1,32.7-4c2.6,4.9,2.2,24.8-1,39.6c-3.3,15.6-10.7,40.9-14.7,50.2c-13.5,31.5-39.7,58.8-60,62.6
		c-3.8,0.7-3.9,1.1-1.3,7.6c6.2,16.5-3.4,43-18.9,52.1c-3.7,2.2-5,2.4-12.2,2.4c-6.3-0.1-9.3-0.5-13.3-2.2
		c-7.3-2.9-15.1-10.3-18.8-17.9c-2.8-5.8-3-6.5-3-16.4c0-9.4,0.3-10.9,2.4-15.5c1.3-2.8,4.1-6.8,6-9.1c2.1-2.2,3.7-4.4,3.7-5.1
		c0-0.5-1.3-1-3-1c-1.7,0-5-1-7.5-2.3c-2.4-1.3-4.7-2.3-4.9-2.3c-1.5,0-11,17.7-15.2,28.4c-8.3,21-10.7,46.9-6.2,66.5
		c3,12.8,20.9,20.4,38.8,16.7c6-1.3,9.5-3.1,21.9-11.2c49.6-32.3,88.4-84.2,110.2-147.6c5.8-16.6,9.8-31.9,14-53
		c3.4-17.2,8.5-33.6,15.3-49.6c2.3-5.5,14-29.3,26.1-53.2c12.1-23.8,23.6-47.3,25.7-52.2c5.8-13.7,9.5-20.5,13-24.2
		c1.7-1.9,3.1-3.6,3.1-3.8c0-0.7,18.6-49.6,23.6-62.2c2.4-6.1,6.4-15.5,8.7-20.7c4.4-9.5,4.4-9.8,5.5-23.1
		c1.5-20.3,4.1-45.4,8.1-77.4c1.9-15.8,3.7-32.2,3.8-36.3l0.3-7.6l-9.5-3.3c-10.2-3.7-20.7-8.6-26.7-12.8
		C1738.2,1509.6,1735.7,1509.1,1735.7,1511.1z"/>
	<path id="structure107_label108_tfp" bar:growlevel="0" bar:type="" class="st7" d="M1801.4,1640.9c-8.4,2.3-21.7,10.4-31.9,19.4
		c-6.1,5.4-10.3,14.8-31.1,69.5l-9.2,24.2l1.9,9.5c6.9,34.9,2.7,68.8-12.8,102.3c-2.7,5.9-8.3,18.6-12.3,28.3
		c-13.6,32.3-20.3,43.8-37,64.4c-15.7,19.1-28.8,32.8-37.3,38.9c-1.9,1.4-3.5,3.9-5.3,8.5c-3.8,9.8-14.9,32.6-20.7,42.7
		c-24.1,41.3-57.2,75.5-93.7,96.8c-5.8,3.3-12.3,8.6-22.1,17.5c-7.7,7-28.4,25.4-46.3,40.9c-49.2,42.8-53.4,46.8-48.3,46.8
		c4.2,0,48.9-22.9,79.4-40.8c71.8-41.9,119-78.1,135.9-104.2c29.4-45.2,49.4-74.2,102.6-148.8c53.4-75,85.3-122.1,104.5-154.4
		c16-26.9,16.7-28.3,18.8-38.1c10.9-53,7.3-96.1-9.5-114.8C1819.2,1640.8,1811.2,1638.1,1801.4,1640.9z"/>
	<path class="st8" d="M1203,1493.6c-5.9,1.3-11,3.8-17.4,8.7c-8.9,6.9-16.9,10.2-25.1,10.1v431.1c2.9,1,5.3-1.1,7.7-6.1
		c2.1-4.2,5-7.2,6.9-7.2c1.8,0,2.1-0.9,3.4-11.3c3-23.2,4.6-46.4,5.5-77.9c1.4-50,1.1-56.3-5.4-100.8c-3-20.2-4.2-34.7-7.8-87.8
		c-2.6-39.4-3.1-72.4-1.3-85.9c3.8-27.4,15.1-47.4,34.5-60.4c7.5-5,7.9-5.6,7.9-8.4C1211.9,1493.4,1209.4,1492.2,1203,1493.6z"/>
	<path id="structure112_label113_LDTgV" bar:growlevel="0" bar:type="" class="st9" d="M1339.6,1587.4c-3.6,5.1-6.1,10.1-10.2,20.7
		c-5.9,15.1-12.4,24.5-21.2,30.1c-2.9,1.9-5.3,4.1-5.3,4.9c-0.1,2.6,7,12.2,13.2,17.9c9.3,8.5,25.8,19.2,35,22.5
		c10.1,3.7,19.3,4.5,25,2.3c4.7-1.8,9.6-7,11.2-12c2.9-8.8,2-32.2-1.8-51.1c-3.1-15-3.1-15-18-23.8c-7.1-4.1-15.3-9.3-18.1-11.4
		c-2.8-2.2-5.5-4-6-4C1342.9,1583.7,1341.1,1585.4,1339.6,1587.4z"/>
	<path id="structure113_label114_CnFV" bar:growlevel="0" bar:type="" class="st10" d="M1429.2,1477c-1.2,1.7-1.3,3.1-0.7,5.7
		c0.4,1.8,0.7,6,0.7,9.4c0.1,7.3,1.5,9.2,10.4,13.2c14,6.5,35.2,10,60.4,10c9.6,0,19.8,0.4,22.6,0.9c5.4,1,8.6,0.4,21.9-3.6
		c14.8-4.5,38.3-14.8,38.3-16.8c0-1.2-1.6-1.3-11-0.8c-42.6,2-86.8,1.2-100.6-2.1c-15.1-3.4-35.5-12.2-36.9-15.9
		C1433.1,1474.1,1431.1,1474.1,1429.2,1477z"/>
	<path id="structure114_label115_CnFI" bar:growlevel="0" bar:type="" class="st11" d="M1437.1,1471.3c-2.5,1.3-3.5,4.8-1.9,6.8
		c1.7,2,16.5,8.7,25.3,11.5c14.1,4.5,20.6,5.1,53.8,5.6c17.2,0.3,40.8,0,53-0.5c24.8-1.2,24.2-1,33.2-9.4c5.5-5.1,5.9-7.3,1.8-8.3
		c-1.6-0.4-24.4-0.6-50.7-0.5c-50.3,0.2-61.2-0.3-88.4-4C1445.5,1470.1,1440.2,1469.8,1437.1,1471.3z"/>
	<path class="st12" d="M1203,1493.6c-5.9,1.3-11,3.8-17.4,8.7c-8.9,6.9-16.9,10.2-25.1,10.1v431.1c2.9,1,5.3-1.1,7.7-6.1
		c2.1-4.2,5-7.2,6.9-7.2c1.8,0,2.1-0.9,3.4-11.3c3-23.2,4.6-46.4,5.5-77.9c1.4-50,1.1-56.3-5.4-100.8c-3-20.2-4.2-34.7-7.8-87.8
		c-2.6-39.4-3.1-72.4-1.3-85.9c3.8-27.4,15.1-47.4,34.5-60.4c7.5-5,7.9-5.6,7.9-8.4C1211.9,1493.4,1209.4,1492.2,1203,1493.6z"/>
	<path id="structure117_label119_Me5" bar:growlevel="0" bar:type="" class="st13" d="M1399.1,1450.5c0,2.5,0.3,2.8,2.5,2.5
		c1.9-0.2,2.4-0.7,2.4-2.5c0-1.8-0.6-2.3-2.4-2.5C1399.4,1447.7,1399.1,1447.9,1399.1,1450.5z"/>
	<path class="st14" d="M1168.2,2273.4c-1.9-0.8-4.8-1.2-7.7-1.2v19.6c3.2,0.1,6.5-0.4,8.2-1.3c3.5-1.8,6.3-5.6,6.3-8.6
		C1175,2278.9,1171.9,2275,1168.2,2273.4z"/>
	<path id="structure119_label121_4n" bar:growlevel="0" bar:type="" class="st15" d="M1800,1324.5c-4.8,1.5-7,4.8-7.4,11.1
		c-0.5,9,3.8,18.8,12.3,27.9c4.2,4.6,7.2,6,12.1,6c3.2,0,4.6-0.6,6.8-2.5c5.3-4.9,4.9-9.8-2.2-24.5c-4.7-9.8-7.8-14.7-10.7-16.6
		C1808.2,1324.1,1803.4,1323.5,1800,1324.5z"/>
	<path id="structure120_label122_m5" bar:growlevel="0" bar:type="" class="st4" d="M1702,1972.6c-44.5,62.7-86.9,125-86.9,127.8
		c0,0.9,0.6,1.6,1.4,1.6c2.3,0,33.2-20.3,34.4-22.6c0.6-1.2,5.5-11.3,11-22.4c10.1-20.5,25.9-49.6,44.1-80.8
		c5.5-9.5,10-17.8,10-18.6C1715.9,1954.1,1712.8,1957.5,1702,1972.6z"/>
	<path id="structure122_label125_tth" bar:growlevel="0" bar:type="" class="st16" d="M1193.9,2072.7c-11,2.3-13.1,6.3-12.9,23.9
		c0.1,11.2,2.6,29.6,4.3,31.2c0.3,0.3,2.9-0.5,5.8-1.8c32.3-14.5,106.3-31.8,150.3-35c11.5-0.9,14.6-1.3,14.6-2.4
		c0-0.6-1.9-3.1-4.3-5.5c-6.9-6.9-7.1-7-58.2-7.6c-37.1-0.4-46.5-0.7-59.4-2.3C1217,2071.3,1201.5,2071,1193.9,2072.7z"/>
	<path id="structure123_label126_ml" bar:growlevel="0" bar:type="" class="st17" d="M1334.8,2091.9c-29.2,2.6-80.4,13.3-115.5,24.2
		c-13.1,4-32.1,11.3-33.6,12.7c-1.1,1.1,0.6,21.5,2.3,26.9c3,9.7,9.5,14.8,19.1,14.8c10.7,0,16.1-2.6,52.4-25.1
		c32.8-20.3,60.8-36.8,76.8-45.4c6.8-3.5,12.4-7,12.4-7.6C1348.7,2091.3,1343.7,2091.1,1334.8,2091.9z"/>
	<path id="structure126_label130_ts" bar:growlevel="0" bar:type="" class="st18" d="M1249.3,1758.4c-4.9,4.4-5.7,8.4-6.2,36.4
		c-0.3,13.3-0.9,29.3-1.4,35.5c-2.5,30.2-6.2,63.3-10.3,93.6l-0.6,4l12,3.9c6.5,2.2,12.2,3.6,12.5,3.2c2-2,9.4-30.9,12.5-48.9
		c6-34.6,11.1-92.6,9.5-111.3c-1.2-14-6.2-19.2-18.6-19.2C1253,1755.6,1252.1,1755.8,1249.3,1758.4z"/>
	<path id="structure128_label131_PMnR" bar:growlevel="0" bar:type="" class="st19" d="M1172.3,1663.5c0,4.8,2.2,35.8,3.6,51.1
		c0.6,5.4,2.6,21.2,4.8,35.1l3.8,25.2v46.8c-0.1,41.9-0.3,48.9-2.1,66.6c-2.2,21.2-3.5,32.7-4.3,36.6c-0.6,3.2,0.4,3.2,5.8,0.5
		c3.6-1.7,5.5-2,14.9-1.9c7.3,0,14.1,0.7,21.1,2.1c7,1.4,10.4,1.7,10.9,1.1c1.3-2.3,7.2-52.1,10.5-89.2c0.9-10.4,1.5-26.7,1.5-40.1
		c0.1-24.8,0-25.3-8.1-55l-3.3-11.9l-8.2-0.4c-9.6-0.4-16.7-3.1-22.5-8.6c-5.5-5.3-7.2-9.9-7.2-20.4c-0.1-8,0.2-9.6,2.4-14.3
		c1.4-2.9,2.4-5.6,2.4-6c0-0.5-2.9-0.8-6.4-0.8c-6,0-6.6-0.2-9.3-3c-2-1.9-3.9-5.5-5.6-10.3
		C1174.2,1658.3,1172.3,1657,1172.3,1663.5z"/>
	<path id="structure12_label5_Pn" bar:growlevel="0" bar:type="" class="st20" d="M1169.2,1955.5c-2.3,7-2.6,17.9-3,98.8
		c-0.4,99.8,0.8,171,3,176.2c3,6.9,10.1,11.8,19.9,13.6c2.9,0.6,11.3,1.6,18.6,2.4c21.9,2.3,35,6.7,44.2,14.9
		c4.9,4.3,9.5,11,9.5,13.7c0,1.6,0.7,1.6,14.7,1.1c31.7-1.2,49.2-3.2,68.6-7.8c11.3-2.7,35.4-10.4,39.6-12.7
		c1.1-0.5,8.5-6.9,16.4-14.1c7.9-7.2,26.3-23.4,40.9-36c40.5-35.1,58.4-51.4,58.4-53.2c0-0.4-3.8-0.8-8.4-0.8
		c-9.6,0-18-2.2-23.1-5.8c-8.4-6.3-21.2-19.4-42.1-43.6c-12.7-14.6-26-29.4-29.4-32.9c-10.1-10-20-15.8-27.5-15.8
		c-2,0-2.6,0.5-3.4,3.4c-0.5,1.9-2.5,4.8-4.3,6.5c-2.4,2.3-3,2.5-1.9,0.9c8.3-12.3-15.3-36.6-61.4-63.4c-6.7-3.9-16.4-9-21.6-11.5
		c-27.3-12.8-71.3-28.3-94.1-33C1173.2,1954.2,1169.7,1954,1169.2,1955.5z M1233.8,2072.9c14.1,1.9,95,3.2,102.3,1.7
		c4.6-1,5.1-0.9,4.9,0.4c-0.2,1,1.4,2.3,5.2,4.1c4,2,6.3,3.8,8.3,6.8l2.8,4.1l10.3,0.1c25,0.3,42.6,10.4,52.5,30.1
		c12.3,24.6,11.4,46.2-2.4,60.7c-6.2,6.3-11.3,9.6-25.7,16.8c-28,13.9-38.3,14.7-73.3,5.8c-14.3-3.7-80-17.6-83-17.6
		c-2.7,0-7.1-2.8-8.7-5.5c-1.3-2.3-1.5-3.9-1.1-8.1c0.6-6.1,0.6-6.1-6.8-3.6c-14.1,5.1-23.4,2.5-29-7.8c-2.8-5.2-5.1-15.8-5.1-23.6
		c0-2.9-0.8-10-1.8-15.9c-4-22.9-4-34-0.3-41.5C1187.2,2071.1,1204,2068.9,1233.8,2072.9z"/>
	<path id="structure130_label133_mlf" bar:growlevel="0" bar:type="" class="st21" d="M1289.8,1624.3c-9.9,2-89.6,13.5-108.5,15.7
		c-7.5,0.8-8.5,1.9-8.3,8.4c0.2,7.2,6,24.9,9.3,28.3c4.9,5,16.4,4.2,23.9-1.5c9.9-7.6,20.7-11.3,39.2-13.4
		c12.2-1.3,23.4-5.1,45.8-14.8l10.4-4.6v-9.9C1301.5,1620.8,1302.6,1621.6,1289.8,1624.3z"/>
	<path class="st22" d="M1406.9,1433.9c2.9,0.8,3.9-3.7,3.9-18.3c0-17.9-2.5-39.9-4.5-39.9c-0.5,0-22.7-3.1-49.5-6.8
		c-26.8-3.7-49.9-6.8-51.4-6.8c-2.6,0-2.6,0.1-2.6,5.1c-0.1,15.8-7.8,32.4-22.3,48.1c-5.7,6.1-39,36-55.1,49.4
		c-26.9,22.5-51.1,37.3-62.3,38.3c-0.8,0.1-1.7,0.1-2.6,0.1v8.6c7.7,0,15.5-2.7,22.9-8.4c7.7-5.8,9.3-6.8,15.3-8.9
		c8.9-3.3,14.1-2.1,14.1,3.6c0,2.3,0,2.3,9.4,2.7c8.6,0.4,10,0.7,16.2,3.8c3.8,1.9,7,3.2,7.1,3.1c0.2-0.1,1.2-2.2,2.3-4.5
		c5.3-11.2,21.6-23.2,37.2-27.4c10.4-2.7,25.2-0.5,41,6.2c9.9,4.2,15.6,8,20.3,13.4c5.9,6.8,8.2,12.4,13.6,33.3
		c7.1,28.1,8.8,34,9.6,34c2.1,0,13-7.9,16.6-12.2c5.6-6.2,15.2-23,16.5-28.8c0.5-2.4,1.4-8.9,1.8-14.4c0.6-8.2,0.5-10.6-0.7-14.1
		c-1.3-3.9-1.3-4.5,0.1-9.1c0.9-2.8,1.5-7.7,1.5-11.7c0-6.3-0.2-6.9-1.8-6.9c-2.1,0-3.9-2.9-3.1-4.9c0.4-0.8,1.7-1.7,3.1-2
		c2.2-0.4,2.6-1,2.6-3.2c0-2.4-0.2-2.6-3.2-2.3c-3.9,0.4-5.9-1.8-4.3-4.5c1.4-2.1,3.4-2.3,5.1-0.6c1.9,1.8,3.3,1.7,3.3-0.4
		c0-0.9,0.3-3,0.5-4.5c0.5-2.5,0.4-2.8-1.6-2.8c-2.5,0-4.3-1.5-4.3-3.8C1401.8,1434.8,1404.5,1433.3,1406.9,1433.9z M1398.7,1501.1
		c-1.5,0.6-5-1.7-5-3.3c0-3,4.3-4.3,6.3-1.9C1401.3,1497.4,1400.5,1500.5,1398.7,1501.1z M1399.2,1474.8c3.1,1.7,1.6,6.3-2.1,6.3
		c-1.4,0-3.4-2.4-3.4-3.9c0-0.6,2.7-3.2,3.2-3.2C1397.2,1473.9,1398.2,1474.3,1399.2,1474.8z"/>
	<path id="structure137_label144_scp" bar:growlevel="0" bar:type="" class="st23" d="M1390.6,1555.9c-11,1.4-21,6.6-38.4,20
		c-3.9,3-7,6.1-7,6.9c0,3.3,18.1,14.5,57.3,35.5c24,12.8,71.7,35.6,74.4,35.6c1.2,0,14.7-13.7,20.5-20.7c7.1-8.7,16-23.1,16-26.1
		c0-0.5-2.2-3.9-4.8-7.5c-2.7-3.5-7.7-10.8-11.3-16c-3.5-5.3-8.3-11.3-10.6-13.3c-11.6-10.2-29.9-14.1-68.8-14.8
		C1406.8,1555.1,1394.5,1555.3,1390.6,1555.9z"/>
	<path id="structure138_label148_me5" bar:growlevel="0" bar:type="" class="st24" d="M1409,1437.6c-0.5,3.4-1.4,11.6-1.8,18.3
		c-0.5,6.7-1.1,14.7-1.4,17.7c-0.6,6-0.4,6.5,3.5,4.7c2.1-0.9,2.2-1.6,2.8-10.4c0.3-5.3,0.5-15.6,0.5-23c0-10.8-0.3-13.3-1.3-13.3
		C1410.5,1431.6,1409.7,1433.5,1409,1437.6z"/>
	<path id="structure139_label149_4n" bar:growlevel="0" bar:type="" class="st15" d="M1800,1324.5c-4.8,1.5-7,4.8-7.4,11.1
		c-0.5,9,3.8,18.8,12.3,27.9c4.2,4.6,7.2,6,12.1,6c3.2,0,4.6-0.6,6.8-2.5c5.3-4.9,4.9-9.8-2.2-24.5c-4.7-9.8-7.8-14.7-10.7-16.6
		C1808.2,1324.1,1803.4,1323.5,1800,1324.5z"/>
	<path class="st7" d="M1252.9,2262.5c-9.3-8.6-20.9-12.7-41.7-15.1c-22.3-2.6-25.3-3.1-30.2-5.3c-2.7-1.2-6.3-3.6-8.1-5.4
		c-6-6-5.9-4.8-6.9-82c-1.1-84.7-1.1-152.2,0-173.4c0.9-17.1,3.1-30.3,6.8-40c1.3-3.2,2.3-6.8,2.3-8c0-2.9-2.3-2.8-4.1,0.2
		c-0.9,1.3-2.2,3.5-3,5c-0.8,1.6-2.5,3.7-3.9,4.7l-2.5,1.8l-1-0.7v327.2c10.3,0,20.6,0.7,36.1,2.1c30.9,2.9,64.8,4,64.8,2.3
		C1261.4,2272.9,1257.4,2266.5,1252.9,2262.5z"/>
	<path id="structure140_label150_4n" bar:growlevel="0" bar:type="" class="st15" d="M1410.2,1477.9c-6.7,2.9-8.9,13.7-4.2,19.4
		c2.6,3.1,7,5.3,10.4,5.3c3.2,0,9.2-3.4,10.9-6.2c2.2-3.6,2-10.5-0.3-14.3C1423.9,1477.1,1416.4,1475.2,1410.2,1477.9z"/>
	<path class="st25" d="M1223.7,1101.8c-14.3-25.2-27.8-50.3-31.7-59c-1.9-4.2-4.5-9-5.8-10.6c-5.2-6.5-15.9-10.7-25.7-10.9v51.6
		c3.2,0,6.4,1.5,8.6,4.5c3.2,4.1,4,8.7,5,29.3c1.2,20.9,2.4,28.4,6.2,36.4c3.4,7.3,20.3,27.5,22.9,27.5c0.6,0,6.7-9.2,13.3-20.5
		c15.8-26.6,16.9-28.4,16.9-29.8C1233.5,1119.6,1229.1,1111.3,1223.7,1101.8z"/>
	<path id="structure147_Unlabeled-2557-853_Unlabeled" bar:growlevel="0" bar:type="" class="st26" d="M1840.1,909.6
		c0,0.5-24.1,40-53.5,87.7c-29.4,47.7-53.6,87.3-53.6,88c0,0.6,1.8,2.3,4.1,3.7c7.8,4.9,12,12.2,9.5,16.7c-0.5,1-3,4.5-5.4,7.6
		c-5.3,7-8,13.8-9.3,23.7c-0.6,5.2-1.4,7.5-2.2,7.5c-1.7,0-1.6,1,1.3,11.3c3.4,11.6,7.1,29.5,7.8,37.9c0.5,5.8,0.8,6.6,2.5,6.6
		c1.5,0,2.4,1.4,4.9,7.9c6.1,16.4,19.6,42.7,21.7,42.3c1.3-0.3,19.9-33.3,19.9-35.6c0-1.4-0.8-1.3-6.1,0.7c-2.5,1.1-3.3,1-5.4-0.1
		c-7.7-4.4-14.6-25.7-14.6-45.9c0-17.7,4.2-32.9,15.1-54c3.7-7.2,8.6-16.8,11.1-21.4c6.7-13,6.8-19.6,0.5-22.1
		c-1.5-0.7-6.3-1.5-10.5-1.8c-13.4-1.1-19.7-2.3-22.3-4.6l-2.4-2.2l1.8-3.3c3.6-6.8,24-20.4,39.5-26.4c7.7-3,8.8-3.1,19-3.2
		c12.6,0,20.5,2.1,27.6,7.2c7.8,5.8,13.5,21.3,13.6,37.3c0.1,16.1-2.3,22.6-18.5,52.5c-9,16.5-10.5,20-10.1,22.2l0.6,2.6l13.2-0.1
		c11.2-0.1,14.1,0.2,19.1,1.8c16.6,5.4,30.8,19.6,49.1,49.2c14.5,23.4,20,36,41.4,94.9c27.4,75.8,41.7,106.6,63.5,137.8
		c24.3,34.7,58.4,61.6,89.5,70.7c11.2,3.2,26.4,3.5,36.7,0.6c18-5.1,35.9-17.8,51.5-36.4c4-4.8,7.7-8.6,8.4-8.6
		c0.6-0.1,1.1-0.6,1.1-1.3c0-0.7,1.4-3.4,3.2-6c11-16.3,18.8-40.2,22.5-68.8c2.1-16,2.1-50.3,0-67.5c-1.9-15.5-5.2-31.3-7.7-37
		c-1.1-2.3-1.9-5.4-1.9-6.8c0-2.1-4.1-7.6-18.8-25.8c-10.4-12.7-24.6-29.4-31.5-37.1c-6.9-7.7-12.7-14.7-12.7-15.5
		c0-0.9-1.2-2.2-2.6-2.7c-1.3-0.6-20.2-20-41.7-43c-45.4-48.7-45.7-49-45.7-50.2c0-0.5-0.6-1.1-1.3-1.3c-1.3-0.3-16.6-16.8-47-50.7
		c-13.4-14.9-27-28.4-43.3-42.7c-3.6-3.1-6.6-6.3-6.6-6.9c0-0.7-0.6-1.3-1.4-1.3c-0.7,0-6.8-4.4-13.2-9.7
		c-24.9-20.4-55.7-43.4-88.5-66.1C1844.4,909.7,1840.1,907.2,1840.1,909.6z"/>
	<path class="st26" d="M1182.2,1016.6c-5.6-18.7-6.7-38-3.2-55.6c0.7-3.7,1.2-6.9,0.9-7.1c-0.2-0.3-3.4,0.1-7.1,0.7
		c-2.9,0.5-7.5,0.7-12.3,0.7v66c5.7,0,11.4,1.5,17.5,4.6c2.9,1.4,5.6,2.6,6,2.6C1185.4,1028.4,1185.1,1026.2,1182.2,1016.6z"/>
	<path id="structure14_label7_RtTgP" bar:growlevel="0" bar:type="" class="st27" d="M1183.4,1926c-3.5,1.6-5.1,3.1-6.4,5.7
		c-2.9,5.8-6.6,17.4-6.3,19.9c0.3,2.3,0.7,2.4,7.5,3.5c13.5,2.1,46.3,12.4,74.3,23.4c32.9,13,68.6,33.8,90.3,52.8
		c11.3,10,17.4,18.2,19.1,25.5c1.2,5.6,4.1,2.8,5.3-5.1c0.8-4.7-1.7-19.5-5-29.3c-3.9-11.6-9.4-19.6-21.7-31.5
		c-17.2-16.7-39.1-31.9-63.6-44.3c-31-15.6-56.2-22.8-79.6-22.8C1189.4,1923.9,1187.3,1924.2,1183.4,1926z"/>
	<path id="structure150_Unlabeled-2570-1400_Unlabeled" bar:growlevel="0" bar:type="" class="st26" d="M1849.6,1402.7
		c-11.2,5.1-12.8,15.6-6.3,41.4c7.6,29.8,17.8,48.6,28.9,52.8c3.9,1.4,4.3,1.4,9,0c6-1.9,11.2-6.8,12.8-11.9
		c0.5-2.1,1.1-7.2,1.1-11.5c0-6.3,0.3-7.7,1.4-7.7c0.7,0,1.3-0.3,1.3-0.5c0-0.4-2.6-8.6-5.8-18.3c-3.2-9.7-6.8-21.2-8.1-25.6
		c-2-6.6-2.6-7.8-4.2-7.8c-1.1,0-3.7-1.9-6.2-4.5C1865.9,1401.3,1857.5,1399.1,1849.6,1402.7z"/>
	<path id="structure152_Unlabeled-2096-1508_Unlabeled" bar:growlevel="0" bar:type="" class="st26" d="M1426.1,1498.1
		c0,1.2-7.4,4.6-10,4.6c-1.3,0-3.9-0.8-5.8-1.8c-5.1-2.6-5.8-2-5.8,5.1c-0.1,12.1-2,19.1-8.2,30c-3.2,5.4-7.4,11.9-9.6,14.3
		c-2.2,2.4-3.9,4.9-3.9,5.5c0,0.7,2,0.8,7,0.3c11.3-1.2,45.3-0.6,58.2,1c11.9,1.4,21.5,3.6,27.8,6.2c6.9,3,7.5,1.8,2.6-5.5
		c-7.1-10.8-8.6-21-4.2-29.8c2.3-4.6,8.2-10,10.9-10c0.6,0,1.2-0.6,1.2-1.2c0-0.8-3.6-1.6-11.9-2.8c-21.3-2.9-38-8.3-43.6-14.1
		C1428.5,1497.4,1426.1,1496.5,1426.1,1498.1z"/>
	<path id="structure153_Unlabeled-1813-1576_Unlabeled" bar:growlevel="0" bar:type="" class="st26" d="M1170.6,1559.5
		c-2.2,12.2-3,33.1-2,54.3c1.3,26.4,1.8,31.1,3.3,31.1c0.7,0,1.3-0.6,1.3-1.4c0-2,2.8-3.1,10.9-4c25.5-3,85.5-11.7,104.7-15.1
		l13.3-2.4l-0.5-14.9c-0.2-8.7-0.8-16.1-1.5-18c-3.1-8.6-9.8-12.8-23.2-14.5c-9.5-1.2-12.8-3.1-14.8-8.5c-0.5-1.7-1.6-3.1-2.2-3.1
		c-0.6,0-2.4,2.4-4.1,5.5c-7.5,13.9-23.3,21.9-43.6,21.9c-9.3,0-10.3-0.2-16-2.9c-11.9-5.7-20.6-16.8-21.9-28.3
		C1173.7,1552.2,1171.9,1552.3,1170.6,1559.5z"/>
	<path id="structure155_Unlabeled-2193-1631_Unlabeled" bar:growlevel="0" bar:type="" class="st26" d="M1511.5,1611.7
		c-3.3,8-16.1,24.8-27.3,35.8c-3.2,3.2-5.9,6.2-5.9,6.8c0,1.8,42.4,19.1,66.1,27.1c7.5,2.5,11.8,4.4,12,5.3c0.3,1-0.6,1.3-3.3,1.3
		c-2,0-8,0.6-13.3,1.4s-13.8,1.7-18.7,2.3c-5,0.5-19.3,2.4-32,4.2c-21.6,3-23.9,3.2-38.7,2.6c-17.7-0.6-31.8-2-32.2-3.2
		c-0.2-0.5-2.2-0.5-4.5-0.3c-7.7,0.9-43.4-4.4-43.4-6.5c0-0.7-2.2-1.3-5.7-1.6c-3.1-0.3-9.2-1.8-13.5-3.4
		c-16.1-5.8-41-25.3-46.5-36.4c-1.3-2.5-2.3-4.7-2.4-4.8c-0.1-0.2-6.8,2.5-14.8,5.9c-8.1,3.4-18.8,7.7-23.8,9.3
		c-5,1.7-9.2,3.4-9.2,4c0,0.4,1.8,2.1,4.1,3.5c16.7,10.6,15.5,38.6-2.3,52.2c-4.9,3.7-14.6,8.7-20.4,10.6c-4.4,1.3-4.5,1.8-2.4,8.9
		c0.8,2.7,3.1,10.9,4.9,18.4c3.7,14.8,5.1,16.9,6.9,10.1c0.7-2.6,2.3-4.9,4.3-6.8c2.9-2.5,3.8-2.8,9.3-2.8c7.8,0,13.3,2.6,15.9,7.4
		c1,1.9,2.2,3.4,2.6,3.4c0.4,0,2.9-1.5,5.4-3.4c19-14.2,49.5-25.4,86.2-31.4c11.9-2,54.7-2.3,66.4-0.4c21.6,3.3,39,8.6,50.4,15.5
		c8,4.7,15.7,12.5,18.1,18.6c1.2,2.7,2.4,4.9,3,4.9c0.5,0,2-1.9,3.2-4.1c6.8-12.8,19.3-18.9,41.9-20.6l8.3-0.6l1.9-9.1
		c1.4-7.1,7.3-43.7,7.3-46c0-0.2,2.1-0.8,4.7-1.4c8.6-1.9,8.9-3.6,2.1-10.8c-2.7-2.9-5-5.8-5-6.7c0-1-0.7-1.5-1.9-1.5
		c-1.1,0-4.4-2.4-7.7-5.7c-6.3-5.8-27.6-31.1-39-45.8c-3.7-4.9-7.4-8.8-8.2-8.8C1513.4,1608.9,1512.2,1610.1,1511.5,1611.7z"/>
	<path id="structure158_Unlabeled-2198-1861_Unlabeled" bar:growlevel="0" bar:type="" class="st26" d="M1516.7,1821.4
		c0.7,10.6-1.3,36.7-3.9,51.9c-5,29.8-13.1,54.1-25.8,77c-14,25.5-24.8,34-50.7,40.6c-26.3,6.6-51.9,10.3-72.5,10.3
		c-6.7,0-11.5,0.4-11.5,0.8c0,0.5,1.6,3.4,3.5,6.6c2,3.1,4.9,9.4,6.4,14c3.1,9.2,5.8,25.1,4.9,28.6c-0.6,2-0.3,2.3,2.1,2.3
		c7.7,0,17.6,5.6,27.7,15.8c3.4,3.5,15.6,17.1,26.9,30.1c22.4,25.9,33.6,37.8,35.6,37.8c1,0,1.1-0.9,0.6-4.3c-4-30-1.2-49.4,10.9-75
		l4-8.7l-2-2c-2.8-2.8-6.9-12.1-7.7-16.9c-1.6-12,5.5-28,32.2-72.2c14.9-24.5,24.5-38.2,29.3-41.8c7.7-5.6,15.7-7.3,21.9-4.7
		c4.1,1.8,9.3,7.8,11.2,13.1c0.9,2.5,2,4.6,2.5,4.6c1.9,0,11.3-12.4,11.3-14.8c0-1.3,2.3-6.7,5.3-12c7.5-13.7,13.6-26,13.6-27.6
		c0-2.1-1.6-1.6-5.4,1.3c-8.8,6.9-23.6,10.9-33.2,8.9c-4.1-0.8-5.8-1.7-9.2-5.3c-2.5-2.5-5-6.4-6.3-9.5c-1.9-4.8-2.2-6.7-2.1-17.9
		c0.1-11.2,0.6-16.3,2.6-26.1c0.5-2.7,0.4-2.7-6-4.8c-3.6-1.2-8.4-3.2-10.8-4.7c-2.4-1.5-4.7-2.7-5.1-2.7
		S1516.6,1817.4,1516.7,1821.4z"/>
	<path id="structure16_label10_VTg" bar:growlevel="0" bar:type="" class="st28" d="M1235.1,1663.3c-17.5,3-32,11.2-38.1,21.4
		c-4.5,7.9-4.9,22.7-0.6,31c2.4,4.9,8.3,9.7,14.4,12.1c4.3,1.6,6.4,1.8,14,1.4c7.6-0.4,10.1-0.9,15.8-3.3
		c13.3-5.8,21.6-12.6,25.6-21c7.5-16.1,4.3-31.9-8.1-40.1c-3.8-2.5-4.9-2.9-10.2-2.8C1244.8,1662.1,1238.9,1662.7,1235.1,1663.3z"/>
	<path id="structure17_label11_A7" bar:growlevel="0" bar:type="" class="st29" d="M1545.4,1745.8c-22.2,2.3-33.8,11.2-39.8,30.2
		c-5.1,16.4-0.3,29.6,14.5,39.3c5,3.3,15.5,7.7,18.3,7.7c1,0,2.6-2.3,4.7-6.5c4-8.4,12.8-17.7,19.6-21.2c4.3-2.2,6.3-2.5,12.3-2.5
		c6.3,0,8,0.4,13.4,3c14.4,6.8,21.2,15.1,23.5,28.3c0.3,1.9,1,3.4,1.6,3.4s2.9-4.6,5-10.2c5.1-13,18.1-51,18.1-52.8
		c0-2-5.9-7.6-10.4-9.7c-10.1-5-23.8-7.7-44.4-9.2C1566.9,1744.7,1555.6,1744.7,1545.4,1745.8z"/>
	<path id="structure18_label12_VLL" bar:growlevel="0" bar:type="" class="st30" d="M1608.7,1893.6c-12.4,5-25.2,13.9-35.9,24.8
		c-5.4,5.5-8.3,9.6-14.3,20.3c-17.3,30.7-33.8,53.1-52.9,71.6c-12.2,11.8-21.9,23.9-21.9,27.3c0,3,3.6,4.9,10.5,5.6
		c4.2,0.4,6.6,0.1,12.1-1.8c13.7-4.6,31.4-2.2,39.6,5.5c2.3,2.2,2.6,2.2,7.1,1.3c24-5.2,52.3-38.2,63.8-74.3
		c4.1-12.9,9.6-34.6,11.3-44.3c1.5-9.4,2.2-25.1,1.1-30.1c-0.4-1.8-1.6-4.3-2.9-5.7c-1.9-2-2.9-2.3-7.4-2.3
		C1615.6,1891.5,1612,1892.3,1608.7,1893.6z"/>
	<path id="structure19_label13_MVPO" bar:growlevel="0" bar:type="" class="st31" d="M1507.6,2041c-8.8,2.5-17.8,11.3-20.9,20.2
		c-2.4,6.8-2.1,20.9,0.5,27.6c4.1,10.8,15.8,19.7,27.6,21.3c6.8,1,14.8-0.2,18.8-2.6c11.3-7,20.3-27.1,19-42.7
		c-1-12.9-7.7-21.5-18.6-23.8C1528.7,2039.8,1511.4,2039.8,1507.6,2041z"/>
	<path id="structure21_label15_PLV" bar:growlevel="0" bar:type="" class="st32" d="M1534.7,1911.7c-7.2,2.7-12,7.3-20.3,19.6
		c-15.6,23-39.7,64.6-45.1,77.5c-3.7,8.9-5,17.1-3.8,23.2c1.2,5.6,6.4,15.5,8.5,15.8c0.9,0.2,3.2-2.5,6.5-7.6
		c8.3-12.7,12.7-17.9,26.2-31.3c14-13.9,23.8-25.8,34-41.2c7.7-11.7,21.2-34.9,21.2-36.4c0-0.5-0.9-3.3-1.9-6.1
		c-2.3-5.9-7.2-11.8-11.3-13.6C1545.1,1910,1539.1,1910.1,1534.7,1911.7z"/>
	<path id="structure23_label17_DTgP" bar:growlevel="0" bar:type="" class="st33" d="M1213.2,1501.9c-5.7,1.4-18,10.3-24,17.4
		c-3,3.6-7.3,10.3-9.9,15.7l-4.7,9.4v9.5c0,9,0.2,10,2.9,15.5c3.7,7.5,10.9,14.3,18.9,18.2c5.8,2.7,6.8,2.9,16,2.9
		c10.9,0,17.9-1.5,26.1-5.5c15-7.4,24-23.6,22.6-40.5c-0.9-10.9-7.3-25.6-14.7-33.8C1239.6,1503.2,1224.8,1499.2,1213.2,1501.9z"/>
	<path id="structure24_label18_LDTg" bar:growlevel="0" bar:type="" class="st9" d="M1286,1476.1c-15.9,3.4-34.1,17-38.5,28.8
		l-1.6,4.1l3.6,5.2c4.9,6.9,7.8,12.9,10.2,20.8c1.8,5.8,2,7.9,1.5,17.1c-0.4,8.9-0.3,11.1,1.1,14.1c2.6,5.7,5.1,7.2,14.7,8.4
		c13.3,1.7,20.1,5.8,23.2,14.5c0.6,1.8,1.4,9.3,1.6,17.3l0.4,14.2h2.3c3.7,0,15.6-3.6,19.5-5.8c3.1-1.8,3.9-3,6.2-9.2
		c5.5-15.3,12.2-23.4,29.8-35.8c4.7-3.3,8.5-6.3,8.5-6.6c0-0.3-2.2-8.6-4.9-18.5c-2.7-10-5.7-21.8-6.8-26.2
		c-3.9-16.4-11-26.1-24-32.7c-9.8-4.9-18.9-8.1-28-9.6C1295.7,1474.5,1293.4,1474.5,1286,1476.1z"/>
	<path id="structure25_label19_SPTg" bar:growlevel="0" bar:type="" class="st34" d="M1382.9,1610c0,0.6,0.6,3.2,1.4,5.7
		c3.6,12.3,6.2,38.1,4.9,49.7c-1.4,12.2-7,20.1-15.4,21.4c-1.9,0.4-3.4,1.1-3.4,1.7c0,1.3,17.9,4.6,33.2,6.1l10.3,1l11.3-5.8
		c19.1-9.8,49.6-31.3,49.6-34.9c0-1.1-3.2-2.9-11.1-6.5c-13.3-5.8-56.9-27.6-69.8-34.6C1384.1,1608.6,1382.9,1608.1,1382.9,1610z"/>
	<path id="structure26_label20_PTg" bar:growlevel="0" bar:type="" class="st35" d="M1468,1662c-14,11.3-33.1,23.7-45.7,29.8
		c-7.9,3.8-6.2,4.5,15,6.2c18.8,1.5,28.5,1.1,52.4-2.2c12.2-1.7,26.4-3.6,31.3-4.1c4.9-0.5,13.4-1.5,18.7-2.3
		c5.3-0.7,11.3-1.3,13.3-1.3c2.8,0,3.6-0.3,3.3-1.3c-0.2-0.9-4.5-2.8-12-5.3c-15.5-5.2-32.1-11.6-50.2-19.3
		c-8.2-3.5-15.7-6.4-16.6-6.4C1476.7,1655.7,1472.4,1658.5,1468,1662z"/>
	<path id="structure27_label21_MPL" bar:growlevel="0" bar:type="" class="st36" d="M1734,1294c-3.1,7.9-11.2,24-16.4,32.4
		c-23.4,37.7-58.5,62.5-103.9,73.2c-21.5,5.1-50.9,7.2-69.8,5c-42.5-4.9-86.6-28.7-139.7-75.3c-8.9-7.7-13.1-10.3-12.2-7.4
		c0.2,0.6,2,6.4,4,12.9c2.1,6.4,4.6,14.6,5.6,18.1l1.9,6.3l4.7,1.5c2.6,0.8,7.8,3.1,11.6,5c6.5,3.2,10.9,5.9,33.7,20.5
		c24.7,15.8,55.3,26.2,102.2,35c13.7,2.5,21.8,3.5,37.4,4.3c22.2,1.3,23.7,1.7,26.1,7.6c1.8,4.3,1.1,12.5-2.1,23.2
		c-3.4,12-7.7,19.4-16.1,27.9c-6.7,6.8-8.2,7.7-20.3,13.6c-14.6,7.1-28.1,12.5-39.8,16.1c-4.4,1.3-7.9,2.9-7.9,3.4
		c0,0.6,2.2,1.8,4.8,2.7c10.4,3.5,18.4,11,22.3,21c2,4.9,2.2,6.6,2.3,28.2c0.2,28.4,0.5,32.9,3.9,61.7c1.5,12.9,3.1,27.3,3.6,32.1
		l0.7,8.8l5,5.3c6.9,7.3,6.7,9-2,10.9c-2.6,0.5-4.7,1.3-4.7,1.5c0,2.4-6.5,42.4-7.6,47.3c-0.8,3.4-1.4,6.5-1.4,7
		c0,0.4,4,0.8,9.3,0.8c26.6,0,50.2,4.9,61.4,12.7c5.2,3.7,6.3,4,7.1,2.7c1.6-2.5,2.4-19.7,1.5-29.6c-1.7-17.3-3.9-26-14.5-60
		c-9.8-31.1-13.7-59.4-14.9-109.4c-0.6-22.8,0.3-33.2,4.2-48.2c7.7-29.3,28.2-48.1,52.5-48.1c13.1,0,28.3,5.4,40.1,14.3
		c8,6,8.3,5.6,4.4-6.7c-3-9.4-3-29.1,0-40.5c4.6-17.6,14-35.8,23.7-45.6l5.4-5.7l1.3-10.4c4.9-40.9,4.9-45.9,0.4-59.9
		c-1.5-4.9-3.1-11.9-3.3-15.5c-0.4-3.9-0.9-6.5-1.5-6.5C1736.6,1288.5,1735.2,1291,1734,1294z"/>
	<path id="structure28_label22_PTg" bar:growlevel="0" bar:type="" class="st35" d="M1495,1515.8c-1,0.2-3.9,0.8-6.5,1.3
		c-6.5,1.3-11.3,5-14.2,11.1c-2.2,4.3-2.4,5.8-2.2,11.5c0.5,8.3,3.1,13.9,11.8,25.1c3.5,4.5,10,13.5,14.5,20.1
		c24.6,35.6,65.2,84.2,70.3,84.2c2,0,2.3,3.1-3.7-46.3c-2.1-17-2.4-23.8-2.5-47.7c-0.2-25.8-0.3-28.3-2.1-33.1
		c-2.1-5.8-6.8-12.8-10.7-15.6c-8.8-6.6-22.5-10.2-40.3-10.7C1502.4,1515.5,1495.9,1515.5,1495,1515.8z"/>
	<path id="structure29_label23_CnFD" bar:growlevel="0" bar:type="" class="st37" d="M1404.5,1361.8c0,0.8,0.8,4.6,1.7,8.4
		c4.4,17.4,6.9,50.9,6.5,85.4l-0.3,20.1h2.5c1.4,0,4.4,0.8,6.6,1.8c5.1,2.3,5.7,2.3,8-0.9c2.1-2.8,6.8-5.6,11.3-6.7
		c2.1-0.4,29.3,2.6,38.9,4.5c1.5,0.3,30.1,0.8,63.5,1.2c33.4,0.4,61.6,1,62.5,1.3c1.4,0.6,2.3-0.2,4.6-4.1
		c5.7-9.5,9.4-22.9,9.4-33.4c-0.1-11.4-1.7-12.2-25.6-13.2c-20.4-0.8-40-3.9-69.6-11.3c-32.1-7.9-52.6-16.5-76.1-31.8
		c-17.6-11.4-23.1-14.7-31.3-18.5C1408.6,1360.6,1404.5,1359.7,1404.5,1361.8z"/>
	<path class="st22" d="M1406.9,1433.9c2.9,0.8,3.9-3.7,3.9-18.3c0-17.9-2.5-39.9-4.5-39.9c-0.5,0-22.7-3.1-49.5-6.8
		c-26.8-3.7-49.9-6.8-51.4-6.8c-2.6,0-2.6,0.1-2.6,5.1c-0.1,15.8-7.8,32.4-22.3,48.1c-5.7,6.1-39,36-55.1,49.4
		c-26.9,22.5-51.1,37.3-62.3,38.3c-0.8,0.1-1.7,0.1-2.6,0.1v8.6c7.7,0,15.5-2.7,22.9-8.4c7.7-5.8,9.3-6.8,15.3-8.9
		c8.9-3.3,14.1-2.1,14.1,3.6c0,2.3,0,2.3,9.4,2.7c8.6,0.4,10,0.7,16.2,3.8c3.8,1.9,7,3.2,7.1,3.1c0.2-0.1,1.2-2.2,2.3-4.5
		c5.3-11.2,21.6-23.2,37.2-27.4c10.4-2.7,25.2-0.5,41,6.2c9.9,4.2,15.6,8,20.3,13.4c5.9,6.8,8.2,12.4,13.6,33.3
		c7.1,28.1,8.8,34,9.6,34c2.1,0,13-7.9,16.6-12.2c5.6-6.2,15.2-23,16.5-28.8c0.5-2.4,1.4-8.9,1.8-14.4c0.6-8.2,0.5-10.6-0.7-14.1
		c-1.3-3.9-1.3-4.5,0.1-9.1c0.9-2.8,1.5-7.7,1.5-11.7c0-6.3-0.2-6.9-1.8-6.9c-2.1,0-3.9-2.9-3.1-4.9c0.4-0.8,1.7-1.7,3.1-2
		c2.2-0.4,2.6-1,2.6-3.2c0-2.4-0.2-2.6-3.2-2.3c-3.9,0.4-5.9-1.8-4.3-4.5c1.4-2.1,3.4-2.3,5.1-0.6c1.9,1.8,3.3,1.7,3.3-0.4
		c0-0.9,0.3-3,0.5-4.5c0.5-2.5,0.4-2.8-1.6-2.8c-2.5,0-4.3-1.5-4.3-3.8C1401.8,1434.8,1404.5,1433.3,1406.9,1433.9z M1398.7,1501.1
		c-1.5,0.6-5-1.7-5-3.3c0-3,4.3-4.3,6.3-1.9C1401.3,1497.4,1400.5,1500.5,1398.7,1501.1z M1399.2,1474.8c3.1,1.7,1.6,6.3-2.1,6.3
		c-1.4,0-3.4-2.4-3.4-3.9c0-0.6,2.7-3.2,3.2-3.2C1397.2,1473.9,1398.2,1474.3,1399.2,1474.8z"/>
	<path class="st38" d="M1269.1,1316.9c-5.5-23.3-26.5-40-59.5-46.9c-12.9-2.8-31-4.3-49.1-4.4v127.5c15.3,0,30.7-1.6,43.5-4.9
		c32.3-8.2,56.4-25.7,63.9-46.5C1270.5,1334.7,1270.9,1324.6,1269.1,1316.9z"/>
	<path class="st39" d="M1279.9,1297c-6.5-11.3-9.5-18.4-14.8-35.6c-2.1-6.7-5.1-15-6.7-18.4c-5.9-12.9-20.2-31.7-41.1-54.4
		c-29.5-32.1-35.4-39.2-38.3-45.8c-3.5-7.9-4.7-14.9-5.7-33.4c-1.2-23.9-2.1-28.7-5.7-32.2c-2.5-2.4-4.7-3.4-7-3.3v191.5
		c14.8,0.2,30.8,0.9,37,1.9c26.4,4,44.4,11.8,57.1,24.3c10.5,10.4,15.9,22.1,16,35.1c0.1,13-4.9,23.8-16,35.2
		c-18.7,19.1-50.2,30.4-88.2,31.6c-2,0.1-4,0-5.9,0v108.8c1.5,0.1,2.8,0,4.1-0.2c11-1.6,39-19.6,64.3-41.3
		c33.4-28.6,51.8-45.9,59.1-55.7c9.1-12.2,12.6-22.1,13.5-38.5C1302.7,1345.5,1296.6,1325.8,1279.9,1297z"/>
	<path id="structure33_label27_ILL" bar:growlevel="0" bar:type="" class="st40" d="M1712.9,1626c-13.7,3.4-46.4,27.7-59.9,44.6
		c-7.1,8.7-9.4,14.8-9.4,24.7c-0.1,12.4,4.2,19.9,16.1,27.9c12,8.1,16.5,14.8,19.9,29.6c1.8,8.3,4.3,10.9,10.3,10.9
		c5.4,0,7.8-0.9,12.1-4.6c9.1-8,37.7-58.2,44-77.1c5.9-17.8,4-34.1-5.2-45.4C1734.2,1628.4,1721.9,1623.8,1712.9,1626z"/>
	<path id="structure34_label29_L" bar:growlevel="0" bar:type="" class="st41" d="M1735.7,1511.1c0,0.7,2.1,4.7,4.7,8.8
		c9.4,15.1,14.2,29.2,14.2,41.3c0,10.5-5.7,26.7-14,40.1c-4.1,6.7-14.6,17.2-19.3,19.7c-3.3,1.7-3.6,4.1-0.5,4.1
		c1.2,0,4.4,0.8,7.1,1.9c13.5,5,23,21.8,21.9,38.6c-0.8,12.3-7.2,28-22.7,55.8c-11.9,21.2-22.4,36.6-27.4,39.7
		c-9.4,6-17.4,3.8-19.9-5.6c-4.2-15.8-5.4-18.6-9.4-23.1c-2.3-2.5-6.8-6.4-10.2-8.6c-11.6-7.7-16.5-15.3-17.1-26.8
		c-0.6-9,1.8-16.2,7.9-24.3c7.8-10.4,25.5-26,40.7-35.8c4.3-2.8,7.8-5.5,7.9-6c0-0.6-2.7-1.3-6.8-1.6c-18.2-1.6-37.4-10.3-51.5-23.4
		c-10.4-9.6-21.2-25.6-26.2-39c-4.7-12.5-5.6-8-3.8,20c2.4,37.5,5.9,59.1,14,84.2c11,34.5,13.9,47,14.6,64.5
		c0.6,15.1-0.4,22-6.2,39.9c-14,42.8-33.9,89.4-54.7,126.9c-7.8,14.1-7.3,15.8,2.6,7.7c3.2-2.7,9.5-7.1,13.9-9.9
		c16.9-10.6,28.3-12.1,32.7-4c2.6,4.9,2.2,24.8-1,39.6c-3.3,15.6-10.7,40.9-14.7,50.2c-13.5,31.5-39.7,58.8-60,62.6
		c-3.8,0.7-3.9,1.1-1.3,7.6c6.2,16.5-3.4,43-18.9,52.1c-3.7,2.2-5,2.4-12.2,2.4c-6.3-0.1-9.3-0.5-13.3-2.2
		c-7.3-2.9-15.1-10.3-18.8-17.9c-2.8-5.8-3-6.5-3-16.4c0-9.4,0.3-10.9,2.4-15.5c1.3-2.8,4.1-6.8,6-9.1c2.1-2.2,3.7-4.4,3.7-5.1
		c0-0.5-1.3-1-3-1c-1.7,0-5-1-7.5-2.3c-2.4-1.3-4.7-2.3-4.9-2.3c-1.5,0-11,17.7-15.2,28.4c-8.3,21-10.7,46.9-6.2,66.5
		c3,12.8,20.9,20.4,38.8,16.7c6-1.3,9.5-3.1,21.9-11.2c49.6-32.3,88.4-84.2,110.2-147.6c5.8-16.6,9.8-31.9,14-53
		c3.4-17.2,8.5-33.6,15.3-49.6c2.3-5.5,14-29.3,26.1-53.2c12.1-23.8,23.6-47.3,25.7-52.2c5.8-13.7,9.5-20.5,13-24.2
		c1.7-1.9,3.1-3.6,3.1-3.8c0-0.7,18.6-49.6,23.6-62.2c2.4-6.1,6.4-15.5,8.7-20.7c4.4-9.5,4.4-9.8,5.5-23.1
		c1.5-20.3,4.1-45.4,8.1-77.4c1.9-15.8,3.7-32.2,3.8-36.3l0.3-7.6l-9.5-3.3c-10.2-3.7-20.7-8.6-26.7-12.8
		C1738.2,1509.6,1735.7,1509.1,1735.7,1511.1z"/>
	<path id="structure35_label30_L" bar:growlevel="0" bar:type="" class="st41" d="M1735.7,1511.1c0,0.7,2.1,4.7,4.7,8.8
		c9.4,15.1,14.2,29.2,14.2,41.3c0,10.5-5.7,26.7-14,40.1c-4.1,6.7-14.6,17.2-19.3,19.7c-3.3,1.7-3.6,4.1-0.5,4.1
		c1.2,0,4.4,0.8,7.1,1.9c13.5,5,23,21.8,21.9,38.6c-0.8,12.3-7.2,28-22.7,55.8c-11.9,21.2-22.4,36.6-27.4,39.7
		c-9.4,6-17.4,3.8-19.9-5.6c-4.2-15.8-5.4-18.6-9.4-23.1c-2.3-2.5-6.8-6.4-10.2-8.6c-11.6-7.7-16.5-15.3-17.1-26.8
		c-0.6-9,1.8-16.2,7.9-24.3c7.8-10.4,25.5-26,40.7-35.8c4.3-2.8,7.8-5.5,7.9-6c0-0.6-2.7-1.3-6.8-1.6c-18.2-1.6-37.4-10.3-51.5-23.4
		c-10.4-9.6-21.2-25.6-26.2-39c-4.7-12.5-5.6-8-3.8,20c2.4,37.5,5.9,59.1,14,84.2c11,34.5,13.9,47,14.6,64.5
		c0.6,15.1-0.4,22-6.2,39.9c-14,42.8-33.9,89.4-54.7,126.9c-7.8,14.1-7.3,15.8,2.6,7.7c3.2-2.7,9.5-7.1,13.9-9.9
		c16.9-10.6,28.3-12.1,32.7-4c2.6,4.9,2.2,24.8-1,39.6c-3.3,15.6-10.7,40.9-14.7,50.2c-13.5,31.5-39.7,58.8-60,62.6
		c-3.8,0.7-3.9,1.1-1.3,7.6c6.2,16.5-3.4,43-18.9,52.1c-3.7,2.2-5,2.4-12.2,2.4c-6.3-0.1-9.3-0.5-13.3-2.2
		c-7.3-2.9-15.1-10.3-18.8-17.9c-2.8-5.8-3-6.5-3-16.4c0-9.4,0.3-10.9,2.4-15.5c1.3-2.8,4.1-6.8,6-9.1c2.1-2.2,3.7-4.4,3.7-5.1
		c0-0.5-1.3-1-3-1c-1.7,0-5-1-7.5-2.3c-2.4-1.3-4.7-2.3-4.9-2.3c-1.5,0-11,17.7-15.2,28.4c-8.3,21-10.7,46.9-6.2,66.5
		c3,12.8,20.9,20.4,38.8,16.7c6-1.3,9.5-3.1,21.9-11.2c49.6-32.3,88.4-84.2,110.2-147.6c5.8-16.6,9.8-31.9,14-53
		c3.4-17.2,8.5-33.6,15.3-49.6c2.3-5.5,14-29.3,26.1-53.2c12.1-23.8,23.6-47.3,25.7-52.2c5.8-13.7,9.5-20.5,13-24.2
		c1.7-1.9,3.1-3.6,3.1-3.8c0-0.7,18.6-49.6,23.6-62.2c2.4-6.1,6.4-15.5,8.7-20.7c4.4-9.5,4.4-9.8,5.5-23.1
		c1.5-20.3,4.1-45.4,8.1-77.4c1.9-15.8,3.7-32.2,3.8-36.3l0.3-7.6l-9.5-3.3c-10.2-3.7-20.7-8.6-26.7-12.8
		C1738.2,1509.6,1735.7,1509.1,1735.7,1511.1z"/>
	<path id="structure36_label31_DLL" bar:growlevel="0" bar:type="" class="st42" d="M1658.3,1465.8c-18.6,3.2-34.5,19-42.2,42
		c-3,8.7-5.5,24.9-5.5,35c0,10.9,2.3,19.3,8.7,32.3c10.8,21.7,24.1,35.4,43.8,45c13.6,6.6,19.3,8,32.5,8.1h10.8l8.5-4.2
		c17.3-8.5,29.1-23.6,36.5-46.6c3-9.3,3.3-21.3,0.9-30.6c-4.4-17.5-25.6-50-41.5-64.1C1695.9,1469.5,1675.2,1462.9,1658.3,1465.8z"
		/>
	<path id="structure37_label32_Sag" bar:growlevel="0" bar:type="" class="st43" d="M1734.2,1387.2c-10.4,11.1-20.8,33.4-23.7,50.7
		c-1.5,9.1-1.3,24.3,0.4,31.7c5.9,25.6,26.2,44.6,59,55.7c4.2,1.4,8,2.6,8.4,2.6c1.2,0-0.1-12.9-2.1-21.6
		c-2.7-11.6-7.6-22.4-21.9-47.5c-5.4-9.6-10.1-20.6-12.5-29.3c-1.8-6.7-2-9.2-1.8-26.6C1740.1,1381.4,1740,1381,1734.2,1387.2z"/>
	<path id="structure38_label33_MEnt" bar:growlevel="0" bar:type="" class="st44" d="M1797.4,1198.9c-14.8,27.1-27.4,50.1-27.8,51.3
		c-0.7,1.8,0.2,3.7,6.9,13.7c19.2,28.5,47.3,58.1,69.2,73c12.1,8.2,18.3,16.8,23.5,33c1.3,4,5.4,18.1,9.1,31.5
		c11.3,40.9,17.9,60.4,29.9,88.4c29.8,69.7,66,119.3,100.4,137.9c11.6,6.3,31.1,12.5,49.8,15.8c11,2,40.1,2.8,51.5,1.4
		c29.8-3.7,54.5-14.3,73.8-31.8c21.5-19.4,39.2-43.8,60-82.3c4.3-8,7.7-15.1,7.6-15.8c-0.5-2-50.8-52.8-52.2-52.7
		c-0.6,0-4.4,3.9-8.4,8.6c-15.6,18.6-33.5,31.3-51.5,36.4c-10.4,3-25.6,2.7-36.7-0.6c-31.1-9.2-65.2-36.1-89.5-70.7
		c-21.9-31.2-36.1-62-63.5-137.8c-7.3-20-15.3-41.4-17.7-47.6c-16.2-40.9-42.5-80-61.5-91.4c-9-5.4-15.5-7-27.9-7
		c-5.9,0-11.8,0.3-12.9,0.6c-1.7,0.5-2.3,0.4-2.6-1.2c-0.3-1.1-0.9-1.9-1.5-1.9C1824.8,1149.9,1812.2,1171.9,1797.4,1198.9z"/>
	<path id="structure39_label34_CEnt" bar:growlevel="0" bar:type="" class="st45" d="M1797.4,1198.9c-14.8,27.1-27.4,50.1-27.8,51.3
		c-0.7,1.8,0.2,3.7,6.9,13.7c19.2,28.5,47.3,58.1,69.2,73c12.1,8.2,18.3,16.8,23.5,33c1.3,4,5.4,18.1,9.1,31.5
		c11.3,40.9,17.9,60.4,29.9,88.4c29.8,69.7,66,119.3,100.4,137.9c11.6,6.3,31.1,12.5,49.8,15.8c11,2,40.1,2.8,51.5,1.4
		c29.8-3.7,54.5-14.3,73.8-31.8c21.5-19.4,39.2-43.8,60-82.3c4.3-8,7.7-15.1,7.6-15.8c-0.5-2-50.8-52.8-52.2-52.7
		c-0.6,0-4.4,3.9-8.4,8.6c-15.6,18.6-33.5,31.3-51.5,36.4c-10.4,3-25.6,2.7-36.7-0.6c-31.1-9.2-65.2-36.1-89.5-70.7
		c-21.9-31.2-36.1-62-63.5-137.8c-7.3-20-15.3-41.4-17.7-47.6c-16.2-40.9-42.5-80-61.5-91.4c-9-5.4-15.5-7-27.9-7
		c-5.9,0-11.8,0.3-12.9,0.6c-1.7,0.5-2.3,0.4-2.6-1.2c-0.3-1.1-0.9-1.9-1.5-1.9C1824.8,1149.9,1812.2,1171.9,1797.4,1198.9z"/>
	<path id="structure40_label35_DLEnt" bar:growlevel="0" bar:type="" class="st46" d="M2216.3,1276.1c0,0.7,0.8,3.2,1.9,5.5
		c7.7,17.6,11.8,72.6,7.6,104.5c-3.7,28.5-11.5,52.5-22.5,68.8c-1.8,2.6-3.2,5.1-3.2,5.7c0,1.5,50.9,53,52.1,52.7
		c1.7-0.4,23.1-42.7,27.9-55.2c4.8-12.4,8.2-25.7,11.3-43.5c2.8-16.7,3-26.4,0.5-44.6c-1-7.5-1.5-15.6-1.3-18l0.4-4.6l-9.2-7.7
		c-12.3-10.2-40.4-38.2-53-52.6C2219.2,1275.9,2216.3,1273.3,2216.3,1276.1z"/>
	<path id="structure41_label36_PRh" bar:growlevel="0" bar:type="" class="st47" d="M2153.3,1196.8c0,0.6,5.8,7.5,12.7,15.1
		c6.9,7.7,21.9,25.3,33.1,39.2c31.8,39,46.9,55.7,68.9,76c16.2,15,21,19,22.5,19c0.6,0,2-2.6,3.1-6.2c2.8-9.1,9.1-21,16.2-30.4
		c9.8-13.1,11.8-21.7,11.8-51.8v-16.9h-2.7c-13.9,0-95.3-22.1-152.6-41.4C2154.7,1195.5,2153.3,1195.2,2153.3,1196.8z"/>
	<path id="structure42_label37_Ect" bar:growlevel="0" bar:type="" class="st48" d="M2150.2,1019.7c-47,43.2-85.9,79.2-86.3,80
		c-1.1,1.7-4.5-2.2,45.2,51l39.1,41.8l9.6,3.4c12,4.3,51.8,16.9,74.3,23.6c31.3,9.3,80.9,21.2,88.4,21.2c5.1,0-7.7-77.4-27.3-166.1
		c-11.9-53.2-14.4-61.6-25.7-85c-7.2-15-9.7-19.4-20.9-36.4c-5-7.6-8.6-12.3-9.5-12.2C2236.3,941.2,2197.2,976.5,2150.2,1019.7z"/>
	<path id="structure43_label38_PaS" bar:growlevel="0" bar:type="" class="st49" d="M1803.6,1031.1c-15.6,3.3-45.6,21.5-49,29.7
		c-1.2,2.8-1.1,3.1,1.2,4.9c2.5,2.3,9,3.5,22.2,4.6c4.2,0.3,9,1.1,10.5,1.8c6.3,2.5,6.1,9.2-0.5,22.1c-2.4,4.6-7.4,14.2-11.1,21.4
		c-10.9,21.1-15.1,36.3-15.1,54c0,20,6.8,41.5,14.5,45.8c4.7,2.6,10.5-1.3,17.4-11.4c4.2-6.4,44.6-79.3,51.8-93.8
		c10.1-20,11.9-34.5,6.7-52.9c-4.3-15-9.1-20.5-21.1-24.5C1824.6,1030.7,1809.7,1029.7,1803.6,1031.1z"/>
	<path id="structure44_label39_TeA" bar:growlevel="0" bar:type="" class="st50" d="M2036.4,895.6c-39.2,56.3-71.2,102.7-71.2,103.4
		c0,0.6,3,3.8,6.6,6.9c16.3,14.3,29.9,27.7,43.3,42.7c32.7,36.4,45.8,50.4,47.3,50.3c2.1,0,173.8-157.7,173.8-159.5
		c0-1.8-11.1-16.4-30.6-40.2c-8.5-10.4-19.8-24.4-25-31c-5.3-6.7-11.4-14.4-13.6-17.1c-18.8-22.9-53.7-57.6-57.9-57.6
		C2108.2,793.5,2077.6,836.6,2036.4,895.6z"/>
	<path id="structure45_label41_V2L" bar:growlevel="0" bar:type="" class="st51" d="M1887.8,791.3c-32.4,57.2-59.1,104.9-59.2,105.9
		c-0.2,1.6,1.2,2.9,6.8,6.5c31.2,20.2,84.1,58.9,115.2,84.3c6.5,5.3,12.4,9.7,13.2,9.7c1.8,0,143.9-203.9,143.5-205.9
		c-0.7-3.7-45-36.5-75.5-56c-25.9-16.6-81.6-48.7-84.2-48.6C1947.1,687.3,1920.2,734.1,1887.8,791.3z"/>
	<path id="structure46_label42_V1B" bar:growlevel="0" bar:type="" class="st52" d="M1762.3,619.5c-0.3,0.9-14.5,46.5-31.6,101.3
		c-17.1,54.9-31,100.5-31,101.4c0,1.3,4.5,4,17.8,10.9c32,16.6,53.5,29,90,52.4c10,6.4,18.7,11.4,19.3,11.2
		c1.1-0.4,118.6-206.5,119.3-209.1c0.4-1.3-22.7-13.1-43.9-22.6c-19.2-8.6-48.2-19.9-69.8-27.3c-20.7-7-64.2-19.8-67.5-19.8
		C1763.7,618,1762.6,618.6,1762.3,619.5z"/>
	<path id="structure47_label43_RSGa" bar:growlevel="0" bar:type="" class="st53" d="M1623.7,874c-43,25.4-78.4,46.8-78.6,47.4
		c-0.2,0.7,3.4,3.9,8.4,7.4c28.4,20.2,65.4,51.8,94.1,80.5c18.2,18.3,26,27.2,38.2,43.3c4,5.2,8.3,10.4,9.7,11.7
		c7.3,6.3,35.8,21,37.5,19.3c2.3-2.4,107.1-173.4,107.1-174.9c0-3.3-66.1-45.3-102.4-64.8c-19.1-10.3-31.5-16.3-33.7-16.3
		C1702.9,827.8,1666.8,848.5,1623.7,874z"/>
	<path id="structure48_label44_V1M" bar:growlevel="0" bar:type="" class="st54" d="M1520.7,590.2c-14.2,0.9-18.3,1.6-17.9,3
		c0.2,0.6,25.2,43,55.6,94.2l55.3,93.1l41.5,21c22.9,11.6,42,20.9,42.7,20.6c1.3-0.4,64.1-201,63.7-203.7
		c-0.4-2.2-8.2-4.1-45.3-11.6C1646.8,592.8,1574,586.6,1520.7,590.2z"/>
	<path id="structure49_label45_V2MM" bar:growlevel="0" bar:type="" class="st55" d="M1498.1,592.3c-0.7,0.2-5.6,1-10.7,1.8
		c-20.4,3.2-48.8,11.4-70.6,20.3c-24.8,10.3-63.6,32.6-63.6,36.7c0,1.2,1.8,2.4,6.1,4.4c6.8,3.1,113.9,55.8,195.4,96.1
		c29.4,14.6,54,26.5,54.7,26.5c0.6,0,1.2-0.6,1.2-1.3c0-2-108.7-184.5-110-184.6C1500,592.1,1498.8,592.2,1498.1,592.3z"/>
	<path id="structure50_label46_RSD" bar:growlevel="0" bar:type="" class="st56" d="M1341.2,659.4c-22.2,18.5-39.6,43.1-43.5,61.4
		c-3.7,17.2,2.3,36.9,17.6,57.2c22.4,29.9,73.9,67.9,113.5,84c38.5,15.6,74.4,33.8,103.5,52.6c4.9,3.2,9.8,5.9,10.7,5.9
		c2.3,0,158.8-92.3,159.2-93.9c0.2-0.7-30.5-16.5-84.1-43.1c-107.8-53.6-265.8-131.2-267.1-131.2
		C1350.4,652.2,1346,655.4,1341.2,659.4z"/>
	<path id="structure51_label47_CIC" bar:growlevel="0" bar:type="" class="st57" d="M1333.4,873.7c0,0.5,2.5,3.8,5.6,7.4
		c19.8,22.9,29.9,49.8,31,82.1c0.8,23.5-2.3,43.4-11.1,69.6c-5.6,16.7-11.8,30.9-30,68.1c-23.2,47.6-29,66.6-27.7,91.3
		c0.8,15.7,4.6,28.2,12.4,41.7c4.3,7.5,8,12.2,17.8,23.6c35.3,40.8,88.7,88.6,126.6,113.3c19.3,12.6,45.6,25.2,58.4,27.8
		c5.9,1.3,4.8,2.1,20.7-15.1c40.2-43.3,61.9-83.8,69.6-129c2.3-13.7,2.3-52.3,0-66c-6.8-40.3-24.3-84.2-47.5-119.1
		c-11.2-16.7-18.8-26.5-33.8-42.9c-42.5-46.7-99.6-93.8-174.1-143.6C1337,873.2,1333.4,871.4,1333.4,873.7z"/>
	<path id="structure52_text6474_ECIC-2" bar:growlevel="0" bar:type="" class="st58" d="M1396.4,854.1c0,0.7,0.6,1.4,1.3,1.7
		c2.3,0.9,51.6,31.6,73.3,45.7c51.5,33.5,74.8,51,96.1,72.4c31.9,31.9,55.9,66.4,79.2,114.3c16.8,34.7,26.5,58.9,31.9,80.6
		c4.7,18.5,5.8,26.9,5.8,45c0,18.5-0.8,23.1-8.8,53.5c-2.3,8.4-4.6,19.3-5.2,24.1c-1.1,8.7-1.1,8.8,1.1,11.1c2.9,3.1,8.7,3.1,14.1,0
		c4.9-2.9,12.1-11.6,16.1-19.8c3.5-7.1,7.8-23.1,9.6-35.2c1.4-10.2,1.4-40.1,0-53c-5.6-49.1-15.8-83.6-34.8-117.1
		c-10.8-18.9-19.1-30.4-37.6-52.1c-42.8-49.9-84.4-87.8-138.7-126.2c-16.7-11.9-25.9-16.8-51.4-27.9
		C1412.7,855.7,1396.4,850.4,1396.4,854.1z"/>
	<path id="structure54_text3151_ECIC" bar:growlevel="0" bar:type="" class="st59" d="M1348.9,851.9c-17,3.1-33,9.1-28.3,10.6
		c1.8,0.6,52.7,34.7,67.3,45.3c45.1,32.1,80.1,60.9,112.8,93.1c28.3,27.8,43.5,45.4,58.1,67.5c16.9,25.5,26.8,45.9,37,76.5
		c10.4,31.4,13.5,48.4,13.5,76.5c-0.1,25.9-3.1,44.8-11,67.4c-10.9,31.2-33.9,66.4-64.5,98.3c-5.8,6-10.4,11.6-10.4,12.3
		c0,3,29.3,6.5,47.3,5.6c39.7-1.9,74.5-12.3,100.8-30.1c8.9-6.1,12.5-9,21.1-17.4c17.7-17.4,30.4-36.8,40.9-62.4l4.1-10.1l0.9-16.9
		c2-33.8,2.2-61.8,0.5-74.6c-2.8-21.9-8.8-44.1-20.9-76.9c-13.6-36.8-29.7-62.6-58.8-94.3c-19.5-21.2-61-58.2-91.3-81.5
		c-19.3-14.8-55.3-38.3-58.5-38.3c-3.3,0-1.2,2.8,6.2,8.1c11.4,8.4,36.9,28.9,50.8,41c27.8,24.4,71.9,71.5,91.2,97.4
		c13.3,17.9,27.1,42.9,35.2,63.8c12.7,32.7,20.3,78.8,19.2,116.2c-0.5,18.3-1.9,27.8-6,41.7c-4.9,16.7-17.4,32.9-26.6,34.7
		c-3.5,0.6-7.9-0.9-9.6-3.3c-2.3-3.3-0.4-14.9,8.2-47.6c4.6-17.6,5.6-24.8,5.6-40.5c0-36.6-10.6-71.4-39.7-129.6
		c-20.3-40.5-37.4-66.9-61.7-94.5c-18.1-20.5-31.2-32.3-55.6-50c-29.3-21.1-57.8-39.9-110.7-72.8l-26.1-16.3l-15.8-0.2
		C1361.8,850.3,1356,850.6,1348.9,851.9z"/>
	<path class="st60" d="M1244.3,796.5c-12-26.5-39.5-44.5-73.8-48.1c-4.7-0.5-7.3-0.7-10-0.7v207.7c7.3,0,14.9-1.2,21.4-3.4
		c23-7.8,45.3-23.6,57.9-41.2c9.2-12.6,13.8-25.7,15.5-44.2C1257.3,845.3,1252.5,814.5,1244.3,796.5z"/>
	<path id="structure57_label53_DCIC" bar:growlevel="0" bar:type="" class="st61" d="M1301.3,868.2c-14.1,7-32.9,19.2-46.3,29.9
		c-8.4,6.8-10.3,8.6-19.3,19.3c-5.6,6.7-14.6,14.7-23.1,20.3c-7.2,5-22.5,12.8-28,14.4c-4.2,1.3-4.6,2.2-6.4,14.5
		c-4.4,29.6,2.2,55.1,25.5,98.7c24.7,46.1,51.7,90.7,75.3,124.4c26.7,38.1,33.1,44.7,27,28.4c-7-18.6-7.2-40-0.4-63.3
		c3.5-12.2,10.1-27.4,25.9-59.9c21.5-44.2,28.4-61.6,33.7-85.5c3.5-16,4.4-24.4,4.4-41c0-29.9-7.2-54.2-22.7-76.7
		c-10-14.6-25.6-30-30.5-30C1315.1,861.9,1308.3,864.7,1301.3,868.2z"/>
	<path id="structure58_label54_LPAG" bar:growlevel="0" bar:type="" class="st62" d="M1223.5,1138.8c-5.1,8.8-11.6,19.8-14.5,24.5
		c-3,4.6-5.2,8.7-5,9.1c0.2,0.4,5.7,6.6,12.2,13.8c22.4,24.5,35.4,41.3,42.3,55.3c1.5,3,5.4,13.3,8.6,22.9
		c5.5,16.5,9,24.8,13.8,32.4c4.1,6.5,13.7,26.5,16.4,34.2c3.1,8.7,5.6,20.5,5.6,26.5c0,2.2,0.3,4,0.8,4c0.5,0,22.9,3.1,49.7,6.8
		c26.9,3.7,49.9,6.8,50.9,6.8c1.3,0,2.1-0.6,2.1-1.6c0-4.1-10.1-39.4-14.5-50.6c-2.6-6.6-3.2-7.3-15.4-18.4
		c-19.1-17.6-44.6-45.3-64.3-69.8c-20.8-25.8-49.1-66.6-68.8-99.3c-4.9-8.2-8-12.3-9-12.3
		C1233.3,1122.9,1229.9,1127.9,1223.5,1138.8z"/>
	<path class="st63" d="M1279.9,1297c-6.5-11.3-9.5-18.4-14.8-35.6c-2.1-6.7-5.1-15-6.7-18.4c-5.9-12.9-20.2-31.7-41.1-54.4
		c-29.5-32.1-35.4-39.2-38.3-45.8c-3.5-7.9-4.7-14.9-5.7-33.4c-1.2-23.9-2.1-28.7-5.7-32.2c-2.5-2.4-4.7-3.4-7-3.3v191.5
		c14.8,0.2,30.8,0.9,37,1.9c26.4,4,44.4,11.8,57.1,24.3c10.5,10.4,15.9,22.1,16,35.1c0.1,13-4.9,23.8-16,35.2
		c-18.7,19.1-50.2,30.4-88.2,31.6c-2,0.1-4,0-5.9,0v108.8c1.5,0.1,2.8,0,4.1-0.2c11-1.6,39-19.6,64.3-41.3
		c33.4-28.6,51.8-45.9,59.1-55.7c9.1-12.2,12.6-22.1,13.5-38.5C1302.7,1345.5,1296.6,1325.8,1279.9,1297z"/>
	<path id="structure71_label67_lfp" bar:growlevel="0" bar:type="" class="st64" d="M1340.6,2098.2c-8.6,4.4-24,12.9-34.2,18.9
		c-23.2,13.6-70.6,42.8-74.7,46.1c-4.5,3.5-6.5,7.7-6,12.6c0.8,7.6,0.8,7.6,37.6,15c18,3.7,41.8,8.9,53,11.7
		c18.3,4.6,21.4,5.1,32.5,5.5c16.3,0.6,21.8-0.6,39.6-9c16.1-7.6,22.8-12,29.4-19c7.3-7.7,9.5-13.3,9.9-25.1
		c0.5-11.4-0.7-18.3-4.6-27.6c-7.8-19-17.8-28.7-35.3-34.2c-4.8-1.5-9.4-2.2-18.9-2.4l-12.7-0.5L1340.6,2098.2z"/>
	<path id="structure7_label0_RtTg" bar:growlevel="0" bar:type="" class="st65" d="M1169.2,1955.5c-2.3,7-2.6,17.9-3,98.8
		c-0.4,99.8,0.8,171,3,176.2c3,6.9,10.1,11.8,19.9,13.6c2.9,0.6,11.3,1.6,18.6,2.4c21.9,2.3,35,6.7,44.2,14.9
		c4.9,4.3,9.5,11,9.5,13.7c0,1.6,0.7,1.6,14.7,1.1c31.7-1.2,49.2-3.2,68.6-7.8c11.3-2.7,35.4-10.4,39.6-12.7
		c1.1-0.5,8.5-6.9,16.4-14.1c7.9-7.2,26.3-23.4,40.9-36c40.5-35.1,58.4-51.4,58.4-53.2c0-0.4-3.8-0.8-8.4-0.8
		c-9.6,0-18-2.2-23.1-5.8c-8.4-6.3-21.2-19.4-42.1-43.6c-12.7-14.6-26-29.4-29.4-32.9c-10.1-10-20-15.8-27.5-15.8
		c-2,0-2.6,0.5-3.4,3.4c-0.5,1.9-2.5,4.8-4.3,6.5c-2.4,2.3-3,2.5-1.9,0.9c8.3-12.3-15.3-36.6-61.4-63.4c-6.7-3.9-16.4-9-21.6-11.5
		c-27.3-12.8-71.3-28.3-94.1-33C1173.2,1954.2,1169.7,1954,1169.2,1955.5z M1233.8,2072.9c14.1,1.9,95,3.2,102.3,1.7
		c4.6-1,5.1-0.9,4.9,0.4c-0.2,1,1.4,2.3,5.2,4.1c4,2,6.3,3.8,8.3,6.8l2.8,4.1l10.3,0.1c25,0.3,42.6,10.4,52.5,30.1
		c12.3,24.6,11.4,46.2-2.4,60.7c-6.2,6.3-11.3,9.6-25.7,16.8c-28,13.9-38.3,14.7-73.3,5.8c-14.3-3.7-80-17.6-83-17.6
		c-2.7,0-7.1-2.8-8.7-5.5c-1.3-2.3-1.5-3.9-1.1-8.1c0.6-6.1,0.6-6.1-6.8-3.6c-14.1,5.1-23.4,2.5-29-7.8c-2.8-5.2-5.1-15.8-5.1-23.6
		c0-2.9-0.8-10-1.8-15.9c-4-22.9-4-34-0.3-41.5C1187.2,2071.1,1204,2068.9,1233.8,2072.9z"/>
	<path id="structure8_label1_PnO" bar:growlevel="0" bar:type="" class="st66" d="M1380.2,1730.1c-39.8,4.4-77,17.1-98.3,33.3
		l-5.2,4v17.3c0,49.5-7.8,104.3-21.3,150.3c-0.4,1.2,0.3,1.8,2.5,2.6c1.7,0.6,9.7,4.3,17.9,8.5c25.7,12.9,46.3,27.1,64.2,44.4
		l10.6,10.3l10.3,0.4c18.7,0.7,46.3-2.9,73.8-9.7c27.6-6.8,38-14.9,52.3-41c12.7-22.9,20.8-47.3,25.8-77c2.7-15.6,4.6-41.4,3.9-52.4
		l-0.5-8l-4.1-4.4c-8.4-8.9-10.9-20-7.3-31.4c1.5-4.9,1.5-5-0.4-10.1c-4.6-12.2-17.8-22.3-37.8-29c-8.5-2.8-26.4-6.4-38-7.7
		C1420.4,1729.6,1387.3,1729.3,1380.2,1730.1z"/>
	<path id="structure99_label100_a" bar:growlevel="0" bar:type="" class="st1" d="M1809.1,1543.1c-5.4,3.7-7.2,10.1-4.3,16
		c2.3,4.8,5.9,6.8,11.9,6.3c4.2-0.3,5.3-0.8,7.9-3.6c2.6-2.9,3-3.9,3-8.3c0-4.4-0.4-5.4-3-8.3c-2.6-2.8-3.7-3.3-7.9-3.6
		C1812.8,1541.4,1811.2,1541.6,1809.1,1543.1z"/>
	<g id="label30" bar:growlevel="0">
		<text transform="matrix(1 0 0 1 1655.0928 1646.4941)" class="st67 st68 st69">L</text>
	</g>
	<g id="label31" bar:growlevel="0">
		<text transform="matrix(1 0 0 1 1657.6123 1561.8496)" class="st67 st68 st69">D</text>
		<text transform="matrix(1 0 0 1 1677.1123 1561.8496)" class="st67 st68 st69">L</text>
		<text transform="matrix(1 0 0 1 1693.6035 1561.8496)" class="st67 st68 st69">L</text>
	</g>
	<text id="label32" bar:growlevel="0" transform="matrix(1 0 0 1 1726.0674 1475.9141)" class="st70 st68 st69">Sag</text>
	<text id="label33" bar:growlevel="0" transform="matrix(1 0 0 1 2094.6514 1580.123)" class="st70 st68 st69">MEnt</text>
	<text id="label34" bar:growlevel="0" transform="matrix(1 0 0 1 1953.6514 1519.5098)" class="st70 st68 st69">CEnt</text>
	<text id="label35" bar:growlevel="0" transform="matrix(1 0 0 1 2247.2617 1418.9043)" class="st70 st68 st69">DLEnt</text>
	<text id="text6478" bar:growlevel="0" transform="matrix(1 0 0 1 1722.4873 1103.4629)" class="st70 st68 st69">vBrain</text>
	<text id="label37" bar:growlevel="0" transform="matrix(1 0 0 1 2187.833 1113.6602)" class="st70 st68 st69">Ect</text>
	<g id="label39" bar:growlevel="0">
		<text transform="matrix(1 0 0 1 2077.6123 963.5137)" class="st67 st68 st69">T</text>
		<text transform="matrix(1 0 0 1 2092.2197 963.5137)" class="st67 st68 st69">e</text>
		<text transform="matrix(1 0 0 1 2104.2021 963.5137)" class="st67 st68 st69">A</text>
	</g>
	<text id="text6474" bar:growlevel="0" transform="matrix(1 0 0 1 1606.1836 1007.7676)" class="st70 st68 st69">ECIC-2</text>
	<text id="text6472" bar:growlevel="0" transform="matrix(1 0 0 1 1502.7715 981.0977)" class="st71 st68 st69">.ECIC-3</text>
	<text id="Unlabeled-2557-853" bar:growlevel="0" transform="matrix(1 0 0 1 2098.4014 1329.8652)" class="st70 st68 st69">grey</text>
	<text id="label144" bar:growlevel="0" transform="matrix(1 0 0 1 1455.9824 1601.6055)" class="st70 st68 st69">scp</text>
	<text id="label149" bar:growlevel="0" transform="matrix(1 0 0 1 1809.1416 1348.75)" class="st70 st68 st69">4n</text>
	<text id="label148" bar:growlevel="0" transform="matrix(1 0 0 1 1409.0547 1469.0137)" class="st70 st68 st69">me5</text>
	<text id="label133" bar:growlevel="0" transform="matrix(1 0 0 1 1191.2764 1659.4414)" class="st70 st68 st69">mlf</text>
	<text id="label0" bar:growlevel="0" transform="matrix(1 0 0 1 1221.6973 2032.6621)" class="st70 st68 st69">RtTg</text>
	<text id="label1" bar:growlevel="0" transform="matrix(1 0 0 1 1362.4717 1875.3438)" class="st70 st68 st69">PnO</text>
	<text id="label5" bar:growlevel="0" transform="matrix(1 0 0 1 1253.5439 2238.9473)" class="st70 st68 st69">Pn</text>
	<text id="label6" bar:growlevel="0" transform="matrix(1 0 0 1 1174.8408 2257.3574)" class="st70 st68 st69">tfp</text>
	<g id="label7" bar:growlevel="0">
		<text transform="matrix(1 0 0 1 1198.6465 1951.3789)" class="st67 st68 st69">R</text>
		<text transform="matrix(1 0 0 1 1216.6563 1951.3789)" class="st67 st68 st69">t</text>
		<text transform="matrix(1 0 0 1 1224.1582 1951.3789)" class="st67 st68 st69">T</text>
		<text transform="matrix(1 0 0 1 1240.6504 1951.3789)" class="st67 st68 st69">g</text>
		<text transform="matrix(1 0 0 1 1254.1504 1951.3789)" class="st67 st68 st69">P</text>
	</g>
	<text id="label36" bar:growlevel="0" transform="matrix(1 0 0 1 2246.752 1279.7676)" class="st70 st68 st69">PRh</text>
	<text id="label38" bar:growlevel="0" transform="matrix(1 0 0 1 1790.9014 1122.332)" class="st70 st68 st69">PaS</text>
	<text id="label18" bar:growlevel="0" transform="matrix(1 0 0 1 1282.8438 1541.7813)" class="st70 st68 st69">LDTg</text>
	<text id="label19" bar:growlevel="0" transform="matrix(1 0 0 1 1401.6924 1663.4199)" class="st70 st68 st69">SPTg</text>
	<g id="label12" bar:growlevel="0">
		<text transform="matrix(1 0 0 1 1552.7324 1990.9766)" class="st67 st68 st69">V</text>
		<text transform="matrix(1 0 0 1 1572.2295 1990.9766)" class="st67 st68 st69">L</text>
		<text transform="matrix(1 0 0 1 1588.7227 1990.9766)" class="st67 st68 st69">L</text>
	</g>
	<text id="label13" bar:growlevel="0" transform="matrix(1 0 0 1 1506.0273 2081.9023)" class="st70 st68 st69">MVPO</text>
	<text id="label10" bar:growlevel="0" transform="matrix(1 0 0 1 1219.8203 1691.207)" class="st70 st68 st69">VTg</text>
	<text id="label11" bar:growlevel="0" transform="matrix(1 0 0 1 1553.7432 1779.4883)" class="st70 st68 st69">A7</text>
	<g id="label17" bar:growlevel="0">
		<text transform="matrix(1 0 0 1 1192.6328 1555.4434)" class="st67 st68 st69">D</text>
		<text transform="matrix(1 0 0 1 1212.1299 1555.4434)" class="st67 st68 st69">T</text>
		<text transform="matrix(1 0 0 1 1228.624 1555.4434)" class="st67 st68 st69">g</text>
		<text transform="matrix(1 0 0 1 1242.124 1555.4434)" class="st67 st68 st69">P</text>
	</g>
	<g id="label15" bar:growlevel="0">
		<text transform="matrix(1 0 0 1 1507.4043 1965.8047)" class="st67 st68 st69">P</text>
		<text transform="matrix(1 0 0 1 1522.4189 1965.8047)" class="st67 st68 st69">L</text>
		<text transform="matrix(1 0 0 1 1536.4336 1965.8047)" class="st67 st68 st69">V</text>
	</g>
	<text id="Unlabeled-2096-1508" bar:growlevel="0" transform="matrix(1 0 0 1 1427.9014 1528.7656)" class="st70 st68 st69">CnFD</text>
	<text id="label119" bar:growlevel="0" transform="matrix(1 0 0 1 1401.3525 1450.6191)" class="st70 st68 st69">Me5</text>
	<text id="label67" bar:growlevel="0" transform="matrix(1 0 0 1 1340.6436 2157.8867)" class="st70 st68 st69">lfp</text>
	<text id="label107" bar:growlevel="0" transform="matrix(1 0 0 1 1487.8809 2132.5215)" class="st70 st68 st69">ll</text>
	<text id="label106" bar:growlevel="0" transform="matrix(1 0 0 1 1644.8037 1832.498)" class="st70 st68 st69">ll</text>
	<text id="label105" bar:growlevel="0" transform="matrix(1 0 0 1 1566.0771 1842.9102)" class="st70 st68 st69">rs</text>
	<text id="label104" bar:growlevel="0" transform="matrix(1 0 0 1 1677.0303 1877.8926)" class="st70 st68 st69">m5</text>
	<text id="label103" bar:growlevel="0" transform="matrix(1 0 0 1 1809.6211 1897.2793)" class="st70 st68 st69">s5</text>
	<text id="text3151" bar:growlevel="0" transform="matrix(1 0 0 1 1594.4893 1355.6992)" class="st70 st68 st69">ECIC</text>
	<text id="label101" bar:growlevel="0" transform="matrix(1 0 0 1 1838.1045 1579.9238)" class="st70 st68 st69">a</text>
	<text id="label100" bar:growlevel="0" transform="matrix(1 0 0 1 1811.8252 1556.9375)" class="st70 st68 st69">a</text>
	<text id="label109" bar:growlevel="0" transform="matrix(1 0 0 1 1167.3174 1526.7324)" class="st70 st68 st69">DRC</text>
	<text id="label108" bar:growlevel="0" transform="matrix(1 0 0 1 1508.8545 2167.4375)" class="st70 st68 st69">tfp</text>
	<text id="Unlabeled-1781-903" bar:growlevel="0" transform="matrix(1 0 0 1 1168.6035 992.1641)" class="st70 st68 st69">Com</text>
	<text id="label102" bar:growlevel="0" transform="matrix(1 0 0 1 1766.6602 1739.5098)" class="st70 st68 st69">mcp</text>
	<text id="text3149" bar:growlevel="0" transform="matrix(1 0 0 1 1659.9912 1040.9902)" class="st71 st68 st69">.ECIC-1</text>
	<text id="Unlabeled-1813-1576" bar:growlevel="0" transform="matrix(1 0 0 1 1264.1025 1599.8652)" class="st70 st68 st69">CG</text>
	<text id="label130" bar:growlevel="0" transform="matrix(1 0 0 1 1250.9922 1851.7344)" class="st70 st68 st69">ts</text>
	<text id="label131" bar:growlevel="0" transform="matrix(1 0 0 1 1194.1885 1826.793)" class="st70 st68 st69">PMnR</text>
	<g id="label41" bar:growlevel="0">
		<text transform="matrix(1 0 0 1 1945.0117 850.6953)" class="st67 st68 st69">V</text>
		<text transform="matrix(1 0 0 1 1964.5088 850.6953)" class="st67 st68 st69">2</text>
		<text transform="matrix(1 0 0 1 1978.0088 850.6953)" class="st67 st68 st69">L</text>
	</g>
	<text id="label43" bar:growlevel="0" transform="matrix(1 0 0 1 1680.8037 955.1738)" class="st70 st68 st69">RSGa</text>
	<text id="label42" bar:growlevel="0" transform="matrix(1 0 0 1 1786.8525 765.7188)" class="st70 st68 st69">V1B</text>
	<text id="label45" bar:growlevel="0" transform="matrix(1 0 0 1 1456.4629 687.8535)" class="st70 st68 st69">V2MM</text>
	<text id="label44" bar:growlevel="0" transform="matrix(1 0 0 1 1615.5244 701.627)" class="st70 st68 st69">V1M</text>
	<text id="label47" bar:growlevel="0" transform="matrix(1 0 0 1 1441.0723 1176.3125)" class="st70 st68 st69">CIC</text>
	<text id="label46" bar:growlevel="0" transform="matrix(1 0 0 1 1458.2617 807.4844)" class="st70 st68 st69">RSD</text>
	<g id="label114" bar:growlevel="0">
		<text transform="matrix(1 0 0 1 1476.5928 1507.4395)" class="st67 st68 st69">C</text>
		<text transform="matrix(1 0 0 1 1494.6016 1507.4395)" class="st67 st68 st69">n</text>
		<text transform="matrix(1 0 0 1 1508.1016 1507.4395)" class="st67 st68 st69">F</text>
		<text transform="matrix(1 0 0 1 1523.1162 1507.4395)" class="st67 st68 st69">V</text>
	</g>
	<text id="label115" bar:growlevel="0" transform="matrix(1 0 0 1 1480.3193 1487.3652)" class="st70 st68 st69">CnFI</text>
	<text id="label117" bar:growlevel="0" transform="matrix(1 0 0 1 1175.2246 1787.7168)" class="st70 st68 st69">MnR</text>
	<text id="label55" bar:growlevel="0" transform="matrix(1 0 0 1 1186.3018 1231.1875)" class="st70 st68 st69">ReIC</text>
	<text id="label52" bar:growlevel="0" transform="matrix(1 0 0 1 1180.4707 856.6367)" class="st70 st68 st69">Pi</text>
	<text id="label53" bar:growlevel="0" transform="matrix(1 0 0 1 1247.2744 1014.4023)" class="st70 st68 st69">DCIC</text>
	<g id="label113" bar:growlevel="0">
		<text transform="matrix(1 0 0 1 1342.2959 1639.9492)" class="st67 st68 st69">L</text>
		<text transform="matrix(1 0 0 1 1358.79 1639.9492)" class="st67 st68 st69">D</text>
		<text transform="matrix(1 0 0 1 1378.2871 1639.9492)" class="st67 st68 st69">T</text>
		<text transform="matrix(1 0 0 1 1394.7783 1639.9492)" class="st67 st68 st69">g</text>
		<text transform="matrix(1 0 0 1 1408.2783 1639.9492)" class="st67 st68 st69">V</text>
	</g>
	<text id="label125" bar:growlevel="0" transform="matrix(1 0 0 1 1197.8799 2102.1641)" class="st70 st68 st69">tth</text>
	<text id="Unlabeled-2193-1631" bar:growlevel="0" transform="matrix(1 0 0 1 1308.2031 1705.1641)" class="st70 st68 st69">DMTg</text>
	<text id="label121" bar:growlevel="0" transform="matrix(1 0 0 1 1809.3818 1348.75)" class="st70 st68 st69">4n</text>
	<text id="label120" bar:growlevel="0" transform="matrix(1 0 0 1 1167.291 2285)" class="st70 st68 st69">bas</text>
	<text id="label122" bar:growlevel="0" transform="matrix(1 0 0 1 1640.4961 2076.8887)" class="st70 st68 st69">m5</text>
	<text id="Unlabeled-2198-1861" bar:growlevel="0" transform="matrix(1 0 0 1 1423.4014 2036.3652)" class="st70 st68 st69">grey</text>
	<g id="label54" bar:growlevel="0">
		<text transform="matrix(1 0 0 1 1282.7793 1283.3242)" class="st67 st68 st69">L</text>
		<text transform="matrix(1 0 0 1 1299.2705 1283.3242)" class="st67 st68 st69">P</text>
		<text transform="matrix(1 0 0 1 1311.8086 1283.3242)" class="st67 st68 st69">A</text>
		<text transform="matrix(1 0 0 1 1331.3086 1283.3242)" class="st67 st68 st69">G</text>
	</g>
	<text id="label23" bar:growlevel="0" transform="matrix(1 0 0 1 1477.7939 1451.6699)" class="st70 st68 st69">CnFD</text>
	<text id="label22" bar:growlevel="0" transform="matrix(1 0 0 1 1507.7412 1559.0664)" class="st70 st68 st69">PTg</text>
	<g id="label21" bar:growlevel="0">
		<text transform="matrix(1 0 0 1 1575.7627 1720.6445)" class="st67 st68 st69">M</text>
		<text transform="matrix(1 0 0 1 1599.7686 1720.6445)" class="st67 st68 st69">P</text>
		<text transform="matrix(1 0 0 1 1614.7852 1720.6445)" class="st67 st68 st69">L</text>
	</g>
	<text id="label20" bar:growlevel="0" transform="matrix(1 0 0 1 1471.1699 1686.3477)" class="st70 st68 st69">PTg</text>
	<g id="label27" bar:growlevel="0">
		<text transform="matrix(1 0 0 1 1677.5635 1695.6113)" class="st67 st68 st69">I</text>
		<text transform="matrix(1 0 0 1 1686.5518 1695.6113)" class="st67 st68 st69">L</text>
		<text transform="matrix(1 0 0 1 1703.0459 1695.6113)" class="st67 st68 st69">L</text>
	</g>
	<g id="label26" bar:growlevel="0">
		<text transform="matrix(1 0 0 1 1197.0586 1440.8691)" class="st67 st68 st69">4</text>
		<text transform="matrix(1 0 0 1 1210.5586 1440.8691)" class="st67 st68 st69">V</text>
	</g>
	<text id="label25" bar:growlevel="0" transform="matrix(1 0 0 1 1189.2217 1340.4824)" class="st70 st68 st69">2Cb</text>
	<g id="label24" bar:growlevel="0">
		<text transform="matrix(1 0 0 1 1298.7217 1432.3457)" class="st67 st68 st69">V</text>
		<text transform="matrix(1 0 0 1 1318.2197 1432.3457)" class="st67 st68 st69">L</text>
		<text transform="matrix(1 0 0 1 1334.7139 1432.3457)" class="st67 st68 st69">P</text>
		<text transform="matrix(1 0 0 1 1347.2529 1432.3457)" class="st67 st68 st69">A</text>
		<text transform="matrix(1 0 0 1 1366.75 1432.3457)" class="st67 st68 st69">G</text>
	</g>
	<g id="label29" bar:growlevel="0">
		<text transform="matrix(1 0 0 1 1640.6934 1646.4941)" class="st67 st68 st69">L</text>
	</g>
	<g id="label28" bar:growlevel="0">
		<text transform="matrix(1 0 0 1 1617.0244 1646.4941)" class="st67 st68 st69">T</text>
		<text transform="matrix(1 0 0 1 1632.5664 1646.4941)" class="st67 st68 st69">r</text>
	</g>
	<text id="label150" bar:growlevel="0" transform="matrix(1 0 0 1 1414.8906 1493.8848)" class="st70 st68 st69">4n</text>
	<g id="label154" bar:growlevel="0">
		<text transform="matrix(1 0 0 1 1170.1563 1056.7832)" class="st67 st68 st69">D</text>
		<text transform="matrix(1 0 0 1 1189.6533 1056.7832)" class="st67 st68 st69">M</text>
		<text transform="matrix(1 0 0 1 1213.6621 1056.7832)" class="st67 st68 st69">P</text>
		<text transform="matrix(1 0 0 1 1226.1973 1056.7832)" class="st67 st68 st69">A</text>
		<text transform="matrix(1 0 0 1 1245.6973 1056.7832)" class="st67 st68 st69">G</text>
	</g>
	<text id="Unlabeled-2570-1400" bar:growlevel="0" transform="matrix(1 0 0 1 1867.1025 1445.9668)" class="st70 st68 st69">v</text>
	<text id="label126" bar:growlevel="0" transform="matrix(1 0 0 1 1210.9336 2147.7559)" class="st70 st68 st69">ml</text>
</g>
</svg>
