<?xml version="1.0" encoding="utf-8"?>
<!-- Generator: Adobe Illustrator 24.1.1, SVG Export Plug-In . SVG Version: 6.00 Build 0)  -->
<svg version="1.1"
	 id="body" inkscape:version="0.47pre4 r22446" sodipodi:docname="71_pretrace_pretrace_v1.svg" xmlns:bar="http://www.3dbar.org" xmlns:cc="http://creativecommons.org/ns#" xmlns:dc="http://purl.org/dc/elements/1.1/" xmlns:inkscape="http://www.inkscape.org/namespaces/inkscape" xmlns:rdf="http://www.w3.org/1999/02/22-rdf-syntax-ns#" xmlns:sodipodi="http://sodipodi.sourceforge.net/DTD/sodipodi-0.dtd" xmlns:svg="http://www.w3.org/2000/svg"
	 xmlns="http://www.w3.org/2000/svg" xmlns:xlink="http://www.w3.org/1999/xlink" x="0px" y="0px" viewBox="0 0 3024 3024"
	 style="enable-background:new 0 0 3024 3024;" xml:space="preserve">
<style type="text/css">
	.st0{fill:#FF000C;}
	.st1{fill:#D8E900;}
	.st2{fill:#C6D400;}
	.st3{fill:#FFFAB2;}
	.st4{fill:#E9E159;}
	.st5{fill:#FFEF00;}
	.st6{fill:#97FF59;}
	.st7{fill:#6D2FE9;}
	.st8{fill:#FFB2BA;}
	.st9{fill:#92FF00;}
	.st10{fill:#FFEC00;}
	.st11{fill:#97FF00;}
	.st12{fill:#FF005D;}
	.st13{fill:#DEFFB2;}
	.st14{fill:#8CFF00;}
	.st15{fill:#69FF00;}
	.st16{fill:#E0E959;}
	.st17{fill:#5F23ED;}
	.st18{fill:#FFE900;}
	.st19{fill:#EEF423;}
	.st20{fill:#D0D447;}
	.st21{fill:#8847F2;}
	.st22{fill:#FFDE00;}
	.st23{fill:#C4C923;}
	.st24{fill:#C3C900;}
	.st25{fill:#E6E98E;}
	.st26{fill:#FDFF76;}
	.st27{fill:#FEFFB2;}
	.st28{fill:#FBFF8E;}
	.st29{fill:#FFF359;}
	.st30{fill:#E2E923;}
	.st31{fill:#F1F48E;}
	.st32{fill:#DBDF6B;}
	.st33{fill:#83E900;}
	.st34{fill:#A8E959;}
	.st35{fill:#77D400;}
	.st36{fill:#8647F6;}
	.st37{fill:#3FFF00;}
	.st38{fill:#B8FF00;}
	.st39{fill:#DBFFB2;}
	.st40{fill:#925FDC;}
	.st41{fill:#FFF000;}
	.st42{fill:#FFE600;}
	.st43{fill:#E9DB00;}
	.st44{fill:#E95B00;}
	.st45{fill:#B2FF00;}
	.st46{fill:#FF0045;}
	.st47{fill:#FFE300;}
	.st48{fill:#E9DA00;}
	.st49{fill:#8AD400;}
	.st50{fill:#8F6BE1;}
	.st51{fill:#6117D8;}
	.st52{fill:#D86BC8;}
	.st53{fill:#F200DD;}
	.st54{fill:#DDFFB2;}
	.st55{fill:#FF23E9;}
	.st56{fill:#FEFF3B;}
	.st57{fill:#F3FF59;}
	.st58{fill:#232323;enable-background:new    ;}
	.st59{font-family:'TimesNewRomanPSMT';}
	.st60{font-size:27px;}
</style>
<sodipodi:namedview  bordercolor="#666666" borderopacity="1" gridtolerance="10" guidetolerance="10" id="namedview6386" inkscape:current-layer="content" inkscape:cx="729.7228" inkscape:cy="471.94491" inkscape:object-paths="true" inkscape:pageopacity="0" inkscape:pageshadow="2" inkscape:window-height="1128" inkscape:window-maximized="1" inkscape:window-width="1918" inkscape:window-x="1680" inkscape:window-y="24" inkscape:zoom="10.081752" objecttolerance="10" pagecolor="#ffffff" showgrid="false">
	</sodipodi:namedview>
<desc  id="desc6144">This was produced by version 4.2 of GNU libplot, a free library for exporting 2-D vector graphics.</desc>
<defs>
	<rdf:RDF>
		<cc:Work  rdf:about="">
			<dc:format>image/svg+xml</dc:format>
			<dc:type  rdf:resource="http://purl.org/dc/dcmitype/StillImage"></dc:type>
		</cc:Work>
	</rdf:RDF>
	<bar:data  content="0.6" name="coronalcoord"></bar:data>
	
		<bar:data  content="{&apos;ReferenceHeight&apos;: 900, &apos;ReferenceWidth&apos;: 1200, &apos;imageSize&apos;: (1200, 900)}" name="rendererConf">
		</bar:data>
	
		<bar:data  content="{&apos;DumpEachStepSVG&apos;: False, &apos;DumpEachStepPNG&apos;: False, &apos;GrowDefaultBoundaryColor&apos;: 200, &apos;CacheLevel&apos;: 5, &apos;NewPathIdTemplate&apos;: &apos;structure%d_%s_%s&apos;, &apos;PoTraceConf&apos;: {&apos;potrace_accuracy_parameter&apos;: &apos;0.001&apos;, &apos;potrace_width_string&apos;: &apos;1200pt&apos;, &apos;potrace_svg_resolution_string&apos;: &apos;300x300&apos;, &apos;potrace_height_string&apos;: &apos;900pt&apos;}, &apos;DetectUnlabelled&apos;: True, &apos;DumpVBrain&apos;: False, &apos;DumpWrongSeed&apos;: True, &apos;DumpDirectory&apos;: &apos;.&apos;, &apos;MinFiterTimesApplication&apos;: 3, &apos;RegionAlreadyTraced&apos;: 100, &apos;UnlabelledTreshold&apos;: 500}" name="tracingConf">
		</bar:data>
	<bar:data  content="0.0176211454,-9.5150660793,0.0176211454,-1.5355884426" name="transformationmatrix"></bar:data>
</defs>
<g id="content">
	<path class="st0" d="M2257.4,1109.5c-15.9-37.5-51.9-108.6-73.1-144c-59.8-100.3-135.2-171.5-261.4-247.2
		c-54.4-32.7-110.4-54.8-187.2-74.1c-93.8-23.6-205.7-36.9-294.8-35.3c-58,1.1-87.8,6.3-123.4,21.3
		c-57.1,24.1-109.1,74.2-138.1,132.8c-6.3,12.8-8.9,21-11,33.8c-0.8,4.7-1.6,7.1-2.4,7.1v1106.1c1,0.4,2,2.2,2.9,5.2
		c4.8,15.3,16.9,32,33.2,46c14.1,12.1,31.1,23.5,58.5,39.2c9.5,5.5,12.9,8.6,9.2,8.6c-2.2,0-4.3,4-3.6,7c1,4.5,7.1,9.2,12.1,9.2
		c3.1,0,6.4-3.5,6.4-6.8c0-2.9,1.4-2.7,6.8,0.7c10.4,6.7,35.1,20.3,50.8,28.2c20.1,10.1,35.9,16.9,58.2,25.2l16.3,6l2.3,7.3
		c4.9,15.7,17.5,32.4,31.6,41.8c12.1,8.2,29.2,15.3,45,19c22,5.1,42.7,5.9,67.7,2.5c20.1-2.8,30.7-3.7,69.6-5.9
		c68.7-4.1,105.3-8.1,131.2-14.5c28.4-6.9,51.2-18.2,61.2-30.2c4.9-5.8,10.3-8.1,23-9.7c43-5.6,85.1-26.3,117.8-58
		c7.8-7.6,9-8.5,10.5-7.5c1,0.6,2.7,1.1,3.9,1.1c2.9,0,12-5.6,17.1-10.6c6.7-6.5,8.6-11.3,5.1-12.3c-1-0.3-1.8-1.1-1.7-1.6
		c0-0.6,7.6-6.4,16.7-12.8c37.5-26.2,57.2-41.2,68.6-52.2c24.6-23.9,53.6-61.8,80.9-105.9c16-25.8,25.7-44.1,37.9-71.6
		c9.3-21,11.4-27.3,14-40.4c2.3-11.4,7.3-26.6,12.1-36.6c1.5-3.2,7-12.1,12.1-19.6c13.3-19.7,18.7-30.3,26.2-51.1
		c11.3-31.3,32-123.8,37.8-169.6C2321.2,1333.5,2303.8,1219.4,2257.4,1109.5z"/>
	<path id="structure100_text5840_Pir-3" bar:growlevel="0" bar:type="" class="st1" d="M1994.6,1735.1c-5.7,2.9-14,4-25.9,3.3
		c-7.2-0.4-9.9-0.3-9.9,0.5c0,0.5,1.9,3.3,4.2,6.2c9.4,11.5,15.6,23.7,22.9,45.4c4.3,12.4,4.8,14.5,4.7,21.4
		c0,9.3-2.1,15.4-7.9,23.3c-10.4,14-31.7,24.5-59.6,29.3c-13.8,2.3-15.2,2.9-28.4,10.2c-20,11-39.5,25.6-54.3,40.2
		c-10.6,10.7-14.9,16.7-27.4,38.3c-10.3,17.9-15.9,26.4-21.9,33.4c-2.9,3.2-5.1,6.6-5.1,7.2c0,0.7,1.6,4.1,3.7,7.6
		c2,3.5,6.3,11.1,9.5,16.8l5.8,10.6h6.3c12.8,0,15.2-2.7,15.7-17.3c0.3-7.6,0.9-12.2,2.7-18.3c3.1-10.8,11.3-27.3,20.1-40.5
		c10.5-15.9,20.4-24.4,36.2-31.1c16.4-6.9,29.8-9.5,54.9-10.7c18.6-0.8,23.4-1.8,32.4-6.3c6.8-3.4,14.1-9,24.3-18.4
		c11.4-10.6,17.2-15.1,37.4-29.6c21.9-15.6,25.4-18.8,36.5-33.3c11.3-14.7,21.3-24.7,27.6-27.5c2.6-1.3,4.7-2.6,4.7-3.2
		c0-0.5-14.8-9.4-33-19.8c-18.3-10.3-41.2-23.7-51.2-29.5c-10-5.9-18.6-10.5-19.3-10.5C1999.4,1733,1997,1734,1994.6,1735.1z"/>
	<path id="structure102_text5842_Pir-1" bar:growlevel="0" bar:type="" class="st2" d="M2117.6,1804.4c1.1,8.2-3.4,19.6-12.7,32
		c-13.7,18.1-37.9,44.2-50.3,54.1c-3.6,2.9-10.2,7.2-14.8,9.7c-13,7-19.2,11.9-34.9,27.4c-8.6,8.5-16.9,15.8-20.3,17.8
		c-11.1,6.8-24.8,9.6-45.9,9.6c-15.8,0-27.9,1.8-39.4,5.8c-11.9,4-17.9,7.7-26.5,16.3c-6,5.9-8,8.6-11.4,15.8
		c-5.4,11.1-15.7,47.1-19,66.7c-0.4,1.7-1.1,4-1.7,4.8c-1.2,1.5-1.4,1.5-4,0.3c-1.5-0.8-6.3-4.5-10.7-8.3c-6.9-5.9-11.2-8.3-11.2-6
		c0,0.4,1.2,4.1,2.6,8.3c4.1,12.3,5.8,21.8,5.3,31.2c-0.5,9.2,0.1,10.1,3.9,6c4-4.3,15.2-8.4,23.3-8.5h3.2l3.1-10
		c13-42.3,48.3-75.1,89-82.8c8.8-1.6,23-0.6,29,2.1c4.6,2.1,10.8,7.6,10.8,9.7c0,0.5,0.5,0.9,1,0.9c2.1,0,44.9-30,79.1-55.3
		c28-20.7,58.9-57.2,94.3-111.9c3.5-5.5,6.5-10.8,6.5-11.8c0-1.4-5.1-4.7-23.3-14.9c-12.9-7.2-23.9-13.1-24.5-13.1
		C2117.3,1800.3,2117.1,1801.6,2117.6,1804.4z"/>
	<path id="structure103_text6454_Tu-2" bar:growlevel="0" bar:type="" class="st3" d="M1797.2,2029.9c-4,1.2-10.9,7.6-13.3,12.4
		c-1.2,2.3-2.7,6.8-3.6,10.2c-2.9,11.9-7.7,20.1-13.1,22.3c-2.3,1-3.3,0.9-7.1-0.8c-5.3-2.3-12.3-2.5-15.2-0.5
		c-1.1,0.7-3,3.3-4.2,5.8c-2.6,5.1-5.8,7.8-10.3,8.6c-1.8,0.4-10.3,0-19-0.9c-27.4-2.6-56.2-1.6-77.1,2.7c-3.9,0.7-12.4,3-19,4.9
		c-27.8,8.2-58.8,11.8-101.4,11.9c-25.6,0.1-31.6-0.8-42.5-5.9c-14.5-6.9-19.8-18-13.2-27.4c1.6-2.3,9.6-6.4,12.3-6.4
		c3.1,0,8-3,9.7-5.8c1-1.7,1.7-4.5,1.7-7c0-3.5-0.4-4.5-2.8-6.5c-3.2-2.8-6.4-3-17.1-0.9c-23.4,4.4-38.4,13-42.8,24.4
		c-1.3,3.6-1.4,4.8-0.5,9.5c0.6,3,2.2,8,3.3,11.1c4.1,9.9,14.8,18.2,30.9,23.7c15.4,5.2,37.8,9.6,56.7,11
		c32.2,2.3,81.4-4.2,124.4-16.4c23.9-6.8,38.5-7.7,83-5.8c35.2,1.5,44.1,1.2,52.7-2.1c15.3-5.9,25.4-17.9,33.1-39.8
		c2.9-8.2,5.3-12.3,7.6-13.1c2.6-0.8,2.3-3.2-1.9-12.2C1804.4,2028.2,1803.9,2027.9,1797.2,2029.9z"/>
	<path id="structure105_text6456_Tu-3" bar:growlevel="0" bar:type="" class="st4" d="M1778.8,2003.5c-2.7,4.3-7.6,10.4-10.8,13.7
		c-15.1,15.1-31.7,18.2-88.7,16.1c-35.6-1.3-44-0.9-72,2.7c-37.6,5-45.6,5.6-84.7,6.4c-39.5,0.8-44.5,1.2-44.5,3.2
		c0,0.7,0.5,1.3,1,1.3c0.5,0,1.5,1.5,2.3,3.3c1.2,2.7,1.3,4,0.5,6.7c-0.5,1.8-1,3.5-1,3.7c0,0.3,4.6,0.3,10.2,0.1
		c9.4-0.4,10.3-0.4,13.1,1.6c4.3,3,5.2,6.2,3.3,12.1c-3.5,11.2-16.7,17-27.3,12.2c-5.8-2.7-7.9-8.3-6.2-16.7l0.8-3.5l-4,0.6
		c-5.9,0.9-11.6,4.1-13.5,7.7c-7,13.1,7.3,27.2,31.1,30.6c8.1,1.1,34.5,1.2,54,0c31.1-1.8,53.3-5.2,72.9-11.2
		c26.3-8,54.8-10.9,83.3-8.6c8.2,0.7,19.5,1.3,25.3,1.3c11.9,0,13.2-0.6,16.1-7.2c3.4-7.9,8.6-9.9,17.7-6.8
		c6.9,2.3,9.4,2.3,12.1,0.2c3.2-2.5,7.6-11.2,9.4-18.5c0.8-3.5,2.3-8,3.2-10.1c3.2-7.6,12.7-15.5,18.6-15.6c1.3,0,2-0.5,2-1.5
		c0-3-16.6-31.8-18.3-31.8C1784.2,1995.6,1781.5,1999.1,1778.8,2003.5z M1668.2,2040.6c8.4,2.3,12,7.9,8.2,12.6
		c-1.4,1.7-2.8,2.2-7,2.5c-8.6,0.5-20.5-4.8-22.4-10.1c-0.7-2.3-0.5-2.8,1.8-4.8c2.4-2.2,3.1-2.3,9.4-1.7
		C1661.9,2039.4,1666.4,2040.1,1668.2,2040.6z M1590.1,2047.2c1.8,0.8,4.3,2.5,5.6,3.9c5,5.4,1.6,11-10.6,17
		c-15.5,7.7-28.1,8.4-35.4,2.1c-7.7-6.8-5-14.3,7.4-19.7C1568.9,2045.1,1582,2043.8,1590.1,2047.2z"/>
	<path id="structure107_text6458_Tu-1" bar:growlevel="0" bar:type="" class="st5" d="M1808.3,2051.4c-1.3,1.4-3,4.6-3.9,6.9
		c-10.4,28.6-20.7,40.3-39.5,45.4c-6.8,1.8-8.3,1.8-32.4,1.1c-13.9-0.4-35.3-0.7-47.7-0.6c-25.6,0.1-32.6,1-53,6.7
		c-38.7,10.8-71.6,15.6-107.2,15.7c-20.7,0.1-24.8-0.2-35.1-2c-23.6-4.2-44.9-10.9-52.5-16.3c-3.1-2.2-5.6-2.4-5.6-0.6
		c0,2.1,13.4,14.9,20.5,19.7c15,10.1,36,17.6,58,21.1c14.7,2.2,38.1,2.1,54.2-0.5c17.1-2.5,27.1-3.4,63.5-5.6
		c62.5-3.7,100.1-7.3,123.3-11.8c28.3-5.5,49.9-13.4,63.5-23.6c4.7-3.4,5.7-4.7,6.7-8.4c1.5-5.4,1.6-17.8,0.1-25.1
		c-0.6-3-2.5-9.7-4.2-15.1C1813.4,2047.6,1812.2,2046.6,1808.3,2051.4z"/>
	<path class="st6" d="M1991.2,1389.2c-10-61.3-39.5-134.1-76.6-188.3c-12.2-17.9-21.9-29.3-40.8-48.2
		c-35.4-35.3-52.6-47.9-93.2-68.5c-43.3-22.1-126-56.9-170.6-71.9l-11.6-4h-35.7c-38.8,0-80.8,1.3-94.4,2.8
		c-19,2.2-33.9,7.8-44.8,17c-5.8,4.8-9.1,8.9-23.6,28.9c-27.5,37.9-55.3,61.9-87.8,75.6c-4.6,1.9-8.8,4.5-11.7,7.1
		c-14.1,13.1-49.9,24.7-96.8,31.4c-16,2.3-26.9,3.4-37.7,3.4v81.2c1.2-0.2,6.7-2.7,12.7-5.8c14.5-7.5,20.4-9.7,32.7-12.2
		c49.9-9.9,105.4-29.9,140.5-50.5c20.3-11.9,35.7-23.5,63.8-48.1c20-17.5,32.3-27.4,40.4-32.7c14.5-9.4,65.1-31.7,71.8-31.7
		c2.5,0,7,2.6,7,4.1c0,2.3,1.8,2.4,12.4,0.7c14.2-2.2,49.4-2.2,66.3,0c58.1,7.7,132.2,32.7,185,62.6c26,14.7,46.2,30,66.6,50.5
		c24.4,24.6,42.7,50.6,63.3,90.1c26.1,50.3,41.5,106.3,46.5,169.7c1.6,20,2.1,49.7,1,65.3c-1.4,22.5-8.6,55.3-25.7,117.5
		c-3.2,11.9-5.9,22.3-5.9,23.1s0.5,1.5,1.3,1.5c1.3,0,8.2-19.2,27.6-77.6c13.5-40.6,16.2-50.5,19.3-71.4
		C1998.2,1472.3,1997.7,1429,1991.2,1389.2z"/>
	<path id="structure10_label12_PLd" bar:growlevel="0" bar:type="" class="st7" d="M1262.5,1481.7c-5.2,3.2-6.8,7.8-7.3,21.2
		c-0.5,13.7,0.8,23.4,5.8,44c5,20.5,9.5,28.7,18.5,33.2c6.2,3.1,11.9,3.1,18.3,0c6.6-3.1,8.5-6,9.6-14.6c1.4-11.4-0.7-47.6-3.3-55.4
		c-3.3-9.7-15.2-23.6-23.9-28C1274.1,1479.3,1266.8,1479,1262.5,1481.7z"/>
	<path id="structure111_Unlabeled-1861-1853_Unlabeled" bar:growlevel="0" bar:type="" class="st8" d="M1217.2,1927.5
		c0,0.6,4.3,12.5,9.5,26.4c5.3,13.8,9.8,26.9,10.2,29.1l0.5,4l16.7,9.7c9.2,5.4,16.7,10.4,16.9,11.2c0.2,0.7,1.1,1.4,2.1,1.4
		c2.3,0,9.4,4.1,10.2,5.8c0.3,0.7,1.3,1.3,2.2,1.3c0.9,0,3.6,1.3,6.1,2.9c19,12.1,57.8,32.4,79.7,41.8c12.2,5.2,44.4,17.5,45.8,17.5
		c0.4,0,0.8-1.2,0.8-2.5c0-3.9,4.2-11.5,8.4-15.1c7.9-6.8,24.6-12.9,40.1-14.8c4.3-0.5,10.1-1.4,12.9-1.8c2.7-0.5,7-0.9,9.5-0.9
		c2.4,0,8.2-0.3,12.7-0.5c9-0.7,10.5-1.9,5-3.9c-4.9-1.7-13-6.6-20.5-12.2c-9.9-7.5-21.7-19.7-35.5-36.7c-6.8-8.5-13.7-16.8-15-18.4
		l-2.6-3l-8.7,0.6c-4.9,0.3-8.8,0.9-8.8,1.4c0,0.5,4,4.8,8.8,9.5c13.1,12.9,17.3,20,17.3,29.8c0,10.8-8.7,18.2-25.8,21.8
		c-7.1,1.5-12.1,2-26.4,2c-19.4,0.1-22.8-0.4-38.3-5.6c-39.5-13.1-98.7-57.2-124.7-92.7C1220,1927,1217.2,1924.5,1217.2,1927.5z"/>
	<path id="structure113_Unlabeled-2253-1981_Unlabeled" bar:growlevel="0" bar:type="" class="st8" d="M1567.1,2046.8
		c-8.1,2.2-17.2,6.7-19.5,9.7c-5,6.3,0.1,15.1,10,17.4c7.1,1.6,16.7-0.4,27.5-5.9c12.2-6,15.7-11.6,10.6-17
		C1590.6,2045.5,1578.1,2043.7,1567.1,2046.8z"/>
	<path id="structure11_label13_LSV" bar:growlevel="0" bar:type="" class="st9" d="M1405.3,1450.7c-13.3,3.5-29.4,13.6-42.3,26.5
		c-21.2,21.2-34.5,50.3-41,90.4c-2.3,13.6-2.3,41.1-0.2,51.3c2.8,12.6,4.2,16.7,6,16.7c1,0,1.9-0.5,2.2-1.2
		c0.9-2.3,13-16.6,21.6-25.6c13.6-14,33.1-29.6,43.6-34.7c3.5-1.8,3.8-2.2,3.8-5.5c0-2.1,0.6-6.6,1.4-10c2.8-12.9,3.2-15.7,4.1-31
		c0.7-12.5,5.7-56.3,8.5-75C1413.7,1448.8,1413.2,1448.7,1405.3,1450.7z"/>
	<path id="structure12_label14_CPu" bar:growlevel="0" bar:type="" class="st10" d="M1549.3,1079.9c-17.9,2.4-42.9,9.8-59,17.5
		c-7.5,3.5-10.5,5.6-16.5,11.3c-12.1,11.5-25.7,30.8-33.8,47.6c-7.5,15.7-15.4,38.6-19.1,55.4c-2.3,10.4-3.1,32.1-2,54.5
		c1.2,24.4-0.4,100-2.5,119.5c-0.8,6.9-1.7,24.9-2.2,40.1c-0.6,24.8-1.1,30.2-4.4,54.9c-2.1,15.1-4.1,34.6-4.7,43.2
		c-0.9,16.6-1.8,24.1-4.1,32.8c-1,4-1.3,8.2-1,15.8c0.4,9.4,0.7,11.2,3.9,18.9c3.2,8,3.4,9.3,4,21.1l0.5,12.6l3.8,5.5
		c10.5,15.3,24,30,38.1,41.2c18.8,15,49.9,45.4,62.6,61.3c10.8,13.5,23,33.6,26.4,43.7c2.4,6.9,35.6,31.1,69.8,50.8
		c24.4,14,31.6,19.2,36,25.8c0.6,1,16.1,4,54.9,11c29.7,5.3,54.8,9.9,55.9,10.2c1.5,0.3,2.8-0.8,6.5-5.8
		c6.5-8.7,15.7-17.3,25.4-23.6c11.9-7.6,27.2-13.9,31-12.4c1.3,0.5,1.3,0.8-0.3,4c-2.2,4.3-10.9,15.9-25,33.3
		c-6,7.5-11.1,14.1-11.1,14.7c0,0.5,1.8,1.8,4,2.9l4.1,2l8.3-8.1c10.3-10.1,17.7-16,37.2-30.1c20.2-14.6,22.7-16.7,30.5-26.1
		c21.9-26.1,43.6-64.4,57.5-101.7c9.2-24.5,39.8-137.1,47-172.8c4.5-22.6,5.2-32.7,4.7-66.2c-1-55.7-7.8-98.7-23.1-144.6
		c-6.8-20.3-12.4-33.8-23-54.9c-29.3-57.6-60.9-96-104-126.1c-54.1-37.7-147.8-72.3-215.3-79.4
		C1593.9,1078.1,1562.4,1078.2,1549.3,1079.9z"/>
	<path id="structure13_label15_LSI" bar:growlevel="0" bar:type="" class="st11" d="M1209.6,1244.3c-0.7,2.1-3.9,20-4.9,27.3
		c-0.5,4-1.5,16.1-2.3,27c-0.9,13.3-1.8,20.9-2.7,23.1c-3.6,8.4-10.8,12.8-23.3,14.2c-4,0.5-7.5,0.9-7.6,0.9
		c-1.2,0,0.8,3.4,6.5,11.2c34.7,47.7,66,128.1,71.5,184.1c1.8,18.3,0.6,55.2-2.3,76.8c-0.8,5.8,0.9,5.7,5-0.2
		c4.5-6.4,13.2-12.9,24.7-18.5c5.5-2.7,10.4-4.9,11.1-4.9c2.8,0,0.8-2.4-2.7-3.3c-10.3-2.8-17.5-14.4-22.6-37.2
		c-8.5-37.7-7.8-55.6,2.3-63.3c8.3-6.1,23.1,0.6,34.5,15.8c2.3,3.1,5,7.2,6,9.2c2.9,5.6,4.3,17.1,5,39.8c0.4,15.2,0.8,21,1.6,21
		c1.8,0,17.7-30.6,27.8-53.4c13.5-30.5,45.2-59,71-64l5.1-1v-19v-19.1l-4.4-15.6c-11.9-41.8-24.6-70-38.2-85.1
		c-9.3-10.2-33.8-20.2-106.4-43.2c-38-12-42.8-13.9-48.5-19.4C1211.3,1243,1210.2,1242.5,1209.6,1244.3z"/>
	<path id="structure14_label16_LV" bar:growlevel="0" bar:type="" class="st12" d="M1429.9,1127.7c-2.1,1.4-10.7,8.6-19.3,16.1
		c-19.4,16.8-30.7,25.7-43.5,34.2c-12.6,8.2-31.4,18.7-43.8,24.3c-6.3,2.8-9.7,4.9-9.7,5.8c0,3.2,3.8,16.7,7.2,25.7
		c5.5,14.7,14.6,32.4,23.7,46c6.2,9.4,10.4,14.6,18.5,22.7c5.8,5.8,11.8,12.1,13.3,14c4.4,5.8,11.5,19,16.6,30.6
		c4.9,11.3,14.8,40.2,17.6,51.5c1,3.9,2.2,6.6,2.8,6.6c0.6,0,1.2-0.5,1.2-1.2c0-0.5,0.6-6.8,1.4-13.7c1.8-17.6,1.7-22.6-1.1-40.8
		c-2.2-14.6-2.3-18-2.2-41.1c0.1-17.7-0.3-28.8-1.3-37.3c-2.4-20.6-2.5-26.6-1-38.7c3.6-27.6,8-44.5,18.1-69.7
		c7.8-19.6,10.6-29.3,10.2-34.2C1438.1,1124.7,1434.8,1124.4,1429.9,1127.7z"/>
	<path id="structure15_label17_LSD" bar:growlevel="0" bar:type="" class="st13" d="M1302.7,1211c-20.2,8.5-64.6,22-85.2,25.9
		c-6.5,1.3-7.1,2.6-3.9,7.9c3.9,6.3,9.6,8.8,50.4,21.7c38,12.1,62.7,20.5,77.3,26.6c6.7,2.8,12.7,5,13.3,5c2.1,0,1.3-2.4-2-6.4
		c-9.8-11.7-23.9-36.7-31.3-55.7c-4.2-10.7-7.8-23-7.8-26.7C1313.5,1206.7,1313,1206.7,1302.7,1211z"/>
	<path class="st14" d="M1209.8,1239c-1.5-1.4-16.4,3.8-29.7,10.5l-14,7v78.9c0.1,0,0.2,0,0.3,0c13,0,17-0.3,20.2-1.5
		c5.7-2.3,9.7-5.6,11.9-9.8c2-3.9,2.3-6.5,4.4-36.4c1.1-15.1,2.6-26.1,5.6-39.3C1209.4,1243.6,1210,1239.3,1209.8,1239z"/>
	<path class="st15" d="M1991.2,1389.2c-10-61.3-39.5-134.1-76.6-188.3c-12.2-17.9-21.9-29.3-40.8-48.2
		c-35.4-35.3-52.6-47.9-93.2-68.5c-43.3-22.1-126-56.9-170.6-71.9l-11.6-4h-35.7c-38.8,0-80.8,1.3-94.4,2.8
		c-19,2.2-33.9,7.8-44.8,17c-5.8,4.8-9.1,8.9-23.6,28.9c-27.5,37.9-55.3,61.9-87.8,75.6c-4.6,1.9-8.8,4.5-11.7,7.1
		c-14.1,13.1-49.9,24.7-96.8,31.4c-16,2.3-26.9,3.4-37.7,3.4v81.2c1.2-0.2,6.7-2.7,12.7-5.8c14.5-7.5,20.4-9.7,32.7-12.2
		c49.9-9.9,105.4-29.9,140.5-50.5c20.3-11.9,35.7-23.5,63.8-48.1c20-17.5,32.3-27.4,40.4-32.7c14.5-9.4,65.1-31.7,71.8-31.7
		c2.5,0,7,2.6,7,4.1c0,2.3,1.8,2.4,12.4,0.7c14.2-2.2,49.4-2.2,66.3,0c58.1,7.7,132.2,32.7,185,62.6c26,14.7,46.2,30,66.6,50.5
		c24.4,24.6,42.7,50.6,63.3,90.1c26.1,50.3,41.5,106.3,46.5,169.7c1.6,20,2.1,49.7,1,65.3c-1.4,22.5-8.6,55.3-25.7,117.5
		c-3.2,11.9-5.9,22.3-5.9,23.1s0.5,1.5,1.3,1.5c1.3,0,8.2-19.2,27.6-77.6c13.5-40.6,16.2-50.5,19.3-71.4
		C1998.2,1472.3,1997.7,1429,1991.2,1389.2z"/>
	<path id="structure18_label23_DEn" bar:growlevel="0" bar:type="" class="st16" d="M1926.7,1717.2c-5.6,16.7-20.8,49.1-31.3,66.9
		c-13.2,22.2-27.8,42-37.9,51.3l-5.2,4.7l1.7,3.1c4.1,7.7,17.6,16.5,30,19.6c18.4,4.7,42.7,2.8,64.5-5c13.3-4.8,22.7-10.4,30.2-18.1
		c12.9-13.1,14.7-27.1,6.7-50.3c-8.6-25.1-18.5-41.7-32.4-54.7c-7.8-7.4-23-19.1-24.6-19.1
		C1927.8,1715.7,1927.1,1716.4,1926.7,1717.2z"/>
	<path id="structure19_label24_IEn" bar:growlevel="0" bar:type="" class="st17" d="M1836.4,1851.3c-56.1,40.8-67.4,59.4-61.7,102
		c2.1,15.2,8.5,38.7,10.7,38.7c3,0,13.2-14.4,26.3-36.9c14.2-24.4,17.6-29.1,29.2-40.6c16-15.9,37.5-31.7,57.1-41.8
		c4.8-2.5,8.7-5,8.7-5.5c0-0.6-3-1.3-7.4-1.6c-16.1-1.3-29.7-6.6-39.1-15.3c-3.1-2.8-5.9-5.9-6.1-6.9
		C1852.9,1840.3,1849.7,1841.7,1836.4,1851.3z"/>
	<path id="structure1_label0_VP" bar:growlevel="0" bar:type="" class="st18" d="M1304.3,1680.3c-6.3,8.4-12,22-14.3,34.5
		c-1.8,9.5-1.3,29.3,0.9,42.7c6.2,37,20.1,74.8,38.3,104.6c13.4,21.9,27.3,37.4,51.3,57.5c32,26.7,46.9,41.8,69.9,70.4
		c24.3,30.3,44,46.3,62.8,51.2c5,1.3,8.6,1.4,23,0.9c23.3-0.8,33.9-1.8,67.9-6.1c29.2-3.8,29.3-3.8,52.7-3.3
		c64.7,1.1,83.3,0.3,94.7-4.2c3.2-1.3,4-2,4.4-4.7c1.1-5.6-0.4-14.8-4-26.8c-3.3-10.8-3.7-13.2-4.6-27c-1.1-19.7-3.7-29.9-8.5-34.3
		c-2.7-2.5-3.9-3-7.7-3c-8.2,0-17.9,6.9-22.4,16c-4.9,9.6-9.8,36.2-10.8,57.4c-0.6,14.6-1.3,16.6-5.2,16.6c-6.6,0-8.1-4.7-5.7-17.5
		c0.9-5,2-12.5,2.3-16.7c0.7-9.3-0.7-27-3.1-37.8c-3.2-14.8-7.3-19.3-16.7-19.3c-6.4,0.1-11.2,2.3-17.4,7.9
		c-8.8,8.2-11.3,14.8-17.7,47c-2.2,11.3-4.9,23.1-5.8,26.2c-2.3,6.7-5.2,9.8-8.5,9c-4.4-1.1-6-6.8-8.2-28.4
		c-2.4-24.7-5.6-33.2-14-37.5c-9.2-4.7-21.8-4.9-47.7-0.6c-13,2.2-15.6,2.3-20.6,1.4c-9.4-1.5-17.4-6.1-27.4-15.5
		c-12.9-12.2-15.3-17.9-21.8-52.7c-4.9-26.5-8.7-37.2-18.5-51.4c-5.2-7.5-16.7-18.9-22.4-22.2c-7-4.1-22.5-8.6-43.4-12.7
		c-11-2.3-23.1-5.1-26.8-6.4c-25.2-9.1-42.7-25.6-52.3-49.5c-6.5-16.2-8.5-29.6-7.7-52.9c0.4-12.6,0.2-16.8-0.6-16.8
		C1308,1676.1,1306.1,1678,1304.3,1680.3z"/>
	<path id="structure20_label25_AIV" bar:growlevel="0" bar:type="" class="st19" d="M2021.9,1688.9c-1.5,8-6.8,23.5-10.1,29.6
		c-1.5,2.9-4.4,6.9-6.4,9.1c-1.9,2.1-3.3,4.2-3.1,4.9c0.2,0.5,8,5.5,17.4,10.9c44.4,26,145.6,83.1,147.2,83.1
		c3.2,0,38.5-66.8,37.4-70.4c-0.2-0.5-7.2-3.1-15.6-5.7c-44.7-14.1-105.8-38.6-151.3-60.8c-7-3.4-13.1-6.2-13.7-6.2
		C2023.4,1683.3,2022.5,1685.8,2021.9,1688.9z"/>
	<path id="structure21_label26_AID" bar:growlevel="0" bar:type="" class="st20" d="M2016.6,1625.5c-1.4,4.9-1.4,5.2,1.6,14.5
		c3.3,10.4,5.8,26.4,5.2,35.4l-0.5,6.8l15,7.3c45,21.7,95,42.1,139.8,57c11.8,3.9,22.9,7.2,24.8,7.3l3.2,0.2l3.9-9
		c4.7-10.9,6.8-18.1,8.8-28.8c0.8-4.5,2.9-12.4,4.7-17.7c1.8-5.4,3.1-10,2.7-10.3c-0.3-0.4-4.3-1.3-8.9-2.3
		c-50-10.3-119.3-32.2-177.1-56.3c-9.2-3.8-17.9-7.1-19.4-7.3C2017.9,1622,2017.6,1622.2,2016.6,1625.5z"/>
	<path id="structure22_label27_VCl" bar:growlevel="0" bar:type="" class="st21" d="M1985.5,1616.2c-13.1,3.6-23.9,12.9-31,26.6
		c-3.1,5.8-12.2,30.2-24.7,66.2l-1.8,5.3l2.6,2.1c1.4,1.1,6.8,5.3,12,9.4s10.3,8.2,11.4,9.1c3.1,2.3,12.7,3.6,24.7,3.2
		c8.9-0.4,11.1-0.7,16-3c10.5-4.8,17.5-14.7,23.5-33c4-12.5,4.9-19.9,4.3-34.5c-0.7-18.9-6.1-37.3-13.7-46.3
		C2003.7,1615.3,1995.4,1613.5,1985.5,1616.2z"/>
	<path id="structure23_label28_DCl" bar:growlevel="0" bar:type="" class="st22" d="M1996.6,1473c0,7.6-2.5,32.5-4.5,44.3
		c-2.9,16.7-6.2,28.3-21.2,73.1c-7.6,22.9-13.9,42.3-13.9,43c0,0.7,0.6,1.3,1.3,1.3s1.3-0.4,1.3-0.8c0-1.9,10.4-11.2,15.5-13.7
		c17.2-8.7,29.5-7.1,36.5,4.8c3.2,5.3,5,1.6,9.3-17.3c5.6-25.6,6-58,1.2-81.7c-3.5-17-10.3-35.6-17.8-48.8
		C1998.5,1466.9,1996.6,1465.9,1996.6,1473z"/>
	<path id="structure24_label29_DI" bar:growlevel="0" bar:type="" class="st23" d="M2026.3,1566.6c0,10.4-1.6,24.1-4.5,38.5
		c-1.5,7.2-2.7,13.7-2.7,14.5c0,2.5,53.3,23.6,95.1,37.6c36.8,12.2,94.1,27.7,109.1,29.3l4.1,0.4l2.5-5.8c2.5-5.8,4.5-8.8,16.3-26.3
		c5.9-8.8,16.7-29.1,16.7-31.5c0-1.5,0.4-1.4-18.4-5.4c-73-15.5-160.4-38.3-203.1-53.2c-6.6-2.3-12.7-4.3-13.5-4.6
		C2026.5,1559.8,2026.3,1560.5,2026.3,1566.6z"/>
	<path id="structure25_label30_GI" bar:growlevel="0" bar:type="" class="st24" d="M2003.8,1474.4c0,0.4,2.4,5.8,5.3,11.9
		c9.1,19,14.4,38.9,16.5,60.9l1.1,12l2.9,1.3c11.6,4.9,53.1,17.4,90.8,27.4c44.9,12.1,135.8,33.3,142.3,33.3c1.5,0,2.5-2,6.5-13.8
		c2.5-7.5,5.8-18,7.4-23.4c2.8-9.9,10.8-42.2,10.8-43.7c0-0.4-1.5-1.1-3.3-1.3c-62.1-9.4-126.5-24-231.8-52.8
		c-25.3-6.8-46.5-12.5-47.2-12.5C2004.4,1473.6,2003.8,1474,2003.8,1474.4z"/>
	<path id="structure26_label31_S2" bar:growlevel="0" bar:type="" class="st25" d="M2294.5,1278.9c-39.6,4.3-185.2,23.8-266.4,35.8
		c-56.1,8.3-53.3,7.7-52.8,9.4c0.3,0.8,2.7,9.1,5.5,18.4c10.5,35.6,15.8,71.1,15.8,106.9c0,14.9,0,15.3,2.3,18.8
		c2,2.9,3.3,3.9,7,4.9c68.2,19.3,139.4,37.6,185.9,48.1c47.3,10.5,96.3,19.1,96.3,16.7c0-0.3,3.2-16.6,7.2-36.2
		c7.1-35.7,10.7-57.5,12.5-76.3c4.5-45.3,3.4-97.4-2.7-140.2l-1-6.9l-3.3,0.2C2299.1,1278.5,2296.2,1278.7,2294.5,1278.9z"/>
	<path id="structure27_label32_S1ULp" bar:growlevel="0" bar:type="" class="st26" d="M2119.8,895.2c-12.3,11.6-75.9,70.4-121,111.8
		c-83.3,76.5-138.2,128.7-138.2,131.3c0,0.5,5.8,6.7,12.9,13.6c26.5,26.1,45.9,52.6,66.7,91.1c10.9,20.3,23.1,47.9,30.8,69.8
		c1.8,5.1,3.4,9.4,3.5,9.5c0.1,0.1,7.8-1,17.3-2.5c53.5-8.5,211.7-30.2,278.8-38.3c36-4.3,32.8-3.7,32.8-6.6c0-1.4-1-8-2.2-14.7
		c-8.1-45.2-21.2-90.7-38.3-133.7c-20.7-52-59.3-128.3-89.5-176.5c-16.3-26-42.5-61.5-45.4-61.5
		C2127.4,888.7,2123.6,891.6,2119.8,895.2z"/>
	<path id="structure28_label33_S1FL" bar:growlevel="0" bar:type="" class="st27" d="M1635.5,662c-2.8,20-10.4,75.3-16.8,123.1
		c-13.8,102-24,173.9-28.3,200.2c-1.8,10.4-2.9,19.2-2.5,19.4c0.5,0.4,5.7,2.2,11.8,4c14.5,4.2,28.8,9.5,57.3,20.8
		c66.8,26.5,129.1,55.3,155.4,71.8c5.2,3.3,10.1,6,10.8,6c0.7,0,3.2-2.3,5.7-5.2c13-15.1,32.1-35,111.6-115.8
		c83.3-84.9,135.7-139.8,139.9-146.7c1.3-2.1,1.2-2.3-1.3-5c-5.3-5.6-28-25.5-42.7-37.3c-44.5-35.6-110.7-78.8-153.5-99.9
		c-63.9-31.6-138.9-53.8-239.5-71.1l-2.8-0.5L1635.5,662z"/>
	<path id="structure29_label34_M1" bar:growlevel="0" bar:type="" class="st28" d="M1464.7,615.3c0,14.6,14,251,18.5,311.1
		c2,27,4.2,53.5,4.5,53.8c0.1,0.2,7.9,2.1,17.2,4.2c26.4,6.1,38,8.9,58.7,14.3c10.5,2.8,20.1,5,21.2,5c2.1,0,2.2-0.5,5.4-20.5
		c4.7-28.9,13.1-89,25.3-178.4c14.7-108.3,22-161.2,23.4-170.5c0.7-4.4,1.2-8.3,1-8.5c-1.1-1-53.9-8-79.7-10.5
		c-25.7-2.5-50.7-4-73.1-4.7l-22.3-0.5L1464.7,615.3L1464.7,615.3z"/>
	<path id="structure2_label1_AcbC" bar:growlevel="0" bar:type="" class="st29" d="M1407.1,1630.6c0,1.7,1.1,5.2,2.4,7.8
		c4.8,9.2,2.7,21.3-5.7,33.8c-2.2,3.2-4,6.2-4,6.6c0,0.4,2.5,0.8,5.7,1.1c16,1,31.7,15.8,42.5,40.2c15,33.9,14.4,47.6-2.5,53.9
		c-11.1,4.1-18.9,4.4-28.1,1c-2.4-1-4.9-1.7-5.2-1.7c-0.4,0-0.4,2-0.1,4.4c0.9,6.6-1.4,13.5-5.9,17.6c-2,1.7-4.6,3.4-5.8,3.8
		c-4.4,1.1-2.3,2.7,6.1,4.3c12.4,2.5,24.3,6.6,33.9,11.3c10.7,5.5,27.8,11.3,37.7,12.7c12.2,1.7,32.4-0.4,43.7-4.7
		c11.3-4.2,18.2-14.7,19.1-29.2c0.6-8.7-1-15.5-5.9-26c-4-8.5-16.2-27.1-23.4-35.6c-14.9-17.7-40.7-42.8-62.7-61.1
		c-12.9-10.6-22.1-20.3-32.1-33.7c-4-5.3-7.8-9.6-8.5-9.6C1407.6,1627.5,1407.1,1628.7,1407.1,1630.6z M1511.3,1788.8
		c6.6,2.4,14.1,8.3,16.6,12.9c2,3.7,2,4,0.5,6.3c-1.4,2.2-2,2.3-4.9,1.8c-6.7-1.3-19.2-9.1-23.2-14.6c-2.9-3.9-3.3-6.1-1.6-7.8
		C1500.3,1785.6,1503.8,1786,1511.3,1788.8z"/>
	<path id="structure30_label35_M2" bar:growlevel="0" bar:type="" class="st30" d="M1431,610.2c-66.7,1.7-108.3,13.3-153.6,42.8
		c-5.4,3.5-9.7,6.7-9.7,7.1c0,0.4,10.6,21.5,23.6,46.9c33.5,65.5,127.7,256.7,129.9,263.3c0.5,1.8,1,1.9,8.8,1.3
		c9.2-0.5,13.9,0,39.1,4.9c9.5,1.8,17.5,3.2,17.7,2.9c0.2-0.2,0-3.6-0.4-7.6c-1.2-9.9-5.8-74.8-9-126.5
		c-4-64.9-13.5-228.2-13.5-234.5C1463.8,609.5,1459.8,609.4,1431,610.2z"/>
	<path id="structure31_label36_Cg1" bar:growlevel="0" bar:type="" class="st31" d="M1253.7,670.7c-30.3,25.3-57.1,59.1-73.8,93.4
		c-8.1,16.5-11.9,34-12.8,59l-0.5,15l10.7,6.9c88.2,57.3,179.1,117.7,203.3,134.9c7.5,5.3,14,9.9,14.7,10.1c0.6,0.3,3.8-2.2,6.9-5.4
		c5.3-5.4,15-11.4,18.4-11.4c0.5,0,1-0.4,1-0.8c0-3.2-98.8-203.8-138.4-280.7c-8.6-16.9-16.2-30.8-16.7-30.8
		C1265.8,660.9,1260.1,665.3,1253.7,670.7z"/>
	<path id="structure32_label37_Cg2" bar:growlevel="0" bar:type="" class="st32" d="M1166.8,986V1132l2.2,4.7
		c2.5,5.3,7.9,11.1,12.8,13.6l3.3,1.7l-2.6,0.9c-5.6,2-14.1,12-15.3,18c-0.5,2.6-0.4,3,1.4,3c1.1,0,3.6-1.4,5.5-3.1
		c1.9-1.7,5.1-3.6,7.3-4.1c5.3-1.5,21.6-0.7,27.1,1.3c4.2,1.5,4.7,1.4,14.4-0.4c27.6-5.2,46.9-11,62.7-18.6c8.5-4.1,11.3-6,16.2-11
		c15.5-15.6,44.6-58.9,71.3-105.8c19.8-34.9,22.3-39.4,22.3-40.4c-0.1-2.4-67-47.7-169.7-114.8c-54.5-35.6-56.5-36.9-58-36.9
		C1167.1,840,1166.8,877.3,1166.8,986z"/>
	<path class="st6" d="M1991.2,1389.2c-10-61.3-39.5-134.1-76.6-188.3c-12.2-17.9-21.9-29.3-40.8-48.2
		c-35.4-35.3-52.6-47.9-93.2-68.5c-43.3-22.1-126-56.9-170.6-71.9l-11.6-4h-35.7c-38.8,0-80.8,1.3-94.4,2.8
		c-19,2.2-33.9,7.8-44.8,17c-5.8,4.8-9.1,8.9-23.6,28.9c-27.5,37.9-55.3,61.9-87.8,75.6c-4.6,1.9-8.8,4.5-11.7,7.1
		c-14.1,13.1-49.9,24.7-96.8,31.4c-16,2.3-26.9,3.4-37.7,3.4v81.2c1.2-0.2,6.7-2.7,12.7-5.8c14.5-7.5,20.4-9.7,32.7-12.2
		c49.9-9.9,105.4-29.9,140.5-50.5c20.3-11.9,35.7-23.5,63.8-48.1c20-17.5,32.3-27.4,40.4-32.7c14.5-9.4,65.1-31.7,71.8-31.7
		c2.5,0,7,2.6,7,4.1c0,2.3,1.8,2.4,12.4,0.7c14.2-2.2,49.4-2.2,66.3,0c58.1,7.7,132.2,32.7,185,62.6c26,14.7,46.2,30,66.6,50.5
		c24.4,24.6,42.7,50.6,63.3,90.1c26.1,50.3,41.5,106.3,46.5,169.7c1.6,20,2.1,49.7,1,65.3c-1.4,22.5-8.6,55.3-25.7,117.5
		c-3.2,11.9-5.9,22.3-5.9,23.1s0.5,1.5,1.3,1.5c1.3,0,8.2-19.2,27.6-77.6c13.5-40.6,16.2-50.5,19.3-71.4
		C1998.2,1472.3,1997.7,1429,1991.2,1389.2z"/>
	<path class="st33" d="M1441.1,2008.6c-0.2-4.4-0.9-7.6-2.4-10.3c-7.8-15.1-30.6-34.1-64.3-53.7c-20.7-12.1-28.3-17.9-46.2-35.7
		c-22.8-22.9-37.4-43.5-45.9-64.4c-11.7-28.8-25.3-100.4-29.3-153.9c-1.1-14.5-1.2-14.9-4.5-21.1c-5.5-10.2-7.3-17.9-7.6-31.9
		c-0.4-20.8-6.4-50.6-15.3-76.5c-5.9-17.5-13.7-35.1-26.2-60.3c-13.9-28.1-23.5-52.3-30.2-76.8c-1.3-5-2.4-7.6-3.4-7.8v407
		c8.2,0.1,16.3,5.7,21.8,17c3.9,7.9,6.2,15.8,8.7,29.5c4.5,25,16.2,49.4,35,73c13.9,17.4,40.9,41,66.6,58
		c26.8,17.8,47.6,27.6,68,32.1c9,2,38.5,1.4,49.3-0.9c11.6-2.4,19-6.4,23-12.4C1441.3,2015.2,1441.5,2014.6,1441.1,2008.6z"/>
	<path class="st33" d="M1441.1,2008.6c-0.2-4.4-0.9-7.6-2.4-10.3c-7.8-15.1-30.6-34.1-64.3-53.7c-20.7-12.1-28.3-17.9-46.2-35.7
		c-22.8-22.9-37.4-43.5-45.9-64.4c-11.7-28.8-25.3-100.4-29.3-153.9c-1.1-14.5-1.2-14.9-4.5-21.1c-5.5-10.2-7.3-17.9-7.6-31.9
		c-0.4-20.8-6.4-50.6-15.3-76.5c-5.9-17.5-13.7-35.1-26.2-60.3c-13.9-28.1-23.5-52.3-30.2-76.8c-1.3-5-2.4-7.6-3.4-7.8v407
		c8.2,0.1,16.3,5.7,21.8,17c3.9,7.9,6.2,15.8,8.7,29.5c4.5,25,16.2,49.4,35,73c13.9,17.4,40.9,41,66.6,58
		c26.8,17.8,47.6,27.6,68,32.1c9,2,38.5,1.4,49.3-0.9c11.6-2.4,19-6.4,23-12.4C1441.3,2015.2,1441.5,2014.6,1441.1,2008.6z"/>
	<path class="st34" d="M1441.1,2008.6c-0.2-4.4-0.9-7.6-2.4-10.3c-7.8-15.1-30.6-34.1-64.3-53.7c-20.7-12.1-28.3-17.9-46.2-35.7
		c-22.8-22.9-37.4-43.5-45.9-64.4c-11.7-28.8-25.3-100.4-29.3-153.9c-1.1-14.5-1.2-14.9-4.5-21.1c-5.5-10.2-7.3-17.9-7.6-31.9
		c-0.4-20.8-6.4-50.6-15.3-76.5c-5.9-17.5-13.7-35.1-26.2-60.3c-13.9-28.1-23.5-52.3-30.2-76.8c-1.3-5-2.4-7.6-3.4-7.8v407
		c8.2,0.1,16.3,5.7,21.8,17c3.9,7.9,6.2,15.8,8.7,29.5c4.5,25,16.2,49.4,35,73c13.9,17.4,40.9,41,66.6,58
		c26.8,17.8,47.6,27.6,68,32.1c9,2,38.5,1.4,49.3-0.9c11.6-2.4,19-6.4,23-12.4C1441.3,2015.2,1441.5,2014.6,1441.1,2008.6z"/>
	<path class="st35" d="M1242.3,1504.2c-7.4-35.9-26-86.1-44.6-120.2c-11.9-21.8-28.6-46.2-31.6-46.3v71c0.4-0.7,0.7-0.3,0.8,1.5
		c0,3.4,5,21.6,9.7,35.5c6.5,19.1,12.9,34.1,24.1,56.9c6.2,12.4,13.4,27.7,16.1,34.1c10.3,24.4,18.3,51.2,21.7,72.6
		c1.3,8.2,1.9,10.1,3,9.9c1-0.2,1.6-1.8,2.1-5.2C1249,1570.5,1248.6,1535.1,1242.3,1504.2z"/>
	<path class="st34" d="M1441.1,2008.6c-0.2-4.4-0.9-7.6-2.4-10.3c-7.8-15.1-30.6-34.1-64.3-53.7c-20.7-12.1-28.3-17.9-46.2-35.7
		c-22.8-22.9-37.4-43.5-45.9-64.4c-11.7-28.8-25.3-100.4-29.3-153.9c-1.1-14.5-1.2-14.9-4.5-21.1c-5.5-10.2-7.3-17.9-7.6-31.9
		c-0.4-20.8-6.4-50.6-15.3-76.5c-5.9-17.5-13.7-35.1-26.2-60.3c-13.9-28.1-23.5-52.3-30.2-76.8c-1.3-5-2.4-7.6-3.4-7.8v407
		c8.2,0.1,16.3,5.7,21.8,17c3.9,7.9,6.2,15.8,8.7,29.5c4.5,25,16.2,49.4,35,73c13.9,17.4,40.9,41,66.6,58
		c26.8,17.8,47.6,27.6,68,32.1c9,2,38.5,1.4,49.3-0.9c11.6-2.4,19-6.4,23-12.4C1441.3,2015.2,1441.5,2014.6,1441.1,2008.6z"/>
	<path id="structure5_label4_SHy" bar:growlevel="0" bar:type="" class="st36" d="M1319,1551.6c-5.9,12.1-13.7,23.8-17.5,26.7
		c-1.6,1.2-6.5,3.4-11,5c-36.7,13.3-49,27.3-49,55.4c0,22.7,10.1,41.8,26.5,49.9c6.3,3.1,15.8,5.3,23.1,5.3c4.2,0,5.2-0.3,5.7-1.7
		c0.8-2.6,7.1-12.1,10.7-16.1c2.1-2.3,3.9-5.7,5.1-9.7c2.1-6.8,6.7-16.3,11.3-23.6l3.1-4.7l-2.3-6.7c-6.8-20.3-7-48.2-0.5-77.9
		c1.1-4.7,1.9-9.2,1.9-10.1C1326.1,1539.7,1323.5,1542.7,1319,1551.6z"/>
	<path id="structure66_label77_cg" bar:growlevel="0" bar:type="" class="st37" d="M1418.7,974c-5.9,1.9-11.5,5.6-16.6,11.1
		c-4.9,5.2-7.7,9.4-17,26.4c-25,45.3-49.4,84.2-69.5,110.3c-3.6,4.8-6.6,9.1-6.6,9.7c0,2,3.6,0.9,13.2-3.9
		c30.4-15.3,53.9-37.3,82.4-77.4c15.7-22.1,24.2-29.2,42.5-35.1c15.7-5,32.6-6.3,100.2-7.4c31.6-0.5,38.9-0.9,38.9-1.9
		c0-0.6-0.1-1.2-0.3-1.2c-0.2,0-17-4.2-37.5-9.4c-38.6-9.7-75.4-18-94-21.2C1440.9,971.8,1425.8,971.8,1418.7,974z"/>
	<path id="structure67_label78_lo" bar:growlevel="0" bar:type="" class="st38" d="M1946.7,1994.6c-33.4,5.4-65.8,30.1-82.2,62.7
		c-3.9,7.7-10.1,24.6-10.1,27.4c0,2.2,1.5,2.2,11-0.1c37.7-8.8,70.2-26.4,99.5-53.6c8.8-8.1,20.1-21.6,20.1-24
		c0-3.1-7.3-9.5-12.8-11.1C1966.6,1994.3,1953.1,1993.6,1946.7,1994.6z"/>
	<path id="structure68_label79_aca" bar:growlevel="0" bar:type="" class="st39" d="M1399.2,1680.3c-2.8,0.5-8.8,8.4-12.5,16.2
		c-5.9,12.3-6.8,27.5-2.4,40.4c4.3,13,19.5,31.3,30.5,36.8c5,2.5,6,2.7,14.8,2.6c14.9-0.1,24.4-4.4,27.5-12.5
		c3.2-8.6-0.5-24.9-10.5-46.2c-8.4-17.9-17.7-28.9-29.1-34.4C1411.9,1680.6,1403.8,1679.2,1399.2,1680.3z"/>
	<path id="structure69_label80_mfb" bar:growlevel="0" bar:type="" class="st40" d="M1304.3,1680.3c-6.3,8.4-12,22-14.3,34.5
		c-1.8,9.5-1.3,29.3,0.9,42.7c6.2,37,20.1,74.8,38.3,104.6c13.4,21.9,27.3,37.4,51.3,57.5c32,26.7,46.9,41.8,69.9,70.4
		c24.3,30.3,44,46.3,62.8,51.2c5,1.3,8.6,1.4,23,0.9c23.3-0.8,33.9-1.8,67.9-6.1c29.2-3.8,29.3-3.8,52.7-3.3
		c64.7,1.1,83.3,0.3,94.7-4.2c3.2-1.3,4-2,4.4-4.7c1.1-5.6-0.4-14.8-4-26.8c-3.3-10.8-3.7-13.2-4.6-27c-1.1-19.7-3.7-29.9-8.5-34.3
		c-2.7-2.5-3.9-3-7.7-3c-8.2,0-17.9,6.9-22.4,16c-4.9,9.6-9.8,36.2-10.8,57.4c-0.6,14.6-1.3,16.6-5.2,16.6c-6.6,0-8.1-4.7-5.7-17.5
		c0.9-5,2-12.5,2.3-16.7c0.7-9.3-0.7-27-3.1-37.8c-3.2-14.8-7.3-19.3-16.7-19.3c-6.4,0.1-11.2,2.3-17.4,7.9
		c-8.8,8.2-11.3,14.8-17.7,47c-2.2,11.3-4.9,23.1-5.8,26.2c-2.3,6.7-5.2,9.8-8.5,9c-4.4-1.1-6-6.8-8.2-28.4
		c-2.4-24.7-5.6-33.2-14-37.5c-9.2-4.7-21.8-4.9-47.7-0.6c-13,2.2-15.6,2.3-20.6,1.4c-9.4-1.5-17.4-6.1-27.4-15.5
		c-12.9-12.2-15.3-17.9-21.8-52.7c-4.9-26.5-8.7-37.2-18.5-51.4c-5.2-7.5-16.7-18.9-22.4-22.2c-7-4.1-22.5-8.6-43.4-12.7
		c-11-2.3-23.1-5.1-26.8-6.4c-25.2-9.1-42.7-25.6-52.3-49.5c-6.5-16.2-8.5-29.6-7.7-52.9c0.4-12.6,0.2-16.8-0.6-16.8
		C1308,1676.1,1306.1,1678,1304.3,1680.3z"/>
	<path id="structure6_label5_CB" bar:growlevel="0" bar:type="" class="st41" d="M1451.2,1822.1c0,0.6,2.1,3.5,4.5,6.5
		c13.8,16.1,19.5,29.3,24.8,57.4c6.8,36.5,9.2,42.8,20.5,53.5c17.8,16.8,25.3,18.8,53,14.3c16.1-2.6,31.2-3,38.3-0.9
		c2.5,0.8,6.3,2.7,8.4,4.3c7,5.3,9.5,13.4,12.1,39.3c0.7,8.2,2.1,16.8,2.8,19.2c2.8,8.5,8.6,7.6,12.1-1.7c1-2.8,3.9-15.3,6.4-27.7
		c2.5-12.4,5.6-25.7,6.9-29.7c4.9-14.8,17.4-25.7,29.3-25.7c10.3,0,15.4,9.4,18.6,33.8c1.3,10.1,0.5,33-1.3,40.5
		c-0.8,3-1.4,7.1-1.4,9.1c0,6.7,5.6,10.8,9.4,7c0.8-0.7,1.4-1.4,1.5-1.5c0-0.1,0.4-7.1,0.8-15.5c1.1-21.4,5.9-46.7,10.9-56.3
		c4.1-8.3,14.8-15.7,22.4-15.7c10.6,0,15.5,11.5,17.1,40.5c0.6,11.6,1.2,14.9,3.9,23.9c3.9,12.8,5.5,21,4.7,24.9c-0.5,2.4-0.3,3,1,3
		c2.3,0,10.6-6.8,14.6-12c5.8-7.7,11.9-17.2,11.9-18.6c0-0.7-1.4-5.8-3.1-11.1c-6.3-19.7-8.9-38.7-7.6-54c1.3-13.6,5-23.4,12.4-32.8
		c2.1-2.5,3.7-5.1,3.7-5.9c0-1.2-5.4-4.2-7.6-4.2c-0.6,0-3.2,2.5-5.7,5.6c-5.9,7.4-15.5,16.5-22.6,21.7
		c-19.9,14.6-20.5,0.8-1.4-29.3c2.2-3.3,3.9-6.8,3.9-7.6c0-1.4-6.6-2.8-55.4-11.6l-55.4-10.1l-2.8,1.8c-7,4.2-24.8,1.2-69-11.8
		c-25.2-7.4-37.3-10.7-51.3-14c-9.4-2.2-12.2-2.4-29.3-2.5l-18.9-0.2l-10.5-3.3C1451.9,1820.6,1451.2,1820.5,1451.2,1822.1z"/>
	<path id="structure70_label82_SIB" bar:growlevel="0" bar:type="" class="st42" d="M1299.8,1821.2c-4.3,18-4.7,20.8-4.7,34.1
		l-0.1,13.2l4.2,6.1c11.6,16.9,35.1,41.9,50.2,53.6c7.7,5.8,11.3,8.2,31.9,20.4c6,3.4,14.7,9.1,19.3,12.4c4.7,3.3,9.9,6.7,11.7,7.3
		c5.4,1.9,18,1.4,18-0.8c0-3.1-25.7-27.7-50-47.8c-20.5-17-31.9-29-43.7-46.1c-10.7-15.4-20.3-33.1-27.8-51.8
		c-2.3-5.7-4.8-10.4-5.5-10.6C1302.5,1811.1,1301.6,1813.8,1299.8,1821.2z"/>
	<path id="structure71_label83_ICj" bar:growlevel="0" bar:type="" class="st43" d="M1485.7,2061.3c-5.1,1.1-7.7,2.9-10.1,7.3
		c-4.5,7.9-0.6,17,8,18.9c12.5,2.8,24.7-6.3,24.1-18c-0.3-4.1-0.6-5.1-2.6-6.6C1502.4,2060.8,1491.7,2060,1485.7,2061.3z"/>
	<path id="structure72_label84_ICj" bar:growlevel="0" bar:type="" class="st43" d="M1648.6,2040.7c-0.6,0.6-1.2,2.5-1.2,4.1
		c0,2.3,0.6,3.3,3.4,5.2c3.8,2.6,13.4,5.9,17.4,5.9c10.7,0,13.3-9.4,3.7-13.7C1666.6,2039.8,1650.4,2038.8,1648.6,2040.7z"/>
	<path id="structure73_label85_LPO" bar:growlevel="0" bar:type="" class="st44" d="M1253.6,1690.2c2.6,42.9,15.3,113.8,26.3,146.7
		c3.8,11.3,10.7,25.5,12.4,25.5c0.8,0,1.4-2.3,1.7-8.8c0.6-10.1,2.3-19.4,6.2-35.6l2.8-11.4l-3.2-10.6c-12.1-39.3-14.5-69.4-7.3-92
		c1.2-3.7,2.2-7.2,2.2-7.8c0-0.6-1.9-1.3-4.2-1.5c-14.6-1.8-21.2-4-29.8-10.6c-3.2-2.4-6.1-4.3-6.7-4.3
		C1253.2,1679.7,1253.1,1682.8,1253.6,1690.2z"/>
	<path id="structure74_label86_IG" bar:growlevel="0" bar:type="" class="st45" d="M1182.1,1166.8c-4.5,0.9-8.4,3.3-8.8,5.7
		c-0.4,1.7,1.3,1.8,12.9,0.5c16.4-1.8,22-2.9,22-4.1C1208.2,1166.4,1191.1,1165,1182.1,1166.8z"/>
	<path id="structure75_label87_E" bar:growlevel="0" bar:type="" class="st46" d="M1514.7,1079.3c-20,7.6-50.8,22.1-59.7,28.1
		c-9.1,6.2-19.1,14.5-19.1,15.8c0,0.8,0.7,1.9,1.5,2.5c3.3,2.4,1,12.6-7.9,34.5c-7.5,18.1-9.5,24-12.5,36.6
		c-6.1,25.7-8.6,48.1-6.8,61.9c2.3,17.7,3.1,33.7,3,54.6c-0.3,22.7,1.2,40.5,3.3,40.5c1.7,0,2.4-29,2.1-84.6l-0.3-48.1l2.6-10.8
		c7.4-31.3,19.3-59,34.7-80.6c17.8-25,27.4-31.9,57.2-41.5c21.5-6.8,22-7,22-8.9C1534.9,1074.7,1526.7,1074.7,1514.7,1079.3z"/>
	<path id="structure76_label88_IPAC" bar:growlevel="0" bar:type="" class="st47" d="M1541.6,1787.1c1.3,9.8-3.2,23.1-10,29.6
		c-3.6,3.5-11.3,7.6-16.2,8.5c-5.6,1.1-3.1,2.6,8.1,5.2c9.6,2.3,30.4,8,68.1,19c15.7,4.5,31.9,7.6,40.8,7.8
		c9.5,0.2,11.4-0.5,11.4-3.8c0-4.3-6.8-9.4-34.2-25.2c-25.2-14.6-58-37-64.3-44C1542.2,1780.7,1541,1781.8,1541.6,1787.1z
		 M1555.3,1804.3c8.4,4.2,14.8,11.2,13.5,14.6c-1.3,3.2-16.9-1.2-22.7-6.3c-2.6-2.2-3.1-3.2-2.6-5c0.6-2.7,3.6-5.5,5.8-5.5
		C1550,1802.1,1552.7,1803.1,1555.3,1804.3z"/>
	<path id="structure77_label89_AcbSh" bar:growlevel="0" bar:type="" class="st48" d="M1390,1577.2c-30.9,19.2-65.3,57.7-75.2,84.5
		c-4.1,10.6-5.2,19.5-5.2,37.8c0,17.2,1.3,26.7,5.4,39.7c7.5,23.8,23.7,42.6,44.9,52.2c6.5,2.9,9.4,3.3,9.4,1.3
		c0-0.7-0.4-1.3-0.9-1.3c-1.7,0-11.7-13-14.8-19.3c-5.1-10.5-6.9-18.3-7.5-32c-1.3-33.7,12.4-69.2,36.6-94.8
		c7.9-8.4,13.1-11.7,19.4-12.3l4.5-0.4l0.8-10.4c1-12.6-0.1-21.1-3.8-30.6c-1.5-3.7-3.2-9.3-3.8-12.4
		C1398.6,1572.3,1398,1572.2,1390,1577.2z"/>
	<path id="structure78_label90_STMA" bar:growlevel="0" bar:type="" class="st49" d="M1397.9,1633.8c-11.6,3.5-32.7,30.1-41.3,52
		c-13.1,33.4-13.8,65.2-1.9,87.9c3.6,6.8,12.6,17,18.7,21.2c3.9,2.6,13.8,5.3,19.5,5.3c11.7,0,18.5-7.6,18.6-20.5v-6.6l-7.3-6.9
		c-11.3-10.6-19.9-24.6-22.3-36c-2.3-11.2-0.2-25.7,5.3-36c1.5-2.8,5.8-8.8,9.5-13.2c9.2-11.1,13.9-20.7,14.6-29.5
		c0.5-7.6-0.6-12-4-15.9C1405.1,1632.8,1402.7,1632.4,1397.9,1633.8z"/>
	<path id="structure79_label91_LSS" bar:growlevel="0" bar:type="" class="st50" d="M1809.9,1834.9c-14,4.5-30.4,15-40.6,25.9
		c-10,10.9-26.5,37.9-29.6,48.6c-2,6.9-1.3,8.8,3,8.8c8.5,0,24-14.6,50-47c25-31.3,29.8-38.6,25.2-38.5
		C1816.9,1832.8,1813.4,1833.7,1809.9,1834.9z"/>
	<path class="st51" d="M1232,1967.8c-2.8-7.2-8.5-22.2-12.5-33.4c-4.1-11.2-9.3-24.2-11.6-29c-5.6-12.1-9.1-22.9-11.9-36.9
		c-1.3-6.6-2.9-14.2-3.7-16.9c-3.5-12.4-10.2-22.4-17.6-26.2c-2.1-1.1-5.4-1.6-8.7-1.7v76.7c0.4,0.8,1,3.1,1.7,6.1
		c5.3,25.6,23.3,47.8,57.8,71.2c5,3.4,9.7,6.2,10.4,6.2C1237.8,1983.9,1237.2,1981.5,1232,1967.8z"/>
	<path id="structure80_label92_mcer" bar:growlevel="0" bar:type="" class="st52" d="M1995.2,2004.2c-2.4,1.3-6.2,3.8-8.4,5.5
		c-7.7,6.4-11.8,14.7-7.1,14.7c3.8,0,11.9-4.9,18-10.9c5-4.9,6.1-6.5,6.1-8.8c0-2.3-0.4-2.8-2.2-2.8
		C2000.6,2001.9,1997.6,2003,1995.2,2004.2z"/>
	<path id="structure82_label94_acer" bar:growlevel="0" bar:type="" class="st53" d="M1268.3,2010.1c-1.2,0.6-1.6,2-1.6,4.6
		c0,3.1,0.5,4.1,3.2,6.7c6.3,5.8,13.9,4.7,13.9-2.2c0-4-1-5.5-5.5-8.1C1274.8,2009,1270.9,2008.6,1268.3,2010.1z"/>
	<path class="st54" d="M1441.1,2008.6c-0.2-4.4-0.9-7.6-2.4-10.3c-7.8-15.1-30.6-34.1-64.3-53.7c-20.7-12.1-28.3-17.9-46.2-35.7
		c-22.8-22.9-37.4-43.5-45.9-64.4c-11.7-28.8-25.3-100.4-29.3-153.9c-1.1-14.5-1.2-14.9-4.5-21.1c-5.5-10.2-7.3-17.9-7.6-31.9
		c-0.4-20.8-6.4-50.6-15.3-76.5c-5.9-17.5-13.7-35.1-26.2-60.3c-13.9-28.1-23.5-52.3-30.2-76.8c-1.3-5-2.4-7.6-3.4-7.8v407
		c8.2,0.1,16.3,5.7,21.8,17c3.9,7.9,6.2,15.8,8.7,29.5c4.5,25,16.2,49.4,35,73c13.9,17.4,40.9,41,66.6,58
		c26.8,17.8,47.6,27.6,68,32.1c9,2,38.5,1.4,49.3-0.9c11.6-2.4,19-6.4,23-12.4C1441.3,2015.2,1441.5,2014.6,1441.1,2008.6z"/>
	<path class="st55" d="M1175.8,1151.1c0-3.6-0.4-4.8-2.6-7c-2.2-2.2-3.3-2.6-7.2-2.6v19.8
		C1172.1,1161.3,1175.7,1157.4,1175.8,1151.1z"/>
	<path id="structure96_text4051-7-1_S1DZ" bar:growlevel="0" bar:type="" class="st56" d="M2081,839c-0.4,1.2-20.7,23.5-38.5,42.3
		c-18.4,19.4-37.6,39.2-115.6,118.9c-83.1,84.8-102.2,104.9-102.2,108c0,0.7,1.7,2.5,3.8,4.1c5.7,4,15.7,12.1,23.1,18.8
		c3.6,3.2,7.3,5.9,8.1,5.9c0.8,0,7.6-6.1,14.9-13.6c22.5-22.6,66.6-63.9,160.2-149.8c69.2-63.5,92.3-85.2,92.3-87
		c0-2.6-42.1-48.4-44.6-48.4C2081.9,838.2,2081.2,838.6,2081,839z"/>
	<path id="structure98_text5838_Pir-2" bar:growlevel="0" bar:type="" class="st57" d="M2098.4,1796.3c-6.2,3.2-14.8,11.8-26.1,26.3
		c-11.4,14.7-16.7,19.5-36.2,33.4c-20.4,14.6-25.6,18.6-36.4,28.4c-24.6,22.4-30.6,25.4-55.4,26.6c-26.5,1.4-42.5,4.1-56.5,10
		c-17.5,7.2-27.5,15.7-38.8,33.1c-15.3,23.4-21.6,40.3-21.7,57.9c0,13.3-3.4,17.2-15.5,17.2c-3.4,0-6.1,0.3-6.1,0.5s1.7,4.4,3.8,9.3
		c3.2,7.4,4.3,9.1,6.6,10c1.5,0.6,5.3,3.3,8.5,6c9.5,8.1,12.1,9.8,14.2,9.8s2.1,0.2,3.9-9.4c3.3-17.5,13.3-52.3,17.6-61.4
		c9-19,27.3-32.1,51.2-37.1c9-1.8,12.1-2.1,31.5-2.8c22.1-0.8,27.5-1.8,38.3-7c5.6-2.7,8.6-5.1,17.1-13.6
		c21-20.8,27.2-25.8,41.8-33.8c3.5-1.9,9.2-5.6,12.6-8.2c12.9-9.8,43.9-43.4,54.4-58.9c11.4-16.8,13.1-30.7,4.2-36.4
		C2107.5,1793.6,2103.7,1793.6,2098.4,1796.3z"/>
	<path class="st35" d="M1242.3,1504.2c-7.4-35.9-26-86.1-44.6-120.2c-11.9-21.8-28.6-46.2-31.6-46.3v71c0.4-0.7,0.7-0.3,0.8,1.5
		c0,3.4,5,21.6,9.7,35.5c6.5,19.1,12.9,34.1,24.1,56.9c6.2,12.4,13.4,27.7,16.1,34.1c10.3,24.4,18.3,51.2,21.7,72.6
		c1.3,8.2,1.9,10.1,3,9.9c1-0.2,1.6-1.8,2.1-5.2C1249,1570.5,1248.6,1535.1,1242.3,1504.2z"/>
	<text id="label30" bar:growlevel="0" transform="matrix(1 0 0 1 2128.2939 1563.4805)" class="st58 st59 st60">GI</text>
	<text id="label31" bar:growlevel="0" transform="matrix(1 0 0 1 2139.876 1417.7129)" class="st58 st59 st60">S2</text>
	<text id="label32" bar:growlevel="0" transform="matrix(1 0 0 1 2055.334 1145.0234)" class="st58 st59 st60">S1ULp</text>
	<text id="label33" bar:growlevel="0" transform="matrix(1 0 0 1 1767.665 873.5059)" class="st58 st59 st60">S1FL</text>
	<text id="label34" bar:growlevel="0" transform="matrix(1 0 0 1 1525.5029 797.7734)" class="st58 st59 st60">M1</text>
	<text id="label35" bar:growlevel="0" transform="matrix(1 0 0 1 1389.0029 801.9746)" class="st58 st59 st60">M2</text>
	<text id="label36" bar:growlevel="0" transform="matrix(1 0 0 1 1274.2236 857.3633)" class="st58 st59 st60">Cg1</text>
	<text id="label37" bar:growlevel="0" transform="matrix(1 0 0 1 1225.4736 1024.1953)" class="st58 st59 st60">Cg2</text>
	<text id="Unlabeled-1861-1853" bar:growlevel="0" transform="matrix(1 0 0 1 1405.3242 2052.2949)" class="st58 st59 st60">grey</text>
	<text id="label9" bar:growlevel="0" transform="matrix(1 0 0 1 1169.959 1876.4023)" class="st58 st59 st60">VOLT</text>
	<text id="label0" bar:growlevel="0" transform="matrix(1 0 0 1 1391.7041 1880.5742)" class="st58 st59 st60">VP</text>
	<text id="label1" bar:growlevel="0" transform="matrix(1 0 0 1 1477.7988 1767.1172)" class="st58 st59 st60">AcbC</text>
	<text id="label2" bar:growlevel="0" transform="matrix(1 0 0 1 1343.5254 2003.8359)" class="st58 st59 st60">HDB</text>
	<text id="label3" bar:growlevel="0" transform="matrix(1 0 0 1 1202.7939 1832.4746)" class="st58 st59 st60">VDB</text>
	<text id="label4" bar:growlevel="0" transform="matrix(1 0 0 1 1262.584 1643.3516)" class="st58 st59 st60">SHy</text>
	<text id="label5" bar:growlevel="0" transform="matrix(1 0 0 1 1622.5254 1965.1602)" class="st58 st59 st60">CB</text>
	<text id="label85" bar:growlevel="0" transform="matrix(1 0 0 1 1274.6445 1751.791)" class="st58 st59 st60">LPO</text>
	<text id="label84" bar:growlevel="0" transform="matrix(1 0 0 1 1663.8945 2049.623)" class="st58 st59 st60">ICj</text>
	<text id="label87" bar:growlevel="0" transform="matrix(1 0 0 1 1450.1445 1123.0918)" class="st58 st59 st60">E</text>
	<text id="label86" bar:growlevel="0" transform="matrix(1 0 0 1 1187.5635 1170.1641)" class="st58 st59 st60">IG</text>
	<text id="label81" bar:growlevel="0" transform="matrix(1 0 0 1 1856.584 1177.4316)" class="st58 st59 st60">ec</text>
	<text id="label80" bar:growlevel="0" transform="matrix(1 0 0 1 1557.4541 2026.0098)" class="st58 st59 st60">mfb</text>
	<text id="label83" bar:growlevel="0" transform="matrix(1 0 0 1 1492.9541 2075.9707)" class="st58 st59 st60">ICj</text>
	<text id="label82" bar:growlevel="0" transform="matrix(1 0 0 1 1348.8047 1910.8789)" class="st58 st59 st60">SIB</text>
	<text id="label89" bar:growlevel="0" transform="matrix(1 0 0 1 1377.0029 1608.1582)" class="st58 st59 st60">AcbSh</text>
	<text id="label88" bar:growlevel="0" transform="matrix(1 0 0 1 1590.4248 1833.8574)" class="st58 st59 st60">IPAC</text>
	<text id="text4051-7-1" bar:growlevel="0" transform="matrix(1 0 0 1 1986.085 976.8691)" class="st58 st59 st60">S1DZ</text>
	<text id="label18" bar:growlevel="0" transform="matrix(1 0 0 1 1167.7695 1295.2227)" class="st58 st59 st60">SHi</text>
	<text id="label12" bar:growlevel="0" transform="matrix(1 0 0 1 1272.0059 1536.7754)" class="st58 st59 st60">PLd</text>
	<text id="label13" bar:growlevel="0" transform="matrix(1 0 0 1 1344.9053 1547.1855)" class="st58 st59 st60">LSV</text>
	<text id="label10" bar:growlevel="0" transform="matrix(1 0 0 1 1169.2881 1593.2852)" class="st58 st59 st60">MS</text>
	<text id="label11" bar:growlevel="0" transform="matrix(1 0 0 1 1189.2324 1458.4004)" class="st58 st59 st60">Ld</text>
	<text id="label16" bar:growlevel="0" transform="matrix(1 0 0 1 1360.9824 1243.2324)" class="st58 st59 st60">LV</text>
	<text id="label17" bar:growlevel="0" transform="matrix(1 0 0 1 1260.665 1254.7227)" class="st58 st59 st60">LSD</text>
	<text id="label14" bar:growlevel="0" transform="matrix(1 0 0 1 1637.5547 1410.3301)" class="st58 st59 st60">CPu</text>
	<text id="label15" bar:growlevel="0" transform="matrix(1 0 0 1 1287.7852 1392.5684)" class="st58 st59 st60">LSI</text>
	<text id="label92" bar:growlevel="0" transform="matrix(1 0 0 1 1990.7139 2013.1074)" class="st58 st59 st60">mcer</text>
	<text id="label90" bar:growlevel="0" transform="matrix(1 0 0 1 1384.9824 1770.125)" class="st58 st59 st60">STMA</text>
	<text id="label91" bar:growlevel="0" transform="matrix(1 0 0 1 1778.0439 1870.5527)" class="st58 st59 st60">LSS</text>
	<text id="label94" bar:growlevel="0" transform="matrix(1 0 0 1 1274.6445 2015.5391)" class="st58 st59 st60">acer</text>
	<text id="Unlabeled-2253-1981" bar:growlevel="0" transform="matrix(1 0 0 1 1571.8242 2058.5977)" class="st58 st59 st60">ICj</text>
	<text id="label77" bar:growlevel="0" transform="matrix(1 0 0 1 1427.8242 1002.9512)" class="st58 st59 st60">cg</text>
	<text id="label78" bar:growlevel="0" transform="matrix(1 0 0 1 1909.7754 2042.543)" class="st58 st59 st60">lo</text>
	<text id="label79" bar:growlevel="0" transform="matrix(1 0 0 1 1400.1934 1736.3984)" class="st58 st59 st60">aca</text>
	<text id="text5838" bar:growlevel="0" transform="matrix(1 0 0 1 1914.6592 1941.4883)" class="st58 st59 st60">Pir-2</text>
	<text id="text6458" bar:growlevel="0" transform="matrix(1 0 0 1 1747.4092 2119.4531)" class="st58 st59 st60">Tu-1</text>
	<text id="text6454" bar:growlevel="0" transform="matrix(1 0 0 1 1718.376 2097.7813)" class="st58 st59 st60">Tu-2</text>
	<text id="text6456" bar:growlevel="0" transform="matrix(1 0 0 1 1709.2813 2069.3926)" class="st58 st59 st60">Tu-3</text>
	<text id="Unlabeled-1800-1158" bar:growlevel="0" transform="matrix(1 0 0 1 1169.959 1150.4492)" class="st58 st59 st60">azp</text>
	<text id="text3048" bar:growlevel="0" transform="matrix(1 0 0 1 1178.0938 1224.2793)" class="st58 st59 st60">cc</text>
	<text id="text5842" bar:growlevel="0" transform="matrix(1 0 0 1 1919.8623 1973.627)" class="st58 st59 st60">Pir-1</text>
	<text id="text5840" bar:growlevel="0" transform="matrix(1 0 0 1 1916.2031 1905.8809)" class="st58 st59 st60">Pir-3</text>
	<text id="label23" bar:growlevel="0" transform="matrix(1 0 0 1 1906.8662 1816.8418)" class="st58 st59 st60">DEn</text>
	<text id="label27" bar:growlevel="0" transform="matrix(1 0 0 1 1964.3145 1687.2793)" class="st58 st59 st60">VCl</text>
	<text id="label26" bar:growlevel="0" transform="matrix(1 0 0 1 2090.9434 1697.3926)" class="st58 st59 st60">AID</text>
	<text id="label25" bar:growlevel="0" transform="matrix(1 0 0 1 2069.1357 1759.0215)" class="st58 st59 st60">AIV</text>
	<text id="label24" bar:growlevel="0" transform="matrix(1 0 0 1 1805.1055 1914.541)" class="st58 st59 st60">IEn</text>
	<text id="label29" bar:growlevel="0" transform="matrix(1 0 0 1 2116.1748 1637.7129)" class="st58 st59 st60">DI</text>
	<text id="label28" bar:growlevel="0" transform="matrix(1 0 0 1 1975.8662 1598.4668)" class="st58 st59 st60">DCl</text>
</g>
</svg>
