<?xml version="1.0" encoding="utf-8"?>
<!-- Generator: Adobe Illustrator 24.1.1, SVG Export Plug-In . SVG Version: 6.00 Build 0)  -->
<svg version="1.1"
	 id="body" inkscape:version="0.47pre4 r22446" sodipodi:docname="48_pretrace_pretrace_v1.svg" xmlns:bar="http://www.3dbar.org" xmlns:cc="http://creativecommons.org/ns#" xmlns:dc="http://purl.org/dc/elements/1.1/" xmlns:inkscape="http://www.inkscape.org/namespaces/inkscape" xmlns:rdf="http://www.w3.org/1999/02/22-rdf-syntax-ns#" xmlns:sodipodi="http://sodipodi.sourceforge.net/DTD/sodipodi-0.dtd" xmlns:svg="http://www.w3.org/2000/svg"
	 xmlns="http://www.w3.org/2000/svg" xmlns:xlink="http://www.w3.org/1999/xlink" x="0px" y="0px" viewBox="0 0 3024 3024"
	 style="enable-background:new 0 0 3024 3024;" xml:space="preserve">
<style type="text/css">
	.st0{fill:#FF000C;}
	.st1{fill:#7B47FA;}
	.st2{fill:#B8E900;}
	.st3{fill:#D1E976;}
	.st4{fill:#C7E959;}
	.st5{fill:#D8FF59;}
	.st6{fill:#ACDF00;}
	.st7{fill:#AFFF59;}
	.st8{fill:#B8FF00;}
	.st9{fill:#B1E900;}
	.st10{fill:#C1FF00;}
	.st11{fill:#FF0045;}
	.st12{fill:#FF005A;}
	.st13{fill:#E58ED9;}
	.st14{fill:#F28EE2;}
	.st15{fill:#FFB2BA;}
	.st16{fill:#ECFFB2;}
	.st17{fill:#D9FF59;}
	.st18{fill:#F9FF6B;}
	.st19{fill:#EFF46B;}
	.st20{fill:#CED423;}
	.st21{fill:#232323;enable-background:new    ;}
	.st22{font-family:'TimesNewRomanPSMT';}
	.st23{font-size:27px;}
	.st24{fill:#FF0000;enable-background:new    ;}
</style>
<sodipodi:namedview  bordercolor="#666666" borderopacity="1" gridtolerance="10" guidetolerance="10" id="namedview117" inkscape:current-layer="content" inkscape:cx="549.89223" inkscape:cy="543.71851" inkscape:object-paths="true" inkscape:pageopacity="0" inkscape:pageshadow="2" inkscape:window-height="1026" inkscape:window-maximized="1" inkscape:window-width="1678" inkscape:window-x="0" inkscape:window-y="0" inkscape:zoom="5.8385414" objecttolerance="10" pagecolor="#ffffff" showgrid="false">
	</sodipodi:namedview>
<desc  id="desc5">This was produced by version 4.2 of GNU libplot, a free library for exporting 2-D vector graphics.</desc>
<defs>
	<rdf:RDF>
		<cc:Work  rdf:about="">
			<dc:format>image/svg+xml</dc:format>
			<dc:type  rdf:resource="http://purl.org/dc/dcmitype/StillImage"></dc:type>
		</cc:Work>
	</rdf:RDF>
	<bar:data  content="5.64" name="coronalcoord"></bar:data>
	
		<bar:data  content="{&apos;ReferenceHeight&apos;: 900, &apos;ReferenceWidth&apos;: 1200, &apos;imageSize&apos;: (1200, 900)}" name="rendererConf">
		</bar:data>
	
		<bar:data  content="{&apos;DumpEachStepSVG&apos;: False, &apos;DumpEachStepPNG&apos;: False, &apos;GrowDefaultBoundaryColor&apos;: 200, &apos;CacheLevel&apos;: 5, &apos;NewPathIdTemplate&apos;: &apos;structure%d_%s_%s&apos;, &apos;PoTraceConf&apos;: {&apos;potrace_accuracy_parameter&apos;: &apos;0.001&apos;, &apos;potrace_width_string&apos;: &apos;1200pt&apos;, &apos;potrace_svg_resolution_string&apos;: &apos;300x300&apos;, &apos;potrace_height_string&apos;: &apos;900pt&apos;}, &apos;DetectUnlabelled&apos;: True, &apos;DumpVBrain&apos;: False, &apos;DumpWrongSeed&apos;: True, &apos;DumpDirectory&apos;: &apos;.&apos;, &apos;MinFiterTimesApplication&apos;: 3, &apos;RegionAlreadyTraced&apos;: 100, &apos;UnlabelledTreshold&apos;: 500}" name="tracingConf">
		</bar:data>
	<bar:data  content="0.0176211454,-9.5150660793,0.0176211454,-1.5355884426" name="transformationmatrix"></bar:data>
</defs>
<g id="content">
	<path id="structure1_label35_vBrain" bar:growlevel="0" bar:type="" class="st0" d="M1560.6,912.3c-25.9,1.7-48.6,7.9-71.2,19.4
		c-14.8,7.7-28.2,17.7-42.8,32.2c-14.9,15-19.9,21.6-26.9,36.1c-12.4,25.6-26.1,73.9-32.8,115.6c-4.8,29.8-5.8,41.6-8.2,100.4
		c-0.4,11.9-1.7,31.1-2.7,42.8c-1,11.6-2.2,27.8-2.7,36c-1.2,19.2-1.2,69.8,0,85.9c3.2,43.3,11.2,75.2,23.8,95.4
		c2.7,4.3,4.9,8.3,4.9,8.9c0,0.5-1.8,3.4-4,6.4c-4.9,6.5-12.9,21.8-16.1,30.9c-5.5,15.5-9.2,32.1-11.5,52.8
		c-1.7,15.3-1.4,60.8,0.5,76.9c4.1,34.6,11.7,59.4,23.6,78.1c1.7,2.6,3.1,5,3.1,5.4s-1.3,1.3-2.9,2c-5.4,2.6-4.9,9.2,0.9,9.7
		c2.4,0.3,3.1-0.2,4.5-2.4c0.8-1.5,1.9-2.8,2.3-2.8c0.4,0,2.8,1.9,5.4,4.1c21.2,19.2,64.6,35.9,101.5,39.2c22,2.1,44.1-2.5,79-16.1
		c52.7-20.6,113.8-61.7,136.3-91.5c26.6-35.4,46.3-93,56.5-165.9c1.6-11.5,2-18.4,2.1-36.7c0-20.1-0.2-22.9-1.7-27
		c-3.8-9.9-18-27.8-28.4-35.7c-8-6-8.3-7.5-1.2-6.7c22.9,2.8,34.2,2.6,50-0.4c27-5.4,45.7-17.7,63.6-41.8
		c23.5-31.6,39.2-76.3,44.5-126.4c1.8-17.3,1.8-49.7,0-67.1c-7.7-73-41.9-136.3-94.6-174.7c-22.5-16.4-59.5-36.2-90.7-48.5
		c-36.1-14.3-80.7-27.2-112.1-32.3c-8-1.3-34.6-3.4-39.6-3.1C1571.9,911.6,1566.3,912,1560.6,912.3z"/>
	<path id="structure3_label35_vBrain" bar:growlevel="0" bar:type="" class="st0" d="M1368.2,1443.5c-2.6,2.6,0.1,8.8,3.9,8.8
		c2.9,0,4-2.3,3-5.6C1373.7,1443.1,1370.2,1441.5,1368.2,1443.5z"/>
	<path id="structure10_label10_FrA" bar:growlevel="0" bar:type="" class="st1" d="M1551.4,914.2c-26.8,2.6-58.9,14.4-79.2,28.9
		c-23.9,17.3-42.2,37.4-51.6,56.9c-9.5,19.8-22.4,62.6-29.2,97c-4.6,23.6-10,66-10,78.7c0,3.7,0.2,3.9,3,4.4
		c1.5,0.3,22.5,2.9,46.5,5.9c74,9.1,85.4,10.9,106.7,17.5c16.1,5,28.4,10.6,33.2,15.1c1.9,1.8,3.9,3.3,4.4,3.3
		c0.4,0,4.1-2.1,8.1-4.6c21.5-13.9,43.5-19.4,61.8-15.8c29.3,5.9,69.7,27.2,89.9,47.4c10.5,10.4,22.3,31,27.9,48.5
		c5.9,18.5,7.8,35.6,6.9,63c-0.3,10.6-0.9,22.6-1.3,26.5c-0.4,4-1.2,9.9-1.5,13.2l-0.6,6.1h11.6c32.7-0.1,55.9-9.3,75.6-30
		c29.4-30.9,48.4-78.1,55.4-137.9c1.5-13.1,1.5-57.3,0-69.8c-4-31.5-10.4-55.8-21.3-80.6c-19-42.8-44.8-73.7-83-99.3
		c-32.5-21.8-79-42.9-125.4-57c-29.8-9.1-60.7-16-79.6-17.8C1588.6,913.1,1563,913.2,1551.4,914.2z"/>
	<path id="structure12_label12_AO" bar:growlevel="0" bar:type="" class="st2" d="M1655.1,1462.2c-14.7,2-24.8,7.4-83.3,44.7
		c-10.9,6.9-30.5,18.5-43.7,25.7c-51.8,28.3-63.5,37.1-72,53.7c-3.4,6.8-4.6,17-2.6,22.9c1.4,4.3,6.4,9.8,11.6,12.9
		c3.8,2.3,4.9,2.4,12.2,2.3c19.8-0.4,40.1-8,63.1-23.6c5.9-4,19.6-14.6,30.5-23.6c26-21.6,35.6-28.5,47.2-34.5
		c18.2-9.3,28.5-11.7,32.6-7.7c9.3,9.3-23.8,46.4-67.1,75.4c-18.7,12.4-28.2,16.9-72.5,34.3c-13.6,5.3-26.7,10.7-29.3,12
		c-11.9,5.9-16.6,15.7-16.6,33.5c0,8.1,0.3,9.5,2.6,14.6c6.7,14,18.3,20.1,38.4,20.1c12,0,22.1-1.6,37.3-5.9
		c49-13.9,96.6-39.9,130.1-70.7c12.2-11.3,29.8-31.5,37.4-43c15.2-22.9,22-41.8,23-64c0.9-18.2-2.2-33.1-9.9-48
		c-7.1-13.7-17.7-22.4-33.5-27.4C1678.5,1462,1666.2,1460.7,1655.1,1462.2z"/>
	<path id="structure18_label20_AOE" bar:growlevel="0" bar:type="" class="st3" d="M1644.7,1423.3c-6.3,0.9-21,5-28.2,8
		c-11.7,4.8-32.7,15.8-42.4,22.3c-4.8,3.2-10.8,8-13.4,10.8c-4.1,4.2-4.8,5.5-4.5,7.9c0.4,4.3,4.1,6.6,10.4,6.5
		c7-0.2,13.9-3,24.8-10.2c32.7-21.5,41.8-26.1,62.1-31.1c16.7-4.1,19.4-5.6,18.3-9.9c-0.9-3.7-5.2-4.9-15.6-4.9
		C1651.4,1422.8,1646.3,1423.1,1644.7,1423.3z"/>
	<path id="structure19_label21_AOE" bar:growlevel="0" bar:type="" class="st3" d="M1473.7,1734.5c-1.7,1.8-4.2,5.1-5.5,7.3
		c-2.3,3.8-2.3,4.4-1.3,7.7c0.8,2.4,3.1,5.6,7.3,9.7c10,10.1,17.5,12.7,35.4,12.8c11,0.1,16.2-1,19.9-3.9c3.3-2.6,3.2-8.3-0.3-13.1
		c-4-5.7-12.9-13.5-17.9-16c-6.1-3.1-19-6.5-27.5-7.3l-6.8-0.6L1473.7,1734.5z"/>
	<path id="structure20_label22_Gl" bar:growlevel="0" bar:type="" class="st4" d="M1372.9,1659.1c2.3,20,9.2,44.8,16.1,59.2
		c7.3,14.8,16.9,26.5,15.7,18.6c-0.3-1.3-1.5-6.1-2.9-10.5c-1.3-4.5-4.2-15.9-6.4-25.6c-4.4-19.2-6.3-23.9-12.5-32.4
		c-2.3-3.2-5-7.7-6.1-10.1C1373.9,1652.1,1372.2,1652.5,1372.9,1659.1z"/>
	<path id="structure21_label23_EPl" bar:growlevel="0" bar:type="" class="st5" d="M1658.6,1401.1c-18.7,2.7-42.8,12.3-70.1,28.1
		c-22,12.6-33.9,22.1-59.1,46.9l-19.2,18.8v6.8c-0.1,15.7-2.2,23.2-8.3,29.9c-4.9,5.3-25.9,21.3-32.8,24.9
		c-5.1,2.8-11.8,0.4-14.4-5.2c-3-6.4-4.1-5-8.3,9.6c-9.3,33.5-11,47.4-9.2,74.1c1.8,26.4,5,46.5,9.6,61.5c1.3,4.4,5.1,12.3,9.3,19.5
		c8.6,14.9,9.4,16.8,9.2,22.5c-0.1,5.7,1.3,5.9,4.7,0.4c3.8-5.9,6.4-7.7,11.6-7.7c6.1,0,17,2.3,25,5.5c11.1,4.2,24.6,17.1,25.8,24.5
		c0.7,4.5-3,8.3-10.1,10.1c-11.1,2.8-30.2,1-38.2-3.8c-8.9-5.2-18.1-15.9-18.1-21.1c0-3.4-1.3-3.2-5.5,0.9c-5.9,6-14.5,7-20.8,2.4
		c-1.6-1.2-5-3.6-7.6-5.3c-5.5-3.8-12.4-11.3-14.9-15.9c-5.5-10.9-23.8-90.5-25.7-111.6c-0.8-8.9,2.6-33.3,9.3-67.2
		c2.8-14.2,3.2-16.8,2.2-18.7c-1.8-3.2-3.2-2.6-4.4,2c-1.9,7.6-5.4,14.9-13.6,28.7c-4.4,7.5-9.4,16.6-11.3,20.4l-3.2,6.8v24.2
		c0.1,13.3,0.5,26.6,0.9,29.6c1,6.8,6.9,19.6,12.3,26.8c6.6,8.7,7.4,11.2,14.4,41.6c3.8,16.7,9.3,33,12.2,36.1
		c3,3.1,13.6,10.1,23.7,15.3c16.8,8.8,37,15.7,57.1,19.4c10,1.9,10.4,1.9,17.6,0.4c16.5-3.6,34.7-9.7,66.9-22.6
		c11.4-4.6,25.5-10.5,31-13.1c49.3-22.9,84.6-52.3,117.1-97.7c16.8-23.6,30.6-62.7,38.5-109.4c10.1-60,6.2-88.1-15-109
		c-7.9-7.7-14-12-25.9-17.8C1700.3,1402.5,1677.8,1398.3,1658.6,1401.1z M1668.4,1423.9c3.4,1.7,4.2,3.2,3.4,6.2
		c-0.7,2.9-4.5,4.4-20.2,8.2c-17.6,4.3-30.1,10.5-54.4,26.8c-19.9,13.4-30.4,16.9-37.5,12.7c-10.3-6,0.2-17.5,31.6-34.6
		c20.8-11.3,36.4-17.3,52.6-20.2C1653.1,1421.5,1664.4,1421.8,1668.4,1423.9z M1685.2,1464c10.8,2.8,22.6,8.9,28.1,14.7
		c6.5,6.7,7.9,8.6,12,16.7c13.5,27.1,12.6,59.4-2.7,90.5c-12.2,25.2-38.9,56.3-66.3,77.3c-32.2,24.8-74.9,46-115.1,57
		c-40,11-63.5,6-73.6-15.3c-10.6-22.4-11.8-25.8-11.8-36.9c0-8.1,0.3-9.5,2.5-14.2c1.9-3.8,3.5-5.7,6.1-7.2c5.5-3.1,4.5-4-4.9-4.4
		c-9.9-0.5-13.8-2.2-15.6-7c-1.6-4.5-1.5-10.1,0.2-12.5c1.6-2.3,2.6-2.3,13.7-0.5c4.8,0.7,5-0.8,1-4.7c-3.8-3.4-7.1-10.7-7.1-15.3
		c0-5.1,2.3-12.4,6.1-19.3c7.6-13.8,22.5-24.3,73.3-52.1c12.8-6.9,34.1-19.6,47.3-28.1c44.5-28.6,60.2-37.4,71.6-40.1
		C1657.9,1460.8,1675.9,1461.5,1685.2,1464z"/>
	<path id="structure27_label29_GrA" bar:growlevel="0" bar:type="" class="st6" d="M1503.4,1500.2c-8.7,6.7-25.4,12.4-35.9,12.4
		h-5.6l-4.7,13.7c-5,14.7-5.5,17.7-3.3,23c3,7.1,8.1,9.6,14.2,7.1c4.9-2.1,23.8-15.7,30.5-22c8-7.7,9.4-10.7,10.5-24
		c0.5-5.9,1-11.3,1-12C1510.2,1496.5,1507.2,1497.3,1503.4,1500.2z"/>
	<path id="structure34_label37_aci" bar:growlevel="0" bar:type="" class="st7" d="M1635.7,1535.5c-13,4.2-26.4,11.5-39.2,21.2
		c-13.4,10.3-40.9,33.4-41.2,34.7c-0.3,1,0.6,1.3,3.7,1.3c2.2,0,4.1,0.3,4.5,0.5c3.1,3.1-17.8,20.3-34.9,29
		c-17.6,8.8-44.8,19.1-50.6,19.1c-3.7,0-12.2,3.8-15.7,6.9c-2.5,2.3-3.9,4.5-4.8,7.8c-3.1,10.9-2.6,18.4,1.9,30.3
		c2.7,7.4,4.8,8.3,4.8,2.1c0-6.5,2.5-15.9,5.7-21.2c5.2-8.6,5.1-8.6,55-28.3c13.3-5.2,28.4-11.5,33.3-13.9
		c29.5-14.1,72.8-49.1,86.4-69.7c8.1-12.3,9.5-18.8,4.6-21.1C1645.9,1532.9,1642.9,1533.2,1635.7,1535.5z"/>
	<path id="structure37_label40_lo" bar:growlevel="0" bar:type="" class="st8" d="M1658.8,1389.8c-28.4,6.5-65.1,22.1-89.8,38.4
		c-10.8,7.1-14,9.8-24.6,20.9c-25,26.1-33.9,34.5-43.7,41c-10.3,6.8-20.9,11.4-29.7,13c-5,0.9-5.6,1.2-6.6,3.8
		c-1.8,5.2-1.8,5.2,7.4,4.8c5.6-0.4,10.3-1.2,14.8-2.8c12.2-4.2,18.8-9.3,40.2-30.3c10.9-10.7,22.7-21.9,26.1-24.8
		c14.3-12.1,30.3-22.4,53.1-34.1c43.2-22.1,72.7-25,108.2-10.4c38.8,16,56.2,43.4,53.8,85.1c-2.3,40.8-13.9,93-28,125.4
		c-7,16.1-14.3,27.8-27.9,44.8c-28.2,35.1-57.3,58.6-97.1,78.2c-27.3,13.5-81.2,34.4-98.7,38.3c-6.3,1.4-7.1,3.5-1.3,3.8
		c17.8,0.8,37.5-3.1,63.1-12.3c37.1-13.4,74.3-33.7,106-57.8c29.1-22,41.9-36.3,55.9-62.4c22.3-41.4,41.1-118.2,42.7-173.8
		c0.5-19.5-0.3-27.3-3.8-34c-6-11.8-23.7-30.8-34.7-37.2c-5.9-3.5-32.3-12.7-45.9-16.1C1688.2,1388.6,1667.1,1387.9,1658.8,1389.8z"
		/>
	<path id="structure38_label41_IPl" bar:growlevel="0" bar:type="" class="st9" d="M1404.5,1556.6c-5.8,31.1-8,57.5-6,74.7
		c0.8,6.7,3.9,19,11.4,45.4c13.1,45.7,19.7,66.1,22.3,68.3c2.2,1.8,5,2.2,5,0.6c0-0.5-3.9-12.5-8.5-26.6c-7.9-23.8-16-53.4-20.3-74
		c-2.5-12.6-2.4-29.3,0.5-64.8c2-23.8,2.3-29.6,1.4-32.6C1408.4,1541.2,1407,1543.2,1404.5,1556.6z"/>
	<path id="structure39_label42_Mi" bar:growlevel="0" bar:type="" class="st10" d="M1403.5,1538.9c-1.7,5.3-8.9,47.3-10.7,62.9
		c-1.2,9.8-1.2,12.5-0.1,20.3c3.5,24.8,17,84.7,22.7,100.7c3.4,9.4,12,19.7,12,14.3c0-0.8-1.8-7.2-4.1-14.2
		c-5.7-17.7-23.4-80.1-24.8-87c-1.4-8.1-1.3-32.2,0.5-47.2c0.8-6.9,2.9-20,4.6-29c3.4-18.4,3.7-21.9,1.7-21.9
		C1404.5,1537.8,1403.8,1538.4,1403.5,1538.9z"/>
	<path id="structure40_label43_E" bar:growlevel="0" bar:type="" class="st11" d="M1552.8,1594.8c-3,1.1-9.4,4.6-14.3,7.7
		c-30.2,19.6-56.3,26.2-80.5,20.3c-5.2-1.3-10.4-2.1-11.4-1.8c-3.9,0.9-4.7,9.6-1.5,15.9c1.8,3.6,6.1,4.6,19.6,4.4
		c18.3-0.1,21.5-1,47.3-12c18.7-8,29.4-14,40.2-22.8c8-6.4,11.5-10.5,10.7-12.6C1562.3,1592.3,1559.4,1592.5,1552.8,1594.8z
		 M1478.5,1630.7c1.7,1.7,1.3,5-0.8,6.1c-3.2,1.8-5.5-1.6-3.9-5.8C1474.5,1629.4,1477,1629.2,1478.5,1630.7z"/>
	<path id="structure41_label44_OV" bar:growlevel="0" bar:type="" class="st12" d="M1474.8,1631.1c-0.4,0.4-0.6,1.6-0.6,2.8
		c0,1.8,0.5,2.2,2.1,1.9c1.4-0.2,2-0.9,2-2.5C1478.2,1631.1,1476.2,1629.7,1474.8,1631.1z"/>
	<path id="structure42_label45_lofr" bar:growlevel="0" bar:type="" class="st13" d="M1393.4,1739.6c-1.5,1.5-1.3,4.8,0.3,6.1
		c2,1.7,5.8,0.4,6.4-2.3c0.4-1.3,0.1-2.9-0.5-3.6C1398.1,1738.3,1394.9,1738.1,1393.4,1739.6z"/>
	<path id="structure43_label46_mofr" bar:growlevel="0" bar:type="" class="st14" d="M1368.6,1444c-1.2,1.2-0.6,4.5,1,5.9
		c2.6,2.4,4.7,2,4.7-1C1374.3,1445.3,1370.5,1442.1,1368.6,1444z"/>
	<path id="structure45_Unlabeled-1835-1300_Unlabeled" bar:growlevel="0" bar:type="" class="st15" d="M1394.7,1496.3
		c-8.6,13.1-17,35.6-20.9,56c-1.3,7.3-4,28.3-4,31.7c0,3.2,2.4,1.4,4.9-3.6c1.3-2.8,5.8-10.8,10-17.7c9.5-16.3,9.9-17,13-26.4
		c2.5-7.7,2.5-8,2.1-25.7C1399.2,1491.2,1398.8,1490.1,1394.7,1496.3z"/>
	<path id="structure4_label4_GrO" bar:growlevel="0" bar:type="" class="st16" d="M1401.6,1488.4c-1.5,1.7-1.7,3.4-1.7,19.2v17.2
		l4.8,9.6c7.9,16.1,7.6,13.2,5,42.8c-1.4,15-2.3,33.5-2.4,43.9l-0.2,18l4.9,20.2c6.2,26.1,7.4,30.3,18.3,63.2l9.1,27.6l3.3,1
		c7.6,2.3,13.5,0.9,18.1-4.1c7.2-7.7,6.3-11.9-7.6-35.7c-6.5-11.2-10.3-24.2-13.6-47.3c-3.5-24-4.2-52.7-1.9-67.5
		c2.9-17.9,12-50,21.5-76.4c2.8-7.6,5-14.1,5-14.5s-4.1-0.9-9.2-1.2c-14.8-0.9-28.1-5.1-42.8-13.6c-4-2.3-7.6-4.1-8.1-4.1
		C1403.8,1486.5,1402.6,1487.4,1401.6,1488.4z"/>
	<path id="structure6_label6_GlA" bar:growlevel="0" bar:type="" class="st17" d="M1611.1,1369.2c-20.4,4.4-40.2,22-46,40.7
		c-2.3,7.2-2.5,19.1-0.4,19.1c0.7,0,4-1.8,7.4-4c20.7-13.3,55.3-28.3,80.8-34.7c6.4-1.6,10-3,10.2-3.9c0.4-1.9-9.2-10.2-15.2-13.3
		c-3-1.4-7.7-3.2-10.4-4C1631.1,1367.5,1618.8,1367.5,1611.1,1369.2z"/>
	<path id="structure7_label7_VO" bar:growlevel="0" bar:type="" class="st18" d="M1548.9,1246c-21.4,18.3-49.7,51.7-66.6,78.8
		c-8.1,13-20.3,37.3-27.5,54.3c-14.2,34.1-26.5,78.4-28.8,104.4c-0.3,3.4-0.7,7.7-1,9.5l-0.5,3.2l8.6,2.9
		c15.8,5.2,32.6,5.4,47.3,0.4c17-5.7,30.6-16.3,56-43.5c7.6-8.1,16.7-17.2,20.3-20.2l6.5-5.3l-0.4-5.1c-0.7-6.6,2.1-18.1,6-25
		c3.8-6.5,10.4-14.4,15-17.8c2.1-1.5,3.8-3.1,3.8-3.6c0-0.4-2.3-4.3-5.3-8.6c-11.8-17.2-22.1-37.7-26.6-53.7
		c-7.3-24.9-7.2-48.4,0.1-68.7c1.2-3.3,2.2-6.3,2.2-6.7C1557.9,1239.6,1554,1241.6,1548.9,1246z"/>
	<path id="structure8_label8_LO" bar:growlevel="0" bar:type="" class="st19" d="M1615.5,1203c-14,3.4-30.1,11.8-43.4,22.4
		c-8.4,6.7-12.2,12.1-16,22.4c-4.3,12-5.7,21.9-5.1,37.5c0.8,20.8,5.4,37.6,15.9,58.6c5.8,11.4,20.3,34.6,21.8,34.6
		c0.4,0,2.3-1,4.3-2.3c4.2-2.7,11.3-5.6,17.5-7.3c17.7-4.8,35.5-0.4,48.3,12.2l6,5.9l10.2,0.1c12.7,0.1,23.9,2.3,43.5,8.9
		c7.9,2.7,18.5,5.7,23.4,6.7c9.7,2,23.1,3.8,23.8,3.2c0.7-0.8,2.9-23.4,3.6-38.7c1.8-38.1-2.4-65.1-14-87.8
		c-7.2-14.5-14.2-24.4-23-32.8c-19.1-17.9-53.5-36.4-80.7-43.3C1640.9,1200.7,1625.7,1200.5,1615.5,1203z"/>
	<path id="structure9_label9_MO" bar:growlevel="0" bar:type="" class="st20" d="M1381.1,1196.5c-0.8,21.3-2.1,41.2-4.1,66.9
		c-6.7,80.3-4,140.7,8.1,182.3c4.8,16.4,12.2,31.5,18.8,38.1c3.2,3.2,16.7,10.9,19.2,10.9c1,0,1.6-2.4,2.4-10.2
		c2.3-22.3,10.3-54.7,20.3-82.9c13.8-38.8,30.2-70.4,51.8-99c19.6-26.4,34.2-42.4,51.8-57.2c13.3-11.2,23.9-21.2,23.9-22.8
		c0-2.3-7.1-8-13.9-11.1c-15.8-7.2-37.6-13-62.5-16.6c-17.2-2.5-111-14.4-113.9-14.4C1381.9,1180.5,1381.6,1183.6,1381.1,1196.5z"/>
	<text id="label37" bar:growlevel="0" transform="matrix(1 0 0 1 1613.2627 1570.7715)" class="st21 st22 st23">aci</text>
	<text id="label10" bar:growlevel="0" transform="matrix(1 0 0 1 1649.8018 1094.6484)" class="st21 st22 st23">FrA</text>
	<text id="Unlabeled-1835-1300" bar:growlevel="0" transform="matrix(1 0 0 1 1390.4834 1525.2402)" class="st21 st22 st23">Gl</text>
	<text id="label8" bar:growlevel="0" transform="matrix(1 0 0 1 1643.0225 1316.1484)" class="st21 st22 st23">LO</text>
	<text id="label9" bar:growlevel="0" transform="matrix(1 0 0 1 1408.873 1309.8789)" class="st21 st22 st23">MO</text>
	<text id="label0" bar:growlevel="0" transform="matrix(1 0 0 1 1651.9932 1588.8359)" class="st24 st22 st23">.AOL</text>
	<text id="label1" bar:growlevel="0" transform="matrix(1 0 0 1 1643.0225 1500.0488)" class="st24 st22 st23">.AOD</text>
	<text id="label2" bar:growlevel="0" transform="matrix(1 0 0 1 1471.5713 1593.0371)" class="st24 st22 st23">.AOM</text>
	<text id="label3" bar:growlevel="0" transform="matrix(1 0 0 1 1488.5518 1698.5664)" class="st24 st22 st23">.AOV</text>
	<text id="label4" bar:growlevel="0" transform="matrix(1 0 0 1 1416.4316 1535.5781)" class="st21 st22 st23">GrO</text>
	<text id="label6" bar:growlevel="0" transform="matrix(1 0 0 1 1583.8604 1397.6719)" class="st21 st22 st23">GlA</text>
	<text id="label7" bar:growlevel="0" transform="matrix(1 0 0 1 1485.8213 1412.2852)" class="st21 st22 st23">VO</text>
	<text id="label23" bar:growlevel="0" transform="matrix(1 0 0 1 1406.9307 1727.5293)" class="st21 st22 st23">EPl</text>
	<text id="label22" bar:growlevel="0" transform="matrix(1 0 0 1 1382.3975 1687.0352)" class="st21 st22 st23">Gl</text>
	<text id="label21" bar:growlevel="0" transform="matrix(1 0 0 1 1498.3311 1757.0449)" class="st21 st22 st23">AOE</text>
	<text id="label20" bar:growlevel="0" transform="matrix(1 0 0 1 1617.4316 1440.4609)" class="st21 st22 st23">AOE</text>
	<text id="label29" bar:growlevel="0" transform="matrix(1 0 0 1 1481.623 1527.2051)" class="st21 st22 st23">GrA</text>
	<text id="label41" bar:growlevel="0" transform="matrix(1 0 0 1 1404.6865 1571.9727)" class="st21 st22 st23">IPl</text>
	<text id="label40" bar:growlevel="0" transform="matrix(1 0 0 1 1719.2822 1668.0488)" class="st21 st22 st23">lo</text>
	<text id="label43" bar:growlevel="0" transform="matrix(1 0 0 1 1518.8506 1618.8125)" class="st21 st22 st23">E</text>
	<text id="label42" bar:growlevel="0" transform="matrix(1 0 0 1 1413.8447 1706.1074)" class="st21 st22 st23">Mi</text>
	<text id="label45" bar:growlevel="0" transform="matrix(1 0 0 1 1394.9189 1743.0215)" class="st21 st22 st23">lofr</text>
	<text id="label44" bar:growlevel="0" transform="matrix(1 0 0 1 1476.5811 1632.5547)" class="st21 st22 st23">OV</text>
	<text id="label46" bar:growlevel="0" transform="matrix(1 0 0 1 1371.0713 1447.5117)" class="st21 st22 st23">mofr</text>
	<text id="label12" bar:growlevel="0" transform="matrix(1 0 0 1 1575.1416 1657.0098)" class="st21 st22 st23">AO</text>
</g>
</svg>
