<?xml version="1.0" encoding="utf-8"?>
<!-- Generator: Adobe Illustrator 24.1.1, SVG Export Plug-In . SVG Version: 6.00 Build 0)  -->
<svg version="1.1"
	 id="body" inkscape:version="0.47pre4 r22446" sodipodi:docname="153_pretrace_pretrace_v1.svg" xmlns:bar="http://www.3dbar.org" xmlns:cc="http://creativecommons.org/ns#" xmlns:dc="http://purl.org/dc/elements/1.1/" xmlns:inkscape="http://www.inkscape.org/namespaces/inkscape" xmlns:rdf="http://www.w3.org/1999/02/22-rdf-syntax-ns#" xmlns:sodipodi="http://sodipodi.sourceforge.net/DTD/sodipodi-0.dtd" xmlns:svg="http://www.w3.org/2000/svg"
	 xmlns="http://www.w3.org/2000/svg" xmlns:xlink="http://www.w3.org/1999/xlink" x="0px" y="0px" viewBox="0 0 3024 3024"
	 style="enable-background:new 0 0 3024 3024;" xml:space="preserve">
<style type="text/css">
	.st0{fill:#FF000C;}
	.st1{fill:#76E9B3;}
	.st2{fill:#B2FFE0;}
	.st3{fill:#895FC7;}
	.st4{fill:#4800F6;}
	.st5{fill:#B2FFEF;}
	.st6{fill:#00E925;}
	.st7{fill:#3BE2FF;}
	.st8{fill:#FF59A4;}
	.st9{fill:#FF00FE;}
	.st10{fill:#5923CB;}
	.st11{fill:#66B4CF;}
	.st12{fill:#99D8EF;}
	.st13{fill:#D847CA;}
	.st14{fill:#3BD1E9;}
	.st15{fill:#00E8E9;}
	.st16{fill:#00CF69;}
	.st17{fill:#009DD7;}
	.st18{fill:#A15FFA;}
	.st19{fill:#00D7F2;}
	.st20{fill:#8600FF;}
	.st21{fill:#893BF2;}
	.st22{fill:#00FFB9;}
	.st23{fill:#B2FFDC;}
	.st24{fill:#00EF7A;}
	.st25{fill:#76FFBE;}
	.st26{fill:#B2FFCE;}
	.st27{fill:#BA8EFA;}
	.st28{fill:#32AAD7;}
	.st29{fill:#59FFB7;}
	.st30{fill:#00FF87;}
	.st31{fill:#8553C7;}
	.st32{fill:#FFB2BA;}
	.st33{fill:#00FF9E;}
	.st34{fill:#00FF60;}
	.st35{fill:#0090C7;}
	.st36{fill:#7FC5DF;}
	.st37{fill:#FF00A8;}
	.st38{fill:#7FD0EF;}
	.st39{fill:#B2EAFF;}
	.st40{fill:#00C8E9;}
	.st41{fill:#19AEDF;}
	.st42{fill:#B2FFDB;}
	.st43{fill:#3BFFA4;}
	.st44{fill:#00FF8C;}
	.st45{fill:#AF8EDC;}
	.st46{fill:#47D470;}
	.st47{fill:#3BE95B;}
	.st48{fill:#00E5C7;}
	.st49{fill:#00FF49;}
	.st50{fill:#23E95C;}
	.st51{fill:#47DF73;}
	.st52{fill:#0035FF;}
	.st53{fill:#B6DF00;}
	.st54{fill:#C5E900;}
	.st55{fill:#EBF400;}
	.st56{fill:#F9FF47;}
	.st57{fill:#FDFFB2;}
	.st58{fill:#FEFFB2;}
	.st59{fill:#FAFF00;}
	.st60{fill:#EEF447;}
	.st61{fill:#5974FF;}
	.st62{fill:#00FF2E;}
	.st63{fill:#B2F4FF;}
	.st64{fill:#00D43B;}
	.st65{fill:#650BE1;}
	.st66{fill:#59FF70;}
	.st67{fill:#00E945;}
	.st68{fill:#59E96E;}
	.st69{fill:#00FFFB;}
	.st70{fill:#6E17E9;}
	.st71{fill:#00F448;}
	.st72{fill:#00E97A;}
	.st73{fill:#2400CB;}
	.st74{fill:#76EBFF;}
	.st75{fill:#232323;enable-background:new    ;}
	.st76{font-family:'TimesNewRomanPSMT';}
	.st77{font-size:27px;}
</style>
<sodipodi:namedview  bordercolor="#666666" borderopacity="1" gridtolerance="10" guidetolerance="10" id="namedview395" inkscape:current-layer="content" inkscape:cx="538.01313" inkscape:cy="341.64832" inkscape:object-paths="true" inkscape:pageopacity="0" inkscape:pageshadow="2" inkscape:window-height="1128" inkscape:window-maximized="1" inkscape:window-width="1918" inkscape:window-x="1680" inkscape:window-y="24" inkscape:zoom="17.040594" objecttolerance="10" pagecolor="#ffffff" showgrid="false">
	</sodipodi:namedview>
<desc  id="desc5">This was produced by version 4.2 of GNU libplot, a free library for exporting 2-D vector graphics.</desc>
<defs>
	<rdf:RDF>
		<cc:Work  rdf:about="">
			<dc:format>image/svg+xml</dc:format>
			<dc:type  rdf:resource="http://purl.org/dc/dcmitype/StillImage"></dc:type>
		</cc:Work>
	</rdf:RDF>
	<bar:data  content="-9.24" name="coronalcoord"></bar:data>
	
		<bar:data  content="{&apos;ReferenceHeight&apos;: 900, &apos;ReferenceWidth&apos;: 1200, &apos;imageSize&apos;: (1200, 900)}" name="rendererConf">
		</bar:data>
	
		<bar:data  content="{&apos;DumpEachStepSVG&apos;: False, &apos;DumpEachStepPNG&apos;: False, &apos;GrowDefaultBoundaryColor&apos;: 200, &apos;CacheLevel&apos;: 5, &apos;NewPathIdTemplate&apos;: &apos;structure%d_%s_%s&apos;, &apos;PoTraceConf&apos;: {&apos;potrace_accuracy_parameter&apos;: &apos;0.001&apos;, &apos;potrace_width_string&apos;: &apos;1200pt&apos;, &apos;potrace_svg_resolution_string&apos;: &apos;300x300&apos;, &apos;potrace_height_string&apos;: &apos;900pt&apos;}, &apos;DetectUnlabelled&apos;: True, &apos;DumpVBrain&apos;: False, &apos;DumpWrongSeed&apos;: True, &apos;DumpDirectory&apos;: &apos;.&apos;, &apos;MinFiterTimesApplication&apos;: 3, &apos;RegionAlreadyTraced&apos;: 100, &apos;UnlabelledTreshold&apos;: 500}" name="tracingConf">
		</bar:data>
	<bar:data  content="0.0176211454,-9.5150660793,0.0176211454,-1.5355884426" name="transformationmatrix"></bar:data>
</defs>
<g id="content">
	<path id="structure1_label124_vBrain" bar:growlevel="0" bar:type="" class="st0" d="M1715.5,602c-15.1,2-31.1,7.3-41,13.6
		c-12.5,8-37.5,32.1-52.1,50.2c-15.7,19.5-30.2,33.8-61.7,60.8c-17,14.5-19.6,17.4-22.1,23.7c-5,13.2,0.4,28.9,20.4,59.1
		c11.8,17.7,19.3,27.5,35.6,47.2c38.8,46.3,121,136,155.5,169.7c12.6,12.3,14.7,13.9,22.4,17.8c9.5,4.7,20.3,8.1,31.3,9.6
		c8,1.2,8.7,2,5,5.5c-7.9,7.4-5.9,15.3,6,23.4c8.1,5.5,29.3,15.5,57,26.8c13.2,5.5,27.9,12,32.5,14.6c13.3,7.3,26.7,18,42.4,33.6
		c28.3,28.4,51.8,61.9,70.7,100.9c11.4,23.9,17.1,40.2,22,64.3c13.2,65,30.6,91.2,65.1,97.8c29.1,5.6,54.9-6.5,73.4-34.3
		c18.3-27.4,34.2-78.5,39.4-126.9c0.8-7.2,1.2-23.9,1.2-49.9c0-56.9-2.5-80-11.6-107c-13-38.3-16.3-56.9-17.5-99.5
		c-0.9-28.4-2.3-36.8-9.1-57.2c-8.9-26.7-22.3-52.2-42.1-80.1c-14-19.7-22-29.5-44.2-54c-33.1-36.6-64.4-66.6-102.2-97.7
		c-32.8-27.1-74.1-53.1-116.2-73.3c-48.6-23.4-82.9-34.5-119.6-38.6C1746.3,600.8,1724.3,600.9,1715.5,602z"/>
	<path class="st0" d="M2081.6,1478.4c-18.4-19.4-42.8-30-76.9-33.7c-2.9-0.4-5.2-0.9-5.2-1.3c0-0.4,1.6-2.3,3.6-4.3
		c3-3,3.6-4.2,3.6-7c0-8.7-8.7-14.6-16.2-10.7c-4.1,2.1-6.3,5.6-6.3,9.8s2.6,9.1,5.4,10c2.6,0.8,2,3.5-0.9,3.9
		c-9,0.9-19,4.4-24.6,8.6c-4,3.1-4.9,3-5.6-0.6c-1.6-7.2-6.1-11.4-12.3-11.4c-1.9,0-3.4-0.4-3.4-1c0-0.5,2.3-3.7,5.3-7
		c17.3-19.5,27.1-39.9,27.1-56.2c0-15.1-6.1-43.1-15.2-70c-12-35.2-23.3-56.9-40.5-77.5c-8.9-10.5-33.6-35.5-55.4-56.2
		c-61.9-58.1-74.8-71.2-115.1-115.9c-36.4-40.4-68.1-77.5-95.8-111.8c-35.7-44.6-48.6-57.3-54.3-54.3c-5.2,2.7-6,15.9-2.1,34.6
		c1.3,6.4,2.6,12.7,2.8,14c0.8,4.5-2,2.9-6.1-3.5c-8.9-13.8-23-29.5-35.9-40.2c-33-27.4-76.1-40-118.3-34.3
		c-12,1.6-11.3,1.6-11.3,0.2c0-0.5,2.5-2.4,5.7-4.1c3.1-1.7,10.7-6.4,16.9-10.5c11.4-7.5,17.9-13.6,17.9-16.8
		c0-3.8-6.5-14.5-15-24.7c-2.2-2.5-3.9-5-3.9-5.5c0-0.5,1.7-1.9,3.9-3.1c5-3,12-10.4,14.1-15.3c5-11-0.6-26.6-18-49.7
		c-16.9-22.5-42-43.9-64.9-55.3c-19-9.6-46.3-15.9-81.8-18.9c-6-0.6-49.5-1.1-89.9-1.3v1644.2c0.1,0,0.3,0,0.4,0
		c3.2,0,4.5-0.5,7.1-3.1c1.7-1.7,3.4-4.2,3.7-5.7c0.7-3,1.6-3.1,4.7-0.7c6.2,4.9,24.2,8,49.8,8.7c22,0.6,35.5-0.4,60-4.7
		c61.3-10.6,122.8-26.4,161.8-41.4c21.2-8.1,32.4-15.1,55.7-34.7c27.6-23.1,78.9-61.7,115.7-86.8c60-41.2,71.9-49.9,88.2-64.3
		c57.7-51.3,93.4-90.4,112.3-122.8c14.5-24.7,23.5-48.5,30.3-80.3c0.3-1.1,1.4-2.2,2.5-2.5c9.2-2.3,23.2-25.6,32.6-54.1
		c9.4-28.3,12.7-54.2,10.4-80.9l-1.1-12.5l4.2-6.3c5.1-7.7,17.3-20.5,26.9-28.3c9.8-7.9,24.2-17.5,47.1-31.2
		c26.1-15.8,32.1-20.4,41.9-32.5c6.1-7.7,9.4-12.8,14.1-22.5c9.5-19.5,17.8-43.7,19.8-58.2C2104.1,1515.9,2097,1494.7,2081.6,1478.4
		z"/>
	<path id="structure101_label101_LPBD" bar:growlevel="0" bar:type="" class="st1" d="M1558.9,1478.9c-1.4,0.7-6.2,2.2-10.5,3.2
		c-5,1.3-7.9,2.4-7.9,3.2c0,2.3,24.3,14.3,43.4,21.4c27,10.1,49.6,11.3,58.6,3.2c2.3-2.2,2.7-2.9,1.9-4.2c-1.5-2.7-25.2-14-37.7-18
		C1582,1479.8,1564.1,1476.4,1558.9,1478.9z"/>
	<path id="structure102_label102_Pr5DM" bar:growlevel="0" bar:type="" class="st2" d="M1720,1676.3c-1,0.5-3.3,1.4-5.1,2.3
		c-1.9,0.9-5.6,1.5-8.4,1.5c-6,0-8.9,1.4-13.3,6.2c-7.7,8.5-9.1,15-9.2,39.7c0,20.8,0.5,24.8,5.9,57.8c2.8,17.2,6.2,41.6,6.2,45
		c0,0.4,0.5,0.7,1.3,0.7c1.4,0,1.4-0.3,4.1-24.3c2.5-22.4,3.6-39.5,3.6-57.6c0-26.5,2.2-46.3,5.9-55.5c1.9-4.5,7.2-9.9,10.9-11.2
		c2.1-0.6,5.6-0.8,9.8-0.5c5.5,0.5,6.7,0.4,6.7-0.7c0-0.7-1.4-1.7-2.9-2.3C1731.8,1676.1,1722.3,1675.4,1720,1676.3z"/>
	<path id="structure103_label103_m5" bar:growlevel="0" bar:type="" class="st3" d="M1645.3,1741.9c-1,0.3-3.7,1.3-6,2.3
		c-4.2,1.8-5.1,3.1-3.5,4.8c0.5,0.5,2.1,3.3,3.5,6.3c6.8,13.7,7.9,29.9,3.2,47.3c-0.7,2.8-1.9,14.8-2.6,27.9
		c-0.7,12.6-1.9,25.5-2.7,28.5c-1.4,6.2-5.7,15.9-8.5,20c-2.3,3.2-2.4,4.6-0.3,4.6c7.6,0,20.7-19.6,25.8-38.7
		c3.2-12,3.9-16.7,5.4-33.4c1.3-15.9,2.4-19,6.9-19.5c1.8-0.2,2.5,0.4,3.7,2.7c2.9,6.1,3.6,14.7,3.1,37.5
		c-0.8,36-5.9,66.1-18.3,108.7c-3.6,12.4-3.5,14.4,1.4,22.2c5.4,8.5,18,18.5,23.4,18.5c1.9,0,2.6-0.9,4.6-5.7
		c4.1-9.5,4.9-16.7,4.9-45.6c0-49.2-5-127.5-10-154.2c-4.2-23-8.6-31.1-18.4-33.9C1657.9,1741.3,1648.5,1741.1,1645.3,1741.9z"/>
	<path id="structure104_label104_GrC" bar:growlevel="0" bar:type="" class="st4" d="M1888.1,1667.7c-1.1,3.6-3.9,9.8-6.2,13.8
		l-4.1,7.2l0.5,7.6c0.5,8.8,3.1,19.8,6.3,26.7c2.4,5.3,5,6.5,5,2.3c0-3.9,2.5-12.7,5.4-18.8c2.7-5.8,8.9-13.3,11.8-14.2
		c2.4-0.8,2.2-2.5-1.1-5.9c-4.2-4.5-7.1-9.4-10.4-17.5c-1.6-4-3.4-7.3-4.1-7.5C1890.5,1661.3,1889.4,1663.6,1888.1,1667.7z"/>
	<path class="st5" d="M1275.2,1536c-4-1.5-9.9-0.3-17.3,3.8c-8.1,4.3-12.9,7.8-24.4,17.9c-8.8,7.6-14.7,11.5-20.6,11.5v153.1
		c2.6-0.1,4.7-1.3,6-3.8c3.5-6.8,4.1-11.8,4.8-50.1c0.9-45.3,2.9-61.1,10.2-81.3c4.3-11.8,17.2-26.6,34.4-39.4
		C1278.1,1540.3,1279.7,1537.7,1275.2,1536z"/>
	<path class="st6" d="M1275.2,1536c-4-1.5-9.9-0.3-17.3,3.8c-8.1,4.3-12.9,7.8-24.4,17.9c-8.8,7.6-14.7,11.5-20.6,11.5v153.1
		c2.6-0.1,4.7-1.3,6-3.8c3.5-6.8,4.1-11.8,4.8-50.1c0.9-45.3,2.9-61.1,10.2-81.3c4.3-11.8,17.2-26.6,34.4-39.4
		C1278.1,1540.3,1279.7,1537.7,1275.2,1536z"/>
	<path id="structure10_label7_5Te" bar:growlevel="0" bar:type="" class="st7" d="M1554.2,1709.4c-17.5,4.5-31,14.4-37.5,27.5
		c-3.5,7.2-6.3,18.8-7.3,31l-0.6,7.3l7.1,7.1c3.9,4,11.4,11.2,16.9,16.1l9.8,8.8l5.9-0.4c4.9-0.3,6.9-0.9,11.3-3.4
		c14.2-8.6,38.5-37.2,46.9-55.4c1.8-3.8,4.5-8.1,6-9.5c2.3-2.1,2.7-2.9,1.9-4.1c-1.7-2.7-17.8-13.1-31.7-20.3
		C1567.6,1706.1,1567,1706,1554.2,1709.4z"/>
	<path class="st8" d="M1249.3,1532.2c-0.4-2.1-0.7-3.9-0.8-4c-0.1-0.2-3.4,0.4-7.4,1.3c-5.3,1.1-12.4,1.4-27.8,1.4
		c-0.1,0-0.3,0-0.4,0v19.9c0.3,0,0.7,0,1,0c11.6-0.2,11.5-0.2,24.2-8.5c4.4-2.9,8.9-5.6,9.9-5.8
		C1249.6,1536,1249.8,1535.5,1249.3,1532.2z"/>
	<path id="structure111_label111_4n" bar:growlevel="0" bar:type="" class="st9" d="M1350.5,1509.2c-27.4,2.3-65.3,7.6-81.2,11.6
		c-12.7,3.1-16.8,5-18.7,8.4c-1.3,2.3-1.3,2.6,0.5,3.9c2.5,2,7.7,1.4,41.8-4c15.6-2.5,34.8-5.2,42.8-5.9
		c32.3-3.2,41.9-5.4,42.6-10.2c0.5-3.9-1.2-4.7-10.1-4.6C1363.7,1508.4,1355.7,1508.8,1350.5,1509.2z"/>
	<path id="structure113_label113_MVPO" bar:growlevel="0" bar:type="" class="st10" d="M1560.2,2132c-12.1,1.3-14.9,2.2-19.2,6.5
		c-2.1,2.1-7.4,9.6-11.8,16.8c-10.5,17-22.1,29-36.5,37.5c-18.6,11.1-33.5,15.5-51.9,15.6c-9.8,0-11.3,0.2-12.9,1.8
		c-2.9,2.9-2.3,8.7,2.5,23.4c3.9,11.8,4.6,13.2,7.4,15.1c2.7,1.8,4,2.1,8.5,1.7c5.6-0.4,10.4-2.4,20.3-8.4
		c2.8-1.7,12.2-5.5,21.2-8.6c8.8-3,19.1-6.7,22.8-8.2c10.5-4.1,48.8-28,60.2-37.5c8.2-6.8,16.8-12.1,34.3-21
		c16.9-8.6,19.6-10.4,18.6-12.9c-0.8-2.3-7.5-1.4-22.6,2.6c-13.9,3.7-22.2,4.1-22.8,1.3c-0.4-2.1,4.4-7.2,12.6-13.4
		c3.9-3,7-5.9,7-6.6c0-1.6-2.6-3.7-6.3-4.9C1587.4,2131.5,1570.6,2130.9,1560.2,2132z"/>
	<path id="structure114_label114_LVPO" bar:growlevel="0" bar:type="" class="st11" d="M1599.2,2046.8c-3.9,1.8-5,4-8.4,15.4
		c-7.1,24.5-17.7,44.8-32,61.3c-3.2,3.6-5.8,7-5.8,7.5c0,0.6,5.3,0.7,15.1,0.4c18.1-0.6,24.3,0.4,28.4,4.4l2.7,2.7l3.1-1.6
		c1.8-1,5.7-4.2,8.7-7.2c6.5-6.6,13-18.7,15.7-29.3c1.9-7.6,3.8-23.1,3.1-24.4c-0.3-0.5-1.1-4.9-1.8-9.9c-1.4-10.7-2.8-12.7-11.6-17
		C1609.9,2045.9,1603.2,2045,1599.2,2046.8z"/>
	<path id="structure115_label115_MSO" bar:growlevel="0" bar:type="" class="st12" d="M1542.9,2051.8c-3.1,2.4-5.9,10.1-7.4,20.6
		c-1.7,11.2-4.1,58.9-3.3,63.5c0.5,3.2,1,3.6,3.5,3.9c5.8,0.5,7.6-3.8,15.1-38.5c7.9-36.7,8.5-46.8,2.3-50
		C1549.4,2049.5,1545.6,2049.6,1542.9,2051.8z"/>
	<path class="st13" d="M1220.2,2281.9c-2.8-2.9-3.8-3.3-7.2-3.3c0,0-0.1,0-0.1,0v22.5c5.4-0.1,9.3-2.9,10.7-7.9
		C1224.8,2288.8,1224,2286,1220.2,2281.9z"/>
	<path id="structure11_label9_5Ma" bar:growlevel="0" bar:type="" class="st14" d="M1612.9,1738.8c-1.3,1.1-3.9,5-5.6,8.7
		c-5.7,12.4-21,32.5-34.7,45.6c-8.9,8.5-16.7,13.4-23.3,14.4c-1.9,0.4-3.4,1.1-3.3,1.6c0.1,2.1,33.5,28,44.8,34.7
		c6.1,3.7,6.8,3.8,12.1,3.4c21.1-1.7,40.2-30.2,41.8-61.9c0.8-18.3-3.8-32-14.6-42.9c-5.3-5.5-5.7-5.7-10.1-5.7
		C1616.6,1736.8,1614.7,1737.3,1612.9,1738.8z"/>
	<path class="st15" d="M1402,1794.7c-11.9-39.9-17.9-78.4-20.5-129.2c-0.4-10.2-0.7-11.4-2.2-11.4c-2.8,0-11.5,4.3-12.6,6.2
		c-1.9,3.6-13.3,10.5-35.1,21.3c-12.2,6-24,11.5-26.1,12.2c-4.4,1.3-5.2,2.6-3.2,5.5c2.3,3.3,1.7,5.9-2.7,10.7
		c-6.4,6.8-60.4,56-63,57.3c-3.1,1.6-5.7,0.5-7.1-2.8c-1.1-2.8-2.7-36.5-2.7-55.4c0.1-7.3-0.1-8.3-1.5-8.3c-1.1,0-1.7,1-2.2,3.3
		c-1.9,11.6-4.2,16.8-8.1,18.3c-0.7,0.3-1.4,0.5-2.1,0.5V1852c3.6-0.1,7.1-1.5,12.3-4.3c4.3-2.3,9.7-5.1,12-6.3
		c2.3-1.2,6.4-2.4,9.2-2.9c4.4-0.8,5.5-1.4,9.3-5.4c6.1-6.6,10.8-9.4,21.9-13c36.6-12.2,80.5-17.2,116.1-13.3c6,0.7,11.3,1,11.6,0.7
		C1405.4,1807.3,1404,1801.5,1402,1794.7z"/>
	<path id="structure125_label127_mlf" bar:growlevel="0" bar:type="" class="st16" d="M1287.5,1698.6c-13.9,3.4-38.3,4.9-49.2,3
		c-3.2-0.5-6.7-0.7-7.8-0.4c-2.7,0.6-4.6,5.7-3.8,9.8c0.4,1.6,1,14.1,1.4,27.9c0.6,16.9,1.3,25.6,2,26.7c0.8,1.2,2.2,1.8,4.1,1.8
		c2.5,0,5-1.9,18.5-14.1c31-28.4,49-45.4,49.6-46.7c0.9-2.3,0.6-7.1-0.5-8.3C1300.4,1696.9,1293.9,1697,1287.5,1698.6z"/>
	<path id="structure12_label10_Su5" bar:growlevel="0" bar:type="" class="st17" d="M1538.2,1639.3c-9.8,0.4-32.2,3-44.3,4.9
		c-13.4,2.2-12.8,1.7-14.8,11.5c-2.4,12.2,1,29.5,8.1,41.3c4.5,7.6,12,16.3,13.8,16.3c0.9,0,3.7-0.8,6.3-1.9
		c11.6-4.6,18.6-5.5,45.3-6c35.2-0.7,43.1-0.5,50.9,1.1c3.7,0.7,11.8,2.4,18,3.8c13.9,3,27.7,3.3,34.7,1c5.1-1.8,10.2-6.3,12.7-11.3
		c2.3-4.6,2.7-17.3,0.8-23.7c-2.2-7.3-4.3-9.3-14.9-13.7c-5.2-2.2-17-7.2-26.2-11.3c-14.4-6.3-18.2-7.6-27-9
		C1582.7,1639.2,1561.1,1638.2,1538.2,1639.3z"/>
	<path id="structure131_label133_tth" bar:growlevel="0" bar:type="" class="st18" d="M1221.1,2073.5c-1,1-2.1,3.1-2.3,4.6
		c-0.9,4.5-0.6,58.3,0.3,58.3c0.4,0,5.4-1,11.1-2.2c12.3-2.7,52.2-9.4,79.9-13.4c15.3-2.3,20.3-3.3,20.5-4.3c0.2-0.8-4.6-4-13.5-9.1
		c-35.1-20-53.4-27.8-79-34C1227.9,2071.1,1223.4,2071.1,1221.1,2073.5z"/>
	<path id="structure132_label134_ml" bar:growlevel="0" bar:type="" class="st19" d="M1306.9,2121.6c-40.8,6.2-77.9,12.7-85.4,14.9
		l-3.5,1l0.5,13.9c0.6,16.4,2,20.7,7.2,23.1c1.7,0.8,4,1.5,4.9,1.5c1,0,10.3-2.6,20.6-5.8c10.3-3.2,35.1-10.7,55.2-16.7
		c20-5.9,38-11.8,40.1-12.9c3.1-1.8,3.6-2.4,3.9-5.7c0.4-4.5-1.5-7-9.3-12.5C1334.1,2117.4,1334,2117.4,1306.9,2121.6z"/>
	<path id="structure133_label135_py" bar:growlevel="0" bar:type="" class="st20" d="M1316.2,2193.6c-16.7,2.7-32.4,7.7-48.1,15.3
		c-13.3,6.5-22.8,12.9-32.2,22c-14,13.4-20.3,25.3-22.6,42c-0.5,3.5-0.4,3.7,3.1,5.2c2.5,1.1,4.9,3.3,7.8,7.5
		c3.1,4.3,5.2,6.4,8.1,7.6c13.7,6,54.2,8.5,84.9,5.1c11.3-1.3,43.7-7.1,67.1-12.1c20.3-4.4,21.4-4.9,32.7-13.6
		c7.6-5.9,16-14.4,17.7-18c1.4-3.1,1.4-3.2-3.7-18.7l-5.2-15.7l-9-5.4c-15.4-9.2-33.7-16.5-49.8-20
		C1355.5,2192.4,1327.8,2191.7,1316.2,2193.6z"/>
	<path class="st21" d="M1535,2140.6c-1-0.3-2.3-1.7-3-3.2c-0.9-2.2-2.7-3.5-7.6-5.9c-7.6-3.6-13.5-9.2-16.8-15.8c-2.7-5.3-5-12-5-15
		c0-3-2.1-2.4-4,1.3c-0.9,1.7-3.2,4.6-5.2,6.3c-3.7,3.4-13.4,8.5-16.2,8.5c-3,0-1.3,2.9,2.4,4.1c5.9,2.1,9.4,4.8,11.4,9
		c1.7,3.7,1.9,5,1.4,12c-1.5,20.6-9,33.9-21.9,38.8c-16.3,6-54.4,3.3-112.5-8.1c-19.1-3.8-22.3-4.7-24.8-6.9c-3.3-3-1-8.9,6.4-16
		c4.4-4.1,4.9-6.2,1.3-5.7c-3,0.5-47.1,13.7-82.7,24.6c-13.6,4.2-26,7.7-27.5,7.7c-4.1,0-7.8-2.3-9.9-6.5
		c-2.7-5.3-3.7-23.5-3.3-60.8c0.3-27.8,0.4-30.6,2-33.7c1-1.9,1.4-3.7,1.1-4.1c-0.5-0.6-4.1-0.9-7.7-1v195.1
		c0.9-0.2,1.9-1.6,2.5-3.9c1.8-5.9,7.9-16.7,13.2-23.2c21.2-26,70-46.8,109.5-46.7c25.7,0.1,55.2,9,80.5,24.4
		c3.2,1.9,6.1,3.5,6.6,3.5s0.8-1.6,0.8-3.6c0-4,2.2-6.8,5.6-7.6c1.2-0.3,7.9-0.6,15.1-0.8c11.7-0.3,13.9-0.6,21.3-3.1
		c22.9-7.8,43.5-22.6,54.9-39.4c5.7-8.5,13.8-21.7,13.8-22.7C1536.8,2141.5,1536,2140.9,1535,2140.6z"/>
	<path class="st22" d="M1525,1996.5c-33.7-36-60.3-69.5-75.7-95c-7.2-12.1-24.1-45.2-30-58.9c-2.3-5.5-6.2-15.2-8.6-21.6l-4.2-11.7
		l-7.1-1.1c-11.3-1.8-40.5-2.4-54.7-1.2c-28.3,2.4-63.8,10.4-77.9,17.5c-4.9,2.4-13.5,10-13.5,11.7c0,0.8,1.6,1.4,4.3,1.8
		c13.7,1.9,20,5.7,22.2,13.4c1.6,5.5,1.3,8.1-3,20.4c-10.3,30.2-23,48.5-33.4,48.5c-5-0.1-10.3-2.9-14.6-8.1
		c-10.5-12.6-11.5-13.5-16.1-13.5v171.8c14.9,0,20.4,0.8,36.4,5.5c22,6.4,43.9,16.7,75.5,35.7c6.9,4.1,13,7.5,13.5,7.5
		c0.5,0,2.6-3.6,4.6-7.9c6-13.1,13.1-22.9,25.1-34.8c13.2-13.2,27.1-22.8,46.8-32.4c28.7-14.1,65.5-25,105-31.1
		c15.8-2.4,16.1-2.5,16.1-3.9C1535.9,2008.6,1531,2002.8,1525,1996.5z"/>
	<path id="structure13_label11_MPB" bar:growlevel="0" bar:type="" class="st23" d="M1410.8,1489.2c-22.3,8.7-26.3,10.5-29.9,13.9
		c-2.7,2.5-3,3.8-1.7,7.3c0.7,1.7,0.5,2.7-0.9,4.4c-0.9,1.3-1.7,2.6-1.7,3.1c0,0.4,5.9,0.6,13.1,0.4c14.8-0.4,20.9,0.4,30.8,4.4
		c17.9,7.1,38.9,26.2,47.3,43c3.7,7.4,3.8,7.8,3.7,16.2c0,9.4-2.2,17.1-8.8,32c-5.2,11.7-5.8,23.9-1.6,28.7
		c2.3,2.5,6.8,4.1,11.3,4.1c2.3,0,11.5-1.2,20.5-2.7c23.5-3.9,42.2-5.4,64.5-5.4c17.3,0,35.3,1.3,44.9,3.2c1.8,0.4,2.9,0.3,2.9-0.4
		c0-0.5-3.5-4.5-7.9-8.9c-8.9-8.9-14-17.6-15.7-26.9l-1.1-5.5l-8.5-4c-12-5.5-37.9-20-71.2-40c-27.7-16.6-28.5-17.1-37.9-26.5
		c-8-8-10.2-10.7-13.1-16.7c-1.9-4-5.9-12-9.1-17.8c-3.1-5.9-5.7-11.4-5.7-12.4c0-1.2-0.6-1.7-2-1.6
		C1432,1481.3,1422,1484.9,1410.8,1489.2z"/>
	<path class="st24" d="M1525,1996.5c-33.7-36-60.3-69.5-75.7-95c-7.2-12.1-24.1-45.2-30-58.9c-2.3-5.5-6.2-15.2-8.6-21.6l-4.2-11.7
		l-7.1-1.1c-11.3-1.8-40.5-2.4-54.7-1.2c-28.3,2.4-63.8,10.4-77.9,17.5c-4.9,2.4-13.5,10-13.5,11.7c0,0.8,1.6,1.4,4.3,1.8
		c13.7,1.9,20,5.7,22.2,13.4c1.6,5.5,1.3,8.1-3,20.4c-10.3,30.2-23,48.5-33.4,48.5c-5-0.1-10.3-2.9-14.6-8.1
		c-10.5-12.6-11.5-13.5-16.1-13.5v171.8c14.9,0,20.4,0.8,36.4,5.5c22,6.4,43.9,16.7,75.5,35.7c6.9,4.1,13,7.5,13.5,7.5
		c0.5,0,2.6-3.6,4.6-7.9c6-13.1,13.1-22.9,25.1-34.8c13.2-13.2,27.1-22.8,46.8-32.4c28.7-14.1,65.5-25,105-31.1
		c15.8-2.4,16.1-2.5,16.1-3.9C1535.9,2008.6,1531,2002.8,1525,1996.5z"/>
	<path id="structure141_label155_LPBC" bar:growlevel="0" bar:type="" class="st25" d="M1550.1,1510.6c-5.7,0.4-5.6,1.6,0.4,9.2
		c2.7,3.2,5.7,7.2,6.8,8.8c1.5,2.2,3.1,3.1,6.7,3.9c12.8,2.7,33.1,17.8,49.7,36.7c4.3,5,8.6,9.2,9.4,9.2c2.8,0,4.6-7.4,4.6-18.7
		c0-8.9-0.3-10.6-2.2-14.4c-4.8-9.4-21.2-20.5-42.5-29.1C1571.8,1511.8,1560.2,1509.8,1550.1,1510.6z"/>
	<path id="structure144_label161_DTgC" bar:growlevel="0" bar:type="" class="st26" d="M1313.6,1606.2c0,1.5-10.7,8-16.5,9.9
		c-16.7,5.6-37.8,3.2-52.9-6.2c-5.9-3.6-6.6-3.5-5.9,1.1c0.7,5.5,7,17.5,12.1,23.1l4.3,4.9l10.3-0.1c11.1-0.1,23.3-2,31-4.9
		c8.9-3.3,18.4-15.2,19.9-25c0.5-3.1,0.4-3.7-0.9-3.7C1314.3,1605.4,1313.6,1605.8,1313.6,1606.2z"/>
	<path id="structure145_label162_me5" bar:growlevel="0" bar:type="" class="st27" d="M1440,1538.1c-0.8,2.8-2.2,3.5-5.5,2.9
		c-4-0.7-3.9,0.6,0.5,5.6c4.8,5.4,9.6,15.1,11.4,22.5c4.1,17.5-3.6,40.4-20.5,60.8c-6.2,7.6-4,8.8,8.1,4.8c18.2-6,27.3-15.4,34.1-35
		c3-8.5,3.8-21.5,1.7-28.5c-0.8-2.8-3.4-8.1-5.9-11.8c-4.7-7-20.1-23.1-22.1-23.1C1441.2,1536.1,1440.3,1537,1440,1538.1z
		 M1465.7,1571.7c1.3,1.5,0.5,4.6-1.5,5.3c-1.5,0.6-4.8-1.7-4.8-3.5C1459.4,1570.6,1463.7,1569.3,1465.7,1571.7z M1465.5,1585.8
		c2.5,2.5,0.1,6.8-3.3,5.7c-1-0.3-2.1-1.3-2.3-2.3C1458.8,1585.7,1463,1583.3,1465.5,1585.8z"/>
	<path class="st8" d="M1249.3,1532.2c-0.4-2.1-0.7-3.9-0.8-4c-0.1-0.2-3.4,0.4-7.4,1.3c-5.3,1.1-12.4,1.4-27.8,1.4
		c-0.1,0-0.3,0-0.4,0v19.9c0.3,0,0.7,0,1,0c11.6-0.2,11.5-0.2,24.2-8.5c4.4-2.9,8.9-5.6,9.9-5.8
		C1249.6,1536,1249.8,1535.5,1249.3,1532.2z"/>
	<path id="structure148_label165_SubCA" bar:growlevel="0" bar:type="" class="st28" d="M1425.7,1637.4c-0.5,0.2-7,2.2-14.6,4.5
		c-7.5,2.3-17,5.5-21.1,7.2l-7.5,3l0.2,16.1c0.2,8.8,0.8,21.9,1.4,29.1l1.3,13l4,3.4c8.5,7.3,16.6,10,24.2,7.9c3-0.8,5.3-2.4,9-6.1
		c9.3-9.5,14.2-23.9,15-43.8c0.4-10,0.3-12.8-1.4-19.2c-1.2-4.3-3.1-9-4.7-11.4C1428.9,1637.2,1427.9,1636.5,1425.7,1637.4z"/>
	<path id="structure14_label12_KF" bar:growlevel="0" bar:type="" class="st29" d="M1687.1,1583.4c0,0.8,0.8,3,1.7,4.8
		c2.6,5,4.6,13.7,4.6,19.6c0,10-5.1,15.7-14,15.7c-5.6,0-5.8,0.4-2.9,6.8c5.9,13.5,5.6,24.7-1.2,33c-2.3,2.7-2.7,4-2,5
		c1.5,2.4,13.1,8.1,19.4,9.5c7.7,1.7,19.8,1.8,23.1,0.1c10.1-5.2,19.9-26.5,18.6-40.3c-1.7-18.7-17.2-42.7-33.8-52.3
		C1694.2,1581.6,1687.1,1580.7,1687.1,1583.4z"/>
	<path id="structure150_label97_LPB" bar:growlevel="0" bar:type="" class="st30" d="M1526,1486.6c-23.8,4.1-74.2,6.8-82.3,4.5
		c-2.3-0.6-4.5-0.9-4.8-0.5c-0.9,0.8,6.7,15.8,8.2,16.4c0.7,0.3,2.6-0.4,4.1-1.6c2.5-1.8,3.9-2.1,11.1-2.1c7.1-0.1,9-0.5,13.2-2.5
		c7.9-3.8,15.7-5.5,25.7-5.5c13.7,0.1,25.9,4.2,36.7,12.4l4.2,3.2l9.6-0.5c8.1-0.4,11.1-0.3,17.7,1.4c18.3,4.4,42,16.9,51.6,27.4
		c5.5,5.9,6.8,9,7.3,17.5c0.3,4.6,0.8,7.5,1.4,7.4c0.9,0,11.3-20.1,11.3-21.9c0-0.5-2.6-3.2-5.8-6.1c-6.6-5.9-9.3-11.3-8.3-16.3
		l0.5-3l-9.7-1.1c-11.6-1.3-25.1-4.9-39.6-10.6c-10.7-4.2-30.9-14-37.2-18c-1.9-1.2-4-2.1-4.6-2.1
		C1536,1485,1531.2,1485.7,1526,1486.6z"/>
	<path id="structure151_label157_vsc" bar:growlevel="0" bar:type="" class="st31" d="M1512.5,1456.6c-5.3,0.5-22.6,3.8-29.3,5.5
		c-4.5,1.1-6.4,2-6.6,3.1c-0.3,1.4,0.5,1.6,5.2,1.6c10.9,0,53.4,5.1,79.2,9.5c50,8.6,82.5,23.3,110.4,50.1
		c9.4,9,14.8,16.2,19.1,24.9c2.8,5.8,3.2,7.7,3.2,13.1c0,5.2-0.4,7-2.4,10.7c-1.4,2.4-2.5,4.7-2.5,5s1.4,0.9,3.2,1.2
		c8.8,1.4,24.7,15.3,32.3,28.3c10.2,17.5,12.6,30.5,8.1,43.9c-2.3,7.1-7.3,16.3-9.9,18.5c-2.8,2.3-1.4,3.3,4.9,3.8
		c18.9,1.3,35.2,20.7,46.7,55.2c8.5,25.5,12.3,59.8,11.6,103.2c-0.3,16.2-0.1,23.2,0.6,23.2c0.5,0,3.4-12.4,6.7-29.1
		c11.1-55.6,17.7-77.9,27.9-92.9c3.1-4.4,2.6-4.8-5.9-4.7c-6.8,0.1-8.5-0.2-12.9-2.3c-15.3-7.5-32.2-35.7-44.9-74.8
		c-6.9-21.5-8.6-29.5-8.6-42.5c0-12.5,1.4-17.8,6.4-25.8c2.4-4,2.6-5.2,0.7-5.2c-2.5,0-8.7-3.7-18-10.8c-5-3.8-13.3-9.3-18.5-12.2
		c-11.4-6.5-21.6-13.1-26.6-17.5c-2.1-1.8-9-9.4-15.4-16.7c-13.7-15.8-22.5-24.4-33.4-32.5c-21.6-16-62-30.1-97.3-33.6
		C1538.1,1456.1,1519.5,1455.9,1512.5,1456.6z"/>
	<path class="st32" d="M2081.6,1478.4c-18.4-19.4-42.8-30-76.9-33.7c-2.9-0.4-5.2-0.9-5.2-1.3c0-0.4,1.6-2.3,3.6-4.3
		c3-3,3.6-4.2,3.6-7c0-8.7-8.7-14.6-16.2-10.7c-4.1,2.1-6.3,5.6-6.3,9.8s2.6,9.1,5.4,10c2.6,0.8,2,3.5-0.9,3.9
		c-9,0.9-19,4.4-24.6,8.6c-4,3.1-4.9,3-5.6-0.6c-1.6-7.2-6.1-11.4-12.3-11.4c-1.9,0-3.4-0.4-3.4-1c0-0.5,2.3-3.7,5.3-7
		c17.3-19.5,27.1-39.9,27.1-56.2c0-15.1-6.1-43.1-15.2-70c-12-35.2-23.3-56.9-40.5-77.5c-8.9-10.5-33.6-35.5-55.4-56.2
		c-61.9-58.1-74.8-71.2-115.1-115.9c-36.4-40.4-68.1-77.5-95.8-111.8c-41.4-51.5-51.9-60.8-57.1-50.8c-2.4,4.8-1.7,21.2,1.6,35.9
		c1.9,8.1,2.3,11.3,1.5,11.6c-1.8,0.5-1.3,2.3,2.5,8.8c8.5,14.7,41.1,97,50.3,126.8c6.6,21.6,7.7,27.5,7.6,44.1
		c-0.1,27.4-5.8,67.7-15.6,108.2c-3.5,14.3-3.6,14.7-7.3,18c-8.6,7.7-18.6,13.3-28.7,16.1c-8.2,2.2-25.1,2.3-34.6,0
		c-26-6-55.4-24.7-86.8-54.9c-9.3-8.9-27.2-28.3-35.2-37.9c-11-13.3-19.4-22.4-24.8-26.6c-2.7-2.2-4.9-4.4-4.9-5
		c0-0.6-0.4-1.2-1-1.2c-0.5,0-3.6-2.4-6.7-5.3c-3.1-2.9-12.7-11.2-21.3-18.4c-9.1-7.6-16.5-14.7-17.8-16.7c-1.3-2.1-2.7-3.7-3.2-3.7
		c-0.5,0-1.3,1.5-1.8,3.3c-0.5,2.3-1.6,3.8-3.1,4.5c-3.3,1.5-116.9,6-153.8,6v31.5c15.7,0,20.1-0.4,43.6-3.7
		c44.3-6.4,56-6.9,70.9-3.4c18.4,4.3,43.5,18.1,55.1,30.2c3.1,3.1,8.6,10.3,12.4,15.8c5,7.4,8.6,11.4,13.6,15.5
		c13.9,11.3,24,24.8,22.7,30.1c-0.7,3-6.2,9.3-9.6,11.1c-3.9,2-7.8,1.5-16.1-1.8c-9.6-4-28.8-9.7-42.3-12.8
		c-17.9-4-32.8-5.8-51.3-6.4c-19.7-0.5-31,0.2-63.4,4.4c-14.5,1.9-25,2.8-35.5,2.8v94.5c5,0,9.3-0.1,14.2-0.4
		c7.7-0.5,38.6-3.1,68.6-5.8c71.5-6.5,81.2-7,109.8-6.3c58.1,1.3,75.5,4.5,103.9,18.4c13.7,6.7,28.9,16.3,36,22.8
		c2.5,2.3,11.8,13.9,20.6,25.9c17.6,24,19.6,26.5,23.2,28.3c3.7,1.9,11.2,1.5,19-1c9.3-3,16.1-3,23.1,0c11.1,4.7,14.5,2.7,20.5-11.8
		c2.2-4.9,5-10.5,6.6-12.3c3.2-3.8,8.1-5.7,12.9-4.8c8.9,1.7,39.1,20.4,60.8,37.9c6.6,5.3,17.7,15.2,24.8,22
		c6.9,6.8,15.1,14.1,18.1,16.4c17.1,13.1,41.4,25,61.5,30.2c17.3,4.5,32.5,2.9,58.8-6.2c19.8-6.8,25-8.4,25.7-7.7
		c0.3,0.3,0.7,5.9,1,12.3c0.4,7.7,0.9,11.8,1.5,11.8c0.5,0,1.7-2.5,2.6-5.7c0.9-3.1,3.1-8.5,4.8-12c2.6-5.6,3.5-6.7,6.7-7.9
		c4.9-2,7.2-1.9,7.2,0.3c0,0.9-3.1,7.9-6.8,15.5c-8.3,17.2-13.1,31.4-13.7,40c-0.4,5.6-0.1,6.8,2.2,11.2c4.5,8.8,10.7,11.1,19.4,7
		c8.6-4,16-12.6,27.2-31.7c6.6-11.3,10.5-15.2,16.7-16.6c23.4-5,43.6,8.8,54.2,36.9c2.4,6.5,2.9,9.1,3.2,18.5
		c0.4,10.4,0.3,11-2.1,15.8c-9.1,17.9-35.6,50-56.2,68c-20.8,18.2-29.4,19.5-44.6,7c-17.4-14.2-19.2-15.2-29.7-16.3
		c-7.6-0.8-13.1,0.2-17.1,2.9c-1.8,1.2-4.1,2.2-5,2.2c-1.7,0-1.8,0.7-1.8,19.4c0,15.2,0.3,19.7,1.2,20.5c0.7,0.5,2,3,2.9,5.5
		c2.3,6.5,7,14.8,10.7,18.8c3.6,3.9,4,5.6,1.5,6.4c-1,0.3-3.3,2.3-5.3,4.4c-5.9,6.4-10,15.9-11.8,27.3c-1,6.1-1.6,2.8,8.5,41.8
		c4.6,17.5,5.2,26.8,4.8,64.7c-0.4,37.5-0.8,35.8,6.4,30.6c9.9-7.2,22.1-30.2,30.2-57.1c7.8-25.7,10.6-49,8.8-73.6l-1.1-14.7
		l4.1-6.2c5.1-7.7,17.3-20.4,26.9-28.2c9.8-7.9,24.2-17.5,47.1-31.2c26.1-15.8,32.1-20.4,41.8-32.5c6.1-7.7,9.4-12.8,14.1-22.5
		c9.5-19.5,17.8-43.7,19.8-58.2C2104.1,1515.9,2097,1494.7,2081.6,1478.4z M1886.6,1419c-20.8-6.9-38.1-16.4-76.1-41.6
		c-11.9-7.9-21.4-13-47.7-26c-18-8.9-36.2-18.4-40.4-21.1c-15.5-10.1-21-18.5-21.1-32c-0.1-6.2,0.3-7.6,3.2-13.5
		c1.8-3.6,7.4-12,12.4-18.6c12.2-16,15.5-21.4,18.8-29.9c4.4-11.5,5.7-18.7,5.7-33.2c0-20.6-3.5-37.4-14.2-67.9
		c-10.7-30.6-12.3-35.9-12.9-42c-0.6-8.5,1.7-10.7,7.7-7.6c3.6,1.9,11.2,10.2,22.9,24.8c21.2,26.6,46.3,53.9,74.5,81
		c26.9,26,34.9,37.1,47.6,66.1c8.6,19.5,13.9,27.1,29.8,42.8c14.5,14.3,16.2,16.6,23.8,31c7.2,13.5,9.3,16.5,19.8,27.9
		c15.5,16.9,18.9,23.3,18.3,34.7c-0.4,5.7-1,7.8-3.9,13.3C1943.9,1428.1,1924.2,1431.5,1886.6,1419z"/>
	<path class="st32" d="M1264.8,1036.4c-1.5-7.4-8.9-28.5-11.2-31.9c-3.8-5.9-20-9.6-40.7-9.7v74.2c12,0,38.4-4.8,45-8.2
		C1264.8,1057.3,1267.3,1048.7,1264.8,1036.4z"/>
	<path id="structure155_Unlabeled-2605-1025_Unlabeled" bar:growlevel="0" bar:type="" class="st32" d="M1931.9,1043.1
		c0,0.6,2.7,2.3,5.9,3.8c3.2,1.5,7.9,4.5,10.3,6.7c8.6,7.7,11.3,15.7,8.5,24.8c-0.9,2.8-1.3,5.3-1,5.7c0.3,0.3,4.3-0.3,9-1.4
		c14.1-3.2,25.2-4,50-3.5c37.4,0.8,77.7,6.8,114.5,16.8c14.4,4,16,4.1,16,2.4c0-1.4-27.4-14.9-48.6-23.8
		c-17.6-7.5-38.6-15.2-53.5-19.7c-5.9-1.8-11.2-3.6-11.7-4.1c-0.4-0.4-2.1-0.8-3.6-0.8c-1.4,0-6.8-0.8-11.7-1.7
		C1991.1,1043.5,1931.8,1039.8,1931.9,1043.1z"/>
	<path class="st32" d="M1801,1526.7c-10.8,2.3-13.1,2.5-30.6,2.5c-17.5,0-19.5-0.2-27.5-2.3c-10.4-2.8-20.3-7.5-26.9-12.7
		c-3.7-3-6-5.8-9.2-11.5c-4.7-8.5-10.6-16.9-16.3-23c-6.1-6.7-23-18.9-41.9-30.3c-12.8-7.8-66.6-34.5-72.5-36.1
		c-7.3-1.9-9.2-1.8-33.5,1.7c-11.8,1.7-29.5,4-39.4,4.9c-40.1,4.2-46.4,5.5-84.6,17.6c-27.5,8.7-35.1,10.5-59.8,13.9
		c-36.5,5-51.7,9.8-77.8,24.8c-24.9,14.2-45,20.2-67.9,20.2v34.7c18-0.1,36.3-1.9,39.5-4.6c2-1.7,14.4-5.6,24.2-7.6
		c21.8-4.4,64.8-9.5,88.1-10.5c10.8-0.4,13.7-0.8,13.7-1.8c0-1.8,4.2-5.5,9.1-7.9c6.3-3.2,44.3-17.6,46.4-17.6
		c1.1,0,2.2-0.7,2.5-1.7c1.1-3.5,26-12.7,34.6-12.7c4.4,0,5.3-0.3,5.7-1.6c0.8-3.1,26.5-8.1,45.3-8.9c32.6-1.3,71.5,7.4,103.5,23.1
		c18.6,9.2,31.7,20.2,52,43.7c6.4,7.4,13.3,14.9,15.4,16.7c4.9,4.3,15.1,11,26.6,17.5c5.2,2.9,13.5,8.4,18.5,12.2
		c10.1,7.7,15.5,10.8,18.8,10.8c1.7,0,5.7-3.2,15.6-12.9c19.5-18.8,25.8-24.7,36.1-33.4c5-4.4,9.2-8.6,9.2-9.3
		C1817.6,1523.1,1817.6,1523.1,1801,1526.7z"/>
	<path id="structure158_Unlabeled-1979-1553_Unlabeled" bar:growlevel="0" bar:type="" class="st32" d="M1371.5,1518.1
		c-2.7,1.1-18.9,3.3-35.7,4.9c-21.3,2.1-68,9.6-68,11.1c0,0.7,1.1,1.2,2.6,1.2c8,0,9.4,4,3.1,8.6c-2.1,1.4-3.8,3.2-3.8,3.7
		c-0.1,0.6,3.2,1.2,9.2,1.5c10.7,0.5,16.1,2.1,23.5,6.5c2.9,1.7,5.7,3.1,6.1,3.1c0.5,0,3-1.9,5.5-4.1c5-4.5,13.9-9.3,20.9-11.3
		c3.1-0.9,9.1-1.3,19.3-1.2c13.3,0.1,15.8,0.4,23.9,2.6c13.8,3.8,13.6,3.8,16.3,0.5c2.1-2.5,2.9-2.9,6-2.6
		c6.9,0.5,8.4,4.8,13.4,37.7c2.6,17.3,3,21.3,3,39.3c0,12.7,0.4,20,0.9,20c3.2-0.1,5-1.3,5-3.3c0-1.3,1.5-4.1,3.4-6.5
		c16.9-20.3,24.7-43.3,20.5-60.8c-1.8-7.4-6.7-17.1-11.4-22.5c-3.4-3.9-4.3-5.9-2.7-5.9c0.5,0,1-1.1,1.2-2.5
		c0.2-1.9,0.8-2.5,2.8-2.7c1.3-0.2,2.4-0.8,2.4-1.5c0-1.6-10.5-8.1-18.3-11.3c-9.8-3.9-15.9-4.8-30.7-4.3c-7.2,0.2-13.1,0-13.1-0.4
		C1376.6,1517,1374,1517.1,1371.5,1518.1z"/>
	<path class="st32" d="M1259,1534.3c-2.9,0-6.1-0.3-7.2-0.5c-1.5-0.4-2.1-0.2-2.1,0.8c0,0.8-0.8,1.6-1.8,2c-1,0.3-5.4,3-9.8,5.8
		c-12.7,8.3-12.6,8.3-24.2,8.5c-0.3,0-0.7,0-1,0v18.3c5.9,0,11.9-3.9,20.6-11.5c11.2-9.7,17.3-14.3,24.7-18.1
		C1265.7,1535.7,1265.8,1534.3,1259,1534.3z"/>
	<path id="structure15_label13_Pr5VL" bar:growlevel="0" bar:type="" class="st33" d="M1725.4,1680.6c-0.4,0.2-2,0.5-3.3,0.8
		c-3.8,0.8-8,5-10.3,10.2c-3.7,8.5-4.8,18.4-6.1,57c-1.6,46.3-4.3,71.9-11.7,108.4c-4.3,21.6-5.2,31.9-4,47.4
		c2.3,32.2,0,62.2-5.6,73c-2.2,4.1-2.7,11.6-1,13.3c2.3,2.3,20.5-6.8,34.5-17c8.2-6,33.7-31.3,41.2-40.9
		c6.1-7.7,10.8-15.8,14.7-24.8c4.1-9.7,8.7-26.5,9.8-34.7c1.6-13.1,2.5-47,1.7-67.1c-1.6-43.3-7.6-72.1-19.8-96.7
		c-7-14-12-19.5-22.4-24.8C1736.7,1681.5,1728.3,1679.6,1725.4,1680.6z"/>
	<path id="structure160_Unlabeled-2575-1592_Unlabeled" bar:growlevel="0" bar:type="" class="st32" d="M1908.2,1556.1
		c-1,3.6-4.6,14.8-8.2,25c-8.3,23.4-9.4,27.4-9.4,32.1c0,5.5,2.1,5,3.4-0.7c1.7-7.4,6.4-16.1,11.2-20.9c6.3-6.3,11.6-8.4,25.5-10.1
		c26.6-3.1,49-7.6,54.8-11.1c2-1.2,2.9-2.4,3.1-4.4c0.3-2.3-0.4-3.3-3.5-6c-2.1-1.7-5.2-3.5-6.8-3.8c-3.4-0.6-4-0.5-23.2,2.7
		c-22.1,3.7-30.4,4.5-34.1,3.2c-3.8-1.2-6.8-4.9-7.5-9.4c-0.4-2.2-1-3.2-2-3.2C1910.1,1549.6,1909.3,1551.3,1908.2,1556.1z"/>
	<path id="structure162_Unlabeled-2306-1719_Unlabeled" bar:growlevel="0" bar:type="" class="st32" d="M1666.4,1667.7
		c0,0.5,0.9,2.9,2.1,5.1c1.7,3.5,2,5.6,2,14c0,11.2-1,14.2-6.5,19.7c-7.7,7.7-22,8.4-49.3,2.3c-16.2-3.6-27.4-4.9-35.8-4.1
		c-10.3,1-9.5,2.3,5.3,10c14.4,7.4,29.3,17.2,30.5,20.1c0.7,1.6,1.6,2,5.2,2c4,0,4.8,0.4,9.2,4.6c3.4,3.2,5.4,4.5,6.5,4.1
		c0.9-0.3,3.9-1.4,6.6-2.3c5.4-2,13.9-2.4,18.8-1c4.9,1.4,8.9,4.6,11.3,9.2c6.3,11.6,11.4,46.2,13.9,94.3
		c1.5,28.7,1.8,31.5,3.2,31.5c0.7,0,1.3-0.9,1.3-2.2c0-1.3,1.6-10.3,3.5-20.1c4.8-24.3,5-25.5,3.2-25.5c-0.7,0-1.3-0.3-1.3-0.7
		c0-3.4-3.4-27.8-6.2-45c-5.5-32.9-5.9-37-5.9-57.8c0-15.8,0.4-20.4,1.6-25.2c2.1-7.4,5-12.3,9.5-16.5c4.3-3.9,4.6-4.9,1.3-5.7
		c-7.3-1.6-10.2-2.6-14.9-5c-3-1.4-6.3-3.6-7.6-4.9C1671.6,1666.5,1666.4,1665.7,1666.4,1667.7z"/>
	<path id="structure164_Unlabeled-2158-2101_Unlabeled" bar:growlevel="0" bar:type="" class="st32" d="M1521.5,2012.7
		c-55.3,8.9-99.6,24.3-131.5,45.6c-13.3,8.8-30.4,25.3-37.6,36.1c-5.4,8.1-12.7,22.6-12.7,25.3c0,1.2,1.3,2.8,3.2,4
		c5.7,3.9,7.6,6.9,7.6,12c0,5.3-0.5,5.3,12.5,0.3c4.7-1.8,11.6-4,15.3-5c7.4-1.9,43.9-8.1,57.7-9.8c11.5-1.3,12.6-1.6,12.6-3.1
		c0-0.7-1.4-1.4-3.7-1.8c-11.1-1.8-19.6-11.3-19.7-21.8c0-14.3,18.6-31.3,41.9-38.1c14.6-4.2,30.7-5.7,42.3-3.6
		c7.7,1.3,8.6,1.9,6.5,5c-3.1,4.7-10.4,20.5-11.9,25.8c-4,14,0,30.7,9.9,40.6c5.4,5.5,17.6,11.4,17.6,8.7c0-7.7,3.1-54.3,4-60.6
		c2.8-19,8.5-25.7,17.6-21.1c4,2.1,4.9,6.8,3.8,17.6c-0.9,8.6-8.6,46.3-12,58.3c-1,3.7-1.6,6.8-1.4,7.1c1,1,9.5-1.7,9.5-3
		c0-0.7,2.6-4.3,5.8-7.9c10.3-11.8,18.4-25.1,24.8-40.6c3.5-8.6,10.8-31.4,10.8-33.9c0-0.6-1.4-2.3-3.1-3.7
		c-6.5-5.1-15.8-8.6-23-8.7c-2.8,0-4.6-1.3-16.8-13.1c-7.9-7.6-14.3-13-15.3-13C1535.3,2010.5,1528.7,2011.5,1521.5,2012.7z"/>
	<path id="structure17_label15_DTgP" bar:growlevel="0" bar:type="" class="st34" d="M1267.2,1549.3c-4.4,0.9-25.4,21.9-28.7,28.7
		c-1.9,4.1-3.2,14.7-2.5,21.1c0.5,5.2,0.7,5.6,4.5,8.3c14.4,9.9,33.2,13.7,50.5,10.1c12.9-2.7,21.5-8.3,26.1-16.9
		c2.2-4.1,2.4-5.6,2.4-13.1c0-7.8-0.3-9.1-2.9-14.4c-6.6-13.1-14.6-19.9-27.4-22.9C1283.9,1548.9,1271.8,1548.4,1267.2,1549.3z"/>
	<polygon class="st20" points="1212.9,2276.2 1212.9,2276.5 1212.9,2276.4 	"/>
	<path class="st21" d="M1535,2140.6c-1-0.3-2.3-1.7-3-3.2c-0.9-2.2-2.7-3.5-7.6-5.9c-7.6-3.6-13.5-9.2-16.8-15.8c-2.7-5.3-5-12-5-15
		c0-3-2.1-2.4-4,1.3c-0.9,1.7-3.2,4.6-5.2,6.3c-3.7,3.4-13.4,8.5-16.2,8.5c-3,0-1.3,2.9,2.4,4.1c5.9,2.1,9.4,4.8,11.4,9
		c1.7,3.7,1.9,5,1.4,12c-1.5,20.6-9,33.9-21.9,38.8c-16.3,6-54.4,3.3-112.5-8.1c-19.1-3.8-22.3-4.7-24.8-6.9c-3.3-3-1-8.9,6.4-16
		c4.4-4.1,4.9-6.2,1.3-5.7c-3,0.5-47.1,13.7-82.7,24.6c-13.6,4.2-26,7.7-27.5,7.7c-4.1,0-7.8-2.3-9.9-6.5
		c-2.7-5.3-3.7-23.5-3.3-60.8c0.3-27.8,0.4-30.6,2-33.7c1-1.9,1.4-3.7,1.1-4.1c-0.5-0.6-4.1-0.9-7.7-1v195.1
		c0.9-0.2,1.9-1.6,2.5-3.9c1.8-5.9,7.9-16.7,13.2-23.2c21.2-26,70-46.8,109.5-46.7c25.7,0.1,55.2,9,80.5,24.4
		c3.2,1.9,6.1,3.5,6.6,3.5s0.8-1.6,0.8-3.6c0-4,2.2-6.8,5.6-7.6c1.2-0.3,7.9-0.6,15.1-0.8c11.7-0.3,13.9-0.6,21.3-3.1
		c22.9-7.8,43.5-22.6,54.9-39.4c5.7-8.5,13.8-21.7,13.8-22.7C1536.8,2141.5,1536,2140.9,1535,2140.6z"/>
	<path id="structure22_label20_Tz" bar:growlevel="0" bar:type="" class="st35" d="M1454.9,2118.9c-18,1.6-64.4,8.8-76.5,12
		c-22.1,5.7-38.3,15.1-44.6,25.8c-2.9,4.9-2.4,7.8,1.5,9.9c4.3,2.3,41.9,9.4,66.5,12.9c30.2,4.1,55.9,4.7,66.5,1.4
		c14.3-4.4,20-13,23.5-35.7c2.3-13.9-1.3-20.7-12.3-24.1C1473.6,2119.3,1462.4,2118.3,1454.9,2118.9z"/>
	<path id="structure23_label21_SPO" bar:growlevel="0" bar:type="" class="st36" d="M1480.6,2053.2c-24.9,4.4-45.3,16.5-52.6,31.1
		c-7.2,14.3,0.6,28.4,17.7,32.1c13.6,2.9,29.2,1.7,39.2-2.9c8.9-4.1,17.6-15.3,17.6-22.8c0-1.5,0.6-4.9,1.4-7.6
		c1.5-5,8.9-20.9,11.8-25.4c1.4-2.2,1.4-2.6,0.4-3.3C1511.7,2051.8,1492.7,2051.1,1480.6,2053.2z"/>
	<path id="structure25_label23_A5" bar:growlevel="0" bar:type="" class="st37" d="M1452.9,1624.7c-4,3.6-13.8,8.8-19.3,10.5
		c-2.2,0.6-3.9,1.4-3.9,1.8c0,0.4,1.2,2.6,2.7,5c4.2,6.8,5.8,14.3,5.7,27.3c-0.2,23.8-9.2,44.8-22.1,51.4
		c-6.8,3.5-16.3,1.4-25.1-5.6c-4.7-3.7-5.5-3.4-4.9,1.6c5.8,42.7,13.6,74.4,27.2,110.1c10,26.1,28.8,63.5,42.3,84.1
		c19.5,29.9,53.1,69.5,90.4,106.9c17.6,17.6,18.9,18.7,22.1,18.7c7.7,0.1,16.7,3.6,23.8,9.2c3.5,2.8,3.6,2.9,6.1,1.4
		c5.2-3.1,16.1-1.1,23,4.2c3.2,2.4,5,3,5,1.4c0-0.4-0.8-5-1.8-10.1c-3.8-19.4-3.4-25.7,2.1-32c7.8-8.9,30.7-14.1,41.5-9.5
		c2.2,1,4.2,2.3,4.5,2.8c1.3,2.2,3.1,0.7,6.8-5.3c3.4-5.9,3.7-6.6,3.1-11l-0.5-4.8l-6.3-3c-11.2-5.3-23.2-19.7-23.2-27.7
		c0-2.1-0.3-2.3-2-1.8c-8.4,2.4-14.7,0.2-22.2-8.1c-8.5-9.4-12.1-20.3-12-37.1c0.1-6.8-0.2-9.2-1.1-9.2c-0.6,0-3.3,1.6-6,3.7
		c-6.4,4.9-19.4,11.1-27.8,13.4c-11.3,3.1-25,4.1-39.8,2.9c-22.6-1.9-36.9-7-48.1-17.5c-13.8-12.9-26.1-38.2-32-65.5
		c-2.8-13-3-44.8-0.4-56.7c3.3-15.4,8.9-28.6,17-40.3c4.6-6.7,13.7-15.8,18.5-18.7c1.5-0.9,2.8-2.3,2.8-3c0-0.7-1.5-3.1-3.4-5.4
		c-10.3-12.3-15.8-24.2-17.3-37.7c-0.6-6.1-0.4-9.8,1.3-20.6l0.6-3.7l-6.2,0.1c-7,0.1-10.8-1.5-14.1-5.9c-1.6-2.3-1.9-3.8-1.8-11.1
		c0.1-5.8-0.2-8.5-0.9-8.5C1456.7,1621.7,1454.7,1623,1452.9,1624.7z M1566.6,1999.6c1.9,1.1,2.3,3.6,0.6,5.2
		c-1.6,1.6-4.1,1.3-5.2-0.8c-0.8-1.4-0.7-2.3,0.5-3.6C1564.4,1998.4,1564.4,1998.4,1566.6,1999.6z M1602.9,2019.3
		c3,3.2-1.6,7.5-4.7,4.4c-2.1-2.1-0.6-6.1,2.1-6.1C1600.9,2017.6,1602.1,2018.4,1602.9,2019.3z M1592.4,2023.2
		c1.6,1.6,1.3,4.1-0.6,5.2c-2.3,1.2-4.3,0.4-5-1.9C1585.7,2023.1,1589.9,2020.7,1592.4,2023.2z"/>
	<path id="structure26_label24_SubCV" bar:growlevel="0" bar:type="" class="st38" d="M1452.9,1624.7c-4,3.6-13.8,8.8-19.3,10.5
		c-2.2,0.6-3.9,1.4-3.9,1.8c0,0.4,1.2,2.6,2.7,5c4.2,6.8,5.8,14.3,5.7,27.3c-0.2,23.8-9.2,44.8-22.1,51.4
		c-6.8,3.5-16.3,1.4-25.1-5.6c-4.7-3.7-5.5-3.4-4.9,1.6c5.8,42.7,13.6,74.4,27.2,110.1c10,26.1,28.8,63.5,42.3,84.1
		c19.5,29.9,53.1,69.5,90.4,106.9c17.6,17.6,18.9,18.7,22.1,18.7c7.7,0.1,16.7,3.6,23.8,9.2c3.5,2.8,3.6,2.9,6.1,1.4
		c5.2-3.1,16.1-1.1,23,4.2c3.2,2.4,5,3,5,1.4c0-0.4-0.8-5-1.8-10.1c-3.8-19.4-3.4-25.7,2.1-32c7.8-8.9,30.7-14.1,41.5-9.5
		c2.2,1,4.2,2.3,4.5,2.8c1.3,2.2,3.1,0.7,6.8-5.3c3.4-5.9,3.7-6.6,3.1-11l-0.5-4.8l-6.3-3c-11.2-5.3-23.2-19.7-23.2-27.7
		c0-2.1-0.3-2.3-2-1.8c-8.4,2.4-14.7,0.2-22.2-8.1c-8.5-9.4-12.1-20.3-12-37.1c0.1-6.8-0.2-9.2-1.1-9.2c-0.6,0-3.3,1.6-6,3.7
		c-6.4,4.9-19.4,11.1-27.8,13.4c-11.3,3.1-25,4.1-39.8,2.9c-22.6-1.9-36.9-7-48.1-17.5c-13.8-12.9-26.1-38.2-32-65.5
		c-2.8-13-3-44.8-0.4-56.7c3.3-15.4,8.9-28.6,17-40.3c4.6-6.7,13.7-15.8,18.5-18.7c1.5-0.9,2.8-2.3,2.8-3c0-0.7-1.5-3.1-3.4-5.4
		c-10.3-12.3-15.8-24.2-17.3-37.7c-0.6-6.1-0.4-9.8,1.3-20.6l0.6-3.7l-6.2,0.1c-7,0.1-10.8-1.5-14.1-5.9c-1.6-2.3-1.9-3.8-1.8-11.1
		c0.1-5.8-0.2-8.5-0.9-8.5C1456.7,1621.7,1454.7,1623,1452.9,1624.7z M1566.6,1999.6c1.9,1.1,2.3,3.6,0.6,5.2
		c-1.6,1.6-4.1,1.3-5.2-0.8c-0.8-1.4-0.7-2.3,0.5-3.6C1564.4,1998.4,1564.4,1998.4,1566.6,1999.6z M1602.9,2019.3
		c3,3.2-1.6,7.5-4.7,4.4c-2.1-2.1-0.6-6.1,2.1-6.1C1600.9,2017.6,1602.1,2018.4,1602.9,2019.3z M1592.4,2023.2
		c1.6,1.6,1.3,4.1-0.6,5.2c-2.3,1.2-4.3,0.4-5-1.9C1585.7,2023.1,1589.9,2020.7,1592.4,2023.2z"/>
	<path id="structure27_label25_SubCD" bar:growlevel="0" bar:type="" class="st39" d="M1452.9,1624.7c-4,3.6-13.8,8.8-19.3,10.5
		c-2.2,0.6-3.9,1.4-3.9,1.8c0,0.4,1.2,2.6,2.7,5c4.2,6.8,5.8,14.3,5.7,27.3c-0.2,23.8-9.2,44.8-22.1,51.4
		c-6.8,3.5-16.3,1.4-25.1-5.6c-4.7-3.7-5.5-3.4-4.9,1.6c5.8,42.7,13.6,74.4,27.2,110.1c10,26.1,28.8,63.5,42.3,84.1
		c19.5,29.9,53.1,69.5,90.4,106.9c17.6,17.6,18.9,18.7,22.1,18.7c7.7,0.1,16.7,3.6,23.8,9.2c3.5,2.8,3.6,2.9,6.1,1.4
		c5.2-3.1,16.1-1.1,23,4.2c3.2,2.4,5,3,5,1.4c0-0.4-0.8-5-1.8-10.1c-3.8-19.4-3.4-25.7,2.1-32c7.8-8.9,30.7-14.1,41.5-9.5
		c2.2,1,4.2,2.3,4.5,2.8c1.3,2.2,3.1,0.7,6.8-5.3c3.4-5.9,3.7-6.6,3.1-11l-0.5-4.8l-6.3-3c-11.2-5.3-23.2-19.7-23.2-27.7
		c0-2.1-0.3-2.3-2-1.8c-8.4,2.4-14.7,0.2-22.2-8.1c-8.5-9.4-12.1-20.3-12-37.1c0.1-6.8-0.2-9.2-1.1-9.2c-0.6,0-3.3,1.6-6,3.7
		c-6.4,4.9-19.4,11.1-27.8,13.4c-11.3,3.1-25,4.1-39.8,2.9c-22.6-1.9-36.9-7-48.1-17.5c-13.8-12.9-26.1-38.2-32-65.5
		c-2.8-13-3-44.8-0.4-56.7c3.3-15.4,8.9-28.6,17-40.3c4.6-6.7,13.7-15.8,18.5-18.7c1.5-0.9,2.8-2.3,2.8-3c0-0.7-1.5-3.1-3.4-5.4
		c-10.3-12.3-15.8-24.2-17.3-37.7c-0.6-6.1-0.4-9.8,1.3-20.6l0.6-3.7l-6.2,0.1c-7,0.1-10.8-1.5-14.1-5.9c-1.6-2.3-1.9-3.8-1.8-11.1
		c0.1-5.8-0.2-8.5-0.9-8.5C1456.7,1621.7,1454.7,1623,1452.9,1624.7z M1566.6,1999.6c1.9,1.1,2.3,3.6,0.6,5.2
		c-1.6,1.6-4.1,1.3-5.2-0.8c-0.8-1.4-0.7-2.3,0.5-3.6C1564.4,1998.4,1564.4,1998.4,1566.6,1999.6z M1602.9,2019.3
		c3,3.2-1.6,7.5-4.7,4.4c-2.1-2.1-0.6-6.1,2.1-6.1C1600.9,2017.6,1602.1,2018.4,1602.9,2019.3z M1592.4,2023.2
		c1.6,1.6,1.3,4.1-0.6,5.2c-2.3,1.2-4.3,0.4-5-1.9C1585.7,2023.1,1589.9,2020.7,1592.4,2023.2z"/>
	<path id="structure29_label27_5TT" bar:growlevel="0" bar:type="" class="st40" d="M1663.5,1793.3c-1.6,1.7-2.5,7.7-4.2,26.3
		c-1.4,15.5-5.2,29.7-11.3,41.9c-6,12.4-11.5,18.7-18.9,22.1c-7.1,3.2-9.9,6.3-11.6,13c-3.9,14.7,0.5,34.4,9.9,45.4
		c5.4,6.3,10.5,9.1,16.5,9.1c7.7-0.1,8.4-1.1,12.5-15.8c4.3-15.2,8.3-32.6,11.3-49.2c6.4-34.6,7.6-80.3,2.5-90.7
		C1668.4,1791.7,1665.7,1790.8,1663.5,1793.3z"/>
	<path id="structure30_label28_Bar" bar:growlevel="0" bar:type="" class="st41" d="M1394.9,1544.4c-1.1,1.2-3,4.3-4.2,7.1
		c-4,9.1-5.1,17.5-5.9,43.6c-0.4,13.3-1.3,31.3-1.9,39.9c-0.5,8.6-0.8,15.8-0.5,16.1c0.4,0.3,4.3-0.9,8.9-2.7
		c4.6-1.8,12-4.4,16.5-5.8l8.1-2.5l0.7-4c1.5-8.3,0.1-36.4-2.9-56.3c-4.9-32.1-6.5-36.6-13.2-37.2
		C1397.6,1542.4,1396.4,1542.8,1394.9,1544.4z"/>
	<path id="structure31_label29_LPBI" bar:growlevel="0" bar:type="" class="st42" d="M1456.7,1469.8c-17.7,6.2-21.7,8.8-21.6,13.9
		c0.1,3.7,4.9,6.7,12.7,7.8c5,0.7,39.2-0.9,57.8-2.8c15.8-1.5,36.2-4.9,45.9-7.7c5.2-1.4,6.9-2.3,6.9-3.5c0-1.3-2.7-1.9-20.4-4.4
		c-28.3-3.9-43.5-5.5-59.2-6l-13.5-0.4L1456.7,1469.8z"/>
	<path id="structure32_label30_LPBV" bar:growlevel="0" bar:type="" class="st43" d="M1490,1496.2c-6.7,1.1-17.1,5.4-17.1,7
		c0,0.5,4.1,2.3,9.3,4c5,1.6,17.2,6.6,27,11c23.2,10.5,32.3,13.6,41.8,14.1c5.5,0.3,7.4,0.1,7.4-0.7c0-2.3-8.1-12.4-15.3-19.2
		c-8.5-8-18.4-13.4-28.3-15.5C1508.9,1495.7,1495.3,1495.3,1490,1496.2z"/>
	<path id="structure33_label31_MPBE" bar:growlevel="0" bar:type="" class="st44" d="M1582,1605.3c1.1,10.9,12,26.7,23.9,34.6
		c7.3,4.9,52.2,24.6,59.2,26.1c6.5,1.4,9,0,12.3-6.5c6.8-13.4-0.6-36.6-14.9-47c-4-2.9-14-6.4-23-8c-5.4-1-5.7-0.9-7.3,1.2
		c-4.3,5.5-15.6,5.2-36-0.7c-6.2-1.9-12.1-3.6-13-3.9C1581.7,1600.6,1581.6,1601,1582,1605.3z"/>
	<path id="structure36_label34_s5" bar:growlevel="0" bar:type="" class="st45" d="M1844.6,1718c-4.2,3.1-10,6.7-12.8,8.1
		c-6.3,3.2-11.1,8.9-16,19.2c-7.6,15.8-11.7,31.1-22.5,84.7c-11.5,57.2-14.7,68.9-23.5,86c-6,11.7-11.6,18.8-27.4,35
		c-14.7,14.9-22.4,21.8-32.7,28.4c-7.2,4.6-22.5,12.2-24.8,12.2c-1.5,0-5.8,6.3-9.2,13.8c-4.7,10.1-3.9,23,2,32.5
		c2.8,4.6,9.6,11.8,13.5,14.1l2.9,1.8l8.8-2.3c50.8-12.9,88.3-39.2,118.3-82.9c7.7-11.1,14.6-23.4,22.8-40.4
		c19.1-39.4,26.1-63.5,29.8-102.2c1.8-18.7,1.3-59.1-1-74.2c-1.5-10.3-5.9-24-9.8-30.6c-2.6-4.5-7.2-8.6-9.4-8.6
		C1853,1712.6,1848.9,1715,1844.6,1718z"/>
	<path id="structure38_label37_Fl" bar:growlevel="0" bar:type="" class="st46" d="M1937.4,1461c-3.9,1.6-4.8,2.9-8.3,11.1
		c-2.8,6.8-8,25.6-8,29.1c0,1.1-2.1,11.3-4.7,22.7c-4.3,19.5-4.6,21.2-3.7,26.4c1.2,6.8,3.7,10.6,8,12c3.7,1.3,12,0.4,34.1-3.2
		c19.2-3.2,19.8-3.3,23.2-2.7c1.6,0.3,4.8,2.1,6.8,3.8c3.2,2.7,3.8,3.8,3.5,6c-0.2,2-1.1,3.2-3.1,4.4c-5.8,3.4-28.3,7.9-54.8,11.1
		c-8.1,1-13.1,2.1-16.4,3.6c-9.7,4.4-17.3,15.1-20.7,29.1c-1.6,6.8-1.3,8.5,1.3,6.7c6.2-4.3,13.7-5.6,23-3.9
		c7.7,1.4,11.5,3.6,21.7,12.2c11,9.4,15.4,11.6,22.1,11.7c9.4,0,18.7-6.5,39.1-26.9c19.2-19.4,36.6-41.6,44.1-56.3
		c2.3-4.8,2.4-5.3,2.1-15.8c-0.4-9.4-0.8-12-3.2-18.4c-10.5-28.1-30.8-41.9-54.2-36.9c-6.1,1.4-10.1,5.2-16.7,16.6
		c-11.2,19.1-18.5,27.7-27.2,31.7c-8.7,4-14.9,1.8-19.4-7c-2.3-4.3-2.5-5.6-2.2-11.2c0.5-8.6,5.4-22.8,13.7-40
		c3.7-7.6,6.8-14.6,6.8-15.5C1944.5,1459.2,1941.7,1459.2,1937.4,1461z"/>
	<path class="st47" d="M1918,1462.7c-1.7,0.4-7.4,2.3-12.6,4.1c-31.9,12-50,14.5-69,9.6c-20-5.2-44.4-17.2-61.5-30.2
		c-3-2.3-11.2-9.6-18.1-16.4c-7-6.8-18.2-16.6-24.8-22c-21.7-17.5-51.8-36.2-60.8-37.9c-4.8-0.9-9.7,1-12.9,4.8
		c-1.5,1.8-4.4,7.4-6.6,12.3c-6,14.5-9.4,16.5-20.5,11.8c-7-3-13.9-3-23.1,0c-7.8,2.5-15.3,2.9-19,1c-3.6-1.9-5.6-4.3-23.2-28.3
		c-8.8-12-18.1-23.7-20.6-25.9c-7.1-6.5-22.3-16.1-36-22.8c-28.4-13.9-45.9-17.1-103.9-18.4c-28.6-0.7-38.3-0.2-109.8,6.3
		c-30,2.7-60.8,5.2-68.6,5.8c-4.8,0.3-9.1,0.4-14.2,0.4v44.4c30.3,0,60.7-0.6,68.3-1.8c5.7-0.8,15.8-2.3,22.5-3.2
		c18.5-2.7,32.9-3.7,63.9-4.2c31-0.6,35.3-0.1,35.8,3.9c0.7,4.9-3.4,5.6-52.5,9.7c-20.8,1.7-44.6,4.1-53.1,5.4
		c-30,4.2-60.9,6.8-85,6.8c0,0,0,0,0,0v118.8c22.8,0,43-6.1,67.9-20.2c26.2-14.9,41.3-19.7,77.8-24.8c24.8-3.4,32.3-5.2,59.9-13.9
		c38.2-12.2,44.5-13.4,84.6-17.6c9.9-1,27.6-3.2,39.4-5c24.3-3.5,26.2-3.6,33.5-1.7c5.9,1.6,59.8,28.3,72.5,36.1
		c18.9,11.4,35.8,23.7,41.9,30.3c5.7,6.1,11.6,14.6,16.3,23c3.2,5.7,5.5,8.6,9.2,11.5c6.7,5.2,16.5,9.9,26.9,12.7
		c7.9,2.1,10.2,2.3,27.1,2.3c19.5,0.1,25-0.6,43-5.3c7.6-2,9-2.8,15.6-8.1c7.3-5.9,15.8-10.6,37.2-20.4c6.4-2.9,19.7-10,29.7-15.8
		c10-5.8,19.8-11.3,22-12.1c2.7-1.2,3.8-2.3,3.8-3.6C1921.1,1462.3,1920.8,1462.2,1918,1462.7z"/>
	<path class="st48" d="M1253.2,1838.5c-8.7,0-13.2,1.3-24,7.5c-9.3,5.2-12.8,6.9-16.3,6.7v45.2c3.7-0.1,7.2,3.2,12.4,9.9
		c6.4,8.2,9.5,10.8,14.7,11.9c9.4,2.2,17.7-5.3,26.8-23.7c6.7-13.5,13.6-33.7,13.6-39.7C1280.3,1844.8,1270.7,1838.5,1253.2,1838.5z
		"/>
	<path class="st49" d="M1408.5,1194.9c-4.9-4.1-8.6-8.1-13.6-15.5c-3.9-5.6-9.4-12.7-12.4-15.8c-11.6-12.1-36.6-25.9-55.1-30.2
		c-14.9-3.5-26.6-3-70.9,3.4c-23.5,3.3-27.9,3.7-43.6,3.7v81.9c10.5,0,21-1,35.5-2.8c32.5-4.2,43.7-4.9,63.5-4.4
		c18.5,0.5,33.4,2.3,51.3,6.4c13.5,3.1,32.7,8.8,42.3,12.8c8.3,3.3,12.2,3.8,16.1,1.8c3.4-1.8,8.9-8.1,9.6-11.1
		C1432.5,1219.8,1422.3,1206.3,1408.5,1194.9z"/>
	<path id="structure41_label40_5Cb" bar:growlevel="0" bar:type="" class="st50" d="M1715,1085.7c-1.9,2.3-0.5,12.5,3,23
		c1.7,5.2,5.8,17.1,9.2,26.5c10.7,30.5,14.2,47.3,14.2,68c0,14.5-1.3,21.7-5.7,33.2c-3.3,8.5-6.7,13.9-18.8,29.9
		c-5,6.7-10.6,15-12.4,18.6c-3,5.9-3.3,7.3-3.2,13.5c0.1,13.5,5.6,21.9,21.1,31.9c4.2,2.8,22.4,12.2,40.4,21.1
		c26.3,13,35.8,18.1,47.7,26c38.1,25.2,55.3,34.6,76.1,41.6c37.6,12.5,57.3,9.1,68.3-11.8c2.9-5.5,3.5-7.7,3.9-13.3
		c0.6-11.3-2.8-17.7-18.3-34.7c-10.5-11.4-12.6-14.4-19.8-27.9c-7.7-14.5-9.4-16.7-23.8-31.1c-15.9-15.8-21.2-23.3-29.8-42.8
		c-12.7-29-20.7-40.1-47.6-66.1c-28.2-27.1-53.3-54.4-74.5-81C1726.1,1086.8,1719,1080.9,1715,1085.7z"/>
	<path id="structure42_label41_4Cb" bar:growlevel="0" bar:type="" class="st51" d="M1715,1085.7c-1.9,2.3-0.5,12.5,3,23
		c1.7,5.2,5.8,17.1,9.2,26.5c10.7,30.5,14.2,47.3,14.2,68c0,14.5-1.3,21.7-5.7,33.2c-3.3,8.5-6.7,13.9-18.8,29.9
		c-5,6.7-10.6,15-12.4,18.6c-3,5.9-3.3,7.3-3.2,13.5c0.1,13.5,5.6,21.9,21.1,31.9c4.2,2.8,22.4,12.2,40.4,21.1
		c26.3,13,35.8,18.1,47.7,26c38.1,25.2,55.3,34.6,76.1,41.6c37.6,12.5,57.3,9.1,68.3-11.8c2.9-5.5,3.5-7.7,3.9-13.3
		c0.6-11.3-2.8-17.7-18.3-34.7c-10.5-11.4-12.6-14.4-19.8-27.9c-7.7-14.5-9.4-16.7-23.8-31.1c-15.9-15.8-21.2-23.3-29.8-42.8
		c-12.7-29-20.7-40.1-47.6-66.1c-28.2-27.1-53.3-54.4-74.5-81C1726.1,1086.8,1719,1080.9,1715,1085.7z"/>
	<path id="structure43_label42_ECIC" bar:growlevel="0" bar:type="" class="st52" d="M1497.2,868.2c0,0.5,1.4,9.3,3.1,19.5
		c6.8,39.7,9.1,68.4,6.8,85.4c-5.1,38.9-33.1,107.1-57.3,139.8c-6.3,8.4-19.3,21.3-24.5,24.5c-2.1,1.3-3.8,2.7-3.8,3.1
		c0,0.5,2.3,2.7,5,4.9c5.3,4.2,13.8,13.3,24.8,26.6c8,9.5,25.9,29,35.2,37.9c31.4,30.2,60.8,48.9,86.8,54.9c9.5,2.3,26.4,2.2,34.6,0
		c10.1-2.8,20.2-8.4,28.7-16.1c3.7-3.3,3.8-3.7,7.3-18c9.7-40.5,15.5-80.7,15.6-108.2c0.1-13.7-0.2-16.3-2.4-25.2
		c-6.4-26.2-22.9-70.9-45.9-125.3c-21.2-50-58.2-87-101.6-101.5C1499.8,867.3,1497.2,866.8,1497.2,868.2z"/>
	<path id="structure44_label43_PaS" bar:growlevel="0" bar:type="" class="st53" d="M1894.3,1043.8c-5.6,0.4-12.2,1.3-14.8,1.8
		c-11.2,2.6-23.9,10.6-27.3,17.2c-4.9,9.5,5,19.4,26.2,26.5c12.6,4.2,21.2,5.2,39,4.8c29.9-0.9,40.1-6.6,40.2-22.3
		c0-4.8-0.4-6.6-2.4-10c-3.5-5.9-9.8-11.3-17.6-15l-6.9-3.3l-13.1-0.1C1910.3,1043.2,1899.9,1043.4,1894.3,1043.8z"/>
	<path id="structure45_label44_CEnt" bar:growlevel="0" bar:type="" class="st54" d="M1856.3,1047.1c-6,0.6-25.7,3.9-32.5,5.3
		c-7.8,1.7-14.1,5.8-17.3,11.2c-6.5,11.3,8,21.3,62.8,43.6c22.7,9.2,34.1,14.8,44.6,21.6c36.6,24,75.2,71,101.6,123.8
		c13.2,26.4,19.3,43.6,25.2,70.7c9.8,45.6,17.8,65.3,32.9,80.1c11.3,11.2,21.9,15.8,39.8,17.1c27.5,2.2,50.9-12.1,68.1-41.3
		c11.9-20.3,25.4-61,31.1-94.1c4.1-23.5,4.9-36.2,4.9-75.1c-0.1-42.2-1.7-67.2-4.6-69.4c-23.4-17.4-44.3-30.5-56.6-35.6
		c-26.9-11-76.8-21.4-120.5-25.1c-14.2-1.2-44.2-1.2-55.1,0.1c-11.9,1.3-23.9,4.5-31.6,8.4c-9.7,4.9-16.9,6.1-35.3,6.3
		c-12.2,0-17.5-0.4-23.4-1.6c-19.2-4.1-34.7-12.3-38.8-20.6c-1.6-3.2-1.8-4.1-0.9-7.1c1.3-4.1,8.1-11.2,13.9-14.2
		c5.7-3.1,5.5-4.5-0.5-4.3C1861.6,1046.7,1858,1047,1856.3,1047.1z"/>
	<path id="structure46_label45_PRh" bar:growlevel="0" bar:type="" class="st55" d="M2163.7,940.8c-28.9,1.5-59.9,4.5-120.2,11.6
		c-63.1,7.4-81.2,9.4-84.3,9.4c-1.8,0-3,0.5-3,1.2c0,1,30.3,36.8,64.3,75.8l11,12.6l10.3,3.1c53.2,16,117.3,47,159.5,77.1
		c5.8,4.1,11,7.6,11.5,7.6c2.9,0-0.7-18.4-8.1-40.9c-12.1-36.9-16.2-59.9-16.2-92.5c0-23-2.2-38.3-7.9-57l-2.5-8l-4.4-0.1
		C2171.1,940.7,2166.6,940.8,2163.7,940.8z"/>
	<path id="structure47_label46_Ect" bar:growlevel="0" bar:type="" class="st56" d="M2057.1,810.7c-56.5,38.1-107.2,77.6-128.3,100
		c-8.3,8.8-9.5,10.9-7.6,13.1c0.7,0.9,8.4,9.7,16.9,19.6c8.6,9.9,15.8,18.2,15.8,18.3c0.4,0.5,25.4-2.2,63.4-6.7
		c82-9.7,120.1-13.6,144.7-14.5c11.6-0.5,14.6-0.8,14.6-1.8c0-2-5.8-15.5-11.7-27.3c-10.3-20.4-23.3-40.7-41.4-63.9
		c-13.8-17.7-42.5-49.8-45-50.2C2077.9,797.3,2068.2,803.2,2057.1,810.7z"/>
	<path id="structure48_label47_V2L" bar:growlevel="0" bar:type="" class="st57" d="M1952.8,705.1c-32.8,56.9-81.2,153.3-81.2,162.1
		c0,1,3.9,5.9,8.6,11.1c4.8,5.1,15.2,16.7,23.1,25.6c7.9,8.9,14.8,16.3,15.1,16.5c0.4,0.2,7-6.1,14.8-13.9
		c7.9-7.9,20.2-19.1,27.4-24.9c27.1-22.1,81.7-61.9,109.1-79.5c4.3-2.8,7.9-5.6,7.9-6.1c0-2.8-35.2-36.9-63.4-61.7
		c-24.8-21.6-50-41.4-52.8-41.4C1960.5,692.8,1957.6,696.9,1952.8,705.1z"/>
	<path id="structure49_label48_V1B" bar:growlevel="0" bar:type="" class="st58" d="M1722.2,602.4c-9,0.8-21.3,3.2-29.2,5.8
		c-10.2,3.2-19,7.9-19,10c0,0.8,4.5,6.9,10,13.5c14.2,17.2,24.3,30.1,74.6,95.7c87.8,114.5,112.9,145.3,112.9,138.1
		c0-2.7,12.7-30.4,27.1-59.3c20.3-40.6,39.3-76.2,54.9-102.8c3.4-5.8,6.2-11.1,6.2-11.7c0-3.4-44.3-30.2-76.3-46.2
		c-47.7-23.8-82-35.9-116.7-41C1755.5,602.9,1730.6,601.7,1722.2,602.4z"/>
	<path class="st15" d="M1402,1794.7c-11.9-39.9-17.9-78.4-20.5-129.2c-0.4-10.2-0.7-11.4-2.2-11.4c-2.8,0-11.5,4.3-12.6,6.2
		c-1.9,3.6-13.3,10.5-35.1,21.3c-12.2,6-24,11.5-26.1,12.2c-4.4,1.3-5.2,2.6-3.2,5.5c2.3,3.3,1.7,5.9-2.7,10.7
		c-6.4,6.8-60.4,56-63,57.3c-3.1,1.6-5.7,0.5-7.1-2.8c-1.1-2.8-2.7-36.5-2.7-55.4c0.1-7.3-0.1-8.3-1.5-8.3c-1.1,0-1.7,1-2.2,3.3
		c-1.9,11.6-4.2,16.8-8.1,18.3c-0.7,0.3-1.4,0.5-2.1,0.5V1852c3.6-0.1,7.1-1.5,12.3-4.3c4.3-2.3,9.7-5.1,12-6.3
		c2.3-1.2,6.4-2.4,9.2-2.9c4.4-0.8,5.5-1.4,9.3-5.4c6.1-6.6,10.8-9.4,21.9-13c36.6-12.2,80.5-17.2,116.1-13.3c6,0.7,11.3,1,11.6,0.7
		C1405.4,1807.3,1404,1801.5,1402,1794.7z"/>
	<path id="structure50_label49_V1M" bar:growlevel="0" bar:type="" class="st59" d="M1665.6,623.1c-16.4,13.7-31.9,29.6-44.9,46.3
		c-9.2,11.7-32,34-55.3,54.3c-10.7,9.3-20.8,18.4-22.3,20.3c-9.1,11-6.5,27.3,8.1,51.6c6.4,10.6,16.6,25.7,24.7,36.4
		c6.3,8.4,31.1,38.2,33.2,39.9c1.2,1,3.8,0.5,16.6-2.9c29.6-7.9,55.3-12.9,82.2-15.8c43.2-4.7,92.4-3.2,137.5,4.1
		c15.7,2.5,15.5,2.5,15.5,1.3c0-0.4-4.5-6.2-9.9-12.8c-5.5-6.6-17.2-21.1-26-32.2c-15.2-19.3-26-33.2-87.8-113.8
		c-43.6-56.8-63-80.6-65.6-80.6C1670.9,619,1668.3,620.9,1665.6,623.1z"/>
	<path id="structure51_label50_RSD" bar:growlevel="0" bar:type="" class="st60" d="M1740.7,851.3c-26.6,0.9-50.6,3.7-77.4,9
		c-22.8,4.6-51.8,12.2-51.8,13.6c0,2.4,63.6,72.9,111.7,123.6c26.1,27.6,37.1,38.2,44.3,42.8c10.1,6.6,26.3,11.5,42.2,13
		c5,0.4,8.5,0.2,14.7-1.3c25.2-5.6,74.1-10,112.1-10c28.4,0,59.7,2.5,79.6,6.4c10.8,2.1,12.3,2.1,12,0.4
		c-0.3-1.3-65.1-77-100.6-117.5c-19.1-21.9-45.2-50.8-57.8-64.1l-6.6-6.9l-11.3-1.9C1813,852.2,1780.3,850,1740.7,851.3z"/>
	<path id="structure52_label51_DCIC" bar:growlevel="0" bar:type="" class="st61" d="M1445,863c-10.4,0.8-25.4,3.8-31.8,6.3
		c-11.9,4.7-46.3,24.2-65,36.9c-14.7,9.9-29.1,23.5-39.8,37.4c-3.9,4.9-6,10.7-6.1,16.2c0,4.4,0.3,5,4.6,9.5
		c10.4,11.2,19.3,27.2,34.7,62.9c8.8,20.4,24.1,51.8,30.5,62.4c4.4,7.3,5.9,8.8,20.4,21c8.6,7.2,18.2,15.6,21.3,18.4
		c3.1,2.9,6.3,5.3,7.1,5.3c4.4,0,18.8-13.3,28.5-26.4c18.8-25.2,38.2-67.3,50.8-110.5c9.6-33.3,9.6-54.7-0.4-114.5
		c-1.9-11.3-3.7-20.7-3.9-21c-1-1-13.9-3.1-23.8-4C1460.5,861.9,1457.4,861.9,1445,863z"/>
	<path class="st50" d="M1468.2,770.9c-1.5-17.1-27-51.4-54.2-73.2c-30.5-24.6-60.5-34.4-115.6-38.3c-5.9-0.4-46-0.6-85.4-0.7v110.3
		c25.4-0.1,48.3,0.5,76,1.5c101,3.8,105.5,4.1,119.7,8.2c13.7,4.1,30.2,12.3,35.5,17.9c2.9,3.1,4.9,3,10.2-0.5
		C1464.1,789.8,1469.1,780.8,1468.2,770.9z"/>
	<path class="st51" d="M1386.7,812.2c-3.8-3.4-23.5-6-71.7-9.6c-49-3.6-77.5-5.1-102.1-5.1v113c2.7,0,5.5-0.6,9.1-1.7
		c8.9-2.7,15.8-7.6,28.5-20c30.3-29.4,61.9-45.6,109.3-56.1c21.3-4.7,23.6-5.5,26.2-8.6C1388.9,820.7,1389.2,814.5,1386.7,812.2z"/>
	<path class="st49" d="M1358.3,1069.5c-6.7-13.4-15.5-32-19.4-41.5c-9.4-21.9-16.8-36.4-24.5-47.8c-8.5-12.8-12.1-15.2-26.6-18.1
		c-7.9-1.5-33.2-2.1-64.5-1.4c-2.3,0.1-5.9,0.1-10.3,0.1v34c7.7,0,15.5,0.6,22.3,1.7c8.5,1.4,16.4,4.9,18.4,8
		c2.3,3.3,9.6,24.5,11.2,31.9c2.5,12.2,0.1,20.9-6.8,24.4c-6.7,3.4-33,8.2-45,8.2v40c32.7,0,150-4.5,153.6-5.8
		c2.2-0.8,3.9-4.1,3.9-7.3C1370.3,1094.8,1364.8,1083,1358.3,1069.5z"/>
	<path class="st62" d="M1918,1462.7c-1.7,0.4-7.4,2.3-12.6,4.1c-31.9,12-50,14.5-69,9.6c-20-5.2-44.4-17.2-61.5-30.2
		c-3-2.3-11.2-9.6-18.1-16.4c-7-6.8-18.2-16.6-24.8-22c-21.7-17.5-51.8-36.2-60.8-37.9c-4.8-0.9-9.7,1-12.9,4.8
		c-1.5,1.8-4.4,7.4-6.6,12.3c-6,14.5-9.4,16.5-20.5,11.8c-7-3-13.9-3-23.1,0c-7.8,2.5-15.3,2.9-19,1c-3.6-1.9-5.6-4.3-23.2-28.3
		c-8.8-12-18.1-23.7-20.6-25.9c-7.1-6.5-22.3-16.1-36-22.8c-28.4-13.9-45.9-17.1-103.9-18.4c-28.6-0.7-38.3-0.2-109.8,6.3
		c-30,2.7-60.8,5.2-68.6,5.8c-4.8,0.3-9.1,0.4-14.2,0.4v44.4c30.3,0,60.7-0.6,68.3-1.8c5.7-0.8,15.8-2.3,22.5-3.2
		c18.5-2.7,32.9-3.7,63.9-4.2c31-0.6,35.3-0.1,35.8,3.9c0.7,4.9-3.4,5.6-52.5,9.7c-20.8,1.7-44.6,4.1-53.1,5.4
		c-30,4.2-60.9,6.8-85,6.8c0,0,0,0,0,0v118.8c22.8,0,43-6.1,67.9-20.2c26.2-14.9,41.3-19.7,77.8-24.8c24.8-3.4,32.3-5.2,59.9-13.9
		c38.2-12.2,44.5-13.4,84.6-17.6c9.9-1,27.6-3.2,39.4-5c24.3-3.5,26.2-3.6,33.5-1.7c5.9,1.6,59.8,28.3,72.5,36.1
		c18.9,11.4,35.8,23.7,41.9,30.3c5.7,6.1,11.6,14.6,16.3,23c3.2,5.7,5.5,8.6,9.2,11.5c6.7,5.2,16.5,9.9,26.9,12.7
		c7.9,2.1,10.2,2.3,27.1,2.3c19.5,0.1,25-0.6,43-5.3c7.6-2,9-2.8,15.6-8.1c7.3-5.9,15.8-10.6,37.2-20.4c6.4-2.9,19.7-10,29.7-15.8
		c10-5.8,19.8-11.3,22-12.1c2.7-1.2,3.8-2.3,3.8-3.6C1921.1,1462.3,1920.8,1462.2,1918,1462.7z"/>
	<path class="st22" d="M1525,1996.5c-33.7-36-60.3-69.5-75.7-95c-7.2-12.1-24.1-45.2-30-58.9c-2.3-5.5-6.2-15.2-8.6-21.6l-4.2-11.7
		l-7.1-1.1c-11.3-1.8-40.5-2.4-54.7-1.2c-28.3,2.4-63.8,10.4-77.9,17.5c-4.9,2.4-13.5,10-13.5,11.7c0,0.8,1.6,1.4,4.3,1.8
		c13.7,1.9,20,5.7,22.2,13.4c1.6,5.5,1.3,8.1-3,20.4c-10.3,30.2-23,48.5-33.4,48.5c-5-0.1-10.3-2.9-14.6-8.1
		c-10.5-12.6-11.5-13.5-16.1-13.5v171.8c14.9,0,20.4,0.8,36.4,5.5c22,6.4,43.9,16.7,75.5,35.7c6.9,4.1,13,7.5,13.5,7.5
		c0.5,0,2.6-3.6,4.6-7.9c6-13.1,13.1-22.9,25.1-34.8c13.2-13.2,27.1-22.8,46.8-32.4c28.7-14.1,65.5-25,105-31.1
		c15.8-2.4,16.1-2.5,16.1-3.9C1535.9,2008.6,1531,2002.8,1525,1996.5z"/>
	<path class="st24" d="M1525,1996.5c-33.7-36-60.3-69.5-75.7-95c-7.2-12.1-24.1-45.2-30-58.9c-2.3-5.5-6.2-15.2-8.6-21.6l-4.2-11.7
		l-7.1-1.1c-11.3-1.8-40.5-2.4-54.7-1.2c-28.3,2.4-63.8,10.4-77.9,17.5c-4.9,2.4-13.5,10-13.5,11.7c0,0.8,1.6,1.4,4.3,1.8
		c13.7,1.9,20,5.7,22.2,13.4c1.6,5.5,1.3,8.1-3,20.4c-10.3,30.2-23,48.5-33.4,48.5c-5-0.1-10.3-2.9-14.6-8.1
		c-10.5-12.6-11.5-13.5-16.1-13.5v171.8c14.9,0,20.4,0.8,36.4,5.5c22,6.4,43.9,16.7,75.5,35.7c6.9,4.1,13,7.5,13.5,7.5
		c0.5,0,2.6-3.6,4.6-7.9c6-13.1,13.1-22.9,25.1-34.8c13.2-13.2,27.1-22.8,46.8-32.4c28.7-14.1,65.5-25,105-31.1
		c15.8-2.4,16.1-2.5,16.1-3.9C1535.9,2008.6,1531,2002.8,1525,1996.5z"/>
	<path id="structure59_label58_5Pt" bar:growlevel="0" bar:type="" class="st63" d="M1508.9,1778.8c0,6,2,27.4,3.2,34
		c3.1,17.8,9.4,34.6,16.8,44.5c9.8,13,30.6,30,40.5,32.9c6.7,2,14.6,1.8,19.3-0.5c5.2-2.5,11.3-8.6,14.1-14.2
		c3.4-6.8,3.3-15-0.4-21.4c-2.3-3.9-3.9-5.4-10.5-9.3c-8.8-5.2-26.5-18.3-41.2-30.6c-12.1-10.1-32.5-28.5-36.8-33.4
		C1510.5,1777,1508.9,1776.4,1508.9,1778.8z"/>
	<path id="structure66_label66_scp" bar:growlevel="0" bar:type="" class="st64" d="M1452.2,1504.9c-1.7,0.9-2.3,1.9-2.5,4.7
		c-0.4,5,4.9,12.7,15,22.2c6.9,6.5,12.1,9.9,37.5,25.2c51.3,30.7,67.1,39,86.3,45.3c14.5,4.9,23.7,6.8,31.9,6.8
		c7.3,0,10.8-1.4,12.4-4.9c2.9-6.3-0.8-14-13.7-28.6c-18-20.3-32.3-32.6-45.5-39.2c-6.4-3.1-7.1-3.3-14.9-3.1
		c-12.9,0.4-25.7-3.4-49.5-14.6c-11.3-5.3-23-9.9-32.3-12.7C1469,1503.4,1456.1,1502.9,1452.2,1504.9z"/>
	<path id="structure69_label69_rs" bar:growlevel="0" bar:type="" class="st65" d="M1645.3,2001.3c-16.1,4-22.9,9.9-23.2,20.2
		c-0.2,7.9,1.2,16.8,2.6,16.8c0.7,0,1.3-0.4,1.3-0.9c0-0.5,0.8-1.3,1.8-1.8c1.4-0.7,2.2-0.5,3.6,0.9c1.5,1.5,1.6,2.2,0.8,3.7
		c-0.8,1.5-1.5,1.8-4.1,1.3c-2.8-0.4-3.1-0.4-3.1,1.7c0,1.2,0.6,5.2,1.3,9c0.7,3.8,1.7,10.2,2.3,14.3c1.4,9.9,2.3,12.4,5.7,15.8
		c5.2,5.1,12.7,5.9,24,2.8c17.7-4.9,29-13.6,33.7-26.1l1.6-4.1l-7.7-7.7c-11.7-11.6-15.4-21.3-12.7-34.1c1.3-6.5,1.3-6.6-0.6-8.6
		C1668.2,1999.8,1656.7,1998.4,1645.3,2001.3z M1641.2,2048.7c1.3,1.5,0.5,4.6-1.5,5.3c-1.5,0.6-4.8-1.7-4.8-3.5
		C1634.9,2047.6,1639.2,2046.3,1641.2,2048.7z M1652.7,2051.1c2.5,2.5,0.1,6.8-3.3,5.7c-2.4-0.7-2.9-2.6-1.3-4.9
		C1649.6,2049.7,1651.1,2049.5,1652.7,2051.1z"/>
	<path id="structure6_label3_CGA" bar:growlevel="0" bar:type="" class="st66" d="M1231,1597c-5.2,19.9-6.8,36.3-6.8,73.2l-0.1,30.2
		l5.4,0.3c34.4,1.5,45.4,0.9,64.5-3.9c14.6-3.6,32.2-11.4,32.2-14.3c0-0.6-1.5-1.6-3.4-2.2c-5.7-1.7-29.8-14-39.5-20.3
		c-11.4-7.3-22.7-15.8-29-21.7c-10.8-10.3-17.7-25.2-18.7-40.3C1234.9,1587.9,1233.4,1587.7,1231,1597z"/>
	<path id="structure73_label73_vsc" bar:growlevel="0" bar:type="" class="st31" d="M1869.8,1697.4c-2.7,3-7.1,7.1-9.6,9.2
		c-2.6,2-4.8,4.2-4.8,4.9c0,0.6,1.4,2.4,3.2,4c6.7,5.8,12.9,22.5,15.4,41c2.2,16.4,2.2,58-0.1,75.3c-4.4,35.1-10.5,55.9-26.8,91
		c-22.4,48.3-48.3,80.3-83.8,103.3c-16,10.5-42.6,21.7-62.2,26.3c-4.4,1-7.2,2.2-7.5,3.1c-4.6,13.7-13.5,22.1-30.1,28.3
		c-9.5,3.6-16.2,4.5-21.8,2.9c-2.6-0.8-5.8-2.4-7.2-3.7s-2.8-2.3-3.1-2.3c-0.5,0-1.3,3.2-1.8,7.1c-2.3,15-7.1,27.7-14.6,37.7
		c-3.8,5-7.7,8.2-19.2,15.8c-10,6.5-16.7,13-16.7,16.2c0,2.3,0.3,2.4,4.1,2.4c2.2,0,11.3-1.9,20.3-4.1c16.7-4.2,20.7-4.5,20.7-1.4
		c0,2.8-3.3,5-20.3,13.6c-15.8,8-23.1,12.7-38.2,24.1c-7.4,5.7-41.4,27.2-49.2,31.1c-2.3,1.3-12.8,5.1-23.2,8.7
		c-10.4,3.5-20.9,7.6-23.4,8.9c-2.4,1.4-6.8,3.8-9.5,5.3c-6.8,3.9-14.8,5.9-18.8,4.7c-4.4-1.3-5.4-1.2-5.4,0.7
		c0,3.2-5.8,10.3-13.7,16.9c-4.3,3.6-8.7,7-9.7,7.6c-2.4,1.4-2.3,3.6,0.3,3.6c3.6,0,41.8-10.4,60.9-16.7
		c41.9-13.6,53.6-19.8,78.8-41c15.7-13.2,31.5-25.6,62.2-48.6c28.5-21.3,39.2-28.9,85.2-60.5c40.1-27.6,45.5-31.9,73.5-57.2
		c34.7-31.4,64.3-62.5,81.8-85.7c22.6-30,37.5-62.9,45.2-99.5c1.7-7.8,2-13.1,2.3-41.2c0.5-37.2-0.1-46.1-4.9-64.4
		c-8.1-31-9-34-11.8-38.8c-4.3-7.4-6.5-15.2-8.8-31.3c-0.3-1.5-0.9-2.8-1.5-2.8C1875.2,1692,1872.5,1694.4,1869.8,1697.4z"/>
	<path id="structure76_label76_LPBE" bar:growlevel="0" bar:type="" class="st30" d="M1635.1,1555.6c-6.8,14.1-10.1,22.1-10.1,24.9
		c0,0.9,1.3,3.1,2.8,4.9c3.9,4.3,6.2,9.7,6.2,14.3c0,3.4,0.3,3.9,2.1,3.9c3.5,0,15.7,3.4,21.4,5.9c3.4,1.5,6.9,4.1,10,7.5l4.8,5
		l6.6,0.3c7.3,0.4,10-0.7,12.2-5c6.1-11.9-1.2-33.3-17.2-50.6c-7.7-8.4-28.1-24.3-31.1-24.3
		C1642.1,1542.4,1638.8,1548.2,1635.1,1555.6z"/>
	<path id="structure77_label77_mcp" bar:growlevel="0" bar:type="" class="st67" d="M1914.4,1469.1c-2.5,1.4-11.5,6.5-20.1,11.4
		c-8.6,4.9-24.1,13-34.6,17.8c-20.3,9.5-27.7,14-36.3,22.1c-3,2.8-10.9,9.8-17.5,15.7c-16.5,14.3-44.7,41.5-48.8,46.9
		c-11,14.6-10.9,34.9,0.2,69.7c12.2,38.1,28.8,66.7,43.4,74.7c4.4,2.5,5.5,2.7,13.3,2.6c10.7-0.1,14.8-1.6,28.3-10.7
		c25.7-17.2,38.6-31.6,45.3-50.1c2.3-6.4,2.3-7.4,2.9-34.9l0.5-28.4l3.2-9c1.8-4.9,5.1-14.3,7.5-20.7c4.4-12.4,13.2-45.5,17-64.4
		c1.5-7.4,2.5-16.1,2.9-24.8c0.6-14,0.1-20.1-1.7-20.1C1919.3,1466.8,1916.8,1467.9,1914.4,1469.1z"/>
	<path id="structure7_label4_CGB" bar:growlevel="0" bar:type="" class="st68" d="M1321.9,1626.1c-7.7,1.1-14.6,3.2-22.8,6.8
		c-8.8,4-17.6,5.8-30.7,6.4c-6.8,0.4-10.6,0.9-10.6,1.5c0.1,1.3,11.7,9.9,24.2,18.2c11.1,7.2,32,17.9,41.2,21.1l6.4,2.2l9.8-4.8
		c19.9-9.6,28.8-16.7,29.7-23.3c1.1-8.1-7.7-19.1-20.3-25.5c-5.2-2.7-6.8-3.1-13.6-3.2C1331.1,1625.4,1325.1,1625.7,1321.9,1626.1z"
		/>
	<path id="structure80_label80_tz" bar:growlevel="0" bar:type="" class="st21" d="M1869.8,1697.4c-2.7,3-7.1,7.1-9.6,9.2
		c-2.6,2-4.8,4.2-4.8,4.9c0,0.6,1.4,2.4,3.2,4c6.7,5.8,12.9,22.5,15.4,41c2.2,16.4,2.2,58-0.1,75.3c-4.4,35.1-10.5,55.9-26.8,91
		c-22.4,48.3-48.3,80.3-83.8,103.3c-16,10.5-42.6,21.7-62.2,26.3c-4.4,1-7.2,2.2-7.5,3.1c-4.6,13.7-13.5,22.1-30.1,28.3
		c-9.5,3.6-16.2,4.5-21.8,2.9c-2.6-0.8-5.8-2.4-7.2-3.7s-2.8-2.3-3.1-2.3c-0.5,0-1.3,3.2-1.8,7.1c-2.3,15-7.1,27.7-14.6,37.7
		c-3.8,5-7.7,8.2-19.2,15.8c-10,6.5-16.7,13-16.7,16.2c0,2.3,0.3,2.4,4.1,2.4c2.2,0,11.3-1.9,20.3-4.1c16.7-4.2,20.7-4.5,20.7-1.4
		c0,2.8-3.3,5-20.3,13.6c-15.8,8-23.1,12.7-38.2,24.1c-7.4,5.7-41.4,27.2-49.2,31.1c-2.3,1.3-12.8,5.1-23.2,8.7
		c-10.4,3.5-20.9,7.6-23.4,8.9c-2.4,1.4-6.8,3.8-9.5,5.3c-6.8,3.9-14.8,5.9-18.8,4.7c-4.4-1.3-5.4-1.2-5.4,0.7
		c0,3.2-5.8,10.3-13.7,16.9c-4.3,3.6-8.7,7-9.7,7.6c-2.4,1.4-2.3,3.6,0.3,3.6c3.6,0,41.8-10.4,60.9-16.7
		c41.9-13.6,53.6-19.8,78.8-41c15.7-13.2,31.5-25.6,62.2-48.6c28.5-21.3,39.2-28.9,85.2-60.5c40.1-27.6,45.5-31.9,73.5-57.2
		c34.7-31.4,64.3-62.5,81.8-85.7c22.6-30,37.5-62.9,45.2-99.5c1.7-7.8,2-13.1,2.3-41.2c0.5-37.2-0.1-46.1-4.9-64.4
		c-8.1-31-9-34-11.8-38.8c-4.3-7.4-6.5-15.2-8.8-31.3c-0.3-1.5-0.9-2.8-1.5-2.8C1875.2,1692,1872.5,1694.4,1869.8,1697.4z"/>
	<path id="structure8_label5_LDTg" bar:growlevel="0" bar:type="" class="st69" d="M1340.2,1542c-10.8,2.3-19.6,6.5-26.4,12.5
		c-2.6,2.3-4.7,4.7-4.7,5.2c0,0.6,1.4,3,3,5.3c1.7,2.3,4.2,6.8,5.6,9.9c3.1,6.8,3.6,15.7,1.2,22.8c-0.8,2.4-1.9,6.8-2.4,9.6
		c-0.9,5.3-3,10.3-6.6,16.2c-1.2,1.8-1.7,3.6-1.3,4c0.4,0.4,3,0.2,5.8-0.4c2.8-0.6,10.1-1.3,16.2-1.6l11.1-0.5l6.7,3.3
		c7.9,4,16.7,11.6,19.3,17.1c1.1,2.1,1.9,5.5,1.9,7.6c0,2.1,0.4,3.8,0.9,3.8c0.4,0,3.1-1,5.7-2.2c6.1-2.7,5.2,4.6,8.6-68.9
		c0.7-14.3,1.3-20,2.8-25.2c3.7-12.7,3.9-12-4-14.3c-10.9-3.2-20-4.5-31.1-4.4C1346.7,1541.7,1341.2,1541.9,1340.2,1542z"/>
	<path class="st62" d="M1918,1462.7c-1.7,0.4-7.4,2.3-12.6,4.1c-31.9,12-50,14.5-69,9.6c-20-5.2-44.4-17.2-61.5-30.2
		c-3-2.3-11.2-9.6-18.1-16.4c-7-6.8-18.2-16.6-24.8-22c-21.7-17.5-51.8-36.2-60.8-37.9c-4.8-0.9-9.7,1-12.9,4.8
		c-1.5,1.8-4.4,7.4-6.6,12.3c-6,14.5-9.4,16.5-20.5,11.8c-7-3-13.9-3-23.1,0c-7.8,2.5-15.3,2.9-19,1c-3.6-1.9-5.6-4.3-23.2-28.3
		c-8.8-12-18.1-23.7-20.6-25.9c-7.1-6.5-22.3-16.1-36-22.8c-28.4-13.9-45.9-17.1-103.9-18.4c-28.6-0.7-38.3-0.2-109.8,6.3
		c-30,2.7-60.8,5.2-68.6,5.8c-4.8,0.3-9.1,0.4-14.2,0.4v44.4c30.3,0,60.7-0.6,68.3-1.8c5.7-0.8,15.8-2.3,22.5-3.2
		c18.5-2.7,32.9-3.7,63.9-4.2c31-0.6,35.3-0.1,35.8,3.9c0.7,4.9-3.4,5.6-52.5,9.7c-20.8,1.7-44.6,4.1-53.1,5.4
		c-30,4.2-60.9,6.8-85,6.8c0,0,0,0,0,0v118.8c22.8,0,43-6.1,67.9-20.2c26.2-14.9,41.3-19.7,77.8-24.8c24.8-3.4,32.3-5.2,59.9-13.9
		c38.2-12.2,44.5-13.4,84.6-17.6c9.9-1,27.6-3.2,39.4-5c24.3-3.5,26.2-3.6,33.5-1.7c5.9,1.6,59.8,28.3,72.5,36.1
		c18.9,11.4,35.8,23.7,41.9,30.3c5.7,6.1,11.6,14.6,16.3,23c3.2,5.7,5.5,8.6,9.2,11.5c6.7,5.2,16.5,9.9,26.9,12.7
		c7.9,2.1,10.2,2.3,27.1,2.3c19.5,0.1,25-0.6,43-5.3c7.6-2,9-2.8,15.6-8.1c7.3-5.9,15.8-10.6,37.2-20.4c6.4-2.9,19.7-10,29.7-15.8
		c10-5.8,19.8-11.3,22-12.1c2.7-1.2,3.8-2.3,3.8-3.6C1921.1,1462.3,1920.8,1462.2,1918,1462.7z"/>
	<path class="st70" d="M1466.7,828.8c-2.2-7.5-19.3-29.9-27.1-35.6c-9.9-7.2-28.7-14.4-45-17.1c-6.9-1.2-48.7-3-133.6-5.9
		c-14.2-0.5-31-0.7-48.1-0.7v27c13.3,0,27.5,0.3,35.5,0.7c62.8,3.2,122,8.3,132.5,11.3c8.7,2.5,11.4,8.9,6.7,15.7
		c-2.5,3.5-6.6,4.9-25.7,9.2c-28.4,6.4-54.8,16-73.4,27.1c-13.2,7.7-22.4,15-36.9,29.1c-12.1,11.7-14.1,13.3-22.1,17.3
		c-8.4,4.1-9,4.3-16.5,4.3v49.7c7,0,14-0.2,22.3-0.6c26.2-1.2,44.9-0.3,56.5,2.7c9.5,2.4,9.3,2.5,9.3-2.3c0-8.6,4.9-16.8,18.4-31
		c18.6-19.5,46-37.7,89.6-59.6c30.6-15.3,50.9-27.9,56.7-35.5C1467.5,832.5,1467.6,831.8,1466.7,828.8z"/>
	<path class="st71" d="M1401.4,1353.8c-2.1-1.3-5.7-1.4-36.3-1c-33.4,0.4-49.3,1.5-67.7,4.7c-23.8,4.1-29.1,4.3-84.2,4.3
		c-0.1,0-0.3,0-0.4,0v15.5c24.2-0.1,54.8-2.4,82.3-6.3c18.9-2.7,26.1-3.4,60.8-6.3c15.1-1.3,30.9-2.7,35-3.2
		C1402.6,1360,1406.5,1357.1,1401.4,1353.8z"/>
	<path id="structure98_label98_LPBCr" bar:growlevel="0" bar:type="" class="st72" d="M1644.8,1508.2c0,1.5-6.8,5.4-11.5,6.5
		c-5.4,1.3-6.1,2.6-5.3,9.4c0.7,6.8,4,10,25,24.7c10.3,7.2,22,18.1,28,26.3c2.8,3.7,5.1,6.1,6,5.9c0.7-0.2,2.5-2.4,3.9-5.1
		c2.1-4,2.5-5.9,2.5-11.3c-0.1-7.4-2.2-13.3-7.7-21.7C1677,1529.5,1644.8,1502.3,1644.8,1508.2z"/>
	<path id="structure99_label99_Me5" bar:growlevel="0" bar:type="" class="st73" d="M1433.6,1536.6c-0.7,2,0.9,4.4,2.9,4.4
		c0.9,0,2-0.6,2.5-1.4c1.4-2.2,0.1-4.4-2.5-4.4C1435.1,1535.2,1434,1535.8,1433.6,1536.6z"/>
	<path id="structure9_label6_P5" bar:growlevel="0" bar:type="" class="st74" d="M1533.2,1706.3c-25.5,2.4-41.1,10.6-54.2,28.2
		c-12.2,16.5-19,37.2-20.2,62.1c-2.3,44.5,17.9,94.4,44.1,109.4c11.4,6.5,22.7,8.9,44.6,9.6c13.1,0.4,18.5,0.2,24.8-1
		c17.7-3.1,33.3-11,45.1-22.9c16.3-16.5,20.7-28.3,21.6-58.5c0.6-19.4,0.1-20.2-5.9-9.2c-6.8,12.5-18.4,21.9-29.1,23.8
		c-1.9,0.4-3.4,1-3.4,1.4c0,0.4,1.1,2.8,2.3,5.3c4.9,9.3,3.3,18.7-4.5,27.5c-14.8,16.9-33.7,12.5-59.9-14
		c-12.9-12.9-18.7-23.2-23.9-42.1c-4.1-14.8-5.3-25.3-5.3-47c0-18.4,0.2-21,2.1-28.3c3.2-12.2,6.7-18.6,13.6-25.6
		c7.1-7.1,14.7-11.6,24.9-14.9c10.4-3.4,10.2-5-0.7-4.9C1544.7,1705.5,1537.5,1705.8,1533.2,1706.3z"/>
	<text id="label162" bar:growlevel="0" transform="matrix(1 0 0 1 1453.0684 1602.8906)" class="st75 st76 st77">me5</text>
	<text id="label30" bar:growlevel="0" transform="matrix(1 0 0 1 1516.0215 1513.7383)" class="st75 st76 st77">LPBV</text>
	<text id="label31" bar:growlevel="0" transform="matrix(1 0 0 1 1621.2295 1634.6699)" class="st75 st76 st77">MPBE</text>
	<text id="label34" bar:growlevel="0" transform="matrix(1 0 0 1 1813.6074 1881.0137)" class="st75 st76 st77">s5</text>
	<text id="label35" bar:growlevel="0" transform="matrix(1 0 0 1 1892.2695 1740.3164)" class="st75 st76 st77">VCA</text>
	<text id="label37" bar:growlevel="0" transform="matrix(1 0 0 1 1985.8965 1531.3594)" class="st75 st76 st77">Fl</text>
	<text id="label38" bar:growlevel="0" transform="matrix(1 0 0 1 1238.3574 1437.6855)" class="st75 st76 st77">2Cb</text>
	<text id="label39" bar:growlevel="0" transform="matrix(1 0 0 1 1255.6074 1178.1387)" class="st75 st76 st77">3Cb</text>
	<text id="label149" bar:growlevel="0" transform="matrix(1 0 0 1 1306.0098 1904.8652)" class="st75 st76 st77">ts</text>
	<text id="label9" bar:growlevel="0" transform="matrix(1 0 0 1 1581.9775 1809.959)" class="st75 st76 st77">5Ma</text>
	<text id="Unlabeled-2158-2101" bar:growlevel="0" transform="matrix(1 0 0 1 1409.8291 2062.5098)" class="st75 st76 st77">grey</text>
	<text id="label0" bar:growlevel="0" transform="matrix(1 0 0 1 1234.7832 1878.5801)" class="st75 st76 st77">RtTg</text>
	<text id="label1" bar:growlevel="0" transform="matrix(1 0 0 1 1285.7598 1764.0215)" class="st75 st76 st77">DMTg</text>
	<text id="label3" bar:growlevel="0" transform="matrix(1 0 0 1 1251.4707 1684.3457)" class="st75 st76 st77">CGA</text>
	<text id="label4" bar:growlevel="0" transform="matrix(1 0 0 1 1307.5801 1661.3262)" class="st75 st76 st77">CGB</text>
	<text id="label5" bar:growlevel="0" transform="matrix(1 0 0 1 1328.9609 1608.2734)" class="st75 st76 st77">LDTg</text>
	<text id="label6" bar:growlevel="0" transform="matrix(1 0 0 1 1479.4385 1850.4063)" class="st75 st76 st77">P5</text>
	<text id="label7" bar:growlevel="0" transform="matrix(1 0 0 1 1534.5781 1764.0215)" class="st75 st76 st77">5Te</text>
	<text id="label80" bar:growlevel="0" transform="matrix(1 0 0 1 1869.6787 1892.2031)" class="st75 st76 st77">tz</text>
	<text id="Unlabeled-1748-1572" bar:growlevel="0" transform="matrix(1 0 0 1 1224.6787 1555.0078)" class="st75 st76 st77">grey</text>
	<text id="Unlabeled-1367-858" bar:growlevel="0" transform="matrix(1 0 0 1 1250.9287 1268.957)" class="st75 st76 st77">grey</text>
	<text id="label12" bar:growlevel="0" transform="matrix(1 0 0 1 1690.6982 1649.7598)" class="st75 st76 st77">KF</text>
	<text id="label13" bar:growlevel="0" transform="matrix(1 0 0 1 1703.4775 1864.2695)" class="st75 st76 st77">Pr5VL</text>
	<text id="label10" bar:growlevel="0" transform="matrix(1 0 0 1 1558.3086 1681.8047)" class="st75 st76 st77">Su5</text>
	<text id="label11" bar:growlevel="0" transform="matrix(1 0 0 1 1510.3379 1614.5137)" class="st75 st76 st77">MPB</text>
	<text id="label15" bar:growlevel="0" transform="matrix(1 0 0 1 1257.4063 1602.6445)" class="st75 st76 st77">DTgP</text>
	<text id="label96" bar:growlevel="0" transform="matrix(1 0 0 1 1253.9902 1368.0703)" class="st75 st76 st77">cbw</text>
	<text id="label95" bar:growlevel="0" transform="matrix(1 0 0 1 1245.0898 942.334)" class="st75 st76 st77">pcuf</text>
	<text id="label161" bar:growlevel="0" transform="matrix(1 0 0 1 1270.4521 1633.4883)" class="st75 st76 st77">DTgC</text>
	<text id="label98" bar:growlevel="0" transform="matrix(1 0 0 1 1666.5957 1546.8027)" class="st75 st76 st77">LPBCr</text>
	<text id="label99" bar:growlevel="0" transform="matrix(1 0 0 1 1436.4482 1537.8105)" class="st75 st76 st77">Me5</text>
	<text id="label165" bar:growlevel="0" transform="matrix(1 0 0 1 1396.6074 1689.0059)" class="st75 st76 st77">SubCA</text>
	<text id="label69" bar:growlevel="0" transform="matrix(1 0 0 1 1642.6367 2035.6895)" class="st75 st76 st77">rs</text>
	<text id="label66" bar:growlevel="0" transform="matrix(1 0 0 1 1533.0488 1560.584)" class="st75 st76 st77">scp</text>
	<text id="label106" bar:growlevel="0" transform="matrix(1 0 0 1 1220.1816 1655.3613)" class="st75 st76 st77">CGO</text>
	<text id="label105" bar:growlevel="0" transform="matrix(1 0 0 1 1223.4688 1580.9629)" class="st75 st76 st77">DRC</text>
	<text id="label104" bar:growlevel="0" transform="matrix(1 0 0 1 1888.8477 1694.3184)" class="st75 st76 st77">GrC</text>
	<text id="label103" bar:growlevel="0" transform="matrix(1 0 0 1 1669.0684 1934)" class="st75 st76 st77">m5</text>
	<text id="label102" bar:growlevel="0" transform="matrix(1 0 0 1 1696.1094 1712.4941)" class="st75 st76 st77">Pr5DM</text>
	<text id="label101" bar:growlevel="0" transform="matrix(1 0 0 1 1597.0771 1499.7695)" class="st75 st76 st77">LPBD</text>
	<text id="label76" bar:growlevel="0" transform="matrix(1 0 0 1 1646.4395 1592.7832)" class="st75 st76 st77">LPBE</text>
	<text id="label77" bar:growlevel="0" transform="matrix(1 0 0 1 1798.3672 1621.9453)" class="st75 st76 st77">mcp</text>
	<text id="label73" bar:growlevel="0" transform="matrix(1 0 0 1 1652.5098 2115.082)" class="st75 st76 st77">vsc</text>
	<text id="Unlabeled-2605-1025" bar:growlevel="0" transform="matrix(1 0 0 1 1974.2275 1061.8066)" class="st75 st76 st77">PaS</text>
	<text id="Unlabeled-2575-1592" bar:growlevel="0" transform="matrix(1 0 0 1 1914.8281 1572.1055)" class="st75 st76 st77">cbw</text>
	<text id="Unlabeled-1402-1436" bar:growlevel="0" transform="matrix(1 0 0 1 1327.6309 1474.4063)" class="st75 st76 st77">grey</text>
	<text id="label133" bar:growlevel="0" transform="matrix(1 0 0 1 1248.3184 2109.4395)" class="st75 st76 st77">tth</text>
	<text id="label136" bar:growlevel="0" transform="matrix(1 0 0 1 1315.0977 2183.2832)" class="st75 st76 st77">tz</text>
	<text id="label134" bar:growlevel="0" transform="matrix(1 0 0 1 1249.877 2157.3281)" class="st75 st76 st77">ml</text>
	<text id="label135" bar:growlevel="0" transform="matrix(1 0 0 1 1340.7793 2251.5469)" class="st75 st76 st77">py</text>
	<text id="label41" bar:growlevel="0" transform="matrix(1 0 0 1 1770.5 1344.666)" class="st75 st76 st77">4Cb</text>
	<text id="label40" bar:growlevel="0" transform="matrix(1 0 0 1 1819.25 1273.6445)" class="st75 st76 st77">5Cb</text>
	<text id="label43" bar:growlevel="0" transform="matrix(1 0 0 1 1890.4678 1077.1699)" class="st75 st76 st77">PaS</text>
	<text id="label42" bar:growlevel="0" transform="matrix(1 0 0 1 1531.7275 1099.4941)" class="st75 st76 st77">ECIC</text>
	<text id="label45" bar:growlevel="0" transform="matrix(1 0 0 1 2066.9873 1023.0098)" class="st75 st76 st77">PRh</text>
	<text id="label44" bar:growlevel="0" transform="matrix(1 0 0 1 2083.127 1276.5527)" class="st75 st76 st77">CEnt</text>
	<text id="label47" bar:growlevel="0" transform="matrix(1 0 0 1 1944.2275 823.6563)" class="st75 st76 st77">V2L</text>
	<text id="label46" bar:growlevel="0" transform="matrix(1 0 0 1 2015.0586 912.8008)" class="st75 st76 st77">Ect</text>
	<text id="label114" bar:growlevel="0" transform="matrix(1 0 0 1 1609.1563 2104.6406)" class="st75 st76 st77">LVPO</text>
	<text id="label115" bar:growlevel="0" transform="matrix(1 0 0 1 1543.0098 2091.5566)" class="st75 st76 st77">MSO</text>
	<text id="Unlabeled-1800-972" bar:growlevel="0" transform="matrix(1 0 0 1 1233.8281 1031.207)" class="st75 st76 st77">3Cb</text>
	<text id="label116" bar:growlevel="0" transform="matrix(1 0 0 1 1217.7617 2289.6543)" class="st75 st76 st77">bas</text>
	<text id="label110" bar:growlevel="0" transform="matrix(1 0 0 1 1212.9482 1540.3594)" class="st75 st76 st77">4V</text>
	<text id="label111" bar:growlevel="0" transform="matrix(1 0 0 1 1307.3574 1520.2266)" class="st75 st76 st77">4n</text>
	<text id="label56" bar:growlevel="0" transform="matrix(1 0 0 1 1306.7598 1968.7773)" class="st75 st76 st77">PnC</text>
	<text id="label54" bar:growlevel="0" transform="matrix(1 0 0 1 1248.8574 1088.5117)" class="st75 st76 st77">3Cb</text>
	<text id="label55" bar:growlevel="0" transform="matrix(1 0 0 1 1660.3965 1438.0137)" class="st75 st76 st77">2bCb</text>
	<text id="label52" bar:growlevel="0" transform="matrix(1 0 0 1 1225.6074 723.8555)" class="st75 st76 st77">5Cb</text>
	<text id="label53" bar:growlevel="0" transform="matrix(1 0 0 1 1234.6074 844.0898)" class="st75 st76 st77">4Cb</text>
	<text id="label50" bar:growlevel="0" transform="matrix(1 0 0 1 1793.208 957.3867)" class="st75 st76 st77">RSD</text>
	<text id="label51" bar:growlevel="0" transform="matrix(1 0 0 1 1385.7793 1001.2559)" class="st75 st76 st77">DCIC</text>
	<text id="label113" bar:growlevel="0" transform="matrix(1 0 0 1 1495.9678 2204.2559)" class="st75 st76 st77">MVPO</text>
	<text id="label58" bar:growlevel="0" transform="matrix(1 0 0 1 1548.708 1864.8379)" class="st75 st76 st77">5Pt</text>
	<text id="label127" bar:growlevel="0" transform="matrix(1 0 0 1 1269.2598 1730.5938)" class="st75 st76 st77">mlf</text>
	<text id="Unlabeled-2306-1719" bar:growlevel="0" transform="matrix(1 0 0 1 1639.4287 1738.1055)" class="st75 st76 st77">grey</text>
	<text id="Unlabeled-1979-1553" bar:growlevel="0" transform="matrix(1 0 0 1 1429.7275 1573.9082)" class="st75 st76 st77">grey</text>
	<text id="label23" bar:growlevel="0" transform="matrix(1 0 0 1 1568.8965 2019.7852)" class="st75 st76 st77">A5</text>
	<text id="label21" bar:growlevel="0" transform="matrix(1 0 0 1 1441.458 2095.5176)" class="st75 st76 st77">SPO</text>
	<text id="label20" bar:growlevel="0" transform="matrix(1 0 0 1 1413.7988 2159.5781)" class="st75 st76 st77">Tz</text>
	<text id="label27" bar:growlevel="0" transform="matrix(1 0 0 1 1638.3213 1905.293)" class="st75 st76 st77">5TT</text>
	<text id="label25" bar:growlevel="0" transform="matrix(1 0 0 1 1407.3535 1751.4961)" class="st75 st76 st77">SubCD</text>
	<text id="label24" bar:growlevel="0" transform="matrix(1 0 0 1 1521.6787 1975.7383)" class="st75 st76 st77">SubCV</text>
	<text id="label29" bar:growlevel="0" transform="matrix(1 0 0 1 1466.2637 1482.2402)" class="st75 st76 st77">LPBI</text>
	<text id="label28" bar:growlevel="0" transform="matrix(1 0 0 1 1396.3262 1601.2031)" class="st75 st76 st77">Bar</text>
	<text id="label97" bar:growlevel="0" transform="matrix(1 0 0 1 1533.7168 1494.127)" class="st75 st76 st77">LPB</text>
	<text id="label49" bar:growlevel="0" transform="matrix(1 0 0 1 1637.0879 777.6855)" class="st75 st76 st77">V1M</text>
	<text id="label155" bar:growlevel="0" transform="matrix(1 0 0 1 1599.9043 1540.6211)" class="st75 st76 st77">LPBC</text>
	<text id="label157" bar:growlevel="0" transform="matrix(1 0 0 1 1513.5488 1464.5078)" class="st75 st76 st77">vsc</text>
	<text id="label163" bar:growlevel="0" transform="matrix(1 0 0 1 1212.5879 1540.3594)" class="st75 st76 st77">4V</text>
	<text id="label48" bar:growlevel="0" transform="matrix(1 0 0 1 1821.6172 740.209)" class="st75 st76 st77">V1B</text>
</g>
</svg>
