<?xml version="1.0" encoding="utf-8"?>
<!-- Generator: Adobe Illustrator 24.1.1, SVG Export Plug-In . SVG Version: 6.00 Build 0)  -->
<svg version="1.1"
	 id="body" inkscape:version="0.47pre4 r22446" sodipodi:docname="145_pretrace_pretrace_v1.svg" xmlns:bar="http://www.3dbar.org" xmlns:cc="http://creativecommons.org/ns#" xmlns:dc="http://purl.org/dc/elements/1.1/" xmlns:inkscape="http://www.inkscape.org/namespaces/inkscape" xmlns:rdf="http://www.w3.org/1999/02/22-rdf-syntax-ns#" xmlns:sodipodi="http://sodipodi.sourceforge.net/DTD/sodipodi-0.dtd" xmlns:svg="http://www.w3.org/2000/svg"
	 xmlns="http://www.w3.org/2000/svg" xmlns:xlink="http://www.w3.org/1999/xlink" x="0px" y="0px" viewBox="0 0 3024 3024"
	 style="enable-background:new 0 0 3024 3024;" xml:space="preserve">
<style type="text/css">
	.st0{fill:#FF000C;}
	.st1{fill:#E547D8;}
	.st2{fill:#59DF9D;}
	.st3{fill:#00D43B;}
	.st4{fill:#00E945;}
	.st5{fill:#76FFDA;}
	.st6{fill:#AF8EDC;}
	.st7{fill:#650BE1;}
	.st8{fill:#AC8EE5;}
	.st9{fill:#836BE5;}
	.st10{fill:#640BFA;}
	.st11{fill:#00FFDE;}
	.st12{fill:#3BFFC8;}
	.st13{fill:#00DFB7;}
	.st14{fill:#2400CB;}
	.st15{fill:#702FE5;}
	.st16{fill:#FF00FE;}
	.st17{fill:#D847CA;}
	.st18{fill:#3BD1D4;}
	.st19{fill:#895FC7;}
	.st20{fill:#9477C3;}
	.st21{fill:#00EF7A;}
	.st22{fill:#00CF69;}
	.st23{fill:#3BFFDC;}
	.st24{fill:#A15FFA;}
	.st25{fill:#00D7F2;}
	.st26{fill:#792FDC;}
	.st27{fill:#7677E9;}
	.st28{fill:#FFEEB2;}
	.st29{fill:#863BE9;}
	.st30{fill:#A06BF6;}
	.st31{fill:#597AFF;}
	.st32{fill:#0036FF;}
	.st33{fill:#B2C3FF;}
	.st34{fill:#00D1D4;}
	.st35{fill:#BA8EFA;}
	.st36{fill:#D0D46B;}
	.st37{fill:#FFB2BA;}
	.st38{fill:#59FFD0;}
	.st39{fill:#2CEF8D;}
	.st40{fill:#FF59C3;}
	.st41{fill:#5D17FF;}
	.st42{fill:#7B23F6;}
	.st43{fill:#4C00F2;}
	.st44{fill:#6047E5;}
	.st45{fill:#59DFFF;}
	.st46{fill:#B2F0FF;}
	.st47{fill:#00D0FF;}
	.st48{fill:#00FFFB;}
	.st49{fill:#59E9CC;}
	.st50{fill:#00FFCE;}
	.st51{fill:#DF0045;}
	.st52{fill:#0003FF;}
	.st53{fill:#E4FF59;}
	.st54{fill:#D6FF00;}
	.st55{fill:#EBF400;}
	.st56{fill:#F9FF47;}
	.st57{fill:#B6DF00;}
	.st58{fill:#FDFFB2;}
	.st59{fill:#FEFFB2;}
	.st60{fill:#D0FF00;}
	.st61{fill:#FAFF00;}
	.st62{fill:#FAFF59;}
	.st63{fill:#EEF447;}
	.st64{fill:#FFFD59;}
	.st65{fill:#5974FF;}
	.st66{fill:#9E8EF2;}
	.st67{fill:#9D8ED8;}
	.st68{fill:#3B40FF;}
	.st69{fill:#B2BFFF;}
	.st70{fill:#CB59FF;}
	.st71{fill:#C5E900;}
	.st72{fill:#00E5C7;}
	.st73{fill:#232323;enable-background:new    ;}
	.st74{font-family:'TimesNewRomanPSMT';}
	.st75{font-size:27px;}
</style>
<sodipodi:namedview  bordercolor="#666666" borderopacity="1" gridtolerance="10" guidetolerance="10" id="namedview363" inkscape:current-layer="content" inkscape:cx="611.86356" inkscape:cy="562.90085" inkscape:object-paths="true" inkscape:pageopacity="0" inkscape:pageshadow="2" inkscape:window-height="1026" inkscape:window-maximized="1" inkscape:window-width="1678" inkscape:window-x="0" inkscape:window-y="0" inkscape:zoom="1.9601121" objecttolerance="10" pagecolor="#ffffff" showgrid="false">
	</sodipodi:namedview>
<desc  id="desc5">This was produced by version 4.2 of GNU libplot, a free library for exporting 2-D vector graphics.</desc>
<defs>
	<rdf:RDF>
		<cc:Work  rdf:about="">
			<dc:format>image/svg+xml</dc:format>
			<dc:type  rdf:resource="http://purl.org/dc/dcmitype/StillImage"></dc:type>
		</cc:Work>
	</rdf:RDF>
	<bar:data  content="-8.28" name="coronalcoord"></bar:data>
	
		<bar:data  content="{&apos;ReferenceHeight&apos;: 900, &apos;ReferenceWidth&apos;: 1200, &apos;imageSize&apos;: (1200, 900)}" name="rendererConf">
		</bar:data>
	
		<bar:data  content="{&apos;DumpEachStepSVG&apos;: False, &apos;DumpEachStepPNG&apos;: False, &apos;GrowDefaultBoundaryColor&apos;: 200, &apos;CacheLevel&apos;: 5, &apos;NewPathIdTemplate&apos;: &apos;structure%d_%s_%s&apos;, &apos;PoTraceConf&apos;: {&apos;potrace_accuracy_parameter&apos;: &apos;0.001&apos;, &apos;potrace_width_string&apos;: &apos;1200pt&apos;, &apos;potrace_svg_resolution_string&apos;: &apos;300x300&apos;, &apos;potrace_height_string&apos;: &apos;900pt&apos;}, &apos;DetectUnlabelled&apos;: True, &apos;DumpVBrain&apos;: False, &apos;DumpWrongSeed&apos;: True, &apos;DumpDirectory&apos;: &apos;.&apos;, &apos;MinFiterTimesApplication&apos;: 3, &apos;RegionAlreadyTraced&apos;: 100, &apos;UnlabelledTreshold&apos;: 500}" name="tracingConf">
		</bar:data>
	<bar:data  content="0.0176211454,-9.5150660793,0.0176211454,-1.5355884426" name="transformationmatrix"></bar:data>
</defs>
<g id="content">
	<path class="st0" d="M2309.4,1118.1c-8.6-32.3-19.6-61.7-33.7-89.8c-23.5-47.1-49.3-83-100.7-140c-67.1-74.5-119-125.5-156.5-153.8
		c-55.3-41.8-192-121.9-256.7-150.5c-65.7-29.1-120.5-40.5-194.4-40.5c-30.3,0-38,0.5-59.4,4.1c-57.4,9.6-109,36.4-163.7,84.8
		c-39.8,35.3-51.8,54.5-47.9,76.8c1.9,11,12.3,32.9,28.2,59.3c20.3,33.9,43.9,58.5,74,77c8.4,5.1,8.5,6.7,0.4,5.9
		c-13.5-1.3-41.3-1.6-46.6-0.6c-19.4,3.7-42.8,23.1-92.9,77.6c-25.2,27.3-34.9,35.5-53.4,45.2c-16,8.4-32.4,13.2-45,13.2V2311
		c1.6,0,3.2-0.4,4.8-1.1c6.1-2.6,8.5-8.5,5.5-13.6c-2.3-4.1-1.8-4.8,3.4-4.1c6.9,0.9,34.6,6.3,53.7,10.5c16.3,3.5,16.9,3.6,30.2,3.2
		c15.4-0.5,21.1-1.5,48.4-8.4c38.6-9.6,64.6-17.9,86.5-27.5c32.9-14.4,49.5-27.7,147.6-118.9c34.4-31.9,33.6-31.4,100.9-64.6
		c47.9-23.6,85.4-45.6,102.6-60.2c8.6-7.2,41.1-40.2,51.2-51.8c29-33.2,74.2-106.4,83.2-134.6c7.3-22.8,6-44.2-3.6-61
		c-6.5-11.3-17.8-21.6-27.1-24.8c-8.8-3-20-1.1-29.7,4.9c-5.6,3.5-7.3,3.5-6.7,0.2c0.4-1.3,1.2-5.3,1.9-8.7
		c5.2-23.9-3.8-45.8-22.5-55c-11.4-5.7-24.4-5.2-33.8,1.1c-5.7,3.8-7.4,4-6.7,0.5c2.2-10,2.4-18.3,1.8-51.8
		c-0.4-25.5-0.4-35.7,0.4-35.7c0.5,0,2.4,0.8,4.2,1.9c4.3,2.6,8.5,1.8,12.1-2.4c4.7-5.3,3.2-13.1-3-16c-3.8-1.8-5.7-1.8-9-0.1
		c-1.3,0.7-3,1.3-3.6,1.3c-0.7,0-1-7.7-1-28.6c0-35.1-0.2-36-11.7-74c-14.8-48.4-24.5-83.1-26-92.3c-3.2-20.5-4.1-51.8-2.3-84.1
		c1.1-19.3,1.5-22.4,3-22.4c0.6,0,2.4,4.4,4.1,9.7c4.6,14.9,13.9,37.6,22.6,55.5c9.1,18.5,14,25.3,27.4,37.9l8.7,8.2l-1,4.8
		c-2.9,13.4,3.2,38.9,23.3,99c16.5,48.9,30.5,86,39.2,103.5c28.9,57.8,80.9,95,152.6,109.3c20.3,4.1,32.7,5.3,51.3,5.4
		c25.2,0,38.3-2.7,57.2-12.1c15.2-7.6,24.3-14.8,45.4-36c10.7-10.6,22-22.6,25.2-26.6c19-23.8,36.9-59.1,49.2-96.8
		c9.3-28.4,15.5-55,22-93.6c7.5-44.7,8.6-48.1,24.2-66.1c12.1-14,24.8-32.8,30.6-45C2324.8,1293.7,2329.7,1194.7,2309.4,1118.1z"/>
	<path class="st0" d="M1203.4,546.1c-7.1-1.1-16.7-1.5-38.3-1.7c-1.3,0-2.7,0-4,0v73.7c13.3,0,26.6-0.4,32.8-1.1
		c46.4-5.3,71-17,73-34.9C1268.7,566,1245.6,552.9,1203.4,546.1z"/>
	<path class="st0" d="M1267.4,828.2c-4-16.1-17-46.3-25.9-59.8c-13.5-20.4-41.4-37.7-69.8-43.1c-4.2-0.8-7.4-1.2-10.7-1.2v225.6
		c14.4-0.6,34-8,53.1-20.3c14.6-9.4,31-24.8,39.9-37.2c5.3-7.6,11.6-20.9,13.8-29.2C1270.1,854,1270,838.4,1267.4,828.2z"/>
	<path id="structure4_label123_vBrain" bar:growlevel="0" bar:type="" class="st0" d="M1748.5,1411.5c-3.2,2.6-4.5,7.1-4.5,16.7
		c0,12.8,4.1,19.3,11.9,19.3c6.6,0,9.5-3.6,10.9-13.3c1.5-11.2-1.3-20.1-7.6-23C1755.1,1409.2,1751.3,1409.4,1748.5,1411.5z"/>
	<path id="structure6_label123_vBrain" bar:growlevel="0" bar:type="" class="st0" d="M1766,1493.4c-6.7,2.7-6.1,23.6,1.3,47.1
		c4,12.6,9.1,20.6,14.8,23.7c3.4,1.7,8.7,1.6,12.5-0.4c9.8-5.1,8-20.6-5.5-47.9c-6.4-12.9-11.9-20.2-16.7-22.1
		C1769.1,1492.4,1768.8,1492.4,1766,1493.4z"/>
	<path id="structure8_label123_vBrain" bar:growlevel="0" bar:type="" class="st0" d="M1766.1,1617.6c-1.2,0.4-2.9,2.2-3.9,3.8
		c-2.5,4-1.9,8.5,1.8,11.7c6,5.5,15.3,1.3,15.2-6.9C1779.3,1619.2,1772.8,1615,1766.1,1617.6z"/>
	<path id="structure105_label93_a" bar:growlevel="0" bar:type="" class="st1" d="M1755.2,1594.8c-2.5,2.1-2.8,2.8-2.8,7.6
		c0,4.8,0.3,5.5,2.8,7.6c7.4,6.2,18.4-0.3,16.6-9.7C1770.5,1593,1760.9,1589.9,1755.2,1594.8z"/>
	<path id="structure106_label94_a" bar:growlevel="0" bar:type="" class="st1" d="M1763.6,1619.9c-1.7,1.6-2.3,3.1-2.3,5.8
		c0,4.7,1.2,6.8,4.7,8.6c8.7,4.5,17.4-6.4,11-13.9c-2-2.4-2.9-2.8-6.8-2.8C1766.7,1617.6,1765.3,1618.1,1763.6,1619.9z"/>
	<path id="structure107_label95_ll" bar:growlevel="0" bar:type="" class="st2" d="M1614.6,1391.7c-3.8,0.4-10.1,1.3-14,2.3
		c-7.5,1.6-21.7,6.5-22.4,7.6c-0.2,0.4,1.3,11.6,3.2,24.9c2,13.3,3.6,24.5,3.6,24.8s2.3,1.1,5.2,1.6c7.4,1.6,19.9,6.1,23.9,8.6
		c4,2.6,4.4,5.7,1.1,8.4c-2.7,2.1-11.6,4.2-21.4,5l-6.9,0.6l0.4,4.2c0.3,2.3,0.7,8,1,12.7c1.2,20.1,5.8,41.5,13.1,60
		c4,10.7,5.4,10.2,5.2-2.3c-0.3-13.1,2.9-24.5,10.2-36.8c4.1-6.9,15.2-18.5,22.1-23c5.6-3.6,5.8-3.9,5.2-6.9
		c-0.3-1.7-2.9-22.8-5.9-46.8c-3.3-27.3-5.8-43.8-6.5-44.3c-0.6-0.4-2.3-0.7-3.8-0.7c-1.4,0-3.5-0.2-4.5-0.4
		C1622.2,1391.2,1618.4,1391.4,1614.6,1391.7z"/>
	<path id="structure108_label96_scp" bar:growlevel="0" bar:type="" class="st3" d="M1440.1,1575.4c-8.6,0.9-31,3.6-49.5,5.9
		c-18.5,2.3-44,5.2-56.5,6.7c-24.8,2.8-29.8,4.2-32.6,9.2c-4.2,7.7,8.4,15.7,56.3,35.2c13.9,5.7,30.2,12.4,36.5,15
		c16.9,6.9,39.4,15.2,62.5,22.8c21.5,7.1,41,13.2,42.1,13.2c1.4,0,0.1-5.7-11.5-49.3c-15.8-58.9-15.4-57.7-17.8-58.6
		C1465.1,1573.8,1455.1,1573.8,1440.1,1575.4z"/>
	<path class="st4" d="M1798.5,1700.8c-6.9-5.7-13.4-7.8-23.7-7.9c-7.6-0.1-9.1,0.2-13.7,2.4c-8.4,4.1-12.1,9.1-15.7,21.2
		c-6.1,20.3-16.3,42.9-28.3,62.6c-5.6,9.2-6.9,12.3-9.9,23c-13.4,47.3-26,73.3-63.5,131c-7.5,11.4-16.4,26.3-19.9,33
		c-17.4,33.1-79.2,131.6-89.6,142.7c-2.5,2.8-9.4,9-15,13.8c-12.2,10.3-19.2,17.5-26.7,27.5c-15.4,20.3-53.6,57.1-86.4,83.3
		c-23,18.5-45.7,31.3-67.6,38.6c-16,5.4-26.2,7.2-42.9,7.8c-12.2,0.4-16.1,0.2-25.4-1.4c-23-3.9-55.7-17.1-81.3-32.8
		c-7.8-4.9-11.5-8.4-13.9-13.2c-1.9-4.1-1.9-4.1-2.3-121.5l-0.4-117.4l-2-4.2c-2.2-4.8-4.1-6.1-9.2-6.1v306.8c7.9,0,31.9,4,55.8,9.2
		c27.6,6,30.8,6.5,42.8,5.9c13.5-0.7,22.2-2.3,45-7.9c67.1-16.8,100.2-29.9,127.4-50.2c20.3-15.2,40.9-33.4,104.7-92.8
		c16.3-15.1,32.2-29.3,35.4-31.5c5.6-3.9,6-4.6,13.5-18.4c14.5-27,27.8-49,33.7-55.6c1.4-1.7,5.4-7.2,8.8-12.4
		c9.5-14.4,24-33.4,35.4-46c28.4-31.8,32.9-38.2,49.6-70.5c12.3-23.8,21.2-39.2,38.3-66.5c12.5-20.1,38.4-59.5,49.2-74.8
		c5.2-7.5,7.6-11.7,9.5-17.6C1818.3,1735.8,1814.1,1713.4,1798.5,1700.8z"/>
	<path id="structure10_label1_PnO" bar:growlevel="0" bar:type="" class="st5" d="M1363.6,1721.1c-25.7,2.5-50.2,10.3-66.6,21.1
		c-7.1,4.7-19.5,17.5-20.4,21c-0.3,1.4,0.4,7.8,1.4,14.6c3.5,21.7,4.6,33.3,5.2,56.3c0.6,25.9-0.4,39.7-4.3,63.7
		c-2.6,15.6-8.7,41.8-12.4,53.7c-1.1,3.2-1.9,6.3-1.9,6.8c0,2.9,23.6,7.3,52.2,9.7c69.8,6,126.6-1.3,167.8-21.6l8.6-4.2l4.2-7.7
		c5.7-10.5,15.1-26.5,19.3-32.7c1.9-2.8,3.4-5.5,3.4-5.9c0-0.4-3.2-1.3-6.9-1.8c-15.7-2.4-24.6-10.7-24.6-22.9
		c0-17.1,13.7-36.7,32-45.9c4.5-2.3,10.2-4.6,12.7-5.2c4.1-1.1,4.6-1.4,5-4.1c0.3-1.7,1.5-5,2.8-7.7c3-5.8,3.1-7.5,0.4-6.8
		c-5.9,1.4-9,1.6-13.7,0.7c-11.5-2.2-20.6-8.4-23-15.8c-1.3-3.9-0.7-7.3,2-12.7l1.9-3.9l-3.4-4.3c-20-24.8-47.9-38.2-89.6-43
		C1400.5,1720.8,1374.7,1720.1,1363.6,1721.1z"/>
	<path id="structure110_label98_s5" bar:growlevel="0" bar:type="" class="st6" d="M1828,1755.5c-5.7,2-13.3,6.6-18,10.9
		c-2.7,2.3-12.5,16.3-28.5,40.2c-31,46.4-56.3,88.7-71.6,119.3c-11.2,22.2-20.3,35.4-38.9,55.7c-16.7,18.2-30.3,35.7-43,54.9
		c-4.6,6.8-6.5,10.9-8.3,16.8c-3.2,11-8.8,26.2-14.5,39c-4.7,10.4-5.6,13-4.2,13c0.4,0,11.3-5.3,24.5-11.8
		c13.2-6.5,29.6-14.6,36.5-18c21.7-10.6,62.2-34.7,76-45c13.1-9.9,48.9-46,64.4-65.2c21.2-26,49.2-70,65.7-103
		c11.9-23.8,15.6-37.5,14.5-54.5c-1.1-18.5-6.9-31.4-20-43.6C1851.5,1754.2,1840.2,1751.2,1828,1755.5z"/>
	<path id="structure111_label99_rs" bar:growlevel="0" bar:type="" class="st7" d="M1532.8,1820.6c-17.1,4.9-31.3,16.5-39,31.9
		c-3.8,7.6-3.8,7.7-3.8,17.7c0,9.9,0.1,10.2,2.8,13.6c6.2,7.7,15.9,10.6,33.4,9.9c17-0.7,30.8-5.4,39-13.3
		c10.7-10.4,14.9-34.4,8.1-47.6C1568.3,1822.9,1547.1,1816.6,1532.8,1820.6z"/>
	<path id="structure112_label100_ll" bar:growlevel="0" bar:type="" class="st2" d="M1710.8,1419.9c-3.9,3.5-4.4,4.6-7.7,15
		c-4.8,14.9-6.5,23.5-6.5,32.9c0,10.4,1.2,12.8,8.9,17.4c13.6,8.1,26.8,27,30.3,43.2c1.5,7.2,1.7,32.7,0.4,45.9
		c-1.5,14.5-4.5,24.6-11.3,37.7c-13.8,27.2-23,36.8-39.6,41.1c-6.1,1.6-27.8,4.1-35.5,4.1c-11.7-0.1-21.8-4.5-26.3-11.5
		c-3.6-5.7-5.5-12.2-8.5-30.2c-2-11.4-2.9-15-3.9-14.8c-1.7,0.4-6.8,14-10.1,26.7c-8.3,33.2-8.1,65.3,0.6,94.6
		c3.1,10.5,7.5,20.7,8.8,20.7c0.7,0,1.5-2.7,2.3-7.5c4.4-29,22.4-55,46.4-67.1c8.5-4.1,21.8-8.8,30.2-10.5
		c10.5-2.2,25.3-1.5,32.8,1.3c12.9,4.9,18.5,17.7,15.8,36.2c-2.6,18.1-15,41.9-70.7,136.2c-32.1,54.4-32.7,55.3-44.8,77.6
		c-14.9,27.3-22.7,43-33.8,68.9c-13.5,31.5-14.3,32.9-19.4,38.2c-10.9,10.9-29.3,14.7-50.5,10.3c-12.3-2.5-18.5-6.3-22.9-13.9
		c-4.2-7.6-3.5-12.5,4-27.5c5-9.9,8.2-14.9,22.3-34.8c6.3-9,13.7-19.8,16.3-23.9c5.1-8.1,19.5-35.8,19.5-37.5c0-1.3-2.8-1.3-6.6,0.4
		c-5.7,2.3-16.3,4.9-23.1,5.7l-6.8,0.6l-4.6,6.8c-9.7,14.2-31.9,54.6-38.9,71.1c-9.6,22.4-18.2,67.1-18.2,94.7c0,18.4,1.3,21,15,28
		c22.9,11.7,48.1,16.1,59.6,10.4c4.7-2.3,8.6-8,34.5-48.9c36.7-58.1,55.5-90.5,61.6-106.2c30.3-78.4,44.3-106.8,78.8-159.8
		c21.1-32.4,33.8-61.7,40-91.8c2.5-12,2.5-12.5,2.2-37.8c-0.4-30.2-0.4-58.7,0-95.4c0.3-21.9,0.1-28.3-1.2-36.1c-1-6-6.5-26-14.9-54
		c-7.3-24.5-14.3-48-15.5-52.4c-1.5-5.5-2.5-7.8-3.5-7.8C1715.6,1416.1,1713.1,1417.8,1710.8,1419.9z"/>
	<path id="structure113_label101_PTg" bar:growlevel="0" bar:type="" class="st8" d="M1395.1,1323.5c0,0.5,1.6,5,3.5,9.6
		c5,12.1,9.6,28.1,11.9,40.4c2.4,13.1,2.6,31.6,0.5,41.4c-1.9,8.7-1.9,9.2,0.8,9.2c1.3,0,2.6,0.7,3.2,1.9c0.8,1.6,0.6,2.3-0.8,3.7
		c-1.4,1.4-2.1,1.6-3.6,0.8c-1-0.5-2.4-1-3.1-1s-3.1,4.3-5.5,9.6c-2.3,5.4-8.5,17.6-13.7,27.3c-5.2,9.6-9.5,18-9.5,18.6
		c0,0.7,1.7,1,5.3,0.9c4.1-0.2,5.9,0.3,7.9,1.7c8.8,6.5,8.8,17.4,0.1,24.1c-3.4,2.6-9.7,5-13,5c-5.6,0-8.5-3.5-8.5-10.3
		c0-2.7-0.4-4.1-1.2-4.1c-0.5,0-4.8,5.6-9.4,12.3c-11.3,16.9-23.2,32.1-34.1,43.5c-7.3,7.6-9.6,10.6-11.6,15.3
		c-1.3,3.2-3.6,7.9-5,10.4c-3.9,6.8-3.5,8.6,1.4,6.8c1.2-0.5,11.6-2,23.2-3.2c11.5-1.3,35.5-4.1,53.4-6.3
		c52.5-6.5,67.5-7.9,75.9-7.2c4,0.3,7.4,0.2,7.4-0.2c0-0.4-1-4.3-2.3-8.6c-3.4-11.7-3.7-14.9-1.5-19.8c2.6-5.8,5.1-6.9,16.7-6.9
		c10.9,0,20.3,1.5,38,5.9c13.3,3.4,17.8,5.7,20.5,10.2c3.8,6.5,4.3,10,5.1,32.9c1.1,28.6,2.4,51.8,4.1,70.6
		c1.5,16.6,1.1,23.3-1.7,29c-4.2,8.4-11.1,8.8-33.1,2c-7.5-2.3-13.8-3.9-14.1-3.6c-0.3,0.4-0.1,2.1,0.5,4c0.5,1.8,2.4,8.3,4.1,14.3
		c4.9,16.3,6.3,28.3,5.9,46.8c-0.3,10.6-0.1,15.6,0.5,15.6c0.5,0,3.2-0.9,5.9-2c9.4-3.7,22.7-2.3,29.2,3.1c4.5,3.7,6,7.1,6,13.2
		c0.1,7.9-1.5,12.3-5.9,17.1c-4.1,4.3-8.9,13.5-10,18.6l-0.5,2.7l6.2,0.2c7.3,0.1,16.2,2.7,22,6.4c5.9,3.7,8.8,8.6,10,16.3
		c0.6,3.7,1.4,6.3,2.1,6.3c1.9,0,17.8-39.2,23.2-56.9c3.1-10.1,7.3-28.1,8.7-36.9l1.1-6.9l-3.4-7.9c-14.9-34.8-17.3-71.6-7.2-111.5
		c3.3-13,7.9-25.7,10-27.8c1.3-1.2,1.1-3.2-1-18.1c-2.1-14.1-2.9-17.7-5.6-23.4c-8.6-18.9-14.8-46.5-16.2-72.1
		c-0.7-14.3-1.9-14.8-7.4-2.5c-13,28.4-29,40-58.1,41.7c-13.1,0.8-29-0.1-36.9-2.1c-8.8-2.2-21.4-8.3-28.3-13.8
		c-10.8-8.6-26.1-28.6-26.3-34.3c-0.1-4,3.1-7,9-8.4c4.3-1.1,4.7-1.3,4.2-3.2c-0.6-2.6,1.5-6.7,4.5-8.6
		c10.3-6.8,38.4-11.3,69.3-11.3c15.6,0,29.8,1.4,52,5c7.8,1.3,14.4,2.2,14.8,1.9c0.4-0.5-5.9-47.4-6.6-48.2c-0.2-0.2-2.4,0.6-5,1.7
		c-8,3.4-13.3,4.5-23.3,4.5c-14.2,0-31-3.3-52.6-10.3c-18.6-6.1-37.8-16.9-56.3-31.6c-8.8-7.1-32.6-30.6-39.2-38.8
		C1397.6,1322.8,1395.1,1321.1,1395.1,1323.5z"/>
	<path id="structure114_label102_cll" bar:growlevel="0" bar:type="" class="st9" d="M1395.1,1323.5c0,0.5,1.6,5,3.5,9.6
		c5,12.1,9.6,28.1,11.9,40.4c2.4,13.1,2.6,31.6,0.5,41.4c-1.9,8.7-1.9,9.2,0.8,9.2c1.3,0,2.6,0.7,3.2,1.9c0.8,1.6,0.6,2.3-0.8,3.7
		c-1.4,1.4-2.1,1.6-3.6,0.8c-1-0.5-2.4-1-3.1-1s-3.1,4.3-5.5,9.6c-2.3,5.4-8.5,17.6-13.7,27.3c-5.2,9.6-9.5,18-9.5,18.6
		c0,0.7,1.7,1,5.3,0.9c4.1-0.2,5.9,0.3,7.9,1.7c8.8,6.5,8.8,17.4,0.1,24.1c-3.4,2.6-9.7,5-13,5c-5.6,0-8.5-3.5-8.5-10.3
		c0-2.7-0.4-4.1-1.2-4.1c-0.5,0-4.8,5.6-9.4,12.3c-11.3,16.9-23.2,32.1-34.1,43.5c-7.3,7.6-9.6,10.6-11.6,15.3
		c-1.3,3.2-3.6,7.9-5,10.4c-3.9,6.8-3.5,8.6,1.4,6.8c1.2-0.5,11.6-2,23.2-3.2c11.5-1.3,35.5-4.1,53.4-6.3
		c52.5-6.5,67.5-7.9,75.9-7.2c4,0.3,7.4,0.2,7.4-0.2c0-0.4-1-4.3-2.3-8.6c-3.4-11.7-3.7-14.9-1.5-19.8c2.6-5.8,5.1-6.9,16.7-6.9
		c10.9,0,20.3,1.5,38,5.9c13.3,3.4,17.8,5.7,20.5,10.2c3.8,6.5,4.3,10,5.1,32.9c1.1,28.6,2.4,51.8,4.1,70.6
		c1.5,16.6,1.1,23.3-1.7,29c-4.2,8.4-11.1,8.8-33.1,2c-7.5-2.3-13.8-3.9-14.1-3.6c-0.3,0.4-0.1,2.1,0.5,4c0.5,1.8,2.4,8.3,4.1,14.3
		c4.9,16.3,6.3,28.3,5.9,46.8c-0.3,10.6-0.1,15.6,0.5,15.6c0.5,0,3.2-0.9,5.9-2c9.4-3.7,22.7-2.3,29.2,3.1c4.5,3.7,6,7.1,6,13.2
		c0.1,7.9-1.5,12.3-5.9,17.1c-4.1,4.3-8.9,13.5-10,18.6l-0.5,2.7l6.2,0.2c7.3,0.1,16.2,2.7,22,6.4c5.9,3.7,8.8,8.6,10,16.3
		c0.6,3.7,1.4,6.3,2.1,6.3c1.9,0,17.8-39.2,23.2-56.9c3.1-10.1,7.3-28.1,8.7-36.9l1.1-6.9l-3.4-7.9c-14.9-34.8-17.3-71.6-7.2-111.5
		c3.3-13,7.9-25.7,10-27.8c1.3-1.2,1.1-3.2-1-18.1c-2.1-14.1-2.9-17.7-5.6-23.4c-8.6-18.9-14.8-46.5-16.2-72.1
		c-0.7-14.3-1.9-14.8-7.4-2.5c-13,28.4-29,40-58.1,41.7c-13.1,0.8-29-0.1-36.9-2.1c-8.8-2.2-21.4-8.3-28.3-13.8
		c-10.8-8.6-26.1-28.6-26.3-34.3c-0.1-4,3.1-7,9-8.4c4.3-1.1,4.7-1.3,4.2-3.2c-0.6-2.6,1.5-6.7,4.5-8.6
		c10.3-6.8,38.4-11.3,69.3-11.3c15.6,0,29.8,1.4,52,5c7.8,1.3,14.4,2.2,14.8,1.9c0.4-0.5-5.9-47.4-6.6-48.2c-0.2-0.2-2.4,0.6-5,1.7
		c-8,3.4-13.3,4.5-23.3,4.5c-14.2,0-31-3.3-52.6-10.3c-18.6-6.1-37.8-16.9-56.3-31.6c-8.8-7.1-32.6-30.6-39.2-38.8
		C1397.6,1322.8,1395.1,1321.1,1395.1,1323.5z"/>
	<path id="structure115_label103_T" bar:growlevel="0" bar:type="" class="st10" d="M1710.8,1419.9c-3.9,3.5-4.4,4.6-7.7,15
		c-4.8,14.9-6.5,23.5-6.5,32.9c0,10.4,1.2,12.8,8.9,17.4c13.6,8.1,26.8,27,30.3,43.2c1.5,7.2,1.7,32.7,0.4,45.9
		c-1.5,14.5-4.5,24.6-11.3,37.7c-13.8,27.2-23,36.8-39.6,41.1c-6.1,1.6-27.8,4.1-35.5,4.1c-11.7-0.1-21.8-4.5-26.3-11.5
		c-3.6-5.7-5.5-12.2-8.5-30.2c-2-11.4-2.9-15-3.9-14.8c-1.7,0.4-6.8,14-10.1,26.7c-8.3,33.2-8.1,65.3,0.6,94.6
		c3.1,10.5,7.5,20.7,8.8,20.7c0.7,0,1.5-2.7,2.3-7.5c4.4-29,22.4-55,46.4-67.1c8.5-4.1,21.8-8.8,30.2-10.5
		c10.5-2.2,25.3-1.5,32.8,1.3c12.9,4.9,18.5,17.7,15.8,36.2c-2.6,18.1-15,41.9-70.7,136.2c-32.1,54.4-32.7,55.3-44.8,77.6
		c-14.9,27.3-22.7,43-33.8,68.9c-13.5,31.5-14.3,32.9-19.4,38.2c-10.9,10.9-29.3,14.7-50.5,10.3c-12.3-2.5-18.5-6.3-22.9-13.9
		c-4.2-7.6-3.5-12.5,4-27.5c5-9.9,8.2-14.9,22.3-34.8c6.3-9,13.7-19.8,16.3-23.9c5.1-8.1,19.5-35.8,19.5-37.5c0-1.3-2.8-1.3-6.6,0.4
		c-5.7,2.3-16.3,4.9-23.1,5.7l-6.8,0.6l-4.6,6.8c-9.7,14.2-31.9,54.6-38.9,71.1c-9.6,22.4-18.2,67.1-18.2,94.7c0,18.4,1.3,21,15,28
		c22.9,11.7,48.1,16.1,59.6,10.4c4.7-2.3,8.6-8,34.5-48.9c36.7-58.1,55.5-90.5,61.6-106.2c30.3-78.4,44.3-106.8,78.8-159.8
		c21.1-32.4,33.8-61.7,40-91.8c2.5-12,2.5-12.5,2.2-37.8c-0.4-30.2-0.4-58.7,0-95.4c0.3-21.9,0.1-28.3-1.2-36.1c-1-6-6.5-26-14.9-54
		c-7.3-24.5-14.3-48-15.5-52.4c-1.5-5.5-2.5-7.8-3.5-7.8C1715.6,1416.1,1713.1,1417.8,1710.8,1419.9z"/>
	<path id="structure118_label107_RtTgP" bar:growlevel="0" bar:type="" class="st11" d="M1227.2,1957.6c-21.8,2.7-31.4,4.6-37.1,7.2
		c-5,2.3-3.7,3.6,4,4c3.8,0.3,8.9,1.2,11.3,2c9.3,3.2,31,13,66.6,29.7c57.2,26.9,103.2,47.4,107.5,48c7.7,1,5.9-0.9-31.7-32.6
		c-27.9-23.7-51.8-42.4-59.5-46.7c-8.9-4.9-20.8-9.2-30.9-10.9C1250.7,1957,1234.1,1956.7,1227.2,1957.6z"/>
	<path id="structure119_label108_DPPn" bar:growlevel="0" bar:type="" class="st12" d="M1236.9,2042c-3.1,0.7-7.7,2.3-10.3,3.8
		c-5.5,3-13.3,9.8-13.3,11.6c0,1.6,2,1.6,15.8-0.5c22.3-3.3,35.1-4.1,68.8-4.1c40.1,0,54.4,1.6,59.8,6.7c2,1.9,2.2,1.9,11,0.5
		c4.9-0.8,15.5-1.6,23.6-2c10.4-0.4,14.6-0.9,14.6-1.6c0-1.3-13.1-5.3-21.2-6.7c-3-0.5-13-1.4-22.5-1.8c-9.4-0.5-24.8-1.4-34.2-1.9
		c-9.4-0.5-26.9-2-38.9-3.2C1265.8,2040.4,1245.8,2040.1,1236.9,2042z"/>
	<polygon class="st13" points="1161.1,1966.2 1161.1,1974.1 1161.1,1982.1 1161.1,1982.1 1161.1,1966.2 	"/>
	<path class="st13" d="M1247.1,1807.1c-2.1-15.9-9.6-57.1-11.8-64.3c-0.4-1.1-2.8-1.7-9.7-2.5c-10.4-1.2-19.7-3.8-24.1-6.8
		c-14.6-9.6-6.9-42.8,15.4-66.7c7.7-8.1,7.1-9.3-2.7-5.8c-6.9,2.5-20.3,5.2-25.8,5.2c-2.6,0-6.6-0.6-8.9-1.4
		c-2.3-0.7-4.2-1.3-4.4-1.1c-0.2,0.2-0.7,6.6-1.2,14.3c-0.5,7.7-1.4,15-2,16.3c-0.9,1.9-0.6,4.5,1.3,14.3c2.5,13,7.7,50.8,9.9,72.4
		c2.6,25,3.4,48.1,3,81c-0.4,29.7-0.6,34.9-3.7,62.1c-1.8,16.3-3.7,31.1-4.2,32.7c-1.3,4-7.1,8.1-12.6,8.8l-4.4,0.6v15.9l3.7,1.2
		c3.5,1,3.8,1,5.1-1.1c3-4.5,6.8-8.3,10.8-10.5c2.3-1.4,4.7-3.2,5.3-4.1c1.9-2.5,7.3-4.9,14.6-6.5c7.7-1.5,26.6-4.1,30.5-4.1
		c2.3,0,2.8-0.5,4.9-5.7C1246.6,1924.8,1252.4,1848,1247.1,1807.1z"/>
	<path id="structure120_label109_Me5" bar:growlevel="0" bar:type="" class="st14" d="M1405.3,1380.4c-1,2.6,0.1,4.6,2.6,4.9
		c2.4,0.3,2.5,0.1,2.3-2.7c-0.2-2.3-0.7-3.1-2.3-3.2C1406.7,1379.1,1405.7,1379.6,1405.3,1380.4z"/>
	<path id="structure121_label110_Rbd" bar:growlevel="0" bar:type="" class="st15" d="M1179.3,1601.1c-6.2,3.1-12.8,12.6-15.2,22
		c-1.7,6.8-1.5,17.8,1,49.8c1.4,18,1.4,19.7,0.1,21.8c-2.1,3.2-1.8,4.1,1.3,4.1c4.1,0,5.5-3,6.4-13.7c1.3-16.8,1.1-22.2-1.4-27.2
		c-2.6-5.2-2.9-10.4-0.9-18.1c2.3-8.5,5.8-15.5,9.6-19c4-3.6,7.9-11.2,7.9-15.4c0-2-0.6-3.3-2-4.2
		C1183.6,1599.3,1182.9,1599.3,1179.3,1601.1z"/>
	<path id="structure128_label116_4n" bar:growlevel="0" bar:type="" class="st16" d="M1747.3,1412.9c-2.1,3.1-3,8-3.1,15.1
		c0,12.4,3.4,18.4,11,19.3c7.7,0.9,11.5-5.3,11.5-18.4c0-7.2-1.5-11.8-5-15.2c-2.6-2.6-3.5-3-8-3
		C1749.5,1410.6,1748.6,1410.9,1747.3,1412.9z"/>
	<path class="st17" d="M1171.9,2300.5c0-3.6-0.4-4.8-2.6-7c-2.3-2.3-3.3-2.6-8-2.6c-0.1,0-0.1,0-0.1,0v19.3c4.6,0,5.6-0.4,8-2.6
		C1171.4,2305.3,1171.9,2304.3,1171.9,2300.5z"/>
	<path id="structure130_label118_Sag" bar:growlevel="0" bar:type="" class="st18" d="M1710.8,1419.9c-3.9,3.5-4.4,4.6-7.7,15
		c-4.8,14.9-6.5,23.5-6.5,32.9c0,10.4,1.2,12.8,8.9,17.4c13.6,8.1,26.8,27,30.3,43.2c1.5,7.2,1.7,32.7,0.4,45.9
		c-1.5,14.5-4.5,24.6-11.3,37.7c-13.8,27.2-23,36.8-39.6,41.1c-6.1,1.6-27.8,4.1-35.5,4.1c-11.7-0.1-21.8-4.5-26.3-11.5
		c-3.6-5.7-5.5-12.2-8.5-30.2c-2-11.4-2.9-15-3.9-14.8c-1.7,0.4-6.8,14-10.1,26.7c-8.3,33.2-8.1,65.3,0.6,94.6
		c3.1,10.5,7.5,20.7,8.8,20.7c0.7,0,1.5-2.7,2.3-7.5c4.4-29,22.4-55,46.4-67.1c8.5-4.1,21.8-8.8,30.2-10.5
		c10.5-2.2,25.3-1.5,32.8,1.3c12.9,4.9,18.5,17.7,15.8,36.2c-2.6,18.1-15,41.9-70.7,136.2c-32.1,54.4-32.7,55.3-44.8,77.6
		c-14.9,27.3-22.7,43-33.8,68.9c-13.5,31.5-14.3,32.9-19.4,38.2c-10.9,10.9-29.3,14.7-50.5,10.3c-12.3-2.5-18.5-6.3-22.9-13.9
		c-4.2-7.6-3.5-12.5,4-27.5c5-9.9,8.2-14.9,22.3-34.8c6.3-9,13.7-19.8,16.3-23.9c5.1-8.1,19.5-35.8,19.5-37.5c0-1.3-2.8-1.3-6.6,0.4
		c-5.7,2.3-16.3,4.9-23.1,5.7l-6.8,0.6l-4.6,6.8c-9.7,14.2-31.9,54.6-38.9,71.1c-9.6,22.4-18.2,67.1-18.2,94.7c0,18.4,1.3,21,15,28
		c22.9,11.7,48.1,16.1,59.6,10.4c4.7-2.3,8.6-8,34.5-48.9c36.7-58.1,55.5-90.5,61.6-106.2c30.3-78.4,44.3-106.8,78.8-159.8
		c21.1-32.4,33.8-61.7,40-91.8c2.5-12,2.5-12.5,2.2-37.8c-0.4-30.2-0.4-58.7,0-95.4c0.3-21.9,0.1-28.3-1.2-36.1c-1-6-6.5-26-14.9-54
		c-7.3-24.5-14.3-48-15.5-52.4c-1.5-5.5-2.5-7.8-3.5-7.8C1715.6,1416.1,1713.1,1417.8,1710.8,1419.9z"/>
	<path id="structure132_label120_m5" bar:growlevel="0" bar:type="" class="st19" d="M1611.2,2059.7c-3,4.6-9.7,16-15,25.5
		c-18.5,32.9-18.7,33.6-5.4,26.3l7-3.8l3.6-7.6c8-17.4,17.7-43.1,17.7-47C1619.2,2049.5,1616.4,2051.9,1611.2,2059.7z"/>
	<path id="structure133_label121_bic" bar:growlevel="0" bar:type="" class="st20" d="M1702.1,1275.8c-5.9,25.7-10,44.6-14.2,66
		c-2.9,14.9-3.3,19.3-3.7,34.2c-0.6,24.5,2.3,39.1,9.1,45.9c4.3,4.3,13.8,2.3,20.3-4.5l3-3.1l-1.9-11.1c-1.1-6.1-2.4-15.3-2.9-20.4
		c-1.4-14.6-1.1-56.6,0.5-80.3c1.5-21.1,1.5-21.2-0.5-31.9c-2.7-14.9-2.7-14.8-4-14.8C1707.2,1255.8,1705.3,1262.3,1702.1,1275.8z"
		/>
	<path id="structure134_label122_m5" bar:growlevel="0" bar:type="" class="st19" d="M1696.4,1811.9
		c-23.3,38.1-36.2,64.3-55.5,113.5c-5.6,14.1-6.4,17.2-4.3,17.2c1.9,0,30.8-45.9,41.7-66.3c9.3-17.2,18.8-40.9,26-64.2
		C1710.1,1792.9,1708.1,1792.9,1696.4,1811.9z"/>
	<path id="structure137_label126_ts" bar:growlevel="0" bar:type="" class="st21" d="M1258.7,1730.7c-6,4.4-14.3,8.3-19.1,9
		c-2.3,0.4-3.9,1.1-3.9,1.7c0,0.6,2,11.3,4.5,23.5c8.5,42.7,10.2,60.7,9,94.4c-1.4,39.4-5.2,68.8-11.3,87.5c-3.1,9.3-3,9.3,2.4,9.3
		c2.5,0,8.9,0.6,14.1,1.4c5.1,0.7,9.7,1.1,10.1,0.6c1.8-1.9,10.4-36.4,13.9-55.4c6.8-37,6.8-83.7,0.1-123.7
		c-3.6-21.2-12-51.7-14.2-51.7C1263.7,1727.4,1261.1,1728.9,1258.7,1730.7z"/>
	<path id="structure139_label129_mlf" bar:growlevel="0" bar:type="" class="st22" d="M1308.1,1575.4c-2.9,3.2-20.9,17.7-27.7,22.3
		c-9.2,6.1-15.4,9.4-23,12.3l-6.8,2.5l-25.2,0.1c-28.4,0.1-34.9,1.1-42.6,6.1c-7.7,5.2-13.1,18.4-12.7,30.6
		c0.5,12.1,4.8,15.9,17.8,15.9c23.2,0,57.2-14.5,80.3-34.3c16.6-14.2,29.3-27.9,37-40.1c3.4-5.3,7.9-14.5,7.9-16.1
		C1313.2,1572.9,1310.1,1573.3,1308.1,1575.4z"/>
	<path class="st23" d="M1183.1,1785.9c-2.5-25.7-8.5-69.4-11.3-82.6c-1-4.6-1.1-4.8-3.5-4.2c-1.9,0.4-3.1,0.1-4.4-1.3
		c-1.2-1.2-2-1.8-2.7-1.7V1965c8.6,0,13.5-2,15.8-6.5c2.1-4,7.2-52.4,8.6-80.3C1186.7,1854.4,1185.5,1811.9,1183.1,1785.9z"/>
	<path id="structure140_label130_tth" bar:growlevel="0" bar:type="" class="st24" d="M1269.1,2053.4c-21,1.1-52.2,4.9-57.3,7
		c-4.8,2-11.5,15.6-14.1,28.2c-1.4,6.9-2.3,24.5-1.2,25.5c0.3,0.3,12.6-3.7,27.4-8.9c54.2-19.1,110.3-35.8,132.8-39.7
		c2.4-0.4,3.3-1.1,3.3-2.3c0-2.2-3.8-5.1-8-6.3C1340.5,2053.6,1299.3,2051.9,1269.1,2053.4z"/>
	<path id="structure141_label131_ml" bar:growlevel="0" bar:type="" class="st25" d="M1343.8,2068.5c-24.8,5.6-76.3,21.5-121.1,37.3
		l-26.1,9.3l0.2,6.2c0.3,7.2,3.2,23.1,5.4,28.4c3.2,8.1,13.1,8.2,31.2,0.3c25.8-11.3,96.1-52.2,114.6-66.6c8.3-6.5,11-9.7,11.7-14.3
		c0.5-3,0.4-3.2-2.1-3.1C1356.2,2065.9,1350,2067.1,1343.8,2068.5z"/>
	<path class="st26" d="M1798.5,1700.8c-6.9-5.7-13.4-7.8-23.7-7.9c-7.6-0.1-9.1,0.2-13.7,2.4c-8.4,4.1-12.1,9.1-15.7,21.2
		c-6.1,20.3-16.3,42.9-28.3,62.6c-5.6,9.2-6.9,12.3-9.9,23c-13.4,47.3-26,73.3-63.5,131c-7.5,11.4-16.4,26.3-19.9,33
		c-17.4,33.1-79.2,131.6-89.6,142.7c-2.5,2.8-9.4,9-15,13.8c-12.2,10.3-19.2,17.5-26.7,27.5c-15.4,20.3-53.6,57.1-86.4,83.3
		c-23,18.5-45.7,31.3-67.6,38.6c-16,5.4-26.2,7.2-42.9,7.8c-12.2,0.4-16.1,0.2-25.4-1.4c-23-3.9-55.7-17.1-81.3-32.8
		c-7.8-4.9-11.5-8.4-13.9-13.2c-1.9-4.1-1.9-4.1-2.3-121.5l-0.4-117.4l-2-4.2c-2.2-4.8-4.1-6.1-9.2-6.1v306.8c7.9,0,31.9,4,55.8,9.2
		c27.6,6,30.8,6.5,42.8,5.9c13.5-0.7,22.2-2.3,45-7.9c67.1-16.8,100.2-29.9,127.4-50.2c20.3-15.2,40.9-33.4,104.7-92.8
		c16.3-15.1,32.2-29.3,35.4-31.5c5.6-3.9,6-4.6,13.5-18.4c14.5-27,27.8-49,33.7-55.6c1.4-1.7,5.4-7.2,8.8-12.4
		c9.5-14.4,24-33.4,35.4-46c28.4-31.8,32.9-38.2,49.6-70.5c12.3-23.8,21.2-39.2,38.3-66.5c12.5-20.1,38.4-59.5,49.2-74.8
		c5.2-7.5,7.6-11.7,9.5-17.6C1818.3,1735.8,1814.1,1713.4,1798.5,1700.8z"/>
	<path class="st27" d="M1399.2,1428.8c-0.7-0.7-144.9-47-145.7-46.7c-0.4,0.1-4.9,10.6-10.1,23.5c-5.1,12.8-11.3,26.7-13.6,31.1
		c-17.5,32.4-44.8,54.1-68.2,54.1c-0.2,0-0.3,0-0.5,0v10.7c0.8,0,1.7,0,2.6-0.1c10.2-0.5,12.5-1.5,23.3-10.1
		c17-13.4,32-16.1,36.5-6.5c0.8,1.7,1.4,3.5,1.4,4.1c0,0.5,0.5,1,1.2,1c0.6,0,2.1-2.2,3.2-4.9c2.6-6.4,8.9-12.3,15.4-14.5
		c12.7-4.2,31.4,3.1,46.5,18.3c12.1,12.1,17.1,22.2,16.3,33.6c-1.2,15.8-13.7,22.5-34.1,18.4c-19.8-4.1-34.6-14.8-42.5-31
		c-2.8-5.6-5.1-7.3-5.1-3.7c0,4.7-4.9,12.1-15.5,22.9c-5.9,6.1-11.3,12.5-12,14.2c-1.7,4.1-1.7,10.7,0.1,16.7
		c3.2,11,0,22.4-9.2,32.3c-2.7,2.9-4.9,5.7-4.9,6.1c0,0.5,0.8,1.5,1.9,2.3c2,1.7,2,4,0.3,12.2c-0.6,3-0.5,3.1,2,2.3
		c10.9-2.7,15.4-3.2,37.1-3.2c13.8,0,24.5-0.4,27-1c9.9-2.4,25.3-11.1,39.3-22.2c31.2-24.8,53.2-49.9,76.2-86.8
		c7.7-12.3,17.8-31.5,17.8-33.6c0-0.6-1.3-1.3-2.8-1.4c-1.6-0.2-3.3-1-3.9-1.9c-0.8-1.4-0.6-2,1.1-3.3c2.3-2,4.3-1.5,5.1,1
		c1.2,3.5,3,1.4,6.1-6.7C1395.2,1447.3,1399.9,1429.6,1399.2,1428.8z"/>
	<path class="st28" d="M1263.1,814.8c-3.9-11.2-14.8-35.2-20.3-44.3c-4.7-7.9-16.8-20.3-25.7-26.1c-12.8-8.5-28.8-15.4-42.6-18.3
		c-3.6-0.8-8.5-1.1-13.5-1.1v224.5c22.8-0.4,58.7-19.5,82.4-44.9C1269.1,877.1,1275.2,849.2,1263.1,814.8z"/>
	<path class="st29" d="M1265,572.8c-2.1-4.1-10.1-10.7-17-14c-12.5-5.9-28.2-10-48.5-12.6c-6.9-0.9-22.6-1.3-38.4-1.3v72.3
		c24.1,0,32.4-0.3,41.4-1.5c35.2-5,56.1-13.8,62-26.1C1266.7,584.9,1267,576.6,1265,572.8z"/>
	<path id="structure14_label5_VTg" bar:growlevel="0" bar:type="" class="st30" d="M1233,1654.9c-5.2,1.4-8.2,3.5-15.2,11.1
		c-18.5,19.8-28,47.4-21.2,61.8c3.6,7.5,15.9,11.8,33.8,11.7c13.7,0,18.1-1.5,28.6-9.3c21-15.6,26-30.8,17.1-52.1
		C1268.8,1660.7,1249.8,1650.3,1233,1654.9z"/>
	<path id="structure150_text6327_ECIC-3" bar:growlevel="0" bar:type="" class="st31" d="M1367.2,860.2c0,0.7,1,2.4,2.2,3.9
		c7.4,8.8,16.2,25.9,21.1,40.8c6.8,20.6,9.2,36.7,9.8,66.3c0.6,30.1-2,60.6-7.8,91.2c-2,10.5-2.3,14.4-0.9,14.4
		c0.5,0,4.1-2.1,7.8-4.6c8.8-6,23-12.8,32.2-15.4c10.7-3,25.3-2.8,35.1,0.5c38.3,12.7,74.2,66.1,95.4,142.2
		c10.2,36.4,18.7,81.8,21.1,112.3c0.9,11.1,0.9,14.5-0.5,23.8c-4,28.8-12.1,49.9-23.8,61.7c-3.6,3.6-7.5,6.6-10.1,7.7
		c-2.4,0.9-4.3,2.3-4.3,3c0,1,1.6,1.2,8.8,0.7c9.5-0.6,14.3-2,26.5-7.8c4.4-2.1,12.7-5,18.5-6.5c9.3-2.4,12.2-2.8,24.2-3l13.6-0.2
		l6.8-3.2c18.3-8.6,31.9-21.8,40.5-39.1c1.8-3.5,3.2-7.4,3.2-8.6s-3.1-6.8-6.8-12.4c-15.9-24.1-25-49.4-26.3-72.9
		c-0.4-7.3,0.1-13.3,1.9-26.5c4.3-32.1,5.5-51.4,4.1-70.7c-3.7-55.3-26.5-104.9-72.4-158.3c-15.8-18.4-51.5-52.7-76.1-73.5
		c-35.2-29.4-79.8-51.8-126.4-63.4C1369,858.6,1367.2,858.3,1367.2,860.2z"/>
	<path id="structure152_text6329_ECIC-2" bar:growlevel="0" bar:type="" class="st32" d="M1360.9,852.7c0.1,2.6,3.2,5.1,7.2,5.7
		c14.4,2.2,44.5,11.3,63.4,19.2c44.4,18.6,76.5,41.8,125.9,90.3c63.3,62,94.8,117.4,102,179.6c2.5,21.3,0.8,56.7-4.1,86.3
		c-1.4,8.2-1.1,26.1,0.5,35.6c2,11.8,5.9,23.7,12.1,36.5c5.8,12.3,17.5,30.9,19.4,30.9c0.6,0,1.4-0.9,1.7-2.1
		c0.3-1.1,1.5-7,2.8-13.2c2.8-13.1,2.9-9.7-2.3-62.1c-2-20.1-4.9-50.4-6.3-67.5c-2.9-32.7-5.5-55.5-7.6-65.6
		c-3.3-15.8-16.1-42.5-37.1-77.5c-17.8-29.8-27.5-42.8-49.6-66.9c-16.6-18-64.7-63-75-69.9c-13.5-9.3-69.1-41.2-90.4-52
		c-12.1-6.1-19.1-7.5-43.4-8C1364.1,851.6,1360.9,851.7,1360.9,852.7z"/>
	<path id="structure154_label146_ECIC-1" bar:growlevel="0" bar:type="" class="st33" d="M1542.7,935.6c0,0.6,7.9,8.5,17.5,17.6
		c36.5,34.2,55.7,57.7,78,95.1c25.4,42.4,35.2,63.8,38.6,83.7c1.9,11.5,4.8,36.8,6.2,54.9c1.1,13.6,8.5,91.4,9.9,103.9
		c0.5,4.2,0.9,8.2,0.9,8.7c0,0.6,0.5,1.2,1.2,1.2c0.7,0,1.6-2.2,2.3-5.7c0.6-3.1,3.3-14.7,6-25.7l4.9-20.1l-2.3-16.5
		c-1.2-9-3.2-26.2-4.5-38.2c-1.3-12.1-3.3-28-4.6-35.5c-2.3-13.3-2.8-21.7-2.1-34.1c0.4-6.8,1.4-4.9-13.2-24.2
		c-3.5-4.7-10.7-15.9-16.1-25.1c-18-30.9-41.3-65.6-57.9-86.3c-13.1-16.5-33.8-35.3-54.7-49.9
		C1545.7,934.6,1542.7,933.5,1542.7,935.6z"/>
	<path id="structure156_label154_cll" bar:growlevel="0" bar:type="" class="st9" d="M1395.1,1323.5c0,0.5,1.6,5,3.5,9.6
		c5,12.1,9.6,28.1,11.9,40.4c2.4,13.1,2.6,31.6,0.5,41.4c-1.9,8.7-1.9,9.2,0.8,9.2c1.3,0,2.6,0.7,3.2,1.9c0.8,1.6,0.6,2.3-0.8,3.7
		c-1.4,1.4-2.1,1.6-3.6,0.8c-1-0.5-2.4-1-3.1-1s-3.1,4.3-5.5,9.6c-2.3,5.4-8.5,17.6-13.7,27.3c-5.2,9.6-9.5,18-9.5,18.6
		c0,0.7,1.7,1,5.3,0.9c4.1-0.2,5.9,0.3,7.9,1.7c8.8,6.5,8.8,17.4,0.1,24.1c-3.4,2.6-9.7,5-13,5c-5.6,0-8.5-3.5-8.5-10.3
		c0-2.7-0.4-4.1-1.2-4.1c-0.5,0-4.8,5.6-9.4,12.3c-11.3,16.9-23.2,32.1-34.1,43.5c-7.3,7.6-9.6,10.6-11.6,15.3
		c-1.3,3.2-3.6,7.9-5,10.4c-3.9,6.8-3.5,8.6,1.4,6.8c1.2-0.5,11.6-2,23.2-3.2c11.5-1.3,35.5-4.1,53.4-6.3
		c52.5-6.5,67.5-7.9,75.9-7.2c4,0.3,7.4,0.2,7.4-0.2c0-0.4-1-4.3-2.3-8.6c-3.4-11.7-3.7-14.9-1.5-19.8c2.6-5.8,5.1-6.9,16.7-6.9
		c10.9,0,20.3,1.5,38,5.9c13.3,3.4,17.8,5.7,20.5,10.2c3.8,6.5,4.3,10,5.1,32.9c1.1,28.6,2.4,51.8,4.1,70.6
		c1.5,16.6,1.1,23.3-1.7,29c-4.2,8.4-11.1,8.8-33.1,2c-7.5-2.3-13.8-3.9-14.1-3.6c-0.3,0.4-0.1,2.1,0.5,4c0.5,1.8,2.4,8.3,4.1,14.3
		c4.9,16.3,6.3,28.3,5.9,46.8c-0.3,10.6-0.1,15.6,0.5,15.6c0.5,0,3.2-0.9,5.9-2c9.4-3.7,22.7-2.3,29.2,3.1c4.5,3.7,6,7.1,6,13.2
		c0.1,7.9-1.5,12.3-5.9,17.1c-4.1,4.3-8.9,13.5-10,18.6l-0.5,2.7l6.2,0.2c7.3,0.1,16.2,2.7,22,6.4c5.9,3.7,8.8,8.6,10,16.3
		c0.6,3.7,1.4,6.3,2.1,6.3c1.9,0,17.8-39.2,23.2-56.9c3.1-10.1,7.3-28.1,8.7-36.9l1.1-6.9l-3.4-7.9c-14.9-34.8-17.3-71.6-7.2-111.5
		c3.3-13,7.9-25.7,10-27.8c1.3-1.2,1.1-3.2-1-18.1c-2.1-14.1-2.9-17.7-5.6-23.4c-8.6-18.9-14.8-46.5-16.2-72.1
		c-0.7-14.3-1.9-14.8-7.4-2.5c-13,28.4-29,40-58.1,41.7c-13.1,0.8-29-0.1-36.9-2.1c-8.8-2.2-21.4-8.3-28.3-13.8
		c-10.8-8.6-26.1-28.6-26.3-34.3c-0.1-4,3.1-7,9-8.4c4.3-1.1,4.7-1.3,4.2-3.2c-0.6-2.6,1.5-6.7,4.5-8.6
		c10.3-6.8,38.4-11.3,69.3-11.3c15.6,0,29.8,1.4,52,5c7.8,1.3,14.4,2.2,14.8,1.9c0.4-0.5-5.9-47.4-6.6-48.2c-0.2-0.2-2.4,0.6-5,1.7
		c-8,3.4-13.3,4.5-23.3,4.5c-14.2,0-31-3.3-52.6-10.3c-18.6-6.1-37.8-16.9-56.3-31.6c-8.8-7.1-32.6-30.6-39.2-38.8
		C1397.6,1322.8,1395.1,1321.1,1395.1,1323.5z"/>
	<path id="structure15_label6_SPTg" bar:growlevel="0" bar:type="" class="st34" d="M1294.8,1605.5l-3.3,4.1l1.8,7.5
		c4.3,16.9,20.3,43.4,35.5,58.8c13.5,13.6,22.1,18.4,40.8,23.3c15.8,4.1,28.2,5.3,54.7,5.3c27.6,0,39.6-1.5,57.1-7.2
		c13.3-4.3,19.3-7.5,19.6-10.4c0.3-2.2-0.3-2.4-13.9-6.7c-35.3-10.8-71.6-23.6-94.8-33.3c-6.7-2.8-22-9.2-34.2-14
		c-30-12.1-48.6-21.4-54.3-27.1c-2.3-2.3-4.7-4.3-5-4.3C1298.4,1601.4,1296.6,1603.2,1294.8,1605.5z"/>
	<polygon class="st9" points="1161.1,1966.2 1161.1,1974.1 1161.1,1982.1 1161.1,1982.1 1161.1,1966.2 	"/>
	<path class="st9" d="M1247.1,1807.1c-2.1-15.9-9.6-57.1-11.8-64.3c-0.4-1.1-2.8-1.7-9.7-2.5c-10.4-1.2-19.7-3.8-24.1-6.8
		c-14.6-9.6-6.9-42.8,15.4-66.7c7.7-8.1,7.1-9.3-2.7-5.8c-6.9,2.5-20.3,5.2-25.8,5.2c-2.6,0-6.6-0.6-8.9-1.4
		c-2.3-0.7-4.2-1.3-4.4-1.1c-0.2,0.2-0.7,6.6-1.2,14.3c-0.5,7.7-1.4,15-2,16.3c-0.9,1.9-0.6,4.5,1.3,14.3c2.5,13,7.7,50.8,9.9,72.4
		c2.6,25,3.4,48.1,3,81c-0.4,29.7-0.6,34.9-3.7,62.1c-1.8,16.3-3.7,31.1-4.2,32.7c-1.3,4-7.1,8.1-12.6,8.8l-4.4,0.6v15.9l3.7,1.2
		c3.5,1,3.8,1,5.1-1.1c3-4.5,6.8-8.3,10.8-10.5c2.3-1.4,4.7-3.2,5.3-4.1c1.9-2.5,7.3-4.9,14.6-6.5c7.7-1.5,26.6-4.1,30.5-4.1
		c2.3,0,2.8-0.5,4.9-5.7C1246.6,1924.8,1252.4,1848,1247.1,1807.1z"/>
	<path id="structure162_label160_me5" bar:growlevel="0" bar:type="" class="st35" d="M1402.4,1391.8c0.7,11.3-0.6,26.6-3.3,39.9
		c-2.6,13.1-2.6,13.1-1,13.1c0.6,0,2.3-2.3,3.5-5.2c8.2-18.4,10.5-28.3,10.5-44.6v-9.9l-2.7,0.5c-1.7,0.4-3.1,0.1-4-0.7
		C1402.5,1382,1402,1383.4,1402.4,1391.8z"/>
	<path id="structure165_label89-8_TeA" bar:growlevel="0" bar:type="" class="st36" d="M2138.9,880.3
		c-18.7,16.9-53.6,47.5-118,103.5c-70.4,61.2-82.6,72.1-83,73.9c-0.2,0.9,3.4,5.6,8.5,11c25,27.3,60.2,67.3,76,86.6l5,6.1h7.3
		c9,0,31.7-2.1,49-4.6c77.4-11,146.5-35.6,190.8-67.7c10.3-7.6,18.9-15.2,18.9-16.9c0-2.8-8.6-23.6-16.6-40
		c-16-33-35.5-63.2-62.7-97.2c-20.6-25.7-57.7-67.1-60-67.1C2153.1,868,2146.4,873.5,2138.9,880.3z"/>
	<path id="structure167_Unlabeled-2380-1315_Unlabeled" bar:growlevel="0" bar:type="" class="st37" d="M1679.8,1355.4
		c-4.1,7.1-13,16.8-20.3,22.5c-5.8,4.4-18.2,11.3-23.5,13c-1.9,0.5-3.4,1.5-3.4,2.1c0,2.9,11.6,92.6,12,93.1
		c0.3,0.3,3.2-0.5,6.7-1.8c16.6-6.3,27-7.2,43.1-3.8l2.9,0.6l-0.5-9.8c-0.5-11.3,0.7-19.3,5.7-34.6c4.1-12.8,4.1-12.5-1.9-12.5
		c-6,0-8.4-1.9-11.7-9.3c-4-8.6-5.2-19.6-4.6-39.3c0.3-9.6,0.8-19.4,1.1-21.9C1686.2,1347.5,1684.1,1348.1,1679.8,1355.4z"/>
	<path id="structure168_Unlabeled-2048-1464_Unlabeled" bar:growlevel="0" bar:type="" class="st37" d="M1380.7,1486
		c-2.8,0.4-3.5,1.1-6.9,6.9c-3.5,6.2-3.7,6.9-3.3,11.9c0.8,9.1,3.1,12.1,8.8,12.1c3.2,0,9.5-2.4,13-5c8.6-6.7,8.7-17.6,0.2-23.9
		C1389.8,1486.1,1385.6,1485.3,1380.7,1486z"/>
	<path id="structure170_Unlabeled-2475-1472_Unlabeled" bar:growlevel="0" bar:type="" class="st37" d="M1766,1493.4
		c-6.7,2.7-6.1,23.6,1.3,47.1c4,12.6,9.1,20.6,14.8,23.7c3.4,1.7,8.7,1.6,12.5-0.4c9.8-5.1,8-20.6-5.5-47.9
		c-6.4-12.9-11.9-20.2-16.7-22.1C1769.1,1492.4,1768.8,1492.4,1766,1493.4z"/>
	<path id="structure172_Unlabeled-2148-1523_Unlabeled" bar:growlevel="0" bar:type="" class="st37" d="M1471,1540.2
		c-3.8,2.3-6.2,8.6-5.4,13.8c0.6,4,3.6,15,7.3,27.3c4.4,14.5,26.5,98.6,26.5,100.8c0,1.3,0.2,2.3,0.5,2.3c0.2,0,7.1,2.1,15.4,4.5
		c23.5,7.2,30,6.8,34.3-1.6c2.8-5.7,3.2-12.4,1.7-29c-1.7-18.8-3.1-42-4.1-70.6c-0.8-22.9-1.3-26.5-5.1-32.9
		c-2.7-4.5-7.2-6.8-20.5-10.2c-17.7-4.5-27.1-5.9-38.2-5.9C1475.5,1538.4,1473.3,1538.8,1471,1540.2z"/>
	<path id="structure174_Unlabeled-1943-1604_Unlabeled" bar:growlevel="0" bar:type="" class="st37" d="M1285.3,1615.5
		c-12.2,12.4-29.3,25.8-41.6,32.6c-3.4,1.8-6.1,3.8-6.1,4.2c0,0.5,3.4,1.4,7.7,2c14.2,2,25.3,10.5,30.9,23.8
		c7.1,17.1,5.3,29.9-6,42.4c-2.5,2.7-4.6,5.5-4.6,6.1c0,0.7,1.4,5.5,3.1,10.7c1.6,5.2,3.7,12.6,4.6,16.4c1.1,4.6,2.1,7,3,7
		c0.6,0,4.2-3.2,8-7.2c10.6-11.3,23.7-19,42.6-25c25.1-8,53.6-9.9,89.1-5.9c40.1,4.5,68.5,17.6,87.2,40.3c3.4,4,5.6,5.9,6.9,5.9
		c1.9,0,2.1-0.5,2.6-8.7c1-12.6-0.1-33.5-2.1-43.1c-2.9-13.4-7.5-27.4-9-27.4c-0.7,0-3.8,1.2-6.8,2.6c-8.5,4-21.5,7.8-34.3,10.1
		c-10.3,1.8-14.7,2.1-36,2.1c-26.5,0-38.9-1.2-54.7-5.3c-18.7-4.9-27.3-9.7-40.8-23.3c-14.9-15.1-31.4-42.2-35.3-58
		c-1.1-4.5-2-6.5-2.9-6.5C1289.9,1611.3,1287.4,1613.2,1285.3,1615.5z"/>
	<path id="structure176_Unlabeled-2163-1975_Unlabeled" bar:growlevel="0" bar:type="" class="st37" d="M1483.3,1947.1
		c-32.9,16.8-86.9,25.4-142.6,22.5c-18-0.9-27.4-1.7-50.7-4.3c-6.7-0.7-6.3,1.2,0.9,5.3c12.9,7.5,92.4,73.9,92.4,77.2
		c0,1.2,1.1,1.7,3.9,2.2c6.8,1,19.5,5.2,19.5,6.6c0,0.7,1.1,1.2,2.9,1.2c3.2,0,28.5,12.8,40.1,20.3c4,2.7,8,4.9,8.7,4.9
		c1.2,0,1.3-2.3,1.3-13.5c0-29.3,8.3-73.3,18.2-96.3c2.4-5.7,6.4-14.1,8.8-18.7c2.5-4.6,4.5-8.7,4.5-9.2
		C1491.4,1943.8,1488.5,1944.4,1483.3,1947.1z"/>
	<path id="structure20_label11_Pn" bar:growlevel="0" bar:type="" class="st38" d="M1173,2135.8c0.3,63.8,0.7,91.7,1.4,94
		c2.6,8.4,8.6,13.1,31.6,24.9c51.8,26.7,88.8,31.5,132.8,17.1c11.6-3.8,33.3-14.7,45.9-23c32-21.1,83.8-68.8,108-99.3
		c10.1-12.6,13.4-16.1,25.1-25.8c10.8-9.1,14.9-13,14.9-14.3c0-0.7-2.6-0.9-9.6-0.6c-8.4,0.4-11,0.2-18.9-1.8
		c-16.7-4.1-38-14-41.3-19.1c-2.1-3.2-18.7-13.7-35.8-22.5l-15.1-7.9l-14.6,0.6c-13.7,0.5-27.1,1.7-33.6,2.9c-2.7,0.5-3,0.9-3,3.8
		c0,4.8-3.2,10.4-8.4,15.1c-17.5,15.6-105.2,66.1-127.8,73.7c-7.7,2.6-16.3,3-19.2,0.9c-2.8-1.9-4.7-6.5-6.7-15.9
		c-5.5-26.6-4.4-48.1,3.2-65.1c2.4-5.4,10.2-16.5,13.8-19.7c4.1-3.8,1.7-5-6.2-3.1c-9.8,2.3-25,0.5-32-3.8c-1.5-0.9-3.3-1.7-4-1.7
		C1172.8,2045.1,1172.7,2063.9,1173,2135.8z M1414.4,2078.4c13.1,4.1,23.2,11.4,27.4,20.1c1.5,3.1,2.2,6.5,2.5,13
		c0.5,10.1-1.4,19.8-6,29.7c-7,15.1-24.3,35.2-34.5,40c-13.5,6.6-47.2,9.1-102.3,7.7c-51.5-1.3-74.4-6.2-77-16.7
		c-1.7-6.5,13.4-16.5,62.2-41c9.5-4.8,24.8-13.1,34.2-18.6c57.5-33.8,65.3-37.4,80.1-36.5C1404.9,2076.4,1411,2077.5,1414.4,2078.4z
		"/>
	<path id="structure21_label13_VLL" bar:growlevel="0" bar:type="" class="st39" d="M1609.4,1760.9c-4.1,22.2-12.2,46.6-25.6,77.6
		c-3.6,8.5-7.3,18.4-8.1,22.2c-1.8,8.1-6.8,17-11.5,20.9c-2.6,2.1-5,6.1-10.5,17.2c-9.5,19.2-16,30-30.7,50.4
		c-30.4,42.8-35,56.6-22.9,68.4c6.7,6.5,17.7,9.6,34.6,9.8c14.8,0.2,23.5-2.3,32.1-9.2c5.9-4.7,8.5-9.5,19.9-36.1
		c18.3-42.7,34.9-74,76.2-143.6c26.6-44.7,33.8-57.1,33.8-58.1c0-1.3-2.3-0.7-10.2,2.3c-15.8,6-30.3,4.5-46.3-4.9
		c-6.1-3.6-19.3-16.5-23.7-23c-1.7-2.6-3.6-4.8-4-4.8C1611.9,1749.9,1610.5,1754.9,1609.4,1760.9z"/>
	<path id="structure22_label14_A7" bar:growlevel="0" bar:type="" class="st40" d="M1521.3,1763.9c-10.8,3.3-16.5,9.7-16.5,18.5
		c0,3.2,0.6,5.9,1.8,7.7c6.8,11.2,29.8,15.8,40.8,8.2c5.4-3.8,8.6-16.7,6.1-24.4C1550.5,1764.9,1534.3,1759.8,1521.3,1763.9z"/>
	<path id="structure23_label15_ILL" bar:growlevel="0" bar:type="" class="st41" d="M1690.8,1657.7c-15.2,2.9-33.5,10.4-43.5,18
		c-19,14.2-32.4,39.2-35,65.1c-0.6,6.5-0.5,6.6,2.8,11.7c5.1,7.7,10.7,14,17.5,19.5c19.3,15.8,40.9,18.2,62,6.8c5-2.7,5.2-3,14-18.4
		c17.9-31.7,26.5-50.6,28.5-62c0.6-3.4,1-9.9,0.7-14.5c-0.4-9.7-3.3-17-8.4-20.9C1722.1,1657.4,1704.8,1655.1,1690.8,1657.7z"/>
	<path id="structure24_label16_rLL" bar:growlevel="0" bar:type="" class="st42" d="M1710.8,1419.9c-3.9,3.5-4.4,4.6-7.7,15
		c-4.8,14.9-6.5,23.5-6.5,32.9c0,10.4,1.2,12.8,8.9,17.4c13.6,8.1,26.8,27,30.3,43.2c1.5,7.2,1.7,32.7,0.4,45.9
		c-1.5,14.5-4.5,24.6-11.3,37.7c-13.8,27.2-23,36.8-39.6,41.1c-6.1,1.6-27.8,4.1-35.5,4.1c-11.7-0.1-21.8-4.5-26.3-11.5
		c-3.6-5.7-5.5-12.2-8.5-30.2c-2-11.4-2.9-15-3.9-14.8c-1.7,0.4-6.8,14-10.1,26.7c-8.3,33.2-8.1,65.3,0.6,94.6
		c3.1,10.5,7.5,20.7,8.8,20.7c0.7,0,1.5-2.7,2.3-7.5c4.4-29,22.4-55,46.4-67.1c8.5-4.1,21.8-8.8,30.2-10.5
		c10.5-2.2,25.3-1.5,32.8,1.3c12.9,4.9,18.5,17.7,15.8,36.2c-2.6,18.1-15,41.9-70.7,136.2c-32.1,54.4-32.7,55.3-44.8,77.6
		c-14.9,27.3-22.7,43-33.8,68.9c-13.5,31.5-14.3,32.9-19.4,38.2c-10.9,10.9-29.3,14.7-50.5,10.3c-12.3-2.5-18.5-6.3-22.9-13.9
		c-4.2-7.6-3.5-12.5,4-27.5c5-9.9,8.2-14.9,22.3-34.8c6.3-9,13.7-19.8,16.3-23.9c5.1-8.1,19.5-35.8,19.5-37.5c0-1.3-2.8-1.3-6.6,0.4
		c-5.7,2.3-16.3,4.9-23.1,5.7l-6.8,0.6l-4.6,6.8c-9.7,14.2-31.9,54.6-38.9,71.1c-9.6,22.4-18.2,67.1-18.2,94.7c0,18.4,1.3,21,15,28
		c22.9,11.7,48.1,16.1,59.6,10.4c4.7-2.3,8.6-8,34.5-48.9c36.7-58.1,55.5-90.5,61.6-106.2c30.3-78.4,44.3-106.8,78.8-159.8
		c21.1-32.4,33.8-61.7,40-91.8c2.5-12,2.5-12.5,2.2-37.8c-0.4-30.2-0.4-58.7,0-95.4c0.3-21.9,0.1-28.3-1.2-36.1c-1-6-6.5-26-14.9-54
		c-7.3-24.5-14.3-48-15.5-52.4c-1.5-5.5-2.5-7.8-3.5-7.8C1715.6,1416.1,1713.1,1417.8,1710.8,1419.9z"/>
	<path id="structure25_label17_MPL" bar:growlevel="0" bar:type="" class="st43" d="M1395.1,1323.5c0,0.5,1.6,5,3.5,9.6
		c5,12.1,9.6,28.1,11.9,40.4c2.4,13.1,2.6,31.6,0.5,41.4c-1.9,8.7-1.9,9.2,0.8,9.2c1.3,0,2.6,0.7,3.2,1.9c0.8,1.6,0.6,2.3-0.8,3.7
		c-1.4,1.4-2.1,1.6-3.6,0.8c-1-0.5-2.4-1-3.1-1s-3.1,4.3-5.5,9.6c-2.3,5.4-8.5,17.6-13.7,27.3c-5.2,9.6-9.5,18-9.5,18.6
		c0,0.7,1.7,1,5.3,0.9c4.1-0.2,5.9,0.3,7.9,1.7c8.8,6.5,8.8,17.4,0.1,24.1c-3.4,2.6-9.7,5-13,5c-5.6,0-8.5-3.5-8.5-10.3
		c0-2.7-0.4-4.1-1.2-4.1c-0.5,0-4.8,5.6-9.4,12.3c-11.3,16.9-23.2,32.1-34.1,43.5c-7.3,7.6-9.6,10.6-11.6,15.3
		c-1.3,3.2-3.6,7.9-5,10.4c-3.9,6.8-3.5,8.6,1.4,6.8c1.2-0.5,11.6-2,23.2-3.2c11.5-1.3,35.5-4.1,53.4-6.3
		c52.5-6.5,67.5-7.9,75.9-7.2c4,0.3,7.4,0.2,7.4-0.2c0-0.4-1-4.3-2.3-8.6c-3.4-11.7-3.7-14.9-1.5-19.8c2.6-5.8,5.1-6.9,16.7-6.9
		c10.9,0,20.3,1.5,38,5.9c13.3,3.4,17.8,5.7,20.5,10.2c3.8,6.5,4.3,10,5.1,32.9c1.1,28.6,2.4,51.8,4.1,70.6
		c1.5,16.6,1.1,23.3-1.7,29c-4.2,8.4-11.1,8.8-33.1,2c-7.5-2.3-13.8-3.9-14.1-3.6c-0.3,0.4-0.1,2.1,0.5,4c0.5,1.8,2.4,8.3,4.1,14.3
		c4.9,16.3,6.3,28.3,5.9,46.8c-0.3,10.6-0.1,15.6,0.5,15.6c0.5,0,3.2-0.9,5.9-2c9.4-3.7,22.7-2.3,29.2,3.1c4.5,3.7,6,7.1,6,13.2
		c0.1,7.9-1.5,12.3-5.9,17.1c-4.1,4.3-8.9,13.5-10,18.6l-0.5,2.7l6.2,0.2c7.3,0.1,16.2,2.7,22,6.4c5.9,3.7,8.8,8.6,10,16.3
		c0.6,3.7,1.4,6.3,2.1,6.3c1.9,0,17.8-39.2,23.2-56.9c3.1-10.1,7.3-28.1,8.7-36.9l1.1-6.9l-3.4-7.9c-14.9-34.8-17.3-71.6-7.2-111.5
		c3.3-13,7.9-25.7,10-27.8c1.3-1.2,1.1-3.2-1-18.1c-2.1-14.1-2.9-17.7-5.6-23.4c-8.6-18.9-14.8-46.5-16.2-72.1
		c-0.7-14.3-1.9-14.8-7.4-2.5c-13,28.4-29,40-58.1,41.7c-13.1,0.8-29-0.1-36.9-2.1c-8.8-2.2-21.4-8.3-28.3-13.8
		c-10.8-8.6-26.1-28.6-26.3-34.3c-0.1-4,3.1-7,9-8.4c4.3-1.1,4.7-1.3,4.2-3.2c-0.6-2.6,1.5-6.7,4.5-8.6
		c10.3-6.8,38.4-11.3,69.3-11.3c15.6,0,29.8,1.4,52,5c7.8,1.3,14.4,2.2,14.8,1.9c0.4-0.5-5.9-47.4-6.6-48.2c-0.2-0.2-2.4,0.6-5,1.7
		c-8,3.4-13.3,4.5-23.3,4.5c-14.2,0-31-3.3-52.6-10.3c-18.6-6.1-37.8-16.9-56.3-31.6c-8.8-7.1-32.6-30.6-39.2-38.8
		C1397.6,1322.8,1395.1,1321.1,1395.1,1323.5z"/>
	<path id="structure26_label18_DLL" bar:growlevel="0" bar:type="" class="st44" d="M1670.9,1478.7c-32.7,5.3-56.2,26.7-63.1,57.6
		c-1.7,7.8-1.4,18.1,1.1,37.5c2.5,19.7,9.3,57.9,11.3,64c2.4,7.3,8,14,13.6,16.3c8,3.3,36.5,2.5,51.8-1.4
		c16.7-4.2,26.2-14.3,40.7-43.6c8.2-16.6,10.2-28.6,9.7-60.4l-0.3-22.4l-2.8-6.8c-5.4-13.3-16.9-27.8-26.9-33.7c-3-1.8-8-4.1-11.2-5
		C1689.1,1479,1676.1,1477.9,1670.9,1478.7z"/>
	<path id="structure27_label19_CnFV" bar:growlevel="0" bar:type="" class="st45" d="M1438.9,1467.6c-7.7,2.3-9.6,6.2-6.3,12.6
		c2.5,4.9,11.1,16.1,16.8,22.1c10.6,11,21.6,17.4,36.4,21.2c10.5,2.6,38.7,2.8,50.6,0.4c14.6-3.2,25.5-10.1,33.8-21.7
		c4-5.6,13.1-23.2,13.1-25.5c0-0.9-2.7-1.2-12.8-1.2c-16.7,0-32.8-1.2-71.8-4.9C1459.5,1466.6,1444.8,1466,1438.9,1467.6z"/>
	<path id="structure28_label20_CnFI" bar:growlevel="0" bar:type="" class="st46" d="M1505.3,1444.5c-35,2.6-50.4,5.9-57.7,12.3
		c-2.7,2.3-3.2,3.2-2.9,5.9l0.3,3.2l13,0.6c7.2,0.4,23.2,1.6,35.5,2.9c35.9,3.7,41.4,4.1,63,5c31.2,1.4,54.6-0.7,59.3-5.4
		c6.3-6.2-10.1-13.5-43.6-19.3C1547,1445.5,1520.5,1443.3,1505.3,1444.5z"/>
	<path id="structure29_label21_CnFD" bar:growlevel="0" bar:type="" class="st47" d="M1395.1,1323.5c0,0.5,1.6,5,3.5,9.6
		c5,12.1,9.6,28.1,11.9,40.4c2.4,13.1,2.6,31.6,0.5,41.4c-1.9,8.7-1.9,9.2,0.8,9.2c1.3,0,2.6,0.7,3.2,1.9c0.8,1.6,0.6,2.3-0.8,3.7
		c-1.4,1.4-2.1,1.6-3.6,0.8c-1-0.5-2.4-1-3.1-1s-3.1,4.3-5.5,9.6c-2.3,5.4-8.5,17.6-13.7,27.3c-5.2,9.6-9.5,18-9.5,18.6
		c0,0.7,1.7,1,5.3,0.9c4.1-0.2,5.9,0.3,7.9,1.7c8.8,6.5,8.8,17.4,0.1,24.1c-3.4,2.6-9.7,5-13,5c-5.6,0-8.5-3.5-8.5-10.3
		c0-2.7-0.4-4.1-1.2-4.1c-0.5,0-4.8,5.6-9.4,12.3c-11.3,16.9-23.2,32.1-34.1,43.5c-7.3,7.6-9.6,10.6-11.6,15.3
		c-1.3,3.2-3.6,7.9-5,10.4c-3.9,6.8-3.5,8.6,1.4,6.8c1.2-0.5,11.6-2,23.2-3.2c11.5-1.3,35.5-4.1,53.4-6.3
		c52.5-6.5,67.5-7.9,75.9-7.2c4,0.3,7.4,0.2,7.4-0.2c0-0.4-1-4.3-2.3-8.6c-3.4-11.7-3.7-14.9-1.5-19.8c2.6-5.8,5.1-6.9,16.7-6.9
		c10.9,0,20.3,1.5,38,5.9c13.3,3.4,17.8,5.7,20.5,10.2c3.8,6.5,4.3,10,5.1,32.9c1.1,28.6,2.4,51.8,4.1,70.6
		c1.5,16.6,1.1,23.3-1.7,29c-4.2,8.4-11.1,8.8-33.1,2c-7.5-2.3-13.8-3.9-14.1-3.6c-0.3,0.4-0.1,2.1,0.5,4c0.5,1.8,2.4,8.3,4.1,14.3
		c4.9,16.3,6.3,28.3,5.9,46.8c-0.3,10.6-0.1,15.6,0.5,15.6c0.5,0,3.2-0.9,5.9-2c9.4-3.7,22.7-2.3,29.2,3.1c4.5,3.7,6,7.1,6,13.2
		c0.1,7.9-1.5,12.3-5.9,17.1c-4.1,4.3-8.9,13.5-10,18.6l-0.5,2.7l6.2,0.2c7.3,0.1,16.2,2.7,22,6.4c5.9,3.7,8.8,8.6,10,16.3
		c0.6,3.7,1.4,6.3,2.1,6.3c1.9,0,17.8-39.2,23.2-56.9c3.1-10.1,7.3-28.1,8.7-36.9l1.1-6.9l-3.4-7.9c-14.9-34.8-17.3-71.6-7.2-111.5
		c3.3-13,7.9-25.7,10-27.8c1.3-1.2,1.1-3.2-1-18.1c-2.1-14.1-2.9-17.7-5.6-23.4c-8.6-18.9-14.8-46.5-16.2-72.1
		c-0.7-14.3-1.9-14.8-7.4-2.5c-13,28.4-29,40-58.1,41.7c-13.1,0.8-29-0.1-36.9-2.1c-8.8-2.2-21.4-8.3-28.3-13.8
		c-10.8-8.6-26.1-28.6-26.3-34.3c-0.1-4,3.1-7,9-8.4c4.3-1.1,4.7-1.3,4.2-3.2c-0.6-2.6,1.5-6.7,4.5-8.6
		c10.3-6.8,38.4-11.3,69.3-11.3c15.6,0,29.8,1.4,52,5c7.8,1.3,14.4,2.2,14.8,1.9c0.4-0.5-5.9-47.4-6.6-48.2c-0.2-0.2-2.4,0.6-5,1.7
		c-8,3.4-13.3,4.5-23.3,4.5c-14.2,0-31-3.3-52.6-10.3c-18.6-6.1-37.8-16.9-56.3-31.6c-8.8-7.1-32.6-30.6-39.2-38.8
		C1397.6,1322.8,1395.1,1321.1,1395.1,1323.5z"/>
	<path class="st27" d="M1399.2,1428.8c-0.7-0.7-144.9-47-145.7-46.7c-0.4,0.1-4.9,10.6-10.1,23.5c-5.1,12.8-11.3,26.7-13.6,31.1
		c-17.5,32.4-44.8,54.1-68.2,54.1c-0.2,0-0.3,0-0.5,0v10.7c0.8,0,1.7,0,2.6-0.1c10.2-0.5,12.5-1.5,23.3-10.1
		c17-13.4,32-16.1,36.5-6.5c0.8,1.7,1.4,3.5,1.4,4.1c0,0.5,0.5,1,1.2,1c0.6,0,2.1-2.2,3.2-4.9c2.6-6.4,8.9-12.3,15.4-14.5
		c12.7-4.2,31.4,3.1,46.5,18.3c12.1,12.1,17.1,22.2,16.3,33.6c-1.2,15.8-13.7,22.5-34.1,18.4c-19.8-4.1-34.6-14.8-42.5-31
		c-2.8-5.6-5.1-7.3-5.1-3.7c0,4.7-4.9,12.1-15.5,22.9c-5.9,6.1-11.3,12.5-12,14.2c-1.7,4.1-1.7,10.7,0.1,16.7
		c3.2,11,0,22.4-9.2,32.3c-2.7,2.9-4.9,5.7-4.9,6.1c0,0.5,0.8,1.5,1.9,2.3c2,1.7,2,4,0.3,12.2c-0.6,3-0.5,3.1,2,2.3
		c10.9-2.7,15.4-3.2,37.1-3.2c13.8,0,24.5-0.4,27-1c9.9-2.4,25.3-11.1,39.3-22.2c31.2-24.8,53.2-49.9,76.2-86.8
		c7.7-12.3,17.8-31.5,17.8-33.6c0-0.6-1.3-1.3-2.8-1.4c-1.6-0.2-3.3-1-3.9-1.9c-0.8-1.4-0.6-2,1.1-3.3c2.3-2,4.3-1.5,5.1,1
		c1.2,3.5,3,1.4,6.1-6.7C1395.2,1447.3,1399.9,1429.6,1399.2,1428.8z"/>
	<path id="structure31_label23_LDTg" bar:growlevel="0" bar:type="" class="st48" d="M1243.1,1471.1c-4.7,1.3-12.1,9.3-14,15
		c-6.8,20.8,12.1,46.2,39.9,53.3c7.5,1.9,20.2,2.3,25.6,0.8c12.9-3.6,16.8-20.4,8.5-36.4c-3.5-6.8-18.6-22.1-26.3-26.6
		C1265.8,1470.8,1252.5,1468.3,1243.1,1471.1z"/>
	<path class="st49" d="M1221.4,1482.4c-2.3-2.7-3-2.9-8.3-2.9c-7.5,0-16.3,4.1-27.3,12.9c-9.8,7.8-14.2,9.6-24.7,9.5v42.3
		c9.4-0.1,18.7,0.6,25.8,2.2c11,2.3,10.2,2.3,10.2,0.4c0-2.9,5-9.4,14-18.6c11.2-11.3,14-16.3,14.6-25.6
		C1226.2,1493.4,1224.6,1486,1221.4,1482.4z"/>
	<path class="st50" d="M1198.1,1559.7c-1.1-4-1.9-7.9-1.9-8.8c0-0.9-0.9-2-2.1-2.4c-4.7-1.8-21.5-3.7-33-4.2v85.8
		c0.9,0.4,1.7-0.8,2.1-4c0.7-5.5,4.8-14.2,8.7-18.7c1.7-1.9,5.9-5.6,9.5-8.2C1196.8,1587.7,1202.1,1575.1,1198.1,1559.7z"/>
	<path class="st51" d="M1250.6,1291.1c-4.1-17.3-7-23.1-15.7-31.7c-7.4-7.4-13.3-11.5-30.2-21.2c-13.6-7.7-18.6-12.7-23.9-23.2
		c-5.3-10.7-6.7-11.6-17.3-11.9c-0.8,0-1.6,0-2.4-0.1v286.6c2.6,0,5.1-0.1,7.3-0.5c18.3-3.1,39.1-19.3,54.1-42
		c6.8-10.3,10.3-17.7,20.7-43.6c12.4-30.8,15.1-39.3,15.7-48.9C1259.8,1339.8,1256.8,1317.4,1250.6,1291.1z"/>
	<path id="structure35_label27_LPAG" bar:growlevel="0" bar:type="" class="st52" d="M1282.7,1180c-10,20.8-25.1,39.6-47.6,59.1
		c-5,4.4-9.2,8.7-9.2,9.5s2.3,3.4,5.2,5.7c10.8,8.5,15.8,17.2,20.3,35.8c6.2,25.4,8.6,42,8.6,59.3c0,9.4-0.3,11.3-3.3,21
		c-1.8,5.8-3.1,10.7-2.9,10.9c0.5,0.5,143.6,46.4,144.7,46.4c0.5,0,1.2-0.9,1.4-2.1c1.1-4.8,2.3-19,2.3-28.4
		c0-8.4-0.3-10.1-1.3-10.1c-0.7,0-1.4,0.6-1.4,1.3c0,2.4-3.2,3.3-5.4,1.5c-1.7-1.4-1.9-2-1-3.6c1.1-2.1,4-2.7,5-1.1
		c0.3,0.4,1.2,0.9,1.9,0.9c1.6,0,1.6-2.3-0.2-16l-1.5-11l-3.5,0.2c-2.6,0.2-3.9-0.2-4.7-1.4c-1.5-2.4,0.5-4.8,3.9-4.4
		c2.1,0.1,2.8-0.2,2.8-1.3c0-2.3-4.3-21-7.7-33.4c-3.5-12.8-4-13.8-22.5-39.4c-6-8.5-14.8-21.3-19.6-28.6
		c-13.3-20.4-28-39.3-51.2-66.2c-4.3-5-8.6-9.2-9.5-9.2C1285.4,1175.7,1283.9,1177.4,1282.7,1180z"/>
	<path id="structure36_text3189_MEnt" bar:growlevel="0" bar:type="" class="st53" d="M2079.1,1582.2c-12.7,5.3-34.2,9.9-50.9,10.9
		l-9.2,0.5l-0.5,11.3c-0.3,6.2-1.2,35.2-2,64.3c-1.2,41.9-1.3,53.1-0.4,53.6c3.6,2.3,39.4,2.6,52.4,0.5c9.3-1.5,20.6-4.8,28.5-8.3
		l4.9-2.2l-0.5-3.6c-0.3-2-3.9-31.9-7.9-66.6c-4.5-37.6-7.9-63-8.5-62.9C2084.5,1580,2081.8,1581,2079.1,1582.2z"/>
	<path id="structure37_text3191_MEnt" bar:growlevel="0" bar:type="" class="st53" d="M2022,1478.3c-0.3,2.6-0.9,22.1-1.4,43.5
		c-0.5,21.2-1.2,46.1-1.5,55.2l-0.5,16.6l7.6-0.6c19.7-1.5,36.4-4.9,51.5-10.3c6.3-2.3,7.8-3.2,7.8-4.7c0-1.9-10.4-90.3-11.3-96.4
		c-0.6-3.9-1.3-4.1-8.9-1.6c-12.7,4-21.3,3.2-34-3.1c-3.5-1.7-6.8-3.1-7.5-3.1C2022.9,1473.6,2022.3,1475.4,2022,1478.3z"/>
	<path id="structure38_text3193_MEnt" bar:growlevel="0" bar:type="" class="st53" d="M2030.5,1172.8c0,2.9-1.8,68.8-4,146.5
		c-2.3,77.7-4.1,143.8-4.1,147c0,5.4,0.1,5.7,3,7.4c7,4.3,16.4,7.6,23,7.9c6.9,0.4,15.3-0.8,21.1-3.2c3.1-1.3,3.4-1.7,3.4-4.7
		c0-1.8-7.9-69.4-17.6-150.2c-9.6-80.8-17.5-147.5-17.5-148.1c0-1.6-4.8-7.6-6-7.7C2030.8,1167.6,2030.5,1169.3,2030.5,1172.8z"/>
	<path id="structure41_label30_DLEnt" bar:growlevel="0" bar:type="" class="st54" d="M2183.2,1391.9c-0.6,13.3-2,19.5-10.2,45.3
		c-18.6,58.8-27.5,80.1-42,101.9c-10.5,15.8-26.3,30.8-39.8,37.7c-4.7,2.4-5,2.8-4.7,5.3c0.2,1.4,3.8,31.3,7.9,66.3
		c5,41.9,7.9,63.7,8.6,63.7c2,0,18.9-12,27.4-19.3c15.3-13.5,35.2-34.6,45.6-48.6c26.6-35.5,47.4-88.6,60.6-154.1l3.6-18.2l-3.9-6.6
		c-2.2-3.6-9.4-15.7-15.9-26.8c-20.8-35.1-34.3-56.7-35.5-56.7C2184,1381.8,2183.6,1384.5,2183.2,1391.9z"/>
	<path id="structure42_label31_PRh" bar:growlevel="0" bar:type="" class="st55" d="M2092.6,1243.4c0,0.6,4.3,7,9.6,14.2
		c23.8,32.3,53.5,76.1,78.6,115.6c12.2,19.4,54.2,88.8,56,92.8c0.5,1.2,1.7,2.2,2.5,2.2c1.2,0,1.9-2.8,4-15.8
		c5-32.2,8.6-41.5,22.7-57.5c10.3-11.7,20.2-25.6,20.2-28.3c0-1.3-3.1-4.4-10.3-10.3c-34.5-28.1-97.2-68.5-159.6-102.8
		C2096.5,1242.7,2092.6,1241.1,2092.6,1243.4z"/>
	<path id="structure43_label32_Ect" bar:growlevel="0" bar:type="" class="st56" d="M2286.1,1080c-16.6,14.3-49.5,33.4-76.6,44.3
		c-50.9,20.6-108.3,33.1-171.5,37.6c-4.6,0.3-8.4,0.9-8.4,1.4s4.4,6.2,9.7,12.8c10.1,12.2,30.9,38.8,42,53.5l6.3,8.3l15.3,8.3
		c67.4,36.1,142.1,84,176.7,113.1c3.6,3.1,7.2,5.5,8,5.3c1.9-0.4,10.1-15.8,14.6-27.4c11.5-29.5,17.1-63.5,17.8-108.4
		c0.6-38-1.4-63.2-7.9-94c-4.2-20.7-16.5-60.8-18.4-60.7C2293.3,1074.1,2289.8,1076.8,2286.1,1080z"/>
	<path id="structure44_text3163_PaS" bar:growlevel="0" bar:type="" class="st57" d="M1754.9,1013.5c-5.7,6.5-11.2,26-19.7,70.5
		c-7.8,40.5-9.8,58.4-9.8,88.2c0,16,1.2,28.5,3.2,35.4c1,3.2,5.9,7.7,9,8.4c4.3,0.8,7.8-0.9,12.6-6.3c4.2-4.6,16.4-24.5,22.4-36.5
		c11.4-22.9,20.4-55.3,24.3-87.8c2.3-19.1,1.2-27-6.1-41.4C1780.5,1023.5,1760.7,1006.8,1754.9,1013.5z"/>
	<path id="structure45_label35_PaS" bar:growlevel="0" bar:type="" class="st57" d="M1774.9,909.2c0,0.4-4.9,23.6-10.8,51.5
		c-5.9,27.9-10.8,51-10.8,51.5c0,0.4,1.7,0.5,3.9,0.2c2.8-0.4,4.8-0.1,7,1c11.6,5.9,25.6,24.3,31.5,41.3c2.2,6,2.6,8.8,2.6,15.9
		c0,20.1-7,55.3-15.9,79.9c-7.8,21.7-23.6,50.4-33.1,60.1c-4.9,5.1-5.8,5.7-9.1,5.7c-5.4,0-10.3-4-12.1-9.9
		c-1.7-5.5-3.6-21.8-3.6-30.9c0-6.6-0.3-8.7-1.2-8.7c-0.8,0-3.4,10.5-8.6,34.8l-7.3,34.9l2.2,14c1.3,7.6,3.1,18.2,4.1,23.4
		c4.1,20.8,11.6,45.4,13.9,44.8c2.9-0.7,22.1-25.7,30.4-39.6c16.7-28.1,29.8-68.6,33-102c0.7-8.1,1.4-10.5,3.6-14.5
		c1.4-2.6,26.9-33.8,56.7-69.2c29.7-35.5,54-65.2,54-66.1c0-3.1-56.3-57.2-91.8-88.2C1782.9,912.2,1774.9,906,1774.9,909.2z"/>
	<path id="structure46_label36_V2L" bar:growlevel="0" bar:type="" class="st58" d="M1989.8,737.2
		c-40.4,44.9-135.5,156.1-167.6,196.2c-2.9,3.6-5,7-4.9,7.7c0.2,0.6,5,5.4,10.6,10.5c24.3,21.9,48.2,44.9,77.1,74.2
		c16.9,17.1,31.1,31.1,31.4,31.1c0.3,0,2.1-1.3,3.9-3c1.9-1.5,19.3-16.8,38.9-33.9c19.5-17.1,55.7-48.7,80.4-70.2
		c69.7-60.7,93.2-81.8,93.2-83.6c0-3.1-70.9-75.9-95.4-97.9c-23.8-21.3-51.7-43.5-55-43.5C2001.6,724.8,1996.1,730.2,1989.8,737.2z"
		/>
	<path id="structure47_label37_V1B" bar:growlevel="0" bar:type="" class="st59" d="M1790,617.1c-9.5,18.7-28.2,53.1-68.2,125.3
		c-44.6,80.4-47.9,86.6-47.5,88.1c0.2,0.7,9.2,7.5,20.1,15c39.7,27.4,67,48.8,118.3,92.3c1.3,1.1,2.8,2,3.2,2.1
		c0.5,0,3.8-3.5,7.2-7.9c26.6-33.5,137.7-163.3,168.9-197.5c4.9-5.2,8.8-10.1,8.8-10.8c-0.1-1.3-4.2-4.2-30.6-21.4
		c-32.9-21.4-73.9-46.1-113.4-68.1c-29.8-16.7-56.6-30.9-58.3-30.9C1797.4,603.3,1794.8,607.6,1790,617.1z"/>
	<path id="structure48_label38_Post" bar:growlevel="0" bar:type="" class="st60" d="M1648.1,912.5c-25.7,35.5-46.9,65.2-46.9,66.1
		c0,0.8,3.1,5.4,6.8,10.1c8.9,11,22.5,30.1,34.1,47.6c8.4,12.7,15.1,23.8,31,50.4c3.1,5.2,8.8,13.5,12.9,18.4
		c10.3,12.9,10.6,13.8,10.1,27.5c-0.5,9.8-0.2,13.3,2.2,27.4c1.5,8.9,3.4,22.9,4.2,31.1c0.8,8.2,2.1,19.7,2.8,25.6
		c0.7,5.9,1.3,10.9,1.3,11c0,0.2,0.5,0.3,1.2,0.3c1.7,0,17.4-75.6,18.6-90c2.5-28.2,15.6-93.6,22.5-112.8
		c2.6-7,26.5-116.7,25.9-118.5c-1.1-3.2-74.9-58.5-78.1-58.5C1695.5,848.1,1679.8,868.8,1648.1,912.5z"/>
	<path id="structure49_label39_V1M" bar:growlevel="0" bar:type="" class="st61" d="M1547.2,544.5c-39.9,2.7-64.9,7.9-96.5,20.3
		c-9.9,3.8-11.5,4.8-11.5,6.4c0.1,4.9,144.6,180.7,186,226.2c5.5,6.1,9.5,9.4,15.3,13c4.4,2.6,13.1,8.1,19.4,12.2
		c6.3,4.1,12,7.5,12.6,7.5c0.6,0,3.5-4.8,6.6-10.6c3.1-5.8,19.9-36.4,37.4-68.1c54.8-98.7,79.9-145.4,79.9-148.5
		c0-1.1-4.4-3.6-15-8.7c-61.7-29.6-107.6-42.6-170.4-48C1595.6,544.8,1556.9,543.9,1547.2,544.5z"/>
	<path id="structure50_label40_V2MM" bar:growlevel="0" bar:type="" class="st62" d="M1424.8,576.4c-24.8,13.2-48.8,30-75.2,52.7
		c-13.8,11.8-22.3,20.4-21.8,22.1c0.3,0.7,4.5,2.8,9.4,4.7c13.5,5.3,50,21,71.1,30.5c66.2,30.1,138,67.4,197.6,103
		c7.7,4.6,14.8,8.4,15.5,8.4c2.9,0,1.3-3-5.6-10.6c-16.5-18.5-69.6-81.7-111.4-132.9c-24.9-30.4-63.7-78.8-65.5-81.6
		c-0.5-0.9-1.6-1.6-2.3-1.6C1435.7,570.9,1430.4,573.5,1424.8,576.4z"/>
	<path id="structure51_label41_RSD" bar:growlevel="0" bar:type="" class="st63" d="M1318,659.3c-18.2,19-24.4,36.1-19.7,54.3
		c1.6,5.9,11.9,27.8,20.4,43.2c10.8,19.5,28.4,44.5,37.5,53l2.8,2.7l17.3-2.4c70.9-9.9,163.9-12.4,234.7-6.5
		c8.6,0.7,16,1.3,16.4,1.3c4.5,0-14.5-11.9-57.3-36.1c-58.7-33-125.1-66.2-185.8-92.9c-20.8-9.1-54.1-22.9-57.1-23.7
		C1325.6,651.9,1323.8,653.3,1318,659.3z"/>
	<path id="structure52_label42_RSGa" bar:growlevel="0" bar:type="" class="st64" d="M1493.6,801.4c-28.4,0.7-59.5,2.6-86.8,5.4
		c-16.8,1.7-41.6,4.9-43.8,5.8c-2.2,0.7-1.2,2.8,3.6,7.3c14.4,14,29.9,24.3,66.8,44.3c40.1,21.7,74.5,42.2,91.6,54.5
		c4.9,3.5,14.8,10.5,22,15.5c17.5,12.2,31.1,23.2,42.2,33.8c5,4.9,9.7,8.8,10.5,8.8c1.5,0,95.1-127.8,95.1-129.9
		c0-1.3-26.8-19.3-50-33.7l-11.7-7.3l-10.8-1c-21.2-2-35.5-2.8-57.6-3.2c-12.3-0.3-27.5-0.6-33.8-0.7
		C1524.8,800.9,1508,801.1,1493.6,801.4z"/>
	<path class="st28" d="M1263.1,814.8c-3.9-11.2-14.8-35.2-20.3-44.3c-4.7-7.9-16.8-20.3-25.7-26.1c-12.8-8.5-28.8-15.4-42.6-18.3
		c-3.6-0.8-8.5-1.1-13.5-1.1v224.5c22.8-0.4,58.7-19.5,82.4-44.9C1269.1,877.1,1275.2,849.2,1263.1,814.8z"/>
	<path class="st29" d="M1265,572.8c-2.1-4.1-10.1-10.7-17-14c-12.5-5.9-28.2-10-48.5-12.6c-6.9-0.9-22.6-1.3-38.4-1.3v72.3
		c24.1,0,32.4-0.3,41.4-1.5c35.2-5,56.1-13.8,62-26.1C1266.7,584.9,1267,576.6,1265,572.8z"/>
	<path id="structure55_label45_DCIC" bar:growlevel="0" bar:type="" class="st65" d="M1346.9,853c-5.6,1.8-12,5.3-20,11
		c-16,11.5-32.2,27.4-67.6,65.7c-20.7,22.5-26.5,28-40,37c-5.2,3.4-8.8,6.5-8.8,7.4c0,2.1,3.9,15.7,6.6,23.3
		c4.4,12.1,9.8,23.9,21,46.1c14.1,28.1,18.4,35.7,44.9,80.1c36.7,61.5,47,81.1,54.4,104.1c4.9,15.1,9.5,24.8,12.2,25.3
		c1.3,0.3,1.5-0.1,1.2-1.8c-4.9-22.3-6.6-33.9-8-53.4c-1.7-23.3,0.1-46,4.7-60.8c4.7-14.9,16-32.3,31.1-47.5l10.1-10.1l1.8-9.3
		c7.7-38.6,11.2-79.8,9.3-109.6c-3-46.3-13.6-77.1-35.5-102.2c-5.5-6.2-5.8-6.5-9.7-6.5C1352.3,851.8,1348.9,852.4,1346.9,853z"/>
	<path class="st66" d="M1326.2,1200.5c-8.8-18-19.4-36.8-42.1-74.7c-10.4-17.4-22-37.1-26-44c-10.1-17.7-26.6-50.1-33.2-64.9
		c-5.5-12.5-14.3-37.3-14.3-40.3c0-2.9-2.7-2.7-9.7,0.5c-16,7.5-28.3,10.8-39.7,10.8v128c21.9,0,29.6,0.4,37.8,1.6
		c24.7,3.9,40.6,9.7,53.7,19.7c7.6,5.8,56.4,61.8,75.2,86.4c7.6,9.9,10.5,12.5,10.5,9.3C1338.4,1229.4,1332.1,1212.6,1326.2,1200.5z
		"/>
	<path class="st67" d="M1326.2,1200.5c-8.8-18-19.4-36.8-42.1-74.7c-10.4-17.4-22-37.1-26-44c-10.1-17.7-26.6-50.1-33.2-64.9
		c-5.5-12.5-14.3-37.3-14.3-40.3c0-2.9-2.7-2.7-9.7,0.5c-16,7.5-28.3,10.8-39.7,10.8v128c21.9,0,29.6,0.4,37.8,1.6
		c24.7,3.9,40.6,9.7,53.7,19.7c7.6,5.8,56.4,61.8,75.2,86.4c7.6,9.9,10.5,12.5,10.5,9.3C1338.4,1229.4,1332.1,1212.6,1326.2,1200.5z
		"/>
	<path class="st68" d="M1256.9,1141.3c-12.1-11.6-32.7-20-56.7-23c-10.8-1.4-25.9-2.3-39.1-2.5v85.8c0.3,0,0.6,0,0.9,0
		c5.7-0.1,7.6,0.3,11.2,2.2c4.5,2.3,5.3,3.4,9,12c3.2,7.4,10.2,14.3,20.3,20.2c4.7,2.8,11.1,6.6,14.2,8.5c3.2,2,6.3,3.5,7,3.5
		c1.8,0,20.8-16.9,30.5-27.2c4.5-4.7,10.4-11.7,13.1-15.7c6.8-9.4,18-29.3,17.7-31.1C1284.8,1172.1,1263.9,1147.9,1256.9,1141.3z"/>
	<path id="structure59_label49_CIC" bar:growlevel="0" bar:type="" class="st69" d="M1434.7,1056.4c-8.4,1.9-14.5,4.1-23.4,8.8
		c-27.7,14.3-54.7,44.5-62.9,70.5c-4.4,13.9-5,19.5-5,45.4c0,25.6,1.2,37.9,5.5,59.1c3.7,18,5.3,21.8,15.8,36.4
		c5.1,7.1,11.2,15.6,13.3,18.8c2.2,3.2,4.3,6.2,4.7,6.8c0.4,0.4,3.2,4.4,6.2,8.8c12.4,17.6,35.3,42.1,51.2,54.9
		c17.8,14.3,38.7,26.3,55.4,31.7c11.4,3.7,25.5,7.5,33.9,9c7.3,1.4,8.4,1.4,13.5,0c18-4.6,30.1-23.1,37.2-57.1
		c5-24.5,3.6-48.7-5.9-97c-9.9-50.4-21.5-87.4-37.2-119c-22.1-44.6-48.4-71.6-75.2-77.3C1455.7,1054.9,1441,1055.1,1434.7,1056.4z"
		/>
	<path class="st4" d="M1798.5,1700.8c-6.9-5.7-13.4-7.8-23.7-7.9c-7.6-0.1-9.1,0.2-13.7,2.4c-8.4,4.1-12.1,9.1-15.7,21.2
		c-6.1,20.3-16.3,42.9-28.3,62.6c-5.6,9.2-6.9,12.3-9.9,23c-13.4,47.3-26,73.3-63.5,131c-7.5,11.4-16.4,26.3-19.9,33
		c-17.4,33.1-79.2,131.6-89.6,142.7c-2.5,2.8-9.4,9-15,13.8c-12.2,10.3-19.2,17.5-26.7,27.5c-15.4,20.3-53.6,57.1-86.4,83.3
		c-23,18.5-45.7,31.3-67.6,38.6c-16,5.4-26.2,7.2-42.9,7.8c-12.2,0.4-16.1,0.2-25.4-1.4c-23-3.9-55.7-17.1-81.3-32.8
		c-7.8-4.9-11.5-8.4-13.9-13.2c-1.9-4.1-1.9-4.1-2.3-121.5l-0.4-117.4l-2-4.2c-2.2-4.8-4.1-6.1-9.2-6.1v306.8c7.9,0,31.9,4,55.8,9.2
		c27.6,6,30.8,6.5,42.8,5.9c13.5-0.7,22.2-2.3,45-7.9c67.1-16.8,100.2-29.9,127.4-50.2c20.3-15.2,40.9-33.4,104.7-92.8
		c16.3-15.1,32.2-29.3,35.4-31.5c5.6-3.9,6-4.6,13.5-18.4c14.5-27,27.8-49,33.7-55.6c1.4-1.7,5.4-7.2,8.8-12.4
		c9.5-14.4,24-33.4,35.4-46c28.4-31.8,32.9-38.2,49.6-70.5c12.3-23.8,21.2-39.2,38.3-66.5c12.5-20.1,38.4-59.5,49.2-74.8
		c5.2-7.5,7.6-11.7,9.5-17.6C1818.3,1735.8,1814.1,1713.4,1798.5,1700.8z"/>
	<path id="structure70_label62_lfp" bar:growlevel="0" bar:type="" class="st70" d="M1386.3,2078c-7.3,2-27.4,12.5-54.8,28.6
		c-13.9,8.1-37.6,21.2-53,29.2c-15.3,7.9-32,16.7-36.9,19.7c-10,5.9-17.5,12.7-17.5,15.8c0,3.5,6.1,8.5,13,10.6
		c16.5,5.1,37.7,6.8,85.5,6.8c51.3,0,70.8-1.9,82.6-8.2c11.9-6.3,30.5-30.7,36-47.2c3.8-11.2,3.7-28.2-0.2-35.6
		C1433.5,2082.7,1405.8,2072.8,1386.3,2078z"/>
	<path id="structure83_text3203_CEnt" bar:growlevel="0" bar:type="" class="st71" d="M1854.6,1089.8c-28,33.4-50.9,61.1-50.9,61.7
		c0,1.3,1.8,1.1,7.6-0.9c7.9-2.7,14.3-3.1,23.5-1.3c28.4,5.2,49.1,28.3,74.3,83.3c21.2,46.2,41,96.8,63.8,163.8
		c11.8,34.3,13,37.3,20.7,48.1c7.7,10.7,25.7,27.4,27.6,25.5c0.3-0.3,2.3-63,4.4-139.4c2.2-76.4,4.1-144.8,4.4-152l0.5-13.1
		l-10.1-12.1c-41.2-49.5-109.3-124.1-113.3-124.1C1906.1,1029,1887.3,1050.8,1854.6,1089.8z"/>
	<path id="structure84_text3205_CEnt" bar:growlevel="0" bar:type="" class="st71" d="M1813.9,1150c-13.4,3.2-21.9,12-22,22.6
		c0,5,3.9,20.3,8.1,31.8c6.5,17.7,14.5,33.7,38.7,76.7c20.2,36,25,48.1,32.9,81.4c7.6,32.3,10.4,41.9,18.4,63.4
		c3.6,9.6,10.3,28.3,14.8,41.4c22.6,64.6,31.7,83.3,49,100.9c16.4,16.6,32.2,24,52.7,24.8l11,0.5l0.5-7.6c0.3-4.1,1.2-31.6,2-61
		c1.3-49,1.3-53.6,0-54.3c-4.3-2.4-15.8-12.6-20.4-18.2c-5.5-6.5-11.9-15.7-14.6-21c-0.8-1.5-6.6-17.7-12.9-36
		c-27.5-79.9-50.7-138.2-73.1-182.5c-15.8-31.5-30.1-48.7-47.7-57.9C1839.9,1149.2,1825.6,1147.2,1813.9,1150z"/>
	<path id="structure85_label73_CEnt" bar:growlevel="0" bar:type="" class="st71" d="M1790.7,1184.9c-0.3,0.6-1.1,5-1.9,9.7
		c-3.8,22.2-11.9,47.3-22,67.9c-9.4,19.1-19.3,33.9-33.8,50.9c-3,3.4-5,6.8-5,7.9c0,4.9,19.3,46.6,25.7,55.6
		c5.4,7.6,13.5,16.2,20.6,22c5.5,4.4,5.7,4.7,4.8,7.3c-1.4,4.1-0.4,22.4,2,33.1c6.7,31.4,42.5,134.7,58.5,168.9
		c26.3,56.1,77.5,94.7,145.4,109.5c12.9,2.8,28.3,5.3,28.9,4.8c0.4-0.4,3.9-106.3,4-121.3v-6.8l-9.6-0.5
		c-21.6-1.3-40.2-10.3-56.3-27.4c-16.2-17.3-25.6-36.7-47.1-98.3c-5-14.6-11.9-33.7-15.1-42.3c-7.7-20.6-11.1-32-18.6-64
		c-3.8-15.8-7.6-29.7-9.5-34.6c-5-12.4-16.2-34.2-29.5-57.9c-20.4-36.4-31.7-60.2-36.7-78.4
		C1793.5,1184.4,1791.6,1182,1790.7,1184.9z"/>
	<path id="structure90_text3187_DLEnt" bar:growlevel="0" bar:type="" class="st54" d="M2038.6,1179.4c0,2.8,35.3,295.6,35.6,295.9
		c1.2,1.2,9.5-4.6,15.8-10.9c6.5-6.4,7.5-7.9,14.1-21.6c10.8-22.3,17.2-38.2,27.5-68.2c2.8-8.2,5.9-15.8,7-17
		c2.5-2.7,6.9-4.6,10.9-4.6c4.1,0,12.1,3,16.7,6.3c4.1,3.1,5.5,3.3,5.5,1.3c0-2-34.2-53.2-54.4-81.5c-19.4-27.3-44.5-60.7-62.6-83.5
		C2042.6,1180.3,2038.6,1176.3,2038.6,1179.4z"/>
	<path id="structure91_label75_DLEnt" bar:growlevel="0" bar:type="" class="st54" d="M2144.9,1353.9c-5.5,1.3-7,4-14,24.1
		c-11.6,33.5-26.2,67.3-33.8,78.5c-4.1,6-11.7,13.3-17.9,17.1c-4.2,2.6-4.6,3.1-4.6,6.1c0.1,5.5,11.3,97.3,12,98
		c0.9,0.9,8.2-2.8,14.9-7.6c26-18.5,43.4-47.5,61.6-103.3c17.6-53.6,19.6-61.4,19.9-77.4c0.1-9.4-0.1-10.2-2.5-14.7
		c-3.4-6.1-13.3-15.5-19.5-18.4C2155.3,1353.8,2149.3,1352.9,2144.9,1353.9z"/>
	<path id="structure9_label0_RtTg" bar:growlevel="0" bar:type="" class="st72" d="M1185.1,1969.9c-5.5,2.1-10.2,5.6-13.1,9.9
		c-3.2,4.7-3.3,5.5-1.2,9.6c1.3,2.6,1.6,6.7,2,28.5c0.5,29.3-0.2,27,9.7,30.9c4.2,1.7,6.9,2.1,15.5,2.1c11.1,0.1,17.3-1.2,27.4-5.4
		c10.7-4.5,15.2-5.3,31.6-5.2c9.3,0,22.2,0.8,32.9,2c18.4,2.1,36.2,3.3,57.1,4.2c6.9,0.3,14.9,0.7,17.8,1c10,1,6.1-1.5-20.7-13.6
		c-14.3-6.4-43.1-19.6-64.2-29.5c-49.9-23.4-61.6-28.6-73.3-32.7C1198.6,1968.9,1189.7,1968.2,1185.1,1969.9z"/>
	<text id="label30" bar:growlevel="0" transform="matrix(1 0 0 1 2118.3359 1597.0332)" class="st73 st74 st75">DLEnt</text>
	<text id="label31" bar:growlevel="0" transform="matrix(1 0 0 1 2194.957 1369.2324)" class="st73 st74 st75">PRh</text>
	<text id="label32" bar:growlevel="0" transform="matrix(1 0 0 1 2193.5186 1220.8574)" class="st73 st74 st75">Ect</text>
	<text id="label35" bar:growlevel="0" transform="matrix(1 0 0 1 1816.04 1032.8242)" class="st73 st74 st75">PaS</text>
	<text id="label36" bar:growlevel="0" transform="matrix(1 0 0 1 1957.3271 901.1504)" class="st73 st74 st75">V2L</text>
	<text id="label37" bar:growlevel="0" transform="matrix(1 0 0 1 1793.5859 782.0293)" class="st73 st74 st75">V1B</text>
	<text id="label38" bar:growlevel="0" transform="matrix(1 0 0 1 1672.8955 984.5664)" class="st73 st74 st75">Post</text>
	<text id="label39" bar:growlevel="0" transform="matrix(1 0 0 1 1605.5479 684.875)" class="st73 st74 st75">V1M</text>
	<text id="label142" bar:growlevel="0" transform="matrix(1 0 0 1 1182.0967 583.0938)" class="st73 st74 st75">v</text>
	<text id="label141" bar:growlevel="0" transform="matrix(1 0 0 1 1211.8271 834.1211)" class="st73 st74 st75">Pi</text>
	<text id="text3205" bar:growlevel="0" transform="matrix(1 0 0 1 1860.3457 1268.5996)" class="st73 st74 st75">CEnt</text>
	<text id="text3203" bar:growlevel="0" transform="matrix(1 0 0 1 1930.7197 1194.6367)" class="st73 st74 st75">CEnt</text>
	<text id="label148" bar:growlevel="0" transform="matrix(1 0 0 1 1644.6973 1678.5273)" class="st73 st74 st75">Tr</text>
	<text id="label0" bar:growlevel="0" transform="matrix(1 0 0 1 1197.3574 2015.166)" class="st73 st74 st75">RtTg</text>
	<text id="label1" bar:growlevel="0" transform="matrix(1 0 0 1 1361.8564 1859.2793)" class="st73 st74 st75">PnO</text>
	<text id="label2" bar:growlevel="0" transform="matrix(1 0 0 1 1193.9375 1849.2617)" class="st73 st74 st75">PMnR</text>
	<text id="label4" bar:growlevel="0" transform="matrix(1 0 0 1 1176.1846 1812.2285)" class="st73 st74 st75">MnR</text>
	<text id="label5" bar:growlevel="0" transform="matrix(1 0 0 1 1222.3154 1707.5703)" class="st73 st74 st75">VTg</text>
	<text id="label6" bar:growlevel="0" transform="matrix(1 0 0 1 1356.2168 1682.6992)" class="st73 st74 st75">SPTg</text>
	<text id="text3193" bar:growlevel="0" transform="matrix(1 0 0 1 2048.3232 1433.3984)" class="st73 st74 st75">MEnt</text>
	<text id="text3191" bar:growlevel="0" transform="matrix(1 0 0 1 2051.8994 1541.957)" class="st73 st74 st75">MEnt</text>
	<text id="Unlabeled-2048-1464" bar:growlevel="0" transform="matrix(1 0 0 1 1385.168 1498.8477)" class="st73 st74 st75">4n</text>
	<text id="label19" bar:growlevel="0" transform="matrix(1 0 0 1 1476.5479 1506.1484)" class="st73 st74 st75">CnFV</text>
	<text id="label13" bar:growlevel="0" transform="matrix(1 0 0 1 1540.8359 1953.3145)" class="st73 st74 st75">VLL</text>
	<text id="label11" bar:growlevel="0" transform="matrix(1 0 0 1 1262.2871 2238.5469)" class="st73 st74 st75">Pn</text>
	<text id="label16" bar:growlevel="0" transform="matrix(1 0 0 1 1606.0859 1678.498)" class="st73 st74 st75">rLL</text>
	<text id="label17" bar:growlevel="0" transform="matrix(1 0 0 1 1532.1973 1729.7168)" class="st73 st74 st75">MPL</text>
	<text id="label14" bar:growlevel="0" transform="matrix(1 0 0 1 1515.6357 1791.3477)" class="st73 st74 st75">A7</text>
	<text id="label15" bar:growlevel="0" transform="matrix(1 0 0 1 1658.168 1729.7168)" class="st73 st74 st75">ILL</text>
	<text id="label93" bar:growlevel="0" transform="matrix(1 0 0 1 1760 1605.625)" class="st73 st74 st75">a</text>
	<text id="text3187" bar:growlevel="0" transform="matrix(1 0 0 1 2094.6768 1345.3223)" class="st73 st74 st75">DLEnt</text>
	<text id="label97" bar:growlevel="0" transform="matrix(1 0 0 1 1746.1582 1764.1914)" class="st73 st74 st75">mcp</text>
	<text id="label95" bar:growlevel="0" transform="matrix(1 0 0 1 1606.5674 1499.8457)" class="st73 st74 st75">ll</text>
	<text id="label160" bar:growlevel="0" transform="matrix(1 0 0 1 1406.2764 1411.4375)" class="st73 st74 st75">me5</text>
	<text id="label98" bar:growlevel="0" transform="matrix(1 0 0 1 1760.9473 1929.2832)" class="st73 st74 st75">s5</text>
	<text id="label99" bar:growlevel="0" transform="matrix(1 0 0 1 1527.4277 1862.4297)" class="st73 st74 st75">rs</text>
	<text id="text3189" bar:growlevel="0" transform="matrix(1 0 0 1 2024.4668 1667.2168)" class="st73 st74 st75">MEnt</text>
	<text id="Unlabeled-2380-1315" bar:growlevel="0" transform="matrix(1 0 0 1 1668.668 1440.3477)" class="st73 st74 st75">ll</text>
	<text id="text3163" bar:growlevel="0" transform="matrix(1 0 0 1 1751.1035 1117.2383)" class="st73 st74 st75">PaS</text>
	<text id="Unlabeled-2163-1975" bar:growlevel="0" transform="matrix(1 0 0 1 1419.3662 2011.8477)" class="st73 st74 st75">grey</text>
	<text id="label118" bar:growlevel="0" transform="matrix(1 0 0 1 1714.7783 1466.4219)" class="st73 st74 st75">Sag</text>
	<text id="label62" bar:growlevel="0" transform="matrix(1 0 0 1 1356.7705 2144.9414)" class="st73 st74 st75">lfp</text>
	<text id="label107" bar:growlevel="0" transform="matrix(1 0 0 1 1269.3018 1987.5957)" class="st73 st74 st75">RtTgP</text>
	<text id="text6327" bar:growlevel="0" transform="matrix(1 0 0 1 1456.625 1023.4238)" class="st73 st74 st75">ECIC-3</text>
	<text id="label103" bar:growlevel="0" transform="matrix(1 0 0 1 1609.2979 1640.9023)" class="st73 st74 st75">T</text>
	<text id="label102" bar:growlevel="0" transform="matrix(1 0 0 1 1561.2393 1629.4082)" class="st73 st74 st75">cll</text>
	<text id="Unlabeled-2475-1472" bar:growlevel="0" transform="matrix(1 0 0 1 1782.9668 1540.25)" class="st73 st74 st75">v</text>
	<text id="label101" bar:growlevel="0" transform="matrix(1 0 0 1 1520.3174 1585.959)" class="st73 st74 st75">PTg</text>
	<text id="label100" bar:growlevel="0" transform="matrix(1 0 0 1 1506.2783 2071.3867)" class="st73 st74 st75">ll</text>
	<text id="label109" bar:growlevel="0" transform="matrix(1 0 0 1 1407.668 1382.5859)" class="st73 st74 st75">Me5</text>
	<text id="label108" bar:growlevel="0" transform="matrix(1 0 0 1 1366.7979 2054.5645)" class="st73 st74 st75">DPPn</text>
	<text id="label75" bar:growlevel="0" transform="matrix(1 0 0 1 2123.2988 1469.3887)" class="st73 st74 st75">DLEnt</text>
	<text id="label73" bar:growlevel="0" transform="matrix(1 0 0 1 1810.25 1341.3672)" class="st73 st74 st75">CEnt</text>
	<text id="label146" bar:growlevel="0" transform="matrix(1 0 0 1 1686.5449 1153.9063)" class="st73 st74 st75">ECIC-1</text>
	<text id="Unlabeled-1943-1604" bar:growlevel="0" transform="matrix(1 0 0 1 1310.4668 1700.4473)" class="st73 st74 st75">DMTg</text>
	<text id="label133" bar:growlevel="0" transform="matrix(1 0 0 1 1177.6904 2273.3105)" class="st73 st74 st75">tfp</text>
	<text id="label130" bar:growlevel="0" transform="matrix(1 0 0 1 1240.7168 2083.2871)" class="st73 st74 st75">tth</text>
	<text id="label131" bar:growlevel="0" transform="matrix(1 0 0 1 1260.248 2113.9238)" class="st73 st74 st75">ml</text>
	<text id="label41" bar:growlevel="0" transform="matrix(1 0 0 1 1403.707 761.1465)" class="st73 st74 st75">RSD</text>
	<text id="label40" bar:growlevel="0" transform="matrix(1 0 0 1 1421.0479 683.8223)" class="st73 st74 st75">V2MM</text>
	<text id="label42" bar:growlevel="0" transform="matrix(1 0 0 1 1539.1865 870.8457)" class="st73 st74 st75">RSGa</text>
	<text id="label45" bar:growlevel="0" transform="matrix(1 0 0 1 1279.0859 1004.6094)" class="st73 st74 st75">DCIC</text>
	<text id="label47" bar:growlevel="0" transform="matrix(1 0 0 1 1192.7168 1087.1855)" class="st73 st74 st75">cic</text>
	<text id="label46" bar:growlevel="0" transform="matrix(1 0 0 1 1181.375 1040.8223)" class="st73 st74 st75">Com</text>
	<text id="label18" bar:growlevel="0" transform="matrix(1 0 0 1 1650.7588 1576.1504)" class="st73 st74 st75">DLL</text>
	<text id="label116" bar:growlevel="0" transform="matrix(1 0 0 1 1750.8193 1426.3516)" class="st73 st74 st75">4n</text>
	<text id="label117" bar:growlevel="0" transform="matrix(1 0 0 1 1167.125 2301.2891)" class="st73 st74 st75">bas</text>
	<text id="text6329" bar:growlevel="0" transform="matrix(1 0 0 1 1663.6934 1130.5332)" class="st73 st74 st75">ECIC-2</text>
	<text id="label110" bar:growlevel="0" transform="matrix(1 0 0 1 1174.3682 1615.9355)" class="st73 st74 st75">Rbd</text>
	<text id="label126" bar:growlevel="0" transform="matrix(1 0 0 1 1263.8438 1838.3828)" class="st73 st74 st75">ts</text>
	<text id="label121" bar:growlevel="0" transform="matrix(1 0 0 1 1699.1162 1396.4199)" class="st73 st74 st75">bic</text>
	<text id="label120" bar:growlevel="0" transform="matrix(1 0 0 1 1595.8652 2099.0195)" class="st73 st74 st75">m5</text>
	<text id="label122" bar:growlevel="0" transform="matrix(1 0 0 1 1671.9365 1870.4727)" class="st73 st74 st75">m5</text>
	<text id="label129" bar:growlevel="0" transform="matrix(1 0 0 1 1195.4971 1644.3359)" class="st73 st74 st75">mlf</text>
	<text id="label89-8" bar:growlevel="0" transform="matrix(1 0 0 1 2113.9014 996.8711)" class="st73 st74 st75">TeA</text>
	<text id="label23" bar:growlevel="0" transform="matrix(1 0 0 1 1245.7295 1513.416)" class="st73 st74 st75">LDTg</text>
	<text id="label22" bar:growlevel="0" transform="matrix(1 0 0 1 1261.5371 1451.8086)" class="st73 st74 st75">VLPAG</text>
	<text id="label21" bar:growlevel="0" transform="matrix(1 0 0 1 1443.3359 1434.0449)" class="st73 st74 st75">CnFD</text>
	<text id="label20" bar:growlevel="0" transform="matrix(1 0 0 1 1492.5371 1467.4707)" class="st73 st74 st75">CnFI</text>
	<text id="label27" bar:growlevel="0" transform="matrix(1 0 0 1 1287.3359 1316.9961)" class="st73 st74 st75">LPAG</text>
	<text id="label26" bar:growlevel="0" transform="matrix(1 0 0 1 1176.5479 1344.1504)" class="st73 st74 st75">Aq</text>
	<text id="label25" bar:growlevel="0" transform="matrix(1 0 0 1 1177.6816 1578.4648)" class="st73 st74 st75">DRV</text>
	<text id="label24" bar:growlevel="0" transform="matrix(1 0 0 1 1179.8232 1531.6445)" class="st73 st74 st75">DRD</text>
	<text id="label96" bar:growlevel="0" transform="matrix(1 0 0 1 1403.6162 1624.1875)" class="st73 st74 st75">scp</text>
	<text id="label49" bar:growlevel="0" transform="matrix(1 0 0 1 1437.457 1228.209)" class="st73 st74 st75">CIC</text>
	<text id="label94" bar:growlevel="0" transform="matrix(1 0 0 1 1767.29 1629.6895)" class="st73 st74 st75">a</text>
	<text id="label154" bar:growlevel="0" transform="matrix(1 0 0 1 1560.9668 1629.4082)" class="st73 st74 st75">cll</text>
	<text id="label159" bar:growlevel="0" transform="matrix(1 0 0 1 1181.2822 1684.2266)" class="st73 st74 st75">cll</text>
	<text id="label48" bar:growlevel="0" transform="matrix(1 0 0 1 1187.6572 1176.8887)" class="st73 st74 st75">DMPAG</text>
</g>
</svg>
