<?xml version="1.0" encoding="utf-8"?>
<!-- Generator: Adobe Illustrator 24.1.1, SVG Export Plug-In . SVG Version: 6.00 Build 0)  -->
<svg version="1.1"
	 id="body" inkscape:version="0.47pre4 r22446" sodipodi:docname="87_pretrace_pretrace_v1.svg" xmlns:bar="http://www.3dbar.org" xmlns:cc="http://creativecommons.org/ns#" xmlns:dc="http://purl.org/dc/elements/1.1/" xmlns:inkscape="http://www.inkscape.org/namespaces/inkscape" xmlns:rdf="http://www.w3.org/1999/02/22-rdf-syntax-ns#" xmlns:sodipodi="http://sodipodi.sourceforge.net/DTD/sodipodi-0.dtd" xmlns:svg="http://www.w3.org/2000/svg"
	 xmlns="http://www.w3.org/2000/svg" xmlns:xlink="http://www.w3.org/1999/xlink" x="0px" y="0px" viewBox="0 0 3024 3024"
	 style="enable-background:new 0 0 3024 3024;" xml:space="preserve">
<style type="text/css">
	.st0{fill:#FF000C;}
	.st1{fill:#B29AE1;}
	.st2{fill:#FF4100;}
	.st3{fill:#3FFF00;}
	.st4{fill:#610BE5;}
	.st5{fill:#B18EE1;}
	.st6{fill:#A500FF;}
	.st7{fill:#97FF59;}
	.st8{fill:#CF7900;}
	.st9{fill:#925FDC;}
	.st10{fill:#E9C76B;}
	.st11{fill:#7B3BED;}
	.st12{fill:#7123FA;}
	.st13{fill:#D49A00;}
	.st14{fill:#DF8800;}
	.st15{fill:#B2FF00;}
	.st16{fill:#FFBA2C;}
	.st17{fill:#7447E9;}
	.st18{fill:#FF6A00;}
	.st19{fill:#FF4900;}
	.st20{fill:#A4FF00;}
	.st21{fill:#FFDE00;}
	.st22{fill:#FFB2DC;}
	.st23{fill:#B8FF00;}
	.st24{fill:#BCFFB2;}
	.st25{fill:#FFAB00;}
	.st26{fill:#FFDFB2;}
	.st27{fill:#F247DD;}
	.st28{fill:#9C6BE9;}
	.st29{fill:#E99659;}
	.st30{fill:#C19AF6;}
	.st31{fill:#CCFFB2;}
	.st32{fill:#B58EE9;}
	.st33{fill:#FFB776;}
	.st34{fill:#FEFF3B;}
	.st35{fill:#DBDF6B;}
	.st36{fill:#FFAA59;}
	.st37{fill:#FFD4B2;}
	.st38{fill:#FFB2BA;}
	.st39{fill:#DF5900;}
	.st40{fill:#FF6400;}
	.st41{fill:#5217E1;}
	.st42{fill:#D4AE47;}
	.st43{fill:#FF9A00;}
	.st44{fill:#F4D88E;}
	.st45{fill:#C99300;}
	.st46{fill:#FF5100;}
	.st47{fill:#F0FF00;}
	.st48{fill:#B9FF3B;}
	.st49{fill:#FAFFB2;}
	.st50{fill:#F4FF59;}
	.st51{fill:#F8FFB2;}
	.st52{fill:#E7FF00;}
	.st53{fill:#FF3800;}
	.st54{fill:#FFC5B2;}
	.st55{fill:#FFF8B2;}
	.st56{fill:#FFE300;}
	.st57{fill:#FFC6B2;}
	.st58{fill:#FF963B;}
	.st59{fill:#835FBF;}
	.st60{fill:#F7FF59;}
	.st61{fill:#FBFFB2;}
	.st62{fill:#F1FF00;}
	.st63{fill:#E0E959;}
	.st64{fill:#C6D400;}
	.st65{fill:#F3FF59;}
	.st66{fill:#D8E900;}
	.st67{fill:#8847F2;}
	.st68{fill:#D8DF00;}
	.st69{fill:#C4C923;}
	.st70{fill:#C3C900;}
	.st71{fill:#E6E98E;}
	.st72{fill:#FFEC00;}
	.st73{fill:#FDFF76;}
	.st74{fill:#FEFF00;}
	.st75{fill:#FEFFB2;}
	.st76{fill:#D3D43B;}
	.st77{fill:#FF005D;}
	.st78{fill:#FFD9B2;}
	.st79{fill:#FBFF8E;}
	.st80{fill:#E2E923;}
	.st81{fill:#F1F48E;}
	.st82{fill:#69FF00;}
	.st83{fill:#A682E1;}
	.st84{fill:#4AFF00;}
	.st85{fill:#FF59B8;}
	.st86{fill:#CAB2FF;}
	.st87{fill:#5717BF;}
	.st88{fill:#9653F6;}
	.st89{fill:#54FF00;}
	.st90{fill:#5600ED;}
	.st91{fill:#83E900;}
	.st92{fill:#FF9800;}
	.st93{fill:#E99159;}
	.st94{fill:#232323;enable-background:new    ;}
	.st95{font-family:'TimesNewRomanPSMT';}
	.st96{font-size:27px;}
	.st97{fill:#FF0000;enable-background:new    ;}
</style>
<sodipodi:namedview  bordercolor="#666666" borderopacity="1" gridtolerance="10" guidetolerance="10" id="namedview404" inkscape:current-layer="content" inkscape:cx="536.01837" inkscape:cy="493.85925" inkscape:object-paths="true" inkscape:pageopacity="0" inkscape:pageshadow="2" inkscape:window-height="1128" inkscape:window-maximized="1" inkscape:window-width="1918" inkscape:window-x="1680" inkscape:window-y="24" inkscape:zoom="9.7401783" objecttolerance="10" pagecolor="#ffffff" showgrid="false">
	</sodipodi:namedview>
<desc  id="desc5">This was produced by version 4.2 of GNU libplot, a free library for exporting 2-D vector graphics.</desc>
<defs>
	<rdf:RDF>
		<cc:Work  rdf:about="">
			<dc:format>image/svg+xml</dc:format>
			<dc:type  rdf:resource="http://purl.org/dc/dcmitype/StillImage"></dc:type>
		</cc:Work>
	</rdf:RDF>
	<bar:data  content="-1.32" name="coronalcoord"></bar:data>
	
		<bar:data  content="{&apos;ReferenceHeight&apos;: 900, &apos;ReferenceWidth&apos;: 1200, &apos;imageSize&apos;: (1200, 900)}" name="rendererConf">
		</bar:data>
	
		<bar:data  content="{&apos;DumpEachStepSVG&apos;: False, &apos;DumpEachStepPNG&apos;: False, &apos;GrowDefaultBoundaryColor&apos;: 200, &apos;CacheLevel&apos;: 5, &apos;NewPathIdTemplate&apos;: &apos;structure%d_%s_%s&apos;, &apos;PoTraceConf&apos;: {&apos;potrace_accuracy_parameter&apos;: &apos;0.001&apos;, &apos;potrace_width_string&apos;: &apos;1200pt&apos;, &apos;potrace_svg_resolution_string&apos;: &apos;300x300&apos;, &apos;potrace_height_string&apos;: &apos;900pt&apos;}, &apos;DetectUnlabelled&apos;: True, &apos;DumpVBrain&apos;: False, &apos;DumpWrongSeed&apos;: True, &apos;DumpDirectory&apos;: &apos;.&apos;, &apos;MinFiterTimesApplication&apos;: 3, &apos;RegionAlreadyTraced&apos;: 100, &apos;UnlabelledTreshold&apos;: 500}" name="tracingConf">
		</bar:data>
	<bar:data  content="0.0176211454,-9.5150660793,0.0176211454,-1.5355884426" name="transformationmatrix"></bar:data>
</defs>
<g id="content">
	<path class="st0" d="M2359,1336.9c-20.5-236.5-126.5-435.1-310.6-581.3c-71.1-56.6-109.3-82.5-156.9-106.7
		c-77-39-147.7-59-244.9-69.3c-47.8-5-86.9-6.9-144.9-6.9c-112.7,0.1-177.8,7.5-234.8,26.7c-48.2,16.3-75.2,36.3-95.9,70.9
		c-12.9,21.7-23.4,52.5-27.4,81.1c-1.3,9.4-1.7,11-2.7,11.2v1433.6c19.3,0,38.8-2.4,81-7.1c22-2.4,50-5.5,62.2-6.8
		c24.1-2.4,34.7-4,95.3-14.3c22-3.7,42.7-7,45.8-7.4l5.7-0.6l-0.6,3.8c-0.6,3.4-0.4,4,2.4,6.8c6.8,6.8,18.7,5.9,23.7-1.5
		c1.7-2.7,1-6.6-1.4-8.1c-4.4-2.7-1.9-3.1,16.6-3.1c15.6,0.2,18.7-0.1,22.2-1.4c11.2-4.4,14.8-9.9,16.6-25.3
		c1.4-12.3,3.1-15.6,9.9-19.4c6.2-3.6,11.5-3.7,16.4-0.2c1.9,1.4,11.7,11.3,21.7,21.9c25.1,26.6,35.3,35.1,51.5,43.5
		c9.6,5,17.9,7.9,31.4,11.3c24.9,6.2,46.4,9.8,119.9,19.9c24.6,3.4,36.9,5.7,66.2,12.1c52.9,11.6,67.2,12.5,110.3,6.8
		c37.3-5,71.6-15.6,110.2-34.1c29.4-14.1,45.5-25.1,72.4-49.1c55.6-49.9,125.4-143.7,153-205.6c9.6-21.6,17.1-45.7,20.3-65.7
		c2.4-15.8,5.2-45.4,5.2-57.1c0-13.9-1.2-20.8-5.3-30.9c-2.3-5.7-3.1-8.7-3.1-12.9v-5.5l8.5-8.3c4.7-4.5,9.4-9.9,10.4-12
		c1.1-2.2,4.1-10.4,6.8-18.4c21.5-64.6,37.3-146.3,43.7-226.6C2363.5,1450.3,2363.3,1386.9,2359,1336.9z"/>
	<path id="structure10_label9_PLH" bar:growlevel="0" bar:type="" class="st1" d="M1429.7,1676.3c-35.6,1.4-53,3.9-81.4,11.7
		c-24.1,6.6-33.8,8.3-42.8,7.8c-10.8-0.6-16.1-5.1-16.1-13.6c0-3.2-0.1-3.3-3.1-3.3h-3.2v5.6c-0.1,3.2-0.7,7.7-1.6,10.2
		c-2.9,8.3-11.3,22.2-17,28.4c-3.2,3.2-5.7,6.3-5.7,6.8c0,0.4,1.6,2.6,3.5,4.8l3.4,3.9l5.3-2.6c13.2-6.5,30.4-2.8,51.9,11l6.1,4
		l5.6-0.8c16.6-2.5,39.9-1.9,59.8,1.7c10.7,1.9,13,3.5,14.7,9.4c1.4,5,0.5,14.4-2.3,24.8c-5.3,19.8-8.8,27.6-25.7,58.1
		c-13.4,24.2-15,27.7-16.1,34.4c-0.5,2.9-1.3,16.1-1.8,29.5c-0.5,13.3-1.3,34.8-1.9,47.7c-1.2,29.3-3,50.8-4.9,57.1
		c-5.7,18.9-22.5,41.7-38.8,52.5c-14.2,9.4-33.9,16.6-50.4,18.2c-11.9,1.2-19.9-3-22.8-11.8c-1.4-4.3-0.6-15.2,1.6-22.5
		c1.4-4.7,1.6-6.8,1.1-13.9c-0.5-4.7-1-19.7-1.4-33.5l-0.7-24.9h-16.8h-16.8l-0.5,3.1c-1.5,9.5-16.6,40.9-27.5,57.7
		c-8.1,12.2-20.3,23-26.3,23c-1.4,0-1.5,1.5-1.5,17.7c0.1,15.9-0.6,23.6-2.4,30.9c-0.5,2.3-0.3,2.5,4.2,4.1c3.5,1.2,6.2,3,10.3,7
		c8.6,8.6,13.1,20.1,13.2,33.9v7.1h3.1c4.1,0,42.4-4.9,60.1-7.7c34.2-5.4,44.3-8,73.6-19.3c8.8-3.4,16.9-6.2,18.1-6.2
		c2.6,0,25.2-18.1,43.1-34.5c7.3-6.7,15.2-13.3,17.5-14.7c2.3-1.4,5.9-3.9,7.8-5.5c5.9-5,19-11,29-13.1c7.1-1.4,10.7-1.7,18.7-1.3
		c5.5,0.3,11.3,0.8,12.9,1.1c4.9,0.9,3.6-1.9-2.3-5c-7.9-4.1-14-9.9-16.4-15.4c-1.8-4.2-1.9-5.1-0.9-8.4c0.9-2.9,0.8-3.7,0-4
		c-8.2-2.8-15.8-10.2-18.4-18.1c-9.2-26.9,26.3-50.3,54.9-36.2c3.1,1.5,5.8,2.8,6.1,2.8s1.7-2.7,3.2-5.9
		c7.7-16.5,25.2-33.2,41.7-40.1c10.2-4.1,37.8-13,52.7-16.6c16-4.1,17.1-5.2,8.1-8.5c-18.4-6.7-40.9-21-57.6-36.6
		c-2.8-2.6-5.7-4.8-6.4-4.8c-0.8,0-1.5,1.4-1.9,3.5c-1.1,7.1-10.9,16.4-18.6,17.6c-13.9,2.3-45-20.5-61.3-45.1
		c-13.3-20-23.4-48.6-23.6-66.5c-0.1-7.6,0.2-9.5,1.9-12.6c4.8-9.1,15.1-14.9,26.4-14.9c3.5,0,6.3-0.3,6.3-0.5
		c0-0.3-0.6-2.9-1.3-5.7c-2.9-11.3-7.7-48.2-7.7-59.5c0-3.1-0.4-4.5-1.1-4.3C1447.8,1675.5,1439.4,1675.9,1429.7,1676.3z"/>
	<path id="structure11_label10_EAM" bar:growlevel="0" bar:type="" class="st2" d="M1498,1612.6c-1.8,3.1-9.1,14.7-16.2,25.8
		c-13.8,21.5-22.3,32-28.8,34.8l-3.6,1.6l0.5,7.2c1.7,23.5,5,46.6,8.1,58.5c5,19,24.9,58.9,43.6,86.8c24.6,37,55.3,62.9,91.1,76.9
		c10.4,4.1,10.5,4.1,18.9,3.6c6.1-0.5,10.7-0.2,16.6,1l8.1,1.5l3.1-3.6c10.3-11.7,11.9-13.7,11.5-14.6c-0.2-0.5-4.2-2.5-8.9-4.4
		c-14.8-5.8-32.2-15.6-38.3-21.4c-1.4-1.4-5.9-5.1-10.1-8.4c-32.5-25.1-67.8-74.9-89.1-125.7c-5.6-13.3-7.1-19.7-8.2-34.4
		c-1.3-18.4,1.4-54.7,5.9-80.2c0.7-4.2,1.3-8.4,1.3-9.3C1503.5,1605.4,1501.2,1607.1,1498,1612.6z"/>
	<path id="structure125_label138_cg" bar:growlevel="0" bar:type="" class="st3" d="M1378.4,917.7c-7,1-18,4.6-23,7.5
		c-9,5.2-20.4,16.9-29,29.7c-2,3-10,16.6-17.8,30.2c-16.1,28.2-26.2,43.9-36.4,56.5c-7.5,9.2-16.9,18.6-23.3,23.1
		c-2.1,1.5-3.8,3.2-3.8,3.8c0,2.1,3.8,1.2,12.4-2.9c24.8-11.8,44.4-30.2,67.5-63.5c8.5-12.4,17.6-22.1,25.8-27.6
		c16.4-11,36.3-17.6,61.6-20.2c29.8-3.1,100.7,3.5,136.6,12.8c5.5,1.4,22.3,5.2,37.3,8.5c82.6,18.1,115.4,29,176,59
		c14.9,7.4,27.6,13.4,28.2,13.4c2.6,0,0.1-3-7.8-9.1c-68.4-53.3-164.5-90.7-285.1-111C1438.9,918,1399.4,914.6,1378.4,917.7z"/>
	<path class="st4" d="M1581.6,1259.8c-9.7-10.4-18.7-15.3-43.8-23.7c-38.8-13.1-148.8-53.6-166.9-61.7c-11.4-5-57.4-27.8-65-32.1
		l-3.8-2.2l1.8-3.6c1.1-1.9,3.9-6.2,6.3-9.6c2.4-3.3,4.4-6.5,4.4-7c0-1.8-4.6-0.2-34.9,12.1c-27.6,11.3-30.3,12.6-35.4,16.9
		c-13.3,11.8-41.1,27-67.4,37.1c-18.1,6.9-27.3,10-35.9,10v111.3l16.1-3.2c16.5-3.3,23.2-4,26.1-2.4c1.1,0.6,5.5,0.3,13.2-0.8
		c19.8-2.9,34.9-3.9,52.6-3.3c20.3,0.5,32,2.5,52.2,8.6c35.4,10.7,39.6,11.3,76.9,11.3c28.4,0.1,31.2,0.2,40.1,2.2
		c12.8,2.7,30.4,8.7,45.5,15.4c19,8.5,24.4,10,34.6,10.1c19.8,0.1,32.6-6.2,71.7-35.3c18.7-13.9,20.1-15.8,20.8-27.4
		C1591.1,1273.5,1588.7,1267.4,1581.6,1259.8z"/>
	<path id="structure127_label140_st" bar:growlevel="0" bar:type="" class="st5" d="M1621.9,1266.4c-1.4,0.7-8.7,7.4-16.2,14.7
		c-10.2,10-18.3,16.8-32.9,27.6c-19.7,14.8-38.3,27.6-41.2,28.5c-2,0.7-27.6,40-27.6,42.4c0,3.4,12,5.9,29.3,5.9
		c14.2-0.1,23.6-1.7,32.1-5.8l6.7-3.1v-5.5c0-9.5,4.2-16.4,12.9-20.7c3.5-1.7,6.8-2.7,9.3-2.7c3.7,0,4.1-0.3,7.7-5.2
		c18-24.4,25.5-39,27.2-53.6c0.8-5.9-1.9-24-3.5-24C1625,1265,1623.4,1265.6,1621.9,1266.4z"/>
	<path id="structure128_label141_ic" bar:growlevel="0" bar:type="" class="st6" d="M1652.8,1214c-5.6,1.6-12.8,5.6-17.4,9.6
		c-5.2,4.6-8.5,11-9.7,19.2c-1.1,7.1-0.9,9.5,2.6,30.2c3.8,22.9-1.8,36.7-31.1,76c-4.8,6.5-11.1,14.3-13.9,17.4
		c-9.8,10.6-22.5,17.4-35.3,18.8c-4.8,0.6-4.9,0.7-8.1,5.9c-3,4.9-3.2,5.6-2.2,8.5c1.3,3.7,4.8,6.8,7.9,6.8c1.2,0,5.6-0.7,9.7-1.5
		c6.8-1.4,7.9-1.4,11.3-0.3c5.3,1.9,6.8,4.9,5.4,10.4c-2.3,8.4-29.3,82.9-40,110.3c-3.2,8.2-8.2,22.4-11,31.5
		c-2.9,9.1-7.3,22.1-9.9,28.8c-5,12.8-7.4,22.7-10.3,43.1c-3.2,21.9-4.1,34.4-4.1,55.8c0,21.8,0.6,27.9,4.1,38.4
		c4.2,12.9,22,30.2,40.9,39.7c13.5,6.8,38.5,13.4,46.3,12.3c10.9-1.5,18.4-10.2,32.2-36.4c18.6-35.4,26-63.3,27.6-103.1
		c1.7-42.6,8.5-79.4,23.8-129.2c8.4-26.9,19.2-72.9,27.5-116.6c9.4-49.8,13.3-68.5,16.2-78.3c3.6-12.3,4.1-19.5,1.8-32
		c-4.6-26.2-22.2-53.6-40.4-62.6c-5.7-2.7-8-3.4-13.3-3.6C1659.9,1212.9,1655.2,1213.2,1652.8,1214z"/>
	<path class="st7" d="M2054.3,1550.1c-7.4-64.9-30.8-160-53.5-217.7c-21.1-53.4-68.6-131.6-116.1-190.8
		c-22.8-28.4-48.6-56.3-71.8-77.2l-11.6-10.5l-23.9-12.3c-69.1-35.6-106.6-48.3-199.5-68.1c-27.3-5.8-43.6-7.3-78.7-7.3
		c-34.4,0-53,2.4-77.7,10c-36.8,11.3-69.8,28.8-129,68.1c-28.9,19.3-35.5,22.7-58.8,31.1c-31,11.2-47.9,15.9-70.8,20
		c-6.8,1.2-14.1,1.8-22,1.7v64c15,0,30-0.7,40.9-2.2c23.8-3.1,41.4-6.6,55.3-10.7c8.8-2.6,62.1-23.8,74.8-29.7
		c7.8-3.6,9.3-4.7,17-13c33.3-35.6,69.3-60.8,102.2-71.7c29.8-10,51.9-11,85.5-4.1c32,6.7,68.9,19.7,86.1,30.7
		c2.3,1.4,6.8,2.7,13.6,4c43,7.7,106.4,31.2,158.6,59.1c37.5,20,68.7,41.2,89.5,61c13,12.4,40.7,45.4,60.6,72.2
		c60.4,81.4,99.5,174.2,113.2,268.4c3.8,25.6,4.7,38.7,5.1,73.3c0.8,61.8-1.2,77.7-13.7,108.9c-11.1,27.7-24.2,51-59.3,105.3
		c-11.4,17.6-16.6,28.9-32.3,70.6c-15.4,40.7-21.8,53.8-36.4,74.1c-7.8,10.9-7.6,13.4,0.7,7.3c6.1-4.4,15.4-14.7,21.1-23.3
		c10.3-15.3,18.7-35,31.2-72c5.2-15.6,8.4-23.5,15.2-36.9c10-19.9,22.1-39.9,33-54.5c8.5-11.3,11.6-17.4,23.1-44.6
		c4.2-9.9,9.9-23.1,12.7-29.4C2056.2,1663.7,2061.4,1612.8,2054.3,1550.1z"/>
	<path id="structure12_label11_AM" bar:growlevel="0" bar:type="" class="st8" d="M1304.9,1489.2c-19.3,29.4-37,50-56.6,65.5
		c-8.7,6.9-14.8,9.9-20.3,9.9h-4.1l-0.9,4.2c-2.6,12-2,28.2,1.3,38.5c2.6,8.2,8.5,19.4,11.8,22.8c2,2,8.1,5.7,15,9.1
		c11.5,5.7,11.7,5.7,18,5.3c10.4-0.7,24.8-7.8,42.3-21c11.3-8.6,41.2-35.1,51.8-46c9.6-9.8,18.9-21.8,18.9-24c0-0.8-1.3-2.2-2.9-3
		c-22-11.3-50.3-41.8-62.8-67.6c-1.3-2.6-2.7-4.7-3.2-4.8C1312.5,1478.2,1308.9,1483.2,1304.9,1489.2z"/>
	<path id="structure130_label143_mfb" bar:growlevel="0" bar:type="" class="st9" d="M1429.7,1676.3c-35.6,1.4-53,3.9-81.4,11.7
		c-24.1,6.6-33.8,8.3-42.8,7.8c-10.8-0.6-16.1-5.1-16.1-13.6c0-3.2-0.1-3.3-3.1-3.3h-3.2v5.6c-0.1,3.2-0.7,7.7-1.6,10.2
		c-2.9,8.3-11.3,22.2-17,28.4c-3.2,3.2-5.7,6.3-5.7,6.8c0,0.4,1.6,2.6,3.5,4.8l3.4,3.9l5.3-2.6c13.2-6.5,30.4-2.8,51.9,11l6.1,4
		l5.6-0.8c16.6-2.5,39.9-1.9,59.8,1.7c10.7,1.9,13,3.5,14.7,9.4c1.4,5,0.5,14.4-2.3,24.8c-5.3,19.8-8.8,27.6-25.7,58.1
		c-13.4,24.2-15,27.7-16.1,34.4c-0.5,2.9-1.3,16.1-1.8,29.5c-0.5,13.3-1.3,34.8-1.9,47.7c-1.2,29.3-3,50.8-4.9,57.1
		c-5.7,18.9-22.5,41.7-38.8,52.5c-14.2,9.4-33.9,16.6-50.4,18.2c-11.9,1.2-19.9-3-22.8-11.8c-1.4-4.3-0.6-15.2,1.6-22.5
		c1.4-4.7,1.6-6.8,1.1-13.9c-0.5-4.7-1-19.7-1.4-33.5l-0.7-24.9h-16.8h-16.8l-0.5,3.1c-1.5,9.5-16.6,40.9-27.5,57.7
		c-8.1,12.2-20.3,23-26.3,23c-1.4,0-1.5,1.5-1.5,17.7c0.1,15.9-0.6,23.6-2.4,30.9c-0.5,2.3-0.3,2.5,4.2,4.1c3.5,1.2,6.2,3,10.3,7
		c8.6,8.6,13.1,20.1,13.2,33.9v7.1h3.1c4.1,0,42.4-4.9,60.1-7.7c34.2-5.4,44.3-8,73.6-19.3c8.8-3.4,16.9-6.2,18.1-6.2
		c2.6,0,25.2-18.1,43.1-34.5c7.3-6.7,15.2-13.3,17.5-14.7c2.3-1.4,5.9-3.9,7.8-5.5c5.9-5,19-11,29-13.1c7.1-1.4,10.7-1.7,18.7-1.3
		c5.5,0.3,11.3,0.8,12.9,1.1c4.9,0.9,3.6-1.9-2.3-5c-7.9-4.1-14-9.9-16.4-15.4c-1.8-4.2-1.9-5.1-0.9-8.4c0.9-2.9,0.8-3.7,0-4
		c-8.2-2.8-15.8-10.2-18.4-18.1c-9.2-26.9,26.3-50.3,54.9-36.2c3.1,1.5,5.8,2.8,6.1,2.8s1.7-2.7,3.2-5.9
		c7.7-16.5,25.2-33.2,41.7-40.1c10.2-4.1,37.8-13,52.7-16.6c16-4.1,17.1-5.2,8.1-8.5c-18.4-6.7-40.9-21-57.6-36.6
		c-2.8-2.6-5.7-4.8-6.4-4.8c-0.8,0-1.5,1.4-1.9,3.5c-1.1,7.1-10.9,16.4-18.6,17.6c-13.9,2.3-45-20.5-61.3-45.1
		c-13.3-20-23.4-48.6-23.6-66.5c-0.1-7.6,0.2-9.5,1.9-12.6c4.8-9.1,15.1-14.9,26.4-14.9c3.5,0,6.3-0.3,6.3-0.5
		c0-0.3-0.6-2.9-1.3-5.7c-2.9-11.3-7.7-48.2-7.7-59.5c0-3.1-0.4-4.5-1.1-4.3C1447.8,1675.5,1439.4,1675.9,1429.7,1676.3z"/>
	<path id="structure133_label147_AD" bar:growlevel="0" bar:type="" class="st10" d="M1348.7,1320.5c0,5.3-8.5,15.9-20.2,25.1
		l-4.3,3.4l-0.2,27.3c-0.1,20.4,0.2,27.2,1,27.2c2.1,0,26.5-35.6,35.9-52.2c7.2-13,12.2-20.9,16.3-25.8c2.2-2.6,3.9-5.1,3.9-5.7
		s-5.8-0.9-16.2-0.9C1349.9,1318.9,1348.7,1319,1348.7,1320.5z"/>
	<path id="structure135_label149_RtSt" bar:growlevel="0" bar:type="" class="st11" d="M1516.1,1343.6c-7.1,2.5-8.4,2.7-19.6,2.7
		h-11.9l-2,6.3c-2.4,7.8-3,26.7-0.8,32c2.2,5.4,5.8,10.8,7.4,10.8c0.9,0,4.1-3.5,7.4-7.9c7.9-10.7,30.3-44.6,30.3-45.9
		C1526.9,1340.1,1524.7,1340.4,1516.1,1343.6z"/>
	<path class="st12" d="M1184.4,1304c-0.5-2.1-0.9-2.2-7.3-2.2c-3.9,0-12.4,1.2-20.3,2.7c-6.9,1.4-13.8,2.5-16,2.7v10.8
		c0.1,0,0.1,0,0.1,0c24.8,0,31.9-1,38.3-5.1C1183.5,1310.2,1185.2,1307.2,1184.4,1304z"/>
	<path id="structure137_label152_IAD" bar:growlevel="0" bar:type="" class="st13" d="M1296.9,1453.5c-4.4,2-4.9,2.8-25.2,33.1
		c-11.3,17-23.7,35.8-27.4,41.6c-7,11-16.3,21.2-22,24.3c-4,2.2-4,4-0.2,8c2.6,2.8,3.5,3.2,7.2,3.2c5.6,0,8.6-1.3,17.7-8.2
		c19.2-14.4,41.5-40.5,60.7-70.9l5.1-8.1l-3.2-8c-1.8-4.3-3.7-10-4.2-12.6C1304.2,1450.5,1303.6,1450.4,1296.9,1453.5z"/>
	<path id="structure138_label153_PC" bar:growlevel="0" bar:type="" class="st14" d="M1266.8,1452.2c0,2.8-13.1,33.6-22,51.7
		c-14,28.4-22.3,40.8-32,47.4c-5,3.3-5.8,5.2-2,5.2c4.4,0,13.6-5.1,19.7-11c5.8-5.6,8.9-10,29.1-41.1c5.5-8.5,14.9-22.7,20.8-31.3
		c5.9-8.6,10.7-16,10.7-16.5c0-0.6-2.7-0.9-6-0.9c-4.6,0-7.3-0.5-10.9-2.3C1269,1451,1266.8,1450.7,1266.8,1452.2z"/>
	<path id="structure139_label154_IG" bar:growlevel="0" bar:type="" class="st15" d="M1154.8,1082.6c-4.8,2.2-8.6,7.7-8.6,12.4
		c0,1.8,0.4,1.8,6.1,1.3c6.3-0.6,21.1-3,23.9-3.8c2.3-0.7,1.9-2.3-1.4-5.6C1169.4,1081.7,1161,1079.9,1154.8,1082.6z"/>
	<path id="structure13_label12_Re" bar:growlevel="0" bar:type="" class="st16" d="M1189.4,1604.4c-11.3,4-21.6,12.7-25.6,21.7
		c-6.4,13.9-9.5,41.7-9.5,85.7c0,37.7,1.3,45.1,8.8,51.9c3.9,3.6,9.3,5.1,15.1,4c4.6-0.9,39.1-18.3,41-20.6c4.8-5.9,8.1-25.3,9.7-56
		c0.5-9.9,1.8-25.5,2.8-34.6c2.4-21.2,2.1-26.6-2.4-36.2c-2-4.2-4.7-8.3-6.6-9.9C1214.4,1602.9,1200.7,1600.4,1189.4,1604.4z"/>
	<path id="structure140_label155_ANS" bar:growlevel="0" bar:type="" class="st17" d="M1276.3,1734.2c-5.9,1.9-9.1,3.9-12.8,8.1
		c-4.5,5.1-6.8,12.1-6.8,21.2c-0.1,6.1,0.2,7.4,2.9,12.4c3.5,6.5,9,12.9,11.2,12.9c1.1,0,1.5-0.8,1.5-3c0.1-4.1,3.5-13.8,7.2-19.9
		c1.7-2.9,5.5-7.4,8.3-10c6.9-6.4,13.6-9.5,22-10.1c8.6-0.7,8.6-2.1,0.2-6.1C1297.3,1733.7,1284.4,1731.6,1276.3,1734.2z"/>
	<path id="structure141_label156_MPO" bar:growlevel="0" bar:type="" class="st18" d="M1173.6,1914c-2.5,2.3-5.2,6.2-7.3,10.4
		c-3.8,7.9-4.4,12.3-7.8,53.4c-3.7,44.1-4.3,56.3-3.6,69.4l0.6,12.4h2.2c6.5,0,17.1-9.6,26.3-23.4c6.1-9.3,17.7-32.3,23.1-45.9
		c5.4-13.7,5.1-23.4-1.2-40.5c-5.4-14.5-18.2-37.8-21.5-39.1C1180.7,1909.3,1177.6,1910.3,1173.6,1914z"/>
	<path id="structure143_label160_MeAD" bar:growlevel="0" bar:type="" class="st19" d="M1579.4,2037.6
		c-8.7,11.9-15.8,23.4-23.1,38.2c-7.1,14.3-14.1,32.7-14.1,37.1c0.1,2.8,17.7,22.5,21.2,23.3c3,0.9,11.2-0.4,14.8-2.3
		c5.4-2.8,8.6-8.4,11-19.5c1-4.5,3-10.5,4.4-13.4c5.6-11,18.7-26.3,35.6-41.6c6.2-5.5,11.2-10.6,11.2-11.5c0-0.9-1.4-2.7-3.2-4
		c-8.5-6.4-24.7-10.9-43.1-11.9l-10.1-0.6L1579.4,2037.6z"/>
	<path id="structure144_label161_STMPL" bar:growlevel="0" bar:type="" class="st20" d="M1340.2,1749.6c-6.8,1-8.6,1.4-8.6,2.1
		c0,0.4,3.3,4.2,7.5,8.3c14.9,15.3,21.7,32.9,16.3,42.2c-4.8,8.5-13.2,10.7-40.9,11c-16.6,0.3-20.1,0-24.7-1.3
		c-9.9-3.1-15.7-8.8-17.2-17.3c-0.5-2.6-1.5-4.4-4-6.6c-1.9-1.6-4.8-5-6.3-7.4c-4.5-6.9-5.8-6.2-6.5,3.8c-0.4,4.6-1.6,23.1-2.8,41.2
		c-1.3,18.1-2.3,36.4-2.5,40.8l-0.3,8l4.9,1.7c8.4,2.9,25.9,6,39.4,7.1c20.2,1.6,48.1-1.4,65-7.1c4.7-1.5,5.1-2,8-7.5
		c1.6-3.2,8-14.9,14.1-26.1c13.6-24.8,17.2-32.5,21.4-45.4c5-15.4,6.1-21.4,5.8-30.7c-0.4-11.9-0.9-12.3-19.2-15.2
		C1381,1750,1346.2,1748.7,1340.2,1749.6z"/>
	<path id="structure145_label162_DCl" bar:growlevel="0" bar:type="" class="st21" d="M2050.9,1667c-2.9,13.1-8,28.2-14.5,42.3
		c-6.4,14.1-12.7,29.2-12.7,30.6c0,1.4,1.1,1.3,6.4-0.4c3.8-1.3,5.1-1.4,8.1-0.4c4,1.2,9.5,5.6,10.3,8.3c0.7,2.3,2.9,2.2,4.1-0.3
		c2.3-4.2,3.6-11.6,4.4-25.5c0.4-7.9,1.3-19.7,1.9-26.3c1.2-13.9,0.5-21.9-2.9-34.7C2054.5,1655,2053.2,1656.7,2050.9,1667z"/>
	<path class="st22" d="M1149.8,1762.2c-1.2-8.5-4-20.1-6-25.6c-0.8-2.2-1.9-3.5-2.9-3.8v376.2h2.7v-151c0-131.6,0.2-151.6,1.3-155.9
		c0.8-2.7,1.8-7.6,2.3-10.8c0.5-3.2,1.4-9.5,2.3-13.9C1150.6,1770.8,1150.7,1768.3,1149.8,1762.2z"/>
	<path id="structure147_label164_lo" bar:growlevel="0" bar:type="" class="st23" d="M1715,2192.7c-8.1,1.6-10.9,3.8-7.8,6.1
		c0.5,0.6,18.1,3.2,38.9,6.1c35.5,4.8,47.3,6.9,97.3,17.5c9.6,2,22,4.2,27.7,5c27.1,3.5,70-0.2,104.7-8.9
		c21.4-5.4,55.2-17.7,55.2-20.1c0-0.6-0.5-1.2-1.3-1.2c-1.7,0-29.6,6.4-47.3,10.8c-34.3,8.5-62.3,12.6-87,12.6
		c-19.6,0-34.4-2.6-99.1-17.6c-17.9-4.1-36.1-8.2-40.5-8.9C1746.6,2192.4,1721,2191.6,1715,2192.7z"/>
	<path id="structure148_label165_cst" bar:growlevel="0" bar:type="" class="st24" d="M1589.7,1348.7c-10.3,2.4-17.7,11.8-17.7,22.3
		c0,4.6,3.1,3.6,9.4-3c6.6-6.7,14.9-17.4,14.9-19.1C1596.2,1347.5,1594.7,1347.5,1589.7,1348.7z"/>
	<path id="structure14_label13_VRe" bar:growlevel="0" bar:type="" class="st25" d="M1233.5,1638.2c0,4.3-0.6,12.7-1.4,18.6
		c-0.7,5.9-1.9,21.3-2.7,34.2c-1.6,27-3.1,38.2-6.3,47.7c-1.3,3.8-2.3,7-2.3,7.2c0,1.3,4.1-0.2,15.8-5.5
		c13.9-6.5,23.1-12.2,28.4-18.2c3.4-3.8,12.2-18.1,14.6-23.9c5.9-14.5,2.5-28.5-11.1-45.7c-5.6-7-6.2-7.5-16.7-12.7
		c-6-3-12.1-6.4-13.8-7.6c-1.5-1.2-3.2-2.2-3.8-2.2C1233.9,1630.3,1233.5,1633.2,1233.5,1638.2z"/>
	<path id="structure152_label168_AVDM" bar:growlevel="0" bar:type="" class="st26" d="M1385.6,1318.9c-4,1-10.2,7.8-15.9,17.7
		c-15.9,27.5-25.7,42.8-39.8,61.9c-4.6,6.2-7.5,11-7.8,13.1c-2.3,14.5-7.5,27.3-13.8,34.4c-2,2.3-3.7,4.8-3.7,5.6
		c0,5.9,12.7,35.6,15.2,35.6c0.9,0,3.7-4.1,7.7-11.5c8.2-15,22.1-37.4,35.2-56.4c15.8-22.9,18.7-28.3,23.9-43.6
		c3.5-10.1,8.9-38.4,8.9-46.4C1395.5,1319.2,1393.5,1317,1385.6,1318.9z"/>
	<path id="structure155_label171_ictd" bar:growlevel="0" bar:type="" class="st27" d="M1436.3,2159.5c-4.3,1-5.7,2.5-5.7,6.2
		c0,5.5,5.2,9.1,13.1,9.1c7.6,0,13-3.6,13-8.6c0-3.2-1.7-5.4-5.1-6.8C1449.1,2158.4,1440.4,2158.5,1436.3,2159.5z"/>
	<path id="structure159_label175_eml" bar:growlevel="0" bar:type="" class="st28" d="M1469.4,1364.5c-18.6,47-35.4,85.6-57,130.8
		c-26.3,54.9-31.3,63.6-47.8,80.6c-10.3,10.9-34.9,33.2-48.3,44c-15.9,12.9-33.9,22.8-45.3,24.9c-3.3,0.6-6,1.4-6,1.9s2.4,4.1,5.4,8
		c5.9,7.8,9.1,13.4,10.8,19.4c1.2,3.8,1.3,3.9,5,3.9c3.6,0,3.8-0.2,4.8-3.4c1.3-4.1,6.9-13.2,12.6-20c6.4-7.7,10.6-12.2,34.4-37.4
		c58.4-61.6,67.7-72.9,77.9-94.4c2.6-5.5,9.2-21.2,14.6-34.7c5.5-13.6,15.6-38.3,22.5-54.9c16.6-39.8,22-54.3,25.9-68.1
		c1.7-6.3,3.8-13.3,4.6-15.4c1.5-4.4,1.1-5.3-2.9-6.1l-2.7-0.5L1469.4,1364.5z"/>
	<path class="st29" d="M1140.9,1723.5v2.8C1141,1725.3,1141,1724.4,1140.9,1723.5z"/>
	<path id="structure165_label184_sm" bar:growlevel="0" bar:type="" class="st30" d="M1443.2,1746.9c-14.4,3.8-21.2,15.2-18.9,31.3
		c4.3,29.8,18.8,59.9,38.2,79.2c21.3,21.3,40.5,30.6,51.6,25c8.4-4.3,12.9-10.4,12.9-17.6c0-4.3-0.5-5.1-10.4-17
		c-16.5-19.7-40.4-60.7-53.2-91.2l-4.5-10.8l-5.3-0.2C1450.6,1745.7,1445.9,1746.2,1443.2,1746.9z"/>
	<path id="structure168_label201_df" bar:growlevel="0" bar:type="" class="st31" d="M1234.4,1149.3c-11.4,3.6-44.4,9.4-64.3,11.2
		c-20.6,1.8-20.3,1.8-20.3,3.6c0,2.7,7.4,12.9,10.7,14.8c2.1,1.3,4.6,1.8,7.7,1.7c6.6-0.2,31.4-5.3,37.5-7.8
		c7.5-3.1,20.9-10.6,29.2-16.6C1245.1,1148.9,1245,1146,1234.4,1149.3z"/>
	<path class="st32" d="M1334.1,2128.5c-1.6,0.4-10,3.4-18.7,6.8c-29.6,11.4-40.1,14.1-81,20.2c-38.2,5.7-75.7,9.5-93.6,9.5v30.5
		c5.1,0,10.4-0.3,18.6-1c24.1-2,118.4-12.2,124-13.5c16.7-3.7,35-16.7,45.5-32.2c4.6-6.8,8-14.6,8.1-18.3
		C1337,2128,1336.8,2127.9,1334.1,2128.5z"/>
	<path id="structure172_label208_PaV" bar:growlevel="0" bar:type="" class="st33" d="M1143.5,1902.6c0,32,0.2,38.3,1.3,38.3
		c2.7,0,9.2-32,11-54.4c0.4-5.5,0.3-8-0.8-10.5c-1.6-3.9-8.4-11.5-10.2-11.5C1143.7,1864.3,1143.5,1870.7,1143.5,1902.6z"/>
	<path id="structure174_Unlabeled-870-536_S1DZ" bar:growlevel="0" bar:type="" class="st34" d="M1870.4,863.1
		c-57.2,88.4-104,161.2-104,161.8c0,0.7,3.1,3.6,7,6.5c3.8,2.8,12.1,9.4,18.4,14.5c6.3,5.1,12.1,9.3,12.8,9.3
		c1.2,0,220.2-315,220.1-316.6c-0.1-1.5-46.4-36.2-48.4-36.2C1974.9,702.4,1946.2,746,1870.4,863.1z"/>
	<path id="structure175_label66_Cg2" bar:growlevel="0" bar:type="" class="st35" d="M1141.7,944c0,86,0.3,125.6,0.9,125.6
		c0.6,0,1.9-0.6,3.1-1.4c2.3-1.5,10.4-2.9,10.4-1.7c0,0.4-1.6,0.9-3.6,0.9c-2,0.1-5.1,1-6.9,1.9l-3.4,1.8l-0.3,12.7
		c-0.2,12.3-0.2,12.8,1.6,12.8c1,0,1.8-0.6,1.8-1.4c0-2,2.5-6.8,4.9-9.3c2.9-3.2,6.8-4.9,11.3-4.9c5.6,0,9.9,2,14.3,6.5
		c4.4,4.6,4.1,4.6,23.6-1c51.1-14.7,69.2-31.5,108.9-101.2c7.1-12.4,14.7-25.4,16.9-28.8c5-8,15.2-20.1,20.4-24.5c2.3-1.8,4-4,4-4.8
		c-0.1-0.9-34.9-19.6-102.1-54.9c-56.1-29.4-102.9-53.6-103.9-53.8l-1.9-0.3L1141.7,944L1141.7,944z"/>
	<path class="st36" d="M1165.3,1878.9c-0.7-1.2-2-2-3.2-2c-3.9,0-5,2.6-6.4,14.9c-2.4,20.9-6.5,40.8-10.4,51.1
		c-1.6,4.4-1.7,7.6-1.7,85.3v80.8h-2.7v14.4c6.2-0.2,9.7-4.8,12.4-16.6c1.3-5.4,1.4-13.1,1.5-51.4c0.1-49.6,1.1-65.3,8.1-127.2
		C1166.3,1898.8,1167.1,1882.2,1165.3,1878.9z"/>
	<path class="st37" d="M1159.4,2114.1c-5-2.4-7.2-1.9-8.9,2c-2.3,5.3-5.9,7.9-9.6,7.9v40.2c4.5,0,8.7-0.1,12.4-0.3
		c6.8-0.4,15.7-0.9,19.8-1.3l7.4-0.7v-6.2C1180.4,2137.2,1171.8,2120,1159.4,2114.1z"/>
	<path id="structure180_Unlabeled-2107-816_Unlabeled" bar:growlevel="0" bar:type="" class="st38" d="M1409.9,954.4
		c-10.9,1.3-24.9,4.5-33.2,7.4c-22.7,8-36.8,18.9-50.7,39c-8.3,12.1-17.7,24.4-23.9,31.1c-4.8,5.2-5.7,7.1-3.3,7.1
		c0.7,0,7.5-4,15-8.8c45.6-29.2,75.2-44.1,107.6-54.1c27.4-8.4,44.6-10.3,87.3-9.8c25.4,0.4,30.8,0.3,30.8-0.8
		c0-0.6-0.4-1.2-0.8-1.2c-0.4,0-7.8-1.2-16.4-2.7c-26.5-4.5-56.8-7.4-82.7-7.7C1427,953.8,1413.6,954,1409.9,954.4z"/>
	<path id="structure182_Unlabeled-2202-1291_Unlabeled" bar:growlevel="0" bar:type="" class="st38" d="M1495.7,1388.7
		c-3.1,4.1-5.7,8-5.7,8.5c0,1.5,9.5,8.2,14.3,10.1c9.3,3.5,19.4,1.4,27.3-5.4c1.8-1.5,3.7-2.8,4.2-2.8c0.5,0,1-0.6,1-1.4
		s1.3-3.5,2.7-5.9c1.5-2.3,2.7-4.7,2.7-5.1c0-0.4-6.2-1-13.7-1.3c-8.9-0.3-15.6-1-18.7-2C1501,1380.6,1501.8,1380.3,1495.7,1388.7z"
		/>
	<path class="st38" d="M1208.7,1413.8c-2-4-2.6-6.8-2.9-12.6c-0.3-5.7-0.7-7.6-1.6-7.6c-1.8,0-16.7,9.4-22.8,14.2
		c-2.8,2.3-8.9,7.7-13.6,12.2c-15,14.4-22.5,20.1-27,20.3v14.2c8.2,0,16.5-4.4,27.9-13.1c4.1-3.2,8.9-6.3,10.5-6.8
		c1.9-0.6,3-1.5,3-2.5c0-2.1,13.9-9,22.5-11.3c3.2-0.9,6-1.7,6.2-1.8C1211,1419,1210.1,1416.6,1208.7,1413.8z"/>
	<path id="structure185_Unlabeled-2479-1766_Unlabeled" bar:growlevel="0" bar:type="" class="st38" d="M1748.8,1810.4
		c-7.8,5.7-18.7,11-26.9,13.2c-3.5,0.9-6.5,2.2-6.7,2.8c-0.2,0.6,1.1,2.6,2.8,4.4c7.2,7.4,11.1,22.1,10.3,38.9
		c-0.7,16.5-3.2,22.9-10.1,26.5c-7.6,4-35.2,2.8-55.3-2.3c-11.9-3-11.7-3-11.7-1.5c0,0.6-3.1,4.6-6.8,8.7c-6.9,7.7-7.9,9.6-5.1,10.6
		c11.1,3.7,21.4,11.9,25,19.6c6.3,13.7,4.2,33.2-5.1,47.2c-3.8,5.7-4.2,7.3-2.2,7.3c0.7,0,6.8-1.6,13.2-3.6
		c43.8-13.3,82.1-13.8,107.1-1.3c8.2,4.1,8.9,2.7,2.9-5.4c-9.1-12.1-18.3-34.9-28.7-71.5c-4.8-16.6-6.6-36.9-5-54.6
		c1.7-18.2,6.8-39.2,9.6-39.2c0.7,0,1.3-0.9,1.3-2.3c0-1.3-0.5-2.3-1.1-2.2C1755.6,1805.9,1752.3,1808,1748.8,1810.4z"/>
	<path id="structure187_Unlabeled-2316-1984_Unlabeled" bar:growlevel="0" bar:type="" class="st38" d="M1605.2,2004.8
		c-4.5,1.9-26.6,8.1-31.5,8.9c-2.7,0.5-9.6,1.7-15.3,2.8c-8.1,1.6-13.9,2-26.7,2.1c-9.1,0.1-16.5,0.4-16.5,0.7
		c0,0.3,0.8,4.1,1.9,8.5c4.1,17.5-0.1,29.5-12.3,35.4c-3,1.4-5.8,1.8-11.2,1.8c-9.7,0-9.3,1.4,1.2,5.3c19.6,7.1,31.9,15.4,33.9,22.7
		c1.1,3.9,0.1,9-2.2,12.1c-2.3,3.1-1.7,4.1,2.4,4.1c3,0,4.9,0.7,7.7,2.7c4.4,3.2,5.6,3.3,5.6,0.8c0-4.2,7.1-22.9,14.1-36.8
		c9.9-19.7,25.7-44.1,28.8-44.1c0.7,0,1.3-0.7,1.3-1.6c0-1.9,14.5-16.3,21-20.9c2.3-1.6,4.2-3.5,4.2-4.2
		C1611.5,2003.6,1608.5,2003.5,1605.2,2004.8z"/>
	<path id="structure1_label0_AHA" bar:growlevel="0" bar:type="" class="st39" d="M1249.4,1884.7c-2.5,41.9-3.9,115.7-2.6,138.9
		c0.6,10.7,1,13,2.2,13.3c0.9,0.2,2.1-1.4,3.6-4.5c5.5-11.9,15.8-24,27.3-32.4c14-10,37.8-17.8,54.9-17.9c9.6-0.1,15.6,1.8,19.3,6
		c1.5,1.7,3.2,3.1,3.6,3.1c1.8,0,2.2-6.5,4.2-61.6c0.7-20.3,1.6-40.7,2-45.3c0.6-9.5,0.7-9.4-7.4-6.9c-13.1,4-26.1,5.9-43.2,6.5
		c-22.7,0.6-38.7-1.5-61.3-8.3C1250,1874.9,1249.9,1875.3,1249.4,1884.7z"/>
	<path id="structure20_label19_SO" bar:growlevel="0" bar:type="" class="st40" d="M1429.5,2061.4c-8.9,2.3-18.7,6.7-18.7,8.5
		c0,1.7,1.5,1.8,8.5,0.1c7-1.7,20.3-1.7,26.8,0c10.3,2.7,21.5,9.9,34.6,22.4c7.7,7.3,19.2,21.1,23.8,28.7c3.2,5.3,5.3,6.6,5.3,3.1
		c0-3.3,3.8-8.9,8.1-12c7-5,9.7-8,10.8-11.9c2.6-9.9-4.9-17.8-25.4-26.6c-10.5-4.6-30.3-11.3-37.9-12.9
		C1456.5,2059.1,1438.3,2059.3,1429.5,2061.4z"/>
	<path id="structure21_label20_ESO" bar:growlevel="0" bar:type="" class="st41" d="M1490.2,2011.4c-6,10.6-19.6,17.2-35.5,17h-8.8
		l-0.6,3.1c-1.8,9.8,6.2,18.9,24.1,27.2c22.3,10.5,39.3,8.1,46.8-6.6c2.3-4.6,3.1-13.8,1.7-20.4c-1.6-7.9-3.9-14.3-5-14.3
		c-2.1,0-12.1-5.3-15.1-8c-1.8-1.5-3.6-2.8-4.1-2.8C1493.4,2006.5,1491.6,2008.7,1490.2,2011.4z"/>
	<path class="st42" d="M1164.9,1621.7c-1.2-1.2-12.8-2-24.1-2.1v101.5c1.7,0,3.2,0.2,6.8,0.6l5.5,0.7l0.5-23.3
		c0.9-35.9,4-59.8,9.2-71.4C1164.3,1624.6,1165.2,1621.9,1164.9,1621.7z"/>
	<path class="st43" d="M1222.4,1569.6l1.5-6.8l-2.4-2.8c-1.3-1.5-2.3-3.2-2.3-3.8c0-0.5-1.1-0.7-2.4-0.4
		c-11.9,2.3-13.4,2.3-20.3,1.4c-4-0.4-8.7-1.3-10.3-1.8c-3.7-1.2-9.4-7.7-11.1-12.4c-0.6-2.1-1.8-3.7-2.5-3.7c-0.7,0-3.2,1.8-5.7,4
		c-7.3,6.6-15.2,9.4-26,9.5v66.6c9.3,0,18.6,0.3,20.9,0.9l3.8,1l5.9-5.8c10.3-10.1,24.8-15.5,35.3-13.3c2.6,0.6,7.3,2.3,10.4,3.9
		c3.1,1.5,5.8,2.6,6.1,2.3s-0.2-3.6-0.9-7.4C1220.5,1592.3,1220.6,1578.1,1222.4,1569.6z"/>
	<path class="st42" d="M1182.8,1434.1c-3.6,0-6.3,1.3-14.2,7.5c-9.5,7.3-14.2,10-20.9,11.9c-2.3,0.7-4.6,1-6.8,1.1v97
		c11.3,0,12.5-0.2,17.2-2.4c2.9-1.3,7.2-4.3,9.6-6.6l4.5-4.2l-0.4-12.8c-0.5-9.7-0.2-14.7,1-21.2c2-11.5,7.6-32.8,12.5-48.4
		c2.3-7,4.1-13.9,4.1-15.1C1189.4,1437.9,1185.6,1434.1,1182.8,1434.1z"/>
	<path id="structure25_label25_PT" bar:growlevel="0" bar:type="" class="st44" d="M1201.1,1422c-9.9,3.3-18.9,8.3-18.9,10.4
		c0,1.1,0.6,1.7,1.8,1.7c2.8,0,5.4,3.5,5.4,7.2c0,1.8-1,6.3-2.3,10c-3.3,9.9-8.9,29.6-11.6,41.9c-7.5,33-2.5,58.5,12.1,62.5
		c6.1,1.6,15.8,0.7,21.2-2.1c9.1-4.7,18.9-16.7,29.1-35.7c9.7-18.2,27.2-58.1,28.7-65.8c0.4-2.3,0-3.2-2.7-6c-1.7-1.8-4.4-5.4-6-8
		c-4.4-7.4-9.4-9.6-29.3-13c-6-1-12.1-2.6-13.8-3.6C1210.9,1419.2,1209.3,1419.3,1201.1,1422z"/>
	<path id="structure27_label27_Rt" bar:growlevel="0" bar:type="" class="st45" d="M1473,1384c-2.2,6-9.9,25.4-17.2,42.9
		c-7.3,17.6-18.5,44.7-24.8,60.3c-12.5,31.1-18.5,43.8-25.5,54.1c-8.3,12.3-23.6,29.5-64.5,72.8c-37,39-43.2,46.3-48.2,56.9
		c-2.1,4.2-2.7,6.9-2.7,10.9c0,10.4,4.2,13.7,18,13.5c9.9-0.1,18.8-1.9,42.3-8.4c26.2-7.2,46.2-10,81.4-11.3c12.9-0.4,17-0.9,20-2.3
		c4.9-2.2,12-8.8,16.9-15.8c6.8-9.6,28.4-43.8,32.9-52.2c5.5-10.3,12.8-29,18.8-48.6c2.6-8.4,7.9-23.4,11.7-33.3
		c7.8-20.1,24.6-65.6,33.8-91.8c6.8-19.1,7.4-23.1,4.1-25.7c-2.6-2.2-10.6-2.3-18.8-0.4c-6.8,1.6-9.5,0.8-12.3-3.8
		c-2.3-3.7-3.5-3.7-7.5-0.2c-1.8,1.6-5.4,3.9-8.1,5.1c-16.5,7.6-39.3-7.4-43.4-28.4c-0.6-3.1-1.6-5.6-2.2-5.6
		C1477.4,1372.9,1475.2,1377.9,1473,1384z"/>
	<path id="structure28_label30_AA" bar:growlevel="0" bar:type="" class="st46" d="M1717.7,1972.3c-25.7,2.5-56.4,11.3-89.7,25.6
		c-6,2.6-13.9,6.7-17.5,9.1c-6.9,4.6-24.1,20.6-24.1,22.4c0,1.4,4,2.3,9.8,2.3c12.9,0,32.4,5.7,40.4,11.7c2.6,2,5.2,3.6,5.8,3.6
		c0.6,0,4.4-2.5,8.3-5.5c12.6-9.7,23-16.1,38.7-23.8c35.1-17.2,67.6-27.7,89.4-29c5.4-0.4,8.3-0.9,8.3-1.6c0-1.3-12.3-7.7-19.3-10.2
		C1754.8,1972.7,1734.5,1970.8,1717.7,1972.3z"/>
	<path id="structure29_label31_LOT-1" bar:growlevel="0" bar:type="" class="st47" d="M1583,2129.7c-3.4,4.2-8.2,6.6-13.9,7.1
		c-2.6,0.3-4.3,0.8-4.3,1.5c0,2.1,23.8,24.2,32,29.8c16.4,11.2,28.8,15.8,59.2,22.3c18,3.9,49.1,9,49.9,8.4
		c0.3-0.3-1.2-5.9-3.2-12.5c-6.4-21.1-6.9-27.9-2.9-36.1c1.2-2.3,1.8-4.5,1.4-4.9c-0.4-0.4-17.2-1-37.3-1.3
		c-38.4-0.6-41.5-0.9-54.7-5.3c-6-2.1-14.8-7-18.5-10.4C1587.7,2125.4,1586.3,2125.7,1583,2129.7z"/>
	<path id="structure2_label1_STMPM" bar:growlevel="0" bar:type="" class="st48" d="M1340.2,1749.6c-6.8,1-8.6,1.4-8.6,2.1
		c0,0.4,3.3,4.2,7.5,8.3c14.9,15.3,21.7,32.9,16.3,42.2c-4.8,8.5-13.2,10.7-40.9,11c-16.6,0.3-20.1,0-24.7-1.3
		c-9.9-3.1-15.7-8.8-17.2-17.3c-0.5-2.6-1.5-4.4-4-6.6c-1.9-1.6-4.8-5-6.3-7.4c-4.5-6.9-5.8-6.2-6.5,3.8c-0.4,4.6-1.6,23.1-2.8,41.2
		c-1.3,18.1-2.3,36.4-2.5,40.8l-0.3,8l4.9,1.7c8.4,2.9,25.9,6,39.4,7.1c20.2,1.6,48.1-1.4,65-7.1c4.7-1.5,5.1-2,8-7.5
		c1.6-3.2,8-14.9,14.1-26.1c13.6-24.8,17.2-32.5,21.4-45.4c5-15.4,6.1-21.4,5.8-30.7c-0.4-11.9-0.9-12.3-19.2-15.2
		C1381,1750,1346.2,1748.7,1340.2,1749.6z"/>
	<path id="structure30_label32_LOT-2" bar:growlevel="0" bar:type="" class="st49" d="M1670,2074.1c-21.8,2.1-46.8,5-56.1,6.8
		c-8,1.3-7.7,1.2-15.9,13.2c-5.3,7.7-6,9.6-9.5,24l-1.6,6.7l3.7,3.3c4.7,4.1,14.1,9.1,21.8,11.4c9.6,3,20.3,3.7,56.4,4.1l34.5,0.4
		l2.9-3.7c1.6-2.1,13.8-15,27.1-28.8c13.2-13.8,24-25.6,24-26.2c0-1-27-8.6-42.1-11.8C1706.7,2071.8,1692.3,2071.9,1670,2074.1z"/>
	<path id="structure31_label33_LOT-3" bar:growlevel="0" bar:type="" class="st50" d="M1739.3,1997.3c-26.5,8.8-59,23.9-75.6,35.1
		c-20,13.5-53.1,42.7-53.1,46.9c0,1.4,1.1,1.3,15.8-0.8c16.4-2.3,54.6-6,68.4-6.8c12.2-0.6,16.9,0.2,47.3,8.2l16.7,4.3l2.4-2.6
		c4.3-4.8,13-18.6,15.1-23.8c1.3-3.6,2.1-7.6,2.3-13.7c0.4-8.4,0.3-9-4.3-22.7C1765.1,1993.5,1760.6,1990.3,1739.3,1997.3z"/>
	<path id="structure32_text3195_ACo" bar:growlevel="0" bar:type="" class="st51" d="M1753.6,2090.5c-2.8,3.1-14.3,15.1-25.7,26.8
		c-11.3,11.7-21.2,22.3-21.9,23.7c-1.7,3.2-0.4,4.1,6.5,4.1c6.3,0,34.7,2.3,51.6,4.1c25.9,2.8,51.1,7.1,62.8,10.8
		c3.9,1.3,7.3,2.2,7.5,2c0.2-0.3,0.9-4.9,1.6-10.3c1.3-9.7,3.5-19.8,6.9-30.9c0.9-3.1,1.7-6.4,1.7-7.4c0-4.7-15.7-13.9-31-18.4
		c-6.9-1.9-50.7-10.4-53.8-10.4C1759.1,2084.8,1756.4,2087.3,1753.6,2090.5z"/>
	<path id="structure33_text3197_OlfCx-1" bar:growlevel="0" bar:type="" class="st52" d="M1700.1,2149.8c-2.2,4.2-2.3,5.3-2,13.2
		c0.3,6.7,1.2,11.3,3.9,20.1c2.1,7,3.9,11.5,4.6,11.5c0.6,0,2.3-0.4,3.7-1c4.6-1.8,17.6-2.5,29.6-1.6c13.1,1,23.6,3,64,12.4
		c15,3.5,28.3,6.4,29.6,6.4h2.4l-0.6-8.3c-0.3-4.5-0.6-15.2-0.6-23.8v-15.6l-4.8-1.7c-15.4-5.8-61.1-12.3-107.5-15.5
		C1701.2,2144.6,1702.9,2144.3,1700.1,2149.8z"/>
	<path id="structure35_label35_BMA" bar:growlevel="0" bar:type="" class="st53" d="M1774.3,1989.4c-9.5,1.2-16.1,2.7-16.1,3.9
		c0.1,0.6,1.4,1.9,3,2.9c4.7,3,8.3,9.7,13.2,24.6c5.2,15.6,6.1,21.6,4.5,29.2c-1.4,6.9-7.8,19.5-13.4,26.6c-2.5,3.1-4.6,6.1-4.6,6.8
		c0,0.8,2.9,1.6,9.3,2.8c21.7,3.7,41.2,7.7,47.3,9.8c12.6,4.3,25.5,12,26.7,15.8c0.9,2.9,2.5,2.2,8.3-3.9
		c11.1-11.6,15.2-22.8,17.4-47c1.1-12.3,0.1-22.8-2.6-28.2c-2.4-4.8-14.3-15.8-23.9-22.1c-9.5-6.3-26.9-14.8-36.9-18.1
		C1794.6,1988.8,1786.8,1988,1774.3,1989.4z"/>
	<path id="structure36_label36_EAC" bar:growlevel="0" bar:type="" class="st54" d="M1508.9,1740.8c0,2.3,13,27.8,21.6,41.9
		c8.7,14.6,19,29.1,29.4,41.7c9.8,11.8,28.5,30,38.4,37.2c4.4,3.2,9.4,7.1,11,8.6c3.5,3.2,22.5,13.2,33.2,17.4
		c18.1,7.2,42.1,11.3,61.5,10.6c19.3-0.6,23.1-5.2,24.2-28.6c0.8-17.4-3.2-31.9-11-39.6l-3.9-3.8l-8.7,1.2
		c-10.4,1.3-30.8,0.6-44.1-1.4c-22.8-3.5-38.8-17.6-55.4-48.8c-2.2-4.1-4.3-7.5-4.7-7.5c-0.4,0-1.9,0.7-3.1,1.6
		c-6,4.2-12.7,4.8-24.5,2c-23.7-5.7-43.1-15.7-56.9-29.2C1510.5,1738.9,1508.9,1738.1,1508.9,1740.8z"/>
	<path id="structure37_label40_GP" bar:growlevel="0" bar:type="" class="st55" d="M1704.3,1364.5c-2.2,13-10.1,52.7-14.6,73.1
		c-6.3,28.3-10.7,45.5-17.4,67.7c-16.1,53.4-21.8,83.7-23.9,129.5c-1.9,39-7.4,61.3-23,93.6c-9,18.5-14.6,28.4-19.9,34.8
		c-2.2,2.6-3.9,5.2-3.9,5.8c0,1.7,7.9,16.2,13.1,24.1c2.4,3.7,8.3,10.6,13,15.4c13.8,13.7,22,16.7,50.1,18.8c21,1.4,41.1-1.4,55.6-8
		c14.3-6.5,29.2-18.6,42.3-34.7c26-31.7,41.3-66.5,47.9-109c2.3-15,2.3-56.3,0.1-72c-9.4-63.6-33.9-123.5-78.7-191.7
		c-13.8-21-37.4-54.4-38.6-54.5C1705.9,1357.6,1704.9,1360.8,1704.3,1364.5z"/>
	<path id="structure38_label41_IPAC" bar:growlevel="0" bar:type="" class="st56" d="M1752.9,1815.9c-8.6,26.1-9.3,60.8-1.4,88.1
		c15.5,54.2,27.5,77.2,43.8,84.4c9,4,30.6,6,45.1,4.3c6.4-0.8,8.2-2.7,3.5-3.8c-3.9-0.8-9-5.5-11.6-10.7c-3.3-6.4-3.3-13.1-0.1-18.6
		c5-8.6,17.4-17.8,31.6-23.8c4.2-1.8,6-3,5.9-4c-0.2-0.8-4-3-8.8-5c-11.3-4.9-15.1-6.8-24.8-13.3c-31.7-21.2-58.2-48.8-70.6-73.6
		c-4.1-8.1-8.1-21-8.1-26.1C1757.3,1808.3,1755.1,1809.4,1752.9,1815.9z"/>
	<path id="structure39_label42_I" bar:growlevel="0" bar:type="" class="st57" d="M1862.3,1936.8c-19.9,8.6-32.1,20.6-32,31.5
		c0.1,12.6,8,21.1,19.8,21.1c10.3,0,31.3-7.5,35.6-12.7c0.6-0.7,1.7-3.7,2.5-6.6c3.3-11.3,0.1-22.3-9.1-31.5
		C1873.2,1932.6,1872,1932.4,1862.3,1936.8z"/>
	<path id="structure3_label2_PaAP" bar:growlevel="0" bar:type="" class="st58" d="M1168.9,1803.1c-7.9,0.9-9.9,2.2-19,11.8
		l-6.4,6.9v19.8v19.8l4.8,5c2.7,2.7,5.6,6.6,6.5,8.6c1.8,4,2.3,4.2,5.5,2.1c2.2-1.3,2.3-1.3,4.2,0.5c1.8,1.7,2,3.1,2.3,12.2
		c0.3,7.2,0.6,10.4,1.3,10.3c0.6,0,6.7-6.8,13.5-15c6.8-8.3,16-19.2,20.3-24.2c8.6-10.3,12.6-16.4,16.1-24.8c2-4.9,2.3-7,2.4-15
		v-9.3l-3.4-3c-5.2-4.5-11.5-5.9-27.6-6.3C1181.8,1802.5,1172.5,1802.7,1168.9,1803.1z"/>
	<path id="structure40_label43_VEn" bar:growlevel="0" bar:type="" class="st59" d="M1961.2,1850.5c-0.4,0.9-4.1,11.7-8.3,24.1
		c-8.5,25-13.5,37.7-19.4,49.6c-9.6,19.1-23.4,35.9-35.7,43.6c-3.6,2.3-8.6,5.9-11.3,8.3c-5.7,5-9.2,6.8-18.8,10
		c-16.8,5.5-24.8,7.1-38,7.6c-8.6,0.4-12.9,0.8-12.8,1.5c0,0.5,4,2.9,8.7,5.2c15.9,7.7,32.5,19.8,39.3,28.7c1.8,2.4,3.7,4.4,4.2,4.4
		c0.4,0,2.8-1.4,5.2-3c2.4-1.7,9.4-5.4,15.5-8.4c35.4-16.8,47.9-26,56-41.5c4.7-9,6-16,6-32.5c0-21,2.8-44.3,9.5-80.4
		c1.7-9.3,3.2-17.3,3.2-17.7C1964.3,1848.4,1961.9,1848.9,1961.2,1850.5z"/>
	<path id="structure41_label44_CxA-1" bar:growlevel="0" bar:type="" class="st60" d="M1835.1,2184.4c0.4,10.3,0.9,20.7,1.3,23.2
		l0.6,4.4l14.4,2.9c23.5,4.8,35.8,6.1,50.7,5.4c19.7-0.9,48-4.9,66.8-9.4c5.9-1.4,6.8-1.8,6.8-3.6c0-1.2-4.5-8.3-10.8-16.9
		l-10.8-14.8l-8.1,0.4c-9.9,0.7-20.9,2.9-35.1,7.2c-38.3,11.4-37.9,11.3-46,5.9c-3-2-10.1-8.1-16-13.5c-6.3-5.9-11.4-10-12.5-10
		C1834.5,2165.8,1834.5,2166.1,1835.1,2184.4z"/>
	<path id="structure42_label45_CxA-2" bar:growlevel="0" bar:type="" class="st61" d="M1839.3,2135.4c-2.3,9.8-3.7,19.5-3.7,24.6
		c0,3.4,0.5,4,11.5,14.1c14.7,13.4,16.1,14.6,20.7,17c5,2.6,9.5,2.2,24.2-2.3c24.6-7.6,35.5-10.4,44.4-11.7
		c5.2-0.7,10.8-1.5,12.5-1.8l3.1-0.4l-0.6-4.7c-0.4-2.6-1-8.9-1.4-14.1c-0.5-5.2-0.8-9.5-0.8-9.7c-0.2-0.8-4.4,0.3-11.3,3.1
		c-10.3,4-21.1,6.7-27.6,6.7c-10.8,0-37.1-8.5-51.8-16.6c-3.4-1.9-8.3-5.4-10.8-7.8c-2.5-2.3-5-4.3-5.6-4.3
		C1841.6,2127.1,1840.3,2130.9,1839.3,2135.4z"/>
	<path id="structure43_label46_CxA-3" bar:growlevel="0" bar:type="" class="st62" d="M1886.3,2024c-6.3,3.2-12.9,6.9-14.5,8.4
		c-3,2.4-3,2.6-2.1,6.6c1.3,5.9,1.2,20.4-0.4,31.3c-2.8,18.8-7.5,29-18.9,40.3c-8.3,8.4-9.5,13.3-4.7,18.8
		c7.6,8.7,31,19.8,51.5,24.3c10.4,2.3,22.9,1.5,32.9-2.1c4.2-1.5,10.4-3.7,13.7-4.8l6.1-2.1v-7.2c0-3.9,0.6-15.5,1.3-25.6
		c2.4-33.8,1.4-55.1-2.9-64.9c-3.8-8.5-21.2-21.9-34.2-26.5C1903.8,2016.7,1899.8,2017.2,1886.3,2024z"/>
	<path id="structure44_label47_DEn" bar:growlevel="0" bar:type="" class="st63" d="M1983.2,1814.4c-4.5,1.6-5.8,3.2-10.3,11.5
		c-4.6,8.7-4.9,9.9-8.9,29.8c-8.2,41.1-11.6,67.4-11.7,89.5c0,11.8,0.3,15.9,1.6,20.3c6.1,20.3,21.2,30.7,40.4,27.6
		c26.7-4.4,54-32.3,61.6-62.8c2.5-10.2,2-23.6-1.4-38.5c-8.5-36.8-14.8-52.9-24.4-62.6c-4.8-4.8-5.5-5.1-19.2-9.8
		C1997.2,1814.7,1987.2,1812.9,1983.2,1814.4z"/>
	<path id="structure45_label48_I" bar:growlevel="0" bar:type="" class="st57" d="M1887.9,1893.6c-11.1,2.9-12.7,4.1-12.7,9.6
		c0,4.3,1.9,6.2,8.4,8.6c19.3,7.3,29.3,3.5,30.9-11.3c0.5-4.8,0.4-5.5-1.5-7.2C1910.1,1890.5,1899.3,1890.6,1887.9,1893.6z"/>
	<path id="structure46_label49_Pir-1" bar:growlevel="0" bar:type="" class="st64" d="M2224.9,1889.7c-6.4,25.8-18.5,53.5-34.7,79
		c-15.8,25.1-44.6,65.3-63,87.8c-16.8,20.6-54.6,57.6-76.4,74.8c-26,20.5-57.4,35.6-88.4,42.2c-5,1.1-7,1.9-7,2.9
		c0,0.8,4.4,7.3,9.8,14.6c5.3,7.2,10.3,14,11,15.1c0.7,1.2,1.9,2.1,2.6,2.1c2,0,53.8-12.2,63.2-14.9c14.7-4.1,39.9-19.1,60.6-35.6
		c62.8-50.6,143.7-157.1,173.2-228c4.4-10.6,11.7-32.9,12.4-37.9l0.4-3.7l-16.9-2c-9.4-1.1-22.9-3-30.1-4.2
		c-7.2-1.2-13.3-2.3-13.6-2.3C2227.7,1879.6,2226.3,1884.2,2224.9,1889.7z"/>
	<path id="structure47_label50_Pir-2" bar:growlevel="0" bar:type="" class="st65" d="M2203.5,1886.1
		c-42.6,74.2-47.1,80.9-80.8,121.4c-11,13-26.9,33-35.4,44.4c-32.3,43.1-46.8,56.8-74.7,70.6c-14.7,7.3-24.7,11.1-46.3,17.6
		l-15.8,4.7l0.1,9.4c0.1,5.1,0.6,11.7,1.3,14.5l1,5.1h3.5c5.1,0,25.9-5.6,37.2-9.9c26.2-10.2,48.7-24.6,75.3-48.2
		c35.9-31.9,57-55.4,86.1-95.8c42.8-59.5,56.7-84.5,67.5-121.8c1.8-6,3.2-12.8,3.3-14.9l0.2-4l-7.7-1.5c-4.2-0.9-7.9-1.6-8.3-1.7
		C2209.6,1876,2206.7,1880.6,2203.5,1886.1z"/>
	<path id="structure48_label51_Pir-3" bar:growlevel="0" bar:type="" class="st66" d="M2031.6,1824.1c-3.4,1-4.5,2.7-2.2,3.6
		c1.6,0.6,9,11.8,11.4,17.4c7.7,17.8,17,55.6,17,69.4c-0.1,28.7-20.2,59.7-47.9,73.6c-9.4,4.7-16,6.2-24.8,5.7
		c-14.2-0.9-26.2-11-31.2-26.2c-0.9-2.7-3-1.7-3.7,1.7c-2.8,15.3-17.4,31-39.5,42.7c-3.5,1.9-5.8,3.7-5.8,4.4c0.2,0.7,2.4,1.8,5,2.4
		c11.9,3.1,30.3,15.4,36.7,24.7c1.3,2,3.2,6.7,4.1,10.5c2.8,11.8,3,24.1,0.8,58.1c-1.1,17.3-1.8,31.6-1.4,31.9
		c0.6,0.6,28-7.6,39.9-12c12.4-4.5,31.2-13.7,39.2-19.2c19.3-13.1,31.6-26,58.3-61.7c7.7-10.4,22.6-29.1,32.9-41.5
		c33.6-40.1,40.8-50.7,72.9-106.6c8.1-14.1,14.6-26,14.3-26.6c-0.2-0.5-3.2-1.5-6.5-2.2c-11-2.2-44.6-10.6-61-15.4
		c-32.2-9.3-63.8-20-90.8-30.7c-7.3-2.9-13.6-5.2-14-5.2C2035.2,1823.1,2033.4,1823.5,2031.6,1824.1z"/>
	<path id="structure49_label52_VCl" bar:growlevel="0" bar:type="" class="st67" d="M2027.8,1740.5c-4.3,1.9-6.5,4.9-12.5,17.3
		c-3.2,6.4-7.9,14.4-10.6,17.9c-8,10.3-24.1,35.2-24.1,37.3c0,0.4,3.2,0.8,7.2,0.8c6.3,0,8.9,0.6,22.1,5c20.3,6.8,24.3,6.7,31-0.9
		c7.2-8.2,9.3-18.6,9.4-46.4l0.1-21.2l-2.7-3.9c-1.4-2.1-4.1-4.5-5.9-5.4C2038.1,1738.9,2031.6,1738.8,2027.8,1740.5z"/>
	<path class="st29" d="M1140.8,1725.7c0,0.4,0,0.7,0,1v-3.6C1140.8,1723.7,1140.8,1724.6,1140.8,1725.7z"/>
	<path class="st29" d="M1258,1730.2c-0.7,0-3.3,1.2-5.7,2.7c-2.4,1.4-14.7,7.4-27.2,13.1c-12.4,5.8-27.7,13.1-33.9,16.3
		c-10.1,5.2-11.8,5.8-16.5,5.8c-7.1-0.1-12.3-3.1-15.8-9.4c-3.1-5.4-4.3-11.5-5.1-26.2l-0.6-10.5h-4.1c-2.3,0-5-0.3-6.1-0.6
		c-1.5-0.4-1.9-0.4-2,1.6v3.6c0.1,2.7,0.6,4.5,1.8,5.9c3.3,4.2,9,26.9,9,35.8c0,5.1-2.8,18.9-5.8,29.2c-2.6,8.9-3.2,21.7-1,21.7
		c0.7,0,3.6-2.7,6.5-5.9c7.9-9,10.3-10.1,24.8-11.1c30.1-2.2,45.8,3.8,45.7,17.2c-0.1,9-5.3,22.9-12.3,32.4
		c-1.7,2.3-10,12.2-18.4,22c-8.4,9.8-17.4,20.6-20.2,24.1c-4.6,6.1-4.9,6.6-5.8,14.4c-0.5,4.4-1,8.8-1,9.6c0,2.5,2.3,1.9,3.6-1
		c1.4-3.7,8.3-10.5,11.1-11.3c4.1-1,6.7,0.9,11.2,7.7c10.6,16.6,19.3,37.6,21.1,51.7l1.1,7.6h16.4h16.4l0.5-6.6
		c0.3-3.5,0.7-16.7,1-29c0.7-34,5.1-113.4,8.5-153.5c0.5-5.7,0.9-14.7,0.9-19.9c0-11.2,2-19,6.3-24.6c1.5-2,2.7-4.1,2.7-4.8
		C1265,1736.7,1259.5,1730.2,1258,1730.2z"/>
	<path id="structure50_label53_AIP" bar:growlevel="0" bar:type="" class="st68" d="M2057.7,1722c-0.7,12.6-1.9,18.7-4.8,24.9
		c-2.1,4.4-2.2,5.5-2.2,23.8c-0.1,26.5-2.3,37.6-9.4,47c-1.7,2.3-3.2,4.5-3.2,5c0,1,25.6,11,47.3,18.5
		c52.9,18.4,112.7,33.7,160.7,40.9c16.7,2.5,42.4,5.7,42.8,5.2c2.3-2.3,8.5-55.6,8.5-72.5c0-13.5-1.2-20.1-5.1-30.2
		c-2.7-6.7-3.3-9.3-3.2-14.2v-6l-4.1-0.9c-2.3-0.5-53.6-12.5-113.9-26.6c-60.4-14.1-110.4-25.7-111.2-25.7
		C2058.4,1711.3,2058.1,1712.8,2057.7,1722z"/>
	<path id="structure51_label54_DI" bar:growlevel="0" bar:type="" class="st69" d="M2055.9,1639.7c-0.3,0.7-0.8,4-1.1,7.4
		c-0.6,5.2-0.3,7.5,1.8,14.3c3,10.1,3.8,22.8,2.3,37.7c-0.6,5.8-0.9,10.8-0.8,11c0.2,0.1,52.5,12.4,116.2,27.4l115.9,27.1l6.7-5.9
		c3.6-3.3,7.8-7.8,9.4-10.2c3.8-6,20.3-55.9,18.9-57.2c-0.5-0.5-264.7-52.7-266.8-52.7C2057.2,1638.4,2056.1,1638.9,2055.9,1639.7z"
		/>
	<path id="structure52_label55_GI" bar:growlevel="0" bar:type="" class="st70" d="M2057.7,1592.2c0.2,11.3-0.1,25.9-0.6,32.6
		c-0.5,6.7-0.9,12.2-0.8,12.3c0.2,0.1,60,12,133,26.5c73,14.4,133.6,26.5,134.6,26.6c1.7,0.4,2.1-0.4,4.2-8.8
		c7.6-29.3,16.2-69.8,15.8-74.1l-0.3-2.7l-138.1-15.8c-76-8.7-140.4-16.1-143.2-16.5l-5-0.6L2057.7,1592.2z"/>
	<path id="structure53_label56_S2" bar:growlevel="0" bar:type="" class="st71" d="M2183.7,1339.5c-92,18.2-167.4,33.3-167.7,33.6
		c-0.3,0.3,1.5,7.2,4,15.5c16.9,56.1,30.4,120.7,35.6,169.2c0.7,7.5,1.4,13.5,1.6,13.6c0.1,0.1,63.2,7.3,140.1,16.1
		c76.9,8.8,141.7,16.2,143.6,16.5l3.8,0.5l1-4.5c3.4-16.1,10.4-72.8,12.7-103.7c4.4-58.8,3.3-125.6-2.8-180.7c-1-8.5-1.2-9.2-3-9.1
		C2351.8,1306.5,2275.6,1321.3,2183.7,1339.5z"/>
	<path id="structure54_label57_CPu" bar:growlevel="0" bar:type="" class="st72" d="M1612.4,1065.4c0,0.7,3.9,4.2,8.8,8
		c10,7.7,19.6,16.4,21,19c0.9,1.5,0.3,2.4-4.3,6.8c-14.8,14.1-23.8,32.8-26.5,55.1c-2.1,18.3,0.3,49.8,5.5,71.6
		c3.9,16.3,5.6,21.9,6.8,21.9c0.8,0,1.3-1,1.3-2.5c0-3.7,2.5-11.6,4.9-15.4c6.8-10.6,20.7-17.6,33.7-17.1
		c9.8,0.5,17.3,4.2,26.3,13.3c15.8,15.9,26.4,37.9,28.9,60.4c1.1,9.4,0.7,12.6-3.1,25.6c-1.4,4.4-4,15.9-6,25.6
		c-3.2,16.1-3.4,17.6-2.2,19.6c0.8,1.1,9,12.9,18.3,26.2c28.1,40,43.7,66,60.1,99.6c21.6,44.4,33.9,84.9,39.2,128.7
		c1.6,13.8,1.3,46.3-0.5,59.8c-6.7,48.6-26.7,91.3-58,123.5c-8.3,8.6-8.6,9-9,13.6c-1,12.7,7.3,33.4,20.2,50.7
		c14.8,19.8,40.3,42.8,62.7,56.7c7.7,4.8,10.5,6.2,23.5,12c16.8,7.6,26,19.9,25.9,34.9c0,5,0.3,6.6,1.2,6.6
		c1.4,0,9.8-10.8,16.8-21.7c11.1-17.1,15.7-27.2,30.9-67.4c17-45,19.1-49.1,39.2-80.1c37.8-58,56.9-97.7,62.5-129.6
		c0.7-4.2,1.8-18.4,2.4-31.5c4.2-94.1-10.1-174.2-46.3-258.8c-26.2-61.3-60.2-113.9-113.8-176.2c-14.8-17.2-25.7-27.4-44-41
		c-55.3-41.3-145.7-82.4-212.8-96.8C1613.6,1063.8,1612.4,1063.8,1612.4,1065.4z M1910.2,1891.4c3.5,1.3,4.6,3.1,4.6,8.2
		c0,5.1-3.2,11.3-7.2,14.1c-2.8,1.9-3.9,2.1-9.4,1.7c-13.1-0.9-23.9-6.3-23.9-11.9c0-5.6,4.1-8.3,17.4-11.3
		C1900.3,1890.3,1906.2,1890,1910.2,1891.4z"/>
	<path id="structure55_label58_S1ULp" bar:growlevel="0" bar:type="" class="st73" d="M2153.6,1225.6
		c-91.7,40.2-166.8,73.4-166.8,73.8c0,0.5,2.3,5.9,5.3,12.2c5.9,12.9,13.4,31.9,19.2,49c2.7,7.9,4.3,11.5,5.2,11.5
		c0.7,0,76.8-14.9,169.2-33.1l167.9-33.1l-0.2-6.3c-0.6-18.7-13.7-85.9-24.1-123.3c-5.8-20.8-6.8-23.8-7.9-23.8
		C2320.7,1152.5,2245.2,1185.3,2153.6,1225.6z"/>
	<path id="structure56_label59_S1BF" bar:growlevel="0" bar:type="" class="st74" d="M1915.3,897.4
		c-59.9,86.4-109,157.7-109.2,158.3c-0.2,0.6,10.8,12.2,24.4,25.7c31.7,31.6,52.2,55.5,78.7,91.9c25.4,34.8,55.3,83,71.3,114.8
		c2.5,5.1,5.1,9.4,5.8,9.7c1.1,0.4,333.3-144.7,334.8-146.3c0.9-0.9-3.1-14.1-10.2-33.8c-49.1-135.8-131.1-251.7-246.4-348.1
		c-20-16.6-36.7-29.4-38.5-29.4C2024.6,740.2,1993.8,783.9,1915.3,897.4z"/>
	<path id="structure57_label60_S1FL" bar:growlevel="0" bar:type="" class="st75" d="M1725.4,593.7c-1.3,3.6-90.4,366.6-90.2,367.3
		c0.1,0.4,6.1,3,13.2,5.6c40.4,14.7,77.6,32.9,107.4,52.8c4.3,2.9,8.4,5.2,9,5.1c1.3,0,208.8-320.5,209.3-323
		c0.5-3-40.4-29.2-71.9-46.1c-48.9-26.3-105.5-47.3-158.4-59.2C1725.4,592.2,1725.9,592.2,1725.4,593.7z"/>
	<path id="structure58_label61_S1HL" bar:growlevel="0" bar:type="" class="st76" d="M1485.5,574.2c0,0.3-4.7,78.3-10.4,173.4
		c-5.8,95-10.3,173.3-10.1,173.8c0.3,0.5,6.7,1.9,14.2,3.1c46.2,6.9,95.4,18.1,134.5,30.3c8.9,2.9,17.2,5.3,18.4,5.6l2.3,0.4
		l45.4-184c25-101.3,45.3-184.3,45-184.5c-0.6-0.5-39-6.7-53.9-8.6c-33.8-4.3-72.4-7.4-113.4-9
		C1531.9,573.6,1485.5,573.3,1485.5,574.2z"/>
	<path id="structure59_label62_LV" bar:growlevel="0" bar:type="" class="st77" d="M1464.4,1026.9c-1,0.3-6.2,1.3-11.7,2.3
		c-24.9,4.7-50.1,15.8-72.8,32c-17.6,12.7-48.1,40.9-62.6,58.2c-6.4,7.6-13.5,18-13.5,19.8c0,1.3,42,22.8,62.6,32
		c15,6.8,27.1,11.4,78.3,30.2c42,15.5,72.3,26.3,93.9,33.7c20.3,6.9,24.7,8.9,34.2,15.5c15,10.3,20.9,21.8,18.7,36.4
		c-0.6,4.2-0.5,4.8,0.9,4.8c1,0,7.2-5.7,14.3-12.9c8.8-9.1,13.6-13.3,16-14.2c4-1.4,4-1.4-0.3-14.8c-8.4-26-12.7-52.4-12.7-77.8
		c0-22.6,2.4-34.5,10.1-49.9c4.2-8.6,10.9-17.6,17-23.4c2.4-2.3,4.5-4.7,4.5-5.3c0-3.4-25.3-24.3-40.2-33.2
		c-20.7-12.3-59.8-25.5-93.4-31.4C1497.2,1027.2,1468.9,1025.9,1464.4,1026.9z"/>
	<path id="structure5_label4_SPa" bar:growlevel="0" bar:type="" class="st78" d="M1429.7,1676.3c-35.6,1.4-53,3.9-81.4,11.7
		c-24.1,6.6-33.8,8.3-42.8,7.8c-10.8-0.6-16.1-5.1-16.1-13.6c0-3.2-0.1-3.3-3.1-3.3h-3.2v5.6c-0.1,3.2-0.7,7.7-1.6,10.2
		c-2.9,8.3-11.3,22.2-17,28.4c-3.2,3.2-5.7,6.3-5.7,6.8c0,0.4,1.6,2.6,3.5,4.8l3.4,3.9l5.3-2.6c13.2-6.5,30.4-2.8,51.9,11l6.1,4
		l5.6-0.8c16.6-2.5,39.9-1.9,59.8,1.7c10.7,1.9,13,3.5,14.7,9.4c1.4,5,0.5,14.4-2.3,24.8c-5.3,19.8-8.8,27.6-25.7,58.1
		c-13.4,24.2-15,27.7-16.1,34.4c-0.5,2.9-1.3,16.1-1.8,29.5c-0.5,13.3-1.3,34.8-1.9,47.7c-1.2,29.3-3,50.8-4.9,57.1
		c-5.7,18.9-22.5,41.7-38.8,52.5c-14.2,9.4-33.9,16.6-50.4,18.2c-11.9,1.2-19.9-3-22.8-11.8c-1.4-4.3-0.6-15.2,1.6-22.5
		c1.4-4.7,1.6-6.8,1.1-13.9c-0.5-4.7-1-19.7-1.4-33.5l-0.7-24.9h-16.8h-16.8l-0.5,3.1c-1.5,9.5-16.6,40.9-27.5,57.7
		c-8.1,12.2-20.3,23-26.3,23c-1.4,0-1.5,1.5-1.5,17.7c0.1,15.9-0.6,23.6-2.4,30.9c-0.5,2.3-0.3,2.5,4.2,4.1c3.5,1.2,6.2,3,10.3,7
		c8.6,8.6,13.1,20.1,13.2,33.9v7.1h3.1c4.1,0,42.4-4.9,60.1-7.7c34.2-5.4,44.3-8,73.6-19.3c8.8-3.4,16.9-6.2,18.1-6.2
		c2.6,0,25.2-18.1,43.1-34.5c7.3-6.7,15.2-13.3,17.5-14.7c2.3-1.4,5.9-3.9,7.8-5.5c5.9-5,19-11,29-13.1c7.1-1.4,10.7-1.7,18.7-1.3
		c5.5,0.3,11.3,0.8,12.9,1.1c4.9,0.9,3.6-1.9-2.3-5c-7.9-4.1-14-9.9-16.4-15.4c-1.8-4.2-1.9-5.1-0.9-8.4c0.9-2.9,0.8-3.7,0-4
		c-8.2-2.8-15.8-10.2-18.4-18.1c-9.2-26.9,26.3-50.3,54.9-36.2c3.1,1.5,5.8,2.8,6.1,2.8s1.7-2.7,3.2-5.9
		c7.7-16.5,25.2-33.2,41.7-40.1c10.2-4.1,37.8-13,52.7-16.6c16-4.1,17.1-5.2,8.1-8.5c-18.4-6.7-40.9-21-57.6-36.6
		c-2.8-2.6-5.7-4.8-6.4-4.8c-0.8,0-1.5,1.4-1.9,3.5c-1.1,7.1-10.9,16.4-18.6,17.6c-13.9,2.3-45-20.5-61.3-45.1
		c-13.3-20-23.4-48.6-23.6-66.5c-0.1-7.6,0.2-9.5,1.9-12.6c4.8-9.1,15.1-14.9,26.4-14.9c3.5,0,6.3-0.3,6.3-0.5
		c0-0.3-0.6-2.9-1.3-5.7c-2.9-11.3-7.7-48.2-7.7-59.5c0-3.1-0.4-4.5-1.1-4.3C1447.8,1675.5,1439.4,1675.9,1429.7,1676.3z"/>
	<path id="structure60_label63_M1" bar:growlevel="0" bar:type="" class="st79" d="M1442.8,574.7c-48.6,1.8-103.1,6.8-103.1,9.2
		c0,0.5,11.3,74.9,25.2,165.3c13.9,90.4,25.2,164.8,25.2,165.4c0,0.7,2.1,1.1,6.6,1.1c10.1,0,30.1,1.7,49.1,4.1
		c9.6,1.2,17.6,2,17.9,1.7c0.6-0.5,20.8-333.7,20.9-342.7v-5.1l-11.9,0.2C1466.2,573.9,1452.7,574.3,1442.8,574.7z"/>
	<path id="structure61_label64_M2" bar:growlevel="0" bar:type="" class="st80" d="M1317.2,587.1c-38.1,7.8-69.6,18.6-92.6,31.6
		c-4.5,2.5-8.2,5.2-8.2,5.9c0,1,149.6,293.1,150.8,294.6c0.2,0.2,3.5-0.4,7.6-1.2c4-0.8,9.1-1.4,11.3-1.4c2.3,0,4-0.3,4-0.7
		c-0.1-0.4-11.5-75.1-25.5-166.2l-25.5-165.6l-2.6-0.2C1335,583.8,1326.4,585.2,1317.2,587.1z"/>
	<path id="structure62_label65_Cg1" bar:growlevel="0" bar:type="" class="st81" d="M1207,630c-26.3,20.3-46.5,53.6-56.7,93.4
		c-6.4,25.1-8.8,46.7-8.4,75.2l0.3,18.4l103.9,54.7c57.2,30.1,104.5,54.7,105.1,54.7c2,0.1,15.5-6.7,15.3-7.6
		c-0.2-0.5-34-66.6-75.3-146.9c-64-124.6-75.3-146-77-146C1213.3,625.9,1209.9,627.8,1207,630z"/>
	<path class="st82" d="M2054.3,1550.1c-7.4-64.9-30.8-160-53.5-217.7c-21.1-53.4-68.6-131.6-116.1-190.8
		c-22.8-28.4-48.6-56.3-71.8-77.2l-11.6-10.5l-23.9-12.3c-69.1-35.6-106.6-48.3-199.5-68.1c-27.3-5.8-43.6-7.3-78.7-7.3
		c-34.4,0-53,2.4-77.7,10c-36.8,11.3-69.8,28.8-129,68.1c-28.9,19.3-35.5,22.7-58.8,31.1c-31,11.2-47.9,15.9-70.8,20
		c-6.8,1.2-14.1,1.8-22,1.7v64c15,0,30-0.7,40.9-2.2c23.8-3.1,41.4-6.6,55.3-10.7c8.8-2.6,62.1-23.8,74.8-29.7
		c7.8-3.6,9.3-4.7,17-13c33.3-35.6,69.3-60.8,102.2-71.7c29.8-10,51.9-11,85.5-4.1c32,6.7,68.9,19.7,86.1,30.7
		c2.3,1.4,6.8,2.7,13.6,4c43,7.7,106.4,31.2,158.6,59.1c37.5,20,68.7,41.2,89.5,61c13,12.4,40.7,45.4,60.6,72.2
		c60.4,81.4,99.5,174.2,113.2,268.4c3.8,25.6,4.7,38.7,5.1,73.3c0.8,61.8-1.2,77.7-13.7,108.9c-11.1,27.7-24.2,51-59.3,105.3
		c-11.4,17.6-16.6,28.9-32.3,70.6c-15.4,40.7-21.8,53.8-36.4,74.1c-7.8,10.9-7.6,13.4,0.7,7.3c6.1-4.4,15.4-14.7,21.1-23.3
		c10.3-15.3,18.7-35,31.2-72c5.2-15.6,8.4-23.5,15.2-36.9c10-19.9,22.1-39.9,33-54.5c8.5-11.3,11.6-17.4,23.1-44.6
		c4.2-9.9,9.9-23.1,12.7-29.4C2056.2,1663.7,2061.4,1612.8,2054.3,1550.1z"/>
	<path class="st83" d="M1178.6,1179.5c-6.5,1.2-12.1,1.7-13.9,1.3c-4.4-0.8-8.8-5-13.1-12.3l-3.7-6.2h-7v33.9c1.6,0,3.1-0.2,5.1-0.6
		c13.2-2.7,45.3-14.6,45.3-16.7C1191.2,1177.2,1191.4,1177.2,1178.6,1179.5z"/>
	<path class="st84" d="M1581.6,1259.8c-9.7-10.4-18.7-15.3-43.8-23.7c-38.8-13.1-148.8-53.6-166.9-61.7c-11.4-5-57.4-27.8-65-32.1
		l-3.8-2.2l1.8-3.6c1.1-1.9,3.9-6.2,6.3-9.6c2.4-3.3,4.4-6.5,4.4-7c0-1.8-4.6-0.2-34.9,12.1c-27.6,11.3-30.3,12.6-35.4,16.9
		c-13.3,11.8-41.1,27-67.4,37.1c-18.1,6.9-27.3,10-35.9,10v111.3l16.1-3.2c16.5-3.3,23.2-4,26.1-2.4c1.1,0.6,5.5,0.3,13.2-0.8
		c19.8-2.9,34.9-3.9,52.6-3.3c20.3,0.5,32,2.5,52.2,8.6c35.4,10.7,39.6,11.3,76.9,11.3c28.4,0.1,31.2,0.2,40.1,2.2
		c12.8,2.7,30.4,8.7,45.5,15.4c19,8.5,24.4,10,34.6,10.1c19.8,0.1,32.6-6.2,71.7-35.3c18.7-13.9,20.1-15.8,20.8-27.4
		C1591.1,1273.5,1588.7,1267.4,1581.6,1259.8z"/>
	<path class="st85" d="M1346,1318c-4.5,0-25.1-4.8-39.3-9.1c-20.2-6.1-32.9-8.6-50-10c-15.4-1.2-36.4-0.2-55.5,2.4
		c-15.8,2.2-15,1.9-15.7,5.4c-1.2,6.1-10.5,10.9-24.4,12.2c-5.2,0.5-12.7,0.7-20.2,0.7v120.7c4.6-0.2,11.1-5.2,28.9-22.2
		c22.9-21.6,53.5-37.9,87.7-46.6c29.7-7.7,48.2-13.6,58.3-18.6c6.5-3.2,19.7-13.6,24.8-19.3c3.8-4.3,6.1-8.6,6.9-12.9
		C1348,1318.4,1347.8,1318,1346,1318z"/>
	<path class="st4" d="M1581.6,1259.8c-9.7-10.4-18.7-15.3-43.8-23.7c-38.8-13.1-148.8-53.6-166.9-61.7c-11.4-5-57.4-27.8-65-32.1
		l-3.8-2.2l1.8-3.6c1.1-1.9,3.9-6.2,6.3-9.6c2.4-3.3,4.4-6.5,4.4-7c0-1.8-4.6-0.2-34.9,12.1c-27.6,11.3-30.3,12.6-35.4,16.9
		c-13.3,11.8-41.1,27-67.4,37.1c-18.1,6.9-27.3,10-35.9,10v111.3l16.1-3.2c16.5-3.3,23.2-4,26.1-2.4c1.1,0.6,5.5,0.3,13.2-0.8
		c19.8-2.9,34.9-3.9,52.6-3.3c20.3,0.5,32,2.5,52.2,8.6c35.4,10.7,39.6,11.3,76.9,11.3c28.4,0.1,31.2,0.2,40.1,2.2
		c12.8,2.7,30.4,8.7,45.5,15.4c19,8.5,24.4,10,34.6,10.1c19.8,0.1,32.6-6.2,71.7-35.3c18.7-13.9,20.1-15.8,20.8-27.4
		C1591.1,1273.5,1588.7,1267.4,1581.6,1259.8z"/>
	<path id="structure6_label5_LA" bar:growlevel="0" bar:type="" class="st86" d="M1321.6,1983.6c-34.2,6.4-58.4,24.3-70.3,51.9
		c-7,16.3-9.4,32.3-5.8,39.1c3.7,7,9.6,9.2,22.7,8.1c15-1.1,31.9-6.8,45.5-15.1c23.6-14.5,44-45.7,44-67.1c0-8.7-1.9-12.2-8.5-15.5
		C1343.7,1982.2,1332,1981.6,1321.6,1983.6z"/>
	<path class="st7" d="M2054.3,1550.1c-7.4-64.9-30.8-160-53.5-217.7c-21.1-53.4-68.6-131.6-116.1-190.8
		c-22.8-28.4-48.6-56.3-71.8-77.2l-11.6-10.5l-23.9-12.3c-69.1-35.6-106.6-48.3-199.5-68.1c-27.3-5.8-43.6-7.3-78.7-7.3
		c-34.4,0-53,2.4-77.7,10c-36.8,11.3-69.8,28.8-129,68.1c-28.9,19.3-35.5,22.7-58.8,31.1c-31,11.2-47.9,15.9-70.8,20
		c-6.8,1.2-14.1,1.8-22,1.7v64c15,0,30-0.7,40.9-2.2c23.8-3.1,41.4-6.6,55.3-10.7c8.8-2.6,62.1-23.8,74.8-29.7
		c7.8-3.6,9.3-4.7,17-13c33.3-35.6,69.3-60.8,102.2-71.7c29.8-10,51.9-11,85.5-4.1c32,6.7,68.9,19.7,86.1,30.7
		c2.3,1.4,6.8,2.7,13.6,4c43,7.7,106.4,31.2,158.6,59.1c37.5,20,68.7,41.2,89.5,61c13,12.4,40.7,45.4,60.6,72.2
		c60.4,81.4,99.5,174.2,113.2,268.4c3.8,25.6,4.7,38.7,5.1,73.3c0.8,61.8-1.2,77.7-13.7,108.9c-11.1,27.7-24.2,51-59.3,105.3
		c-11.4,17.6-16.6,28.9-32.3,70.6c-15.4,40.7-21.8,53.8-36.4,74.1c-7.8,10.9-7.6,13.4,0.7,7.3c6.1-4.4,15.4-14.7,21.1-23.3
		c10.3-15.3,18.7-35,31.2-72c5.2-15.6,8.4-23.5,15.2-36.9c10-19.9,22.1-39.9,33-54.5c8.5-11.3,11.6-17.4,23.1-44.6
		c4.2-9.9,9.9-23.1,12.7-29.4C2056.2,1663.7,2061.4,1612.8,2054.3,1550.1z"/>
	<path id="structure7_label6_VLH" bar:growlevel="0" bar:type="" class="st87" d="M1448.9,1971.5c-7.7,2.4-15.8,8.8-20,15.6
		c-3.1,5-3.2,5.9-3.2,12.6c0,5.9,0.4,8.2,2.3,12.3c4.8,10.3,12.3,15,24.8,15.8c17.3,1.2,34.1-7.2,38.7-19.2c1.4-3.8,1.4-4-1-9.1
		c-2.1-4.2-2.6-6.8-3-14c-0.4-8.5-0.5-8.8-3.1-10.7C1477,1969.6,1460,1968,1448.9,1971.5z"/>
	<path id="structure83_label91_opt" bar:growlevel="0" bar:type="" class="st88" d="M1424.8,2069.1c-18.1,3-29,8.5-43.5,22.1
		c-11.3,10.6-25.7,23-35.6,30.4c-6.7,5.1-7.8,6.3-8.3,9.2c-0.8,4.8-5.9,14.7-10.7,21.1c-7.3,9.6-18.2,18.6-28.7,23.8
		c-4.2,2.1-5.7,4.4-2.6,4.4c4,0,36-5,72-11.2c67.2-11.6,68.1-11.7,96-11.8c27.6-0.1,31.5-0.7,38-6.2c4.4-3.9,6.6-8.7,7.2-16.7
		l0.4-5.9l-6.3-9.4c-15.4-22.9-37.7-42.9-53.1-47.7C1443.8,2069.4,1430.4,2068.2,1424.8,2069.1z"/>
	<path id="structure84_label92_f" bar:growlevel="0" bar:type="" class="st89" d="M1300.8,1747.6c-9.8,3.7-18.3,11.8-23.6,22.6
		c-8.3,17-5.6,32.9,6.7,39.2c6.9,3.6,23.2,4.5,47.6,2.7c13.6-1,19.9-3.5,23.3-9.5c3.1-5.5,2.4-14.5-1.9-23.2
		c-6.6-13.3-16.9-24.4-27.6-29.7c-5-2.4-6.9-2.9-13.5-3.2C1307.1,1746.5,1302.9,1746.9,1300.8,1747.6z"/>
	<path id="structure85_label93_SM" bar:growlevel="0" bar:type="" class="st90" d="M1443.2,1746.9c-14.4,3.8-21.2,15.2-18.9,31.3
		c4.3,29.8,18.8,59.9,38.2,79.2c21.3,21.3,40.5,30.6,51.6,25c8.4-4.3,12.9-10.4,12.9-17.6c0-4.3-0.5-5.1-10.4-17
		c-16.5-19.7-40.4-60.7-53.2-91.2l-4.5-10.8l-5.3-0.2C1450.6,1745.7,1445.9,1746.2,1443.2,1746.9z"/>
	<path id="structure89_label97_sm" bar:growlevel="0" bar:type="" class="st30" d="M1318.7,1352.7c-4.9,3.7-30.6,12.2-55.8,18.5
		c-20.5,5.1-29,8.1-43.5,15.1c-12.4,6.1-12.8,6.3-13.4,9.5c-1.5,8.4,2.4,21,7.7,24.8c1.6,1.2,5.8,2.4,10.5,3.2
		c12.4,2.1,22.9,4.8,26.8,6.9c2.3,1.3,5,4.1,7.3,7.6c5.1,7.7,8.9,11.5,14.5,14.2c13.2,6.6,30.2,1.5,38.8-11.3
		c2.1-3.1,4.8-8.8,6-12.8c4.4-13.9,5.1-20.2,5.6-49.6c0.4-26.5,0.4-27.6-1.2-27.6C1321.1,1351.3,1319.6,1351.9,1318.7,1352.7z"/>
	<path id="structure8_label7_HDB" bar:growlevel="0" bar:type="" class="st91" d="M1520.9,1936.2c-12,8-24.6,22.1-29.7,32.9
		c-2.3,5-2.5,6.2-2.5,16.2c0,10.4,0.1,11,2.8,15.8c5,8.8,14.6,14.8,27.4,17.3c9.3,1.7,47.4-1.4,50.1-4.1c1.2-1.2,1.4-21.7,0.4-27.8
		c-3.8-21.7-17-42.6-32.7-51.5C1531,1931.7,1527.3,1932,1520.9,1936.2z"/>
	<path id="structure92_label100_AVVL" bar:growlevel="0" bar:type="" class="st92" d="M1395,1320c2.2,7.4,0.3,24.3-4.9,45
		c-4.8,19-9,27.3-29.8,58.3c-9.1,13.6-19.4,29.6-22.9,35.6c-8.4,14-16.5,29.5-16.5,31.2c0,1.9,10.6,17.6,17.5,25.8
		c7.4,8.9,17.6,18.5,26.6,25.2c8.8,6.6,16.8,11.2,18.3,10.6c1.9-0.8,19.5-35.8,40-79.4c18.4-39.3,53.4-123.7,53.4-128.7
		c0-1.5-2.3-2.9-11.9-7.1c-22.9-10.1-45.8-16.6-63.2-18.1C1394.4,1317.9,1394.4,1317.9,1395,1320z"/>
	<path id="structure9_label8_MCPO" bar:growlevel="0" bar:type="" class="st93" d="M1598.7,1910.3c-23.5,5-66.3,18.5-66.3,20.9
		c0,0.6,1.9,2.1,4.2,3.3c10,5.2,22.8,21.2,28.2,35.2c4.7,12.2,5.8,18.1,5.8,31.6v12.4h2.4c5.3,0,43.1-11.9,65.7-20.6
		c11.8-4.6,15.7-7.3,20.4-14.4c9.4-14.1,11.6-33.6,5.2-47.3C1656.1,1913.7,1626.6,1904.3,1598.7,1910.3z"/>
	<text id="label30" bar:growlevel="0" transform="matrix(1 0 0 1 1634.0283 2018.5801)" class="st94 st95 st96">AA</text>
	<text id="label31" bar:growlevel="0" transform="matrix(1 0 0 1 1621.1875 2168.0293)" class="st94 st95 st96">LOT-1</text>
	<text id="label32" bar:growlevel="0" transform="matrix(1 0 0 1 1666.9668 2118.8398)" class="st94 st95 st96">LOT-2</text>
	<text id="label33" bar:growlevel="0" transform="matrix(1 0 0 1 1669.0381 2057.2207)" class="st94 st95 st96">LOT-3</text>
	<text id="label35" bar:growlevel="0" transform="matrix(1 0 0 1 1789.8174 2060.3691)" class="st94 st95 st96">BMA</text>
	<text id="label36" bar:growlevel="0" transform="matrix(1 0 0 1 1572.4375 1827.4512)" class="st94 st95 st96">EAC</text>
	<text id="label37" bar:growlevel="0" transform="matrix(1 0 0 1 1595.5088 1730.3105)" class="st97 st95 st96">.B</text>
	<text id="label38" bar:growlevel="0" transform="matrix(1 0 0 1 1637.2686 1733.4316)" class="st97 st95 st96">.B</text>
	<text id="label39" bar:growlevel="0" transform="matrix(1 0 0 1 1723.9668 1794.0313)" class="st97 st95 st96">.B</text>
	<text id="Unlabeled-2316-1984" bar:growlevel="0" transform="matrix(1 0 0 1 1544.0283 2043.4063)" class="st94 st95 st96">grey</text>
	<text id="label143" bar:growlevel="0" transform="matrix(1 0 0 1 1396.999 2035.6816)" class="st94 st95 st96">mfb</text>
	<text id="label142" bar:growlevel="0" transform="matrix(1 0 0 1 1964.1953 1295.3105)" class="st94 st95 st96">ec</text>
	<text id="label141" bar:growlevel="0" transform="matrix(1 0 0 1 1610.8076 1506.7813)" class="st94 st95 st96">ic</text>
	<text id="label140" bar:growlevel="0" transform="matrix(1 0 0 1 1560.918 1346.9707)" class="st94 st95 st96">st</text>
	<text id="label147" bar:growlevel="0" transform="matrix(1 0 0 1 1351.1875 1340.6719)" class="st94 st95 st96">AD</text>
	<text id="label149" bar:growlevel="0" transform="matrix(1 0 0 1 1503.6777 1364.7012)" class="st94 st95 st96">RtSt</text>
	<text id="label8" bar:growlevel="0" transform="matrix(1 0 0 1 1586.0576 1966.3496)" class="st94 st95 st96">MCPO</text>
	<text id="label9" bar:growlevel="0" transform="matrix(1 0 0 1 1400.6553 1932.9316)" class="st94 st95 st96">PLH</text>
	<text id="label201" bar:growlevel="0" transform="matrix(1 0 0 1 1196.1338 1164.293)" class="st94 st95 st96">df</text>
	<text id="label0" bar:growlevel="0" transform="matrix(1 0 0 1 1281.9766 1944.3887)" class="st94 st95 st96">AHA</text>
	<text id="label1" bar:growlevel="0" transform="matrix(1 0 0 1 1265.4766 1856.6387)" class="st94 st95 st96">STMPM</text>
	<text id="label2" bar:growlevel="0" transform="matrix(1 0 0 1 1160.6494 1837.9824)" class="st94 st95 st96">PaAP</text>
	<text id="label3" bar:growlevel="0" transform="matrix(1 0 0 1 1205.5439 1908.8281)" class="st94 st95 st96">MPA</text>
	<text id="label4" bar:growlevel="0" transform="matrix(1 0 0 1 1164.9473 2091.5703)" class="st94 st95 st96">SPa</text>
	<text id="label5" bar:growlevel="0" transform="matrix(1 0 0 1 1283.5381 2043.6289)" class="st94 st95 st96">LA</text>
	<text id="label6" bar:growlevel="0" transform="matrix(1 0 0 1 1444.5771 2008.1094)" class="st94 st95 st96">VLH</text>
	<text id="label7" bar:growlevel="0" transform="matrix(1 0 0 1 1513.0088 1992.4512)" class="st94 st95 st96">HDB</text>
	<text id="text3197" bar:growlevel="0" transform="matrix(1 0 0 1 1732.2432 2178.9863)" class="st94 st95 st96">OlfCx-1</text>
	<text id="text3195" bar:growlevel="0" transform="matrix(1 0 0 1 1759.5479 2133.9609)" class="st94 st95 st96">ACo</text>
	<text id="label175" bar:growlevel="0" transform="matrix(1 0 0 1 1442.8779 1439.8945)" class="st94 st95 st96">eml</text>
	<text id="label171" bar:growlevel="0" transform="matrix(1 0 0 1 1443.6162 2165.2813)" class="st94 st95 st96">ictd</text>
	<text id="label138" bar:growlevel="0" transform="matrix(1 0 0 1 1378.4277 942.75)" class="st94 st95 st96">cg</text>
	<text id="label139" bar:growlevel="0" transform="matrix(1 0 0 1 1527.8271 1297.8594)" class="st94 st95 st96">fi</text>
	<text id="label19" bar:growlevel="0" transform="matrix(1 0 0 1 1503.8271 2098.2305)" class="st94 st95 st96">SO</text>
	<text id="label12" bar:growlevel="0" transform="matrix(1 0 0 1 1180.1553 1689.5703)" class="st94 st95 st96">Re</text>
	<text id="label13" bar:growlevel="0" transform="matrix(1 0 0 1 1237.668 1695.8398)" class="st94 st95 st96">VRe</text>
	<text id="label10" bar:growlevel="0" transform="matrix(1 0 0 1 1524.2822 1845.4688)" class="st94 st95 st96">EAM</text>
	<text id="label11" bar:growlevel="0" transform="matrix(1 0 0 1 1276.4863 1578.8398)" class="st94 st95 st96">AM</text>
	<text id="label16" bar:growlevel="0" transform="matrix(1 0 0 1 1154.6025 2144.1172)" class="st94 st95 st96">RCh</text>
	<text id="label15" bar:growlevel="0" transform="matrix(1 0 0 1 1159.5186 2187.7813)" class="st94 st95 st96">sox</text>
	<text id="label93" bar:growlevel="0" transform="matrix(1 0 0 1 1455.499 1840.7402)" class="st94 st95 st96">SM</text>
	<text id="label91" bar:growlevel="0" transform="matrix(1 0 0 1 1417.9375 2122.9805)" class="st94 st95 st96">opt</text>
	<text id="label97" bar:growlevel="0" transform="matrix(1 0 0 1 1257.3467 1408.5605)" class="st94 st95 st96">sm</text>
	<text id="label161" bar:growlevel="0" transform="matrix(1 0 0 1 1367.749 1764.7207)" class="st94 st95 st96">STMPL</text>
	<text id="label160" bar:growlevel="0" transform="matrix(1 0 0 1 1569.9766 2104.2012)" class="st94 st95 st96">MeAD</text>
	<text id="label162" bar:growlevel="0" transform="matrix(1 0 0 1 2048.3564 1709.3691)" class="st94 st95 st96">DCl</text>
	<text id="label165" bar:growlevel="0" transform="matrix(1 0 0 1 1579.7266 1359.5996)" class="st94 st95 st96">cst</text>
	<text id="label164" bar:growlevel="0" transform="matrix(1 0 0 1 1811.5381 2210.7617)" class="st94 st95 st96">lo</text>
	<text id="label184" bar:growlevel="0" transform="matrix(1 0 0 1 1472.3916 1810.418)" class="st94 st95 st96">sm</text>
	<text id="label69" bar:growlevel="0" transform="matrix(1 0 0 1 1169.6553 1244.8789)" class="st94 st95 st96">vhc</text>
	<text id="label68" bar:growlevel="0" transform="matrix(1 0 0 1 1145.6494 1188.8555)" class="st94 st95 st96">TS</text>
	<text id="label65" bar:growlevel="0" transform="matrix(1 0 0 1 1218.6162 812.8789)" class="st94 st95 st96">Cg1</text>
	<text id="label64" bar:growlevel="0" transform="matrix(1 0 0 1 1303.126 757.1719)" class="st94 st95 st96">M2</text>
	<text id="label63" bar:growlevel="0" transform="matrix(1 0 0 1 1401.2881 746.0117)" class="st94 st95 st96">M1</text>
	<text id="label62" bar:growlevel="0" transform="matrix(1 0 0 1 1476.6777 1135.9805)" class="st94 st95 st96">LV</text>
	<text id="label61" bar:growlevel="0" transform="matrix(1 0 0 1 1539.7363 766.8887)" class="st94 st95 st96">S1HL</text>
	<text id="label60" bar:growlevel="0" transform="matrix(1 0 0 1 1752.0479 825.3887)" class="st94 st95 st96">S1FL</text>
	<text id="Unlabeled-2479-1766" bar:growlevel="0" transform="matrix(1 0 0 1 1697.96 1956.1465)" class="st94 st95 st96">grey</text>
	<text id="Unlabeled-2202-1291" bar:growlevel="0" transform="matrix(1 0 0 1 1512.5283 1396.3066)" class="st94 st95 st96">grey</text>
	<text id="label71" bar:growlevel="0" transform="matrix(1 0 0 1 1196.1338 1354.3613)" class="st94 st95 st96">D3V</text>
	<text id="label100" bar:growlevel="0" transform="matrix(1 0 0 1 1372.4541 1475.2207)" class="st94 st95 st96">AVVL</text>
	<text id="label41" bar:growlevel="0" transform="matrix(1 0 0 1 1777.7588 1938.1523)" class="st94 st95 st96">IPAC</text>
	<text id="label40" bar:growlevel="0" transform="matrix(1 0 0 1 1722.1064 1606.0215)" class="st94 st95 st96">GP</text>
	<text id="label43" bar:growlevel="0" transform="matrix(1 0 0 1 1855.1553 2011.2617)" class="st94 st95 st96">VEn</text>
	<text id="label42" bar:growlevel="0" transform="matrix(1 0 0 1 1855.7881 1968.4512)" class="st94 st95 st96">I</text>
	<text id="label45" bar:growlevel="0" transform="matrix(1 0 0 1 1883.8955 2172.3887)" class="st94 st95 st96">CxA-2</text>
	<text id="label44" bar:growlevel="0" transform="matrix(1 0 0 1 1853.8076 2211.8105)" class="st94 st95 st96">CxA-1</text>
	<text id="label47" bar:growlevel="0" transform="matrix(1 0 0 1 1979.6875 1919.3691)" class="st94 st95 st96">DEn</text>
	<text id="label46" bar:growlevel="0" transform="matrix(1 0 0 1 1900.8467 2116.7715)" class="st94 st95 st96">CxA-3</text>
	<text id="label66" bar:growlevel="0" transform="matrix(1 0 0 1 1179.8096 958.418)" class="st94 st95 st96">Cg2</text>
	<text id="Unlabeled-870-536" bar:growlevel="0" transform="matrix(1 0 0 1 1899.9619 865.2715)" class="st94 st95 st96">S1DZ</text>
	<text id="label56" bar:growlevel="0" transform="matrix(1 0 0 1 2180.2363 1467.1191)" class="st94 st95 st96">S2</text>
	<text id="label57" bar:growlevel="0" transform="matrix(1 0 0 1 1880.626 1511.0098)" class="st94 st95 st96">CPu</text>
	<text id="label54" bar:growlevel="0" transform="matrix(1 0 0 1 2160.3174 1711.2012)" class="st94 st95 st96">DI</text>
	<text id="label55" bar:growlevel="0" transform="matrix(1 0 0 1 2163.4668 1635.9902)" class="st94 st95 st96">GI</text>
	<text id="label52" bar:growlevel="0" transform="matrix(1 0 0 1 2003.7168 1803.4805)" class="st94 st95 st96">VCl</text>
	<text id="label53" bar:growlevel="0" transform="matrix(1 0 0 1 2138.207 1810.0801)" class="st94 st95 st96">AIP</text>
	<text id="label50" bar:growlevel="0" transform="matrix(1 0 0 1 2127.168 2031.5098)" class="st94 st95 st96">Pir-2</text>
	<text id="label51" bar:growlevel="0" transform="matrix(1 0 0 1 2114.9893 1990.4121)" class="st94 st95 st96">Pir-3</text>
	<text id="label58" bar:growlevel="0" transform="matrix(1 0 0 1 2129.8369 1301.791)" class="st94 st95 st96">S1ULp</text>
	<text id="label59" bar:growlevel="0" transform="matrix(1 0 0 1 2038.2168 1065.0313)" class="st94 st95 st96">S1BF</text>
	<text id="label67" bar:growlevel="0" transform="matrix(1 0 0 1 1159.5186 1135.9805)" class="st94 st95 st96">cc</text>
	<text id="label92" bar:growlevel="0" transform="matrix(1 0 0 1 1310.0869 1790.8496)" class="st94 st95 st96">f</text>
	<text id="label168" bar:growlevel="0" transform="matrix(1 0 0 1 1350.9648 1394.5801)" class="st94 st95 st96">AVDM</text>
	<text id="label208" bar:growlevel="0" transform="matrix(1 0 0 1 1146.9355 1906.207)" class="st94 st95 st96">PaV</text>
	<text id="label23" bar:growlevel="0" transform="matrix(1 0 0 1 1150.8232 1466.9668)" class="st94 st95 st96">PVA</text>
	<text id="label22" bar:growlevel="0" transform="matrix(1 0 0 1 1152.7744 1578.8398)" class="st94 st95 st96">CM</text>
	<text id="label21" bar:growlevel="0" transform="matrix(1 0 0 1 1150.8232 1632.1348)" class="st94 st95 st96">PVA</text>
	<text id="label20" bar:growlevel="0" transform="matrix(1 0 0 1 1477.5186 2050.9805)" class="st94 st95 st96">ESO</text>
	<text id="label27" bar:growlevel="0" transform="matrix(1 0 0 1 1462.4863 1528.7109)" class="st94 st95 st96">Rt</text>
	<text id="label25" bar:growlevel="0" transform="matrix(1 0 0 1 1200.168 1492.1387)" class="st94 st95 st96">PT</text>
	<text id="Unlabeled-2107-816" bar:growlevel="0" transform="matrix(1 0 0 1 1376.626 976.9063)" class="st94 st95 st96">grey</text>
	<text id="label49" bar:growlevel="0" transform="matrix(1 0 0 1 2119.6973 2091.7207)" class="st94 st95 st96">Pir-1</text>
	<text id="Unlabeled-1869-1305" bar:growlevel="0" transform="matrix(1 0 0 1 1172.0283 1430.1094)" class="st94 st95 st96">grey</text>
	<text id="label150" bar:growlevel="0" transform="matrix(1 0 0 1 1159.5186 1315.4883)" class="st94 st95 st96">SFO</text>
	<text id="label152" bar:growlevel="0" transform="matrix(1 0 0 1 1283.0576 1499.6719)" class="st94 st95 st96">IAD</text>
	<text id="label153" bar:growlevel="0" transform="matrix(1 0 0 1 1271.2686 1471.2305)" class="st94 st95 st96">PC</text>
	<text id="label154" bar:growlevel="0" transform="matrix(1 0 0 1 1159.5186 1086.8691)" class="st94 st95 st96">IG</text>
	<text id="label155" bar:growlevel="0" transform="matrix(1 0 0 1 1275.4375 1755.3301)" class="st94 st95 st96">ANS</text>
	<text id="label156" bar:growlevel="0" transform="matrix(1 0 0 1 1165.8145 1987.4238)" class="st94 st95 st96">MPO</text>
	<text id="label157" bar:growlevel="0" transform="matrix(1 0 0 1 1150.4248 1971.8672)" class="st94 st95 st96">Pe</text>
	<text id="label163" bar:growlevel="0" transform="matrix(1 0 0 1 1145.6494 1771.875)" class="st94 st95 st96">3V</text>
	<text id="label48" bar:growlevel="0" transform="matrix(1 0 0 1 1894.4863 1912.0801)" class="st94 st95 st96">I</text>
</g>
</svg>
