<?xml version="1.0" encoding="utf-8"?>
<!-- Generator: Adobe Illustrator 24.1.1, SVG Export Plug-In . SVG Version: 6.00 Build 0)  -->
<svg version="1.1"
	 id="body" inkscape:version="0.47pre4 r22446" sodipodi:docname="192_pretrace_pretrace_v1.svg" xmlns:bar="http://www.3dbar.org" xmlns:cc="http://creativecommons.org/ns#" xmlns:dc="http://purl.org/dc/elements/1.1/" xmlns:inkscape="http://www.inkscape.org/namespaces/inkscape" xmlns:rdf="http://www.w3.org/1999/02/22-rdf-syntax-ns#" xmlns:sodipodi="http://sodipodi.sourceforge.net/DTD/sodipodi-0.dtd" xmlns:svg="http://www.w3.org/2000/svg"
	 xmlns="http://www.w3.org/2000/svg" xmlns:xlink="http://www.w3.org/1999/xlink" x="0px" y="0px" viewBox="0 0 3024 3024"
	 style="enable-background:new 0 0 3024 3024;" xml:space="preserve">
<style type="text/css">
	.st0{fill:#FF000C;}
	.st1{fill:#85DFD7;}
	.st2{fill:#B2FFE3;}
	.st3{fill:#00CFBB;}
	.st4{fill:#85FFF5;}
	.st5{fill:#59FFF2;}
	.st6{fill:#00CF69;}
	.st7{fill:#59FF90;}
	.st8{fill:#00FFA4;}
	.st9{fill:#59E9B5;}
	.st10{fill:#00FF1C;}
	.st11{fill:#6B3BC3;}
	.st12{fill:#23F460;}
	.st13{fill:#FFB2BA;}
	.st14{fill:#955FE1;}
	.st15{fill:#8EE9A9;}
	.st16{fill:#6C0BF2;}
	.st17{fill:#00FF34;}
	.st18{fill:#B2FFC2;}
	.st19{fill:#00F448;}
	.st20{fill:#8EDFA5;}
	.st21{fill:#00A9DF;}
	.st22{fill:#00FFF3;}
	.st23{fill:#00FFE3;}
	.st24{fill:#00C2FF;}
	.st25{fill:#85FFC1;}
	.st26{fill:#00FF51;}
	.st27{fill:#5523C7;}
	.st28{fill:#66BFDF;}
	.st29{fill:#9F76E9;}
	.st30{fill:#00FFAF;}
	.st31{fill:#B2FFFA;}
	.st32{fill:#2CDF84;}
	.st33{fill:#00EF7A;}
	.st34{fill:#8600FF;}
	.st35{fill:#E359E9;}
	.st36{fill:#19C3FF;}
	.st37{fill:#47FF7C;}
	.st38{fill:#6100FA;}
	.st39{fill:#650BE1;}
	.st40{fill:#B88EF2;}
	.st41{fill:#FFB2C8;}
	.st42{fill:#00FF7B;}
	.st43{fill:#866BCB;}
	.st44{fill:#2CDFD0;}
	.st45{fill:#2CFFEA;}
	.st46{fill:#915FE5;}
	.st47{fill:#33C2F7;}
	.st48{fill:#00FFD5;}
	.st49{fill:#00E996;}
	.st50{fill:#B2FFE5;}
	.st51{fill:#4CA6C7;}
	.st52{fill:#00E2FF;}
	.st53{fill:#00EFC8;}
	.st54{fill:#00FFAD;}
	.st55{fill:#23DF5A;}
	.st56{fill:#59FFCB;}
	.st57{fill:#59FFC2;}
	.st58{fill:#645452;}
	.st59{fill:#00EFD6;}
	.st60{fill:#66B0C7;}
	.st61{fill:#E547D8;}
	.st62{fill:#7923FF;}
	.st63{fill:#B2FFCC;}
	.st64{fill:#00D7F2;}
	.st65{fill:#8553C7;}
	.st66{fill:#232323;enable-background:new    ;}
	.st67{font-family:'TimesNewRomanPSMT';}
	.st68{font-size:27px;}
</style>
<sodipodi:namedview  bordercolor="#666666" borderopacity="1" gridtolerance="10" guidetolerance="10" id="namedview312" inkscape:current-layer="content" inkscape:cx="499.85484" inkscape:cy="481.29136" inkscape:pageopacity="0" inkscape:pageshadow="2" inkscape:window-height="1027" inkscape:window-maximized="1" inkscape:window-width="1680" inkscape:window-x="0" inkscape:window-y="0" inkscape:zoom="1.6139323" objecttolerance="10" pagecolor="#ffffff" showgrid="false">
	</sodipodi:namedview>
<desc  id="desc5">This was produced by version 4.2 of GNU libplot, a free library for exporting 2-D vector graphics.</desc>
<defs>
	<rdf:RDF>
		<cc:Work  rdf:about="">
			<dc:format>image/svg+xml</dc:format>
			<dc:type  rdf:resource="http://purl.org/dc/dcmitype/StillImage"></dc:type>
		</cc:Work>
	</rdf:RDF>
	<bar:data  content="-13.92" name="coronalcoord"></bar:data>
	
		<bar:data  content="{&apos;ReferenceHeight&apos;: 900, &apos;ReferenceWidth&apos;: 1200, &apos;imageSize&apos;: (1200, 900)}" name="rendererConf">
		</bar:data>
	
		<bar:data  content="{&apos;DumpEachStepSVG&apos;: False, &apos;DumpEachStepPNG&apos;: False, &apos;GrowDefaultBoundaryColor&apos;: 200, &apos;CacheLevel&apos;: 5, &apos;NewPathIdTemplate&apos;: &apos;structure%d_%s_%s&apos;, &apos;PoTraceConf&apos;: {&apos;potrace_accuracy_parameter&apos;: &apos;0.001&apos;, &apos;potrace_width_string&apos;: &apos;1200pt&apos;, &apos;potrace_svg_resolution_string&apos;: &apos;300x300&apos;, &apos;potrace_height_string&apos;: &apos;900pt&apos;}, &apos;DetectUnlabelled&apos;: True, &apos;DumpVBrain&apos;: False, &apos;DumpWrongSeed&apos;: True, &apos;DumpDirectory&apos;: &apos;.&apos;, &apos;MinFiterTimesApplication&apos;: 3, &apos;RegionAlreadyTraced&apos;: 100, &apos;UnlabelledTreshold&apos;: 500}" name="tracingConf">
		</bar:data>
	<bar:data  content="0.0176211454,-9.5150660793,0.0176211454,-1.5355884426" name="transformationmatrix"></bar:data>
</defs>
<g id="content">
	<path class="st0" d="M2103.4,1221.4c-0.8-20.6-4.5-35.6-12.6-51.4c-4.1-8-5.9-10.3-15.9-20.3c-21.2-21.3-59-47.2-120.5-82.4
		c-43.5-25-77.7-39.2-131.5-54.8c-46.7-13.6-101.1-24.9-125.1-26.2c-11.3-0.5-19.2,0.8-24.9,4.3c-3.1,1.9-7.5,8.4-7.5,11
		c0,2.4-2.2,1.8-6.4-1.9c-14-12.1-30-23.6-41.3-29.7c-19.9-10.8-32.3-9.7-39.2,3.4c-1.4,2.6-1.7,5-1.6,13.5c0,11.3,2,20.8,8,38.7
		c1.7,5.1,3.2,10.1,3.2,11c0,3.3-2.3,1.4-7.2-5.9c-11.8-17.5-29.8-37.3-42.9-47.3c-7-5.2-20.5-12.2-31.8-16.3
		c-24.1-8.8-61.4-15.5-93.8-16.8c-7.8-0.3-14.2-0.9-14.2-1.4c0-0.4,1.4-2.1,3.2-3.6c12.5-11,4.3-24.4-23.5-38.3
		c-29.3-14.6-78.9-29.5-103.5-31c-1.2-0.1-2.6-0.1-4-0.1v1192c0.7,0,2.5,2.3,4,5.2c1.4,2.8,5.4,7.9,8.7,11.3
		c3.4,3.4,6.1,6.5,6.1,6.9c0,0.4-1.4,1.4-3,2.1c-3.7,1.5-5.6,5.5-4.9,10.3c0.6,4,3.8,6.9,8.5,8.2c7.3,2,16.4-3.6,16.4-10.2
		c0-1.8,0.2-3.2,0.5-3.2c0.3,0,4.2,0.6,8.7,1.4c19,3.3,100.4-1.4,151-8.6c10.2-1.4,31.9-4.3,48.2-6.3c66.9-8.2,102.1-16.7,133.2-32
		c36.2-17.8,62.7-41,99.3-86.8c19.9-24.9,24.8-30.3,47.9-53.2c27.4-27.1,37.2-40.3,51.4-69.8c14-29.1,22-56.3,26.6-90.9
		c2.3-18,2.2-53.5-0.5-70.2c-7.7-50-27.5-91.6-59.6-125.9c-18.5-19.7-57.2-49.9-88.5-68.9c-5.3-3.2-9.6-6.4-9.6-7.1
		c0-1.3,0.4-1.3,20.7,0.8c5.2,0.6,25.3,1.1,44.6,1.2c31.9,0.2,35.4,0,38-1.4c4.8-2.5,5.9-2.2,5.2,2c-1.5,9,7.6,15.6,15.7,11.3
		c3.1-1.5,3.7-3,3.7-8.2c0-4.8,0.4-4.8,8.2-1.5c4.8,2,7.2,2.4,13.9,2.4c12,0.1,18.2-2.3,43.6-16.4c25.5-14.1,52.4-33.7,72.9-52.9
		c45.5-42.8,63-73.8,53.3-94.4c-2.4-5.1-9.4-12.6-15.2-16.4c-2.4-1.6-2.8-3.9-0.6-3.9c0.8,0,4.2,0.8,7.5,1.7
		c12.4,3.7,24.5,5.8,30.7,5.3c11.8-0.9,21.2-7,29.1-19C2098.4,1271.9,2104.5,1248,2103.4,1221.4z"/>
	<path id="structure100_label112_SolM" bar:growlevel="0" bar:type="" class="st1" d="M1344.1,1553.8c-0.7,2.6-2.3,4.4-5.4,6.8
		c-6.2,4.6-26.8,16.8-35.2,20.9l-7.1,3.5v12.3c-0.1,10.3,0.2,12.4,1.2,12.4c0.7,0,1.6-0.5,1.9-0.9c1-1.6,7.1-4.3,11.3-5
		c5-0.7,13.1,1.1,22.4,4.9c8.1,3.4,9.5,3.5,8.7,0.7c-1.8-5.9-1.6-8.7,0.7-13.7c3-5.8,8.2-10.6,13.7-12.2c2.2-0.6,4-1.5,4-2
		c0-0.5-1-2.1-2.2-3.6c-4.1-5.4-7.7-14.5-9.9-25.2C1347.4,1549.2,1345.4,1549.8,1344.1,1553.8z"/>
	<path id="structure105_label118_IOB" bar:growlevel="0" bar:type="" class="st2" d="M1333.5,1986.8c-3.8,2.3-4.8,4.3-4.8,9.8
		c0,7.1,2.7,9.5,21.1,18.5c8.5,4.1,19,9.8,23.4,12.6c4.3,2.8,8.5,5,9.2,5c1,0,1.1-1.4,0.6-7c-0.6-8.3,0.5-12.3,4.3-16.5
		c1.4-1.5,2.6-3.1,2.6-3.7c0-0.9-32.5-16.9-38.9-19.3C1345.7,1984.4,1337,1984.6,1333.5,1986.8z"/>
	<path id="structure106_label120_SolIM" bar:growlevel="0" bar:type="" class="st3" d="M1351.2,1586.1c-8.5,5.4-12.1,15.6-8.4,23.8
		c1.5,3.4,2.4,4.1,13.9,9.5l12.2,5.8l4.6-1.1c6-1.3,12.8-5.6,13.5-8.5c0.4-1.4-0.2-4-1.4-6.9c-2-4.6-2-6.4-0.4-13.6
		c0.5-2.2,0.4-2.4-1.8-2.4c-3.4,0-12-3.2-17-6.3C1360.6,1582.8,1356.6,1582.8,1351.2,1586.1z"/>
	<path id="structure107_label121_SolV" bar:growlevel="0" bar:type="" class="st4" d="M1386.8,1616c-0.7,2.3-5.3,5.8-9.6,7.3
		c-5.5,1.9-4.5,3.8,3.6,6.9c6.7,2.6,8.2,2.8,35.3,4.6c33.7,2.3,38.1,2.3,37.6,0.6c-0.2-0.6-3.8-4.1-8.2-7.6l-7.8-6.6l-8.8,0.6
		c-13.9,1-31.5-1.9-37.2-5.9C1388.6,1613.7,1387.5,1613.7,1386.8,1616z"/>
	<path id="structure108_label122_sol" bar:growlevel="0" bar:type="" class="st5" d="M1399.9,1586.5c-1.3,1-4.8,3.1-7.9,4.5
		c-6.6,3-7.7,5-7.2,12.6c0.9,12.5,12.8,17.9,39.2,17.8c22.8-0.1,37.7-6.3,40.6-16.8c1.5-5.3,1.3-5.6-4.1-8.1
		c-6-2.7-19.9-7.5-21.6-7.5c-0.8,0-1.2,1.4-1.2,4.7c0,5.5-2,9.3-6.5,12.6c-6.1,4.7-15.8,5.8-21.1,2.5c-4.9-2.9-6.1-6.5-5.9-16
		C1404.3,1583.8,1403.8,1583.1,1399.9,1586.5z"/>
	<path class="st6" d="M1364.1,1985.6c-7.9-7.5-14-15.6-18.8-25.4c-4.5-9.1-6.1-17.1-3.7-18.1c1.7-0.6,6.2,1.6,11.2,5.6
		c6.9,5.7,7.1,4.4,1.7-10.2c-14.6-39.4-18.7-56.1-30.8-124.8c-10.1-58-12-65.8-17.6-74c-6-8.8-14.4-13.5-26.6-14.8
		c-4.2-0.5-6.8-0.7-9.3-0.7v18.3c3.7,0,7.1,0.8,7.6,2c1.5,4,3.5,49.6,4.7,106.7l0.6,30.5l2.3-0.6c4.7-1.2,6.8-0.7,9.4,2.4
		c3.1,3.6,5.6,11.4,6.9,21.5c5.5,39.2,9.6,51.6,21,62.8c8.2,8.1,13,11.3,29.2,19.1C1371.7,1995.6,1374.7,1995.5,1364.1,1985.6z"/>
	<path id="structure10_label9_Cu" bar:growlevel="0" bar:type="" class="st7" d="M1495.3,1463.5c-9.2,3.1-20.1,6.5-24.3,7.6
		c-18.6,4.6-34.5,9.4-35,10.6c-0.3,0.7,0,2,0.6,2.8c2.8,3.8,9.2,18.4,10.8,24.8c4.3,16.3,4.7,36.2,1,53.6c-1,4.7-1.8,9.3-1.8,10.2
		c0,1,1.6,2.3,5,3.8c7.4,3.2,7.6,3.2,7-3c-0.7-6.8,1.7-12.1,8.4-18.2c11.3-10.4,39.9-19.4,54.6-17.6c11.2,1.5,23,8.9,23,14.4
		c0,2.8,0.7,2.8,7.6,0.1c3.1-1.3,11.3-3.7,18.5-5.4c17.7-4.3,32.1-10.3,39.3-16.6l2.9-2.4l-0.5-11.5l-0.5-11.4h-7.2
		c-4,0-13-0.8-20.3-1.9c-15.8-2.3-17.3-2-25.5,5.1c-3.1,2.8-8,6.1-10.7,7.5c-4.4,2.1-6,2.3-15.3,2.3c-12.6,0-17.8-1.3-24.3-5.9
		c-9.7-6.9-11.9-7.9-19.8-9c-11-1.5-18-5-18-9c0-4.6,15-10.6,48.4-19.4c5-1.3,9.2-2.9,9.2-3.4c0-0.5-1.7-2.3-3.8-4.1
		c-2.2-1.7-5-4.6-6.6-6.5c-1.6-2.1-3.4-3.4-4.5-3.3C1512.7,1457.8,1504.4,1460.4,1495.3,1463.5z"/>
	<path id="structure110_label124_IOC" bar:growlevel="0" bar:type="" class="st8" d="M1309,1958c-1.7,1.5-3.4,1.8-10,1.8
		c-4.3,0-10.3,0.3-13.4,0.5l-5.5,0.6v12.7c0.1,21.5,1.1,23.3,14.5,24.2c9.2,0.6,16.1,2.1,27.6,5.7c4.1,1.4,7.7,2.2,8,1.8
		c0.4-0.3-0.1-2-0.9-3.7c-3.6-7.5,0-14.6,8.5-16.7c2.4-0.6,4.4-1.6,4.4-2.2c0-0.5-1.6-2-3.7-3.1c-6.8-3.9-16.9-12.6-20.7-18.1
		C1313.7,1955.8,1312.4,1955.3,1309,1958z"/>
	<path id="structure111_label125_IOBe" bar:growlevel="0" bar:type="" class="st9" d="M1283.1,1928.9l-4.8,0.4l0.6,15
		c0.4,9.3,0.9,15.3,1.5,15.8c0.5,0.4,2.4,0.4,4.1,0c1.7-0.4,7.7-0.6,13.3-0.6c9.6-0.1,10.3-0.2,12-2.3c2.2-2.7,2.2-3.2-0.6-12.6
		C1304.4,1928,1303.6,1927.5,1283.1,1928.9z"/>
	<path id="structure115_label130_AmbL" bar:growlevel="0" bar:type="" class="st10" d="M1564.2,1798.2c-8.3,3-12.2,8.8-12.2,18.1
		c0,15.5,13.1,39.2,24.8,44.9c8.5,4.1,24.8,1.3,29.4-5.2c7-9.8-1.4-33.6-17.5-48.9C1579.6,1798.3,1571.6,1795.5,1564.2,1798.2z"/>
	<path id="structure116_label131_RVRG" bar:growlevel="0" bar:type="" class="st11" d="M1627,1825.9c-2.5,5.6-9.5,16-14.5,21.6
		c-2.3,2.7-5,6.2-5.9,7.8c-1.2,2.1-3.2,3.7-7.5,5.7c-10.5,4.9-20.6,3.5-29-4.1c-3.9-3.4-5.7-4-5.7-1.9c0,0.7,3.2,6.5,7.2,12.8
		c3.9,6.3,9.3,15.4,11.9,20.3s5.3,8.8,6,8.8c0.6,0,4.8-3.4,9.2-7.6c9.8-9.4,21.7-17.4,31.5-21.3c7.4-3,7.9-3.1,20.4-3.1
		c9.5,0,12.8-0.3,12.8-1.1c0-3-31-41.7-33.4-41.7C1629.4,1822.1,1628,1823.7,1627,1825.9z"/>
	<path class="st12" d="M1367.5,903.1c-21.1-9.2-49.9-18.4-71.4-22.9c-6.7-1.4-17.2-2.5-25.8-2.8V928c4,0.1,8.6,0.6,10.5,1.4
		c1.1,0.4,2.6,1.7,3.4,3c1.3,2,1.3,2.4,0.1,4.9c-1.6,3.2-5.8,6.8-10.5,9.3c-1.8,0.9-2.6,1.3-3.5,1.3v24c8.1,0,9.2-0.2,41.6-8.5
		c28.5-7.5,57.7-12.3,73.3-12.3c6.5,0,13.2-3,17.4-7.7C1412.6,931.6,1400.2,917.4,1367.5,903.1z"/>
	<path id="structure121_Unlabeled-2156-1043_Unlabeled" bar:growlevel="0" bar:type="" class="st13" d="M1587.5,964.1
		c-4,2.1-6.7,4.8-8.8,8.8c-1.7,3.2-2,5-1.9,14c0,11.3,2,20.8,8,38.7c3.2,9.7,3.8,12.6,2.3,12.6c-1.7,0-0.9,1.9,5.2,12.9
		c4.7,8.4,7.8,15.8,13.1,31.2c25.7,74,48.7,128,70.9,166.9c25.4,44.3,70.8,109.8,112.7,162.4c21.1,26.5,35.6,49.6,35.6,56.6
		c0,1.6-0.4,4.6-1.1,6.6c-1.3,4.3,0,6.3,2.9,4.5c2.9-1.8,10.2-1.3,12.9,0.7c1.3,1,3.1,1.8,4,1.8c1,0,4.3,1.1,7.6,2.4
		c4.8,2,7.2,2.4,13.9,2.4c12,0.1,18.2-2.3,43.7-16.4s52.4-33.7,72.9-52.9c45.5-42.8,63.1-73.9,53.2-94.4c-2.4-5-6.3-9.4-13.6-15.3
		c-1.7-1.3-3.3-3.5-3.6-4.7c-0.4-2-1.8-2.7-10.2-5.7c-23.4-8.3-70.6-33.6-102.8-55.2c-24.4-16.4-41.7-31-67.6-56.8
		c-22.7-22.8-33.6-35.4-52.9-61.3c-7.1-9.4-16.5-21.3-21-26.6c-28.3-33-72.5-75.2-92.7-88.6c-2.3-1.4-3.9-3.2-3.9-4.1
		c0-1.1-0.6-1.7-1.7-1.7c-0.9,0-3.4-1.5-5.6-3.4c-20.2-17.4-40.7-30.9-53.6-35.2C1598.7,962.2,1591.3,962.1,1587.5,964.1z
		 M1648.6,1028.7c5.2,3.1,14.2,12.2,21.2,21.7c6.8,9.1,20.6,30.8,42.3,66.2c25.7,41.8,28.2,45.8,35.5,55.6
		c19.1,25.8,46,52.9,78.7,79.2c24.8,19.9,58.4,39.3,110.9,64.1c27.1,12.8,29.2,14.7,25.2,22.2c-3.8,7.1-18.5,15.9-37.4,22.4
		c-11.8,4.1-17.3,7.4-23.6,14.2c-6.4,7-11.1,15.3-16.9,30.1c-7.7,19.4-10.7,22.7-20.7,22.7c-4.5,0-6.7-0.5-11.7-3.2
		c-19.1-9.5-51.7-40.5-79.2-75.1c-15.8-19.8-32.8-44.6-49.1-71.1c-34.6-56.4-65.9-126.9-86.2-194.5c-7.6-25.2-9.9-35.2-9.9-42.7
		c0-7.4,1.1-10,5.4-12.9c2.6-1.8,3.9-2.1,7.6-1.6C1642.9,1026.2,1646.5,1027.4,1648.6,1028.7z"/>
	<path class="st13" d="M1327,1040.2c-18.9,7.4-44.1,13.3-56.7,13.3v11.7c5,0,35.1-7.4,49.4-12.2c17.3-5.8,30.7-13,30.7-16.5
		C1350.4,1032.4,1344.1,1033.4,1327,1040.2z"/>
	<path id="structure124_Unlabeled-2499-1241_Unlabeled" bar:growlevel="0" bar:type="" class="st13" d="M1894.4,1142.1
		c-10,2.6-15.3,6.2-18.4,12.5c-2.7,5.5-2.4,9.3,1.3,16.5c4.4,8.7,9.6,15.4,21.3,27.2c17,17.1,34.8,29.3,62.8,42.8
		c44.5,21.5,72.7,21.1,83.6-1.5c6.7-13.8,5.2-27.9-4.5-43c-7.4-11.5-27.7-29.1-42.1-36.3c-8.9-4.5-38.9-13.1-58.8-16.8
		C1926.9,1141,1901.2,1140.3,1894.4,1142.1z"/>
	<path class="st13" d="M1558.3,1348.1c-2.5-6.5-5.5-16.2-6.8-22.2c-2.9-13.3-4.1-16.2-13.1-30c-13.4-20.4-17.7-31.9-24.6-65.5
		c-3.7-18.3-3.8-18.4-6.4-18.4c-1.1,0-4.3-0.8-7.3-1.8c-17.5-6-53.7-12.7-91.3-16.7c-12.2-1.4-28.2-1.5-130.5-1.7
		c-2.7,0-5.4,0-8.1,0v84.6c15.6,0,31.9,0.8,54,2.2c15.6,1,46.3,2.3,68.4,2.8c62.9,1.5,87.7,3.2,99,6.8c9.9,3.1,21.7,10.4,29.8,18.4
		c8.1,8.1,10.3,12.8,9.5,19.9c-0.7,6.1-3.1,9.8-7.9,12.5c-3.5,2-5.2,2.3-15.8,2.5c-6.6,0.3-17.1-0.1-23.4-0.6
		c-37.2-3.2-73.7-3-94,0.7c-22.8,4.2-43.4,4.5-60.3,0.9c-19.1-4.1-23.3-4.4-59.3-4.4v43.2h56.3l14.4-3.2c31.2-6.9,36.9-7.7,48.1-7.2
		c5.7,0.3,17,1.4,25.2,2.5c19.3,2.6,51.2,2.8,71.5,0.4c24.9-2.9,40.4-5.2,50.4-7.5c5.5-1.3,13.7-2.5,18.3-2.8
		c7.3-0.4,8.3-0.7,8.3-2.2C1562.8,1360.2,1560.7,1354.4,1558.3,1348.1z"/>
	<path class="st13" d="M1585.5,1411.8c-3.4-6.8-5-7.7-7.9-4.6c-1.3,1.4-2.8,1.8-6.3,1.8c-5.7,0-11.1-1.8-25.2-8.4
		c-19.5-9-30.8-11.7-49.5-11.8c-10.8,0-13.6,0.4-36.5,5.1c-52.7,10.9-84,14.8-153.9,19.1c-13.1,0.8-24.3,1.2-36,1.2v51.1
		c63,0,64.2,0,76,1.6c9,1.2,19.7,1.6,46.3,1.9c37.2,0.4,62.1,2.2,62.1,4.6c0,0.6,0.5,1.2,1,1.2c2.8,0,25.1-6.3,40.2-11.3
		c9.6-3.2,18-5.8,18.6-5.8c0.6,0,1.4-0.3,1.5-0.7c0.5-1,17.7-8.3,19.7-8.3c0.9,0,1.7-0.4,1.7-0.9c0-1.2,6.5-4.8,14.4-8.1
		c6.9-2.9,29.3-9,33-9c1.6,0,2.1-0.5,2.1-2.2c0-1.3,0.5-2.5,0.9-2.8C1589.9,1424.5,1588.9,1418.1,1585.5,1411.8z"/>
	<path class="st13" d="M1310.1,1735.4c-0.3-3.5-0.8-6.6-1.1-6.8c-16.2-7.7-21.4-10.8-24.7-15c-6.3-8.5-9.6-20.6-9.6-35.6
		c0-10.6,1.5-18.2,5-24.1c3.1-5.2,11.3-13.9,20.1-20.9c4-3.2,7.2-6.3,7.3-6.8c0-0.6-2-2.3-4.4-4c-2.4-1.5-5-3.4-5.5-4.1
		c-1.7-2-4-1.5-5.4,1c-1.7,3.2-3.3,2.8-7.5-1.9c-4.5-5.1-9.1-7.4-14.1-7.3v9.7c1.5,0,3,0.6,4.5,2.2c4.1,4.4,3.1,15.6-1.8,17.1
		c-0.9,0.3-1.8,0.4-2.7,0.4v84.2c8.4,0,16.8,1.1,22,3.5c5.5,2.5,11.3,7.5,14.1,12C1309.5,1744.1,1310.8,1743,1310.1,1735.4z"/>
	<path id="structure129_Unlabeled-2242-2133_Unlabeled" bar:growlevel="0" bar:type="" class="st13" d="M1661.8,1945.7
		c-11.1,3.8-23.2,13.3-35.4,27.5c-18.1,21.1-26.5,36.5-32.6,59.5c-2.6,10-2.8,12.6-0.8,12.6c2.4,0,11.8-9.8,21.5-22.5
		c14.8-19.3,31.2-33.8,49.1-43.1c7.2-3.9,27.6-12.2,32.2-13.1c2.6-0.5,2.8-0.9,2.8-4.3C1698.6,1948.5,1679.1,1939.6,1661.8,1945.7z"
		/>
	<path class="st14" d="M1789,1411.7c-41.8-52.6-87.3-118.2-112.7-162.4c-22.2-39-45.2-93-70.9-166.9c-7.4-21.3-12.7-32.2-24-49.1
		c-12.8-19.2-30.2-38.4-43.7-48.6c-27.4-20.5-80.8-33.2-139.7-33.2c-32.5,0-48.1,2.3-91.8,13.6c-24.8,6.4-27.2,6.8-36,6.9v33.8
		c1,0,7.8-1.8,15.1-4c16.1-4.8,30.8-8.2,47-10.7c10.3-1.6,16-1.9,38.7-1.9c22.7,0,28.4,0.3,38.7,1.9c72.5,11.4,114.4,37.4,153,95.1
		c16.9,25.4,29.2,47.8,37.2,68c2.3,5.7,7.6,20.4,11.9,32.9c11.5,32.9,16.6,45.4,27.5,67.5c13.1,26.8,25.9,48,40.3,67
		c10.7,14.1,21.1,25.5,42.9,47.3c22.7,22.6,28.3,29.6,30.1,37.4c2.3,9.8-2.3,19.8-11.5,24c-4.7,2.3-6,2.4-15.9,2.3
		c-9.9-0.1-11.6-0.4-20.8-3.3c-17.3-5.8-34.8-15.6-51.3-28.9c-23-18.5-49.2-54-76.1-102.8c-14.8-26.8-23.8-46.5-35.3-77.3
		c-25.3-67-50.8-104.4-88.4-129.6c-21.1-14.1-44.8-22.3-68-23.6c-21.9-1.1-39.7,3.7-77.8,20.8c-18.4,8.3-27.9,12.4-37.3,12.4v34.4
		c3.6,0,7.9-1.7,18.9-5.8c32.5-12,54.5-15.8,72-12.2c41,8.4,103.9,42.9,131.8,72.6c13.7,14.5,16.7,20.4,20.8,40.6
		c6.9,33.8,11.3,45.3,24.7,65.8c9,13.8,10.3,16.7,13.1,30.1c1.3,6,3.5,13.9,5,17.5c1.4,3.6,6.1,15.7,10.3,26.8
		c4.3,11.2,11.1,26.5,14.9,34.1c5.2,10.2,7.1,14.8,7.1,17.3c0,1.9-0.4,3.7-0.9,4c-0.5,0.3-0.9,1.2-0.9,1.9c0,1,1.5,1.3,7.4,1.3
		c13.7,0,23.7,3.6,48.9,17.7c31.2,17.4,40.1,21.7,53.2,25.8c21.5,6.8,39,8.6,85.9,8.9c28.4,0.2,31.4,0,35.5-1.5
		c4.9-1.9,6.8-5,6.8-11.1C1824.7,1461.3,1810.5,1438.8,1789,1411.7z"/>
	<path class="st15" d="M1720.7,1368.5c-31.4-31.9-42.7-45.4-58.1-69.7c-20.9-32.9-35.9-65.2-51.3-109.9
		c-13.3-38.8-20.3-54.8-33.8-77.6c-16.6-27.7-29.4-45.4-44-60.5c-16.7-17.3-30-27-50.4-37c-46.1-22.6-107.9-29.9-164.3-19.3
		c-10.4,1.9-23.5,5.2-36.9,9.4l-11.4,3.5l-0.2-0.1v46c12.6,0,37.8-6,56.7-13.3c17.2-6.8,23.4-7.7,23.4-3.7
		c0,3.5-13.4,10.7-30.7,16.5c-14.3,4.9-44.4,12.2-49.4,12.2v34.2c8.4,0,14.8-2.1,38.3-12.6c32.3-14.3,46.2-18.8,63.9-20.6
		c18.5-1.9,41.8,3.2,63.9,13.9c45.7,22.1,78.6,65.3,106.3,139.7c8.5,23.1,14.6,36.9,25.6,58.8c26.6,52.8,54.7,94,78.7,115.4
		c26.9,24,55.3,37.7,78.8,38c10.7,0.1,14.8-1,19.5-5.1c4.5-4,6.6-8.9,6.6-15.8C1751.8,1400.9,1749.5,1397.7,1720.7,1368.5z"/>
	<path class="st16" d="M1789,1411.7c-41.8-52.6-87.3-118.2-112.7-162.4c-22.2-39-45.2-93-70.9-166.9c-7.4-21.3-12.7-32.2-24-49.1
		c-12.8-19.2-30.2-38.4-43.7-48.6c-27.4-20.5-80.8-33.2-139.7-33.2c-32.5,0-48.1,2.3-91.8,13.6c-24.8,6.4-27.2,6.8-36,6.9v33.8
		c1,0,7.8-1.8,15.1-4c16.1-4.8,30.8-8.2,47-10.7c10.3-1.6,16-1.9,38.7-1.9c22.7,0,28.4,0.3,38.7,1.9c72.5,11.4,114.4,37.4,153,95.1
		c16.9,25.4,29.2,47.8,37.2,68c2.3,5.7,7.6,20.4,11.9,32.9c11.5,32.9,16.6,45.4,27.5,67.5c13.1,26.8,25.9,48,40.3,67
		c10.7,14.1,21.1,25.5,42.9,47.3c22.7,22.6,28.3,29.6,30.1,37.4c2.3,9.8-2.3,19.8-11.5,24c-4.7,2.3-6,2.4-15.9,2.3
		c-9.9-0.1-11.6-0.4-20.8-3.3c-17.3-5.8-34.8-15.6-51.3-28.9c-23-18.5-49.2-54-76.1-102.8c-14.8-26.8-23.8-46.5-35.3-77.3
		c-25.3-67-50.8-104.4-88.4-129.6c-21.1-14.1-44.8-22.3-68-23.6c-21.9-1.1-39.7,3.7-77.8,20.8c-18.4,8.3-27.9,12.4-37.3,12.4v34.4
		c3.6,0,7.9-1.7,18.9-5.8c32.5-12,54.5-15.8,72-12.2c41,8.4,103.9,42.9,131.8,72.6c13.7,14.5,16.7,20.4,20.8,40.6
		c6.9,33.8,11.3,45.3,24.7,65.8c9,13.8,10.3,16.7,13.1,30.1c1.3,6,3.5,13.9,5,17.5c1.4,3.6,6.1,15.7,10.3,26.8
		c4.3,11.2,11.1,26.5,14.9,34.1c5.2,10.2,7.1,14.8,7.1,17.3c0,1.9-0.4,3.7-0.9,4c-0.5,0.3-0.9,1.2-0.9,1.9c0,1,1.5,1.3,7.4,1.3
		c13.7,0,23.7,3.6,48.9,17.7c31.2,17.4,40.1,21.7,53.2,25.8c21.5,6.8,39,8.6,85.9,8.9c28.4,0.2,31.4,0,35.5-1.5
		c4.9-1.9,6.8-5,6.8-11.1C1824.7,1461.3,1810.5,1438.8,1789,1411.7z"/>
	<path class="st17" d="M1498.9,1196.3c-18.7-23.3-61.8-51.7-104.4-68.8c-20-8-29-10.3-43.4-10.8c-19.3-0.7-35.7,2.7-65,13.6
		c-7.4,2.8-14.4,5-15.6,5c-0.1,0-0.2,0-0.3,0v56.3c128,0,127.7,0,161.7,4.6c27.8,3.7,49,7.9,65.7,13.1c5.1,1.5,9.5,2.5,9.9,2.2
		C1508.7,1210.5,1504.7,1203.5,1498.9,1196.3z"/>
	<path class="st18" d="M1521.4,1306.4c-8.1-7.9-19.9-15.3-29.8-18.4c-11.3-3.6-36.1-5.3-99-6.8c-22-0.5-52.8-1.8-68.4-2.8
		c-22.1-1.4-38.4-2.1-54-2.2v61.7c36,0,40.2,0.4,59.3,4.4c16.9,3.6,37.5,3.3,60.3-0.9c20.3-3.7,56.8-4,94-0.7
		c6.3,0.5,16.8,0.9,23.4,0.6c10.6-0.3,12.3-0.5,15.8-2.5c4.9-2.7,7.2-6.4,7.9-12.5C1531.8,1319.2,1529.5,1314.5,1521.4,1306.4z"/>
	<path class="st19" d="M1576.4,1394.4c-1.9-4.1-5.4-12.4-7.7-18.5c-2.9-7.4-5-11.3-6.2-12c-2.7-1.5-14.5-0.4-26.3,2.3
		c-10,2.3-25.6,4.6-50.4,7.5c-20.3,2.3-52.3,2.2-71.5-0.4c-8.2-1.1-19.5-2.3-25.2-2.5c-11.3-0.5-16.9,0.3-48.2,7.2l-14.4,3.2h-56.3
		v33.2c11.7,0,22.9-0.4,36-1.2c69.9-4.3,101.2-8.2,153.9-19.1c22.9-4.8,25.7-5.1,36.5-5.1c18.7,0.1,30,2.8,49.5,11.8
		c14.1,6.6,19.5,8.4,25.2,8.4c3.7,0,5-0.4,6.6-2.1C1580.5,1404.1,1580.4,1403.1,1576.4,1394.4z"/>
	<path class="st20" d="M1392.7,1468.9c-27.6-0.3-37-0.6-46.3-2c-9.9-1.4-15.9-1.6-38.7-1.4c-17.7,0.2-28.6,0.4-37.3,0.4v45.2
		c34.5,0,48.1,1,60.3,4.2c3.7,1,7.7,2,8.7,2.3c1.3,0.3,4.7-1.2,10.4-4.6c4.6-2.7,12.4-6.7,17.4-8.6c21.5-8.8,68.9-25.3,83.1-28.8
		c2.5-0.7,4.7-1.7,4.7-2.3C1454.8,1471.1,1428.5,1469.3,1392.7,1468.9z"/>
	<path class="st21" d="M1346.5,1540.6c-0.9-3-4.1-16-4.7-18.3c-1.2-6.1-22-9.4-62.7-10.1c-2.9-0.1-5.9-0.1-8.8-0.1v62.4
		c1.1,0,2.2-0.1,3.3-0.2c8-0.9,26.6-8.7,57.2-24C1343.6,1543.7,1346.8,1541.7,1346.5,1540.6z"/>
	<path id="structure1_label0_Sp5I" bar:growlevel="0" bar:type="" class="st22" d="M1729.3,1565.7c-14.7,9.8-16.9,23.4-8.8,54.8
		c2.3,8.6,5.8,22.1,7.7,29.8c7.4,28.6,9.6,49.9,6.9,65.3c-0.7,4.5-4.2,20.5-7.7,35.5c-9.7,42.5-10.4,46.4-10.3,59.8
		c0,16.2,3.6,32.1,9.9,43.7c3.5,6.4,7,9.1,16.2,12.5c7,2.7,9.1,3.1,17,3.1c8,0.1,9.5-0.2,14-2.3c6.6-3.2,22.5-17.5,30.1-26.9
		c17.9-22.3,26.3-45.5,30.7-85.4c1.5-14.1,1.8-41.2,0.4-53.8c-2.4-23-9.2-46.5-19.3-67.4c-11.4-23.8-22.9-40.1-30.5-43.8
		c-1.9-0.9-5.4-1.4-9.5-1.4c-4,0-7.4-0.5-9-1.3c-1.4-0.7-8.5-6.8-15.5-13.5c-8.4-7.9-13.5-12.2-14.8-12.2
		C1735.7,1562,1732.4,1563.6,1729.3,1565.7z"/>
	<path class="st23" d="M1288,1588.1c-6.3,2-12.1,3-17.7,3v18.6c4.7,0.1,10,2.8,14.1,7.6c2,2.3,4.2,4.1,4.9,4.1
		c0.7,0,2.3-1.7,3.6-3.9c2.3-3.5,2.4-4.8,3-17.6C1296.4,1584.3,1297.1,1585.2,1288,1588.1z"/>
	<path id="structure21_label20_12N" bar:growlevel="0" bar:type="" class="st24" d="M1298.9,1633.9c-20.7,17.4-24.8,25.4-23.8,47.3
		c0.5,13.7,3.1,23,8.3,30.9c4,5.8,6.8,7.7,20.9,14.1c9.1,4.1,12.2,5,17.6,5.5c9.6,0.7,11.8-0.7,16.6-10.4c6.3-12.7,7.7-18,8.2-30
		l0.4-10.6l6.9-6.9c7.6-7.7,13.6-17.1,13.6-21.4c0-2.3-0.8-3.5-4.1-6.2c-3.6-2.9-5.4-3.5-14.8-5.5c-12-2.4-23.7-6.3-32.7-10.8
		c-3.3-1.7-6.7-3.1-7.4-3.1C1307.9,1626.8,1303.5,1629.9,1298.9,1633.9z"/>
	<path id="structure22_label21_Mx" bar:growlevel="0" bar:type="" class="st25" d="M1608.7,1531.8c-8.6,6.7-21.7,11.9-40.9,16.6
		c-14.1,3.4-20.3,5.8-23.1,8.9c-1.3,1.4-4.7,5-7.5,8c-6.2,6.8-11.3,10.1-22.1,14.8c-13,5.6-24.5,8.2-34.5,7.7
		c-8.3-0.3-8.4-0.3-20.1-6.3c-6.4-3.3-13.4-6.4-15.7-6.9c-2.2-0.5-10.6-1.4-18.8-1.9c-8.2-0.5-19-1.8-23.9-2.8
		c-10.8-2.1-27.4-7.1-35.1-10.8c-3-1.4-5.9-2.6-6.5-2.6c-2.5,0-0.7,3,4.1,6.7c10,8,22.9,12.8,52.7,19.7c9.8,2.3,23,5.8,29.3,7.8
		c31.5,10.1,55.5,14.9,79.7,16.2c15.6,0.7,25.7,1.9,35.8,4.1c3.1,0.7,3.2-0.9,0.5-6.2c-1.6-3-2.1-5.3-2.1-11c0-6.6,0.3-7.9,3.3-14
		c4.4-9,11.6-15.8,25.6-24c5.9-3.5,15.3-9.6,20.7-13.5c9.2-6.6,12.3-10.1,9-10.1c-0.8,0-2.2-0.8-3-1.8
		C1614.1,1528.2,1613.4,1528.2,1608.7,1531.8z"/>
	<path id="structure23_label22_CuR" bar:growlevel="0" bar:type="" class="st26" d="M1502.9,1540c-10.9,2.4-22.2,6.7-29,10.8
		c-10.3,6.5-15,12.9-15,20.7c0,6.3,2.8,10.4,9.4,13.7c16.3,8.1,55.3-4,70.6-21.7c8.9-10.5,7.7-15.3-5.3-21.5
		c-5.7-2.6-7.3-3-15.3-3.2C1512.6,1538.8,1506.8,1539.1,1502.9,1540z"/>
	<path id="structure24_label23_IRt" bar:growlevel="0" bar:type="" class="st27" d="M1402.6,1638c0,0.3,0.8,3,1.8,5.8
		c1.7,4.9,1.7,5.7,0.4,8.6c-0.7,1.7-4,5.9-7.2,9.3c-3.2,3.3-5.8,6.5-5.8,7c0,0.5,2.5,2.9,5.7,5.4c13.5,10.9,33.7,29.6,59.2,55.2
		c38.6,38.5,63.5,66.7,88.7,100.3c15.6,20.7,17.7,21.7,10.7,5c-4.1-9.7-5.6-18.1-4.2-23c3.2-11.4,13.4-17.3,24-13.6
		c13.8,4.7,29.6,26.4,32.9,44.8c0.6,3.4,1.3,5.2,2.2,5.2c2.9,0,17.5-22.7,17.5-27.3s-29.8-34.7-67.1-67.7
		c-47.3-41.9-87.1-73.7-117.6-93.8C1421.8,1645,1402.6,1635,1402.6,1638z"/>
	<path id="structure25_label24_MdV" bar:growlevel="0" bar:type="" class="st28" d="M1823.8,1574.1c0,0.6,3.1,7,6.8,14.2
		c16.3,31.6,27.5,63.7,32,93c1.5,9.4,1.5,41.5,0,52.7c-4.5,33.7-14,69.7-23.8,90.2c-6.1,12.9-14.9,25.4-30.9,44
		c-28.2,32.9-42.7,45.1-59,49.9c-5,1.4-5.1,1.5-12,11.5c-9.2,13.3-19.3,26.8-25.2,33.7c-2.9,3.2-4.9,6.4-4.9,7.6
		c0,3.4-7.6,9.7-22.5,18.5c-15.7,9.2-33.6,23.9-52.2,42.7c-11.4,11.6-19.6,17.4-35.8,25.5c-13.6,6.8-20.2,8.2-36.2,7.5
		c-18-0.8-29.3-3.6-45.9-11.5c-18.3-8.7-36.1-22.4-42.1-32.6c-4.3-7.2-7.4-16.4-7.4-22.4c0-15.3,13-28.5,39.4-40.3
		c19.4-8.6,35.1-12.8,55.1-14.4c13.1-1.1,20.3-2.5,26.9-5.5c6.7-2.9,14.5-8.3,14.5-10c0-2.9-5.4-16.6-11.6-29.3
		c-17.9-36.5-47.5-77.7-91.7-127.2c-25.8-28.9-75.9-77.8-99-96.7c-4.8-3.9-7-5.1-8.6-4.9c-1.1,0.2-11.3,6.8-22.4,14.8
		c-19.5,13.7-20.4,14.5-21.3,18c-0.5,2.1-2.4,7.1-4.1,11.3c-1.7,4.1-3.1,7.8-3.1,8.3s1.3,2.4,3.1,4.3c1.6,2,4,5.4,5.1,7.6
		c3.1,5.7,4.4,5.3,4.4-1.3c0-10.8,4.6-16.3,9.6-11.6c5,4.6,7.1,14.4,4.7,21.4c-1.7,4.9-6.7,6.1-10.2,2.3c-1.2-1.3-2.4-2.3-3-2.3
		c-0.4,0-0.8,4-0.7,8.7c0,10.7-2.1,15.8-7.4,18c-7.4,3.1-19.5-3.3-26.1-13.7c-2.6-4.2-4.8-5.3-4.8-2.3c0,0.9,1,6.5,2.2,12.3
		c1.3,5.9,5.3,28.3,9.1,49.8c7.6,43.7,11.1,60.8,14.9,75.2c3.8,13.9,10.9,35.5,16.7,50.8c5.4,14.2,5.9,14.8,26.4,36.4
		c6.2,6.5,10.2,12.1,11.3,15.5c0.8,2.9-2.3,5.7-6.3,5.7c-1.9,0-3.2,0.4-3.2,1.1c0,0.6,4.3,3.8,9.7,7c19.5,11.9,30.1,21.4,35.4,32
		c3.2,6.4,3.7,12.8,1.4,17.2c-1.7,3.3-7.3,6.6-11.3,6.6c-1.8,0-2.7,0.4-2.7,1.4c0,0.7,0.4,1.3,0.7,1.3c1.5,0,14.3,13.2,19.4,20
		c3.7,4.9,5.9,7,7.2,7c1,0,8.6-1,16.7-2.3c8.2-1.3,26.6-3.7,41-5.4c52.8-6.5,71.3-9.5,96.3-15.9c43.8-11.2,72.8-26.6,105.3-56.3
		c12.7-11.6,23.7-23.8,42.2-46.9c23-28.7,30.6-37.1,57.3-62.7c31.5-30.3,56.1-79.5,65.5-131.4c10.8-59.3,4.2-114.5-19.3-161.6
		C1838.1,1587.8,1823.8,1567.4,1823.8,1574.1z M1470.1,2044.1c16.3,2.7,27,7.2,27,11.5c0,2.5-4.1,5.7-9.5,7.3c-6.9,2-22,2-30.6-0.1
		c-14.2-3.2-21.8-13.1-14-18.1C1447.6,2041.7,1454.4,2041.5,1470.1,2044.1z"/>
	<path id="structure26_label25_Ro" bar:growlevel="0" bar:type="" class="st29" d="M1335.5,1727c-2.7,4.3-5.3,5.2-13,4.8
		c-3.7-0.3-8.1-0.7-9.8-1.1l-3.1-0.6l0.5,5.5c0.6,7.5,6.2,18.9,12.2,25.2c5.4,5.7,12.3,9.2,18.2,9.2c3.7,0,4.6-0.4,7-3.2
		c1.5-1.8,2.8-3.3,2.8-3.4s0.4-2.5,0.9-5.3c1-6.6-0.2-14.7-3.2-21c-2.6-5.7-8.1-13.1-9.6-13.1
		C1337.8,1724.1,1336.5,1725.3,1335.5,1727z"/>
	<path id="structure28_label27_LRt" bar:growlevel="0" bar:type="" class="st30" d="M1666.4,1887.9c-12.1,1.4-25.2,5.7-33.6,10.8
		c-2.3,1.4-7.5,6.5-11.7,11.3c-13.9,15.8-29.8,27.5-43,31.3c-2.7,0.8-11.3,2.1-19.1,2.8c-21.1,2.1-29.9,4-46.3,10.5
		c-36.4,14.4-51.1,29.8-47.3,49c1.5,7.3,6.4,17.5,10.9,22.9c11.2,13.4,38.1,29.2,58.9,34.6c10.4,2.7,29.3,4.4,37.8,3.4
		c6.1-0.7,6.3-0.8,6.4-3.2c0.1-2.5,1.9-4.9,7.7-10.5c3-2.8,3.6-4.1,5.3-12.2c5.7-25.3,14.8-42.9,33.5-64.8
		c21.1-24.6,39-33.7,56.4-28.7c9.7,2.7,16.2,9.4,16.3,16.7c0,2.6,0.4,3.4,1.5,3.4c0.8,0,2.9,0.5,4.6,1.1c2.9,1.1,3.2,1,5.7-2
		c6.3-7.5,10.7-13.4,10.7-14.6c0-0.7-1.2-1.9-2.5-2.7c-4.6-2.7-15.7-13.7-18.7-18.4c-5.5-8.6-7-14.7-6.9-27.5v-11.4l-4.6-0.9
		C1681,1887.3,1673.5,1887,1666.4,1887.9z"/>
	<path id="structure2_label1_Sp5C" bar:growlevel="0" bar:type="" class="st31" d="M1629.1,1530.5c-2.9,0.5-5.6,1.9-8.6,4.3
		c-5.8,5-25.2,18-34.4,23.2c-10,5.8-18.5,14.1-22.5,22.2c-2.6,5.4-3.1,7.1-3.1,13c0,5.7,0.4,7.8,2.4,11.9
		c5.7,11.6,14.9,18.6,36.6,27.9c29.7,12.7,42.2,21.2,54.4,37.3c12.1,16.1,29.4,43.7,37.9,60.8c11.6,23.1,12.8,35.6,5.8,63.9
		c-2.7,11.1-3.6,16.6-3.6,22.1c0,14.8,4.8,27.8,13.1,36.1c6.5,6.6,10.7,8.6,16.6,7.8c5.5-0.6,5.7-1.4,2-8.9
		c-5.7-11.4-9.5-28.5-9.3-42.2c0-10.7,1.4-18.1,11.3-60.8l7.4-32l-0.1-17.5c0-16.2-0.3-18.6-2.9-31c-1.5-7.5-5.3-22.9-8.3-34.2
		c-7.6-28.3-8.3-32.1-8.4-41.4c-0.1-13.6,5.3-23.3,16-28.9c2.7-1.4,5-3.1,5-3.7c0-0.5-3.2-3.9-6.9-7.4
		c-11.5-10.6-28.8-17.6-51.8-21.2C1667.1,1530.2,1635.5,1529.3,1629.1,1530.5z"/>
	<path id="structure30_label29_Gr" bar:growlevel="0" bar:type="" class="st32" d="M1421,1485.4c-16.7,5.8-47.3,17.2-56.3,21.1
		c-10,4.2-21.5,11.1-22.3,13.1c-0.8,2.2,2.1,14.8,4.6,20.2c3,6.5,10.3,14.2,16.6,17.6c7.2,3.9,21.5,8.7,33.7,11.4
		c12.5,2.8,47.5,5.8,48.5,4.1c0.4-0.5,1.4-5,2.3-9.7c2.6-13.2,2.4-40.9-0.4-51.8c-3.8-14.8-11.2-29.4-14.9-29.3
		C1431.8,1482,1426.5,1483.6,1421,1485.4z"/>
	<path class="st33" d="M1364.1,1985.6c-7.9-7.5-14-15.6-18.8-25.4c-4.5-9.1-6.1-17.1-3.7-18.1c1.7-0.6,6.2,1.6,11.2,5.6
		c6.9,5.7,7.1,4.4,1.7-10.2c-14.6-39.4-18.7-56.1-30.8-124.8c-10.1-58-12-65.8-17.6-74c-6-8.8-14.4-13.5-26.6-14.8
		c-4.2-0.5-6.8-0.7-9.3-0.7v18.3c3.7,0,7.1,0.8,7.6,2c1.5,4,3.5,49.6,4.7,106.7l0.6,30.5l2.3-0.6c4.7-1.2,6.8-0.7,9.4,2.4
		c3.1,3.6,5.6,11.4,6.9,21.5c5.5,39.2,9.6,51.6,21,62.8c8.2,8.1,13,11.3,29.2,19.1C1371.7,1995.6,1374.7,1995.5,1364.1,1985.6z"/>
	<path class="st34" d="M1424.2,2072c-26.9-25.6-70.6-41.9-123.8-46.5c-6.4-0.5-14.5-0.9-17.9-0.7c-5.9,0.3-6.4,0.4-7.7,2.9
		c-1.4,2.7-3,4-4.5,4.1v31.6c0.3,0,2.3,3.5,4.4,7.9c5,9.5,11.5,16.4,20.3,21.1c13.3,6.9,25.7,8.5,58.9,7c45.4-1.8,87.4-5,87.4-6.7
		C1441.3,2090.6,1432,2079.5,1424.2,2072z"/>
	<path id="structure37_label38_10n" bar:growlevel="0" bar:type="" class="st35" d="M1470.1,1600c0.1,0.6,2.2,2.6,4.8,4.3
		c7.9,5.4,11.7,15.2,9.4,24.4c-1.9,7.6-3.3,8.2-19.8,8.7c-8.2,0.2-21.5-0.2-32.9-1.1c-30.7-2.3-31.9-2-17.5,5.2
		c29.2,14.5,79.1,51.6,133.8,99.5c61,53.4,89.6,84,121.3,129.8l11,15.9l5.8,1.1c3.2,0.5,9.5,2.3,13.8,3.6c4.4,1.4,8.2,2.6,8.4,2.6
		c0.8,0,0.3-2.8-1.4-6.4c-3.8-8.4-1.3-18.8,5.5-22.7c4.3-2.4,4.4-4.4,0.4-6.9c-4.3-2.7-10.1-9.4-13.1-15.4
		c-6.8-13.5-7.5-27.5-2.3-47.2c4.1-15.5,5.2-31.8,2.8-42.1c-3.2-13.3-10.5-28.4-26-53.1c-24.9-39.8-36.5-50.8-66-63.3
		c-21.6-9.1-29.7-13.5-36.4-19.8c-6.4-6-15.5-8.1-41.2-9.4c-19.7-1-27.8-2.1-46.3-6.4C1471.1,1598.5,1470.1,1598.4,1470.1,1600z"/>
	<path id="structure3_label2_MdD" bar:growlevel="0" bar:type="" class="st36" d="M1470.1,1600c0.1,0.6,2.2,2.6,4.8,4.3
		c7.9,5.4,11.7,15.2,9.4,24.4c-1.9,7.6-3.3,8.2-19.8,8.7c-8.2,0.2-21.5-0.2-32.9-1.1c-30.7-2.3-31.9-2-17.5,5.2
		c29.2,14.5,79.1,51.6,133.8,99.5c61,53.4,89.6,84,121.3,129.8l11,15.9l5.8,1.1c3.2,0.5,9.5,2.3,13.8,3.6c4.4,1.4,8.2,2.6,8.4,2.6
		c0.8,0,0.3-2.8-1.4-6.4c-3.8-8.4-1.3-18.8,5.5-22.7c4.3-2.4,4.4-4.4,0.4-6.9c-4.3-2.7-10.1-9.4-13.1-15.4
		c-6.8-13.5-7.5-27.5-2.3-47.2c4.1-15.5,5.2-31.8,2.8-42.1c-3.2-13.3-10.5-28.4-26-53.1c-24.9-39.8-36.5-50.8-66-63.3
		c-21.6-9.1-29.7-13.5-36.4-19.8c-6.4-6-15.5-8.1-41.2-9.4c-19.7-1-27.8-2.1-46.3-6.4C1471.1,1598.5,1470.1,1598.4,1470.1,1600z"/>
	<path class="st37" d="M1720.7,1368.5c-31.4-31.9-42.7-45.4-58.1-69.7c-20.9-32.9-35.9-65.2-51.3-109.9
		c-13.3-38.8-20.3-54.8-33.8-77.6c-16.6-27.7-29.4-45.4-44-60.5c-16.7-17.3-30-27-50.4-37c-46.1-22.6-107.9-29.9-164.3-19.3
		c-10.4,1.9-23.5,5.2-36.9,9.4l-11.4,3.5l-0.2-0.1v46c12.6,0,37.8-6,56.7-13.3c17.2-6.8,23.4-7.7,23.4-3.7
		c0,3.5-13.4,10.7-30.7,16.5c-14.3,4.9-44.4,12.2-49.4,12.2v34.2c8.4,0,14.8-2.1,38.3-12.6c32.3-14.3,46.2-18.8,63.9-20.6
		c18.5-1.9,41.8,3.2,63.9,13.9c45.7,22.1,78.6,65.3,106.3,139.7c8.5,23.1,14.6,36.9,25.6,58.8c26.6,52.8,54.7,94,78.7,115.4
		c26.9,24,55.3,37.7,78.8,38c10.7,0.1,14.8-1,19.5-5.1c4.5-4,6.6-8.9,6.6-15.8C1751.8,1400.9,1749.5,1397.7,1720.7,1368.5z"/>
	<path id="structure42_label43_cu" bar:growlevel="0" bar:type="" class="st38" d="M1586.2,1430.2c-12.7,1.7-35.7,9.1-44.7,14.3
		c-3.3,2-4,2.8-3.7,4.8c0.4,3.8,4.7,3.6,17.8-0.5c24.4-7.7,51-11.2,60.9-7.9c2.4,0.8,5.5,2.6,6.8,4c2.3,2.4,7.4,13.9,8.4,18.9
		c1.2,5.8-4.8,12.2-13.6,14.7c-1.7,0.5-10.3,1-19.2,1.2c-14.8,0.2-16.5,0.4-22.9,2.7c-8.4,3-7.4,3.1-29.2-4.2
		c-19-6.3-13.8-6.6-42.8,1.7c-9.3,2.6-20.3,6.4-24.5,8.4c-7,3.2-7.6,3.8-7.6,6.2c0,4.7,5.2,7.4,17.1,8.7c6.7,0.7,9,1.8,16.9,7.4
		c8.5,6,10.9,6.8,23.7,7.3c14.9,0.5,18.9-0.6,27.5-7.8c10.7-8.9,11.9-9.3,27.8-6.8c4.9,0.7,13.1,1.3,18.4,1.3h9.5l1.1-3.9
		c2.3-8.6,15.5-22.1,27.5-28.1l6.2-3.1h16c12.3,0,16.1-0.3,16.1-1.2c0-0.5-4.3-3.3-9.6-6c-5.3-2.7-15.8-8.4-23.2-12.5
		c-28.9-16-36.3-18.9-49.5-19.4C1593,1430,1587.9,1430.1,1586.2,1430.2z"/>
	<path id="structure45_label46_rs" bar:growlevel="0" bar:type="" class="st39" d="M1719.2,1862.5c-11,2.9-15.7,10.4-13.2,21.5
		c1.4,6.9,5.1,11.3,12.6,15.1c3.6,1.7,8.6,4.7,11.3,6.4c5.4,3.6,7,3.6,14.2,0.2c5.3-2.4,10.1-7.8,11.4-12.7
		c1.3-5.3,0.5-13.9-1.8-18.6c-2-3.9-2.4-4.1-12-7.7c-2.3-0.9-5.7-2.5-7.5-3.8C1730.4,1860.4,1727.5,1860.3,1719.2,1862.5z"/>
	<path id="structure46_label47_sp5" bar:growlevel="0" bar:type="" class="st40" d="M1644.6,1471c-10.1,4-25,17.5-29.3,26.6
		c-1.9,4.1-2.2,5.8-2.2,15.7c0,11.3,0.9,15.6,4,18.1c1.3,1.1,2.4,1,8.5-0.4c13.9-3.3,46.5-1.5,67.1,3.7c9.9,2.5,22,7.4,27.8,11
		c2.1,1.3,12.1,10.3,22.2,20c24.1,23.1,23,22.3,32.4,22.8c8.9,0.4,12,1.8,17.6,7.6c11,11.3,27.3,42.6,34.9,67.1
		c6.8,21.7,9.1,38.2,9,64.7c-0.1,20.9-1.3,33.5-5,53.1c-6.3,33.1-21.2,58.3-47.3,80.1c-10.1,8.4-14.7,10.3-24.3,10.2
		c-7.4-0.1-7.4,0-5.1,6.1c4.6,12.7-1.4,25.7-14,30.2c-2.5,0.9-4.6,2-4.6,2.3c0,1.5,7.6,8.7,9.2,8.7c3.1,0,13.4-4.5,19.7-8.6
		c14.6-9.4,52.5-50.8,65.4-71.6c14.1-22.5,26.6-64.3,31.3-105.2c1.8-16,1.3-45.4-0.9-58c-3.2-17.5-8.6-35.5-16.6-55.4
		c-13.8-34.4-28.3-58.9-44.1-74c-28.4-27.1-84.2-65.5-105.8-72.7c-7.8-2.6-9-2.7-27.1-3.1C1651,1469.5,1648.2,1469.6,1644.6,1471z
		 M1686.7,1483.4c1.9,2.8,1.9,8.5,0.2,11c-0.7,1-3.7,4.4-6.7,7.7c-4.1,4.6-5.8,7.5-7.2,11.9c-1.1,3.2-2.3,5.8-2.8,5.8
		c-0.5,0-1.3-1-2-2.3c-1-2-1.1-3.3-0.3-6.6c1.3-5.1,0.7-7-2.7-8.4c-2.2-0.9-3.4-0.9-6.4-0.1c-3.1,1-3.9,0.9-5-0.2
		c-1.8-1.8-0.6-5.6,2.6-8.3c2.2-1.8,3.6-2.3,7.7-2.3c5,0,5.1-0.1,10.3-5.4C1680.8,1480.1,1684,1479.3,1686.7,1483.4z"/>
	<path class="st41" d="M1277.3,1628.4c-0.6-5.4-3.7-8.8-7-8.8v19.5C1275.2,1639.3,1277.9,1635.2,1277.3,1628.4z"/>
	<path id="structure48_label49_12GH" bar:growlevel="0" bar:type="" class="st42" d="M1354,1721.8c-1.5,2-1.9,3.7-1.9,9.5
		c0,7.8,1.4,12.3,4.6,14.6c2.8,2,4.9,1.8,7-0.5c4.1-4.5,3-17.5-2.1-22.9C1358.1,1718.9,1356.5,1718.7,1354,1721.8z"/>
	<path id="structure49_label50_CeCv" bar:growlevel="0" bar:type="" class="st43" d="M1388.9,1636c-0.5,4.9-4.5,6.5-16.6,6.9
		c-5.6,0.2-10.2,0.6-10.2,1.1c0,0.5,1.4,2.2,3.2,3.8c2.9,2.6,3.2,3.3,2.6,5.8c-0.9,4.4-8.5,15.3-14.9,21.4l-5.8,5.5l0.4,8.3
		c0.3,7.2,0.5,8.3,1.8,7.9c1.9-0.4,37.8-25.8,44.1-31c7.5-6.3,11.8-12.3,11.8-16.2c-0.1-7.5-5.8-14.8-12.3-15.8
		C1389.2,1633.1,1389.1,1633.1,1388.9,1636z"/>
	<path id="structure51_label52_SolVL" bar:growlevel="0" bar:type="" class="st44" d="M1465.2,1603.4c-1.1,7-9.9,13.8-21.2,16.4
		c-2.4,0.5-4.5,1.4-4.5,2c0.1,0.5,4,4.1,8.6,7.9l8.5,7l10.1-0.1c5.6-0.1,11.1-0.4,12.3-0.7c7.5-2,7-20.6-0.6-28.3
		c-3.2-3.2-10.1-7.8-11.8-7.8C1466.2,1599.8,1465.6,1601.4,1465.2,1603.4z"/>
	<path id="structure52_label53_SolI" bar:growlevel="0" bar:type="" class="st45" d="M1405.7,1583.3c-0.4,0.9-0.8,5-1.1,9.3
		c-0.8,13.3,2.5,17.6,13.7,17.6c10.4-0.1,17.8-5.5,19-14c1-7.7,0.5-8.2-14.6-11.4C1407.2,1581.3,1406.6,1581.3,1405.7,1583.3z"/>
	<path class="st46" d="M1344.9,1544c-0.5,0-9.5,4.2-20,9.4c-31.4,15.4-44.8,20.9-54.6,21.3v15.6c8.9,0,11.4-0.4,18-2.5
		c11.7-3.9,27-12,45.7-24.2c7.6-5.1,8.4-5.8,10.1-10.3C1346,1548,1346.4,1544,1344.9,1544z"/>
	<path id="structure54_label55_Pa5" bar:growlevel="0" bar:type="" class="st47" d="M1675.1,1486.3c-5,5-5.8,5.5-9.5,5.5
		c-7.5,0-12,3.2-12,8.6v2.4l5.7-0.6c8.3-0.9,9.2,0.1,9.2,9.6c0,6.1,0.3,7.5,1.4,7.7c1.1,0.2,1.6-0.6,2-2.9c0.8-5.2,3.2-9.2,9.5-15.9
		c5.2-5.6,5.9-6.8,6.2-10.5c0.4-5.4-1.2-8.6-4.5-9C1681,1480.9,1679.5,1481.9,1675.1,1486.3z"/>
	<path id="structure55_label56_ROb" bar:growlevel="0" bar:type="" class="st48" d="M1275.9,1804.3c1,83.9,1.5,93.4,5.1,82.6
		c1-2.9,1.1-11.4,0.6-42.6c-0.6-39-2-78.8-3-87.8c-0.4-3.4-0.9-4.7-1.9-4.7C1275.5,1751.9,1275.4,1756.8,1275.9,1804.3z"/>
	<path id="structure56_label57_IOK" bar:growlevel="0" bar:type="" class="st49" d="M1284,1882.7c-4.8,5.4-5.8,11.1-5.5,29
		c0.3,17.5,0.5,18,6.1,17.1c10-1.5,11.4-1.5,14.8-0.1c5,2.1,6.2,1.9,5.6-0.8c-0.4-1.3-1.6-9.4-2.8-18c-3.2-22.3-6.6-30.1-13-30.1
		C1287.4,1879.7,1285.9,1880.6,1284,1882.7z"/>
	<path id="structure57_text3135_IOD" bar:growlevel="0" bar:type="" class="st50" d="M1340.8,1943.1c-0.7,1.9,1.1,9.4,3.6,15.2
		c9.2,20.8,31.4,40.8,44.4,40c4.1-0.3,4.3-0.4,4.6-3.2c0.4-4.1-2.5-8.1-17.6-24.2c-15.4-16.6-22.1-22.9-27.6-26.4
		C1343.2,1941.5,1341.5,1941.2,1340.8,1943.1z"/>
	<path id="structure5_label4_PM" bar:growlevel="0" bar:type="" class="st51" d="M1633,1027.6c-4.3,2.9-5.4,5.5-5.4,12.9
		c0,18,23.4,89,47.3,143.6c30,68.3,72.5,136.8,115.1,185.4c12.5,14.2,34.7,35.5,45.9,43.9c13.5,10.2,20.6,13.7,27.8,13.7
		c10,0,13-3.2,20.7-22.7c5.8-14.8,10.5-23,16.9-30.1c6.3-6.8,11.8-10.2,23.6-14.2c18.9-6.5,33.7-15.3,37.4-22.4
		c4-7.6,1.9-9.4-25.2-22.2c-52.5-24.8-86-44.2-110.9-64.1c-32.7-26.3-59.6-53.4-78.7-79.2c-7.3-9.8-9.8-13.9-35.5-55.6
		c-33.5-54.5-43.7-69.7-54.1-79.9c-7.1-7.1-11.9-10-17.5-10.6C1636.8,1025.5,1635.6,1025.8,1633,1027.6z"/>
	<path class="st52" d="M1277.4,1899c-1.7-60.6-2.6-121.2-1.9-138.2c0.5-12.1,0.4-17.7-0.2-18.2c-0.6-0.4-2.8-0.7-5-0.7v223.5
		c2.4,0,4.7,1.6,5.7,4.2c0.5,1.5,1.6,2.7,2.3,2.7C1279.5,1972.4,1279.5,1971,1277.4,1899z"/>
	<path class="st6" d="M1364.1,1985.6c-7.9-7.5-14-15.6-18.8-25.4c-4.5-9.1-6.1-17.1-3.7-18.1c1.7-0.6,6.2,1.6,11.2,5.6
		c6.9,5.7,7.1,4.4,1.7-10.2c-14.6-39.4-18.7-56.1-30.8-124.8c-10.1-58-12-65.8-17.6-74c-6-8.8-14.4-13.5-26.6-14.8
		c-4.2-0.5-6.8-0.7-9.3-0.7v18.3c3.7,0,7.1,0.8,7.6,2c1.5,4,3.5,49.6,4.7,106.7l0.6,30.5l2.3-0.6c4.7-1.2,6.8-0.7,9.4,2.4
		c3.1,3.6,5.6,11.4,6.9,21.5c5.5,39.2,9.6,51.6,21,62.8c8.2,8.1,13,11.3,29.2,19.1C1371.7,1995.6,1374.7,1995.5,1364.1,1985.6z"/>
	<path class="st53" d="M1277.3,1991.7c-0.4-23.4-0.7-25-6.8-25.5c-0.1,0-0.2,0-0.3,0v65.4C1275.5,2032,1277.7,2019.7,1277.3,1991.7z
		"/>
	<path id="structure69_label68_LRtPC" bar:growlevel="0" bar:type="" class="st54" d="M1690.6,1968.3c-19.9,7.2-29.8,12.2-42.3,21.1
		c-12.2,8.6-22.9,19.3-33.9,33.7c-5.3,7-12.6,15.2-16.3,18.5c-15.3,13.7-18.3,16.7-18,18.6c0.5,3.7,5.1,2.8,17.5-3.6
		c16.9-8.7,23-13.1,35-25.3c18.1-18.2,36.5-33.2,52.5-42.8c7.7-4.6,15.6-9.7,17.5-11.4c3.2-2.8,3.5-3.6,3.2-6.8l-0.3-3.7l-4.5-0.2
		C1697.9,1966.2,1694.3,1966.8,1690.6,1968.3z"/>
	<path id="structure6_label5_Crus2" bar:growlevel="0" bar:type="" class="st55" d="M1684.7,987.8c-6.8,0.9-9.3,1.9-13,5
		c-3.4,2.8-5.5,7.1-5.5,11c0,2.1,0.8,3.1,3.9,5.1c20.3,13.4,64.4,55.6,92.7,88.7c4.5,5.2,13.9,17.1,21,26.6
		c19.4,25.9,30.2,38.5,52.9,61.3c34.8,34.7,55.1,50.3,100.3,76.9c44.6,26.4,78.5,40.4,110.3,45.9c22,3.7,38.4-10.1,49.1-41
		c12.2-35.9,5.5-85.5-14.9-109.7c-19.3-22.9-75.8-61.5-149.2-101.6c-43.7-23.9-114-46.9-187.2-61.3
		C1712.8,988.3,1695.6,986.4,1684.7,987.8z M1939.7,1143.4c19.9,3.8,49.9,12.3,58.8,16.8c14.4,7.2,34.7,24.8,42.1,36.3
		c9.7,15.1,11.2,29.3,4.5,43c-10.9,22.6-39.2,23-83.6,1.5c-28-13.6-45.8-25.7-62.8-42.8c-11.7-11.8-16.9-18.4-21.3-27.2
		c-3.7-7.2-4-11-1.3-16.5c3.1-6.3,8.4-9.9,18.4-12.5C1901.2,1140.3,1926.9,1141,1939.7,1143.4z"/>
	<path id="structure70_label69_LRtS5" bar:growlevel="0" bar:type="" class="st56" d="M1693.8,1891.9c-0.3,0.8-0.5,5.3-0.5,10.2
		c0,14.3,3.1,23.1,11.8,32.8c5.6,6.1,14.9,13.3,17.2,13c2.1-0.4,20.5-26.6,20.5-29.2c0-2.6-9.2-11.1-16.9-15.5
		c-8.9-5.2-26.9-12.8-30.3-12.8C1694.9,1890.5,1694.1,1891.1,1693.8,1891.9z"/>
	<path id="structure71_label70_IOD" bar:growlevel="0" bar:type="" class="st50" d="M1445.4,2043.9c-3.9,1.4-5,2.6-5,5.7
		c0,4.1,2.5,7.2,8.3,10c7.3,3.5,16.7,5,28.2,4.3c13.3-0.8,19.4-3.3,19.4-8.3c0-4.5-8.1-8-26.4-11.3
		C1458.3,2042.3,1450.3,2042.1,1445.4,2043.9z"/>
	<path id="structure72_label71_IOA" bar:growlevel="0" bar:type="" class="st57" d="M1387.7,2009.6c-8.2,8.2-5.9,23.5,4.9,32.6
		c3,2.4,7.8,7.4,10.8,11c8.6,10.2,15.8,12.4,23.8,7.5c9.9-6.1,4.2-24.8-11.5-38c-6.2-5.1-22.5-16-24.1-16
		C1391.1,2006.6,1389.3,2007.9,1387.7,2009.6z"/>
	<path id="structure75_label74_C1-A1" bar:growlevel="0" bar:type="" class="st58" d="M1636.6,1866.2c-8.5,2.3-17.5,6.9-26.1,13.3
		c-9.2,6.8-19.8,17.5-19.8,19.9c0,1.1,1.8,6.1,4,11.2c2.2,5.1,4.5,11,5.1,13c0.6,2.3,1.6,3.8,2.5,3.8c0.8,0,7.7-6.5,15.5-14.4
		c12.8-13,14.8-14.8,20.9-17.5c9.4-4.3,22-7.6,32-8.3c4.5-0.3,8.3-0.9,8.3-1.3s-2.7-4.6-6-9.5c-7.1-10.3-8.6-11.1-21.4-11.7
		C1645.1,1864.5,1641.8,1864.8,1636.6,1866.2z"/>
	<path id="structure76_label75_SolDL" bar:growlevel="0" bar:type="" class="st59" d="M1348.8,1552.9c1.2,10.6,7.7,24.7,14.5,30.9
		c3.5,3.2,10.5,6.5,16.6,7.8c4.9,1,10.8,0.3,14.9-1.9c3.2-1.6,9.5-7.1,9.5-8.2c0-0.6-4.6-2.4-10.2-4.1c-15.7-4.6-25.7-9.9-33.4-17.6
		c-3.6-3.6-7.3-7.8-8.2-9.4C1349.7,1545.7,1348.2,1546.7,1348.8,1552.9z"/>
	<path id="structure77_label76_10N" bar:growlevel="0" bar:type="" class="st60" d="M1303.8,1606.1c-4.7,2.4-8.6,6.8-8.2,9.4
		c0.4,2.6,7.9,8.1,18.3,13.1c19.1,9.3,37.2,13.8,56.3,13.9c10.1,0.1,11.7-0.2,15.1-2c3.1-1.6,3.9-2.5,3.6-4
		c-0.3-2.3,0.4-1.9-27.3-14.7c-32.1-14.8-37.3-16.7-46.3-17.2C1308.7,1604.2,1307.1,1604.5,1303.8,1606.1z"/>
	<path class="st37" d="M1720.7,1368.5c-31.4-31.9-42.7-45.4-58.1-69.7c-20.9-32.9-35.9-65.2-51.3-109.9
		c-13.3-38.8-20.3-54.8-33.8-77.6c-16.6-27.7-29.4-45.4-44-60.5c-16.7-17.3-30-27-50.4-37c-46.1-22.6-107.9-29.9-164.3-19.3
		c-10.4,1.9-23.5,5.2-36.9,9.4l-11.4,3.5l-0.2-0.1v46c12.6,0,37.8-6,56.7-13.3c17.2-6.8,23.4-7.7,23.4-3.7
		c0,3.5-13.4,10.7-30.7,16.5c-14.3,4.9-44.4,12.2-49.4,12.2v34.2c8.4,0,14.8-2.1,38.3-12.6c32.3-14.3,46.2-18.8,63.9-20.6
		c18.5-1.9,41.8,3.2,63.9,13.9c45.7,22.1,78.6,65.3,106.3,139.7c8.5,23.1,14.6,36.9,25.6,58.8c26.6,52.8,54.7,94,78.7,115.4
		c26.9,24,55.3,37.7,78.8,38c10.7,0.1,14.8-1,19.5-5.1c4.5-4,6.6-8.9,6.6-15.8C1751.8,1400.9,1749.5,1397.7,1720.7,1368.5z"/>
	<path id="structure81_label81_a" bar:growlevel="0" bar:type="" class="st61" d="M1825.7,1480.1c-2.8,2.6-2.7,8,0.3,11.5
		c2.6,3.2,6.6,4.1,11.3,2.9c2.7-0.7,3.6-1.5,4.4-4.1c1.3-3.9-0.1-8.7-3-10.8C1835.8,1477.6,1828.2,1477.8,1825.7,1480.1z"/>
	<path id="structure82_label82_dsc-oc" bar:growlevel="0" bar:type="" class="st62" d="M1823.8,1574.1c0,0.6,3.1,7,6.8,14.2
		c16.3,31.6,27.5,63.7,32,93c1.5,9.4,1.5,41.5,0,52.7c-4.5,33.7-14,69.7-23.8,90.2c-6.1,12.9-14.9,25.4-30.9,44
		c-28.2,32.9-42.7,45.1-59,49.9c-5,1.4-5.1,1.5-12,11.5c-9.2,13.3-19.3,26.8-25.2,33.7c-2.9,3.2-4.9,6.4-4.9,7.6
		c0,3.4-7.6,9.7-22.5,18.5c-15.7,9.2-33.6,23.9-52.2,42.7c-11.4,11.6-19.6,17.4-35.8,25.5c-13.6,6.8-20.2,8.2-36.2,7.5
		c-18-0.8-29.3-3.6-45.9-11.5c-18.3-8.7-36.1-22.4-42.1-32.6c-4.3-7.2-7.4-16.4-7.4-22.4c0-15.3,13-28.5,39.4-40.3
		c19.4-8.6,35.1-12.8,55.1-14.4c13.1-1.1,20.3-2.5,26.9-5.5c6.7-2.9,14.5-8.3,14.5-10c0-2.9-5.4-16.6-11.6-29.3
		c-17.9-36.5-47.5-77.7-91.7-127.2c-25.8-28.9-75.9-77.8-99-96.7c-4.8-3.9-7-5.1-8.6-4.9c-1.1,0.2-11.3,6.8-22.4,14.8
		c-19.5,13.7-20.4,14.5-21.3,18c-0.5,2.1-2.4,7.1-4.1,11.3c-1.7,4.1-3.1,7.8-3.1,8.3s1.3,2.4,3.1,4.3c1.6,2,4,5.4,5.1,7.6
		c3.1,5.7,4.4,5.3,4.4-1.3c0-10.8,4.6-16.3,9.6-11.6c5,4.6,7.1,14.4,4.7,21.4c-1.7,4.9-6.7,6.1-10.2,2.3c-1.2-1.3-2.4-2.3-3-2.3
		c-0.4,0-0.8,4-0.7,8.7c0,10.7-2.1,15.8-7.4,18c-7.4,3.1-19.5-3.3-26.1-13.7c-2.6-4.2-4.8-5.3-4.8-2.3c0,0.9,1,6.5,2.2,12.3
		c1.3,5.9,5.3,28.3,9.1,49.8c7.6,43.7,11.1,60.8,14.9,75.2c3.8,13.9,10.9,35.5,16.7,50.8c5.4,14.2,5.9,14.8,26.4,36.4
		c6.2,6.5,10.2,12.1,11.3,15.5c0.8,2.9-2.3,5.7-6.3,5.7c-1.9,0-3.2,0.4-3.2,1.1c0,0.6,4.3,3.8,9.7,7c19.5,11.9,30.1,21.4,35.4,32
		c3.2,6.4,3.7,12.8,1.4,17.2c-1.7,3.3-7.3,6.6-11.3,6.6c-1.8,0-2.7,0.4-2.7,1.4c0,0.7,0.4,1.3,0.7,1.3c1.5,0,14.3,13.2,19.4,20
		c3.7,4.9,5.9,7,7.2,7c1,0,8.6-1,16.7-2.3c8.2-1.3,26.6-3.7,41-5.4c52.8-6.5,71.3-9.5,96.3-15.9c43.8-11.2,72.8-26.6,105.3-56.3
		c12.7-11.6,23.7-23.8,42.2-46.9c23-28.7,30.6-37.1,57.3-62.7c31.5-30.3,56.1-79.5,65.5-131.4c10.8-59.3,4.2-114.5-19.3-161.6
		C1838.1,1587.8,1823.8,1567.4,1823.8,1574.1z M1470.1,2044.1c16.3,2.7,27,7.2,27,11.5c0,2.5-4.1,5.7-9.5,7.3c-6.9,2-22,2-30.6-0.1
		c-14.2-3.2-21.8-13.1-14-18.1C1447.6,2041.7,1454.4,2041.5,1470.1,2044.1z"/>
	<path class="st14" d="M1789,1411.7c-41.8-52.6-87.3-118.2-112.7-162.4c-22.2-39-45.2-93-70.9-166.9c-7.4-21.3-12.7-32.2-24-49.1
		c-12.8-19.2-30.2-38.4-43.7-48.6c-27.4-20.5-80.8-33.2-139.7-33.2c-32.5,0-48.1,2.3-91.8,13.6c-24.8,6.4-27.2,6.8-36,6.9v33.8
		c1,0,7.8-1.8,15.1-4c16.1-4.8,30.8-8.2,47-10.7c10.3-1.6,16-1.9,38.7-1.9c22.7,0,28.4,0.3,38.7,1.9c72.5,11.4,114.4,37.4,153,95.1
		c16.9,25.4,29.2,47.8,37.2,68c2.3,5.7,7.6,20.4,11.9,32.9c11.5,32.9,16.6,45.4,27.5,67.5c13.1,26.8,25.9,48,40.3,67
		c10.7,14.1,21.1,25.5,42.9,47.3c22.7,22.6,28.3,29.6,30.1,37.4c2.3,9.8-2.3,19.8-11.5,24c-4.7,2.3-6,2.4-15.9,2.3
		c-9.9-0.1-11.6-0.4-20.8-3.3c-17.3-5.8-34.8-15.6-51.3-28.9c-23-18.5-49.2-54-76.1-102.8c-14.8-26.8-23.8-46.5-35.3-77.3
		c-25.3-67-50.8-104.4-88.4-129.6c-21.1-14.1-44.8-22.3-68-23.6c-21.9-1.1-39.7,3.7-77.8,20.8c-18.4,8.3-27.9,12.4-37.3,12.4v34.4
		c3.6,0,7.9-1.7,18.9-5.8c32.5-12,54.5-15.8,72-12.2c41,8.4,103.9,42.9,131.8,72.6c13.7,14.5,16.7,20.4,20.8,40.6
		c6.9,33.8,11.3,45.3,24.7,65.8c9,13.8,10.3,16.7,13.1,30.1c1.3,6,3.5,13.9,5,17.5c1.4,3.6,6.1,15.7,10.3,26.8
		c4.3,11.2,11.1,26.5,14.9,34.1c5.2,10.2,7.1,14.8,7.1,17.3c0,1.9-0.4,3.7-0.9,4c-0.5,0.3-0.9,1.2-0.9,1.9c0,1,1.5,1.3,7.4,1.3
		c13.7,0,23.7,3.6,48.9,17.7c31.2,17.4,40.1,21.7,53.2,25.8c21.5,6.8,39,8.6,85.9,8.9c28.4,0.2,31.4,0,35.5-1.5
		c4.9-1.9,6.8-5,6.8-11.1C1824.7,1461.3,1810.5,1438.8,1789,1411.7z"/>
	<path class="st16" d="M1789,1411.7c-41.8-52.6-87.3-118.2-112.7-162.4c-22.2-39-45.2-93-70.9-166.9c-7.4-21.3-12.7-32.2-24-49.1
		c-12.8-19.2-30.2-38.4-43.7-48.6c-27.4-20.5-80.8-33.2-139.7-33.2c-32.5,0-48.1,2.3-91.8,13.6c-24.8,6.4-27.2,6.8-36,6.9v33.8
		c1,0,7.8-1.8,15.1-4c16.1-4.8,30.8-8.2,47-10.7c10.3-1.6,16-1.9,38.7-1.9c22.7,0,28.4,0.3,38.7,1.9c72.5,11.4,114.4,37.4,153,95.1
		c16.9,25.4,29.2,47.8,37.2,68c2.3,5.7,7.6,20.4,11.9,32.9c11.5,32.9,16.6,45.4,27.5,67.5c13.1,26.8,25.9,48,40.3,67
		c10.7,14.1,21.1,25.5,42.9,47.3c22.7,22.6,28.3,29.6,30.1,37.4c2.3,9.8-2.3,19.8-11.5,24c-4.7,2.3-6,2.4-15.9,2.3
		c-9.9-0.1-11.6-0.4-20.8-3.3c-17.3-5.8-34.8-15.6-51.3-28.9c-23-18.5-49.2-54-76.1-102.8c-14.8-26.8-23.8-46.5-35.3-77.3
		c-25.3-67-50.8-104.4-88.4-129.6c-21.1-14.1-44.8-22.3-68-23.6c-21.9-1.1-39.7,3.7-77.8,20.8c-18.4,8.3-27.9,12.4-37.3,12.4v34.4
		c3.6,0,7.9-1.7,18.9-5.8c32.5-12,54.5-15.8,72-12.2c41,8.4,103.9,42.9,131.8,72.6c13.7,14.5,16.7,20.4,20.8,40.6
		c6.9,33.8,11.3,45.3,24.7,65.8c9,13.8,10.3,16.7,13.1,30.1c1.3,6,3.5,13.9,5,17.5c1.4,3.6,6.1,15.7,10.3,26.8
		c4.3,11.2,11.1,26.5,14.9,34.1c5.2,10.2,7.1,14.8,7.1,17.3c0,1.9-0.4,3.7-0.9,4c-0.5,0.3-0.9,1.2-0.9,1.9c0,1,1.5,1.3,7.4,1.3
		c13.7,0,23.7,3.6,48.9,17.7c31.2,17.4,40.1,21.7,53.2,25.8c21.5,6.8,39,8.6,85.9,8.9c28.4,0.2,31.4,0,35.5-1.5
		c4.9-1.9,6.8-5,6.8-11.1C1824.7,1461.3,1810.5,1438.8,1789,1411.7z"/>
	<path class="st19" d="M1576.4,1394.4c-1.9-4.1-5.4-12.4-7.7-18.5c-2.9-7.4-5-11.3-6.2-12c-2.7-1.5-14.5-0.4-26.3,2.3
		c-10,2.3-25.6,4.6-50.4,7.5c-20.3,2.3-52.3,2.2-71.5-0.4c-8.2-1.1-19.5-2.3-25.2-2.5c-11.3-0.5-16.9,0.3-48.2,7.2l-14.4,3.2h-56.3
		v33.2c11.7,0,22.9-0.4,36-1.2c69.9-4.3,101.2-8.2,153.9-19.1c22.9-4.8,25.7-5.1,36.5-5.1c18.7,0.1,30,2.8,49.5,11.8
		c14.1,6.6,19.5,8.4,25.2,8.4c3.7,0,5-0.4,6.6-2.1C1580.5,1404.1,1580.4,1403.1,1576.4,1394.4z"/>
	<path id="structure8_label7_ECu" bar:growlevel="0" bar:type="" class="st63" d="M1593.4,1440.5c-10.7,1.5-28.3,5.5-38.2,8.7
		c-11.9,3.8-15.5,4.1-17.6,1.4c-0.9-1.1-2-2-2.4-2c-2.1-0.1-19.2,7.8-19.2,8.8c0,2,9.6,11.4,14.2,13.9c2.4,1.3,11.3,4.7,19.6,7.4
		c16.9,5.7,18.4,5.8,29.6,2.3c5.1-1.5,9.3-2,22.1-2.3c18-0.4,21.5-1.1,26.3-5.9c4.3-4.3,4.5-8.1,0.7-17.9
		c-3.4-8.8-5.2-11.2-10.1-13.1C1613.8,1440,1601.5,1439.4,1593.4,1440.5z"/>
	<path class="st33" d="M1364.1,1985.6c-7.9-7.5-14-15.6-18.8-25.4c-4.5-9.1-6.1-17.1-3.7-18.1c1.7-0.6,6.2,1.6,11.2,5.6
		c6.9,5.7,7.1,4.4,1.7-10.2c-14.6-39.4-18.7-56.1-30.8-124.8c-10.1-58-12-65.8-17.6-74c-6-8.8-14.4-13.5-26.6-14.8
		c-4.2-0.5-6.8-0.7-9.3-0.7v18.3c3.7,0,7.1,0.8,7.6,2c1.5,4,3.5,49.6,4.7,106.7l0.6,30.5l2.3-0.6c4.7-1.2,6.8-0.7,9.4,2.4
		c3.1,3.6,5.6,11.4,6.9,21.5c5.5,39.2,9.6,51.6,21,62.8c8.2,8.1,13,11.3,29.2,19.1C1371.7,1995.6,1374.7,1995.5,1364.1,1985.6z"/>
	<path id="structure95_label104_ml" bar:growlevel="0" bar:type="" class="st64" d="M1278.1,2003.2c-0.4,7.6-0.8,15.4-1.2,17.5
		l-0.5,3.7l16,0.5c33.2,1.1,67.4,9.1,94.8,22.3c6.1,2.9,11.7,5.3,12.3,5.3c2.7,0,1-2.8-5.6-8.9c-9-8.5-22.1-17.2-37.7-25
		c-25.1-12.7-42.2-18.5-60.4-20.1c-9.3-0.9-10-1.1-12.2-3.6c-1.4-1.5-2.5-3.3-2.5-4.1c0-0.7-0.5-1.4-1.2-1.4
		C1278.9,1989.5,1278.5,1992.6,1278.1,2003.2z"/>
	<path class="st34" d="M1424.2,2072c-26.9-25.6-70.6-41.9-123.8-46.5c-6.4-0.5-14.5-0.9-17.9-0.7c-5.9,0.3-6.4,0.4-7.7,2.9
		c-1.4,2.7-3,4-4.5,4.1v31.6c0.3,0,2.3,3.5,4.4,7.9c5,9.5,11.5,16.4,20.3,21.1c13.3,6.9,25.7,8.5,58.9,7c45.4-1.8,87.4-5,87.4-6.7
		C1441.3,2090.6,1432,2079.5,1424.2,2072z"/>
	<path id="structure97_label108_vsc" bar:growlevel="0" bar:type="" class="st65" d="M1823.8,1574.1c0,0.6,3.1,7,6.8,14.2
		c16.3,31.6,27.5,63.7,32,93c1.5,9.4,1.5,41.5,0,52.7c-4.5,33.7-14,69.7-23.8,90.2c-6.1,12.9-14.9,25.4-30.9,44
		c-28.2,32.9-42.7,45.1-59,49.9c-5,1.4-5.1,1.5-12,11.5c-9.2,13.3-19.3,26.8-25.2,33.7c-2.9,3.2-4.9,6.4-4.9,7.6
		c0,3.4-7.6,9.7-22.5,18.5c-15.7,9.2-33.6,23.9-52.2,42.7c-11.4,11.6-19.6,17.4-35.8,25.5c-13.6,6.8-20.2,8.2-36.2,7.5
		c-18-0.8-29.3-3.6-45.9-11.5c-18.3-8.7-36.1-22.4-42.1-32.6c-4.3-7.2-7.4-16.4-7.4-22.4c0-15.3,13-28.5,39.4-40.3
		c19.4-8.6,35.1-12.8,55.1-14.4c13.1-1.1,20.3-2.5,26.9-5.5c6.7-2.9,14.5-8.3,14.5-10c0-2.9-5.4-16.6-11.6-29.3
		c-17.9-36.5-47.5-77.7-91.7-127.2c-25.8-28.9-75.9-77.8-99-96.7c-4.8-3.9-7-5.1-8.6-4.9c-1.1,0.2-11.3,6.8-22.4,14.8
		c-19.5,13.7-20.4,14.5-21.3,18c-0.5,2.1-2.4,7.1-4.1,11.3c-1.7,4.1-3.1,7.8-3.1,8.3s1.3,2.4,3.1,4.3c1.6,2,4,5.4,5.1,7.6
		c3.1,5.7,4.4,5.3,4.4-1.3c0-10.8,4.6-16.3,9.6-11.6c5,4.6,7.1,14.4,4.7,21.4c-1.7,4.9-6.7,6.1-10.2,2.3c-1.2-1.3-2.4-2.3-3-2.3
		c-0.4,0-0.8,4-0.7,8.7c0,10.7-2.1,15.8-7.4,18c-7.4,3.1-19.5-3.3-26.1-13.7c-2.6-4.2-4.8-5.3-4.8-2.3c0,0.9,1,6.5,2.2,12.3
		c1.3,5.9,5.3,28.3,9.1,49.8c7.6,43.7,11.1,60.8,14.9,75.2c3.8,13.9,10.9,35.5,16.7,50.8c5.4,14.2,5.9,14.8,26.4,36.4
		c6.2,6.5,10.2,12.1,11.3,15.5c0.8,2.9-2.3,5.7-6.3,5.7c-1.9,0-3.2,0.4-3.2,1.1c0,0.6,4.3,3.8,9.7,7c19.5,11.9,30.1,21.4,35.4,32
		c3.2,6.4,3.7,12.8,1.4,17.2c-1.7,3.3-7.3,6.6-11.3,6.6c-1.8,0-2.7,0.4-2.7,1.4c0,0.7,0.4,1.3,0.7,1.3c1.5,0,14.3,13.2,19.4,20
		c3.7,4.9,5.9,7,7.2,7c1,0,8.6-1,16.7-2.3c8.2-1.3,26.6-3.7,41-5.4c52.8-6.5,71.3-9.5,96.3-15.9c43.8-11.2,72.8-26.6,105.3-56.3
		c12.7-11.6,23.7-23.8,42.2-46.9c23-28.7,30.6-37.1,57.3-62.7c31.5-30.3,56.1-79.5,65.5-131.4c10.8-59.3,4.2-114.5-19.3-161.6
		C1838.1,1587.8,1823.8,1567.4,1823.8,1574.1z M1470.1,2044.1c16.3,2.7,27,7.2,27,11.5c0,2.5-4.1,5.7-9.5,7.3c-6.9,2-22,2-30.6-0.1
		c-14.2-3.2-21.8-13.1-14-18.1C1447.6,2041.7,1454.4,2041.5,1470.1,2044.1z"/>
	<text id="label38" bar:growlevel="0" transform="matrix(1 0 0 1 1612.374 1744.1406)" class="st66 st67 st68">10n</text>
	<text id="label9" bar:growlevel="0" transform="matrix(1 0 0 1 1556.0625 1532.0625)" class="st66 st67 st68">Cu</text>
	<text id="label48" bar:growlevel="0" transform="matrix(1 0 0 1 1274.9063 1631.7988)" class="st66 st67 st68">CC</text>
	<text id="label0" bar:growlevel="0" transform="matrix(1 0 0 1 1756.4033 1732.6465)" class="st66 st67 st68">Sp5I</text>
	<text id="label1" bar:growlevel="0" transform="matrix(1 0 0 1 1621.4648 1605.1855)" class="st66 st67 st68">Sp5C</text>
	<text id="label2" bar:growlevel="0" transform="matrix(1 0 0 1 1548.5947 1700.2734)" class="st66 st67 st68">MdD</text>
	<text id="label4" bar:growlevel="0" transform="matrix(1 0 0 1 1724.9033 1237.4102)" class="st66 st67 st68">PM</text>
	<text id="label5" bar:growlevel="0" transform="matrix(1 0 0 1 1845.7734 1128.7324)" class="st66 st67 st68">Crus2</text>
	<text id="label6" bar:growlevel="0" transform="matrix(1 0 0 1 1560.7734 1230.7793)" class="st66 st67 st68">Cop</text>
	<text id="label7" bar:growlevel="0" transform="matrix(1 0 0 1 1562.6631 1468.9922)" class="st66 st67 st68">ECu</text>
	<text id="Unlabeled-2156-1043" bar:growlevel="0" transform="matrix(1 0 0 1 1933.5527 1401.7949)" class="st66 st67 st68">Crus2</text>
	<text id="label87" bar:growlevel="0" transform="matrix(1 0 0 1 1391.6953 979.3359)" class="st66 st67 st68">ppf</text>
	<text id="label81" bar:growlevel="0" transform="matrix(1 0 0 1 1833.0234 1490.5957)" class="st66 st67 st68">a</text>
	<text id="label83" bar:growlevel="0" transform="matrix(1 0 0 1 1733.4551 1065.6602)" class="st66 st67 st68">apmf</text>
	<text id="label82" bar:growlevel="0" transform="matrix(1 0 0 1 1840.1338 1840.2773)" class="st66 st67 st68">dsc-oc</text>
	<text id="label89" bar:growlevel="0" transform="matrix(1 0 0 1 1407.0527 1114.7207)" class="st66 st67 st68">sf</text>
	<text id="Unlabeled-1543-1516" bar:growlevel="0" transform="matrix(1 0 0 1 1360.2539 1439.9629)" class="st66 st67 st68">grey</text>
	<text id="label18" bar:growlevel="0" transform="matrix(1 0 0 1 1287.416 1538.8496)" class="st66 st67 st68">AP</text>
	<text id="label19" bar:growlevel="0" transform="matrix(1 0 0 1 1278.8555 1601.0449)" class="st66 st67 st68">SolC</text>
	<text id="label12" bar:growlevel="0" transform="matrix(1 0 0 1 1310.1914 1025.7637)" class="st66 st67 st68">8Cb</text>
	<text id="label10" bar:growlevel="0" transform="matrix(1 0 0 1 1293.4922 914.7637)" class="st66 st67 st68">7Cb</text>
	<text id="label17" bar:growlevel="0" transform="matrix(1 0 0 1 1309.585 1494.0039)" class="st66 st67 st68">10Cb</text>
	<text id="label14" bar:growlevel="0" transform="matrix(1 0 0 1 1291.1016 1164.0938)" class="st66 st67 st68">9a-bCb</text>
	<text id="label15" bar:growlevel="0" transform="matrix(1 0 0 1 1317.2344 1320.7656)" class="st66 st67 st68">9cCb</text>
	<text id="label92" bar:growlevel="0" transform="matrix(1 0 0 1 1405.374 1394.127)" class="st66 st67 st68">cbw</text>
	<text id="label112" bar:growlevel="0" transform="matrix(1 0 0 1 1310.1914 1591.1836)" class="st66 st67 st68">SolM</text>
	<text id="label118" bar:growlevel="0" transform="matrix(1 0 0 1 1355.9766 2009.7012)" class="st66 st67 st68">IOB</text>
	<text id="label69" bar:growlevel="0" transform="matrix(1 0 0 1 1718.874 1922.2207)" class="st66 st67 st68">LRtS5</text>
	<text id="label68" bar:growlevel="0" transform="matrix(1 0 0 1 1635.9551 2018.8691)" class="st66 st67 st68">LRtPC</text>
	<text id="label67" bar:growlevel="0" transform="matrix(1 0 0 1 1273.3066 2020.5)" class="st66 st67 st68">RPa</text>
	<text id="label60" bar:growlevel="0" transform="matrix(1 0 0 1 1273.3066 1819.8438)" class="st66 st67 st68">mlx</text>
	<text id="label107" bar:growlevel="0" transform="matrix(1 0 0 1 1506.4131 2112.334)" class="st66 st67 st68">12n</text>
	<text id="label106" bar:growlevel="0" transform="matrix(1 0 0 1 1352.9941 2122.5059)" class="st66 st67 st68">vert</text>
	<text id="label105" bar:growlevel="0" transform="matrix(1 0 0 1 1347.9551 2070.4492)" class="st66 st67 st68">py</text>
	<text id="label104" bar:growlevel="0" transform="matrix(1 0 0 1 1323.0527 2020.0371)" class="st66 st67 st68">ml</text>
	<text id="label103" bar:growlevel="0" transform="matrix(1 0 0 1 1314.5947 1857.709)" class="st66 st67 st68">ts</text>
	<text id="Unlabeled-1797-1762" bar:growlevel="0" transform="matrix(1 0 0 1 1274.9092 1717.0195)" class="st66 st67 st68">grey</text>
	<text id="label108" bar:growlevel="0" transform="matrix(1 0 0 1 1651.5469 2038.1836)" class="st66 st67 st68">vsc</text>
	<text id="label74" bar:growlevel="0" transform="matrix(1 0 0 1 1626.5332 1887.2969)" class="st66 st67 st68">C1-A1</text>
	<text id="label75" bar:growlevel="0" transform="matrix(1 0 0 1 1374.1172 1582.8672)" class="st66 st67 st68">SolDL</text>
	<text id="label76" bar:growlevel="0" transform="matrix(1 0 0 1 1325.1152 1629.252)" class="st66 st67 st68">10N</text>
	<text id="label70" bar:growlevel="0" transform="matrix(1 0 0 1 1466.7246 2054.4844)" class="st66 st67 st68">IOD</text>
	<text id="label71" bar:growlevel="0" transform="matrix(1 0 0 1 1406.1328 2037.1992)" class="st66 st67 st68">IOA</text>
	<text id="label49" bar:growlevel="0" transform="matrix(1 0 0 1 1358.3555 1735.8691)" class="st66 st67 st68">12GH</text>
	<text id="label130" bar:growlevel="0" transform="matrix(1 0 0 1 1575.7441 1831.9043)" class="st66 st67 st68">AmbL</text>
	<text id="label131" bar:growlevel="0" transform="matrix(1 0 0 1 1612.7051 1863.2617)" class="st66 st67 st68">RVRG</text>
	<text id="label43" bar:growlevel="0" transform="matrix(1 0 0 1 1520.9648 1503.8262)" class="st66 st67 st68">cu</text>
	<text id="label47" bar:growlevel="0" transform="matrix(1 0 0 1 1784.5723 1581.5547)" class="st66 st67 st68">sp5</text>
	<text id="label46" bar:growlevel="0" transform="matrix(1 0 0 1 1723.9453 1889.666)" class="st66 st67 st68">rs</text>
	<text id="Unlabeled-1680-1297" bar:growlevel="0" transform="matrix(1 0 0 1 1314.5918 1235.2949)" class="st66 st67 st68">9cCb</text>
	<text id="text3135" bar:growlevel="0" transform="matrix(1 0 0 1 1364.3643 1970.8105)" class="st66 st67 st68">IOD</text>
	<text id="label56" bar:growlevel="0" transform="matrix(1 0 0 1 1278.8555 1835.8535)" class="st66 st67 st68">ROb</text>
	<text id="label57" bar:growlevel="0" transform="matrix(1 0 0 1 1284.835 1909.1133)" class="st66 st67 st68">IOK</text>
	<text id="label54" bar:growlevel="0" transform="matrix(1 0 0 1 1284.6973 1578.9629)" class="st66 st67 st68">SubP</text>
	<text id="label55" bar:growlevel="0" transform="matrix(1 0 0 1 1676.6953 1495.4863)" class="st66 st67 st68">Pa5</text>
	<text id="label52" bar:growlevel="0" transform="matrix(1 0 0 1 1462.6523 1627.5059)" class="st66 st67 st68">SolVL</text>
	<text id="label53" bar:growlevel="0" transform="matrix(1 0 0 1 1414.0371 1599.5859)" class="st66 st67 st68">SolI</text>
	<text id="label50" bar:growlevel="0" transform="matrix(1 0 0 1 1378.2129 1658.1035)" class="st66 st67 st68">CeCv</text>
	<text id="label125" bar:growlevel="0" transform="matrix(1 0 0 1 1287.416 1954.9805)" class="st66 st67 st68">IOBe</text>
	<text id="label124" bar:growlevel="0" transform="matrix(1 0 0 1 1293.4922 1981.8574)" class="st66 st67 st68">IOC</text>
	<text id="Unlabeled-1715-1122" bar:growlevel="0" transform="matrix(1 0 0 1 1293.4922 1055.8945)" class="st66 st67 st68">cbw</text>
	<text id="label121" bar:growlevel="0" transform="matrix(1 0 0 1 1404.1758 1628.8164)" class="st66 st67 st68">SolV</text>
	<text id="label120" bar:growlevel="0" transform="matrix(1 0 0 1 1360.1631 1607.8008)" class="st66 st67 st68">SolIM</text>
	<text id="label123" bar:growlevel="0" transform="matrix(1 0 0 1 1287.416 1765.873)" class="st66 st67 st68">mlf</text>
	<text id="label122" bar:growlevel="0" transform="matrix(1 0 0 1 1447.5176 1602.6914)" class="st66 st67 st68">sol</text>
	<text id="label23" bar:growlevel="0" transform="matrix(1 0 0 1 1484.1533 1742.0996)" class="st66 st67 st68">IRt</text>
	<text id="label22" bar:growlevel="0" transform="matrix(1 0 0 1 1473.6855 1571.7891)" class="st66 st67 st68">CuR</text>
	<text id="label21" bar:growlevel="0" transform="matrix(1 0 0 1 1516.1631 1601.0449)" class="st66 st67 st68">Mx</text>
	<text id="label20" bar:growlevel="0" transform="matrix(1 0 0 1 1291.1045 1695.4102)" class="st66 st67 st68">12N</text>
	<text id="label27" bar:growlevel="0" transform="matrix(1 0 0 1 1525.374 2005.6973)" class="st66 st67 st68">LRt</text>
	<text id="label25" bar:growlevel="0" transform="matrix(1 0 0 1 1327.8281 1751.6172)" class="st66 st67 st68">Ro</text>
	<text id="label24" bar:growlevel="0" transform="matrix(1 0 0 1 1425.1436 1848.6758)" class="st66 st67 st68">MdV</text>
	<text id="label29" bar:growlevel="0" transform="matrix(1 0 0 1 1388.6045 1527.8906)" class="st66 st67 st68">Gr</text>
	<text id="Unlabeled-2499-1241" bar:growlevel="0" transform="matrix(1 0 0 1 1977.6533 1199.2949)" class="st66 st67 st68">Crus2</text>
	<text id="Unlabeled-2242-2133" bar:growlevel="0" transform="matrix(1 0 0 1 1662.6533 1961.5938)" class="st66 st67 st68">grey</text>
</g>
</svg>
