<?xml version="1.0" encoding="utf-8"?>
<!-- Generator: Adobe Illustrator 24.1.1, SVG Export Plug-In . SVG Version: 6.00 Build 0)  -->
<svg version="1.1"
	 id="body" inkscape:version="0.47 r22583" sodipodi:docname="45_pretrace_pretrace_v1.svg" xmlns:bar="http://www.3dbar.org" xmlns:cc="http://creativecommons.org/ns#" xmlns:dc="http://purl.org/dc/elements/1.1/" xmlns:inkscape="http://www.inkscape.org/namespaces/inkscape" xmlns:rdf="http://www.w3.org/1999/02/22-rdf-syntax-ns#" xmlns:sodipodi="http://sodipodi.sourceforge.net/DTD/sodipodi-0.dtd" xmlns:svg="http://www.w3.org/2000/svg"
	 xmlns="http://www.w3.org/2000/svg" xmlns:xlink="http://www.w3.org/1999/xlink" x="0px" y="0px" viewBox="0 0 3024 3024"
	 style="enable-background:new 0 0 3024 3024;" xml:space="preserve">
<style type="text/css">
	.st0{fill:#FF000C;}
	.st1{fill:#D8FF59;}
	.st2{fill:#FF005A;}
	.st3{fill:#FF0045;}
	.st4{fill:#C1FF00;}
	.st5{fill:#B1E900;}
	.st6{fill:#ECFFB2;}
	.st7{fill:#ACDF00;}
	.st8{fill:#AFFF59;}
	.st9{fill:#C7E959;}
	.st10{fill:#232323;enable-background:new    ;}
	.st11{font-family:'ArialMT';}
	.st12{font-size:27px;}
</style>
<sodipodi:namedview  bordercolor="#666666" borderopacity="1" gridtolerance="10" guidetolerance="10" id="namedview3081" inkscape:current-layer="content" inkscape:cx="546.69249" inkscape:cy="711.98443" inkscape:pageopacity="0" inkscape:pageshadow="2" inkscape:window-height="814" inkscape:window-maximized="0" inkscape:window-width="726" inkscape:window-x="0" inkscape:window-y="0" inkscape:zoom="2.6488444" objecttolerance="10" pagecolor="#ffffff" showgrid="false">
	</sodipodi:namedview>
<desc  id="desc3033">This was produced by version 4.2 of GNU libplot, a free library for exporting 2-D vector graphics.</desc>
<defs>
	<rdf:RDF>
		<cc:Work  rdf:about="">
			<dc:format>image/svg+xml</dc:format>
			<dc:type  rdf:resource="http://purl.org/dc/dcmitype/StillImage"></dc:type>
		</cc:Work>
	</rdf:RDF>
	<bar:data  content="7.08" name="coronalcoord"></bar:data>
	
		<bar:data  content="{&apos;ReferenceHeight&apos;: 900, &apos;ReferenceWidth&apos;: 1200, &apos;imageSize&apos;: (1200, 900)}" name="rendererConf">
		</bar:data>
	
		<bar:data  content="{&apos;DumpEachStepSVG&apos;: False, &apos;DumpEachStepPNG&apos;: False, &apos;GrowDefaultBoundaryColor&apos;: 200, &apos;CacheLevel&apos;: 5, &apos;NewPathIdTemplate&apos;: &apos;structure%d_%s_%s&apos;, &apos;PoTraceConf&apos;: {&apos;potrace_accuracy_parameter&apos;: &apos;0.001&apos;, &apos;potrace_width_string&apos;: &apos;1200pt&apos;, &apos;potrace_svg_resolution_string&apos;: &apos;300x300&apos;, &apos;potrace_height_string&apos;: &apos;900pt&apos;}, &apos;DetectUnlabelled&apos;: True, &apos;DumpVBrain&apos;: False, &apos;DumpWrongSeed&apos;: True, &apos;DumpDirectory&apos;: &apos;.&apos;, &apos;MinFiterTimesApplication&apos;: 3, &apos;RegionAlreadyTraced&apos;: 100, &apos;UnlabelledTreshold&apos;: 500}" name="tracingConf">
		</bar:data>
	<bar:data  content="0.0176211454,-9.5150660793,0.0176211454,-1.5355884426" name="transformationmatrix"></bar:data>
</defs>
<g id="content">
	<path id="structure1_label17_vBrain" bar:growlevel="0" bar:type="" class="st0" d="M1580.7,966.9c-40.6,3.2-80,31.2-104.7,74.3
		c-17.6,30.7-32.9,79.7-39.7,127.5c-4.4,30.1-5,41.6-5,90.9c0,43.9,0.2,48.4,2.5,73.4c1.3,14.6,3.9,45,5.6,67.5
		c10.1,130.7,20.8,223.2,31.6,273.6c5.1,24.1,11.2,34.6,23.4,40.6c8.6,4.2,16.8,5.1,30.1,3.2c14.8-2.2,40.6-9.6,52-15
		c34.5-16.5,82.5-60.6,125.8-115.7c38.4-48.9,64.8-90.5,72.7-114.7c6.3-19.4,12.2-93.2,11.1-137.7c-1.4-51.8-12.6-129.4-26.8-185.9
		c-14.6-57.7-34.6-94.8-70.9-130.9C1651.4,981.1,1615.7,964.2,1580.7,966.9z"/>
	<path id="structure10_label8_EPl" bar:growlevel="0" bar:type="" class="st1" d="M1594.8,997.9c-8.1,8.3-29.3,15.9-50.8,18.5
		l-9.4,1.1l-1.9,5.1c-4.8,13.1-14.7,22.2-24.4,22.4h-2.4l0.2,8.3c0.1,7.3-0.3,9-2.3,13.6c-2.8,5.9-9.5,12.9-15,15.5
		c-3.4,1.6-3.8,2.1-3.4,4.5c0.3,1.4,1.7,6,3.2,10.1c7.6,20.5,7,37.8-1.6,48.8c-1.5,1.9-2.8,4.4-2.8,5.6c0,1.2,1.4,6.3,3.2,11.4
		c5,14.6,4.1,22.1-3.7,30.7c-3.8,4.1-3.8,3.5-0.1,17.6c1.3,4.9,2.3,10.3,2.3,12.1c0,4.9-2.3,12.2-6.5,20.2l-3.7,7l1.3,6.5
		c0.7,3.7,1.3,11.9,1.3,19.1c-0.1,11.5-0.3,13.5-2.9,22.3c-3.9,12.9-4.7,18-5.6,33.2c-0.8,13.1-1.6,16.7-6.5,27.5l-2.1,4.8l1.7,11.7
		c1.3,9.4,1.4,13.5,0.8,20.9c-1.2,13.5-0.9,27.7,0.8,47.1c0.9,9.4,2.8,33.5,4.2,53.6c6.1,82.4,7.9,100.3,12.2,121.3
		c2.7,13.2,8.2,32.4,12.5,43.4c9,23.4,23.4,33.2,48.8,33.3c10.1,0,15.6-1.1,24.9-5c20-8.5,53.7-32.8,76.2-55.3
		c13.5-13.4,21.5-22.9,35.4-42.1c10.2-14,14.3-18.7,22.4-24.8c9.5-7.2,10.8-8.9,16.4-21.8c7.8-18,26-52.4,39.1-73.7l3.9-6.2l0.2-23
		c0.3-24.4,1.6-38.1,6.5-64.3l2.3-12.6l-2.3-5.1c-1.3-2.9-2.7-7.6-3.3-10.4c-1.5-7.9-1.3-37.7,0.5-48.6c2.3-14.8,2.1-17.5-3.5-34.3
		c-7.5-22.8-9.2-31.7-10.8-56.9c-1-15.2-1.9-18.9-7.2-29.5c-8.7-17.4-15-40-17.7-63.6l-1.1-9.9l-5.6-5.6
		c-11.8-11.6-22.4-29.1-26.3-43l-1.7-6.3l-4.1-0.6c-2.3-0.3-6.3-1.7-8.9-3.2c-6.1-3.2-20.3-17.3-28.2-27.9c-5.3-7.3-6.6-8.4-9.4-8.9
		c-15-2.4-27.5-7.6-34.8-14.1c-2.6-2.3-5-4.2-5.4-4.1C1599.1,993.9,1596.9,995.7,1594.8,997.9z M1617.4,1043.8
		c8.2,3.1,14.8,8,27.7,21c21.4,21.4,38.3,42.1,49.7,61.2c19.2,31.9,30.1,61.3,38,102.1c4.6,23.9,6.2,46.5,7.4,99
		c0.8,38-1.3,74.1-6,100.9c-4.5,26.1-15.5,59.6-27,82.4c-22.9,45.2-93.4,134.2-117.8,148.5c-7.6,4.4-13.4,5.7-27,5.5
		c-20.5-0.1-38.5-6.1-48-15.8c-10.1-10.3-16.5-26.5-17.5-43.8c-0.5-10,0.5-22.5,3.3-42.2c4.1-27.9,4.7-34.8,5.1-65.3
		c0.4-27.6,0.2-33.6-2-60.8c-1.4-16.6-2.3-34.4-2.3-39.6c0-15.5,5.3-53.4,14.1-102.1c11.6-64.3,12.8-77.7,11.3-128.1
		c-1.5-51.6-1.4-71.4,0.3-78.1c5.1-19.7,22.6-37.3,42.8-43.1C1584.6,1041.1,1607.8,1040.3,1617.4,1043.8z"/>
	<path id="structure11_label9_OV" bar:growlevel="0" bar:type="" class="st2" d="M1606,1427.2c-2.3,2.3-1.8,5.7,0.9,6.8
		c3,1.3,5.2,0.1,5.6-3.2C1613.1,1426.3,1609.1,1424.1,1606,1427.2z"/>
	<path id="structure12_label10_E" bar:growlevel="0" bar:type="" class="st3" d="M1652.4,1332.2c-3.9,1.5-12.7,11.8-18.4,21.2
		c-7.9,13.4-11.9,17.4-22.7,22.7c-5,2.4-10.7,5.9-12.9,7.7c-6.8,5.9-7.1,7.1-10.1,38.9c-3,31.9-3.5,36.1-7.2,62.8
		c-3.3,24.3-4.7,38.4-4.3,44.1c0.2,3.8,0.5,4.5,2.2,4.8c5.7,0.8,17.6-23.6,24.3-49.3c3.5-13.5,7.5-22.1,18.7-40.8
		c9.5-15.6,16.1-29.9,24.7-52.8c12.2-32.8,14-39,14-47.7C1660.8,1332.8,1658.6,1329.7,1652.4,1332.2z M1613,1427.7
		c1.5,2.1,1.7,2.9,0.8,4.7c-2.3,4.9-10.1,3.2-10.1-2.2c0-2.9,3-5.6,5.8-5.2C1610.4,1425.2,1612,1426.3,1613,1427.7z"/>
	<path id="structure16_label14_Mi" bar:growlevel="0" bar:type="" class="st4" d="M1586.6,1042.8c-12.5,1.5-19.8,3.4-27.5,7.2
		c-16.5,8-28.8,23.6-32.5,41.1c-1.5,7-1.4,22.6,0.5,84.5c1.3,40.1-0.8,60.9-13,126.8c-5.8,30.7-11.5,71.4-12.6,88.7
		c-0.4,6.5,0.1,17.4,1.9,38.7c2.1,24.3,2.5,35.1,2.5,59.4c0.1,32-0.4,40-5,70.7c-3.5,24.1-4.3,46.5-2.2,57.6
		c2.8,13.6,11.3,28.6,19.5,34.7c5.6,4.1,12.9,7.2,22.3,9.6c6.4,1.6,10.3,1.9,22.6,1.9c16.3,0,18.4-0.4,27.7-5.9
		c17.6-10.3,73.5-77.8,102-122.8c25.2-40.1,39.5-83.3,44.5-134.9c2.8-29.1,2.5-105.1-0.6-139.9c-1.7-19.7-7.4-49.6-13-68.4
		c-8.4-28.3-25.5-63-41-83.9c-12.9-17.1-38.2-44.5-50.7-55c-6.7-5.6-14.4-9.3-22-10.4C1602.8,1041.2,1598.7,1041.3,1586.6,1042.8z
		 M1613.7,1049c9.1,2,12.1,4,23.3,15.6c13,13.4,22,24.1,34.6,40.9c12.7,17,19.8,28.3,28.8,46.3c25.7,51,32.9,93.4,32.9,196.2
		c0,61.1-1.7,78.5-10.4,107.5c-11.6,38.3-30.6,72.4-69.7,124.7c-19.1,25.7-38.3,47.3-50.4,56.4c-11.8,9-31.3,16.9-45.4,18.4
		c-18.9,2-38.8-9.5-46.7-26.8c-4.7-10.3-5.5-14.8-5.3-30c0.1-13,0.6-18.9,4.9-58.5c2.6-24.7,2.6-50.3,0-87.8
		c-4.3-60.4-0.5-103.5,15.6-181.3c4.2-20.5,5.7-32.1,6.9-56.9c1-20.4,0.8-30.2-1.8-81.3c-2.1-41.3,7.6-64.1,32.3-76.5
		C1577.6,1048.7,1598.7,1045.8,1613.7,1049z"/>
	<path id="structure17_label15_IPl" bar:growlevel="0" bar:type="" class="st5" d="M1581.2,1050c-8.9,2-18.4,5.7-24.1,9.4
		c-10.8,7-19.8,19.8-23.1,32.9c-3.1,12.4-3.6,24.6-1.9,54.1c1.3,21,1.5,34.5,1.2,54.8c-0.5,30.5-1.9,43.8-6.6,66.6
		c-10.8,52.1-15.5,85.2-17.5,123.8c-0.9,18.5-0.4,36,2.3,74.6c2,28.7,1.4,53.7-2.3,86.4c-3.6,32.6-4.4,54.7-2.3,64.1
		c4,17.9,16.3,31.4,32.8,35.9c16.1,4.5,37.9-0.2,57.6-12.3c13.4-8.4,37.4-34.7,60.4-66.5c13.2-18.2,29-41.4,35.2-51.7
		c21.2-35.5,35.7-77.5,38.7-112.2c2.6-31.4,1.9-108.7-1.3-146.4c-4.5-51.5-15.5-88.2-38.3-127.8c-18.4-31.9-59.3-80.3-71.5-84.8
		C1614.2,1048.6,1589.7,1048.1,1581.2,1050z M1604.5,1058.2c19,4.9,35.4,17.9,56.3,44.9c27.4,35.2,42.8,66.2,53.1,107.5
		c8.4,33.7,11.9,62.3,12.7,105.4c1.1,54-3,99.6-11.7,131.5c-14.4,52.4-51.3,113.6-96.8,160.4c-27.3,28.2-49.5,40.2-69,37.4
		c-19.3-2.7-29-16.3-31.3-43.6c-0.3-3.6,0.4-20.4,1.7-38.7c4.4-63.8,5.7-98.7,4.1-121.1c-2.5-37.5-2-76.4,1.4-113.8
		c1.9-21.2,3.6-31.2,8.5-51.8c8.1-33.8,7.6-28.5,7.4-90c-0.5-74.5,0.7-89.6,7.7-102.9c6.7-12.7,21.4-23.9,34.9-26.6
		C1588.7,1055.8,1597.4,1056.4,1604.5,1058.2z"/>
	<path id="structure2_label0_GrO" bar:growlevel="0" bar:type="" class="st6" d="M1580,1058c-17.4,5-31.9,20.2-35.6,37
		c-2.3,10.3-3,28-2.7,65.3c0.5,68.9,0.5,75.6-1.8,88.6c-1.2,6.4-3.9,18.9-6,27.7c-4.6,18.7-6,27.2-7.9,47
		c-2.8,28.9-3.5,50.2-2.7,82.4c1,46,0.9,95.3-0.5,115.2c-0.6,9.6-1.9,28.4-2.9,41.9c-2.1,29.5-2.2,39.1-0.4,49.6
		c2,11,5.8,19.2,11.8,24.7c5.8,5.2,11,7.2,20.6,7.8c18.8,1.2,37.9-9.3,63.5-34.8c51.3-51.1,91.8-121.6,103-178.8
		c5.3-27.5,6.8-45.7,7.5-89.9c0.7-50.9-1.2-77.6-7.8-111.4c-11.1-56.4-30.3-96.1-67.8-139.7c-14.3-16.7-26.3-25.5-41.2-30.5
		C1599.9,1056.9,1587,1056,1580,1058z M1628.2,1199.5c12.4,8.6,26.8,41.8,26.8,62c0,15.3-4,40-9,56.4c-3.4,11.1-11.3,26.6-16.8,33.6
		c-12.7,15.7-33.4,23-48,17c-10.8-4.6-16-18.7-15-40.9c1.6-33.4,18.5-90.7,33.3-112.5C1610.6,1198.6,1619.8,1193.7,1628.2,1199.5z
		 M1659.1,1333.1c1.4,1.6,1.7,3.2,1.6,11.1c-0.1,8.7-0.3,9.7-5.7,25.3c-13.1,37.4-20.5,54.5-32.9,75.1
		c-11.2,18.6-14.9,26.7-18.4,40.1c-5.2,20.1-13.6,39.4-20.2,46.9c-8.8,10-9.3,2.3-2.9-45.5c3.5-25.8,5-39.2,7.6-68.4
		c1-11.2,2.3-21.9,2.8-23.8c1.6-5.9,9.5-12.8,20.9-18.4c11-5.4,13-7.6,21.4-21.5c7.8-13.1,17.1-22.7,22-22.7
		C1656.5,1331.2,1658.1,1332,1659.1,1333.1z"/>
	<path id="structure3_label1_GrA" bar:growlevel="0" bar:type="" class="st7" d="M1615.6,1198.6c-7.4,4.1-17.1,16.7-24.5,31.9
		c-6.8,14-18.4,53.6-22.1,75.1c-3.4,19.8-3.2,39.6,0.5,49.6c2.5,6.8,7.9,12.2,13.7,13.8c5.4,1.5,17.3,0.9,23.6-1.3
		c11.9-4,23-14.9,30.9-29.9c10.3-19.7,17-52.8,16.2-78.8c-0.4-10.8-0.7-12.8-3.7-21.6c-6.3-18.5-16.5-35-24.1-38.9
		C1622.8,1196.7,1619.2,1196.8,1615.6,1198.6z"/>
	<path id="structure6_label4_aci" bar:growlevel="0" bar:type="" class="st8" d="M1580,1058c-17.4,5-31.9,20.2-35.6,37
		c-2.3,10.3-3,28-2.7,65.3c0.5,68.9,0.5,75.6-1.8,88.6c-1.2,6.4-3.9,18.9-6,27.7c-4.6,18.7-6,27.2-7.9,47
		c-2.8,28.9-3.5,50.2-2.7,82.4c1,46,0.9,95.3-0.5,115.2c-0.6,9.6-1.9,28.4-2.9,41.9c-2.1,29.5-2.2,39.1-0.4,49.6
		c2,11,5.8,19.2,11.8,24.7c5.8,5.2,11,7.2,20.6,7.8c18.8,1.2,37.9-9.3,63.5-34.8c51.3-51.1,91.8-121.6,103-178.8
		c5.3-27.5,6.8-45.7,7.5-89.9c0.7-50.9-1.2-77.6-7.8-111.4c-11.1-56.4-30.3-96.1-67.8-139.7c-14.3-16.7-26.3-25.5-41.2-30.5
		C1599.9,1056.9,1587,1056,1580,1058z M1628.2,1199.5c12.4,8.6,26.8,41.8,26.8,62c0,15.3-4,40-9,56.4c-3.4,11.1-11.3,26.6-16.8,33.6
		c-12.7,15.7-33.4,23-48,17c-10.8-4.6-16-18.7-15-40.9c1.6-33.4,18.5-90.7,33.3-112.5C1610.6,1198.6,1619.8,1193.7,1628.2,1199.5z
		 M1659.1,1333.1c1.4,1.6,1.7,3.2,1.6,11.1c-0.1,8.7-0.3,9.7-5.7,25.3c-13.1,37.4-20.5,54.5-32.9,75.1
		c-11.2,18.6-14.9,26.7-18.4,40.1c-5.2,20.1-13.6,39.4-20.2,46.9c-8.8,10-9.3,2.3-2.9-45.5c3.5-25.8,5-39.2,7.6-68.4
		c1-11.2,2.3-21.9,2.8-23.8c1.6-5.9,9.5-12.8,20.9-18.4c11-5.4,13-7.6,21.4-21.5c7.8-13.1,17.1-22.7,22-22.7
		C1656.5,1331.2,1658.1,1332,1659.1,1333.1z"/>
	<path id="structure7_label5_Gl" bar:growlevel="0" bar:type="" class="st9" d="M1573.1,969c-36.9,6.3-67.4,27.9-91.1,64.3
		c-20.2,31-37.5,84.2-44.7,137.3c-6.5,47.1-7.1,106.6-1.9,164.6c1,10.4,3,35.2,4.5,55c11.1,144.8,21,230.7,32.8,286.2
		c4.9,22.4,10.9,32.5,22.8,38.1c4.9,2.3,5.9,2.4,18.2,2.4c14.9,0,20.4-1,41.7-7.3c16.2-4.9,26.5-9.5,39.3-18.1
		c33.8-22.4,73.4-61.7,110.6-109.6c36.3-46.7,60.9-85.9,68.3-108.5c5.3-16,9.7-59.8,10.9-106.6c0.7-30.7,0-51.2-2.6-77.9
		c-7.8-77.6-23.8-152.5-41-193.5c-10.9-26-29.6-53.3-51.7-75.6c-13-13-21.4-20.1-34.9-29.2C1625.7,971.7,1599,964.6,1573.1,969z
		 M1614.9,1004.5c5.9,2.8,21.2,7.1,25.6,7.3c1.9,0,3.5,1.6,8.6,8.6c7.8,10.7,19.1,22.3,25.9,26.9c4.1,2.7,6.3,3.5,10.3,3.8l5.1,0.4
		l1.5,6.2c1.9,7.9,8.5,21.8,13.9,29.5c2.3,3.2,7.6,9.4,11.7,13.8c6.9,7.2,7.5,8,7.5,11.5c0,5.7,2.5,21.7,5,32.4
		c3.3,14.4,6.3,22.8,12.5,35.6c3.1,6.4,5.9,13.1,6.1,14.8c0.4,1.7,1.3,11.3,2,21.2c2,24.4,2.5,27,10.9,52.9l5.2,15.9l-1.8,12.4
		c-1.3,9-1.7,17.4-1.7,31.2c0,20.3,1,27.5,4.4,33.3l2,3.3l-1.5,8.2c-5,26.2-7.4,49-7.5,72.6l-0.1,19.4l-5.9,9.9
		c-13.9,23.4-29.1,52.3-40,76.6c-3.6,8-3.8,8.2-12.3,14.7c-9.9,7.4-12.2,9.9-25.1,27.7c-25.3,34.6-48.7,57-85.3,81.3
		c-22.1,14.6-37.7,20.5-52.2,19.5c-21.9-1.4-35-9.5-43.5-27c-6.6-13.3-14-38.7-17.6-60c-3.5-20.3-4.9-36-12.7-141.6
		c-1-13.3-2.3-27.9-2.7-32.4c-1.2-11.3-1.2-26.3,0.1-36.6c0.9-7.5,0.8-10.1-0.7-20.7c-2-13.2-2.2-12.3,2.8-24
		c2.6-6.2,4.1-15.2,4.1-25.6c0-8.6,1.1-14.5,5.2-29.2c3.1-10.9,3.3-12.5,3.2-23.4c-0.1-6.9-0.7-14.2-1.5-18l-1.4-6.3l2.7-4.6
		c1.4-2.5,3.7-7.4,5-10.8c2.1-5.5,2.3-7.1,1.9-14.3c-0.3-5.2-1.3-10.7-2.8-15.6l-2.4-7.5l4-4.5c7.8-8.7,8.6-16.6,2.9-32.8
		c-1.8-4.9-3.2-9.6-3.2-10.3s1.1-2.3,2.3-3.5c1.3-1.3,3.3-4.2,4.7-6.8c2.1-4,2.4-5.9,2.7-15c0.4-11.9-1.1-19.5-6.4-32.7l-3-7.5
		l4.7-2.4c5.8-3.1,12.3-9.5,14.9-14.8c1.8-3.5,2.1-5.6,2.1-13.9l-0.1-9.6h4.1c9-0.1,17.7-7.6,22.1-19.2c1.3-3.5,2.7-6.8,3.1-7.2
		c0.3-0.4,4-1.1,8.2-1.6c25.6-3.2,44-9.8,52.6-19l4.5-4.8l4.7,4.7C1607,999.7,1611.5,1002.9,1614.9,1004.5z"/>
	<text id="label8" bar:growlevel="0" transform="matrix(1 0 0 1 1499.6221 1212.7285)" class="st10 st11 st12">EPl</text>
	<text id="label9" bar:growlevel="0" transform="matrix(1 0 0 1 1608.8525 1430.2344)" class="st10 st11 st12">OV</text>
	<text id="label0" bar:growlevel="0" transform="matrix(1 0 0 1 1539.4922 1412.1445)" class="st10 st11 st12">GrO</text>
	<text id="label1" bar:growlevel="0" transform="matrix(1 0 0 1 1587.0732 1298.9316)" class="st10 st11 st12">GrA</text>
	<text id="label4" bar:growlevel="0" transform="matrix(1 0 0 1 1669.1514 1313.1855)" class="st10 st11 st12">aci</text>
	<text id="label5" bar:growlevel="0" transform="matrix(1 0 0 1 1438.5117 1273.8477)" class="st10 st11 st12">Gl</text>
	<text id="label10" bar:growlevel="0" transform="matrix(1 0 0 1 1629.4014 1383.7578)" class="st10 st11 st12">E</text>
	<text id="label14" bar:growlevel="0" transform="matrix(1 0 0 1 1719.7617 1186.8047)" class="st10 st11 st12">Mi</text>
	<text id="label15" bar:growlevel="0" transform="matrix(1 0 0 1 1720.9307 1220.5605)" class="st10 st11 st12">IPl</text>
</g>
</svg>
