<?xml version="1.0" encoding="utf-8"?>
<!-- Generator: Adobe Illustrator 24.1.1, SVG Export Plug-In . SVG Version: 6.00 Build 0)  -->
<svg version="1.1"
	 id="body" inkscape:version="0.47pre4 r22446" sodipodi:docname="70_pretrace_pretrace_v1.svg" xmlns:bar="http://www.3dbar.org" xmlns:cc="http://creativecommons.org/ns#" xmlns:dc="http://purl.org/dc/elements/1.1/" xmlns:inkscape="http://www.inkscape.org/namespaces/inkscape" xmlns:rdf="http://www.w3.org/1999/02/22-rdf-syntax-ns#" xmlns:sodipodi="http://sodipodi.sourceforge.net/DTD/sodipodi-0.dtd" xmlns:svg="http://www.w3.org/2000/svg"
	 xmlns="http://www.w3.org/2000/svg" xmlns:xlink="http://www.w3.org/1999/xlink" x="0px" y="0px" viewBox="0 0 3024 3024"
	 style="enable-background:new 0 0 3024 3024;" xml:space="preserve">
<style type="text/css">
	.st0{fill:#FF000C;}
	.st1{fill:#FFB2BA;}
	.st2{fill:#77D400;}
	.st3{fill:#97FF00;}
	.st4{fill:#8CFF00;}
	.st5{fill:#DEFFB2;}
	.st6{fill:#FFEC00;}
	.st7{fill:#FF005D;}
	.st8{fill:#69FF00;}
	.st9{fill:#E0E959;}
	.st10{fill:#EEF423;}
	.st11{fill:#D0D447;}
	.st12{fill:#FFE900;}
	.st13{fill:#C4C923;}
	.st14{fill:#C3C900;}
	.st15{fill:#8847F2;}
	.st16{fill:#E6E98E;}
	.st17{fill:#FDFF76;}
	.st18{fill:#FEFFB2;}
	.st19{fill:#FBFF8E;}
	.st20{fill:#E2E923;}
	.st21{fill:#F1F48E;}
	.st22{fill:#DBDF6B;}
	.st23{fill:#83E900;}
	.st24{fill:#97FF59;}
	.st25{fill:#A8E959;}
	.st26{fill:#FFF359;}
	.st27{fill:#3FFF00;}
	.st28{fill:#E9DA00;}
	.st29{fill:#DBFFB2;}
	.st30{fill:#925FDC;}
	.st31{fill:#B8FF00;}
	.st32{fill:#FFE600;}
	.st33{fill:#FF0045;}
	.st34{fill:#B2FF00;}
	.st35{fill:#E9DB00;}
	.st36{fill:#8AD400;}
	.st37{fill:#FFF000;}
	.st38{fill:#FFDE00;}
	.st39{fill:#6D2FE9;}
	.st40{fill:#D86BC8;}
	.st41{fill:#8F6BE1;}
	.st42{fill:#5F23ED;}
	.st43{fill:#F200DD;}
	.st44{fill:#FF23E9;}
	.st45{fill:#F3FF59;}
	.st46{fill:#D8E900;}
	.st47{fill:#DDFFB2;}
	.st48{fill:#C6D400;}
	.st49{fill:#FFFAB2;}
	.st50{fill:#E9E159;}
	.st51{fill:#FFEF00;}
	.st52{fill:#FEFF3B;}
	.st53{fill:#92FF00;}
	.st54{fill:#232323;enable-background:new    ;}
	.st55{font-family:'TimesNewRomanPSMT';}
	.st56{font-size:27px;}
</style>
<sodipodi:namedview  bordercolor="#666666" borderopacity="1" gridtolerance="10" guidetolerance="10" id="namedview5783" inkscape:current-layer="content" inkscape:cx="400.24692" inkscape:cy="474.16466" inkscape:object-paths="true" inkscape:pageopacity="0" inkscape:pageshadow="2" inkscape:window-height="1128" inkscape:window-maximized="1" inkscape:window-width="1918" inkscape:window-x="1680" inkscape:window-y="24" inkscape:zoom="1.1076143" objecttolerance="10" pagecolor="#ffffff" showgrid="false">
	</sodipodi:namedview>
<desc  id="desc5547">This was produced by version 4.2 of GNU libplot, a free library for exporting 2-D vector graphics.</desc>
<defs>
	<rdf:RDF>
		<cc:Work  rdf:about="">
			<dc:format>image/svg+xml</dc:format>
			<dc:type  rdf:resource="http://purl.org/dc/dcmitype/StillImage"></dc:type>
		</cc:Work>
	</rdf:RDF>
	<bar:data  content="0.72" name="coronalcoord"></bar:data>
	
		<bar:data  content="{&apos;ReferenceHeight&apos;: 900, &apos;ReferenceWidth&apos;: 1200, &apos;imageSize&apos;: (1200, 900)}" name="rendererConf">
		</bar:data>
	
		<bar:data  content="{&apos;DumpEachStepSVG&apos;: False, &apos;DumpEachStepPNG&apos;: False, &apos;GrowDefaultBoundaryColor&apos;: 200, &apos;CacheLevel&apos;: 5, &apos;NewPathIdTemplate&apos;: &apos;structure%d_%s_%s&apos;, &apos;PoTraceConf&apos;: {&apos;potrace_accuracy_parameter&apos;: &apos;0.001&apos;, &apos;potrace_width_string&apos;: &apos;1200pt&apos;, &apos;potrace_svg_resolution_string&apos;: &apos;300x300&apos;, &apos;potrace_height_string&apos;: &apos;900pt&apos;}, &apos;DetectUnlabelled&apos;: True, &apos;DumpVBrain&apos;: False, &apos;DumpWrongSeed&apos;: True, &apos;DumpDirectory&apos;: &apos;.&apos;, &apos;MinFiterTimesApplication&apos;: 3, &apos;RegionAlreadyTraced&apos;: 100, &apos;UnlabelledTreshold&apos;: 500}" name="tracingConf">
		</bar:data>
	<bar:data  content="0.0176211454,-9.5150660793,0.0176211454,-1.5355884426" name="transformationmatrix"></bar:data>
</defs>
<g id="content">
	<path class="st0" d="M2309.5,1315.1c-10.5-84.2-37-172.9-74.7-251.1c-45.3-93.6-104-164.7-209.6-253.4
		c-86.9-73-164.6-119.1-257.9-152.7c-100.3-36.2-215.7-50.7-324.4-40.6c-94.3,8.6-173.2,37.3-224.5,81.4
		c-21.5,18.5-33.8,35.6-43.5,60.6c-3.1,8-8.4,28.2-8.4,32c0,1.4-0.4,2.1-1.5,1.8c-0.1,0-0.2-0.1-0.3-0.1l-0.4,1089.9
		c1.1-0.8,2.1,0.3,3,3.5c4.4,15,25.6,49.7,43.8,71.5c9.4,11.3,12.2,13.7,36.8,31.8c12.4,9.1,27.4,20.1,33.5,24.5
		c10.7,7.8,13,10.4,9.4,10.4c-2.2,0-5.5,4.1-5.5,6.8c0,1.1,0.8,3.1,1.9,4.4c3.7,4.7,11,2.3,12.2-4c0.3-1.5,0.9-2.7,1.4-2.7
		c0.4,0,4.8,2.4,9.5,5.3c10.3,6.4,16,9.3,24.8,12.6c7.9,3.1,12.1,5.8,18.8,12.4c5,4.9,8.6,9.9,24.3,34.2
		c11.7,18,21.8,27.2,40.7,36.7c20.8,10.6,46,16.6,80.1,19.4c17.5,1.4,72.6,1.4,90,0.1c19.3-1.5,39.3-4.5,47.7-7
		c23-6.9,22.1-6.8,52.2-7.6c29.4-0.8,39.4-1.9,61.6-6.8c23.1-5.1,37.4-11.3,71.2-30.5c29.3-16.6,29.4-16.7,53.6-20.3
		c26.1-3.8,36.9-6.6,48.5-12.3c11.3-5.8,27.7-17.8,44.7-32.9c4.1-3.7,9.3-7.6,11.5-8.7c2.3-1.1,9.2-5.4,15.4-9.5
		c6.3-4.1,11.9-7.6,12.5-7.6c0.6,0,0.9,1,0.7,2.3c-0.4,4.2,2,4.7,8.5,1.4c9.4-4.7,18.7-13.9,18.7-18.8c0-1.7-0.4-2.1-2.7-2.1
		c-1.6,0-2.7-0.4-2.7-1.2c0.1-0.5,4.6-4.6,10.2-8.9c5.6-4.3,17-13.5,25.4-20.4c8.5-7,23.2-19.1,32.9-26.8
		c31.3-25.2,48.2-43.7,58.9-64.2c4.4-8.6,8.5-18.8,24.8-63.4c7.3-19.8,13.9-33.7,25.6-52.8c48.2-79.9,83.6-164.5,96.4-230.7
		C2316.1,1461,2318,1382.4,2309.5,1315.1z"/>
	<path id="structure101_Unlabeled-1953-1562_Unlabeled" bar:growlevel="0" bar:type="" class="st1" d="M1298.5,1666.2
		c-10.3,8.5-30.6,17.4-45.3,19.8l-6.7,1.1l0.5,4.6c0.3,2.5,0.9,10.6,1.4,18.1c3.8,56,18.7,110.5,39.5,144.2c3.6,5.9,4.6,5.1,4.6-3.6
		c0-9,1.7-20.6,5.3-36.2c2.7-11.8,5.5-30.9,5.5-38c0-2.9,0.4-3.9,1.3-3.9c1.7,0,1.7-1.2-0.5-18c-3.1-23.8-4-45.6-2.9-61.8
		c0.9-12.3,1.6-16.7,4.4-28.9C1306.6,1660.4,1304.5,1661.2,1298.5,1666.2z"/>
	<path class="st1" d="M1456.1,2037.9c-3.6-1.6-17.8-14-24-21c-3.2-3.7-8.5-9.8-11.6-13.7c-4.1-5-6.2-6.9-7.7-6.9
		c-1.2,0-4.4-1.4-7.3-3.3c-5.3-3.4-23-12-24.8-12c-1.1,0-0.6,2.2,2.1,9.4c2.8,7.5,2.9,22.1,0.2,28.9c-4.1,10.4-12,17.9-21.2,20.3
		c-6.4,1.5-17.9,0.6-25.7-2.2c-18-6.5-37.9-20.2-68.6-47.4c-16.2-14.3-24.9-24.4-37.6-43.2c-15.8-23.3-25.1-40.3-37.6-68.2
		c-10.8-24.1-18.5-38-23-41.1c-1.5-1.1-3.1-1.5-4.6-1.3l0,46.4c1.1-0.8,2.1,0.3,3,3.5c4.4,15,25.6,49.7,43.8,71.5
		c9.4,11.3,12.1,13.7,36.8,31.8c12.4,9.1,27.5,20.1,33.5,24.5c6,4.5,11,8.6,11.1,9.2c0,0.6,0.5,1.2,1.2,1.2c0.7,0,2.2,1,3.3,2.3
		c1.2,1.3,2.7,2.3,3.4,2.3c0.7,0,5.2,2.4,10,5.3c10.3,6.4,16,9.3,24.8,12.6c3.7,1.4,8.5,3.8,10.7,5.4c4.7,3.1,5,3.2,6.4,1.5
		c1.1-1.4,11.1-4.1,23.5-6.5c6.3-1.3,13.1-1.6,30.6-1.6c12.4-0.1,24.2,0.2,26.4,0.6c3,0.5,3.8,0.4,3.8-0.6c0-0.9,2.2-1.5,7.9-2.3
		c12.7-1.7,13.7-1.9,13.7-3.2C1458.2,2039.5,1457.2,2038.5,1456.1,2037.9z"/>
	<path id="structure104_Unlabeled-2413-1965_Unlabeled" bar:growlevel="0" bar:type="" class="st1" d="M1701.7,2027.5
		c-7.9,0.6-14.9,1.2-15.5,1.2c-0.6,0.1-1.2,0.9-1.2,1.9c0,1-0.8,3.1-1.8,4.7c-2.4,4-2.3,7.3,0.4,10.4c2.2,2.5,2.3,2.5,12,2.4
		c14.7,0,26-4,30-10.4c2.4-4,2.3-4.8-1.3-8.4C1720.8,2025.6,1722.5,2025.8,1701.7,2027.5z"/>
	<path id="structure106_Unlabeled-2239-1989_Unlabeled" bar:growlevel="0" bar:type="" class="st1" d="M1558.1,2049.3
		c0,0.9-1.3,2.8-2.8,4.3c-5.9,5.6-7.8,14.4-4.5,21c2.3,4.5,5.7,5.8,13,5.3c11.3-1,19.4-6.8,19.4-14c0-3.4-3.4-10.6-6.2-13.1
		c-1.1-1-1.9-2.4-1.9-3.4c0-1.4-0.8-1.6-8.5-1.6C1559,2047.7,1558.1,2047.8,1558.1,2049.3z"/>
	<path class="st2" d="M1241.4,1583.9c-3.3-43.6-20.4-99-48.4-157.7c-13.9-29.3-22.1-47.5-24.8-55.2c-1.3-4.2-2.6-6.4-3.6-6.4l0,98.7
		c3.2-0.9,5.8,4.3,11.8,22.7c2.5,7.7,12.2,33.8,21.8,58.1c9.4,24.2,18.3,46.9,19.5,50.2c3.1,7.8,6,10.5,11.8,10.5
		c4.8,0,9.2-2.3,11.5-5.8C1242.2,1597,1242.3,1595.4,1241.4,1583.9z"/>
	<path class="st3" d="M1402,1388c-4-15.8-14.5-44.5-21.1-57.4c-2.5-5-3-5.4-9.8-8.6c-19.8-9-39.2-15.5-58-19.1
		c-13.8-2.6-23-3.7-47.6-5.4c-22.1-1.5-30.6-3-40.1-6.9c-7.4-3.1-14.8-9.1-17.4-14.3c-1-1.8-2.1-5.7-2.3-8.4
		c-0.7-6.3-2.5-6.7-3.9-0.8c-2.7,12.3-2,20.6,3.7,39.7c2,6.8,3.9,15,4.1,18.4c0.4,5.3,0.1,6.7-2.1,11.1c-4.1,8.4-14,14.8-28.1,18.5
		c-3.8,0.9-8.6,1.7-10.9,1.7h-4l0.6,3.3c1.6,9.3,8.7,26.2,25.5,61c12.1,25.2,16,34.2,23.6,53.9c11.5,30.1,20.3,60.5,24.8,86.3
		c2.4,13.2,2.5,15.1,3.1,57.3c0.5,40.1,0.7,44.6,2.6,56.1l2.2,12.4l4.6-0.5c14.1-2,36.9-11.8,47.4-20.5c4.8-4,16.5-16.7,23.3-25.3
		c1.2-1.4,1.3-7.4,1.3-40c0-40.7,0.6-48.2,5-64.9c2.3-9,10.2-24.6,17.6-35.1c9.4-13.1,29-32.3,41.8-40.8
		c11.6-7.7,14.7-11.4,17.4-20.7C1408.6,1428.4,1407.2,1408.7,1402,1388z M1288.1,1588.4c-7.4,15.8-19.9,23.7-27,16.9
		c-3.6-3.4-5.4-9.8-5.4-18.8c0-10.4-2.3-28.7-5.5-43.8c-6.4-30.2-7.3-38-4.9-43.6c2-4.9,5.5-5.6,13-2.6c7.6,3.1,21.3,15.3,27.9,24.9
		c1.6,2.3,4.2,7,5.8,10.3c2.9,6,2.9,6,2.9,20.9C1294.9,1569.8,1293.6,1576.4,1288.1,1588.4z"/>
	<path class="st4" d="M1204.9,1305.6c-6.5-22.1-6.6-32.9-0.3-46.6c1.5-3.3,2.5-6.3,2.2-6.7c-0.3-0.4-5.3,0.3-11.2,1.3
		c-13.3,2.4-22.2,3.6-31,3.6l0,98.7c6.3,0,12.7-0.7,17.3-2.1c8.8-2.7,16-6.6,20.5-11.1C1210.9,1334.5,1211.3,1327.7,1204.9,1305.6z"
		/>
	<path id="structure13_label15_LSD" bar:growlevel="0" bar:type="" class="st5" d="M1293.5,1224.7c-20.3,8.7-42.3,15.9-68,22.3
		l-15.3,3.9l-1.7,3.3c-2.2,4.4-2.9,13.8-1.4,19c1.6,5.7,6.8,11.3,14.1,15.1c10.9,5.7,18.1,7,49.3,9.2c10.9,0.7,23.9,2,29.1,2.7
		c21.4,3.1,45,9.8,64.4,18.4c10.7,4.9,12.2,5.2,12.2,3.2c0-3.1-16-31-28.2-49.1c-15.6-23.2-40.1-52.3-43.8-52.1
		C1303.6,1220.7,1298.7,1222.6,1293.5,1224.7z"/>
	<path id="structure14_label16_CPu" bar:growlevel="0" bar:type="" class="st6" d="M1561.7,1080.7c-32.9,3.1-54.6,9.8-76,23.5
		c-10.5,6.8-15.7,11.8-21.6,21c-20.5,31.8-36.5,69.3-45.9,107.6c-6.6,26.9-8,35.6-8,48.2c-0.1,12.1,1.6,19.7,6.3,29.1
		c1.3,2.3,2.1,5,1.8,5.8c-1,3.2-4.1,26.2-5,38c-0.6,7.1-1,29.9-1,55.1c0.1,46.1-0.1,50.4-4.9,103.3c-2.9,30.8-3.2,36.7-2.8,53.1
		c0.4,16.6,2.8,40.9,5.1,53.8c2,10.9,30.3,47.3,49.9,64.1c4.3,3.7,17.6,13.5,29.6,21.9c41,28.7,57.7,42.8,62.7,53.2
		c3.9,7.8,5.7,17.1,5.7,29.8c0.1,10.2-0.3,12.3-3.5,23.6c-0.4,1.6,0.2,2.3,4.1,4.3c3.6,1.8,5.4,2.2,7.7,1.7
		c6.1-1.1,18.4,7.2,18.4,12.5c0,1.9,3.4,2.9,58.9,17.6l58.9,15.7l4-2c2.2-1,5.3-1.9,6.9-1.9c3.4,0,8.2,2.3,8.2,3.9
		c0,1.2,23.2,8.7,26.6,8.7c0.7,0,4.5-3.2,8.3-7c3.9-3.9,10-9.2,13.7-11.8c14.7-10.4,36-18.7,36-14.1c0,2.2-8.6,14.4-20.5,29.2
		c-6.1,7.6-11,14.3-10.7,14.9c0.5,1.1,27.3,10.3,27.9,9.6c0.2-0.3,2.6-3.5,5.3-7.2c2.8-3.7,9.6-11.6,15.2-17.5
		c21.6-23,34.5-38.5,46.1-55.3c9-13.1,26.6-42.8,29.9-50.5c4.1-9.4,9.4-26,14.7-45.8c4.9-18.2,23.3-82,31.7-109.8
		c12.1-39.9,14.4-54.5,14.4-90.4c0-118.9-32.6-223.7-93.4-300.4c-12-15-38.8-41.8-52.8-52.7c-57.7-44.6-119.4-71.3-186.3-80.4
		C1613.9,1081,1572.6,1079.7,1561.7,1080.7z"/>
	<path id="structure15_label17_LV" bar:growlevel="0" bar:type="" class="st7" d="M1420.9,1155.5c-21.8,14.9-72,43.3-100.6,57
		c-7.7,3.7-14.1,7.2-14.1,7.7c0,0.5,1.7,2.6,3.7,4.5c10.3,9.8,28,32.2,41,51.8c18.1,27.1,37,65.3,45.4,91.6c1.5,4.8,2.4,6.5,3.5,6.3
		c1-0.3,1.4-1.7,1.6-6.6c0.1-3.5,1-17.5,2-31.1l1.8-24.8l-2.3-15.7c-2.8-18.5-3.4-44.4-1.4-55.7c4.2-23.7,15-55.4,27.3-80.6
		c2.4-4.9,4.4-9.5,4.4-10.1C1433,1147.7,1430.8,1148.7,1420.9,1155.5z"/>
	<path class="st8" d="M1950.9,1326.1c-24.1-72.5-63.5-135.3-119.3-189.7c-17.8-17.5-29.7-27.1-49.9-40.5
		c-47.8-31.9-104.2-55.8-191.1-81.3l-26.7-7.8h-22c-13,0-25.4,0.5-30.2,1.2c-41.9,5.9-70.4,18.1-99.9,42.6
		c-4.9,4.1-16.6,15.4-26.1,25c-50.9,52.4-58.1,58.7-73.4,64.4c-3.7,1.3-11,4.4-16.2,6.8c-24.7,11.2-52.5,18.2-91.7,23
		c-9.2,1.1-24.5,1.7-39.8,1.7l0,85.3c3.4,0.1,6.4,0,9.1-0.3c33.9-3.7,86.8-17.8,120.7-32.4c15.7-6.7,51.6-24.8,72-36.1
		c36.8-20.4,62.5-37.1,74.7-48.2c6.7-6,24.6-20.8,37.9-31.2c16.7-13,40.4-22.6,64.8-26.2c47.3-6.9,101.5-1.2,152.2,16.2
		c49.3,16.9,98.9,46.3,136,80.3c62.5,57.3,106,146.2,121.6,247.7c4.6,29.9,5.9,50.1,6,86.4c0,41.8-1.3,51-14.8,95.8
		c-12,40-18.6,63.3-18.6,65.2c0,4.8,3,0.7,9.6-13.2c14.1-29.3,18.2-40.4,24.9-68.6c9.3-38.7,13.1-73.2,13.1-117.4
		C1973.9,1419.6,1966.9,1374.2,1950.9,1326.1z"/>
	<path id="structure17_label22_DEn" bar:growlevel="0" bar:type="" class="st9" d="M1913.6,1716.6c-5.5,21.1-10.6,37.1-14.8,46.4
		c-3.8,8.2-18.3,32.6-28.3,47.3c-11.6,17.3-10.7,15-8.6,21.1c5.3,15.7,18.3,21,47.7,19.8c34.8-1.4,59.7-12,68-28.8
		c6.1-12.7,5.9-30.2-0.5-51.2c-3.1-10.2-11.3-26.4-16.4-32.7c-3.7-4.5-4.9-5.4-9-6.4c-2.6-0.7-6-1.9-7.7-2.7
		c-8.3-4.2-16.2-13.9-20.5-25.3C1919.9,1694.9,1919.1,1695.9,1913.6,1716.6z"/>
	<path id="structure18_label23_AIV" bar:growlevel="0" bar:type="" class="st10" d="M1996.1,1707.2c-6.8,13.3-19,23.1-31.5,25.4
		c-3,0.5-5.5,1-5.7,1c-0.8,0,0,2.5,1.3,4.1c2.1,2.4,15.9,12.7,29.4,21.7c41.4,27.5,92.7,54,144.4,74.3c22.2,8.7,31.5,11.9,32.3,11
		c0.4-0.5,4.7-11.8,9.5-25.1c4.9-13.4,10.4-28,12.2-32.4c2-4.5,3.5-8.6,3.5-9.1c0-0.6-1.9-1.4-4.2-1.7
		c-14.5-2.1-50.8-13.1-76.9-23.4c-28.8-11.4-72.5-32.2-97-46.3c-6.2-3.5-11.9-6.4-12.6-6.4C2000.1,1700.3,1998.1,1703,1996.1,1707.2
		z"/>
	<path id="structure19_label24_AID" bar:growlevel="0" bar:type="" class="st11" d="M2010,1643.8c-0.1,16.8-2.2,30.8-7,46.8
		c-1.4,4.7-2.1,8.2-1.5,8.6c1.7,1.6,19.5,11.5,36.8,20.4c41.1,21.2,85.3,39.2,120.2,49.3c10.2,2.9,31,7.7,33.3,7.7
		c0.5,0,1.7-1.7,2.8-3.9c1.1-2.1,6.7-11.7,12.5-21.3c14.9-25,25.4-44.1,24.8-45.5c-0.3-0.8-1.8-1.3-3.9-1.3c-5,0-26.6-3.3-42.1-6.4
		c-54.9-11-116.3-33.7-164-60.8c-5.6-3.1-10.5-5.8-11-5.8C2010.4,1631.9,2010,1636.8,2010,1643.8z"/>
	<path id="structure1_label0_VP" bar:growlevel="0" bar:type="" class="st12" d="M1308.4,1658c-1.5,2.5-4.2,12.1-5.4,19.3
		c-4.8,29.1-0.7,77.9,11.2,136.4c3,14.5,4.1,18.1,10.4,33.2c11.4,26.9,29.3,59.6,50,91.4c36.7,56.5,62.1,87.5,81.7,99.7
		c3.7,2.3,4.7,2.5,17.1,2.9c7.3,0.2,23.8,1.7,36.6,3.3c22.4,2.8,24.8,2.9,54,2.8c36,0,43.5-0.9,75.6-8.8c32.4-8,38.1-9,62.9-10.9
		c19.5-1.4,27.1-3.3,40.3-10c13.4-6.8,41.2-26,41.2-28.4c0-0.6-1.2-3.4-2.5-6.2c-1.4-2.7-2.8-5.8-3.1-6.9c-0.8-2.9-3-2.4-5.7,1.2
		c-3.3,4.3-10,8.6-13.6,8.6c-3.6,0-8.2-3.7-10.1-8.1c-0.7-1.7-1.6-6-2.1-9.5c-0.7-5.6-1.2-6.7-4-9.3c-2.9-2.6-3.6-2.9-8.8-2.9
		c-11.9,0-33.7,8.6-43,16.9c-5.4,4.9-7.4,8.3-11.6,19.7c-3.6,9.5-5.5,12-9.5,12c-2.5,0-3.2-0.5-4-2.3c-1.3-3.2-1.1-11.8,0.5-24.2
		c0.7-5.9,1.3-13.6,1.3-17c0-5.8-0.2-6.3-3.1-9.2c-2.6-2.6-3.7-3.1-7.1-3.1c-3.8,0-4.3,0.4-7.7,4.2c-2,2.4-7.9,10.3-13.2,17.8
		c-12.2,17-15.5,21.1-18.1,22.2c-3.1,1.4-6.2-0.3-8.4-4.5c-1.6-3.2-2.2-5.4-4.6-19.4c-1-6.1-2.7-9.2-5.9-10.6
		c-4.1-1.9-11.7,5-22,20.4c-5.1,7.7-7.4,9.4-11.5,9.4c-4.9,0-8.9-2.3-16.7-9.7c-9.5-9.1-16.7-14.1-29.1-20.3
		c-17.3-8.6-28.1-16.6-42.8-31.1c-19.1-19.1-27.9-33.2-35.5-56.4c-2.2-6.5-5.1-14.2-6.7-17.3c-5-9.7-23.7-37.4-28.9-42.5
		c-5.5-5.5-9.3-7.4-18-9c-12.3-2.3-31.8-12.8-40-21.6c-3.7-4.1-5.6-7.1-7.7-12.8c-3.8-9.8-17.2-48-24.4-69.6l-5.7-17.1v-12
		c0-8.8-0.3-11.9-1.2-11.9C1309.4,1657.1,1308.6,1657.4,1308.4,1658z"/>
	<path id="structure20_label25_DI" bar:growlevel="0" bar:type="" class="st13" d="M1994.6,1561.2c0,0.7,1.6,6.8,3.6,13.2
		c5.1,17,8.9,34.5,11.3,52.1l0.5,4.1l10.1,5.8c52.7,29.9,120.2,54.2,177.5,63.7c12.4,2.1,31,4.6,34.2,4.6c1.9,0,3.4-2.6,13.8-23.7
		c6.4-13,13.4-27.5,15.6-32.4c4.2-9.6,4.1-10.5-1.4-10.5c-4.5,0-37.8-5.1-53.1-8.1c-61.2-12.1-114.1-29.2-189.2-61.3
		c-11.4-4.9-21.2-8.9-21.8-8.9C1995.1,1559.9,1994.6,1560.5,1994.6,1561.2z"/>
	<path id="structure21_label26_GI" bar:growlevel="0" bar:type="" class="st14" d="M1974.4,1499.1l-0.6,6.8l6.8,17.7
		c3.7,9.7,8.1,21.5,9.7,26.1l3,8.5l12.6,5.4c69.1,29.7,109.8,44.2,160.2,57c31.7,8.1,77.9,16.4,93.8,16.9l5.9,0.2l3.5-8.1
		c8.5-19.9,22.3-58.8,22.3-63.1c0-2.1-0.3-2.2-6-2.2c-25.7,0-100.2-14.1-171.3-32.5c-41.3-10.7-110.8-30.5-130.4-37.3
		c-3.7-1.3-7.2-2.3-7.8-2.3C1975.4,1492.4,1974.7,1494.7,1974.4,1499.1z"/>
	<path id="structure22_label27_VCl" bar:growlevel="0" bar:type="" class="st15" d="M1974.1,1614.8c-6.9,1-16.1,4-18.8,6.1
		c-1.1,0.8-4.4,7.4-7.5,14.6c-3.1,7.2-10.4,22.9-16.4,35.1l-10.8,22l1,4.9c2.6,13,12.7,27,23.2,32.1c4.7,2.3,6.1,2.6,14.2,2.6
		c8.3,0,9.5-0.3,15.1-2.9c19-9,31.2-34.2,34.9-71.8c1.3-14,0.5-30.2-1.7-34.1c-2-3.3-6.4-6.5-10.9-7.7
		C1991.6,1614.3,1980.5,1613.9,1974.1,1614.8z"/>
	<path id="structure23_label28_S2" bar:growlevel="0" bar:type="" class="st16" d="M2288.5,1292.2c-32.9,6.8-139.8,26.2-260.1,47.3
		c-37.6,6.6-68.6,12.1-68.8,12.2c-0.3,0.2,0.5,4.1,1.6,8.6c8.3,33.3,12.5,66.9,13.3,106.1l0.5,24.9l9.5,3.1
		c31.9,10.4,92.3,27.5,138.6,39.2c69.9,17.6,123.8,27.8,160,30.3l9.3,0.6l0.8-2.3c0.5-1.3,2.7-9.5,5-18.4
		c16.3-65.2,19.8-156.8,9.1-236.7c-1.3-9-2.3-16.7-2.3-17.3C2305.1,1288.7,2305.7,1288.6,2288.5,1292.2z"/>
	<path id="structure24_label29_S1ULp" bar:growlevel="0" bar:type="" class="st17" d="M2122.3,924.6
		c-97.4,86.7-215.6,189.4-256.7,222.9c-6.3,5.1-11.4,9.9-11.4,10.6c0,0.6,3.8,5.5,8.4,10.9c38,43.9,69.8,100.3,88.7,157.2
		c2.4,7.4,5.2,16,6,19.2l1.6,5.7l3.7-0.5c50.6-8.3,300.8-53.5,336.6-60.8l5.2-1.1l-0.5-4.9c-1.4-12.2-9.6-49.9-16-73.6
		c-23.8-88.8-62.6-174.3-107.5-237.2c-16.6-23.2-44.5-57.6-46.7-57.6C2133.1,915.5,2128,919.6,2122.3,924.6z"/>
	<path id="structure25_label30_S1FL" bar:growlevel="0" bar:type="" class="st18" d="M1640.2,703.8c-18.2,106-43.4,250.9-49.1,282.6
		c-2.7,14.7-4.9,26.7-4.8,26.8c0.1,0,6.3,1.8,13.7,4c92.3,26.5,165.4,61.5,213.2,101.9c4,3.3,8,6.1,9.1,6.1c1.1,0,7.4-5.3,16.2-13.7
		c61.9-58.7,248.2-240.3,248.7-242.5c0.4-1.8-1.7-4-18.3-19.2c-27.4-25.1-67.1-58.2-93.6-78.1c-94.8-71.1-198.8-118.8-307.3-140.8
		c-7.1-1.4-13.4-2.6-14-2.6C1653.4,628.4,1648,657.7,1640.2,703.8z"/>
	<path id="structure26_label31_M1" bar:growlevel="0" bar:type="" class="st19" d="M1469.8,616.4c-2.5,0.3-3.4,0.9-3.9,2.3
		c-1.2,4.5-0.3,96.4,2.6,263.4c0.7,42.3,1.4,83.3,1.4,91v14l6.6,0.6c23,2.1,42,6.1,79.6,16.8c15.4,4.4,28.4,8,28.9,8
		c1,0,1.4-2.3,8.7-43.2c10-55.8,58.9-339.4,58.9-341.2c0-0.4-1.3-0.8-2.9-1.1c-1.6-0.2-12.9-1.9-25-3.6
		c-41.2-6.1-68.6-7.9-116.1-7.7C1489.1,616,1471.6,616.2,1469.8,616.4z"/>
	<path id="structure27_label32_M2" bar:growlevel="0" bar:type="" class="st20" d="M1449.7,617.7c-63.2,5.8-113.2,17.6-158.1,37
		c-5.8,2.5-10.6,5-10.6,5.6c0,0.5,3.6,9.5,8,19.9c92,217.1,131.8,309.2,135.5,313.5c0.2,0.2,3.1-0.5,6.5-1.6
		c8.3-2.6,21.5-4.5,31.1-4.5h7.8l-0.5-23.2c-1.7-77-3.3-187.5-3.8-261.9l-0.5-85.7l-3.7,0.1C1459.4,616.8,1454.2,617.2,1449.7,617.7
		z"/>
	<path id="structure28_label33_Cg1" bar:growlevel="0" bar:type="" class="st21" d="M1269.4,665.3c-32,17-58.9,38.5-75.5,60.3
		c-7.2,9.4-15.3,25.8-20,40c-6.6,20.3-8.2,32.5-8.2,62.6v21.2l54.3,35.9c107.9,71.3,182.3,119.2,185.5,119.2c0.4,0,2.3-1.2,4.4-2.6
		c2.1-1.4,5.9-3.6,8.6-5c2.5-1.3,4.7-3,4.7-3.6c0-0.7-2.1-5.7-4.6-11c-13.7-29.4-79.7-182.9-130.9-304.8c-5-11.5-7.6-16.8-8.6-16.8
		C1278.4,660.8,1274,662.8,1269.4,665.3z"/>
	<path id="structure29_label34_Cg2" bar:growlevel="0" bar:type="" class="st22" d="M1165.7,989.5v138.8l1.9,3.6
		c2.6,4.9,10.4,13,14.6,14.9l3.5,1.6l-4.4,3c-5.8,4.1-12.8,10.5-14.3,13.6c-0.7,1.4-1.3,3.5-1.3,4.9v2.4l6.9-0.5
		c4.1-0.3,7.1-0.9,7.3-1.5c0.9-2.6,5.1-6.5,9.6-8.6c8.5-4.2,17.2-3,22.3,3.2c2.8,3.3,4.5,3.4,19.3,0.9c35.2-6,64.5-16.6,79.9-28.8
		c22-17.6,37.6-38.7,56.9-77c13.1-26.2,20.1-37.3,29.5-47.1c3.7-4,6.8-7.5,6.8-7.9c0-0.4-2.2-2-4.8-3.4
		c-19-10.6-114.5-72.4-203.8-132.1c-15.5-10.3-28.5-18.7-29.1-18.7C1166,850.7,1165.7,896.5,1165.7,989.5z"/>
	<path class="st23" d="M1383.3,1991.9c-2.1-6.6-4.9-10.8-28.7-43.3c-28.7-38.8-54.4-75.3-64.8-91.7c-22.1-35-37.4-89.3-41.3-147.1
		c-0.5-7.9-2-21.5-3.2-30.2c-3.6-24.4-3.9-27.5-3.9-53.8c-0.1-16.3-0.4-24.5-1-24.5c-0.5,0-2.1,0.8-3.5,1.9c-1.3,1-4.1,2.1-6,2.3
		c-4.6,0.5-9.1-2.3-11.9-7.8c-3.7-7.5-38.7-98.4-43.7-113.9c-4.9-14.8-7.7-20.6-10.7-20.3l-0.1,372.2c0.8-0.1,1.6,0.2,3,0.9
		c5.3,2.8,13,15.8,24.8,42.1c12.3,27.7,21.8,44.9,37.5,68.2c12.7,18.8,21.4,28.9,37.6,43.2c30.7,27.3,50.6,40.9,68.6,47.4
		c7.8,2.8,19.3,3.7,25.7,2.2c9.3-2.3,17.1-9.8,21.2-20.3C1385.3,2013.4,1385.5,1999.1,1383.3,1991.9z"/>
	<path class="st24" d="M1950.9,1326.1c-24.1-72.5-63.5-135.3-119.3-189.7c-17.8-17.5-29.7-27.1-49.9-40.5
		c-47.8-31.9-104.2-55.8-191.1-81.3l-26.7-7.8h-22c-13,0-25.4,0.5-30.2,1.2c-41.9,5.9-70.4,18.1-99.9,42.6
		c-4.9,4.1-16.6,15.4-26.1,25c-50.9,52.4-58.1,58.7-73.4,64.4c-3.7,1.3-11,4.4-16.2,6.8c-24.7,11.2-52.5,18.2-91.7,23
		c-9.2,1.1-24.5,1.7-39.8,1.7l0,85.3c3.4,0.1,6.4,0,9.1-0.3c33.9-3.7,86.8-17.8,120.7-32.4c15.7-6.7,51.6-24.8,72-36.1
		c36.8-20.4,62.5-37.1,74.7-48.2c6.7-6,24.6-20.8,37.9-31.2c16.7-13,40.4-22.6,64.8-26.2c47.3-6.9,101.5-1.2,152.2,16.2
		c49.3,16.9,98.9,46.3,136,80.3c62.5,57.3,106,146.2,121.6,247.7c4.6,29.9,5.9,50.1,6,86.4c0,41.8-1.3,51-14.8,95.8
		c-12,40-18.6,63.3-18.6,65.2c0,4.8,3,0.7,9.6-13.2c14.1-29.3,18.2-40.4,24.9-68.6c9.3-38.7,13.1-73.2,13.1-117.4
		C1973.9,1419.6,1966.9,1374.2,1950.9,1326.1z"/>
	<path class="st23" d="M1383.3,1991.9c-2.1-6.6-4.9-10.8-28.7-43.3c-28.7-38.8-54.4-75.3-64.8-91.7c-22.1-35-37.4-89.3-41.3-147.1
		c-0.5-7.9-2-21.5-3.2-30.2c-3.6-24.4-3.9-27.5-3.9-53.8c-0.1-16.3-0.4-24.5-1-24.5c-0.5,0-2.1,0.8-3.5,1.9c-1.3,1-4.1,2.1-6,2.3
		c-4.6,0.5-9.1-2.3-11.9-7.8c-3.7-7.5-38.7-98.4-43.7-113.9c-4.9-14.8-7.7-20.6-10.7-20.3l-0.1,372.2c0.8-0.1,1.6,0.2,3,0.9
		c5.3,2.8,13,15.8,24.8,42.1c12.3,27.7,21.8,44.9,37.5,68.2c12.7,18.8,21.4,28.9,37.6,43.2c30.7,27.3,50.6,40.9,68.6,47.4
		c7.8,2.8,19.3,3.7,25.7,2.2c9.3-2.3,17.1-9.8,21.2-20.3C1385.3,2013.4,1385.5,1999.1,1383.3,1991.9z"/>
	<path class="st25" d="M1383.3,1991.9c-2.1-6.6-4.9-10.8-28.7-43.3c-28.7-38.8-54.4-75.3-64.8-91.7c-22.1-35-37.4-89.3-41.3-147.1
		c-0.5-7.9-2-21.5-3.2-30.2c-3.6-24.4-3.9-27.5-3.9-53.8c-0.1-16.3-0.4-24.5-1-24.5c-0.5,0-2.1,0.8-3.5,1.9c-1.3,1-4.1,2.1-6,2.3
		c-4.6,0.5-9.1-2.3-11.9-7.8c-3.7-7.5-38.7-98.4-43.7-113.9c-4.9-14.8-7.7-20.6-10.7-20.3l-0.1,372.2c0.8-0.1,1.6,0.2,3,0.9
		c5.3,2.8,13,15.8,24.8,42.1c12.3,27.7,21.8,44.9,37.5,68.2c12.7,18.8,21.4,28.9,37.6,43.2c30.7,27.3,50.6,40.9,68.6,47.4
		c7.8,2.8,19.3,3.7,25.7,2.2c9.3-2.3,17.1-9.8,21.2-20.3C1385.3,2013.4,1385.5,1999.1,1383.3,1991.9z"/>
	<path class="st3" d="M1164.6,1357.6v2.1C1164.8,1358.8,1164.8,1358.1,1164.6,1357.6z"/>
	<path id="structure4_label3_AcbC" bar:growlevel="0" bar:type="" class="st26" d="M1411.4,1630.1c0,0.5,0.8,4.7,1.8,9.3
		c1,4.5,1.8,9.9,1.7,11.9c-0.1,2.1,1.3,7.5,3.2,12.6c1.7,4.9,4.1,13.8,5.2,19.5l2.1,10.6l6.3,4.9c8.9,7.1,15.6,13.7,18.1,18.1
		c5.6,9.5,13.5,30.8,16.1,43.4c1.5,7.6,1.8,17.5,0.4,20c-1.5,2.9-6.5,3.9-13.3,2.7c-7.3-1.3-20.1-5.4-26.3-8.6
		c-2.4-1.3-4.8-2.3-5.2-2.3c-0.4,0-0.7,2.7-0.7,6.1c-0.1,4.1-0.7,7.5-2.1,10.4c-1,2.4-1.9,5-1.9,5.8c0,1.1,10.4,4.9,46.2,16.9
		c25.3,8.5,48.7,16.2,51.9,16.9c6.9,1.5,16.1,1.7,21.1,0.4c4.2-1.2,14.5-11.1,17-16.4c5.8-12.6,5.2-39.2-1.3-54.2
		c-4-9.4-23.1-25.5-63.4-53.6c-10.9-7.6-22.9-16.3-26.7-19.5c-13.1-10.8-30.9-31.1-42.6-48.3
		C1414.4,1630.1,1411.4,1627.4,1411.4,1630.1z M1534.3,1803.2c4.4,2.1,9.6,6.8,10.6,9.7c0.3,0.8,0,2.2-0.6,3.1
		c-2.5,3.4-14.1-1.4-18.3-7.6c-2.4-3.6-2.5-4-0.6-5.9C1527.2,1800.5,1529,1800.7,1534.3,1803.2z"/>
	<polygon class="st22" points="1164.7,1170.6 1164.7,1172.2 1165.1,1172.2 	"/>
	<path id="structure59_label70_cg" bar:growlevel="0" bar:type="" class="st27" d="M1441.4,989.6c-24.2,4.6-41.2,16.3-55.9,38.3
		c-2.9,4.1-10.3,17.7-16.5,30.1c-6.2,12.3-13.6,26.2-16.5,30.8c-10.4,16.8-23,32.2-34.6,42.2c-10.7,9.4-9.4,11.3,2.7,4.6
		c10.9-5.9,20.8-14.5,39.1-33.7c47.9-50.3,64.1-64.1,90.4-76.7c24.9-12,52.3-18.2,86.1-19.6c10.5-0.5,13.7-0.8,13.7-1.8
		c0-0.6-0.2-1.2-0.4-1.2c-0.2,0-8.2-2.1-17.8-4.5c-28.5-7.3-40.9-9.2-64.2-9.5C1453.6,988.5,1446,988.8,1441.4,989.6z"/>
	<path id="structure5_label4_AcbSh" bar:growlevel="0" bar:type="" class="st28" d="M1386.7,1579.8c-13.2,9.1-32.7,27.1-55.2,51.1
		c-10.6,11.3-14.6,16.2-16.7,20.7c-2.7,5.7-2.8,6.2-2.8,18.4v12.6l5.8,17.1c9.9,29.5,24.1,69.2,26.1,73.3
		c4.3,8.4,13.5,15.7,29.3,23.1c10,4.8,19.7,7,26.2,6.2c5.1-0.6,13.9-4.5,13.9-6.1c-0.1-0.6-4-3-8.9-5.3c-10.5-5-21.1-12.7-28.6-20.8
		c-9.7-10.4-13.1-18.1-14.7-33.3c-2.3-22.3,3.3-47.1,14.7-64.4c5-7.7,15.1-18.1,21.5-22.1c2.4-1.5,4.3-3.4,4.3-4.2
		c0-0.8-0.6-4.1-1.4-7.3c-2.2-9.4-4.1-27.7-4.7-45.9C1394.9,1573.5,1395.2,1574,1386.7,1579.8z"/>
	<path class="st24" d="M1950.9,1326.1c-24.1-72.5-63.5-135.3-119.3-189.7c-17.8-17.5-29.7-27.1-49.9-40.5
		c-47.8-31.9-104.2-55.8-191.1-81.3l-26.7-7.8h-22c-13,0-25.4,0.5-30.2,1.2c-41.9,5.9-70.4,18.1-99.9,42.6
		c-4.9,4.1-16.6,15.4-26.1,25c-50.9,52.4-58.1,58.7-73.4,64.4c-3.7,1.3-11,4.4-16.2,6.8c-24.7,11.2-52.5,18.2-91.7,23
		c-9.2,1.1-24.5,1.7-39.8,1.7l0,85.3c3.4,0.1,6.4,0,9.1-0.3c33.9-3.7,86.8-17.8,120.7-32.4c15.7-6.7,51.6-24.8,72-36.1
		c36.8-20.4,62.5-37.1,74.7-48.2c6.7-6,24.6-20.8,37.9-31.2c16.7-13,40.4-22.6,64.8-26.2c47.3-6.9,101.5-1.2,152.2,16.2
		c49.3,16.9,98.9,46.3,136,80.3c62.5,57.3,106,146.2,121.6,247.7c4.6,29.9,5.9,50.1,6,86.4c0,41.8-1.3,51-14.8,95.8
		c-12,40-18.6,63.3-18.6,65.2c0,4.8,3,0.7,9.6-13.2c14.1-29.3,18.2-40.4,24.9-68.6c9.3-38.7,13.1-73.2,13.1-117.4
		C1973.9,1419.6,1966.9,1374.2,1950.9,1326.1z"/>
	<path id="structure61_label72_aca" bar:growlevel="0" bar:type="" class="st29" d="M1406,1690.9c-6.2,5.3-9.9,17-9.9,31.9
		c0,17.4,4.1,28.3,15,39.6c4.9,5.2,8.5,8,13.7,10.7c10.3,5.4,22.7,9.3,31.1,9.7c6.5,0.4,7.4,0.3,8.9-1.4c4.9-5.4,0.7-27.9-9.5-52.3
		c-6.2-14.7-11.1-20.6-26.4-31.9C1416.9,1688.1,1411.2,1686.6,1406,1690.9z"/>
	<path id="structure62_label73_mfb" bar:growlevel="0" bar:type="" class="st30" d="M1308.4,1658c-1.5,2.5-4.2,12.1-5.4,19.3
		c-4.8,29.1-0.7,77.9,11.2,136.4c3,14.5,4.1,18.1,10.4,33.2c11.4,26.9,29.3,59.6,50,91.4c36.7,56.5,62.1,87.5,81.7,99.7
		c3.7,2.3,4.7,2.5,17.1,2.9c7.3,0.2,23.8,1.7,36.6,3.3c22.4,2.8,24.8,2.9,54,2.8c36,0,43.5-0.9,75.6-8.8c32.4-8,38.1-9,62.9-10.9
		c19.5-1.4,27.1-3.3,40.3-10c13.4-6.8,41.2-26,41.2-28.4c0-0.6-1.2-3.4-2.5-6.2c-1.4-2.7-2.8-5.8-3.1-6.9c-0.8-2.9-3-2.4-5.7,1.2
		c-3.3,4.3-10,8.6-13.6,8.6c-3.6,0-8.2-3.7-10.1-8.1c-0.7-1.7-1.6-6-2.1-9.5c-0.7-5.6-1.2-6.7-4-9.3c-2.9-2.6-3.6-2.9-8.8-2.9
		c-11.9,0-33.7,8.6-43,16.9c-5.4,4.9-7.4,8.3-11.6,19.7c-3.6,9.5-5.5,12-9.5,12c-2.5,0-3.2-0.5-4-2.3c-1.3-3.2-1.1-11.8,0.5-24.2
		c0.7-5.9,1.3-13.6,1.3-17c0-5.8-0.2-6.3-3.1-9.2c-2.6-2.6-3.7-3.1-7.1-3.1c-3.8,0-4.3,0.4-7.7,4.2c-2,2.4-7.9,10.3-13.2,17.8
		c-12.2,17-15.5,21.1-18.1,22.2c-3.1,1.4-6.2-0.3-8.4-4.5c-1.6-3.2-2.2-5.4-4.6-19.4c-1-6.1-2.7-9.2-5.9-10.6
		c-4.1-1.9-11.7,5-22,20.4c-5.1,7.7-7.4,9.4-11.5,9.4c-4.9,0-8.9-2.3-16.7-9.7c-9.5-9.1-16.7-14.1-29.1-20.3
		c-17.3-8.6-28.1-16.6-42.8-31.1c-19.1-19.1-27.9-33.2-35.5-56.4c-2.2-6.5-5.1-14.2-6.7-17.3c-5-9.7-23.7-37.4-28.9-42.5
		c-5.5-5.5-9.3-7.4-18-9c-12.3-2.3-31.8-12.8-40-21.6c-3.7-4.1-5.6-7.1-7.7-12.8c-3.8-9.8-17.2-48-24.4-69.6l-5.7-17.1v-12
		c0-8.8-0.3-11.9-1.2-11.9C1309.4,1657.1,1308.6,1657.4,1308.4,1658z"/>
	<path id="structure63_label74_lo" bar:growlevel="0" bar:type="" class="st31" d="M1932.1,2009.4c-20.7,3.9-31.8,14.8-52.6,51.8
		c-4,7.2-7.3,13.6-7.3,14.2c0,1.4,2.8,1.1,19.4-1.8c24.2-4.1,35.6-9.4,58-26.8c10.9-8.5,26.1-21.9,26.1-23c0-0.4-0.8-2.2-1.9-3.8
		c-2.3-3.8-7.9-7.7-13.9-9.8C1953.8,2008.2,1940.9,2007.8,1932.1,2009.4z"/>
	<path id="structure64_label75_SIB" bar:growlevel="0" bar:type="" class="st32" d="M1303.4,1776.1c0,7.4-2.8,26.2-5.9,39.8
		c-5.6,24.9-6.4,40.2-2.3,48.4c3.3,6.8,37.4,54.5,71.2,100.2l11.4,15.3l9.3,4c5.1,2.2,12.6,5.9,16.5,8.3c7.1,4.2,9.6,5.1,9.6,3.5
		c0-0.5-3.8-6.1-8.4-12.4c-9.1-12.4-31.8-46.2-41.3-61.5c-17-27.4-38.4-69.8-45.3-90.1c-2.3-6.7-6.4-26.1-9.7-46.3
		c-1.7-9.9-2.4-12.7-3.6-12.9C1303.7,1772.2,1303.4,1772.9,1303.4,1776.1z"/>
	<path id="structure66_label77_E" bar:growlevel="0" bar:type="" class="st33" d="M1452.4,1130.1c-4.4,3.8-9.9,8.7-12.1,11.1
		c-10.4,11.1-29.5,57.9-36.5,89.3c-2.4,10.6-2.5,12.4-2.5,32.4c0,16,0.4,23.4,1.6,30.6c2.4,14.5,2.6,21.3,1.1,42.3
		c-0.8,10.6-1.7,25.7-2,33.8c-0.4,13.3-0.4,15.1,1.7,23.8c3.5,14.5,4.6,24.3,3.8,34.7c-0.4,4.9-0.8,20.5-0.9,34.6l-0.1,25.7
		l-4.9,36.4l-5,36.4l0.1,27c0,23.2,0.3,28.8,2,39.8c3.1,19.6,6.8,30,11,30c4.7,0,5.7-7.8,2.7-21.1c-2.7-12.6-6.1-37.4-7.7-57.4
		c-1.7-19.9-1.3-31,2.3-68.1c4.7-47.7,4.9-51.8,4.7-95.4c-0.3-49.2,0.6-65.3,4.9-92.3l1.4-9.1l-3.2-8c-4.8-12.2-5.5-16.1-4.9-29.5
		c1.1-23,12-65.3,25-96.3c5.8-13.9,16.7-35.6,23.4-46.6c3-4.9,5.3-9.2,5.3-9.7C1463.6,1122,1459.8,1123.9,1452.4,1130.1z"/>
	<path id="structure67_label78_IG" bar:growlevel="0" bar:type="" class="st34" d="M1192.8,1160.4c-6.4,2-13.5,8.5-11.4,10.4
		c0.5,0.5,22.5-1.1,28.9-2.2c4-0.6,3.9-2.3-0.5-5.8c-2.6-2.2-4.4-2.7-8.5-3.1C1198.2,1159.5,1194.5,1159.8,1192.8,1160.4z"/>
	<path id="structure68_label79_ICj" bar:growlevel="0" bar:type="" class="st35" d="M1485.4,2062.1c-19.2,6.8-29,21.9-17.6,26.7
		c9.1,3.8,29.5-3.7,35.9-13.1c3-4.4,3-10.2-0.1-13.1c-1.9-1.9-3-2.3-7.8-2.3C1492.6,2060.4,1488.1,2061.1,1485.4,2062.1z"/>
	<path id="structure69_label80_STMA" bar:growlevel="0" bar:type="" class="st36" d="M1392.5,1654c-19.9,15.6-31.5,42.7-31.5,73.4
		c0,21.7,5,34.2,19.2,47.3c9.1,8.5,25.6,18.4,32.9,19.8c2.6,0.5,2.9,0.4,4.8-3.8c1.2-2.8,2.1-6.9,2.3-11.3l0.4-6.8l-7-7.1
		c-11.8-11.8-17-23-18.1-38.5c-1.1-17.4,4.5-33.2,13.5-37.9c2.3-1.3,3.1-1.2,7,0.1c2.4,0.8,4.6,1.9,4.9,2.3c1,1.5,3.2,0.8,3.2-1
		c0-6.9-7.7-34.2-9.6-34.2c-0.6,0-2,0.5-3,1.1c-2.4,1.5-4.5,0.2-6.8-4.5C1402.2,1647.7,1400.3,1647.9,1392.5,1654z"/>
	<path id="structure6_label8_CB" bar:growlevel="0" bar:type="" class="st37" d="M1410.7,1798.7c-1.6,1.2-4.8,2.6-7,3.2
		c-2.2,0.6-4,1.7-4,2.3c0,0.7,0.4,1.3,0.8,1.3c2.7,0,11.2,10,21.8,25.8c13.9,20.8,15.1,23.2,19.4,36.5c7.4,23,16.9,39.3,32.7,55.8
		c14.4,15.1,26.8,24.4,44.1,33c12.8,6.4,20.7,11.7,29.3,19.8c8.9,8.5,11.7,10.4,16,11.3c5.6,1.1,8.2-0.7,14.4-9.8
		c7.2-10.5,16.7-20.3,19.7-20.3c2.3,0,5,2.4,6.9,6c0.5,1.2,1.6,6.2,2.4,11.3c0.7,5.2,2.3,11.1,3.3,13.3c1.8,3.6,2.3,4.1,5.4,4.3
		c4.5,0.4,5.6-0.8,21.3-22.7c13.9-19.5,16.9-22.6,21.1-21.8c4,0.8,7,3.2,9,7.3c1.7,3.3,1.7,3.8,0.2,17.9c-0.8,8-1.7,16.6-2,19.1
		c-0.3,2.4-0.1,6.2,0.5,8.3c1,3.4,1.3,3.8,3.8,3.8c3.9,0,6.5-3.3,9.7-12.2c4-11.2,5.8-14,11.4-19.2c6.1-5.6,19.8-12.5,31.4-15.8
		c9.5-2.8,13.1-2.9,18.2-0.6c4.6,2.1,6.1,4.9,6.8,12.5c0.9,8.6,4.7,14.8,9.7,15.9c4.4,1,8.5-1.1,14.3-7.4l5.5-5.9l-0.5-6.9
		c-1.5-16.9,6.8-42.5,20.8-64.3c2.2-3.3,4-6.6,4-7.3c0-1-24.7-9.6-27.5-9.5c-0.5,0-3.8,3.5-7.1,7.8c-21.1,26.6-45.1,41.5-42.3,26.4
		c1.3-7.2,10.2-24,20.3-38.3c4-5.7,4.4-7.2,2.1-7.9c-0.9-0.3-6.7-2-12.8-3.8c-11.1-3.3-11.2-3.3-15.3-1.8c-2.3,0.8-5.4,1.4-7,1.4
		c-3.4,0-7.5-1.7-7.5-3.1c0-0.5-27-8.2-59.8-16.9c-48.7-13-60.2-15.8-61.6-14.9c-4.6,2.8-19-6.4-19-12.2c0-2-0.8-2.8-4.5-4.7
		c-2.4-1.3-4.8-2.3-5.2-2.3c-0.5,0-2.5,2.2-4.5,4.9c-4.5,5.9-10.5,10-16.8,11.4c-8.5,1.9-15.4,0.1-67.1-17.3
		c-26.5-8.8-49-16.1-49.9-16.1C1414.5,1796.7,1412.3,1797.6,1410.7,1798.7z"/>
	<path id="structure70_label81_DCl" bar:growlevel="0" bar:type="" class="st38" d="M1972.7,1521.8c-1.3,20.5-7.5,55.5-13.7,79
		c-3.9,14.8-4.5,18.4-3.1,18.4c0.5,0,4.1-1.1,7.9-2.3c13.9-4.7,31.9-3.8,39.6,2c5.4,4.1,5.6,3.7,2.9-10.2
		c-4.3-22.7-10.9-44.6-23-77.5c-5.2-13.9-7.2-18.2-8.4-18.2C1973.6,1513.1,1973.2,1514.4,1972.7,1521.8z"/>
	<path id="structure71_label82_PLd" bar:growlevel="0" bar:type="" class="st39" d="M1247.1,1496.3c-1.5,1.2-1.7,2.4-1.7,12
		c0.1,9,0.6,13.1,3.9,27.7c4.2,19.6,6.1,32.9,7,49.5c0.9,17.4,4,22.9,12.2,21.8c7.6-1,15.6-9.3,20.4-20.9
		c4.2-10.2,5.9-19.8,5.9-34.7c0-12-0.2-13.5-2.3-18.4c-3.5-8.5-8.6-15.6-17.1-23.9C1263.9,1497.9,1252.3,1492.6,1247.1,1496.3z"/>
	<path id="structure72_label83_mcer" bar:growlevel="0" bar:type="" class="st40" d="M2030.2,1990.2c-8.3,3-21.2,15-21.2,19.8
		c0,1.3,0.7,1.6,3,1.6c7.8,0,25.7-15.8,23.8-21.1C2035.1,1989,2034,1988.9,2030.2,1990.2z"/>
	<path id="structure73_label84_LSS" bar:growlevel="0" bar:type="" class="st41" d="M1798.4,1839.2c-15.5,4.4-30.5,13.8-42.9,26.9
		c-12.7,13.4-29.9,42.8-30.7,52.5c-0.5,5.9,0.7,6.7,6.6,4.5c10.3-4,23.8-17.4,48.7-48.7c19.5-24.5,24.7-31.7,24.7-34.6
		C1804.7,1837.7,1804.1,1837.7,1798.4,1839.2z"/>
	<path id="structure7_label9_IEn" bar:growlevel="0" bar:type="" class="st42" d="M1855.2,1831.4c-4.6,6.2-17.4,20.8-30.2,34.5
		c-6.3,6.7-14.2,15.8-17.5,20.3c-28,37-37.5,73.2-25.7,96.7c3.2,6.4,5.1,6.1,13-1.6c5-4.9,7-7.7,10.7-15.5c2.5-5.2,6-13.3,7.6-18
		c8-22.3,19.7-39,43.9-62.6c11.3-10.9,26.3-23.6,34.3-28.9c1.9-1.3,3.4-2.8,3.4-3.3c0-0.6-3-1.5-7.4-2.2c-13.4-2-21-7.4-25.1-18
		c-1.2-3.1-2.5-5.6-3.1-5.6C1858.7,1827.3,1856.9,1829.1,1855.2,1831.4z"/>
	<path id="structure81_label92_acer" bar:growlevel="0" bar:type="" class="st43" d="M1287.7,2026.5c-1.3,1.2-2.3,3.2-2.3,4.5
		c0,3.1,3.8,6.8,7,6.8c5.9,0,8.7-7.5,4.4-11.5C1294.1,2023.6,1290.4,2023.7,1287.7,2026.5z"/>
	<path class="st25" d="M1383.3,1991.9c-2.1-6.6-4.9-10.8-28.7-43.3c-28.7-38.8-54.4-75.3-64.8-91.7c-22.1-35-37.4-89.3-41.3-147.1
		c-0.5-7.9-2-21.5-3.2-30.2c-3.6-24.4-3.9-27.5-3.9-53.8c-0.1-16.3-0.4-24.5-1-24.5c-0.5,0-2.1,0.8-3.5,1.9c-1.3,1-4.1,2.1-6,2.3
		c-4.6,0.5-9.1-2.3-11.9-7.8c-3.7-7.5-38.7-98.4-43.7-113.9c-4.9-14.8-7.7-20.6-10.7-20.3l-0.1,372.2c0.8-0.1,1.6,0.2,3,0.9
		c5.3,2.8,13,15.8,24.8,42.1c12.3,27.7,21.8,44.9,37.5,68.2c12.7,18.8,21.4,28.9,37.6,43.2c30.7,27.3,50.6,40.9,68.6,47.4
		c7.8,2.8,19.3,3.7,25.7,2.2c9.3-2.3,17.1-9.8,21.2-20.3C1385.3,2013.4,1385.5,1999.1,1383.3,1991.9z"/>
	<path class="st44" d="M1166.2,1138.2c-0.5-0.1-1-0.1-1.5-0.1l0,19.9c0.1,0,0.1,0,0.1,0c4.1,0,5-0.4,7.3-3
		C1177.7,1148.8,1174.3,1139,1166.2,1138.2z"/>
	<path id="structure86_text5826_Pir-2" bar:growlevel="0" bar:type="" class="st45" d="M2082.1,1820.9c-8.8,5.9-17.3,15.2-32.8,35.9
		c-25.8,34.6-32.6,42.8-38.6,46.8c-6.2,4.1-15.9,7.5-26.5,9.1c-4.5,0.7-19.6,1.2-40.1,1.3c-34.5,0.3-37.6,0.5-55.2,5
		c-10.1,2.6-17.1,5.1-25.7,9.1c-9.4,4.3-17.5,12.3-26.4,25.6c-9.3,14-12,20.5-14.1,34.2c-4.3,26.9-5.9,32.5-9.7,35.5
		c-1.3,0.9-2.1,2.3-1.9,2.9c0.2,0.6,3,6.5,6.3,13.1c5.8,11.2,6.3,12,9.4,12.8c4.9,1.3,6.4,1.3,10.9-0.9c7.9-3.9,12.7-14.5,19.4-43.6
		c5.3-22.7,8.1-28.8,17.1-37.8c7.5-7.5,17.1-12.7,28.9-15.8c8.4-2.3,23.8-2.7,50.4-1.4c31.8,1.5,53.5-3.8,70-17.2
		c7.9-6.5,26.8-28.9,57-67.8c24.6-31.6,26.5-34.6,26.5-41.2c0-3.5-0.1-3.6-6.3-6.4C2092.2,1816.2,2088.8,1816.4,2082.1,1820.9z"/>
	<path id="structure88_text5828_Pir-3" bar:growlevel="0" bar:type="" class="st46" d="M1967.6,1747.5c0,0.8,1.4,4.1,3.1,7.5
		c8.8,17.6,13.4,38.6,11.4,52.6c-1.6,11.3-4,16.4-11.3,23.6c-12.4,12.3-32.8,19.1-63.1,20.8l-10.8,0.6l-6.6,4.5
		c-17.7,12.2-44.9,38-57,53.9c-9.5,12.7-14,21.2-20.5,37.9c-7.6,19.6-11.7,26.7-19.9,34.1c-3.4,3.2-6.3,6.1-6.3,6.6
		c0,0.5,1.7,3.2,3.8,5.9c2,2.7,7.1,10.2,11.3,16.6c4.2,6.4,7.7,11.9,7.9,12c0.1,0.2,1.1,0.1,2.2-0.3c3.1-1,5.9-8.6,8-21.6
		c3.8-23.6,4.7-27.3,8.4-34.5c9.5-18.6,23-34.2,34.5-39.7c11.8-5.7,27.9-10.5,44.1-13.2c7.1-1.2,16-1.5,42.8-1.7
		c30.4-0.1,34.6-0.4,41.9-2c18.4-4.2,22.9-8.2,50.8-45.3c10.5-14.1,21.2-28.1,23.8-31c5.2-6.1,15.8-14.8,20.3-16.7
		c1.5-0.7,2.8-1.7,2.6-2.3c-0.2-0.6-11.2-6.7-24.6-13.4c-32.6-16.4-60.8-32.9-84.5-49.5C1970,1746.1,1967.6,1745,1967.6,1747.5z"/>
	<path class="st47" d="M1383.3,1991.9c-2.1-6.6-4.9-10.8-28.7-43.3c-28.7-38.8-54.4-75.3-64.8-91.7c-22.1-35-37.4-89.3-41.3-147.1
		c-0.5-7.9-2-21.5-3.2-30.2c-3.6-24.4-3.9-27.5-3.9-53.8c-0.1-16.3-0.4-24.5-1-24.5c-0.5,0-2.1,0.8-3.5,1.9c-1.3,1-4.1,2.1-6,2.3
		c-4.6,0.5-9.1-2.3-11.9-7.8c-3.7-7.5-38.7-98.4-43.7-113.9c-4.9-14.8-7.7-20.6-10.7-20.3l-0.1,372.2c0.8-0.1,1.6,0.2,3,0.9
		c5.3,2.8,13,15.8,24.8,42.1c12.3,27.7,21.8,44.9,37.5,68.2c12.7,18.8,21.4,28.9,37.6,43.2c30.7,27.3,50.6,40.9,68.6,47.4
		c7.8,2.8,19.3,3.7,25.7,2.2c9.3-2.3,17.1-9.8,21.2-20.3C1385.3,2013.4,1385.5,1999.1,1383.3,1991.9z"/>
	<path id="structure90_text5830_Pir-1" bar:growlevel="0" bar:type="" class="st48" d="M2108,1825.9c0,6.2-5.9,14.8-37.4,54.8
		c-36.4,46.3-46.3,56.8-60.3,63.4c-17.6,8.4-36.9,10.8-67.2,8.6c-30.8-2.3-46.8,0.7-61.8,11.3c-12.8,8.9-17.5,17.5-23.1,41.6
		c-6.6,27.7-10.9,38.6-17.8,44.2c-2.7,2.3-4.3,2.8-9.1,3.1c-6.8,0.5-6.8,0.6-4.2,8.4c2.8,7.9,4,16.7,3.5,23.4
		c-0.3,3.4-0.2,6.2,0.2,6.2s4.9-2.2,10.1-4.9c9.4-4.9,16-7.1,24.8-8.3l4.7-0.6l7.9-14c10.3-18.4,21-34.3,27.3-40.6
		c9.7-9.7,24.7-14.9,41.3-14.2c14.1,0.6,22.6,4.6,28.1,13.2c2,3.2,4,2.3,18.3-7.2c11.7-7.6,65.3-49.8,84.2-66.1
		c4.7-4.1,15.8-13.1,24.8-20.3c25.7-20.5,42.3-38.3,52.7-56.4c4.4-7.8,11-23.5,10.3-25c-0.2-0.5-4.1-2.3-8.8-4
		c-4.6-1.6-16.8-6.3-27.1-10.4c-10.3-4.1-19.3-7.6-20.1-7.6S2108,1825.1,2108,1825.9z"/>
	<path id="structure92_text5884_Tu-2" bar:growlevel="0" bar:type="" class="st49" d="M1789.9,2026.4c-12.3,3.1-18.4,10.6-23.5,29
		c-1.3,4.8-3.3,9.7-4.3,10.9c-1.3,1.4-4.4,2.9-9.4,4.2c-8.9,2.5-12.9,5.2-17.7,11.7c-5.1,7-7.6,8.1-16.3,7.6
		c-3.9-0.3-13.1-1.9-20.6-3.7c-19.2-4.7-28.2-6-38.7-6c-17.2,0-30.5,3.8-52.7,14.8c-19.3,9.6-33.8,14-58.9,17.3
		c-16.7,2.2-58.7,2.2-73.8,0c-27.8-4.1-48.3-12.4-55.3-22.5c-9.4-14-3.7-26.9,14.8-33c6.1-2.1,10.3-4.8,10.3-6.8
		c0-2.9-15.1-4.9-37.2-4.9h-14.1l-2.8,4.2c-6,9.6-7,22.1-2.3,32c3,6.5,12.8,16.9,21.2,22.6c19.3,12.9,47.3,23.4,76.2,28.5
		c10,1.8,14.6,2.1,32.8,2.1c34.7-0.1,62.8-4.9,114.8-19.7c26.4-7.5,28.3-7.8,57.8-8.3c14.5-0.3,27.4-0.2,28.6,0.1
		c1.2,0.3,4.2,2.6,6.7,5c7.4,7.4,11.7,6.1,17.7-5.2c4.6-8.6,13.8-15.5,27.5-20.3c10.3-3.7,15-9.8,17.9-23.1
		c2.3-10.4,4.1-14.1,8-16.3c4.1-2.1,9.3-2.1,16.4,0.2c3.1,1,6.2,1.8,6.8,1.8c2.1,0,1.1-3.2-4.2-13.1l-5.2-9.9l-8-0.2
		C1798,2025.3,1792.4,2025.8,1789.9,2026.4z"/>
	<path id="structure94_text5886_Tu-3" bar:growlevel="0" bar:type="" class="st50" d="M1772.9,1998.6
		c-18.4,13.5-34.7,22.6-46.7,25.7c-2.3,0.6-4.2,1.4-4.2,1.8s1.3,1.9,2.7,3.3c3.2,3.2,3.3,4.1,0.9,8.1c-4,6.4-15.3,10.4-30,10.4
		c-9.6,0.1-9.8,0.1-12-2.4c-2.6-3.1-2.8-6.4-0.4-10.4c3.1-4.9,2.5-5.9-2.9-5.2c-9.3,1.2-16,2.7-16,3.5c0,0.5,0.8,1.8,1.8,3.1
		c2.2,2.8,2.3,4,0.4,7.5c-3.1,5.8-16.5,10.2-21.4,6.9c-3.1-2-3.7-5.4-1.9-9.3c0.8-1.7,1.3-3.3,1-3.6c-0.3-0.4-6.5,0.9-13.9,2.7
		c-15.8,3.8-27.3,5.7-39,6.4c-16.9,1.1-18.5,1.6-14.3,5.5c2.8,2.5,6.2,9.7,6.2,13.1c0,7.3-8.1,13.1-19.4,14
		c-7.4,0.5-10.7-0.8-13.1-5.3c-3.3-6.6-1.4-15.4,4.5-21c1.5-1.5,2.8-3.1,2.8-3.7c0-0.7-3.4-1.3-10.5-1.6c-5.8-0.3-21.2-1.8-34-3.4
		c-26.9-3.3-54.7-4-69-1.8c-8.6,1.3-10.3,2.8-4.5,4.2c2.3,0.5,3.4,1.3,3.6,2.7c0.4,2.4-3.3,4.8-11.6,7.5c-11.7,3.8-17,10-17,19.6
		c0.1,6.9,2.3,11.5,8.2,16.8c14.4,13,43.3,19.4,87,19.4c42.6,0,70-5.1,94.6-17.8c22.8-11.7,36.7-15.8,54.1-15.8
		c12,0,17.8,0.9,40.8,6.3c16.3,3.8,23.8,4.7,27.6,3.1c1.6-0.6,5-3.9,7.6-7.2c5.8-7.2,8.9-9.4,16.7-11.3c10.8-2.7,10.5-2.4,15.6-19.3
		c2.9-9.8,8.1-18.1,13.7-21.6c4.7-3,9.5-4.1,20.1-5c4.1-0.4,7.3-1,7.3-1.6c0-1-17.6-27.4-20.6-31c-1-1.1-2.1-2-2.5-2
		C1784.7,1990.1,1779.2,1993.9,1772.9,1998.6z M1504.3,2062.9c1.3,1.5,2.5,3.9,2.5,5.1c0,9.5-16,20.9-30.6,21.7
		c-5.7,0.4-7.2,0.1-9.6-1.4c-5.5-3.4-5-8.7,1.2-15.4c6.9-7.4,21.2-13.8,29.5-13.1C1501,2060,1502.2,2060.5,1504.3,2062.9z"/>
	<path id="structure96_text5888_Tu-1" bar:growlevel="0" bar:type="" class="st51" d="M1799,2045.9c-5.4,1.7-7.4,4.7-9.6,14.9
		c-3.2,15.1-8.1,21.6-19.1,25.6c-15.1,5.6-21,10-27.4,20.9c-4.4,7.6-7.7,10.3-11.2,9.2c-1.1-0.4-4.1-2.6-6.8-5.1l-4.8-4.5h-25.5
		c-33,0.1-32.7,0-76.9,12.2c-76.1,21.1-122.8,21.6-175.2,2c-28-10.5-47.5-24.6-55-39.7c-3.2-6.3-3.5-7.7-3.5-13.9
		c0.1-5.7,0.5-7.7,3-13c3.8-8,3.7-8.6-0.5-8.6c-7.5,0-33.4,5.9-34.1,7.8c-0.3,0.6,1.4,3.2,3.9,5.8c2.3,2.6,8.9,11.9,14.6,20.5
		c5.7,8.6,11.3,17.4,12.7,19.3c9.4,14.3,28.6,28.1,49.9,36c27.3,10.1,58.1,14,111.2,14c47.7,0,76.9-2.9,98.6-9.8
		c14.7-4.8,20.3-5.5,40.8-5.5c20.9,0,32.3-0.9,51.3-4.1c32-5.3,45.7-10.4,80.9-30.2c14-7.8,12.7-6.4,14.2-16
		c0.6-3.9-1.4-15.5-4.2-24.1c-2.6-8.4-2.7-8.4-6.8-10.2c-4.4-1.9-14-4.4-16.4-4.3C1802.2,2045.1,1800.4,2045.5,1799,2045.9z"/>
	<path id="structure99_text4051-7-1_S1DZ" bar:growlevel="0" bar:type="" class="st52" d="M2031.5,924.6
		c-93.2,91.1-169.1,164.6-195.9,189.8c-6.6,6.1-12,11.6-12,12.3c0,1.4,28.2,29.9,29.6,29.9c3.7,0,127.5-106.7,246.5-212.3
		c16.6-14.7,30.6-27.1,31.3-27.6c0.7-0.5,1.3-1.6,1.3-2.3c0-2.6-40.8-44.8-43.2-44.8C2088.4,869.7,2062.5,894.4,2031.5,924.6z"/>
	<path id="structure9_label11_LSV" bar:growlevel="0" bar:type="" class="st53" d="M1400.3,1450.1c-1.3,2-4.9,5-7.9,6.9
		c-20,12.6-40.1,33-52.5,53.6c-13.3,21.9-16.1,38.2-15.8,91.8c0.2,18.7,0.5,34,1,34c0.4,0,8.5-7.9,18-17.6
		c9.5-9.7,21.8-21.5,27.3-26.2c8.8-7.6,21.1-16.6,23.9-17.6c0.7-0.2,1.4-3.8,2-9.3c0.5-5,2.8-25.1,5.2-44.8
		c3.8-30.1,4.5-38.3,4.5-51c0-16.6-0.6-23.4-2.2-23.4C1403.3,1446.5,1401.7,1448.1,1400.3,1450.1z"/>
	<text id="label30" bar:growlevel="0" transform="matrix(1 0 0 1 1771.8008 891.7129)" class="st54 st55 st56">S1FL</text>
	<text id="label31" bar:growlevel="0" transform="matrix(1 0 0 1 1524.3887 802.8984)" class="st54 st55 st56">M1</text>
	<text id="label32" bar:growlevel="0" transform="matrix(1 0 0 1 1390.6807 809.8594)" class="st54 st55 st56">M2</text>
	<text id="label33" bar:growlevel="0" transform="matrix(1 0 0 1 1276.2002 866.9883)" class="st54 st55 st56">Cg1</text>
	<text id="label34" bar:growlevel="0" transform="matrix(1 0 0 1 1234.4404 1038.3496)" class="st54 st55 st56">Cg2</text>
	<text id="label8" bar:growlevel="0" transform="matrix(1 0 0 1 1682.3398 1964.7637)" class="st54 st55 st56">CB</text>
	<text id="label9" bar:growlevel="0" transform="matrix(1 0 0 1 1829.4014 1881.1973)" class="st54 st55 st56">IEn</text>
	<text id="label0" bar:growlevel="0" transform="matrix(1 0 0 1 1433.4014 1965.8125)" class="st54 st55 st56">VP</text>
	<text id="label1" bar:growlevel="0" transform="matrix(1 0 0 1 1317.3301 2010.7305)" class="st54 st55 st56">HDB</text>
	<text id="label2" bar:growlevel="0" transform="matrix(1 0 0 1 1200.6289 1860.2559)" class="st54 st55 st56">VDB</text>
	<text id="label3" bar:growlevel="0" transform="matrix(1 0 0 1 1480.8008 1785.0293)" class="st54 st55 st56">AcbC</text>
	<text id="label4" bar:growlevel="0" transform="matrix(1 0 0 1 1350.9658 1648.7285)" class="st54 st55 st56">AcbSh</text>
	<text id="label84" bar:growlevel="0" transform="matrix(1 0 0 1 1763.8203 1875.9473)" class="st54 st55 st56">LSS</text>
	<text id="label81" bar:growlevel="0" transform="matrix(1 0 0 1 1982.8203 1588.5273)" class="st54 st55 st56">DCl</text>
	<text id="label80" bar:growlevel="0" transform="matrix(1 0 0 1 1390.5313 1683.7031)" class="st54 st55 st56">STMA</text>
	<text id="label83" bar:growlevel="0" transform="matrix(1 0 0 1 2022.3887 2000.7402)" class="st54 st55 st56">mcer</text>
	<text id="label82" bar:growlevel="0" transform="matrix(1 0 0 1 1269.3301 1533.2559)" class="st54 st55 st56">PLd</text>
	<text id="text4051-7-1" bar:growlevel="0" transform="matrix(1 0 0 1 1971.1396 1030.9863)" class="st54 st55 st56">S1DZ</text>
	<text id="label12" bar:growlevel="0" transform="matrix(1 0 0 1 1174.5313 1439.1895)" class="st54 st55 st56">Ld</text>
	<text id="label13" bar:growlevel="0" transform="matrix(1 0 0 1 1280.4014 1413.0859)" class="st54 st55 st56">LSI</text>
	<text id="label10" bar:growlevel="0" transform="matrix(1 0 0 1 1170.7168 1611.4316)" class="st54 st55 st56">MS</text>
	<text id="label11" bar:growlevel="0" transform="matrix(1 0 0 1 1342.7422 1551.0508)" class="st54 st55 st56">LSV</text>
	<text id="label16" bar:growlevel="0" transform="matrix(1 0 0 1 1622.8496 1422.4785)" class="st54 st55 st56">CPu</text>
	<text id="label17" bar:growlevel="0" transform="matrix(1 0 0 1 1356.752 1242.7773)" class="st54 st55 st56">LV</text>
	<text id="label14" bar:growlevel="0" transform="matrix(1 0 0 1 1170.7168 1317.9473)" class="st54 st55 st56">SHi</text>
	<text id="label15" bar:growlevel="0" transform="matrix(1 0 0 1 1261.4697 1276.2012)" class="st54 st55 st56">LSD</text>
	<text id="label92" bar:growlevel="0" transform="matrix(1 0 0 1 1292.4014 2032.1543)" class="st54 st55 st56">acer</text>
	<text id="Unlabeled-2239-1989" bar:growlevel="0" transform="matrix(1 0 0 1 1566.21 2062.9688)" class="st54 st55 st56">ICj</text>
	<text id="Unlabeled-1953-1562" bar:growlevel="0" transform="matrix(1 0 0 1 1273.71 1707.4688)" class="st54 st55 st56">LPO </text>
	<text id="label26" bar:growlevel="0" transform="matrix(1 0 0 1 2129.6094 1583.3945)" class="st54 st55 st56">GI</text>
	<text id="label78" bar:growlevel="0" transform="matrix(1 0 0 1 1198.4873 1164.6309)" class="st54 st55 st56">IG</text>
	<text id="label79" bar:growlevel="0" transform="matrix(1 0 0 1 1485.5762 2079.6328)" class="st54 st55 st56">ICj</text>
	<text id="label74" bar:growlevel="0" transform="matrix(1 0 0 1 1916.0117 2046.2871)" class="st54 st55 st56">lo</text>
	<text id="label75" bar:growlevel="0" transform="matrix(1 0 0 1 1309.4111 1850.0547)" class="st54 st55 st56">SIB</text>
	<text id="label77" bar:growlevel="0" transform="matrix(1 0 0 1 1415.5801 1211.1191)" class="st54 st55 st56">E</text>
	<text id="label70" bar:growlevel="0" transform="matrix(1 0 0 1 1429.8594 1015.0059)" class="st54 st55 st56">cg</text>
	<text id="label71" bar:growlevel="0" transform="matrix(1 0 0 1 1813.6045 1153.4355)" class="st54 st55 st56">ec</text>
	<text id="label72" bar:growlevel="0" transform="matrix(1 0 0 1 1410.7813 1742.8457)" class="st54 st55 st56">aca</text>
	<text id="label73" bar:growlevel="0" transform="matrix(1 0 0 1 1541.7617 2022.252)" class="st54 st55 st56">mfb</text>
	<text id="text5826" bar:growlevel="0" transform="matrix(1 0 0 1 1947.6377 1937.6016)" class="st54 st55 st56">Pir-2</text>
	<text id="text5828" bar:growlevel="0" transform="matrix(1 0 0 1 1949.1816 1901.9922)" class="st54 st55 st56">Pir-3</text>
	<text id="text5888" bar:growlevel="0" transform="matrix(1 0 0 1 1646.1816 2128.3887)" class="st54 st55 st56">Tu-1</text>
	<text id="text5886" bar:growlevel="0" transform="matrix(1 0 0 1 1608.0576 2078.3301)" class="st54 st55 st56">Tu-3</text>
	<text id="text5884" bar:growlevel="0" transform="matrix(1 0 0 1 1617.1543 2106.7188)" class="st54 st55 st56">Tu-2</text>
	<text id="text5830" bar:growlevel="0" transform="matrix(1 0 0 1 1952.8408 1969.7402)" class="st54 st55 st56">Pir-1</text>
	<text id="Unlabeled-1798-1754" bar:growlevel="0" transform="matrix(1 0 0 1 1406.0117 2021.5703)" class="st54 st55 st56">grey</text>
	<text id="label23" bar:growlevel="0" transform="matrix(1 0 0 1 2053.3789 1780.8613)" class="st54 st55 st56">AIV</text>
	<text id="label22" bar:growlevel="0" transform="matrix(1 0 0 1 1900.5313 1806.9941)" class="st54 st55 st56">DEn</text>
	<text id="label27" bar:growlevel="0" transform="matrix(1 0 0 1 1945.4697 1682.6523)" class="st54 st55 st56">VCl</text>
	<text id="Unlabeled-1799-1159" bar:growlevel="0" transform="matrix(1 0 0 1 1170.7197 1149.543)" class="st54 st55 st56">azp</text>
	<text id="label25" bar:growlevel="0" transform="matrix(1 0 0 1 2108.3398 1654.418)" class="st54 st55 st56">DI</text>
	<text id="label24" bar:growlevel="0" transform="matrix(1 0 0 1 2080.7715 1722.3496)" class="st54 st55 st56">AID</text>
	<text id="label29" bar:growlevel="0" transform="matrix(1 0 0 1 2043.752 1181.1152)" class="st54 st55 st56">S1ULp</text>
	<text id="label28" bar:growlevel="0" transform="matrix(1 0 0 1 2136.9922 1439.1895)" class="st54 st55 st56">S2</text>
	<text id="Unlabeled-2413-1965" bar:growlevel="0" transform="matrix(1 0 0 1 1694.0117 2037.7676)" class="st54 st55 st56">ICj</text>
	<text id="text3039" bar:growlevel="0" transform="matrix(1 0 0 1 1178.0117 1238.3359)" class="st54 st55 st56">cc</text>
</g>
</svg>
