<?xml version="1.0" encoding="utf-8"?>
<!-- Generator: Adobe Illustrator 24.1.1, SVG Export Plug-In . SVG Version: 6.00 Build 0)  -->
<svg version="1.1"
	 id="body" inkscape:version="0.47pre4 r22446" sodipodi:docname="194_pretrace_v1.svg" xmlns:bar="http://www.3dbar.org" xmlns:cc="http://creativecommons.org/ns#" xmlns:dc="http://purl.org/dc/elements/1.1/" xmlns:inkscape="http://www.inkscape.org/namespaces/inkscape" xmlns:rdf="http://www.w3.org/1999/02/22-rdf-syntax-ns#" xmlns:sodipodi="http://sodipodi.sourceforge.net/DTD/sodipodi-0.dtd" xmlns:svg="http://www.w3.org/2000/svg"
	 xmlns="http://www.w3.org/2000/svg" xmlns:xlink="http://www.w3.org/1999/xlink" x="0px" y="0px" viewBox="0 0 3024 3024"
	 style="enable-background:new 0 0 3024 3024;" xml:space="preserve">
<style type="text/css">
	.st0{fill:none;stroke:#00AEEF;stroke-width:0.5;stroke-miterlimit:10.433;}
	.st1{fill:#FF000C;}
	.st2{fill:#59E9B5;}
	.st3{fill:#00CF69;}
	.st4{fill:#6B3BC3;}
	.st5{fill:#8553C7;}
	.st6{fill:#915FE5;}
	.st7{fill:#59FFC2;}
	.st8{fill:#FFB2BA;}
	.st9{fill:#CE00D4;}
	.st10{fill:#4CAECF;}
	.st11{fill:#00FF51;}
	.st12{fill:#59FF90;}
	.st13{fill:#B2FFCC;}
	.st14{fill:#2CDF84;}
	.st15{fill:#85FFC1;}
	.st16{fill:#5523C7;}
	.st17{fill:#B2FFC2;}
	.st18{fill:#00F448;}
	.st19{fill:#00FF34;}
	.st20{fill:#8EE9A9;}
	.st21{fill:#47FF7C;}
	.st22{fill:#4CA6C7;}
	.st23{fill:#19C3FF;}
	.st24{fill:#6C0BF2;}
	.st25{fill:#FFB2C8;}
	.st26{fill:#2CDFD0;}
	.st27{fill:#85FFF5;}
	.st28{fill:#B2FFFA;}
	.st29{fill:#00C2FF;}
	.st30{fill:#00A9DF;}
	.st31{fill:#00FF7B;}
	.st32{fill:#866BCB;}
	.st33{fill:#7923FF;}
	.st34{fill:#00E2FF;}
	.st35{fill:#00EFC8;}
	.st36{fill:#00FFD5;}
	.st37{fill:#00E996;}
	.st38{fill:#B2FFE3;}
	.st39{fill:#00FFA4;}
	.st40{fill:#00FFF3;}
	.st41{fill:#00FFAF;}
	.st42{fill:#00FFAD;}
	.st43{fill:#B88EF2;}
	.st44{fill:#650BE1;}
	.st45{fill:#66BFDF;}
	.st46{fill:#5B17C3;}
	.st47{fill:#00EF7A;}
	.st48{fill:#00D7F2;}
	.st49{fill:#8600FF;}
	.st50{fill:#6100FA;}
	.st51{fill:#85DFD7;}
	.st52{fill:#00FFE3;}
	.st53{fill:#66B0C7;}
	.st54{fill:#00EFD6;}
	.st55{fill:#59FFF2;}
	.st56{fill:#E900A1;}
	.st57{fill:#00FF1C;}
	.st58{fill:#C49AFA;}
	.st59{fill:#232323;enable-background:new    ;}
	.st60{font-family:'TimesNewRomanPSMT';}
	.st61{font-size:27px;}
</style>
<sodipodi:namedview  bordercolor="#666666" borderopacity="1" gridtolerance="10" guidetolerance="10" id="namedview235" inkscape:current-layer="content" inkscape:cx="569.07099" inkscape:cy="486.86953" inkscape:pageopacity="0" inkscape:pageshadow="2" inkscape:window-height="948" inkscape:window-maximized="1" inkscape:window-width="1272" inkscape:window-x="0" inkscape:window-y="25" inkscape:zoom="19.918457" objecttolerance="10" pagecolor="#ffffff" showgrid="false">
	</sodipodi:namedview>
<desc  id="desc5">This was produced by version 4.2 of GNU libplot, a free library for exporting 2-D vector graphics.</desc>
<defs>
	
		<inkscape:perspective  id="perspective58649" inkscape:persp3d-origin="504 : 336 : 1" inkscape:vp_x="0 : 504 : 1" inkscape:vp_y="0 : 1000 : 0" inkscape:vp_z="1008 : 504 : 1" sodipodi:type="inkscape:persp3d">
		</inkscape:perspective>
	<bar:data  content="-14.16" name="coronalcoord"></bar:data>
	
		<bar:data  content="{&apos;ReferenceHeight&apos;: 900, &apos;ReferenceWidth&apos;: 1200, &apos;imageSize&apos;: (1200, 900)}" name="rendererConf">
		</bar:data>
	
		<bar:data  content="{&apos;DumpEachStepSVG&apos;: False, &apos;DumpEachStepPNG&apos;: False, &apos;GrowDefaultBoundaryColor&apos;: 200, &apos;CacheLevel&apos;: 5, &apos;NewPathIdTemplate&apos;: &apos;structure%d_%s_%s&apos;, &apos;PoTraceConf&apos;: {&apos;potrace_accuracy_parameter&apos;: &apos;0.001&apos;, &apos;potrace_width_string&apos;: &apos;1200pt&apos;, &apos;potrace_svg_resolution_string&apos;: &apos;300x300&apos;, &apos;potrace_height_string&apos;: &apos;900pt&apos;}, &apos;DetectUnlabelled&apos;: True, &apos;DumpVBrain&apos;: False, &apos;DumpWrongSeed&apos;: True, &apos;DumpDirectory&apos;: &apos;.&apos;, &apos;MinFiterTimesApplication&apos;: 3, &apos;RegionAlreadyTraced&apos;: 100, &apos;UnlabelledTreshold&apos;: 500}" name="tracingConf">
		</bar:data>
	<bar:data  content="0.0176211454,-9.5150660793,0.0176211454,-1.5355884426" name="transformationmatrix"></bar:data>
</defs>
<g id="content">
	<polyline id="polyline741" class="st0" points="1387.9,1561.6 1387.5,1563.1 1387.1,1564.7 1386.6,1566.2 1386.1,1567.7 
		1385.6,1569.1 1385,1570.5 1383.8,1573.2 1382.4,1575.7 1380.9,1578.1 1379.4,1580.4 1377.7,1582.6 1376,1584.6 1374.2,1586.4 
		1372.4,1588.2 1370.4,1589.8 1368.5,1591.4 1366.5,1592.8 1364.5,1594.1 1362.5,1595.3 1360.5,1596.4 1358.5,1597.4 1356.6,1598.3 
		1354.6,1599.2 1352.7,1599.9 1350.9,1600.5 1349.1,1601.1 1347.4,1601.6 1345.8,1602.1 1344.3,1602.4 1342.8,1602.7 1341.5,1603 
		1340.3,1603.1 1339.2,1603.2 1338.3,1603.3 1337.5,1603.3 1328.9,1603.6 	"/>
	<path class="st1" d="M1979.9,1261.9c-5.4-22.3-12.3-39.6-26.1-64.7c-35.9-65.7-65.6-99.7-134-153.4c-50.5-39.7-81.7-53.9-99.1-45.2
		c-8.8,4.5-11.1,10.9-8.5,24.6c4.1,22.5,15.6,48.8,49.6,113.4c14.5,27.7,40.1,79,40.1,80.5c0,0.7-0.5,1.4-1.3,1.4
		c-1.3,0-8-12-34.3-61.2c-7.8-14.6-19.8-36.7-26.6-49.1c-6.8-12.4-15.6-28.8-19.3-36.4c-17.5-35.2-32.8-57.8-52.7-78.6
		c-18.4-19.2-36-32.1-59.8-43.8c-43.4-21.4-96.3-31.9-186.3-37.4c-33.3-1.9-62.6-2.9-91.4-2.9v592.5c4.4,0,8.6-0.2,14-0.6
		c20.6-1.4,49.9-4.2,66.1-6.3c21.7-2.7,31.5-3.2,31.5-1.6c0,0.9-2.2,1.8-6.9,3c-9.5,2.2-28.9,8.9-35.6,12.2
		c-3.1,1.5-10.6,6.2-16.8,10.4c-15.6,10.6-15.2,10.5-25.9,8.6c-6.1-1-16.2-1.6-26.4-1.6V2070c0.2-0.1,0.3-0.2,0.5-0.2
		c0.5,0,1.7,1.3,2.6,2.7c3.9,6.7,18.5,12.8,43.9,18.4c7.6,1.7,15.3,3.3,17.2,3.6c3.8,0.7,4.1,1.5,1.5,4.8
		c-5.2,6.7,2.5,14.3,12.1,11.9c5.5-1.4,7.2-3.9,6.4-9.4l-0.5-4.1l4.3,0.7c7.5,1.2,36.8,0.6,47.9-0.9c21.4-3.1,40-8.9,49.9-15.5
		c3.2-2.3,8-5,10.4-6.3c10-5,31.6-9.3,73.8-14.5c30.2-3.7,43.2-5.8,58.3-9.5c39.1-9.5,75.6-25.7,115.6-51.3
		c17.3-11,26.9-18.9,46.1-37.7c30.5-29.9,56.5-60.8,67.9-80.8c25.6-44.6,43-111.2,45.6-173.9c1.5-37.5-5.6-83.8-18.2-117.6
		c-5.3-14.5-9.4-22.6-20.7-40.4c-17.7-28.4-23.8-36.4-44-57c-29.8-30.5-52.6-46.5-70.8-49.8c-4.6-0.8-5.9-1.5-9.5-5.1
		c-10.4-10.3-28.7-22.9-42-28.8c-7.1-3.2-7.3-3.2-20.3-3.2c-7.2,0-16.8,0.4-21.3,0.8c-9.7,0.9-10.9-0.2-4.8-4.4
		c8.2-5.7,14.7-15.4,17.1-25.6c1.4-6.3,0.7-17.6-1.7-25.3c-2.1-6.4-2.3-9-1.1-9c0.4,0,5.4,4.6,11.1,10.2
		c34.4,34.4,68.5,50.7,99.4,47.5c26-2.7,39-13.3,41.9-34.4c1.9-13.1-1.3-32.3-8.8-54.8c-4.2-12.3-13.3-35.5-19.6-49.5
		c-2.8-6.2-5-12-5-12.8c0-4.8,3.4,0.5,12.6,19.7c14.4,30.1,18.5,39.5,26.6,60.6c15.6,41.2,26.4,57.4,43.8,66.2
		c12.3,6.2,29.4,8.6,38.5,5.3c19.6-7,39.5-36.8,46.5-69.8c1.3-5.9,1.6-11.7,1.6-26.1C1984.9,1285.2,1984.4,1280.4,1979.9,1261.9z"/>
	<path id="structure104_label92_IOBe" bar:growlevel="0" bar:type="" class="st2" d="M1346.5,1932.9c-8.3,2.9-8.5,3.4-7.6,16.8
		l0.8,11.5l5.8,2.1c16.9,6.1,34.2-2.6,34.2-17.3c0-3.6-0.5-4.5-3.9-8c-2.3-2.3-5.7-4.4-8.3-5.3
		C1361.8,1930.7,1352.6,1930.8,1346.5,1932.9z"/>
	<path id="structure105_label93_mlf" bar:growlevel="0" bar:type="" class="st3" d="M1337.6,1742.2c-2.3,0.9-4.3,7-3.6,10.7
		c0.3,1.3,1.1,5.6,1.8,9.5c5.6,29.2,7.9,104.2,3.8,117.5c-2.3,7-2.8,16.2-1.1,16.2c0.7,0,1.8-1.2,2.4-2.6c0.5-1.4,2.1-3.6,3.3-4.8
		c2-1.9,3-2.1,11.3-2.1c15.8,0,19.1,3.3,21.7,21.6c2.4,17.5,3.4,31,2.8,37.2c-0.4,3.3-0.7,9.2-0.8,13c-0.1,6.1,0.2,7.1,2.1,9.2
		c2.7,2.9,7.1,3.1,17.2,0.9c3.7-0.8,10.7-1.4,15.6-1.5h8.7v-2.3c0-5.7-16.3-87.7-21.2-106.8c-9.1-35.6-24.8-81.4-33-97
		c-3.7-6.9-10.5-14.3-15.3-16.6C1348.9,1742,1340.5,1740.9,1337.6,1742.2z"/>
	<path id="structure106_label94_RVRG" bar:growlevel="0" bar:type="" class="st4" d="M1692.9,1784.5c0,0.5,0.8,3.5,1.9,6.6
		c1.5,4.6,1.7,6.1,0.9,8.8c-3.2,10.7-14.9,14.4-29.3,9.4c-3.4-1.3-6.8-2.3-7.4-2.3c-2.3,0-1.1,3,3.7,8.8
		c6.6,8.2,17.5,24.5,21.2,31.9c1.7,3.4,3.7,6.1,4.4,6.1c0.6,0,3.7-1.9,6.7-4.1c11.9-8.9,20.1-11.6,35.1-11.5
		c8.5,0.1,10.5-0.2,10.5-1.2c0-2.4-9.3-19.3-14.4-26.3c-6.4-8.6-17.8-19.3-25.3-23.8C1695,1783.5,1692.9,1782.9,1692.9,1784.5z"/>
	<path class="st5" d="M1929.2,1655.8c-0.9,0-1.3,5.4-1.7,23.1c-1,46.1-9.5,102-20.6,136.2c-4.8,14.9-12.5,26.4-20.1,29.8
		c-7.2,3.3-20.3,1.5-21.6-2.9c-0.4-1-0.4-3.3,0-5.2l0.5-3.4l-5.8-0.5c-11.7-1.1-33.9-7.8-46.1-13.9c-19.4-9.7-33.8-25-40.9-43.3
		c-1.5-3.9-6.4-21.8-10.8-39.8c-13.3-54-22.6-79.3-37.5-102.3c-6-9.3-17.8-21.6-25.5-26.6c-7.7-5.1-19.1-10.7-25.3-12.5
		c-21.5-6.2-57.9-6.7-103.5-1.3c-11.6,1.3-21.8,2-33.8,2c-15.7-0.1-20.4-0.4-42.5-3.7c-6.5-0.9-4.7,1.6,3.6,5
		c11.4,4.7,23.8,11.8,27.4,15.7c3.1,3.4,3.2,3.8,2.8,9.5c-0.2,3.7-1.1,7.5-2.3,10.1c-1.1,2.3-2,4.5-2,4.9c0,0.5,2.7,2.3,6.1,3.9
		c28.4,14,104.9,63.6,154.1,99.9c10.5,7.7,92.9,72.5,107.5,84.6c4.5,3.6,10.4,8.9,13.2,11.6l5.2,5l8.7,0.1c7.7,0,9.5,0.4,14,2.4
		c8.8,4.1,13,12.2,12.2,24c-0.4,7-1.9,9.8-7.1,13.5c-2.8,1.9-3.7,2.1-11.3,1.5l-8.2-0.5v5.8c0,5.5,0.1,5.9,2.1,5.9
		c5,0,6.6,5,4.5,14.3c-4.2,19.7-24.3,47.7-49.6,69.3c-20.3,17.4-44.5,34.6-57.2,41c-12.6,6.2-17.7,5.2-16.6-3.2
		c0.6-4.8,0.4-5-3.8-3.4c-1.4,0.5-5.3,1-8.8,0.9c-11.8,0-25.7-5.8-49-20.3c-18.2-11.4-24.4-14.4-34.9-17.2
		c-9.8-2.6-14.8-4.9-18.4-8.3c-6.2-5.8-2.7-9.6,29.9-34.2c8.6-6.5,20.4-15.6,26.1-20.1c17-13.4,31.9-22.9,42.8-27.3
		c9.2-3.7,9.8-4.1,10.1-6.7c0.4-3.6-3.4-14.9-8.8-25.8c-10.5-21.8-34.9-53.4-56.4-73c-28-25.6-141.8-121.9-144-121.9
		c-0.6,0-1.2,0.9-1.2,2.1c0,1.2-0.6,4.2-1.4,6.8c-1.2,4-2.7,6-9.3,12.6c-4.2,4.2-12.5,14-18.2,21.7c-13.4,18-18,21.9-27.5,23
		c-3.3,0.4-5.2,1.3-7.9,4c-7.1,6.6-15.1,9.8-29.2,11.7c-15.5,2.2-30.1-0.5-45.3-8.2c-12.1-6.1-14.2-9.2-14.2-20.8
		c0.1-10.9,1.4-23,3.2-27.7c0.8-2.3,1.7-4.7,1.9-5.5c0.4-1.2-0.5-1.3-6.8-1.3v64.6c0.6,0,1.2,0,1.8,0c16.3,0.3,17.8,0.4,21.4,2.3
		c6,3.2,11.4,9.5,16.3,19c8.4,16.4,21.2,53.7,30.8,89c4.1,15.5,16.7,76,21.6,104.3l2.1,11.8l3.2,1c5,1.5,9,5,15.8,13.8
		c8,10.4,11.3,12.4,21,12.4c3.8,0,10.1-0.6,14-1.4c10.4-2,23.9-1.8,30.8,0.4c10.8,3.4,21.1,12.1,26,22.2c7.5,15.4,1,23.2-23.5,28.4
		c-4.4,0.9-9.2,1.7-10.5,1.7c-4.2,0-2.8,2.1,5.2,7.2c9,5.8,17.3,14,18,17.9c0.7,3.3,1.2,3.3,7.5,0.9c11.5-4.3,29.8-7.7,72.2-12.9
		c43.7-5.5,65.9-10.4,94.8-21.3c31.2-11.7,73.4-35.3,97.3-54.4c10.3-8.2,40.7-38.3,54.1-53.6c22.6-25.7,33.2-40.6,43.1-60.3
		c18.4-36.7,30.1-77.5,36.6-127.7C1932.9,1718.2,1932.5,1655.8,1929.2,1655.8z M1460.1,1745.3c-2.3,4.6-5.5,6.8-10.5,7.4
		c-5.5,0.6-8.4-0.2-10.2-2.9c-4-6.2-2.8-15.2,2.8-20.2c3.5-3.1,6.2-3.4,10.6-1.5c4.1,1.7,6.7,4.9,7.9,9.6
		C1461.8,1741.4,1461.7,1742.3,1460.1,1745.3z"/>
	<path class="st6" d="M1379.3,1559.4c-4-1.4-7.8-2.6-8.5-2.6c-0.8,0-2.5,2-3.9,4.4c-1.3,2.4-3.8,5.5-5.4,6.7
		c-4.1,3.2-15.3,7.5-23.9,9.2c-2.7,0.6-5,0.8-7.4,0.8v25.1c13.1,0,17.9-1.1,28.8-6.3c11.3-5.4,19.7-13.6,24.7-23.9
		c1.9-3.9,3.2-7.8,3.1-8.9C1386.5,1562.5,1384.8,1561.4,1379.3,1559.4z"/>
	<path id="structure10_label9_IOA" bar:growlevel="0" bar:type="" class="st7" d="M1485,1993c-1.3,0.2-6,1-10.6,1.8
		c-5,0.8-10.3,1.2-13.1,0.8l-4.7-0.5l-4.7,11.5c-2.6,6.3-4.7,12.2-4.7,13c0,2.4,7,6.7,27.9,16.6c18.5,8.8,20,9.4,25.4,9.4
		c12.1-0.1,28.3-4.9,33.5-10c3.4-3.5,3.4-3.5,3.1-9.5c-0.8-14.6-13.9-28.3-30.5-32.2C1501.2,1992.6,1490.5,1992.1,1485,1993z"/>
	<path id="structure111_Unlabeled-2240-1105_Unlabeled" bar:growlevel="0" bar:type="" class="st8" d="M1720.7,998.5
		c-8.8,4.5-11.1,10.9-8.5,24.6c4.1,22.5,15.6,48.8,49.6,113.4c14.5,27.7,40.1,79,40.1,80.5c0,0.7-0.6,1.4-1.4,1.4
		c-1.8,0-1.8,0.1,5.9,15.9c6.4,13,6.8,13.7,9,13.2c2.3-0.4,2.8,0.4,12.6,21c14.4,30.1,18.5,39.5,26.5,60.6
		c12.5,33,20.1,46.8,31.8,57.7c14.7,13.8,39.9,19.4,54.5,12.2c18-8.8,36.1-37.8,42.6-68c1.3-5.9,1.6-11.7,1.6-26.1
		c0-19.6-0.5-24.4-5-42.9c-5.4-22.3-12.3-39.6-26.1-64.7c-35.9-65.7-65.6-99.7-134-153.5C1769.3,1004,1738.1,989.8,1720.7,998.5z
		 M1810.3,1102.5c8.7,4.4,15.8,9.9,25.3,19.8c14.3,14.8,24.8,30.7,37.7,57c9.6,19.8,16.6,36.4,22.1,52.6c6.1,18.2,7.6,26.2,7.6,39.2
		c0,12.1-1.1,15.4-6.1,18.4c-8.5,5.2-21.1-1.2-38.4-19.5c-16.4-17.3-31.9-40-47.2-68.4c-23.7-44.4-31.7-66-31-83.5
		c0.4-9.4,2.3-14,7.1-17.4c2.7-1.9,3.9-2.1,9.8-1.8C1802.8,1099.2,1805.2,1099.9,1810.3,1102.5z"/>
	<path class="st8" d="M1613.9,1161.5c-4.1-8.3-13.6-18.2-23-24.3c-23.3-14.9-68.9-28.6-123.9-37.3c-14-2.2-57.7-2.2-94.9,0.2
		c-16.2,1-29.1,1.5-41.9,1.5v52.7c15.9,0,31.7-0.8,57.6-2.5c47.9-3.2,57.5-2.5,112.9,8c10.4,2,28.8,5.4,41,7.6
		c20.9,3.9,29.1,5.8,63.7,14.9c8,2.2,14.8,3.7,15.1,3.3C1621.6,1184.6,1617,1167.6,1613.9,1161.5z"/>
	<path class="st8" d="M1648.2,1307.4c-1.7-3.4-20.3-24.1-29.7-33.3c-12.2-11.8-15.5-12.7-34.2-9.4c-7.4,1.4-18.1,3.2-23.8,4.1
		c-10,1.6-49.7,5.9-77.8,8.2c-21.1,1.7-62.3,1.3-110.1-1.4l-42.5-2.3v80.2c16.4-0.2,28.7,1.4,65.6,7.6c38.5,6.6,46.8,7.6,60.8,7.6
		c18.7,0,37.2-3.4,67.1-12.3c9.2-2.8,21.9-6.6,28.3-8.5c14-4.1,33.2-8,58.1-11.6c14.7-2.2,19.5-3.2,23.9-5.2
		C1646.5,1325.1,1652.4,1315.4,1648.2,1307.4z"/>
	<path class="st8" d="M1696.2,1364.1c-3.8,6.4-18.9,14.3-45.6,23.9c-29.3,10.5-44.1,16.7-64.4,27.1c-20.9,10.6-38.3,17.9-55.3,23.2
		c-49.8,15.3-91.7,19.3-200.7,19.3v43.8c4.4,0,8.6-0.2,14-0.6c20.6-1.4,49.9-4.2,66.1-6.3c7.7-1,17.9-2.1,22.8-2.3
		c7.7-0.5,8.7-0.4,8.7,0.9c0,1.8-0.3,1.9,15.8-0.7c7.5-1.2,18.2-2.9,23.9-3.7c5.7-0.8,11.7-2.2,13.4-2.9c1.7-0.7,4.6-1.6,6.5-1.8
		c2-0.3,3.5-0.9,3.5-1.3c0-0.5,0.5-0.8,1.2-0.8c2.4,0,23.7-11.1,33.2-17.4c14-9.3,24.2-14.8,39.2-21.7c32.5-14.8,70.9-28.3,95-32.9
		c4.4-0.9,5.1-1.3,5.1-3.1c0-1.4,1.2-2.9,3.6-4.6c11.2-7.7,18-20.9,18-34.9C1700.1,1360.8,1698.8,1359.7,1696.2,1364.1z"/>
	<path class="st8" d="M1360.1,1636.9c-8.6,0-11-0.9-13.1-4.4c-2.5-4.3-9.8-7-16.9-7v18.7c0.2,0,0.3,0,0.5,0c2.4,0,3.2,0.5,4.4,2.7
		c2.1,4,1.8,11.8-0.5,14.8c-1.3,1.6-2.8,2.4-4.4,2.4v12.8h0.2c7.7,0,7.9,0,11.3-3.1c11.8-10.9,16.1-16.7,20.1-27.4
		c1.5-3.9,2.7-7.7,2.7-8.3C1364.4,1637.3,1362.9,1636.9,1360.1,1636.9z"/>
	<path id="structure117_Unlabeled-2320-2104_Unlabeled" bar:growlevel="0" bar:type="" class="st8" d="M1792.3,1896.6
		c-21.4,5.2-52.5,37.7-57.2,59.9c-1.5,7.2,2.2,16.1,6.7,16.1c4,0,64.9-59,69.1-66.9c0.6-1.1,0.5-2.7-0.1-4.8
		C1808.9,1895.5,1803,1894,1792.3,1896.6z"/>
	<path class="st9" d="M1929.2,1655.8c-0.9,0-1.3,5.4-1.7,23.1c-1,46.1-9.5,102-20.6,136.2c-4.8,14.9-12.5,26.4-20.1,29.8
		c-7.2,3.3-20.3,1.5-21.6-2.9c-0.4-1-0.4-3.3,0-5.2l0.5-3.4l-5.8-0.5c-11.7-1.1-33.9-7.8-46.1-13.9c-19.4-9.7-33.8-25-40.9-43.3
		c-1.5-3.9-6.4-21.8-10.8-39.8c-13.3-54-22.6-79.3-37.5-102.3c-6-9.3-17.8-21.6-25.5-26.6c-7.7-5.1-19.1-10.7-25.3-12.5
		c-21.5-6.2-57.9-6.7-103.5-1.3c-11.6,1.3-21.8,2-33.8,2c-15.7-0.1-20.4-0.4-42.5-3.7c-6.5-0.9-4.7,1.6,3.6,5
		c11.4,4.7,23.8,11.8,27.4,15.7c3.1,3.4,3.2,3.8,2.8,9.5c-0.2,3.7-1.1,7.5-2.3,10.1c-1.1,2.3-2,4.5-2,4.9c0,0.5,2.7,2.3,6.1,3.9
		c28.4,14,104.9,63.6,154.1,99.9c10.5,7.7,92.9,72.5,107.5,84.6c4.5,3.6,10.4,8.9,13.2,11.6l5.2,5l8.7,0.1c7.7,0,9.5,0.4,14,2.4
		c8.8,4.1,13,12.2,12.2,24c-0.4,7-1.9,9.8-7.1,13.5c-2.8,1.9-3.7,2.1-11.3,1.5l-8.2-0.5v5.8c0,5.5,0.1,5.9,2.1,5.9
		c5,0,6.6,5,4.5,14.3c-4.2,19.7-24.3,47.7-49.6,69.3c-20.3,17.4-44.5,34.6-57.2,41c-12.6,6.2-17.7,5.2-16.6-3.2
		c0.6-4.8,0.4-5-3.8-3.4c-1.4,0.5-5.3,1-8.8,0.9c-11.8,0-25.7-5.8-49-20.3c-18.2-11.4-24.4-14.4-34.9-17.2
		c-9.8-2.6-14.8-4.9-18.4-8.3c-6.2-5.8-2.7-9.6,29.9-34.2c8.6-6.5,20.4-15.6,26.1-20.1c17-13.4,31.9-22.9,42.8-27.3
		c9.2-3.7,9.8-4.1,10.1-6.7c0.4-3.6-3.4-14.9-8.8-25.8c-10.5-21.8-34.9-53.4-56.4-73c-28-25.6-141.8-121.9-144-121.9
		c-0.6,0-1.2,0.9-1.2,2.1c0,1.2-0.6,4.2-1.4,6.8c-1.2,4-2.7,6-9.3,12.6c-4.2,4.2-12.5,14-18.2,21.7c-13.4,18-18,21.9-27.5,23
		c-3.3,0.4-5.2,1.3-7.9,4c-7.1,6.6-15.1,9.8-29.2,11.7c-15.5,2.2-30.1-0.5-45.3-8.2c-12.1-6.1-14.2-9.2-14.2-20.8
		c0.1-10.9,1.4-23,3.2-27.7c0.8-2.3,1.7-4.7,1.9-5.5c0.4-1.2-0.5-1.3-6.8-1.3v64.6c0.6,0,1.2,0,1.8,0c16.3,0.3,17.8,0.4,21.4,2.3
		c6,3.2,11.4,9.5,16.3,19c8.4,16.4,21.2,53.7,30.8,89c4.1,15.5,16.7,76,21.6,104.3l2.1,11.8l3.2,1c5,1.5,9,5,15.8,13.8
		c8,10.4,11.3,12.4,21,12.4c3.8,0,10.1-0.6,14-1.4c10.4-2,23.9-1.8,30.8,0.4c10.8,3.4,21.1,12.1,26,22.2c7.5,15.4,1,23.2-23.5,28.4
		c-4.4,0.9-9.2,1.7-10.5,1.7c-4.2,0-2.8,2.1,5.2,7.2c9,5.8,17.3,14,18,17.9c0.7,3.3,1.2,3.3,7.5,0.9c11.5-4.3,29.8-7.7,72.2-12.9
		c43.7-5.5,65.9-10.4,94.8-21.3c31.2-11.7,73.4-35.3,97.3-54.4c10.3-8.2,40.7-38.3,54.1-53.6c22.6-25.7,33.2-40.6,43.1-60.3
		c18.4-36.7,30.1-77.5,36.6-127.7C1932.9,1718.2,1932.5,1655.8,1929.2,1655.8z M1460.1,1745.3c-2.3,4.6-5.5,6.8-10.5,7.4
		c-5.5,0.6-8.4-0.2-10.2-2.9c-4-6.2-2.8-15.2,2.8-20.2c3.5-3.1,6.2-3.4,10.6-1.5c4.1,1.7,6.7,4.9,7.9,9.6
		C1461.8,1741.4,1461.7,1742.3,1460.1,1745.3z"/>
	<path id="structure13_label12_CVL" bar:growlevel="0" bar:type="" class="st10" d="M1716.2,1839.4c-8.7,2.3-17.2,6.8-24.6,13.3
		l-3.3,2.9l3.1,7.9c1.7,4.3,3.6,10,4.2,12.5c0.6,2.6,1.3,4.8,1.4,4.8c0.3,0,5.8-1.8,12.3-4c13.7-4.6,27.8-7.7,35.5-7.7
		c2.9,0,8.5-0.3,12.6-0.6l7.5-0.5l-0.5-3.7c-1-6.6-4-12.1-9-16.7c-7-6.5-12.8-8.4-25.6-8.7C1724.1,1838.7,1718,1838.9,1716.2,1839.4
		z"/>
	<path id="structure14_label13_CuR" bar:growlevel="0" bar:type="" class="st11" d="M1584.4,1515.5c-9.3,0.9-20.2,3.2-26.4,5.5
		c-6.1,2.3-12.2,8.2-13.6,13c-3,10.5,1.5,24.3,9.5,29.3c2.9,1.8,3.9,1.9,24.4,1.5c18.1-0.4,22.4-0.7,28.4-2.3
		c13.2-3.6,20.3-9.1,26.2-20.3c3.7-7.1,4-10.2,1.4-14.9C1628.8,1517.4,1609.8,1513,1584.4,1515.5z"/>
	<path id="structure15_label14_Cu" bar:growlevel="0" bar:type="" class="st12" d="M1618.7,1448.4c-3.3,3.2-4.6,8.2-5.9,22.6
		c-1,11.5-2.1,15.7-4.9,18.8l-2,2.4l-23.9,0.2c-26.5,0.3-31.9,0.9-45.8,5.4c-5.3,1.7-10.8,3.2-12.3,3.2c-3.6,0-8.9-4-14.8-11.2
		c-3.7-4.5-5.4-5.9-7.1-5.8c-3.4,0.1-8.5,2.2-8.7,3.6c-0.2,0.7,2.2,4.3,5.1,8c10.9,13.5,18.7,33.7,17.7,45.5
		c-0.4,6.6-3.7,14-7.6,18.1c-4.1,4.1-3.8,4.9,1.9,4.1c5.9-0.9,11.3-0.9,27.9,0.1c14.6,0.8,14.8,0.7,11-4.3
		c-6.2-8.2-8.1-19.8-4.2-27.2c4-7.7,11.1-11.7,27.6-15.3c8.6-1.8,30.8-2.6,38.8-1.3c13,2,23,8,24.4,14.5c0.3,1.5,1,2.7,1.5,2.7
		c0.5,0,2.8-2.7,5-5.9c6.7-10,14.4-17.5,23.5-22.9c12.9-7.6,18.9-13.7,18.9-18.8c0-3.6-4.6-7.3-15.7-12.7
		c-5.9-2.9-14.3-6.4-18.5-7.7c-8.2-2.6-10.3-3.9-18-11.2C1625.8,1446.9,1621.7,1445.5,1618.7,1448.4z"/>
	<path id="structure17_label16_ECu" bar:growlevel="0" bar:type="" class="st13" d="M1716.6,1409.1c-5,1.3-10.4,4.9-12.2,8.2
		c-4,7.5-0.9,19.1,6.9,25.9c5,4.5,13.6,8.6,17.6,8.6c1.7,0,7.4-1.3,12.6-2.9c5.2-1.5,14.2-3.5,20.1-4.3c6.9-1,10.5-1.9,10.5-2.6
		c0-1.9-12.7-12.9-22.5-19.4c-11-7.5-24.5-14.2-27.8-14.1C1720.5,1408.5,1718.2,1408.7,1716.6,1409.1z"/>
	<path id="structure18_label17_Gr" bar:growlevel="0" bar:type="" class="st14" d="M1486.7,1487.9c-0.2,0.3-6.7,1.3-14.3,2.3
		c-18.4,2.5-29.7,4.8-43.6,8.6c-19.6,5.4-28.9,9.5-44.5,19.9c-7.7,5.1-14.3,9.4-14.8,9.4c-1.3,0-0.8,1.6,1.6,5.1
		c2.2,3.2,2.3,3.9,1.8,10.4l-0.5,7.1l7.4,3.4c13.4,6.3,35.6,10.7,62.3,12.6c25.4,1.7,54.3,0.6,59.8-2.3c4-2,10.6-10,12.2-14.6
		c1.8-5.1,1.9-17,0.2-23.2c-3.2-11.8-10.4-25.2-18.7-34.2C1491.5,1488,1488.2,1486.3,1486.7,1487.9z"/>
	<path id="structure19_label18_Mx" bar:growlevel="0" bar:type="" class="st15" d="M1677.6,1495.8c-2.3,2-7.1,5.4-10.9,7.6
		c-3.8,2.3-8.7,5.6-11,7.6c-5.8,5.1-15.8,18.7-21.3,28.8c-2.5,4.7-6.2,10.3-8.3,12.3c-12.1,12.4-34.4,15.8-81.8,12.4
		c-23.9-1.7-30.8-1.5-41.3,0.9c-12.6,2.9-53.4,3.1-76,0.4c-19.6-2.3-39.2-7.2-49.4-12.3c-4.9-2.4-7.1-2.2-6.7,0.8
		c0.4,2.3,5.1,4.2,34.8,13.4c38.8,12.1,71.8,20.4,95.9,24.2c18.4,3,43.7,3.3,64.3,1c45.7-5.1,75.3-5.6,97.1-1.4
		c3.8,0.7,7.6,1.3,8.5,1.3c2.7,0,1.6-2.2-3.1-5.8c-8.2-6.4-14.2-15.2-16-23.6c-2.5-11.1,5.6-28.7,26.6-57.4c4.2-5.8,7.6-10.7,7.6-11
		c0-0.7-3-2.9-4-2.9C1682.1,1492.1,1679.8,1493.7,1677.6,1495.8z"/>
	<path id="structure1_label0_IRt" bar:growlevel="0" bar:type="" class="st16" d="M1518.7,1640c-1.4,1.3-4.1,2.7-5.8,3.2
		c-1.7,0.6-3.6,1.4-4.1,1.8c-2.2,1.7-19.4,2-27.4,0.4c-9.3-1.7-8.9-1.7-8.9-0.2c0,0.7,3.8,4.2,8.3,7.9c20.3,16,79.6,66.1,122.4,103
		c12.8,11.1,23.6,20.1,24,20.1c0.4,0,1-2.1,1.2-4.6c0.8-8.2,5.9-12.5,15.8-13.1c13.6-1,27.5,4.9,39.8,16.5c4.4,4.1,8.5,7.6,9.2,7.6
		c2.5,0,17.7,10.9,24,17.2c7.7,7.8,17.3,21.9,22.1,32.5c3.3,7.2,3.6,7.6,8.4,9.6c9,4,15.8,12.8,17.1,22.1l0.5,4l6.4,0.4
		c3.5,0.3,11.3,0.7,17.5,1l11,0.5v-5.8c0-7.8,2.2-14.4,6-18.7c2.6-2.9,3.1-4,2.4-5.1c-1.9-3.1-21.9-19.5-67.2-55.3
		c-59.1-46.7-79.3-61.5-125.2-92c-43.6-28.9-88.3-55.5-93.1-55.4C1522.1,1637.9,1520.3,1638.9,1518.7,1640z"/>
	<path class="st17" d="M1697.4,1355.4c-2.7-12.1-8.4-23.6-19.4-39c-8.6-12-19.2-28.6-24.8-39.1c-7.9-15-18.4-23.1-37.7-29.6
		c-20.3-6.8-30.9-7.3-71.4-3.2c-66.3,6.6-74.8,6.9-124.4,5.5c-25.8-0.7-40.5-1.6-52.2-3c-11.3-1.4-24.3-2.1-37.4-2.1v28.4l42.5,2.3
		c47.8,2.7,89,3.2,110.1,1.4c28.2-2.3,67.9-6.6,77.8-8.2c5.7-1,16.4-2.8,23.8-4.1c18.7-3.3,22-2.4,34.2,9.4
		c9.4,9.2,28,29.9,29.7,33.3c4.1,8-1.7,17.7-14.3,23.7c-4.4,2.1-9.3,3.1-23.9,5.2c-24.8,3.6-44,7.5-58.1,11.6
		c-6.4,1.9-19.1,5.7-28.3,8.5c-30,8.9-48.4,12.3-67.1,12.3c-14,0-22.2-1-60.8-7.6c-36.9-6.2-49.2-7.8-65.6-7.6v104.2
		c109,0,150.9-4.1,200.7-19.3c17.1-5.3,34.5-12.6,55.3-23.2c20.3-10.4,35.1-16.6,64.4-27.1c27.4-9.9,41.7-17.4,46-24.4
		C1698.4,1360.7,1698.5,1360.1,1697.4,1355.4z"/>
	<path class="st18" d="M1637.8,1238.8l-7.4-21.6l-9,0.6c-12.2,0.8-53.2,5.4-77.5,8.7c-33,4.5-50.2,4.5-76.5-0.3
		c-14.3-2.6-34.1-2.9-76.5-1.3c-20.3,0.8-47.6,1.4-60.8,1.4v17.7c11.3,0,22.7,0.7,33.8,2.1c18,2.2,50.3,3.4,90.9,3.5
		c26.3,0.1,41.7-1,100.1-6.8c22.2-2.3,25.4-2.3,34.2-1.3c18.3,2.1,35.1,7.7,47.3,16.1c7.2,4.9,8.7,5.6,8.7,3.7
		C1645.2,1260.9,1641.8,1250.7,1637.8,1238.8z"/>
	<path class="st19" d="M1625.7,1201.3l-4.4-14.5l-4.5-1.3c-28.3-8-55.3-14.6-72-17.5c-5.9-1.1-22.5-4.1-36.9-6.8
		c-64.1-12.1-71.1-12.7-120.1-9.4c-25.2,1.7-41.5,2.5-57.6,2.5v72c11.2,0,23.1-0.4,44.1-1.2c63.6-2.3,75.3-2.2,92.7,0.8
		c28.2,4.8,43.3,4.9,77.4,0.3c30.3-4.1,60.8-7.6,79.9-8.9c2.6-0.2,5-0.6,5.3-0.9C1629.9,1216,1628.2,1209.2,1625.7,1201.3z"/>
	<path class="st20" d="M1793.3,1267.6c-2.6-5-9-17.3-14.2-27.2c-5.2-9.9-14.4-27.5-20.5-39.1c-21.3-40.8-43.8-80-59.9-104.6
		c-33.6-51.1-79.2-86-139.3-106.6c-55.5-19-150.8-32.1-229.1-32.3v102.6c14.5,0,29.1-1.2,50.4-3.6c27.6-3.2,33.6-3.5,54-3.5
		c24.3-0.1,30.1,0.5,55.3,5.4c63.9,12.4,114.2,34,131.9,56.7c7.7,9.8,16.9,26.6,40.4,73.3c26.1,51.9,33,64.5,46.4,84.6
		c19.3,28.9,40,49.2,60.2,58.9c16.2,7.7,32.8,7.7,38,0.1C1813.2,1322.4,1807.6,1295.6,1793.3,1267.6z"/>
	<path class="st21" d="M1793.3,1267.6c-2.6-5-9-17.3-14.2-27.2c-5.2-9.9-14.4-27.5-20.5-39.1c-21.3-40.8-43.8-80-59.9-104.6
		c-33.6-51.1-79.2-86-139.3-106.6c-55.5-19-150.8-32.1-229.1-32.3v102.6c14.5,0,29.1-1.2,50.4-3.6c27.6-3.2,33.6-3.5,54-3.5
		c24.3-0.1,30.1,0.5,55.3,5.4c63.9,12.4,114.2,34,131.9,56.7c7.7,9.8,16.9,26.6,40.4,73.3c26.1,51.9,33,64.5,46.4,84.6
		c19.3,28.9,40,49.2,60.2,58.9c16.2,7.7,32.8,7.7,38,0.1C1813.2,1322.4,1807.6,1295.6,1793.3,1267.6z"/>
	<path id="structure25_label24_PM" bar:growlevel="0" bar:type="" class="st22" d="M1787.5,1100.7c-4.9,3.3-6.8,7.9-7.1,17.4
		c-0.7,17.6,7.3,39.2,31,83.5c15.2,28.4,30.8,51.1,47.2,68.4c17.4,18.4,30,24.8,38.4,19.5c5-3.1,6.1-6.3,6.1-18.5
		c0-13-1.5-21-7.6-39.1c-5.4-16.3-12.4-32.9-22.1-52.7c-12.9-26.3-23.4-42.1-37.7-57c-14.9-15.5-26.8-22.7-38.3-23.4
		C1791.3,1098.6,1790.2,1098.8,1787.5,1100.7z"/>
	<path class="st23" d="M1929.2,1655.8c-0.9,0-1.3,5.4-1.7,23.1c-1,46.1-9.5,102-20.6,136.2c-4.8,14.9-12.5,26.4-20.1,29.8
		c-7.2,3.3-20.3,1.5-21.6-2.9c-0.4-1-0.4-3.3,0-5.2l0.5-3.4l-5.8-0.5c-11.7-1.1-33.9-7.8-46.1-13.9c-19.4-9.7-33.8-25-40.9-43.3
		c-1.5-3.9-6.4-21.8-10.8-39.8c-13.3-54-22.6-79.3-37.5-102.3c-6-9.3-17.8-21.6-25.5-26.6c-7.7-5.1-19.1-10.7-25.3-12.5
		c-21.5-6.2-57.9-6.7-103.5-1.3c-11.6,1.3-21.8,2-33.8,2c-15.7-0.1-20.4-0.4-42.5-3.7c-6.5-0.9-4.7,1.6,3.6,5
		c11.4,4.7,23.8,11.8,27.4,15.7c3.1,3.4,3.2,3.8,2.8,9.5c-0.2,3.7-1.1,7.5-2.3,10.1c-1.1,2.3-2,4.5-2,4.9c0,0.5,2.7,2.3,6.1,3.9
		c28.4,14,104.9,63.6,154.1,99.9c10.5,7.7,92.9,72.5,107.5,84.6c4.5,3.6,10.4,8.9,13.2,11.6l5.2,5l8.7,0.1c7.7,0,9.5,0.4,14,2.4
		c8.8,4.1,13,12.2,12.2,24c-0.4,7-1.9,9.8-7.1,13.5c-2.8,1.9-3.7,2.1-11.3,1.5l-8.2-0.5v5.8c0,5.5,0.1,5.9,2.1,5.9
		c5,0,6.6,5,4.5,14.3c-4.2,19.7-24.3,47.7-49.6,69.3c-20.3,17.4-44.5,34.6-57.2,41c-12.6,6.2-17.7,5.2-16.6-3.2
		c0.6-4.8,0.4-5-3.8-3.4c-1.4,0.5-5.3,1-8.8,0.9c-11.8,0-25.7-5.8-49-20.3c-18.2-11.4-24.4-14.4-34.9-17.2
		c-9.8-2.6-14.8-4.9-18.4-8.3c-6.2-5.8-2.7-9.6,29.9-34.2c8.6-6.5,20.4-15.6,26.1-20.1c17-13.4,31.9-22.9,42.8-27.3
		c9.2-3.7,9.8-4.1,10.1-6.7c0.4-3.6-3.4-14.9-8.8-25.8c-10.5-21.8-34.9-53.4-56.4-73c-28-25.6-141.8-121.9-144-121.9
		c-0.6,0-1.2,0.9-1.2,2.1c0,1.2-0.6,4.2-1.4,6.8c-1.2,4-2.7,6-9.3,12.6c-4.2,4.2-12.5,14-18.2,21.7c-13.4,18-18,21.9-27.5,23
		c-3.3,0.4-5.2,1.3-7.9,4c-7.1,6.6-15.1,9.8-29.2,11.7c-15.5,2.2-30.1-0.5-45.3-8.2c-12.1-6.1-14.2-9.2-14.2-20.8
		c0.1-10.9,1.4-23,3.2-27.7c0.8-2.3,1.7-4.7,1.9-5.5c0.4-1.2-0.5-1.3-6.8-1.3v64.6c0.6,0,1.2,0,1.8,0c16.3,0.3,17.8,0.4,21.4,2.3
		c6,3.2,11.4,9.5,16.3,19c8.4,16.4,21.2,53.7,30.8,89c4.1,15.5,16.7,76,21.6,104.3l2.1,11.8l3.2,1c5,1.5,9,5,15.8,13.8
		c8,10.4,11.3,12.4,21,12.4c3.8,0,10.1-0.6,14-1.4c10.4-2,23.9-1.8,30.8,0.4c10.8,3.4,21.1,12.1,26,22.2c7.5,15.4,1,23.2-23.5,28.4
		c-4.4,0.9-9.2,1.7-10.5,1.7c-4.2,0-2.8,2.1,5.2,7.2c9,5.8,17.3,14,18,17.9c0.7,3.3,1.2,3.3,7.5,0.9c11.5-4.3,29.8-7.7,72.2-12.9
		c43.7-5.5,65.9-10.4,94.8-21.3c31.2-11.7,73.4-35.3,97.3-54.4c10.3-8.2,40.7-38.3,54.1-53.6c22.6-25.7,33.2-40.6,43.1-60.3
		c18.4-36.7,30.1-77.5,36.6-127.7C1932.9,1718.2,1932.5,1655.8,1929.2,1655.8z M1460.1,1745.3c-2.3,4.6-5.5,6.8-10.5,7.4
		c-5.5,0.6-8.4-0.2-10.2-2.9c-4-6.2-2.8-15.2,2.8-20.2c3.5-3.1,6.2-3.4,10.6-1.5c4.1,1.7,6.7,4.9,7.9,9.6
		C1461.8,1741.4,1461.7,1742.3,1460.1,1745.3z"/>
	<path class="st23" d="M1929.2,1655.8c-0.9,0-1.3,5.4-1.7,23.1c-1,46.1-9.5,102-20.6,136.2c-4.8,14.9-12.5,26.4-20.1,29.8
		c-7.2,3.3-20.3,1.5-21.6-2.9c-0.4-1-0.4-3.3,0-5.2l0.5-3.4l-5.8-0.5c-11.7-1.1-33.9-7.8-46.1-13.9c-19.4-9.7-33.8-25-40.9-43.3
		c-1.5-3.9-6.4-21.8-10.8-39.8c-13.3-54-22.6-79.3-37.5-102.3c-6-9.3-17.8-21.6-25.5-26.6c-7.7-5.1-19.1-10.7-25.3-12.5
		c-21.5-6.2-57.9-6.7-103.5-1.3c-11.6,1.3-21.8,2-33.8,2c-15.7-0.1-20.4-0.4-42.5-3.7c-6.5-0.9-4.7,1.6,3.6,5
		c11.4,4.7,23.8,11.8,27.4,15.7c3.1,3.4,3.2,3.8,2.8,9.5c-0.2,3.7-1.1,7.5-2.3,10.1c-1.1,2.3-2,4.5-2,4.9c0,0.5,2.7,2.3,6.1,3.9
		c28.4,14,104.9,63.6,154.1,99.9c10.5,7.7,92.9,72.5,107.5,84.6c4.5,3.6,10.4,8.9,13.2,11.6l5.2,5l8.7,0.1c7.7,0,9.5,0.4,14,2.4
		c8.8,4.1,13,12.2,12.2,24c-0.4,7-1.9,9.8-7.1,13.5c-2.8,1.9-3.7,2.1-11.3,1.5l-8.2-0.5v5.8c0,5.5,0.1,5.9,2.1,5.9
		c5,0,6.6,5,4.5,14.3c-4.2,19.7-24.3,47.7-49.6,69.3c-20.3,17.4-44.5,34.6-57.2,41c-12.6,6.2-17.7,5.2-16.6-3.2
		c0.6-4.8,0.4-5-3.8-3.4c-1.4,0.5-5.3,1-8.8,0.9c-11.8,0-25.7-5.8-49-20.3c-18.2-11.4-24.4-14.4-34.9-17.2
		c-9.8-2.6-14.8-4.9-18.4-8.3c-6.2-5.8-2.7-9.6,29.9-34.2c8.6-6.5,20.4-15.6,26.1-20.1c17-13.4,31.9-22.9,42.8-27.3
		c9.2-3.7,9.8-4.1,10.1-6.7c0.4-3.6-3.4-14.9-8.8-25.8c-10.5-21.8-34.9-53.4-56.4-73c-28-25.6-141.8-121.9-144-121.9
		c-0.6,0-1.2,0.9-1.2,2.1c0,1.2-0.6,4.2-1.4,6.8c-1.2,4-2.7,6-9.3,12.6c-4.2,4.2-12.5,14-18.2,21.7c-13.4,18-18,21.9-27.5,23
		c-3.3,0.4-5.2,1.3-7.9,4c-7.1,6.6-15.1,9.8-29.2,11.7c-15.5,2.2-30.1-0.5-45.3-8.2c-12.1-6.1-14.2-9.2-14.2-20.8
		c0.1-10.9,1.4-23,3.2-27.7c0.8-2.3,1.7-4.7,1.9-5.5c0.4-1.2-0.5-1.3-6.8-1.3v64.6c0.6,0,1.2,0,1.8,0c16.3,0.3,17.8,0.4,21.4,2.3
		c6,3.2,11.4,9.5,16.3,19c8.4,16.4,21.2,53.7,30.8,89c4.1,15.5,16.7,76,21.6,104.3l2.1,11.8l3.2,1c5,1.5,9,5,15.8,13.8
		c8,10.4,11.3,12.4,21,12.4c3.8,0,10.1-0.6,14-1.4c10.4-2,23.9-1.8,30.8,0.4c10.8,3.4,21.1,12.1,26,22.2c7.5,15.4,1,23.2-23.5,28.4
		c-4.4,0.9-9.2,1.7-10.5,1.7c-4.2,0-2.8,2.1,5.2,7.2c9,5.8,17.3,14,18,17.9c0.7,3.3,1.2,3.3,7.5,0.9c11.5-4.3,29.8-7.7,72.2-12.9
		c43.7-5.5,65.9-10.4,94.8-21.3c31.2-11.7,73.4-35.3,97.3-54.4c10.3-8.2,40.7-38.3,54.1-53.6c22.6-25.7,33.2-40.6,43.1-60.3
		c18.4-36.7,30.1-77.5,36.6-127.7C1932.9,1718.2,1932.5,1655.8,1929.2,1655.8z M1460.1,1745.3c-2.3,4.6-5.5,6.8-10.5,7.4
		c-5.5,0.6-8.4-0.2-10.2-2.9c-4-6.2-2.8-15.2,2.8-20.2c3.5-3.1,6.2-3.4,10.6-1.5c4.1,1.7,6.7,4.9,7.9,9.6
		C1461.8,1741.4,1461.7,1742.3,1460.1,1745.3z"/>
	<path class="st21" d="M1793.3,1267.6c-2.6-5-9-17.3-14.2-27.2c-5.2-9.9-14.4-27.5-20.5-39.1c-21.3-40.8-43.8-80-59.9-104.6
		c-33.6-51.1-79.2-86-139.3-106.6c-55.5-19-150.8-32.1-229.1-32.3v102.6c14.5,0,29.1-1.2,50.4-3.6c27.6-3.2,33.6-3.5,54-3.5
		c24.3-0.1,30.1,0.5,55.3,5.4c63.9,12.4,114.2,34,131.9,56.7c7.7,9.8,16.9,26.6,40.4,73.3c26.1,51.9,33,64.5,46.4,84.6
		c19.3,28.9,40,49.2,60.2,58.9c16.2,7.7,32.8,7.7,38,0.1C1813.2,1322.4,1807.6,1295.6,1793.3,1267.6z"/>
	<path class="st9" d="M1929.2,1655.8c-0.9,0-1.3,5.4-1.7,23.1c-1,46.1-9.5,102-20.6,136.2c-4.8,14.9-12.5,26.4-20.1,29.8
		c-7.2,3.3-20.3,1.5-21.6-2.9c-0.4-1-0.4-3.3,0-5.2l0.5-3.4l-5.8-0.5c-11.7-1.1-33.9-7.8-46.1-13.9c-19.4-9.7-33.8-25-40.9-43.3
		c-1.5-3.9-6.4-21.8-10.8-39.8c-13.3-54-22.6-79.3-37.5-102.3c-6-9.3-17.8-21.6-25.5-26.6c-7.7-5.1-19.1-10.7-25.3-12.5
		c-21.5-6.2-57.9-6.7-103.5-1.3c-11.6,1.3-21.8,2-33.8,2c-15.7-0.1-20.4-0.4-42.5-3.7c-6.5-0.9-4.7,1.6,3.6,5
		c11.4,4.7,23.8,11.8,27.4,15.7c3.1,3.4,3.2,3.8,2.8,9.5c-0.2,3.7-1.1,7.5-2.3,10.1c-1.1,2.3-2,4.5-2,4.9c0,0.5,2.7,2.3,6.1,3.9
		c28.4,14,104.9,63.6,154.1,99.9c10.5,7.7,92.9,72.5,107.5,84.6c4.5,3.6,10.4,8.9,13.2,11.6l5.2,5l8.7,0.1c7.7,0,9.5,0.4,14,2.4
		c8.8,4.1,13,12.2,12.2,24c-0.4,7-1.9,9.8-7.1,13.5c-2.8,1.9-3.7,2.1-11.3,1.5l-8.2-0.5v5.8c0,5.5,0.1,5.9,2.1,5.9
		c5,0,6.6,5,4.5,14.3c-4.2,19.7-24.3,47.7-49.6,69.3c-20.3,17.4-44.5,34.6-57.2,41c-12.6,6.2-17.7,5.2-16.6-3.2
		c0.6-4.8,0.4-5-3.8-3.4c-1.4,0.5-5.3,1-8.8,0.9c-11.8,0-25.7-5.8-49-20.3c-18.2-11.4-24.4-14.4-34.9-17.2
		c-9.8-2.6-14.8-4.9-18.4-8.3c-6.2-5.8-2.7-9.6,29.9-34.2c8.6-6.5,20.4-15.6,26.1-20.1c17-13.4,31.9-22.9,42.8-27.3
		c9.2-3.7,9.8-4.1,10.1-6.7c0.4-3.6-3.4-14.9-8.8-25.8c-10.5-21.8-34.9-53.4-56.4-73c-28-25.6-141.8-121.9-144-121.9
		c-0.6,0-1.2,0.9-1.2,2.1c0,1.2-0.6,4.2-1.4,6.8c-1.2,4-2.7,6-9.3,12.6c-4.2,4.2-12.5,14-18.2,21.7c-13.4,18-18,21.9-27.5,23
		c-3.3,0.4-5.2,1.3-7.9,4c-7.1,6.6-15.1,9.8-29.2,11.7c-15.5,2.2-30.1-0.5-45.3-8.2c-12.1-6.1-14.2-9.2-14.2-20.8
		c0.1-10.9,1.4-23,3.2-27.7c0.8-2.3,1.7-4.7,1.9-5.5c0.4-1.2-0.5-1.3-6.8-1.3v64.6c0.6,0,1.2,0,1.8,0c16.3,0.3,17.8,0.4,21.4,2.3
		c6,3.2,11.4,9.5,16.3,19c8.4,16.4,21.2,53.7,30.8,89c4.1,15.5,16.7,76,21.6,104.3l2.1,11.8l3.2,1c5,1.5,9,5,15.8,13.8
		c8,10.4,11.3,12.4,21,12.4c3.8,0,10.1-0.6,14-1.4c10.4-2,23.9-1.8,30.8,0.4c10.8,3.4,21.1,12.1,26,22.2c7.5,15.4,1,23.2-23.5,28.4
		c-4.4,0.9-9.2,1.7-10.5,1.7c-4.2,0-2.8,2.1,5.2,7.2c9,5.8,17.3,14,18,17.9c0.7,3.3,1.2,3.3,7.5,0.9c11.5-4.3,29.8-7.7,72.2-12.9
		c43.7-5.5,65.9-10.4,94.8-21.3c31.2-11.7,73.4-35.3,97.3-54.4c10.3-8.2,40.7-38.3,54.1-53.6c22.6-25.7,33.2-40.6,43.1-60.3
		c18.4-36.7,30.1-77.5,36.6-127.7C1932.9,1718.2,1932.5,1655.8,1929.2,1655.8z M1460.1,1745.3c-2.3,4.6-5.5,6.8-10.5,7.4
		c-5.5,0.6-8.4-0.2-10.2-2.9c-4-6.2-2.8-15.2,2.8-20.2c3.5-3.1,6.2-3.4,10.6-1.5c4.1,1.7,6.7,4.9,7.9,9.6
		C1461.8,1741.4,1461.7,1742.3,1460.1,1745.3z"/>
	<path class="st24" d="M1846.3,1339.4c-4.8-27.4-27.2-83-50.2-124.8c-4.7-8.5-17.6-32.3-28.5-52.8c-11-20.5-24.1-44.8-29.3-54
		c-5-9.2-12.7-23.6-16.9-31.9c-21.1-41.7-35.6-63.4-57.3-85.1c-31.5-31.6-67-49.9-120.6-62.4c-33.9-7.8-69.3-12-135-15.9
		c-9.1-0.5-46.2-1-78.3-1.3v45.9c20.8,0.3,46,1,56.7,1.8c47.8,3.6,89.8,9.5,128.4,18c80.7,17.8,138.2,53.7,179,112.1
		c20.7,29.5,59,97.9,99.8,178.6c13,25.6,18.9,48.5,15.8,60c-1,3.6-4.5,8.3-7.3,9.7c-3.5,1.9-10.5,2.6-16.2,1.7
		c-26.4-4.2-56.4-30.2-82.8-71.5c-11.4-17.8-21.2-36.1-41.8-77.4c-37.2-74.9-41.8-81.1-70.7-97.2c-27.9-15.4-73.3-29.1-121.5-36.5
		c-10.8-1.7-16.7-2.1-33.8-2.1c-20.3,0.1-29.3,0.7-69.8,5.5c-9.2,1-22.6,1.6-36,1.6v40.3c12.8,0,25.7-0.5,41.8-1.5
		c37.3-2.3,80.9-2.3,94.9-0.2c55,8.7,100.6,22.4,123.9,37.4c8.8,5.8,18.5,15.8,22.6,23.3c1.7,3.2,4.2,10.7,6,17.7
		c3.7,14.7,15.7,52.7,23.2,73.8c6.2,17.4,11.1,27.3,21,42.9c6.6,10.4,20.5,30.4,21.9,31.4c0.4,0.3,2.6,3.1,5,6.3
		c6.8,9,25.9,28.2,36.4,36.6c16.4,13.2,32.2,22.1,48.2,26.9c7.5,2.3,9.3,2.5,23.4,2.5c12.1,0,16.6-0.3,21.1-1.6
		c14.6-4.1,23-11.5,26.6-23.8C1848.1,1366.9,1848.1,1350,1846.3,1339.4z"/>
	<path class="st25" d="M1336.5,1654.3c0-6.8-1.9-10.2-5.8-10.2c-0.2,0-0.4,0-0.5,0.1v19.9
		C1333.5,1664.1,1336.5,1660.3,1336.5,1654.3z"/>
	<path id="structure37_text3064_SolVL" bar:growlevel="0" bar:type="" class="st26" d="M1501.2,1609.3c0,0.5,0.5,1.6,1.3,2.3
		c0.7,0.8,1.6,2.5,1.9,3.9c0.9,3.5-4,8.4-9.7,9.8c-5.1,1.3-5.4,2.8-1.5,9.5c4.1,7,11.1,11,16.6,9.4c4.3-1.2,9.7-4.2,11.8-6.6
		c7.2-7.8,8.5-21.2,2.7-26.7c-1.9-1.8-3.2-2.1-12.6-2.3C1504.5,1608.4,1501.2,1608.5,1501.2,1609.3z"/>
	<path id="structure38_text3068_SolV" bar:growlevel="0" bar:type="" class="st27" d="M1452,1618.1c-1.4,1.5-4,3.5-5.5,4.6
		c-1.6,1-3,2.3-3,3c0,0.7,3.3,3,7.5,5.1c4,2.1,8.8,5.1,10.5,6.7c4.1,3.6,5.7,4.4,12.5,6.2c12.2,3.1,28,3.6,28,0.8
		c0-0.6-0.8-1.3-1.8-1.7c-2.8-0.9-7.9-7.5-9.4-12.2c-1.4-4.1-1.7-4.4-4.4-4.4c-4.1,0-10.9-2.2-21.2-6.8c-4.9-2.3-9.3-4.1-9.7-4.1
		S1453.6,1616.6,1452,1618.1z"/>
	<path id="structure3_label2_Sp5C" bar:growlevel="0" bar:type="" class="st28" d="M1726.4,1481.3c-2.2,0.4-7.7,2.4-12.2,4.4
		c-10.7,4.9-20.2,8.1-23.4,8.1c-2,0-3.3,1.1-6.7,5.1c-7.4,9.4-22,31.9-26.7,41.6c-4.6,9.2-4.7,9.4-4.7,17.5c0,7.2,0.3,8.8,2.6,13.3
		c4.9,9.6,16.6,19.5,36.5,30.9c10.4,5.8,18.8,12.9,25.7,21.5c19.2,23.9,31,53.7,46.3,117.3c3.4,14.2,7,28.2,7.9,30.9
		c7.7,22,23.8,39,46.4,49c7.8,3.4,25,8.8,26.5,8.3c1.8-0.7,7.1-12.5,9.2-20.6c4.4-17,6.4-39.9,6.4-73.1c0-61.1-5-104.4-18-153.9
		c-7.2-28-17.5-57.4-24.8-71.5c-2.8-5.3-3.8-6.3-10.5-10.5c-21.2-13.2-41.7-19.3-64.8-19.1
		C1735.5,1480.5,1728.5,1480.8,1726.4,1481.3z"/>
	<path id="structure41_label37_12N" bar:growlevel="0" bar:type="" class="st29" d="M1364.1,1640.2c-0.7,1.4-2,4.6-2.8,7.2
		c-2.8,8.4-8.5,15.9-19.6,26.2c-6.7,6.1-8.7,14.6-8.8,35.5v12.3l2.8,3.2c3.8,4.2,8.5,6.9,20.3,11.4c9.3,3.5,10.4,3.8,21.2,4.1
		c25.5,0.9,43.5-6.3,49.3-19.7c4.6-10.7,5.9-45.6,2.3-57.5c-4.4-14.3-12.3-21.9-25.2-24.2c-2.9-0.5-12.7-1-21.8-1h-16.4
		L1364.1,1640.2z"/>
	<path class="st30" d="M1371.7,1534c-1.6-3.2-4.1-4-16.3-5.5c-9.1-1.2-17.4-1.7-25.2-1.7v50.5c8,0,17.4-2.4,26.1-6.7
		c5.3-2.7,7.4-4.3,9.6-7.7C1371.6,1554.3,1374.5,1539.5,1371.7,1534z"/>
	<path id="structure43_text3072_12GH" bar:growlevel="0" bar:type="" class="st31" d="M1442,1729.9c-6,6.5-6.1,18.7-0.1,21.8
		c3.4,1.8,7.6,1.6,12.1-0.4c4.9-2.3,6.7-4.9,6.7-10.3c0-8.2-4.9-13.2-12.7-13.2C1444.9,1727.8,1443.4,1728.3,1442,1729.9z"/>
	<path id="structure44_text3074_CeCv" bar:growlevel="0" bar:type="" class="st32" d="M1413.9,1640.5c0,0.5,2.1,2.9,4.6,5.1
		c10.6,9.6,14.9,27.5,12.6,52.5c-0.6,6.2-1.7,13.7-2.5,16.6c-2.7,10.6-2.9,9.8,1.9,9.3c7.7-0.9,12.5-5.1,26.2-23.2
		c6.8-8.9,14.7-18.4,17.6-21c6.4-5.6,9.8-11.8,9.8-17.7c0-5.2-1.2-6.8-10.4-14.3l-7.7-6.1l-20.4-0.5c-11.3-0.4-23-0.9-26-1.2
		C1415.3,1639.5,1413.9,1639.6,1413.9,1640.5z"/>
	<path class="st33" d="M1929.2,1655.8c-0.9,0-1.3,5.4-1.7,23.1c-1,46.1-9.5,102-20.6,136.2c-4.8,14.9-12.5,26.4-20.1,29.8
		c-7.2,3.3-20.3,1.5-21.6-2.9c-0.4-1-0.4-3.3,0-5.2l0.5-3.4l-5.8-0.5c-11.7-1.1-33.9-7.8-46.1-13.9c-19.4-9.7-33.8-25-40.9-43.3
		c-1.5-3.9-6.4-21.8-10.8-39.8c-13.3-54-22.6-79.3-37.5-102.3c-6-9.3-17.8-21.6-25.5-26.6c-7.7-5.1-19.1-10.7-25.3-12.5
		c-21.5-6.2-57.9-6.7-103.5-1.3c-11.6,1.3-21.8,2-33.8,2c-15.7-0.1-20.4-0.4-42.5-3.7c-6.5-0.9-4.7,1.6,3.6,5
		c11.4,4.7,23.8,11.8,27.4,15.7c3.1,3.4,3.2,3.8,2.8,9.5c-0.2,3.7-1.1,7.5-2.3,10.1c-1.1,2.3-2,4.5-2,4.9c0,0.5,2.7,2.3,6.1,3.9
		c28.4,14,104.9,63.6,154.1,99.9c10.5,7.7,92.9,72.5,107.5,84.6c4.5,3.6,10.4,8.9,13.2,11.6l5.2,5l8.7,0.1c7.7,0,9.5,0.4,14,2.4
		c8.8,4.1,13,12.2,12.2,24c-0.4,7-1.9,9.8-7.1,13.5c-2.8,1.9-3.7,2.1-11.3,1.5l-8.2-0.5v5.8c0,5.5,0.1,5.9,2.1,5.9
		c5,0,6.6,5,4.5,14.3c-4.2,19.7-24.3,47.7-49.6,69.3c-20.3,17.4-44.5,34.6-57.2,41c-12.6,6.2-17.7,5.2-16.6-3.2
		c0.6-4.8,0.4-5-3.8-3.4c-1.4,0.5-5.3,1-8.8,0.9c-11.8,0-25.7-5.8-49-20.3c-18.2-11.4-24.4-14.4-34.9-17.2
		c-9.8-2.6-14.8-4.9-18.4-8.3c-6.2-5.8-2.7-9.6,29.9-34.2c8.6-6.5,20.4-15.6,26.1-20.1c17-13.4,31.9-22.9,42.8-27.3
		c9.2-3.7,9.8-4.1,10.1-6.7c0.4-3.6-3.4-14.9-8.8-25.8c-10.5-21.8-34.9-53.4-56.4-73c-28-25.6-141.8-121.9-144-121.9
		c-0.6,0-1.2,0.9-1.2,2.1c0,1.2-0.6,4.2-1.4,6.8c-1.2,4-2.7,6-9.3,12.6c-4.2,4.2-12.5,14-18.2,21.7c-13.4,18-18,21.9-27.5,23
		c-3.3,0.4-5.2,1.3-7.9,4c-7.1,6.6-15.1,9.8-29.2,11.7c-15.5,2.2-30.1-0.5-45.3-8.2c-12.1-6.1-14.2-9.2-14.2-20.8
		c0.1-10.9,1.4-23,3.2-27.7c0.8-2.3,1.7-4.7,1.9-5.5c0.4-1.2-0.5-1.3-6.8-1.3v64.6c0.6,0,1.2,0,1.8,0c16.3,0.3,17.8,0.4,21.4,2.3
		c6,3.2,11.4,9.5,16.3,19c8.4,16.4,21.2,53.7,30.8,89c4.1,15.5,16.7,76,21.6,104.3l2.1,11.8l3.2,1c5,1.5,9,5,15.8,13.8
		c8,10.4,11.3,12.4,21,12.4c3.8,0,10.1-0.6,14-1.4c10.4-2,23.9-1.8,30.8,0.4c10.8,3.4,21.1,12.1,26,22.2c7.5,15.4,1,23.2-23.5,28.4
		c-4.4,0.9-9.2,1.7-10.5,1.7c-4.2,0-2.8,2.1,5.2,7.2c9,5.8,17.3,14,18,17.9c0.7,3.3,1.2,3.3,7.5,0.9c11.5-4.3,29.8-7.7,72.2-12.9
		c43.7-5.5,65.9-10.4,94.8-21.3c31.2-11.7,73.4-35.3,97.3-54.4c10.3-8.2,40.7-38.3,54.1-53.6c22.6-25.7,33.2-40.6,43.1-60.3
		c18.4-36.7,30.1-77.5,36.6-127.7C1932.9,1718.2,1932.5,1655.8,1929.2,1655.8z M1460.1,1745.3c-2.3,4.6-5.5,6.8-10.5,7.4
		c-5.5,0.6-8.4-0.2-10.2-2.9c-4-6.2-2.8-15.2,2.8-20.2c3.5-3.1,6.2-3.4,10.6-1.5c4.1,1.7,6.7,4.9,7.9,9.6
		C1461.8,1741.4,1461.7,1742.3,1460.1,1745.3z"/>
	<path class="st34" d="M1341.4,1978.4c-2.3-11.2-3.2-25.5-4-59.4c-0.5-18.4-1.3-43.8-1.8-56.7c-1.4-34.4-2.4-107.1-1.5-113.8
		c0.4-3.2,0.6-5.8,0.5-5.9c-0.2-0.2-2.2-0.6-4.3-0.8v246.1C1344.6,1987.9,1343.6,1988.7,1341.4,1978.4z"/>
	<path class="st35" d="M1342,2006c-1.8-3.4-6.9-5.4-11.8-5.6v42.4c3.1,0,8.5-8.7,11.3-18.4C1343.2,2018.2,1343.5,2008.9,1342,2006z"
		/>
	<path id="structure52_label47_ROb" bar:growlevel="0" bar:type="" class="st36" d="M1334.2,1790.5c0.3,14.3,0.9,39.5,1.4,56.1
		c0.5,16.6,0.8,31.5,0.8,33c0,2,0.5,3,1.3,3c2.4,0,3.4-11.1,3.4-37.8c-0.1-26.1-0.8-39.4-3.4-65.5c-1.2-11.2-1.8-14.6-2.8-14.6
		C1333.9,1764.7,1333.8,1768.8,1334.2,1790.5z"/>
	<path id="structure53_label48_IOK" bar:growlevel="0" bar:type="" class="st37" d="M1348.2,1887.1c-7.6,1.9-9.9,9.5-9.9,32.2
		c0,17.4,0.2,17.9,4.2,15c2.3-1.6,11.3-4.1,15.1-4.1c4.8,0,11.9,2.6,16.2,5.8c2.3,1.7,4.5,3.2,5,3.2c1.3,0,1.1-7.6-0.9-22.9
		c-2.9-22.3-3.7-24.7-10.3-28.1C1364.6,1886.6,1352.7,1885.9,1348.2,1887.1z"/>
	<path id="structure54_label49_IOB" bar:growlevel="0" bar:type="" class="st38" d="M1400,1968.6c-4,0.7-7.3,1.4-7.5,1.6
		c-0.4,0.4-3,14.9-3,16.8c0,1.1,1.8,1.9,6.6,3.1c10.7,2.5,29.3,13,42.3,23.9c2.9,2.4,5.8,4.4,6.6,4.4c0.6,0,2.1-1.6,3.1-3.6
		c2.6-5.2,7.2-17.2,7.2-19c0-0.9-1.4-2.4-3.1-3.5c-1.8-1.1-5.6-5.1-8.6-9c-3-3.9-7-8.4-9-10.2
		C1427.8,1967.5,1415.6,1965.8,1400,1968.6z"/>
	<path id="structure55_label50_IOC" bar:growlevel="0" bar:type="" class="st39" d="M1373.4,1959.5c-5.2,5.6-14.7,7.7-23.5,5.4
		c-3.2-0.9-6.8-1.8-7.9-2.1l-2.2-0.5l0.6,6.7c0.6,7.6,2.6,16.8,3.8,17.9c0.5,0.4,10.6,0.9,22.6,1.1l21.9,0.3l0.8-4.5
		c0.5-2.5,1.2-6.4,1.5-8.8l0.5-4.2h-3.3c-4.5,0-9-4.4-9.9-9.7C1377.6,1956.8,1376.3,1956.4,1373.4,1959.5z"/>
	<path id="structure58_label53_Sp5I" bar:growlevel="0" bar:type="" class="st40" d="M1818.9,1511.3c0,0.6,1.4,4.3,3.1,8
		c4.8,10.5,11.8,30.8,17.1,49.2c11.2,39.2,18.1,78.9,20.3,116.9c3.9,69.4,0.4,114.8-10.4,137.5c-1.7,3.5-3.1,6.7-3.1,6.8
		c0,0.9,12.4,2.7,18.4,2.7c10,0,15.2-3.5,22.9-15.5c5.7-8.8,8.2-14.8,11-25.8c5.5-21.7,8.3-51.1,8.3-86.3c0-52.8-5.5-79.5-24-116.6
		c-10.4-21-21.1-36.2-38.8-55.7c-10-11.2-22.1-22.6-23.8-22.6C1819.3,1510,1818.9,1510.5,1818.9,1511.3z"/>
	<path id="structure5_label4_LRt" bar:growlevel="0" bar:type="" class="st41" d="M1739.7,1869.7c-16.4,1.7-53,14-68.5,23.1
		c-7.3,4.3-23.5,16.1-37.7,27.4c-4.7,3.8-11.6,9.1-15.3,11.8c-10.3,7.5-27.1,21-30.3,24.4c-3.9,4.1-4.5,7-2.1,10.1
		c2.7,3.4,7.1,5.5,17.6,8.2c11,2.9,17.8,6.2,34.6,16.7c35.8,22.6,53.5,26.6,68.4,15.7c6-4.4,35.1-31.6,35.1-32.8
		c0-0.5-1.2-2-2.6-3.4c-7.1-7-5.2-18.5,5.8-35c5.8-8.6,16.9-20.8,25.2-27.4c16.2-12.9,37-17.5,40.2-8.8c1.5,3.9,3.1,3.2,5.6-2.2
		c3.8-8.1,2.9-14.7-3-20.7c-4.1-4.2-8.8-5.7-22.2-6.9C1781.3,1869.2,1747,1868.9,1739.7,1869.7z"/>
	<path class="st5" d="M1929.2,1655.8c-0.9,0-1.3,5.4-1.7,23.1c-1,46.1-9.5,102-20.6,136.2c-4.8,14.9-12.5,26.4-20.1,29.8
		c-7.2,3.3-20.3,1.5-21.6-2.9c-0.4-1-0.4-3.3,0-5.2l0.5-3.4l-5.8-0.5c-11.7-1.1-33.9-7.8-46.1-13.9c-19.4-9.7-33.8-25-40.9-43.3
		c-1.5-3.9-6.4-21.8-10.8-39.8c-13.3-54-22.6-79.3-37.5-102.3c-6-9.3-17.8-21.6-25.5-26.6c-7.7-5.1-19.1-10.7-25.3-12.5
		c-21.5-6.2-57.9-6.7-103.5-1.3c-11.6,1.3-21.8,2-33.8,2c-15.7-0.1-20.4-0.4-42.5-3.7c-6.5-0.9-4.7,1.6,3.6,5
		c11.4,4.7,23.8,11.8,27.4,15.7c3.1,3.4,3.2,3.8,2.8,9.5c-0.2,3.7-1.1,7.5-2.3,10.1c-1.1,2.3-2,4.5-2,4.9c0,0.5,2.7,2.3,6.1,3.9
		c28.4,14,104.9,63.6,154.1,99.9c10.5,7.7,92.9,72.5,107.5,84.6c4.5,3.6,10.4,8.9,13.2,11.6l5.2,5l8.7,0.1c7.7,0,9.5,0.4,14,2.4
		c8.8,4.1,13,12.2,12.2,24c-0.4,7-1.9,9.8-7.1,13.5c-2.8,1.9-3.7,2.1-11.3,1.5l-8.2-0.5v5.8c0,5.5,0.1,5.9,2.1,5.9
		c5,0,6.6,5,4.5,14.3c-4.2,19.7-24.3,47.7-49.6,69.3c-20.3,17.4-44.5,34.6-57.2,41c-12.6,6.2-17.7,5.2-16.6-3.2
		c0.6-4.8,0.4-5-3.8-3.4c-1.4,0.5-5.3,1-8.8,0.9c-11.8,0-25.7-5.8-49-20.3c-18.2-11.4-24.4-14.4-34.9-17.2
		c-9.8-2.6-14.8-4.9-18.4-8.3c-6.2-5.8-2.7-9.6,29.9-34.2c8.6-6.5,20.4-15.6,26.1-20.1c17-13.4,31.9-22.9,42.8-27.3
		c9.2-3.7,9.8-4.1,10.1-6.7c0.4-3.6-3.4-14.9-8.8-25.8c-10.5-21.8-34.9-53.4-56.4-73c-28-25.6-141.8-121.9-144-121.9
		c-0.6,0-1.2,0.9-1.2,2.1c0,1.2-0.6,4.2-1.4,6.8c-1.2,4-2.7,6-9.3,12.6c-4.2,4.2-12.5,14-18.2,21.7c-13.4,18-18,21.9-27.5,23
		c-3.3,0.4-5.2,1.3-7.9,4c-7.1,6.6-15.1,9.8-29.2,11.7c-15.5,2.2-30.1-0.5-45.3-8.2c-12.1-6.1-14.2-9.2-14.2-20.8
		c0.1-10.9,1.4-23,3.2-27.7c0.8-2.3,1.7-4.7,1.9-5.5c0.4-1.2-0.5-1.3-6.8-1.3v64.6c0.6,0,1.2,0,1.8,0c16.3,0.3,17.8,0.4,21.4,2.3
		c6,3.2,11.4,9.5,16.3,19c8.4,16.4,21.2,53.7,30.8,89c4.1,15.5,16.7,76,21.6,104.3l2.1,11.8l3.2,1c5,1.5,9,5,15.8,13.8
		c8,10.4,11.3,12.4,21,12.4c3.8,0,10.1-0.6,14-1.4c10.4-2,23.9-1.8,30.8,0.4c10.8,3.4,21.1,12.1,26,22.2c7.5,15.4,1,23.2-23.5,28.4
		c-4.4,0.9-9.2,1.7-10.5,1.7c-4.2,0-2.8,2.1,5.2,7.2c9,5.8,17.3,14,18,17.9c0.7,3.3,1.2,3.3,7.5,0.9c11.5-4.3,29.8-7.7,72.2-12.9
		c43.7-5.5,65.9-10.4,94.8-21.3c31.2-11.7,73.4-35.3,97.3-54.4c10.3-8.2,40.7-38.3,54.1-53.6c22.6-25.7,33.2-40.6,43.1-60.3
		c18.4-36.7,30.1-77.5,36.6-127.7C1932.9,1718.2,1932.5,1655.8,1929.2,1655.8z M1460.1,1745.3c-2.3,4.6-5.5,6.8-10.5,7.4
		c-5.5,0.6-8.4-0.2-10.2-2.9c-4-6.2-2.8-15.2,2.8-20.2c3.5-3.1,6.2-3.4,10.6-1.5c4.1,1.7,6.7,4.9,7.9,9.6
		C1461.8,1741.4,1461.7,1742.3,1460.1,1745.3z"/>
	<path id="structure62_label57_LRtPC" bar:growlevel="0" bar:type="" class="st42" d="M1814,1901.2c-6.2,9.4-22.8,27-43.9,46.7
		c-10.5,9.8-26.9,25.4-36.4,34.6c-9.4,9.3-20.1,19.2-23.7,22c-7.1,5.8-8.2,7.5-8.2,13.5c0,3.1,0.4,4.1,1.8,4.5
		c6.8,2.2,29.8-11.3,59.9-35.3c35.9-28.5,59.7-60.5,61.3-82.8c0.6-7.5-0.3-9.3-4.3-9.3C1818.4,1895.2,1817.4,1896.1,1814,1901.2z"/>
	<path class="st33" d="M1929.2,1655.8c-0.9,0-1.3,5.4-1.7,23.1c-1,46.1-9.5,102-20.6,136.2c-4.8,14.9-12.5,26.4-20.1,29.8
		c-7.2,3.3-20.3,1.5-21.6-2.9c-0.4-1-0.4-3.3,0-5.2l0.5-3.4l-5.8-0.5c-11.7-1.1-33.9-7.8-46.1-13.9c-19.4-9.7-33.8-25-40.9-43.3
		c-1.5-3.9-6.4-21.8-10.8-39.8c-13.3-54-22.6-79.3-37.5-102.3c-6-9.3-17.8-21.6-25.5-26.6c-7.7-5.1-19.1-10.7-25.3-12.5
		c-21.5-6.2-57.9-6.7-103.5-1.3c-11.6,1.3-21.8,2-33.8,2c-15.7-0.1-20.4-0.4-42.5-3.7c-6.5-0.9-4.7,1.6,3.6,5
		c11.4,4.7,23.8,11.8,27.4,15.7c3.1,3.4,3.2,3.8,2.8,9.5c-0.2,3.7-1.1,7.5-2.3,10.1c-1.1,2.3-2,4.5-2,4.9c0,0.5,2.7,2.3,6.1,3.9
		c28.4,14,104.9,63.6,154.1,99.9c10.5,7.7,92.9,72.5,107.5,84.6c4.5,3.6,10.4,8.9,13.2,11.6l5.2,5l8.7,0.1c7.7,0,9.5,0.4,14,2.4
		c8.8,4.1,13,12.2,12.2,24c-0.4,7-1.9,9.8-7.1,13.5c-2.8,1.9-3.7,2.1-11.3,1.5l-8.2-0.5v5.8c0,5.5,0.1,5.9,2.1,5.9
		c5,0,6.6,5,4.5,14.3c-4.2,19.7-24.3,47.7-49.6,69.3c-20.3,17.4-44.5,34.6-57.2,41c-12.6,6.2-17.7,5.2-16.6-3.2
		c0.6-4.8,0.4-5-3.8-3.4c-1.4,0.5-5.3,1-8.8,0.9c-11.8,0-25.7-5.8-49-20.3c-18.2-11.4-24.4-14.4-34.9-17.2
		c-9.8-2.6-14.8-4.9-18.4-8.3c-6.2-5.8-2.7-9.6,29.9-34.2c8.6-6.5,20.4-15.6,26.1-20.1c17-13.4,31.9-22.9,42.8-27.3
		c9.2-3.7,9.8-4.1,10.1-6.7c0.4-3.6-3.4-14.9-8.8-25.8c-10.5-21.8-34.9-53.4-56.4-73c-28-25.6-141.8-121.9-144-121.9
		c-0.6,0-1.2,0.9-1.2,2.1c0,1.2-0.6,4.2-1.4,6.8c-1.2,4-2.7,6-9.3,12.6c-4.2,4.2-12.5,14-18.2,21.7c-13.4,18-18,21.9-27.5,23
		c-3.3,0.4-5.2,1.3-7.9,4c-7.1,6.6-15.1,9.8-29.2,11.7c-15.5,2.2-30.1-0.5-45.3-8.2c-12.1-6.1-14.2-9.2-14.2-20.8
		c0.1-10.9,1.4-23,3.2-27.7c0.8-2.3,1.7-4.7,1.9-5.5c0.4-1.2-0.5-1.3-6.8-1.3v64.6c0.6,0,1.2,0,1.8,0c16.3,0.3,17.8,0.4,21.4,2.3
		c6,3.2,11.4,9.5,16.3,19c8.4,16.4,21.2,53.7,30.8,89c4.1,15.5,16.7,76,21.6,104.3l2.1,11.8l3.2,1c5,1.5,9,5,15.8,13.8
		c8,10.4,11.3,12.4,21,12.4c3.8,0,10.1-0.6,14-1.4c10.4-2,23.9-1.8,30.8,0.4c10.8,3.4,21.1,12.1,26,22.2c7.5,15.4,1,23.2-23.5,28.4
		c-4.4,0.9-9.2,1.7-10.5,1.7c-4.2,0-2.8,2.1,5.2,7.2c9,5.8,17.3,14,18,17.9c0.7,3.3,1.2,3.3,7.5,0.9c11.5-4.3,29.8-7.7,72.2-12.9
		c43.7-5.5,65.9-10.4,94.8-21.3c31.2-11.7,73.4-35.3,97.3-54.4c10.3-8.2,40.7-38.3,54.1-53.6c22.6-25.7,33.2-40.6,43.1-60.3
		c18.4-36.7,30.1-77.5,36.6-127.7C1932.9,1718.2,1932.5,1655.8,1929.2,1655.8z M1460.1,1745.3c-2.3,4.6-5.5,6.8-10.5,7.4
		c-5.5,0.6-8.4-0.2-10.2-2.9c-4-6.2-2.8-15.2,2.8-20.2c3.5-3.1,6.2-3.4,10.6-1.5c4.1,1.7,6.7,4.9,7.9,9.6
		C1461.8,1741.4,1461.7,1742.3,1460.1,1745.3z"/>
	<path id="structure65_label60_sp5" bar:growlevel="0" bar:type="" class="st43" d="M1755.4,1445.7c-25.7,4.6-48.5,15.7-64.4,31.4
		c-5.4,5.4-6,6.4-6.6,10.5c-0.7,5.2-0.1,6.1,4.8,6.1c3.7,0,17.1-4.4,24.2-8c9.7-4.9,14.7-5.9,29-5.9c19.1,0.1,34.8,3.9,53.4,13.1
		c13,6.5,22,13.3,37.5,28.8c28.2,28.1,45.6,54.2,59,88.1c10.8,27.7,14.8,53,14.8,95.4c0,37.6-4.6,77-11.1,94.9
		c-5.4,14.8-17.1,30-24.6,32c-4.4,1.2-5.7,2.4-6.4,6.7c-0.4,2.5-0.1,3.3,1.9,5c3.2,2.5,10.9,3.4,16.9,2c5.9-1.4,12.8-7.9,16.8-16.1
		c10.4-20.5,21.5-75.2,25.3-124.7c1.8-23.5,1.1-64-1.4-79.7c-2.2-13.3-10.4-38.2-17.5-52.3c-4.6-9.1-19.4-33.5-27.6-45.2
		c-19.1-27.2-54.4-61.2-78.3-75.2c-10.8-6.4-17.1-8.2-28.6-8.1C1767.1,1444.4,1759.4,1445,1755.4,1445.7z"/>
	<path id="structure66_label62_rs" bar:growlevel="0" bar:type="" class="st44" d="M1813.7,1842.1c-8.5,1.3-12,6.7-12.6,19.5
		l-0.4,8.3l5,2.3c2.7,1.3,6.6,3.9,8.5,5.8c2.8,2.9,4.6,3.9,8.8,4.7c6.1,1.3,12.5,0.6,15.7-1.6c1.3-0.9,3.1-3.4,4.3-5.7
		c1.8-3.3,2.1-4.9,1.7-10.4c-0.7-12.3-7.5-21-17.6-22.3c-2.3-0.4-5.1-0.7-6.4-0.8C1819.4,1841.6,1816.3,1841.7,1813.7,1842.1z"/>
	<path class="st45" d="M1929.2,1655.8c-0.9,0-1.3,5.4-1.7,23.1c-1,46.1-9.5,102-20.6,136.2c-4.8,14.9-12.5,26.4-20.1,29.8
		c-7.2,3.3-20.3,1.5-21.6-2.9c-0.4-1-0.4-3.3,0-5.2l0.5-3.4l-5.8-0.5c-11.7-1.1-33.9-7.8-46.1-13.9c-19.4-9.7-33.8-25-40.9-43.3
		c-1.5-3.9-6.4-21.8-10.8-39.8c-13.3-54-22.6-79.3-37.5-102.3c-6-9.3-17.8-21.6-25.5-26.6c-7.7-5.1-19.1-10.7-25.3-12.5
		c-21.5-6.2-57.9-6.7-103.5-1.3c-11.6,1.3-21.8,2-33.8,2c-15.7-0.1-20.4-0.4-42.5-3.7c-6.5-0.9-4.7,1.6,3.6,5
		c11.4,4.7,23.8,11.8,27.4,15.7c3.1,3.4,3.2,3.8,2.8,9.5c-0.2,3.7-1.1,7.5-2.3,10.1c-1.1,2.3-2,4.5-2,4.9c0,0.5,2.7,2.3,6.1,3.9
		c28.4,14,104.9,63.6,154.1,99.9c10.5,7.7,92.9,72.5,107.5,84.6c4.5,3.6,10.4,8.9,13.2,11.6l5.2,5l8.7,0.1c7.7,0,9.5,0.4,14,2.4
		c8.8,4.1,13,12.2,12.2,24c-0.4,7-1.9,9.8-7.1,13.5c-2.8,1.9-3.7,2.1-11.3,1.5l-8.2-0.5v5.8c0,5.5,0.1,5.9,2.1,5.9
		c5,0,6.6,5,4.5,14.3c-4.2,19.7-24.3,47.7-49.6,69.3c-20.3,17.4-44.5,34.6-57.2,41c-12.6,6.2-17.7,5.2-16.6-3.2
		c0.6-4.8,0.4-5-3.8-3.4c-1.4,0.5-5.3,1-8.8,0.9c-11.8,0-25.7-5.8-49-20.3c-18.2-11.4-24.4-14.4-34.9-17.2
		c-9.8-2.6-14.8-4.9-18.4-8.3c-6.2-5.8-2.7-9.6,29.9-34.2c8.6-6.5,20.4-15.6,26.1-20.1c17-13.4,31.9-22.9,42.8-27.3
		c9.2-3.7,9.8-4.1,10.1-6.7c0.4-3.6-3.4-14.9-8.8-25.8c-10.5-21.8-34.9-53.4-56.4-73c-28-25.6-141.8-121.9-144-121.9
		c-0.6,0-1.2,0.9-1.2,2.1c0,1.2-0.6,4.2-1.4,6.8c-1.2,4-2.7,6-9.3,12.6c-4.2,4.2-12.5,14-18.2,21.7c-13.4,18-18,21.9-27.5,23
		c-3.3,0.4-5.2,1.3-7.9,4c-7.1,6.6-15.1,9.8-29.2,11.7c-15.5,2.2-30.1-0.5-45.3-8.2c-12.1-6.1-14.2-9.2-14.2-20.8
		c0.1-10.9,1.4-23,3.2-27.7c0.8-2.3,1.7-4.7,1.9-5.5c0.4-1.2-0.5-1.3-6.8-1.3v64.6c0.6,0,1.2,0,1.8,0c16.3,0.3,17.8,0.4,21.4,2.3
		c6,3.2,11.4,9.5,16.3,19c8.4,16.4,21.2,53.7,30.8,89c4.1,15.5,16.7,76,21.6,104.3l2.1,11.8l3.2,1c5,1.5,9,5,15.8,13.8
		c8,10.4,11.3,12.4,21,12.4c3.8,0,10.1-0.6,14-1.4c10.4-2,23.9-1.8,30.8,0.4c10.8,3.4,21.1,12.1,26,22.2c7.5,15.4,1,23.2-23.5,28.4
		c-4.4,0.9-9.2,1.7-10.5,1.7c-4.2,0-2.8,2.1,5.2,7.2c9,5.8,17.3,14,18,17.9c0.7,3.3,1.2,3.3,7.5,0.9c11.5-4.3,29.8-7.7,72.2-12.9
		c43.7-5.5,65.9-10.4,94.8-21.3c31.2-11.7,73.4-35.3,97.3-54.4c10.3-8.2,40.7-38.3,54.1-53.6c22.6-25.7,33.2-40.6,43.1-60.3
		c18.4-36.7,30.1-77.5,36.6-127.7C1932.9,1718.2,1932.5,1655.8,1929.2,1655.8z M1460.1,1745.3c-2.3,4.6-5.5,6.8-10.5,7.4
		c-5.5,0.6-8.4-0.2-10.2-2.9c-4-6.2-2.8-15.2,2.8-20.2c3.5-3.1,6.2-3.4,10.6-1.5c4.1,1.7,6.7,4.9,7.9,9.6
		C1461.8,1741.4,1461.7,1742.3,1460.1,1745.3z"/>
	<path class="st46" d="M1929.2,1655.8c-0.9,0-1.3,5.4-1.7,23.1c-1,46.1-9.5,102-20.6,136.2c-4.8,14.9-12.5,26.4-20.1,29.8
		c-7.2,3.3-20.3,1.5-21.6-2.9c-0.4-1-0.4-3.3,0-5.2l0.5-3.4l-5.8-0.5c-11.7-1.1-33.9-7.8-46.1-13.9c-19.4-9.7-33.8-25-40.9-43.3
		c-1.5-3.9-6.4-21.8-10.8-39.8c-13.3-54-22.6-79.3-37.5-102.3c-6-9.3-17.8-21.6-25.5-26.6c-7.7-5.1-19.1-10.7-25.3-12.5
		c-21.5-6.2-57.9-6.7-103.5-1.3c-11.6,1.3-21.8,2-33.8,2c-15.7-0.1-20.4-0.4-42.5-3.7c-6.5-0.9-4.7,1.6,3.6,5
		c11.4,4.7,23.8,11.8,27.4,15.7c3.1,3.4,3.2,3.8,2.8,9.5c-0.2,3.7-1.1,7.5-2.3,10.1c-1.1,2.3-2,4.5-2,4.9c0,0.5,2.7,2.3,6.1,3.9
		c28.4,14,104.9,63.6,154.1,99.9c10.5,7.7,92.9,72.5,107.5,84.6c4.5,3.6,10.4,8.9,13.2,11.6l5.2,5l8.7,0.1c7.7,0,9.5,0.4,14,2.4
		c8.8,4.1,13,12.2,12.2,24c-0.4,7-1.9,9.8-7.1,13.5c-2.8,1.9-3.7,2.1-11.3,1.5l-8.2-0.5v5.8c0,5.5,0.1,5.9,2.1,5.9
		c5,0,6.6,5,4.5,14.3c-4.2,19.7-24.3,47.7-49.6,69.3c-20.3,17.4-44.5,34.6-57.2,41c-12.6,6.2-17.7,5.2-16.6-3.2
		c0.6-4.8,0.4-5-3.8-3.4c-1.4,0.5-5.3,1-8.8,0.9c-11.8,0-25.7-5.8-49-20.3c-18.2-11.4-24.4-14.4-34.9-17.2
		c-9.8-2.6-14.8-4.9-18.4-8.3c-6.2-5.8-2.7-9.6,29.9-34.2c8.6-6.5,20.4-15.6,26.1-20.1c17-13.4,31.9-22.9,42.8-27.3
		c9.2-3.7,9.8-4.1,10.1-6.7c0.4-3.6-3.4-14.9-8.8-25.8c-10.5-21.8-34.9-53.4-56.4-73c-28-25.6-141.8-121.9-144-121.9
		c-0.6,0-1.2,0.9-1.2,2.1c0,1.2-0.6,4.2-1.4,6.8c-1.2,4-2.7,6-9.3,12.6c-4.2,4.2-12.5,14-18.2,21.7c-13.4,18-18,21.9-27.5,23
		c-3.3,0.4-5.2,1.3-7.9,4c-7.1,6.6-15.1,9.8-29.2,11.7c-15.5,2.2-30.1-0.5-45.3-8.2c-12.1-6.1-14.2-9.2-14.2-20.8
		c0.1-10.9,1.4-23,3.2-27.7c0.8-2.3,1.7-4.7,1.9-5.5c0.4-1.2-0.5-1.3-6.8-1.3v64.6c0.6,0,1.2,0,1.8,0c16.3,0.3,17.8,0.4,21.4,2.3
		c6,3.2,11.4,9.5,16.3,19c8.4,16.4,21.2,53.7,30.8,89c4.1,15.5,16.7,76,21.6,104.3l2.1,11.8l3.2,1c5,1.5,9,5,15.8,13.8
		c8,10.4,11.3,12.4,21,12.4c3.8,0,10.1-0.6,14-1.4c10.4-2,23.9-1.8,30.8,0.4c10.8,3.4,21.1,12.1,26,22.2c7.5,15.4,1,23.2-23.5,28.4
		c-4.4,0.9-9.2,1.7-10.5,1.7c-4.2,0-2.8,2.1,5.2,7.2c9,5.8,17.3,14,18,17.9c0.7,3.3,1.2,3.3,7.5,0.9c11.5-4.3,29.8-7.7,72.2-12.9
		c43.7-5.5,65.9-10.4,94.8-21.3c31.2-11.7,73.4-35.3,97.3-54.4c10.3-8.2,40.7-38.3,54.1-53.6c22.6-25.7,33.2-40.6,43.1-60.3
		c18.4-36.7,30.1-77.5,36.6-127.7C1932.9,1718.2,1932.5,1655.8,1929.2,1655.8z M1460.1,1745.3c-2.3,4.6-5.5,6.8-10.5,7.4
		c-5.5,0.6-8.4-0.2-10.2-2.9c-4-6.2-2.8-15.2,2.8-20.2c3.5-3.1,6.2-3.4,10.6-1.5c4.1,1.7,6.7,4.9,7.9,9.6
		C1461.8,1741.4,1461.7,1742.3,1460.1,1745.3z"/>
	<path class="st45" d="M1929.2,1655.8c-0.9,0-1.3,5.4-1.7,23.1c-1,46.1-9.5,102-20.6,136.2c-4.8,14.9-12.5,26.4-20.1,29.8
		c-7.2,3.3-20.3,1.5-21.6-2.9c-0.4-1-0.4-3.3,0-5.2l0.5-3.4l-5.8-0.5c-11.7-1.1-33.9-7.8-46.1-13.9c-19.4-9.7-33.8-25-40.9-43.3
		c-1.5-3.9-6.4-21.8-10.8-39.8c-13.3-54-22.6-79.3-37.5-102.3c-6-9.3-17.8-21.6-25.5-26.6c-7.7-5.1-19.1-10.7-25.3-12.5
		c-21.5-6.2-57.9-6.7-103.5-1.3c-11.6,1.3-21.8,2-33.8,2c-15.7-0.1-20.4-0.4-42.5-3.7c-6.5-0.9-4.7,1.6,3.6,5
		c11.4,4.7,23.8,11.8,27.4,15.7c3.1,3.4,3.2,3.8,2.8,9.5c-0.2,3.7-1.1,7.5-2.3,10.1c-1.1,2.3-2,4.5-2,4.9c0,0.5,2.7,2.3,6.1,3.9
		c28.4,14,104.9,63.6,154.1,99.9c10.5,7.7,92.9,72.5,107.5,84.6c4.5,3.6,10.4,8.9,13.2,11.6l5.2,5l8.7,0.1c7.7,0,9.5,0.4,14,2.4
		c8.8,4.1,13,12.2,12.2,24c-0.4,7-1.9,9.8-7.1,13.5c-2.8,1.9-3.7,2.1-11.3,1.5l-8.2-0.5v5.8c0,5.5,0.1,5.9,2.1,5.9
		c5,0,6.6,5,4.5,14.3c-4.2,19.7-24.3,47.7-49.6,69.3c-20.3,17.4-44.5,34.6-57.2,41c-12.6,6.2-17.7,5.2-16.6-3.2
		c0.6-4.8,0.4-5-3.8-3.4c-1.4,0.5-5.3,1-8.8,0.9c-11.8,0-25.7-5.8-49-20.3c-18.2-11.4-24.4-14.4-34.9-17.2
		c-9.8-2.6-14.8-4.9-18.4-8.3c-6.2-5.8-2.7-9.6,29.9-34.2c8.6-6.5,20.4-15.6,26.1-20.1c17-13.4,31.9-22.9,42.8-27.3
		c9.2-3.7,9.8-4.1,10.1-6.7c0.4-3.6-3.4-14.9-8.8-25.8c-10.5-21.8-34.9-53.4-56.4-73c-28-25.6-141.8-121.9-144-121.9
		c-0.6,0-1.2,0.9-1.2,2.1c0,1.2-0.6,4.2-1.4,6.8c-1.2,4-2.7,6-9.3,12.6c-4.2,4.2-12.5,14-18.2,21.7c-13.4,18-18,21.9-27.5,23
		c-3.3,0.4-5.2,1.3-7.9,4c-7.1,6.6-15.1,9.8-29.2,11.7c-15.5,2.2-30.1-0.5-45.3-8.2c-12.1-6.1-14.2-9.2-14.2-20.8
		c0.1-10.9,1.4-23,3.2-27.7c0.8-2.3,1.7-4.7,1.9-5.5c0.4-1.2-0.5-1.3-6.8-1.3v64.6c0.6,0,1.2,0,1.8,0c16.3,0.3,17.8,0.4,21.4,2.3
		c6,3.2,11.4,9.5,16.3,19c8.4,16.4,21.2,53.7,30.8,89c4.1,15.5,16.7,76,21.6,104.3l2.1,11.8l3.2,1c5,1.5,9,5,15.8,13.8
		c8,10.4,11.3,12.4,21,12.4c3.8,0,10.1-0.6,14-1.4c10.4-2,23.9-1.8,30.8,0.4c10.8,3.4,21.1,12.1,26,22.2c7.5,15.4,1,23.2-23.5,28.4
		c-4.4,0.9-9.2,1.7-10.5,1.7c-4.2,0-2.8,2.1,5.2,7.2c9,5.8,17.3,14,18,17.9c0.7,3.3,1.2,3.3,7.5,0.9c11.5-4.3,29.8-7.7,72.2-12.9
		c43.7-5.5,65.9-10.4,94.8-21.3c31.2-11.7,73.4-35.3,97.3-54.4c10.3-8.2,40.7-38.3,54.1-53.6c22.6-25.7,33.2-40.6,43.1-60.3
		c18.4-36.7,30.1-77.5,36.6-127.7C1932.9,1718.2,1932.5,1655.8,1929.2,1655.8z M1460.1,1745.3c-2.3,4.6-5.5,6.8-10.5,7.4
		c-5.5,0.6-8.4-0.2-10.2-2.9c-4-6.2-2.8-15.2,2.8-20.2c3.5-3.1,6.2-3.4,10.6-1.5c4.1,1.7,6.7,4.9,7.9,9.6
		C1461.8,1741.4,1461.7,1742.3,1460.1,1745.3z"/>
	<path id="structure70_label66_ts" bar:growlevel="0" bar:type="" class="st47" d="M1337.6,1742.2c-2.3,0.9-4.3,7-3.6,10.7
		c0.3,1.3,1.1,5.6,1.8,9.5c5.6,29.2,7.9,104.2,3.8,117.5c-2.3,7-2.8,16.2-1.1,16.2c0.7,0,1.8-1.2,2.4-2.6c0.5-1.4,2.1-3.6,3.3-4.8
		c2-1.9,3-2.1,11.3-2.1c15.8,0,19.1,3.3,21.7,21.6c2.4,17.5,3.4,31,2.8,37.2c-0.4,3.3-0.7,9.2-0.8,13c-0.1,6.1,0.2,7.1,2.1,9.2
		c2.7,2.9,7.1,3.1,17.2,0.9c3.7-0.8,10.7-1.4,15.6-1.5h8.7v-2.3c0-5.7-16.3-87.7-21.2-106.8c-9.1-35.6-24.8-81.4-33-97
		c-3.7-6.9-10.5-14.3-15.3-16.6C1348.9,1742,1340.5,1740.9,1337.6,1742.2z"/>
	<path class="st48" d="M1445.3,2019.4c-29.3-22.1-38.6-27.3-53.1-29.6c-3.4-0.6-32.7-0.9-62-0.9v11.1c5.9,0,11.8,3.2,13,9.8l0.5,2.9
		l18.2,0.1c18.4,0.2,35.6,1.3,44.7,3.1c2.7,0.5,13.8,3.6,24.5,6.8c10.8,3.2,20.4,5.8,21.4,5.8
		C1456,2028.4,1454.2,2026.1,1445.3,2019.4z"/>
	<path id="structure73_label69_py" bar:growlevel="0" bar:type="" class="st49" d="M1344.3,2013.7c-0.3,0.4-0.7,2.5-1.1,4.8
		c-1.1,7-5.7,17.5-9.4,21.9l-3.6,4v10.3c0,8,0.4,11,1.7,13.8c4.9,10.5,18.1,16,57.2,23.8c24.4,4.9,34.8,5.9,56.2,5.2
		c32-0.9,55.6-6.8,72.5-17.8c4.7-3.2,6.8-5,6.8-6.3c0-7.5-15.7-19.8-40.9-32.3c-10.9-5.4-16.6-7.4-41.8-14.9
		c-32.3-9.6-37-10.6-56.1-12C1370.7,2012.9,1344.8,2012.7,1344.3,2013.7z"/>
	<path id="structure75_label71_cu" bar:growlevel="0" bar:type="" class="st50" d="M1693.1,1407.5c-24.4,2.2-50.7,9.4-87.3,23.9
		c-29.6,11.7-46.9,20.4-66.6,33.4c-9.5,6.3-30.8,17.4-33.2,17.4c-2.2,0-1.2,2.3,3.3,7.6c5.8,6.8,11.3,11.3,14,11.3
		c1.2,0,5.9-1.2,10.4-2.7c17.5-5.6,18.2-5.7,46-5.9c17.6-0.2,26.3-0.5,27.2-1.3c2.7-2.3,4.2-7.7,5.4-19.9c0.7-6.9,1.8-14.2,2.3-16.2
		c2.2-7.2,7.5-9.9,12.5-6.5c1.3,0.8,4.9,4,8.1,7c5.3,4.9,6.8,5.8,14.9,8.5c11.8,3.9,26.5,11,31,14.9c1.9,1.7,3.6,3.2,3.8,3.2
		c0.2,0,3.2-2.7,6.7-5.9c7.3-6.9,17.7-14,27.7-18.9c3.8-1.9,6.9-3.9,6.9-4.4c0-0.5-2.3-2-5-3.1c-2.8-1.2-7.1-4-9.7-6.4
		c-12.2-11.2-12.5-26.4-0.5-32.4c1.9-1,3.5-2.4,3.5-3.2C1714.5,1406.3,1707.5,1406.2,1693.1,1407.5z"/>
	<path class="st18" d="M1637.8,1238.8l-7.4-21.6l-9,0.6c-12.2,0.8-53.2,5.4-77.5,8.7c-33,4.5-50.2,4.5-76.5-0.3
		c-14.3-2.6-34.1-2.9-76.5-1.3c-20.3,0.8-47.6,1.4-60.8,1.4v17.7c11.3,0,22.7,0.7,33.8,2.1c18,2.2,50.3,3.4,90.9,3.5
		c26.3,0.1,41.7-1,100.1-6.8c22.2-2.3,25.4-2.3,34.2-1.3c18.3,2.1,35.1,7.7,47.3,16.1c7.2,4.9,8.7,5.6,8.7,3.7
		C1645.2,1260.9,1641.8,1250.7,1637.8,1238.8z"/>
	<path class="st19" d="M1625.7,1201.3l-4.4-14.5l-4.5-1.3c-28.3-8-55.3-14.6-72-17.5c-5.9-1.1-22.5-4.1-36.9-6.8
		c-64.1-12.1-71.1-12.7-120.1-9.4c-25.2,1.7-41.5,2.5-57.6,2.5v72c11.2,0,23.1-0.4,44.1-1.2c63.6-2.3,75.3-2.2,92.7,0.8
		c28.2,4.8,43.3,4.9,77.4,0.3c30.3-4.1,60.8-7.6,79.9-8.9c2.6-0.2,5-0.6,5.3-0.9C1629.9,1216,1628.2,1209.2,1625.7,1201.3z"/>
	<path class="st46" d="M1929.2,1655.8c-0.9,0-1.3,5.4-1.7,23.1c-1,46.1-9.5,102-20.6,136.2c-4.8,14.9-12.5,26.4-20.1,29.8
		c-7.2,3.3-20.3,1.5-21.6-2.9c-0.4-1-0.4-3.3,0-5.2l0.5-3.4l-5.8-0.5c-11.7-1.1-33.9-7.8-46.1-13.9c-19.4-9.7-33.8-25-40.9-43.3
		c-1.5-3.9-6.4-21.8-10.8-39.8c-13.3-54-22.6-79.3-37.5-102.3c-6-9.3-17.8-21.6-25.5-26.6c-7.7-5.1-19.1-10.7-25.3-12.5
		c-21.5-6.2-57.9-6.7-103.5-1.3c-11.6,1.3-21.8,2-33.8,2c-15.7-0.1-20.4-0.4-42.5-3.7c-6.5-0.9-4.7,1.6,3.6,5
		c11.4,4.7,23.8,11.8,27.4,15.7c3.1,3.4,3.2,3.8,2.8,9.5c-0.2,3.7-1.1,7.5-2.3,10.1c-1.1,2.3-2,4.5-2,4.9c0,0.5,2.7,2.3,6.1,3.9
		c28.4,14,104.9,63.6,154.1,99.9c10.5,7.7,92.9,72.5,107.5,84.6c4.5,3.6,10.4,8.9,13.2,11.6l5.2,5l8.7,0.1c7.7,0,9.5,0.4,14,2.4
		c8.8,4.1,13,12.2,12.2,24c-0.4,7-1.9,9.8-7.1,13.5c-2.8,1.9-3.7,2.1-11.3,1.5l-8.2-0.5v5.8c0,5.5,0.1,5.9,2.1,5.9
		c5,0,6.6,5,4.5,14.3c-4.2,19.7-24.3,47.7-49.6,69.3c-20.3,17.4-44.5,34.6-57.2,41c-12.6,6.2-17.7,5.2-16.6-3.2
		c0.6-4.8,0.4-5-3.8-3.4c-1.4,0.5-5.3,1-8.8,0.9c-11.8,0-25.7-5.8-49-20.3c-18.2-11.4-24.4-14.4-34.9-17.2
		c-9.8-2.6-14.8-4.9-18.4-8.3c-6.2-5.8-2.7-9.6,29.9-34.2c8.6-6.5,20.4-15.6,26.1-20.1c17-13.4,31.9-22.9,42.8-27.3
		c9.2-3.7,9.8-4.1,10.1-6.7c0.4-3.6-3.4-14.9-8.8-25.8c-10.5-21.8-34.9-53.4-56.4-73c-28-25.6-141.8-121.9-144-121.9
		c-0.6,0-1.2,0.9-1.2,2.1c0,1.2-0.6,4.2-1.4,6.8c-1.2,4-2.7,6-9.3,12.6c-4.2,4.2-12.5,14-18.2,21.7c-13.4,18-18,21.9-27.5,23
		c-3.3,0.4-5.2,1.3-7.9,4c-7.1,6.6-15.1,9.8-29.2,11.7c-15.5,2.2-30.1-0.5-45.3-8.2c-12.1-6.1-14.2-9.2-14.2-20.8
		c0.1-10.9,1.4-23,3.2-27.7c0.8-2.3,1.7-4.7,1.9-5.5c0.4-1.2-0.5-1.3-6.8-1.3v64.6c0.6,0,1.2,0,1.8,0c16.3,0.3,17.8,0.4,21.4,2.3
		c6,3.2,11.4,9.5,16.3,19c8.4,16.4,21.2,53.7,30.8,89c4.1,15.5,16.7,76,21.6,104.3l2.1,11.8l3.2,1c5,1.5,9,5,15.8,13.8
		c8,10.4,11.3,12.4,21,12.4c3.8,0,10.1-0.6,14-1.4c10.4-2,23.9-1.8,30.8,0.4c10.8,3.4,21.1,12.1,26,22.2c7.5,15.4,1,23.2-23.5,28.4
		c-4.4,0.9-9.2,1.7-10.5,1.7c-4.2,0-2.8,2.1,5.2,7.2c9,5.8,17.3,14,18,17.9c0.7,3.3,1.2,3.3,7.5,0.9c11.5-4.3,29.8-7.7,72.2-12.9
		c43.7-5.5,65.9-10.4,94.8-21.3c31.2-11.7,73.4-35.3,97.3-54.4c10.3-8.2,40.7-38.3,54.1-53.6c22.6-25.7,33.2-40.6,43.1-60.3
		c18.4-36.7,30.1-77.5,36.6-127.7C1932.9,1718.2,1932.5,1655.8,1929.2,1655.8z M1460.1,1745.3c-2.3,4.6-5.5,6.8-10.5,7.4
		c-5.5,0.6-8.4-0.2-10.2-2.9c-4-6.2-2.8-15.2,2.8-20.2c3.5-3.1,6.2-3.4,10.6-1.5c4.1,1.7,6.7,4.9,7.9,9.6
		C1461.8,1741.4,1461.7,1742.3,1460.1,1745.3z"/>
	<path class="st20" d="M1793.3,1267.6c-2.6-5-9-17.3-14.2-27.2c-5.2-9.9-14.4-27.5-20.5-39.1c-21.3-40.8-43.8-80-59.9-104.6
		c-33.6-51.1-79.2-86-139.3-106.6c-55.5-19-150.8-32.1-229.1-32.3v102.6c14.5,0,29.1-1.2,50.4-3.6c27.6-3.2,33.6-3.5,54-3.5
		c24.3-0.1,30.1,0.5,55.3,5.4c63.9,12.4,114.2,34,131.9,56.7c7.7,9.8,16.9,26.6,40.4,73.3c26.1,51.9,33,64.5,46.4,84.6
		c19.3,28.9,40,49.2,60.2,58.9c16.2,7.7,32.8,7.7,38,0.1C1813.2,1322.4,1807.6,1295.6,1793.3,1267.6z"/>
	<path class="st24" d="M1846.3,1339.4c-4.8-27.4-27.2-83-50.2-124.8c-4.7-8.5-17.6-32.3-28.5-52.8c-11-20.5-24.1-44.8-29.3-54
		c-5-9.2-12.7-23.6-16.9-31.9c-21.1-41.7-35.6-63.4-57.3-85.1c-31.5-31.6-67-49.9-120.6-62.4c-33.9-7.8-69.3-12-135-15.9
		c-9.1-0.5-46.2-1-78.3-1.3v45.9c20.8,0.3,46,1,56.7,1.8c47.8,3.6,89.8,9.5,128.4,18c80.7,17.8,138.2,53.7,179,112.1
		c20.7,29.5,59,97.9,99.8,178.6c13,25.6,18.9,48.5,15.8,60c-1,3.6-4.5,8.3-7.3,9.7c-3.5,1.9-10.5,2.6-16.2,1.7
		c-26.4-4.2-56.4-30.2-82.8-71.5c-11.4-17.8-21.2-36.1-41.8-77.4c-37.2-74.9-41.8-81.1-70.7-97.2c-27.9-15.4-73.3-29.1-121.5-36.5
		c-10.8-1.7-16.7-2.1-33.8-2.1c-20.3,0.1-29.3,0.7-69.8,5.5c-9.2,1-22.6,1.6-36,1.6v40.3c12.8,0,25.7-0.5,41.8-1.5
		c37.3-2.3,80.9-2.3,94.9-0.2c55,8.7,100.6,22.4,123.9,37.4c8.8,5.8,18.5,15.8,22.6,23.3c1.7,3.2,4.2,10.7,6,17.7
		c3.7,14.7,15.7,52.7,23.2,73.8c6.2,17.4,11.1,27.3,21,42.9c6.6,10.4,20.5,30.4,21.9,31.4c0.4,0.3,2.6,3.1,5,6.3
		c6.8,9,25.9,28.2,36.4,36.6c16.4,13.2,32.2,22.1,48.2,26.9c7.5,2.3,9.3,2.5,23.4,2.5c12.1,0,16.6-0.3,21.1-1.6
		c14.6-4.1,23-11.5,26.6-23.8C1848.1,1366.9,1848.1,1350,1846.3,1339.4z"/>
	<path id="structure87_text3052_SollM" bar:growlevel="0" bar:type="" d="M1426.8,1591.7c-4.9,2.3-7.6,6.8-8.7,14.8
		c-1.4,10.4-1.3,10.7,9,14.1c4.9,1.5,9.9,3.3,11.3,3.9c3.2,1.3,6.7-0.4,12.7-5.7c5.4-4.8,6.9-7.7,6.9-13.2c0-5.4-2.9-10.8-7.2-13.2
		C1446.2,1589.7,1432,1589.4,1426.8,1591.7z"/>
	<path id="structure88_text3054_SolM" bar:growlevel="0" bar:type="" class="st51" d="M1381.2,1577.7c-1.3,2.2-3.7,5.3-5.5,6.9
		l-3.2,3.1v13.3v13.3h4.1c4.4,0,33.5,2.4,38.1,3.2l2.9,0.5v-6.6c0.1-3.7,0.7-8.2,1.4-10.2c2.6-6.7,2.7-6.6-8.9-11.4
		c-8.9-3.8-11.6-5.5-16.8-10.3c-3.5-3.1-7.1-5.8-8-5.8C1384.1,1573.9,1382.6,1575.3,1381.2,1577.7z"/>
	<path class="st52" d="M1365.9,1593.3c-10.5,7.2-21.1,10.1-35.7,10.2v22c4.1,0,8.4,0.7,10.9,2c3.6,1.8,4.1,1.6,6.3-2
		c2.9-4.7,8.9-8.2,17.2-10l7-1.4v-11.6C1371.6,1589.6,1371.5,1589.5,1365.9,1593.3z"/>
	<path id="structure91_text3048_10N" bar:growlevel="0" bar:type="" class="st53" d="M1368.1,1615.4c-8.4,1.1-14.2,3.4-18.2,7.4
		c-4.5,4.5-5,6.3-2.7,10c2.4,3.8,3,3.9,31.6,4.6c12.2,0.4,29.2,1.2,37.8,1.8c8.6,0.7,22.3,1.5,30.3,1.9c13.6,0.5,14.7,0.5,15.2-1
		c0.9-2.3-2.6-4.9-14.5-10.7c-11.1-5.4-21.2-9.3-27.9-10.5c-3.8-0.7-45.5-4.7-45.8-4.3C1373.8,1614.6,1371.2,1614.9,1368.1,1615.4z"
		/>
	<path id="structure92_text3044_SolDL" bar:growlevel="0" bar:type="" class="st54" d="M1386.5,1567c-1.7,4.5-1.9,6.9-0.5,6.9
		c0.5,0,3.4,2.3,6.4,5c5.5,5,10.9,8.3,21.3,12.5c7,2.9,7.5,2.9,12.6,0.3c3.3-1.6,5.6-2,11.8-2c8.7,0.1,13.5,2,17.4,6.8
		c2.2,2.7,2.3,2.8,5.6,1.7c2.1-0.7,6.4-1,11.3-0.7c7.5,0.4,8.5,0.6,17.6,5.3c9.5,4.8,9.9,4.9,18.5,5.1c12,0.5,11.7-0.9-1.2-7
		c-16.5-7.8-31-13.3-42.5-16.1c-14.2-3.4-35.3-9.4-57.5-16.2c-9.8-3.1-18.1-5.5-18.5-5.5C1388.4,1563.1,1387.3,1564.8,1386.5,1567z"
		/>
	<path id="structure93_label80_sol" bar:growlevel="0" bar:type="" class="st55" d="M1461.8,1598.3l-3.9,0.9l0.6,4.1
		c0.4,3.1,0.2,5-1.1,7.7c-1.9,4.3-2.6,3.8,10.9,9.5c8.3,3.6,11,4.3,16.9,4.6c8.9,0.5,12.5-0.3,15.9-3.1c2-1.7,2.7-3.1,2.7-5.4
		c0-4.7-4.2-8.7-14.8-13.9c-8.1-4-9.8-4.5-16.3-4.9C1468.9,1597.6,1463.9,1597.7,1461.8,1598.3z"/>
	<path id="structure96_label83_A1-C1" bar:growlevel="0" bar:type="" class="st56" d="M1716.2,1839.4c-8.7,2.3-17.2,6.8-24.6,13.3
		l-3.3,2.9l3.1,7.9c1.7,4.3,3.6,10,4.2,12.5c0.6,2.6,1.3,4.8,1.4,4.8c0.3,0,5.8-1.8,12.3-4c13.7-4.6,27.8-7.7,35.5-7.7
		c2.9,0,8.5-0.3,12.6-0.6l7.5-0.5l-0.5-3.7c-1-6.6-4-12.1-9-16.7c-7-6.5-12.8-8.4-25.6-8.7C1724.1,1838.7,1718,1838.9,1716.2,1839.4
		z"/>
	<path id="structure97_label85_AmbL" bar:growlevel="0" bar:type="" class="st57" d="M1635.5,1760.6c-5.7,2.4-8.4,11.2-5.4,17.7
		c0.6,1.4,5.8,7.2,11.4,13c8.1,8.4,11.7,11.3,16.7,14c20.7,10.9,38.3,5.9,37-10.3c-0.6-6.8-3.7-12-11.8-20
		c-7-6.9-15.8-12.1-24.5-14.4C1652.5,1758.9,1639.4,1758.9,1635.5,1760.6z"/>
	<path class="st35" d="M1342,2006c-1.8-3.4-6.9-5.4-11.8-5.6v42.4c3.1,0,8.5-8.7,11.3-18.4C1343.2,2018.2,1343.5,2008.9,1342,2006z"
		/>
	<path id="structure99_label87_vert" bar:growlevel="0" bar:type="" class="st58" d="M1399,2096.9c-3,1.7-4.1,3.7-4.1,7.2
		c0,4.4,3.2,7.1,8.6,7.1c7,0,11.3-2.9,11.3-7.6c0-2.5-2.1-5.8-4-6.2C1405.7,2096.2,1400.6,2096,1399,2096.9z"/>
	<path class="st48" d="M1445.3,2019.4c-29.3-22.1-38.6-27.3-53.1-29.6c-3.4-0.6-32.7-0.9-62-0.9v11.1c5.9,0,11.8,3.2,13,9.8l0.5,2.9
		l18.2,0.1c18.4,0.2,35.6,1.3,44.7,3.1c2.7,0.5,13.8,3.6,24.5,6.8c10.8,3.2,20.4,5.8,21.4,5.8
		C1456,2028.4,1454.2,2026.1,1445.3,2019.4z"/>
	<text id="text3052" bar:growlevel="0" transform="matrix(1 0 0 1 1428.6982 1611.4883)" class="st59 st60 st61">SollM</text>
	<text id="text3056" bar:growlevel="0" transform="matrix(1 0 0 1 1338.8154 1614.4629)" class="st59 st60 st61">SolC</text>
	<text id="text3054" bar:growlevel="0" transform="matrix(1 0 0 1 1385.0928 1597.5137)" class="st59 st60 st61">SolM</text>
	<text id="label35" bar:growlevel="0" transform="matrix(1 0 0 1 1333.8965 1651.1074)" class="st59 st60 st61">CC</text>
	<text id="label37" bar:growlevel="0" transform="matrix(1 0 0 1 1373.1191 1689.0078)" class="st59 st60 st61">12N</text>
	<text id="label38" bar:growlevel="0" transform="matrix(1 0 0 1 1347.2705 1552.0273)" class="st59 st60 st61">AP</text>
	<text id="Unlabeled-2320-2104" bar:growlevel="0" transform="matrix(1 0 0 1 1778.374 1919.4961)" class="st59 st60 st61">grey</text>
	<text id="label9" bar:growlevel="0" transform="matrix(1 0 0 1 1472.0137 2024.5664)" class="st59 st60 st61">IOA</text>
	<text id="text3068" bar:growlevel="0" transform="matrix(1 0 0 1 1468.5479 1634.3867)" class="st59 st60 st61">SolV</text>
	<text id="label1" bar:growlevel="0" transform="matrix(1 0 0 1 1635.6338 1666.8418)" class="st59 st60 st61">MdD</text>
	<text id="label4" bar:growlevel="0" transform="matrix(1 0 0 1 1671.9326 1946.5215)" class="st59 st60 st61">LRt</text>
	<text id="label5" bar:growlevel="0" transform="matrix(1 0 0 1 1526.9424 1843.1836)" class="st59 st60 st61">MdV</text>
	<text id="label85" bar:growlevel="0" transform="matrix(1 0 0 1 1656.7217 1787.8242)" class="st59 st60 st61">AmbL</text>
	<text id="label87" bar:growlevel="0" transform="matrix(1 0 0 1 1405.8936 2104.9473)" class="st59 st60 st61">vert</text>
	<text id="label80" bar:growlevel="0" transform="matrix(1 0 0 1 1470.9121 1613.2227)" class="st59 st60 st61">sol</text>
	<text id="label83" bar:growlevel="0" transform="matrix(1 0 0 1 1735.082 1848.6758)" class="st59 st60 st61">A1-C1</text>
	<text id="text3072" bar:growlevel="0" transform="matrix(1 0 0 1 1444.46 1740.5938)" class="st59 st60 st61">12GH</text>
	<text id="text3074" bar:growlevel="0" transform="matrix(1 0 0 1 1442.21 1667.791)" class="st59 st60 st61">CeCv</text>
	<text id="label18" bar:growlevel="0" transform="matrix(1 0 0 1 1529.251 1586.7891)" class="st59 st60 st61">Mx</text>
	<text id="label19" bar:growlevel="0" transform="matrix(1 0 0 1 1387.9229 1406.5391)" class="st59 st60 st61">9cCb</text>
	<text id="label12" bar:growlevel="0" transform="matrix(1 0 0 1 1698.9912 1871.748)" class="st59 st60 st61">CVL</text>
	<text id="label13" bar:growlevel="0" transform="matrix(1 0 0 1 1563.5723 1547.7207)" class="st59 st60 st61">CuR</text>
	<text id="label16" bar:growlevel="0" transform="matrix(1 0 0 1 1719.9619 1434.8105)" class="st59 st60 st61">ECu</text>
	<text id="label17" bar:growlevel="0" transform="matrix(1 0 0 1 1435.1729 1539.5)" class="st59 st60 st61">Gr</text>
	<text id="label14" bar:growlevel="0" transform="matrix(1 0 0 1 1545.5137 1513.6055)" class="st59 st60 st61">Cu</text>
	<text id="label92" bar:growlevel="0" transform="matrix(1 0 0 1 1362.3643 1946.4902)" class="st59 st60 st61">IOBe</text>
	<text id="label93" bar:growlevel="0" transform="matrix(1 0 0 1 1354.0234 1766.7891)" class="st59 st60 st61">mlf</text>
	<text id="label94" bar:growlevel="0" transform="matrix(1 0 0 1 1689.0947 1828.4199)" class="st59 st60 st61">RVRG</text>
	<text id="label95" bar:growlevel="0" transform="matrix(1 0 0 1 1797.6631 1971.9668)" class="st59 st60 st61">vsc</text>
	<text id="label69" bar:growlevel="0" transform="matrix(1 0 0 1 1429.8936 2068.5234)" class="st59 st60 st61">py</text>
	<text id="label67" bar:growlevel="0" transform="matrix(1 0 0 1 1379.6436 2010.252)" class="st59 st60 st61">ml</text>
	<text id="label66" bar:growlevel="0" transform="matrix(1 0 0 1 1374.874 1844.4434)" class="st59 st60 st61">ts</text>
	<text id="label65" bar:growlevel="0" transform="matrix(1 0 0 1 1555.832 1759.168)" class="st59 st60 st61">ia</text>
	<text id="label62" bar:growlevel="0" transform="matrix(1 0 0 1 1834.2314 1870.1855)" class="st59 st60 st61">rs</text>
	<text id="label60" bar:growlevel="0" transform="matrix(1 0 0 1 1908.8447 1606.8926)" class="st59 st60 st61">sp5</text>
	<text id="Unlabeled-1391-1513_" bar:growlevel="0" transform="matrix(1 0 0 1 1374.874 1472.7383)" class="st59 st60 st61">9cCb</text>
	<text id="Unlabeled-1502-1401" bar:growlevel="0" transform="matrix(1 0 0 1 1379.6729 1322.7949)" class="st59 st60 st61">9cCb</text>
	<text id="label2" bar:growlevel="0" transform="matrix(1 0 0 1 1763.3125 1632.9043)" class="st59 st60 st61">Sp5C</text>
	<text id="label78" bar:growlevel="0" transform="matrix(1 0 0 1 1433.4033 1086.1191)" class="st59 st60 st61">sf</text>
	<text id="label75" bar:growlevel="0" transform="matrix(1 0 0 1 1449.7832 1246.4375)" class="st59 st60 st61">cbw</text>
	<text id="label76" bar:growlevel="0" transform="matrix(1 0 0 1 1437.3818 1189.7754)" class="st59 st60 st61">9a-bCb</text>
	<text id="label77" bar:growlevel="0" transform="matrix(1 0 0 1 1413.874 1013.2383)" class="st59 st60 st61">8Cb</text>
	<text id="label71" bar:growlevel="0" transform="matrix(1 0 0 1 1592.1045 1472.7383)" class="st59 st60 st61">cu</text>
	<text id="Unlabeled-1665-1218" bar:growlevel="0" transform="matrix(1 0 0 1 1405.8936 1127.4961)" class="st59 st60 st61">9a-bCb</text>
	<text id="label49" bar:growlevel="0" transform="matrix(1 0 0 1 1426.3545 1984.1191)" class="st59 st60 st61">IOB</text>
	<text id="label48" bar:growlevel="0" transform="matrix(1 0 0 1 1357.5332 1907.3633)" class="st59 st60 st61">IOK</text>
	<text id="label43" bar:growlevel="0" transform="matrix(1 0 0 1 1332.9854 1865.8652)" class="st59 st60 st61">mlx</text>
	<text id="label45" bar:growlevel="0" transform="matrix(1 0 0 1 1336.2314 2025.9141)" class="st59 st60 st61">RPa</text>
	<text id="label47" bar:growlevel="0" transform="matrix(1 0 0 1 1338.8125 1822.2969)" class="st59 st60 st61">ROb</text>
	<text id="Unlabeled-1797-1804" bar:growlevel="0" transform="matrix(1 0 0 1 1342.6709 1664.0391)" class="st59 st60 st61">grey</text>
	<text id="Unlabeled-2240-1105" bar:growlevel="0" transform="matrix(1 0 0 1 1919.6729 1339.8945)" class="st59 st60 st61">Crus2</text>
	<text id="label57" bar:growlevel="0" transform="matrix(1 0 0 1 1732.9814 1997.4961)" class="st59 st60 st61">LRtPC</text>
	<text id="label53" bar:growlevel="0" transform="matrix(1 0 0 1 1869.9033 1690.4844)" class="st59 st60 st61">Sp5I</text>
	<text id="label50" bar:growlevel="0" transform="matrix(1 0 0 1 1368.9033 1975.7461)" class="st59 st60 st61">IOC</text>
	<text id="label58" bar:growlevel="0" transform="matrix(1 0 0 1 1929.2412 1711.9102)" class="st59 st60 st61">dsc-oc</text>
	<text id="Unlabeled-1391-1513" bar:growlevel="0" transform="matrix(1 0 0 1 1338.8154 1582.6055)" class="st59 st60 st61">SubP</text>
	<text id="label0" bar:growlevel="0" transform="matrix(1 0 0 1 1599.6338 1736.3926)" class="st59 st60 st61">IRt</text>
	<text id="text3064" bar:growlevel="0" transform="matrix(1 0 0 1 1515.1064 1627.7637)" class="st59 st60 st61">SolVL</text>
	<text id="text3048" bar:growlevel="0" transform="matrix(1 0 0 1 1383.7422 1632.125)" class="st59 st60 st61">10N</text>
	<text id="text3044" bar:growlevel="0" transform="matrix(1 0 0 1 1415.4268 1585.4023)" class="st59 st60 st61">SolDL</text>
	<text id="label23" bar:growlevel="0" transform="matrix(1 0 0 1 1716.0625 1263.8398)" class="st59 st60 st61">Cop</text>
	<text id="label24" bar:growlevel="0" transform="matrix(1 0 0 1 1824.4521 1199.5684)" class="st59 st60 st61">PM</text>
</g>
</svg>
