<?xml version="1.0" encoding="utf-8"?>
<!-- Generator: Adobe Illustrator 24.1.1, SVG Export Plug-In . SVG Version: 6.00 Build 0)  -->
<svg version="1.1"
	 id="body" inkscape:version="0.47pre4 r22446" sodipodi:docname="198_pretrace_v1.svg" xmlns:bar="http://www.3dbar.org" xmlns:cc="http://creativecommons.org/ns#" xmlns:dc="http://purl.org/dc/elements/1.1/" xmlns:inkscape="http://www.inkscape.org/namespaces/inkscape" xmlns:rdf="http://www.w3.org/1999/02/22-rdf-syntax-ns#" xmlns:sodipodi="http://sodipodi.sourceforge.net/DTD/sodipodi-0.dtd" xmlns:svg="http://www.w3.org/2000/svg"
	 xmlns="http://www.w3.org/2000/svg" xmlns:xlink="http://www.w3.org/1999/xlink" x="0px" y="0px" viewBox="0 0 3024 3024"
	 style="enable-background:new 0 0 3024 3024;" xml:space="preserve">
<style type="text/css">
	.st0{fill:#FF000C;}
	.st1{fill:#00FFE3;}
	.st2{fill:#2CDF84;}
	.st3{fill:#59FF90;}
	.st4{fill:#8400FF;}
	.st5{fill:#00CF69;}
	.st6{fill:#00EF7A;}
	.st7{fill:#CE00D4;}
	.st8{fill:#66BFDF;}
	.st9{fill:#00FFAF;}
	.st10{fill:#2CFF93;}
	.st11{fill:#E959BF;}
	.st12{fill:#5523C7;}
	.st13{fill:#19C3FF;}
	.st14{fill:#8600FF;}
	.st15{fill:#B2FFFA;}
	.st16{fill:#B2FFC2;}
	.st17{fill:#00FF34;}
	.st18{fill:#00F448;}
	.st19{fill:#6C0BF2;}
	.st20{fill:#8EE9A9;}
	.st21{fill:#5B17C3;}
	.st22{fill:#FFB2C8;}
	.st23{fill:#00E2FF;}
	.st24{fill:#00C2FF;}
	.st25{fill:#19A0CF;}
	.st26{fill:#00FFAD;}
	.st27{fill:#866BCB;}
	.st28{fill:#85FFF5;}
	.st29{fill:#00FFA3;}
	.st30{fill:#00FF7B;}
	.st31{fill:#B88EF2;}
	.st32{fill:#873BFF;}
	.st33{fill:#8553C7;}
	.st34{fill:#FFB2E6;}
	.st35{fill:#85FFC1;}
	.st36{fill:#59FFF2;}
	.st37{fill:#59FFAC;}
	.st38{fill:#6100FA;}
	.st39{fill:#642FE1;}
	.st40{fill:#650BE1;}
	.st41{fill:#2CDFD0;}
	.st42{fill:#00EFD6;}
	.st43{fill:#6517F6;}
	.st44{fill:#C49AFA;}
	.st45{fill:#66B0C7;}
	.st46{fill:#85DFD7;}
	.st47{fill:#FFB2BA;}
	.st48{fill:#232323;enable-background:new    ;}
	.st49{font-family:'TimesNewRomanPSMT';}
	.st50{font-size:27px;}
</style>
<sodipodi:namedview  bordercolor="#666666" borderopacity="1" gridtolerance="10" guidetolerance="10" id="namedview213" inkscape:current-layer="content" inkscape:cx="527.91867" inkscape:cy="500.37388" inkscape:object-paths="true" inkscape:pageopacity="0" inkscape:pageshadow="2" inkscape:window-height="948" inkscape:window-maximized="1" inkscape:window-width="1272" inkscape:window-x="0" inkscape:window-y="25" inkscape:zoom="2.5589685" objecttolerance="10" pagecolor="#ffffff" showgrid="false">
	</sodipodi:namedview>
<desc  id="desc5">This was produced by version 4.2 of GNU libplot, a free library for exporting 2-D vector graphics.</desc>
<defs>
	
		<inkscape:perspective  id="perspective68068" inkscape:persp3d-origin="504 : 336 : 1" inkscape:vp_x="0 : 504 : 1" inkscape:vp_y="0 : 1000 : 0" inkscape:vp_z="1008 : 504 : 1" sodipodi:type="inkscape:persp3d">
		</inkscape:perspective>
	<bar:data  content="-14.64" name="coronalcoord"></bar:data>
	
		<bar:data  content="{&apos;ReferenceHeight&apos;: 900, &apos;ReferenceWidth&apos;: 1200, &apos;imageSize&apos;: (1200, 900)}" name="rendererConf">
		</bar:data>
	
		<bar:data  content="{&apos;DumpEachStepSVG&apos;: False, &apos;DumpEachStepPNG&apos;: False, &apos;GrowDefaultBoundaryColor&apos;: 200, &apos;CacheLevel&apos;: 5, &apos;NewPathIdTemplate&apos;: &apos;structure%d_%s_%s&apos;, &apos;PoTraceConf&apos;: {&apos;potrace_accuracy_parameter&apos;: &apos;0.001&apos;, &apos;potrace_width_string&apos;: &apos;1200pt&apos;, &apos;potrace_svg_resolution_string&apos;: &apos;300x300&apos;, &apos;potrace_height_string&apos;: &apos;900pt&apos;}, &apos;DetectUnlabelled&apos;: True, &apos;DumpVBrain&apos;: False, &apos;DumpWrongSeed&apos;: True, &apos;DumpDirectory&apos;: &apos;.&apos;, &apos;MinFiterTimesApplication&apos;: 3, &apos;RegionAlreadyTraced&apos;: 100, &apos;UnlabelledTreshold&apos;: 500}" name="tracingConf">
		</bar:data>
	<bar:data  content="0.0176211454,-9.5150660793,0.0176211454,-1.5355884426" name="transformationmatrix"></bar:data>
</defs>
<g id="content">
	<path class="st0" d="M1920.4,1602.7c-26.4-61.9-74.7-114.9-130-142.5c-27.1-13.5-52.2-19.7-79.3-19.7c-22.7,0-35.7,2.7-46.3,9.4
		c-4,2.6-5.8,3.1-9.6,3.1c-5.3,0-7.1-1-12.6-6.9c-3.7-4.1-9.2-7.5-11.9-7.5c-0.9,0-1.3-0.6-1.2-1.4c0.2-0.8,3.7-2.8,8.5-4.8
		c12.7-5.2,20.6-10.3,28.6-18.4c15.3-15.4,21.2-36.3,15.8-56.7c-1.1-4-2.9-8.8-4-10.9c-4-6.7-11.1-12-19.7-14.8
		c-3.8-1.2-3.8-0.9-1-8.1c2-5.4,2-20.3,0-34.6c-0.9-5.9-3.7-21.8-6.4-35.1c-2.7-13.4-6.1-31.6-7.7-40.5
		c-4.3-25.6-9.5-42.8-17.6-58.9c-9.6-19.4-23.6-34.5-38.7-42c-6-3.1-45.5-18.5-68-26.7c-44.6-16.1-76-25.7-103.1-31.7
		c-3.2-0.6-2.4-2.4,2.1-4.8c7.9-4.2,13.9-13.6,13.9-21.6c-0.1-8.8-7.7-17.4-21.9-24.3c-17.8-8.6-45.5-15.5-62.7-16.1v506.9
		c13.6,0,29.3-0.3,34.9-0.7c8.1-0.5,10.1-0.4,10.1,0.5c0,0.7-2.8,2.1-6.8,3.3c-16.5,5-30.2,14.7-34.7,24.3c-1.2,2.4-2.5,4.4-3.2,4.5
		c-0.1,0-0.1,0-0.2-0.1v489.8c1.5-0.2,2.9,0.4,4.1,1.7c2.7,3.1,17.1,12.3,25.8,16.7c4.3,2.3,11.6,5.3,16.2,6.8
		c12,4,19.7,4.1,50.6,0.8c13.9-1.4,25.4-2.5,25.6-2.3c0.2,0.2-0.4,1.9-1.2,3.9c-2,4.3-1.3,8,2,11.2c3.2,3.1,6.6,4.2,12.3,4.2
		c11,0,14.5-10.2,5.9-17.3c-1.5-1.3-2.8-2.8-2.8-3.2c0-0.4,2.7-1.2,6.1-1.5c17.3-1.8,44-5.1,51.8-6.4c8.6-1.5,8.8-1.5,10.8,0.3
		c7.2,6.6,20.4,7.9,40.7,4.1c12-2.2,39.4-8.8,68.6-16.5c15.1-4,35.5-9.3,45.2-11.7c19.9-4.9,28.3-7.7,37.2-12.3
		c6.8-3.5,20.3-14.4,27.6-22.2c4.9-5.2,4.9-5.5,3.2-11c-0.5-1.5,0.4-2.4,4.3-5.1c8.2-5.4,16.7-13.9,24.8-24.9
		c13.5-18.4,22.2-26,37.3-32.5c12.5-5.5,20.5-11.4,35.4-26.4c22.1-22.2,33.8-38.4,46.3-64c14.6-29.6,22-53.5,23.1-74.7
		C1950.2,1703,1937.1,1642,1920.4,1602.7z"/>
	<path class="st1" d="M1380.9,1583.3l-1.2-3.9l-7.2-0.6c-3.7-0.3-14.1-0.4-24.8-0.4v56.5c0,0,0,0,0.1,0c1.5,0,6.2-10.6,6.2-13.9
		c0-2.9,3.2-7.4,7.3-10.1c3.4-2.3,19.3-19.8,20.3-22.6C1381.8,1587.8,1381.5,1585.4,1380.9,1583.3z"/>
	<path id="structure12_label11_Gr" bar:growlevel="0" bar:type="" class="st2" d="M1487.1,1485.2c-10.7,2-21.6,3-47.9,4.4
		c-25.9,1.5-32,2.4-47.8,6.9c-8.7,2.5-10.4,3.3-14.6,7.2c-12.3,11.3-12.8,26.5-1.3,39c6.2,6.8,11.3,8.8,22.1,9.3
		c7.5,0.3,10.9,0,17.5-1.6c13-3.1,17.8-6.3,19.2-12.6c1.2-5.1,8.4-9.7,13.8-8.7c1.4,0.3,4,1.1,6,1.8s6.7,1.6,10.4,2l6.9,0.6l5.3-5.3
		c11.6-11.6,17.7-24,19.5-39.7C1497.2,1483,1497.8,1483.2,1487.1,1485.2z"/>
	<path id="structure13_label12_Cu" bar:growlevel="0" bar:type="" class="st3" d="M1604.1,1509.1c-28.5,14.5-72.6,23.5-119.7,24.5
		l-13.1,0.3l-6.7,4.7c-3.7,2.6-8.3,5.7-10.1,6.7c-1.9,1.1-3.4,2.4-3.4,3.1c0,1.9,24.6,6.8,50.4,9.9c16.6,2,60.9,2.3,70.7,0.5
		c14.4-2.7,14.6-2.8,16.9-6.4c4-5.9,12.9-15.7,19.1-20.8l5.9-4.9l-0.5-4.1c-0.4-2.6-0.1-6.1,0.8-9.5
		C1617,1502.8,1616.7,1502.7,1604.1,1509.1z"/>
	<path class="st4" d="M1527.5,2019.7c-5.5-1.6-20.6-3.7-33.6-4.5c-15.8-1.1-26.7-5.1-39.2-14.6c-3.4-2.6-6.7-4.8-7.1-4.8
		s-2.1,0.7-3.6,1.5c-2.6,1.5-2.8,1.5-5.1-0.3c-4.7-3.4-6.2-6.4-6.2-11.9c0-5-0.1-5.2-6.8-13.3c-9.2-11.1-24.6-31.6-29-39
		c-14.8-24.4-24.4-60.6-26.6-100.4c-0.7-12.6-1.1-15.1-3.1-19.4c-4.2-9.2-13.1-17-19.6-17v216.8l4.2,3.7c15.8,13.9,44.8,27,59.7,27
		c6.7,0,119.4-11.8,124.9-13.1C1541.6,2029.2,1535.7,2022.1,1527.5,2019.7z"/>
	<path class="st5" d="M1856.4,1887.3c-10.2,2.3-13.6,2.6-17.5,1.5c-5.8-1.6-10.3-5.7-11.6-10.3c-2.1-7.6,3.1-21.5,11-29.4
		c2.4-2.4,4.4-4.8,4.4-5.2c0-0.4-2.1-1.1-4.6-1.4c-2.5-0.4-6.3-1.6-8.5-2.8c-5-3.1-18.3-17.1-28.2-30.1
		c-15.5-20.3-22.3-31.5-46.1-75.3c-27.3-50.3-52.7-86.7-75.4-107.6c-25.6-23.6-58.3-32.2-98.9-26c-13.2,2.1-41.3,2.7-53.6,1.3
		c-7.2-0.8-8,0.4-2.9,4c4.1,2.9,9,9.5,10.7,14.4c1.9,5.3,1.7,12-0.4,16.1c-2.1,4-7.6,9.1-11.6,10.8c-1.5,0.6-2.9,1.7-2.9,2.3
		c0,0.5,3.5,1.9,7.7,3.1c22.8,6,51.1,20.5,87.8,44.9c28.4,18.8,43.6,31.5,72.3,60.1c38,37.9,71.6,78.2,95.3,114.5
		c6.8,10.4,8,13.4,6.8,17.5c-1.4,5-1.3,5,7.4,5.4c7.6,0.3,8.3,0.4,10.3,2.8c2.6,3.1,2.6,3.2,0.1,7c-3.1,4.8-11.1,10.4-26.9,19.6
		c-34.4,19.8-40,23.9-66.5,50.2c-10.7,10.5-20.1,19.2-21,19.2c-2.5,0-2.5-2.3-0.1-9.2c3.1-8.4,3.7-11.5,2.3-11.5
		c-0.6,0-3.4,1.4-6.3,3.2c-20.8,12.6-49.9,17-68.2,10.2c-6-2.3-13.7-9.5-15.6-14.5c-1.1-3.2-3.5-4.6-3.5-2.2c0,0.7-0.7,2-1.7,2.8
		c-1.4,1.3-2.3,1.4-5.9,0.5c-8.2-1.8-20.1-1.3-28.7,1.3c-10.3,3.1-13.9,3.1-15.2,0.1c-0.8-1.9-0.7-2.5,0.7-4.1
		c4.7-5.2,24.5-12.1,42.6-14.7l7.7-1.1l0.5-4c1.4-9,9.1-24,17.9-34.7c10.3-12.3,58.7-49.8,66.3-51.2c1.7-0.4,3.3-1.2,3.6-1.8
		c1-2.5-13.6-26.5-26.7-44c-12.1-16-22.9-27.9-40.9-44.8c-44.9-42.1-87.6-72.5-134.9-96.1c-19.1-9.4-23.6-11.1-24.3-8.7
		c-2,6.5-4.1,10.5-7.5,14.2c-7.5,8.4-17.5,10.6-25.9,5.9c-2.3-1.3-4.8-2.3-5.3-2.3c-0.5,0-1.8,1.8-2.7,3.9
		c-2.4,5.3-11.9,14.1-19.2,17.9c-7.3,3.9-21.5,7.9-27.4,7.9c-2.9,0-4.3,0.4-4.3,1.1c0,0.9-5.3,1.2-23.4,1.2v25
		c8.6,0.1,16.4,14.5,20.2,37.5c0.7,4.7,1.8,19.7,2.3,33.3c1.5,40.5,4.5,61.1,12.5,85.5c7.2,21.8,13.6,33.2,32.2,57.3
		c23.5,30.6,40.2,45.9,57.8,53c5.6,2.3,11.3,3.2,31.3,4.9c23.6,2.1,32.8,5.7,35.6,13.8c0.1,0.4,9.1-1,20-3
		c57.7-10.6,74.3-13.6,88.7-15.8c30.4-4.5,45.2-9.5,83.7-28.8c51.4-25.7,58.1-30.4,75.2-53.3c13.5-17.9,18.3-22,36.9-31.3
		c9.9-5,14.4-7.7,14.6-8.9C1858.9,1886.9,1858.7,1886.7,1856.4,1887.3z M1423.9,1801.6c-0.3,0.7-0.5,0.4-0.5-0.5
		c-0.1-1,0.2-1.5,0.4-1.2C1424.1,1800.2,1424.1,1801,1423.9,1801.6z M1424.8,1807c-0.3,0.7-0.5,0.4-0.5-0.5c-0.1-1,0.2-1.5,0.4-1.2
		C1425,1805.6,1425,1806.4,1424.8,1807z M1425.7,1813.3c-0.3,0.7-0.5,0.5-0.5-0.5c-0.1-1,0.2-1.5,0.5-1.2
		C1425.9,1811.9,1425.9,1812.7,1425.7,1813.3z M1426.6,1818.7c-0.3,0.7-0.5,0.5-0.5-0.5c-0.1-1,0.2-1.5,0.5-1.2
		C1426.8,1817.3,1426.8,1818.1,1426.6,1818.7z M1429.3,1834.9c-0.3,0.7-0.5,0.4-0.5-0.5c-0.1-1,0.2-1.5,0.4-1.2
		C1429.5,1833.5,1429.5,1834.3,1429.3,1834.9z M1439.9,1709.6c2.3-2.3,8.3-4.6,10.3-4.1c0.7,0.2,2.3,0.6,3.6,0.9
		c4.9,1.3,7.7,5.8,9,13.8c0.6,3.3,0.5,6.3-0.1,8.6c-1.9,6.8-9.7,12.1-16.3,10.7c-6-1.2-11.5-9.3-11.5-17
		C1434.9,1718.5,1437.5,1712,1439.9,1709.6z M1515.3,2010c-5.4,1.6-16.2,1.4-23.9-0.6c-17.3-4.5-45-22.3-54.7-35.2
		c-4.5-5.9-4.6-8.3-0.4-10.6c2.4-1.4,9-1.3,20.3,0.3c17.7,2.5,35.1,7.6,43.8,12.6c4.1,2.4,6.6,2.9,6.6,1.1c0-0.5,1.2,0.4,2.5,2.1
		c1.3,1.7,4.8,5.4,7.6,8.1c6,5.6,7.8,8.5,7.8,12.7C1524.9,2004,1520.4,2008.5,1515.3,2010z M1556.3,2015.6c-0.2,0-1.3-1-2.5-2.3
		c-1.2-1.3-1.9-2.3-1.6-2.3c0.2,0,1.4,1,2.5,2.3C1555.8,2014.6,1556.5,2015.6,1556.3,2015.6z"/>
	<path class="st6" d="M1856.4,1887.3c-10.2,2.3-13.6,2.6-17.5,1.5c-5.8-1.6-10.3-5.7-11.6-10.3c-2.1-7.6,3.1-21.5,11-29.4
		c2.4-2.4,4.4-4.8,4.4-5.2c0-0.4-2.1-1.1-4.6-1.4c-2.5-0.4-6.3-1.6-8.5-2.8c-5-3.1-18.3-17.1-28.2-30.1
		c-15.5-20.3-22.3-31.5-46.1-75.3c-27.3-50.3-52.7-86.7-75.4-107.6c-25.6-23.6-58.3-32.2-98.9-26c-13.2,2.1-41.3,2.7-53.6,1.3
		c-7.2-0.8-8,0.4-2.9,4c4.1,2.9,9,9.5,10.7,14.4c1.9,5.3,1.7,12-0.4,16.1c-2.1,4-7.6,9.1-11.6,10.8c-1.5,0.6-2.9,1.7-2.9,2.3
		c0,0.5,3.5,1.9,7.7,3.1c22.8,6,51.1,20.5,87.8,44.9c28.4,18.8,43.6,31.5,72.3,60.1c38,37.9,71.6,78.2,95.3,114.5
		c6.8,10.4,8,13.4,6.8,17.5c-1.4,5-1.3,5,7.4,5.4c7.6,0.3,8.3,0.4,10.3,2.8c2.6,3.1,2.6,3.2,0.1,7c-3.1,4.8-11.1,10.4-26.9,19.6
		c-34.4,19.8-40,23.9-66.5,50.2c-10.7,10.5-20.1,19.2-21,19.2c-2.5,0-2.5-2.3-0.1-9.2c3.1-8.4,3.7-11.5,2.3-11.5
		c-0.6,0-3.4,1.4-6.3,3.2c-20.8,12.6-49.9,17-68.2,10.2c-6-2.3-13.7-9.5-15.6-14.5c-1.1-3.2-3.5-4.6-3.5-2.2c0,0.7-0.7,2-1.7,2.8
		c-1.4,1.3-2.3,1.4-5.9,0.5c-8.2-1.8-20.1-1.3-28.7,1.3c-10.3,3.1-13.9,3.1-15.2,0.1c-0.8-1.9-0.7-2.5,0.7-4.1
		c4.7-5.2,24.5-12.1,42.6-14.7l7.7-1.1l0.5-4c1.4-9,9.1-24,17.9-34.7c10.3-12.3,58.7-49.8,66.3-51.2c1.7-0.4,3.3-1.2,3.6-1.8
		c1-2.5-13.6-26.5-26.7-44c-12.1-16-22.9-27.9-40.9-44.8c-44.9-42.1-87.6-72.5-134.9-96.1c-19.1-9.4-23.6-11.1-24.3-8.7
		c-2,6.5-4.1,10.5-7.5,14.2c-7.5,8.4-17.5,10.6-25.9,5.9c-2.3-1.3-4.8-2.3-5.3-2.3c-0.5,0-1.8,1.8-2.7,3.9
		c-2.4,5.3-11.9,14.1-19.2,17.9c-7.3,3.9-21.5,7.9-27.4,7.9c-2.9,0-4.3,0.4-4.3,1.1c0,0.9-5.3,1.2-23.4,1.2v25
		c8.6,0.1,16.4,14.5,20.2,37.5c0.7,4.7,1.8,19.7,2.3,33.3c1.5,40.5,4.5,61.1,12.5,85.5c7.2,21.8,13.6,33.2,32.2,57.3
		c23.5,30.6,40.2,45.9,57.8,53c5.6,2.3,11.3,3.2,31.3,4.9c23.6,2.1,32.8,5.7,35.6,13.8c0.1,0.4,9.1-1,20-3
		c57.7-10.6,74.3-13.6,88.7-15.8c30.4-4.5,45.2-9.5,83.7-28.8c51.4-25.7,58.1-30.4,75.2-53.3c13.5-17.9,18.3-22,36.9-31.3
		c9.9-5,14.4-7.7,14.6-8.9C1858.9,1886.9,1858.7,1886.7,1856.4,1887.3z M1423.9,1801.6c-0.3,0.7-0.5,0.4-0.5-0.5
		c-0.1-1,0.2-1.5,0.4-1.2C1424.1,1800.2,1424.1,1801,1423.9,1801.6z M1424.8,1807c-0.3,0.7-0.5,0.4-0.5-0.5c-0.1-1,0.2-1.5,0.4-1.2
		C1425,1805.6,1425,1806.4,1424.8,1807z M1425.7,1813.3c-0.3,0.7-0.5,0.5-0.5-0.5c-0.1-1,0.2-1.5,0.5-1.2
		C1425.9,1811.9,1425.9,1812.7,1425.7,1813.3z M1426.6,1818.7c-0.3,0.7-0.5,0.5-0.5-0.5c-0.1-1,0.2-1.5,0.5-1.2
		C1426.8,1817.3,1426.8,1818.1,1426.6,1818.7z M1429.3,1834.9c-0.3,0.7-0.5,0.4-0.5-0.5c-0.1-1,0.2-1.5,0.4-1.2
		C1429.5,1833.5,1429.5,1834.3,1429.3,1834.9z M1439.9,1709.6c2.3-2.3,8.3-4.6,10.3-4.1c0.7,0.2,2.3,0.6,3.6,0.9
		c4.9,1.3,7.7,5.8,9,13.8c0.6,3.3,0.5,6.3-0.1,8.6c-1.9,6.8-9.7,12.1-16.3,10.7c-6-1.2-11.5-9.3-11.5-17
		C1434.9,1718.5,1437.5,1712,1439.9,1709.6z M1515.3,2010c-5.4,1.6-16.2,1.4-23.9-0.6c-17.3-4.5-45-22.3-54.7-35.2
		c-4.5-5.9-4.6-8.3-0.4-10.6c2.4-1.4,9-1.3,20.3,0.3c17.7,2.5,35.1,7.6,43.8,12.6c4.1,2.4,6.6,2.9,6.6,1.1c0-0.5,1.2,0.4,2.5,2.1
		c1.3,1.7,4.8,5.4,7.6,8.1c6,5.6,7.8,8.5,7.8,12.7C1524.9,2004,1520.4,2008.5,1515.3,2010z M1556.3,2015.6c-0.2,0-1.3-1-2.5-2.3
		c-1.2-1.3-1.9-2.3-1.6-2.3c0.2,0,1.4,1,2.5,2.3C1555.8,2014.6,1556.5,2015.6,1556.3,2015.6z"/>
	<path class="st7" d="M1856.4,1887.3c-10.2,2.3-13.6,2.6-17.5,1.5c-5.8-1.6-10.3-5.7-11.6-10.3c-2.1-7.6,3.1-21.5,11-29.4
		c2.4-2.4,4.4-4.8,4.4-5.2c0-0.4-2.1-1.1-4.6-1.4c-2.5-0.4-6.3-1.6-8.5-2.8c-5-3.1-18.3-17.1-28.2-30.1
		c-15.5-20.3-22.3-31.5-46.1-75.3c-27.3-50.3-52.7-86.7-75.4-107.6c-25.6-23.6-58.3-32.2-98.9-26c-13.2,2.1-41.3,2.7-53.6,1.3
		c-7.2-0.8-8,0.4-2.9,4c4.1,2.9,9,9.5,10.7,14.4c1.9,5.3,1.7,12-0.4,16.1c-2.1,4-7.6,9.1-11.6,10.8c-1.5,0.6-2.9,1.7-2.9,2.3
		c0,0.5,3.5,1.9,7.7,3.1c22.8,6,51.1,20.5,87.8,44.9c28.4,18.8,43.6,31.5,72.3,60.1c38,37.9,71.6,78.2,95.3,114.5
		c6.8,10.4,8,13.4,6.8,17.5c-1.4,5-1.3,5,7.4,5.4c7.6,0.3,8.3,0.4,10.3,2.8c2.6,3.1,2.6,3.2,0.1,7c-3.1,4.8-11.1,10.4-26.9,19.6
		c-34.4,19.8-40,23.9-66.5,50.2c-10.7,10.5-20.1,19.2-21,19.2c-2.5,0-2.5-2.3-0.1-9.2c3.1-8.4,3.7-11.5,2.3-11.5
		c-0.6,0-3.4,1.4-6.3,3.2c-20.8,12.6-49.9,17-68.2,10.2c-6-2.3-13.7-9.5-15.6-14.5c-1.1-3.2-3.5-4.6-3.5-2.2c0,0.7-0.7,2-1.7,2.8
		c-1.4,1.3-2.3,1.4-5.9,0.5c-8.2-1.8-20.1-1.3-28.7,1.3c-10.3,3.1-13.9,3.1-15.2,0.1c-0.8-1.9-0.7-2.5,0.7-4.1
		c4.7-5.2,24.5-12.1,42.6-14.7l7.7-1.1l0.5-4c1.4-9,9.1-24,17.9-34.7c10.3-12.3,58.7-49.8,66.3-51.2c1.7-0.4,3.3-1.2,3.6-1.8
		c1-2.5-13.6-26.5-26.7-44c-12.1-16-22.9-27.9-40.9-44.8c-44.9-42.1-87.6-72.5-134.9-96.1c-19.1-9.4-23.6-11.1-24.3-8.7
		c-2,6.5-4.1,10.5-7.5,14.2c-7.5,8.4-17.5,10.6-25.9,5.9c-2.3-1.3-4.8-2.3-5.3-2.3c-0.5,0-1.8,1.8-2.7,3.9
		c-2.4,5.3-11.9,14.1-19.2,17.9c-7.3,3.9-21.5,7.9-27.4,7.9c-2.9,0-4.3,0.4-4.3,1.1c0,0.9-5.3,1.2-23.4,1.2v25
		c8.6,0.1,16.4,14.5,20.2,37.5c0.7,4.7,1.8,19.7,2.3,33.3c1.5,40.5,4.5,61.1,12.5,85.5c7.2,21.8,13.6,33.2,32.2,57.3
		c23.5,30.6,40.2,45.9,57.8,53c5.6,2.3,11.3,3.2,31.3,4.9c23.6,2.1,32.8,5.7,35.6,13.8c0.1,0.4,9.1-1,20-3
		c57.7-10.6,74.3-13.6,88.7-15.8c30.4-4.5,45.2-9.5,83.7-28.8c51.4-25.7,58.1-30.4,75.2-53.3c13.5-17.9,18.3-22,36.9-31.3
		c9.9-5,14.4-7.7,14.6-8.9C1858.9,1886.9,1858.7,1886.7,1856.4,1887.3z M1423.9,1801.6c-0.3,0.7-0.5,0.4-0.5-0.5
		c-0.1-1,0.2-1.5,0.4-1.2C1424.1,1800.2,1424.1,1801,1423.9,1801.6z M1424.8,1807c-0.3,0.7-0.5,0.4-0.5-0.5c-0.1-1,0.2-1.5,0.4-1.2
		C1425,1805.6,1425,1806.4,1424.8,1807z M1425.7,1813.3c-0.3,0.7-0.5,0.5-0.5-0.5c-0.1-1,0.2-1.5,0.5-1.2
		C1425.9,1811.9,1425.9,1812.7,1425.7,1813.3z M1426.6,1818.7c-0.3,0.7-0.5,0.5-0.5-0.5c-0.1-1,0.2-1.5,0.5-1.2
		C1426.8,1817.3,1426.8,1818.1,1426.6,1818.7z M1429.3,1834.9c-0.3,0.7-0.5,0.4-0.5-0.5c-0.1-1,0.2-1.5,0.4-1.2
		C1429.5,1833.5,1429.5,1834.3,1429.3,1834.9z M1439.9,1709.6c2.3-2.3,8.3-4.6,10.3-4.1c0.7,0.2,2.3,0.6,3.6,0.9
		c4.9,1.3,7.7,5.8,9,13.8c0.6,3.3,0.5,6.3-0.1,8.6c-1.9,6.8-9.7,12.1-16.3,10.7c-6-1.2-11.5-9.3-11.5-17
		C1434.9,1718.5,1437.5,1712,1439.9,1709.6z M1515.3,2010c-5.4,1.6-16.2,1.4-23.9-0.6c-17.3-4.5-45-22.3-54.7-35.2
		c-4.5-5.9-4.6-8.3-0.4-10.6c2.4-1.4,9-1.3,20.3,0.3c17.7,2.5,35.1,7.6,43.8,12.6c4.1,2.4,6.6,2.9,6.6,1.1c0-0.5,1.2,0.4,2.5,2.1
		c1.3,1.7,4.8,5.4,7.6,8.1c6,5.6,7.8,8.5,7.8,12.7C1524.9,2004,1520.4,2008.5,1515.3,2010z M1556.3,2015.6c-0.2,0-1.3-1-2.5-2.3
		c-1.2-1.3-1.9-2.3-1.6-2.3c0.2,0,1.4,1,2.5,2.3C1555.8,2014.6,1556.5,2015.6,1556.3,2015.6z"/>
	<path class="st7" d="M1856.4,1887.3c-10.2,2.3-13.6,2.6-17.5,1.5c-5.8-1.6-10.3-5.7-11.6-10.3c-2.1-7.6,3.1-21.5,11-29.4
		c2.4-2.4,4.4-4.8,4.4-5.2c0-0.4-2.1-1.1-4.6-1.4c-2.5-0.4-6.3-1.6-8.5-2.8c-5-3.1-18.3-17.1-28.2-30.1
		c-15.5-20.3-22.3-31.5-46.1-75.3c-27.3-50.3-52.7-86.7-75.4-107.6c-25.6-23.6-58.3-32.2-98.9-26c-13.2,2.1-41.3,2.7-53.6,1.3
		c-7.2-0.8-8,0.4-2.9,4c4.1,2.9,9,9.5,10.7,14.4c1.9,5.3,1.7,12-0.4,16.1c-2.1,4-7.6,9.1-11.6,10.8c-1.5,0.6-2.9,1.7-2.9,2.3
		c0,0.5,3.5,1.9,7.7,3.1c22.8,6,51.1,20.5,87.8,44.9c28.4,18.8,43.6,31.5,72.3,60.1c38,37.9,71.6,78.2,95.3,114.5
		c6.8,10.4,8,13.4,6.8,17.5c-1.4,5-1.3,5,7.4,5.4c7.6,0.3,8.3,0.4,10.3,2.8c2.6,3.1,2.6,3.2,0.1,7c-3.1,4.8-11.1,10.4-26.9,19.6
		c-34.4,19.8-40,23.9-66.5,50.2c-10.7,10.5-20.1,19.2-21,19.2c-2.5,0-2.5-2.3-0.1-9.2c3.1-8.4,3.7-11.5,2.3-11.5
		c-0.6,0-3.4,1.4-6.3,3.2c-20.8,12.6-49.9,17-68.2,10.2c-6-2.3-13.7-9.5-15.6-14.5c-1.1-3.2-3.5-4.6-3.5-2.2c0,0.7-0.7,2-1.7,2.8
		c-1.4,1.3-2.3,1.4-5.9,0.5c-8.2-1.8-20.1-1.3-28.7,1.3c-10.3,3.1-13.9,3.1-15.2,0.1c-0.8-1.9-0.7-2.5,0.7-4.1
		c4.7-5.2,24.5-12.1,42.6-14.7l7.7-1.1l0.5-4c1.4-9,9.1-24,17.9-34.7c10.3-12.3,58.7-49.8,66.3-51.2c1.7-0.4,3.3-1.2,3.6-1.8
		c1-2.5-13.6-26.5-26.7-44c-12.1-16-22.9-27.9-40.9-44.8c-44.9-42.1-87.6-72.5-134.9-96.1c-19.1-9.4-23.6-11.1-24.3-8.7
		c-2,6.5-4.1,10.5-7.5,14.2c-7.5,8.4-17.5,10.6-25.9,5.9c-2.3-1.3-4.8-2.3-5.3-2.3c-0.5,0-1.8,1.8-2.7,3.9
		c-2.4,5.3-11.9,14.1-19.2,17.9c-7.3,3.9-21.5,7.9-27.4,7.9c-2.9,0-4.3,0.4-4.3,1.1c0,0.9-5.3,1.2-23.4,1.2v25
		c8.6,0.1,16.4,14.5,20.2,37.5c0.7,4.7,1.8,19.7,2.3,33.3c1.5,40.5,4.5,61.1,12.5,85.5c7.2,21.8,13.6,33.2,32.2,57.3
		c23.5,30.6,40.2,45.9,57.8,53c5.6,2.3,11.3,3.2,31.3,4.9c23.6,2.1,32.8,5.7,35.6,13.8c0.1,0.4,9.1-1,20-3
		c57.7-10.6,74.3-13.6,88.7-15.8c30.4-4.5,45.2-9.5,83.7-28.8c51.4-25.7,58.1-30.4,75.2-53.3c13.5-17.9,18.3-22,36.9-31.3
		c9.9-5,14.4-7.7,14.6-8.9C1858.9,1886.9,1858.7,1886.7,1856.4,1887.3z M1423.9,1801.6c-0.3,0.7-0.5,0.4-0.5-0.5
		c-0.1-1,0.2-1.5,0.4-1.2C1424.1,1800.2,1424.1,1801,1423.9,1801.6z M1424.8,1807c-0.3,0.7-0.5,0.4-0.5-0.5c-0.1-1,0.2-1.5,0.4-1.2
		C1425,1805.6,1425,1806.4,1424.8,1807z M1425.7,1813.3c-0.3,0.7-0.5,0.5-0.5-0.5c-0.1-1,0.2-1.5,0.5-1.2
		C1425.9,1811.9,1425.9,1812.7,1425.7,1813.3z M1426.6,1818.7c-0.3,0.7-0.5,0.5-0.5-0.5c-0.1-1,0.2-1.5,0.5-1.2
		C1426.8,1817.3,1426.8,1818.1,1426.6,1818.7z M1429.3,1834.9c-0.3,0.7-0.5,0.4-0.5-0.5c-0.1-1,0.2-1.5,0.4-1.2
		C1429.5,1833.5,1429.5,1834.3,1429.3,1834.9z M1439.9,1709.6c2.3-2.3,8.3-4.6,10.3-4.1c0.7,0.2,2.3,0.6,3.6,0.9
		c4.9,1.3,7.7,5.8,9,13.8c0.6,3.3,0.5,6.3-0.1,8.6c-1.9,6.8-9.7,12.1-16.3,10.7c-6-1.2-11.5-9.3-11.5-17
		C1434.9,1718.5,1437.5,1712,1439.9,1709.6z M1515.3,2010c-5.4,1.6-16.2,1.4-23.9-0.6c-17.3-4.5-45-22.3-54.7-35.2
		c-4.5-5.9-4.6-8.3-0.4-10.6c2.4-1.4,9-1.3,20.3,0.3c17.7,2.5,35.1,7.6,43.8,12.6c4.1,2.4,6.6,2.9,6.6,1.1c0-0.5,1.2,0.4,2.5,2.1
		c1.3,1.7,4.8,5.4,7.6,8.1c6,5.6,7.8,8.5,7.8,12.7C1524.9,2004,1520.4,2008.5,1515.3,2010z M1556.3,2015.6c-0.2,0-1.3-1-2.5-2.3
		c-1.2-1.3-1.9-2.3-1.6-2.3c0.2,0,1.4,1,2.5,2.3C1555.8,2014.6,1556.5,2015.6,1556.3,2015.6z"/>
	<path class="st8" d="M1856.4,1887.3c-10.2,2.3-13.6,2.6-17.5,1.5c-5.8-1.6-10.3-5.7-11.6-10.3c-2.1-7.6,3.1-21.5,11-29.4
		c2.4-2.4,4.4-4.8,4.4-5.2c0-0.4-2.1-1.1-4.6-1.4c-2.5-0.4-6.3-1.6-8.5-2.8c-5-3.1-18.3-17.1-28.2-30.1
		c-15.5-20.3-22.3-31.5-46.1-75.3c-27.3-50.3-52.7-86.7-75.4-107.6c-25.6-23.6-58.3-32.2-98.9-26c-13.2,2.1-41.3,2.7-53.6,1.3
		c-7.2-0.8-8,0.4-2.9,4c4.1,2.9,9,9.5,10.7,14.4c1.9,5.3,1.7,12-0.4,16.1c-2.1,4-7.6,9.1-11.6,10.8c-1.5,0.6-2.9,1.7-2.9,2.3
		c0,0.5,3.5,1.9,7.7,3.1c22.8,6,51.1,20.5,87.8,44.9c28.4,18.8,43.6,31.5,72.3,60.1c38,37.9,71.6,78.2,95.3,114.5
		c6.8,10.4,8,13.4,6.8,17.5c-1.4,5-1.3,5,7.4,5.4c7.6,0.3,8.3,0.4,10.3,2.8c2.6,3.1,2.6,3.2,0.1,7c-3.1,4.8-11.1,10.4-26.9,19.6
		c-34.4,19.8-40,23.9-66.5,50.2c-10.7,10.5-20.1,19.2-21,19.2c-2.5,0-2.5-2.3-0.1-9.2c3.1-8.4,3.7-11.5,2.3-11.5
		c-0.6,0-3.4,1.4-6.3,3.2c-20.8,12.6-49.9,17-68.2,10.2c-6-2.3-13.7-9.5-15.6-14.5c-1.1-3.2-3.5-4.6-3.5-2.2c0,0.7-0.7,2-1.7,2.8
		c-1.4,1.3-2.3,1.4-5.9,0.5c-8.2-1.8-20.1-1.3-28.7,1.3c-10.3,3.1-13.9,3.1-15.2,0.1c-0.8-1.9-0.7-2.5,0.7-4.1
		c4.7-5.2,24.5-12.1,42.6-14.7l7.7-1.1l0.5-4c1.4-9,9.1-24,17.9-34.7c10.3-12.3,58.7-49.8,66.3-51.2c1.7-0.4,3.3-1.2,3.6-1.8
		c1-2.5-13.6-26.5-26.7-44c-12.1-16-22.9-27.9-40.9-44.8c-44.9-42.1-87.6-72.5-134.9-96.1c-19.1-9.4-23.6-11.1-24.3-8.7
		c-2,6.5-4.1,10.5-7.5,14.2c-7.5,8.4-17.5,10.6-25.9,5.9c-2.3-1.3-4.8-2.3-5.3-2.3c-0.5,0-1.8,1.8-2.7,3.9
		c-2.4,5.3-11.9,14.1-19.2,17.9c-7.3,3.9-21.5,7.9-27.4,7.9c-2.9,0-4.3,0.4-4.3,1.1c0,0.9-5.3,1.2-23.4,1.2v25
		c8.6,0.1,16.4,14.5,20.2,37.5c0.7,4.7,1.8,19.7,2.3,33.3c1.5,40.5,4.5,61.1,12.5,85.5c7.2,21.8,13.6,33.2,32.2,57.3
		c23.5,30.6,40.2,45.9,57.8,53c5.6,2.3,11.3,3.2,31.3,4.9c23.6,2.1,32.8,5.7,35.6,13.8c0.1,0.4,9.1-1,20-3
		c57.7-10.6,74.3-13.6,88.7-15.8c30.4-4.5,45.2-9.5,83.7-28.8c51.4-25.7,58.1-30.4,75.2-53.3c13.5-17.9,18.3-22,36.9-31.3
		c9.9-5,14.4-7.7,14.6-8.9C1858.9,1886.9,1858.7,1886.7,1856.4,1887.3z M1423.9,1801.6c-0.3,0.7-0.5,0.4-0.5-0.5
		c-0.1-1,0.2-1.5,0.4-1.2C1424.1,1800.2,1424.1,1801,1423.9,1801.6z M1424.8,1807c-0.3,0.7-0.5,0.4-0.5-0.5c-0.1-1,0.2-1.5,0.4-1.2
		C1425,1805.6,1425,1806.4,1424.8,1807z M1425.7,1813.3c-0.3,0.7-0.5,0.5-0.5-0.5c-0.1-1,0.2-1.5,0.5-1.2
		C1425.9,1811.9,1425.9,1812.7,1425.7,1813.3z M1426.6,1818.7c-0.3,0.7-0.5,0.5-0.5-0.5c-0.1-1,0.2-1.5,0.5-1.2
		C1426.8,1817.3,1426.8,1818.1,1426.6,1818.7z M1429.3,1834.9c-0.3,0.7-0.5,0.4-0.5-0.5c-0.1-1,0.2-1.5,0.4-1.2
		C1429.5,1833.5,1429.5,1834.3,1429.3,1834.9z M1439.9,1709.6c2.3-2.3,8.3-4.6,10.3-4.1c0.7,0.2,2.3,0.6,3.6,0.9
		c4.9,1.3,7.7,5.8,9,13.8c0.6,3.3,0.5,6.3-0.1,8.6c-1.9,6.8-9.7,12.1-16.3,10.7c-6-1.2-11.5-9.3-11.5-17
		C1434.9,1718.5,1437.5,1712,1439.9,1709.6z M1515.3,2010c-5.4,1.6-16.2,1.4-23.9-0.6c-17.3-4.5-45-22.3-54.7-35.2
		c-4.5-5.9-4.6-8.3-0.4-10.6c2.4-1.4,9-1.3,20.3,0.3c17.7,2.5,35.1,7.6,43.8,12.6c4.1,2.4,6.6,2.9,6.6,1.1c0-0.5,1.2,0.4,2.5,2.1
		c1.3,1.7,4.8,5.4,7.6,8.1c6,5.6,7.8,8.5,7.8,12.7C1524.9,2004,1520.4,2008.5,1515.3,2010z M1556.3,2015.6c-0.2,0-1.3-1-2.5-2.3
		c-1.2-1.3-1.9-2.3-1.6-2.3c0.2,0,1.4,1,2.5,2.3C1555.8,2014.6,1556.5,2015.6,1556.3,2015.6z"/>
	<path id="structure21_label20_LRt" bar:growlevel="0" bar:type="" class="st9" d="M1682.9,1866.5c-8.5,4.1-48.7,35.2-58.3,45.1
		c-9.6,9.8-18.7,25.6-21.3,36.5c-1.2,5-0.8,13.2,0.9,19c1.6,5.9,6.6,13,11.2,16c7.3,4.9,12.7,6,27.5,5.9c15.2-0.1,25.3-2.3,38.1-8.3
		c12-5.6,18.5-10.4,20.5-15.2c2.2-5,2.2-7.3-0.1-16c-1-3.9-1.8-7.7-1.8-8.7c0-2.6,5.8-8.3,11.5-11.3c6.4-3.4,20.6-8.3,24.3-8.3
		c2.2,0,3.3-0.9,6.1-4.6c3.3-4.3,14.9-14.3,16.6-14.3c0.5,0,0.8-0.6,0.8-1.3c0-0.7-0.5-1.3-1.2-1.3c-3.6,0-10.7-3.1-14.3-6.3
		c-5.8-5.1-7-9.7-4.4-17.6c1-3.2,1.9-6,1.9-6.2c0-0.1-3-0.3-6.5-0.3c-3.9,0-9.8-0.9-14.2-2.1c-5.5-1.4-11.2-2.1-20.3-2.3
		C1688,1864.3,1687.1,1864.4,1682.9,1866.5z"/>
	<path id="structure22_label21_Ct" bar:growlevel="0" bar:type="" class="st10" d="M1584.3,1958c-11,2.3-24.4,6.9-29.2,10
		c-3.3,2.1-4.1,3.1-4.1,5.3c0,4.1,2.9,4.3,15.3,0.9c11.1-3.1,15.2-3.2,29.9-1.3c4.3,0.6,4.3,0.6,5.7-2.7c1.1-2.4,1.3-4.8,0.8-8.7
		l-0.6-5.3l-5,0.1C1594.2,1956.3,1588.5,1957.1,1584.3,1958z"/>
	<path id="structure23_label22_A1" bar:growlevel="0" bar:type="" class="st11" d="M1707.1,1831.1c-10.1,1.3-16.1,5.1-19.3,12.1
		c-2.3,5-2.2,8.7,0.9,14.8l2.7,5.2l9.3,0.5c5.1,0.4,13.5,1.6,18.7,2.9c15.2,3.6,23.9,2.8,29.4-2.7c3.4-3.4,3.6-4.9,1.2-10.2
		c-3.8-8.4-14.4-18-23.4-21.1C1721.2,1830.8,1713.9,1830.2,1707.1,1831.1z"/>
	<path id="structure24_label23_IRt" bar:growlevel="0" bar:type="" class="st12" d="M1464.1,1654.4c0.3,2.3,0.5,6.1,0.5,8.5v4.1
		l7,3.1c48.2,20.9,103,58.6,151.6,104.5c6.8,6.4,12.7,11.6,13.2,11.6c0.5,0,1-0.6,1-1.4c0-2.7,3.2-6.8,6.5-8.5
		c9.4-4.8,29.1,1.4,39.2,12.2c9.9,10.8,12.2,27,5,35.6c-2.9,3.3-8.3,6.2-12,6.2c-1.4,0-2.7,0.4-2.7,1c0,1.5,10.3,17.8,11.3,17.9
		c0.5,0,1.4-1.8,2.1-4.1c1.4-5.2,6.7-10.5,12.4-12.5c7.4-2.6,18-2.9,25.4-0.6c12.8,3.9,27.2,18.3,27.2,27.3c0,2.3,0.1,2.3,7.9,2.7
		c7.2,0.3,8.5,0.5,12.7,3.1c2.6,1.6,5.1,3,5.6,3c2.2,0,0.2-4-6.8-13.7c-35.5-49.3-90.1-107.9-128.3-137.7
		c-11-8.5-34.6-24.4-50.9-34.3c-24.5-14.7-47.6-25.2-65.4-29.9c-8.6-2.2-9.1-2.3-15.5-0.9c-8.4,1.7-24.6,1.7-35,0
		C1463.2,1649.5,1463.4,1649.4,1464.1,1654.4z"/>
	<path class="st13" d="M1856.4,1887.3c-10.2,2.3-13.6,2.6-17.5,1.5c-5.8-1.6-10.3-5.7-11.6-10.3c-2.1-7.6,3.1-21.5,11-29.4
		c2.4-2.4,4.4-4.8,4.4-5.2c0-0.4-2.1-1.1-4.6-1.4c-2.5-0.4-6.3-1.6-8.5-2.8c-5-3.1-18.3-17.1-28.2-30.1
		c-15.5-20.3-22.3-31.5-46.1-75.3c-27.3-50.3-52.7-86.7-75.4-107.6c-25.6-23.6-58.3-32.2-98.9-26c-13.2,2.1-41.3,2.7-53.6,1.3
		c-7.2-0.8-8,0.4-2.9,4c4.1,2.9,9,9.5,10.7,14.4c1.9,5.3,1.7,12-0.4,16.1c-2.1,4-7.6,9.1-11.6,10.8c-1.5,0.6-2.9,1.7-2.9,2.3
		c0,0.5,3.5,1.9,7.7,3.1c22.8,6,51.1,20.5,87.8,44.9c28.4,18.8,43.6,31.5,72.3,60.1c38,37.9,71.6,78.2,95.3,114.5
		c6.8,10.4,8,13.4,6.8,17.5c-1.4,5-1.3,5,7.4,5.4c7.6,0.3,8.3,0.4,10.3,2.8c2.6,3.1,2.6,3.2,0.1,7c-3.1,4.8-11.1,10.4-26.9,19.6
		c-34.4,19.8-40,23.9-66.5,50.2c-10.7,10.5-20.1,19.2-21,19.2c-2.5,0-2.5-2.3-0.1-9.2c3.1-8.4,3.7-11.5,2.3-11.5
		c-0.6,0-3.4,1.4-6.3,3.2c-20.8,12.6-49.9,17-68.2,10.2c-6-2.3-13.7-9.5-15.6-14.5c-1.1-3.2-3.5-4.6-3.5-2.2c0,0.7-0.7,2-1.7,2.8
		c-1.4,1.3-2.3,1.4-5.9,0.5c-8.2-1.8-20.1-1.3-28.7,1.3c-10.3,3.1-13.9,3.1-15.2,0.1c-0.8-1.9-0.7-2.5,0.7-4.1
		c4.7-5.2,24.5-12.1,42.6-14.7l7.7-1.1l0.5-4c1.4-9,9.1-24,17.9-34.7c10.3-12.3,58.7-49.8,66.3-51.2c1.7-0.4,3.3-1.2,3.6-1.8
		c1-2.5-13.6-26.5-26.7-44c-12.1-16-22.9-27.9-40.9-44.8c-44.9-42.1-87.6-72.5-134.9-96.1c-19.1-9.4-23.6-11.1-24.3-8.7
		c-2,6.5-4.1,10.5-7.5,14.2c-7.5,8.4-17.5,10.6-25.9,5.9c-2.3-1.3-4.8-2.3-5.3-2.3c-0.5,0-1.8,1.8-2.7,3.9
		c-2.4,5.3-11.9,14.1-19.2,17.9c-7.3,3.9-21.5,7.9-27.4,7.9c-2.9,0-4.3,0.4-4.3,1.1c0,0.9-5.3,1.2-23.4,1.2v25
		c8.6,0.1,16.4,14.5,20.2,37.5c0.7,4.7,1.8,19.7,2.3,33.3c1.5,40.5,4.5,61.1,12.5,85.5c7.2,21.8,13.6,33.2,32.2,57.3
		c23.5,30.6,40.2,45.9,57.8,53c5.6,2.3,11.3,3.2,31.3,4.9c23.6,2.1,32.8,5.7,35.6,13.8c0.1,0.4,9.1-1,20-3
		c57.7-10.6,74.3-13.6,88.7-15.8c30.4-4.5,45.2-9.5,83.7-28.8c51.4-25.7,58.1-30.4,75.2-53.3c13.5-17.9,18.3-22,36.9-31.3
		c9.9-5,14.4-7.7,14.6-8.9C1858.9,1886.9,1858.7,1886.7,1856.4,1887.3z M1423.9,1801.6c-0.3,0.7-0.5,0.4-0.5-0.5
		c-0.1-1,0.2-1.5,0.4-1.2C1424.1,1800.2,1424.1,1801,1423.9,1801.6z M1424.8,1807c-0.3,0.7-0.5,0.4-0.5-0.5c-0.1-1,0.2-1.5,0.4-1.2
		C1425,1805.6,1425,1806.4,1424.8,1807z M1425.7,1813.3c-0.3,0.7-0.5,0.5-0.5-0.5c-0.1-1,0.2-1.5,0.5-1.2
		C1425.9,1811.9,1425.9,1812.7,1425.7,1813.3z M1426.6,1818.7c-0.3,0.7-0.5,0.5-0.5-0.5c-0.1-1,0.2-1.5,0.5-1.2
		C1426.8,1817.3,1426.8,1818.1,1426.6,1818.7z M1429.3,1834.9c-0.3,0.7-0.5,0.4-0.5-0.5c-0.1-1,0.2-1.5,0.4-1.2
		C1429.5,1833.5,1429.5,1834.3,1429.3,1834.9z M1439.9,1709.6c2.3-2.3,8.3-4.6,10.3-4.1c0.7,0.2,2.3,0.6,3.6,0.9
		c4.9,1.3,7.7,5.8,9,13.8c0.6,3.3,0.5,6.3-0.1,8.6c-1.9,6.8-9.7,12.1-16.3,10.7c-6-1.2-11.5-9.3-11.5-17
		C1434.9,1718.5,1437.5,1712,1439.9,1709.6z M1515.3,2010c-5.4,1.6-16.2,1.4-23.9-0.6c-17.3-4.5-45-22.3-54.7-35.2
		c-4.5-5.9-4.6-8.3-0.4-10.6c2.4-1.4,9-1.3,20.3,0.3c17.7,2.5,35.1,7.6,43.8,12.6c4.1,2.4,6.6,2.9,6.6,1.1c0-0.5,1.2,0.4,2.5,2.1
		c1.3,1.7,4.8,5.4,7.6,8.1c6,5.6,7.8,8.5,7.8,12.7C1524.9,2004,1520.4,2008.5,1515.3,2010z M1556.3,2015.6c-0.2,0-1.3-1-2.5-2.3
		c-1.2-1.3-1.9-2.3-1.6-2.3c0.2,0,1.4,1,2.5,2.3C1555.8,2014.6,1556.5,2015.6,1556.3,2015.6z"/>
	<path class="st14" d="M1527.5,2019.7c-5.5-1.6-20.6-3.7-33.6-4.5c-15.8-1.1-26.7-5.1-39.2-14.6c-3.4-2.6-6.7-4.8-7.1-4.8
		s-2.1,0.7-3.6,1.5c-2.6,1.5-2.8,1.5-5.1-0.3c-4.7-3.4-6.2-6.4-6.2-11.9c0-5-0.1-5.2-6.8-13.3c-9.2-11.1-24.6-31.6-29-39
		c-14.8-24.4-24.4-60.6-26.6-100.4c-0.7-12.6-1.1-15.1-3.1-19.4c-4.2-9.2-13.1-17-19.6-17v216.8l4.2,3.7c15.8,13.9,44.8,27,59.7,27
		c6.7,0,119.4-11.8,124.9-13.1C1541.6,2029.2,1535.7,2022.1,1527.5,2019.7z"/>
	<path id="structure27_label26_Sp5C" bar:growlevel="0" bar:type="" class="st15" d="M1687.9,1487c-21.5,3.6-40.7,13.7-58.3,30.7
		c-8.7,8.4-9.3,9.1-10.8,14.7c-2.1,8-2.1,24.5,0.1,32.4c4.5,16.5,16.8,31.5,34.7,42.2c16.3,9.8,27.9,19.8,42.6,36.8
		c20.3,23.6,39.4,53.3,65.1,101c19.9,36.9,32.5,56.3,50.4,77.4c13.1,15.5,19.3,19.8,28.1,19.8c10.3,0,19-3.8,31.1-13.4
		c24.4-19.4,41.5-50.7,44.7-81.5c2-19.2-2.4-58.7-10-89.1c-9.6-38.7-21-61.9-43.4-88.6c-33.8-40.4-75-68-117.8-78.8
		C1725,1485.5,1704.2,1484.3,1687.9,1487z"/>
	<path class="st16" d="M1622.1,1374.2c-2.4-5-5.9-7.5-12.8-8.6c-5-0.9-7.4-0.6-24.9,2.7c-22.4,4.3-78.1,13.7-97.2,16.3
		c-43.6,6-93.1,9.4-138.6,9.4c-0.3,0-0.6,0-0.9,0v67.5c27.7-0.2,65.7-4.6,119.2-13.5c38.1-6.4,69.1-13.9,96.8-23.4
		c34-11.6,54.4-22.8,58.9-32.2C1624.6,1388,1624.4,1379.1,1622.1,1374.2z"/>
	<path class="st17" d="M1650,1252.9c-3-14.9-6.4-33.2-7.6-40.8c-2.4-15-4.7-24.5-8.4-35.9l-2.3-7.5l-12.7-5.3
		c-19.4-8.3-32-13-49.6-18.5c-8.8-2.8-21-6.7-26.9-8.6s-17.9-6.9-26.6-11.1c-35.9-17.4-69.4-29.3-87.8-31.1
		c-4.1-0.4-42.4-0.7-80.4-0.8v97.3l76.7-2c88.1-2.3,99.9-2.4,107.1-0.7c5.3,1.3,8.7,3.4,8.7,5.6c0,3.4-13.8,10-30,14.3
		c-20.6,5.6-40.9,7.9-68.6,7.8c-23.8,0-38.5-1-65.7-4.2c-9.9-1.2-20.4-2.3-23.4-2.7c-1.1-0.1-2.8-0.1-4.9,0v42.4c0.7,0,1.5,0,2.2,0
		c181.5,0.1,232.1,0.4,234.7,1.2c9.6,3.2-3.5,6.8-32.7,9c-37.9,2.9-58.8,3.2-204.3,3.2v25.1c26.8,0.1,63.4,1.3,86.4,2.8
		c32.9,2.3,50.7,4.6,75.2,9.9c9.2,2.1,13.8,2.4,31.1,2.9c19.9,0.4,23.4,0.3,62.4-3.4c12.8-1.2,26.4,0,33.1,2.9
		c3.2,1.4,5.6,3.4,8.9,7.7c4.5,5.7,6.8,7.1,10.9,6.5c2.1-0.3,2.2-0.6,2.4-8.6C1658.3,1298.9,1656.4,1285,1650,1252.9z"/>
	<path class="st18" d="M1650,1252.9c-3-14.9-6.4-33.2-7.6-40.8c-2.4-15-4.7-24.5-8.4-35.9l-2.3-7.5l-12.7-5.3
		c-19.4-8.3-32-13-49.6-18.5c-8.8-2.8-21-6.7-26.9-8.6s-17.9-6.9-26.6-11.1c-35.9-17.4-69.4-29.3-87.8-31.1
		c-4.1-0.4-42.4-0.7-80.4-0.8v97.3l76.7-2c88.1-2.3,99.9-2.4,107.1-0.7c5.3,1.3,8.7,3.4,8.7,5.6c0,3.4-13.8,10-30,14.3
		c-20.6,5.6-40.9,7.9-68.6,7.8c-23.8,0-38.5-1-65.7-4.2c-9.9-1.2-20.4-2.3-23.4-2.7c-1.1-0.1-2.8-0.1-4.9,0v42.4c0.7,0,1.5,0,2.2,0
		c181.5,0.1,232.1,0.4,234.7,1.2c9.6,3.2-3.5,6.8-32.7,9c-37.9,2.9-58.8,3.2-204.3,3.2v25.1c26.8,0.1,63.4,1.3,86.4,2.8
		c32.9,2.3,50.7,4.6,75.2,9.9c9.2,2.1,13.8,2.4,31.1,2.9c19.9,0.4,23.4,0.3,62.4-3.4c12.8-1.2,26.4,0,33.1,2.9
		c3.2,1.4,5.6,3.4,8.9,7.7c4.5,5.7,6.8,7.1,10.9,6.5c2.1-0.3,2.2-0.6,2.4-8.6C1658.3,1298.9,1656.4,1285,1650,1252.9z"/>
	<path class="st19" d="M1429.1,1019.4c-4.1-7.9-19.2-17-38.2-22.9c-15.6-4.9-30.1-7.4-43.2-7.6v66.9c21.9,0,43.9-0.4,50.2-1.1
		c14.8-1.7,26.7-8.4,31-17.5C1430.8,1033.1,1431,1022.9,1429.1,1019.4z"/>
	<path class="st20" d="M1429.1,1019.4c-4.1-7.9-19.2-17-38.2-22.9c-15.6-4.9-30.1-7.4-43.2-7.6v66.9c21.9,0,43.9-0.4,50.2-1.1
		c14.8-1.7,26.7-8.4,31-17.5C1430.8,1033.1,1431,1022.9,1429.1,1019.4z"/>
	<path class="st13" d="M1856.4,1887.3c-10.2,2.3-13.6,2.6-17.5,1.5c-5.8-1.6-10.3-5.7-11.6-10.3c-2.1-7.6,3.1-21.5,11-29.4
		c2.4-2.4,4.4-4.8,4.4-5.2c0-0.4-2.1-1.1-4.6-1.4c-2.5-0.4-6.3-1.6-8.5-2.8c-5-3.1-18.3-17.1-28.2-30.1
		c-15.5-20.3-22.3-31.5-46.1-75.3c-27.3-50.3-52.7-86.7-75.4-107.6c-25.6-23.6-58.3-32.2-98.9-26c-13.2,2.1-41.3,2.7-53.6,1.3
		c-7.2-0.8-8,0.4-2.9,4c4.1,2.9,9,9.5,10.7,14.4c1.9,5.3,1.7,12-0.4,16.1c-2.1,4-7.6,9.1-11.6,10.8c-1.5,0.6-2.9,1.7-2.9,2.3
		c0,0.5,3.5,1.9,7.7,3.1c22.8,6,51.1,20.5,87.8,44.9c28.4,18.8,43.6,31.5,72.3,60.1c38,37.9,71.6,78.2,95.3,114.5
		c6.8,10.4,8,13.4,6.8,17.5c-1.4,5-1.3,5,7.4,5.4c7.6,0.3,8.3,0.4,10.3,2.8c2.6,3.1,2.6,3.2,0.1,7c-3.1,4.8-11.1,10.4-26.9,19.6
		c-34.4,19.8-40,23.9-66.5,50.2c-10.7,10.5-20.1,19.2-21,19.2c-2.5,0-2.5-2.3-0.1-9.2c3.1-8.4,3.7-11.5,2.3-11.5
		c-0.6,0-3.4,1.4-6.3,3.2c-20.8,12.6-49.9,17-68.2,10.2c-6-2.3-13.7-9.5-15.6-14.5c-1.1-3.2-3.5-4.6-3.5-2.2c0,0.7-0.7,2-1.7,2.8
		c-1.4,1.3-2.3,1.4-5.9,0.5c-8.2-1.8-20.1-1.3-28.7,1.3c-10.3,3.1-13.9,3.1-15.2,0.1c-0.8-1.9-0.7-2.5,0.7-4.1
		c4.7-5.2,24.5-12.1,42.6-14.7l7.7-1.1l0.5-4c1.4-9,9.1-24,17.9-34.7c10.3-12.3,58.7-49.8,66.3-51.2c1.7-0.4,3.3-1.2,3.6-1.8
		c1-2.5-13.6-26.5-26.7-44c-12.1-16-22.9-27.9-40.9-44.8c-44.9-42.1-87.6-72.5-134.9-96.1c-19.1-9.4-23.6-11.1-24.3-8.7
		c-2,6.5-4.1,10.5-7.5,14.2c-7.5,8.4-17.5,10.6-25.9,5.9c-2.3-1.3-4.8-2.3-5.3-2.3c-0.5,0-1.8,1.8-2.7,3.9
		c-2.4,5.3-11.9,14.1-19.2,17.9c-7.3,3.9-21.5,7.9-27.4,7.9c-2.9,0-4.3,0.4-4.3,1.1c0,0.9-5.3,1.2-23.4,1.2v25
		c8.6,0.1,16.4,14.5,20.2,37.5c0.7,4.7,1.8,19.7,2.3,33.3c1.5,40.5,4.5,61.1,12.5,85.5c7.2,21.8,13.6,33.2,32.2,57.3
		c23.5,30.6,40.2,45.9,57.8,53c5.6,2.3,11.3,3.2,31.3,4.9c23.6,2.1,32.8,5.7,35.6,13.8c0.1,0.4,9.1-1,20-3
		c57.7-10.6,74.3-13.6,88.7-15.8c30.4-4.5,45.2-9.5,83.7-28.8c51.4-25.7,58.1-30.4,75.2-53.3c13.5-17.9,18.3-22,36.9-31.3
		c9.9-5,14.4-7.7,14.6-8.9C1858.9,1886.9,1858.7,1886.7,1856.4,1887.3z M1423.9,1801.6c-0.3,0.7-0.5,0.4-0.5-0.5
		c-0.1-1,0.2-1.5,0.4-1.2C1424.1,1800.2,1424.1,1801,1423.9,1801.6z M1424.8,1807c-0.3,0.7-0.5,0.4-0.5-0.5c-0.1-1,0.2-1.5,0.4-1.2
		C1425,1805.6,1425,1806.4,1424.8,1807z M1425.7,1813.3c-0.3,0.7-0.5,0.5-0.5-0.5c-0.1-1,0.2-1.5,0.5-1.2
		C1425.9,1811.9,1425.9,1812.7,1425.7,1813.3z M1426.6,1818.7c-0.3,0.7-0.5,0.5-0.5-0.5c-0.1-1,0.2-1.5,0.5-1.2
		C1426.8,1817.3,1426.8,1818.1,1426.6,1818.7z M1429.3,1834.9c-0.3,0.7-0.5,0.4-0.5-0.5c-0.1-1,0.2-1.5,0.4-1.2
		C1429.5,1833.5,1429.5,1834.3,1429.3,1834.9z M1439.9,1709.6c2.3-2.3,8.3-4.6,10.3-4.1c0.7,0.2,2.3,0.6,3.6,0.9
		c4.9,1.3,7.7,5.8,9,13.8c0.6,3.3,0.5,6.3-0.1,8.6c-1.9,6.8-9.7,12.1-16.3,10.7c-6-1.2-11.5-9.3-11.5-17
		C1434.9,1718.5,1437.5,1712,1439.9,1709.6z M1515.3,2010c-5.4,1.6-16.2,1.4-23.9-0.6c-17.3-4.5-45-22.3-54.7-35.2
		c-4.5-5.9-4.6-8.3-0.4-10.6c2.4-1.4,9-1.3,20.3,0.3c17.7,2.5,35.1,7.6,43.8,12.6c4.1,2.4,6.6,2.9,6.6,1.1c0-0.5,1.2,0.4,2.5,2.1
		c1.3,1.7,4.8,5.4,7.6,8.1c6,5.6,7.8,8.5,7.8,12.7C1524.9,2004,1520.4,2008.5,1515.3,2010z M1556.3,2015.6c-0.2,0-1.3-1-2.5-2.3
		c-1.2-1.3-1.9-2.3-1.6-2.3c0.2,0,1.4,1,2.5,2.3C1555.8,2014.6,1556.5,2015.6,1556.3,2015.6z"/>
	<path class="st21" d="M1856.4,1887.3c-10.2,2.3-13.6,2.6-17.5,1.5c-5.8-1.6-10.3-5.7-11.6-10.3c-2.1-7.6,3.1-21.5,11-29.4
		c2.4-2.4,4.4-4.8,4.4-5.2c0-0.4-2.1-1.1-4.6-1.4c-2.5-0.4-6.3-1.6-8.5-2.8c-5-3.1-18.3-17.1-28.2-30.1
		c-15.5-20.3-22.3-31.5-46.1-75.3c-27.3-50.3-52.7-86.7-75.4-107.6c-25.6-23.6-58.3-32.2-98.9-26c-13.2,2.1-41.3,2.7-53.6,1.3
		c-7.2-0.8-8,0.4-2.9,4c4.1,2.9,9,9.5,10.7,14.4c1.9,5.3,1.7,12-0.4,16.1c-2.1,4-7.6,9.1-11.6,10.8c-1.5,0.6-2.9,1.7-2.9,2.3
		c0,0.5,3.5,1.9,7.7,3.1c22.8,6,51.1,20.5,87.8,44.9c28.4,18.8,43.6,31.5,72.3,60.1c38,37.9,71.6,78.2,95.3,114.5
		c6.8,10.4,8,13.4,6.8,17.5c-1.4,5-1.3,5,7.4,5.4c7.6,0.3,8.3,0.4,10.3,2.8c2.6,3.1,2.6,3.2,0.1,7c-3.1,4.8-11.1,10.4-26.9,19.6
		c-34.4,19.8-40,23.9-66.5,50.2c-10.7,10.5-20.1,19.2-21,19.2c-2.5,0-2.5-2.3-0.1-9.2c3.1-8.4,3.7-11.5,2.3-11.5
		c-0.6,0-3.4,1.4-6.3,3.2c-20.8,12.6-49.9,17-68.2,10.2c-6-2.3-13.7-9.5-15.6-14.5c-1.1-3.2-3.5-4.6-3.5-2.2c0,0.7-0.7,2-1.7,2.8
		c-1.4,1.3-2.3,1.4-5.9,0.5c-8.2-1.8-20.1-1.3-28.7,1.3c-10.3,3.1-13.9,3.1-15.2,0.1c-0.8-1.9-0.7-2.5,0.7-4.1
		c4.7-5.2,24.5-12.1,42.6-14.7l7.7-1.1l0.5-4c1.4-9,9.1-24,17.9-34.7c10.3-12.3,58.7-49.8,66.3-51.2c1.7-0.4,3.3-1.2,3.6-1.8
		c1-2.5-13.6-26.5-26.7-44c-12.1-16-22.9-27.9-40.9-44.8c-44.9-42.1-87.6-72.5-134.9-96.1c-19.1-9.4-23.6-11.1-24.3-8.7
		c-2,6.5-4.1,10.5-7.5,14.2c-7.5,8.4-17.5,10.6-25.9,5.9c-2.3-1.3-4.8-2.3-5.3-2.3c-0.5,0-1.8,1.8-2.7,3.9
		c-2.4,5.3-11.9,14.1-19.2,17.9c-7.3,3.9-21.5,7.9-27.4,7.9c-2.9,0-4.3,0.4-4.3,1.1c0,0.9-5.3,1.2-23.4,1.2v25
		c8.6,0.1,16.4,14.5,20.2,37.5c0.7,4.7,1.8,19.7,2.3,33.3c1.5,40.5,4.5,61.1,12.5,85.5c7.2,21.8,13.6,33.2,32.2,57.3
		c23.5,30.6,40.2,45.9,57.8,53c5.6,2.3,11.3,3.2,31.3,4.9c23.6,2.1,32.8,5.7,35.6,13.8c0.1,0.4,9.1-1,20-3
		c57.7-10.6,74.3-13.6,88.7-15.8c30.4-4.5,45.2-9.5,83.7-28.8c51.4-25.7,58.1-30.4,75.2-53.3c13.5-17.9,18.3-22,36.9-31.3
		c9.9-5,14.4-7.7,14.6-8.9C1858.9,1886.9,1858.7,1886.7,1856.4,1887.3z M1423.9,1801.6c-0.3,0.7-0.5,0.4-0.5-0.5
		c-0.1-1,0.2-1.5,0.4-1.2C1424.1,1800.2,1424.1,1801,1423.9,1801.6z M1424.8,1807c-0.3,0.7-0.5,0.4-0.5-0.5c-0.1-1,0.2-1.5,0.4-1.2
		C1425,1805.6,1425,1806.4,1424.8,1807z M1425.7,1813.3c-0.3,0.7-0.5,0.5-0.5-0.5c-0.1-1,0.2-1.5,0.5-1.2
		C1425.9,1811.9,1425.9,1812.7,1425.7,1813.3z M1426.6,1818.7c-0.3,0.7-0.5,0.5-0.5-0.5c-0.1-1,0.2-1.5,0.5-1.2
		C1426.8,1817.3,1426.8,1818.1,1426.6,1818.7z M1429.3,1834.9c-0.3,0.7-0.5,0.4-0.5-0.5c-0.1-1,0.2-1.5,0.4-1.2
		C1429.5,1833.5,1429.5,1834.3,1429.3,1834.9z M1439.9,1709.6c2.3-2.3,8.3-4.6,10.3-4.1c0.7,0.2,2.3,0.6,3.6,0.9
		c4.9,1.3,7.7,5.8,9,13.8c0.6,3.3,0.5,6.3-0.1,8.6c-1.9,6.8-9.7,12.1-16.3,10.7c-6-1.2-11.5-9.3-11.5-17
		C1434.9,1718.5,1437.5,1712,1439.9,1709.6z M1515.3,2010c-5.4,1.6-16.2,1.4-23.9-0.6c-17.3-4.5-45-22.3-54.7-35.2
		c-4.5-5.9-4.6-8.3-0.4-10.6c2.4-1.4,9-1.3,20.3,0.3c17.7,2.5,35.1,7.6,43.8,12.6c4.1,2.4,6.6,2.9,6.6,1.1c0-0.5,1.2,0.4,2.5,2.1
		c1.3,1.7,4.8,5.4,7.6,8.1c6,5.6,7.8,8.5,7.8,12.7C1524.9,2004,1520.4,2008.5,1515.3,2010z M1556.3,2015.6c-0.2,0-1.3-1-2.5-2.3
		c-1.2-1.3-1.9-2.3-1.6-2.3c0.2,0,1.4,1,2.5,2.3C1555.8,2014.6,1556.5,2015.6,1556.3,2015.6z"/>
	<path class="st22" d="M1351.2,1651c-0.7-1.3-2.1-1.9-3.6-1.8v22.5c1.1,0,2.3-0.9,3.1-3C1352.3,1665.1,1352.6,1653.6,1351.2,1651z"
		/>
	<path class="st23" d="M1369.7,1804.3c-2.5-38.2-10.3-59.3-22-59.6v50.7c1,0,1.9,0.2,3.1,0.6c4,1.3,13,9.5,15.3,13.9
		c1,1.8,2.3,3.2,3,3.2C1370.1,1813.1,1370.1,1811.3,1369.7,1804.3z"/>
	<path id="structure3_label2_12N" bar:growlevel="0" bar:type="" class="st24" d="M1377.3,1648.1c-6.9,2.3-15,7.4-15.9,10.1
		c-1.4,4.3-5.3,11.5-7.8,14.4c-2.8,3.2-2.8,3.2-2.7,13.1c0.1,14.2,3.4,22,11.8,27.5c7.3,4.9,15.1,4.7,31.2-0.7
		c18-6,31.3-20.1,30-31.5c-0.8-6.8-5.2-18.9-8.9-24.4c-5.4-8.1-8.2-9.5-20.5-10.2C1385.1,1645.9,1383.5,1646.1,1377.3,1648.1z"/>
	<path class="st25" d="M1379.9,1576.5c-0.2-0.8-2.2-2.6-4.4-4.1c-2.3-1.4-7.8-6.1-12.3-10.3c-6.1-5.6-8.9-8.9-11-13
		c-1.4-3-2.7-5.9-2.7-6.7c0-1.6-0.7-1.7-1.8-0.7v36.2C1377.1,1578,1380.1,1577.9,1379.9,1576.5z"/>
	<path id="structure41_label40_LRtPC" bar:growlevel="0" bar:type="" class="st26" d="M1788.6,1895.7c-1.3,0.4-3.2,1.4-4.5,2.2
		c-3.6,2.4-9.5,3.5-16.9,3.2c-6-0.2-7.4,0.1-10.5,2c-6.2,3.8-13.9,11.9-19.2,19.8c-5.3,8.3-15.7,19.4-23.6,25.7
		c-6,4.7-9.4,10.2-15.8,25.7c-5.6,13.5-7,19.8-4.4,19.8c1,0,9.2-7.6,18.8-17.3c26.3-26.4,32.9-31.5,64.4-49.8
		c25.7-14.9,32.4-20.3,32.4-25.7c0-3.9-3.2-5.6-11.5-5.8C1794,1895.2,1789.9,1895.4,1788.6,1895.7z"/>
	<path id="structure43_text3023_Ct" bar:growlevel="0" bar:type="" class="st10" d="M1432.7,1984.1c-1.1,1.7,0.6,7,3.3,10.3
		c2.3,2.9,3.1,3.3,6,3.1c5.1-0.4,4.8-2.8-1.4-8.9C1435.6,1983.3,1433.8,1982.3,1432.7,1984.1z"/>
	<path id="structure47_label44_CeCv" bar:growlevel="0" bar:type="" class="st27" d="M1417.8,1642.8c-4.1,0.7-10.8,3.1-10.8,4
		c0,0.4,1.8,2.5,4,4.8c6.3,6.3,12,18.9,13,29.3c0.5,4.6,0.8,5.1,4.3,7.7c3,2.1,5.1,2.8,9.3,3.1c9.7,0.7,18.3-5.1,23.3-16
		c1.8-4,2.3-6.8,2.6-13.5c0.5-12.9,1.1-12.3-14.8-16.3C1435.8,1642.2,1426.1,1641.4,1417.8,1642.8z"/>
	<path id="structure48_label45_SolV" bar:growlevel="0" bar:type="" class="st28" d="M1459.7,1623.9c-2.4,3.9-6.4,9.7-8.7,13
		c-2.3,3.3-4.3,6.5-4.3,7c0,1,1.9,1.6,14.8,4.6c9.5,2.3,25.1,4.5,32,4.5c2.7,0,8.5-0.4,12.9-1c9.5-1.3,10.1-2.4,3.3-7.6
		c-5.1-4-13.1-13-17.7-20.2l-3.1-4.8l-4.6,0.5c-3.1,0.4-6.6,0.1-10.1-0.9C1463.4,1616.3,1464.6,1615.9,1459.7,1623.9z"/>
	<path id="structure49_label46_IOM" bar:growlevel="0" bar:type="" class="st29" d="M1435.1,1964.5c-1.4,1.4-1.3,4.8,0.3,7.8
		c3.8,7.4,25.3,23.7,41,31.1c11.8,5.6,18.4,7.2,29.3,7.2c7.6,0.1,9.5-0.3,12.8-2c4.8-2.5,6.9-6.4,6.1-10.8
		c-1.6-8.5-23-22.8-42.8-28.4C1464.6,1964.5,1437.9,1961.7,1435.1,1964.5z"/>
	<path id="structure4_label3_12GH" bar:growlevel="0" bar:type="" class="st30" d="M1443,1707.6c-4.6,2.3-7.2,7.9-7.2,15.5
		c0,10.6,5.4,16.6,14.2,16c9.1-0.8,13.1-6.1,12.5-16.6c-0.6-10.8-5.2-16.6-13.2-16.6C1447.6,1706,1444.8,1706.7,1443,1707.6z"/>
	<path id="structure51_label48_sp5" bar:growlevel="0" bar:type="" class="st31" d="M1691,1442.4c-9.4,1.2-20,4.8-26.6,9
		c-10.6,6.9-40.7,40.9-46.5,52.7c-3.6,7.3-5.1,17.9-3,20.5c2.4,3,5.2,1.5,15-7.6c10.6-10,18-15.2,28.8-20.6
		c19.9-9.9,41.5-13.5,63.9-10.5c34.4,4.6,67.8,19.2,99.5,43.7c10.7,8.3,37.6,35.5,46.9,47.6c4.4,5.7,10.3,14.1,13,18.9
		c18.8,32,32.3,84.5,34.1,132.9c0.6,17.5-0.4,25.4-5.2,40.3c-6.6,20.2-17.4,37.8-31.8,51.7c-9.6,9.3-16.6,14.2-28.4,20.1
		c-14.4,7.1-22.4,18.1-23.1,31.8c-0.5,7.8,1.2,11.1,7.3,14c3.5,1.6,5.4,2,11.3,1.7c6.2-0.4,8-0.8,15.9-4.8c7.8-3.9,10-5.4,17.9-13.5
		c27.4-27.6,46.2-58.6,58.9-96.8c6.5-19.6,8.5-30.1,8.4-45.9c-0.1-36-12.6-89.6-30.2-129.6c-33.1-75.8-101.8-137.3-170-152.5
		C1729.2,1441.6,1707.6,1440.3,1691,1442.4z"/>
	<path class="st32" d="M1856.4,1887.3c-10.2,2.3-13.6,2.6-17.5,1.5c-5.8-1.6-10.3-5.7-11.6-10.3c-2.1-7.6,3.1-21.5,11-29.4
		c2.4-2.4,4.4-4.8,4.4-5.2c0-0.4-2.1-1.1-4.6-1.4c-2.5-0.4-6.3-1.6-8.5-2.8c-5-3.1-18.3-17.1-28.2-30.1
		c-15.5-20.3-22.3-31.5-46.1-75.3c-27.3-50.3-52.7-86.7-75.4-107.6c-25.6-23.6-58.3-32.2-98.9-26c-13.2,2.1-41.3,2.7-53.6,1.3
		c-7.2-0.8-8,0.4-2.9,4c4.1,2.9,9,9.5,10.7,14.4c1.9,5.3,1.7,12-0.4,16.1c-2.1,4-7.6,9.1-11.6,10.8c-1.5,0.6-2.9,1.7-2.9,2.3
		c0,0.5,3.5,1.9,7.7,3.1c22.8,6,51.1,20.5,87.8,44.9c28.4,18.8,43.6,31.5,72.3,60.1c38,37.9,71.6,78.2,95.3,114.5
		c6.8,10.4,8,13.4,6.8,17.5c-1.4,5-1.3,5,7.4,5.4c7.6,0.3,8.3,0.4,10.3,2.8c2.6,3.1,2.6,3.2,0.1,7c-3.1,4.8-11.1,10.4-26.9,19.6
		c-34.4,19.8-40,23.9-66.5,50.2c-10.7,10.5-20.1,19.2-21,19.2c-2.5,0-2.5-2.3-0.1-9.2c3.1-8.4,3.7-11.5,2.3-11.5
		c-0.6,0-3.4,1.4-6.3,3.2c-20.8,12.6-49.9,17-68.2,10.2c-6-2.3-13.7-9.5-15.6-14.5c-1.1-3.2-3.5-4.6-3.5-2.2c0,0.7-0.7,2-1.7,2.8
		c-1.4,1.3-2.3,1.4-5.9,0.5c-8.2-1.8-20.1-1.3-28.7,1.3c-10.3,3.1-13.9,3.1-15.2,0.1c-0.8-1.9-0.7-2.5,0.7-4.1
		c4.7-5.2,24.5-12.1,42.6-14.7l7.7-1.1l0.5-4c1.4-9,9.1-24,17.9-34.7c10.3-12.3,58.7-49.8,66.3-51.2c1.7-0.4,3.3-1.2,3.6-1.8
		c1-2.5-13.6-26.5-26.7-44c-12.1-16-22.9-27.9-40.9-44.8c-44.9-42.1-87.6-72.5-134.9-96.1c-19.1-9.4-23.6-11.1-24.3-8.7
		c-2,6.5-4.1,10.5-7.5,14.2c-7.5,8.4-17.5,10.6-25.9,5.9c-2.3-1.3-4.8-2.3-5.3-2.3c-0.5,0-1.8,1.8-2.7,3.9
		c-2.4,5.3-11.9,14.1-19.2,17.9c-7.3,3.9-21.5,7.9-27.4,7.9c-2.9,0-4.3,0.4-4.3,1.1c0,0.9-5.3,1.2-23.4,1.2v25
		c8.6,0.1,16.4,14.5,20.2,37.5c0.7,4.7,1.8,19.7,2.3,33.3c1.5,40.5,4.5,61.1,12.5,85.5c7.2,21.8,13.6,33.2,32.2,57.3
		c23.5,30.6,40.2,45.9,57.8,53c5.6,2.3,11.3,3.2,31.3,4.9c23.6,2.1,32.8,5.7,35.6,13.8c0.1,0.4,9.1-1,20-3
		c57.7-10.6,74.3-13.6,88.7-15.8c30.4-4.5,45.2-9.5,83.7-28.8c51.4-25.7,58.1-30.4,75.2-53.3c13.5-17.9,18.3-22,36.9-31.3
		c9.9-5,14.4-7.7,14.6-8.9C1858.9,1886.9,1858.7,1886.7,1856.4,1887.3z M1423.9,1801.6c-0.3,0.7-0.5,0.4-0.5-0.5
		c-0.1-1,0.2-1.5,0.4-1.2C1424.1,1800.2,1424.1,1801,1423.9,1801.6z M1424.8,1807c-0.3,0.7-0.5,0.4-0.5-0.5c-0.1-1,0.2-1.5,0.4-1.2
		C1425,1805.6,1425,1806.4,1424.8,1807z M1425.7,1813.3c-0.3,0.7-0.5,0.5-0.5-0.5c-0.1-1,0.2-1.5,0.5-1.2
		C1425.9,1811.9,1425.9,1812.7,1425.7,1813.3z M1426.6,1818.7c-0.3,0.7-0.5,0.5-0.5-0.5c-0.1-1,0.2-1.5,0.5-1.2
		C1426.8,1817.3,1426.8,1818.1,1426.6,1818.7z M1429.3,1834.9c-0.3,0.7-0.5,0.4-0.5-0.5c-0.1-1,0.2-1.5,0.4-1.2
		C1429.5,1833.5,1429.5,1834.3,1429.3,1834.9z M1439.9,1709.6c2.3-2.3,8.3-4.6,10.3-4.1c0.7,0.2,2.3,0.6,3.6,0.9
		c4.9,1.3,7.7,5.8,9,13.8c0.6,3.3,0.5,6.3-0.1,8.6c-1.9,6.8-9.7,12.1-16.3,10.7c-6-1.2-11.5-9.3-11.5-17
		C1434.9,1718.5,1437.5,1712,1439.9,1709.6z M1515.3,2010c-5.4,1.6-16.2,1.4-23.9-0.6c-17.3-4.5-45-22.3-54.7-35.2
		c-4.5-5.9-4.6-8.3-0.4-10.6c2.4-1.4,9-1.3,20.3,0.3c17.7,2.5,35.1,7.6,43.8,12.6c4.1,2.4,6.6,2.9,6.6,1.1c0-0.5,1.2,0.4,2.5,2.1
		c1.3,1.7,4.8,5.4,7.6,8.1c6,5.6,7.8,8.5,7.8,12.7C1524.9,2004,1520.4,2008.5,1515.3,2010z M1556.3,2015.6c-0.2,0-1.3-1-2.5-2.3
		c-1.2-1.3-1.9-2.3-1.6-2.3c0.2,0,1.4,1,2.5,2.3C1555.8,2014.6,1556.5,2015.6,1556.3,2015.6z"/>
	<path class="st33" d="M1856.4,1887.3c-10.2,2.3-13.6,2.6-17.5,1.5c-5.8-1.6-10.3-5.7-11.6-10.3c-2.1-7.6,3.1-21.5,11-29.4
		c2.4-2.4,4.4-4.8,4.4-5.2c0-0.4-2.1-1.1-4.6-1.4c-2.5-0.4-6.3-1.6-8.5-2.8c-5-3.1-18.3-17.1-28.2-30.1
		c-15.5-20.3-22.3-31.5-46.1-75.3c-27.3-50.3-52.7-86.7-75.4-107.6c-25.6-23.6-58.3-32.2-98.9-26c-13.2,2.1-41.3,2.7-53.6,1.3
		c-7.2-0.8-8,0.4-2.9,4c4.1,2.9,9,9.5,10.7,14.4c1.9,5.3,1.7,12-0.4,16.1c-2.1,4-7.6,9.1-11.6,10.8c-1.5,0.6-2.9,1.7-2.9,2.3
		c0,0.5,3.5,1.9,7.7,3.1c22.8,6,51.1,20.5,87.8,44.9c28.4,18.8,43.6,31.5,72.3,60.1c38,37.9,71.6,78.2,95.3,114.5
		c6.8,10.4,8,13.4,6.8,17.5c-1.4,5-1.3,5,7.4,5.4c7.6,0.3,8.3,0.4,10.3,2.8c2.6,3.1,2.6,3.2,0.1,7c-3.1,4.8-11.1,10.4-26.9,19.6
		c-34.4,19.8-40,23.9-66.5,50.2c-10.7,10.5-20.1,19.2-21,19.2c-2.5,0-2.5-2.3-0.1-9.2c3.1-8.4,3.7-11.5,2.3-11.5
		c-0.6,0-3.4,1.4-6.3,3.2c-20.8,12.6-49.9,17-68.2,10.2c-6-2.3-13.7-9.5-15.6-14.5c-1.1-3.2-3.5-4.6-3.5-2.2c0,0.7-0.7,2-1.7,2.8
		c-1.4,1.3-2.3,1.4-5.9,0.5c-8.2-1.8-20.1-1.3-28.7,1.3c-10.3,3.1-13.9,3.1-15.2,0.1c-0.8-1.9-0.7-2.5,0.7-4.1
		c4.7-5.2,24.5-12.1,42.6-14.7l7.7-1.1l0.5-4c1.4-9,9.1-24,17.9-34.7c10.3-12.3,58.7-49.8,66.3-51.2c1.7-0.4,3.3-1.2,3.6-1.8
		c1-2.5-13.6-26.5-26.7-44c-12.1-16-22.9-27.9-40.9-44.8c-44.9-42.1-87.6-72.5-134.9-96.1c-19.1-9.4-23.6-11.1-24.3-8.7
		c-2,6.5-4.1,10.5-7.5,14.2c-7.5,8.4-17.5,10.6-25.9,5.9c-2.3-1.3-4.8-2.3-5.3-2.3c-0.5,0-1.8,1.8-2.7,3.9
		c-2.4,5.3-11.9,14.1-19.2,17.9c-7.3,3.9-21.5,7.9-27.4,7.9c-2.9,0-4.3,0.4-4.3,1.1c0,0.9-5.3,1.2-23.4,1.2v25
		c8.6,0.1,16.4,14.5,20.2,37.5c0.7,4.7,1.8,19.7,2.3,33.3c1.5,40.5,4.5,61.1,12.5,85.5c7.2,21.8,13.6,33.2,32.2,57.3
		c23.5,30.6,40.2,45.9,57.8,53c5.6,2.3,11.3,3.2,31.3,4.9c23.6,2.1,32.8,5.7,35.6,13.8c0.1,0.4,9.1-1,20-3
		c57.7-10.6,74.3-13.6,88.7-15.8c30.4-4.5,45.2-9.5,83.7-28.8c51.4-25.7,58.1-30.4,75.2-53.3c13.5-17.9,18.3-22,36.9-31.3
		c9.9-5,14.4-7.7,14.6-8.9C1858.9,1886.9,1858.7,1886.7,1856.4,1887.3z M1423.9,1801.6c-0.3,0.7-0.5,0.4-0.5-0.5
		c-0.1-1,0.2-1.5,0.4-1.2C1424.1,1800.2,1424.1,1801,1423.9,1801.6z M1424.8,1807c-0.3,0.7-0.5,0.4-0.5-0.5c-0.1-1,0.2-1.5,0.4-1.2
		C1425,1805.6,1425,1806.4,1424.8,1807z M1425.7,1813.3c-0.3,0.7-0.5,0.5-0.5-0.5c-0.1-1,0.2-1.5,0.5-1.2
		C1425.9,1811.9,1425.9,1812.7,1425.7,1813.3z M1426.6,1818.7c-0.3,0.7-0.5,0.5-0.5-0.5c-0.1-1,0.2-1.5,0.5-1.2
		C1426.8,1817.3,1426.8,1818.1,1426.6,1818.7z M1429.3,1834.9c-0.3,0.7-0.5,0.4-0.5-0.5c-0.1-1,0.2-1.5,0.4-1.2
		C1429.5,1833.5,1429.5,1834.3,1429.3,1834.9z M1439.9,1709.6c2.3-2.3,8.3-4.6,10.3-4.1c0.7,0.2,2.3,0.6,3.6,0.9
		c4.9,1.3,7.7,5.8,9,13.8c0.6,3.3,0.5,6.3-0.1,8.6c-1.9,6.8-9.7,12.1-16.3,10.7c-6-1.2-11.5-9.3-11.5-17
		C1434.9,1718.5,1437.5,1712,1439.9,1709.6z M1515.3,2010c-5.4,1.6-16.2,1.4-23.9-0.6c-17.3-4.5-45-22.3-54.7-35.2
		c-4.5-5.9-4.6-8.3-0.4-10.6c2.4-1.4,9-1.3,20.3,0.3c17.7,2.5,35.1,7.6,43.8,12.6c4.1,2.4,6.6,2.9,6.6,1.1c0-0.5,1.2,0.4,2.5,2.1
		c1.3,1.7,4.8,5.4,7.6,8.1c6,5.6,7.8,8.5,7.8,12.7C1524.9,2004,1520.4,2008.5,1515.3,2010z M1556.3,2015.6c-0.2,0-1.3-1-2.5-2.3
		c-1.2-1.3-1.9-2.3-1.6-2.3c0.2,0,1.4,1,2.5,2.3C1555.8,2014.6,1556.5,2015.6,1556.3,2015.6z"/>
	<path class="st8" d="M1856.4,1887.3c-10.2,2.3-13.6,2.6-17.5,1.5c-5.8-1.6-10.3-5.7-11.6-10.3c-2.1-7.6,3.1-21.5,11-29.4
		c2.4-2.4,4.4-4.8,4.4-5.2c0-0.4-2.1-1.1-4.6-1.4c-2.5-0.4-6.3-1.6-8.5-2.8c-5-3.1-18.3-17.1-28.2-30.1
		c-15.5-20.3-22.3-31.5-46.1-75.3c-27.3-50.3-52.7-86.7-75.4-107.6c-25.6-23.6-58.3-32.2-98.9-26c-13.2,2.1-41.3,2.7-53.6,1.3
		c-7.2-0.8-8,0.4-2.9,4c4.1,2.9,9,9.5,10.7,14.4c1.9,5.3,1.7,12-0.4,16.1c-2.1,4-7.6,9.1-11.6,10.8c-1.5,0.6-2.9,1.7-2.9,2.3
		c0,0.5,3.5,1.9,7.7,3.1c22.8,6,51.1,20.5,87.8,44.9c28.4,18.8,43.6,31.5,72.3,60.1c38,37.9,71.6,78.2,95.3,114.5
		c6.8,10.4,8,13.4,6.8,17.5c-1.4,5-1.3,5,7.4,5.4c7.6,0.3,8.3,0.4,10.3,2.8c2.6,3.1,2.6,3.2,0.1,7c-3.1,4.8-11.1,10.4-26.9,19.6
		c-34.4,19.8-40,23.9-66.5,50.2c-10.7,10.5-20.1,19.2-21,19.2c-2.5,0-2.5-2.3-0.1-9.2c3.1-8.4,3.7-11.5,2.3-11.5
		c-0.6,0-3.4,1.4-6.3,3.2c-20.8,12.6-49.9,17-68.2,10.2c-6-2.3-13.7-9.5-15.6-14.5c-1.1-3.2-3.5-4.6-3.5-2.2c0,0.7-0.7,2-1.7,2.8
		c-1.4,1.3-2.3,1.4-5.9,0.5c-8.2-1.8-20.1-1.3-28.7,1.3c-10.3,3.1-13.9,3.1-15.2,0.1c-0.8-1.9-0.7-2.5,0.7-4.1
		c4.7-5.2,24.5-12.1,42.6-14.7l7.7-1.1l0.5-4c1.4-9,9.1-24,17.9-34.7c10.3-12.3,58.7-49.8,66.3-51.2c1.7-0.4,3.3-1.2,3.6-1.8
		c1-2.5-13.6-26.5-26.7-44c-12.1-16-22.9-27.9-40.9-44.8c-44.9-42.1-87.6-72.5-134.9-96.1c-19.1-9.4-23.6-11.1-24.3-8.7
		c-2,6.5-4.1,10.5-7.5,14.2c-7.5,8.4-17.5,10.6-25.9,5.9c-2.3-1.3-4.8-2.3-5.3-2.3c-0.5,0-1.8,1.8-2.7,3.9
		c-2.4,5.3-11.9,14.1-19.2,17.9c-7.3,3.9-21.5,7.9-27.4,7.9c-2.9,0-4.3,0.4-4.3,1.1c0,0.9-5.3,1.2-23.4,1.2v25
		c8.6,0.1,16.4,14.5,20.2,37.5c0.7,4.7,1.8,19.7,2.3,33.3c1.5,40.5,4.5,61.1,12.5,85.5c7.2,21.8,13.6,33.2,32.2,57.3
		c23.5,30.6,40.2,45.9,57.8,53c5.6,2.3,11.3,3.2,31.3,4.9c23.6,2.1,32.8,5.7,35.6,13.8c0.1,0.4,9.1-1,20-3
		c57.7-10.6,74.3-13.6,88.7-15.8c30.4-4.5,45.2-9.5,83.7-28.8c51.4-25.7,58.1-30.4,75.2-53.3c13.5-17.9,18.3-22,36.9-31.3
		c9.9-5,14.4-7.7,14.6-8.9C1858.9,1886.9,1858.7,1886.7,1856.4,1887.3z M1423.9,1801.6c-0.3,0.7-0.5,0.4-0.5-0.5
		c-0.1-1,0.2-1.5,0.4-1.2C1424.1,1800.2,1424.1,1801,1423.9,1801.6z M1424.8,1807c-0.3,0.7-0.5,0.4-0.5-0.5c-0.1-1,0.2-1.5,0.4-1.2
		C1425,1805.6,1425,1806.4,1424.8,1807z M1425.7,1813.3c-0.3,0.7-0.5,0.5-0.5-0.5c-0.1-1,0.2-1.5,0.5-1.2
		C1425.9,1811.9,1425.9,1812.7,1425.7,1813.3z M1426.6,1818.7c-0.3,0.7-0.5,0.5-0.5-0.5c-0.1-1,0.2-1.5,0.5-1.2
		C1426.8,1817.3,1426.8,1818.1,1426.6,1818.7z M1429.3,1834.9c-0.3,0.7-0.5,0.4-0.5-0.5c-0.1-1,0.2-1.5,0.4-1.2
		C1429.5,1833.5,1429.5,1834.3,1429.3,1834.9z M1439.9,1709.6c2.3-2.3,8.3-4.6,10.3-4.1c0.7,0.2,2.3,0.6,3.6,0.9
		c4.9,1.3,7.7,5.8,9,13.8c0.6,3.3,0.5,6.3-0.1,8.6c-1.9,6.8-9.7,12.1-16.3,10.7c-6-1.2-11.5-9.3-11.5-17
		C1434.9,1718.5,1437.5,1712,1439.9,1709.6z M1515.3,2010c-5.4,1.6-16.2,1.4-23.9-0.6c-17.3-4.5-45-22.3-54.7-35.2
		c-4.5-5.9-4.6-8.3-0.4-10.6c2.4-1.4,9-1.3,20.3,0.3c17.7,2.5,35.1,7.6,43.8,12.6c4.1,2.4,6.6,2.9,6.6,1.1c0-0.5,1.2,0.4,2.5,2.1
		c1.3,1.7,4.8,5.4,7.6,8.1c6,5.6,7.8,8.5,7.8,12.7C1524.9,2004,1520.4,2008.5,1515.3,2010z M1556.3,2015.6c-0.2,0-1.3-1-2.5-2.3
		c-1.2-1.3-1.9-2.3-1.6-2.3c0.2,0,1.4,1,2.5,2.3C1555.8,2014.6,1556.5,2015.6,1556.3,2015.6z"/>
	<path id="structure57_label55_A2" bar:growlevel="0" bar:type="" class="st34" d="M1371.9,1606.5c-13.4,3.7-20,11.3-17.1,19.9
		c1.5,4.6,4.6,6.3,11.3,6.2c4.4,0,6.8-0.6,11.4-2.9c10.8-5.3,14.1-12.2,9.4-19.2C1383.5,1605.3,1379.8,1604.3,1371.9,1606.5z"/>
	<path id="structure5_label4_Mx" bar:growlevel="0" bar:type="" class="st35" d="M1605,1534.8c-5,4.9-12.5,13.2-16.6,18.7
		c-10.1,13.6-19.2,21.9-29.6,27c-10,4.9-17.8,6.8-30.3,6.8c-23.8,0-48-7.9-77.5-25.6c-6.3-3.8-12.2-6.8-13.1-6.8
		c-1,0-7.2,1.8-13.8,4.1c-6.7,2.2-16.9,5-22.9,6.4c-9.3,2-12.2,2.3-20.9,1.9c-11.9-0.5-12.6,0.1-5.2,4.8c2.7,1.7,5.4,4.1,5.9,5.1
		c0.9,1.7,1.9,2.1,5.7,2.1c6.7,0,49.2,4.2,64,6.3c19.7,2.9,42.4,7.6,54.3,11.6c9.4,3.1,13,3.8,24.2,4.7c15.8,1.3,40.6,0.6,52-1.4
		c18.4-3.2,36.9-2.7,52.3,1.4c10.4,2.8,12.1,3.1,12.1,1.6c0-0.7-2.3-3.1-5-5.3c-10.6-8.6-19.4-22.4-22.3-35.1c-1.8-7.6-1.8-21,0-29
		c1.3-5.3,1.3-6.5,0.3-7.1C1615.8,1525.2,1614,1526.3,1605,1534.8z"/>
	<path id="structure64_label62_sol" bar:growlevel="0" bar:type="" class="st36" d="M1455.6,1596.5c-2.9,1-3.2,1.4-3.4,4.9
		c-0.3,3.3,0.2,4.2,3.3,7.7c2.3,2.5,6,5,10.2,7c6,2.8,7.3,3.1,15.1,3.1c10.8,0,14.4-1.7,14.4-6.8c0-6.5-10.1-13.1-23.8-15.8
		C1463.2,1595.1,1459.9,1595.1,1455.6,1596.5z"/>
	<path id="structure65_label64_gr" bar:growlevel="0" bar:type="" class="st37" d="M1367.3,1506.1c-9.5,6-15.6,13.6-18.2,22.4
		c-3.7,12.8,6.2,30.9,19.9,36.3c10.9,4.3,29.8,2.3,54.9-6c17.2-5.7,43.4-19.9,44.2-24c0.3-1.3-0.4-1.5-3.6-1.5
		c-2.2-0.1-6.1-0.8-8.8-1.8s-7-1.7-9.5-1.8c-5.8,0-8.7,2.2-11.5,8.5c-3.5,8-7.7,10.3-24.3,13.7c-13.8,2.8-25.6,0.2-33.4-7.5
		c-10.8-10.5-13.1-24.2-5.8-34.4C1375.8,1503.3,1374.2,1501.7,1367.3,1506.1z"/>
	<path id="structure68_label67_cu" bar:growlevel="0" bar:type="" class="st38" d="M1611.8,1440.9c-4,1.2-19.3,7.1-34.2,13.3
		c-37,15.4-62.9,24.9-75.4,27.7l-5.1,1.2v3.7c-0.1,12.1-7.2,27.7-18.2,39.7c-2.3,2.6-4.3,5.2-4.3,5.8c0,1.3,11.3,1.3,28.8,0.1
		c41.6-3,76.5-11.2,101.5-23.8c12.8-6.5,13.6-7,19.5-14.9c6.7-8.6,20.3-24.1,27.4-31.1c3.1-3,5.5-5.8,5.5-6.4c0-0.6-1.5-1.3-3.3-1.7
		c-5-0.9-7.7-2.6-11.4-7.2C1635.6,1439,1625.5,1436.8,1611.8,1440.9z"/>
	<path class="st5" d="M1856.4,1887.3c-10.2,2.3-13.6,2.6-17.5,1.5c-5.8-1.6-10.3-5.7-11.6-10.3c-2.1-7.6,3.1-21.5,11-29.4
		c2.4-2.4,4.4-4.8,4.4-5.2c0-0.4-2.1-1.1-4.6-1.4c-2.5-0.4-6.3-1.6-8.5-2.8c-5-3.1-18.3-17.1-28.2-30.1
		c-15.5-20.3-22.3-31.5-46.1-75.3c-27.3-50.3-52.7-86.7-75.4-107.6c-25.6-23.6-58.3-32.2-98.9-26c-13.2,2.1-41.3,2.7-53.6,1.3
		c-7.2-0.8-8,0.4-2.9,4c4.1,2.9,9,9.5,10.7,14.4c1.9,5.3,1.7,12-0.4,16.1c-2.1,4-7.6,9.1-11.6,10.8c-1.5,0.6-2.9,1.7-2.9,2.3
		c0,0.5,3.5,1.9,7.7,3.1c22.8,6,51.1,20.5,87.8,44.9c28.4,18.8,43.6,31.5,72.3,60.1c38,37.9,71.6,78.2,95.3,114.5
		c6.8,10.4,8,13.4,6.8,17.5c-1.4,5-1.3,5,7.4,5.4c7.6,0.3,8.3,0.4,10.3,2.8c2.6,3.1,2.6,3.2,0.1,7c-3.1,4.8-11.1,10.4-26.9,19.6
		c-34.4,19.8-40,23.9-66.5,50.2c-10.7,10.5-20.1,19.2-21,19.2c-2.5,0-2.5-2.3-0.1-9.2c3.1-8.4,3.7-11.5,2.3-11.5
		c-0.6,0-3.4,1.4-6.3,3.2c-20.8,12.6-49.9,17-68.2,10.2c-6-2.3-13.7-9.5-15.6-14.5c-1.1-3.2-3.5-4.6-3.5-2.2c0,0.7-0.7,2-1.7,2.8
		c-1.4,1.3-2.3,1.4-5.9,0.5c-8.2-1.8-20.1-1.3-28.7,1.3c-10.3,3.1-13.9,3.1-15.2,0.1c-0.8-1.9-0.7-2.5,0.7-4.1
		c4.7-5.2,24.5-12.1,42.6-14.7l7.7-1.1l0.5-4c1.4-9,9.1-24,17.9-34.7c10.3-12.3,58.7-49.8,66.3-51.2c1.7-0.4,3.3-1.2,3.6-1.8
		c1-2.5-13.6-26.5-26.7-44c-12.1-16-22.9-27.9-40.9-44.8c-44.9-42.1-87.6-72.5-134.9-96.1c-19.1-9.4-23.6-11.1-24.3-8.7
		c-2,6.5-4.1,10.5-7.5,14.2c-7.5,8.4-17.5,10.6-25.9,5.9c-2.3-1.3-4.8-2.3-5.3-2.3c-0.5,0-1.8,1.8-2.7,3.9
		c-2.4,5.3-11.9,14.1-19.2,17.9c-7.3,3.9-21.5,7.9-27.4,7.9c-2.9,0-4.3,0.4-4.3,1.1c0,0.9-5.3,1.2-23.4,1.2v25
		c8.6,0.1,16.4,14.5,20.2,37.5c0.7,4.7,1.8,19.7,2.3,33.3c1.5,40.5,4.5,61.1,12.5,85.5c7.2,21.8,13.6,33.2,32.2,57.3
		c23.5,30.6,40.2,45.9,57.8,53c5.6,2.3,11.3,3.2,31.3,4.9c23.6,2.1,32.8,5.7,35.6,13.8c0.1,0.4,9.1-1,20-3
		c57.7-10.6,74.3-13.6,88.7-15.8c30.4-4.5,45.2-9.5,83.7-28.8c51.4-25.7,58.1-30.4,75.2-53.3c13.5-17.9,18.3-22,36.9-31.3
		c9.9-5,14.4-7.7,14.6-8.9C1858.9,1886.9,1858.7,1886.7,1856.4,1887.3z M1423.9,1801.6c-0.3,0.7-0.5,0.4-0.5-0.5
		c-0.1-1,0.2-1.5,0.4-1.2C1424.1,1800.2,1424.1,1801,1423.9,1801.6z M1424.8,1807c-0.3,0.7-0.5,0.4-0.5-0.5c-0.1-1,0.2-1.5,0.4-1.2
		C1425,1805.6,1425,1806.4,1424.8,1807z M1425.7,1813.3c-0.3,0.7-0.5,0.5-0.5-0.5c-0.1-1,0.2-1.5,0.5-1.2
		C1425.9,1811.9,1425.9,1812.7,1425.7,1813.3z M1426.6,1818.7c-0.3,0.7-0.5,0.5-0.5-0.5c-0.1-1,0.2-1.5,0.5-1.2
		C1426.8,1817.3,1426.8,1818.1,1426.6,1818.7z M1429.3,1834.9c-0.3,0.7-0.5,0.4-0.5-0.5c-0.1-1,0.2-1.5,0.4-1.2
		C1429.5,1833.5,1429.5,1834.3,1429.3,1834.9z M1439.9,1709.6c2.3-2.3,8.3-4.6,10.3-4.1c0.7,0.2,2.3,0.6,3.6,0.9
		c4.9,1.3,7.7,5.8,9,13.8c0.6,3.3,0.5,6.3-0.1,8.6c-1.9,6.8-9.7,12.1-16.3,10.7c-6-1.2-11.5-9.3-11.5-17
		C1434.9,1718.5,1437.5,1712,1439.9,1709.6z M1515.3,2010c-5.4,1.6-16.2,1.4-23.9-0.6c-17.3-4.5-45-22.3-54.7-35.2
		c-4.5-5.9-4.6-8.3-0.4-10.6c2.4-1.4,9-1.3,20.3,0.3c17.7,2.5,35.1,7.6,43.8,12.6c4.1,2.4,6.6,2.9,6.6,1.1c0-0.5,1.2,0.4,2.5,2.1
		c1.3,1.7,4.8,5.4,7.6,8.1c6,5.6,7.8,8.5,7.8,12.7C1524.9,2004,1520.4,2008.5,1515.3,2010z M1556.3,2015.6c-0.2,0-1.3-1-2.5-2.3
		c-1.2-1.3-1.9-2.3-1.6-2.3c0.2,0,1.4,1,2.5,2.3C1555.8,2014.6,1556.5,2015.6,1556.3,2015.6z"/>
	<path id="structure6_label5_IB" bar:growlevel="0" bar:type="" class="st39" d="M1444.2,1550.6c-2.2,1-3.9,2.5-3.9,3.2
		c0,1.7,19.7,13.3,33.3,19.7c33.8,15.9,67.2,17.7,89,5c9.6-5.7,22.5-18.6,20.5-20.7c-0.3-0.3-5.3,0.3-11.2,1.2
		c-27.8,4.2-83,0.4-115.3-8.2c-4.7-1.3-8.6-2.3-8.6-2.2C1448.1,1548.6,1446.3,1549.5,1444.2,1550.6z"/>
	<path class="st6" d="M1856.4,1887.3c-10.2,2.3-13.6,2.6-17.5,1.5c-5.8-1.6-10.3-5.7-11.6-10.3c-2.1-7.6,3.1-21.5,11-29.4
		c2.4-2.4,4.4-4.8,4.4-5.2c0-0.4-2.1-1.1-4.6-1.4c-2.5-0.4-6.3-1.6-8.5-2.8c-5-3.1-18.3-17.1-28.2-30.1
		c-15.5-20.3-22.3-31.5-46.1-75.3c-27.3-50.3-52.7-86.7-75.4-107.6c-25.6-23.6-58.3-32.2-98.9-26c-13.2,2.1-41.3,2.7-53.6,1.3
		c-7.2-0.8-8,0.4-2.9,4c4.1,2.9,9,9.5,10.7,14.4c1.9,5.3,1.7,12-0.4,16.1c-2.1,4-7.6,9.1-11.6,10.8c-1.5,0.6-2.9,1.7-2.9,2.3
		c0,0.5,3.5,1.9,7.7,3.1c22.8,6,51.1,20.5,87.8,44.9c28.4,18.8,43.6,31.5,72.3,60.1c38,37.9,71.6,78.2,95.3,114.5
		c6.8,10.4,8,13.4,6.8,17.5c-1.4,5-1.3,5,7.4,5.4c7.6,0.3,8.3,0.4,10.3,2.8c2.6,3.1,2.6,3.2,0.1,7c-3.1,4.8-11.1,10.4-26.9,19.6
		c-34.4,19.8-40,23.9-66.5,50.2c-10.7,10.5-20.1,19.2-21,19.2c-2.5,0-2.5-2.3-0.1-9.2c3.1-8.4,3.7-11.5,2.3-11.5
		c-0.6,0-3.4,1.4-6.3,3.2c-20.8,12.6-49.9,17-68.2,10.2c-6-2.3-13.7-9.5-15.6-14.5c-1.1-3.2-3.5-4.6-3.5-2.2c0,0.7-0.7,2-1.7,2.8
		c-1.4,1.3-2.3,1.4-5.9,0.5c-8.2-1.8-20.1-1.3-28.7,1.3c-10.3,3.1-13.9,3.1-15.2,0.1c-0.8-1.9-0.7-2.5,0.7-4.1
		c4.7-5.2,24.5-12.1,42.6-14.7l7.7-1.1l0.5-4c1.4-9,9.1-24,17.9-34.7c10.3-12.3,58.7-49.8,66.3-51.2c1.7-0.4,3.3-1.2,3.6-1.8
		c1-2.5-13.6-26.5-26.7-44c-12.1-16-22.9-27.9-40.9-44.8c-44.9-42.1-87.6-72.5-134.9-96.1c-19.1-9.4-23.6-11.1-24.3-8.7
		c-2,6.5-4.1,10.5-7.5,14.2c-7.5,8.4-17.5,10.6-25.9,5.9c-2.3-1.3-4.8-2.3-5.3-2.3c-0.5,0-1.8,1.8-2.7,3.9
		c-2.4,5.3-11.9,14.1-19.2,17.9c-7.3,3.9-21.5,7.9-27.4,7.9c-2.9,0-4.3,0.4-4.3,1.1c0,0.9-5.3,1.2-23.4,1.2v25
		c8.6,0.1,16.4,14.5,20.2,37.5c0.7,4.7,1.8,19.7,2.3,33.3c1.5,40.5,4.5,61.1,12.5,85.5c7.2,21.8,13.6,33.2,32.2,57.3
		c23.5,30.6,40.2,45.9,57.8,53c5.6,2.3,11.3,3.2,31.3,4.9c23.6,2.1,32.8,5.7,35.6,13.8c0.1,0.4,9.1-1,20-3
		c57.7-10.6,74.3-13.6,88.7-15.8c30.4-4.5,45.2-9.5,83.7-28.8c51.4-25.7,58.1-30.4,75.2-53.3c13.5-17.9,18.3-22,36.9-31.3
		c9.9-5,14.4-7.7,14.6-8.9C1858.9,1886.9,1858.7,1886.7,1856.4,1887.3z M1423.9,1801.6c-0.3,0.7-0.5,0.4-0.5-0.5
		c-0.1-1,0.2-1.5,0.4-1.2C1424.1,1800.2,1424.1,1801,1423.9,1801.6z M1424.8,1807c-0.3,0.7-0.5,0.4-0.5-0.5c-0.1-1,0.2-1.5,0.4-1.2
		C1425,1805.6,1425,1806.4,1424.8,1807z M1425.7,1813.3c-0.3,0.7-0.5,0.5-0.5-0.5c-0.1-1,0.2-1.5,0.5-1.2
		C1425.9,1811.9,1425.9,1812.7,1425.7,1813.3z M1426.6,1818.7c-0.3,0.7-0.5,0.5-0.5-0.5c-0.1-1,0.2-1.5,0.5-1.2
		C1426.8,1817.3,1426.8,1818.1,1426.6,1818.7z M1429.3,1834.9c-0.3,0.7-0.5,0.4-0.5-0.5c-0.1-1,0.2-1.5,0.4-1.2
		C1429.5,1833.5,1429.5,1834.3,1429.3,1834.9z M1439.9,1709.6c2.3-2.3,8.3-4.6,10.3-4.1c0.7,0.2,2.3,0.6,3.6,0.9
		c4.9,1.3,7.7,5.8,9,13.8c0.6,3.3,0.5,6.3-0.1,8.6c-1.9,6.8-9.7,12.1-16.3,10.7c-6-1.2-11.5-9.3-11.5-17
		C1434.9,1718.5,1437.5,1712,1439.9,1709.6z M1515.3,2010c-5.4,1.6-16.2,1.4-23.9-0.6c-17.3-4.5-45-22.3-54.7-35.2
		c-4.5-5.9-4.6-8.3-0.4-10.6c2.4-1.4,9-1.3,20.3,0.3c17.7,2.5,35.1,7.6,43.8,12.6c4.1,2.4,6.6,2.9,6.6,1.1c0-0.5,1.2,0.4,2.5,2.1
		c1.3,1.7,4.8,5.4,7.6,8.1c6,5.6,7.8,8.5,7.8,12.7C1524.9,2004,1520.4,2008.5,1515.3,2010z M1556.3,2015.6c-0.2,0-1.3-1-2.5-2.3
		c-1.2-1.3-1.9-2.3-1.6-2.3c0.2,0,1.4,1,2.5,2.3C1555.8,2014.6,1556.5,2015.6,1556.3,2015.6z"/>
	<path class="st7" d="M1856.4,1887.3c-10.2,2.3-13.6,2.6-17.5,1.5c-5.8-1.6-10.3-5.7-11.6-10.3c-2.1-7.6,3.1-21.5,11-29.4
		c2.4-2.4,4.4-4.8,4.4-5.2c0-0.4-2.1-1.1-4.6-1.4c-2.5-0.4-6.3-1.6-8.5-2.8c-5-3.1-18.3-17.1-28.2-30.1
		c-15.5-20.3-22.3-31.5-46.1-75.3c-27.3-50.3-52.7-86.7-75.4-107.6c-25.6-23.6-58.3-32.2-98.9-26c-13.2,2.1-41.3,2.7-53.6,1.3
		c-7.2-0.8-8,0.4-2.9,4c4.1,2.9,9,9.5,10.7,14.4c1.9,5.3,1.7,12-0.4,16.1c-2.1,4-7.6,9.1-11.6,10.8c-1.5,0.6-2.9,1.7-2.9,2.3
		c0,0.5,3.5,1.9,7.7,3.1c22.8,6,51.1,20.5,87.8,44.9c28.4,18.8,43.6,31.5,72.3,60.1c38,37.9,71.6,78.2,95.3,114.5
		c6.8,10.4,8,13.4,6.8,17.5c-1.4,5-1.3,5,7.4,5.4c7.6,0.3,8.3,0.4,10.3,2.8c2.6,3.1,2.6,3.2,0.1,7c-3.1,4.8-11.1,10.4-26.9,19.6
		c-34.4,19.8-40,23.9-66.5,50.2c-10.7,10.5-20.1,19.2-21,19.2c-2.5,0-2.5-2.3-0.1-9.2c3.1-8.4,3.7-11.5,2.3-11.5
		c-0.6,0-3.4,1.4-6.3,3.2c-20.8,12.6-49.9,17-68.2,10.2c-6-2.3-13.7-9.5-15.6-14.5c-1.1-3.2-3.5-4.6-3.5-2.2c0,0.7-0.7,2-1.7,2.8
		c-1.4,1.3-2.3,1.4-5.9,0.5c-8.2-1.8-20.1-1.3-28.7,1.3c-10.3,3.1-13.9,3.1-15.2,0.1c-0.8-1.9-0.7-2.5,0.7-4.1
		c4.7-5.2,24.5-12.1,42.6-14.7l7.7-1.1l0.5-4c1.4-9,9.1-24,17.9-34.7c10.3-12.3,58.7-49.8,66.3-51.2c1.7-0.4,3.3-1.2,3.6-1.8
		c1-2.5-13.6-26.5-26.7-44c-12.1-16-22.9-27.9-40.9-44.8c-44.9-42.1-87.6-72.5-134.9-96.1c-19.1-9.4-23.6-11.1-24.3-8.7
		c-2,6.5-4.1,10.5-7.5,14.2c-7.5,8.4-17.5,10.6-25.9,5.9c-2.3-1.3-4.8-2.3-5.3-2.3c-0.5,0-1.8,1.8-2.7,3.9
		c-2.4,5.3-11.9,14.1-19.2,17.9c-7.3,3.9-21.5,7.9-27.4,7.9c-2.9,0-4.3,0.4-4.3,1.1c0,0.9-5.3,1.2-23.4,1.2v25
		c8.6,0.1,16.4,14.5,20.2,37.5c0.7,4.7,1.8,19.7,2.3,33.3c1.5,40.5,4.5,61.1,12.5,85.5c7.2,21.8,13.6,33.2,32.2,57.3
		c23.5,30.6,40.2,45.9,57.8,53c5.6,2.3,11.3,3.2,31.3,4.9c23.6,2.1,32.8,5.7,35.6,13.8c0.1,0.4,9.1-1,20-3
		c57.7-10.6,74.3-13.6,88.7-15.8c30.4-4.5,45.2-9.5,83.7-28.8c51.4-25.7,58.1-30.4,75.2-53.3c13.5-17.9,18.3-22,36.9-31.3
		c9.9-5,14.4-7.7,14.6-8.9C1858.9,1886.9,1858.7,1886.7,1856.4,1887.3z M1423.9,1801.6c-0.3,0.7-0.5,0.4-0.5-0.5
		c-0.1-1,0.2-1.5,0.4-1.2C1424.1,1800.2,1424.1,1801,1423.9,1801.6z M1424.8,1807c-0.3,0.7-0.5,0.4-0.5-0.5c-0.1-1,0.2-1.5,0.4-1.2
		C1425,1805.6,1425,1806.4,1424.8,1807z M1425.7,1813.3c-0.3,0.7-0.5,0.5-0.5-0.5c-0.1-1,0.2-1.5,0.5-1.2
		C1425.9,1811.9,1425.9,1812.7,1425.7,1813.3z M1426.6,1818.7c-0.3,0.7-0.5,0.5-0.5-0.5c-0.1-1,0.2-1.5,0.5-1.2
		C1426.8,1817.3,1426.8,1818.1,1426.6,1818.7z M1429.3,1834.9c-0.3,0.7-0.5,0.4-0.5-0.5c-0.1-1,0.2-1.5,0.4-1.2
		C1429.5,1833.5,1429.5,1834.3,1429.3,1834.9z M1439.9,1709.6c2.3-2.3,8.3-4.6,10.3-4.1c0.7,0.2,2.3,0.6,3.6,0.9
		c4.9,1.3,7.7,5.8,9,13.8c0.6,3.3,0.5,6.3-0.1,8.6c-1.9,6.8-9.7,12.1-16.3,10.7c-6-1.2-11.5-9.3-11.5-17
		C1434.9,1718.5,1437.5,1712,1439.9,1709.6z M1515.3,2010c-5.4,1.6-16.2,1.4-23.9-0.6c-17.3-4.5-45-22.3-54.7-35.2
		c-4.5-5.9-4.6-8.3-0.4-10.6c2.4-1.4,9-1.3,20.3,0.3c17.7,2.5,35.1,7.6,43.8,12.6c4.1,2.4,6.6,2.9,6.6,1.1c0-0.5,1.2,0.4,2.5,2.1
		c1.3,1.7,4.8,5.4,7.6,8.1c6,5.6,7.8,8.5,7.8,12.7C1524.9,2004,1520.4,2008.5,1515.3,2010z M1556.3,2015.6c-0.2,0-1.3-1-2.5-2.3
		c-1.2-1.3-1.9-2.3-1.6-2.3c0.2,0,1.4,1,2.5,2.3C1555.8,2014.6,1556.5,2015.6,1556.3,2015.6z"/>
	<path class="st7" d="M1856.4,1887.3c-10.2,2.3-13.6,2.6-17.5,1.5c-5.8-1.6-10.3-5.7-11.6-10.3c-2.1-7.6,3.1-21.5,11-29.4
		c2.4-2.4,4.4-4.8,4.4-5.2c0-0.4-2.1-1.1-4.6-1.4c-2.5-0.4-6.3-1.6-8.5-2.8c-5-3.1-18.3-17.1-28.2-30.1
		c-15.5-20.3-22.3-31.5-46.1-75.3c-27.3-50.3-52.7-86.7-75.4-107.6c-25.6-23.6-58.3-32.2-98.9-26c-13.2,2.1-41.3,2.7-53.6,1.3
		c-7.2-0.8-8,0.4-2.9,4c4.1,2.9,9,9.5,10.7,14.4c1.9,5.3,1.7,12-0.4,16.1c-2.1,4-7.6,9.1-11.6,10.8c-1.5,0.6-2.9,1.7-2.9,2.3
		c0,0.5,3.5,1.9,7.7,3.1c22.8,6,51.1,20.5,87.8,44.9c28.4,18.8,43.6,31.5,72.3,60.1c38,37.9,71.6,78.2,95.3,114.5
		c6.8,10.4,8,13.4,6.8,17.5c-1.4,5-1.3,5,7.4,5.4c7.6,0.3,8.3,0.4,10.3,2.8c2.6,3.1,2.6,3.2,0.1,7c-3.1,4.8-11.1,10.4-26.9,19.6
		c-34.4,19.8-40,23.9-66.5,50.2c-10.7,10.5-20.1,19.2-21,19.2c-2.5,0-2.5-2.3-0.1-9.2c3.1-8.4,3.7-11.5,2.3-11.5
		c-0.6,0-3.4,1.4-6.3,3.2c-20.8,12.6-49.9,17-68.2,10.2c-6-2.3-13.7-9.5-15.6-14.5c-1.1-3.2-3.5-4.6-3.5-2.2c0,0.7-0.7,2-1.7,2.8
		c-1.4,1.3-2.3,1.4-5.9,0.5c-8.2-1.8-20.1-1.3-28.7,1.3c-10.3,3.1-13.9,3.1-15.2,0.1c-0.8-1.9-0.7-2.5,0.7-4.1
		c4.7-5.2,24.5-12.1,42.6-14.7l7.7-1.1l0.5-4c1.4-9,9.1-24,17.9-34.7c10.3-12.3,58.7-49.8,66.3-51.2c1.7-0.4,3.3-1.2,3.6-1.8
		c1-2.5-13.6-26.5-26.7-44c-12.1-16-22.9-27.9-40.9-44.8c-44.9-42.1-87.6-72.5-134.9-96.1c-19.1-9.4-23.6-11.1-24.3-8.7
		c-2,6.5-4.1,10.5-7.5,14.2c-7.5,8.4-17.5,10.6-25.9,5.9c-2.3-1.3-4.8-2.3-5.3-2.3c-0.5,0-1.8,1.8-2.7,3.9
		c-2.4,5.3-11.9,14.1-19.2,17.9c-7.3,3.9-21.5,7.9-27.4,7.9c-2.9,0-4.3,0.4-4.3,1.1c0,0.9-5.3,1.2-23.4,1.2v25
		c8.6,0.1,16.4,14.5,20.2,37.5c0.7,4.7,1.8,19.7,2.3,33.3c1.5,40.5,4.5,61.1,12.5,85.5c7.2,21.8,13.6,33.2,32.2,57.3
		c23.5,30.6,40.2,45.9,57.8,53c5.6,2.3,11.3,3.2,31.3,4.9c23.6,2.1,32.8,5.7,35.6,13.8c0.1,0.4,9.1-1,20-3
		c57.7-10.6,74.3-13.6,88.7-15.8c30.4-4.5,45.2-9.5,83.7-28.8c51.4-25.7,58.1-30.4,75.2-53.3c13.5-17.9,18.3-22,36.9-31.3
		c9.9-5,14.4-7.7,14.6-8.9C1858.9,1886.9,1858.7,1886.7,1856.4,1887.3z M1423.9,1801.6c-0.3,0.7-0.5,0.4-0.5-0.5
		c-0.1-1,0.2-1.5,0.4-1.2C1424.1,1800.2,1424.1,1801,1423.9,1801.6z M1424.8,1807c-0.3,0.7-0.5,0.4-0.5-0.5c-0.1-1,0.2-1.5,0.4-1.2
		C1425,1805.6,1425,1806.4,1424.8,1807z M1425.7,1813.3c-0.3,0.7-0.5,0.5-0.5-0.5c-0.1-1,0.2-1.5,0.5-1.2
		C1425.9,1811.9,1425.9,1812.7,1425.7,1813.3z M1426.6,1818.7c-0.3,0.7-0.5,0.5-0.5-0.5c-0.1-1,0.2-1.5,0.5-1.2
		C1426.8,1817.3,1426.8,1818.1,1426.6,1818.7z M1429.3,1834.9c-0.3,0.7-0.5,0.4-0.5-0.5c-0.1-1,0.2-1.5,0.4-1.2
		C1429.5,1833.5,1429.5,1834.3,1429.3,1834.9z M1439.9,1709.6c2.3-2.3,8.3-4.6,10.3-4.1c0.7,0.2,2.3,0.6,3.6,0.9
		c4.9,1.3,7.7,5.8,9,13.8c0.6,3.3,0.5,6.3-0.1,8.6c-1.9,6.8-9.7,12.1-16.3,10.7c-6-1.2-11.5-9.3-11.5-17
		C1434.9,1718.5,1437.5,1712,1439.9,1709.6z M1515.3,2010c-5.4,1.6-16.2,1.4-23.9-0.6c-17.3-4.5-45-22.3-54.7-35.2
		c-4.5-5.9-4.6-8.3-0.4-10.6c2.4-1.4,9-1.3,20.3,0.3c17.7,2.5,35.1,7.6,43.8,12.6c4.1,2.4,6.6,2.9,6.6,1.1c0-0.5,1.2,0.4,2.5,2.1
		c1.3,1.7,4.8,5.4,7.6,8.1c6,5.6,7.8,8.5,7.8,12.7C1524.9,2004,1520.4,2008.5,1515.3,2010z M1556.3,2015.6c-0.2,0-1.3-1-2.5-2.3
		c-1.2-1.3-1.9-2.3-1.6-2.3c0.2,0,1.4,1,2.5,2.3C1555.8,2014.6,1556.5,2015.6,1556.3,2015.6z"/>
	<path id="structure73_label73_rs" bar:growlevel="0" bar:type="" class="st40" d="M1751.8,1862.4c-0.6,0.3-1.9,1.2-2.8,2
		c-0.8,0.8-2.7,2.1-4.2,2.9c-4,2.2-6.1,7.3-6.1,14.5c0,4.7,0.5,6.6,1.9,8.6c4.8,6.4,12.6,9.3,27.4,9.9c9.5,0.4,10.6,0.3,14.4-1.7
		c6.8-3.5,9.6-10,7.2-16.5c-2.3-5.8-15.8-17.3-22.9-19.3C1762.9,1861.7,1754.1,1861.5,1751.8,1862.4z"/>
	<path class="st14" d="M1527.5,2019.7c-5.5-1.6-20.6-3.7-33.6-4.5c-15.8-1.1-26.7-5.1-39.2-14.6c-3.4-2.6-6.7-4.8-7.1-4.8
		s-2.1,0.7-3.6,1.5c-2.6,1.5-2.8,1.5-5.1-0.3c-4.7-3.4-6.2-6.4-6.2-11.9c0-5-0.1-5.2-6.8-13.3c-9.2-11.1-24.6-31.6-29-39
		c-14.8-24.4-24.4-60.6-26.6-100.4c-0.7-12.6-1.1-15.1-3.1-19.4c-4.2-9.2-13.1-17-19.6-17v216.8l4.2,3.7c15.8,13.9,44.8,27,59.7,27
		c6.7,0,119.4-11.8,124.9-13.1C1541.6,2029.2,1535.7,2022.1,1527.5,2019.7z"/>
	<path class="st19" d="M1429.1,1019.4c-4.1-7.9-19.2-17-38.2-22.9c-15.6-4.9-30.1-7.4-43.2-7.6v66.9c21.9,0,43.9-0.4,50.2-1.1
		c14.8-1.7,26.7-8.4,31-17.5C1430.8,1033.1,1431,1022.9,1429.1,1019.4z"/>
	<path class="st21" d="M1856.4,1887.3c-10.2,2.3-13.6,2.6-17.5,1.5c-5.8-1.6-10.3-5.7-11.6-10.3c-2.1-7.6,3.1-21.5,11-29.4
		c2.4-2.4,4.4-4.8,4.4-5.2c0-0.4-2.1-1.1-4.6-1.4c-2.5-0.4-6.3-1.6-8.5-2.8c-5-3.1-18.3-17.1-28.2-30.1
		c-15.5-20.3-22.3-31.5-46.1-75.3c-27.3-50.3-52.7-86.7-75.4-107.6c-25.6-23.6-58.3-32.2-98.9-26c-13.2,2.1-41.3,2.7-53.6,1.3
		c-7.2-0.8-8,0.4-2.9,4c4.1,2.9,9,9.5,10.7,14.4c1.9,5.3,1.7,12-0.4,16.1c-2.1,4-7.6,9.1-11.6,10.8c-1.5,0.6-2.9,1.7-2.9,2.3
		c0,0.5,3.5,1.9,7.7,3.1c22.8,6,51.1,20.5,87.8,44.9c28.4,18.8,43.6,31.5,72.3,60.1c38,37.9,71.6,78.2,95.3,114.5
		c6.8,10.4,8,13.4,6.8,17.5c-1.4,5-1.3,5,7.4,5.4c7.6,0.3,8.3,0.4,10.3,2.8c2.6,3.1,2.6,3.2,0.1,7c-3.1,4.8-11.1,10.4-26.9,19.6
		c-34.4,19.8-40,23.9-66.5,50.2c-10.7,10.5-20.1,19.2-21,19.2c-2.5,0-2.5-2.3-0.1-9.2c3.1-8.4,3.7-11.5,2.3-11.5
		c-0.6,0-3.4,1.4-6.3,3.2c-20.8,12.6-49.9,17-68.2,10.2c-6-2.3-13.7-9.5-15.6-14.5c-1.1-3.2-3.5-4.6-3.5-2.2c0,0.7-0.7,2-1.7,2.8
		c-1.4,1.3-2.3,1.4-5.9,0.5c-8.2-1.8-20.1-1.3-28.7,1.3c-10.3,3.1-13.9,3.1-15.2,0.1c-0.8-1.9-0.7-2.5,0.7-4.1
		c4.7-5.2,24.5-12.1,42.6-14.7l7.7-1.1l0.5-4c1.4-9,9.1-24,17.9-34.7c10.3-12.3,58.7-49.8,66.3-51.2c1.7-0.4,3.3-1.2,3.6-1.8
		c1-2.5-13.6-26.5-26.7-44c-12.1-16-22.9-27.9-40.9-44.8c-44.9-42.1-87.6-72.5-134.9-96.1c-19.1-9.4-23.6-11.1-24.3-8.7
		c-2,6.5-4.1,10.5-7.5,14.2c-7.5,8.4-17.5,10.6-25.9,5.9c-2.3-1.3-4.8-2.3-5.3-2.3c-0.5,0-1.8,1.8-2.7,3.9
		c-2.4,5.3-11.9,14.1-19.2,17.9c-7.3,3.9-21.5,7.9-27.4,7.9c-2.9,0-4.3,0.4-4.3,1.1c0,0.9-5.3,1.2-23.4,1.2v25
		c8.6,0.1,16.4,14.5,20.2,37.5c0.7,4.7,1.8,19.7,2.3,33.3c1.5,40.5,4.5,61.1,12.5,85.5c7.2,21.8,13.6,33.2,32.2,57.3
		c23.5,30.6,40.2,45.9,57.8,53c5.6,2.3,11.3,3.2,31.3,4.9c23.6,2.1,32.8,5.7,35.6,13.8c0.1,0.4,9.1-1,20-3
		c57.7-10.6,74.3-13.6,88.7-15.8c30.4-4.5,45.2-9.5,83.7-28.8c51.4-25.7,58.1-30.4,75.2-53.3c13.5-17.9,18.3-22,36.9-31.3
		c9.9-5,14.4-7.7,14.6-8.9C1858.9,1886.9,1858.7,1886.7,1856.4,1887.3z M1423.9,1801.6c-0.3,0.7-0.5,0.4-0.5-0.5
		c-0.1-1,0.2-1.5,0.4-1.2C1424.1,1800.2,1424.1,1801,1423.9,1801.6z M1424.8,1807c-0.3,0.7-0.5,0.4-0.5-0.5c-0.1-1,0.2-1.5,0.4-1.2
		C1425,1805.6,1425,1806.4,1424.8,1807z M1425.7,1813.3c-0.3,0.7-0.5,0.5-0.5-0.5c-0.1-1,0.2-1.5,0.5-1.2
		C1425.9,1811.9,1425.9,1812.7,1425.7,1813.3z M1426.6,1818.7c-0.3,0.7-0.5,0.5-0.5-0.5c-0.1-1,0.2-1.5,0.5-1.2
		C1426.8,1817.3,1426.8,1818.1,1426.6,1818.7z M1429.3,1834.9c-0.3,0.7-0.5,0.4-0.5-0.5c-0.1-1,0.2-1.5,0.4-1.2
		C1429.5,1833.5,1429.5,1834.3,1429.3,1834.9z M1439.9,1709.6c2.3-2.3,8.3-4.6,10.3-4.1c0.7,0.2,2.3,0.6,3.6,0.9
		c4.9,1.3,7.7,5.8,9,13.8c0.6,3.3,0.5,6.3-0.1,8.6c-1.9,6.8-9.7,12.1-16.3,10.7c-6-1.2-11.5-9.3-11.5-17
		C1434.9,1718.5,1437.5,1712,1439.9,1709.6z M1515.3,2010c-5.4,1.6-16.2,1.4-23.9-0.6c-17.3-4.5-45-22.3-54.7-35.2
		c-4.5-5.9-4.6-8.3-0.4-10.6c2.4-1.4,9-1.3,20.3,0.3c17.7,2.5,35.1,7.6,43.8,12.6c4.1,2.4,6.6,2.9,6.6,1.1c0-0.5,1.2,0.4,2.5,2.1
		c1.3,1.7,4.8,5.4,7.6,8.1c6,5.6,7.8,8.5,7.8,12.7C1524.9,2004,1520.4,2008.5,1515.3,2010z M1556.3,2015.6c-0.2,0-1.3-1-2.5-2.3
		c-1.2-1.3-1.9-2.3-1.6-2.3c0.2,0,1.4,1,2.5,2.3C1555.8,2014.6,1556.5,2015.6,1556.3,2015.6z"/>
	<path id="structure79_label85_SolVL" bar:growlevel="0" bar:type="" class="st41" d="M1485.2,1595.4c-0.9,1.5-1.6,3.1-1.6,3.4
		c0,0.5,2.2,2.2,4.8,4c5.2,3.4,8.4,8.4,7.4,11.4c-0.4,1-1.8,2.4-3.2,3.2c-1.4,0.8-2.6,1.9-2.6,2.6c0,4.2,21.5,27.7,26.5,29
		c3.1,0.8,11.2-3.2,15.2-7.7c8-8.9,5.9-22.7-4.9-32.8c-6.4-5.9-16-10.2-32.9-14.5C1486.6,1592.3,1487,1592.2,1485.2,1595.4z"/>
	<path id="structure7_label6_SolDL" bar:growlevel="0" bar:type="" class="st42" d="M1380,1579.8c0,4.6,6.2,12.2,14.2,17.5
		c12.9,8.6,28.6,13,53.1,14.7c9.4,0.7,10,0.3,6-5.6c-2.7-4-2.8-5.8-0.5-8.6c2.4-3.1,11.7-3.4,21.8-0.9c4,1.1,7.7,1.9,8,1.9
		c0.8,0,2.7-4.2,2.7-5.8c0-2.3-30.4-7.4-65.7-10.8C1386.6,1579.1,1380,1578.7,1380,1579.8z"/>
	<path id="structure81_label88_RAmb" bar:growlevel="0" bar:type="" class="st43" d="M1646,1775.3c-3.9,1.2-7.6,5.4-8.3,9.3
		c-0.5,3.2-0.2,3.7,5.3,9.4c7.3,7.7,13.3,15,21.9,26.3c7.3,9.6,9,10.6,15.4,8.8c8.6-2.3,13.1-12.1,11.2-23.3
		c-1.8-10-6.8-17.5-15.5-23.3C1667.1,1776.6,1652.8,1773.2,1646,1775.3z"/>
	<path id="structure82_label89_vert" bar:growlevel="0" bar:type="" class="st44" d="M1473.2,2039.5c-1.4,0.8-3.2,2.1-3.8,2.9
		c-1.8,2.3-1.4,8.7,0.6,11.3c4.4,5.6,17.2,6.8,21.3,2.1c4-4.8,1.5-12.9-5.1-16.3C1482.9,2037.8,1476.6,2037.8,1473.2,2039.5z"/>
	<path class="st32" d="M1856.4,1887.3c-10.2,2.3-13.6,2.6-17.5,1.5c-5.8-1.6-10.3-5.7-11.6-10.3c-2.1-7.6,3.1-21.5,11-29.4
		c2.4-2.4,4.4-4.8,4.4-5.2c0-0.4-2.1-1.1-4.6-1.4c-2.5-0.4-6.3-1.6-8.5-2.8c-5-3.1-18.3-17.1-28.2-30.1
		c-15.5-20.3-22.3-31.5-46.1-75.3c-27.3-50.3-52.7-86.7-75.4-107.6c-25.6-23.6-58.3-32.2-98.9-26c-13.2,2.1-41.3,2.7-53.6,1.3
		c-7.2-0.8-8,0.4-2.9,4c4.1,2.9,9,9.5,10.7,14.4c1.9,5.3,1.7,12-0.4,16.1c-2.1,4-7.6,9.1-11.6,10.8c-1.5,0.6-2.9,1.7-2.9,2.3
		c0,0.5,3.5,1.9,7.7,3.1c22.8,6,51.1,20.5,87.8,44.9c28.4,18.8,43.6,31.5,72.3,60.1c38,37.9,71.6,78.2,95.3,114.5
		c6.8,10.4,8,13.4,6.8,17.5c-1.4,5-1.3,5,7.4,5.4c7.6,0.3,8.3,0.4,10.3,2.8c2.6,3.1,2.6,3.2,0.1,7c-3.1,4.8-11.1,10.4-26.9,19.6
		c-34.4,19.8-40,23.9-66.5,50.2c-10.7,10.5-20.1,19.2-21,19.2c-2.5,0-2.5-2.3-0.1-9.2c3.1-8.4,3.7-11.5,2.3-11.5
		c-0.6,0-3.4,1.4-6.3,3.2c-20.8,12.6-49.9,17-68.2,10.2c-6-2.3-13.7-9.5-15.6-14.5c-1.1-3.2-3.5-4.6-3.5-2.2c0,0.7-0.7,2-1.7,2.8
		c-1.4,1.3-2.3,1.4-5.9,0.5c-8.2-1.8-20.1-1.3-28.7,1.3c-10.3,3.1-13.9,3.1-15.2,0.1c-0.8-1.9-0.7-2.5,0.7-4.1
		c4.7-5.2,24.5-12.1,42.6-14.7l7.7-1.1l0.5-4c1.4-9,9.1-24,17.9-34.7c10.3-12.3,58.7-49.8,66.3-51.2c1.7-0.4,3.3-1.2,3.6-1.8
		c1-2.5-13.6-26.5-26.7-44c-12.1-16-22.9-27.9-40.9-44.8c-44.9-42.1-87.6-72.5-134.9-96.1c-19.1-9.4-23.6-11.1-24.3-8.7
		c-2,6.5-4.1,10.5-7.5,14.2c-7.5,8.4-17.5,10.6-25.9,5.9c-2.3-1.3-4.8-2.3-5.3-2.3c-0.5,0-1.8,1.8-2.7,3.9
		c-2.4,5.3-11.9,14.1-19.2,17.9c-7.3,3.9-21.5,7.9-27.4,7.9c-2.9,0-4.3,0.4-4.3,1.1c0,0.9-5.3,1.2-23.4,1.2v25
		c8.6,0.1,16.4,14.5,20.2,37.5c0.7,4.7,1.8,19.7,2.3,33.3c1.5,40.5,4.5,61.1,12.5,85.5c7.2,21.8,13.6,33.2,32.2,57.3
		c23.5,30.6,40.2,45.9,57.8,53c5.6,2.3,11.3,3.2,31.3,4.9c23.6,2.1,32.8,5.7,35.6,13.8c0.1,0.4,9.1-1,20-3
		c57.7-10.6,74.3-13.6,88.7-15.8c30.4-4.5,45.2-9.5,83.7-28.8c51.4-25.7,58.1-30.4,75.2-53.3c13.5-17.9,18.3-22,36.9-31.3
		c9.9-5,14.4-7.7,14.6-8.9C1858.9,1886.9,1858.7,1886.7,1856.4,1887.3z M1423.9,1801.6c-0.3,0.7-0.5,0.4-0.5-0.5
		c-0.1-1,0.2-1.5,0.4-1.2C1424.1,1800.2,1424.1,1801,1423.9,1801.6z M1424.8,1807c-0.3,0.7-0.5,0.4-0.5-0.5c-0.1-1,0.2-1.5,0.4-1.2
		C1425,1805.6,1425,1806.4,1424.8,1807z M1425.7,1813.3c-0.3,0.7-0.5,0.5-0.5-0.5c-0.1-1,0.2-1.5,0.5-1.2
		C1425.9,1811.9,1425.9,1812.7,1425.7,1813.3z M1426.6,1818.7c-0.3,0.7-0.5,0.5-0.5-0.5c-0.1-1,0.2-1.5,0.5-1.2
		C1426.8,1817.3,1426.8,1818.1,1426.6,1818.7z M1429.3,1834.9c-0.3,0.7-0.5,0.4-0.5-0.5c-0.1-1,0.2-1.5,0.4-1.2
		C1429.5,1833.5,1429.5,1834.3,1429.3,1834.9z M1439.9,1709.6c2.3-2.3,8.3-4.6,10.3-4.1c0.7,0.2,2.3,0.6,3.6,0.9
		c4.9,1.3,7.7,5.8,9,13.8c0.6,3.3,0.5,6.3-0.1,8.6c-1.9,6.8-9.7,12.1-16.3,10.7c-6-1.2-11.5-9.3-11.5-17
		C1434.9,1718.5,1437.5,1712,1439.9,1709.6z M1515.3,2010c-5.4,1.6-16.2,1.4-23.9-0.6c-17.3-4.5-45-22.3-54.7-35.2
		c-4.5-5.9-4.6-8.3-0.4-10.6c2.4-1.4,9-1.3,20.3,0.3c17.7,2.5,35.1,7.6,43.8,12.6c4.1,2.4,6.6,2.9,6.6,1.1c0-0.5,1.2,0.4,2.5,2.1
		c1.3,1.7,4.8,5.4,7.6,8.1c6,5.6,7.8,8.5,7.8,12.7C1524.9,2004,1520.4,2008.5,1515.3,2010z M1556.3,2015.6c-0.2,0-1.3-1-2.5-2.3
		c-1.2-1.3-1.9-2.3-1.6-2.3c0.2,0,1.4,1,2.5,2.3C1555.8,2014.6,1556.5,2015.6,1556.3,2015.6z"/>
	<path class="st33" d="M1856.4,1887.3c-10.2,2.3-13.6,2.6-17.5,1.5c-5.8-1.6-10.3-5.7-11.6-10.3c-2.1-7.6,3.1-21.5,11-29.4
		c2.4-2.4,4.4-4.8,4.4-5.2c0-0.4-2.1-1.1-4.6-1.4c-2.5-0.4-6.3-1.6-8.5-2.8c-5-3.1-18.3-17.1-28.2-30.1
		c-15.5-20.3-22.3-31.5-46.1-75.3c-27.3-50.3-52.7-86.7-75.4-107.6c-25.6-23.6-58.3-32.2-98.9-26c-13.2,2.1-41.3,2.7-53.6,1.3
		c-7.2-0.8-8,0.4-2.9,4c4.1,2.9,9,9.5,10.7,14.4c1.9,5.3,1.7,12-0.4,16.1c-2.1,4-7.6,9.1-11.6,10.8c-1.5,0.6-2.9,1.7-2.9,2.3
		c0,0.5,3.5,1.9,7.7,3.1c22.8,6,51.1,20.5,87.8,44.9c28.4,18.8,43.6,31.5,72.3,60.1c38,37.9,71.6,78.2,95.3,114.5
		c6.8,10.4,8,13.4,6.8,17.5c-1.4,5-1.3,5,7.4,5.4c7.6,0.3,8.3,0.4,10.3,2.8c2.6,3.1,2.6,3.2,0.1,7c-3.1,4.8-11.1,10.4-26.9,19.6
		c-34.4,19.8-40,23.9-66.5,50.2c-10.7,10.5-20.1,19.2-21,19.2c-2.5,0-2.5-2.3-0.1-9.2c3.1-8.4,3.7-11.5,2.3-11.5
		c-0.6,0-3.4,1.4-6.3,3.2c-20.8,12.6-49.9,17-68.2,10.2c-6-2.3-13.7-9.5-15.6-14.5c-1.1-3.2-3.5-4.6-3.5-2.2c0,0.7-0.7,2-1.7,2.8
		c-1.4,1.3-2.3,1.4-5.9,0.5c-8.2-1.8-20.1-1.3-28.7,1.3c-10.3,3.1-13.9,3.1-15.2,0.1c-0.8-1.9-0.7-2.5,0.7-4.1
		c4.7-5.2,24.5-12.1,42.6-14.7l7.7-1.1l0.5-4c1.4-9,9.1-24,17.9-34.7c10.3-12.3,58.7-49.8,66.3-51.2c1.7-0.4,3.3-1.2,3.6-1.8
		c1-2.5-13.6-26.5-26.7-44c-12.1-16-22.9-27.9-40.9-44.8c-44.9-42.1-87.6-72.5-134.9-96.1c-19.1-9.4-23.6-11.1-24.3-8.7
		c-2,6.5-4.1,10.5-7.5,14.2c-7.5,8.4-17.5,10.6-25.9,5.9c-2.3-1.3-4.8-2.3-5.3-2.3c-0.5,0-1.8,1.8-2.7,3.9
		c-2.4,5.3-11.9,14.1-19.2,17.9c-7.3,3.9-21.5,7.9-27.4,7.9c-2.9,0-4.3,0.4-4.3,1.1c0,0.9-5.3,1.2-23.4,1.2v25
		c8.6,0.1,16.4,14.5,20.2,37.5c0.7,4.7,1.8,19.7,2.3,33.3c1.5,40.5,4.5,61.1,12.5,85.5c7.2,21.8,13.6,33.2,32.2,57.3
		c23.5,30.6,40.2,45.9,57.8,53c5.6,2.3,11.3,3.2,31.3,4.9c23.6,2.1,32.8,5.7,35.6,13.8c0.1,0.4,9.1-1,20-3
		c57.7-10.6,74.3-13.6,88.7-15.8c30.4-4.5,45.2-9.5,83.7-28.8c51.4-25.7,58.1-30.4,75.2-53.3c13.5-17.9,18.3-22,36.9-31.3
		c9.9-5,14.4-7.7,14.6-8.9C1858.9,1886.9,1858.7,1886.7,1856.4,1887.3z M1423.9,1801.6c-0.3,0.7-0.5,0.4-0.5-0.5
		c-0.1-1,0.2-1.5,0.4-1.2C1424.1,1800.2,1424.1,1801,1423.9,1801.6z M1424.8,1807c-0.3,0.7-0.5,0.4-0.5-0.5c-0.1-1,0.2-1.5,0.4-1.2
		C1425,1805.6,1425,1806.4,1424.8,1807z M1425.7,1813.3c-0.3,0.7-0.5,0.5-0.5-0.5c-0.1-1,0.2-1.5,0.5-1.2
		C1425.9,1811.9,1425.9,1812.7,1425.7,1813.3z M1426.6,1818.7c-0.3,0.7-0.5,0.5-0.5-0.5c-0.1-1,0.2-1.5,0.5-1.2
		C1426.8,1817.3,1426.8,1818.1,1426.6,1818.7z M1429.3,1834.9c-0.3,0.7-0.5,0.4-0.5-0.5c-0.1-1,0.2-1.5,0.4-1.2
		C1429.5,1833.5,1429.5,1834.3,1429.3,1834.9z M1439.9,1709.6c2.3-2.3,8.3-4.6,10.3-4.1c0.7,0.2,2.3,0.6,3.6,0.9
		c4.9,1.3,7.7,5.8,9,13.8c0.6,3.3,0.5,6.3-0.1,8.6c-1.9,6.8-9.7,12.1-16.3,10.7c-6-1.2-11.5-9.3-11.5-17
		C1434.9,1718.5,1437.5,1712,1439.9,1709.6z M1515.3,2010c-5.4,1.6-16.2,1.4-23.9-0.6c-17.3-4.5-45-22.3-54.7-35.2
		c-4.5-5.9-4.6-8.3-0.4-10.6c2.4-1.4,9-1.3,20.3,0.3c17.7,2.5,35.1,7.6,43.8,12.6c4.1,2.4,6.6,2.9,6.6,1.1c0-0.5,1.2,0.4,2.5,2.1
		c1.3,1.7,4.8,5.4,7.6,8.1c6,5.6,7.8,8.5,7.8,12.7C1524.9,2004,1520.4,2008.5,1515.3,2010z M1556.3,2015.6c-0.2,0-1.3-1-2.5-2.3
		c-1.2-1.3-1.9-2.3-1.6-2.3c0.2,0,1.4,1,2.5,2.3C1555.8,2014.6,1556.5,2015.6,1556.3,2015.6z"/>
	<path id="structure88_label95_12n" bar:growlevel="0" bar:type="" class="st7" d="M1767.5,1964.4c-11.4,6.7-45.7,24-58.5,29.7
		c-15.5,6.8-36,13.7-46.8,15.5c-4.4,0.8-16.9,2.9-27.7,4.6c-10.8,1.7-33.2,5.7-49.8,8.7c-33.2,6.2-33.7,6.4-25.1,10.7
		c4.2,2.1,5.4,2.3,17.5,2.2c15.3-0.1,26.1-2.2,69.8-13.4c14.4-3.8,38.7-10,54-13.9c40.8-10.4,45.6-12.4,60.8-25.1
		c11.6-9.7,16.2-14.8,16.2-18c0-2.6-1.4-4.7-3.1-4.6C1774.2,1960.8,1771,1962.4,1767.5,1964.4z"/>
	<path id="structure89_label96_10N" bar:growlevel="0" bar:type="" class="st45" d="M1400.7,1628.4c-9.7,1.1-16.2,5.7-16.2,11.6
		c0,4.7,3.1,6.2,12.2,6.1c17.8-0.3,26.9-6,21.6-13.6C1416.2,1629.5,1408,1627.6,1400.7,1628.4z"/>
	<path id="structure8_label7_SolM" bar:growlevel="0" bar:type="" class="st46" d="M1375.5,1596.2c-7.8,9.4-7.9,10-0.7,9.3
		c7.4-0.6,10.6,0.9,13.2,6.3c2.3,4.9,2.3,5.8,0,9.6c-2.5,4.1-3.6,4.9-11.2,8.6c-4.6,2.3-7.4,3.1-10.8,3.1c-4.7,0-9.9-2.3-10.9-5
		c-1-2.6-2.6-1.4-4.6,3.6c-2.3,5.6-2.5,6.8-1.1,6.8c5,0,11.6,7.6,11.6,13.3c0,3.7,1.2,3.7,7.6-0.2c2.7-1.6,7.7-3.8,10.9-4.7
		c5.6-1.6,5.9-1.8,5.3-4c-1.2-4.1-0.4-6.7,2.7-9.6c5.8-5.3,18.8-7.4,26.2-4c5.2,2.3,6.2,3.9,5.6,8.6l-0.6,4.1l6.1-0.5
		c4-0.4,8.3-0.1,12.8,0.9c3.7,0.8,7,1.4,7.4,1.4c1.3,0,18.7-25.6,18.7-27.7c0-0.4-1.2-1.3-2.6-2.3c-2-1.2-4.7-1.5-10.9-1.5
		c-23.9,0-50.1-8.3-62.2-19.5c-2.3-2.2-4.7-3.9-5.4-3.9C1381.9,1589.1,1378.8,1592.3,1375.5,1596.2z"/>
	<path class="st47" d="M1627,1156c-10-20.6-23.8-35.9-39.5-43.7c-6-3.1-45.5-18.5-68-26.6c-39.5-14.3-73.8-25.1-94.4-29.8
		c-5.7-1.3-10.6-2.7-11-3.3s-1.5-0.8-2.7-0.5c-1.2,0.3-3.8,0.9-5.8,1.4c-7.3,1.8-32.7,2.7-58,2.7v37.3c45-0.1,74.3,0.1,79.9,0.7
		c18.7,1.9,52,13.5,87.5,30.7c18,8.7,19,9.1,43,16.5c23.1,7.1,36.8,12,56.6,20.3c8.3,3.5,15.4,6.3,15.8,6.3
		C1632,1167.8,1631,1164.1,1627,1156z"/>
	<path class="st47" d="M1531.5,1188c-7.2-1.7-19-1.6-107.1,0.7l-76.7,2v18.1c2.1-0.1,3.8-0.1,4.9,0c3,0.4,13.5,1.5,23.4,2.7
		c27.2,3.2,41.9,4.2,65.7,4.2c27.7,0.1,48-2.3,68.6-7.8c16.2-4.3,30-10.9,30-14.3C1540.2,1191.4,1536.8,1189.2,1531.5,1188z"/>
	<path class="st47" d="M1584.6,1252.3c-1.4-0.6-119.4-1-236.9-1.2v13.8c62.9,0,125.9-0.3,144.9-0.9c46.8-1.4,78.1-3.7,89.6-6.6
		C1587.4,1256.3,1588.6,1253.9,1584.6,1252.3z"/>
	<path class="st47" d="M1682.5,1357.4c-1.1-4-2.9-8.8-4-10.9c-4-6.7-11.1-12.1-19.6-14.8c-3.7-1.3-4.1-2.1-2.1-5.5
		c0.7-1.3,1.3-3.3,1.3-4.8c0-2.2-0.3-2.4-3.2-2.4c-4.4,0-5.9-1-10.6-7.1c-5.1-6.7-9.7-8.7-22-10.1c-6.6-0.7-12-0.7-19.6,0
		c-39,3.7-42.5,3.9-62.4,3.4c-17.3-0.4-21.9-0.8-31.1-2.8c-33.6-7.3-65.6-10.4-125.1-12.2c-15.7-0.5-25.8-0.7-36.4-0.7v104.5
		c0.3,0,0.6,0,0.8,0c45.5-0.1,95-3.4,138.6-9.4c19.1-2.6,74.8-12,97.2-16.3c17.5-3.3,19.9-3.6,24.9-2.7c6.8,1.1,10.3,3.5,12.8,8.6
		c2.3,4.9,2.5,13.8,0.5,18.3c-8.7,18.3-75.9,42.3-155.6,55.6c-53.5,8.9-91.5,13.3-119.2,13.5v32.5c13.6,0,29.3-0.3,34.9-0.7
		c9-0.6,10.1-0.5,10.1,0.8c0,1.2,0.5,1.3,2.5,1c1.4-0.3,6.3-1.3,11-2.3c5.1-1.1,15.6-2.2,26.1-2.8c62.5-3.3,74.6-6.3,145.4-35.8
		c28.7-12,39.4-15.5,47-15.5c3.5,0,4.7-0.4,4.9-1.4c0.2-0.8,3.7-2.8,8.6-4.8c12.7-5.2,20.6-10.3,28.6-18.4
		C1682,1398.7,1687.8,1377.8,1682.5,1357.4z"/>
	<path class="st47" d="M1368.5,1715.9c-2.6,0-9.6-5-12.1-8.8c-4.2-6-5.4-10.6-5.5-21.4c-0.1-9.9-0.1-10,2.7-13.1
		c4.9-5.6,8-13,7.8-18.6c-0.4-9.3-6.6-15.5-13.7-15.3v10.6c1.4-0.1,2.9,0.5,3.6,1.8c1.3,2.6,1.1,14-0.5,17.7c-0.8,2-2,3-3.1,3v47.3
		c3.6,0,7.4-0.1,11.2-0.2c8.7-0.4,11.3-0.7,11.3-1.6C1370.1,1716.5,1369.4,1715.9,1368.5,1715.9z"/>
	<path id="structure96_Unlabeled-2228-2161_Unlabeled" bar:growlevel="0" bar:type="" class="st47" d="M1724.3,1923.9
		c-4.4,1.4-10.3,4-13.2,5.5c-5.7,3-11.5,8.7-11.5,11.3c0,3.7,4,17.4,5,17.4c0.6,0,2-1.4,3.1-3.1c1.1-1.7,3.2-4.1,4.8-5.1
		c8.2-5.7,24.9-24.1,24.9-27.4C1737.3,1920.4,1733.2,1920.9,1724.3,1923.9z"/>
	<text id="label31" bar:growlevel="0" transform="matrix(1 0 0 1 1355.2344 1020.6992)" class="st48 st49 st50">8Cb</text>
	<text id="label36" bar:growlevel="0" transform="matrix(1 0 0 1 1350.4238 1661.791)" class="st48 st49 st50">CC</text>
	<text id="label37" bar:growlevel="0" transform="matrix(1 0 0 1 1359.3262 1783.8203)" class="st48 st49 st50">mlx</text>
	<text id="label39" bar:growlevel="0" transform="matrix(1 0 0 1 1354.9678 1571.2305)" class="st48 st49 st50">MnA</text>
	<text id="Unlabeled-1602-1345" bar:growlevel="0" transform="matrix(1 0 0 1 1376.8174 1203.0039)" class="st48 st49 st50">9a-bCb</text>
	<text id="label9" bar:growlevel="0" transform="matrix(1 0 0 1 1351.5508 1595.2285)" class="st48 st49 st50">SolC</text>
	<text id="label0" bar:growlevel="0" transform="matrix(1 0 0 1 1532.8633 1842.6016)" class="st48 st49 st50">MdV</text>
	<text id="label2" bar:growlevel="0" transform="matrix(1 0 0 1 1369.2637 1687.5313)" class="st48 st49 st50">12N</text>
	<text id="label3" bar:growlevel="0" transform="matrix(1 0 0 1 1450.5508 1729.3281)" class="st48 st49 st50">12GH</text>
	<text id="label4" bar:growlevel="0" transform="matrix(1 0 0 1 1576.4229 1591.3379)" class="st48 st49 st50">Mx</text>
	<text id="label5" bar:growlevel="0" transform="matrix(1 0 0 1 1514.1436 1582.7852)" class="st48 st49 st50">IB</text>
	<text id="label6" bar:growlevel="0" transform="matrix(1 0 0 1 1424.9346 1590.0977)" class="st48 st49 st50">SolDL</text>
	<text id="label7" bar:growlevel="0" transform="matrix(1 0 0 1 1396.5459 1613.6113)" class="st48 st49 st50">SolM</text>
	<text id="label85" bar:growlevel="0" transform="matrix(1 0 0 1 1503.3857 1623.5527)" class="st48 st49 st50">SolVL</text>
	<text id="label80" bar:growlevel="0" transform="matrix(1 0 0 1 1404.3447 1040.2891)" class="st48 st49 st50">sf</text>
	<text id="label82" bar:growlevel="0" transform="matrix(1 0 0 1 1548.4619 1739.5625)" class="st48 st49 st50">ia</text>
	<text id="label89" bar:growlevel="0" transform="matrix(1 0 0 1 1485.3447 2047.5371)" class="st48 st49 st50">vert</text>
	<text id="label88" bar:growlevel="0" transform="matrix(1 0 0 1 1665.043 1799.9336)" class="st48 st49 st50">RAmb</text>
	<text id="label12" bar:growlevel="0" transform="matrix(1 0 0 1 1513.874 1553.5293)" class="st48 st49 st50">Cu</text>
	<text id="label11" bar:growlevel="0" transform="matrix(1 0 0 1 1392.4619 1530.0664)" class="st48 st49 st50">Gr</text>
	<text id="label14" bar:growlevel="0" transform="matrix(1 0 0 1 1365.2686 1868.582)" class="st48 st49 st50">pyx</text>
	<text id="label93" bar:growlevel="0" transform="matrix(1 0 0 1 1800.5527 1927.7266)" class="st48 st49 st50">dsc</text>
	<text id="label96" bar:growlevel="0" transform="matrix(1 0 0 1 1391.6533 1640.8027)" class="st48 st49 st50">10N</text>
	<text id="label94" bar:growlevel="0" transform="matrix(1 0 0 1 1749.6436 1960.8203)" class="st48 st49 st50">vsc</text>
	<text id="label95" bar:growlevel="0" transform="matrix(1 0 0 1 1729.8154 1992.1777)" class="st48 st49 st50">12n</text>
	<text id="label69" bar:growlevel="0" transform="matrix(1 0 0 1 1411.9941 1802.5742)" class="st48 st49 st50">mlf</text>
	<text id="label67" bar:growlevel="0" transform="matrix(1 0 0 1 1572.1045 1493.3105)" class="st48 st49 st50">cu</text>
	<text id="label64" bar:growlevel="0" transform="matrix(1 0 0 1 1369.5508 1542.8887)" class="st48 st49 st50">gr</text>
	<text id="label62" bar:growlevel="0" transform="matrix(1 0 0 1 1469.2373 1611.125)" class="st48 st49 st50">sol</text>
	<text id="label76" bar:growlevel="0" transform="matrix(1 0 0 1 1403.2012 1996.168)" class="st48 st49 st50">py</text>
	<text id="label70" bar:growlevel="0" transform="matrix(1 0 0 1 1408.0654 1900.6016)" class="st48 st49 st50">ts</text>
	<text id="label71" bar:growlevel="0" transform="matrix(1 0 0 1 1533.7549 1826.1289)" class="st48 st49 st50">12n</text>
	<text id="label72" bar:growlevel="0" transform="matrix(1 0 0 1 1586.7441 2002.4082)" class="st48 st49 st50">12n</text>
	<text id="label73" bar:growlevel="0" transform="matrix(1 0 0 1 1775.1729 1889.7988)" class="st48 st49 st50">rs</text>
	<text id="Unlabeled-1546-1416" bar:growlevel="0" transform="matrix(1 0 0 1 1372.6924 1255.8027)" class="st48 st49 st50">cbw</text>
	<text id="Unlabeled-2228-2161" bar:growlevel="0" transform="matrix(1 0 0 1 1712.1436 1938.2305)" class="st48 st49 st50">grey</text>
	<text id="label48" bar:growlevel="0" transform="matrix(1 0 0 1 1897.9326 1579.0039)" class="st48 st49 st50">sp5</text>
	<text id="label40" bar:growlevel="0" transform="matrix(1 0 0 1 1760.3008 1910.6738)" class="st48 st49 st50">LRtPC</text>
	<text id="label45" bar:growlevel="0" transform="matrix(1 0 0 1 1465.8564 1640.9863)" class="st48 st49 st50">SolV</text>
	<text id="label44" bar:growlevel="0" transform="matrix(1 0 0 1 1427.4453 1666.7852)" class="st48 st49 st50">CeCv</text>
	<text id="label46" bar:growlevel="0" transform="matrix(1 0 0 1 1456.3633 1973.7227)" class="st48 st49 st50">IOM</text>
	<text id="Unlabeled-1781-1459_" bar:growlevel="0" transform="matrix(1 0 0 1 1406.8936 1343.7793)" class="st48 st49 st50">grey</text>
	<text id="label55" bar:growlevel="0" transform="matrix(1 0 0 1 1361.542 1625.9395)" class="st48 st49 st50">A2</text>
	<text id="Unlabeled-1797-1847" bar:growlevel="0" transform="matrix(1 0 0 1 1353.2422 1715.5273)" class="st48 st49 st50">grey</text>
	<text id="text3023" bar:growlevel="0" transform="matrix(1 0 0 1 1437.1924 1990.9473)" class="st48 st49 st50">Ct</text>
	<text id="label23" bar:growlevel="0" transform="matrix(1 0 0 1 1602.2832 1743.6426)" class="st48 st49 st50">IRt</text>
	<text id="label22" bar:growlevel="0" transform="matrix(1 0 0 1 1703.1729 1858.293)" class="st48 st49 st50">A1</text>
	<text id="label21" bar:growlevel="0" transform="matrix(1 0 0 1 1569.6133 1965.291)" class="st48 st49 st50">Ct</text>
	<text id="label20" bar:growlevel="0" transform="matrix(1 0 0 1 1645.7832 1933.877)" class="st48 st49 st50">LRt</text>
	<text id="label27" bar:growlevel="0" transform="matrix(1 0 0 1 1417.7832 1424.957)" class="st48 st49 st50">9cCb</text>
	<text id="label26" bar:growlevel="0" transform="matrix(1 0 0 1 1773.2217 1646.8164)" class="st48 st49 st50">Sp5C</text>
	<text id="label24" bar:growlevel="0" transform="matrix(1 0 0 1 1634.9844 1685.7637)" class="st48 st49 st50">MdD</text>
	<text id="label28" bar:growlevel="0" transform="matrix(1 0 0 1 1388.5332 1164.6777)" class="st48 st49 st50">9a-bCb</text>
	<text id="Unlabeled-1728-1195" bar:growlevel="0" transform="matrix(1 0 0 1 1519.7686 1114.0527)" class="st48 st49 st50">9a-bCb</text>
</g>
</svg>
