<?xml version="1.0" encoding="utf-8"?>
<!-- Generator: Adobe Illustrator 24.1.1, SVG Export Plug-In . SVG Version: 6.00 Build 0)  -->
<svg version="1.1"
	 id="body" inkscape:version="0.47pre4 r22446" sodipodi:docname="60_pretrace_pretrace_v1.svg" xmlns:bar="http://www.3dbar.org" xmlns:cc="http://creativecommons.org/ns#" xmlns:dc="http://purl.org/dc/elements/1.1/" xmlns:inkscape="http://www.inkscape.org/namespaces/inkscape" xmlns:rdf="http://www.w3.org/1999/02/22-rdf-syntax-ns#" xmlns:sodipodi="http://sodipodi.sourceforge.net/DTD/sodipodi-0.dtd" xmlns:svg="http://www.w3.org/2000/svg"
	 xmlns="http://www.w3.org/2000/svg" xmlns:xlink="http://www.w3.org/1999/xlink" x="0px" y="0px" viewBox="0 0 3024 3024"
	 style="enable-background:new 0 0 3024 3024;" xml:space="preserve">
<style type="text/css">
	.st0{fill:#FF000C;}
	.st1{fill:#FFB2BA;}
	.st2{fill:#F6FF00;}
	.st3{fill:#E9DB00;}
	.st4{fill:#FFEF00;}
	.st5{fill:#FFFAB2;}
	.st6{fill:#E9E159;}
	.st7{fill:#5F23ED;}
	.st8{fill:#E0E959;}
	.st9{fill:#EEF423;}
	.st10{fill:#D0D447;}
	.st11{fill:#FFF359;}
	.st12{fill:#C4C923;}
	.st13{fill:#C3C900;}
	.st14{fill:#8847F2;}
	.st15{fill:#FFEC00;}
	.st16{fill:#FDFF76;}
	.st17{fill:#E8E900;}
	.st18{fill:#E8E93B;}
	.st19{fill:#FEFFB2;}
	.st20{fill:#FBFF8E;}
	.st21{fill:#E2E923;}
	.st22{fill:#E9DA00;}
	.st23{fill:#F1F48E;}
	.st24{fill:#DBDF6B;}
	.st25{fill:#97FF59;}
	.st26{fill:#FFE900;}
	.st27{fill:#97FF00;}
	.st28{fill:#3FFF00;}
	.st29{fill:#B8FF00;}
	.st30{fill:#DBFFB2;}
	.st31{fill:#925FDC;}
	.st32{fill:#FF23E9;}
	.st33{fill:#6B3BD0;}
	.st34{fill:#B2FF00;}
	.st35{fill:#92FF00;}
	.st36{fill:#DEFFB2;}
	.st37{fill:#8F6BE1;}
	.st38{fill:#FFDE00;}
	.st39{fill:#FF0045;}
	.st40{fill:#5DFF00;}
	.st41{fill:#F200DD;}
	.st42{fill:#8CFF00;}
	.st43{fill:#FEFF3B;}
	.st44{fill:#C6D400;}
	.st45{fill:#F3FF59;}
	.st46{fill:#D8E900;}
	.st47{fill:#FF005D;}
	.st48{fill:#232323;enable-background:new    ;}
	.st49{font-family:'TimesNewRomanPSMT';}
	.st50{font-size:27px;}
</style>
<sodipodi:namedview  bordercolor="#666666" borderopacity="1" gridtolerance="10" guidetolerance="10" id="namedview223" inkscape:current-layer="content" inkscape:cx="610.17696" inkscape:cy="686.69367" inkscape:guide-bbox="true" inkscape:object-paths="true" inkscape:pageopacity="0" inkscape:pageshadow="2" inkscape:window-height="1128" inkscape:window-maximized="1" inkscape:window-width="1918" inkscape:window-x="1680" inkscape:window-y="24" inkscape:zoom="5.3876861" objecttolerance="10" pagecolor="#ffffff" showgrid="false" showguides="true">
	</sodipodi:namedview>
<desc  id="desc5">This was produced by version 4.2 of GNU libplot, a free library for exporting 2-D vector graphics.</desc>
<defs>
	<rdf:RDF>
		<cc:Work  rdf:about="">
			<dc:format>image/svg+xml</dc:format>
			<dc:type  rdf:resource="http://purl.org/dc/dcmitype/StillImage"></dc:type>
		</cc:Work>
	</rdf:RDF>
	<bar:data  content="1.92" name="coronalcoord"></bar:data>
	
		<bar:data  content="{&apos;ReferenceHeight&apos;: 900, &apos;ReferenceWidth&apos;: 1200, &apos;imageSize&apos;: (1200, 900)}" name="rendererConf">
		</bar:data>
	
		<bar:data  content="{&apos;DumpEachStepSVG&apos;: False, &apos;DumpEachStepPNG&apos;: False, &apos;GrowDefaultBoundaryColor&apos;: 200, &apos;CacheLevel&apos;: 5, &apos;NewPathIdTemplate&apos;: &apos;structure%d_%s_%s&apos;, &apos;PoTraceConf&apos;: {&apos;potrace_accuracy_parameter&apos;: &apos;0.001&apos;, &apos;potrace_width_string&apos;: &apos;1200pt&apos;, &apos;potrace_svg_resolution_string&apos;: &apos;300x300&apos;, &apos;potrace_height_string&apos;: &apos;900pt&apos;}, &apos;DetectUnlabelled&apos;: True, &apos;DumpVBrain&apos;: False, &apos;DumpWrongSeed&apos;: True, &apos;DumpDirectory&apos;: &apos;.&apos;, &apos;MinFiterTimesApplication&apos;: 3, &apos;RegionAlreadyTraced&apos;: 100, &apos;UnlabelledTreshold&apos;: 500}" name="tracingConf">
		</bar:data>
	<bar:data  content="0.0176211454,-9.5150660793,0.0176211454,-1.5355884426" name="transformationmatrix"></bar:data>
</defs>
<g id="content">
	<path class="st0" d="M2251.6,1258.6c-3.2-47.6-8.4-72.6-25.5-124.7c-25.9-78.8-56.7-145.9-93.1-203.1
		c-33.9-53.5-73.3-97.6-115.1-129.1c-11.6-8.7-39.3-27-56.7-37.4c-80.1-47.8-183.8-90.7-288.4-119.4c-88.4-24.2-208-32.8-292.1-20.7
		c-42.8,6.1-78.8,18.5-102.1,35.2c-10.1,7.2-26.7,22.9-34.5,32.6c-15.8,19.5-28.7,44.8-36.3,70.8c-4.4,15.2-9.5,41.4-9.5,49.5
		c0,2.4-0.3,3.1-1.4,2.9l-0.1,353c0.8,0.3,1.6,1.6,1.9,3.4c0.8,5.1,6.5,15.8,10,19c3.9,3.3,3.9,4.5,0.2,6.8c-2,1.3-3.4,3.3-4.7,6.5
		c-1.8,4.7-1.9,4.8-5.4,4.6c-0.6,0-1.3,0-2,0l-0.2,647.3c0,0,0.1,0,0.1,0c0.7,0,1.7,2.9,2.7,7.9c2,10.2,6.4,23.6,9.8,29.6
		c1.4,2.6,2.6,5.1,2.6,5.7c0,0.5-1.5,0.9-3.3,0.9c-3.6,0-9,2.7-9.8,5c-0.4,0.7-1.2,1.3-2.1,1.3l0,11c1,0.1,2,0.9,3.7,2.5
		c3.2,3.1,7.9,4.2,11.6,2.7c3.2-1.4,6.9-5.5,7.7-8.6c0.3-1.2,1-2.2,1.6-2.2c0.5,0.1,3.2,3,5.9,6.6c10,13.1,18.8,23.1,36,40.7
		c28.5,29.2,41.8,44.9,60.7,71.5c18,25.4,35.2,42.1,57.4,56c15.8,9.8,27.4,14.3,44.9,17.6c19.7,3.8,27.5,4.2,71,4.2
		c43.9-0.1,75.1-1.5,109.7-5c59-5.9,118.5-19.8,156.2-36.3c28.7-12.6,57.2-23.2,109.9-41.1c45.6-15.4,60.4-22.1,85.4-38.8
		c15.8-10.5,27.9-20.1,49.2-39.1c23.8-21.1,31.1-29.6,39.2-46c6.8-13.2,9.7-23,14.6-46.6c3.6-17.3,6.8-26.9,13.5-40.1
		c7.1-13.9,15.6-26.4,30.3-44.7c25.9-32.1,46.2-64.3,68.2-107.8c22.8-45.1,35.1-78.2,47.7-127.8c14-55.4,23.7-112.9,28.9-173.3
		C2252.1,1339.4,2252.9,1278.7,2251.6,1258.6z"/>
	<path class="st1" d="M1271.1,1864.1c-0.2-0.8-1.4-5-2.7-9.2c-1.3-4.2-2.9-11.5-3.7-16.3c-1.7-10.3-4.3-44.2-3.6-47.1
		c0.3-1.3-0.1-2.4-0.9-3.1c-0.8-0.7-1.4-1.7-1.4-2.3c0-0.5-2.3-2-5.1-3.2c-4.1-1.8-7-2.3-15-2.6c-12.2-0.4-22.1,1.6-33.6,7.1
		c-4.1,1.9-7.8,3.5-8.4,3.5v32.5l7.9-2.7c12.3-4.2,19.5-3.4,31.2,3.6c7.2,4.2,20.3,17.3,23,22.8c1.8,3.8,2,5.2,1.5,11.4l-0.5,7.1
		h5.8C1270.8,1865.7,1271.5,1865.5,1271.1,1864.1z"/>
	<path id="structure10_label9_DP" bar:growlevel="0" bar:type="" class="st2" d="M1235.4,1403c0,6.9-2.3,34.2-4.5,53.8
		c-2.9,25.4-6.8,49.2-12.7,76.1c-0.6,2.9-0.9,5.4-0.6,5.8c1.4,1.4,15.8-5.1,25.3-11.5c3.1-2,8.8-6.5,12.9-9.8l7.3-6.2l2.9-13.2
		c5.5-25,9.9-55.4,12.2-82.7c0.5-6.2,0.4-6.5-1.8-8c-5.1-3.3-14.7-6-27.2-7.7c-7.1-0.9-13.1-1.7-13.3-1.7
		C1235.5,1397.7,1235.4,1400.1,1235.4,1403z"/>
	<path id="structure11_label10_ICj" bar:growlevel="0" bar:type="" class="st3" d="M1568.8,1994.5c-4,0.5-14.9,2.2-24.3,3.9
		c-25.8,4.8-32.1,5.3-56.5,4.8c-17.3-0.4-25-0.9-37.4-2.9c-8.5-1.3-15.8-2.2-16-1.9c-1.1,1.1,0.9,5.3,4,8.7c3.8,4.1,7,6,15.9,8.9
		c3.4,1.1,18.2,8,32.9,15.3c28.6,14.2,40.4,19.3,47,20.2c4.1,0.6,4.1,0.6,8.6-4.4c2.5-2.7,7.9-9.7,12.1-15.6
		c4.1-5.8,11.4-16.2,16.3-23c4.9-6.9,8.8-13,8.8-13.8C1580.1,1993.4,1579.6,1993.3,1568.8,1994.5z"/>
	<path id="structure12_text3056_Tu-1" bar:growlevel="0" bar:type="" class="st4" d="M1299.3,1995.3c0,0.5,3.6,5.6,7.9,11.2
		c4.3,5.6,11.5,15.1,15.9,21.3c4.4,6.1,10.4,14.2,13.4,17.9c20.4,25.4,52.3,47.9,77.1,54.4c22,5.8,39.2,7.3,82.7,7.2
		c62.1-0.1,117.4-4.3,163.3-12.5c27.1-4.9,66.2-14.2,66.2-15.9c0-0.4-1.6-2.8-3.6-5.3c-2-2.5-7.4-10.7-12.1-18.3
		c-4.7-7.5-9.4-14.5-10.4-15.4c-3.6-3.2-7.3-2.3-13.6,3.5c-15.6,14.2-34.1,22.1-52.6,22.3c-6.5,0.1-7.8-0.3-13.9-3.2
		c-11.5-5.5-21.9-6.4-29.7-2.3c-2.1,1.1-7.5,5.7-12.1,10.3c-9.3,9.4-12.9,11.3-25.7,13.1c-11.6,1.6-18.7-0.3-34.2-8.9
		c-5.2-2.9-11.1-5.6-13-5.9c-5-0.9-16.9,0.7-34.1,4.6c-12.2,2.8-16.2,3.2-25.3,3.2c-5.9,0-13.3-0.4-16.5-1.1
		c-9.1-1.8-61.1-16.1-64.3-17.7c-7.9-4-16.9-13-27.3-26.9c-7.2-9.8-33.8-36.5-36.4-36.5C1300.2,1994.4,1299.3,1994.8,1299.3,1995.3z
		"/>
	<path id="structure13_text3058_Tu-2" bar:growlevel="0" bar:type="" class="st5" d="M1287.4,1947.4c-0.8,8.7-4.8,12.8-12.9,13.5
		c-3.2,0.3-5,0.8-5,1.6c0,2.3,21.6,24.3,27.7,28.3c8,5.2,33.3,30.5,41.8,41.8c7.2,9.5,17.8,20.3,23.3,23.7
		c3.6,2.2,51.2,15.6,65,18.3c12.5,2.4,24.6,2.3,38-0.6c19.4-4.1,29.4-5.8,35.2-5.8c5.2,0,6.6,0.4,17.6,6.2
		c15.7,8.1,20.3,9.4,30.9,8.8c4.4-0.3,10.9-1.3,14.3-2.4c5.8-1.9,6.9-2.6,15-10.9c10.2-10.4,13.9-12.4,22.4-12.5
		c7.1,0,11.1,1.1,19.6,5.2c6.6,3.1,6.8,3.1,15.3,2.6c4.9-0.3,11.9-1.4,15.8-2.3c9.9-2.6,23.9-10.1,31.1-16.7
		c13.6-12.5,14.1-12.3,27.5,8.8c10.8,16.9,14.8,22.1,17.2,22.8c2.5,0.6,11.3-2,14.1-4.1c3.2-2.5,6.8-8.9,8.4-15.2
		c1.6-6.5,0.9-12-2.8-20.9c-1.4-3.2-2.6-8-2.9-10.8c-1.1-11,5.4-22,14.4-24.4c2.3-0.5,4.2-1.6,4.2-2.3c0-0.6-2.9-3.4-6.4-6.2l-6.4-5
		l-6,2.3c-7.1,2.8-12.4,6.9-14.1,11c-1.9,4.5-1.5,14.5,1,26.1c2.9,13.4,2.9,16.9,0,19.7c-1.2,1.3-2.5,2.3-3.1,2.3
		c-1.3,0-3.8-3.9-9-14.1c-5.2-10.2-11-16.4-18.7-20.2c-3.6-1.8-5.7-2.2-12.9-2.2c-7.7,0-9,0.3-13.3,2.6c-5.7,3.2-11.5,8.6-18.4,17.3
		c-2.9,3.6-6.2,7.3-7.6,8.4c-3.9,3-9.1,2.5-19.2-1.9c-10.3-4.4-16.2-4.8-27.4-1.7c-11,3-18.1,7.1-29,16.7c-5.5,4.9-12,9.8-14.6,11
		c-4.3,2-5.2,2.1-9.5,1.2c-2.6-0.5-10.2-3.1-16.8-5.9c-25.6-10.5-22.1-9.8-44.5-9.8c-10.9,0-27.5,0.4-36.9,0.8
		c-19.9,0.9-25.8,0.2-45.3-5.7c-6.5-2-14.2-4.1-17.1-4.5c-6.8-1.3-19.7-7.7-28.5-14.5c-4-3-11.3-7.7-16.4-10.4
		c-11.3-6.1-15.4-10.4-24.5-26.2c-17.1-29.6-28.3-48-29.3-48C1288.2,1943.1,1287.7,1944.8,1287.4,1947.4z"/>
	<path id="structure14_text3063_Tu-3" bar:growlevel="0" bar:type="" class="st6" d="M1256.1,1867.7c-4.4,2.1-1.2,2.2-46.1-0.8
		l-7.9-0.5v2.3c0,3.2,4.2,16.3,7.2,22.2c5.4,10.6,38.9,53.1,41.8,53.1c1,0,1.3-1.1,1.3-3.6c0-4.9,1.8-9,5.3-12
		c5.4-4.5,11.6-4.1,20.8,1.3c4.4,2.7,5.8,4.2,12.6,15.2c4.2,6.8,11.3,18.5,15.7,26.1c22.2,38.4,22.7,39.1,34.9,45.4
		c4.6,2.3,11.4,6.6,15.1,9.4c10.2,7.7,20.3,13.2,27.4,14.9c3.5,0.8,12.4,3.2,19.8,5.3c23.2,6.8,32.5,7.6,57.2,5.5
		c19.3-1.6,34-1.8,42.3-0.4c3.3,0.5,12.2,3.5,20.7,7.1c25.8,10.7,29.3,11.2,37.7,5.1c2.9-2.1,8.9-6.9,13.2-10.8
		c8.8-7.9,16.9-12.2,27.8-15c10.5-2.7,14.4-2.4,24.3,1.8c10.4,4.4,15.3,5.2,19.2,3.2c1.6-0.8,5.7-5,9.2-9.4
		c11.4-14.5,20.6-20.3,32-20.3c13.4,0.1,24.3,8.7,33.1,26.4c4.2,8.5,5.4,10.1,7.1,10.1c1.2,0,2.5-0.4,3.2-1.1
		c1.7-1.7,1.3-11.2-1.2-22.8c-2.5-12.2-2.7-15-1.3-20.8c1.4-5.3,5.6-9.4,13-12.6c3.2-1.4,5.8-3.1,5.8-3.7c0-3.2-34-22.1-44.5-24.6
		c-4.8-1.1-6.1-1.1-13,0.4c-9.4,1.9-24.1,7.2-45.4,16.2c-24.8,10.5-35.2,13.1-52.4,13.1l-10,0.1l-4.6,6c-2.5,3.3-8.7,12.1-13.9,19.5
		c-11.2,16.2-18.6,26.2-22.6,30.2c-2.7,2.6-3.3,2.9-7.1,2.4c-6.3-0.7-16-5-45.5-19.5c-14.8-7.3-30.6-14.6-34.9-16.1
		c-12.1-4.2-18.2-9.2-20-16.5c-0.6-2.3-0.9-2.4-8.4-3c-4.3-0.3-10.9-1.2-14.8-1.9c-10.1-1.9-44.9-13.3-49-16
		c-4.5-3-7.7-6.9-12.2-15.6c-10.7-20.1-26.6-40.2-53.4-67.9c-9.4-9.7-18.5-19.9-20.3-22.7c-1.7-2.7-4.1-5.4-5.2-5.9
		C1267.3,1865.1,1260.5,1865.6,1256.1,1867.7z"/>
	<path id="structure15_label11_Tu-1" bar:growlevel="0" bar:type="" class="st4" d="M1754.8,2004c-6.1,3-10.3,11.1-10.4,20.1
		c-0.1,4.6,0.5,7.5,3,13.5c2.5,6.2,3.1,8.9,3.1,14.4c0.1,5.8-0.3,7.6-2.8,12.7c-3.1,6.3-3.6,8-2.1,8c0.5,0,4.2-1.3,8.4-3
		c5.7-2.3,10.8-5.7,22.5-14.5c9.9-7.6,15-12,15-13c0-4.1-4-14-8.1-20.2c-2.4-3.7-7.1-9.5-10.4-13c-5.8-6.4-5.9-6.5-10.5-6.5
		C1759.9,2002.5,1756.5,2003.2,1754.8,2004z"/>
	<path id="structure16_label14_IEn" bar:growlevel="0" bar:type="" class="st7" d="M1712.6,1807.8c-1.5,1.9-10,11-18.8,20.2
		c-8.9,9.3-17.5,19-19,21.7c-4.1,6.8-5.1,13.2-4.2,26.8c0.4,6.2,0.7,14.9,0.7,19.4c0,8.9,0.6,7.3-9.5,26.6
		c-4.9,9.2-4.2,16.2,1.9,23.9c4.2,5.3,11.1,9.5,21.4,13.1c6.8,2.3,9.3,2.7,16.9,2.8c10.5,0.1,16.1-1.4,24.8-6.4
		c12.8-7.5,20.3-18.4,27.1-39.2c5.6-17.3,11.6-26.2,30.2-44.5c6.6-6.5,12-12.2,12-12.7c0-0.5-3-1.9-6.5-3.3
		c-25.9-10-58.3-32-68.7-46.6c-2-2.8-4-5-4.6-5.1C1715.8,1804.5,1714.2,1806,1712.6,1807.8z"/>
	<path id="structure17_label15_DEn" bar:growlevel="0" bar:type="" class="st8" d="M1756.1,1687.7c-3.5,20.6-8.6,44.7-10.5,49.8
		c-1.1,3-4,9-6.5,13.5c-5.8,10.5-9.1,18.9-11.3,28.8c-2.2,10.1-3,12.1-6.8,18c-4.8,7.2-4.8,7.3,6.6,18.7c11.2,11.4,29,24,45.6,32.3
		c8.5,4.3,22.3,9.7,24.7,9.7c1,0,4-1.4,6.6-3c10-6.2,20.2-9.7,41.2-14.1c9.5-2,14-3.3,16.4-5.1c8-5.5,14.8-21,15.8-35.5
		c0.7-11.6,0.1-13.9-4.5-15.9c-13.9-6.2-39.5-22.4-55.5-35.2c-10.5-8.5-29.3-27.2-36-35.8c-2.7-3.6-5.5-6.5-6-6.6
		c-0.6,0-2.8-1.4-4.7-3.2c-3.8-3.3-8.2-12.5-10.2-21c-0.5-2.5-1.5-4.6-2.1-4.6C1758.1,1678.5,1757,1682.3,1756.1,1687.7z"/>
	<path id="structure18_label19_AIV" bar:growlevel="0" bar:type="" class="st9" d="M1827.6,1660.7c-15.7,27.6-29.6,42.6-43.4,46.3
		c-2.9,0.8-5.2,1.9-5.2,2.3c0,1.6,10.2,13.5,19.1,22.4c44.6,44.3,105.8,72.8,175.2,81.7l13,1.7l9.5-4.1c5.2-2.3,13.1-5.1,17.5-6.4
		c7.6-2.2,8.8-2.3,22.1-1.8c11.7,0.4,29.5,2.5,39.8,4.7c2.2,0.5,2.8-0.1,6.6-6.2c2.3-3.7,6.4-9.8,9.1-13.6c2.7-3.8,4.9-7.2,4.9-7.6
		c0-0.4-4.1-2.1-9.2-3.7c-5.1-1.6-17.2-5.8-26.8-9.2c-74-26.7-147-63-209-103.9c-9.3-6.1-17.3-11.2-17.7-11.2
		C1832.6,1652.4,1830.2,1656.2,1827.6,1660.7z"/>
	<path id="structure19_label20_AID" bar:growlevel="0" bar:type="" class="st10" d="M1853.3,1608.1c-3,6.8-8.5,18.9-12.4,26.9
		c-3.9,8.1-7,15.2-7,15.9c0,1.4,28.4,20.3,49.9,33.2c54.3,32.5,117.5,62.1,179.6,84.2c24.4,8.6,33.3,11.3,34.2,10.3
		c10.5-11.6,32.4-41.4,32.4-44.1c0-1.5-1.3-2.2-7.8-3.9c-55.6-14.5-138.9-54.6-216.3-104.4c-13.1-8.4-33-22-40.4-27.6
		c-2.2-1.6-4.6-3-5.4-3C1859.1,1595.7,1856.9,1599.5,1853.3,1608.1z"/>
	<path id="structure1_label0_AcbC" bar:growlevel="0" bar:type="" class="st11" d="M1350.6,1570.4c0,0.4,0.7,3.4,1.6,6.6
		c2.3,8.4,2,39.9-0.5,65.1c-3.9,37.4-3.5,62.6,1.3,88.7c4.2,23.1,13.1,44.6,25.3,60.8c7.1,9.5,26.4,29,37.2,37.7
		c20,16,49.3,32.7,67.1,38c7.4,2.3,9.4,2.5,23.4,2.5c9.8,0.1,17.1-0.4,20.3-1.1c25.8-6.3,45.6-19.4,53.9-35.9
		c4.9-9.6,7.2-25.7,5.5-37.8c-3.2-23.1-10.3-35-38.3-62.8c-24.8-24.9-43.6-40.7-90-76c-52.1-39.7-74-57.5-88.6-71.9
		C1356.1,1571.5,1350.6,1567.4,1350.6,1570.4z M1502.7,1746.9c15.2,4.4,28.4,18.4,31.6,33.4c0.5,2.6,0.8,8,0.6,12
		c-0.5,9.6-4.2,17-11.5,22.8c-8.6,6.8-23.7,11.4-30.5,9.4c-4.6-1.4-10.5-6.8-14.7-13.2c-4-6.1-17-32.4-18.7-37.7
		c-1.8-5.6-1.5-12.2,0.5-16.3C1465.5,1746.5,1485.1,1741.8,1502.7,1746.9z"/>
	<path id="structure20_label21_DI" bar:growlevel="0" bar:type="" class="st12" d="M1877.4,1541.4c-3.4,15.3-6.8,25.8-13.3,41.4
		c-2.3,5.6-4.1,10.4-4.1,10.9c0,1.1,22.6,17.2,41,29.2c60.7,39.7,131.2,76.3,185.1,96c15.2,5.6,41.7,13.6,44.8,13.6
		c1.2,0,3.8-3.3,8.6-11.1c8.4-13.1,26.5-44.7,26.5-46.1c0-0.5-4.9-2.3-11-4c-17.1-4.6-51.5-16.2-70.9-23.9
		c-62.5-24.8-140.4-65.7-196.4-103.2c-4.3-2.9-8.3-5.2-8.7-5.2C1878.4,1539,1877.8,1540.1,1877.4,1541.4z"/>
	<path id="structure21_label22_GI" bar:growlevel="0" bar:type="" class="st13" d="M1875.5,1465.4c3.6,15.7,4.4,20.7,5,29.7
		c0.7,9.8,0.3,22.1-1.3,36.9l-0.6,6l14.3,9.4c56.3,36.9,127.1,74.1,186.7,98c31.1,12.4,78.2,27.7,85.5,27.7c2.2,0,3-1.2,8.8-12.9
		c11.4-22.9,25.4-54.9,25.4-58.1c0-1.2-4.2-3.1-16.5-7.7c-83.7-31.5-205.9-83.8-288.4-123.4c-8.7-4.2-16.7-7.6-17.6-7.6
		C1875.4,1463.4,1875.2,1463.8,1875.5,1465.4z"/>
	<path id="structure22_label23_VCl" bar:growlevel="0" bar:type="" class="st14" d="M1843.3,1554.5c-9.2,2.3-24.9,11.3-32.4,18.4
		c-4,3.8-21.1,28.1-27.4,39.2c-7,12.2-13.4,26.5-18.8,42c-3.9,11.1-4.2,12.9-4.2,20.3c0.1,8.7,1.4,14.1,5.8,22.9
		c3.5,6.9,6.2,9.2,11.6,9.7c6,0.5,11.9-1.6,19-6.9c16.9-12.9,35-43.4,60.4-101.8c8.4-19.2,8.5-19.4,8.5-26.6c-0.1-8-1.9-13-5.9-15.9
		C1857,1553.7,1849.2,1553.1,1843.3,1554.5z"/>
	<path id="structure23_label24_CPu" bar:growlevel="0" bar:type="" class="st15" d="M1594.6,1129.6c-26.1,2.8-52.5,12.8-77.9,29.7
		c-25.8,17.2-57.2,46.9-81.8,77.7c-9,11.2-20.3,28-20.3,30.2c0,0.8-2.3,5.3-5,10c-15.8,26.5-26.3,59-31.9,99.4
		c-4.2,31.2-14.4,149.4-15.8,185.8l-0.5,14l8.8,8.7c14.7,14.3,37.6,32.9,86.3,70c48.1,36.7,65.1,50.9,90.9,76.9
		c23.9,23.9,31.5,34.6,36.5,51.4c2.7,9,3.2,25.6,1.3,34.6c-2.3,10.4-2.6,9.6,4.7,12.7l6.4,2.7l2.3-2.3c2.3-2.4,5.8-3,8.7-1.4
		c2.4,1.3,4.6,5.8,3.9,8.4c-0.5,2.1,0.4,2.5,16,9c22.4,9.2,24.1,9.9,24.5,9.5c0.1-0.2,3-5.1,6.4-11c16.3-28.3,45-61.8,61-71.2
		c5.5-3.2,6.1-3.8,7.5-8.1c0.8-2.5,3.7-9.5,6.4-15.4c2.8-5.9,5.7-12.9,6.6-15.5c1.7-4.7,6.7-27.6,11.7-53.8
		c3.4-17.6,9.1-34.8,22.5-68.4c5.6-13.9,12.6-32.3,15.8-40.9c3.1-8.6,10.8-28.1,17.1-43.2c18.1-43.7,21.3-53.5,24.2-73.8
		c4.4-30.8,6.2-61.7,5.7-96.8c-0.5-37.3-2.4-49.2-11.4-72.4c-20.8-53.3-65.9-102.5-120.6-131.7
		C1666.5,1134.2,1629.7,1126,1594.6,1129.6z"/>
	<path id="structure24_label25_S1ULp" bar:growlevel="0" bar:type="" class="st16" d="M2225.8,1191.2c-6.4,1.7-32.1,8.6-57.1,15.3
		c-110.1,29.4-245.5,67.8-285,80.6c-7.2,2.3-11.1,4.1-11.1,4.9c0,0.7,0.8,4.7,1.7,8.7c1,4.1,2.6,12.5,3.6,18.7
		c8.2,49.6,7.6,92.9-1.7,130c-1.5,5.9-2.7,10.8-2.7,11.1c0,1.6,101.9,48.2,158.9,72.7c58.2,24.9,163.2,67.1,167.2,67.1
		c2.2,0,14-38.2,22.1-70.9c29.6-119.5,37.8-249.1,21-332.7c-1.4-6.8-1.9-8.1-3.3-8.3C2238.3,1188.2,2232.3,1189.5,2225.8,1191.2z"/>
	<path id="structure25_label26_S1DZO" bar:growlevel="0" bar:type="" class="st17" d="M2200.2,1137.3c-11.6,4.2-49.5,17.9-84.1,30.4
		c-120.7,43.7-232.4,85.1-249.4,92.3c-4.9,2.2-5,0.7,1.1,17.8c4.1,11.7,4.3,12.1,6.6,11.6c1.3-0.2,11-3.1,21.5-6.4
		c57.4-17.9,265.4-75.9,331.7-92.4c7.4-1.8,11.8-3.3,12.1-4.2c1.3-3.2-14.6-56.3-16.8-56.6
		C2221.9,1129.7,2211.8,1133.1,2200.2,1137.3z"/>
	<path id="structure26_label27_S1J" bar:growlevel="0" bar:type="" class="st18" d="M2097,973.1c-21.8,15.9-56.8,41.5-77.9,56.9
		c-126.5,92.3-200.6,147.9-200.6,150.6c0,0.8,3,5.5,6.7,10.4c9.5,12.6,17.2,26.6,27.3,49.7c4.9,11.1,9.3,20.2,9.9,20.2
		c0.6,0,5.8-1.9,11.7-4.1c49.9-19.4,237.4-88.1,332.6-122c12-4.2,15.9-6,15.9-7.2c0-2.1-11.4-33.9-20.3-56.2
		c-17-43.1-34.9-80.6-55.6-116.4c-4.9-8.6-6.8-11-8.3-10.9C2137.5,944.2,2118.9,957.2,2097,973.1z"/>
	<path id="structure27_label28_S1FL" bar:growlevel="0" bar:type="" class="st19" d="M1873.9,758.4
		c-83.3,157.9-145.6,270.9-170.6,310c-2.4,3.8-4.4,7.3-4.4,7.8c0,0.5,6.6,5.5,14.7,11.1c30.4,21,58.6,43.4,71.3,56.5
		c1.9,2.1,4.2,3.7,5,3.7c0.8,0,5.8-3.8,10.9-8.4c58-52.1,243.1-206.6,291.2-243.1c5-3.9,9.2-7.6,9.2-8.2c0-3.2-23-29.9-41.9-48.6
		c-27.1-27.1-53.5-47.1-95.4-72.2c-24.9-14.9-69.7-39-72.6-39C1890.4,728.1,1884.2,739,1873.9,758.4z"/>
	<path id="structure28_label29_M1" bar:growlevel="0" bar:type="" class="st20" d="M1571.1,628.5c0,0.6-1.2,13-2.7,27.6
		c-1.4,14.6-6.8,72-11.7,127.7c-9.5,107-14.2,157.1-17.2,184.5c-1,9.2-2,19.1-2.3,22l-0.5,5.4l7.3,2.5c7.6,2.7,21.7,9.3,29.4,13.9
		c2.4,1.5,6.1,3.2,8.1,3.9c25.6,8.2,79.5,35.7,109.4,56c2.8,1.9,5.7,3.4,6.3,3.4c3.8,0,46.7-75,106.7-186.3
		c36.5-67.8,85.8-160.6,85.8-161.7c0-0.4-7.8-4.3-17.3-8.7c-49.8-23-104-43.7-157.8-60.4c-51.5-15.9-81.3-22.9-124.9-29.3
		C1574.9,626.9,1571.1,626.8,1571.1,628.5z"/>
	<path id="structure29_label30_M2" bar:growlevel="0" bar:type="" class="st21" d="M1430.2,620.6c-51.9,3.2-88.1,10-118.3,22.1
		c-17.2,6.8-37.7,19.2-37.8,22.7c0,0.8,6.2,12.1,13.9,25.2c27.5,46.8,138.7,238.7,165.7,285.7c4.9,8.5,9.5,15.6,10.3,15.6
		c0.6,0,4.1-1.1,7.7-2.4c5.6-2.1,7.6-2.4,17.2-2.4c11.1,0,13,0.3,33.9,5c6.8,1.5,12.7,2.6,13,2.3c1.4-1.4,6.5-53.1,19.3-195.5
		c9.5-107,12.8-141.3,14.8-160.2c0.7-6.4,1.2-11.7,1-11.9c-0.3-0.4-33.2-3.6-48.2-4.8C1510.5,620.9,1440.8,620,1430.2,620.6z"/>
	<path id="structure2_label1_AcbSh" bar:growlevel="0" bar:type="" class="st22" d="M1331.2,1563.6c-4.9,1.8-16.7,14.3-23.8,25
		c-15,22.9-27.8,54.9-37.3,93.6c-7.7,31.1-10.3,50.8-11.1,82.2l-0.5,21.7l3.4,4.4c5,6.6,11.5,20.9,23.4,51.8
		c12.4,32.1,15.8,40.2,19.8,46.4c1.5,2.4,10.4,12.8,19.7,23c9.4,10.2,22.2,24.8,28.6,32.7c6.4,7.8,14,16,16.7,18.3
		c5.6,4.3,20.9,12.2,31.7,16.1c4.9,1.8,9.1,2.6,15.3,2.9c7.8,0.5,9.3,0.3,17.1-2.3c4.7-1.6,16-6.5,25.2-10.9
		c9.2-4.4,17.5-8.2,18.5-8.5c4.1-1.1,18.4-2.3,37.8-3.2c28-1.3,48.2-3.3,76.1-7.7c18.2-2.8,41.4-7.6,41.4-8.6c0-0.4-0.9-2.3-2-4.1
		c-5.4-9.1,0.3-34.9,14.7-67.2c2.4-5.4,4.4-10.5,4.4-11.3c0-1-5.4-3.6-19.1-9.3c-10.5-4.3-19.6-7.8-20.2-7.8c-0.5,0-1.7,0.8-2.6,1.8
		c-1.1,1.2-2.8,1.8-4.9,1.8c-4.5,0-7.7-3.3-7.6-8l0.1-3.3l-6.7-2.6c-3.6-1.3-6.8-2.3-6.9-2.2c-0.2,0.2-1.6,3-3.3,6.2
		c-12.2,23.2-50.9,40.1-82.4,36.2c-35.5-4.5-91.1-41.8-119.6-80.2c-14.1-19-23.9-47-27.3-77.7c-1.7-15.4-1.2-43.9,1.3-70.5
		c2.6-28.1,3-54,1-63.5c-1.5-7.1-4.3-13-6.8-14.3C1342,1562.5,1335.1,1562.3,1331.2,1563.6z"/>
	<path id="structure30_text3019_Cg1" bar:growlevel="0" bar:type="" class="st23" d="M1261.1,675.1c-32.1,30.2-52.5,72.4-59.9,124.6
		c-2.9,19.6-3.6,34.2-4.1,79.2l-0.5,43.2l39.9,14.3c101.4,36.4,181.3,63.9,201.2,69.4l9.2,2.5l6.8-6.9c3.8-3.8,7.3-6.8,7.7-6.8
		c2.2,0,0.6-3.5-6.8-16.6c-19.6-34.1-149.6-258.2-173.8-299.6c-5.4-9.2-7.1-11.4-8.7-11.4C1270.6,666.9,1266.8,669.8,1261.1,675.1z"
		/>
	<path class="st24" d="M1436.7,1005.8c-24.6-7-131.2-44.1-222.8-77.4c-7.6-2.8-14.6-5-15.5-5c-1.7,0-1.7,3.1-1.7,115.9
		c0,74.2,0.4,118.5,0.9,123.3c1.9,14.9,6.8,25.2,14.1,29.9c3.9,2.5,3.9,2.5,1.5,3.1c-3.7,1-6.4,3.1-7.9,6.4
		c-1.8,3.7-1.8,9.4-0.1,11.6c1.9,2.5,1.7,7.1-0.4,9.8c-3.4,4.3-1.9,4.9,8.8,3.6c4.2-0.4,4.9-0.8,5.9-3.3c0.6-1.5,2.2-3.7,3.4-4.9
		c2.2-2,11.1-5.6,13.8-5.6c2.7,0,8.7,3.7,10.2,6.4c1.1,1.9,2.3,2.6,4,2.6c1.3,0,10.4-2,20.2-4.5l17.6-4.4l14-13.4
		c18.8-17.7,27.5-25.4,38.9-33.8c12.5-9.4,32-29,41.9-42.3c13-17.3,26.3-40.7,45.1-78.6c9.6-19.4,17.5-35.6,17.5-36
		C1446,1008.8,1441.8,1007.3,1436.7,1005.8z"/>
	<path class="st25" d="M1868.1,1279.8c-7.5-22.9-26.6-64.4-36.6-79.6c-15.2-23-45.5-56.7-67.8-75.2c-18.3-15.2-54.6-41.3-79.3-56.9
		c-41.8-26.4-89.4-49.1-114.1-54.6c-20.8-4.6-30-5.8-46.4-5.8c-18-0.1-22.2,0.6-32.4,5.3c-12.2,5.7-12.6,6-45.5,51.3
		c-24.3,33.2-25,34.4-36.6,52.5c-18.5,28.8-30.2,42.2-54.1,61.7c-25.9,21.1-36,26.4-68.9,35.5c-25.3,7.1-45,11.3-60.2,12.7
		c-6.5,0.6-17.8,0.9-29.2,0.9l-0.2,168.8c20.3,0,40.6,0.9,53.1,2.6c13,1.8,19.4,3.9,28.2,9.1c9.2,5.5,10.4,5.1,13.6-3
		c1.3-3.4,3.7-10.6,5.5-16.1c2.2-6.9,4.5-12.1,7.5-16.7c4.7-7.1,14.5-16.9,19.5-19.5c4.2-2.1,40.4-37.3,63.2-61.4
		c10.1-10.6,20-20.6,22-22c5.2-3.9,5.7-4.4,12.2-14.4c21-32.1,63.1-74.5,95.3-96.1c43.3-28.9,89.1-37.2,136.9-24.8
		c14.8,3.8,25.7,8,43.9,17c27.4,13.5,49.6,29.3,70.7,50.4c31.9,31.8,56.3,72.7,64.4,107.8c5.8,25.3,6.3,71.9,1.2,123
		c-4,39-5.4,44.2-27.7,98.5c-6,14.6-13.6,33.8-16.9,42.8c-3.2,9-10.4,27.4-15.8,41c-15.4,38.5-17.8,46.7-24.5,80.1
		c-6.9,34.5-8.7,41.2-15,54.4c-2.5,5.4-6.8,16.4-9.4,24.3c-7.1,21.8-11.2,28.6-24.4,40.9c-10.8,9.9-17.6,19.9-13.5,19.9
		c0.6,0,6.5-5.6,12.9-12.4c22.5-23.8,24.8-27.4,28.1-42c2.2-10.3,4.2-15.3,11.4-28.9c6.8-13.1,8.6-19.3,14.3-50.1
		c5.7-30.5,9-42.8,17-62.1c8.1-19.6,14.8-31.1,34.8-59.1c54.6-76.9,69.1-107.3,76-158.8C1886.5,1379.8,1880.8,1318.7,1868.1,1279.8z
		"/>
	<path id="structure3_label2_LAcbSh" bar:growlevel="0" bar:type="" class="st5" d="M1331.2,1563.6c-4.9,1.8-16.7,14.3-23.8,25
		c-15,22.9-27.8,54.9-37.3,93.6c-7.7,31.1-10.3,50.8-11.1,82.2l-0.5,21.7l3.4,4.4c5,6.6,11.5,20.9,23.4,51.8
		c12.4,32.1,15.8,40.2,19.8,46.4c1.5,2.4,10.4,12.8,19.7,23c9.4,10.2,22.2,24.8,28.6,32.7c6.4,7.8,14,16,16.7,18.3
		c5.6,4.3,20.9,12.2,31.7,16.1c4.9,1.8,9.1,2.6,15.3,2.9c7.8,0.5,9.3,0.3,17.1-2.3c4.7-1.6,16-6.5,25.2-10.9
		c9.2-4.4,17.5-8.2,18.5-8.5c4.1-1.1,18.4-2.3,37.8-3.2c28-1.3,48.2-3.3,76.1-7.7c18.2-2.8,41.4-7.6,41.4-8.6c0-0.4-0.9-2.3-2-4.1
		c-5.4-9.1,0.3-34.9,14.7-67.2c2.4-5.4,4.4-10.5,4.4-11.3c0-1-5.4-3.6-19.1-9.3c-10.5-4.3-19.6-7.8-20.2-7.8c-0.5,0-1.7,0.8-2.6,1.8
		c-1.1,1.2-2.8,1.8-4.9,1.8c-4.5,0-7.7-3.3-7.6-8l0.1-3.3l-6.7-2.6c-3.6-1.3-6.8-2.3-6.9-2.2c-0.2,0.2-1.6,3-3.3,6.2
		c-12.2,23.2-50.9,40.1-82.4,36.2c-35.5-4.5-91.1-41.8-119.6-80.2c-14.1-19-23.9-47-27.3-77.7c-1.7-15.4-1.2-43.9,1.3-70.5
		c2.6-28.1,3-54,1-63.5c-1.5-7.1-4.3-13-6.8-14.3C1342,1562.5,1335.1,1562.3,1331.2,1563.6z"/>
	<path id="structure4_label3_VP" bar:growlevel="0" bar:type="" class="st26" d="M1260.6,1793c0,0.6,0.6,9.2,1.3,19.1
		c1.4,20,3.2,31.6,6.4,42.8c4.4,15.2,7.6,19.7,31.3,44.1c24.1,24.8,41.8,47.7,50.8,65.6c3.2,6.4,9,13.1,13,15.2
		c2.6,1.3,25.7,8.9,39.2,12.9c3.7,1.1,10.8,2.3,15.8,2.8c5,0.5,16.9,2.1,26.4,3.5c22.9,3.5,41.4,4.9,59.5,4.1
		c13.9-0.5,21.1-1.5,50.6-6.9c6-1.2,17.1-2.1,30.6-2.6c29.5-1.2,29.3-1.1,71.5-18.3c10.4-4.2,22.2-8.6,26.4-9.8
		c7.8-2.2,9.4-3.7,4.7-4.7c-4.6-0.9-17.3-7.2-20.9-10.4c-4.2-3.7-8.7-11.3-8.7-14.7c0-3-0.1-3-6.3-0.5
		c-26.7,10.3-80.7,19.1-135.8,22c-37,2-36.4,1.8-54.5,10.4c-26.5,12.7-35.9,15.8-45,14.9c-7.9-0.7-18.3-4.3-31.5-10.9
		c-13.9-6.9-19.2-11.3-31.3-26.5c-8-10-13.2-15.9-37.8-42.9c-12.9-14-14.8-17.9-28.6-53.5c-16.2-42.4-22.8-56.7-25.6-56.7
		C1261.2,1791.9,1260.6,1792.4,1260.6,1793z"/>
	<path class="st27" d="M1312.6,1576.2c-5.6,1.6-6.7,1.5-9-0.4c-4.2-3.2-4.9-7.5-2.5-16.3c4.4-16.8,4.7-18.4,4.2-24.7
		c-0.3-3.5-1.9-12.4-3.6-19.8c-4.8-20.5-5.5-26-5.5-38.7c0.1-13,1.5-21,5.3-28.4c2.9-5.8,2.9-6.3-0.7-6.3c-1.6,0-5.1-1.1-7.7-2.3
		c-5.2-2.6-8.8-7.3-11.6-15c-2.3-6.4-3.4-5.3-4.1,3.6c-1.4,18.6-7.8,57.3-12.8,77.2c-3.7,14.7-14.5,50.9-17.8,59.7
		c-6.8,17.6-12.8,27.6-21.6,36c-7.9,7.5-18.2,11.2-28.4,11.2v77.5l7.5-2.6c5.2-1.8,9.7-2.6,15.7-3c7.3-0.4,8.7-0.2,13.1,1.8
		c9.4,4.3,15,12.7,17.6,26c1.6,8.4,2.2,50.5,0.9,63l-0.6,6.8l3.2,1.5c1.8,0.8,3.5,1.5,3.9,1.5s0.7-8,0.8-17.8
		c0.3-29.8,3.5-53.1,11.6-85.7c10.5-42.4,24.8-76.4,40.6-97.5C1315.1,1577.9,1315.7,1575.3,1312.6,1576.2z"/>
	<path id="structure63_label68_cg" bar:growlevel="0" bar:type="" class="st28" d="M1474.5,988.5c-11.2,3.2-20.1,10-27.5,21.1
		c-2.1,3.1-8.9,16.5-15.3,29.7c-32.5,68.1-55.5,100.7-89.3,126.2c-10.6,8-17.9,14.4-34.7,30c-13.8,12.9-16.4,15.9-13.4,15.9
		c2.5,0,20.1-6.6,28.3-10.5c18-8.7,48.4-34.1,65.6-54.6c3.7-4.4,13.3-18,21.4-30.2c8-12.1,19.4-28.8,25.4-37
		c42.8-58.9,41.1-56.7,49.6-62.4c12.4-8.3,29.3-11.5,49.1-9.6c6,0.6,15.2,1.9,20.4,2.9c11.5,2.1,13.5,2.1,13.5,0.4
		c0-2.3-19.3-10.8-35-15.4C1510.2,988.4,1484.8,985.6,1474.5,988.5z"/>
	<path class="st25" d="M1868.1,1279.8c-7.5-22.9-26.6-64.4-36.6-79.6c-15.2-23-45.5-56.7-67.8-75.2c-18.3-15.2-54.6-41.3-79.3-56.9
		c-41.8-26.4-89.4-49.1-114.1-54.6c-20.8-4.6-30-5.8-46.4-5.8c-18-0.1-22.2,0.6-32.4,5.3c-12.2,5.7-12.6,6-45.5,51.3
		c-24.3,33.2-25,34.4-36.6,52.5c-18.5,28.8-30.2,42.2-54.1,61.7c-25.9,21.1-36,26.4-68.9,35.5c-25.3,7.1-45,11.3-60.2,12.7
		c-6.5,0.6-17.8,0.9-29.2,0.9l-0.2,168.8c20.3,0,40.6,0.9,53.1,2.6c13,1.8,19.4,3.9,28.2,9.1c9.2,5.5,10.4,5.1,13.6-3
		c1.3-3.4,3.7-10.6,5.5-16.1c2.2-6.9,4.5-12.1,7.5-16.7c4.7-7.1,14.5-16.9,19.5-19.5c4.2-2.1,40.4-37.3,63.2-61.4
		c10.1-10.6,20-20.6,22-22c5.2-3.9,5.7-4.4,12.2-14.4c21-32.1,63.1-74.5,95.3-96.1c43.3-28.9,89.1-37.2,136.9-24.8
		c14.8,3.8,25.7,8,43.9,17c27.4,13.5,49.6,29.3,70.7,50.4c31.9,31.8,56.3,72.7,64.4,107.8c5.8,25.3,6.3,71.9,1.2,123
		c-4,39-5.4,44.2-27.7,98.5c-6,14.6-13.6,33.8-16.9,42.8c-3.2,9-10.4,27.4-15.8,41c-15.4,38.5-17.8,46.7-24.5,80.1
		c-6.9,34.5-8.7,41.2-15,54.4c-2.5,5.4-6.8,16.4-9.4,24.3c-7.1,21.8-11.2,28.6-24.4,40.9c-10.8,9.9-17.6,19.9-13.5,19.9
		c0.6,0,6.5-5.6,12.9-12.4c22.5-23.8,24.8-27.4,28.1-42c2.2-10.3,4.2-15.3,11.4-28.9c6.8-13.1,8.6-19.3,14.3-50.1
		c5.7-30.5,9-42.8,17-62.1c8.1-19.6,14.8-31.1,34.8-59.1c54.6-76.9,69.1-107.3,76-158.8C1886.5,1379.8,1880.8,1318.7,1868.1,1279.8z
		"/>
	<path id="structure65_label70_lo" bar:growlevel="0" bar:type="" class="st29" d="M1888.1,1967.4c-12.4,1.7-21.2,8.1-47.9,34.5
		c-18.7,18.4-31.5,29.4-56.1,47.8c-9.8,7.4-12.6,10.4-9.4,10.4c0.7,0,7.3-2.4,14.7-5.3c18.4-7.3,50-18.7,85.3-30.7
		c33.1-11.2,39.9-13.9,55.3-21.6c17.5-8.7,35.4-20.2,34.9-22.3c-0.4-1.7-9.2-5.3-19.2-7.8C1930.6,1968.5,1900,1965.8,1888.1,1967.4z
		"/>
	<path id="structure66_label71_aca" bar:growlevel="0" bar:type="" class="st30" d="M1478.4,1746.1c-16.4,3.2-22.8,12.9-18.4,27.9
		c1.8,6.2,16.5,35,20.5,40.6c6.9,9.3,13.8,11.5,25.7,8.4c21.2-5.5,31.4-20.3,27.9-40.7c-1.5-9.2-5.3-16.6-12-23.1
		C1510.8,1747.7,1494.7,1742.9,1478.4,1746.1z"/>
	<path id="structure67_label72_mfb" bar:growlevel="0" bar:type="" class="st31" d="M1260.6,1793c0,0.6,0.6,9.2,1.3,19.1
		c1.4,20,3.2,31.6,6.4,42.8c4.4,15.2,7.6,19.7,31.3,44.1c24.1,24.8,41.8,47.7,50.8,65.6c3.2,6.4,9,13.1,13,15.2
		c2.6,1.3,25.7,8.9,39.2,12.9c3.7,1.1,10.8,2.3,15.8,2.8c5,0.5,16.9,2.1,26.4,3.5c22.9,3.5,41.4,4.9,59.5,4.1
		c13.9-0.5,21.1-1.5,50.6-6.9c6-1.2,17.1-2.1,30.6-2.6c29.5-1.2,29.3-1.1,71.5-18.3c10.4-4.2,22.2-8.6,26.4-9.8
		c7.8-2.2,9.4-3.7,4.7-4.7c-4.6-0.9-17.3-7.2-20.9-10.4c-4.2-3.7-8.7-11.3-8.7-14.7c0-3-0.1-3-6.3-0.5
		c-26.7,10.3-80.7,19.1-135.8,22c-37,2-36.4,1.8-54.5,10.4c-26.5,12.7-35.9,15.8-45,14.9c-7.9-0.7-18.3-4.3-31.5-10.9
		c-13.9-6.9-19.2-11.3-31.3-26.5c-8-10-13.2-15.9-37.8-42.9c-12.9-14-14.8-17.9-28.6-53.5c-16.2-42.4-22.8-56.7-25.6-56.7
		C1261.2,1791.9,1260.6,1792.4,1260.6,1793z"/>
	<path class="st32" d="M1203.1,1211.2c-1.9-1.7-4.1-2.6-6.2-2.6l0,18.8c2.8,0.3,3.7-0.2,6.1-2.3c2.6-2.3,3-3.2,3-7
		C1205.9,1214.4,1205.6,1213.4,1203.1,1211.2z"/>
	<path class="st33" d="M1251,1717.2c-0.5-4.2-1.8-10.4-2.8-13.8c-1.5-5.1-2.7-7.1-6.9-11.4s-6.1-5.5-10.5-6.8
		c-6.9-2.1-16.2-1.3-25,1.9c-4.3,1.5-6.6,2.2-9.1,2.1v101.7c0.2,0.1,0.3,0.1,0.4,0.1c0.5,0,4.3-1.6,8.4-3.5
		c11.8-5.7,21.4-7.7,34.5-7l10.9,0.4l0.6-8.7C1252.2,1758.8,1252,1725.6,1251,1717.2z"/>
	<path id="structure70_text3055_IG" bar:growlevel="0" bar:type="" class="st34" d="M1227.5,1216.3c-3,1.3-5.4,3.2-6.6,5.1
		c-3.1,5.2-2.7,5.6,5.7,4.9c8-0.7,19.3-2.6,20.1-3.5c1.3-1.3-0.7-5.1-3.6-6.8C1239.1,1213.4,1233.4,1213.5,1227.5,1216.3z"/>
	<path id="structure72_label76_LSV" bar:growlevel="0" bar:type="" class="st35" d="M1302.1,1447.4c-3.6,7.5-5.5,17.5-5.5,29
		c0,11.9,1.1,19.6,5.4,38.8c5.1,22.8,5.1,22.3,1.4,36.6c-3.8,14.4-4,19.3-1.3,22.7c1.4,1.8,2.6,2.3,5.4,2.3c4.1,0,7.5-1.5,14.1-6.5
		c5.9-4.4,9.4-9.8,12.4-19c4.8-15.4,4.8-31.9-0.1-64.5l-2.2-14.8l-4.1-3.6c-5-4.5-9.8-10.9-13.2-17.7
		C1309.1,1439.9,1306,1439.2,1302.1,1447.4z"/>
	<path id="structure73_label77_LSD" bar:growlevel="0" bar:type="" class="st36" d="M1311.1,1364c-6.4,7-10.4,14.7-14.9,28.5
		c-6.7,20.3-6.9,20.6-13.1,18.6c-1.9-0.6-3.8-1-4-0.6c-0.7,0.7,1.3,10.1,3.4,15.8c2.2,5.7,7.1,11.5,11.3,13.3c1.6,0.6,5,1.2,7.7,1.2
		c6.9,0,8.7,1.3,13.5,9.9c4.4,8.1,12.6,18,14.8,18c1.8,0,1.6-3-1-15c-2.6-12-6.6-26.1-9.8-34.7c-6.2-16.5-7.6-38.9-3.3-50.6
		C1319.6,1357.2,1318.4,1355.9,1311.1,1364z"/>
	<path id="structure74_label78_VP" bar:growlevel="0" bar:type="" class="st26" d="M1260.6,1793c0,0.6,0.6,9.2,1.3,19.1
		c1.4,20,3.2,31.6,6.4,42.8c4.4,15.2,7.6,19.7,31.3,44.1c24.1,24.8,41.8,47.7,50.8,65.6c3.2,6.4,9,13.1,13,15.2
		c2.6,1.3,25.7,8.9,39.2,12.9c3.7,1.1,10.8,2.3,15.8,2.8c5,0.5,16.9,2.1,26.4,3.5c22.9,3.5,41.4,4.9,59.5,4.1
		c13.9-0.5,21.1-1.5,50.6-6.9c6-1.2,17.1-2.1,30.6-2.6c29.5-1.2,29.3-1.1,71.5-18.3c10.4-4.2,22.2-8.6,26.4-9.8
		c7.8-2.2,9.4-3.7,4.7-4.7c-4.6-0.9-17.3-7.2-20.9-10.4c-4.2-3.7-8.7-11.3-8.7-14.7c0-3-0.1-3-6.3-0.5
		c-26.7,10.3-80.7,19.1-135.8,22c-37,2-36.4,1.8-54.5,10.4c-26.5,12.7-35.9,15.8-45,14.9c-7.9-0.7-18.3-4.3-31.5-10.9
		c-13.9-6.9-19.2-11.3-31.3-26.5c-8-10-13.2-15.9-37.8-42.9c-12.9-14-14.8-17.9-28.6-53.5c-16.2-42.4-22.8-56.7-25.6-56.7
		C1261.2,1791.9,1260.6,1792.4,1260.6,1793z"/>
	<path id="structure75_text3061_ICj" bar:growlevel="0" bar:type="" class="st3" d="M1259,1927.8c-1.6,0.9-3.5,3-4.3,4.4
		c-1.7,3.3-1.8,11.8-0.1,15.7c1.5,3.5,8.2,10.1,11.6,11.3c3.9,1.5,13.4,1.3,15.8-0.5c6.6-4.6,7-20,0.7-25.9
		C1276,1926.4,1265,1924.1,1259,1927.8z"/>
	<path id="structure77_label80_LSS" bar:growlevel="0" bar:type="" class="st37" d="M1716,1776.4c-2.7,1.8-9.6,8-15.4,13.7
		c-28.8,28.7-51.7,65.9-64.7,105.2c-6.3,19.1-8.1,33.9-4.7,40.6c2.3,4.9,6.6,4.6,20.4-1c6.2-2.5,6.4-2.7,7.6-6.9
		c0.5-2.3,2.9-7.1,5-10.5c6.8-11,6.9-12.2,6.3-36.9l-0.6-21.6l3.1-5.8c11.8-22.4,14.9-26.9,28.2-40.1c11.8-11.8,15.7-17.4,19.5-28.4
		c2.7-7.7,3.1-11.5,1.4-11.5C1721.5,1773.1,1718.7,1774.5,1716,1776.4z"/>
	<path id="structure78_label81_DCl" bar:growlevel="0" bar:type="" class="st38" d="M1871.7,1464.5c0,2.3-5.9,17.2-11.3,28.2
		c-6.9,14.3-17.8,32.5-32.5,54.4c-6.1,9-11.2,17-11.2,17.7c0,1.8,2.4,1.5,5.2-0.4c3.7-2.5,13.5-7.3,19-9.2
		c6.8-2.4,14.3-2.3,18.2,0.4c3.6,2.3,7.1,8.8,7.1,13c0,9.8,6.8-7.4,10.7-27.2c5.1-25.5,4.6-52.7-1.3-73.1c-0.9-3-1.9-4.8-2.7-4.8
		C1872.3,1463.4,1871.7,1463.8,1871.7,1464.5z"/>
	<path id="structure79_label82_E" bar:growlevel="0" bar:type="" class="st39" d="M1395,1283.6c-8.4,8.6-17.2,17.8-19.7,20.7
		c-2.4,2.9-15.6,15.8-29.2,28.8c-13.5,13-25.5,24.9-26.5,26.7c-4.9,7.7-7.5,20.8-6.4,31.7c0.8,7.6,2.4,8,3.9,0.9
		c4-18.9,22.9-44.7,38.8-52.6c6.4-3.2,11.8-4.2,14.1-2.6c4,2.6,4,10.9-0.1,38.5c-4.5,30.9-5.9,45.6-16.7,171.4l-1.7,21.2l3.3,2.9
		c5.9,5.2,5.3,7.9,7.8-32.6c1.5-25,6.5-84.4,10-121.1c4.4-46.7,7.7-66,15.8-92.5c5.8-19.3,10.4-30.3,18.5-43.9
		c3.6-6,6.6-11.5,6.6-12C1413.6,1265.8,1408.7,1269.6,1395,1283.6z"/>
	<path class="st3" d="M1248.9,1835.1c-11.5-11.3-22.2-17-31.9-17.1c-2.6,0-7.6,1.1-12.4,2.8l-7.9,2.7v12.5c0.5,0,0.9,2.1,0.9,4.6
		c0,5.5,2.5,23.5,3.4,24.4c0.7,0.7,32.6,3.2,45.4,3.6c6.8,0.3,8.1,0,10.3-1.6c2.9-2.2,3.7-4.4,3.8-11.1
		C1260.6,1848.8,1258,1844.1,1248.9,1835.1z"/>
	<path id="structure84_label86_IG" bar:growlevel="0" bar:type="" class="st34" d="M1222.6,1415.5c0.4,20.9-0.6,35.1-4.4,56.9
		c-2.2,12.6-2.9,20-3.5,36.9c-0.5,11.6-1.3,23-1.7,25.2c-1.3,5.6-1.3,5.6,1,5.2c1.6-0.2,2.3-1.4,3.6-6.6
		c6.6-25.6,14.1-78.1,16.5-114.3c0.3-4.5,0.7-11.1,1-14.7l0.5-6.5h-6.8h-6.7L1222.6,1415.5z"/>
	<path class="st40" d="M1868.1,1279.8c-7.5-22.9-26.6-64.4-36.6-79.6c-15.2-23-45.5-56.7-67.8-75.2c-18.3-15.2-54.6-41.3-79.3-56.9
		c-41.8-26.4-89.4-49.1-114.1-54.6c-20.8-4.6-30-5.8-46.4-5.8c-18-0.1-22.2,0.6-32.4,5.3c-12.2,5.7-12.6,6-45.5,51.3
		c-24.3,33.2-25,34.4-36.6,52.5c-18.5,28.8-30.2,42.2-54.1,61.7c-25.9,21.1-36,26.4-68.9,35.5c-25.3,7.1-45,11.3-60.2,12.7
		c-6.5,0.6-17.8,0.9-29.2,0.9l-0.2,168.8c20.3,0,40.6,0.9,53.1,2.6c13,1.8,19.4,3.9,28.2,9.1c9.2,5.5,10.4,5.1,13.6-3
		c1.3-3.4,3.7-10.6,5.5-16.1c2.2-6.9,4.5-12.1,7.5-16.7c4.7-7.1,14.5-16.9,19.5-19.5c4.2-2.1,40.4-37.3,63.2-61.4
		c10.1-10.6,20-20.6,22-22c5.2-3.9,5.7-4.4,12.2-14.4c21-32.1,63.1-74.5,95.3-96.1c43.3-28.9,89.1-37.2,136.9-24.8
		c14.8,3.8,25.7,8,43.9,17c27.4,13.5,49.6,29.3,70.7,50.4c31.9,31.8,56.3,72.7,64.4,107.8c5.8,25.3,6.3,71.9,1.2,123
		c-4,39-5.4,44.2-27.7,98.5c-6,14.6-13.6,33.8-16.9,42.8c-3.2,9-10.4,27.4-15.8,41c-15.4,38.5-17.8,46.7-24.5,80.1
		c-6.9,34.5-8.7,41.2-15,54.4c-2.5,5.4-6.8,16.4-9.4,24.3c-7.1,21.8-11.2,28.6-24.4,40.9c-10.8,9.9-17.6,19.9-13.5,19.9
		c0.6,0,6.5-5.6,12.9-12.4c22.5-23.8,24.8-27.4,28.1-42c2.2-10.3,4.2-15.3,11.4-28.9c6.8-13.1,8.6-19.3,14.3-50.1
		c5.7-30.5,9-42.8,17-62.1c8.1-19.6,14.8-31.1,34.8-59.1c54.6-76.9,69.1-107.3,76-158.8C1886.5,1379.8,1880.8,1318.7,1868.1,1279.8z
		"/>
	<path class="st40" d="M1196.7,1227.6v168.8c0,0,0,0,0,0l0.2-168.8C1196.8,1227.6,1196.7,1227.6,1196.7,1227.6z"/>
	<path id="structure87_label93_acer" bar:growlevel="0" bar:type="" class="st41" d="M1200.4,1903.5c-7.3,7.3-2.3,18.9,8.1,18.9
		c3.9,0,4.9-0.4,7.6-3.1c2.7-2.7,3.1-3.6,3.1-7.7s-0.4-5-3.1-7.7c-2.7-2.7-3.6-3.1-8-3.1C1203.8,1900.8,1202.8,1901.1,1200.4,1903.5
		z"/>
	<path class="st42" d="M1252.4,1520.3c-12.1,9.7-24.3,16.5-34.8,19.2l-20.9,1.3l0.4,71c22.6,0.2,38.5-16,50.7-50.7
		c4.1-11.6,12.8-41.4,12.8-43.6C1260.6,1514.5,1258.7,1515.2,1252.4,1520.3z"/>
	<path id="structure90_text3057_S1DZ" bar:growlevel="0" bar:type="" class="st43" d="M2091.6,896.6
		c-38.8,29.2-179.1,145.8-266.8,221.6c-35.6,30.7-35.9,31.1-31,35.7c1.3,1.2,6.8,7.3,12.2,13.6c5.5,6.4,10.4,11.5,11.2,11.5
		c0.6,0,7.6-5,15.4-11c38.5-29.8,145.1-108.3,254.7-187.7c37.3-27,50.6-37.1,50.6-38.4c0.2-3.2-33.3-52.7-35.6-52.7
		C2101.8,889.2,2096.9,892.5,2091.6,896.6z"/>
	<path id="structure92_text3023-0_Pir-1" bar:growlevel="0" bar:type="" class="st44" d="M2017,1804c-4.7,1-12.9,3.8-22.7,7.7
		c-3.5,1.4-3.8,2.8-0.7,4.8c4,2.6,6.5,9.1,10.3,27.1c5.4,24.6,0.3,52-12.1,65.1c-4.1,4.3-14.9,10.9-21.3,12.9
		c-11.7,3.7-20.1,2.2-54.2-9.5c-27.8-9.4-35-11.3-46-11.3c-13.2,0-23.8,4.8-32.9,15.1c-7.8,8.8-12,18.4-19.3,44.6
		c-5.8,20.6-12.6,31.3-23.3,36.6c-5.6,2.7-16.9,5.4-22.8,5.4c-3.9,0-4,1.5-0.3,5c8.4,7.9,18.2,23.7,19.3,31c0.4,2.2,1.1,3.6,1.8,3.6
		c2.8,0,29-22.6,46.7-40.2c20.5-20.3,27.9-26.5,38.3-31.6l6.8-3.3l17.1,0.1c23.6,0.1,42.7,3.2,57.9,9.5c3.9,1.6,7.3,2.5,8.5,2.2
		c4.4-1.1,44.7-35.5,58.8-50.2c17.5-18.3,25.3-35,32.8-70c4.4-20.6,6.7-27.7,12.8-40.3c2.5-5.1,4.4-9.4,4.2-9.6
		c-0.7-0.5-24-4.1-33.7-4.9C2030.4,1802.4,2023.8,1802.5,2017,1804z"/>
	<path id="structure93_text3025-4_Pir-2" bar:growlevel="0" bar:type="" class="st45" d="M1984.3,1816.8c-3.1,2.5-3.3,8.2-1,27.4
		c2.5,21.2,2.3,28.3-1.7,36.2c-3.3,6.9-6.9,10.3-15.3,14.5c-15.2,7.7-22.3,7.7-46.1,0.2c-29.6-9.4-44.6-12-62.9-11.1
		c-12.5,0.6-20,2.3-28.4,6.6c-13.3,6.6-22.6,17.5-50.2,59.2c-10.5,15.8-20.9,30.8-22.9,33.1c-2.3,2.5-3.7,5-3.5,5.9
		c0.2,0.9,3.6,4.4,7.7,7.7l7.6,6.1l8.6-1c25.7-3.1,33.4-11.1,43.3-46c2.5-8.7,5.6-18.4,6.8-21.6c7.2-17.7,21.3-30.5,37-33.4
		c11.2-2.1,22.9,0.4,54.1,11.3c25.3,8.8,32.2,10.6,42.2,10.6c9.6,0,14.9-1.7,25-8.3c7.6-4.9,11.3-9.4,14.9-17.4
		c4.4-9.8,5.9-18.4,5.8-33.6c0-11.4-0.4-15.1-2.4-23.8c-4.6-19.4-6.6-23.1-12.8-24C1987.2,1815.2,1985.9,1815.5,1984.3,1816.8z"/>
	<path id="structure94_label50-2_Pir-3" bar:growlevel="0" bar:type="" class="st46" d="M1878.3,1796.6
		c-0.1,17.3-7.8,34.9-17.7,40.7c-2.4,1.4-8.7,3.2-17.3,5c-21.5,4.4-34.4,9.3-44.2,16.7c-13.1,10-28,25.6-36,37.8
		c-3.5,5.3-5.8,10.3-8.5,18.4c-8,24.4-15.7,34.7-31.1,42.4c-4.6,2.3-9.9,4.4-12,4.8c-2,0.4-3.7,1.1-3.7,1.7c0,0.5,2.1,1.8,4.7,2.8
		c5.3,2.1,23.5,12.2,31.5,17.6c3,2.1,5.9,3.4,6.6,3.2c2-0.7,11.6-13.3,20.1-26.1c22.2-34,27.1-41.1,33.5-49
		c12.6-15.7,20.3-21.6,33.6-25.8c20.4-6.4,42.4-4.5,78.7,6.8c27.4,8.6,31.9,8.8,46.6,2.7c13.3-5.5,19.3-12.7,21.2-25.2
		c1-6.8,0.9-7.9-2.2-34.1c-1.3-10.7-1.2-13,0.8-19.5c0.5-1.7,0.2-2-3.8-2.5c-33.2-4.4-61.7-11.6-87.5-22.1
		c-6.2-2.4-11.7-4.5-12.2-4.5C1878.7,1788.3,1878.3,1791.2,1878.3,1796.6z"/>
	<path class="st1" d="M1197,1540.8h14.7l1.1-5.7c0.6-3.1,1.3-14.7,1.8-25.8c0.5-16.3,1.2-23.4,3.4-36.4c3.6-20.6,4.7-32.5,4.7-50
		c0-18.1-0.7-24.8-2.6-25.6c-1.3-0.5-12.7-0.8-23.5-0.9l0,144.5H1197"/>
	<path id="structure9_label8_LV" bar:growlevel="0" bar:type="" class="st47" d="M1360,1338.1c-13,4.5-28.3,20.9-37.4,40
		c-4.7,9.7-6.3,16.5-6.3,25.7c0,6.5,0.5,9.1,4,19.3c6.8,20,9.7,33.1,14.1,63.2c5,33.8,4.5,53.4-1.3,68.1c-1.3,3.2-2.3,6.3-2.3,6.8
		c0,0.7,1.9,1.1,5.5,1.1c4.2,0,6.5,0.5,9.9,2.4c2.4,1.3,4.6,2.2,4.8,2c0.2-0.2,1.8-18.4,3.6-40.4c7.9-94.9,10.5-120.6,15.1-150.8
		c3.3-22.1,3.8-34.5,1.3-37.3C1368.8,1336.1,1366,1336,1360,1338.1z"/>
	<text id="text3058" bar:growlevel="0" transform="matrix(1 0 0 1 1593.3477 2052.2207)" class="st48 st49 st50">Tu-2</text>
	<text id="text3057" bar:growlevel="0" transform="matrix(1 0 0 1 1963.8213 1035.1816)" class="st48 st49 st50">S1DZ</text>
	<text id="text3056" bar:growlevel="0" transform="matrix(1 0 0 1 1593.3652 2070.6855)" class="st48 st49 st50">Tu-1</text>
	<text id="text3055" bar:growlevel="0" transform="matrix(1 0 0 1 1241.1143 1220.7012)" class="st48 st49 st50">IG</text>
	<text id="label30" bar:growlevel="0" transform="matrix(1 0 0 1 1445.5127 817.7031)" class="st48 st49 st50">M2</text>
	<text id="label50-2" bar:growlevel="0" transform="matrix(1 0 0 1 1862.542 1872.7559)" class="st48 st49 st50">Pir-3</text>
	<text id="label8" bar:growlevel="0" transform="matrix(1 0 0 1 1330.1035 1407.877)" class="st48 st49 st50">LV</text>
	<text id="label9" bar:growlevel="0" transform="matrix(1 0 0 1 1238.4072 1446.0117)" class="st48 st49 st50">DP</text>
	<text id="label0" bar:growlevel="0" transform="matrix(1 0 0 1 1390.4023 1724.4316)" class="st48 st49 st50">AcbC</text>
	<text id="label1" bar:growlevel="0" transform="matrix(1 0 0 1 1340.7207 1891.6211)" class="st48 st49 st50">AcbSh</text>
	<text id="label2" bar:growlevel="0" transform="matrix(1 0 0 1 1529.9316 1909.3828)" class="st48 st49 st50">LAcbSh</text>
	<text id="label3" bar:growlevel="0" transform="matrix(1 0 0 1 1595.3457 1973.9688)" class="st48 st49 st50">VP</text>
	<text id="label4" bar:growlevel="0" transform="matrix(1 0 0 1 1219.1621 1660.4004)" class="st48 st49 st50">LSI</text>
	<text id="text3063" bar:growlevel="0" transform="matrix(1 0 0 1 1592.9727 2031.209)" class="st48 st49 st50">Tu-3</text>
	<text id="label6" bar:growlevel="0" transform="matrix(1 0 0 1 1233.6377 1856.6582)" class="st48 st49 st50">ICj</text>
	<text id="text3061" bar:growlevel="0" transform="matrix(1 0 0 1 1269.4883 1944.9121)" class="st48 st49 st50">ICj</text>
	<text id="label86" bar:growlevel="0" transform="matrix(1 0 0 1 1222.5225 1469.6719)" class="st48 st49 st50">IG</text>
	<text id="label81" bar:growlevel="0" transform="matrix(1 0 0 1 1853.6914 1532.9395)" class="st48 st49 st50">DCl</text>
	<text id="label80" bar:growlevel="0" transform="matrix(1 0 0 1 1691.873 1811.1777)" class="st48 st49 st50">LSS</text>
	<text id="text3025-4" bar:growlevel="0" transform="matrix(1 0 0 1 1861.792 1892.9629)" class="st48 st49 st50">Pir-2</text>
	<text id="label82" bar:growlevel="0" transform="matrix(1 0 0 1 1377.084 1317.1406)" class="st48 st49 st50">E</text>
	<text id="Unlabeled-1787-1223" bar:growlevel="0" transform="matrix(1 0 0 1 1206.3096 1426.2227)" class="st48 st49 st50">IL</text>
	<text id="label19" bar:growlevel="0" transform="matrix(1 0 0 1 1895.1523 1759.957)" class="st48 st49 st50">AIV</text>
	<text id="Unlabeled-1748-1650" bar:growlevel="0" transform="matrix(1 0 0 1 1241.1113 1808.9766)" class="st48 st49 st50">Tu</text>
	<text id="label10" bar:growlevel="0" transform="matrix(1 0 0 1 1508.8115 2030.5762)" class="st48 st49 st50">ICj</text>
	<text id="label11" bar:growlevel="0" transform="matrix(1 0 0 1 1762.2822 2039.7754)" class="st48 st49 st50">Tu-1</text>
	<text id="label14" bar:growlevel="0" transform="matrix(1 0 0 1 1699.5518 1896.8418)" class="st48 st49 st50">IEn</text>
	<text id="label15" bar:growlevel="0" transform="matrix(1 0 0 1 1769.4512 1803.8555)" class="st48 st49 st50">DEn</text>
	<text id="label93" bar:growlevel="0" transform="matrix(1 0 0 1 1206.9922 1917.041)" class="st48 st49 st50">acer</text>
	<text id="label69" bar:growlevel="0" transform="matrix(1 0 0 1 1850.7529 1362.9297)" class="st48 st49 st50">ec</text>
	<text id="label68" bar:growlevel="0" transform="matrix(1 0 0 1 1453.5225 1014.9883)" class="st48 st49 st50">cg</text>
	<text id="text3019" bar:growlevel="0" transform="matrix(1 0 0 1 1211.8438 905.4082)" class="st48 st49 st50">Cg1</text>
	<text id="label28" bar:growlevel="0" transform="matrix(1 0 0 1 1856.2109 950.0566)" class="st48 st49 st50">S1FL</text>
	<text id="label78" bar:growlevel="0" transform="matrix(1 0 0 1 1273.2822 1852.9609)" class="st48 st49 st50">VP</text>
	<text id="label74" bar:growlevel="0" transform="matrix(1 0 0 1 1199.7207 1218.0156)" class="st48 st49 st50">azp</text>
	<text id="label76" bar:growlevel="0" transform="matrix(1 0 0 1 1310.873 1500.8613)" class="st48 st49 st50">LSV</text>
	<text id="label77" bar:growlevel="0" transform="matrix(1 0 0 1 1301.1816 1425.6387)" class="st48 st49 st50">LSD</text>
	<text id="label70" bar:growlevel="0" transform="matrix(1 0 0 1 1879.9121 2002.3418)" class="st48 st49 st50">lo</text>
	<text id="label71" bar:growlevel="0" transform="matrix(1 0 0 1 1484.1816 1789.2129)" class="st48 st49 st50">aca</text>
	<text id="label72" bar:growlevel="0" transform="matrix(1 0 0 1 1465.0039 1991.8281)" class="st48 st49 st50">mfb</text>
	<text id="text3029" bar:growlevel="0" transform="matrix(1 0 0 1 1265.9463 1330.1602)" class="st48 st49 st50">gcc</text>
	<text id="text3021" bar:growlevel="0" transform="matrix(1 0 0 1 1214.7207 1081.8691)" class="st48 st49 st50">Cg2</text>
	<text id="text3024" bar:growlevel="0" transform="matrix(1 0 0 1 1195.1152 1197.0176)" class="st48 st49 st50">vBrain</text>
	<text id="text3023-0" bar:growlevel="0" transform="matrix(1 0 0 1 1862.2637 1912.9727)" class="st48 st49 st50">Pir-1</text>
	<text id="label5" bar:growlevel="0" transform="matrix(1 0 0 1 1216.2383 1751.0781)" class="st48 st49 st50">Nv</text>
	<text id="label23" bar:growlevel="0" transform="matrix(1 0 0 1 1791.3535 1635.6152)" class="st48 st49 st50">VCl</text>
	<text id="label22" bar:growlevel="0" transform="matrix(1 0 0 1 2007.8926 1586.4961)" class="st48 st49 st50">GI</text>
	<text id="label21" bar:growlevel="0" transform="matrix(1 0 0 1 1982.4512 1651.9688)" class="st48 st49 st50">DI</text>
	<text id="label20" bar:growlevel="0" transform="matrix(1 0 0 1 1941.6816 1707.8672)" class="st48 st49 st50">AID</text>
	<text id="label27" bar:growlevel="0" transform="matrix(1 0 0 1 1992.6816 1129.248)" class="st48 st49 st50">S1J</text>
	<text id="label26" bar:growlevel="0" transform="matrix(1 0 0 1 2006.6621 1237.4766)" class="st48 st49 st50">S1DZO</text>
	<text id="label25" bar:growlevel="0" transform="matrix(1 0 0 1 2030.6914 1392.1523)" class="st48 st49 st50">S1ULp</text>
	<text id="label24" bar:growlevel="0" transform="matrix(1 0 0 1 1583.6328 1444.3926)" class="st48 st49 st50">CPu</text>
	<text id="label29" bar:growlevel="0" transform="matrix(1 0 0 1 1657.2207 860.7012)" class="st48 st49 st50">M1</text>
	<text id="label7" bar:growlevel="0" transform="matrix(1 0 0 1 1206.9922 1581.8906)" class="st48 st49 st50">SHi</text>
</g>
</svg>
