<?xml version="1.0" encoding="utf-8"?>
<!-- Generator: Adobe Illustrator 24.1.1, SVG Export Plug-In . SVG Version: 6.00 Build 0)  -->
<svg version="1.1"
	 id="body" inkscape:version="0.47pre4 r22446" sodipodi:docname="148_pretrace_pretrace_v1.svg" xmlns:bar="http://www.3dbar.org" xmlns:cc="http://creativecommons.org/ns#" xmlns:dc="http://purl.org/dc/elements/1.1/" xmlns:inkscape="http://www.inkscape.org/namespaces/inkscape" xmlns:rdf="http://www.w3.org/1999/02/22-rdf-syntax-ns#" xmlns:sodipodi="http://sodipodi.sourceforge.net/DTD/sodipodi-0.dtd" xmlns:svg="http://www.w3.org/2000/svg"
	 xmlns="http://www.w3.org/2000/svg" xmlns:xlink="http://www.w3.org/1999/xlink" x="0px" y="0px" viewBox="0 0 3024 3024"
	 style="enable-background:new 0 0 3024 3024;" xml:space="preserve">
<style type="text/css">
	.st0{fill:#FF000C;}
	.st1{fill:#0035FF;}
	.st2{fill:#863BE9;}
	.st3{fill:#FF00FE;}
	.st4{fill:#E547D8;}
	.st5{fill:#00E945;}
	.st6{fill:#AF8EDC;}
	.st7{fill:#895FC7;}
	.st8{fill:#59DF9D;}
	.st9{fill:#650BE1;}
	.st10{fill:#D847CA;}
	.st11{fill:#00DFB7;}
	.st12{fill:#B2FFDC;}
	.st13{fill:#00CF69;}
	.st14{fill:#B2FFEF;}
	.st15{fill:#59FFD0;}
	.st16{fill:#2400CB;}
	.st17{fill:#B2F0FF;}
	.st18{fill:#59DFFF;}
	.st19{fill:#3BFFDC;}
	.st20{fill:#8553C7;}
	.st21{fill:#893BF2;}
	.st22{fill:#A15FFA;}
	.st23{fill:#00D7F2;}
	.st24{fill:#CB59FF;}
	.st25{fill:#00D43B;}
	.st26{fill:#7677E9;}
	.st27{fill:#3B40FF;}
	.st28{fill:#BA8EFA;}
	.st29{fill:#FFB2BA;}
	.st30{fill:#792FDC;}
	.st31{fill:#5923CB;}
	.st32{fill:#4A17CB;}
	.st33{fill:#2CEF8D;}
	.st34{fill:#7747D8;}
	.st35{fill:#FF59C3;}
	.st36{fill:#00E8E9;}
	.st37{fill:#59FFB7;}
	.st38{fill:#4C00F2;}
	.st39{fill:#A577F2;}
	.st40{fill:#905FFF;}
	.st41{fill:#AC8EE5;}
	.st42{fill:#3BE998;}
	.st43{fill:#00D0FF;}
	.st44{fill:#00FFFB;}
	.st45{fill:#00FF60;}
	.st46{fill:#A06BF6;}
	.st47{fill:#00FF87;}
	.st48{fill:#FF59A4;}
	.st49{fill:#6047E5;}
	.st50{fill:#5D17FF;}
	.st51{fill:#3BD1D4;}
	.st52{fill:#6323D8;}
	.st53{fill:#E4FF59;}
	.st54{fill:#C5E900;}
	.st55{fill:#D6FF00;}
	.st56{fill:#EBF400;}
	.st57{fill:#F9FF47;}
	.st58{fill:#D0D46B;}
	.st59{fill:#B6DF00;}
	.st60{fill:#FDFFB2;}
	.st61{fill:#EEF447;}
	.st62{fill:#0036FF;}
	.st63{fill:#FEFFB2;}
	.st64{fill:#FAFF00;}
	.st65{fill:#FAFF59;}
	.st66{fill:#FFEEB2;}
	.st67{fill:#5974FF;}
	.st68{fill:#B2BFFF;}
	.st69{fill:#FF0070;}
	.st70{fill:#3BE95B;}
	.st71{fill:#0003FF;}
	.st72{fill:#00E5C7;}
	.st73{fill:#76FFDA;}
	.st74{fill:#00EF7A;}
	.st75{fill:#232323;enable-background:new    ;}
	.st76{font-family:'TimesNewRomanPSMT';}
	.st77{font-size:27px;}
	.st78{fill:#232323;}
	.st79{fill:#FF0000;enable-background:new    ;}
</style>
<sodipodi:namedview  bordercolor="#666666" borderopacity="1" gridtolerance="10" guidetolerance="10" id="namedview392" inkscape:current-layer="content" inkscape:cx="442.20833" inkscape:cy="702.31229" inkscape:object-paths="true" inkscape:pageopacity="0" inkscape:pageshadow="2" inkscape:window-height="1128" inkscape:window-maximized="1" inkscape:window-width="1918" inkscape:window-x="1680" inkscape:window-y="24" inkscape:zoom="3.0301352" objecttolerance="10" pagecolor="#ffffff" showgrid="false">
	</sodipodi:namedview>
<desc  id="desc5">This was produced by version 4.2 of GNU libplot, a free library for exporting 2-D vector graphics.</desc>
<defs>
	<rdf:RDF>
		<cc:Work  rdf:about="">
			<dc:format>image/svg+xml</dc:format>
			<dc:type  rdf:resource="http://purl.org/dc/dcmitype/StillImage"></dc:type>
		</cc:Work>
	</rdf:RDF>
	<bar:data  content="-8.64" name="coronalcoord"></bar:data>
	
		<bar:data  content="{&apos;ReferenceHeight&apos;: 900, &apos;ReferenceWidth&apos;: 1200, &apos;imageSize&apos;: (1200, 900)}" name="rendererConf">
		</bar:data>
	
		<bar:data  content="{&apos;DumpEachStepSVG&apos;: False, &apos;DumpEachStepPNG&apos;: False, &apos;GrowDefaultBoundaryColor&apos;: 200, &apos;CacheLevel&apos;: 5, &apos;NewPathIdTemplate&apos;: &apos;structure%d_%s_%s&apos;, &apos;PoTraceConf&apos;: {&apos;potrace_accuracy_parameter&apos;: &apos;0.001&apos;, &apos;potrace_width_string&apos;: &apos;1200pt&apos;, &apos;potrace_svg_resolution_string&apos;: &apos;300x300&apos;, &apos;potrace_height_string&apos;: &apos;900pt&apos;}, &apos;DetectUnlabelled&apos;: True, &apos;DumpVBrain&apos;: False, &apos;DumpWrongSeed&apos;: True, &apos;DumpDirectory&apos;: &apos;.&apos;, &apos;MinFiterTimesApplication&apos;: 3, &apos;RegionAlreadyTraced&apos;: 100, &apos;UnlabelledTreshold&apos;: 500}" name="tracingConf">
		</bar:data>
	<bar:data  content="0.0176211454,-9.5150660793,0.0176211454,-1.5355884426" name="transformationmatrix"></bar:data>
</defs>
<g id="content">
	<path class="st0" d="M2292,1162.5c-8.6-64.9-47-169.1-91.1-248c-30.1-54-92.2-120.2-173-185.1c-44.4-35.6-77-57-138.1-90.5
		c-54.5-29.9-97.8-46-149.9-55.4c-23.3-4.3-35.7-5.6-60.3-6.1c-47.7-1.1-107.9,6.2-151.9,18.3c-12.7,3.5-13.1,3.7-33,13
		c-42.8,20-68.3,39.1-83.8,62.4c-10,15.3-13.9,29.7-13.1,47.9c0.6,13.1,3.2,23,9.6,36c12.1,24.7,30.5,44.5,71.1,76
		c21,16.3,25.8,20.8,22.2,20.8c-0.7,0-5.3-2.3-10.2-5c-18.9-10.7-41.3-21.2-55.4-25.9c-28-9.4-65.6-5.1-98.7,11.3
		c-16.1,7.9-91.6,58.8-135,90.9c-17.6,13-21,15.2-26.5,15.4l5.1,1358.9c2.2-0.7,4.1-1.8,6.4-3.8c4.3-3.8,5-7.7,2.3-12.5
		c-1.1-2.1-1.8-3.9-1.5-4.1c0.3-0.3,4.5,0.1,9.4,0.8c26.4,3.9,107.3,8.4,134.9,7.5c29.5-0.9,62.4-8.9,103-25.1
		c36.6-14.6,65.4-32,132.8-79.9c22.5-16.1,39.5-29.4,66.4-52.1c16.6-13.9,19.5-16.1,25.2-18.2c16.6-6.1,43.8-19.6,81.1-40.4
		c34.6-19.3,45.5-26.9,62.9-44.4c22.5-22.6,41-51.8,49.6-78.8c4.6-14.5,8.8-34.8,11.1-53.6c1.2-10.3,1.5-20.3,1.5-41.8
		c0-24.8-0.3-30-2-41c-4.5-28.7-14-58.9-24.8-78.9l-3.8-7l2.1-9.6c8.9-41.6,9.5-44.8,9.5-53.8c0-7.7-0.4-10.2-2.9-17.6
		c-7.3-21.5-21.1-35.5-35-35.3c-7.7,0.1-16.8,4.9-25.7,13.9c-3.9,3.9-7.4,7-7.8,7c-1.8,0-2.1-5.8-1.3-31c1.3-41.6,0.9-65.9-1.3-85
		c-3.6-30.6-3.9-31.5-17.5-60.1c-10.6-22.1-10.9-23.6-11-46.7c0-18.8,1.9-44.6,3.2-44.6c0.4,0,3.5,2.1,6.8,4.7
		c12,9,26.6,14.6,33.1,12.4c4-1.4,7.7-5.7,7.7-9.1c0-10.2-22.2-28.3-38.7-31.5c-6.1-1.2-5.8-0.2-3.5-11.2c1.4-7.3,2.1-41.8,0.9-57.6
		c-2.8-39-7.3-79.8-11.3-103.1c-2.6-14.5-2.6-15.2-1.1-15.2c0.5,0,3.2,5.8,5.9,12.9c10.5,28,28.6,67,36.1,78.1
		c2.2,3.2,11.9,16.7,21.6,30.1c31.3,43.2,42.9,60.5,53.7,80.2c8.8,15.9,12.2,25.7,26.8,75.5c20.1,68.9,29.3,96.2,39.6,116.5
		c4.7,9.4,14.7,23.8,24,34.7c28,32.8,68.6,59.4,105.5,69.4c36,9.7,64.8,6.6,93.1-10.1c19.4-11.5,40.5-32.8,56.3-57.1
		c6-9.3,13.9-23.8,17.1-31.1c7.2-16.7,23.8-58.1,26.8-67.1c7.8-22.5,14.5-56,16.9-84.8c1.1-12.6,2.4-16.8,14.6-45.8
		c12.2-29.3,14.9-41,17.1-74.2C2297.4,1252.8,2295.3,1186.4,2292,1162.5z M1748.8,1092.6c-5.5,6.8-10,16.4-11.7,25.3
		c-0.9,4.3-1.9,7.3-2.5,7.3c-0.6,0-1.6-2.4-2.3-5.6c-1.6-8.5-10.3-39.4-14.4-51.6c-2-5.9-3.6-11.4-3.6-12.3c0-2.6,2.1-1.8,4.8,1.8
		c7.5,10,22.1,22.8,30.6,26.8c1.8,0.9,3.3,2,3.3,2.4C1753,1087.1,1751.1,1089.8,1748.8,1092.6z"/>
	<path class="st0" d="M1241,776.6c-14.9-14.3-35.1-20.4-66.8-20.3l0.5,135.3c12.4,0,14.5-0.3,21.5-2.4c10.2-3.2,22.6-9,32-15.3
		c14.4-9.4,29.6-24.8,34.5-34.7C1271.4,821.4,1263.3,797.9,1241,776.6z"/>
	<path id="structure3_label138_vBrain" bar:growlevel="0" bar:type="" class="st0" d="M1796.7,1295.2c-2,0.9-4.5,2.6-5.6,3.8
		c-4.9,5.3-6.2,15.1-3.1,22.1c3.5,7.6,12.6,13.8,20.3,13.8c7.5-0.1,14.9-6.7,16.7-14.7c1.7-7.4-0.5-13.9-6.6-19.9
		C1811.6,1293.6,1804.1,1291.8,1796.7,1295.2z"/>
	<path id="structure5_label138_vBrain" bar:growlevel="0" bar:type="" class="st0" d="M1807.4,1527.8c-6,2.7-8.7,9.2-6,14.7
		c2.1,4.2,5.3,6.6,10,7.2c2.3,0.4,3.8,1,3.8,1.7c0,0.7-0.4,1.3-0.7,1.3s-1.4,1.2-2.3,2.6c-3.2,5.6-0.9,12.9,5,15.7
		c5.3,2.5,9.5,1.5,14.1-3.4c2.3-2.4,2.8-7.1,1.3-12.2c-0.5-2.2-0.4-2.4,2.5-3c4.3-0.8,7.8-5,7.8-9.4c0-3.9-1.8-6.8-5.4-8.6
		c-3.5-1.8-6.2-1.7-9.7,0.4c-3.9,2.3-4.1,2.3-5.8-1.4c-1.1-2.2-2.7-3.7-5.4-4.9C1812.2,1526.3,1811.1,1526.2,1807.4,1527.8z"/>
	<path id="structure105_label100_ECIC" bar:growlevel="0" bar:type="" class="st1" d="M1458.7,833.7c0,0.4,3.3,4.7,7.5,9.2
		c33.2,37,70,93.5,96,147.6c24.4,50.8,44.7,110.9,53.6,158.6c7.7,41.9,6.3,75.2-4.8,106.1c-3.8,10.6-25.3,54.1-34,68.7
		c-11.9,19.9-29.1,40.1-42,49.3c-2.8,2-5.1,4.1-5.1,4.6c0,0.4,3.8,1.8,8.4,2.9c25.8,6,44.2,6,68.6-0.3c42.6-10.9,99-44.1,136.3-80.1
		l10.2-9.9l-0.5-9.9c-4.8-78.4-13.9-137.4-29.9-193.1c-8.9-31.3-15.3-46.4-26-61.6c-27-38.4-49.1-60.3-107.6-107.1
		c-63.2-50.5-75.9-59.3-113.5-79C1463.3,833,1458.7,831.4,1458.7,833.7z M1548.7,895.1c27.4,21.8,84.8,76.9,99.1,95
		c32.9,41.7,50.4,79.6,56.5,122.4c7.1,50,3.3,117.3-9,160.1c-5.1,17.8-10.9,29.1-16.9,33.1c-3.9,2.6-4.8,2.6-7.9-0.1
		c-2.3-2.1-2.5-2.6-2.3-8.4c0.1-3.3,2.2-16.6,4.7-29.5c5.6-28.8,7.6-41.5,10-61.2c5.5-47.6,4.6-80.9-3.1-111.6
		c-4-16.1-8.2-26.9-17.6-46c-15.2-30.9-28-47.2-90.2-115.4c-40.6-44.6-51.9-57.3-51.9-58.9C1519.9,873.8,1538.1,886.6,1548.7,895.1z
		"/>
	<path id="structure110_label108_v" bar:growlevel="0" bar:type="" class="st2" d="M1795.5,1295.9c-8.1,4-11.4,16.6-6.8,25.7
		c2.1,4.1,6.5,8.6,10.6,10.7c5.3,2.7,14.4,2.1,19-1.4c11.4-8.7,7.6-29.4-6.5-35.4C1807.8,1293.9,1799.1,1294.1,1795.5,1295.9z"/>
	<path id="structure111_label109_4n" bar:growlevel="0" bar:type="" class="st3" d="M1750,1338.6c-0.5,1.7-3.2,18.3-3.2,20.1
		c0,1.8,8.5,8.6,16,12.9c11.5,6.5,21.8,8.2,27.2,4.5c6.9-4.7,5.7-11.5-4-21c-9.4-9.2-21.9-16.1-31.1-17.2
		C1751.5,1337.5,1750.2,1337.7,1750,1338.6z"/>
	<path id="structure112_label110_a" bar:growlevel="0" bar:type="" class="st4" d="M1806,1528.9c-3.2,1.7-5.2,5.7-5.2,10.3
		c0,3,0.5,4.2,3.1,6.8c2.6,2.6,3.7,3.1,7.3,3.1c11.1,0,16.1-11.3,8.1-18.7c-2.5-2.3-3.9-2.9-6.9-2.9
		C1810.1,1527.6,1807.3,1528.1,1806,1528.9z"/>
	<path id="structure113_label111_a" bar:growlevel="0" bar:type="" class="st4" d="M1817,1551.1c-3.7,1.9-5.8,5.6-5.8,10.2
		c0,3.7,0.4,4.6,3.2,7.3c2.9,2.5,4,3,7.9,3c4,0,5-0.4,7.6-3.1c2.6-2.6,3.1-3.7,3.1-7.5c0-2.5-0.6-5.2-1.4-6.4
		C1828.7,1550.4,1821.7,1548.7,1817,1551.1z"/>
	<path id="structure114_label112_a" bar:growlevel="0" bar:type="" class="st4" d="M1827.1,1535.1c-2.9,2.1-4.2,6.9-3,10.8
		c1.3,4.2,4,5.8,9.3,5.8c4.8,0,8.2-2.4,9.3-6.7c0.8-3.2-0.3-6.6-2.8-9.2c-1.7-1.7-3.2-2.2-6.5-2.2
		C1831,1533.8,1828.2,1534.4,1827.1,1535.1z"/>
	<path class="st5" d="M1819.7,1611.3c-3.6-2.1-5.1-2.4-11.3-2.4c-8.3,0-13.2,2.1-20.9,8.6c-12,10.4-15.9,17.2-37.6,65.2
		c-5.8,12.9-13.7,30.2-17.6,38.7c-7.6,16.5-10.4,25.7-13.9,44.5c-4.3,23.9-5.1,40.2-2.7,58.1c1.8,13,2,30.3,0.4,38.3
		c-1.6,8.3-4.7,15.5-13.6,31.9c-4.3,7.9-12.2,22.5-17.6,32.4c-12.2,22.8-13,24-21.1,30.7c-3.6,3.1-7.4,6.8-8.3,8.1
		c-0.9,1.4-4,10.9-6.9,21.1c-10.8,37.1-28.1,95.1-30.1,101.3c-5.2,14.8-9.6,22.1-15.2,24.5c-1.9,0.8-3.4,2-3.4,2.4
		c0,2.3-5.5,12.2-9,16.1c-7.6,8.6-19.7,15.6-50.3,28.9c-23.8,10.4-36.2,15.2-40.9,15.7c-3.5,0.4-6.2,1.6-12.6,5.8
		c-10.4,6.8-34.6,18.6-45.1,22.1c-8.6,2.8-14.9,4.3-32.9,7.8c-6.2,1.2-19.9,4.6-30.5,7.6c-10.6,3-19.8,5.4-20.5,5.4
		c-1.5,0-1.5,2.3,0.1,3.6c2.6,2.1,4.4,8.7,3.9,13.9c-0.6,6.6-4.5,14.4-8.2,16.6c-7.3,4.5-22.9,6.1-46,4.7
		c-22.5-1.5-47.1-5.6-89.1-15c-23.7-5.3-27-6.4-30.1-9.9l-2.5-2.8l-0.5-62.9c-0.5-67.6-2.1-150.8-3.2-182.2c-0.5-15.2-1-20-2.2-22.2
		c-0.5-0.9-1-1.7-1.6-2.4l1.2,308.1l7.3,1.2c32,5.4,130,11,154.3,8.7c45-4.2,106.4-26.2,151-54c31-19.4,86-58.1,110-77.1
		c12.4-10,39.7-32.6,43.4-36c1.1-1,1.1-1.7,0.1-4.8c-1-3.1-0.9-4.7,0.4-11.3c2.3-11.1,7.7-27.8,15.9-48.3
		c16.2-40.7,25.8-61.3,31.7-67.9c2.5-2.9,3-3.1,6.8-2.5l4.1,0.4l14.6-24.5c18.2-30.8,23.4-40.1,39.2-70.5
		c28.3-54.2,58-117.7,70-149.8c5.8-15.4,16.1-64.5,16.1-76.8C1844.8,1641.1,1833.9,1619.6,1819.7,1611.3z"/>
	<path id="structure116_label114_s5" bar:growlevel="0" bar:type="" class="st6" d="M1829.6,1735.6c-9.2,25.1-27.5,65.2-56.1,122.1
		c-23.6,47.3-34.6,67.4-55.3,101.9c-8.4,13.9-13.9,23.9-13.9,25.4c0,1.3-2.6,8.7-5.8,16.5c-6.4,15.6-16.5,42.3-25.4,67.1
		c-7,19.4-9.8,25.7-14.7,32.8c-2,3.1-3.7,5.9-3.7,6.6c0,4,29.7-9.5,74.7-34.1c22.5-12.2,36-22.5,55.8-42.4
		c36.6-36.7,59-77.9,74.3-137.3c3.9-14.9,4-15.8,4.5-33.8c1.4-45.3-6.7-87-23.7-122.6c-3.3-7-5.6-10.6-6.5-10.6
		C1833.1,1727.3,1831.7,1729.9,1829.6,1735.6z"/>
	<path id="structure117_label115_m5" bar:growlevel="0" bar:type="" class="st7" d="M1716.3,1745.4c-11.7,16.3-24.6,40-32.4,59.8
		c-9.4,23.5-18,57-23.6,91.4c-4,24.9-6.8,66.4-4.5,66.4c0.5,0,4.3-2.7,8.2-5.9c8.4-6.9,7.4-5.4,31-49.2c12.3-23,18-34.6,19.3-39.3
		c3-10.5,3.2-24.2,0.9-44.8c-1.7-15.4-1.8-18.8-0.9-29.3c1.2-14.8,3.9-31.2,7.3-44.7c3.1-12.1,3-11.7,1.3-11.7
		C1722.3,1738.1,1719.3,1741.4,1716.3,1745.4z"/>
	<path id="structure118_label116_ll" bar:growlevel="0" bar:type="" class="st8" d="M1749.4,1517.5c0,0.5,1.3,5.7,3.1,11.6
		c6.7,23,6.3,35-1.5,50c-9.5,18.3-40.6,31.4-62.2,26.4c-17.3-4.1-34-18.6-44.2-38.6c-3.9-7.4-6.1-8.8-7.1-4.5
		c-0.3,1.4-0.8,7.4-1.1,13.3c-1.4,26.6,5.2,55.5,16.9,73c4.3,6.4,12.7,14.8,14.9,14.8c0.5,0,2-2.2,3.2-4.8c3.3-7.3,9.5-14.8,22-26.8
		c14.5-13.9,23.4-21.1,30.6-24.5c5-2.3,6.4-2.6,11.7-2.3c12.8,0.9,20.9,8.9,20.9,20.7c0,4.1-3.7,22.1-6.8,32.9
		c-3.1,11.2-8.5,21.7-13.3,26.1c-6.3,5.8-8.8,6.2-25.5,3.8c-17.4-2.4-26-4.6-33.4-8.2c-3.2-1.5-5.9-2.6-6.2-2.3
		c-0.3,0.3,0.1,3.5,0.7,7.1c1.7,9.4,1.4,29.3-0.5,37.1c-2.3,9.5-6.4,17-12,22.1c-2.7,2.5-5.2,4.5-5.6,4.5c-0.5,0-1,3.6-1.3,8.1
		c-1.1,15-6.2,33.1-15.2,53.8c-2.4,5.6-5.7,13.7-7.1,17.9c-1.5,4.3-3.8,10.1-5,12.8c-1.8,3.9-2.3,6.8-2.5,12.2
		c-0.2,4-0.7,8.3-1.3,9.6c-0.6,1.7-0.6,4.8-0.1,9.9c1.5,13.1,0.8,35.4-1.9,59.8c-0.9,8.8-0.9,9.5,1.1,13.5c6.8,14-0.7,58.6-14.9,89
		c-8.4,17.9-14.6,24-37.1,36.6c-3.6,2-6.6,4.1-6.6,4.7c0,0.5,3.2,1.6,7,2.4c18.5,3.8,30,14,31.4,28.1c0.6,5.9,1.5,6.3,6.2,2.2
		c7.3-6.4,10.7-16.5,42.8-127.2l4.4-15.3l0.9-20c1.3-30.1,4.9-55.7,12.6-89.3c7.3-31.2,13.1-48.2,25.1-72.5
		c9.1-18.4,16.9-31.2,27.8-45.7c8.8-11.9,8.1-10.5,24.4-46.5c7-15.6,16.2-35.5,20.4-44.1l7.6-15.8l-1.1-9.9
		c-0.9-8.2-0.8-15.4,0.4-41.4c1.3-25.3,1.4-34.2,0.6-45.3c-0.5-7.7-1-14.3-1-15c0-0.7-1.9-1.3-5.4-1.7c-3-0.4-7.4-1.2-9.7-1.9
		C1752,1516.5,1749.4,1516.3,1749.4,1517.5z"/>
	<path id="structure119_label117_rs" bar:growlevel="0" bar:type="" class="st9" d="M1583.4,1812c-10.5,3.7-22.1,13.3-29.2,24.1
		c-5,7.9-6.8,13.5-6.8,22.1c0,6.5,0.3,7.7,3.1,12.9c5,9.1,13,14.7,24,16.4c17.9,2.9,38-5.7,45.2-19.3c2.3-4.1,2.4-5.3,2.3-14.8
		c-0.1-8.7-0.4-11.5-2.5-17.9c-3.1-9.3-5.5-13.3-10.7-17.5C1600.4,1811,1591.9,1809,1583.4,1812z"/>
	<path class="st10" d="M1189.6,2285.9c0-4.7-2.1-7.8-6.7-10c-0.8-0.4-1.8-0.7-3.1-0.9l0.1,21.8c2.5-0.8,4.9-2.1,6.7-3.9
		C1189.1,2290.5,1189.6,2289.3,1189.6,2285.9z"/>
	<path class="st11" d="M1238.1,1710c-2.6-6.5-2.9-6.9-6-7.5c-4.8-0.8-11.9-4.3-15.6-7.6c-4-3.4-7.9-11-7.9-15c0-2.7-0.3-3-3.8-3.5
		c-12.7-2.1-21.2-10.7-22.8-23.6c-0.8-5.7,0.8-13.5,3.3-16.2c1.8-1.9,2-4,3.7-37c1.8-34.1,1.8-35.2,0.2-43.7
		c-3-15.8,0.1-27.6,9.2-35.6c4.1-3.6,17.3-10.8,19.8-10.8c0.8,0,4.2-2.8,7.6-6.3c5.8-5.9,6.2-6.6,6.2-10.2c0-4.8-1.2-6-5.6-6
		s-11.6,2.7-21.2,8.2c-10.6,6-18.6,8.6-28.1,9.2l0.7,182.8c1.7,0.2,3.4,0.6,5,1.1c4.9,1.6,9.1,6,10.4,10.7c0.5,2.1,0.5,6.1,0.1,11.1
		c-2.6,25.3-3.2,88-1.1,126.6c1.4,26.5-4.5,76.1-10.2,84.8c-0.9,1.3-2.1,2.4-3.4,3.2l0.1,16.5c3.2,3.7,7.9,5.7,13.7,5.7
		c2.6,0,9.3,0.5,14.9,1.1c9.3,0.9,10.3,0.9,13.5-0.7c6.7-3.2,6.8-4,8.2-27.6c1.3-23.4,2.1-30.9,5.3-50.1c5.5-33,8.9-61.1,10.8-88.6
		C1247.6,1743.4,1246.3,1731.3,1238.1,1710z"/>
	<path id="structure122_label120_MPB" bar:growlevel="0" bar:type="" class="st12" d="M1401.6,1541.6c-2,1.3-5.5,3.5-7.7,4.8
		c-5.5,3-11.6,8.6-11.6,10.5c0,0.9,2,5.1,4.3,9.4c12.2,22.6,33.9,43.5,54.1,52c8.9,3.8,20.6,6.5,27.3,6.1l5.5-0.3l3.7-7l3.7-7
		l-5.4-4.9c-10.9-10-19.5-16.3-35.6-26c-17.8-10.7-27.9-19.1-30.7-25.2c-1.1-2.3-1.7-5.8-1.7-9.3
		C1407.4,1538.3,1406.9,1538,1401.6,1541.6z"/>
	<path id="structure125_label121_mlf" bar:growlevel="0" bar:type="" class="st13" d="M1186.3,1635.8c-3.9,2.9-5.1,14.8-2.4,23.8
		c2.8,9.4,12.3,16.3,22.8,16.3c3.9,0,4.8-0.4,6.8-2.9c2.3-2.8,2.4-3.1,1.8-9.7c-1.1-10.7-0.9-17.4,0.4-20.4c0.7-1.6,1.1-3.2,0.7-3.4
		c-1.3-1.4-13.8-4.1-20.5-4.6C1189.7,1634.5,1187.9,1634.7,1186.3,1635.8z"/>
	<path class="st14" d="M1238.1,1710c-2.6-6.5-2.9-6.9-6-7.5c-4.8-0.8-11.9-4.3-15.6-7.6c-4-3.4-7.9-11-7.9-15c0-2.7-0.3-3-3.8-3.5
		c-12.7-2.1-21.2-10.7-22.8-23.6c-0.8-5.7,0.8-13.5,3.3-16.2c1.8-1.9,2-4,3.7-37c1.8-34.1,1.8-35.2,0.2-43.7
		c-3-15.8,0.1-27.6,9.2-35.6c4.1-3.6,17.3-10.8,19.8-10.8c0.8,0,4.2-2.8,7.6-6.3c5.8-5.9,6.2-6.6,6.2-10.2c0-4.8-1.2-6-5.6-6
		s-11.6,2.7-21.2,8.2c-10.6,6-18.6,8.6-28.1,9.2l0.7,182.8c1.7,0.2,3.4,0.6,5,1.1c4.9,1.6,9.1,6,10.4,10.7c0.5,2.1,0.5,6.1,0.1,11.1
		c-2.6,25.3-3.2,88-1.1,126.6c1.4,26.5-4.5,76.1-10.2,84.8c-0.9,1.3-2.1,2.4-3.4,3.2l0.1,16.5c3.2,3.7,7.9,5.7,13.7,5.7
		c2.6,0,9.3,0.5,14.9,1.1c9.3,0.9,10.3,0.9,13.5-0.7c6.7-3.2,6.8-4,8.2-27.6c1.3-23.4,2.1-30.9,5.3-50.1c5.5-33,8.9-61.1,10.8-88.6
		C1247.6,1743.4,1246.3,1731.3,1238.1,1710z"/>
	<path id="structure12_text7646_Pn" bar:growlevel="0" bar:type="" class="st15" d="M1186,2204.4c0,27.3,0.1,29.3,1.8,32
		c0.9,1.6,2.9,3.4,4.2,4.1c5.5,2.9,66,15.7,91.6,19.5c24.5,3.6,58.1,3.4,67.3-0.4c6.1-2.5,9.7-8.9,10.3-18.1
		c0.8-12.5-1.9-15.9-14.7-18.4c-12.5-2.4-42.1-10.4-84.6-22.5c-40-11.5-41.3-12.2-40.2-17.6c0.5-2.4,0.4-2.4-3.1-1.9
		c-1.9,0.3-6.8,0.7-10.7,1.1c-6.3,0.5-7.8,0.4-11.9-1.4c-2.5-1.1-5.3-2.7-6.2-3.7C1186.1,2172.9,1186,2173.8,1186,2204.4z"/>
	<path id="structure131_label128_Me5" bar:growlevel="0" bar:type="" class="st16" d="M1404.9,1507.4c0.2,2,0.7,2.5,2.5,2.5
		c1.8,0,2.3-0.5,2.5-2.5c0.3-2.2,0-2.4-2.5-2.4C1404.9,1505,1404.6,1505.2,1404.9,1507.4z"/>
	<path id="structure132_label129_CnFI" bar:growlevel="0" bar:type="" class="st17" d="M1590.9,1467.5c-0.2,0.3-13.3,0.9-29.2,1.4
		c-82.1,2.8-76.2,2.4-81.7,4.5c-5.5,2.1-8.7,5.3-8.7,8.6c0,2,0.4,2.2,4.8,2.2c2.5,0,10.3,1,17,2.3c22.6,4.1,37.3,5.2,62.8,5.3h23.9
		l8.5-3.7c4.7-2,11-4.4,14-5.3c7.1-2.2,9.4-4.2,9.4-8.6c0-5.5-2.9-7.1-12.6-7.1C1594.8,1467.2,1591.1,1467.3,1590.9,1467.5z"/>
	<path id="structure133_label130_CnFV" bar:growlevel="0" bar:type="" class="st18" d="M1468,1487c-1.6,1-3,2.3-3,2.9
		s2.2,2.1,4.8,3.1c2.5,1.1,15.6,6.8,28.9,12.9c22.5,10.1,24.5,10.8,26.8,9.8c4.4-1.8,24-0.5,33.4,2.3c4.3,1.3,8.2,2.3,8.5,2.3
		s1.3-2.5,1.9-5.5c1.2-6,4.4-13.9,7.3-17.9c1-1.3,1.8-2.9,1.8-3.4s-10.5-1.1-27.2-1.4c-27.4-0.4-36-1.3-57.8-5.1
		C1480.4,1484.6,1471.8,1484.6,1468,1487z"/>
	<path class="st19" d="M1190.4,1693.6c-2.5-3.2-7.4-5.3-12.8-6.2l0.9,237.2c3.9-2.8,6.1-9.9,8.7-25.6c4.9-29.5,5.6-47.7,3.4-85.4
		c-1.3-21.6-0.3-75.1,1.7-99.7C1193.5,1700.7,1193.1,1697.1,1190.4,1693.6z"/>
	<path id="structure136_label133_vsc" bar:growlevel="0" bar:type="" class="st20" d="M1638.7,1661.2c-5.8,0.7-8.1,2.2-8.1,4.8
		c0,1.4,2.1,6.3,4.5,11.2c7.6,14.5,12.4,31.4,15.8,55.1c2.2,15.6,2.3,15.8,3.7,15.8c2.3,0,9-7,11.9-12.3c4.1-7.7,5.6-14.7,6.2-27.7
		c0.7-16.7-1.9-34.3-6-40.1c-3-4.1-8.9-6.5-17.4-6.8C1645.2,1660.9,1640.4,1661,1638.7,1661.2z"/>
	<path id="structure137_label134_m5" bar:growlevel="0" bar:type="" class="st7" d="M1694.2,1984c-5.4,5.8-18.4,33.8-33.6,72.6
		c-9.2,23.5-14.7,42.5-14.7,51c0,4.1,0.3,4.8,1.7,4.8c2.7,0,10.4-9.4,14.8-18c2.2-4.2,6-13.5,8.6-20.7c8-22.5,24.3-65.7,28.4-75.3
		c4.5-10.5,5-13.9,2-15.9C1698.7,1980.4,1697.3,1980.7,1694.2,1984z"/>
	<path id="structure138_label135_tz" bar:growlevel="0" bar:type="" class="st21" d="M1856.6,1907c-3.2,12-11.3,34-16.5,45.5
		c-14.5,31.8-31.3,55.9-56.6,81.1c-7.9,7.8-14.3,14.6-14.3,15.1c0,6.6,37-26,51.3-45.3c19.7-26.4,30.7-50.5,36.8-80.4
		c3.7-18.1,4.3-23.9,2.7-23.9C1859.1,1899.2,1858,1901.9,1856.6,1907z"/>
	<path id="structure142_label140_tth" bar:growlevel="0" bar:type="" class="st22" d="M1208.9,2070.5c-2.5,0.6-6.5,2.2-8.6,3.5
		c-5.5,3.2-13.1,11.6-14.2,15.8c-0.5,2.2-0.7,11.5-0.3,26.5l0.5,23.2l3.7-0.5c10.8-1.5,25.9-6.5,54-17.9
		c21.8-8.7,46.4-16.9,57.8-19.3c10.6-2.2,33.8-4.6,43.1-4.6c9.2,0,9-1.6-0.8-5.3C1305.1,2077.2,1230.2,2065.3,1208.9,2070.5z"/>
	<path id="structure143_label141_ml" bar:growlevel="0" bar:type="" class="st23" d="M1334.4,2098.1c-33,2.4-48.3,6.5-96.7,25.7
		c-24.6,9.8-39,14.5-47,15.4l-4.8,0.6v16.8v16.9l3.3,2.9c11.2,9.9,23.8,8.1,63.5-9c16.3-7,41.9-19.7,52.9-26.3
		c4.7-2.8,13.2-8.7,18.9-13.2c12.6-9.8,22-15.6,31.7-19.5c4.1-1.6,7.6-3.6,7.7-4.3c0.2-0.7-1.2-2.3-2.9-3.7
		C1357.4,2097.4,1350.7,2096.9,1334.4,2098.1z"/>
	<path id="structure144_label142_lfp" bar:growlevel="0" bar:type="" class="st24" d="M1363.5,2106.2c-6.8,1.8-18.5,7.3-25.3,12
		c-2.3,1.5-9,6.5-14.9,11c-18.7,14.3-46.5,29-84.2,44.2c-7.2,2.9-14,6.1-15,7.3c-2.8,2.7-2.7,6.1,0.2,8c4,2.6,91.9,27.4,117.9,33.2
		c13.4,3.1,14.6,2.9,38.3-4c29.7-8.6,39-12.8,48.3-22c5.2-5.1,11.9-17.1,11.9-21.4c0-5.2-2.1-12.3-6.3-21.2
		c-11.9-25.1-30.4-43.2-48.7-47.5C1378.2,2103.9,1371.5,2104.1,1363.5,2106.2z"/>
	<path id="structure148_label146_scp" bar:growlevel="0" bar:type="" class="st25" d="M1426.5,1516c-1.1,0.6-3.5,3.3-5.3,6
		c-1.7,2.7-4.7,6.6-6.6,8.5c-9,9.5-9.4,20.2-1.2,29.3c5,5.7,11.3,10.2,28.2,20.3c14.8,8.9,19.9,12.5,30.3,21.8
		c4.1,3.6,7.9,6.6,8.6,6.6c1.3,0,3.5-5,18.5-41.8l9.5-23.3l-3.6-3c-9.9-8.4-20.9-12.9-51.3-21.1
		C1436.4,1514.8,1430.2,1514.1,1426.5,1516z"/>
	<path id="structure149_label147_4n" bar:growlevel="0" bar:type="" class="st3" d="M1410.5,1456.3c-7.7,4.7-9,23.5-2,29.3
		c2.3,2,3.5,2.3,9.5,2.3c9.1-0.1,14-2.2,16-6.9c3.1-7.3-1.4-16.9-10.8-23.8C1419.1,1454.1,1414.5,1453.8,1410.5,1456.3z"/>
	<path class="st26" d="M1414.5,1389.6l-1-6.9l-6.9-2.3c-10.5-3.5-50.7-14.9-52.3-14.9c-1.3,0-1.6,1.4-2.2,7.2
		c-1.2,13.7-5.4,23.2-14.5,32.5c-10.4,10.5-23.8,18.1-55,31c-40.2,16.7-60.5,28.1-77.4,43.9c-10.2,9.5-19.2,14.6-28.3,15.5l0,8.2
		c10.6-0.6,15.4-2.2,29.1-9.5c16.6-8.7,23.4-9.9,25.9-4.2c1.5,3.2,0.4,6-4.1,11.2c-2.3,2.4-4.1,4.9-4.1,5.5c0,0.7,2.1,0.9,7,0.4
		c6.2-0.4,11.5,0,20.8,2l3.1,0.6l-0.5-5.3c-1.5-15,7.8-32.8,20.9-39.4c11.7-6,21.8-6.2,37.5-1c18.5,6.1,38.8,17.8,47.1,27.1
		c5.6,6.4,7.1,10.1,12.8,32.8c6.5,25.4,8.1,30.6,9.5,30.6c2.9,0,21-20,21-23.1c0-0.5-1.3-1.2-2.7-1.5c-3.1-0.5-4.3-2.7-3-4.9
		c1.3-2.2,3.6-2.3,5.4-0.2c0.8,1.1,2.1,1.9,2.6,1.9c1.3,0,6.7-11.8,6.7-14.5c0-1.6-0.4-1.9-2.7-1.4c-4.6,1-7.2-3.6-3.3-6
		c2-1.3,4.6,0.3,4.9,3c0.9,5.7,4.7-2.4,4.7-10c0-2.5-0.2-2.7-2.4-2.3c-4.8,0.9-6.9-1.9-4.6-5.7c0.8-1.3,0.9-2.2,0.3-3.1
		c-4.3-5.8-4.5-6.4-4.8-13.6c-0.3-6.1,0-7.8,1.8-11.3c2.8-5.5,7.2-8.4,11.7-7.7c3.3,0.6,3.4,0.5,3.4-2
		C1420.9,1442.3,1417.7,1410.4,1414.5,1389.6z"/>
	<path class="st11" d="M1238.1,1710c-2.6-6.5-2.9-6.9-6-7.5c-4.8-0.8-11.9-4.3-15.6-7.6c-4-3.4-7.9-11-7.9-15c0-2.7-0.3-3-3.8-3.5
		c-12.7-2.1-21.2-10.7-22.8-23.6c-0.8-5.7,0.8-13.5,3.3-16.2c1.8-1.9,2-4,3.7-37c1.8-34.1,1.8-35.2,0.2-43.7
		c-3-15.8,0.1-27.6,9.2-35.6c4.1-3.6,17.3-10.8,19.8-10.8c0.8,0,4.2-2.8,7.6-6.3c5.8-5.9,6.2-6.6,6.2-10.2c0-4.8-1.2-6-5.6-6
		s-11.6,2.7-21.2,8.2c-10.6,6-18.6,8.6-28.1,9.2l0.7,182.8c1.7,0.2,3.4,0.6,5,1.1c4.9,1.6,9.1,6,10.4,10.7c0.5,2.1,0.5,6.1,0.1,11.1
		c-2.6,25.3-3.2,88-1.1,126.6c1.4,26.5-4.5,76.1-10.2,84.8c-0.9,1.3-2.1,2.4-3.4,3.2l0.1,16.5c3.2,3.7,7.9,5.7,13.7,5.7
		c2.6,0,9.3,0.5,14.9,1.1c9.3,0.9,10.3,0.9,13.5-0.7c6.7-3.2,6.8-4,8.2-27.6c1.3-23.4,2.1-30.9,5.3-50.1c5.5-33,8.9-61.1,10.8-88.6
		C1247.6,1743.4,1246.3,1731.3,1238.1,1710z"/>
	<path id="structure155_label163_mlf" bar:growlevel="0" bar:type="" class="st13" d="M1321.5,1605.3c-24.8,7.4-86.8,29.9-87.6,31.9
		c-0.9,2.3,15.5,15.4,21.3,16.9c2.8,0.7,15-3,33-10.1c19.6-7.7,22.8-9.4,28.3-15.5c6.7-7.5,15.3-20.5,15.3-23.2
		C1331.8,1602.5,1330.9,1602.5,1321.5,1605.3z"/>
	<path class="st27" d="M1244.7,1077.8c-7-14-17.5-37.8-24.4-55.3c-6.5-16.4-9.1-19.5-18.5-22.4c-7.7-2.4-17.5-3.9-26.7-4.1l0.1,23.2
		c1.8,0.5,3.5,1.8,4.8,4.1c1.4,2.4,1.9,5.7,2.5,16.6c1.1,20.1,0.9,19.8,13.1,27.7c11.2,7.2,23.2,21,32.4,37.3
		c2.3,4.2,4.8,7.7,5.3,7.7c1.1,0,15.7-20.1,16.3-22.5C1249.9,1089.3,1247.7,1083.7,1244.7,1077.8z"/>
	<path id="structure157_label166_me5" bar:growlevel="0" bar:type="" class="st28" d="M1422.1,1488.1l-4.6,0.9l-1.1,7.1
		c-1.9,13.2-7.7,27.4-15.8,39.2c-2.2,3.2-4,6-4,6.5c0,2.1,3.7,0.6,9.2-3.5c14.9-11.3,22.1-24.5,23-42.2c0.4-7.6,0.3-9.2-0.7-9
		C1427.3,1487.1,1424.7,1487.7,1422.1,1488.1z"/>
	<path class="st29" d="M1207.7,987.7c-5.3-16-11.2-39.2-12.7-50c-0.6-4.3-1.4-7.8-1.9-7.8c-0.4,0-3.2,1.6-6.3,3.6
		c-4.5,2.9-8.8,4.8-11.9,5.3l0.2,57.3c2.5,0,4.9,0.2,7.2,0.4c10,0.9,21.6,3.7,25,5.9c2.6,1.6,4.8,1.6,4.8,0
		C1212.1,1001.7,1210.2,995,1207.7,987.7z"/>
	<path class="st30" d="M1819.7,1611.3c-3.6-2.1-5.1-2.4-11.3-2.4c-8.3,0-13.2,2.1-20.9,8.6c-12,10.4-15.9,17.2-37.6,65.2
		c-5.8,12.9-13.7,30.2-17.6,38.7c-7.6,16.5-10.4,25.7-13.9,44.5c-4.3,23.9-5.1,40.2-2.7,58.1c1.8,13,2,30.3,0.4,38.3
		c-1.6,8.3-4.7,15.5-13.6,31.9c-4.3,7.9-12.2,22.5-17.6,32.4c-12.2,22.8-13,24-21.1,30.7c-3.6,3.1-7.4,6.8-8.3,8.1
		c-0.9,1.4-4,10.9-6.9,21.1c-10.8,37.1-28.1,95.1-30.1,101.3c-5.2,14.8-9.6,22.1-15.2,24.5c-1.9,0.8-3.4,2-3.4,2.4
		c0,2.3-5.5,12.2-9,16.1c-7.6,8.6-19.7,15.6-50.3,28.9c-23.8,10.4-36.2,15.2-40.9,15.7c-3.5,0.4-6.2,1.6-12.6,5.8
		c-10.4,6.8-34.6,18.6-45.1,22.1c-8.6,2.8-14.9,4.3-32.9,7.8c-6.2,1.2-19.9,4.6-30.5,7.6c-10.6,3-19.8,5.4-20.5,5.4
		c-1.5,0-1.5,2.3,0.1,3.6c2.6,2.1,4.4,8.7,3.9,13.9c-0.6,6.6-4.5,14.4-8.2,16.6c-7.3,4.5-22.9,6.1-46,4.7
		c-22.5-1.5-47.1-5.6-89.1-15c-23.7-5.3-27-6.4-30.1-9.9l-2.5-2.8l-0.5-62.9c-0.5-67.6-2.1-150.8-3.2-182.2c-0.5-15.2-1-20-2.2-22.2
		c-0.5-0.9-1-1.7-1.6-2.4l1.2,308.1l7.3,1.2c32,5.4,130,11,154.3,8.7c45-4.2,106.4-26.2,151-54c31-19.4,86-58.1,110-77.1
		c12.4-10,39.7-32.6,43.4-36c1.1-1,1.1-1.7,0.1-4.8c-1-3.1-0.9-4.7,0.4-11.3c2.3-11.1,7.7-27.8,15.9-48.3
		c16.2-40.7,25.8-61.3,31.7-67.9c2.5-2.9,3-3.1,6.8-2.5l4.1,0.4l14.6-24.5c18.2-30.8,23.4-40.1,39.2-70.5
		c28.3-54.2,58-117.7,70-149.8c5.8-15.4,16.1-64.5,16.1-76.8C1844.8,1641.1,1833.9,1619.6,1819.7,1611.3z"/>
	<path id="structure161_Unlabeled-2580-1057_Unlabeled" bar:growlevel="0" bar:type="" class="st29" d="M1871.4,1100
		c-2,0.4-6.2,1.2-9.5,1.8l-5.9,1.3l-13.5,13.1c-7.4,7.2-16.8,16.2-20.9,20c-4.1,3.8-7.5,7.5-7.5,8.2c0,0.7,1.4,2.6,3.2,4.1
		c7,6.1,18.5,10.2,34,11.8c24.3,2.5,32.5,4.7,47.5,12.2c11.3,5.7,17.7,10.1,26.2,18.3c13.4,12.8,20.5,26.1,32.6,61.2
		c11.2,32.6,33.1,108.8,45.2,156.9c9,36.1,13.6,48.6,22.4,61.9c8,12,20.3,20.6,41.8,29.3c17.1,6.9,25.4,8.7,41,8.8
		c12.5,0,14-0.2,20.7-2.5c4-1.4,9.4-3.7,12.1-5.3c6.4-3.6,16.7-13.4,21.2-20.2c1.9-2.9,4-5.7,4.4-6.1c0.5-0.5,1.4-2.2,2.1-3.6
		c0.5-1.5,3.1-7.2,5.5-12.6c12.1-26.7,17.8-49.8,23.6-96.3c3.3-27,4.9-36.6,7.4-45c2-6.9,6.1-15.6,8.5-17.9
		c1.8-1.9,2.5-0.4-12.1-24.8c-8.6-14.5-10.8-17.6-12.7-17.8c-1.3-0.2-4.1-1.8-6.3-3.5c-28.2-22.2-59.6-43.2-115.1-77
		c-14.6-8.8-33.8-20.7-42.6-26.4c-32.3-20.7-55-32.2-79.5-40.4C1923,1101.9,1886.2,1097.3,1871.4,1100z"/>
	<path class="st29" d="M1236.6,1270c-6.7-5.8-21.9-11.3-38-13.3c-5.5-0.7-14.2-1.2-22.6-1.3l0.2,64.2c10.3-0.1,20.2-0.5,26-1.3
		c27.7-3.7,40.1-12.8,41.1-30.2C1243.9,1279.7,1242,1274.7,1236.6,1270z"/>
	<path id="structure164_Unlabeled-2173-1553_Unlabeled" bar:growlevel="0" bar:type="" class="st29" d="M1499.8,1565
		c-12.1,29.4-17.8,43-18.7,43.3c-0.4,0.2-0.7,1-0.7,1.8c0,1.6-5.9,12.8-7.5,14.1c-1.4,1.3-4.2,9.4-4.2,12.4c0,8,6.5,12.6,17.5,12.7
		c7.8,0,10.7-1.4,18.2-8.7c6.4-6.2,4.9-6.1,18.8-1.3c10,3.6,19.4,4.6,36,4c17.3-0.7,23.8-1.9,23.8-4.1c0-0.9-4.8-6.8-10.5-13.1
		c-12.4-13.6-24.6-28.3-24.6-30c0-0.6-0.4-1.2-0.8-1.2c-0.9,0-8.6-10.7-22.1-30.6c-9.6-14.2-13.5-18.9-15.8-18.9
		C1508.1,1545.5,1505.4,1551.1,1499.8,1565z"/>
	<path id="structure166_Unlabeled-1821-1580_Unlabeled" bar:growlevel="0" bar:type="" class="st29" d="M1190.5,1569.8
		c0,4.1-2.4,50.7-3.1,59l-0.4,5.5l7.8,0.4c4.3,0.3,11.2,1.4,15.3,2.5c7.1,2,7.6,2.1,10.6,0.6c1.7-0.8,5.2-1.5,7.7-1.5
		c3.5,0,9.3-1.7,24.9-7.6c11.2-4.1,24.9-9.1,30.4-11c5.6-2,10.2-3.8,10.2-4.1s-3.8-5.8-8.3-12.2c-4.6-6.4-9.2-13.1-10.2-14.9
		c-1-1.8-2.3-3.3-3-3.3c-0.7,0-3.2,1.8-5.7,4c-3,2.7-6.5,4.7-10.5,6.1c-11.8,4-32.8,2.1-45.1-4.2c-6-3.1-12.2-9.7-15.7-16.7
		C1192.3,1565.4,1190.5,1564.5,1190.5,1569.8z"/>
	<path class="st29" d="M1191.5,1946.7c-5.8-0.3-10.1-2.1-12.9-5.4l0.1,23.2c0.7,0.3,1.3,0.4,1.4,0.3c0.2-0.2,1.2-2.1,2.2-4.1
		c2.3-4.5,7.6-9,12.2-10.3C1199.8,1948.7,1198.5,1947.1,1191.5,1946.7z"/>
	<path id="structure169_Unlabeled-2152-2072_Unlabeled" bar:growlevel="0" bar:type="" class="st29" d="M1484.3,2015.3
		c-13.8,6.5-34.4,12.1-53.9,14.8c-26.2,3.7-59.6,3.4-82.2-0.5c-5.8-1.1-11.7-2.2-13.1-2.4l-2.6-0.5l0.8,4c0.4,2.2,0.8,8.5,0.7,13.9
		l-0.1,10.1l10.4,0.4c9.8,0.3,10.8,0.4,17.2,3.5c15.1,7.3,35.7,25.4,55.2,48.4c12,14,14.1,17.5,14.1,22.3c0,3.9-1.2,7.4-3,8.5
		c-0.4,0.4,1.7,5.8,5,12.6c5.6,11.3,7.8,18.3,7.8,24.1c0,1.4-1.6,5.9-3.6,9.8c-4.2,8.4-11.8,16.1-20.1,20.4c-6.8,3.6-6.8,5.4,0,4.6
		c17.6-2.1,45.5-13.1,66.7-26.1c9-5.6,10.1-7.5,5-8.8c-1.5-0.4-4.5-2.5-6.5-4.7c-5-5.5-7.5-13.5-7.6-24.8
		c-0.1-10.3,1.6-17.4,6.7-27.8l3.6-7.6l-1.1-5.9c-1.4-7.6,0.1-13.4,5.5-21.5l3.7-5.6l-1.5-3.1c-3.8-8-4.5-12.1-4.4-26
		c0.1-12.2,0.4-14.3,2.6-21.6c3.5-11.4,3.8-13,1.7-13C1490.5,2012.7,1487.4,2013.8,1484.3,2015.3z"/>
	<path id="structure16_label8_MVPO" bar:growlevel="0" bar:type="" class="st31" d="M1541.5,2087.3c-13.1,13.5-27.2,21.9-40.7,24.4
		c-5.1,0.9-6.6,0.9-10.6-0.4c-5.5-1.8-5-2.2-9.4,7.1c-4.4,9.4-6.1,16.7-6,26.6c0.1,19.3,7.8,30.6,20.9,30.6
		c5.7,0,13.3-2.5,34.1-11.3c27-11.4,46.1-20.8,52.9-25.9c18.8-14.2,22.9-34.5,9.6-47.6c-7.2-7.1-23-12.5-36.1-12.2l-6.1,0.2
		L1541.5,2087.3z"/>
	<path id="structure17_label9_CAT" bar:growlevel="0" bar:type="" class="st32" d="M1528.8,2048.9c-12,3.3-24.8,13.3-35.4,27.4
		c-9.1,12.2-11.5,19-9.5,27c0.5,2.4,1.8,5.1,2.8,6c2.3,2.1,10.6,2.7,17.4,1.3c7.4-1.5,19.6-7.9,28.2-14.8
		c7.2-5.8,17.4-16.2,17.4-17.7c0-0.4-0.6-1.4-1.4-2.2c-2-2-3-6.9-3.7-17.5c-0.4-5.2-1.1-9.7-1.6-10.1
		C1541.4,2047.3,1533.5,2047.7,1528.8,2048.9z"/>
	<path id="structure18_label10_VLL" bar:growlevel="0" bar:type="" class="st33" d="M1605.9,1939.1c-8.7,2.8-19.8,10.4-26.5,18.4
		c-11.1,13.3-26.5,45-31.5,64.5c-3.1,12.3-3.7,19.6-2.8,34.7c1,17.9,1.8,20.1,7.7,21.2c3.5,0.6,8.7-1.5,21.3-8.9
		c17.6-10.4,22.4-15.2,29.7-29.9c11.4-22.9,18.6-52.1,18.9-76.9c0.2-9.7,0-10.7-2.4-15.6c-2.5-5.1-6.5-8.8-9.5-8.6
		C1610.1,1938,1607.9,1938.5,1605.9,1939.1z"/>
	<path id="structure19_label11_PLV" bar:growlevel="0" bar:type="" class="st34" d="M1587.3,1936.2c-17.6,2.5-36.4,9.9-50.9,19.9
		c-8.3,5.7-21.4,19.3-27.2,28.1c-10.6,16.3-19.5,37.5-21.8,51.8c-1.5,9.8-0.5,24.1,2.1,32c1.3,3.8,2.7,6.4,3.5,6.6
		c0.8,0.2,3.1-1.8,5.3-4.9c10-12.9,31.5-24.2,42.4-22.4l3.5,0.6v-4.9c0-22.4,19.9-69,37.6-88.1c5.6-6,16.6-13.8,21.8-15.3
		c2-0.6,3.6-1.6,3.6-2.2C1607.2,1935.2,1597.7,1934.6,1587.3,1936.2z"/>
	<path id="structure20_label12_A7" bar:growlevel="0" bar:type="" class="st35" d="M1603.2,1757.1c-8,1.2-26.5,5-38.7,8
		c-20.1,5-34.5,14.1-40.1,25.6c-1.9,4-2.2,5.8-2.2,14.4c0,9.4,0.2,10.2,2.9,15.3c1.5,3,4.2,7.1,6,9.2c4,4.6,13,9.3,17.7,9.3
		c3.1,0,3.8-0.4,5.6-3.4c5.9-9.2,17.7-19.2,27.4-23.2c7.5-3.1,12.2-2.8,19.8,1c10.5,5.3,16.1,13.1,19.3,26.7
		c0.5,2.3,1.5,4.3,2.1,4.3c2.2,0,8.8-18.4,12.8-35.3c2.1-8.6,2.4-12.2,2.4-24.1c0.1-15.5-1.3-22.7-5.3-26.6
		c-2.1-2.1-2.7-2.2-13.2-2.1C1613.5,1756.2,1606.2,1756.6,1603.2,1757.1z"/>
	<path id="structure21_label13_DMTg" bar:growlevel="0" bar:type="" class="st36" d="M1744.5,1299c-33.6,34-95.6,70.9-137.4,81.7
		c-15.4,4-23.5,4.9-38.9,4.3c-27-0.9-53.9-9.4-86.5-27.3c-24.1-13.2-58.1-37.2-76.2-53.6c-7.1-6.5-10.4-7.9-9.4-4.2
		c12,42.2,24.8,118.5,24.8,147v7.7l5,4.6c5.7,5.3,9.4,11.7,9.4,16.7c0,3.5-2.8,9.3-4.5,9.3c-0.4,0-0.9,2.2-0.9,4.9
		c0,2.9,0.4,4.9,1,4.9c0.5,0,2.7-1.2,4.9-2.7c5.7-4,11.5-4.9,20.7-3.5l7.6,1.1l2.9-2.5c1.7-1.4,3.5-4,4.1-5.8
		c1.2-3.5,5.8-8.2,7.9-8.2c0.7,0,1.3-0.5,1.3-1.2c0-0.6-3-2.1-6.7-3.2c-23-7.2-38.5-27.2-42.1-54.4c-1.3-9.5-0.2-17.9,3.4-25.4
		c2.9-6.2,7.2-9.9,13.6-11.8c8.5-2.4,13.4-1.1,34.5,10c7.2,3.7,18.9,7.8,59.8,20.7c20.2,6.4,29.7,10.5,39.4,17
		c11.6,7.6,16.5,15.6,14.3,22.9c-1.3,4.3-5.2,9.2-10.5,13.3c-6.7,5.2-5.9,5.7,8.9,5.7c12.9,0,12.9,0,15.3,2.4c2.5,2.4,2.6,3.8,1,8.9
		c-0.5,1.8-0.2,2,4.4,2.3c7.5,0.6,12.8,4.3,16.5,11.4c3.6,6.8,3.9,12.8,1.1,20.5c-1.7,4.7-3.6,6.8-18.3,21.4
		c-16.9,16.7-23,22.4-50.8,46.8c-9,7.9-16.4,14.8-16.4,15.3c0,1.4,13,17.1,24.2,29.3c12.3,13.4,12.7,14,9.4,15.3
		c-3.4,1.3-18.5,2.5-30.4,2.5c-11.2,0-20.9-1.4-28.8-4.4c-12.4-4.6-11.4-4.7-17.8,1.5c-7.5,7.3-10.3,8.7-18.2,8.7
		c-13.9-0.1-20.8-8-16.2-19c1.9-4.4,1.7-4.8-1.5-4.8c-5.8,0-19.7-3.5-27-6.8c-9.3-4.1-11.5-4.7-11.5-3c0,1.9,4.1,6.8,15,18.2
		c12.1,12.4,15,18.6,11.4,23.8c-0.7,1.1-2.5,2.6-3.9,3.2c-3.4,1.8-26.3,3.2-64.4,3.9c-27.4,0.4-31.1,0.4-36-1
		c-10.7-3.2-20.8-10.5-31.4-22.9c-3.4-4-6.7-7.3-7.2-7.3c-0.5,0-4.1,1.6-8.2,3.5c-7.8,3.8-32.9,13.4-41.1,15.8
		c-2.9,0.8-5.2,1.9-5.2,2.3c0,0.5,1.8,2.4,4.1,4.5c4.3,4,7.7,11.2,7.7,16.5c0,4.5-2.4,11.6-5.4,15.7c-4.1,5.7-11.4,8.8-24.5,10.6
		c-2.4,0.3-4.3,1-4.3,1.4c0,0.5,1.3,4.6,3.1,9.2c2.9,7.7,6.1,21.6,7.3,31.3c0.6,4.9,1.7,5.4,5.7,2.1c4-3.3,11.9-6.8,15.6-6.8
		s7.4,2.4,9.4,6.3c2.5,4.9,3.3,11.4,3.2,27.2c-0.1,11.5,0.2,16,1,16c0.5,0,4.1-1.8,8-4c27-15.6,61.3-24.1,97.1-24.2
		c31.6,0,49.8,4.1,69.8,16.1c22.9,13.7,42.1,34.8,55.2,60.8c6.7,13.2,10,22.7,12.8,36.4c6.4,31.1,5.8,61.4-1.3,82.4
		c-3.9,11.5-3,12.5,5.4,5.3c19.2-16.5,48.2-27.4,70.6-26.6c7.4,0.3,9.4,0.6,13.9,2.9c2.8,1.4,5.3,2.4,5.5,2.3
		c1.1-1.1,3.2-35.4,3.2-51.1c0-20.7-0.1-20.9-6.6-14.2c-4.7,4.7-14.7,10.1-22.3,11.9c-29.4,6.9-53-14.5-44-40.1
		c1-2.7,1.7-5.4,1.8-5.9c0-0.5-2.3-1.6-5.1-2.4c-14.3-4-25.6-20.9-24.3-36.4c1.3-17.7,17.1-31.1,44.6-38.1l3.8-1v-6.1
		c0-28.6,21.7-80.6,36.9-88.3c5.6-2.9,9.7-3.1,15.8-0.9c9.5,3.3,8.9,3.3,8.3,0.3c-0.7-3.6,0.8-5.6,5.2-6.6c5.8-1.4,19-1.1,22.7,0.4
		c7.3,3.1,7.4,1.3,0.4-6.5c-9.7-10.5-17.4-28.4-20.9-48.5c-2.3-13-2.6-34.1-0.8-42.2c1.6-7.1,1.5-10.6-0.4-16.6
		c-2.3-7.2-2.1-21,0.3-30.2c3.4-12.9,11.1-26.6,19.2-34.3c9-8.7,21.9-14.6,33.4-15.4c4.1-0.4,6.9-0.9,6.9-1.5c0-0.5-0.8-2.3-1.9-3.7
		c-3.1-4.6-8.7-16.1-10.8-22.1c-3.6-10.7-0.9-28.8,6.8-45.3c3.4-7.4,8.2-12.6,18.2-19.9c7-5.1,33.8-31.1,38.4-37.4
		c3.1-4.1,4.9-15.3,5.8-33.1c0.4-10.7,0.4-12.8-0.7-12.8C1751.3,1292.6,1747.9,1295.4,1744.5,1299z"/>
	<path id="structure23_label15_KF" bar:growlevel="0" bar:type="" class="st37" d="M1606.2,1669c-5.8,3.1-11.8,11.2-18.8,25.4
		c-10.5,21.2-17.1,44.5-17.1,60.2c0,9-0.3,8.8,10.5,6.3c20.3-4.7,45.3-7.1,49.8-4.7c3.3,1.8,6.2,7.7,7.8,16.2
		c1.3,7.3,1.3,13.8-0.3,27c-1.6,13.4,5.5-1,11-22.2c4.3-16.7,3.7-38.6-2.1-64.8c-4-18.5-11-35.8-15.9-39.6
		C1623.2,1666.7,1613.4,1665.3,1606.2,1669z"/>
	<path id="structure24_label16_MPL" bar:growlevel="0" bar:type="" class="st38" d="M1744.5,1299c-33.6,34-95.6,70.9-137.4,81.7
		c-15.4,4-23.5,4.9-38.9,4.3c-27-0.9-53.9-9.4-86.5-27.3c-24.1-13.2-58.1-37.2-76.2-53.6c-7.1-6.5-10.4-7.9-9.4-4.2
		c12,42.2,24.8,118.5,24.8,147v7.7l5,4.6c5.7,5.3,9.4,11.7,9.4,16.7c0,3.5-2.8,9.3-4.5,9.3c-0.4,0-0.9,2.2-0.9,4.9
		c0,2.9,0.4,4.9,1,4.9c0.5,0,2.7-1.2,4.9-2.7c5.7-4,11.5-4.9,20.7-3.5l7.6,1.1l2.9-2.5c1.7-1.4,3.5-4,4.1-5.8
		c1.2-3.5,5.8-8.2,7.9-8.2c0.7,0,1.3-0.5,1.3-1.2c0-0.6-3-2.1-6.7-3.2c-23-7.2-38.5-27.2-42.1-54.4c-1.3-9.5-0.2-17.9,3.4-25.4
		c2.9-6.2,7.2-9.9,13.6-11.8c8.5-2.4,13.4-1.1,34.5,10c7.2,3.7,18.9,7.8,59.8,20.7c20.2,6.4,29.7,10.5,39.4,17
		c11.6,7.6,16.5,15.6,14.3,22.9c-1.3,4.3-5.2,9.2-10.5,13.3c-6.7,5.2-5.9,5.7,8.9,5.7c12.9,0,12.9,0,15.3,2.4c2.5,2.4,2.6,3.8,1,8.9
		c-0.5,1.8-0.2,2,4.4,2.3c7.5,0.6,12.8,4.3,16.5,11.4c3.6,6.8,3.9,12.8,1.1,20.5c-1.7,4.7-3.6,6.8-18.3,21.4
		c-16.9,16.7-23,22.4-50.8,46.8c-9,7.9-16.4,14.8-16.4,15.3c0,1.4,13,17.1,24.2,29.3c12.3,13.4,12.7,14,9.4,15.3
		c-3.4,1.3-18.5,2.5-30.4,2.5c-11.2,0-20.9-1.4-28.8-4.4c-12.4-4.6-11.4-4.7-17.8,1.5c-7.5,7.3-10.3,8.7-18.2,8.7
		c-13.9-0.1-20.8-8-16.2-19c1.9-4.4,1.7-4.8-1.5-4.8c-5.8,0-19.7-3.5-27-6.8c-9.3-4.1-11.5-4.7-11.5-3c0,1.9,4.1,6.8,15,18.2
		c12.1,12.4,15,18.6,11.4,23.8c-0.7,1.1-2.5,2.6-3.9,3.2c-3.4,1.8-26.3,3.2-64.4,3.9c-27.4,0.4-31.1,0.4-36-1
		c-10.7-3.2-20.8-10.5-31.4-22.9c-3.4-4-6.7-7.3-7.2-7.3c-0.5,0-4.1,1.6-8.2,3.5c-7.8,3.8-32.9,13.4-41.1,15.8
		c-2.9,0.8-5.2,1.9-5.2,2.3c0,0.5,1.8,2.4,4.1,4.5c4.3,4,7.7,11.2,7.7,16.5c0,4.5-2.4,11.6-5.4,15.7c-4.1,5.7-11.4,8.8-24.5,10.6
		c-2.4,0.3-4.3,1-4.3,1.4c0,0.5,1.3,4.6,3.1,9.2c2.9,7.7,6.1,21.6,7.3,31.3c0.6,4.9,1.7,5.4,5.7,2.1c4-3.3,11.9-6.8,15.6-6.8
		s7.4,2.4,9.4,6.3c2.5,4.9,3.3,11.4,3.2,27.2c-0.1,11.5,0.2,16,1,16c0.5,0,4.1-1.8,8-4c27-15.6,61.3-24.1,97.1-24.2
		c31.6,0,49.8,4.1,69.8,16.1c22.9,13.7,42.1,34.8,55.2,60.8c6.7,13.2,10,22.7,12.8,36.4c6.4,31.1,5.8,61.4-1.3,82.4
		c-3.9,11.5-3,12.5,5.4,5.3c19.2-16.5,48.2-27.4,70.6-26.6c7.4,0.3,9.4,0.6,13.9,2.9c2.8,1.4,5.3,2.4,5.5,2.3
		c1.1-1.1,3.2-35.4,3.2-51.1c0-20.7-0.1-20.9-6.6-14.2c-4.7,4.7-14.7,10.1-22.3,11.9c-29.4,6.9-53-14.5-44-40.1
		c1-2.7,1.7-5.4,1.8-5.9c0-0.5-2.3-1.6-5.1-2.4c-14.3-4-25.6-20.9-24.3-36.4c1.3-17.7,17.1-31.1,44.6-38.1l3.8-1v-6.1
		c0-28.6,21.7-80.6,36.9-88.3c5.6-2.9,9.7-3.1,15.8-0.9c9.5,3.3,8.9,3.3,8.3,0.3c-0.7-3.6,0.8-5.6,5.2-6.6c5.8-1.4,19-1.1,22.7,0.4
		c7.3,3.1,7.4,1.3,0.4-6.5c-9.7-10.5-17.4-28.4-20.9-48.5c-2.3-13-2.6-34.1-0.8-42.2c1.6-7.1,1.5-10.6-0.4-16.6
		c-2.3-7.2-2.1-21,0.3-30.2c3.4-12.9,11.1-26.6,19.2-34.3c9-8.7,21.9-14.6,33.4-15.4c4.1-0.4,6.9-0.9,6.9-1.5c0-0.5-0.8-2.3-1.9-3.7
		c-3.1-4.6-8.7-16.1-10.8-22.1c-3.6-10.7-0.9-28.8,6.8-45.3c3.4-7.4,8.2-12.6,18.2-19.9c7-5.1,33.8-31.1,38.4-37.4
		c3.1-4.1,4.9-15.3,5.8-33.1c0.4-10.7,0.4-12.8-0.7-12.8C1751.3,1292.6,1747.9,1295.4,1744.5,1299z"/>
	<path id="structure25_label17_Tr" bar:growlevel="0" bar:type="" class="st39" d="M1744.5,1299c-33.6,34-95.6,70.9-137.4,81.7
		c-15.4,4-23.5,4.9-38.9,4.3c-27-0.9-53.9-9.4-86.5-27.3c-24.1-13.2-58.1-37.2-76.2-53.6c-7.1-6.5-10.4-7.9-9.4-4.2
		c12,42.2,24.8,118.5,24.8,147v7.7l5,4.6c5.7,5.3,9.4,11.7,9.4,16.7c0,3.5-2.8,9.3-4.5,9.3c-0.4,0-0.9,2.2-0.9,4.9
		c0,2.9,0.4,4.9,1,4.9c0.5,0,2.7-1.2,4.9-2.7c5.7-4,11.5-4.9,20.7-3.5l7.6,1.1l2.9-2.5c1.7-1.4,3.5-4,4.1-5.8
		c1.2-3.5,5.8-8.2,7.9-8.2c0.7,0,1.3-0.5,1.3-1.2c0-0.6-3-2.1-6.7-3.2c-23-7.2-38.5-27.2-42.1-54.4c-1.3-9.5-0.2-17.9,3.4-25.4
		c2.9-6.2,7.2-9.9,13.6-11.8c8.5-2.4,13.4-1.1,34.5,10c7.2,3.7,18.9,7.8,59.8,20.7c20.2,6.4,29.7,10.5,39.4,17
		c11.6,7.6,16.5,15.6,14.3,22.9c-1.3,4.3-5.2,9.2-10.5,13.3c-6.7,5.2-5.9,5.7,8.9,5.7c12.9,0,12.9,0,15.3,2.4c2.5,2.4,2.6,3.8,1,8.9
		c-0.5,1.8-0.2,2,4.4,2.3c7.5,0.6,12.8,4.3,16.5,11.4c3.6,6.8,3.9,12.8,1.1,20.5c-1.7,4.7-3.6,6.8-18.3,21.4
		c-16.9,16.7-23,22.4-50.8,46.8c-9,7.9-16.4,14.8-16.4,15.3c0,1.4,13,17.1,24.2,29.3c12.3,13.4,12.7,14,9.4,15.3
		c-3.4,1.3-18.5,2.5-30.4,2.5c-11.2,0-20.9-1.4-28.8-4.4c-12.4-4.6-11.4-4.7-17.8,1.5c-7.5,7.3-10.3,8.7-18.2,8.7
		c-13.9-0.1-20.8-8-16.2-19c1.9-4.4,1.7-4.8-1.5-4.8c-5.8,0-19.7-3.5-27-6.8c-9.3-4.1-11.5-4.7-11.5-3c0,1.9,4.1,6.8,15,18.2
		c12.1,12.4,15,18.6,11.4,23.8c-0.7,1.1-2.5,2.6-3.9,3.2c-3.4,1.8-26.3,3.2-64.4,3.9c-27.4,0.4-31.1,0.4-36-1
		c-10.7-3.2-20.8-10.5-31.4-22.9c-3.4-4-6.7-7.3-7.2-7.3c-0.5,0-4.1,1.6-8.2,3.5c-7.8,3.8-32.9,13.4-41.1,15.8
		c-2.9,0.8-5.2,1.9-5.2,2.3c0,0.5,1.8,2.4,4.1,4.5c4.3,4,7.7,11.2,7.7,16.5c0,4.5-2.4,11.6-5.4,15.7c-4.1,5.7-11.4,8.8-24.5,10.6
		c-2.4,0.3-4.3,1-4.3,1.4c0,0.5,1.3,4.6,3.1,9.2c2.9,7.7,6.1,21.6,7.3,31.3c0.6,4.9,1.7,5.4,5.7,2.1c4-3.3,11.9-6.8,15.6-6.8
		s7.4,2.4,9.4,6.3c2.5,4.9,3.3,11.4,3.2,27.2c-0.1,11.5,0.2,16,1,16c0.5,0,4.1-1.8,8-4c27-15.6,61.3-24.1,97.1-24.2
		c31.6,0,49.8,4.1,69.8,16.1c22.9,13.7,42.1,34.8,55.2,60.8c6.7,13.2,10,22.7,12.8,36.4c6.4,31.1,5.8,61.4-1.3,82.4
		c-3.9,11.5-3,12.5,5.4,5.3c19.2-16.5,48.2-27.4,70.6-26.6c7.4,0.3,9.4,0.6,13.9,2.9c2.8,1.4,5.3,2.4,5.5,2.3
		c1.1-1.1,3.2-35.4,3.2-51.1c0-20.7-0.1-20.9-6.6-14.2c-4.7,4.7-14.7,10.1-22.3,11.9c-29.4,6.9-53-14.5-44-40.1
		c1-2.7,1.7-5.4,1.8-5.9c0-0.5-2.3-1.6-5.1-2.4c-14.3-4-25.6-20.9-24.3-36.4c1.3-17.7,17.1-31.1,44.6-38.1l3.8-1v-6.1
		c0-28.6,21.7-80.6,36.9-88.3c5.6-2.9,9.7-3.1,15.8-0.9c9.5,3.3,8.9,3.3,8.3,0.3c-0.7-3.6,0.8-5.6,5.2-6.6c5.8-1.4,19-1.1,22.7,0.4
		c7.3,3.1,7.4,1.3,0.4-6.5c-9.7-10.5-17.4-28.4-20.9-48.5c-2.3-13-2.6-34.1-0.8-42.2c1.6-7.1,1.5-10.6-0.4-16.6
		c-2.3-7.2-2.1-21,0.3-30.2c3.4-12.9,11.1-26.6,19.2-34.3c9-8.7,21.9-14.6,33.4-15.4c4.1-0.4,6.9-0.9,6.9-1.5c0-0.5-0.8-2.3-1.9-3.7
		c-3.1-4.6-8.7-16.1-10.8-22.1c-3.6-10.7-0.9-28.8,6.8-45.3c3.4-7.4,8.2-12.6,18.2-19.9c7-5.1,33.8-31.1,38.4-37.4
		c3.1-4.1,4.9-15.3,5.8-33.1c0.4-10.7,0.4-12.8-0.7-12.8C1751.3,1292.6,1747.9,1295.4,1744.5,1299z"/>
	<path id="structure26_label18_L" bar:growlevel="0" bar:type="" class="st40" d="M1749.4,1517.5c0,0.5,1.3,5.7,3.1,11.6
		c6.7,23,6.3,35-1.5,50c-9.5,18.3-40.6,31.4-62.2,26.4c-17.3-4.1-34-18.6-44.2-38.6c-3.9-7.4-6.1-8.8-7.1-4.5
		c-0.3,1.4-0.8,7.4-1.1,13.3c-1.4,26.6,5.2,55.5,16.9,73c4.3,6.4,12.7,14.8,14.9,14.8c0.5,0,2-2.2,3.2-4.8c3.3-7.3,9.5-14.8,22-26.8
		c14.5-13.9,23.4-21.1,30.6-24.5c5-2.3,6.4-2.6,11.7-2.3c12.8,0.9,20.9,8.9,20.9,20.7c0,4.1-3.7,22.1-6.8,32.9
		c-3.1,11.2-8.5,21.7-13.3,26.1c-6.3,5.8-8.8,6.2-25.5,3.8c-17.4-2.4-26-4.6-33.4-8.2c-3.2-1.5-5.9-2.6-6.2-2.3
		c-0.3,0.3,0.1,3.5,0.7,7.1c1.7,9.4,1.4,29.3-0.5,37.1c-2.3,9.5-6.4,17-12,22.1c-2.7,2.5-5.2,4.5-5.6,4.5c-0.5,0-1,3.6-1.3,8.1
		c-1.1,15-6.2,33.1-15.2,53.8c-2.4,5.6-5.7,13.7-7.1,17.9c-1.5,4.3-3.8,10.1-5,12.8c-1.8,3.9-2.3,6.8-2.5,12.2
		c-0.2,4-0.7,8.3-1.3,9.6c-0.6,1.7-0.6,4.8-0.1,9.9c1.5,13.1,0.8,35.4-1.9,59.8c-0.9,8.8-0.9,9.5,1.1,13.5c6.8,14-0.7,58.6-14.9,89
		c-8.4,17.9-14.6,24-37.1,36.6c-3.6,2-6.6,4.1-6.6,4.7c0,0.5,3.2,1.6,7,2.4c18.5,3.8,30,14,31.4,28.1c0.6,5.9,1.5,6.3,6.2,2.2
		c7.3-6.4,10.7-16.5,42.8-127.2l4.4-15.3l0.9-20c1.3-30.1,4.9-55.7,12.6-89.3c7.3-31.2,13.1-48.2,25.1-72.5
		c9.1-18.4,16.9-31.2,27.8-45.7c8.8-11.9,8.1-10.5,24.4-46.5c7-15.6,16.2-35.5,20.4-44.1l7.6-15.8l-1.1-9.9
		c-0.9-8.2-0.8-15.4,0.4-41.4c1.3-25.3,1.4-34.2,0.6-45.3c-0.5-7.7-1-14.3-1-15c0-0.7-1.9-1.3-5.4-1.7c-3-0.4-7.4-1.2-9.7-1.9
		C1752,1516.5,1749.4,1516.3,1749.4,1517.5z"/>
	<path id="structure27_label19_L" bar:growlevel="0" bar:type="" class="st40" d="M1749.4,1517.5c0,0.5,1.3,5.7,3.1,11.6
		c6.7,23,6.3,35-1.5,50c-9.5,18.3-40.6,31.4-62.2,26.4c-17.3-4.1-34-18.6-44.2-38.6c-3.9-7.4-6.1-8.8-7.1-4.5
		c-0.3,1.4-0.8,7.4-1.1,13.3c-1.4,26.6,5.2,55.5,16.9,73c4.3,6.4,12.7,14.8,14.9,14.8c0.5,0,2-2.2,3.2-4.8c3.3-7.3,9.5-14.8,22-26.8
		c14.5-13.9,23.4-21.1,30.6-24.5c5-2.3,6.4-2.6,11.7-2.3c12.8,0.9,20.9,8.9,20.9,20.7c0,4.1-3.7,22.1-6.8,32.9
		c-3.1,11.2-8.5,21.7-13.3,26.1c-6.3,5.8-8.8,6.2-25.5,3.8c-17.4-2.4-26-4.6-33.4-8.2c-3.2-1.5-5.9-2.6-6.2-2.3
		c-0.3,0.3,0.1,3.5,0.7,7.1c1.7,9.4,1.4,29.3-0.5,37.1c-2.3,9.5-6.4,17-12,22.1c-2.7,2.5-5.2,4.5-5.6,4.5c-0.5,0-1,3.6-1.3,8.1
		c-1.1,15-6.2,33.1-15.2,53.8c-2.4,5.6-5.7,13.7-7.1,17.9c-1.5,4.3-3.8,10.1-5,12.8c-1.8,3.9-2.3,6.8-2.5,12.2
		c-0.2,4-0.7,8.3-1.3,9.6c-0.6,1.7-0.6,4.8-0.1,9.9c1.5,13.1,0.8,35.4-1.9,59.8c-0.9,8.8-0.9,9.5,1.1,13.5c6.8,14-0.7,58.6-14.9,89
		c-8.4,17.9-14.6,24-37.1,36.6c-3.6,2-6.6,4.1-6.6,4.7c0,0.5,3.2,1.6,7,2.4c18.5,3.8,30,14,31.4,28.1c0.6,5.9,1.5,6.3,6.2,2.2
		c7.3-6.4,10.7-16.5,42.8-127.2l4.4-15.3l0.9-20c1.3-30.1,4.9-55.7,12.6-89.3c7.3-31.2,13.1-48.2,25.1-72.5
		c9.1-18.4,16.9-31.2,27.8-45.7c8.8-11.9,8.1-10.5,24.4-46.5c7-15.6,16.2-35.5,20.4-44.1l7.6-15.8l-1.1-9.9
		c-0.9-8.2-0.8-15.4,0.4-41.4c1.3-25.3,1.4-34.2,0.6-45.3c-0.5-7.7-1-14.3-1-15c0-0.7-1.9-1.3-5.4-1.7c-3-0.4-7.4-1.2-9.7-1.9
		C1752,1516.5,1749.4,1516.3,1749.4,1517.5z"/>
	<path id="structure28_label20_PTg" bar:growlevel="0" bar:type="" class="st41" d="M1524.9,1516.1c-5.7,2.4-12.2,12.9-14.9,23.5
		l-1.1,4.1l3.6,3.8c2,2.1,7.6,9.6,12.4,16.8c14.3,21.2,21.2,30.6,22.3,30.6c0.6,0,6.4-4.8,12.8-10.4c6.5-5.8,14.9-13.1,18.8-16.5
		c8.2-6.9,9.5-9.1,9.5-15.6c0-5.7-2.1-10.4-7.7-18.3c-6.2-8.8-11-12.5-19.6-15.2C1548.9,1515.1,1530.5,1513.7,1524.9,1516.1z"/>
	<path id="structure29_label21_LPBS" bar:growlevel="0" bar:type="" class="st42" d="M1609.5,1481.3c-7.5,1.1-26,8.6-29.5,11.8
		c-3.7,3.5-9.2,15.1-10.5,22.1l-1.1,6l2.5,2.1c9.4,7.2,18.4,22.4,18.4,30.8c0,1.7,0.5,3.2,1,3.2c0.5,0,9.4-8.1,19.6-18
		c20.2-19.4,22.9-23,24.5-32.3c0.8-4.3,0.7-6.3-0.4-10.4c-1.6-5.3-6.2-11.3-10.4-13.5C1620.7,1481.5,1613.5,1480.7,1609.5,1481.3z"
		/>
	<path id="structure30_label22_CnFD" bar:growlevel="0" bar:type="" class="st43" d="M1446.6,1378.2c-9.7,3.6-14.8,13.9-14.8,30
		c0,19.5,9.4,40.4,22.7,50.7c6.5,4.9,14.9,9,22.7,10.9c5.6,1.4,8.2,1.5,20.8,0.9c7.9-0.4,28.7-1.2,46.2-1.6l31.8-0.9l4.2-2.4
		c5.7-3.3,12.6-9.9,14.7-14c2.1-4.1,2.2-9.8,0.3-13.9c-3.6-7.7-20.2-18.4-37.3-24.5c-4.3-1.5-19.1-6.2-32.9-10.5
		c-25.3-7.8-41-13.7-45.5-16.8c-1.3-0.9-5.5-3.2-9.4-4.9c-5.7-2.7-8.1-3.3-13.8-3.6C1452.3,1377.3,1448.1,1377.6,1446.6,1378.2z"/>
	<path id="structure31_label23_LDTgV" bar:growlevel="0" bar:type="" class="st44" d="M1371.9,1563.1
		c-15.8,13.1-39.2,37.9-39.2,41.6c0,2.2-7.7,13.9-13.8,21.1c-2.8,3.3-5.1,6.5-5.1,6.9c0,0.4,5.1,6.1,11.5,12.5
		c18.8,19,23.1,20.5,57.8,19.6c26.5-0.7,57.6-2.1,64.7-2.9c6.5-0.7,9.1-3.2,9.1-8.9c0-2.3-0.5-5-1-6c-0.5-1.1-5.8-6.8-11.5-12.9
		c-5.8-6.1-12.2-13.9-14.5-17.3c-2.3-3.4-5.6-7.4-7.4-8.7c-15.4-11.2-30.9-29.7-38.3-45.7c-1.4-3-3.1-5.2-3.8-5.2
		S1375.8,1559.9,1371.9,1563.1z"/>
	<path id="structure32_label24_LDTg" bar:growlevel="0" bar:type="" class="st44" d="M1282.2,1462.1c-15.8,4.6-27.9,21.4-27.6,38.3
		c0.2,8.4,0.5,9.1,8.5,13.1c13.2,6.7,17.3,11.3,19.8,22.8c2.7,12.1,0.4,25.8-6.7,39.2l-3.2,6.2l2.5,4.6c3.8,6.8,17.6,25.8,19.3,26.4
		c0.7,0.4,8.4-1.7,16.9-4.5c8.5-2.9,16.7-5.1,18.2-5.1c2.2,0,3.6-1.2,8.4-6.9c7.7-9.4,22.8-24.2,33.5-32.9c4.8-4,8.7-7.7,8.7-8.4
		c0-0.6-0.5-2.3-1-3.7c-0.5-1.3-3.6-12.7-6.8-25c-6.7-25.8-9.1-31.8-15.9-37.9c-9.5-8.6-27.3-18.3-43.8-23.8
		C1302.9,1461,1289.5,1460.1,1282.2,1462.1z"/>
	<path id="structure33_label25_DTgP" bar:growlevel="0" bar:type="" class="st45" d="M1220.7,1509.1c-13,3.2-24.8,11.5-29.3,20.6
		c-2.9,6-3.6,19.8-1.4,28.4c3.6,14.2,12,26.4,21.2,31c12.3,6.3,33.3,8.2,45.2,4.1c11.4-3.9,20.3-15.1,24.8-31.6
		c3.1-11.3,2.3-26.5-2-34.7c-3.6-6.9-17.6-15.3-29.9-17.9C1241.6,1507.4,1227.8,1507.4,1220.7,1509.1z"/>
	<path id="structure34_label26_VTg" bar:growlevel="0" bar:type="" class="st46" d="M1221,1637.7c-2.6,1.4-5.6,5.9-6.5,9.8
		c-0.4,1.5,0,6.2,0.9,11c1.8,9.4,1.3,12.1-3.3,16.4c-6.3,5.9-0.2,18.9,11.7,24.7c7.8,3.9,24,3.1,34-1.6c7.6-3.6,12-11.3,12-20.9
		c0-10-4-16.6-12.7-21.2c-7.6-4.1-17.1-10.9-21.5-15.4c-3.6-3.6-4.4-4.1-8.1-4.1C1225.2,1636.5,1222.3,1637,1221,1637.7z"/>
	<path class="st26" d="M1414.5,1389.6l-1-6.9l-6.9-2.3c-10.5-3.5-50.7-14.9-52.3-14.9c-1.3,0-1.6,1.4-2.2,7.2
		c-1.2,13.7-5.4,23.2-14.5,32.5c-10.4,10.5-23.8,18.1-55,31c-40.2,16.7-60.5,28.1-77.4,43.9c-10.2,9.5-19.2,14.6-28.3,15.5l0,8.2
		c10.6-0.6,15.4-2.2,29.1-9.5c16.6-8.7,23.4-9.9,25.9-4.2c1.5,3.2,0.4,6-4.1,11.2c-2.3,2.4-4.1,4.9-4.1,5.5c0,0.7,2.1,0.9,7,0.4
		c6.2-0.4,11.5,0,20.8,2l3.1,0.6l-0.5-5.3c-1.5-15,7.8-32.8,20.9-39.4c11.7-6,21.8-6.2,37.5-1c18.5,6.1,38.8,17.8,47.1,27.1
		c5.6,6.4,7.1,10.1,12.8,32.8c6.5,25.4,8.1,30.6,9.5,30.6c2.9,0,21-20,21-23.1c0-0.5-1.3-1.2-2.7-1.5c-3.1-0.5-4.3-2.7-3-4.9
		c1.3-2.2,3.6-2.3,5.4-0.2c0.8,1.1,2.1,1.9,2.6,1.9c1.3,0,6.7-11.8,6.7-14.5c0-1.6-0.4-1.9-2.7-1.4c-4.6,1-7.2-3.6-3.3-6
		c2-1.3,4.6,0.3,4.9,3c0.9,5.7,4.7-2.4,4.7-10c0-2.5-0.2-2.7-2.4-2.3c-4.8,0.9-6.9-1.9-4.6-5.7c0.8-1.3,0.9-2.2,0.3-3.1
		c-4.3-5.8-4.5-6.4-4.8-13.6c-0.3-6.1,0-7.8,1.8-11.3c2.8-5.5,7.2-8.4,11.7-7.7c3.3,0.6,3.4,0.5,3.4-2
		C1420.9,1442.3,1417.7,1410.4,1414.5,1389.6z"/>
	<path id="structure38_label30_LPB" bar:growlevel="0" bar:type="" class="st47" d="M1439.4,1490.5c-6.1,2.9-9.2,6.9-11.3,14.9
		c-1,4-1.8,7.6-1.8,8.2c0,0.8,1.8,1.2,5.7,1.1c4,0,10.5,1.4,24.1,5c25.6,7,32.7,9.7,42.8,16.5c4.8,3.2,8.9,5.8,9.3,5.8
		c0.4,0,1.3-1.7,1.9-3.9c1.6-5.5,5.9-13.6,9-17.1c1.4-1.7,2.7-3.5,2.7-3.9c0-0.4-4.1-2.6-9.3-4.8c-5-2.2-17.5-7.7-27.6-12.3
		c-10.2-4.5-21-8.9-24-9.7C1453.3,1488.2,1444,1488.4,1439.4,1490.5z"/>
	<path class="st48" d="M1350.7,1355.6c-1.6-9.1-4.7-18.9-5.8-18.9c-0.7,0-1.3,2.7-1.6,7.9c-2.3,32.9-17.9,57.1-42.4,66.3
		c-13.4,5-20.3,5.7-79.2,6.8c-13.1,0.2-28.8,0.3-45,0.3l0.3,75.9c10.8-0.7,16.6-3.8,28.5-15.1c11.7-11,22.8-18.4,40.4-27.2
		c12.1-5.9,20.3-9.6,50.8-22.4c31.6-13.2,48.6-28,52.6-45.6C1351.3,1374.5,1352,1362.2,1350.7,1355.6z"/>
	<path id="structure40_label32_DLL" bar:growlevel="0" bar:type="" class="st49" d="M1678.3,1470.7c-13,4.1-23.2,12.1-30.7,23.7
		c-10.6,16.6-14.8,35.6-11.3,52c2.7,12.6,13.6,31.7,24,42.1c6.7,6.6,13.1,11.2,20.9,14.4c5.2,2.3,6.5,2.4,18.6,2.4
		c12.5-0.1,13.4-0.2,20.6-3c8.9-3.3,19-9.5,23.7-14.3c5-5.2,9.5-13.2,11-20.1c2.8-12.2,1.5-24.6-4.4-43.6
		c-2.9-9.5-3.4-10.4-6.7-12.5c-2-1.4-5.2-4.6-7.2-7.2c-5.4-7.1-34.7-33-39.2-34.8C1694,1468.5,1683.8,1468.9,1678.3,1470.7z"/>
	<path id="structure41_label33_ILL" bar:growlevel="0" bar:type="" class="st50" d="M1726.4,1606.5c-6.5,2.3-14.8,8.6-29.1,21.8
		c-20.8,19.3-28,29.7-28,40.1c0,5.6,0.1,5.8,3.8,8.9c5.8,4.9,18.2,8.5,41,11.4c15.7,2,20.6,0.2,27.3-10.1c6.1-9.5,14.4-40,14.4-53
		c0-10.7-5.4-17.5-15.4-19.7C1734.2,1604.5,1731.8,1604.7,1726.4,1606.5z"/>
	<path id="structure42_label34_Sag" bar:growlevel="0" bar:type="" class="st51" d="M1739.1,1347.6c-7.3,8.5-22.4,22.4-31.5,29.2
		c-9.9,7.3-15.1,13.6-18.4,22.1c-5.7,14.8-7.9,27.6-6.5,36.7c1.7,10.5,10.7,27.6,18.8,35.8c5.5,5.6,25.3,22.3,26.7,22.6
		c1.6,0.4,1.7-1.2,0.3-8c-1.4-6.9,0.5-11.7,7.4-19.2c5-5.3,13.1-10.4,16.6-10.4c2.3,0,1.7-2.1-3-12.4c-2.4-5.3-4.9-11.3-5.5-13.2
		c-1.6-5.3-2.2-34.4-1-49.7c0.6-7.3,1.9-18.5,2.8-24.9C1748.7,1337.1,1748.4,1336.8,1739.1,1347.6z"/>
	<path id="structure43_label35_RL" bar:growlevel="0" bar:type="" class="st52" d="M1746,1459.2c-6,3-13.2,10.2-15.9,15.8
		c-5.2,11.2,4.8,32.6,18.5,39.6c5.5,2.7,13.5,4.9,18.5,4.9c3.8,0,3.9-0.1,3.9-3c0-6.7-4-32.1-5.9-37.5c-1.1-3.2-3.8-9.6-5.8-14.2
		C1754.8,1455,1754.5,1454.8,1746,1459.2z"/>
	<path id="structure44_label36_MEnt" bar:growlevel="0" bar:type="" class="st53" d="M1723.3,1060.9c0,1.7,14.9,15.5,20.9,19.3
		c3.1,2,7.1,4.1,8.9,4.7l3.4,1l-5.3,5.7c-5.8,6.2-10.7,15.5-12.6,23.7c-2,8.4-0.7,19.5,3.6,32.8c8.8,27.4,30.4,76,40.8,91.8
		c2.7,4.2,13.6,19.5,24.1,34.1c31.8,43.7,48.3,69,56.7,86.7c5.5,11.6,10.3,26,22.5,67.7c16.6,56.6,22.8,76.2,30.5,95.7
		c10.5,26.5,22,43.8,43,65.2c31.5,32,66.8,52.1,105.9,60.4c9.6,2.1,33.1,2.8,42.8,1.4c27.7-4.1,56.5-22.5,79.3-50.8
		c7.7-9.5,19.4-26.8,23.7-34.9l2.5-4.9l-22.9-42.9c-12.6-23.6-23.3-42.9-23.8-42.9c-0.5,0-2.6,2.6-4.8,5.8
		c-4.7,7.1-15.2,17.2-21.8,20.9c-2.7,1.6-8.1,4-12.1,5.3c-6.7,2.3-8.2,2.5-20.7,2.5c-15.7-0.1-23.9-1.9-41-8.8
		c-21.5-8.7-33.8-17.4-41.8-29.3c-8.8-13.3-13.4-25.8-22.4-61.9c-12.1-48.1-34-124.3-45.2-156.9c-12.1-35.1-19.2-48.4-32.6-61.2
		c-8.5-8.2-14.8-12.6-26.2-18.3c-15-7.6-23.2-9.7-47.5-12.2c-15.8-1.7-27.3-5.8-34.4-12.2c-1.9-1.7-3.8-3.1-4.1-3.1
		c-0.4,0-3.4,2.2-6.7,4.9c-14.5,11.7-23.2,16.5-28.7,15.4c-8-1.5-16.3-7.9-20.2-15.8c-3.1-6.1-2.9-19,0.4-26.8
		c3.7-8.8,7.7-14.9,16.5-24.6c13.1-14.6,14-15.9,13.8-19.6c-0.4-5.1-4-6.4-17.4-6.4c-7.3,0-11.3-0.4-12-1.1
		c-1.7-1.7-1.3-5.7,0.7-7.5c3.8-3.4,2.6-3.7-17.1-3.7C1729,1059.9,1723.3,1060.2,1723.3,1060.9z"/>
	<path id="structure45_label37_CEnt" bar:growlevel="0" bar:type="" class="st54" d="M1723.3,1060.9c0,1.7,14.9,15.5,20.9,19.3
		c3.1,2,7.1,4.1,8.9,4.7l3.4,1l-5.3,5.7c-5.8,6.2-10.7,15.5-12.6,23.7c-2,8.4-0.7,19.5,3.6,32.8c8.8,27.4,30.4,76,40.8,91.8
		c2.7,4.2,13.6,19.5,24.1,34.1c31.8,43.7,48.3,69,56.7,86.7c5.5,11.6,10.3,26,22.5,67.7c16.6,56.6,22.8,76.2,30.5,95.7
		c10.5,26.5,22,43.8,43,65.2c31.5,32,66.8,52.1,105.9,60.4c9.6,2.1,33.1,2.8,42.8,1.4c27.7-4.1,56.5-22.5,79.3-50.8
		c7.7-9.5,19.4-26.8,23.7-34.9l2.5-4.9l-22.9-42.9c-12.6-23.6-23.3-42.9-23.8-42.9c-0.5,0-2.6,2.6-4.8,5.8
		c-4.7,7.1-15.2,17.2-21.8,20.9c-2.7,1.6-8.1,4-12.1,5.3c-6.7,2.3-8.2,2.5-20.7,2.5c-15.7-0.1-23.9-1.9-41-8.8
		c-21.5-8.7-33.8-17.4-41.8-29.3c-8.8-13.3-13.4-25.8-22.4-61.9c-12.1-48.1-34-124.3-45.2-156.9c-12.1-35.1-19.2-48.4-32.6-61.2
		c-8.5-8.2-14.8-12.6-26.2-18.3c-15-7.6-23.2-9.7-47.5-12.2c-15.8-1.7-27.3-5.8-34.4-12.2c-1.9-1.7-3.8-3.1-4.1-3.1
		c-0.4,0-3.4,2.2-6.7,4.9c-14.5,11.7-23.2,16.5-28.7,15.4c-8-1.5-16.3-7.9-20.2-15.8c-3.1-6.1-2.9-19,0.4-26.8
		c3.7-8.8,7.7-14.9,16.5-24.6c13.1-14.6,14-15.9,13.8-19.6c-0.4-5.1-4-6.4-17.4-6.4c-7.3,0-11.3-0.4-12-1.1
		c-1.7-1.7-1.3-5.7,0.7-7.5c3.8-3.4,2.6-3.7-17.1-3.7C1729,1059.9,1723.3,1060.2,1723.3,1060.9z"/>
	<path id="structure46_label38_DLEnt" bar:growlevel="0" bar:type="" class="st55" d="M2210,1304.9c-5.9,11.3-7.7,20.2-12.3,57.4
		c-5.8,46.5-11.4,69.6-23.6,96.3c-2.4,5.4-4.9,10.9-5.4,12.2c-0.8,2,1.5,6.8,21.8,44.7c12.5,23.4,23.2,42.6,23.9,42.6
		c1.1,0,4.8-7.4,8.6-17.1c1.1-2.7,6-14.9,11-27c5-12.2,10.8-27.2,13-33.4c7.2-21.4,13.7-54,15.7-79.4l1.1-13.1l-8.7-16.9
		c-19.2-37-39-72.3-40.5-72.3C2213.7,1298.9,2211.8,1301.6,2210,1304.9z"/>
	<path id="structure47_label39_PRh" bar:growlevel="0" bar:type="" class="st56" d="M2148.1,1190.9c0,0.5,3.8,6.3,8.5,12.9
		c21.5,30.2,58.1,91.6,86.3,144.6c6.4,12.2,13.5,25.4,15.7,29.4c2.2,4.1,4.4,7.5,5,7.5c0.6,0,2.4-4,4.1-8.8
		c1.7-4.8,6.2-16.1,10.1-25.1c3.9-9,8-19.5,9.2-23.4c2.7-8.4,5.7-25.6,6.8-39.9c1-11.5,1.6-37.5,0.8-38.3
		c-0.8-0.8-144.2-59.8-145.4-59.8C2148.7,1190,2148.1,1190.4,2148.1,1190.9z"/>
	<path id="structure48_label40_Ect" bar:growlevel="0" bar:type="" class="st57" d="M2151.9,1043c-45.6,29.6-83,54.2-83,54.6
		c0,1,2.5,4,31.2,36.5c12,13.6,26.9,31.1,33.3,39.1l11.5,14.2l73.8,30.5c40.6,16.7,74.3,30.5,75.1,30.5c1.1,0,1.2-3.7,0.7-23.7
		c-0.6-24.6-2.6-56.4-4.2-67c-6.5-42.1-24.3-99.7-49.1-158.5c-2.3-5.5-4.8-10.1-5.3-10.1C2235.3,989.3,2197.5,1013.5,2151.9,1043z"
		/>
	<path id="structure49_label41_TeA" bar:growlevel="0" bar:type="" class="st58" d="M2064,927.5c-49,41.8-89.2,76.4-89.3,77.1
		c-0.1,0.7,5.1,5.9,11.6,11.6c14.2,12.5,56.5,53.8,70.4,68.8c6.5,7,10.6,10.8,11.8,10.8c3-0.1,166.9-106.8,167-108.7
		c0-4-26.8-58-39.1-78.8c-12.1-20.3-38.5-56.1-41.9-56.5C2153.7,851.7,2113,885.8,2064,927.5z"/>
	<path id="structure50_label43_PaS" bar:growlevel="0" bar:type="" class="st59" d="M1812,1053.7c-32.6,2.3-38.6,3.1-46.1,5.9
		c-7.1,2.6-10.3,7.7-6.9,11c1.1,1.2,3.6,1.4,12.8,1.4c12.4,0,14.8,0.7,16.5,5.1c1.2,3.2-1,6.7-11.4,18.2
		c-10.4,11.2-14.9,17.6-18,25.3c-6,14.9-4.1,28.9,5,37.3c7.7,7,15.7,8.6,23.9,4.7c9.9-4.7,27.5-19.5,53.6-45.5
		c18.8-18.7,23.4-24.4,25.2-31c2.2-7.9-1.3-18.8-7.7-24.8c-5.9-5.5-13.1-7.4-29.3-7.7C1822.3,1053.5,1814.5,1053.5,1812,1053.7z"/>
	<path id="structure51_label44_V2L" bar:growlevel="0" bar:type="" class="st60" d="M1986,708.6c-18.3,25.7-136.1,196.7-136.3,197.7
		c-0.3,1,2.3,3.2,8,7.3c29.6,20.4,63.8,46.9,98.4,76c8.8,7.4,16.7,13.5,17.5,13.4c1.7,0,180.1-151.3,180.1-152.6
		c0-1.8-18.9-22.4-40.1-43.5c-26.9-26.9-53.3-50.5-84.6-75.7c-15.8-12.7-36.6-28.3-37.8-28.3C1990.5,703.1,1988.1,705.6,1986,708.6z
		"/>
	<path id="structure52_label45_RSD" bar:growlevel="0" bar:type="" class="st61" d="M1407.3,678.9c-16.1,32.6-9.5,69.3,18.6,103
		c12.7,15.2,23.7,25.1,52.6,47.7c10.2,7.8,32.7,25.7,50,39.5c17.4,13.9,43.9,35,59,47c33.5,26.5,45,36.5,62.8,53.8
		c21.2,20.7,36.1,38.6,52.3,63c4.6,6.9,10.7,15.7,13.6,19.5l5.3,6.8l7.8,0.6c11.8,1,33.9-0.2,41.9-2.2c10.6-2.8,27.1-4.1,51-4.1
		c20.9,0,22.3,0.1,27.1,2.1c7.9,3.2,12,6.6,14.9,12.5c3.7,7.5,4,15.5,1,21.6c-1.3,2.5-3.3,5.8-4.6,7.3c-2.3,2.5-3.1,5.6-1.6,5.6
		c0.4,0,2.9-0.6,5.6-1.3c11.3-3.2,30.6-2.6,53.5,1.4c32.8,5.8,62.6,19.1,106.5,47.1c8.8,5.7,28,17.6,42.6,26.4
		c55.5,33.8,90.5,57.2,115.1,77c4.4,3.6,6.3,4.1,6.3,1.8c0-0.8-4-7.8-8.7-15.5c-24.8-40-42.9-63.7-80.4-105.8
		c-5.8-6.5-14.5-16.4-19.4-22.1c-72.4-83.9-174.3-169.6-281.2-236.9c-42-26.4-76.1-44.2-122-63.6c-39-16.5-53.5-23.1-89.5-41.2
		c-69.2-34.6-131.2-68.6-165.4-90.9c-5.6-3.6-10.4-6.6-10.9-6.6C1410.8,672.5,1409.1,675.4,1407.3,678.9z"/>
	<path id="structure53_text8376_ECIC-2" bar:growlevel="0" bar:type="" class="st62" d="M1527.1,882.6c0,1.5,5.2,7.6,37.8,43.2
		c44.3,48.5,63.5,70.7,77,88.8c7.9,10.6,11.8,17.2,20.1,33.8c18.1,36.1,24.8,64.3,24.7,104.7c-0.1,32.1-3.9,65.2-12.5,109.8
		c-7.5,38.2-7.5,44.1,0,44.1c12.6,0,24.5-34.6,30.9-89.6c2.3-19.8,2.3-79.5,0-96.9c-2.3-17-6.1-35.4-10-46.7
		c-10.4-31.1-30.6-64.7-55.8-93.2c-22.3-25.3-76.6-75.5-100.1-92.6C1530.1,881.4,1527.1,880,1527.1,882.6z"/>
	<path id="structure54_label49_V1B" bar:growlevel="0" bar:type="" class="st63" d="M1761.8,713.8c-23.6,61.8-42.9,113.1-42.9,114
		c0,1.3,3.1,3.2,12,7.7c29.3,14.8,61.6,34.1,99.4,59.4c9.5,6.3,17.6,11.5,18,11.5c1.3-0.1,140.2-201.6,140.5-203.7
		c0.4-3.6-30.3-24-70.9-47.2c-38.7-22-59.9-33-83.7-43.2c-9.6-4.1-27.6-11.1-28.7-11.1C1805,601.4,1785.3,651.9,1761.8,713.8z"/>
	<path id="structure55_label50_V1M" bar:growlevel="0" bar:type="" class="st64" d="M1643.7,579c-28.5,1.5-60.1,5.7-89.7,11.6
		c-27,5.5-47.5,11.8-47.5,14.7c0,0.7,7.4,9.5,16.4,19.6c71.7,80.7,120.9,141.8,140,174l4.7,7.9l19.2,8.4
		c10.5,4.6,21.7,9.4,24.8,10.8c3.1,1.4,5.9,2.3,6.1,2.1c1-1.1,85.9-224.1,85.9-225.7c0-1.4-1.9-2.3-10.1-4.9
		C1744,582.1,1695.9,576.2,1643.7,579z"/>
	<path id="structure56_label51_V2MM" bar:growlevel="0" bar:type="" class="st65" d="M1486.8,613.5c-26.6,13-46.3,26-59.9,39.5
		c-6.6,6.6-14.9,16.8-14.9,18.4c0,0.5,5,4.1,11.1,8c34.8,22.7,97.5,57,167.1,91.5c35.5,17.7,70.7,33.8,73.4,33.8
		c1.9,0,1.5-1.6-1.2-6.2c-16.2-27.9-63.8-87.6-127.4-159.8c-27.5-31.1-29.2-32.9-31-32.9C1503.1,605.9,1495.4,609.3,1486.8,613.5z"
		/>
	<path class="st66" d="M1240.7,776.2c-13.9-13.1-32.1-18.9-62.7-19.6c-1.2,0-2.5,0-3.7-0.1l0.5,135.3c2.8,0,5.5-0.1,8.2-0.5
		c23.4-3,45.6-14.7,65.8-34.7c12.1-12.1,16.3-19.4,17.1-29.8C1267,811.2,1257.8,792.4,1240.7,776.2z"/>
	<path id="structure58_label53_DCIC" bar:growlevel="0" bar:type="" class="st67" d="M1389,817.5c-10.4,1.1-23.6,4.1-34,7.7
		c-22,7.7-33.8,14.9-113.6,70.3c-33,23-47.3,33.6-47.3,35.3c0,4,3.1,20.1,6.4,32.4c9.2,35.4,25.1,75.6,49.4,124.7
		c16.5,33.2,45.5,84.1,48.1,84.1c0.9,0.1,16.6-24.5,37.7-58.9c27.4-45,51.9-89.9,60.3-110.8c8.2-20.5,14.4-45.6,26.6-108.4
		c8.7-44.7,12.4-61.5,15-66.8c1.9-4,1.7-4.2-7.8-6.8C1417.4,816.7,1404,815.9,1389,817.5z"/>
	<path id="structure59_label54_CIC" bar:growlevel="0" bar:type="" class="st68" d="M1438.2,825.8c-2.1,4.7-5.7,19.9-10.5,44.6
		c-19.6,100.5-23.9,116.9-37.6,145.9c-13.6,28.8-45,83.1-80.8,139.6c-5.9,9.3-10.7,17.1-10.7,17.5c0,0.7,18.2,26.9,29.2,42.1
		c26.3,36.1,58.3,72.2,81.9,92.3c24.6,20.9,64.4,47,89.3,58.7c11.4,5.3,25.6,10.7,28.3,10.7c2.9,0,9.2-4.7,19.6-14.8
		c16.7-16.2,28.9-34.4,47.9-71.9c15.7-31.1,20.6-45.1,23.9-67.4c2.1-13.9,1.4-47.4-1.3-63.7c-6.7-41.1-20.9-88.5-41.1-137.5
		c-7.6-18.5-29.5-62.5-40.5-81.2c-28.9-49.4-74.1-108.4-87.5-114.1C1440.7,823.4,1439.4,823.2,1438.2,825.8z"/>
	<path class="st69" d="M1217.8,1090.8c-6.7-9.3-17.2-19.3-25.5-24.2c-8.9-5.3-9.9-7.5-10.9-25.4c-0.8-14.4-1.8-19-4.4-20.4
		c-0.6-0.3-1.2-0.5-1.8-0.6l0.7,180.7c15.3,0.1,30.6,1.3,42.7,3.6c29.8,5.6,62.9,24.2,75.9,42.8c5.9,8.5,7.7,10.4,11.3,12.2
		c4.1,2.2,5.3,2.3,5.3,0.4C1311.1,1254,1231.3,1109.6,1217.8,1090.8z"/>
	<path class="st70" d="M1339.4,1319.2c-4.6-11.5-10.2-23.8-18.5-41.3c-7.3-15-7.4-15-11-16c-5.9-1.5-9.5-4.3-13.2-10.1
		c-12.5-19.9-43.7-39-74.5-45.6c-11.3-2.4-27.9-3.8-46.3-3.9l0.2,52.9c7.7,0.1,15.4,0.6,22.6,1.5c16.1,2.1,31.3,7.5,38,13.3
		c4.7,4.1,7.2,9.7,7.1,16c-0.2,18.6-12.9,28.4-41.4,32.2c-5.8,0.8-15.7,1.2-26,1.3l0.4,96.8c102.8,0,111.9-0.6,127.5-8
		c21.5-10,34.1-30,37.5-59.5C1343.4,1333.6,1343,1328.4,1339.4,1319.2z"/>
	<path id="structure62_label57_LPAG" bar:growlevel="0" bar:type="" class="st71" d="M1241.7,1102.4c-4.1,5.8-7.7,10.9-7.8,11.3
		c-0.2,0.4,8,15.4,18.2,33.4c29.5,52.4,47.3,85.4,62.1,115.4c25,50.3,36.4,79.2,38.1,96.4l0.5,5.5l19.9,5.7
		c10.9,3.2,24.3,7,29.6,8.7c5.4,1.7,10.1,2.9,10.4,2.5c1.2-1.2-9-51.9-15.2-75.1l-3-11.2l-8.9-9.5
		c-48.2-50.9-97.9-121.9-129.2-184.4c-2.5-5-5.1-9.1-5.8-9.1C1249.8,1091.9,1246,1096.6,1241.7,1102.4z"/>
	<path class="st5" d="M1819.7,1611.3c-3.6-2.1-5.1-2.4-11.3-2.4c-8.3,0-13.2,2.1-20.9,8.6c-12,10.4-15.9,17.2-37.6,65.2
		c-5.8,12.9-13.7,30.2-17.6,38.7c-7.6,16.5-10.4,25.7-13.9,44.5c-4.3,23.9-5.1,40.2-2.7,58.1c1.8,13,2,30.3,0.4,38.3
		c-1.6,8.3-4.7,15.5-13.6,31.9c-4.3,7.9-12.2,22.5-17.6,32.4c-12.2,22.8-13,24-21.1,30.7c-3.6,3.1-7.4,6.8-8.3,8.1
		c-0.9,1.4-4,10.9-6.9,21.1c-10.8,37.1-28.1,95.1-30.1,101.3c-5.2,14.8-9.6,22.1-15.2,24.5c-1.9,0.8-3.4,2-3.4,2.4
		c0,2.3-5.5,12.2-9,16.1c-7.6,8.6-19.7,15.6-50.3,28.9c-23.8,10.4-36.2,15.2-40.9,15.7c-3.5,0.4-6.2,1.6-12.6,5.8
		c-10.4,6.8-34.6,18.6-45.1,22.1c-8.6,2.8-14.9,4.3-32.9,7.8c-6.2,1.2-19.9,4.6-30.5,7.6c-10.6,3-19.8,5.4-20.5,5.4
		c-1.5,0-1.5,2.3,0.1,3.6c2.6,2.1,4.4,8.7,3.9,13.9c-0.6,6.6-4.5,14.4-8.2,16.6c-7.3,4.5-22.9,6.1-46,4.7
		c-22.5-1.5-47.1-5.6-89.1-15c-23.7-5.3-27-6.4-30.1-9.9l-2.5-2.8l-0.5-62.9c-0.5-67.6-2.1-150.8-3.2-182.2c-0.5-15.2-1-20-2.2-22.2
		c-0.5-0.9-1-1.7-1.6-2.4l1.2,308.1l7.3,1.2c32,5.4,130,11,154.3,8.7c45-4.2,106.4-26.2,151-54c31-19.4,86-58.1,110-77.1
		c12.4-10,39.7-32.6,43.4-36c1.1-1,1.1-1.7,0.1-4.8c-1-3.1-0.9-4.7,0.4-11.3c2.3-11.1,7.7-27.8,15.9-48.3
		c16.2-40.7,25.8-61.3,31.7-67.9c2.5-2.9,3-3.1,6.8-2.5l4.1,0.4l14.6-24.5c18.2-30.8,23.4-40.1,39.2-70.5
		c28.3-54.2,58-117.7,70-149.8c5.8-15.4,16.1-64.5,16.1-76.8C1844.8,1641.1,1833.9,1619.6,1819.7,1611.3z"/>
	<path class="st72" d="M1301.2,1992.9c-14.1-11.3-26.6-19.3-43.7-27.5c-28.3-13.9-51.3-19.4-63-15.2c-7.8,2.8-14.6,11.1-13.7,16.9
		c0.2,1.5,0.8,5,1.3,7.7c0.5,2.7,1.2,19.7,1.4,37.8c0.9,54.6,1.6,73.8,2.7,73.8c0.5,0,1.8-1.3,2.8-2.8c1-1.4,3.5-4.1,5.6-5.9
		c9.8-8.1,20.1-10.3,41.2-8.5c11.6,0.9,33.5,3.7,40.3,5.1c2.1,0.5,2.4,0.3,2.4-1.6c0-3,3.2-5.9,9.1-7.8c5.8-2.1,25-6.6,36.3-8.6
		c4.4-0.8,8.5-1.8,8.9-2.3c0.4-0.4,1.1-4.5,1.3-8.9C1335.3,2026.8,1326.9,2013.3,1301.2,1992.9z"/>
	<path class="st30" d="M1819.7,1611.3c-3.6-2.1-5.1-2.4-11.3-2.4c-8.3,0-13.2,2.1-20.9,8.6c-12,10.4-15.9,17.2-37.6,65.2
		c-5.8,12.9-13.7,30.2-17.6,38.7c-7.6,16.5-10.4,25.7-13.9,44.5c-4.3,23.9-5.1,40.2-2.7,58.1c1.8,13,2,30.3,0.4,38.3
		c-1.6,8.3-4.7,15.5-13.6,31.9c-4.3,7.9-12.2,22.5-17.6,32.4c-12.2,22.8-13,24-21.1,30.7c-3.6,3.1-7.4,6.8-8.3,8.1
		c-0.9,1.4-4,10.9-6.9,21.1c-10.8,37.1-28.1,95.1-30.1,101.3c-5.2,14.8-9.6,22.1-15.2,24.5c-1.9,0.8-3.4,2-3.4,2.4
		c0,2.3-5.5,12.2-9,16.1c-7.6,8.6-19.7,15.6-50.3,28.9c-23.8,10.4-36.2,15.2-40.9,15.7c-3.5,0.4-6.2,1.6-12.6,5.8
		c-10.4,6.8-34.6,18.6-45.1,22.1c-8.6,2.8-14.9,4.3-32.9,7.8c-6.2,1.2-19.9,4.6-30.5,7.6c-10.6,3-19.8,5.4-20.5,5.4
		c-1.5,0-1.5,2.3,0.1,3.6c2.6,2.1,4.4,8.7,3.9,13.9c-0.6,6.6-4.5,14.4-8.2,16.6c-7.3,4.5-22.9,6.1-46,4.7
		c-22.5-1.5-47.1-5.6-89.1-15c-23.7-5.3-27-6.4-30.1-9.9l-2.5-2.8l-0.5-62.9c-0.5-67.6-2.1-150.8-3.2-182.2c-0.5-15.2-1-20-2.2-22.2
		c-0.5-0.9-1-1.7-1.6-2.4l1.2,308.1l7.3,1.2c32,5.4,130,11,154.3,8.7c45-4.2,106.4-26.2,151-54c31-19.4,86-58.1,110-77.1
		c12.4-10,39.7-32.6,43.4-36c1.1-1,1.1-1.7,0.1-4.8c-1-3.1-0.9-4.7,0.4-11.3c2.3-11.1,7.7-27.8,15.9-48.3
		c16.2-40.7,25.8-61.3,31.7-67.9c2.5-2.9,3-3.1,6.8-2.5l4.1,0.4l14.6-24.5c18.2-30.8,23.4-40.1,39.2-70.5
		c28.3-54.2,58-117.7,70-149.8c5.8-15.4,16.1-64.5,16.1-76.8C1844.8,1641.1,1833.9,1619.6,1819.7,1611.3z"/>
	<path id="structure7_label1_PnO" bar:growlevel="0" bar:type="" class="st73" d="M1367.4,1762c-30.9,3.4-59,12.2-80.7,25.3
		c-6.8,4-7,4.4-7,7.6c0,4.5-4,42.1-6.8,64.3c-6,47-10.1,63.4-21.8,87.7c-3.1,6.6-5.6,12.2-5.3,12.4c0.3,0.3,4.2,2.3,8.8,4.3
		c28.5,12.9,61.7,38.3,73,55.9c4,6.1,4.4,6.5,9.4,7.8c15.5,4.3,45.3,6.6,68.6,5.1c33.5-2,58.3-7.6,81.3-18.2c7.7-3.6,8-3.8,10.2-8.7
		c2.6-5.7,11.6-20.9,16.1-27.3c10.1-14.1,16.9-44.9,15.4-69.1c-2.8-44.7-13.4-73.4-37.8-102.5c-19.7-23.4-44.5-38.3-71.8-42.9
		C1410.8,1762.3,1375.4,1761.2,1367.4,1762z"/>
	<path id="structure81_label76_ts" bar:growlevel="0" bar:type="" class="st74" d="M1259.8,1741.4c-5,2.2-11.4,7.3-12.4,9.9
		c-0.5,1.4-1.6,12.6-2.4,25c-1.6,25.7-4.4,49.4-9.5,82.3c-2,12.6-4.2,28.2-5,34.7c-1.8,14.8-1.9,49.1-0.1,55.8
		c1.1,4.1,1.5,4.7,6.1,6.9c8.6,4.3,9.7,3.6,16.2-10.6c12.2-26.5,17-50.5,24.7-122.3c5.6-52.1,5.2-72.6-1.4-80.2
		c-2.5-2.8-3.1-3.1-7.8-3C1265.2,1740,1261.5,1740.6,1259.8,1741.4z"/>
	<path id="structure8_text7648_Pn" bar:growlevel="0" bar:type="" class="st15" d="M1324.6,2056.6c-15.9,2.8-36.8,8-40.8,10.2
		c-3.5,2-6.3,6.2-4.9,7.6c0.4,0.3,5.4,1.4,11.3,2.6c34.1,6.8,63.4,16.6,72.5,24.8c3,2.6,3.5,2.7,11.1,2.7c11.7,0,20.2,2.8,30.3,9.8
		c5.2,3.5,15.1,13.6,18.7,19c3.4,4.9,5.4,5.6,6.9,2.3c2-4.2,1.3-9.7-1.6-14.1c-4.9-7.4-19.8-24.3-31.9-36.3
		c-13-12.8-24.2-21.4-34.7-26.5c-6.4-3.1-7.2-3.2-17.1-3.4C1337.6,2055,1330.8,2055.5,1324.6,2056.6z"/>
	<text id="text7648" bar:growlevel="0" transform="matrix(1 0 0 1 1333.1846 2079.9648)" class="st75 st76 st77">Pn</text>
	<text id="text7646" bar:growlevel="0" transform="matrix(1 0 0 1 1245.9736 2235.0625)" class="st75 st76 st77">Pn</text>
	<text id="label30" bar:growlevel="0" transform="matrix(1 0 0 1 1470.1709 1516.6367)" class="st75 st76 st77">LPB</text>
	<g id="label31" bar:growlevel="0">
		<text transform="matrix(1 0 0 1 1212.6455 1446.7402)" class="st78 st76 st77">4</text>
		<text transform="matrix(1 0 0 1 1226.1455 1446.7402)" class="st78 st76 st77">V</text>
	</g>
	<g id="label32" bar:growlevel="0">
		<text transform="matrix(1 0 0 1 1671.4932 1545.5117)" class="st78 st76 st77">D</text>
		<text transform="matrix(1 0 0 1 1690.9932 1545.5117)" class="st78 st76 st77">L</text>
		<text transform="matrix(1 0 0 1 1707.4873 1545.5117)" class="st78 st76 st77">L</text>
	</g>
	<g id="label33" bar:growlevel="0">
		<text transform="matrix(1 0 0 1 1696.665 1661.2129)" class="st78 st76 st77">I</text>
		<text transform="matrix(1 0 0 1 1705.6563 1661.2129)" class="st78 st76 st77">L</text>
		<text transform="matrix(1 0 0 1 1722.1475 1661.2129)" class="st78 st76 st77">L</text>
	</g>
	<text id="label34" bar:growlevel="0" transform="matrix(1 0 0 1 1698.1064 1438.9941)" class="st75 st76 st77">Sag</text>
	<g id="label35" bar:growlevel="0">
		<text transform="matrix(1 0 0 1 1734.4932 1497.3535)" class="st78 st76 st77">R</text>
		<text transform="matrix(1 0 0 1 1752.5049 1497.3535)" class="st78 st76 st77">L</text>
	</g>
	<text id="label36" bar:growlevel="0" transform="matrix(1 0 0 1 2050.0352 1582.3574)" class="st75 st76 st77">MEnt</text>
	<text id="label37" bar:growlevel="0" transform="matrix(1 0 0 1 1935.165 1494.291)" class="st75 st76 st77">CEnt</text>
	<text id="label38" bar:growlevel="0" transform="matrix(1 0 0 1 2212.6064 1454.4746)" class="st75 st76 st77">DLEnt</text>
	<text id="label39" bar:growlevel="0" transform="matrix(1 0 0 1 2224.126 1280.2949)" class="st75 st76 st77">PRh</text>
	<text id="label142" bar:growlevel="0" transform="matrix(1 0 0 1 1373.7432 2175.2031)" class="st75 st76 st77">lfp</text>
	<text id="label141" bar:growlevel="0" transform="matrix(1 0 0 1 1263.0449 2151.8574)" class="st75 st76 st77">ml</text>
	<text id="label140" bar:growlevel="0" transform="matrix(1 0 0 1 1240.3955 2105.5586)" class="st75 st76 st77">tth</text>
	<text id="label147" bar:growlevel="0" transform="matrix(1 0 0 1 1421.7578 1477.8379)" class="st75 st76 st77">4n</text>
	<text id="label146" bar:growlevel="0" transform="matrix(1 0 0 1 1473.9443 1558.7441)" class="st75 st76 st77">scp</text>
	<text id="Unlabeled-1793-1230" bar:growlevel="0" transform="matrix(1 0 0 1 1204.1846 1288.6621)" class="st75 st76 st77">2Cb</text>
	<text id="label8" bar:growlevel="0" transform="matrix(1 0 0 1 1504.501 2134.7363)" class="st75 st76 st77">MVPO</text>
	<g id="label9" bar:growlevel="0">
		<text transform="matrix(1 0 0 1 1508.4238 2085.9043)" class="st78 st76 st77">C</text>
		<text transform="matrix(1 0 0 1 1526.4326 2085.9043)" class="st78 st76 st77">A</text>
		<text transform="matrix(1 0 0 1 1542.9385 2085.9043)" class="st78 st76 st77">T</text>
	</g>
	<text id="label0" bar:growlevel="0" transform="matrix(1 0 0 1 1216.5742 2031.8691)" class="st75 st76 st77">RtTg</text>
	<text id="label1" bar:growlevel="0" transform="matrix(1 0 0 1 1365.915 1907.9746)" class="st75 st76 st77">PnO</text>
	<text id="Unlabeled-1779-870" bar:growlevel="0" transform="matrix(1 0 0 1 1184.6846 968.4121)" class="st75 st76 st77">Com</text>
	<g id="label18" bar:growlevel="0">
		<text transform="matrix(1 0 0 1 1665.7627 1628.3574)" class="st78 st76 st77">L</text>
	</g>
	<g id="label19" bar:growlevel="0">
		<text transform="matrix(1 0 0 1 1680.1943 1628.3574)" class="st78 st76 st77">L</text>
	</g>
	<text id="label12" bar:growlevel="0" transform="matrix(1 0 0 1 1566.7041 1797.3477)" class="st75 st76 st77">A7</text>
	<text id="label13" bar:growlevel="0" transform="matrix(1 0 0 1 1333.4834 1714.4102)" class="st75 st76 st77">DMTg</text>
	<g id="label10" bar:growlevel="0">
		<text transform="matrix(1 0 0 1 1561.5303 2021.3633)" class="st78 st76 st77">V</text>
		<text transform="matrix(1 0 0 1 1581.0303 2021.3633)" class="st78 st76 st77">L</text>
		<text transform="matrix(1 0 0 1 1597.5215 2021.3633)" class="st78 st76 st77">L</text>
	</g>
	<g id="label11" bar:growlevel="0">
		<text transform="matrix(1 0 0 1 1506.2998 2017.2969)" class="st78 st76 st77">P</text>
		<text transform="matrix(1 0 0 1 1521.3174 2017.2969)" class="st78 st76 st77">L</text>
		<text transform="matrix(1 0 0 1 1535.333 2017.2969)" class="st78 st76 st77">V</text>
	</g>
	<g id="label16" bar:growlevel="0">
		<text transform="matrix(1 0 0 1 1574.9248 1611.9746)" class="st78 st76 st77">M</text>
		<text transform="matrix(1 0 0 1 1598.9307 1611.9746)" class="st78 st76 st77">P</text>
		<text transform="matrix(1 0 0 1 1613.9482 1611.9746)" class="st78 st76 st77">L</text>
	</g>
	<g id="label17" bar:growlevel="0">
		<text transform="matrix(1 0 0 1 1642.126 1628.3574)" class="st78 st76 st77">T</text>
		<text transform="matrix(1 0 0 1 1657.668 1628.3574)" class="st78 st76 st77">r</text>
	</g>
	<text id="label15" bar:growlevel="0" transform="matrix(1 0 0 1 1594.3047 1730.7637)" class="st75 st76 st77">KF</text>
	<text id="Unlabeled-1799-1987" bar:growlevel="0" transform="matrix(1 0 0 1 1183.7852 1952.1113)" class="st75 st76 st77">grey</text>
	<g id="label165" bar:growlevel="0">
		<text transform="matrix(1 0 0 1 1197.6396 1016.5117)" class="st78 st76 st77">D</text>
		<text transform="matrix(1 0 0 1 1217.1396 1016.5117)" class="st78 st76 st77">M</text>
		<text transform="matrix(1 0 0 1 1241.1455 1016.5117)" class="st78 st76 st77">P</text>
		<text transform="matrix(1 0 0 1 1253.6846 1016.5117)" class="st78 st76 st77">A</text>
		<text transform="matrix(1 0 0 1 1273.1816 1016.5117)" class="st78 st76 st77">G</text>
	</g>
	<text id="label166" bar:growlevel="0" transform="matrix(1 0 0 1 1410.3877 1526.9316)" class="st75 st76 st77">me5</text>
	<text id="Unlabeled-1821-1580" bar:growlevel="0" transform="matrix(1 0 0 1 1212.1357 1613.8613)" class="st75 st76 st77">CG</text>
	<text id="Unlabeled-2173-1553" bar:growlevel="0" transform="matrix(1 0 0 1 1515.4346 1604.8613)" class="st75 st76 st77">scp</text>
	<text id="label118" bar:growlevel="0" transform="matrix(1 0 0 1 1180.9932 2289.3418)" class="st75 st76 st77">bas</text>
	<text id="label119" bar:growlevel="0" transform="matrix(1 0 0 1 1194.3232 1785.127)" class="st75 st76 st77">PMnR</text>
	<text id="label69" bar:growlevel="0" transform="matrix(1 0 0 1 1390.0029 2247.9355)" class="st75 st76 st77">tfp</text>
	<text id="Unlabeled-2152-2072" bar:growlevel="0" transform="matrix(1 0 0 1 1421.834 2065.9609)" class="st75 st76 st77">grey</text>
	<text id="label100" bar:growlevel="0" transform="matrix(1 0 0 1 1577.7314 1357.9844)" class="st75 st76 st77">ECIC</text>
	<text id="Unlabeled-2400-814" bar:growlevel="0" transform="matrix(1 0 0 1 1735.9932 1094.7559)" class="st75 st76 st77">vBrain</text>
	<text id="label109" bar:growlevel="0" transform="matrix(1 0 0 1 1765.7676 1362.9473)" class="st75 st76 st77">4n</text>
	<text id="label108" bar:growlevel="0" transform="matrix(1 0 0 1 1799.2627 1321.2813)" class="st75 st76 st77">v</text>
	<text id="label76" bar:growlevel="0" transform="matrix(1 0 0 1 1246.9932 1844.5156)" class="st75 st76 st77">ts</text>
	<text id="Unlabeled-2580-1057" bar:growlevel="0" transform="matrix(1 0 0 1 2092.334 1322.2637)" class="st75 st76 st77">grey</text>
	<text id="label133" bar:growlevel="0" transform="matrix(1 0 0 1 1660.3047 1702.1699)" class="st75 st76 st77">vsc</text>
	<g id="label130" bar:growlevel="0">
		<text transform="matrix(1 0 0 1 1532.9541 1507.6953)" class="st78 st76 st77">C</text>
		<text transform="matrix(1 0 0 1 1550.9658 1507.6953)" class="st78 st76 st77">n</text>
		<text transform="matrix(1 0 0 1 1564.4658 1507.6953)" class="st78 st76 st77">F</text>
		<text transform="matrix(1 0 0 1 1579.4805 1507.6953)" class="st78 st76 st77">V</text>
	</g>
	<text id="label131" bar:growlevel="0" transform="matrix(1 0 0 1 1180.4746 1821.1914)" class="st75 st76 st77">MnR</text>
	<text id="label134" bar:growlevel="0" transform="matrix(1 0 0 1 1669.6943 2050.291)" class="st75 st76 st77">m5</text>
	<text id="label135" bar:growlevel="0" transform="matrix(1 0 0 1 1830.9443 1979.6582)" class="st75 st76 st77">tz</text>
	<g id="label41" bar:growlevel="0">
		<text transform="matrix(1 0 0 1 2092.6357 988.4629)" class="st78 st76 st77">T</text>
		<text transform="matrix(1 0 0 1 2107.2432 988.4629)" class="st78 st76 st77">e</text>
		<text transform="matrix(1 0 0 1 2119.2256 988.4629)" class="st78 st76 st77">A</text>
	</g>
	<text id="label40" bar:growlevel="0" transform="matrix(1 0 0 1 2181.9443 1126.6973)" class="st75 st76 st77">Ect</text>
	<text id="label43" bar:growlevel="0" transform="matrix(1 0 0 1 1791.2852 1110.3145)" class="st75 st76 st77">PaS</text>
	<text id="label45" bar:growlevel="0" transform="matrix(1 0 0 1 1722.2236 944.4453)" class="st75 st76 st77">RSD</text>
	<g id="label44" bar:growlevel="0">
		<text transform="matrix(1 0 0 1 1974.9736 868.6836)" class="st78 st76 st77">V</text>
		<text transform="matrix(1 0 0 1 1994.4736 868.6836)" class="st78 st76 st77">2</text>
		<text transform="matrix(1 0 0 1 2007.9736 868.6836)" class="st78 st76 st77">L</text>
	</g>
	<text id="label46" bar:growlevel="0" transform="matrix(1 0 0 1 1711.8291 1219.5156)" class="st79 st76 st77">.ECIC-1</text>
	<text id="label114" bar:growlevel="0" transform="matrix(1 0 0 1 1773.2529 1947.9414)" class="st75 st76 st77">s5</text>
	<text id="label115" bar:growlevel="0" transform="matrix(1 0 0 1 1675.9932 1868.0703)" class="st75 st76 st77">m5</text>
	<text id="label116" bar:growlevel="0" transform="matrix(1 0 0 1 1632.4639 1903.8945)" class="st75 st76 st77">ll</text>
	<text id="label117" bar:growlevel="0" transform="matrix(1 0 0 1 1576.334 1857.8359)" class="st75 st76 st77">rs</text>
	<text id="label110" bar:growlevel="0" transform="matrix(1 0 0 1 1808.8486 1541.6211)" class="st75 st76 st77">a</text>
	<text id="text8376" bar:growlevel="0" transform="matrix(1 0 0 1 1691.8193 1149.2129)" class="st75 st76 st77">ECIC-2</text>
	<text id="text8374" bar:growlevel="0" transform="matrix(1 0 0 1 1606.917 1072.4219)" class="st79 st76 st77">.ECIC-3</text>
	<text id="label111" bar:growlevel="0" transform="matrix(1 0 0 1 1819.3193 1564.1563)" class="st75 st76 st77">a</text>
	<text id="label56" bar:growlevel="0" transform="matrix(1 0 0 1 1224.5547 1366.2617)" class="st75 st76 st77">2Cb</text>
	<g id="label57" bar:growlevel="0">
		<text transform="matrix(1 0 0 1 1340.1162 1294.4277)" class="st78 st76 st77">L</text>
		<text transform="matrix(1 0 0 1 1356.6074 1294.4277)" class="st78 st76 st77">P</text>
		<text transform="matrix(1 0 0 1 1369.1436 1294.4277)" class="st78 st76 st77">A</text>
		<text transform="matrix(1 0 0 1 1388.6436 1294.4277)" class="st78 st76 st77">G</text>
	</g>
	<text id="label55" bar:growlevel="0" transform="matrix(1 0 0 1 1207.6357 1167.3242)" class="st75 st76 st77">ReIC</text>
	<text id="label52" bar:growlevel="0" transform="matrix(1 0 0 1 1181.3564 835.0762)" class="st75 st76 st77">Pi</text>
	<text id="label53" bar:growlevel="0" transform="matrix(1 0 0 1 1276.8145 979.252)" class="st75 st76 st77">DCIC</text>
	<text id="label50" bar:growlevel="0" transform="matrix(1 0 0 1 1638.8857 692.5508)" class="st75 st76 st77">V1M</text>
	<text id="label51" bar:growlevel="0" transform="matrix(1 0 0 1 1493.0547 708.9043)" class="st75 st76 st77">V2MM</text>
	<text id="label113" bar:growlevel="0" transform="matrix(1 0 0 1 1763.6846 1721.6445)" class="st75 st76 st77">mcp</text>
	<text id="label121" bar:growlevel="0" transform="matrix(1 0 0 1 1198.3955 1662.207)" class="st75 st76 st77">mlf</text>
	<text id="label120" bar:growlevel="0" transform="matrix(1 0 0 1 1445.084 1601.8027)" class="st75 st76 st77">MPB</text>
	<text id="label122" bar:growlevel="0" transform="matrix(1 0 0 1 1185.1123 1511.2773)" class="st75 st76 st77">DRC</text>
	<text id="label129" bar:growlevel="0" transform="matrix(1 0 0 1 1542.9678 1485.125)" class="st75 st76 st77">CnFI</text>
	<text id="label128" bar:growlevel="0" transform="matrix(1 0 0 1 1407.2236 1507.4336)" class="st75 st76 st77">Me5</text>
	<text id="label112" bar:growlevel="0" transform="matrix(1 0 0 1 1829.7578 1545.7305)" class="st75 st76 st77">a</text>
	<text id="label54" bar:growlevel="0" transform="matrix(1 0 0 1 1461.3145 1139)" class="st75 st76 st77">CIC</text>
	<g id="label23" bar:growlevel="0">
		<text transform="matrix(1 0 0 1 1342.9287 1637.0664)" class="st78 st76 st77">L</text>
		<text transform="matrix(1 0 0 1 1359.4229 1637.0664)" class="st78 st76 st77">D</text>
		<text transform="matrix(1 0 0 1 1378.9199 1637.0664)" class="st78 st76 st77">T</text>
		<text transform="matrix(1 0 0 1 1395.4111 1637.0664)" class="st78 st76 st77">g</text>
		<text transform="matrix(1 0 0 1 1408.9111 1637.0664)" class="st78 st76 st77">V</text>
	</g>
	<text id="label22" bar:growlevel="0" transform="matrix(1 0 0 1 1492.2725 1441.4961)" class="st75 st76 st77">CnFD</text>
	<text id="label21" bar:growlevel="0" transform="matrix(1 0 0 1 1583.1748 1516.8711)" class="st75 st76 st77">LPBS</text>
	<text id="label20" bar:growlevel="0" transform="matrix(1 0 0 1 1535.21 1553.8613)" class="st75 st76 st77">PTg</text>
	<text id="label26" bar:growlevel="0" transform="matrix(1 0 0 1 1223.9834 1681.9375)" class="st75 st76 st77">VTg</text>
	<g id="label25" bar:growlevel="0">
		<text transform="matrix(1 0 0 1 1212.8535 1554.8066)" class="st78 st76 st77">D</text>
		<text transform="matrix(1 0 0 1 1232.3506 1554.8066)" class="st78 st76 st77">T</text>
		<text transform="matrix(1 0 0 1 1248.8447 1554.8066)" class="st78 st76 st77">g</text>
		<text transform="matrix(1 0 0 1 1262.3447 1554.8066)" class="st78 st76 st77">P</text>
	</g>
	<text id="label24" bar:growlevel="0" transform="matrix(1 0 0 1 1294.583 1539.6348)" class="st75 st76 st77">LDTg</text>
	<g id="label29" bar:growlevel="0">
		<text transform="matrix(1 0 0 1 1328.1865 1452.4004)" class="st78 st76 st77">V</text>
		<text transform="matrix(1 0 0 1 1347.6865 1452.4004)" class="st78 st76 st77">L</text>
		<text transform="matrix(1 0 0 1 1364.1807 1452.4004)" class="st78 st76 st77">P</text>
		<text transform="matrix(1 0 0 1 1376.7168 1452.4004)" class="st78 st76 st77">A</text>
		<text transform="matrix(1 0 0 1 1396.2139 1452.4004)" class="st78 st76 st77">G</text>
	</g>
	<text id="label49" bar:growlevel="0" transform="matrix(1 0 0 1 1818.5547 767.2949)" class="st75 st76 st77">V1B</text>
	<text id="label163" bar:growlevel="0" transform="matrix(1 0 0 1 1268.6611 1637.3652)" class="st75 st76 st77">mlf</text>
</g>
</svg>
