<?xml version="1.0" encoding="utf-8"?>
<!-- Generator: Adobe Illustrator 24.1.1, SVG Export Plug-In . SVG Version: 6.00 Build 0)  -->
<svg version="1.1"
	 id="body" inkscape:version="0.47pre4 r22446" sodipodi:docname="74_pretrace_pretrace_v1.svg" xmlns:bar="http://www.3dbar.org" xmlns:cc="http://creativecommons.org/ns#" xmlns:dc="http://purl.org/dc/elements/1.1/" xmlns:inkscape="http://www.inkscape.org/namespaces/inkscape" xmlns:rdf="http://www.w3.org/1999/02/22-rdf-syntax-ns#" xmlns:sodipodi="http://sodipodi.sourceforge.net/DTD/sodipodi-0.dtd" xmlns:svg="http://www.w3.org/2000/svg"
	 xmlns="http://www.w3.org/2000/svg" xmlns:xlink="http://www.w3.org/1999/xlink" x="0px" y="0px" viewBox="0 0 3024 3024"
	 style="enable-background:new 0 0 3024 3024;" xml:space="preserve">
<style type="text/css">
	.st0{fill:#FF000C;}
	.st1{fill:#FF23E9;}
	.st2{fill:#FFB2DC;}
	.st3{fill:#FFFAB2;}
	.st4{fill:#E9E159;}
	.st5{fill:#FFEF00;}
	.st6{fill:#7447D4;}
	.st7{fill:#F3FF59;}
	.st8{fill:#D8E900;}
	.st9{fill:#C6D400;}
	.st10{fill:#6523C3;}
	.st11{fill:#98FF00;}
	.st12{fill:#84DF00;}
	.st13{fill:#BBFF59;}
	.st14{fill:#DFFFB2;}
	.st15{fill:#FEFF3B;}
	.st16{fill:#FFB2BA;}
	.st17{fill:#E99659;}
	.st18{fill:#FFF000;}
	.st19{fill:#5F23ED;}
	.st20{fill:#E0E959;}
	.st21{fill:#8847F2;}
	.st22{fill:#EEF423;}
	.st23{fill:#D0D447;}
	.st24{fill:#C4C923;}
	.st25{fill:#FFE900;}
	.st26{fill:#C3C900;}
	.st27{fill:#FFEC00;}
	.st28{fill:#FFDE00;}
	.st29{fill:#E6E98E;}
	.st30{fill:#FDFF76;}
	.st31{fill:#FEFFB2;}
	.st32{fill:#D3D43B;}
	.st33{fill:#FBFF8E;}
	.st34{fill:#E2E923;}
	.st35{fill:#F1F48E;}
	.st36{fill:#FFE300;}
	.st37{fill:#DBDF6B;}
	.st38{fill:#FF005D;}
	.st39{fill:#DEFFB2;}
	.st40{fill:#69FF00;}
	.st41{fill:#8CFF00;}
	.st42{fill:#610BE5;}
	.st43{fill:#97FF59;}
	.st44{fill:#C0E976;}
	.st45{fill:#8647F6;}
	.st46{fill:#83E900;}
	.st47{fill:#FFE600;}
	.st48{fill:#3FFF00;}
	.st49{fill:#B8FF00;}
	.st50{fill:#DBFFB2;}
	.st51{fill:#925FDC;}
	.st52{fill:#D86BC8;}
	.st53{fill:#DF6D00;}
	.st54{fill:#6117D8;}
	.st55{fill:#C6FF59;}
	.st56{fill:#E95B00;}
	.st57{fill:#8F6BE1;}
	.st58{fill:#E9DB00;}
	.st59{fill:#8AD400;}
	.st60{fill:#B9E959;}
	.st61{fill:#FF0045;}
	.st62{fill:#B2FF00;}
	.st63{fill:#9AE900;}
	.st64{fill:#F200DD;}
	.st65{fill:#92FF00;}
	.st66{fill:#B4FF59;}
	.st67{fill:#DDFFB2;}
	.st68{fill:#232323;enable-background:new    ;}
	.st69{font-family:'TimesNewRomanPSMT';}
	.st70{font-size:27px;}
</style>
<sodipodi:namedview  bordercolor="#666666" borderopacity="1" gridtolerance="10" guidetolerance="10" id="namedview9857" inkscape:current-layer="content" inkscape:cx="811.643" inkscape:cy="430.64476" inkscape:object-paths="true" inkscape:pageopacity="0" inkscape:pageshadow="2" inkscape:window-height="1128" inkscape:window-maximized="1" inkscape:window-width="1918" inkscape:window-x="1680" inkscape:window-y="24" inkscape:zoom="4.9718446" objecttolerance="10" pagecolor="#ffffff" showgrid="false">
	</sodipodi:namedview>
<desc  id="desc9574">This was produced by version 4.2 of GNU libplot, a free library for exporting 2-D vector graphics.</desc>
<defs>
	<rdf:RDF>
		<cc:Work  rdf:about="">
			<dc:format>image/svg+xml</dc:format>
			<dc:type  rdf:resource="http://purl.org/dc/dcmitype/StillImage"></dc:type>
		</cc:Work>
	</rdf:RDF>
	<bar:data  content="0.24" name="coronalcoord"></bar:data>
	
		<bar:data  content="{&apos;ReferenceHeight&apos;: 900, &apos;ReferenceWidth&apos;: 1200, &apos;imageSize&apos;: (1200, 900)}" name="rendererConf">
		</bar:data>
	
		<bar:data  content="{&apos;DumpEachStepSVG&apos;: False, &apos;DumpEachStepPNG&apos;: False, &apos;GrowDefaultBoundaryColor&apos;: 200, &apos;CacheLevel&apos;: 5, &apos;NewPathIdTemplate&apos;: &apos;structure%d_%s_%s&apos;, &apos;PoTraceConf&apos;: {&apos;potrace_accuracy_parameter&apos;: &apos;0.001&apos;, &apos;potrace_width_string&apos;: &apos;1200pt&apos;, &apos;potrace_svg_resolution_string&apos;: &apos;300x300&apos;, &apos;potrace_height_string&apos;: &apos;900pt&apos;}, &apos;DetectUnlabelled&apos;: True, &apos;DumpVBrain&apos;: False, &apos;DumpWrongSeed&apos;: True, &apos;DumpDirectory&apos;: &apos;.&apos;, &apos;MinFiterTimesApplication&apos;: 3, &apos;RegionAlreadyTraced&apos;: 100, &apos;UnlabelledTreshold&apos;: 500}" name="tracingConf">
		</bar:data>
	<bar:data  content="0.0176211454,-9.5150660793,0.0176211454,-1.5355884426" name="transformationmatrix"></bar:data>
</defs>
<g id="content">
	<path class="st0" d="M2346.4,1419.8c-2.3-130.5-32-262.2-81.7-361.8c-16-32-31.7-57-56.3-90c-130.9-175.8-303.2-292.7-482.8-327.5
		c-48.9-9.5-140-20.7-202.5-24.9c-26.9-1.9-84.3-2.2-104-0.5c-44.5,3.7-77.8,10.2-114.8,22.3c-54.8,18.1-98.9,52.4-133.3,103.7
		c-10.9,16.3-14.9,24.5-17.5,36.1c-1.2,5.2-2.2,10.7-2.2,12.1c0,1.9-0.4,2.5-1.5,2.3c-0.1,0-0.2-0.1-0.3-0.1v1319.7
		c18.6,0,37.2-0.5,45.2-1.4c28.8-3.3,60.8-13.6,76.9-24.6c16-10.9,22.2-26.1,16.6-40.7c-2.4-6.3-2.4-6.3,0.7-6.3
		c6.1,0,27.1,5.6,27.1,7.2c0,0.4-1.1,2.6-2.3,4.9c-2.9,5.1-2.6,10.3,0.7,13.8c5.5,6,13.1,5.7,17.8-0.8c1.5-2.1,2.7-4.2,2.7-4.9
		c0-1.6,2.3-1.4,3.7,0.4c3.5,4.1,25,15.8,40,21.7c4.5,1.7,13.7,4.2,20.5,5.7c6.8,1.4,13.7,3.2,15.3,4.1c4.1,2.3,8.1,8.7,10.4,16.6
		c4.1,13.4,4.7,14.6,10.8,20.7c12.4,12.5,33.5,19.6,69.8,23.8c46.9,5.4,144,2.7,201.2-5.5c40.3-5.8,69.5-13.3,103.8-26.9
		c8.2-3.2,18.3-6.7,22.4-7.6c8.6-2.1,31.2-5,32-4.2c0.4,0.3,0.1,1.5-0.5,2.8c-2.8,6.1,0.4,13.1,6.8,14.8c6.1,1.7,12.9-1.9,14.7-8
		c0.9-3,0.8-4-0.7-6.8c-1-1.9-3.1-4.1-4.6-4.8c-3.1-1.5-3.6-2.9-1.7-4.3c0.5-0.5,12.4-6.9,26.3-14.2c13.9-7.3,31.6-16.9,39.4-21.3
		c24.5-13.9,31.7-16.5,51.8-18.7c12.6-1.4,17.9-3.2,30.4-10.4c22.3-12.8,50.1-32.7,83.3-59.6c42.1-34.3,66.8-64.3,88.8-108.5
		c12.4-24.8,17.2-38.6,25.9-74.5c6.4-26.5,12.5-39.2,29.3-61.6c33.5-44.8,56.8-93.1,73.5-152.2
		C2342.6,1527.1,2347.5,1485.6,2346.4,1419.8z"/>
	<path id="structure103_label134_ZL" bar:growlevel="0" bar:type="" d="M1390.7,1570.3c-21.3,24-41,55.2-57.7,91.2
		c-15.6,33.7-25.8,63.2-25.8,74.2c0,6.7,1.8,15.4,3.2,15.4c0.7,0,1.3-0.9,1.3-2.2c0-10.4,15.6-51.5,32.4-85.6
		c12.8-25.8,35.6-64.5,49.6-83.8c4.6-6.3,6.2-9.4,6.7-12.5c0.6-3.7,0.5-4.1-1.2-4.1C1398,1562.9,1394.9,1565.6,1390.7,1570.3z"/>
	<path class="st1" d="M1159.9,1115.8c-2.8-3.6-6.2-5.4-10.3-5.3v25.9c4.4-0.1,8.6-2.2,10.8-5.7
		C1163.1,1126.3,1162.9,1119.8,1159.9,1115.8z"/>
	<path class="st2" d="M1147.8,1963c0,48.4,0,49,1.8,49v-98.1C1147.8,1913.9,1147.8,1914.6,1147.8,1963z"/>
	<path class="st2" d="M1149.6,1913.9v98.1c1.8,0,1.8-0.6,1.8-49C1151.4,1914.6,1151.4,1913.9,1149.6,1913.9z"/>
	<path id="structure106_text7922-5_Tu-2" bar:growlevel="0" bar:type="" class="st3" d="M1781.4,2053.4c-14.9,2.7-24.6,11.2-36,31.4
		c-3.7,6.6-8.5,13.9-10.8,16.2c-7.7,8,0.1,7.4-94.8,7.7c-60.7,0.1-87.3,0.4-96.3,1.3c-19.7,1.8-34.7-0.5-41.8-6.7
		c-3.9-3.3-4.2-6.9-1.2-11.3c2.2-3,12.1-9.8,21-14.4c8.2-4.2,7.7-5.5-2.1-6.8c-4.2-0.5-10.9-1.7-14.8-2.5c-3.9-0.9-8.4-1.4-9.9-1.2
		c-1.5,0.3-8.8,2.5-16.3,5c-7.4,2.5-15.8,5.2-18.6,6c-4.5,1.2-5.2,1.7-5.2,3.5c0,2,0.2,2.1,4.8,1.6c6.2-0.6,11.4,1.4,11.4,4.5
		c0,2.5-2.4,4.9-8.6,8.5c-2.4,1.4-5.1,3.7-5.8,5c-1.3,2.3-1.2,2.7,0.9,6.7c3.1,5.8,14.2,15.2,20.2,16.9c14.8,4.2,38.3,5.1,145,5.2
		c86.4,0.1,94.2,0,101.6-1.5c14.8-2.9,20-5.8,33.9-18.5c5.9-5.4,9.9-10.3,17-20.6c12.1-18,15.7-20.9,22.6-18.9
		c2,0.6,3.8,0.8,4.1,0.5c0.7-0.8-1.9-7.5-5.4-13.3c-2.8-4.7-3.1-4.9-6.9-5C1787.3,2052.8,1783.7,2053.1,1781.4,2053.4z"/>
	<path id="structure107_text7924-7_Tu-3" bar:growlevel="0" bar:type="" class="st4" d="M1767.2,2027.3c-1.1,0.4-7.2,1.9-13.5,3.2
		c-11.8,2.4-20.3,5.2-31.2,10.3c-24.9,11.4-35.6,13.8-72.7,16.6c-20.4,1.5-32.8,3.4-69.5,10.4c-21.1,4-25.9,4.6-36.4,4.8l-12.2,0.1
		l-11.2,5.8c-13.4,6.9-21.6,14-21.6,18.6c0,5.9,6.8,10.2,19,12.1c6.9,1.1,16.7,0.9,50.8-1.1c12.9-0.7,40.8-0.9,87-0.6
		c77.7,0.5,71.6,1.1,79.5-7.6c2.5-2.7,7.2-9.8,10.5-15.7c3.3-5.9,7.8-13,10-15.8c7.3-9.2,20.8-16.1,31.3-16.1c3.3,0,4.4-0.4,4.4-1.3
		c0-1.7-9.8-16.5-14.1-21.2C1773.9,2026.3,1771.5,2025.7,1767.2,2027.3z M1695.1,2060.7c2.6,1.4,6.2,6.3,6.2,8.5
		c0,6.3-10.2,7.6-18.6,2.3c-5.3-3.2-4.9-9.9,0.8-11.6C1686.6,2058.9,1692.6,2059.4,1695.1,2060.7z M1599.7,2075.8l2.2,1.7l-1.8,2.6
		c-3.9,5.3-14,8.8-34.2,12c-20.3,3.1-27.5,2.3-26.2-3.1c1.2-4.8,12.4-9.9,27.5-12.6c10.8-1.9,12.1-2.1,21.7-2.3
		C1596.3,2074.1,1597.9,2074.4,1599.7,2075.8z"/>
	<path id="structure108_text7926-6_Tu-1" bar:growlevel="0" bar:type="" class="st5" d="M1788.6,2072.7c-2.1,1.4-6.8,7.5-12.5,15.8
		c-14.1,20.9-28.5,33.7-43.2,38.3c-12.8,4.1-19.4,4.6-56.7,4.3c-19.1-0.1-63.6-0.4-99-0.5c-64.2-0.4-79.8-1-93.2-3.8
		c-3.4-0.7-12-2.5-18.9-4c-6.9-1.5-17.7-4.3-24-6.3c-6.2-2-11.6-3.6-11.9-3.6c-1.3,0-0.4,3.5,2.2,7.7c7,12.2,23.6,20.7,51.4,25.9
		c21.4,4.1,35.5,5.2,74.8,5.7c96.6,1.3,170.6-6.8,226.6-24.8c10.4-3.3,32.9-12,33.9-13.1c0.5-0.5-1.1-5.4-9-26.9
		c-4-11.1-4.9-12.7-7.7-14.7C1797.2,2069.9,1792.7,2069.9,1788.6,2072.7z"/>
	<path class="st6" d="M1253.1,1916.6c-7.2-21.5-15.6-38-45.2-88.7c-8.6-14.8-19.2-33.4-23.6-41.3c-15.7-28.5-25.9-40.8-34.7-41
		v149.1c9.2,0,14.3,1.6,20.9,6.5c5.7,4.3,10.7,10.6,25.5,32.4c24.3,35.6,37.3,47.9,50.7,47.9c6.2,0,10.3-2.2,13.1-7.2
		c1.6-2.8,1.9-4.6,1.9-15.3C1261.6,1945.3,1260,1937.1,1253.1,1916.6z"/>
	<path id="structure115_text7916-1-3_Pir-2" bar:growlevel="0" bar:type="" class="st7" d="M2127.3,1831.1c-5,2.1-9.4,11.5-21,45.5
		c-4.1,11.9-8.6,24-10,27.1c-8.6,18.4-28.8,28.1-70.5,34.1c-8.5,1.2-31.1,3.7-50.5,5.4c-40.1,3.6-46.2,4.3-58.1,6.9
		c-31.8,6.8-54.9,21.4-69.5,43.9c-6.1,9.4-10.6,18.3-17.8,35.2c-9.9,23.3-10.4,23.8-25.4,23.7c-5.4-0.1-9.7,0.2-9.7,0.5
		c0,0.4,2.4,5.8,5.4,12c4.1,8.6,6.2,12,8.8,13.9c4.9,3.9,6.8,4.7,10.9,4.7c3.1,0,4-0.5,6.7-3.7c1.8-2,5.3-8.4,7.9-14.1
		c8.6-19.4,18.3-33.7,32.1-47.6c13.1-13.2,23.8-20.3,34.9-23.1c2.9-0.7,17.1-3.2,31.4-5.5c97.6-15.6,136.3-23.9,155.7-33.6
		c18-8.9,31.7-23.8,40.3-43.7c4.5-10.4,7.1-20.6,10.5-40.4c4-23.8,3.6-32-2.1-38.1C2134.5,1831,2130.6,1829.7,2127.3,1831.1z"/>
	<path id="structure116_text7918-6-8_Pir-3" bar:growlevel="0" bar:type="" class="st8" d="M2025.3,1768.9c0,0.4,0.4,2.8,0.9,5.3
		c1.6,8.6-3.1,28.8-9.7,42c-4.3,8.6-7.7,13.4-14.5,20.6c-13.8,14.3-31,23-56.2,28c-24.9,5-39.2,11.6-60.5,27.7
		c-8.9,6.8-27.2,24.5-36.4,35.3c-18.5,21.7-35.8,47.7-46.2,69.8c-2.3,4.7-5.5,10.3-7.1,12.4c-3.9,4.8-12.7,11.4-17.6,13.3
		c-2.2,0.8-3.9,2-3.9,2.5c0,0.6,1.3,2.3,2.8,3.8c1.5,1.4,5.8,7.2,9.6,12.8l6.9,10.2l11.4-0.3c15.4-0.4,14.8,0.3,25.9-26
		c10.6-24.9,18.3-37.1,31.1-49.2c12.9-12.2,28.3-20.3,48.6-25.7c14.2-3.7,22.9-4.9,60.3-8.3c19.4-1.8,41.4-4.1,49.1-5
		c46.3-5.9,67.3-15.5,76.1-34.3c1.6-3.6,6.5-16.9,10.8-29.5c8.7-25.7,14.3-38.3,18.5-41.8c1.6-1.3,2.7-2.7,2.5-3.2
		c-0.2-0.5-8.7-5-19.2-10.2c-29.3-14.6-49.2-26.5-70-42.3C2027.6,1768.5,2025.3,1767.1,2025.3,1768.9z"/>
	<path id="structure117_text7920-8-7_Pir-1" bar:growlevel="0" bar:type="" class="st9" d="M2140.9,1837.2c2.3,10.4,2.4,12.5,1.4,20
		c-1.9,14.9-6.3,36.7-8.9,44.8c-8.1,24.8-22.9,43.2-43.5,54.2c-17.8,9.5-57.3,18.4-145.8,32.5c-18.4,2.9-36.6,5.9-40.3,6.8
		c-13.1,2.7-23.7,9.6-38.8,25.5c-5.1,5.4-12,13.4-15.1,17.8c-4.9,7-7.9,12.6-18.6,35.2c-4.9,10.3-9.7,12.8-17,9
		c-4.6-2.4-6.8-3-6.8-1.8c0,0.4,2.5,7.9,5.6,16.7c5.1,14.4,5.8,15.9,7.5,15.5c9.7-2.9,21.2-5.2,32.8-6.7c7.7-1,14.2-2.2,14.5-2.5
		c0.4-0.4,1.5-3.1,2.6-5.9c9.6-26.4,31.4-52.4,52.7-63.1c11.5-5.8,18.4-7.4,30.6-7.4c15.4,0.1,27.3,3.7,42.6,12.8
		c7.1,4.3,8.8,4.4,17.3,1.2c24.3-9.5,102.7-67.8,131.8-98.1c20.2-21.1,38.7-47.7,52.8-75.7c2.4-4.9,4.4-9.4,4.4-10
		c0-0.7-6.3-3.3-15.6-6.4c-8.5-2.9-22.1-7.8-30.2-11c-8.1-3.2-15.1-5.8-15.7-5.8C2140.7,1834.7,2140.5,1835.7,2140.9,1837.2z"/>
	<path class="st10" d="M1284.4,2038.7c-1.7-1.7-3.5-2.2-9.6-2.6c-4.2-0.4-21-2.3-37.3-4.2c-16.3-2-39-4.2-50.4-5
		c-26.2-1.7-29.8-2.5-34-7.6c-1.3-1.6-2.4-2.5-3.3-2.6v93.2c2.2,0,4.4,0,6.8-0.1c36.3-0.4,42.9-1,61.6-5
		c17.6-3.9,37.8-11.3,49.9-18.3c7.8-4.6,15.7-12.2,18.5-18.3C1290.7,2059.6,1289.5,2043.8,1284.4,2038.7z"/>
	<path id="structure122_text9196-7-3-2_LSI-1" bar:growlevel="0" bar:type="" class="st11" d="M1240.5,1259.7c0,0.8,3.1,2.3,7.9,3.8
		c27.2,8.6,50.8,27.6,72.9,58.7c39.6,55.4,51.4,80.3,53,111.8c0.4,7.7,0.8,10.2,1.7,10.2c0.7,0,4-1.7,7.3-3.9
		c9.5-6,19.7-11.8,29.3-16.5l8.7-4.4v-4.5c0-8.7-1.8-50.5-2.3-55.7c-0.5-4.4-1.3-6.4-5.8-13.1c-5.7-8.5-19.3-25.3-32.9-41l-8.6-9.9
		l-8.9-2c-12.2-2.7-20.6-5.4-50.2-15.8c-37.1-13.1-49.9-16.7-65.9-18.3C1241.8,1258.6,1240.5,1258.7,1240.5,1259.7z"/>
	<path id="structure123_text9198-9-1-7_LSI-2" bar:growlevel="0" bar:type="" class="st12" d="M1176.6,1240.9
		c0.1,3.4,2,14.3,3.2,17.9c1.5,4.6,5.5,8.7,13.7,14.1c3,2.1,9.1,7.1,13.4,11.2c12.1,11.5,62.9,64.1,76,78.8
		c13.4,15,31.3,37.1,35.7,43.9c4.2,6.7,9,18.1,11.7,28.1c2.2,7.9,2.3,10.3,2.3,26.1c0.1,11.2,0.5,17.3,1,17.3c0.5,0,4-3.1,7.7-6.8
		c6.7-6.7,19.7-17.1,28.1-22.4l4.3-2.7v-9.5c0-22.1-7.4-44.9-22.5-70.1c-7.7-12.8-34.7-51.6-42.8-61.1
		c-13.7-16.5-31.8-30.2-50.5-38.3c-12.2-5.2-22.6-7.6-37.7-8.5c-15.8-0.9-22.9-2.8-31-8.2c-3-2-6.6-5.2-7.9-7.2
		C1178.9,1239.9,1176.6,1238.8,1176.6,1240.9z"/>
	<path id="structure124_text9200-5-2-7_LSI-3" bar:growlevel="0" bar:type="" class="st13" d="M1191,1274c0,0.5,0.6,2.4,1.3,4.2
		c3.1,7.3,1.3,13-7.5,23c-2.1,2.4-3.8,4.9-3.7,5.4c0,0.6,2.2,2.9,4.7,5c29.3,24.8,82.3,79.1,99.2,101.6c5.6,7.5,14.2,23.7,18.7,35.3
		c5.8,14.6,9.6,32.4,9.6,43.7c0,4.9,0.3,6.7,1.2,6.7c0.7,0,4.7-3.9,8.8-8.6c8.9-10.2,9-10.3,9-30.5c0-19.9-3.6-34.2-12.6-50.4
		c-9.1-16.3-41.8-53.3-96.8-109.2C1202,1278.9,1191,1269.9,1191,1274z"/>
	<path id="structure125_label41-4-3-9_LSI-4" bar:growlevel="0" bar:type="" class="st14" d="M1172.8,1314.9c-3.3,3.7-6,7.2-6,7.8
		c0,0.5,3.3,4.6,7.5,8.8c10,10.4,21.5,28.4,43.6,68c33,59.3,51.1,109.7,54.8,152.7c0.4,4.2,1,7,1.6,7c0.5,0,3.8-4.9,7.3-11.1
		c8.2-14.2,16.6-27,24.6-37.1c7.2-9.1,8-11.8,6.9-23.2c-1.7-17.9-6.9-35.2-16.6-55.1c-8.6-17.5-17.5-28.8-47.2-60.2
		c-22.8-24-65.9-64.4-68.8-64.4C1179.5,1308.2,1176.1,1311.2,1172.8,1314.9z"/>
	<path id="structure127_label68-22_S1DZ" bar:growlevel="0" bar:type="" class="st15" d="M1943.9,956.1
		c-64.8,78.6-118,143.2-118.2,143.7c-0.1,0.5,1.4,2,3.2,3.2c1.9,1.3,7.7,5.6,12.8,9.7c5.2,4.1,10.2,7.4,10.9,7.2
		c2.1-0.4,258.3-260.5,258.3-262.2c0-2.5-45-44.5-47.7-44.5C2062.4,813.3,2008.8,877.6,1943.9,956.1z"/>
	<path id="structure129_Unlabeled-2143-2032_Unlabeled" bar:growlevel="0" bar:type="" class="st16" d="M1449.3,2085
		c-11.3,2.4-17.9,5.5-22.5,10.4c-2,2.2-3.6,4.3-3.6,4.8c0,0.4,0.9,3.5,1.9,6.8c1.4,4.1,2.4,5.9,3.5,5.9c0.8,0,4.5,1.1,8.2,2.3
		c3.7,1.3,11.3,3.4,17,5c16.6,4.2,18.9,3.3,10.5-3.9c-2.6-2.3-5.8-5.9-7-8.3c-2-3.9-2.1-4.3-0.8-6.6c0.7-1.4,3.4-3.6,5.9-5
		c9.4-5.4,11.2-9.5,5.4-12C1463.7,2082.8,1459.8,2082.9,1449.3,2085z"/>
	<path id="structure12_label11_MPA" bar:growlevel="0" bar:type="" class="st17" d="M1167.3,1909.6c0.5,7.1,0,13.9-1.8,28.6
		c-1.3,10.6-2.6,24.3-2.9,30.3l-0.6,11l7.9,8.6c4.4,4.8,12.2,12.3,17.2,16.7c7.7,6.7,9.4,8.6,9.9,11.3c0.4,2.5,0.2,3.8-1.4,5.9
		c-3.1,4.1-2.1,4.9,7.4,5.6c4.7,0.3,20,2,34,3.7c14,1.7,32.2,3.7,40.4,4.4c8.2,0.7,17.9,2,21.5,2.8c14.7,3.1,27.9,8.8,36.1,15.7
		c9.2,7.6,14.6,11.3,24.4,16.2c14.2,7.3,26.3,11.6,39.6,14.2c6.2,1.3,12.7,3,14.5,3.9c3.2,1.7,8.9,7.4,8.9,9c0,1.9,2.3,0.7,4.8-2.3
		c3.3-4.1,9.7-7.3,19.6-9.6c6.8-1.5,8-2.2,8-3.6c0-1.7-0.4-1.7-7.8-1c-23.5,2.3-42.5-1.6-72.3-14.8c-37.6-16.6-58.1-30.4-78.7-53.2
		c-8.2-9.1-20.6-25.9-26.7-36.1c-2.7-4.5-5.3-8.2-5.8-8.2c-0.6,0-1.7,1.5-2.4,3.4c-1.8,4.5-6.9,8.9-11.2,9.7
		c-1.9,0.4-5.1,0.2-7.5-0.4c-12.8-3.4-25.3-16.6-48.6-50.9c-12.4-18.4-22.3-30.2-25.3-30.2
		C1166.8,1900.4,1166.8,1901.1,1167.3,1909.6z"/>
	<path id="structure13_label15_CB" bar:growlevel="0" bar:type="" class="st18" d="M1726.3,1925.5c-0.5,2.9-6.9,9.6-9.8,10.6
		c-2.3,0.6-2.1,1.5,1.6,10.3c4.5,10.6,9.4,30.1,10,40c0.4,7.4,0.3,8.8-1.9,14.5c-1.3,3.4-4.2,9.5-6.3,13.5
		c-2.2,4-6.8,12.4-10.3,18.9c-6.2,11.3-7.5,14.9-5.4,14.9c0.5,0,8.6-3.2,17.9-7.2c13.6-5.8,19.5-7.8,30.7-10.3
		c7.7-1.7,15.9-3.8,18.4-4.6c6.8-2.3,16.7-7.6,16.7-9.2c0-0.7-2.7-4.1-5.9-7.6c-10.6-11.3-15.7-21.3-15.7-31.1
		c0-8.7,2.3-13.6,19.1-39.4c3.9-5.9,7-11.3,7-11.9c0-1.9-2.6-1.2-6.9,2c-2.4,1.6-5.8,3.5-7.7,4.1c-2.9,1.1-3.6,1-5.7-0.4
		c-1.4-0.9-2.8-2.8-3.3-4.2c-1.1-3.2-1.4-3.3-17.8-4c-7.2-0.3-15.5-0.7-18.5-1l-5.5-0.5L1726.3,1925.5z"/>
	<path id="structure14_label16_IEn" bar:growlevel="0" bar:type="" class="st19" d="M1880.4,1836.8c-5.7,5.6-17.6,16-26.5,23
		c-17.8,14.1-25.4,21.1-34.6,32c-18.7,22.1-48.8,67.5-51.9,78.6c-2.6,8.9-0.3,19.1,6.7,29.2c3.9,5.6,13.7,16,15,16
		c2.7,0,9.3-9.3,15.5-21.7c21.9-44,57.7-86.6,92-109.3c9.1-6.1,25.1-14,33-16.2c3.2-0.9,5.8-2.2,5.8-2.8c0-0.5-2.4-2.5-5.4-4.3
		c-12.9-7.8-28.8-22-34.7-30.9c-1.3-2.1-3-3.8-3.5-3.8C1891.2,1826.6,1886.1,1831.2,1880.4,1836.8z"/>
	<path id="structure15_label20_DEn" bar:growlevel="0" bar:type="" class="st20" d="M1951.3,1724.7c-6.8,17.3-14.8,33.2-24.7,49.6
		c-8.4,13.9-21.2,33.3-28.4,42.7c-2.9,3.8-5.2,7.7-5.2,8.6c0,8.3,37.4,39.9,47.1,39.8c8.5-0.1,28.9-6.3,40-12.2
		c24.2-12.8,38.1-32.1,44.4-61.6c3.2-15,1.7-23.6-5.6-30.7c-3.2-3.2-3.6-3.2-11.7-3.8c-24-1.5-39.7-16.1-46.6-43.7
		c-0.5-2.1-1.5-3.8-2.2-3.8C1957.7,1709.6,1954.8,1715.8,1951.3,1724.7z"/>
	<path id="structure16_label21_VCl" bar:growlevel="0" bar:type="" class="st21" d="M2007.3,1625.3c-9.5,3.3-11.4,5.2-16.5,16.9
		c-4.7,10.8-19.6,41.3-26.3,53.6c-3.3,6.1-4,8.1-4,12.2c0,10.8,7,26.6,15.8,35.5c9.6,9.8,19.7,13.4,35.6,12.8
		c8.3-0.4,10-0.7,14.8-3.1c10.7-5.5,19.8-15.8,26.5-30.2c6.5-13.7,9-29.3,9.1-55.1v-15.1l-2.9-5.6c-4.3-8-13.4-16.9-21.1-20.5
		c-5.6-2.6-7.2-3-15.7-3.2C2014.6,1623.2,2012.3,1623.5,2007.3,1625.3z"/>
	<path id="structure17_label22_AIV" bar:growlevel="0" bar:type="" class="st22" d="M2056.8,1714.9c-6,18.8-22.3,37.2-36,40.7
		c-2.5,0.6-4.5,1.6-4.5,2.1c0.1,1.1,13.5,12.6,23.6,20.2c31.3,23.5,75,46.4,123.6,65c18.3,6.9,38.9,13.8,40,13.1
		c1-0.6,6.5-14.1,10.6-26.2c1.7-4.9,4.9-16.7,7.1-26.1c2.2-9.4,4.6-19.1,5.4-21.4c0.8-2.4,1.2-4.6,0.9-4.9c-0.3-0.3-9.1-3.4-19.6-7
		c-44.8-15.2-77.9-28.8-127.4-52.6c-10.3-5-19.5-9.1-20.3-9.1C2059.4,1708.7,2058.1,1711,2056.8,1714.9z"/>
	<path id="structure18_label23_AID" bar:growlevel="0" bar:type="" class="st23" d="M2062.9,1669.3c-0.4,10.5-1.3,23.4-2,28.5
		c-0.8,5.1-1.4,9.4-1.1,9.6c0.2,0.2,8.4,4.2,18.3,9c37.3,18,70,32,102.4,44c18.5,6.8,45.1,15.8,46.8,15.8c0.6,0,2.1-2.4,3.2-5.7
		c3.9-10.7,11.9-24.8,21.9-38.1c10.9-14.7,24.9-35.6,24.9-37.1c0-1.3-1.5-1.6-12.2-2.9c-23.9-2.9-79.4-13.4-123.4-23.4
		c-25-5.7-63.1-15-71-17.5C2062.9,1649.2,2063.5,1647.9,2062.9,1669.3z"/>
	<path id="structure19_label24_DI" bar:growlevel="0" bar:type="" class="st24" d="M2058,1591.9c0.4,3.2,1.2,11.5,2,18.7
		c0.7,7.2,1.7,18.7,2.1,25.6l0.6,12.6l3.6,1.2c12.9,4.2,75.9,19.2,115.1,27.3c37.4,7.7,87,16.1,95.4,16.1c1.9,0,3.1-1.5,8.2-10.7
		c11.9-21.6,28.3-58.7,27.2-61.7c-0.4-0.9-1.6-1.4-3.5-1.4c-4.6,0-55.7-5.9-94.9-10.8c-57.1-7.3-116.5-15.8-142.9-20.7
		C2056.5,1585.5,2057.4,1585.3,2058,1591.9z"/>
	<path id="structure1_label0_VP" bar:growlevel="0" bar:type="" class="st25" d="M1325.6,1782.3c1.3,5,7.1,19.9,11.7,29.5
		c15.4,32.7,43.2,73.1,80.4,117c11.3,13.2,18.3,20.3,29.9,30c24.9,20.8,35.1,33.3,38.9,48.2c1.1,4,1.6,4.8,7.3,8.4
		c3.3,2.2,10.4,6.3,15.8,9.4c11.9,6.7,17.3,11.9,17.3,16.7c0,1.8-0.8,4.7-1.9,6.3c-2,3.3-11.7,10.2-20.3,14.3
		c-3.1,1.4-5.6,3.2-5.6,3.8c-0.1,1.1,4,2.1,17.8,4.5c5.9,1,14,1.5,25.3,1.5h16.6l28.8-5.5c34.8-6.7,43.6-8,61.7-9.3
		c7.6-0.5,18.7-1.5,24.5-2.3c9-1.2,13.8-2.1,25.7-4.7c1.2-0.3,2.3-1.5,2.9-3.2c0.5-1.5,4.6-9.3,9-17.3c4.4-7.9,9.8-18.2,12-22.6
		c3.6-7.6,3.9-8.7,4.1-16.7c0.4-9.9-1.7-21.5-6.2-35.1c-2.7-8.1-6.7-17.1-7.6-17.1c-0.2,0-3.3,1-6.9,2.2
		c-11.2,3.8-25.1,5.3-42.6,4.8c-21.4-0.6-29.1-3.1-41.7-13.2c-12.2-9.9-20.7-24.3-28.1-47.7c-6.8-21.5-10.9-29.2-23-42.8
		c-13.1-14.8-29.6-26.9-52.1-38.4c-15.7-7.9-30.3-13.9-45.7-18.4c-10-3-12-3.3-22.2-3.3c-9.4-0.1-12.4,0.3-18,2.1
		c-9.6,3-18.1,7.2-28.4,14c-4.9,3.3-10.5,6.7-12.5,7.4c-4.9,1.8-14.9,1.7-22.1-0.2c-12-3.1-31.1-13.8-38.7-21.6
		C1327.6,1779,1324.7,1778.7,1325.6,1782.3z"/>
	<path id="structure20_label25_GI" bar:growlevel="0" bar:type="" class="st26" d="M2037,1508c0,0.5,1.3,3.4,2.7,6.4
		c5.8,11.5,10.6,29.3,14.9,55.9l2.5,14.9l9.9,1.9c30.3,5.7,99.1,15.4,167.9,23.9c31.7,3.9,73.8,8.6,77.2,8.6c1.4,0,2.6-2.9,6.8-15.6
		c7.6-22.8,17.8-61.3,16.7-62.2c-0.2-0.1-10.2-1.1-22.1-2.2c-53.2-4.9-185-20.3-251.6-29.4C2036,1506.7,2037,1506.8,2037,1508z"/>
	<path id="structure21_label26_CPu" bar:growlevel="0" bar:type="" class="st27" d="M1545.2,1075.6c-2,0.6-8.6,2.3-14.8,3.6
		c-24.6,5.2-39.1,11.6-49.1,21.6c-19.8,19.7-46.5,83.3-54.4,129.2c-3.2,18.2-4,36.4-3.4,74.2c0.3,19.3,1,41.6,1.6,49.5
		c1.4,17.3,1.6,93.2,0.5,131.4c-0.5,20.4-0.5,29.9,0.4,38.7c0.7,6.4,1.3,15.8,1.3,20.7l0.2,9l5.6,8.5c16,24.3,20.4,43.4,16.1,69.3
		c-0.9,5.8-0.9,5.9,1.9,9.9c3,4.3,4.6,10.7,4.6,18.4c0,4,0.6,5.7,4.6,12.2c8.6,14.4,35.7,49.1,49.9,63.9
		c14.4,15,36.6,33.8,77.8,65.9c53.6,41.7,121.3,98.1,132.7,110.7c2.3,2.4,4.6,5.8,5.1,7.6c1.3,3.7,1.7,3.8,21.1,4.5
		c7.5,0.3,15.2,0.7,17.3,1.1l3.8,0.4l1-3.9c1.6-6.1,7.6-16.8,13.6-24.2c23.5-29.3,47.2-46.8,58-42.7c1.8,0.7,4.1,5,4.1,8
		c0,1.3,0.5,2.3,1.3,2.3c1.8,0,23.5-17.6,33.7-27.5c11.3-10.7,17.7-18.9,32.6-41.1c19.9-29.8,28.4-45.7,40.1-74.5
		c4.1-10.2,9.5-23.5,12.1-29.7c37.2-90.4,39.4-196.4,6.8-313.6c-19.9-71.6-44.9-123.7-81.1-169.3c-10.3-13-37.5-40.1-51.2-51
		c-30.4-24.2-64.3-45.1-91-56c-35.6-14.5-79.3-23.8-129.5-27.5C1599.4,1073.8,1549.7,1074.1,1545.2,1075.6z"/>
	<path id="structure22_label27_DCl" bar:growlevel="0" bar:type="" class="st28" d="M2018.8,1517.7c-1,37.1-5.1,61-16.6,94.9
		c-2.8,8.3-4.9,15.4-4.5,15.7c0.4,0.4,3-0.4,5.8-1.7c13-5.8,23.9-5.6,36.2,0.7c5.9,3,13.4,9.9,17.3,15.8c4.6,7.2,5.6,6.1,4.9-5.3
		c-0.9-14.4-3.9-43-5.9-57.3c-7.1-49.2-16.7-75.8-29.7-82.3C2019,1494.4,2019.4,1493.6,2018.8,1517.7z"/>
	<path id="structure23_label28_S2" bar:growlevel="0" bar:type="" class="st29" d="M2166.5,1342.3
		c-136.5,21.2-166.3,25.9-166.3,27.1c0,0.7,1.4,7.4,3.2,14.8c4.3,18.8,7.3,35.5,9.8,55.6c2.6,19.9,5,45,5,51v4.1l4.1,1.1
		c2.8,0.7,5.6,2.5,8.7,5.5l4.7,4.4l15.8,2.3c63.3,9.3,251.4,31,278.6,32.2l6.2,0.3l1.5-8.1c9.4-49.4,10.2-125.7,2.2-199.8
		c-1.9-16.9-1.8-16.7-4.8-16.6C2333.8,1316.5,2257.9,1328.1,2166.5,1342.3z"/>
	<path id="structure24_label29_S1ULp" bar:growlevel="0" bar:type="" class="st30" d="M1982.4,989.6
		c-70.7,71.7-128.6,130.9-128.7,131.6c-0.2,0.6,3.6,4.6,8.3,8.8c34.1,30.4,69.2,78.6,96.2,132.3c16,31.6,30.7,68.8,38.9,98.5
		c0.9,3.3,2.2,6.3,2.6,6.5c1.2,0.4,336.9-51.3,337.6-52c1.1-1.1-5.9-43.6-11.9-72.9c-17.1-83.3-46.1-161.6-81.5-220.6
		c-16.7-27.9-43.5-64.5-72.4-99.2c-22.3-26.7-56.6-63.4-59.1-63.4C2111.6,859.1,2053.2,917.8,1982.4,989.6z"/>
	<path id="structure25_label30_S1FL" bar:growlevel="0" bar:type="" class="st31" d="M1700.4,638.2c0,0.2-14.2,82.5-31.5,182.9
		c-17.4,100.3-31.4,183.2-31.3,184.1c0.2,1.3,4.9,3.4,20.1,9.1c55.6,20.9,110.9,48.3,151.7,75.3c9.6,6.5,15.2,9.6,16,9.2
		c2.5-1.5,236-285.1,236-286.7c0-2.6-33.2-29.4-61.1-49.3c-71.5-50.8-143.4-85.9-221.8-108.5
		C1749.7,646.1,1700.4,635.8,1700.4,638.2z"/>
	<path id="structure26_label31_S1HL" bar:growlevel="0" bar:type="" class="st32" d="M1572.6,621.6c0,0.6-8.1,80-18,176.5
		c-9.9,96.6-18,176.6-18,177.8c0,2.3,0.5,2.6,13.8,6.8c7.5,2.3,18.5,5.3,24.6,6.5c13,2.7,29.3,7.1,47.3,12.8
		c7.4,2.3,13.6,4,13.9,3.6c0.7-0.7,63.4-362.8,63.4-366.3c0-1.3-0.5-2.4-1.1-2.4c-0.6,0-6.4-0.8-12.9-1.8
		c-19.4-3.1-63.5-8.8-85.5-11.3c-11.3-1.3-22.2-2.4-24-2.7C1573.8,620.7,1572.6,621,1572.6,621.6z"/>
	<path id="structure27_label32_M1" bar:growlevel="0" bar:type="" class="st33" d="M1426.4,615.9c-17.7,0.9-56.3,5.5-57.6,6.8
		c-0.3,0.3,13.8,76.4,31.3,169.1l31.8,168.7l15.7,0.5c19.3,0.7,37.5,3.6,62.1,10c25.4,6.5,25.1,6.5,25.7,5.8
		c0.5-0.5,36.4-347.5,36.4-352.6v-3.3l-4.7-0.5c-7.7-0.9-38.5-3.2-56.5-4.1C1495.6,615.3,1440,615.1,1426.4,615.9z"/>
	<path id="structure28_label33_M2" bar:growlevel="0" bar:type="" class="st34" d="M1347.6,626.4c-61.6,14-99.9,33.1-135.3,67.1
		c-12.3,11.8-24,24.8-24,26.6c0,0.7,47.3,56.4,104.9,123.9c57.8,67.4,105.1,122.7,105.2,122.8c0.1,0.1,3.8-0.8,8.1-2.1
		c4.3-1.3,11.7-2.7,16.4-3.3c7.9-1,8.5-1.2,8.2-2.9c-0.2-1.1-14.5-76.9-31.8-168.7l-31.5-166.7l-3.6,0.1
		C1362.3,623.4,1354.8,624.8,1347.6,626.4z"/>
	<path id="structure29_label34_Cg1" bar:growlevel="0" bar:type="" class="st35" d="M1178.9,731.3c-8.9,12.2-18.6,28.2-21.1,34.7
		c-2.4,6.5-5.2,20.3-6.4,31.9c-0.4,5.1-0.9,27-0.9,48.6v39.2l109.6,47.9c60.2,26.4,110.3,48.2,111.1,48.5c1.1,0.4,3.5-0.8,7.2-3.7
		c3.2-2.3,8.6-5.6,12.2-7.4c4.7-2.3,6.5-3.7,6.3-4.8c-0.4-2-208.6-244.8-209.9-244.8C1186.5,721.4,1182.9,725.9,1178.9,731.3z"/>
	<path id="structure2_label1_IPAC" bar:growlevel="0" bar:type="" class="st36" d="M1454.3,1667.5c-0.2,0.6-1.5,5.6-2.9,11.1
		c-2.3,9.3-2.5,11.1-2.5,28.3c0.1,21.2,1.1,27.2,8,43.8c5.2,12.8,7,19.4,7.2,25.8l0.1,5.3l7.7,2.1c19.3,5.1,49.1,18.5,66.5,29.9
		c12.2,8,21.3,15.4,29.8,24.2c14.3,14.9,18.5,22.4,26.6,46.7c7.7,23.7,12.7,32.6,24.1,43.6c11.4,11,20.3,14.8,38.3,16.1
		c21.4,1.6,46.6-1.7,57.6-7.7c11.7-6.3,14.2-13.1,8-21.6c-8.1-11.1-74.7-66.9-143.4-120.2c-32.1-25-48.9-39.2-64.4-54.7
		c-18.1-18-45.7-52.4-55-68.6C1457.1,1666.7,1455.1,1665.2,1454.3,1667.5z M1484.4,1756.1c10.8,7.2,23.8,19.6,24.5,23.3
		c0.5,2.6-3.7,2.8-8.5,0.4c-12.4-6.3-22-15.1-25.5-23.6C1472.3,1749.8,1475,1749.8,1484.4,1756.1z"/>
	<path class="st37" d="M1151.9,887c-1.3,0-1.3,11.3-1.2,102.3c0.3,114.2-0.2,105.6,6.7,119.7c3.7,7.7,12.1,17.3,15.8,18
		c3.7,0.7,3.1,1.6-2.2,2.9c-8.8,2.3-16.7,7.2-19.3,11.9c-0.7,1.5-1.6,5.6-1.9,9c-0.1,1.7-0.3,2.9-0.3,3.9v0.2
		c0.1,2.8,1.4,2.4,7.1,1.1c2.5-0.5,4.6-1.3,4.6-1.8c0-1.4,6.9-4.2,12.7-5.2c4.9-0.8,6.5-0.8,9.8,0.4c5.3,1.9,21.8,1.9,31.3,0.1
		c16.7-3.2,41.2-12.1,53.7-19.4c25.6-15.1,38.9-32.7,65.4-86c16.7-33.8,23.4-45.1,31.9-54.3c2.8-3,4.9-5.8,4.7-6.4
		C1370.5,982.1,1154.1,887,1151.9,887z"/>
	<path class="st37" d="M1149.6,1154.9v-0.2C1149.6,1154.8,1149.6,1154.8,1149.6,1154.9z"/>
	<path id="structure31_label36_LV" bar:growlevel="0" bar:type="" class="st38" d="M1451.5,1093.9c-22.4,8.8-55.1,30.3-90.4,59.4
		c-6.7,5.6-15.8,13.1-20.4,16.8c-9.7,8-23.9,16.3-37.4,22c-6.8,2.8-9.6,4.4-9.6,5.5c0,1.8,7.1,12,16.9,24.2
		c12,14.9,51.4,62,63.6,76.1c17.1,19.6,26.7,31.1,34.6,41.6c3.8,5.1,7.4,9.3,8.1,9.3c1,0,1.1-1.1,0.6-5.2
		c-4.3-38.8-4.1-84.6,0.4-116.7c2.2-15,5.4-29,11.7-49.1c9.8-31.9,18.8-53.6,26.5-64.4c6.8-9.4,8.4-15.6,5.3-20
		C1459.7,1090.8,1459.2,1090.9,1451.5,1093.9z"/>
	<path id="structure32_label37_LSD" bar:growlevel="0" bar:type="" class="st39" d="M1286.7,1198.9c-12.2,5.3-49.9,16.4-71.8,21.1
		c-6.9,1.4-18.6,4.1-25.9,6l-13.4,3.3l0.6,3.2c1.3,7,8.7,15.8,16.7,19.9c8.6,4.5,10.3,4.8,33.2,5.4c31.7,1,38.9,2.5,86.2,19.3
		c24.8,8.7,45.1,15,52.2,16.3c5,0.8,5-0.6-0.1-6.4c-5.9-6.8-47.1-56.3-55.3-66.8c-4.1-5.1-9.5-12.3-12-16
		C1292.5,1197.2,1291.6,1196.7,1286.7,1198.9z"/>
	<path class="st40" d="M2016.1,1468c-2.3-22.2-5.8-46.8-8.4-60.8c-21.5-114.9-86.2-230.7-163.3-292.1
		c-52.3-41.7-132.8-83.3-212.8-109.7c-36.8-12.2-60.4-17.7-83-19.4c-37.4-2.9-85.1,6.2-120.7,23.1c-19.1,9-24.8,13.3-39.4,29.6
		c-27.1,30.1-40.5,43.2-60.4,58.3c-20.7,15.7-44.7,29-70.5,39.1c-32.6,12.8-40.3,14.6-66.2,15.6c-18.1,0.6-20.8,0.9-30.8,3.6
		l-11,2.9l-0.1,0v79l13.1-4.1c14.8-4.6,30.4-8.6,54.2-13.9c45.8-10.3,90.5-26.5,112.8-40.9c3.2-2.1,12-8.8,19.4-14.9
		c46.5-38.6,72.6-56.6,98-67.6c14.2-6.2,45.4-14.5,72.4-19.3c11.8-2.1,16.1-2.3,43.1-2.8c54.4-0.8,96.4,3.3,138.1,13.8
		c34.4,8.6,58,18.1,83.5,33.5c70.6,42.6,113.2,87.1,147.2,153.6c22.1,43.3,39.9,95.7,51.6,152.6c17.6,85.5,14.7,167-8.5,238
		c-2.3,6.9-4.1,13.1-4.1,13.8c0,5.8,9.2-11.2,20.8-38.3c12.8-29.8,20.6-57.2,24.8-87C2018.3,1537.1,2018.3,1489.9,2016.1,1468z"/>
	<path class="st41" d="M1193.3,1282.1c-0.7-4.1-5.4-12.2-9.9-17.2c-3.9-4.3-5.6-10.1-6.9-23.3c-0.5-5.7-1.3-10.7-1.6-11.1
		c-0.4-0.4-6.2,1-13,3.1l-12.2,3.8v74.8c2.5,0,5,1.7,9.4,5c3.2,2.5,6.2,4.5,6.8,4.5c0.9,0,17.1-17.9,23-25.6
		C1193.2,1290.5,1194.2,1287.4,1193.3,1282.1z"/>
	<path class="st42" d="M1272,1552.6c-4.1-50.2-26.1-106.2-72.3-184.1c-14-23.6-18.4-29.7-28.9-40.1c-9.8-9.8-18.4-16.4-21.2-16.5
		v81.3c0.7-0.1,1.3,0.3,2.4,1c6.8,4.3,34.1,34.3,41.8,45.9c5.4,8.2,17,32.4,23.6,49.1c17.5,44.4,25.2,82,23.7,114.9
		c-0.9,19.1-1.8,19.9,19.5-18.6l12.2-22.1L1272,1552.6z"/>
	<path class="st43" d="M2016.1,1468c-2.3-22.2-5.8-46.8-8.4-60.8c-21.5-114.9-86.2-230.7-163.3-292.1
		c-52.3-41.7-132.8-83.3-212.8-109.7c-36.8-12.2-60.4-17.7-83-19.4c-37.4-2.9-85.1,6.2-120.7,23.1c-19.1,9-24.8,13.3-39.4,29.6
		c-27.1,30.1-40.5,43.2-60.4,58.3c-20.7,15.7-44.7,29-70.5,39.1c-32.6,12.8-40.3,14.6-66.2,15.6c-18.1,0.6-20.8,0.9-30.8,3.6
		l-11,2.9l-0.1,0v79l13.1-4.1c14.8-4.6,30.4-8.6,54.2-13.9c45.8-10.3,90.5-26.5,112.8-40.9c3.2-2.1,12-8.8,19.4-14.9
		c46.5-38.6,72.6-56.6,98-67.6c14.2-6.2,45.4-14.5,72.4-19.3c11.8-2.1,16.1-2.3,43.1-2.8c54.4-0.8,96.4,3.3,138.1,13.8
		c34.4,8.6,58,18.1,83.5,33.5c70.6,42.6,113.2,87.1,147.2,153.6c22.1,43.3,39.9,95.7,51.6,152.6c17.6,85.5,14.7,167-8.5,238
		c-2.3,6.9-4.1,13.1-4.1,13.8c0,5.8,9.2-11.2,20.8-38.3c12.8-29.8,20.6-57.2,24.8-87C2018.3,1537.1,2018.3,1489.9,2016.1,1468z"/>
	<path id="structure3_label2_STMV" bar:growlevel="0" bar:type="" class="st44" d="M1343.1,1756.1c-7.1,12.4-11.5,22.1-11.6,25.3
		c0,4.1,19.7,16.7,33.8,21.5c9.4,3.2,24.1,3.7,29.3,0.9c5.9-3.2,20.7-13.4,20.7-14.3c0-0.5-1.4-3.2-3.1-6
		c-3.4-5.6-6.8-14.3-6.8-17.6c0-1.9-0.5-2-8.3-2.5c-14.6-1-31-7-41-15c-2.5-2-5-3.6-5.5-3.6
		C1350,1744.7,1346.7,1749.9,1343.1,1756.1z"/>
	<path id="structure4_label3_SHy" bar:growlevel="0" bar:type="" class="st45" d="M1254.9,1596c-5.7,10.3-12,21.1-13.9,24.1
		c-6.4,9.9-10.3,22.6-24.1,79.2c-8.8,35.9-9.1,37.2-9.2,47.7c-0.1,12.5,1.3,18.2,6.2,24.9c8.3,11.3,30.5,14.5,50,7.1
		c14.3-5.4,29.1-18.7,39.1-35.3c2.8-4.7,3.6-6.9,4.1-12.1c0.7-7.5,7.3-27.7,15.1-46.4c5.4-13,5.5-13.2,5.5-21.7
		c0-24.9-9.2-47.4-26.6-64.9c-10.3-10.3-27.8-21.2-34.2-21.3C1265.7,1577.3,1263,1581.3,1254.9,1596z"/>
	<path id="structure5_label4_HDB" bar:growlevel="0" bar:type="" class="st46" d="M1319.6,1936.8c-15.6,2.8-28.6,8.7-36.7,16.7
		c-5.9,5.9-8.9,11.5-9.6,18.4c-1,9.5-0.1,11.8,9.4,24.4c14.6,19.4,31.9,36.2,49,47.4c12.4,8.2,42.4,22.8,60.2,29.3
		c16.9,6.1,25.8,7.8,41.8,7.8c13,0.1,15.4-0.2,24.3-2.5c37.5-9.6,66.6-24.3,68.5-34.4c1.2-6.5-2.9-11.3-15.7-18.3
		c-10.7-5.9-19.2-11.3-39.1-24.6c-31.4-21-53.4-33.8-79.8-46.5C1357.6,1938.1,1338.6,1933.5,1319.6,1936.8z"/>
	<polygon class="st37" points="1149.6,1154.1 1149.6,1157.3 1149.9,1157.3 	"/>
	<path id="structure6_label5_SIB" bar:growlevel="0" bar:type="" class="st47" d="M1320.2,1779.6c5.1,57.4,19.5,122.2,32.9,147.8
		c5.1,9.9,9.5,14.6,15.4,16.6c13.4,4.7,48.5,22.4,69.2,35c5.7,3.5,18.5,11.7,28.6,18.4c10.1,6.6,18.7,12,19.3,12
		c2.5,0-2.4-12.6-8.5-21.3c-4.2-6.3-16.7-18.5-29.5-29c-15-12.2-33-32.4-59.1-66.2c-29.3-37.9-52.2-77.5-61.9-106.7
		c-2.6-8-4.5-12.2-5.4-12.4C1319.8,1773.4,1319.7,1774.3,1320.2,1779.6z"/>
	<path id="structure70_label92_cg" bar:growlevel="0" bar:type="" class="st48" d="M1424,961.7c-30.1,3.5-51.1,16.2-67.5,41
		c-3.3,4.9-12.4,22.1-20.3,38.2c-20.9,42.3-29.8,56.5-45.4,72.3c-4.9,4.9-8.8,9.2-8.8,9.6c0,1.8,3.2,0.7,11.6-3.7
		c10.7-5.7,28.6-17.5,38.7-25.5c9.3-7.3,29.7-25.7,34.1-30.8c1.9-2.1,10.3-11.5,18.9-21c12.9-14.2,16.9-18.1,23.8-22.6
		c21.5-14.4,55.6-26.3,91.6-32c5.6-0.9,17.5-1.7,29.5-2c14.8-0.4,20-0.8,20-1.6c0-1.8-37.1-12.6-59-17
		C1467.3,961.9,1440.1,959.8,1424,961.7z"/>
	<path class="st43" d="M2016.1,1468c-2.3-22.2-5.8-46.8-8.4-60.8c-21.5-114.9-86.2-230.7-163.3-292.1
		c-52.3-41.7-132.8-83.3-212.8-109.7c-36.8-12.2-60.4-17.7-83-19.4c-37.4-2.9-85.1,6.2-120.7,23.1c-19.1,9-24.8,13.3-39.4,29.6
		c-27.1,30.1-40.5,43.2-60.4,58.3c-20.7,15.7-44.7,29-70.5,39.1c-32.6,12.8-40.3,14.6-66.2,15.6c-18.1,0.6-20.8,0.9-30.8,3.6
		l-11,2.9l-0.1,0v79l13.1-4.1c14.8-4.6,30.4-8.6,54.2-13.9c45.8-10.3,90.5-26.5,112.8-40.9c3.2-2.1,12-8.8,19.4-14.9
		c46.5-38.6,72.6-56.6,98-67.6c14.2-6.2,45.4-14.5,72.4-19.3c11.8-2.1,16.1-2.3,43.1-2.8c54.4-0.8,96.4,3.3,138.1,13.8
		c34.4,8.6,58,18.1,83.5,33.5c70.6,42.6,113.2,87.1,147.2,153.6c22.1,43.3,39.9,95.7,51.6,152.6c17.6,85.5,14.7,167-8.5,238
		c-2.3,6.9-4.1,13.1-4.1,13.8c0,5.8,9.2-11.2,20.8-38.3c12.8-29.8,20.6-57.2,24.8-87C2018.3,1537.1,2018.3,1489.9,2016.1,1468z"/>
	<path id="structure72_label94_lo" bar:growlevel="0" bar:type="" class="st49" d="M1937.1,2030c-22.3,6-42,23-57.7,49.7
		c-3.9,6.6-9.8,19.9-9.8,22c0,1.6,2.7,1.6,5,0c1-0.6,15.2-8.3,31.5-17c16.4-8.6,34.2-18.3,39.6-21.3c21.4-12.2,29.9-15.6,44.6-17.5
		c11.3-1.4,11.5-2.5,1.2-7.9c-13.2-6.9-21.2-9-35.4-9.4C1946.1,2028.3,1942.7,2028.6,1937.1,2030z"/>
	<path id="structure73_label95_aca" bar:growlevel="0" bar:type="" class="st50" d="M1371.2,1685.3c-13.2,3.5-20.7,9.7-27,22.4
		c-2.7,5.5-3.3,7.9-3.6,13.3c-0.4,5.8-0.1,7.3,2,11.5c8.6,17.6,32.9,30.2,58,30.2c9.8,0,15.6-2,20.2-6.8c7.7-8.3,11.3-29.3,6.9-42
		c-4-12.1-12.2-22.4-21.6-27.3c-4.5-2.3-5.8-2.6-16.6-2.8C1380.1,1683.6,1376.4,1683.9,1371.2,1685.3z"/>
	<path id="structure74_label96_mfb" bar:growlevel="0" bar:type="" class="st51" d="M1325.6,1782.3c1.3,5,7.1,19.9,11.7,29.5
		c15.4,32.7,43.2,73.1,80.4,117c11.3,13.2,18.3,20.3,29.9,30c24.9,20.8,35.1,33.3,38.9,48.2c1.1,4,1.6,4.8,7.3,8.4
		c3.3,2.2,10.4,6.3,15.8,9.4c11.9,6.7,17.3,11.9,17.3,16.7c0,1.8-0.8,4.7-1.9,6.3c-2,3.3-11.7,10.2-20.3,14.3
		c-3.1,1.4-5.6,3.2-5.6,3.8c-0.1,1.1,4,2.1,17.8,4.5c5.9,1,14,1.5,25.3,1.5h16.6l28.8-5.5c34.8-6.7,43.6-8,61.7-9.3
		c7.6-0.5,18.7-1.5,24.5-2.3c9-1.2,13.8-2.1,25.7-4.7c1.2-0.3,2.3-1.5,2.9-3.2c0.5-1.5,4.6-9.3,9-17.3c4.4-7.9,9.8-18.2,12-22.6
		c3.6-7.6,3.9-8.7,4.1-16.7c0.4-9.9-1.7-21.5-6.2-35.1c-2.7-8.1-6.7-17.1-7.6-17.1c-0.2,0-3.3,1-6.9,2.2
		c-11.2,3.8-25.1,5.3-42.6,4.8c-21.4-0.6-29.1-3.1-41.7-13.2c-12.2-9.9-20.7-24.3-28.1-47.7c-6.8-21.5-10.9-29.2-23-42.8
		c-13.1-14.8-29.6-26.9-52.1-38.4c-15.7-7.9-30.3-13.9-45.7-18.4c-10-3-12-3.3-22.2-3.3c-9.4-0.1-12.4,0.3-18,2.1
		c-9.6,3-18.1,7.2-28.4,14c-4.9,3.3-10.5,6.7-12.5,7.4c-4.9,1.8-14.9,1.7-22.1-0.2c-12-3.1-31.1-13.8-38.7-21.6
		C1327.6,1779,1324.7,1778.7,1325.6,1782.3z"/>
	<path id="structure75_label97_mcer" bar:growlevel="0" bar:type="" class="st52" d="M1870.5,2104.5c-2.7,1-6.3,5.1-6.8,7.9
		c-1.2,6.6,4,12.2,11.1,12.2c6.3,0,11-4.7,11.1-11.2c0-2.7-0.6-4.1-3.1-6.5c-2.6-2.6-3.7-3.1-6.9-3
		C1873.7,2103.9,1871.3,2104.2,1870.5,2104.5z"/>
	<path id="structure77_label99_VMPO" bar:growlevel="0" bar:type="" class="st53" d="M1151.3,1993.3c-0.3,18.1-0.1,23.2,0.8,24.8
		c3.1,5.1,11.9,7.5,29.4,7.6c9.7,0.2,10.3,0.1,12.6-2c1.9-1.7,2.3-3.1,2.3-6.3c0-3.8-0.3-4.3-5.1-8.6c-9.9-8.7-21.2-19.9-29.3-29.1
		c-4.5-5-8.6-9.2-9.3-9.2C1151.9,1970.6,1151.5,1976.1,1151.3,1993.3z"/>
	<path class="st54" d="M1165.8,1902c-1.4-5.2-4.1-6.4-14.7-6.7c-0.5,0-1,0-1.4,0v19.1c1.2,0,1.4,3.7,1.6,26.6l0.2,26.7l3.7,4.1
		c6,6.8,6.4,6.2,7.7-11.6c0.3-4.5,1.3-14.4,2.3-22C1166.9,1922.8,1167.3,1907.2,1165.8,1902z"/>
	<path id="structure79_label102_STLV" bar:growlevel="0" bar:type="" class="st55" d="M1423.5,1558.2c-2.3,3-2.8,4.4-3.2,10.6
		c-0.5,6.7-3.2,18.5-9.3,40.1c-2.2,7.8-2.4,10.3-2.7,28.5c-0.4,22.2-1.4,29.5-5.8,38.8c-1.4,3.1-2.7,6.1-2.7,6.5
		c0,0.4,2.3,1.8,5,3.1c10.3,4.8,21.1,19,24.2,32.1c1.7,7.4,1.7,12-0.1,20c-3.2,13.7-9.5,21.8-19,24.6l-4.9,1.4l0.6,3.2
		c1.4,8.2,8.5,21.8,11.3,21.8c0.8,0,3.8-1,6.6-2.3c11.6-5.1,22.9-6.8,37.4-5.6c2.3,0.2,2.3,0.1,2.1-6.6c-0.1-7.1-1.5-11.9-7.9-27.4
		c-8.7-20.9-9.7-45.7-3.1-72.3c3.9-15.8,3.3-28.3-1.5-33.7c-2.3-2.4-3.4-2.2-4.7,1.3c-1.3,3.7-5.8,8.3-8.8,9
		c-3.4,0.9-8.2-1.9-10.7-6.1c-4.4-7.6-5.4-13.2-5.3-29.8c0.1-22.1,3.2-37.3,9.4-46.2c1.4-2.1,2.7-4.6,2.7-5.6c0-2.1-4.5-8.9-5.9-9
		C1426.7,1554.8,1425,1556.4,1423.5,1558.2z"/>
	<path id="structure7_label6_LPO" bar:growlevel="0" bar:type="" class="st56" d="M1302,1745.8c-10.8,17.9-29.7,32.3-47.6,36.3
		c-8.9,2.1-21.2,1.4-28.4-1.3c-10.5-4-17.3-13.3-18.5-25.7c-0.5-4.9-1.1-6.3-2.3-6.6c-1-0.2-1.6,0.3-1.6,1s-1.4,4.1-3.1,7.6
		c-3.7,7.3-8.9,12.4-16.3,16c-2.7,1.3-4.9,2.7-4.9,3.2c0,1.3,14.1,26.6,30.3,54.4c16.4,28,24.2,42.1,31.8,57.2
		c11.8,23.5,21.6,56.7,21.6,73.2c0,4.6,0.5,6.2,3.3,11.2c1.8,3.1,3.9,5.7,4.4,5.7c0.6,0,1.4-2,1.7-4.8c0.9-7.4,5.1-15.1,11.3-20.6
		c14.8-13.5,43.6-20.3,63.9-15.2c12.2,3.1,12.6,2.8,7.7-5.2c-10.3-16.8-20.9-54.1-28.8-100.9c-3.4-20-6.8-48-6.8-55.6
		c0-3.7-0.5-5.5-2.2-7.6c-3.4-4.5-8.3-15.2-9.5-21.2c-0.6-3-1.6-5.5-2.2-5.5C1305.3,1741.2,1303.5,1743.3,1302,1745.8z"/>
	<path id="structure80_label103_LSS" bar:growlevel="0" bar:type="" class="st57" d="M1828,1856.7c-16.6,6.8-48.1,39.7-56.3,58.8
		c-4.6,10.6-3.3,17.4,3.3,17.4c7.7,0,19.8-10.5,37.3-32.4c5.8-7.2,14.7-17.2,20-22.3c5.2-5.1,9.9-10.1,10.4-11
		c0.4-0.9,0.9-3.3,0.9-5.3c0-2.8-0.5-4-2.3-5.4C1838.1,1854,1834.5,1854.1,1828,1856.7z"/>
	<path id="structure81_label104_ICj" bar:growlevel="0" bar:type="" class="st58" d="M1582.1,2074.8c-22.1,2.7-33.3,5.9-39,10.7
		c-6.9,5.9-3.7,9,8.4,8c28.8-2.4,49-8.8,49-15.3C1600.5,2074.8,1593.3,2073.3,1582.1,2074.8z"/>
	<path id="structure82_label105_STMA" bar:growlevel="0" bar:type="" class="st59" d="M1412.2,1567.1c-3.6,2.5-7.5,4.3-9.5,4.6
		c-3.2,0.5-4,1.2-8.5,7.4c-14.1,19.6-35.3,55.4-48.6,82c-19.7,39.3-32.5,73.6-33.6,90c-0.5,6.6-0.5,6.9,3,12.5
		c1.9,3.2,5.8,8.3,8.6,11.4c5,5.5,7.8,7.1,7.8,4.6c0-1.8,7.6-16.9,13.1-26.5c2.7-4.5,4.9-8.7,4.9-9.4c0-0.5-1-2.3-2.3-3.7
		c-3.3-4.1-6.7-11-7.2-15.5c-0.7-4.9,2.1-14.5,5.8-20.5c9.6-15.1,21.2-20.9,42.1-21h11.1l2.2-4.1c4.9-9.1,6.1-15.8,6.8-40.5
		l0.7-22.9l4.4-15.8c5.9-20.9,8.7-36.9,6.4-36.9C1418.8,1562.9,1415.6,1564.8,1412.2,1567.1z"/>
	<path id="structure83_label106_STLD" bar:growlevel="0" bar:type="" class="st60" d="M1432,1567.2c-2.9,3.3-6.3,11.5-8.1,19.9
		c-2.6,12.3-2.8,43.8-0.4,51.9c2.3,7,7.1,12.1,11.7,12.1c9.8,0,15.8-16.5,14.8-40.5c-0.4-7.4-1.2-13.6-2.4-18
		c-2.3-8.3-11.3-27-13-27C1434,1565.6,1432.8,1566.4,1432,1567.2z"/>
	<path id="structure84_label107_LV" bar:growlevel="0" bar:type="" class="st38" d="M1417.2,1544.2c-1,3.1-2.6,7.6-3.5,9.9
		c-0.9,2.3-1.3,4.5-1.1,4.9c1,0.9,3.9-0.4,6.8-3.3c2.6-2.5,2.9-3.4,2.9-7.9C1422.3,1537.2,1420.1,1535.7,1417.2,1544.2z"/>
	<path id="structure85_label108_E" bar:growlevel="0" bar:type="" class="st61" d="M1531.7,1074.9c-19,2.5-68.1,13.6-70.5,15.9
		c-0.2,0.3,0.3,2,1.2,3.8c2,4.1,0.9,8.4-4,15.5c-1.8,2.7-4.3,6.6-5.7,8.6c-7.7,11.3-25.6,63.5-31.7,92.1
		c-4.7,22.2-5.5,33.6-5.5,75.1c0,31,0.4,40.9,1.6,51.8c3.3,27.8,3.7,34.7,3.7,77.4c0,37.5-0.2,46.1-2,65.3
		c-1.1,12.2-2.2,25.3-2.4,29.3c-1.3,18-4.1,29.3-11.3,46.5c-4.4,10.6-5.5,16-3.2,16c2.1,0,9.1-4,15.7-8.8
		c10.1-7.4,11.1-11.3,8.5-32.6c-1.6-13.5-1.7-37.1-0.3-76.9c1.3-34.8,0.9-58-1.3-100.8c-1.8-32.9-2-89.4-0.5-103.9
		c2.5-23,6.6-40.9,14.9-65.3c13.3-39.2,30-71.5,43.6-84.1c9.6-9.1,27.7-16.7,50.5-21.2C1544.7,1075.9,1543.8,1073.2,1531.7,1074.9z
		 M1422.3,1542c1.5,9.4,0.5,11.7-7.3,17.4c-3.4,2.4-6.3,4.5-6.5,4.5c-0.2,0,1.4-3.5,3.6-7.9c2.2-4.3,4.8-11.2,5.8-15.2
		c1.2-4.1,2.3-6.8,2.6-6.3C1421,1535,1421.7,1538.5,1422.3,1542z"/>
	<path id="structure86_label109_IG" bar:growlevel="0" bar:type="" class="st62" d="M1171.7,1148.7c-4.9,1.1-7.6,2.3-7.6,3.5
		c0,1.4,1.6,1.5,6.8,0.4c2-0.4,5.9-1.1,8.8-1.4c3.6-0.4,5.1-1,5.1-1.9c0-1-1.3-1.3-5.6-1.2C1176,1148.2,1172.7,1148.4,1171.7,1148.7
		z"/>
	<path id="structure87_label110_STLP" bar:growlevel="0" bar:type="" class="st63" d="M1423.5,1558.2c-2.3,3-2.8,4.4-3.2,10.6
		c-0.5,6.7-3.2,18.5-9.3,40.1c-2.2,7.8-2.4,10.3-2.7,28.5c-0.4,22.2-1.4,29.5-5.8,38.8c-1.4,3.1-2.7,6.1-2.7,6.5
		c0,0.4,2.3,1.8,5,3.1c10.3,4.8,21.1,19,24.2,32.1c1.7,7.4,1.7,12-0.1,20c-3.2,13.7-9.5,21.8-19,24.6l-4.9,1.4l0.6,3.2
		c1.4,8.2,8.5,21.8,11.3,21.8c0.8,0,3.8-1,6.6-2.3c11.6-5.1,22.9-6.8,37.4-5.6c2.3,0.2,2.3,0.1,2.1-6.6c-0.1-7.1-1.5-11.9-7.9-27.4
		c-8.7-20.9-9.7-45.7-3.1-72.3c3.9-15.8,3.3-28.3-1.5-33.7c-2.3-2.4-3.4-2.2-4.7,1.3c-1.3,3.7-5.8,8.3-8.8,9
		c-3.4,0.9-8.2-1.9-10.7-6.1c-4.4-7.6-5.4-13.2-5.3-29.8c0.1-22.1,3.2-37.3,9.4-46.2c1.4-2.1,2.7-4.6,2.7-5.6c0-2.1-4.5-8.9-5.9-9
		C1426.7,1554.8,1425,1556.4,1423.5,1558.2z"/>
	<path id="structure89_label112_acer" bar:growlevel="0" bar:type="" class="st64" d="M1314.4,2049.3c-2.9,4.6-2.6,11.4,0.6,15
		c4.9,5.5,14,4.3,18.1-2.2c2.8-4.6,2.4-6.5-1.9-9.7C1321.6,2045.4,1317.3,2044.6,1314.4,2049.3z"/>
	<path id="structure8_label7_LSV" bar:growlevel="0" bar:type="" class="st65" d="M1408.8,1425.8c-19.7,10.5-44.4,26.2-56.8,36.2
		c-15.6,12.5-44.9,46.1-58.6,66.9c-6.9,10.6-26.8,45.5-26.8,47.2c0,0.7,0.7,1.3,1.5,1.3c3.2,0,18,8.2,25.1,13.9
		c20.2,16.1,31.8,37.7,34.7,64.5c0.6,5.6,1.4,9.8,2.1,9.7c0.4,0,3.2-4.7,5.8-10.4c16.7-35.6,40.3-70.7,60.3-90.3
		c8.5-8.4,8.8-8.7,12.2-17.6c4-10.5,6.3-21.4,7.2-32.6c0.3-4.3,1.3-17.5,2.3-29.1c1.4-18.2,3.4-52.7,3.5-61.9
		C1421.4,1419.6,1420.1,1419.8,1408.8,1425.8z"/>
	<path class="st66" d="M1272,1552.6c-4.1-50.2-26.1-106.2-72.3-184.1c-14-23.6-18.4-29.7-28.9-40.1c-9.8-9.8-18.4-16.4-21.2-16.5
		v81.3c0.7-0.1,1.3,0.3,2.4,1c6.8,4.3,34.1,34.3,41.8,45.9c5.4,8.2,17,32.4,23.6,49.1c17.5,44.4,25.2,82,23.7,114.9
		c-0.9,19.1-1.8,19.9,19.5-18.6l12.2-22.1L1272,1552.6z"/>
	<path class="st42" d="M1272,1552.6c-4.1-50.2-26.1-106.2-72.3-184.1c-14-23.6-18.4-29.7-28.9-40.1c-9.8-9.8-18.4-16.4-21.2-16.5
		v81.3c0.7-0.1,1.3,0.3,2.4,1c6.8,4.3,34.1,34.3,41.8,45.9c5.4,8.2,17,32.4,23.6,49.1c17.5,44.4,25.2,82,23.7,114.9
		c-0.9,19.1-1.8,19.9,19.5-18.6l12.2-22.1L1272,1552.6z"/>
	<path class="st67" d="M1239.1,1570c-4.8-38.1-23.2-91.8-43.6-126.7c-8.8-15.1-40.1-48.8-45.9-49.5v350.7l0.2-0.1l4.9,2.6
		c5.6,2.9,12,10,18.7,20.6c4.9,7.6,5.6,7.9,11.5,4.9c9.4-4.9,14-10.6,18.6-23.8c1.5-4.5,7.8-28.4,13.9-53.2
		c10.8-43.5,16-62.1,19.3-68.8C1240.6,1619.5,1241.7,1590.5,1239.1,1570z"/>
	<text id="label30" bar:growlevel="0" transform="matrix(1 0 0 1 1782.041 879.0879)" class="st68 st69 st70">S1FL</text>
	<text id="label31" bar:growlevel="0" transform="matrix(1 0 0 1 1582.21 819.166)" class="st68 st69 st70">S1HL</text>
	<text id="label32" bar:growlevel="0" transform="matrix(1 0 0 1 1461.8525 795.8516)" class="st68 st69 st70">M1</text>
	<text id="label33" bar:growlevel="0" transform="matrix(1 0 0 1 1315.6318 798.2832)" class="st68 st69 st70">M2</text>
	<text id="label34" bar:growlevel="0" transform="matrix(1 0 0 1 1229.3818 880.4961)" class="st68 st69 st70">Cg1</text>
	<text id="label35" bar:growlevel="0" transform="matrix(1 0 0 1 1211.6221 1026.4121)" class="st68 st69 st70">Cg2</text>
	<text id="label36" bar:growlevel="0" transform="matrix(1 0 0 1 1360.3916 1220.7266)" class="st68 st69 st70">LV</text>
	<text id="label37" bar:growlevel="0" transform="matrix(1 0 0 1 1241.0508 1243.7422)" class="st68 st69 st70">LSD</text>
	<text id="label38" bar:growlevel="0" transform="matrix(1 0 0 1 1159.7021 1208.7559)" class="st68 st69 st70">cc</text>
	<text id="label39" bar:growlevel="0" transform="matrix(1 0 0 1 1159.7021 1293.5918)" class="st68 st69 st70">SHi</text>
	<text id="label8" bar:growlevel="0" transform="matrix(1 0 0 1 1159.7021 1580.1289)" class="st68 st69 st70">MS</text>
	<text id="label9" bar:growlevel="0" transform="matrix(1 0 0 1 1161.9697 1844.4746)" class="st68 st69 st70">MnPO</text>
	<text id="label0" bar:growlevel="0" transform="matrix(1 0 0 1 1503.9111 1940.6133)" class="st68 st69 st70">VP</text>
	<text id="label1" bar:growlevel="0" transform="matrix(1 0 0 1 1621.7813 1903.0156)" class="st68 st69 st70">IPAC</text>
	<text id="label2" bar:growlevel="0" transform="matrix(1 0 0 1 1353.4307 1785.9668)" class="st68 st69 st70">STMV</text>
	<text id="label3" bar:growlevel="0" transform="matrix(1 0 0 1 1245.252 1687.7598)" class="st68 st69 st70">SHy</text>
	<text id="label4" bar:growlevel="0" transform="matrix(1 0 0 1 1361.71 2023.1895)" class="st68 st69 st70">HDB</text>
	<text id="label5" bar:growlevel="0" transform="matrix(1 0 0 1 1359.4922 1927.0508)" class="st68 st69 st70">SIB</text>
	<text id="label6" bar:growlevel="0" transform="matrix(1 0 0 1 1258.5117 1866.4414)" class="st68 st69 st70">LPO</text>
	<text id="label7" bar:growlevel="0" transform="matrix(1 0 0 1 1328.5635 1550.873)" class="st68 st69 st70">LSV</text>
	<text id="text7924-7" bar:growlevel="0" transform="matrix(1 0 0 1 1643.6982 2096.8086)" class="st68 st69 st70">Tu-3</text>
	<text id="label10" bar:growlevel="0" transform="matrix(1 0 0 1 1168.4678 2080.8828)" class="st68 st69 st70">och</text>
	<text id="label11" bar:growlevel="0" transform="matrix(1 0 0 1 1212.1904 2015.8379)" class="st68 st69 st70">MPA</text>
	<text id="label16" bar:growlevel="0" transform="matrix(1 0 0 1 1815.46 1916.5488)" class="st68 st69 st70">IEn</text>
	<text id="label15" bar:growlevel="0" transform="matrix(1 0 0 1 1740.2227 1976.1094)" class="st68 st69 st70">CB</text>
	<text id="label92" bar:growlevel="0" transform="matrix(1 0 0 1 1407.6416 992.9883)" class="st68 st69 st70">cg</text>
	<text id="label93" bar:growlevel="0" transform="matrix(1 0 0 1 1924.2422 1235.3984)" class="st68 st69 st70">ec</text>
	<text id="label96" bar:growlevel="0" transform="matrix(1 0 0 1 1571.8623 2030.6895)" class="st68 st69 st70">mfb</text>
	<text id="label97" bar:growlevel="0" transform="matrix(1 0 0 1 1876.0635 2114.1934)" class="st68 st69 st70">mcer</text>
	<text id="label94" bar:growlevel="0" transform="matrix(1 0 0 1 1921.7197 2058.7148)" class="st68 st69 st70">lo</text>
	<text id="label95" bar:growlevel="0" transform="matrix(1 0 0 1 1370.3818 1729.3145)" class="st68 st69 st70">aca</text>
	<text id="label99" bar:growlevel="0" transform="matrix(1 0 0 1 1159.7021 2000.1973)" class="st68 st69 st70">VMPO</text>
	<text id="text7920-8-7" bar:growlevel="0" transform="matrix(1 0 0 1 1970.2646 1999.748)" class="st68 st69 st70">Pir-1</text>
	<text id="text9198-9-1-7" bar:growlevel="0" transform="matrix(1 0 0 1 1324.1865 1369.9824)" class="st68 st69 st70">LSI-2</text>
	<text id="text9196-7-3-2" bar:growlevel="0" transform="matrix(1 0 0 1 1357.9482 1340.8613)" class="st68 st69 st70">LSI-1</text>
	<text id="label110" bar:growlevel="0" transform="matrix(1 0 0 1 1426.541 1672.5762)" class="st68 st69 st70">STLP</text>
	<text id="label112" bar:growlevel="0" transform="matrix(1 0 0 1 1323.46 2056.7344)" class="st68 st69 st70">acer</text>
	<text id="text9200-5-2-7" bar:growlevel="0" transform="matrix(1 0 0 1 1275.2402 1385.6074)" class="st68 st69 st70">LSI-3</text>
	<text id="label107" bar:growlevel="0" transform="matrix(1 0 0 1 1417.6025 1550.0059)" class="st68 st69 st70">LV</text>
	<text id="label106" bar:growlevel="0" transform="matrix(1 0 0 1 1438.0313 1602.4238)" class="st68 st69 st70">STLD</text>
	<text id="label105" bar:growlevel="0" transform="matrix(1 0 0 1 1383.252 1634.5605)" class="st68 st69 st70">STMA</text>
	<text id="Unlabeled-2143-2032" bar:growlevel="0" transform="matrix(1 0 0 1 1441.2422 2101.1328)" class="st68 st69 st70">Tu1</text>
	<text id="label104" bar:growlevel="0" transform="matrix(1 0 0 1 1578.0117 2084.8184)" class="st68 st69 st70">ICj</text>
	<text id="label103" bar:growlevel="0" transform="matrix(1 0 0 1 1811.502 1882.5234)" class="st68 st69 st70">LSS</text>
	<text id="text7916-1-3" bar:growlevel="0" transform="matrix(1 0 0 1 1965.0615 1967.6094)" class="st68 st69 st70">Pir-2</text>
	<text id="Unlabeled-1799-1121" bar:growlevel="0" transform="matrix(1 0 0 1 1156.3008 1126.1621)" class="st68 st69 st70">azp</text>
	<text id="label100" bar:growlevel="0" transform="matrix(1 0 0 1 1150.5029 1939.1152)" class="st68 st69 st70">3V</text>
	<text id="label109" bar:growlevel="0" transform="matrix(1 0 0 1 1169.7686 1150.6836)" class="st68 st69 st70">IG</text>
	<text id="label108" bar:growlevel="0" transform="matrix(1 0 0 1 1446.4014 1148.4453)" class="st68 st69 st70">E</text>
	<text id="label102" bar:growlevel="0" transform="matrix(1 0 0 1 1437.3721 1768.502)" class="st68 st69 st70">STLV</text>
	<text id="label101" bar:growlevel="0" transform="matrix(1 0 0 1 1161.9697 1908.2773)" class="st68 st69 st70">VOLT</text>
	<text id="text7918-6-8" bar:growlevel="0" transform="matrix(1 0 0 1 1966.6025 1932)" class="st68 st69 st70">Pir-3</text>
	<text id="text7926-6" bar:growlevel="0" transform="matrix(1 0 0 1 1661.001 2144.4629)" class="st68 st69 st70">Tu-1</text>
	<text id="label134" bar:growlevel="0" transform="matrix(1 0 0 1 1373.0215 1600.5352)" class="st68 st69 st70">ZL</text>
	<text id="label41-4-3-9" bar:growlevel="0" transform="matrix(1 0 0 1 1255.9658 1424.3633)" class="st68 st69 st70">LSI-4</text>
	<text id="label68-22" bar:growlevel="0" transform="matrix(1 0 0 1 2007.2314 920.2754)" class="st68 st69 st70">S1DZ</text>
	<text id="label127" bar:growlevel="0" transform="matrix(1 0 0 1 1162.3096 1376.5215)" class="st68 st69 st70">SFi</text>
	<text id="label128" bar:growlevel="0" transform="matrix(1 0 0 1 1222.21 1441.7168)" class="st68 st69 st70">fi</text>
	<text id="label23" bar:growlevel="0" transform="matrix(1 0 0 1 2132.4111 1719.084)" class="st68 st69 st70">AID</text>
	<text id="label22" bar:growlevel="0" transform="matrix(1 0 0 1 2095.6318 1788.0371)" class="st68 st69 st70">AIV</text>
	<text id="label21" bar:growlevel="0" transform="matrix(1 0 0 1 1991.8916 1702.3418)" class="st68 st69 st70">VCl</text>
	<text id="label20" bar:growlevel="0" transform="matrix(1 0 0 1 1938.6123 1814.1406)" class="st68 st69 st70">DEn</text>
	<text id="label27" bar:growlevel="0" transform="matrix(1 0 0 1 2023.3008 1607.1934)" class="st68 st69 st70">DCl</text>
	<text id="label26" bar:growlevel="0" transform="matrix(1 0 0 1 1663.9922 1467.252)" class="st68 st69 st70">CPu</text>
	<text id="label25" bar:growlevel="0" transform="matrix(1 0 0 1 2171.0508 1577.1289)" class="st68 st69 st70">GI</text>
	<text id="label24" bar:growlevel="0" transform="matrix(1 0 0 1 2162.083 1649.082)" class="st68 st69 st70">DI</text>
	<text id="label29" bar:growlevel="0" transform="matrix(1 0 0 1 2065.7813 1161.7969)" class="st68 st69 st70">S1ULp</text>
	<text id="label28" bar:growlevel="0" transform="matrix(1 0 0 1 2168.7422 1442.1973)" class="st68 st69 st70">S2</text>
	<text id="text7922-5" bar:growlevel="0" transform="matrix(1 0 0 1 1653.5918 2122.793)" class="st68 st69 st70">Tu-2</text>
</g>
</svg>
