<?xml version="1.0" encoding="utf-8"?>
<!-- Generator: Adobe Illustrator 24.1.1, SVG Export Plug-In . SVG Version: 6.00 Build 0)  -->
<svg version="1.1"
	 id="body" inkscape:version="0.47pre4 r22446" sodipodi:docname="116_pretrace_pretrace_v1.svg" xmlns:bar="http://www.3dbar.org" xmlns:cc="http://creativecommons.org/ns#" xmlns:dc="http://purl.org/dc/elements/1.1/" xmlns:inkscape="http://www.inkscape.org/namespaces/inkscape" xmlns:rdf="http://www.w3.org/1999/02/22-rdf-syntax-ns#" xmlns:sodipodi="http://sodipodi.sourceforge.net/DTD/sodipodi-0.dtd" xmlns:svg="http://www.w3.org/2000/svg"
	 xmlns="http://www.w3.org/2000/svg" xmlns:xlink="http://www.w3.org/1999/xlink" x="0px" y="0px" viewBox="0 0 3024 3024"
	 style="enable-background:new 0 0 3024 3024;" xml:space="preserve">
<style type="text/css">
	.st0{fill:#FF000C;}
	.st1{fill:#3B68E9;}
	.st2{fill:#3FFF00;}
	.st3{fill:#6D2FF6;}
	.st4{fill:#FFC423;}
	.st5{fill:#FF3600;}
	.st6{fill:#B8B2FF;}
	.st7{fill:#DEFF00;}
	.st8{fill:#FFE4B2;}
	.st9{fill:#DFFF00;}
	.st10{fill:#EEFF76;}
	.st11{fill:#DFC98E;}
	.st12{fill:#FFB2DC;}
	.st13{fill:#5C2FBF;}
	.st14{fill:#3C3BE9;}
	.st15{fill:#7E53D8;}
	.st16{fill:#A982ED;}
	.st17{fill:#E9D18E;}
	.st18{fill:#FFC559;}
	.st19{fill:#DFB547;}
	.st20{fill:#C0A6F6;}
	.st21{fill:#DAFF00;}
	.st22{fill:#FFD0B2;}
	.st23{fill:#7047CB;}
	.st24{fill:#6B3BCB;}
	.st25{fill:#C6D400;}
	.st26{fill:#F3FF59;}
	.st27{fill:#7059FF;}
	.st28{fill:#D8E900;}
	.st29{fill:#8CFF59;}
	.st30{fill:#E547D8;}
	.st31{fill:#FF7100;}
	.st32{fill:#A682DC;}
	.st33{fill:#00D43B;}
	.st34{fill:#FFAE59;}
	.st35{fill:#CDE900;}
	.st36{fill:#5600D4;}
	.st37{fill:#9653F6;}
	.st38{fill:#B2FF00;}
	.st39{fill:#5023FF;}
	.st40{fill:#E7FF00;}
	.st41{fill:#FFB2BA;}
	.st42{fill:#9976D8;}
	.st43{fill:#DFAB00;}
	.st44{fill:#7247C3;}
	.st45{fill:#FFAE00;}
	.st46{fill:#E9BD47;}
	.st47{fill:#1F00FF;}
	.st48{fill:#DF7800;}
	.st49{fill:#FFA600;}
	.st50{fill:#E9B323;}
	.st51{fill:#F1FFB2;}
	.st52{fill:#FAD6A5;}
	.st53{fill:#FFCBB2;}
	.st54{fill:#D45E00;}
	.st55{fill:#E9713B;}
	.st56{fill:#F0FF59;}
	.st57{fill:#E7FF3B;}
	.st58{fill:#D6FF00;}
	.st59{fill:#EBF400;}
	.st60{fill:#DFB259;}
	.st61{fill:#FFE2B2;}
	.st62{fill:#FFCC47;}
	.st63{fill:#B2FFDE;}
	.st64{fill:#DFA000;}
	.st65{fill:#FFB700;}
	.st66{fill:#FFD059;}
	.st67{fill:#F9FF47;}
	.st68{fill:#D0D46B;}
	.st69{fill:#FFFDB2;}
	.st70{fill:#FFC159;}
	.st71{fill:#FF005D;}
	.st72{fill:#76E7E9;}
	.st73{fill:#FFFB00;}
	.st74{fill:#FFFA00;}
	.st75{fill:#DCDF8E;}
	.st76{fill:#CCD400;}
	.st77{fill:#E7E959;}
	.st78{fill:#FDFFB2;}
	.st79{fill:#F8FF00;}
	.st80{fill:#FFD3B2;}
	.st81{fill:#FAFF59;}
	.st82{fill:#EEF447;}
	.st83{fill:#FFFEB2;}
	.st84{fill:#FFFE00;}
	.st85{fill:#69FF00;}
	.st86{fill:#F5FFB2;}
	.st87{fill:#E9FF59;}
	.st88{fill:#F4FFB2;}
	.st89{fill:#793BFA;}
	.st90{fill:#826BF2;}
	.st91{fill:#9B76CB;}
	.st92{fill:#FF59B8;}
	.st93{fill:#C9FFB2;}
	.st94{fill:#00D7F2;}
	.st95{fill:#E1B2FF;}
	.st96{fill:#872FFF;}
	.st97{fill:#0004E9;}
	.st98{fill:#4CC9F7;}
	.st99{fill:#232323;enable-background:new    ;}
	.st100{font-family:'TimesNewRomanPSMT';}
	.st101{font-size:27px;}
	.st102{fill:#FF0000;enable-background:new    ;}
	.st103{font-size:6px;}
</style>
<sodipodi:namedview  bordercolor="#666666" borderopacity="1" gridtolerance="10" guidetolerance="10" id="namedview475" inkscape:current-layer="content" inkscape:cx="580.19788" inkscape:cy="374.2872" inkscape:object-paths="true" inkscape:pageopacity="0" inkscape:pageshadow="2" inkscape:window-height="1128" inkscape:window-maximized="1" inkscape:window-width="1918" inkscape:window-x="1680" inkscape:window-y="24" inkscape:zoom="4.3316729" objecttolerance="10" pagecolor="#ffffff" showgrid="false">
	</sodipodi:namedview>
<desc  id="desc5">This was produced by version 4.2 of GNU libplot, a free library for exporting 2-D vector graphics.</desc>
<defs>
	<rdf:RDF>
		<cc:Work  rdf:about="">
			<dc:format>image/svg+xml</dc:format>
			<dc:type  rdf:resource="http://purl.org/dc/dcmitype/StillImage"></dc:type>
		</cc:Work>
	</rdf:RDF>
	<bar:data  content="-4.8" name="coronalcoord"></bar:data>
	
		<bar:data  content="{&apos;ReferenceHeight&apos;: 900, &apos;ReferenceWidth&apos;: 1200, &apos;imageSize&apos;: (1200, 900)}" name="rendererConf">
		</bar:data>
	
		<bar:data  content="{&apos;DumpEachStepSVG&apos;: False, &apos;DumpEachStepPNG&apos;: False, &apos;GrowDefaultBoundaryColor&apos;: 200, &apos;CacheLevel&apos;: 5, &apos;NewPathIdTemplate&apos;: &apos;structure%d_%s_%s&apos;, &apos;PoTraceConf&apos;: {&apos;potrace_accuracy_parameter&apos;: &apos;0.001&apos;, &apos;potrace_width_string&apos;: &apos;1200pt&apos;, &apos;potrace_svg_resolution_string&apos;: &apos;300x300&apos;, &apos;potrace_height_string&apos;: &apos;900pt&apos;}, &apos;DetectUnlabelled&apos;: True, &apos;DumpVBrain&apos;: False, &apos;DumpWrongSeed&apos;: True, &apos;DumpDirectory&apos;: &apos;.&apos;, &apos;MinFiterTimesApplication&apos;: 3, &apos;RegionAlreadyTraced&apos;: 100, &apos;UnlabelledTreshold&apos;: 500}" name="tracingConf">
		</bar:data>
	<bar:data  content="0.0176211454,-9.5150660793,0.0176211454,-1.5355884426" name="transformationmatrix"></bar:data>
</defs>
<g id="content">
	<path class="st0" d="M2415,1311.3c-4.4-61.4-12.9-97.6-39.4-169.2c-71.1-191.9-153.7-302.1-298.4-398.2
		c-45.7-30.3-106.3-64.5-157-88.6c-126.4-60.1-245.1-91.4-384.8-101.3c-149.4-10.6-271.4,7.6-348.4,51.8
		c-23.9,13.8-35.2,24.4-47,44.6c-9.9,16.9-19.3,44.8-23.1,69.3c-0.8,5-1.6,9.9-1.9,11c-0.2,1-0.6,1.6-1.1,1.9v1450.8
		c8.7,0.1,16.7-0.3,24.2-1.1c42.6-4.8,109.4-18.5,139.1-28.8c14.8-5.1,23.2-8.9,36.3-16.7c22.6-13.3,27-22.6,20.8-42.8
		c-5.1-16.7-3.3-27,6.5-36.7c6.3-6.3,10.5-8.3,17.5-8.3h5.5l6.7,6.2c27,25.1,59.8,32.1,99.8,21.1c18.4-5,46.7-18.9,71.5-34.9
		c4.6-3,9-5.4,9.7-5.4c0.7,0,1.8,1,2.3,2.3c1.3,2.8,6.1,5.9,9.2,5.9c1.3,0,3.6-0.8,5.2-1.8c1.6-1,3.3-1.8,3.8-1.8
		c0.5,0,0.9,2.8,0.9,6.1c0,15.2,7.2,25.2,20.4,28.2l4.6,1.1l1.1,5.9c4.1,23.4,11.3,42.9,21,57.2c12.9,19,38.4,35.9,60,39.6
		c6.4,1.2,10.6,2.8,26.1,10.3c65.7,31.9,80.4,38,103.1,42.8c34.9,7.7,86.2,8.9,125.6,3.2c25.7-3.8,51.7-11.3,70.7-20.6
		c17-8.3,21.9-11.5,42.7-28.4c2.7-2.3,6.9-4.7,9.4-5.5c6.2-2.1,19.3-1.4,28.9,1.7c10.6,3.3,13.5,3.5,33.8,2
		c43.2-3.2,51.9-7.8,106-56.8c28.7-25.9,46.3-47.1,69.6-83.3c21.4-33.6,46.1-81.6,55.3-108c5.6-15.9,10-40.4,12.2-68.2
		c1.5-19.4,1.5-79.8,0-90.9c-3.4-24.6-10.1-40.4-27.5-65.3c-8.7-12.5-10.4-15.7-10.4-20.5c0-5.1,3.2-8.3,14-13.3
		c10.4-4.9,17.5-11.8,22.2-21.5c4.1-8.6,20.5-53.2,27.1-73.4c15.1-46.8,24.4-98.8,27.7-154.8
		C2417.2,1407.3,2416.6,1332.6,2415,1311.3z M1240.3,1246.2c-16.1,8.2-24.8,13.1-33,19.2c-12.4,8.9-13.3,9.4-14.1,8.6
		c-0.4-0.3,0.6-4.3,2.2-8.9c5.7-16.7,7-31.2,4.2-47c-2.5-14.9-2.5-14.9-1.2-14.9c0.7,0,4.7,2.4,8.8,5.4c16.1,11.5,36.1,21.2,49,23.5
		c3.3,0.6,6,1.5,6,2.1C1262.1,1234.8,1252.3,1240.2,1240.3,1246.2z M1499.1,1168.4c-21.3,3.3-56.3,9.6-72.8,13.2
		c-9.3,2-17.5,3.6-18.5,3.6c-2.8,0-1.8-2.3,2.1-4.4c6.6-3.7,25.3-16.4,34.3-23.1c11-8.4,23.5-20.3,28.2-26.7c2-2.8,4.1-5,4.8-4.9
		c0.7,0.1,2.3,3,3.7,6.5c5.2,13.3,14.9,25.1,24.5,29.4C1512.4,1165.4,1511.2,1166.6,1499.1,1168.4z"/>
	<path id="structure115_label140_APT" bar:growlevel="0" bar:type="" class="st1" d="M1437.9,1215c-12.9,3.3-28.1,11-39.6,20
		c-11.3,8.6-16.5,16.9-25.9,41.2c-14.3,36.8-23.9,76.3-26.6,109.3c-1.3,16.7-0.6,51.8,1.4,68.9c3.1,25.8,9.5,51.1,17.5,67.9
		c12.3,26.4,34.9,47.3,56.6,52.3c9.2,2.2,24.6,1.4,33.9-1.8c10.6-3.6,20.8-9.3,27.2-15.3c16.9-15.7,32.4-50.7,36.6-82.6
		c3.3-24.9,2.7-47.3-2.7-94.3c-2.8-23.9-3.2-31.7-3.9-60.8c-1-45.5-3.2-59.2-12.2-77.6c-4.7-9.6-13.1-18.9-20.8-23
		C1468.3,1213.3,1450.9,1211.5,1437.9,1215z"/>
	<path id="structure118_label143_cg" bar:growlevel="0" bar:type="" class="st2" d="M1308,768c-10.5,2.9-18.4,9.6-23.8,20.3
		c-1.8,3.6-7,17.8-11.7,31.5c-15,44.7-29.3,77.3-42.7,97.9c-5.8,8.9-16.2,20.4-24,26.4c-5,4-6.2,6.3-3.1,6.3
		c3.1,0,26.4-12.4,34.3-18.5c14.3-10.7,26.7-25.7,44.9-54.4c33.3-52.4,40.6-61.6,55.4-68.7c11-5.4,8.4-5.3,99.8-5.5
		c46.1-0.2,86.1-0.6,89-1c8.4-1.2,6.3-2.7-5.4-4c-38.1-4.1-100.8-14.1-163.4-26.3C1327.6,766.4,1317,765.5,1308,768z"/>
	<path id="structure119_label144_LT" bar:growlevel="0" bar:type="" class="st3" d="M1756.4,1664.2c-1.1,6.6-2.4,19.3-2.9,28.2
		c-1.6,29-4,41.9-11.2,62c-3.6,9.8-3.9,11.3-2,11.3c1.3,0,13.9-16.1,19.6-25.2c7.3-11.4,14-33.4,17.7-57.2
		c2.8-17.9,3.5-20.7,6.4-24.8c3.3-4.7,2.8-5-8.3-5c-5.6,0.1-11.8-0.3-13.8-0.6l-3.7-0.8L1756.4,1664.2z"/>
	<path id="structure120_label145_VPM" bar:growlevel="0" bar:type="" class="st4" d="M1628.5,1499.9c-11.6,6.5-19.6,12.5-29.4,22.3
		c-11.2,11.2-16.6,19.3-18.8,28.3c-3.8,14.4,5.1,25.6,22.1,28c9.6,1.3,27.3-1.7,28.5-5.1c0.3-0.6-0.2-5.7-1-11.1
		c-2.5-17.6-1.4-31.5,4.4-52.8c1.7-6.2,3.1-11.7,3.1-12.1C1637.4,1495.8,1634.2,1496.7,1628.5,1499.9z"/>
	<path id="structure121_label146_BLP" bar:growlevel="0" bar:type="" class="st5" d="M2055.1,1967.4c-12,3.2-19,8-19,13
		c0,1.9,0.5,2.2,3.4,2.2c5.4,0,13.1,2.3,21.8,6.8c17.4,8.7,34.2,6.9,34.2-3.8c0-6.9-5.3-14.2-13.1-17.9
		C2076.6,1964.9,2064.9,1964.8,2055.1,1967.4z"/>
	<path id="structure122_label148_SNCD" bar:growlevel="0" bar:type="" class="st6" d="M1568.6,1783.8
		c-29.1,19.7-67.4,50.7-86.7,70.2c-5.1,5.1-16.6,18.4-25.5,29.3c-20.3,25.1-29.2,35.1-39.2,44.1c-13.9,12.4-30.3,29.3-36.6,37.7
		c-8,10.6-14.8,24.1-16.1,32.4c-0.8,5.3-0.8,7.1,0.4,11.3c1.7,5.8,5.8,10.8,9,10.8c3.9,0,14.3-15.8,27.5-42
		c11.8-23.2,24.4-42.2,33.7-50.3c2.2-2,7.5-5.6,11.8-8c29.3-16.8,26-14.4,44.9-34.6c29.6-31.6,41.1-44.4,52.6-58.6
		c3-3.7,11.1-13.1,17.9-20.7c6.9-7.7,13.9-15.8,15.8-18c5.5-6.8,7.7-12.6,5-12.6C1582.5,1774.8,1576,1778.8,1568.6,1783.8z"/>
	<path id="structure123_label149_GrDG" bar:growlevel="0" bar:type="" class="st7" d="M1648,1034.1c-7.5,1.2-22.8,6.6-34.6,12.1
		c-19.3,9.1-38.8,21.5-66.9,42.6c-28.5,21.3-34.5,28.4-31.4,37.5c1,2.9,2.1,4.1,5.3,5.6c5.2,2.7,8.4,2.6,25.7-0.5
		c23.6-4.3,38-5.8,56.7-5.8c13.9,0,18.8,0.4,26.3,1.9c26.5,5.4,57.8,17.8,67.8,26.8c3.8,3.4,5.4,3.9,5.4,1.3c0-3.2-5.8-10.4-12-15
		c-25.9-19.4-59.1-28.3-101.4-27.1c-17.6,0.5-24.7,1.4-34.3,4.3c-7.4,2.3-13.7,2.1-14.1-0.4c-0.5-2.7,11.6-13.8,24.6-22.3
		c12.8-8.4,37.5-22.9,50.1-29.2c23.2-11.7,38.7-14.4,56.1-9.9c3,0.8,15.6,6.5,27.9,12.6c22.7,11.3,42.9,20.6,55.3,25.3
		c13.1,5,40.4,25.7,54.5,41.5c12.7,14.2,23.2,24.7,24.8,24.7c3.8,0,3.1-7.1-1.4-16.1c-5.8-11.3-16.9-24.3-32.2-37.5
		c-19.8-17-33.7-25.7-50.1-31.4c-5.2-1.8-14.5-5.7-20.7-8.5c-10.1-4.6-17.9-8.8-46.8-25c-4.7-2.6-10.5-5.4-13.1-6.1
		C1663.5,1033.6,1654.4,1033.1,1648,1034.1z"/>
	<path id="structure124_label150_MGD" bar:growlevel="0" bar:type="" class="st8" d="M1715.2,1450.9c3.5,19.3,2.7,26.3-3.4,28.6
		c-6.3,2.3-23.6-6.8-42.2-22.2c-4.1-3.5-7.5-5.7-8.3-5.3c-4.3,1.6-16.4,25.4-22.9,45.1c-4.3,13.1-5.5,18.4-4,18.4
		c0.4,0,5.6-2.4,11.5-5.3c19.4-9.5,43.5-17.1,64.8-20.3c5-0.8,15.4-1.7,23.2-2l14.1-0.5v-2.3c-0.1-5.3-8-18.1-15.6-25
		c-5.8-5.3-14.9-12-16.6-12C1714.9,1448.1,1714.7,1448.8,1715.2,1450.9z"/>
	<path id="structure125_label151_SLu" bar:growlevel="0" bar:type="" class="st9" d="M1758.9,1149.1c0,0.9,1.4,3.1,3.2,4.8
		c14,13.2,44.5,51.5,66.7,83.6c33.3,48.1,54.3,86.9,74.4,137.9c11.6,29.3,17.6,49.5,20.1,67.7c3,21.9,1.5,74.4-3.4,124
		c-2.9,29.1-5.7,40-15.6,60.6c-10.4,21.8-17.4,31.9-59.4,87.8c-48.8,64.8-51.5,68-113.8,136.8c-31.7,34.9-51.8,60-74.1,92.7
		c-19.5,28.5-47.2,75-49.3,82.8c-1.3,4.6-1.1,7.2,0.4,7.2c0.8,0,3.8-5,7.7-12.9c11.5-22.9,25.7-47.2,36.5-62.2
		c22.1-30.7,64.1-78.3,111.9-127c36.5-37.3,51.8-54.2,95.5-105.8c24.6-29.1,30.4-36.6,41-52.5c21.7-32.5,30.3-59.5,37.5-117.9
		c7.1-57.2,8.4-93.1,4.2-115.5c-8.7-46.7-28.5-92.3-68.3-157c-23.9-39-41.3-62.1-71.3-94.9c-14.5-15.8-41-41.9-42.8-41.9
		C1759.6,1147.5,1758.9,1148.2,1758.9,1149.1z"/>
	<path id="structure126_label153_Py" bar:growlevel="0" bar:type="" class="st10" d="M1657.9,1089.4c-1.3,0.7-2.8,2.7-3.3,4.3
		c-2.5,7.6,2.7,11.8,34,27.6c32,16.1,39,20.7,53.2,35c23.2,23.4,60.7,68.8,82.1,99.5c28.2,40.4,54.5,99.2,68.1,151.7
		c20.9,80.5,18.6,164.1-6,217c-13.1,28.1-44.2,73.6-86.1,125.8c-23.1,28.9-29.7,36.6-59.1,69.8c-63.2,71.3-77.9,90.5-125.4,164.6
		l-11.5,17.9l1.1,8.2c1.4,10.5,1.8,12.2,3.3,12.2c0.7,0,2.3-2.2,3.6-4.8c10.3-20.3,37.2-63.2,55.8-89c23.5-32.5,34.7-45.9,83.3-99.3
		c38.5-42.5,49-55.2,93.2-113.8c46.5-61.7,55.9-76.1,65.4-100.4c6.8-17.2,9-31.7,12.9-82.3c2-25.3,2.3-79.1,0.5-91.4
		c-2.6-18-8.5-37.8-20.4-68c-15.6-39.5-31.2-70.7-52.5-104.3c-32.3-51.1-61.8-89.3-95.6-123.6c-18.2-18.5-23.8-23.4-42.1-35.5
		C1684,1091.7,1666.3,1084.9,1657.9,1089.4z"/>
	<path id="structure127_label154_IMA" bar:growlevel="0" bar:type="" class="st11" d="M1652.1,1219.2c1.3,66.2,8.8,126.1,20,160
		c1.3,4,4.2,11.2,6.6,16c4,8.4,4.2,8.8,6.5,8.2c10.5-2.9,20.9,9.9,26.5,32.8l2.3,9.7l5.9,3.9c7.5,4.9,17.2,13.9,21.1,19.8
		c1.7,2.4,3.5,4.5,4.1,4.5c0.6,0,1.3-1.7,1.6-3.9c0.8-5.6,5.2-14.3,9.4-18.9c2.1-2.2,3.7-4.4,3.7-4.9c0-0.5-1.8-1.2-4-1.4
		c-10.2-1.4-21.3-8.8-36.9-24.4c-19.4-19.6-28.4-31.8-32.9-45.2c-4.2-12.2-22-116.5-26.4-154.7c-0.5-4.1,1.1-12.9,3-16.6
		c1-1.8,2.8-4.2,4.1-5.4c1.9-1.8,3.1-4.5,2.2-4.6c-0.2-0.1-3.5-0.6-7.5-1.3c-4-0.7-7.7-1.3-8.5-1.3
		C1651.7,1191.6,1651.6,1195.8,1652.1,1219.2z"/>
	<path class="st12" d="M1122.1,1430.3c-1.7-2.3-2.5-2.5-8.1-2.8c-0.1,0-0.2,0-0.2,0v199.4c0.5-0.3,0.9-0.8,1.1-1.4
		c1.3-4.1,3.2-40.9,5.5-102.8c0.7-20.1,1.9-45.5,2.4-56.7C1124.4,1437.3,1124.3,1433.4,1122.1,1430.3z"/>
	<path id="structure129_label158_MCPC" bar:growlevel="0" bar:type="" class="st13" d="M1226.1,1398.6c0,0.5,1.3,2.9,3.1,5.2
		c8.4,11.5,11.3,21.7,13.5,46c1.3,14.9,2.2,18,7.1,23.1c3.8,4,9.2,5,23.6,4.6c9.7-0.3,12.3-0.6,15.3-2.3c4.7-2.4,7.1-5.1,9.6-10.6
		c1.8-4,2.1-5.9,2-15.3c-0.2-17.3-3.7-25.7-13.9-32.8c-9.8-6.8-23.9-12-45.8-16.7C1228.5,1397.4,1226.1,1397.2,1226.1,1398.6z"/>
	<path class="st14" d="M1402.1,1745.1c-1.5,0-26.1,16.2-40.1,26.4c-10.7,7.7-20.7,12.6-32,15.6c-12.1,3.2-35.4,4.1-47.6,1.7
		c-17.8-3.3-32.8-12.4-38.8-23.4c-0.9-1.7-2.1-3.2-2.6-3.2c-0.6,0-0.9,10.3-0.9,30.3c0,28.2-0.2,31.1-2.1,39.6
		c-1.1,5-2.8,11.1-3.8,13.4c-4,9.1-16.5,23.4-23,26.1c-4,1.6-8.6,1.6-10.9-0.1c-3.7-2.8-4.6-1.8-5.1,5.4c-1,11.2-3.2,19.3-6,22.2
		c-2.9,2.9-4.7,3.2-6.7,1.2c-3.1-3.1-3.5-7.8-3.9-39.2c-0.6-45.3,1.4-65.8,7.8-78.6c2.7-5.4,5.3-15.4,4.3-16.4c-0.3-0.4-2.5,0.1-5,1
		c-4,1.3-5.1,1.4-9.9,0.4c-11.8-2.5-18.4-8.6-22.1-20.2c-1.8-5.6-2.1-8.4-2-20c0-14.3,1.3-23.1,5.4-37.8
		c6.1-21.5,19.5-35.6,38.6-40.5c8.5-2.2,13.9-1.8,25.5,1.8c1.9,0.6,2,0.4,2-4.1c0.1-12.3,3.2-25.8,11-46.3c5.8-15.4,8.8-25,8.8-27.9
		c0-1-1.4-4.6-3.2-8c-1.7-3.3-3.2-7.1-3.2-8.3c0-1.4-0.5-2.2-1.5-2.2c-1.1,0-2.8,2.3-5.2,6.8c-8.7,16.6-27.4,37.5-38.3,43
		c-11.1,5.6-18.2,4-27.3-5.9c-12.1-13-17-34.8-12.3-54.4c6.1-25.1,24.2-54.7,37.4-61.2c9.3-4.6,25.7-3.7,37.1,1.9
		c5.3,2.5,14.3,10.3,15.1,13.1c0.4,0.9,1.2,1.7,1.9,1.7c1.3,0,1.4-1.9,0.8-14.7c-0.8-20.3-1.5-23.9-5.5-30
		c-7.1-10.7-22.1-22.9-35.6-29c-18.6-8.4-44.9-13.4-65.4-12.7c-7.7,0.4-8.5,0.5-10.7,2.9c-2.5,2.4-2.5,2.5-2.3,13.5
		c0.1,6-0.2,18.3-0.6,27.2c-0.5,8.9-1.7,37.6-2.7,63.9c-3.4,88.5-4.9,112-8,112.7v354.6c31.1,0.3,78.1,13.8,101.8,30.2
		c6.5,4.5,7.8,5,7.8,2.9c0-0.7,1-2,2.3-2.8c2.1-1.4,3.2-1.4,15,0.4c29.2,4.2,45,4.6,61,1.4c6.2-1.2,13.1-2.3,15.3-2.3
		c12.2,0,17,6,10.4,13.3c-11,12.2-58.1,21.2-78.3,15.1c-6.4-2-7-1.9-6.4,1c0.8,3.2,4,6,8.8,7.7c3.1,1.2,49,15.2,56.9,17.6
		c1.5,0.4,1.6,0.1,1.1-3.8c-1.1-6.9,0.8-12.7,5.7-17.6c4.5-4.7,6.9-5.7,17.9-7.3c7.3-1.2,17.1-0.1,21.9,2.3c1.3,0.7,4,1.3,5.8,1.3
		h3.2v-5.2c0-6.4,1.8-12.6,4.9-17.4c3-4.4,2.9-5.3-0.1-8.2c-10.8-10.1-44.8-27.3-86.7-43.6c-23.8-9.4-27.7-11.2-34.8-16.2
		c-6.7-4.8-11.3-10-14.3-16.3c-4.5-9.1-2.3-23,6.6-40.8c4.6-9.3,6-11.3,13.8-19c7.4-7.5,9.7-9.3,17.1-12.8
		c17.7-8.6,52.8-16.2,88.9-19.2c7.9-0.6,9.1-1.6,4.7-4.1c-3.6-2.1-6.3-6.8-6.3-10.9c0-7.4,6.9-23.2,22.2-50.9
		c7.4-13.4,18.7-31.1,21.8-33.8C1403.8,1747.2,1404.1,1745.1,1402.1,1745.1z"/>
	<path id="structure130_label159_PCom" bar:growlevel="0" bar:type="" class="st15" d="M1162.9,1355.4c-10.1,1.3-17.7,5.5-17.7,9.5
		c0,0.6,1,1.2,2.2,1.2c3.7,0,24,3.7,32.8,5.9c10.4,2.7,22.2,7.5,27.3,11c2.2,1.4,6.6,5,9.8,8l5.9,5.3l9.4,1.6
		c13.8,2.3,28.3,6.2,37.6,9.9c4.4,1.8,8.6,3.2,9.1,3.2c1.6,0,1.2-2.1-1.9-8.2c-5.8-11.5-24.3-27.4-42.1-35.8
		C1217.4,1358.7,1181.5,1352.8,1162.9,1355.4z"/>
	<path class="st16" d="M1113.8,1413v13.3c3.1,0,5.8,0.4,6.4,1c2,2,3.2,0.9,3.8-3.5c0.4-2.4,1.3-5.5,2.3-6.7c0.9-1.2,1.7-2.6,1.7-3.1
		C1128,1413.2,1123.5,1413,1113.8,1413z"/>
	<path id="structure133_label163_VLi" bar:growlevel="0" bar:type="" class="st17" d="M1626.2,1642.4c-4.4,1.9-19.6,9.1-33.8,16
		c-29.9,14.8-34,16.5-48.3,20c-11.4,2.9-52.9,11.3-73.8,14.8c-24.7,4.3-44.5,4.9-54.9,1.8c-3-0.8-2.7,1.9,0.5,6.9
		c4.3,6.7,8,9.4,14.5,11c10.6,2.6,17,3.4,18.6,2.6c6.1-3.2,37.2-10.3,61.9-14.1c17.5-2.6,29.7-6.1,50.4-14.6
		c19.5-7.9,34.7-16.7,65.9-38.2C1642.4,1638.3,1641.9,1635.8,1626.2,1642.4z"/>
	<path id="structure134_label164_MZMG" bar:growlevel="0" bar:type="" class="st18" d="M1733.2,1488.3l-3.7,0.4l-0.5,11
		c-0.9,22.9-7.8,43.4-21.7,64.5c-9.4,14.3-19,22.6-31.7,27.2c-7.3,2.6-21.3,3.2-29.1,1.3c-3.1-0.8-6-1.4-6.5-1.4
		c-3.4,0,4.4,14.2,11.4,20.6c2.3,2.2,6.3,4.9,9.1,6.1c4.4,2.1,5.8,2.3,13.6,1.9c7.4-0.3,9.6-0.7,14.6-3.1
		c6.9-3.2,14.4-9.9,20.6-18.2c8.1-11,25-40.3,28.7-49.9c6.1-15.8,10-35,10.3-51.4l0.2-9.1l-5.8-0.1
		C1739.5,1488,1735.2,1488.1,1733.2,1488.3z"/>
	<path id="structure135_label165_IGL" bar:growlevel="0" bar:type="" class="st19" d="M1829.6,1421.9c-17.4,8.2-43.5,17.7-62.8,23
		c-9.8,2.7-17.6,13-19.6,25.8c-0.7,4.9-0.6,6.8,0.6,11.2c4.5,15.2-2.3,53.3-13.2,75.2c-4.2,8.5-20.6,35.6-24.8,41.1
		c-7.4,9.7,0.4,8,14.1-3.2c22.8-18.4,40.5-54.6,56.3-114.7c2.8-10.6,5.8-20.6,6.8-22.2c6.9-11.4,27.2-20.3,49.1-21.6
		c5-0.3,9.2-0.8,9.2-1.1c0-0.4-0.8-2.2-1.8-4.1c-0.9-1.9-2.3-5.7-2.8-8.3c-0.8-3.4-1.5-4.9-2.5-4.8
		C1837.4,1418.4,1833.5,1420.1,1829.6,1421.9z"/>
	<path id="structure136_label166_Py" bar:growlevel="0" bar:type="" class="st10" d="M1494.3,875c-17.7,5.3-34.3,19-48.2,39.9
		c-11,16.5-13.9,35.6-13.9,92.4c0,39.1-1.4,50-8.9,66.7c-9.7,21.4-31.6,43.3-55,54.7c-16.9,8.2-46.8,17.1-75.5,22.4
		c-14.3,2.6-17.4,2.4-21.7-1.5c-5.6-5-21.2-10.6-35.1-12.5c-6.1-0.8-10.4-3.7-17.8-12.2c-3.8-4.2-8.6-8.7-10.9-10.2
		c-9-5.3-22.9-9.3-37.9-10.5c-5.7-0.5-12.7-1.2-15.5-1.4c-4.2-0.4-5.2-0.4-5.2,0.7c0,3.2,1.7,3.9,26.1,11.1
		c17.5,5.1,22.7,7.6,34.2,16.6c13.7,10.7,17.2,12.7,30.7,16.6c14,4.1,20.7,6.7,29.3,11.3c9,4.9,14.4,5.8,26.9,4.5
		c28.3-2.9,61.9-14.9,88.5-31.3c28.1-17.5,45.5-41.1,53.9-73.3l2.4-9.3l0.1-38.7c0.2-50.8,1.4-59,11.3-79.2
		c7.4-15.1,13.4-23.8,22.9-33.4c8.9-8.8,17-13.8,25.6-15.6c18.4-3.9,73.3,3,119.9,14.8c72.9,18.6,186.6,72.7,244.5,116.2
		c29,21.8,57.8,51.2,78.3,79.9c24.4,34.2,44.7,81.2,47.2,108.9c2.2,24.4,3.8,36.4,6.8,51c7.4,36.5,16.5,97.8,21.1,143.4
		c2.9,28.4,5.6,42.5,17.1,91.4c4.4,18.5,11.9,51.9,16.7,74.3c10.4,48.6,23,106.4,26.2,118.8c7.8,30.9,9.8,96.8,3.6,121
		c-6.4,25.1-23.8,63.3-38.2,83.7c-14,20-23.2,28.1-48.7,42.7c-31.2,18-50.3,26.1-86.1,36.6c-20.2,5.9-31.8,10.3-65.7,25.4
		c-12.9,5.8-26.7,11.5-30.8,12.9c-4.1,1.4-7.5,3.1-7.5,3.6c0,0.6,4.2,1.6,10.2,2.5c5.5,0.9,23.8,3.8,40.4,6.5
		c16.7,2.7,31.2,4.9,32.3,4.9c1.5,0,66.4-35.7,113.9-62.6c15.8-9,45.3-40,60.7-63.8c25.5-39.2,37.9-89.2,38-152.1
		c0-48.3-7-95.8-24.2-163.4c-2.3-8.6-9.1-36.2-15.3-61.2c-6.1-25-13.8-54.8-16.9-66.2c-8.7-31-10.3-40.6-12.3-70.2
		c-2.7-40.4-6.9-70.8-16.7-120.6c-10.6-53.6-23.6-100.5-35.1-127c-13.4-30.6-47.3-75.2-79.5-104.2c-15.5-14.1-24.1-20.8-40.6-31.6
		c-60.2-39.6-132.9-75.5-193.1-95.2C1597.6,880.6,1519,867.7,1494.3,875z"/>
	<path id="structure137_label167_OT" bar:growlevel="0" bar:type="" class="st20" d="M1467.3,1186.7c-1.3,0.2-5.9,0.8-10.4,1.3
		c-9.7,1.2-18.5,4-37.8,12.1c-22.2,9.2-46.5,15.9-73.8,20.4c-9.1,1.5-9.6,3-3.8,9.1c8.1,8.3,19.3,11.6,32.8,9.7
		c12.2-1.7,22.5-5.7,42.6-16.3c4.7-2.5,12.3-5.8,17.1-7.4c7.3-2.3,9.9-2.8,18-2.8c6.6-0.1,11.3,0.4,15.3,1.5c3.2,0.9,8.1,2,10.8,2.3
		c2.7,0.4,7.1,1,9.7,1.3c5.7,0.8,5.9,0,1.5-5.3c-4.3-5.3-8.5-14.6-9.3-20.9l-0.6-5.3l-5-0.1
		C1471.8,1186.4,1468.6,1186.5,1467.3,1186.7z"/>
	<path id="structure138_label168_FC" bar:growlevel="0" bar:type="" class="st21" d="M1126.6,1105.6c-0.7,1.8,0.8,3.6,4.2,4.9
		c3.1,1.3,5.3,5,5.3,8.9c0,4,1.5,7.3,3.5,7.3c3.1,0,4.1-2.5,4.1-10c0-5.7-0.4-7.5-1.9-9.5c-1.7-2.3-2.4-2.5-8.4-2.8
		C1128.4,1104.3,1127,1104.4,1126.6,1105.6z"/>
	<path id="structure139_label169_VTM" bar:growlevel="0" bar:type="" class="st22" d="M1326.5,2045.1c-11.3,2.8-16.6,9.1-16.6,19.6
		c0,7.3,1.1,8.6,10.3,12.1c4.5,1.6,8.4,3.1,8.6,3.1c0.4,0,0.8-1.9,1.2-4.3c1.3-10,11.3-23.3,19.9-26.4c3.7-1.3,3.9-3.5,0.5-4.5
		C1346.6,2043.7,1331.3,2043.9,1326.5,2045.1z"/>
	<path id="structure13_label14_Lth" bar:growlevel="0" bar:type="" class="st23" d="M1192.9,1481.5c-13.4,3.8-31.9,31.6-39.5,59.1
		c-2.7,10-3.2,24.8-1.2,33.4c3.1,12.8,12.1,26.6,20.3,30.9c5.4,2.8,13,2.6,19.4-0.7c6.4-3.2,21.8-18.7,30-30.1
		c7.1-10,15.8-27.1,18.9-37.4c4.9-15.7,5.4-29.9,1.4-38c-3.5-7.2-13.3-14.1-23.9-16.9C1212.5,1480.3,1197.7,1480.1,1192.9,1481.5z"
		/>
	<path id="structure143_label173_GrDG" bar:growlevel="0" bar:type="" class="st7" d="M1597.3,2007.1c-9.6,10.3-17.3,28.3-16.3,38.3
		c0.7,6.8,4.3,13.9,8.6,16.8c4.6,3.2,11.3,4,15.7,1.9c4.4-2.1,5-5.5,2.3-12.6c-1.6-4.3-2-6.8-1.7-12.1c0.5-11.6,0.4-18.2-1-26.5
		C1603.4,2003.3,1601.9,2002.2,1597.3,2007.1z"/>
	<path id="structure144_label174_PLi" bar:growlevel="0" bar:type="" class="st24" d="M1480.8,1218.8c0,0.7,1.3,2.2,3,3.2
		c7.1,4.4,14.9,15,19.5,26.4c6.8,17.2,8.8,32.5,9.9,76c0.4,18.3,1.4,38.4,2.2,44.9c0.7,6.4,2.3,18.8,3.2,27.4
		c2.8,23.2,3.4,58,1.3,73.8c-2.8,21.9-8.6,41.1-18.5,60.2c-2.9,5.7-5.3,10.9-5.3,11.5c0,2.1,2.8,1.3,9.1-2.6
		c6.2-3.8,6.2-3.9,10.3-13.1c7.3-16.6,14.8-41.5,17.9-59.8c1.6-9.3,1.7-7.3-4.9-100.2c-4.8-66.8-6.2-82.6-9.1-97.5
		c-4.8-24.6-14.7-43.5-25.5-48.3C1487.8,1217.9,1480.8,1216.9,1480.8,1218.8z"/>
	<path id="structure146_text3283_Pir-1" bar:growlevel="0" bar:type="" class="st25" d="M2332,1855.5c-0.2,0.5-1.7,5.1-3.3,10.6
		c-3.1,10.6-11.9,35.7-20.3,57.6c-13.1,34.9-44.9,113.1-47.9,118.3c-4.3,7.4-11.5,14.8-15.8,16.4c-1.8,0.6-3.3,1.5-3.3,1.9
		c0,0.4,1,2.7,2.2,5c1.9,3.7,3.7,5.3,12,10.8c5.4,3.6,10.3,6.5,10.8,6.5c2,0,22.8-29.6,36-51.3c19.8-32.5,40.2-74.2,48.3-98.4
		c4.9-14.8,9-38.1,10.9-62.7l0.5-7.6l-14.2-3.9C2332.4,1854.5,2332.5,1854.5,2332,1855.5z"/>
	<path id="structure148_text3286_Pir-2" bar:growlevel="0" bar:type="" class="st26" d="M2310.2,1851.4
		c-9.6,43.7-15.4,59-60.6,158.7c-13.6,30.1-14.6,32.8-14.6,39.7c0,3.6,0.5,4.9,2.1,6.5c5.9,5.6,15.8-0.9,24.3-16
		c4-7.1,41.8-102.7,55.3-139.9c6.9-19.3,14.6-42.7,14.6-45c0-1.1-15.3-5.8-18.9-5.8C2311.3,1849.5,2310.5,1850.2,2310.2,1851.4z"/>
	<path id="structure14_label15_SNR" bar:growlevel="0" bar:type="" class="st27" d="M1584,1778.5c-1.8,4.4-5.2,8.7-19,24.1
		c-6.8,7.7-17.4,19.8-23.3,27c-20.3,24.4-64.2,71.4-71,75.9c-2.5,1.7-9.5,5.8-15.4,9.1c-15.3,8.5-21.5,13.2-27.7,21.1
		c-8.6,10.7-14.3,20.1-24.7,39.9c-11.6,22.3-12.8,24.4-19.4,34.2c-5.6,8.3-6.1,9.8-3.6,9.8c3.6,0,10.8,4.8,16.9,11.1
		c11.8,12.2,18.5,13.6,39.6,8.3c38.2-9.4,61.6-21.2,93.5-47c45.1-36.4,84.5-81.1,109.8-124.9c8.9-15.3,19.3-37.4,19.3-40.9
		c0-6.8-2-15.1-4.9-21.3c-8.6-17.6-32.9-29-61.8-29.1h-7L1584,1778.5z"/>
	<path id="structure150_text3281_Pir-3" bar:growlevel="0" bar:type="" class="st28" d="M2129.3,1801c-0.3,0.6-1.8,5.9-3.6,11.8
		c-15.6,51.8-40.7,101.2-68,133.4c-14,16.6-29.5,27.1-64.1,43.6c-9.8,4.7-15.9,8.1-15.9,8.9c0,1.9,2.4,1.3,25.7-6.8
		c11.3-4,23.2-7.7,26.3-8.3c4.4-0.9,5.6-1.4,5.6-2.8c0-2.6,5.1-7.7,10.2-10.2c7.3-3.6,19.8-6.2,26.9-5.7
		c11.6,0.8,20.7,7.7,23.2,17.6c1.7,6.8-2.5,11.8-10.7,12.6c-2.8,0.3-4.6,0.8-4.6,1.5c0,1.4,9.9,3.7,37.8,9
		c30,5.8,41.8,9.3,67.3,19.7c19.3,7.9,39.6,19.2,44.7,24.8c2.2,2.4,4.1,2.3,4.1-0.3c0-4.6,3.1-13.3,10.4-29.3
		c20.3-44.3,44.1-98.6,50.2-115c6.5-17.6,15.8-53.3,14.8-56.3c-0.4-0.7-33.4-10.2-89-25.3c-48.7-13.2-89.1-24.1-89.7-24
		C2130.2,1800,2129.5,1800.5,2129.3,1801z"/>
	<path id="structure162_label189_alv" bar:growlevel="0" bar:type="" class="st29" d="M1475.9,832.9c-9.6,1.5-23.3,5-30.3,7.7
		c-30.5,11.4-58.9,60.9-76.4,133.2c-10.9,45.1-11.9,48-21.1,57.2c-9,9.1-31.2,25.1-47.9,34.5c-15.5,8.7-35.5,16.1-58.5,21.8
		c-8.1,1.9-12,3.2-12,4c0,0.7,0.8,1.3,1.9,1.3c1.1,0,8.6,2.3,16.9,5.1l14.9,5.1h11.3c12.7,0,21.5-1.5,35.5-6.2
		c21-6.9,44.5-19.2,52.7-27.5c9.4-9.4,18.3-30.6,25.8-61.1c2.1-8.2,7-31,11-50.8c4-19.8,8.5-39.6,10-44.1
		c10.3-32.2,34.2-56.1,67.9-67.7c6.8-2.3,8.2-2.4,22.1-2.5c16.7,0,24.5,1,55.7,7.2c58.4,11.7,139.1,35.3,201.7,58.9
		c36.9,14,63.8,27.6,92.3,46.9c43.7,29.6,78.1,64.9,119.3,122.5c16.2,22.6,22.1,32.3,32.3,52.5c17.4,34.5,27.8,66.7,38.7,119.7
		c2.4,11.9,6,29.1,8,38.3c5.2,23.9,7.5,37.1,12.7,71.6c11.3,75,14.1,86.6,34.9,139.9c17.5,45,25.4,71,29.8,98.1
		c9.6,59.7,8.2,95-6.8,162.9c-9,41-21,81.9-30.5,103.9c-13.1,30.5-32,61.5-47,77.1c-15.9,16.6-29.1,24.5-67.8,41.2
		c-9.2,4-32.9,14.7-52.7,23.9c-49.5,23.1-49.1,22.9-129.6,50.4c-35.3,12.1-51.8,19.4-59,26.4c-2.7,2.6-4.5,5.1-4.5,6.3
		c0,2.6,0.8,2.5,6-0.7c9.5-5.9,42.8-19.3,116.8-46.8c67.4-25.1,153.8-64.1,178.8-80.6c31.1-20.7,54.4-61.7,83.2-146.6
		c15.7-46.2,22.3-75.9,25.6-114.3c2-23.8,0.4-73-3.2-103.5c-3.7-30.5-11.2-58.1-24.8-91.7c-10.4-25.6-12.1-30.3-15.4-41
		c-5-16.4-9.1-36.2-16.3-78.8c-6.1-35.9-9.4-54.7-17.7-99.4c-4.1-22-10.6-47.4-29.6-114.8c-10.6-37.6-15.1-49.3-28-72.3
		c-17.4-31-34-51.5-75-92.5c-27.8-27.8-38.1-36.7-60.4-52.4c-34.4-24.1-88.4-51.8-131-67.1c-42.8-15.4-103.1-32.6-162-46.2
		c-37.9-8.6-43.2-9.4-68.4-9.8C1489.6,831.7,1481.9,832,1475.9,832.9z"/>
	<path id="structure169_label196_a" bar:growlevel="0" bar:type="" class="st30" d="M1558.5,2029.2c-6.6,4.9-7.1,7-3.1,11.2
		c2.3,2.2,3.4,2.6,7,2.6c4.6,0,7.4-1.6,9.2-5.1c2.7-5.3-0.4-12.9-5.1-12.9C1565.1,2025,1561.8,2026.8,1558.5,2029.2z"/>
	<path class="st31" d="M1292.9,2110c-1.5-11.5-4.2-16.3-19.3-33.7c-11.1-12.6-20.2-20.2-30.8-25.4c-11.1-5.4-36.4-13.8-56.3-18.6
		c-20.3-5-20.7-5-20.7-3.7c0,2,3,10.7,3.7,10.7c1.5,0,6,4.7,6.6,6.8c0.4,1.4,0,3.6-0.9,5.4c-1.1,2.3-1.3,4.2-0.8,7.6
		c0.7,5.1,1.9,6.1,4.9,4.5c6.9-3.7,13.6,6.5,9.4,14.4c-1.8,3.4-4.4,4.8-8,4.1c-2.8-0.6-3.1-0.4-4.3,3c-3.3,8.5-23.7,17.6-46.2,20.8
		c-5.3,0.7-10.9,1.1-16.5,1v75.3c10.4,0,20.7-0.8,33.6-2.5c50-6.4,125.2-23.3,134.3-30.2C1290,2143.1,1295,2126,1292.9,2110z"/>
	<path id="structure174_label205_fr" bar:growlevel="0" bar:type="" class="st32" d="M1204.6,1740.3c-7.3,7.7-11.9,19.7-15.9,42.1
		c-2.3,12.3-2.3,44.8-0.1,57.2c1.9,11,5.7,23.8,8,27.7c2.1,3.3,5.8,5.6,9.5,5.6c7.6,0,21.6-13.7,27.7-27.3
		c4.7-10.3,5.4-17.1,5.4-53.3c0-32.6,0-33.4-2.1-38.3c-4.2-10.6-13.9-17.9-23.5-17.9C1208.9,1736.1,1208.5,1736.2,1204.6,1740.3z"/>
	<path id="structure177_label208_scp" bar:growlevel="0" bar:type="" class="st33" d="M1282.8,1676.1c-6.8,1.5-11,3.5-17.5,8.1
		c-25.7,18.4-35.7,53.6-22.4,79.1c10.3,19.5,35.4,28.9,69.7,26c21.4-1.9,32.2-5.9,50.9-19.2c6.4-4.6,20.1-13.9,30.3-20.8
		c10.3-6.9,22.4-15.3,26.9-18.7c4.5-3.4,11.2-7.7,14.8-9.4c3.7-1.7,6.7-3.8,6.7-4.4c0-0.7-1.5-1.4-3.8-1.7
		c-7.4-1.1-23.8-6.3-47.1-15C1333.1,1678.2,1303.1,1671.5,1282.8,1676.1z"/>
	<path class="st14" d="M1402.1,1745.1c-1.5,0-26.1,16.2-40.1,26.4c-10.7,7.7-20.7,12.6-32,15.6c-12.1,3.2-35.4,4.1-47.6,1.7
		c-17.8-3.3-32.8-12.4-38.8-23.4c-0.9-1.7-2.1-3.2-2.6-3.2c-0.6,0-0.9,10.3-0.9,30.3c0,28.2-0.2,31.1-2.1,39.6
		c-1.1,5-2.8,11.1-3.8,13.4c-4,9.1-16.5,23.4-23,26.1c-4,1.6-8.6,1.6-10.9-0.1c-3.7-2.8-4.6-1.8-5.1,5.4c-1,11.2-3.2,19.3-6,22.2
		c-2.9,2.9-4.7,3.2-6.7,1.2c-3.1-3.1-3.5-7.8-3.9-39.2c-0.6-45.3,1.4-65.8,7.8-78.6c2.7-5.4,5.3-15.4,4.3-16.4c-0.3-0.4-2.5,0.1-5,1
		c-4,1.3-5.1,1.4-9.9,0.4c-11.8-2.5-18.4-8.6-22.1-20.2c-1.8-5.6-2.1-8.4-2-20c0-14.3,1.3-23.1,5.4-37.8
		c6.1-21.5,19.5-35.6,38.6-40.5c8.5-2.2,13.9-1.8,25.5,1.8c1.9,0.6,2,0.4,2-4.1c0.1-12.3,3.2-25.8,11-46.3c5.8-15.4,8.8-25,8.8-27.9
		c0-1-1.4-4.6-3.2-8c-1.7-3.3-3.2-7.1-3.2-8.3c0-1.4-0.5-2.2-1.5-2.2c-1.1,0-2.8,2.3-5.2,6.8c-8.7,16.6-27.4,37.5-38.3,43
		c-11.1,5.6-18.2,4-27.3-5.9c-12.1-13-17-34.8-12.3-54.4c6.1-25.1,24.2-54.7,37.4-61.2c9.3-4.6,25.7-3.7,37.1,1.9
		c5.3,2.5,14.3,10.3,15.1,13.1c0.4,0.9,1.2,1.7,1.9,1.7c1.3,0,1.4-1.9,0.8-14.7c-0.8-20.3-1.5-23.9-5.5-30
		c-7.1-10.7-22.1-22.9-35.6-29c-18.6-8.4-44.9-13.4-65.4-12.7c-7.7,0.4-8.5,0.5-10.7,2.9c-2.5,2.4-2.5,2.5-2.3,13.5
		c0.1,6-0.2,18.3-0.6,27.2c-0.5,8.9-1.7,37.6-2.7,63.9c-3.4,88.5-4.9,112-8,112.7v354.6c31.1,0.3,78.1,13.8,101.8,30.2
		c6.5,4.5,7.8,5,7.8,2.9c0-0.7,1-2,2.3-2.8c2.1-1.4,3.2-1.4,15,0.4c29.2,4.2,45,4.6,61,1.4c6.2-1.2,13.1-2.3,15.3-2.3
		c12.2,0,17,6,10.4,13.3c-11,12.2-58.1,21.2-78.3,15.1c-6.4-2-7-1.9-6.4,1c0.8,3.2,4,6,8.8,7.7c3.1,1.2,49,15.2,56.9,17.6
		c1.5,0.4,1.6,0.1,1.1-3.8c-1.1-6.9,0.8-12.7,5.7-17.6c4.5-4.7,6.9-5.7,17.9-7.3c7.3-1.2,17.1-0.1,21.9,2.3c1.3,0.7,4,1.3,5.8,1.3
		h3.2v-5.2c0-6.4,1.8-12.6,4.9-17.4c3-4.4,2.9-5.3-0.1-8.2c-10.8-10.1-44.8-27.3-86.7-43.6c-23.8-9.4-27.7-11.2-34.8-16.2
		c-6.7-4.8-11.3-10-14.3-16.3c-4.5-9.1-2.3-23,6.6-40.8c4.6-9.3,6-11.3,13.8-19c7.4-7.5,9.7-9.3,17.1-12.8
		c17.7-8.6,52.8-16.2,88.9-19.2c7.9-0.6,9.1-1.6,4.7-4.1c-3.6-2.1-6.3-6.8-6.3-10.9c0-7.4,6.9-23.2,22.2-50.9
		c7.4-13.4,18.7-31.1,21.8-33.8C1403.8,1747.2,1404.1,1745.1,1402.1,1745.1z"/>
	<path id="structure180_label212_mp" bar:growlevel="0" bar:type="" class="st34" d="M1225.1,2018.3c-0.4,0.3-0.7,1.9-0.7,3.3
		c0,2.1,1.3,4.1,6.2,9.2c3.3,3.6,6.8,7.7,7.7,9.2c1.2,2.1,3.1,3.2,7.6,4.9c5.4,2,7.3,2.2,21.7,2.2c16.9-0.1,25.3-1.3,39.6-5.6
		c16.3-4.8,24.5-11.3,22.9-17.9c-0.4-1.3-1.7-2.8-3.1-3.5c-3.3-1.8-15-1.7-23.5,0c-12.9,2.8-18,3.1-32,2.2
		c-7.6-0.4-18.3-1.4-23.8-2.3C1234.4,2018,1225.9,2017.4,1225.1,2018.3z"/>
	<path id="structure183_label223_Or" bar:growlevel="0" bar:type="" class="st35" d="M1481.9,844.5c-9.5,2.6-24.3,9.3-32.6,14.9
		c-18.4,12.5-33.5,33.7-39.9,55.8c-1.3,4.2-5.4,23-9.2,41.8c-14.5,71.4-23,97.3-37.3,112.3c-6.8,7.2-34.2,21.4-52.9,27.5
		c-15.2,4.9-26,6.8-38.3,6.2c-9.1-0.4-11.2-0.9-21.6-4.6c-14.8-5.4-23.8-7.3-30.8-6.5c-3,0.3-13.7,1.9-23.8,3.6
		c-10.2,1.6-22.4,3.5-27.2,4.1c-6,0.8-8.8,1.5-8.8,2.3c0,0.6,0.5,1.2,1.2,1.2c0.5,0,5.6,0.5,11.1,0.9c11.4,1,23,4.1,32.4,8.6
		c5.5,2.6,7.4,4.2,13,10.8c8.4,10,11.2,11.8,20.9,13.5c8.7,1.5,21,5.1,26.4,7.8c2,1,5,3.1,6.6,4.7c2.8,2.6,3.4,2.8,9,2.6
		c14.5-0.4,54.8-10.2,75.8-18.3c16.4-6.4,25.2-11.6,38.3-22.6c17.3-14.4,28.9-32.3,34.2-52.6c2.3-8.8,2.4-9.8,3.1-49.1
		c1.3-73.2,3.7-83.5,24.7-108.2c8.5-9.8,17.5-17,28-22.3c14.7-7.3,24.2-8.4,49.8-5.8c52.3,5.4,117.9,22,169.9,43
		c52.3,21.2,108.9,50.8,155.3,81.2c16.1,10.6,27.6,19.6,42.2,33c31.6,28.9,64.6,72.1,78.1,102.1c16.1,35.8,34.1,107.9,45.5,182.1
		c4.1,26.2,5.3,38.6,8.3,80.1c1.3,18.3,4,31.9,12.1,60.4c7.8,27.6,38.2,150.8,43.1,174.5c3.9,18.7,7.8,43.8,10.1,62.5
		c2.3,20.6,3.3,61.5,1.8,79.8c-3.7,44.6-14.6,83.3-32,113.8c-15.8,27.5-45.3,59.8-66.2,72.5c-3.6,2.3-21.8,12.5-40.1,22.8
		c-29.7,16.6-36.7,21.1-32.4,21.1c0.6,0,8.3-3.2,16.9-7.3c8.6-4,24.6-11.2,35.4-15.8c10.9-4.7,23.5-10.5,28-13
		c19.1-10.5,33.9-24.7,47.6-45.4c26.4-39.8,39.8-72.9,55.4-136.7c19.7-80.2,22.4-122.3,12.1-185.9c-4.6-28.2-11.7-51.8-29.2-96.8
		c-21.2-54.5-24.8-68.3-34.6-135.4c-5.5-37.2-7.8-50.6-12.7-73.3c-2.3-10.4-6.1-28.8-8.6-41c-14.7-71.4-30.7-113.6-59.8-157
		c-57.3-85.7-113.6-137-187.4-170.9c-75.5-34.7-233.2-78.8-290.4-81.1C1491.4,842.4,1489.5,842.5,1481.9,844.5z"/>
	<path id="structure186_label229_mtg" bar:growlevel="0" bar:type="" class="st36" d="M1183.7,1790.2c-2.9,10.7-3.6,18.7-4.4,48.9
		c-0.8,32.8-0.1,54.3,2,58.8c1.7,3.5,6.3,3.9,8.5,0.6c2.3-3.4,3.8-10.1,5-21.2l1.1-9.6l-2.8-8.5c-5.4-16.4-7.9-39.2-6.5-58.9
		c0.5-6.4,0.9-12.1,0.9-12.7c0-0.5-0.6-1.1-1.3-1.1C1185.4,1786.5,1184.4,1788,1183.7,1790.2z"/>
	<path id="structure187_label230_opt" bar:growlevel="0" bar:type="" class="st37" d="M1578,1163.3c-3.2,0.2-17.5,1-31.9,1.7
		c-31.9,1.6-61.5,5.9-114.8,16.7c-24.6,4.9-29.4,6.4-75.6,22c-48.6,16.4-44.1,14.7-44.1,16.6c0,5.1,30.3,1.8,67.2-7.2
		c16.9-4.2,24.8-6.8,45.4-15.4c24.9-10.3,27.3-10.7,75.7-13.4c17.6-1,40.8-2.8,51.3-4c25.6-3,38.3-3.6,47.4-2.4
		c4.2,0.5,16.6,3.4,27.4,6.3c24.5,6.7,37.1,9.1,46.8,9.1c13.7,0,31.1,1.8,39,4.1c25.5,7.4,45.4,24.3,67.6,57.6
		c31.7,47.4,61.2,115.9,63.8,148c0.4,5.9,0.3,7.5-1.4,11c-1.7,3.5-1.8,4.5-1,8.4c1.4,6.4,4,11.8,7.6,15.7c5.1,5.7,5.2,13.1,0.9,57.2
		c-2.5,26.6-5,37.3-17,72.9c-13.3,40-18.8,50.8-40.6,80.3c-4.3,5.8-8.6,12.2-9.4,14.2c-0.9,2-2.7,10.7-4.1,19.3
		c-1.3,8.6-2.6,16.8-2.9,18.2c-0.7,3.8,2,3.2,9.3-1.9c17.8-12.5,37.9-42.3,53-78.8c8.2-19.6,10.7-29.3,16.2-61.6
		c1.8-10.5,5-25.6,6.9-33.2c7.4-28.8,7.8-43.7,2.5-81.9c-11-77.6-14.8-90.3-43.7-144.8c-27.2-51.1-36.9-65.3-63.8-92.7
		c-20.9-21.3-27.9-24.9-55.9-28.1c-21.5-2.4-39.2-4.7-73.7-9.4C1595.8,1163.6,1587.6,1162.8,1578,1163.3z"/>
	<path id="structure189_label155_IG" bar:growlevel="0" bar:type="" class="st38" d="M1129.4,968.9c-3.9,2-6.8,5-6.8,6.8
		c0,2.1,3.2,2.2,13.3,0.2c5.6-1.2,7.4-1.9,7.4-3C1143.2,968.1,1135.3,965.7,1129.4,968.9z"/>
	<path class="st39" d="M1242,1447c-1.3-17.6-4.6-30.2-10.6-39.6c-2-3.1-7.7-9.6-12.8-14.5c-7.5-7.3-10.5-9.5-17.2-12.8
		c-12.2-6-28.7-10.3-52.6-13.5c-6-0.8-21.6-1.6-35-1.9v47.5c20.1,0.1,41.4,0.7,48,1.6c32.2,4.3,60.7,18.4,74.2,36.6
		C1242,1458.6,1242.7,1458.1,1242,1447z"/>
	<path id="structure191_Unlabeled-539-2043_OlfCx-1" bar:growlevel="0" bar:type="" class="st40" d="M2244.9,2071.6
		c0,3.5-13.3,21.1-26.4,34.9c-12.9,13.7-33.3,29.9-45.2,36.1c-14.3,7.4-34.3,11.2-48.5,9.3c-18.6-2.6-35.5-11.3-61.7-32
		c-15.5-12.1-16.3-12.6-23.8-12.6c-7.8,0-12.2,2.3-19.7,10.3c-5.7,6.2-7.1,8.6-11.6,20.3c-4.1,10.5-7.4,17.2-15.3,30.1
		c-8.3,13.6-17.8,23.3-28.1,28.6c-17.7,9.1-33.2,12.4-77.4,16.7c-18.5,1.7-59.9,1.5-72.3-0.4c-26.4-4.1-44.4-13.1-50.8-25.2
		c-3.1-5.8-2.9-15.8,0.5-25.8c2.5-7.4,5.8-13.6,7.7-14.9c1.2-0.7,1.2-4.1,0-4.1c-0.4,0-4.8,1-9.4,2.3c-4.8,1.3-12.9,2.6-18,3.2
		c-17.4,1.6-29.4,4.1-49.6,10.4c-5.6,1.6-11.2,3.1-12.4,3.1c-3.1,0-3,1,0.4,9.6c2.7,6.8,2.9,7.1,7.8,9.5
		c21.9,10.2,44.9,21.1,60.5,28.6c27.2,13.1,41.6,18.2,64,22.4c31.1,5.9,78.7,6.9,113.4,2.3c48.5-6.4,84-20.5,112.9-45
		c11.3-9.5,15.9-11.6,25.6-11.6c5.9,0,9.9,0.6,17.6,2.9c11.3,3.2,17,3.5,38.7,2c37.6-2.8,46.9-7.6,93.1-48.5
		c24.2-21.4,48.6-46.8,48.6-50.6c0-1.4-17.7-13.4-19.6-13.4C2245.4,2070,2244.9,2070.7,2244.9,2071.6z"/>
	<path class="st41" d="M1139.7,1126.8c-2.1,0-3.6-3.1-3.6-7.5c-0.1-4.1-1.8-6.8-5.9-9.1c-1.9-1.1-3.6-2.7-3.8-3.7
		c-0.3-1.7-1-1.8-12.7-1.8v20.3c0,0,0,0,0.1,0c0.6,0,5.2,4.1,10.2,9c4.9,5,9.4,9,9.8,9c1.2,0,3-2.5,5.5-7.6
		C1142.1,1129.8,1142.2,1126.8,1139.7,1126.8z"/>
	<path class="st41" d="M1502,1541.7c-1.4,1-3.9,1.8-5.4,1.8c-2.3,0-3.2,0.8-5.8,4.5c-7.1,10.5-20.1,19.5-35.6,24.8
		c-9.4,3.2-24.8,4-33.9,1.8c-21.7-5-44.3-25.9-56.6-52.3c-7.9-16.8-14.4-42.1-17.5-67.9c-2.1-17-2.8-52.2-1.4-68.9
		c2.3-27.7,8.7-57.4,19.9-90.6c3.5-10.3,6.3-19.1,6.3-19.6c0-2-2.3-0.6-8.4,5c-4.1,3.7-9,7.1-13.4,9.2c-4.9,2.3-6.9,3.8-6.9,5
		c-0.1,2-0.7,2.4-10.4,9c-20.3,13.6-44.5,21.2-67,21.2c-28.4,0-59.8-12.4-76.4-30.2c-3-3.1-5.6-6.5-5.9-7.5
		c-0.8-2.8-2.1-2.3-9.5,2.7c-8.9,6.1-13.5,9.8-21.4,17.5c-8.3,8-11,11.8-15.8,23.1c-2.2,4.9-5.1,10.6-6.4,12.5
		c-3.7,5.4-9.7,8.3-16.4,8.4v13.6c9.6,0,19.1,0.2,23.7,0.6l7.3,0.6l1-2.7c2.2-5.8,18.3-9.6,34.9-8.5c38.4,2.7,64.5,13.1,85.6,34.2
		c8.1,8,13.9,17,13.9,21.5c0,1.3,1.8,3.1,5.5,5.5c10.7,7.1,14.7,16.3,14.8,33.8c0,9-0.3,11-2.2,15.1c-2.4,5.3-6.5,9.4-11.3,11.1
		c-1.8,0.6-3.2,1.6-3.2,2.2c0,0.5,2,1.6,4.4,2.5c6.3,2.3,11.9,8.1,16.5,17.5c3.5,7,3.9,8.6,4.1,15.6c0.4,9.6-1.2,16.5-6,26.2
		c-7.8,15.6-18.1,27.3-28.6,32.5c-4.8,2.3-7.2,2.9-13.3,3.2c-6.4,0.4-8.2,0.1-11.4-1.5c-2.3-1-4.4-1.9-4.9-1.9c-0.5,0-1.5,2.7-2.4,6
		c-0.9,3.4-4.1,13-7.4,21.4c-8.1,21.6-11.2,34.7-11.3,47.6c0,3.9,0.6,6.6,2.5,10.3c2.3,4.8,2.4,5.8,2.4,17.2
		c-0.1,8.2-0.6,14.7-1.7,19.8c-2.3,11-7.3,27-10.4,33.7c-3.3,7-3.3,7.7-0.2,7.7c3.9,0,11.5,4.2,15.5,8.7c2,2.3,3.6,4.5,3.6,4.9
		c0,0.4,0.6,0.8,1.4,0.8c1.1,0,1.2-1.4,0.7-8.4c-1.4-23,10.3-46.2,30.4-59.5c7.4-4.9,14.2-6.9,24.7-7.5
		c21.3-1.1,46.8,5.3,100.5,25.5c13.7,5.1,25.6,9.4,26.3,9.4c1.6,0,2-2.3,0.4-3.2c-1.8-1.1-6.2-8.7-6.2-10.8c0-1.1-1-2.6-2.2-3.3
		c-2.2-1.4-2.7-3.4-3.9-14.1c-1.2-12.1,6.8-29.4,21.6-47.2c8.2-9.9,21.8-23.7,23.9-24.4c1-0.3,1.9-1.2,1.9-1.9
		c0-0.8,6.7-8.6,14.8-17.3c24.9-26.9,38.3-43.1,38.3-46.4C1507.8,1539.3,1505.2,1539.5,1502,1541.7z"/>
	<path id="structure195_Unlabeled-2413-1643_Unlabeled" bar:growlevel="0" bar:type="" class="st41" d="M1655.9,1716.9
		c-13.4,7.3-55,27.7-72.5,35.6c-17.4,7.8-22.1,9-34.7,8.6c-8.9-0.4-10.6-0.7-16.2-3.2c-3.4-1.6-7.9-4.3-10-6c-2.1-1.7-4.3-3.2-5-3.2
		c-0.6,0.1-4.4,4.9-8.4,10.6c-8.7,12.8-24.8,29.2-40.5,41.4s-47.1,32.9-58.4,38.4c-5.3,2.7-12.5,5.6-15.9,6.5
		c-7.1,1.8-8.4,3.9-2.3,3.9c5.3,0,27,3.2,39.1,5.9c17.9,3.8,26.3,2.6,46-6.8c6.1-3,12.1-5.4,13.5-5.4c1.6-0.1,5.1-2.4,11.8-8.2
		c29.7-25.6,76.6-60.2,81.6-60.2c1.2,0,2.1-0.5,2.1-1.2c0-0.6,4-3.4,8.8-6.2c11.3-6.6,53.4-29.5,54.1-29.5c0.3,0,1.5-1.4,2.7-3.2
		c1.2-1.7,5.8-7.3,10.1-12.3C1673.6,1708.7,1672.6,1707.8,1655.9,1716.9z"/>
	<path id="structure19_label22_RPF" bar:growlevel="0" bar:type="" class="st42" d="M1258.2,1483.4c-3.1,3.2-6.1,7.5-8.7,12.7
		c-3.7,7.5-3.9,8.6-4.1,16.2c-0.4,9.7-2.2,18.9-5.8,29.2c-2.3,6.4-2.7,8.5-2.3,13c0.6,7.5,4.4,14.7,9.5,18.3
		c3.7,2.5,4.3,2.7,12.6,2.7c8,0,9.2-0.3,14.7-3c10.6-5.2,20.9-16.8,28.7-32.5c4.9-9.7,6.5-16.7,6-26.2c-0.3-7-0.6-8.5-4.1-15.6
		c-7.5-15.1-14.7-19.5-31.8-19.5h-9.9L1258.2,1483.4z"/>
	<path class="st43" d="M1176.2,2080.1c-0.3-1.9-0.7-6.5-0.8-10.2c-0.2-3.7-0.8-8.5-1.4-10.6c-1.1-3.9-1.2-3.9-4.4-3.4
		c-6.4,1.1-12.9-4.5-11.5-9.9c0.8-3.1,3.7-5.7,6.8-6.4c3.2-0.5,3.2-1.4,1.3-7.9l-1.5-4.7l-12.7-2.3c-17.6-3.3-28.6-4.9-38.2-5.1
		v86.6c23.7,0,42.9-5,57.1-14.7C1175.4,2088.4,1177.1,2084.7,1176.2,2080.1z"/>
	<path id="structure20_label23_REth" bar:growlevel="0" bar:type="" class="st44" d="M1510.5,1592.5c-17.1,4.1-37.4,9.1-45.3,11.2
		l-14.1,3.7l-8.5,8.8c-24.5,25.6-35.6,44.4-35.6,60.7c0,5.5,0.6,7.9,2,7.9c0.4,0,2.5-1.4,4.6-3.1c6.1-5,17.4-11,29.4-15.8
		c21.7-8.6,33.1-10.8,71.1-13.1c26.3-1.6,45.1-3.2,46.1-3.8c1.3-0.8,0.8-24.9-0.6-33.3c-3.1-17.6-10-31.2-15.9-30.9
		C1542.6,1585,1527.6,1588.4,1510.5,1592.5z"/>
	<path id="structure21_label24_SPFPC" bar:growlevel="0" bar:type="" class="st45" d="M1627.5,1637.6c-4.6,1.1-73.3,13-77.4,13.4
		c-2.7,0.3-15.5,1.1-28.4,1.8c-40.9,2.3-50.6,3.7-68.3,9.5c-24.5,8-45.2,20.5-44.5,26.9c0.2,1.7,1.3,2.8,4.8,4.5
		c4.3,2.2,5.1,2.3,21.6,2.2c14.3,0,19.4-0.4,31.5-2.4c22.8-3.9,75.7-14.7,84.4-17.3c9.8-2.8,25-9.6,49.9-22.1
		c10.6-5.3,22.1-10.8,25.5-12.2C1634.5,1638.9,1635,1635.8,1627.5,1637.6z"/>
	<path id="structure22_label25_PIL" bar:growlevel="0" bar:type="" class="st46" d="M1624.4,1576.9c-4,1.3-9.4,2-20.3,2.5
		c-8.2,0.4-23.3,1.6-33.8,2.6c-10.4,1.1-19.8,1.9-20.9,1.9c-2.6,0-2.6,1.3,0.1,4.8c7.3,9.5,11.2,24.3,12,45.4
		c0.3,8.1,0.7,14.7,1,14.7c0.2,0,13.9-2.4,30.2-5.3c16.4-3,35.5-6.2,42.4-7.3l12.6-2l9.2-6c5-3.2,9.2-6.4,9.2-6.8
		c0.1-0.6-2.1-1.7-4.6-2.6c-3.6-1.3-6.4-3.3-11.1-8.1c-7.2-7.3-11.6-14.9-15.7-27.2c-1.4-4.6-3.1-8.1-3.8-8.2
		C1630.3,1575.2,1627.3,1575.9,1624.4,1576.9z"/>
	<path id="structure23_label26_SNL" bar:growlevel="0" bar:type="" class="st47" d="M1627.9,1749c-32.5,17.8-41.8,23.2-41.8,24.4
		c0,0.8,2.8,1.3,8.8,1.8c35.2,2.5,56.7,15.7,62.7,38.3c0.7,2.7,1.3,5.9,1.3,7.3c0,1.5,0.5,2.5,1.3,2.5c1.4,0,7.3-15.8,9.9-26.4
		c2.3-9,3.2-19.3,2.3-24.8c-0.7-4.6-1.3-5.5-9.3-13.7c-7.8-8-13.1-15.8-13.1-19.4c0-0.7-0.5-1.3-1.1-1.3
		C1648.3,1738,1638.9,1743,1627.9,1749z"/>
	<path id="structure24_label27_ZIC" bar:growlevel="0" bar:type="" class="st48" d="M1668.2,1621.8c-1.7,0.5-8.6,4.7-15.3,9.4
		c-51.2,35.2-64.8,43.7-80.9,51.5c-8.7,4.1-10.7,5.5-15.6,10.8c-3.1,3.4-8.4,9.7-11.7,14.2c-10,13.3-26.1,37.5-26.1,39.2
		c0,2.3,6.7,7.5,14,10.9c5.6,2.5,7.3,2.9,16.2,3.2c7.4,0.3,11.3,0,15.8-1.2c7.9-2.1,25.9-10.3,62.6-28.4
		c33.7-16.7,48.6-24.8,56.2-30.8c10.2-7.9,33.8-20.4,49.6-26.4c5.2-1.9,8.4-2.4,14.2-2.5c6.7-0.1,7.5-0.3,7.8-1.9
		c1.7-7.6,3.1-17.7,2.7-18.4c-0.3-0.4-1.1-0.9-1.7-0.9c-0.7,0-11-3.2-22.9-7.1c-17.6-5.9-24.3-8.6-36.1-14.6
		c-13.1-6.8-14.9-7.5-20.1-7.7C1673.7,1621,1669.8,1621.3,1668.2,1621.8z"/>
	<path id="structure25_label28_MGV" bar:growlevel="0" bar:type="" class="st49" d="M1718.9,1489.2c-20.6,2.7-39.2,7.3-56.6,14.1
		c-11.3,4.4-25.1,11.2-28.2,13.7c-4.3,3.7-6.5,31.9-3.6,47.6c2.1,11.3,5.2,22.1,7,23.9c4.4,4.4,24.4,6.5,34.6,3.6
		c17.6-4.9,31.4-18.7,43.7-43.3c8-16,11.8-30.5,13.1-50.2l0.6-10.1l-4,0.1C1723.4,1488.7,1720.4,1489,1718.9,1489.2z"/>
	<path id="structure26_label29_Eth" bar:growlevel="0" bar:type="" class="st50" d="M1533,1470.3c0,3.1-6.2,25.9-10.3,38.1
		c-4.5,13.1-12.9,31.6-17.6,38.4c-4.2,6.1-18.5,22.6-35.5,40.9c-13.8,14.9-16.1,17.8-14,17.8c0.5,0,7.1-1.6,14.7-3.5
		c7.6-2,26.1-6.5,41.2-10.1c15.1-3.5,28.9-7.1,30.6-7.9c6.8-3.2,8.8-12.4,6.8-30.3c-4.1-35.9-9.7-74-12-81.8
		C1536,1468.8,1533,1467.6,1533,1470.3z"/>
	<path id="structure27_label31_VS" bar:growlevel="0" bar:type="" class="st51" d="M1781.9,2014.1c-40.9,14-80.4,31.6-98.7,43.9
		c-23.2,15.6-46.8,40.1-50.2,52.3c-4,14.9,6.5,36.7,21.2,43.8c5,2.4,16.2,4.6,19.6,3.7c1.9-0.5,2.3-1.2,2.8-6
		c0.8-7.8,4-14.3,10.6-21.2c7.3-7.6,22.1-19.8,33.8-27.7c9-6,10.5-7.8,7.8-8.9c-0.7-0.3-1.4-1.6-1.4-3c0-4.1,8.3-11.1,20.1-16.8
		c10.5-5.1,20.6-8.8,65-23.9c52.6-17.9,72.4-25.4,72.4-27.4c0-0.6-1.6-1.4-3.8-1.7c-43.3-7-77.5-12.2-80.4-12.2
		C1798.8,2008.8,1790.4,2011.1,1781.9,2014.1z"/>
	<path id="structure28_label32_AHiPM" bar:growlevel="0" bar:type="" class="st52" d="M1894.8,2035.3c-7.2,3.1-25,9.6-39.6,14.4
		c-68.4,22.3-77.1,25.4-96.3,34.6c-10.2,4.9-20.5,9.4-23,10.3c-8.9,2.9-36.5,23.2-48.8,35.9c-3.1,3.2-6.5,7.8-7.5,10.1
		c-2.3,5.3-3.1,12.8-1.8,16.9c1.5,4.6,4.1,4.9,14.9,1.5c22.8-7,33.2-9.3,51.8-11.3c20.7-2.3,30.4-5.5,40.9-13.8
		c20.7-16.5,46.7-31.1,69.5-38.9c17.5-6,25.7-7.5,43.6-7.6c14.1-0.2,16.2-0.4,20.4-2.3c2.6-1.1,6.2-3.6,7.9-5.5
		c2.9-3.1,3.2-4.1,3.2-8.7c-0.1-5.5-1.3-8.4-11.3-25.2c-2.3-4.1-4.9-9.4-5.4-11.7c-0.9-3.5-1.4-4.2-3.2-4.4
		C1908.9,2029.6,1902,2032.2,1894.8,2035.3z"/>
	<path id="structure29_label33_PMCo" bar:growlevel="0" bar:type="" class="st53" d="M1887.2,2088.1c-15.7,1.3-37.8,8.1-56.6,17.6
		c-26.9,13.5-50.6,30.7-59.8,43.4c-7.1,9.8-10.5,30.1-6.5,38.4c5.3,11,22.4,20,45.9,24.2c11.3,2.1,49.3,2.9,69.9,1.4
		c40.2-2.8,63-6.9,80.5-14.7l6-2.7l1.2-5.5c0.8-3.5,1.3-11.2,1.3-20.4c0-16.6-1.3-23-7.1-35.6c-7.9-17.1-23.3-33.5-39.1-41.3
		C1913.7,2088.4,1902.5,2086.9,1887.2,2088.1z"/>
	<path id="structure2_label2_LM" bar:growlevel="0" bar:type="" class="st54" d="M1257.6,2058.9c0,0.4,4,4.8,8.8,9.7
		c17.1,17.5,24.6,28.4,26.4,38.3c2.2,12.2-0.4,28.7-5.5,35.9c-2.3,3.2-2.3,5.5-0.1,5.5c2.3,0,19.8-8.7,29.5-14.8
		c17.9-11.1,22.9-22.9,16.5-39.2c-1-2.6-2.3-6.7-2.8-9.1c-0.9-4.2-1-4.3-7.4-6.9c-7.4-3.1-21.5-7.6-45.6-14.9
		C1261.1,2058.3,1257.6,2057.6,1257.6,2058.9z"/>
	<path id="structure30_label34_PLCo" bar:growlevel="0" bar:type="" class="st55" d="M1928.1,2060.4c0,0.6,0.6,2.7,1.3,4.4
		c3.6,8.7-0.9,16.8-11.9,21.2c-4.1,1.6-3.7,3,1.3,4.8c10.2,3.7,26.4,17.1,34.9,29.2c14,19.7,18.6,40.3,15.1,67.6
		c-0.5,4.3-0.5,4.8,1.2,4.8c3.2,0,12.7-9.7,19.2-19.5c7.5-11.3,15.1-26.1,18.9-36.4c4.5-12.2,12.7-22.9,20.8-27c2-1,3.5-2.3,3.5-3
		c0-1.4-10.6-10.3-20.2-16.7c-21.2-14.3-42.8-23.4-68-28.4C1931.8,2058.8,1928.1,2058.6,1928.1,2060.4z"/>
	<path id="structure31_label35_APir" bar:growlevel="0" bar:type="" class="st56" d="M2024.9,1984.9c-2.4,0.6-13.4,4.3-24.3,8.1
		c-10.9,3.8-26.1,9.1-33.8,11.7c-7.7,2.6-21.5,8.2-30.7,12.4c-9.3,4.2-18.3,8.3-20.1,9.1c-2.9,1.2-3.2,1.7-3.2,4.5
		c0,3.2,5.7,15.3,11,23.6c2.3,3.6,2.4,3.7,10.3,4.8c11.2,1.6,29.9,6.6,40,10.4c18.5,7.3,38.4,19,53.4,31.4c6.8,5.7,7.3,5.9,11.8,5.9
		c6.2,0,10.1,2.1,24.3,13.1c21.9,17,35.7,25.1,50.4,29.3c5.9,1.7,9.4,2.1,19.3,2.1c24.9-0.1,39.1-5.7,63.4-25.2
		c20.8-16.6,48.1-48.2,48.1-55.7c0-7.7-15.9-23.3-33.3-32.8c-16.1-8.7-45.9-20.5-63.9-25.3c-5.7-1.4-21.1-4.8-34.1-7.3
		c-29.2-5.7-36.2-7.7-48.5-13.9c-5.3-2.7-11.9-5.5-14.6-6.3C2044.6,1983.2,2031.2,1983.2,2024.9,1984.9z"/>
	<path id="structure32_label36_Rad" bar:growlevel="0" bar:type="" class="st57" d="M1495.7,884.4c-15.5,5.6-31,22.3-42.8,46
		c-10.3,20.8-11.1,26-11.3,74.9c-0.1,32-0.4,40.5-1.5,46.8c-4.4,23-16.8,46.8-32.6,62.6c-26.5,26.5-89.5,51.9-123.2,49.8
		c-5.6-0.4-7.6-1-13.4-4.1c-8.8-4.9-17.6-8.3-30.3-11.9c-12.9-3.7-17.8-6.2-30.1-15.8c-5.5-4.3-12.2-8.9-14.9-10.3
		c-5.6-2.8-17.8-6.8-31-10.4c-10.5-2.8-13.1-4-15.5-7.1c-1.4-1.9-2.1-2.2-4.6-1.7c-3.2,0.6-3.4,1.4-1.5,6c1.8,4.3,1.7,10.9-0.1,16
		l-1.5,4.2l6.3,9.2c13.8,19.9,16.6,22.9,30.4,31.9c26.5,17.4,54.5,32.6,70.2,37.9c6.5,2.3,8.5,2.5,19.3,2.5c17.8,0,33.5-3.4,62-13.6
		c52-18.5,81-33.5,98.6-51.1c18.6-18.6,59.5-89.5,77.6-134.5c9-22.5,13.9-31,23.4-40.8c13.3-13.8,29-18.8,51.5-16.8
		c43.5,4,93.5,18.1,141.2,40c56.8,25.9,114,69.3,148.2,112.1c13.9,17.5,43.2,63.3,57.8,90.4c19.6,36.6,24.5,55,18.1,68.5
		c-4.6,9.9-14,12.4-23.2,6.3c-10.1-6.7-21-20.1-65.8-81.1c-20.8-28.3-21.1-28.6-30.8-33.1c-4.6-2.2-20.6-10.4-35.7-18.4
		c-36.3-19.1-50.6-26.2-65.4-32.6c-12.9-5.5-28.6-10.9-31.8-10.9c-3.2,0-2,2.2,2.6,4.8c13.3,7.5,45.4,30.5,63.2,45.5
		c22.2,18.6,60.2,59.8,82.9,89.8c18.6,24.7,47.1,71.1,66.1,107.9c17.8,34.5,30.8,71.8,36,103.7c3,17.8,2,46-3.2,94.3
		c-5.9,53.6-12.4,81.9-24.7,107.1c-11.7,24.3-22.1,38.6-59.8,83.1c-40,47.3-53.5,62.2-90.2,99.6c-56.5,57.7-105.1,114.1-122.9,142.8
		c-8.8,14.2-19.4,33.1-26.4,47.3c-4.5,9.1-7.5,13.9-8.7,14.6c-1.7,0.8-2.1,1.7-2.1,5.5c0,2.5,0.8,6.8,1.8,9.6
		c2.7,7.7,2.4,9-3.6,17.1l-5.4,7.3l1.8,9.7c7.9,41.5,22.1,64.2,51.2,81.7c9.8,5.9,21.7,10.4,27.8,10.4c3.6,0,4.7-0.4,4.7-1.3
		c0-0.7-1.4-4.9-3.2-9.4l-3.1-7.9l-8.4-0.4c-10.9-0.6-18.3-3.8-25.2-11c-7.8-8.2-14-24-12.8-32.3c0.6-4,4-10.8,8-16.8
		c7.3-10.6,29.5-30.9,45.2-41c21.8-14.1,62.1-31.5,109.3-47.2c24.5-8.1,28.8-9.7,52.3-20.3c32.6-14.6,42.2-18.3,66-25.2
		c32-9.3,56.1-19.7,86-37.2c16.8-9.9,21.2-13.2,31.3-23.8c17-17.7,33.1-46.4,45.5-80.7c8.2-22.6,9.6-32,9.6-63.8
		c0-36.8-2.3-56.9-9.8-89.3c-4.9-20.7-16-71.8-28-128.1c-2.5-11.9-7.4-33.1-10.8-47.3c-12.1-50.8-15.8-70.3-18.9-100.8
		c-4.1-41.7-13.1-102.4-21.1-142.3c-3.7-18.4-4.8-26.6-5.6-41.5c-0.6-12.4-2.8-22.6-8.6-39.6c-21.9-65.1-71.1-125.9-137.2-169.7
		c-54.1-35.8-148.9-80.3-207.9-97.5c-41.4-12.1-81.3-18.7-115.7-19.4C1502.5,882.9,1499.6,882.9,1495.7,884.4z"/>
	<path id="structure33_label40_DLEnt" bar:growlevel="0" bar:type="" class="st58" d="M2145.6,1719.6c-1.6,12.8-7,42.6-10.4,57.4
		c-5.4,22.8-5.3,21.7-1.6,22.8c8.7,2.8,224.9,61.4,226.4,61.4c1.4,0,1.8-0.8,2.3-4.8c0.9-7.6,0.6-68.7-0.4-77.6
		c-0.8-7.7-3.4-21.2-4.1-21.2c-0.1,0-46.8-9.5-103.6-21.2c-56.9-11.6-104.5-21.4-105.8-21.7
		C2146.2,1714.3,2146.1,1714.5,2145.6,1719.6z"/>
	<path id="structure34_label41_PRh" bar:growlevel="0" bar:type="" class="st59" d="M2154.6,1639c-0.3,2.6-1.2,11.6-1.9,20.1
		c-0.8,8.4-2.4,24.1-3.8,34.9c-1.3,10.7-2.2,19.7-2,19.9c0.9,0.7,209.7,43.1,210.2,42.6c0.9-0.9-3.2-12.4-7.8-21.4
		c-2.4-4.7-8.6-14.6-13.9-22.1c-16.4-23.3-16.1-26.8,3.1-36.4c9.5-4.8,12.6-6.9,12.6-8.8c0-1.3-13.1-3.7-97.5-17.6
		c-53.5-8.8-97.6-16-98-16C2155.3,1634.4,2154.8,1636.5,2154.6,1639z"/>
	<path id="structure35_label42_Po" bar:growlevel="0" bar:type="" class="st60" d="M1524.5,1304.7c0.5,5.8,5.6,75.6,8.6,119.5
		c1,15.3,1.7,31.2,1.4,35.3c-0.3,4.1-0.1,7.5,0.3,7.5c2.3,0,6.1,21.4,11.8,65.3c4.1,32.1,4.2,39.7,0.8,46.8
		c-1.1,2.3-1.8,4.3-1.6,4.5c0.2,0.3,10.9-0.6,23.8-1.8c12.8-1.3,23.8-2.3,24.5-2.3c2.3,0,1-2.4-2-3.4c-3.9-1.4-10.9-9-12.2-13.3
		c-3.8-11.5,6.6-30.8,24.8-46.4c8.2-7,20.6-15.3,28.2-18.9l6.1-2.8l2.5-6.8c3.9-10.4,9.8-22.5,14.8-30c2.4-3.8,4.5-7.1,4.5-7.5
		c0-0.4-1.3-3.2-2.8-6.3c-4.8-9.7-2.4-11.8,11.7-10.3c13.9,1.6,16.1-0.4,14.5-13.1c-0.5-3.5-0.9-8.6-0.9-11.3l-0.1-4.9l-14-6.3
		c-17.2-7.7-39.9-19.7-59.6-31.5c-29.1-17.5-51.4-34.5-71.1-54.1c-7.1-7.1-13.3-13-13.8-13
		C1524.3,1299.6,1524.1,1301.8,1524.5,1304.7z"/>
	<path id="structure36_label43_LPLC" bar:growlevel="0" bar:type="" class="st61" d="M1615.8,1182.7c0,0.3,0.8,5.7,1.8,12.1
		c5.5,36.4,1.6,62.7-11.3,75.7c-5.5,5.5-10.2,7.5-17.8,7.5c-10.3,0-22.3-3.8-39.7-12.3c-14.2-7.1-21.2-11.3-27.8-16.9
		c-3.2-2.7-6.3-4.9-6.8-4.9c-1.3,0-1.2,0.4,2.6,13.4c2.3,7.8,4.2,18.2,6.9,36.8c0.8,5.6,18.5,23.7,40.4,41.2
		c12.5,10,36,25.8,54,36.4c14.3,8.4,58.6,30.6,61,30.6c2.1,0,2-0.5-1.5-8.2c-14.9-32.5-24.1-95-26.3-179l-0.6-23.9l-14.9-4
		C1620,1183,1615.8,1182.1,1615.8,1182.7z"/>
	<path id="structure37_label44_DLG" bar:growlevel="0" bar:type="" class="st62" d="M1670.3,1196c-11,6.7-12.1,17.2-6.4,54.1
		c11.3,71.9,19,115,22.7,126.1c4.3,13.2,13.8,25.8,34.7,46.3c20.6,20.3,30.9,24.9,47,21.6c17.8-3.7,69.6-24.2,73.3-29
		c1.7-2.3,1.3-15.8-0.7-25c-2.3-10.2-8-28.3-13.1-41.5c-14.8-38.2-42.3-87.8-62.9-113.4c-14.5-18.1-32.1-30.9-50.6-36.6
		C1700.8,1194.3,1675.5,1192.7,1670.3,1196z"/>
	<path id="structure38_label45_Or" bar:growlevel="0" bar:type="" class="st35" d="M1748.1,1194.3c0,0.5,4.1,5.3,9.2,10.6
		c24.7,25.7,36.1,42,57.2,81.5c35.4,66.1,38.4,75.4,50.2,157.9c5.2,36,4.6,50.7-3.2,81.7c-2,7.7-4.9,22.6-6.8,33
		c-4.3,25.7-6.3,34.1-11,47.1c-8.1,22.5-19.6,45.5-32.1,64.1c-7.7,11.5-23.7,27.8-31.6,32.3l-5.4,3.1l-2.5,8.2
		c-6.4,20.3-9.8,26.5-26.6,48.2c-5.7,7.3-10.8,15.2-14.6,22.5c-8.4,16.1-15.8,27.6-29.7,46.2c-13.8,18.3-58.6,82.1-79.6,113.1
		c-25.5,37.6-40.9,63.9-43.9,74.7c-5.8,20.6-5.4,37.3,1,46.2c3.5,4.9,10.6,8.7,16.5,8.7c3.9,0,4.6-0.4,6.6-3c1.4-1.7,2.3-3.5,2.3-4
		c0-0.5-2-1-4.5-1c-8.1,0-15.1-5.8-18-14.8c-2.5-8.1,0.4-20.6,7.9-33.4c3.6-6.2,9.6-13,12.3-14c1.1-0.5,7-8.7,13.9-19.4
		c13.3-20.9,33.8-51.4,44.6-66.5c20.3-28.4,33.6-44.6,82.3-99.4c69.3-78,122-149.3,142.7-193c19.1-40.1,25.1-99.5,16.6-165.2
		c-8.5-66-36.6-141-74.2-197.6c-11.7-17.6-20.7-29.6-48.2-63.4c-1-1.3-3.1-1.9-8.5-2.3c-4-0.3-10-1.2-13.3-1.8
		C1750.3,1193.1,1748.1,1193,1748.1,1194.3z"/>
	<path id="structure3_label3_PBP" bar:growlevel="0" bar:type="" class="st63" d="M1454.5,1872.9c-10.3,5-29.5,11.6-42.9,14.8
		c-18.4,4.3-24.4,4.9-45.8,4.9c-11.3,0-22.9,0.5-25.7,1c-12.2,2.3-21.6,9.1-26.2,19.1c-2.4,5.3-2.6,6.2-2.6,17.7
		c0,10.3,0.4,13.2,2.1,18.9c3,9.3,5.5,13.9,11.9,21.9c7.4,9.2,35.9,38.4,37.4,38.4c1,0,1.3-1.5,1.3-6.6c0.1-10.9,5.5-23,17.5-39
		c6.1-8.3,20.6-23.2,31.4-32.6c5-4.2,13.3-12.5,18.7-18.5c12.2-13.6,35-41.9,35-43.5C1466.4,1867.5,1463.6,1868.4,1454.5,1872.9z"/>
	<path id="structure40_text3309_VG-1" bar:growlevel="0" bar:type="" class="st64" d="M1834.1,1437.1c-6.4,0.3-7.7,1.5-7.7,7.1
		c0,10.1-5.4,45.6-10.4,68c-7.4,33.3-17.1,57.1-31,75.3c-8.9,11.8-16.5,23.6-21.6,33.8c-4.9,9.4-12.2,27.3-11.6,27.8
		c0.2,0.1,3.6,1.2,7.6,2.4c5.1,1.5,9.4,2.2,14.9,2.2c12.4,0,16.5-3.1,28.8-21.3c8.6-12.8,14-23.1,20.3-39.4
		c8.5-21.9,19.2-56,22.4-71.6c2.6-12.6,5.4-44.4,5.4-62.7c0.1-16.7,0-17.9-1.7-19.4C1847.4,1437.3,1842.4,1436.6,1834.1,1437.1z"/>
	<path id="structure42_text3311_VG-2" bar:growlevel="0" bar:type="" class="st65" d="M1817.4,1439.9l-5.8,1.5l-0.7,5.3
		c-2.2,16.3-8.2,40.3-15.9,63c-11.8,34.6-27.6,65.3-46.1,89.8c-7.2,9.6-22,24.1-30.2,29.9c-3.6,2.4-6.5,4.9-6.6,5.6
		c0,0.5,2.2,1.8,4.8,2.8c7.4,2.8,34,11.2,34.4,10.8c0.2-0.1,1.7-4,3.4-8.4c6.8-17.7,16-33.8,30.7-53.5c8.1-10.9,15.9-26.3,21.1-41.7
		c8.8-25.9,16.3-64.3,19.4-100C1826.7,1437.1,1827.1,1437.3,1817.4,1439.9z"/>
	<path id="structure44_label48_VG-3" bar:growlevel="0" bar:type="" class="st66" d="M1802.3,1445.4c-6.9,3.4-13.8,9.5-15.8,14
		c-0.8,1.9-3.9,12.5-6.8,23.7c-12.5,47-24.8,75.8-42.1,97.8c-9.2,11.8-20.9,21.2-31.7,25.2c-2.3,0.8-5.9,3.1-8.1,4.9
		c-3.7,3.2-12.3,7.9-14.4,7.9c-1.9,0-1,2.6,1.1,3.1c1.1,0.4,6.7,3.2,12.3,6.4c5.8,3.2,11.3,5.8,12.5,5.8c3,0,14.8-8.8,23.8-17.5
		c23.6-23.2,43.1-56.2,59-99.6c8.4-23.1,18.1-60.8,18.1-70.8C1810.2,1441.8,1809.6,1441.8,1802.3,1445.4z"/>
	<path id="structure45_label52_Ect" bar:growlevel="0" bar:type="" class="st67" d="M2156.3,1560.6c-0.4,5.9-0.4,15.1,0,20.4
		c0.4,5.4,0.2,19.2-0.4,30.8c-0.5,11.6-0.8,21.2-0.6,21.5c0.5,0.4,194.6,32.6,197,32.6c2.2,0,3.4-1.5,7.3-9
		c6.8-13.1,31.1-81.7,31.4-88.7l0.2-3.5l-112.5-7.5c-61.8-4.1-114.6-7.4-117.1-7.4l-4.6-0.1L2156.3,1560.6z"/>
	<path id="structure46_label53_TeA" bar:growlevel="0" bar:type="" class="st68" d="M2284.8,1446.6c-64.9,3-118.2,5.7-118.4,5.9
		c-0.2,0.3-0.9,6.9-1.4,14.8c-0.9,11.6-5.4,56.6-7.7,77.1l-0.4,4.2l6.5,0.5c25,2.2,228.9,14.9,229.4,14.3
		c1.1-1.1,7.6-27.7,11.1-45.3c4.4-22.3,6.9-40.7,10-71.8l0.5-5.6l-5.7,0.1C2405.4,1441,2349.8,1443.6,2284.8,1446.6z"/>
	<path id="structure47_label55_AuV" bar:growlevel="0" bar:type="" class="st69" d="M2280.5,1325.5c-70.3,8.6-127.9,15.8-128,15.9
		c-0.1,0,1,6.4,2.5,14c8.3,42.9,10,55.2,10.4,76.1l0.5,20.1l2.3-0.1c13.8-0.3,245-11.3,245.3-11.8c0.3-0.3,1-10.5,1.5-22.9
		c0.7-16.3,0.7-33.5-0.1-64.1c-0.5-22.9-1.2-42.1-1.5-42.6c-0.3-0.4-1.5-0.7-2.9-0.7C2409.4,1309.6,2350.8,1316.7,2280.5,1325.5z"/>
	<path id="structure48_label56_LPMC" bar:growlevel="0" bar:type="" class="st70" d="M1562.7,1179.4c-29.2,3.4-38.3,4.2-59.2,5.3
		c-12.4,0.6-22.9,1.4-23.3,1.7c-1.1,1.2,1.7,13.3,4.3,18.5c1.4,2.9,5.6,8.5,9.2,12.3c3.6,4,9.1,10.5,12.3,14.7
		c11.3,15,20.1,22.1,39.3,31.9c19.4,9.9,36,14.8,45.7,13.9c12.5-1.3,21.9-11.7,26.3-29.1c2.3-9.1,2.3-39.1-0.1-54.1
		c-0.9-6-2-11.4-2.3-12C1612.6,1178.8,1583.1,1177,1562.7,1179.4z"/>
	<path id="structure49_label57_LV" bar:growlevel="0" bar:type="" class="st71" d="M2028.9,1160.4c0,0.7,4.7,18,10.3,38.4
		c18.5,66.7,23,87.6,39.2,183.1c10.5,62.6,14.9,80.8,25.7,107.6c16.5,40.5,23.4,61.8,27.8,85.1c3.2,17.2,3.1,16.6,4.4,16.6
		c3,0,3.7-40.7,1.1-58.1c-1.4-9.7-1.5-12.5-0.6-28.3c1.4-24.5-0.1-35-7.3-51c-11.3-25-21.6-56.6-35-107.4
		c-20-75.6-30.1-108.3-44.7-145.3c-8.4-21.2-18.2-41.9-19.8-41.9C2029.5,1159.2,2028.9,1159.7,2028.9,1160.4z"/>
	<path id="structure4_label4_VTAR" bar:growlevel="0" bar:type="" class="st72" d="M1476.9,1848.6c-12.2,6-22.1,9-30,9
		c-3.1,0-10.1-1-15.8-2.2c-37.4-8.1-67-8.4-109.2-1.3c-21.2,3.6-36.6,7.6-48.5,12.6c-20.7,8.8-36.5,29.4-41.5,54.7
		c-2.7,13-0.3,20.9,8.9,30.1c6.1,6.1,13,10.2,25.5,15c30.2,11.8,45.3,18.3,64.8,27.9c11.9,5.9,22.1,10.7,22.7,10.7
		c2.4,0,0.3-2.8-11.1-14.5c-20.7-21.2-26.4-29.3-30.2-43c-6.5-23.2-0.4-42.2,16.1-50.5c8.2-4,12.5-4.6,37.5-4.9
		c21.1-0.2,24.3-0.4,34.9-2.6c23.6-4.9,47.4-13.1,62.4-21.5c4.4-2.4,10.4-7.2,16.8-13.3C1494.8,1841.2,1494.1,1840.1,1476.9,1848.6z
		"/>
	<path id="structure50_label58_Au1" bar:growlevel="0" bar:type="" class="st73" d="M2200.6,1072.5c-63.3,33-115,60.5-115,61
		c0,0.5,3,7.4,6.7,15.3c22.2,48.3,40.4,104.3,55,169.6c2.7,12.1,5,22.1,5.2,22.2c0.3,0.3,255.1-30.9,258.8-31.6
		c2.4-0.6,2.5-2.4,0.6-21c-2.8-26.5-6.2-45.9-12.3-69.9c-10.3-40.4-43.4-127.9-67.1-176.9c-3.7-7.6-8.4-17.3-10.4-21.4
		c-2.3-4.9-4.1-7.4-5-7.4C2316.2,1012.5,2263.8,1039.5,2200.6,1072.5z"/>
	<path id="structure51_label59_AuD" bar:growlevel="0" bar:type="" class="st74" d="M2132,966.1c-55.4,44.7-100.9,81.9-101.1,82.5
		c-0.1,0.6,1.5,3.1,3.7,5.7c17.4,19.8,32.2,42.5,45.3,69c2.4,4.9,4.8,8.8,5.3,8.8c2,0,231.3-120.5,231.6-121.6
		c0.5-2.9-26-48.8-42.4-73.3c-16-24-38-52.7-40.2-52.6C2233.4,884.7,2187.4,921.4,2132,966.1z"/>
	<path id="structure52_label60_PtPR" bar:growlevel="0" bar:type="" class="st75" d="M2069.4,903c-52.6,58.6-86.8,97.4-86.8,98.5
		c0,1.1,3.4,4.7,9,9.6c4.9,4.4,15.4,14.4,23.2,22.2c7.8,7.8,14.7,14.2,15.1,14.2c1.6,0,203.3-163.1,203.3-164.4
		c0-4.9-71-76.9-75.7-76.8C2156.8,806.4,2117.2,849.9,2069.4,903z"/>
	<path id="structure53_label61_PtPD" bar:growlevel="0" bar:type="" class="st76" d="M1995.6,846.9
		c-40.3,58.4-73.4,106.9-73.6,107.7c-0.2,1.2,3.1,4,10.8,9.6c12.9,9.4,32.8,24.8,41.1,31.8c3.2,2.7,6.2,4.8,6.8,4.6
		c1.9-0.4,175.1-193.7,175.1-195.3c0-1.9-14.4-13.9-38.3-31.8c-18.6-13.9-46.1-32.8-47.6-32.8
		C2069.4,740.7,2035.9,788.5,1995.6,846.9z"/>
	<path id="structure54_label62_V1" bar:growlevel="0" bar:type="" class="st77" d="M1719,585c-0.9,2.5-59,232.9-59,233.7
		c0,0.5,1.3,1.3,3,1.5c13,2.8,53.6,17.9,77.6,29c26.7,12.2,70.4,35.8,98.4,53.1c5.1,3.2,10,5.7,10.7,5.5
		c1.7-0.4,120.8-221.7,120.9-224.5c0-1.6-4.1-4-28.5-16.2c-69.6-34.8-128.3-57.8-196.5-76.9C1722.7,584,1719.5,583.3,1719,585z"/>
	<path id="structure55_label63_V2L" bar:growlevel="0" bar:type="" class="st78" d="M1911.7,794.9c-33,61.6-60,112.7-60,113.7
		c0.1,1.2,3.1,3.6,10.2,7.9c5.6,3.4,20.7,13.2,33.7,21.9c13.1,8.6,24.3,15.6,25,15.4c1.5-0.3,148-211.7,148-213.6
		c0-1.3-20.1-14-45.4-29c-18.1-10.6-49.7-28.2-50.7-28.2C1972.1,683.1,1944.7,733.5,1911.7,794.9z"/>
	<path id="structure59_label67_V2ML" bar:growlevel="0" bar:type="" class="st79" d="M1524,559.5c0,2.9-1.8,56.1-4,118.2
		s-4.1,114.4-4.1,116.2c0,4-3,3.5,36.9,7.6c46.4,4.8,67,8,94.9,14.9c5.8,1.5,11,2.3,11.3,2c0.7-0.8,59.4-231.8,59.4-233.8
		c0-1.5-1.3-1.9-25.2-7.1c-46.7-10.3-97.9-17.6-150.3-21.7c-9.6-0.7-17.8-1.3-18.2-1.3C1524.3,554.4,1524,556.7,1524,559.5z"/>
	<path class="st80" d="M1237.8,2040c-14.4-21.5-45.2-38.3-86.4-47c-13.9-2.9-27.2-4.6-37.7-4.8v30.8c1.8,0,3.5,0,4.8,0.1
		c30.2,2.8,88.6,16.7,114.8,27.4c3.7,1.5,7.3,2.8,7.9,2.8C1243.2,2049.3,1242.3,2046.7,1237.8,2040z"/>
	<path id="structure60_label68_V2MM" bar:growlevel="0" bar:type="" class="st81" d="M1400.3,553.5c-6.9,0.4-16.2,1.1-20.7,1.4
		l-8.1,0.7l-0.3,6.3c-0.1,3.4,1.2,50.2,3,104c1.7,53.7,3.2,100.4,3.2,103.6v6l7.9,1.4c44.1,8.3,128.3,21.2,129.5,20
		c0.4-0.5,9.3-242,8.9-242.4c-0.1-0.1-8.1-0.6-17.7-1.2C1485.5,552.4,1418.6,552.5,1400.3,553.5z"/>
	<path id="structure61_label69_RSD" bar:growlevel="0" bar:type="" class="st82" d="M1360.7,556.8c-58.3,7.5-96.3,16.1-132.8,30.4
		c-21.8,8.5-53.1,25.2-53.1,28.3c0,2.3,15.5,27.6,27.9,45.6c25.1,36.4,86,113.7,89.6,113.7c0.7,0,2.9-1,4.7-2.3
		c11.7-7.7,23.6-8.2,55.1-2c11.6,2.3,22.1,4.2,23.2,4.2h2.1l-0.5-11.1c-0.5-8.8-6.8-201.9-6.8-206.4
		C1370.1,556.2,1367.1,556,1360.7,556.8z"/>
	<path id="structure62_label70_RSGc" bar:growlevel="0" bar:type="" class="st83" d="M1165.8,620.3c-26.1,20.5-44.4,62.7-50.4,116.3
		c-0.5,4.8-0.9,38.3-0.9,82v74l13.8,0.5c29.9,1.2,113.4,2.4,114.1,1.7c1.2-1.2,12.8-27.7,17.5-39.9c2.3-6.2,8-22.5,12.7-36.2
		c8.8-26.2,10.3-30.1,15.3-37c1.7-2.3,3.1-4.9,3.1-5.6s-6-8.5-13.3-17.3c-42.2-50.7-77.4-98.5-96.8-131.5c-4.9-8.2-6.9-11-8.3-11
		C1171.6,616.5,1168.5,618.2,1165.8,620.3z"/>
	<path id="structure63_label71_RSGb" bar:growlevel="0" bar:type="" class="st84" d="M1114.5,936v42.3h3.5c2.8,0,3.7-0.4,4.1-1.8
		c0.9-2.7,7.6-8,11.1-8.6c3.4-0.6,8.9,1.4,9.7,3.7c0.8,2.2,4.8,1.6,14.9-1.9c29.5-10.3,56.6-29.3,69.8-49
		c5.6-8.5,12.9-21.4,12.9-22.9c0-0.8-2.2-1.3-7.4-1.7c-6.7-0.5-100.4-2.4-113.4-2.3h-5.2L1114.5,936L1114.5,936z"/>
	<path class="st85" d="M2161.2,1392.6c-14.6-88.7-34.9-163.3-61.8-227.2c-7.7-18.4-25.6-54.4-33.4-67.6
		c-36.5-61.3-109.3-124.1-225.2-194.1c-100.4-60.7-167.9-86.9-250.7-97.7c-26.7-3.5-44-4.9-52.7-4c-17.6,1.5-77.9,2.7-131.8,2.4
		c-61.9-0.3-59-0.5-70.9,5.8c-6.9,3.7-17.2,13.9-24.8,24.6c-3.1,4.4-12.8,19.3-21.5,32.9c-29.1,45.8-41.6,59.9-64.8,73.3
		c-9.1,5.2-59.9,27.2-71.5,31c-14,4.4-26.2,6.7-38.4,6.7v68.7c8.5,0,17.7-1.2,31.9-3.8c50.8-9.3,106.1-29.2,136.5-49.1
		c23.5-15.3,45.8-38.3,79.3-81.7c32.4-42.1,45.5-54.8,68.5-65.9c35.3-17.1,73.9-20.4,121.6-10.4c49.7,10.3,114.5,27.8,163.3,43.8
		c75.6,24.9,143.8,62.5,192.2,105.9c12,10.9,42.3,41.9,55.3,56.9c10.8,12.3,24.2,30.2,32.5,43.2c8.1,12.8,20,35.9,25.1,49.1
		c2.1,5.4,5.7,13,7.9,16.6c11,18.2,25.5,52.4,37.4,88.4c8.6,25.8,14.5,46.3,25.7,88.5c19.5,73.1,24.8,89.9,38,120.9
		c9.3,21.8,9.9,25.7,9.2,54.6c-0.4,19.1-0.3,25.2,0.9,32.9c2.3,15,1.6,40.3-1.6,62.7c-0.9,5.9-0.9,11.1,0,23.9
		c3.5,50.2,2.3,80.8-4.7,118.5c-4.3,23.3-9.7,42.9-21.2,76.5c-21.2,62.2-40.1,100.9-61,124.9c-16.6,19.2-37.3,30.7-120.1,67
		c-36.6,16-42.5,18.5-77.4,31.4c-96.6,36-122.9,47.1-122.9,51.4c0,3.2,6.6,1.1,27-8.7c20.9-10,28.5-12.9,84.9-31
		c49.2-15.9,83.3-30.4,152.7-65c37.6-18.8,47.7-25.6,63-42.9c18.2-20.6,40.3-59.3,54.3-94.7c16-40.7,25.4-77.9,32.9-131.9
		c7.8-54.9,9.9-80.9,10.9-134.6c0.7-37.8,1-44.3,3.5-66.6C2167,1450.1,2167.3,1429.5,2161.2,1392.6z"/>
	<path id="structure65_label76_LMol" bar:growlevel="0" bar:type="" class="st86" d="M1556.4,955.4c-17.2,3.7-32,16.7-42.1,36.9
		c-1.5,3.1-5.1,11.3-7.9,18.5c-12,30.6-37.3,77.9-60.5,112.9c-15.4,23.2-28.8,35.1-54.7,48.3c-25.8,13.2-72.1,30.5-97.3,36.4
		c-12.1,2.8-31.7,3.9-39.1,2.2c-15.7-3.7-48.3-20.8-79.4-41.6c-11.3-7.6-14.9-11.5-26.8-28.5c-3.1-4.5-6.1-8.2-6.8-8.2
		c-0.6,0-2,1.7-3,3.8c-1,2.2-2.3,4.6-3,5.4c-1,1.4-0.4,2.3,4.8,7.7c3.2,3.4,9.4,10.1,13.8,14.9c9.3,10.2,17.8,17.6,39.4,33.8
		c24.7,18.5,37.6,26,53.8,31.2c11,3.4,18.6,3.9,27,1.4c12-3.5,26.4-8.4,35.5-12c5-2,24.2-8.6,42.8-14.8
		c35.7-11.9,40.4-13.9,59.5-25.6c30.2-18.5,52.5-37.1,62.1-51.8c2.3-3.5,7.7-12.8,12.1-20.7c18.4-33.3,36.2-60.4,47.9-73
		c15.5-16.8,41.9-31,67.5-36.1c10.4-2.1,33.9-2.1,46.6,0.1c38.4,6.5,79,21.3,112.8,41.4c40.2,23.9,87.2,72,113.2,115.7
		c4.7,7.9,7.6,11.9,8.8,12.1c12,2.8,26.2,5.9,27.2,5.9c2.4,0,1.2-3.1-5.2-13.4c-8.7-14.1-26.9-41-33.2-49.3
		c-30.5-39.9-83.6-81.7-138.1-109c-45.7-22.9-99.5-39.5-144.4-44.6C1575.1,953.7,1564.3,953.7,1556.4,955.4z"/>
	<path id="structure66_label77_MoDG" bar:growlevel="0" bar:type="" class="st87" d="M1602.8,996.7c-26.1,4.9-51,18.3-68.5,36.7
		c-11.2,11.8-30.9,41.9-48.9,74.8l-7.4,13.4l1.5,5c4.2,14.7,15.5,29.7,25.9,34.6c7.4,3.5,13,3.7,51.1,1.9l33.6-1.6l24.3,3.3
		c25.6,3.5,81.5,10.7,91.2,11.7c6.8,0.8,6.9,0.5,2.3-10.4c-2.3-5.5-3.8-7.9-4.9-7.9c-0.8,0-3.5-1.6-5.8-3.6
		c-8.5-7-28.8-16.2-48.7-22c-20.5-5.9-23.9-6.4-46.2-6.4c-21.9,0-30.8,0.9-54,5.1c-16.9,3.1-22.4,3.3-27.2,1.4
		c-3.9-1.6-7-6.1-7-10.1c0.1-4.1,3.1-9.8,7.4-14.1c4.6-4.6,29-23.4,43.7-33.8c15.6-10.9,26.9-17.8,42-25.6
		c29.5-15.2,48.2-19.2,63.6-13.6c2.9,1,12.7,6.1,22,11.4c21.2,12.2,42.8,22.6,56.6,27.4c5.9,2.1,13,5,15.8,6.5
		c29.1,16.2,63.7,50.1,69.8,68.2c1,3.1,1.4,6,1.1,8.6c-0.5,3.6-0.3,4.1,4.4,10c2.7,3.4,10.6,14.1,17.7,23.8
		c51.2,70.1,62.6,82.8,74.2,82.8c4.9,0,10.2-3.3,12.9-8.1c2.1-3.7,2.3-4.9,2.3-14.4c-0.1-9.4-0.4-11.3-3.1-19.2
		c-4.5-13-24.3-52.3-29.4-58.3c-0.8-0.8-7.6-2.8-17.5-4.9l-16.3-3.5l-3.6-6.7c-18.9-35.1-57.7-78.7-95-106.6
		c-33.8-25.5-83.3-46.5-128-54.6C1640.8,995.4,1613.2,994.8,1602.8,996.7z"/>
	<path id="structure67_label78_PoDG" bar:growlevel="0" bar:type="" class="st88" d="M1638.8,1056.5c-12.3,3.2-29.2,11.7-61.5,30.9
		c-21,12.5-36.6,25.5-36,29.8c0.3,1.7,0.8,2,4.8,1.9c2.5-0.1,7.2-1,10.5-2c9.5-3,19.8-4.1,38.1-4.1c38.5,0.1,65.3,7.1,91.1,24.2
		c10.7,7.1,13.9,11.2,20.6,26.5c3.1,7.2,6.2,13.3,6.8,13.6c0.6,0.3,4.8,1.7,9.1,3.1c4.4,1.4,10.9,4.4,14.4,6.6
		c9.6,5.9,16.7,8,33.3,9.7c4.9,0.4,6,0.4,6-0.7c0-2.4-31.9-38.3-41.8-46.9c-9.1-8-21.2-15.4-44.2-26.7
		c-11.9-5.9-24.1-12.3-27.2-14.4c-8.5-5.6-11.3-11.4-7.6-15.8c3.7-4.6,10-5.1,20.7-1.7c3.8,1.2,11.8,3.4,17.7,4.8
		c18.2,4.4,40,13.7,74.4,31.8c36.7,19.3,53.5,27.8,54.5,27.8c2.7,0,0.2-3.8-10.3-15.3c-11.2-12.2-25.7-25-39.9-35.2
		c-8.2-5.9-10.1-6.8-27.5-13.9c-6.9-2.8-24.8-11.2-39.6-18.5c-18.7-9.3-29.3-13.9-34.1-15.2
		C1662,1054.2,1647.7,1054.2,1638.8,1056.5z"/>
	<path id="structure68_label80_OPT" bar:growlevel="0" bar:type="" class="st89" d="M1303.1,1222.2c-2.4,1-11.2,3.9-19.4,6.3
		c-16.6,5-21.6,6.9-21.6,8.3c0,0.5,1.4,3.6,3.2,6.8c10.1,18.4,30.8,38.6,47.7,46.6c7,3.3,7.3,3.4,18,3.4h10.9l7.9-4
		c6.6-3.2,9.5-5.4,16.2-12.2c7.3-7.4,8.7-9.4,13.2-18.6c3.8-7.7,6.4-11.8,10.5-16.2c3-3.2,5.5-6.4,5.5-7c0-1.3,0-1.3-12.6,2.3
		c-7.3,2.1-9.8,2.3-17.1,2c-12.5-0.6-21-4.9-27-13.7l-2.6-3.8l-10.2,0.4c-8.1,0.3-10.9,0.1-13.7-1.1
		C1308,1220.1,1308.7,1220,1303.1,1222.2z"/>
	<path id="structure69_label81_MPT" bar:growlevel="0" bar:type="" class="st90" d="M1239.6,1247.4c-22.5,11.6-32.3,18-55.1,36
		c-2.6,2-1.6,4.3,4.8,11.1c9.5,10.3,24,18.9,40.9,24.4c34.3,11.3,71,5.8,102.6-15.4c9.1-6.1,10.4-7.1,10.4-8.2
		c0-0.5-3.8-0.9-9.6-0.8c-8,0.1-10.8-0.3-15.8-2c-11.6-4.1-27.4-16.1-39.1-30.1c-6.4-7.6-15-20.1-16-23.2c-0.4-1-1.3-1.8-2.1-1.8
		C1259.7,1237.5,1250.2,1242,1239.6,1247.4z"/>
	<path class="st91" d="M1402.1,1745.1c-1.5,0-26.1,16.2-40.1,26.4c-10.7,7.7-20.7,12.6-32,15.6c-12.1,3.2-35.4,4.1-47.6,1.7
		c-17.8-3.3-32.8-12.4-38.8-23.4c-0.9-1.7-2.1-3.2-2.6-3.2c-0.6,0-0.9,10.3-0.9,30.3c0,28.2-0.2,31.1-2.1,39.6
		c-1.1,5-2.8,11.1-3.8,13.4c-4,9.1-16.5,23.4-23,26.1c-4,1.6-8.6,1.6-10.9-0.1c-3.7-2.8-4.6-1.8-5.1,5.4c-1,11.2-3.2,19.3-6,22.2
		c-2.9,2.9-4.7,3.2-6.7,1.2c-3.1-3.1-3.5-7.8-3.9-39.2c-0.6-45.3,1.4-65.8,7.8-78.6c2.7-5.4,5.3-15.4,4.3-16.4c-0.3-0.4-2.5,0.1-5,1
		c-4,1.3-5.1,1.4-9.9,0.4c-11.8-2.5-18.4-8.6-22.1-20.2c-1.8-5.6-2.1-8.4-2-20c0-14.3,1.3-23.1,5.4-37.8
		c6.1-21.5,19.5-35.6,38.6-40.5c8.5-2.2,13.9-1.8,25.5,1.8c1.9,0.6,2,0.4,2-4.1c0.1-12.3,3.2-25.8,11-46.3c5.8-15.4,8.8-25,8.8-27.9
		c0-1-1.4-4.6-3.2-8c-1.7-3.3-3.2-7.1-3.2-8.3c0-1.4-0.5-2.2-1.5-2.2c-1.1,0-2.8,2.3-5.2,6.8c-8.7,16.6-27.4,37.5-38.3,43
		c-11.1,5.6-18.2,4-27.3-5.9c-12.1-13-17-34.8-12.3-54.4c6.1-25.1,24.2-54.7,37.4-61.2c9.3-4.6,25.7-3.7,37.1,1.9
		c5.3,2.5,14.3,10.3,15.1,13.1c0.4,0.9,1.2,1.7,1.9,1.7c1.3,0,1.4-1.9,0.8-14.7c-0.8-20.3-1.5-23.9-5.5-30
		c-7.1-10.7-22.1-22.9-35.6-29c-18.6-8.4-44.9-13.4-65.4-12.7c-7.7,0.4-8.5,0.5-10.7,2.9c-2.5,2.4-2.5,2.5-2.3,13.5
		c0.1,6-0.2,18.3-0.6,27.2c-0.5,8.9-1.7,37.6-2.7,63.9c-3.4,88.5-4.9,112-8,112.7v354.6c31.1,0.3,78.1,13.8,101.8,30.2
		c6.5,4.5,7.8,5,7.8,2.9c0-0.7,1-2,2.3-2.8c2.1-1.4,3.2-1.4,15,0.4c29.2,4.2,45,4.6,61,1.4c6.2-1.2,13.1-2.3,15.3-2.3
		c12.2,0,17,6,10.4,13.3c-11,12.2-58.1,21.2-78.3,15.1c-6.4-2-7-1.9-6.4,1c0.8,3.2,4,6,8.8,7.7c3.1,1.2,49,15.2,56.9,17.6
		c1.5,0.4,1.6,0.1,1.1-3.8c-1.1-6.9,0.8-12.7,5.7-17.6c4.5-4.7,6.9-5.7,17.9-7.3c7.3-1.2,17.1-0.1,21.9,2.3c1.3,0.7,4,1.3,5.8,1.3
		h3.2v-5.2c0-6.4,1.8-12.6,4.9-17.4c3-4.4,2.9-5.3-0.1-8.2c-10.8-10.1-44.8-27.3-86.7-43.6c-23.8-9.4-27.7-11.2-34.8-16.2
		c-6.7-4.8-11.3-10-14.3-16.3c-4.5-9.1-2.3-23,6.6-40.8c4.6-9.3,6-11.3,13.8-19c7.4-7.5,9.7-9.3,17.1-12.8
		c17.7-8.6,52.8-16.2,88.9-19.2c7.9-0.6,9.1-1.6,4.7-4.1c-3.6-2.1-6.3-6.8-6.3-10.9c0-7.4,6.9-23.2,22.2-50.9
		c7.4-13.4,18.7-31.1,21.8-33.8C1403.8,1747.2,1404.1,1745.1,1402.1,1745.1z"/>
	<path class="st92" d="M1197.5,1212.5c-1.2-5.6-2.3-10.9-2.7-11.8c-0.4-1-5.7-5.5-11.9-10.1c-9-6.7-17-14.2-39.5-37.1
		c-15.4-15.6-28.7-28.4-29.7-28.6v226.3c6.8-0.1,12.7-3,16.4-8.4c1.3-1.9,4.2-7.6,6.4-12.5c2.2-5,5.1-10.9,6.7-13.1
		c4-5.8,17.7-18.4,27.2-25c14.1-9.8,15.6-11.1,18.6-16.1C1198.9,1259.8,1202,1235.7,1197.5,1212.5z"/>
	<path class="st93" d="M1415.1,855.6c-15.7,10.6-28.6,24.8-60.7,66.3c-21.2,27.5-45.6,53.4-62.5,66.1c-25.4,19-68.8,37.3-117.6,49.5
		c-31.3,7.8-42.5,9.6-60.6,9.5v57.7c16.7-0.1,38.5-2.6,74.1-8.2c10.9-1.8,23.8-3.8,28.8-4.5c5-0.7,16.3-3.1,25.3-5.3
		c37.3-9.2,58.9-19.3,89.1-41.8c23-17.2,25.7-21.2,32.8-51c6.6-27.4,9.4-38.4,14.1-52.7c11.3-35,27.1-65.8,42.5-82.7
		C1429.3,848.7,1427,847.6,1415.1,855.6z"/>
	<path id="structure75_label88_ml" bar:growlevel="0" bar:type="" class="st94" d="M1546.1,1693c-12.4,4.6-21.3,6.8-34.7,8.7
		c-45.2,6.7-73.1,15.5-90.3,28.7c-17.4,13.4-27.8,27.5-47.6,64.5c-11.7,21.9-14.4,28.8-14.8,37.6l-0.4,7l3.1,2.9
		c4,3.8,8.6,5.1,17.5,5.1c15.9,0,31-6.5,60.1-25.9c22.7-15.1,35.3-24.8,48.7-37.5c11.9-11.1,15.2-15.5,37.4-48.4
		c15.4-22.9,27.3-39.1,30.9-42c2-1.7,1.6-3.6-0.6-3.5C1554.2,1690.3,1550,1691.6,1546.1,1693z"/>
	<path id="structure77_label90_cp" bar:growlevel="0" bar:type="" class="st95" d="M1738.3,1673.1c-12,3.2-35.6,14.6-50.1,24.1
		c-11.3,7.4-38.2,36.4-38.3,41.2c0,4,5.1,11.7,13.2,20.2c9.8,10,10.6,12,9.9,23.4c-2,28-28.2,83-58.9,123.7
		c-23.3,30.7-53,61.3-84.3,86.5c-31.2,25.3-55.2,37.4-92.2,46.8c-22.4,5.7-29,4.3-41.6-8.5c-7.8-8.1-11.2-9.9-18.2-9.9
		c-5.4,0-7.6,1.4-10.4,7c-2.3,4.5-4,13.8-3.1,17.9c1.5,8.3,25.5,25.4,42.8,30.7c20.7,6.4,48.5,4.6,74.1-4.7
		c26.7-9.7,64.1-31.8,89.8-53.1c6.8-5.6,8.1-7.3,12.5-15.3c6.8-12.7,20.6-34.7,35.5-56.8c19.8-29.3,66.8-96.2,81.3-115.6
		c16.6-22.1,28.5-41.6,34.2-55.4c7.4-18.3,13.7-38.8,16-52.2c1.8-10.7,3.7-48.8,2.4-50C1751.1,1671.2,1745.1,1671.3,1738.3,1673.1z"
		/>
	<path id="structure78_label92_str" bar:growlevel="0" bar:type="" class="st96" d="M1684.7,1404.6c-1.3,1.3-1.4,2.5-1,6.9
		c1.9,18.2,1.9,18.2-0.7,20.8c-2.3,2.3-2.4,2.3-14.3,2.1l-11.9-0.3l-0.3,3.4c-0.4,4.8,2.8,9.8,11,17.5c13,12.2,31.7,23.4,40.4,24.3
		c4.5,0.4,5,0.3,6.8-2c1.6-2.1,2-3.7,2-9c0-11.4-6.1-38.8-11-49C1699.8,1407,1689.4,1399.7,1684.7,1404.6z"/>
	<path id="structure8_label8_Dk" bar:growlevel="0" bar:type="" class="st97" d="M1193.5,1650.1c-7.6,2.1-14.4,6.1-20.5,12.1
		c-9.2,9.1-13.7,18.6-18.1,38.4c-1.6,7.4-2,11.7-2,26.4c-0.1,16.2,0.1,17.9,2,22.6c3.2,7.9,6.6,12,12.5,14.9
		c4.4,2.2,6.4,2.5,12.6,2.6c6.9,0,7.5-0.2,10.1-2.6c1.5-1.4,3.2-4.1,3.8-5.9c1.2-3.8,6.5-13.9,9.1-17.2c0.9-1.3,3.6-3.3,5.9-4.6
		c4.9-2.7,7.7-7.3,12-20.6c8.7-26.8,10.3-51,4.1-60.5c-3.4-5-8.6-7-18.6-6.9C1201.6,1648.8,1195.8,1649.5,1193.5,1650.1z"/>
	<path id="structure9_label9_PR" bar:growlevel="0" bar:type="" class="st98" d="M1282.8,1676.1c-6.8,1.5-11,3.5-17.5,8.1
		c-25.7,18.4-35.7,53.6-22.4,79.1c10.3,19.5,35.4,28.9,69.7,26c21.4-1.9,32.2-5.9,50.9-19.2c6.4-4.6,20.1-13.9,30.3-20.8
		c10.3-6.9,22.4-15.3,26.9-18.7c4.5-3.4,11.2-7.7,14.8-9.4c3.7-1.7,6.7-3.8,6.7-4.4c0-0.7-1.5-1.4-3.8-1.7
		c-7.4-1.1-23.8-6.3-47.1-15C1333.1,1678.2,1303.1,1671.5,1282.8,1676.1z"/>
	<text id="label230" bar:growlevel="0" transform="matrix(1 0 0 1 1810.9521 1642.5645)" class="st99 st100 st101">opt</text>
	<text id="label30" bar:growlevel="0" transform="matrix(1 0 0 1 1405.7061 1509.3867)" class="st102 st100 st101">.APTV</text>
	<text id="label31" bar:growlevel="0" transform="matrix(1 0 0 1 1700.8193 2075.5176)" class="st99 st100 st101">VS</text>
	<text id="label32" bar:growlevel="0" transform="matrix(1 0 0 1 1700.7285 2131.3164)" class="st99 st100 st101">AHiPM</text>
	<text id="label33" bar:growlevel="0" transform="matrix(1 0 0 1 1835.1865 2168.459)" class="st99 st100 st101">PMCo</text>
	<text id="label34" bar:growlevel="0" transform="matrix(1 0 0 1 1953.3584 2111.0078)" class="st99 st100 st101">PLCo</text>
	<text id="label35" bar:growlevel="0" transform="matrix(1 0 0 1 2078.7578 2073.3867)" class="st99 st100 st101">APir</text>
	<text id="label36" bar:growlevel="0" transform="matrix(1 0 0 1 1957.7998 1730.7871)" class="st99 st100 st101">Rad</text>
	<text id="label37" bar:growlevel="0" transform="matrix(1 0 0 1 1942.6182 1917.7188)" class="st102 st100 st101">.CA1</text>
	<text id="label143" bar:growlevel="0" transform="matrix(1 0 0 1 1311.5693 795.0273)" class="st99 st100 st101">cg</text>
	<text id="label140" bar:growlevel="0" transform="matrix(1 0 0 1 1409.1602 1413.6191)" class="st99 st100 st101">APT</text>
	<text id="label146" bar:growlevel="0" transform="matrix(1 0 0 1 2077.4072 1976.2773)" class="st99 st100 st101">BLP</text>
	<text id="label145" bar:growlevel="0" transform="matrix(1 0 0 1 1596.9326 1551.75)" class="st99 st100 st101">VPM</text>
	<text id="label144" bar:growlevel="0" transform="matrix(1 0 0 1 1765.9463 1699.498)" class="st99 st100 st101">LT</text>
	<text id="label149" bar:growlevel="0" transform="matrix(1 0 0 1 1527.4199 1124.4141)" class="st99 st100 st101">GrDG</text>
	<text id="label148" bar:growlevel="0" transform="matrix(1 0 0 1 1504.8584 1854.0859)" class="st99 st100 st101">SNCD</text>
	<text id="label8" bar:growlevel="0" transform="matrix(1 0 0 1 1169.0371 1717.2578)" class="st99 st100 st101">Dk</text>
	<text id="label9" bar:growlevel="0" transform="matrix(1 0 0 1 1299.0889 1741.2871)" class="st99 st100 st101">PR</text>
	<text id="label201" bar:growlevel="0" transform="matrix(1 0 0 1 1126.4131 2148.2266)" class="st99 st100 st101">ML</text>
	<text id="label0" bar:growlevel="0" transform="matrix(1 0 0 1 1132.8379 2075.5176)" class="st99 st100 st101">MM</text>
	<text id="label2" bar:growlevel="0" transform="matrix(1 0 0 1 1294.7383 2113.1094)" class="st99 st100 st101">LM</text>
	<text id="label3" bar:growlevel="0" transform="matrix(1 0 0 1 1332.7188 1941.8066)" class="st99 st100 st101">PBP</text>
	<text id="label4" bar:growlevel="0" transform="matrix(1 0 0 1 1239.8975 1934.5176)" class="st99 st100 st101">VTAR</text>
	<text id="label5" bar:growlevel="0" transform="matrix(1 0 0 1 1123.0879 2013.8672)" class="st99 st100 st101">SuMM</text>
	<text id="label6" bar:growlevel="0" transform="matrix(1 0 0 1 1123.0879 1974.209)" class="st99 st100 st101">sumx</text>
	<text id="Unlabeled-2413-1643" bar:growlevel="0" transform="matrix(1 0 0 1 1524.0273 1782.8535)" class="st99 st100 st101">grey</text>
	<text id="label85" bar:growlevel="0" transform="matrix(1 0 0 1 1120.9697 1084.6172)" class="st99 st100 st101">dhc</text>
	<text id="label81" bar:growlevel="0" transform="matrix(1 0 0 1 1222.4365 1298.4258)" class="st99 st100 st101">MPT</text>
	<text id="label80" bar:growlevel="0" transform="matrix(1 0 0 1 1300.7061 1270.2578)" class="st99 st100 st101">OPT</text>
	<text id="label83" bar:growlevel="0" transform="matrix(1 0 0 1 1117.5068 1239.8594)" class="st99 st100 st101">D3V</text>
	<text id="label88" bar:growlevel="0" transform="matrix(1 0 0 1 1400.7285 1796.6367)" class="st99 st100 st101">ml</text>
	<text id="label174" bar:growlevel="0" transform="matrix(1 0 0 1 1522.0791 1365.0273)" class="st99 st100 st101">PLi</text>
	<text id="label173" bar:growlevel="0" transform="matrix(1 0 0 1 1592.9453 2027.3301)" class="st99 st100 st101">GrDG</text>
	<text id="label196" bar:growlevel="0" transform="matrix(1 0 0 1 1562.6377 2033.8164)" class="st99 st100 st101">a</text>
	<text id="text3311" bar:growlevel="0" transform="matrix(1 0 0 1 1800.8418 1524.9375)" class="st99 st100 st103">VG-2</text>
	<text id="label13" bar:growlevel="0" transform="matrix(1 0 0 1 1154.1279 1637.7285)" class="st99 st100 st101">p1PAG</text>
	<text id="label14" bar:growlevel="0" transform="matrix(1 0 0 1 1176.3877 1548.0273)" class="st99 st100 st101">Lth</text>
	<text id="label15" bar:growlevel="0" transform="matrix(1 0 0 1 1514.7578 1916.7285)" class="st99 st100 st101">SNR</text>
	<text id="label169" bar:growlevel="0" transform="matrix(1 0 0 1 1325.5498 2057.7578)" class="st99 st100 st101">VTM</text>
	<text id="label168" bar:growlevel="0" transform="matrix(1 0 0 1 1138.9463 1112.1563)" class="st99 st100 st101">FC</text>
	<text id="label90" bar:growlevel="0" transform="matrix(1 0 0 1 1530.9883 2015.9688)" class="st99 st100 st101">cp</text>
	<text id="label91" bar:growlevel="0" transform="matrix(1 0 0 1 1564.4688 2098.498)" class="st99 st100 st101">hif</text>
	<text id="label162" bar:growlevel="0" transform="matrix(1 0 0 1 1118.8486 1422.5254)" class="st99 st100 st101">SCO</text>
	<text id="label165" bar:growlevel="0" transform="matrix(1 0 0 1 1764.874 1476.5039)" class="st99 st100 st101">IGL</text>
	<text id="label164" bar:growlevel="0" transform="matrix(1 0 0 1 1673.3389 1606.5273)" class="st99 st100 st101">MZMG</text>
	<text id="label167" bar:growlevel="0" transform="matrix(1 0 0 1 1441.4688 1204.4063)" class="st99 st100 st101">OT</text>
	<text id="label166" bar:growlevel="0" transform="matrix(1 0 0 1 1584.9619 884.1777)" class="st99 st100 st101">Py</text>
	<text id="Unlabeled-1787-968" bar:growlevel="0" transform="matrix(1 0 0 1 1132.8379 1134.9785)" class="st99 st100 st101">LMol</text>
	<text id="label42" bar:growlevel="0" transform="matrix(1 0 0 1 1572.5693 1458.1465)" class="st99 st100 st101">Po</text>
	<text id="label189" bar:growlevel="0" transform="matrix(1 0 0 1 1589.7871 851.3672)" class="st99 st100 st101">alv</text>
	<text id="label188" bar:growlevel="0" transform="matrix(1 0 0 1 1574.5176 1005.1758)" class="st99 st100 st101">hif</text>
	<text id="text3289" bar:growlevel="0" transform="matrix(1 0 0 1 1446.0449 1167.9121)" class="st99 st100 st101">vBrain</text>
	<text id="label69" bar:growlevel="0" transform="matrix(1 0 0 1 1280.1865 691.916)" class="st99 st100 st101">RSD</text>
	<text id="label68" bar:growlevel="0" transform="matrix(1 0 0 1 1406.8486 681.1172)" class="st99 st100 st101">V2MM</text>
	<text id="label67" bar:growlevel="0" transform="matrix(1 0 0 1 1564.2578 699.8965)" class="st99 st100 st101">V2ML</text>
	<text id="label63" bar:growlevel="0" transform="matrix(1 0 0 1 1930.4688 832.377)" class="st99 st100 st101">V2L</text>
	<text id="label62" bar:growlevel="0" transform="matrix(1 0 0 1 1785.1768 752.127)" class="st99 st100 st101">V1</text>
	<text id="label61" bar:growlevel="0" transform="matrix(1 0 0 1 2003.0371 887.9063)" class="st99 st100 st101">PtPD</text>
	<text id="label60" bar:growlevel="0" transform="matrix(1 0 0 1 2071.6768 945.1758)" class="st99 st100 st101">PtPR</text>
	<text id="label212" bar:growlevel="0" transform="matrix(1 0 0 1 1295.9072 2038.9473)" class="st99 st100 st101">mp</text>
	<text id="label78" bar:growlevel="0" transform="matrix(1 0 0 1 1589.9482 1103.9688)" class="st99 st100 st101">PoDG</text>
	<text id="label79" bar:growlevel="0" transform="matrix(1 0 0 1 1404.9561 1306.7969)" class="st102 st100 st101">.APTD</text>
	<text id="label74" bar:growlevel="0" transform="matrix(1 0 0 1 1561.501 949.2539)" class="st102 st100 st101">.Rad</text>
	<text id="label75" bar:growlevel="0" transform="matrix(1 0 0 1 1677.4785 965.7871)" class="st102 st100 st101">.CA1</text>
	<text id="label76" bar:growlevel="0" transform="matrix(1 0 0 1 1579.1377 987.209)" class="st99 st100 st101">LMol</text>
	<text id="label77" bar:growlevel="0" transform="matrix(1 0 0 1 1604.7549 1026.3789)" class="st99 st100 st101">MoDG</text>
	<text id="label70" bar:growlevel="0" transform="matrix(1 0 0 1 1155.4463 807.5078)" class="st99 st100 st101">RSGc</text>
	<text id="label71" bar:growlevel="0" transform="matrix(1 0 0 1 1131.1475 938.0664)" class="st99 st100 st101">RSGb</text>
	<text id="label72" bar:growlevel="0" transform="matrix(1 0 0 1 1118.8486 1021.0469)" class="st99 st100 st101">cc</text>
	<text id="label229" bar:growlevel="0" transform="matrix(1 0 0 1 1185.6865 1874.9688)" class="st99 st100 st101">mtg</text>
	<text id="label223" bar:growlevel="0" transform="matrix(1 0 0 1 1556.998 868.1094)" class="st99 st100 st101">Or</text>
	<text id="label48" bar:growlevel="0" transform="matrix(1 0 0 1 1783.4277 1500.0234)" class="st99 st100 st103">VG-3</text>
	<text id="label41" bar:growlevel="0" transform="matrix(1 0 0 1 2225.5176 1704.6582)" class="st99 st100 st101">PRh</text>
	<text id="label40" bar:growlevel="0" transform="matrix(1 0 0 1 2201.7871 1792.0469)" class="st99 st100 st101">DLEnt</text>
	<text id="label43" bar:growlevel="0" transform="matrix(1 0 0 1 1584.3584 1333.4063)" class="st99 st100 st101">LPLC</text>
	<text id="label45" bar:growlevel="0" transform="matrix(1 0 0 1 1859.7197 1612.0059)" class="st99 st100 st101">Or</text>
	<text id="label44" bar:growlevel="0" transform="matrix(1 0 0 1 1719.2061 1340.1855)" class="st99 st100 st101">DLG</text>
	<text id="label46" bar:growlevel="0" transform="matrix(1 0 0 1 1963.498 1431.0566)" class="st102 st100 st101">.CA2</text>
	<text id="label205" bar:growlevel="0" transform="matrix(1 0 0 1 1221.8096 1809.1758)" class="st99 st100 st101">fr</text>
	<text id="label56" bar:growlevel="0" transform="matrix(1 0 0 1 1524.6865 1229.4883)" class="st99 st100 st101">LPMC</text>
	<text id="label57" bar:growlevel="0" transform="matrix(1 0 0 1 2101.2285 1474.9473)" class="st99 st100 st101">LV</text>
	<text id="label55" bar:growlevel="0" transform="matrix(1 0 0 1 2259.748 1396.5859)" class="st99 st100 st101">AuV</text>
	<text id="label52" bar:growlevel="0" transform="matrix(1 0 0 1 2241.8389 1612.8262)" class="st99 st100 st101">Ect</text>
	<text id="label53" bar:growlevel="0" transform="matrix(1 0 0 1 2249.6963 1511.4883)" class="st99 st100 st101">TeA</text>
	<text id="label51" bar:growlevel="0" transform="matrix(1 0 0 1 2083.1084 1563.7188)" class="st102 st100 st101">.Or</text>
	<text id="label58" bar:growlevel="0" transform="matrix(1 0 0 1 2228.5498 1216.9453)" class="st99 st100 st101">Au1</text>
	<text id="label59" bar:growlevel="0" transform="matrix(1 0 0 1 2134.6475 1028.9355)" class="st99 st100 st101">AuD</text>
	<text id="text3305" bar:growlevel="0" transform="matrix(1 0 0 1 2078.667 1651.4688)" class="st102 st100 st101">.Py</text>
	<text id="Unlabeled-539-2043" bar:growlevel="0" transform="matrix(1 0 0 1 2030.1396 2155.7793)" class="st99 st100 st101">OlfCx-1</text>
	<text id="label92" bar:growlevel="0" transform="matrix(1 0 0 1 1678.0498 1456.1367)" class="st99 st100 st101">str</text>
	<text id="label93" bar:growlevel="0" transform="matrix(1 0 0 1 2058.2061 2207.127)" class="st102 st100 st101">.af</text>
	<text id="text3286" bar:growlevel="0" transform="matrix(1 0 0 1 2289.1064 1942.2305)" class="st99 st100 st101">Pir-2</text>
	<text id="label208" bar:growlevel="0" transform="matrix(1 0 0 1 1330.7383 1741.2871)" class="st99 st100 st101">scp</text>
	<text id="text3283" bar:growlevel="0" transform="matrix(1 0 0 1 2307.8447 1986.5195)" class="st99 st100 st101">Pir-1</text>
	<text id="text3281" bar:growlevel="0" transform="matrix(1 0 0 1 2217.0361 1913.5586)" class="st99 st100 st101">Pir-3</text>
	<text id="label23" bar:growlevel="0" transform="matrix(1 0 0 1 1461.2061 1636.8594)" class="st99 st100 st101">REth</text>
	<text id="label22" bar:growlevel="0" transform="matrix(1 0 0 1 1249.2871 1535.5469)" class="st99 st100 st101">RPF</text>
	<text id="label21" bar:growlevel="0" transform="matrix(1 0 0 1 1126.4131 1393.3164)" class="st99 st100 st101">pc</text>
	<text id="label27" bar:growlevel="0" transform="matrix(1 0 0 1 1604.6963 1699.498)" class="st99 st100 st101">ZIC</text>
	<text id="label26" bar:growlevel="0" transform="matrix(1 0 0 1 1613.0693 1774.709)" class="st99 st100 st101">SNL</text>
	<text id="label25" bar:growlevel="0" transform="matrix(1 0 0 1 1584.1182 1620.1465)" class="st99 st100 st101">PIL</text>
	<text id="label24" bar:growlevel="0" transform="matrix(1 0 0 1 1448.8486 1680.7188)" class="st99 st100 st101">SPFPC</text>
	<text id="label29" bar:growlevel="0" transform="matrix(1 0 0 1 1500.9561 1576.2578)" class="st99 st100 st101">Eth</text>
	<text id="label28" bar:growlevel="0" transform="matrix(1 0 0 1 1644.6807 1565.3301)" class="st99 st100 st101">MGV</text>
	<text id="text3309" bar:growlevel="0" transform="matrix(1 0 0 1 1815.042 1557.1953)" class="st99 st100 st103">VG-1</text>
	<text id="label150" bar:growlevel="0" transform="matrix(1 0 0 1 1674.3877 1482.2383)" class="st99 st100 st101">MGD</text>
	<text id="label151" bar:growlevel="0" transform="matrix(1 0 0 1 1931.3389 1539.6855)" class="st99 st100 st101">SLu</text>
	<text id="label153" bar:growlevel="0" transform="matrix(1 0 0 1 1875.4551 1332.4629)" class="st99 st100 st101">Py</text>
	<text id="label154" bar:growlevel="0" transform="matrix(1 0 0 1 1657.6768 1249.3164)" class="st99 st100 st101">IMA</text>
	<text id="label155" bar:growlevel="0" transform="matrix(1 0 0 1 1134.417 971.4883)" class="st99 st100 st101">IG</text>
	<text id="label156" bar:growlevel="0" transform="matrix(1 0 0 1 1869.7188 1373.9355)" class="st102 st100 st101">.CA3</text>
	<text id="label157" bar:growlevel="0" transform="matrix(1 0 0 1 1116.1768 1470.748)" class="st99 st100 st101">3V</text>
	<text id="label158" bar:growlevel="0" transform="matrix(1 0 0 1 1259.0576 1444.5293)" class="st99 st100 st101">MCPC</text>
	<text id="label159" bar:growlevel="0" transform="matrix(1 0 0 1 1202.2188 1371.1172)" class="st99 st100 st101">PCom</text>
	<text id="label163" bar:growlevel="0" transform="matrix(1 0 0 1 1488.1475 1696.377)" class="st99 st100 st101">VLi</text>
</g>
<text id="Unlabeled-2413-1643_1_" bar:growlevel="0" transform="matrix(1 0 0 1 1287.0273 1383.8535)" class="st99 st100 st101">grey</text>
</svg>
