<?xml version="1.0" encoding="utf-8"?>
<!-- Generator: Adobe Illustrator 24.1.1, SVG Export Plug-In . SVG Version: 6.00 Build 0)  -->
<svg version="1.1"
	 id="body" inkscape:version="0.47pre4 r22446" sodipodi:docname="186_pretrace_pretrace_v1.svg" xmlns:bar="http://www.3dbar.org" xmlns:cc="http://creativecommons.org/ns#" xmlns:dc="http://purl.org/dc/elements/1.1/" xmlns:inkscape="http://www.inkscape.org/namespaces/inkscape" xmlns:rdf="http://www.w3.org/1999/02/22-rdf-syntax-ns#" xmlns:sodipodi="http://sodipodi.sourceforge.net/DTD/sodipodi-0.dtd" xmlns:svg="http://www.w3.org/2000/svg"
	 xmlns="http://www.w3.org/2000/svg" xmlns:xlink="http://www.w3.org/1999/xlink" x="0px" y="0px" viewBox="0 0 3024 3024"
	 style="enable-background:new 0 0 3024 3024;" xml:space="preserve">
<style type="text/css">
	.st0{fill:#FF000C;}
	.st1{fill:#8553C7;}
	.st2{fill:#00B4EF;}
	.st3{fill:#B2FFC1;}
	.st4{fill:#23F460;}
	.st5{fill:#8EE9A9;}
	.st6{fill:#AD8ED8;}
	.st7{fill:#6C0BF2;}
	.st8{fill:#955FE1;}
	.st9{fill:#9D82C3;}
	.st10{fill:#B2FFE4;}
	.st11{fill:#2CFFEA;}
	.st12{fill:#59FFF2;}
	.st13{fill:#2CEFDD;}
	.st14{fill:#00FFF3;}
	.st15{fill:#59DFD0;}
	.st16{fill:#85EFB9;}
	.st17{fill:#00CFBB;}
	.st18{fill:#7FBACF;}
	.st19{fill:#00D7F2;}
	.st20{fill:#6100FA;}
	.st21{fill:#33C2F7;}
	.st22{fill:#C49AFA;}
	.st23{fill:#FFB2BA;}
	.st24{fill:#B2FFCC;}
	.st25{fill:#59FF90;}
	.st26{fill:#85FFC1;}
	.st27{fill:#00EF7A;}
	.st28{fill:#00FFA3;}
	.st29{fill:#6B3BC3;}
	.st30{fill:#00FFAF;}
	.st31{fill:#FF59A4;}
	.st32{fill:#E359E9;}
	.st33{fill:#85DFD7;}
	.st34{fill:#8EDFA5;}
	.st35{fill:#4CA6C7;}
	.st36{fill:#47FF7C;}
	.st37{fill:#23DF5A;}
	.st38{fill:#59CB88;}
	.st39{fill:#00F448;}
	.st40{fill:#00FF34;}
	.st41{fill:#B2FFC2;}
	.st42{fill:#98E4FF;}
	.st43{fill:#650BE1;}
	.st44{fill:#B88EF2;}
	.st45{fill:#4CBEE7;}
	.st46{fill:#00EFD6;}
	.st47{fill:#4B0BE9;}
	.st48{fill:#B2FFBB;}
	.st49{fill:#00FF6B;}
	.st50{fill:#B2FFE7;}
	.st51{fill:#00CF69;}
	.st52{fill:#85FFF5;}
	.st53{fill:#2CDFD0;}
	.st54{fill:#5523C7;}
	.st55{fill:#66B0C7;}
	.st56{fill:#59FFCB;}
	.st57{fill:#00FFD5;}
	.st58{fill:#00C2FF;}
	.st59{fill:#B2FFE5;}
	.st60{fill:#00EFC8;}
	.st61{fill:#FF5974;}
	.st62{fill:#BA9AE9;}
	.st63{fill:#7923FF;}
	.st64{fill:#9F76E9;}
	.st65{fill:#8600FF;}
	.st66{fill:#4CC7EF;}
	.st67{fill:#4CAECF;}
	.st68{fill:#232323;enable-background:new    ;}
	.st69{font-family:'TimesNewRomanPSMT';}
	.st70{font-size:27px;}
</style>
<sodipodi:namedview  bordercolor="#666666" borderopacity="1" gridtolerance="10" guidetolerance="10" id="namedview295" inkscape:current-layer="content" inkscape:cx="498.42624" inkscape:cy="400.29616" inkscape:object-paths="true" inkscape:pageopacity="0" inkscape:pageshadow="2" inkscape:window-height="1026" inkscape:window-maximized="1" inkscape:window-width="1678" inkscape:window-x="0" inkscape:window-y="0" inkscape:zoom="3.5574046" objecttolerance="10" pagecolor="#ffffff" showgrid="false">
	</sodipodi:namedview>
<desc  id="desc5">This was produced by version 4.2 of GNU libplot, a free library for exporting 2-D vector graphics.</desc>
<defs>
	<rdf:RDF>
		<cc:Work  rdf:about="">
			<dc:format>image/svg+xml</dc:format>
			<dc:type  rdf:resource="http://purl.org/dc/dcmitype/StillImage"></dc:type>
		</cc:Work>
	</rdf:RDF>
	<bar:data  content="-13.2" name="coronalcoord"></bar:data>
	
		<bar:data  content="{&apos;ReferenceHeight&apos;: 900, &apos;ReferenceWidth&apos;: 1200, &apos;imageSize&apos;: (1200, 900)}" name="rendererConf">
		</bar:data>
	
		<bar:data  content="{&apos;DumpEachStepSVG&apos;: False, &apos;DumpEachStepPNG&apos;: False, &apos;GrowDefaultBoundaryColor&apos;: 200, &apos;CacheLevel&apos;: 5, &apos;NewPathIdTemplate&apos;: &apos;structure%d_%s_%s&apos;, &apos;PoTraceConf&apos;: {&apos;potrace_accuracy_parameter&apos;: &apos;0.001&apos;, &apos;potrace_width_string&apos;: &apos;1200pt&apos;, &apos;potrace_svg_resolution_string&apos;: &apos;300x300&apos;, &apos;potrace_height_string&apos;: &apos;900pt&apos;}, &apos;DetectUnlabelled&apos;: True, &apos;DumpVBrain&apos;: False, &apos;DumpWrongSeed&apos;: True, &apos;DumpDirectory&apos;: &apos;.&apos;, &apos;MinFiterTimesApplication&apos;: 3, &apos;RegionAlreadyTraced&apos;: 100, &apos;UnlabelledTreshold&apos;: 500}" name="tracingConf">
		</bar:data>
	<bar:data  content="0.0176211454,-9.5150660793,0.0176211454,-1.5355884426" name="transformationmatrix"></bar:data>
</defs>
<g id="content">
	<path class="st0" d="M2140.1,1276.1c7.8-2.4,13-32.4,10.1-58.1c-5.1-44.2-24.8-88.7-58-131.2c-54.9-70.3-130-125.5-227-167.1
		c-47.1-20.2-78-29.6-122.2-37.3c-54.8-9.5-128.6-11.8-174.8-5.5c-22.6,3.1-57.2,5.4-82.4,5.4c-10.3,0-12.5-0.2-12.5-1.4
		c0-0.7,0.7-1.7,1.7-2.2c2.6-1.4,4.9-6.9,4-10.3c-3.1-14.8-26.4-36-73.7-67.4c-42.8-28.4-76.2-39.8-126.2-43
		c-7.8-0.5-20.2-0.7-32.7-0.7v1413.8l0.1,0l11.3,3.2c6.1,1.7,17.2,4.5,24.4,6.1c7.3,1.6,13.4,3.4,13.6,4c0.2,0.5-0.6,2.3-1.7,3.7
		c-3.8,5.2-1.5,12,4.9,14.3c2.7,1.1,3.5,1.1,6.3-0.3c1.7-0.8,3.8-2.8,4.7-4.4c1.5-2.9,1.5-4.2-0.1-9.4c-0.6-2.2-0.5-2.2,3.8-1.6
		c26,3.3,30.1,3.6,50.3,3.6c40.5,0.1,65.6-5.4,96.8-21.1c18.4-9.4,21.8-10.7,64.3-24.8c34.6-11.5,53.9-18.8,75.6-28.5
		c17.3-7.7,51.6-25,70.7-35.6c31.4-17.5,79.7-47.3,98.1-60.6c81-58.4,128.5-138.1,136.9-229.4c1.4-14.5,0.6-44.3-1.3-58.1
		c-5.2-35.4-18.5-61.5-48.6-95c-8-8.9-25.1-24.6-37.2-34.1c-5.1-4.1-9.3-7.7-9.3-8.3c0-0.8,5.8-1.3,20.1-1.6
		c29.3-0.8,45.3-3.2,57.1-8.7c5.8-2.7,9.3-6.6,9.3-10.6c0-2.5,0.4-2.5,8.3,0.6c14.8,5.9,19.6,6.8,36.3,6.8c14,0,15.9-0.2,23.4-2.5
		c33.1-10.1,60.7-32.4,98-79.1c29.2-36.5,38.7-58.8,31.3-73.3c-1-2-2.5-4.1-3.2-4.7c-2.6-2.2-1.7-4.2,2.3-5.4
		c6.2-1.9,16.8-7,23.4-11.4c16.9-11.3,27.1-25.5,32.4-45.4c1.7-6.4,2.1-10,2.1-21.6c0.1-16.6-2-28.6-7.7-45
		C2138,1279.2,2137.7,1276.9,2140.1,1276.1z"/>
	<path id="structure101_label103_vsc" bar:growlevel="0" bar:type="" class="st1" d="M1708.6,1547.5c1.4,8.7,7.6,16.7,18.5,24.2
		c3,2,17,9.5,31.2,16.6c14.2,7.2,31.4,16.4,38.2,20.6c35.5,21.9,58.5,45.2,71.5,72.4c19.2,40,23.4,100.2,10.7,151.1
		c-8.1,32.2-27.4,67.1-54,97.7c-23.8,27.4-52,43.7-72.2,41.8l-5.7-0.4l-2.6,3.8c-4,5.7-11.5,12.7-17.6,16.4
		c-12.2,7.3-30.8,10.4-43.9,7.3c-3.4-0.8-6.5-1.4-6.8-1.4c-0.4,0-1,2.4-1.3,5.3c-1.5,17.4-30.5,52.6-52.2,63.7
		c-10.1,5-18.4,6.3-23.8,3.5c-10.9-5.6-26.6-40.1-35.7-78.1c-1.3-5.3-3.2-11.3-4.5-13.5c-1.9-3.4-5.4-18.6-7.2-31.3
		c-0.9-6.1-8.7-28.8-13.9-40.5c-20.4-45.9-58.8-99.1-105.2-146.2c-22.4-22.8-49.2-46.5-52.4-46.4c-0.7,0.1-3.5,3.4-6.2,7.5
		c-2.7,4-8.5,11.1-12.8,15.6c-4.4,4.5-7.9,8.8-7.9,9.5c0,0.7-1,3.4-2.3,5.9c-2,4.3-2.1,5.1-1.2,9.6c2.9,13.6-7.4,35.3-19.4,41
		c-5.7,2.7-11,3.1-18.6,1.5c-8.7-1.8-17.8-6.3-25.4-12.6c-8.5-7-9-6.8-6.6,2.2c0.7,2.7,3.6,28.3,6.3,56.7
		c5.2,53.5,10.8,108.6,11.8,114.5c0.3,1.9,0.9,3.4,1.3,3.4c0.4,0,3.7-1.6,7.4-3.5c8.8-4.9,15.4-6.4,26.5-6.4
		c38.3,0,68.9,17.4,83.6,47.3c9.6,19.6,10.9,32.8,4,38.7c-3.4,2.8-6.5,2.9-21.1,0.4c-5.9-0.9-27.8-4.1-48.6-7.1
		c-20.8-3.1-39.2-5.7-40.7-5.9c-2.6-0.5-3-0.3-3,1.5c0,1.2,0.7,5.1,1.6,8.8c1.3,5,2.3,7.5,4.4,9.5c2,2,3.1,4.2,3.9,7.9
		c2.3,11.4-1.5,16.9-12,16.8c-6.4,0-19.4-2.7-23.9-4.9c-3.7-1.8-4-1.8-14.4-0.5l-10.5,1.3l0.1,3.1c0,1.7,0.7,7.4,1.5,12.6
		c0.9,5.2,2.1,18.1,2.6,28.6l1.1,19.2l3.2-0.5c1.7-0.4,3.3-0.7,3.5-1c0.2-0.2-0.5-2.3-1.7-4.6c-2.3-5-2.3-12.2,0.4-17.6
		c4-8.2,13.9-16.1,21.9-17.4c11.2-1.7,29,6.7,57.3,27l12.9,9.3l10.3,1.5c54.8,8.2,72.4,11.8,89.7,18.4c9.8,3.7,12.8,5.7,12.8,8.4
		c0,2.3,1.3,2.1,8.9-1.1c3.6-1.4,15.9-5.8,27.4-9.5c63.5-20.8,90-31.5,133.4-53.9c39.2-20.3,94.4-53.1,124.4-74
		c64.4-44.9,110.2-106.8,129.3-175.1c7.7-27.4,10.7-49.1,10.8-78.1c0-42.5-6.3-68.2-23.6-96.1c-19.4-31.1-58.6-68.4-93.8-89.1
		c-13.6-8.1-73.2-37.7-77.4-38.5l-3-0.6L1708.6,1547.5z M1498.8,2023.5c22.2,5.8,48.7,23.1,51.9,33.9c1,3.3,0.9,4.1-0.6,6.8
		c-6.7,11.4-28.5,8.9-51.8-6c-9.4-6-14.9-10.9-19.4-16.9C1467.9,2026.2,1477.1,2017.9,1498.8,2023.5z M1335.6,2043.7
		c15.7,4.1,60,16.8,83.3,23.9c57.9,17.4,92.3,27.4,108.1,31.1c17.9,4.3,25.9,7.5,26.9,10.6c0.8,2.6-4.2,6.9-13.7,11.5
		c-14,6.8-30,9.1-39.9,5.8c-2.5-0.8-12.2-5.6-21.4-10.5c-25.7-13.7-35.4-17.8-62.8-26.7c-23.3-7.7-38.2-11.3-59.2-14.6
		c-19.1-3-23.4-4-28.7-7.6c-8.5-5.6-10-19.9-2.5-23.6C1328.6,2042.2,1329.7,2042.2,1335.6,2043.7z M1336.5,2084.6
		c6.2,2.2,21.2,8.4,33.3,13.7c24.5,10.8,63.9,26.7,68.3,27.5c5,1,3.3-2.1-3.6-6.5c-10-6.5-20.8-11-35-14.8
		c-17.7-4.7-30.9-10.7-33.4-15.6c-2-3.6,4.3-4.3,18.5-2c16.7,2.7,29.7,7.4,54.9,20c18.7,9.5,25.6,13.8,31.8,20.3
		c11,11.8,10.9,20.4-0.4,20.4c-16.7,0-88.8-23.2-117.5-38c-16.2-8.3-34.9-21.8-36.4-26.1c-0.8-2.6,1.7-4.4,5.4-3.7
		C1324,2080.2,1330.3,2082.3,1336.5,2084.6z"/>
	<path id="structure102_label106_C2" bar:growlevel="0" bar:type="" class="st2" d="M1372.5,1607.7c-6.2,1.4-19.6,4.2-29.9,6.3
		c-10.4,2.2-18.7,4.2-18.7,4.8c0,2.1-9.2,19.6-13,24.8c-3.5,4.8-4.1,6.2-4.1,9.7c0,4,0.1,4.1,2.5,3.6c9-2.2,11-2.3,19.2-1.4
		c32.9,3.6,74.4,18.1,87.1,30.3c2.7,2.6,5.2,4.8,5.6,4.8c0.5,0,5.3-10.4,5.3-11.6c0-0.5-2.1-1-4.6-1.3c-17.5-2.1-23.1-20.8-9.1-30.6
		c3.8-2.6,4.9-2.9,10.5-2.8c3.5,0,7.1,0.3,8.1,0.7c1.7,0.6,1.8,0.3,1.8-8.9c0-9.5,0-9.5-2.3-10c-13.3-2.8-29.6-9.9-39-17.1
		c-2.8-2.2-5.9-3.9-6.8-3.9C1384.5,1605.2,1378.7,1606.4,1372.5,1607.7z"/>
	<path class="st3" d="M1402.7,800.5c-35-23.2-61.7-33.6-101.3-39.3c-8.2-1.2-18.8-1.5-50.4-1.7c-1.5,0-3,0-4.5,0v35.7
		c4.6,0.1,13.8,0.8,21.6,1.7c48.4,5.6,93.9,15.8,113.6,25.7c14.2,7.1,17.7,15.1,8.6,19.3c-5,2.3-17.2,2.3-31.5,0.4
		c-11.4-1.5-55.2-10-84.4-16.3c-13-2.8-20.4-4.2-27.9-4.2v44c61.4,0,87.5,1.7,117,7.6c30.9,6.2,65,9.9,91.6,9.9
		c9.1,0,16.6-2.3,20.3-6.3C1486.4,864.9,1463.2,840.5,1402.7,800.5z"/>
	<path class="st4" d="M2092.1,1313c-5.8-15.1-18.9-27.3-48.7-44.8c-25-14.8-45.4-27.4-54.5-33.8c-11-7.7-25.1-21.7-27.7-27.4
		c-4-8.6-1.4-17.4,6.1-21.2c8.3-4.1,17.8-2.3,47.4,9.7c27.2,11,34.1,12.6,38.5,8.7c6.2-5.3,4.1-20.4-6.4-47.3
		c-6.3-15.8-29.6-67.9-35.1-78.4c-11.9-22.5-28-42.8-43.6-54.8c-4.2-3.3-13.9-11-21.4-17.1c-68.2-54.9-123-83-179.4-91.9
		c-55.2-8.8-123-4-190.3,13.4c-35,9.1-44,9.5-68.4,3.2c-19.4-5-36.9-8.5-47.8-9.4c-4.4-0.4-16.7-0.5-27.4-0.1
		c-12.6,0.4-99.9,0.6-187.2,0.6v67.4c52.9-0.3,156.3-5.9,198.9-11.1c17.2-2.1,37-2.6,47.3-1.3c11.3,1.4,18.4,3.6,25.2,7.7l5.4,3.2
		l10.8-1c5.9-0.5,21-2.1,33.3-3.2c12.4-1.2,33-2.8,45.9-3.6c12.9-0.8,36.5-2.4,52.7-3.7c16.1-1.3,39.6-2.5,52.2-2.8
		c21.5-0.4,23.9-0.3,39.1,1.9c26.5,4,38.2,7.1,47.7,13c3.6,2.2,13,10.9,13,12c0,0.3-3.3-0.2-7.4-1.2c-22-5.1-52.9-9.3-80.5-10.7
		c-47.6-2.6-71.7,4.2-80.9,23c-2.3,4.6-2.6,6.6-3,15c-1,24,8.8,43.9,34,69.2c18.9,18.9,38.5,33.2,80.1,58.2
		c62.3,37.5,102.7,59,158,84c31.9,14.5,38.1,17.6,40.1,21.1c2.1,3.4,2.1,3.6,0.3,5.4c-3.5,3.6-8.1,1.9-56.1-20.8
		c-45.9-21.7-82.2-40.5-116.6-60.7c-72.4-42.3-104.8-63.7-119.3-78.8c-9.6-10-21.5-26.3-45.8-62.8c-16.9-25.3-21.3-30.4-30.4-34.8
		c-5-2.5-7.1-3-14.1-3.2c-6.8-0.4-9-0.1-12.4,1.4c-6.1,2.7-7.3,5-6.8,13.7c0.8,13.6,6,21.5,54.6,83.7c25.7,32.9,55.9,70.6,72.5,90.4
		c17.8,21.3,40.1,44.5,112.6,116.6c55.7,55.4,61.6,60.9,78.7,74.5c29,22.9,39.2,31.3,42.7,35.2c11.1,12.2-8.4,5.8-34.9-11.7
		c-32.4-21.3-48.3-35.4-117.5-103.9c-73.8-73.3-125.7-127.8-147.3-154.8c-28.3-35.2-52.6-72.6-69.7-106.6
		c-5-10.2-11.1-21.3-13.3-24.8c-5.7-8.6-15.7-18.3-22.4-21.9c-10.6-5.6-14.8-6.7-28.6-7.1c-11.8-0.4-14.3-0.2-37.8,3.7
		c-94.7,15.4-153.5,22-200.3,22v27.9c2.7,0,5.4-0.1,8.5-0.2c10.9-0.3,52.7-3,92.7-5.9c96-7.2,108.5-7.8,115.8-6.5
		c20,4,44.2,21.7,75.7,55.4c6.8,7.4,21.1,23.2,31.5,35.1c56.4,64.4,109.3,121,168.9,180.6c21.1,21.1,46.8,46.2,57.2,55.7
		c25.6,23.6,64.3,62.5,72.5,72.9c13.5,17,20.1,28.1,25.7,43.6c6.6,17.7,10.3,23.9,20.5,34.3c7.6,7.6,10.3,9.7,16.7,12.9
		c8.5,4.1,18.5,6.7,23.4,5.9c7.6-1.4,20.7-11.3,37.8-28.8c4-4.1,7.1-6,16-10.3c13.9-6.6,20.2-11,30.1-21.2c9.3-9.7,11-12.6,10.3-18
		c-0.8-7.6-8.9-14.7-26.1-23.1c-12.6-6.1-25.8-11.4-61.8-24.6c-15.6-5.7-33.2-12.6-39.2-15.2c-38.2-17.2-88.7-52.6-128.3-90
		c-36.3-34.3-71.1-81.1-80-107.6c-2.8-8.2-2.2-14.3,1.7-18.2c2.7-2.8,3.1-2.9,9.8-2.8c14,0.2,26.7,6.5,83.9,41.3
		c26.5,16.1,40.1,23.8,96.8,54.4c69.4,37.5,79.8,43.7,105.8,61.7c21.2,14.8,32.4,21.6,41.8,25.5c10.6,4.4,21.1,5.2,27.1,2.1
		c3.5-1.9,8.2-8,10.3-13.3C2094.4,1331.1,2094.6,1319.5,2092.1,1313z M1927.8,1176.2c-1.5,1.4-2.9,1.5-8.7,1.1
		c-13.3-0.9-36.8-9.4-72.7-26.3c-22.3-10.5-28.3-12.7-45.1-16.6c-19.9-4.6-30.3-8.9-44.6-18.6c-38.1-25.9-60.3-62.7-50.3-83.4
		c5.8-11.9,24.2-17.5,41.4-12.6c11.2,3.1,22.9,10.6,42.7,27.2c34.1,28.7,39.9,33.4,55.1,44.9c47.4,35.7,73.8,59.7,81.4,74
		C1930.1,1172,1930.2,1173.9,1927.8,1176.2z"/>
	<path class="st5" d="M1841.9,1541.3c-0.9-5.2-5.3-13.1-15-27.2c-32.9-47.5-66.6-82.4-95.5-99.2c-61.6-35.6-122.6-94.1-203.2-194.7
		c-12.2-15.3-23.3-29.9-35.9-47.3c-7.8-10.8-20.3-23.9-28.8-30.1c-7.2-5.3-17.3-10.4-25.7-13.1c-12.5-4-42.1-3.6-118.8,1.5
		c-24.8,1.7-49,2.5-72.5,2.5v24.4c1.5,0,3,0,4.5,0c97.2,0.1,110.5,0.3,120.1,1.6c41.4,5.8,63.6,14.8,84.6,33.9
		c8.6,7.8,26.3,28.1,64.4,73.7c73,87.3,93.2,108.8,142.2,151c14,12,39.7,32.8,49.7,40.1c3.3,2.4,5.9,4.6,5.8,4.8
		c-0.5,0.5-19.8-6.8-31.9-11.9c-14.8-6.4-35.7-17.5-47.5-25.2c-8.8-5.8-13.6-9.9-26.6-22.9c-21.6-21.7-54.7-58.8-98.5-110.3
		c-20.6-24.2-35-39.6-48.8-52c-37-33.5-68.8-52.1-97-56.8c-14.9-2.5-42.7-3.2-121-3.2v34.6c43.4-0.1,84.8,3.4,117.9,10
		c32.3,6.5,62.4,16.9,83,28.8c32.7,18.7,45.5,32.3,106.2,113.3c28.3,37.6,46.1,60.5,54.3,69.6c5.5,6,17.3,16.1,28.7,24.4
		c37.1,26.8,108.5,62.3,167.1,83c16,5.6,21.7,6.7,28.9,5.2C1840,1548.6,1842.8,1546,1841.9,1541.3z"/>
	<path class="st6" d="M1545.4,1440.3c-3.1,0-12.6-5.4-22.9-13c-26.7-19.5-33.6-22.7-51-23.7c-15.2-0.8-36.1,1.9-71.5,9.3
		c-33.9,7-51.1,7.9-152.6,8c-0.3,0-0.6,0-0.9,0v47.3c52.7,0,85-3,132.3-12.1c11.2-2.2,26.6-4.6,34.2-5.4
		c34.6-3.5,95.9-2.3,144.3,2.8c4.2,0.4,5.1,0.4,5.1-0.7C1562.4,1451.1,1547.6,1440.3,1545.4,1440.3z"/>
	<path class="st7" d="M1892.7,1568.1c-1-1.3-1.8-3-1.8-3.9c0-2.2-16.3-34.6-24.3-48.3c-35.6-61.3-79.3-110.2-143.6-160.6
		c-37.2-29.1-76.9-72.9-158.8-174.7c-30-37.3-36.5-44.7-50-58c-20.5-20-36.2-29.5-54.1-32.9c-9.2-1.7-15.9-1.6-59.4,1
		c-89.7,5.4-126.2,7.3-154.2,7.4v35.2c23.1,0,46.8-1.6,97.2-4.9c15.2-1,35.5-1.5,56.3-1.6c31.8,0,32.5,0,38.3,2.1
		c15.7,5.7,26.2,12.6,39.1,25.7c5.5,5.5,12.3,13.4,15.3,17.6c24,33.6,62,80.5,98.4,121.6c41.7,47.3,97.6,95.7,134.3,116.6
		c32.8,18.6,63.5,49.1,97.4,96.6c21.8,30.6,24.7,38.5,15.6,42.6c-9.7,4.3-15.8,3.4-41.9-6.1c-27.4-10.1-51.1-20.3-83.3-36.3
		c-51.9-25.7-84.5-46.8-104.4-67.6c-9.9-10.3-20.1-23.2-56.7-71.9c-57.6-76.5-70.7-91-96.7-107.1c-37.1-23-83.7-35.7-152.6-41.6
		c-10.4-0.9-33.1-1.3-56.3-1.2v60.4c81.2,0,124,1.5,167.8,5.8c31.1,3.2,41.3,6,53.8,15.3c8.1,6,13.6,13.4,22.3,30.1
		c2.6,4.9,10,17.7,16.5,28.4c11.3,18.5,14.1,24.3,32.9,65.3l8.2,18l12.9,9.5c25.9,19.4,41.7,36.9,47,52.3l1.6,4.9l9.1,0.5
		c15.7,0.9,27.7,5.1,75.3,26.7c46.5,21.1,82.9,39.4,101.4,51l9.4,5.8h20c36.5-0.1,58.3-3.8,66.8-11.2c2.6-2.3,3.1-3.3,3.1-6.5
		C1894.5,1571.8,1893.8,1569.5,1892.7,1568.1z"/>
	<path class="st8" d="M2137,1280c-1.8-3.4-1.6-4.3,0.9-4.3c4.1,0,7.7-6.8,10.5-19.3c2-9.1,1.5-35.6-0.9-49.3
		c-10.2-58.2-41.6-111.1-99.6-168c-54.8-53.7-124.2-96.3-212.8-130.5c-58.7-22.7-124.9-33.7-203.4-33.6c-31.6,0-45.5,0.7-68,3.9
		c-29.4,4-76.4,5.9-114.8,4.5c-35.3-1.2-59.8-3.9-82.8-9c-23.3-5.2-56.3-7.7-107.6-8.4c-4,0-8.2-0.1-12.2-0.1v55.7
		c67,0,143.6-0.2,170.1-0.4l48.1-0.4l12.6,2.4c6.9,1.4,20.7,4.4,30.6,6.8c25.8,6.5,34.2,6.1,67-2.3c48.8-12.5,91.4-18.4,135.5-18.4
		c69.8,0,120.4,15.9,184.8,58.3c26.2,17.3,75.6,55.8,87.4,68.2c10.6,11.2,20.3,24.7,29.3,40.9c5.1,9.4,31.4,68.1,37.5,84
		c13.3,34.7,11,49.6-7.1,45.8c-2.8-0.5-14.6-4.9-26.3-9.5c-24.8-10-30.5-11.6-39.9-11.7c-5.7-0.1-7.4,0.3-9.5,1.8
		c-12.2,9.1-7,23.7,14.5,40.3c11,8.5,21.8,15.5,49,31.9c13.7,8.1,28.3,17.2,32.5,20.1c22.8,15.6,33.4,31.6,32.1,48.2
		c-0.8,10.8-6.4,21.1-13.3,24.8c-8.5,4.3-17.6,3-33.7-4.9c-10.5-5.2-15.8-8.6-38.7-24.6c-22.5-15.7-35.4-23.1-107.1-61.9
		c-53.3-28.8-66.7-36.4-96.7-54.7c-33.8-20.5-39.8-24-51.8-29.9c-14.2-6.8-20.4-8.8-28.2-8.9c-6.2-0.1-6.8,0.1-8.7,2.4
		c-3.1,3.5-3.6,7.8-1.9,14.8c5.3,22,40.5,71.1,74.6,104.3c34.8,33.8,77,65.4,113.1,84.8c16.5,8.8,27.6,13.7,54.5,23.5
		c59.8,21.9,78.3,30.4,88.3,40.7c9.2,9.4,7.6,16.1-7.3,30.9c-9,8.9-18.8,15.5-29.7,20c-7.8,3.2-8.7,3.9-21.7,16.5
		c-25.6,24.8-32,26.8-53.1,16.7c-18.4-8.9-30.2-22.9-38.7-46.3c-11.8-32.5-31.1-55.6-99.9-119.4c-61.4-57-150.8-150.4-225-235.3
		c-25.3-29-57.1-61.5-69.4-70.8c-10.9-8.3-20.8-13.9-29.6-17c-11-3.8-9.9-3.9-130.5,5c-63,4.6-82.9,6-94,6.1v52.8
		c42.6,0,45.6-0.1,131.4-5.3c61.6-3.8,68.9-4,76.9-3.1c19.7,2.4,39.5,13.8,60.8,34.9c12.1,12.1,19.6,20.8,47.8,55.9
		c42.4,52.7,75.7,92.4,98.7,117.7c17.9,19.6,43.4,44.3,56.1,54.2c37.4,29.3,72.8,62.3,94.7,88.2c28.8,34.2,51,68.2,71.1,108.7
		l9.9,20.1l5.3,2.6c11.9,6,28,9.9,41.3,9.9c39.9,0,77.8-26.4,125.4-87c11.3-14.5,17.6-24,22.6-34.5c6.6-13.5,8.2-25.3,4.5-32.5
		c-1.2-2.3-5.5-6.4-9-8.6c-1.5-1-1.4-1.1,1.1-1.1c3.4-0.1,12.5-3.4,21.3-7.8c36.5-18.4,50.3-52.9,40.1-100
		C2144.5,1300.7,2139.4,1284.6,2137,1280z"/>
	<path class="st9" d="M1402.7,800.5c-35-23.2-61.7-33.6-101.3-39.3c-8.2-1.2-18.8-1.5-50.4-1.7c-1.5,0-3,0-4.5,0v35.7
		c4.6,0.1,13.8,0.8,21.6,1.7c48.4,5.6,93.9,15.8,113.6,25.7c14.2,7.1,17.7,15.1,8.6,19.3c-5,2.3-17.2,2.3-31.5,0.4
		c-11.4-1.5-55.2-10-84.4-16.3c-13-2.8-20.4-4.2-27.9-4.2v44c61.4,0,87.5,1.7,117,7.6c30.9,6.2,65,9.9,91.6,9.9
		c9.1,0,16.6-2.3,20.3-6.3C1486.4,864.9,1463.2,840.5,1402.7,800.5z"/>
	<path id="structure114_label121_IODM" bar:growlevel="0" bar:type="" class="st10" d="M1295.6,2051.2c-5.5,0.7-12.7,3.2-15.5,5.3
		c-2.6,2-3,2.8-3,6.6c0,8.2,4.1,10.6,21.4,12.8c9.8,1.3,12.9,0.8,16-2.3c1.8-1.8,2.2-3.1,2.2-7.2c0-6.8-1.6-12.9-3.9-14.4
		C1310.9,2050.6,1302.5,2050.3,1295.6,2051.2z"/>
	<path id="structure115_label123_SolI" bar:growlevel="0" bar:type="" class="st11" d="M1457.6,1641.3c-2.7,2.7-3.1,6.6-1,10.5
		c1.6,3.1,3.9,4.5,7.5,4.5c3.7,0,5.8-2.8,6.3-8.4c0.5-5.6-1.3-7.7-6.8-8.5C1460.5,1639.1,1459.5,1639.4,1457.6,1641.3z"/>
	<path id="structure116_label124_sol" bar:growlevel="0" bar:type="" class="st12" d="M1466.1,1623.5c-12.4,2.4-11.5,1.8-14.6,10.8
		c-2.3,7.2-2.6,9.1-2.3,16.6c0.5,10.9,2.8,16,8.4,17.8c5.3,1.8,10.7,0.6,14.7-3c3.2-2.9,3.2-3.1,3.3-10.1c0-6.8,0.2-7.4,4-13.7
		c3.4-5.6,4-7.3,4-11.1C1483.4,1623,1478.9,1621.1,1466.1,1623.5z M1468.9,1641.9c2.9,3,3.2,5,1.4,9.5c-2.7,6.3-8.4,7.3-12.7,2.1
		c-2.9-3.4-3.2-9.7-0.4-12.4C1460,1638.2,1465.6,1638.6,1468.9,1641.9z"/>
	<path id="structure117_label125_SolL" bar:growlevel="0" bar:type="" class="st13" d="M1483.7,1633.9c-0.3,1.6-2.1,5.1-4,7.9
		c-3,4.5-3.3,5.7-3.3,10.9v5.8l7.1,3c18.4,7.7,38.8,9.7,46,4.5c2.7-2.1,2.9-10.8,0.3-15.8c-2-3.9-2.3-4-9.7-6.1
		c-4.2-1.2-13.1-4.4-19.8-7.1C1484.2,1630.2,1484.5,1630.3,1483.7,1633.9z"/>
	<path id="structure11_label10_Sp5I" bar:growlevel="0" bar:type="" class="st14" d="M1660.5,1629.9c-16.3,3.4-33.1,16.2-40.1,30.5
		l-3.5,7.1l0.1,10.9c0.1,12.6,2.1,22,7.6,35.7c6.8,17.1,15.7,29.7,26,37.4c9.5,7,14.7,12.1,21.2,20.5c7.3,9.5,9.5,12.9,14.8,23.5
		c8.3,16.7,12,28.4,17.7,56.2c9.2,44.4,17.6,62,37.3,78.6c10.8,9.1,15.4,10.7,24.9,8.7c28.5-5.9,65.9-53.6,80.9-103.1
		c7.5-24.7,9.9-43.9,9.2-72.6c-0.6-25.9-3-36.9-10.6-49.9c-4.1-6.9-17.6-20.5-26.2-26.3c-20.6-13.7-51.5-26.9-105.1-44.8
		c-17.1-5.8-32.6-11.2-34.4-12.1C1676.2,1628.1,1669.1,1628,1660.5,1629.9z"/>
	<path id="structure120_label128_SolCe" bar:growlevel="0" bar:type="" class="st15" d="M1416.2,1645.4c-11,5.3-14.3,17.6-7.1,26.2
		c5.1,6.1,16.8,7.3,23.9,2.3c9.8-6.9,9.9-21.4,0.2-27.4C1428.7,1643.7,1420.8,1643.2,1416.2,1645.4z"/>
	<path class="st16" d="M1377.3,1697c-19.7-5.8-50.3-19.4-61.3-27.5c-6.6-4.9-8.9-8.4-9.7-14.3c-0.6-4.8-1-4.9-7.3-2.8
		c-5.4,1.8-14.3,7.6-24.9,16c-10.3,8.3-18.3,13.6-22.6,15.5c-1.7,0.7-3.2,1.1-5,1v83.2c4.5,0,9.2,0.9,14,2.6
		c3.1,1.1,6.1,1.7,6.5,1.4c0.6-0.6-8.8-19.6-11.1-22.2c-0.6-0.8-2.2-3.4-3.2-5.9c-1.8-4-2.1-5.8-2-15.8c0.1-13.5,1.4-19.7,7.1-31.2
		c5-10.2,13.3-19.1,21.6-23.2c4.9-2.5,6.1-2.7,14.4-2.6c5.6,0,11.2,0.6,14.8,1.6c13,3.5,26.1,12,32,20.5
		c5.8,8.5,11.9,28.2,12.7,40.9c0.4,5.2,0.9,7.5,1.7,7.5c1.7,0,12.3-12.1,18.5-20.9c5.4-8,10.7-18.1,10.7-20.5
		C1384.2,1699.5,1382,1698.4,1377.3,1697z"/>
	<path id="structure122_label130_SolIM" bar:growlevel="0" bar:type="" class="st17" d="M1439.8,1620.9c-1.4,0.7-3.3,3-4.4,5
		c-1.6,3.2-1.8,4.9-1.5,12.1c0.2,7.1,0.5,8.6,2.3,10.4c2.6,2.8,4.8,8.1,4.8,11.7c0,2.8-2.3,8.4-4.7,11.7c-1.7,2.3,1.8,5.6,5.9,5.6
		c3.7,0,6.3-2.1,8.8-7c1.7-3.2,1.7-3.7,0.4-6.8c-4.1-9.3-4.1-18.7-0.2-29.2c2.8-7.3,3-10.8,0.5-13.2
		C1449.5,1619.1,1443.4,1618.9,1439.8,1620.9z"/>
	<path id="structure124_label132_PMn" bar:growlevel="0" bar:type="" class="st18" d="M1266.4,1860.5c-2.2,4-3.1,14-3.1,30.8
		c0.1,23.5,2.6,35.1,7.6,35.1c4.7,0,6.8-11.1,6-31.5c-0.5-14.3-2.4-27.5-4.7-32.9C1270.7,1858.5,1267.8,1857.8,1266.4,1860.5z"/>
	<path id="structure126_label135_ml" bar:growlevel="0" bar:type="" class="st19" d="M1349.6,2134.2c-13,3.5-27.2,4.8-48.5,4.2
		c-10.9-0.2-23.8-1-28.8-1.6l-8.8-1.2l-1.7,2.1c-2.1,2.6-2.2,5.6-0.3,9.6c2.4,5,4.8,5.8,20,5.8c14.5,0,25-0.9,44.3-3.6
		c10-1.4,34.5-4,75.4-7.8c3.9-0.4,5.6-0.9,5.6-1.7c0-0.7-0.5-1.3-0.9-1.3c-0.5,0-10.1-1.4-21.2-3.1
		C1361.7,2132.1,1358.5,2131.9,1349.6,2134.2z"/>
	<path id="structure129_label139_cu" bar:growlevel="0" bar:type="" class="st20" d="M1614.2,1575.4c-4.1,2.5-4.2,5.8-0.2,9.4
		c3.9,3.7,7.6,5.8,17.8,10.2c10.1,4.2,11.6,4.5,11.6,1.6c0-4.1,2.1-9.2,5-12.2c1.7-1.7,3.1-3.4,3.1-3.9c0-0.4-3.3-1.8-7.4-3.1
		C1635.4,1574.7,1617.4,1573.5,1614.2,1575.4z"/>
	<path id="structure12_label11_Pa5" bar:growlevel="0" bar:type="" class="st21" d="M1692.5,1589.8c-10.1,2.4-15,10.8-10.9,18.7
		c6.6,12.8,45.2,28.8,84.6,35.3c14.9,2.4,33,2.2,38.6-0.5c6.4-3.1,7.9-11,3-16.3c-2.6-2.9-5-4-22.7-9.8
		c-10.9-3.6-32.1-11.1-47.1-16.6C1705.4,1588.6,1701.6,1587.7,1692.5,1589.8z"/>
	<path id="structure130_label140_vert" bar:growlevel="0" bar:type="" class="st22" d="M1294.9,2187.3c-2.5,2.5-2.7,3.2-2.3,7
		c0.6,5.4,3.7,8.3,8.8,8.3c5.2,0,8.9-3.8,8.9-9.2c-0.1-4.4-1.4-6.6-4.9-7.9C1301.1,2183.9,1297.9,2184.5,1294.9,2187.3z"/>
	<path class="st23" d="M1392.3,829.9c-3.2-3.7-13.7-9.3-24.3-13.1c-21.4-7.5-62.6-15.8-99.9-20c-9.1-1-15.4-1.6-21.6-1.6v26.5
		c7.5,0,14.9,1.4,27.9,4.2c29.3,6.3,73,14.8,84.4,16.3c5.6,0.8,14.1,1.4,18.9,1.4c7.3,0,9.4-0.4,12.8-2.1c3.6-1.7,4-2.3,4.3-5.3
		C1395,833.7,1394.6,832.4,1392.3,829.9z"/>
	<path id="structure134_Unlabeled-2342-1062_Unlabeled" bar:growlevel="0" bar:type="" class="st23" d="M1729.6,1018.2
		c-29,5-33.9,27.5-13,59c14.6,21.8,43.6,44.5,67.1,52.6c3.1,1.1,11.1,3.2,17.5,4.7c16.8,3.9,22.8,6,45.1,16.6
		c35.9,16.8,59.4,25.4,72.7,26.3c5.8,0.4,7.2,0.3,8.7-1.1c2.4-2.3,2.3-4.2-1-10.4c-7.6-14.3-33.9-38.3-81.4-74
		c-15.2-11.5-21-16.2-55.1-44.9c-14.5-12.2-23.6-18.7-32.3-23.1C1748.3,1019,1737.7,1016.8,1729.6,1018.2z"/>
	<path class="st23" d="M1492.2,1332.5c-10.1-19.3-15.8-27.3-24.1-33.5c-5.1-3.8-14.6-9-16.4-9c-0.5,0-0.9,1.3-0.9,2.7
		c0,5.9-10.8,14.2-25,19.3c-33.9,12.1-106.9,20.3-179.3,20.3v37.3c6.9,0,12.9-0.1,19.6-0.4c46.6-2.3,137.1-8.5,163.5-11.3
		c27.5-3,46.6-8.6,59.8-17.8c2.3-1.5,4.2-2.9,4.5-3.1C1494.2,1336.9,1493.4,1334.9,1492.2,1332.5z"/>
	<path class="st23" d="M1557.7,1453.5c-46.9-4.1-76.4-5.5-107.4-4.8c-29.3,0.7-45.9,2.4-71.6,7.4c-47.3,9.2-79.6,12.1-132.3,12.1
		v35.5c9.9,0,19.5-0.1,28.6-0.4c66.5-2.1,125.9-7.8,159.9-15.6c34.4-7.9,129.2-31.9,129.2-32.7
		C1564.2,1454.5,1561.5,1453.8,1557.7,1453.5z"/>
	<path class="st23" d="M1607,1500.7c-3.8-9.4-14.5-24.4-17.4-24.4c-0.8,0-7.9,4.2-15.9,9.4c-52.1,33.6-93.5,50.5-155.8,63.5
		c-7.4,1.5-31.7,6.8-54,11.7c-74.7,16.4-92,19.2-117.5,19.3v46.2c24.3,0,48.7-1.9,66.4-5.6c3.6-0.7,7.6-1.4,8.7-1.4
		c1.2,0,2.3-0.4,2.4-0.8c0.2-0.4,14.2-3.7,31.3-7.2c33.4-6.9,59.4-13.1,70.2-16.7c3.7-1.2,7.6-2.3,8.8-2.3c1.1,0,2-0.4,2-0.7
		c0-0.9,13.5-6.5,15.6-6.5c0.8,0,1.5-0.4,1.5-0.7c0-0.4,3.5-2.3,7.9-4.2c21.8-9.6,65.9-31.9,90.6-45.6c16.9-9.4,36.8-18.4,51.1-23.1
		C1610.2,1509.2,1610.3,1508.7,1607,1500.7z"/>
	<path id="structure13_label12_ECu" bar:growlevel="0" bar:type="" class="st24" d="M1603.8,1511.3c-17.9,6-47.3,19.6-48.3,22.3
		c-0.9,2.5,5.8,14.2,12,20.9c9.6,10.5,24.8,19.4,37.8,22.1c4.3,0.9,5.2,0.8,7.8-0.7c5.8-3.5,23.8-1.9,36,3.3
		c3.9,1.7,4.9,1.8,10.8,0.8c17.7-2.7,44.3-3.6,58.7-1.9c4,0.4,9.5,1.1,12.4,1.4c7.1,0.8,6.8-0.9-1.3-5.9
		c-12.9-7.9-21.5-19-21.5-27.6v-3.7l-24.5-10.9c-41.6-18.5-50.2-21.4-64.6-22.2C1612.4,1508.7,1610.6,1509,1603.8,1511.3z"/>
	<path id="structure14_label13_Cu" bar:growlevel="0" bar:type="" class="st25" d="M1542.6,1539.9c-10.9,6.2-67.9,34.6-81.2,40.5
		c-5.2,2.3-7.9,4-7.9,4.9c0,1.8,0.1,1.9,27.9,20.4c12.6,8.5,25.7,17.5,29.3,20.1l6.3,4.8l14.8-0.2c35-0.3,69.5-6.6,91.6-16.8
		c8.5-3.9,18.4-10.9,18-12.7c-0.2-0.7-4.7-3.3-10.1-5.8c-12.8-5.7-18.2-9.4-20.1-13.7c-1.1-2.3-2.3-3.5-3.9-3.9
		c-8.3-1.8-18.5-6.1-25.9-10.9c-10.6-6.8-22.1-20.1-25.5-29.3c-0.6-1.8-1.6-3.3-2.2-3.3C1553.4,1534,1548.3,1536.6,1542.6,1539.9z"
		/>
	<path id="structure15_label14_Mx" bar:growlevel="0" bar:type="" class="st26" d="M1638.5,1604.6c-2,1.7-7.5,5.1-12.2,7.6
		c-21.2,10.9-52.9,17.5-89.6,18.7c-9.9,0.4-16.5,0.9-16.5,1.4c0,0.4,1.8,2.9,4,5.2c2.3,2.4,4.1,5.2,4.1,6.3c0,1.2,0.9,3.8,1.9,5.9
		c3.6,7.5,2.3,14.4-4.2,22.5c-1.7,2.1-3.1,4.1-3.1,4.5c0,0.5,2.3,1.5,5.2,2.4c2.8,0.9,11.5,4.7,19.3,8.5c7.7,3.7,14.4,6.6,14.7,6.2
		c0.3-0.3,0-2.5-0.6-5c-1.4-5.4-0.4-9.9,3.9-16.5c8-12.7,35.7-25.3,61.8-28.2c4.7-0.5,6.7-1.3,11.3-4.6c3.1-2.2,8.5-5.1,11.8-6.6
		c5.4-2.3,8.8-3.2,18.2-5.1c3.1-0.6,2.3-2.3-2.5-5.6c-7.3-5-18.1-14.6-20-17.8c-1-1.7-2.3-3.1-2.8-3.1
		C1642.5,1601.5,1640.4,1602.9,1638.5,1604.6z"/>
	<path class="st27" d="M1309.1,2047.4c-5.4-19.2-14.3-94.1-25.3-211.5c-1.7-18.8-3.8-37.1-4.6-40.5c-2.8-11.8-8.4-19.7-17.3-23.9
		c-3-1.4-9.5-2.3-15.5-2.5v50.3c0.1,0,0.1,0,0.2,0c2.5,0,6.7,4.5,7.9,8.6c0.6,2.2,1.3,15.8,1.9,35.5c0.5,17.5,1.3,42.5,1.8,55.4
		c2.6,59.6,2.2,91.3-1.8,135.4c-0.9,10.2-1.6,18.5-1.5,18.6c0.1,0.2,5.1-0.4,11.3-1.3l11-1.4l-0.6-4.8c-0.5-4.7-0.4-4.9,2.5-7.9
		c3.7-3.7,9.5-5.6,21.7-7.1C1309,2049.3,1309.6,2049.1,1309.1,2047.4z M1269.3,1926.2c-4.2-3.5-6.6-16.3-6.6-35.7
		c0-14.9,1-23.1,3.3-29c1.6-4.2,3.5-4.3,5.8-0.4c2.2,3.8,4.2,14.7,5.4,28.3C1279.1,1912,1275,1930.9,1269.3,1926.2z"/>
	<path id="structure17_label16_IOM" bar:growlevel="0" bar:type="" class="st28" d="M1281.6,2097.5c-5.1,2.5-11.9,9.2-14.4,14.1
		c-4,7.8-3.1,17.6,2.2,22.5c3.2,3,11.7,4,36.1,4c16.6,0.1,23.7-0.3,30.6-1.4c14.1-2.5,21.2-4.3,21.1-5.4c0-1.4-21.3-16.7-32.8-23.7
		c-14-8.4-21.7-11.3-31-11.8C1286.6,2095.5,1285.1,2095.7,1281.6,2097.5z"/>
	<path id="structure1_label0_RVRG" bar:growlevel="0" bar:type="" class="st29" d="M1593.1,1900.1c-8.5,8.6-19.7,12.2-30.8,9.8
		l-3.2-0.6l-2.8,6c-4.1,9.3-5,13.3-4.9,23.7c0.1,10.2,4.3,34.4,6.9,39.3c1.9,3.8,7.8,8.8,11.9,10.3c5.4,2,17.7,1.4,24.7-0.9
		c11.4-4,23.8-13.3,29.6-22.5c8.7-13.6,6-32.8-7.4-52.7c-5.3-7.8-14.9-17.5-17.2-17.4C1598.8,1895,1595.8,1897.4,1593.1,1900.1z"/>
	<path id="structure20_text3107_LRt" bar:growlevel="0" bar:type="" class="st30" d="M1480.9,2022.3c-1.1,0.3-2.9,1.4-4.1,2.7
		c-7.7,8.2,6.9,26.3,31.1,38.4c17.8,8.9,33.1,10.2,40,3.2c6.8-6.7,1.4-16.4-15.5-27.7c-6.6-4.5-23.7-12.3-31.2-14.5
		C1494.4,2022.6,1484.3,2021.6,1480.9,2022.3z"/>
	<path class="st31" d="M1321.9,1619.8c-0.4-0.4-5.2,0.3-10.8,1.3c-19.2,3.6-41.5,5.4-64.6,5.3v56.9c6.1,0,10.1-2.4,27.4-15.9
		c11.9-9.4,20.7-14.8,26.5-16.6c2.7-0.8,5.1-2.4,7.8-5.5C1312.3,1640.7,1323,1620.9,1321.9,1619.8z"/>
	<path id="structure23_label21_10n" bar:growlevel="0" bar:type="" class="st32" d="M1708.6,1547.5c1.4,8.7,7.6,16.7,18.5,24.2
		c3,2,17,9.5,31.2,16.6c14.2,7.2,31.4,16.4,38.2,20.6c35.5,21.9,58.5,45.2,71.5,72.4c19.2,40,23.4,100.2,10.7,151.1
		c-8.1,32.2-27.4,67.1-54,97.7c-23.8,27.4-52,43.7-72.2,41.8l-5.7-0.4l-2.6,3.8c-4,5.7-11.5,12.7-17.6,16.4
		c-12.2,7.3-30.8,10.4-43.9,7.3c-3.4-0.8-6.5-1.4-6.8-1.4c-0.4,0-1,2.4-1.3,5.3c-1.5,17.4-30.5,52.6-52.2,63.7
		c-10.1,5-18.4,6.3-23.8,3.5c-10.9-5.6-26.6-40.1-35.7-78.1c-1.3-5.3-3.2-11.3-4.5-13.5c-1.9-3.4-5.4-18.6-7.2-31.3
		c-0.9-6.1-8.7-28.8-13.9-40.5c-20.4-45.9-58.8-99.1-105.2-146.2c-22.4-22.8-49.2-46.5-52.4-46.4c-0.7,0.1-3.5,3.4-6.2,7.5
		c-2.7,4-8.5,11.1-12.8,15.6c-4.4,4.5-7.9,8.8-7.9,9.5c0,0.7-1,3.4-2.3,5.9c-2,4.3-2.1,5.1-1.2,9.6c2.9,13.6-7.4,35.3-19.4,41
		c-5.7,2.7-11,3.1-18.6,1.5c-8.7-1.8-17.8-6.3-25.4-12.6c-8.5-7-9-6.8-6.6,2.2c0.7,2.7,3.6,28.3,6.3,56.7
		c5.2,53.5,10.8,108.6,11.8,114.5c0.3,1.9,0.9,3.4,1.3,3.4c0.4,0,3.7-1.6,7.4-3.5c8.8-4.9,15.4-6.4,26.5-6.4
		c38.3,0,68.9,17.4,83.6,47.3c9.6,19.6,10.9,32.8,4,38.7c-3.4,2.8-6.5,2.9-21.1,0.4c-5.9-0.9-27.8-4.1-48.6-7.1
		c-20.8-3.1-39.2-5.7-40.7-5.9c-2.6-0.5-3-0.3-3,1.5c0,1.2,0.7,5.1,1.6,8.8c1.3,5,2.3,7.5,4.4,9.5c2,2,3.1,4.2,3.9,7.9
		c2.3,11.4-1.5,16.9-12,16.8c-6.4,0-19.4-2.7-23.9-4.9c-3.7-1.8-4-1.8-14.4-0.5l-10.5,1.3l0.1,3.1c0,1.7,0.7,7.4,1.5,12.6
		c0.9,5.2,2.1,18.1,2.6,28.6l1.1,19.2l3.2-0.5c1.7-0.4,3.3-0.7,3.5-1c0.2-0.2-0.5-2.3-1.7-4.6c-2.3-5-2.3-12.2,0.4-17.6
		c4-8.2,13.9-16.1,21.9-17.4c11.2-1.7,29,6.7,57.3,27l12.9,9.3l10.3,1.5c54.8,8.2,72.4,11.8,89.7,18.4c9.8,3.7,12.8,5.7,12.8,8.4
		c0,2.3,1.3,2.1,8.9-1.1c3.6-1.4,15.9-5.8,27.4-9.5c63.5-20.8,90-31.5,133.4-53.9c39.2-20.3,94.4-53.1,124.4-74
		c64.4-44.9,110.2-106.8,129.3-175.1c7.7-27.4,10.7-49.1,10.8-78.1c0-42.5-6.3-68.2-23.6-96.1c-19.4-31.1-58.6-68.4-93.8-89.1
		c-13.6-8.1-73.2-37.7-77.4-38.5l-3-0.6L1708.6,1547.5z M1498.8,2023.5c22.2,5.8,48.7,23.1,51.9,33.9c1,3.3,0.9,4.1-0.6,6.8
		c-6.7,11.4-28.5,8.9-51.8-6c-9.4-6-14.9-10.9-19.4-16.9C1467.9,2026.2,1477.1,2017.9,1498.8,2023.5z M1335.6,2043.7
		c15.7,4.1,60,16.8,83.3,23.9c57.9,17.4,92.3,27.4,108.1,31.1c17.9,4.3,25.9,7.5,26.9,10.6c0.8,2.6-4.2,6.9-13.7,11.5
		c-14,6.8-30,9.1-39.9,5.8c-2.5-0.8-12.2-5.6-21.4-10.5c-25.7-13.7-35.4-17.8-62.8-26.7c-23.3-7.7-38.2-11.3-59.2-14.6
		c-19.1-3-23.4-4-28.7-7.6c-8.5-5.6-10-19.9-2.5-23.6C1328.6,2042.2,1329.7,2042.2,1335.6,2043.7z M1336.5,2084.6
		c6.2,2.2,21.2,8.4,33.3,13.7c24.5,10.8,63.9,26.7,68.3,27.5c5,1,3.3-2.1-3.6-6.5c-10-6.5-20.8-11-35-14.8
		c-17.7-4.7-30.9-10.7-33.4-15.6c-2-3.6,4.3-4.3,18.5-2c16.7,2.7,29.7,7.4,54.9,20c18.7,9.5,25.6,13.8,31.8,20.3
		c11,11.8,10.9,20.4-0.4,20.4c-16.7,0-88.8-23.2-117.5-38c-16.2-8.3-34.9-21.8-36.4-26.1c-0.8-2.6,1.7-4.4,5.4-3.7
		C1324,2080.2,1330.3,2082.3,1336.5,2084.6z"/>
	<path id="structure25_label24_SolM" bar:growlevel="0" bar:type="" class="st33" d="M1372.5,1607.7c-6.2,1.4-19.6,4.2-29.9,6.3
		c-10.4,2.2-18.7,4.2-18.7,4.8c0,2.1-9.2,19.6-13,24.8c-3.5,4.8-4.1,6.2-4.1,9.7c0,4,0.1,4.1,2.5,3.6c9-2.2,11-2.3,19.2-1.4
		c32.9,3.6,74.4,18.1,87.1,30.3c2.7,2.6,5.2,4.8,5.6,4.8c0.5,0,5.3-10.4,5.3-11.6c0-0.5-2.1-1-4.6-1.3c-17.5-2.1-23.1-20.8-9.1-30.6
		c3.8-2.6,4.9-2.9,10.5-2.8c3.5,0,7.1,0.3,8.1,0.7c1.7,0.6,1.8,0.3,1.8-8.9c0-9.5,0-9.5-2.3-10c-13.3-2.8-29.6-9.9-39-17.1
		c-2.8-2.2-5.9-3.9-6.8-3.9C1384.5,1605.2,1378.7,1606.4,1372.5,1607.7z"/>
	<path class="st34" d="M1585.7,1471.3c-5.1-5.4-17.6-15.7-18.9-15.7c-0.7,0-30.1,7.1-65.2,15.8c-78.8,19.4-83,20.3-114.8,24.1
		c-44.2,5.3-92.2,8-140.4,7.9v76.7c25.4,0,42.7-2.9,117.5-19.3c22.3-4.9,46.6-10.2,54-11.7c62.1-13,103-29.7,155.5-63.4
		c7.9-4.9,14.5-9.6,14.8-10.3C1588.5,1475,1587.3,1473,1585.7,1471.3z"/>
	<path class="st35" d="M2092.1,1313c-5.8-15.1-18.9-27.3-48.7-44.8c-25-14.8-45.4-27.4-54.5-33.8c-11-7.7-25.1-21.7-27.7-27.4
		c-4-8.6-1.4-17.4,6.1-21.2c8.3-4.1,17.8-2.3,47.4,9.7c27.2,11,34.1,12.6,38.5,8.7c6.2-5.3,4.1-20.4-6.4-47.3
		c-6.3-15.8-29.6-67.9-35.1-78.4c-11.9-22.5-28-42.8-43.6-54.8c-4.2-3.3-13.9-11-21.4-17.1c-68.2-54.9-123-83-179.4-91.9
		c-55.2-8.8-123-4-190.3,13.4c-35,9.1-44,9.5-68.4,3.2c-19.4-5-36.9-8.5-47.8-9.4c-4.4-0.4-16.7-0.5-27.4-0.1
		c-12.6,0.4-99.9,0.6-187.2,0.6v67.4c52.9-0.3,156.3-5.9,198.9-11.1c17.2-2.1,37-2.6,47.3-1.3c11.3,1.4,18.4,3.6,25.2,7.7l5.4,3.2
		l10.8-1c5.9-0.5,21-2.1,33.3-3.2c12.4-1.2,33-2.8,45.9-3.6c12.9-0.8,36.5-2.4,52.7-3.7c16.1-1.3,39.6-2.5,52.2-2.8
		c21.5-0.4,23.9-0.3,39.1,1.9c26.5,4,38.2,7.1,47.7,13c3.6,2.2,13,10.9,13,12c0,0.3-3.3-0.2-7.4-1.2c-22-5.1-52.9-9.3-80.5-10.7
		c-47.6-2.6-71.7,4.2-80.9,23c-2.3,4.6-2.6,6.6-3,15c-1,24,8.8,43.9,34,69.2c18.9,18.9,38.5,33.2,80.1,58.2
		c62.3,37.5,102.7,59,158,84c31.9,14.5,38.1,17.6,40.1,21.1c2.1,3.4,2.1,3.6,0.3,5.4c-3.5,3.6-8.1,1.9-56.1-20.8
		c-45.9-21.7-82.2-40.5-116.6-60.7c-72.4-42.3-104.8-63.7-119.3-78.8c-9.6-10-21.5-26.3-45.8-62.8c-16.9-25.3-21.3-30.4-30.4-34.8
		c-5-2.5-7.1-3-14.1-3.2c-6.8-0.4-9-0.1-12.4,1.4c-6.1,2.7-7.3,5-6.8,13.7c0.8,13.6,6,21.5,54.6,83.7c25.7,32.9,55.9,70.6,72.5,90.4
		c17.8,21.3,40.1,44.5,112.6,116.6c55.7,55.4,61.6,60.9,78.7,74.5c29,22.9,39.2,31.3,42.7,35.2c11.1,12.2-8.4,5.8-34.9-11.7
		c-32.4-21.3-48.3-35.4-117.5-103.9c-73.8-73.3-125.7-127.8-147.3-154.8c-28.3-35.2-52.6-72.6-69.7-106.6
		c-5-10.2-11.1-21.3-13.3-24.8c-5.7-8.6-15.7-18.3-22.4-21.9c-10.6-5.6-14.8-6.7-28.6-7.1c-11.8-0.4-14.3-0.2-37.8,3.7
		c-94.7,15.4-153.5,22-200.3,22v27.9c2.7,0,5.4-0.1,8.5-0.2c10.9-0.3,52.7-3,92.7-5.9c96-7.2,108.5-7.8,115.8-6.5
		c20,4,44.2,21.7,75.7,55.4c6.8,7.4,21.1,23.2,31.5,35.1c56.4,64.4,109.3,121,168.9,180.6c21.1,21.1,46.8,46.2,57.2,55.7
		c25.6,23.6,64.3,62.5,72.5,72.9c13.5,17,20.1,28.1,25.7,43.6c6.6,17.7,10.3,23.9,20.5,34.3c7.6,7.6,10.3,9.7,16.7,12.9
		c8.5,4.1,18.5,6.7,23.4,5.9c7.6-1.4,20.7-11.3,37.8-28.8c4-4.1,7.1-6,16-10.3c13.9-6.6,20.2-11,30.1-21.2c9.3-9.7,11-12.6,10.3-18
		c-0.8-7.6-8.9-14.7-26.1-23.1c-12.6-6.1-25.8-11.4-61.8-24.6c-15.6-5.7-33.2-12.6-39.2-15.2c-38.2-17.2-88.7-52.6-128.3-90
		c-36.3-34.3-71.1-81.1-80-107.6c-2.8-8.2-2.2-14.3,1.7-18.2c2.7-2.8,3.1-2.9,9.8-2.8c14,0.2,26.7,6.5,83.9,41.3
		c26.5,16.1,40.1,23.8,96.8,54.4c69.4,37.5,79.8,43.7,105.8,61.7c21.2,14.8,32.4,21.6,41.8,25.5c10.6,4.4,21.1,5.2,27.1,2.1
		c3.5-1.9,8.2-8,10.3-13.3C2094.4,1331.1,2094.6,1319.5,2092.1,1313z M1927.8,1176.2c-1.5,1.4-2.9,1.5-8.7,1.1
		c-13.3-0.9-36.8-9.4-72.7-26.3c-22.3-10.5-28.3-12.7-45.1-16.6c-19.9-4.6-30.3-8.9-44.6-18.6c-38.1-25.9-60.3-62.7-50.3-83.4
		c5.8-11.9,24.2-17.5,41.4-12.6c11.2,3.1,22.9,10.6,42.7,27.2c34.1,28.7,39.9,33.4,55.1,44.9c47.4,35.7,73.8,59.7,81.4,74
		C1930.1,1172,1930.2,1173.9,1927.8,1176.2z"/>
	<path class="st36" d="M1841.9,1541.3c-0.9-5.2-5.3-13.1-15-27.2c-32.9-47.5-66.6-82.4-95.5-99.2c-61.6-35.6-122.6-94.1-203.2-194.7
		c-12.2-15.3-23.3-29.9-35.9-47.3c-7.8-10.8-20.3-23.9-28.8-30.1c-7.2-5.3-17.3-10.4-25.7-13.1c-12.5-4-42.1-3.6-118.8,1.5
		c-24.8,1.7-49,2.5-72.5,2.5v24.4c1.5,0,3,0,4.5,0c97.2,0.1,110.5,0.3,120.1,1.6c41.4,5.8,63.6,14.8,84.6,33.9
		c8.6,7.8,26.3,28.1,64.4,73.7c73,87.3,93.2,108.8,142.2,151c14,12,39.7,32.8,49.7,40.1c3.3,2.4,5.9,4.6,5.8,4.8
		c-0.5,0.5-19.8-6.8-31.9-11.9c-14.8-6.4-35.7-17.5-47.5-25.2c-8.8-5.8-13.6-9.9-26.6-22.9c-21.6-21.7-54.7-58.8-98.5-110.3
		c-20.6-24.2-35-39.6-48.8-52c-37-33.5-68.8-52.1-97-56.8c-14.9-2.5-42.7-3.2-121-3.2v34.6c43.4-0.1,84.8,3.4,117.9,10
		c32.3,6.5,62.4,16.9,83,28.8c32.7,18.7,45.5,32.3,106.2,113.3c28.3,37.6,46.1,60.5,54.3,69.6c5.5,6,17.3,16.1,28.7,24.4
		c37.1,26.8,108.5,62.3,167.1,83c16,5.6,21.7,6.7,28.9,5.2C1840,1548.6,1842.8,1546,1841.9,1541.3z"/>
	<path class="st37" d="M2092.1,1313c-5.8-15.1-18.9-27.3-48.7-44.8c-25-14.8-45.4-27.4-54.5-33.8c-11-7.7-25.1-21.7-27.7-27.4
		c-4-8.6-1.4-17.4,6.1-21.2c8.3-4.1,17.8-2.3,47.4,9.7c27.2,11,34.1,12.6,38.5,8.7c6.2-5.3,4.1-20.4-6.4-47.3
		c-6.3-15.8-29.6-67.9-35.1-78.4c-11.9-22.5-28-42.8-43.6-54.8c-4.2-3.3-13.9-11-21.4-17.1c-68.2-54.9-123-83-179.4-91.9
		c-55.2-8.8-123-4-190.3,13.4c-35,9.1-44,9.5-68.4,3.2c-19.4-5-36.9-8.5-47.8-9.4c-4.4-0.4-16.7-0.5-27.4-0.1
		c-12.6,0.4-99.9,0.6-187.2,0.6v67.4c52.9-0.3,156.3-5.9,198.9-11.1c17.2-2.1,37-2.6,47.3-1.3c11.3,1.4,18.4,3.6,25.2,7.7l5.4,3.2
		l10.8-1c5.9-0.5,21-2.1,33.3-3.2c12.4-1.2,33-2.8,45.9-3.6c12.9-0.8,36.5-2.4,52.7-3.7c16.1-1.3,39.6-2.5,52.2-2.8
		c21.5-0.4,23.9-0.3,39.1,1.9c26.5,4,38.2,7.1,47.7,13c3.6,2.2,13,10.9,13,12c0,0.3-3.3-0.2-7.4-1.2c-22-5.1-52.9-9.3-80.5-10.7
		c-47.6-2.6-71.7,4.2-80.9,23c-2.3,4.6-2.6,6.6-3,15c-1,24,8.8,43.9,34,69.2c18.9,18.9,38.5,33.2,80.1,58.2
		c62.3,37.5,102.7,59,158,84c31.9,14.5,38.1,17.6,40.1,21.1c2.1,3.4,2.1,3.6,0.3,5.4c-3.5,3.6-8.1,1.9-56.1-20.8
		c-45.9-21.7-82.2-40.5-116.6-60.7c-72.4-42.3-104.8-63.7-119.3-78.8c-9.6-10-21.5-26.3-45.8-62.8c-16.9-25.3-21.3-30.4-30.4-34.8
		c-5-2.5-7.1-3-14.1-3.2c-6.8-0.4-9-0.1-12.4,1.4c-6.1,2.7-7.3,5-6.8,13.7c0.8,13.6,6,21.5,54.6,83.7c25.7,32.9,55.9,70.6,72.5,90.4
		c17.8,21.3,40.1,44.5,112.6,116.6c55.7,55.4,61.6,60.9,78.7,74.5c29,22.9,39.2,31.3,42.7,35.2c11.1,12.2-8.4,5.8-34.9-11.7
		c-32.4-21.3-48.3-35.4-117.5-103.9c-73.8-73.3-125.7-127.8-147.3-154.8c-28.3-35.2-52.6-72.6-69.7-106.6
		c-5-10.2-11.1-21.3-13.3-24.8c-5.7-8.6-15.7-18.3-22.4-21.9c-10.6-5.6-14.8-6.7-28.6-7.1c-11.8-0.4-14.3-0.2-37.8,3.7
		c-94.7,15.4-153.5,22-200.3,22v27.9c2.7,0,5.4-0.1,8.5-0.2c10.9-0.3,52.7-3,92.7-5.9c96-7.2,108.5-7.8,115.8-6.5
		c20,4,44.2,21.7,75.7,55.4c6.8,7.4,21.1,23.2,31.5,35.1c56.4,64.4,109.3,121,168.9,180.6c21.1,21.1,46.8,46.2,57.2,55.7
		c25.6,23.6,64.3,62.5,72.5,72.9c13.5,17,20.1,28.1,25.7,43.6c6.6,17.7,10.3,23.9,20.5,34.3c7.6,7.6,10.3,9.7,16.7,12.9
		c8.5,4.1,18.5,6.7,23.4,5.9c7.6-1.4,20.7-11.3,37.8-28.8c4-4.1,7.1-6,16-10.3c13.9-6.6,20.2-11,30.1-21.2c9.3-9.7,11-12.6,10.3-18
		c-0.8-7.6-8.9-14.7-26.1-23.1c-12.6-6.1-25.8-11.4-61.8-24.6c-15.6-5.7-33.2-12.6-39.2-15.2c-38.2-17.2-88.7-52.6-128.3-90
		c-36.3-34.3-71.1-81.1-80-107.6c-2.8-8.2-2.2-14.3,1.7-18.2c2.7-2.8,3.1-2.9,9.8-2.8c14,0.2,26.7,6.5,83.9,41.3
		c26.5,16.1,40.1,23.8,96.8,54.4c69.4,37.5,79.8,43.7,105.8,61.7c21.2,14.8,32.4,21.6,41.8,25.5c10.6,4.4,21.1,5.2,27.1,2.1
		c3.5-1.9,8.2-8,10.3-13.3C2094.4,1331.1,2094.6,1319.5,2092.1,1313z M1927.8,1176.2c-1.5,1.4-2.9,1.5-8.7,1.1
		c-13.3-0.9-36.8-9.4-72.7-26.3c-22.3-10.5-28.3-12.7-45.1-16.6c-19.9-4.6-30.3-8.9-44.6-18.6c-38.1-25.9-60.3-62.7-50.3-83.4
		c5.8-11.9,24.2-17.5,41.4-12.6c11.2,3.1,22.9,10.6,42.7,27.2c34.1,28.7,39.9,33.4,55.1,44.9c47.4,35.7,73.8,59.7,81.4,74
		C1930.1,1172,1930.2,1173.9,1927.8,1176.2z"/>
	<path id="structure2_label1_Gi" bar:growlevel="0" bar:type="" class="st38" d="M1708.6,1547.5c1.4,8.7,7.6,16.7,18.5,24.2
		c3,2,17,9.5,31.2,16.6c14.2,7.2,31.4,16.4,38.2,20.6c35.5,21.9,58.5,45.2,71.5,72.4c19.2,40,23.4,100.2,10.7,151.1
		c-8.1,32.2-27.4,67.1-54,97.7c-23.8,27.4-52,43.7-72.2,41.8l-5.7-0.4l-2.6,3.8c-4,5.7-11.5,12.7-17.6,16.4
		c-12.2,7.3-30.8,10.4-43.9,7.3c-3.4-0.8-6.5-1.4-6.8-1.4c-0.4,0-1,2.4-1.3,5.3c-1.5,17.4-30.5,52.6-52.2,63.7
		c-10.1,5-18.4,6.3-23.8,3.5c-10.9-5.6-26.6-40.1-35.7-78.1c-1.3-5.3-3.2-11.3-4.5-13.5c-1.9-3.4-5.4-18.6-7.2-31.3
		c-0.9-6.1-8.7-28.8-13.9-40.5c-20.4-45.9-58.8-99.1-105.2-146.2c-22.4-22.8-49.2-46.5-52.4-46.4c-0.7,0.1-3.5,3.4-6.2,7.5
		c-2.7,4-8.5,11.1-12.8,15.6c-4.4,4.5-7.9,8.8-7.9,9.5c0,0.7-1,3.4-2.3,5.9c-2,4.3-2.1,5.1-1.2,9.6c2.9,13.6-7.4,35.3-19.4,41
		c-5.7,2.7-11,3.1-18.6,1.5c-8.7-1.8-17.8-6.3-25.4-12.6c-8.5-7-9-6.8-6.6,2.2c0.7,2.7,3.6,28.3,6.3,56.7
		c5.2,53.5,10.8,108.6,11.8,114.5c0.3,1.9,0.9,3.4,1.3,3.4c0.4,0,3.7-1.6,7.4-3.5c8.8-4.9,15.4-6.4,26.5-6.4
		c38.3,0,68.9,17.4,83.6,47.3c9.6,19.6,10.9,32.8,4,38.7c-3.4,2.8-6.5,2.9-21.1,0.4c-5.9-0.9-27.8-4.1-48.6-7.1
		c-20.8-3.1-39.2-5.7-40.7-5.9c-2.6-0.5-3-0.3-3,1.5c0,1.2,0.7,5.1,1.6,8.8c1.3,5,2.3,7.5,4.4,9.5c2,2,3.1,4.2,3.9,7.9
		c2.3,11.4-1.5,16.9-12,16.8c-6.4,0-19.4-2.7-23.9-4.9c-3.7-1.8-4-1.8-14.4-0.5l-10.5,1.3l0.1,3.1c0,1.7,0.7,7.4,1.5,12.6
		c0.9,5.2,2.1,18.1,2.6,28.6l1.1,19.2l3.2-0.5c1.7-0.4,3.3-0.7,3.5-1c0.2-0.2-0.5-2.3-1.7-4.6c-2.3-5-2.3-12.2,0.4-17.6
		c4-8.2,13.9-16.1,21.9-17.4c11.2-1.7,29,6.7,57.3,27l12.9,9.3l10.3,1.5c54.8,8.2,72.4,11.8,89.7,18.4c9.8,3.7,12.8,5.7,12.8,8.4
		c0,2.3,1.3,2.1,8.9-1.1c3.6-1.4,15.9-5.8,27.4-9.5c63.5-20.8,90-31.5,133.4-53.9c39.2-20.3,94.4-53.1,124.4-74
		c64.4-44.9,110.2-106.8,129.3-175.1c7.7-27.4,10.7-49.1,10.8-78.1c0-42.5-6.3-68.2-23.6-96.1c-19.4-31.1-58.6-68.4-93.8-89.1
		c-13.6-8.1-73.2-37.7-77.4-38.5l-3-0.6L1708.6,1547.5z M1498.8,2023.5c22.2,5.8,48.7,23.1,51.9,33.9c1,3.3,0.9,4.1-0.6,6.8
		c-6.7,11.4-28.5,8.9-51.8-6c-9.4-6-14.9-10.9-19.4-16.9C1467.9,2026.2,1477.1,2017.9,1498.8,2023.5z M1335.6,2043.7
		c15.7,4.1,60,16.8,83.3,23.9c57.9,17.4,92.3,27.4,108.1,31.1c17.9,4.3,25.9,7.5,26.9,10.6c0.8,2.6-4.2,6.9-13.7,11.5
		c-14,6.8-30,9.1-39.9,5.8c-2.5-0.8-12.2-5.6-21.4-10.5c-25.7-13.7-35.4-17.8-62.8-26.7c-23.3-7.7-38.2-11.3-59.2-14.6
		c-19.1-3-23.4-4-28.7-7.6c-8.5-5.6-10-19.9-2.5-23.6C1328.6,2042.2,1329.7,2042.2,1335.6,2043.7z M1336.5,2084.6
		c6.2,2.2,21.2,8.4,33.3,13.7c24.5,10.8,63.9,26.7,68.3,27.5c5,1,3.3-2.1-3.6-6.5c-10-6.5-20.8-11-35-14.8
		c-17.7-4.7-30.9-10.7-33.4-15.6c-2-3.6,4.3-4.3,18.5-2c16.7,2.7,29.7,7.4,54.9,20c18.7,9.5,25.6,13.8,31.8,20.3
		c11,11.8,10.9,20.4-0.4,20.4c-16.7,0-88.8-23.2-117.5-38c-16.2-8.3-34.9-21.8-36.4-26.1c-0.8-2.6,1.7-4.4,5.4-3.7
		C1324,2080.2,1330.3,2082.3,1336.5,2084.6z"/>
	<path class="st3" d="M1402.7,800.5c-35-23.2-61.7-33.6-101.3-39.3c-8.2-1.2-18.8-1.5-50.4-1.7c-1.5,0-3,0-4.5,0v35.7
		c4.6,0.1,13.8,0.8,21.6,1.7c48.4,5.6,93.9,15.8,113.6,25.7c14.2,7.1,17.7,15.1,8.6,19.3c-5,2.3-17.2,2.3-31.5,0.4
		c-11.4-1.5-55.2-10-84.4-16.3c-13-2.8-20.4-4.2-27.9-4.2v44c61.4,0,87.5,1.7,117,7.6c30.9,6.2,65,9.9,91.6,9.9
		c9.1,0,16.6-2.3,20.3-6.3C1486.4,864.9,1463.2,840.5,1402.7,800.5z"/>
	<path class="st4" d="M2092.1,1313c-5.8-15.1-18.9-27.3-48.7-44.8c-25-14.8-45.4-27.4-54.5-33.8c-11-7.7-25.1-21.7-27.7-27.4
		c-4-8.6-1.4-17.4,6.1-21.2c8.3-4.1,17.8-2.3,47.4,9.7c27.2,11,34.1,12.6,38.5,8.7c6.2-5.3,4.1-20.4-6.4-47.3
		c-6.3-15.8-29.6-67.9-35.1-78.4c-11.9-22.5-28-42.8-43.6-54.8c-4.2-3.3-13.9-11-21.4-17.1c-68.2-54.9-123-83-179.4-91.9
		c-55.2-8.8-123-4-190.3,13.4c-35,9.1-44,9.5-68.4,3.2c-19.4-5-36.9-8.5-47.8-9.4c-4.4-0.4-16.7-0.5-27.4-0.1
		c-12.6,0.4-99.9,0.6-187.2,0.6v67.4c52.9-0.3,156.3-5.9,198.9-11.1c17.2-2.1,37-2.6,47.3-1.3c11.3,1.4,18.4,3.6,25.2,7.7l5.4,3.2
		l10.8-1c5.9-0.5,21-2.1,33.3-3.2c12.4-1.2,33-2.8,45.9-3.6c12.9-0.8,36.5-2.4,52.7-3.7c16.1-1.3,39.6-2.5,52.2-2.8
		c21.5-0.4,23.9-0.3,39.1,1.9c26.5,4,38.2,7.1,47.7,13c3.6,2.2,13,10.9,13,12c0,0.3-3.3-0.2-7.4-1.2c-22-5.1-52.9-9.3-80.5-10.7
		c-47.6-2.6-71.7,4.2-80.9,23c-2.3,4.6-2.6,6.6-3,15c-1,24,8.8,43.9,34,69.2c18.9,18.9,38.5,33.2,80.1,58.2
		c62.3,37.5,102.7,59,158,84c31.9,14.5,38.1,17.6,40.1,21.1c2.1,3.4,2.1,3.6,0.3,5.4c-3.5,3.6-8.1,1.9-56.1-20.8
		c-45.9-21.7-82.2-40.5-116.6-60.7c-72.4-42.3-104.8-63.7-119.3-78.8c-9.6-10-21.5-26.3-45.8-62.8c-16.9-25.3-21.3-30.4-30.4-34.8
		c-5-2.5-7.1-3-14.1-3.2c-6.8-0.4-9-0.1-12.4,1.4c-6.1,2.7-7.3,5-6.8,13.7c0.8,13.6,6,21.5,54.6,83.7c25.7,32.9,55.9,70.6,72.5,90.4
		c17.8,21.3,40.1,44.5,112.6,116.6c55.7,55.4,61.6,60.9,78.7,74.5c29,22.9,39.2,31.3,42.7,35.2c11.1,12.2-8.4,5.8-34.9-11.7
		c-32.4-21.3-48.3-35.4-117.5-103.9c-73.8-73.3-125.7-127.8-147.3-154.8c-28.3-35.2-52.6-72.6-69.7-106.6
		c-5-10.2-11.1-21.3-13.3-24.8c-5.7-8.6-15.7-18.3-22.4-21.9c-10.6-5.6-14.8-6.7-28.6-7.1c-11.8-0.4-14.3-0.2-37.8,3.7
		c-94.7,15.4-153.5,22-200.3,22v27.9c2.7,0,5.4-0.1,8.5-0.2c10.9-0.3,52.7-3,92.7-5.9c96-7.2,108.5-7.8,115.8-6.5
		c20,4,44.2,21.7,75.7,55.4c6.8,7.4,21.1,23.2,31.5,35.1c56.4,64.4,109.3,121,168.9,180.6c21.1,21.1,46.8,46.2,57.2,55.7
		c25.6,23.6,64.3,62.5,72.5,72.9c13.5,17,20.1,28.1,25.7,43.6c6.6,17.7,10.3,23.9,20.5,34.3c7.6,7.6,10.3,9.7,16.7,12.9
		c8.5,4.1,18.5,6.7,23.4,5.9c7.6-1.4,20.7-11.3,37.8-28.8c4-4.1,7.1-6,16-10.3c13.9-6.6,20.2-11,30.1-21.2c9.3-9.7,11-12.6,10.3-18
		c-0.8-7.6-8.9-14.7-26.1-23.1c-12.6-6.1-25.8-11.4-61.8-24.6c-15.6-5.7-33.2-12.6-39.2-15.2c-38.2-17.2-88.7-52.6-128.3-90
		c-36.3-34.3-71.1-81.1-80-107.6c-2.8-8.2-2.2-14.3,1.7-18.2c2.7-2.8,3.1-2.9,9.8-2.8c14,0.2,26.7,6.5,83.9,41.3
		c26.5,16.1,40.1,23.8,96.8,54.4c69.4,37.5,79.8,43.7,105.8,61.7c21.2,14.8,32.4,21.6,41.8,25.5c10.6,4.4,21.1,5.2,27.1,2.1
		c3.5-1.9,8.2-8,10.3-13.3C2094.4,1331.1,2094.6,1319.5,2092.1,1313z M1927.8,1176.2c-1.5,1.4-2.9,1.5-8.7,1.1
		c-13.3-0.9-36.8-9.4-72.7-26.3c-22.3-10.5-28.3-12.7-45.1-16.6c-19.9-4.6-30.3-8.9-44.6-18.6c-38.1-25.9-60.3-62.7-50.3-83.4
		c5.8-11.9,24.2-17.5,41.4-12.6c11.2,3.1,22.9,10.6,42.7,27.2c34.1,28.7,39.9,33.4,55.1,44.9c47.4,35.7,73.8,59.7,81.4,74
		C1930.1,1172,1930.2,1173.9,1927.8,1176.2z"/>
	<path class="st39" d="M1709.3,1456.8c-3-1.8-34.5-27.3-44.3-35.7c-51.3-44.2-73.1-67.1-139.8-147.2c-47.2-56.6-61.9-73.4-73.8-83.5
		c-14.5-12.4-25.7-17.9-47.9-23.6c-29.9-7.6-41.7-8.6-92.7-8.2c-27.5,0.3-47.2,0.4-64.3,0.5v21.7c88.9,0,109.1,0.6,123.6,3.7
		c26.5,5.5,56.5,23,89.3,51.9c17.1,15,30.4,29.1,57.6,60.9c70,82,101.4,115.6,119.3,127.4c11.3,7.6,24.7,15.1,36.7,20.8
		c12.7,5.9,34.4,14.7,36.3,14.7C1711.4,1460.1,1711.4,1458.2,1709.3,1456.8z"/>
	<path class="st5" d="M1841.9,1541.3c-0.9-5.2-5.3-13.1-15-27.2c-32.9-47.5-66.6-82.4-95.5-99.2c-61.6-35.6-122.6-94.1-203.2-194.7
		c-12.2-15.3-23.3-29.9-35.9-47.3c-7.8-10.8-20.3-23.9-28.8-30.1c-7.2-5.3-17.3-10.4-25.7-13.1c-12.5-4-42.1-3.6-118.8,1.5
		c-24.8,1.7-49,2.5-72.5,2.5v24.4c1.5,0,3,0,4.5,0c97.2,0.1,110.5,0.3,120.1,1.6c41.4,5.8,63.6,14.8,84.6,33.9
		c8.6,7.8,26.3,28.1,64.4,73.7c73,87.3,93.2,108.8,142.2,151c14,12,39.7,32.8,49.7,40.1c3.3,2.4,5.9,4.6,5.8,4.8
		c-0.5,0.5-19.8-6.8-31.9-11.9c-14.8-6.4-35.7-17.5-47.5-25.2c-8.8-5.8-13.6-9.9-26.6-22.9c-21.6-21.7-54.7-58.8-98.5-110.3
		c-20.6-24.2-35-39.6-48.8-52c-37-33.5-68.8-52.1-97-56.8c-14.9-2.5-42.7-3.2-121-3.2v34.6c43.4-0.1,84.8,3.4,117.9,10
		c32.3,6.5,62.4,16.9,83,28.8c32.7,18.7,45.5,32.3,106.2,113.3c28.3,37.6,46.1,60.5,54.3,69.6c5.5,6,17.3,16.1,28.7,24.4
		c37.1,26.8,108.5,62.3,167.1,83c16,5.6,21.7,6.7,28.9,5.2C1840,1548.6,1842.8,1546,1841.9,1541.3z"/>
	<path class="st40" d="M1450.1,1289.7c-1.6-1-21.9-4.1-34.8-5.5c-35.4-3.6-105.4-6-168.8-6.2v54.3c38.6,0,77.1-2.2,113.4-6.8
		c38-4.8,63.6-11,77.9-18.9c7-3.9,13-10.2,13-13.8C1450.8,1291.4,1450.4,1290,1450.1,1289.7z"/>
	<path class="st39" d="M1493.6,1337.7c-0.6,0-2.5,1.1-4.2,2.3c-11.4,8.6-32.4,14.8-59.8,17.8c-26.5,2.9-116.9,9.1-163.5,11.3
		c-6.6,0.3-13.1,0.4-19.6,0.4v13.1c22.6,0,45.1-2.3,94-6.9c38.5-3.7,47-4.2,66.6-4.2c19.4-0.1,24,0.2,33.8,2
		c6.2,1.1,18.2,3.2,26.6,4.7c22.8,4.1,51.8,4.9,51.8,1.3C1519.2,1377.7,1494.8,1337.7,1493.6,1337.7z"/>
	<path class="st41" d="M1520.3,1381.7c-0.4-0.3-4.5-0.1-9.2,0.4c-11.1,1.3-25.1,0-50.6-4.6c-41.9-7.6-49-7.7-120-1.2
		c-27.2,2.5-57.8,5.3-67.9,6.1c-9.6,0.8-16.8,1.2-26.1,1.1v36.6c109.1,0,120.9-0.5,153.9-7.7c35-7.5,61-10.5,75.1-9
		c13.6,1.6,22.7,5.9,43.3,21.1c6.4,4.7,13.7,9.7,16.2,11.3c5.2,3.1,11.3,4.7,11.3,2.8C1546.2,1437.3,1521.3,1382.7,1520.3,1381.7z"
		/>
	<path class="st6" d="M1545.4,1440.3c-3.1,0-12.6-5.4-22.9-13c-26.7-19.5-33.6-22.7-51-23.7c-15.2-0.8-36.1,1.9-71.5,9.3
		c-33.9,7-51.1,7.9-152.6,8c-0.3,0-0.6,0-0.9,0v47.3c52.7,0,85-3,132.3-12.1c11.2-2.2,26.6-4.6,34.2-5.4
		c34.6-3.5,95.9-2.3,144.3,2.8c4.2,0.4,5.1,0.4,5.1-0.7C1562.4,1451.1,1547.6,1440.3,1545.4,1440.3z"/>
	<path class="st7" d="M1892.7,1568.1c-1-1.3-1.8-3-1.8-3.9c0-2.2-16.3-34.6-24.3-48.3c-35.6-61.3-79.3-110.2-143.6-160.6
		c-37.2-29.1-76.9-72.9-158.8-174.7c-30-37.3-36.5-44.7-50-58c-20.5-20-36.2-29.5-54.1-32.9c-9.2-1.7-15.9-1.6-59.4,1
		c-89.7,5.4-126.2,7.3-154.2,7.4v35.2c23.1,0,46.8-1.6,97.2-4.9c15.2-1,35.5-1.5,56.3-1.6c31.8,0,32.5,0,38.3,2.1
		c15.7,5.7,26.2,12.6,39.1,25.7c5.5,5.5,12.3,13.4,15.3,17.6c24,33.6,62,80.5,98.4,121.6c41.7,47.3,97.6,95.7,134.3,116.6
		c32.8,18.6,63.5,49.1,97.4,96.6c21.8,30.6,24.7,38.5,15.6,42.6c-9.7,4.3-15.8,3.4-41.9-6.1c-27.4-10.1-51.1-20.3-83.3-36.3
		c-51.9-25.7-84.5-46.8-104.4-67.6c-9.9-10.3-20.1-23.2-56.7-71.9c-57.6-76.5-70.7-91-96.7-107.1c-37.1-23-83.7-35.7-152.6-41.6
		c-10.4-0.9-33.1-1.3-56.3-1.2v60.4c81.2,0,124,1.5,167.8,5.8c31.1,3.2,41.3,6,53.8,15.3c8.1,6,13.6,13.4,22.3,30.1
		c2.6,4.9,10,17.7,16.5,28.4c11.3,18.5,14.1,24.3,32.9,65.3l8.2,18l12.9,9.5c25.9,19.4,41.7,36.9,47,52.3l1.6,4.9l9.1,0.5
		c15.7,0.9,27.7,5.1,75.3,26.7c46.5,21.1,82.9,39.4,101.4,51l9.4,5.8h20c36.5-0.1,58.3-3.8,66.8-11.2c2.6-2.3,3.1-3.3,3.1-6.5
		C1894.5,1571.8,1893.8,1569.5,1892.7,1568.1z"/>
	<path class="st8" d="M2137,1280c-1.8-3.4-1.6-4.3,0.9-4.3c4.1,0,7.7-6.8,10.5-19.3c2-9.1,1.5-35.6-0.9-49.3
		c-10.2-58.2-41.6-111.1-99.6-168c-54.8-53.7-124.2-96.3-212.8-130.5c-58.7-22.7-124.9-33.7-203.4-33.6c-31.6,0-45.5,0.7-68,3.9
		c-29.4,4-76.4,5.9-114.8,4.5c-35.3-1.2-59.8-3.9-82.8-9c-23.3-5.2-56.3-7.7-107.6-8.4c-4,0-8.2-0.1-12.2-0.1v55.7
		c67,0,143.6-0.2,170.1-0.4l48.1-0.4l12.6,2.4c6.9,1.4,20.7,4.4,30.6,6.8c25.8,6.5,34.2,6.1,67-2.3c48.8-12.5,91.4-18.4,135.5-18.4
		c69.8,0,120.4,15.9,184.8,58.3c26.2,17.3,75.6,55.8,87.4,68.2c10.6,11.2,20.3,24.7,29.3,40.9c5.1,9.4,31.4,68.1,37.5,84
		c13.3,34.7,11,49.6-7.1,45.8c-2.8-0.5-14.6-4.9-26.3-9.5c-24.8-10-30.5-11.6-39.9-11.7c-5.7-0.1-7.4,0.3-9.5,1.8
		c-12.2,9.1-7,23.7,14.5,40.3c11,8.5,21.8,15.5,49,31.9c13.7,8.1,28.3,17.2,32.5,20.1c22.8,15.6,33.4,31.6,32.1,48.2
		c-0.8,10.8-6.4,21.1-13.3,24.8c-8.5,4.3-17.6,3-33.7-4.9c-10.5-5.2-15.8-8.6-38.7-24.6c-22.5-15.7-35.4-23.1-107.1-61.9
		c-53.3-28.8-66.7-36.4-96.7-54.7c-33.8-20.5-39.8-24-51.8-29.9c-14.2-6.8-20.4-8.8-28.2-8.9c-6.2-0.1-6.8,0.1-8.7,2.4
		c-3.1,3.5-3.6,7.8-1.9,14.8c5.3,22,40.5,71.1,74.6,104.3c34.8,33.8,77,65.4,113.1,84.8c16.5,8.8,27.6,13.7,54.5,23.5
		c59.8,21.9,78.3,30.4,88.3,40.7c9.2,9.4,7.6,16.1-7.3,30.9c-9,8.9-18.8,15.5-29.7,20c-7.8,3.2-8.7,3.9-21.7,16.5
		c-25.6,24.8-32,26.8-53.1,16.7c-18.4-8.9-30.2-22.9-38.7-46.3c-11.8-32.5-31.1-55.6-99.9-119.4c-61.4-57-150.8-150.4-225-235.3
		c-25.3-29-57.1-61.5-69.4-70.8c-10.9-8.3-20.8-13.9-29.6-17c-11-3.8-9.9-3.9-130.5,5c-63,4.6-82.9,6-94,6.1v52.8
		c42.6,0,45.6-0.1,131.4-5.3c61.6-3.8,68.9-4,76.9-3.1c19.7,2.4,39.5,13.8,60.8,34.9c12.1,12.1,19.6,20.8,47.8,55.9
		c42.4,52.7,75.7,92.4,98.7,117.7c17.9,19.6,43.4,44.3,56.1,54.2c37.4,29.3,72.8,62.3,94.7,88.2c28.8,34.2,51,68.2,71.1,108.7
		l9.9,20.1l5.3,2.6c11.9,6,28,9.9,41.3,9.9c39.9,0,77.8-26.4,125.4-87c11.3-14.5,17.6-24,22.6-34.5c6.6-13.5,8.2-25.3,4.5-32.5
		c-1.2-2.3-5.5-6.4-9-8.6c-1.5-1-1.4-1.1,1.1-1.1c3.4-0.1,12.5-3.4,21.3-7.8c36.5-18.4,50.3-52.9,40.1-100
		C2144.5,1300.7,2139.4,1284.6,2137,1280z"/>
	<path id="structure3_label2_PCRt" bar:growlevel="0" bar:type="" class="st42" d="M1512,1682.4c-9.7,5.8-23.4,11.2-33.8,13.2
		c-9.5,1.9-37.3,2.2-49.9,0.4c-5.6-0.8-7.9-0.8-8.8-0.1c-2.5,2.2-1.1,4,7.1,8.5c10.6,5.8,39.9,25.1,52.5,34.6
		c61,46.1,112.1,99.9,140.5,148.1c4,6.6,7.6,12,8.1,12.1c0.5,0,1.3-1.9,1.5-4.2c0.5-5,2.3-6.6,7.3-6.6c7.6,0,15,5.8,19,14.8
		c4.7,10.6,10.3,27.2,10.9,31.5l0.5,4.7l4.7,1.6c6.5,2.3,15.4,7.7,22.9,14c3.5,3,6.8,5.4,7.3,5.4c0.5,0,1.8-1.7,3-3.9
		c1.4-2.6,3.2-4.3,5.9-5.6c2.6-1.2,4-2.5,4.4-4c2.7-11.4,7.6-17.7,15-19.6c2.3-0.6,4.2-1.5,4.2-2.1c0-0.5-1.5-2.9-3.4-5.2
		c-13.1-15.8-20-33.2-27.2-68.5c-4.2-21.2-6.8-30.4-11.8-43.4c-7.1-18.3-17.1-34.3-28.7-45.7c-8.5-8.5-23.2-18.6-63.7-44
		c-35.9-22.5-50.5-30.8-64-36.2C1522.2,1677,1521.2,1677,1512,1682.4z"/>
	<path class="st9" d="M1402.7,800.5c-35-23.2-61.7-33.6-101.3-39.3c-8.2-1.2-18.8-1.5-50.4-1.7c-1.5,0-3,0-4.5,0v35.7
		c4.6,0.1,13.8,0.8,21.6,1.7c48.4,5.6,93.9,15.8,113.6,25.7c14.2,7.1,17.7,15.1,8.6,19.3c-5,2.3-17.2,2.3-31.5,0.4
		c-11.4-1.5-55.2-10-84.4-16.3c-13-2.8-20.4-4.2-27.9-4.2v44c61.4,0,87.5,1.7,117,7.6c30.9,6.2,65,9.9,91.6,9.9
		c9.1,0,16.6-2.3,20.3-6.3C1486.4,864.9,1463.2,840.5,1402.7,800.5z"/>
	<path class="st39" d="M1913.4,1236.8c-44.5-20.1-78.3-37.9-130.6-68.4c-56.7-33.2-78.8-48.5-100.5-69.6
		c-18-17.4-28.3-32.7-33.9-49.9c-2.2-6.5-2.5-9.3-2.6-18c0-8.8,0.3-11.2,2.1-15.6c5.2-13.3,16-20.6,36.5-25.1
		c8.4-1.8,54-1.5,71.1,0.5c16.3,2,38.1,5.4,49.2,7.8c4.6,1,8.8,1.8,9.5,1.8c4.3,0-4-8.4-12.5-12.7c-7.8-4-18.5-6.8-37.7-9.7
		c-29.5-4.6-38.2-4.6-103.9,0.4c-16.3,1.2-37,2.6-45.9,3.1c-20,1.2-42.1,3.1-69.5,5.9l-20.9,2.2l-4.5-3.1
		c-5.2-3.4-13.2-6.3-21.7-7.6c-9.5-1.4-34.6-1.1-52.5,0.9c-53,5.7-142.8,10.5-198.6,10.9v23.1c20-0.1,41.9-0.9,54.9-2.1
		c43.5-4,92.1-10.4,148.1-20c16.3-2.7,22-3.3,32.4-3.3c11.4,0,13.2,0.3,19.8,2.5c20.7,7.1,31.8,19.3,48,52.7
		c20.8,42.8,58.7,96.6,98.4,139.5c49.8,53.8,159.5,163.5,191.6,191.7c12.1,10.5,35.9,28.4,47.9,36c12.2,7.7,25.5,14.2,30.2,14.9
		c10,1.5,1.7-6.6-39-38.3c-18.5-14.5-20.3-16.3-97.7-93.6c-59-59-82-82.6-91.6-94.1c-25.3-30.1-85.5-105.9-113.7-143.3
		c-14.5-19.3-20.9-33.2-19.3-42c2.7-14.4,27.3-15,43.5-1c2.3,2,10.3,13,20.3,27.6c26.9,40.2,40.8,58.9,50,67.4
		c16.1,15.1,59.8,43,135.8,86.8c32.3,18.7,136.6,69.3,146.5,71.1c4.7,0.9,6.8-0.1,6.8-3.2
		C1959.3,1257.9,1956.3,1256.2,1913.4,1236.8z"/>
	<path id="structure49_label48_rs" bar:growlevel="0" bar:type="" class="st43" d="M1725.2,1929.8c-2.6,1.7-4.9,4.2-6.7,7.5
		c-2.5,4.5-2.7,5.6-2.7,13.9c0,8,0.3,9.5,2.4,13.6c4.3,8.3,10.6,11.8,19.1,10.8c8.9-1,13.3-7.1,13.9-19.4c0.4-8.9-0.5-13.2-4.2-19.1
		C1741,1927.5,1733,1924.9,1725.2,1929.8z"/>
	<path class="st35" d="M2092.1,1313c-5.8-15.1-18.9-27.3-48.7-44.8c-25-14.8-45.4-27.4-54.5-33.8c-11-7.7-25.1-21.7-27.7-27.4
		c-4-8.6-1.4-17.4,6.1-21.2c8.3-4.1,17.8-2.3,47.4,9.7c27.2,11,34.1,12.6,38.5,8.7c6.2-5.3,4.1-20.4-6.4-47.3
		c-6.3-15.8-29.6-67.9-35.1-78.4c-11.9-22.5-28-42.8-43.6-54.8c-4.2-3.3-13.9-11-21.4-17.1c-68.2-54.9-123-83-179.4-91.9
		c-55.2-8.8-123-4-190.3,13.4c-35,9.1-44,9.5-68.4,3.2c-19.4-5-36.9-8.5-47.8-9.4c-4.4-0.4-16.7-0.5-27.4-0.1
		c-12.6,0.4-99.9,0.6-187.2,0.6v67.4c52.9-0.3,156.3-5.9,198.9-11.1c17.2-2.1,37-2.6,47.3-1.3c11.3,1.4,18.4,3.6,25.2,7.7l5.4,3.2
		l10.8-1c5.9-0.5,21-2.1,33.3-3.2c12.4-1.2,33-2.8,45.9-3.6c12.9-0.8,36.5-2.4,52.7-3.7c16.1-1.3,39.6-2.5,52.2-2.8
		c21.5-0.4,23.9-0.3,39.1,1.9c26.5,4,38.2,7.1,47.7,13c3.6,2.2,13,10.9,13,12c0,0.3-3.3-0.2-7.4-1.2c-22-5.1-52.9-9.3-80.5-10.7
		c-47.6-2.6-71.7,4.2-80.9,23c-2.3,4.6-2.6,6.6-3,15c-1,24,8.8,43.9,34,69.2c18.9,18.9,38.5,33.2,80.1,58.2
		c62.3,37.5,102.7,59,158,84c31.9,14.5,38.1,17.6,40.1,21.1c2.1,3.4,2.1,3.6,0.3,5.4c-3.5,3.6-8.1,1.9-56.1-20.8
		c-45.9-21.7-82.2-40.5-116.6-60.7c-72.4-42.3-104.8-63.7-119.3-78.8c-9.6-10-21.5-26.3-45.8-62.8c-16.9-25.3-21.3-30.4-30.4-34.8
		c-5-2.5-7.1-3-14.1-3.2c-6.8-0.4-9-0.1-12.4,1.4c-6.1,2.7-7.3,5-6.8,13.7c0.8,13.6,6,21.5,54.6,83.7c25.7,32.9,55.9,70.6,72.5,90.4
		c17.8,21.3,40.1,44.5,112.6,116.6c55.7,55.4,61.6,60.9,78.7,74.5c29,22.9,39.2,31.3,42.7,35.2c11.1,12.2-8.4,5.8-34.9-11.7
		c-32.4-21.3-48.3-35.4-117.5-103.9c-73.8-73.3-125.7-127.8-147.3-154.8c-28.3-35.2-52.6-72.6-69.7-106.6
		c-5-10.2-11.1-21.3-13.3-24.8c-5.7-8.6-15.7-18.3-22.4-21.9c-10.6-5.6-14.8-6.7-28.6-7.1c-11.8-0.4-14.3-0.2-37.8,3.7
		c-94.7,15.4-153.5,22-200.3,22v27.9c2.7,0,5.4-0.1,8.5-0.2c10.9-0.3,52.7-3,92.7-5.9c96-7.2,108.5-7.8,115.8-6.5
		c20,4,44.2,21.7,75.7,55.4c6.8,7.4,21.1,23.2,31.5,35.1c56.4,64.4,109.3,121,168.9,180.6c21.1,21.1,46.8,46.2,57.2,55.7
		c25.6,23.6,64.3,62.5,72.5,72.9c13.5,17,20.1,28.1,25.7,43.6c6.6,17.7,10.3,23.9,20.5,34.3c7.6,7.6,10.3,9.7,16.7,12.9
		c8.5,4.1,18.5,6.7,23.4,5.9c7.6-1.4,20.7-11.3,37.8-28.8c4-4.1,7.1-6,16-10.3c13.9-6.6,20.2-11,30.1-21.2c9.3-9.7,11-12.6,10.3-18
		c-0.8-7.6-8.9-14.7-26.1-23.1c-12.6-6.1-25.8-11.4-61.8-24.6c-15.6-5.7-33.2-12.6-39.2-15.2c-38.2-17.2-88.7-52.6-128.3-90
		c-36.3-34.3-71.1-81.1-80-107.6c-2.8-8.2-2.2-14.3,1.7-18.2c2.7-2.8,3.1-2.9,9.8-2.8c14,0.2,26.7,6.5,83.9,41.3
		c26.5,16.1,40.1,23.8,96.8,54.4c69.4,37.5,79.8,43.7,105.8,61.7c21.2,14.8,32.4,21.6,41.8,25.5c10.6,4.4,21.1,5.2,27.1,2.1
		c3.5-1.9,8.2-8,10.3-13.3C2094.4,1331.1,2094.6,1319.5,2092.1,1313z M1927.8,1176.2c-1.5,1.4-2.9,1.5-8.7,1.1
		c-13.3-0.9-36.8-9.4-72.7-26.3c-22.3-10.5-28.3-12.7-45.1-16.6c-19.9-4.6-30.3-8.9-44.6-18.6c-38.1-25.9-60.3-62.7-50.3-83.4
		c5.8-11.9,24.2-17.5,41.4-12.6c11.2,3.1,22.9,10.6,42.7,27.2c34.1,28.7,39.9,33.4,55.1,44.9c47.4,35.7,73.8,59.7,81.4,74
		C1930.1,1172,1930.2,1173.9,1927.8,1176.2z"/>
	<path class="st36" d="M1841.9,1541.3c-0.9-5.2-5.3-13.1-15-27.2c-32.9-47.5-66.6-82.4-95.5-99.2c-61.6-35.6-122.6-94.1-203.2-194.7
		c-12.2-15.3-23.3-29.9-35.9-47.3c-7.8-10.8-20.3-23.9-28.8-30.1c-7.2-5.3-17.3-10.4-25.7-13.1c-12.5-4-42.1-3.6-118.8,1.5
		c-24.8,1.7-49,2.5-72.5,2.5v24.4c1.5,0,3,0,4.5,0c97.2,0.1,110.5,0.3,120.1,1.6c41.4,5.8,63.6,14.8,84.6,33.9
		c8.6,7.8,26.3,28.1,64.4,73.7c73,87.3,93.2,108.8,142.2,151c14,12,39.7,32.8,49.7,40.1c3.3,2.4,5.9,4.6,5.8,4.8
		c-0.5,0.5-19.8-6.8-31.9-11.9c-14.8-6.4-35.7-17.5-47.5-25.2c-8.8-5.8-13.6-9.9-26.6-22.9c-21.6-21.7-54.7-58.8-98.5-110.3
		c-20.6-24.2-35-39.6-48.8-52c-37-33.5-68.8-52.1-97-56.8c-14.9-2.5-42.7-3.2-121-3.2v34.6c43.4-0.1,84.8,3.4,117.9,10
		c32.3,6.5,62.4,16.9,83,28.8c32.7,18.7,45.5,32.3,106.2,113.3c28.3,37.6,46.1,60.5,54.3,69.6c5.5,6,17.3,16.1,28.7,24.4
		c37.1,26.8,108.5,62.3,167.1,83c16,5.6,21.7,6.7,28.9,5.2C1840,1548.6,1842.8,1546,1841.9,1541.3z"/>
	<path class="st37" d="M2092.1,1313c-5.8-15.1-18.9-27.3-48.7-44.8c-25-14.8-45.4-27.4-54.5-33.8c-11-7.7-25.1-21.7-27.7-27.4
		c-4-8.6-1.4-17.4,6.1-21.2c8.3-4.1,17.8-2.3,47.4,9.7c27.2,11,34.1,12.6,38.5,8.7c6.2-5.3,4.1-20.4-6.4-47.3
		c-6.3-15.8-29.6-67.9-35.1-78.4c-11.9-22.5-28-42.8-43.6-54.8c-4.2-3.3-13.9-11-21.4-17.1c-68.2-54.9-123-83-179.4-91.9
		c-55.2-8.8-123-4-190.3,13.4c-35,9.1-44,9.5-68.4,3.2c-19.4-5-36.9-8.5-47.8-9.4c-4.4-0.4-16.7-0.5-27.4-0.1
		c-12.6,0.4-99.9,0.6-187.2,0.6v67.4c52.9-0.3,156.3-5.9,198.9-11.1c17.2-2.1,37-2.6,47.3-1.3c11.3,1.4,18.4,3.6,25.2,7.7l5.4,3.2
		l10.8-1c5.9-0.5,21-2.1,33.3-3.2c12.4-1.2,33-2.8,45.9-3.6c12.9-0.8,36.5-2.4,52.7-3.7c16.1-1.3,39.6-2.5,52.2-2.8
		c21.5-0.4,23.9-0.3,39.1,1.9c26.5,4,38.2,7.1,47.7,13c3.6,2.2,13,10.9,13,12c0,0.3-3.3-0.2-7.4-1.2c-22-5.1-52.9-9.3-80.5-10.7
		c-47.6-2.6-71.7,4.2-80.9,23c-2.3,4.6-2.6,6.6-3,15c-1,24,8.8,43.9,34,69.2c18.9,18.9,38.5,33.2,80.1,58.2
		c62.3,37.5,102.7,59,158,84c31.9,14.5,38.1,17.6,40.1,21.1c2.1,3.4,2.1,3.6,0.3,5.4c-3.5,3.6-8.1,1.9-56.1-20.8
		c-45.9-21.7-82.2-40.5-116.6-60.7c-72.4-42.3-104.8-63.7-119.3-78.8c-9.6-10-21.5-26.3-45.8-62.8c-16.9-25.3-21.3-30.4-30.4-34.8
		c-5-2.5-7.1-3-14.1-3.2c-6.8-0.4-9-0.1-12.4,1.4c-6.1,2.7-7.3,5-6.8,13.7c0.8,13.6,6,21.5,54.6,83.7c25.7,32.9,55.9,70.6,72.5,90.4
		c17.8,21.3,40.1,44.5,112.6,116.6c55.7,55.4,61.6,60.9,78.7,74.5c29,22.9,39.2,31.3,42.7,35.2c11.1,12.2-8.4,5.8-34.9-11.7
		c-32.4-21.3-48.3-35.4-117.5-103.9c-73.8-73.3-125.7-127.8-147.3-154.8c-28.3-35.2-52.6-72.6-69.7-106.6
		c-5-10.2-11.1-21.3-13.3-24.8c-5.7-8.6-15.7-18.3-22.4-21.9c-10.6-5.6-14.8-6.7-28.6-7.1c-11.8-0.4-14.3-0.2-37.8,3.7
		c-94.7,15.4-153.5,22-200.3,22v27.9c2.7,0,5.4-0.1,8.5-0.2c10.9-0.3,52.7-3,92.7-5.9c96-7.2,108.5-7.8,115.8-6.5
		c20,4,44.2,21.7,75.7,55.4c6.8,7.4,21.1,23.2,31.5,35.1c56.4,64.4,109.3,121,168.9,180.6c21.1,21.1,46.8,46.2,57.2,55.7
		c25.6,23.6,64.3,62.5,72.5,72.9c13.5,17,20.1,28.1,25.7,43.6c6.6,17.7,10.3,23.9,20.5,34.3c7.6,7.6,10.3,9.7,16.7,12.9
		c8.5,4.1,18.5,6.7,23.4,5.9c7.6-1.4,20.7-11.3,37.8-28.8c4-4.1,7.1-6,16-10.3c13.9-6.6,20.2-11,30.1-21.2c9.3-9.7,11-12.6,10.3-18
		c-0.8-7.6-8.9-14.7-26.1-23.1c-12.6-6.1-25.8-11.4-61.8-24.6c-15.6-5.7-33.2-12.6-39.2-15.2c-38.2-17.2-88.7-52.6-128.3-90
		c-36.3-34.3-71.1-81.1-80-107.6c-2.8-8.2-2.2-14.3,1.7-18.2c2.7-2.8,3.1-2.9,9.8-2.8c14,0.2,26.7,6.5,83.9,41.3
		c26.5,16.1,40.1,23.8,96.8,54.4c69.4,37.5,79.8,43.7,105.8,61.7c21.2,14.8,32.4,21.6,41.8,25.5c10.6,4.4,21.1,5.2,27.1,2.1
		c3.5-1.9,8.2-8,10.3-13.3C2094.4,1331.1,2094.6,1319.5,2092.1,1313z M1927.8,1176.2c-1.5,1.4-2.9,1.5-8.7,1.1
		c-13.3-0.9-36.8-9.4-72.7-26.3c-22.3-10.5-28.3-12.7-45.1-16.6c-19.9-4.6-30.3-8.9-44.6-18.6c-38.1-25.9-60.3-62.7-50.3-83.4
		c5.8-11.9,24.2-17.5,41.4-12.6c11.2,3.1,22.9,10.6,42.7,27.2c34.1,28.7,39.9,33.4,55.1,44.9c47.4,35.7,73.8,59.7,81.4,74
		C1930.1,1172,1930.2,1173.9,1927.8,1176.2z"/>
	<path class="st39" d="M1913.4,1236.8c-44.5-20.1-78.3-37.9-130.6-68.4c-56.7-33.2-78.8-48.5-100.5-69.6
		c-18-17.4-28.3-32.7-33.9-49.9c-2.2-6.5-2.5-9.3-2.6-18c0-8.8,0.3-11.2,2.1-15.6c5.2-13.3,16-20.6,36.5-25.1
		c8.4-1.8,54-1.5,71.1,0.5c16.3,2,38.1,5.4,49.2,7.8c4.6,1,8.8,1.8,9.5,1.8c4.3,0-4-8.4-12.5-12.7c-7.8-4-18.5-6.8-37.7-9.7
		c-29.5-4.6-38.2-4.6-103.9,0.4c-16.3,1.2-37,2.6-45.9,3.1c-20,1.2-42.1,3.1-69.5,5.9l-20.9,2.2l-4.5-3.1
		c-5.2-3.4-13.2-6.3-21.7-7.6c-9.5-1.4-34.6-1.1-52.5,0.9c-53,5.7-142.8,10.5-198.6,10.9v23.1c20-0.1,41.9-0.9,54.9-2.1
		c43.5-4,92.1-10.4,148.1-20c16.3-2.7,22-3.3,32.4-3.3c11.4,0,13.2,0.3,19.8,2.5c20.7,7.1,31.8,19.3,48,52.7
		c20.8,42.8,58.7,96.6,98.4,139.5c49.8,53.8,159.5,163.5,191.6,191.7c12.1,10.5,35.9,28.4,47.9,36c12.2,7.7,25.5,14.2,30.2,14.9
		c10,1.5,1.7-6.6-39-38.3c-18.5-14.5-20.3-16.3-97.7-93.6c-59-59-82-82.6-91.6-94.1c-25.3-30.1-85.5-105.9-113.7-143.3
		c-14.5-19.3-20.9-33.2-19.3-42c2.7-14.4,27.3-15,43.5-1c2.3,2,10.3,13,20.3,27.6c26.9,40.2,40.8,58.9,50,67.4
		c16.1,15.1,59.8,43,135.8,86.8c32.3,18.7,136.6,69.3,146.5,71.1c4.7,0.9,6.8-0.1,6.8-3.2
		C1959.3,1257.9,1956.3,1256.2,1913.4,1236.8z"/>
	<path id="structure55_label54_sp5" bar:growlevel="0" bar:type="" class="st44" d="M1687.5,1577.7c-29.5,2.4-35.8,3.5-39.2,6.8
		c-3.9,3.7-5.1,13.8-2.4,19.4c1.5,3.4,11.7,12.5,20.3,18.5c8.2,5.6,15.9,8.7,48.1,19.4c42.5,14.2,74.9,27.3,94,38.2
		c18.9,10.6,33.1,24.1,39.9,37.9c4.9,9.9,7.1,18.4,8.5,31.7c3.3,33.1-1.9,70-14.3,101.3c-10.3,26-25.9,50.4-43.1,67.5
		c-17.5,17.4-33.2,24.4-46.1,20.5c-2-0.5-3.8-0.8-4.1-0.4c-0.3,0.3,0.4,3,1.5,5.9c1.6,4.6,1.9,6.6,1.4,11.9
		c-0.3,3.5-1.2,7.7-1.9,9.5c-2.3,5.5-2.1,5.7,5.7,5.7c9.3,0,15.8-1.8,26.7-7.2c21.6-10.7,44.6-33.4,65-64.2
		c8.6-13,18.9-32.4,23.9-45.2c10.2-25.6,14.9-58,13.9-92.7c-1.2-34-7.2-60.8-19.3-84.4c-9.1-17.8-14.3-23-26.6-26.8
		c-3.1-1-6-2.4-6.7-3.2c-0.6-0.7-1.6-4.5-2.3-8.2l-1.1-6.8l-5.9-4.9c-13.4-11.3-40-27.4-63.4-38.6c-12.2-5.8-21.2-8.4-35.6-10.2
		C1715.8,1578,1693.6,1577.1,1687.5,1577.7z M1708.7,1589.8c2,0.5,17.8,6.2,35.1,12.5c17.4,6.4,37,13.2,43.7,15.3
		c13.6,4.2,20,7.3,22.1,10.6c3,4.5,0.9,12.4-4,14.9c-12.6,6.4-48,2.1-83.6-10.3c-25.3-8.8-40.4-19-42.2-28.4
		c-0.6-3.6,1.7-8.9,5.1-11.3C1690.4,1589.1,1700.8,1587.7,1708.7,1589.8z"/>
	<path id="structure56_label55_PSol" bar:growlevel="0" bar:type="" class="st45" d="M1443,1588.2c-7.7,3.2-8.1,4.4-3,9.1
		c9.6,8.7,33.2,24.8,36.4,24.8c3.6,0,5,0.9,6.8,4.4c1.4,2.8,3,4,9.6,7c8,3.8,31.4,12,34,12c3.1,0,0.4-5.3-5.6-10.9
		c-6.3-5.8-14.9-12.2-39.9-28.7c-12.2-8.1-23.9-16-26-17.7c-2.2-1.6-4.4-2.9-4.9-2.9C1449.9,1585.4,1446.5,1586.7,1443,1588.2z"/>
	<path id="structure57_label56_SolDL" bar:growlevel="0" bar:type="" class="st46" d="M1425.2,1594.8c-3.4,1.3-13,3.9-21.3,5.9
		c-9.1,2.3-15.1,4.1-15.1,4.8c0,3.2,20.4,14.2,33.7,18c10.3,2.9,11.9,2.9,14.6-0.4c2.5-3,7.6-4.8,11.1-3.9c3.1,0.7,5.5,2.9,5.5,4.9
		c0,0.9,0.2,1.6,0.4,1.6c0.4,0,2.8-0.5,14.8-3.1c1.1-0.3,2-1,2-1.6c-0.1-0.5-5.5-4.9-12.2-9.5c-6.7-4.7-14.7-10.8-17.8-13.7
		c-3.1-3-6.5-5.2-7.5-5.2C1432.2,1592.6,1428.7,1593.6,1425.2,1594.8z"/>
	<path id="structure58_label57_E5" bar:growlevel="0" bar:type="" class="st47" d="M1830.6,1637.7c0,1.2,0.6,4.1,1.3,6.6
		c1.3,4.3,1.3,4.4,6.7,5.9c6.4,1.9,8.2,2,8.2,0.5c0-1.4-13.6-15-15.1-15C1831.1,1635.6,1830.6,1636.5,1830.6,1637.7z"/>
	<path id="structure59_label58_AmbSC" bar:growlevel="0" bar:type="" class="st48" d="M1569.5,1863.9c-13.3,4.1-22,17.1-20.2,29.9
		c1.8,12,8.9,17,22.7,16.2c10.4-0.7,22.1-7.8,25.9-15.7c4.1-8.6-2.7-25.7-12.2-30.6C1582.6,1862.1,1574.9,1862.2,1569.5,1863.9z"/>
	<path id="structure5_label4_GiV" bar:growlevel="0" bar:type="" class="st49" d="M1323.5,1959.4c-5.9,0.8-13,3.2-19.2,6.8
		c-6.5,3.7-6.6,3.7-6.1,6.9c0.3,1.7,1.5,11.4,2.9,21.6c1.3,10.2,3,22.5,3.8,27.5l1.5,8.9l26.5,3.9c14.6,2.1,38.7,5.7,53.6,7.9
		c16.1,2.4,28.2,3.9,29.9,3.5c4.9-1,6.9-4,7.3-11.4c0.5-8.2-1.4-15.5-6.6-26.5c-4.8-10.2-8.2-15.3-15.2-22.7
		c-9.6-10.1-21.8-17.5-36.4-22C1353.7,1960.1,1333.9,1958,1323.5,1959.4z"/>
	<path id="structure60_label59_Li" bar:growlevel="0" bar:type="" class="st50" d="M1632.6,1889.2c-2.2,0.9-2.7,2.3-2.7,7.3
		c0,5.7,2.7,14.3,8.4,26.3c3,6.4,5.5,10.2,10.1,15.1c6.5,6.9,9.7,9.2,13.4,9.2c3.1,0,4.1-2.3,4.1-9.4c0-4.2-0.7-8.1-2.6-13.4
		c-7.8-22.4-11.6-29.4-17.7-32.8C1641.7,1889.4,1634.9,1888.2,1632.6,1889.2z"/>
	<path class="st51" d="M1309.1,2047.4c-5.4-19.2-14.3-94.1-25.3-211.5c-1.7-18.8-3.8-37.1-4.6-40.5c-2.8-11.8-8.4-19.7-17.3-23.9
		c-3-1.4-9.5-2.3-15.5-2.5v50.3c0.1,0,0.1,0,0.2,0c2.5,0,6.7,4.5,7.9,8.6c0.6,2.2,1.3,15.8,1.9,35.5c0.5,17.5,1.3,42.5,1.8,55.4
		c2.6,59.6,2.2,91.3-1.8,135.4c-0.9,10.2-1.6,18.5-1.5,18.6c0.1,0.2,5.1-0.4,11.3-1.3l11-1.4l-0.6-4.8c-0.5-4.7-0.4-4.9,2.5-7.9
		c3.7-3.7,9.5-5.6,21.7-7.1C1309,2049.3,1309.6,2049.1,1309.1,2047.4z M1269.3,1926.2c-4.2-3.5-6.6-16.3-6.6-35.7
		c0-14.9,1-23.1,3.3-29c1.6-4.2,3.5-4.3,5.8-0.4c2.2,3.8,4.2,14.7,5.4,28.3C1279.1,1912,1275,1930.9,1269.3,1926.2z"/>
	<path id="structure66_label65_SolV" bar:growlevel="0" bar:type="" class="st52" d="M1451.3,1670.6c-1.9,3.6-6.5,7.4-9,7.4
		c-1.2,0-3.1-0.8-4.4-1.8c-5-4-8.8-1.6-13.3,8.5c-1.9,4.4-3.5,8.5-3.5,9.1c0,1.8,11.4,2.7,34.2,2.6c18.5-0.1,21-0.3,28.4-2.3
		c5.3-1.4,8.2-2.6,8.3-3.5c0.2-0.8-4.9-5.1-12.6-10.8c-10.4-7.7-13.5-9.5-16.8-10c-2.3-0.4-5.3-0.9-6.9-1.3
		C1453.1,1668,1452.6,1668.1,1451.3,1670.6z"/>
	<path id="structure67_label66_SolVL" bar:growlevel="0" bar:type="" class="st53" d="M1475.3,1662.1c-0.7,1.8-2.3,3.9-3.9,4.8
		c-1.8,1.1-2.6,2.2-2.4,3.4c0.3,1.7,23.4,20.1,25.5,20.2c0.5,0.1,5.8-2.3,11.9-5.3c7.2-3.5,12.5-6.8,15.9-10
		c6.3-5.8,6.7-7.6,1.3-6.5c-9.5,1.8-24.8-0.6-38-6.2C1476.1,1658.5,1476.5,1658.5,1475.3,1662.1z"/>
	<path class="st16" d="M1377.3,1697c-19.7-5.8-50.3-19.4-61.3-27.5c-6.6-4.9-8.9-8.4-9.7-14.3c-0.6-4.8-1-4.9-7.3-2.8
		c-5.4,1.8-14.3,7.6-24.9,16c-10.3,8.3-18.3,13.6-22.6,15.5c-1.7,0.7-3.2,1.1-5,1v83.2c4.5,0,9.2,0.9,14,2.6
		c3.1,1.1,6.1,1.7,6.5,1.4c0.6-0.6-8.8-19.6-11.1-22.2c-0.6-0.8-2.2-3.4-3.2-5.9c-1.8-4-2.1-5.8-2-15.8c0.1-13.5,1.4-19.7,7.1-31.2
		c5-10.2,13.3-19.1,21.6-23.2c4.9-2.5,6.1-2.7,14.4-2.6c5.6,0,11.2,0.6,14.8,1.6c13,3.5,26.1,12,32,20.5
		c5.8,8.5,11.9,28.2,12.7,40.9c0.4,5.2,0.9,7.5,1.7,7.5c1.7,0,12.3-12.1,18.5-20.9c5.4-8,10.7-18.1,10.7-20.5
		C1384.2,1699.5,1382,1698.4,1377.3,1697z"/>
	<path id="structure6_label5_IRt" bar:growlevel="0" bar:type="" class="st54" d="M1382.4,1705.9l-3.1,6.5l4,3.2
		c12.5,10.3,18.1,15,31.2,27.3c38.4,35.5,78.4,84.5,104,127.4c11.7,19.8,23.7,45,28.3,59.8c0.9,2.9,2.1,5.2,2.7,5.2
		c0.5,0,1.3-2,1.6-4.8c0.4-2.5,2.1-8.2,3.8-12.4c1.7-4.3,3.1-8.3,3.1-8.8c0-0.5-1.3-2.3-3.1-3.8c-4.2-3.6-6.3-10.1-5.8-17.4
		c1.1-12.9,10.6-22.8,25.1-25.8c6.3-1.4,10.6,0,16.1,5.1c5.8,5.4,9.4,13.3,9.3,20.6c0,5.3,0.1,5.5,3.4,7.9
		c9,6.5,22.4,27.9,25.7,41.1c1.8,7.1,1.3,18-0.9,22.3c-1.4,2.9-1.4,3.2,1.3,11c5.8,17.1,6.8,30.1,3.2,44.3
		c-3.9,15.3-13.4,31.4-26.9,45.5c-7.7,8.1-8.2,9.7-2.9,10.7c7,1.3,15.9-1.4,25.9-8.1c20.4-13.6,43.1-42.2,45.6-57.5
		c1.1-7,0.1-10.1-7.2-21.5c-8-12.7-18.4-33.7-23.9-48.4c-17.3-46.4-47.2-89.4-95-136.3c-40.8-40-79.8-70.5-120.9-94
		c-9.3-5.3-9.9-5.6-13-4.7c-7,2.1-11.6,2.1-25.3-0.4l-3.2-0.5L1382.4,1705.9z"/>
	<path id="structure71_label70_10N" bar:growlevel="0" bar:type="" class="st55" d="M1311.6,1656.4c-2.5,0.7-3,1.3-3,3.6
		c0,5.3,11.9,13.7,33.3,23.4c28.5,13,58.9,20.3,70.8,17.1c4.2-1.2,7.5-4.6,7.5-8c0-3.8-8.1-10.8-18-15.8
		C1374.5,1663.1,1326.2,1652.2,1311.6,1656.4z"/>
	<path id="structure76_label74_LRt" bar:growlevel="0" bar:type="" class="st30" d="M1644.3,1937.5c0,2.1,7.8,20.2,12.3,28.4
		c2.3,4.2,6.7,11.7,9.7,16.6c3.1,5,6.1,10,6.7,11.1c0.6,1.2,2.6,2.7,4.3,3.4c4.3,1.9,15.7,3.1,23,2.4l6.2-0.5l-0.5-2.8
		c-0.3-1.5-1.4-5.8-2.4-9.5c-1.3-4.4-2.1-9.7-2.3-15.3c-0.1-4.7-0.5-9.3-0.9-10.2c-1.2-2.7-14.9-13.1-22.4-16.8
		c-8.6-4.4-10.8-4.6-12.1-1c-2.2,6.1-7.3,5.2-15-2.6C1646.6,1936.2,1644.3,1935.2,1644.3,1937.5z"/>
	<path id="structure77_label75_LRtS5" bar:growlevel="0" bar:type="" class="st56" d="M1707.9,1952.8c-4,3.7-5.4,7.7-5.8,15.9
		c-0.5,8.1,0.4,13.4,3.6,23.5c1.1,3.7,2.3,6.1,3.2,6.1c2.4,0,12.5-3.8,17.3-6.5c5.4-3.1,16.3-12.9,16.3-14.7c0-0.8-2.1-1.3-7-1.4
		c-6.1-0.4-7.6-0.7-10.4-2.9c-4.8-3.7-7.6-8.4-9.4-15.8c-1.3-5.5-1.8-6.5-3.4-6.5C1711.1,1950.6,1709.2,1951.6,1707.9,1952.8z"/>
	<path class="st57" d="M1258.3,1933.5c-0.5-10.2-1.4-36.7-1.9-59c-0.9-41.3-1.4-47.8-4.4-51.8c-1.1-1.5-3.3-2.4-5.5-2.6v246.5
		c1.1,0,3.2,0.7,4.6,1.5c1.4,0.8,2.8,1.3,3.2,1c0.3-0.4,1.5-11.6,2.7-25.2c1.8-20.2,2.2-30.6,2.3-58.3
		C1259.3,1967.2,1258.8,1943.7,1258.3,1933.5z"/>
	<path id="structure7_label6_12N" bar:growlevel="0" bar:type="" class="st58" d="M1282.2,1672.9c-11.8,4.2-23.1,17.6-28.2,33.4
		c-2.9,8.8-4,27-2.2,34.6c1.5,6.4,7.2,13.7,15.6,20c21.1,15.9,42.8,18.5,64.5,7.8c10.1-5,17.3-11.9,19.3-18.7
		c3.2-10.9,1.3-28-5.2-45.3c-4.8-12.6-12.1-20.3-25.6-27.1C1309.8,1672.2,1290.8,1669.8,1282.2,1672.9z"/>
	<path id="structure80_label78_IOPr" bar:growlevel="0" bar:type="" class="st10" d="M1317.1,2081.5c-1.2,3,5.6,9.2,20.4,18.9
		c14.9,9.7,37.5,19.5,70.5,30.8c18.3,6.2,48.1,14.4,57.6,15.8c9.5,1.4,12.6,0.4,13-3.9c0.2-1.7-0.1-4.6-0.6-6.4
		c-1.4-4.6-9.2-12.8-16.9-17.8c-8.6-5.7-39.1-20.7-50.2-24.8c-9.8-3.6-25.1-7.1-35.2-8c-9.5-0.9-11.7,0.6-6.8,4.9
		c5.8,5.3,14.3,8.9,30.7,13.1c9.1,2.3,15,4.4,23,8.4c14.4,7.1,24.7,14.5,20.1,14.5c-4.1,0-40.9-14.5-73.1-28.7
		C1335.7,2083.4,1318.5,2077.8,1317.1,2081.5z"/>
	<path id="structure81_label79_IOD" bar:growlevel="0" bar:type="" class="st59" d="M1323.5,2045.6c-4.1,4-2.6,14.5,2.9,19.8
		c4.3,4.1,10.9,6.1,30.9,9.1c19.1,2.8,37.1,7.3,61.4,15.3c23.8,7.8,34.5,12.4,58.3,25c11.8,6.3,22,11,25.4,11.9
		c11.2,2.9,25.5,0.3,40.4-7.4c9.1-4.7,12.5-7.7,11.1-10.1c-2-3.1-8.7-5.8-24.8-9.7c-20.4-5-29.1-7.6-92.5-26.5
		c-63.6-19-102.2-29.7-107-29.7C1326.6,2043.3,1325.1,2043.9,1323.5,2045.6z"/>
	<path class="st60" d="M1252,2069.1c-1.2-1.1-3.4-1.8-5.5-1.9v103.1c6.8,0,10.7-8,12.7-25.8C1261.7,2121,1257.2,2073.9,1252,2069.1z
		"/>
	<path id="structure84_label82_5Sol" bar:growlevel="0" bar:type="" class="st61" d="M1614.6,1646.5c-4.7,1-12.7,3.4-17.8,5.3
		c-23.3,8.8-35.3,20-35.3,32.8c0,5.6,1.3,8.7,5.1,12.2c1.3,1.3,15.3,10.4,30.9,20.2c15.6,9.8,30.3,19.2,32.9,20.8
		c7.3,5,8.9,3.4,4-3.8c-3.7-5.4-10-18.9-12.9-27.5c-3.6-10.7-5.2-19.4-5.3-28.6c-0.1-10.6,1.7-15.7,8.8-25c2.7-3.6,4.9-7,4.9-7.5
		C1629.9,1644.2,1624,1644.6,1614.6,1646.5z"/>
	<path id="structure88_label87_icp" bar:growlevel="0" bar:type="" class="st62" d="M1708.6,1547.5c1.4,8.7,7.6,16.7,18.5,24.2
		c3,2,17,9.5,31.2,16.6c14.2,7.2,31.4,16.4,38.2,20.6c35.5,21.9,58.5,45.2,71.5,72.4c19.2,40,23.4,100.2,10.7,151.1
		c-8.1,32.2-27.4,67.1-54,97.7c-23.8,27.4-52,43.7-72.2,41.8l-5.7-0.4l-2.6,3.8c-4,5.7-11.5,12.7-17.6,16.4
		c-12.2,7.3-30.8,10.4-43.9,7.3c-3.4-0.8-6.5-1.4-6.8-1.4c-0.4,0-1,2.4-1.3,5.3c-1.5,17.4-30.5,52.6-52.2,63.7
		c-10.1,5-18.4,6.3-23.8,3.5c-10.9-5.6-26.6-40.1-35.7-78.1c-1.3-5.3-3.2-11.3-4.5-13.5c-1.9-3.4-5.4-18.6-7.2-31.3
		c-0.9-6.1-8.7-28.8-13.9-40.5c-20.4-45.9-58.8-99.1-105.2-146.2c-22.4-22.8-49.2-46.5-52.4-46.4c-0.7,0.1-3.5,3.4-6.2,7.5
		c-2.7,4-8.5,11.1-12.8,15.6c-4.4,4.5-7.9,8.8-7.9,9.5c0,0.7-1,3.4-2.3,5.9c-2,4.3-2.1,5.1-1.2,9.6c2.9,13.6-7.4,35.3-19.4,41
		c-5.7,2.7-11,3.1-18.6,1.5c-8.7-1.8-17.8-6.3-25.4-12.6c-8.5-7-9-6.8-6.6,2.2c0.7,2.7,3.6,28.3,6.3,56.7
		c5.2,53.5,10.8,108.6,11.8,114.5c0.3,1.9,0.9,3.4,1.3,3.4c0.4,0,3.7-1.6,7.4-3.5c8.8-4.9,15.4-6.4,26.5-6.4
		c38.3,0,68.9,17.4,83.6,47.3c9.6,19.6,10.9,32.8,4,38.7c-3.4,2.8-6.5,2.9-21.1,0.4c-5.9-0.9-27.8-4.1-48.6-7.1
		c-20.8-3.1-39.2-5.7-40.7-5.9c-2.6-0.5-3-0.3-3,1.5c0,1.2,0.7,5.1,1.6,8.8c1.3,5,2.3,7.5,4.4,9.5c2,2,3.1,4.2,3.9,7.9
		c2.3,11.4-1.5,16.9-12,16.8c-6.4,0-19.4-2.7-23.9-4.9c-3.7-1.8-4-1.8-14.4-0.5l-10.5,1.3l0.1,3.1c0,1.7,0.7,7.4,1.5,12.6
		c0.9,5.2,2.1,18.1,2.6,28.6l1.1,19.2l3.2-0.5c1.7-0.4,3.3-0.7,3.5-1c0.2-0.2-0.5-2.3-1.7-4.6c-2.3-5-2.3-12.2,0.4-17.6
		c4-8.2,13.9-16.1,21.9-17.4c11.2-1.7,29,6.7,57.3,27l12.9,9.3l10.3,1.5c54.8,8.2,72.4,11.8,89.7,18.4c9.8,3.7,12.8,5.7,12.8,8.4
		c0,2.3,1.3,2.1,8.9-1.1c3.6-1.4,15.9-5.8,27.4-9.5c63.5-20.8,90-31.5,133.4-53.9c39.2-20.3,94.4-53.1,124.4-74
		c64.4-44.9,110.2-106.8,129.3-175.1c7.7-27.4,10.7-49.1,10.8-78.1c0-42.5-6.3-68.2-23.6-96.1c-19.4-31.1-58.6-68.4-93.8-89.1
		c-13.6-8.1-73.2-37.7-77.4-38.5l-3-0.6L1708.6,1547.5z M1498.8,2023.5c22.2,5.8,48.7,23.1,51.9,33.9c1,3.3,0.9,4.1-0.6,6.8
		c-6.7,11.4-28.5,8.9-51.8-6c-9.4-6-14.9-10.9-19.4-16.9C1467.9,2026.2,1477.1,2017.9,1498.8,2023.5z M1335.6,2043.7
		c15.7,4.1,60,16.8,83.3,23.9c57.9,17.4,92.3,27.4,108.1,31.1c17.9,4.3,25.9,7.5,26.9,10.6c0.8,2.6-4.2,6.9-13.7,11.5
		c-14,6.8-30,9.1-39.9,5.8c-2.5-0.8-12.2-5.6-21.4-10.5c-25.7-13.7-35.4-17.8-62.8-26.7c-23.3-7.7-38.2-11.3-59.2-14.6
		c-19.1-3-23.4-4-28.7-7.6c-8.5-5.6-10-19.9-2.5-23.6C1328.6,2042.2,1329.7,2042.2,1335.6,2043.7z M1336.5,2084.6
		c6.2,2.2,21.2,8.4,33.3,13.7c24.5,10.8,63.9,26.7,68.3,27.5c5,1,3.3-2.1-3.6-6.5c-10-6.5-20.8-11-35-14.8
		c-17.7-4.7-30.9-10.7-33.4-15.6c-2-3.6,4.3-4.3,18.5-2c16.7,2.7,29.7,7.4,54.9,20c18.7,9.5,25.6,13.8,31.8,20.3
		c11,11.8,10.9,20.4-0.4,20.4c-16.7,0-88.8-23.2-117.5-38c-16.2-8.3-34.9-21.8-36.4-26.1c-0.8-2.6,1.7-4.4,5.4-3.7
		C1324,2080.2,1330.3,2082.3,1336.5,2084.6z"/>
	<path id="structure89_label88_dsc-oc" bar:growlevel="0" bar:type="" class="st63" d="M1708.6,1547.5c1.4,8.7,7.6,16.7,18.5,24.2
		c3,2,17,9.5,31.2,16.6c14.2,7.2,31.4,16.4,38.2,20.6c35.5,21.9,58.5,45.2,71.5,72.4c19.2,40,23.4,100.2,10.7,151.1
		c-8.1,32.2-27.4,67.1-54,97.7c-23.8,27.4-52,43.7-72.2,41.8l-5.7-0.4l-2.6,3.8c-4,5.7-11.5,12.7-17.6,16.4
		c-12.2,7.3-30.8,10.4-43.9,7.3c-3.4-0.8-6.5-1.4-6.8-1.4c-0.4,0-1,2.4-1.3,5.3c-1.5,17.4-30.5,52.6-52.2,63.7
		c-10.1,5-18.4,6.3-23.8,3.5c-10.9-5.6-26.6-40.1-35.7-78.1c-1.3-5.3-3.2-11.3-4.5-13.5c-1.9-3.4-5.4-18.6-7.2-31.3
		c-0.9-6.1-8.7-28.8-13.9-40.5c-20.4-45.9-58.8-99.1-105.2-146.2c-22.4-22.8-49.2-46.5-52.4-46.4c-0.7,0.1-3.5,3.4-6.2,7.5
		c-2.7,4-8.5,11.1-12.8,15.6c-4.4,4.5-7.9,8.8-7.9,9.5c0,0.7-1,3.4-2.3,5.9c-2,4.3-2.1,5.1-1.2,9.6c2.9,13.6-7.4,35.3-19.4,41
		c-5.7,2.7-11,3.1-18.6,1.5c-8.7-1.8-17.8-6.3-25.4-12.6c-8.5-7-9-6.8-6.6,2.2c0.7,2.7,3.6,28.3,6.3,56.7
		c5.2,53.5,10.8,108.6,11.8,114.5c0.3,1.9,0.9,3.4,1.3,3.4c0.4,0,3.7-1.6,7.4-3.5c8.8-4.9,15.4-6.4,26.5-6.4
		c38.3,0,68.9,17.4,83.6,47.3c9.6,19.6,10.9,32.8,4,38.7c-3.4,2.8-6.5,2.9-21.1,0.4c-5.9-0.9-27.8-4.1-48.6-7.1
		c-20.8-3.1-39.2-5.7-40.7-5.9c-2.6-0.5-3-0.3-3,1.5c0,1.2,0.7,5.1,1.6,8.8c1.3,5,2.3,7.5,4.4,9.5c2,2,3.1,4.2,3.9,7.9
		c2.3,11.4-1.5,16.9-12,16.8c-6.4,0-19.4-2.7-23.9-4.9c-3.7-1.8-4-1.8-14.4-0.5l-10.5,1.3l0.1,3.1c0,1.7,0.7,7.4,1.5,12.6
		c0.9,5.2,2.1,18.1,2.6,28.6l1.1,19.2l3.2-0.5c1.7-0.4,3.3-0.7,3.5-1c0.2-0.2-0.5-2.3-1.7-4.6c-2.3-5-2.3-12.2,0.4-17.6
		c4-8.2,13.9-16.1,21.9-17.4c11.2-1.7,29,6.7,57.3,27l12.9,9.3l10.3,1.5c54.8,8.2,72.4,11.8,89.7,18.4c9.8,3.7,12.8,5.7,12.8,8.4
		c0,2.3,1.3,2.1,8.9-1.1c3.6-1.4,15.9-5.8,27.4-9.5c63.5-20.8,90-31.5,133.4-53.9c39.2-20.3,94.4-53.1,124.4-74
		c64.4-44.9,110.2-106.8,129.3-175.1c7.7-27.4,10.7-49.1,10.8-78.1c0-42.5-6.3-68.2-23.6-96.1c-19.4-31.1-58.6-68.4-93.8-89.1
		c-13.6-8.1-73.2-37.7-77.4-38.5l-3-0.6L1708.6,1547.5z M1498.8,2023.5c22.2,5.8,48.7,23.1,51.9,33.9c1,3.3,0.9,4.1-0.6,6.8
		c-6.7,11.4-28.5,8.9-51.8-6c-9.4-6-14.9-10.9-19.4-16.9C1467.9,2026.2,1477.1,2017.9,1498.8,2023.5z M1335.6,2043.7
		c15.7,4.1,60,16.8,83.3,23.9c57.9,17.4,92.3,27.4,108.1,31.1c17.9,4.3,25.9,7.5,26.9,10.6c0.8,2.6-4.2,6.9-13.7,11.5
		c-14,6.8-30,9.1-39.9,5.8c-2.5-0.8-12.2-5.6-21.4-10.5c-25.7-13.7-35.4-17.8-62.8-26.7c-23.3-7.7-38.2-11.3-59.2-14.6
		c-19.1-3-23.4-4-28.7-7.6c-8.5-5.6-10-19.9-2.5-23.6C1328.6,2042.2,1329.7,2042.2,1335.6,2043.7z M1336.5,2084.6
		c6.2,2.2,21.2,8.4,33.3,13.7c24.5,10.8,63.9,26.7,68.3,27.5c5,1,3.3-2.1-3.6-6.5c-10-6.5-20.8-11-35-14.8
		c-17.7-4.7-30.9-10.7-33.4-15.6c-2-3.6,4.3-4.3,18.5-2c16.7,2.7,29.7,7.4,54.9,20c18.7,9.5,25.6,13.8,31.8,20.3
		c11,11.8,10.9,20.4-0.4,20.4c-16.7,0-88.8-23.2-117.5-38c-16.2-8.3-34.9-21.8-36.4-26.1c-0.8-2.6,1.7-4.4,5.4-3.7
		C1324,2080.2,1330.3,2082.3,1336.5,2084.6z"/>
	<path id="structure8_label7_Ro" bar:growlevel="0" bar:type="" class="st64" d="M1261.8,1759.7c0,2.9,12.1,20.2,18.6,26.8
		c11.5,11.6,22.8,17.3,36,18.1c12,0.8,18.5-2.7,25.7-13.6c4.7-7.3,7-15.2,7-24c0-8.3-1.2-9.5-5.1-5.8c-3.9,3.6-13.5,9.1-20.1,11.3
		c-7.2,2.4-21.1,3.3-29.1,1.8c-6.8-1.3-20-7.6-26.6-12.6C1263.1,1757.6,1261.8,1757.2,1261.8,1759.7z"/>
	<path id="structure92_label93_py" bar:growlevel="0" bar:type="" class="st65" d="M1401.8,2141.9c-0.5,0.3-14,1.6-30.1,3.2
		c-16.1,1.5-36.6,3.8-45.6,4.9c-30.4,4.2-53.7,5.2-59.4,2.5c-1.7-0.8-3.6-2.2-4.1-3.1c-1.9-2.9-3-1.8-4,4c-0.5,3.1-2.3,8.1-3.8,11
		c-1.4,2.9-2.7,5.8-2.7,6.4c0,1.4,22.4,7.3,41.8,11.2c30.2,6,48.3,7.6,77.7,7c23.7-0.4,36.3-2.1,53-6.5c24.2-6.4,46.2-17.8,46.2-24
		c0-2.1-6.7-5.3-20.9-10.1c-14.2-4.8-25.8-6.8-37.3-6.8C1407.1,2141.5,1402.3,2141.7,1401.8,2141.9z"/>
	<path id="structure97_label98_C1" bar:growlevel="0" bar:type="" class="st66" d="M1618.5,1972.1c-7.5,8.1-14.8,12.8-25.2,16
		c-9.4,3-19.1,2.8-25.6-0.4c-2.3-1.1-4.3-2-4.7-2c-1.4,0-0.4,4.8,3,17c9.4,33.1,23.7,63.7,30.2,64.7c1.4,0.2,3.8-1.7,8.4-6.6
		c27.8-29.3,35.3-57,24.3-90.3c-1-3.1-2.3-5.6-2.9-5.5C1625.4,1965.1,1622.1,1968.3,1618.5,1972.1z"/>
	<path class="st27" d="M1309.1,2047.4c-5.4-19.2-14.3-94.1-25.3-211.5c-1.7-18.8-3.8-37.1-4.6-40.5c-2.8-11.8-8.4-19.7-17.3-23.9
		c-3-1.4-9.5-2.3-15.5-2.5v50.3c0.1,0,0.1,0,0.2,0c2.5,0,6.7,4.5,7.9,8.6c0.6,2.2,1.3,15.8,1.9,35.5c0.5,17.5,1.3,42.5,1.8,55.4
		c2.6,59.6,2.2,91.3-1.8,135.4c-0.9,10.2-1.6,18.5-1.5,18.6c0.1,0.2,5.1-0.4,11.3-1.3l11-1.4l-0.6-4.8c-0.5-4.7-0.4-4.9,2.5-7.9
		c3.7-3.7,9.5-5.6,21.7-7.1C1309,2049.3,1309.6,2049.1,1309.1,2047.4z M1269.3,1926.2c-4.2-3.5-6.6-16.3-6.6-35.7
		c0-14.9,1-23.1,3.3-29c1.6-4.2,3.5-4.3,5.8-0.4c2.2,3.8,4.2,14.7,5.4,28.3C1279.1,1912,1275,1930.9,1269.3,1926.2z"/>
	<path id="structure9_label8_CVL" bar:growlevel="0" bar:type="" class="st67" d="M1618.5,1972.1c-7.5,8.1-14.8,12.8-25.2,16
		c-9.4,3-19.1,2.8-25.6-0.4c-2.3-1.1-4.3-2-4.7-2c-1.4,0-0.4,4.8,3,17c9.4,33.1,23.7,63.7,30.2,64.7c1.4,0.2,3.8-1.7,8.4-6.6
		c27.8-29.3,35.3-57,24.3-90.3c-1-3.1-2.3-5.6-2.9-5.5C1625.4,1965.1,1622.1,1968.3,1618.5,1972.1z"/>
	<text id="Unlabeled-2342-1062" bar:growlevel="0" transform="matrix(1 0 0 1 1763.1025 1073.1426)" class="st68 st69 st70">cbw</text>
	<text id="label31" bar:growlevel="0" transform="matrix(1 0 0 1 1329.4531 1177.4941)" class="st68 st69 st70">cbw</text>
	<text id="label33" bar:growlevel="0" transform="matrix(1 0 0 1 1281.3301 1305.1797)" class="st68 st69 st70">9a-bCb</text>
	<text id="label34" bar:growlevel="0" transform="matrix(1 0 0 1 1482.3594 1360.2266)" class="st68 st69 st70">cbw</text>
	<text id="label35" bar:growlevel="0" transform="matrix(1 0 0 1 1290.5527 1403.5547)" class="st68 st69 st70">9cCb</text>
	<text id="label140" bar:growlevel="0" transform="matrix(1 0 0 1 1301.5508 2194.4512)" class="st68 st69 st70">vert</text>
	<text id="label8" bar:growlevel="0" transform="matrix(1 0 0 1 1580.4629 2023.8125)" class="st68 st69 st70">CVL</text>
	<text id="Unlabeled-1569-1366" bar:growlevel="0" transform="matrix(1 0 0 1 1301.5508 1352.1426)" class="st68 st69 st70">9a-bCb</text>
	<text id="label0" bar:growlevel="0" transform="matrix(1 0 0 1 1553.8818 1949.0703)" class="st68 st69 st70">RVRG</text>
	<text id="label1" bar:growlevel="0" transform="matrix(1 0 0 1 1413.8105 1922.6348)" class="st68 st69 st70">Gi</text>
	<text id="label2" bar:growlevel="0" transform="matrix(1 0 0 1 1590.1514 1812.5762)" class="st68 st69 st70">PCRt</text>
	<text id="label4" bar:growlevel="0" transform="matrix(1 0 0 1 1332.3301 2011.7793)" class="st68 st69 st70">GiV</text>
	<text id="label5" bar:growlevel="0" transform="matrix(1 0 0 1 1499.0703 1816.748)" class="st68 st69 st70">IRt</text>
	<text id="label6" bar:growlevel="0" transform="matrix(1 0 0 1 1281.3301 1731.7715)" class="st68 st69 st70">12N</text>
	<text id="label7" bar:growlevel="0" transform="matrix(1 0 0 1 1303.2617 1797.7227)" class="st68 st69 st70">Ro</text>
	<text id="label87" bar:growlevel="0" transform="matrix(1 0 0 1 1749.1836 1572.9531)" class="st68 st69 st70">icp</text>
	<text id="label80" bar:growlevel="0" transform="matrix(1 0 0 1 1251.0254 2117.0469)" class="st68 st69 st70">RPa</text>
	<text id="label82" bar:growlevel="0" transform="matrix(1 0 0 1 1605.2422 1688.5645)" class="st68 st69 st70">5Sol</text>
	<text id="label88" bar:growlevel="0" transform="matrix(1 0 0 1 1887.2715 1702.666)" class="st68 st69 st70">dsc-oc</text>
	<text id="label139" bar:growlevel="0" transform="matrix(1 0 0 1 1634.1934 1584.0859)" class="st68 st69 st70">cu</text>
	<text id="label12" bar:growlevel="0" transform="matrix(1 0 0 1 1615.2031 1554.8926)" class="st68 st69 st70">ECu</text>
	<text id="label13" bar:growlevel="0" transform="matrix(1 0 0 1 1525.2324 1598.0664)" class="st68 st69 st70">Cu</text>
	<text id="label10" bar:growlevel="0" transform="matrix(1 0 0 1 1735.1416 1768.0176)" class="st68 st69 st70">Sp5I</text>
	<text id="label11" bar:growlevel="0" transform="matrix(1 0 0 1 1722.2129 1630.1152)" class="st68 st69 st70">Pa5</text>
	<text id="label16" bar:growlevel="0" transform="matrix(1 0 0 1 1290.5527 2129.5742)" class="st68 st69 st70">IOM</text>
	<text id="label14" bar:growlevel="0" transform="matrix(1 0 0 1 1537.3525 1654.8672)" class="st68 st69 st70">Mx</text>
	<text id="label93" bar:growlevel="0" transform="matrix(1 0 0 1 1403.5801 2170.5977)" class="st68 st69 st70">py</text>
	<text id="label90" bar:growlevel="0" transform="matrix(1 0 0 1 2018.9111 1389.0508)" class="st68 st69 st70">apmf</text>
	<text id="label98" bar:growlevel="0" transform="matrix(1 0 0 1 1613.791 2023.8125)" class="st68 st69 st70">C1</text>
	<text id="text3107" bar:growlevel="0" transform="matrix(1 0 0 1 1507.6836 2055.918)" class="st68 st69 st70">LRt</text>
	<text id="label66" bar:growlevel="0" transform="matrix(1 0 0 1 1495.4023 1673.6055)" class="st68 st69 st70">SolVL</text>
	<text id="label65" bar:growlevel="0" transform="matrix(1 0 0 1 1445.8203 1689.6836)" class="st68 st69 st70">SolV</text>
	<text id="label61" bar:growlevel="0" transform="matrix(1 0 0 1 1263.2422 1812.5762)" class="st68 st69 st70">mlf</text>
	<text id="label106" bar:growlevel="0" transform="matrix(1 0 0 1 1321.9971 1647.8125)" class="st68 st69 st70">C2</text>
	<text id="label103" bar:growlevel="0" transform="matrix(1 0 0 1 1731.9922 2032.6953)" class="st68 st69 st70">vsc</text>
	<text id="label101" bar:growlevel="0" transform="matrix(1 0 0 1 1284.8428 1947.7188)" class="st68 st69 st70">ts</text>
	<text id="label78" bar:growlevel="0" transform="matrix(1 0 0 1 1460.6416 2134.5918)" class="st68 st69 st70">IOPr</text>
	<text id="label79" bar:growlevel="0" transform="matrix(1 0 0 1 1498.8301 2109.6289)" class="st68 st69 st70">IOD</text>
	<text id="label109" bar:growlevel="0" transform="matrix(1 0 0 1 1274.4922 787.1758)" class="st68 st69 st70">6cCb</text>
	<text id="label74" bar:growlevel="0" transform="matrix(1 0 0 1 1673.7031 1975.1816)" class="st68 st69 st70">LRt</text>
	<text id="label75" bar:growlevel="0" transform="matrix(1 0 0 1 1713.2656 1978.0059)" class="st68 st69 st70">LRtS5</text>
	<text id="label76" bar:growlevel="0" transform="matrix(1 0 0 1 1251.0225 1967.8848)" class="st68 st69 st70">ROb</text>
	<text id="label70" bar:growlevel="0" transform="matrix(1 0 0 1 1354.8916 1683.7051)" class="st68 st69 st70">10N</text>
	<text id="label132" bar:growlevel="0" transform="matrix(1 0 0 1 1269.3008 1890.5605)" class="st68 st69 st70">PMn</text>
	<text id="label48" bar:growlevel="0" transform="matrix(1 0 0 1 1724.9727 1960.2617)" class="st68 st69 st70">rs</text>
	<text id="label130" bar:growlevel="0" transform="matrix(1 0 0 1 1440.1016 1635.2793)" class="st68 st69 st70">SolIM</text>
	<text id="label135" bar:growlevel="0" transform="matrix(1 0 0 1 1329.4531 2143.4434)" class="st68 st69 st70">ml</text>
	<text id="label114" bar:growlevel="0" transform="matrix(1 0 0 1 1410.0313 1439.8809)" class="st68 st69 st70">plf</text>
	<text id="label115" bar:growlevel="0" transform="matrix(1 0 0 1 1404.1836 1268.8496)" class="st68 st69 st70">sf</text>
	<text id="label116" bar:growlevel="0" transform="matrix(1 0 0 1 1420.5928 1077.4766)" class="st68 st69 st70">ppf</text>
	<text id="Unlabeled-1418-1572" bar:growlevel="0" transform="matrix(1 0 0 1 1281.3301 1592.5352)" class="st68 st69 st70">10Cb </text>
	<text id="label117" bar:growlevel="0" transform="matrix(1 0 0 1 1412.7617 865.668)" class="st68 st69 st70">psf</text>
	<text id="label110" bar:growlevel="0" transform="matrix(1 0 0 1 1288.6338 954.2852)" class="st68 st69 st70">7Cb</text>
	<text id="label111" bar:growlevel="0" transform="matrix(1 0 0 1 1268.8525 1207.8789)" class="st68 st69 st70">8Cb</text>
	<text id="label56" bar:growlevel="0" transform="matrix(1 0 0 1 1418.7324 1611.6133)" class="st68 st69 st70">SolDL</text>
	<text id="label57" bar:growlevel="0" transform="matrix(1 0 0 1 1837.8301 1646.0762)" class="st68 st69 st70">E5</text>
	<text id="label54" bar:growlevel="0" transform="matrix(1 0 0 1 1815.1514 1680.043)" class="st68 st69 st70">sp5</text>
	<text id="label55" bar:growlevel="0" transform="matrix(1 0 0 1 1459.9971 1602.3125)" class="st68 st69 st70">PSol</text>
	<text id="label53" bar:growlevel="0" transform="matrix(1 0 0 1 1603.1416 1008.7344)" class="st68 st69 st70">cbw</text>
	<text id="label58" bar:growlevel="0" transform="matrix(1 0 0 1 1572.5117 1885.3398)" class="st68 st69 st70">AmbSC</text>
	<text id="label59" bar:growlevel="0" transform="matrix(1 0 0 1 1645.6221 1905.1426)" class="st68 st69 st70">Li</text>
	<text id="label125" bar:growlevel="0" transform="matrix(1 0 0 1 1495.0332 1650.0215)" class="st68 st69 st70">SolL</text>
	<text id="label124" bar:growlevel="0" transform="matrix(1 0 0 1 1456.8096 1664.1582)" class="st68 st69 st70">sol</text>
	<text id="label121" bar:growlevel="0" transform="matrix(1 0 0 1 1288.6338 2065.3203)" class="st68 st69 st70">IODM</text>
	<text id="label123" bar:growlevel="0" transform="matrix(1 0 0 1 1461.9629 1648.1621)" class="st68 st69 st70">SolI</text>
	<text id="label129" bar:growlevel="0" transform="matrix(1 0 0 1 1355.1436 1715.2363)" class="st68 st69 st70">InM</text>
	<text id="label128" bar:growlevel="0" transform="matrix(1 0 0 1 1415.085 1664.3984)" class="st68 st69 st70">SolCe</text>
	<text id="Unlabeled-1791-815" bar:growlevel="0" transform="matrix(1 0 0 1 1321.9971 821.3418)" class="st68 st69 st70">grey</text>
	<text id="Unlabeled-1533-1541" bar:growlevel="0" transform="matrix(1 0 0 1 1290.5527 1480.3281)" class="st68 st69 st70">10Cb</text>
	<text id="label21" bar:growlevel="0" transform="matrix(1 0 0 1 1755.7813 1991.9492)" class="st68 st69 st70">10n</text>
	<text id="label20" bar:growlevel="0" transform="matrix(1 0 0 1 1270.1064 1645.416)" class="st68 st69 st70">4V</text>
	<text id="label27" bar:growlevel="0" transform="matrix(1 0 0 1 1735.4111 1487.2598)" class="st68 st69 st70">Cop</text>
	<text id="label26" bar:growlevel="0" transform="matrix(1 0 0 1 1935.0928 1466.375)" class="st68 st69 st70">PM</text>
	<text id="label25" bar:growlevel="0" transform="matrix(1 0 0 1 1290.5527 1543.5742)" class="st68 st69 st70">10Cb</text>
	<text id="label24" bar:growlevel="0" transform="matrix(1 0 0 1 1365.3066 1636.2227)" class="st68 st69 st70">SolM</text>
	<text id="label28" bar:growlevel="0" transform="matrix(1 0 0 1 1910.7031 1103.8223)" class="st68 st69 st70">Crus2</text>
</g>
</svg>
