<?xml version="1.0" encoding="utf-8"?>
<!-- Generator: Adobe Illustrator 24.1.1, SVG Export Plug-In . SVG Version: 6.00 Build 0)  -->
<svg version="1.1"
	 id="body" inkscape:version="0.47 r22583" sodipodi:docname="197_pretrace_pretrace_v1.svg" xmlns:bar="http://www.3dbar.org" xmlns:cc="http://creativecommons.org/ns#" xmlns:dc="http://purl.org/dc/elements/1.1/" xmlns:inkscape="http://www.inkscape.org/namespaces/inkscape" xmlns:rdf="http://www.w3.org/1999/02/22-rdf-syntax-ns#" xmlns:sodipodi="http://sodipodi.sourceforge.net/DTD/sodipodi-0.dtd" xmlns:svg="http://www.w3.org/2000/svg"
	 xmlns="http://www.w3.org/2000/svg" xmlns:xlink="http://www.w3.org/1999/xlink" x="0px" y="0px" viewBox="0 0 3024 3024"
	 style="enable-background:new 0 0 3024 3024;" xml:space="preserve">
<style type="text/css">
	.st0{fill:#FF000C;}
	.st1{fill:#FFB2BA;}
	.st2{fill:#E959BF;}
	.st3{fill:#00EF7A;}
	.st4{fill:#00CF69;}
	.st5{fill:#00E2FF;}
	.st6{fill:#8600FF;}
	.st7{fill:#85FFC1;}
	.st8{fill:#00FF51;}
	.st9{fill:#2CDF84;}
	.st10{fill:#59FFAC;}
	.st11{fill:#59FF90;}
	.st12{fill:#00FFE3;}
	.st13{fill:#B2FFC2;}
	.st14{fill:#47FF7C;}
	.st15{fill:#CE00D4;}
	.st16{fill:#B88EF2;}
	.st17{fill:#00F448;}
	.st18{fill:#8EE9A9;}
	.st19{fill:#6C0BF2;}
	.st20{fill:#00FF34;}
	.st21{fill:#5B17C3;}
	.st22{fill:#FFB2C8;}
	.st23{fill:#00FF7B;}
	.st24{fill:#66BFDF;}
	.st25{fill:#59FFC2;}
	.st26{fill:#B2FFE3;}
	.st27{fill:#00FFAD;}
	.st28{fill:#00EFD6;}
	.st29{fill:#2CDFD0;}
	.st30{fill:#866BCB;}
	.st31{fill:#85FFF5;}
	.st32{fill:#2CFF93;}
	.st33{fill:#5523C7;}
	.st34{fill:#00FFA4;}
	.st35{fill:#00C2FF;}
	.st36{fill:#19C3FF;}
	.st37{fill:#650BE1;}
	.st38{fill:#B2FFFA;}
	.st39{fill:#6100FA;}
	.st40{fill:#66B0C7;}
	.st41{fill:#85DFD7;}
	.st42{fill:#6517F6;}
	.st43{fill:#873BFF;}
	.st44{fill:#59FFF2;}
	.st45{fill:#00FFAF;}
	.st46{fill:#C49AFA;}
	.st47{fill:#8553C7;}
	.st48{fill:#232323;enable-background:new    ;}
	.st49{font-family:'TimesNewRomanPSMT';}
	.st50{font-size:27px;}
</style>
<sodipodi:namedview  bordercolor="#666666" borderopacity="1" gridtolerance="10" guidetolerance="10" id="namedview214" inkscape:current-layer="content" inkscape:cx="549.58649" inkscape:cy="429.78633" inkscape:pageopacity="0" inkscape:pageshadow="2" inkscape:window-height="975" inkscape:window-maximized="1" inkscape:window-width="1280" inkscape:window-x="-4" inkscape:window-y="-4" inkscape:zoom="4.111111" objecttolerance="10" pagecolor="#ffffff" showgrid="false">
	</sodipodi:namedview>
<desc  id="desc5">This was produced by version 4.2 of GNU libplot, a free library for exporting 2-D vector graphics.</desc>
<defs>
	<rdf:RDF>
		<cc:Work  rdf:about="">
			<dc:format>image/svg+xml</dc:format>
			<dc:type  rdf:resource="http://purl.org/dc/dcmitype/StillImage"></dc:type>
		</cc:Work>
	</rdf:RDF>
	<bar:data  content="-14.52" name="coronalcoord"></bar:data>
	
		<bar:data  content="{&apos;ReferenceHeight&apos;: 900, &apos;ReferenceWidth&apos;: 1200, &apos;imageSize&apos;: (1200, 900)}" name="rendererConf">
		</bar:data>
	
		<bar:data  content="{&apos;DumpEachStepSVG&apos;: False, &apos;DumpEachStepPNG&apos;: False, &apos;GrowDefaultBoundaryColor&apos;: 200, &apos;CacheLevel&apos;: 5, &apos;NewPathIdTemplate&apos;: &apos;structure%d_%s_%s&apos;, &apos;PoTraceConf&apos;: {&apos;potrace_accuracy_parameter&apos;: &apos;0.001&apos;, &apos;potrace_width_string&apos;: &apos;1200pt&apos;, &apos;potrace_svg_resolution_string&apos;: &apos;300x300&apos;, &apos;potrace_height_string&apos;: &apos;900pt&apos;}, &apos;DetectUnlabelled&apos;: True, &apos;DumpVBrain&apos;: False, &apos;DumpWrongSeed&apos;: True, &apos;DumpDirectory&apos;: &apos;.&apos;, &apos;MinFiterTimesApplication&apos;: 3, &apos;RegionAlreadyTraced&apos;: 100, &apos;UnlabelledTreshold&apos;: 500}" name="tracingConf">
		</bar:data>
	<bar:data  content="0.0176211454,-9.5150660793,0.0176211454,-1.5355884426" name="transformationmatrix"></bar:data>
</defs>
<g id="content">
	<path class="st0" d="M1949.2,1684.7c-6.7-62.5-28.6-118.4-62.9-159.8c-19.4-23.3-62.3-57.8-96.3-77.4c-19-10.9-38.8-18.5-53.6-20.8
		c-11.6-1.7-43.1,0.2-71.9,4.1c-5.2,0.7-10.2,1.4-11.1,1.4c-4.5,0,0-3.1,16.6-11.4c19.6-9.8,25.6-14.2,29.4-21.9
		c2.7-5.4,2.1-9.7-3.5-24c-2.5-6.4-6.4-17.2-8.6-24.1c-5.5-16.9-9.4-24.1-16.1-29.2c-7.1-5.4-7.6-6.8-4.8-12.9
		c5-10.2,5-20.6-0.2-39.4c-5.8-21.6-7.1-30.1-8.2-54c-0.4-10.6-1.1-21.7-1.4-24.6c-0.5-4.2-0.4-5.1,0.8-5.1c1.8,0,3.3,6.6,8.3,36.4
		c7.7,45.8,10.4,57,17.6,72.4c10.3,22,31,44.9,48.1,53.2c6.8,3.2,10.3,3.4,15.3,0.4c7.6-4.4,11.8-14.4,11-26.2
		c-0.3-3.4,0.1-13.5,0.7-22.4c2-27.4,1.4-46.4-2.3-76.1c-3.7-29.3-11.9-48.7-28.6-68c-15.8-18.3-43-32.8-57.2-30.5
		c-9.4,1.5-17,7.3-19.5,14.5c-1.4,4.1-1.6,13.9-0.5,21.2c0.6,4.4,0.5,5.2-0.6,5.2c-1.7,0-3.9-9.4-4.7-20.6
		c-0.4-4.1-1.4-10.1-2.3-13.1c-1.4-4.9-2.6-6.4-9.1-12.7c-19.3-18.7-38.6-31.9-68.9-47.1c-34.7-17.4-73.8-27.9-100.3-26.9
		c-7.7,0.3-10.6,0.1-10.6-0.7c0-0.5,0.9-3,1.9-5.3c6.7-14.9-10-33.4-39.7-44c-19-6.9-47-11.5-69.3-11.8V1493c0.1,0,0.3,0,0.4,0
		c36.9,0,56.3,0.3,56.3,0.9c-0.1,1-16,10-28.8,16.4c-9.7,4.8-18.8,7.2-27.9,7.3v514.7l3.4,2c15.7,9.4,34.9,15.1,58.2,17.3
		c12.5,1.1,17.5,0.8,36.3-2c16-2.3,15.1-2.4,15.8,2c0.3,2,1.2,4.4,2.1,5.4c3.1,3.4,11,4.1,17.7,1.5c4.7-1.8,5.6-6.7,2-10.3
		c-1.3-1.3-2.3-2.6-2.3-3c0-1.1,9.5-1.9,22.4-1.9c22.8,0,42.1-2.8,60.5-8.7l10.3-3.2l15.8,0.2c17.2,0.3,26-0.5,43.4-4
		c21.2-4.2,60.8-16.1,79.7-23.9c32.8-13.7,65.1-34.9,79.6-52.4c4-4.9,4.4-5.8,4-8.6c-0.5-3,0-3.7,9.3-13.6
		c5.3-5.8,20.2-22.2,32.9-36.5c12.8-14.4,34.1-36.8,47.3-49.9c13.2-13.1,26.8-27.3,30.2-31.5
		C1944.4,1774.3,1954.6,1736.1,1949.2,1684.7z"/>
	<path id="structure101_Unlabeled-2235-2130_Unlabeled" bar:growlevel="0" bar:type="" class="st1" d="M1732.7,1901.8
		c-10.4,12.5-24,32-30.8,44.4c-6.6,11.8-3.7,10.9,13.5-4.4c7.7-6.8,20.1-17.7,27.6-24.3c7.5-6.6,13.7-12.5,13.9-13.1
		c0.2-0.8-1.1-1.4-4.1-1.9c-4.7-0.7-10.1-3.1-11.9-5.3C1739,1894.8,1738,1895.4,1732.7,1901.8z"/>
	<path id="structure10_label9_A1" bar:growlevel="0" bar:type="" class="st2" d="M1680.1,1822.5c-14,1.5-30.2,5.8-30.2,8.1
		c0,1.9,18.2,25.5,19.7,25.5c0.6,0.1,2.7-1.2,4.6-2.6c6.3-4.9,11.3-6.7,19.8-6.7c13.6,0,26.1,6.1,37.1,18.3c4.4,5,7.9,6.9,7.9,4.7
		c0-1.9,9.3-10.8,12.6-12.2c4.6-1.8,4.6-3.6,0.1-9.3c-13-16.5-32-25.1-56.8-25.8C1688.8,1822.3,1682.1,1822.3,1680.1,1822.5z"/>
	<path class="st3" d="M1511.3,1974.7c-25.7-28.4-46.4-57.5-58.9-83.1c-8.9-18.4-18-42.4-33.6-88.6c-15.7-46.4-18.8-54.6-23.9-62.4
		c-7-10.5-18.5-18.7-29.8-21.2c-3.7-0.8-11.2-1.3-18.4-1.3v16.7c1.1,0,2.2,0.4,3.4,1.3c4.1,3,6.7,13.2,13.1,50.3
		c18.9,107.8,27.3,141.6,38,152c5.6,5.5,15.8,12,28.6,18.2c16.1,7.8,25.5,11,49.5,16.9c21,5.2,30.1,8.2,35.2,11.3
		c3.2,2,5.9,2.3,5.9,0.9C1520.4,1985.2,1516.3,1980.2,1511.3,1974.7z"/>
	<path class="st4" d="M1511.3,1974.7c-25.7-28.4-46.4-57.5-58.9-83.1c-8.9-18.4-18-42.4-33.6-88.6c-15.7-46.4-18.8-54.6-23.9-62.4
		c-7-10.5-18.5-18.7-29.8-21.2c-3.7-0.8-11.2-1.3-18.4-1.3v16.7c1.1,0,2.2,0.4,3.4,1.3c4.1,3,6.7,13.2,13.1,50.3
		c18.9,107.8,27.3,141.6,38,152c5.6,5.5,15.8,12,28.6,18.2c16.1,7.8,25.5,11,49.5,16.9c21,5.2,30.1,8.2,35.2,11.3
		c3.2,2,5.9,2.3,5.9,0.9C1520.4,1985.2,1516.3,1980.2,1511.3,1974.7z"/>
	<path class="st5" d="M1400.2,1937.7c-10.2-11.2-19.1-47.3-36.8-148.7c-6.2-35.5-8-43.8-10.6-49c-1.8-3.7-2.3-4-5.7-4.3
		c-0.1,0-0.2,0-0.3,0v206.7c1.7-0.1,3.7-1,6.9-2.9c2.9-1.7,7.7-4,10.9-5c13.9-4.6,23.3-3.1,31.6,5.2c2.8,2.8,5.3,4.6,6,4.3
		C1404.1,1943.1,1403.7,1941.6,1400.2,1937.7z"/>
	<path class="st6" d="M1531.9,2033.7c-8.8-8-17.5-12.6-38.1-20.3c-15.4-5.7-29.8-12.2-38.3-17.4c-6.8-4.1-8.4-4.1-7.6-0.2
		c0.7,3.6-1.2,5.6-4.3,4.8c-4.9-1.2-16.7-14.3-15.6-17.2c0.4-0.9,1.3-1.2,3.2-0.8c1.9,0.5,2.7,0.3,2.7-0.5c0-0.6-4.9-6.3-11.1-12.5
		c-6-6.2-14.9-16.1-19.8-21.9c-10.9-13-14.4-15.1-24.9-15.1c-9.8,0-20.6,3.6-28.4,9.5c-1.6,1.2-2.3,1.7-3,1.6v87.7
		c0.9-0.1,1.5,0.2,2.6,1c4.3,3.1,15.8,8.5,23.5,11.1c14.9,5,25.5,6.6,45.9,6.5c15.8,0,20.5-0.3,32.8-2.3c25-4.2,35.4-5.3,59.1-6.1
		c12.7-0.4,23.6-1,24-1.4C1536.5,2039.1,1535.7,2037.3,1531.9,2033.7z"/>
	<path id="structure16_label15_Mx" bar:growlevel="0" bar:type="" class="st7" d="M1625.9,1522.1c-1.1,1.5-11.6,11.7-23.4,22.8
		c-23.3,21.9-28,25.1-38,26.7c-6.3,1.1-14.8,0.4-34.6-2.6c-18-2.8-47.9-11.1-55.3-15.4l-3.1-1.8l-5.5,2.2
		c-5.4,2.2-11.2,3.6-24.8,6.4c-3.7,0.8-9.4,2-12.6,2.8c-3.2,0.7-10.6,1.6-16.4,2c-7.1,0.4-10.6,0.9-10.6,1.6
		c0,1.3,20.7,6.5,28.8,7.2c3.2,0.3,14.1,1.7,24.3,3.2c10.2,1.4,34.8,4.9,54.9,7.6c53.7,7.4,78.4,11.7,102.4,18
		c22.3,5.9,49,15.4,68.9,24.7c4.4,2,8.5,3.7,9.2,3.7c4.7,0-5.5-12.1-32.8-38.8c-20.9-20.4-23.2-23.6-25.3-33
		c-1.7-8.2-1.1-14.1,3-26.7c0.4-1.3,0-2.2-2.2-3.3c-2.3-1.3-2.7-2-2.7-5.7C1630.2,1518.7,1628.8,1518.3,1625.9,1522.1z"/>
	<path id="structure17_label16_CuR" bar:growlevel="0" bar:type="" class="st8" d="M1533.9,1534.9c-14.1,2.4-19.1,10.2-14.4,22.6
		c1,2.7,2.9,6.1,4.2,7.7c2.4,2.7,3,2.9,15.6,4.8c17.3,2.5,27.6,2.1,34.5-1.4c7.8-4,15-10,15-12.6c0-8-9.2-16.2-22.1-19.8
		C1560.3,1534.5,1540.9,1533.6,1533.9,1534.9z"/>
	<path id="structure18_label17_Gr" bar:growlevel="0" bar:type="" class="st9" d="M1445.2,1481.7c-7.9,1.1-16.1,3.3-24.3,6.8
		c-4,1.6-9.5,3.8-12.2,4.9c-2.7,1.1-11.4,5.6-19.3,10c-7.8,4.4-15.4,8.5-16.9,9.1l-2.6,1.1l0.4,7.3c0.4,8.3,2.4,13.7,7,18.9
		c3.7,4.1,6.8,5.8,22.3,11.4c19.1,7,25.2,8.4,36.2,8.4c15.3-0.1,33.5-5.1,39-10.9c4.5-4.7,11.3-17.1,13.9-25.4
		c2.3-7.2,2.3-7.9,1.3-15.4c-0.6-4.3-1.1-10.9-1.1-14.6c0-4.7-0.4-7.1-1.3-7.8c-0.6-0.5-4.3-1.8-8.2-2.8
		C1472,1480.7,1456.3,1480.3,1445.2,1481.7z"/>
	<polygon class="st10" points="1346.7,1518.6 1346.7,1519 1346.8,1518.6 	"/>
	<path id="structure21_label20_Cu" bar:growlevel="0" bar:type="" class="st11" d="M1623.9,1501.2c-23.8,9.5-40,14.1-70.2,19.6
		c-10.6,1.9-14.8,2.2-32.4,2.2c-21.4,0-24.8-0.5-27.2-4.2c-1.9-3.1-3-2.3-4.7,3.2c-2.2,6.9-7,16.6-12,23.6c-2.2,3.1-3.8,6.2-3.5,6.8
		c1.1,3,46.8,16.6,48.9,14.6c0.3-0.4-0.8-3.4-2.3-6.9c-8.2-17.7,0.9-26.5,27.4-26.4c19.7,0,36.5,7.5,40.1,17.8
		c0.8,2.3,1.7,3.1,2.7,3c2-0.4,27.5-23.8,34.3-31.6c4.7-5.3,14.2-22.3,14.2-25.4C1639.2,1495.3,1636.8,1495.9,1623.9,1501.2z"/>
	<path class="st12" d="M1365.1,1619c-1.6-4.5-1.8-3.8,5.9-26.1c4.4-12.7,5.6-21.9,3.3-26.3c-1.9-3.5-6.8-7.8-12.2-10.5
		c-2.3-1.2-5.1-3.2-6.2-4.3c-2.6-2.8-6.3-10.9-7.6-16.7c-0.5-2-1.1-3.7-1.7-4.4v93.6c9.2,0.1,18.6,4.5,20.9,10.8
		c0.3,0.8,0.8,0.8,2.1,0.1c3.5-2.1,3.5-3.5,0.1-7.9C1368,1624.8,1365.9,1621.1,1365.1,1619z"/>
	<path class="st13" d="M1689.1,1358.9c-6.8-20.2-6.1-18.9-10-19.2c-5.6-0.5-13.3,1.4-27.4,6.8c-23.1,8.8-30.9,10.3-66.1,12.4
		c-25.9,1.6-47.7,4-72.1,7.7c-32.9,5.1-51,7.3-75.1,9c-7.2,0.4-15.5,1.1-18.4,1.3c-12.6,1-44.7,1.7-73.3,1.7v83.9
		c49.4,0.2,62.4-0.9,81.7-6.9c3.2-1,14.6-3.2,25.3-5c16.3-2.6,22.1-4.1,35.6-8.6c19.6-6.6,28.8-8.7,56.2-13
		c27.1-4.2,34.1-6,54.9-14.4c28.9-11.5,76.2-32.8,89-40C1693.9,1372.3,1694,1373.4,1689.1,1358.9z"/>
	<path id="structure26_label25_Cop" bar:growlevel="0" bar:type="" class="st14" d="M1664.3,1127.5c-4.7,1.6-8.5,4.6-10.9,8.5
		c-1.9,3.1-2.1,4.4-2.1,14.6v11.3l5.1,14.9c4.6,13.2,5.7,17.8,9.7,41.4c8.5,49.8,10.5,58.3,16.5,72.4c8.5,20.3,25.1,40.8,42.2,52.2
		c11.4,7.7,17.7,8.3,24.1,2.5c6.7-6,7.4-8.9,8-30.4c1.7-67.8-0.3-96.9-8.1-120.6c-10.3-30.9-34.8-56.8-62.7-66.1
		C1679.8,1125.9,1669.3,1125.7,1664.3,1127.5z"/>
	<path class="st15" d="M1687.6,1986.2c-1-0.4-2.9-1.7-4-3c-1.8-2-2.4-2.2-3.7-1.3c-7.4,5.4-17.7,7.7-31.7,7.2
		c-9.6-0.5-12.6-0.9-21.1-3.7c-5.4-1.7-13.7-4.2-18.3-5.5c-11.3-3.2-17.1-6.2-18.6-9.7c-1.6-4-0.5-6.5,5.8-13.9
		c5.8-6.7,8.6-13.1,17.2-38.2c2.4-7.1,5.5-14.9,6.8-17.1c1.3-2.3,6.8-8.6,12.3-14c9.4-9.4,14.7-13.7,29.6-24.1c3.8-2.6,6-4.9,6-5.9
		c0-5.9-92.9-113.9-123.5-143.5c-11.8-11.4-29.3-27-43-37.9c-16.3-13.1-40.1-30.1-42.3-30.1c-0.5,0-0.9,2.1-0.9,4.7
		c0,3.4-0.7,6.4-2.6,10.3c-3.2,6.8-6.8,10.9-15.4,17.6c-5.3,4.2-7,6.2-8.3,9.5c-2.9,7.6-11.2,14.2-22.9,18.2
		c-7.2,2.5-24.8,4.8-31.6,4.1c-8.3-0.8-25.2-4.8-28.2-6.6c-1.2-0.7-1.9-1-2.7-1v15.3c0.9,0,1.9,0,3,0.1c11.6,0.4,14.5,0.8,19.5,2.7
		c8.1,3,13,6,18.3,11.3c10.3,10.3,13.2,16.8,30.7,68.7c24.7,73.2,33.1,93.2,51.5,121.1c13.7,20.7,25.5,35.5,48.8,61
		c6.8,7.4,12.7,14.3,13.3,15.3c1.6,3,1.4,10.4-0.5,14.7c-2.1,4.6-5.4,7.2-10,8c-2,0.4-3.6,1.1-3.6,1.7c0,0.5,2.5,2.7,5.7,4.8
		c3.2,2.1,7.6,5.8,10,8.4l4.3,4.6l7.2-1.4c12.9-2.7,22.3-5.8,55.2-18.6c30.7-12,43.8-16.6,75.9-26.5
		C1689.2,1989.1,1691.9,1987.5,1687.6,1986.2z M1453.4,1738.1c-1.8,1.7-3.6,2.3-7.7,2.6c-12.6,0.9-20.2-8.6-17.2-21.2
		c2.4-10.1,11-15,19.7-11.4c4.4,1.9,7.3,4.7,9.3,9C1460.6,1723.9,1458.9,1733.1,1453.4,1738.1z M1574.6,1987.8
		c-3.8,2.2-16,3.2-19.9,1.5c-4.3-1.7-4.5-5.7-0.6-8.9c4.8-4,16.5-4.7,21.1-1.3C1578.6,1981.8,1578.4,1985.5,1574.6,1987.8z"/>
	<path id="structure30_label29_sp5" bar:growlevel="0" bar:type="" class="st16" d="M1712.1,1427.7c-14.8,1-23.4,5.3-35.2,17.8
		c-12.1,12.7-39.2,53.8-44.1,66.7c-3.9,10.4-3.2,17.2,1.8,17.2c2.1,0,3.3-1.1,7.2-6.2c11.4-15.4,36.7-34.3,55.2-41.2
		c22.5-8.5,34.8-7.7,67.3,4.3c35.8,13.3,72.5,36.4,96.8,60.7c33.3,33.5,51,77.6,55.4,137.7c3.8,51.6-8.1,94.1-33.4,120.5
		c-11.4,12-26,21-39.6,24.7c-4.9,1.3-6.2,2.1-8.7,5.4c-2.6,3.4-3,4.6-3,9.2c0,4.8,0.4,5.8,2.9,8.6c7.2,8.1,16.4,7.8,35.8-1.3
		c6.6-3.1,9.3-5.1,18.8-14.3c51.2-48.7,66.5-91.6,57.7-161.8c-8.2-64.4-33.1-121.2-70.6-160.5c-14.5-15.2-46.6-41.2-69.5-56.3
		c-25-16.5-48.4-27.3-65.5-30.2C1733.2,1427.4,1722.5,1426.9,1712.1,1427.7z"/>
	<path class="st17" d="M1595.6,1237.6c-24.8-0.9-49.1-2.3-68.9-4c-21.2-1.9-45.3-1.3-65.3,1.5c-17.6,2.5-47,2.7-81.7,0.4
		c-14.2-0.9-23.5-1.4-33-1.3v11.3l13.4,1.5c7.7,0.9,18.5,2.2,23.9,2.9c5.5,0.7,21.1,1.5,34.6,1.8c25.3,0.5,30.7,0.3,68-3.8
		c15.3-1.7,34.1-1.9,89.5-0.9c40.2,0.7,42.3,0.5,42.3-3.5C1618.5,1239.2,1615.5,1238.4,1595.6,1237.6z"/>
	<path class="st18" d="M1453.9,1023.7c-9-17.5-35-30-76.3-36.6c-5-0.8-19-1.5-30.8-1.8v82.9c8.6,0,17.7-1.1,35.1-3.7
		c31-4.7,57.7-11.3,66.2-16.6C1455.4,1043.3,1458.1,1032.1,1453.9,1023.7z"/>
	<path class="st19" d="M1453.9,1023.7c-9-17.5-35-30-76.3-36.6c-5-0.8-19-1.5-30.8-1.8v82.9c8.6,0,17.7-1.1,35.1-3.7
		c31-4.7,57.7-11.3,66.2-16.6C1455.4,1043.3,1458.1,1032.1,1453.9,1023.7z"/>
	<path class="st20" d="M1666.2,1273.7c-6.8-25.4-8.7-37.8-9.5-59.8c-0.7-21.7-1.6-27.2-7.2-43.4c-2.7-7.8-5-14.9-5-15.9
		c0-1.3-0.4-1.5-2-1c-1.2,0.4-4.3,0.8-7.1,1.1c-7.5,0.7-15.5-2.2-36.4-13c-43.9-22.6-93.5-47.2-103.1-50.9
		c-16.8-6.8-26.7-8.8-44.3-9.4c-23-0.7-37.4,1.5-76.9,12.1c-16.5,4.4-23.9,6-28.2,6v133.7l33.5,1.9c39.4,2.3,63.5,2.1,85.4-0.8
		c21.6-2.8,35.5-3.2,55.6-1.5c24.1,2,41.5,3.1,68.2,4.1c24.1,1,26.9,1.5,29.1,5.6c0.9,1.6,0.7,2.2-0.9,3.5c-3.1,2.4-13.3,3-45.1,2.1
		c-49-1.3-75.3-1-94.5,1.3c-43.1,5-61.7,5-105-0.3c-11.3-1.4-18.9-2.1-26.3-2.1v35c6,0,21.6,1,34.9,2.3c13.2,1.2,30.7,2.6,38.9,3.2
		c20.3,1.3,72.2,1.2,107.4-0.3c15.9-0.5,36.9-1.1,46.5-1c15.4,0,19,0.4,28.9,2.4c20.6,4.3,33.8,10,45.8,19.5
		c5.1,4.1,7.4,5.4,9.7,5.4C1668.2,1313.4,1671.7,1294.5,1666.2,1273.7z"/>
	<path class="st21" d="M1687.6,1986.2c-1-0.4-2.9-1.7-4-3c-1.8-2-2.4-2.2-3.7-1.3c-7.4,5.4-17.7,7.7-31.7,7.2
		c-9.6-0.5-12.6-0.9-21.1-3.7c-5.4-1.7-13.7-4.2-18.3-5.5c-11.3-3.2-17.1-6.2-18.6-9.7c-1.6-4-0.5-6.5,5.8-13.9
		c5.8-6.7,8.6-13.1,17.2-38.2c2.4-7.1,5.5-14.9,6.8-17.1c1.3-2.3,6.8-8.6,12.3-14c9.4-9.4,14.7-13.7,29.6-24.1c3.8-2.6,6-4.9,6-5.9
		c0-5.9-92.9-113.9-123.5-143.5c-11.8-11.4-29.3-27-43-37.9c-16.3-13.1-40.1-30.1-42.3-30.1c-0.5,0-0.9,2.1-0.9,4.7
		c0,3.4-0.7,6.4-2.6,10.3c-3.2,6.8-6.8,10.9-15.4,17.6c-5.3,4.2-7,6.2-8.3,9.5c-2.9,7.6-11.2,14.2-22.9,18.2
		c-7.2,2.5-24.8,4.8-31.6,4.1c-8.3-0.8-25.2-4.8-28.2-6.6c-1.2-0.7-1.9-1-2.7-1v15.3c0.9,0,1.9,0,3,0.1c11.6,0.4,14.5,0.8,19.5,2.7
		c8.1,3,13,6,18.3,11.3c10.3,10.3,13.2,16.8,30.7,68.7c24.7,73.2,33.1,93.2,51.5,121.1c13.7,20.7,25.5,35.5,48.8,61
		c6.8,7.4,12.7,14.3,13.3,15.3c1.6,3,1.4,10.4-0.5,14.7c-2.1,4.6-5.4,7.2-10,8c-2,0.4-3.6,1.1-3.6,1.7c0,0.5,2.5,2.7,5.7,4.8
		c3.2,2.1,7.6,5.8,10,8.4l4.3,4.6l7.2-1.4c12.9-2.7,22.3-5.8,55.2-18.6c30.7-12,43.8-16.6,75.9-26.5
		C1689.2,1989.1,1691.9,1987.5,1687.6,1986.2z M1453.4,1738.1c-1.8,1.7-3.6,2.3-7.7,2.6c-12.6,0.9-20.2-8.6-17.2-21.2
		c2.4-10.1,11-15,19.7-11.4c4.4,1.9,7.3,4.7,9.3,9C1460.6,1723.9,1458.9,1733.1,1453.4,1738.1z M1574.6,1987.8
		c-3.8,2.2-16,3.2-19.9,1.5c-4.3-1.7-4.5-5.7-0.6-8.9c4.8-4,16.5-4.7,21.1-1.3C1578.6,1981.8,1578.4,1985.5,1574.6,1987.8z"/>
	<path class="st22" d="M1354.6,1650.5c-0.3-4.5-0.8-6.3-2.5-8.1c-1.4-1.6-3.4-2.3-5.4-2.4v21.5c2.3,0.3,3.2-0.2,5.4-2.4
		C1354.9,1656.4,1355,1656,1354.6,1650.5z"/>
	<path id="structure38_label37_12GH" bar:growlevel="0" bar:type="" class="st23" d="M1435.1,1709.4c-4.1,2.5-6.5,8-6.5,15.4
		c0,9.6,4.8,15,14,15.8c8.7,0.7,14.1-3.3,15.8-11.8c1.5-8.3-2.3-17.3-8.7-19.9C1445.2,1707,1438.6,1707.3,1435.1,1709.4z"/>
	<path class="st24" d="M1687.6,1986.2c-1-0.4-2.9-1.7-4-3c-1.8-2-2.4-2.2-3.7-1.3c-7.4,5.4-17.7,7.7-31.7,7.2
		c-9.6-0.5-12.6-0.9-21.1-3.7c-5.4-1.7-13.7-4.2-18.3-5.5c-11.3-3.2-17.1-6.2-18.6-9.7c-1.6-4-0.5-6.5,5.8-13.9
		c5.8-6.7,8.6-13.1,17.2-38.2c2.4-7.1,5.5-14.9,6.8-17.1c1.3-2.3,6.8-8.6,12.3-14c9.4-9.4,14.7-13.7,29.6-24.1c3.8-2.6,6-4.9,6-5.9
		c0-5.9-92.9-113.9-123.5-143.5c-11.8-11.4-29.3-27-43-37.9c-16.3-13.1-40.1-30.1-42.3-30.1c-0.5,0-0.9,2.1-0.9,4.7
		c0,3.4-0.7,6.4-2.6,10.3c-3.2,6.8-6.8,10.9-15.4,17.6c-5.3,4.2-7,6.2-8.3,9.5c-2.9,7.6-11.2,14.2-22.9,18.2
		c-7.2,2.5-24.8,4.8-31.6,4.1c-8.3-0.8-25.2-4.8-28.2-6.6c-1.2-0.7-1.9-1-2.7-1v15.3c0.9,0,1.9,0,3,0.1c11.6,0.4,14.5,0.8,19.5,2.7
		c8.1,3,13,6,18.3,11.3c10.3,10.3,13.2,16.8,30.7,68.7c24.7,73.2,33.1,93.2,51.5,121.1c13.7,20.7,25.5,35.5,48.8,61
		c6.8,7.4,12.7,14.3,13.3,15.3c1.6,3,1.4,10.4-0.5,14.7c-2.1,4.6-5.4,7.2-10,8c-2,0.4-3.6,1.1-3.6,1.7c0,0.5,2.5,2.7,5.7,4.8
		c3.2,2.1,7.6,5.8,10,8.4l4.3,4.6l7.2-1.4c12.9-2.7,22.3-5.8,55.2-18.6c30.7-12,43.8-16.6,75.9-26.5
		C1689.2,1989.1,1691.9,1987.5,1687.6,1986.2z M1453.4,1738.1c-1.8,1.7-3.6,2.3-7.7,2.6c-12.6,0.9-20.2-8.6-17.2-21.2
		c2.4-10.1,11-15,19.7-11.4c4.4,1.9,7.3,4.7,9.3,9C1460.6,1723.9,1458.9,1733.1,1453.4,1738.1z M1574.6,1987.8
		c-3.8,2.2-16,3.2-19.9,1.5c-4.3-1.7-4.5-5.7-0.6-8.9c4.8-4,16.5-4.7,21.1-1.3C1578.6,1981.8,1578.4,1985.5,1574.6,1987.8z"/>
	<path id="structure40_label39_IOA" bar:growlevel="0" bar:type="" class="st25" d="M1494.5,1981.8c-1.6,0.7-4.1,2.8-5.6,4.5
		c-6.7,7.6-0.9,22.6,11,28.7c9.6,5,21.4,6.2,26.6,3.1c5.3-3.2,8-14,5-20.3c-1.8-3.9-9.8-9.5-20.6-14.5
		C1503.6,1980,1499.1,1979.6,1494.5,1981.8z"/>
	<path id="structure41_label40_IOB" bar:growlevel="0" bar:type="" class="st26" d="M1435.4,1965c-3.9,1.2-6.8,4.4-6.8,7.4
		c0,4.5,13.1,15.6,30.1,25.1c11.7,6.7,15.9,7.6,19.9,4.2c2.2-1.9,2.6-3.1,3-7.6c0.3-4.8,0.1-5.7-2.3-9c-3-4-8-7.7-21.7-15.3
		c-7.8-4.4-10.1-5.2-14.4-5.5C1440.3,1964.3,1436.9,1964.6,1435.4,1965z"/>
	<path id="structure43_label42_LRtPC" bar:growlevel="0" bar:type="" class="st27" d="M1804.3,1880.4c-10.5,2.7-18.3,6.3-26.5,12.2
		c-4.3,3.1-10.4,6.9-13.6,8.4c-4,2-10.2,6.8-20.3,15.7c-8,7-23.6,20.8-34.6,30.5c-22.4,19.7-26.9,24.9-26.9,30.9
		c0,6.9,6,9.7,13.3,5.9c1.8-1,8.2-5.7,14.1-10.5c26.9-21.7,76.1-56.8,103.3-73.8c5.4-3.3,10.4-7.1,11.3-8.3c1.9-3,1.8-8.7-0.3-11
		C1822,1878.1,1813.2,1878.1,1804.3,1880.4z"/>
	<path id="structure45_label44_SolDL" bar:growlevel="0" bar:type="" class="st28" d="M1389,1566.7c0,1.5,7.5,7.9,15.8,13.5
		c11.3,7.6,24.3,13.1,35.6,14.8c9.8,1.6,10.5,1.4,12.2-2.6c1.1-2.5,2.6-4.3,5.2-5.8c7.6-4.4,15-3.7,21.2,2c6,5.3,6.7,12.7,1.6,16.9
		c-2.6,2.3-2.7,2.5-2.3,9c0.2,3.7,0.7,7.1,1.3,7.6c1.8,1.8,14.1,4.5,20.6,4.5c13,0,16.8-6.7,11.8-20.9c-2.6-7.5-9-16.6-14-20.1
		c-3.4-2.3-5.6-2.8-27.7-6c-13.2-1.9-29.3-4-35.7-4.8c-6.7-0.8-18.4-3.2-27.2-5.4C1390.3,1565.1,1389,1564.9,1389,1566.7z"/>
	<path id="structure46_label45_SolVL" bar:growlevel="0" bar:type="" class="st29" d="M1389,1566.7c0,1.5,7.5,7.9,15.8,13.5
		c11.3,7.6,24.3,13.1,35.6,14.8c9.8,1.6,10.5,1.4,12.2-2.6c1.1-2.5,2.6-4.3,5.2-5.8c7.6-4.4,15-3.7,21.2,2c6,5.3,6.7,12.7,1.6,16.9
		c-2.6,2.3-2.7,2.5-2.3,9c0.2,3.7,0.7,7.1,1.3,7.6c1.8,1.8,14.1,4.5,20.6,4.5c13,0,16.8-6.7,11.8-20.9c-2.6-7.5-9-16.6-14-20.1
		c-3.4-2.3-5.6-2.8-27.7-6c-13.2-1.9-29.3-4-35.7-4.8c-6.7-0.8-18.4-3.2-27.2-5.4C1390.3,1565.1,1389,1564.9,1389,1566.7z"/>
	<path id="structure47_label46_CeCv" bar:growlevel="0" bar:type="" class="st30" d="M1433.1,1629.4c-4.2,0.4-13.6,0.6-20.9,0.7
		c-9.8,0.1-13.3,0.4-13.3,1.2c0,0.6,1.8,3,4,5.2c7,7.2,25.8,30.1,27.6,33.5c1,1.9,2,5.2,2.3,7.5c0.3,2.3,1,4,1.6,4s3.7-2,6.8-4.4
		c12.1-9.1,16.6-16.8,16.5-28.4c0-7.8-1.8-12.8-6.5-17.8C1448.8,1628.1,1447.8,1628.1,1433.1,1629.4z"/>
	<path id="structure48_label47_SolV" bar:growlevel="0" bar:type="" class="st31" d="M1443.8,1599.3c-4,4.3-6.2,7.8-6.2,10
		c0,1.3,1.2,1.9,5.9,2.8c6.1,1.3,16.6,5.8,16.6,7.1c0,0.8,16.9,3.3,17.6,2.6c0.2-0.2,0.1-3.4-0.2-7.2l-0.6-6.9l-4.2,0.5
		c-5.2,0.7-14.4-1.7-17.5-4.7c-1.3-1.2-2.5-3.3-2.8-4.9C1451.5,1594.8,1447.9,1595,1443.8,1599.3z"/>
	<path id="structure49_label48_Ct" bar:growlevel="0" bar:type="" class="st32" d="M1557.3,1978.6c-5,2-7.1,6.8-4.3,9.6
		c1.8,1.8,17.6,1.4,21.4-0.5c4.1-2.1,4.7-5.5,1.3-8.2c-2-1.5-3.6-1.9-9.3-1.8C1562.6,1977.7,1558.6,1978.2,1557.3,1978.6z"/>
	<path id="structure4_label3_IRt" bar:growlevel="0" bar:type="" class="st33" d="M1458.8,1623.5c-1.4,1.3-3.8,2.6-5.2,2.9
		c-3.9,0.8-4,2.3-0.4,6.9c1.8,2.3,3.6,5.8,4.1,7.6c0.7,2.9,1.9,4.1,7.7,7.7c3.8,2.3,13.2,9.1,21,14.8c33.1,24.8,61.3,50.9,90.5,83.6
		c8.9,10,16.7,18.1,17.3,18.1c0.7,0,1.2-1.1,1.2-2.7c0-8.8,10.8-19.7,19.4-19.8c4.1,0,17.5,4,24,7.3c11.3,5.8,22.1,19.7,29.4,38.1
		c6.8,17.1,5.1,27.1-5.5,32.4c-4,1.9-6,2.3-11.8,2.3c-7.8,0-8.6,0.8-4.8,4.5l2.3,2.1l7.9-2.4c11.3-3.4,22.3-5,34.9-5
		c18.3,0,32.7,3.8,45.3,12.1c6.2,4,15.7,13.4,18.5,18.2c1.5,2.6,2.1,2.9,7.6,3.2c6,0.5,13.8,3.5,16.2,6.5c0.7,0.8,1.8,1.4,2.6,1.4
		c2.3,0,0.6-5.9-3.8-12.9c-5-8.1-17.5-22.1-28.5-32.2c-21.2-19.3-107.1-91.5-143.9-121.1c-43.4-34.7-63.4-48.7-85.1-59.3
		c-19.6-9.6-36.8-14.9-52.3-16.2C1461.9,1621.2,1461.3,1621.3,1458.8,1623.5z"/>
	<path id="structure50_text3024_Ct" bar:growlevel="0" bar:type="" class="st32" d="M1428.6,1984.7c0,2.3,7.3,11.2,11.3,13.6
		c3.9,2.4,8,2.2,8.4-0.5c0.2-1.4-1.4-3.2-5.9-6.8c-3.3-2.7-7.1-5.6-8.4-6.4C1431,1982.5,1428.6,1982.6,1428.6,1984.7z"/>
	<path id="structure53_label50_IOC" bar:growlevel="0" bar:type="" class="st34" d="M1402.9,1943.5c-0.4,0.5-0.4,1.8-0.1,2.9
		c0.7,2.6,21.3,25.3,23.3,25.6c1,0.2,1.8-0.5,2.4-2c0.9-2.4,6.8-5.9,9.9-5.9c4.1,0,1.3-2.5-6.5-6.1c-4.6-2.1-12.6-6.4-17.7-9.6
		C1404.5,1942.2,1403.8,1942,1402.9,1943.5z"/>
	<path id="structure57_label55_12N" bar:growlevel="0" bar:type="" class="st35" d="M1381.5,1630.8l-7.8,0.4l-2.6,3.6
		c-1.4,2-3.5,6.5-4.6,10.1c-3.1,9.9-7.8,19.2-12.6,24.5c-5.1,5.7-6.3,9.7-6.6,23.3c-0.3,11.3-0.3,11.2,16.5,14.5
		c10.8,2.2,14,2.4,22.3,2c18.2-0.9,30.6-4.9,39.2-12.4c5.9-5.3,7.2-8,7-16.1c-0.2-8.9-1.4-11.1-16.6-29.2
		c-15.8-18.8-18.5-21.3-23-21.1C1391,1630.5,1385.9,1630.8,1381.5,1630.8z"/>
	<path class="st15" d="M1687.6,1986.2c-1-0.4-2.9-1.7-4-3c-1.8-2-2.4-2.2-3.7-1.3c-7.4,5.4-17.7,7.7-31.7,7.2
		c-9.6-0.5-12.6-0.9-21.1-3.7c-5.4-1.7-13.7-4.2-18.3-5.5c-11.3-3.2-17.1-6.2-18.6-9.7c-1.6-4-0.5-6.5,5.8-13.9
		c5.8-6.7,8.6-13.1,17.2-38.2c2.4-7.1,5.5-14.9,6.8-17.1c1.3-2.3,6.8-8.6,12.3-14c9.4-9.4,14.7-13.7,29.6-24.1c3.8-2.6,6-4.9,6-5.9
		c0-5.9-92.9-113.9-123.5-143.5c-11.8-11.4-29.3-27-43-37.9c-16.3-13.1-40.1-30.1-42.3-30.1c-0.5,0-0.9,2.1-0.9,4.7
		c0,3.4-0.7,6.4-2.6,10.3c-3.2,6.8-6.8,10.9-15.4,17.6c-5.3,4.2-7,6.2-8.3,9.5c-2.9,7.6-11.2,14.2-22.9,18.2
		c-7.2,2.5-24.8,4.8-31.6,4.1c-8.3-0.8-25.2-4.8-28.2-6.6c-1.2-0.7-1.9-1-2.7-1v15.3c0.9,0,1.9,0,3,0.1c11.6,0.4,14.5,0.8,19.5,2.7
		c8.1,3,13,6,18.3,11.3c10.3,10.3,13.2,16.8,30.7,68.7c24.7,73.2,33.1,93.2,51.5,121.1c13.7,20.7,25.5,35.5,48.8,61
		c6.8,7.4,12.7,14.3,13.3,15.3c1.6,3,1.4,10.4-0.5,14.7c-2.1,4.6-5.4,7.2-10,8c-2,0.4-3.6,1.1-3.6,1.7c0,0.5,2.5,2.7,5.7,4.8
		c3.2,2.1,7.6,5.8,10,8.4l4.3,4.6l7.2-1.4c12.9-2.7,22.3-5.8,55.2-18.6c30.7-12,43.8-16.6,75.9-26.5
		C1689.2,1989.1,1691.9,1987.5,1687.6,1986.2z M1453.4,1738.1c-1.8,1.7-3.6,2.3-7.7,2.6c-12.6,0.9-20.2-8.6-17.2-21.2
		c2.4-10.1,11-15,19.7-11.4c4.4,1.9,7.3,4.7,9.3,9C1460.6,1723.9,1458.9,1733.1,1453.4,1738.1z M1574.6,1987.8
		c-3.8,2.2-16,3.2-19.9,1.5c-4.3-1.7-4.5-5.7-0.6-8.9c4.8-4,16.5-4.7,21.1-1.3C1578.6,1981.8,1578.4,1985.5,1574.6,1987.8z"/>
	<path class="st24" d="M1687.6,1986.2c-1-0.4-2.9-1.7-4-3c-1.8-2-2.4-2.2-3.7-1.3c-7.4,5.4-17.7,7.7-31.7,7.2
		c-9.6-0.5-12.6-0.9-21.1-3.7c-5.4-1.7-13.7-4.2-18.3-5.5c-11.3-3.2-17.1-6.2-18.6-9.7c-1.6-4-0.5-6.5,5.8-13.9
		c5.8-6.7,8.6-13.1,17.2-38.2c2.4-7.1,5.5-14.9,6.8-17.1c1.3-2.3,6.8-8.6,12.3-14c9.4-9.4,14.7-13.7,29.6-24.1c3.8-2.6,6-4.9,6-5.9
		c0-5.9-92.9-113.9-123.5-143.5c-11.8-11.4-29.3-27-43-37.9c-16.3-13.1-40.1-30.1-42.3-30.1c-0.5,0-0.9,2.1-0.9,4.7
		c0,3.4-0.7,6.4-2.6,10.3c-3.2,6.8-6.8,10.9-15.4,17.6c-5.3,4.2-7,6.2-8.3,9.5c-2.9,7.6-11.2,14.2-22.9,18.2
		c-7.2,2.5-24.8,4.8-31.6,4.1c-8.3-0.8-25.2-4.8-28.2-6.6c-1.2-0.7-1.9-1-2.7-1v15.3c0.9,0,1.9,0,3,0.1c11.6,0.4,14.5,0.8,19.5,2.7
		c8.1,3,13,6,18.3,11.3c10.3,10.3,13.2,16.8,30.7,68.7c24.7,73.2,33.1,93.2,51.5,121.1c13.7,20.7,25.5,35.5,48.8,61
		c6.8,7.4,12.7,14.3,13.3,15.3c1.6,3,1.4,10.4-0.5,14.7c-2.1,4.6-5.4,7.2-10,8c-2,0.4-3.6,1.1-3.6,1.7c0,0.5,2.5,2.7,5.7,4.8
		c3.2,2.1,7.6,5.8,10,8.4l4.3,4.6l7.2-1.4c12.9-2.7,22.3-5.8,55.2-18.6c30.7-12,43.8-16.6,75.9-26.5
		C1689.2,1989.1,1691.9,1987.5,1687.6,1986.2z M1453.4,1738.1c-1.8,1.7-3.6,2.3-7.7,2.6c-12.6,0.9-20.2-8.6-17.2-21.2
		c2.4-10.1,11-15,19.7-11.4c4.4,1.9,7.3,4.7,9.3,9C1460.6,1723.9,1458.9,1733.1,1453.4,1738.1z M1574.6,1987.8
		c-3.8,2.2-16,3.2-19.9,1.5c-4.3-1.7-4.5-5.7-0.6-8.9c4.8-4,16.5-4.7,21.1-1.3C1578.6,1981.8,1578.4,1985.5,1574.6,1987.8z"/>
	<path id="structure5_label4_MdD" bar:growlevel="0" bar:type="" class="st36" d="M1499.7,1585.2c0,0.5,1.9,3.2,4.2,6.1
		c4.9,5.9,8.9,14.1,10.1,20.3c1.4,7.7-1.3,12.7-8.2,14.9c-1.9,0.5-3.4,1.5-3.4,2.1c0,0.6,3.4,2.4,7.5,4.1c22,9,46.4,25.3,89.3,59.5
		c50.6,40.4,137.5,113.8,155.6,131.4c16.6,16.1,28.4,32.6,28.4,39.6c0,1.3,1.4,5.1,3.2,8.5c1.8,3.5,3.1,7.4,3.1,9.2
		c0,3.7,0.5,3.8,9.2,0.9c19.2-6.5,27.7-4.9,27.7,5c0,4-3.4,6.8-35.3,27.8c-28.3,18.7-56.4,39.2-79.9,58c-18,14.4-17.1,15.2,6.8,6.3
		c22.5-8.5,30.5-12.2,46.3-21.4c30.2-17.7,28.7-16.4,73.9-66.8c14.7-16.4,27.9-30.9,29.5-32.3c3-2.9,3.6-5,1.4-5
		c-0.8,0-3.7,1-6.6,2.2c-11.3,4.7-19.4,4.9-25.6,0.5c-2.7-2-6.1-8.5-6.1-11.7c0-2.2,2.5-7.9,4.7-10.9c0.6-0.8,0.9-1.7,0.6-2
		c-0.2-0.3-3.3-1.1-7-1.8c-12.3-2.6-16.6-6.6-32.1-28.9c-5.5-7.9-13.2-19.1-17.3-24.8c-12.2-17.4-22.9-35.6-53.3-91.8
		c-12.7-23.2-19.4-34.7-25.9-43.8c-3.7-5.1-4.7-5.9-13.6-10c-38.3-17.9-76.9-29.6-123.8-37.4c-13.4-2.3-58.7-8.6-61.1-8.6
		C1500.8,1584.3,1499.7,1584.8,1499.7,1585.2z"/>
	<path class="st15" d="M1687.6,1986.2c-1-0.4-2.9-1.7-4-3c-1.8-2-2.4-2.2-3.7-1.3c-7.4,5.4-17.7,7.7-31.7,7.2
		c-9.6-0.5-12.6-0.9-21.1-3.7c-5.4-1.7-13.7-4.2-18.3-5.5c-11.3-3.2-17.1-6.2-18.6-9.7c-1.6-4-0.5-6.5,5.8-13.9
		c5.8-6.7,8.6-13.1,17.2-38.2c2.4-7.1,5.5-14.9,6.8-17.1c1.3-2.3,6.8-8.6,12.3-14c9.4-9.4,14.7-13.7,29.6-24.1c3.8-2.6,6-4.9,6-5.9
		c0-5.9-92.9-113.9-123.5-143.5c-11.8-11.4-29.3-27-43-37.9c-16.3-13.1-40.1-30.1-42.3-30.1c-0.5,0-0.9,2.1-0.9,4.7
		c0,3.4-0.7,6.4-2.6,10.3c-3.2,6.8-6.8,10.9-15.4,17.6c-5.3,4.2-7,6.2-8.3,9.5c-2.9,7.6-11.2,14.2-22.9,18.2
		c-7.2,2.5-24.8,4.8-31.6,4.1c-8.3-0.8-25.2-4.8-28.2-6.6c-1.2-0.7-1.9-1-2.7-1v15.3c0.9,0,1.9,0,3,0.1c11.6,0.4,14.5,0.8,19.5,2.7
		c8.1,3,13,6,18.3,11.3c10.3,10.3,13.2,16.8,30.7,68.7c24.7,73.2,33.1,93.2,51.5,121.1c13.7,20.7,25.5,35.5,48.8,61
		c6.8,7.4,12.7,14.3,13.3,15.3c1.6,3,1.4,10.4-0.5,14.7c-2.1,4.6-5.4,7.2-10,8c-2,0.4-3.6,1.1-3.6,1.7c0,0.5,2.5,2.7,5.7,4.8
		c3.2,2.1,7.6,5.8,10,8.4l4.3,4.6l7.2-1.4c12.9-2.7,22.3-5.8,55.2-18.6c30.7-12,43.8-16.6,75.9-26.5
		C1689.2,1989.1,1691.9,1987.5,1687.6,1986.2z M1453.4,1738.1c-1.8,1.7-3.6,2.3-7.7,2.6c-12.6,0.9-20.2-8.6-17.2-21.2
		c2.4-10.1,11-15,19.7-11.4c4.4,1.9,7.3,4.7,9.3,9C1460.6,1723.9,1458.9,1733.1,1453.4,1738.1z M1574.6,1987.8
		c-3.8,2.2-16,3.2-19.9,1.5c-4.3-1.7-4.5-5.7-0.6-8.9c4.8-4,16.5-4.7,21.1-1.3C1578.6,1981.8,1578.4,1985.5,1574.6,1987.8z"/>
	<path id="structure63_label61_rs" bar:growlevel="0" bar:type="" class="st37" d="M1751.2,1858.3c-8.5,4-15.8,15.4-15.8,25
		c0,6.1,1.1,9.3,4.3,12.7c5.6,5.9,13.8,7.7,23,5.1c4-1.1,18.6-10.5,23.8-15.2c5.9-5.5-2-21.7-13.5-27.4
		C1766.8,1855.3,1757.7,1855.2,1751.2,1858.3z"/>
	<path class="st3" d="M1511.3,1974.7c-25.7-28.4-46.4-57.5-58.9-83.1c-8.9-18.4-18-42.4-33.6-88.6c-15.7-46.4-18.8-54.6-23.9-62.4
		c-7-10.5-18.5-18.7-29.8-21.2c-3.7-0.8-11.2-1.3-18.4-1.3v16.7c1.1,0,2.2,0.4,3.4,1.3c4.1,3,6.7,13.2,13.1,50.3
		c18.9,107.8,27.3,141.6,38,152c5.6,5.5,15.8,12,28.6,18.2c16.1,7.8,25.5,11,49.5,16.9c21,5.2,30.1,8.2,35.2,11.3
		c3.2,2,5.9,2.3,5.9,0.9C1520.4,1985.2,1516.3,1980.2,1511.3,1974.7z"/>
	<path class="st4" d="M1511.3,1974.7c-25.7-28.4-46.4-57.5-58.9-83.1c-8.9-18.4-18-42.4-33.6-88.6c-15.7-46.4-18.8-54.6-23.9-62.4
		c-7-10.5-18.5-18.7-29.8-21.2c-3.7-0.8-11.2-1.3-18.4-1.3v16.7c1.1,0,2.2,0.4,3.4,1.3c4.1,3,6.7,13.2,13.1,50.3
		c18.9,107.8,27.3,141.6,38,152c5.6,5.5,15.8,12,28.6,18.2c16.1,7.8,25.5,11,49.5,16.9c21,5.2,30.1,8.2,35.2,11.3
		c3.2,2,5.9,2.3,5.9,0.9C1520.4,1985.2,1516.3,1980.2,1511.3,1974.7z"/>
	<path class="st6" d="M1531.9,2033.7c-8.8-8-17.5-12.6-38.1-20.3c-15.4-5.7-29.8-12.2-38.3-17.4c-6.8-4.1-8.4-4.1-7.6-0.2
		c0.7,3.6-1.2,5.6-4.3,4.8c-4.9-1.2-16.7-14.3-15.6-17.2c0.4-0.9,1.3-1.2,3.2-0.8c1.9,0.5,2.7,0.3,2.7-0.5c0-0.6-4.9-6.3-11.1-12.5
		c-6-6.2-14.9-16.1-19.8-21.9c-10.9-13-14.4-15.1-24.9-15.1c-9.8,0-20.6,3.6-28.4,9.5c-1.6,1.2-2.3,1.7-3,1.6v87.7
		c0.9-0.1,1.5,0.2,2.6,1c4.3,3.1,15.8,8.5,23.5,11.1c14.9,5,25.5,6.6,45.9,6.5c15.8,0,20.5-0.3,32.8-2.3c25-4.2,35.4-5.3,59.1-6.1
		c12.7-0.4,23.6-1,24-1.4C1536.5,2039.1,1535.7,2037.3,1531.9,2033.7z"/>
	<path id="structure6_label5_Sp5C" bar:growlevel="0" bar:type="" class="st38" d="M1705.1,1479.4c-24.4,6.8-59,33-68.8,52.1
		c-6.8,13.2-5.5,31.9,2.6,42.2c1.9,2.3,9.1,9.5,16,15.9c21.7,20.1,41.7,43.4,53.4,62.2c3.1,5,14.1,24.7,24.5,43.7
		c24.5,44.8,30.8,55.9,40.9,71.1c13.4,20.2,32.5,47.3,36.9,52.4c5.8,6.6,13.2,10.2,22.8,10.8c8.8,0.6,13.4-0.5,23.5-5.4
		c30.4-14.8,50.2-45.1,57.4-87.5c2.3-13.7,2.3-55.9-0.1-72.4c-6.4-45.9-20.1-79-44.6-108.4c-8-9.5-17.8-18.6-31.6-29.1
		c-25.9-19.6-51.3-32.9-84.3-44.2l-15-5.1l-13.1-0.3C1714.2,1477.3,1711.6,1477.5,1705.1,1479.4z"/>
	<path class="st10" d="M1346.7,1519.2c0,0.3,0,0.7,0,1.1L1346.7,1519.2C1346.7,1519.2,1346.7,1519.2,1346.7,1519.2z"/>
	<path class="st10" d="M1429.6,1560c-3.5,0-19.4-4.7-32.4-9.5c-11.1-4.1-14.5-5.8-18-9c-5.3-4.8-8.9-12.4-9.7-20.5
		c-0.6-6.8-0.4-6.7-8.8-4.1c-3,0.9-7.3,1.7-9.6,1.7c-2.3,0.1-4,0.3-4.3,0.7v1.1c0.3,5.3,2.2,16.5,3.6,20.4
		c4.1,12.1,10,16.3,29.3,21.1c10.3,2.6,13.2,3,24.3,3.1c14.2,0.1,27.5-1.6,27.5-3.6C1431.3,1560.6,1430.5,1560,1429.6,1560z"/>
	<path id="structure71_label70_cu" bar:growlevel="0" bar:type="" class="st39" d="M1677.4,1430.4c-24.7,2.9-32.6,4.5-87.3,18.1
		c-59.9,14.8-68.8,17.4-84.6,25.1c-13.2,6.4-15.7,8.7-16.4,15.6c-0.6,6.5,1.3,21.7,3.3,26.5c3,6.8,4.3,7,29.7,6.8
		c20-0.3,23.5-0.5,36.9-3.1c26.1-4.8,39.5-8.6,68.8-20c5.9-2.3,11.6-4.7,12.8-5.5c1.3-0.8,4.3-4.8,6.9-8.8
		c10.2-15.8,25.6-36.4,31.2-42c3.3-3.2,8.5-7.3,11.5-9c3.1-1.7,5.6-3.7,5.6-4.3C1695.9,1428.3,1694.4,1428.4,1677.4,1430.4z"/>
	<path id="structure73_label73_10N" bar:growlevel="0" bar:type="" class="st40" d="M1376.1,1606.6c-8.7,2.3-11,4.3-10.9,9.5
		c0,3.2,0.8,5.2,3.4,9.3l3.4,5.1l29.6-0.6c16.3-0.3,33.8-1,38.7-1.5c14.7-1.4,21.7-4.7,19.2-8.7c-2.8-4.4-12.1-7-39.1-10.9
		C1394.4,1605,1384,1604.5,1376.1,1606.6z"/>
	<path id="structure74_label74_SolM" bar:growlevel="0" bar:type="" class="st41" d="M1372.8,1562.4c0,0.9,0.6,2.3,1.4,3.3
		c3.5,4.6,2.1,14.9-4.5,32c-1.7,4.5-3.2,9.1-3.2,10.1c0,2-0.4,2.1,8.6-1.2c8.4-3,21-2.3,60.4,3.7c0.4,0,8.5-12.5,8.5-13.1
		c0-0.5-3.5-1.7-7.7-2.9c-16.3-4.1-32.9-13.2-44.2-24.1c-5.5-5.4-7.5-6.7-11.9-7.9C1373.6,1560.6,1372.8,1560.6,1372.8,1562.4z"/>
	<path class="st17" d="M1595.6,1237.6c-24.8-0.9-49.1-2.3-68.9-4c-21.2-1.9-45.3-1.3-65.3,1.5c-17.6,2.5-47,2.7-81.7,0.4
		c-14.2-0.9-23.5-1.4-33-1.3v11.3l13.4,1.5c7.7,0.9,18.5,2.2,23.9,2.9c5.5,0.7,21.1,1.5,34.6,1.8c25.3,0.5,30.7,0.3,68-3.8
		c15.3-1.7,34.1-1.9,89.5-0.9c40.2,0.7,42.3,0.5,42.3-3.5C1618.5,1239.2,1615.5,1238.4,1595.6,1237.6z"/>
	<path class="st18" d="M1453.9,1023.7c-9-17.5-35-30-76.3-36.6c-5-0.8-19-1.5-30.8-1.8v82.9c8.6,0,17.7-1.1,35.1-3.7
		c31-4.7,57.7-11.3,66.2-16.6C1455.4,1043.3,1458.1,1032.1,1453.9,1023.7z"/>
	<path class="st19" d="M1453.9,1023.7c-9-17.5-35-30-76.3-36.6c-5-0.8-19-1.5-30.8-1.8v82.9c8.6,0,17.7-1.1,35.1-3.7
		c31-4.7,57.7-11.3,66.2-16.6C1455.4,1043.3,1458.1,1032.1,1453.9,1023.7z"/>
	<path class="st20" d="M1666.2,1273.7c-6.8-25.4-8.7-37.8-9.5-59.8c-0.7-21.7-1.6-27.2-7.2-43.4c-2.7-7.8-5-14.9-5-15.9
		c0-1.3-0.4-1.5-2-1c-1.2,0.4-4.3,0.8-7.1,1.1c-7.5,0.7-15.5-2.2-36.4-13c-43.9-22.6-93.5-47.2-103.1-50.9
		c-16.8-6.8-26.7-8.8-44.3-9.4c-23-0.7-37.4,1.5-76.9,12.1c-16.5,4.4-23.9,6-28.2,6v133.7l33.5,1.9c39.4,2.3,63.5,2.1,85.4-0.8
		c21.6-2.8,35.5-3.2,55.6-1.5c24.1,2,41.5,3.1,68.2,4.1c24.1,1,26.9,1.5,29.1,5.6c0.9,1.6,0.7,2.2-0.9,3.5c-3.1,2.4-13.3,3-45.1,2.1
		c-49-1.3-75.3-1-94.5,1.3c-43.1,5-61.7,5-105-0.3c-11.3-1.4-18.9-2.1-26.3-2.1v35c6,0,21.6,1,34.9,2.3c13.2,1.2,30.7,2.6,38.9,3.2
		c20.3,1.3,72.2,1.2,107.4-0.3c15.9-0.5,36.9-1.1,46.5-1c15.4,0,19,0.4,28.9,2.4c20.6,4.3,33.8,10,45.8,19.5
		c5.1,4.1,7.4,5.4,9.7,5.4C1668.2,1313.4,1671.7,1294.5,1666.2,1273.7z"/>
	<path class="st21" d="M1687.6,1986.2c-1-0.4-2.9-1.7-4-3c-1.8-2-2.4-2.2-3.7-1.3c-7.4,5.4-17.7,7.7-31.7,7.2
		c-9.6-0.5-12.6-0.9-21.1-3.7c-5.4-1.7-13.7-4.2-18.3-5.5c-11.3-3.2-17.1-6.2-18.6-9.7c-1.6-4-0.5-6.5,5.8-13.9
		c5.8-6.7,8.6-13.1,17.2-38.2c2.4-7.1,5.5-14.9,6.8-17.1c1.3-2.3,6.8-8.6,12.3-14c9.4-9.4,14.7-13.7,29.6-24.1c3.8-2.6,6-4.9,6-5.9
		c0-5.9-92.9-113.9-123.5-143.5c-11.8-11.4-29.3-27-43-37.9c-16.3-13.1-40.1-30.1-42.3-30.1c-0.5,0-0.9,2.1-0.9,4.7
		c0,3.4-0.7,6.4-2.6,10.3c-3.2,6.8-6.8,10.9-15.4,17.6c-5.3,4.2-7,6.2-8.3,9.5c-2.9,7.6-11.2,14.2-22.9,18.2
		c-7.2,2.5-24.8,4.8-31.6,4.1c-8.3-0.8-25.2-4.8-28.2-6.6c-1.2-0.7-1.9-1-2.7-1v15.3c0.9,0,1.9,0,3,0.1c11.6,0.4,14.5,0.8,19.5,2.7
		c8.1,3,13,6,18.3,11.3c10.3,10.3,13.2,16.8,30.7,68.7c24.7,73.2,33.1,93.2,51.5,121.1c13.7,20.7,25.5,35.5,48.8,61
		c6.8,7.4,12.7,14.3,13.3,15.3c1.6,3,1.4,10.4-0.5,14.7c-2.1,4.6-5.4,7.2-10,8c-2,0.4-3.6,1.1-3.6,1.7c0,0.5,2.5,2.7,5.7,4.8
		c3.2,2.1,7.6,5.8,10,8.4l4.3,4.6l7.2-1.4c12.9-2.7,22.3-5.8,55.2-18.6c30.7-12,43.8-16.6,75.9-26.5
		C1689.2,1989.1,1691.9,1987.5,1687.6,1986.2z M1453.4,1738.1c-1.8,1.7-3.6,2.3-7.7,2.6c-12.6,0.9-20.2-8.6-17.2-21.2
		c2.4-10.1,11-15,19.7-11.4c4.4,1.9,7.3,4.7,9.3,9C1460.6,1723.9,1458.9,1733.1,1453.4,1738.1z M1574.6,1987.8
		c-3.8,2.2-16,3.2-19.9,1.5c-4.3-1.7-4.5-5.7-0.6-8.9c4.8-4,16.5-4.7,21.1-1.3C1578.6,1981.8,1578.4,1985.5,1574.6,1987.8z"/>
	<path class="st22" d="M1354.6,1650.5c-0.3-4.5-0.8-6.3-2.5-8.1c-1.4-1.6-3.4-2.3-5.4-2.4v21.5c2.3,0.3,3.2-0.2,5.4-2.4
		C1354.9,1656.4,1355,1656,1354.6,1650.5z"/>
	<path id="structure82_label83_RAmb" bar:growlevel="0" bar:type="" class="st42" d="M1607.2,1745.1c-8.8,4.5-14.7,17.1-11,23.4
		c1.8,3.2,43.8,51.6,45.5,52.5c3,1.6,10.5,2.1,15.8,1c9.2-1.9,14-8,14-17.5c0-13.4-13.7-39.9-25.3-49.1c-6.2-4.9-9.9-6.8-19.3-9.4
		C1618,1743.3,1611.1,1743,1607.2,1745.1z"/>
	<path id="structure85_label86_dsc" bar:growlevel="0" bar:type="" class="st43" d="M1499.7,1585.2c0,0.5,1.9,3.2,4.2,6.1
		c4.9,5.9,8.9,14.1,10.1,20.3c1.4,7.7-1.3,12.7-8.2,14.9c-1.9,0.5-3.4,1.5-3.4,2.1c0,0.6,3.4,2.4,7.5,4.1c22,9,46.4,25.3,89.3,59.5
		c50.6,40.4,137.5,113.8,155.6,131.4c16.6,16.1,28.4,32.6,28.4,39.6c0,1.3,1.4,5.1,3.2,8.5c1.8,3.5,3.1,7.4,3.1,9.2
		c0,3.7,0.5,3.8,9.2,0.9c19.2-6.5,27.7-4.9,27.7,5c0,4-3.4,6.8-35.3,27.8c-28.3,18.7-56.4,39.2-79.9,58c-18,14.4-17.1,15.2,6.8,6.3
		c22.5-8.5,30.5-12.2,46.3-21.4c30.2-17.7,28.7-16.4,73.9-66.8c14.7-16.4,27.9-30.9,29.5-32.3c3-2.9,3.6-5,1.4-5
		c-0.8,0-3.7,1-6.6,2.2c-11.3,4.7-19.4,4.9-25.6,0.5c-2.7-2-6.1-8.5-6.1-11.7c0-2.2,2.5-7.9,4.7-10.9c0.6-0.8,0.9-1.7,0.6-2
		c-0.2-0.3-3.3-1.1-7-1.8c-12.3-2.6-16.6-6.6-32.1-28.9c-5.5-7.9-13.2-19.1-17.3-24.8c-12.2-17.4-22.9-35.6-53.3-91.8
		c-12.7-23.2-19.4-34.7-25.9-43.8c-3.7-5.1-4.7-5.9-13.6-10c-38.3-17.9-76.9-29.6-123.8-37.4c-13.4-2.3-58.7-8.6-61.1-8.6
		C1500.8,1584.3,1499.7,1584.8,1499.7,1585.2z"/>
	<path id="structure87_label88_sol" bar:growlevel="0" bar:type="" class="st44" d="M1459.6,1585.6c-7.2,3.2-9.9,11.3-5.4,16.6
		c5.8,6.9,24.8,7.6,28.3,1.2c1.5-3.1,1.1-8.6-1.2-11.9C1477.4,1585.3,1466.8,1582.5,1459.6,1585.6z"/>
	<path id="structure8_label7_LRt" bar:growlevel="0" bar:type="" class="st45" d="M1683.3,1848.6c-2.3,0.7-5.8,2.6-7.8,4.2
		c-8,6.1-15.5,11.7-24.3,18.2c-11.5,8.5-22.3,18.6-28.1,26.4c-3.8,5-5.4,8.5-9.9,21.8c-7.9,23.2-11.3,30.9-16.2,36.3
		c-6,6.7-7.3,8.7-7.3,12c0,4.6,4.6,7.9,15.6,11.2c5,1.5,13.7,4.1,19.1,5.8c13.3,4.1,25,5.5,35.8,4.1c12-1.5,21.3-6.1,21.3-10.4
		c0-2.5,4.5-9.4,9.8-15.2c2.4-2.5,6.4-8.5,8.9-13.3c7-13.5,22.8-36.5,33.3-48.7c4.2-4.9,4.4-5.5,2.3-11.5c-1.3-3.7-1.4-5-0.5-9.5
		c1.7-8.5,1.7-8.6-6.4-16.7c-11.2-11.2-21.7-16-34.7-15.8C1690.4,1847.2,1685.5,1847.8,1683.3,1848.6z"/>
	<path id="structure93_label94_vert" bar:growlevel="0" bar:type="" class="st46" d="M1471.3,2045.6c-0.4,0.2-2.8,0.5-5.1,0.9
		c-5.3,0.7-6.8,2.7-5.2,7.3c0.6,1.9,2.1,3.6,3.6,4.4c3.1,1.6,10.9,1.7,15.3,0.2c3-1,3.2-1.4,3.2-5c0-3.2-0.5-4.3-2.3-5.7
		C1478.5,2046,1473.2,2044.8,1471.3,2045.6z"/>
	<path id="structure94_label95_vsc" bar:growlevel="0" bar:type="" class="st47" d="M1499.7,1585.2c0,0.5,1.9,3.2,4.2,6.1
		c4.9,5.9,8.9,14.1,10.1,20.3c1.4,7.7-1.3,12.7-8.2,14.9c-1.9,0.5-3.4,1.5-3.4,2.1c0,0.6,3.4,2.4,7.5,4.1c22,9,46.4,25.3,89.3,59.5
		c50.6,40.4,137.5,113.8,155.6,131.4c16.6,16.1,28.4,32.6,28.4,39.6c0,1.3,1.4,5.1,3.2,8.5c1.8,3.5,3.1,7.4,3.1,9.2
		c0,3.7,0.5,3.8,9.2,0.9c19.2-6.5,27.7-4.9,27.7,5c0,4-3.4,6.8-35.3,27.8c-28.3,18.7-56.4,39.2-79.9,58c-18,14.4-17.1,15.2,6.8,6.3
		c22.5-8.5,30.5-12.2,46.3-21.4c30.2-17.7,28.7-16.4,73.9-66.8c14.7-16.4,27.9-30.9,29.5-32.3c3-2.9,3.6-5,1.4-5
		c-0.8,0-3.7,1-6.6,2.2c-11.3,4.7-19.4,4.9-25.6,0.5c-2.7-2-6.1-8.5-6.1-11.7c0-2.2,2.5-7.9,4.7-10.9c0.6-0.8,0.9-1.7,0.6-2
		c-0.2-0.3-3.3-1.1-7-1.8c-12.3-2.6-16.6-6.6-32.1-28.9c-5.5-7.9-13.2-19.1-17.3-24.8c-12.2-17.4-22.9-35.6-53.3-91.8
		c-12.7-23.2-19.4-34.7-25.9-43.8c-3.7-5.1-4.7-5.9-13.6-10c-38.3-17.9-76.9-29.6-123.8-37.4c-13.4-2.3-58.7-8.6-61.1-8.6
		C1500.8,1584.3,1499.7,1584.8,1499.7,1585.2z"/>
	<path id="structure95_label96_12n" bar:growlevel="0" bar:type="" class="st15" d="M1783.6,1946.8c-14.9,9.6-32,19.3-41.7,23.6
		c-17.7,7.9-44.8,17.6-76.2,27.1c-30.9,9.5-85,29.8-85,32c0,3.4,29.6,2.1,51.3-2.3c23.9-4.9,59.6-15.6,81.1-24.4
		c28.4-11.6,56.1-29.1,73.3-46.4c6.8-6.8,9.8-11.3,9-13.4C1794.5,1940.6,1791.9,1941.5,1783.6,1946.8z"/>
	<path class="st1" d="M1645.1,1145.3c-0.4-4.1-1.4-10.1-2.3-13.1c-1.5-4.9-2.6-6.5-9.2-12.8c-19.3-18.7-38.6-31.9-68.9-47.1
		c-35-17.5-72.5-27.5-101-27c-10.9,0.3-12.5,0.5-15.3,2.3c-8.3,5.3-35,12.1-66.6,16.8c-17.3,2.6-26.5,3.7-35.1,3.7v31.4
		c4.3,0,11.7-1.6,28.2-6c39.4-10.5,53.8-12.8,76.9-12.1c17.5,0.5,27.5,2.6,44.3,9.4c9.5,3.8,59.1,28.4,103.1,50.9
		c24.7,12.7,32.1,14.8,42.4,12.1l4.1-1.2L1645.1,1145.3z"/>
	<path class="st1" d="M1679.3,1331c-2-3.7-4.6-6.7-8.2-9.4c-2.9-2.3-5.7-5.1-6.2-6.5c-0.8-2.3-1.2-2.4-5-2.1
		c-4,0.5-4.4,0.3-10.9-4.9c-11.9-9.6-25.1-15.3-45.8-19.6c-9.9-2.1-13.5-2.4-28.9-2.4c-9.6-0.1-30.6,0.5-46.5,1
		c-35.2,1.4-87.1,1.5-107.4,0.3c-8.2-0.5-25.6-2-38.9-3.2c-14.1-1.3-24.6-2-34.9-2v96.4c28.6,0,60.7-0.7,73.3-1.7
		c3-0.3,11.3-0.9,18.4-1.4c24-1.7,42.1-3.9,75.1-9c24.4-3.7,46.2-6,72.1-7.6c35.2-2.2,43-3.6,66.1-12.4c14-5.3,20.3-6.9,26.5-6.9
		C1683.4,1339.5,1683.5,1338.4,1679.3,1331z"/>
	<path class="st1" d="M1695.1,1373.4c-0.6-0.6-4.7,0.9-13.3,5.2c-17,8.4-40.1,18.8-63.7,28.8c-36.8,15.5-41.8,16.9-75.2,22
		c-24.5,3.7-34.2,6-53.6,12.5c-13.6,4.5-19.3,5.9-35.6,8.6c-10.7,1.8-22.1,4.1-25.3,5c-19.3,6-32.3,7.1-81.7,6.9v30.5
		c0.1,0,0.1,0,0.1,0c36.3,0,56.3,0.4,56.7,0.9c0.7,1,6.1-0.6,17.4-5.4c13-5.6,21.3-7,39.2-7.1c14-0.1,16.5,0.2,22.3,2l6.5,2.1
		l2.9-3.2c3.5-4,20.4-12.4,34.3-17c8.9-3,107.2-27.7,120.1-30.2c4.8-1,5.6-1.4,5.6-3.1c0-1.5,3.2-3.5,18.3-11.1
		c14-7,19.3-10.2,22.9-13.6c5.3-5,8.4-10.5,8.4-14.8C1701.3,1389.2,1696.6,1375,1695.1,1373.4z"/>
	<path class="st1" d="M1368.3,1635.3c-0.5-0.5-1.7-2.1-2.6-3.3c-3.5-4.7-11.4-7.7-18.9-7.9v15.9c1.9,0,3.9,0.8,5.4,2.4
		c1.7,1.8,2.3,3.6,2.5,8.1c0.4,5.5,0.3,5.9-2.4,8.6c-2.3,2.2-3.2,2.7-5.4,2.4v19.7c0.9,0.3,1.7-0.7,2.1-3.3c0.4-2.6,1.8-4.9,5-8.5
		c4.9-5.4,9.4-14.2,13-25.6C1368.6,1638.7,1368.9,1636.2,1368.3,1635.3z"/>
	<path class="st15" d="M1687.6,1986.2c-1-0.4-2.9-1.7-4-3c-1.8-2-2.4-2.2-3.7-1.3c-7.4,5.4-17.7,7.7-31.7,7.2
		c-9.6-0.5-12.6-0.9-21.1-3.7c-5.4-1.7-13.7-4.2-18.3-5.5c-11.3-3.2-17.1-6.2-18.6-9.7c-1.6-4-0.5-6.5,5.8-13.9
		c5.8-6.7,8.6-13.1,17.2-38.2c2.4-7.1,5.5-14.9,6.8-17.1c1.3-2.3,6.8-8.6,12.3-14c9.4-9.4,14.7-13.7,29.6-24.1c3.8-2.6,6-4.9,6-5.9
		c0-5.9-92.9-113.9-123.5-143.5c-11.8-11.4-29.3-27-43-37.9c-16.3-13.1-40.1-30.1-42.3-30.1c-0.5,0-0.9,2.1-0.9,4.7
		c0,3.4-0.7,6.4-2.6,10.3c-3.2,6.8-6.8,10.9-15.4,17.6c-5.3,4.2-7,6.2-8.3,9.5c-2.9,7.6-11.2,14.2-22.9,18.2
		c-7.2,2.5-24.8,4.8-31.6,4.1c-8.3-0.8-25.2-4.8-28.2-6.6c-1.2-0.7-1.9-1-2.7-1v15.3c0.9,0,1.9,0,3,0.1c11.6,0.4,14.5,0.8,19.5,2.7
		c8.1,3,13,6,18.3,11.3c10.3,10.3,13.2,16.8,30.7,68.7c24.7,73.2,33.1,93.2,51.5,121.1c13.7,20.7,25.5,35.5,48.8,61
		c6.8,7.4,12.7,14.3,13.3,15.3c1.6,3,1.4,10.4-0.5,14.7c-2.1,4.6-5.4,7.2-10,8c-2,0.4-3.6,1.1-3.6,1.7c0,0.5,2.5,2.7,5.7,4.8
		c3.2,2.1,7.6,5.8,10,8.4l4.3,4.6l7.2-1.4c12.9-2.7,22.3-5.8,55.2-18.6c30.7-12,43.8-16.6,75.9-26.5
		C1689.2,1989.1,1691.9,1987.5,1687.6,1986.2z M1453.4,1738.1c-1.8,1.7-3.6,2.3-7.7,2.6c-12.6,0.9-20.2-8.6-17.2-21.2
		c2.4-10.1,11-15,19.7-11.4c4.4,1.9,7.3,4.7,9.3,9C1460.6,1723.9,1458.9,1733.1,1453.4,1738.1z M1574.6,1987.8
		c-3.8,2.2-16,3.2-19.9,1.5c-4.3-1.7-4.5-5.7-0.6-8.9c4.8-4,16.5-4.7,21.1-1.3C1578.6,1981.8,1578.4,1985.5,1574.6,1987.8z"/>
	<text id="label36" bar:growlevel="0" transform="matrix(1 0 0 1 1353.9961 1655.0371)" class="st48 st49 st50">CC</text>
	<text id="label37" bar:growlevel="0" transform="matrix(1 0 0 1 1441.6123 1724.9434)" class="st48 st49 st50">12GH</text>
	<text id="label39" bar:growlevel="0" transform="matrix(1 0 0 1 1513.9102 2007.2031)" class="st48 st49 st50">IOA</text>
	<text id="label9" bar:growlevel="0" transform="matrix(1 0 0 1 1706.8398 1836.4766)" class="st48 st49 st50">A1</text>
	<text id="label2" bar:growlevel="0" transform="matrix(1 0 0 1 1498.4014 1830.5938)" class="st48 st49 st50">MdV</text>
	<text id="label3" bar:growlevel="0" transform="matrix(1 0 0 1 1552.041 1707.6602)" class="st48 st49 st50">IRt</text>
	<text id="label4" bar:growlevel="0" transform="matrix(1 0 0 1 1620.4404 1676.7852)" class="st48 st49 st50">MdD</text>
	<text id="label5" bar:growlevel="0" transform="matrix(1 0 0 1 1770.3818 1632.5586)" class="st48 st49 st50">Sp5C</text>
	<text id="label7" bar:growlevel="0" transform="matrix(1 0 0 1 1645.459 1923.7598)" class="st48 st49 st50">LRt</text>
	<text id="label86" bar:growlevel="0" transform="matrix(1 0 0 1 1839.2588 1873.4688)" class="st48 st49 st50">dsc</text>
	<text id="label80" bar:growlevel="0" transform="matrix(1 0 0 1 1530.0186 1722.9941)" class="st48 st49 st50">ia</text>
	<text id="label83" bar:growlevel="0" transform="matrix(1 0 0 1 1623.3203 1781.2344)" class="st48 st49 st50">RAmb</text>
	<text id="label88" bar:growlevel="0" transform="matrix(1 0 0 1 1463.4912 1590.9219)" class="st48 st49 st50">sol</text>
	<text id="Unlabeled-1795-1828" bar:growlevel="0" transform="matrix(1 0 0 1 1358.3916 1636.5137)" class="st48 st49 st50">grey</text>
	<text id="label13" bar:growlevel="0" transform="matrix(1 0 0 1 1367.748 1861.1973)" class="st48 st49 st50">mlx</text>
	<text id="label16" bar:growlevel="0" transform="matrix(1 0 0 1 1527.4697 1562.6445)" class="st48 st49 st50">CuR</text>
	<text id="label17" bar:growlevel="0" transform="matrix(1 0 0 1 1421.3301 1529.0996)" class="st48 st49 st50">Gr</text>
	<text id="label15" bar:growlevel="0" transform="matrix(1 0 0 1 1590.1123 1588.1797)" class="st48 st49 st50">Mx</text>
	<text id="label96" bar:growlevel="0" transform="matrix(1 0 0 1 1742.4209 1981.0684)" class="st48 st49 st50">12n</text>
	<text id="label94" bar:growlevel="0" transform="matrix(1 0 0 1 1473.9502 2052.1211)" class="st48 st49 st50">vert</text>
	<text id="label95" bar:growlevel="0" transform="matrix(1 0 0 1 1780.041 1935.1016)" class="st48 st49 st50">vsc</text>
	<text id="label69" bar:growlevel="0" transform="matrix(1 0 0 1 1369.5352 1542.332)" class="st48 st49 st50">gr</text>
	<text id="label65" bar:growlevel="0" transform="matrix(1 0 0 1 1407.7686 2020.5566)" class="st48 st49 st50">py</text>
	<text id="label63" bar:growlevel="0" transform="matrix(1 0 0 1 1409.9014 1798.6074)" class="st48 st49 st50">mlf</text>
	<text id="label62" bar:growlevel="0" transform="matrix(1 0 0 1 1434.498 1914.5781)" class="st48 st49 st50">ts</text>
	<text id="label61" bar:growlevel="0" transform="matrix(1 0 0 1 1771.6709 1886.0117)" class="st48 st49 st50">rs</text>
	<text id="label73" bar:growlevel="0" transform="matrix(1 0 0 1 1377.0889 1616.9668)" class="st48 st49 st50">10N</text>
	<text id="label78" bar:growlevel="0" transform="matrix(1 0 0 1 1408.5508 1045.7148)" class="st48 st49 st50">sf</text>
	<text id="label79" bar:growlevel="0" transform="matrix(1 0 0 1 1385.0596 1169.2461)" class="st48 st49 st50">9a-bCb</text>
	<text id="label74" bar:growlevel="0" transform="matrix(1 0 0 1 1377.8213 1596.5879)" class="st48 st49 st50">SolM</text>
	<text id="Unlabeled-2235-2130" bar:growlevel="0" transform="matrix(1 0 0 1 1714.5918 1935.1621)" class="st48 st49 st50">grey</text>
	<text id="label76" bar:growlevel="0" transform="matrix(1 0 0 1 1473.7803 1243.4258)" class="st48 st49 st50">cbw</text>
	<text id="label77" bar:growlevel="0" transform="matrix(1 0 0 1 1368.9209 1029.0313)" class="st48 st49 st50">8Cb</text>
	<text id="label70" bar:growlevel="0" transform="matrix(1 0 0 1 1588.6123 1490.7227)" class="st48 st49 st50">cu</text>
	<text id="label48" bar:growlevel="0" transform="matrix(1 0 0 1 1565.3301 1983.168)" class="st48 st49 st50">Ct</text>
	<text id="label40" bar:growlevel="0" transform="matrix(1 0 0 1 1453.3096 1980.0488)" class="st48 st49 st50">IOB</text>
	<text id="label42" bar:growlevel="0" transform="matrix(1 0 0 1 1775.582 1908.9766)" class="st48 st49 st50">LRtPC</text>
	<text id="label45" bar:growlevel="0" transform="matrix(1 0 0 1 1504.3711 1619.5449)" class="st48 st49 st50">SolVL</text>
	<text id="label44" bar:growlevel="0" transform="matrix(1 0 0 1 1413.6338 1577.5293)" class="st48 st49 st50">SolDL</text>
	<text id="label47" bar:growlevel="0" transform="matrix(1 0 0 1 1452.0625 1611.8652)" class="st48 st49 st50">SolV</text>
	<text id="label46" bar:growlevel="0" transform="matrix(1 0 0 1 1436.5791 1667.9688)" class="st48 st49 st50">CeCv</text>
	<text id="Unlabeled-1414-1549" bar:growlevel="0" transform="matrix(1 0 0 1 1381.5918 1474.3145)" class="st48 st49 st50">9cCb</text>
	<text id="Unlabeled-1784-1448" bar:growlevel="0" transform="matrix(1 0 0 1 1387.8877 1340.1133)" class="st48 st49 st50">grey</text>
	<text id="label56" bar:growlevel="0" transform="matrix(1 0 0 1 1527.8301 1849.5254)" class="st48 st49 st50">12n</text>
	<text id="label55" bar:growlevel="0" transform="matrix(1 0 0 1 1370.5703 1693.7383)" class="st48 st49 st50">12N</text>
	<text id="label50" bar:growlevel="0" transform="matrix(1 0 0 1 1416.0508 1955.6563)" class="st48 st49 st50">IOC</text>
	<text id="label59" bar:growlevel="0" transform="matrix(1 0 0 1 1575.5313 2025.8066)" class="st48 st49 st50">12n</text>
	<text id="text3024" bar:growlevel="0" transform="matrix(1 0 0 1 1436.4209 1991.2109)" class="st48 st49 st50">Ct</text>
	<text id="label21" bar:growlevel="0" transform="matrix(1 0 0 1 1352.8164 1574.293)" class="st48 st49 st50">SolC</text>
	<text id="label20" bar:growlevel="0" transform="matrix(1 0 0 1 1584.7949 1529.7324)" class="st48 st49 st50">Cu</text>
	<text id="label25" bar:growlevel="0" transform="matrix(1 0 0 1 1687.5801 1238.498)" class="st48 st49 st50">Cop</text>
	<text id="label24" bar:growlevel="0" transform="matrix(1 0 0 1 1388.6719 1425.7422)" class="st48 st49 st50">9cCb</text>
	<text id="label29" bar:growlevel="0" transform="matrix(1 0 0 1 1784.0898 1489.5215)" class="st48 st49 st50">sp5</text>
	<text id="Unlabeled-1654-1185" bar:growlevel="0" transform="matrix(1 0 0 1 1545.5898 1088.4121)" class="st48 st49 st50">9a-bCb</text>
</g>
</svg>
