<?xml version="1.0" encoding="utf-8"?>
<!-- Generator: Adobe Illustrator 24.1.1, SVG Export Plug-In . SVG Version: 6.00 Build 0)  -->
<svg version="1.1"
	 id="body" inkscape:version="0.47pre4 r22446" sodipodi:docname="76_pretrace_pretrace_v1.svg" xmlns:bar="http://www.3dbar.org" xmlns:cc="http://creativecommons.org/ns#" xmlns:dc="http://purl.org/dc/elements/1.1/" xmlns:inkscape="http://www.inkscape.org/namespaces/inkscape" xmlns:rdf="http://www.w3.org/1999/02/22-rdf-syntax-ns#" xmlns:sodipodi="http://sodipodi.sourceforge.net/DTD/sodipodi-0.dtd" xmlns:svg="http://www.w3.org/2000/svg"
	 xmlns="http://www.w3.org/2000/svg" xmlns:xlink="http://www.w3.org/1999/xlink" x="0px" y="0px" viewBox="0 0 3024 3024"
	 style="enable-background:new 0 0 3024 3024;" xml:space="preserve">
<style type="text/css">
	.st0{fill:#FF000C;}
	.st1{fill:#6117D8;}
	.st2{fill:#C6FF59;}
	.st3{fill:#C0E976;}
	.st4{fill:#9AE900;}
	.st5{fill:#FF0045;}
	.st6{fill:#B2FF00;}
	.st7{fill:#8F6BE1;}
	.st8{fill:#FFDE00;}
	.st9{fill:#490BDC;}
	.st10{fill:#B9E959;}
	.st11{fill:#DF6D00;}
	.st12{fill:#FF6400;}
	.st13{fill:#D86BC8;}
	.st14{fill:#F200DD;}
	.st15{fill:#DF5F00;}
	.st16{fill:#6523C3;}
	.st17{fill:#DBDF6B;}
	.st18{fill:#69FF00;}
	.st19{fill:#5C23BF;}
	.st20{fill:#B4FF59;}
	.st21{fill:#610BE5;}
	.st22{fill:#DBFFB2;}
	.st23{fill:#6B17E5;}
	.st24{fill:#8053C3;}
	.st25{fill:#8CFF00;}
	.st26{fill:#FF7B00;}
	.st27{fill:#FFB2DC;}
	.st28{fill:#805FD4;}
	.st29{fill:#FEFF3B;}
	.st30{fill:#7447D4;}
	.st31{fill:#8647F6;}
	.st32{fill:#DDFFB2;}
	.st33{fill:#8AD400;}
	.st34{fill:#92FF00;}
	.st35{fill:#FFEF00;}
	.st36{fill:#FF23E9;}
	.st37{fill:#FFFAB2;}
	.st38{fill:#E9E159;}
	.st39{fill:#5F23ED;}
	.st40{fill:#FFF000;}
	.st41{fill:#E0E959;}
	.st42{fill:#C6D400;}
	.st43{fill:#F3FF59;}
	.st44{fill:#D8E900;}
	.st45{fill:#8847F2;}
	.st46{fill:#FFEC00;}
	.st47{fill:#FFE900;}
	.st48{fill:#D8DF00;}
	.st49{fill:#C4C923;}
	.st50{fill:#C3C900;}
	.st51{fill:#E6E98E;}
	.st52{fill:#FDFF76;}
	.st53{fill:#FEFFB2;}
	.st54{fill:#D3D43B;}
	.st55{fill:#FBFF8E;}
	.st56{fill:#E2E923;}
	.st57{fill:#F1F48E;}
	.st58{fill:#FFE300;}
	.st59{fill:#FF005D;}
	.st60{fill:#DEFFB2;}
	.st61{fill:#98FF00;}
	.st62{fill:#84DF00;}
	.st63{fill:#BBFF59;}
	.st64{fill:#97FF59;}
	.st65{fill:#FFE600;}
	.st66{fill:#83E900;}
	.st67{fill:#E99159;}
	.st68{fill:#D45400;}
	.st69{fill:#E99659;}
	.st70{fill:#DFFFB2;}
	.st71{fill:#3FFF00;}
	.st72{fill:#B8FF00;}
	.st73{fill:#A500FF;}
	.st74{fill:#E95B00;}
	.st75{fill:#232323;enable-background:new    ;}
	.st76{font-family:'TimesNewRomanPSMT';}
	.st77{font-size:27px;}
</style>
<sodipodi:namedview  bordercolor="#666666" borderopacity="1" gridtolerance="10" guidetolerance="10" id="namedview319" inkscape:current-layer="content" inkscape:cx="558.48848" inkscape:cy="453.48027" inkscape:pageopacity="0" inkscape:pageshadow="2" inkscape:window-height="1127" inkscape:window-maximized="1" inkscape:window-width="1920" inkscape:window-x="1680" inkscape:window-y="25" inkscape:zoom="7.1639281" objecttolerance="10" pagecolor="#ffffff" showgrid="false">
	</sodipodi:namedview>
<desc  id="desc5">This was produced by version 4.2 of GNU libplot, a free library for exporting 2-D vector graphics.</desc>
<defs>
	<rdf:RDF>
		<cc:Work  rdf:about="">
			<dc:format>image/svg+xml</dc:format>
			<dc:type  rdf:resource="http://purl.org/dc/dcmitype/StillImage"></dc:type>
		</cc:Work>
	</rdf:RDF>
	<bar:data  content="0.0" name="coronalcoord"></bar:data>
	
		<bar:data  content="{&apos;ReferenceHeight&apos;: 900, &apos;ReferenceWidth&apos;: 1200, &apos;imageSize&apos;: (1200, 900)}" name="rendererConf">
		</bar:data>
	
		<bar:data  content="{&apos;DumpEachStepSVG&apos;: False, &apos;DumpEachStepPNG&apos;: False, &apos;GrowDefaultBoundaryColor&apos;: 200, &apos;CacheLevel&apos;: 5, &apos;NewPathIdTemplate&apos;: &apos;structure%d_%s_%s&apos;, &apos;PoTraceConf&apos;: {&apos;potrace_accuracy_parameter&apos;: &apos;0.001&apos;, &apos;potrace_width_string&apos;: &apos;1200pt&apos;, &apos;potrace_svg_resolution_string&apos;: &apos;300x300&apos;, &apos;potrace_height_string&apos;: &apos;900pt&apos;}, &apos;DetectUnlabelled&apos;: True, &apos;DumpVBrain&apos;: False, &apos;DumpWrongSeed&apos;: True, &apos;DumpDirectory&apos;: &apos;.&apos;, &apos;MinFiterTimesApplication&apos;: 3, &apos;RegionAlreadyTraced&apos;: 100, &apos;UnlabelledTreshold&apos;: 500}" name="tracingConf">
		</bar:data>
	<bar:data  content="0.0176211454,-9.5150660793,0.0176211454,-1.5355884426" name="transformationmatrix"></bar:data>
</defs>
<g id="content">
	<path class="st0" d="M2360.1,1395.9c-5.3-61.8-15.6-114.8-35.6-184.5c-42.1-146.5-92.8-252-159.6-332.6
		c-13.5-16.3-47.6-50-63.4-62.8c-16.8-13.6-34.3-26.3-58.9-42.8c-90.5-60.8-184.5-106.6-274.3-133.7c-76-23-142.7-32.1-213-29.3
		c-110.6,4.3-196.3,18.3-262.4,42.8c-73.4,27.3-117.3,64.4-138.6,117.4c-4.4,10.9-9.9,30.8-10.9,39.2c-0.4,3.3-1,5-1.9,5
		c-0.1,0-0.2,0-0.2,0v1289.7c45.8,0,64-1.5,87.6-6.8c11.6-2.6,17.9-5.3,23-10c6.9-6.3,8.7-13.7,5.7-23.4c-0.8-2.7-1.3-5.1-0.9-5.4
		c0.3-0.3,2.9,0.3,5.8,1.3c12.9,4.5,23.7,4.7,33.8,0.6c8.8-3.5,11-2.9,8.6,2.5c-2.1,4.5,3.9,10.5,8.6,8.7c4.7-1.8,5.7-4.9,3.5-11.6
		c-0.6-2.1-0.5-2.1,4.2-1.4c17.2,2.2,31.1,8,49.8,20.7c18.4,12.5,31.9,18.4,49.9,21.7l8.3,1.5v4.1c0,10.5,9.7,21.1,27.4,29.7
		c23.9,11.7,54.9,19.1,99.5,23.7c16.8,1.7,70.8,1.4,91.8-0.4c35.2-3.3,60.2-7.7,76.9-13.7c14.3-5,22.6-6.8,32.9-6.8h8.3l-0.5,2.6
		c-0.4,1.8-0.1,3.2,1,4.5c1.6,2,24.6,11.7,27.7,11.8c3.6,0,5.1-3.6,2.9-7.2c-0.6-0.9-0.8-2-0.5-2.3c0.4-0.4,4,0.3,8.1,1.3
		c23.7,5.9,44.5,4.9,86.2-4.1c55.6-12,84.9-21.3,118.5-38.2c40.1-20,74.3-44.7,110-79.7c30.2-29.6,55.9-59.9,74.4-88.2
		c29.3-44.8,57.5-110.4,67.4-157c3.2-15.2,6-20.5,16.2-30.3c9.7-9.4,11.7-12.4,23.3-35.5c32.6-64.5,50.9-129.9,58.8-209.3
		C2361.6,1487.4,2361.9,1417.7,2360.1,1395.9z"/>
	<path class="st1" d="M1147.4,1810.8c-1.8-1.1-3.9-1.7-6-1.7v24.2c0,0,0.1,0,0.1,0C1154.2,1833.3,1158.3,1817.5,1147.4,1810.8z"/>
	<path id="structure101_label105_STLV" bar:growlevel="0" bar:type="" class="st2" d="M1370.8,1738.4c-0.7,0.2-4.5,0.8-8.3,1.4
		c-3.9,0.5-7.4,1.5-7.9,2.2c-2.4,2.9-3.2,21.9-1.1,25.4c1.3,2.1,20.3,4.1,35.2,3.7c16-0.4,23.4-2.3,30-7.3c4.2-3.2,8.5-8.8,9.3-12.3
		c0.6-2.6,2.1-2.2-26.8-9C1387.5,1739.2,1374.5,1737.5,1370.8,1738.4z"/>
	<path id="structure102_label106_STMV" bar:growlevel="0" bar:type="" class="st3" d="M1249.3,1709.7c0,2.9,9.4,19.4,16.3,28.5
		c10.9,14.5,22.3,24,36.2,30.3c14.2,6.4,29.6,6.7,48,0.8l2.8-0.9l-0.5-8.5c-0.3-5,0-10.2,0.6-12.7c0.6-2.3,0.8-4.4,0.6-4.7
		c-0.3-0.3-4.3,0.7-8.8,2.2c-11.1,3.4-19.7,3.4-30,0c-12.9-4.4-28-14.5-41-27.4c-8.2-8.2-9.7-8.9-20-9
		C1250.2,1708.2,1249.3,1708.5,1249.3,1709.7z"/>
	<path id="structure103_label107_STLP" bar:growlevel="0" bar:type="" class="st4" d="M1420.1,1507.5c-3.4,1.1-5,2.4-7,6.5
		c-2.6,5.1-4,12-9.8,49.9c-5.3,34.7-6.8,42.8-11.2,63.9c-4,18.9-2.9,40.1,2.7,52.5c2.7,5.9,5.4,9,7.8,9c4.6,0,25.6,8.2,40.9,15.9
		c16.1,8.2,19.2,9.4,19.2,7.5c0-0.5-1.3-6.7-2.9-13.8c-2.7-12.2-2.8-13.7-2.7-29.9c0.2-20.2-0.5-30.2-1.9-30.2
		c-0.6,0-2.5,2.5-4.2,5.5c-7.7,13.3-21.6,20.3-27.3,13.5c-4.2-5.1-5.6-13.6-5.6-36.1c0-22.4,1-30.4,6.3-52.2
		c7-28.6,15.3-42,21.6-35.1c0.9,1,2.3,1.8,3,1.8c1.7,0,0.9-6.7-1.5-12.2C1442.7,1513.4,1428.7,1504.9,1420.1,1507.5z"/>
	<path id="structure104_text3113_E" bar:growlevel="0" bar:type="" class="st5" d="M1498.2,1068c-1,0.3-5,1.1-9,1.8
		c-11.8,2.3-23.9,5.8-23.9,7.2c0,1,1.6,1.3,6.6,1.3c8.7,0,20.4,1.5,24.4,3.2c1.8,0.7,3.9,2.4,4.8,3.7c1.4,2.3,1.4,2.5-1.3,7.9
		c-1.6,3-6.3,10.2-10.6,15.8c-16,21.6-26,41.5-37.8,76.1c-9.8,28.3-12.2,44.8-17.5,122.4c-2.2,31.1-2.2,31.1-0.6,31.1
		c0.8,0,2-6,4.1-21.9c7.5-55.1,14.4-96.3,19-113.8c5.9-22.9,20.2-54.1,35.9-79.3c9-14.4,14.8-20.8,30.2-33.4
		c13.7-11.2,19.4-16.6,19.4-18.5c0-0.8-1.1-1.8-2.4-2.3C1537,1068.2,1501.3,1067.2,1498.2,1068z"/>
	<path id="structure106_label108_E" bar:growlevel="0" bar:type="" class="st5" d="M1417.8,1456.1c-1.3,4.1-1.4,6.1-0.3,6.6
		c1.2,0.4-0.5,33.8-1.8,37.6c-1.7,4.9-3.5,7.1-8.6,10.9c-4.7,3.5-6.1,6.2-3.3,6.2c1.9,0,9.4-5.5,12.9-9.5c1.4-1.7,3.2-4.6,3.6-6.5
		c0.5-2,1-13.1,1-26.2c0-18.4-0.3-22.7-1.2-22.7C1419.3,1452.6,1418.4,1454.2,1417.8,1456.1z"/>
	<path id="structure107_text3108_IG" bar:growlevel="0" bar:type="" class="st6" d="M1150.6,1114.1c-5.2,0.6-6.1,1.2-5.3,3.2
		c1.2,3.1,6.1,4.1,18.5,3.5c10.4-0.5,11.7-0.8,11.7-2.3C1175.5,1115.7,1160.8,1113,1150.6,1114.1z"/>
	<path id="structure108_label110_LSS" bar:growlevel="0" bar:type="" class="st7" d="M1832.1,1895.5c-14.8,2.2-32.4,9.4-43.7,17.9
		c-7.2,5.4-19.9,18.5-25.5,26.3c-12.3,17.4-18.5,36-18.5,55.7c0,11.5,1.3,11.6,5.3,0.4c3.6-10,5.6-13.1,14.5-23.4
		c15.1-17.4,59-54.1,83.9-70.2c3.9-2.5,7-5,7-5.5c0-0.6-0.9-1.3-2-1.6C1850.2,1894.3,1838.6,1894.6,1832.1,1895.5z"/>
	<path id="structure109_label111_DCl" bar:growlevel="0" bar:type="" class="st8" d="M2021.3,1547.5c-1.8,29.6-9.2,83.2-15.5,112.9
		c-1.3,5.8-2.3,11.2-2.3,12c0,0.9,3.2,3.8,8.1,7.1c11.2,7.6,22.1,17.4,27.5,24.6c7.1,9.5,7.7,8.6,8.4-12.2
		c0.6-24-2.3-45.4-14.9-110.6c-4-20.1-7.5-38-7.7-39.9c-0.4-1.8-1.2-3.3-1.8-3.3C2022.2,1538.1,2021.6,1540.6,2021.3,1547.5z"/>
	<path id="structure10_label9_Fu" bar:growlevel="0" bar:type="" class="st9" d="M1405.9,1769.7c-5,1.5-8.2,1.8-21.2,1.8
		c-10.3,0-17.8-0.4-23-1.4c-5.8-1.2-7.7-1.2-8.4-0.4c-1.2,1.7,0.1,15.1,2.1,21.4c3.9,12.7,9.7,18,21.9,19.9
		c16.5,2.5,31.6-3.4,37.8-15c3.6-6.7,2.1-28.5-2-28.3C1412.4,1767.8,1409.2,1768.6,1405.9,1769.7z"/>
	<path id="structure110_label112_STLD" bar:growlevel="0" bar:type="" class="st10" d="M1439,1534.6c-7.8,6.1-18.1,43-20.3,73.3
		c-1.2,14.8-0.1,35.8,2.2,43.5c1.7,5.5,4.8,9.1,7.9,9.1c3.6,0,10-2.6,13.5-5.5c3.5-2.9,9-10.4,12.1-16.6c1.5-3,2.1-6.8,3-22.1
		c1.4-23.9,0.6-34.2-5.1-72.2c-0.5-3.7-6.9-11.4-9.5-11.4C1441.9,1532.7,1440.2,1533.5,1439,1534.6z"/>
	<path id="structure111_label114_VMPO" bar:growlevel="0" bar:type="" class="st11" d="M1144,2003.2v19.8l6.8,0.5
		c14.5,1.3,33.8,6.5,45.7,12.4c3.9,1.9,7.6,3.5,8.3,3.5c1.9,0,2.7-7.5,1.4-13c-1.4-6.5-6-13-16.2-23c-6.8-6.7-10.2-9.4-15.4-11.9
		c-7.4-3.6-17.4-6.6-25.4-7.6l-5.2-0.5L1144,2003.2L1144,2003.2z"/>
	<path id="structure112_label116_SO" bar:growlevel="0" bar:type="" class="st12" d="M1255,2051.2c-1.6,0.4-3,1.4-3,2.2
		c0,1.5,6.3,4.4,14.8,6.8c11.7,3.2,31.9,1.4,32.7-2.9c0.3-1.5-7.8-4.3-17.7-6.2C1275.9,2050,1259,2050,1255,2051.2z"/>
	<path id="structure113_label117_mcer" bar:growlevel="0" bar:type="" class="st13" d="M1766.6,2141.7c-0.4,0.4-0.6,1.6-0.6,2.7
		c0,2.5,2.4,3.9,16.2,9.4c10.6,4.2,15.6,4.6,16,1.1c0.5-3.9-3.8-6.8-15.1-9.9C1770.2,2141.3,1767.5,2140.9,1766.6,2141.7z"/>
	<path id="structure115_label119_acer" bar:growlevel="0" bar:type="" class="st14" d="M1307.1,2060.4c-6,6.5,3.1,15.5,9.3,9.2
		c1.3-1.2,2.3-3.2,2.3-4.5c0-3.1-3.8-6.8-7-6.8C1310.1,2058.3,1308.3,2059.1,1307.1,2060.4z"/>
	<path id="structure11_label10_PS" bar:growlevel="0" bar:type="" class="st15" d="M1285.3,1763c-1.7,3.3-2.7,13.8-1.7,20.3
		c1.9,13.2,7.9,22,19.1,27.4c8.7,4.3,17.3,6.3,27.4,6.3c12.6,0,21.9-4,27-11.8l2.3-3.5l-2-4.4c-3.1-7.1-4.6-14.4-4.6-21.4
		c0-4.7-0.4-6.6-1.2-6.6c-0.5,0-4,0.8-7.4,1.9c-3.7,1.1-10.3,2.1-15.8,2.3c-12.1,0.6-17.8-0.7-31.1-7.4c-5.4-2.7-10.2-4.9-10.5-4.9
		S1285.9,1762.1,1285.3,1763z"/>
	<path class="st16" d="M1255.2,2060.2c-2.3-5.2-3.1-5.9-7.4-7.9c-2.6-1.3-10.7-3.4-18.1-4.9c-14.8-2.9-21.3-5-29.5-9.5
		c-11.2-6.2-28.1-11.3-44.5-13.5c-5.5-0.7-9.9-1-14.4-1.1v79.4c46.1,0,65-1.5,87.1-6.3c15.8-3.5,22.2-6.8,27-14
		C1259,2077.1,1258.9,2068.3,1255.2,2060.2z"/>
	<path class="st17" d="M1141.3,1114.2v8.1h0v-11.7C1141.4,1111.6,1141.3,1112.8,1141.3,1114.2z"/>
	<path class="st17" d="M1143.4,893.7c-0.9,0-1.2,20.1-1.2,97.2c0,95.3,0,97.2,1.7,97.2c2.6,0,7.1,4.1,7.7,7.2c1,4.7-4.1,10.8-9,10.8
		c-0.8,0-1.2,0.9-1.3,4.5v11.7h3.1c3.4,0,4-1.2,1.7-3.7c-0.8-0.9-1.3-2.3-1-2.9c1.5-4,23.3-2.8,29.8,1.6c2.6,1.8,4.9,2.2,16.8,3
		c33.7,2.3,60-3.6,82.4-18.5c6.9-4.5,21.5-18.6,29.1-28.2c13.6-17.1,23.4-33.3,40.6-66.8c13.5-26.5,18.3-34.2,25.5-41.2
		c2.3-2.2,4.1-4.4,4.1-5C1373.5,960,1146.1,893.6,1143.4,893.7z"/>
	<path class="st18" d="M2000.9,1409c-11.4-49.6-19.3-75.8-32.3-108.4c-18.3-45.6-35.5-76.1-61.7-108.9
		c-74.7-93.4-109.5-123.8-185.9-161.9c-46.8-23.3-94.3-37.8-168.3-51.3c-13.6-2.5-28.3-4.9-32.8-5.5c-10.5-1.2-34.2-1.2-45.3,0.1
		c-39.8,4.3-81.3,21.6-104.4,43.5c-3.7,3.5-11.4,12.2-17.1,19.4c-11.7,14.7-28.2,31.6-37.4,38.4c-3.3,2.5-11.9,8.1-18.9,12.4
		c-6.9,4.2-15.4,9.9-18.7,12.5c-11.7,9-27.1,15.8-45.1,19.6c-8.3,1.8-12.4,2-42.9,2.3c-17.6,0.2-33.8,0.3-48.6,0.3v68.8
		c14,0,27.8-0.5,36.4-1.7c32.8-4.7,66.2-13.1,93.2-23.6c30.8-12,134.2-60.9,158.4-75c14.7-8.6,47.2-19.1,68.2-22.2
		c10.7-1.6,39.9-0.6,43.1,1.4c1.7,1,4.3,0.9,18-0.8c60.3-7.7,94.4-8.2,127.2-1.9c47.3,9.1,86.7,32.8,135.6,81.6
		c81.2,81.1,129.6,165.5,164.4,286.4c13,45.2,19.7,75.8,22.8,103.5c2.1,19.2,2.1,60.6-0.1,81c-2.8,26.7-2.7,25.2-1.3,25.2
		c2.9,0,11.7-66.4,14.2-107.2C2023.2,1510.3,2020.6,1494.7,2000.9,1409z"/>
	<path id="structure12_label11_StA" bar:growlevel="0" bar:type="" class="st19" d="M1242.2,1703.7c-1.9,6.4-9.9,21.3-15.3,28.5
		c-5,6.8-16.8,19.2-18.3,19.2c-0.4,0-0.7,0.8-0.7,1.7c0,2.2,5.7,9.1,19.7,24.4c15.6,17,21.1,24.3,25.9,34.8c3.7,8,4.6,9.3,6.1,8.9
		c1-0.2,6.5-2,12.2-4s13.7-4.3,17.8-5.2c4.1-1,7.4-2.1,7.4-2.5c0-0.4-1.5-2.5-3.4-4.6c-9.8-10.6-13.1-24.2-9.5-39.2l1.4-6.1
		l-6.9-6.5c-7.5-6.9-16.9-19-23-29.3c-4.4-7.4-10-19.8-10-22.1C1245.7,1698.8,1243.3,1700.1,1242.2,1703.7z"/>
	<path class="st20" d="M1272.6,1471.3c-0.3-10.5-0.7-13.8-2.5-18.6c-7-19.6-25.2-52-50.9-90.9c-14.2-21.6-19.9-27.8-32.8-36.3
		c-16.5-10.6-31.8-16.2-45-16.5v69c0,0,0.1,0,0.1,0c7.5,0,20,31.8,29.4,74.8c5.2,23.5,5.8,31.2,5.9,68.9v34.5h3.3
		c5.3,0,24.1-4.1,34.4-7.6c16.4-5.5,27-11.6,37.2-21.5C1267.4,1511.8,1273.3,1496.3,1272.6,1471.3z"/>
	<path class="st21" d="M1272.6,1471.3c-0.3-10.5-0.7-13.8-2.5-18.6c-7-19.6-25.2-52-50.9-90.9c-14.2-21.6-19.9-27.8-32.8-36.3
		c-16.5-10.6-31.8-16.2-45-16.5v69c0,0,0.1,0,0.1,0c7.5,0,20,31.8,29.4,74.8c5.2,23.5,5.8,31.2,5.9,68.9v34.5h3.3
		c5.3,0,24.1-4.1,34.4-7.6c16.4-5.5,27-11.6,37.2-21.5C1267.4,1511.8,1273.3,1496.3,1272.6,1471.3z"/>
	<path id="structure132_label140_aca" bar:growlevel="0" bar:type="" class="st22" d="M1298.4,1666.3c-13.8,2.4-20.9,4.4-26.5,7.3
		c-4,2.1-9,6.2-9,7.5c-0.1,0.4-0.5,2.4-0.9,4.7c-1.2,5.8,0.4,14.7,3.9,21.2c7.3,13.9,34.9,34.3,52.4,38.7c9.4,2.3,16.9,1.8,29.7-2.3
		c21.8-6.9,30.5-7,56.7-0.5c40,9.8,74.3,21.8,122.4,42.8c23.6,10.3,41.3,19.2,53.6,26.6c18.4,11.3,42.3,22.5,56.7,26.5
		c9.3,2.6,9.9,2.5,9.9-1.1c0-2.6-0.9-3.9-5.7-8.4c-12.8-12-27.1-22.8-67.2-50.6c-29.1-20.2-38.2-25.4-81.9-47.9
		c-18.1-9.3-39.5-20.3-47.7-24.6c-17.9-9.3-29.1-13.5-44.5-16.9c-16.1-3.6-21.2-5.4-37.3-13.1c-19-8.9-27.1-11.3-41.4-11.7
		C1312.3,1664.2,1307.7,1664.6,1298.4,1666.3z"/>
	<path id="structure133_label141_mfba" bar:growlevel="0" bar:type="" class="st23" d="M1457.2,1979c0,8.8-1.7,23.4-4,33.7
		c-5.6,24.9-19.1,47.2-36.4,60c-3,2.3-5.4,4.5-5.5,5.1c0,0.5,1.5,1.3,3.4,1.5c14,2.1,23.5,1.4,53.3-3.5c17.5-3,37.5-5.8,64.8-9
		c30.2-3.7,53.5-12.9,67.7-26.6c5.5-5.3,10.6-13.4,10.6-16.7c0-2.3-5-6.8-11.1-9.6c-8.6-4.1-21.9-7.8-48.2-13.2
		c-36.4-7.5-61.2-14.4-82.3-23c-5.3-2.2-10.3-4-11-4C1457.5,1973.7,1457.2,1975,1457.2,1979z"/>
	<path id="structure134_label142_mfbb" bar:growlevel="0" bar:type="" class="st24" d="M1339.5,1948.9c-7.7,2.5-13.2,7.8-18,17.2
		c-3.2,6.4-4.8,14-5.3,26.1c-0.5,13.3,0.8,21.4,4.9,28.3c2.9,4.9,13,15.6,21.4,22.5c15.3,12.5,41.8,27.4,58.3,32.8l7.8,2.5l3.8-2.5
		c20.6-13.5,35.6-37.7,41.2-66.8c1.9-9.4,3.6-36.3,2.3-36.3c-0.3,0-4.3,0.6-8.8,1.4c-13.8,2.4-30.6,0.5-49.2-5.6
		c-10.4-3.4-28.3-11.7-36.5-17c-4.5-2.9-6.1-3.3-11.6-3.7C1345.7,1947.8,1341.9,1948.1,1339.5,1948.9z"/>
	<path class="st25" d="M1175.4,1189.3c-12.6,1.5-23.3,2.3-34.1,2.3v48.2c7.7,0,9.1-0.3,14.4-2.8c14.5-6.9,22.5-20.3,23.9-40.1
		l0.5-8.2L1175.4,1189.3z"/>
	<path id="structure138_label148_AVPe" bar:growlevel="0" bar:type="" class="st26" d="M1148.8,1853.8l-4.8,2.3v63.6v63.5l6.5,0.6
		c5.7,0.5,14.2,3,23.8,6.9c1.6,0.6,3.2,0.9,3.4,0.6c0.4-0.3-0.6-4-2.2-8.2c-7.9-22.6-15.2-66.1-18.1-108.2
		c-1.4-20.8-1.8-23.8-3-23.8C1153.9,1851.4,1151.3,1852.6,1148.8,1853.8z"/>
	<polygon class="st27" points="1141.8,1834.2 1141.4,1834.2 1141.4,2023.2 1141.8,2023.2 1144.9,2023.2 1144.9,1928.7 
		1144.9,1834.2 	"/>
	<path id="structure13_label12_Al" bar:growlevel="0" bar:type="" class="st28" d="M1198.9,1757.8c-5.8,3.4-15.1,7.1-18.2,7.1
		c-1.5,0-1.6,1.1-1.6,12.8c0,12.4,0.1,12.8,2.4,15.9c8.9,11.9,22.1,24.1,34.6,31.9c13.2,8.3,24.3,10.4,31.2,5.8
		c5-3.4,6.7-6.8,6.2-13.6c-0.6-9.7-6.6-18.8-25.5-39.2c-5.7-6.2-12.7-14.2-15.6-17.7c-2.8-3.6-5.8-6.5-6.5-6.5
		C1205.4,1754.3,1202.2,1755.8,1198.9,1757.8z"/>
	<path id="structure143_label68-22_S1DZ" bar:growlevel="0" bar:type="" class="st29" d="M2069.1,811.1
		c-18.4,24.4-53.1,68.8-133.5,170.4c-86.4,109.3-99.5,126-99.5,127.4c0,1.7,21.7,23.8,23.4,23.8c1,0,8.3-7.2,18.2-18
		c9.1-9.9,35.9-38.8,59.7-64.3c133.3-143,190.4-205.8,190.4-209.3c0-2.7-45.9-41-49.1-41C2078,800.1,2073.6,805.1,2069.1,811.1z"/>
	<path class="st30" d="M1175.1,1701c-2.3-27.1-4.9-38.2-10.9-48.2c-4.1-6.8-7-9.8-12.5-13.1c-3-1.7-6.7-2.6-10.3-2.6v172.1
		c12.7,0,17.4,16.5,5.8,23.3l-3.2,1.9v10.3c0,8.6,0.2,10.3,1.3,10.3c5.8,0,19.7-12.9,25-23.1c6.3-12.1,7.1-17.3,7.7-45.6
		C1178.4,1759.9,1177.3,1727.8,1175.1,1701z"/>
	<path id="structure15_label14_SHy" bar:growlevel="0" bar:type="" class="st31" d="M1260.6,1537.4c-50.9,26.9-90.8,73.3-94.6,110.2
		c-0.5,4.8-0.2,6.5,2.2,12.6c1.4,4,3.3,10.4,4.1,14.3c2.6,13,5.9,56.5,5.9,77.6c0,5.9,0.4,11.2,0.8,11.9c0.6,1,1.6,0.9,6-0.4
		c20.7-6,40.8-24.8,52.3-49c1.7-3.7,4.7-11.3,6.7-16.8c5.2-15.2,8.5-23.1,14.5-34.9c10.4-20.3,22.6-37,43.7-59.7
		c15-16.1,16.1-18.2,15-27c-0.4-2.8-2.1-7.7-4.1-11.8c-8.5-16.9-25.1-30.5-38.3-31.4C1269.9,1532.7,1269,1532.9,1260.6,1537.4z"/>
	<path class="st32" d="M1174.8,1475.6c-2.8-19.1-9.8-48.1-16-66.2c-4.2-12.4-10.3-26.3-12.7-28.9c-0.9-1.1-2.8-1.6-4.7-1.6v257.4
		c5.2,0,11.1,3,16.5,8.3c5.9,5.8,7.7,6.4,7.7,2.9s3.4-16,5.8-21.5c1.9-4.3,2.3-7.1,3.2-25.8
		C1176.3,1571.1,1176.3,1486.3,1174.8,1475.6z"/>
	<path id="structure17_label16_STMA" bar:growlevel="0" bar:type="" class="st33" d="M1390.5,1527.1c-28.8,19.1-41.2,29.6-74.6,63.1
		c-13.7,13.7-27.9,28.7-31.7,33.4c-15.1,18.8-28.3,41.8-36.2,63.4c-3.2,8.5-3.2,9.1-2.3,13.7c0.5,2.6,1.3,5.1,1.6,5.6
		c0.3,0.5,4.3,1.2,8.9,1.5c9.5,0.8,9.2,1.2,6.5-7.5c-3.1-9.8-2.3-17.6,2.3-22.2c6.1-6.1,17.3-9.8,39.7-13.1
		c21.2-3.1,31.5-1.2,55.3,10.1c13.9,6.6,30.3,12.5,34.5,12.5c2.8,0,2.8,0-0.8-8.6c-5.7-13.5-6.3-32.8-1.9-53
		c4.2-19.3,6.1-30,12.2-70.7c2.1-13.6,4.5-27.8,5.5-31.7c2-8.1,2.1-8.8,0.6-8.7C1409.6,1514.8,1400.7,1520.4,1390.5,1527.1z"/>
	<path id="structure18_label18_LSV" bar:growlevel="0" bar:type="" class="st34" d="M1407.3,1450.6c-13.7,9.9-26.9,17.8-49.1,29.4
		c-20,10.4-23.8,12.7-50.4,29.4c-10.6,6.7-22.3,13.9-25.8,15.9c-4.5,2.7-6.6,4.4-6.6,5.6c0,1.2,0.6,1.7,1.9,1.7
		c3.3,0,12.8,5.1,19,10.3c12.1,10,20.5,24,21.2,35.4c0.3,3.6,0.8,6.6,1.3,6.6c0.4,0,6.4-5.1,13.1-11.3c6.8-6.3,20.6-18.4,30.8-26.9
		s19.9-17.6,21.7-20c10.8-14.8,25.4-45.9,33.1-70.9c3-9.6,3.4-13.1,1.7-13C1418.6,1442.8,1413.2,1446.3,1407.3,1450.6z"/>
	<path id="structure19_label19_Tu-1" bar:growlevel="0" bar:type="" class="st35" d="M1464,2077c-6,1.1-8.3,2-14.5,6.1
		c-9.3,6.2-17.9,15.3-18.7,19.7c-3.4,18.4,18,34.1,61.8,45.5c53,13.9,124.4,15.9,192.2,5.8c19.8-3,29.1-5,41.5-9.4
		c5.8-2,13.9-4.4,18.1-5.3c6.9-1.5,8-2.1,11-5.4c1.9-2.1,3.6-5.2,4-6.9c0.5-3,0-9-0.9-10c-0.3-0.2-8.5,0.6-18.3,2
		c-38.7,5.1-97.6,11.3-125.1,13.2c-21.8,1.5-37.4,0-86.6-8.1c-8.7-1.5-23-3.7-31.6-5c-19.9-2.9-29.3-5.7-33.8-9.9
		c-3.1-2.9-3.2-3.4-2.9-7.2c0.6-4.9,4.9-12.1,11.3-19.3c2.5-2.9,4.7-5.7,4.7-6.2C1476.1,2075.2,1473,2075.2,1464,2077z"/>
	<path class="st36" d="M1150.3,1092.5c-1.5-2.7-5.1-4.2-9-4.1v17.3c3.4,0.2,6.7-0.9,8.5-3.4
		C1151.4,1100,1151.7,1095.1,1150.3,1092.5z"/>
	<path id="structure20_label20_Tu-2" bar:growlevel="0" bar:type="" class="st37" d="M1493.6,2072.2c-14.4,2.2-16,3-23.8,12.3
		c-8,9.6-11.1,17.6-8.5,22.3c2.4,4.8,13.4,8.8,29.3,10.9c4.2,0.5,19.8,3,34.7,5.4c51.4,8.4,52.6,8.5,76.5,8.5
		c22.4,0,31.4-0.7,85.5-6.7c27.5-3.1,65.3-7.8,68.5-8.6c2.7-0.7,2.7-1.3-0.3-15.8c-1.6-8-2.8-11.6-3.6-11.6c-0.6,0-3.6,1.2-6.6,2.7
		c-9.9,5-18.1,7.1-36.2,9.4c-41.1,5.2-91.3,8.8-120.9,8.8c-45.8-0.1-75.1-4.2-84.4-12c-7-5.8-6.2-10.6,3.1-19.8
		c3.4-3.3,6.2-6.6,6.2-7.1C1513,2069.7,1508.2,2069.9,1493.6,2072.2z"/>
	<path id="structure21_label21_Tu-3" bar:growlevel="0" bar:type="" class="st38" d="M1732.4,2032.3c-2.7,1.5-35.9,15.8-56.9,24.4
		c-22.2,9.2-27.8,10.9-40.6,12.5c-11.6,1.5-66.3,1.5-91.7,0c-12.4-0.7-20.2-0.8-22.7-0.3c-8.1,1.8-21,14.9-21,21.3
		c0,11.3,18.9,16.5,67.5,18.6c31.2,1.3,67.9-0.5,122.8-6c33-3.4,41.9-5.2,54.8-11.2c6.9-3.2,7.7-3.8,7.7-6c0-1.4-1.8-9.4-4.1-17.8
		c-2.3-8.5-4.5-17.1-4.9-19.1c-0.6-2.5-1.5-3.9-2.7-4.2c-2.4-0.6-3.9-4.8-3.1-9.4c0.5-3.5,0.5-3.8-1.5-3.8
		C1734.9,2031.3,1733.3,2031.8,1732.4,2032.3z"/>
	<path id="structure22_label22_IEn" bar:growlevel="0" bar:type="" class="st39" d="M1898.2,1860.2c-18.5,18.5-30.7,29.1-45,38.5
		c-30.7,20.4-62,46-83.3,67.9c-14.4,14.8-16,17.5-22.9,37.7c-9.3,26.6-11.3,39.6-6.2,39.6c3.1,0,4.6-1.2,12.1-10.3
		c15.3-18.6,40.2-41,60.4-54.2c21.3-13.9,71.5-38.3,100.8-48.6c3.7-1.3,6.8-2.9,6.8-3.5c0-0.6-1.8-1.6-4-2.3
		c-5.3-1.5-11.3-5.4-14.1-9.1c-7.6-10.1-5.4-24.5,8.4-56.9c5.5-12.7,6.1-15.1,4.2-14.9C1914.5,1844.3,1906.9,1851.5,1898.2,1860.2z"
		/>
	<path id="structure23_label23_CB" bar:growlevel="0" bar:type="" class="st40" d="M1779,1914.4c-6.2,2-20.9,3.6-36.4,4.1
		c-18.1,0.5-21.2,1.4-25.8,6.4c-6.1,6.6-7.9,14.4-9.7,41.7c-0.7,11.7-2,24.5-2.7,28.6c-4.3,22.4-15.5,44.1-28.7,55.5
		c-4.9,4.1-6.3,6.7-3.8,6.7c1.9,0,31.4-12.2,61.4-25.6l5.5-2.4l2.6-8.3c2.3-7.6,2.6-9.5,2.7-22.7c0.1-15.8,1.2-22.2,5.8-34.7
		c5-13.8,14.3-27.5,27.4-40.5C1786.6,1914,1787.1,1911.9,1779,1914.4z"/>
	<path id="structure24_label24_DEn" bar:growlevel="0" bar:type="" class="st41" d="M1953.6,1789.9c-8.7,15.8-18.8,31-26,39.2
		c-5.2,6-7.1,9.1-12.2,20.7c-12.3,27.7-16.2,40-16.2,51.5c0,6.7,0.4,8.9,2.1,12.1c2.5,5.1,8.5,9.2,17.7,12.1
		c23.9,7.6,50.3,7.1,71.7-1.2c32.2-12.5,37.2-34.9,19.7-88.7c-2.3-6.9-4.4-13-4.8-13.5c-0.5-0.5-2.9-2.3-5.5-4
		c-3.4-2.2-6.8-5.8-11.7-12.2c-10.3-13.7-24.2-27.6-27.4-27.5C1960.3,1778.5,1957.1,1783.6,1953.6,1789.9z"/>
	<path id="structure25_label25_Pir-1" bar:growlevel="0" bar:type="" class="st42" d="M2169.3,1879.4c0.7,4.5-2.7,17.4-6.9,26.5
		c-17.6,37.8-53.2,90.5-72.2,106.7c-25.7,22-70.7,42.2-106.7,47.9c-12,1.9-23.6,2-45.7,0.5c-31.3-2.1-57.8,1.1-83.2,9.8
		c-13.1,4.5-22.7,9-47.3,22.2c-25.8,13.9-35.1,18.5-42,21l-5.7,2.1v5.9c0,5.8-0.4,6.9-4.7,12.9c-0.6,0.8-0.9,1.7-0.7,2
		c0.3,0.2,4.3,0.8,9.1,1.4c5.2,0.6,14.4,2.7,23.7,5.5c8.4,2.4,15.8,4.5,16.5,4.5s2.3-1.3,3.6-2.7c1.3-1.6,6.1-4.6,11.4-7.2
		c20.2-9.8,47.4-16.4,68-16.6l12.2-0.1l8.1,3.8c11.2,5.2,17.2,6.7,28.3,6.7c9.3,0.1,9.9-0.1,25.7-5.3
		c72.8-24.1,135.4-68.9,197.1-140.9c18.6-21.7,31.5-39.5,45.5-62.5c6-10,18.9-34.4,18.9-35.7c0-0.5-5.9-1.7-13.3-2.8
		c-7.3-1.2-18.9-3.5-25.7-5.2c-6.9-1.7-13-3.2-13.4-3.2C2169.3,1876.5,2169.1,1877.9,2169.3,1879.4z"/>
	<path id="structure26_label26_Pir-2" bar:growlevel="0" bar:type="" class="st43" d="M2155.9,1873.6c-3.6,0.7-9.6,8-17.7,21.6
		c-22.8,37.8-51.2,74.7-71.2,92.3c-6.4,5.6-10.7,8.5-20.3,13.2c-34.6,17.5-58.5,22-95.8,17.6c-17.4-2-55-2.8-68-1.4
		c-21,2.2-35.5,6.3-47.5,13.3c-3.2,1.9-16.1,11.3-28.8,20.8c-23,17.4-36.1,26.6-46.6,32.9c-6.7,4-6.8,4.2-3.9,17.9
		c2.7,13.1,2.7,13.2,4.7,13.2c3.5,0,16-5.8,38.1-17.6c41.8-22.3,57.4-28.9,79.2-33.3c21.2-4.2,39.3-4.9,79.3-2.6
		c33.5,1.9,80.5-13.1,117.4-37.6c18.9-12.5,32.4-27.1,51.7-56.1c13.1-19.8,23-36.8,32.5-55.8c5.9-12.1,7.9-16.9,9.1-23.1
		c1.8-8.9,1.2-12.2-2.4-13.9C2162.7,1873.7,2158.4,1873,2155.9,1873.6z"/>
	<path id="structure27_label27_Pir-3" bar:growlevel="0" bar:type="" class="st44" d="M2031,1813.5c-0.9,1-4.5,3.2-7.9,4.9
		c-4.9,2.4-7.4,3.2-11.1,3.2c-4,0-4.9,0.3-4.9,1.5c0,0.8,1.6,6.5,3.6,12.6c2.1,6.1,5,16.3,6.5,22.6c2.6,10.2,2.9,12.9,3,24.5v13.1
		l-3.4,6.8c-2.4,5-4.8,8.2-8.5,11.4c-8.6,7.7-24,13.9-40.8,16.4c-9.2,1.3-26.7,0.6-36.2-1.4l-6.9-1.4l-9.7,3.2
		c-20.7,7.1-69.5,29.6-90.7,41.8c-22.5,13.1-51.3,37.4-68.1,57.5c-3.6,4.2-7.8,9.3-9.5,11.1l-3.2,3.3l1.1,5.2
		c2.1,10.6,9.4,36.3,10.3,36.3c3,0,22.9-13.6,51.3-34.9c13-9.8,26-19.3,29-21.1c23.9-14.5,61.6-18.2,121.5-11.9
		c21.2,2.3,39.9,0.9,57.6-4.3c13.8-4,37.2-14.7,45.8-20.9c19.1-13.7,53.5-56.7,77.5-96.8c8-13.4,12.3-19.3,15.8-21.2
		c1.4-0.9,2.7-2.1,2.7-2.6c0-0.5-2.3-1.7-5.1-2.6c-7.7-2.4-31.4-12.2-45.7-18.8c-20.4-9.4-51.4-26.5-66.2-36.5
		C2033.9,1811.3,2033.1,1811.2,2031,1813.5z"/>
	<path id="structure28_label28_VCl" bar:growlevel="0" bar:type="" class="st45" d="M2002.1,1677.4c-2.6,11.2-9.2,31.9-13,41.3
		c-2.6,6.2-9.9,21.9-16.3,34.7c-6.3,12.9-11.5,23.7-11.5,23.9c0,0.4,1.3,1.5,3,2.7c4.6,3.1,16.2,15.1,22.2,23.1
		c8.3,10.9,12.3,14.6,18,16.7c8.5,3.2,18.4,0.6,27.1-7.1c7.6-6.8,13.3-22,16.7-43.8c1.9-12.5,2.2-38.3,0.4-45.4
		c-2.7-10.8-10.5-22.2-22.5-32.7c-6.5-5.7-21-15.9-22.5-15.9C2003.1,1674.9,2002.4,1676,2002.1,1677.4z"/>
	<path id="structure29_label29_CPu" bar:growlevel="0" bar:type="" class="st46" d="M1610.7,1063.5c-15.5,1.1-68.1,7.1-68.4,7.8
		c-1,2.6-6,7.5-18.7,18c-8.5,7.1-17.3,14.9-19.5,17.6c-8.7,9.9-26.5,40.6-34.9,60.5c-14,32.7-16.9,47.1-33.9,167.4
		c-2.8,19.5-5.8,39.4-6.8,44.1c-0.9,4.7-2.1,14.9-2.6,22.5c-0.5,7.7-1.6,20.8-2.3,29.3c-0.8,8.4-1.7,28.1-2.2,43.7
		c-0.5,15.6-1.1,29.2-1.4,30.2c-0.5,1.7-0.2,2,4.3,2.4c12.9,1.3,22.9,11,25.9,24.9c0.7,3.5,1.4,4.5,2.7,4.5c3.2,0,8.5,3.4,12.9,8.2
		c8.3,9.3,13.5,23.9,25.6,72.8c18.1,72.2,21.4,89.4,19,95.8c-1.4,3.6-5.9,5.9-11.8,5.9c-9.2,0-25.4-6.4-32-12.6
		c-4.9-4.6-5.5-3.9-3.7,4.5l1,5.1l27.1,13.8c14.9,7.7,31,15.9,35.6,18.4c5.4,3,11.4,5.4,16.5,6.7c19,4.7,42.7,13.5,63.2,23.5
		c20.4,10,26.9,14.6,56.6,40.3c18.6,16.2,26.3,22.2,32.5,25.8c4.8,2.9,15.3,5.6,46.4,12.1c29.9,6.3,34,7.5,39.5,10.6
		c13.2,7.7,22.8,25.1,18.5,33.6c-2.8,5.6-2.1,5.6,10.6,0.4c12.2-5.1,22.1-6.8,36.6-6.6l12.2,0.3l7.6-6.1
		c19.3-15.8,47.7-44,63.8-63.6c10.7-13,27.1-41.4,44-76.1c10.7-21.9,12.6-26.5,17.2-42.5c12.9-45.2,18.7-90.8,17.7-138.4
		c-0.7-34.7-3.8-56.1-13.2-93.6c-30.2-119.3-66.1-196.9-125.3-271.2c-25.5-31.9-62.8-70-88.5-90.3c-34.6-27.3-66.5-41.9-105.1-47.7
		c-9.3-1.4-17.3-1.9-36.6-2.2C1627.2,1063.3,1613.7,1063.3,1610.7,1063.5z"/>
	<path id="structure2_label0_VP" bar:growlevel="0" bar:type="" class="st47" d="M1427.3,1753.6c-1.5,3.8-7.1,9.8-11,12
		c-1.5,0.9-1.6,1.4-0.5,4.9c5.5,18.3,0.7,31-14.2,38.1c-5.8,2.7-6.4,2.8-17.9,2.8h-12l-0.6,2.3c-0.4,1.3-0.5,8.3-0.5,15.8
		c0.1,11.3,0.5,14.9,2.5,22.5c5,19.5,15.9,35.7,28.3,42.3c11.6,6.1,24.8,17.6,33.6,29.3c6,8,13.6,23.4,18.3,36.9l3.8,11.3l6.8,3.3
		c15,7.6,50.2,17.7,90,25.8c26.1,5.4,35.6,8.1,45.4,12.6c7.1,3.3,12.2,7.7,12.2,10.7c0,5.4-9.9,17.5-19.8,24
		c-10.9,7.3-28.4,14.1-42.6,16.7c-4.6,0.9-6,1.4-6,2.6c0,1.4,1.8,1.6,15,2.1c22.5,0.9,60.6,0.7,72.7-0.4c20.1-1.7,26-3.6,36.9-11.8
		c13.7-10.3,22.5-21.5,28.7-36.4c6.7-15.9,9-27.8,10.4-54.2c1.5-26.8,3.6-35.2,10.7-42.3c2.1-2.1,3.7-4.1,3.7-4.6
		c0-0.5-5.2-0.9-13.9-0.9c-32.4,0-62.6-4.4-80.4-11.8c-15.3-6.4-25.7-17.8-32.7-36.1c-3.9-10-6.1-20.1-8.9-39.9l-2.4-17.1l-4.4-2.9
		c-14.9-9.7-66.9-33-106.5-47.6c-13-4.9-40.8-13.9-42.5-13.9C1429.1,1749.6,1428.2,1751.4,1427.3,1753.6z"/>
	<path id="structure30_label30_AIP" bar:growlevel="0" bar:type="" class="st48" d="M2046.7,1707.4c-1.1,5.1-1.1,5.9,0.9,11.5
		c1.8,5,2.2,8.3,2.5,21.2c0.6,24.6-3.2,46.3-11.1,62.2c-2.3,4.4-4,8.5-4,9c0,0.4,4.9,3.9,11.1,7.6c55.4,34.5,115.7,58.6,163.9,65.7
		c6.9,1,12.9,1.4,13.2,1.1c0.4-0.4,3-5.8,5.8-12c13.5-29.8,26.6-67.8,31.1-89.7c1-4.9,2.7-11.2,3.7-13.9c1.1-2.9,1.7-5.8,1.4-6.4
		c-0.3-0.7-2.1-1.7-4-2.2c-7-1.9-181.3-50.9-196.2-55.3c-8.5-2.4-15.8-4.4-16.3-4.4C2048.3,1701.9,2047.4,1704.4,2046.7,1707.4z"/>
	<path id="structure31_label31_DI" bar:growlevel="0" bar:type="" class="st49" d="M2041.6,1626.9c4.5,26.5,7.2,52.8,6.8,65.5
		l-0.3,8.9l13.5,3.8c7.5,2.1,49.1,13.9,92.7,26c43.6,12.2,86.1,24.3,94.7,26.7c8.5,2.4,16,4.4,16.8,4.4c0.7,0,5.7-4.5,11.1-10
		c7.7-7.8,10.8-11.9,14.6-18.6c7-12.7,19-37.3,19-39.2c0-0.9-0.6-1.5-1.6-1.5c-6,0-206.8-52.1-266-69.1
		C2041.2,1623.4,2041.2,1623.7,2041.6,1626.9z"/>
	<path id="structure32_label32_GI" bar:growlevel="0" bar:type="" class="st50" d="M2026,1546c0.1,0.9,3.4,18.6,7.5,39.3l7.5,37.8
		l30.6,8.4c84.6,23.2,232.9,61.4,238.9,61.5c2.6,0,18.6-42.2,27-71.2c2.1-7,3.6-12.9,3.4-13.1c-0.7-0.7-38.8-9.7-62.4-14.8
		c-41.1-8.9-247.5-49.4-251.6-49.4C2026.4,1544.4,2026,1545.1,2026,1546z"/>
	<path id="structure33_label33_S2" bar:growlevel="0" bar:type="" class="st51" d="M2306.4,1251.6c-64.4,19.3-310.2,90.1-318,91.7
		c-2.8,0.5-3.1,0.9-2.6,3.5c0.2,1.5,2.3,9.4,4.6,17.6c2.3,8.2,7.2,28.2,10.9,44.6c15.4,67.1,19.4,88.1,21.1,108.9
		c0.4,6.4,1.4,14.8,2,18.6c0.8,5.8,1.4,6.9,2.9,7.4c1.1,0.3,32.7,6.4,70.3,13.6c121.1,23.2,197,38.8,228.1,46.8
		c6.7,1.7,13,3.1,14,3.1c1.8,0,2.3-1.3,5.2-14.2c11.6-50.6,16.7-101.9,15.7-155.9c-1.3-59.2-8.5-112.9-23.2-174
		c-4.2-17.2-4.7-18.6-6.5-18.5C2329.8,1244.8,2318.8,1247.9,2306.4,1251.6z"/>
	<path id="structure34_label34_S1ULp" bar:growlevel="0" bar:type="" class="st52" d="M2119.7,851.6
		c-18.3,21.8-70.9,79.3-166.6,182.1c-75.3,80.8-92.2,99.3-92.5,100.8c-0.2,0.7,3.5,5.7,8.1,11c36.2,41.6,57.1,69.3,71.9,95.2
		c13,22.7,28.3,57.4,38.6,87.8c2.6,7.6,5,14.3,5.4,14.7c0.8,0.9,11.4-2,89.1-24.3c117.3-33.6,257.1-74.4,258-75.2
		c1.1-1.2-14.5-54.9-26-89.7c-37.1-112.2-80.6-198.7-133.5-264.6c-16.3-20.3-40.9-46.8-43.6-46.8
		C2127.9,842.4,2123.9,846.6,2119.7,851.6z"/>
	<path id="structure35_label35_S1FL" bar:growlevel="0" bar:type="" class="st53" d="M1686.8,814.6c-21.4,102-38.9,185.5-38.7,185.7
		c0.2,0.2,5.7,2,12.1,4.1c44.1,14.4,97.8,41.9,134.2,68.9c11.6,8.6,26.5,21.3,34.1,29.2c3,3,5.8,5.5,6.5,5.5c0.5,0,3-2.5,5.4-5.7
		c8.9-11.7,42.3-54.1,99.3-126.2c114-144.2,136.8-173.7,136.8-176.7c0-3.7-57.7-42.1-99-66.1c-70.4-40.8-141.1-72.3-206.6-92.1
		c-14.9-4.5-43.1-12.1-44.6-12.1C1726,629.1,1708.3,712.6,1686.8,814.6z"/>
	<path id="structure36_label36_S1HL" bar:growlevel="0" bar:type="" class="st54" d="M1565.8,612.1c-0.4,1.3-18.5,346.5-18.8,358.5
		l-0.2,6.3l17.6,3.2c22.3,4.2,42.8,8.9,61.8,14.1c8.3,2.3,16.5,4.3,18.2,4.5l3.2,0.5l39-184.8c21.4-101.6,38.6-185,38.3-185.4
		c-0.9-0.9-27.1-6.5-43.5-9.3c-32-5.5-55.6-7.7-88.4-8.4C1570.5,610.9,1566.1,611,1565.8,612.1z"/>
	<path id="structure37_label37_M1" bar:growlevel="0" bar:type="" class="st55" d="M1538.2,612.1c-37.8,1.8-82.4,5.8-112.9,10.3
		c-16.3,2.4-30.2,4.8-30.7,5.2c-0.2,0.2,34.7,313,35.8,321.4c0.3,1.3,2.6,2.2,15.4,4.8c8.4,1.6,29.5,6.7,47,11.1
		c29.1,7.3,52.4,12.4,53,11.6c0.1-0.2,4.4-79.6,9.4-176.3c5-96.8,9.5-178.9,9.7-182.5l0.5-6.5l-6.2,0.1
		C1555.9,611.3,1546.4,611.8,1538.2,612.1z"/>
	<path id="structure38_label38_M2" bar:growlevel="0" bar:type="" class="st56" d="M1383.9,629.2c-79,16.5-129.9,36.2-169.6,66
		c-10,7.5-26.3,22.9-25.9,24.5c0.2,0.6,43.8,54.1,97,118.7c69.5,84.5,97,117.4,98.1,117.1c0.7-0.3,5-1.8,9.4-3.3
		c6.9-2.4,9.5-2.9,17.6-3c5.2,0,11.8,0.2,14.8,0.6l5.3,0.6l-0.5-2.4c-0.2-1.4-8.5-74.1-18.3-161.6c-11.1-98.8-18.2-159-18.8-158.9
		C1392.4,627.5,1388.4,628.2,1383.9,629.2z"/>
	<path class="st57" d="M1187.3,721.1c-1-0.2-3.4,2-6.8,6.3c-12.2,15.4-22.2,33.6-28.3,51.7c-8.2,24.6-10,39.1-10,82
		c0,29.3,0.1,31.7,1.6,32.1c44.6,13.3,229.5,66.2,231.3,66.2c2.8-0.1,5.6-1.9,5.6-3.7C1380.6,953.8,1189.1,721.4,1187.3,721.1z"/>
	<path id="structure3_label1_IPAC" bar:growlevel="0" bar:type="" class="st58" d="M1543.6,1757c0,0.6,1.9,2.3,4.3,3.6
		c4.3,2.4,53.1,36.3,66.3,46.1c13.4,9.9,30.1,24.1,32,27.3c1.5,2.5,1.7,3.5,1,5.2l-1,2.1l-6.7-1.7c-11.7-3-29.5-10.4-45.5-19.2
		c-4.2-2.3-8.1-4.1-8.8-4.1c-1.6,0-1.5,3.5,0.6,18.5c4.6,31.4,11.7,49.3,24.4,61.7c9.3,9.1,28.5,16,53,19.2
		c20.3,2.7,53.3,3.7,78.6,2.5c30.4-1.4,43.4-4,51.8-10.1c10.2-7.4,8.8-20-3.6-32.9c-9.1-9.4-11.6-10.3-50.3-18.4
		c-27.1-5.7-37.4-8.3-42.9-11.2c-5.8-2.9-17.5-12.1-33.6-26.2c-18.5-16.2-30.8-25.9-39.4-31.1c-15.7-9.5-44.1-22-66.7-29.1
		C1546.2,1755.7,1543.6,1755.3,1543.6,1757z"/>
	<path id="structure40_label41_LV" bar:growlevel="0" bar:type="" class="st59" d="M1452.2,1080.9c-7.9,2.1-16.2,5.5-23.8,9.9
		c-19.4,11.3-113.8,56.4-148.1,70.8c-3.4,1.5-6.4,3.2-6.6,4c-0.1,0.7,3.7,4.7,8.5,8.8c30.2,26.6,92.3,101.2,112.8,135.7
		c11.4,19.3,23.5,46.4,28.2,63c1.2,4.1,2.5,7.5,3.1,7.5c1.4,0,3.9-20.7,5.3-45.8c3.1-52,7.1-98.9,9.9-115.7c1.7-10,7-28,13.5-45.4
		c8.7-23.4,17.7-41.7,27.5-55.5c3.4-4.9,9-13.1,12.5-18.2c9.3-13.8,8.6-16.9-4-19.6C1482.5,1078.5,1460,1078.9,1452.2,1080.9z"/>
	<path id="structure41_label42_LSD" bar:growlevel="0" bar:type="" class="st60" d="M1265.7,1167.4c-11.4,5-51.2,15.6-72.3,19
		l-12.2,2.1l-1.1,8.6c-0.6,4.7-1.3,9.8-1.5,11.3c-0.5,2.7-0.2,3.1,5.2,6.8c7.5,5,18.3,13.2,27.4,20.7l7.4,5.9l12.4,0.6
		c51.4,2.5,90.5,9.4,119.7,21.3c11.5,4.7,13,5,13,3.3c0-2-25.6-33.4-45.4-55.4c-20.2-22.6-44.7-46.3-47.7-46.1
		C1270,1165.6,1267.9,1166.4,1265.7,1167.4z"/>
	<path class="st20" d="M1272.6,1471.3c-0.3-10.5-0.7-13.8-2.5-18.6c-7-19.6-25.2-52-50.9-90.9c-14.2-21.6-19.9-27.8-32.8-36.3
		c-16.5-10.6-31.8-16.2-45-16.5v69c0,0,0.1,0,0.1,0c7.5,0,20,31.8,29.4,74.8c5.2,23.5,5.8,31.2,5.9,68.9v34.5h3.3
		c5.3,0,24.1-4.1,34.4-7.6c16.4-5.5,27-11.6,37.2-21.5C1267.4,1511.8,1273.3,1496.3,1272.6,1471.3z"/>
	<path class="st21" d="M1272.6,1471.3c-0.3-10.5-0.7-13.8-2.5-18.6c-7-19.6-25.2-52-50.9-90.9c-14.2-21.6-19.9-27.8-32.8-36.3
		c-16.5-10.6-31.8-16.2-45-16.5v69c0,0,0.1,0,0.1,0c7.5,0,20,31.8,29.4,74.8c5.2,23.5,5.8,31.2,5.9,68.9v34.5h3.3
		c5.3,0,24.1-4.1,34.4-7.6c16.4-5.5,27-11.6,37.2-21.5C1267.4,1511.8,1273.3,1496.3,1272.6,1471.3z"/>
	<path id="structure44_label47_LSI-1" bar:growlevel="0" bar:type="" class="st61" d="M1265.5,1246.8c0,0.7,1.1,2.2,2.3,3.4
		c4.1,3.7,18.5,20.5,27.5,31.9c45.9,58.1,78,117.8,89.4,166.5c1.3,5.9,2.6,11.3,2.8,11.9c0.2,0.6,1,1.2,1.9,1.2
		c1.8,0,18.6-11.2,26.8-17.7c6.5-5.3,6.1-3.9,8.5-34.5l1.6-22.9l-2.9-10.8c-8.7-31.9-25.1-63.6-49.9-96.6
		c-4.7-6.3-5.4-6.8-14.8-11.4c-19.5-9.5-45.4-16.3-78.8-20.7C1267.3,1245.4,1265.5,1245.3,1265.5,1246.8z"/>
	<path id="structure45_label48_LSI-2" bar:growlevel="0" bar:type="" class="st62" d="M1222.3,1244c0,0.6,3.3,4,7.5,7.6
		c4,3.5,14.9,14,24.1,23.4c40.7,41.3,69.3,82.5,88.4,127.3c8.5,20.1,16.3,47.2,18.7,66.1c0.6,4.9,1.5,8.6,2.1,8.6
		c0.5,0,6.1-2.8,12.2-6.3l11.3-6.2l-0.1-4.3c-0.4-13.5-13.3-51.2-27.2-79c-20.9-42-58.7-96.3-89-128l-7.9-8.4l-13.8-0.9
		C1229.6,1242.6,1222.3,1242.7,1222.3,1244z"/>
	<path id="structure46_label49_LSI-3" bar:growlevel="0" bar:type="" class="st63" d="M1174.7,1218.2c-5.1,11-16.3,20-26.9,21.7
		c-2.1,0.4-3.8,1.1-3.8,1.6c0,0.5,3.3,3.6,7.5,6.8c43.6,34.5,89.4,79.6,117.2,115.7c33.1,43,53,85.4,55.8,118.8
		c0.9,10.9,1.4,13.9,2.3,13.9c0.5,0,4.6-2.2,9.2-4.9c4.6-2.7,12.2-6.8,17.1-9.2l8.8-4.4l-0.5-4.5c-7.7-61.7-38.3-122.3-92.1-182.5
		c-13.1-14.8-36.7-37.4-52.8-50.9c-14.9-12.5-36-28.1-37.8-28.1C1178.1,1212.3,1176.3,1214.9,1174.7,1218.2z"/>
	<path class="st64" d="M2000.9,1409c-11.4-49.6-19.3-75.8-32.3-108.4c-18.3-45.6-35.5-76.1-61.7-108.9
		c-74.7-93.4-109.5-123.8-185.9-161.9c-46.8-23.3-94.3-37.8-168.3-51.3c-13.6-2.5-28.3-4.9-32.8-5.5c-10.5-1.2-34.2-1.2-45.3,0.1
		c-39.8,4.3-81.3,21.6-104.4,43.5c-3.7,3.5-11.4,12.2-17.1,19.4c-11.7,14.7-28.2,31.6-37.4,38.4c-3.3,2.5-11.9,8.1-18.9,12.4
		c-6.9,4.2-15.4,9.9-18.7,12.5c-11.7,9-27.1,15.8-45.1,19.6c-8.3,1.8-12.4,2-42.9,2.3c-17.6,0.2-33.8,0.3-48.6,0.3v68.8
		c14,0,27.8-0.5,36.4-1.7c32.8-4.7,66.2-13.1,93.2-23.6c30.8-12,134.2-60.9,158.4-75c14.7-8.6,47.2-19.1,68.2-22.2
		c10.7-1.6,39.9-0.6,43.1,1.4c1.7,1,4.3,0.9,18-0.8c60.3-7.7,94.4-8.2,127.2-1.9c47.3,9.1,86.7,32.8,135.6,81.6
		c81.2,81.1,129.6,165.5,164.4,286.4c13,45.2,19.7,75.8,22.8,103.5c2.1,19.2,2.1,60.6-0.1,81c-2.8,26.7-2.7,25.2-1.3,25.2
		c2.9,0,11.7-66.4,14.2-107.2C2023.2,1510.3,2020.6,1494.7,2000.9,1409z"/>
	<path id="structure4_label2_SIB" bar:growlevel="0" bar:type="" class="st65" d="M1367.2,1889.8c-10.5,3.5-20.3,10.6-24.3,17.5
		c-2.3,4.1-2.7,5.7-2.7,11.5c0.1,12.8,5.7,22.2,18.2,30.6c22.2,14.9,48.3,23.9,71.9,24.9c11.7,0.5,22-0.5,25.1-2.4
		c1-0.6,0.4-3-2.7-11.9c-7.7-22.2-15.4-35.3-28.3-48.1c-9.3-9.2-19.6-16.6-28.9-20.5C1387.3,1888,1374.9,1887.3,1367.2,1889.8z"/>
	<path id="structure5_label3_HDB" bar:growlevel="0" bar:type="" class="st66" d="M1339.5,1948.9c-7.7,2.5-13.2,7.8-18,17.2
		c-3.2,6.4-4.8,14-5.3,26.1c-0.5,13.3,0.8,21.4,4.9,28.3c2.9,4.9,13,15.6,21.4,22.5c15.3,12.5,41.8,27.4,58.3,32.8l7.8,2.5l3.8-2.5
		c20.6-13.5,35.6-37.7,41.2-66.8c1.9-9.4,3.6-36.3,2.3-36.3c-0.3,0-4.3,0.6-8.8,1.4c-13.8,2.4-30.6,0.5-49.2-5.6
		c-10.4-3.4-28.3-11.7-36.5-17c-4.5-2.9-6.1-3.3-11.6-3.7C1345.7,1947.8,1341.9,1948.1,1339.5,1948.9z"/>
	<path id="structure6_label4_MCPO" bar:growlevel="0" bar:type="" class="st67" d="M1457.2,1979c0,8.8-1.7,23.4-4,33.7
		c-5.6,24.9-19.1,47.2-36.4,60c-3,2.3-5.4,4.5-5.5,5.1c0,0.5,1.5,1.3,3.4,1.5c14,2.1,23.5,1.4,53.3-3.5c17.5-3,37.5-5.8,64.8-9
		c30.2-3.7,53.5-12.9,67.7-26.6c5.5-5.3,10.6-13.4,10.6-16.7c0-2.3-5-6.8-11.1-9.6c-8.6-4.1-21.9-7.8-48.2-13.2
		c-36.4-7.5-61.2-14.4-82.3-23c-5.3-2.2-10.3-4-11-4C1457.5,1973.7,1457.2,1975,1457.2,1979z"/>
	<path id="structure7_label5_VLPO" bar:growlevel="0" bar:type="" class="st68" d="M1257.1,2010.7c-10,3.4-18.9,10.6-23,18.6
		c-2.6,5.1-4,11.3-3.3,14.9c0.5,2.6,1.1,3.2,3.5,3.7c1.6,0.3,5.8,1.3,9.3,2.4c6.1,1.7,6.8,1.7,12.8,0.4c11.2-2.5,25.6-1.3,38.7,3.5
		c4.4,1.6,8.1,2.3,12.6,2.3h6.4l0.6-4.1c1-7,0-16.7-2.3-21.6c-2.9-5.8-10.1-13-16.2-15.9C1284,2008.9,1267.3,2007.2,1257.1,2010.7z"
		/>
	<path id="structure88_label90_LV" bar:growlevel="0" bar:type="" class="st59" d="M1414.5,1476.7c-1.1,4.4-7.7,19.3-12.7,28.8
		c-7.2,13.7-6.7,14.8,3.6,7c9.9-7.6,10.5-9.1,11.8-30c0.4-6.8,0.3-8.3-0.8-8.3C1415.7,1474.2,1414.8,1475.3,1414.5,1476.7z"/>
	<path id="structure8_label7_MPA" bar:growlevel="0" bar:type="" class="st69" d="M1178.8,1795.7c-0.3,1.2-0.5,4.5-0.5,7.5
		c0,13.7-6.5,29.9-16,40.1l-5.9,6.3l0.6,11.4c2.7,49.7,9.6,94,19.2,122.8c3,9.1,3.4,9.9,7.8,13.5c7.2,5.9,16.9,17.1,20.3,23.4
		c2.9,5.4,3,6,2.5,13.1l-0.5,7.4l4.2,1.3c5.6,1.9,15.4,4.1,17.9,4.1c1.8,0,2-0.5,2-4.5c0-14.8,14.9-29.9,32.8-33.3
		c14.3-2.7,34.3,3.8,43.7,14.1c7.2,7.9,10,18.7,7.8,30.6l-0.6,3.9h3.8c6,0,19.4,3.1,27.3,6.2c7.8,3.1,18.9,9.5,28.8,16.6
		c12.9,9.2,27.9,15.8,43.1,18.9c12,2.5,12.4,2.3,19.4-5.1c3.4-3.6,7.8-7.7,9.8-9.1c2.1-1.4,3.7-3.1,3.7-3.6c0-0.8-4.9-1.1-17.7-1.1
		c-15.8,0-18.6-0.2-25-2c-29.6-8.3-72-36.2-85.2-56.1c-4.1-6.2-14.9-34.2-16.6-43.1c-5.8-30.1-12-54.8-20.8-83.3
		c-9.8-31.5-26.4-75.2-28.5-75.2c-0.6,0-2,1.8-3,4c-1.1,2.2-3.5,5.1-5.3,6.6c-3,2.3-4.1,2.5-9.8,2.5c-5.9,0-7.2-0.4-14.9-4.2
		c-13-6.5-28.4-19.2-37.7-30.8C1181,1793.3,1179.7,1792.6,1178.8,1795.7z"/>
	<path class="st70" d="M1324,1482c-4.6-41.8-28.1-86.6-73.3-139.7c-12.6-14.9-46.4-48.6-64.4-64.4c-23.6-20.8-42.3-35.7-45-35.7
		v66.7c4.5-0.1,8.9,0.4,13.1,1.6c16.2,4.4,41.2,19.5,50.5,30.5c5.2,6.2,24.1,35,36.5,55.8c12.1,20.3,24.4,44.1,28.6,55.5
		c2.9,7.8,3,8.6,3,21.6c0,14.3-0.9,19.5-5.2,30.3c-10.2,25-35.7,42.6-73.2,50.1c-4.9,1-10.9,2.1-13.4,2.4l-4.6,0.5l-0.6,19.5
		c-0.3,10.7-0.8,23.6-1.2,28.6c-0.7,11.8,0.3,12,6.8,1.6c16.3-26,46.7-52.6,79.8-70.2c10.9-5.8,31-17.7,50.4-30
		C1326.6,1497.4,1325.8,1498.9,1324,1482z"/>
	<path id="structure94_label97_cg" bar:growlevel="0" bar:type="" class="st71" d="M1396.8,950.9c-7.3,1.8-15.6,5.8-22.1,10.6
		c-9.7,7.2-14.4,14-27.3,39.4c-13.1,25.6-21.8,41.2-30,53.5c-6.7,9.9-17.6,24.4-20.8,27.4c-2.6,2.4-3.1,4.6-1,4.6
		c1.7,0,11.3-5.9,20.3-12.5c10-7.4,24-22,37.9-39.2c17-21.2,29.2-31,52.6-42.4c26.6-12.9,54.3-19.5,86.2-20.8
		c10.3-0.4,15-0.9,15-1.5c0-1.2-43.5-12.2-66.6-16.8C1424.4,949.6,1405.4,948.7,1396.8,950.9z"/>
	<path class="st64" d="M2000.9,1409c-11.4-49.6-19.3-75.8-32.3-108.4c-18.3-45.6-35.5-76.1-61.7-108.9
		c-74.7-93.4-109.5-123.8-185.9-161.9c-46.8-23.3-94.3-37.8-168.3-51.3c-13.6-2.5-28.3-4.9-32.8-5.5c-10.5-1.2-34.2-1.2-45.3,0.1
		c-39.8,4.3-81.3,21.6-104.4,43.5c-3.7,3.5-11.4,12.2-17.1,19.4c-11.7,14.7-28.2,31.6-37.4,38.4c-3.3,2.5-11.9,8.1-18.9,12.4
		c-6.9,4.2-15.4,9.9-18.7,12.5c-11.7,9-27.1,15.8-45.1,19.6c-8.3,1.8-12.4,2-42.9,2.3c-17.6,0.2-33.8,0.3-48.6,0.3v68.8
		c14,0,27.8-0.5,36.4-1.7c32.8-4.7,66.2-13.1,93.2-23.6c30.8-12,134.2-60.9,158.4-75c14.7-8.6,47.2-19.1,68.2-22.2
		c10.7-1.6,39.9-0.6,43.1,1.4c1.7,1,4.3,0.9,18-0.8c60.3-7.7,94.4-8.2,127.2-1.9c47.3,9.1,86.7,32.8,135.6,81.6
		c81.2,81.1,129.6,165.5,164.4,286.4c13,45.2,19.7,75.8,22.8,103.5c2.1,19.2,2.1,60.6-0.1,81c-2.8,26.7-2.7,25.2-1.3,25.2
		c2.9,0,11.7-66.4,14.2-107.2C2023.2,1510.3,2020.6,1494.7,2000.9,1409z"/>
	<path id="structure96_label99_lo" bar:growlevel="0" bar:type="" class="st72" d="M1882.5,2121.9c-29.3,3-64.8,13.9-74.9,23.1
		c-2.4,2.3-2.6,4-0.5,4.6c6.5,1.9,15.2,2.7,28.5,2.7c20.7-0.1,32.9-2.2,88-14.8c10-2.3,11.3-3.9,3.7-4.9c-5.8-0.7-11.3-2.5-21.6-7.1
		C1898.3,2122.2,1890.9,2121.1,1882.5,2121.9z"/>
	<path id="structure97_label100_ic" bar:growlevel="0" bar:type="" class="st73" d="M1451.2,1538.3c1.4,5.7,4.4,25.1,5.6,36.3
		c1.1,10.2,1.2,21.5,0.8,58.9c-0.7,57.5-0.2,63.1,7.4,71.1c6.6,7,20.2,13.1,31.9,14c10.7,0.9,15.2-3.9,14-15
		c-1.3-13.8-26.5-115.8-33.5-136c-5.7-16.3-12.2-26.3-19.7-29.6C1452.6,1535.7,1450.6,1535.8,1451.2,1538.3z"/>
	<path id="structure9_label8_LPO" bar:growlevel="0" bar:type="" class="st74" d="M1357.8,1804.4c-0.3,1-2.2,3.2-4.2,5
		c-10,9.1-26.8,10.8-44.3,4.4c-3.5-1.3-7.8-2.6-9.7-2.8c-6.7-0.9-40.3,9.4-40.3,12.2c0,0.7,2.8,8.5,6.2,17.1
		c17.3,44,31.9,92.8,38.3,128.8c2.7,14.7,8,31.5,10,31.5c0.9,0,1.3-1.3,1.3-4.4c0-12.4,3.9-26.9,9.4-35.7c5.2-8.1,13.5-12.9,22.3-13
		c5.4,0,6.7-1.3,3.6-3.7c-4.7-4-11.1-18.2-11.1-24.9c0-9.6,7.3-19.2,19.5-25.6c11-5.9,18.7-7,29.8-4.7c3.5,0.7,4-1.1,0.9-3.8
		c-3.5-3.1-10.4-14.6-13.3-22.1c-5.5-14.5-7.9-32.8-6-47.3l0.7-5.6l-3.1-1.4c-1.7-0.8-4-2.4-5.2-3.7
		C1360.2,1802.3,1358.5,1802.1,1357.8,1804.4z"/>
	<text id="label30" bar:growlevel="0" transform="matrix(1 0 0 1 2122.3389 1801.6289)" class="st75 st76 st77">AIP</text>
	<text id="label31" bar:growlevel="0" transform="matrix(1 0 0 1 2158.04 1708.6426)" class="st75 st76 st77">DI</text>
	<text id="label32" bar:growlevel="0" transform="matrix(1 0 0 1 2165.7188 1628.1992)" class="st75 st76 st77">GI</text>
	<text id="label33" bar:growlevel="0" transform="matrix(1 0 0 1 2179.3682 1444.3262)" class="st75 st76 st77">S2</text>
	<text id="label34" bar:growlevel="0" transform="matrix(1 0 0 1 2064.2285 1138.1836)" class="st75 st76 st77">S1ULp</text>
	<text id="label35" bar:growlevel="0" transform="matrix(1 0 0 1 1799.5107 872.7266)" class="st75 st76 st77">S1FL</text>
	<text id="label36" bar:growlevel="0" transform="matrix(1 0 0 1 1589.9297 816.8555)" class="st75 st76 st77">S1HL</text>
	<text id="label37" bar:growlevel="0" transform="matrix(1 0 0 1 1468.8779 803.4434)" class="st75 st76 st77">M1</text>
	<text id="label38" bar:growlevel="0" transform="matrix(1 0 0 1 1322.958 803.7734)" class="st75 st76 st77">M2</text>
	<text id="label39" bar:growlevel="0" transform="matrix(1 0 0 1 1218.6182 876.5938)" class="st75 st76 st77">Cg1</text>
	<text id="label143" bar:growlevel="0" transform="matrix(1 0 0 1 1145.0391 1221.3281)" class="st75 st76 st77">SHi</text>
	<text id="label142" bar:growlevel="0" transform="matrix(1 0 0 1 1362.5303 2038.0098)" class="st75 st76 st77">mfbb</text>
	<text id="label141" bar:growlevel="0" transform="matrix(1 0 0 1 1485.2832 2054.2461)" class="st75 st76 st77">mfba</text>
	<text id="label140" bar:growlevel="0" transform="matrix(1 0 0 1 1340.4492 1711.7012)" class="st75 st76 st77">aca</text>
	<text id="label148" bar:growlevel="0" transform="matrix(1 0 0 1 1154.4287 1968.0996)" class="st75 st76 st77">AVPe</text>
	<text id="label8" bar:growlevel="0" transform="matrix(1 0 0 1 1299.3193 1864.2793)" class="st75 st76 st77">LPO</text>
	<text id="label9" bar:growlevel="0" transform="matrix(1 0 0 1 1370.6895 1795.3262)" class="st75 st76 st77">Fu</text>
	<text id="label0" bar:growlevel="0" transform="matrix(1 0 0 1 1507.0986 1921.7402)" class="st75 st76 st77">VP</text>
	<text id="label1" bar:growlevel="0" transform="matrix(1 0 0 1 1669.8779 1892.4844)" class="st75 st76 st77">IPAC</text>
	<text id="label2" bar:growlevel="0" transform="matrix(1 0 0 1 1374.167 1939.502)" class="st75 st76 st77">SIB</text>
	<text id="label3" bar:growlevel="0" transform="matrix(1 0 0 1 1359.6797 2008.9941)" class="st75 st76 st77">HDB</text>
	<text id="label4" bar:growlevel="0" transform="matrix(1 0 0 1 1474.5195 2029.877)" class="st75 st76 st77">MCPO</text>
	<text id="label5" bar:growlevel="0" transform="matrix(1 0 0 1 1245.3486 2036.9609)" class="st75 st76 st77">VLPO</text>
	<text id="label7" bar:growlevel="0" transform="matrix(1 0 0 1 1199.6895 1930.0801)" class="st75 st76 st77">MPA</text>
	<text id="text3113" bar:growlevel="0" transform="matrix(1 0 0 1 1516.7607 1079.252)" class="st75 st76 st77">E</text>
	<text id="label139" bar:growlevel="0" transform="matrix(1 0 0 1 1216.8779 1488.1016)" class="st75 st76 st77">fi</text>
	<text id="label18" bar:growlevel="0" transform="matrix(1 0 0 1 1325.54 1526.8086)" class="st75 st76 st77">LSV</text>
	<text id="label19" bar:growlevel="0" transform="matrix(1 0 0 1 1581.6465 2155.8105)" class="st75 st76 st77">Tu-1</text>
	<text id="label12" bar:growlevel="0" transform="matrix(1 0 0 1 1204.2188 1806.5508)" class="st75 st76 st77">Al</text>
	<text id="label13" bar:growlevel="0" transform="matrix(1 0 0 1 1160.9531 1746.0996)" class="st75 st76 st77">MnPO</text>
	<text id="label10" bar:growlevel="0" transform="matrix(1 0 0 1 1306.0107 1798.4492)" class="st75 st76 st77">PS</text>
	<text id="label11" bar:growlevel="0" transform="matrix(1 0 0 1 1234.8193 1774.4141)" class="st75 st76 st77">StA</text>
	<text id="label16" bar:growlevel="0" transform="matrix(1 0 0 1 1307.8682 1627.0859)" class="st75 st76 st77">STMA</text>
	<text id="label14" bar:growlevel="0" transform="matrix(1 0 0 1 1202.4785 1640.6797)" class="st75 st76 st77">SHy</text>
	<text id="label15" bar:growlevel="0" transform="matrix(1 0 0 1 1151.2119 1580.3691)" class="st75 st76 st77">MS</text>
	<text id="label90" bar:growlevel="0" transform="matrix(1 0 0 1 1410.8701 1498.5664)" class="st75 st76 st77">LV</text>
	<text id="label96" bar:growlevel="0" transform="matrix(1 0 0 1 1276.3682 1413.9902)" class="st75 st76 st77">LSI-4</text>
	<text id="label97" bar:growlevel="0" transform="matrix(1 0 0 1 1391.748 976.2129)" class="st75 st76 st77">cg</text>
	<text id="label98" bar:growlevel="0" transform="matrix(1 0 0 1 1911.3779 1248.9023)" class="st75 st76 st77">ec</text>
	<text id="label99" bar:growlevel="0" transform="matrix(1 0 0 1 1854.8877 2145.3691)" class="st75 st76 st77">lo</text>
	<text id="text3108" bar:growlevel="0" transform="matrix(1 0 0 1 1158.834 1117.4785)" class="st75 st76 st77">IG</text>
	<text id="label119" bar:growlevel="0" transform="matrix(1 0 0 1 1311.6797 2065.1035)" class="st75 st76 st77">acer</text>
	<text id="label107" bar:growlevel="0" transform="matrix(1 0 0 1 1420.3389 1540.373)" class="st75 st76 st77">STLP</text>
	<text id="label106" bar:growlevel="0" transform="matrix(1 0 0 1 1282.4297 1739.9375)" class="st75 st76 st77">STMV</text>
	<text id="label105" bar:growlevel="0" transform="matrix(1 0 0 1 1387.1279 1755.9023)" class="st75 st76 st77">STLV</text>
	<text id="label104" bar:growlevel="0" transform="matrix(1 0 0 1 1146.9727 1824.1289)" class="st75 st76 st77">VOLT</text>
	<text id="label100" bar:growlevel="0" transform="matrix(1 0 0 1 1474.7607 1689.8281)" class="st75 st76 st77">ic</text>
	<text id="label109" bar:growlevel="0" transform="matrix(1 0 0 1 1143.7998 1099.3457)" class="st75 st76 st77">azp</text>
	<text id="label108" bar:growlevel="0" transform="matrix(1 0 0 1 1419.0996 1459.5488)" class="st75 st76 st77">E</text>
	<text id="label132" bar:growlevel="0" transform="matrix(1 0 0 1 1151.2119 2071.834)" class="st75 st76 st77">och</text>
	<text id="label48" bar:growlevel="0" transform="matrix(1 0 0 1 1321.6074 1351.8184)" class="st75 st76 st77">LSI-2</text>
	<text id="label136" bar:growlevel="0" transform="matrix(1 0 0 1 1198.5879 1013.2285)" class="st75 st76 st77">Cg2</text>
	<text id="label137" bar:growlevel="0" transform="matrix(1 0 0 1 1158.834 1165.9395)" class="st75 st76 st77">cc</text>
	<text id="label41" bar:growlevel="0" transform="matrix(1 0 0 1 1380.29 1192.4609)" class="st75 st76 st77">LV</text>
	<text id="label42" bar:growlevel="0" transform="matrix(1 0 0 1 1225.4297 1218.5645)" class="st75 st76 st77">LSD</text>
	<text id="label44" bar:growlevel="0" transform="matrix(1 0 0 1 1205.8086 1458.0996)" class="st75 st76 st77">SFi</text>
	<text id="label47" bar:growlevel="0" transform="matrix(1 0 0 1 1345.9951 1323.4688)" class="st75 st76 st77">LSI-1</text>
	<text id="label114" bar:growlevel="0" transform="matrix(1 0 0 1 1164.7764 2021.2402)" class="st75 st76 st77">VMPO</text>
	<text id="label116" bar:growlevel="0" transform="matrix(1 0 0 1 1276.3682 2056.2246)" class="st75 st76 st77">SO</text>
	<text id="label117" bar:growlevel="0" transform="matrix(1 0 0 1 1781.9297 2149.4492)" class="st75 st76 st77">mcer</text>
	<text id="label68-22" bar:growlevel="0" transform="matrix(1 0 0 1 2062.5957 861.8086)" class="st75 st76 st77">S1DZ</text>
	<text id="label110" bar:growlevel="0" transform="matrix(1 0 0 1 1807.8779 1919.6387)" class="st75 st76 st77">LSS</text>
	<text id="label111" bar:growlevel="0" transform="matrix(1 0 0 1 2028.3193 1655.1738)" class="st75 st76 st77">DCl</text>
	<text id="label113" bar:growlevel="0" transform="matrix(1 0 0 1 1142.8965 1893.9102)" class="st75 st76 st77">3V</text>
	<text id="label112" bar:growlevel="0" transform="matrix(1 0 0 1 1440.167 1594.3535)" class="st75 st76 st77">STLD</text>
	<text id="label23" bar:growlevel="0" transform="matrix(1 0 0 1 1705.8193 2019.0781)" class="st75 st76 st77">CB</text>
	<text id="label22" bar:growlevel="0" transform="matrix(1 0 0 1 1817.6895 1949.9766)" class="st75 st76 st77">IEn</text>
	<text id="label21" bar:growlevel="0" transform="matrix(1 0 0 1 1609.0693 2102.0117)" class="st75 st76 st77">Tu-3</text>
	<text id="label20" bar:growlevel="0" transform="matrix(1 0 0 1 1609.1895 2128.6543)" class="st75 st76 st77">Tu-2</text>
	<text id="label27" bar:growlevel="0" transform="matrix(1 0 0 1 1999.8779 2007.4648)" class="st75 st76 st77">Pir-3</text>
	<text id="label26" bar:growlevel="0" transform="matrix(1 0 0 1 1999.8779 2044.0098)" class="st75 st76 st77">Pir-2</text>
	<text id="label25" bar:growlevel="0" transform="matrix(1 0 0 1 1968.0498 2086.8594)" class="st75 st76 st77">Pir-1</text>
	<text id="label24" bar:growlevel="0" transform="matrix(1 0 0 1 1933.5195 1888.3438)" class="st75 st76 st77">DEn</text>
	<text id="label29" bar:growlevel="0" transform="matrix(1 0 0 1 1689.1992 1458.9395)" class="st75 st76 st77">CPu</text>
	<text id="label28" bar:growlevel="0" transform="matrix(1 0 0 1 1988.8682 1769.252)" class="st75 st76 st77">VCl</text>
	<text id="label49" bar:growlevel="0" transform="matrix(1 0 0 1 1295.2383 1382.3633)" class="st75 st76 st77">LSI-3</text>
</g>
</svg>
