<?xml version="1.0" encoding="utf-8"?>
<!-- Generator: Adobe Illustrator 24.1.1, SVG Export Plug-In . SVG Version: 6.00 Build 0)  -->
<svg version="1.1"
	 id="body" inkscape:version="0.47pre4 r22446" sodipodi:docname="202_pretrace_pretrace_v1.svg" xmlns:bar="http://www.3dbar.org" xmlns:cc="http://creativecommons.org/ns#" xmlns:dc="http://purl.org/dc/elements/1.1/" xmlns:inkscape="http://www.inkscape.org/namespaces/inkscape" xmlns:rdf="http://www.w3.org/1999/02/22-rdf-syntax-ns#" xmlns:sodipodi="http://sodipodi.sourceforge.net/DTD/sodipodi-0.dtd" xmlns:svg="http://www.w3.org/2000/svg"
	 xmlns="http://www.w3.org/2000/svg" xmlns:xlink="http://www.w3.org/1999/xlink" x="0px" y="0px" viewBox="0 0 3024 3024"
	 style="enable-background:new 0 0 3024 3024;" xml:space="preserve">
<style type="text/css">
	.st0{fill:#FF000C;}
	.st1{fill:#66BFDF;}
	.st2{fill:#5523C7;}
	.st3{fill:#19C3FF;}
	.st4{fill:#642FE1;}
	.st5{fill:#59FF90;}
	.st6{fill:#2CDF84;}
	.st7{fill:#59FFAC;}
	.st8{fill:#00FFE3;}
	.st9{fill:#00FF34;}
	.st10{fill:#FFBA00;}
	.st11{fill:#866BCB;}
	.st12{fill:#FFB2E6;}
	.st13{fill:#19A0CF;}
	.st14{fill:#FFB2C8;}
	.st15{fill:#B88EF2;}
	.st16{fill:#650BE1;}
	.st17{fill:#00EF7A;}
	.st18{fill:#00CF69;}
	.st19{fill:#8553C7;}
	.st20{fill:#873BFF;}
	.st21{fill:#B2FFFA;}
	.st22{fill:#6100FA;}
	.st23{fill:#6517F6;}
	.st24{fill:#C49AFA;}
	.st25{fill:#85DFB0;}
	.st26{fill:#85DFD7;}
	.st27{fill:#FFB2BA;}
	.st28{fill:#8400FF;}
	.st29{fill:#E959BF;}
	.st30{fill:#232323;enable-background:new    ;}
	.st31{font-family:'TimesNewRomanPSMT';}
	.st32{font-size:27px;}
</style>
<sodipodi:namedview  bordercolor="#666666" borderopacity="1" gridtolerance="10" guidetolerance="10" id="namedview128" inkscape:current-layer="content" inkscape:cx="516.0626" inkscape:cy="437.16266" inkscape:pageopacity="0" inkscape:pageshadow="2" inkscape:window-height="1127" inkscape:window-maximized="1" inkscape:window-width="1920" inkscape:window-x="1680" inkscape:window-y="25" inkscape:zoom="3.6293404" objecttolerance="10" pagecolor="#ffffff" showgrid="false">
	</sodipodi:namedview>
<desc  id="desc5">This was produced by version 4.2 of GNU libplot, a free library for exporting 2-D vector graphics.</desc>
<defs>
	<rdf:RDF>
		<cc:Work  rdf:about="">
			<dc:format>image/svg+xml</dc:format>
			<dc:type  rdf:resource="http://purl.org/dc/dcmitype/StillImage"></dc:type>
		</cc:Work>
	</rdf:RDF>
	<bar:data  content="-15.48" name="coronalcoord"></bar:data>
	
		<bar:data  content="{&apos;ReferenceHeight&apos;: 900, &apos;ReferenceWidth&apos;: 1200, &apos;imageSize&apos;: (1200, 900)}" name="rendererConf">
		</bar:data>
	
		<bar:data  content="{&apos;DumpEachStepSVG&apos;: False, &apos;DumpEachStepPNG&apos;: False, &apos;GrowDefaultBoundaryColor&apos;: 200, &apos;CacheLevel&apos;: 5, &apos;NewPathIdTemplate&apos;: &apos;structure%d_%s_%s&apos;, &apos;PoTraceConf&apos;: {&apos;potrace_accuracy_parameter&apos;: &apos;0.001&apos;, &apos;potrace_width_string&apos;: &apos;1200pt&apos;, &apos;potrace_svg_resolution_string&apos;: &apos;300x300&apos;, &apos;potrace_height_string&apos;: &apos;900pt&apos;}, &apos;DetectUnlabelled&apos;: True, &apos;DumpVBrain&apos;: False, &apos;DumpWrongSeed&apos;: True, &apos;DumpDirectory&apos;: &apos;.&apos;, &apos;MinFiterTimesApplication&apos;: 3, &apos;RegionAlreadyTraced&apos;: 100, &apos;UnlabelledTreshold&apos;: 500}" name="tracingConf">
		</bar:data>
	<bar:data  content="0.0176211454,-9.5150660793,0.0176211454,-1.5355884426" name="transformationmatrix"></bar:data>
</defs>
<g id="content">
	<path class="st0" d="M1408.5,1174.7c-6.4-1.4-17.3-2.2-27.7-2.3l0,159.6c9.9,0,19.8-0.7,26.6-2.2c35.2-7.8,61.2-24.6,72.5-47
		c5-9.9,6.8-17.5,6.7-28.8C1486.1,1214.3,1457.5,1185.1,1408.5,1174.7z"/>
	<path class="st0" d="M1882,1662.2c-3.2-48-22.6-99.5-57.1-151.7c-11.7-17.7-21.4-29.8-34.1-42.6c-23.1-23.2-48.4-41.3-78.4-56
		c-25.6-12.6-41.1-17.5-61.4-19.5c-16-1.5-94.4-1.5-111.9,0c-22.5,2.1-27.7,3.6-68.8,20c-39.2,15.7-39.7,15.8-61.7,15.4
		c-11-0.2-19.4-0.3-27.9-0.3l0,499.3c12.6,0,26.1,2.5,56.7,7.6c44.2,7.3,47.8,7.6,82.3,7.6c39.8-0.1,67.7-2.9,106.5-10.9
		c8.6-1.7,15.9-3,16.2-2.7c0.3,0.4-0.2,2-1,3.7c-2.2,4.5-1.9,7.9,0.7,11.2c4.2,5,12,5.8,17,1.8c3.3-2.6,5.3-6.8,4.7-10
		c-0.7-3.4-3.7-7.7-5.9-8.4c-2.8-0.9-2.1-2.9,1.3-3.5c10.6-2,40-13.3,54.5-21c18.8-9.9,29.5-17.8,51.7-38.4
		c18.1-16.9,28-25.6,38.8-34.5c31.9-25.7,55.1-60.8,69.1-104.4C1880.9,1701.8,1883.5,1683,1882,1662.2z"/>
	<path id="structure10_label8_MdV" bar:growlevel="0" bar:type="" class="st1" d="M1469.9,1591.6c0,0.4,3.4,5.7,7.6,11.4
		c9.7,13.4,11.4,17.1,10.3,22.1c-1.8,8.2-6.8,15.7-16.7,24.8c-5.1,4.9-11.3,11.5-13.7,15c-5,7.4-11.7,20.4-11.7,22.8
		c0,0.9,1.4,3.1,3.2,4.8c3.8,3.6,8.3,10.9,11.2,18.1c1.3,3.1,2.7,5.2,3.4,5.2c2.7,0,8.8,4.4,11.5,8.3c1.5,2.1,4.3,6.8,6,10.3
		c3.4,6.8,6.5,10,10.4,10.8c9.5,2,17.4,8,20.9,15.9c2.7,6.3,3.3,16.4,1.3,24c-3.6,14.1-13.5,29.2-21.5,32.7c-3.9,1.7-2.8,4.1,3,7
		c5.4,2.6,16.7,5.3,22.4,5.3c1.9,0,8.7-1,15-2.3c50.1-9.8,118.6-18.8,152.3-20c10.3-0.4,15.5-0.9,15.5-1.5c0-0.5-1-3-2.3-5.4
		c-2.9-5.8-2.9-10.6,0-16.5c4.4-8.8,17.8-18.3,25.9-18.3c2.3,0,3.3-0.4,3.3-1.4c0-3-20.2-24.1-39.9-41.8c-14-12.6-15.2-12.8-11-2.1
		c6.9,17.3,4,26.1-10,29.2c-4.1,0.9-5.7,0.9-10.8-0.5c-7.1-1.9-15.9-7.6-18.7-12.1c-3.9-6.1-5.5-12.5-5.5-22.1
		c0-7.7,0.4-9.6,2.2-13.3c2.6-5.3,5.6-6.9,12.7-6.9c4.2,0,5.4-0.3,5.4-1.4c0-2.4-30.9-24.2-58.8-41.3
		c-37.3-22.9-83.5-47.1-112.1-58.7C1473.1,1590.5,1469.9,1589.9,1469.9,1591.6z"/>
	<path id="structure11_label9_IRt" bar:growlevel="0" bar:type="" class="st2" d="M1469.9,1591.6c0,0.4,3.4,5.7,7.6,11.4
		c9.7,13.4,11.4,17.1,10.3,22.1c-1.8,8.2-6.8,15.7-16.7,24.8c-5.1,4.9-11.3,11.5-13.7,15c-5,7.4-11.7,20.4-11.7,22.8
		c0,0.9,1.4,3.1,3.2,4.8c3.8,3.6,8.3,10.9,11.2,18.1c1.3,3.1,2.7,5.2,3.4,5.2c2.7,0,8.8,4.4,11.5,8.3c1.5,2.1,4.3,6.8,6,10.3
		c3.4,6.8,6.5,10,10.4,10.8c9.5,2,17.4,8,20.9,15.9c2.7,6.3,3.3,16.4,1.3,24c-3.6,14.1-13.5,29.2-21.5,32.7c-3.9,1.7-2.8,4.1,3,7
		c5.4,2.6,16.7,5.3,22.4,5.3c1.9,0,8.7-1,15-2.3c50.1-9.8,118.6-18.8,152.3-20c10.3-0.4,15.5-0.9,15.5-1.5c0-0.5-1-3-2.3-5.4
		c-2.9-5.8-2.9-10.6,0-16.5c4.4-8.8,17.8-18.3,25.9-18.3c2.3,0,3.3-0.4,3.3-1.4c0-3-20.2-24.1-39.9-41.8c-14-12.6-15.2-12.8-11-2.1
		c6.9,17.3,4,26.1-10,29.2c-4.1,0.9-5.7,0.9-10.8-0.5c-7.1-1.9-15.9-7.6-18.7-12.1c-3.9-6.1-5.5-12.5-5.5-22.1
		c0-7.7,0.4-9.6,2.2-13.3c2.6-5.3,5.6-6.9,12.7-6.9c4.2,0,5.4-0.3,5.4-1.4c0-2.4-30.9-24.2-58.8-41.3
		c-37.3-22.9-83.5-47.1-112.1-58.7C1473.1,1590.5,1469.9,1589.9,1469.9,1591.6z"/>
	<path id="structure12_label10_MdD" bar:growlevel="0" bar:type="" class="st3" d="M1557.8,1505.5c-6.9,7.7-17.3,16.1-34.3,28.2
		c-20.5,14.5-35.5,20.4-50,19.8l-6.8-0.3l-1.2,4.5c-1.4,5.6-1,25,0.6,28.4c0.8,1.6,2.4,2.8,5,3.5c18,5.4,72.6,33,112.6,56.9
		c43.7,26.3,67.3,43.6,105.2,77.5c23.7,21.2,33.5,32.2,52.6,58.7c9.2,12.6,9.9,13.3,14.3,15c6.8,2.4,18.8,14.1,19.7,19
		c1,5.6-1.7,10.9-9.2,18.5c-10.2,10.3-19.9,13.7-30.3,10.6c-9.5-2.8-16.8-10.9-16.8-18.5c0-1.9,1.2-5.6,2.7-8.6
		c1.4-2.9,2.7-5.8,2.7-6.2c0-0.6-2.7-1-6.9-0.9c-5.7,0-7.9-0.4-11.3-2.2c-4.2-2.1-4.9-2.1-17.1-1.5c-40.7,1.9-112.6,11.3-156.7,20.3
		c-14.8,3.1-25.6,2.2-37.1-3.1c-5.2-2.4-11.6-7.7-13.3-11.3c-0.7-1.3-1.5-4.6-1.8-7.3c-1.7-13.6-13.3-71-17.7-87.3
		c-3.6-13.6-14.2-31-18-29.5c-0.8,0.3-3.5,5.9-6.1,12.4c-15.3,38.2-26.4,84.9-30.8,130c-1.7,16.7-1.4,57.3,0.4,72
		c1.4,11.8,3.6,23.6,4.5,24.4c0.9,0.9,53.7,9.4,66.6,10.6c38.6,4,83.7,2,129.3-5.8c51.5-8.7,92.7-22.8,120.6-41.1
		c12.5-8.2,18.1-12.8,37.3-30.6c18.6-17.3,26.8-24.5,36.9-32.6c10-8,15.8-13.5,15.8-14.9c0-0.8-1.1-1.3-3.2-1.3
		c-12.3,0-21.6-8.7-17.8-16.7c1.4-3.1,1.1-4.9-0.9-4.9c-0.6,0-4-2-7.5-4.4c-16.6-11.7-32-35.6-48-74.8
		c-19.4-47.7-53.6-108.3-78.9-139.8c-9.5-11.9-29.2-27.4-66.4-52.4c-12.3-8.3-24.2-16.5-26.3-18.1c-2.1-1.7-4.2-3.1-4.9-3.1
		C1564.5,1498.8,1561.2,1501.8,1557.8,1505.5z"/>
	<path id="structure13_label11_IB" bar:growlevel="0" bar:type="" class="st4" d="M1480.7,1496.4c-7.6,6-8.5,7.2-7.3,10.2
		c1.3,3.2,2.8,13,3.4,22c0.6,8.5-1.2,14.5-5.6,18.8c-5.3,5.1-4.6,5.7,7,5.1c16.1-0.7,23.9-4,45.6-19.3c20.5-14.5,35.1-27,35.1-30
		c0-2.3-1.3-2.2-4.8,0.4c-6.6,5-24.7,9.3-34.4,8.1c-12.4-1.5-23.7-7.4-29.7-15.6c-1.4-2-3.1-3.7-3.6-3.7
		C1486.1,1492.5,1483.4,1494.3,1480.7,1496.4z"/>
	<path id="structure14_label12_Cu" bar:growlevel="0" bar:type="" class="st5" d="M1511.8,1480.7c-6.1,1.8-13.5,4.9-19.1,8
		c-5.5,3.1-5.2,5,1.5,11.3c11.4,10.6,24.8,13.6,43.8,9.7c10.6-2.3,16.6-5.5,21.6-11.8c3.6-4.7,3.9-5.3,3.9-10.6v-5.8l-5.6,0.6
		c-4,0.4-8.5,0-15.5-1.3C1530.5,1478.6,1519.1,1478.5,1511.8,1480.7z"/>
	<path id="structure16_label14_Gr" bar:growlevel="0" bar:type="" class="st6" d="M1413.4,1436.8c-2.6,1.4-4.6,3.2-6.3,6.1
		c-2.2,3.6-2.4,5-2.4,11.8c0,8.7,1.5,12.3,6.6,15.5c3.7,2.3,12,3.1,17.1,1.6c10-2.6,16.6-15.9,12.2-24.6
		C1435.2,1436.5,1423.2,1431.9,1413.4,1436.8z"/>
	<path class="st7" d="M1469.6,1414.2c-0.6,0-6.2,2.1-12.4,4.5c-6.1,2.5-15,5.8-19.7,7.5l-8.6,2.9l-20.3-0.3
		c-11.2-0.2-23.7-0.4-27.9-0.4c0,0,0,0,0,0v21.2c0.2,0,0.5,0,0.7,0.2c1.5,0.9,2.8,8.9,4.2,27.5c2,25.4,4.3,35.4,9.3,39.9
		c1.5,1.4,4,1.7,16.7,2.2c13.9,0.5,15.1,0.4,16.8-1.2c1-0.9,6.4-4.8,11.9-8.5c10-6.8,10-6.8,14.3-14.8c5.3-10.1,9.9-23.9,12.3-36.9
		C1470.7,1438.8,1472.1,1414.2,1469.6,1414.2z M1437.2,1466.1c-8.4,9.5-25.6,8.7-31.1-1.3c-4.3-7.9-2-21.7,4.5-26.5
		c5-3.8,12-5.1,16.7-3.3c6.7,2.4,12.9,8.9,14.7,15.3C1443.3,1454.4,1441,1461.8,1437.2,1466.1z"/>
	<path class="st8" d="M1380.8,1537.9L1380.8,1537.9l0,66.4c6.4-0.5,6.5-0.5,6-2.9c-3.1-12.7,0.4-20,11-22.7c4.2-1,4.6-1.3,5.1-4.3
		c0.3-1.8,2.3-9.1,4.4-16.3c2.2-7.2,4.2-14.7,4.5-16.7l0.6-3.6H1380.8z"/>
	<path class="st9" d="M1405.4,1175.2c-5.7-1-15.6-1.7-24.6-1.8l0,157.6c18.7,0,37.4-3.7,54.8-11.2c12.8-5.6,21.2-11.3,30.7-20.8
		c13.8-13.9,18.9-26.1,18.9-45C1485.2,1213.7,1455.3,1184.2,1405.4,1175.2z"/>
	<path id="structure23_label21_Ge5" bar:growlevel="0" bar:type="" class="st10" d="M1628.8,1433.6c-18.4,1.9-29.1,4.1-37.9,8.1
		c-2.9,1.4-6.6,2.3-8.2,2.3c-2.5-0.1-3.2,0.4-5.6,4.7c-4.9,8.4-4.1,8.9,8.3,5.9c25-5.9,54-8.8,72.7-7.2c27.5,2.3,57,13.8,79.9,31
		c16.5,12.4,40,38.5,56.9,63c28.5,41.3,48.3,89,53,127.4c2.7,21.6-4.7,51.6-20.3,83.3c-8.2,16.6-14.1,25.6-18.5,27.8
		c-4.2,2.2-6.3,4.7-6.3,7.5c0,4.6,3.6,5.8,11.2,3.7c14.7-4.1,36.5-46.5,47-91.3c2.3-9.8,2.5-12.3,2.6-28.3c0-20-1.3-27.8-7.6-46.3
		c-11.5-33.5-37.9-83.4-57.5-108.9c-32.5-42.4-79.3-74.4-118.4-81.2C1672.2,1433.9,1637,1432.8,1628.8,1433.6z"/>
	<path id="structure28_label26_CeCv" bar:growlevel="0" bar:type="" class="st11" d="M1434.5,1605.5c-0.7,1.4-2.4,7-3.7,12.4
		c-1.3,5.4-5.3,17.2-8.8,26.1c-4.9,12.4-6.5,17.7-6.8,22.2c-0.5,5.5-0.4,6,1.6,7.5c1.2,0.8,3.9,1.4,6.1,1.4c10.5,0,19-8.9,28.2-29.3
		c6.1-13.6,6.8-26.1,1.9-33c-3-4.3-9.4-8.6-13.9-9.4C1436.3,1603,1435.7,1603.3,1434.5,1605.5z"/>
	<path id="structure29_label27_A2" bar:growlevel="0" bar:type="" class="st12" d="M1393.9,1580.6c-5.8,2.6-7.1,4.8-7.5,11.7
		c-0.3,4.5,0,6.9,1.1,9c4.9,9.4,21.2,8.3,26.4-1.6c3.8-7.3,2-14-5-18.7C1405,1578.4,1398.9,1578.3,1393.9,1580.6z"/>
	<path class="st13" d="M1412.5,1519.9c-6.8-0.3-13.6-1-15.2-1.4c-6.5-2.1-9.5-12.5-12-41.3c-2.1-24.3-2.4-26.1-4.5-26.1c0,0,0,0,0,0
		l0,87.2c13.9-0.1,28.6-0.9,32.1-2c6.7-2.1,10.9-6.3,11.5-11.4l0.5-4.2L1412.5,1519.9z"/>
	<path class="st14" d="M1380.8,1620.3v17.1c0.1,0,0.2,0,0.3,0c4.8,0,6.9-2.4,6.9-8C1388,1624,1384.9,1620.4,1380.8,1620.3z"/>
	<path id="structure33_label31_sp5" bar:growlevel="0" bar:type="" class="st15" d="M1593.2,1394.6c-4.4,4.5-7.7,12.5-10.8,26.1
		c-3.9,17.6-3.6,23.2,1.2,23.2c0.9,0,4.6-1.3,8.1-2.8c18.2-8,62.6-11.1,89.3-6.1c15.8,2.9,39.1,13,57.6,25.1
		c27.5,17.9,51.9,42.7,71.2,72c17.7,27,39.2,70.4,47.4,95.9c11.1,34.4,10.2,58.7-3.9,99.7c-6.6,19.5-13.6,34.4-22,47
		c-8.4,12.7-13.1,16.6-22.1,17.9c-10.3,1.5-11.7,2.4-11.7,7.1c0,4.2,3.1,8.6,7.5,10.5c4.1,2,14.9,2.4,17.7,0.9
		c2.5-1.4,13.8-15.3,20.7-25.7c16.6-24.8,28.8-53.6,34.8-82.1c2.2-10.3,2.4-13.4,2.4-30.4c0.1-19-0.5-24.1-4.1-42.8
		c-7.5-38.1-27.1-82-55.3-123.7c-10.5-15.5-16.9-23.4-29.1-36c-30.1-31.1-70.8-57.3-108.9-70.1c-17.2-5.8-28.7-7.1-68.9-8.3
		l-18.2-0.4L1593.2,1394.6z"/>
	<path id="structure34_label33_rs" bar:growlevel="0" bar:type="" class="st16" d="M1743.5,1799.7c-9.9,4.1-17.7,11.1-21.7,19.3
		c-1.5,3.2-1.8,5.1-1.5,9.6c0.4,6.8,3.1,10.9,9.5,14.7c3.8,2.3,5,2.5,12.8,2.5c10.6,0,14.7-1.8,23.4-10.3c6.7-6.6,9-10.7,9-16.2
		c0-6-3.3-10.4-13.8-18.4C1755.9,1796.9,1751.1,1796.6,1743.5,1799.7z"/>
	<path id="structure35_label34_ts" bar:growlevel="0" bar:type="" class="st17" d="M1557.8,1505.5c-6.9,7.7-17.3,16.1-34.3,28.2
		c-20.5,14.5-35.5,20.4-50,19.8l-6.8-0.3l-1.2,4.5c-1.4,5.6-1,25,0.6,28.4c0.8,1.6,2.4,2.8,5,3.5c18,5.4,72.6,33,112.6,56.9
		c43.7,26.3,67.3,43.6,105.2,77.5c23.7,21.2,33.5,32.2,52.6,58.7c9.2,12.6,9.9,13.3,14.3,15c6.8,2.4,18.8,14.1,19.7,19
		c1,5.6-1.7,10.9-9.2,18.5c-10.2,10.3-19.9,13.7-30.3,10.6c-9.5-2.8-16.8-10.9-16.8-18.5c0-1.9,1.2-5.6,2.7-8.6
		c1.4-2.9,2.7-5.8,2.7-6.2c0-0.6-2.7-1-6.9-0.9c-5.7,0-7.9-0.4-11.3-2.2c-4.2-2.1-4.9-2.1-17.1-1.5c-40.7,1.9-112.6,11.3-156.7,20.3
		c-14.8,3.1-25.6,2.2-37.1-3.1c-5.2-2.4-11.6-7.7-13.3-11.3c-0.7-1.3-1.5-4.6-1.8-7.3c-1.7-13.6-13.3-71-17.7-87.3
		c-3.6-13.6-14.2-31-18-29.5c-0.8,0.3-3.5,5.9-6.1,12.4c-15.3,38.2-26.4,84.9-30.8,130c-1.7,16.7-1.4,57.3,0.4,72
		c1.4,11.8,3.6,23.6,4.5,24.4c0.9,0.9,53.7,9.4,66.6,10.6c38.6,4,83.7,2,129.3-5.8c51.5-8.7,92.7-22.8,120.6-41.1
		c12.5-8.2,18.1-12.8,37.3-30.6c18.6-17.3,26.8-24.5,36.9-32.6c10-8,15.8-13.5,15.8-14.9c0-0.8-1.1-1.3-3.2-1.3
		c-12.3,0-21.6-8.7-17.8-16.7c1.4-3.1,1.1-4.9-0.9-4.9c-0.6,0-4-2-7.5-4.4c-16.6-11.7-32-35.6-48-74.8
		c-19.4-47.7-53.6-108.3-78.9-139.8c-9.5-11.9-29.2-27.4-66.4-52.4c-12.3-8.3-24.2-16.5-26.3-18.1c-2.1-1.7-4.2-3.1-4.9-3.1
		C1564.5,1498.8,1561.2,1501.8,1557.8,1505.5z"/>
	<path id="structure36_label36_mlf" bar:growlevel="0" bar:type="" class="st18" d="M1557.8,1505.5c-6.9,7.7-17.3,16.1-34.3,28.2
		c-20.5,14.5-35.5,20.4-50,19.8l-6.8-0.3l-1.2,4.5c-1.4,5.6-1,25,0.6,28.4c0.8,1.6,2.4,2.8,5,3.5c18,5.4,72.6,33,112.6,56.9
		c43.7,26.3,67.3,43.6,105.2,77.5c23.7,21.2,33.5,32.2,52.6,58.7c9.2,12.6,9.9,13.3,14.3,15c6.8,2.4,18.8,14.1,19.7,19
		c1,5.6-1.7,10.9-9.2,18.5c-10.2,10.3-19.9,13.7-30.3,10.6c-9.5-2.8-16.8-10.9-16.8-18.5c0-1.9,1.2-5.6,2.7-8.6
		c1.4-2.9,2.7-5.8,2.7-6.2c0-0.6-2.7-1-6.9-0.9c-5.7,0-7.9-0.4-11.3-2.2c-4.2-2.1-4.9-2.1-17.1-1.5c-40.7,1.9-112.6,11.3-156.7,20.3
		c-14.8,3.1-25.6,2.2-37.1-3.1c-5.2-2.4-11.6-7.7-13.3-11.3c-0.7-1.3-1.5-4.6-1.8-7.3c-1.7-13.6-13.3-71-17.7-87.3
		c-3.6-13.6-14.2-31-18-29.5c-0.8,0.3-3.5,5.9-6.1,12.4c-15.3,38.2-26.4,84.9-30.8,130c-1.7,16.7-1.4,57.3,0.4,72
		c1.4,11.8,3.6,23.6,4.5,24.4c0.9,0.9,53.7,9.4,66.6,10.6c38.6,4,83.7,2,129.3-5.8c51.5-8.7,92.7-22.8,120.6-41.1
		c12.5-8.2,18.1-12.8,37.3-30.6c18.6-17.3,26.8-24.5,36.9-32.6c10-8,15.8-13.5,15.8-14.9c0-0.8-1.1-1.3-3.2-1.3
		c-12.3,0-21.6-8.7-17.8-16.7c1.4-3.1,1.1-4.9-0.9-4.9c-0.6,0-4-2-7.5-4.4c-16.6-11.7-32-35.6-48-74.8
		c-19.4-47.7-53.6-108.3-78.9-139.8c-9.5-11.9-29.2-27.4-66.4-52.4c-12.3-8.3-24.2-16.5-26.3-18.1c-2.1-1.7-4.2-3.1-4.9-3.1
		C1564.5,1498.8,1561.2,1501.8,1557.8,1505.5z"/>
	<path id="structure38_label38_vsc" bar:growlevel="0" bar:type="" class="st19" d="M1557.8,1505.5c-6.9,7.7-17.3,16.1-34.3,28.2
		c-20.5,14.5-35.5,20.4-50,19.8l-6.8-0.3l-1.2,4.5c-1.4,5.6-1,25,0.6,28.4c0.8,1.6,2.4,2.8,5,3.5c18,5.4,72.6,33,112.6,56.9
		c43.7,26.3,67.3,43.6,105.2,77.5c23.7,21.2,33.5,32.2,52.6,58.7c9.2,12.6,9.9,13.3,14.3,15c6.8,2.4,18.8,14.1,19.7,19
		c1,5.6-1.7,10.9-9.2,18.5c-10.2,10.3-19.9,13.7-30.3,10.6c-9.5-2.8-16.8-10.9-16.8-18.5c0-1.9,1.2-5.6,2.7-8.6
		c1.4-2.9,2.7-5.8,2.7-6.2c0-0.6-2.7-1-6.9-0.9c-5.7,0-7.9-0.4-11.3-2.2c-4.2-2.1-4.9-2.1-17.1-1.5c-40.7,1.9-112.6,11.3-156.7,20.3
		c-14.8,3.1-25.6,2.2-37.1-3.1c-5.2-2.4-11.6-7.7-13.3-11.3c-0.7-1.3-1.5-4.6-1.8-7.3c-1.7-13.6-13.3-71-17.7-87.3
		c-3.6-13.6-14.2-31-18-29.5c-0.8,0.3-3.5,5.9-6.1,12.4c-15.3,38.2-26.4,84.9-30.8,130c-1.7,16.7-1.4,57.3,0.4,72
		c1.4,11.8,3.6,23.6,4.5,24.4c0.9,0.9,53.7,9.4,66.6,10.6c38.6,4,83.7,2,129.3-5.8c51.5-8.7,92.7-22.8,120.6-41.1
		c12.5-8.2,18.1-12.8,37.3-30.6c18.6-17.3,26.8-24.5,36.9-32.6c10-8,15.8-13.5,15.8-14.9c0-0.8-1.1-1.3-3.2-1.3
		c-12.3,0-21.6-8.7-17.8-16.7c1.4-3.1,1.1-4.9-0.9-4.9c-0.6,0-4-2-7.5-4.4c-16.6-11.7-32-35.6-48-74.8
		c-19.4-47.7-53.6-108.3-78.9-139.8c-9.5-11.9-29.2-27.4-66.4-52.4c-12.3-8.3-24.2-16.5-26.3-18.1c-2.1-1.7-4.2-3.1-4.9-3.1
		C1564.5,1498.8,1561.2,1501.8,1557.8,1505.5z"/>
	<path id="structure39_label39_dsc" bar:growlevel="0" bar:type="" class="st20" d="M1557.8,1505.5c-6.9,7.7-17.3,16.1-34.3,28.2
		c-20.5,14.5-35.5,20.4-50,19.8l-6.8-0.3l-1.2,4.5c-1.4,5.6-1,25,0.6,28.4c0.8,1.6,2.4,2.8,5,3.5c18,5.4,72.6,33,112.6,56.9
		c43.7,26.3,67.3,43.6,105.2,77.5c23.7,21.2,33.5,32.2,52.6,58.7c9.2,12.6,9.9,13.3,14.3,15c6.8,2.4,18.8,14.1,19.7,19
		c1,5.6-1.7,10.9-9.2,18.5c-10.2,10.3-19.9,13.7-30.3,10.6c-9.5-2.8-16.8-10.9-16.8-18.5c0-1.9,1.2-5.6,2.7-8.6
		c1.4-2.9,2.7-5.8,2.7-6.2c0-0.6-2.7-1-6.9-0.9c-5.7,0-7.9-0.4-11.3-2.2c-4.2-2.1-4.9-2.1-17.1-1.5c-40.7,1.9-112.6,11.3-156.7,20.3
		c-14.8,3.1-25.6,2.2-37.1-3.1c-5.2-2.4-11.6-7.7-13.3-11.3c-0.7-1.3-1.5-4.6-1.8-7.3c-1.7-13.6-13.3-71-17.7-87.3
		c-3.6-13.6-14.2-31-18-29.5c-0.8,0.3-3.5,5.9-6.1,12.4c-15.3,38.2-26.4,84.9-30.8,130c-1.7,16.7-1.4,57.3,0.4,72
		c1.4,11.8,3.6,23.6,4.5,24.4c0.9,0.9,53.7,9.4,66.6,10.6c38.6,4,83.7,2,129.3-5.8c51.5-8.7,92.7-22.8,120.6-41.1
		c12.5-8.2,18.1-12.8,37.3-30.6c18.6-17.3,26.8-24.5,36.9-32.6c10-8,15.8-13.5,15.8-14.9c0-0.8-1.1-1.3-3.2-1.3
		c-12.3,0-21.6-8.7-17.8-16.7c1.4-3.1,1.1-4.9-0.9-4.9c-0.6,0-4-2-7.5-4.4c-16.6-11.7-32-35.6-48-74.8
		c-19.4-47.7-53.6-108.3-78.9-139.8c-9.5-11.9-29.2-27.4-66.4-52.4c-12.3-8.3-24.2-16.5-26.3-18.1c-2.1-1.7-4.2-3.1-4.9-3.1
		C1564.5,1498.8,1561.2,1501.8,1557.8,1505.5z"/>
	<path id="structure3_label1_Sp5C" bar:growlevel="0" bar:type="" class="st21" d="M1628.3,1448c-10.3,1-25.8,3.4-37.2,5.8
		c-20.8,4.4-18.9,3.4-22.1,11.5c-5.7,14.3-6.8,23.7-3.8,30.4c2.1,4.5,3.7,5.7,32.9,25.3c38.6,25.8,57,40.8,67.9,55.2
		c7.5,9.8,24.5,35.9,33.5,51.3c19.4,33.3,31.7,57.8,44.1,88.6c15.8,39,33.8,65.1,51.3,73.9c2.3,1.2,5.1,2.2,6.1,2.2
		c1.7,0,1.9-0.4,1.3-2.6c-0.8-3.7,0.7-6,5.9-9.2c5.4-3.3,10.3-10.3,18.4-26.5c15.2-30.2,22-56.6,21-80
		c-1.4-28.2-15.1-68.4-35.8-105.1c-17.6-31.2-46.9-67.9-68.3-85.7c-19-15.8-43.8-27.6-68.8-33
		C1666.7,1448.3,1638.7,1447.1,1628.3,1448z"/>
	<path id="structure43_label43_cu" bar:growlevel="0" bar:type="" class="st22" d="M1571.2,1392.3c-17.2,0.4-41.4,2.1-49.5,3.4
		c-7.8,1.3-23.8,6.7-40.5,13.4l-9.9,4l-0.6,15.7c-1,25.6-6.4,49.3-15,65.3c-3.9,7.2-3.8,7.8,1.5,6.9c5.9-1,9.8-0.6,12.9,1.2
		c2.6,1.5,2.6,1.5,6.4-2.2c7.6-7.3,20.5-14.7,32.6-18.7c10-3.3,17.8-3.7,30.2-1.4c11.6,2.2,21.5,2.4,23.5,0.7
		c0.7-0.5,2.3-4.1,3.4-7.8c1.2-3.7,4.7-11.9,7.8-18.2c5-9.9,5.8-11.8,5.2-14.9c-0.4-2.3,0.4-7.7,2.3-16.5
		c3.3-15.1,4.9-19.8,8.8-25.5c1.6-2.3,2.9-4.5,2.9-5c0-0.6-2.1-0.9-5.6-0.8C1584.5,1392,1577.1,1392.1,1571.2,1392.3z"/>
	<path class="st7" d="M1469.6,1414.2c-0.6,0-6.2,2.1-12.4,4.5c-6.1,2.5-15,5.8-19.7,7.5l-8.6,2.9l-20.3-0.3
		c-11.2-0.2-23.7-0.4-27.9-0.4c0,0,0,0,0,0v21.2c0.2,0,0.5,0,0.7,0.2c1.5,0.9,2.8,8.9,4.2,27.5c2,25.4,4.3,35.4,9.3,39.9
		c1.5,1.4,4,1.7,16.7,2.2c13.9,0.5,15.1,0.4,16.8-1.2c1-0.9,6.4-4.8,11.9-8.5c10-6.8,10-6.8,14.3-14.8c5.3-10.1,9.9-23.9,12.3-36.9
		C1470.7,1438.8,1472.1,1414.2,1469.6,1414.2z M1437.2,1466.1c-8.4,9.5-25.6,8.7-31.1-1.3c-4.3-7.9-2-21.7,4.5-26.5
		c5-3.8,12-5.1,16.7-3.3c6.7,2.4,12.9,8.9,14.7,15.3C1443.3,1454.4,1441,1461.8,1437.2,1466.1z"/>
	<path id="structure47_label49_RAmb" bar:growlevel="0" bar:type="" class="st23" d="M1639.6,1695.8c-5.1,2.2-7.6,8.4-7.7,19.5
		c0,15.8,4.7,24.8,16.4,31c4.4,2.3,6.9,3.1,12.1,3.4c5.8,0.4,7.1,0.1,11.5-2.1c5.8-2.8,7.6-5.7,7.6-12c0-7.9-4.9-20.7-11-28.3
		C1661.9,1698.9,1646.8,1692.9,1639.6,1695.8z"/>
	<path id="structure48_label50_vert" bar:growlevel="0" bar:type="" class="st24" d="M1648.6,1926c-4.8,1.2-9.3,8.6-8.1,13.7
		c1,4.5,4.2,6.8,10.8,7.1c5.7,0.4,5.9,0.3,9-2.8c2.8-2.8,3.1-3.7,3.1-7.6c-0.1-4.6-0.7-5.9-4.9-9.1
		C1656.1,1925.5,1652.8,1925,1648.6,1926z"/>
	<path id="structure49_label51_11N" bar:growlevel="0" bar:type="" class="st25" d="M1463.1,1718.9c0.4,1.3,3.6,16.4,7.3,33.5
		c5.7,26.4,8.3,40.1,10.9,58.5c0.3,1.6,1.6,4.2,3,5.8l2.5,2.9l4.1-1.6c12.5-4.8,25.4-30.2,23.6-46.7c-1.4-13.7-7.9-21.7-20-25
		c-7.6-2.1-10-4.4-15.1-14.3c-4.5-8.8-10.6-15.3-14.5-15.3C1462.8,1716.6,1462.6,1716.9,1463.1,1718.9z"/>
	<path id="structure52_label55_SolM" bar:growlevel="0" bar:type="" class="st26" d="M1421.4,1531.6c-1.2,1.2-3.6,2.8-5.5,3.6
		c-3.1,1.3-3.4,1.9-3.9,5.7c-0.3,2.3-2.2,9.7-4.2,16.4c-2.1,6.7-4,14-4.2,16.4c-0.5,4.1-0.4,4.2,2.6,5.5c1.7,0.7,5,3.4,7.2,6
		c4,4.6,4.2,4.7,9.8,5.1l5.8,0.4l2.4-4.8c1.3-2.7,3.7-7,5.2-9.7c2.3-4,2.7-5.8,2.7-11.1c0-10.4-4.2-23-10.8-32.1
		C1425.5,1528.8,1424.5,1528.7,1421.4,1531.6z"/>
	<path class="st27" d="M1428.4,1591.1c-0.2-0.2-3.1-0.5-6.3-0.9l-5.9-0.5l-0.5,4c-0.6,5.6-3.9,10.3-8.3,12.3
		c-5,2.3-11.9,2.3-15.8-0.2c-2.7-1.7-3.9-1.9-10.8-1.5l0,15.9c1.7,0,3.5,0.8,5,2.4c3,3.2,3.2,10.3,0.4,13c-1.3,1.3-3.4,1.9-5.4,1.8
		l0,31.3c3.4,0.2,6.6-1.8,11.8-6.8c11.6-10.9,25.5-34.4,29.6-50.1c1-4,2.9-10.2,4.2-13.8C1427.7,1594.4,1428.6,1591.3,1428.4,1591.1
		z"/>
	<path class="st28" d="M1470.5,1593.2c-3.9-5.5-5-8-5.9-12.7c-2.3-13.7,0.2-27.3,6.2-32.7c5.5-5,7-12.8,5-26.5
		c-2-13.6-3.4-17.7-7-19.5c-4-2.1-10.8-1.3-18,2.2c-7.2,3.3-21.6,13.1-24,16.2c-2.5,3.1-2.3,7.6,0.4,10.5
		c6.1,6.6,12.5,23.5,12.6,33.3c0.1,6.2-0.1,6.8-6.8,20.3c-5.1,10.2-7.7,16.7-9.8,24.3c-1.4,5.7-4.5,14.2-6.8,18.9
		c-9.2,19.3-25.6,39.6-33.4,41c-0.8,0.1-1.4,0.2-2.1,0.2l0,256.7c0,0,0,0,0,0c3.2,0,11.2,0.6,17.7,1.5c6.6,0.8,12.2,1.3,12.5,0.9
		c0.3-0.3-0.1-3.6-0.9-7.4c-3.2-15.4-4.3-33.1-3.9-59.9c0.4-27.4,1.6-39.6,6-65.3c6.8-38.5,17.7-75.7,31.4-105.8
		c8.9-19.5,12.7-25.2,25.8-38.3c13.6-13.5,17.8-20.3,17.8-28.8C1487.5,1617.4,1488,1618.3,1470.5,1593.2z M1452.8,1642.7
		c-9.1,23.6-22.9,36.4-34.1,31.9c-2.5-1-3.9-2.2-4.2-3.7c-0.9-3.6,1.2-11.3,7.5-27.3c3.2-8.1,6.8-18.9,8-23.8
		c2.5-10.3,4.6-15.5,6.6-16.6c1.4-0.9,3.3-0.3,8.9,2.5c5,2.5,8.9,7.4,10.6,13.2C1457.8,1625.1,1456.9,1632.3,1452.8,1642.7z"/>
	<path id="structure7_label5_A1" bar:growlevel="0" bar:type="" class="st29" d="M1718.6,1767.4c-8.2,2.5-17.9,10.6-20.6,17.2
		c-2.8,6.6-1.2,15.7,3.6,20.9c3.9,4.3,8.3,5.8,16.2,5.4c7.3-0.3,7.4-0.3,15.3-5.7c9.2-6.2,13.1-10.4,13.1-13.6
		c0-2.3-10-17.2-15.3-22.9C1728,1765.7,1725,1765.4,1718.6,1767.4z"/>
	<text id="label50" bar:growlevel="0" transform="matrix(1 0 0 1 1652.2568 1936.9453)" class="st30 st31 st32">vert</text>
	<text id="label51" bar:growlevel="0" transform="matrix(1 0 0 1 1499.0166 1776.3867)" class="st30 st31 st32">11N</text>
	<text id="label30" bar:growlevel="0" transform="matrix(1 0 0 1 1383.9854 1627.7383)" class="st30 st31 st32">CC</text>
	<text id="label31" bar:growlevel="0" transform="matrix(1 0 0 1 1803.7568 1494.9668)" class="st30 st31 st32">sp5</text>
	<text id="label33" bar:growlevel="0" transform="matrix(1 0 0 1 1756.9873 1827.4551)" class="st30 st31 st32">rs</text>
	<text id="label34" bar:growlevel="0" transform="matrix(1 0 0 1 1443.9063 1869.1934)" class="st30 st31 st32">ts</text>
	<text id="label36" bar:growlevel="0" transform="matrix(1 0 0 1 1437.666 1768.6348)" class="st30 st31 st32">mlf</text>
	<text id="label38" bar:growlevel="0" transform="matrix(1 0 0 1 1699.5947 1897.5469)" class="st30 st31 st32">vsc</text>
	<text id="label10" bar:growlevel="0" transform="matrix(1 0 0 1 1584.7568 1620.75)" class="st30 st31 st32">MdD</text>
	<text id="label11" bar:growlevel="0" transform="matrix(1 0 0 1 1487.2246 1528.4805)" class="st30 st31 st32">IB</text>
	<text id="label16" bar:growlevel="0" transform="matrix(1 0 0 1 1388.0166 1546.5391)" class="st30 st31 st32">SolC</text>
	<text id="label17" bar:growlevel="0" transform="matrix(1 0 0 1 1413.9795 1252.2207)" class="st30 st31 st32">9a-bCb</text>
	<text id="label14" bar:growlevel="0" transform="matrix(1 0 0 1 1408.1436 1459.4707)" class="st30 st31 st32">Gr</text>
	<text id="label8" bar:growlevel="0" transform="matrix(1 0 0 1 1544.166 1762.4043)" class="st30 st31 st32">MdV</text>
	<text id="label9" bar:growlevel="0" transform="matrix(1 0 0 1 1567.3545 1677.25)" class="st30 st31 st32">IRt</text>
	<text id="label39" bar:growlevel="0" transform="matrix(1 0 0 1 1750.3545 1872.7949)" class="st30 st31 st32">dsc</text>
	<text id="label1" bar:growlevel="0" transform="matrix(1 0 0 1 1727.4355 1612.4688)" class="st30 st31 st32">Sp5C</text>
	<text id="label3" bar:growlevel="0" transform="matrix(1 0 0 1 1398.8066 1726.8555)" class="st30 st31 st32">pyx</text>
	<text id="label5" bar:growlevel="0" transform="matrix(1 0 0 1 1704.9355 1796.7305)" class="st30 st31 st32">A1</text>
	<text id="label21" bar:growlevel="0" transform="matrix(1 0 0 1 1812.9355 1558.3984)" class="st30 st31 st32">Ge5</text>
	<text id="label27" bar:growlevel="0" transform="matrix(1 0 0 1 1398.8066 1593.3438)" class="st30 st31 st32">A2</text>
	<text id="label26" bar:growlevel="0" transform="matrix(1 0 0 1 1433.1104 1643.0508)" class="st30 st31 st32">CeCv</text>
	<text id="label28" bar:growlevel="0" transform="matrix(1 0 0 1 1390.917 1528.4805)" class="st30 st31 st32">MnA</text>
	<text id="label49" bar:growlevel="0" transform="matrix(1 0 0 1 1646.6758 1734.5898)" class="st30 st31 st32">RAmb</text>
	<text id="label55" bar:growlevel="0" transform="matrix(1 0 0 1 1413.9766 1572.3223)" class="st30 st31 st32">SolM</text>
	<text id="label43" bar:growlevel="0" transform="matrix(1 0 0 1 1538.8252 1451.0684)" class="st30 st31 st32">cu</text>
	<text id="label45" bar:growlevel="0" transform="matrix(1 0 0 1 1433.2861 1496.168)" class="st30 st31 st32">gr</text>
	<text id="Unlabeled-1757-1875" bar:growlevel="0" transform="matrix(1 0 0 1 1388.0166 1644.5313)" class="st30 st31 st32">grey</text>
	<text id="label12" bar:growlevel="0" transform="matrix(1 0 0 1 1515.8242 1498.4766)" class="st30 st31 st32">Cu</text>
</g>
</svg>
