<svg xmlns="http://www.w3.org/2000/svg" width="3024px" height="3024px"><g transform="scale(1.0)"><g id="180608862" order="1" parent_id="" graphic_group_label_id="28" graphic_group_label="Atlas - Adult Rat" sub_image_id="100960468" transform=" scale(1.0, 1.0)"><path id="180623552" parent_id="180608862" order="0" structure_id="1" d="M969.78,291.45c-11.58-20.73-34.44-47.31-60.03-69.78c-20.88-18.33-47.52-39-64.95-50.43   C815.85,152.28,783,138.3,743.4,128.13c-15.99-4.11-45-10.14-60.03-12.45c-19.83-3.09-37.021-4.29-56.07-3.99   c-14.58,0.24-22.08,0.99-31.62,3.09c-15.778,3.51-26.729,8.58-34.41,15.93c-6.988,6.72-9.84,12.39-12.238,24.33   c-2.102,10.53-2.88,19.23-2.642,30.12c0.15,7.95,0.63,12.54,1.86,18.72c2.49,12.3,8.28,24.24,15.3,31.56   c3.182,3.33,5.642,5.16,9.602,7.11c2.818,1.41,4.38,1.92,10.71,3.51c5.25,1.35,7.438,2.01,7.438,2.31c0,0.33-0.33,0.36-1.56,0.21   c-6.12-0.75-8.13-0.84-13.892-0.69c-4.89,0.12-6.84,0.3-8.729,0.78c-6.21,1.53-15.93,5.88-19.771,8.82   c-2.55,1.92-4.979,5.04-6.09,7.77c-0.538,1.333-0.916,1.962-1.26,2.027v382.369c1.575,0.017,3.117-0.871,4.17-2.585   c0.78-1.29,0.812-2.82,0.03-4.32c-0.33-0.66-0.602-1.26-0.602-1.35c0-0.092,2.61-0.182,5.79-0.182   c6.091-0.028,10.472-0.479,17.312-1.8c9.45-1.83,14.398-4.29,26.85-13.32c9.72-7.08,12.78-10.5,11.852-13.318   c-0.182-0.57-0.632-1.23-1.021-1.472c-0.72-0.479-3.18-1.229-5.04-1.56c-1.74-0.27-1.35-0.87,1.05-1.62   c4.83-1.56,15.24-6.39,20.67-9.6c1.62-0.96,4.052-2.88,6.75-5.34c2.312-2.132,5.552-4.74,7.172-5.852   c1.648-1.08,6.118-4.229,9.93-7.02c3.81-2.79,9.06-6.57,11.67-8.432c10.74-7.56,24.78-19.62,31.02-26.608   c6.15-6.9,7.74-9.392,11.972-18.48c4.318-9.42,6.778-15.75,8.159-21.18c1.649-6.42,2.011-7.141,13.979-26.46   c9.99-16.11,13.65-23.04,16.11-30.36c5.01-15.03,4.619-32.609-1.052-46.8c-2.01-5.04-4.289-9.03-9.028-15.78   c-4.08-5.85-7.38-10.77-10.562-15.78l-2.01-3.21l0.36-1.83c0.21-1.17,0.3-3.24,0.18-5.79c-0.271-6.54-2.43-13.8-6.54-21.84   l-1.771-3.48l0.449-1.32c1.11-3.09-0.778-7.74-6.988-17.22c-1.381-2.16-3.182-4.8-3.99-5.91c-1.471-2.04-1.86-3.06-1.05-2.88   c0.238,0.06,1.89,1.71,3.688,3.69c4.05,4.44,7.23,7.35,13.59,12.42c10.71,8.55,18.271,12.72,25.17,13.86   c1.711,0.3,3.602,0.3,8.552,0c3.479-0.18,7.05-0.42,7.92-0.51c2.159-0.27,2.068,0.33-0.33,1.71c-5.4,3.18-8.55,7.41-9.062,12.33   c-0.479,4.38,2.521,10.62,12.722,26.49c6.12,9.51,8.97,15.9,12.028,27.121c3.33,12.148,5.4,24.18,6.062,35.43   c0.42,7.29,0.09,12.09-1.38,19.649c-2.37,12.271-2.7,19.171-1.23,25.051l0.182,0.75h-6.842c-5.55,0-7.318,0.09-9.39,0.568   c-7.59,1.65-13.771,5.312-18.12,10.711c-5.43,6.779-9.21,13.979-10.95,20.819c-0.75,2.97-3.18,18.87-3.6,23.55   c-1.17,12.812,0.899,24.42,6.42,35.642c8.79,17.97,22.35,30.72,40.26,37.829c27.602,10.949,65.13,5.881,105.54-14.279   c18.69-9.33,32.55-19.26,46.83-33.54c8.94-8.94,17.58-19.5,24.96-30.51c7.23-10.83,10.53-17.972,12.3-26.642   c0.722-3.6,0.812-4.71,0.812-10.05c0-4.83-0.09-6.39-0.54-7.95c-0.69-2.52-1.98-5.279-3.84-8.188c-2.04-3.181-2.67-4.74-2.67-6.69   c0-3,0.539-3.569,6.898-7.17c8.13-4.649,12.24-8.49,15.12-14.22c1.89-3.69,5.49-14.61,7.08-21.48   c3.479-14.85,5.19-29.398,5.61-47.399C990.39,350.67,982.89,314.91,969.78,291.45z M689.67,300c-0.18,0-3.24-3-6.81-6.63   c-6.54-6.69-13.65-13.35-17.012-15.9c-6.658-5.1-14.76-9.33-27.75-14.43c-7.05-2.79-18.51-6.42-31.108-9.84   c-2.34-0.63-3.69-1.14-3.69-1.41c0-0.66,1.142-0.45,9.75,1.86c19.892,5.37,29.61,8.76,40.5,14.1c3.271,1.62,7.41,3.93,9.75,5.49   c8.312,5.52,18.57,15.03,23.94,22.17C689.82,298.86,690.45,300,689.67,300z" style="stroke:black;fill:#BFDAE3"/><path id="180623552" parent_id="180608862" order="1" structure_id="1" d="M744.75,470.55   c-1.2,1.17-0.81,3.12,0.78,3.75c0.989,0.42,1.858,0.182,2.67-0.688c1.318-1.38,0.148-3.812-1.8-3.812   C745.83,469.8,745.2,470.07,744.75,470.55z" style="stroke:black;fill:#BFDAE3"/><path id="180623552" parent_id="180608862" order="2" structure_id="1" d="M727.32,476.4   c-1.021,0.39-2.222,2.068-2.222,3.028c0,2.012,1.472,3.57,3.392,3.57c2.46,0,4.05-2.34,3.12-4.59   C730.86,476.64,728.94,475.74,727.32,476.4z" style="stroke:black;fill:#BFDAE3"/><path id="180623552" parent_id="180608862" order="3" structure_id="1" d="M697.65,565.41   c-6.87,0.479-12.87,1.89-20.881,4.979c-12.569,4.86-15.211,6.45-17.131,10.352c-0.898,1.858-0.988,2.22-0.96,4.858   c0,2.432,0.15,3.302,1.021,5.852c1.2,3.568,4.29,9.78,6.66,13.41c3.06,4.68,5.25,6.54,7.648,6.54c1.26,0,9.63-2.102,14.34-3.602   c4.142-1.318,12.33-4.59,15.602-6.21c8.28-4.17,12.87-8.729,14.729-14.67c0.69-2.25,0.78-2.88,0.63-5.31   c-0.238-4.11-1.59-7.682-4.198-11.16c-2.4-3.21-4.71-4.38-9.66-4.95C702.84,565.23,700.86,565.2,697.65,565.41z" style="stroke:black;fill:#BFDAE3"/><path id="180623552" parent_id="180608862" order="4" structure_id="1" d="M739.71,390.93   c-0.69,0.42-1.41,1.86-1.41,2.88c0,1.14,0.75,2.16,2.011,2.7c0.931,0.36,1.141,0.36,2.131-0.12c2.158-1.05,2.55-3.57,0.81-5.13   C742.41,390.54,740.67,390.39,739.71,390.93z" style="stroke:black;fill:#BFDAE3"/><path id="180623552" parent_id="180608862" order="5" structure_id="1" d="M752.19,392.1   c-0.54,0.3-1.382,1.29-1.86,2.16c-1.021,1.74-2.79,6.932-3.3,9.54c-0.722,3.602-1.261,10.44-1.44,18   c-0.27,12.392,0.42,18.48,2.642,22.98c1.05,2.13,3.6,4.77,4.92,5.1c1.83,0.45,3.93-1.59,7.38-7.08   c1.92-3.029,3.33-6.358,4.08-9.688c1.02-4.53,0.479-15.99-1.17-23.58c-1.86-8.67-6.271-16.8-9.69-17.85   C753.39,391.59,752.76,391.74,752.19,392.1z" style="stroke:black;fill:#BFDAE3"/><path id="180623552" parent_id="180608862" order="6" structure_id="1" d="M767.7,426.15   c-0.99,1.05-0.932,2.43,0.12,3.358c0.448,0.36,1.14,0.69,1.528,0.69c1.11,0,2.342-1.23,2.342-2.34c0-1.29-1.11-2.46-2.342-2.46   C768.72,425.4,768.15,425.67,767.7,426.15z" style="stroke:black;fill:#BFDAE3"/><path id="180623552" parent_id="180608862" order="7" structure_id="1" d="M736.32,461.1   c-0.78,0.302-1.86,1.65-2.102,2.61c-0.238,0.96,0.36,2.34,1.44,3.24c1.5,1.26,3.688,0.87,4.74-0.812   C742.17,463.23,739.41,459.84,736.32,461.1z" style="stroke:black;fill:#BFDAE3"/><path id="180623552" parent_id="180608862" order="8" structure_id="1" d="M713.34,369.57c-0.12-2.1-0.3-2.67-1.83-5.76c-4.92-9.87-16.38-24.09-28.858-35.73   c-18.602-17.34-38.762-30.09-58.2-36.78c-23.22-7.98-43.5-10.23-52.771-5.85c-2.278,1.08-3.87,2.43-5.67,4.83   c-2.278,3.03-3.87,6.3-5.729,11.73c-1.92,5.7-2.222,6.3-3.63,7.53c-2.28,2.04-4.892,2.82-7.17,2.16l-1.32-0.36l-1.142,1.26   c-1.858,2.04-2.76,2.34-6.868,2.34c-0.054,0-0.1,0-0.15-0.001v25.868c4.604,0.001,9.199-0.261,15.9-0.787   c12.3-0.96,27.93-1.2,32.85-0.48c6.06,0.87,11.58,2.91,15.66,5.79c3.03,2.16,9.96,8.4,14.398,12.99   c11.07,11.4,17.762,22.17,20.49,32.94c0.45,1.8,0.87,3.3,0.96,3.39c0.24,0.24,12.3,1.62,17.04,1.95   c6.3,0.421,12.602,0.392,12.602-0.09c0-0.18-0.632-0.63-1.44-0.96c-2.01-0.81-5.25-4.2-7.17-7.44c-1.53-2.61-2.79-5.64-5.82-13.86   c-4.14-11.25-10.71-23.07-17.85-32.1c-5.25-6.63-13.021-13.62-19.2-17.28c-6-3.57-16.53-8.73-21.57-10.62   c-5.608-2.1-8.938-2.73-16.02-3.12c-5.73-0.33-7.5-0.87-9.66-3.03c-4.229-4.23-1.38-8.7,6.63-10.41c2.07-0.45,3.87-0.54,9.75-0.51   c6.36,0,7.74,0.09,11.88,0.81c16.53,2.82,32.04,9.3,45.841,19.2c13.649,9.81,29.311,25.92,40.859,42c3.21,4.5,5.58,8.46,8.19,13.71   c3.54,7.11,5.188,12.48,4.77,15.57c-0.12,0.81-0.06,1.23,0.181,1.23c0.449,0,4.079-2.25,6.091-3.78   C710.52,381.93,713.67,375.48,713.34,369.57z" style="stroke:black;fill:#BFDAE3"/><path id="180623552" parent_id="180608862" order="9" structure_id="1" d="M713.34,369.57c-0.12-2.1-0.3-2.67-1.83-5.76c-4.92-9.87-16.38-24.09-28.858-35.73   c-18.602-17.34-38.762-30.09-58.2-36.78c-23.22-7.98-43.5-10.23-52.771-5.85c-2.278,1.08-3.87,2.43-5.67,4.83   c-2.278,3.03-3.87,6.3-5.729,11.73c-1.92,5.7-2.222,6.3-3.63,7.53c-2.28,2.04-4.892,2.82-7.17,2.16l-1.32-0.36l-1.142,1.26   c-1.858,2.04-2.76,2.34-6.868,2.34c-0.054,0-0.1,0-0.15-0.001v25.868c4.604,0.001,9.199-0.261,15.9-0.787   c12.3-0.96,27.93-1.2,32.85-0.48c6.06,0.87,11.58,2.91,15.66,5.79c3.03,2.16,9.96,8.4,14.398,12.99   c11.07,11.4,17.762,22.17,20.49,32.94c0.45,1.8,0.87,3.3,0.96,3.39c0.24,0.24,12.3,1.62,17.04,1.95   c6.3,0.421,12.602,0.392,12.602-0.09c0-0.18-0.632-0.63-1.44-0.96c-2.01-0.81-5.25-4.2-7.17-7.44c-1.53-2.61-2.79-5.64-5.82-13.86   c-4.14-11.25-10.71-23.07-17.85-32.1c-5.25-6.63-13.021-13.62-19.2-17.28c-6-3.57-16.53-8.73-21.57-10.62   c-5.608-2.1-8.938-2.73-16.02-3.12c-5.73-0.33-7.5-0.87-9.66-3.03c-4.229-4.23-1.38-8.7,6.63-10.41c2.07-0.45,3.87-0.54,9.75-0.51   c6.36,0,7.74,0.09,11.88,0.81c16.53,2.82,32.04,9.3,45.841,19.2c13.649,9.81,29.311,25.92,40.859,42c3.21,4.5,5.58,8.46,8.19,13.71   c3.54,7.11,5.188,12.48,4.77,15.57c-0.12,0.81-0.06,1.23,0.181,1.23c0.449,0,4.079-2.25,6.091-3.78   C710.52,381.93,713.67,375.48,713.34,369.57z" style="stroke:black;fill:#BFDAE3"/><path id="180623552" parent_id="180608862" order="10" structure_id="1" d="M639.3,391.59c-2.068-8.28-6.6-16.83-13.53-25.44c-5.25-6.54-16.89-17.79-21.778-21.03   c-9.21-6.12-19.5-7.14-48.24-4.86c-5.472,0.436-10.604,0.653-15.75,0.652v5.168c4.38,0,11.61,0,16.05,0   c6.271,0,8.88,0.12,11.55,0.54c8.342,1.26,14.312,3.45,20.7,7.59c7.562,4.92,12.36,10.68,17.4,20.94   c2.16,4.35,4.77,11.22,4.8,12.51c0,1.23,3.06,2.76,7.83,3.96c4.86,1.23,20.91,3.33,21.45,2.82   C639.87,394.32,639.66,393.06,639.3,391.59z" style="stroke:black;fill:#BFDAE3"/><path id="180623552" parent_id="180608862" order="11" structure_id="1" d="M639.75,192c-0.3,0.33-0.6,1.26-0.69,2.1   c-0.3,3.12,1.23,5.28,7.892,11.16c5.97,5.28,11.67,10.56,21.39,19.86c9.181,8.79,11.7,10.77,22.05,17.46   c12.24,7.89,22.41,13.47,27.842,15.24c5.67,1.86,11.908,2.88,17.578,2.88c4.11,0,7.052-0.42,11.342-1.65   c8.22-2.34,13.29-2.97,23.938-2.97c5.7-0.03,8.312-0.12,8.312-0.36c0-0.51-12.062-4.2-28.352-8.67   c-14.58-3.99-18.688-5.4-29.55-9.99c-7.11-3.03-19.17-8.7-18.57-8.76c0.12,0,2.94,1.29,6.302,2.88   c10.77,5.07,20.398,9.03,28.318,11.64c1.83,0.6,7.352,2.19,12.3,3.51c18.842,5.07,33.062,9.66,43.2,13.89   c12.09,5.07,31.142,17.19,44.28,28.11c4.53,3.75,15.45,14.61,18.84,18.72c5.431,6.54,15.15,20.46,20.28,28.95   c11.58,19.29,18.06,39.9,21.45,68.25c2.01,16.86,1.108,32.82-2.881,50.85c-4.649,21.03-14.13,44.552-24.029,59.7   c-5.82,8.852-15.721,20.67-22.44,26.73c-12.029,10.858-26.1,17.55-41.31,19.648c-2.73,0.36-3.84,0.63-3.84,0.932   c0,1.35,13.05-0.69,20.729-3.24c12.45-4.17,21.511-10.11,33.15-21.72c7.529-7.5,12.18-13.2,17.67-21.602   c5.16-7.83,10.02-17.16,13.2-25.2c1.979-5.04,7.83-21.448,9.898-27.75c6.78-20.938,9.09-35.43,8.28-52.408   c-0.99-20.642-3.479-35.07-8.88-51.24c-2.79-8.43-5.311-14.46-9.602-23.1c-16.02-32.25-36.118-53.94-67.198-72.51   c-18.24-10.89-44.761-23.19-84.302-39.09c-14.52-5.82-24.118-9.36-36.6-13.5c-13.59-4.5-18.359-6.18-36.24-12.72   c-7.71-2.82-15.18-5.46-16.59-5.88C643.59,191.19,640.53,191.13,639.75,192z" style="stroke:black;fill:#BFDAE3"/><path id="180623552" parent_id="180608862" order="12" structure_id="1" d="M681,237.33c0,0.45,0.51,1.02,7.92,9.27   c11.85,13.17,17.521,19.11,20.01,21c6.33,4.77,14.19,6.87,20.642,5.58c1.62-0.33,5.37-1.68,10.5-3.78   c20.608-8.43,30.3-10.29,38.79-7.53c11.488,3.75,29.278,12.87,42.238,21.66c9.42,6.39,14.552,10.86,23.222,20.22   c13.229,14.25,19.83,22.44,26.64,32.85c10.11,15.45,15.75,29.73,20.01,50.4c4.74,23.13,4.59,43.89-0.449,65.67   c-2.579,11.13-8.761,30.48-13.591,42.48c-4.438,10.979-9.63,20.58-15.3,28.198c-13.68,18.48-34.859,32.25-54.898,35.7   c-3.062,0.54-3.932,0.932-3.932,1.71c0,0.66-0.27,0.63,3.78,0.09c17.04-2.22,31.08-9.18,44.13-21.868   c8.28-8.012,17.91-20.342,23.4-29.882c11.488-19.979,20.25-46.079,23.188-69.148c1.682-13.23,1.65-24.42-0.18-38.55   c-3.96-31.021-11.04-50.76-26.49-73.95c-12.24-18.3-20.7-28.14-33.479-38.85c-14.46-12.09-33.841-24.03-48.12-29.67   c-5.73-2.25-6.99-2.46-16.08-2.64c-10.92-0.21-17.61,0.54-25.86,2.91c-4.739,1.35-6.479,1.59-11.34,1.59   c-7.2,0-14.88-1.56-21.12-4.23c-5.55-2.4-16.14-8.55-26.49-15.42C682.17,237.21,681,236.58,681,237.33z" style="stroke:black;fill:#BFDAE3"/><path id="180623552" parent_id="180608862" order="13" structure_id="1" d="M728.64,396.78   c-1.83,0.568-3.6,2.278-4.198,4.02c-0.271,0.75-1.11,4.62-1.892,8.642c-2.489,12.93-6,26.158-7.95,30.06   c-2.46,4.89-2.34,8.79,0.302,10.35c0.988,0.57,1.47,0.602,8.398,0.512c4.05-0.062,8.852-0.182,10.65-0.302l3.3-0.21l0.99-3.448   c1.26-4.41,2.068-9.36,2.49-15.271c0.81-11.52-1.08-22.5-5.432-31.77l-1.47-3.062l-1.89,0.03   C730.89,396.33,729.42,396.54,728.64,396.78z" style="stroke:black;fill:#BFDAE3"/><path id="180623552" parent_id="180608862" order="14" structure_id="1" d="M694.2,566.13   c-6.03,0.69-9.72,1.71-18.15,4.92c-12.96,4.92-15.93,7.08-16.95,12.392c-0.3,1.438-0.3,2.368-0.028,3.898   c0.448,2.76,0.898,4.26,1.26,4.26c0.18,0,1.08-0.688,2.01-1.5c2.16-1.92,7.44-4.56,10.86-5.43c2.13-0.54,3.09-0.63,5.85-0.479   c11.61,0.539,16.771,7.68,13.08,18.06c-1.35,3.81-1.41,4.05-0.78,4.05c0.78,0,7.98-2.88,12-4.8c8.222-3.96,12.842-8.31,14.882-14.1   c0.988-2.762,0.988-7.08,0.028-10.2c-0.93-2.94-2.398-5.55-4.318-7.65c-1.86-2.04-3.182-2.76-6.15-3.33   C705.33,565.77,697.95,565.71,694.2,566.13z" style="stroke:black;fill:#BFDAE3"/><path id="180623552" parent_id="180608862" order="15" structure_id="1" d="M673.98,584.58c-4.262,0.96-9.12,3.3-12,5.85   c-1.352,1.2-1.44,1.352-1.29,2.432c0.328,2.43,5.64,11.97,8.67,15.6c1.26,1.53,3.21,2.64,4.62,2.64   c0.988,0,8.64-1.948,13.229-3.329l3.06-0.961l0.9-2.13c1.5-3.6,1.95-5.55,1.95-8.43c0.03-3.479-0.63-5.37-2.641-7.59   c-2.489-2.73-6.119-4.11-11.579-4.41C676.92,584.16,675.42,584.25,673.98,584.58z" style="stroke:black;fill:#BFDAE3"/><path id="180623552" parent_id="180608862" order="16" structure_id="1" d="M704.25,500.52   c-0.81,0.36-2.52,1.5-3.75,2.49c-4.17,3.392-7.44,7.83-9.72,13.26c-6.69,15.812-12.69,23.132-29.852,36.422   c-11.58,8.97-19.38,13.979-31.979,20.55c-11.55,6-14.01,7.41-20.13,11.46c-5.88,3.898-8.04,5.068-21.271,11.37   c-5.188,2.488-6.51,3.33-7.35,4.68c-1.29,2.07-0.48,4.17,2.46,6.33c2.07,1.53,4.83,2.46,7.89,2.7c4.142,0.33,12.45-2.46,23.4-7.83   c7.229-3.54,9.359-4.95,13.8-9.12c1.98-1.86,5.01-4.32,6.75-5.49s6.54-4.59,10.65-7.59c4.14-3,9.358-6.75,11.64-8.37   c11.4-8.04,25.561-20.46,32.43-28.438c4.98-5.762,6.75-8.762,11.73-20.04c3.568-8.07,5.37-12.932,6.6-17.972   c0.932-3.81,1.08-4.648,0.721-4.858C707.52,499.59,705.78,499.8,704.25,500.52z" style="stroke:black;fill:#BFDAE3"/><path id="180623552" parent_id="180608862" order="17" structure_id="1" d="M540,640.364v9.122c1.909,0.031,3.839-1.049,4.47-3.438C545.289,642.883,543.109,640.322,540,640.364z" style="stroke:black;fill:#BFDAE3"/><path id="180623552" parent_id="180608862" order="18" structure_id="1" d="M751.62,392.85   c-1.41,1.41-3.54,7.11-4.29,11.4c-1.62,9.27-1.8,30-0.33,36.06c1.23,5.16,4.35,9.392,6.9,9.392c1.619,0,5.79-5.37,8.31-10.71   c1.86-3.932,2.49-7.11,2.49-12.96c0-10.472-1.86-20.25-5.13-26.82C756.54,393.12,753.66,390.81,751.62,392.85z M754.98,404.43   c2.76,1.682,5.88,6.66,6.898,11.012c0.39,1.738,0.48,3,0.33,6.3c-0.42,10.108-3.51,16.92-7.62,16.92c-2.1,0-3.93-2.82-5.07-7.83   c-0.75-3.21-0.868-10.95-0.3-15.03c0.87-5.85,1.92-9.6,3.21-11.22C753.18,403.65,753.66,403.62,754.98,404.43z" style="stroke:black;fill:#BFDAE3"/><path id="180623552" parent_id="180608862" order="19" structure_id="1" d="M752.1,405.06   c-1.229,1.98-2.46,7.5-3.028,13.562c-0.78,8.07,0.93,16.89,3.688,19.229c1.562,1.32,3.96,0.78,5.49-1.229   c3.12-4.08,4.89-15.48,3.39-21.69c-0.87-3.63-3.658-8.25-6-9.93C753.99,403.8,752.88,403.8,752.1,405.06z" style="stroke:black;fill:#BFDAE3"/><path id="180623552" parent_id="180608862" order="20" structure_id="1" d="M543.39,387.27c-0.448-0.45-1.14-0.96-1.5-1.14c-0.47-0.235-1.17-0.33-1.89-0.31v22.732   c0.204-0.011,0.416-0.06,0.57-0.163c0.75-0.479,1.83-2.938,2.43-5.58C545.73,390.72,545.76,389.46,543.39,387.27z" style="stroke:black;fill:#BFDAE3"/><path id="180623552" parent_id="180608862" order="21" structure_id="1" d="M571.35,248.4   c-5.908,0.51-15.93,4.2-21.96,8.07c-4.56,2.91-7.858,7.32-8.76,11.67c-0.21,1.08-0.33,8.91-0.33,24.06v22.5l0.75,0.18   c0.99,0.24,3.21-0.09,3.9-0.6c0.54-0.39,0.54-0.54,0-4.56c-0.36-2.94-0.57-6.99-0.69-13.71c-0.21-14.22,0.392-18.93,3.062-24.36   c1.62-3.3,3.6-5.97,6.39-8.58c5.22-4.92,10.68-7.29,18.99-8.28c5.068-0.57,12.358-0.39,17.7,0.51c4.229,0.69,18.6,4.11,26.1,6.18   c10.29,2.85,22.53,7.23,30.3,10.83c6.271,2.91,14.19,8.19,21.99,14.67c5.07,4.26,12.689,11.64,16.35,15.87   c5.82,6.75,17.58,23.1,20.79,28.86c0.42,0.75,0.932,1.29,1.261,1.29c0.42,0,0.511-0.27,0.511-1.74c0-3.36-1.95-7.47-7.5-15.93   c-6.45-9.78-10.86-15.15-20.07-24.33c-12.45-12.39-17.34-16.17-27.479-21.24c-7.289-3.63-16.051-7.17-25.051-10.11   c-10.619-3.45-34.59-10.08-39.3-10.83C585.12,248.28,575.37,248.04,571.35,248.4z" style="stroke:black;fill:#BFDAE3"/><path id="180623552" parent_id="180608862" order="22" structure_id="1" d="M653.07,537.12   c-0.932,0.36-2.552,1.17-3.602,1.74c-10.26,5.729-12.18,7.108-11.85,8.58c0.45,1.77,1.5,1.92,5.34,0.81   c1.41-0.42,4.11-0.96,5.97-1.2c4.44-0.63,5.07-0.84,6.841-2.43c1.801-1.62,2.729-3.42,2.729-5.34   C658.5,536.52,656.49,535.71,653.07,537.12z" style="stroke:black;fill:#BFDAE3"/><path id="180623552" parent_id="180608862" order="23" structure_id="1" d="M655.29,522.57   c-0.66,0.479-3.15,3.27-5.55,6.238c-2.4,2.94-5.73,6.87-7.41,8.762c-3.6,4.02-5.07,6.12-5.34,7.62   c-0.21,1.29,0.148,1.438,1.17,0.42c0.39-0.36,2.55-1.74,4.858-3.062c4.11-2.37,4.23-2.46,8.19-6.78c4.92-5.34,6.51-7.438,7.29-9.51   C659.97,522.36,658.29,520.41,655.29,522.57z" style="stroke:black;fill:#BFDAE3"/><path id="180623552" parent_id="180608862" order="24" structure_id="1" d="M634.8,547.41   c-0.42,0.27-1.89,1.47-3.3,2.64s-3.9,3.15-5.55,4.352c-4.562,3.39-9.271,8.22-11.82,12.118c-2.34,3.632-3,5.132-2.46,5.672   c0.24,0.238,0.57,0.238,1.17,0.028c1.05-0.42,14.641-10.648,17.13-12.898c3.9-3.54,7.29-8.102,7.682-10.352   C637.98,547.14,636.45,546.27,634.8,547.41z" style="stroke:black;fill:#BFDAE3"/><path id="180623552" parent_id="180608862" order="25" structure_id="1" d="M572.01,495.27   c-4.318,1.41-6.33,3.87-6.33,7.712c0,1.8,0.12,2.43,0.96,4.078c1.65,3.36,4.08,4.65,8.222,4.352c2.88-0.18,5.25-1.23,6.479-2.852   c0.75-0.988,0.812-1.26,0.812-4.078c0-2.762-0.092-3.212-0.932-4.98C579.21,495.3,576.15,493.89,572.01,495.27z" style="stroke:black;fill:#BFDAE3"/><path id="180623552" parent_id="180608862" order="26" structure_id="1" d="M555.48,577.5   c-0.15,1.05-0.48,1.8-1.08,2.52c-0.512,0.54-0.9,1.142-0.9,1.32c0,0.54,3.09,3.51,4.979,4.771c2.369,1.62,5.609,3.238,8.341,4.14   c2.52,0.84,3.778,0.96,3.778,0.33c0-0.21-1.5-2.28-3.33-4.561c-1.829-2.279-3.448-4.409-3.6-4.681c-0.15-0.27-1.08-0.93-2.04-1.438   c-0.99-0.54-2.61-1.62-3.6-2.432c-1.021-0.81-1.95-1.47-2.102-1.47C555.78,576,555.6,576.69,555.48,577.5z" style="stroke:black;fill:#BFDAE3"/><path id="180623552" parent_id="180608862" order="27" structure_id="1" d="M639.75,192c-0.3,0.33-0.6,1.26-0.69,2.1   c-0.3,3.12,1.23,5.28,7.892,11.16c5.97,5.28,11.67,10.56,21.39,19.86c9.181,8.79,11.7,10.77,22.05,17.46   c12.24,7.89,22.41,13.47,27.842,15.24c5.67,1.86,11.908,2.88,17.578,2.88c4.11,0,7.052-0.42,11.342-1.65   c8.22-2.34,13.29-2.97,23.938-2.97c5.7-0.03,8.312-0.12,8.312-0.36c0-0.51-12.062-4.2-28.352-8.67   c-14.58-3.99-18.688-5.4-29.55-9.99c-7.11-3.03-19.17-8.7-18.57-8.76c0.12,0,2.94,1.29,6.302,2.88   c10.77,5.07,20.398,9.03,28.318,11.64c1.83,0.6,7.352,2.19,12.3,3.51c18.842,5.07,33.062,9.66,43.2,13.89   c12.09,5.07,31.142,17.19,44.28,28.11c4.53,3.75,15.45,14.61,18.84,18.72c5.431,6.54,15.15,20.46,20.28,28.95   c11.58,19.29,18.06,39.9,21.45,68.25c2.01,16.86,1.108,32.82-2.881,50.85c-4.649,21.03-14.13,44.552-24.029,59.7   c-5.82,8.852-15.721,20.67-22.44,26.73c-12.029,10.858-26.1,17.55-41.31,19.648c-2.73,0.36-3.84,0.63-3.84,0.932   c0,1.35,13.05-0.69,20.729-3.24c12.45-4.17,21.511-10.11,33.15-21.72c7.529-7.5,12.18-13.2,17.67-21.602   c5.16-7.83,10.02-17.16,13.2-25.2c1.979-5.04,7.83-21.448,9.898-27.75c6.78-20.938,9.09-35.43,8.28-52.408   c-0.99-20.642-3.479-35.07-8.88-51.24c-2.79-8.43-5.311-14.46-9.602-23.1c-16.02-32.25-36.118-53.94-67.198-72.51   c-18.24-10.89-44.761-23.19-84.302-39.09c-14.52-5.82-24.118-9.36-36.6-13.5c-13.59-4.5-18.359-6.18-36.24-12.72   c-7.71-2.82-15.18-5.46-16.59-5.88C643.59,191.19,640.53,191.13,639.75,192z" style="stroke:black;fill:#BFDAE3"/><path id="180623552" parent_id="180608862" order="28" structure_id="1" d="M681,237.33c0,0.45,0.51,1.02,7.92,9.27   c11.85,13.17,17.521,19.11,20.01,21c6.33,4.77,14.19,6.87,20.642,5.58c1.62-0.33,5.37-1.68,10.5-3.78   c20.608-8.43,30.3-10.29,38.79-7.53c11.488,3.75,29.278,12.87,42.238,21.66c9.42,6.39,14.552,10.86,23.222,20.22   c13.229,14.25,19.83,22.44,26.64,32.85c10.11,15.45,15.75,29.73,20.01,50.4c4.74,23.13,4.59,43.89-0.449,65.67   c-2.579,11.13-8.761,30.48-13.591,42.48c-4.438,10.979-9.63,20.58-15.3,28.198c-13.68,18.48-34.859,32.25-54.898,35.7   c-3.062,0.54-3.932,0.932-3.932,1.71c0,0.66-0.27,0.63,3.78,0.09c17.04-2.22,31.08-9.18,44.13-21.868   c8.28-8.012,17.91-20.342,23.4-29.882c11.488-19.979,20.25-46.079,23.188-69.148c1.682-13.23,1.65-24.42-0.18-38.55   c-3.96-31.021-11.04-50.76-26.49-73.95c-12.24-18.3-20.7-28.14-33.479-38.85c-14.46-12.09-33.841-24.03-48.12-29.67   c-5.73-2.25-6.99-2.46-16.08-2.64c-10.92-0.21-17.61,0.54-25.86,2.91c-4.739,1.35-6.479,1.59-11.34,1.59   c-7.2,0-14.88-1.56-21.12-4.23c-5.55-2.4-16.14-8.55-26.49-15.42C682.17,237.21,681,236.58,681,237.33z" style="stroke:black;fill:#BFDAE3"/><path id="180623552" parent_id="180608862" order="29" structure_id="1" d="M605.04,613.59c-0.09-1.229-0.21-1.5-1.08-2.1c-1.17-0.75-3.06-1.2-6.81-1.562   c-3.271-0.3-6.602,0.24-18.54,3c-8.972,2.102-12.182,3.062-16.86,5.07c-7.441,3.219-15.657,5.148-21.75,5.181v16.874   c0.646-0.009,1.428,0.087,2.58,0.296c4.95,0.869,14.25,0.479,22.17-0.931c6.3-1.109,10.65-2.46,14.97-4.649   c5.222-2.641,18.722-12.271,22.32-15.931C604.68,616.17,605.16,615.36,605.04,613.59z" style="stroke:black;fill:#BFDAE3"/><path id="180623552" parent_id="180608862" order="30" structure_id="1" d="M546.99,620.4c-0.03-1.08-0.812-10.262-1.74-20.4c-1.83-19.8-1.95-20.55-3.69-21.9   c-0.444-0.362-1.008-0.535-1.56-0.555v45.523c0.164,0.002,0.326,0.004,0.48,0.002c1.14,0,3.09-0.182,4.318-0.36l2.25-0.36   L546.99,620.4z" style="stroke:black;fill:#BFDAE3"/><path id="180623552" parent_id="180608862" order="31" structure_id="1" d="M574.8,536.82c-4.5,0.96-8.1,3.09-10.108,6   c-1.892,2.76-1.922,5.1-0.03,7.26c1.26,1.439,2.79,2.16,5.398,2.52c5.432,0.78,12.512-1.229,17.28-4.858   c5.07-3.932,4.771-8.34-0.75-10.44C584.37,536.43,577.86,536.19,574.8,536.82z" style="stroke:black;fill:#BFDAE3"/><path id="180623552" parent_id="180608862" order="32" structure_id="1" d="M613.41,553.02   c-1.95,0.69-3.42,1.472-9.36,4.98c-8.069,4.74-14.52,7.14-27.6,10.32c-4.44,1.08-8.852,2.188-9.75,2.46c-2.04,0.6-3.54,1.68-4.08,3   c-0.66,1.62-0.54,4.229,0.33,6.09c0.688,1.5,6.358,8.97,6.81,9.03c0.12,0,2.73-1.562,5.852-3.48c5.79-3.6,11.22-7.41,17.1-12.03   c9.87-7.8,22.92-18.028,24.15-18.96c0.778-0.6,1.408-1.318,1.438-1.619C618.3,552.03,615.93,552.15,613.41,553.02z" style="stroke:black;fill:#BFDAE3"/><path id="180623552" parent_id="180608862" order="33" structure_id="1" d="M610.95,559.08   c-4.11,3.24-10.26,8.07-13.65,10.74c-11.1,8.79-16.35,12.54-24.06,17.13c-1.86,1.08-2.94,1.92-2.94,2.22s1.32,2.13,2.94,4.11   c3.6,4.409,4.59,5.01,7.71,4.83c1.8-0.092,2.729-0.392,6-1.892l3.898-1.738l3.78-3.78c7.23-7.23,16.771-18.12,16.771-19.2   c0-0.6,1.26-2.79,3.84-6.72c2.818-4.32,3.93-6.54,4.17-8.28c0.21-1.47-0.12-3.3-0.602-3.3C618.6,553.2,615.09,555.84,610.95,559.08   z" style="stroke:black;fill:#BFDAE3"/><path id="180623552" parent_id="180608862" order="34" structure_id="1" d="M553.8,575.13c-2.13-0.45-3.75-1.35-5.64-3.148c-1.892-1.74-3.33-3.87-4.11-6.03   c-0.3-0.84-0.6-1.562-0.66-1.62c-0.062-0.092-1.733-0.146-3.39-0.15v13.025c0.009,0,0.021-0.005,0.03-0.005   c0.33,0,1.108,0.479,1.739,1.108c1.381,1.41,5.971,4.592,6.601,4.592c0.27,0,1.14-0.33,1.95-0.75c0.81-0.42,1.68-0.75,1.92-0.75   c0.66,0,2.13-1.17,2.608-2.102c0.24-0.479,0.45-1.53,0.45-2.37v-1.47L553.8,575.13z" style="stroke:black;fill:#BFDAE3"/><path id="180623552" parent_id="180608862" order="35" structure_id="1" d="M726.27,384.6c-2.158-3.06-5.488-8.01-7.408-11.01c-1.92-3.03-3.69-5.49-3.87-5.49c-0.63,0-1.2,1.26-1.41,3   c-0.6,4.83-2.521,9.18-5.49,12.33c-6.33,6.72-19.319,11.97-32.55,13.2c-5.64,0.51-20.04,0.18-26.34-0.6   c-2.73-0.36-8.521-1.05-12.9-1.53c-12.66-1.41-18.06-2.43-21.96-4.05c-2.37-0.99-3.24-1.2-3.24-0.78c0,0.18,0.33,1.32,0.75,2.55   c1.29,3.838,0.9,8.49-0.988,12c-1.86,3.42-4.92,5.91-10.892,8.82c-4.979,2.43-7.29,4.86-12.988,13.53   c-4.23,6.42-10.682,17.37-11.461,19.41c-0.989,2.67-0.931,3.63,0.359,5.55c2.521,3.72,4.62,9.18,4.62,12.12   c0,1.89-1.41,7.56-2.37,9.63c-2.88,6.12-8.97,8.7-18.6,7.89c-2.19-0.18-3.812-0.21-3.84-0.06c-0.45,1.35-2.762,4.56-4.592,6.42   c-2.398,2.398-3.988,3.18-5.58,2.79c-0.778-0.21-0.81-0.182-0.63,0.75c0.302,1.438,1.53,4.41,4.262,10.229   c3.118,6.63,3.84,8.49,4.738,12c1.562,5.94,1.86,8.46,1.83,15c0,5.37-0.09,6.45-0.66,8.55c-0.75,2.7-2.398,6.392-3.568,7.892   c-0.45,0.6-0.69,1.229-0.602,1.59c0.148,0.563-0.12,0.57-10.89,0.541v17.137c2.938,0,5.878,0.098,6.87,0.292   c1.56,0.3,1.59,0.3,8.22-2.58c18.45-7.979,17.61-7.71,23.76-8.34c12.842-1.38,24.33-1.26,30.21,0.271   c1.62,0.42,1.71,0.39,3.722-0.45c3-1.23,4.56-1.41,5.58-0.602c1.198,0.932,1.528,2.521,0.96,4.53c-0.78,2.79-0.812,2.97-0.42,2.97   c0.21,0,1.318-0.898,2.488-1.979c1.171-1.08,3.421-2.91,4.98-4.08c1.59-1.17,3.688-2.85,4.68-3.69   c2.521-2.188,4.352-3.448,4.95-3.448c0.36,0,0.57-0.33,0.69-1.142c0.3-1.71,2.13-4.5,5.278-7.92c1.562-1.71,4.17-4.77,5.852-6.81   c4.858-5.971,6.6-7.95,7.59-8.58c0.6-0.391,1.29-1.352,1.979-2.852c4.021-8.55,11.222-15.18,20.521-18.898   c5.189-2.07,10.17-2.61,14.97-1.65c2.91,0.63,4.59,1.352,6.062,2.67c0.658,0.602,1.26,1.08,1.38,1.08c0.09,0,0.96-0.54,1.92-1.17   c2.13-1.438,4.108-2.13,5.64-1.95l1.17,0.15l2.221-3.99c1.229-2.188,4.711-7.979,7.739-12.898c3.03-4.892,5.49-9.092,5.49-9.36   c0-0.66-0.24-0.6-2.76,0.39c-5.61,2.222-10.682,3.15-16.892,3.12c-7.14-0.029-10.619-1.108-13.26-4.108   c-1.438-1.65-2.1-3.45-2.55-6.961c-0.9-7.409,2.34-13.171,8.31-14.789l1.2-0.302l0.03-5.79c0.06-9.06,2.49-26.729,5.13-37.29   c1.71-6.81,2.82-9.75,4.08-10.829c2.61-2.22,7.41-3.18,10.62-2.101c2.01,0.66,3.84,2.07,4.77,3.66c0.42,0.72,0.9,1.32,1.052,1.32   c0.148,0,0.75-0.512,1.318-1.17c1.29-1.41,3.271-2.312,5.79-2.61c1.352-0.15,1.86-0.33,1.86-0.66   C733.2,394.83,730.71,390.93,726.27,384.6z M557.94,546.51c-0.48,0.062-1.2,0.062-1.65,0c-0.48-0.06-0.09-0.12,0.81-0.12   C558,546.39,558.39,546.45,557.94,546.51z M612.84,485.79c3.48-2.07,6.99-2.37,10.71-0.96c2.22,0.84,4.65,3.15,5.19,4.95   c0.898,3.06,0.12,6.51-1.95,8.818c-1.5,1.682-2.729,2.25-5.91,2.671c-5.49,0.779-8.01,0.301-10.229-1.921   C606.75,495.42,607.83,488.73,612.84,485.79z M566.07,499.95c1.89-4.08,8.1-6.48,11.76-4.562c2.43,1.29,4.32,4.71,4.68,8.46   c0.3,3.15-0.81,5.25-3.479,6.602c-5.55,2.79-11.49,0.63-13.08-4.74C565.35,503.67,565.38,501.42,566.07,499.95z M585.99,548.7   c-8.34,5.52-19.65,5.608-22.26,0.21c-1.172-2.43-0.57-4.65,2.038-7.41c2.49-2.67,6.302-4.47,10.86-5.1   c2.73-0.392,7.11-0.092,9.42,0.63c3.09,0.96,4.95,2.91,4.95,5.278C591,544.38,589.32,546.51,585.99,548.7z M655.11,514.44   c-3.45,8.04-7.98,11.67-16.562,13.26c-3.6,0.66-10.77,0.688-20.7,0.03c-13.59-0.87-33.27-2.4-35.488-2.7   c-2.312-0.33-3.45-1.142-4.83-3.45c-1.71-2.85-1.352-4.59,1.2-5.88c2.31-1.2,19.14-6.51,28.47-9.03c11.188-3,30.63-6.39,37.35-6.54   c0.84,0,2.34,0.18,3.392,0.42c3.688,0.87,6.448,2.79,7.738,5.4C656.82,508.29,656.64,510.96,655.11,514.44z" style="stroke:black;fill:#BFDAE3"/><path id="180623552" parent_id="180608862" order="36" structure_id="1" d="M726.27,384.6c-2.158-3.06-5.488-8.01-7.408-11.01c-1.92-3.03-3.69-5.49-3.87-5.49c-0.63,0-1.2,1.26-1.41,3   c-0.6,4.83-2.521,9.18-5.49,12.33c-6.33,6.72-19.319,11.97-32.55,13.2c-5.64,0.51-20.04,0.18-26.34-0.6   c-2.73-0.36-8.521-1.05-12.9-1.53c-12.66-1.41-18.06-2.43-21.96-4.05c-2.37-0.99-3.24-1.2-3.24-0.78c0,0.18,0.33,1.32,0.75,2.55   c1.29,3.838,0.9,8.49-0.988,12c-1.86,3.42-4.92,5.91-10.892,8.82c-4.979,2.43-7.29,4.86-12.988,13.53   c-4.23,6.42-10.682,17.37-11.461,19.41c-0.989,2.67-0.931,3.63,0.359,5.55c2.521,3.72,4.62,9.18,4.62,12.12   c0,1.89-1.41,7.56-2.37,9.63c-2.88,6.12-8.97,8.7-18.6,7.89c-2.19-0.18-3.812-0.21-3.84-0.06c-0.45,1.35-2.762,4.56-4.592,6.42   c-2.398,2.398-3.988,3.18-5.58,2.79c-0.778-0.21-0.81-0.182-0.63,0.75c0.302,1.438,1.53,4.41,4.262,10.229   c3.118,6.63,3.84,8.49,4.738,12c1.562,5.94,1.86,8.46,1.83,15c0,5.37-0.09,6.45-0.66,8.55c-0.75,2.7-2.398,6.392-3.568,7.892   c-0.45,0.6-0.69,1.229-0.602,1.59c0.148,0.563-0.12,0.57-10.89,0.541v17.137c2.938,0,5.878,0.098,6.87,0.292   c1.56,0.3,1.59,0.3,8.22-2.58c18.45-7.979,17.61-7.71,23.76-8.34c12.842-1.38,24.33-1.26,30.21,0.271   c1.62,0.42,1.71,0.39,3.722-0.45c3-1.23,4.56-1.41,5.58-0.602c1.198,0.932,1.528,2.521,0.96,4.53c-0.78,2.79-0.812,2.97-0.42,2.97   c0.21,0,1.318-0.898,2.488-1.979c1.171-1.08,3.421-2.91,4.98-4.08c1.59-1.17,3.688-2.85,4.68-3.69   c2.521-2.188,4.352-3.448,4.95-3.448c0.36,0,0.57-0.33,0.69-1.142c0.3-1.71,2.13-4.5,5.278-7.92c1.562-1.71,4.17-4.77,5.852-6.81   c4.858-5.971,6.6-7.95,7.59-8.58c0.6-0.391,1.29-1.352,1.979-2.852c4.021-8.55,11.222-15.18,20.521-18.898   c5.189-2.07,10.17-2.61,14.97-1.65c2.91,0.63,4.59,1.352,6.062,2.67c0.658,0.602,1.26,1.08,1.38,1.08c0.09,0,0.96-0.54,1.92-1.17   c2.13-1.438,4.108-2.13,5.64-1.95l1.17,0.15l2.221-3.99c1.229-2.188,4.711-7.979,7.739-12.898c3.03-4.892,5.49-9.092,5.49-9.36   c0-0.66-0.24-0.6-2.76,0.39c-5.61,2.222-10.682,3.15-16.892,3.12c-7.14-0.029-10.619-1.108-13.26-4.108   c-1.438-1.65-2.1-3.45-2.55-6.961c-0.9-7.409,2.34-13.171,8.31-14.789l1.2-0.302l0.03-5.79c0.06-9.06,2.49-26.729,5.13-37.29   c1.71-6.81,2.82-9.75,4.08-10.829c2.61-2.22,7.41-3.18,10.62-2.101c2.01,0.66,3.84,2.07,4.77,3.66c0.42,0.72,0.9,1.32,1.052,1.32   c0.148,0,0.75-0.512,1.318-1.17c1.29-1.41,3.271-2.312,5.79-2.61c1.352-0.15,1.86-0.33,1.86-0.66   C733.2,394.83,730.71,390.93,726.27,384.6z M557.94,546.51c-0.48,0.062-1.2,0.062-1.65,0c-0.48-0.06-0.09-0.12,0.81-0.12   C558,546.39,558.39,546.45,557.94,546.51z M612.84,485.79c3.48-2.07,6.99-2.37,10.71-0.96c2.22,0.84,4.65,3.15,5.19,4.95   c0.898,3.06,0.12,6.51-1.95,8.818c-1.5,1.682-2.729,2.25-5.91,2.671c-5.49,0.779-8.01,0.301-10.229-1.921   C606.75,495.42,607.83,488.73,612.84,485.79z M566.07,499.95c1.89-4.08,8.1-6.48,11.76-4.562c2.43,1.29,4.32,4.71,4.68,8.46   c0.3,3.15-0.81,5.25-3.479,6.602c-5.55,2.79-11.49,0.63-13.08-4.74C565.35,503.67,565.38,501.42,566.07,499.95z M585.99,548.7   c-8.34,5.52-19.65,5.608-22.26,0.21c-1.172-2.43-0.57-4.65,2.038-7.41c2.49-2.67,6.302-4.47,10.86-5.1   c2.73-0.392,7.11-0.092,9.42,0.63c3.09,0.96,4.95,2.91,4.95,5.278C591,544.38,589.32,546.51,585.99,548.7z M655.11,514.44   c-3.45,8.04-7.98,11.67-16.562,13.26c-3.6,0.66-10.77,0.688-20.7,0.03c-13.59-0.87-33.27-2.4-35.488-2.7   c-2.312-0.33-3.45-1.142-4.83-3.45c-1.71-2.85-1.352-4.59,1.2-5.88c2.31-1.2,19.14-6.51,28.47-9.03c11.188-3,30.63-6.39,37.35-6.54   c0.84,0,2.34,0.18,3.392,0.42c3.688,0.87,6.448,2.79,7.738,5.4C656.82,508.29,656.64,510.96,655.11,514.44z" style="stroke:black;fill:#BFDAE3"/><path id="180623552" parent_id="180608862" order="37" structure_id="1" d="M564.45,444.03c-4.44-2.19-8.94-3.33-13.352-3.33c-2.818,0-5.1,0.39-5.1,0.87c0,0.148-0.271,2.729-0.6,5.76   c-0.812,7.47-1.65,10.47-2.852,10.47c-1.17,0-1.41-2.64-0.93-10.59l0.24-4.41H540v103.8h0.03h10.08l1.198-1.738   c1.711-2.4,2.37-3.842,3.24-6.812c1.65-5.729,1.65-13.26-0.03-21.45c-1.05-5.22-2.01-7.858-5.488-15.39   c-1.682-3.6-3.42-7.68-3.9-9.09c-0.479-1.41-1.2-2.94-1.62-3.36c-1.68-1.77-1.95-4.71-0.688-7.438   c0.42-0.932,0.778-1.83,0.778-1.98c0-0.18-0.39-0.78-0.898-1.35c-1.32-1.5-1.26-3.42,0.3-7.83c1.41-4.05,1.68-5.43,2.25-11.16   c0.6-6.21,1.29-7.83,3.9-9.03c2.729-1.26,6.898-0.27,12.81,3.062c1.44,0.81,2.73,1.47,2.88,1.47c0.12,0,0.48-0.42,0.78-0.93   c0.33-0.54,1.5-1.92,2.609-3.12c1.141-1.2,2.069-2.28,2.069-2.431C570.3,447.54,566.91,445.23,564.45,444.03z" style="stroke:black;fill:#BFDAE3"/><path id="180623552" parent_id="180608862" order="38" structure_id="1" d="M543.75,582.21   c0.09,0.96,0.96,10.29,1.92,20.73c0.96,10.438,1.83,19.05,1.92,19.14c0.66,0.66,14.312-3.63,14.312-4.5   c0-0.811-2.25-7.44-4.11-12.18c-2.16-5.432-5.58-13.262-7.71-17.67c-0.75-1.562-1.38-3.211-1.38-3.69c0-0.63-0.24-0.93-0.96-1.32   c-0.54-0.27-1.562-0.898-2.25-1.35C543.69,580.11,543.51,580.2,543.75,582.21z" style="stroke:black;fill:#BFDAE3"/><path id="180623552" parent_id="180608862" order="39" structure_id="1" d="M564.45,444.03c-4.44-2.19-8.94-3.33-13.352-3.33c-2.818,0-5.1,0.39-5.1,0.87c0,0.148-0.271,2.729-0.6,5.76   c-0.812,7.47-1.65,10.47-2.852,10.47c-1.17,0-1.41-2.64-0.93-10.59l0.24-4.41H540v103.8h0.03h10.08l1.198-1.738   c1.711-2.4,2.37-3.842,3.24-6.812c1.65-5.729,1.65-13.26-0.03-21.45c-1.05-5.22-2.01-7.858-5.488-15.39   c-1.682-3.6-3.42-7.68-3.9-9.09c-0.479-1.41-1.2-2.94-1.62-3.36c-1.68-1.77-1.95-4.71-0.688-7.438   c0.42-0.932,0.778-1.83,0.778-1.98c0-0.18-0.39-0.78-0.898-1.35c-1.32-1.5-1.26-3.42,0.3-7.83c1.41-4.05,1.68-5.43,2.25-11.16   c0.6-6.21,1.29-7.83,3.9-9.03c2.729-1.26,6.898-0.27,12.81,3.062c1.44,0.81,2.73,1.47,2.88,1.47c0.12,0,0.48-0.42,0.78-0.93   c0.33-0.54,1.5-1.92,2.609-3.12c1.141-1.2,2.069-2.28,2.069-2.431C570.3,447.54,566.91,445.23,564.45,444.03z" style="stroke:black;fill:#BFDAE3"/><path id="180623552" parent_id="180608862" order="40" structure_id="1" d="M587.64,423.24c-5.25-2.91-43.5-19.59-44.25-19.32c-0.21,0.09-0.39,0.3-0.39,0.51   c0,0.75-1.86,4.17-2.43,4.5c-0.223,0.111-0.397,0.156-0.57,0.138V442.5h0.03h1.979l0.24-2.79c0.45-5.91,1.35-9.21,2.55-9.21   c0.87,0,1.47,1.44,1.682,4.17c0.238,2.82,0.568,3.03,2.01,1.29c5.46-6.54,13.95-11.61,22.47-13.44c2.97-0.63,7.98-0.6,10.62,0.03   c1.14,0.3,2.939,0.9,3.99,1.38c1.05,0.48,2.1,0.87,2.31,0.87C588.54,424.8,588.36,423.66,587.64,423.24z" style="stroke:black;fill:#BFDAE3"/><path id="180623552" parent_id="180608862" order="41" structure_id="1" d="M566.4,346.62c-2.91-0.39-5.642-0.48-12.302-0.42c-6.059,0.078-10.489,0.116-14.1,0.12v38.964   c0.523-0.029,1.01,0.17,2.16,0.756c0.99,0.54,2.04,0.96,2.34,0.96c0.271,0,1.92-0.96,3.63-2.13c10.59-7.29,21.87-18.45,27.96-27.72   c1.74-2.64,3.812-6.45,3.812-7.02C579.9,349.32,572.61,347.43,566.4,346.62z" style="stroke:black;fill:#BFDAE3"/><path id="180623552" parent_id="180608862" order="42" structure_id="1" d="M639.75,192c-0.3,0.33-0.6,1.26-0.69,2.1   c-0.3,3.12,1.23,5.28,7.892,11.16c5.97,5.28,11.67,10.56,21.39,19.86c9.181,8.79,11.7,10.77,22.05,17.46   c12.24,7.89,22.41,13.47,27.842,15.24c5.67,1.86,11.908,2.88,17.578,2.88c4.11,0,7.052-0.42,11.342-1.65   c8.22-2.34,13.29-2.97,23.938-2.97c5.7-0.03,8.312-0.12,8.312-0.36c0-0.51-12.062-4.2-28.352-8.67   c-14.58-3.99-18.688-5.4-29.55-9.99c-7.11-3.03-19.17-8.7-18.57-8.76c0.12,0,2.94,1.29,6.302,2.88   c10.77,5.07,20.398,9.03,28.318,11.64c1.83,0.6,7.352,2.19,12.3,3.51c18.842,5.07,33.062,9.66,43.2,13.89   c12.09,5.07,31.142,17.19,44.28,28.11c4.53,3.75,15.45,14.61,18.84,18.72c5.431,6.54,15.15,20.46,20.28,28.95   c11.58,19.29,18.06,39.9,21.45,68.25c2.01,16.86,1.108,32.82-2.881,50.85c-4.649,21.03-14.13,44.552-24.029,59.7   c-5.82,8.852-15.721,20.67-22.44,26.73c-12.029,10.858-26.1,17.55-41.31,19.648c-2.73,0.36-3.84,0.63-3.84,0.932   c0,1.35,13.05-0.69,20.729-3.24c12.45-4.17,21.511-10.11,33.15-21.72c7.529-7.5,12.18-13.2,17.67-21.602   c5.16-7.83,10.02-17.16,13.2-25.2c1.979-5.04,7.83-21.448,9.898-27.75c6.78-20.938,9.09-35.43,8.28-52.408   c-0.99-20.642-3.479-35.07-8.88-51.24c-2.79-8.43-5.311-14.46-9.602-23.1c-16.02-32.25-36.118-53.94-67.198-72.51   c-18.24-10.89-44.761-23.19-84.302-39.09c-14.52-5.82-24.118-9.36-36.6-13.5c-13.59-4.5-18.359-6.18-36.24-12.72   c-7.71-2.82-15.18-5.46-16.59-5.88C643.59,191.19,640.53,191.13,639.75,192z" style="stroke:black;fill:#BFDAE3"/><path id="180623552" parent_id="180608862" order="43" structure_id="1" d="M611.1,393.75c0,2.04-2.398,9.6-4.02,12.66   c-1.26,2.34-1.29,2.49-0.51,2.49c0.869,0,3.3-2.882,4.438-5.25c1.23-2.61,1.8-6.12,1.41-8.7c-0.21-1.32-0.39-1.83-0.78-1.89   C611.22,392.97,611.1,393.15,611.1,393.75z" style="stroke:black;fill:#BFDAE3"/><path id="180623552" parent_id="180608862" order="44" structure_id="1" d="M549.93,582.48   c-1.198,0.988-1.229,2.25-0.148,4.408c3.12,6.092,9.51,21.63,11.278,27.271c0.69,2.25,1.142,3.24,1.44,3.24   c1.02,0,5.34-2.19,8.49-4.29c3.6-2.4,6.45-4.98,7.979-7.23c0.9-1.29,0.932-1.47,0.63-2.43c-0.27-0.84-0.238-1.2,0.271-2.16   c0.33-0.66,0.81-1.35,1.05-1.56c0.75-0.632,0.57-1.23-0.33-1.23c-2.55,0-4.109-1.08-7.14-4.92c-1.38-1.71-1.98-2.25-2.55-2.28   c-1.262,0-4.892-1.108-7.352-2.25c-3.06-1.38-6.81-3.898-8.7-5.818c-1.318-1.352-1.619-1.53-2.729-1.53   C551.19,581.7,550.59,581.91,549.93,582.48z" style="stroke:black;fill:#BFDAE3"/><path id="180623552" parent_id="180608862" order="45" structure_id="1" d="M543.75,431.49   c-0.66,1.56-0.99,4.108-1.65,11.85c-0.84,10.352-0.75,14.19,0.36,14.4c0.93,0.18,2.04-3.062,2.46-7.142   c0.09-0.898,0.45-4.29,0.811-7.5c0.75-6.93,0.689-11.04-0.149-11.97C544.77,430.23,544.23,430.35,543.75,431.49z" style="stroke:black;fill:#BFDAE3"/><path id="180623552" parent_id="180608862" order="46" structure_id="1" d="M573.9,446.28   c-0.24,0.238-1.29,0.96-2.4,1.62c-3.27,1.92-5.55,4.738-8.85,10.948c-2.49,4.682-7.23,12.87-8.61,14.94   c-0.69,1.02-1.771,2.13-2.55,2.61c-1.23,0.778-4.65,2.068-6.75,2.52c-0.602,0.15-0.99,0.6-1.59,1.8   c-1.592,3.271-1.23,6.66,0.93,8.58c1.26,1.08,2.85,1.2,4.59,0.33c1.53-0.81,4.26-3.78,5.79-6.42c0.69-1.17,3.36-5.34,5.94-9.21   c5.64-8.55,7.979-12.39,11.068-18.36c2.432-4.68,3.182-6.51,3.512-8.64c0.148-0.96,0.09-1.2-0.24-1.2   C574.47,445.8,574.11,446.01,573.9,446.28z" style="stroke:black;fill:#BFDAE3"/><path id="180623552" parent_id="180608862" order="47" structure_id="1" d="M783.6,296.43   c-4.47,0.39-9.238,1.11-11.608,1.77c-1.11,0.3-4.71,1.86-7.95,3.42c-12.24,5.94-18.45,7.8-27.12,8.19l-4.53,0.18l-0.87,2.13   c-0.81,2.01-0.84,2.37-0.84,6.48c0,3.87,0.09,4.65,0.84,7.05c1.08,3.57,2.642,6.45,4.592,8.49c0.87,0.93,1.59,1.92,1.59,2.22   c0,0.87,2.34,0.96,10.648,0.45c4.71-0.27,7.83-0.36,7.892-0.18c0.18,0.42,1.08,0.33,2.52-0.3c1.562-0.66,7.021-1.68,11.49-2.16   c2.01-0.21,5.43-0.27,8.67-0.18l5.34,0.18l-0.18-0.96c-0.45-2.13-0.54-6.93-0.18-8.58c0.42-1.98,2.1-6.33,2.398-6.33   c0.12,0,0.3-0.33,0.42-0.69c0.45-1.8,4.41-7.17,9.69-13.17c3.479-3.93,4.92-5.25,6.84-6.27c1.59-0.84,1.71-1.32,0.39-1.59   C802.02,296.25,786.99,296.13,783.6,296.43z" style="stroke:black;fill:#BFDAE3"/><path id="180623552" parent_id="180608862" order="48" structure_id="1" d="M780.96,352.92   c-2.82,0.93-4.8,3.54-4.41,5.82c0.42,2.46,2.102,3.96,4.53,3.96c5.37,0,9.479-4.47,7.35-7.98   C787.32,352.89,783.72,352.02,780.96,352.92z" style="stroke:black;fill:#BFDAE3"/><path id="180623552" parent_id="180608862" order="49" structure_id="1" d="M830.16,471.9   c-1.29,2.25-5.102,7.08-7.74,9.778c-6.03,6.15-14.58,11.762-20.43,13.352c-3.42,0.93-8.49,0.72-13.53-0.63   c-2.04-0.54-3.75-0.9-3.84-0.842c-0.062,0.092,0.27,1.74,0.78,3.722c2.158,8.76,2.01,17.64-0.42,22.8   c-1.052,2.22-2.7,4.17-3.99,4.65c-3.21,1.198-9.09-1.44-18.09-8.102c-1.23-0.93-2.58-1.89-3-2.16   c-1.17-0.75-19.802-17.699-19.802-18c0-1.8-5.22,5.34-8.1,11.13c-1.38,2.73-2.85,6.66-3.57,9.45c-0.778,3.15-3.3,19.5-3.54,23.04   l-0.148,2.76l38.34,9.271c21.12,5.1,38.67,9.33,39.06,9.42c0.54,0.09,0.66,0,0.66-0.57c0-1.02,0.72-1.35,3.932-1.92   c1.56-0.27,3.898-0.75,5.188-1.08c2.46-0.63,8.22-2.52,8.49-2.79c0.06-0.06-2.16-7.71-4.98-16.948   c-2.818-9.271-5.13-16.95-5.13-17.102c0-0.12,1.17-0.54,2.642-0.93c10.92-2.852,19.108-8.04,30.75-19.47   c5.25-5.16,7.979-8.222,11.188-12.54c2.4-3.24,6.72-10.262,6.72-10.95c0-0.36-0.72-0.48-3.96-0.66   c-2.188-0.12-5.278-0.39-6.84-0.66c-1.56-0.24-3.6-0.57-4.5-0.688c-3.479-0.57-8.28-1.98-12.3-3.632   c-1.2-0.51-2.4-0.898-2.67-0.898C831.06,470.7,830.55,471.24,830.16,471.9z M756.24,515.31c1.77,1.08,3.479,3.54,4.29,6.092   c0.479,1.5,0.63,2.729,0.63,5.398c0,5.58-1.44,8.94-4.65,10.92c-1.2,0.722-1.858,0.9-3.81,1.021l-2.4,0.148l-1.17-1.198   c-0.87-0.87-1.35-1.74-1.89-3.392c-0.602-1.979-0.69-2.85-0.69-7.05c0-3.75,0.12-5.16,0.54-6.45c1.021-3.27,3.03-5.91,4.86-6.39   C753.12,514.08,754.89,514.47,756.24,515.31z" style="stroke:black;fill:#BFDAE3"/><path id="180623552" parent_id="180608862" order="50" structure_id="1" d="M585.3,552.93   c-1.89,0.15-5.34,0.45-7.648,0.722c-4.98,0.568-5.82,0.868-18.57,6.42c-4.92,2.159-9.09,3.93-9.21,3.93   c-0.66,0-0.15,1.11,0.78,1.74c2.25,1.528,4.29,5.04,4.8,8.16c0.24,1.56,0.568,2.01,2.88,3.778c1.83,1.38,3.75,2.432,4.02,2.16   c0.12-0.09,0.03-0.99-0.18-1.979c-0.45-2.131-0.12-3.69,1.14-5.16c1.2-1.44,2.461-1.92,8.94-3.42c13.44-3.15,19.74-5.16,25.95-8.25   c5.01-2.49,11.67-6.36,11.7-6.812C609.93,552.96,595.53,552.21,585.3,552.93z" style="stroke:black;fill:#BFDAE3"/><path id="180623552" parent_id="180608862" order="51" structure_id="1" d="M543.69,564.87   c0.658,3.21,4.318,7.77,7.528,9.3c0.99,0.48,2.432,0.99,3.15,1.08l1.32,0.21l-0.24-1.44c-0.48-3.18-2.521-6.72-4.8-8.278   c-0.57-0.36-1.052-0.84-1.052-1.05s-0.42-0.33-0.96-0.33c-0.54,0.028-1.92-0.062-3.06-0.21l-2.07-0.24L543.69,564.87z" style="stroke:black;fill:#BFDAE3"/><path id="180623552" parent_id="180608862" order="52" structure_id="1" d="M578.88,606   c-1.2,1.83-4.2,4.62-6.99,6.51c-2.55,1.74-3.238,2.73-1.648,2.4c0.45-0.12,4.26-0.99,8.46-1.98c4.2-0.96,8.43-1.92,9.39-2.13   c0.931-0.18,1.71-0.51,1.71-0.688c0-0.21-0.81-0.512-1.83-0.722c-2.43-0.448-4.68-1.59-6.449-3.238   c-0.779-0.75-1.529-1.352-1.649-1.352C579.78,604.8,579.33,605.34,578.88,606z" style="stroke:black;fill:#BFDAE3"/><path id="180623552" parent_id="180608862" order="53" structure_id="1" d="M640.2,500.58   c-6.78,0.81-18.36,2.79-25.65,4.38c-5.1,1.11-15.03,3.9-24.81,7.021c-12.182,3.84-13.142,4.318-13.142,6.63   c0,2.22,2.432,5.55,4.44,6.06c1.05,0.271,21.84,1.92,36.33,2.88c19.14,1.26,26.97,0.09,32.22-4.92c4.2-3.93,7.29-10.83,6.69-14.85   c-0.392-2.642-3.12-5.432-6.48-6.66C648.45,500.64,642.6,500.31,640.2,500.58z" style="stroke:black;fill:#BFDAE3"/><path id="180623552" parent_id="180608862" order="54" structure_id="1" d="M684.84,498.9   c-1.26,0.148-3.54,0.688-5.01,1.17c-9.33,3.12-17.311,9.75-21.57,17.938c-1.528,2.94-1.59,3.54-0.358,3.812   c1.29,0.238,1.648,1.318,1.05,3.3c-0.69,2.398-1.92,4.229-5.521,8.28c-4.229,4.738-4.318,5.22-0.63,3.72   c3.45-1.38,5.432-0.812,5.852,1.68c0.27,1.53-0.602,3.42-2.4,5.37c-1.83,1.95-2.76,2.37-6.81,2.91   c-1.86,0.24-4.592,0.78-6.092,1.229c-1.47,0.422-3.33,0.75-4.108,0.722c-1.41-0.03-1.41,0-2.04,1.35   c-1.83,4.14-6.602,8.88-16.352,16.17c-8.43,6.36-7.83,5.94-8.97,5.91c-0.81,0-1.11,0.24-2.28,1.83   c-1.318,1.83-12.54,14.189-14.97,16.56c-1.29,1.23-1.56,1.95-0.78,1.95c1.17,0,9.45-4.53,15.24-8.34   c6.99-4.59,7.11-4.65,17.46-10.05c9.271-4.8,14.16-7.62,20.102-11.521c11.1-7.318,20.85-15.06,28.318-22.38   c7.11-7.02,10.95-12.898,15.33-23.37c1.98-4.738,4.11-8.068,7.32-11.55c1.26-1.32,2.28-2.55,2.28-2.7c0-0.449-1.592-1.8-2.91-2.46   C694.32,499.08,689.1,498.45,684.84,498.9z" style="stroke:black;fill:#BFDAE3"/><path id="180623552" parent_id="180608862" order="55" structure_id="1" d="M617.04,484.23   c-1.95,0.3-4.41,1.47-5.88,2.788c-2.16,1.98-3.3,6.062-2.46,9.03c0.75,2.642,3.6,5.04,6.42,5.432c1.38,0.21,6.24-0.271,8.49-0.842   c1.77-0.42,3.75-2.25,4.59-4.198c1.318-3.092,0.81-7.29-1.142-9.33C625.02,484.92,620.55,483.66,617.04,484.23z" style="stroke:black;fill:#BFDAE3"/><path id="180623552" parent_id="180608862" order="56" structure_id="1" d="M726.27,384.6c-2.158-3.06-5.488-8.01-7.408-11.01c-1.92-3.03-3.69-5.49-3.87-5.49c-0.63,0-1.2,1.26-1.41,3   c-0.6,4.83-2.521,9.18-5.49,12.33c-6.33,6.72-19.319,11.97-32.55,13.2c-5.64,0.51-20.04,0.18-26.34-0.6   c-2.73-0.36-8.521-1.05-12.9-1.53c-12.66-1.41-18.06-2.43-21.96-4.05c-2.37-0.99-3.24-1.2-3.24-0.78c0,0.18,0.33,1.32,0.75,2.55   c1.29,3.838,0.9,8.49-0.988,12c-1.86,3.42-4.92,5.91-10.892,8.82c-4.979,2.43-7.29,4.86-12.988,13.53   c-4.23,6.42-10.682,17.37-11.461,19.41c-0.989,2.67-0.931,3.63,0.359,5.55c2.521,3.72,4.62,9.18,4.62,12.12   c0,1.89-1.41,7.56-2.37,9.63c-2.88,6.12-8.97,8.7-18.6,7.89c-2.19-0.18-3.812-0.21-3.84-0.06c-0.45,1.35-2.762,4.56-4.592,6.42   c-2.398,2.398-3.988,3.18-5.58,2.79c-0.778-0.21-0.81-0.182-0.63,0.75c0.302,1.438,1.53,4.41,4.262,10.229   c3.118,6.63,3.84,8.49,4.738,12c1.562,5.94,1.86,8.46,1.83,15c0,5.37-0.09,6.45-0.66,8.55c-0.75,2.7-2.398,6.392-3.568,7.892   c-0.45,0.6-0.69,1.229-0.602,1.59c0.148,0.563-0.12,0.57-10.89,0.541v17.137c2.938,0,5.878,0.098,6.87,0.292   c1.56,0.3,1.59,0.3,8.22-2.58c18.45-7.979,17.61-7.71,23.76-8.34c12.842-1.38,24.33-1.26,30.21,0.271   c1.62,0.42,1.71,0.39,3.722-0.45c3-1.23,4.56-1.41,5.58-0.602c1.198,0.932,1.528,2.521,0.96,4.53c-0.78,2.79-0.812,2.97-0.42,2.97   c0.21,0,1.318-0.898,2.488-1.979c1.171-1.08,3.421-2.91,4.98-4.08c1.59-1.17,3.688-2.85,4.68-3.69   c2.521-2.188,4.352-3.448,4.95-3.448c0.36,0,0.57-0.33,0.69-1.142c0.3-1.71,2.13-4.5,5.278-7.92c1.562-1.71,4.17-4.77,5.852-6.81   c4.858-5.971,6.6-7.95,7.59-8.58c0.6-0.391,1.29-1.352,1.979-2.852c4.021-8.55,11.222-15.18,20.521-18.898   c5.189-2.07,10.17-2.61,14.97-1.65c2.91,0.63,4.59,1.352,6.062,2.67c0.658,0.602,1.26,1.08,1.38,1.08c0.09,0,0.96-0.54,1.92-1.17   c2.13-1.438,4.108-2.13,5.64-1.95l1.17,0.15l2.221-3.99c1.229-2.188,4.711-7.979,7.739-12.898c3.03-4.892,5.49-9.092,5.49-9.36   c0-0.66-0.24-0.6-2.76,0.39c-5.61,2.222-10.682,3.15-16.892,3.12c-7.14-0.029-10.619-1.108-13.26-4.108   c-1.438-1.65-2.1-3.45-2.55-6.961c-0.9-7.409,2.34-13.171,8.31-14.789l1.2-0.302l0.03-5.79c0.06-9.06,2.49-26.729,5.13-37.29   c1.71-6.81,2.82-9.75,4.08-10.829c2.61-2.22,7.41-3.18,10.62-2.101c2.01,0.66,3.84,2.07,4.77,3.66c0.42,0.72,0.9,1.32,1.052,1.32   c0.148,0,0.75-0.512,1.318-1.17c1.29-1.41,3.271-2.312,5.79-2.61c1.352-0.15,1.86-0.33,1.86-0.66   C733.2,394.83,730.71,390.93,726.27,384.6z M557.94,546.51c-0.48,0.062-1.2,0.062-1.65,0c-0.48-0.06-0.09-0.12,0.81-0.12   C558,546.39,558.39,546.45,557.94,546.51z M612.84,485.79c3.48-2.07,6.99-2.37,10.71-0.96c2.22,0.84,4.65,3.15,5.19,4.95   c0.898,3.06,0.12,6.51-1.95,8.818c-1.5,1.682-2.729,2.25-5.91,2.671c-5.49,0.779-8.01,0.301-10.229-1.921   C606.75,495.42,607.83,488.73,612.84,485.79z M566.07,499.95c1.89-4.08,8.1-6.48,11.76-4.562c2.43,1.29,4.32,4.71,4.68,8.46   c0.3,3.15-0.81,5.25-3.479,6.602c-5.55,2.79-11.49,0.63-13.08-4.74C565.35,503.67,565.38,501.42,566.07,499.95z M585.99,548.7   c-8.34,5.52-19.65,5.608-22.26,0.21c-1.172-2.43-0.57-4.65,2.038-7.41c2.49-2.67,6.302-4.47,10.86-5.1   c2.73-0.392,7.11-0.092,9.42,0.63c3.09,0.96,4.95,2.91,4.95,5.278C591,544.38,589.32,546.51,585.99,548.7z M655.11,514.44   c-3.45,8.04-7.98,11.67-16.562,13.26c-3.6,0.66-10.77,0.688-20.7,0.03c-13.59-0.87-33.27-2.4-35.488-2.7   c-2.312-0.33-3.45-1.142-4.83-3.45c-1.71-2.85-1.352-4.59,1.2-5.88c2.31-1.2,19.14-6.51,28.47-9.03c11.188-3,30.63-6.39,37.35-6.54   c0.84,0,2.34,0.18,3.392,0.42c3.688,0.87,6.448,2.79,7.738,5.4C656.82,508.29,656.64,510.96,655.11,514.44z" style="stroke:black;fill:#BFDAE3"/><path id="180623552" parent_id="180608862" order="57" structure_id="1" d="M571.83,455.01   c-3.061,6.062-5.64,10.352-11.01,18.42c-2.37,3.602-4.32,6.63-4.32,6.812c0,0.54,0.99,0.72,4.95,0.87   c10.319,0.448,15.63-2.972,17.88-11.552c0.9-3.328,1.05-7.229,0.42-9.63c-0.87-3.358-4.2-9.63-5.1-9.63   C574.41,450.3,573.18,452.34,571.83,455.01z" style="stroke:black;fill:#BFDAE3"/><path id="180623552" parent_id="180608862" order="58" structure_id="1" d="M549.9,449.73c-2.972,0.898-3.96,2.88-4.5,9   c-0.42,5.01-0.96,7.648-2.28,11.34c-1.352,3.72-1.59,6.12-0.75,7.438c0.33,0.54,0.96,1.05,1.38,1.17   c1.05,0.271,4.29-0.63,6.81-1.89c2.28-1.14,2.79-1.771,6.302-7.74c4.68-7.95,7.92-14.188,7.56-14.52   c-0.149-0.15-1.56-0.96-3.149-1.8C556.38,450.12,552.24,449.04,549.9,449.73z" style="stroke:black;fill:#BFDAE3"/><path id="180623552" parent_id="180608862" order="59" structure_id="1" d="M561.84,431.37   c-5.25,1.14-12.358,4.02-14.58,5.88c-0.84,0.72-0.96,0.99-0.96,2.31v1.5l0.99-0.18c3.36-0.72,6.84-0.45,11.58,0.9   c3.24,0.93,7.41,2.938,9.87,4.738c1.02,0.75,2.04,1.382,2.25,1.382c0.63,0,2.97-1.62,4.17-2.882c1.47-1.56,4.438-6.358,4.438-7.198   c0-0.99-1.77-3.42-3.42-4.65c-2.159-1.65-3.96-2.13-8.13-2.25C565.32,430.83,563.82,430.95,561.84,431.37z" style="stroke:black;fill:#BFDAE3"/><path id="180623552" parent_id="180608862" order="60" structure_id="1" d="M564.45,444.03c-4.44-2.19-8.94-3.33-13.352-3.33c-2.818,0-5.1,0.39-5.1,0.87c0,0.148-0.271,2.729-0.6,5.76   c-0.812,7.47-1.65,10.47-2.852,10.47c-1.17,0-1.41-2.64-0.93-10.59l0.24-4.41H540v103.8h0.03h10.08l1.198-1.738   c1.711-2.4,2.37-3.842,3.24-6.812c1.65-5.729,1.65-13.26-0.03-21.45c-1.05-5.22-2.01-7.858-5.488-15.39   c-1.682-3.6-3.42-7.68-3.9-9.09c-0.479-1.41-1.2-2.94-1.62-3.36c-1.68-1.77-1.95-4.71-0.688-7.438   c0.42-0.932,0.778-1.83,0.778-1.98c0-0.18-0.39-0.78-0.898-1.35c-1.32-1.5-1.26-3.42,0.3-7.83c1.41-4.05,1.68-5.43,2.25-11.16   c0.6-6.21,1.29-7.83,3.9-9.03c2.729-1.26,6.898-0.27,12.81,3.062c1.44,0.81,2.73,1.47,2.88,1.47c0.12,0,0.48-0.42,0.78-0.93   c0.33-0.54,1.5-1.92,2.609-3.12c1.141-1.2,2.069-2.28,2.069-2.431C570.3,447.54,566.91,445.23,564.45,444.03z" style="stroke:black;fill:#BFDAE3"/><path id="180623552" parent_id="180608862" order="61" structure_id="1" d="M726.27,384.6c-2.158-3.06-5.488-8.01-7.408-11.01c-1.92-3.03-3.69-5.49-3.87-5.49c-0.63,0-1.2,1.26-1.41,3   c-0.6,4.83-2.521,9.18-5.49,12.33c-6.33,6.72-19.319,11.97-32.55,13.2c-5.64,0.51-20.04,0.18-26.34-0.6   c-2.73-0.36-8.521-1.05-12.9-1.53c-12.66-1.41-18.06-2.43-21.96-4.05c-2.37-0.99-3.24-1.2-3.24-0.78c0,0.18,0.33,1.32,0.75,2.55   c1.29,3.838,0.9,8.49-0.988,12c-1.86,3.42-4.92,5.91-10.892,8.82c-4.979,2.43-7.29,4.86-12.988,13.53   c-4.23,6.42-10.682,17.37-11.461,19.41c-0.989,2.67-0.931,3.63,0.359,5.55c2.521,3.72,4.62,9.18,4.62,12.12   c0,1.89-1.41,7.56-2.37,9.63c-2.88,6.12-8.97,8.7-18.6,7.89c-2.19-0.18-3.812-0.21-3.84-0.06c-0.45,1.35-2.762,4.56-4.592,6.42   c-2.398,2.398-3.988,3.18-5.58,2.79c-0.778-0.21-0.81-0.182-0.63,0.75c0.302,1.438,1.53,4.41,4.262,10.229   c3.118,6.63,3.84,8.49,4.738,12c1.562,5.94,1.86,8.46,1.83,15c0,5.37-0.09,6.45-0.66,8.55c-0.75,2.7-2.398,6.392-3.568,7.892   c-0.45,0.6-0.69,1.229-0.602,1.59c0.148,0.563-0.12,0.57-10.89,0.541v17.137c2.938,0,5.878,0.098,6.87,0.292   c1.56,0.3,1.59,0.3,8.22-2.58c18.45-7.979,17.61-7.71,23.76-8.34c12.842-1.38,24.33-1.26,30.21,0.271   c1.62,0.42,1.71,0.39,3.722-0.45c3-1.23,4.56-1.41,5.58-0.602c1.198,0.932,1.528,2.521,0.96,4.53c-0.78,2.79-0.812,2.97-0.42,2.97   c0.21,0,1.318-0.898,2.488-1.979c1.171-1.08,3.421-2.91,4.98-4.08c1.59-1.17,3.688-2.85,4.68-3.69   c2.521-2.188,4.352-3.448,4.95-3.448c0.36,0,0.57-0.33,0.69-1.142c0.3-1.71,2.13-4.5,5.278-7.92c1.562-1.71,4.17-4.77,5.852-6.81   c4.858-5.971,6.6-7.95,7.59-8.58c0.6-0.391,1.29-1.352,1.979-2.852c4.021-8.55,11.222-15.18,20.521-18.898   c5.189-2.07,10.17-2.61,14.97-1.65c2.91,0.63,4.59,1.352,6.062,2.67c0.658,0.602,1.26,1.08,1.38,1.08c0.09,0,0.96-0.54,1.92-1.17   c2.13-1.438,4.108-2.13,5.64-1.95l1.17,0.15l2.221-3.99c1.229-2.188,4.711-7.979,7.739-12.898c3.03-4.892,5.49-9.092,5.49-9.36   c0-0.66-0.24-0.6-2.76,0.39c-5.61,2.222-10.682,3.15-16.892,3.12c-7.14-0.029-10.619-1.108-13.26-4.108   c-1.438-1.65-2.1-3.45-2.55-6.961c-0.9-7.409,2.34-13.171,8.31-14.789l1.2-0.302l0.03-5.79c0.06-9.06,2.49-26.729,5.13-37.29   c1.71-6.81,2.82-9.75,4.08-10.829c2.61-2.22,7.41-3.18,10.62-2.101c2.01,0.66,3.84,2.07,4.77,3.66c0.42,0.72,0.9,1.32,1.052,1.32   c0.148,0,0.75-0.512,1.318-1.17c1.29-1.41,3.271-2.312,5.79-2.61c1.352-0.15,1.86-0.33,1.86-0.66   C733.2,394.83,730.71,390.93,726.27,384.6z M557.94,546.51c-0.48,0.062-1.2,0.062-1.65,0c-0.48-0.06-0.09-0.12,0.81-0.12   C558,546.39,558.39,546.45,557.94,546.51z M612.84,485.79c3.48-2.07,6.99-2.37,10.71-0.96c2.22,0.84,4.65,3.15,5.19,4.95   c0.898,3.06,0.12,6.51-1.95,8.818c-1.5,1.682-2.729,2.25-5.91,2.671c-5.49,0.779-8.01,0.301-10.229-1.921   C606.75,495.42,607.83,488.73,612.84,485.79z M566.07,499.95c1.89-4.08,8.1-6.48,11.76-4.562c2.43,1.29,4.32,4.71,4.68,8.46   c0.3,3.15-0.81,5.25-3.479,6.602c-5.55,2.79-11.49,0.63-13.08-4.74C565.35,503.67,565.38,501.42,566.07,499.95z M585.99,548.7   c-8.34,5.52-19.65,5.608-22.26,0.21c-1.172-2.43-0.57-4.65,2.038-7.41c2.49-2.67,6.302-4.47,10.86-5.1   c2.73-0.392,7.11-0.092,9.42,0.63c3.09,0.96,4.95,2.91,4.95,5.278C591,544.38,589.32,546.51,585.99,548.7z M655.11,514.44   c-3.45,8.04-7.98,11.67-16.562,13.26c-3.6,0.66-10.77,0.688-20.7,0.03c-13.59-0.87-33.27-2.4-35.488-2.7   c-2.312-0.33-3.45-1.142-4.83-3.45c-1.71-2.85-1.352-4.59,1.2-5.88c2.31-1.2,19.14-6.51,28.47-9.03c11.188-3,30.63-6.39,37.35-6.54   c0.84,0,2.34,0.18,3.392,0.42c3.688,0.87,6.448,2.79,7.738,5.4C656.82,508.29,656.64,510.96,655.11,514.44z" style="stroke:black;fill:#BFDAE3"/><path id="180623552" parent_id="180608862" order="62" structure_id="1" d="M571.38,422.55   c-6.72,1.29-13.41,4.62-19.14,9.57c-1.53,1.29-2.34,2.22-2.34,2.61c0,0.75-0.12,0.778,4.35-1.052c10.14-4.14,18.15-4.08,22.77,0.15   c0.87,0.81,1.771,1.86,1.98,2.37c0.57,1.35,1.229,1.108,2.37-0.84c0.569-0.932,2.16-3.48,3.54-5.642s2.49-4.14,2.49-4.38   c0-0.51-2.82-1.89-5.222-2.55C579.84,422.16,574.17,422.04,571.38,422.55z" style="stroke:black;fill:#BFDAE3"/><path id="180623552" parent_id="180608862" order="63" structure_id="1" d="M609.27,387.72   c-0.21,0.24-5.34,1.05-9.568,1.5c-10.8,1.23-24.21,1.95-41.01,2.19l-12.96,0.18l-0.182,1.23c-0.12,0.69-0.51,2.52-0.898,4.11   c-0.392,1.59-0.78,3.75-0.9,4.802l-0.18,1.92l11.188,4.77c13.08,5.58,23.55,10.2,29.25,12.93c2.25,1.08,4.32,1.95,4.59,1.95   c0.271,0,0.961-0.63,1.5-1.438c0.54-0.78,1.65-2.19,2.461-3.12c0.779-0.932,1.439-1.83,1.439-2.01c0-0.182,0.12-0.33,0.3-0.33   c0.15,0,0.96-0.512,1.8-1.142c0.842-0.66,2.79-1.8,4.32-2.55c5.19-2.55,7.41-6.06,9.93-15.78c0.842-3.09,0.9-4.62,0.42-7.438   c-0.27-1.47-0.448-1.89-0.84-1.89C609.63,387.6,609.33,387.66,609.27,387.72z M609.57,392.97c0.39,0.72-0.24,1.65-1.021,1.5   c-0.84-0.18-1.26-1.02-0.78-1.59C608.31,392.22,609.21,392.28,609.57,392.97z M593.64,414.36c0.21,0.21,0.36,0.75,0.36,1.198   c0,0.69-0.12,0.842-0.69,0.842c-0.81,0-1.408-0.512-1.408-1.2c0-0.54,0.568-1.2,1.05-1.2C593.13,414,593.43,414.15,593.64,414.36z    M589.23,419.1c0.93,0.512,0.538,2.102-0.512,2.102c-0.42,0-1.318-0.812-1.318-1.2c0-0.27,0.84-1.2,1.08-1.2   C588.57,418.8,588.9,418.95,589.23,419.1z" style="stroke:black;fill:#BFDAE3"/><path id="180623552" parent_id="180608862" order="64" structure_id="1" d="M609.27,387.72   c-0.21,0.24-5.34,1.05-9.568,1.5c-10.8,1.23-24.21,1.95-41.01,2.19l-12.96,0.18l-0.182,1.23c-0.12,0.69-0.51,2.52-0.898,4.11   c-0.392,1.59-0.78,3.75-0.9,4.802l-0.18,1.92l11.188,4.77c13.08,5.58,23.55,10.2,29.25,12.93c2.25,1.08,4.32,1.95,4.59,1.95   c0.271,0,0.961-0.63,1.5-1.438c0.54-0.78,1.65-2.19,2.461-3.12c0.779-0.932,1.439-1.83,1.439-2.01c0-0.182,0.12-0.33,0.3-0.33   c0.15,0,0.96-0.512,1.8-1.142c0.842-0.66,2.79-1.8,4.32-2.55c5.19-2.55,7.41-6.06,9.93-15.78c0.842-3.09,0.9-4.62,0.42-7.438   c-0.27-1.47-0.448-1.89-0.84-1.89C609.63,387.6,609.33,387.66,609.27,387.72z M609.57,392.97c0.39,0.72-0.24,1.65-1.021,1.5   c-0.84-0.18-1.26-1.02-0.78-1.59C608.31,392.22,609.21,392.28,609.57,392.97z M593.64,414.36c0.21,0.21,0.36,0.75,0.36,1.198   c0,0.69-0.12,0.842-0.69,0.842c-0.81,0-1.408-0.512-1.408-1.2c0-0.54,0.568-1.2,1.05-1.2C593.13,414,593.43,414.15,593.64,414.36z    M589.23,419.1c0.93,0.512,0.538,2.102-0.512,2.102c-0.42,0-1.318-0.812-1.318-1.2c0-0.27,0.84-1.2,1.08-1.2   C588.57,418.8,588.9,418.95,589.23,419.1z" style="stroke:black;fill:#BFDAE3"/><path id="180623552" parent_id="180608862" order="65" structure_id="1" d="M711.96,394.98c-3.72,0.99-5.04,2.31-6.3,6.27   c-3.42,10.47-6.57,30.45-6.87,43.17l-0.15,6.57l0.69-0.24c0.39-0.12,3.93-0.3,7.86-0.36c3.898-0.09,7.108-0.27,7.108-0.42   c0-0.12-0.33-0.75-0.75-1.35c-1.38-2.04-1.14-4.59,0.932-9.03c0.568-1.2,1.438-3.42,1.92-4.95c1.38-4.229,4.318-16.35,5.85-24.09   c0.72-3.81,1.47-7.53,1.65-8.34c0.39-1.95-0.21-3.39-2.25-5.25C719.16,394.68,715.68,393.96,711.96,394.98z" style="stroke:black;fill:#BFDAE3"/><path id="180623552" parent_id="180608862" order="66" structure_id="1" d="M701.82,450.63   c-3.21,0.3-5.13,0.78-7.08,1.83c-2.16,1.14-3.36,2.46-4.53,5.01c-0.78,1.65-0.93,2.37-1.05,4.98   c-0.48,10.71,3.688,14.52,15.898,14.55c5.94,0,12.48-1.32,18.092-3.66l2.398-1.02l2.04-3.271c2.101-3.42,8.76-16.53,9.062-17.85   l0.18-0.75h-16.44C711.36,450.45,702.99,450.54,701.82,450.63z" style="stroke:black;fill:#BFDAE3"/><path id="180623552" parent_id="180608862" order="67" structure_id="1" d="M768.6,334.35   c-8.22,0.99-12.09,2.34-16.5,5.73c-4.47,3.42-6.3,6.72-6.3,11.28c0,2.94,0.602,4.8,3.182,9.9c1.8,3.51,3.3,5.97,10.979,18.09   c5.37,8.49,8.37,15.96,11.61,28.95c3.688,14.88,5.34,27.57,5.04,38.55c-0.12,4.74-0.302,6.48-1.08,10.352   c-1.682,8.55-2.16,12.03-2.341,17.25c-0.271,8.22,0.75,12.18,3.931,15.06c1.95,1.8,4.02,2.82,8.1,3.99   c7.83,2.25,12.63,2.7,16.92,1.5c5.642-1.56,14.25-7.2,20.13-13.17c11.012-11.19,18.422-28.38,21.54-49.98   c0.75-5.158,0.75-18.658,0-23.698c-1.829-12.332-5.79-23.43-12.06-33.9c-2.58-4.26-5.25-7.77-9.66-12.6   c-1.95-2.16-5.16-5.73-7.14-7.95c-4.71-5.28-7.771-8.28-11.102-10.77c-6.568-4.98-13.29-7.77-21-8.7   C779.37,333.81,772.62,333.87,768.6,334.35z M786.72,353.25c3.96,1.92,2.34,7.53-2.64,9c-3.18,0.96-5.521,0.42-6.812-1.53   c-1.858-2.85-0.118-6.57,3.69-7.8C782.61,352.38,785.22,352.53,786.72,353.25z M804.3,371.58c6,1.89,9.87,5.73,13.95,13.89   c5.79,11.58,8.22,24.39,7.02,37.23c-1.858,20.34-5.13,29.88-11.31,32.91c-1.65,0.81-1.86,0.84-6.66,0.84   c-4.739,0-5.01-0.03-6.66-0.812c-3.63-1.68-4.108-5.158-1.528-11.34c1.528-3.66,1.89-5.22,1.89-8.25c0-4.89-0.99-8.398-6.689-23.85   c-5.579-15.15-6.869-19.92-6.841-25.5c0-6.39,2.37-12.09,6.15-14.79C795.75,370.38,800.1,370.26,804.3,371.58z" style="stroke:black;fill:#BFDAE3"/><path id="180623552" parent_id="180608862" order="68" structure_id="1" d="M760.35,485.43   c-4.979,0.63-10.26,2.46-13.858,4.83c-2.7,1.771-6.392,5.19-6.392,5.972c0,0.479,18.062,17.1,19.802,18.238   c0.42,0.271,1.77,1.23,3,2.16c9,6.66,14.88,9.3,18.09,8.101c2.34-0.899,4.68-5.039,5.49-9.631c0.93-5.398,0.27-13.618-1.62-19.92   c-0.512-1.738-0.57-1.8-2.012-2.278c-3.479-1.171-6.6-3.54-8.13-6.182L774,485.49l-2.49-0.182   C768.27,485.04,762.96,485.1,760.35,485.43z" style="stroke:black;fill:#BFDAE3"/><path id="180623552" parent_id="180608862" order="69" structure_id="1" d="M751.95,514.41   c-1.83,0.479-3.84,3.12-4.86,6.39c-0.42,1.29-0.54,2.7-0.54,6.45c0,4.2,0.09,5.07,0.69,7.05c0.54,1.65,1.02,2.521,1.89,3.392   l1.17,1.198l2.4-0.148c1.95-0.12,2.608-0.3,3.81-1.021c3.21-1.979,4.65-5.34,4.65-10.92c0-4.108-0.63-6.479-2.37-9   C757.02,515.28,754.11,513.81,751.95,514.41z" style="stroke:black;fill:#BFDAE3"/><path id="180623552" parent_id="180608862" order="70" structure_id="1" d="M725.01,545.16   c-0.21,2.46,0.182,9.42,0.69,12.84c1.438,9.33,5.16,18.45,11.31,27.69c7.892,11.88,18.062,20.67,30.69,26.46   c4.02,1.83,11.76,4.408,13.47,4.438l1.32,0.062l13.59-26.852c7.5-14.76,13.62-26.97,13.62-27.12c0-0.148-1.142-0.18-2.642-0.09   c-2.31,0.18-2.818,0.12-3.84-0.42c-0.84-0.45-76.95-19.17-77.88-19.17C725.25,543,725.1,543.99,725.01,545.16z" style="stroke:black;fill:#BFDAE3"/><path id="180623552" parent_id="180608862" order="71" structure_id="1" d="M795.75,371.07   c-5.64,1.5-9.3,10.5-7.92,19.62c0.75,5.07,2.31,9.93,8.49,26.792c3.21,8.76,4.59,13.68,4.858,17.31c0.24,3.03-0.18,5.13-1.68,8.79   c-2.58,6.21-2.43,9.99,0.45,11.7c2.818,1.648,11.22,1.648,14.46,0.028c4.62-2.368,7.62-9.328,9.51-22.108   c2.79-18.9,1.5-31.71-4.56-45.24c-5.19-11.64-11.07-16.71-19.71-17.04C798,370.86,796.26,370.92,795.75,371.07z" style="stroke:black;fill:#BFDAE3"/><path id="180623552" parent_id="180608862" order="72" structure_id="1" d="M887.7,457.26c-2.25,2.852-4.38,5.102-7.2,7.59   c-1.62,1.472-3.12,2.972-3.33,3.36c-0.21,0.36-0.6,0.69-0.84,0.69c-0.271,0-1.771,0.93-3.33,2.068c-3.6,2.67-7.17,4.8-9.36,5.58   l-1.738,0.63l-2.46,4.11c-4.472,7.439-8.58,12.479-16.32,20.04c-11.16,10.89-19.47,16.08-30.18,18.87   c-1.472,0.39-2.642,0.84-2.642,1.02c0.03,0.182,2.28,7.74,5.07,16.83c4.62,15.21,5.069,16.5,5.7,16.59   c1.108,0.182,11.068-4.948,15.898-8.158c19.05-12.66,30.9-28.352,41.04-54.33c3.57-9.182,11.49-33.842,11.49-35.852   C889.5,455.61,888.63,456.09,887.7,457.26z" style="stroke:black;fill:#BFDAE3"/><path id="180623552" parent_id="180608862" order="73" structure_id="1" d="M883.83,500.19   c-5.82,11.698-13.05,22.47-21.21,31.528c-1.47,1.62-2.79,3.12-2.94,3.33c-0.358,0.48,32.67,55.352,33.33,55.352   c0.602,0,6.21-3.75,11.4-7.62c11.55-8.58,21.75-18.271,30.78-29.28c5.79-7.08,14.31-18.72,14.31-19.56   c0-0.392-61.38-38.882-62.43-39.15C886.68,494.67,885.96,495.87,883.83,500.19z" style="stroke:black;fill:#BFDAE3"/><path id="180623552" parent_id="180608862" order="74" structure_id="1" d="M817.95,560.73   c-1.142,0.3-3.392,0.778-4.95,1.02c-1.56,0.27-2.88,0.51-2.88,0.54c-0.39,0.54-27.42,54.21-27.42,54.45   c0,0.42,0.51,0.568,4.438,1.229c5.58,0.96,9.602,1.262,16.53,1.262c8.04,0,14.43-0.57,22.32-2.012   c2.278-0.42,2.608-0.568,2.608-1.108c0-0.33-1.56-12.87-3.448-27.87c-1.892-14.972-3.45-27.45-3.45-27.69   C821.7,559.95,820.62,560.01,817.95,560.73z" style="stroke:black;fill:#BFDAE3"/><path id="180623552" parent_id="180608862" order="75" structure_id="1" d="M858.54,536.07   c-0.18,0.54-7.62,7.318-10.74,9.84c-1.74,1.38-4.5,3.42-6.148,4.53c-4.052,2.698-11.82,6.568-16.052,7.979   c-1.89,0.66-3.54,1.26-3.658,1.351c-0.24,0.211,6.778,56.341,7.078,56.641c0.422,0.45,12.12-2.58,19.5-5.07   c9.69-3.21,17.222-6.33,27.33-11.34c8.67-4.29,16.5-8.73,16.5-9.36c0-0.238-7.35-12.688-16.35-27.63   C860.52,537.27,858.99,534.9,858.54,536.07z" style="stroke:black;fill:#BFDAE3"/><path id="180623552" parent_id="180608862" order="76" structure_id="1" d="M903.15,445.11   c-1.142,4.83-2.521,9.658-4.71,16.5c-1.021,3.18-1.771,5.85-1.71,5.908c0.18,0.212,60.988,18.182,61.438,18.182   c0.6,0,0.36-0.602-1.32-3.392c-1.59-2.64-2.55-5.01-2.55-6.328c0.03-0.99,1.05-2.94,1.98-3.842c0.479-0.42,2.699-1.83,4.92-3.12   c5.398-3.06,7.14-4.288,9.84-6.84c2.16-2.068,4.86-5.46,4.86-6.148c0-0.182-0.302-0.392-0.66-0.48   c-1.23-0.27-70.83-13.95-71.04-13.95C904.08,441.6,903.6,443.19,903.15,445.11z" style="stroke:black;fill:#BFDAE3"/><path id="180623552" parent_id="180608862" order="77" structure_id="1" d="M896.25,468.36   c-0.09,0.21-1.56,4.38-3.3,9.238c-1.771,4.86-3.87,10.592-4.71,12.69c-0.84,2.16-1.38,3.96-1.26,4.11   c0.51,0.479,62.068,38.79,62.55,38.908c0.6,0.182,2.938-3.51,5.85-9.06c3.36-6.45,4.68-10.62,5.851-18.3   c1.051-7.08,0.449-14.91-1.471-18.63l-0.568-1.11l-30.722-9.09c-16.89-5.01-31.02-9.12-31.41-9.12   C896.7,468,896.31,468.18,896.25,468.36z" style="stroke:black;fill:#BFDAE3"/><path id="180623552" parent_id="180608862" order="78" structure_id="1" d="M906.45,415.41   c0,10.648-0.15,12.688-1.562,21.18c-0.42,2.58-0.72,4.771-0.658,4.8c0.238,0.182,70.92,14.012,71.578,14.012   c0.512,0,0.812-0.45,1.592-2.342c1.438-3.42,4.29-12.21,5.55-17.01c1.858-7.2,4.5-21.45,4.05-21.84   c-0.09-0.06-17.76-2.04-39.3-4.38s-39.63-4.32-40.2-4.41l-1.05-0.15V415.41z" style="stroke:black;fill:#BFDAE3"/><path id="180623552" parent_id="180608862" order="79" structure_id="1" d="M785.28,320.31   c-0.45,1.14-0.99,2.79-1.23,3.69c-0.6,2.22-0.568,6.57,0.03,8.73c0.479,1.65,0.51,1.71,1.71,1.86c2.4,0.33,6.69,1.74,9.81,3.24   c6.66,3.18,12.03,7.5,18.632,15c2.25,2.55,5.188,5.82,6.568,7.32c7.47,8.04,10.892,12.96,15.03,21.6   c5.52,11.49,8.16,21.96,8.82,34.8c0.778,14.91-3.602,34.62-10.86,49.05c-1.2,2.37-2.19,4.5-2.19,4.682   c0,1.02,13.921,5.398,15.392,4.83c1.319-0.512,7.08-8.642,9.93-14.012c3.99-7.59,6.57-16.92,8.16-29.64   c0.93-7.47,0.99-21.63,0.15-29.76c-1.11-10.35-6.092-22.2-14.972-35.7c-11.64-17.64-23.16-28.8-39.87-38.67   c-7.38-4.35-15.93-7.92-20.79-8.7C786.12,318.06,786.21,318.03,785.28,320.31z" style="stroke:black;fill:#BFDAE3"/><path id="180623552" parent_id="180608862" order="80" structure_id="1" d="M802.92,298.38   c-2.25,1.35-2.729,1.83-6.93,6.57c-4.95,5.58-9.392,11.7-9.392,12.93c0,0.21,0.842,0.39,2.04,0.51c3.63,0.3,11.852,3.36,17.73,6.57   c12.06,6.6,22.56,14.58,29.76,22.62c14.13,15.78,25.47,35.34,28.44,49.08c1.05,4.89,1.38,9.75,1.38,19.74   c-0.03,7.14-0.15,10.5-0.57,13.8c-1.05,8.64-3.24,18.75-5.1,23.64c-2.37,6.15-6.69,13.68-10.71,18.57c-1.92,2.37-2.13,3-1.08,3.24   c1.71,0.358,5.818,0.778,9.51,0.93l4.05,0.18l4.05-7.14c10.44-18.48,15.271-30.39,17.432-43.021   c0.898-5.278,1.14-17.04,0.449-22.92c-1.439-12.42-4.439-20.88-11.311-31.979c-6.15-9.93-9.09-16.02-10.2-21.06   c-0.898-4.2-1.648-5.49-6.12-10.59c-1.02-1.17-2.43-3.12-3.119-4.35c-1.681-2.88-3.329-5.07-4.529-5.94   c-0.63-0.48-1.8-0.84-3.66-1.14c-5.311-0.87-7.65-2.58-10.59-7.8c-1.83-3.27-5.13-6.69-9-9.3c-1.471-1.02-5.46-3.99-8.852-6.57   c-8.278-6.39-10.14-7.65-11.1-7.65C805.08,297.3,803.91,297.78,802.92,298.38z" style="stroke:black;fill:#BFDAE3"/><path id="180623552" parent_id="180608862" order="81" structure_id="1" d="M802.92,298.38   c-2.25,1.35-2.729,1.83-6.93,6.57c-4.95,5.58-9.392,11.7-9.392,12.93c0,0.21,0.842,0.39,2.04,0.51c3.63,0.3,11.852,3.36,17.73,6.57   c12.06,6.6,22.56,14.58,29.76,22.62c14.13,15.78,25.47,35.34,28.44,49.08c1.05,4.89,1.38,9.75,1.38,19.74   c-0.03,7.14-0.15,10.5-0.57,13.8c-1.05,8.64-3.24,18.75-5.1,23.64c-2.37,6.15-6.69,13.68-10.71,18.57c-1.92,2.37-2.13,3-1.08,3.24   c1.71,0.358,5.818,0.778,9.51,0.93l4.05,0.18l4.05-7.14c10.44-18.48,15.271-30.39,17.432-43.021   c0.898-5.278,1.14-17.04,0.449-22.92c-1.439-12.42-4.439-20.88-11.311-31.979c-6.15-9.93-9.09-16.02-10.2-21.06   c-0.898-4.2-1.648-5.49-6.12-10.59c-1.02-1.17-2.43-3.12-3.119-4.35c-1.681-2.88-3.329-5.07-4.529-5.94   c-0.63-0.48-1.8-0.84-3.66-1.14c-5.311-0.87-7.65-2.58-10.59-7.8c-1.83-3.27-5.13-6.69-9-9.3c-1.471-1.02-5.46-3.99-8.852-6.57   c-8.278-6.39-10.14-7.65-11.1-7.65C805.08,297.3,803.91,297.78,802.92,298.38z" style="stroke:black;fill:#BFDAE3"/><path id="180623552" parent_id="180608862" order="82" structure_id="1" d="M815.7,297.36c0,0.21,1.318,1.11,2.938,1.98   c10.052,5.43,21.9,14.19,30.302,22.38c8.79,8.58,14.46,16.29,21.81,29.58c1.771,3.21,4.41,7.8,5.85,10.2   c6.03,10.05,10.021,19.44,12.45,29.52c1.8,7.29,2.011,9.33,2.16,19.83c0.36,22.95-1.89,34.86-9.24,49.021   c-2.13,4.109-2.37,4.83-1.648,4.83c0.66,0,6.989-6.75,8.55-9.12c1.26-1.95,1.5-2.58,2.22-6.062c5.04-24.18,4.08-47.068-3.09-74.7   c-4.08-15.69-11.28-30.69-21.6-44.82c-6.302-8.67-17.012-21.24-18.932-22.2c-2.278-1.17-13.26-5.4-19.38-7.47   C819.12,297.3,815.7,296.49,815.7,297.36z" style="stroke:black;fill:#BFDAE3"/><path id="180623552" parent_id="180608862" order="83" structure_id="1" d="M807.54,296.46c-0.63,0.18-1.14,0.45-1.14,0.63   c0.028,0.21,0.81,0.87,1.738,1.47c0.932,0.63,4.142,3,7.11,5.31s7.08,5.37,9.12,6.81c6,4.23,8.64,7.02,11.13,11.76   c1.89,3.6,4.71,5.37,9.479,6.03c1.619,0.24,2.729,0.57,3.511,1.11c1.26,0.84,3.63,3.87,5.01,6.48c0.51,0.93,2.13,3.09,3.57,4.8   c3.778,4.32,4.47,5.61,5.64,10.26c0.84,3.3,1.41,4.8,3.69,9.33c1.47,2.97,4.17,7.83,6.028,10.8c5.49,8.85,7.74,13.89,9.722,21.6   c1.438,5.55,2.22,11.37,2.46,17.7c0.63,18.602-4.142,33.932-18.36,58.892c-1.89,3.328-3.45,6.27-3.45,6.51   c0,1.56,5.19-1.2,11.88-6.3c2.67-2.04,3.091-2.49,4.682-5.16c6.06-10.11,9.448-19.98,10.89-31.682   c0.66-5.25,1.14-18.688,0.93-24.93c-0.568-16.26-5.159-30.69-15.028-46.98c-1.32-2.22-3.15-5.4-4.052-7.05   c-10.59-19.74-20.188-31.17-36.238-43.23c-6.69-5.04-13.86-9.57-20.19-12.75c-3.18-1.59-3.75-1.77-5.28-1.74   C809.43,296.16,808.14,296.31,807.54,296.46z" style="stroke:black;fill:#BFDAE3"/><path id="180623552" parent_id="180608862" order="84" structure_id="1" d="M944.91,372.15   c-22.92,3.18-41.73,5.88-41.82,5.97c-0.12,0.09,0.24,2.79,0.75,5.97c1.021,6.12,1.68,11.64,2.13,17.4   c0.15,1.95,0.33,3.6,0.392,3.63c0.119,0.12,80.729,8.88,80.818,8.79c0.15-0.15,1.32-12.54,1.62-17.312   c0.392-5.91,0.48-24.418,0.15-27.99l-0.21-2.31l-1.11,0.03C987.03,366.33,967.8,368.97,944.91,372.15z" style="stroke:black;fill:#BFDAE3"/><path id="180623552" parent_id="180608862" order="85" structure_id="1" d="M937.95,336.99   c-23.76,7.26-43.26,13.23-43.32,13.29c-0.03,0.03,0.602,1.95,1.41,4.23c2.58,7.11,4.95,15.27,6.51,22.5   c0.12,0.45,0.392,0.69,0.812,0.69c0.84,0,85.229-11.7,85.38-11.82c0.148-0.18-0.812-10.26-1.472-15.39   c-1.408-11.04-4.77-26.82-5.64-26.76C981.36,323.76,961.71,329.7,937.95,336.99z" style="stroke:black;fill:#BFDAE3"/><path id="180623552" parent_id="180608862" order="86" structure_id="1" d="M916.74,294.24   c-21.42,12.48-38.91,22.86-38.94,23.07c0,0.18,0.96,1.95,2.13,3.9c4.771,7.89,9.36,16.83,12.722,24.69   c0.93,2.22,1.77,4.11,1.8,4.14c0.06,0.06,19.68-5.85,43.62-13.17c43.108-13.14,43.528-13.29,43.528-14.04   c0-1.65-3.658-12.72-6.42-19.53c-2.04-4.92-6.09-12.72-9.33-17.91c-3.479-5.55-9.42-13.89-9.869-13.89   C955.8,271.5,938.13,281.73,916.74,294.24z" style="stroke:black;fill:#BFDAE3"/><path id="180623552" parent_id="180608862" order="87" structure_id="1" d="M898.32,271.53   c-18.96,14.55-34.5,26.55-34.562,26.7c-0.06,0.15,1.021,1.65,2.432,3.33c3.18,3.9,6.479,8.37,9.09,12.24   c1.41,2.13,2.16,3,2.52,2.94c0.721-0.12,78-45.33,78-45.63c0-0.3-5.97-7.77-10.05-12.51c-6.15-7.2-11.97-13.5-12.45-13.5   C933.03,245.1,917.31,256.98,898.32,271.53z" style="stroke:black;fill:#BFDAE3"/><path id="180623552" parent_id="180608862" order="88" structure_id="1" d="M822.27,211.53   c-11.46,22.32-20.85,40.71-20.908,40.89c-0.03,0.18,1.38,1.05,3.148,1.95c21.42,10.62,39.78,23.76,54.21,38.82   c4.591,4.77,4.682,4.83,5.4,4.41c2.188-1.35,68.85-52.71,68.88-53.07c0-0.6-11.76-12.21-18.3-18.062   c-14.46-12.93-30.75-26.31-46.2-37.979c-11.79-8.91-24.06-17.49-24.99-17.49C843.24,171,835.62,185.52,822.27,211.53z" style="stroke:black;fill:#BFDAE3"/><path id="180623552" parent_id="180608862" order="89" structure_id="1" d="M768.75,260.91c-8.4,0.99-14.16,2.7-28.8,8.64   c-8.91,3.6-10.53,4.08-13.95,4.11c-1.92,0-2.28,0.12-3.84,1.11c-3.36,2.19-6.63,6-8.76,10.23c-2.342,4.62-2.61,7.08-1.23,11.04   c2.25,6.48,7.32,11.07,14.311,13.02c2.069,0.57,3.119,0.66,8.369,0.66c6.54,0,8.73-0.3,14.312-1.95c4.2-1.26,8.13-2.88,14.88-6.15   c3.24-1.56,6.84-3.12,7.95-3.42c6.358-1.77,22.05-2.67,30.21-1.77c2.608,0.3,3.42,0.3,5.85-0.18c2.7-0.51,2.97-0.51,5.76,0   c5.91,1.05,16.41,4.41,27.211,8.73c4.979,2.01,5.579,2.16,5.579,1.53c0-0.57-10.71-11.55-13.89-14.19   c-9.18-7.71-20.1-14.7-33.66-21.57C783.09,262.68,775.26,260.13,768.75,260.91z" style="stroke:black;fill:#BFDAE3"/><path id="180623552" parent_id="180608862" order="90" structure_id="1" d="M764.25,135.06   c-0.93,2.46-29.25,87.81-29.25,88.14c0,0.3,2.7,1.53,8.49,3.87c18.028,7.26,42.06,17.79,52.2,22.89c2.64,1.29,4.979,2.34,5.22,2.28   c0.54-0.12,42.18-81.15,41.97-81.69c-0.148-0.39-5.76-3.9-12.33-7.71c-13.05-7.56-29.37-15.24-44.819-21.06   c-6.989-2.64-20.011-7.08-20.819-7.08C764.61,134.7,764.31,134.88,764.25,135.06z" style="stroke:black;fill:#BFDAE3"/><path id="180623552" parent_id="180608862" order="91" structure_id="1" d="M676.2,157.29   c-5.521,22.29-10.08,40.77-10.142,41.04c-0.09,0.36,0.45,0.69,2.102,1.29c7.02,2.64,20.49,7.35,30.54,10.68   c11.79,3.93,20.16,6.93,29.938,10.8c3.03,1.17,5.642,2.1,5.852,2.01c0.42-0.18,29.729-87.99,29.52-88.5   c-0.239-0.66-17.398-5.46-30.18-8.43c-15.9-3.72-44.521-9.48-46.95-9.48C686.28,116.7,685.59,119.37,676.2,157.29z" style="stroke:black;fill:#BFDAE3"/><path id="180623552" parent_id="180608862" order="92" structure_id="1" d="M636,233.43   c-10.47,10.89-19.08,20.04-19.14,20.34c-0.062,0.42,0.93,0.78,5.55,2.1c12.99,3.72,21.66,6.93,30.75,11.37   c3.27,1.56,5.97,2.82,6.03,2.729c0.06-0.06,2.158-10.17,4.68-22.47l4.56-22.35l-1.59-1.47c-0.87-0.81-3.63-3.42-6.12-5.76   c-2.58-2.46-4.8-4.32-5.1-4.32C655.23,213.6,648.12,220.8,636,233.43z" style="stroke:black;fill:#BFDAE3"/><path id="180623552" parent_id="180608862" order="93" structure_id="1" d="M668.01,227.91   c-0.24,1.14-2.31,11.13-4.59,22.26c-2.85,13.92-4.02,20.28-3.78,20.37c1.2,0.39,8.16,5.4,12.21,8.79   c7.352,6.12,11.58,10.56,16.95,17.67c6.33,8.4,9.66,12.27,14.88,17.43c7.71,7.53,18.062,15.36,24.812,18.75   c4.05,2.04,9.21,3.66,9.21,2.88c0-0.12-0.72-0.99-1.59-1.92c-1.95-2.04-3.512-4.92-4.592-8.49c-0.75-2.4-0.84-3.18-0.84-7.05   c-0.028-4.08,0.03-4.47,0.812-6.33c0.45-1.08,0.81-2.07,0.81-2.16c0-0.12-0.568-0.21-1.26-0.21c-2.1,0-6.21-1.14-8.94-2.46   c-2.068-0.99-3.028-1.71-5.13-3.81c-2.85-2.85-4.5-5.7-5.52-9.45c-0.54-1.95-0.54-2.13-0.03-4.17c1.08-4.62,4.979-10.77,8.76-13.86   c0.99-0.78,1.95-1.5,2.13-1.56c0.69-0.27,0.421-0.96-0.42-1.14c-5.55-1.2-10.92-3.84-14.88-7.35   c-1.83-1.62-10.38-10.83-18.81-20.25c-6.84-7.65-18.78-19.95-19.38-19.95C668.61,225.9,668.25,226.8,668.01,227.91z" style="stroke:black;fill:#BFDAE3"/><path id="180623552" parent_id="180608862" order="94" structure_id="1" d="M648.78,114.36   c-0.15,1.5-4.98,76.14-4.98,76.86c0,0.09,0.24,0.18,0.511,0.18c0.899,0,5.489,1.5,13.319,4.38c4.26,1.56,7.83,2.82,7.98,2.82   c0.27,0,20.64-81.84,20.43-82.08c-0.18-0.15-13.89-2.07-18.99-2.64c-4.59-0.51-15.239-1.38-17.01-1.38h-1.08L648.78,114.36z" style="stroke:black;fill:#BFDAE3"/><path id="180623552" parent_id="180608862" order="95" structure_id="1" d="M622.8,112.08   c-4.229,0.18-12.39,0.72-13.438,0.93c-0.9,0.15-0.99,0.271-0.9,0.96c0.15,0.72,30.45,77.73,30.72,78.03   c0.09,0.06,0.45-0.06,0.812-0.3c0.358-0.24,1.35-0.51,2.16-0.6l1.5-0.15l2.46-37.8c1.35-20.79,2.46-38.43,2.46-39.18   c0.028-1.38,0.028-1.38-1.08-1.56C646.11,112.2,626.4,111.93,622.8,112.08z" style="stroke:black;fill:#BFDAE3"/><path id="180623552" parent_id="180608862" order="96" structure_id="1" d="M604.2,113.58   c-10.74,1.56-21.66,4.71-29.4,8.4c-9.99,4.8-16.89,11.07-20.97,19.02c-1.71,3.33-3.3,7.98-2.88,8.37   c0.358,0.3,86.49,42.33,87.24,42.54c0.358,0.12,0.51,0,0.479-0.39c0-0.33-6.93-18.06-15.36-39.42   c-10.38-26.19-15.51-38.85-15.81-38.88C607.26,113.19,605.76,113.34,604.2,113.58z" style="stroke:black;fill:#BFDAE3"/><path id="180623552" parent_id="180608862" order="97" structure_id="1" d="M550.08,151.86   c-2.76,12.21-3.99,26.64-3.18,38.19c0.18,2.97,0.39,5.43,0.42,5.49c0.06,0.03,20.79,1.53,46.108,3.36   c25.32,1.8,46.802,3.36,47.762,3.45c1.14,0.12,1.71,0.06,1.71-0.15c0-0.18-0.75-1.2-1.65-2.31c-1.92-2.31-2.64-4.17-2.37-6.09   l0.15-1.35l-43.682-21.3c-24.028-11.73-43.948-21.33-44.25-21.39C550.68,149.67,550.47,150.06,550.08,151.86z" style="stroke:black;fill:#BFDAE3"/><path id="180623552" parent_id="180608862" order="98" structure_id="1" d="M547.62,197.88   c0.12,1.11,0.54,3.63,0.93,5.64c3.36,16.89,11.97,31.38,22.32,37.53c3.479,2.07,5.82,2.85,18.63,6.12   c6.51,1.65,14.94,3.81,18.72,4.8c3.78,1.021,7.17,1.83,7.5,1.83c0.45,0,6.33-5.91,19.98-20.13   c10.648-11.07,19.38-20.31,19.438-20.52c0.092-0.33-2.64-2.94-8.58-8.22l-2.488-2.22l-47.16-3.39   c-25.95-1.89-47.67-3.42-48.33-3.42h-1.17L547.62,197.88z" style="stroke:black;fill:#BFDAE3"/><path id="180623552" parent_id="180608862" order="99" structure_id="1" d="M572.7,254.88c-0.42,0.06-1.771,0.27-3,0.45   c-7.74,1.14-14.852,5.4-19.47,11.67c-4.41,6-5.521,10.17-5.91,22.2c-0.271,8.28,0.568,22.38,1.38,23.7   c0.45,0.72,1.2,0.03,2.819-2.49c4.171-6.48,4.921-8.91,5.279-17.31c0.271-6.84,0.78-9.63,2.16-12.51c1.71-3.54,4.53-5.67,10.2-7.71   c12.33-4.47,25.89-4.59,44.55-0.48c20.311,4.5,38.94,13.62,54.9,26.85c6.75,5.61,17.938,17.04,27.658,28.32   c6.182,7.17,7.352,8.13,9.9,8.13c1.83,0,3.63-0.84,3.63-1.65c0-1.89-9.66-16.08-18.898-27.81c-3.66-4.65-12-13.11-17.521-17.82   c-10.38-8.82-18.3-13.89-28.26-18.09c-10.92-4.59-23.101-8.34-39.87-12.33c-12.21-2.91-13.02-3.03-21.45-3.15   C576.75,254.79,573.12,254.79,572.7,254.88z" style="stroke:black;fill:#BFDAE3"/><path id="180623552" parent_id="180608862" order="100" structure_id="1" d="M583.2,269.58   c-6.812,0.54-12.21,1.62-17.521,3.54c-3.96,1.44-5.608,2.4-7.35,4.23c-3.062,3.24-3.84,5.85-4.23,14.31   c-0.148,3.42-0.479,7.17-0.72,8.31c-0.57,2.67-1.859,5.76-3.6,8.55c-0.75,1.23-1.38,2.34-1.38,2.52c0,0.42,1.08,0.66,3.028,0.66   c1.17,0,2.102-0.21,3.21-0.78c2.58-1.29,3.392-2.52,5.312-8.16c3.359-9.96,6.688-14.91,11.67-17.31   c7.92-3.81,21.33-3.15,40.439,1.98c16.859,4.53,30.391,10.59,44.939,20.22c19.29,12.72,37.86,30.66,49.59,47.88   c2.76,4.02,5.91,9.78,6.54,11.88c0.391,1.35,0.96,1.65,1.44,0.75c0.148-0.27,0.42-1.77,0.63-3.3c0.99-7.2-1.021-16.2-5.73-25.8   c-2.37-4.8-2.01-4.56-4.8-3.48c-2.67,1.02-4.74-0.21-9.24-5.43c-10.14-11.85-21.84-24.03-28.648-29.85   c-17.94-15.27-38.79-24.93-62.88-29.1C597.18,270.03,587.34,269.25,583.2,269.58z" style="stroke:black;fill:#BFDAE3"/><path id="180623552" parent_id="180608862" order="101" structure_id="1" d="M713.34,369.57c-0.12-2.1-0.3-2.67-1.83-5.76c-4.92-9.87-16.38-24.09-28.858-35.73   c-18.602-17.34-38.762-30.09-58.2-36.78c-23.22-7.98-43.5-10.23-52.771-5.85c-2.278,1.08-3.87,2.43-5.67,4.83   c-2.278,3.03-3.87,6.3-5.729,11.73c-1.92,5.7-2.222,6.3-3.63,7.53c-2.28,2.04-4.892,2.82-7.17,2.16l-1.32-0.36l-1.142,1.26   c-1.858,2.04-2.76,2.34-6.868,2.34c-0.054,0-0.1,0-0.15-0.001v25.868c4.604,0.001,9.199-0.261,15.9-0.787   c12.3-0.96,27.93-1.2,32.85-0.48c6.06,0.87,11.58,2.91,15.66,5.79c3.03,2.16,9.96,8.4,14.398,12.99   c11.07,11.4,17.762,22.17,20.49,32.94c0.45,1.8,0.87,3.3,0.96,3.39c0.24,0.24,12.3,1.62,17.04,1.95   c6.3,0.421,12.602,0.392,12.602-0.09c0-0.18-0.632-0.63-1.44-0.96c-2.01-0.81-5.25-4.2-7.17-7.44c-1.53-2.61-2.79-5.64-5.82-13.86   c-4.14-11.25-10.71-23.07-17.85-32.1c-5.25-6.63-13.021-13.62-19.2-17.28c-6-3.57-16.53-8.73-21.57-10.62   c-5.608-2.1-8.938-2.73-16.02-3.12c-5.73-0.33-7.5-0.87-9.66-3.03c-4.229-4.23-1.38-8.7,6.63-10.41c2.07-0.45,3.87-0.54,9.75-0.51   c6.36,0,7.74,0.09,11.88,0.81c16.53,2.82,32.04,9.3,45.841,19.2c13.649,9.81,29.311,25.92,40.859,42c3.21,4.5,5.58,8.46,8.19,13.71   c3.54,7.11,5.188,12.48,4.77,15.57c-0.12,0.81-0.06,1.23,0.181,1.23c0.449,0,4.079-2.25,6.091-3.78   C710.52,381.93,713.67,375.48,713.34,369.57z" style="stroke:black;fill:#BFDAE3"/><path id="180623552" parent_id="180608862" order="102" structure_id="1" d="M581.67,297.3   c-2.82,0.27-6.57,1.08-8.189,1.8c-5.881,2.49-5.25,8.88,1.079,11.1c1.23,0.42,3.092,0.66,7.021,0.87   c9.78,0.57,16.56,2.82,29.82,9.87c10.108,5.37,13.35,7.71,19.68,13.98c11.31,11.28,19.41,24.9,26.399,44.43   c2.399,6.75,5.609,12.24,8.461,14.52c3.21,2.52,6.18,3.09,12.3,2.31c6.358-0.81,12.93-2.61,18.18-4.95   c2.43-1.11,2.7-1.65,2.46-4.92c-0.42-5.91-5.88-17.43-12.81-27.06c-10.95-15.27-25.352-30.33-38.37-40.2   c-7.98-6.03-16.352-10.77-25.5-14.49C608.19,298.92,593.1,296.22,581.67,297.3z" style="stroke:black;fill:#BFDAE3"/><path id="180623552" parent_id="180608862" order="103" structure_id="1" d="M713.34,369.57c-0.12-2.1-0.3-2.67-1.83-5.76c-4.92-9.87-16.38-24.09-28.858-35.73   c-18.602-17.34-38.762-30.09-58.2-36.78c-23.22-7.98-43.5-10.23-52.771-5.85c-2.278,1.08-3.87,2.43-5.67,4.83   c-2.278,3.03-3.87,6.3-5.729,11.73c-1.92,5.7-2.222,6.3-3.63,7.53c-2.28,2.04-4.892,2.82-7.17,2.16l-1.32-0.36l-1.142,1.26   c-1.858,2.04-2.76,2.34-6.868,2.34c-0.054,0-0.1,0-0.15-0.001v25.868c4.604,0.001,9.199-0.261,15.9-0.787   c12.3-0.96,27.93-1.2,32.85-0.48c6.06,0.87,11.58,2.91,15.66,5.79c3.03,2.16,9.96,8.4,14.398,12.99   c11.07,11.4,17.762,22.17,20.49,32.94c0.45,1.8,0.87,3.3,0.96,3.39c0.24,0.24,12.3,1.62,17.04,1.95   c6.3,0.421,12.602,0.392,12.602-0.09c0-0.18-0.632-0.63-1.44-0.96c-2.01-0.81-5.25-4.2-7.17-7.44c-1.53-2.61-2.79-5.64-5.82-13.86   c-4.14-11.25-10.71-23.07-17.85-32.1c-5.25-6.63-13.021-13.62-19.2-17.28c-6-3.57-16.53-8.73-21.57-10.62   c-5.608-2.1-8.938-2.73-16.02-3.12c-5.73-0.33-7.5-0.87-9.66-3.03c-4.229-4.23-1.38-8.7,6.63-10.41c2.07-0.45,3.87-0.54,9.75-0.51   c6.36,0,7.74,0.09,11.88,0.81c16.53,2.82,32.04,9.3,45.841,19.2c13.649,9.81,29.311,25.92,40.859,42c3.21,4.5,5.58,8.46,8.19,13.71   c3.54,7.11,5.188,12.48,4.77,15.57c-0.12,0.81-0.06,1.23,0.181,1.23c0.449,0,4.079-2.25,6.091-3.78   C710.52,381.93,713.67,375.48,713.34,369.57z" style="stroke:black;fill:#BFDAE3"/><path id="180623552" parent_id="180608862" order="104" structure_id="1" d="M639.3,391.59c-2.068-8.28-6.6-16.83-13.53-25.44c-5.25-6.54-16.89-17.79-21.778-21.03   c-9.21-6.12-19.5-7.14-48.24-4.86c-5.472,0.436-10.604,0.653-15.75,0.652v5.168c4.38,0,11.61,0,16.05,0   c6.271,0,8.88,0.12,11.55,0.54c8.342,1.26,14.312,3.45,20.7,7.59c7.562,4.92,12.36,10.68,17.4,20.94   c2.16,4.35,4.77,11.22,4.8,12.51c0,1.23,3.06,2.76,7.83,3.96c4.86,1.23,20.91,3.33,21.45,2.82   C639.87,394.32,639.66,393.06,639.3,391.59z" style="stroke:black;fill:#BFDAE3"/><path id="180623552" parent_id="180608862" order="105" structure_id="1" d="M579.03,352.41   c-2.972,5.7-7.682,11.7-14.852,18.87c-6.54,6.54-11.488,10.68-17.52,14.67c-1.53,1.02-2.16,1.62-2.04,1.92   c0.09,0.27,0.359,1.11,0.66,1.89l0.479,1.44h10.41c19.38,0,40.83-1.35,51.21-3.18c2.22-0.42,2.82-0.63,2.82-1.02   c0-0.81-1.92-6.24-3.45-9.66c-1.71-3.93-5.13-9.81-7.44-12.87c-2.31-3.09-7.079-7.59-10.17-9.66c-3.06-2.04-7.62-4.41-8.46-4.41   C580.2,350.4,579.78,350.91,579.03,352.41z" style="stroke:black;fill:#BFDAE3"/><path id="180623552" parent_id="180608862" order="106" structure_id="1" d="M726.27,384.6c-2.158-3.06-5.488-8.01-7.408-11.01c-1.92-3.03-3.69-5.49-3.87-5.49c-0.63,0-1.2,1.26-1.41,3   c-0.6,4.83-2.521,9.18-5.49,12.33c-6.33,6.72-19.319,11.97-32.55,13.2c-5.64,0.51-20.04,0.18-26.34-0.6   c-2.73-0.36-8.521-1.05-12.9-1.53c-12.66-1.41-18.06-2.43-21.96-4.05c-2.37-0.99-3.24-1.2-3.24-0.78c0,0.18,0.33,1.32,0.75,2.55   c1.29,3.838,0.9,8.49-0.988,12c-1.86,3.42-4.92,5.91-10.892,8.82c-4.979,2.43-7.29,4.86-12.988,13.53   c-4.23,6.42-10.682,17.37-11.461,19.41c-0.989,2.67-0.931,3.63,0.359,5.55c2.521,3.72,4.62,9.18,4.62,12.12   c0,1.89-1.41,7.56-2.37,9.63c-2.88,6.12-8.97,8.7-18.6,7.89c-2.19-0.18-3.812-0.21-3.84-0.06c-0.45,1.35-2.762,4.56-4.592,6.42   c-2.398,2.398-3.988,3.18-5.58,2.79c-0.778-0.21-0.81-0.182-0.63,0.75c0.302,1.438,1.53,4.41,4.262,10.229   c3.118,6.63,3.84,8.49,4.738,12c1.562,5.94,1.86,8.46,1.83,15c0,5.37-0.09,6.45-0.66,8.55c-0.75,2.7-2.398,6.392-3.568,7.892   c-0.45,0.6-0.69,1.229-0.602,1.59c0.148,0.563-0.12,0.57-10.89,0.541v17.137c2.938,0,5.878,0.098,6.87,0.292   c1.56,0.3,1.59,0.3,8.22-2.58c18.45-7.979,17.61-7.71,23.76-8.34c12.842-1.38,24.33-1.26,30.21,0.271   c1.62,0.42,1.71,0.39,3.722-0.45c3-1.23,4.56-1.41,5.58-0.602c1.198,0.932,1.528,2.521,0.96,4.53c-0.78,2.79-0.812,2.97-0.42,2.97   c0.21,0,1.318-0.898,2.488-1.979c1.171-1.08,3.421-2.91,4.98-4.08c1.59-1.17,3.688-2.85,4.68-3.69   c2.521-2.188,4.352-3.448,4.95-3.448c0.36,0,0.57-0.33,0.69-1.142c0.3-1.71,2.13-4.5,5.278-7.92c1.562-1.71,4.17-4.77,5.852-6.81   c4.858-5.971,6.6-7.95,7.59-8.58c0.6-0.391,1.29-1.352,1.979-2.852c4.021-8.55,11.222-15.18,20.521-18.898   c5.189-2.07,10.17-2.61,14.97-1.65c2.91,0.63,4.59,1.352,6.062,2.67c0.658,0.602,1.26,1.08,1.38,1.08c0.09,0,0.96-0.54,1.92-1.17   c2.13-1.438,4.108-2.13,5.64-1.95l1.17,0.15l2.221-3.99c1.229-2.188,4.711-7.979,7.739-12.898c3.03-4.892,5.49-9.092,5.49-9.36   c0-0.66-0.24-0.6-2.76,0.39c-5.61,2.222-10.682,3.15-16.892,3.12c-7.14-0.029-10.619-1.108-13.26-4.108   c-1.438-1.65-2.1-3.45-2.55-6.961c-0.9-7.409,2.34-13.171,8.31-14.789l1.2-0.302l0.03-5.79c0.06-9.06,2.49-26.729,5.13-37.29   c1.71-6.81,2.82-9.75,4.08-10.829c2.61-2.22,7.41-3.18,10.62-2.101c2.01,0.66,3.84,2.07,4.77,3.66c0.42,0.72,0.9,1.32,1.052,1.32   c0.148,0,0.75-0.512,1.318-1.17c1.29-1.41,3.271-2.312,5.79-2.61c1.352-0.15,1.86-0.33,1.86-0.66   C733.2,394.83,730.71,390.93,726.27,384.6z M557.94,546.51c-0.48,0.062-1.2,0.062-1.65,0c-0.48-0.06-0.09-0.12,0.81-0.12   C558,546.39,558.39,546.45,557.94,546.51z M612.84,485.79c3.48-2.07,6.99-2.37,10.71-0.96c2.22,0.84,4.65,3.15,5.19,4.95   c0.898,3.06,0.12,6.51-1.95,8.818c-1.5,1.682-2.729,2.25-5.91,2.671c-5.49,0.779-8.01,0.301-10.229-1.921   C606.75,495.42,607.83,488.73,612.84,485.79z M566.07,499.95c1.89-4.08,8.1-6.48,11.76-4.562c2.43,1.29,4.32,4.71,4.68,8.46   c0.3,3.15-0.81,5.25-3.479,6.602c-5.55,2.79-11.49,0.63-13.08-4.74C565.35,503.67,565.38,501.42,566.07,499.95z M585.99,548.7   c-8.34,5.52-19.65,5.608-22.26,0.21c-1.172-2.43-0.57-4.65,2.038-7.41c2.49-2.67,6.302-4.47,10.86-5.1   c2.73-0.392,7.11-0.092,9.42,0.63c3.09,0.96,4.95,2.91,4.95,5.278C591,544.38,589.32,546.51,585.99,548.7z M655.11,514.44   c-3.45,8.04-7.98,11.67-16.562,13.26c-3.6,0.66-10.77,0.688-20.7,0.03c-13.59-0.87-33.27-2.4-35.488-2.7   c-2.312-0.33-3.45-1.142-4.83-3.45c-1.71-2.85-1.352-4.59,1.2-5.88c2.31-1.2,19.14-6.51,28.47-9.03c11.188-3,30.63-6.39,37.35-6.54   c0.84,0,2.34,0.18,3.392,0.42c3.688,0.87,6.448,2.79,7.738,5.4C656.82,508.29,656.64,510.96,655.11,514.44z" style="stroke:black;fill:#BFDAE3"/><path id="180623552" parent_id="180608862" order="107" structure_id="1" d="M726.27,384.6c-2.158-3.06-5.488-8.01-7.408-11.01c-1.92-3.03-3.69-5.49-3.87-5.49c-0.63,0-1.2,1.26-1.41,3   c-0.6,4.83-2.521,9.18-5.49,12.33c-6.33,6.72-19.319,11.97-32.55,13.2c-5.64,0.51-20.04,0.18-26.34-0.6   c-2.73-0.36-8.521-1.05-12.9-1.53c-12.66-1.41-18.06-2.43-21.96-4.05c-2.37-0.99-3.24-1.2-3.24-0.78c0,0.18,0.33,1.32,0.75,2.55   c1.29,3.838,0.9,8.49-0.988,12c-1.86,3.42-4.92,5.91-10.892,8.82c-4.979,2.43-7.29,4.86-12.988,13.53   c-4.23,6.42-10.682,17.37-11.461,19.41c-0.989,2.67-0.931,3.63,0.359,5.55c2.521,3.72,4.62,9.18,4.62,12.12   c0,1.89-1.41,7.56-2.37,9.63c-2.88,6.12-8.97,8.7-18.6,7.89c-2.19-0.18-3.812-0.21-3.84-0.06c-0.45,1.35-2.762,4.56-4.592,6.42   c-2.398,2.398-3.988,3.18-5.58,2.79c-0.778-0.21-0.81-0.182-0.63,0.75c0.302,1.438,1.53,4.41,4.262,10.229   c3.118,6.63,3.84,8.49,4.738,12c1.562,5.94,1.86,8.46,1.83,15c0,5.37-0.09,6.45-0.66,8.55c-0.75,2.7-2.398,6.392-3.568,7.892   c-0.45,0.6-0.69,1.229-0.602,1.59c0.148,0.563-0.12,0.57-10.89,0.541v17.137c2.938,0,5.878,0.098,6.87,0.292   c1.56,0.3,1.59,0.3,8.22-2.58c18.45-7.979,17.61-7.71,23.76-8.34c12.842-1.38,24.33-1.26,30.21,0.271   c1.62,0.42,1.71,0.39,3.722-0.45c3-1.23,4.56-1.41,5.58-0.602c1.198,0.932,1.528,2.521,0.96,4.53c-0.78,2.79-0.812,2.97-0.42,2.97   c0.21,0,1.318-0.898,2.488-1.979c1.171-1.08,3.421-2.91,4.98-4.08c1.59-1.17,3.688-2.85,4.68-3.69   c2.521-2.188,4.352-3.448,4.95-3.448c0.36,0,0.57-0.33,0.69-1.142c0.3-1.71,2.13-4.5,5.278-7.92c1.562-1.71,4.17-4.77,5.852-6.81   c4.858-5.971,6.6-7.95,7.59-8.58c0.6-0.391,1.29-1.352,1.979-2.852c4.021-8.55,11.222-15.18,20.521-18.898   c5.189-2.07,10.17-2.61,14.97-1.65c2.91,0.63,4.59,1.352,6.062,2.67c0.658,0.602,1.26,1.08,1.38,1.08c0.09,0,0.96-0.54,1.92-1.17   c2.13-1.438,4.108-2.13,5.64-1.95l1.17,0.15l2.221-3.99c1.229-2.188,4.711-7.979,7.739-12.898c3.03-4.892,5.49-9.092,5.49-9.36   c0-0.66-0.24-0.6-2.76,0.39c-5.61,2.222-10.682,3.15-16.892,3.12c-7.14-0.029-10.619-1.108-13.26-4.108   c-1.438-1.65-2.1-3.45-2.55-6.961c-0.9-7.409,2.34-13.171,8.31-14.789l1.2-0.302l0.03-5.79c0.06-9.06,2.49-26.729,5.13-37.29   c1.71-6.81,2.82-9.75,4.08-10.829c2.61-2.22,7.41-3.18,10.62-2.101c2.01,0.66,3.84,2.07,4.77,3.66c0.42,0.72,0.9,1.32,1.052,1.32   c0.148,0,0.75-0.512,1.318-1.17c1.29-1.41,3.271-2.312,5.79-2.61c1.352-0.15,1.86-0.33,1.86-0.66   C733.2,394.83,730.71,390.93,726.27,384.6z M557.94,546.51c-0.48,0.062-1.2,0.062-1.65,0c-0.48-0.06-0.09-0.12,0.81-0.12   C558,546.39,558.39,546.45,557.94,546.51z M612.84,485.79c3.48-2.07,6.99-2.37,10.71-0.96c2.22,0.84,4.65,3.15,5.19,4.95   c0.898,3.06,0.12,6.51-1.95,8.818c-1.5,1.682-2.729,2.25-5.91,2.671c-5.49,0.779-8.01,0.301-10.229-1.921   C606.75,495.42,607.83,488.73,612.84,485.79z M566.07,499.95c1.89-4.08,8.1-6.48,11.76-4.562c2.43,1.29,4.32,4.71,4.68,8.46   c0.3,3.15-0.81,5.25-3.479,6.602c-5.55,2.79-11.49,0.63-13.08-4.74C565.35,503.67,565.38,501.42,566.07,499.95z M585.99,548.7   c-8.34,5.52-19.65,5.608-22.26,0.21c-1.172-2.43-0.57-4.65,2.038-7.41c2.49-2.67,6.302-4.47,10.86-5.1   c2.73-0.392,7.11-0.092,9.42,0.63c3.09,0.96,4.95,2.91,4.95,5.278C591,544.38,589.32,546.51,585.99,548.7z M655.11,514.44   c-3.45,8.04-7.98,11.67-16.562,13.26c-3.6,0.66-10.77,0.688-20.7,0.03c-13.59-0.87-33.27-2.4-35.488-2.7   c-2.312-0.33-3.45-1.142-4.83-3.45c-1.71-2.85-1.352-4.59,1.2-5.88c2.31-1.2,19.14-6.51,28.47-9.03c11.188-3,30.63-6.39,37.35-6.54   c0.84,0,2.34,0.18,3.392,0.42c3.688,0.87,6.448,2.79,7.738,5.4C656.82,508.29,656.64,510.96,655.11,514.44z" style="stroke:black;fill:#BFDAE3"/><path id="180623552" parent_id="180608862" order="108" structure_id="1" d="M726.27,384.6c-2.158-3.06-5.488-8.01-7.408-11.01c-1.92-3.03-3.69-5.49-3.87-5.49c-0.63,0-1.2,1.26-1.41,3   c-0.6,4.83-2.521,9.18-5.49,12.33c-6.33,6.72-19.319,11.97-32.55,13.2c-5.64,0.51-20.04,0.18-26.34-0.6   c-2.73-0.36-8.521-1.05-12.9-1.53c-12.66-1.41-18.06-2.43-21.96-4.05c-2.37-0.99-3.24-1.2-3.24-0.78c0,0.18,0.33,1.32,0.75,2.55   c1.29,3.838,0.9,8.49-0.988,12c-1.86,3.42-4.92,5.91-10.892,8.82c-4.979,2.43-7.29,4.86-12.988,13.53   c-4.23,6.42-10.682,17.37-11.461,19.41c-0.989,2.67-0.931,3.63,0.359,5.55c2.521,3.72,4.62,9.18,4.62,12.12   c0,1.89-1.41,7.56-2.37,9.63c-2.88,6.12-8.97,8.7-18.6,7.89c-2.19-0.18-3.812-0.21-3.84-0.06c-0.45,1.35-2.762,4.56-4.592,6.42   c-2.398,2.398-3.988,3.18-5.58,2.79c-0.778-0.21-0.81-0.182-0.63,0.75c0.302,1.438,1.53,4.41,4.262,10.229   c3.118,6.63,3.84,8.49,4.738,12c1.562,5.94,1.86,8.46,1.83,15c0,5.37-0.09,6.45-0.66,8.55c-0.75,2.7-2.398,6.392-3.568,7.892   c-0.45,0.6-0.69,1.229-0.602,1.59c0.148,0.563-0.12,0.57-10.89,0.541v17.137c2.938,0,5.878,0.098,6.87,0.292   c1.56,0.3,1.59,0.3,8.22-2.58c18.45-7.979,17.61-7.71,23.76-8.34c12.842-1.38,24.33-1.26,30.21,0.271   c1.62,0.42,1.71,0.39,3.722-0.45c3-1.23,4.56-1.41,5.58-0.602c1.198,0.932,1.528,2.521,0.96,4.53c-0.78,2.79-0.812,2.97-0.42,2.97   c0.21,0,1.318-0.898,2.488-1.979c1.171-1.08,3.421-2.91,4.98-4.08c1.59-1.17,3.688-2.85,4.68-3.69   c2.521-2.188,4.352-3.448,4.95-3.448c0.36,0,0.57-0.33,0.69-1.142c0.3-1.71,2.13-4.5,5.278-7.92c1.562-1.71,4.17-4.77,5.852-6.81   c4.858-5.971,6.6-7.95,7.59-8.58c0.6-0.391,1.29-1.352,1.979-2.852c4.021-8.55,11.222-15.18,20.521-18.898   c5.189-2.07,10.17-2.61,14.97-1.65c2.91,0.63,4.59,1.352,6.062,2.67c0.658,0.602,1.26,1.08,1.38,1.08c0.09,0,0.96-0.54,1.92-1.17   c2.13-1.438,4.108-2.13,5.64-1.95l1.17,0.15l2.221-3.99c1.229-2.188,4.711-7.979,7.739-12.898c3.03-4.892,5.49-9.092,5.49-9.36   c0-0.66-0.24-0.6-2.76,0.39c-5.61,2.222-10.682,3.15-16.892,3.12c-7.14-0.029-10.619-1.108-13.26-4.108   c-1.438-1.65-2.1-3.45-2.55-6.961c-0.9-7.409,2.34-13.171,8.31-14.789l1.2-0.302l0.03-5.79c0.06-9.06,2.49-26.729,5.13-37.29   c1.71-6.81,2.82-9.75,4.08-10.829c2.61-2.22,7.41-3.18,10.62-2.101c2.01,0.66,3.84,2.07,4.77,3.66c0.42,0.72,0.9,1.32,1.052,1.32   c0.148,0,0.75-0.512,1.318-1.17c1.29-1.41,3.271-2.312,5.79-2.61c1.352-0.15,1.86-0.33,1.86-0.66   C733.2,394.83,730.71,390.93,726.27,384.6z M557.94,546.51c-0.48,0.062-1.2,0.062-1.65,0c-0.48-0.06-0.09-0.12,0.81-0.12   C558,546.39,558.39,546.45,557.94,546.51z M612.84,485.79c3.48-2.07,6.99-2.37,10.71-0.96c2.22,0.84,4.65,3.15,5.19,4.95   c0.898,3.06,0.12,6.51-1.95,8.818c-1.5,1.682-2.729,2.25-5.91,2.671c-5.49,0.779-8.01,0.301-10.229-1.921   C606.75,495.42,607.83,488.73,612.84,485.79z M566.07,499.95c1.89-4.08,8.1-6.48,11.76-4.562c2.43,1.29,4.32,4.71,4.68,8.46   c0.3,3.15-0.81,5.25-3.479,6.602c-5.55,2.79-11.49,0.63-13.08-4.74C565.35,503.67,565.38,501.42,566.07,499.95z M585.99,548.7   c-8.34,5.52-19.65,5.608-22.26,0.21c-1.172-2.43-0.57-4.65,2.038-7.41c2.49-2.67,6.302-4.47,10.86-5.1   c2.73-0.392,7.11-0.092,9.42,0.63c3.09,0.96,4.95,2.91,4.95,5.278C591,544.38,589.32,546.51,585.99,548.7z M655.11,514.44   c-3.45,8.04-7.98,11.67-16.562,13.26c-3.6,0.66-10.77,0.688-20.7,0.03c-13.59-0.87-33.27-2.4-35.488-2.7   c-2.312-0.33-3.45-1.142-4.83-3.45c-1.71-2.85-1.352-4.59,1.2-5.88c2.31-1.2,19.14-6.51,28.47-9.03c11.188-3,30.63-6.39,37.35-6.54   c0.84,0,2.34,0.18,3.392,0.42c3.688,0.87,6.448,2.79,7.738,5.4C656.82,508.29,656.64,510.96,655.11,514.44z" style="stroke:black;fill:#BFDAE3"/></g></g></svg>
