<svg xmlns="http://www.w3.org/2000/svg" width="3024px" height="3024px"><g transform="scale(1.0)"><g id="180608862" order="1" parent_id="" graphic_group_label_id="28" graphic_group_label="Atlas - Adult Rat" sub_image_id="100960468" transform=" scale(1.0, 1.0)"><path id="180623552" parent_id="180608862" order="0" structure_id="1" d="M960.39,388.05c0.03-4.29-0.147-9.63-0.357-11.85c-1.771-18.99-6.813-38.76-16.8-65.76   c-4.593-12.42-7.922-20.22-12.87-30.09c-11.94-23.91-25.2-41.82-48.33-65.31c-7.771-7.89-22.5-22.11-27.45-26.49   c-32.67-28.86-84.66-53.43-135.84-64.17c-42.9-9.03-79.59-10.59-111.69-4.8c-16.17,2.91-28.59,8.25-36.42,15.6   c-6.42,6.03-13.319,16.5-16.05,24.36c-2.04,5.88-2.43,8.73-2.43,17.91c0,8.31,0.237,11.22,1.38,16.95   c2.67,13.44,10.14,24.78,21.27,32.22c3.21,2.16,16.65,10.02,22.86,13.41c5.7,3.09,5.608,3.66-0.42,2.1   c-10.65-2.76-21.54-1.38-32.49,4.05c-9.899,4.95-16.47,11.31-20.55,20.01c-1.5,3.18-3.15,7.98-3.479,10.11   c-0.173,1.033-0.413,1.393-0.721,1.111V691.48c1.51,0.021,2.992-0.576,3.99-1.75c1.08-1.29,1.26-2.223,0.81-3.99   c-0.18-0.813-0.3-1.563-0.21-1.62c0.091-0.09,1.86,0.39,3.932,1.05c6.421,2.1,9.539,2.76,13.711,2.94   c8.85,0.39,25.56-1.563,36.72-4.263c13.979-3.357,25.08-9.06,36-18.479c3.51-3.03,8.851-8.46,11.43-11.67   c4.71-5.79,8.61-13.353,11.91-22.95c3-8.79,3.75-14.4,2.37-17.88c-0.75-1.891-3.03-4.29-4.562-4.83   c-0.511-0.15-0.898-0.51-0.898-0.811c0-0.869,4.05-8.762,7.021-13.682c6-9.93,9.029-16.74,13.83-31.2   c4.771-14.369,6.841-18.93,13.892-30.6c11.88-19.68,13.89-23.28,19.528-35.13c13.83-29.04,23.312-54.721,26.609-71.971   c2.221-11.609,0.15-27.512-5.97-45.602c-2.102-6.18-3.182-8.88-5.19-12.75c-4.26-8.37-11.489-17.16-16.438-20.01   c-2.012-1.14-2.671-2.19-1.352-2.19c0.899,0,2.55-1.8,2.939-3.18c0.479-1.8-0.24-3.93-1.771-5.34c-0.66-0.57-1.529-1.14-1.95-1.26   c-1.229-0.3-2.88,0.09-3.75,0.93c-1.648,1.59-1.648,1.53-1.021-6.51c0.24-3.39-1.26-9.96-3.78-16.29   c-0.989-2.52-1.107-3.15-0.479-3.15c1.02,0,6.54,9.33,17.52,29.55c3.12,5.76,7.74,14.07,10.23,18.45   c5.068,8.82,8.278,15.18,10.35,20.46c5.011,12.75,7.351,28.38,6.99,46.71c-0.21,11.58-1.229,19.261-3.812,28.681   c-1.92,6.932-3.811,11.671-9.358,23.25c-9.812,20.461-12.51,27.842-11.67,31.892c0.18,0.87,1.29,3.45,2.46,5.79   c2.489,4.92,2.43,4.41,1.83,14.068c-0.45,7.29-0.15,13.979,0.87,19.262c1.289,6.63,4.26,14.97,8.368,23.34   c4.859,9.84,7.62,12.93,17.552,19.5c6.84,4.53,8.188,5.819,9.148,8.7c1.352,4.05,4.649,7.229,10.649,10.198   c5.34,2.642,11.22,4.229,18.93,5.132c5.103,0.6,17.881,0.42,23.04-0.302c14.4-2.068,27.511-5.789,41.431-11.789   c19.409-8.399,34.319-18.602,49.802-34.109c13.318-13.32,23.58-27.3,30.898-42.03c4.439-8.97,5.55-12.24,7.619-22.35   c1.29-6.393,1.62-9.66,1.44-14.341c-0.182-4.802-0.603-6.631-2.67-11.46c-1.802-4.199-2.643-7.529-2.643-10.5   c0.03-4.262,0.841-6.302,4.62-11.312C953.73,439.05,960.36,415.86,960.39,388.05z" style="stroke:black;fill:#BFDAE3"/><path id="180623552" parent_id="180608862" order="1" structure_id="1" d="M545.28,235.41c-0.183-0.06-0.12-0.66,0.09-1.47c0.479-1.71,0.12-3.09-1.26-4.62   c-0.854-1-3.279-2.451-4.11-2.509v18.676c2.34-0.018,3.822-0.443,5.73-1.617C549.99,241.17,549.78,236.91,545.28,235.41z" style="stroke:black;fill:#BFDAE3"/><path id="180623552" parent_id="180608862" order="2" structure_id="1" d="M706.05,549.69   c-4.14,1.38-9.51,5.88-11.88,9.96c-2.31,3.987-3.18,9.777-1.86,12.33c1.143,2.13,2.673,2.697,5.521,2.039   c5.49-1.289,13.02-7.052,15.3-11.699c0.93-1.86,1.021-2.313,1.021-4.62c0-2.313-0.093-2.76-0.99-4.59   C711.57,549.93,709.05,548.7,706.05,549.69z" style="stroke:black;fill:#BFDAE3"/><path id="180623552" parent_id="180608862" order="3" structure_id="1" d="M708.24,573.78   c-5.13,0.93-10.893,3.84-15,7.59c-0.933,0.84-1.771,1.53-1.893,1.53c-0.117,0-0.688-0.42-1.29-0.933   c-4.438-3.93-10.35-2.397-15.21,3.933c-3.027,3.96-6.42,11.25-8.13,17.55c-2.52,9.21,0.75,21.479,6.603,24.897   c1.71,0.99,8.79,2.79,12.06,3.03c5.88,0.42,10.17-2.069,10.563-6.147c0.117-1.29,0.027-1.563-0.813-2.49   c-0.72-0.813-1.56-1.29-3.688-2.04c-7.5-2.61-10.44-5.25-10.44-9.48c0-3.51,1.95-10.618,4.05-14.79c1.2-2.43,1.95-2.788,1.95-0.96   c0,3.092,1.771,8.58,3.72,11.49c2.46,3.72,6.75,7.05,11.04,8.58c2.94,1.021,8.04,1.26,11.67,0.51   c7.41-1.47,15.9-6.658,18.36-11.188c2.55-4.71,2.25-12.78-0.75-18.9c-2.28-4.68-10.29-10.56-16.62-12.21   C712.35,573.21,711.3,573.21,708.24,573.78z" style="stroke:black;fill:#BFDAE3"/><path id="180623552" parent_id="180608862" order="4" structure_id="1" d="M649.2,197.16c0,0.9,2.067,2.52,13.2,10.29   c9.147,6.39,19.979,14.49,25.35,18.93c4.89,4.08,18.33,17.46,23.28,23.22c9.81,11.37,16.26,20.13,22.62,30.75   c1.8,2.97,4.17,6.75,5.25,8.4c9.147,13.65,17.487,19.71,25.35,18.45c3.24-0.51,3.57-0.69,12-5.85c10.71-6.57,15.3-8.13,20.61-7.02   c4.56,0.93,14.97,7.32,25.229,15.48c19.71,15.66,35.642,35.16,45.51,55.65c13.86,28.92,16.803,60.06,8.433,89.34   c-4.473,15.54-12.603,31.29-22.86,44.16c-8.55,10.71-18.78,17.64-30.51,20.61c-3.603,0.93-6.12,1.26-11.37,1.5   c-4.44,0.21-4.95,0.3-6.15,1.02c-1.407,0.813-2.76,2.521-3.09,3.87l-0.21,0.78l2.34,0.21c7.11,0.688,19.021-0.99,26.223-3.66   c8.067-3,13.17-6.75,20.43-15.03c14.64-16.68,25.05-36.54,30.36-57.84c2.52-10.02,3.479-17.37,3.688-28.17   c0.36-15.81-1.77-31.32-6.03-44.1c-4.68-14.04-12.447-28.77-23.067-43.65c-16.08-22.62-43.23-44.07-77.73-61.44   c-2.58-1.29-6.06-3.57-12.3-8.01c-15.24-10.89-26.64-18.27-36.66-23.67c-4.5-2.43-5.79-3.36-2.188-1.53   c9.237,4.65,22.5,13.14,39.567,25.32c5.881,4.2,8.763,6.03,12.603,8.01c27.479,14.31,46.41,27.69,62.729,44.4   c5.79,5.94,10.17,11.13,14.521,17.19c15.448,21.6,24.87,43.29,27.6,63.63c3.87,28.89,0.09,53.277-12.24,79.05   c-6,12.479-15.777,26.46-25.02,35.76c-9.392,9.45-22.59,14.19-39.57,14.19H801.9v1.229c0,1.8,1.08,2.76,3.84,3.392   c11.16,2.521,23.01,0.118,33.63-6.812c7.08-4.65,13.68-11.37,20.729-21.06c15.57-21.48,25.86-47.61,28.683-72.933   c0.63-5.817,0.897-20.04,0.45-26.37c-1.893-26.877-9.24-49.83-22.893-71.7c-7.47-11.94-14.46-20.85-23.79-30.42   c-12.357-12.63-22.647-20.82-53.49-42.6c-15.81-11.16-26.67-17.88-43.407-26.88c-19.71-10.62-50.82-24.57-65.4-29.34   C666.45,199.38,649.2,195.63,649.2,197.16z" style="stroke:black;fill:#BFDAE3"/><path id="180623552" parent_id="180608862" order="5" structure_id="1" d="M703.62,334.62c-1.65,0.72-2.22,1.8-2.22,4.17   v2.1l1.59,1.62c1.47,1.44,1.74,1.59,2.938,1.59c1.65,0,3.03-0.81,3.66-2.19c1.32-2.76-0.3-6.63-3.06-7.41   C705.15,334.11,704.76,334.14,703.62,334.62z" style="stroke:black;fill:#BFDAE3"/><path id="180623552" parent_id="180608862" order="6" structure_id="1" d="M649.2,197.16c0,0.9,2.067,2.52,13.2,10.29   c9.147,6.39,19.979,14.49,25.35,18.93c4.89,4.08,18.33,17.46,23.28,23.22c9.81,11.37,16.26,20.13,22.62,30.75   c1.8,2.97,4.17,6.75,5.25,8.4c9.147,13.65,17.487,19.71,25.35,18.45c3.24-0.51,3.57-0.69,12-5.85c10.71-6.57,15.3-8.13,20.61-7.02   c4.56,0.93,14.97,7.32,25.229,15.48c19.71,15.66,35.642,35.16,45.51,55.65c13.86,28.92,16.803,60.06,8.433,89.34   c-4.473,15.54-12.603,31.29-22.86,44.16c-8.55,10.71-18.78,17.64-30.51,20.61c-3.603,0.93-6.12,1.26-11.37,1.5   c-4.44,0.21-4.95,0.3-6.15,1.02c-1.407,0.813-2.76,2.521-3.09,3.87l-0.21,0.78l2.34,0.21c7.11,0.688,19.021-0.99,26.223-3.66   c8.067-3,13.17-6.75,20.43-15.03c14.64-16.68,25.05-36.54,30.36-57.84c2.52-10.02,3.479-17.37,3.688-28.17   c0.36-15.81-1.77-31.32-6.03-44.1c-4.68-14.04-12.447-28.77-23.067-43.65c-16.08-22.62-43.23-44.07-77.73-61.44   c-2.58-1.29-6.06-3.57-12.3-8.01c-15.24-10.89-26.64-18.27-36.66-23.67c-4.5-2.43-5.79-3.36-2.188-1.53   c9.237,4.65,22.5,13.14,39.567,25.32c5.881,4.2,8.763,6.03,12.603,8.01c27.479,14.31,46.41,27.69,62.729,44.4   c5.79,5.94,10.17,11.13,14.521,17.19c15.448,21.6,24.87,43.29,27.6,63.63c3.87,28.89,0.09,53.277-12.24,79.05   c-6,12.479-15.777,26.46-25.02,35.76c-9.392,9.45-22.59,14.19-39.57,14.19H801.9v1.229c0,1.8,1.08,2.76,3.84,3.392   c11.16,2.521,23.01,0.118,33.63-6.812c7.08-4.65,13.68-11.37,20.729-21.06c15.57-21.48,25.86-47.61,28.683-72.933   c0.63-5.817,0.897-20.04,0.45-26.37c-1.893-26.877-9.24-49.83-22.893-71.7c-7.47-11.94-14.46-20.85-23.79-30.42   c-12.357-12.63-22.647-20.82-53.49-42.6c-15.81-11.16-26.67-17.88-43.407-26.88c-19.71-10.62-50.82-24.57-65.4-29.34   C666.45,199.38,649.2,195.63,649.2,197.16z" style="stroke:black;fill:#BFDAE3"/><path id="180623552" parent_id="180608862" order="7" structure_id="1" d="M703.65,346.26   c-0.093,1.05-0.393,3.03-0.603,4.41c-0.42,2.49-0.42,2.55,0.33,3.9c0.392,0.75,2.01,3.12,3.57,5.28   c11.607,15.96,15.06,23.16,17.16,35.7c0.777,4.8,0.777,23.58,0,29.7c-0.75,5.76-1.83,10.65-3.24,14.79   c-1.142,3.39-1.5,6.06-0.96,7.41c0.09,0.3,0.99,1.05,1.979,1.68c1.44,0.93,2.103,1.17,3.183,1.17c2.76,0,4.05-1.647,5.88-7.47   c1.83-5.73,3.45-11.79,4.38-16.23c1.2-5.729,1.5-13.737,0.75-20.397c-1.17-10.29-4.59-23.46-8.91-34.26   c-4.35-10.95-12.45-21.63-19.56-25.83c-1.62-0.93-3.12-1.71-3.36-1.71C703.98,344.4,703.8,345,703.65,346.26z" style="stroke:black;fill:#BFDAE3"/><path id="180623552" parent_id="180608862" order="8" structure_id="1" d="M706.65,574.47   c-8.223,2.223-15.54,7.74-18.45,13.86c-0.813,1.71-0.9,2.22-0.9,4.65c0,10.17,4.38,17.55,12.72,21.447   c6.87,3.21,16.803,1.86,24.813-3.39c6.688-4.38,8.64-7.95,8.28-15.24c-0.303-5.88-1.95-10.14-5.223-13.56   c-2.397-2.46-7.229-5.79-10.527-7.17c-2.04-0.87-2.7-0.99-5.46-1.08C709.53,573.93,708.24,574.05,706.65,574.47z" style="stroke:black;fill:#BFDAE3"/><path id="180623552" parent_id="180608862" order="9" structure_id="1" d="M680.67,581.16   c-4.65,2.31-9.27,9.147-12.33,18.33c-1.62,4.857-2.04,7.02-2.04,10.74c0,7.68,2.88,15.27,6.69,17.64   c1.107,0.688,5.34,1.979,8.607,2.61c2.58,0.479,7.44,0.567,9.03,0.117c2.49-0.688,4.771-3.06,4.98-5.158   c0.237-2.432-0.303-2.909-5.91-5.069c-4.771-1.83-7.17-3.54-8.46-6.063c-0.54-1.107-0.603-1.59-0.45-4.26   c0.27-4.56,2.55-11.79,4.979-15.75c0.513-0.84,0.933-1.77,0.933-2.068c0-1.352,1.29-4.562,2.55-6.329   c0.72-1.08,1.35-2.25,1.35-2.58c0-0.723-1.5-2.013-3.147-2.7c-0.57-0.21-1.893-0.42-2.94-0.42   C682.95,580.2,682.23,580.38,680.67,581.16z" style="stroke:black;fill:#BFDAE3"/><path id="180623552" parent_id="180608862" order="10" structure_id="1" d="M542.31,227.88c-0.837-0.491-1.574-0.732-2.31-0.737v11.047c1.025,0.021,2.034-0.495,3.18-1.55   c1.71-1.56,2.223-2.55,2.223-4.23C545.4,230.76,544.2,228.96,542.31,227.88z" style="stroke:black;fill:#BFDAE3"/><path id="180623552" parent_id="180608862" order="11" structure_id="1" d="M594.51,409.41   c-0.12,0.09-0.21,0.51-0.21,0.87c0,0.87,1.08,1.26,1.71,0.63s0.24-1.71-0.63-1.71C595.02,409.2,594.6,409.29,594.51,409.41z" style="stroke:black;fill:#BFDAE3"/><path id="180623552" parent_id="180608862" order="12" structure_id="1" d="M546.9,236.25c-1.29-0.66-2.313-0.54-3.54,0.45c-1.368,1.099-2.367,1.576-3.36,1.547v7.002   c2.34,0,3.12-0.12,4.35-0.69c2.7-1.23,4.353-3.27,4.353-5.37C548.7,237.84,548.1,236.88,546.9,236.25z" style="stroke:black;fill:#BFDAE3"/><path id="180623552" parent_id="180608862" order="13" structure_id="1" d="M579.45,241.68   c-9.21,1.44-19.86,6.57-26.4,12.78c-5.729,5.43-9.357,11.73-11.64,20.34l-0.93,3.45l-0.12,12.45l-0.093,12.48l0.933,2.91   c0.897,2.82,0.96,2.91,1.83,2.91c1.527,0,2.85-0.75,3.27-1.83c0.3-0.75,0.45-4.17,0.603-12.27c0.27-13.47,0.777-18.69,2.58-25.47   c1.107-4.26,2.157-6,5.97-9.78c5.22-5.25,12.3-9.6,18.18-11.22c7.44-2.07,22.17-1.23,34.92,1.95c6.183,1.56,24.9,8.04,32.82,11.37   c4.979,2.1,11.58,5.4,15.18,7.56c4.563,2.76,8.19,5.7,13.2,10.74c15.9,15.87,26.521,34.08,27.6,47.34   c0.24,2.88,0.513,3.3,2.461,3.69c0.75,0.15,0.989,0.06,1.262-0.42c1.438-2.73-1.893-15.39-6.57-24.81   c-6.87-13.89-20.88-30.15-33.9-39.36c-6.63-4.68-15.72-9.48-23.46-12.36c-6.39-2.4-38.817-11.61-43.857-12.48   C589.98,241.08,583.14,241.11,579.45,241.68z" style="stroke:black;fill:#BFDAE3"/><path id="180623552" parent_id="180608862" order="14" structure_id="1" d="M708.12,471.72   c-2.521,0.48-3.78,1.08-4.563,2.19c-2.397,3.42-6.81,14.88-8.64,22.438c-1.14,4.683-1.14,8.16,0,10.44   c0.45,0.96,1.32,2.07,1.95,2.58c1.17,0.93,3.66,2.13,4.38,2.13c0.42,0,6.36-11.521,10.2-19.8c3.87-8.28,8.25-18.36,8.25-18.9   c0-0.33-0.36-0.688-0.96-0.897C717.24,471.36,710.61,471.24,708.12,471.72z" style="stroke:black;fill:#BFDAE3"/><path id="180623552" parent_id="180608862" order="15" structure_id="1" d="M611.55,607.77   c-0.54,0.513-11.37,7.41-15.6,9.933c-2.313,1.35-5.82,3.6-7.8,4.95c-6.093,4.197-9.03,5.369-13.263,5.31   c-1.737,0-2.487,0.09-2.487,0.33c0.027,0.72,5.97,5.01,6.93,5.01c0.3,0,0.6-0.33,0.689-0.778c0.448-1.802,4.561-4.92,16.229-12.329   c4.14-2.643,8.22-5.25,9.06-5.82c2.58-1.74,7.593-6,7.593-6.45C612.9,607.44,611.97,607.35,611.55,607.77z" style="stroke:black;fill:#BFDAE3"/><path id="180623552" parent_id="180608862" order="16" structure_id="1" d="M544.05,561.18   c-1.53,1.563-2.52,5.643-1.979,8.28c0.18,0.87,0.6,2.04,0.93,2.58c0.479,0.78,0.78,0.96,1.65,0.96c1.407,0,2.367-0.96,2.97-3.03   c0.93-3.06,0.45-6.777-1.021-8.37C545.67,560.61,544.8,560.46,544.05,561.18z" style="stroke:black;fill:#BFDAE3"/><path id="180623552" parent_id="180608862" order="17" structure_id="1" d="M597.24,437.4   c-0.03,0.147-1.59,1.617-3.45,3.21c-4.021,3.51-7.83,8.01-10.17,12.027c-3.603,6.24-5.46,8.521-8.13,10.021   c-1.41,0.78-1.62,1.08-2.433,3.03c-0.479,1.197-1.38,3.72-2.01,5.607c-1.02,3.12-2.52,6.72-4.92,11.853   c-0.99,2.1-3.18,5.1-4.74,6.447l-1.08,0.96l0.54,1.41c2.313,5.91,3.393,9.78,4.32,15.512c0.93,5.729,1.32,11.521,1.14,16.891   l-0.147,4.89l1.83-0.18c13.17-1.29,16.35-1.23,19.59,0.3c7.979,3.78,9.03,16.11,1.92,23.25c-4.05,4.08-6.21,4.563-31.26,7.021   c-1.143,0.117-2.04,0.33-2.04,0.479c0,0.18,0.6,1.563,1.35,3.09c4.2,8.61,4.17,19.74-0.03,30.54c-0.3,0.78-0.447,1.5-0.357,1.62   c0.12,0.09,1.26-0.24,2.55-0.72c4.38-1.71,13.26-3.603,21.39-4.62c4.2-0.51,18.15-0.51,21.75,0c6.45,0.93,11.61,2.31,16.353,4.32   c1.56,0.688,3.42,1.47,4.14,1.77c0.69,0.3,1.26,0.69,1.26,0.84c0,1.29,3.093-1.56,24.303-22.62   c19.947-19.8,27.147-26.46,32.34-29.907c1.71-1.172,2.01-1.53,3.569-4.44c0.931-1.74,3.238-5.729,5.131-8.85   c1.89-3.15,4.857-8.04,6.567-10.893c1.74-2.85,3.09-5.369,3-5.58c-0.09-0.21-0.81-0.567-1.62-0.75   c-3.987-1.02-15.119-6.027-19.47-8.76c-2.55-1.62-5.608-4.92-7.92-8.609c-1.08-1.681-2.76-4.318-3.72-5.851   c-1.563-2.46-1.771-2.939-1.74-4.229c0.09-4.44,7.47-14.07,12.75-16.62c2.13-1.021,6.271-2.16,7.95-2.16   c1.56,0,1.229-0.78-0.45-1.05c-6.78-0.99-34.229-6.842-41.16-8.73c-11.909-3.3-24.81-8.398-34.979-13.859   c-3.78-2.04-9.75-5.79-10.381-6.54C598.38,437.04,597.39,436.95,597.24,437.4z M611.43,484.92c1.263,0.24,6.723,1.92,12.15,3.72   c10.35,3.48,14.34,4.62,20.49,5.91c2.01,0.45,4.647,1.143,5.85,1.563c3.03,1.08,7.5,3.447,9.811,5.157   c2.521,1.923,5.972,5.553,6.689,7.053c0.51,1.08,0.51,1.229,0.09,2.13c-0.93,1.95-5.46,3.357-12.87,4.05   c-8.34,0.75-21.96-1.8-34.29-6.45c-8.938-3.357-16.68-8.7-18.6-12.81c-1.59-3.393-0.54-7.74,2.22-9.36   C605.28,484.53,607.71,484.26,611.43,484.92z M667.8,522.99c2.433,1.2,2.37,6.42-0.21,13.26c-1.59,4.29-3.479,7.74-5.07,9.3   c-2.55,2.521-7.59,4.62-13.77,5.73c-4.05,0.72-13.74,0.75-17.85,0.027c-7.32-1.26-12.15-3.357-15.633-6.81   c-3.3-3.24-3.93-5.58-2.67-9.66c2.4-7.8,9.933-10.83,24.393-9.78c3,0.21,8.43,0.393,12.06,0.393l6.603-0.03l4.197-1.229   C665.85,522.42,666.48,522.33,667.8,522.99z M627.45,560.22c2.91,0.78,5.01,2.223,6.09,4.23c0.72,1.35,0.66,4.5-0.15,6   c-1.407,2.7-4.89,4.95-9.479,6.21c-2.73,0.72-10.68,1.08-13.11,0.57c-4.59-0.963-7.5-3.69-7.5-7.08c0-4.2,4.74-7.593,13.353-9.603   C620.13,559.74,625.08,559.59,627.45,560.22z" style="stroke:black;fill:#BFDAE3"/><path id="180623552" parent_id="180608862" order="18" structure_id="1" d="M587.7,589.71   c-6.96,0.36-15.09,1.53-21.57,3.12c-2.82,0.689-3.93,1.08-3.93,1.38c0,0.39,0.78,0.42,5.34,0.271c17.64-0.57,43.14-0.423,49.38,0.3   c1.38,0.18,1.68,0.12,1.68-0.24c0-0.48-3.84-1.89-7.947-2.91C604.23,590.04,595.44,589.29,587.7,589.71z" style="stroke:black;fill:#BFDAE3"/><path id="180623552" parent_id="180608862" order="19" structure_id="1" d="M545.61,576.42c-0.603-1.71-2.223-3.81-3.54-4.47c-0.498-0.271-1.293-0.414-2.07-0.428v16.354   c2.314-0.015,4.7-1.665,5.61-4.019C546.3,582.03,546.3,578.49,545.61,576.42z" style="stroke:black;fill:#BFDAE3"/><path id="180623552" parent_id="180608862" order="20" structure_id="1" d="M548.7,604.05   c-2.73,0.21-5.13,0.393-5.313,0.42c-0.93,0.063-0.237,0.87,1.41,1.65c2.73,1.29,3.42,2.28,4.05,5.61   c0.271,1.56,0.57,3.537,0.66,4.38c0.15,1.26,0.3,1.59,0.69,1.59c0.33,0,0.659-0.36,0.84-0.84c0.96-2.67,3.688-4.65,7.05-5.04   c0.93-0.09,1.71-0.33,1.71-0.48c0-0.18-0.33-1.2-0.72-2.31c-0.391-1.08-0.87-2.761-1.08-3.723l-0.39-1.71l-1.98,0.03   C554.55,603.66,551.43,603.87,548.7,604.05z" style="stroke:black;fill:#BFDAE3"/><path id="180623552" parent_id="180608862" order="21" structure_id="1" d="M549.3,615.6c-0.87-6.27-1.107-7.08-2.188-7.979c-1.947-1.65-4.664-2.61-7.11-2.688v24.722   c4.896,0.048,8.294-1.019,9.33-2.954C550.08,625.29,550.08,621,549.3,615.6z" style="stroke:black;fill:#BFDAE3"/><path id="180623552" parent_id="180608862" order="22" structure_id="1" d="M542.7,683.25c-0.617-0.316-1.655-0.462-2.7-0.451v8.659c0.745,0.001,1.49-0.186,2.31-0.558   C545.49,689.46,545.73,684.81,542.7,683.25z" style="stroke:black;fill:#BFDAE3"/><path id="180623552" parent_id="180608862" order="23" structure_id="1" d="M672.69,430.53   c0.237,1.77,1.8,4.77,3.39,6.54c1.02,1.107,2.07,1.857,3.84,2.697c3,1.44,7.65,3.183,10.68,3.99   c4.143,1.11,12.603,0.99,12.603-0.18c0-0.21-1.86-0.87-4.71-1.65c-10.23-2.76-18.33-6.66-23.37-11.22   C673.11,428.88,672.45,428.85,672.69,430.53z" style="stroke:black;fill:#BFDAE3"/><path id="180623552" parent_id="180608862" order="24" structure_id="1" d="M649.2,197.16c0,0.9,2.067,2.52,13.2,10.29   c9.147,6.39,19.979,14.49,25.35,18.93c4.89,4.08,18.33,17.46,23.28,23.22c9.81,11.37,16.26,20.13,22.62,30.75   c1.8,2.97,4.17,6.75,5.25,8.4c9.147,13.65,17.487,19.71,25.35,18.45c3.24-0.51,3.57-0.69,12-5.85c10.71-6.57,15.3-8.13,20.61-7.02   c4.56,0.93,14.97,7.32,25.229,15.48c19.71,15.66,35.642,35.16,45.51,55.65c13.86,28.92,16.803,60.06,8.433,89.34   c-4.473,15.54-12.603,31.29-22.86,44.16c-8.55,10.71-18.78,17.64-30.51,20.61c-3.603,0.93-6.12,1.26-11.37,1.5   c-4.44,0.21-4.95,0.3-6.15,1.02c-1.407,0.813-2.76,2.521-3.09,3.87l-0.21,0.78l2.34,0.21c7.11,0.688,19.021-0.99,26.223-3.66   c8.067-3,13.17-6.75,20.43-15.03c14.64-16.68,25.05-36.54,30.36-57.84c2.52-10.02,3.479-17.37,3.688-28.17   c0.36-15.81-1.77-31.32-6.03-44.1c-4.68-14.04-12.447-28.77-23.067-43.65c-16.08-22.62-43.23-44.07-77.73-61.44   c-2.58-1.29-6.06-3.57-12.3-8.01c-15.24-10.89-26.64-18.27-36.66-23.67c-4.5-2.43-5.79-3.36-2.188-1.53   c9.237,4.65,22.5,13.14,39.567,25.32c5.881,4.2,8.763,6.03,12.603,8.01c27.479,14.31,46.41,27.69,62.729,44.4   c5.79,5.94,10.17,11.13,14.521,17.19c15.448,21.6,24.87,43.29,27.6,63.63c3.87,28.89,0.09,53.277-12.24,79.05   c-6,12.479-15.777,26.46-25.02,35.76c-9.392,9.45-22.59,14.19-39.57,14.19H801.9v1.229c0,1.8,1.08,2.76,3.84,3.392   c11.16,2.521,23.01,0.118,33.63-6.812c7.08-4.65,13.68-11.37,20.729-21.06c15.57-21.48,25.86-47.61,28.683-72.933   c0.63-5.817,0.897-20.04,0.45-26.37c-1.893-26.877-9.24-49.83-22.893-71.7c-7.47-11.94-14.46-20.85-23.79-30.42   c-12.357-12.63-22.647-20.82-53.49-42.6c-15.81-11.16-26.67-17.88-43.407-26.88c-19.71-10.62-50.82-24.57-65.4-29.34   C666.45,199.38,649.2,195.63,649.2,197.16z" style="stroke:black;fill:#BFDAE3"/><path id="180623552" parent_id="180608862" order="25" structure_id="1" d="M649.2,197.16c0,0.9,2.067,2.52,13.2,10.29   c9.147,6.39,19.979,14.49,25.35,18.93c4.89,4.08,18.33,17.46,23.28,23.22c9.81,11.37,16.26,20.13,22.62,30.75   c1.8,2.97,4.17,6.75,5.25,8.4c9.147,13.65,17.487,19.71,25.35,18.45c3.24-0.51,3.57-0.69,12-5.85c10.71-6.57,15.3-8.13,20.61-7.02   c4.56,0.93,14.97,7.32,25.229,15.48c19.71,15.66,35.642,35.16,45.51,55.65c13.86,28.92,16.803,60.06,8.433,89.34   c-4.473,15.54-12.603,31.29-22.86,44.16c-8.55,10.71-18.78,17.64-30.51,20.61c-3.603,0.93-6.12,1.26-11.37,1.5   c-4.44,0.21-4.95,0.3-6.15,1.02c-1.407,0.813-2.76,2.521-3.09,3.87l-0.21,0.78l2.34,0.21c7.11,0.688,19.021-0.99,26.223-3.66   c8.067-3,13.17-6.75,20.43-15.03c14.64-16.68,25.05-36.54,30.36-57.84c2.52-10.02,3.479-17.37,3.688-28.17   c0.36-15.81-1.77-31.32-6.03-44.1c-4.68-14.04-12.447-28.77-23.067-43.65c-16.08-22.62-43.23-44.07-77.73-61.44   c-2.58-1.29-6.06-3.57-12.3-8.01c-15.24-10.89-26.64-18.27-36.66-23.67c-4.5-2.43-5.79-3.36-2.188-1.53   c9.237,4.65,22.5,13.14,39.567,25.32c5.881,4.2,8.763,6.03,12.603,8.01c27.479,14.31,46.41,27.69,62.729,44.4   c5.79,5.94,10.17,11.13,14.521,17.19c15.448,21.6,24.87,43.29,27.6,63.63c3.87,28.89,0.09,53.277-12.24,79.05   c-6,12.479-15.777,26.46-25.02,35.76c-9.392,9.45-22.59,14.19-39.57,14.19H801.9v1.229c0,1.8,1.08,2.76,3.84,3.392   c11.16,2.521,23.01,0.118,33.63-6.812c7.08-4.65,13.68-11.37,20.729-21.06c15.57-21.48,25.86-47.61,28.683-72.933   c0.63-5.817,0.897-20.04,0.45-26.37c-1.893-26.877-9.24-49.83-22.893-71.7c-7.47-11.94-14.46-20.85-23.79-30.42   c-12.357-12.63-22.647-20.82-53.49-42.6c-15.81-11.16-26.67-17.88-43.407-26.88c-19.71-10.62-50.82-24.57-65.4-29.34   C666.45,199.38,649.2,195.63,649.2,197.16z" style="stroke:black;fill:#BFDAE3"/><path id="180623552" parent_id="180608862" order="26" structure_id="1" d="M608.4,599.13   c-12.33,1.26-28.2,6.03-39.631,11.853c-4.021,2.067-6.869,3.897-6.869,4.407c0,0.54,2.817,5.04,4.619,7.353   c3.148,4.107,5.578,5.37,9.778,5.067c3.36-0.21,6.36-1.5,11.13-4.77c2.223-1.5,6.33-4.11,9.12-5.79   c12.54-7.5,25.95-16.68,25.95-17.73c0-0.18-0.51-0.42-1.11-0.537C619.8,598.74,611.46,598.83,608.4,599.13z" style="stroke:black;fill:#BFDAE3"/><path id="180623552" parent_id="180608862" order="27" structure_id="1" d="M568.8,594.63   c-8.91,0.18-10.59,0.36-11.819,1.26c-0.511,0.393-0.538,0.603-0.181,3.093c0.813,5.938,3.96,15.72,5.04,15.72   c0.3,0,1.2-0.48,2.07-1.05c6.72-4.53,21.99-10.353,33.84-12.9c7.95-1.74,17.28-2.55,22.65-1.979c2.76,0.271,2.88,0.271,3.567-0.422   c2.19-2.13-2.04-3.27-14.04-3.75C601.95,594.27,583.47,594.3,568.8,594.63z" style="stroke:black;fill:#BFDAE3"/><path id="180623552" parent_id="180608862" order="28" structure_id="1" d="M558.75,491.73   c-1.44,0.96-4.08,2.25-5.85,2.817c-0.9,0.3-2.16,0.813-2.79,1.143c-0.96,0.479-1.473,0.567-3.091,0.39   c-1.199-0.12-1.922-0.09-1.922,0.09c0,0.3,0.603,1.68,2.25,5.28c1.44,3.06,3.45,9.688,4.053,13.26c0.688,3.9,0.777,9.33,0.27,12.84   c-0.18,1.261-0.27,2.37-0.148,2.46c0.238,0.24,14.25-0.688,14.521-0.96c0.12-0.12,0.24-2.79,0.3-5.938   c0.182-10.92-1.62-22.263-4.77-29.82C560.55,490.89,560.22,490.71,558.75,491.73z" style="stroke:black;fill:#BFDAE3"/><path id="180623552" parent_id="180608862" order="29" structure_id="1" d="M568.17,463.89c-1.89,0.54-4.02,1.83-4.86,3   c-0.42,0.513-1.38,2.433-2.157,4.263c-1.98,4.617-3.21,6.777-5.103,8.817c-2.28,2.46-3.99,3.15-7.2,2.94   c-2.938-0.18-3.72,0.18-4.857,2.13c-0.75,1.26-0.84,1.71-0.84,4.11c0,2.277,0.117,2.938,0.75,4.197c1.35,2.7,3.54,3.48,6.3,2.223   c0.75-0.33,2.43-1.021,3.72-1.5c5.79-2.13,10.771-6.99,12.93-12.63c0.393-1.053,1.17-2.853,1.771-3.99   c0.568-1.17,1.62-3.933,2.37-6.15c0.72-2.22,1.62-4.77,2.01-5.64c0.36-0.87,0.63-1.65,0.54-1.74   C573.18,463.56,569.43,463.53,568.17,463.89z" style="stroke:black;fill:#BFDAE3"/><path id="180623552" parent_id="180608862" order="30" structure_id="1" d="M548.76,447.9   c-6.12,2.79-10.317,16.47-7.95,25.92c0.96,3.93,3.303,7.229,5.94,8.46c1.74,0.84,4.05,0.96,4.05,0.27c0-0.24-0.12-0.45-0.24-0.45   c-0.147,0-1.077-0.84-2.13-1.89c-3.39-3.39-4.59-7.11-3.479-10.89c1.17-3.99,3.54-6.99,6.66-8.433c3.657-1.68,6.6-1.14,9.479,1.771   c0.96,0.96,1.891,1.739,2.07,1.739c0.81,0-0.66-5.699-2.34-9.119C557.61,448.89,552.93,446.01,548.76,447.9z" style="stroke:black;fill:#BFDAE3"/><path id="180623552" parent_id="180608862" order="31" structure_id="1" d="M574.77,344.07c-1.077-0.27-3.3-0.42-6.72-0.39c-4.35,0-5.938,0.15-10.77,0.99   c-5.58,0.96-5.73,0.99-10.143,0.66c-2.456-0.18-4.862-0.278-7.14-0.304v38.997c0.3,0.108,1.048,0.656,1.8,1.327   c1.83,1.62,2.433,1.95,5.82,3.03l2.64,0.87l1.563-1.65c5.79-6.24,12.777-15.24,16.68-21.42c4.8-7.68,7.14-13.62,7.65-19.41   l0.21-2.28L574.77,344.07z" style="stroke:black;fill:#BFDAE3"/><path id="180623552" parent_id="180608862" order="32" structure_id="1" d="M600.48,409.86   c-3.12,5.607-3.963,11.487-2.28,15.897c1.02,2.76,1.5,2.34,1.5-1.29s0.66-8.25,1.71-12.239c1.14-4.229,1.14-4.229,0.6-4.229   C601.74,408,601.08,408.81,600.48,409.86z" style="stroke:black;fill:#BFDAE3"/><path id="180623552" parent_id="180608862" order="33" structure_id="1" d="M571.71,533.13c-3.6,0.72-7.29,3.39-8.64,6.21   c-1.41,2.88-0.45,7.021,2.13,9.063c4.5,3.567,10.83,2.97,15.688-1.5c2.79-2.553,3.48-4.893,2.433-8.37   c-0.603-2.013-2.34-3.96-4.38-4.83C577.17,532.95,573.87,532.68,571.71,533.13z" style="stroke:black;fill:#BFDAE3"/><path id="180623552" parent_id="180608862" order="34" structure_id="1" d="M547.89,502.53l-0.688-1.44c-1.5-3.18-2.103-4.62-2.103-5.188c0-0.303-0.33-1.053-0.72-1.62   c-1.647-2.433-1.8-6.84-0.33-9.33c0.42-0.75,1.11-1.53,1.53-1.71c0.39-0.183,0.72-0.45,0.72-0.63c0-0.15-0.66-0.87-1.5-1.62   c-1.647-1.472-3.688-5.16-4.05-7.26c-0.131-0.75-0.462-1.231-0.75-1.281v33.933c2.354-0.005,4.724-0.851,6.51-2.533L547.89,502.53z   " style="stroke:black;fill:#BFDAE3"/><path id="180623552" parent_id="180608862" order="35" structure_id="1" d="M706.05,549.69   c-4.14,1.38-9.51,5.88-11.88,9.96c-2.31,3.987-3.18,9.777-1.86,12.33c0.99,1.89,1.893,2.31,4.32,2.157   c5.22-0.39,13.95-6.6,16.5-11.79c0.93-1.89,1.021-2.34,1.021-4.647c0-2.313-0.093-2.76-0.99-4.59   C711.57,549.93,709.05,548.7,706.05,549.69z" style="stroke:black;fill:#BFDAE3"/><path id="180623552" parent_id="180608862" order="36" structure_id="1" d="M560.25,583.62c0.39-2.46,0.48-4.32,0.36-7.47c-0.183-5.16-1.053-8.79-3.12-13.08l-1.44-2.973l-1.8,0.03   c-3.09,0.063-7.29,0.42-7.53,0.66c-0.12,0.12,0.09,0.84,0.48,1.62c1.92,3.84,0.479,10.59-2.25,10.59c-0.933,0-0.933,0.18,0,2.01   c2.04,3.96,1.53,9.063-1.143,11.4c-1.129,0.991-2.475,1.455-3.81,1.452v17.094c1.437,0.007,2.921-0.074,3.03-0.246   c0.12-0.149,3.357-0.479,7.198-0.72c3.869-0.271,7.079-0.51,7.142-0.57c0.06-0.06-0.12-1.59-0.42-3.45   c-0.33-2.25-0.42-3.567-0.21-3.987C558,593.13,559.71,587.22,560.25,583.62z" style="stroke:black;fill:#BFDAE3"/><path id="180623552" parent_id="180608862" order="37" structure_id="1" d="M583.05,528.09c-1.14-0.09-6.54,0.21-12,0.63c-16.77,1.29-27.357,1.98-31.05,1.98v29.934   c5.264-0.009,10.745-0.235,15.6-0.684c15.69-1.41,24.813-2.521,27.9-3.45c6.57-1.95,10.8-8.07,10.8-15.63   C594.3,533.55,589.92,528.57,583.05,528.09z M583.65,542.85c-0.78,2.67-2.73,4.65-6.42,6.54c-2.433,1.2-2.643,1.263-5.25,1.263   c-2.49,0-2.91-0.093-4.74-0.99c-4.353-2.13-6.12-6.3-4.29-10.17c1.26-2.761,4.53-5.313,7.92-6.271c1.95-0.54,5.7-0.51,7.26,0.03   c2.97,1.05,4.74,3,5.55,6.15C584.1,541.05,584.1,541.38,583.65,542.85z" style="stroke:black;fill:#BFDAE3"/><path id="180623552" parent_id="180608862" order="38" structure_id="1" d="M551.58,514.83c-0.84-4.68-3-11.73-3.69-11.94c-0.147-0.06-0.84,0.42-1.527,1.08   c-1.607,1.523-4.026,2.391-6.36,2.435v24.28c3.513,0.003,7.027-0.07,8.7-0.225l2.55-0.21l0.39-1.8   C552.24,525.78,552.21,518.25,551.58,514.83z" style="stroke:black;fill:#BFDAE3"/><path id="180623552" parent_id="180608862" order="39" structure_id="1" d="M553.2,460.38c-4.47,1.2-7.8,5.46-8.521,10.92   c-0.39,2.76,0.99,6,3.69,8.79c2.43,2.55,3.93,2.91,5.938,1.44c2.58-1.86,3.24-2.94,8.103-13.2l1.08-2.22l-0.57-1.053   C560.82,461.16,557.04,459.33,553.2,460.38z" style="stroke:black;fill:#BFDAE3"/><path id="180623552" parent_id="180608862" order="40" structure_id="1" d="M556.05,442.65   c-0.147,0.06-0.84,0.18-1.47,0.3c-0.87,0.147-1.62,0.63-2.94,1.857c-0.96,0.933-1.737,1.86-1.737,2.103   c0,0.27,0.447,0.39,1.59,0.39c2.91,0.03,5.46,1.8,7.979,5.55c0.813,1.23,1.893,3.271,2.37,4.563c0.87,2.25,1.86,6.3,1.86,7.59   c0,0.81,0.18,0.78,2.397-0.39c1.74-0.87,2.133-0.96,4.83-0.99c2.853-0.03,3-0.063,4.71-1.11c0.99-0.6,2.25-1.62,2.82-2.25   c1.562-1.738,3.54-4.738,3.54-5.397c0-0.66-1.32-2.521-2.729-3.841c-2.069-1.949-8.25-5.312-12.569-6.842   C563.61,443.07,557.43,442.17,556.05,442.65z" style="stroke:black;fill:#BFDAE3"/><path id="180623552" parent_id="180608862" order="41" structure_id="1" d="M562.95,435.87   c-1.143,0.3-2.58,0.75-3.15,1.05c-1.2,0.6-5.397,4.62-5.397,5.16c0,0.24,1.29,0.39,3.987,0.51c5.7,0.21,9.843,1.563,16.53,5.37   c2.73,1.56,6.3,4.62,6.63,5.67c0.36,1.08,1.143,0.48,2.61-1.979c1.62-2.73,4.02-5.73,6.78-8.49c1.02-1.05,1.857-2.07,1.857-2.28   c0-0.45-6.897-2.85-11.397-3.93C574.23,435.24,567.15,434.82,562.95,435.87z" style="stroke:black;fill:#BFDAE3"/><path id="180623552" parent_id="180608862" order="42" structure_id="1" d="M558.75,422.94c-1.44-3.063-3.27-5.07-5.73-6.271c-2.46-1.229-4.229-1.26-8.367-0.15   c-1.863,0.485-3.263,0.731-4.65,0.738v45.222c0.315,0.234,0.578-0.294,0.811-1.59c0.479-2.58,2.189-6.897,3.512-8.88   c0.63-0.96,2.31-2.729,3.75-3.96c3.09-2.607,11.34-11.43,12.147-13.02C561.57,432.45,561,427.65,558.75,422.94z" style="stroke:black;fill:#BFDAE3"/><path id="180623552" parent_id="180608862" order="43" structure_id="1" d="M598.92,427.74c-0.72-1.38-0.78-1.44-1.74-1.29c-1.737,0.33-2.31-1.71-0.6-2.13   c0.689-0.183,0.72-0.271,0.689-2.643c0-1.38,0.061-3.237,0.181-4.17c0.21-1.62,0.18-1.71-0.42-1.71c-0.42,0-0.63,0.183-0.63,0.57   c0,0.78-0.75,1.319-1.5,1.08c-0.631-0.21-0.66-0.3-0.723-1.8c-0.027-0.87-0.06-0.87-4.979-2.343   c-10.353-3.027-27.48-7.38-36.87-9.39l-2.55-0.54l-2.04,2.25c-1.11,1.229-2.521,3.12-3.09,4.229c-1.2,2.278-2.433,3.421-3.87,3.721   c-0.267,0.048-0.524,0.07-0.78,0.066v3.445c1.649,0.001,3.294-0.261,5.312-0.784c1.681-0.448,3.538-0.81,4.108-0.81   c3.12,0,7.05,2.85,8.97,6.51c2.67,5.102,3.45,9.9,2.04,12.813c-0.39,0.777-0.6,1.5-0.51,1.59c0.09,0.12,0.9-0.03,1.771-0.3   c6.42-2.013,15.21-1.08,27.117,2.938c2.19,0.75,4.29,1.352,4.683,1.352c1.17,0,5.397-4.592,6.06-6.569   C600.18,431.88,600,429.84,598.92,427.74z" style="stroke:black;fill:#BFDAE3"/><path id="180623552" parent_id="180608862" order="44" structure_id="1" d="M669.09,394.41   c-1.29,1.68-6.06,5.82-10.8,9.357c-17.97,13.44-38.4,21.33-55.17,21.33h-3.48l0.21,3.9l0.24,3.9l-0.99,1.979   c-0.688,1.44-0.867,2.04-0.63,2.34c0.183,0.21,1.44,1.143,2.82,2.07c10.229,6.87,25.8,13.648,41.88,18.24   c7.05,2.01,24.21,5.67,42.48,9.09c3.96,0.75,8.01,1.62,8.97,1.979c2.97,1.021,2.76,1.32,2.97-4.59c0.24-7.59,1.62-13.2,4.26-17.31   c1.32-2.13,1.353-2.521,0.093-2.28c-5.643,1.05-10.83,0.12-19.71-3.51c-3.03-1.23-4.021-1.8-5.463-3.15   c-2.037-1.89-3.96-5.34-4.56-8.31c-0.24-1.11-0.75-2.313-1.35-3.12c-2.07-2.852-3.36-9.21-3.36-16.83c0-4.95,0.48-7.59,2.22-12.45   c0.603-1.65,1.08-3.18,1.08-3.39C670.8,392.94,669.93,393.33,669.09,394.41z" style="stroke:black;fill:#BFDAE3"/><path id="180623552" parent_id="180608862" order="45" structure_id="1" d="M597.24,437.4   c-0.03,0.147-1.59,1.617-3.45,3.21c-4.021,3.51-7.83,8.01-10.17,12.027c-3.603,6.24-5.46,8.521-8.13,10.021   c-1.41,0.78-1.62,1.08-2.433,3.03c-0.479,1.197-1.38,3.72-2.01,5.607c-1.02,3.12-2.52,6.72-4.92,11.853   c-0.99,2.1-3.18,5.1-4.74,6.447l-1.08,0.96l0.54,1.41c2.313,5.91,3.393,9.78,4.32,15.512c0.93,5.729,1.32,11.521,1.14,16.891   l-0.147,4.89l1.83-0.18c13.17-1.29,16.35-1.23,19.59,0.3c7.979,3.78,9.03,16.11,1.92,23.25c-4.05,4.08-6.21,4.563-31.26,7.021   c-1.143,0.117-2.04,0.33-2.04,0.479c0,0.18,0.6,1.563,1.35,3.09c4.2,8.61,4.17,19.74-0.03,30.54c-0.3,0.78-0.447,1.5-0.357,1.62   c0.12,0.09,1.26-0.24,2.55-0.72c4.38-1.71,13.26-3.603,21.39-4.62c4.2-0.51,18.15-0.51,21.75,0c6.45,0.93,11.61,2.31,16.353,4.32   c1.56,0.688,3.42,1.47,4.14,1.77c0.69,0.3,1.26,0.69,1.26,0.84c0,1.29,3.093-1.56,24.303-22.62   c19.947-19.8,27.147-26.46,32.34-29.907c1.71-1.172,2.01-1.53,3.569-4.44c0.931-1.74,3.238-5.729,5.131-8.85   c1.89-3.15,4.857-8.04,6.567-10.893c1.74-2.85,3.09-5.369,3-5.58c-0.09-0.21-0.81-0.567-1.62-0.75   c-3.987-1.02-15.119-6.027-19.47-8.76c-2.55-1.62-5.608-4.92-7.92-8.609c-1.08-1.681-2.76-4.318-3.72-5.851   c-1.563-2.46-1.771-2.939-1.74-4.229c0.09-4.44,7.47-14.07,12.75-16.62c2.13-1.021,6.271-2.16,7.95-2.16   c1.56,0,1.229-0.78-0.45-1.05c-6.78-0.99-34.229-6.842-41.16-8.73c-11.909-3.3-24.81-8.398-34.979-13.859   c-3.78-2.04-9.75-5.79-10.381-6.54C598.38,437.04,597.39,436.95,597.24,437.4z M611.43,484.92c1.263,0.24,6.723,1.92,12.15,3.72   c10.35,3.48,14.34,4.62,20.49,5.91c2.01,0.45,4.647,1.143,5.85,1.563c3.03,1.08,7.5,3.447,9.811,5.157   c2.521,1.923,5.972,5.553,6.689,7.053c0.51,1.08,0.51,1.229,0.09,2.13c-0.93,1.95-5.46,3.357-12.87,4.05   c-8.34,0.75-21.96-1.8-34.29-6.45c-8.938-3.357-16.68-8.7-18.6-12.81c-1.59-3.393-0.54-7.74,2.22-9.36   C605.28,484.53,607.71,484.26,611.43,484.92z M667.8,522.99c2.433,1.2,2.37,6.42-0.21,13.26c-1.59,4.29-3.479,7.74-5.07,9.3   c-2.55,2.521-7.59,4.62-13.77,5.73c-4.05,0.72-13.74,0.75-17.85,0.027c-7.32-1.26-12.15-3.357-15.633-6.81   c-3.3-3.24-3.93-5.58-2.67-9.66c2.4-7.8,9.933-10.83,24.393-9.78c3,0.21,8.43,0.393,12.06,0.393l6.603-0.03l4.197-1.229   C665.85,522.42,666.48,522.33,667.8,522.99z M627.45,560.22c2.91,0.78,5.01,2.223,6.09,4.23c0.72,1.35,0.66,4.5-0.15,6   c-1.407,2.7-4.89,4.95-9.479,6.21c-2.73,0.72-10.68,1.08-13.11,0.57c-4.59-0.963-7.5-3.69-7.5-7.08c0-4.2,4.74-7.593,13.353-9.603   C620.13,559.74,625.08,559.59,627.45,560.22z" style="stroke:black;fill:#BFDAE3"/><path id="180623552" parent_id="180608862" order="46" structure_id="1" d="M604.41,485.25c-2.91,1.08-4.23,3.12-4.26,6.6   c0,2.7,0.777,4.32,3.21,6.75c9.51,9.513,36.93,17.553,52.737,15.48c11.223-1.47,12.96-3.69,7.41-9.42   c-4.979-5.13-11.22-8.28-20.01-10.08c-5.16-1.08-11.82-3.03-20.61-6.063c-4.107-1.407-8.52-2.817-9.84-3.147   C610.23,484.71,606.09,484.65,604.41,485.25z" style="stroke:black;fill:#BFDAE3"/><path id="180623552" parent_id="180608862" order="47" structure_id="1" d="M547.35,388.65c-2.397-0.69-3.897-1.47-5.607-2.88c-0.735-0.594-1.479-1.091-1.74-1.148v28.466   c0.082,0.002,0.155,0.012,0.24,0.012c1.857,0,2.85-0.84,4.2-3.479c0.539-1.08,2.067-3.09,3.81-4.95c3.57-3.87,5.1-6.12,5.55-8.16   C554.67,392.7,552.57,390.15,547.35,388.65z" style="stroke:black;fill:#BFDAE3"/><path id="180623552" parent_id="180608862" order="48" structure_id="1" d="M606.6,379.08   c-2.907,1.83-9.027,4.8-13.35,6.51c-10.2,4.02-20.4,6.51-33.15,8.1l-5.55,0.69l-0.21,1.26c-0.3,1.8-1.26,3.78-2.64,5.52   c-0.66,0.84-1.2,1.68-1.2,1.89c0,0.24,1.229,0.63,3.24,1.05c8.91,1.86,28.738,7.053,38.55,10.08c2.938,0.9,5.46,1.563,5.64,1.473   c0.15-0.12,0.271-0.42,0.271-0.69c0-1.08,3.06-6.688,5.49-10.11c5.25-7.35,7.407-13.53,7.02-20.1c-0.18-3.3-1.2-6.75-1.95-6.72   C608.49,378.03,607.5,378.51,606.6,379.08z M595.83,409.2c0.63,0.357,0.75,1.2,0.21,1.74s-1.38,0.42-1.74-0.21   c-0.39-0.75-0.39-0.813,0.183-1.353C595.02,408.81,595.08,408.81,595.83,409.2z" style="stroke:black;fill:#BFDAE3"/><path id="180623552" parent_id="180608862" order="49" structure_id="1" d="M576.3,346.2c0,8.76-8.85,24.09-23.01,39.81   c-1.38,1.5-2.49,2.91-2.49,3.12c0,0.18,0.57,0.87,1.29,1.47c0.72,0.63,1.563,1.71,1.86,2.37c0.3,0.69,0.66,1.23,0.78,1.23   c0.147,0,2.907-0.33,6.18-0.75c17.16-2.19,31.68-6.6,43.74-13.32c4.56-2.55,4.407-2.37,3.18-4.62c-1.53-2.79-5.25-8.43-7.5-11.31   c-5.73-7.38-16.29-16.56-21.78-18.9C576.45,344.4,576.3,344.46,576.3,346.2z" style="stroke:black;fill:#BFDAE3"/><path id="180623552" parent_id="180608862" order="50" structure_id="1" d="M573.21,336.75c-1.29,0.24-3.3,0.87-4.5,1.38   c-7.89,3.39-15.27,5.16-24.12,5.85c-1.95,0.12-2.79,0.3-2.79,0.57c0,0.3,1.353,0.45,5.313,0.6c4.92,0.21,5.64,0.18,9.96-0.57   c15.567-2.61,20.188-1.59,30.75,6.84c7.229,5.76,14.22,14.01,19.5,23.04c2.1,3.6,3.027,6.03,3.479,9.15   c0.813,5.52-1.29,12.81-5.55,19.14c-2.37,3.57-4.59,11.16-5.25,18c-0.149,1.8-0.3,3.45-0.3,3.63c0,0.87,8.25,0.66,14.25-0.36   c6.51-1.077,14.607-3.657,21.78-6.867c6.447-2.91,16.77-8.883,16.77-9.723c0-0.237-2.188-3.87-4.858-8.1   c-15.602-24.69-25.562-37.59-38.069-49.41c-6.75-6.33-14.13-10.56-22.11-12.63C583.71,336.33,576.81,336.06,573.21,336.75z" style="stroke:black;fill:#BFDAE3"/><path id="180623552" parent_id="180608862" order="51" structure_id="1" d="M683.91,468c-4.8,0.81-8.25,2.67-11.58,6.18   c-4.23,4.44-6.87,8.91-7.141,12.063c-0.119,1.5-0.062,1.857,0.658,2.91c0.48,0.657,1.92,2.938,3.21,5.067   c5.19,8.46,7.5,10.473,17.16,15.03c4.23,1.98,10.98,4.56,12.69,4.83c1.17,0.18,1.26,0.12,1.71-0.72c0.72-1.41,0.6-1.65-1.11-2.4   c-4.979-2.16-6.479-6.12-5.01-13.26c1.29-6.36,5.85-18.66,8.43-22.771c0.66-1.05,1.143-2.067,1.08-2.277   c-0.147-0.36-8.25-3.66-10.979-4.473C691.26,467.67,686.49,467.58,683.91,468z" style="stroke:black;fill:#BFDAE3"/><path id="180623552" parent_id="180608862" order="52" structure_id="1" d="M703.23,444.81   c-1.143,1.383-3.093,5.103-3.75,7.143c-1.29,4.05-2.07,10.857-1.771,15.357l0.18,2.433l3.271,1.41l3.27,1.38l2.553-0.63   c3.237-0.813,8.85-0.9,11.397-0.15c0.93,0.271,1.74,0.45,1.8,0.39c0.48-0.51,8.223-21.18,8.223-21.987   c0-0.57-0.57-0.57-1.771,0.027c-0.6,0.303-1.32,0.42-1.92,0.303c-1.53-0.303-4.11-1.922-4.74-3c-0.567-0.961-0.63-0.99-3.06-1.172   c-1.353-0.091-4.62-0.721-7.23-1.381c-2.607-0.688-4.947-1.229-5.158-1.229C704.31,443.7,703.74,444.21,703.23,444.81z" style="stroke:black;fill:#BFDAE3"/><path id="180623552" parent_id="180608862" order="53" structure_id="1" d="M696.9,366.21c-1.32,1.74-8.94,9-12.303,11.7   c-2.938,2.4-10.647,10.86-12.147,13.32c-1.32,2.25-3,6.51-3.99,10.11c-0.72,2.67-0.78,3.36-0.75,8.46   c0.03,7.771,0.99,13.143,2.91,16.143c1.11,1.737,5.25,5.52,8.31,7.59c3.54,2.37,8.973,4.979,13.62,6.51   c3.63,1.229,10.95,3.18,11.13,2.97c0.24-0.238,2.553-10.107,2.88-12.45c0.48-3.327,0.48-15.688,0-19.71   c-0.867-7.02-2.157-13.229-4.107-19.35c-2.73-8.64-3.84-14.97-3.813-21.99c0-3.39-0.09-4.71-0.33-4.71   C698.1,364.8,697.47,365.43,696.9,366.21z" style="stroke:black;fill:#BFDAE3"/><path id="180623552" parent_id="180608862" order="54" structure_id="1" d="M701.13,357.96   c-2.188,6.36-2.28,6.75-2.25,12.54c0.03,7.2,0.87,12,3.84,21.54c3.393,10.89,4.98,23.07,4.353,33.6   c-0.303,4.98-0.78,7.86-2.25,13.53c-0.57,2.19-0.99,4.021-0.96,4.05c0.06,0.03,1.647,0.48,3.54,1.021   c4.107,1.107,7.229,1.74,9.987,2.01l2.013,0.21v-1.08c0-0.63,0.63-3,1.38-5.31c2.79-8.58,3.81-16.5,3.84-29.82   c0.03-12.27-0.603-17.25-3.18-25.2c-2.223-6.9-5.58-12.84-13.29-23.4c-1.92-2.64-3.842-5.37-4.29-6.06   c-0.45-0.72-0.96-1.29-1.11-1.29C702.57,354.3,701.85,355.95,701.13,357.96z" style="stroke:black;fill:#BFDAE3"/><path id="180623552" parent_id="180608862" order="55" structure_id="1" d="M745.2,340.83   c-11.643,7.23-21.181,13.29-21.24,13.44c-0.059,0.15,1.29,2.67,2.97,5.64c7.5,13.2,10.95,21.72,13.29,32.94   c2.88,13.98,3.57,30.81,1.771,45.09c-0.42,3.42-0.42,4.05-0.063,4.26c0.933,0.6,18.063,6.12,25.32,8.22   c12.06,3.45,26.28,6.75,36.18,8.4l1.08,0.18l-0.06-8.16c-0.063-8.1-0.87-20.85-1.8-28.89c-0.57-4.74-1.593-9.84-3-14.853   c-3.063-10.947-3.45-13.107-3.45-19.83c0-8.07,1.35-17.37,3.147-21.63c1.353-3.15,1.353-3.18-1.83-3.99   c-5.31-1.35-8.76-3.21-13.77-7.41c-4.351-3.66-6.93-6.33-8.7-9.06c-2.31-3.54-5.22-9.69-6.63-13.98c-0.81-2.49-1.32-3.57-1.62-3.57   C766.56,327.63,756.84,333.57,745.2,340.83z" style="stroke:black;fill:#BFDAE3"/><path id="180623552" parent_id="180608862" order="56" structure_id="1" d="M754.26,450.24   c-1.41,4.527-2.64,7.74-6.567,17.16c-4.2,10.05-6.183,15.867-6.96,20.397c-1.803,10.53-1.53,19.26,0.688,23.643   c0.9,1.77,3,3.749,4.563,4.29c1.77,0.63,7.438,0.537,8.97-0.12c3.897-1.71,6.479-5.313,8.97-12.45c1.8-5.19,2.34-8.643,2.521-16.05   c0.27-12.69-1.08-20.553-6.15-35.58l-1.17-3.393l-1.771-0.567c-0.987-0.303-1.857-0.57-1.947-0.57   C755.31,447,754.8,448.44,754.26,450.24z" style="stroke:black;fill:#BFDAE3"/><path id="180623552" parent_id="180608862" order="57" structure_id="1" d="M759.63,541.38   c-2.16,1.53-1.979,5.67,0.54,11.49c3.36,7.83,8.73,14.97,12.72,16.979c2.04,1.021,4.053,1.021,5.223,0.03   c0.75-0.66,0.84-0.897,0.81-2.49c-0.06-2.52-1.38-5.67-5.28-12.42c-3.87-6.75-5.01-8.52-7.02-10.737   C763.92,541.23,761.37,540.18,759.63,541.38z" style="stroke:black;fill:#BFDAE3"/><path id="180623552" parent_id="180608862" order="58" structure_id="1" d="M788.7,570.3   c-11.46,20.61-20.88,37.681-20.94,37.893c-0.12,0.539,3.9,2.277,8.07,3.51c7.71,2.28,19.14,3.21,29.28,2.37   c3.96-0.303,11.729-1.353,12.54-1.65c0.39-0.18,0.447-4.438,0.447-39.75V533.1h-3.657c-2.04,0-3.96-0.06-4.29-0.147   C809.64,532.83,806.91,537.57,788.7,570.3z" style="stroke:black;fill:#BFDAE3"/><path id="180623552" parent_id="180608862" order="59" structure_id="1" d="M837.45,526.47   c-0.183,0.15-1.771,1.021-3.603,1.92c-3.84,1.92-8.907,3.603-12.3,4.11c-1.317,0.21-2.58,0.42-2.76,0.479   c-0.3,0.092-0.39,8.279-0.39,39.722v39.63l1.14-0.21c3.57-0.63,12.81-3.15,18.51-5.07c10.41-3.479,21-8.13,29.4-12.897   c4.857-2.73,12.75-7.922,12.75-8.37c-0.03-0.183-9.3-13.62-20.643-29.88c-14.067-20.133-20.817-29.58-21.237-29.643   C838.02,526.23,837.6,526.32,837.45,526.47z" style="stroke:black;fill:#BFDAE3"/><path id="180623552" parent_id="180608862" order="60" structure_id="1" d="M867.78,492.66   c-1.473,2.607-8.25,12.479-10.74,15.66c-4.8,6.18-11.67,12.93-16.35,16.08c-0.9,0.6-1.593,1.29-1.593,1.59   c0,0.54,40.893,59.397,41.433,59.58c0.18,0.027,1.857-1.11,3.778-2.551c11.552-8.819,23.609-20.882,32.489-32.552   c3.99-5.22,7.8-10.77,7.8-11.34c0-0.479-55.107-47.188-55.89-47.37C868.5,491.73,868.08,492.12,867.78,492.66z" style="stroke:black;fill:#BFDAE3"/><path id="180623552" parent_id="180608862" order="61" structure_id="1" d="M881.4,463.56   c-2.553,7.353-6.75,16.74-11.013,24.633c-1.737,3.21-1.737,3.237-1.14,3.75c0.36,0.27,12.87,10.827,27.87,23.46   c14.97,12.63,27.45,22.947,27.72,22.947c1.143,0,8.94-14.46,11.313-20.97c2.85-7.8,5.43-21.12,5.188-26.85l-0.09-2.25l-28.92-14.19   c-15.93-7.8-29.102-14.188-29.313-14.188C882.84,459.9,882.09,461.55,881.4,463.56z" style="stroke:black;fill:#BFDAE3"/><path id="180623552" parent_id="180608862" order="62" structure_id="1" d="M888,437.76c0,1.38-2.16,11.13-3.6,16.26   c-0.843,2.973-1.41,5.49-1.29,5.61c0.39,0.36,57.33,28.17,57.659,28.17c0.181,0,0.328-0.51,0.328-1.14   c0-1.86-0.84-4.771-2.397-8.43c-1.98-4.74-2.79-7.74-2.79-10.683c-0.03-4.17,0.96-6.63,4.59-11.37c1.141-1.527,2.1-2.88,2.1-3.06   c0-0.271-53.43-16.08-54.21-16.05C888.18,437.1,888,437.4,888,437.76z" style="stroke:black;fill:#BFDAE3"/><path id="180623552" parent_id="180608862" order="63" structure_id="1" d="M816.75,350.85c-0.99,0.21-2.88,0.84-4.2,1.41   c-11.58,4.92-16.08,14.73-16.107,35.04c-0.03,6.72,0.327,9.33,2.157,15.603c2.28,7.89,3.45,13.229,4.2,18.75   c0.78,6,1.563,19.17,1.8,29.697c0.24,12.422,0.42,13.74,2.04,16.172c1.021,1.528,3.21,3.028,5.433,3.721   c1.317,0.39,2.729,0.51,6.479,0.479c4.563,0,4.95-0.06,7.65-0.96c9.688-3.238,18.12-11.64,24.45-24.448   c3.33-6.689,4.14-9.512,4.647-16.199c0.78-10.41-1.62-25.051-6.479-39.51c-3.03-9.03-6.21-16.32-9.66-22.14   c-5.16-8.67-9.99-14.01-14.94-16.53c-1.59-0.78-2.34-1.02-4.92-1.38C818.88,350.49,817.74,350.61,816.75,350.85z" style="stroke:black;fill:#BFDAE3"/><path id="180623552" parent_id="180608862" order="64" structure_id="1" d="M791.37,294.3   c-3.45,0.54-7.59,2.49-15.72,7.47c-2.61,1.59-5.013,3.3-5.763,4.08c-2.277,2.46-3.987,7.92-3.987,12.78   c0,6.27,3.6,17.19,8.25,25.11c2.938,4.95,11.04,12.42,16.647,15.33c2.49,1.29,6.36,2.61,8.61,2.91l1.47,0.18l0.87-1.29   c2.85-4.32,7.74-7.83,13.53-9.72c2.698-0.87,4.77-0.93,6.897-0.21c10.44,3.63,22.021,22.2,28.74,46.2   c5.01,17.763,6.03,32.13,2.97,41.88c-0.39,1.353-1.68,4.32-2.79,6.633c-6.63,13.56-15.658,22.407-26.01,25.527   c-2.25,0.69-3.21,0.813-6.54,0.84c-3.96,0-5.22-0.21-8.188-1.38c-1.563-0.6-1.593-0.6-2.013-0.06c-0.75,0.96-2.277,5.22-3.147,8.67   c-1.23,4.86-1.83,9.27-2.011,15.03c-0.302,9.18,0.931,16.17,3.961,22.17c2.52,5.04,2.067,4.74,6.75,4.38   c18.688-1.5,32.13-10.53,45.42-30.48c11.188-16.8,17.67-33.897,20.31-53.697c0.603-4.383,0.69-6.45,0.72-14.553   c0-10.229-0.237-13.35-1.647-21.777c-3.57-20.91-12.42-41.07-26.07-59.22c-8.22-10.92-19.14-22.11-30.33-31.05   c-6.42-5.13-14.04-10.32-19.5-13.29C798.81,294.6,794.94,293.76,791.37,294.3z" style="stroke:black;fill:#BFDAE3"/><path id="180623552" parent_id="180608862" order="65" structure_id="1" d="M889.29,403.32   c0.75,8.58,0.479,21.3-0.57,29.52c-0.27,2.04-0.39,3.78-0.3,3.87c0.21,0.21,53.85,15.99,54.36,15.99c0.84,0,6.12-9.66,8.607-15.78   c2.763-6.75,5.19-15.42,6.48-23.07c0.6-3.63,1.53-10.8,1.53-12.09v-0.66h-35.131H889.11L889.29,403.32z" style="stroke:black;fill:#BFDAE3"/><path id="180623552" parent_id="180608862" order="66" structure_id="1" d="M900.9,312.18   c-19.263,13.86-32.28,23.43-32.343,23.76c-0.06,0.3,0.603,1.74,1.473,3.21c9.87,17.19,16.857,39.15,18.81,59.25l0.21,2.25   l35.13,0.09c33.271,0.06,35.16,0.027,35.37-0.45c0.42-1.05,0.54-17.61,0.183-22.47c-0.961-12.45-3.183-24.18-7.383-38.82   c-3.27-11.49-9.328-28.86-14.1-40.5c-3.33-8.1-3.96-9.45-4.56-9.51C933.39,288.96,918.75,299.34,900.9,312.18z" style="stroke:black;fill:#BFDAE3"/><path id="180623552" parent_id="180608862" order="67" structure_id="1" d="M818.7,221.58   c-14.431,21.9-26.28,40.02-26.34,40.29c-0.063,0.33,1.02,1.26,3.3,2.88c32.37,22.74,47.79,36.51,61.8,55.26   c3.03,4.08,10.14,14.7,10.14,15.18c0,0.12,0.271,0.21,0.603,0.15s15.147-10.56,32.97-23.34c25.71-18.45,32.4-23.4,32.4-23.91   c0.027-0.36-1.771-4.2-3.96-8.55c-13.65-27.03-29.04-46.59-60.513-76.86c-14.157-13.65-22.35-20.88-23.607-20.88   C845.1,181.8,837.78,192.66,818.7,221.58z" style="stroke:black;fill:#BFDAE3"/><path id="180623552" parent_id="180608862" order="68" structure_id="1" d="M751.68,183.63   c-8.697,24.42-15.777,44.46-15.72,44.49c0.03,0.06,2.67,1.41,5.79,3.03c14.76,7.59,30.33,17.01,43.65,26.34   c3.21,2.25,6.06,4.11,6.33,4.11c0.327,0,9.447-13.53,26.938-40.05c14.55-22.05,26.43-40.17,26.43-40.29   c0-0.36-8.67-6.69-14.188-10.38c-16.23-10.83-35.88-21-56.55-29.25c-3.36-1.32-6.271-2.43-6.45-2.43   C767.7,139.2,760.86,157.98,751.68,183.63z" style="stroke:black;fill:#BFDAE3"/><path id="180623552" parent_id="180608862" order="69" structure_id="1" d="M684.81,229.11   c-1.05,1.62-6.81,10.44-12.81,19.59c-6,9.15-10.92,16.86-10.92,17.13c-0.03,0.27,1.17,1.41,2.67,2.58   c9.54,7.41,19.98,19.02,26.85,29.88c2.49,3.93,3.69,5.7,6.66,9.87c4.11,5.76,7.98,12.36,16.29,27.69   c9.36,17.25,9.75,17.91,10.5,17.79c0.36-0.09,10.143-6,21.69-13.17c17.277-10.71,21.027-13.14,21.06-13.68   c0-0.36-0.21-1.65-0.479-2.85c-0.66-2.91-0.66-7.89,0-10.59c0.27-1.17,0.987-3.15,1.59-4.44c0.6-1.26,0.99-2.4,0.87-2.52   c-0.09-0.12-0.96,0.06-1.92,0.36c-10.44,3.3-20.643-4.83-33.36-26.55c-6.271-10.71-16.021-23.58-26.64-35.19   c-6.96-7.59-18.75-18.81-19.771-18.81C686.88,226.2,685.86,227.52,684.81,229.11z" style="stroke:black;fill:#BFDAE3"/><path id="180623552" parent_id="180608862" order="70" structure_id="1" d="M689.13,121.26   c-0.63,3.09-14.13,79.98-14.13,80.4c0,0.3,1.59,0.96,4.89,2.01c10.593,3.48,30.093,11.82,50.82,21.78c2.7,1.29,4.98,2.28,5.07,2.16   c0.18-0.18,31.62-88.11,31.62-88.47c0-0.57-17.04-6.3-27.9-9.33c-8.55-2.4-19.65-4.98-30.15-6.96   c-5.67-1.08-18.447-3.15-19.407-3.15C689.58,119.7,689.37,120.12,689.13,121.26z" style="stroke:black;fill:#BFDAE3"/><path id="180623552" parent_id="180608862" order="71" structure_id="1" d="M654.12,119.43   c0.09,1.56,0.99,18.87,1.979,38.52c0.99,19.62,1.86,36.66,1.98,37.83l0.148,2.13l2.012,0.39c1.107,0.21,4.77,1.11,8.13,2.01   c3.358,0.87,6.18,1.53,6.27,1.47c0.183-0.21,14.46-80.79,14.46-81.72c0-0.42-0.18-0.66-0.51-0.66c-0.3,0-3.45-0.33-6.99-0.72   c-7.26-0.84-16.197-1.56-23.067-1.86l-4.62-0.21L654.12,119.43z" style="stroke:black;fill:#BFDAE3"/><path id="180623552" parent_id="180608862" order="72" structure_id="1" d="M632.7,116.91   c-7.26,0.42-19.893,1.95-26.07,3.12c-2.938,0.57-3.36,0.72-3.27,1.2c0.06,0.3,10.29,17.37,22.737,37.92   c22.32,36.75,22.65,37.32,23.61,37.35c0.51,0,2.521,0.27,4.47,0.6c1.92,0.33,3.57,0.54,3.66,0.48c0.063-0.09-0.81-18.27-1.95-40.44   l-2.04-40.29l-9.75-0.03C638.73,116.82,633.6,116.85,632.7,116.91z" style="stroke:black;fill:#BFDAE3"/><path id="180623552" parent_id="180608862" order="73" structure_id="1" d="M597.75,121.98   c-12.54,3.3-21.27,7.77-27.78,14.22c-4.107,4.08-9.66,11.76-12.479,17.28c-3.933,7.68-5.49,15.66-5.07,26.22   c0.09,2.88,0.271,6.06,0.36,7.05l0.18,1.8l46.71,4.59c25.68,2.55,47.25,4.68,47.97,4.77c1.143,0.15,1.263,0.12,1.263-0.51   c0-0.36-10.353-17.73-23.013-38.58c-18.54-30.51-23.157-37.92-23.64-37.89C601.92,120.93,599.91,121.41,597.75,121.98z" style="stroke:black;fill:#BFDAE3"/><path id="180623552" parent_id="180608862" order="74" structure_id="1" d="M553.2,189.78c0,3.39,2.43,12.06,4.83,17.22   c2.91,6.18,8.67,13.23,14.397,17.55c4.053,3.06,25.053,15.45,26.16,15.45c0.54,0,55.44-36.72,55.86-37.38   c0.239-0.36,0.09-0.6-0.603-1.11c-0.479-0.36-1.619-1.229-2.487-1.95l-1.593-1.29l-46.857-4.62c-25.771-2.55-47.49-4.71-48.271-4.8   l-1.438-0.18L553.2,189.78L553.2,189.78z" style="stroke:black;fill:#BFDAE3"/><path id="180623552" parent_id="180608862" order="75" structure_id="1" d="M627.12,221.25   c-18.72,12.54-27.57,18.63-27.57,18.99c0,0.36,1.26,1.17,4.23,2.67c3.987,2.04,4.83,2.34,15.75,5.46   c12.897,3.69,15.777,4.59,20.52,6.54c4.38,1.77,11.853,5.61,15.75,8.07c4.29,2.73,4.74,2.97,4.893,2.82   c0.09-0.09,5.97-9.06,13.107-19.95c9.72-14.85,12.9-19.92,12.69-20.25c-0.99-1.62-30.063-22.8-31.29-22.8   C654.93,202.8,642.3,211.11,627.12,221.25z" style="stroke:black;fill:#BFDAE3"/><path id="180623552" parent_id="180608862" order="76" structure_id="1" d="M577.5,247.8   c-6.18,0.78-12.33,3.69-18.63,8.76c-5.34,4.29-7.8,7.56-9.063,11.94c-1.827,6.3-2.607,14.1-2.729,27.06   c-0.062,5.49-0.21,10.35-0.33,10.8c-0.36,1.35,0.6,1.05,1.8-0.6c1.41-1.95,2.432-4.83,3.33-9.48c0.42-2.16,1.021-5.34,1.352-7.05   c0.778-4.14,2.068-7.32,4.198-10.53c6.21-9.27,18.513-14.64,32.07-14.01c18.36,0.87,50.729,11.4,65.64,21.36   c4.23,2.79,8.49,6.48,14.643,12.6c6.81,6.78,9.75,10.14,20.31,23.13c4.08,5.07,6.15,7.32,6.69,7.32c1.02,0,0.12-6.09-1.683-11.49   c-2.697-8.07-8.25-17.55-15.777-26.91c-5.91-7.38-13.23-14.7-18.36-18.39c-6.93-4.98-16.8-9.75-30.36-14.61   c-21.987-7.92-30.3-9.81-44.1-10.05C582.63,247.59,578.58,247.65,577.5,247.8z" style="stroke:black;fill:#BFDAE3"/><path id="180623552" parent_id="180608862" order="77" structure_id="1" d="M582,265.05c-0.24,0.06-1.47,0.27-2.7,0.45   c-8.188,1.32-15.84,5.58-20.46,11.37c-3.33,4.17-4.647,7.47-5.97,14.88c-1.14,6.48-2.16,10.32-3.271,12.42   c-0.51,0.9-0.897,1.83-0.897,2.04c0,1.23,4.38-0.72,7.38-3.3c2.01-1.71,3.51-3.36,6.39-7.08c5.342-6.84,17.643-13.62,25.53-14.04   c10.17-0.57,32.1,6.36,52.53,16.56c21.21,10.62,41.7,24.39,56.1,37.71c1.92,1.8,3.66,3.24,3.84,3.24c0.21,0,0.33-1.29,0.33-4.02   v-3.99l-1.26-0.21c-1.08-0.18-1.65-0.6-3.99-2.97c-1.5-1.53-4.89-5.46-7.56-8.76c-13.11-16.29-23.94-27.3-32.58-33.09   c-10.23-6.87-30.69-14.85-48.33-18.81c-8.07-1.8-12-2.31-18.48-2.43C585.21,264.99,582.24,264.99,582,265.05z" style="stroke:black;fill:#BFDAE3"/><path id="180623552" parent_id="180608862" order="78" structure_id="1" d="M586.5,282.03   c-4.11,0.45-10.62,3.21-16.2,6.87c-3.18,2.1-6.99,5.76-9.897,9.57c-3.21,4.14-7.5,7.32-11.58,8.52c-0.842,0.24-2.19,0.81-3.03,1.23   c-1.38,0.69-2.16,0.93-4.8,1.59c-0.66,0.15-0.69,0.33-0.69,2.67V315h2.94c3.09,0,6.238-0.3,11.7-1.11   c3.09-0.45,3.357-0.54,3.357-1.14c0-0.45,1.17-1.86,3.42-4.17c1.893-1.92,4.71-5.01,6.271-6.87c1.56-1.86,3.357-3.84,3.988-4.38   c2.369-2.1,6.092-3.27,12.329-3.93c10.803-1.17,26.973,3.54,45.78,13.29c14.102,7.32,28.26,17.55,42.21,30.57   c9.63,8.97,20.67,21.54,23.643,26.97c0.447,0.81,0.96,1.47,1.107,1.47c0.33,0,1.53-1.83,2.643-4.05c1.77-3.6,3.39-10.17,3.72-15.06   l0.18-2.76l-1.02-1.2c-0.57-0.63-1.381-1.68-1.83-2.28c-0.45-0.6-2.342-2.52-4.2-4.26c-12.15-11.4-29.851-23.7-49.11-34.08   C623.82,289.26,597.93,280.77,586.5,282.03z" style="stroke:black;fill:#BFDAE3"/><path id="180623552" parent_id="180608862" order="79" structure_id="1" d="M583.05,293.58   c-2.88,0.45-6.78,1.35-7.95,1.86c-2.25,0.99-3.688,2.25-6.777,5.97c-1.62,1.95-4.41,5.01-6.21,6.84c-3.45,3.51-3.96,4.14-3.69,4.83   c0.24,0.63,1.08,0.51,2.58-0.33c4.8-2.73,9.69-4.14,16.229-4.71c15.479-1.32,29.762,4.08,49.352,18.75   c10.77,8.01,17.1,13.8,36.72,33.51c15.9,15.96,18.69,18.6,19.683,18.6c0.6,0,5.25-3.99,9.657-8.34c2.881-2.85,3.96-4.11,3.96-4.62   c0-0.39-0.777-1.89-1.737-3.3c-8.4-12.3-24.69-28.53-40.802-40.68c-18.448-13.92-40.891-24.72-57.841-27.81   C593.64,293.67,584.91,293.31,583.05,293.58z" style="stroke:black;fill:#BFDAE3"/><path id="180623552" parent_id="180608862" order="80" structure_id="1" d="M681.21,378.03c-0.54-0.33-6.69-6.42-13.71-13.56c-21.45-21.81-31.35-30.81-43.95-39.84   c-11.43-8.22-22.62-13.77-31.5-15.69c-1.83-0.39-4.53-0.63-8.25-0.75c-9.3-0.3-15.03,0.72-20.938,3.69   c-1.86,0.96-3.603,1.71-3.9,1.68c-0.27,0-2.19,0.24-4.26,0.54c-4.979,0.759-9.878,1.142-14.7,1.159v28.391c0.052,0,0.098,0,0.15,0   c7.527,0,8.817-0.06,12.3-0.69c4.89-0.9,10.14-2.4,13.89-3.99c3.96-1.68,6.3-2.31,9.72-2.7c9.063-0.99,20.16,2.79,29.58,10.14   c5.313,4.14,14.61,14.04,21.513,22.89c5.88,7.56,13.229,18.33,21.447,31.41c2.61,4.17,4.17,6.39,4.5,6.39   c1.382,0,10.65-7.407,15.45-12.357c5.49-5.64,13.65-14.94,13.65-15.54C682.2,378.9,681.75,378.39,681.21,378.03z" style="stroke:black;fill:#BFDAE3"/><path id="180623552" parent_id="180608862" order="81" structure_id="1" d="M634.77,631.92c-1.5-3.63-1.59-4.02-1.59-6.51c-0.027-1.44-0.09-2.61-0.147-2.61   c-0.063,0-2.07,0.813-4.5,1.771c-10.08,4.08-21.87,8.01-26.433,8.85c-7.317,1.32-17.88,1.68-21,0.72   c-2.22-0.688-4.8-2.31-8.157-5.067c-5.433-4.5-8.4-8.19-11.133-13.803l-1.56-3.237h-1.53c-3.479-0.063-5.88,1.38-7.35,4.35   c-0.84,1.71-0.96,2.28-1.141,5.61c-0.239,4.527-0.632,5.37-3.062,6.6c-1.573,0.787-4.375,1.191-7.17,1.199v34.817   c3.106,0.011,6.249,1.353,12,4.031c8.34,3.87,9.87,4.353,19.08,5.88c8.938,1.5,12.45,1.803,20.67,1.83   c8.79,0,10.229-0.18,16.38-2.25c6.9-2.277,11.97-5.34,16.65-10.02c3.237-3.24,5.25-6.12,8.37-11.82   C637.53,644.25,637.92,639.51,634.77,631.92z" style="stroke:black;fill:#BFDAE3"/><path id="180623552" parent_id="180608862" order="82" structure_id="1" d="M678.9,546.21   c-6.303,4.95-16.593,14.61-31.23,29.43c-13.59,13.71-21.03,20.73-33.42,31.53c-5.97,5.22-8.189,6.84-15.93,11.76   c-10.021,6.36-14.04,9.12-16.23,11.16c-3,2.82-2.49,3.9,2.04,4.41c4.23,0.51,15.54-0.51,20.73-1.8   c8.607-2.19,26.85-9.09,31.737-11.97c2.4-1.44,10.473-7.173,14.853-10.563l3-2.31l1.62-3.63c0.87-1.98,3.33-6.54,5.487-10.143   c6.271-10.56,9.54-17.7,13.143-28.77c3.21-9.841,4.229-12.78,5.88-16.591c0.9-2.069,1.62-3.932,1.62-4.142   C682.2,543.84,681.42,544.23,678.9,546.21z" style="stroke:black;fill:#BFDAE3"/><path id="180623552" parent_id="180608862" order="83" structure_id="1" d="M618.45,560.25   c-5.07,0.96-10.2,2.94-12.393,4.8c-2.22,1.86-2.938,3.813-2.43,6.42c0.391,1.98,2.04,3.87,4.11,4.771   c4.59,1.979,14.97,1.41,20.25-1.11c2.43-1.17,4.47-2.97,5.31-4.68c0.54-1.143,0.63-1.771,0.54-3.603   c-0.09-1.92-0.21-2.34-1.02-3.357c-1.95-2.433-4.29-3.33-8.973-3.54C621.9,559.86,620.01,559.98,618.45,560.25z" style="stroke:black;fill:#BFDAE3"/><path id="180623552" parent_id="180608862" order="84" structure_id="1" d="M660.3,524.13c-6.21,1.83-8.55,1.98-18.72,1.32   c-15.69-0.99-21.57-0.063-25.771,4.17c-1.77,1.77-2.67,3.42-3.39,6.18c-0.84,3.36,0.18,6.3,3.15,9.063   c4.647,4.317,11.97,6.51,22.68,6.75c8.88,0.237,14.729-0.75,20.13-3.36c3.813-1.83,5.103-3.18,7.141-7.41   c3.029-6.27,4.262-11.16,3.812-14.91C668.91,522.45,667.2,522.09,660.3,524.13z" style="stroke:black;fill:#BFDAE3"/><path id="180623552" parent_id="180608862" order="85" structure_id="1" d="M660.45,613.32c-0.75-2.521-3.63-5.223-5.55-5.223c-0.33,0-2.73,1.593-5.343,3.54   c-5.55,4.17-10.857,7.92-13.5,9.48c-2.487,1.5-2.907,2.188-2.88,4.68c0.03,1.59,0.271,2.55,1.38,5.25   c1.95,4.71,2.343,6.183,2.343,9.15c0,3.688-0.813,6.567-3.183,11.067c-5.43,10.44-10.647,15.961-19.2,20.313   c-3.567,1.8-9.18,3.72-13.02,4.47c-6.811,1.29-18.061,0.75-31.17-1.5c-4.92-0.87-9.51-1.979-11.82-2.88c-0.84-0.33-3.84-1.68-6.6-3   c-6.927-3.263-8.832-3.902-11.91-3.824v17.549c1.591,0.043,3.361,0.579,6.45,1.665c2.67,0.933,6.567,2.132,8.7,2.671   c3.81,0.989,4.02,1.021,9.75,0.961c11.55-0.092,25.17-1.892,36.147-4.739c15-3.9,27.21-11.04,38.853-22.65   c7.647-7.62,11.25-12.87,15.3-22.35C659.85,627.12,661.8,617.88,660.45,613.32z" style="stroke:black;fill:#BFDAE3"/></g></g></svg>
