<svg xmlns="http://www.w3.org/2000/svg" width="3024px" height="3024px"><g transform="scale(1.0)"><g id="180608862" order="1" parent_id="" graphic_group_label_id="28" graphic_group_label="Atlas - Adult Rat" sub_image_id="100960468" transform=" scale(1.0, 1.0)"><path id="180623552" parent_id="180608862" order="0" structure_id="1" d="M845.88,253.95c-6.66-19.95-13.56-34.89-22.56-48.66c-9.24-14.19-21.42-27.27-35.82-38.46   c-31.92-24.81-78.15-41.85-127.95-47.16c-7.53-0.81-21.42-0.96-27.149-0.3c-22.021,2.49-40.319,10.14-60.601,25.23   c-17.159,12.78-28.319,24.15-30.75,31.29c-0.383,1.11-0.789,1.701-1.11,1.692l0.142,301.939c0.274-0.132,0.498,0.134,0.64,0.84   c0.301,1.619,3,6.93,4.95,9.75c0.99,1.47,2.82,3.84,4.05,5.34c1.262,1.47,2.28,2.88,2.28,3.06c0,0.21-0.271,0.66-0.6,0.99   c-0.33,0.33-0.602,0.87-0.602,1.17c0,1.41,2.04,2.07,2.761,0.93c0.209-0.329,0.569-0.6,0.811-0.6c0.21,0,1.62,1.17,3.12,2.61   c3.27,3.09,7.17,6.358,10.858,9.09c4.291,3.18,8.94,8.398,19.562,22.02c5.34,6.812,6.239,7.71,9.21,9.15   c7.68,3.75,24.75,7.02,36.779,7.05c5.699,0.03,7.261-0.3,14.311-2.85c2.28-0.841,6.78-2.432,9.99-3.54   c21.238-7.38,52.38-23.102,72.689-36.69c15.061-10.08,24.449-19.26,28.891-28.26c0.898-1.86,1.828-4.26,2.1-5.521   c0.9-4.051,0.21-8.819-1.71-11.489c-1.08-1.53-0.93-1.62,3.42-1.65c5.222-0.03,8.46-0.87,13.86-3.569   c5.52-2.729,9.479-5.789,15.6-11.971c11.13-11.25,20.94-25.92,31.891-47.88c6.811-13.62,12.871-27.78,18-42   c8.7-24.24,11.58-37.979,11.58-55.35C854.52,284.46,852.57,274.08,845.88,253.95z" style="stroke:black;fill:#BFDAE3"/><path id="180623552" parent_id="180608862" order="1" structure_id="1" d="M688.891,341.07   c-0.391,0.778-0.689,1.56-0.66,1.71c0,0.148,1.051,1.08,2.311,2.068c2.939,2.28,13.891,13.171,17.22,17.102   c21.181,24.989,42.24,62.1,54.45,96l0.87,2.398l1.62,0.091c7.26,0.449,17.158-4.561,26.52-13.439c2.672-2.55,8.881-9.51,8.881-9.96   c0-0.51-5.341-6.69-10.591-12.271c-23.399-24.811-70.5-66.029-92.46-80.851c-3.75-2.55-6.75-4.32-7.229-4.32   C689.67,339.63,689.25,340.26,688.891,341.07z" style="stroke:black;fill:#BFDAE3"/><path id="180623552" parent_id="180608862" order="2" structure_id="1" d="M690.18,336.811   c-0.39,2.369-0.3,2.579,1.41,3.511c10.77,6.028,41.25,30.75,66.96,54.3c16.95,15.51,34.47,33.18,40.53,40.8   c0.63,0.812,1.08,1.11,1.41,0.99c0.688-0.271,4.38-5.28,8.789-11.91c4.439-6.688,11.58-19.11,11.461-19.95   c-0.09-0.66-3.09-2.488-19.142-11.7c-42.75-24.538-89.97-49.17-106.948-55.829c-1.86-0.721-3.602-1.319-3.84-1.319   C690.54,335.7,690.3,336.12,690.18,336.811z" style="stroke:black;fill:#BFDAE3"/><path id="180623552" parent_id="180608862" order="3" structure_id="1" d="M686.1,325.23c0,0.18,0.602,0.868,1.352,1.528   c1.949,1.71,2.64,3.21,2.79,6.09l0.118,2.4l4.11,1.62c19.23,7.56,78.54,38.88,119.521,63.09c3.6,2.13,6.778,3.84,7.05,3.78   c0.898-0.15,13.859-27.181,13.859-28.86c0-0.87-9.75-5.43-21.931-10.319c-30.989-12.391-90.78-31.351-121.71-38.579   C686.16,324.78,686.1,324.78,686.1,325.23z" style="stroke:black;fill:#BFDAE3"/><path id="180623552" parent_id="180608862" order="4" structure_id="1" d="M669.3,323.61c-0.75,0.028-3.36,0.3-5.85,0.568   l-4.47,0.48l-8.28,4.108c-13.591,6.75-16.38,8.642-23.431,15.632c-8.399,8.398-14.939,17.188-20.101,27.148   c-1.108,2.13-2.399,4.8-2.819,5.94c-0.811,1.979-0.811,2.13-0.689,7.199c0.21,7.171,1.23,11.189,3.54,13.829   c1.29,1.472,2.489,2.041,4.26,2.07c1.2,0.03,1.59-0.12,2.37-0.87c1.2-1.14,1.439-1.62,3.27-6.6c1.83-4.891,4.2-9.99,6.271-13.41   c5.22-8.58,14.28-16.32,26.01-22.2c6.99-3.479,12.33-5.37,21.84-7.68c11.312-2.76,16.172-5.25,17.94-9.21   c0.33-0.78,0.72-2.67,0.899-4.32c0.539-5.28-0.391-8.04-3.479-10.14C683.34,324,677.01,323.04,669.3,323.61z" style="stroke:black;fill:#BFDAE3"/><path id="180623552" parent_id="180608862" order="5" structure_id="1" d="M819.9,214.83   c-20.102,8.82-56.972,25.38-99.9,44.91c-38.609,17.55-39.3,17.88-39.3,18.24c0,0.18,0.75,1.44,1.68,2.82   c3.09,4.65,4.95,9.15,5.58,13.59c0.84,5.91-1.56,11.76-6.899,16.74c-2.909,2.73-8.791,6.63-14.7,9.72   c-2.489,1.32-4.561,2.58-4.561,2.82c0,0.33,0.39,0.36,2.04,0.21c4.53-0.45,12.9-0.54,15.811-0.21   c7.859,0.93,26.641,5.7,51.391,13.11c43.5,12.96,84.21,27.479,100.59,35.85c1.561,0.81,3.061,1.47,3.33,1.47   c0.84,0,9.12-21.93,12.54-33.21c4.62-15.148,6.271-24.898,6.51-38.25c0.33-17.04-1.618-28.23-8.52-48.84   c-4.681-14.01-9.601-25.71-15.062-35.938c-3.06-5.67-3.119-5.76-3.779-5.73C826.32,212.13,823.29,213.36,819.9,214.83z" style="stroke:black;fill:#BFDAE3"/><path id="180623552" parent_id="180608862" order="6" structure_id="1" d="M802.17,183.09   c-5.189,3.96-57.359,39.18-113.13,76.35c-8.58,5.7-14.94,10.14-14.94,10.41c0,0.24,1.051,1.71,2.34,3.21   c1.262,1.53,2.61,3.15,2.972,3.6c0.33,0.48,0.81,0.84,1.05,0.84c0.271,0,2.67-1.02,5.37-2.28   c27.72-12.84,122.278-55.47,136.83-61.648c2.819-1.17,3.84-1.771,3.84-2.13c0-0.9-4.8-8.34-8.938-13.89   c-4.83-6.45-12.842-15.45-13.711-15.45C803.641,182.1,802.891,182.55,802.17,183.09z" style="stroke:black;fill:#BFDAE3"/><path id="180623552" parent_id="180608862" order="7" structure_id="1" d="M655.08,120.06c-0.061,0.21-0.33,5.1-0.6,10.89   c-1.53,32.01-6.541,111.6-7.23,115.05c-0.15,0.72-0.061,0.81,2.01,1.41c1.2,0.36,3.062,1.2,4.142,1.89   c2.13,1.38,12.329,11.43,17.069,16.86c1.561,1.8,3,3.24,3.209,3.24c0.57,0,87-57.87,113.972-76.29   c13.409-9.181,16.02-11.07,16.05-11.46c0-0.81-12.061-11.37-18.75-16.41c-31.08-23.4-77.73-40.29-124.71-45.09   C654.93,119.61,655.2,119.61,655.08,120.06z" style="stroke:black;fill:#BFDAE3"/><path id="180623552" parent_id="180608862" order="8" structure_id="1111022260200000" d="M637.8,119.4   c-23.489,1.26-44.19,9.24-65.61,25.29c-1.528,1.14-2.789,2.28-2.789,2.52c0,0.21,0.511,1.11,1.141,1.98   c4.74,6.42,51.271,74.91,62.91,92.58c4.738,7.17,3.96,6.6,7.648,5.58c0.9-0.24,2.58-0.45,3.78-0.45h2.13l0.21-1.89   c0.932-8.938,4.921-72,6.78-107.61c0.33-6.36,0.66-12.93,0.78-14.61l0.18-3.03l-1.62-0.18   C650.311,119.28,642.12,119.16,637.8,119.4z" style="stroke:black;fill:#1F9D5A"/><path id="180623552" parent_id="180608862" order="9" structure_id="1" d="M543.27,410.25c0.045-3.354-1.487-5.631-3.225-5.595l0.005,10.542   C541.959,415.184,543.24,413.239,543.27,410.25z" style="stroke:black;fill:#BFDAE3"/><path id="180623552" parent_id="180608862" order="10" structure_id="1" d="M574.65,500.16   c-6.301,5.22-10.051,8.64-10.021,9.06c0,0.392,0.602,0.87,4.32,3.54c10.17,7.29,13.29,7.562,43.199,3.51   c13.051-1.77,16.649-2.608,18.75-4.38c0.721-0.568,0.899-0.988,0.899-1.858c0-2.432-2.34-2.88-7.35-1.44   c-4.86,1.44-9.39,2.07-16.05,2.222c-6.722,0.18-10.86-0.15-14.4-1.142c-5.55-1.53-7.71-3.6-11.82-11.16   c-0.93-1.68-1.619-2.608-1.92-2.608C579.96,495.9,577.439,497.82,574.65,500.16z" style="stroke:black;fill:#BFDAE3"/><path id="180623552" parent_id="180608862" order="11" structure_id="1" d="M686.25,454.65   c-3.18,0.6-19.141,1.648-24.811,1.648c-1.859,0-1.379,0.66,1.951,2.641c9.84,5.819,13.26,11.489,10.648,17.671   c-3.479,8.22-12.932,15.09-22.891,16.59c-3.84,0.569-7.891-0.09-11.58-1.98c-1.141-0.568-2.189-1.02-2.369-1.02   c-0.512,0-0.36,1.17,1.08,8.16c1.859,9.18,3.119,14.34,3.479,14.34c0.15,0,0.631-0.271,1.051-0.57c1.739-1.41,5.34-1.08,8.369,0.75   c3.271,1.95,4.11,1.83,7.08-1.2c2.01-2.04,2.34-2.25,3.99-2.58c1.41-0.3,2.609-0.3,5.4-0.028c4.02,0.39,5.88,0.42,6.6,0.148   c0.87-0.33,1.35-1.858,1.561-4.8c0.239-3.81,0.479-4.02,4.619-4.02c2.852,0,3-0.03,3.961-0.9c2.069-1.8,3.689-5.85,4.681-11.76   c0.329-1.92,0.778-3.87,1.02-4.352c1.142-2.13,3.33-3.21,7.562-3.658c5.43-0.57,21.119-1.262,31.35-1.382   c7.92-0.09,10.35-0.21,11.52-0.568c5.312-1.65,3.03-5.55-4.92-8.432c-2.068-0.75-8.64-2.34-30-7.38   c-8.22-1.92-10.02-2.43-11.789-3.33c-1.561-0.778-3.359-2.46-3.811-3.54C689.58,454.08,689.49,454.08,686.25,454.65z" style="stroke:black;fill:#BFDAE3"/><path id="180623552" parent_id="180608862" order="12" structure_id="1" d="M689.58,452.25   c-0.54,2.16,1.529,5.07,4.65,6.51c0.988,0.48,8.188,2.312,18.42,4.74c19.289,4.53,22.17,5.311,25.56,6.9   c2.97,1.38,4.38,2.43,4.979,3.66c0.721,1.5,0.181,2.55-1.859,3.479l-1.68,0.78l-11.852,0.21c-12.029,0.21-27.449,0.93-31.439,1.47   c-3.629,0.479-5.25,1.41-6.149,3.54c-0.271,0.6-0.78,2.7-1.11,4.62c-0.898,5.22-2.43,9.12-4.318,11.069   c-1.262,1.289-2.012,1.5-4.23,1.289c-2.13-0.209-3.898,0.211-4.35,1.08c-0.182,0.301-0.3,1.562-0.3,2.762   c0,2.76-0.722,4.47-2.07,5.039c-0.75,0.301-1.562,0.301-3.96,0.029c-3.78-0.42-6.99-0.42-8.521,0c-0.84,0.24-1.77,0.96-3.3,2.49   c-1.2,1.26-2.46,2.28-2.97,2.4c-0.87,0.21-1.02,0.148-5.13-2.011c-1.261-0.689-4.56-1.051-6-0.689c-1.17,0.3-1.95,1.26-1.95,2.37   c0,1.108,1.26,5.04,1.95,6.09c1.021,1.56,4.26,1.65,10.8,0.3c7.02-1.44,20.13-4.74,21.75-5.46c3.09-1.41,3.75-2.43,4.05-6.359   c0.182-2.341,0.3-2.761,0.69-2.609c1.29,0.479,3.3,0.75,4.41,0.568c2.729-0.39,3.51-1.289,7.709-8.67   c3.421-5.97,5.281-8.76,6.631-9.96c2.91-2.55,10.199-3.688,24.21-3.688c4.38-0.03,10.95-0.15,14.64-0.271   c6.57-0.24,6.721-0.27,8.4-1.108c2.43-1.261,3.18-2.79,3.3-6.9c0.09-2.609,0.03-3.21-0.51-4.26c-1.2-2.34-4.351-4.32-10.08-6.36   c-1.47-0.51-9.99-2.76-18.9-4.95c-16.38-4.05-24.18-6.238-28.439-7.92c-1.289-0.51-2.431-0.93-2.579-0.93   C689.88,451.5,689.67,451.83,689.58,452.25z" style="stroke:black;fill:#BFDAE3"/><path id="180623552" parent_id="180608862" order="13" structure_id="1" d="M690.811,443.76   c-0.871,5.67-1.021,7.32-0.75,7.5c0.779,0.48,5.311,2.13,9.09,3.271c2.16,0.658,11.399,3.06,20.58,5.34   c9.181,2.31,17.939,4.59,19.5,5.13c6.721,2.25,10.261,4.62,11.25,7.562c1.051,3.209-0.12,8.31-2.25,9.84   c-2.101,1.47-2.791,1.528-19.08,1.8c-8.399,0.148-16.5,0.42-18,0.6c-7.26,0.84-10.109,1.8-11.971,3.932   c-1.02,1.198-3.33,4.948-7.56,12.27c-2.7,4.68-4.32,5.91-7.44,5.58c-1.02-0.09-2.188-0.24-2.64-0.36l-0.84-0.18v1.89   c-0.03,2.761-0.42,4.11-1.561,5.28c-1.891,1.95-4.471,2.76-19.439,6.18c-8.37,1.922-9.63,2.102-12.63,1.95   c-1.53-0.09-2.67-0.06-2.67,0.12c0,0.96,1.528,2.88,4.02,5.01c5.79,4.98,9.12,9.66,10.71,14.94c0.181,0.72,0.479,1.29,0.66,1.29   c0.149,0,1.08-0.72,2.04-1.62c2.46-2.19,7.529-5.79,13.47-9.479c9.841-6.149,10.681-6.811,20.851-16.801   c8.399-8.25,10.859-10.26,13.681-11.13c3.989-1.229,8.188-0.569,15.3,2.431c2.34,0.989,4.5,1.801,4.771,1.801   c0.6,0,7.68-4.98,12.148-8.521c3.99-3.18,11.88-11.13,14.012-14.13c6.719-9.51,7.709-17.85,2.85-23.91   c-0.87-1.108-1.29-1.26-8.58-3.66c-4.23-1.38-15.18-4.739-24.33-7.47c-9.15-2.729-17.79-5.46-19.2-6.06   c-2.7-1.17-6.33-3.03-11.31-5.91c-1.711-0.96-3.211-1.74-3.33-1.74C692.042,436.503,691.41,439.77,690.811,443.76z" style="stroke:black;fill:#BFDAE3"/><path id="180623552" parent_id="180608862" order="14" structure_id="1" d="M649.35,465.63c0.78,3.42,0.602,6-0.568,8.31   c-1.771,3.422-5.25,5.371-11.342,6.36l-2.34,0.39v1.08c0.03,0.602,0.33,2.552,0.69,4.352l0.66,3.24l1.95,1.199   c3.209,1.92,5.489,2.489,10.05,2.489c2.85,0,4.47-0.18,6-0.569c8.069-2.159,15.479-7.859,18.75-14.399   c1.979-3.9,2.25-3.57-5.011-6.15c-3.449-1.229-8.879-3.3-12.091-4.59C648.45,464.22,649.05,464.37,649.35,465.63z" style="stroke:black;fill:#BFDAE3"/><path id="180623552" parent_id="180608862" order="15" structure_id="1" d="M558.45,433.86   c-0.66,0.148-5.011,0.329-9.66,0.45c-8.79,0.18-9.45,0.3-7.62,1.318c0.45,0.271,1.17,1.141,1.561,1.95   c0.601,1.26,0.721,1.92,0.721,4.47s-0.12,3.21-0.721,4.471c-0.391,0.811-1.109,1.681-1.561,1.949l-0.87,0.48v14.1   c0,14.94,0.061,15.57,1.5,19.44c0.45,1.198,0.811,1.71,1.17,1.71c0.69,0,9.271-3.062,14.341-5.13   c5.011-2.011,7.289-3.182,7.289-3.69c0-0.898-0.869-1.17-3.148-0.99c-1.92,0.15-2.341,0.092-2.971-0.42   c-2.01-1.59-2.489-7.408-0.989-12.51c1.17-3.96,1.38-6.18,1.41-14.16c0-7.648,0.239-9.42,1.68-11.97   c0.39-0.72,0.72-1.41,0.72-1.562C561.3,433.439,560.04,433.47,558.45,433.86z" style="stroke:black;fill:#BFDAE3"/><path id="180623552" parent_id="180608862" order="16" structure_id="1" d="M561.6,434.04   c-0.778,0.78-1.35,1.771-1.83,3.21c-0.629,1.95-0.688,2.61-0.75,10.05c-0.028,8.67-0.09,9.062-1.35,14.04   c-1.38,5.34-1.08,10.95,0.63,12.51c0.48,0.45,0.9,0.512,2.55,0.33c1.41-0.148,2.222-0.09,3.03,0.271   c1.5,0.63,1.681,0.568,2.431-0.54c0.359-0.51,1.619-2.04,2.789-3.36c1.142-1.318,2.102-2.55,2.102-2.729   c0-0.182-0.271-0.57-0.602-0.87c-0.51-0.45-1.14-0.57-3.39-0.57l-2.76-0.03l-0.271-1.108c-0.358-1.472,0.33-4.771,2.102-9.99   c1.59-4.71,2.22-7.8,2.22-11.07c0-3.448-0.48-5.729-1.68-7.858C564.78,432.66,563.52,432.12,561.6,434.04z" style="stroke:black;fill:#BFDAE3"/><path id="180623552" parent_id="180608862" order="17" structure_id="1" d="M589.71,427.62   c-2.819,1.02-5.7,2.79-9.63,5.94c-4.17,3.39-6.99,4.828-9.87,4.979l-2.04,0.12l0.24,1.858c0.6,4.592,0.09,8.552-1.74,13.83   c-1.62,4.59-2.37,7.74-2.37,9.75c0,2.222,0.271,2.432,2.761,2.19c1.681-0.15,2.159-0.06,3.33,0.51l1.379,0.69l3.541-3.33   c8.221-7.71,13.229-10.8,19.979-12.21c1.14-0.24,2.61-0.45,3.271-0.45h1.229l-0.21-1.14c-0.09-0.602-0.18-1.472-0.18-1.921   c0-0.63-0.182-0.841-0.87-0.989c-2.521-0.54-2.16-3.45,1.2-9.57c1.619-2.91,2.43-3.96,3.33-4.26c0.299-0.09,0.539-0.39,0.539-0.66   c0-0.78-3.689-4.11-5.609-5.04C595.561,426.72,592.561,426.63,589.71,427.62z" style="stroke:black;fill:#BFDAE3"/><path id="180623552" parent_id="180608862" order="18" structure_id="1" d="M589.71,427.62   c-2.819,1.02-5.7,2.79-9.63,5.94c-4.17,3.39-6.99,4.828-9.87,4.979l-2.04,0.12l0.24,1.858c0.6,4.592,0.09,8.552-1.74,13.83   c-1.62,4.59-2.37,7.74-2.37,9.75c0,2.222,0.271,2.432,2.761,2.19c1.681-0.15,2.159-0.06,3.33,0.51l1.379,0.69l3.541-3.33   c8.221-7.71,13.229-10.8,19.979-12.21c1.14-0.24,2.61-0.45,3.271-0.45h1.229l-0.21-1.14c-0.09-0.602-0.18-1.472-0.18-1.921   c0-0.63-0.182-0.841-0.87-0.989c-2.521-0.54-2.16-3.45,1.2-9.57c1.619-2.91,2.43-3.96,3.33-4.26c0.299-0.09,0.539-0.39,0.539-0.66   c0-0.78-3.689-4.11-5.609-5.04C595.561,426.72,592.561,426.63,589.71,427.62z" style="stroke:black;fill:#BFDAE3"/><path id="180623552" parent_id="180608862" order="19" structure_id="1" d="M602.189,429.51   c-0.391,0.062-0.689,0.271-0.689,0.45c0,0.601,2.55,3.09,3.48,3.42c2.159,0.75,4.08,2.22,8.068,6.24c4.2,4.2,4.2,4.2,8.432,6.33   c2.34,1.17,5.55,3,7.14,4.05c3.3,2.189,4.08,3.33,4.08,5.91v1.529l3.54-0.029l3.51-0.062l2.4,1.171   c1.89,0.899,2.91,1.681,4.74,3.541c2.129,2.188,2.578,2.488,5.549,3.75c5.399,2.25,21.359,8.188,22.08,8.188   c0.121,0,0.181-0.9,0.121-2.04c-0.15-2.82-1.052-4.53-3.962-7.439c-2.819-2.789-4.38-3.899-10.528-7.381   c-7.62-4.318-47.01-25.5-48.75-26.22C608.4,429.689,604.38,429.09,602.189,429.51z" style="stroke:black;fill:#BFDAE3"/><path id="180623552" parent_id="180608862" order="20" structure_id="1" d="M634.98,457.53   c-6.182,0.81-15.932,4.438-18.392,6.87c-1.229,1.198-1.71,2.88-1.528,5.43c0.299,3.87,2.64,6.93,7.02,9.21   c4.77,2.46,8.01,2.67,15.93,0.99c6.57-1.352,9.12-2.852,10.801-6.271c0.721-1.5,0.841-2.069,0.841-4.41   c0-2.46-0.091-2.909-0.99-4.71c-1.17-2.398-3.062-4.199-5.972-5.699c-1.738-0.899-4.68-1.829-5.43-1.709   C637.141,457.26,636.12,457.38,634.98,457.53z" style="stroke:black;fill:#BFDAE3"/><path id="180623552" parent_id="180608862" order="21" structure_id="1" d="M611.91,430.32c-0.12-0.301-0.75-2.16-1.41-4.11c-2.43-6.99-3.48-14.25-3.24-22.47   c0.12-4.142,0.062-5.102-0.27-5.4c-0.24-0.18-0.69-0.87-1.021-1.5l-0.568-1.14l-5.19,0.06c-2.819,0-9.06,0.15-13.86,0.271   c-19.38,0.54-39.778,1.199-42.959,1.38l-3.35,0.178l0.004,6.503l1.005,0.459c3.271,1.562,3.45,8.82,0.271,10.71l-1.021,0.602v9.45   v9.479l6.99-0.21c7.74-0.24,11.431-0.57,14.25-1.26c2.64-0.66,3.181-0.45,4.53,1.77c2.34,3.78,3,4.05,6.66,2.91   c2.278-0.688,4.108-1.8,7.17-4.35c5.85-4.802,11.398-7.44,14.789-6.932c1.41,0.21,4.08,1.38,5.189,2.25   c0.66,0.511,1.08,0.57,3.512,0.42c2.219-0.12,3.209,0,5.01,0.512C612.27,430.98,612.12,430.95,611.91,430.32z" style="stroke:black;fill:#BFDAE3"/><path id="180623552" parent_id="180608862" order="22" structure_id="1" d="M595.77,451.98   c-4.56,0.81-8.97,2.789-12.988,5.789c-3.182,2.399-10.98,9.569-10.98,10.109c0,0.24,0.45,1.352,1.021,2.46   c2.13,4.23,2.55,8.01,1.14,9.96c-0.899,1.2-0.84,1.53,0.511,3.84c0.629,1.11,3.09,5.58,5.431,9.96   c2.34,4.382,4.739,8.671,5.31,9.54c1.32,1.98,3.33,3.75,5.37,4.71c7.89,3.722,27.39,3.12,37.529-1.14   c1.319-0.57,3.149-1.53,4.08-2.13c3.061-2.04,5.609-5.46,5.609-7.562c0-0.75-2.97-16.289-3.148-16.56   c-0.062-0.06-1.142,0.03-2.431,0.21c-6.421,0.811-13.83-2.79-16.381-7.98c-1.229-2.52-1.35-5.22-0.3-7.318   c0.36-0.75,0.66-1.5,0.66-1.71c0-0.181-1.261-0.931-2.82-1.681c-1.53-0.75-3.989-2.159-5.489-3.149   c-2.671-1.771-6.721-5.7-7.351-7.08C600.15,451.38,599.34,451.32,595.77,451.98z" style="stroke:black;fill:#BFDAE3"/><path id="180623552" parent_id="180608862" order="23" structure_id="1" d="M570.03,148.47c-0.421-0.63-0.9-1.14-1.08-1.14c-0.15-0.03-2.13,1.44-4.351,3.24   c-11.699,9.39-19.41,17.43-22.319,23.28c-2.04,4.05-2.04,4.32-2.19,21.48l-0.137,14.07l0.001,1.416L544.71,213   c15.51,7.17,59.31,28.17,74.88,35.91c6.061,3.03,11.19,5.49,11.4,5.49s0.75-0.6,1.229-1.35c0.842-1.38,2.521-2.91,4.32-3.93   c0.51-0.3,0.96-0.72,0.96-0.9C637.5,247.38,597.18,187.77,570.03,148.47z" style="stroke:black;fill:#BFDAE3"/><path id="180623552" parent_id="180608862" order="24" structure_id="1" d="M596.25,237.6c-31.68-15.24-55.32-26.4-55.98-26.4c-0.148,0-0.27,25.41-0.27,64.56v33.646l0.016,30.886   l18.524-0.18c10.17-0.12,24.75-0.301,32.37-0.422l13.859-0.18l0.33-1.68c1.859-9.27,6.811-26.55,13.351-46.53   c1.38-4.2,3.33-10.44,4.319-13.83c2.311-7.8,4.801-15.12,6.511-18.96c0.72-1.649,1.319-3.24,1.319-3.57   C630.6,254.31,622.859,250.41,596.25,237.6z" style="stroke:black;fill:#BFDAE3"/><path id="180623552" parent_id="180608862" order="25" structure_id="1" d="M540,275.73c0-17.432-0.01-30.451-0.035-40.057L540,309.404V275.73z" style="stroke:black;fill:#BFDAE3"/><path id="180623552" parent_id="180608862" order="26" structure_id="1" d="M604.71,393.689c-0.899-2.789-1.17-4.771-1.319-9.539c-0.121-3.87-0.301-5.4-0.931-7.95   c-0.78-3-0.81-3.511-0.81-10.5c0.028-7.74,0.3-10.562,2.1-20.58c1.08-6.09,1.32-5.521-2.311-5.46   c-1.709,0.029-11.039,0.15-20.789,0.3c-9.722,0.12-22.86,0.33-29.16,0.42l-11.477,0.181l0.026,56.729l5.897-0.208   c15.182-0.51,25.83-0.812,41.73-1.23c9.48-0.238,17.28-0.51,17.37-0.568C605.1,395.189,604.95,394.5,604.71,393.689z" style="stroke:black;fill:#BFDAE3"/><path id="180623552" parent_id="180608862" order="27" structure_id="2113200030000000" d="M711.061,503.43   c-3.66,0.722-5.551,2.19-16.109,12.57c-3.96,3.9-8.37,7.98-9.811,9.09c-1.439,1.11-5.399,3.78-8.851,5.94   c-11.76,7.38-17.55,11.97-15.12,11.97c0.33,0,2.76-0.87,5.4-1.92c16.14-6.48,39.84-18.36,54.42-27.3   c7.529-4.591,8.31-5.13,8.31-5.46c0-0.392-5.85-2.972-8.97-3.99C716.79,503.189,713.79,502.89,711.061,503.43z" style="stroke:black;fill:#CCCCCC"/><path id="180623552" parent_id="180608862" order="28" structure_id="1" d="M641.85,247.2   c-3.959,0.84-7.68,3.09-9.42,5.67c-2.938,4.35-5.699,11.49-9.63,24.93c-0.84,2.88-2.67,8.7-4.05,12.93   c-7.8,23.79-12.12,39.331-14.37,51.72c-3.06,16.68-3.569,26.069-1.83,33.688c0.36,1.592,0.63,2.16,0.931,2.102   c0.239-0.062,1.051-1.38,1.771-2.94c4.83-10.53,12.42-21.27,21.45-30.33c7.979-8.01,9.93-9.3,26.85-17.7   c12.42-6.148,17.102-8.64,21.45-11.55c7.32-4.83,11.101-9.3,12.479-14.82c0.601-2.34,0.449-7.29-0.301-10.05   c-0.869-3.24-3.869-8.88-6.75-12.66c-7.08-9.39-22.38-25.74-26.91-28.74c-0.898-0.6-2.398-1.35-3.358-1.68   C648.24,247.08,643.74,246.78,641.85,247.2z" style="stroke:black;fill:#BFDAE3"/><path id="180623552" parent_id="180608862" order="29" structure_id="1" d="M602.189,434.22   c-0.449,0.392-1.771,2.521-2.909,4.74c-1.62,3.15-2.102,4.41-2.22,5.7c-0.182,2.188,0.27,2.64,2.58,2.64   c2.1,0,3.658-0.688,5.67-2.489c2.039-1.771,3.18-2.131,6.209-1.891c1.351,0.09,2.881,0.27,3.42,0.36   c1.591,0.3,1.201-0.602-1.5-3.392c-2.67-2.729-5.521-5.1-7.049-5.908C604.98,433.26,603.21,433.35,602.189,434.22z" style="stroke:black;fill:#BFDAE3"/><path id="180623552" parent_id="180608862" order="30" structure_id="1" d="M569.79,469.86   c-1.83,1.95-4.59,5.398-4.59,5.79c0,0.75,2.43,4.08,3.63,4.948c1.35,0.962,3.061,1.2,4.23,0.57c0.778-0.42,1.738-2.52,1.738-3.87   c0-2.488-2.34-8.7-3.27-8.7C571.26,468.6,570.48,469.17,569.79,469.86z" style="stroke:black;fill:#BFDAE3"/><path id="180623552" parent_id="180608862" order="31" structure_id="1" d="M587.4,525.03   c-2.521,0.688-3.15,3.148-1.41,5.398c1.08,1.41,3.6,3.21,5.55,3.96c1.62,0.631,4.89,0.66,6.06,0.062   c1.021-0.54,1.802-1.86,1.802-3.03c0-1.41-1.352-3.27-3.33-4.59C593.16,524.88,590.189,524.28,587.4,525.03z" style="stroke:black;fill:#BFDAE3"/><path id="180623552" parent_id="180608862" order="32" structure_id="1111222150100000" d="M656.55,354.33   c-14.399,5.76-25.8,14.28-32.31,24.12c-2.312,3.51-4.92,8.88-6.84,14.1c-0.84,2.312-1.92,4.86-2.34,5.67   c-1.382,2.55-3.302,3.182-5.91,1.92c-0.722-0.358-1.44-0.54-1.562-0.42c-0.39,0.36-0.239,11.46,0.181,14.28   c0.87,6.061,2.399,12,4.08,15.75l0.659,1.53l17.521,9.42c9.63,5.16,20.04,10.8,23.13,12.479l5.64,3.091l9.81-0.421   c12.212-0.568,16.712-0.96,19.682-1.68c0.99-0.27,1.109-0.39,1.109-1.26c0-0.54,0.539-4.472,1.199-8.73   c0.66-4.29,1.11-7.89,0.99-8.01c-0.15-0.12-1.41-0.99-2.85-1.95c-7.5-5.1-13.26-11.64-18.03-20.52   c-5.13-9.57-8.58-22.23-9.96-36.45c-0.54-5.4-0.689-17.4-0.3-21.689C660.72,352.59,660.84,352.62,656.55,354.33z" style="stroke:black;fill:#248A5E"/><path id="180623552" parent_id="180608862" order="33" structure_id="1" d="M541.62,436.47c-0.54-0.556-1.044-0.825-1.562-0.829l0.006,12.815c0.552-0.005,1.084-0.319,1.676-0.976   C543.87,445.05,543.811,438.75,541.62,436.47z" style="stroke:black;fill:#BFDAE3"/><path id="180623552" parent_id="180608862" order="34" structure_id="1510000000000000" d="M551.311,499.38   c-0.391,0.39-0.211,2.13,0.239,2.521c0.69,0.568,1.92,0.118,2.13-0.812c0.12-0.42,0.062-0.99-0.09-1.26   C553.29,499.32,551.67,499.02,551.311,499.38z" style="stroke:black;fill:#BFDAE3"/><path id="180623552" parent_id="180608862" order="35" structure_id="1" d="M609.15,516.78   c-19.86,2.76-27.51,2.88-32.76,0.54c-0.932-0.392-1.771-0.722-1.922-0.722c-0.75,0,0.03,1.23,2.762,4.41   c1.68,1.95,3.93,4.65,5.01,6c1.08,1.38,2.13,2.49,2.34,2.49c0.24,0,0.359-0.42,0.33-1.32c-0.09-2.31,1.62-3.479,5.01-3.479   c4.471,0,9.48,3.568,9.48,6.75c0,3.96-5.222,4.979-9.99,1.95c-1.471-0.932-2.311-1.142-2.311-0.57c0,0.6,6.391,8.43,7.59,9.3   c5.609,4.08,22.711,7.86,37.291,8.28c7.05,0.21,8.818-0.062,14.76-2.19c2.1-0.75,5.79-2.068,8.22-2.909   c3.511-1.229,4.44-1.681,4.44-2.101c0-0.99-1.5-5.1-2.58-7.05c-1.65-2.94-4.32-6.03-8.07-9.33c-3.57-3.15-4.62-3.72-4.17-2.22   c0.42,1.35,0.33,12.329-0.12,13.8c-0.479,1.56-2.819,4.2-4.41,4.92c-2.28,1.05-4.17,0.57-7.62-1.83   c-1.948-1.38-3.63-3.21-7.979-8.7c-1.65-2.069-3.75-4.68-4.71-5.819c-1.83-2.189-2.94-4.141-2.94-5.25   c0-0.989,0.811-2.369,1.5-2.58c0.54-0.181,0.602-0.359,0.42-1.289c-0.328-2.07-0.39-2.16-1.408-2.131   C616.77,515.76,613.109,516.24,609.15,516.78z" style="stroke:black;fill:#BFDAE3"/><path id="180623552" parent_id="180608862" order="36" structure_id="1" d="M617.76,519.689   c-1.38,1.471-0.72,4.021,1.771,6.961c0.688,0.81,3.029,3.72,5.22,6.448c5.608,7.021,8.82,9.841,11.88,10.53   c2.49,0.57,5.4-0.99,7.021-3.75c0.568-0.96,0.81-2.04,1.08-4.41c0.39-3.63,0.238-10.02-0.302-11.01   c-0.479-0.87-2.25-0.93-2.729-0.09c-0.15,0.33-0.3,2.43-0.3,4.68c0,4.71-0.301,5.73-2.041,6.812c-2.101,1.29-4.92,0.63-7.59-1.771   c-0.63-0.569-2.551-3.12-4.229-5.608c-3.81-5.7-5.7-8.07-6.96-8.852C619.29,518.82,618.57,518.85,617.76,519.689z" style="stroke:black;fill:#BFDAE3"/><path id="180623552" parent_id="180608862" order="37" structure_id="1" d="M620.46,515.16l-2.22,0.33l0.21,1.38   c0.271,1.71,0.239,1.71,1.53,2.31c1.5,0.722,3.148,2.7,7.289,8.79c3.721,5.46,5.189,7.08,7.319,7.98   c2.341,0.96,4.892,0.33,6.12-1.562c0.45-0.688,0.54-1.47,0.54-5.278c0-4.352,0.03-4.472,0.72-5.04c0.57-0.48,0.99-0.57,1.891-0.42   c1.32,0.238,1.41,0.028,0.57-1.59c-0.301-0.602-0.841-2.012-1.199-3.092c-0.631-1.949-0.66-1.979-2.222-2.46   C636.54,515.1,625.71,514.41,620.46,515.16z" style="stroke:black;fill:#BFDAE3"/><path id="180623552" parent_id="180608862" order="38" structure_id="1" d="M562.98,476.58   c-3.091,1.62-18.78,7.62-19.86,7.62c-0.24,0-0.42,0.21-0.42,0.45c0,1.26,3.42,6.479,7.02,10.8c1.261,1.47,2.28,2.938,2.28,3.21   c0,0.33,0.24,0.54,0.54,0.54c0.69,0,1.26,0.569,1.26,1.26c0,0.3,0.21,0.54,0.48,0.54c0.27,0,1.59,1.05,2.938,2.311   c3.602,3.449,6.36,5.789,6.78,5.789c0.21,0,1.562-1.05,2.97-2.34c3.99-3.63,12.721-10.858,13.141-10.858   c0.211,0,0.391-0.182,0.391-0.392c0-0.18-1.439-3-3.21-6.21s-3.42-6.27-3.66-6.81c-0.45-0.9-0.6-0.96-2.01-0.99   c-2.011,0-3.63-1.17-5.31-3.78c-0.66-1.05-1.352-1.92-1.53-1.92C564.6,475.83,563.79,476.16,562.98,476.58z" style="stroke:black;fill:#BFDAE3"/><path id="180623552" parent_id="180608862" order="39" structure_id="1" d="M637.08,499.89   c-0.811,1.74-3.84,4.71-6.09,5.94c-2.07,1.109-2.312,1.59-1.051,1.92c1.291,0.3,1.859,1.02,1.859,2.28   c0,0.87-0.18,1.29-0.898,1.858c-0.812,0.69-3.78,2.012-4.5,2.012c-0.182,0-0.302,0.21-0.302,0.448c0,0.36,0.48,0.45,2.521,0.45   c2.94,0,8.521,0.69,11.069,1.352c2.67,0.688,2.641,0.72,2.399-1.44c-0.09-1.021-0.3-1.95-0.448-2.04   c-0.24-0.15-2.16-8.1-2.972-12.21c-0.18-1.021-0.51-1.86-0.688-1.86C637.8,498.6,637.38,499.2,637.08,499.89z" style="stroke:black;fill:#BFDAE3"/><path id="180623552" parent_id="180608862" order="40" structure_id="1111222150400000" d="M686.43,344.1   c-2.52,2.131-6.63,3.66-16.858,6.271c-8.49,2.16-8.58,2.189-8.882,3.24c-0.39,1.438-0.27,19.438,0.15,23.488   c1.5,14.58,4.44,25.62,9.48,35.642c3.18,6.3,6.75,11.13,11.91,16.108c3.568,3.42,6.568,5.552,13.108,9.271   c8.46,4.83,12.33,6.54,20.312,8.91c22.08,6.54,28.02,8.34,34.948,10.648c5.49,1.83,8.25,2.58,9.841,2.73   c2.101,0.18,2.159,0.15,2.159-0.51c0-0.84-3.27-9.57-6.06-16.2c-13.141-31.08-31.38-61.562-49.26-82.2   c-6.812-7.86-17.91-18.33-19.41-18.3C687.63,343.23,687,343.62,686.43,344.1z" style="stroke:black;fill:#248A5E"/><path id="180623552" parent_id="180608862" order="41" structure_id="1" d="M608.189,443.13   c-0.75,0.181-1.83,0.81-2.699,1.56c-1.92,1.712-2.73,2.19-4.471,2.7c-1.439,0.421-1.471,0.45-1.439,1.62   c0.061,3.84,5.55,9.271,13.14,13.021c1.98,0.96,3.78,1.77,3.99,1.77s1.021-0.39,1.8-0.87c2.61-1.59,11.312-4.829,13.051-4.829   c1.05,0,1.439-2.011,0.841-4.261c-0.392-1.38-1.921-2.7-5.58-4.89C618.9,444.21,612.3,442.14,608.189,443.13z" style="stroke:black;fill:#BFDAE3"/></g></g></svg>
