<svg xmlns="http://www.w3.org/2000/svg" width="3024px" height="3024px"><g transform="scale(1.0)"><g id="180608862" order="1" parent_id="" graphic_group_label_id="28" graphic_group_label="Atlas - Adult Rat" sub_image_id="100960468" transform=" scale(1.0, 1.0)"><path id="180623552" parent_id="180608862" order="0" structure_id="1" d="M878.82,319.05c-5.91-62.729-39.602-124.68-87.48-160.89c-12.93-9.78-25.199-16.59-41.97-23.25   c-33.75-13.44-79.229-22.05-120.87-22.89c-21.57-0.45-33.18,1.65-47.25,8.58c-8.67,4.26-14.37,8.25-20.939,14.7   c-7.83,7.62-11.939,14.01-15.181,23.55c-1.95,5.79-4.53,17.31-4.53,20.28c0,0.57-0.148,0.87-0.448,0.87   c-0.057,0-0.104-0.001-0.15-0.004v120.923c0.337,0.049,0.65,0.489,0.99,1.451c0.688,1.95,2.58,4.77,4.26,6.3   c0.75,0.69,1.35,1.35,1.35,1.5s-0.479,0.57-1.02,0.93c-1.142,0.69-2.07,2.011-2.7,3.78l-0.39,1.14l-2.431,0.03L540,316.051v215.813   c0.331,0.019,0.663,0.004,0.99-0.082c0.93-0.21,2.31-1.591,2.67-2.67c0.18-0.45,0.449-0.812,0.63-0.812c0.3,0,2.01,3.66,2.01,4.261   c0,0.091-0.39,0.329-0.898,0.479c-1.17,0.42-1.711,1.59-1.261,2.61c0.449,0.96,1.709,1.289,2.431,0.63   c0.3-0.271,0.72-0.48,0.96-0.48c0.238,0.03,1.02,1.2,1.738,2.641c1.98,3.899,3.812,6.511,5.671,8.101   c6.239,5.311,8.819,8.07,12,12.811c2.431,3.601,4.95,6.359,7.051,7.711c1.438,0.93,1.74,0.988,4.17,1.02   c2.49,0.03,2.699,0.09,4.29,1.109c1.47,0.989,1.68,1.261,2.1,2.819c0.96,3.45,1.44,4.44,2.82,5.79   c4.2,4.11,15.75,9.932,24.09,12.15c9.149,2.43,22.8,2.88,36.69,1.17c1.979-0.24,4.05-0.57,4.59-0.75   c0.6-0.21,4.438-0.36,9.449-0.39c9.181-0.092,9.12-0.062,11.579-1.92c1.591-1.172,3.602-1.23,6.03-0.182   c1.86,0.84,2.13,0.87,6.3,0.84c7.83-0.06,19.65-1.738,25.052-3.54c3.659-1.229,7.26-3,10.318-5.068   c1.23-0.812,3.33-2.011,4.65-2.61c4.95-2.28,24.3-9.87,36.36-14.25c3.33-1.2,7.02-2.7,8.25-3.33   c7.379-3.688,18.6-12.3,28.14-21.569c7.229-7.021,8.61-9.239,13.979-22.801c1.771-4.47,3.601-8.88,4.079-9.81   c0.931-1.83,1.921-3.42,17.58-28.29c19.2-30.54,22.44-35.851,26.04-43.2c10.262-20.85,16.141-42.689,18.63-69.3   C880.23,353.67,880.05,332.25,878.82,319.05z" style="stroke:black;fill:#BFDAE3"/><path id="180623552" parent_id="180608862" order="1" structure_id="1" d="M557.43,492.27   c-0.75,1.052-0.778,1.771-0.18,5.132c0.57,3.27,2.13,15.63,2.4,18.75c0.27,3.6,0.688,4.8,2.789,8.25   c4.591,7.47,10.62,14.278,19.711,22.198c9,7.83,12.869,9.841,23.25,12c9.09,1.86,15.568,1.29,18.869-1.68   c1.319-1.2,1.381-1.32,1.351-2.82c0-1.38-0.15-1.71-0.96-2.43c-0.51-0.45-1.44-0.99-2.07-1.14c-1.979-0.57-7.05-0.392-10.38,0.33   c-7.021,1.5-15.99,0.329-19.05-2.551c-0.36-0.329-1.771-2.579-3.12-4.949c-2.88-5.04-3.99-6.182-7.021-7.2   c-3.421-1.17-7.5-3.57-10.051-5.971c-3.029-2.88-4.35-5.369-5.938-11.369c-0.66-2.46-2.4-7.71-3.87-11.67   c-3.6-9.66-3.96-10.86-3.96-13.53c0-1.98-0.061-2.22-0.57-2.22C558.3,491.4,557.76,491.79,557.43,492.27z" style="stroke:black;fill:#BFDAE3"/><path id="180623552" parent_id="180608862" order="2" structure_id="1510000000000000" d="M544.561,533.46   c-0.211,0.21-0.359,0.78-0.359,1.29c0,1.14,0.479,1.65,1.5,1.65c1.38,0,1.95-1.32,1.2-2.73   C546.54,533.01,545.13,532.89,544.561,533.46z" style="stroke:black;fill:#BFDAE3"/><path id="180623552" parent_id="180608862" order="3" structure_id="1" d="M548.91,381.21c-0.09-8.22-0.24-15.03-0.33-15.149c-0.135-0.119-4.475-0.218-8.58-0.244V427.8h0.03h5.159   l-0.209-2.188c-0.302-3.36,0.3-9,1.77-16.262C549.15,397.23,549.09,398.01,548.91,381.21z" style="stroke:black;fill:#BFDAE3"/><path id="180623552" parent_id="180608862" order="4" structure_id="1" d="M542.73,495.9c0.81-4.2,0.329-14.102-1.08-23.012c-0.602-3.75-1.08-12.84-1.052-19.738   c0.062-6.961,0.091-6.45-0.448-6.45c-0.054,0-0.104,0.002-0.15,0.004V522.4c0.797-0.063,1.408-0.012,1.59,0.17   c0.18,0.18,0.6,0.33,0.9,0.33c0.54,0,0.569-0.15,0.39-1.44C542.01,515.16,541.92,500.16,542.73,495.9z" style="stroke:black;fill:#BFDAE3"/><path id="180623552" parent_id="180608862" order="5" structure_id="1" d="M634.83,498.18   c-0.51,0.42-0.93,1.052-0.93,1.352c0,2.67,6.239,8.52,9.42,8.88c1.26,0.149,1.38,0.09,1.71-0.63c1.05-2.28-3.15-8.82-6.421-10.05   C637.17,497.16,635.82,497.34,634.83,498.18z" style="stroke:black;fill:#BFDAE3"/><path id="180623552" parent_id="180608862" order="6" structure_id="1" d="M683.13,537.42   c-0.479,0.9-1.2,1.83-1.56,2.1l-0.66,0.45l1.35,2.97c1.381,2.91,2.73,6.962,3.09,9.121c0.211,1.319,0.812,1.471,1.291,0.391   c0.899-1.95,5.761-6.15,7.141-6.15c0.45,0,0.72-0.18,0.72-0.45c0-0.238-0.21-0.448-0.479-0.448c-1.229,0-7.051-5.73-8.641-8.461   c-0.33-0.63-0.78-1.141-0.989-1.141C684.21,535.8,683.641,536.52,683.13,537.42z" style="stroke:black;fill:#BFDAE3"/><path id="180623552" parent_id="180608862" order="7" structure_id="1" d="M711.03,448.71   c-3.75,13.53-5.28,24.36-4.562,32.55c0.99,11.04,3.75,18.57,8.852,24.15c1.74,1.92,5.398,4.59,6.27,4.59   c0.33,0,1.38-0.48,2.34-1.05c3.87-2.37,9.54-4.59,16.771-6.63c2.069-0.602,4.409-1.41,5.189-1.86   c3.119-1.68,5.521-5.49,5.789-9.271l0.181-2.039l-2.97-2.132c-8.579-6.238-24.87-22.5-31.62-31.618   c-2.011-2.67-3.869-7.53-3.869-10.021c0-0.87-0.12-1.08-0.57-1.08C712.35,444.3,712.08,445.02,711.03,448.71z" style="stroke:black;fill:#BFDAE3"/><path id="180623552" parent_id="180608862" order="8" structure_id="1" d="M733.08,443.22   c-5.16,6.721-7.83,9.48-10.32,10.62c-1.619,0.721-2.76,0.78-5.22,0.18c-1.71-0.39-0.931,0.842,4.83,7.53   c3.989,4.682,18.06,18.63,22.29,22.11c7.56,6.21,18.27,12.688,25.29,15.27c2.46,0.87,3.03,0.99,6.148,0.99l3.45,0.03l5.4-2.16   c5.88-2.311,8.28-2.94,10.17-2.67c1.739,0.27,5.67,1.5,10.318,3.21c2.222,0.81,4.201,1.47,4.44,1.47c1.021,0,0.21-0.93-2.34-2.7   c-14.67-10.108-33.87-25.56-49.14-39.479c-6.212-5.67-15.15-14.79-17.7-18.03c-1.08-1.38-2.16-2.49-2.432-2.49   C737.97,437.1,735.811,439.65,733.08,443.22z" style="stroke:black;fill:#BFDAE3"/><path id="180623552" parent_id="180608862" order="9" structure_id="1" d="M747.061,424.14   c-1.2,1.801-3.569,5.222-5.311,7.592c-1.74,2.368-3.15,4.47-3.15,4.648c0,0.9,3.66,5.28,9.302,11.04   c11.818,12.09,31.528,28.95,49.858,42.57c9.36,6.96,18.601,13.108,19.71,13.108c0.36,0,0.87-0.448,1.262-1.14   c0.39-0.6,3.42-5.46,6.778-10.8c3.36-5.312,6.09-9.78,6.09-9.93c0-0.15-1.8-1.2-3.959-2.37C808.83,469.05,771,441.21,754.02,424.71   c-2.159-2.1-4.14-3.81-4.379-3.81C749.43,420.9,748.26,422.37,747.061,424.14z" style="stroke:black;fill:#BFDAE3"/><path id="180623552" parent_id="180608862" order="10" structure_id="1" d="M754.109,407.37   c-0.629,4.439-1.379,6.93-3.149,10.35l-1.38,2.67l3.9,3.78c13.948,13.562,42.93,35.67,63.42,48.391   c7.438,4.619,14.818,8.671,15.09,8.311c0.84-1.05,12.21-19.5,12.21-19.83c0-0.271-1.41-1.08-3.811-2.16   c-17.399-7.83-46.979-26.37-72.841-45.63c-3.12-2.311-7.17-5.4-8.939-6.84c-1.771-1.44-3.42-2.61-3.629-2.61   C754.74,403.8,754.439,404.939,754.109,407.37z" style="stroke:black;fill:#BFDAE3"/><path id="180623552" parent_id="180608862" order="11" structure_id="1" d="M754.68,398.25v4.92l2.852,2.312   c1.56,1.26,5.188,4.079,8.068,6.27c27.271,20.49,58.62,40.08,76.59,47.85c2.012,0.87,2.371,0.962,2.73,0.57   c0.36-0.39,5.939-9.39,10.32-16.649c2.67-4.439,5.938-11.159,5.608-11.459c-0.18-0.15-9.75-3.75-21.3-7.98   c-72.3-26.641-83.67-30.78-84.568-30.78C754.77,393.3,754.65,394.98,754.68,398.25z" style="stroke:black;fill:#BFDAE3"/><path id="180623552" parent_id="180608862" order="12" structure_id="1" d="M738,411.24c-2.43,0.81-3.21,1.38-8.01,5.79   c-8.431,7.77-11.101,11.01-14.07,17.188c-2.04,4.23-2.64,6.841-2.43,10.53c0.3,5.07,1.979,8.22,4.92,9.33   c1.8,0.688,3.57,0.358,5.76-1.11c2.43-1.62,3.93-3.358,10.53-11.938c9.6-12.602,15.239-20.762,15.93-23.13   c0.72-2.4-0.39-4.62-3.03-6.12c-1.5-0.841-1.92-0.932-4.8-0.99C740.37,410.73,739.26,410.82,738,411.24z" style="stroke:black;fill:#BFDAE3"/><path id="180623552" parent_id="180608862" order="13" structure_id="1" d="M869.85,297.96   c-12.959,3.27-34.409,8.76-42.148,10.771c-17.91,4.68-74.25,19.529-74.341,19.619c-0.029,0.03,0.45,2.131,1.109,4.681   c3,11.819,4.352,24.21,3.63,33.54c-0.479,6.72-1.38,11.04-3.27,15.96l-0.87,2.28l0.33,4.079l0.33,4.11l1.95,0.63   c3.539,1.17,27.63,9.96,66.119,24.15C843.48,425.43,860.7,431.7,861,431.7c1.109,0,6.689-13.83,9.87-24.511   c6.21-20.729,9.09-43.319,8.64-67.439c-0.3-14.01-1.14-23.85-3.119-36.09l-1.08-6.66l-0.931,0.03   C873.87,297.03,871.83,297.48,869.85,297.96z" style="stroke:black;fill:#BFDAE3"/><path id="180623552" parent_id="180608862" order="14" structure_id="1" d="M669.15,282.12   c-3.9,0.75-4.052,0.84-11.58,6.78c-10.17,8.04-12.57,10.17-15.271,13.47c-2.64,3.27-7.439,8.04-9.898,9.84   c-4.352,3.24-10.92,11.37-18.66,23.19c-6.84,10.439-9.12,14.67-10.26,19.109c-0.48,1.83-3.091,21.601-3.9,29.49   c-0.271,2.4-0.6,7.92-0.78,12.3c-0.45,11.13-1.14,15.21-3.148,18.84c-0.961,1.71-0.932,1.83,0.18,2.222   c2.188,0.75,6.63,3.148,9.688,5.188c15.78,10.562,40.921,36.69,53.791,55.95c4.289,6.42,5.011,8.61,5.011,15.3   c0,4.44-0.062,4.771-1.802,9.932c-0.118,0.329,0.57,0.81,2.82,1.858c1.65,0.78,3.062,1.41,3.15,1.41c0.119,0,0.51-0.33,0.93-0.75   c1.71-1.71,4.68-0.33,4.68,2.188c0,1.052,0.091,1.23,0.78,1.382c0.45,0.118,0.811,0.18,0.84,0.118   c3.301-5.038,7.051-6.568,12.75-5.158l1.98,0.51l2.76-2.94c7.41-7.83,9.75-14.13,11.04-29.85c0.87-10.83,2.58-20.61,5.28-30.45   c1.92-7.109,3.239-10.77,7.47-20.7c7.53-17.76,9.72-23.608,11.7-31.199c1.05-4.11,2.61-8.4,5.55-15.15   c4.021-9.33,4.8-13.68,4.08-22.95c-1.02-12.689-3.48-22.229-8.311-31.95c-1.351-2.729-3.301-6.18-4.289-7.649   c-9-13.44-26.461-26.4-40.32-29.88C682.23,281.76,672.42,281.49,669.15,282.12z" style="stroke:black;fill:#BFDAE3"/><path id="180623552" parent_id="180608862" order="15" structure_id="1" d="M867.3,275.73   c-7.38,3.42-27.659,10.71-73.8,26.52c-25.23,8.64-43.38,15-43.77,15.33c-0.091,0.06,3.238,10.32,3.42,10.56   c0.06,0.061,14.909-3.81,33.028-8.609c41.102-10.83,63.392-16.62,77.67-20.16c6.12-1.5,11.16-2.79,11.222-2.85   c0.18-0.15-1.98-9.57-3.57-15.48c-0.811-3.12-1.5-5.7-1.5-5.79C870,274.89,868.561,275.16,867.3,275.73z" style="stroke:black;fill:#BFDAE3"/><path id="180623552" parent_id="180608862" order="16" structure_id="1" d="M812.82,231.24   c-34.08,27.27-55.5,44.07-70.381,55.229c-2.939,2.22-5.341,4.17-5.341,4.38s0.9,1.86,1.98,3.66c2.64,4.29,5.91,11.1,8.34,17.25   c1.08,2.73,1.98,5.13,1.98,5.311c0,0.479,0.239,0.42,3.63-0.84c3.93-1.471,21.27-7.5,41.52-14.431   c43.38-14.85,60.42-20.97,71.641-25.71c2.729-1.14,3.211-1.44,3.211-2.01c0-0.87-3.631-11.67-5.791-17.13   c-5.101-13.11-11.341-25.8-18.271-37.29c-3.84-6.39-5.67-9.06-6.21-9.06C838.859,210.6,827.01,219.87,812.82,231.24z" style="stroke:black;fill:#BFDAE3"/><path id="180623552" parent_id="180608862" order="17" structure_id="1" d="M592.38,418.14   c-0.96,0.63-1.89,1.472-2.04,1.86c-0.39,0.96-0.09,19.5,0.36,24.45c1.47,16.17,4.47,30.239,8.909,41.55   c6.841,17.4,18.45,28.8,32.25,31.62c2.881,0.6,8.461,0.63,11.399,0.06c5.552-1.08,10.92-3.869,14.642-7.648   c2.608-2.67,4.198-5.221,5.31-8.58c1.021-3.15,1.32-9.45,0.57-13.29c-0.75-4.08-2.37-6.99-8.37-15.062   c-15.812-21.27-38.221-43.528-52.53-52.17c-2.85-1.71-7.648-3.96-8.43-3.898C594.3,417.03,593.34,417.54,592.38,418.14z    M644.76,481.74c2.91,1.438,7.142,4.528,9.722,7.108c3.09,3.062,4.318,6.57,3.3,9.302c-0.57,1.438-2.16,3.028-3.36,3.33   c-3.479,0.868-10.14-2.132-18.45-8.312c-2.76-2.07-3.63-2.88-4.14-3.93c-1.62-3.392,0.15-7.38,3.779-8.552   c0.659-0.209,2.311-0.328,3.899-0.3C642.03,480.48,642.42,480.57,644.76,481.74z M638.609,497.73c2.221,0.84,5.25,4.438,6.239,7.47   c0.9,2.7,0,3.96-2.22,3.148c-3.568-1.26-8.729-6.479-8.729-8.818c0-0.3,0.42-0.932,0.93-1.352   C635.82,497.34,637.17,497.16,638.609,497.73z" style="stroke:black;fill:#BFDAE3"/><path id="180623552" parent_id="180608862" order="18" structure_id="1" d="M814.95,202.41   c-24.841,23.16-48.511,45.39-57.9,54.39c-16.68,15.99-26.25,25.38-26.25,25.74c0,0.21,0.602,1.11,1.32,1.95   c0.689,0.87,2.01,2.55,2.85,3.72c0.87,1.2,1.71,2.19,1.86,2.19c1.05,0,35.76-27.03,75.12-58.53c27.3-21.81,26.85-21.45,26.85-22.05   c0-1.23-11.97-17.22-12.87-17.22C825.66,192.63,820.74,197.04,814.95,202.41z" style="stroke:black;fill:#BFDAE3"/><path id="180623552" parent_id="180608862" order="19" structure_id="1" d="M773.82,155.61   c-26.25,40.56-54.211,82.47-65.972,98.939c-2.1,2.97-3.898,5.64-3.989,5.91c-0.091,0.36,0.33,0.78,1.471,1.5   c8.16,4.95,15.029,10.23,20.609,15.75c2.37,2.37,4.439,4.29,4.591,4.29c0.18,0,5.729-5.25,12.359-11.64   c18.931-18.27,39.841-38.04,68.699-64.86c7.71-7.14,14.01-13.2,14.01-13.44c0-0.51-1.35-2.16-6.39-7.8   c-8.521-9.51-18.271-18.51-28.41-26.16c-4.05-3.09-12.06-8.4-12.63-8.4C777.84,149.7,776.37,151.71,773.82,155.61z" style="stroke:black;fill:#BFDAE3"/><path id="180623552" parent_id="180608862" order="20" structure_id="1" d="M649.8,117.39c0,4.11-0.359,20.07-0.898,39.51   c-1.08,39.3-2.4,71.85-3.182,78.81c-0.12,0.87-0.12,1.59-0.06,1.59c0.09,0,1.62,0.271,3.42,0.6c5.43,0.96,8.13,1.83,19.32,6.09   c10.02,3.81,21.63,9.24,30.6,14.28c2.07,1.17,3.96,2.13,4.2,2.13c0.75,0,11.97-16.08,29.37-42.15   c21.42-32.04,45.119-68.46,44.909-69c-0.211-0.57-7.409-4.56-14.041-7.8c-19.318-9.39-41.34-16.38-68.398-21.72   c-11.64-2.31-26.46-4.47-37.89-5.58c-2.642-0.24-5.37-0.51-6.062-0.6l-1.29-0.15L649.8,117.39L649.8,117.39z" style="stroke:black;fill:#BFDAE3"/><path id="180623552" parent_id="180608862" order="21" structure_id="1111022260200000" d="M615.9,112.53   c-8.461,0.3-14.791,1.26-21.87,3.3c-7.2,2.1-15.45,5.94-21.78,10.14c-3.75,2.49-7.62,5.46-7.65,5.82c0,0.12,2.07,3.36,4.62,7.2   c6.391,9.66,12.21,19.02,33.21,53.52c11.79,19.351,22.29,36.33,26.852,43.53c1.47,2.28,1.89,2.73,2.37,2.61   c0.33-0.09,1.618-0.45,2.85-0.81c1.771-0.479,3.18-0.63,6.63-0.66l4.38-0.03l0.36-5.4c1.109-17.34,2.521-56.88,3.33-94.05   c0.148-7.68,0.359-16.26,0.45-19.08l0.118-5.13l-2.159-0.18C639.21,112.59,624.09,112.2,615.9,112.53z" style="stroke:black;fill:#1F9D5A"/><path id="180623552" parent_id="180608862" order="22" structure_id="1" d="M559.68,136.26   c-6.028,6.09-9.448,11.01-12.21,17.521c-2.818,6.63-4.859,14.16-6.3,23.37c-0.6,3.84-0.689,5.52-0.779,19.8l-0.149,15.6l3.42,1.021   c25.319,7.5,60.93,20.1,79.38,28.05c1.38,0.6,2.729,1.08,3,1.08c0.3,0,0.87-0.48,1.351-1.05c0.449-0.57,1.439-1.38,2.159-1.83   c0.75-0.42,1.352-0.9,1.352-1.021c0-0.15-1.11-2.01-2.49-4.11c-3.721-5.73-11.13-17.73-26.91-43.59   c-27.811-45.6-36-58.5-37.32-58.74C563.82,132.27,562.35,133.56,559.68,136.26z" style="stroke:black;fill:#BFDAE3"/><path id="180623552" parent_id="180608862" order="23" structure_id="1" d="M625.29,242.61c-0.3-0.09-2.76-1.08-5.49-2.25c-12.33-5.19-29.7-11.58-48.75-17.91   C556.65,217.65,541.8,213,540.9,213c-0.602,0-0.602,0.21-0.602,42.81c0,45.87-0.03,44.79,1.47,47.73c0.9,1.74,3.212,4.62,4.53,5.61   c0.63,0.479,1.17,0.989,1.2,1.08c0,0.119-0.391,0.359-0.9,0.569c-2.22,0.931-4.438,5.07-3.63,6.811c0.78,1.71,0.091,3.6-1.62,4.409   c-0.465,0.223-0.915,0.335-1.35,0.349v1.286c0.347-0.004,0.697-0.009,1.05-0.015l6.3-0.09l-0.06-1.17c-0.09-1.5,0.72-2.64,2.7-3.78   c2.729-1.56,5.04-1.05,5.52,1.2c0.24,1.2,0.75,1.17,4.261-0.36c6.811-2.97,14.819-7.47,19.319-10.859   c9.96-7.5,24.392-22.77,31.44-33.3c3-4.44,4.71-7.83,8.97-17.88c1.859-4.38,4.021-9.27,4.83-10.86   C625.95,243.33,626.07,242.85,625.29,242.61z" style="stroke:black;fill:#BFDAE3"/><path id="180623552" parent_id="180608862" order="24" structure_id="1" d="M757.41,349.05c-1.2-9.3-3.09-17.189-6.75-28.05c-2.971-8.73-4.892-13.439-8.04-19.8   c-7.47-14.94-16.8-25.5-31.021-35.07c-10.318-6.96-23.67-14.04-36.448-19.38c-9.511-3.96-10.591-4.17-22.5-4.17   c-8.49-0.03-10.261,0.21-13.381,1.8c-3.359,1.68-4.771,3.48-11.221,14.22c-11.58,19.26-18.42,27.57-34.26,41.67   c-13.56,12.03-22.92,17.58-36.09,21.3c-5.93,1.684-11.245,2.408-17.7,2.357v41.763c10.199,0,20.387,1.497,27.3,4.479   c3.24,1.41,5.28,2.67,7.65,4.8c3.06,2.73,5.068,3.3,7.56,2.101c1.802-0.87,2.851-2.28,2.61-3.51c-0.3-1.41,0.42-4.801,1.439-6.961   c0.779-1.619,1.709-2.729,5.489-6.449c5.432-5.34,6.57-6.75,12.15-15c11.79-17.37,25.648-34.53,37.2-46.08   c8.398-8.4,13.739-12.3,20.698-15c7.562-2.97,16.291-3.45,24.211-1.32c13.351,3.57,30.63,16.5,39.359,29.49   c3.57,5.34,6.75,12.09,9,19.08c2.1,6.6,3.33,13.56,3.96,22.74c0.54,7.89-0.18,11.129-5.1,22.859   c-3.062,7.29-3.602,8.82-4.682,13.11c-1.56,6.3-4.14,13.35-9.6,26.22c-5.58,13.14-6.75,16.17-8.1,20.52   c-3.15,10.32-5.37,21.33-6.302,31.08c-1.198,12.87-1.8,16.771-3.358,21.42c-1.771,5.312-4.051,8.791-9.15,14.012   c-3.18,3.27-3.72,4.02-2.76,4.02c1.109,0,9.09-7.53,11.188-10.59c2.791-4.08,4.53-11.58,5.58-24c0.541-6.36,1.44-11.7,3.15-18.51   c1.65-6.602,4.29-15.36,5.58-18.42c2.43-5.79,6.39-11.102,12.27-16.352c17.28-15.54,27.302-31.17,30.062-46.979   C758.16,368.189,758.16,354.96,757.41,349.05z" style="stroke:black;fill:#BFDAE3"/><path id="180623552" parent_id="180608862" order="25" structure_id="1" d="M553.41,377.16   c-0.301,17.1-0.93,23.608-3.36,34.29c-0.54,2.46-1.35,6.479-1.77,8.88c-0.421,2.4-0.9,4.74-1.08,5.188   c-0.15,0.45-0.3,1.08-0.3,1.41c0,0.54,0.118,0.602,0.989,0.42c1.5-0.329,3.511-1.47,5.129-2.88c2.28-2.01,3.632-4.38,4.98-8.7   c2.7-8.579,6.87-17.368,11.82-24.93c3.51-5.37,4.89-8.91,5.188-13.17l0.18-2.609l-1.77-1.381c-2.22-1.74-5.73-3.479-9.359-4.68   c-3.029-0.96-8.159-2.1-9.601-2.1h-0.87L553.41,377.16z" style="stroke:black;fill:#BFDAE3"/><path id="180623552" parent_id="180608862" order="26" structure_id="1" d="M757.41,349.05c-1.2-9.3-3.09-17.189-6.75-28.05c-2.971-8.73-4.892-13.439-8.04-19.8   c-7.47-14.94-16.8-25.5-31.021-35.07c-10.318-6.96-23.67-14.04-36.448-19.38c-9.511-3.96-10.591-4.17-22.5-4.17   c-8.49-0.03-10.261,0.21-13.381,1.8c-3.359,1.68-4.771,3.48-11.221,14.22c-11.58,19.26-18.42,27.57-34.26,41.67   c-13.56,12.03-22.92,17.58-36.09,21.3c-5.93,1.684-11.245,2.408-17.7,2.357v41.763c10.199,0,20.387,1.497,27.3,4.479   c3.24,1.41,5.28,2.67,7.65,4.8c3.06,2.73,5.068,3.3,7.56,2.101c1.802-0.87,2.851-2.28,2.61-3.51c-0.3-1.41,0.42-4.801,1.439-6.961   c0.779-1.619,1.709-2.729,5.489-6.449c5.432-5.34,6.57-6.75,12.15-15c11.79-17.37,25.648-34.53,37.2-46.08   c8.398-8.4,13.739-12.3,20.698-15c7.562-2.97,16.291-3.45,24.211-1.32c13.351,3.57,30.63,16.5,39.359,29.49   c3.57,5.34,6.75,12.09,9,19.08c2.1,6.6,3.33,13.56,3.96,22.74c0.54,7.89-0.18,11.129-5.1,22.859   c-3.062,7.29-3.602,8.82-4.682,13.11c-1.56,6.3-4.14,13.35-9.6,26.22c-5.58,13.14-6.75,16.17-8.1,20.52   c-3.15,10.32-5.37,21.33-6.302,31.08c-1.198,12.87-1.8,16.771-3.358,21.42c-1.771,5.312-4.051,8.791-9.15,14.012   c-3.18,3.27-3.72,4.02-2.76,4.02c1.109,0,9.09-7.53,11.188-10.59c2.791-4.08,4.53-11.58,5.58-24c0.541-6.36,1.44-11.7,3.15-18.51   c1.65-6.602,4.29-15.36,5.58-18.42c2.43-5.79,6.39-11.102,12.27-16.352c17.28-15.54,27.302-31.17,30.062-46.979   C758.16,368.189,758.16,354.96,757.41,349.05z" style="stroke:black;fill:#BFDAE3"/><path id="180623552" parent_id="180608862" order="27" structure_id="1" d="M587.34,421.2   c-2.34,1.41-3.51,2.88-7.05,8.938c-7.95,13.562-15.99,34.38-15.99,41.4c0,0.84,0.54,5.25,1.17,9.87   c2.94,20.55,3.21,26.399,1.65,33.24c-0.479,2.068-0.479,2.159,0.3,5.25c1.38,5.608,3.689,9.21,7.83,12.148   c1.83,1.32,6.24,3.54,8.939,4.5c1.95,0.69,3.659,2.73,6.33,7.5c1.801,3.24,2.399,4.05,3.541,4.83   c3.42,2.31,11.398,3.181,17.488,1.89c4.71-0.988,9.9-0.988,11.94,0c1.68,0.842,2.31,1.86,2.31,3.78c0,1.562,0,1.562,2.852,0.75   c3.81-1.109,8.64-1.83,13.289-2.01c2.729-0.12,4.561-0.3,4.561-0.479c0-0.181-0.54-0.779-1.2-1.319   c-1.859-1.59-2.818-3.45-2.58-4.92c0.301-1.802,1.23-3.42,2.19-3.841c0.75-0.301,1.26-0.211,3.99,0.779   c2.64,0.93,3.539,1.11,5.55,1.142c3.06,0,3.51-0.24,7.62-4.171c1.8-1.711,3.93-3.479,4.71-3.961c0.81-0.448,1.5-0.84,1.56-0.898   c0.062-0.03-0.06-0.63-0.24-1.352c-0.42-1.648,0.33-4.77,1.95-8.278c0.602-1.29,1.62-4.23,2.28-6.511   c0.66-2.311,1.59-5.189,2.07-6.391c0.51-1.229,0.898-2.49,0.898-2.82c0-0.81-1.408-0.75-2.31,0.092c-1.771,1.648-4.59,0-4.59-2.7   c0-0.75-0.271-0.96-2.761-2.101c-1.53-0.689-2.939-1.261-3.149-1.261c-0.181,0-0.78,0.78-1.29,1.71c-0.54,0.96-2.13,2.88-3.57,4.29   c-8.79,8.67-22.41,10.47-34.26,4.5c-5.22-2.64-11.49-8.069-15.42-13.35c-5.67-7.62-9.9-17.46-13.17-30.75   c-3.3-13.352-4.74-26.102-4.8-41.94c-0.03-5.64-0.121-8.76-0.33-8.76C589.5,420,588.45,420.54,587.34,421.2z" style="stroke:black;fill:#BFDAE3"/><path id="180623552" parent_id="180608862" order="28" structure_id="1" d="M587.34,421.2   c-2.34,1.41-3.51,2.88-7.05,8.938c-7.95,13.562-15.99,34.38-15.99,41.4c0,0.84,0.54,5.25,1.17,9.87   c2.94,20.55,3.21,26.399,1.65,33.24c-0.479,2.068-0.479,2.159,0.3,5.25c1.38,5.608,3.689,9.21,7.83,12.148   c1.83,1.32,6.24,3.54,8.939,4.5c1.95,0.69,3.659,2.73,6.33,7.5c1.801,3.24,2.399,4.05,3.541,4.83   c3.42,2.31,11.398,3.181,17.488,1.89c4.71-0.988,9.9-0.988,11.94,0c1.68,0.842,2.31,1.86,2.31,3.78c0,1.562,0,1.562,2.852,0.75   c3.81-1.109,8.64-1.83,13.289-2.01c2.729-0.12,4.561-0.3,4.561-0.479c0-0.181-0.54-0.779-1.2-1.319   c-1.859-1.59-2.818-3.45-2.58-4.92c0.301-1.802,1.23-3.42,2.19-3.841c0.75-0.301,1.26-0.211,3.99,0.779   c2.64,0.93,3.539,1.11,5.55,1.142c3.06,0,3.51-0.24,7.62-4.171c1.8-1.711,3.93-3.479,4.71-3.961c0.81-0.448,1.5-0.84,1.56-0.898   c0.062-0.03-0.06-0.63-0.24-1.352c-0.42-1.648,0.33-4.77,1.95-8.278c0.602-1.29,1.62-4.23,2.28-6.511   c0.66-2.311,1.59-5.189,2.07-6.391c0.51-1.229,0.898-2.49,0.898-2.82c0-0.81-1.408-0.75-2.31,0.092c-1.771,1.648-4.59,0-4.59-2.7   c0-0.75-0.271-0.96-2.761-2.101c-1.53-0.689-2.939-1.261-3.149-1.261c-0.181,0-0.78,0.78-1.29,1.71c-0.54,0.96-2.13,2.88-3.57,4.29   c-8.79,8.67-22.41,10.47-34.26,4.5c-5.22-2.64-11.49-8.069-15.42-13.35c-5.67-7.62-9.9-17.46-13.17-30.75   c-3.3-13.352-4.74-26.102-4.8-41.94c-0.03-5.64-0.121-8.76-0.33-8.76C589.5,420,588.45,420.54,587.34,421.2z" style="stroke:black;fill:#BFDAE3"/><path id="180623552" parent_id="180608862" order="29" structure_id="1" d="M545.88,521.16c0.271,2.79,1.17,7.05,1.92,9   c1.261,3.39,2.73,5.13,7.021,8.31c7.979,5.91,13.438,11.102,16.948,16.08c3.812,5.37,7.65,9.09,18.182,17.58   c9.75,7.86,11.13,8.76,15.45,9.84c4.05,1.021,7.56,1.11,12.118,0.33c2.67-0.45,4.621-0.63,6.211-0.54   c2.221,0.12,2.609,0.271,7.529,2.7c8.43,4.17,11.4,5.16,15.69,5.13c4.409,0,10.739-1.979,13.29-4.14   c1.619-1.352,1.92-2.312,2.13-6.42c0.18-3.392,0.271-3.75,0.898-4.261c0.871-0.721,1.11-0.721,4.562,0.061   c1.649,0.359,4.438,0.689,6.72,0.78c3.511,0.12,4.681,0.028,11.7-1.05c11.79-1.83,11.1-1.802,15.359-0.392   c4.171,1.41,5.909,1.562,7.109,0.601c1.021-0.811,1.23-1.381,1.8-4.649c0.271-1.44,0.69-3.03,0.99-3.57   c0.51-0.96,3.66-3.63,6.33-5.398c0.69-0.45,1.26-0.99,1.26-1.17c0-0.42-2.97-2.28-3.6-2.28c-0.24,0-1.47,1.02-2.7,2.28   c-2.58,2.608-5.79,4.858-8.31,5.85c-1.53,0.6-2.552,0.689-8.341,0.9c-7.021,0.238-9.09,0.568-11.67,1.92   c-1.649,0.84-2.67,0.898-5.461,0.42c-1.89-0.33-1.92-0.33-3.84,0.75c-1.05,0.6-2.25,1.08-2.609,1.08   c-0.391,0-1.649-0.631-2.76-1.41c-1.92-1.32-2.221-1.44-4.229-1.53c-2.189-0.12-6.062,0.602-8.312,1.561   c-1.528,0.631-2.97,1.92-2.97,2.609c0,0.33,0.87,1.53,1.95,2.67c2.04,2.19,2.43,3,2.16,4.71c-0.42,2.58-2.552,3.36-10.53,3.96   c-8.76,0.66-15.09-0.75-20.94-4.71c-4.02-2.698-6.209-3-12.539-1.68c-4.229,0.87-5.521,0.81-7.979-0.3   c-2.312-1.05-3.75-2.312-6.72-5.88c-3.36-4.021-5.94-6.48-7.561-7.2c-0.721-0.3-2.16-0.63-3.24-0.75   c-4.949-0.48-6.659-1.14-9.301-3.54c-2.1-1.891-2.398-2.49-2.58-5.1c-0.09-1.2-0.42-3.24-0.75-4.53   c-0.629-2.7-0.72-5.011-0.238-6.9l0.3-1.26l-2.761-2.851c-3.601-3.631-6.989-7.891-9.899-12.421c-1.29-1.979-2.521-3.868-2.76-4.17   c-0.392-0.568-0.45-0.568-2.851,0.211c-1.351,0.449-2.761,0.811-3.149,0.811c-1.38,0-3.722-0.9-6.21-2.4   c-1.381-0.81-2.61-1.5-2.73-1.5C545.82,519.3,545.79,520.14,545.88,521.16z" style="stroke:black;fill:#BFDAE3"/><path id="180623552" parent_id="180608862" order="30" structure_id="1" d="M691.32,547.59   c-2.49,1.83-4.052,3.63-5.4,6.24c-1.47,2.82-4.229,5.609-6.84,6.87c-2.221,1.109-3.03,1.08-3.9-0.09   c-0.539-0.75-0.63-1.262-0.63-4.29c0-2.73-0.09-3.511-0.45-3.75c-0.568-0.392-3.27-0.15-6.6,0.54   c-2.25,0.479-4.021,0.51-15.3,0.449c-14.19-0.061-16.44,0.091-22.47,1.591c-3.062,0.778-4.352,1.26-5.552,2.068   c-1.71,1.2-4.319,2.16-6.51,2.46c-1.47,0.21-1.5,0.21-1.32,1.052c0.12,0.479,0.12,1.108,0,1.438c-0.63,2.04-6.778,1.74-17.698-0.87   c-5.91-1.41-8.91-1.8-13.74-1.8c-4.051,0-4.44,0.062-4.351,0.51c0.181,1.021,3.149,2.13,6.899,2.61c2.28,0.3,3.99,0.689,4.8,1.11   c1.62,0.84,4.142,3.209,7.5,7.14c5.79,6.72,7.86,7.5,15.69,5.88c5.609-1.17,7.47-0.811,12.12,2.34   c5.039,3.392,10.5,4.65,18.63,4.29c6.81-0.27,10.05-0.898,11.279-2.13c0.569-0.57,0.721-1.05,0.721-2.25   c0-1.92-0.45-2.76-2.37-4.59c-1.71-1.59-1.95-2.49-0.9-3.54c1.53-1.53,6.36-3.03,10.021-3.061c2.28-0.061,3.148,0.271,5.52,2.101   c0.72,0.54,1.562,0.99,1.86,0.99s1.41-0.48,2.52-1.052l1.98-1.02l3.39,0.18c3.24,0.18,3.421,0.15,4.71-0.6   c2.19-1.26,3.42-1.471,10.62-1.68c7.682-0.271,8.7-0.48,12.181-2.58c2.039-1.262,7.171-6,7.171-6.632   c0-0.238-0.632-0.81-1.382-1.26c-0.75-0.449-2.938-1.8-4.858-3c-2.312-1.41-4.98-2.729-7.771-3.84   c-2.341-0.9-4.739-1.979-5.341-2.4C694.05,546,693.33,546.12,691.32,547.59z" style="stroke:black;fill:#BFDAE3"/><path id="180623552" parent_id="180608862" order="31" structure_id="1" d="M682.77,504.6   c-4.829,0.841-7.438,4.591-10.35,14.91c-0.57,2.07-1.59,4.92-2.22,6.36c-1.771,3.96-2.61,7.83-1.86,8.91   c0.12,0.18,1.26,0.3,2.76,0.3c2.25-0.03,2.791,0.09,4.562,0.93c1.109,0.51,2.67,1.562,3.479,2.312   c0.811,0.75,1.681,1.38,1.949,1.38c0.51,0,1.62-1.352,2.43-2.91c0.602-1.17,0.602-2.37,0.03-4.74   c-0.568-2.34-1.14-10.41-0.989-13.53c0.181-3.538,1.709-6.568,5.761-11.34c0.63-0.75,1.08-1.56,0.989-1.8   C689.04,504.72,684.93,504.21,682.77,504.6z" style="stroke:black;fill:#BFDAE3"/><path id="180623552" parent_id="180608862" order="32" structure_id="1" d="M791.04,495.6   c-2.13,0.54-6.899,2.49-7.05,2.91c-0.09,0.21,0,0.812,0.21,1.29c0.33,0.812,0.42,0.87,1.8,0.69c1.92-0.21,3.93,0.479,6.54,2.31   c3.87,2.73,6.149,6.03,6.51,9.45c0.72,6.78-6.239,19.83-12.12,22.71c-1.08,0.54-1.89,0.69-3.688,0.69h-2.28l-8.819-4.41   c-8.971-4.5-12.569-5.94-16.291-6.57c-3.898-0.63-7.08,0.63-9.3,3.63c-1.47,1.98-2.13,3.602-3,7.32   c-0.989,4.2-1.859,6.27-3.898,9.36c-3.78,5.67-8.37,9.51-15.66,13.08c-2.04,0.988-3.69,1.979-3.69,2.158   c0.03,0.182,0.841,0.932,1.83,1.682c2.19,1.619,4.261,3.869,5.16,5.52c0.51,0.96,0.63,1.71,0.601,3.392   c-0.03,2.64,0.029,2.64,3.149,1.14c5.94-2.852,8.25-5.13,14.01-13.8c6.69-10.11,8.432-11.642,13.17-11.61   c4.05,0.03,9.091,1.41,18.24,5.01l4.38,1.71l2.521-1.89c6.841-5.22,16.53-13.95,20.041-18.06c3.39-4.021,5.068-7.352,10.35-20.91   c1.26-3.211,2.641-6.42,3.03-7.11c0.389-0.689,0.72-1.38,0.72-1.53c0-0.63-8.609-4.26-16.05-6.75   C796.68,495.42,793.47,495,791.04,495.6z" style="stroke:black;fill:#BFDAE3"/><path id="180623552" parent_id="180608862" order="33" structure_id="1" d="M785.49,500.61   c-1.11,0.21-2.19,1.77-2.19,3.12c0,0.959,0.3,1.618,1.32,3.06c2.67,3.78,3.479,6.39,3.479,11.31c0,4.41-1.108,7.562-3,8.552   c-2.1,1.08-3.479,0.659-19.68-6.091c-3.99-1.681-7.89-3.181-8.67-3.391c-1.92-0.479-5.91-0.18-7.979,0.6   c-5.609,2.132-9.149,6.03-16.5,18.271c-2.971,4.979-5.489,8.28-11.369,14.939c-2.73,3.091-4.98,5.819-5.041,6.091   c-0.061,0.51,3.181,2.729,4.021,2.729c0.78,0,8.011-3.81,10.83-5.67c5.16-3.45,10.26-9.96,11.88-15.18   c0.24-0.84,0.69-2.521,0.96-3.78c0.57-2.729,2.07-5.939,3.57-7.68c0.66-0.75,1.92-1.65,3.03-2.222c1.83-0.898,2.1-0.959,4.438-0.81   c4.2,0.271,8.7,2.04,19.41,7.65c6.03,3.148,8.07,3.84,10.29,3.568c2.04-0.27,3.601-1.14,5.7-3.148   c3.358-3.182,7.108-9.842,8.34-14.762c0.84-3.238,0.72-6.959-0.271-9.028c-0.989-2.011-4.771-5.67-7.2-6.931   C788.91,500.79,786.84,500.311,785.49,500.61z" style="stroke:black;fill:#BFDAE3"/><path id="180623552" parent_id="180608862" order="34" structure_id="1" d="M751.74,491.52   c-0.21,2.49-1.32,4.86-3.21,6.87c-1.86,1.98-3.721,2.94-7.98,4.08c-10.29,2.79-18.33,6.66-21.96,10.62   c-1.47,1.59-1.56,1.74-5.04,9.21c-2.939,6.271-4.83,9.57-7.439,12.812c-2.159,2.729-6.601,6.898-9.359,8.818   c-1.229,0.87-2.25,1.771-2.25,1.98c0,0.63,1.979,1.68,6.6,3.54c2.432,0.988,5.521,2.488,7.052,3.45   c4.26,2.698,6.448,3.898,7.02,3.898s9-9.36,12.391-13.77c1.109-1.471,3.63-5.312,5.641-8.58c4.2-6.87,5.79-9.182,8.04-11.61   c4.05-4.38,10.05-6.84,14.55-5.939c1.021,0.181,4.89,1.619,8.61,3.149c15.27,6.33,16.83,6.9,18.72,6.9c1.68,0,1.8-0.062,2.88-1.29   c1.47-1.65,1.95-3.511,1.92-7.562c0-5.278-0.84-7.92-3.87-12.119c-1.26-1.711-1.29-2.431-0.3-3.899c0.42-0.601,0.75-1.29,0.75-1.53   c0-0.66-0.66-1.95-0.99-1.95c-0.149,0-1.528,0.42-3.028,0.932c-2.432,0.84-2.972,0.93-4.92,0.75   c-4.44-0.36-11.132-3.24-19.171-8.221c-2.159-1.351-4.051-2.461-4.229-2.461C752.01,489.6,751.8,490.47,751.74,491.52z" style="stroke:black;fill:#BFDAE3"/><path id="180623552" parent_id="180608862" order="35" structure_id="1" d="M705.45,482.46c-0.091,0.39-0.42,2.01-0.78,3.66   c-0.72,3.42-1.83,6.898-2.85,8.91c-1.23,2.43-5.28,6.87-9.69,10.59c-4.59,3.87-7.021,6.569-8.43,9.36   c-0.87,1.709-0.9,1.89-0.9,6.06c0,2.34,0.15,5.58,0.3,7.2c0.602,5.52,1.591,8.16,4.17,11.34c1.771,2.13,6.062,5.82,6.78,5.82   c1.141,0,6.57-4.32,9.9-7.86c3.12-3.36,5.7-7.32,8.28-12.69c5.278-11.068,4.89-10.409,6.988-12.39c1.08-1.021,1.98-1.95,1.98-2.1   c0-0.12-0.87-0.812-1.92-1.5c-3.75-2.46-7.29-7.021-9.48-12.12c-1.229-2.88-2.64-8.37-3.09-12.03c-0.24-1.95-0.479-2.91-0.72-2.91   C705.78,481.8,705.54,482.1,705.45,482.46z" style="stroke:black;fill:#BFDAE3"/><path id="180623552" parent_id="180608862" order="36" structure_id="1" d="M625.29,242.61c-0.3-0.09-2.76-1.08-5.49-2.25c-12.33-5.19-29.7-11.58-48.75-17.91   C556.65,217.65,541.8,213,540.9,213c-0.602,0-0.602,0.21-0.602,42.81c0,45.87-0.03,44.79,1.47,47.73c0.9,1.74,3.212,4.62,4.53,5.61   c0.63,0.479,1.17,0.989,1.2,1.08c0,0.119-0.391,0.359-0.9,0.569c-2.22,0.931-4.438,5.07-3.63,6.811c0.78,1.71,0.091,3.6-1.62,4.409   c-0.465,0.223-0.915,0.335-1.35,0.349v1.286c0.347-0.004,0.697-0.009,1.05-0.015l6.3-0.09l-0.06-1.17c-0.09-1.5,0.72-2.64,2.7-3.78   c2.729-1.56,5.04-1.05,5.52,1.2c0.24,1.2,0.75,1.17,4.261-0.36c6.811-2.97,14.819-7.47,19.319-10.859   c9.96-7.5,24.392-22.77,31.44-33.3c3-4.44,4.71-7.83,8.97-17.88c1.859-4.38,4.021-9.27,4.83-10.86   C625.95,243.33,626.07,242.85,625.29,242.61z" style="stroke:black;fill:#BFDAE3"/><path id="180623552" parent_id="180608862" order="37" structure_id="1" d="M667.561,536.1c-1.291,0.66-2.971,1.98-5.25,4.2   c-1.859,1.771-3.931,3.511-4.649,3.87c-2.01,1.021-4.44,0.9-8.25-0.39c-1.681-0.602-3.45-1.08-3.87-1.08   c-1.53,0-2.64,1.979-2.64,4.68c0,2.13,2.608,4.89,5.398,5.76c3.091,0.96,14.64,0.66,21.181-0.54   c3.391-0.63,4.471-0.568,4.921,0.302c0.18,0.3,0.3,2.01,0.3,3.81c0,3.87,0.3,4.59,2.01,4.59c0.601,0,1.71-0.3,2.46-0.66   c1.83-0.898,5.61-4.528,6.03-5.818c0.659-1.98-0.48-6.631-2.852-11.73c-2.34-5.01-5.789-7.59-10.47-7.83   C669.63,535.17,669.3,535.23,667.561,536.1z" style="stroke:black;fill:#BFDAE3"/><path id="180623552" parent_id="180608862" order="38" structure_id="1" d="M636.75,237.51c-2.43,0.33-5.7,1.44-7.35,2.521   c-2.94,1.89-4.2,4.14-9.75,17.22c-5.28,12.51-7.562,16.59-13.32,23.97c-6.75,8.58-17.73,19.771-25.98,26.46   c-4.438,3.601-13.56,8.82-20.909,12c-1.92,0.811-2.67,1.62-1.5,1.62c0.301,0,1.739-0.39,3.211-0.87   c11.698-3.779,20.698-9.479,33.989-21.42c6.959-6.3,9.359-8.61,13.38-13.14c7.291-8.16,11.729-14.4,19.979-28.17   c4.17-6.93,5.311-8.58,7.2-10.53c3.898-3.93,6.72-4.83,15.6-4.89c3.061,0,6.932,0.09,8.641,0.24c2.521,0.18,3.061,0.15,3.061-0.18   c0-0.45-5.7-2.43-10.141-3.54C647.88,237.57,640.68,236.97,636.75,237.51z" style="stroke:black;fill:#BFDAE3"/><path id="180623552" parent_id="180608862" order="39" structure_id="1" d="M757.41,349.05c-1.2-9.3-3.09-17.189-6.75-28.05c-2.971-8.73-4.892-13.439-8.04-19.8   c-7.47-14.94-16.8-25.5-31.021-35.07c-10.318-6.96-23.67-14.04-36.448-19.38c-9.511-3.96-10.591-4.17-22.5-4.17   c-8.49-0.03-10.261,0.21-13.381,1.8c-3.359,1.68-4.771,3.48-11.221,14.22c-11.58,19.26-18.42,27.57-34.26,41.67   c-13.56,12.03-22.92,17.58-36.09,21.3c-5.93,1.684-11.245,2.408-17.7,2.357v41.763c10.199,0,20.387,1.497,27.3,4.479   c3.24,1.41,5.28,2.67,7.65,4.8c3.06,2.73,5.068,3.3,7.56,2.101c1.802-0.87,2.851-2.28,2.61-3.51c-0.3-1.41,0.42-4.801,1.439-6.961   c0.779-1.619,1.709-2.729,5.489-6.449c5.432-5.34,6.57-6.75,12.15-15c11.79-17.37,25.648-34.53,37.2-46.08   c8.398-8.4,13.739-12.3,20.698-15c7.562-2.97,16.291-3.45,24.211-1.32c13.351,3.57,30.63,16.5,39.359,29.49   c3.57,5.34,6.75,12.09,9,19.08c2.1,6.6,3.33,13.56,3.96,22.74c0.54,7.89-0.18,11.129-5.1,22.859   c-3.062,7.29-3.602,8.82-4.682,13.11c-1.56,6.3-4.14,13.35-9.6,26.22c-5.58,13.14-6.75,16.17-8.1,20.52   c-3.15,10.32-5.37,21.33-6.302,31.08c-1.198,12.87-1.8,16.771-3.358,21.42c-1.771,5.312-4.051,8.791-9.15,14.012   c-3.18,3.27-3.72,4.02-2.76,4.02c1.109,0,9.09-7.53,11.188-10.59c2.791-4.08,4.53-11.58,5.58-24c0.541-6.36,1.44-11.7,3.15-18.51   c1.65-6.602,4.29-15.36,5.58-18.42c2.43-5.79,6.39-11.102,12.27-16.352c17.28-15.54,27.302-31.17,30.062-46.979   C758.16,368.189,758.16,354.96,757.41,349.05z" style="stroke:black;fill:#BFDAE3"/><path id="180623552" parent_id="180608862" order="40" structure_id="1" d="M636.57,480.6   c-2.73,0.48-4.381,1.92-5.07,4.472c-0.689,2.608,0.27,4.8,3.09,7.05c5.13,4.02,12.271,8.13,15.69,9.03   c2.398,0.63,3.659,0.568,5.04-0.24c3.898-2.221,3.6-7.5-0.722-11.88c-2.25-2.28-7.56-6.24-9.75-7.262   C642,480.42,639.6,480.09,636.57,480.6z" style="stroke:black;fill:#BFDAE3"/><path id="180623552" parent_id="180608862" order="41" structure_id="2113200030000000" d="M755.4,546.87c-1.472,0.45-2.58,1.2-4.08,2.79   c-2.07,2.188-2.852,3.24-6.511,8.938c-3.811,5.94-5.101,7.53-7.859,9.75c-1.86,1.5-8.641,5.222-9.54,5.28   c-0.391,0-2.312,2.76-2.312,3.3c0,0.511,0.87,0.24,7.5-2.489c7.591-3.149,20.671-8.189,29.82-11.551   c3.78-1.38,7.892-3.028,9.12-3.72c3.78-2.01,8.46-5.188,8.46-5.7c0-0.898-12.96-5.55-17.97-6.42   C759.359,546.57,756.63,546.51,755.4,546.87z" style="stroke:black;fill:#CCCCCC"/><path id="180623552" parent_id="180608862" order="42" structure_id="1" d="M557.43,492.27   c-0.75,1.052-0.778,1.771-0.18,5.132c0.57,3.27,2.13,15.63,2.4,18.75c0.27,3.6,0.688,4.8,2.789,8.25   c4.591,7.47,10.62,14.278,19.711,22.198c9,7.83,12.869,9.841,23.25,12c9.09,1.86,15.568,1.29,18.869-1.68   c1.319-1.2,1.381-1.32,1.351-2.82c0-1.38-0.15-1.71-0.96-2.43c-0.51-0.45-1.44-0.99-2.07-1.14c-1.979-0.57-7.05-0.392-10.38,0.33   c-7.021,1.5-15.99,0.329-19.05-2.551c-0.36-0.329-1.771-2.579-3.12-4.949c-2.88-5.04-3.99-6.182-7.021-7.2   c-3.421-1.17-7.5-3.57-10.051-5.971c-3.029-2.88-4.35-5.369-5.938-11.369c-0.66-2.46-2.4-7.71-3.87-11.67   c-3.6-9.66-3.96-10.86-3.96-13.53c0-1.98-0.061-2.22-0.57-2.22C558.3,491.4,557.76,491.79,557.43,492.27z" style="stroke:black;fill:#BFDAE3"/><path id="180623552" parent_id="180608862" order="43" structure_id="1" d="M562.41,477.689   c-2.46,8.851-3.45,15.091-2.94,18.239c0.15,0.9,1.05,3.75,1.98,6.302c0.93,2.52,2.398,6.538,3.239,8.88   c0.87,2.37,1.711,4.29,1.92,4.29c0.659,0,1.141-4.2,1.141-10.052c-0.03-6.06-0.45-10.35-2.43-23.97   c-0.57-3.93-1.021-7.29-1.021-7.41c0-0.148-0.18-0.27-0.39-0.27C563.641,473.7,563.1,475.11,562.41,477.689z" style="stroke:black;fill:#BFDAE3"/><path id="180623552" parent_id="180608862" order="44" structure_id="1" d="M542.1,522.9c-0.567-0.396-1.328-0.584-2.1-0.571v9.49c0.518,0.007,1.039-0.113,1.53-0.399   c1.38-0.81,2.1-1.95,2.28-3.51C544.02,526.08,543.21,523.68,542.1,522.9z" style="stroke:black;fill:#BFDAE3"/><path id="180623552" parent_id="180608862" order="45" structure_id="1" d="M557.43,492.27   c-0.75,1.052-0.778,1.771-0.18,5.132c0.57,3.27,2.13,15.63,2.4,18.75c0.27,3.6,0.688,4.8,2.789,8.25   c4.591,7.47,10.62,14.278,19.711,22.198c9,7.83,12.869,9.841,23.25,12c9.09,1.86,15.568,1.29,18.869-1.68   c1.319-1.2,1.381-1.32,1.351-2.82c0-1.38-0.15-1.71-0.96-2.43c-0.51-0.45-1.44-0.99-2.07-1.14c-1.979-0.57-7.05-0.392-10.38,0.33   c-7.021,1.5-15.99,0.329-19.05-2.551c-0.36-0.329-1.771-2.579-3.12-4.949c-2.88-5.04-3.99-6.182-7.021-7.2   c-3.421-1.17-7.5-3.57-10.051-5.971c-3.029-2.88-4.35-5.369-5.938-11.369c-0.66-2.46-2.4-7.71-3.87-11.67   c-3.6-9.66-3.96-10.86-3.96-13.53c0-1.98-0.061-2.22-0.57-2.22C558.3,491.4,557.76,491.79,557.43,492.27z" style="stroke:black;fill:#BFDAE3"/><path id="180623552" parent_id="180608862" order="46" structure_id="1" d="M751.8,389.189   c-2.79,5.7-7.83,13.021-12.87,18.721c-1.319,1.5-2.43,2.91-2.43,3.06c0,0.45,0.54,0.42,2.609-0.12   c3.811-0.988,7.891-0.148,10.141,2.102c0.87,0.84,1.38,1.68,1.5,2.37c0.33,1.71,0.93,1.29,1.77-1.261   c1.53-4.591,1.83-7.261,1.83-16.409c0-8.551-0.209-11.28-0.84-11.221C753.3,386.43,752.55,387.66,751.8,389.189z" style="stroke:black;fill:#BFDAE3"/><path id="180623552" parent_id="180608862" order="47" structure_id="1" d="M542.01,316.561c-0.375-0.322-1.218-0.513-2.01-0.547v6.212c0.69-0.004,1.407-0.244,2.04-0.776   c0.51-0.42,0.99-1.14,1.11-1.62C543.359,318.87,542.76,317.189,542.01,316.561z" style="stroke:black;fill:#BFDAE3"/><path id="180623552" parent_id="180608862" order="48" structure_id="4500000030000000" d="M658.05,285.99   c-5.398,2.85-9.45,5.91-15.12,11.43c-11.25,11.01-27.448,31.08-39.06,48.33c-4.561,6.811-7.2,10.02-12.09,14.73   c-3.602,3.479-4.2,4.229-5.16,6.239c-1.59,3.33-1.681,5.79-0.479,11.58c2.011,9.63,2.879,17.55,2.879,26.25   c0,7.352-0.39,10.771-1.618,14.011c-0.75,1.949-0.75,2.341-0.062,2.341c1.021-0.03,7.051-3.99,7.92-5.25   c2.101-3.03,2.82-7.08,3.392-19.352c0.479-10.17,0.898-14.61,3-30.45c1.438-11.13,1.89-12.899,4.229-17.58   c3.3-6.6,12.479-20.399,18.54-27.869c2.67-3.301,6.391-7.11,8.28-8.49c2.398-1.771,6.63-5.97,9.148-9.06   c1.2-1.5,3.03-3.51,4.08-4.47c1.681-1.56,13.53-11.13,15.631-12.66c0.449-0.3,0.841-0.75,0.841-0.96   C662.4,284.04,661.02,284.43,658.05,285.99z M595.47,363.78c0.54,0.42,1.08,1.05,1.261,1.38c0.66,1.229,0.779,3.63,0.391,7.109   c-0.21,1.92-0.811,8.461-1.32,14.58c-1.109,13.44-1.62,18.75-2.31,23.101l-0.511,3.3l-0.211-2.04c-0.118-1.11-0.448-5.43-0.688-9.6   c-0.54-8.312-1.32-16.171-2.46-25.11c-0.811-6.09-0.78-7.83,0.06-10.26C590.67,363.27,593.46,362.1,595.47,363.78z" style="stroke:black;fill:#BFDAE3"/><path id="180623552" parent_id="180608862" order="49" structure_id="1" d="M591.18,363.96   c-1.229,1.229-1.979,3.51-1.979,6.12c0,1.02,0.33,4.47,0.72,7.65c1.05,8.25,1.92,17.22,2.28,23.67c0.39,6.688,0.479,7.5,1.05,7.5   c0.24,0,0.45-0.15,0.45-0.36c0-0.18,0.21-2.31,0.45-4.71c0.239-2.4,0.93-10.05,1.5-16.98c0.568-6.93,1.198-13.649,1.38-14.97   c0.81-5.49-0.36-8.37-3.602-8.79C592.35,362.939,592.109,363.03,591.18,363.96z" style="stroke:black;fill:#BFDAE3"/><path id="180623552" parent_id="180608862" order="50" structure_id="1" d="M545.28,508.77   c-0.78,0.842-1.08,2.342-1.08,5.132c0,3.238,0.479,4.26,2.7,5.76c4.8,3.24,8.039,3.96,11.398,2.58c2.97-1.23,2.61-2.16-3.09-7.892   c-4.68-4.68-6.69-6.148-8.55-6.148C546.18,508.2,545.58,508.439,545.28,508.77z" style="stroke:black;fill:#BFDAE3"/><path id="180623552" parent_id="180608862" order="51" structure_id="1" d="M548.91,381.36l0.18,15.09l-0.84,4.8   c-0.42,2.64-1.26,6.96-1.8,9.6c-1.141,5.432-1.8,12.36-1.44,14.852c0.21,1.35,0.36,1.648,0.84,1.648c0.841,0,1.44-1.858,2.37-7.409   c0.45-2.609,1.141-6.091,1.53-7.739c1.26-5.16,2.55-13.2,2.85-17.7c0.511-7.8,0.961-22.89,0.75-25.38l-0.209-2.46l-1.08-0.18   c-0.601-0.091-1.591-0.181-2.189-0.181h-1.11L548.91,381.36z" style="stroke:black;fill:#BFDAE3"/><path id="180623552" parent_id="180608862" order="52" structure_id="1" d="M584.13,376.02   c-1.739,1.83-4.26,2.221-6.54,0.961c-0.75-0.42-1.529-0.78-1.74-0.78c-0.239,0-0.479,0.6-0.6,1.56c-0.57,4.53-2.04,7.98-5.97,14.04   c-1.44,2.22-3.812,6.48-5.28,9.45c-2.52,5.13-5.7,12.99-5.7,14.13c0,0.271,0.33,1.2,0.75,2.04c0.932,1.892,1.83,5.37,2.28,8.82   c0.51,3.84,0.18,12.449-0.57,15.51c-0.688,2.67-2.31,6.63-3.479,8.49c-0.54,0.87-0.841,1.949-1.08,3.75   c-1.141,9.33-0.811,37.71,0.45,38.22c0.568,0.21,2.818-1.47,2.85-2.13c0.03-1.29,1.59-8.19,2.88-12.63   c0.75-2.641,1.682-6.42,2.07-8.4c1.56-8.279,5.398-18.688,11.28-30.45c3.3-6.63,6.868-12.72,8.818-15.118   c2.25-2.791,3.15-5.07,3.9-10.08c0.54-3.392,0.6-12.69,0.12-17.7c-0.722-8.011-2.82-20.4-3.42-20.4   C584.97,375.3,584.49,375.63,584.13,376.02z" style="stroke:black;fill:#BFDAE3"/><path id="180623552" parent_id="180608862" order="53" structure_id="1" d="M557.7,417.09c0,0.24-0.54,1.53-1.2,2.851   c-1.439,2.851-4.08,5.521-6.811,6.841c-1.561,0.779-2.101,0.87-5.55,0.96l-3.841,0.12v9.358v9.33l1.11,1.65   c1.528,2.31,4.77,5.46,6.42,6.239c2.7,1.319,5.52,0.569,7.8-1.979c1.561-1.8,3.96-6.72,4.74-9.78c0.989-3.84,1.41-9.6,0.989-14.16   c-0.569-6.329-1.949-11.52-3.149-11.76C557.91,416.7,557.7,416.85,557.7,417.09z" style="stroke:black;fill:#BFDAE3"/><path id="180623552" parent_id="180608862" order="54" structure_id="1" d="M667.561,536.1   c-1.291,0.66-2.971,1.98-5.25,4.2c-1.859,1.771-3.931,3.511-4.649,3.87c-2.01,1.021-4.44,0.9-8.25-0.39   c-1.681-0.602-3.45-1.08-3.87-1.08c-1.53,0-2.64,1.979-2.64,4.68c0,2.13,2.608,4.89,5.398,5.76c3.091,0.96,14.64,0.66,21.181-0.54   c3.391-0.63,4.471-0.568,4.921,0.302c0.18,0.3,0.3,2.01,0.3,3.81c0,3.87,0.3,4.59,2.01,4.59c0.601,0,1.71-0.3,2.46-0.66   c1.83-0.898,5.61-4.528,6.03-5.818c0.659-1.98-0.48-6.631-2.852-11.73c-2.34-5.01-5.789-7.59-10.47-7.83   C669.63,535.17,669.3,535.23,667.561,536.1z" style="stroke:black;fill:#BFDAE3"/><path id="180623552" parent_id="180608862" order="55" structure_id="1" d="M576.18,542.76   c-0.33,1.32-0.18,5.521,0.302,7.29c0.238,0.99,0.568,2.94,0.688,4.352c0.42,4.5,0.689,4.648,8.28,4.89   c5.52,0.18,6.87,0.39,15.6,2.43c7.74,1.801,13.62,2.13,14.91,0.842c0.54-0.541,0.601-0.78,0.36-1.621l-0.302-0.989l-3.18-0.21   c-4.979-0.301-12.479-1.95-17.25-3.78c-3.87-1.47-7.71-4.2-14.64-10.38c-2.13-1.92-4.05-3.48-4.23-3.48   C576.51,542.1,576.3,542.4,576.18,542.76z" style="stroke:black;fill:#BFDAE3"/><path id="180623552" parent_id="180608862" order="56" structure_id="1" d="M540.6,453.811   c0,7.079,0.48,15.479,1.052,19.079c0.688,4.38,1.318,10.23,1.528,14.521c0.12,2.188,0.302,3.99,0.42,3.99   c0.12,0,1.261-0.271,2.552-0.602c3.06-0.78,5.25-0.78,7.56,0.062c1.05,0.358,1.979,0.568,2.07,0.449   c0.12-0.091,0.029-2.729-0.15-5.819c-0.568-9.63-0.33-26.76,0.45-31.681c0.21-1.351-0.3-1.5-1.35-0.391   c-0.392,0.391-1.382,1.021-2.19,1.38c-1.71,0.75-2.88,0.66-4.86-0.359c-1.409-0.721-4.289-3.391-5.43-5.069   C540.75,447.21,540.6,447.6,540.6,453.811z" style="stroke:black;fill:#BFDAE3"/></g></g></svg>
