<svg xmlns="http://www.w3.org/2000/svg" width="3024px" height="3024px"><g transform="scale(1.0)"><g id="180608862" order="1" parent_id="" graphic_group_label_id="28" graphic_group_label="Atlas - Adult Rat" sub_image_id="100960468" transform=" scale(1.0, 1.0)"><path id="180623552" parent_id="180608862" order="0" structure_id="1" d="M979.65,386.4c-2.58-42.45-8.433-67.62-23.58-101.25c-9.271-20.55-22.92-43.5-34.41-57.75   c-11.04-13.71-30.15-28.74-58.86-46.26c-19.68-12-44.88-25.47-60.6-32.34c-28.261-12.39-67.08-24.688-101.102-32.07   c-56.159-12.15-87.271-15.45-108.118-11.43c-15.541,3-27.24,9.271-38.58,20.67c-7.23,7.29-11.853,14.4-13.5,20.73   c-0.183,0.75-0.393,1.59-0.48,1.86c-0.115,0.387-0.261,0.546-0.42,0.521V291.6c3.3,0,6,0.12,6,0.24c0,0.15-0.27,1.32-0.63,2.64   c-0.78,2.97-0.87,7.53-0.181,10.35c1.681,6.93,7.229,13.38,14.67,17.01c6.03,2.94,16.291,6.54,21.631,7.562   c0.93,0.18,1.71,0.51,1.71,0.688c0,0.21-0.66,0.721-1.44,1.17c-2.34,1.29-7.199,5.07-12.66,9.87c-2.789,2.46-5.25,4.47-5.43,4.47   c-0.21,0-0.27-0.33-0.18-0.84c1.02-5.819,0.96-7.979-0.54-13.108c-1.14-3.932-2.25-6.182-3.63-7.262   c-3.69-2.908-13.86-6.148-19.32-6.148v325.412c0.814-0.006,1.646-0.055,2.521-0.152c8.189-0.93,37.021-8.04,41.279-10.2   c2.011-1.02,4.08-2.729,4.353-3.6c0.09-0.33,1.02-1.17,2.067-1.92c6.12-4.353,6.841-8.61,2.521-15.062   c-0.813-1.229-2.432-3.061-3.631-4.108c-4.892-4.32-5.012-4.41-5.012-5.521c0-0.688,0.24-1.26,0.75-1.739   c1.291-1.288,2.7-1.051,11.671,1.979l8.069,2.7l2.431,2.28c4.472,4.14,9.359,7.107,13.5,8.188c6.569,1.681,17.972,1.38,30.932-0.78   c16.38-2.729,24.3-6.357,33.42-15.357c2.04-2.011,3.811-3.66,3.93-3.66c0.12,0,0.301,1.17,0.392,2.61   c0.358,4.8,2.131,9.567,4.95,13.289c1.828,2.431,3.209,3.658,5.25,4.681c2.368,1.2,3.868,2.55,6.148,5.607   c2.398,3.212,4.05,4.802,5.49,5.28c0.84,0.271,1.229,0.72,2.34,2.79c2.22,4.17,3.811,6.392,6.42,8.853   c2.88,2.67,6.33,4.827,9.87,6.118c3.21,1.171,5.37,1.352,9.12,0.75c1.68-0.271,3.479-0.391,3.987-0.301   c1.143,0.24,1.563,0.961,2.763,4.801c1.47,4.649,2.52,5.58,11.067,9.899c4.802,2.431,8.49,3.812,13.353,5.07   c7.29,1.89,9.567,2.1,21.6,2.1c10.892,0,13.5-0.148,22.95-1.38c11.01-1.41,17.07-2.82,22.108-5.22   c4.892-2.313,7.739-4.563,9.75-7.682c1.922-2.971,4.382-4.83,7.739-5.791c2.07-0.567,3.091-0.6,13.2-0.329   c8.58,0.239,14.94-0.061,20.07-0.931c10.439-1.8,25.5-11.76,40.529-26.819c7.591-7.591,12.898-14.431,19.801-25.5   c7.229-11.55,14.398-25.38,16.47-31.648c0.63-1.98,2.13-7.439,3.33-12.12c1.979-7.92,4.141-15.63,6.391-22.979   c0.899-2.91,0.932-3.182,0.932-8.699c0-5.4-0.063-5.881-0.932-9.15c-1.711-6.42-4.261-12.358-7.771-18   c-1.32-2.16-1.62-2.88-1.62-3.96c0-1.14,0.18-1.529,1.05-2.43c0.57-0.602,2.04-1.563,3.271-2.13c3.09-1.472,4.287-3.03,6.51-8.461   c3.24-7.92,5.398-19.199,5.85-30.449C981.51,436.561,980.58,402.12,979.65,386.4z M673.53,319.32c-2.22-0.24-5.58-0.87-7.47-1.352   c-9.541-2.46-12.843-2.398-29.553,0.36c-8.13,1.35-7.71,1.29-7.71,0.78c0-0.211,1.92-1.11,4.592-2.131   c6.959-2.67,14.459-5.971,20.761-9.181c5.31-2.7,12.42-6.78,14.85-8.52c1.08-0.78,2.1-1.021,2.1-0.48c0,0.18-0.39,1.021-0.869,1.89   c-1.108,1.98-1.829,4.44-1.829,6.18c0.028,1.59,1.021,4.26,2.25,5.85c1.198,1.591,4.381,3.841,7.229,5.19   C682.109,319.86,681.03,320.22,673.53,319.32z" style="stroke:black;fill:#BFDAE3"/><path id="180623552" parent_id="180608862" order="1" structure_id="1" d="M652.859,310.2   c-1.771,1.08-1.771,2.7-0.029,3.72c1.83,1.08,5.01,0.42,5.729-1.2c0.3-0.6,0.238-0.87-0.271-1.56   C657.09,309.51,654.689,309.09,652.859,310.2z" style="stroke:black;fill:#BFDAE3"/><path id="180623552" parent_id="180608862" order="2" structure_id="1" d="M859.29,227.73   c-14.82,16.86-26.97,30.81-27.03,31.02c-0.06,0.21,0.84,1.08,1.95,1.98c6.51,5.07,15.21,13.41,20.49,19.62c1.56,1.8,3,3.3,3.21,3.3   s15.449-11.13,33.87-24.75c18.42-13.62,33.63-24.84,33.84-24.96c0.45-0.3,0.06-0.87-3.57-5.55c-3.63-4.62-12.359-13.47-17.7-17.91   c-4.83-4.02-17.25-13.38-17.76-13.38C886.38,197.1,874.109,210.87,859.29,227.73z" style="stroke:black;fill:#BFDAE3"/><path id="180623552" parent_id="180608862" order="3" structure_id="1" d="M830.7,209.46   c-11.641,18.81-21.181,34.38-21.21,34.56c-0.063,0.18,1.71,1.35,3.869,2.58c4.53,2.61,11.489,7.11,15.45,9.99   c1.5,1.11,2.851,2.01,3,2.01c0.539,0,53.938-61.05,53.938-61.65c0-0.66-4.26-3.66-14.399-10.11   c-6.391-4.08-18.931-11.64-19.289-11.64C851.939,175.2,842.34,190.62,830.7,209.46z" style="stroke:black;fill:#BFDAE3"/><path id="180623552" parent_id="180608862" order="4" structure_id="1" d="M801.54,193.74   c-8.88,20.43-16.14,37.41-16.14,37.74c0,0.45,1.77,1.44,8.64,4.83c4.74,2.34,10.05,5.04,11.819,6c2.101,1.14,3.33,1.62,3.511,1.44   c0.78-0.81,42.03-68.01,42.03-68.49c0-0.39-1.53-1.41-5.61-3.72c-9.271-5.25-27.45-14.94-27.96-14.94   C817.74,156.6,810.391,173.31,801.54,193.74z" style="stroke:black;fill:#BFDAE3"/><path id="180623552" parent_id="180608862" order="5" structure_id="1" d="M556.8,452.07   c-3.989,1.229-7.109,5.16-8.28,10.47c-0.357,1.68-0.447,3.149-0.357,5.88c0.27,6.6,2.46,11.16,8.068,16.74   c1.771,1.8,3.421,3.24,3.689,3.24c0.27,0,0.54-0.36,0.63-0.841c0.63-2.819,1.95-6.359,3.63-9.602c2.25-4.32,3.09-6.99,4.32-14.1   c0.51-2.882,1.17-6,1.5-6.99c0.33-0.96,0.6-1.86,0.6-2.01c0-0.393-3.75-2.07-5.85-2.61C562.891,451.77,558.15,451.68,556.8,452.07z   " style="stroke:black;fill:#BFDAE3"/><path id="180623552" parent_id="180608862" order="6" structure_id="1" d="M630.3,191.4   c-9.45,0.93-16.14,4.08-20.64,9.78c-0.78,0.99-2.58,3.75-3.96,6.15c-3.511,6.09-9.33,14.79-12.72,19.02   c-7.143,8.91-15.303,16.86-21.66,21.06c-1.59,1.05-2.103,1.89-1.143,1.89c0.78,0,9.091-4.35,13.08-6.84   c8.521-5.34,11.761-8.16,30.99-26.94c5.46-5.34,10.71-10.32,11.67-11.07c3.54-2.73,8.729-4.74,15.03-5.79   c4.71-0.78,17.55-0.66,24.6,0.18c9.21,1.14,11.25,1.32,15.9,1.35c4.59,0.03,5.85-0.15,5.85-0.81c0-0.39-1.68-0.81-12.63-3.03   C655.26,192.39,638.97,190.59,630.3,191.4z" style="stroke:black;fill:#BFDAE3"/><path id="180623552" parent_id="180608862" order="7" structure_id="1" d="M681.54,213.6   c-13.41,0.69-24.63,2.52-29.25,4.8c-2.19,1.08-4.62,3.57-6,6.15c-1.56,2.97-2.94,7.47-4.74,15.33c-0.96,4.11-2.25,9.09-2.909,11.07   c-4.858,14.67-14.131,22.8-32.971,28.89c-5.55,1.8-13.229,3.75-21.27,5.43c-6,1.23-21.78,3.93-23.012,3.93   c-0.421,0-0.688,0.18-0.688,0.45c0,0.6,0.63,0.57,9.93-0.15c25.11-1.98,47.04-5.16,56.16-8.13c11.43-3.72,16.979-11.28,18.96-25.83   c0.24-1.86,0.72-6.57,1.05-10.44s0.811-7.8,1.08-8.7c3.06-10.26,15.78-16.41,37.29-18.03c6.689-0.51,12.12,0.09,22.17,2.4   c17.1,3.93,47.76,15.27,67.71,25.08c36.54,17.97,61.05,42.12,77.16,75.99c4.351,9.12,9.39,21.601,11.91,29.46   c3.148,9.78,5.13,17.73,8.88,35.852c2.37,11.52,2.16,10.68,5.55,21.6c6.602,21.271,8.011,28.14,9.15,44.102   c0.54,7.408,0.72,26.551,0.33,34.5c-1.591,32.761-6.603,53.761-16.95,70.771c-6.09,10.021-12.24,15.78-24.63,23.19   c-9.271,5.55-11.88,6.72-23.55,10.737c-10.143,3.45-13.893,5.013-21.211,8.763c-11.432,5.85-19.38,8.55-37.439,12.84   c-9.78,2.31-17.07,5.13-21.12,8.1c-2.85,2.1-5.46,5.55-4.2,5.55c0.181,0,1.17-0.779,2.19-1.738c2.159-2.012,4.29-3.449,7.318-4.979   c4.649-2.34,9.029-3.63,19.83-5.91c9.302-1.95,13.079-2.97,17.189-4.648c1.859-0.779,9.811-3.932,17.64-7.021   c18.75-7.38,23.853-9.568,33-14.13c10.353-5.16,16.803-9.061,24.03-14.55c3.66-2.761,7.353-6.96,11.312-12.87   c10.17-15.24,16.108-33.391,18.841-57.602c0.42-3.721,0.54-8.459,0.63-27.148c0.149-22.95-0.062-31.891-0.99-40.8   c-1.08-10.74-2.79-19.32-5.49-27.57c-0.63-1.92-1.92-6.87-2.88-10.979c-8.489-37.17-16.739-62.489-27.45-84.301   c-6.93-14.07-13.409-23.31-24-34.17c-9.27-9.51-19.948-17.97-32.698-25.89c-13.649-8.521-32.939-17.94-50.25-24.54   c-18.812-7.2-31.052-11.22-42.149-13.83c-4.2-0.99-4.59-1.05-11.55-1.14C689.49,213.39,684.15,213.45,681.54,213.6z" style="stroke:black;fill:#BFDAE3"/><path id="180623552" parent_id="180608862" order="8" structure_id="1" d="M899.73,393.3c-0.603-12.03-1.893-21.42-4.382-32.01c-6.118-25.95-21.118-56.82-37.438-76.98   c-18.33-22.68-40.5-38.01-80.73-55.86c-25.857-11.46-50.1-19.62-81.239-27.33c-6.568-1.62-7.198-1.71-8.101-1.35   c-2.37,0.96-9.75,0.75-20.88-0.6c-12.51-1.53-24.69-1.17-31.86,0.9c-6.539,1.89-7.89,2.88-21.27,15.93   c-16.471,16.05-20.01,19.26-25.65,23.28c-8.52,6.06-19.8,11.61-31.38,15.54c-5.977,2.001-8.045,2.313-16.8,2.233v27.515   c4.632,0.015,9.197-0.164,12.15-0.559c21.18-2.82,39.93-8.97,52.68-17.34c3.96-2.58,6.63-4.89,9.42-8.07c3.96-4.5,5.7-7.35,12.9-21   c6.239-11.85,11.01-17.46,17.938-21.149c8.25-4.38,24.813-6.75,39.091-5.55c12.239,0.99,26.819,4.32,42.271,9.6   c58.771,20.1,95.97,43.71,117.659,74.7c10.739,15.33,21.121,39.72,29.608,69.51c2.103,7.41,5.972,22.71,8.131,32.34   c0.932,4.11,2.312,9.36,3.029,11.642c3.301,10.198,5.19,21.028,6.12,35.158c0.51,7.563,0.75,43.62,0.33,50.7   c-1.893,32.49-10.68,57.87-26.13,75.54c-4.562,5.19-16.562,13.05-30.15,19.71c-8.22,4.021-14.52,6.69-30.897,13.142   c-7.11,2.791-15.063,5.971-17.7,7.021c-5.13,2.101-8.91,3.18-17.25,4.89c-13.591,2.82-19.5,4.803-24.66,8.28   c-2.19,1.5-5.34,4.41-5.34,4.95s1.021,0.54,1.5,0c0.72-0.9,6.18-4.2,9.54-5.79c4.979-2.37,11.31-4.38,18.239-5.76   c9.688-1.92,14.278-3.24,24.869-7.23c22.261-8.37,47.131-19.108,55.261-23.88c12.391-7.26,20.909-15.24,27.541-25.77   c1.948-3.12,8.01-15.211,9.6-19.2c4.979-12.45,7.65-31.89,9-65.102c0.33-7.948,0.78-14.311,1.77-24.148   C899.52,421.47,900.359,406.17,899.73,393.3z" style="stroke:black;fill:#BFDAE3"/><path id="180623552" parent_id="180608862" order="9" structure_id="1" d="M697.561,589.98   c-1.141,0.777-1.95,2.729-1.95,4.77c0,1.92,0.512,3.21,3.12,7.68c1.41,2.433,2.459,3.03,4.979,2.91c1.5-0.09,1.771-0.18,2.16-0.9   c0.72-1.26,0.18-2.277-1.771-3.42c-1.979-1.17-3.39-2.729-4.079-4.527c-0.511-1.29-0.511-1.38,0.12-2.67   c0.721-1.473,0.869-3.393,0.3-3.96C699.93,589.35,698.37,589.41,697.561,589.98z" style="stroke:black;fill:#BFDAE3"/><path id="180623552" parent_id="180608862" order="10" structure_id="1" d="M700.891,585.48   c-2.461,1.35-2.489,1.38-2.489,2.55c0,0.988,0.091,1.17,0.601,1.17c0.84,0,2.102,1.317,2.102,2.159c0,0.391-0.271,1.199-0.602,1.83   c-0.84,1.528-0.75,2.791,0.33,4.648c0.63,1.11,1.319,1.86,2.278,2.4c0.75,0.447,1.771,1.17,2.25,1.62   c0.479,0.479,1.052,0.84,1.262,0.84c0.359,0,3.479-5.37,3.479-6c0-0.15-0.33-0.302-0.75-0.302c-1.261,0-1.5-0.898-1.5-5.938   c0-2.49-0.091-4.562-0.209-4.562c-0.121,0-0.66,0.271-1.201,0.602c-1.799,1.08-2.459,0.66-2.129-1.32   C704.55,583.71,704.01,583.77,700.891,585.48z" style="stroke:black;fill:#BFDAE3"/><path id="180623552" parent_id="180608862" order="11" structure_id="1" d="M683.939,523.32   c-3.569,1.47-6.3,3.39-14.789,10.38c-10.86,8.938-11.853,9.6-22.83,15.09c-14.131,7.11-19.65,11.399-25.08,19.56   c-2.37,3.57-5.04,9.12-6.33,13.2c-1.801,5.642-1.771,7.38,0.12,5.37c0.39-0.42,1.5-1.38,2.46-2.1   c0.96-0.722,2.369-2.16,3.119-3.183c1.711-2.34,8.25-8.85,12.239-12.21c3.689-3.09,5.222-4.08,13.352-8.729   c10.47-6,13.319-7.98,18.75-13.11c5.22-4.92,9.989-9.93,13.95-14.64c1.38-1.65,3.93-4.5,5.607-6.33   c1.71-1.86,3.091-3.51,3.091-3.69C687.6,522.39,685.74,522.57,683.939,523.32z" style="stroke:black;fill:#BFDAE3"/><path id="180623552" parent_id="180608862" order="12" structure_id="1" d="M851.88,486.061   c-0.898,6.302-1.29,8.069-2.28,11.069c-2.34,7.05-7.17,15.181-13.38,22.47c-2.7,3.183-8.52,8.94-11.67,11.553   c-5.37,4.438-12.45,8.43-17.46,9.81c-1.38,0.391-2.49,0.84-2.49,1.021c0,0.18,0.57,0.63,1.291,1.05   c1.17,0.659,1.562,0.72,5.312,0.72c4.29,0,6.358-0.39,9.897-1.83c6.631-2.7,19.711-13.229,24.183-19.47   c2.79-3.932,6-12.24,7.5-19.53c0.688-3.27,0.81-4.68,0.84-8.97c0.03-3.36-0.12-5.73-0.391-6.99   C852.78,484.92,852.12,484.47,851.88,486.061z" style="stroke:black;fill:#BFDAE3"/><path id="180623552" parent_id="180608862" order="13" structure_id="1" d="M569.28,460.11   c-0.091,0.3-0.391,1.949-0.66,3.688c-0.99,6.54-2.07,10.11-4.05,13.563c-2.19,3.75-4.17,9.777-4.17,12.658v1.171l2.25-0.209   c1.26-0.12,3.448-0.541,4.89-0.962c6-1.738,9.36-4.261,11.91-8.908c2.189-4.08,2.939-6.45,2.97-9.66   c0.03-2.37-0.061-2.91-0.811-4.38c-1.409-2.91-4.229-5.04-8.699-6.603C570.03,459.45,569.49,459.42,569.28,460.11z" style="stroke:black;fill:#BFDAE3"/><path id="180623552" parent_id="180608862" order="14" structure_id="1" d="M777.99,409.47   c-3.181,4.353-13.59,11.49-20.19,13.8c-1.59,0.57-1.648,0.633-1.56,1.593c0.63,8.157,0.3,12.6-1.44,19.647   c-2.25,9.15-6.54,18.63-9.87,21.813c-1.8,1.71-0.96,2.159,1.681,0.96c7.892-3.69,12.602-11.222,17.432-27.813   c0.99-3.357,2.102-6.87,2.46-7.77c2.01-5.13,8.49-15.72,11.82-19.41c1.527-1.68,1.68-1.95,1.68-3.21   C780,407.22,779.55,407.311,777.99,409.47z" style="stroke:black;fill:#BFDAE3"/><path id="180623552" parent_id="180608862" order="15" structure_id="1" d="M553.26,486c-1.89,1.5-3.66,3.96-6.3,8.79   c-4.62,8.49-6.99,16.979-6.45,23.28l0.181,2.067l1.079,0.21c2.643,0.48,5.521,2.433,6.813,4.65c0.84,1.38,1.229,1.11,1.47-0.99   c0.513-4.438,1.892-8.1,4.74-12.6c3.24-5.102,4.68-10.44,5.16-19.11l0.21-3.45l-2.4-2.038c-1.35-1.109-2.55-2.012-2.697-2.012   C554.88,484.8,554.07,485.34,553.26,486z" style="stroke:black;fill:#BFDAE3"/><path id="180623552" parent_id="180608862" order="16" structure_id="1" d="M570.3,456.21   c-0.989,2.64-0.84,3,1.74,3.87c5.04,1.68,8.04,3.9,9.66,7.109c0.75,1.471,0.897,2.158,0.897,3.87c0,2.938-0.42,4.38-2.459,8.641   c-1.5,3.09-2.131,4.05-3.658,5.55c-3.063,3-8.041,5.16-13.5,5.82c-1.473,0.18-2.7,0.357-2.73,0.39c-0.03,0.06-0.15,1.11-0.24,2.37   l-0.149,2.28l2.432,0.567c4.68,1.021,8.34,0.54,12.21-1.618c2.16-1.199,7.38-4.682,8.13-5.432c0.271-0.27,1.142-1.08,1.95-1.83   c4.68-4.41,6.33-9.33,5.55-16.858c-0.42-3.899-1.26-6.119-3.271-8.369c-2.342-2.643-7.529-5.73-12.182-7.29   C571.23,454.14,571.08,454.17,570.3,456.21z" style="stroke:black;fill:#BFDAE3"/><path id="180623552" parent_id="180608862" order="17" structure_id="1" d="M617.34,585.03   c-5.13,3.84-10.199,13.02-11.188,20.25l-0.182,1.5l2.103,1.979c2.52,2.4,4.947,4.08,8.397,5.853c2.432,1.229,4.23,1.647,4.23,0.96   c0-0.183-0.33-0.87-0.72-1.563c-1.41-2.397-1.803-4.71-1.803-10.26c-0.027-5.28,0.512-10.35,1.65-15.6   c0.72-3.45,0.75-4.65,0.061-4.65C619.59,583.5,618.45,584.189,617.34,585.03z" style="stroke:black;fill:#BFDAE3"/><path id="180623552" parent_id="180608862" order="18" structure_id="1" d="M732.3,400.53c0,0.238,1.53,1.56,3.36,2.97   c4.29,3.24,9.358,8.1,11.85,11.4c2.34,3.09,4.65,7.71,5.521,10.947c0.81,3.092,1.108,10.263,0.567,14.462   c-1.409,11.25-6.479,21-12.6,24.209c-2.91,1.529-5.28,1.979-10.83,1.979c-5.43,0-8.67-0.479-12.391-1.83   c-2.761-0.99-6.329-3.3-7.38-4.77c-0.359-0.48-0.841-0.9-1.079-0.9c-0.57,0-0.541,0.93,0.09,2.91c0.448,1.47,0.688,1.71,2.46,2.85   c4.95,3.12,11.489,5.28,17.58,5.79c4.62,0.392,10.859-0.93,13.859-2.938c5.641-3.78,11.761-19.262,13.05-33.091   c0.75-8.132-0.75-13.172-6.029-20.222c-2.07-2.79-8.01-8.91-11.37-11.79l-2.55-2.16l-2.04-0.09   C732.75,400.17,732.3,400.23,732.3,400.53z" style="stroke:black;fill:#BFDAE3"/><path id="180623552" parent_id="180608862" order="19" structure_id="1" d="M771.3,325.95   c0,0.27,1.352,2.938,3.03,5.938c2.85,5.131,4.47,7.682,11.55,18.03c9.45,13.8,16.41,28.71,18.811,40.23   c0.779,3.6,2.489,16.89,3.359,25.648c1.98,20.521,0.96,34.563-3.479,48.09c-1.893,5.73-7.83,16.74-14.28,26.313   c-5.22,7.8-9.54,13.29-18.78,23.79c-2.55,2.909-8.159,9.6-12.448,14.85c-9.632,11.76-15.149,18.063-22.439,25.59   c-6.99,7.23-20.22,22.053-20.22,22.65c0,1.56,1.89-0.15,21.897-19.71c11.971-11.7,21.57-21.72,26.551-27.72   c1.92-2.313,7.079-8.79,11.489-14.4s9.99-12.51,12.393-15.3c7.107-8.28,9.868-12.36,13.527-19.8   c5.973-12.24,9.813-25.143,11.4-38.4c0.6-5.01,0.51-21.271-0.15-27.149c-3.06-27.181-6.33-38.88-15.3-54.898   c-5.16-9.21-12.87-21.69-15.66-25.38c-1.68-2.19-4.858-5.04-8.278-7.44C772.2,325.439,771.3,325.17,771.3,325.95z" style="stroke:black;fill:#BFDAE3"/><path id="180623552" parent_id="180608862" order="20" structure_id="1" d="M665.91,464.55c-8.16,3.99-19.26,4.86-25.11,1.95c-9.03-4.53-13.89-17.91-13.92-38.25   c0-12.57,1.59-22.47,6.09-38.1c3.813-13.29,6.69-21.54,10.38-30c1.23-2.82,2.25-5.312,2.25-5.521c0-0.27-0.238-0.33-0.659-0.24   c-4.261,0.99-5.25,1.11-9.3,1.11c-6.898,0-15.091-1.29-20.818-3.33c-2.973-1.05-3.303-1.08-3.54-0.18   c-0.603,2.398-4.83,7.17-8.642,9.75c-5.818,3.93-12.061,6.06-17.729,6.06c-3.21,0-5.67-0.568-9.21-2.068   c-6.812-2.91-14.04-9.48-15.36-13.92c-0.18-0.632-0.51-1.23-0.72-1.32c-0.21-0.09-1.38,0.51-2.58,1.29   c-2.729,1.77-6.181,3.51-8.34,4.2c-1.346,0.426-5.09,0.671-8.7,0.699v22.268c8.537-0.059,16.729,0.007,19.05,0.253   c6.392,0.66,12.062,2.28,19.32,5.52c7.17,3.21,16.2,8.73,18.239,11.13c2.641,3.15,4.891,8.012,5.608,12.211   c0.33,1.92,0.392,2.068,1.74,2.938c4.979,3.3,7.351,13.32,4.53,19.11c-1.08,2.22-3.45,4.26-6.84,5.938   c-3.541,1.771-6.75,2.55-10.261,2.58c-4.08,0-6.392-0.75-9.149-3.06c-0.78-0.632-1.53-1.171-1.71-1.171   c-0.15,0-0.392,0.631-0.48,1.409c-0.568,4.109-2.1,9.062-3.6,11.642c-0.45,0.75-1.74,2.37-2.88,3.63   c-1.143,1.26-2.07,2.52-2.07,2.819c0,0.421,0.51,0.688,2.189,1.198c4.801,1.44,10.409,4.711,12.931,7.53   c2.67,2.97,3.479,5.64,3.479,11.521c0,5.068-1.108,8.341-4.021,11.851c-2.189,2.64-2.011,2.76,2.521,1.771   c3.659-0.778,10.892-1.079,14.552-0.601c6.659,0.9,13.709,3,15.72,4.71c3.239,2.79,2.64,9.03-1.71,17.58   c-4.86,9.54-11.13,15.96-18.15,18.479c-3.63,1.32-6,1.683-10.08,1.473c-5.729-0.271-9.63-1.95-13.56-5.88   c-3.78-3.813-6.271-8.94-6.271-12.99c0-2.37,1.2-5.97,3.03-9c1.38-2.37,4.229-6.36,4.74-6.69c0.449-0.27,0.42-1.05-0.03-1.05   c-0.21,0-1.38,0.54-2.64,1.17c-4.142,2.16-7.2,2.61-11.4,1.683c-3.03-0.66-2.818-0.842-3.42,2.607   c-0.898,5.16-2.311,8.73-5.25,13.353l-1.021,1.56l0.513,4.44c0.93,8.52,1.17,12.897,1.199,20.64c0.028,6.93-0.029,7.92-0.511,8.76   c-0.451,0.84-0.688,0.99-1.561,0.99h-1.05v2.16c-0.03,1.2-0.21,3.27-0.48,4.59c-1.47,8.04-1.95,11.4-2.01,14.55l-0.06,3.511   l1.079,1.771c0.63,0.99,1.948,2.46,3,3.358c3.931,3.271,6.959,6.212,8.011,7.771c1.41,2.16,1.77,2.07,1.739-0.39   c-0.029-1.803,0.028-2.04,0.811-2.7c2.069-1.8,7.17-0.24,24.18,7.35c3.36,1.5,6.3,2.73,6.54,2.73c0.57,0,0.48-0.813-0.18-1.74   c-1.71-2.46-3.36-7.11-4.08-11.55c-0.57-3.57-0.57-10.53,0-14.58c1.38-9.42,4.32-14.67,9.779-17.431   c1.318-0.632,2.851-1.262,3.421-1.382c0.6-0.09,1.05-0.357,1.05-0.6s0.21-0.42,0.479-0.42c0.358,0,0.448-0.18,0.3-0.689   c-0.512-1.648-0.512-2.641-0.062-4.351c0.54-2.1,2.07-5.311,3.9-8.16c3.84-5.91,15.3-17.7,23.729-24.33   c2.58-2.04,7.142-5.13,8.58-5.817c0.931-0.45,1.11-0.69,1.41-2.223c0.96-4.56,4.229-9.42,14.46-21.33   c8.25-9.63,12.602-15.06,12.602-15.777C669.9,462.66,669.54,462.78,665.91,464.55z M573.75,555.45   c-1.65,6.147-5.939,10.77-10.26,11.16c-1.563,0.12-1.892,0.027-3.12-0.75c-2.67-1.71-4.261-6.421-4.261-12.66   c0-4.05,0.631-7.08,2.489-11.79c2.041-5.25,4.591-9.03,6.75-9.99c1.17-0.51,1.261-0.51,2.699,0.15c1.32,0.6,2.642,1.979,3.392,3.54   c0.301,0.63,0.688,0.988,1.079,0.988c0.449,0,0.512,0.091,0.239,0.271c-0.3,0.18-0.239,0.75,0.36,2.76   C574.62,544.32,574.891,551.25,573.75,555.45z" style="stroke:black;fill:#BFDAE3"/><path id="180623552" parent_id="180608862" order="21" structure_id="1" d="M733.38,340.98   c-1.771,2.278-4.14,6.868-5.28,10.289c-4.05,12.119-3.239,27.989,2.341,44.579l1.409,4.2l2.041,0.09   c1.109,0.063,2.011-0.027,2.011-0.18c0-0.12-0.659-2.28-1.472-4.74c-3.569-10.8-5.069-19.83-4.739-28.438   c0.329-9.271,2.521-16.62,6.961-23.46c1.08-1.62,1.948-3.12,1.948-3.301c0-0.301-1.92-0.721-3.33-0.721   C734.939,339.3,734.13,340.02,733.38,340.98z" style="stroke:black;fill:#BFDAE3"/><path id="180623552" parent_id="180608862" order="22" structure_id="1" d="M667.8,341.46c0,0.21,0.69,0.78,1.53,1.29   c2.07,1.2,4.77,4.17,6.42,6.99c3.57,6.09,5.52,14.279,6.15,26.01c0.18,3.12,0.659,9,1.08,13.05c0.93,9,1.289,21.45,0.75,27.21   c-1.41,14.94-6.03,28.83-13.353,39.99c-2.76,4.2-6.87,7.98-10.438,9.63c-0.959,0.42-1.109,1.17-0.3,1.17   c0.811,0,4.47-1.29,6.358-2.25c4.29-2.16,6.66-4.38,9.812-9.147c6.658-10.021,9.539-17.7,11.521-30.603   c0.57-3.688,0.689-5.64,0.689-12.897c0.028-8.342,0-8.79-1.229-18.45c-0.69-5.46-1.41-11.73-1.59-13.95   c-1.23-15.36-3.9-26.34-8.37-34.35c-0.99-1.83-1.83-3.48-1.83-3.69c0-0.271-0.93-0.36-3.6-0.36S667.8,341.189,667.8,341.46z" style="stroke:black;fill:#BFDAE3"/><path id="180623552" parent_id="180608862" order="23" structure_id="1" d="M542.37,402.75c-1.14,0.93-1.65,0.72-1.89-0.78c-0.098-0.597-0.287-0.969-0.48-1.12v55.355   c0.199-0.104,0.391-0.254,0.48-0.445c0.118-0.27,0.3-9.96,0.39-21.51l0.21-21l0.93-1.95c1.26-2.52,1.892-5.068,1.892-7.41   C543.9,401.79,543.689,401.61,542.37,402.75z" style="stroke:black;fill:#BFDAE3"/><path id="180623552" parent_id="180608862" order="24" structure_id="1" d="M689.25,229.71   c-15.27,0.75-25.05,4.74-28.32,11.55c-1.83,3.87-1.89,4.41-2.13,20.19c-0.21,13.41-0.27,14.61-0.898,17.25   c-1.052,4.56-1.052,4.56-0.42,4.44c0.841-0.15,3.028-4.59,3.841-7.8c1.107-4.32,1.409-8.76,1.35-19.14   c-0.028-8.19,0-9.63,0.45-10.8c2.1-5.58,7.2-8.94,16.38-10.8c4.62-0.93,8.102-1.23,16.05-1.41c11.79-0.24,15.03,0.36,28.62,5.34   c13.41,4.92,20.79,8.16,37.38,16.41c15.99,7.95,28.17,14.61,35.25,19.35c11.58,7.71,20.7,17.34,34.65,36.51   c6.54,8.97,9.659,14.4,11.55,20.07c1.26,3.72,1.92,7.35,2.7,14.43c1.38,12.9,6.75,46.17,9.93,61.5   c2.16,10.38,4.801,19.563,14.16,49.2c6.51,20.52,6.66,21.36,6.42,31.65c-0.18,7.5-0.75,12.3-3.359,27.63   c-3.118,18.39-4.801,24.63-8.729,32.22c-4.47,8.61-11.91,16.2-23.431,23.88c-11.341,7.59-26.459,13.14-66,24.3   c-2.852,0.813-5.189,1.62-5.189,1.771c0,0.18,1.68,0.567,3.75,0.87l3.75,0.567l5.01-1.29c27.09-6.868,47.34-14.76,60.813-23.64   c8.01-5.28,18.6-15.33,23.01-21.87c5.25-7.74,9.09-19.529,11.49-35.188c1.739-11.432,3.3-29.159,3.06-34.802   c-0.358-8.97-1.979-16.89-7.08-34.737c-5.52-19.382-14.188-55.081-17.22-70.86c-0.75-3.87-2.312-12.12-3.51-18.3   c-1.2-6.182-2.16-11.58-2.132-12c0-0.42-0.091-0.812-0.209-0.9c-0.12-0.09-0.722-2.46-1.352-5.25   c-2.398-10.77-3.96-15.148-7.47-20.97c-7.17-11.97-23.82-32.13-33.09-40.08c-7.29-6.27-18.722-13.47-36.57-23.1   c-12.87-6.93-23.4-11.76-37.2-17.04c-19.109-7.32-23.28-8.37-35.55-9.06C693.93,229.53,693.12,229.5,689.25,229.71z" style="stroke:black;fill:#BFDAE3"/><path id="180623552" parent_id="180608862" order="25" structure_id="1" d="M558.6,292.56   c0.03,0.69,5.853,4.35,11.131,6.99c3.271,1.65,13.289,5.61,16.592,6.602c2.97,0.84,7.617,1.528,12.238,1.8l3.209,0.18l0.211-0.78   c0.271-1.02,0.029-1.198-2.131-1.62c-2.938-0.54-9.448-2.61-15.42-4.89C564.57,293.31,558.6,291.39,558.6,292.56z" style="stroke:black;fill:#BFDAE3"/><path id="180623552" parent_id="180608862" order="26" structure_id="1" d="M548.7,379.29c0,0.24,1.02,0.54,2.79,0.87   c9.63,1.77,21.21,6.87,24.028,10.56c1.649,2.16,1.979,3.271,3.75,12.57c0.932,4.74,2.399,9.12,3.212,9.42   c0.209,0.09,0.987-0.33,1.68-0.87c4.529-3.63,8.91-4.62,14.22-3.21c4.021,1.08,3.72,1.08,3.72-0.12c0-2.64-2.76-9.21-5.1-12.147   c-1.62-2.04-7.41-5.91-13.62-9.092c-10.319-5.31-16.95-7.35-26.1-8.068C551.85,378.78,548.7,378.811,548.7,379.29z" style="stroke:black;fill:#BFDAE3"/><path id="180623552" parent_id="180608862" order="27" structure_id="1" d="M543.54,398.79c-0.06-1.53-0.21-2.88-0.36-3c-0.146-0.164-1.698-0.282-3.18-0.313v4.137   c0.361,0.071,0.9,1.451,0.9,2.387c0,1.08,0.27,1.11,1.68,0.21l1.05-0.66L543.54,398.79z" style="stroke:black;fill:#BFDAE3"/><path id="180623552" parent_id="180608862" order="28" structure_id="1" d="M717.75,284.07   c-2.311,0.57-5.88,2.31-15,7.26c-6,3.24-10.74,5.31-17.939,7.8c-4.17,1.44-5.58,2.34-6.511,4.2c-1.2,2.31-0.479,4.77,1.8,6.09   c1.381,0.811,4.381,0.84,9,0.03c4.893-0.84,17.82-0.87,21.603-0.062c5.01,1.08,11.22,3.54,17.58,7.021   c4.438,2.4,7.647,4.68,12.448,8.79c4.859,4.17,5.342,4.5,6.33,4.5c0.812,0,0.842-0.062,0.842-1.352c0-1.738-0.842-3.42-2.762-5.43   c-3.511-3.72-19.171-12.93-26.159-15.39c-4.229-1.5-15.962-2.73-25.979-2.73c-6.061,0-6.21-0.45-1.08-2.85   c4.11-1.92,19.83-8.49,23.643-9.87c1.527-0.57,3.81-1.17,5.039-1.38c3.301-0.54,4.438-0.15,6.631,2.22   c1.709,1.83,3.777,3.21,5.76,3.84c0.54,0.18,3.869,0.42,7.41,0.54c6.75,0.271,8.789,0.54,12,1.56   c4.26,1.35,11.938,5.85,18.539,10.831c5.761,4.381,7.92,6.811,11.881,13.351c1.319,2.16,2.64,3.899,4.14,5.34   c2.729,2.7,4.89,4.32,5.7,4.32c0.57,0,0.6-0.12,0.449-1.44c-0.329-2.91-2.609-8.188-5.102-11.91   c-4.8-7.17-26.52-22.83-35.909-25.89c-3.271-1.08-5.698-1.29-10.261-0.9c-3.27,0.27-4.35,0.27-5.489-0.06   c-1.681-0.48-3.868-2.34-5.729-4.98c-1.649-2.31-2.79-3.3-4.261-3.72C724.68,283.35,720.12,283.47,717.75,284.07z" style="stroke:black;fill:#BFDAE3"/><path id="180623552" parent_id="180608862" order="29" structure_id="1" d="M540.51,245.91   c-0.119,0.09-0.21,2.61-0.21,5.55v5.34h4.11c2.25,0,4.949-0.15,6-0.33c2.188-0.39,2.22-0.45,1.29-3.09   c-1.41-4.08-3.36-6.42-6.12-7.23C544.05,245.7,540.87,245.55,540.51,245.91z" style="stroke:black;fill:#BFDAE3"/><path id="180623552" parent_id="180608862" order="30" structure_id="1" d="M590.73,408.45   c-2.013,0.568-5.223,2.25-6.723,3.54c-0.989,0.84-1.26,1.38-2.13,4.29c-0.54,1.83-1.35,4.107-1.8,5.067   c-0.9,2.013-0.932,2.313-0.33,5.103c0.24,1.17,0.45,3.18,0.45,4.5c0.028,2.25,0.09,2.46,0.987,3.51   c4.32,4.979,12.78,5.46,20.94,1.26c3.511-1.8,5.13-3.27,6.33-5.76c0.96-1.95,0.99-2.1,0.99-5.76c-0.03-3.3-0.12-4.05-0.841-6.12   c-0.449-1.29-1.171-2.94-1.591-3.66c-0.898-1.53-2.938-3.45-4.528-4.26C599.01,408.39,593.73,407.61,590.73,408.45z" style="stroke:black;fill:#BFDAE3"/><path id="180623552" parent_id="180608862" order="31" structure_id="1" d="M554.1,294.21c0,3.27,0.183,4.29,0.75,4.29   c0.511,0,0.75-0.99,0.723-3c0-2.55-0.36-4.02-0.962-4.14C554.16,291.27,554.1,291.57,554.1,294.21z" style="stroke:black;fill:#BFDAE3"/><path id="180623552" parent_id="180608862" order="32" structure_id="1" d="M681.48,211.14c-13.65-0.84-29.4,1.682-36.99,5.94c-4.92,2.73-9.33,7.32-13.32,13.8   c-0.689,1.14-3.09,5.52-5.311,9.72c-7.619,14.46-10.142,17.91-17.25,23.43C593.49,275.76,563.67,284.82,540,284.82v6.27h8.55   l8.25-1.26c16.29-2.49,24.78-3.99,33.3-5.91c30.24-6.81,42.66-15.21,48.42-32.88c0.57-1.71,1.771-6.33,2.67-10.32   c1.951-8.398,3.15-12.27,4.74-15.45c1.29-2.61,3.54-5.19,5.61-6.51c4.8-3.03,21.271-5.43,37.5-5.46c4.56,0,5.76-0.09,5.76-0.39   C694.8,212.37,688.95,211.62,681.48,211.14z" style="stroke:black;fill:#BFDAE3"/><path id="180623552" parent_id="180608862" order="33" structure_id="1" d="M706.23,403.98   c-3.75,4.229-7.23,14.038-8.433,23.817c-0.45,3.87-0.39,11.91,0.183,15.42c0.6,3.69,1.89,7.771,3.3,10.38   c2.067,3.78,6.329,8.7,7.56,8.7c0.48,0,0.51,0.183-0.81-4.95c-1.8-7.05-2.73-15.09-2.73-23.697c0-8.763,0.99-19.382,2.55-27.063   c0.42-2.01,0.75-3.81,0.75-3.99C708.6,401.85,707.641,402.42,706.23,403.98z" style="stroke:black;fill:#BFDAE3"/><path id="180623552" parent_id="180608862" order="34" structure_id="1" d="M563.01,417.42   c-5.91,2.43-11.399,10.26-12.99,18.42c-0.538,2.852-0.538,4.892,0.03,7.11c0.99,3.87,3.54,5.85,7.53,5.85   c5.46,0,12.18-4.56,14.82-10.05c1.528-3.15,1.92-5.52,1.709-10.62c-0.209-5.88-1.352-9.09-3.779-10.74   C568.891,416.4,565.439,416.43,563.01,417.42z" style="stroke:black;fill:#BFDAE3"/><path id="180623552" parent_id="180608862" order="35" structure_id="1" d="M650.25,316.71   c-8.16,0.96-26.82,4.11-30.9,5.19c-4.709,1.26-16.92,4.14-26.489,6.27c-4.5,1.02-8.729,2.1-9.42,2.46   c-3.391,1.74-5.398,3.57-3.898,3.57c0.66,0,23.58-3.69,39.21-6.3c24.84-4.17,36.24-5.28,48.57-4.771   c13.289,0.57,22.8,1.95,36.027,5.25c8.37,2.07,10.23,2.73,14.012,4.83c6.87,3.811,11.041,5.22,17.699,5.939   c7.142,0.75,10.892,1.711,15.392,3.931c8.13,3.96,14.279,11.01,20.58,23.58c5.729,11.399,7.108,18.18,9.27,44.64   c1.593,20.011,1.562,27.84-0.18,36.603c-1.29,6.42-5.011,16.8-8.432,23.487c-1.528,2.973-2.459,4.353-6.511,9.631   c-2.489,3.239-2.489,4.682,0.03,4.682c1.08,0,1.59-0.21,2.58-0.99c0.69-0.57,1.89-1.35,2.64-1.8c2.61-1.5,5.16-4.892,8.223-10.95   c1.89-3.78,4.05-9.18,5.159-12.81c2.068-6.87,2.608-15.99,1.771-29.25c-0.271-4.2-0.63-10.143-0.78-13.2   c-0.96-17.28-2.31-27.33-5.25-38.852c-3.028-11.938-4.8-16.318-7.979-19.71c-0.961-1.05-2.881-3.449-4.23-5.34   c-4.77-6.72-7.47-10.14-9.239-11.818c-3.391-3.12-7.709-4.62-17.13-5.972c-7.591-1.108-10.561-2.31-18.271-7.38   c-4.71-3.12-8.37-4.47-16.86-6.21c-3.84-0.81-4.38-0.84-14.278-0.899c-14.102-0.091-19.142-0.539-26.432-2.369   C659.311,316.68,654.391,316.2,650.25,316.71z" style="stroke:black;fill:#BFDAE3"/><path id="180623552" parent_id="180608862" order="36" structure_id="1" d="M650.25,316.71   c-8.16,0.96-26.82,4.11-30.9,5.19c-4.709,1.26-16.92,4.14-26.489,6.27c-4.5,1.02-8.729,2.1-9.42,2.46   c-3.391,1.74-5.398,3.57-3.898,3.57c0.66,0,23.58-3.69,39.21-6.3c24.84-4.17,36.24-5.28,48.57-4.771   c13.289,0.57,22.8,1.95,36.027,5.25c8.37,2.07,10.23,2.73,14.012,4.83c6.87,3.811,11.041,5.22,17.699,5.939   c7.142,0.75,10.892,1.711,15.392,3.931c8.13,3.96,14.279,11.01,20.58,23.58c5.729,11.399,7.108,18.18,9.27,44.64   c1.593,20.011,1.562,27.84-0.18,36.603c-1.29,6.42-5.011,16.8-8.432,23.487c-1.528,2.973-2.459,4.353-6.511,9.631   c-2.489,3.239-2.489,4.682,0.03,4.682c1.08,0,1.59-0.21,2.58-0.99c0.69-0.57,1.89-1.35,2.64-1.8c2.61-1.5,5.16-4.892,8.223-10.95   c1.89-3.78,4.05-9.18,5.159-12.81c2.068-6.87,2.608-15.99,1.771-29.25c-0.271-4.2-0.63-10.143-0.78-13.2   c-0.96-17.28-2.31-27.33-5.25-38.852c-3.028-11.938-4.8-16.318-7.979-19.71c-0.961-1.05-2.881-3.449-4.23-5.34   c-4.77-6.72-7.47-10.14-9.239-11.818c-3.391-3.12-7.709-4.62-17.13-5.972c-7.591-1.108-10.561-2.31-18.271-7.38   c-4.71-3.12-8.37-4.47-16.86-6.21c-3.84-0.81-4.38-0.84-14.278-0.899c-14.102-0.091-19.142-0.539-26.432-2.369   C659.311,316.68,654.391,316.2,650.25,316.71z" style="stroke:black;fill:#BFDAE3"/><path id="180623552" parent_id="180608862" order="37" structure_id="1" d="M656.4,540.48   c-3.723,1.05-10.41,2.397-14.552,2.97c-1.979,0.27-6.631,0.989-10.351,1.647c-3.72,0.633-8.313,1.41-10.2,1.683   c-4.317,0.659-12.72,0.75-13.738,0.18c-1.079-0.63-4.529,0.03-7.262,1.351c-4.738,2.312-7.62,6.479-9.12,13.289   c-2.34,10.62-1.59,20.853,2.103,28.353c1.35,2.76,3,4.647,5.64,6.42c3.811,2.58,5.79,5.28,6.09,8.31   c0.24,2.133,0.84,2.133,1.11,0.03c0.479-3.688,3.06-9.96,5.67-13.74c0.93-1.38,1.38-2.397,1.53-3.448   c1.05-7.319,5.938-17.552,11.55-24.062c4.5-5.22,10.35-9.24,21.96-15.03C660.54,541.561,664.59,538.2,656.4,540.48z" style="stroke:black;fill:#BFDAE3"/><path id="180623552" parent_id="180608862" order="38" structure_id="1" d="M777.45,413.4l-1.74,2.1l0.54,3.09   c0.689,3.99,0.93,14.55,0.48,20.16c-0.723,8.85-1.473,11.37-6.212,20.85c-4.351,8.7-9.538,17.58-12.868,21.961   c-0.75,0.959-1.353,1.921-1.353,2.159c0,0.393,2.55,0.78,5.433,0.78c1.288,0,1.379-0.061,1.857-1.14   c0.271-0.603,1.563-2.433,2.852-4.051c4.051-5.069,6.449-9.632,9.721-18.479c3.779-10.32,4.77-15.3,4.949-25.68   c0.148-6.66-0.512-22.08-0.959-23.49C779.88,410.88,779.1,411.39,777.45,413.4z" style="stroke:black;fill:#BFDAE3"/><path id="180623552" parent_id="180608862" order="39" structure_id="1" d="M665.91,464.55c-8.16,3.99-19.26,4.86-25.11,1.95c-9.03-4.53-13.89-17.91-13.92-38.25   c0-12.57,1.59-22.47,6.09-38.1c3.813-13.29,6.69-21.54,10.38-30c1.23-2.82,2.25-5.312,2.25-5.521c0-0.27-0.238-0.33-0.659-0.24   c-4.261,0.99-5.25,1.11-9.3,1.11c-6.898,0-15.091-1.29-20.818-3.33c-2.973-1.05-3.303-1.08-3.54-0.18   c-0.603,2.398-4.83,7.17-8.642,9.75c-5.818,3.93-12.061,6.06-17.729,6.06c-3.21,0-5.67-0.568-9.21-2.068   c-6.812-2.91-14.04-9.48-15.36-13.92c-0.18-0.632-0.51-1.23-0.72-1.32c-0.21-0.09-1.38,0.51-2.58,1.29   c-2.729,1.77-6.181,3.51-8.34,4.2c-1.346,0.426-5.09,0.671-8.7,0.699v22.268c8.537-0.059,16.729,0.007,19.05,0.253   c6.392,0.66,12.062,2.28,19.32,5.52c7.17,3.21,16.2,8.73,18.239,11.13c2.641,3.15,4.891,8.012,5.608,12.211   c0.33,1.92,0.392,2.068,1.74,2.938c4.979,3.3,7.351,13.32,4.53,19.11c-1.08,2.22-3.45,4.26-6.84,5.938   c-3.541,1.771-6.75,2.55-10.261,2.58c-4.08,0-6.392-0.75-9.149-3.06c-0.78-0.632-1.53-1.171-1.71-1.171   c-0.15,0-0.392,0.631-0.48,1.409c-0.568,4.109-2.1,9.062-3.6,11.642c-0.45,0.75-1.74,2.37-2.88,3.63   c-1.143,1.26-2.07,2.52-2.07,2.819c0,0.421,0.51,0.688,2.189,1.198c4.801,1.44,10.409,4.711,12.931,7.53   c2.67,2.97,3.479,5.64,3.479,11.521c0,5.068-1.108,8.341-4.021,11.851c-2.189,2.64-2.011,2.76,2.521,1.771   c3.659-0.778,10.892-1.079,14.552-0.601c6.659,0.9,13.709,3,15.72,4.71c3.239,2.79,2.64,9.03-1.71,17.58   c-4.86,9.54-11.13,15.96-18.15,18.479c-3.63,1.32-6,1.683-10.08,1.473c-5.729-0.271-9.63-1.95-13.56-5.88   c-3.78-3.813-6.271-8.94-6.271-12.99c0-2.37,1.2-5.97,3.03-9c1.38-2.37,4.229-6.36,4.74-6.69c0.449-0.27,0.42-1.05-0.03-1.05   c-0.21,0-1.38,0.54-2.64,1.17c-4.142,2.16-7.2,2.61-11.4,1.683c-3.03-0.66-2.818-0.842-3.42,2.607   c-0.898,5.16-2.311,8.73-5.25,13.353l-1.021,1.56l0.513,4.44c0.93,8.52,1.17,12.897,1.199,20.64c0.028,6.93-0.029,7.92-0.511,8.76   c-0.451,0.84-0.688,0.99-1.561,0.99h-1.05v2.16c-0.03,1.2-0.21,3.27-0.48,4.59c-1.47,8.04-1.95,11.4-2.01,14.55l-0.06,3.511   l1.079,1.771c0.63,0.99,1.948,2.46,3,3.358c3.931,3.271,6.959,6.212,8.011,7.771c1.41,2.16,1.77,2.07,1.739-0.39   c-0.029-1.803,0.028-2.04,0.811-2.7c2.069-1.8,7.17-0.24,24.18,7.35c3.36,1.5,6.3,2.73,6.54,2.73c0.57,0,0.48-0.813-0.18-1.74   c-1.71-2.46-3.36-7.11-4.08-11.55c-0.57-3.57-0.57-10.53,0-14.58c1.38-9.42,4.32-14.67,9.779-17.431   c1.318-0.632,2.851-1.262,3.421-1.382c0.6-0.09,1.05-0.357,1.05-0.6s0.21-0.42,0.479-0.42c0.358,0,0.448-0.18,0.3-0.689   c-0.512-1.648-0.512-2.641-0.062-4.351c0.54-2.1,2.07-5.311,3.9-8.16c3.84-5.91,15.3-17.7,23.729-24.33   c2.58-2.04,7.142-5.13,8.58-5.817c0.931-0.45,1.11-0.69,1.41-2.223c0.96-4.56,4.229-9.42,14.46-21.33   c8.25-9.63,12.602-15.06,12.602-15.777C669.9,462.66,669.54,462.78,665.91,464.55z M573.75,555.45   c-1.65,6.147-5.939,10.77-10.26,11.16c-1.563,0.12-1.892,0.027-3.12-0.75c-2.67-1.71-4.261-6.421-4.261-12.66   c0-4.05,0.631-7.08,2.489-11.79c2.041-5.25,4.591-9.03,6.75-9.99c1.17-0.51,1.261-0.51,2.699,0.15c1.32,0.6,2.642,1.979,3.392,3.54   c0.301,0.63,0.688,0.988,1.079,0.988c0.449,0,0.512,0.091,0.239,0.271c-0.3,0.18-0.239,0.75,0.36,2.76   C574.62,544.32,574.891,551.25,573.75,555.45z" style="stroke:black;fill:#BFDAE3"/><path id="180623552" parent_id="180608862" order="40" structure_id="1" d="M564.72,531.87   c-2.909,1.77-6.688,9.479-8.1,16.5c-1.021,5.22,0,12.99,2.1,15.72c1.53,1.98,2.37,2.46,4.32,2.43   c4.62-0.06,9.271-5.13,10.71-11.697c0.72-3.21,0.48-11.223-0.42-14.67C571.5,533.25,567.99,529.89,564.72,531.87z" style="stroke:black;fill:#BFDAE3"/><path id="180623552" parent_id="180608862" order="41" structure_id="1" d="M593.16,487.23   c-3.12,0.27-8.49,1.47-10.38,2.34c-2.61,1.17-8.37,7.83-10.921,12.6c-3.329,6.24-3.479,9.69-0.689,15.48   c2.67,5.55,7.41,9.51,13.26,11.13c2.853,0.81,8.91,0.72,12.12-0.15c8.729-2.34,15.24-8.52,20.729-19.68   c2.461-5.011,3.421-8.37,3.421-11.82c0-4.38-1.08-5.58-6.72-7.41c-4.291-1.38-7.921-2.13-12.212-2.52   C597.96,486.87,597.18,486.87,593.16,487.23z" style="stroke:black;fill:#BFDAE3"/><path id="180623552" parent_id="180608862" order="42" structure_id="1" d="M639.66,369.51   c-0.42,0.78-4.051,11.94-5.43,16.59c-3.9,13.29-5.07,18.419-6.541,29.102c-0.392,2.85-0.512,5.91-0.539,12.897   c0,8.132,0.09,9.632,0.688,13.473c1.86,11.55,4.41,17.697,9.21,22.17c3.54,3.33,7.142,4.47,13.32,4.17   c6.42-0.271,11.938-2.82,16.56-7.62c4.2-4.29,9.182-13.65,12.303-22.979c3.81-11.4,5.277-23.643,4.5-37.41   c-0.421-6.84-0.513-7.5-1.143-7.5c-0.898,0-10.26-3.301-14.04-4.95c-10.5-4.562-21.3-11.34-26.188-16.47   c-1.05-1.08-2.039-1.98-2.159-1.98C640.05,369,639.811,369.24,639.66,369.51z" style="stroke:black;fill:#BFDAE3"/><path id="180623552" parent_id="180608862" order="43" structure_id="1" d="M835.439,451.86   c-0.659,0.18-1.591,0.81-2.279,1.56c-0.99,1.08-1.44,2.04-2.91,6.51c-6.09,18.42-12.811,30.09-23.729,41.25   c-6.028,6.15-45.091,44.49-48.421,47.552c-1.89,1.709-9.147,8.101-16.107,14.158c-14.46,12.57-18.181,16.08-22.771,21.33   c-4.291,4.95-7.561,9.69-10.921,15.87c-1.529,2.76-3,5.16-3.3,5.313c-1.47,0.777-4.529-0.15-5.609-1.683   c-0.329-0.479-1.351-2.34-2.311-4.17c-1.41-2.76-1.68-3.54-1.68-4.859c0-0.898-0.15-1.591-0.301-1.591   c-0.182,0-0.812,0.513-1.439,1.143c-0.6,0.63-1.83,1.739-2.67,2.52l-1.59,1.381l0.33,2.489c0.147,1.38,0.51,3.271,0.777,4.17   c0.66,2.4,2.852,6.48,4.53,8.521c1.47,1.74,4.53,4.08,5.37,4.08c0.54,0,3.84-3.36,6.357-6.45c2.433-2.97,3.842-5.13,6.271-9.69   c4.53-8.43,7.86-12.18,16.38-18.51c9-6.66,33.813-24.42,36.813-26.34c9.567-6.12,24.868-12.271,35.97-14.49   c5.159-1.02,7.47-1.74,10.95-3.42c9.778-4.71,21.42-15.45,28.8-26.55c7.14-10.8,9.479-17.73,9.93-29.7   c0.45-11.07-1.53-19.35-6.03-25.2C842.641,452.85,838.77,450.93,835.439,451.86z" style="stroke:black;fill:#BFDAE3"/><path id="180623552" parent_id="180608862" order="44" structure_id="1" d="M551.73,517.41   c-1.473,4.05-2.013,9.358-1.32,12.688c0.479,2.19,1.29,11.853,1.29,15.271c0,2.04,0.12,2.79,0.479,3.148   c0.632,0.659,1.11,0.602,1.802-0.148c0.539-0.602,0.568-1.2,0.539-9.99c0-6.33-0.181-11.01-0.511-14.58   c-0.72-7.38-0.84-8.1-1.26-8.1C552.54,515.7,552.09,516.48,551.73,517.41z" style="stroke:black;fill:#BFDAE3"/><path id="180623552" parent_id="180608862" order="45" structure_id="1" d="M555.15,580.65c-3.271-2.643-5.103-3.393-10.41-4.17c-1.818-0.276-3.298-0.416-4.74-0.43v4.502   c0.243,0,0.48,0.012,0.72,0.035c1.771,0.182,8.07,2.28,15,4.95c5.04,1.95,5.58,2.1,5.58,1.47   C561.3,586.32,558.18,583.11,555.15,580.65z" style="stroke:black;fill:#BFDAE3"/><path id="180623552" parent_id="180608862" order="46" structure_id="1" d="M564.391,583.2   c-1.021,0.42-1.381,1.38-1.229,3.479c0.06,1.053,0.18,1.95,0.239,2.012c0.181,0.148,19.739,9.391,21.778,10.291   c2.19,0.959,19.65,6.777,19.83,6.6c0.33-0.33-0.6-3.42-1.47-4.74c-2.07-3.27-4.8-4.979-15.271-9.66   C572.79,584.311,566.609,582.24,564.391,583.2z" style="stroke:black;fill:#BFDAE3"/><path id="180623552" parent_id="180608862" order="47" structure_id="1" d="M664.8,470.28   c-1.05,1.29-3.84,4.59-6.148,7.317c-8.461,9.87-11.011,13.143-13.142,16.683c-1.29,2.159-2.608,5.488-2.608,6.6   c0,0.96-0.062,0.96,4.891-0.75c4.38-1.53,9.148-2.729,15.21-3.78c6.12-1.05,15.84-3.42,19.021-4.647   c1.471-0.54,5.698-4.05,10.528-8.7c4.021-3.899,4.892-4.62,7.11-5.67c1.38-0.66,2.938-1.32,3.479-1.41   c1.682-0.33,1.109-0.96-1.858-1.89c-8.82-2.82-23.013-5.58-30.63-5.94l-3.9-0.18L664.8,470.28z" style="stroke:black;fill:#BFDAE3"/><path id="180623552" parent_id="180608862" order="48" structure_id="1" d="M551.7,290.55   c-1.23,0.24-3.03,0.42-3.96,0.42c-1.472,0.03-1.74,0.12-1.74,0.57c0,0.33-0.27,1.62-0.63,2.94c-0.72,2.73-0.87,7.47-0.3,9.87   c0.569,2.49,1.59,4.95,2.01,4.95c0.24,0,0.42-0.148,0.42-0.33c0-0.51,2.22-3.54,2.641-3.57c0.182,0,0.359-0.21,0.359-0.48   s0.87-1.65,1.891-3.09l1.92-2.58l-0.148-3.99c-0.12-3.51-0.091-3.96,0.357-3.96c0.271,0,0.48-0.24,0.48-0.6   C555,290.01,554.88,290.01,551.7,290.55z" style="stroke:black;fill:#BFDAE3"/><path id="180623552" parent_id="180608862" order="49" structure_id="1" d="M735.42,304.44   c-0.87,0.69-1.32,1.621-1.32,2.73c0,1.29,0.271,1.83,0.961,1.83c0.33,0,1.709,0.78,3.029,1.71   c23.13,16.14,38.73,35.851,50.43,63.75c6.42,15.3,9.813,30.63,11.013,49.74c0.42,6.688,0.18,17.938-0.48,22.8   c-1.5,11.01-4.737,22.2-9.028,31.14c-3.602,7.591-6.989,12.091-20.342,27.21c-2.607,2.973-6.117,7.143-7.77,9.302   c-9.66,12.479-25.92,31.948-35.49,42.448c-8.49,9.33-16.351,18.87-19.38,23.49c-0.75,1.2-1.649,2.43-1.95,2.76   c-0.63,0.631-1.08,2.58-0.777,3.33c0.209,0.603,0.959,0.54,2.129-0.18c0.541-0.33,1.141-0.6,1.381-0.6   c0.21,0,0.539-0.33,0.72-0.723c0.18-0.39,2.01-2.1,4.08-3.777c3.239-2.61,3.78-3.183,3.78-3.9c0-0.689,1.38-2.43,7.289-9.061   c4.021-4.5,9.841-10.802,12.931-14.012c7.29-7.527,12.81-13.83,22.44-25.59c4.289-5.25,9.897-11.938,12.447-14.85   c9.24-10.5,13.563-15.99,18.78-23.79c6.45-9.57,12.39-20.58,14.28-26.313c4.438-13.527,5.46-27.567,3.479-48.09   c-0.87-8.76-2.58-22.05-3.359-25.649c-2.398-11.521-9.358-26.431-18.811-40.229c-7.08-10.35-8.7-12.9-11.55-18.03   c-1.68-3-3.03-5.79-3.03-6.18c0-0.45-0.449-1.021-1.408-1.8c-0.812-0.601-2.25-1.8-3.24-2.61c-2.34-2.01-8.791-6.33-12.75-8.609   c-3.659-2.101-11.819-6.209-14.852-7.471c-1.14-0.479-2.13-0.96-2.189-1.08C736.68,303.75,736.08,303.87,735.42,304.44z" style="stroke:black;fill:#BFDAE3"/><path id="180623552" parent_id="180608862" order="50" structure_id="1" d="M727.05,495.75   c-1.318,0.24-3.27,0.51-4.35,0.63s-2.22,0.39-2.55,0.602c-0.33,0.181-1.86,0.721-3.42,1.141c-1.53,0.45-5.643,1.83-9.15,3.06   c-9.24,3.271-14.16,4.53-21.18,5.49c-3.302,0.48-9.603,0.931-12.57,0.931h-2.58l-5.1,5.039c-2.82,2.763-6.511,6.15-8.223,7.53   c-8.1,6.48-39.867,26.13-42.238,26.13c-0.209,0-0.392,0.21-0.392,0.45c0,0.9,4.592,0.42,16.08-1.648   c2.79-0.479,7.021-1.172,9.42-1.5c5.4-0.75,9.45-1.529,14.79-2.882c2.643-0.688,4.44-0.987,4.979-0.868   c0.931,0.211,0.479,0.511,11.131-8.25c7.317-6.062,11.79-8.699,14.97-8.939c1.74-0.12,1.8-0.15,3.96-2.34   c1.2-1.23,2.432-2.223,2.729-2.223c0.33,0,0.541-0.21,0.541-0.537c0-1.923,26.011-13.893,28.5-13.11   c0.479,0.147,1.021-0.15,2.25-1.29c0.898-0.84,3.181-2.76,5.101-4.29c1.891-1.53,3.45-2.97,3.45-3.181   C733.2,495.18,730.32,495.21,727.05,495.75z" style="stroke:black;fill:#BFDAE3"/><path id="180623552" parent_id="180608862" order="51" structure_id="1" d="M592.74,612.72c-0.813-1.229-2.431-3.06-3.631-4.107c-4.892-4.32-5.011-4.41-5.011-5.521   c0-1.229,1.109-2.49,2.25-2.49c1.142,0,0.932-0.777-0.391-1.288c-2.37-0.962-22.41-10.529-22.5-10.771   c-0.061-0.12-0.359-0.24-0.689-0.24c-0.329,0-0.659-0.21-0.75-0.45c-0.118-0.237-0.479-0.447-0.868-0.447   c-0.36,0-2.82-0.841-5.433-1.86c-7.829-3-13.317-4.771-15.27-4.92c-0.152-0.011-0.304-0.018-0.45-0.02v14.379   c1.533-0.022,2.987,0.073,4.35,0.311c10.5,1.86,21.69,7.26,31.65,15.3c8.068,6.511,12.6,12.393,12.6,16.32   c0,0.96,0.12,1.59,0.33,1.59c0.54,0,3.091-1.979,4.32-3.33C596.4,621.689,596.25,617.939,592.74,612.72z" style="stroke:black;fill:#BFDAE3"/><path id="180623552" parent_id="180608862" order="52" structure_id="1" d="M693.54,518.01   c-1.021,0.15-8.61,7.92-14.16,14.49c-4.47,5.28-11.729,12.84-16.38,17.04c-3.75,3.42-7.38,5.82-16.95,11.31   c-7.92,4.53-8.97,5.19-12,7.683c-5.34,4.317-13.35,12.39-13.83,13.857c-0.09,0.33-0.03,0.9,0.182,1.263   c0.301,0.538,0.271,1.107-0.119,2.85c-0.271,1.2-0.75,3.87-1.08,5.91l-0.57,3.75l0.78,1.229c1.62,2.671,3.688,4.29,6.72,5.342   c2.82,0.959,8.25,0.898,13.92-0.149c9.69-1.86,22.021-5.49,30.45-9.03c8.07-3.358,14.82-8.188,23.82-16.95   c6.39-6.238,9.357-9.75,14.908-17.729c6.779-9.75,9.539-14.46,11.819-20.22c0.75-1.92,0.78-2.19,0.479-3.631   c-1.352-5.939-6.899-11.58-14.312-14.552C702.75,518.67,696.33,517.53,693.54,518.01z" style="stroke:black;fill:#BFDAE3"/><path id="180623552" parent_id="180608862" order="53" structure_id="1" d="M717.75,505.62   c-8.82,3.148-23.85,10.53-23.85,11.729c0,0.24,0.989,0.421,2.938,0.54c10.74,0.631,21.813,7.65,24.271,15.393   c0.271,0.897,0.659,1.62,0.898,1.62c0.841,0,3.063-9.12,3.091-12.69c0-2.79-0.448-3.96-1.979-4.979   c-1.649-1.142-3.96-3.842-4.352-5.069c-0.511-1.771,0.062-3.33,1.979-5.431C723.42,503.85,723.061,503.73,717.75,505.62z" style="stroke:black;fill:#BFDAE3"/><path id="180623552" parent_id="180608862" order="54" structure_id="1" d="M727.65,476.88   c-9.48,5.73-25.62,11.34-40.44,14.07c-2.28,0.42-4.26,0.75-4.38,0.75s-0.66,0.84-1.2,1.859c-1.2,2.368-4.05,6.391-7.38,10.351   c-1.41,1.68-2.55,3.21-2.55,3.39c0,0.57,8.76,0.21,14.7-0.6c7.107-0.99,11.22-2.103,24.448-6.57c3.961-1.35,7.739-2.61,8.399-2.819   c1.71-0.541,3.66-3.12,6.148-8.158c1.979-3.99,4.802-11.521,4.802-12.78C730.2,475.561,729.689,475.65,727.65,476.88z" style="stroke:black;fill:#BFDAE3"/><path id="180623552" parent_id="180608862" order="55" structure_id="1" d="M745.77,467.7c-0.237,0.147-1.8,0.6-3.447,1.02   c-6.12,1.591-5.25,1.143-10.65,5.7c-0.54,0.45-1.08,1.59-1.771,3.63c-2.461,7.5-4.17,11.37-6.779,15.392   c-0.9,1.351-1.62,2.641-1.62,2.818c0,0.36,0.66,0.301,5.7-0.51c1.56-0.24,3.779-0.45,4.89-0.45c2.04,0,2.04,0,4.473-1.83   c3.657-2.79,7.379-4.47,10.02-4.47c0.84,0,1.17-0.3,2.939-2.67c1.08-1.44,1.979-2.76,1.979-2.91s-0.75-0.99-1.648-1.89   c-2.369-2.341-3.149-4.11-3.359-7.62c-0.15-2.19-0.061-3.21,0.33-4.38c0.27-0.813,0.479-1.65,0.479-1.8   C747.3,467.34,746.43,467.311,745.77,467.7z" style="stroke:black;fill:#BFDAE3"/><path id="180623552" parent_id="180608862" order="56" structure_id="1" d="M749.73,486.12   c-1.803,2.49-2.223,3.479-1.44,3.479c0.72,0,2.04,1.683,2.49,3.15c0.479,1.62,0.54,5.82,0.12,9c-0.541,4.2-0.933,9.57-0.75,10.26   c0.09,0.36,0.33,0.69,0.539,0.69c0.211,0,2.068-3.45,4.108-7.683c4.05-8.368,6.57-12.81,9.15-16.17   c0.897-1.198,1.647-2.31,1.647-2.487c0-0.15-0.479-0.393-1.05-0.48c-0.569-0.12-1.14-0.42-1.29-0.689   c-0.21-0.358-1.08-0.511-3.99-0.721c-2.039-0.12-4.317-0.358-5.067-0.54C751.77,483.36,751.71,483.39,749.73,486.12z" style="stroke:black;fill:#BFDAE3"/><path id="180623552" parent_id="180608862" order="57" structure_id="1" d="M685.2,457.2   c-4.261,0.42-8.102,1.35-11.13,2.729c-1.83,0.841-2.16,1.143-4.261,3.99c-1.291,1.71-2.312,3.24-2.312,3.392   c0,0.181,1.26,0.391,2.79,0.511c8.7,0.66,22.8,3.448,31.229,6.18l3.813,1.23l5.01-0.633c4.59-0.567,13.62-2.25,16.352-3   c1.738-0.51,1.381-1.02-1.051-1.438c-3.061-0.54-7.921-2.221-11.101-3.87c-3.09-1.59-5.521-3.3-8.16-5.76   c-1.83-1.683-1.92-1.74-4.979-2.4C696.09,457.02,690.391,456.689,685.2,457.2z" style="stroke:black;fill:#BFDAE3"/><path id="180623552" parent_id="180608862" order="58" structure_id="1" d="M680.7,353.4c0,0.148,0.39,1.68,0.87,3.358   c1.89,6.602,3,13.142,3.778,22.59c0.239,2.972,0.989,9.78,1.649,15.15c1.771,14.13,1.857,20.7,0.42,30.6   c-1.771,12.24-6,22.83-12.93,32.433c-1.592,2.22-1.23,2.55,1.56,1.5c0.842-0.3,2.91-0.9,4.65-1.29c2.76-0.603,3.93-0.69,9.6-0.69   c5.551,0,6.933,0.09,9.87,0.69c1.86,0.39,3.479,0.6,3.57,0.51c0.117-0.09-0.03-0.54-0.303-0.99c-3.09-4.949-4.407-8.13-5.34-12.66   c-2.188-10.71,0-25.979,5.131-36.06c2.521-4.95,5.729-7.74,11.67-10.2c1.08-0.45,2.521-0.899,3.24-0.99   c2.01-0.33,1.649-0.987-1.5-2.789c-7.229-4.109-14.07-10.529-20.641-19.409c-2.46-3.33-6.93-10.021-11.25-16.892   C681.93,353.76,680.7,352.32,680.7,353.4z" style="stroke:black;fill:#BFDAE3"/><path id="180623552" parent_id="180608862" order="59" structure_id="1" d="M720.45,423.93   c-4.8,0.723-8.7,2.61-12.33,6.063l-2.521,2.37v4.407c0,7.65,1.261,16.86,2.67,19.83c0.421,0.9,1.649,2.553,2.699,3.69   c2.46,2.61,5.972,4.44,10.381,5.37c3.989,0.87,13.352,0.96,16.261,0.148c4.438-1.198,7.83-4.021,10.5-8.761   c3.87-6.81,5.551-13.5,5.608-22.108c0.03-4.619,0.03-4.71-0.72-5.489c-1.143-1.23-5.82-3.392-9.12-4.2   c-4.771-1.2-9.18-1.65-15.72-1.62C724.92,423.66,721.439,423.78,720.45,423.93z" style="stroke:black;fill:#BFDAE3"/><path id="180623552" parent_id="180608862" order="60" structure_id="1" d="M726.15,471.78   c-4.65,1.2-10.591,2.31-16.95,3.12c-4.98,0.659-8.16,1.59-10.8,3.09c-0.933,0.54-3.69,2.91-6.302,5.46   c-2.58,2.46-5.368,5.04-6.239,5.7c-3,2.25-2.011,2.43,5.131,0.897c16.17-3.479,30-8.7,39.06-14.817   c3.841-2.553,5.25-3.723,5.25-4.23C735.3,470.311,730.17,470.73,726.15,471.78z" style="stroke:black;fill:#BFDAE3"/><path id="180623552" parent_id="180608862" order="61" structure_id="1" d="M806.25,604.38   c-7.65,3.09-18.51,7.14-23.58,8.76c-4.77,1.53-8.52,2.433-15.42,3.78c-9.09,1.771-17.311,4.92-23.85,9.21   c-3.603,2.37-9.631,8.312-11.103,10.92c-0.54,0.99-1.408,2.313-1.89,2.94c-0.932,1.17-3.57,2.91-4.473,2.91   c-1.229,0-0.39,0.869,1.803,1.857c2.938,1.353,3.06,1.41,5.31,1.71c1.142,0.183,2.763,0.15,4.23-0.028   c1.317-0.182,3.869-0.329,5.67-0.392c1.83-0.028,3.987-0.21,4.8-0.42c1.29-0.33,1.62-0.567,2.398-1.77   c1.262-1.95,3.812-3.9,7.892-6c8.817-4.563,14.04-6.15,36.24-11.16c8.278-1.892,15.06-2.7,22.198-2.7   c3.959,0,6.119-0.24,6.119-0.72c0-0.183-0.777-0.722-1.74-1.23c-2.459-1.26-5.729-4.62-7.049-7.229   c-1.591-3.183-2.131-5.46-2.131-9.21c0.03-2.103-0.09-3.21-0.3-3.21C811.2,602.43,808.891,603.3,806.25,604.38z" style="stroke:black;fill:#BFDAE3"/><path id="180623552" parent_id="180608862" order="62" structure_id="1" d="M927.03,604.29   c-8.4,12.479-23.91,24.271-37.682,28.71c-5.58,1.77-7.141,1.41-19.351-4.5c-13.438-6.51-15.393-7.05-25.2-7.05   c-6.688,0-6.81,0-12.51,1.17c-3.183,0.66-5.79,1.35-5.79,1.5c0,0.18,0.812,0.78,1.8,1.35c3.392,1.95,6.933,6.21,8.4,10.143   c2.64,7.05,0.567,13.5-6,18.777c-5.49,4.41-13.23,7.143-23.552,8.37c-4.801,0.57-19.738,0.45-25.648-0.18   c-16.771-1.8-29.49-7.62-31.95-14.58c-0.238-0.689-0.449-1.62-0.449-2.01c0-0.631-0.118-0.723-0.659-0.603   c-0.392,0.093-1.472,0.33-2.432,0.513c-1.409,0.3-1.739,0.447-1.618,0.84c0.238,0.75,1.408,4.26,1.891,5.64   c1.17,3.33,2.37,4.29,10.17,8.22c7.53,3.813,14.37,5.91,22.77,6.961c4.021,0.512,20.671,0.512,25.83,0   c20.73-2.068,29.853-4.291,36.3-8.909c2.16-1.562,3.48-2.939,5.37-5.609c1.471-2.16,3.091-3.45,5.7-4.59   c2.88-1.262,4.471-1.41,12.21-1.021c11.07,0.57,21.78-0.21,27.12-1.979c6.93-2.313,16.29-8.13,25.8-16.08   c6.182-5.19,19.353-18.721,19.353-19.891c0-0.392-7.383-7.199-7.95-7.319C928.71,602.1,927.87,603.061,927.03,604.29z" style="stroke:black;fill:#BFDAE3"/><path id="180623552" parent_id="180608862" order="63" structure_id="1" d="M811.74,624.3   c-5.58,0.271-8.46,0.66-14.313,1.83c-8.97,1.86-24.329,5.67-28.229,7.021c-7.44,2.579-14.13,5.938-17.341,8.697   c-3.539,3.063-3.209,6.69,0.931,10.563c5.31,4.95,14.61,8.34,27.09,9.87c5.28,0.63,20.4,0.897,25.561,0.449   c12.541-1.109,21.212-4.319,27.092-9.989c3.42-3.302,4.77-6.21,5.01-10.591c0.148-3.302-0.359-5.642-1.95-8.852   c-1.47-2.938-5.34-6.898-8.159-8.34l-1.92-0.96l-4.528,0.061C818.49,624.061,814.32,624.18,811.74,624.3z" style="stroke:black;fill:#BFDAE3"/><path id="180623552" parent_id="180608862" order="64" structure_id="1" d="M861.72,590.52   c-1.95,1.95-4.229,3.33-7.38,4.41c-6.33,2.16-13.47,1.71-17.67-1.107c-1.14-0.75-1.83-1.021-2.37-0.933   c-0.42,0.092-5.43,2.103-11.189,4.53c-5.729,2.4-10.528,4.38-10.681,4.38c-0.72,0-0.84,5.46-0.18,8.49   c1.08,5.19,4.68,9.81,9.33,12.09c2.97,1.47,4.35,1.47,10.77,0.15c7.473-1.53,12.78-1.893,18.063-1.23   c5.521,0.69,9.028,1.98,20.489,7.5c8.761,4.23,10.108,4.74,12.75,5.012c5.729,0.538,19.858-6.422,29.551-14.552   c6.54-5.489,15-15.33,15-17.46c0-0.75-6.75-6.6-9.21-8.01c-2.28-1.29-4.893-1.74-9.54-1.71c-4.41,0.06-8.012,0.6-14.103,2.13   c-2.31,0.57-5.01,1.26-6,1.5c-5.13,1.29-15.06-1.08-22.527-5.37c-1.382-0.779-2.761-1.41-3.063-1.41   C863.49,588.96,862.561,589.65,861.72,590.52z" style="stroke:black;fill:#BFDAE3"/><path id="180623552" parent_id="180608862" order="65" structure_id="1" d="M857.7,581.22c-2.55,0.54-3.932,1.17-8.25,3.78   c-1.98,1.17-5.94,3.3-8.79,4.71c-3.66,1.83-5.16,2.7-5.1,3.03c0.147,0.75,3.6,2.43,5.97,2.938c3,0.633,8.579,0.421,11.609-0.447   c5.278-1.53,9.601-4.74,11.488-8.58c1.08-2.223,1.29-4.353,0.512-5.131C864.45,580.83,860.37,580.68,857.7,581.22z" style="stroke:black;fill:#BFDAE3"/><path id="180623552" parent_id="180608862" order="66" structure_id="1" d="M892.8,507.75c0,0.78-1.68,12.15-2.25,15.36   c-1.109,6-2.97,12.93-4.56,16.89c-1.86,4.71-6.813,14.76-9.24,18.75c-4.32,7.14-10.109,13.77-16.439,18.811   c-1.648,1.319-3.181,2.459-3.42,2.552c-0.211,0.09-0.391,0.357-0.391,0.6c0,0.36,0.359,0.39,2.34,0.18   c3.87-0.39,6.03-0.118,6.721,0.933c0.479,0.72,0.209,2.46-0.688,4.438c-0.78,1.65-0.9,2.103-0.57,2.49   c0.21,0.24,2.131,1.32,4.32,2.4c6.51,3.21,11.88,4.71,17.13,4.71c2.609,0.027,3.57-0.15,7.5-1.23c6.3-1.74,10.41-2.46,15.3-2.64   c7.021-0.271,9.302,0.448,14.04,4.38c1.771,1.5,5.16,4.438,7.473,6.54c6.357,5.729,6.75,6.09,7.079,6.09   c0.421,0,2.25-2.398,5.521-7.2c6.479-9.479,14.67-23.79,18.66-32.608c2.16-4.829,3.028-7.591,6.18-19.892   c1.47-5.698,3.359-12.66,4.2-15.448c1.71-5.552,2.79-9.479,2.64-9.569c-0.119-0.091-81.028-16.683-81.33-16.683   C892.891,507.6,892.8,507.66,892.8,507.75z" style="stroke:black;fill:#BFDAE3"/><path id="180623552" parent_id="180608862" order="67" structure_id="1" d="M894.78,479.311   c-0.391,8.13-1.11,19.319-1.53,23.489c-0.21,2.4-0.33,4.44-0.21,4.53c0.33,0.3,81.149,16.77,81.33,16.59   c0.42-0.42,0.148-9.359-0.39-11.97c-1.171-5.853-4.053-13.05-7.65-19.021c-1.05-1.71-2.01-3.447-2.16-3.897l-0.27-0.813   l-33.99-6.357c-18.66-3.512-34.17-6.36-34.44-6.36C895.02,475.5,894.93,476.04,894.78,479.311z" style="stroke:black;fill:#BFDAE3"/><path id="180623552" parent_id="180608862" order="68" structure_id="1" d="M896.88,449.311   c-0.479,3.812-1.648,17.25-1.83,21.271l-0.21,4.56l0.84,0.183c0.48,0.09,15.722,2.938,33.87,6.33c18.15,3.42,33.3,6.27,33.63,6.33   c0.54,0.147,0.722-0.03,1.021-0.9c0.449-1.41,2.067-2.76,4.68-3.99c2.49-1.14,3.42-2.188,5.221-5.938   c2.069-4.382,3.899-10.563,5.102-17.521c0.659-3.75,0.72-4.83,0.33-4.83c-0.511,0-79.41-6.6-80.91-6.75l-1.53-0.18L896.88,449.311z   " style="stroke:black;fill:#BFDAE3"/><path id="180623552" parent_id="180608862" order="69" structure_id="1" d="M899.28,422.76   c-0.091,0.87-0.391,4.29-0.63,7.59c-0.271,3.303-0.75,8.553-1.052,11.7c-0.301,3.12-0.539,5.7-0.511,5.73   c0.15,0.09,81.182,6.75,81.99,6.72h0.93l0.21-2.1c0.513-5.07,0.69-11.973,0.54-20.223c-0.09-4.89-0.239-8.88-0.33-8.88   c-1.438,0-71.58-1.83-75.539-1.95l-5.431-0.21L899.28,422.76z" style="stroke:black;fill:#BFDAE3"/><path id="180623552" parent_id="180608862" order="70" structure_id="1" d="M937.05,386.4   c-20.46,1.289-37.2,2.369-37.2,2.369c0,0.029,0,5.25,0,11.641c0,6.42-0.09,13.68-0.239,16.14l-0.209,4.53l39.209,0.96   c21.602,0.54,39.842,0.99,40.562,0.96h1.32l-0.21-9.84c-0.183-8.94-0.392-14.43-0.961-25.351l-0.211-3.81l-2.432,0.03   C975.359,384.061,957.51,385.11,937.05,386.4z" style="stroke:black;fill:#BFDAE3"/><path id="180623552" parent_id="180608862" order="71" structure_id="1" d="M911.34,289.29   c-27.66,14.01-36.84,18.78-36.84,19.17c0,0.3,1.02,2.46,2.28,4.8c12.51,23.313,20.159,47.34,22.438,70.563   c0.24,2.43,0.513,4.5,0.57,4.59c0.12,0.09,70.95-4.11,76.8-4.59l2.313-0.182v-1.71c0-3.72-1.62-19.89-2.881-28.858   c-2.729-19.472-7.171-35.972-14.972-55.32c-4.35-10.83-11.908-27.15-12.567-27.15C948.3,270.6,931.59,279,911.34,289.29z" style="stroke:black;fill:#BFDAE3"/><path id="180623552" parent_id="180608862" order="72" structure_id="1" d="M587.73,623.55c-3.933-8.25-19.53-20.34-32.462-25.14c-6.192-2.314-10.948-3.424-15.271-3.463v48.185   c1.697,0.015,3.293-0.104,4.95-0.352c9.18-1.44,35.46-8.04,38.908-9.813C588.359,630.66,589.65,627.57,587.73,623.55z M556.2,619.8   c-1.95,0-2.82-2.37-1.32-3.568c1.021-0.812,1.92-0.812,2.761-0.029C559.02,617.49,558.09,619.8,556.2,619.8z M556.561,614.37   c-1.771,0.51-4.5-0.84-4.591-2.28c-0.12-1.62,0.21-2.25,1.682-3.15c1.108-0.657,2.278-0.688,3.568-0.09   C559.95,610.14,559.561,613.53,556.561,614.37z" style="stroke:black;fill:#BFDAE3"/><path id="180623552" parent_id="180608862" order="73" structure_id="1" d="M718.5,397.35   c-3.18,0.66-6.54,2.103-8.58,3.632c-0.84,0.601-0.99,1.021-1.561,3.778c-1.529,7.38-2.399,14.4-2.67,21.603   c-0.149,3.93-0.091,5.04,0.181,5.04c0.21,0,1.47-0.961,2.819-2.103c5.521-4.739,11.131-6.239,21.811-5.91   c9.15,0.301,16.439,1.98,20.939,4.83c1.801,1.11,1.979,1.05,1.771-0.72c-0.479-3.9-3-9.21-6.51-13.561   c-4.38-5.432-12.66-12.239-18.45-15.119c-2.939-1.473-3.54-1.683-5.55-1.771C721.41,396.96,719.609,397.11,718.5,397.35z" style="stroke:black;fill:#BFDAE3"/><path id="180623552" parent_id="180608862" order="74" structure_id="1" d="M734.7,309.39c0,0.57,1.89,3.63,3.75,6.091   c0.898,1.171,3.148,3.721,5.01,5.699c1.89,1.95,3.66,4.08,3.96,4.74c0.45,0.96,1.021,3.87,1.86,9.36c0.12,0.84,0.3,0.989,1.92,1.47   c2.609,0.78,5.79,2.67,7.62,4.5c1.857,1.83,4.05,4.68,7.92,10.23c1.5,2.188,3.72,5.039,4.92,6.33   c3.479,3.81,5.25,8.129,8.49,20.938c2.88,11.34,4.317,22.68,5.25,41.25c0.18,3.39,0.39,6.96,0.447,7.95   c0.48,5.487,0.69,13.979,0.45,18.028c-0.6,9.33-2.31,15.632-6.897,25.172c-3.12,6.479-6.33,10.68-9.66,12.567   c-2.521,1.41-5.642,4.893-8.313,9.271c-0.688,1.14-3.42,6.39-6.06,11.697c-2.67,5.28-5.521,10.65-6.36,11.883   c-0.84,1.229-6.18,8.46-11.88,16.079c-5.729,7.591-11.938,16.079-13.83,18.898c-6.449,9.602-13.89,19.71-21.81,29.58   c-2.19,2.76-3.99,5.13-3.99,5.34c0,0.69,1.38,0.271,4.62-1.47c2.85-1.53,3.42-1.95,4.05-3.062   c2.222-3.988,11.7-15.538,21.33-26.038c7.92-8.643,25.26-29.433,34.41-41.25c1.648-2.16,5.159-6.33,7.77-9.302   c13.353-15.119,16.74-19.619,20.341-27.211c4.291-8.938,7.529-20.13,9.029-31.14c0.66-4.86,0.9-16.11,0.48-22.8   c-1.2-19.11-4.593-34.44-11.013-49.74c-11.697-27.898-27.3-47.609-50.43-63.75C735.689,309,734.7,308.64,734.7,309.39z" style="stroke:black;fill:#BFDAE3"/><path id="180623552" parent_id="180608862" order="75" structure_id="1" d="M773.76,418.41   c-0.96,1.5-1.26,2.25-1.14,2.79c0.45,1.92,0.54,7.318,0.21,10.08c-1.021,8.159-3.99,18.147-8.28,27.779   c-0.87,1.921-3.39,6.658-5.64,10.528c-4.29,7.352-6.812,12.24-6.812,13.143c0,0.567,1.529,1.17,2.939,1.17   c0.897,0,1.26-0.45,4.68-5.553c6.722-10.05,13.98-24.147,15.48-29.97c0.84-3.27,1.198-6.39,1.5-12.6   c0.39-8.4-0.36-19.381-1.32-19.381C775.2,416.4,774.48,417.3,773.76,418.41z" style="stroke:black;fill:#BFDAE3"/><path id="180623552" parent_id="180608862" order="76" structure_id="1" d="M770.91,423.061   c-0.96,1.649-4.23,8.222-4.65,9.392c-0.18,0.479-1.08,3.479-1.979,6.63c-2.58,9-5.313,15.54-8.461,20.25   c-0.779,1.17-2.789,3.39-4.771,5.22c-1.859,1.771-3.6,3.63-3.84,4.142c-1.05,2.25-0.84,7.381,0.42,9.871   c0.75,1.527,3.21,4.14,3.87,4.14c0.3,0,0.688-0.54,0.99-1.44c0.539-1.47,2.67-5.397,7.83-14.277c3.147-5.461,3.63-6.45,5.909-12.12   c4.409-11.012,6.568-20.19,6.568-27.96c0-2.28-0.09-4.353-0.18-4.62C772.32,421.47,771.689,421.74,770.91,423.061z" style="stroke:black;fill:#BFDAE3"/><path id="180623552" parent_id="180608862" order="77" structure_id="1" d="M737.34,342.33   c-3.51,5.31-5.76,10.95-6.87,17.25c-0.779,4.53-0.84,12.66-0.12,17.97c0.813,6.03,2.762,13.98,4.98,20.07   c0.9,2.49,0.99,2.61,3.51,4.74c6.69,5.579,12.721,12.72,15.42,18.21l1.53,3.09l1.05-0.18c1.71-0.271,8.101-3.541,12-6.15   c3.93-2.641,8.46-6.69,9.96-8.97c1.08-1.62,1.08-1.32-0.03-12.21c-1.5-14.67-3.75-22.353-9.688-33.15   c-5.58-10.14-11.28-16.23-18.601-19.8c-3.182-1.562-7.262-2.88-9.932-3.181l-1.56-0.181L737.34,342.33z" style="stroke:black;fill:#BFDAE3"/><path id="180623552" parent_id="180608862" order="78" structure_id="1" d="M709.8,330.57c0,0.119,0.54,1.17,1.17,2.31   c2.313,4.05,3.24,8.7,2.46,12.51c-0.897,4.2-4.26,8.7-7.739,10.352c-1.709,0.81-1.83,0.81-7.591,0.778c-4.14,0-6.777-0.148-9-0.539   c-5.34-0.899-5.698-0.931-5.698-0.359c0,0.689,9.421,15.21,12.868,19.83c7.171,9.51,13.683,15.45,21.78,19.83   c2.312,1.26,3.03,1.5,4.891,1.647c1.83,0.15,2.7,0.42,4.95,1.563c1.529,0.777,2.939,1.41,3.149,1.41c0.569,0,0.45-0.57-0.81-4.382   c-3.48-10.438-5.041-19.979-4.74-29.188c0.3-9.66,2.43-17.16,6.688-23.642c1.052-1.618,1.892-3.06,1.802-3.238   c-0.063-0.182-1.17-0.48-2.49-0.69c-4.23-0.66-8.58-2.34-13.74-5.31C713.97,331.29,709.8,329.76,709.8,330.57z" style="stroke:black;fill:#BFDAE3"/><path id="180623552" parent_id="180608862" order="79" structure_id="1" d="M891.93,258.81   c-33.81,24.99-34.56,25.59-33.357,26.31c1.107,0.69,10.229,14.01,13.527,19.77c0.9,1.59,1.86,2.879,2.103,2.91   c0.688,0,74.1-37.32,74.1-37.68c0-0.36-0.18-0.69-3.3-6.42c-6.42-11.76-17.91-29.7-19.021-29.7   C925.74,234,910.439,245.16,891.93,258.81z" style="stroke:black;fill:#BFDAE3"/><path id="180623552" parent_id="180608862" order="80" structure_id="1" d="M738.78,127.41   c-1.74,6-21.511,79.05-21.421,79.14c0.061,0.062,3.688,1.2,8.041,2.521c17.97,5.398,33.75,11.34,52.709,19.71   c3.479,1.56,6.45,2.82,6.601,2.82c0.271,0,32.82-74.55,32.79-75.09c0-0.12-1.98-1.2-4.41-2.34c-16.71-7.98-34.02-14.73-56.188-21.9   c-7.439-2.43-17.132-5.37-17.642-5.37C739.08,126.9,738.87,127.14,738.78,127.41z" style="stroke:black;fill:#BFDAE3"/><path id="180623552" parent_id="180608862" order="81" structure_id="1" d="M676.65,114.36   c-0.302,3.63-5.552,81.06-5.461,81.09c0.028,0.03,2.818,0.63,6.211,1.32c8.489,1.77,20.67,4.68,29.58,7.08   c8.97,2.43,9.987,2.7,10.107,2.52c0.21-0.27,21.511-78.75,21.511-79.23c0-0.6-0.511-0.75-10.801-3.54   c-8.55-2.34-16.647-4.32-26.55-6.45c-9.96-2.16-23.46-4.95-24-4.95C676.98,112.2,676.8,112.83,676.65,114.36z" style="stroke:black;fill:#BFDAE3"/><path id="180623552" parent_id="180608862" order="82" structure_id="1" d="M618.63,104.76   c0,0.39,3.061,19.92,6.811,43.44l6.812,42.75l5.7,0.21c7.529,0.24,15.96,1.229,26.55,3.12c2.399,0.42,4.83,0.84,5.399,0.93   l1.08,0.15l2.761-41.04c1.527-22.59,2.79-41.37,2.76-41.7c0-0.57-0.271-0.69-1.71-0.96c-22.38-4.08-36.359-6.12-47.939-6.96   c-2.311-0.15-5.101-0.36-6.209-0.45C618.66,104.07,618.6,104.07,618.63,104.76z" style="stroke:black;fill:#BFDAE3"/><path id="180623552" parent_id="180608862" order="83" structure_id="1" d="M665.91,464.55c-8.16,3.99-19.26,4.86-25.11,1.95c-9.03-4.53-13.89-17.91-13.92-38.25   c0-12.57,1.59-22.47,6.09-38.1c3.813-13.29,6.69-21.54,10.38-30c1.23-2.82,2.25-5.312,2.25-5.521c0-0.27-0.238-0.33-0.659-0.24   c-4.261,0.99-5.25,1.11-9.3,1.11c-6.898,0-15.091-1.29-20.818-3.33c-2.973-1.05-3.303-1.08-3.54-0.18   c-0.603,2.398-4.83,7.17-8.642,9.75c-5.818,3.93-12.061,6.06-17.729,6.06c-3.21,0-5.67-0.568-9.21-2.068   c-6.812-2.91-14.04-9.48-15.36-13.92c-0.18-0.632-0.51-1.23-0.72-1.32c-0.21-0.09-1.38,0.51-2.58,1.29   c-2.729,1.77-6.181,3.51-8.34,4.2c-1.346,0.426-5.09,0.671-8.7,0.699v22.268c8.537-0.059,16.729,0.007,19.05,0.253   c6.392,0.66,12.062,2.28,19.32,5.52c7.17,3.21,16.2,8.73,18.239,11.13c2.641,3.15,4.891,8.012,5.608,12.211   c0.33,1.92,0.392,2.068,1.74,2.938c4.979,3.3,7.351,13.32,4.53,19.11c-1.08,2.22-3.45,4.26-6.84,5.938   c-3.541,1.771-6.75,2.55-10.261,2.58c-4.08,0-6.392-0.75-9.149-3.06c-0.78-0.632-1.53-1.171-1.71-1.171   c-0.15,0-0.392,0.631-0.48,1.409c-0.568,4.109-2.1,9.062-3.6,11.642c-0.45,0.75-1.74,2.37-2.88,3.63   c-1.143,1.26-2.07,2.52-2.07,2.819c0,0.421,0.51,0.688,2.189,1.198c4.801,1.44,10.409,4.711,12.931,7.53   c2.67,2.97,3.479,5.64,3.479,11.521c0,5.068-1.108,8.341-4.021,11.851c-2.189,2.64-2.011,2.76,2.521,1.771   c3.659-0.778,10.892-1.079,14.552-0.601c6.659,0.9,13.709,3,15.72,4.71c3.239,2.79,2.64,9.03-1.71,17.58   c-4.86,9.54-11.13,15.96-18.15,18.479c-3.63,1.32-6,1.683-10.08,1.473c-5.729-0.271-9.63-1.95-13.56-5.88   c-3.78-3.813-6.271-8.94-6.271-12.99c0-2.37,1.2-5.97,3.03-9c1.38-2.37,4.229-6.36,4.74-6.69c0.449-0.27,0.42-1.05-0.03-1.05   c-0.21,0-1.38,0.54-2.64,1.17c-4.142,2.16-7.2,2.61-11.4,1.683c-3.03-0.66-2.818-0.842-3.42,2.607   c-0.898,5.16-2.311,8.73-5.25,13.353l-1.021,1.56l0.513,4.44c0.93,8.52,1.17,12.897,1.199,20.64c0.028,6.93-0.029,7.92-0.511,8.76   c-0.451,0.84-0.688,0.99-1.561,0.99h-1.05v2.16c-0.03,1.2-0.21,3.27-0.48,4.59c-1.47,8.04-1.95,11.4-2.01,14.55l-0.06,3.511   l1.079,1.771c0.63,0.99,1.948,2.46,3,3.358c3.931,3.271,6.959,6.212,8.011,7.771c1.41,2.16,1.77,2.07,1.739-0.39   c-0.029-1.803,0.028-2.04,0.811-2.7c2.069-1.8,7.17-0.24,24.18,7.35c3.36,1.5,6.3,2.73,6.54,2.73c0.57,0,0.48-0.813-0.18-1.74   c-1.71-2.46-3.36-7.11-4.08-11.55c-0.57-3.57-0.57-10.53,0-14.58c1.38-9.42,4.32-14.67,9.779-17.431   c1.318-0.632,2.851-1.262,3.421-1.382c0.6-0.09,1.05-0.357,1.05-0.6s0.21-0.42,0.479-0.42c0.358,0,0.448-0.18,0.3-0.689   c-0.512-1.648-0.512-2.641-0.062-4.351c0.54-2.1,2.07-5.311,3.9-8.16c3.84-5.91,15.3-17.7,23.729-24.33   c2.58-2.04,7.142-5.13,8.58-5.817c0.931-0.45,1.11-0.69,1.41-2.223c0.96-4.56,4.229-9.42,14.46-21.33   c8.25-9.63,12.602-15.06,12.602-15.777C669.9,462.66,669.54,462.78,665.91,464.55z M573.75,555.45   c-1.65,6.147-5.939,10.77-10.26,11.16c-1.563,0.12-1.892,0.027-3.12-0.75c-2.67-1.71-4.261-6.421-4.261-12.66   c0-4.05,0.631-7.08,2.489-11.79c2.041-5.25,4.591-9.03,6.75-9.99c1.17-0.51,1.261-0.51,2.699,0.15c1.32,0.6,2.642,1.979,3.392,3.54   c0.301,0.63,0.688,0.988,1.079,0.988c0.449,0,0.512,0.091,0.239,0.271c-0.3,0.18-0.239,0.75,0.36,2.76   C574.62,544.32,574.891,551.25,573.75,555.45z" style="stroke:black;fill:#BFDAE3"/><path id="180623552" parent_id="180608862" order="84" structure_id="1" d="M604.05,104.31   c-17.489,1.44-30.03,5.85-41.31,14.55c-3.36,2.608-11.4,10.38-11.28,10.95c0.12,0.48,61.649,66.69,62.19,66.87   c0.209,0.09,1.02-0.27,1.8-0.81c3.06-2.07,8.37-3.81,13.8-4.5c1.5-0.18,2.729-0.36,2.79-0.42c0.06-0.062-13.261-84.33-13.62-86.04   l-0.18-0.81l-6.48,0.06C608.189,104.19,604.71,104.25,604.05,104.31z" style="stroke:black;fill:#BFDAE3"/><path id="180623552" parent_id="180608862" order="85" structure_id="1" d="M549.33,132c-3.75,4.5-6.87,10.2-8.189,15   l-0.688,2.55l-0.092,39.51L540.3,228.6h2.761c1.529,0,12.119-0.27,23.489-0.6c11.4-0.33,21.811-0.6,23.13-0.6h2.461l2.22-2.94   c3.392-4.41,6.359-8.88,10.2-15.36c3.779-6.39,5.58-8.94,7.439-10.62c0.66-0.6,1.2-1.26,1.2-1.5c0-0.51-61.352-66.6-61.95-66.72   C551.04,130.2,550.17,130.98,549.33,132z" style="stroke:black;fill:#BFDAE3"/><path id="180623552" parent_id="180608862" order="86" structure_id="1" d="M566.25,228.18   c-12.689,0.36-23.73,0.69-24.51,0.69l-1.44,0.03v8.4v8.4h1.74c4.89,0,8.19,2.85,9.81,8.46c0.36,1.26,0.631,1.74,1.021,1.74   c1.14,0,6.359-1.95,10.08-3.75c7.05-3.42,12.358-7.29,19.14-13.92c4.682-4.59,9.511-9.93,9.511-10.5c0-0.18-0.479-0.3-1.108-0.3   C589.859,227.46,578.97,227.79,566.25,228.18z" style="stroke:black;fill:#BFDAE3"/><path id="180623552" parent_id="180608862" order="87" structure_id="1" d="M681.061,218.85   c-14.278,1.62-23.068,4.8-28.62,10.35c-1.8,1.77-2.58,2.88-3.448,4.68c-1.052,2.16-1.143,2.58-1.11,4.77   c0.03,3,0.84,5.19,3.722,10.2c2.278,3.99,5.131,9.57,5.729,11.31c0.84,2.43,1.08,1.38,1.26-5.55c0.12-5.34,0.271-7.14,0.78-9.12   c1.89-7.53,6.42-11.43,16.318-14.04c5.552-1.47,9-1.8,18.062-1.8c14.102,0.03,17.91,0.75,32.852,6.15   c16.92,6.12,29.188,11.49,42.75,18.75c16.83,8.97,28.618,16.14,36.148,22.021c10.74,8.34,30.96,32.79,37.771,45.659   c3.42,6.421,5.488,14.761,10.979,43.921c3.063,16.38,4.352,22.38,8.58,40.05c3.779,15.87,7.649,30.93,10.32,40.2   c5.67,19.8,7.38,28.47,7.409,37.647c0,7.021-1.802,25.32-3.512,35.46c-2.43,14.431-6.359,25.74-11.52,33.15   c-3.063,4.438-10.74,12.24-16.53,16.89c-13.59,10.83-34.29,19.65-65.25,27.75c-4.8,1.23-4.65,1.2-4.65,1.62   c0,0.24,0.541,0.45,1.44,0.57c0.78,0.09,4.021,0.51,7.2,0.93c3.21,0.42,7.26,0.87,9.029,0.96l3.238,0.21l4.262-2.16   c5.131-2.607,9.211-4.229,18.778-7.527c11.07-3.813,13.021-4.65,20.91-9.183c16.021-9.18,23.311-16.56,30.51-30.93   c7.23-14.398,11.04-30.96,12.933-56.04c0.959-12.75,0.897-33.39-0.15-46.649c-1.05-12.988-2.55-19.948-8.4-39.028   c-3.777-12.271-3.75-12.182-6.6-25.92c-4.5-21.69-7.26-31.41-12.9-45.602c-13.17-33.12-28.14-54.21-51.448-72.36   c-14.609-11.37-31.052-20.37-54.602-29.88c-21.87-8.82-39.479-14.43-52.95-16.89C695.1,218.46,686.73,218.19,681.061,218.85z" style="stroke:black;fill:#BFDAE3"/><path id="180623552" parent_id="180608862" order="88" structure_id="1" d="M691.109,233.4   c-12.119,0.66-20.25,2.94-24.569,6.87c-3.45,3.18-3.99,5.19-3.78,14.91c0.36,17.312-0.96,23.43-6.358,29.67l-1.261,1.47l0.149,3.6   c0.149,3.93,0.93,7.17,1.74,7.32c1.38,0.27,19.56-17.43,26.43-25.74c6.12-7.41,10.56-11.4,15.24-13.8   c5.1-2.58,10.229-2.97,16.859-1.26c10.47,2.7,23.97,8.07,38.641,15.39c17.76,8.88,27.3,15.48,39.42,27.27   c17.909,17.43,29.31,36.419,34.648,57.75c3.602,14.341,2.341,25.711-3.148,28.352c-1.65,0.81-2.55,0.54-4.261-1.32   c-1.949-2.13-3.239-4.38-9.359-16.38c-6.63-13.02-9.42-17.85-16.74-28.8c-4.47-6.69-5.49-8.04-8.188-10.71   c-2.25-2.19-4.17-3.69-6.869-5.431c-2.07-1.291-6.45-4.141-9.75-6.329c-12.48-8.28-25.71-13.562-31.802-12.722   c-0.75,0.09-1.351,0.33-1.351,0.51s0.841,0.66,1.89,1.05c2.58,1.02,11.343,5.398,15.183,7.59c4.2,2.43,10.47,6.66,13.05,8.85   c2.46,2.07,3.42,2.79,6.78,4.98c4.08,2.64,7.5,5.82,9.84,9.12c4.021,5.7,12.99,20.579,17.55,29.188c4.08,7.74,7.5,17.88,9.48,28.2   c0.84,4.38,2.607,17.16,3.21,23.101c0.72,6.779,0.688,19.529,0,25.649c-1.29,11.55-4.5,22.89-9.96,35.25   c-3.633,8.22-7.29,13.89-13.86,21.57c-4.021,4.68-6.18,7.35-17.34,21.479c-11.19,14.19-16.17,19.591-35.55,38.58   c-14.94,14.64-18.45,17.91-23.973,22.41c-5.16,4.2-5.16,4.2-5.188,9.51c-0.063,7.47,1.107,7.65,5.64,0.9   c2.58-3.813,5.342-7.11,9.9-11.82c3.63-3.72,7.05-6.81,24.6-22.14c12.603-10.98,11.73-10.17,38.342-36.511   c23.011-22.771,26.101-26.041,30.271-32.132c5.22-7.56,9.75-17.31,13.47-28.92c0.72-2.188,1.71-4.68,2.19-5.52   c3.06-5.04,9.778-3.271,14.369,3.777c3.75,5.763,5.311,11.61,5.311,20.133c0,3.988,0.09,4.71,0.75,6.658   c1.109,3.239,1.5,7.472,1.08,11.762c-0.99,9.87-5.13,21.6-9.6,27.12c-4.683,5.817-16.08,14.907-22.23,17.76   c-4.71,2.16-10.561,3.06-14.07,2.16c-1.08-0.271-2.397-0.843-2.97-1.263c-1.17-0.897-1.47-0.897-6.66,0.36   c-7.409,1.8-16.89,5.46-25.17,9.75c-5.85,3.03-7.29,3.99-21.18,13.92c-17.97,12.84-24.99,18-27.81,20.4   c-4.531,3.897-8.25,8.818-11.763,15.6c-2.04,3.96-4.92,7.95-8.58,11.91c-1.5,1.59-2.698,3-2.698,3.09c0,0.12,0.688,0.84,1.561,1.59   c0.84,0.78,2.46,2.671,3.6,4.171c2.131,2.88,4.052,4.591,5.19,4.591c0.45,0,0.989-0.511,1.8-1.649   c4.59-6.66,16.08-14.521,29.49-20.188c8.43-3.541,13.08-5.069,36.51-11.791c20.25-5.818,25.23-7.351,33.24-10.08   c15.688-5.311,25.29-10.198,34.979-17.729c13.683-10.649,19.592-20.79,23.28-39.93c1.08-5.7,3.9-22.893,4.47-27.301   c1.2-9.359,1.32-16.711,0.33-22.711c-0.567-3.479-1.528-6.75-7.5-25.771c-8.188-25.979-10.619-34.59-12.75-45   c-3.39-16.59-8.397-47.91-9.897-61.649c-1.65-15.119-4.052-20.221-18.69-39.601c-6.39-8.43-9.39-11.91-15.78-18.3   c-5.938-5.94-9.42-8.82-14.88-12.36c-11.55-7.5-38.488-21.39-56.7-29.28c-4.409-1.89-15.06-5.97-20.97-8.04   c-3.51-1.23-7.89-2.34-10.83-2.79C704.46,233.28,696.51,233.1,691.109,233.4z" style="stroke:black;fill:#BFDAE3"/><path id="180623552" parent_id="180608862" order="89" structure_id="1" d="M899.73,393.3c-0.603-12.03-1.893-21.42-4.382-32.01c-6.118-25.95-21.118-56.82-37.438-76.98   c-18.33-22.68-40.5-38.01-80.73-55.86c-25.857-11.46-50.1-19.62-81.239-27.33c-6.568-1.62-7.198-1.71-8.101-1.35   c-2.37,0.96-9.75,0.75-20.88-0.6c-12.51-1.53-24.69-1.17-31.86,0.9c-6.539,1.89-7.89,2.88-21.27,15.93   c-16.471,16.05-20.01,19.26-25.65,23.28c-8.52,6.06-19.8,11.61-31.38,15.54c-5.977,2.001-8.045,2.313-16.8,2.233v27.515   c4.632,0.015,9.197-0.164,12.15-0.559c21.18-2.82,39.93-8.97,52.68-17.34c3.96-2.58,6.63-4.89,9.42-8.07c3.96-4.5,5.7-7.35,12.9-21   c6.239-11.85,11.01-17.46,17.938-21.149c8.25-4.38,24.813-6.75,39.091-5.55c12.239,0.99,26.819,4.32,42.271,9.6   c58.771,20.1,95.97,43.71,117.659,74.7c10.739,15.33,21.121,39.72,29.608,69.51c2.103,7.41,5.972,22.71,8.131,32.34   c0.932,4.11,2.312,9.36,3.029,11.642c3.301,10.198,5.19,21.028,6.12,35.158c0.51,7.563,0.75,43.62,0.33,50.7   c-1.893,32.49-10.68,57.87-26.13,75.54c-4.562,5.19-16.562,13.05-30.15,19.71c-8.22,4.021-14.52,6.69-30.897,13.142   c-7.11,2.791-15.063,5.971-17.7,7.021c-5.13,2.101-8.91,3.18-17.25,4.89c-13.591,2.82-19.5,4.803-24.66,8.28   c-2.19,1.5-5.34,4.41-5.34,4.95s1.021,0.54,1.5,0c0.72-0.9,6.18-4.2,9.54-5.79c4.979-2.37,11.31-4.38,18.239-5.76   c9.688-1.92,14.278-3.24,24.869-7.23c22.261-8.37,47.131-19.108,55.261-23.88c12.391-7.26,20.909-15.24,27.541-25.77   c1.948-3.12,8.01-15.211,9.6-19.2c4.979-12.45,7.65-31.89,9-65.102c0.33-7.948,0.78-14.311,1.77-24.148   C899.52,421.47,900.359,406.17,899.73,393.3z" style="stroke:black;fill:#BFDAE3"/><path id="180623552" parent_id="180608862" order="90" structure_id="1" d="M653.4,323.43   c-6.841,0.51-16.802,1.682-24.211,2.881c-4.05,0.629-4.892,0.869-4.892,1.261c0,0.84,2.91,4.979,4.38,6.3   c2.462,2.16,3.421,2.46,8.432,2.609c8.188,0.239,13.979,1.08,19.561,2.789c4.17,1.291,5.82,1.53,12.12,1.74   c4.29,0.15,5.61,0.09,5.61-0.18c0-0.21-0.45-1.74-1.021-3.45c-1.318-3.87-1.83-7.56-1.561-11.16l0.211-2.729l-3.66-0.181   C663.87,323.07,657.6,323.1,653.4,323.43z" style="stroke:black;fill:#BFDAE3"/><path id="180623552" parent_id="180608862" order="91" structure_id="1" d="M632.25,336.78c-4.32,0.6-5.7,0.84-7.8,1.35   c-3.24,0.81-8.73,2.58-10.2,3.33c-1.561,0.78-3.359,2.49-4.08,3.9c-1.65,3.21,0.15,5.34,6.18,7.229   c9.36,2.94,23.041,3.722,28.291,1.62c1.682-0.66,1.709-0.689,3.659-4.14c3.54-6.271,5.432-8.61,7.74-9.54   c0.51-0.21,0.96-0.57,0.96-0.78c0-0.51-5.43-1.83-9.84-2.4C643.98,336.9,633.96,336.54,632.25,336.78z" style="stroke:black;fill:#BFDAE3"/><path id="180623552" parent_id="180608862" order="92" structure_id="1" d="M655.561,340.8   c-2.67,1.38-5.278,5.19-9.778,14.4c-2.313,4.68-5.58,12.359-5.58,13.08c0,0.54,2.97,3.659,5.188,5.46   c6.239,5.069,14.909,10.17,23.609,13.83c4.53,1.92,12.24,4.528,13.38,4.528c0.78,0,0.78-0.028,0.602-1.59   c-0.421-3.569-1.052-11.1-1.229-14.76c-0.601-12.54-2.79-21.12-6.93-27.36c-3.69-5.55-7.23-7.35-15.87-8.068   C657.18,340.17,656.67,340.26,655.561,340.8z" style="stroke:black;fill:#BFDAE3"/><path id="180623552" parent_id="180608862" order="93" structure_id="1" d="M672.12,324.42   c-0.09,0.45-0.12,2.67-0.03,4.92c0.18,5.13,0.93,7.891,3.66,13.41c2.311,4.71,6.3,11.46,6.99,11.82   c0.81,0.449,7.47,1.47,11.789,1.858c4.318,0.36,8.641,0.182,10.471-0.448c1.891-0.66,4.141-2.552,5.729-4.771   c3.511-5.01,3.778-11.07,0.75-17.16c-2.069-4.17-1.892-4.05-8.521-5.67c-10.891-2.609-19.8-4.109-27.569-4.59l-3.061-0.18   L672.12,324.42z" style="stroke:black;fill:#BFDAE3"/><path id="180623552" parent_id="180608862" order="94" structure_id="1" d="M586.05,333.33c-2.79,0.45-6,0.99-7.109,1.17   c-1.891,0.33-2.158,0.48-5.158,2.97c-1.74,1.44-5.521,4.771-8.46,7.38l-5.28,4.74l0.147,1.17c0.393,3,3.69,7.23,8.4,10.801   c2.67,2.011,7.92,4.649,11.01,5.521c3.063,0.87,8.643,0.75,12.12-0.3c8.73-2.61,15.87-7.71,18.813-13.44   c1.05-2.1,1.078-2.58,0.119-3.51c-1.409-1.32-1.472-3.42-0.149-5.19c0.99-1.318,0.813-1.56-0.96-1.26   c-5.19,0.811-11.91-1.05-14.971-4.109c-1.591-1.591-2.369-3.33-2.369-5.311C592.2,332.1,592.859,332.189,586.05,333.33z" style="stroke:black;fill:#BFDAE3"/><path id="180623552" parent_id="180608862" order="95" structure_id="1" d="M563.609,338.07c-0.239-5.19-1.979-10.801-4.021-12.932c-1.948-2.01-6.12-3.84-12.239-5.369   c-2.782-0.695-5.097-1.031-7.351-1.048v37.619c0.437-0.007,0.883-0.018,1.351-0.03c3.511-0.092,5.972-0.302,6.989-0.602   c3.813-1.11,9.84-4.62,12.15-7.08C563.13,345.811,563.85,343.32,563.609,338.07z" style="stroke:black;fill:#BFDAE3"/><path id="180623552" parent_id="180608862" order="96" structure_id="1" d="M622.47,327.42   c-0.06,0.061-6.72,1.17-14.818,2.46c-10.5,1.65-14.819,2.46-15.062,2.79c-0.99,1.17-0.149,4.08,1.771,6.18   c2.341,2.58,6.329,4.2,11.188,4.562c2.79,0.21,4.353-0.181,8.73-2.04c4.739-2.01,13.68-4.47,16.35-4.47   c1.261,0,1.14-0.932-0.18-1.62c-1.47-0.812-3.69-3.24-5.25-5.79c-0.99-1.59-1.53-2.19-1.98-2.19   C622.891,327.3,622.53,327.36,622.47,327.42z" style="stroke:black;fill:#BFDAE3"/><path id="180623552" parent_id="180608862" order="97" structure_id="1" d="M718.32,291.3   c-3.09,0.81-25.65,10.08-28.681,11.79c-1.2,0.66-1.5,1.41-0.602,1.44c0.271,0,2.88,0.06,5.76,0.12   c10.83,0.27,19.44,1.2,23.551,2.581c4.619,1.529,10.682,4.681,18.091,9.33c4.318,2.699,4.621,2.399,1.681-1.471   c-2.28-2.97-4.021-6.359-4.021-7.8c0-4.41,5.608-5.19,14.76-2.01c7.141,2.46,13.621,5.88,22.561,11.818   c8.101,5.37,10.95,7.2,11.28,7.2c0.659,0,0.21-1.109-1.591-3.87c-2.76-4.17-3.989-5.608-6.84-8.01   c-5.459-4.62-14.58-10.56-19.08-12.42c-4.229-1.77-6.239-2.13-13.591-2.4c-5.551-0.21-7.108-0.36-8.729-0.87   c-2.22-0.69-4.47-2.22-5.82-3.96c-0.479-0.63-1.318-1.35-1.859-1.59C723.93,290.55,720.96,290.61,718.32,291.3z" style="stroke:black;fill:#BFDAE3"/><path id="180623552" parent_id="180608862" order="98" structure_id="1" d="M711.84,271.2   c-8.01,1.14-13.438,3.45-20.34,8.7c-4.26,3.27-6.15,4.95-13.05,11.85c-8.102,8.07-9.48,10.2-9.54,14.88   c-0.03,1.92,0.12,2.55,0.81,3.96c1.5,3.09,5.13,5.851,10.892,8.25l2.641,1.11l9.602,0.18c9.329,0.181,9.721,0.21,14.041,1.14   c8.31,1.802,10.947,2.791,16.107,6.211c4.26,2.789,8.97,5.25,11.4,5.939c0.897,0.24,4.02,0.811,6.897,1.23   c2.88,0.448,5.82,0.93,6.54,1.108c0.69,0.181,1.351,0.24,1.41,0.181c0.15-0.149-0.3-4.17-0.63-5.579   c-0.12-0.602-0.271-0.66-1.021-0.512c-1.08,0.24-1.528-0.06-6.601-4.38c-6.09-5.188-9.45-7.438-15.84-10.62   c-4.29-2.13-8.82-3.898-12.21-4.8c-5.972-1.56-16.23-1.62-25.86-0.18c-2.521,0.359-4.107,0.479-4.948,0.3   c-0.722-0.12-1.382-0.24-1.5-0.27c-0.569-0.03-2.642-2.25-2.939-3.15c-0.48-1.44,0.12-3.21,1.62-4.86   c1.17-1.23,1.619-1.47,7.8-3.69c7.59-2.76,10.109-3.93,18.33-8.4c3.3-1.8,7.17-3.81,8.55-4.47c4.65-2.16,10.32-2.7,13.35-1.23   c0.961,0.45,1.74,1.23,2.761,2.64c2.012,2.85,3.632,4.5,5.012,5.22c1.38,0.69,2.729,0.78,8.43,0.42c3.48-0.24,4.17-0.18,6.33,0.36   c3.42,0.87,6.42,2.16,10.38,4.53c11.132,6.6,23.04,15.81,26.79,20.73c2.642,3.48,4.83,7.83,5.972,11.91   c0.601,2.25,0.358,3.09-0.869,2.88c-0.48-0.12-0.75-0.03-0.75,0.24c0,0.21,2.01,3.42,4.438,7.14   c7.563,11.49,10.143,16.021,17.102,29.91c6.211,12.359,8.341,15.42,10.711,15.42c0.93,0,1.05-0.09,1.05-0.75   c0-1.02-11.431-32.34-14.73-40.438c-6.81-16.562-13.5-28.771-20.579-37.562c-6.989-8.64-19.141-18.21-30.271-23.79   c-7.5-3.75-23.101-8.97-32.97-11.04C722.07,271.08,715.23,270.75,711.84,271.2z" style="stroke:black;fill:#BFDAE3"/><path id="180623552" parent_id="180608862" order="99" structure_id="1" d="M703.35,256.02   c-4.02,1.08-6.959,2.7-10.92,6.03c-2.88,2.43-4.89,4.59-10.59,11.4c-9.57,11.4-27.6,27.6-37.71,33.87   c-11.58,7.17-28.47,12.778-47.13,15.66c-4.74,0.75-14.311,0.75-18.3,0.028c-6.603-1.199-12.48-3.66-17.67-7.35   c-3.24-2.28-7.921-6.63-9.512-8.79c-0.601-0.811-1.229-1.47-1.409-1.47c-0.539,0.03-2.609,3.18-2.609,3.96   c0,1.68,3.75,6.3,7.23,8.908c2.817,2.131,5.397,3.48,10.92,5.73c7.438,3.03,13.647,4.859,17.789,5.25c1.771,0.18,2.938,0,9.658-1.5   c9-2.01,22.682-5.25,26.7-6.33c3.21-0.87,13.38-4.62,20.4-7.53c6.567-2.7,17.938-8.34,23.25-11.52   c7.619-4.56,11.34-7.44,18.6-14.34c13.471-12.84,22.17-17.13,34.8-17.16c5.883-0.03,10.2,0.81,20.103,3.78   c15.39,4.65,22.647,7.83,31.739,13.83c6.271,4.17,14.188,10.74,17.761,14.73c5.938,6.63,11.22,14.76,16.62,25.56   c4.77,9.48,8.34,18.33,16.26,40.142c3.27,9.028,5.938,15.989,6.15,15.989c0.567,0,2.52-2.34,3.147-3.84   c1.5-3.511,1.92-10.5,1.021-16.83c-1.171-7.979-4.291-18.091-8.341-26.939c-8.462-18.479-24.092-37.17-42.659-50.94   c-12.45-9.27-35.132-20.64-53.91-27.03c-8.431-2.851-11.19-3.48-15.84-3.601C706.141,255.66,704.37,255.75,703.35,256.02z" style="stroke:black;fill:#BFDAE3"/><path id="180623552" parent_id="180608862" order="100" structure_id="1" d="M680.7,353.4c0,0.148,0.39,1.68,0.87,3.358   c1.89,6.602,3,13.142,3.778,22.59c0.239,2.972,0.989,9.78,1.649,15.15c1.771,14.13,1.857,20.7,0.42,30.6   c-1.771,12.24-6,22.83-12.93,32.433c-1.592,2.22-1.23,2.55,1.56,1.5c0.842-0.3,2.91-0.9,4.65-1.29c2.76-0.603,3.93-0.69,9.6-0.69   c5.551,0,6.933,0.09,9.87,0.69c1.86,0.39,3.479,0.6,3.57,0.51c0.117-0.09-0.03-0.54-0.303-0.99c-3.09-4.949-4.407-8.13-5.34-12.66   c-2.188-10.71,0-25.979,5.131-36.06c2.521-4.95,5.729-7.74,11.67-10.2c1.08-0.45,2.521-0.899,3.24-0.99   c2.01-0.33,1.649-0.987-1.5-2.789c-7.229-4.109-14.07-10.529-20.641-19.409c-2.46-3.33-6.93-10.021-11.25-16.892   C681.93,353.76,680.7,352.32,680.7,353.4z" style="stroke:black;fill:#BFDAE3"/><path id="180623552" parent_id="180608862" order="101" structure_id="1" d="M581.73,411.84c-1.021-1.74-1.86-4.74-3.063-10.858c-0.63-3.271-1.38-6.631-1.649-7.439   c-0.601-1.83-3.148-4.65-5.488-6.09c-4.08-2.46-12.75-5.641-18.78-6.9c-3.48-0.72-11.189-1.71-12.6-1.59   c-0.033,0-0.091,0.002-0.15,0.004v16.077c1.076,0.004,2.189,0.063,4.95,0.179c8.159,0.33,13.409,1.44,16.95,3.54   c1.409,0.87,2.43,2.04,7.409,8.643c4.891,6.447,6.091,8.25,7.681,11.46c1.02,2.1,2.01,3.81,2.188,3.84c0.66,0,3.12-7.2,3.12-9.09   C582.3,413.189,582.03,412.38,581.73,411.84z" style="stroke:black;fill:#BFDAE3"/><path id="180623552" parent_id="180608862" order="102" structure_id="1" d="M576.51,417.78c-0.688-1.29-3.93-5.91-7.199-10.262c-6.449-8.579-6.688-8.818-10.648-10.171   c-2.79-0.96-7.052-1.647-11.37-1.857l-3.66-0.18l0.062,3.18c0.061,2.04,0.211,3.33,0.451,3.569c0.81,0.811-0.063,5.671-1.683,8.938   l-1.08,2.25l-0.06,19.2c-0.063,18.66-0.271,24.27-1.021,25.68c-0.132,0.229-0.222,0.348-0.3,0.411v55.305   c0.189-0.145,0.375-0.503,0.48-1.086c0.987-5.607,2.158-9.27,4.618-14.397c3.392-7.021,6.602-11.762,8.819-12.933   c1.11-0.6,0.99-1.29-0.75-3.39c-1.771-2.22-3.93-6.479-4.62-9.21c-1.229-4.8-0.778-9.84,1.23-14.102   c1.317-2.818,2.46-4.261,4.289-5.398c3.989-2.43,8.431-2.4,14.311,0.148c2.103,0.899,2.641,1.021,2.853,0.689   c0.147-0.24,0.27-0.51,0.27-0.63s0.96-1.29,2.13-2.55c3.63-3.99,5.58-8.94,6.33-16.17C580.561,428.939,579.42,423.24,576.51,417.78   z M571.891,440.04c-1.739,2.94-6.541,6.78-10.229,8.16c-6.9,2.609-12.063-1.11-12.063-8.67c0-12.36,12.15-26.103,19.95-22.563   c1.682,0.75,2.97,2.342,3.72,4.592C575.25,427.561,574.68,435.27,571.891,440.04z" style="stroke:black;fill:#BFDAE3"/><path id="180623552" parent_id="180608862" order="103" structure_id="1" d="M551.49,547.8c0-7.05-0.722-16.56-1.472-19.2c-0.75-2.55-1.771-4.289-3.42-5.789   c-1.705-1.543-4.192-2.436-6.601-2.478v39.418c3.067,0.112,7.519,4.796,7.979,8.81c0.33,2.819,0.869,2.159,1.262-1.5   c0.18-1.771,0.777-5.37,1.29-8.011C551.46,554.52,551.52,553.89,551.49,547.8z" style="stroke:black;fill:#BFDAE3"/><path id="180623552" parent_id="180608862" order="104" structure_id="1" d="M899.73,393.3c-0.603-12.03-1.893-21.42-4.382-32.01c-6.118-25.95-21.118-56.82-37.438-76.98   c-18.33-22.68-40.5-38.01-80.73-55.86c-25.857-11.46-50.1-19.62-81.239-27.33c-6.568-1.62-7.198-1.71-8.101-1.35   c-2.37,0.96-9.75,0.75-20.88-0.6c-12.51-1.53-24.69-1.17-31.86,0.9c-6.539,1.89-7.89,2.88-21.27,15.93   c-16.471,16.05-20.01,19.26-25.65,23.28c-8.52,6.06-19.8,11.61-31.38,15.54c-5.977,2.001-8.045,2.313-16.8,2.233v27.515   c4.632,0.015,9.197-0.164,12.15-0.559c21.18-2.82,39.93-8.97,52.68-17.34c3.96-2.58,6.63-4.89,9.42-8.07c3.96-4.5,5.7-7.35,12.9-21   c6.239-11.85,11.01-17.46,17.938-21.149c8.25-4.38,24.813-6.75,39.091-5.55c12.239,0.99,26.819,4.32,42.271,9.6   c58.771,20.1,95.97,43.71,117.659,74.7c10.739,15.33,21.121,39.72,29.608,69.51c2.103,7.41,5.972,22.71,8.131,32.34   c0.932,4.11,2.312,9.36,3.029,11.642c3.301,10.198,5.19,21.028,6.12,35.158c0.51,7.563,0.75,43.62,0.33,50.7   c-1.893,32.49-10.68,57.87-26.13,75.54c-4.562,5.19-16.562,13.05-30.15,19.71c-8.22,4.021-14.52,6.69-30.897,13.142   c-7.11,2.791-15.063,5.971-17.7,7.021c-5.13,2.101-8.91,3.18-17.25,4.89c-13.591,2.82-19.5,4.803-24.66,8.28   c-2.19,1.5-5.34,4.41-5.34,4.95s1.021,0.54,1.5,0c0.72-0.9,6.18-4.2,9.54-5.79c4.979-2.37,11.31-4.38,18.239-5.76   c9.688-1.92,14.278-3.24,24.869-7.23c22.261-8.37,47.131-19.108,55.261-23.88c12.391-7.26,20.909-15.24,27.541-25.77   c1.948-3.12,8.01-15.211,9.6-19.2c4.979-12.45,7.65-31.89,9-65.102c0.33-7.948,0.78-14.311,1.77-24.148   C899.52,421.47,900.359,406.17,899.73,393.3z" style="stroke:black;fill:#BFDAE3"/><path id="180623552" parent_id="180608862" order="105" structure_id="1" d="M763.65,598.83   c-19.021,5.729-32.37,11.79-41.973,19.109c-4.14,3.12-9.18,8.641-9.18,9.988c0,0.75,1.8,4.353,3.51,6.99   c2.61,4.05,7.11,7.979,9.12,7.979c1.38-0.029,3.271-0.932,4.53-2.189c1.17-1.14,3.33-4.648,5.489-8.88   c1.858-3.57,4.289-6.9,6.75-9.12c3.931-3.54,12.448-6.93,24.301-9.66c11.31-2.608,19.979-5.278,27.84-8.608   c5.34-2.25,5.521-2.67,1.26-3c-3.63-0.302-12.75-1.5-20.97-2.819c-3.54-0.57-6.51-1.021-6.601-0.99   C767.639,597.661,765.811,598.2,763.65,598.83z" style="stroke:black;fill:#BFDAE3"/><path id="180623552" parent_id="180608862" order="106" structure_id="1" d="M646.71,247.71   c-0.84,10.14-1.92,15.45-4.11,20.13c-2.729,5.82-6.75,9.78-12.539,12.42c-8.551,3.87-34.979,7.771-67.858,10.021   c-3.87,0.24-7.08,0.51-7.142,0.57c-0.061,0.06,0.029,0.6,0.239,1.2c0.42,1.23,0.511,5.01,0.182,6.061   c-0.12,0.39-0.392,0.689-0.569,0.689c-0.479,0.03-4.41,5.521-4.41,6.18c0,0.75,2.939,4.26,5.49,6.57   c6.42,5.82,12.989,9.271,21,11.012c2.729,0.6,3.898,0.688,10.56,0.658c6.24,0,8.16-0.119,11.461-0.658   c14.909-2.432,29.279-6.9,39.989-12.392c3.54-1.8,8.49-5.01,12.602-8.16c5.311-4.05,5.431-4.229,4.021-5.91   c-1.2-1.41-2.97-2.22-4.979-2.22l-1.711-0.03l2.34-2.4c5.312-5.46,7.291-11.58,7.352-22.65c0.03-4.14-0.061-4.89-0.688-6.75   c-1.021-3-3.449-8.07-6.092-12.63c-1.26-2.16-2.64-4.89-3.119-6.06c-0.449-1.2-0.988-2.16-1.17-2.16   C647.37,241.2,647.04,243.6,646.71,247.71z M565.65,293.85c2.64,0.9,7.17,2.52,10.05,3.6c15.21,5.82,19.229,7.17,24.239,8.16   l2.608,0.542l-0.3,1.02l-0.3,1.021l-4.051-0.181c-4.619-0.21-8.552-0.81-11.552-1.739c-2.938-0.899-10.56-3.84-14.397-5.581   c-5.4-2.43-13.95-7.65-13.95-8.52C558,291.6,560.58,292.17,565.65,293.85z M617.79,305.91c-0.21,0.06-0.57,0.06-0.75,0   c-0.21-0.09-0.06-0.15,0.36-0.15S617.97,305.82,617.79,305.91z M615.391,306.21c-0.211,0.06-0.631,0.06-0.898,0   c-0.302-0.09-0.12-0.149,0.357-0.149C615.359,306.061,615.57,306.12,615.391,306.21z M610.59,306.51c-1.199,0.063-3.21,0.063-4.5,0   c-1.29-0.029-0.3-0.09,2.16-0.09C610.74,306.42,611.79,306.48,610.59,306.51z" style="stroke:black;fill:#BFDAE3"/><path id="180623552" parent_id="180608862" order="107" structure_id="1" d="M550.05,575.37c-0.96-1.71-1.859-4.41-2.22-6.84c-0.391-2.341-1.17-3.96-2.82-5.7   c-1.891-1.973-3.464-2.915-5.01-2.941v16.239c2.85,0.009,5.73,0.247,7.59,0.712c1.471,0.36,2.79,0.66,2.94,0.66   C551.01,577.5,550.83,576.72,550.05,575.37z" style="stroke:black;fill:#BFDAE3"/><path id="180623552" parent_id="180608862" order="108" structure_id="1" d="M743.25,489.72c-2.939,0.933-5.43,2.61-13.32,9   c-5.64,4.563-9.539,8.16-10.38,9.603c-1.59,2.729-0.659,5.397,2.94,8.277c2.16,1.711,2.608,2.461,2.819,4.65   c0.391,3.811-2.67,14.61-6.211,21.9c-2.698,5.607-10.979,18.027-16.471,24.75c-7.08,8.698-19.83,19.68-27.21,23.46   c-11.13,5.7-34.29,12.238-43.35,12.238c-5.133,0-8.49-1.261-11.16-4.198c-0.9-0.99-1.771-1.802-1.92-1.802   c-0.54,0-0.69,1.199-0.69,6c0,7.109,1.11,10.83,3.69,12.539c1.107,0.723,1.318,0.75,7.26,0.9c8.938,0.21,17.642-0.63,27.359-2.67   c12.029-2.49,17.791-5.16,25.591-11.82c2.67-2.25,11.34-12.028,17.608-19.8c8.489-10.5,16.142-20.819,22.592-30.45   c2.067-3.06,8.607-12.028,14.55-19.948c5.941-7.921,11.34-15.182,12-16.171l1.2-1.739l-0.092-2.761   c-0.061-1.5,0.149-4.681,0.42-7.079c0.75-6.359,0.689-10.859-0.09-12.66c-0.841-1.892-2.101-2.642-4.291-2.609   C745.2,489.33,743.91,489.51,743.25,489.72z" style="stroke:black;fill:#BFDAE3"/><path id="180623552" parent_id="180608862" order="109" structure_id="1" d="M679.8,492.51   c-3.33,1.08-12.148,3.181-16.89,3.99c-13.142,2.34-20.13,4.83-26.91,9.689c-9.21,6.568-21.66,18.931-26.7,26.551   c-2.729,4.107-3.96,7.05-4.14,9.96c-0.12,2.13-0.09,2.28,0.688,3.06c2.189,2.19,7.802,1.83,13.052-0.81   c7.438-3.75,32.97-19.95,39.027-24.78c4.29-3.42,13.32-12.51,16.98-17.1c5.43-6.813,8.04-11.16,6.63-11.04   C681.33,492.061,680.55,492.27,679.8,492.51z" style="stroke:black;fill:#BFDAE3"/><path id="180623552" parent_id="180608862" order="110" structure_id="1" d="M665.91,464.55c-8.16,3.99-19.26,4.86-25.11,1.95c-9.03-4.53-13.89-17.91-13.92-38.25   c0-12.57,1.59-22.47,6.09-38.1c3.813-13.29,6.69-21.54,10.38-30c1.23-2.82,2.25-5.312,2.25-5.521c0-0.27-0.238-0.33-0.659-0.24   c-4.261,0.99-5.25,1.11-9.3,1.11c-6.898,0-15.091-1.29-20.818-3.33c-2.973-1.05-3.303-1.08-3.54-0.18   c-0.603,2.398-4.83,7.17-8.642,9.75c-5.818,3.93-12.061,6.06-17.729,6.06c-3.21,0-5.67-0.568-9.21-2.068   c-6.812-2.91-14.04-9.48-15.36-13.92c-0.18-0.632-0.51-1.23-0.72-1.32c-0.21-0.09-1.38,0.51-2.58,1.29   c-2.729,1.77-6.181,3.51-8.34,4.2c-1.346,0.426-5.09,0.671-8.7,0.699v22.268c8.537-0.059,16.729,0.007,19.05,0.253   c6.392,0.66,12.062,2.28,19.32,5.52c7.17,3.21,16.2,8.73,18.239,11.13c2.641,3.15,4.891,8.012,5.608,12.211   c0.33,1.92,0.392,2.068,1.74,2.938c4.979,3.3,7.351,13.32,4.53,19.11c-1.08,2.22-3.45,4.26-6.84,5.938   c-3.541,1.771-6.75,2.55-10.261,2.58c-4.08,0-6.392-0.75-9.149-3.06c-0.78-0.632-1.53-1.171-1.71-1.171   c-0.15,0-0.392,0.631-0.48,1.409c-0.568,4.109-2.1,9.062-3.6,11.642c-0.45,0.75-1.74,2.37-2.88,3.63   c-1.143,1.26-2.07,2.52-2.07,2.819c0,0.421,0.51,0.688,2.189,1.198c4.801,1.44,10.409,4.711,12.931,7.53   c2.67,2.97,3.479,5.64,3.479,11.521c0,5.068-1.108,8.341-4.021,11.851c-2.189,2.64-2.011,2.76,2.521,1.771   c3.659-0.778,10.892-1.079,14.552-0.601c6.659,0.9,13.709,3,15.72,4.71c3.239,2.79,2.64,9.03-1.71,17.58   c-4.86,9.54-11.13,15.96-18.15,18.479c-3.63,1.32-6,1.683-10.08,1.473c-5.729-0.271-9.63-1.95-13.56-5.88   c-3.78-3.813-6.271-8.94-6.271-12.99c0-2.37,1.2-5.97,3.03-9c1.38-2.37,4.229-6.36,4.74-6.69c0.449-0.27,0.42-1.05-0.03-1.05   c-0.21,0-1.38,0.54-2.64,1.17c-4.142,2.16-7.2,2.61-11.4,1.683c-3.03-0.66-2.818-0.842-3.42,2.607   c-0.898,5.16-2.311,8.73-5.25,13.353l-1.021,1.56l0.513,4.44c0.93,8.52,1.17,12.897,1.199,20.64c0.028,6.93-0.029,7.92-0.511,8.76   c-0.451,0.84-0.688,0.99-1.561,0.99h-1.05v2.16c-0.03,1.2-0.21,3.27-0.48,4.59c-1.47,8.04-1.95,11.4-2.01,14.55l-0.06,3.511   l1.079,1.771c0.63,0.99,1.948,2.46,3,3.358c3.931,3.271,6.959,6.212,8.011,7.771c1.41,2.16,1.77,2.07,1.739-0.39   c-0.029-1.803,0.028-2.04,0.811-2.7c2.069-1.8,7.17-0.24,24.18,7.35c3.36,1.5,6.3,2.73,6.54,2.73c0.57,0,0.48-0.813-0.18-1.74   c-1.71-2.46-3.36-7.11-4.08-11.55c-0.57-3.57-0.57-10.53,0-14.58c1.38-9.42,4.32-14.67,9.779-17.431   c1.318-0.632,2.851-1.262,3.421-1.382c0.6-0.09,1.05-0.357,1.05-0.6s0.21-0.42,0.479-0.42c0.358,0,0.448-0.18,0.3-0.689   c-0.512-1.648-0.512-2.641-0.062-4.351c0.54-2.1,2.07-5.311,3.9-8.16c3.84-5.91,15.3-17.7,23.729-24.33   c2.58-2.04,7.142-5.13,8.58-5.817c0.931-0.45,1.11-0.69,1.41-2.223c0.96-4.56,4.229-9.42,14.46-21.33   c8.25-9.63,12.602-15.06,12.602-15.777C669.9,462.66,669.54,462.78,665.91,464.55z M573.75,555.45   c-1.65,6.147-5.939,10.77-10.26,11.16c-1.563,0.12-1.892,0.027-3.12-0.75c-2.67-1.71-4.261-6.421-4.261-12.66   c0-4.05,0.631-7.08,2.489-11.79c2.041-5.25,4.591-9.03,6.75-9.99c1.17-0.51,1.261-0.51,2.699,0.15c1.32,0.6,2.642,1.979,3.392,3.54   c0.301,0.63,0.688,0.988,1.079,0.988c0.449,0,0.512,0.091,0.239,0.271c-0.3,0.18-0.239,0.75,0.36,2.76   C574.62,544.32,574.891,551.25,573.75,555.45z" style="stroke:black;fill:#BFDAE3"/><path id="180623552" parent_id="180608862" order="111" structure_id="1" d="M550.05,575.37c-0.96-1.71-1.859-4.41-2.22-6.84c-0.391-2.341-1.17-3.96-2.82-5.7   c-1.891-1.973-3.464-2.915-5.01-2.941v16.239c2.85,0.009,5.73,0.247,7.59,0.712c1.471,0.36,2.79,0.66,2.94,0.66   C551.01,577.5,550.83,576.72,550.05,575.37z" style="stroke:black;fill:#BFDAE3"/><path id="180623552" parent_id="180608862" order="112" structure_id="1" d="M593.16,487.23c-3.12,0.27-8.49,1.47-10.38,2.34   c-2.61,1.17-8.37,7.83-10.921,12.6c-3.329,6.24-3.479,9.69-0.689,15.48c2.67,5.55,7.41,9.51,13.26,11.13   c2.853,0.81,8.91,0.72,12.12-0.15c8.729-2.34,15.24-8.52,20.729-19.68c2.461-5.011,3.421-8.37,3.421-11.82   c0-4.38-1.08-5.58-6.72-7.41c-4.291-1.38-7.921-2.13-12.212-2.52C597.96,486.87,597.18,486.87,593.16,487.23z" style="stroke:black;fill:#BFDAE3"/></g></g></svg>
