<svg xmlns="http://www.w3.org/2000/svg" width="3024px" height="3024px"><g transform="scale(1.0)"><g id="180608862" order="1" parent_id="" graphic_group_label_id="28" graphic_group_label="Atlas - Adult Rat" sub_image_id="100960468" transform=" scale(1.0, 1.0)"><path id="180623552" parent_id="180608862" order="0" structure_id="1" d="M985.11,364.05c-0.182-14.07-0.42-19.08-1.44-29.1c-2.88-29.1-10.83-51.81-26.1-74.43   c-8.521-12.6-23.79-31.26-35.37-43.14c-21.75-22.32-50.91-41.82-96.3-64.35c-17.82-8.88-31.98-14.79-48.9-20.43   c-30.81-10.32-60.78-16.08-99.75-19.17c-15.03-1.2-18.9-1.35-34.5-1.38c-16.77,0-21.42,0.27-32.49,1.8   c-20.58,2.88-36.21,8.88-47.31,18.21c-3.45,2.88-8.19,7.8-10.62,10.98c-5.521,7.32-9.6,16.17-11.22,24.54   c-0.446,2.307-0.781,3.403-1.11,3.35v50.77c0.021,0,0.038,0,0.061,0c0.271,0,0.539,0.75,0.779,2.01   c1.65,8.76,7.562,19.98,14.221,26.97c4.829,5.04,9.689,8.31,17.101,11.49c8.938,3.84,16.29,5.61,40.29,9.75   c7.77,1.35,12.66,2.34,20.1,4.05c2.16,0.51,5.58,1.17,7.65,1.5c4.74,0.78,6.27,1.29,11.52,4.021c4.41,2.31,17.67,9.75,19.262,10.83   c2.188,1.5,7.92,6.33,7.92,6.69c0,0.81-1.052,0.3-5.79-2.85c-10.682-7.17-15.42-9.54-28.261-14.31   c-10.979-4.05-20.101-6.42-32.399-8.4c-14.312-2.28-21.03-3.42-26.55-4.5c-7.95-1.53-10.44-1.8-16.65-1.77   c-5.13,0.03-5.97,0.09-8.58,0.78c-3.51,0.96-6.51,2.22-9.66,4.08c-2.67,1.56-6.358,4.86-7.739,6.87   c-1.141,1.65-2.67,4.71-2.67,5.34c0,0.552-0.26,0.59-0.601,0.284V620.91c8.121,0.015,16.255-1.688,23.101-5.19   c5.489-2.79,10.261-6.898,13.199-11.278c0.63-0.961,1.2-1.86,1.261-2.04c0.091-0.271,6.119-2.102,6.989-2.102   c0.24,0,0.45,0.182,0.45,0.392s0.48,1.35,1.05,2.578c2.221,4.592,6.99,7.892,12.301,8.432c6.841,0.72,21.689-1.41,33.631-4.771   c12.84-3.63,24.479-9.358,40.02-19.648c4.05-2.7,9.72-6.271,12.601-7.98c6.811-3.99,11.431-7.05,13.561-9   c2.189-1.95,3.84-4.648,7.439-12.09c1.561-3.24,3.029-5.88,3.239-5.91c0.48,0,0.45,0.21-0.21,3.75c-1.8,9.182-1.26,16.59,1.32,19.2   c1.859,1.86,5.819,2.49,9.45,1.5c0.898-0.24,1.83-0.45,2.04-0.45c0.54,0,0.448,0.72-0.24,1.59c-0.9,1.142-2.49,4.052-3.21,5.91   c-2.971,7.53-2.312,16.682,1.858,25.71c2.552,5.55,8.25,12.42,13.62,16.44c10.682,8.01,28.2,12.358,62.28,15.45   c19.68,1.77,36.36,1.29,52.68-1.5c25.65-4.44,49.95-15.21,73.021-32.37c14.609-10.892,25.17-23.55,33.33-39.932   c7.979-16.02,12.84-35.46,11.85-47.34c-0.45-5.068-0.87-7.26-3.09-15.51c-1.53-5.76-1.86-7.32-1.86-9.45   c-0.028-3.24,0.33-4.108,2.521-5.819c2.52-1.979,4.5-4.801,7.05-9.931c5.28-10.77,9.15-23.79,10.47-35.52   c0.271-2.222,0.602-6.9,0.78-10.352c0.42-8.55,0.811-15.3,1.5-26.729C984.99,390.51,985.29,378.45,985.11,364.05z M755.16,493.2   c-2.61,3.96-4.021,5.28-10.562,10.08c-5.67,4.14-9.868,7.38-11.97,9.18c-2.49,2.16-2.729,1.23-0.96-3.84   c3.78-10.98,11.55-19.92,21.96-25.32c3.391-1.74,6.93-3.24,7.71-3.3c0.181,0,0.36,0.24,0.36,0.51   C761.7,481.47,757.32,489.99,755.16,493.2z" style="stroke:black;fill:#BFDAE3"/><path id="180623552" parent_id="180608862" order="1" structure_id="1" d="M669.57,421.56c-1.53-1.738-2.37-3.96-4.052-10.828c-0.868-3.57-2.068-7.892-2.67-9.632   c-3.39-9.66-9.54-20.458-17.13-30c-3.988-5.01-14.25-15.3-19.318-19.38c-16.71-13.47-33.54-21.69-50.642-24.75l-3.39-0.6l-5.46,0.9   c-6.24,1.08-15.602,2.22-22.47,2.76c-1.846,0.148-3.129,0.229-4.44,0.231v18.189c13.62,0,19.53,0.12,21.6,0.39   c11.19,1.5,20.25,4.68,27.66,9.63c3.48,2.31,9.602,7.92,17.67,16.11c8.79,8.97,14.28,15.36,18.302,21.39   c2.729,4.049,3.84,6.299,6.118,12.33c2.58,6.84,4.86,12.392,6.03,14.73l0.99,1.979l1.59,0.182c3.75,0.448,15.21,0.028,22.41-0.87   c6.148-0.722,8.13-1.08,8.13-1.38C670.5,422.76,670.08,422.16,669.57,421.56z" style="stroke:black;fill:#BFDAE3"/><path id="180623552" parent_id="180608862" order="2" structure_id="1" d="M640.05,531.18   c-0.33,0.062-1.648,0.182-2.938,0.271c-2.102,0.18-2.49,0.33-3.9,1.38c-5.94,4.438-25.26,24.39-48.15,49.77   c-5.01,5.552-6.328,7.171-6.21,7.682c0.36,1.528,4.352,9.42,4.74,9.42c0.24,0,4.26-3.87,8.94-8.642   c6.54-6.63,11.188-11.76,20.188-22.26c15.062-17.58,16.892-19.62,26.25-28.95c4.32-4.29,7.83-7.948,7.83-8.13   c0-0.18-0.42-0.42-0.93-0.54C644.94,531,641.22,531,640.05,531.18z" style="stroke:black;fill:#BFDAE3"/><path id="180623552" parent_id="180608862" order="3" structure_id="1" d="M738.24,327.51   c-0.69,0.75-0.69,2.61,0.028,4.14c0.602,1.32,2.312,3.57,5.462,7.05c3.868,4.32,4.738,6.45,6.09,15.15   c0.93,6.03,1.648,8.34,3.06,9.99c1.41,1.65,2.82,2.34,9.3,4.56c2.972,1.02,6.21,2.31,7.262,2.88   c11.97,6.66,25.17,26.13,30.658,45.21c2.131,7.41,3.092,14.01,3.092,21.21c0,7.95-1.11,14.188-3.69,20.818   c-2.07,5.28-3.18,6.932-17.46,25.712c-1.59,2.068-3.18,4.5-3.57,5.398c-3.238,7.38-9.12,15.87-15.72,22.74   c-4.71,4.89-8.55,7.59-17.22,12.03c-7.2,3.688-9.33,5.52-15.722,13.5c-6.118,7.648-8.608,11.818-8.608,14.488   c0,1.11,0.148,1.591,0.72,2.16c0.93,0.931,2.94,1.44,4.65,1.2c2.88-0.42,5.159-1.86,11.278-7.2c9.69-8.46,19.98-13.29,40.92-19.229   c14.852-4.23,17.04-5.521,32.7-19.562c10.83-9.72,14.55-15.09,18.78-26.91c2.1-5.908,3.78-9.54,5.79-12.51   c1.8-2.609,4.2-7.5,5.28-10.74c0.988-3,2.13-8.729,2.79-14.1c0.658-5.49,0.778-26.91,0.148-32.25c-1.14-9.78-3.09-16.29-7.95-26.64   c-4.198-8.91-6.479-12.18-12.658-18.36c-4.23-4.23-5.37-5.58-6.75-7.89c-4.711-7.95-7.17-10.74-12.78-14.43   c-3.48-2.31-14.641-8.04-20.37-10.47c-4.17-1.77-7.47-2.52-21.39-4.71c-4.86-0.78-11.07-1.86-13.802-2.43   c-2.76-0.57-6.09-1.11-7.408-1.23C739.02,326.94,738.69,327,738.24,327.51z M774.3,339.9c9.12,1.83,15.63,4.5,22.83,9.27   c4.29,2.85,6.03,4.5,10.14,9.6c1.95,2.4,6.03,7.23,9.062,10.68c7.77,8.88,10.5,12.84,14.37,20.7c4.38,8.94,6.63,16.35,7.8,25.59   c1.56,12.27,1.2,23.25-1.11,33.66c-2.52,11.46-6.21,20.34-13.438,32.398c-5.7,9.48-7.59,12.15-10.59,15.062   c-3.54,3.42-7.08,5.698-13.74,8.938c-5.76,2.82-11.19,6.271-14.67,9.3c-4.59,4.052-9.33,5.222-11.28,2.762   c-0.54-0.69-0.6-1.08-0.479-2.642c0.21-2.818,1.289-4.83,4.198-7.858c3.36-3.48,3.841-4.5,4.142-8.37   c0.33-4.74,1.71-8.16,4.92-12.24c4.56-5.82,9.42-13.92,14.64-24.45c4.892-9.81,6.33-15.898,6.33-26.7   c-0.03-8.368-0.99-15.06-3.42-23.608c-2.34-8.312-6.69-18.3-10.41-23.94c-5.46-8.28-11.52-13.77-24.75-22.47   c-3.45-2.22-6.84-4.62-7.59-5.31c-5.19-4.77-6.271-12.39-2.55-17.82c0.96-1.38,2.34-2.61,3.6-3.15   C763.5,338.82,770.7,339.15,774.3,339.9z" style="stroke:black;fill:#BFDAE3"/><path id="180623552" parent_id="180608862" order="4" structure_id="1" d="M714.72,341.07   c-3.63,2.22-3.54,7.53,0.12,7.53c3.87,0,6.51-5.55,3.69-7.71C717.81,340.32,715.77,340.44,714.72,341.07z" style="stroke:black;fill:#BFDAE3"/><path id="180623552" parent_id="180608862" order="5" structure_id="1" d="M629.4,532.83   c-3.54,0.96-6.631,2.43-10.262,4.95c-11.698,8.01-36.568,28.35-40.979,33.51c-3.03,3.54-3.93,6.75-2.91,10.29   c0.96,3.3,2.94,7.65,3.45,7.56c0.27-0.06,2.97-2.85,6-6.238c20.398-22.592,41.1-44.222,46.41-48.45   C634.02,532.14,633.57,531.72,629.4,532.83z" style="stroke:black;fill:#BFDAE3"/><path id="180623552" parent_id="180608862" order="6" structure_id="1" d="M762.96,339.27   c-4.59,1.2-7.47,7.95-5.91,13.98c0.271,0.96,0.812,2.37,1.23,3.12c1.56,2.91,2.97,4.11,11.04,9.48   c9.148,6.09,12.96,9.06,17.278,13.53c6.602,6.84,10.62,13.47,14.852,24.57c3.87,10.14,5.79,19.648,6.06,29.85   c0.33,12.57-1.35,19.08-8.16,32.102c-5.34,10.229-7.979,14.55-11.938,19.59c-4.08,5.25-5.22,7.83-5.61,12.87   c-0.33,4.198-0.84,5.278-4.14,8.729c-2.94,3.09-3.84,4.68-4.352,7.5c-0.54,3.3,0.602,4.53,3.932,4.32   c2.49-0.18,4.95-1.41,7.858-3.96c2.882-2.55,8.521-6.3,11.73-7.86c1.38-0.688,3.81-1.858,5.4-2.608   c7.05-3.392,12.06-7.682,16.02-13.682c8.67-13.14,14.22-24.148,17.13-33.93c4.05-13.65,4.92-26.312,2.94-41.61   c-1.472-11.31-5.312-21.96-11.7-32.4c-2.73-4.44-4.351-6.57-9.812-12.78c-2.608-3-6.39-7.47-8.398-9.93   c-2.01-2.49-4.53-5.4-5.67-6.51c-3.54-3.51-11.58-8.4-17.58-10.68c-2.67-1.02-8.46-2.52-12.36-3.21   C769.68,339.18,764.28,338.94,762.96,339.27z M807.93,383.82c2.552,0.24,5.94,2.46,8.58,5.64c2.91,3.51,5.46,10.17,7.71,20.31   c3.182,14.07,4.38,25.382,3.36,31.472c-1.05,6.148-3.42,11.25-5.85,12.479c-0.54,0.271-1.32,0.33-2.552,0.182   c-1.47-0.15-1.92-0.36-2.58-1.11c-2.43-2.7-3.479-9.51-4.229-27.39c-0.45-10.92-1.05-13.53-6.78-29.82   c-3.148-8.91-3.45-10.23-2.64-11.46c0.45-0.72,0.63-0.75,2.04-0.6C805.86,383.61,807.18,383.73,807.93,383.82z" style="stroke:black;fill:#BFDAE3"/><path id="180623552" parent_id="180608862" order="7" structure_id="1" d="M654.6,238.35c0,0.27,0.812,1.65,1.771,3.12   c5.28,7.83,12.06,14.16,18.33,17.1c2.67,1.26,6.3,2.13,8.729,2.13c1.142,0,4.11-0.36,6.63-0.78c2.882-0.48,6.092-0.81,8.642-0.87   c3.688-0.09,4.47-0.21,8.55-1.35c9.09-2.52,19.2-4.77,27.54-6.06c3.63-0.57,5.52-0.66,12.96-0.66c9.69-0.03,12.69,0.3,19.05,2.01   c2.94,0.78,3.87,0.93,6.36,0.84c6.18-0.15,12.3,2.25,33,13.05c25.26,13.14,37.53,22.11,49.35,36.03   c6.812,8.01,16.98,23.73,25.32,39.09c11.79,21.75,20.31,47.28,22.92,68.7c0.66,5.46,0.93,21.72,0.479,29.25   c-0.841,13.62-2.461,24.78-5.761,39.66c-7.438,33.42-18.12,57.96-33.87,77.67c-4.35,5.46-10.619,12.21-15.358,16.528   c-4.95,4.5-6.42,5.7-10.591,8.552c-12.239,8.34-27.329,14.488-43.801,17.79c-2.13,0.448-4.619,1.02-5.52,1.29   c-1.86,0.568-3.63,2.068-3.63,3.028c0,0.57,0.12,0.66,0.84,0.512c0.45-0.092,2.46-0.45,4.439-0.78   c14.341-2.4,28.471-7.23,40.141-13.771c9.27-5.188,16.95-11.04,24.78-18.898c8.729-8.762,15.358-17.55,22.408-29.73   c3.062-5.31,9.812-17.97,11.25-21.148c8.19-17.972,14.61-45.842,16.921-73.352c0.659-7.59,0.75-26.85,0.181-33   c-2.79-30.09-10.5-56.1-23.94-80.73c-7.08-12.96-15.09-25.14-23.188-35.37c-4.381-5.52-14.131-15.33-19.53-19.62   c-13.26-10.56-30.271-19.65-52.62-28.11c-6.66-2.52-10.71-3.688-17.28-4.89c-9.119-1.68-16.29-2.31-26.398-2.31   c-11.312,0-16.86,0.63-28.8,3.24c-16.892,3.66-20.82,4.29-27,4.29c-6.69,0-13.021-1.62-20.61-5.25c-4.11-1.98-8.22-4.47-10.62-6.48   C655.17,237.81,654.6,237.63,654.6,238.35z" style="stroke:black;fill:#BFDAE3"/><path id="180623552" parent_id="180608862" order="8" structure_id="1" d="M719.55,419.76   c-2.22,0.78-3.148,2.61-3.148,6.24c0,2.7,0.54,4.44,1.68,5.46c2.13,1.86,6.33,1.89,8.52,0.06c1.262-1.078,1.892-3.39,1.74-6.568   c-0.12-2.94-0.6-3.84-2.64-4.892C724.23,419.34,721.23,419.19,719.55,419.76z" style="stroke:black;fill:#BFDAE3"/><path id="180623552" parent_id="180608862" order="9" structure_id="1" d="M565.05,267.6   c-4.979,0.48-11.04,2.73-15.51,5.73c-2.76,1.86-5.94,5.22-7.23,7.68c-2.04,3.9-2.01,3.51-2.01,24.6v18.99h0.99   c0.51,0,1.56-0.15,2.31-0.33c1.771-0.39,7.802-3.27,7.802-3.72c0-0.21-0.33-0.51-0.69-0.66c-1.2-0.57-1.71-2.16-2.01-6.3   c-0.15-2.1-0.42-5.79-0.63-8.19c-0.63-7.86,0.06-14.13,1.979-18.15c1.771-3.72,6.812-8.28,12-10.89c7.8-3.9,14.102-4.26,30.75-1.68   c15.9,2.43,42.21,8.79,53.55,12.87c17.25,6.27,29.91,14.01,40.86,24.99c7.5,7.53,13.56,16.77,15.03,22.86   c0.6,2.49,1.05,2.67,2.22,0.81c1.29-2.1,1.83-4.05,1.979-7.32c0.149-3.75-0.511-6.3-2.279-8.79c-2.19-3.03-11.19-10.05-25.71-20.01   c-15.69-10.77-23.221-14.55-39.45-19.89c-10.05-3.33-16.62-4.86-28.95-6.75c-10.319-1.62-17.1-2.76-22.95-3.9   C577.83,267.75,570.48,267.09,565.05,267.6z" style="stroke:black;fill:#BFDAE3"/><path id="180623552" parent_id="180608862" order="10" structure_id="1" d="M734.25,375.24   c-0.87,0.21-0.9,0.27-0.99,2.19l-0.09,1.98l1.47,0.21c2.04,0.27,6.78,1.77,10.53,3.39c8.22,3.48,15.69,8.55,19.83,13.44   c5.25,6.21,9.96,15.27,11.82,22.8c1.26,5.1,1.5,7.29,1.5,12.6c-0.03,7.65-1.08,12.602-3.9,18.42c-1.47,3-1.979,3.722-4.26,6.03   c-2.16,2.16-3.062,2.82-5.16,3.84c-3.21,1.5-4.5,1.802-9.39,2.19c-7.74,0.6-17.552-0.57-23.04-2.73c-0.812-0.33-1.62-0.6-1.771-0.6   c-0.148,0-0.63,0.72-1.108,1.56c-0.45,0.87-1.262,1.86-1.802,2.19c-1.56,0.96-1.229,1.26,1.65,1.44   c1.439,0.09,4.17,0.39,6.06,0.658c5.7,0.78,13.08,1.08,18.33,0.75c7.472-0.479,11.91-1.528,16.562-3.988   c2.1-1.11,2.31-1.32,2.31-2.13c0-2.19,2.46-5.58,4.021-5.58c0.6,0,0.81-0.392,1.77-3.54c2.46-7.95,3.03-11.37,3.03-18.21   c0-4.44-0.12-6-0.66-8.82c-1.32-6.63-3.81-13.562-7.02-19.53c-5.102-9.57-11.82-16.41-23.49-23.91   c-7.141-4.62-7.26-4.68-11.61-4.77C736.8,375.06,734.76,375.12,734.25,375.24z" style="stroke:black;fill:#BFDAE3"/><path id="180623552" parent_id="180608862" order="11" structure_id="1" d="M771.75,272.58   c-7.11,1.02-9.93,1.86-11.64,3.48c-0.99,0.93-1.142,1.23-0.99,1.95c0.51,2.1,1.62,2.25,10.53,1.26   c14.158-1.56,29.158,0.57,43.648,6.21c9.271,3.63,15.96,7.83,23.7,14.88c16.229,14.85,28.65,33.84,41.04,62.79   c12.63,29.55,17.85,60.45,14.58,86.55c-0.9,7.17-3.84,21.03-6,28.29c-3.21,10.71-6.42,16.41-19.65,34.71   c-9.028,12.51-10.47,14.85-10.47,17.13c0,1.439,1.26,2.67,2.76,2.67c2.432,0,7.142-5.28,12.33-13.77   c7.47-12.182,14.521-26.521,19.11-38.882c5.25-14.1,8.188-35.64,7.26-53.01c-1.14-21.21-6.689-45.3-14.76-64.29   c-9.66-22.68-24.271-45.09-39.9-61.17c-14.76-15.15-28.47-23.97-41.88-26.88c-6.87-1.5-10.62-1.86-19.92-1.95   C776.64,272.49,772.26,272.52,771.75,272.58z" style="stroke:black;fill:#BFDAE3"/><path id="180623552" parent_id="180608862" order="12" structure_id="1" d="M901.05,497.76   c-1.38,5.04-5.068,15.63-7.2,20.79c-4.77,11.46-12.358,24.931-20.76,36.812c-5.609,7.89-10.83,13.979-18.24,21.18   c-2.97,2.91-5.25,5.34-5.188,5.58c0.18,0.87,37.89,44.88,38.43,44.88c0.75,0,9.63-4.53,14.76-7.53   c7.62-4.438,15.9-10.108,22.2-15.09c14.82-11.82,26.16-27.36,33.54-46.08c5.88-14.91,8.642-29.97,7.41-40.5   c-0.18-1.74-0.39-3.18-0.45-3.24c-0.12-0.119-61.95-19.528-62.88-19.738C901.95,494.64,901.89,494.73,901.05,497.76z" style="stroke:black;fill:#BFDAE3"/><path id="180623552" parent_id="180608862" order="13" structure_id="1" d="M807.21,384.21   c-0.39,0.36-0.21,2.19,0.39,3.75c0.33,0.87,1.352,2.88,2.25,4.44c2.642,4.5,5.4,10.35,6.722,14.19   c3.239,9.48,5.22,21.66,5.22,32.46c0.03,6-0.42,8.91-1.8,11.73c-0.69,1.35-0.75,1.71-0.45,2.34c0.42,0.93,1.65,1.05,2.729,0.3   c1.86-1.32,4.052-6.12,4.98-11.01c1.2-6.271,0.09-18.12-3.03-32.16c-2.938-13.17-5.278-18.63-9.778-22.83   C811.74,384.9,808.11,383.28,807.21,384.21z" style="stroke:black;fill:#BFDAE3"/><path id="180623552" parent_id="180608862" order="14" structure_id="1" d="M803.31,383.79   c-1.14,0.81-0.96,2.16,1.29,8.61c6.96,19.92,7.592,22.41,7.95,32.25c0.66,17.55,1.65,24.778,3.78,27.75   c0.72,1.02,1.05,1.198,1.92,1.198c0.93,0,1.05-0.09,1.05-0.75c0-0.42,0.271-1.318,0.602-1.948c1.35-2.642,1.648-4.83,1.618-12.15   c0-11.76-1.738-22.59-5.22-32.64c-1.53-4.5-3.239-8.102-5.938-12.63c-2.46-4.08-3.42-6.36-3.48-8.25   c-0.03-1.02-0.18-1.38-0.63-1.56C805.32,383.31,803.88,383.37,803.31,383.79z" style="stroke:black;fill:#BFDAE3"/><path id="180623552" parent_id="180608862" order="15" structure_id="1" d="M727.35,430.56   c-0.75,1.172-2.188,2.04-3.898,2.37c-1.23,0.24-2.102,0.09-4.86-0.778c-0.688-0.21-0.688-0.21-0.688,3.18   c0,3.688,0.6,9.99,1.35,14.46c1.41,8.28,3.9,13.71,6.27,13.71c2.37,0,4.262-2.07,4.98-5.4c0.48-2.278,0.24-12.448-0.42-18.3   c-0.72-6.148-1.44-10.2-1.8-10.2C728.1,429.63,727.68,430.05,727.35,430.56z" style="stroke:black;fill:#BFDAE3"/><path id="180623552" parent_id="180608862" order="16" structure_id="1" d="M714.45,381.75   c-0.3,5.7,0.12,8.85,1.438,10.26c0.512,0.57,0.932,0.69,2.37,0.69c0.99,0,2.13-0.18,2.58-0.42c1.59-0.84,2.76-4.14,2.76-7.86v-1.59   l-1.438,0.18c-1.11,0.12-1.74,0.03-2.67-0.45c-1.352-0.69-2.91-2.34-3.63-3.84C714.96,376.8,714.69,377.43,714.45,381.75z" style="stroke:black;fill:#BFDAE3"/><path id="180623552" parent_id="180608862" order="17" structure_id="1" d="M565.65,427.26   c-5.342,0.602-10.142,2.07-11.762,3.602c-0.869,0.81-0.898,2.13-0.028,2.908c0.358,0.33,1.38,0.812,2.31,1.08   c4.35,1.2,9.21,3.302,12.812,5.58c1.02,0.66,1.948,1.17,2.1,1.17s0.87-1.108,1.59-2.488c1.98-3.63,4.71-6.33,9.12-8.94   c0.93-0.54,1.71-1.17,1.71-1.38c0-0.42-2.28-1.14-5.1-1.59C576.09,426.84,569.01,426.87,565.65,427.26z" style="stroke:black;fill:#BFDAE3"/><path id="180623552" parent_id="180608862" order="18" structure_id="1" d="M571.08,442.32   c-1.41,2.729-2.58,5.1-2.58,5.278c0,0.15,0.45,0.302,0.99,0.302c1.62,0,5.37,1.08,7.438,2.13c1.052,0.51,2.73,1.738,3.75,2.729   c3.21,3.09,4.62,6.66,4.62,11.82c0,8.79-5.068,15.75-13.71,18.75c-3.81,1.32-5.729,1.59-11.88,1.62c-5.49,0.029-5.94,0.06-6.33,0.6   c-0.24,0.33-1.59,1.62-3,2.852c-1.41,1.229-2.58,2.398-2.58,2.58c0,0.448,2.76,0.93,7.92,1.38c7.86,0.658,16.44-0.63,22.17-3.302   c8.432-3.96,13.021-9.72,14.94-18.81c0.569-2.58,0.479-9.96-0.12-12.66c-1.561-6.84-5.22-12.42-10.771-16.38   c-2.131-1.53-5.851-3.39-7.319-3.69l-0.931-0.18L571.08,442.32z" style="stroke:black;fill:#BFDAE3"/><path id="180623552" parent_id="180608862" order="19" structure_id="1" d="M722.46,488.85c-3.6-0.778-5.76-1.71-7.65-3.21c-1.14-0.898-1.17-0.898-3-0.54   c-3.238,0.602-9.27,2.07-12.51,3c-4.108,1.23-8.64,1.53-10.648,0.78c-0.722-0.3-1.682-0.96-2.132-1.47   c-0.72-0.84-0.778-1.11-0.6-2.58c0.391-3.271,2.4-7.35,9.18-18.78c2.25-3.81,7.92-13.648,12.57-21.87l8.46-14.97l-0.898-1.68   c-2.94-5.521-3.211-14.67-0.78-26.61c0.39-1.95,0.6-3.6,0.45-3.66c-1.32-0.479-3.302-3.479-3.302-5.1c0-0.42-0.18-0.66-0.51-0.66   c-0.42,0-0.75,0.66-1.38,2.64c-2.82,8.82-9.18,16.708-18.15,22.5c-5.25,3.392-16.738,6.392-30.81,8.07   c-3.48,0.39-6.84,0.51-14.85,0.54c-11.222,0-13.74-0.21-21-1.65c-7.23-1.47-13.11-3.688-17.7-6.75c-1.11-0.75-2.16-1.35-2.312-1.35   c-0.119,0-0.51,0.48-0.84,1.08c-0.3,0.57-1.41,1.86-2.46,2.82c-1.62,1.528-3,2.31-10.05,5.818c-4.5,2.25-9.3,4.74-10.68,5.61   c-3.03,1.86-6.66,5.25-6.66,6.21c0,0.36,0.18,0.66,0.39,0.66c0.602,0,5.16,2.28,6.75,3.358c2.04,1.382,5.642,4.95,6.96,6.842   c1.65,2.43,2.88,5.04,3.812,8.01c0.75,2.46,0.81,3,0.81,8.34c0,5.37-0.06,5.85-0.84,8.4c-1.2,3.96-2.97,7.05-5.55,9.81   c-4.5,4.8-9.69,7.53-17.432,9.15c-3.54,0.75-14.729,0.75-18.988,0l-2.91-0.512l-1.26,0.9c-2.19,1.59-2.28,1.47-2.73-4.44   c-0.24-3.09-0.42-4.26-0.72-4.26c-1.53,0-1.95-6.3-1.17-17.58c0.3-4.5,0.479-11.04,0.479-18.6c0-12.54,0.182-13.74,1.2-7.74   c0.63,3.66,1.5,13.14,1.5,16.17c0,1.95,0.03,2.01,0.69,1.83c3.119-0.87,7.17-0.78,10.56,0.24c1.59,0.479,4.35,2.13,4.35,2.61   c0,0.148,0.24,0.27,0.54,0.27c0.33,0,1.142-1.14,2.49-3.54c3.33-5.85,7.771-14.34,7.771-14.79c0-0.75-4.562-3.479-8.7-5.189   c-6.746-2.771-14.476-4.136-22.2-4.129v71.208c0.222,0.012,0.461,0.132,0.99,0.361c1.35,0.54,2.729,2.22,3.54,4.29   c0.54,1.41,0.688,2.49,0.81,5.97c0.271,8.762-1.26,12.24-5.34,12.24v19.021c0.36,0.06,0.72-1.29,1.71-6.15   c1.41-6.84,3-12.96,4.11-15.72c1.05-2.642,3.18-6.182,4.59-7.71c1.108-1.17,1.32-1.29,1.74-0.96c0.688,0.568,1.71,2.67,3.479,7.198   c3.3,8.521,7.17,15.03,11.37,19.2c3,3,4.92,4.05,8.49,4.65c6.12,1.02,10.8,0.81,16.56-0.75c5.34-1.41,8.7-2.79,19.352-7.95   c3.868-1.89,11.01-5.04,15.81-7.021c4.83-1.979,9.45-3.961,10.29-4.381c1.95-0.988,4.32-3.33,9.24-9.21   c6.96-8.25,12.87-13.02,19.38-15.6c2.16-0.84,2.79-0.96,5.43-0.96c2.79-0.03,3.15,0.03,4.98,0.93c1.108,0.54,2.13,0.99,2.278,0.99   c0.15,0,0.512-0.42,0.812-0.9c1.229-2.13,5.31-4.59,9.54-5.818c8.04-2.341,16.77-1.381,24.96,2.729c1.47,0.75,3.21,1.681,3.84,2.07   c0.6,0.39,1.29,0.72,1.47,0.72c0.182,0,0.96-0.688,1.71-1.56c3.33-3.722,7.29-6.9,9.12-7.29c0.54-0.12,0.84-0.392,0.84-0.721   C731.1,491.1,728.04,490.11,722.46,488.85z M600.81,537.57c-6.39,3.75-16.948,5.398-23.43,3.66c-4.02-1.08-6.6-2.521-9.36-5.25   c-3.658-3.66-4.858-6.602-6-14.73c-0.658-4.8-0.448-11.88,0.45-15.24c1.65-6.3,5.07-9.99,10.32-11.188   c2.61-0.57,9.93-0.36,13.56,0.448c6.66,1.44,12.932,4.021,16.382,6.75c3.6,2.852,5.908,7.98,6.898,15.422   C610.77,526.02,607.41,533.7,600.81,537.57z M652.53,505.59c-1.8,4.65-8.79,9.3-17.761,11.76c-3.841,1.08-9.271,1.352-11.851,0.602   c-5.31-1.53-8.34-5.07-9.6-11.25c-0.84-4.2-0.062-8.37,2.278-11.97c1.382-2.19,4.562-4.98,7.021-6.212   c4.77-2.34,14.37-3.3,20.43-2.038c4.26,0.868,7.2,2.818,8.67,5.788C653.49,495.75,653.88,502.05,652.53,505.59z" style="stroke:black;fill:#BFDAE3"/><path id="180623552" parent_id="180608862" order="20" structure_id="1" d="M550.08,570.18   c-0.09,0.271-0.18,2.312-0.18,4.562v4.108l1.59,0.57c3.12,1.08,9.72,4.47,13.02,6.66c5.73,3.81,10.472,9.06,12.42,13.77   c0.392,0.932,0.87,1.65,1.11,1.65c0.84,0,5.16-1.29,5.16-1.56c0-0.12-0.78-1.83-1.771-3.78c-0.96-1.92-2.608-5.46-3.659-7.86   c-1.801-4.08-2.039-4.47-4.171-6.6c-3.93-3.96-11.729-8.55-18.6-10.92C551.64,569.61,550.35,569.43,550.08,570.18z" style="stroke:black;fill:#BFDAE3"/><path id="180623552" parent_id="180608862" order="21" structure_id="1" d="M907.8,467.46   c-1.2,7.29-2.729,14.76-4.53,21.96c-0.658,2.61-1.078,4.86-0.96,5.01c0.36,0.33,62.82,19.86,63,19.682   c0.24-0.271-0.688-4.32-2.31-10.2c-1.59-5.73-2.01-8.49-1.65-10.86c0.182-1.318,0.45-1.68,3.271-4.47   c2.188-2.16,3.479-3.72,4.47-5.46c0.78-1.32,1.41-2.55,1.41-2.73c0-0.18-0.36-0.42-0.811-0.54   c-6.75-1.68-60.631-14.55-61.021-14.55C908.25,465.3,908.07,465.75,907.8,467.46z" style="stroke:black;fill:#BFDAE3"/><path id="180623552" parent_id="180608862" order="22" structure_id="1" d="M607.59,574.86   c-3.42,4.02-9.63,10.738-13.8,14.97c-4.17,4.229-7.59,7.859-7.59,8.07c0,1.289,6.75-1.711,12.75-5.67c4.53-3,6.84-4.86,11.58-9.302   c5.64-5.37,7.26-8.13,6.54-11.43c-0.33-1.5-2.07-3.9-2.82-3.9C614.01,567.6,611.04,570.87,607.59,574.86z" style="stroke:black;fill:#BFDAE3"/><path id="180623552" parent_id="180608862" order="23" structure_id="1" d="M672.9,507.48   c-2.4,1.92-6.092,5.068-8.25,6.96c-4.052,3.6-31.892,31.56-36.69,36.81c-3.54,3.93-13.26,15.21-13.44,15.63   c-0.09,0.18,0.271,0.78,0.812,1.352c1.14,1.198,2.04,3.09,2.07,4.229c0,0.48,0.118,0.84,0.27,0.84s1.14-0.898,2.19-2.04   c1.05-1.108,4.408-4.648,7.47-7.858c3.03-3.21,8.91-9.36,13.02-13.65c11.79-12.3,23.49-24.57,26.07-27.42   c4.74-5.19,7.68-9.33,10.2-14.34c1.38-2.79,1.68-3.99,1.02-3.99C677.43,504,675.3,505.59,672.9,507.48z" style="stroke:black;fill:#BFDAE3"/><path id="180623552" parent_id="180608862" order="24" structure_id="1" d="M542.52,505.59c-0.911-0.894-1.69-1.314-2.52-1.291v22.42c0.11-0.004,0.215-0.002,0.33-0.01   c3.45-0.21,4.35-1.71,4.77-7.95C545.58,511.74,544.83,507.9,542.52,505.59z" style="stroke:black;fill:#BFDAE3"/><path id="180623552" parent_id="180608862" order="25" structure_id="1" d="M541.8,411.3c-0.18-2.068-0.39-4.77-0.51-6.03c-0.09-1.408-0.03-2.67,0.18-3.328   c0.3-0.932,0.271-1.262-0.33-2.46c-0.429-0.889-0.784-1.326-1.14-1.324v22.685c0.646,0.041,0.942-0.083,1.2-0.512   C541.83,419.1,542.1,415.17,541.8,411.3z" style="stroke:black;fill:#BFDAE3"/><path id="180623552" parent_id="180608862" order="26" structure_id="1" d="M724.14,519.6c-2.25,1.74-4.8,9.9-3.12,9.9   c0.932,0,3.75-2.79,5.25-5.19c0.962-1.56,1.41-3.63,0.99-4.528c-0.27-0.63-0.568-0.78-1.35-0.78   C725.34,519,724.53,519.27,724.14,519.6z" style="stroke:black;fill:#BFDAE3"/><path id="180623552" parent_id="180608862" order="27" structure_id="1" d="M769.35,467.97   c-1.619,0.99-2.31,1.95-2.188,3.062c0.09,0.898,0.21,1.02,1.05,1.108c1.32,0.12,3.03-0.75,3.72-1.858   c0.722-1.17,0.722-1.74,0.03-2.37C771.24,467.25,770.46,467.28,769.35,467.97z" style="stroke:black;fill:#BFDAE3"/><path id="180623552" parent_id="180608862" order="28" structure_id="1" d="M774.63,455.25c-1.08,1.23-1.62,2.85-1.47,4.5   c0.09,1.11,0.148,1.2,1.109,1.29c1.859,0.18,3.931-2.46,3.931-5.01C778.2,453.93,776.19,453.51,774.63,455.25z" style="stroke:black;fill:#BFDAE3"/><path id="180623552" parent_id="180608862" order="29" structure_id="1" d="M911.16,440.46   c-0.36,4.17-1.08,10.771-1.59,14.64c-1.381,10.53-1.32,9.812-0.69,9.99c2.4,0.72,60.84,14.61,61.41,14.61   c0.63,0,0.899-0.392,2.1-3.24c2.91-6.84,4.92-12.66,6.511-18.93c1.021-4.05,2.489-12.33,2.25-12.57   c-0.181-0.21-67.561-12.03-68.551-12.06h-0.75L911.16,440.46z" style="stroke:black;fill:#BFDAE3"/><path id="180623552" parent_id="180608862" order="30" structure_id="1" d="M702.15,347.58l-0.24,2.58l1.979,4.08   c3.54,7.38,5.79,13.77,7.142,20.34c0.6,2.85,0.688,4.23,0.688,10.92c0.03,7.44,0.062,7.68,0.75,9.09   c0.99,2.04,2.102,2.67,4.41,2.55c4.11-0.238,7.05-2.61,12.03-9.72c3.42-4.89,3.72-5.49,4.02-8.07c0.271-2.55,0.12-3.45-0.659-3.45   c-1.229,0-4.319,1.89-6.271,3.84l-2.01,2.01l-0.21,2.7c-0.182,2.97-0.84,5.58-1.71,6.78c-1.08,1.53-3.75,2.22-5.49,1.41   c-0.42-0.18-1.08-0.96-1.44-1.71c-0.658-1.32-0.688-1.71-0.72-9.33c-0.03-12.45-0.42-13.83-8.82-30.93   c-1.318-2.7-2.398-5.07-2.398-5.28s-0.181-0.39-0.42-0.39C702.45,345,702.3,345.66,702.15,347.58z" style="stroke:black;fill:#BFDAE3"/><path id="180623552" parent_id="180608862" order="31" structure_id="1" d="M639.66,191.4   c-2.91,0.63-4.32,2.07-4.5,4.77c-0.18,2.28,0.33,3.99,3.18,10.68c2.43,5.73,10.5,22.17,12.78,25.98   c4.74,8.01,19.95,16.2,32.97,17.7c5.43,0.63,12.87-0.21,24.36-2.76c17.43-3.9,23.88-4.77,35.068-4.77c6.392,0,12,0.36,18.632,1.23   c7.738,1.02,7.648,0.99,7.648,0.51c0-0.33-1.74-0.99-5.91-2.28c-19.738-6.09-45.54-12.45-64.14-15.78c-3.3-0.6-6.66-1.2-7.5-1.35   c-1.47-0.3-1.47-0.3,0.45-0.15c6.75,0.57,32.64,6.21,50.88,11.07c42.66,11.43,73.05,24.33,93.569,39.75   c11.971,9,21.54,19.41,32.011,34.8c22.17,32.58,33.66,63.21,37.59,100.352c0.66,6.148,0.93,23.55,0.479,30.898   c-1.381,22.38-5.489,44.73-11.789,64.05c-3.211,9.842-5.132,14.342-10.44,24.15c-10.47,19.47-16.71,28.68-26.49,39.09   c-18.21,19.44-42.66,31.74-71.37,35.91c-1.648,0.24-1.858,0.75-0.63,1.56c1.352,0.87,7.352,0.722,11.94-0.328   c8.91-2.07,20.79-6.48,30.6-11.432c17.79-8.91,33.812-24.12,47.7-45.148c8.22-12.45,14.67-24.722,18.75-35.7   c9.12-24.36,13.979-49.891,16.56-86.852c0.512-7.26,0.512-26.46,0-31.5c-2.729-26.97-10.5-50.37-25.38-76.44   c-9.989-17.49-15.358-24.72-26.698-36.06c-9.512-9.48-19.23-17.37-31.08-25.2c-22.711-15.03-39.211-21.57-112.62-44.55   c-23.341-7.29-40.32-12.72-56.49-18.03c-5.46-1.8-10.8-3.48-11.88-3.72C645.45,191.28,641.31,191.04,639.66,191.4z" style="stroke:black;fill:#BFDAE3"/><path id="180623552" parent_id="180608862" order="32" structure_id="1" d="M654.6,238.35c0,0.27,0.812,1.65,1.771,3.12   c5.28,7.83,12.06,14.16,18.33,17.1c2.67,1.26,6.3,2.13,8.729,2.13c1.142,0,4.11-0.36,6.63-0.78c2.882-0.48,6.092-0.81,8.642-0.87   c3.688-0.09,4.47-0.21,8.55-1.35c9.09-2.52,19.2-4.77,27.54-6.06c3.63-0.57,5.52-0.66,12.96-0.66c9.69-0.03,12.69,0.3,19.05,2.01   c2.94,0.78,3.87,0.93,6.36,0.84c6.18-0.15,12.3,2.25,33,13.05c25.26,13.14,37.53,22.11,49.35,36.03   c6.812,8.01,16.98,23.73,25.32,39.09c11.79,21.75,20.31,47.28,22.92,68.7c0.66,5.46,0.93,21.72,0.479,29.25   c-0.841,13.62-2.461,24.78-5.761,39.66c-7.438,33.42-18.12,57.96-33.87,77.67c-4.35,5.46-10.619,12.21-15.358,16.528   c-4.95,4.5-6.42,5.7-10.591,8.552c-12.239,8.34-27.329,14.488-43.801,17.79c-2.13,0.448-4.619,1.02-5.52,1.29   c-1.86,0.568-3.63,2.068-3.63,3.028c0,0.57,0.12,0.66,0.84,0.512c0.45-0.092,2.46-0.45,4.439-0.78   c14.341-2.4,28.471-7.23,40.141-13.771c9.27-5.188,16.95-11.04,24.78-18.898c8.729-8.762,15.358-17.55,22.408-29.73   c3.062-5.31,9.812-17.97,11.25-21.148c8.19-17.972,14.61-45.842,16.921-73.352c0.659-7.59,0.75-26.85,0.181-33   c-2.79-30.09-10.5-56.1-23.94-80.73c-7.08-12.96-15.09-25.14-23.188-35.37c-4.381-5.52-14.131-15.33-19.53-19.62   c-13.26-10.56-30.271-19.65-52.62-28.11c-6.66-2.52-10.71-3.688-17.28-4.89c-9.119-1.68-16.29-2.31-26.398-2.31   c-11.312,0-16.86,0.63-28.8,3.24c-16.892,3.66-20.82,4.29-27,4.29c-6.69,0-13.021-1.62-20.61-5.25c-4.11-1.98-8.22-4.47-10.62-6.48   C655.17,237.81,654.6,237.63,654.6,238.35z" style="stroke:black;fill:#BFDAE3"/><path id="180623552" parent_id="180608862" order="33" structure_id="1" d="M912.72,409.68c0,4.44-0.18,11.34-0.39,15.36   c-0.24,3.99-0.36,7.35-0.271,7.41c0.21,0.24,68.94,12.24,69.092,12.09c0.27-0.271,0.72-5.94,1.05-12.99   c0.18-3.96,0.6-11.64,0.93-17.04c0.33-5.43,0.57-9.898,0.51-9.93c-0.06-0.062-14.88-0.66-32.938-1.35   c-18.062-0.69-34.021-1.32-35.432-1.41l-2.55-0.182V409.68L912.72,409.68z" style="stroke:black;fill:#BFDAE3"/><path id="180623552" parent_id="180608862" order="34" structure_id="1" d="M606.51,403.5c-0.18-4.8-0.6-7.08-1.74-9.84c-0.568-1.35-0.778-1.59-1.288-1.44   c-1.53,0.42-11.82,2.01-15.932,2.46c-5.97,0.66-14.88,0.69-17.729,0.06c-3.09-0.69-4.83-1.62-5.761-3.03   c-0.75-1.11-0.811-1.47-0.779-4.02c0.029-1.86-0.09-2.79-0.3-2.79c-0.182,0.03-0.932,0.78-1.682,1.71   c-1.8,2.22-6.3,5.94-9.148,7.56c-2.49,1.44-7.771,3.51-9.722,3.812c-1.38,0.21-1.438,0.358-0.75,1.648   c0.392,0.78,0.42,1.17,0.12,2.43c-0.3,1.2-0.3,2.19,0.03,4.83c0.54,4.38,0.54,11.102,0.03,12.602   c-0.443,1.217-1.152,1.816-1.86,1.813v11.447c3.519,0,7.035,0.18,9.061,0.54c4.109,0.72,4.229,0.689,3.989-0.36   c-0.45-2.04,2.73-3.93,8.46-5.1c7.381-1.5,15.99-1.44,20.7,0.12l2.22,0.75l7.802-3.932c9.119-4.59,10.68-5.789,12.42-9.39   C606.24,412.02,606.72,409.05,606.51,403.5z" style="stroke:black;fill:#BFDAE3"/><path id="180623552" parent_id="180608862" order="35" structure_id="1" d="M581.04,363.39c-8.354-5.066-22.508-7.679-41.04-7.66v40.921c0.178,0.004,0.363,0.286,0.6,0.848   c0.45,1.11,0.602,1.08,5.4-0.48c3.6-1.2,6.78-2.818,9.63-4.918c2.25-1.68,6.96-6.48,8.102-8.25c3.21-5.04,4.438-6.63,7.38-9.48   c3.18-3.09,6.33-5.64,9.778-7.92c0.932-0.63,1.71-1.35,1.71-1.62S581.91,363.9,581.04,363.39z" style="stroke:black;fill:#BFDAE3"/><path id="180623552" parent_id="180608862" order="36" structure_id="1" d="M722.46,488.85c-3.6-0.778-5.76-1.71-7.65-3.21c-1.14-0.898-1.17-0.898-3-0.54   c-3.238,0.602-9.27,2.07-12.51,3c-4.108,1.23-8.64,1.53-10.648,0.78c-0.722-0.3-1.682-0.96-2.132-1.47   c-0.72-0.84-0.778-1.11-0.6-2.58c0.391-3.271,2.4-7.35,9.18-18.78c2.25-3.81,7.92-13.648,12.57-21.87l8.46-14.97l-0.898-1.68   c-2.94-5.521-3.211-14.67-0.78-26.61c0.39-1.95,0.6-3.6,0.45-3.66c-1.32-0.479-3.302-3.479-3.302-5.1c0-0.42-0.18-0.66-0.51-0.66   c-0.42,0-0.75,0.66-1.38,2.64c-2.82,8.82-9.18,16.708-18.15,22.5c-5.25,3.392-16.738,6.392-30.81,8.07   c-3.48,0.39-6.84,0.51-14.85,0.54c-11.222,0-13.74-0.21-21-1.65c-7.23-1.47-13.11-3.688-17.7-6.75c-1.11-0.75-2.16-1.35-2.312-1.35   c-0.119,0-0.51,0.48-0.84,1.08c-0.3,0.57-1.41,1.86-2.46,2.82c-1.62,1.528-3,2.31-10.05,5.818c-4.5,2.25-9.3,4.74-10.68,5.61   c-3.03,1.86-6.66,5.25-6.66,6.21c0,0.36,0.18,0.66,0.39,0.66c0.602,0,5.16,2.28,6.75,3.358c2.04,1.382,5.642,4.95,6.96,6.842   c1.65,2.43,2.88,5.04,3.812,8.01c0.75,2.46,0.81,3,0.81,8.34c0,5.37-0.06,5.85-0.84,8.4c-1.2,3.96-2.97,7.05-5.55,9.81   c-4.5,4.8-9.69,7.53-17.432,9.15c-3.54,0.75-14.729,0.75-18.988,0l-2.91-0.512l-1.26,0.9c-2.19,1.59-2.28,1.47-2.73-4.44   c-0.24-3.09-0.42-4.26-0.72-4.26c-1.53,0-1.95-6.3-1.17-17.58c0.3-4.5,0.479-11.04,0.479-18.6c0-12.54,0.182-13.74,1.2-7.74   c0.63,3.66,1.5,13.14,1.5,16.17c0,1.95,0.03,2.01,0.69,1.83c3.119-0.87,7.17-0.78,10.56,0.24c1.59,0.479,4.35,2.13,4.35,2.61   c0,0.148,0.24,0.27,0.54,0.27c0.33,0,1.142-1.14,2.49-3.54c3.33-5.85,7.771-14.34,7.771-14.79c0-0.75-4.562-3.479-8.7-5.189   c-6.746-2.771-14.476-4.136-22.2-4.129v71.208c0.222,0.012,0.461,0.132,0.99,0.361c1.35,0.54,2.729,2.22,3.54,4.29   c0.54,1.41,0.688,2.49,0.81,5.97c0.271,8.762-1.26,12.24-5.34,12.24v19.021c0.36,0.06,0.72-1.29,1.71-6.15   c1.41-6.84,3-12.96,4.11-15.72c1.05-2.642,3.18-6.182,4.59-7.71c1.108-1.17,1.32-1.29,1.74-0.96c0.688,0.568,1.71,2.67,3.479,7.198   c3.3,8.521,7.17,15.03,11.37,19.2c3,3,4.92,4.05,8.49,4.65c6.12,1.02,10.8,0.81,16.56-0.75c5.34-1.41,8.7-2.79,19.352-7.95   c3.868-1.89,11.01-5.04,15.81-7.021c4.83-1.979,9.45-3.961,10.29-4.381c1.95-0.988,4.32-3.33,9.24-9.21   c6.96-8.25,12.87-13.02,19.38-15.6c2.16-0.84,2.79-0.96,5.43-0.96c2.79-0.03,3.15,0.03,4.98,0.93c1.108,0.54,2.13,0.99,2.278,0.99   c0.15,0,0.512-0.42,0.812-0.9c1.229-2.13,5.31-4.59,9.54-5.818c8.04-2.341,16.77-1.381,24.96,2.729c1.47,0.75,3.21,1.681,3.84,2.07   c0.6,0.39,1.29,0.72,1.47,0.72c0.182,0,0.96-0.688,1.71-1.56c3.33-3.722,7.29-6.9,9.12-7.29c0.54-0.12,0.84-0.392,0.84-0.721   C731.1,491.1,728.04,490.11,722.46,488.85z M600.81,537.57c-6.39,3.75-16.948,5.398-23.43,3.66c-4.02-1.08-6.6-2.521-9.36-5.25   c-3.658-3.66-4.858-6.602-6-14.73c-0.658-4.8-0.448-11.88,0.45-15.24c1.65-6.3,5.07-9.99,10.32-11.188   c2.61-0.57,9.93-0.36,13.56,0.448c6.66,1.44,12.932,4.021,16.382,6.75c3.6,2.852,5.908,7.98,6.898,15.422   C610.77,526.02,607.41,533.7,600.81,537.57z M652.53,505.59c-1.8,4.65-8.79,9.3-17.761,11.76c-3.841,1.08-9.271,1.352-11.851,0.602   c-5.31-1.53-8.34-5.07-9.6-11.25c-0.84-4.2-0.062-8.37,2.278-11.97c1.382-2.19,4.562-4.98,7.021-6.212   c4.77-2.34,14.37-3.3,20.43-2.038c4.26,0.868,7.2,2.818,8.67,5.788C653.49,495.75,653.88,502.05,652.53,505.59z" style="stroke:black;fill:#BFDAE3"/><path id="180623552" parent_id="180608862" order="37" structure_id="1" d="M945.15,372.84   c-19.802,1.05-36.03,1.98-36.092,2.01c-0.06,0.06,0.33,2.22,0.812,4.83c1.29,6.78,1.92,11.55,2.58,19.68l0.21,2.34h1.8   c2.25,0,61.98,2.31,66.15,2.55l3.028,0.18l0.182-1.89c0.21-2.34,0.688-14.4,0.96-24.33l0.18-7.41l-1.89,0.03   C982.02,370.86,964.95,371.76,945.15,372.84z" style="stroke:black;fill:#BFDAE3"/><path id="180623552" parent_id="180608862" order="38" structure_id="1" d="M669.54,500.7   c-5.28,0.93-11.16,4.5-17.22,10.41c-1.5,1.438-4.472,4.738-6.63,7.29c-4.262,5.1-5.882,6.72-7.922,7.89   c-0.72,0.42-5.1,2.31-9.72,4.2c-9.479,3.87-9.568,3.93-19.5,8.67c-12.479,6-17.79,7.68-24.75,7.95c-5.28,0.18-9.54-0.42-12.27-1.74   c-5.67-2.79-11.34-11.07-16.53-24.062c-2.13-5.34-2.58-6.09-3.54-5.789c-1.38,0.449-4.979,6.479-6.33,10.681   c-1.71,5.34-5.1,21.358-4.56,21.54c0.18,0.06,0.33,0.27,0.33,0.45c0,0.21,1.528,1.02,3.39,1.829   c11.22,4.891,28.38,14.609,32.79,18.601c0.87,0.75,1.649,1.38,1.77,1.38s2.25-1.8,4.771-3.99   c15.03-13.229,34.35-28.229,39.99-31.08c4.979-2.488,10.8-3.688,18.42-3.81l5.58-0.062l5.37-5.46   c8.13-8.25,16.078-15.39,22.71-20.34c1.438-1.08,2.608-2.13,2.608-2.31c0-0.48-1.2-1.26-2.7-1.8   C674.01,500.58,671.25,500.37,669.54,500.7z" style="stroke:black;fill:#BFDAE3"/><path id="180623552" parent_id="180608862" order="39" structure_id="1" d="M542.1,447.54c0,4.77-0.21,11.79-0.479,15.66   c-0.602,8.79-0.66,16.8-0.18,18.51c0.328,1.05,0.51,1.29,1.108,1.29c0.54,0,0.78-0.24,1.021-0.99   c1.648-5.1,1.438-25.71-0.45-41.398c-0.12-1.142-0.33-1.71-0.602-1.71C542.16,438.9,542.1,440.46,542.1,447.54z" style="stroke:black;fill:#BFDAE3"/><path id="180623552" parent_id="180608862" order="40" structure_id="1" d="M544.8,578.25c0,1.95,2.4,4.92,4.95,6.15   c2.76,1.318,10.32,1.05,10.59-0.392c0.062-0.33-0.51-0.778-1.979-1.528c-4.11-2.07-11.79-4.98-13.142-4.98   C544.98,577.5,544.8,577.8,544.8,578.25z" style="stroke:black;fill:#BFDAE3"/><path id="180623552" parent_id="180608862" order="41" structure_id="1" d="M542.52,505.59c-0.911-0.894-1.69-1.314-2.52-1.291v22.42c0.11-0.004,0.215-0.002,0.33-0.01   c3.45-0.21,4.35-1.71,4.77-7.95C545.58,511.74,544.83,507.9,542.52,505.59z" style="stroke:black;fill:#BFDAE3"/><path id="180623552" parent_id="180608862" order="42" structure_id="1" d="M560.97,461.16   c-0.688,1.38-2.16,4.47-3.27,6.898c-2.312,5.07-5.25,9.66-7.47,11.73c-1.712,1.59-4.802,3.21-6.15,3.21h-0.87l0.18,4.11   c0.24,4.68,0.42,5.79,0.96,5.79c0.842,0,4.41-2.972,8.4-7.021c5.61-5.64,7.5-8.91,9.36-16.05c0.988-3.78,1.38-11.13,0.6-11.13   C562.38,458.7,561.75,459.6,560.97,461.16z" style="stroke:black;fill:#BFDAE3"/><path id="180623552" parent_id="180608862" order="43" structure_id="1" d="M930.9,306.78   c-22.021,10.5-40.11,19.14-40.17,19.2c-0.062,0.06,1.289,3.06,3.06,6.66c6.57,13.5,10.92,25.11,13.89,37.2   c0.602,2.43,1.2,4.5,1.29,4.62c0.24,0.24,75.57-3.81,75.841-4.08c0.301-0.3-0.449-22.83-0.961-29.43   c-1.408-17.34-3.988-30.96-8.398-44.1c-2.28-6.81-3.21-8.97-3.932-9.09C971.22,287.73,952.92,296.28,930.9,306.78z" style="stroke:black;fill:#BFDAE3"/><path id="180623552" parent_id="180608862" order="44" structure_id="1" d="M846.3,584.13   c-3.87,3.12-11.67,8.13-16.35,10.53c-11.67,5.938-25.771,11.07-34.352,12.45c-2.188,0.358-3.3,0.659-3.3,0.93   c0,0.21-0.42,1.229-0.93,2.31c-0.54,1.052-0.87,2.132-0.78,2.37c0.24,0.602,4.38,1.86,7.59,2.312   c3.48,0.45,10.052,0.18,14.521-0.602c5.04-0.87,9.18-2.01,20.25-5.52c18.66-5.94,21.93-6.812,30.24-7.86   c1.198-0.148,1.438-0.3,1.318-0.72c-0.21-0.87-15-18.03-15.51-18C848.76,582.33,847.53,583.14,846.3,584.13z" style="stroke:black;fill:#BFDAE3"/><path id="180623552" parent_id="180608862" order="45" structure_id="1" d="M722.46,488.85c-3.6-0.778-5.76-1.71-7.65-3.21c-1.14-0.898-1.17-0.898-3-0.54   c-3.238,0.602-9.27,2.07-12.51,3c-4.108,1.23-8.64,1.53-10.648,0.78c-0.722-0.3-1.682-0.96-2.132-1.47   c-0.72-0.84-0.778-1.11-0.6-2.58c0.391-3.271,2.4-7.35,9.18-18.78c2.25-3.81,7.92-13.648,12.57-21.87l8.46-14.97l-0.898-1.68   c-2.94-5.521-3.211-14.67-0.78-26.61c0.39-1.95,0.6-3.6,0.45-3.66c-1.32-0.479-3.302-3.479-3.302-5.1c0-0.42-0.18-0.66-0.51-0.66   c-0.42,0-0.75,0.66-1.38,2.64c-2.82,8.82-9.18,16.708-18.15,22.5c-5.25,3.392-16.738,6.392-30.81,8.07   c-3.48,0.39-6.84,0.51-14.85,0.54c-11.222,0-13.74-0.21-21-1.65c-7.23-1.47-13.11-3.688-17.7-6.75c-1.11-0.75-2.16-1.35-2.312-1.35   c-0.119,0-0.51,0.48-0.84,1.08c-0.3,0.57-1.41,1.86-2.46,2.82c-1.62,1.528-3,2.31-10.05,5.818c-4.5,2.25-9.3,4.74-10.68,5.61   c-3.03,1.86-6.66,5.25-6.66,6.21c0,0.36,0.18,0.66,0.39,0.66c0.602,0,5.16,2.28,6.75,3.358c2.04,1.382,5.642,4.95,6.96,6.842   c1.65,2.43,2.88,5.04,3.812,8.01c0.75,2.46,0.81,3,0.81,8.34c0,5.37-0.06,5.85-0.84,8.4c-1.2,3.96-2.97,7.05-5.55,9.81   c-4.5,4.8-9.69,7.53-17.432,9.15c-3.54,0.75-14.729,0.75-18.988,0l-2.91-0.512l-1.26,0.9c-2.19,1.59-2.28,1.47-2.73-4.44   c-0.24-3.09-0.42-4.26-0.72-4.26c-1.53,0-1.95-6.3-1.17-17.58c0.3-4.5,0.479-11.04,0.479-18.6c0-12.54,0.182-13.74,1.2-7.74   c0.63,3.66,1.5,13.14,1.5,16.17c0,1.95,0.03,2.01,0.69,1.83c3.119-0.87,7.17-0.78,10.56,0.24c1.59,0.479,4.35,2.13,4.35,2.61   c0,0.148,0.24,0.27,0.54,0.27c0.33,0,1.142-1.14,2.49-3.54c3.33-5.85,7.771-14.34,7.771-14.79c0-0.75-4.562-3.479-8.7-5.189   c-6.746-2.771-14.476-4.136-22.2-4.129v71.208c0.222,0.012,0.461,0.132,0.99,0.361c1.35,0.54,2.729,2.22,3.54,4.29   c0.54,1.41,0.688,2.49,0.81,5.97c0.271,8.762-1.26,12.24-5.34,12.24v19.021c0.36,0.06,0.72-1.29,1.71-6.15   c1.41-6.84,3-12.96,4.11-15.72c1.05-2.642,3.18-6.182,4.59-7.71c1.108-1.17,1.32-1.29,1.74-0.96c0.688,0.568,1.71,2.67,3.479,7.198   c3.3,8.521,7.17,15.03,11.37,19.2c3,3,4.92,4.05,8.49,4.65c6.12,1.02,10.8,0.81,16.56-0.75c5.34-1.41,8.7-2.79,19.352-7.95   c3.868-1.89,11.01-5.04,15.81-7.021c4.83-1.979,9.45-3.961,10.29-4.381c1.95-0.988,4.32-3.33,9.24-9.21   c6.96-8.25,12.87-13.02,19.38-15.6c2.16-0.84,2.79-0.96,5.43-0.96c2.79-0.03,3.15,0.03,4.98,0.93c1.108,0.54,2.13,0.99,2.278,0.99   c0.15,0,0.512-0.42,0.812-0.9c1.229-2.13,5.31-4.59,9.54-5.818c8.04-2.341,16.77-1.381,24.96,2.729c1.47,0.75,3.21,1.681,3.84,2.07   c0.6,0.39,1.29,0.72,1.47,0.72c0.182,0,0.96-0.688,1.71-1.56c3.33-3.722,7.29-6.9,9.12-7.29c0.54-0.12,0.84-0.392,0.84-0.721   C731.1,491.1,728.04,490.11,722.46,488.85z M600.81,537.57c-6.39,3.75-16.948,5.398-23.43,3.66c-4.02-1.08-6.6-2.521-9.36-5.25   c-3.658-3.66-4.858-6.602-6-14.73c-0.658-4.8-0.448-11.88,0.45-15.24c1.65-6.3,5.07-9.99,10.32-11.188   c2.61-0.57,9.93-0.36,13.56,0.448c6.66,1.44,12.932,4.021,16.382,6.75c3.6,2.852,5.908,7.98,6.898,15.422   C610.77,526.02,607.41,533.7,600.81,537.57z M652.53,505.59c-1.8,4.65-8.79,9.3-17.761,11.76c-3.841,1.08-9.271,1.352-11.851,0.602   c-5.31-1.53-8.34-5.07-9.6-11.25c-0.84-4.2-0.062-8.37,2.278-11.97c1.382-2.19,4.562-4.98,7.021-6.212   c4.77-2.34,14.37-3.3,20.43-2.038c4.26,0.868,7.2,2.818,8.67,5.788C653.49,495.75,653.88,502.05,652.53,505.59z" style="stroke:black;fill:#BFDAE3"/><path id="180623552" parent_id="180608862" order="46" structure_id="1" d="M722.46,488.85c-3.6-0.778-5.76-1.71-7.65-3.21c-1.14-0.898-1.17-0.898-3-0.54   c-3.238,0.602-9.27,2.07-12.51,3c-4.108,1.23-8.64,1.53-10.648,0.78c-0.722-0.3-1.682-0.96-2.132-1.47   c-0.72-0.84-0.778-1.11-0.6-2.58c0.391-3.271,2.4-7.35,9.18-18.78c2.25-3.81,7.92-13.648,12.57-21.87l8.46-14.97l-0.898-1.68   c-2.94-5.521-3.211-14.67-0.78-26.61c0.39-1.95,0.6-3.6,0.45-3.66c-1.32-0.479-3.302-3.479-3.302-5.1c0-0.42-0.18-0.66-0.51-0.66   c-0.42,0-0.75,0.66-1.38,2.64c-2.82,8.82-9.18,16.708-18.15,22.5c-5.25,3.392-16.738,6.392-30.81,8.07   c-3.48,0.39-6.84,0.51-14.85,0.54c-11.222,0-13.74-0.21-21-1.65c-7.23-1.47-13.11-3.688-17.7-6.75c-1.11-0.75-2.16-1.35-2.312-1.35   c-0.119,0-0.51,0.48-0.84,1.08c-0.3,0.57-1.41,1.86-2.46,2.82c-1.62,1.528-3,2.31-10.05,5.818c-4.5,2.25-9.3,4.74-10.68,5.61   c-3.03,1.86-6.66,5.25-6.66,6.21c0,0.36,0.18,0.66,0.39,0.66c0.602,0,5.16,2.28,6.75,3.358c2.04,1.382,5.642,4.95,6.96,6.842   c1.65,2.43,2.88,5.04,3.812,8.01c0.75,2.46,0.81,3,0.81,8.34c0,5.37-0.06,5.85-0.84,8.4c-1.2,3.96-2.97,7.05-5.55,9.81   c-4.5,4.8-9.69,7.53-17.432,9.15c-3.54,0.75-14.729,0.75-18.988,0l-2.91-0.512l-1.26,0.9c-2.19,1.59-2.28,1.47-2.73-4.44   c-0.24-3.09-0.42-4.26-0.72-4.26c-1.53,0-1.95-6.3-1.17-17.58c0.3-4.5,0.479-11.04,0.479-18.6c0-12.54,0.182-13.74,1.2-7.74   c0.63,3.66,1.5,13.14,1.5,16.17c0,1.95,0.03,2.01,0.69,1.83c3.119-0.87,7.17-0.78,10.56,0.24c1.59,0.479,4.35,2.13,4.35,2.61   c0,0.148,0.24,0.27,0.54,0.27c0.33,0,1.142-1.14,2.49-3.54c3.33-5.85,7.771-14.34,7.771-14.79c0-0.75-4.562-3.479-8.7-5.189   c-6.746-2.771-14.476-4.136-22.2-4.129v71.208c0.222,0.012,0.461,0.132,0.99,0.361c1.35,0.54,2.729,2.22,3.54,4.29   c0.54,1.41,0.688,2.49,0.81,5.97c0.271,8.762-1.26,12.24-5.34,12.24v19.021c0.36,0.06,0.72-1.29,1.71-6.15   c1.41-6.84,3-12.96,4.11-15.72c1.05-2.642,3.18-6.182,4.59-7.71c1.108-1.17,1.32-1.29,1.74-0.96c0.688,0.568,1.71,2.67,3.479,7.198   c3.3,8.521,7.17,15.03,11.37,19.2c3,3,4.92,4.05,8.49,4.65c6.12,1.02,10.8,0.81,16.56-0.75c5.34-1.41,8.7-2.79,19.352-7.95   c3.868-1.89,11.01-5.04,15.81-7.021c4.83-1.979,9.45-3.961,10.29-4.381c1.95-0.988,4.32-3.33,9.24-9.21   c6.96-8.25,12.87-13.02,19.38-15.6c2.16-0.84,2.79-0.96,5.43-0.96c2.79-0.03,3.15,0.03,4.98,0.93c1.108,0.54,2.13,0.99,2.278,0.99   c0.15,0,0.512-0.42,0.812-0.9c1.229-2.13,5.31-4.59,9.54-5.818c8.04-2.341,16.77-1.381,24.96,2.729c1.47,0.75,3.21,1.681,3.84,2.07   c0.6,0.39,1.29,0.72,1.47,0.72c0.182,0,0.96-0.688,1.71-1.56c3.33-3.722,7.29-6.9,9.12-7.29c0.54-0.12,0.84-0.392,0.84-0.721   C731.1,491.1,728.04,490.11,722.46,488.85z M600.81,537.57c-6.39,3.75-16.948,5.398-23.43,3.66c-4.02-1.08-6.6-2.521-9.36-5.25   c-3.658-3.66-4.858-6.602-6-14.73c-0.658-4.8-0.448-11.88,0.45-15.24c1.65-6.3,5.07-9.99,10.32-11.188   c2.61-0.57,9.93-0.36,13.56,0.448c6.66,1.44,12.932,4.021,16.382,6.75c3.6,2.852,5.908,7.98,6.898,15.422   C610.77,526.02,607.41,533.7,600.81,537.57z M652.53,505.59c-1.8,4.65-8.79,9.3-17.761,11.76c-3.841,1.08-9.271,1.352-11.851,0.602   c-5.31-1.53-8.34-5.07-9.6-11.25c-0.84-4.2-0.062-8.37,2.278-11.97c1.382-2.19,4.562-4.98,7.021-6.212   c4.77-2.34,14.37-3.3,20.43-2.038c4.26,0.868,7.2,2.818,8.67,5.788C653.49,495.75,653.88,502.05,652.53,505.59z" style="stroke:black;fill:#BFDAE3"/><path id="180623552" parent_id="180608862" order="47" structure_id="1" d="M664.5,279.69   c0,0.24-0.54,1.74-1.2,3.36c-0.66,1.62-1.2,3.24-1.2,3.57c0,0.51,0.96,1.17,4.44,3.12c5.79,3.24,12.21,8.31,12.21,9.63   c0,0.78,0.51,1.23,4.8,4.26c6.54,4.62,13.23,9.63,16.71,12.54c4.95,4.17,6.45,7.23,6.182,12.81c-0.092,1.71-0.36,3.6-0.66,4.47   c-0.75,2.07-2.04,4.05-2.642,4.05c-0.81,0-1.079,1.68-0.898,5.76c0.029,1.32,0.18,1.74,0.51,1.74c0.24,0,0.45,0.18,0.45,0.39   s1.02,2.46,2.28,5.01c4.229,8.64,6.329,13.35,7.26,16.2c0.87,2.73,1.859,8.13,1.859,10.17c0,0.57,0.149,0.93,0.391,0.93   c0.21,0,0.63,0.45,0.87,1.02c1.108,2.28,3.72,4.38,5.43,4.38c1.62,0,2.55-0.36,2.729-1.05c0.421-1.71,6.449-6.15,8.37-6.15   c0.391,0,0.869-0.18,1.079-0.39c0.24-0.24,1.682-0.36,5.012-0.36c3.688,0,4.619-0.06,4.619-0.39c0-0.24-0.989-1.86-2.221-3.6   c-7.2-10.47-13.71-22.26-17.1-31.05c-1.86-4.74-2.58-7.62-2.79-10.92c-0.3-4.89,0.75-8.22,3.569-11.1   c2.819-2.85,6.841-4.17,17.489-5.76c3.48-0.51,7.591-1.14,9.15-1.38c1.56-0.24,3.359-0.45,4.02-0.45c1.051,0,1.142-0.06,0.961-0.69   c-1.109-4.02-0.841-7.32,0.811-10.71c1.38-2.79,4.529-5.91,7.319-7.23c1.199-0.57,2.131-1.17,2.101-1.35s-0.811-0.96-1.71-1.77   c-2.97-2.64-5.101-5.76-5.58-8.25c-0.18-0.87-0.24-0.9-1.89-0.9c-4.921,0-8.82,1.38-18.03,6.39c-9.36,5.07-13.83,6.93-20.312,8.37   c-3.84,0.87-10.77,0.9-15.238,0.12c-12.512-2.22-29.82-8.76-36.722-13.83C665.01,279.24,664.5,279.03,664.5,279.69z M718.53,340.89   c2.818,2.16,0.18,7.71-3.69,7.71c-3.66,0-3.75-5.31-0.12-7.53C715.77,340.44,717.81,340.32,718.53,340.89z" style="stroke:black;fill:#BFDAE3"/><path id="180623552" parent_id="180608862" order="48" structure_id="1" d="M848.25,510.24   c-2.07,2.46-6.72,5.16-11.01,6.358c-2.94,0.812-7.17,1.5-9.42,1.5c-1.5,0-1.892,0.092-1.98,0.512   c-0.27,0.898-7.108,9.898-10.8,14.188c-3.87,4.47-5.43,5.73-9.75,7.92c-7.17,3.63-17.61,6.812-37.44,11.432   c-9.18,2.158-12.6,3.3-18.42,6.148c-6.93,3.42-12.898,7.17-20.729,13.021c-2.22,1.648-4.682,3.33-5.46,3.688   c-1.142,0.511-1.44,0.812-1.44,1.38c0,0.392-0.27,1.08-0.6,1.5c-0.9,1.142-2.49,4.052-3.21,5.91c-2.4,6.09-2.46,13.44-0.15,20.49   l0.812,2.46l6.688,0.09L732,606.9v-1.29c0-2.762,1.47-6.512,3.96-10.2c5.25-7.74,16.021-14.28,28.59-17.34   c6.271-1.53,8.88-1.771,20.67-2.102c14.341-0.358,18.062-0.898,26.13-3.81c9.9-3.57,14.91-6.78,22.892-14.58   c6.84-6.69,12.93-14.19,18.569-22.86c1.771-2.729,2.789-4.02,3.149-4.02c0.39,0,0.54-0.24,0.54-0.75c0-0.54-0.15-0.75-0.54-0.75   c-0.42,0-0.96-0.87-2.07-3.24c-2.43-5.07-3.39-8.7-3.84-14.25c-0.148-1.65-0.358-2.61-0.568-2.58   C849.3,509.13,848.76,509.64,848.25,510.24z" style="stroke:black;fill:#BFDAE3"/><path id="180623552" parent_id="180608862" order="49" structure_id="1" d="M918.99,285.09   c-21,13.05-38.19,23.85-38.19,23.97s1.32,2.46,2.97,5.19c1.62,2.73,3.75,6.45,4.711,8.25c0.989,1.8,1.891,3.3,2.039,3.3   c0.271,0,80.91-38.34,81.15-38.58c0.18-0.18-1.5-4.02-3.6-8.25c-3.24-6.54-9.932-17.67-10.62-17.67   C957.3,261.3,939.96,272.01,918.99,285.09z" style="stroke:black;fill:#BFDAE3"/><path id="180623552" parent_id="180608862" order="50" structure_id="1" d="M904.65,265.8   c-18.48,15.66-33.631,28.65-33.69,28.89c-0.03,0.21,0.84,1.62,2.01,3.09c2.28,2.97,7.23,10.29,7.23,10.71   c0,0.15,0.27,0.21,0.568,0.12c0.9-0.21,76.53-47.4,76.53-47.73c0-0.72-7.89-11.34-14.188-19.17c-2.671-3.27-3.75-4.41-4.23-4.38   C938.49,237.33,925.11,248.46,904.65,265.8z" style="stroke:black;fill:#BFDAE3"/><path id="180623552" parent_id="180608862" order="51" structure_id="1" d="M574.35,494.7c-2.1,0.3-4.408,1.02-5.729,1.83   c-2.58,1.56-4.98,5.25-5.97,9.12c-0.48,1.89-1.052,6.6-1.052,8.76v1.29h1.17c3.812,0,17.37-3.602,25.08-6.66   c6.182-2.46,13.352-6.66,13.352-7.86c0-1.02-8.28-4.35-13.83-5.55C582.18,494.52,578.01,494.22,574.35,494.7z" style="stroke:black;fill:#BFDAE3"/><path id="180623552" parent_id="180608862" order="52" structure_id="1" d="M838.89,210.99   c-10.62,22.17-19.29,40.5-19.29,40.77c0,0.24,1.771,1.53,4.11,2.97c7.26,4.44,16.47,11.04,23.19,16.59   c6.81,5.64,15.988,14.46,21.028,20.28c1.2,1.41,2.432,2.55,2.7,2.55c0.602,0,68.07-57,68.07-57.54c0-0.51-7.83-9.57-13.65-15.81   c-13.89-14.82-30.479-28.11-51.45-41.16c-6.84-4.26-14.79-8.94-15.18-8.94C858.27,170.7,849.48,188.85,838.89,210.99z" style="stroke:black;fill:#BFDAE3"/><path id="180623552" parent_id="180608862" order="53" structure_id="1" d="M772.11,181.11   c-8.07,24.39-14.642,44.61-14.61,44.97c0,0.48,0.42,0.75,2.19,1.29c3.658,1.17,20.46,7.05,26.068,9.12   c11.91,4.41,22.23,9.06,30.062,13.53c1.648,0.93,3.148,1.65,3.3,1.56c0.33-0.12,38.67-79.98,38.82-80.85   c0.028-0.33-0.69-0.9-2.4-1.83c-1.38-0.75-5.04-2.76-8.19-4.47c-7.979-4.35-27.988-14.4-34.83-17.52   c-10.26-4.62-23.85-10.11-25.14-10.11C786.75,136.8,785.79,139.65,772.11,181.11z" style="stroke:black;fill:#BFDAE3"/><path id="180623552" parent_id="180608862" order="54" structure_id="1" d="M694.11,159.99   c-4.44,23.94-8.04,43.65-8.04,43.77c0.028,0.3,4.5,1.74,35.278,11.34c6.932,2.16,17.61,5.55,23.73,7.5   c6.12,1.98,11.34,3.6,11.58,3.6c0.3,0,0.87-1.29,1.8-4.14c0.75-2.25,7.41-22.44,14.79-44.82c7.41-22.41,13.38-40.8,13.29-40.89   c-0.24-0.24-8.61-3.15-14.34-4.98c-17.07-5.49-35.521-9.84-54.301-12.87c-5.67-0.9-14.369-2.1-15.271-2.1   C702.24,116.4,700.89,123.15,694.11,159.99z" style="stroke:black;fill:#BFDAE3"/><path id="180623552" parent_id="180608862" order="55" structure_id="1" d="M664.47,113.13   c-0.148,0.63-7.08,81.45-7.02,81.54c0.18,0.15,27.568,9.03,27.96,9.03c0.18,0,0.42-0.24,0.51-0.54   c0.42-1.38,16.05-86.55,15.93-86.73c-0.06-0.15-0.898-0.33-1.858-0.42c-10.95-1.17-14.13-1.5-20.19-2.01   C672.24,113.37,664.53,112.92,664.47,113.13z" style="stroke:black;fill:#BFDAE3"/><path id="180623552" parent_id="180608862" order="56" structure_id="1" d="M629.22,112.53   c-5.729,0.27-11.489,0.75-11.729,0.99c-0.09,0.09,5.16,17.55,11.67,38.79l11.85,38.64l2.67,0.18c3,0.24,3.78,0.39,9.33,2.13   c2.19,0.69,4.05,1.17,4.11,1.11c0.148-0.15,7.17-81.3,7.02-81.42c-0.028-0.06-3.84-0.24-8.398-0.42   C646.56,112.17,637.08,112.17,629.22,112.53z" style="stroke:black;fill:#BFDAE3"/><path id="180623552" parent_id="180608862" order="57" structure_id="1" d="M612.6,113.88   c-19.47,2.64-33.688,7.32-44.608,14.73c-4.86,3.3-11.432,9.27-11.102,10.08c0.182,0.51,76.83,59.4,77.49,59.55   c0.3,0.09,0.42-0.18,0.42-0.9c0-2.97,1.53-5.07,4.23-5.88c1.648-0.48,1.77-0.57,1.62-1.26c-0.092-0.42-5.432-17.82-11.82-38.7   c-11.13-36.27-11.67-37.95-12.36-38.01C616.08,113.46,614.34,113.64,612.6,113.88z" style="stroke:black;fill:#BFDAE3"/><path id="180623552" parent_id="180608862" order="58" structure_id="1" d="M553.95,141.48   c-7.47,9.18-12.062,19.98-13.352,31.47c-0.33,2.97-0.33,47.04,0,47.34c0.21,0.21,101.04-4.44,101.28-4.68   c0.12-0.09-0.87-2.52-2.13-5.37c-1.29-2.85-2.85-6.51-3.45-8.13l-1.108-2.94l-39.12-30.03c-21.512-16.53-39.33-30.09-39.57-30.15   C556.23,138.93,555.21,139.92,553.95,141.48z" style="stroke:black;fill:#BFDAE3"/><path id="180623552" parent_id="180608862" order="59" structure_id="1" d="M589.35,218.34   c-26.729,1.23-48.63,2.28-48.688,2.31c-0.062,0.03,0.18,1.38,0.51,2.97c2.25,10.68,8.61,22.05,16.32,29.16   c6.148,5.64,16.77,10.74,28.26,13.59c3.39,0.84,14.16,3,20.55,4.11l2.852,0.48l22.5-15.93c12.39-8.79,22.56-16.11,22.59-16.26   c0.06-0.15-0.63-1.56-1.562-3.09c-2.188-3.69-6.84-12.45-8.729-16.47l-1.5-3.18l-2.25,0.03   C638.97,216.06,616.08,217.08,589.35,218.34z" style="stroke:black;fill:#BFDAE3"/><path id="180623552" parent_id="180608862" order="60" structure_id="1" d="M632.04,254.79   c-12.18,8.61-22.14,15.81-22.14,15.99c0,0.18,2.1,0.66,4.89,1.14c2.67,0.45,9.06,1.74,14.16,2.85c5.13,1.14,10.71,2.28,12.45,2.58   c1.738,0.27,3.51,0.57,3.93,0.66c0.72,0.12,1.38-0.75,9.75-12.54c4.92-6.96,9.09-12.9,9.24-13.2c0.21-0.45-0.091-0.96-1.5-2.52   c-2.61-2.94-5.04-6.03-6.66-8.46c-0.78-1.2-1.53-2.19-1.71-2.19C654.3,239.1,644.19,246.15,632.04,254.79z" style="stroke:black;fill:#BFDAE3"/><path id="180623552" parent_id="180608862" order="61" structure_id="1" d="M655.68,264.69   c-4.948,6.96-9.028,12.93-9.09,13.26c-0.12,0.51,0.15,0.75,1.47,1.29c0.87,0.36,4.262,2.13,7.562,3.96c3.27,1.8,6.03,3.3,6.148,3.3   c0.24,0,2.73-6.33,2.73-6.99c0-0.3-0.48-1.2-1.05-2.04c-1.41-2.07-1.38-3.03,0.09-4.47c1.38-1.29,3.09-2.13,8.61-4.2   c4.948-1.83,17.55-6.03,23.158-7.68c2.642-0.78,3.99-1.32,3.99-1.59c0-0.6-4.5-0.271-10.5,0.75c-3.24,0.54-5.16,0.72-6.3,0.6   c-5.16-0.6-10.8-3.27-15.66-7.41c-0.93-0.81-1.8-1.47-1.95-1.47C664.77,252,660.6,257.7,655.68,264.69z" style="stroke:black;fill:#BFDAE3"/><path id="180623552" parent_id="180608862" order="62" structure_id="1" d="M599.7,502.83   c-6.66,5.01-22.23,10.74-34.71,12.75l-3.182,0.54l0.182,3c0.27,4.35,1.438,9.66,2.729,12.39c1.53,3.21,4.53,6.15,7.98,7.83   c4.02,1.98,5.7,2.312,11.25,2.28c4.17,0,5.22-0.12,8.04-0.812c6-1.5,9.63-3.3,12.63-6.328c3.45-3.45,4.979-7.65,4.979-13.62   c0-5.222-1.68-12.302-3.63-15.12c-1.05-1.562-3.66-4.142-4.17-4.142C601.53,501.6,600.6,502.14,599.7,502.83z" style="stroke:black;fill:#BFDAE3"/><path id="180623552" parent_id="180608862" order="63" structure_id="1" d="M741.3,251.13   c-13.74,0.99-39.63,7.41-63.42,15.72c-13.59,4.77-15.18,5.64-15.18,8.46c0,1.17,0.18,1.5,1.438,2.85   c3.602,3.84,11.49,7.95,23.012,11.91c9.778,3.39,17.369,4.95,24.148,4.95c8.76,0,14.97-1.98,27.9-9.03   c9.12-4.95,13.14-6.39,17.818-6.39h1.53v-3.54c0-3.81,0.48-5.79,2.25-9.51c1.771-3.63,5.432-8.43,8.102-10.53   c0.81-0.63,1.438-1.38,1.409-1.62c-0.149-0.99-8.819-2.76-16.109-3.3C749.64,250.77,746.34,250.77,741.3,251.13z" style="stroke:black;fill:#BFDAE3"/><path id="180623552" parent_id="180608862" order="64" structure_id="1" d="M572.25,273.33   c-7.35,0.93-13.59,4.08-18.84,9.54c-4.11,4.26-4.98,6.78-5.22,15.18c-0.15,4.83,0.328,13.8,0.988,19.02   c0.24,1.77,1.44,3.03,2.94,3.03s1.8-0.6,3-5.88c1.74-7.47,2.79-10.35,5.1-13.89c3.21-4.89,7.5-7.71,13.83-9.09   c3.51-0.78,13.021-1.05,18.03-0.57c12.479,1.26,27.54,4.89,47.52,11.46c17.222,5.67,32.46,13.08,44.25,21.48   c3.392,2.43,6.57,4.95,14.552,11.61c1.89,1.59,3.6,2.88,3.81,2.88c0.99,0-0.3-4.62-2.43-8.76c-3.062-5.94-6.84-10.83-13.2-17.19   c-11.04-10.98-22.32-17.91-39.39-24.18c-12.932-4.74-39.69-11.07-57.392-13.59C580.68,273.06,576.39,272.82,572.25,273.33z" style="stroke:black;fill:#BFDAE3"/><path id="180623552" parent_id="180608862" order="65" structure_id="1" d="M579.9,290.58   c-9.57,1.14-12.812,2.4-16.95,6.54c-2.61,2.61-4.562,5.88-5.82,9.78c-0.6,1.86-3.03,11.76-3.03,12.33c0,0.99,1.98-0.18,8.552-5.07   c5.158-3.84,10.14-6.03,17.55-7.65c5.49-1.23,8.729-1.53,15.3-1.53c6.78,0,10.65,0.42,17.94,1.95   c22.35,4.62,43.92,12.78,67.108,25.41c9.57,5.19,15.84,9.99,19.2,14.73c0.84,1.14,1.65,2.1,1.86,2.1c0.51,0.03,0.75-2.52,0.63-6.93   l-0.09-3.81l-6.9-5.73c-7.68-6.42-11.13-9-16.65-12.54c-11.34-7.26-23.25-12.72-38.85-17.85c-18.75-6.18-32.16-9.54-44.7-11.16   C591.51,290.7,581.97,290.34,579.9,290.58z" style="stroke:black;fill:#BFDAE3"/><path id="180623552" parent_id="180608862" order="66" structure_id="1" d="M710.58,373.05c-1.5-6.57-4.86-15.51-8.07-21.45c-4.89-9.06-11.04-13.8-30.96-23.85   c-17.938-9.06-32.49-14.52-50.398-18.9c-11.73-2.88-17.73-3.75-26.012-3.75c-5.52,0-9.148,0.36-14.22,1.35   c-7.77,1.56-13.08,3.9-19.17,8.43c-5.07,3.78-6.87,4.92-8.49,5.4c-0.75,0.24-2.97,1.23-4.979,2.22   c-3.365,1.672-5.794,2.343-8.28,2.192v5.294c4.619-0.016,9.761-0.484,17.85-1.516c11.552-1.44,17.94-2.82,21.602-4.62   c3.63-1.8,6.27-2.19,12.42-1.71c24.149,1.89,57.72,17.19,81.479,37.17c4.2,3.51,11.222,10.59,13.95,14.04   c2.82,3.54,5.852,8.28,7.71,12c3.57,7.05,5.04,12.27,5.94,20.91c0.12,1.05,0.33,1.74,0.54,1.74c0.6-0.03,3.96-4.74,5.58-7.8   c1.77-3.36,3.39-8.07,4.08-11.85C711.9,384.36,711.66,377.82,710.58,373.05z" style="stroke:black;fill:#BFDAE3"/><path id="180623552" parent_id="180608862" order="67" structure_id="1" d="M583.02,322.5   c-1.56,0.33-3.21,1.02-4.288,1.77c-0.45,0.33-1.65,0.84-2.672,1.11c-1.02,0.3-1.858,0.69-1.858,0.87c0,0.21,0.66,0.45,1.56,0.57   c2.55,0.36,10.32,2.43,14.34,3.87c25.11,8.88,50.102,29.34,64.23,52.59c5.58,9.18,9.03,17.55,11.22,27.122   c1.74,7.738,3.09,10.858,5.13,12.06c0.932,0.54,1.021,0.54,4.65-0.24c10.83-2.278,16.95-5.188,23.34-11.1l2.22-2.04l-0.18-3.18   c-1.05-18.332-12.33-35.49-33.96-51.75c-21-15.75-47.58-27.84-68.729-31.2C594.6,322.38,584.82,322.11,583.02,322.5z" style="stroke:black;fill:#BFDAE3"/><path id="180623552" parent_id="180608862" order="68" structure_id="1" d="M606.51,403.5c-0.18-4.8-0.6-7.08-1.74-9.84c-0.568-1.35-0.778-1.59-1.288-1.44   c-1.53,0.42-11.82,2.01-15.932,2.46c-5.97,0.66-14.88,0.69-17.729,0.06c-3.09-0.69-4.83-1.62-5.761-3.03   c-0.75-1.11-0.811-1.47-0.779-4.02c0.029-1.86-0.09-2.79-0.3-2.79c-0.182,0.03-0.932,0.78-1.682,1.71   c-1.8,2.22-6.3,5.94-9.148,7.56c-2.49,1.44-7.771,3.51-9.722,3.812c-1.38,0.21-1.438,0.358-0.75,1.648   c0.392,0.78,0.42,1.17,0.12,2.43c-0.3,1.2-0.3,2.19,0.03,4.83c0.54,4.38,0.54,11.102,0.03,12.602   c-0.443,1.217-1.152,1.816-1.86,1.813v11.447c3.519,0,7.035,0.18,9.061,0.54c4.109,0.72,4.229,0.689,3.989-0.36   c-0.45-2.04,2.73-3.93,8.46-5.1c7.381-1.5,15.99-1.44,20.7,0.12l2.22,0.75l7.802-3.932c9.119-4.59,10.68-5.789,12.42-9.39   C606.24,412.02,606.72,409.05,606.51,403.5z" style="stroke:black;fill:#BFDAE3"/><path id="180623552" parent_id="180608862" order="69" structure_id="1" d="M580.44,366.84   c-4.021,2.76-6.182,4.5-9.182,7.38c-4.979,4.83-7.528,8.97-7.8,12.78c-0.18,2.76,0.09,4.02,1.17,5.25   c2.94,3.36,14.34,3.78,31.17,1.17c7.29-1.11,7.8-1.26,7.8-1.98c0-1.32-5.46-10.14-9.6-15.54c-2.43-3.15-9.9-10.8-10.56-10.8   C583.2,365.1,581.85,365.88,580.44,366.84z" style="stroke:black;fill:#BFDAE3"/><path id="180623552" parent_id="180608862" order="70" structure_id="1" d="M637.05,422.49c-1.5-3.15-3.96-9.182-6.03-14.82c-1.828-5.04-3.18-7.74-5.818-11.67   c-5.25-7.83-15.03-18.66-26.852-29.79c-6.448-6.09-9.119-8.1-14.55-10.8c-4.89-2.46-9.3-4.02-14.729-5.16   c-7.08-1.5-10.29-1.71-26.82-1.74c-0.751-0.003-1.502-0.004-2.25-0.006v6.996c19.8,0,35.34,3.33,43.2,9.27   c1.08,0.81,3.568,3.15,5.55,5.19c5.79,5.91,10.95,13.2,14.55,20.49c2.34,4.71,2.91,6.63,3.36,11.1c0.42,4.32,0.06,8.37-0.99,11.521   l-0.66,1.89l0.722,0.72c1.229,1.2,5.608,3.66,8.789,4.892c3.421,1.35,8.819,2.76,13.079,3.448c3.69,0.602,10.171,1.2,10.382,0.99   C638.07,424.92,637.65,423.78,637.05,422.49z" style="stroke:black;fill:#BFDAE3"/><path id="180623552" parent_id="180608862" order="71" structure_id="1" d="M632.01,486.33   c-5.67,0.66-8.91,1.68-11.818,3.75c-4.65,3.3-6.99,7.8-6.99,13.32c0,6.358,2.818,11.58,7.35,13.68   c4.38,2.01,11.221,1.59,18.392-1.2c11.25-4.32,15.3-9.36,14.22-17.55c-0.63-4.59-1.352-6.48-3.33-8.43   c-1.89-1.92-3.811-2.79-7.53-3.48C639.87,486,635.28,485.94,632.01,486.33z" style="stroke:black;fill:#BFDAE3"/><path id="180623552" parent_id="180608862" order="72" structure_id="1" d="M722.46,488.85c-3.6-0.778-5.76-1.71-7.65-3.21c-1.14-0.898-1.17-0.898-3-0.54   c-3.238,0.602-9.27,2.07-12.51,3c-4.108,1.23-8.64,1.53-10.648,0.78c-0.722-0.3-1.682-0.96-2.132-1.47   c-0.72-0.84-0.778-1.11-0.6-2.58c0.391-3.271,2.4-7.35,9.18-18.78c2.25-3.81,7.92-13.648,12.57-21.87l8.46-14.97l-0.898-1.68   c-2.94-5.521-3.211-14.67-0.78-26.61c0.39-1.95,0.6-3.6,0.45-3.66c-1.32-0.479-3.302-3.479-3.302-5.1c0-0.42-0.18-0.66-0.51-0.66   c-0.42,0-0.75,0.66-1.38,2.64c-2.82,8.82-9.18,16.708-18.15,22.5c-5.25,3.392-16.738,6.392-30.81,8.07   c-3.48,0.39-6.84,0.51-14.85,0.54c-11.222,0-13.74-0.21-21-1.65c-7.23-1.47-13.11-3.688-17.7-6.75c-1.11-0.75-2.16-1.35-2.312-1.35   c-0.119,0-0.51,0.48-0.84,1.08c-0.3,0.57-1.41,1.86-2.46,2.82c-1.62,1.528-3,2.31-10.05,5.818c-4.5,2.25-9.3,4.74-10.68,5.61   c-3.03,1.86-6.66,5.25-6.66,6.21c0,0.36,0.18,0.66,0.39,0.66c0.602,0,5.16,2.28,6.75,3.358c2.04,1.382,5.642,4.95,6.96,6.842   c1.65,2.43,2.88,5.04,3.812,8.01c0.75,2.46,0.81,3,0.81,8.34c0,5.37-0.06,5.85-0.84,8.4c-1.2,3.96-2.97,7.05-5.55,9.81   c-4.5,4.8-9.69,7.53-17.432,9.15c-3.54,0.75-14.729,0.75-18.988,0l-2.91-0.512l-1.26,0.9c-2.19,1.59-2.28,1.47-2.73-4.44   c-0.24-3.09-0.42-4.26-0.72-4.26c-1.53,0-1.95-6.3-1.17-17.58c0.3-4.5,0.479-11.04,0.479-18.6c0-12.54,0.182-13.74,1.2-7.74   c0.63,3.66,1.5,13.14,1.5,16.17c0,1.95,0.03,2.01,0.69,1.83c3.119-0.87,7.17-0.78,10.56,0.24c1.59,0.479,4.35,2.13,4.35,2.61   c0,0.148,0.24,0.27,0.54,0.27c0.33,0,1.142-1.14,2.49-3.54c3.33-5.85,7.771-14.34,7.771-14.79c0-0.75-4.562-3.479-8.7-5.189   c-6.746-2.771-14.476-4.136-22.2-4.129v71.208c0.222,0.012,0.461,0.132,0.99,0.361c1.35,0.54,2.729,2.22,3.54,4.29   c0.54,1.41,0.688,2.49,0.81,5.97c0.271,8.762-1.26,12.24-5.34,12.24v19.021c0.36,0.06,0.72-1.29,1.71-6.15   c1.41-6.84,3-12.96,4.11-15.72c1.05-2.642,3.18-6.182,4.59-7.71c1.108-1.17,1.32-1.29,1.74-0.96c0.688,0.568,1.71,2.67,3.479,7.198   c3.3,8.521,7.17,15.03,11.37,19.2c3,3,4.92,4.05,8.49,4.65c6.12,1.02,10.8,0.81,16.56-0.75c5.34-1.41,8.7-2.79,19.352-7.95   c3.868-1.89,11.01-5.04,15.81-7.021c4.83-1.979,9.45-3.961,10.29-4.381c1.95-0.988,4.32-3.33,9.24-9.21   c6.96-8.25,12.87-13.02,19.38-15.6c2.16-0.84,2.79-0.96,5.43-0.96c2.79-0.03,3.15,0.03,4.98,0.93c1.108,0.54,2.13,0.99,2.278,0.99   c0.15,0,0.512-0.42,0.812-0.9c1.229-2.13,5.31-4.59,9.54-5.818c8.04-2.341,16.77-1.381,24.96,2.729c1.47,0.75,3.21,1.681,3.84,2.07   c0.6,0.39,1.29,0.72,1.47,0.72c0.182,0,0.96-0.688,1.71-1.56c3.33-3.722,7.29-6.9,9.12-7.29c0.54-0.12,0.84-0.392,0.84-0.721   C731.1,491.1,728.04,490.11,722.46,488.85z M600.81,537.57c-6.39,3.75-16.948,5.398-23.43,3.66c-4.02-1.08-6.6-2.521-9.36-5.25   c-3.658-3.66-4.858-6.602-6-14.73c-0.658-4.8-0.448-11.88,0.45-15.24c1.65-6.3,5.07-9.99,10.32-11.188   c2.61-0.57,9.93-0.36,13.56,0.448c6.66,1.44,12.932,4.021,16.382,6.75c3.6,2.852,5.908,7.98,6.898,15.422   C610.77,526.02,607.41,533.7,600.81,537.57z M652.53,505.59c-1.8,4.65-8.79,9.3-17.761,11.76c-3.841,1.08-9.271,1.352-11.851,0.602   c-5.31-1.53-8.34-5.07-9.6-11.25c-0.84-4.2-0.062-8.37,2.278-11.97c1.382-2.19,4.562-4.98,7.021-6.212   c4.77-2.34,14.37-3.3,20.43-2.038c4.26,0.868,7.2,2.818,8.67,5.788C653.49,495.75,653.88,502.05,652.53,505.59z" style="stroke:black;fill:#BFDAE3"/><path id="180623552" parent_id="180608862" order="73" structure_id="1" d="M567.51,449.16   c-0.39,0.72-1.56,2.82-2.58,4.71l-1.89,3.45l0.21,2.698c0.51,7.052-2.55,16.892-6.9,22.142c-0.898,1.108-1.648,2.188-1.648,2.37   c0,0.238,1.62,0.3,6.09,0.18c6.99-0.18,9.57-0.66,13.56-2.61c3.271-1.59,5.79-3.72,7.592-6.42c1.858-2.76,2.698-5.188,3.118-9.028   c0.602-5.79-0.75-10.17-4.229-13.682c-2.76-2.76-6.21-4.29-11.04-4.92l-1.53-0.21L567.51,449.16z" style="stroke:black;fill:#BFDAE3"/><path id="180623552" parent_id="180608862" order="74" structure_id="1" d="M558.15,585.12c-2.79,0.63-4.5,0.6-6.812-0.12c-3.33-1.02-6.3-3.96-6.72-6.63   c-0.12-0.63-0.42-1.23-0.69-1.352c-0.31-0.119-2.248-0.26-3.93-0.323v29.547c5.084,0.001,10.137-1.096,13.47-3.242   c4.801-3.09,7.74-8.13,8.88-15.09C562.98,584.04,562.95,584.01,558.15,585.12z" style="stroke:black;fill:#BFDAE3"/><path id="180623552" parent_id="180608862" order="75" structure_id="1" d="M559.32,614.85c-1.262-2.58-1.352-8.188-0.21-15.238c0.09-0.722,0.06-1.11-0.15-1.11   c-0.18,0-1.26,0.9-2.37,2.04c-2.34,2.31-5.1,3.9-8.64,4.92c-2.13,0.6-3.062,0.69-7.95,0.69v14.25c6.78,0,11.52-0.69,17.01-2.432   c1.53-0.479,2.852-1.02,2.94-1.17C560.07,616.62,559.77,615.75,559.32,614.85z" style="stroke:black;fill:#BFDAE3"/><path id="180623552" parent_id="180608862" order="76" structure_id="1" d="M562.56,587.58   c-0.21,1.26-0.96,4.08-1.68,6.24c-1.62,4.8-2.31,9.12-2.31,14.52c0,4.352,0.479,6.75,1.56,7.71c0.602,0.57,0.63,0.57,3.18-0.72   c5.012-2.58,9.78-6.75,12.722-11.1c1.71-2.552,1.71-2.58,0.06-5.881c-1.29-2.609-2.97-4.859-5.398-7.261   c-1.98-1.95-6.9-5.76-7.472-5.79C563.04,585.3,562.74,586.32,562.56,587.58z" style="stroke:black;fill:#BFDAE3"/><path id="180623552" parent_id="180608862" order="77" structure_id="1" d="M678.21,504.66   c-2.76,6.81-6.87,12.66-14.37,20.52c-2.188,2.312-12.21,12.812-22.29,23.34c-10.05,10.53-18.33,19.41-18.39,19.712   c-0.062,0.328,0.06,0.568,0.24,0.568c0.84,0,16.77-7.02,24.898-10.95c14.521-7.05,27.57-11.729,36.42-13.05   c5.7-0.84,7.472,0.932,5.28,5.312c-4.62,9.238-23.04,20.79-41.1,25.77c-10.562,2.94-20.972,3.45-25.352,1.26   c-2.22-1.108-3.45-2.67-3.45-4.438c0-0.48-0.148-0.9-0.358-0.9c-0.54,0-2.37,2.34-3.24,4.17c-0.96,2.011-3.06,4.352-7.8,8.67   c-5.61,5.16-12.09,9.63-17.73,12.271c-1.318,0.6-2.37,1.26-2.37,1.438c0,0.182,1.32,0.99,2.94,1.74c2.7,1.32,3.09,1.41,5.25,1.41   c6.3,0,16.29-3.271,37.11-12.15c14.22-6.06,28.8-12.448,32.398-14.13c10.26-4.89,19.892-11.34,25.95-17.398   c4.62-4.62,7.47-10.021,11.31-21.512c3.03-8.908,3.12-9.93,1.41-14.85c-1.528-4.29-3.51-7.5-6.568-10.56   c-2.73-2.73-4.562-3.932-8.312-5.552c-2.52-1.108-7.59-2.25-9.84-2.25h-1.38L678.21,504.66z" style="stroke:black;fill:#BFDAE3"/><path id="180623552" parent_id="180608862" order="78" structure_id="1" d="M682.05,545.4   c-8.819,1.77-21.3,6.39-33.75,12.51c-4.2,2.07-11.91,5.58-17.1,7.8c-5.49,2.34-9.75,4.32-10.2,4.771   c-0.6,0.568-0.75,1.02-0.75,2.188c0,7.8,19.08,7.59,39.3-0.479c4.892-1.95,8.25-3.602,12.54-6.12   c9.36-5.58,17.04-12.78,18.391-17.312c0.569-1.89,0.539-2.37-0.329-3.21c-0.66-0.688-0.96-0.75-3.062-0.72   C685.8,544.83,683.55,545.1,682.05,545.4z" style="stroke:black;fill:#BFDAE3"/><path id="180623552" parent_id="180608862" order="79" structure_id="1" d="M692.04,495.15   c-4.8,0.898-10.2,3.568-11.85,5.818c-0.96,1.262-0.87,1.771,0.3,1.95c6,0.87,9.66,2.01,13.17,4.08c2.55,1.53,5.85,4.59,7.62,7.08   c1.648,2.31,3.45,6.149,4.35,9.18c0.36,1.29,0.812,2.34,0.99,2.34s0.78-1.408,1.319-3.148c1.739-5.4,5.641-12.75,9.659-18.3   c0.841-1.17,1.472-2.28,1.44-2.521c-0.12-0.57-4.68-3.148-7.59-4.26c-4.62-1.8-7.682-2.4-12.602-2.55   C695.7,494.76,693.66,494.85,692.04,495.15z" style="stroke:black;fill:#BFDAE3"/><path id="180623552" parent_id="180608862" order="80" structure_id="1" d="M706.65,464.43   c-4.92,0.66-10.53,2.37-12.302,3.69c-0.51,0.39-1.8,2.28-2.908,4.26c-4.08,7.29-5.342,10.41-5.342,13.14   c0,1.44,0.092,1.712,0.9,2.37c1.92,1.62,6.21,1.74,11.34,0.33c4.86-1.318,9.51-2.46,12.15-3c2.91-0.568,3.028-0.72,1.858-2.43   c-0.39-0.6-0.898-1.8-1.08-2.67c-0.3-1.352-0.27-1.8,0.271-3.602c1.11-3.658,3.78-7.438,6.78-9.568   c0.898-0.66,1.648-1.352,1.68-1.562C720.03,464.46,711.09,463.83,706.65,464.43z" style="stroke:black;fill:#BFDAE3"/><path id="180623552" parent_id="180608862" order="81" structure_id="1" d="M678.21,504.66   c-2.76,6.81-6.87,12.66-14.37,20.52c-2.188,2.312-12.21,12.812-22.29,23.34c-10.05,10.53-18.33,19.41-18.39,19.712   c-0.062,0.328,0.06,0.568,0.24,0.568c0.84,0,16.77-7.02,24.898-10.95c14.521-7.05,27.57-11.729,36.42-13.05   c5.7-0.84,7.472,0.932,5.28,5.312c-4.62,9.238-23.04,20.79-41.1,25.77c-10.562,2.94-20.972,3.45-25.352,1.26   c-2.22-1.108-3.45-2.67-3.45-4.438c0-0.48-0.148-0.9-0.358-0.9c-0.54,0-2.37,2.34-3.24,4.17c-0.96,2.011-3.06,4.352-7.8,8.67   c-5.61,5.16-12.09,9.63-17.73,12.271c-1.318,0.6-2.37,1.26-2.37,1.438c0,0.182,1.32,0.99,2.94,1.74c2.7,1.32,3.09,1.41,5.25,1.41   c6.3,0,16.29-3.271,37.11-12.15c14.22-6.06,28.8-12.448,32.398-14.13c10.26-4.89,19.892-11.34,25.95-17.398   c4.62-4.62,7.47-10.021,11.31-21.512c3.03-8.908,3.12-9.93,1.41-14.85c-1.528-4.29-3.51-7.5-6.568-10.56   c-2.73-2.73-4.562-3.932-8.312-5.552c-2.52-1.108-7.59-2.25-9.84-2.25h-1.38L678.21,504.66z" style="stroke:black;fill:#BFDAE3"/><path id="180623552" parent_id="180608862" order="82" structure_id="1" d="M708.3,443.19   c-4.2,7.438-8.91,15.688-10.41,18.3c-1.528,2.608-2.79,4.95-2.79,5.188c0,0.602,0.45,0.54,3.48-0.479   c6.24-2.13,15.09-2.82,19.979-1.53c2.132,0.54,2.461,0.57,3.57,0.18c0.69-0.238,1.5-0.448,1.83-0.448c0.99,0,0.96-0.842-0.09-1.71   c-2.01-1.71-3.9-7.29-5.04-14.972c-0.69-4.47-1.23-10.858-1.23-14.37c0-2.43-0.448-3.75-1.29-3.75   C716.1,429.6,712.5,435.72,708.3,443.19z" style="stroke:black;fill:#BFDAE3"/><path id="180623552" parent_id="180608862" order="83" structure_id="1" d="M771.21,461.28   c-3.03,1.979-9.21,3.778-14.94,4.35c-4.47,0.42-15.18,0.18-19.618-0.479c-7.32-1.052-9.812-1.2-12.45-0.66   c-3.57,0.688-5.34,1.71-8.07,4.59c-4.32,4.53-5.82,9.18-4.17,12.78c0.99,2.158,3.18,4.29,5.43,5.34   c1.021,0.479,3.48,1.229,5.46,1.648c1.98,0.45,5.012,1.262,6.75,1.802c1.74,0.568,3.69,1.108,4.32,1.198   c1.44,0.24,3.09,1.771,3.36,3.12c0.12,0.511,0.358,0.932,0.54,0.932c0.18-0.03,0.81-0.632,1.38-1.382   c1.89-2.46,6.688-6.75,9.898-8.88c3.392-2.25,7.95-4.56,11.102-5.64c1.41-0.48,2.28-1.021,3.09-1.89c1.29-1.41,3.51-5.7,3.51-6.87   c0-1.142,1.2-2.67,2.7-3.45c1.23-0.66,1.47-0.96,2.64-3.601C773.82,460.44,773.58,459.72,771.21,461.28z" style="stroke:black;fill:#BFDAE3"/><path id="180623552" parent_id="180608862" order="84" structure_id="1" d="M545.1,550.83c0,0.18,0.602,0.99,1.352,1.83   c2.85,3.148,3.72,6.27,3.75,13.05c0,3.21,0.06,3.69,0.479,3.69c1.11,0,7.142,2.25,10.771,4.05c4.53,2.22,8.55,4.8,11.16,7.17   c0.988,0.93,1.948,1.68,2.1,1.68c0.12,0,0.24-1.38,0.24-3.06c0-3.45,0.33-4.352,2.58-7.32c0.66-0.84,1.17-1.68,1.17-1.83   c0-1.05-6.51-5.67-14.102-9.99c-5.58-3.18-18.238-9.6-18.96-9.6C545.34,550.5,545.1,550.65,545.1,550.83z" style="stroke:black;fill:#BFDAE3"/><path id="180623552" parent_id="180608862" order="85" structure_id="1" d="M548.64,556.08c-1.26-2.61-4.318-5.94-6.3-6.87c-0.757-0.358-1.541-0.518-2.34-0.493v27.74   c1.71,0,3.42,0.338,5.79,1.013c1.95,0.54,3.63,0.9,3.75,0.812c0.09-0.12,0.18-4.62,0.21-10.021v-9.81L548.64,556.08z" style="stroke:black;fill:#BFDAE3"/><path id="180623552" parent_id="180608862" order="86" structure_id="1" d="M732.9,380.76   c-0.21,0.72-0.631,1.77-0.99,2.34c-1.11,1.86-4.771,6.99-6.12,8.61l-1.29,1.56l1.021,6.24c1.079,6.392,2.069,13.38,2.431,16.95   c0.12,1.26,0.33,2.04,0.54,2.04s0.75-0.75,1.229-1.65c1.051-2.04,4.2-5.46,6.091-6.688c1.5-0.96,2.431-1.23,9.091-2.79   c7.59-1.771,13.979-4.352,18.448-7.41c3.03-2.07,3-2.28-0.72-5.85c-3.42-3.27-7.8-6.3-12.898-8.88   c-5.341-2.7-11.461-4.95-15.24-5.58l-1.26-0.21L732.9,380.76z" style="stroke:black;fill:#BFDAE3"/><path id="180623552" parent_id="180608862" order="87" structure_id="1" d="M723.15,394.5c-1.23,1.35-5.102,3-7.052,3   c-0.778,0-0.84,0.12-1.29,2.31c-2.488,11.79-2.488,20.61,0,26.852c0.69,1.71,1.29,1.47,1.29-0.45c0-2.4,0.722-4.5,1.95-5.55   c1.352-1.2,3.78-1.74,5.91-1.29c1.53,0.36,3.24,1.17,3.24,1.59c0,0.12,0.21,0.24,0.45,0.24c0.27,0,0.448-0.271,0.448-0.75   c0-1.71-0.96-9.96-1.83-15.45C724.5,393.45,724.41,393.12,723.15,394.5z" style="stroke:black;fill:#BFDAE3"/><path id="180623552" parent_id="180608862" order="88" structure_id="1" d="M765.45,398.4   c-0.12,0.18-1.23,0.988-2.49,1.858c-4.77,3.21-11.58,5.82-20.67,7.86c-2.49,0.57-5.13,1.35-5.82,1.71   c-2.608,1.32-6.21,5.46-7.56,8.76c-0.69,1.59-0.48,9.3,0.359,14.312c1.079,6.63,1.619,12.568,1.681,19.318l0.06,6.57l0.722,0.39   c1.198,0.602,5.88,1.86,9.118,2.432c4.23,0.72,16.711,0.72,19.921,0c9.421-2.13,15.511-10.65,17.159-24.03   c0.512-4.14,0.182-12.03-0.63-15.93c-1.438-6.842-4.41-13.771-8.58-20.04C766.53,398.31,765.9,397.68,765.45,398.4z" style="stroke:black;fill:#BFDAE3"/><path id="180623552" parent_id="180608862" order="89" structure_id="1" d="M669.54,500.7   c-5.28,0.93-11.16,4.5-17.22,10.41c-1.5,1.438-4.472,4.738-6.63,7.29c-4.262,5.1-5.882,6.72-7.922,7.89   c-0.72,0.42-5.1,2.31-9.72,4.2c-9.479,3.87-9.568,3.93-19.5,8.67c-12.479,6-17.79,7.68-24.75,7.95c-5.28,0.18-9.54-0.42-12.27-1.74   c-5.67-2.79-11.34-11.07-16.53-24.062c-2.13-5.34-2.58-6.09-3.54-5.789c-1.38,0.449-4.979,6.479-6.33,10.681   c-1.71,5.34-5.1,21.358-4.56,21.54c0.18,0.06,0.33,0.27,0.33,0.45c0,0.21,1.528,1.02,3.39,1.829   c11.22,4.891,28.38,14.609,32.79,18.601c0.87,0.75,1.649,1.38,1.77,1.38s2.25-1.8,4.771-3.99   c15.03-13.229,34.35-28.229,39.99-31.08c4.979-2.488,10.8-3.688,18.42-3.81l5.58-0.062l5.37-5.46   c8.13-8.25,16.078-15.39,22.71-20.34c1.438-1.08,2.608-2.13,2.608-2.31c0-0.48-1.2-1.26-2.7-1.8   C674.01,500.58,671.25,500.37,669.54,500.7z" style="stroke:black;fill:#BFDAE3"/><path id="180623552" parent_id="180608862" order="90" structure_id="1" d="M763.95,291.96   c-2.49,1.32-5.76,4.68-6.96,7.14c-1.562,3.21-1.892,6.51-0.99,9.9l0.3,1.11l3.66,0.18c9.81,0.51,22.95,4.05,32.49,8.76   c10.56,5.22,19.05,11.52,29.398,21.9c8.67,8.67,14.521,15.96,19.44,24.18c8.67,14.52,14.4,31.53,16.59,49.47   c0.63,5.25,0.87,16.802,0.45,22.92c-1.26,18.24-4.68,29.82-15.48,51.962c-4.68,9.63-10.17,19.318-14.88,26.278   c-0.66,0.932-1.17,1.86-1.17,2.01c0,0.69,4.92,0.212,9.45-0.93c4.95-1.229,9.42-3.72,12.09-6.72c1.05-1.17,2.46-3.57,4.8-8.16   C863.7,481.2,869.19,463.5,870.9,444.75c0.42-4.59,0.42-16.35,0-21c-1.682-18.39-7.17-36.72-17.94-59.7   c-11.25-24.06-25.229-41.4-42.66-53.01c-5.52-3.66-14.52-8.04-22.05-10.77c-10.26-3.69-16.38-6.33-19.53-8.49   C767.22,290.76,766.14,290.82,763.95,291.96z" style="stroke:black;fill:#BFDAE3"/><path id="180623552" parent_id="180608862" order="91" structure_id="1" d="M772.47,254.07   c-1.648,0.33-2.97,1.29-5.55,3.99c-4.89,5.1-7.8,10.92-8.37,16.65c-0.24,2.49,0.03,2.76,1.352,1.38   c1.408-1.47,4.979-2.67,10.35-3.45c3.99-0.57,16.95-0.48,21.9,0.18c9.21,1.2,15.238,2.88,21.6,5.97   c17.76,8.67,34.979,25.38,51,49.56c16.38,24.69,26.1,49.02,30.87,77.28c2.188,12.87,2.43,15.75,2.43,28.021   c-0.03,11.818-0.24,15.028-1.8,24.72c-1.35,8.22-3,14.729-5.4,21.33c-4.47,12.18-13.29,30.029-19.83,40.14   c-1.71,2.61-1.948,3.36-1.108,3.36c0.898,0,12.84-12.602,18.63-19.71c5.79-7.08,5.49-6.48,7.68-15.12   c6.36-25.17,8.852-46.17,7.98-67.62c-0.602-14.91-2.852-26.79-8.16-43.05c-5.4-16.53-12.33-31.32-23.13-49.35   c-18.3-30.51-30.84-42.39-62.58-59.25c-8.46-4.5-22.11-11.19-25.83-12.66C779.25,254.37,775.05,253.53,772.47,254.07z" style="stroke:black;fill:#BFDAE3"/><path id="180623552" parent_id="180608862" order="92" structure_id="1" d="M774.9,278.88c-0.9,0.09-4.11,0.42-7.11,0.75   c-5.16,0.57-7.38,0.54-7.771-0.06c-0.091-0.15-0.359-0.27-0.631-0.27c-1.108,0,0.512,4.2,2.61,6.69   c4.08,4.98,10.47,8.49,24.42,13.53c17.67,6.39,27.57,12.51,39.36,24.3c6.06,6.09,10.26,11.25,15.27,18.78   c4.59,6.93,6.96,11.1,10.682,18.75c18.568,38.25,23.608,67.708,16.92,99.03c-2.882,13.38-7.711,26.4-15.392,41.521l-3.42,6.75   l0.21,2.85c0.392,5.61,1.38,9.3,3.84,14.46c1.682,3.6,2.28,4.021,2.852,2.1c0.45-1.528,3.96-6.778,10.26-15.51   c14.61-20.13,17.311-25.318,21.09-40.5c5.431-21.688,6.57-37.56,4.08-57.45c-2.76-22.2-9.96-44.43-22.32-68.85   c-9.028-17.85-17.368-29.91-28.35-40.95c-7.35-7.41-13.05-11.85-19.8-15.42c-9.24-4.86-20.91-8.4-32.73-9.93   C785.34,279,777.69,278.67,774.9,278.88z" style="stroke:black;fill:#BFDAE3"/><path id="180623552" parent_id="180608862" order="93" structure_id="1" d="M774.9,278.88c-0.9,0.09-4.11,0.42-7.11,0.75   c-5.16,0.57-7.38,0.54-7.771-0.06c-0.091-0.15-0.359-0.27-0.631-0.27c-1.108,0,0.512,4.2,2.61,6.69   c4.08,4.98,10.47,8.49,24.42,13.53c17.67,6.39,27.57,12.51,39.36,24.3c6.06,6.09,10.26,11.25,15.27,18.78   c4.59,6.93,6.96,11.1,10.682,18.75c18.568,38.25,23.608,67.708,16.92,99.03c-2.882,13.38-7.711,26.4-15.392,41.521l-3.42,6.75   l0.21,2.85c0.392,5.61,1.38,9.3,3.84,14.46c1.682,3.6,2.28,4.021,2.852,2.1c0.45-1.528,3.96-6.778,10.26-15.51   c14.61-20.13,17.311-25.318,21.09-40.5c5.431-21.688,6.57-37.56,4.08-57.45c-2.76-22.2-9.96-44.43-22.32-68.85   c-9.028-17.85-17.368-29.91-28.35-40.95c-7.35-7.41-13.05-11.85-19.8-15.42c-9.24-4.86-20.91-8.4-32.73-9.93   C785.34,279,777.69,278.67,774.9,278.88z" style="stroke:black;fill:#BFDAE3"/><path id="180623552" parent_id="180608862" order="94" structure_id="1" d="M546.12,457.23l-1.26,0.3l-0.15,10.41   c-0.12,8.25-0.24,10.858-0.63,12.63c-0.3,1.198-0.45,2.25-0.36,2.34c0.062,0.09,0.87-0.062,1.74-0.33c3.24-0.93,6.54-4.05,9.21-8.7   c1.771-3.12,5.73-11.85,5.73-12.66c0-1.02-2.19-2.729-4.5-3.45C553.65,457.05,548.1,456.75,546.12,457.23z" style="stroke:black;fill:#BFDAE3"/><path id="180623552" parent_id="180608862" order="95" structure_id="1" d="M719.4,607.38c0,0.72,2.158,4.95,3.75,7.32   c5.01,7.56,12.238,13.29,21.358,16.979l2.58,1.021l8.49-2.91c5.76-1.979,8.49-3.06,8.46-3.33c-0.06-0.21-2.25-1.11-4.89-2.01   c-4.65-1.53-15.36-5.73-19.352-7.562c-4.17-1.92-7.08-5.01-7.83-8.34l-0.358-1.648h-6.12C720.06,606.9,719.4,606.96,719.4,607.38z" style="stroke:black;fill:#BFDAE3"/><path id="180623552" parent_id="180608862" order="96" structure_id="1" d="M890.22,501.51   c-5.31,6.722-14.43,16.562-23.489,25.29c-5.579,5.4-6.931,6.33-8.489,5.67c-0.48-0.21-1.08-0.688-1.352-1.08   c-0.84-1.29-1.38-0.87-4.08,3.33c-9.448,14.49-21.568,27.3-31.198,32.94c-3.69,2.16-10.95,5.01-16.29,6.39   c-4.98,1.29-8.49,1.62-20.102,1.92c-11.79,0.33-14.398,0.57-20.67,2.102c-12.569,3.06-23.34,9.6-28.59,17.34   c-2.46,3.63-3.96,7.438-3.96,10.108v1.172l17.34-0.182c15.87-0.18,24.271-0.45,32.82-0.99c2.97-0.18,3.21-0.238,3.358-0.868   c0.512-1.98,2.312-3.092,6.632-4.052c1.648-0.358,4.56-0.988,6.448-1.408c16.95-3.75,33.302-11.19,45.062-20.552   c3.63-2.88,11.97-11.01,16.108-15.688c12.54-14.13,21.842-30.182,29.102-50.04c1.83-4.98,4.229-12.63,4.229-13.44   C893.1,498.36,892.26,498.93,890.22,501.51z" style="stroke:black;fill:#BFDAE3"/><path id="180623552" parent_id="180608862" order="97" structure_id="1" d="M729.81,492.72   c-2.22,0.932-4.38,2.61-7.318,5.67c-6.392,6.66-11.852,15.99-14.76,25.08c-0.812,2.58-2.4,7.5-3.48,10.98   c-4.44,13.95-7.53,19.56-13.92,25.319c-6.96,6.239-16.229,12.029-27.12,16.949c-10.38,4.682-37.74,16.38-44.31,18.932   c-11.04,4.29-19.92,6.568-23.521,6.028c-0.78-0.12-2.37-0.72-3.569-1.35c-4.171-2.19-6.149-2.61-6.631-1.35   c-0.3,0.778,0.96,4.14,2.28,6.148c1.41,2.102,3.48,3.75,6.42,5.13l2.07,0.99l6.148-0.03c8.28,0,16.592-1.2,27.15-3.93   c14.07-3.6,29.4-10.98,43.8-21.09c1.83-1.261,6.75-4.38,10.95-6.9c13.26-7.92,15-9.33,17.82-14.31   c1.979-3.511,7.02-14.04,9.93-20.79c2.4-5.58,4.29-9.21,6.75-12.9c0.99-1.5,1.8-3.06,1.8-3.45c0-1.14,1.65-5.369,2.7-6.869   c1.29-1.891,2.04-2.341,3.48-2.101l1.17,0.18l0.988-2.068c0.512-1.11,1.142-2.91,1.38-3.99c0.962-4.29,3.302-9.84,5.91-13.98   c0.96-1.5,1.17-2.1,1.17-3.358c0-1.29-0.148-1.71-0.869-2.521c-0.75-0.87-1.051-0.96-2.761-1.05   C731.94,492,731.19,492.15,729.81,492.72z" style="stroke:black;fill:#BFDAE3"/><path id="180623552" parent_id="180608862" order="98" structure_id="1" d="M878.4,619.38   c-7.352,3.271-20.7,6.87-31.53,8.49c-20.34,3.09-49.23,4.2-62.37,2.46c-5.22-0.72-12.33-2.07-16.38-3.15l-2.7-0.72l-8.37,2.88   c-5.58,1.95-8.43,3.062-8.49,3.36c-0.148,0.81,9.632,3.3,19.29,4.92c20.521,3.45,45.87,5.13,61.802,4.08   c19.858-1.32,38.158-5.61,54.988-12.96c1.771-0.78,2.762-1.38,2.7-1.62c-0.06-0.24-1.56-2.16-3.39-4.32   C880.44,618.66,880.29,618.54,878.4,619.38z" style="stroke:black;fill:#BFDAE3"/><path id="180623552" parent_id="180608862" order="99" structure_id="1" d="M639.66,191.4c-2.91,0.63-4.32,2.07-4.5,4.77   c-0.18,2.28,0.33,3.99,3.18,10.68c2.43,5.73,10.5,22.17,12.78,25.98c4.74,8.01,19.95,16.2,32.97,17.7   c5.43,0.63,12.87-0.21,24.36-2.76c17.43-3.9,23.88-4.77,35.068-4.77c6.392,0,12,0.36,18.632,1.23c7.738,1.02,7.648,0.99,7.648,0.51   c0-0.33-1.74-0.99-5.91-2.28c-19.738-6.09-45.54-12.45-64.14-15.78c-3.3-0.6-6.66-1.2-7.5-1.35c-1.47-0.3-1.47-0.3,0.45-0.15   c6.75,0.57,32.64,6.21,50.88,11.07c42.66,11.43,73.05,24.33,93.569,39.75c11.971,9,21.54,19.41,32.011,34.8   c22.17,32.58,33.66,63.21,37.59,100.352c0.66,6.148,0.93,23.55,0.479,30.898c-1.381,22.38-5.489,44.73-11.789,64.05   c-3.211,9.842-5.132,14.342-10.44,24.15c-10.47,19.47-16.71,28.68-26.49,39.09c-18.21,19.44-42.66,31.74-71.37,35.91   c-1.648,0.24-1.858,0.75-0.63,1.56c1.352,0.87,7.352,0.722,11.94-0.328c8.91-2.07,20.79-6.48,30.6-11.432   c17.79-8.91,33.812-24.12,47.7-45.148c8.22-12.45,14.67-24.722,18.75-35.7c9.12-24.36,13.979-49.891,16.56-86.852   c0.512-7.26,0.512-26.46,0-31.5c-2.729-26.97-10.5-50.37-25.38-76.44c-9.989-17.49-15.358-24.72-26.698-36.06   c-9.512-9.48-19.23-17.37-31.08-25.2c-22.711-15.03-39.211-21.57-112.62-44.55c-23.341-7.29-40.32-12.72-56.49-18.03   c-5.46-1.8-10.8-3.48-11.88-3.72C645.45,191.28,641.31,191.04,639.66,191.4z" style="stroke:black;fill:#BFDAE3"/><path id="180623552" parent_id="180608862" order="100" structure_id="1" d="M639.66,191.4c-2.91,0.63-4.32,2.07-4.5,4.77   c-0.18,2.28,0.33,3.99,3.18,10.68c2.43,5.73,10.5,22.17,12.78,25.98c4.74,8.01,19.95,16.2,32.97,17.7   c5.43,0.63,12.87-0.21,24.36-2.76c17.43-3.9,23.88-4.77,35.068-4.77c6.392,0,12,0.36,18.632,1.23c7.738,1.02,7.648,0.99,7.648,0.51   c0-0.33-1.74-0.99-5.91-2.28c-19.738-6.09-45.54-12.45-64.14-15.78c-3.3-0.6-6.66-1.2-7.5-1.35c-1.47-0.3-1.47-0.3,0.45-0.15   c6.75,0.57,32.64,6.21,50.88,11.07c42.66,11.43,73.05,24.33,93.569,39.75c11.971,9,21.54,19.41,32.011,34.8   c22.17,32.58,33.66,63.21,37.59,100.352c0.66,6.148,0.93,23.55,0.479,30.898c-1.381,22.38-5.489,44.73-11.789,64.05   c-3.211,9.842-5.132,14.342-10.44,24.15c-10.47,19.47-16.71,28.68-26.49,39.09c-18.21,19.44-42.66,31.74-71.37,35.91   c-1.648,0.24-1.858,0.75-0.63,1.56c1.352,0.87,7.352,0.722,11.94-0.328c8.91-2.07,20.79-6.48,30.6-11.432   c17.79-8.91,33.812-24.12,47.7-45.148c8.22-12.45,14.67-24.722,18.75-35.7c9.12-24.36,13.979-49.891,16.56-86.852   c0.512-7.26,0.512-26.46,0-31.5c-2.729-26.97-10.5-50.37-25.38-76.44c-9.989-17.49-15.358-24.72-26.698-36.06   c-9.512-9.48-19.23-17.37-31.08-25.2c-22.711-15.03-39.211-21.57-112.62-44.55c-23.341-7.29-40.32-12.72-56.49-18.03   c-5.46-1.8-10.8-3.48-11.88-3.72C645.45,191.28,641.31,191.04,639.66,191.4z" style="stroke:black;fill:#BFDAE3"/><path id="180623552" parent_id="180608862" order="101" structure_id="1" d="M751.05,310.95   c-1.318,0.21-5.31,0.81-8.85,1.35c-10.83,1.62-14.82,2.94-17.642,5.79c-2.818,2.88-3.868,6.21-3.568,11.1   c0.21,3.3,0.93,6.18,2.79,10.92c3.45,8.94,9.778,20.37,17.46,31.56c1.92,2.79,2.88,3.9,3.87,4.5c6.51,3.87,13.29,8.64,17.43,12.3   c7.86,6.93,14.82,18.99,17.91,31.049c1.41,5.521,1.77,8.939,1.56,14.551c-0.21,5.43-0.778,8.64-2.818,15.449   c-1.142,3.869-1.32,4.859-1.052,5.311c0.54,0.87,0.42,1.8-0.42,3.51c-0.778,1.562-2.46,3.062-3.45,3.062   c-0.328,0-0.898,0.93-1.738,2.698c-0.66,1.5-1.23,2.82-1.23,2.94s0.271,0.45,0.602,0.75c0.81,0.69,0.75,1.771-0.15,2.85   c-0.9,1.08-2.91,1.921-3.9,1.682c-0.63-0.15-0.81,0.028-1.8,2.04c-0.63,1.199-1.62,2.85-2.22,3.688c-0.6,0.812-2.34,3.99-3.84,7.05   c-2.852,5.79-4.95,9.271-7.17,11.91c-0.78,0.9-3.932,3.48-7.562,6.12c-6.778,4.98-9.18,6.87-12.75,9.812   c-1.89,1.59-2.55,2.398-3.659,4.438c-0.899,1.62-1.351,2.82-1.351,3.54c0,2.79-4.59,8.58-6.81,8.58c-0.57,0-1.08,0.57-2.49,2.76   c-4.26,6.57-7.29,14.222-8.97,22.59c-1.381,6.9-1.591,14.79-0.48,17.94c1.62,4.5,7.681,5.37,14.7,2.13   c0.66-0.33,3.03-1.95,5.25-3.6c7.8-5.852,13.8-9.602,20.729-13.021c5.82-2.85,9.24-3.989,18.421-6.148   c19.829-4.62,30.271-7.801,37.439-11.432c4.32-2.188,5.88-3.449,9.75-7.92c3.33-3.87,10.44-13.14,10.8-14.1   c0.09-0.24,0.271-0.51,0.392-0.602c0.39-0.3,5.909-8.908,8.039-12.539c6.659-11.489,13.859-26.579,17.58-36.811   c2.851-7.92,4.71-15.689,5.761-24.15c0.659-5.52,0.779-24.988,0.148-30c-2.369-19.108-8.31-36.33-17.818-51.6   c-8.28-13.29-24.301-29.55-38.04-38.55c-9.091-5.97-17.58-9.45-29.94-12.27C764.7,310.5,756.66,310.05,751.05,310.95z M748.5,328.2   c3.21,0.63,8.97,1.65,12.75,2.25c14.49,2.28,17.52,2.91,21.6,4.56c3.9,1.56,13.562,6.27,17.4,8.46c6.84,3.9,11.67,8.31,14.43,13.11   c3.36,5.85,4.32,7.08,9.302,11.97c5.52,5.46,7.02,7.53,10.89,15.15c8.25,16.2,10.05,24.27,10.05,45c0,10.89-0.3,15.479-1.5,22.5   c-1.229,7.229-3.57,13.438-7.2,19.02c-2.43,3.75-3.51,6.062-5.85,12.57c-3.42,9.51-6.45,14.55-12.57,21.03   c-2.1,2.25-13.83,12.778-17.25,15.51c-2.91,2.34-6.029,4.29-9.24,5.82c-3.358,1.59-5.608,2.34-12.81,4.35   c-3.06,0.84-8.13,2.37-11.28,3.45c-14.068,4.71-21.42,8.729-30.72,16.8c-2.97,2.58-5.04,4.11-6.54,4.86   c-3.45,1.71-6.51,1.68-8.189-0.092c-0.931-0.988-0.931-2.97,0-5.068c1.5-3.392,8.431-12.63,13.141-17.58   c3.3-3.45,5.49-4.98,12.09-8.37c3.21-1.68,7.08-3.9,8.55-4.95c7.771-5.52,16.471-16.14,21.45-26.1c1.5-3,3.18-5.82,4.44-7.5   c12.3-16.23,14.488-19.261,16.05-22.29c5.729-11.102,7.109-25.23,3.93-40.29c-3.39-16.08-12.18-32.91-22.859-43.74   c-5.67-5.73-8.489-7.47-16.739-10.23c-5.94-2.04-7.32-2.7-8.88-4.44c-1.44-1.59-2.25-3.93-2.972-8.46   c-1.738-10.83-2.278-12.24-6.72-17.25c-4.77-5.4-6.21-8.01-5.52-9.99C738.36,326.43,739.41,326.4,748.5,328.2z" style="stroke:black;fill:#BFDAE3"/></g></g></svg>
