<svg xmlns="http://www.w3.org/2000/svg" width="3024px" height="3024px"><g transform="scale(1.0)"><g id="180608862" order="1" parent_id="" graphic_group_label_id="28" graphic_group_label="Atlas - Adult Rat" sub_image_id="100960468" transform=" scale(1.0, 1.0)"><path id="180623552" parent_id="180608862" order="0" structure_id="1" d="M834.57,270.33c-3.36-19.92-16.471-50.97-29.16-69.09c-4.44-6.33-7.471-9.9-13.561-16.021   c-8.069-8.1-13.709-12.54-25.649-20.25c-31.32-20.16-66.15-33.06-101.25-37.47c-29.91-3.75-51.66-2.22-69.12,4.86   c-13.38,5.399-25.59,13.71-36.18,24.569c-4.471,4.59-8.19,9.3-10.352,13.05c-3.81,6.69-7.71,18.66-8.58,26.43   c-0.126,1.133-0.357,1.771-0.596,1.874l-0.12,211.3c0.054-0.052,0.109-0.084,0.177-0.084c0.329,0,0.42,0.48,0.42,2.01   c0,1.141,0.42,4.021,0.931,6.48c0.51,2.46,0.84,4.528,0.75,4.619c-0.091,0.121-0.69,0.029-1.351-0.209   c-0.382-0.123-0.675-0.183-0.935-0.196l-0.003,5.514c0.643-0.016,1.359-0.304,2.167-0.878c0.271-0.21,0.63-0.27,0.75-0.12   c0.12,0.12,0.239,4.29,0.239,9.271v9.06l-0.961,3.9c-0.539,2.13-1.14,5.16-1.35,6.66c-0.253,1.871-0.582,2.861-0.863,2.812   l-0.012,19.173c0.307-0.056,0.654,0.646,0.905,2.016c0.81,4.5,3.72,11.699,6.569,16.38c0.689,1.108,1.261,2.16,1.261,2.31   c0,0.182-0.39,0.3-0.841,0.3c-1.561,0-2.431,1.771-1.379,2.82c0.898,0.9,2.22,0.392,2.67-1.02c0.3-0.962,0.81-0.69,2.398,1.409   c2.13,2.819,7.32,7.979,10.65,10.649c8.22,6.51,16.38,10.771,26.46,13.71c23.79,6.96,55.35,7.17,87.84,0.63   c31.649-6.39,52.41-19.26,69.358-43.05c3.602-5.04,5.102-7.53,6.602-11.01c3.54-8.221,3.36-15-0.54-21   c-0.3-0.45-0.45-0.9-0.33-1.021s1.38,0.092,2.851,0.42c8.011,1.98,15.091-0.358,22.051-7.29c5.82-5.818,15.75-19.14,21.869-29.398   c10.711-17.97,19.08-37.47,27.121-63.3c4.83-15.48,8.91-35.7,10.35-51.15C836.609,291.36,836.13,279.48,834.57,270.33z" style="stroke:black;fill:#BFDAE3"/><path id="180623552" parent_id="180608862" order="1" structure_id="1" d="M685.83,317.58   c-0.42,0.57-1.32,1.59-2.04,2.189c-0.72,0.631-1.29,1.319-1.29,1.5s1.2,2.069,2.641,4.17c3.959,5.671,11.521,17.041,31.261,47.011   c30.569,46.38,45.75,69.09,51.06,76.35c0.36,0.511,0.69,0.63,1.229,0.48c1.201-0.3,4.262-2.49,6.842-4.892   c3.329-3.148,14.97-17.67,14.97-18.688c0-0.24-4.021-4.47-8.938-9.42c-12.842-12.99-27-27.9-65.012-68.432   c-27.6-29.43-29.398-31.35-29.729-31.35C686.67,316.5,686.22,316.98,685.83,317.58z" style="stroke:black;fill:#BFDAE3"/><path id="180623552" parent_id="180608862" order="2" structure_id="1" d="M687.9,303.6c0,0.15,0.33,0.78,0.75,1.38   c1.199,1.77,0.898,4.95-0.932,9.331l-0.779,1.891l1.739,1.89c3.841,4.142,52.052,55.472,59.521,63.36   c25.47,26.91,41.79,43.648,42.6,43.648c0.24,0,1.62-1.8,3.03-3.988c8.1-12.45,16.08-28.2,22.47-44.312   c2.46-6.239,5.851-15.84,5.67-16.02c-1.11-0.96-78.51-34.682-110.52-48.12C689.7,303.51,687.9,302.82,687.9,303.6z" style="stroke:black;fill:#BFDAE3"/><path id="180623552" parent_id="180608862" order="3" structure_id="1" d="M679.38,297.24c-0.42,1.26-0.78,2.4-0.78,2.52   c0,0.09,0.631,0.271,1.44,0.39c0.78,0.12,3.03,0.81,5.01,1.56c16.44,6.24,100.71,42.479,134.49,57.84   c1.351,0.63,2.521,1.08,2.58,1.021c0.18-0.21,4.649-14.79,5.58-18.12c1.38-5.04,3.18-13.021,4.319-19.11   c0.989-5.22,2.881-17.34,2.881-18.48c0-0.48-0.812-0.6-8.91-1.2c-59.19-4.5-128.1-8.76-141.87-8.76h-3.931L679.38,297.24z" style="stroke:black;fill:#BFDAE3"/><path id="180623552" parent_id="180608862" order="4" structure_id="1" d="M665.58,128.61   c-0.54,1.77-6.6,33.96-11.1,58.89c-5.7,31.5-9.182,52.14-9.271,55.14l-0.061,1.59l3.301,0.87c9.779,2.49,17.64,6.51,23.22,11.85   c5.79,5.55,8.312,10.59,9.54,19.2c0.57,3.99,0.391,12.33-0.359,15.6c-0.24,1.14-0.449,2.25-0.449,2.43c0,0.24,1.77,0.42,5.789,0.54   c25.109,0.87,96.121,5.312,141.061,8.88c4.109,0.33,7.561,0.48,7.68,0.36c0.48-0.51,0.961-11.22,0.78-17.43   c-0.45-15.51-3.12-27.57-10.021-45.03c-12.84-32.52-26.159-51.69-46.83-67.44c-3.931-3-13.799-9.57-19.561-13.02   c-27.689-16.62-57.18-27.45-87.449-32.19C666.12,127.95,665.79,127.95,665.58,128.61z" style="stroke:black;fill:#BFDAE3"/><path id="180623552" parent_id="180608862" order="5" structure_id="1111022260200000" d="M624.3,126.33   c-13.649,1.11-24.479,4.05-35.7,9.69c-9.42,4.71-17.25,10.2-25.47,17.82c-3.51,3.271-8.729,9-8.729,9.6   c0,0.57,0.359,0.93,32.851,34.74C626.82,239.4,633.27,246,633.9,246c0.3,0,1.47-0.36,2.58-0.78c1.56-0.6,2.818-0.84,5.129-0.96   c3.511-0.15,3.091,0.3,3.689-4.11c1.62-11.73,12-69.84,17.58-98.55c2.67-13.62,2.641-13.47,2.49-13.62   c-0.182-0.18-12.21-1.35-17.22-1.68C642.811,125.97,628.77,125.97,624.3,126.33z" style="stroke:black;fill:#1F9D5A"/><path id="180623552" parent_id="180608862" order="6" structure_id="1" d="M551.22,167.55   c-3.479,5.25-6.27,11.91-8.37,20.13C540.66,196.17,540,204,540,222.06V234l0.689,0.12c0.359,0.09,3.091,0.63,6.061,1.23   c24.78,4.95,59.13,14.19,75.27,20.28c2.131,0.81,4.052,1.47,4.23,1.47s0.99-1.5,1.8-3.36c1.23-2.82,1.74-3.63,3.36-5.28   c1.02-1.05,1.89-2.07,1.89-2.22c0-0.15-2.61-2.94-5.79-6.18c-5.31-5.43-25.35-26.28-52.83-54.96c-14.608-15.24-20.31-21-20.76-21   C553.71,164.1,552.48,165.66,551.22,167.55z" style="stroke:black;fill:#BFDAE3"/><path id="180623552" parent_id="180608862" order="7" structure_id="1111022190000000" d="M540,294.75v60.42l10.891-0.18   c10.379-0.15,40.709,0.33,43.859,0.688l1.5,0.182l2.82-10.44c8.34-30.93,15.42-55.86,18.33-64.47c1.17-3.48,3.63-10.05,5.459-14.61   c1.801-4.59,3.24-8.52,3.149-8.73c-0.42-1.08-17.85-6.87-34.26-11.34c-16.62-4.56-48.45-11.97-51.3-11.97   C540.061,234.3,540,241.32,540,294.75z" style="stroke:black;fill:#2FA850"/><path id="180623552" parent_id="180608862" order="8" structure_id="1" d="M540.84,355.41l-0.84,0.12v19.739v19.739   l20.34,0.181c11.16,0.121,22.08,0.121,24.271,0l3.931-0.181l0.21-2.729c0.63-8.642,2.521-19.11,4.859-27.15   c2.311-7.95,2.58-9.03,2.461-9.18C595.53,355.439,544.02,354.93,540.84,355.41z" style="stroke:black;fill:#BFDAE3"/><path id="180623552" parent_id="180608862" order="9" structure_id="1" d="M621.66,473.1   c-3.66,4.2-11.311,8.19-19.801,10.32c-3.869,0.99-8.159,1.68-10.47,1.68c-1.079,0-1.891,0.12-1.891,0.302   c0,0.18,0.6,1.5,1.319,2.938c1.801,3.6,3.75,9.45,3.99,11.971c0.181,2.011,0.209,2.069,2.189,4.17   c5.37,5.699,7.08,10.801,4.32,12.989c-0.392,0.3-0.722,0.69-0.722,0.87c0,0.57,3.962,0.812,13.2,0.812   c9.9,0,13.08-0.302,19.65-1.86c5.52-1.29,12.869-4.08,13.229-5.04c0.09-0.21-0.119-0.811-0.479-1.29   c-1.021-1.38-0.721-2.46,0.869-3.271c3-1.529,5.699-7.409,5.729-12.421c0-4.14-1.62-8.459-5.159-13.858   c-1.801-2.7-2.25-3.21-2.761-3.09c-0.36,0.09-1.59,0.3-2.79,0.51c-4.92,0.81-11.07-1.32-16.8-5.79   c-1.05-0.78-1.979-1.439-2.101-1.439C623.04,471.63,622.38,472.29,621.66,473.1z" style="stroke:black;fill:#BFDAE3"/><path id="180623552" parent_id="180608862" order="10" structure_id="1111222020102500" d="M604.8,454.71   c-13.53,2.521-24.84,7.41-31.26,13.59c-2.58,2.46-2.64,3-0.39,3c2.91,0,4.739,1.38,6.18,4.65c0.51,1.17,0.6,1.77,0.45,3.148   l-0.21,1.682l1.77,0.54c2.221,0.66,4.561,1.739,6.27,2.88c1.5,1.02,2.312,1.08,6.392,0.6c8.79-1.11,17.28-3.989,22.92-7.77   c2.58-1.74,5.88-4.892,5.88-5.58c0-0.24-0.39-0.99-0.87-1.681c-1.71-2.341-1.948-7.021-0.6-11.189   c0.358-1.08,0.569-2.07,0.479-2.19c-0.121-0.09-2.131-0.3-4.471-0.42c-2.34-0.148-5.609-0.479-7.29-0.75   C606.03,454.561,605.67,454.53,604.8,454.71z" style="stroke:black;fill:#54BF94"/><path id="180623552" parent_id="180608862" order="11" structure_id="1" d="M543.811,438.21   c-0.149,4.021-0.359,6.45-0.811,8.49c-2.1,9.569-2.37,11.489-2.609,19.95c-0.121,4.528-0.031,6.84,0.299,9.51   c0.57,4.14,1.621,8.34,2.132,8.34c0.39,0,9.778-3.15,13.02-4.35c2.222-0.84,2.88-1.65,1.32-1.65c-1.53,0-3.45-1.23-4.2-2.7   c-0.63-1.2-0.689-1.62-0.54-3.688c0.392-5.46,5.16-15.96,11.07-24.36c2.85-4.05,8.608-11.22,9.93-12.39   c1.74-1.53,1.5-1.74-1.979-1.98c-8.58-0.568-14.221-0.78-20.521-0.78h-6.93L543.811,438.21z" style="stroke:black;fill:#BFDAE3"/><path id="180623552" parent_id="180608862" order="12" structure_id="1" d="M572.97,435.87   c-3.36,3.479-10.02,12.39-12.75,17.04c-2.34,3.96-5.34,10.26-6.45,13.59c-1.229,3.66-1.56,7.92-0.72,9.51   c0.931,1.71,2.31,2.34,5.101,2.34c2.131,0,2.671-0.119,4.709-1.108c3.182-1.5,5.041-2.88,5.041-3.722c0-0.898-0.75-1.02-4.109-0.63   c-2.82,0.33-2.88,0.33-3.42-0.358c-1.17-1.41-0.66-2.94,1.95-5.852c2.43-2.76,7.14-8.67,9.33-11.729   c3.75-5.25,6.209-11.79,6.27-16.59c0.03-2.61-0.028-2.852-0.688-3.392c-0.392-0.33-1.17-0.568-1.771-0.568   C574.561,434.4,574.141,434.64,572.97,435.87z" style="stroke:black;fill:#BFDAE3"/><path id="180623552" parent_id="180608862" order="13" structure_id="1" d="M577.2,434.49c0,0.27,0.12,0.57,0.3,0.66   c0.15,0.09,0.42,0.72,0.6,1.41c0.9,3.328-1.92,11.729-5.938,17.729c-1.802,2.64-6.812,9-9.511,12.06   c-2.311,2.61-2.551,3.062-2.551,4.802c0,1.8,0.48,1.979,4.26,1.56c2.61-0.3,2.972-0.271,3.48,0.18   c0.93,0.841,1.439,0.602,2.85-1.38c2.881-3.99,7.021-7.199,13.201-10.26c4.709-2.311,12.329-4.89,17.85-6.03l3.99-0.84l-0.181-0.81   c-0.149-0.602-0.03-0.99,0.42-1.44c0.36-0.36,0.63-0.69,0.63-0.78s-0.479-0.778-1.08-1.528c-1.979-2.61-2.34-3.602-2.369-6.54   c-0.09-4.32-0.09-4.32-13.949-7.08C578.16,434.01,577.2,433.86,577.2,434.49z" style="stroke:black;fill:#BFDAE3"/><path id="180623552" parent_id="180608862" order="14" structure_id="1" d="M577.2,434.49c0,0.27,0.12,0.57,0.3,0.66   c0.15,0.09,0.42,0.72,0.6,1.41c0.9,3.328-1.92,11.729-5.938,17.729c-1.802,2.64-6.812,9-9.511,12.06   c-2.311,2.61-2.551,3.062-2.551,4.802c0,1.8,0.48,1.979,4.26,1.56c2.61-0.3,2.972-0.271,3.48,0.18   c0.93,0.841,1.439,0.602,2.85-1.38c2.881-3.99,7.021-7.199,13.201-10.26c4.709-2.311,12.329-4.89,17.85-6.03l3.99-0.84l-0.181-0.81   c-0.149-0.602-0.03-0.99,0.42-1.44c0.36-0.36,0.63-0.69,0.63-0.78s-0.479-0.778-1.08-1.528c-1.979-2.61-2.34-3.602-2.369-6.54   c-0.09-4.32-0.09-4.32-13.949-7.08C578.16,434.01,577.2,433.86,577.2,434.49z" style="stroke:black;fill:#BFDAE3"/><path id="180623552" parent_id="180608862" order="15" structure_id="1" d="M672.9,460.11   c-9.9,0.54-15.932,0.93-16.11,1.079c-0.09,0.121,0.12,0.899,0.51,1.771c1.32,3.09,0.3,7.65-2.31,10.229   c-1.29,1.291-3.811,2.761-6.9,3.989c-1.199,0.48-2.189,1.021-2.189,1.2c0,0.182,0.841,1.561,1.83,3.061l1.859,2.729l2.28,0.21   c1.26,0.12,4.021,0.12,6.18,0.03c8.431-0.36,14.46-3.511,17.64-9.24c1.951-3.51,2.94-8.82,2.49-13.26l-0.24-2.011l-1.528,0.061   C675.54,459.99,673.98,460.05,672.9,460.11z" style="stroke:black;fill:#BFDAE3"/><path id="180623552" parent_id="180608862" order="16" structure_id="1" d="M640.05,244.38   c-4.5,0.69-8.069,2.79-10.11,5.88c-1.979,3-9.568,21.99-13.08,32.64C613.561,292.95,597,352.26,597,354.061   c0,1.109,0.811,0.449,2.46-2.101c6.81-10.41,25.2-26.82,40.38-35.97c4.29-2.61,14.76-7.71,20.16-9.84   c4.17-1.65,14.37-5.16,17.01-5.852c1.17-0.3,1.29-0.42,2.01-2.34c1.74-4.62,2.4-8.91,2.371-15.36c0-7.26-1.171-12.96-3.541-17.7   c-2.67-5.28-8.188-10.53-15-14.25C655.439,246.6,644.76,243.66,640.05,244.38z" style="stroke:black;fill:#BFDAE3"/><path id="180623552" parent_id="180608862" order="17" structure_id="1" d="M632.1,452.88   c-3.479,0.601-3.84,0.75-4.17,1.65c-0.358,1.05-1.08,1.38-3.688,1.62l-2.011,0.18l-0.449,1.26c-0.87,2.4-1.08,3.69-1.08,6.66   c0,2.52,0.119,3.24,0.72,4.5c1.62,3.51,9,8.4,14.521,9.63c3.061,0.69,7.17,0.45,10.351-0.6c3.24-1.08,6.93-3,8.43-4.41   c2.37-2.16,3.75-6.72,2.88-9.45c-0.51-1.59-2.068-3.57-3.99-5.01c-2.278-1.74-7.92-4.351-11.25-5.19   C639.57,453,633.96,452.55,632.1,452.88z" style="stroke:black;fill:#BFDAE3"/><path id="180623552" parent_id="180608862" order="18" structure_id="1" d="M611.55,449.82   c-2.069,0.479-4.56,1.5-5.31,2.188c-0.84,0.75-0.69,1.802,0.33,2.34c1.529,0.78,7.858,1.44,14.31,1.472   c4.71,0.028,6.12-0.062,6.511-0.392c0.75-0.6,0.659-2.278-0.149-3.028C625.05,450.36,615.811,448.83,611.55,449.82z" style="stroke:black;fill:#BFDAE3"/><path id="180623552" parent_id="180608862" order="19" structure_id="1520000000000000" d="M538.563,423.18   c-1.739,2.222,0.511,5.432,2.939,4.2c0.99-0.54,1.23-1.02,1.23-2.55C542.732,422.55,539.912,421.47,538.563,423.18z" style="stroke:black;fill:#BFDAE3"/><path id="180623552" parent_id="180608862" order="20" structure_id="1111222150400000" d="M679.95,322.561c-3,1.891-7.2,3.359-18.39,6.391   l-6.36,1.739l-1.05,3.329c-4.021,12.961-5.852,23.28-5.852,32.91c0,7.44,0.9,12.062,3.66,19.021   c4.439,11.16,10.8,19.47,20.398,26.609c3.69,2.761,9.121,6.239,9.722,6.239c0.21,0,0.42,0.12,0.479,0.271   c0.119,0.358,6.629,3.869,11.34,6.119c12.391,5.881,26.819,11.881,41.641,17.279c7.92,2.88,9.271,3.48,11.76,5.19   c3.9,2.64,8.971,4.05,13.65,3.75c2.908-0.18,6.75-1.2,6.75-1.8c0-0.21-1.17-1.98-2.58-3.96c-3.66-5.102-25.95-38.58-49.41-74.102   c-27.898-42.3-32.939-49.77-33.66-49.89C681.72,321.63,680.79,322.02,679.95,322.561z" style="stroke:black;fill:#248A5E"/><path id="180623552" parent_id="180608862" order="21" structure_id="2113200030000000" d="M743.4,482.76   c-1.142,0.42-2.881,0.69-5.73,0.84c-6.779,0.42-10.74,1.2-14.25,2.881c-2.97,1.381-4.26,2.909-6.57,7.71   c-3.448,7.171-7.56,12.631-12.27,16.381c-2.4,1.92-16.05,10.47-19.59,12.27c-3,1.53-3.66,2.37-1.59,2.04   c2.13-0.33,10.41-2.818,14.608-4.41c10.95-4.08,19.562-8.85,27.841-15.449c6.119-4.859,14.101-13.439,18.989-20.341   C746.76,481.95,746.52,481.62,743.4,482.76z" style="stroke:black;fill:#CCCCCC"/><path id="180623552" parent_id="180608862" order="22" structure_id="1510000000000000" d="M546.6,499.2   c-0.778,0.78-0.75,1.56,0.03,2.28c0.57,0.51,0.69,0.51,1.41,0.09c0.96-0.51,1.2-1.771,0.51-2.49   C547.891,498.45,547.32,498.48,546.6,499.2z" style="stroke:black;fill:#BFDAE3"/><path id="180623552" parent_id="180608862" order="23" structure_id="1" d="M654.359,436.41   c-2.819,2.13-5.129,3.99-5.159,4.17c0,0.15,0.989,0.6,2.19,0.99c3.688,1.17,9.688,3.63,12.988,5.278   c6.602,3.36,11.311,7.29,12.932,10.86c0.72,1.53,0.84,2.189,0.93,5.64c0.15,4.83-0.36,7.44-2.07,10.95   c-3.6,7.32-11.64,10.98-22.59,10.352c-3.391-0.211-3.57-0.182-3.391,0.33c0.091,0.33,0.66,1.8,1.229,3.3   c2.28,5.909,1.86,11.188-1.319,16.35c-1.229,2.01-1.199,2.19,0.541,1.95c0.778-0.12,3.568-0.33,6.209-0.51   c8.881-0.54,11.609-1.682,15.51-6.45c2.729-3.3,3.601-3.75,8.341-4.05c4.47-0.301,6.33-0.87,8.94-2.79   c2.368-1.771,3.898-4.142,8.188-12.78c3.271-6.57,3.66-7.23,5.34-8.76c2.04-1.892,3.78-2.94,6.601-3.96   c2.791-1.021,5.761-1.352,11.131-1.32c3.66,0.03,5.039-0.09,6.539-0.51c3.271-0.931,4.621-3.03,2.971-4.59   c-1.92-1.8-9.12-4.171-18.061-5.91c-6.391-1.261-10.471-2.312-16.199-4.23c-9.87-3.27-15.09-5.64-25.562-11.55   c-3.27-1.859-6.51-3.689-7.229-4.08c-0.689-0.39-1.739-1.14-2.279-1.62c-0.57-0.479-1.141-0.87-1.29-0.87   S657.18,434.311,654.359,436.41z" style="stroke:black;fill:#BFDAE3"/><path id="180623552" parent_id="180608862" order="24" structure_id="1" d="M660.48,430.38   c-1.41,1.38-0.091,3,4.619,5.61c1.891,1.05,5.67,3.18,8.399,4.71c5.43,3.09,9.45,5.04,13.8,6.75c8.58,3.359,15.9,5.55,24.15,7.2   c10.529,2.1,16.439,4.05,18.81,6.119c1.23,1.109,1.261,1.141,0.841,2.101c-0.99,2.399-4.17,3.33-11.641,3.33   c-6.148,0-8.34,0.39-12.061,2.16c-1.859,0.898-3.029,1.71-4.351,3.06c-1.649,1.65-2.19,2.58-5.46,9.18   c-4.92,9.932-6.33,11.79-10.68,13.802c-1.62,0.778-2.521,0.96-5.641,1.229c-5.88,0.45-5.221,0.12-10.351,5.61   c-1.29,1.38-2.312,2.16-3.87,2.88c-2.908,1.38-4.199,1.648-10.62,2.13c-7.948,0.6-10.319,1.2-10.71,2.67   c-0.238,1.05,0.45,2.311,1.682,3c0.93,0.57,1.528,0.63,5.699,0.6c4.891-0.028,19.141-1.108,21.84-1.648   c1.92-0.391,3.239-1.41,3.479-2.76c0.3-1.592,1.29-2.312,3.66-2.642c4.739-0.659,5.67-0.898,7.438-1.71   c2.552-1.199,6.271-4.05,8.58-6.57c2.76-3,4.98-6.75,6.932-11.67c1.89-4.738,3.21-7.02,5.22-8.938   c3.062-2.91,4.858-3.392,16.649-4.5c6.301-0.57,7.891-0.812,8.939-1.351c1.92-0.989,3.271-2.311,4.17-4.17   c0.69-1.41,0.84-2.101,0.84-3.961c0-1.92-0.119-2.46-0.81-3.66c-2.19-3.688-7.83-6.238-19.74-8.938   c-22.71-5.13-29.61-7.351-42.6-13.65C664.74,430.08,661.8,429.061,660.48,430.38z" style="stroke:black;fill:#BFDAE3"/><path id="180623552" parent_id="180608862" order="25" structure_id="1" d="M634.74,411.51   c-1.26,0.09-1.74,0.24-1.74,0.54c0,0.271,0.3,0.45,0.689,0.45c1.17,0,7.529,2.311,10.439,3.78c5.432,2.7,10.32,6.27,14.91,10.83   c1.95,1.979,3,2.79,3.51,2.79c1.352,0,5.13,1.56,13.352,5.55c4.528,2.22,9.6,4.53,11.25,5.188c7.05,2.79,16.05,5.342,29.76,8.432   c4.5,1.02,9.689,2.34,11.55,2.91c6.54,2.068,10.56,4.59,11.91,7.47c1.8,3.84-0.21,9.12-4.32,11.22c-1.59,0.811-3.36,1.11-10.2,1.71   c-10.318,0.87-12.688,1.5-15.42,4.11c-1.89,1.8-3.449,4.35-4.71,7.648c-2.31,6.03-4.739,10.08-8.04,13.5   c-2.49,2.58-5.279,4.71-7.83,6c-2.278,1.142-3.63,1.5-6.84,1.83c-3.15,0.3-3.9,0.75-4.529,2.67c-0.899,2.671-2.069,3-14.58,3.96   c-8.791,0.66-12.51,0.78-15.029,0.45c-1.5-0.18-1.86-0.12-3.45,0.69c-4.771,2.398-11.608,4.38-19.021,5.489   c-3.631,0.569-5.67,0.689-12.449,0.689c-4.92,0.03-9.391-0.12-11.4-0.359l-3.3-0.391l-5.312,3.24c-2.938,1.77-5.34,3.39-5.34,3.57   c0,0.42,3.391,1.38,9,2.55c11.61,2.398,24.602,3.358,39.78,2.938c10.86-0.33,20.49-1.318,32.31-3.3   c6.451-1.08,9.842-2.13,14.371-4.41c4.26-2.188,17.879-10.68,20.729-12.93c4.68-3.72,8.04-8.25,11.79-15.812   c3.09-6.209,4.38-7.47,9.27-9.09c3.24-1.05,7.26-1.74,12.84-2.1c4.381-0.3,6.24-0.87,8.521-2.61c1.74-1.318,4.89-7.2,6.39-11.97   c0.932-2.91,1.171-8.79,0.45-11.55c-1.2-4.681-4.62-8.67-9.6-11.19c-0.842-0.39-3.932-1.62-6.9-2.699   c-21.45-7.771-43.229-17.221-54.238-23.551c-3-1.74-5.371-2.58-11.91-4.229c-8.61-2.16-17.432-3.48-25.352-3.78   C637.95,411.45,636.45,411.42,634.74,411.51z" style="stroke:black;fill:#BFDAE3"/><path id="180623552" parent_id="180608862" order="26" structure_id="1" d="M576.9,483.6   c-2.91,4.052-3.75,5.82-3.69,7.802c0.06,2.64,1.71,6.42,3.42,8.01c1.41,1.26,7.65,5.31,9.81,6.33c1.771,0.84,2.4,1.02,3.42,0.87   c1.65-0.21,3.512-1.592,4.41-3.182c0.69-1.26,0.722-1.41,0.36-3.688c-0.66-4.32-3.66-12-5.55-14.25   c-1.26-1.472-7.86-4.59-9.689-4.59C579.061,480.9,578.1,481.95,576.9,483.6z" style="stroke:black;fill:#BFDAE3"/><path id="180623552" parent_id="180608862" order="27" structure_id="1111222150100000" d="M647.97,333   c-19.229,6.42-29.938,13.08-39.329,24.54c-11.551,14.04-18.271,25.2-19.41,32.16c-0.511,3.06-1.229,13.53-1.529,21.75   c-0.21,6-0.391,7.979-0.87,9.87c-0.36,1.318-0.63,2.49-0.63,2.64c0,0.51,0.988,0.21,2.58-0.84c3.81-2.4,7.408-3.96,15.84-6.69   c6.21-2.04,12.96-3.75,17.25-4.38c2.939-0.45,5.25-0.479,15.6-0.359c12.842,0.149,15.54,0.359,24.48,1.891   c2.488,0.45,6.6,1.32,9.148,1.979c2.551,0.659,5.01,1.289,5.49,1.351c1.38,0.27,0.96-0.63-0.9-1.86   c-5.608-3.72-12-9.568-15.568-14.31c-4.141-5.521-7.41-11.82-9.75-18.84c-3.78-11.432-3.03-24.54,2.609-44.222   c0.899-3.119,1.619-5.85,1.619-6.06C654.6,330.93,653.46,331.17,647.97,333z" style="stroke:black;fill:#248A5E"/><path id="180623552" parent_id="180608862" order="28" structure_id="1" d="M566.43,475.32   c-0.93,1.14-8.369,4.229-17.34,7.26c-3.27,1.109-6.06,2.13-6.21,2.25c-0.39,0.33,1.021,3.87,3,7.71   c7.351,14.04,22.351,26.49,38.46,31.86l3.811,1.26l5.101-3.12c5.069-3.12,6.149-4.14,4.438-4.14c-0.448,0-2.818-0.392-5.22-0.9   c-9.96-2.01-13.319-3.75-19.35-9.93c-4.11-4.26-7.979-9.78-9.601-13.771c-1.5-3.688-0.75-8.22,2.431-14.55   c1.08-2.16,1.95-4.021,1.95-4.14C567.9,474.72,566.79,474.9,566.43,475.32z" style="stroke:black;fill:#BFDAE3"/><path id="180623552" parent_id="180608862" order="29" structure_id="1" d="M571.29,471.63   c-0.72,0.21-1.26,0.81-2.431,2.61c-2.459,3.84-3.869,6.66-4.891,9.66c-0.779,2.369-0.96,3.33-0.988,5.76l-0.03,2.88l1.59,3.12   c2.28,4.47,5.101,8.279,9.21,12.42c4.32,4.32,6.811,5.97,11.311,7.439c3.149,1.051,9.659,2.431,12.84,2.791   c3,0.3,4.5-1.08,4.5-4.172c0-1.8-0.631-3.328-2.34-5.85c-1.5-2.19-4.5-5.49-4.951-5.46c-0.209,0-0.778,0.57-1.26,1.26   c-1.108,1.53-3.148,2.73-4.56,2.67c-1.41-0.06-4.229-1.47-8.22-4.14c-3.931-2.61-5.131-3.66-6.181-5.46   c-0.961-1.62-1.891-4.59-1.891-6.03c0-1.5,1.29-4.02,3.899-7.529c1.17-1.561,2.311-3.301,2.58-3.869   c0.841-1.83-0.09-4.74-2.159-6.75C575.73,471.42,573.6,470.97,571.29,471.63z" style="stroke:black;fill:#BFDAE3"/><path id="180623552" parent_id="180608862" order="30" structure_id="1" d="M670.35,302.52   c-17.58,5.85-28.979,11.669-41.85,21.3c-15.27,11.398-27.18,23.67-31.62,32.52c-2.1,4.141-4.44,12.36-6.03,20.91   c-1.56,8.52-1.289,9.75,1.051,4.74c2.761-5.91,7.471-12.99,14.609-21.931c6.18-7.771,10.35-11.699,17.04-16.051   c9-5.85,19.47-10.02,38.19-15.21c10.65-2.938,12.688-3.6,15.869-5.1c6.479-3.03,9.99-7.23,11.341-13.59   c0.45-2.19,0.479-2.82,0.18-3.812c-0.69-2.37-3.12-4.32-6.66-5.43C679.23,299.85,677.73,300.06,670.35,302.52z" style="stroke:black;fill:#BFDAE3"/><path id="180623552" parent_id="180608862" order="31" structure_id="1" d="M542.34,395.34l-1.74,0.09v4.41   c0.03,7.23,0.511,14.67,1.17,17.46c0.812,3.42,1.53,8.49,1.74,12.15l0.18,3l3.932-0.09c4.17-0.12,16.771,0.329,23.67,0.87   l4.17,0.329l1.38-1.229c0.78-0.69,2.94-2.49,4.802-3.99c4.858-3.93,5.34-5.07,5.76-13.89c0.18-3.15,0.449-8.641,0.63-12.24   c0.18-3.6,0.3-6.57,0.239-6.63C588.12,395.43,544.59,395.22,542.34,395.34z" style="stroke:black;fill:#BFDAE3"/><path id="180623552" parent_id="180608862" order="32" structure_id="1" d="M619.8,412.5c-4.71,0.84-9.659,2.189-16.5,4.5   c-7.739,2.58-10.739,3.84-14.04,5.91c-5.01,3.15-12.96,9.54-12.96,10.41c0,0.21,0.9,0.51,2.341,0.75   c1.26,0.21,6.359,1.17,11.311,2.16c9.72,1.92,12.3,2.76,12.988,4.318c0.211,0.42,0.36,1.86,0.36,3.15c0,1.5,0.12,2.398,0.33,2.398   c0.181,0,0.75-0.33,1.261-0.72c2.34-1.77,8.34-4.11,12.51-4.95c7.229-1.41,23.761-1.5,29.341-0.18l1.858,0.45l5.7-4.261   c5.011-3.779,5.7-4.38,5.7-5.13c0-0.449,0.21-0.899,0.45-0.989c0.93-0.36,0.36-1.32-2.61-4.2c-7.109-6.87-14.13-10.92-22.89-13.2   C630.78,411.84,624.359,411.66,619.8,412.5z" style="stroke:black;fill:#BFDAE3"/><path id="180623552" parent_id="180608862" order="33" structure_id="1" d="M623.55,439.8   c-1.649,0.15-4.02,0.42-5.25,0.602c-3.39,0.51-9.3,2.579-11.94,4.17c-2.908,1.739-3.028,2.188-1.14,4.77   c0.75,1.021,1.47,1.86,1.591,1.86c0.09,0,1.229-0.36,2.459-0.812c4.052-1.409,9.45-1.29,14.791,0.392   c1.471,0.479,2.641,1.08,3.299,1.68l0.99,0.93l2.041-0.328c2.851-0.512,7.619-0.45,10.351,0.118c4.438,0.9,10.5,3.69,13.71,6.33   l1.68,1.352l10.71-0.57c12.091-0.601,11.46-0.42,10.23-2.97c-0.99-2.102-3.931-5.04-7.171-7.17   c-5.369-3.602-14.34-7.44-22.17-9.512c-3.449-0.898-3.541-0.93-12.33-0.988C630.54,439.59,625.2,439.65,623.55,439.8z" style="stroke:black;fill:#BFDAE3"/></g></g></svg>
