<svg xmlns="http://www.w3.org/2000/svg" width="3024px" height="3024px"><g transform="scale(1.0)"><g id="180608862" order="1" parent_id="" graphic_group_label_id="28" graphic_group_label="Atlas - Adult Rat" sub_image_id="100960468" transform=" scale(1.0, 1.0)"><path id="180623552" parent_id="180608862" order="0" structure_id="1" d="M963.42,354.15c-1.62-8.31-2.85-13.08-5.64-22.05c-11.61-37.47-26.013-69-41.79-91.56    c-12.45-17.79-32.07-38.55-55.44-58.56c-12.479-10.71-15.75-13.17-28.05-21.15c-3.39-2.19-7.86-5.16-9.96-6.57    c-8.25-5.64-28.71-15.75-46.74-23.07c-34.647-14.1-58.38-19.8-93.3-22.5c-8.55-0.66-37.2-0.75-47.1-0.15    c-40.381,2.43-62.91,8.1-76.62,19.23c-6.511,5.25-14.61,18.78-17.88,29.73c-0.309,0.995-0.655,1.811-0.9,2.034v510.125    c3.48-0.003,4.828-0.126,6.66-0.602c4.857-1.317,7.89-3.447,9.51-6.72c0.51-1.02,0.93-2.01,0.93-2.25c0-0.33,0.36-0.39,1.74-0.24    c17.16,1.771,31.891,2.343,39.42,1.53c13.71-1.438,27.12-6,37.44-12.688c2.607-1.71,3.27-1.98,7.438-3.093    c2.521-0.657,5.313-1.56,6.24-1.947c2.43-1.08,2.521-1.053,2.521,0.96c0,1.198,0.181,2.04,0.601,2.729    c1.95,3.21,6.688,2.67,8.52-0.96c0.48-0.99,0.513-1.29,0.183-2.31c-0.21-0.66-0.33-1.23-0.24-1.32s0.87-0.03,1.74,0.15    c6.96,1.317,16.02-2.25,22.74-8.94c3.09-3.12,5.038-6.93,6.357-12.6c0.54-2.25,0.75-2.763,1.2-2.763c0.72,0,0.93,0.723,2.25,8.103    c1.2,6.63,1.59,8.04,3.03,10.8c4.17,8.04,13.647,13.351,32.067,17.94C763.53,663.75,807.69,669.3,831,668.1    c12.84-0.63,19.56-2.01,27.66-5.58c13.29-5.88,30.27-18.447,45.42-33.567c8.1-8.103,13.17-14.853,18.84-25.05    c5.67-10.23,15.271-32.28,19.68-45.21c4.353-12.723,6.603-23.91,6.603-32.94c0-6.48-0.96-8.64-6.813-15.45    c-0.87-1.02-1.59-2.1-1.59-2.397c0-0.87,1.59-2.521,5.433-5.58c1.89-1.53,3.84-3.36,4.317-4.08c1.62-2.433,7.021-13.29,8.82-17.7    c5.188-12.75,8.34-25.53,9.78-39.69C971.55,417,969.42,384.6,963.42,354.15z" style="stroke:black;fill:#BFDAE3"/><path id="180623552" parent_id="180608862" order="1" structure_id="1" d="M573.96,484.71    c-0.63,0.66-0.87,0.75-2.04,0.57c-0.72-0.09-1.32-0.063-1.32,0.06s0.271,2.04,0.603,4.26c0.87,6.12,1.77,16.473,2.04,23.94    c0.147,3.66,0.33,6.72,0.42,6.81c0.18,0.183,14.188-2.64,16.32-3.27c2.367-0.72,12.688-7.23,13.89-8.76    c1.17-1.473,0.688-4.563-0.9-6.03c-1.198-1.08-4.35-2.34-8.97-3.54c-2.4-0.63-5.07-1.44-5.939-1.83    c-2.641-1.17-5.521-3.27-7.921-5.76c-2.067-2.19-4.737-6.063-4.737-6.9C575.4,483.69,574.71,483.9,573.96,484.71z" style="stroke:black;fill:#BFDAE3"/><path id="180623552" parent_id="180608862" order="2" structure_id="1" d="M572.22,499.89c-0.239-2.79-0.777-7.229-1.14-9.897l-0.69-4.893l-2.79-2.607    c-3.42-3.24-5.55-4.86-8.1-6.21c-3.87-2.011-7.14-2.49-9.48-1.38c-0.72,0.357-2.157,1.617-3.39,2.97    c-2.55,2.82-4.08,3.688-6.57,3.688c-0.021,0-0.038-0.002-0.06-0.001v34.485c2.942,0,5.86,0.988,10.5,2.957    c2.22,0.93,4.59,1.89,5.25,2.13c2.7,0.93,17.07,0.21,17.49-0.897C573.48,519.63,572.82,506.25,572.22,499.89z" style="stroke:black;fill:#BFDAE3"/><path id="180623552" parent_id="180608862" order="3" structure_id="1" d="M574.5,480.42c-0.39-3.09-1.14-7.11-1.5-8.07c-0.3-0.75-5.07-3.75-9.81-6.18    c-5.095-2.59-9.892-3.271-23.19-3.212v18.51c0.248-0.012,0.504-0.028,0.78-0.057c2.188-0.24,3.75-1.2,6.06-3.78    c2.91-3.27,4.893-4.05,8.19-3.21c3.75,0.96,8.25,3.813,12.42,7.83c3.479,3.36,6,3.99,6.93,1.771    C574.74,483.18,574.77,482.52,574.5,480.42z" style="stroke:black;fill:#BFDAE3"/><path id="180623552" parent_id="180608862" order="4" structure_id="1" d="M573.42,473.16    c0.57,2.76,1.38,7.92,1.38,8.729c0,0.54,0.393,1.803,0.9,2.853c2.46,5.188,6.78,9.45,12.09,11.91c3.09,1.438,3.45,1.38,5.25-0.603    c2.01-2.188,2.82-4.317,3-7.8c0.24-4.83-1.2-8.55-3.81-9.87c-1.95-0.99-4.23-2.85-5.133-4.17c-0.897-1.32-1.229-1.35-2.22-0.36    c-0.54,0.513-1.08,0.75-1.83,0.75c-1.2,0-4.74-0.84-7.47-1.8C573.27,472.02,573.18,472.02,573.42,473.16z" style="stroke:black;fill:#BFDAE3"/><path id="180623552" parent_id="180608862" order="5" structure_id="1" d="M661.05,349.08    c-3.897,0.21-10.438,0.72-10.53,0.81c-0.06,0.06,0.33,2.04,0.843,4.41c0.84,3.87,0.96,4.92,0.96,9.3c0.027,4.83,0,5.07-1.11,9.15    c-2.16,7.98-3.72,10.8-8.938,16.02c-2.909,2.94-4.439,4.8-6.812,8.28c-3.03,4.47-3.99,5.73-8.01,10.26    c-1.143,1.29-3.48,3.99-5.16,6c-1.771,2.07-4.11,4.41-5.49,5.521c-2.817,2.188-2.76,1.979-0.93,5.82    c1.35,2.79,2.938,4.737,4.56,5.55c1.771,0.93,2.61,0.81,3.15-0.45c1.32-3.18,4.35-7.5,7.95-11.4    c2.13-2.277,18.51-16.77,28.17-24.93c7.08-6,7.108-6,10.317-14.64c2.463-6.57,2.82-7.86,3-11.13c0.093-1.65,0.423-4.05,0.75-5.31    c0.603-2.37,2.37-6.21,3.271-7.26c0.33-0.36,0.51-1.08,0.51-2.04c0-1.29-0.12-1.59-0.93-2.34c-0.57-0.48-1.59-0.96-2.4-1.14    C672.6,349.2,664.32,348.93,661.05,349.08z" style="stroke:black;fill:#BFDAE3"/><path id="180623552" parent_id="180608862" order="6" structure_id="1" d="M648.3,349.98    c-0.42,0.09-1.29,0.21-1.95,0.27c-0.96,0.12-1.29,0.33-1.56,0.99c-0.69,1.56-16.771,18.69-21.81,23.22    c-4.173,3.78-9.75,7.98-12,9.09l-1.713,0.84l0.15,1.83c0.09,1.02,0.33,3.93,0.48,6.48c0.63,9.6,1.68,17.52,3.18,23.7    c0.93,4.02,1.02,4.17,2.1,3.6c1.29-0.69,5.34-4.62,7.86-7.62c1.26-1.5,3.66-4.29,5.31-6.18c3.24-3.69,5.04-6.03,8.553-11.19    c1.438-2.16,3.39-4.47,5.85-6.9c4.89-4.92,6.3-7.5,8.46-15.81c0.96-3.66,1.08-4.44,1.08-8.25c0.03-3.63-0.09-4.89-0.99-9.24    C650.22,349.35,650.43,349.68,648.3,349.98z" style="stroke:black;fill:#BFDAE3"/><path id="180623552" parent_id="180608862" order="7" structure_id="1" d="M610.2,215.7    c-6.87,1.08-8.521,3.12-13.65,16.8c-3.688,9.78-8.37,18.36-13.38,24.48c-1.02,1.26-3.27,3.69-4.979,5.37s-3.093,3.24-3.093,3.42    c0,0.66,1.11,0.3,4.053-1.35c9.81-5.52,16.47-12,22.56-21.87c6.18-10.05,14.67-15.48,27.69-17.73    c3.81-0.66,17.817-0.93,23.55-0.45c9.09,0.75,16.857,2.34,22.8,4.68c2.28,0.9,4.65,1.56,7.65,2.1c16.527,3,34.229,8.16,50.55,14.7    c8.13,3.27,13.83,5.85,22.979,10.41c4.563,2.28,8.433,4.14,8.61,4.14c0.99,0-0.03-1.08-3.9-4.08    c-13.229-10.26-27.27-18.42-42.39-24.57c-19.59-8.01-45.45-13.2-77.4-15.63C634.68,215.58,612.75,215.28,610.2,215.7z" style="stroke:black;fill:#BFDAE3"/><path id="180623552" parent_id="180608862" order="8" structure_id="1" d="M731.61,333c-1.32,2.76-4.44,6.27-7.2,8.16    c-2.79,1.89-6.51,3.63-11.46,5.31c-3.36,1.17-4.74,1.8-5.521,2.52c-1.107,1.05-2.729,3.42-2.729,3.99c0,0.45,1.68,1.11,4.647,1.8    c1.771,0.42,3.513,0.57,6.603,0.54c3.63-0.03,4.53-0.12,6.75-0.81l2.55-0.78l0.51,0.6c0.3,0.33,0.69,1.41,0.87,2.4    c0.24,1.17,0.48,1.77,0.78,1.77c0.87,0,4.74-1.86,6.54-3.12c3.12-2.25,6.688-6.48,8.817-10.5c1.44-2.73,1.29-2.97-1.289-2.1    c-1.648,0.57-3.328,0.36-3.778-0.48c-0.75-1.38-0.271-3.36,1.857-7.89c0.69-1.44,1.143-2.7,1.053-2.82    c-0.12-0.09-1.021,0.03-2.013,0.3c-2.58,0.72-3.39,0.66-4.5-0.39c-0.54-0.51-1.05-0.9-1.17-0.87    C732.84,330.63,732.24,331.71,731.61,333z" style="stroke:black;fill:#BFDAE3"/><path id="180623552" parent_id="180608862" order="9" structure_id="1" d="M746.4,327.75c0,0.27-0.33,0.81-0.75,1.23    c-0.723,0.72-0.75,0.84-0.42,2.01c0.539,1.83,0.447,6.03-0.15,8.31c-1.86,7.08-8.1,14.94-14.1,17.85    c-4.771,2.28-11.673,4.05-15.9,4.05c-4.8,0-8.82-1.71-10.26-4.35c-0.48-0.9-0.723-1.05-1.62-1.05c-1.47,0-2.4,0.3-2.4,0.75    c0,0.69,3.03,3.09,5.28,4.17c3.78,1.86,8.4,2.97,16.38,3.93c6.18,0.78,8.67,1.92,12.18,5.7c4.23,4.53,7.08,11.79,8.16,20.85    c1.8,15.06,0.24,26.79-4.979,37.29c-2.82,5.7-5.763,9.54-16.2,21.12c-7.83,8.67-30.9,33.09-31.29,33.09    c-0.51,0-9.45,9.18-10.8,11.1c-4.38,6.24-7.71,14.4-9.21,22.563c-1.021,5.46-0.57,16.438,0.659,16.438    c0.301,0,0.421-0.39,0.421-1.29c0-2.85,1.59-7.317,3.63-10.317c4.05-5.91,14.25-12.78,21.51-14.49c3.96-0.931,6.99,0.33,8.7,3.6    c0.93,1.771,1.02,2.13,0.87,3.9c-0.393,5.67-4.95,11.76-12.45,16.74c-6.181,4.078-11.4,6.357-15.99,7.05    c-1.47,0.21-2.37,0.479-2.37,0.688c0,0.513,2.853,1.83,5.643,2.58c1.979,0.57,3.117,0.66,8.01,0.66c4.77,0,6.21-0.12,8.819-0.688    c6.631-1.41,14.698-4.803,19.591-8.19c11.159-7.74,19.979-20.4,29.01-41.58c6.899-16.14,8.729-23.37,10.229-40.11    c0.812-9.27,1.229-11.789,3.119-19.35c0.9-3.54,2.313-9.75,3.12-13.8c3.511-17.16,8.46-45.18,8.46-47.91    c0-4.2-3.27-11.67-10.857-24.9c-1.62-2.82-3.15-5.64-3.393-6.24c-0.42-0.96-0.989-3.54-1.5-6.48c-0.147-0.96-0.42-1.29-2.04-2.31    c-2.369-1.53-5.55-3.06-6.42-3.06C746.67,327.3,746.4,327.48,746.4,327.75z" style="stroke:black;fill:#BFDAE3"/><path id="180623552" parent_id="180608862" order="10" structure_id="1" d="M856.95,430.2c-2.01-14.22-8.01-36.48-13.95-51.75c-1.62-4.14-7.71-16.53-19.68-40.05    c-0.87-1.74-4.143-8.34-7.263-14.7c-7.5-15.24-10.407-20.22-16.617-28.59c-8.013-10.74-18.063-21.78-27.54-30.24    c-1.83-1.62-3.66-2.88-6.45-4.38c-31.83-17.22-65.94-28.32-95.7-31.2c-6.84-0.63-24.45-0.75-29.4-0.15    c-7.89,0.96-12.027,2.1-18.027,4.98c-6.75,3.27-11.58,6.54-19.771,13.38c-4.26,3.57-8.04,6.3-8.76,6.3c-0.21,0-1.35,0.9-2.55,1.98    c-6.03,5.46-10.53,8.25-21.99,13.56c-9.707,4.51-17.663,6.165-29.25,6.179v19.223c2.96-0.01,5.925-0.249,8.55-0.711    c14.61-2.58,29.7-8.37,40.2-15.39c10.32-6.93,27.21-19.08,32.97-23.76c4.143-3.33,8.28-5.4,15.78-7.83    c1.41-0.45,3.479-1.23,4.59-1.71c3.51-1.5,6.66-2.07,12.813-2.25c7.618-0.24,14.397,0.66,24.688,3.24    c13.29,3.33,32.55,10.62,42.66,16.11c9.96,5.43,18.6,13.38,22.86,20.97c1.5,2.7,2.729,6.45,3.119,9.39    c0.238,2.13,0.421,2.61,1.141,3.27c1.26,1.17,1.68,2.76,1.647,6.18c-0.06,6.96-2.76,15.93-5.52,18.27    c-1.08,0.9-1.08,1.05-0.24,2.67c0.36,0.69,0.78,1.77,0.99,2.4c0.3,1.05,0.54,1.23,2.58,2.1c1.2,0.54,3,1.5,3.96,2.1    c0.93,0.6,1.92,1.11,2.16,1.11c0.39,0,0.45-1.95,0.39-15.39c-0.06-14.43-0.03-15.57,0.54-18.66c0.72-3.81,1.59-6.03,2.852-7.23    c1.711-1.62,5.881-1.26,10.141,0.93c9.688,4.92,24.147,19.41,38.67,38.7c13.08,17.43,27.51,43.35,33.72,60.51    c3.54,9.9,4.95,15.36,8.643,33.84c3.81,19.053,4.02,20.46,4.02,29.7c0,9.36-0.81,16.86-2.85,26.521    c-1.86,8.85-3.63,13.71-10.021,27.33c-3.39,7.29-4.17,9.21-4.47,11.397c-0.09,0.66-0.36,9.42-0.63,19.5    c-0.813,32.67-1.142,38.07-2.73,44.4c-1.02,3.96-2.76,8.1-4.619,10.89c-0.811,1.23-1.5,2.37-1.5,2.49    c0,0.63,1.262,0.18,2.699-0.96c5.19-4.08,7.83-11.37,9.722-26.67c1.108-8.82,1.381-14.4,1.528-31.5    c0.063-9.09,0.24-15.84,0.45-16.86c0.42-2.22,1.05-4.02,3.18-8.79c3.421-7.83,7.65-21.99,9.69-32.55    C857.79,460.77,858.75,442.98,856.95,430.2z" style="stroke:black;fill:#BFDAE3"/><path id="180623552" parent_id="180608862" order="11" structure_id="1" d="M653.52,641.82    c-1.14,0.51-1.77,2.067-1.527,3.87c0.21,1.5,0.99,2.607,2.34,3.27c1.38,0.72,2.58,0.69,4.17-0.15c2.61-1.29,3.57-4.229,1.89-5.79    C658.89,641.61,655.38,641.01,653.52,641.82z" style="stroke:black;fill:#BFDAE3"/><path id="180623552" parent_id="180608862" order="12" structure_id="1" d="M698.31,628.53    c-2.76,2.13-1.077,8.489,3.54,13.41c1.593,1.71,2.67,2.577,3.813,3.06c1.71,0.75,4.41,1.08,6.03,0.78    c2.13-0.393,3.447-2.73,3.06-5.4l-0.21-1.29l-1.68,0.03c-3.513,0.03-7.92-3.03-9.78-6.75c-0.602-1.17-1.08-2.37-1.08-2.64    C702,628.02,699.81,627.33,698.31,628.53z" style="stroke:black;fill:#BFDAE3"/><path id="180623552" parent_id="180608862" order="13" structure_id="1" d="M545.55,535.08    c-1.38,0.689-2.52,1.02-3.357,1.02h-1.29v9.303c0,5.1,0.117,9.3,0.237,9.3s1.803-0.87,3.69-1.95c3.9-2.25,13.439-7.08,18.66-9.479    c1.92-0.869,3.51-1.771,3.51-1.979c0-0.271-0.45-0.39-1.32-0.39c-4.77,0-12.147-2.67-15.84-5.73c-0.78-0.63-1.59-1.17-1.8-1.14    C547.83,534.03,546.72,534.51,545.55,535.08z" style="stroke:black;fill:#BFDAE3"/><path id="180623552" parent_id="180608862" order="14" structure_id="1" d="M838.29,577.29    c-1.5,7.68-3.78,12.9-7.14,16.29c-1.98,2.01-5.25,4.02-6.54,4.02c-0.393,0-0.48,0.723-0.57,4.263c-0.06,2.697,0,4.38,0.21,4.5    c0.57,0.42,4.56,0.237,6.63-0.303c6.813-1.828,11.853-6.6,13.353-12.657c0.6-2.553,0.479-7.172-0.33-10.32    c-0.78-3.15-2.343-6.99-3.33-8.25C839.31,573.24,839.01,573.57,838.29,577.29z" style="stroke:black;fill:#BFDAE3"/><path id="180623552" parent_id="180608862" order="15" structure_id="1" d="M853.11,485.01    c-0.63,3.84-4.98,17.88-7.44,23.94c-0.81,1.979-1.47,3.72-1.47,3.897c0.03,0.15,1.317,1.053,2.91,1.95    c1.59,0.9,4.38,2.643,6.21,3.84c1.8,1.2,3.447,2.132,3.63,2.04c0.357-0.12,1.647-6.357,2.25-10.77    c0.45-3.45,0.357-9.93-0.15-12.99c-0.63-3.57-1.41-5.938-3.24-9.81C854.13,483.57,853.41,483,853.11,485.01z" style="stroke:black;fill:#BFDAE3"/><path id="180623552" parent_id="180608862" order="16" structure_id="1" d="M626.55,649.83    c-4.68,0.6-8.64,2.16-11.91,4.68c-2.52,1.92-3.96,3.99-2.817,3.99c0.84,0,7.527-2.13,10.979-3.51c4.41-1.74,9.9-4.563,9.9-5.103    C632.7,649.44,629.97,649.41,626.55,649.83z" style="stroke:black;fill:#BFDAE3"/><path id="180623552" parent_id="180608862" order="17" structure_id="1" d="M562.89,598.5    c-5.188,0.93-10.737,4.59-12.657,8.34c-2.37,4.65-1.86,13.65,1.197,20.4c2.853,6.357,9.723,12.99,17.67,17.13    c1.893,0.99,4.683,2.16,6.15,2.61c2.58,0.81,2.97,0.84,8.85,0.84c5.61,0,6.48-0.09,9.9-0.84c4.47-0.99,6.48-1.893,7.95-3.54    c1.29-1.41,2.607-4.08,3.33-6.69c0.66-2.49,0.897-8.729,0.42-10.53c-0.66-2.31-2.58-4.89-7.021-9.3    c-4.438-4.438-6.93-6.45-12.27-9.96C576.21,600.21,568.59,597.51,562.89,598.5z M571.14,605.13c4.143,1.05,9.723,3.87,13.32,6.69    c3.57,2.817,8.79,9.6,11.04,14.34c1.56,3.27,2.22,5.88,2.01,8.188c-0.3,3.99-2.37,6.063-6.777,6.813    c-4.98,0.84-14.28-1.38-22.683-5.49c-9.72-4.74-14.397-10.32-14.79-17.79c-0.33-6.06,1.771-10.05,6.36-12.21    C562.92,604.14,566.52,603.96,571.14,605.13z" style="stroke:black;fill:#BFDAE3"/><path id="180623552" parent_id="180608862" order="18" structure_id="1" d="M647.22,525.6    c-0.989,0.393-2.43,2.25-2.64,3.42c-0.813,4.32,4.35,7.53,7.65,4.771c1.229-1.05,1.77-2.22,1.77-3.9c0-2.729-1.89-4.59-4.65-4.56    C648.54,525.33,647.58,525.45,647.22,525.6z" style="stroke:black;fill:#BFDAE3"/><path id="180623552" parent_id="180608862" order="19" structure_id="1" d="M546.69,272.85    c-0.96,0.42-1.593,1.23-1.593,2.07c0,0.39,0.303,0.45,1.893,0.27c4.47-0.45,6.357-0.84,6.45-1.35    C553.68,272.58,548.94,271.86,546.69,272.85z" style="stroke:black;fill:#BFDAE3"/><path id="180623552" parent_id="180608862" order="20" structure_id="1" d="M558.6,463.95    c0,0.24,0.271,0.45,0.603,0.45c0.75,0,6.96,3.18,11.01,5.64c3.84,2.37,8.46,3.96,11.97,4.17c2.313,0.15,2.46,0.12,2.94-0.54    c0.63-0.898,0.63-3.6,0.03-4.77c-1.263-2.4-7.803-4.29-17.67-5.103C561.69,463.35,558.6,463.38,558.6,463.95z" style="stroke:black;fill:#BFDAE3"/><path id="180623552" parent_id="180608862" order="21" structure_id="1" d="M704.7,348.66    c-0.9,0.15-3.45,0.21-5.61,0.12c-2.43-0.12-3.99-0.06-3.99,0.12c0,0.15,0.48,0.93,1.053,1.71c0.567,0.78,1.647,2.28,2.397,3.3    c1.261,1.77,1.44,1.89,2.521,1.89c2.52,0,2.91-0.21,3.27-1.83c0.36-1.56,1.38-3.36,2.432-4.29c0.33-0.33,0.631-0.75,0.631-0.99    C707.4,348.24,707.07,348.24,704.7,348.66z" style="stroke:black;fill:#BFDAE3"/><path id="180623552" parent_id="180608862" order="22" structure_id="1" d="M563.1,529.8    c-3.897,0.24-6.06,0.66-8.938,1.62c-3.63,1.23-5.16,2.01-5.16,2.58c0,1.35,6.12,4.62,10.95,5.88c4.02,1.021,8.67,1.08,13.95,0.15    c7.14-1.261,21.027-4.473,21.54-4.98c0.327-0.33-0.66-1.77-1.711-2.46c-1.229-0.84-4.172-1.77-6.842-2.188    C582.21,529.65,570.33,529.35,563.1,529.8z" style="stroke:black;fill:#BFDAE3"/><path id="180623552" parent_id="180608862" order="23" structure_id="1" d="M732.45,323.43c-0.813-1.59-3.063-3.18-8.73-6.15c-9.09-4.77-12.06-6.45-15.688-8.79    c-11.58-7.53-16.021-12.75-21.33-24.99c-3.51-8.1-4.23-9.63-5.73-12.15c-3.147-5.31-7.26-8.97-16.229-14.34    c-6.271-3.81-16.021-8.43-21.42-10.229l-2.4-0.78l-4.05,1.35c-7.86,2.7-11.67,4.62-15.3,7.68c-3.63,3.09-10.23,7.92-24.42,17.85    c-11.07,7.77-13.92,9.51-20.25,12.42c-2.46,1.11-3.21,1.65-5.313,3.78c-7.71,7.71-18.09,13.32-24.12,12.96    c-3.33-0.18-4.857-1.8-4.89-5.19l-0.03-1.89H540v17.235c1.161-0.007,2.313-0.125,4.32-0.345c8.16-0.87,9.18-1.26,9.18-3.6    c0-1.11,0.18-1.44,1.23-2.52c2.55-2.55,8.067-6.33,12.537-8.58c6.603-3.3,28.713-17.85,42.183-27.69    c14.46-10.59,17.607-12.69,22.05-14.88l3.12-1.53l3.03,0.03c9.6,0.12,25.56,8.31,30.72,15.81c3.27,4.77,4.68,11.04,3.479,15.63    c-1.438,5.46-6.688,12.48-13.38,17.88c-9.84,7.92-21.18,13.38-41.37,19.89c-12.18,3.96-17.908,6.42-20.25,8.79    c-1.14,1.11-1.38,2.46-0.63,3.09c0.99,0.84,4.11,0.99,11.13,0.57c9.933-0.57,12.87-0.51,14.61,0.27c2.16,0.99,2.67,2.34,1.86,5.1    c-0.271,0.96,0.39,0.9,2.817-0.33c4.353-2.16,8.82-3.12,12.063-2.58c1.647,0.27,2.699,0.24,6.33-0.27    c10.38-1.44,19.14-1.74,23.76-0.84c6.57,1.32,13.859,4.86,18.18,8.88c1.5,1.38,1.892,1.59,4.62,2.28    c4.29,1.08,8.88,1.47,12.57,1.08c6.357-0.69,17.55-5.13,21.688-8.64c2.643-2.22,4.98-5.31,6.15-8.1c0.75-1.83,0.9-2.55,0.9-4.74    C732.9,325.17,732.75,323.97,732.45,323.43z" style="stroke:black;fill:#BFDAE3"/><path id="180623552" parent_id="180608862" order="24" structure_id="1" d="M560.55,355.02    c-0.87,1.5-1.2,3.36-1.47,8.25l-0.21,3.42l1.89-0.21c6.09-0.63,11.643-3.39,11.643-5.76c0-1.8-1.592-3.51-4.021-4.32    c-1.02-0.33-2.76-1.08-3.897-1.65c-1.173-0.57-2.343-1.05-2.643-1.05S561,354.24,560.55,355.02z" style="stroke:black;fill:#BFDAE3"/><path id="180623552" parent_id="180608862" order="25" structure_id="1" d="M551.4,312.69    c0,0.24,0.447,2.07,1.02,4.14c2.67,9.72,6.87,17.79,11.76,22.62c3.513,3.48,7.44,5.16,15.271,6.51c3.03,0.51,4.438,0.57,9,0.45    c8.25-0.24,11.97-1.38,17.16-5.34c3-2.28,3.987-3.42,3.987-4.53c0-1.53-0.237-1.59-4.979-1.47l-4.41,0.09l-1.41,1.02    c-5.55,3.99-13.979,5.19-21.6,3.09c-6.15-1.68-9.392-4.83-17.55-17.07c-2.37-3.54-5.012-7.23-5.853-8.19    C552.3,312.36,551.4,311.85,551.4,312.69z" style="stroke:black;fill:#BFDAE3"/><path id="180623552" parent_id="180608862" order="26" structure_id="1" d="M540.9,605.79v17.19l1.947,1.56    c1.08,0.87,2.103,1.56,2.25,1.56c0.393,0,0.393-0.75,0-2.1c-0.657-2.49-0.96-6.9-1.197-18.15c-0.24-12.51-0.42-14.188-1.71-16.38    C540.93,587.34,540.9,587.7,540.9,605.79z" style="stroke:black;fill:#BFDAE3"/><path id="180623552" parent_id="180608862" order="27" structure_id="1" d="M557.1,638.46    c0,0.18,0.33,1.021,0.723,1.86c2.55,5.43,2.01,11.52-1.353,14.88c-0.777,0.78-1.739,1.53-2.067,1.647    c-1.021,0.33-0.66,0.87,1.14,1.71c1.56,0.723,2.4,0.843,9.78,1.473c9,0.72,8.397,0.81,8.76-1.5c0.57-3.78-2.13-8.4-7.38-12.603    c-1.41-1.107-3.96-3.33-5.7-4.92C558,638.25,557.1,637.65,557.1,638.46z" style="stroke:black;fill:#BFDAE3"/><path id="180623552" parent_id="180608862" order="28" structure_id="1" d="M551.79,661.56c-3.54,0.12-4.62,0.271-7.53,1.11c-1.89,0.54-3.779,0.99-4.229,0.99    c-0.008,0-0.022-0.002-0.03-0.002v5.588c5.538,0.058,9.056-0.772,12.24-2.886c1.738-1.143,3.659-3.42,3.659-4.32    C555.9,661.47,555.72,661.44,551.79,661.56z" style="stroke:black;fill:#BFDAE3"/><path id="180623552" parent_id="180608862" order="29" structure_id="1" d="M858,449.01    c-0.03,6.36-1.59,19.65-3.51,29.58l-0.78,4.11l1.53,2.938c1.83,3.54,3.479,8.343,3.96,11.61c0.54,3.57,0.567,3.75,1.02,3.75    c0.271,0,0.48-1.021,0.75-3.84c1.5-16.563,0.96-32.853-1.5-45.9c-0.45-2.37-0.75-3.357-1.05-3.357    C858.15,447.9,858,448.26,858,449.01z" style="stroke:black;fill:#BFDAE3"/><path id="180623552" parent_id="180608862" order="30" structure_id="1" d="M589.53,517.5c-0.15,0-4.23,0.81-9.063,1.77c-10.527,2.103-14.01,2.521-19.77,2.37l-4.353-0.09l-5.1-2.16    c-2.79-1.17-5.94-2.34-6.93-2.607c-1.251-0.319-2.773-0.465-4.32-0.453v14.261c0.439-0.003,0.887-0.005,1.35-0.008l15.303-0.09    l5.25-0.933c9.27-1.617,15.6-3.447,20.397-5.938C586.11,521.67,591.03,517.5,589.53,517.5z" style="stroke:black;fill:#BFDAE3"/><path id="180623552" parent_id="180608862" order="31" structure_id="1" d="M732.45,323.43c-0.813-1.59-3.063-3.18-8.73-6.15c-9.09-4.77-12.06-6.45-15.688-8.79    c-11.58-7.53-16.021-12.75-21.33-24.99c-3.51-8.1-4.23-9.63-5.73-12.15c-3.147-5.31-7.26-8.97-16.229-14.34    c-6.271-3.81-16.021-8.43-21.42-10.229l-2.4-0.78l-4.05,1.35c-7.86,2.7-11.67,4.62-15.3,7.68c-3.63,3.09-10.23,7.92-24.42,17.85    c-11.07,7.77-13.92,9.51-20.25,12.42c-2.46,1.11-3.21,1.65-5.313,3.78c-7.71,7.71-18.09,13.32-24.12,12.96    c-3.33-0.18-4.857-1.8-4.89-5.19l-0.03-1.89H540v17.235c1.161-0.007,2.313-0.125,4.32-0.345c8.16-0.87,9.18-1.26,9.18-3.6    c0-1.11,0.18-1.44,1.23-2.52c2.55-2.55,8.067-6.33,12.537-8.58c6.603-3.3,28.713-17.85,42.183-27.69    c14.46-10.59,17.607-12.69,22.05-14.88l3.12-1.53l3.03,0.03c9.6,0.12,25.56,8.31,30.72,15.81c3.27,4.77,4.68,11.04,3.479,15.63    c-1.438,5.46-6.688,12.48-13.38,17.88c-9.84,7.92-21.18,13.38-41.37,19.89c-12.18,3.96-17.908,6.42-20.25,8.79    c-1.14,1.11-1.38,2.46-0.63,3.09c0.99,0.84,4.11,0.99,11.13,0.57c9.933-0.57,12.87-0.51,14.61,0.27c2.16,0.99,2.67,2.34,1.86,5.1    c-0.271,0.96,0.39,0.9,2.817-0.33c4.353-2.16,8.82-3.12,12.063-2.58c1.647,0.27,2.699,0.24,6.33-0.27    c10.38-1.44,19.14-1.74,23.76-0.84c6.57,1.32,13.859,4.86,18.18,8.88c1.5,1.38,1.892,1.59,4.62,2.28    c4.29,1.08,8.88,1.47,12.57,1.08c6.357-0.69,17.55-5.13,21.688-8.64c2.643-2.22,4.98-5.31,6.15-8.1c0.75-1.83,0.9-2.55,0.9-4.74    C732.9,325.17,732.75,323.97,732.45,323.43z" style="stroke:black;fill:#BFDAE3"/><path id="180623552" parent_id="180608862" order="32" structure_id="1" d="M722.55,354.63    c-0.99,0.33-2.729,0.69-3.87,0.78l-2.04,0.18l0.12,2.49c0.063,1.38,0.24,2.61,0.33,2.73c0.3,0.27,5.25-0.63,7.8-1.41l2.04-0.63    l-0.21-1.11c-0.12-0.6-0.357-1.65-0.54-2.31C725.76,353.88,725.16,353.79,722.55,354.63z" style="stroke:black;fill:#BFDAE3"/><path id="180623552" parent_id="180608862" order="33" structure_id="1" d="M674.85,583.59    c-1.77,0.603-3,1.29-6.147,3.45c-5.433,3.72-7.8,6.36-7.8,8.61c0,2.43,2.13,3.18,5.58,1.979c4.26-1.5,11.397-6.75,12.75-9.359    C680.94,584.91,678.57,582.39,674.85,583.59z" style="stroke:black;fill:#BFDAE3"/><path id="180623552" parent_id="180608862" order="34" structure_id="1" d="M601.35,648.27    c-1.647,0.303-4.83,0.99-7.05,1.5c-6.87,1.62-11.16,1.803-17.46,0.75c-1.41-0.237-3.147-0.63-3.84-0.867    c-2.28-0.813-2.61-0.513-1.38,1.14c0.39,0.54,1.108,1.71,1.56,2.61c0.78,1.47,0.87,1.947,0.87,4.5v2.85l2.55,0.271    c1.41,0.118,6.48,0.271,11.25,0.271c9.21,0.03,12.48-0.24,19.41-1.65l3.21-0.657l0.78-1.712c1.11-2.521,1.29-4.979,0.479-6.688    c-0.961-1.95-2.25-2.67-5.101-2.76C605.28,647.76,603.12,647.94,601.35,648.27z" style="stroke:black;fill:#BFDAE3"/><path id="180623552" parent_id="180608862" order="35" structure_id="1" d="M753.33,572.13    c-2.49,1.26-4.23,3.39-4.23,5.19c0,1.59,0.393,1.979,1.95,1.979c3.33-0.03,7.353-3.51,7.353-6.39    C758.4,570.93,756.33,570.63,753.33,572.13z" style="stroke:black;fill:#BFDAE3"/><path id="180623552" parent_id="180608862" order="36" structure_id="1" d="M676.05,495.81    c-0.479,0.271-2.1,0.99-3.6,1.593c-1.83,0.75-3.813,1.92-6.15,3.6c-21.81,15.87-44.938,27.45-66.21,33.18l-4.29,1.143v1.14    c0,1.53-0.96,2.55-5.22,5.58c-5.07,3.63-9.33,6.271-14.88,9.24c-5.94,3.147-11.91,6.66-16.2,9.51    c-12.33,8.22-16.83,14.67-17.31,24.84c-0.15,2.82-0.093,3.63,0.327,4.41c1.23,2.37,1.41,4.29,1.683,17.16    c0.24,13.02,0.567,16.35,1.77,19.02c0.603,1.32,7.353,8.342,9.54,9.933c0.69,0.51,3.063,2.55,5.25,4.527    c5.94,5.433,8.76,7.592,10.893,8.37c3.63,1.38,6.479,1.801,12.3,1.771c5.397,0,5.397,0,11.7-1.44c5.58-1.318,6.72-1.47,9.897-1.5    c3.3-0.028,3.69,0.03,4.59,0.66c0.54,0.391,1.263,1.26,1.62,1.95c0.511,1.05,0.603,1.59,0.45,3.42    c-0.09,1.26-0.06,2.188,0.12,2.188c0.15,0,1.11-0.688,2.13-1.528c3.93-3.183,8.22-4.59,15.39-5.103c4.5-0.33,4.5-0.33,6.303-1.5    c2.277-1.438,3.06-2.729,6.18-9.93c3.99-9.18,5.1-10.95,9.96-15.87c6.271-6.358,13.86-12.87,23.13-19.89    c6.78-5.13,10.021-7.143,12.69-7.98c2.817-0.87,4.199-0.39,5.37,1.83c1.737,3.392,1.71,13.021-0.03,19.83    c-0.33,1.2-0.391,1.892-0.182,2.01c0.569,0.36,1.199,2.313,1.829,5.763c1.171,6.329,1.23,6.567,1.65,6.567    c0.24,0,0.48-0.27,0.6-0.6c0.303-0.99,1.62-1.8,2.94-1.8h1.17l-0.18-1.591c-0.9-7.142-1.41-30.932-0.813-37.71    c0.63-7.199,1.74-12.33,3.48-16.109c2.729-5.88,8.25-11.91,13.107-14.34c1.71-0.842,3.393-1.44,4.32-1.563    c2.22-0.239,2.34-0.357,1.89-1.92c-0.6-2.1-0.447-7.53,0.303-10.29c0.567-2.188,2.64-6.81,3.81-8.64c0.3-0.45,0.45-0.9,0.33-1.021    c-0.12-0.12-1.68-0.06-3.45,0.15c-1.77,0.21-4.89,0.45-6.96,0.54c-3.06,0.148-3.99,0.3-5.1,0.87c-8.82,4.38-19.26,6.66-26.7,5.817    c-8.85-0.987-13.26-3.96-15.12-10.197c-2.49-8.342,0.24-22.98,6.3-33.631c0.723-1.289,1.32-2.489,1.32-2.672    C678,495.15,677.07,495.24,676.05,495.81z M651.15,525.57c3.119,1.41,4.02,4.979,1.857,7.41c-1.71,1.979-3.72,2.43-5.91,1.317    c-1.56-0.78-2.46-2.16-2.64-3.93c-0.18-1.95,0.9-3.84,2.7-4.74C648.72,524.85,649.59,524.85,651.15,525.57z M619.59,546.69    c3.33,2.52,5.07,9.327,5.07,19.71c0,8.157-0.99,12.81-3.24,15.119c-1.89,1.948-3.99,1.318-5.188-1.592    c-0.24-0.51-0.57-0.93-0.78-0.93c-0.271,0-0.42,1.35-0.54,5.16c-0.12,3.78-0.33,5.88-0.78,7.647    c-1.62,6.421-4.858,10.593-9.54,12.24c-3.688,1.32-10.647,0.87-20.64-1.319c-2.313-0.511-4.44-0.931-4.71-0.931    c-1.17,0-0.42,0.813,1.979,2.19c7.23,4.08,11.79,7.56,17.58,13.38c3.78,3.78,4.893,5.1,5.853,6.93l1.197,2.25l-0.027,3.75    c0,4.17-0.513,6.75-1.92,9.75c-1.92,4.08-4.29,5.643-10.5,6.9c-7.143,1.47-14.013,1.29-19.263-0.48    c-5.04-1.71-11.58-5.938-15.987-10.35c-4.74-4.71-7.382-9.39-8.58-15.271c-1.23-6-0.99-10.107,0.81-13.8    c2.19-4.438,9.33-8.55,14.88-8.55c1.353,0,1.74-0.09,1.74-0.45c0-0.24-0.12-0.45-0.271-0.45c-0.149,0-0.989-0.54-1.859-1.197    c-5.97-4.44-8.49-14.07-5.76-21.96c0.51-1.473,1.647-3.813,2.52-5.223c2.07-3.33,7.38-8.91,10.38-10.92    c4.353-2.91,9.96-5.1,14.643-5.729c2.34-0.303,2.938-0.303,4.38,0.12c2.729,0.81,4.318,2.97,4.68,6.39    c0.18,1.59,0.18,1.62,1.38,1.95c0.66,0.18,2.011,0.45,2.971,0.6c5.399,0.87,10.562,4.74,12.602,9.45    c0.39,0.87,0.87,1.62,1.108,1.62c0.512,0,0.479-0.36-1.141-11.25c-1.59-10.8-1.71-12.3-1.14-13.74c0.66-1.56,1.83-2.04,4.74-1.95    C618.18,545.85,618.66,545.97,619.59,546.69z M678.57,583.68c1.08,0.78,1.59,2.25,1.17,3.48c-0.813,2.37-2.79,4.38-7.17,7.229    c-4.41,2.853-8.07,4.353-9.69,3.933c-1.05-0.24-2.28-1.563-2.28-2.433c0-1.17,1.17-3.12,2.973-4.89c2.58-2.58,8.64-6.6,11.43-7.59    C675.96,583.08,677.91,583.23,678.57,583.68z" style="stroke:black;fill:#BFDAE3"/><path id="180623552" parent_id="180608862" order="37" structure_id="1" d="M597.15,357.18    c-6.15,0.6-18.99,0.87-22.62,0.45c-1.71-0.18-3.183-0.27-3.271-0.18c-0.09,0.09,0.12,0.69,0.48,1.32    c1.229,2.19,0.63,3.81-1.95,5.19c-1.47,0.81-5.67,2.16-7.65,2.49c-1.5,0.24-1.47,0.81,0.15,1.98c2.88,2.13,8.67,4.23,15.06,5.46    c5.763,1.11,9.96,1.5,15.45,1.35c4.38-0.09,5.103-0.18,6.3-0.75c0.75-0.36,1.53-0.96,1.771-1.32c0.21-0.36,0.57-2.31,0.81-4.29    c0.54-4.74,1.143-7.56,2.07-9.9c0.42-1.02,0.75-1.98,0.75-2.07C604.5,356.61,601.74,356.73,597.15,357.18z" style="stroke:black;fill:#BFDAE3"/><path id="180623552" parent_id="180608862" order="38" structure_id="1" d="M732.45,323.43c-0.813-1.59-3.063-3.18-8.73-6.15c-9.09-4.77-12.06-6.45-15.688-8.79    c-11.58-7.53-16.021-12.75-21.33-24.99c-3.51-8.1-4.23-9.63-5.73-12.15c-3.147-5.31-7.26-8.97-16.229-14.34    c-6.271-3.81-16.021-8.43-21.42-10.229l-2.4-0.78l-4.05,1.35c-7.86,2.7-11.67,4.62-15.3,7.68c-3.63,3.09-10.23,7.92-24.42,17.85    c-11.07,7.77-13.92,9.51-20.25,12.42c-2.46,1.11-3.21,1.65-5.313,3.78c-7.71,7.71-18.09,13.32-24.12,12.96    c-3.33-0.18-4.857-1.8-4.89-5.19l-0.03-1.89H540v17.235c1.161-0.007,2.313-0.125,4.32-0.345c8.16-0.87,9.18-1.26,9.18-3.6    c0-1.11,0.18-1.44,1.23-2.52c2.55-2.55,8.067-6.33,12.537-8.58c6.603-3.3,28.713-17.85,42.183-27.69    c14.46-10.59,17.607-12.69,22.05-14.88l3.12-1.53l3.03,0.03c9.6,0.12,25.56,8.31,30.72,15.81c3.27,4.77,4.68,11.04,3.479,15.63    c-1.438,5.46-6.688,12.48-13.38,17.88c-9.84,7.92-21.18,13.38-41.37,19.89c-12.18,3.96-17.908,6.42-20.25,8.79    c-1.14,1.11-1.38,2.46-0.63,3.09c0.99,0.84,4.11,0.99,11.13,0.57c9.933-0.57,12.87-0.51,14.61,0.27c2.16,0.99,2.67,2.34,1.86,5.1    c-0.271,0.96,0.39,0.9,2.817-0.33c4.353-2.16,8.82-3.12,12.063-2.58c1.647,0.27,2.699,0.24,6.33-0.27    c10.38-1.44,19.14-1.74,23.76-0.84c6.57,1.32,13.859,4.86,18.18,8.88c1.5,1.38,1.892,1.59,4.62,2.28    c4.29,1.08,8.88,1.47,12.57,1.08c6.357-0.69,17.55-5.13,21.688-8.64c2.643-2.22,4.98-5.31,6.15-8.1c0.75-1.83,0.9-2.55,0.9-4.74    C732.9,325.17,732.75,323.97,732.45,323.43z" style="stroke:black;fill:#BFDAE3"/><path id="180623552" parent_id="180608862" order="39" structure_id="1" d="M568.35,288.81    c-6.06,2.31-18.147,5.34-23.817,5.94l-1.893,0.21l0.12,2.22c0.183,3.6,1.473,4.74,5.34,4.74c2.94-0.03,5.82-0.9,10.2-3.15    c4.11-2.1,8.22-5.01,11.46-8.04C573.24,287.46,572.94,287.04,568.35,288.81z" style="stroke:black;fill:#BFDAE3"/><path id="180623552" parent_id="180608862" order="40" structure_id="1" d="M603.03,383.34    c-0.75,1.11-3.33,3.96-5.761,6.36l-4.409,4.35l-0.21,1.8c-0.33,2.88-1.86,8.73-2.82,10.74c-1.05,2.16-3.03,4.29-5.07,5.4    c-3.39,1.83-10.317,2.91-18.84,2.91c-3.03,0-5.52,0.09-5.52,0.21c0,0.147,0.867,2.938,1.89,6.237c1.47,4.62,2.04,6.03,2.43,6.093    c0.723,0.147,5.28-1.473,8.79-3.093c14.853-6.897,26.521-19.317,33.96-36.18c0.84-1.92,1.53-3.6,1.5-3.75    c-0.027-0.39-3.75-3.12-4.229-3.12C604.53,381.3,603.75,382.23,603.03,383.34z" style="stroke:black;fill:#BFDAE3"/><path id="180623552" parent_id="180608862" order="41" structure_id="1" d="M556.05,658.92c-1.47-1.17-3.12-1.439-6.99-1.17c-2.141,0.154-5.53,0.236-9.06,0.244v5.603    c0.465-0.017,2.464-0.517,4.5-1.104c3.57-1.05,3.96-1.08,7.86-1.05l4.107,0.027l0.21-0.93    C556.83,659.73,556.74,659.49,556.05,658.92z" style="stroke:black;fill:#BFDAE3"/><path id="180623552" parent_id="180608862" order="42" structure_id="1" d="M593.7,562.77    c-5.46,5.553-17.431,10.23-34.41,13.41c-0.87,0.15-1.08,1.29-1.05,5.223c0.029,7.17,3.147,13.229,8.1,15.84    c5.04,2.67,20.34,6.42,29.643,7.29c6.63,0.63,10.438-0.45,13.59-3.78c1.8-1.89,3.66-5.58,4.35-8.58    c1.23-5.25,1.23-12.479,0.03-17.25c-1.26-4.979-4.74-9.6-8.7-11.55c-1.77-0.87-8.189-2.43-9.45-2.313    C595.56,561.09,594.6,561.84,593.7,562.77z" style="stroke:black;fill:#BFDAE3"/><path id="180623552" parent_id="180608862" order="43" structure_id="1" d="M544.11,655.41c-2.343-2.79-2.521-3.18-2.88-6.063c-0.24-1.89-0.33-19.59-0.33-58.29V535.5H540v122.4    c3.51,0,5.4-0.24,5.4-0.66C545.4,657.09,544.83,656.25,544.11,655.41z" style="stroke:black;fill:#BFDAE3"/><path id="180623552" parent_id="180608862" order="44" structure_id="1" d="M540.9,628.44v4.77l3.237,0.18    c1.771,0.12,4.29,0.393,5.61,0.66c3,0.57,2.91,0.57,2.79-0.21c-0.15-1.05-10.2-10.14-11.22-10.14    C540.99,623.7,540.9,624.57,540.9,628.44z" style="stroke:black;fill:#BFDAE3"/><path id="180623552" parent_id="180608862" order="45" structure_id="1" d="M606.51,476.85    c-2.55,1.74-8.13,3.12-10.89,2.7c-0.78-0.09-1.32-0.06-1.32,0.09c0,0.15,0.33,1.021,0.75,1.893c2.16,4.77,1.47,10.527-1.8,14.487    c-0.57,0.723-1.05,1.473-1.05,1.713c0,0.3,0.897,0.657,2.67,1.107c4.2,1.08,6.57,2.103,7.979,3.48    c1.44,1.38,2.103,3.147,1.771,4.83c-0.15,0.84-0.09,1.05,0.27,1.05c0.42,0,3.03-0.9,7.2-2.46c0.45-0.15,0.813-0.48,0.813-0.723    c0-0.27-0.33-0.42-0.813-0.42c-1.26,0-3.75-1.29-5.04-2.55c-1.47-1.5-2.79-4.38-3.03-6.6c-0.27-2.61,0.513-6.24,2.763-12.99    c1.05-3.21,1.92-6,1.92-6.24C608.7,475.59,608.1,475.74,606.51,476.85z" style="stroke:black;fill:#BFDAE3"/><path id="180623552" parent_id="180608862" order="46" structure_id="1" d="M589.8,536.73    c-5.52,1.407-13.26,3.027-17.79,3.72c-2.7,0.42-3.897,0.81-7.05,2.25c-5.46,2.46-16.11,7.83-20.37,10.26l-3.688,2.07v16.5    c0,13.647,0.06,16.47,0.42,16.47c0.27,0,0.447-0.69,0.567-2.49c0.54-6.688,3.271-12.567,8.07-17.31    c4.771-4.74,14.25-10.95,27.09-17.73c4.17-2.22,13.143-7.979,16.44-10.62c1.74-1.38,2.31-2.277,2.31-3.63    C595.8,535.26,595.53,535.29,589.8,536.73z" style="stroke:black;fill:#BFDAE3"/><path id="180623552" parent_id="180608862" order="47" structure_id="1" d="M715.02,638.58    c-0.21,0.09-0.3,0.84-0.21,2.16c0.24,3.66-1.38,5.34-5.1,5.277c-1.68-0.027-2.01,0.03-1.95,0.423c0.12,0.567,5.49,3.3,9.24,4.68    c12.27,4.56,41.04,10.47,66.39,13.68c5.433,0.69,9.9,1.2,9.96,1.143c0.271-0.303,0.813-8.461,0.66-10.263    c-0.18-2.04-0.66-3.96-1.107-4.47c-0.12-0.15-2.49,0-5.28,0.271c-7.08,0.75-24.36,0.777-31.021,0.027    c-14.188-1.59-25.89-4.56-33.987-8.67c-2.4-1.2-5.223-3.12-5.7-3.87C716.58,638.43,715.77,638.28,715.02,638.58z" style="stroke:black;fill:#BFDAE3"/><path id="180623552" parent_id="180608862" order="48" structure_id="1" d="M632.43,224.43    c-14.188,1.5-24.09,7.32-30.72,18.12c-1.95,3.18-5.76,8.43-6.6,9.12c-0.271,0.21-0.513,0.6-0.513,0.81    c0,1.23,2.521-0.36,7.98-4.98c7.2-6.18,13.14-10.2,19.74-13.38c6-2.88,10.14-4.02,18.027-4.98c4.92-0.57,22.563-0.48,29.19,0.15    c6.24,0.6,6.36,0.63,6.36,0.12c0-0.45-4.353-1.95-8.433-2.91c-3.39-0.78-9.45-1.71-13.92-2.07    C649.29,224.04,636.03,224.07,632.43,224.43z" style="stroke:black;fill:#BFDAE3"/><path id="180623552" parent_id="180608862" order="49" structure_id="1" d="M746.37,297.33    c-2.49,3.66-3.63,7.11-4.59,13.8c-0.69,4.62-0.63,7.05,0.21,8.67c0.42,0.84,0.96,1.44,1.438,1.62c0.66,0.24,0.96,0.12,1.893-0.72    c2.22-2.01,3.81-5.88,5.01-12.09c1.229-6.21,0.81-11.4-1.021-12.66C748.2,295.17,747.69,295.41,746.37,297.33z" style="stroke:black;fill:#BFDAE3"/><path id="180623552" parent_id="180608862" order="50" structure_id="1" d="M560.34,351.9c-2.04-1.38-7.05-6.18-9.27-8.88c-0.96-1.17-2.61-3.42-3.69-5.04    c-4.14-6.09-5.61-10.11-6.96-19.02c-0.079-0.557-0.245-0.87-0.42-0.964v28.806c5.782,0.017,10.776,1.64,17.64,5.759    c1.353,0.81,2.46,1.62,2.46,1.77s0.15,0.27,0.303,0.27c0.357,0,1.5-1.11,1.5-1.44C561.9,353.04,561.18,352.47,560.34,351.9z" style="stroke:black;fill:#BFDAE3"/><path id="180623552" parent_id="180608862" order="51" structure_id="1" d="M742.5,330.09    c-1.35,0.57-1.65,0.84-1.83,1.56c-0.09,0.51-0.54,1.65-1.02,2.55c-2.07,4.05-2.73,7.02-1.83,8.25c0.51,0.72,2.34,0.75,4.68,0.12    c1.59-0.45,1.68-0.51,2.16-2.01c0.75-2.19,1.2-5.4,0.99-6.96c-0.303-2.43-0.813-4.2-1.143-4.2    C744.3,329.43,743.4,329.73,742.5,330.09z" style="stroke:black;fill:#BFDAE3"/><path id="180623552" parent_id="180608862" order="52" structure_id="1" d="M704.25,354.42    c-0.18,0.84-0.06,1.35,0.54,2.34c1.65,2.85,5.4,4.44,10.35,4.44h1.95l-0.21-1.14c-0.09-0.6-0.18-1.86-0.18-2.79v-1.68l-2.82-0.21    c-2.37-0.15-6-0.9-8.79-1.83C704.52,353.37,704.4,353.49,704.25,354.42z" style="stroke:black;fill:#BFDAE3"/><path id="180623552" parent_id="180608862" order="53" structure_id="1" d="M540.93,640.71c0,4.11,0.12,8.16,0.24,9    c0.24,1.74,1.44,3.69,3.87,6.33l1.47,1.56l3.57-0.18c2.76-0.15,3.78-0.33,4.53-0.78c1.59-0.96,3.54-3.357,4.08-5.04    c0.987-3.027,0.479-8.487-1.021-11.487c-0.93-1.802-3.15-4.563-4.02-4.95c-1.5-0.69-9.12-1.83-12.36-1.86    C540.99,633.3,540.9,634.98,540.93,640.71z" style="stroke:black;fill:#BFDAE3"/><path id="180623552" parent_id="180608862" order="54" structure_id="1" d="M561.9,368.16c-0.48-0.39-0.9-0.87-0.9-1.11c0-0.3-0.36-0.48-1.11-0.51c-2.46-0.12-3.6,0.15-8.487,2.01    c-5.447,2.108-9.057,3.095-11.4,3.142v4.446c0.444,0.007,0.857,0,1.229-0.028c2.971-0.24,7.648-1.23,11.851-2.49    c1.86-0.57,3.99-1.02,4.74-1.02s1.38-0.12,1.38-0.27s0.42-0.42,0.93-0.66c1.32-0.54,2.67-1.71,2.67-2.34    C562.8,369.06,562.41,368.52,561.9,368.16z" style="stroke:black;fill:#BFDAE3"/><path id="180623552" parent_id="180608862" order="55" structure_id="1" d="M540,530.44v5.065c0.499,0.021,0.9,0.129,0.9,0.292c0,0.69,2.607,0.271,4.77-0.75    c1.2-0.567,2.37-1.05,2.641-1.05c0.239,0,0.632-0.21,0.869-0.45c0.24-0.24,1.44-0.81,2.67-1.26c1.23-0.45,2.25-0.99,2.25-1.17    C554.1,530.833,545.504,530.456,540,530.44z" style="stroke:black;fill:#BFDAE3"/><path id="180623552" parent_id="180608862" order="56" structure_id="1" d="M798.6,584.64    c0,1.893-3.84,7.08-6.147,8.313c-1.353,0.75-1.26,1.317,0.3,1.8c2.88,0.84,5.521,2.97,6.42,5.16c0.75,1.857,1.08,1.17,1.771-3.72    c0.39-2.58,0.84-4.803,1.02-4.923c0.24-0.147-0.03-1.02-0.87-2.88c-0.688-1.438-1.319-3-1.438-3.479    C799.41,584.01,798.6,583.8,798.6,584.64z" style="stroke:black;fill:#BFDAE3"/><path id="180623552" parent_id="180608862" order="57" structure_id="1" d="M676.05,495.81    c-0.479,0.271-2.1,0.99-3.6,1.593c-1.83,0.75-3.813,1.92-6.15,3.6c-21.81,15.87-44.938,27.45-66.21,33.18l-4.29,1.143v1.14    c0,1.53-0.96,2.55-5.22,5.58c-5.07,3.63-9.33,6.271-14.88,9.24c-5.94,3.147-11.91,6.66-16.2,9.51    c-12.33,8.22-16.83,14.67-17.31,24.84c-0.15,2.82-0.093,3.63,0.327,4.41c1.23,2.37,1.41,4.29,1.683,17.16    c0.24,13.02,0.567,16.35,1.77,19.02c0.603,1.32,7.353,8.342,9.54,9.933c0.69,0.51,3.063,2.55,5.25,4.527    c5.94,5.433,8.76,7.592,10.893,8.37c3.63,1.38,6.479,1.801,12.3,1.771c5.397,0,5.397,0,11.7-1.44c5.58-1.318,6.72-1.47,9.897-1.5    c3.3-0.028,3.69,0.03,4.59,0.66c0.54,0.391,1.263,1.26,1.62,1.95c0.511,1.05,0.603,1.59,0.45,3.42    c-0.09,1.26-0.06,2.188,0.12,2.188c0.15,0,1.11-0.688,2.13-1.528c3.93-3.183,8.22-4.59,15.39-5.103c4.5-0.33,4.5-0.33,6.303-1.5    c2.277-1.438,3.06-2.729,6.18-9.93c3.99-9.18,5.1-10.95,9.96-15.87c6.271-6.358,13.86-12.87,23.13-19.89    c6.78-5.13,10.021-7.143,12.69-7.98c2.817-0.87,4.199-0.39,5.37,1.83c1.737,3.392,1.71,13.021-0.03,19.83    c-0.33,1.2-0.391,1.892-0.182,2.01c0.569,0.36,1.199,2.313,1.829,5.763c1.171,6.329,1.23,6.567,1.65,6.567    c0.24,0,0.48-0.27,0.6-0.6c0.303-0.99,1.62-1.8,2.94-1.8h1.17l-0.18-1.591c-0.9-7.142-1.41-30.932-0.813-37.71    c0.63-7.199,1.74-12.33,3.48-16.109c2.729-5.88,8.25-11.91,13.107-14.34c1.71-0.842,3.393-1.44,4.32-1.563    c2.22-0.239,2.34-0.357,1.89-1.92c-0.6-2.1-0.447-7.53,0.303-10.29c0.567-2.188,2.64-6.81,3.81-8.64c0.3-0.45,0.45-0.9,0.33-1.021    c-0.12-0.12-1.68-0.06-3.45,0.15c-1.77,0.21-4.89,0.45-6.96,0.54c-3.06,0.148-3.99,0.3-5.1,0.87c-8.82,4.38-19.26,6.66-26.7,5.817    c-8.85-0.987-13.26-3.96-15.12-10.197c-2.49-8.342,0.24-22.98,6.3-33.631c0.723-1.289,1.32-2.489,1.32-2.672    C678,495.15,677.07,495.24,676.05,495.81z M651.15,525.57c3.119,1.41,4.02,4.979,1.857,7.41c-1.71,1.979-3.72,2.43-5.91,1.317    c-1.56-0.78-2.46-2.16-2.64-3.93c-0.18-1.95,0.9-3.84,2.7-4.74C648.72,524.85,649.59,524.85,651.15,525.57z M619.59,546.69    c3.33,2.52,5.07,9.327,5.07,19.71c0,8.157-0.99,12.81-3.24,15.119c-1.89,1.948-3.99,1.318-5.188-1.592    c-0.24-0.51-0.57-0.93-0.78-0.93c-0.271,0-0.42,1.35-0.54,5.16c-0.12,3.78-0.33,5.88-0.78,7.647    c-1.62,6.421-4.858,10.593-9.54,12.24c-3.688,1.32-10.647,0.87-20.64-1.319c-2.313-0.511-4.44-0.931-4.71-0.931    c-1.17,0-0.42,0.813,1.979,2.19c7.23,4.08,11.79,7.56,17.58,13.38c3.78,3.78,4.893,5.1,5.853,6.93l1.197,2.25l-0.027,3.75    c0,4.17-0.513,6.75-1.92,9.75c-1.92,4.08-4.29,5.643-10.5,6.9c-7.143,1.47-14.013,1.29-19.263-0.48    c-5.04-1.71-11.58-5.938-15.987-10.35c-4.74-4.71-7.382-9.39-8.58-15.271c-1.23-6-0.99-10.107,0.81-13.8    c2.19-4.438,9.33-8.55,14.88-8.55c1.353,0,1.74-0.09,1.74-0.45c0-0.24-0.12-0.45-0.271-0.45c-0.149,0-0.989-0.54-1.859-1.197    c-5.97-4.44-8.49-14.07-5.76-21.96c0.51-1.473,1.647-3.813,2.52-5.223c2.07-3.33,7.38-8.91,10.38-10.92    c4.353-2.91,9.96-5.1,14.643-5.729c2.34-0.303,2.938-0.303,4.38,0.12c2.729,0.81,4.318,2.97,4.68,6.39    c0.18,1.59,0.18,1.62,1.38,1.95c0.66,0.18,2.011,0.45,2.971,0.6c5.399,0.87,10.562,4.74,12.602,9.45    c0.39,0.87,0.87,1.62,1.108,1.62c0.512,0,0.479-0.36-1.141-11.25c-1.59-10.8-1.71-12.3-1.14-13.74c0.66-1.56,1.83-2.04,4.74-1.95    C618.18,545.85,618.66,545.97,619.59,546.69z M678.57,583.68c1.08,0.78,1.59,2.25,1.17,3.48c-0.813,2.37-2.79,4.38-7.17,7.229    c-4.41,2.853-8.07,4.353-9.69,3.933c-1.05-0.24-2.28-1.563-2.28-2.433c0-1.17,1.17-3.12,2.973-4.89c2.58-2.58,8.64-6.6,11.43-7.59    C675.96,583.08,677.91,583.23,678.57,583.68z" style="stroke:black;fill:#BFDAE3"/><path id="180623552" parent_id="180608862" order="58" structure_id="1" d="M552.45,432l-0.45-1.35h-12v31.979c2.053,0,4.108,0.09,7.14,0.271c3.9,0.21,8.82,0.447,10.95,0.51    c3.36,0.12,3.813,0.06,3.813-0.36C561.9,462.66,554.61,438.72,552.45,432z" style="stroke:black;fill:#BFDAE3"/><path id="180623552" parent_id="180608862" order="59" structure_id="1" d="M608.4,386.13c0,0.63-3.603,7.83-5.643,11.313    c-5.37,9.027-12.63,16.8-20.91,22.317c-7.47,4.98-18.867,9.183-27.96,10.32c-1.08,0.12-1.59,0.33-1.59,0.63    c0,0.24,2.25,7.68,4.98,16.56l5.01,16.143l3.78,0.18c8.397,0.393,16.89,2.46,18.6,4.53c0.6,0.72,1.05,0.57,1.65-0.57    c1.947-3.6,8.908-5.52,17.13-4.68c4.05,0.39,6.27,1.35,7.2,3.12c0.33,0.63,0.777,1.08,0.987,1.05    c0.603-0.12,4.683-8.04,5.61-10.86c0.45-1.38,1.17-4.979,1.68-8.43c1.021-6.87,1.41-8.729,2.7-12.96    c0.54-1.68,0.87-3.24,0.78-3.479c-0.09-0.238-0.57-0.539-1.08-0.658c-1.26-0.271-3.57-2.433-4.771-4.44    c-0.567-0.93-1.527-3.148-2.158-4.95c-2.46-6.93-3.869-16.35-4.949-32.55c-0.15-2.22-0.301-2.91-0.63-2.91    C608.58,385.8,608.4,385.95,608.4,386.13z" style="stroke:black;fill:#BFDAE3"/><path id="180623552" parent_id="180608862" order="60" structure_id="1" d="M671.55,374.91    c-1.83,5.25-4.14,10.83-5.04,12.18c-0.567,0.87-3.027,3.21-6.21,5.88c-10.8,9.15-24.54,21.27-27.45,24.18    c-8.277,8.31-11.58,15.39-13.527,29.1c-1.23,8.76-1.92,10.95-5.223,16.95c-2.369,4.26-3,6.147-2.46,7.317    c0.183,0.423,1.17,1.2,2.37,1.86c1.11,0.63,3.063,1.771,4.29,2.521c3.271,2.04,4.08,2.25,8.25,2.22    c2.643-0.03,4.86-0.271,8.4-0.96c2.64-0.51,8.91-1.681,13.95-2.61c18.657-3.45,21.027-4.438,32.55-13.62    c13.5-10.77,35.28-36.567,37.979-45c0.99-3.06,1.11-8.04,0.271-12.027c-0.87-4.353-3.69-12.813-4.83-14.49    c-1.83-2.76-5.7-4.62-11.103-5.34c-3.147-0.45-10.857-0.18-15.567,0.48c-4.563,0.66-8.67,0.51-10.41-0.39    c-2.28-1.2-3.66-3.81-4.38-8.34c-0.18-1.26-0.48-2.22-0.69-2.22C672.54,372.6,672,373.65,671.55,374.91z" style="stroke:black;fill:#BFDAE3"/><path id="180623552" parent_id="180608862" order="61" structure_id="1" d="M562.17,421.29c-1.68-5.43-2.04-6.36-2.91-7.14c-1.317-1.23-1.527-2.16-1.74-8.16    c-0.147-3.78-0.3-5.19-0.567-5.19c-0.21,0-1.11,0.33-2.01,0.75c-3.55,1.633-9.248,2.455-14.94,2.472v26.625    c5.115-0.004,10.234-0.19,12.9-0.564c4.229-0.57,10.5-1.89,10.92-2.313C564,427.62,563.37,425.1,562.17,421.29z" style="stroke:black;fill:#BFDAE3"/><path id="180623552" parent_id="180608862" order="62" structure_id="1" d="M561.66,604.95    c-5.01,1.41-7.53,4.438-8.22,9.93c-0.843,6.813,2.46,13.2,9.21,17.7c7.29,4.83,18.357,8.52,25.619,8.52    c6.511,0,9.118-2.13,9.091-7.5c-0.03-5.13-3.12-11.1-9.63-18.539c-3.393-3.931-9.813-7.858-15.48-9.511    C568.86,604.53,564.06,604.26,561.66,604.95z" style="stroke:black;fill:#BFDAE3"/><path id="180623552" parent_id="180608862" order="63" structure_id="1" d="M584.19,390.3c-0.87,0.3-2.4,1.08-3.393,1.71    c-4.74,2.97-6.42,3.51-12.6,3.84c-6.48,0.39-9.271,1.35-10.32,3.57c-0.45,0.96-0.479,1.65-0.21,6.84c0.3,6.15,0.51,7.17,1.59,7.83    c0.99,0.66,7.65,0.9,12.54,0.51c13.65-1.08,17.13-3.39,19.563-12.897c1.14-4.47,1.38-8.13,0.63-9.6    C590.82,389.85,587.52,389.1,584.19,390.3z" style="stroke:black;fill:#BFDAE3"/><path id="180623552" parent_id="180608862" order="64" structure_id="1" d="M700.98,610.17    c-0.513,0.54-0.513,1.05-0.213,7.32c0.393,7.56,0.933,11.52,1.95,14.04c0.813,1.979,1.53,2.938,3.603,4.71    c1.979,1.68,3.84,2.55,5.76,2.7c3.72,0.3,5.25-1.143,10.26-9.78c2.01-3.48,3.66-6.603,3.66-6.9c0-0.84-3.21-1.529-7.74-1.68    c-3.81-0.12-5.13-0.51-7.438-2.22c-1.41-1.021-2.973-3.271-3.48-4.98c-0.21-0.66-0.93-1.8-1.62-2.49    c-1.107-1.17-1.35-1.29-2.729-1.29C701.88,609.6,701.34,609.75,700.98,610.17z" style="stroke:black;fill:#BFDAE3"/><path id="180623552" parent_id="180608862" order="65" structure_id="1" d="M728.61,618.51    c-0.093,0.15-2.25,3.87-4.86,8.34c-2.58,4.44-5.25,8.763-5.91,9.54c-1.47,1.771-1.38,2.37,0.57,3.87    c6.479,4.893,20.13,8.973,36.688,10.95c8.4,1.021,37.2,0.54,37.2-0.57c0-0.18-0.93-1.17-2.067-2.25    c-3.45-3.18-4.473-5.43-3.78-8.487c0.51-2.19,1.5-10.473,1.29-10.683c-0.12-0.09-1.771,0.21-3.75,0.63    c-7.92,1.803-19.683,2.67-25.893,1.98c-7.5-0.87-15.93-3.18-21.27-5.88c-3.391-1.683-5.94-4.05-6.78-6.24    C729.57,618.45,728.94,617.94,728.61,618.51z" style="stroke:black;fill:#BFDAE3"/><path id="180623552" parent_id="180608862" order="66" structure_id="1" d="M779.85,594.63    c-3.987,0.84-9.657,1.021-15.93,0.54c-2.939-0.24-6.78-0.42-8.52-0.42c-3.093,0-3.211,0.03-5.313,1.14    c-4.979,2.67-14.01,11.521-18.51,18.15c-1.44,2.13-1.68,2.67-1.68,3.84c0,3.9,4.17,7.44,11.97,10.142    c8.88,3.091,17.37,4.289,26.31,3.75c14.13-0.842,23.313-3.239,28.563-7.472c2.22-1.77,4.107-4.59,4.56-6.75    c0.42-2.04,0.24-5.46-0.42-7.647c-0.27-0.9-0.6-3.21-0.75-5.103c-0.18-2.607-0.42-3.81-0.93-4.8c-1.44-2.91-4.05-4.77-7.771-5.58    C788.64,593.85,783.15,593.94,779.85,594.63z" style="stroke:black;fill:#BFDAE3"/><path id="180623552" parent_id="180608862" order="67" structure_id="1" d="M791.1,577.05c-0.897,0.24-3.21,0.96-5.1,1.65    c-4.71,1.71-6.3,2.04-11.85,2.55c-4.98,0.45-8.223,1.17-12.75,2.82c-5.67,2.067-8.79,5.64-7.381,8.397    c0.841,1.59,1.591,1.86,6.391,2.313c7.08,0.659,15,0.54,18.897-0.24c2.343-0.45,4.41-0.66,7.44-0.66    c3.99-0.03,4.26-0.09,5.55-0.84c2.82-1.65,5.7-5.55,6.271-8.46c0.447-2.28-0.42-6.33-1.563-7.17    C795.99,576.63,793.35,576.45,791.1,577.05z" style="stroke:black;fill:#BFDAE3"/><path id="180623552" parent_id="180608862" order="68" structure_id="1" d="M749.4,525.6    c-8.49,5.16-12.21,6.723-20.16,8.521c-0.57,0.12-1.17,0.75-2.16,2.37c-2.64,4.229-4.08,9.12-4.08,13.77    c0,3.12,0.45,5.25,2.34,10.893c2.49,7.527,4.563,11.277,8.432,15.18c5.311,5.34,12.391,8.31,21.631,9.12    c2.13,0.18,2.369,0.12,4.619-0.87c1.29-0.57,3.688-1.41,5.341-1.89l3-0.843l-0.183-1.8c-0.09-0.99-0.447-6.39-0.777-12    c-0.813-13.59-0.78-13.35-1.62-13.35c-0.393,0-1.143-0.15-1.71-0.36c-5.61-1.89-9.302-10.8-9.393-22.59    c-0.027-2.64,0.092-5.79,0.21-6.99c0.21-1.71,0.15-2.159-0.147-2.159C754.53,522.63,752.13,523.98,749.4,525.6z M757.32,571.2    c2.01,0.75,1.647,3.12-0.87,5.58c-2.76,2.67-6.12,3.479-7.26,1.739c-0.423-0.632-0.423-0.932-0.12-1.979    c0.54-1.74,3.06-4.17,5.13-4.979C756.12,570.84,756.3,570.81,757.32,571.2z" style="stroke:black;fill:#BFDAE3"/><path id="180623552" parent_id="180608862" order="69" structure_id="1" d="M769.35,511.38    c-2.88,2.64-6.93,5.853-10.527,8.313l-3.36,2.31l-0.33,2.25c-0.479,3.24-0.42,10.5,0.15,14.16c1.647,11.28,6,16.8,12.66,16.2    c5.157-0.513,9.93-4.62,13.647-11.82c2.28-4.44,3.33-7.86,3.33-11.04c0.03-2.521-0.03-2.85-1.11-5.04    c-1.407-2.91-4.14-5.76-7.737-8.07c-2.313-1.5-2.7-1.857-3.45-3.39c-0.63-1.35-0.84-2.16-0.84-3.63c0-1.17-0.12-1.92-0.302-1.92    C771.3,509.73,770.34,510.48,769.35,511.38z" style="stroke:black;fill:#BFDAE3"/><path id="180623552" parent_id="180608862" order="70" structure_id="1" d="M785.04,532.11    c-0.3,5.697-4.14,13.62-8.79,18.27c-2.52,2.521-5.19,3.96-7.74,4.23c-1.59,0.147-1.71,0.237-1.71,0.96    c0,0.42,0.33,6.027,0.75,12.447c0.42,6.45,0.75,12.15,0.75,12.723c0,1.02,0,1.05,1.143,0.84c0.6-0.09,2.817-0.33,4.92-0.48    c4.71-0.33,6.6-0.777,12.777-2.88c4.473-1.527,5.04-1.647,6.9-1.527c1.11,0.09,2.4,0.237,2.88,0.357l0.87,0.24l-0.21-2.22    c-0.12-1.23-0.03-3.96,0.15-6.12l0.357-3.9l-0.96-3.897c-2.52-10.021-10.41-31.65-11.58-31.65    C785.28,529.5,785.13,530.31,785.04,532.11z" style="stroke:black;fill:#BFDAE3"/><path id="180623552" parent_id="180608862" order="71" structure_id="1" d="M801.15,594.51    c-0.69,4.26-0.933,11.82-0.45,14.28c0.51,2.58,1.59,4.59,3.63,6.54c2.76,2.729,7.11,4.47,9.84,3.99c2.67-0.48,6.15-3.36,7.68-6.45    c1.23-2.4,1.95-6.36,1.95-10.86c0-4.38,0.3-4.08-3.3-3.33c-4.53,0.96-9.51,0.03-13.11-2.46c-1.56-1.08-4.59-4.17-4.59-4.68    c0-0.12-0.239-0.24-0.567-0.24C801.75,591.3,801.6,591.75,801.15,594.51z" style="stroke:black;fill:#BFDAE3"/><path id="180623552" parent_id="180608862" order="72" structure_id="1" d="M676.05,495.81    c-0.479,0.271-2.1,0.99-3.6,1.593c-1.83,0.75-3.813,1.92-6.15,3.6c-21.81,15.87-44.938,27.45-66.21,33.18l-4.29,1.143v1.14    c0,1.53-0.96,2.55-5.22,5.58c-5.07,3.63-9.33,6.271-14.88,9.24c-5.94,3.147-11.91,6.66-16.2,9.51    c-12.33,8.22-16.83,14.67-17.31,24.84c-0.15,2.82-0.093,3.63,0.327,4.41c1.23,2.37,1.41,4.29,1.683,17.16    c0.24,13.02,0.567,16.35,1.77,19.02c0.603,1.32,7.353,8.342,9.54,9.933c0.69,0.51,3.063,2.55,5.25,4.527    c5.94,5.433,8.76,7.592,10.893,8.37c3.63,1.38,6.479,1.801,12.3,1.771c5.397,0,5.397,0,11.7-1.44c5.58-1.318,6.72-1.47,9.897-1.5    c3.3-0.028,3.69,0.03,4.59,0.66c0.54,0.391,1.263,1.26,1.62,1.95c0.511,1.05,0.603,1.59,0.45,3.42    c-0.09,1.26-0.06,2.188,0.12,2.188c0.15,0,1.11-0.688,2.13-1.528c3.93-3.183,8.22-4.59,15.39-5.103c4.5-0.33,4.5-0.33,6.303-1.5    c2.277-1.438,3.06-2.729,6.18-9.93c3.99-9.18,5.1-10.95,9.96-15.87c6.271-6.358,13.86-12.87,23.13-19.89    c6.78-5.13,10.021-7.143,12.69-7.98c2.817-0.87,4.199-0.39,5.37,1.83c1.737,3.392,1.71,13.021-0.03,19.83    c-0.33,1.2-0.391,1.892-0.182,2.01c0.569,0.36,1.199,2.313,1.829,5.763c1.171,6.329,1.23,6.567,1.65,6.567    c0.24,0,0.48-0.27,0.6-0.6c0.303-0.99,1.62-1.8,2.94-1.8h1.17l-0.18-1.591c-0.9-7.142-1.41-30.932-0.813-37.71    c0.63-7.199,1.74-12.33,3.48-16.109c2.729-5.88,8.25-11.91,13.107-14.34c1.71-0.842,3.393-1.44,4.32-1.563    c2.22-0.239,2.34-0.357,1.89-1.92c-0.6-2.1-0.447-7.53,0.303-10.29c0.567-2.188,2.64-6.81,3.81-8.64c0.3-0.45,0.45-0.9,0.33-1.021    c-0.12-0.12-1.68-0.06-3.45,0.15c-1.77,0.21-4.89,0.45-6.96,0.54c-3.06,0.148-3.99,0.3-5.1,0.87c-8.82,4.38-19.26,6.66-26.7,5.817    c-8.85-0.987-13.26-3.96-15.12-10.197c-2.49-8.342,0.24-22.98,6.3-33.631c0.723-1.289,1.32-2.489,1.32-2.672    C678,495.15,677.07,495.24,676.05,495.81z M651.15,525.57c3.119,1.41,4.02,4.979,1.857,7.41c-1.71,1.979-3.72,2.43-5.91,1.317    c-1.56-0.78-2.46-2.16-2.64-3.93c-0.18-1.95,0.9-3.84,2.7-4.74C648.72,524.85,649.59,524.85,651.15,525.57z M619.59,546.69    c3.33,2.52,5.07,9.327,5.07,19.71c0,8.157-0.99,12.81-3.24,15.119c-1.89,1.948-3.99,1.318-5.188-1.592    c-0.24-0.51-0.57-0.93-0.78-0.93c-0.271,0-0.42,1.35-0.54,5.16c-0.12,3.78-0.33,5.88-0.78,7.647    c-1.62,6.421-4.858,10.593-9.54,12.24c-3.688,1.32-10.647,0.87-20.64-1.319c-2.313-0.511-4.44-0.931-4.71-0.931    c-1.17,0-0.42,0.813,1.979,2.19c7.23,4.08,11.79,7.56,17.58,13.38c3.78,3.78,4.893,5.1,5.853,6.93l1.197,2.25l-0.027,3.75    c0,4.17-0.513,6.75-1.92,9.75c-1.92,4.08-4.29,5.643-10.5,6.9c-7.143,1.47-14.013,1.29-19.263-0.48    c-5.04-1.71-11.58-5.938-15.987-10.35c-4.74-4.71-7.382-9.39-8.58-15.271c-1.23-6-0.99-10.107,0.81-13.8    c2.19-4.438,9.33-8.55,14.88-8.55c1.353,0,1.74-0.09,1.74-0.45c0-0.24-0.12-0.45-0.271-0.45c-0.149,0-0.989-0.54-1.859-1.197    c-5.97-4.44-8.49-14.07-5.76-21.96c0.51-1.473,1.647-3.813,2.52-5.223c2.07-3.33,7.38-8.91,10.38-10.92    c4.353-2.91,9.96-5.1,14.643-5.729c2.34-0.303,2.938-0.303,4.38,0.12c2.729,0.81,4.318,2.97,4.68,6.39    c0.18,1.59,0.18,1.62,1.38,1.95c0.66,0.18,2.011,0.45,2.971,0.6c5.399,0.87,10.562,4.74,12.602,9.45    c0.39,0.87,0.87,1.62,1.108,1.62c0.512,0,0.479-0.36-1.141-11.25c-1.59-10.8-1.71-12.3-1.14-13.74c0.66-1.56,1.83-2.04,4.74-1.95    C618.18,545.85,618.66,545.97,619.59,546.69z M678.57,583.68c1.08,0.78,1.59,2.25,1.17,3.48c-0.813,2.37-2.79,4.38-7.17,7.229    c-4.41,2.853-8.07,4.353-9.69,3.933c-1.05-0.24-2.28-1.563-2.28-2.433c0-1.17,1.17-3.12,2.973-4.89c2.58-2.58,8.64-6.6,11.43-7.59    C675.96,583.08,677.91,583.23,678.57,583.68z" style="stroke:black;fill:#BFDAE3"/><path id="180623552" parent_id="180608862" order="73" structure_id="1" d="M830.7,522.69    c-7.11,4.407-10.41,6.96-14.88,11.43c-8.4,8.43-15.24,20.61-17.37,30.93c-0.78,3.72-0.9,9.3-0.33,13.29    c1.647,11.13,6.96,18.45,14.67,20.16c2.37,0.54,7.95,0.24,10.47-0.57c1.65-0.54,2.221-0.897,3.45-2.25    c3.66-4.05,6.271-10.527,7.41-18.479c0.63-4.29,0.99-12.722,1.53-34.65c0.237-10.229,0.51-19.59,0.6-20.79    c0.09-1.59,0.06-2.16-0.24-2.16C835.83,519.63,833.43,521.01,830.7,522.69z" style="stroke:black;fill:#BFDAE3"/><path id="180623552" parent_id="180608862" order="74" structure_id="1" d="M842.88,515.46    c-0.42,1.2-0.897,2.73-1.11,3.39c-0.237,0.813-0.42,6.933-0.567,18.9c-0.24,18-0.45,21.811-1.5,30.3    c-0.69,5.55-0.813,5.13,2.28,8.13c4.47,4.41,10.71,5.46,16.92,2.853c6.658-2.79,13.29-9.78,15.63-16.41    c1.317-3.84,0.989-9.18-0.933-15.21c-1.26-3.99-5.157-11.641-8.43-16.563c-3.12-4.737-6.75-8.607-10.47-11.22    c-2.91-2.04-10.11-6.33-10.65-6.33C843.84,513.3,843.33,514.26,842.88,515.46z" style="stroke:black;fill:#BFDAE3"/><path id="180623552" parent_id="180608862" order="75" structure_id="1" d="M759.69,289.05    c-2.04,0.87-3.33,4.32-3.99,10.71c-0.24,2.43-0.3,7.92-0.183,18.57c0.213,19.41,0,18.33,5.19,27.33    c3.81,6.63,8.43,15.96,9.66,19.47c1.2,3.48,1.38,5.01,0.93,7.62l-0.358,2.19l1.5,3.84c4.711,12.06,15.511,45.96,18.778,59.07    c1.683,6.813,2.55,13.53,2.79,21.633c0.24,9.39-0.45,15.18-2.607,21.567c-2.28,6.72-9,16.893-16.32,24.66    c-2.73,2.91-3.18,3.75-3.18,6.12c0,3.03,1.47,5.25,4.828,7.17c1.922,1.11,5.699,4.95,7.229,7.35c1.92,2.973,3.66,6.54,5.55,11.4    c2.19,5.58,6.75,19.35,7.62,23.01c0.39,1.683,0.84,2.94,1.05,2.94c0.183,0,0.813-1.47,1.41-3.271    c3.391-10.409,11.19-22.438,18.96-29.13c2.97-2.58,6.48-5.13,10.26-7.47c1.473-0.9,3.723-2.34,5.04-3.18l2.4-1.53l0.54-2.103    c0.3-1.14,1.62-4.38,2.938-7.17c7.319-15.479,9.392-21.027,11.342-30.688c1.17-5.7,2.01-11.67,2.46-17.28    c0.42-5.49,0.18-16.83-0.45-21.03c-0.602-4.08-5.97-30.84-6.932-34.68c-3.238-12.93-6.841-22.41-13.381-35.37    c-12.479-24.81-25.68-44.04-43.17-62.97C777.21,294.39,765,286.74,759.69,289.05z" style="stroke:black;fill:#BFDAE3"/><path id="180623552" parent_id="180608862" order="76" structure_id="1" d="M770.58,377.16    c-0.09,0.39-0.9,5.01-1.83,10.29c-3.42,19.59-6.54,35.22-8.82,44.25c-1.947,7.59-2.25,9.6-3.18,19.647    c-1.44,15.57-3.06,22.44-8.4,35.553c-7.47,18.42-14.13,29.97-22.5,38.907c-2.43,2.643-7.29,6.723-9.567,8.04    c-2.16,1.263-1.86,1.65,1.107,1.473c10.771-0.69,18.271-2.4,24.63-5.58c2.853-1.41,11.61-6.66,15.933-9.48    c12.39-8.16,25.29-22.317,31.47-34.5c3.45-6.84,5.13-17.729,4.41-28.71c-0.36-5.817-1.23-12.6-2.19-16.95    c-1.89-8.817-12.869-44.04-18.237-58.59C771.57,376.62,770.91,375.57,770.58,377.16z" style="stroke:black;fill:#BFDAE3"/><path id="180623552" parent_id="180608862" order="77" structure_id="1" d="M922.2,551.82c0,0.12,0.21,0.87,0.479,1.68    c0.45,1.38,0.45,1.65-0.027,3.81c-2.132,9.513-12.75,31.11-22.382,45.393c-9.211,13.68-29.971,35.64-41.521,43.95    c-6.12,4.38-11.1,6.027-20.55,6.75c-3.183,0.237-5.4,0.6-8.25,1.35c-6.24,1.65-10.5,2.311-15.45,2.311    c-6.72,0.029-11.521-1.108-17.729-4.289c-3.358-1.711-3.721-1.802-3.448-0.659c0.75,3.42,0.81,4.59,0.479,9.027    c-0.21,2.521-0.3,4.65-0.239,4.71c0.569,0.57,16.289,1.683,26.489,1.86c13.472,0.24,22.8-0.51,30.12-2.46    c11.07-2.939,25.71-11.79,41.07-24.84c14.64-12.393,22.95-21.87,30.06-34.23c5.49-9.54,14.972-30.81,20.103-45.06    c2.13-5.91,2.31-6.72,1.68-6.72c-2.13,0-16.05-1.803-20.04-2.61C922.56,551.7,922.2,551.73,922.2,551.82z" style="stroke:black;fill:#BFDAE3"/><path id="180623552" parent_id="180608862" order="78" structure_id="1" d="M915.39,551.1    c-1.8,0.57-3.39,2.82-5.46,7.83c-2.46,6-10.17,21.603-14.37,29.103c-6.657,11.91-12.327,19.35-23.31,30.54    c-8.94,9.09-14.97,14.277-20.7,17.729c-7.229,4.38-19.56,9.15-28.2,10.95c-8.067,1.65-19.68-0.9-26.43-5.85    c-4.08-3-7.65-4.23-9.24-3.21c-1.47,0.96-1.77,3.93-0.63,6.327c1.92,4.053,9.33,8.883,16.98,11.103    c7.14,2.04,14.79,1.83,24.81-0.75c2.79-0.69,6.063-1.32,8.01-1.5c11.19-1.021,15.33-2.25,21.21-6.33    c10.32-7.17,31.353-28.95,40.65-42.09c8.16-11.58,18.54-31.5,22.59-43.353c2.04-6,1.95-8.88-0.3-10.05    C919.86,550.95,916.68,550.71,915.39,551.1z" style="stroke:black;fill:#BFDAE3"/><path id="180623552" parent_id="180608862" order="79" structure_id="1" d="M862.8,526.89    c0,0.21,0.63,1.263,1.38,2.343c5.04,7.077,9.42,16.35,10.771,22.71c0.6,2.907,0.6,7.59-0.03,9.688    c-1.11,3.75-3.63,7.74-7.14,11.25c-5.04,5.01-10.41,7.65-15.63,7.65c-2.853,0-4.771-0.54-7.172-1.98    c-1.711-1.02-2.578-1.29-2.578-0.81c0,0.147,0.328,1.229,0.75,2.46c2.97,8.729,1.92,15.66-3.15,20.7    c-3.75,3.72-8.521,5.79-13.44,5.79c-2.729,0.027-2.79,0.027-2.938,0.777c-0.603,3.12-1.891,6.15-3.33,7.98    c-0.99,1.26-3.72,3.21-5.16,3.688c-3.18,1.08-8.188-0.81-11.398-4.29c-0.689-0.75-1.382-1.35-1.529-1.35    c-0.182,0-0.3,0.45-0.3,0.99c0,1.47-0.813,4.317-1.71,6c-1.563,2.817-5.553,5.85-9.843,7.438c-0.987,0.36-1.89,0.75-2.01,0.841    c-0.21,0.212-1.14,6.812-1.14,8.222c0,0.84,0.029,0.87,1.08,0.72c1.56-0.271,4.29,0.72,6.81,2.431    c5.642,3.812,8.88,5.279,14.46,6.602c2.79,0.66,4.021,0.779,7.95,0.779c4.29,0,4.95-0.092,8.4-0.989    c10.947-2.853,20.31-6.78,27.6-11.58c3.84-2.521,5.55-3.9,10.59-8.46c11.13-10.17,21.181-21.722,27.12-31.143    c5.4-8.52,14.79-27.06,19.29-38.01c1.26-3.06,2.521-4.92,3.93-5.729c0.63-0.36,1.17-0.813,1.17-1.021s-0.567-0.51-1.26-0.688    c-18.147-4.771-31.38-10.563-45.358-19.83c-2.972-1.98-5.552-3.57-5.789-3.57C862.98,526.5,862.8,526.68,862.8,526.89z" style="stroke:black;fill:#BFDAE3"/><path id="180623552" parent_id="180608862" order="80" structure_id="1" d="M861.48,492.81    c-0.75,8.853-1.86,16.803-3.36,24.21c-0.39,1.95-0.72,3.813-0.72,4.11c0,0.63,6.39,5.521,12.3,9.42    c16.438,10.83,35.85,18.21,57,21.72c4.89,0.813,13.53,1.83,15.51,1.83h1.56l0.75-2.487c2.133-6.99,3.57-14.49,4.11-21.513    c0.72-9.39-0.3-12.777-5.52-18.51c-2.4-2.64-2.7-3.18-2.46-4.29c0.237-1.05,0.657-0.897-6-1.77    c-13.29-1.71-46.08-8.37-66.843-13.53c-3.27-0.84-6-1.5-6.06-1.5C861.72,490.5,861.57,491.55,861.48,492.81z" style="stroke:black;fill:#BFDAE3"/><path id="180623552" parent_id="180608862" order="81" structure_id="1" d="M861.81,478.38l0.063,11.94l1.29,0.39    c2.25,0.66,17.16,4.17,25.29,5.94c19.71,4.29,40.95,8.25,49.2,9.18l3.328,0.36l3.869-3.15c2.16-1.74,4.263-3.57,4.71-4.021    c1.5-1.647,8.94-16.26,8.94-17.607c0-0.3-0.54-0.48-1.86-0.63c-1.05-0.12-10.317-1.41-20.64-2.88    c-31.71-4.53-55.65-8.19-73.35-11.313l-0.9-0.147L861.81,478.38z" style="stroke:black;fill:#BFDAE3"/><path id="180623552" parent_id="180608862" order="82" structure_id="1" d="M858,442.44c0,1.14,0.3,3.237,0.72,4.857    c0.96,3.813,1.893,9.45,2.4,14.521c0.24,2.487,0.57,4.229,0.78,4.38c1.71,1.05,96.237,15.18,96.93,14.49    c0.84-0.843,4.59-12.063,6.27-18.66c0.9-3.603,2.461-11.16,2.343-11.28c-0.063-0.03-2.313-0.21-5.04-0.42    c-12.092-0.87-44.28-3.93-84.03-7.98c-10.5-1.08-19.38-1.947-19.74-1.947C858.06,440.4,858,440.55,858,442.44z" style="stroke:black;fill:#BFDAE3"/><path id="180623552" parent_id="180608862" order="83" structure_id="1" d="M584.25,553.05    c-4.11,0.933-8.97,3.063-12.66,5.61c-2.67,1.857-7.29,6.6-9.18,9.45c-2.521,3.777-4.141,7.89-3.12,7.89    c0.84,0,5.43-0.93,9.06-1.83c12.183-3.03,21.063-7.05,25.53-11.52c1.563-1.53,1.62-1.683,1.62-3.211    c0-3.182-1.14-5.222-3.45-6.271C590.61,552.51,586.98,552.45,584.25,553.05z" style="stroke:black;fill:#BFDAE3"/><path id="180623552" parent_id="180608862" order="84" structure_id="1" d="M941.1,363.78    c-11.97,3.03-38.067,9.63-57.987,14.64c-19.92,5.01-36.303,9.18-36.393,9.27s0.45,2.1,1.2,4.47    c5.25,16.647,9.15,34.41,9.96,45.147l0.18,2.73l1.263,0.18c0.659,0.09,12.51,1.32,26.277,2.7c42.03,4.26,70.41,6.93,77.882,7.29    l3.931,0.18l0.18-0.72c0.24-0.99,1.021-7.14,1.471-11.82c0.602-6.147,0.512-32.487-0.148-40.5    c-1.021-12.24-2.852-26.877-4.41-35.397c-0.33-1.8-0.6-3.36-0.6-3.51c0-0.12-0.24-0.24-0.513-0.21    C963.09,358.23,953.07,360.75,941.1,363.78z" style="stroke:black;fill:#BFDAE3"/><path id="180623552" parent_id="180608862" order="85" structure_id="1" d="M759.69,289.05    c-2.04,0.87-3.33,4.32-3.99,10.71c-0.24,2.43-0.3,7.92-0.183,18.57c0.213,19.41,0,18.33,5.19,27.33    c3.81,6.63,8.43,15.96,9.66,19.47c1.2,3.48,1.38,5.01,0.93,7.62l-0.358,2.19l1.5,3.84c4.711,12.06,15.511,45.96,18.778,59.07    c1.683,6.813,2.55,13.53,2.79,21.633c0.24,9.39-0.45,15.18-2.607,21.567c-2.28,6.72-9,16.893-16.32,24.66    c-2.73,2.91-3.18,3.75-3.18,6.12c0,3.03,1.47,5.25,4.828,7.17c1.922,1.11,5.699,4.95,7.229,7.35c1.92,2.973,3.66,6.54,5.55,11.4    c2.19,5.58,6.75,19.35,7.62,23.01c0.39,1.683,0.84,2.94,1.05,2.94c0.183,0,0.813-1.47,1.41-3.271    c3.391-10.409,11.19-22.438,18.96-29.13c2.97-2.58,6.48-5.13,10.26-7.47c1.473-0.9,3.723-2.34,5.04-3.18l2.4-1.53l0.54-2.103    c0.3-1.14,1.62-4.38,2.938-7.17c7.319-15.479,9.392-21.027,11.342-30.688c1.17-5.7,2.01-11.67,2.46-17.28    c0.42-5.49,0.18-16.83-0.45-21.03c-0.602-4.08-5.97-30.84-6.932-34.68c-3.238-12.93-6.841-22.41-13.381-35.37    c-12.479-24.81-25.68-44.04-43.17-62.97C777.21,294.39,765,286.74,759.69,289.05z" style="stroke:black;fill:#BFDAE3"/><path id="180623552" parent_id="180608862" order="86" structure_id="1" d="M890.4,331.5    c-32.25,11.52-58.86,21.09-59.103,21.24c-0.39,0.24,0.393,1.95,4.563,10.29c5.277,10.56,6.6,13.53,8.97,20.04    c0.81,2.22,1.53,4.08,1.62,4.2c0.3,0.27,116.43-28.89,116.97-29.4c0.36-0.3,0-2.31-1.77-10.32c-1.593-7.11-3.48-13.56-8.013-27.09    c-2.97-8.94-3.39-9.96-3.96-9.93C949.32,310.53,922.65,319.98,890.4,331.5z" style="stroke:black;fill:#BFDAE3"/><path id="180623552" parent_id="180608862" order="87" structure_id="1" d="M788.91,203.37    c-15.45,28.38-28.11,51.72-28.11,51.87c0,0.15,1.71,1.68,3.84,3.39c14.94,12.15,29.79,28.35,39.45,43.05    c3.42,5.19,6.21,10.17,9.78,17.37c1.649,3.3,6.03,12.18,9.75,19.71c4.59,9.3,6.96,13.74,7.26,13.74    c0.603,0,118.38-42,118.771-42.36c0.357-0.33-0.271-2.16-3.9-11.34c-11.61-29.4-23.37-50.49-38.82-69.72    c-12.84-15.99-33.84-36.63-54.479-53.55c-6.84-5.61-9.813-7.74-18-13.021c-3.63-2.31-7.771-5.07-9.21-6.12    c-3.78-2.73-6.87-4.59-7.59-4.59C817.11,151.8,812.43,160.2,788.91,203.37z" style="stroke:black;fill:#BFDAE3"/><path id="180623552" parent_id="180608862" order="88" structure_id="1" d="M772.59,193.47    c-14.25,28.35-25.89,51.69-25.89,51.87c0,0.21,1.438,1.32,3.24,2.49c1.77,1.2,4.77,3.3,6.688,4.68c1.92,1.35,3.63,2.49,3.78,2.49    c0.33,0,56.49-102.93,56.49-103.56c0-0.6-16.98-9.54-18.063-9.54C798.63,141.9,786.81,165.12,772.59,193.47z" style="stroke:black;fill:#BFDAE3"/><path id="180623552" parent_id="180608862" order="89" structure_id="1" d="M732.66,175.74    C722.4,204.93,714,228.99,714,229.23c0.03,0.27,1.8,1.11,4.89,2.34c7.593,2.97,19.23,8.79,25.38,12.69    c0.75,0.45,1.563,0.84,1.83,0.84c0.36,0,7.683-14.31,26.343-51.57c14.22-28.35,25.857-51.69,25.857-51.84    c0-0.6-19.95-9.3-31.35-13.68c-7.11-2.729-14.49-5.31-15.12-5.31C751.41,122.7,747.96,132.24,732.66,175.74z" style="stroke:black;fill:#BFDAE3"/><path id="180623552" parent_id="180608862" order="90" structure_id="1" d="M651.75,243.48    c-5.79,0.81-9.15,1.65-9.15,2.31c0,0.21,0.9,0.69,2.04,1.08c6.15,2.16,17.19,7.77,23.61,11.94c6.3,4.14,9.33,6.87,12.15,11.04    c1.8,2.67,2.697,4.47,5.397,10.8c4.38,10.26,6.933,14.49,11.46,18.99c4.95,4.92,10.83,8.97,20.49,14.1    c2.64,1.38,6.36,3.36,8.25,4.38c6.45,3.42,7.5,4.83,7.41,9.6l-0.063,2.64l1.021,0.9c1.29,1.17,2.279,1.08,6.779-0.63    c4.261-1.59,4.771-1.98,4.891-3.63c0.12-1.74-1.38-4.92-2.67-5.58c-2.01-1.02-2.49-4.14-1.59-10.29    c0.987-6.81,2.159-10.29,4.77-14.01c1.53-2.22,1.682-3.27,0.9-6.72c-2.04-8.91-10.26-18.45-22.29-25.89    c-3.21-1.979-6.24-3.54-11.61-5.91c-16.317-7.23-34.02-12.69-47.25-14.55C663,243.57,653.64,243.21,651.75,243.48z" style="stroke:black;fill:#BFDAE3"/><path id="180623552" parent_id="180608862" order="91" structure_id="1" d="M650.19,108.51l-1.593,0.12v2.91    c0,1.59-0.27,23.28-0.6,48.21c-0.36,24.9-0.57,47.85-0.54,51l0.09,5.7l4.05,0.36c22.563,2.1,41.61,5.91,60.24,12    c0.96,0.3,1.65,0.39,1.83,0.21c0.51-0.54,37.563-106.41,37.32-106.62c-0.12-0.15-1.71-0.72-3.54-1.29    c-21.392-6.84-43.771-10.8-68.79-12.21C672.63,108.57,652.68,108.3,650.19,108.51z" style="stroke:black;fill:#BFDAE3"/><path id="180623552" parent_id="180608862" order="92" structure_id="1" d="M639.6,108.81    c-11.938,0.63-23.04,1.41-23.277,1.68c-0.03,0.03,1.89,23.28,4.26,51.66c2.37,28.38,4.32,51.9,4.32,52.26    c0,0.6,0.18,0.66,2.487,0.81c6.48,0.42,19.5,1.08,19.593,1.021c0.027-0.06,0.357-21.75,0.688-48.24s0.66-50.67,0.75-53.79    l0.12-5.61l-3.66,0.06C642.9,108.69,640.5,108.75,639.6,108.81z" style="stroke:black;fill:#BFDAE3"/><path id="180623552" parent_id="180608862" order="93" structure_id="1111022260200000" d="M609.6,111.18    c-10.89,1.41-19.947,3.24-27.987,5.58c-2.94,0.87-3.24,1.021-3.093,1.56c0.24,1.02,30.78,97.17,30.87,97.26    c0.063,0.06,1.29-0.03,2.763-0.18c1.5-0.15,4.89-0.3,7.59-0.3h4.857v-0.99c0-0.51-1.89-24.09-4.26-52.35    c-3.688-44.4-4.32-51.36-4.74-51.33C615.36,110.43,612.66,110.79,609.6,111.18z" style="stroke:black;fill:#1F9D5A"/><path id="180623552" parent_id="180608862" order="94" structure_id="1" d="M676.05,495.81    c-0.479,0.271-2.1,0.99-3.6,1.593c-1.83,0.75-3.813,1.92-6.15,3.6c-21.81,15.87-44.938,27.45-66.21,33.18l-4.29,1.143v1.14    c0,1.53-0.96,2.55-5.22,5.58c-5.07,3.63-9.33,6.271-14.88,9.24c-5.94,3.147-11.91,6.66-16.2,9.51    c-12.33,8.22-16.83,14.67-17.31,24.84c-0.15,2.82-0.093,3.63,0.327,4.41c1.23,2.37,1.41,4.29,1.683,17.16    c0.24,13.02,0.567,16.35,1.77,19.02c0.603,1.32,7.353,8.342,9.54,9.933c0.69,0.51,3.063,2.55,5.25,4.527    c5.94,5.433,8.76,7.592,10.893,8.37c3.63,1.38,6.479,1.801,12.3,1.771c5.397,0,5.397,0,11.7-1.44c5.58-1.318,6.72-1.47,9.897-1.5    c3.3-0.028,3.69,0.03,4.59,0.66c0.54,0.391,1.263,1.26,1.62,1.95c0.511,1.05,0.603,1.59,0.45,3.42    c-0.09,1.26-0.06,2.188,0.12,2.188c0.15,0,1.11-0.688,2.13-1.528c3.93-3.183,8.22-4.59,15.39-5.103c4.5-0.33,4.5-0.33,6.303-1.5    c2.277-1.438,3.06-2.729,6.18-9.93c3.99-9.18,5.1-10.95,9.96-15.87c6.271-6.358,13.86-12.87,23.13-19.89    c6.78-5.13,10.021-7.143,12.69-7.98c2.817-0.87,4.199-0.39,5.37,1.83c1.737,3.392,1.71,13.021-0.03,19.83    c-0.33,1.2-0.391,1.892-0.182,2.01c0.569,0.36,1.199,2.313,1.829,5.763c1.171,6.329,1.23,6.567,1.65,6.567    c0.24,0,0.48-0.27,0.6-0.6c0.303-0.99,1.62-1.8,2.94-1.8h1.17l-0.18-1.591c-0.9-7.142-1.41-30.932-0.813-37.71    c0.63-7.199,1.74-12.33,3.48-16.109c2.729-5.88,8.25-11.91,13.107-14.34c1.71-0.842,3.393-1.44,4.32-1.563    c2.22-0.239,2.34-0.357,1.89-1.92c-0.6-2.1-0.447-7.53,0.303-10.29c0.567-2.188,2.64-6.81,3.81-8.64c0.3-0.45,0.45-0.9,0.33-1.021    c-0.12-0.12-1.68-0.06-3.45,0.15c-1.77,0.21-4.89,0.45-6.96,0.54c-3.06,0.148-3.99,0.3-5.1,0.87c-8.82,4.38-19.26,6.66-26.7,5.817    c-8.85-0.987-13.26-3.96-15.12-10.197c-2.49-8.342,0.24-22.98,6.3-33.631c0.723-1.289,1.32-2.489,1.32-2.672    C678,495.15,677.07,495.24,676.05,495.81z M651.15,525.57c3.119,1.41,4.02,4.979,1.857,7.41c-1.71,1.979-3.72,2.43-5.91,1.317    c-1.56-0.78-2.46-2.16-2.64-3.93c-0.18-1.95,0.9-3.84,2.7-4.74C648.72,524.85,649.59,524.85,651.15,525.57z M619.59,546.69    c3.33,2.52,5.07,9.327,5.07,19.71c0,8.157-0.99,12.81-3.24,15.119c-1.89,1.948-3.99,1.318-5.188-1.592    c-0.24-0.51-0.57-0.93-0.78-0.93c-0.271,0-0.42,1.35-0.54,5.16c-0.12,3.78-0.33,5.88-0.78,7.647    c-1.62,6.421-4.858,10.593-9.54,12.24c-3.688,1.32-10.647,0.87-20.64-1.319c-2.313-0.511-4.44-0.931-4.71-0.931    c-1.17,0-0.42,0.813,1.979,2.19c7.23,4.08,11.79,7.56,17.58,13.38c3.78,3.78,4.893,5.1,5.853,6.93l1.197,2.25l-0.027,3.75    c0,4.17-0.513,6.75-1.92,9.75c-1.92,4.08-4.29,5.643-10.5,6.9c-7.143,1.47-14.013,1.29-19.263-0.48    c-5.04-1.71-11.58-5.938-15.987-10.35c-4.74-4.71-7.382-9.39-8.58-15.271c-1.23-6-0.99-10.107,0.81-13.8    c2.19-4.438,9.33-8.55,14.88-8.55c1.353,0,1.74-0.09,1.74-0.45c0-0.24-0.12-0.45-0.271-0.45c-0.149,0-0.989-0.54-1.859-1.197    c-5.97-4.44-8.49-14.07-5.76-21.96c0.51-1.473,1.647-3.813,2.52-5.223c2.07-3.33,7.38-8.91,10.38-10.92    c4.353-2.91,9.96-5.1,14.643-5.729c2.34-0.303,2.938-0.303,4.38,0.12c2.729,0.81,4.318,2.97,4.68,6.39    c0.18,1.59,0.18,1.62,1.38,1.95c0.66,0.18,2.011,0.45,2.971,0.6c5.399,0.87,10.562,4.74,12.602,9.45    c0.39,0.87,0.87,1.62,1.108,1.62c0.512,0,0.479-0.36-1.141-11.25c-1.59-10.8-1.71-12.3-1.14-13.74c0.66-1.56,1.83-2.04,4.74-1.95    C618.18,545.85,618.66,545.97,619.59,546.69z M678.57,583.68c1.08,0.78,1.59,2.25,1.17,3.48c-0.813,2.37-2.79,4.38-7.17,7.229    c-4.41,2.853-8.07,4.353-9.69,3.933c-1.05-0.24-2.28-1.563-2.28-2.433c0-1.17,1.17-3.12,2.973-4.89c2.58-2.58,8.64-6.6,11.43-7.59    C675.96,583.08,677.91,583.23,678.57,583.68z" style="stroke:black;fill:#BFDAE3"/><path id="180623552" parent_id="180608862" order="95" structure_id="1" d="M573.75,119.49    c-11.73,4.74-18.33,10.26-24.63,20.61c-2.55,4.2-5.67,10.89-7.26,15.54l-1.41,4.11l-0.09,10.95l-0.093,10.95l30.933,18.3    c17.01,10.05,31.17,18.33,31.47,18.39c0.3,0.06,1.17-0.3,1.95-0.78c0.75-0.48,1.979-1.05,2.76-1.26c0.75-0.21,1.44-0.57,1.53-0.81    c0.21-0.54-30.57-97.59-30.96-97.59C577.8,117.9,575.88,118.62,573.75,119.49z" style="stroke:black;fill:#BFDAE3"/><path id="180623552" parent_id="180608862" order="96" structure_id="1" d="M540.3,228.75v46.65h2.25    c1.74,0,2.25-0.09,2.25-0.42c0-0.96,1.5-2.22,3.03-2.58c2.52-0.6,5.67,0.15,5.67,1.35c0,0.6,0.57,0.57,4.05-0.27    c5.76-1.41,11.103-3.63,15-6.27c2.313-1.56,7.38-6.48,10.29-9.96c5.67-6.78,9.57-13.98,14.28-26.46c2.34-6.21,3.21-8.16,4.38-9.87    c0.48-0.75,0.9-1.59,0.9-1.89c0-0.42-7.71-5.13-30.723-18.75c-16.92-9.99-30.897-18.18-31.05-18.18    C540.39,182.1,540.3,196.26,540.3,228.75z" style="stroke:black;fill:#BFDAE3"/><path id="180623552" parent_id="180608862" order="97" structure_id="1" d="M856.95,430.2c-2.01-14.22-8.01-36.48-13.95-51.75c-1.62-4.14-7.71-16.53-19.68-40.05    c-0.87-1.74-4.143-8.34-7.263-14.7c-7.5-15.24-10.407-20.22-16.617-28.59c-8.013-10.74-18.063-21.78-27.54-30.24    c-1.83-1.62-3.66-2.88-6.45-4.38c-31.83-17.22-65.94-28.32-95.7-31.2c-6.84-0.63-24.45-0.75-29.4-0.15    c-7.89,0.96-12.027,2.1-18.027,4.98c-6.75,3.27-11.58,6.54-19.771,13.38c-4.26,3.57-8.04,6.3-8.76,6.3c-0.21,0-1.35,0.9-2.55,1.98    c-6.03,5.46-10.53,8.25-21.99,13.56c-9.707,4.51-17.663,6.165-29.25,6.179v19.223c2.96-0.01,5.925-0.249,8.55-0.711    c14.61-2.58,29.7-8.37,40.2-15.39c10.32-6.93,27.21-19.08,32.97-23.76c4.143-3.33,8.28-5.4,15.78-7.83    c1.41-0.45,3.479-1.23,4.59-1.71c3.51-1.5,6.66-2.07,12.813-2.25c7.618-0.24,14.397,0.66,24.688,3.24    c13.29,3.33,32.55,10.62,42.66,16.11c9.96,5.43,18.6,13.38,22.86,20.97c1.5,2.7,2.729,6.45,3.119,9.39    c0.238,2.13,0.421,2.61,1.141,3.27c1.26,1.17,1.68,2.76,1.647,6.18c-0.06,6.96-2.76,15.93-5.52,18.27    c-1.08,0.9-1.08,1.05-0.24,2.67c0.36,0.69,0.78,1.77,0.99,2.4c0.3,1.05,0.54,1.23,2.58,2.1c1.2,0.54,3,1.5,3.96,2.1    c0.93,0.6,1.92,1.11,2.16,1.11c0.39,0,0.45-1.95,0.39-15.39c-0.06-14.43-0.03-15.57,0.54-18.66c0.72-3.81,1.59-6.03,2.852-7.23    c1.711-1.62,5.881-1.26,10.141,0.93c9.688,4.92,24.147,19.41,38.67,38.7c13.08,17.43,27.51,43.35,33.72,60.51    c3.54,9.9,4.95,15.36,8.643,33.84c3.81,19.053,4.02,20.46,4.02,29.7c0,9.36-0.81,16.86-2.85,26.521    c-1.86,8.85-3.63,13.71-10.021,27.33c-3.39,7.29-4.17,9.21-4.47,11.397c-0.09,0.66-0.36,9.42-0.63,19.5    c-0.813,32.67-1.142,38.07-2.73,44.4c-1.02,3.96-2.76,8.1-4.619,10.89c-0.811,1.23-1.5,2.37-1.5,2.49    c0,0.63,1.262,0.18,2.699-0.96c5.19-4.08,7.83-11.37,9.722-26.67c1.108-8.82,1.381-14.4,1.528-31.5    c0.063-9.09,0.24-15.84,0.45-16.86c0.42-2.22,1.05-4.02,3.18-8.79c3.421-7.83,7.65-21.99,9.69-32.55    C857.79,460.77,858.75,442.98,856.95,430.2z" style="stroke:black;fill:#BFDAE3"/><path id="180623552" parent_id="180608862" order="98" structure_id="1" d="M633.36,253.8    c-3.63,1.29-8.19,4.23-20.313,13.08c-11.729,8.58-29.31,20.55-38.25,26.07c-1.56,0.96-4.59,2.7-6.75,3.84    c-4.979,2.64-9.96,5.94-12.51,8.31c-1.92,1.74-2.04,1.92-2.04,3.18c0,1.29-0.72,2.52-1.5,2.52c-0.63,0-0.21,0.72,1.771,3.09    c1.142,1.35,3.722,4.95,5.729,8.01c7.8,11.73,11.22,15.24,16.5,16.92c5.729,1.83,11.939,1.83,17.4,0    c2.52-0.87,5.697-2.67,5.697-3.27c0-0.21-0.6-0.54-1.35-0.72c-0.84-0.21-1.53-0.6-1.8-1.05c-0.45-0.66-0.45-0.81,0-1.65    c0.6-1.17,2.31-2.43,5.31-3.96c3.54-1.8,6.15-2.76,16.74-6.27c11.46-3.78,16.68-5.79,23.37-9.03    c12.12-5.85,20.31-12.06,26.04-19.77c1.68-2.25,3.54-5.79,4.17-7.95c1.14-3.9,0.33-9.81-1.892-14.04    c-1.438-2.76-5.908-7.35-9.238-9.51c-2.82-1.83-9.841-5.31-13.05-6.45C641.91,253.2,636.48,252.69,633.36,253.8z M646.47,269.82    c4.08,1.14,6.3,2.94,8.103,6.63c4.408,9.06,1.8,18.36-6.69,23.97c-6.42,4.26-28.2,14.85-41.43,20.22    c-7.38,2.97-15.15,5.13-22.26,6.21c-3.513,0.54-9.33,0.57-11.553,0.12c-5.52-1.17-8.22-4.38-8.58-10.05    c-0.21-3.99,1.41-8.19,4.5-11.58c1.383-1.53,2.521-2.25,9.093-5.82c10.59-5.79,17.277-9.72,29.52-17.34    c13.38-8.34,13.98-8.7,16.29-9.75c2.19-0.99,6.93-2.25,10.14-2.7c1.23-0.18,2.58-0.39,3-0.45    C638.13,269.01,644.91,269.37,646.47,269.82z" style="stroke:black;fill:#BFDAE3"/><path id="180623552" parent_id="180608862" order="99" structure_id="1" d="M632.55,269.97    c-5.22,0.93-8.52,2.04-12,4.021c-1.14,0.66-6.897,4.2-12.75,7.86c-14.28,8.94-24.99,15.15-35.04,20.4    c-2.58,1.35-4.41,3.03-6.027,5.55c-3.48,5.37-3.48,12.27,0,16.05c3.027,3.27,9.75,4.23,18.897,2.67    c4.41-0.75,12.63-2.91,16.89-4.47c12.75-4.62,41.49-18.57,46.98-22.8c3.15-2.43,5.19-5.25,6.33-8.85c0.81-2.52,0.9-7.11,0.18-9.9    c-0.63-2.34-2.25-5.76-3.479-7.23c-1.17-1.41-4.021-2.88-6.54-3.42C643.14,269.25,636.33,269.31,632.55,269.97z M638.94,274.35    c2.817,0.66,5.04,1.86,6.6,3.6c3.15,3.42,3.51,9.18,0.93,14.28c-3.567,7.08-9.6,10.83-27.12,16.77    c-9.42,3.21-11.067,3.81-16.438,6.18c-9.54,4.23-16.021,6-21.09,5.76c-2.4-0.09-2.94-0.24-4.2-1.02    c-3.63-2.19-3.75-6.75-0.33-11.88c2.52-3.81,9.27-9.75,15.66-13.8c8.1-5.13,34.948-19.38,37.68-19.98    C632.64,273.81,636.84,273.87,638.94,274.35z" style="stroke:black;fill:#BFDAE3"/><path id="180623552" parent_id="180608862" order="100" structure_id="1" d="M625.95,284.07    c-5.49,1.44-10.771,3.6-21.603,8.85c-13.05,6.36-19.26,10.05-23.31,13.92c-2.91,2.79-3.99,4.77-3.78,6.99    c0.183,1.8,0.9,2.85,2.521,3.69c1.05,0.57,1.647,0.63,6.42,0.6c4.68-0.03,5.58-0.12,8.22-0.84c6.3-1.71,16.35-6.39,25.08-11.64    c7.83-4.74,10.17-6.45,13.89-10.08c3.092-3.03,4.23-5.25,4.053-7.86c-0.15-2.07-0.813-3.18-2.37-3.96    C633.48,282.9,629.94,283.05,625.95,284.07z" style="stroke:black;fill:#BFDAE3"/><path id="180623552" parent_id="180608862" order="101" structure_id="1" d="M632.55,269.97c-5.22,0.93-8.52,2.04-12,4.021    c-1.14,0.66-6.897,4.2-12.75,7.86c-14.28,8.94-24.99,15.15-35.04,20.4c-2.58,1.35-4.41,3.03-6.027,5.55    c-3.48,5.37-3.48,12.27,0,16.05c3.027,3.27,9.75,4.23,18.897,2.67c4.41-0.75,12.63-2.91,16.89-4.47    c12.75-4.62,41.49-18.57,46.98-22.8c3.15-2.43,5.19-5.25,6.33-8.85c0.81-2.52,0.9-7.11,0.18-9.9c-0.63-2.34-2.25-5.76-3.479-7.23    c-1.17-1.41-4.021-2.88-6.54-3.42C643.14,269.25,636.33,269.31,632.55,269.97z M638.94,274.35c2.817,0.66,5.04,1.86,6.6,3.6    c3.15,3.42,3.51,9.18,0.93,14.28c-3.567,7.08-9.6,10.83-27.12,16.77c-9.42,3.21-11.067,3.81-16.438,6.18    c-9.54,4.23-16.021,6-21.09,5.76c-2.4-0.09-2.94-0.24-4.2-1.02c-3.63-2.19-3.75-6.75-0.33-11.88c2.52-3.81,9.27-9.75,15.66-13.8    c8.1-5.13,34.948-19.38,37.68-19.98C632.64,273.81,636.84,273.87,638.94,274.35z" style="stroke:black;fill:#BFDAE3"/><path id="180623552" parent_id="180608862" order="102" structure_id="1" d="M631.5,274.23c-1.11,0.18-3.51,1.17-7.2,3    c-9.84,4.83-28.438,15.09-33.09,18.24c-10.92,7.38-17.07,15-16.29,20.19c0.66,4.32,4.17,5.94,10.83,4.95    c4.08-0.6,9.75-2.22,9.75-2.79c0-0.54-0.54-0.54-3.15,0.03c-1.17,0.24-3.567,0.54-5.397,0.63c-5.19,0.3-7.893-0.51-9.271-2.85    c-2.25-3.84,1.86-9.06,11.79-15.03c3.723-2.22,20.55-10.62,25.83-12.87c9.87-4.2,16.8-5.64,19.8-4.08    c1.803,0.93,2.94,3.39,2.553,5.34c-0.633,3-3.933,6.99-8.643,10.53c-2.97,2.19-11.34,7.41-15.567,9.69    c-3,1.62-3.961,2.49-2.73,2.49c0.271,0,3.87-1.17,8.01-2.58c15.24-5.22,20.131-7.68,24.48-12.33c3.24-3.45,4.8-7.11,4.8-11.37    c0-3.03-0.9-5.82-2.46-7.5C642.75,274.89,636.93,273.36,631.5,274.23z" style="stroke:black;fill:#BFDAE3"/><path id="180623552" parent_id="180608862" order="103" structure_id="1" d="M653.7,336.33    c-3.183,0.27-9.9,1.08-11.16,1.35c-0.479,0.09-0.84,0.3-0.84,0.48c0,0.18,0.479,0.96,1.08,1.77c1.527,2.07,2.277,4.44,2.46,7.59    l0.147,2.64l1.83-0.18c0.99-0.09,3.183-0.33,4.83-0.48c5.04-0.51,18.03-0.72,20.49-0.33c3.42,0.54,5.16,1.71,5.16,3.48    c0,0.81,0.63,0.48,2.7-1.44c1.197-1.11,3.06-2.4,4.617-3.21c1.41-0.75,2.58-1.5,2.58-1.68c0-0.18-0.567-0.87-1.289-1.53    c-4.141-3.84-11.368-7.23-17.729-8.34C665.7,335.97,658.68,335.91,653.7,336.33z" style="stroke:black;fill:#BFDAE3"/><path id="180623552" parent_id="180608862" order="104" structure_id="1" d="M631.86,338.1    c-2.521,0.66-6.57,2.52-8.67,3.93c-1.771,1.23-18.15,14.34-18.45,14.79c-1.08,1.59-2.433,7.11-2.91,12.12    c-0.33,3.09-0.87,4.74-1.71,5.07c-0.813,0.3-0.42,1.2,1.5,3.42c2.22,2.58,3.66,3.96,5.729,5.52c1.893,1.44,2.67,1.32,5.94-0.84    c6-3.99,11.43-8.97,21.03-19.23c8.97-9.57,9.87-10.59,10.317-11.43c0.96-1.89,0.63-6.51-0.72-9.45c-0.93-2.04-2.609-3.81-4.02-4.2    C638.22,337.32,634.26,337.47,631.86,338.1z" style="stroke:black;fill:#BFDAE3"/><path id="180623552" parent_id="180608862" order="105" structure_id="1" d="M720.6,556.8    c-3.21,0.78-7.107,3.24-10.107,6.393c-7.353,7.737-9.66,15.06-10.2,32.157c-0.09,3.45-0.061,8.16,0.06,10.44    c0.211,4.08,0.24,4.17,0.87,3.96c1.71-0.54,2.28-0.51,3.603,0.271c1.05,0.602,1.5,1.172,2.13,2.489c1.53,3.33,1.74,3.69,2.97,4.92    c0.69,0.69,2.04,1.62,3.03,2.103c1.62,0.778,2.1,0.87,4.95,0.87c2.1,0,3.987,0.21,5.64,0.6c1.38,0.33,2.67,0.6,2.88,0.6    s0.69-0.539,1.05-1.229c1.473-2.58,5.58-8.61,7.38-10.771c1.021-1.229,3.843-4.17,6.212-6.479c4.948-4.8,8.671-7.47,11.671-8.37    c1.05-0.3,1.979-0.6,2.039-0.66c0.061-0.03-0.182-0.66-0.569-1.38c-0.931-1.77-0.69-3.03,1.05-4.95    c0.75-0.84,1.352-1.647,1.352-1.83c0-0.18-0.449-0.33-0.989-0.33c-3.24,0-10.71-1.947-14.16-3.688c-6.21-3.09-10.71-7.8-13.8-14.4    c-1.143-2.43-3.063-7.857-3.631-10.2c-0.149-0.72-0.329-0.81-1.289-0.777C722.13,556.56,721.17,556.68,720.6,556.8z" style="stroke:black;fill:#BFDAE3"/><path id="180623552" parent_id="180608862" order="106" structure_id="1" d="M544.29,311.94l-3.99,0.48v2.82    c0,3.48,0.69,8.25,1.683,11.7c1.979,6.81,6.987,14.49,13.647,20.91c4.74,4.59,9.3,7.38,13.95,8.55    c5.37,1.38,17.07,1.44,30.12,0.15c2.397-0.24,4.56-0.45,4.83-0.45c0.27,0,3.147-2.19,6.45-4.86c3.27-2.64,7.35-5.88,9-7.17    c3.327-2.58,4.02-3.63,4.02-6.09c0-1.56-0.96-2.7-2.67-3.18c-1.23-0.33-7.08-0.39-9.9-0.09l-1.89,0.18l0.18,0.87    c0.33,1.62-0.96,3.18-4.92,5.97c-3.72,2.64-6.96,3.9-12.12,4.65c-7.107,1.05-17.729-0.39-23.43-3.18    c-3.81-1.86-7.17-5.28-10.26-10.41c-3.063-5.13-6.21-13.11-7.471-18.99l-0.512-2.4l-1.38,0.06    C548.88,311.46,546.45,311.7,544.29,311.94z" style="stroke:black;fill:#BFDAE3"/><path id="180623552" parent_id="180608862" order="107" structure_id="1" d="M671.55,374.91    c-1.83,5.25-4.14,10.83-5.04,12.18c-0.567,0.87-3.027,3.21-6.21,5.88c-10.8,9.15-24.54,21.27-27.45,24.18    c-8.277,8.31-11.58,15.39-13.527,29.1c-1.23,8.76-1.92,10.95-5.223,16.95c-2.369,4.26-3,6.147-2.46,7.317    c0.183,0.423,1.17,1.2,2.37,1.86c1.11,0.63,3.063,1.771,4.29,2.521c3.271,2.04,4.08,2.25,8.25,2.22    c2.643-0.03,4.86-0.271,8.4-0.96c2.64-0.51,8.91-1.681,13.95-2.61c18.657-3.45,21.027-4.438,32.55-13.62    c13.5-10.77,35.28-36.567,37.979-45c0.99-3.06,1.11-8.04,0.271-12.027c-0.87-4.353-3.69-12.813-4.83-14.49    c-1.83-2.76-5.7-4.62-11.103-5.34c-3.147-0.45-10.857-0.18-15.567,0.48c-4.563,0.66-8.67,0.51-10.41-0.39    c-2.28-1.2-3.66-3.81-4.38-8.34c-0.18-1.26-0.48-2.22-0.69-2.22C672.54,372.6,672,373.65,671.55,374.91z" style="stroke:black;fill:#BFDAE3"/><path id="180623552" parent_id="180608862" order="108" structure_id="1" d="M685.41,347.85    c-5.61,2.79-9.603,7.65-11.37,13.8c-0.6,2.1-0.69,3.06-0.69,7.65c0,6.09,0.48,8.85,2.04,11.43c1.473,2.46,3.03,3.12,7.11,3.09    c1.74,0,4.979-0.27,7.2-0.57c5.16-0.72,12.75-0.75,15.75-0.09c4.56,1.05,7.62,2.67,9.33,5.01c0.688,0.96,1.56,3.09,2.79,6.78    c3.33,9.99,3.72,14.607,1.8,20.37c-1.08,3.18-5.07,9.21-11.16,16.83c-9.57,11.938-18.57,21.27-27.271,28.229    c-7.079,5.67-11.039,8.04-16.529,9.87c-2.853,0.96-11.521,2.85-15.15,3.33l-1.59,0.21l-2.13,3.03    c-3.062,4.317-8.37,11.31-10.92,14.31c-2.82,3.36-4.74,5.07-8.07,7.23c-2.91,1.92-11.52,6.27-15.148,7.68    c-4.052,1.59-2.939,2.16,4.229,2.16c16.92,0,44.82-5.61,59.312-11.91c2.789-1.23,3.421-1.65,4.858-3.18    c0.9-0.99,6-6.15,11.28-11.433c15.63-15.63,36.029-37.68,41.52-44.88c7.71-10.14,11.223-22.14,10.71-36.6    c-0.54-14.73-3.21-23.851-8.67-29.851c-3.3-3.6-5.79-4.71-12.447-5.58c-14.223-1.8-19.08-4.14-24.36-11.76    c-2.94-4.29-3.3-4.59-6.6-5.46c-1.53-0.42-3-0.75-3.271-0.75C687.69,346.8,686.52,347.28,685.41,347.85z" style="stroke:black;fill:#BFDAE3"/><path id="180623552" parent_id="180608862" order="109" structure_id="1" d="M562.26,370.29    c-0.39,0.39-1.229,0.96-1.89,1.26c-1.29,0.6-1.41,0.9-0.63,1.74c0.72,0.78,0.66,2.79-0.24,7.41c-0.57,3.03-0.72,4.74-0.75,9    c0,6,0.33,7.71,1.47,7.35c2.49-0.81,3.99-1.05,8.04-1.35c6.721-0.48,8.103-0.87,11.73-3.24c5.22-3.42,9.448-3.81,11.58-1.08    c0.357,0.45,0.72,1.14,0.81,1.53c0.12,0.36,0.33,0.69,0.54,0.69c0.18,0,2.1-1.71,4.26-3.84c3.9-3.81,7.021-7.74,7.021-8.85    c0-0.33-0.813-1.44-1.771-2.49c-0.987-1.02-2.01-2.31-2.34-2.82c-0.479-0.84-0.66-0.93-1.439-0.75    c-5.011,1.14-11.578,0.96-20.101-0.6c-4.859-0.9-8.58-1.98-11.7-3.36C563.61,369.45,563.1,369.39,562.26,370.29z" style="stroke:black;fill:#BFDAE3"/><path id="180623552" parent_id="180608862" order="110" structure_id="1" d="M559.5,373.2c-0.87-0.87-2.49-0.78-6.42,0.42c-4.2,1.26-8.88,2.25-11.85,2.49    c-0.373,0.027-0.786,0.035-1.23,0.028v27.611c6.891,0.064,11.555-0.662,15.24-2.409c1.08-0.51,2.067-1.229,2.37-1.68    c0.27-0.45,0.777-1.11,1.107-1.5c0.57-0.63,0.57-0.75,0.15-2.7c-0.66-3.12-0.48-9.24,0.45-14.58    C560.28,375.39,560.31,374.01,559.5,373.2z" style="stroke:black;fill:#BFDAE3"/><path id="180623552" parent_id="180608862" order="111" structure_id="1" d="M557.64,352.56c-4.737-2.85-8.64-4.5-12.63-5.34c-1.227-0.249-3.115-0.375-5.01-0.378v24.767    c3.069-0.006,6.135-1.025,11.43-3.059c2.79-1.08,5.313-1.95,5.61-1.95c1.32-0.03,1.53-0.63,1.83-5.64    c0.147-2.58,0.39-4.2,0.72-4.86C560.43,354.42,560.28,354.15,557.64,352.56z" style="stroke:black;fill:#BFDAE3"/><path id="180623552" parent_id="180608862" order="112" structure_id="1" d="M732.45,323.43c-0.813-1.59-3.063-3.18-8.73-6.15c-9.09-4.77-12.06-6.45-15.688-8.79    c-11.58-7.53-16.021-12.75-21.33-24.99c-3.51-8.1-4.23-9.63-5.73-12.15c-3.147-5.31-7.26-8.97-16.229-14.34    c-6.271-3.81-16.021-8.43-21.42-10.229l-2.4-0.78l-4.05,1.35c-7.86,2.7-11.67,4.62-15.3,7.68c-3.63,3.09-10.23,7.92-24.42,17.85    c-11.07,7.77-13.92,9.51-20.25,12.42c-2.46,1.11-3.21,1.65-5.313,3.78c-7.71,7.71-18.09,13.32-24.12,12.96    c-3.33-0.18-4.857-1.8-4.89-5.19l-0.03-1.89H540v17.235c1.161-0.007,2.313-0.125,4.32-0.345c8.16-0.87,9.18-1.26,9.18-3.6    c0-1.11,0.18-1.44,1.23-2.52c2.55-2.55,8.067-6.33,12.537-8.58c6.603-3.3,28.713-17.85,42.183-27.69    c14.46-10.59,17.607-12.69,22.05-14.88l3.12-1.53l3.03,0.03c9.6,0.12,25.56,8.31,30.72,15.81c3.27,4.77,4.68,11.04,3.479,15.63    c-1.438,5.46-6.688,12.48-13.38,17.88c-9.84,7.92-21.18,13.38-41.37,19.89c-12.18,3.96-17.908,6.42-20.25,8.79    c-1.14,1.11-1.38,2.46-0.63,3.09c0.99,0.84,4.11,0.99,11.13,0.57c9.933-0.57,12.87-0.51,14.61,0.27c2.16,0.99,2.67,2.34,1.86,5.1    c-0.271,0.96,0.39,0.9,2.817-0.33c4.353-2.16,8.82-3.12,12.063-2.58c1.647,0.27,2.699,0.24,6.33-0.27    c10.38-1.44,19.14-1.74,23.76-0.84c6.57,1.32,13.859,4.86,18.18,8.88c1.5,1.38,1.892,1.59,4.62,2.28    c4.29,1.08,8.88,1.47,12.57,1.08c6.357-0.69,17.55-5.13,21.688-8.64c2.643-2.22,4.98-5.31,6.15-8.1c0.75-1.83,0.9-2.55,0.9-4.74    C732.9,325.17,732.75,323.97,732.45,323.43z" style="stroke:black;fill:#BFDAE3"/><path id="180623552" parent_id="180608862" order="113" structure_id="1" d="M697.14,506.7    c-3.567,0.63-7.979,2.67-12.87,5.97c-7.35,4.95-11.157,9.99-12.447,16.59c-1.143,5.79,0.42,8.643,4.77,8.643    c4.98,0,14.34-4.473,21.271-10.11c3.33-2.7,6.659-7.29,7.59-10.41c0.6-1.95,0.569-5.31-0.03-6.72c-0.51-1.26-2.01-2.91-3.12-3.51    C701.25,506.61,698.82,506.4,697.14,506.7z" style="stroke:black;fill:#BFDAE3"/><path id="180623552" parent_id="180608862" order="114" structure_id="1" d="M732.45,323.43c-0.813-1.59-3.063-3.18-8.73-6.15c-9.09-4.77-12.06-6.45-15.688-8.79    c-11.58-7.53-16.021-12.75-21.33-24.99c-3.51-8.1-4.23-9.63-5.73-12.15c-3.147-5.31-7.26-8.97-16.229-14.34    c-6.271-3.81-16.021-8.43-21.42-10.229l-2.4-0.78l-4.05,1.35c-7.86,2.7-11.67,4.62-15.3,7.68c-3.63,3.09-10.23,7.92-24.42,17.85    c-11.07,7.77-13.92,9.51-20.25,12.42c-2.46,1.11-3.21,1.65-5.313,3.78c-7.71,7.71-18.09,13.32-24.12,12.96    c-3.33-0.18-4.857-1.8-4.89-5.19l-0.03-1.89H540v17.235c1.161-0.007,2.313-0.125,4.32-0.345c8.16-0.87,9.18-1.26,9.18-3.6    c0-1.11,0.18-1.44,1.23-2.52c2.55-2.55,8.067-6.33,12.537-8.58c6.603-3.3,28.713-17.85,42.183-27.69    c14.46-10.59,17.607-12.69,22.05-14.88l3.12-1.53l3.03,0.03c9.6,0.12,25.56,8.31,30.72,15.81c3.27,4.77,4.68,11.04,3.479,15.63    c-1.438,5.46-6.688,12.48-13.38,17.88c-9.84,7.92-21.18,13.38-41.37,19.89c-12.18,3.96-17.908,6.42-20.25,8.79    c-1.14,1.11-1.38,2.46-0.63,3.09c0.99,0.84,4.11,0.99,11.13,0.57c9.933-0.57,12.87-0.51,14.61,0.27c2.16,0.99,2.67,2.34,1.86,5.1    c-0.271,0.96,0.39,0.9,2.817-0.33c4.353-2.16,8.82-3.12,12.063-2.58c1.647,0.27,2.699,0.24,6.33-0.27    c10.38-1.44,19.14-1.74,23.76-0.84c6.57,1.32,13.859,4.86,18.18,8.88c1.5,1.38,1.892,1.59,4.62,2.28    c4.29,1.08,8.88,1.47,12.57,1.08c6.357-0.69,17.55-5.13,21.688-8.64c2.643-2.22,4.98-5.31,6.15-8.1c0.75-1.83,0.9-2.55,0.9-4.74    C732.9,325.17,732.75,323.97,732.45,323.43z" style="stroke:black;fill:#BFDAE3"/><path id="180623552" parent_id="180608862" order="115" structure_id="1" d="M856.95,430.2c-2.01-14.22-8.01-36.48-13.95-51.75c-1.62-4.14-7.71-16.53-19.68-40.05    c-0.87-1.74-4.143-8.34-7.263-14.7c-7.5-15.24-10.407-20.22-16.617-28.59c-8.013-10.74-18.063-21.78-27.54-30.24    c-1.83-1.62-3.66-2.88-6.45-4.38c-31.83-17.22-65.94-28.32-95.7-31.2c-6.84-0.63-24.45-0.75-29.4-0.15    c-7.89,0.96-12.027,2.1-18.027,4.98c-6.75,3.27-11.58,6.54-19.771,13.38c-4.26,3.57-8.04,6.3-8.76,6.3c-0.21,0-1.35,0.9-2.55,1.98    c-6.03,5.46-10.53,8.25-21.99,13.56c-9.707,4.51-17.663,6.165-29.25,6.179v19.223c2.96-0.01,5.925-0.249,8.55-0.711    c14.61-2.58,29.7-8.37,40.2-15.39c10.32-6.93,27.21-19.08,32.97-23.76c4.143-3.33,8.28-5.4,15.78-7.83    c1.41-0.45,3.479-1.23,4.59-1.71c3.51-1.5,6.66-2.07,12.813-2.25c7.618-0.24,14.397,0.66,24.688,3.24    c13.29,3.33,32.55,10.62,42.66,16.11c9.96,5.43,18.6,13.38,22.86,20.97c1.5,2.7,2.729,6.45,3.119,9.39    c0.238,2.13,0.421,2.61,1.141,3.27c1.26,1.17,1.68,2.76,1.647,6.18c-0.06,6.96-2.76,15.93-5.52,18.27    c-1.08,0.9-1.08,1.05-0.24,2.67c0.36,0.69,0.78,1.77,0.99,2.4c0.3,1.05,0.54,1.23,2.58,2.1c1.2,0.54,3,1.5,3.96,2.1    c0.93,0.6,1.92,1.11,2.16,1.11c0.39,0,0.45-1.95,0.39-15.39c-0.06-14.43-0.03-15.57,0.54-18.66c0.72-3.81,1.59-6.03,2.852-7.23    c1.711-1.62,5.881-1.26,10.141,0.93c9.688,4.92,24.147,19.41,38.67,38.7c13.08,17.43,27.51,43.35,33.72,60.51    c3.54,9.9,4.95,15.36,8.643,33.84c3.81,19.053,4.02,20.46,4.02,29.7c0,9.36-0.81,16.86-2.85,26.521    c-1.86,8.85-3.63,13.71-10.021,27.33c-3.39,7.29-4.17,9.21-4.47,11.397c-0.09,0.66-0.36,9.42-0.63,19.5    c-0.813,32.67-1.142,38.07-2.73,44.4c-1.02,3.96-2.76,8.1-4.619,10.89c-0.811,1.23-1.5,2.37-1.5,2.49    c0,0.63,1.262,0.18,2.699-0.96c5.19-4.08,7.83-11.37,9.722-26.67c1.108-8.82,1.381-14.4,1.528-31.5    c0.063-9.09,0.24-15.84,0.45-16.86c0.42-2.22,1.05-4.02,3.18-8.79c3.421-7.83,7.65-21.99,9.69-32.55    C857.79,460.77,858.75,442.98,856.95,430.2z" style="stroke:black;fill:#BFDAE3"/><path id="180623552" parent_id="180608862" order="116" structure_id="1" d="M661.65,501.03    c-7.92,2.37-21.093,4.979-31.263,6.237c-10.35,1.29-17.46,1.473-21.3,0.603c-1.318-0.3-1.74-0.271-3.568,0.33    c-1.142,0.39-2.729,1.2-3.569,1.8c-0.813,0.6-3.271,2.189-5.4,3.57c-2.16,1.35-5.729,3.96-7.95,5.76c-3,2.46-4.8,3.66-7.05,4.77    c-3.18,1.53-8.25,3.24-12.147,4.08c-4.381,0.96-3.183,1.23,6.09,1.41c4.647,0.09,9.479,0.33,10.71,0.51    c4.83,0.75,8.609,2.49,9.147,4.23c0.271,0.78,0.87,0.72,5.433-0.48c19.08-5.039,40.647-15.567,61.17-29.85    C668.55,499.38,668.52,498.99,661.65,501.03z" style="stroke:black;fill:#BFDAE3"/><path id="180623552" parent_id="180608862" order="117" structure_id="1" d="M613.41,546.12    c-0.63,0.24-1.353,0.66-1.563,0.99c-0.897,1.14-0.567,4.8,1.95,21.39c0.51,3.39,1.11,7.02,1.38,8.07    c1.23,5.397,3.45,7.317,5.91,5.13c1.23-1.08,2.19-3.15,2.82-6.24c0.72-3.3,0.72-15.03,0-18.81c-0.99-5.521-2.55-8.91-4.62-10.143    C618.03,545.79,614.85,545.58,613.41,546.12z" style="stroke:black;fill:#BFDAE3"/><path id="180623552" parent_id="180608862" order="118" structure_id="1" d="M668.43,607.74    c-9.18,7.35-18.987,16.857-21.42,20.817c-0.777,1.263-2.67,5.07-4.14,8.49c-1.5,3.42-2.97,6.63-3.3,7.17    c-0.603,0.99-0.75,1.98-0.271,1.98c1.11,0,8.91-2.433,12-3.75c2.07-0.87,4.05-1.683,4.41-1.802c1.14-0.328,5.25-4.648,7.08-7.408    c3.24-4.86,6.03-11.881,8.28-20.881c1.56-6.329,1.71-7.262,1.107-7.262C671.94,605.1,670.23,606.3,668.43,607.74z" style="stroke:black;fill:#BFDAE3"/><path id="180623552" parent_id="180608862" order="119" structure_id="1" d="M687.6,594.51    c-2.067,0.69-5.607,2.91-10.317,6.42l-4.29,3.183l-0.51,2.67c-1.5,7.527-4.053,15.63-6.603,21c-2.13,4.438-4.29,7.59-7.14,10.41    c-1.29,1.288-2.34,2.43-2.34,2.577c0,0.36,4.83,1.563,7.317,1.86c7.2,0.78,14.972-2.43,21.33-8.85    c3.36-3.36,4.83-6.15,6.15-11.433c0.479-1.92,1.05-3.81,1.29-4.14c1.38-2.19,2.55-11.85,2.04-16.92    C693.84,594.75,692.04,592.95,687.6,594.51z" style="stroke:black;fill:#BFDAE3"/><path id="180623552" parent_id="180608862" order="120" structure_id="1" d="M676.05,495.81    c-0.479,0.271-2.1,0.99-3.6,1.593c-1.83,0.75-3.813,1.92-6.15,3.6c-21.81,15.87-44.938,27.45-66.21,33.18l-4.29,1.143v1.14    c0,1.53-0.96,2.55-5.22,5.58c-5.07,3.63-9.33,6.271-14.88,9.24c-5.94,3.147-11.91,6.66-16.2,9.51    c-12.33,8.22-16.83,14.67-17.31,24.84c-0.15,2.82-0.093,3.63,0.327,4.41c1.23,2.37,1.41,4.29,1.683,17.16    c0.24,13.02,0.567,16.35,1.77,19.02c0.603,1.32,7.353,8.342,9.54,9.933c0.69,0.51,3.063,2.55,5.25,4.527    c5.94,5.433,8.76,7.592,10.893,8.37c3.63,1.38,6.479,1.801,12.3,1.771c5.397,0,5.397,0,11.7-1.44c5.58-1.318,6.72-1.47,9.897-1.5    c3.3-0.028,3.69,0.03,4.59,0.66c0.54,0.391,1.263,1.26,1.62,1.95c0.511,1.05,0.603,1.59,0.45,3.42    c-0.09,1.26-0.06,2.188,0.12,2.188c0.15,0,1.11-0.688,2.13-1.528c3.93-3.183,8.22-4.59,15.39-5.103c4.5-0.33,4.5-0.33,6.303-1.5    c2.277-1.438,3.06-2.729,6.18-9.93c3.99-9.18,5.1-10.95,9.96-15.87c6.271-6.358,13.86-12.87,23.13-19.89    c6.78-5.13,10.021-7.143,12.69-7.98c2.817-0.87,4.199-0.39,5.37,1.83c1.737,3.392,1.71,13.021-0.03,19.83    c-0.33,1.2-0.391,1.892-0.182,2.01c0.569,0.36,1.199,2.313,1.829,5.763c1.171,6.329,1.23,6.567,1.65,6.567    c0.24,0,0.48-0.27,0.6-0.6c0.303-0.99,1.62-1.8,2.94-1.8h1.17l-0.18-1.591c-0.9-7.142-1.41-30.932-0.813-37.71    c0.63-7.199,1.74-12.33,3.48-16.109c2.729-5.88,8.25-11.91,13.107-14.34c1.71-0.842,3.393-1.44,4.32-1.563    c2.22-0.239,2.34-0.357,1.89-1.92c-0.6-2.1-0.447-7.53,0.303-10.29c0.567-2.188,2.64-6.81,3.81-8.64c0.3-0.45,0.45-0.9,0.33-1.021    c-0.12-0.12-1.68-0.06-3.45,0.15c-1.77,0.21-4.89,0.45-6.96,0.54c-3.06,0.148-3.99,0.3-5.1,0.87c-8.82,4.38-19.26,6.66-26.7,5.817    c-8.85-0.987-13.26-3.96-15.12-10.197c-2.49-8.342,0.24-22.98,6.3-33.631c0.723-1.289,1.32-2.489,1.32-2.672    C678,495.15,677.07,495.24,676.05,495.81z M651.15,525.57c3.119,1.41,4.02,4.979,1.857,7.41c-1.71,1.979-3.72,2.43-5.91,1.317    c-1.56-0.78-2.46-2.16-2.64-3.93c-0.18-1.95,0.9-3.84,2.7-4.74C648.72,524.85,649.59,524.85,651.15,525.57z M619.59,546.69    c3.33,2.52,5.07,9.327,5.07,19.71c0,8.157-0.99,12.81-3.24,15.119c-1.89,1.948-3.99,1.318-5.188-1.592    c-0.24-0.51-0.57-0.93-0.78-0.93c-0.271,0-0.42,1.35-0.54,5.16c-0.12,3.78-0.33,5.88-0.78,7.647    c-1.62,6.421-4.858,10.593-9.54,12.24c-3.688,1.32-10.647,0.87-20.64-1.319c-2.313-0.511-4.44-0.931-4.71-0.931    c-1.17,0-0.42,0.813,1.979,2.19c7.23,4.08,11.79,7.56,17.58,13.38c3.78,3.78,4.893,5.1,5.853,6.93l1.197,2.25l-0.027,3.75    c0,4.17-0.513,6.75-1.92,9.75c-1.92,4.08-4.29,5.643-10.5,6.9c-7.143,1.47-14.013,1.29-19.263-0.48    c-5.04-1.71-11.58-5.938-15.987-10.35c-4.74-4.71-7.382-9.39-8.58-15.271c-1.23-6-0.99-10.107,0.81-13.8    c2.19-4.438,9.33-8.55,14.88-8.55c1.353,0,1.74-0.09,1.74-0.45c0-0.24-0.12-0.45-0.271-0.45c-0.149,0-0.989-0.54-1.859-1.197    c-5.97-4.44-8.49-14.07-5.76-21.96c0.51-1.473,1.647-3.813,2.52-5.223c2.07-3.33,7.38-8.91,10.38-10.92    c4.353-2.91,9.96-5.1,14.643-5.729c2.34-0.303,2.938-0.303,4.38,0.12c2.729,0.81,4.318,2.97,4.68,6.39    c0.18,1.59,0.18,1.62,1.38,1.95c0.66,0.18,2.011,0.45,2.971,0.6c5.399,0.87,10.562,4.74,12.602,9.45    c0.39,0.87,0.87,1.62,1.108,1.62c0.512,0,0.479-0.36-1.141-11.25c-1.59-10.8-1.71-12.3-1.14-13.74c0.66-1.56,1.83-2.04,4.74-1.95    C618.18,545.85,618.66,545.97,619.59,546.69z M678.57,583.68c1.08,0.78,1.59,2.25,1.17,3.48c-0.813,2.37-2.79,4.38-7.17,7.229    c-4.41,2.853-8.07,4.353-9.69,3.933c-1.05-0.24-2.28-1.563-2.28-2.433c0-1.17,1.17-3.12,2.973-4.89c2.58-2.58,8.64-6.6,11.43-7.59    C675.96,583.08,677.91,583.23,678.57,583.68z" style="stroke:black;fill:#BFDAE3"/><path id="180623552" parent_id="180608862" order="121" structure_id="1" d="M593.49,463.35    c-2.61,0.57-4.32,1.41-5.91,2.853c-3.36,3.12-2.13,7.56,3.09,11.188c3.063,2.103,6.51,2.553,10.95,1.41    c6.09-1.56,9.63-5.34,9.6-10.229c-0.06-4.23-2.97-5.67-11.52-5.643C597.24,462.93,594.54,463.11,593.49,463.35z" style="stroke:black;fill:#BFDAE3"/><path id="180623552" parent_id="180608862" order="122" structure_id="1" d="M610.56,472.44    c-2.157,5.01-5.188,14.04-5.907,17.729c-0.66,3.21-0.513,6.813,0.357,8.79c0.78,1.71,2.853,3.99,4.32,4.74    c1.5,0.778,3.75,1.02,5.37,0.6c1.95-0.51,8.67-3.96,12.147-6.21c3.513-2.31,6.303-5.07,10.473-10.38    c4.197-5.37,9.447-12.6,9.479-13.05c0-0.57-0.897-0.45-8.58,1.05c-6.42,1.23-7.62,1.38-11.52,1.41c-4.17,0.03-4.41,0-6-0.78    c-1.44-0.72-4.563-2.55-8.04-4.71c-0.54-0.359-1.11-0.63-1.23-0.63C611.28,471,610.89,471.66,610.56,472.44z" style="stroke:black;fill:#BFDAE3"/></g></g></svg>
