<svg xmlns="http://www.w3.org/2000/svg" width="3024px" height="3024px"><g transform="scale(1.0)"><g id="180608862" order="1" parent_id="" graphic_group_label_id="28" graphic_group_label="Atlas - Adult Rat" sub_image_id="100960468" transform=" scale(1.0, 1.0)"><path id="180623552" parent_id="180608862" order="0" structure_id="1" d="M540,435.3c0.359,0,0.54,0.57,0.811,2.25   c1.289,8.07,4.289,18.181,7.319,24.72c3.511,7.53,9.181,13.382,15.54,16.052c3.359,1.438,5.34,1.8,9.63,1.8   c3.66,0,4.261-0.061,6.36-0.811c1.29-0.479,4.59-1.291,7.35-1.859c10.141-2.07,16.59-4.29,25.74-8.79   c8.22-4.08,18-9.96,24.15-14.55c5.85-4.381,11.369-10.682,14.129-16.172c5.61-11.129,12.121-37.438,14.25-57.538   c0.601-5.7,0.421-10.32-0.479-13.5c-0.899-3.12-3.12-7.65-5.7-11.552c-3-4.528-5.608-7.68-11.88-14.25   c-1.5-1.56-2.97-3.3-3.239-3.84c-0.301-0.57-1.229-3.87-2.131-7.38c-1.77-7.05-3.479-11.79-5.25-14.55   c-1.229-1.92-1.438-2.43-0.869-2.43c0.149,0,3.629,0.869,7.709,1.948c12,3.15,14.73,3.54,19.262,2.73   c8.88-1.59,13.26-7.771,13.229-18.6c-0.029-8.19-2.34-17.43-7.17-28.71c-4.439-10.29-12.27-23.97-17.369-30.27   c-4.979-6.12-14.851-11.31-26.58-13.92c-6.631-1.5-9.57-1.8-16.561-1.83c-5.85,0-6.96,0.09-9.721,0.69   c-14.879,3.33-26.279,13.53-34.859,31.2c-5.97,12.24-10.439,28.38-11.7,42.15c-0.45,4.89-0.21,15.33,0.45,18.81   c1.35,7.29,3.721,11.25,7.74,13.052c1.619,0.72,2.07,0.81,3.9,0.66c1.469-0.121,2.038-0.092,2.038,0.18   c0,0.21-1.35,2.25-2.97,4.529c-6.51,9.181-7.771,11.699-10.38,20.909c-0.99,3.42-2.22,6.932-3.24,9.15   c-3.81,8.34-6.09,15.99-7.26,24.42c-0.601,4.41-1.65,15.51-1.65,17.61c0,1.38-0.09,1.59-0.6,1.59" style="stroke:black;fill:#BFDAE3"/><path id="180623552" parent_id="180608862" order="1" structure_id="1111222020200000" d="M642.45,352.77c-8.07,3-8.94,3.42-9.21,4.382   c-0.12,0.51-0.84,1.5-1.59,2.25c-2.16,2.1-1.83,2.488,1.47,1.618c4.771-1.26,9.72,0.392,13.979,4.682   c3.932,3.93,4.802,6.238,7.2,19.05c1.95,10.32,3.091,14.85,3.75,14.85c0.42,0,1.98-8.67,2.73-15.148   c1.438-12.33-0.99-21.602-7.562-28.92c-2.1-2.341-4.77-4.23-5.938-4.23C646.77,351.33,644.609,351.96,642.45,352.77z" style="stroke:black;fill:#54BF94"/><path id="180623552" parent_id="180608862" order="2" structure_id="1111022110202000" d="M639.15,340.17   c-2.34,0.84-3.301,1.38-15.99,9.09c-6.54,3.99-13.53,8.07-15.51,9.09c-6.812,3.48-13.5,5.37-18.9,5.4h-3l-3.6-1.71   c-1.98-0.93-4.26-1.86-5.041-2.07c-2.67-0.659-7.859,0.091-9.659,1.41c-0.54,0.39-0.54,0.48-0.091,1.26   c0.271,0.45,0.421,1.142,0.33,1.562c-0.119,0.688,0.091,0.84,2.521,1.92c5.79,2.58,10.08,3.479,16.56,3.479   c6.812,0,12.631-1.198,19.352-4.02c5.521-2.311,9.45-4.8,21.33-13.38c3.81-2.73,8.37-5.97,10.17-7.2c3.87-2.64,5.28-3.9,5.28-4.77   c0-0.541-0.182-0.632-1.11-0.602C641.16,339.63,639.96,339.87,639.15,340.17z" style="stroke:black;fill:#9DF0D2"/><path id="180623552" parent_id="180608862" order="3" structure_id="1" d="M639.359,326.52   c-2.01,5.49-13.681,15.57-23.909,20.58c-8.61,4.23-26.28,9.9-30.75,9.9c-2.19,0-4.261-0.78-4.771-1.74   c-0.27-0.51-0.659-2.608-1.77-9.358c-0.12-0.841-0.392-1.382-0.66-1.44c-0.84-0.12-10.771,14.82-10.8,16.26   c0,0.63,0.3,0.602,3.12-0.39c0.96-0.33,2.579-0.72,3.63-0.812c2.25-0.238,4.318,0.36,9.18,2.61c3.09,1.44,3.24,1.47,5.94,1.47   c3.21,0,7.56-0.81,11.729-2.188c4.351-1.41,10.83-4.86,22.351-11.91c12.029-7.351,14.551-8.76,17.221-9.601   c2.189-0.689,3.029-0.569,3.029,0.449c0,0.812-1.17,1.92-4.439,4.11c-1.26,0.84-5.67,3.99-9.811,6.96   c-4.109,2.97-9.359,6.66-11.641,8.22c-13.92,9.36-28.59,12.421-41.46,8.58c-1.47-0.42-2.94-0.87-3.21-0.93   c-0.779-0.24-0.66,0.39,0.36,2.43c0.989,1.92,1.14,3.48,0.45,4.681c-0.24,0.421-0.42,0.961-0.45,1.199   c0,0.722,4.11,4.08,4.89,3.961c0.36-0.061,2.19-0.211,4.051-0.359c6.989-0.57,13.439-2.67,21.479-6.99   c6.69-3.6,12.69-7.71,25.14-17.22c9.51-7.261,14.131-10.681,16.59-12.24c0.9-0.601,1.65-1.2,1.65-1.38   c0-0.182-0.54-0.932-1.17-1.65c-1.68-1.92-2.28-3.39-3.66-9.12c-0.75-3.118-1.35-5.1-1.59-5.1   C639.87,325.5,639.57,325.95,639.359,326.52z" style="stroke:black;fill:#BFDAE3"/><path id="180623552" parent_id="180608862" order="4" structure_id="1" d="M633.15,361.17   c-5.131,1.26-8.76,3.15-14.551,7.5c-5.939,4.47-11.039,8.7-18.091,14.97c-6.899,6.15-11.489,9.69-16.108,12.392   c-3.211,1.89-3.271,1.949-3.45,3.21c-0.42,2.43,0.78,5.278,2.55,6.21c2.28,1.17,7.95-0.24,16.05-3.99   c4.41-2.04,7.681-3.12,8.64-2.91c0.42,0.12,1.592-0.3,3.271-1.17c3.21-1.648,4.439-1.92,5.82-1.29   c2.55,1.23,1.35,4.62-3.512,10.142c-3.898,4.38-15.898,13.56-26.22,20.068c-5.909,3.721-6.33,4.23-7.35,9.24   c-1.08,5.43-0.601,9.99,1.5,14.16c1.77,3.51,5.19,6.09,9.27,6.93c2.25,0.48,16.29,0.182,21.45-0.45   c10.53-1.29,18.061-3.72,23.43-7.528c8.4-5.972,15.271-19.2,20.28-39.15c1.979-7.83,2.04-8.49,0.931-11.85   c-0.479-1.5-1.381-5.28-1.979-8.4c-2.13-11.07-2.938-14.73-3.63-16.77c-1.771-5.07-6.061-9.33-11.189-11.16   C637.891,360.48,636.061,360.45,633.15,361.17z" style="stroke:black;fill:#BFDAE3"/><path id="180623552" parent_id="180608862" order="5" structure_id="4500011000000000" d="M579.12,416.52   c-0.09,0.24-0.12,0.75-0.06,1.142c0.06,0.569,0.27,0.688,1.14,0.688c0.989,0,1.05-0.06,1.05-1.05c0-0.96-0.09-1.05-0.99-1.14   C579.63,416.1,579.24,416.22,579.12,416.52z" style="stroke:black;fill:#AAAAAA"/><path id="180623552" parent_id="180608862" order="6" structure_id="4500000030000000" d="M604.5,399.45   c-5.189,1.83-26.04,12.12-27.57,13.59c-1.8,1.74-3.09,5.82-4.648,14.91c-0.932,5.31-0.99,6.75-0.301,6.75   c1.289,0,1.949-0.87,6.601-8.312c3.899-6.27,4.438-6.898,9.028-10.318c11.73-8.7,20.19-15.812,20.19-16.95   C607.8,398.52,606.78,398.64,604.5,399.45z M581.4,416.1c0.33,0.33,0.6,0.87,0.6,1.2c0,1.2-1.65,2.19-2.58,1.562   c-1.14-0.75-1.08-2.342,0.12-3.03C580.29,415.38,580.74,415.439,581.4,416.1z" style="stroke:black;fill:#BFDAE3"/><path id="180623552" parent_id="180608862" order="7" structure_id="1111022110203000" d="M628.65,358.83   c-6.48,3.6-12.15,7.32-16.95,11.07c-9.931,7.83-22.95,12.898-33.12,12.898h-2.37l0.21,3.812c0.42,7.648,1.71,11.188,4.08,11.188   c2.16,0,11.46-6.479,18.75-13.08c9.811-8.88,17.609-15.12,25.561-20.43c5.789-3.87,8.189-5.852,8.189-6.84   C633,356.64,632.01,356.97,628.65,358.83z" style="stroke:black;fill:#95E4C8"/><path id="180623552" parent_id="180608862" order="8" structure_id="1" d="M639.359,326.52   c-2.01,5.49-13.681,15.57-23.909,20.58c-8.61,4.23-26.28,9.9-30.75,9.9c-2.19,0-4.261-0.78-4.771-1.74   c-0.27-0.51-0.659-2.608-1.77-9.358c-0.12-0.841-0.392-1.382-0.66-1.44c-0.84-0.12-10.771,14.82-10.8,16.26   c0,0.63,0.3,0.602,3.12-0.39c0.96-0.33,2.579-0.72,3.63-0.812c2.25-0.238,4.318,0.36,9.18,2.61c3.09,1.44,3.24,1.47,5.94,1.47   c3.21,0,7.56-0.81,11.729-2.188c4.351-1.41,10.83-4.86,22.351-11.91c12.029-7.351,14.551-8.76,17.221-9.601   c2.189-0.689,3.029-0.569,3.029,0.449c0,0.812-1.17,1.92-4.439,4.11c-1.26,0.84-5.67,3.99-9.811,6.96   c-4.109,2.97-9.359,6.66-11.641,8.22c-13.92,9.36-28.59,12.421-41.46,8.58c-1.47-0.42-2.94-0.87-3.21-0.93   c-0.779-0.24-0.66,0.39,0.36,2.43c0.989,1.92,1.14,3.48,0.45,4.681c-0.24,0.421-0.42,0.961-0.45,1.199   c0,0.722,4.11,4.08,4.89,3.961c0.36-0.061,2.19-0.211,4.051-0.359c6.989-0.57,13.439-2.67,21.479-6.99   c6.69-3.6,12.69-7.71,25.14-17.22c9.51-7.261,14.131-10.681,16.59-12.24c0.9-0.601,1.65-1.2,1.65-1.38   c0-0.182-0.54-0.932-1.17-1.65c-1.68-1.92-2.28-3.39-3.66-9.12c-0.75-3.118-1.35-5.1-1.59-5.1   C639.87,325.5,639.57,325.95,639.359,326.52z" style="stroke:black;fill:#BFDAE3"/><path id="180623552" parent_id="180608862" order="9" structure_id="1111022110101000" d="M548.76,368.01   c-1.8,4.29-3.72,10.17-4.71,14.28c-1.95,8.34-3.33,23.46-3.659,39.51c-0.121,7.65-0.091,9.75,0.329,12.75   c1.05,7.47,3.181,15.931,5.761,22.92c5.399,14.61,14.431,22.23,26.489,22.352c3.602,0.028,5.73-0.302,5.73-0.9   c0-0.3-0.39-0.42-1.44-0.42c-3.57,0-9.63-2.399-13.59-5.399c-2.7-2.011-6.9-6.479-9.33-9.931c-2.311-3.21-5.88-10.14-6.96-13.47   c-2.16-6.66-3.39-18.99-3.09-31.2c0.21-8.04,0.45-9.96,3.479-27.899c2.222-13.141,2.882-18,3.212-23.039   c0.18-2.642,0.148-3.062-0.271-3.062C550.41,364.5,549.75,365.67,548.76,368.01z" style="stroke:black;fill:#82C7AE"/><path id="180623552" parent_id="180608862" order="10" structure_id="2113200030000000" d="M643.59,343.68   c-2.76,1.86-6.66,4.771-19.89,14.852c-9.63,7.318-18.091,12.75-24.75,15.898c-6.24,2.94-12.931,4.771-17.49,4.771   c-3.03,0-4.08,0.359-4.68,1.648c-0.271,0.54-0.48,1.142-0.48,1.32c0,0.51,5.73,0.42,8.88-0.12c5.34-0.93,10.11-2.55,15.84-5.43   c4.11-2.07,6.42-3.54,12.03-7.771c10.5-7.92,19.8-12.898,31.2-16.8l3.12-1.08l1.29,0.66c1.83,0.932,6.15,5.4,7.859,8.13   c3.569,5.761,5.25,12.78,4.83,20.04c-0.271,4.352-1.41,12.24-2.851,19.53c-4.26,21.81-10.8,37.89-18.72,45.96   c-7.05,7.229-17.521,10.68-35.311,11.61c-3.211,0.148-6.541,0.3-7.381,0.3c-1.14,0-1.59,0.12-1.59,0.42   c0,0.42,6.45,2.13,11.55,3.06c4.171,0.75,13.141,0.9,16.5,0.271c3.48-0.63,4.29-1.021,9.15-4.261   c6.899-4.619,12.21-9.629,15.479-14.521c1.92-2.91,4.68-8.82,6.271-13.47c6.239-18.33,11.88-49.17,10.68-58.32   c-1.021-7.62-6.21-16.439-15.3-26.068c-1.38-1.44-2.67-2.61-2.91-2.61C646.71,341.7,645.21,342.6,643.59,343.68z" style="stroke:black;fill:#CCCCCC"/><path id="180623552" parent_id="180608862" order="11" structure_id="2113200060101000" d="M613.17,396.57c-2.279,0.898-5.58,3.21-8.49,6   c-2.729,2.58-9.72,8.16-16.979,13.5c-4.352,3.21-5.342,4.35-9.87,11.55l-3.09,4.979l0.33,1.95c0.42,2.312,1.14,4.05,2.398,5.762   c1.11,1.528,1.83,1.68,1.83,0.42c0-1.291,0.87-5.972,1.44-7.802c0.688-2.188,2.279-3.898,5.55-5.909   c8.46-5.221,20.64-14.25,25.2-18.689c4.619-4.5,6.6-7.26,7.02-9.75C618.87,396.24,616.41,395.311,613.17,396.57z" style="stroke:black;fill:#CCCCCC"/><path id="180623552" parent_id="180608862" order="12" structure_id="1111022110201000" d="M612.3,308.88   c-16.17,1.53-28.62,7.17-43.409,19.65c-0.511,0.42-2.311,2.7-3.99,5.068l-3.09,4.262l0.511,1.02c0.72,1.53,2.88,3.75,4.229,4.351   c1.38,0.631,3.54,0.721,6.87,0.271c1.83-0.271,2.43-0.24,3.3,0.12c1.23,0.51,1.5,1.08,1.83,3.63c0.33,2.97,1.05,6.84,1.38,7.68   c0.87,2.19,4.771,2.521,10.892,0.9c8.1-2.13,19.528-6.24,24.898-8.94c11.431-5.729,22.98-16.199,24.03-21.75   c0.42-2.31-2.609-9.328-5.1-11.79c-1.26-1.26-1.95-1.648-4.352-2.488c-1.56-0.54-3.93-1.171-5.25-1.44   C622.68,308.97,614.88,308.64,612.3,308.88z" style="stroke:black;fill:#9DF0D2"/><path id="180623552" parent_id="180608862" order="13" structure_id="1111022110102000" d="M559.47,341.49   c-3.27,5.04-3.989,6.72-6.63,15.779c-1.47,5.04-1.56,5.521-1.77,10.079c-0.24,5.49-0.78,9.33-3.271,23.852   c-3.3,19.29-3.779,24.33-3.27,36.06c0.42,10.5,1.529,18.57,3.148,23.13c3.33,9.392,10.771,19.352,17.79,23.88   c4.5,2.882,9.99,4.5,14.16,4.17c2.16-0.18,9.96-1.8,14.97-3.118c7.74-2.04,17.37-6.182,26.49-11.4c3.63-2.1,4.471-3.03,2.4-2.7   c-2.82,0.42-8.82,0.54-11.791,0.21c-4.469-0.51-10.049-1.648-14.399-2.909c-2.069-0.601-4.95-1.409-6.45-1.83   c-5.97-1.59-9.359-5.159-10.859-11.521c-0.42-1.74-0.811-2.58-1.859-3.87c-1.53-1.89-2.58-3.988-3.061-6.238   c-0.211-0.842-0.479-1.562-0.659-1.562c-0.15,0-0.601,0.271-1.021,0.601c-0.9,0.721-1.771,0.779-1.979,0.149   c-0.181-0.45,0.18-3.062,1.29-9.45c0.72-4.17,2.31-9.3,3.359-10.92c0.75-1.14,2.729-2.37,8.43-5.189   c1.92-0.931,3.511-1.891,3.511-2.101c0-0.27-0.48-0.39-1.47-0.39c-3.631,0-5.7-2.25-5.73-6.182c0-1.738-0.03-1.83-0.96-2.25   c-2.22-0.959-3.24-4.289-3.479-11.188c-0.091-3.24-0.029-4.771,0.271-5.67l0.39-1.2l-2.068-1.92c-1.62-1.47-2.25-1.86-2.7-1.74   c-1.859,0.602-2.22,0.54-3.21-0.568c-1.32-1.5-2.13-1.44-2.91,0.209c-1.17,2.399-5.67,22.649-6.93,31.109   c-1.71,11.7-1.44,25.5,0.75,34.08c2.79,10.95,7.47,17.04,16.89,21.99c4.08,2.13,5.07,3.42,3.66,4.68   c-0.51,0.48-0.9,0.512-3.062,0.3c-1.379-0.118-3.09-0.21-3.84-0.18c-1.8,0.062-4.41-1.26-6.869-3.479   c-2.34-2.069-7.351-7.591-8.311-9.149c-2.4-3.78-4.529-12.39-6.15-24.69c-0.778-6-0.93-15.869-0.3-19.8   c1.29-8.069,5.82-29.13,7.681-35.61c1.83-6.39,2.521-8.038,3.689-8.788c0.51-0.33,1.02-0.87,1.141-1.2   c0.959-3,6.539-12.33,11.069-18.48c0.75-1.02,1.351-2.1,1.351-2.46c0-0.569-0.09-0.6-2.909-0.358c-4.65,0.42-6.12,0.358-7.44-0.302   c-1.439-0.72-3.51-2.76-4.05-4.02c-0.21-0.51-0.54-0.93-0.72-0.93C561.6,338.4,560.55,339.78,559.47,341.49z" style="stroke:black;fill:#9AD2BD"/><path id="180623552" parent_id="180608862" order="14" structure_id="1111022110103000" d="M559.859,374.61   c-1.681,5.909-5.76,24.358-7.289,33.06c-1.562,8.641-0.93,21.12,1.71,34.23c1.92,9.568,3.21,12.42,7.89,17.608   c4.77,5.25,8.221,7.892,10.32,7.892c1.29,0,0.93-0.66-1.051-1.95c-2.58-1.681-6.601-5.55-8.729-8.4c-2.34-3.12-4.83-8.31-5.76-12   c-0.841-3.27-1.71-8.85-2.431-15.75c-0.721-6.84-0.239-18.36,1.109-26.31c0.57-3.42,3.78-17.642,5.13-22.74   c0.99-3.78,1.261-5.34,1.261-7.35c0.029-2.07-0.061-2.552-0.449-2.642C561.21,370.2,560.82,371.13,559.859,374.61z" style="stroke:black;fill:#82C7AE"/><path id="180623552" parent_id="180608862" order="15" structure_id="1111022110104000" d="M564.87,365.4   c-1.38,0.42-2.31,1.198-2.79,2.43c-0.45,1.08-0.45,1.35-0.03,2.55c0.66,1.98,0.57,2.82-0.87,8.55   c-4.71,18.392-6.119,26.432-6.779,38.28c-0.359,6.39-0.061,10.92,1.351,20.64c1.229,8.552,2.55,12.45,6,17.73   c3.42,5.25,10.562,11.34,14.188,12.09c3.302,0.69,4.86,0.3,4.86-1.17c0-1.14-0.72-1.86-3.06-3.03   c-5.25-2.64-10.471-6.96-13.051-10.858c-1.5-2.28-3.479-6.812-4.529-10.41c-1.44-4.95-1.92-9-2.07-17.46   c-0.24-12.602,0.69-19.53,5.49-40.142c1.68-7.229,2.79-10.26,3.811-10.438c0.359-0.09,0.93,0.33,1.619,1.108   c1.32,1.562,2.1,1.592,3.36,0.182c0.81-0.932,0.93-1.29,0.93-2.7c0-3.84-3.33-7.68-6.6-7.62   C566.13,365.13,565.29,365.25,564.87,365.4z" style="stroke:black;fill:#9AD2BD"/><path id="180623552" parent_id="180608862" order="16" structure_id="1111222000000000" d="M602.28,224.7   c-14.04,1.77-25.38,9.72-34.14,23.91c-7.562,12.18-13.41,30.09-15.602,47.49c-0.479,4.05-0.51,15.839,0,19.26   c1.352,9.39,4.59,14.43,9.75,15.12c2.609,0.358,3.96-0.24,8.04-3.541c16.62-13.471,31.14-19.021,48.271-18.449   c5.34,0.21,7.649,0.6,11.67,2.04c3.569,1.29,8.279,2.67,16.381,4.8c6.448,1.71,7.17,1.83,11.1,1.98   c3.24,0.118,4.68,0.028,6.27-0.33c5.58-1.32,9.302-5.041,10.83-10.83c1.08-4.05,0.9-11.312-0.449-17.82   c-2.521-12.06-9.899-28.32-19.439-42.78c-3.602-5.49-6.63-8.729-10.41-11.22c-6.479-4.26-15.93-7.56-25.83-9.03   C614.04,224.61,605.49,224.28,602.28,224.7z" style="stroke:black;fill:#268F45"/><path id="180623552" parent_id="180608862" order="17" structure_id="1111022110105000" d="M559.47,341.49   c-3.27,5.04-3.989,6.72-6.63,15.779c-1.47,5.04-1.56,5.521-1.77,10.079c-0.24,5.49-0.78,9.33-3.271,23.852   c-3.3,19.29-3.779,24.33-3.27,36.06c0.42,10.5,1.529,18.57,3.148,23.13c3.33,9.392,10.771,19.352,17.79,23.88   c4.5,2.882,9.99,4.5,14.16,4.17c2.16-0.18,9.96-1.8,14.97-3.118c7.74-2.04,17.37-6.182,26.49-11.4c3.63-2.1,4.471-3.03,2.4-2.7   c-2.82,0.42-8.82,0.54-11.791,0.21c-4.469-0.51-10.049-1.648-14.399-2.909c-2.069-0.601-4.95-1.409-6.45-1.83   c-5.97-1.59-9.359-5.159-10.859-11.521c-0.42-1.74-0.811-2.58-1.859-3.87c-1.53-1.89-2.58-3.988-3.061-6.238   c-0.211-0.842-0.479-1.562-0.659-1.562c-0.15,0-0.601,0.271-1.021,0.601c-0.9,0.721-1.771,0.779-1.979,0.149   c-0.181-0.45,0.18-3.062,1.29-9.45c0.72-4.17,2.31-9.3,3.359-10.92c0.75-1.14,2.729-2.37,8.43-5.189   c1.92-0.931,3.511-1.891,3.511-2.101c0-0.27-0.48-0.39-1.47-0.39c-3.631,0-5.7-2.25-5.73-6.182c0-1.738-0.03-1.83-0.96-2.25   c-2.22-0.959-3.24-4.289-3.479-11.188c-0.091-3.24-0.029-4.771,0.271-5.67l0.39-1.2l-2.068-1.92c-1.62-1.47-2.25-1.86-2.7-1.74   c-1.859,0.602-2.22,0.54-3.21-0.568c-1.32-1.5-2.13-1.44-2.91,0.209c-1.17,2.399-5.67,22.649-6.93,31.109   c-1.71,11.7-1.44,25.5,0.75,34.08c2.79,10.95,7.47,17.04,16.89,21.99c4.08,2.13,5.07,3.42,3.66,4.68   c-0.51,0.48-0.9,0.512-3.062,0.3c-1.379-0.118-3.09-0.21-3.84-0.18c-1.8,0.062-4.41-1.26-6.869-3.479   c-2.34-2.069-7.351-7.591-8.311-9.149c-2.4-3.78-4.529-12.39-6.15-24.69c-0.778-6-0.93-15.869-0.3-19.8   c1.29-8.069,5.82-29.13,7.681-35.61c1.83-6.39,2.521-8.038,3.689-8.788c0.51-0.33,1.02-0.87,1.141-1.2   c0.959-3,6.539-12.33,11.069-18.48c0.75-1.02,1.351-2.1,1.351-2.46c0-0.569-0.09-0.6-2.909-0.358c-4.65,0.42-6.12,0.358-7.44-0.302   c-1.439-0.72-3.51-2.76-4.05-4.02c-0.21-0.51-0.54-0.93-0.72-0.93C561.6,338.4,560.55,339.78,559.47,341.49z" style="stroke:black;fill:#82C7AE"/></g></g></svg>
