<svg xmlns="http://www.w3.org/2000/svg" width="3024px" height="3024px"><g transform="scale(1.0)"><g id="180608862" order="1" parent_id="" graphic_group_label_id="28" graphic_group_label="Atlas - Adult Rat" sub_image_id="100960468" transform=" scale(1.0, 1.0)"><path id="180623552" parent_id="180608862" order="0" structure_id="1" d="M966.87,275.16c-11.22-24.9-29.22-50.64-49.771-71.16c-30.391-30.36-72.959-56.43-122.101-74.79   c-26.67-9.96-49.649-15.57-79.05-19.23c-19.142-2.4-34.32-3.42-54.603-3.69c-24.959-0.3-44.13,1.08-58.647,4.29   c-21.03,4.62-38.28,14.64-51.24,29.73c-6.42,7.47-9.39,12.06-10.53,16.32c-0.34,1.211-0.654,1.863-0.947,1.969v94.594   c0.182-0.052,0.342,0.313,0.47,1.117c1.2,6.9,2.58,11.58,4.95,16.5c3.777,7.95,9.688,14.19,16.89,17.82   c2.19,1.11,3,2.07,1.771,2.07c-0.898,0-3.511,1.44-4.681,2.58c-0.6,0.57-1.44,1.77-1.86,2.61c-1.35,2.7-2.01,3.33-5.25,5.04   c-4.979,2.61-7.317,5.19-8.52,9.392c-0.66,2.31-0.51,5.76,0.359,7.71c1.108,2.52,3.78,4.62,7.141,5.67   c1.229,0.359,1.95,1.02,1.95,1.71c0,0.21-1.65,1.2-3.66,2.22c-2.04,1.021-4.14,2.16-4.681,2.58c-2.312,1.74-3.329,4.65-3.392,9.51   c-0.06,4.592-0.18,5.102-1.38,5.221c-0.041,0.004-0.069,0-0.107,0.002v245.644c0.52,0.018,1.068,0.16,2.118,0.444   c1.771,0.449,3.062,0.567,6,0.51c3.392-0.061,4.229,0.06,8.579,1.05c2.643,0.602,5.37,1.11,6.03,1.11c1.53,0,4.771-0.99,7.05-2.13   c0.96-0.48,1.83-0.87,1.98-0.87c0.148,0,0.479,0.449,0.75,1.02c0.72,1.563,2.277,2.552,6,3.813c1.857,0.63,4.947,1.89,6.898,2.79   c3.239,1.527,3.75,1.89,6.899,4.92c6.33,6.028,11.67,8.729,17.34,8.76c3.84,0,6.271-1.29,5.82-3.09   c-0.24-0.87-0.63-0.75,5.25-1.563c17.22-2.34,36.238-9.21,72.27-26.067c3.03-1.41,5.58-2.58,5.7-2.58c0.09,0,0.18,1.8,0.18,3.989   v3.988l1.143,2.28c2.04,4.17,5.729,6.33,11.85,7.021c1.021,0.09,1.86,0.328,1.86,0.479s-0.392,0.84-0.87,1.53   c-2.222,3.27-2.88,7.29-1.893,11.278c1.353,5.279,4.473,10.142,10.263,15.932c6.12,6.147,9.72,8.43,16.89,10.77   c6.841,2.222,13.682,3.063,24.21,2.972c8.103-0.091,10.74,0.391,21.78,3.961c6,1.948,11.101,3.3,14.82,3.96   c3.27,0.567,12.3,0.479,16.05-0.15c8.52-1.47,12.147-2.76,23.397-8.31c12.99-6.393,14.643-6.9,27.33-8.4   c16.2-1.891,24.66-3.75,34.711-7.68c19.199-7.472,34.979-20.16,49.979-40.17c9.898-13.23,19.59-30.69,23.1-41.61   c1.563-4.89,2.433-14.91,2.433-27.99c0-14.818-1.053-20.31-4.683-24.6c-3.897-4.65-5.34-7.47-5.34-10.5c0-2.88,0.69-4.11,4.44-7.83   c4.739-4.71,7.647-8.88,10.198-14.7c4.352-9.87,6.841-21.33,8.312-38.069c0.18-2.16,0.39-9.778,0.479-16.979   C989.91,350.22,982.74,310.35,966.87,275.16z M788.52,433.65c-1.35,14.25-3.479,22.647-7.947,31.647   c-5.132,10.261-10.563,17.55-21.54,28.92c-2.82,2.91-7.051,7.62-9.392,10.41c-2.311,2.79-4.381,5.07-4.591,5.07   s-0.54-0.21-0.75-0.45s-0.568-0.45-0.78-0.45c-0.72,0-0.479-0.897,0.603-2.188c3.897-4.801,7.38-12.54,7.38-16.41   c0-0.932,0.479-1.71,3.24-5.28c6-7.71,15.84-21.9,20.01-28.77c3.181-5.25,6.688-13.053,8.34-18.48c2.73-8.88,3.75-18.09,2.79-24.9   c-0.897-6.447-3.778-16.83-7.528-27.27c-2.609-7.2-2.699-7.47-2.432-7.71c0.09-0.12,0.932,0.149,1.86,0.6   c0.897,0.45,2.1,0.812,2.67,0.812c1.408,0,3-1.44,3.658-3.33c0.632-1.771,1.172-1.891,1.562-0.36   C790.02,392.25,790.859,409.08,788.52,433.65z" style="stroke:black;fill:#BFDAE3"/><path id="180623552" parent_id="180608862" order="1" structure_id="1" d="M540,349.2c0-1.049-0.003-1.811-0.02-2.371v6.271H540V349.2z" style="stroke:black;fill:#BFDAE3"/><path id="180623552" parent_id="180608862" order="2" structure_id="1" d="M550.23,581.49c-0.48-1.74-2.7-4.11-4.95-5.28c-1.65-0.84-2.13-0.93-4.98-1.021   c-0.114-0.006-0.21-0.008-0.318-0.011v15.073c0.526-0.008,0.97,0.111,1.761,0.356c1.8,0.538,7.89,0.777,8.34,0.3   C550.5,590.52,550.59,582.87,550.23,581.49z" style="stroke:black;fill:#BFDAE3"/><path id="180623552" parent_id="180608862" order="3" structure_id="1" d="M547.62,553.86c0.18,0.63,0.6,3.54,0.96,6.42   c0.15,1.2,0.18,1.26,1.41,1.409c0.688,0.091,2.34,0.541,3.66,0.988c7.59,2.553,14.729,7.5,18.147,12.631   c1.353,2.012,2.7,5.369,2.7,6.689c0,0.479,0.21,0.51,1.92,0.39c2.399-0.21,3.601,0.183,5.76,1.893   c0.961,0.72,1.893,1.317,2.132,1.317c0.209,0,0.988-1.17,1.709-2.64c0.722-1.44,2.222-4.08,3.302-5.88   c1.107-1.8,1.948-3.45,1.857-3.63c-0.21-0.57-4.738-4.472-8.039-6.933c-7.291-5.43-15.601-9.448-23.818-11.55   c-3.54-0.87-8.881-1.77-10.771-1.77C547.53,553.2,547.439,553.26,547.62,553.86z" style="stroke:black;fill:#BFDAE3"/><path id="180623552" parent_id="180608862" order="4" structure_id="1" d="M629.311,184.53   c-1.801,0.42-2.729,1.02-4.891,3.18c-4.979,4.98-7.47,9.93-10.02,19.89c-1.5,5.88-3.063,10.32-6.15,17.4   c-6.061,13.89-7.41,18.36-7.439,24.75c0,3.18,0.511,5.52,1.591,7.26c0.538,0.93,0.721,0.99,2.188,0.99h1.62l0.181-3.99   c0.392-7.56,1.771-15.689,3.689-21.51c1.8-5.43,10.529-20.73,15.09-26.37c3.812-4.77,12.03-9.33,21.33-11.85l3.45-0.93l7.648,0.03   c9.989,0.03,19.409,0.84,39.302,3.39c9.959,1.26,14.76,1.62,20.1,1.47c4.859-0.15,6.6-0.51,6.6-1.41c0-0.42-1.05-0.72-6.51-1.77   c-13.438-2.58-19.529-3.39-62.188-8.28c-16.682-1.92-23.102-2.61-24-2.55C630.66,184.26,629.939,184.38,629.311,184.53z" style="stroke:black;fill:#BFDAE3"/><path id="180623552" parent_id="180608862" order="5" structure_id="1" d="M650.88,193.53   c-8.55,1.108-19.979,6.42-24.63,11.43c-2.939,3.15-9.99,14.61-14.25,23.04c-2.88,5.7-4.859,15.45-5.55,27.18l-0.182,3.03   l3.841,0.18c18.631,0.96,31.318-0.96,38.398-5.85c2.28-1.56,6.66-5.94,12.393-12.39c12.147-13.71,18.06-18.24,28.5-21.87   c5.607-1.98,13.35-3.78,20.55-4.8c4.8-0.69,12.45-1.38,15.359-1.38c1.858,0,2.488-0.09,2.488-0.39c0-0.42-1.5-0.63-13.199-1.71   c-21.898-2.04-33.75-1.95-44.398,0.33c-2.7,0.6-9.061,2.64-11.46,3.69c-0.631,0.27-1.142,0.42-1.142,0.33   c0-0.3,3.392-1.65,7.052-2.82c13.619-4.352,29.067-4.47,64.05-0.48c3.54,0.42,7.92,0.9,9.75,1.05c5.189,0.51,8.97,1.5,19.2,5.16   c14.34,5.102,32.459,12.93,46.198,20.01c17.432,8.97,25.859,14.91,37.229,26.25c12.479,12.45,21.87,25.26,33.63,45.78   c16.47,28.74,27.75,62.312,32.88,97.8c0.602,4.263,0.66,5.73,0.63,17.25c0,15.183-0.72,25.771-3.147,47.7   c-2.461,22.021-4.893,36.66-7.62,45.603c-6.36,20.85-17.37,38.188-30.57,48.06c-4.89,3.66-21.18,13.229-28.83,16.92   c-3.51,1.71-9.87,4.353-28.35,11.79c-5.04,2.04-14.011,5.43-19.95,7.53c-5.939,2.1-13.17,4.737-16.05,5.88   c-6.15,2.43-12.99,5.91-13.141,6.66c-0.149,0.75,0.448,0.63,3.421-0.66c5.1-2.19,13.107-5.16,23.607-8.7   c5.82-1.95,13.59-4.8,17.34-6.27c17.313-6.933,43.171-18.45,51-22.74c8.553-4.65,15.303-9.72,21.421-16.05   c13.229-13.683,20.312-28.86,26.069-55.771c6.36-29.85,11.521-80.1,10.892-106.35c-0.512-20.28-2.25-31.44-8.132-51.75   c-9.42-32.67-21.447-56.43-38.85-76.83c-11.88-13.89-30.42-30-45.36-39.33c-13.02-8.16-33.51-17.97-45.567-21.78   c-4.381-1.38-26.28-6.42-44.61-10.229l-7.26-1.53l-1.05,0.72c-2.763,1.86-10.41,1.771-26.313-0.27   c-13.95-1.83-24.66-2.85-35.37-3.45C655.5,193.17,653.82,193.17,650.88,193.53z" style="stroke:black;fill:#BFDAE3"/><path id="180623552" parent_id="180608862" order="6" structure_id="1" d="M650.88,193.53   c-8.55,1.108-19.979,6.42-24.63,11.43c-2.939,3.15-9.99,14.61-14.25,23.04c-2.88,5.7-4.859,15.45-5.55,27.18l-0.182,3.03   l3.841,0.18c18.631,0.96,31.318-0.96,38.398-5.85c2.28-1.56,6.66-5.94,12.393-12.39c12.147-13.71,18.06-18.24,28.5-21.87   c5.607-1.98,13.35-3.78,20.55-4.8c4.8-0.69,12.45-1.38,15.359-1.38c1.858,0,2.488-0.09,2.488-0.39c0-0.42-1.5-0.63-13.199-1.71   c-21.898-2.04-33.75-1.95-44.398,0.33c-2.7,0.6-9.061,2.64-11.46,3.69c-0.631,0.27-1.142,0.42-1.142,0.33   c0-0.3,3.392-1.65,7.052-2.82c13.619-4.352,29.067-4.47,64.05-0.48c3.54,0.42,7.92,0.9,9.75,1.05c5.189,0.51,8.97,1.5,19.2,5.16   c14.34,5.102,32.459,12.93,46.198,20.01c17.432,8.97,25.859,14.91,37.229,26.25c12.479,12.45,21.87,25.26,33.63,45.78   c16.47,28.74,27.75,62.312,32.88,97.8c0.602,4.263,0.66,5.73,0.63,17.25c0,15.183-0.72,25.771-3.147,47.7   c-2.461,22.021-4.893,36.66-7.62,45.603c-6.36,20.85-17.37,38.188-30.57,48.06c-4.89,3.66-21.18,13.229-28.83,16.92   c-3.51,1.71-9.87,4.353-28.35,11.79c-5.04,2.04-14.011,5.43-19.95,7.53c-5.939,2.1-13.17,4.737-16.05,5.88   c-6.15,2.43-12.99,5.91-13.141,6.66c-0.149,0.75,0.448,0.63,3.421-0.66c5.1-2.19,13.107-5.16,23.607-8.7   c5.82-1.95,13.59-4.8,17.34-6.27c17.313-6.933,43.171-18.45,51-22.74c8.553-4.65,15.303-9.72,21.421-16.05   c13.229-13.683,20.312-28.86,26.069-55.771c6.36-29.85,11.521-80.1,10.892-106.35c-0.512-20.28-2.25-31.44-8.132-51.75   c-9.42-32.67-21.447-56.43-38.85-76.83c-11.88-13.89-30.42-30-45.36-39.33c-13.02-8.16-33.51-17.97-45.567-21.78   c-4.381-1.38-26.28-6.42-44.61-10.229l-7.26-1.53l-1.05,0.72c-2.763,1.86-10.41,1.771-26.313-0.27   c-13.95-1.83-24.66-2.85-35.37-3.45C655.5,193.17,653.82,193.17,650.88,193.53z" style="stroke:black;fill:#BFDAE3"/><path id="180623552" parent_id="180608862" order="7" structure_id="1" d="M657.3,306.689   c0,0.211,0.932,1.229,2.07,2.25l2.069,1.83l2.579,0.329c7.739,0.961,20.37,4.5,25.979,7.262c3.09,1.528,6.03,4.318,7.35,6.96   l0.9,1.739l9,4.409c13.47,6.63,25.62,13.591,30.75,17.7c3.66,2.91,5.25,5.4,11.398,17.82c4.229,8.489,4.859,9.33,12.062,16.14   c7.83,7.38,15.33,15,18.66,18.96c2.97,3.48,3.778,4.11,3.778,2.88c0-1.737-5.131-17.88-8.221-25.83   c-1.89-4.92-7.14-13.47-12.42-20.34c-6.96-8.97-21.84-21.54-33.479-28.2c-6.36-3.659-10.472-5.34-15.183-6.18   c-11.789-2.13-12.09-2.25-17.13-6.899c-3.96-3.631-6-4.801-11.97-6.869c-6.72-2.312-10.59-3.062-20.101-3.9   C658.859,306.18,657.3,306.18,657.3,306.689z" style="stroke:black;fill:#BFDAE3"/><path id="180623552" parent_id="180608862" order="8" structure_id="1" d="M650.88,193.53   c-8.55,1.108-19.979,6.42-24.63,11.43c-2.939,3.15-9.99,14.61-14.25,23.04c-2.88,5.7-4.859,15.45-5.55,27.18l-0.182,3.03   l3.841,0.18c18.631,0.96,31.318-0.96,38.398-5.85c2.28-1.56,6.66-5.94,12.393-12.39c12.147-13.71,18.06-18.24,28.5-21.87   c5.607-1.98,13.35-3.78,20.55-4.8c4.8-0.69,12.45-1.38,15.359-1.38c1.858,0,2.488-0.09,2.488-0.39c0-0.42-1.5-0.63-13.199-1.71   c-21.898-2.04-33.75-1.95-44.398,0.33c-2.7,0.6-9.061,2.64-11.46,3.69c-0.631,0.27-1.142,0.42-1.142,0.33   c0-0.3,3.392-1.65,7.052-2.82c13.619-4.352,29.067-4.47,64.05-0.48c3.54,0.42,7.92,0.9,9.75,1.05c5.189,0.51,8.97,1.5,19.2,5.16   c14.34,5.102,32.459,12.93,46.198,20.01c17.432,8.97,25.859,14.91,37.229,26.25c12.479,12.45,21.87,25.26,33.63,45.78   c16.47,28.74,27.75,62.312,32.88,97.8c0.602,4.263,0.66,5.73,0.63,17.25c0,15.183-0.72,25.771-3.147,47.7   c-2.461,22.021-4.893,36.66-7.62,45.603c-6.36,20.85-17.37,38.188-30.57,48.06c-4.89,3.66-21.18,13.229-28.83,16.92   c-3.51,1.71-9.87,4.353-28.35,11.79c-5.04,2.04-14.011,5.43-19.95,7.53c-5.939,2.1-13.17,4.737-16.05,5.88   c-6.15,2.43-12.99,5.91-13.141,6.66c-0.149,0.75,0.448,0.63,3.421-0.66c5.1-2.19,13.107-5.16,23.607-8.7   c5.82-1.95,13.59-4.8,17.34-6.27c17.313-6.933,43.171-18.45,51-22.74c8.553-4.65,15.303-9.72,21.421-16.05   c13.229-13.683,20.312-28.86,26.069-55.771c6.36-29.85,11.521-80.1,10.892-106.35c-0.512-20.28-2.25-31.44-8.132-51.75   c-9.42-32.67-21.447-56.43-38.85-76.83c-11.88-13.89-30.42-30-45.36-39.33c-13.02-8.16-33.51-17.97-45.567-21.78   c-4.381-1.38-26.28-6.42-44.61-10.229l-7.26-1.53l-1.05,0.72c-2.763,1.86-10.41,1.771-26.313-0.27   c-13.95-1.83-24.66-2.85-35.37-3.45C655.5,193.17,653.82,193.17,650.88,193.53z" style="stroke:black;fill:#BFDAE3"/><path id="180623552" parent_id="180608862" order="9" structure_id="1" d="M640.5,532.53   c-1.74,1.14-5.85,3.659-9.15,5.58c-7.229,4.2-11.85,7.17-14.85,9.6c-6.72,5.37-16.53,14.76-20.07,19.14   c-4.8,5.94-11.729,17.79-11.729,20.04c0,1.563,0.27,2.013,1.199,2.013c2.068,0,6.358-3.842,25.948-23.133   c12.813-12.63,15.24-14.817,21.45-19.47c4.17-3.12,6.33-5.22,8.011-7.77c1.229-1.83,2.972-5.67,3.271-7.17   C644.88,529.92,644.13,530.13,640.5,532.53z" style="stroke:black;fill:#BFDAE3"/><path id="180623552" parent_id="180608862" order="10" structure_id="1" d="M686.939,499.02   c-7.562,4.263-11.222,6.48-17.789,10.86c-6.87,4.561-11.4,8.01-15.36,11.7c-4.11,3.78-3.78,4.2,1.74,2.188   c13.35-4.771,24.72-11.188,31.95-18.028c4.107-3.9,7.317-7.563,7.317-8.4c0-0.39-1.77-1.14-2.58-1.14   C692.07,496.2,689.7,497.46,686.939,499.02z" style="stroke:black;fill:#BFDAE3"/><path id="180623552" parent_id="180608862" order="11" structure_id="1" d="M569.55,439.86   c-1.409,1.857-2.159,3.329-2.46,4.77c-0.21,1.05,0.812,2.431,2.46,3.39c0.66,0.393,1.95,1.53,2.88,2.49   c5.222,5.46,7.32,12.63,5.67,19.17c-2.489,9.723-10.68,16.802-20.729,17.973l-1.682,0.21l-0.511,2.22   c-0.3,1.229-0.869,2.85-1.26,3.63c-0.42,0.75-0.689,1.53-0.6,1.74c0.21,0.54,4.38,0.778,7.59,0.42   c6.6-0.72,12.028-3.45,17.22-8.641c3.9-3.932,6.78-8.579,8.28-13.382c0.81-2.697,0.72-9.96-0.181-14.25   c-1.739-8.25-5.222-14.97-9.722-18.868c-1.619-1.382-4.08-2.729-4.979-2.729C571.17,438,570.42,438.689,569.55,439.86z" style="stroke:black;fill:#BFDAE3"/><path id="180623552" parent_id="180608862" order="12" structure_id="1" d="M699.93,373.41   c-0.93,0.81-0.96,0.87-0.66,2.188c1.053,4.712,1.171,18.812,0.183,27.75c-1.5,13.893-5.19,26.433-10.683,36.303   c-4.947,8.88-9.629,13.56-17.52,17.43c-4.05,1.979-8.13,3.06-12.51,3.33c-3.84,0.21-4.11,0.57-1.351,1.71   c2.818,1.17,4.318,1.47,7.108,1.438c6.21-0.028,13.38-3.479,19.05-9.211c4.051-4.05,8.07-10.408,11.88-18.81   c4.473-9.84,6.9-18.87,7.803-28.892c0.72-8.038,0.27-30.898-0.632-33.271C702.21,372.33,701.189,372.36,699.93,373.41z" style="stroke:black;fill:#BFDAE3"/><path id="180623552" parent_id="180608862" order="13" structure_id="1" d="M715.65,411.48   c-0.091,0.81-0.511,3.567-0.9,6.117c-2.04,12.99-2.16,22.2-0.42,29.103c1.2,4.8,5.46,11.397,7.35,11.397   c0.722,0,7.711-1.05,9.063-1.35c0.989-0.24,0.81-0.87-0.511-1.92c-2.609-2.07-4.5-6.271-5.102-11.28   c-0.689-5.58-0.33-11.76,1.2-21.75c0.479-3.21,0.96-6.93,1.08-8.25l0.18-2.43l-5.07-0.392c-2.76-0.211-5.397-0.448-5.85-0.541   C715.891,410.04,715.83,410.1,715.65,411.48z" style="stroke:black;fill:#BFDAE3"/><path id="180623552" parent_id="180608862" order="14" structure_id="1" d="M729.45,230.28   c-2.49,0.54-5.13,1.71-7.62,3.39c-7.32,4.98-13.8,12.84-13.83,16.74c0,1.26,0.03,1.29,0.99,1.29c1.8,0,3.028-1.14,9.81-9.15   c2.49-2.94,6.602-6.66,8.7-7.89c1.2-0.72,1.74-0.81,4.59-0.93c5.551-0.18,19.351,1.95,25.11,3.87c7.109,2.37,17.1,6.9,37.05,16.8   c17.311,8.58,23.609,12.33,28.561,16.92c3.091,2.88,15.539,17.82,24,28.83c8.25,10.71,12.539,18.06,17.642,30   c3.18,7.47,11.31,27.33,12.987,31.8c10.893,28.95,15.451,57.39,13.74,85.5c-2.729,44.58-4.74,54.72-15.24,77.52   c-1.617,3.511-2.938,6.54-2.938,6.69c0,0.358,2.16,0.09,3-0.36c0.271-0.147,1.32-1.8,2.34-3.66   c8.94-16.56,14.07-37.38,16.261-65.938c2.399-31.65,0-57.3-8.398-88.65c-1.95-7.29-3.091-10.738-5.7-17.25   c-4.83-12.09-13.29-29.52-21.061-43.35c-3.841-6.81-5.852-9.78-10.771-15.87c-10.021-12.42-11.521-14.31-13.979-17.88   c-8.489-12.24-21.722-20.82-57.239-37.14c-22.05-10.11-21.271-9.87-36.15-11.16C733.109,229.71,732.27,229.71,729.45,230.28z" style="stroke:black;fill:#BFDAE3"/><path id="180623552" parent_id="180608862" order="15" structure_id="1" d="M742.95,294.03   c-4.32,0.39-7.98,1.11-14.25,2.7c-6.42,1.62-9.091,2.04-12.811,2.07c-3,0-3,0-1.229,3.39c2.46,4.71,6.39,9.121,9.479,10.68   c0.601,0.3,3.061,1.17,5.431,1.95c11.397,3.75,21.09,9.06,29.85,16.35c1.5,1.23,4.65,4.2,6.99,6.6   c4.74,4.83,5.188,5.041,5.188,2.342c0-2.7-1.021-4.32-5.671-8.91c-6.63-6.57-13.229-12-17.34-14.312   c-1.05-0.568-3.989-1.979-6.54-3.09c-6.449-2.85-8.79-4.14-10.408-5.729c-1.802-1.71-1.95-2.97-0.512-4.59   c2.55-2.94,9.061-4.26,19.62-3.99c11.188,0.27,19.59,2.43,30.3,7.77c11.853,5.94,18.99,12.45,26.94,24.57   c4.92,7.5,7.92,13.83,10.29,21.72c1.71,5.641,2.34,6.87,3.6,6.99c1.5,0.149,1.771-0.479,1.74-3.96   c-0.062-5.22-2.312-13.229-5.521-19.83c-4.02-8.22-9.119-14.49-18.147-22.29c-14.16-12.21-27.66-19.14-39.69-20.43   C756.75,293.67,747,293.67,742.95,294.03z" style="stroke:black;fill:#BFDAE3"/><path id="180623552" parent_id="180608862" order="16" structure_id="1" d="M793.2,337.02c0,0.211,0.6,1.74,1.318,3.36   c8.102,18.3,14.012,45.45,17.462,80.22c0.6,6.03,0.688,18.48,0.147,23.553c-1.438,14.188-5.188,27-10.859,37.197   c-5.488,9.87-11.038,16.41-26.488,31.021c-3.9,3.688-7.08,6.897-7.08,7.14c0,0.63,0.78,0.45,2.938-0.63   c7.771-3.93,17.489-12.479,26.762-23.609c12.897-15.421,17.85-27.181,20.22-47.971c1.92-16.5,1.439-26.488-2.37-49.35   c-3.72-22.141-6.63-33.69-11.22-44.4c-2.433-5.609-6.12-12.06-9.091-15.84C794.04,336.6,793.2,336.24,793.2,337.02z" style="stroke:black;fill:#BFDAE3"/><path id="180623552" parent_id="180608862" order="17" structure_id="1" d="M545.85,371.25l-0.209-5.85H540h-0.02v27.729c0.817-0.011,1.642-0.202,2.209-0.581   C545.07,390.66,546.3,383.46,545.85,371.25z" style="stroke:black;fill:#BFDAE3"/><path id="180623552" parent_id="180608862" order="18" structure_id="1" d="M545.311,456.21   c-1.291,2.4-1.5,4.53-0.988,9.45c1.47,13.56,1.857,22.26,1.14,24.3c-0.51,1.44-1.647,2.34-2.938,2.34c-1.5,0-1.262,0.66,0.448,1.29   c0.933,0.33,2.131,1.142,3.211,2.16c0.961,0.9,1.892,1.65,2.069,1.65s0.812-0.393,1.38-0.9l1.08-0.87l0.182-3.84   c0.209-5.49,1.828-16.26,2.908-19.62c0.513-1.5,1.5-3.9,2.25-5.34c0.75-1.44,1.353-2.76,1.353-2.94c0-0.18-0.66-0.567-1.472-0.84   c-3-0.989-7.108-4.53-8.608-7.41C546.689,454.439,546.21,454.59,545.311,456.21z" style="stroke:black;fill:#BFDAE3"/><path id="180623552" parent_id="180608862" order="19" structure_id="1" d="M609.3,362.82   c0,0.51,14.521,14.818,18.72,18.449c7.382,6.329,13.353,10.141,17.16,10.949c0.813,0.182,4.95-0.688,17.91-3.779   c0.78-0.181,1.41-0.479,1.41-0.659c0-0.182-1.17-0.75-2.609-1.23c-1.471-0.479-7.891-3.54-14.341-6.75   c-6.42-3.239-15.479-7.56-20.1-9.6s-10.38-4.62-12.841-5.761C610.08,362.34,609.3,362.1,609.3,362.82z" style="stroke:black;fill:#BFDAE3"/><path id="180623552" parent_id="180608862" order="20" structure_id="1" d="M701.13,356.22   c-0.84,0.271-1.17,0.69-2.16,2.642c-5.64,11.25-15.75,21.479-25.92,26.34c-3.18,1.5-4.318,1.859-11.25,3.6   c-23.88,5.971-38.938,8.61-66.688,11.58c-1.709,0.183-1.771,0.21-1.592,0.99c0.45,2.068,0.541,5.43,0.183,6.96   c-0.812,3.479-3.062,7.2-5.94,9.81c-2.31,2.103-5.818,4.563-6.54,4.563c-0.81,0-1.59,1.35-3.118,5.31   c-0.869,2.25-2.132,4.143-4.859,7.32c-0.78,0.93-1.44,1.92-1.44,2.16s0.721,0.84,1.591,1.35c5.819,3.3,9.899,9.57,12.239,18.813   c1.591,6.39,1.771,12.777,0.391,16.829c-1.288,3.898-4.141,8.488-7.351,11.938c-6.93,7.44-16.05,10.68-25.47,9.15l-2.101-0.36   l-1.319,1.17c-1.44,1.261-1.591,1.8-0.96,3.062c1.14,2.278,3.6,11.159,4.529,16.561c0.238,1.41,0.448,3.57,0.448,4.83v2.28   l3.843,1.829c4.827,2.278,8.938,4.051,15.987,6.841c6.12,2.397,20.4,7.318,21.33,7.318c0.66,0,3.24-2.039,3.24-2.551   c0-0.18-1.439-0.688-3.21-1.14c-12.602-3.21-19.801-11.221-20.4-22.71c-0.51-9.603,5.19-19.8,13.95-24.96   c7.83-4.59,15.09-4.95,26.43-1.29c7.472,2.43,12.063,5.76,14.25,10.35c0.603,1.23,1.08,2.4,1.08,2.61c0,0.84,0.87,0.27,3.302-2.16   c1.409-1.41,3.271-3.061,4.141-3.66c1.92-1.319,2.1-2.069,0.449-1.71c-0.629,0.15-2.699,0.271-4.591,0.271   c-3.42-0.03-3.479-0.03-6.028-1.23c-4.23-2.04-7.11-5.46-8.881-10.59c-1.08-3.062-1.109-7.142-0.119-9.69   c1.71-4.407,5.13-7.827,10.68-10.59c4.23-2.13,6.391-2.67,9.75-2.46c5.55,0.33,10.38,3.36,13.771,8.61   c2.069,3.21,3,6.84,2.462,9.72c-0.78,4.23-4.683,9.24-9.723,12.48c-1.438,0.897-2.58,1.8-2.607,1.979c0,0.24,1.05,0.391,3.09,0.48   c2.67,0.09,3.33,0.237,5.069,1.05c2.398,1.109,4.771,3.24,5.641,5.01c1.229,2.58,0.6,6.392-1.8,11.13   c-2.28,4.44-7.352,11.432-11.102,15.33c-1.471,1.53-6,8.97-6,9.87c0,0.87,0.932,0.45,5.189-2.37c3.39-2.25,4.949-3.54,7.71-6.33   c5.76-5.85,12.601-11.159,22.8-17.609c4.439-2.818,14.37-8.608,17.1-9.988c0.57-0.3,1.803-1.2,2.701-2.012   c2.279-2.068,5.129-3.688,8.549-4.92c4.11-1.471,7.592-2.011,12.75-2.011c4.683-0.028,6.933,0.302,10.592,1.5l2.311,0.78l3.24-3.12   c1.771-1.71,3.24-3.27,3.3-3.45c0.062-0.238-1.681-0.39-5.55-0.51c-7.44-0.24-11.432-1.11-14.34-3.06l-1.08-0.75l-6.66,1.618   c-7.229,1.771-17.971,4.262-23.01,5.312c-1.893,0.39-4.353,0.66-6.15,0.688c-2.729,0.029-3.148-0.061-4.739-0.811   c-4.351-2.16-4.649-6.689-0.931-14.1c1.47-2.881,3.99-6.99,6.15-10.052c2.367-3.329,2.277-4.261-0.271-2.641   c-5.521,3.48-12.148,5.07-16.56,3.96c-7.98-1.979-14.882-9.148-17.132-17.729c-0.811-3.029-0.868-8.579-0.181-11.729   c1.591-7.05,5.431-13.92,10.98-19.53c3.42-3.51,9.568-9.09,26.88-24.39c7.92-7.021,15.897-14.16,17.7-15.9   c1.829-1.738,4.229-3.898,5.34-4.8c1.107-0.898,2.01-1.8,2.01-1.979c0-0.21-0.391-1.2-0.899-2.25c-0.75-1.62-1.771-5.04-2.521-8.46   C702.87,355.74,702.689,355.71,701.13,356.22z" style="stroke:black;fill:#BFDAE3"/><path id="180623552" parent_id="180608862" order="21" structure_id="1" d="M718.41,477.27   c-1.98,0.813-3.84,1.53-4.142,1.62c-1.108,0.301-0.568,1.08,1.319,1.98c2.7,1.29,5.552,1.8,12.722,2.189l6.33,0.358l1.17-0.75   c0.63-0.42,1.5-0.899,1.979-1.108c1.17-0.512,1.021-1.079-0.63-2.102c-3.48-2.25-7.2-3.36-11.91-3.54l-3.3-0.12L718.41,477.27z" style="stroke:black;fill:#BFDAE3"/><path id="180623552" parent_id="180608862" order="22" structure_id="1" d="M837.93,458.88   c-0.33,0.42-0.66,0.99-0.75,1.26c-0.09,0.271-1.229,4.29-2.55,8.91c-4.439,15.57-6.78,22.11-9.989,27.9   c-6.75,12.147-14.641,20.52-23.489,24.96c-1.319,0.66-5.369,2.188-9,3.359c-25.949,8.488-33.302,11.188-40.199,14.67   c-4.29,2.188-9.45,5.521-13.353,8.671c-6.18,4.979-17.1,16.05-22.709,23.04c-2.851,3.539-4.171,4.59-5.131,4.08   c-0.84-0.45-1.02-1.08-0.989-3.87c0.029-1.41-0.091-2.46-0.271-2.46c-0.15,0-0.78,0.51-1.35,1.107l-1.08,1.143l0.147,3.3   c0.15,3.75,0.722,6,1.892,7.38c0.75,0.87,0.898,0.93,2.371,0.81c1.08-0.09,2.1-0.449,3.3-1.17c2.579-1.529,7.409-6.33,12.54-12.42   c9.75-11.608,17.938-18.54,28.02-23.64c4.021-2.04,6.57-3.03,18.96-7.26c21.12-7.23,31.41-11.73,39.15-17.223   c3.239-2.277,8.819-7.89,11.729-11.79c4.44-5.97,8.58-13.89,10.921-20.907c2.819-8.49,5.699-21.75,5.699-26.4   c0-2.1-0.028-2.22-1.02-3.21C839.55,457.89,838.77,457.83,837.93,458.88z" style="stroke:black;fill:#BFDAE3"/><path id="180623552" parent_id="180608862" order="23" structure_id="1" d="M745.65,261.48   c-3.99,0.6-10.17,1.89-16.23,3.39c-14.55,3.66-19.17,5.73-24.811,11.1c-4.261,4.08-6.539,7.98-7.17,12.271   c-0.209,1.35-0.271,2.52-0.149,2.64c0.36,0.39,2.7-0.51,5.61-2.13c8.76-4.89,18.539-7.8,31.5-9.33   c5.278-0.63,21.959-0.9,28.198-0.45c4.949,0.33,7.802,0.811,12.149,2.04c13.021,3.69,28.47,13.74,42.15,27.392   c9.18,9.148,14.158,17.43,18.06,30c3.09,10.05,10.44,43.56,13.71,62.699c7.2,41.909,7.352,68.552,0.511,88.382   c-1.711,4.979-2.278,6.39-4.381,10.47c-3.51,6.93-8.729,14.52-13.619,19.92c-1.261,1.38-2.278,2.7-2.278,2.97   c0,0.36,0.358,0.42,2.34,0.24c9.811-0.87,19.949-5.13,25.5-10.74c2.188-2.22,2.699-2.938,4.26-5.938   c2.641-5.19,4.23-13.17,5.1-25.802c0.183-2.398,0.393-11.579,0.512-20.398c0.271-25.38-0.182-30.602-5.489-61.05   c-2.13-12.24-3.45-18.99-5.25-26.7c-9.03-38.88-25.89-67.05-51.72-86.521c-10.473-7.89-24.9-15.96-37.5-20.939   c-8.223-3.271-9-3.45-15-3.54C748.859,261.39,746.16,261.42,745.65,261.48z" style="stroke:black;fill:#BFDAE3"/><path id="180623552" parent_id="180608862" order="24" structure_id="1" d="M780.21,408.51   c-0.45,12.45-2.88,26.972-5.43,32.4c-3.78,7.95-10.23,12.99-21.182,16.529c-7.289,2.341-13.289,2.37-19.021,0.028l-2.07-0.84   l-5.068,0.812c-5.972,0.931-6.182,1.141-2.972,3.091c4.98,3,11.672,4.107,19.98,3.3c16.29-1.59,29.817-9.66,36.358-21.66   c3.899-7.109,5.909-21.63,4.409-31.35l-0.51-3.15l-1.8-2.25c-0.99-1.229-1.98-2.22-2.16-2.22   C780.51,403.2,780.33,404.76,780.21,408.51z" style="stroke:black;fill:#BFDAE3"/><path id="180623552" parent_id="180608862" order="25" structure_id="1" d="M566.189,339.21   c-2.88,1.229-3.602,3.06-2.489,6.36c1.56,4.71,5.79,8.76,12.239,11.818c1.92,0.9,2.188,0.96,5.608,0.96   c3.24,0,3.75-0.09,5.103-0.75c1.289-0.63,1.5-0.898,1.59-1.71c0.21-2.13-2.82-6.568-8.04-11.79c-4.261-4.289-5.97-5.188-9.9-5.31   C568.109,338.73,567.15,338.82,566.189,339.21z" style="stroke:black;fill:#BFDAE3"/><path id="180623552" parent_id="180608862" order="26" structure_id="1" d="M576,290.43c-4.38,0.12-8.82,0.3-9.9,0.392   c-4.14,0.33-6.51,1.89-8.55,5.58c-1.439,2.64-2.46,3.57-5.79,5.19c-4.528,2.22-7.08,5.34-7.89,9.69   c-0.42,2.279-0.15,5.25,0.63,6.898c0.811,1.62,2.91,3.57,4.891,4.5c1.92,0.87,2.819,0.932,3.062,0.12   c0.09-0.33,0.72-1.05,1.38-1.59c0.63-0.57,1.17-1.17,1.17-1.35c0-0.182-0.392-0.54-0.87-0.78c-2.58-1.35-4.229-3.9-4.438-6.93   c-0.239-3.12,1.229-5.521,5.608-9.15c1.29-1.08,3.45-2.91,4.771-4.11c3.869-3.48,5.397-4.02,13.08-4.71   c10.77-0.99,14.698-1.17,23.55-1.17c12.21-0.03,20.58,0.813,39,3.87c15.45,2.55,18.72,3.45,20.76,5.76   c0.75,0.87,0.87,1.2,0.69,2.04c-0.24,1.32,0.33,1.352,2.1,0.12c1.979-1.35,2.85-2.55,2.85-3.9c0-1.41-0.989-2.37-3.448-3.27   c-2.131-0.81-14.131-2.31-21.602-2.73c-5.64-0.3-8.85-0.81-18.75-2.97c-3.06-0.66-6.96-1.35-8.67-1.53   C606.21,290.07,588.33,290.07,576,290.43z" style="stroke:black;fill:#BFDAE3"/><path id="180623552" parent_id="180608862" order="27" structure_id="1" d="M637.35,529.08   c-1.317,1.08-4.38,3.3-6.81,4.95c-2.46,1.647-4.44,3.21-4.44,3.45c0,0.688,1.381,1.92,2.19,1.92c0.36,0,2.37-0.99,4.41-2.19   l3.72-2.16l2.04-3.54C641.4,526.38,641.189,525.96,637.35,529.08z" style="stroke:black;fill:#BFDAE3"/><path id="180623552" parent_id="180608862" order="28" structure_id="1" d="M553.8,524.46c0,5.101,3.87,19.08,7.05,25.59   c2.223,4.53,3.933,6.392,6.961,7.65c7.319,3.03,15.602,8.37,21.569,13.89c1.021,0.931,1.979,1.71,2.13,1.71   c0.151,0,0.51-0.42,0.813-0.93c2.697-4.56,10.92-13.351,19.17-20.521c5.068-4.41,8.64-7.08,12.898-9.66   c1.771-1.109,3.209-2.129,3.209-2.312c-0.027-0.448-1.709-2.278-2.1-2.278c-0.66,0-8.07,4.528-16.8,10.289   c-5.011,3.329-10.41,6.689-12,7.472c-5.88,2.97-9.75,2.88-11.16-0.271c-0.78-1.738-0.601-3.3,0.69-5.85   c0.72-1.44,1.8-2.73,4.647-5.521c2.04-2.01,3.721-3.84,3.721-4.078c0-0.271-1.979-1.052-5.761-2.312   c-10.62-3.51-22.29-8.07-29.91-11.76c-2.367-1.143-4.5-2.07-4.71-2.07C553.95,523.5,553.8,523.86,553.8,524.46z" style="stroke:black;fill:#BFDAE3"/><path id="180623552" parent_id="180608862" order="29" structure_id="1" d="M686.34,298.2   c-0.779,0.81-0.899,1.08-0.75,2.01c0.271,1.68,1.142,2.34,2.94,2.34c1.29,0,1.62-0.12,2.25-0.84c0.989-1.17,0.93-2.43-0.15-3.54   C689.37,296.94,687.6,296.94,686.34,298.2z" style="stroke:black;fill:#BFDAE3"/><path id="180623552" parent_id="180608862" order="30" structure_id="1" d="M590.91,597.99   c-0.78,0.688-1.41,1.38-1.41,1.528c0,0.512,2.85,3.569,5.07,5.489c5.91,5.04,11.729,7.23,17.25,6.42   c2.43-0.357,3.239-0.96,3.119-2.25c-0.091-0.897-0.149-0.93-2.489-1.317c-6.48-1.08-11.4-3.69-17.04-9.063   c-1.23-1.14-2.43-2.1-2.641-2.1C592.53,596.73,591.72,597.3,590.91,597.99z" style="stroke:black;fill:#BFDAE3"/><path id="180623552" parent_id="180608862" order="31" structure_id="1" d="M719.34,546c-1.71,1.32-2.279,4.38-1.14,6.21   c0.51,0.87,0.75,0.99,1.92,0.99c1.11,0,1.439-0.15,2.1-0.9c1.53-1.859,1.682-4.83,0.3-6.21   C721.65,545.25,720.33,545.189,719.34,546z" style="stroke:black;fill:#BFDAE3"/><path id="180623552" parent_id="180608862" order="32" structure_id="1" d="M740.97,510.36   c-1.35,1.829-3.329,6.06-4.8,10.29c-0.66,1.979-1.77,4.737-2.4,6.118c-0.629,1.382-1.17,2.699-1.17,2.939   c0,1.17,4.08-1.17,5.82-3.33c1.59-1.92,3.061-5.16,3.75-8.28c0.391-1.56,0.96-3.6,1.29-4.5c0.36-0.897,0.63-2.25,0.66-3   c0.03-1.35,0.03-1.35-1.08-1.438C742.02,509.07,741.84,509.189,740.97,510.36z" style="stroke:black;fill:#BFDAE3"/><path id="180623552" parent_id="180608862" order="33" structure_id="1" d="M568.5,450.33c0,5.1-1.77,8.97-7.561,16.62   c-1.142,1.47-2.341,3.42-2.67,4.35c-0.479,1.261-2.369,14.04-2.369,15.96c0,0.45,2.55,0.24,4.979-0.357   c7.682-1.98,13.59-7.29,16.38-14.763c0.75-2.04,0.96-3.09,1.08-5.729c0.091-1.92,0-3.96-0.239-5.102   c-0.898-4.738-4.08-9.931-7.618-12.541C568.65,447.42,568.5,447.54,568.5,450.33z" style="stroke:black;fill:#BFDAE3"/><path id="180623552" parent_id="180608862" order="34" structure_id="1" d="M553.83,581.25   c-2.67,0.84-3.33,2.16-3.33,6.75v2.88l5.85,1.29c4.74,1.05,6.15,1.23,7.41,1.08l1.53-0.21l-0.181-2.76   c-0.329-4.893-1.649-7.86-3.932-8.91C559.68,580.71,555.811,580.62,553.83,581.25z" style="stroke:black;fill:#BFDAE3"/><path id="180623552" parent_id="180608862" order="35" structure_id="1" d="M575.13,582.57   c-1.26,0.33-2.46,1.198-2.939,2.16c-0.539,0.987-0.479,4.14,0.062,5.697c0.87,2.433,2.313,3.48,6.75,4.92   c1.41,0.45,4.08,1.53,5.97,2.433c1.892,0.897,3.631,1.62,3.9,1.62c0.568,0,6.029-5.37,6.029-5.94c0-0.24-0.479-0.36-1.319-0.36   c-1.563,0-4.65-0.93-6.33-1.89c-1.438-0.81-2.43-2.22-2.7-3.81c-0.358-2.16-3.96-4.74-6.87-4.95   C576.84,582.39,575.7,582.45,575.13,582.57z" style="stroke:black;fill:#BFDAE3"/><path id="180623552" parent_id="180608862" order="36" structure_id="1" d="M548.7,565.47c0,2.13-0.091,4.261-0.182,4.74   l-0.181,0.87l3.302,0.81c3.931,0.96,7.858,2.521,10.05,3.933c0.87,0.54,2.7,1.947,4.108,3.117c4.262,3.57,6.99,4.86,8.342,3.99   c0.328-0.21,0.358-0.567,0.091-1.89c-1.44-6.811-8.28-13.352-18.33-17.49c-1.65-0.66-6.211-1.95-6.961-1.95   C548.79,561.6,548.7,563.34,548.7,565.47z" style="stroke:black;fill:#BFDAE3"/><path id="180623552" parent_id="180608862" order="37" structure_id="1" d="M701.13,356.22   c-0.84,0.271-1.17,0.69-2.16,2.642c-5.64,11.25-15.75,21.479-25.92,26.34c-3.18,1.5-4.318,1.859-11.25,3.6   c-23.88,5.971-38.938,8.61-66.688,11.58c-1.709,0.183-1.771,0.21-1.592,0.99c0.45,2.068,0.541,5.43,0.183,6.96   c-0.812,3.479-3.062,7.2-5.94,9.81c-2.31,2.103-5.818,4.563-6.54,4.563c-0.81,0-1.59,1.35-3.118,5.31   c-0.869,2.25-2.132,4.143-4.859,7.32c-0.78,0.93-1.44,1.92-1.44,2.16s0.721,0.84,1.591,1.35c5.819,3.3,9.899,9.57,12.239,18.813   c1.591,6.39,1.771,12.777,0.391,16.829c-1.288,3.898-4.141,8.488-7.351,11.938c-6.93,7.44-16.05,10.68-25.47,9.15l-2.101-0.36   l-1.319,1.17c-1.44,1.261-1.591,1.8-0.96,3.062c1.14,2.278,3.6,11.159,4.529,16.561c0.238,1.41,0.448,3.57,0.448,4.83v2.28   l3.843,1.829c4.827,2.278,8.938,4.051,15.987,6.841c6.12,2.397,20.4,7.318,21.33,7.318c0.66,0,3.24-2.039,3.24-2.551   c0-0.18-1.439-0.688-3.21-1.14c-12.602-3.21-19.801-11.221-20.4-22.71c-0.51-9.603,5.19-19.8,13.95-24.96   c7.83-4.59,15.09-4.95,26.43-1.29c7.472,2.43,12.063,5.76,14.25,10.35c0.603,1.23,1.08,2.4,1.08,2.61c0,0.84,0.87,0.27,3.302-2.16   c1.409-1.41,3.271-3.061,4.141-3.66c1.92-1.319,2.1-2.069,0.449-1.71c-0.629,0.15-2.699,0.271-4.591,0.271   c-3.42-0.03-3.479-0.03-6.028-1.23c-4.23-2.04-7.11-5.46-8.881-10.59c-1.08-3.062-1.109-7.142-0.119-9.69   c1.71-4.407,5.13-7.827,10.68-10.59c4.23-2.13,6.391-2.67,9.75-2.46c5.55,0.33,10.38,3.36,13.771,8.61   c2.069,3.21,3,6.84,2.462,9.72c-0.78,4.23-4.683,9.24-9.723,12.48c-1.438,0.897-2.58,1.8-2.607,1.979c0,0.24,1.05,0.391,3.09,0.48   c2.67,0.09,3.33,0.237,5.069,1.05c2.398,1.109,4.771,3.24,5.641,5.01c1.229,2.58,0.6,6.392-1.8,11.13   c-2.28,4.44-7.352,11.432-11.102,15.33c-1.471,1.53-6,8.97-6,9.87c0,0.87,0.932,0.45,5.189-2.37c3.39-2.25,4.949-3.54,7.71-6.33   c5.76-5.85,12.601-11.159,22.8-17.609c4.439-2.818,14.37-8.608,17.1-9.988c0.57-0.3,1.803-1.2,2.701-2.012   c2.279-2.068,5.129-3.688,8.549-4.92c4.11-1.471,7.592-2.011,12.75-2.011c4.683-0.028,6.933,0.302,10.592,1.5l2.311,0.78l3.24-3.12   c1.771-1.71,3.24-3.27,3.3-3.45c0.062-0.238-1.681-0.39-5.55-0.51c-7.44-0.24-11.432-1.11-14.34-3.06l-1.08-0.75l-6.66,1.618   c-7.229,1.771-17.971,4.262-23.01,5.312c-1.893,0.39-4.353,0.66-6.15,0.688c-2.729,0.029-3.148-0.061-4.739-0.811   c-4.351-2.16-4.649-6.689-0.931-14.1c1.47-2.881,3.99-6.99,6.15-10.052c2.367-3.329,2.277-4.261-0.271-2.641   c-5.521,3.48-12.148,5.07-16.56,3.96c-7.98-1.979-14.882-9.148-17.132-17.729c-0.811-3.029-0.868-8.579-0.181-11.729   c1.591-7.05,5.431-13.92,10.98-19.53c3.42-3.51,9.568-9.09,26.88-24.39c7.92-7.021,15.897-14.16,17.7-15.9   c1.829-1.738,4.229-3.898,5.34-4.8c1.107-0.898,2.01-1.8,2.01-1.979c0-0.21-0.391-1.2-0.899-2.25c-0.75-1.62-1.771-5.04-2.521-8.46   C702.87,355.74,702.689,355.71,701.13,356.22z" style="stroke:black;fill:#BFDAE3"/><path id="180623552" parent_id="180608862" order="38" structure_id="1" d="M559.26,437.4   c-5.04,1.317-9.75,4.979-11.79,9.147c-0.897,1.86-1.02,2.37-1.02,4.5c0,1.98,0.148,2.7,0.78,4.05c1.438,3.03,3.987,5.553,7.289,7.2   c2.791,1.41,3.181,1.29,5.131-1.438c2.34-3.271,3.27-5.342,4.38-9.813c0.84-3.33,1.14-4.05,1.979-4.92   c0.54-0.569,0.99-1.229,0.99-1.5c0.03-0.81,1.17-3.09,2.43-4.77c0.69-0.87,1.143-1.771,1.08-1.98   C570.09,436.77,562.859,436.47,559.26,437.4z" style="stroke:black;fill:#BFDAE3"/><path id="180623552" parent_id="180608862" order="39" structure_id="1" d="M587.25,385.29c-2.189-4.56-4.2-7.74-7.439-11.82l-2.311-2.85l-5.16-0.99   c-11.46-2.19-22.59-3.93-25.29-3.93h-0.989l-0.12,9.51c-0.118,8.58-0.209,9.78-0.778,11.91c-0.813,2.97-1.74,4.62-3.03,5.49   c-0.708,0.474-1.436,0.694-2.147,0.698v9.892H540h0.9v15.75v15.75H540h-0.02v30.426c0.188-0.483,0.395-1.8,0.59-3.966   c0.448-5.04,1.35-10.29,1.647-9.63c0.12,0.27,0.45,1.89,0.75,3.6c0.392,2.311,0.66,3.15,0.99,3.21c0.33,0.063,0.54-0.21,0.689-0.81   c0.091-0.48,0.601-1.44,1.079-2.13c0.842-1.17,0.869-1.32,0.602-2.79c-0.57-3.092,0.75-6.57,3.66-9.723   c3.148-3.329,7.229-5.43,12-6.119c2.188-0.329,2.97-0.301,5.938,0.182l3.392,0.54l1.171-1.32c2.76-3.15,4.68-6,5.46-8.1   c0.449-1.23,1.199-2.94,1.68-3.813c0.84-1.5,0.87-1.647,0.57-3.449c-0.15-1.021-0.301-2.818-0.33-3.961   c0-1.17-0.183-3.688-0.392-5.64l-0.358-3.54l6.75-3.479c3.75-1.922,6.84-3.539,6.897-3.602   C593.25,400.2,589.74,390.51,587.25,385.29z" style="stroke:black;fill:#BFDAE3"/><path id="180623552" parent_id="180608862" order="40" structure_id="1" d="M585.9,404.22l-6.45,3.36l0.03,1.05   c0.027,1.95,0.75,11.22,0.959,12.57c0.301,1.979,0.931,1.92,3.961-0.392c3.777-2.851,6.3-5.671,7.857-8.79   c1.23-2.488,1.29-2.729,1.382-5.788c0.118-3.422-0.182-5.25-0.87-5.343C592.53,400.86,589.439,402.36,585.9,404.22z" style="stroke:black;fill:#BFDAE3"/><path id="180623552" parent_id="180608862" order="41" structure_id="1" d="M722.85,212.31   c-7.647,0.39-17.938,1.89-25.229,3.69c-6.391,1.56-10.29,2.94-14.67,5.1c-6.99,3.48-12,7.8-21.57,18.54   c-3,3.36-5.64,6.39-5.88,6.72c-0.96,1.35-6.57,6.06-8.608,7.29c-6.899,4.02-18.689,5.7-34.83,4.95   c-4.352-0.18-7.979-0.27-8.102-0.15c-0.811,0.81,2.641,2.67,6.898,3.72c5.25,1.32,8.672,1.62,17.489,1.47l7.802-0.15l7.051-1.44   c13.47-2.7,13.8-2.88,30.147-17.22c21.541-18.9,26.19-21.42,43.2-23.64c5.28-0.66,19.229-0.75,23.4-0.15   c8.159,1.23,15.42,3.18,27.42,7.38c22.95,8.04,37.53,14.88,51.689,24.3c13.079,8.67,25.351,20.312,35.101,33.33   c8.79,11.73,23.58,37.682,31.29,54.9c6.688,14.938,11.159,28.83,14.7,45.6c4.08,19.5,5.067,29.433,4.618,46.65   c-0.239,8.34-0.63,13.83-2.551,34.647c-3.449,37.74-4.408,41.94-14.55,62.82c-6.062,12.45-10.529,19.021-18.24,26.76   c-8.01,8.012-15.72,13.563-27.897,20.07c-12.721,6.78-26.221,12.45-47.341,19.8c-11.729,4.11-15.569,5.58-21.301,8.13   c-7.199,3.183-13.291,6.842-13.291,7.92c0,0.75,0.813,0.513,3.24-0.897c4.681-2.7,9.9-4.8,26.313-10.65   c11.31-4.02,18.147-6.688,36.539-14.22c12.391-5.07,15.061-6.391,27.511-13.62c8.818-5.13,10.68-6.3,14.04-8.88   c3.39-2.61,9.568-8.82,12.42-12.48c9.479-12.237,16.949-29.31,20.16-46.05c2.31-12.06,5.52-38.01,6.897-55.8   c0.99-12.51,1.2-17.22,1.2-27.45c0-11.608-0.062-12.358-2.101-24.66c-5.102-30.658-15.602-60.93-30.091-86.908   c-17.909-32.042-35.34-52.23-56.791-65.7c-10.049-6.3-27.93-15.12-45.237-22.23c-10.711-4.438-22.802-8.76-28.44-10.2   C740.43,212.37,731.49,211.86,722.85,212.31z" style="stroke:black;fill:#BFDAE3"/><path id="180623552" parent_id="180608862" order="42" structure_id="1" d="M541.26,455.91   c-0.18,1.29-0.51,6.93-0.72,12.54c-0.39,11.1-0.09,18.989,0.81,21.96c0.45,1.529,0.512,1.59,1.5,1.59   c2.103,0,2.853-1.71,2.853-6.39c0-4.83-1.562-21.933-2.73-29.7c-0.27-1.86-0.448-2.313-0.868-2.313   C541.71,453.6,541.53,454.05,541.26,455.91z" style="stroke:black;fill:#BFDAE3"/><path id="180623552" parent_id="180608862" order="43" structure_id="1" d="M701.13,356.22   c-0.84,0.271-1.17,0.69-2.16,2.642c-5.64,11.25-15.75,21.479-25.92,26.34c-3.18,1.5-4.318,1.859-11.25,3.6   c-23.88,5.971-38.938,8.61-66.688,11.58c-1.709,0.183-1.771,0.21-1.592,0.99c0.45,2.068,0.541,5.43,0.183,6.96   c-0.812,3.479-3.062,7.2-5.94,9.81c-2.31,2.103-5.818,4.563-6.54,4.563c-0.81,0-1.59,1.35-3.118,5.31   c-0.869,2.25-2.132,4.143-4.859,7.32c-0.78,0.93-1.44,1.92-1.44,2.16s0.721,0.84,1.591,1.35c5.819,3.3,9.899,9.57,12.239,18.813   c1.591,6.39,1.771,12.777,0.391,16.829c-1.288,3.898-4.141,8.488-7.351,11.938c-6.93,7.44-16.05,10.68-25.47,9.15l-2.101-0.36   l-1.319,1.17c-1.44,1.261-1.591,1.8-0.96,3.062c1.14,2.278,3.6,11.159,4.529,16.561c0.238,1.41,0.448,3.57,0.448,4.83v2.28   l3.843,1.829c4.827,2.278,8.938,4.051,15.987,6.841c6.12,2.397,20.4,7.318,21.33,7.318c0.66,0,3.24-2.039,3.24-2.551   c0-0.18-1.439-0.688-3.21-1.14c-12.602-3.21-19.801-11.221-20.4-22.71c-0.51-9.603,5.19-19.8,13.95-24.96   c7.83-4.59,15.09-4.95,26.43-1.29c7.472,2.43,12.063,5.76,14.25,10.35c0.603,1.23,1.08,2.4,1.08,2.61c0,0.84,0.87,0.27,3.302-2.16   c1.409-1.41,3.271-3.061,4.141-3.66c1.92-1.319,2.1-2.069,0.449-1.71c-0.629,0.15-2.699,0.271-4.591,0.271   c-3.42-0.03-3.479-0.03-6.028-1.23c-4.23-2.04-7.11-5.46-8.881-10.59c-1.08-3.062-1.109-7.142-0.119-9.69   c1.71-4.407,5.13-7.827,10.68-10.59c4.23-2.13,6.391-2.67,9.75-2.46c5.55,0.33,10.38,3.36,13.771,8.61   c2.069,3.21,3,6.84,2.462,9.72c-0.78,4.23-4.683,9.24-9.723,12.48c-1.438,0.897-2.58,1.8-2.607,1.979c0,0.24,1.05,0.391,3.09,0.48   c2.67,0.09,3.33,0.237,5.069,1.05c2.398,1.109,4.771,3.24,5.641,5.01c1.229,2.58,0.6,6.392-1.8,11.13   c-2.28,4.44-7.352,11.432-11.102,15.33c-1.471,1.53-6,8.97-6,9.87c0,0.87,0.932,0.45,5.189-2.37c3.39-2.25,4.949-3.54,7.71-6.33   c5.76-5.85,12.601-11.159,22.8-17.609c4.439-2.818,14.37-8.608,17.1-9.988c0.57-0.3,1.803-1.2,2.701-2.012   c2.279-2.068,5.129-3.688,8.549-4.92c4.11-1.471,7.592-2.011,12.75-2.011c4.683-0.028,6.933,0.302,10.592,1.5l2.311,0.78l3.24-3.12   c1.771-1.71,3.24-3.27,3.3-3.45c0.062-0.238-1.681-0.39-5.55-0.51c-7.44-0.24-11.432-1.11-14.34-3.06l-1.08-0.75l-6.66,1.618   c-7.229,1.771-17.971,4.262-23.01,5.312c-1.893,0.39-4.353,0.66-6.15,0.688c-2.729,0.029-3.148-0.061-4.739-0.811   c-4.351-2.16-4.649-6.689-0.931-14.1c1.47-2.881,3.99-6.99,6.15-10.052c2.367-3.329,2.277-4.261-0.271-2.641   c-5.521,3.48-12.148,5.07-16.56,3.96c-7.98-1.979-14.882-9.148-17.132-17.729c-0.811-3.029-0.868-8.579-0.181-11.729   c1.591-7.05,5.431-13.92,10.98-19.53c3.42-3.51,9.568-9.09,26.88-24.39c7.92-7.021,15.897-14.16,17.7-15.9   c1.829-1.738,4.229-3.898,5.34-4.8c1.107-0.898,2.01-1.8,2.01-1.979c0-0.21-0.391-1.2-0.899-2.25c-0.75-1.62-1.771-5.04-2.521-8.46   C702.87,355.74,702.689,355.71,701.13,356.22z" style="stroke:black;fill:#BFDAE3"/><path id="180623552" parent_id="180608862" order="44" structure_id="1" d="M565.5,446.76c-0.3,0.51-0.9,2.46-1.35,4.29   c-0.961,4.08-1.83,6.03-4.771,10.32c-2.488,3.63-4.229,7.08-5.46,10.71c-1.17,3.51-3.39,19.74-3,21.87   c0.24,1.229,0.57,1.47,1.53,1.229c1.71-0.42,2.817-4.38,4.08-14.43c1.17-9.479,1.29-9.812,4.92-14.55   c5.37-7.05,7.408-12.03,6.96-17.04C568.08,445.92,566.7,444.78,565.5,446.76z" style="stroke:black;fill:#BFDAE3"/><path id="180623552" parent_id="180608862" order="45" structure_id="1" d="M546.3,496.77c0,0.183,0.33,1.5,0.75,2.94   c1.05,3.601,1.53,6.96,2.102,14.34c0.721,9.391,1.409,13.05,2.521,13.05c0.84,0,1.261-0.479,1.682-1.947   c0.84-2.7,0.42-7.263-1.352-14.94c-1.648-7.2-4.021-13.438-5.188-13.647C546.51,496.5,546.3,496.59,546.3,496.77z" style="stroke:black;fill:#BFDAE3"/><path id="180623552" parent_id="180608862" order="46" structure_id="1" d="M882.9,553.89   c-2.37,3.092-8.67,9.48-12.15,12.36c-3,2.46-8.34,6.24-11.01,7.77c-1.71,0.99-1.95,1.83-0.45,1.563   c8.01-1.44,31.41-2.43,41.16-1.71c8.79,0.63,21.18,2.04,36.239,4.109c1.141,0.148,1.408,0.118,1.408-0.239   c0-0.45-52.26-26.04-53.13-26.04C884.73,551.73,883.8,552.689,882.9,553.89z" style="stroke:black;fill:#BFDAE3"/><path id="180623552" parent_id="180608862" order="47" structure_id="1" d="M939.15,581.91   c-4.83,6.84-7.23,9.779-10.381,12.81c-10.052,9.63-24.75,15.603-44.069,17.94c-4.29,0.51-17.91,0.479-29.16-0.03   c-11.399-0.54-17.79-0.24-24.54,1.17c-2.4,0.48-5.25,0.99-6.359,1.08c-2.488,0.24-2.67,0.78-0.42,1.229   c3.271,0.688,7.949,3.358,9.841,5.641c2.88,3.45,2.698,6.84-0.479,9.66c-3.568,3.148-10.2,5.34-21.18,7.02   c-5.67,0.87-15.723,0.96-19.11,0.183c-4.771-1.11-9.569-3.12-11.13-4.683c-1.562-1.59-1.979-2.64-1.979-4.979   c0-2.103,0.391-3.33,1.83-5.61c0.301-0.45,0.42-0.898,0.301-1.02c-0.36-0.36-2.521,0.329-6.42,2.01   c-9.631,4.17-12.48,5.34-15.092,6.24c-1.561,0.54-3.119,1.107-3.449,1.229c-1.381,0.54-5.609,1.261-8.432,1.41   c-5.1,0.271-8.88-0.72-13.14-3.51c-1.921-1.262-5.28-4.53-5.28-5.16c0-0.45-1.05-0.24-3.898,0.78   c-1.682,0.6-2.881,1.197-2.939,1.47c-0.21,1.11,6.51,5.819,10.8,7.56c7.352,3,12.03,3.75,24.99,4.052   c12.12,0.301,13.56,0.538,24.39,4.051c2.761,0.87,5.972,1.89,7.11,2.22c11.729,3.42,24.659,2.85,36.6-1.62   c1.62-0.6,6.392-2.817,10.65-4.95c8.55-4.229,12.78-6,16.56-6.897c1.382-0.33,6.48-1.05,11.341-1.65   c16.682-1.979,24.812-3.81,34.95-7.859c12.899-5.13,23.311-11.938,33.72-22.141c5.489-5.37,14.432-15.63,14.432-16.56   c0-0.24-7.261-3.99-7.74-3.99C941.34,579,940.29,580.32,939.15,581.91z" style="stroke:black;fill:#BFDAE3"/><path id="180623552" parent_id="180608862" order="48" structure_id="1" d="M718.8,220.95   c-7.17,0.81-14.55,2.25-16.14,3.12c-0.601,0.33-2.34,5.7-2.94,9.06c-1.14,6.54,0.69,14.25,5.07,21.48   c0.93,1.56,1.71,2.07,1.71,1.08c0-1.5,0.689-4.29,1.08-4.29c0.27,0,0.42-0.36,0.42-1.14c0.03-4.62,9.84-15.12,17.49-18.66   c1.02-0.48,3.06-1.11,4.5-1.38c2.58-0.51,2.91-0.51,10.8,0.15c8.34,0.72,12.24,1.2,15.271,2.01c2.279,0.57,8.012,3.03,21.392,9.18   c35.52,16.32,48.75,24.9,57.237,37.14c2.462,3.57,3.962,5.46,13.98,17.88c4.92,6.09,6.93,9.06,10.77,15.87   c7.771,13.83,16.23,31.26,21.063,43.35c2.608,6.511,3.75,9.96,5.7,17.25c8.397,31.353,10.8,57,8.397,88.65   c-2.188,28.317-7.26,49.108-16.08,65.58c-0.897,1.68-1.618,3.238-1.618,3.42c0,0.54,1.92,0.239,6.631-1.05   c2.13-0.57,4.198-1.053,4.56-1.053c0.722,0,0.54,0.303,3.96-7.35c4.41-9.87,6.63-18.78,8.25-33.3c0.603-5.37,3.24-34.08,3.96-43.2   c0.24-2.939,0.393-9.84,0.393-17.852c0-11.818-0.063-13.561-0.69-18.601c-1.439-11.43-4.89-28.11-8.22-39.6   c-4.83-16.8-13.32-35.94-24.78-55.95c-12.18-21.3-18.51-30.21-29.31-41.22c-12.09-12.33-24.42-21.15-41.25-29.55   c-10.353-5.16-18.12-8.34-33.03-13.56c-11.729-4.11-18.181-5.88-26.28-7.2C736.95,220.56,723.84,220.38,718.8,220.95z" style="stroke:black;fill:#BFDAE3"/><path id="180623552" parent_id="180608862" order="49" structure_id="1" d="M697.232,290.57c-0.023-0.141-0.032-0.319-0.032-0.562c0.03-4.5,2.67-9.51,7.409-14.04   c2.881-2.76,5.341-4.47,8.671-6.03c1.38-0.63,2.52-1.32,2.52-1.5s-1.14-1.53-2.55-3s-3.391-3.75-4.41-5.07   c-1.02-1.29-2.01-2.37-2.25-2.37s-0.39,0.39-0.39,1.11c0,0.99-0.24,1.35-1.74,2.79c-0.96,0.9-4.38,3.51-7.59,5.82   c-9.09,6.48-16.08,9.63-28.32,12.63c-6.42,1.59-14.04,2.91-20.85,3.63c-14.37,1.47-39.33-1.53-42.271-5.1   c-0.75-0.9-1.5-0.54-3.027,1.53c-1.65,2.28-5.7,8.91-5.7,9.39c0,0.18,1.77,0.3,4.92,0.3c6.51,0,10.021,0.39,16.68,1.83   c9.9,2.16,13.11,2.67,18.75,2.97c2.971,0.18,8.67,0.72,12.66,1.2c1.211,0.148,2.272,0.287,3.231,0.422   C667.705,297.43,682.469,294.495,697.232,290.57z" style="stroke:black;fill:#BFDAE3"/><path id="180623552" parent_id="180608862" order="50" structure_id="1" d="M966.84,512.01   c0.12,10.771,0.062,12.931-0.358,15.393c-0.989,5.579-3.479,11.817-10.649,26.55c-3.722,7.62-6.84,13.17-11.101,19.71   c-1.682,2.55-3.029,4.8-3.029,4.979c0,0.422,6.96,3.961,7.77,3.961c1.53,0,11.79-15.931,17.4-27   c6.93-13.648,7.95-17.25,8.729-30.721c0.329-5.938,0.392-17.91,0.119-21.63l-0.21-2.399l-3.778-0.688   c-2.069-0.36-4.08-0.66-4.409-0.66h-0.632L966.84,512.01z" style="stroke:black;fill:#BFDAE3"/><path id="180623552" parent_id="180608862" order="51" structure_id="1" d="M861,506.4   c-2.88,6.18-9.6,11.31-18.75,14.368c-3.75,1.229-8.52,2.189-11.641,2.279l-2.642,0.063l-2.01,1.949   c-12.09,11.608-29.818,20.278-67.29,32.88c-5.85,1.979-11.398,3.961-12.3,4.408c-4.95,2.49-9.84,6.57-15.721,13.021   c-3.329,3.66-5.729,6.78-12.869,16.5c-2.103,2.88-2.79,3.63-3.36,3.63c-0.54,0-0.72,0.18-0.72,0.63c0,0.33-0.392,1.17-0.87,1.86   c-1.2,1.77-2.16,4.528-2.34,6.81c-0.33,3.99,1.738,9.45,5.46,14.49c2.067,2.79,6.63,7.71,7.14,7.71c0.15,0,0.45-0.18,0.63-0.42   c0.183-0.21,1.65-0.84,3.271-1.41c1.59-0.54,2.91-1.17,2.91-1.35c0-0.183-0.183-0.9-0.42-1.563c-1.712-4.8-0.36-9.51,4.229-15.06   c8.91-10.71,24.21-20.07,40.59-24.78c2.552-0.75,11.07-2.76,18.9-4.5c19.979-4.41,26.13-6.12,34.229-9.45   c7.021-2.85,10.92-5.158,21.87-12.869c7.53-5.311,10.95-7.979,13.921-10.801c2.521-2.397,6.149-7.02,7.38-9.39   c0.75-1.44,0.75-1.44,0.149-1.771c-0.33-0.18-1.32-1.05-2.22-1.95c-3.78-3.867-6.063-11.938-6.15-21.897   c-0.029-3.271-0.147-4.89-0.359-4.89C861.84,504.9,861.391,505.561,861,506.4z" style="stroke:black;fill:#BFDAE3"/><path id="180623552" parent_id="180608862" order="52" structure_id="1" d="M617.49,515.01   c-1.32,1.801-2.972,4.08-3.69,5.103c-0.72,1.05-1.5,1.89-1.71,1.89s-0.39,0.271-0.39,0.57c0,0.33-0.12,0.688-0.3,0.777   c-0.512,0.33-0.33,1.353,0.238,1.353c0.271,0,2.789-0.33,5.579-0.75c5.91-0.84,7.53-1.47,8.37-3.21   c0.36-0.723,0.479-1.38,0.33-1.802c-0.09-0.391-1.32-1.771-2.7-3.091c-1.949-1.857-2.52-2.607-2.52-3.237   C620.7,511.14,619.891,511.74,617.49,515.01z" style="stroke:black;fill:#BFDAE3"/><path id="180623552" parent_id="180608862" order="53" structure_id="1" d="M594.6,539.58   c0,0.27-1.68,2.13-3.72,4.14c-3.989,3.87-5.398,6.03-5.76,8.7c-0.36,2.49,1.05,4.5,3.54,5.1c1.438,0.33,5.04-0.63,8.07-2.157   c3.27-1.65,19.17-12.03,19.17-12.54c0-0.21-1.44-0.393-4.11-0.512c-2.28-0.091-5.34-0.391-6.84-0.658   c-3.78-0.66-8.67-1.92-8.79-2.25C595.98,538.89,594.6,539.07,594.6,539.58z" style="stroke:black;fill:#BFDAE3"/><path id="180623552" parent_id="180608862" order="54" structure_id="1" d="M547.2,572.13   c-0.57,0.51-1.83,1.26-2.761,1.71c-1.649,0.75-2.312,1.563-1.289,1.563c0.27,0,1.26,0.39,2.22,0.867   c2.22,1.143,4.41,3.541,4.86,5.313c0.357,1.438,0.777,1.62,1.618,0.72c1.319-1.47,6.932-2.01,9.329-0.93   c2.313,1.05,3.603,4.02,3.932,8.97l0.181,2.82l0.899-0.182c0.511-0.091,2.011-0.688,3.358-1.318l2.46-1.11l-0.148-2.43   c-0.119-1.92-0.029-2.641,0.391-3.54c0.3-0.601,0.48-1.142,0.42-1.17c-0.061-0.03-0.87-0.42-1.77-0.9   c-0.933-0.447-2.791-1.738-4.17-2.85c-4.2-3.393-6.36-4.8-9.183-5.91c-2.43-0.96-8.13-2.58-8.97-2.55   C548.4,571.23,547.77,571.62,547.2,572.13z" style="stroke:black;fill:#BFDAE3"/><path id="180623552" parent_id="180608862" order="55" structure_id="1" d="M587.4,352.26c0,0.21,0.3,1.08,0.659,1.95   c0.601,1.5,0.601,1.59,0.118,2.34c-0.63,0.96-2.01,1.59-4.438,2.011c-0.96,0.181-1.74,0.449-1.74,0.659   c0,0.182,1.109,0.66,2.49,1.021c1.35,0.39,4.14,1.35,6.21,2.16c9.3,3.688,13.29,7.738,11.1,11.34c-1.59,2.58-4.59,2.46-15.03-0.511   c-4.08-1.17-7.618-2.131-7.89-2.131c-0.63,0-0.63,0.722,0.03,1.23c0.99,0.84,4.89,6.33,6.54,9.27   c2.37,4.262,5.58,11.94,7.26,17.552c0.39,1.229,0.931,1.229,9.57,0.3c13.89-1.5,21.87-2.7,33.659-4.98   c6.811-1.35,7.858-1.62,7.858-2.068c0-0.36-0.358-0.66-0.988-0.87c-1.53-0.511-6.149-3.33-8.939-5.46   c-4.89-3.722-8.91-7.381-17.97-16.32l-9.15-9.03l-4.2-1.979c-2.31-1.11-5.818-2.7-7.8-3.54c-1.981-0.84-4.32-1.95-5.22-2.432   C587.73,351.811,587.4,351.72,587.4,352.26z" style="stroke:black;fill:#BFDAE3"/><path id="180623552" parent_id="180608862" order="56" structure_id="1" d="M587.25,385.29c-2.189-4.56-4.2-7.74-7.439-11.82l-2.311-2.85l-5.16-0.99   c-11.46-2.19-22.59-3.93-25.29-3.93h-0.989l-0.12,9.51c-0.118,8.58-0.209,9.78-0.778,11.91c-0.813,2.97-1.74,4.62-3.03,5.49   c-0.708,0.474-1.436,0.694-2.147,0.698v9.892H540h0.9v15.75v15.75H540h-0.02v30.426c0.188-0.483,0.395-1.8,0.59-3.966   c0.448-5.04,1.35-10.29,1.647-9.63c0.12,0.27,0.45,1.89,0.75,3.6c0.392,2.311,0.66,3.15,0.99,3.21c0.33,0.063,0.54-0.21,0.689-0.81   c0.091-0.48,0.601-1.44,1.079-2.13c0.842-1.17,0.869-1.32,0.602-2.79c-0.57-3.092,0.75-6.57,3.66-9.723   c3.148-3.329,7.229-5.43,12-6.119c2.188-0.329,2.97-0.301,5.938,0.182l3.392,0.54l1.171-1.32c2.76-3.15,4.68-6,5.46-8.1   c0.449-1.23,1.199-2.94,1.68-3.813c0.84-1.5,0.87-1.647,0.57-3.449c-0.15-1.021-0.301-2.818-0.33-3.961   c0-1.17-0.183-3.688-0.392-5.64l-0.358-3.54l6.75-3.479c3.75-1.922,6.84-3.539,6.897-3.602   C593.25,400.2,589.74,390.51,587.25,385.29z" style="stroke:black;fill:#BFDAE3"/><path id="180623552" parent_id="180608862" order="57" structure_id="1" d="M601.65,369.63c-1.802-3.54-10.261-7.59-22.2-10.649c-10.602-2.758-30.313-5.536-39.47-5.74v12.037   c4.002,0.011,8.077,0.242,11.42,0.692c11.85,1.591,24.988,4.17,32.85,6.42c8.729,2.521,10.62,2.972,13.08,3.03   c2.58,0.03,3.688-0.39,4.35-1.68C602.22,372.689,602.22,370.71,601.65,369.63z" style="stroke:black;fill:#BFDAE3"/><path id="180623552" parent_id="180608862" order="58" structure_id="1" d="M595.5,342.9   c-7.141,0.869-10.2,2.369-10.2,5.01c0,2.49,1.74,3.84,8.91,6.96c2.61,1.14,7.771,3.51,11.49,5.28   c8.88,4.229,9.93,4.71,18.897,8.698c11.58,5.132,16.143,7.29,25.65,12.15c8.16,4.17,12.271,5.938,14.938,6.42   c2.041,0.392,9.42-2.49,10.53-4.08c1.08-1.528,0.36-5.13-1.829-9.24c-2.701-5.01-8.489-12.93-11.521-15.72   c-7.65-7.08-24.42-13.05-42.42-15.06C615.03,342.78,598.859,342.51,595.5,342.9z" style="stroke:black;fill:#BFDAE3"/><path id="180623552" parent_id="180608862" order="59" structure_id="1" d="M704.04,369.78   c-2.13,1.8-2.851,2.818-2.01,2.818c1.26,0,1.92,9.57,1.68,23.852c-0.24,12.51-0.87,17.64-3.271,25.95   c-2.012,7.02-6,16.107-10.109,23.067c-2.07,3.48-2.82,4.5-8.43,11.28c-3.183,3.84-8.7,11.97-8.7,12.84c0,0.69,0.147,0.66,3.45-0.81   c2.159-0.96,12.75-3.9,24-6.66c3.447-0.84,12.238-2.521,18.688-3.57c0.69-0.12,1.261-0.33,1.261-0.51   c0-0.15-0.631-1.021-1.409-1.892c-4.409-4.92-6.149-11.038-6.149-21.301c0-5.76,0.45-10.38,1.74-18.06   c0.779-4.59,0.81-5.22,1.02-21.69c0.24-19.47,0.12-18.688,2.91-21.568c0.87-0.9,1.59-1.771,1.59-1.892   c0-0.121-1.859-0.239-4.109-0.239c-3.72,0-4.288-0.09-5.641-0.721c-0.81-0.39-1.979-1.199-2.52-1.8c-0.57-0.6-1.2-1.08-1.353-1.08   C706.5,367.8,705.3,368.7,704.04,369.78z" style="stroke:black;fill:#BFDAE3"/><path id="180623552" parent_id="180608862" order="60" structure_id="1" d="M722.1,371.37   c-2.067,0.66-3.959,2.25-4.89,4.08c-1.08,2.16-1.17,3.42-1.29,19.05l-0.12,15.51l4.11,0.36c2.279,0.18,4.949,0.42,5.97,0.51   l1.83,0.181l0.181-2.341c1.021-12.12,1.591-28.05,1.142-30.96c-0.422-2.64-1.472-4.858-2.763-5.76   C725.28,371.28,723.3,370.98,722.1,371.37z" style="stroke:black;fill:#BFDAE3"/><path id="180623552" parent_id="180608862" order="61" structure_id="1" d="M704.04,369.78   c-2.13,1.8-2.851,2.818-2.01,2.818c1.26,0,1.92,9.57,1.68,23.852c-0.24,12.51-0.87,17.64-3.271,25.95   c-2.012,7.02-6,16.107-10.109,23.067c-2.07,3.48-2.82,4.5-8.43,11.28c-3.183,3.84-8.7,11.97-8.7,12.84c0,0.69,0.147,0.66,3.45-0.81   c2.159-0.96,12.75-3.9,24-6.66c3.447-0.84,12.238-2.521,18.688-3.57c0.69-0.12,1.261-0.33,1.261-0.51   c0-0.15-0.631-1.021-1.409-1.892c-4.409-4.92-6.149-11.038-6.149-21.301c0-5.76,0.45-10.38,1.74-18.06   c0.779-4.59,0.81-5.22,1.02-21.69c0.24-19.47,0.12-18.688,2.91-21.568c0.87-0.9,1.59-1.771,1.59-1.892   c0-0.121-1.859-0.239-4.109-0.239c-3.72,0-4.288-0.09-5.641-0.721c-0.81-0.39-1.979-1.199-2.52-1.8c-0.57-0.6-1.2-1.08-1.353-1.08   C706.5,367.8,705.3,368.7,704.04,369.78z" style="stroke:black;fill:#BFDAE3"/><path id="180623552" parent_id="180608862" order="62" structure_id="1" d="M692.7,500.43   c-8.13,9.813-20.641,17.552-39.061,24.15c-3.359,1.2-4.712,1.83-5.552,2.609c-0.63,0.568-1.5,1.381-1.92,1.738   c-0.42,0.393-1.17,1.74-1.62,2.973c-2.34,6.33-4.8,9.567-10.5,13.89c-7.08,5.34-10.108,8.04-20.1,17.91   c-20.79,20.52-24.45,23.88-27.15,25.08c-0.778,0.357-1.199,0.72-1.14,1.02c0.148,0.72,3.6,2.37,5.97,2.88   c1.8,0.36,2.729,0.393,5.49,0.12c1.83-0.21,8.067-0.45,13.83-0.6c11.43-0.24,12.75-0.42,21.3-2.521   c14.76-3.658,44.16-13.738,53.1-18.238c7.83-3.959,15.87-11.609,20.553-19.5c0.81-1.409,3.238-5.039,5.397-8.039   c4.41-6.183,6.603-9.603,8.37-13.17c2.7-5.313,4.021-11.16,3.87-16.803l-0.09-3.117l-2.7-1.621   c-6.063-3.629-23.313-11.789-24.99-11.789C695.4,497.4,694.23,498.54,692.7,500.43z" style="stroke:black;fill:#BFDAE3"/><path id="180623552" parent_id="180608862" order="63" structure_id="1" d="M717.15,459.03   c-11.973,2.067-16.771,3.147-32.4,7.29c-6.84,1.83-11.16,3.63-12.54,5.25c-1.05,1.26-2.55,5.01-2.97,7.47   c-0.45,2.61-0.062,4.08,1.47,5.79c1.86,2.04,5.64,2.58,11.31,1.59c7.712-1.35,29.19-6.57,33.78-8.22   c5.103-1.83,6.66-2.641,7.261-3.9c0.602-1.2,1.142-6.358,1.142-10.858v-2.881l-1.471-1.078c-0.812-0.603-1.649-1.08-1.859-1.053   C720.63,458.46,718.98,458.73,717.15,459.03z" style="stroke:black;fill:#BFDAE3"/><path id="180623552" parent_id="180608862" order="64" structure_id="1" d="M708.15,488.55   c-3.9,0.603-6.12,1.29-9.33,2.853c-3.211,1.56-6.03,3.777-5.761,4.527c0.091,0.24,0.959,0.69,1.921,0.99   c4.92,1.562,19.17,8.28,25.408,11.97c3.092,1.86,3.329,1.83,3.062-0.18c-0.3-2.46-0.99-5.01-1.62-5.88   c-1.23-1.771-1.59-4.47-0.812-5.97c0.239-0.45,1.649-1.95,3.182-3.33c1.648-1.5,2.7-2.7,2.64-2.971   c-0.12-0.602-3.51-1.712-6.66-2.132C717.15,488.01,711.18,488.07,708.15,488.55z" style="stroke:black;fill:#BFDAE3"/><path id="180623552" parent_id="180608862" order="65" structure_id="1" d="M777.48,447.27   c-1.771,2.37-6.513,6.69-9.24,8.553c-12.33,8.188-31.2,10.857-41.73,5.88c-1.05-0.48-1.979-0.9-2.069-0.9s-0.238,2.521-0.3,5.61   c-0.121,4.2-0.271,6-0.631,6.99c-0.27,0.75-0.51,1.5-0.51,1.68c0,0.21,0.96,0.42,2.46,0.57c4.649,0.39,9.63,2.1,12.479,4.288   c1.261,0.962,1.351,0.989,2.791,0.689c2.067-0.45,3.479-0.42,5.34,0.15c2.1,0.6,4.319,2.729,4.83,4.62   c0.209,0.75,0.42,1.527,0.479,1.737c0.062,0.24,0.36,0.36,0.63,0.302c1.11-0.21,14.341-18.539,20.73-28.682   c2.88-4.56,6.659-11.67,6.659-12.479C779.4,445.38,778.62,445.8,777.48,447.27z" style="stroke:black;fill:#BFDAE3"/><path id="180623552" parent_id="180608862" order="66" structure_id="1" d="M726.3,371.37c0,0.21,0.42,0.87,0.932,1.5   c1.648,2.1,2.068,4.14,2.068,10.53c0,5.25-0.6,17.608-1.17,24.448c-0.148,1.65-0.239,3.03-0.21,3.063   c0.03,0.029,2.49,0.149,5.46,0.27c8.91,0.33,19.352-0.869,28.92-3.3c5.102-1.319,16.92-5.61,17.04-6.21s-6.81-8.07-11.67-12.57   c-2.22-2.039-5.7-5.369-7.77-7.35l-3.75-3.66l-3.75-1.5c-4.353-1.77-7.17-2.67-13.2-4.14c-3.54-0.87-5.16-1.11-8.61-1.261   C727.35,371.07,726.3,371.1,726.3,371.37z" style="stroke:black;fill:#BFDAE3"/><path id="180623552" parent_id="180608862" order="67" structure_id="1" d="M774.3,403.98c-8.01,3-9.12,3.357-13.83,4.438   c-9.45,2.19-13.2,2.642-23.43,2.79l-9.181,0.15l-0.209,1.857c-0.12,0.99-0.541,3.99-0.933,6.63c-1.229,7.95-1.619,12.33-1.619,18   c0,8.881,1.229,13.08,4.771,16.473c4.11,3.897,11.13,5.52,18.689,4.35c2.729-0.42,9.148-2.608,12.33-4.2   c6.841-3.42,11.761-8.43,14.188-14.37c2.49-6.147,4.92-22.438,4.92-33.06c0-4.74,0-4.74-0.66-4.71   C778.95,402.36,776.7,403.08,774.3,403.98z" style="stroke:black;fill:#BFDAE3"/><path id="180623552" parent_id="180608862" order="68" structure_id="1" d="M886.77,528.75   c-0.09,0.061-3.357,0.93-7.288,1.92c-3.932,0.99-7.171,1.83-7.199,1.891c-0.03,0.029-0.722,1.229-1.53,2.609   c-4.17,7.23-8.34,11.19-21.45,20.43c-10.948,7.711-14.85,10.021-21.87,12.87c-8.1,3.33-14.25,5.04-34.229,9.45   c-7.83,1.74-16.352,3.75-18.9,4.5c-16.38,4.71-31.68,14.07-40.59,24.78c-5.04,6.09-6.18,11.25-3.601,16.47   c1.771,3.66,7.108,7.561,12.091,8.91c2.64,0.688,8.22,0.63,11.79-0.12c1.438-0.33,2.698-0.66,2.789-0.72   c0.091-0.09-0.149-1.021-0.511-2.07c-0.421-1.229-0.721-2.939-0.811-4.71c-0.148-3.39,0.63-6.21,2.398-8.55   c0.631-0.84,1.142-1.83,1.142-2.16c0-1.439,4.021-4.2,10.891-7.5c6.119-2.939,11.641-5.1,23.609-9.3   c21.33-7.44,32.91-12.21,45.96-18.96c12.96-6.69,21.66-12.813,29.64-20.79c4.771-4.74,7.172-7.65,10.83-13.17   c2.37-3.54,8.37-14.761,8.37-15.603C888.3,528.6,887.04,528.45,886.77,528.75z" style="stroke:black;fill:#BFDAE3"/><path id="180623552" parent_id="180608862" order="69" structure_id="1" d="M742.38,299.73   c-7.17,0.69-12.18,3-12.18,5.61c0,2.34,2.729,4.32,11.43,8.16c3.3,1.47,7.17,3.45,8.61,4.38c6.84,4.47,18.569,15.24,20.46,18.78   c1.02,1.89,1.26,3.63,0.78,5.37c-0.211,0.63,0.06,1.08,1.709,3.03c5.461,6.42,8.58,12.988,10.979,23.188   c0.479,2.13,1.472,6,2.13,8.55c3.99,15.062,4.86,31.92,2.82,54.75c-1.59,18.12-4.53,28.29-11.55,39.9   c-4.712,7.83-8.853,13.02-17.883,22.5c-3.447,3.66-8.01,8.698-10.107,11.25c-2.13,2.55-4.17,5.01-4.563,5.46   c-0.987,1.14-1.5,2.55-2.52,6.688c-1.65,6.69-4.23,10.41-8.641,12.48l-2.159,1.02l-3.12,4.5c-1.71,2.461-3.93,5.58-4.95,6.9   c-1.021,1.29-1.83,2.52-1.83,2.729c0,0.181,0.21,0.511,0.48,0.75c1.949,1.591,1.68,5.158-0.48,6.988   c-0.87,0.721-1.17,0.813-2.28,0.63l-1.26-0.18l-0.66,2.04c-1.02,3.149-3.147,7.2-5.43,10.38l-2.1,2.91l-0.15,2.76   c-0.21,3.33,0.09,4.44,1.23,4.44c1.288,0,1.8-0.45,5.25-4.71c6.06-7.5,16.77-18.211,23.25-23.28   c6.238-4.86,13.05-8.642,21.688-12.062c4.142-1.619,18.12-6.358,30.96-10.5c9.9-3.181,13.86-5.488,20.04-11.608   c6.479-6.45,12.33-15.45,15.813-24.36c1.47-3.778,4.947-14.67,4.947-15.51c0-0.33-0.18-0.57-0.357-0.57   c-0.36,0.03-4.2,5.853-8.28,12.54c-5.31,8.73-12.99,16.65-20.91,21.603c-3.33,2.068-15.63,8.1-21.3,10.409   c-5.46,2.25-11.49,4.289-14.01,4.709c-1.62,0.302-2.16,0.271-2.79-0.061c-0.72-0.39-0.841-0.3-6.062,4.86   c-7.171,7.05-9.87,8.76-12.061,7.619c-1.17-0.631-1.53-1.5-1.17-2.881c1.198-4.381,7.89-12.688,20.79-25.801   c11.04-11.22,14.97-15.33,18.63-19.5c6.028-6.869,10.62-13.26,12.54-17.46c6.51-14.278,7.83-39.568,3.778-71.52   c-2.818-22.141-7.079-35.4-16.948-52.65c-5.881-10.26-11.013-16.739-17.342-21.93c-4.438-3.63-5.908-5.04-5.908-5.7   c0-0.779,1.5-2.25,2.55-2.52c0.45-0.12,2.13,0.028,3.72,0.3c11.94,2.13,26.79,11.609,38.61,24.72c3.239,3.57,7.08,8.34,9.09,11.221   c1.38,2.039,2.13,2.551,2.13,1.471c0-2.102-5.279-13.562-8.817-19.17c-3.183-5.012-7.893-11.102-10.95-14.16   c-7.563-7.53-18.63-13.74-30.48-17.19C759.87,299.79,750.63,298.95,742.38,299.73z" style="stroke:black;fill:#BFDAE3"/><path id="180623552" parent_id="180608862" order="70" structure_id="1" d="M742.38,299.73   c-7.17,0.69-12.18,3-12.18,5.61c0,2.34,2.729,4.32,11.43,8.16c3.3,1.47,7.17,3.45,8.61,4.38c6.84,4.47,18.569,15.24,20.46,18.78   c1.02,1.89,1.26,3.63,0.78,5.37c-0.211,0.63,0.06,1.08,1.709,3.03c5.461,6.42,8.58,12.988,10.979,23.188   c0.479,2.13,1.472,6,2.13,8.55c3.99,15.062,4.86,31.92,2.82,54.75c-1.59,18.12-4.53,28.29-11.55,39.9   c-4.712,7.83-8.853,13.02-17.883,22.5c-3.447,3.66-8.01,8.698-10.107,11.25c-2.13,2.55-4.17,5.01-4.563,5.46   c-0.987,1.14-1.5,2.55-2.52,6.688c-1.65,6.69-4.23,10.41-8.641,12.48l-2.159,1.02l-3.12,4.5c-1.71,2.461-3.93,5.58-4.95,6.9   c-1.021,1.29-1.83,2.52-1.83,2.729c0,0.181,0.21,0.511,0.48,0.75c1.949,1.591,1.68,5.158-0.48,6.988   c-0.87,0.721-1.17,0.813-2.28,0.63l-1.26-0.18l-0.66,2.04c-1.02,3.149-3.147,7.2-5.43,10.38l-2.1,2.91l-0.15,2.76   c-0.21,3.33,0.09,4.44,1.23,4.44c1.288,0,1.8-0.45,5.25-4.71c6.06-7.5,16.77-18.211,23.25-23.28   c6.238-4.86,13.05-8.642,21.688-12.062c4.142-1.619,18.12-6.358,30.96-10.5c9.9-3.181,13.86-5.488,20.04-11.608   c6.479-6.45,12.33-15.45,15.813-24.36c1.47-3.778,4.947-14.67,4.947-15.51c0-0.33-0.18-0.57-0.357-0.57   c-0.36,0.03-4.2,5.853-8.28,12.54c-5.31,8.73-12.99,16.65-20.91,21.603c-3.33,2.068-15.63,8.1-21.3,10.409   c-5.46,2.25-11.49,4.289-14.01,4.709c-1.62,0.302-2.16,0.271-2.79-0.061c-0.72-0.39-0.841-0.3-6.062,4.86   c-7.171,7.05-9.87,8.76-12.061,7.619c-1.17-0.631-1.53-1.5-1.17-2.881c1.198-4.381,7.89-12.688,20.79-25.801   c11.04-11.22,14.97-15.33,18.63-19.5c6.028-6.869,10.62-13.26,12.54-17.46c6.51-14.278,7.83-39.568,3.778-71.52   c-2.818-22.141-7.079-35.4-16.948-52.65c-5.881-10.26-11.013-16.739-17.342-21.93c-4.438-3.63-5.908-5.04-5.908-5.7   c0-0.779,1.5-2.25,2.55-2.52c0.45-0.12,2.13,0.028,3.72,0.3c11.94,2.13,26.79,11.609,38.61,24.72c3.239,3.57,7.08,8.34,9.09,11.221   c1.38,2.039,2.13,2.551,2.13,1.471c0-2.102-5.279-13.562-8.817-19.17c-3.183-5.012-7.893-11.102-10.95-14.16   c-7.563-7.53-18.63-13.74-30.48-17.19C759.87,299.79,750.63,298.95,742.38,299.73z" style="stroke:black;fill:#BFDAE3"/><path id="180623552" parent_id="180608862" order="71" structure_id="1" d="M804.3,599.16   c-3.21,1.32-10.56,3.99-16.35,5.938c-11.04,3.723-20.7,7.32-24.602,9.12c-1.409,0.66-2.789,1.08-3.479,1.08   c-1.021,0-1.29,0.15-2.07,1.23c-1.59,2.188-2.189,4.26-2.22,7.618c0,3.689,0.93,7.352,1.92,7.352c1.17,0,7.65-2.55,16.5-6.45   c5.79-2.55,9.84-3.96,16.05-5.55c8.341-2.16,18.511-3.75,26.19-4.11c3.028-0.147,3.96-0.27,3.96-0.6c0-0.21-0.24-0.391-0.54-0.391   c-1.051,0-3.63-1.562-4.98-3c-1.59-1.712-3-4.472-3.51-6.841c-0.33-1.648-0.24-5.938,0.18-7.198c0.183-0.57,0.12-0.66-0.479-0.632   C810.48,596.76,807.51,597.84,804.3,599.16z" style="stroke:black;fill:#BFDAE3"/><path id="180623552" parent_id="180608862" order="72" structure_id="1" d="M579.9,319.38   c-10.62,0.99-21,3.84-29.643,8.19c-7.26,3.63-8.188,4.949-8.398,12.028c-0.119,4.44-0.449,5.7-1.409,5.7   c-0.36,0-0.45,0.66-0.45,3.87v3.84l3.24,0.21c6.39,0.392,19.05,2.07,26.399,3.48c1.709,0.33,3.358,0.6,3.688,0.6   c1.14,0,0.54-0.779-1.8-2.31c-3.302-2.19-5.672-4.62-7.021-7.23c-1.438-2.729-1.77-5.04-0.96-6.54   c0.75-1.438,3.182-2.55,5.79-2.729c3.93-0.271,7.021,1.438,11.88,6.54c1.71,1.8,3.24,3.27,3.391,3.27c0.149,0,0.45-0.54,0.659-1.17   c0.541-1.86,2.341-2.88,6.69-3.78c7.17-1.528,23.28-1.17,34.59,0.75c9.602,1.62,20.341,4.95,27.36,8.521   c3,1.5,7.198,4.38,9.06,6.24c1.74,1.738,6.66,8.13,8.82,11.488c3.12,4.892,4.89,9.42,4.53,11.61c-0.24,1.53,0.18,1.5,2.909-0.39   c7.528-5.19,13.858-12.24,18.688-20.82c2.13-3.78,2.13-4.05,0.24-4.05c-3.182,0-7.11-1.8-11.16-5.07   c-5.7-4.59-14.67-15-17.13-19.89c-0.99-1.98-0.54-1.801-8.34-3.42c-16.771-3.54-35.461-6.54-51.33-8.25   c-4.683-0.511-8.16-0.66-17.4-0.722C586.439,319.32,580.65,319.32,579.9,319.38z" style="stroke:black;fill:#BFDAE3"/><path id="180623552" parent_id="180608862" order="73" structure_id="1" d="M550.71,526.26c-0.66-1.62-1.319-6.51-1.86-13.77c-0.479-6.51-1.229-11.04-2.368-14.4   c-1.021-3.029-1.229-3.3-2.939-4.17c-1.093-0.555-2.354-0.857-3.561-0.896v37.303c2.572-0.013,5.159-0.443,7.851-1.336   C551.189,527.88,551.311,527.79,550.71,526.26z" style="stroke:black;fill:#BFDAE3"/><path id="180623552" parent_id="180608862" order="74" structure_id="1" d="M615.45,306.33   c-9.24,0.63-29.73,2.43-33.45,2.97c-9.12,1.32-15.12,3.57-23.46,8.761c-4.2,2.609-5.94,4.051-5.94,4.949   c0,0.812,1.11,2.19,1.74,2.19c0.271,0,2.551-0.69,5.01-1.53c8.37-2.82,13.44-3.84,22.052-4.5c5.971-0.42,18.358-0.21,25.5,0.45   c17.039,1.62,41.761,5.58,58.318,9.36c1.8,0.42,3.33,0.658,3.421,0.6c0.091-0.09,0-0.69-0.181-1.35   c-0.21-0.632-0.36-1.5-0.36-1.921c0-0.631-0.357-0.961-2.31-2.04c-6.75-3.689-10.29-7.141-10.29-10.08   c0-1.801,0.87-2.641,3.27-3.119c0.99-0.182,1.83-0.48,1.83-0.66c0-0.15-0.84-1.08-1.857-2.04l-1.893-1.74l-4.35,0.181   c-2.729,0.091-6.9-0.029-11.13-0.33C634.141,305.97,622.109,305.91,615.45,306.33z" style="stroke:black;fill:#BFDAE3"/><path id="180623552" parent_id="180608862" order="75" structure_id="1" d="M584.55,293.43   c-9.42,0.602-17.398,1.44-19.14,2.04c-2.43,0.84-2.88,1.2-11.7,9.09c-2.19,1.95-3.66,4.17-3.96,5.97   c-0.271,1.59,0.33,4.14,1.35,5.76c0.87,1.38,3.48,3.21,4.563,3.21c0.27,0,1.89-0.9,3.6-1.98c6.15-3.898,12.21-6.33,19.381-7.738   c4.289-0.842,6.512-1.11,16.409-1.98c26.011-2.22,32.7-2.46,43.8-1.648c3.303,0.238,8.4,0.448,11.342,0.448   c5.278,0,5.34,0,6.061-0.75c1.59-1.56,0.689-3.45-2.34-4.92c-3.42-1.68-23.58-5.16-40.86-7.108   C608.01,293.28,590.76,293.01,584.55,293.43z" style="stroke:black;fill:#BFDAE3"/><path id="180623552" parent_id="180608862" order="76" structure_id="1" d="M581.939,272.79   c-11.341,7.95-20.609,14.61-20.609,14.79c-0.03,0.18,0.96,0.78,2.16,1.35l2.16,1.021l12.147-0.06c6.69-0.03,13.683-0.15,15.54-0.27   l3.42-0.18l0.54-0.96c2.28-3.87,4.562-7.41,5.7-8.82c0.75-0.96,1.62-2.34,1.891-3.12c1.021-2.61,4.17-4.83,10.409-7.23   c3.391-1.32,10.141-3.36,13.591-4.11c0.932-0.21,1.709-0.57,1.709-0.75c0-0.271-1.647-0.42-6.209-0.54   c-10.529-0.27-18.029-2.07-20.609-4.98c-0.329-0.33-0.72-0.63-0.899-0.63C602.7,258.33,593.28,264.84,581.939,272.79z" style="stroke:black;fill:#BFDAE3"/><path id="180623552" parent_id="180608862" order="77" structure_id="1" d="M698.4,328.62c0,1.53,3.39,21.479,4.647,27.3   c2.13,9.93,4.32,13.8,8.433,15.061c1.17,0.359,2.697,0.359,9.33,0.119c5.397-0.238,8.97-0.238,11.277-0.028   c4.08,0.39,13.261,2.67,18.063,4.528c5.188,2.012,5.459,1.95,3.567-0.51c-0.6-0.779-2.907-5.04-5.1-9.479   c-2.221-4.44-4.771-9.24-5.67-10.682c-3.183-5.16-7.021-7.979-23.25-17.01c-5.28-2.939-20.312-10.32-21.03-10.32   C698.52,327.6,698.4,328.05,698.4,328.62z" style="stroke:black;fill:#BFDAE3"/><path id="180623552" parent_id="180608862" order="78" structure_id="1" d="M668.1,326.16c0,0.63,0.813,3.3,1.353,4.59   c2.1,4.92,12.75,17.311,18.6,21.689c3.96,2.971,8.4,4.561,11.37,4.109c2.102-0.33,3.181-0.75,3.181-1.29   c0-0.27-0.568-3.63-1.261-7.47l-1.26-6.96l-3.3-1.8c-5.73-3.092-27.392-13.23-28.32-13.23C668.25,325.8,668.1,325.98,668.1,326.16z   " style="stroke:black;fill:#BFDAE3"/><path id="180623552" parent_id="180608862" order="79" structure_id="1" d="M657.3,311.49c-1.59,0.57-2.22,2.34-1.47,4.32   c0.93,2.43,5.07,5.879,10.38,8.55c1.771,0.93,6.479,3.12,10.44,4.92c3.959,1.77,10.68,4.979,14.909,7.08   c4.261,2.1,7.891,3.84,8.068,3.84c0.21,0,0.3-0.36,0.182-0.99c-0.092-0.51-0.512-3.45-0.961-6.51   c-0.989-6.75-1.591-8.34-4.229-10.98c-2.28-2.31-5.67-4.05-11.55-5.97C671.609,312,660.93,310.23,657.3,311.49z" style="stroke:black;fill:#BFDAE3"/><path id="180623552" parent_id="180608862" order="80" structure_id="1" d="M698.25,226.02   c-5.641,2.67-11.97,7.5-24.48,18.51c-9.538,8.397-11.397,9.93-14.908,12.27c-4.142,2.76-6.392,3.51-16.562,5.55   c-15,2.97-24.6,5.7-30.75,8.7c-7.08,3.45-8.76,6.78-4.438,8.97c6.061,3.06,28.261,5.22,40.591,3.96   c6.81-0.72,14.43-2.04,20.85-3.63c12.24-3,19.23-6.15,28.32-12.63c3.21-2.31,6.63-4.92,7.59-5.82c1.74-1.65,1.74-1.68,1.74-3.39   c0-1.47-0.15-1.979-0.933-3.09c-1.647-2.43-4.17-8.04-4.947-11.1c-1.44-5.76-1.23-10.8,0.777-16.65c0.512-1.44,0.9-2.67,0.9-2.79   C702,224.43,700.77,224.79,698.25,226.02z" style="stroke:black;fill:#BFDAE3"/><path id="180623552" parent_id="180608862" order="81" structure_id="1" d="M745.65,261.48   c-3.99,0.6-10.17,1.89-16.23,3.39c-14.55,3.66-19.17,5.73-24.811,11.1c-4.261,4.08-6.539,7.98-7.17,12.271   c-0.209,1.35-0.271,2.52-0.149,2.64c0.36,0.39,2.7-0.51,5.61-2.13c8.76-4.89,18.539-7.8,31.5-9.33   c5.278-0.63,21.959-0.9,28.198-0.45c4.949,0.33,7.802,0.811,12.149,2.04c13.021,3.69,28.47,13.74,42.15,27.392   c9.18,9.148,14.158,17.43,18.06,30c3.09,10.05,10.44,43.56,13.71,62.699c7.2,41.909,7.352,68.552,0.511,88.382   c-1.711,4.979-2.278,6.39-4.381,10.47c-3.51,6.93-8.729,14.52-13.619,19.92c-1.261,1.38-2.278,2.7-2.278,2.97   c0,0.36,0.358,0.42,2.34,0.24c9.811-0.87,19.949-5.13,25.5-10.74c2.188-2.22,2.699-2.938,4.26-5.938   c2.641-5.19,4.23-13.17,5.1-25.802c0.183-2.398,0.393-11.579,0.512-20.398c0.271-25.38-0.182-30.602-5.489-61.05   c-2.13-12.24-3.45-18.99-5.25-26.7c-9.03-38.88-25.89-67.05-51.72-86.521c-10.473-7.89-24.9-15.96-37.5-20.939   c-8.223-3.271-9-3.45-15-3.54C748.859,261.39,746.16,261.42,745.65,261.48z" style="stroke:black;fill:#BFDAE3"/><path id="180623552" parent_id="180608862" order="82" structure_id="1" d="M814.65,615.63   c-9.33,0.57-25.44,3.54-29.433,5.4c-3,1.438-4.92,4.438-4.92,7.77c0.03,3.841,1.683,5.761,6.69,7.74   c4.71,1.89,8.13,2.46,14.43,2.46c10.38,0,22.17-2.189,28.65-5.34c2.64-1.29,5.158-3.6,5.729-5.28   c1.53-4.71-3.898-10.35-11.7-12.148C820.891,615.51,818.82,615.36,814.65,615.63z" style="stroke:black;fill:#BFDAE3"/><path id="180623552" parent_id="180608862" order="83" structure_id="1" d="M885.6,573.78   c-1.229,0.06-5.34,0.239-9.147,0.42c-7.592,0.359-14.103,0.96-17.91,1.68c-1.95,0.36-3.689,1.021-8.04,3.12   c-8.16,3.9-17.188,7.95-28.35,12.75c-9.512,4.08-9.932,4.29-10.44,5.34c-0.779,1.563-0.96,4.74-0.42,7.32   c0.96,4.41,3.12,7.529,6.391,9.12c1.771,0.87,2.312,0.989,5.159,1.107c2.73,0.093,3.841-0.027,7.41-0.81   c6.54-1.41,9.75-1.62,20.643-1.44c5.31,0.093,12.299,0.33,15.51,0.513c17.607,1.02,34.92-2.04,48.147-8.553   c8.94-4.38,14.853-9.18,20.28-16.56c3.75-5.04,5.97-8.28,5.97-8.67c0-0.42,0.03-0.42-9.897-1.771   C909.78,574.53,894.93,573.36,885.6,573.78z" style="stroke:black;fill:#BFDAE3"/><path id="180623552" parent_id="180608862" order="84" structure_id="1" d="M595.71,484.83   c-7.92,1.95-14.819,7.77-18.54,15.688c-1.83,3.899-2.49,6.899-2.46,11.132c0.06,5.01,1.05,8.67,3.479,12.659   c0.988,1.681,2.011,2.158,2.011,0.931c0-2.19,3.12-5.88,6.479-7.65c4.803-2.55,15.723-4.17,19.86-2.938   c2.49,0.75,4.439,3.211,5.01,6.238c0.12,0.603,0.36,1.11,0.57,1.11c0.18,0,1.738-1.95,3.45-4.35   c3.81-5.342,6.688-8.79,11.277-13.592c3.36-3.511,3.511-3.721,3.33-4.681c-0.39-1.979-2.069-4.77-4.107-6.84   c-1.65-1.62-2.643-2.312-5.432-3.66c-3.688-1.8-9.03-3.54-13.051-4.229C603.99,484.02,598.65,484.11,595.71,484.83z" style="stroke:black;fill:#BFDAE3"/><path id="180623552" parent_id="180608862" order="85" structure_id="1" d="M906.42,489.21   c-5.07,29.28-10.41,45.54-19.38,58.95c-0.96,1.438-1.74,2.79-1.74,3.029c0,0.421,54.87,27.211,55.8,27.211   c0.631,0,5.223-6.87,9.091-13.62c4.472-7.8,12.632-25.143,14.642-31.08c1.83-5.46,2.069-7.563,2.069-17.37   c0-4.71-0.091-10.47-0.211-12.78l-0.181-4.229l-29.729-5.61c-16.353-3.09-29.82-5.61-29.94-5.61S906.54,488.61,906.42,489.21z" style="stroke:black;fill:#BFDAE3"/><path id="180623552" parent_id="180608862" order="86" structure_id="1" d="M910.41,460.71   c-0.54,4.89-2.16,17.04-3.12,23.25c-0.33,2.25-0.42,3.63-0.24,3.81c0.24,0.212,66.9,12.962,67.74,12.933   c0.72,0-0.479-6.813-1.681-9.36c-0.392-0.87-1.352-2.34-2.13-3.239c-1.802-2.068-3.45-4.471-4.562-6.601   c-0.72-1.38-0.84-2.01-0.87-3.899c0-3.061,0.63-4.141,4.83-8.431c1.95-1.979,3.42-3.72,3.42-4.05c0-0.54-2.159-0.87-30.81-4.86   c-16.98-2.34-31.11-4.26-31.44-4.26C910.98,456,910.891,456.36,910.41,460.71z" style="stroke:black;fill:#BFDAE3"/><path id="180623552" parent_id="180608862" order="87" structure_id="1" d="M913.5,429.061   c0,0.842-0.93,11.012-1.68,18.479c-0.42,4.35-0.722,7.95-0.66,8.04c0.21,0.21,62.67,8.85,63.21,8.76   c1.2-0.24,5.521-7.979,7.649-13.8c1.381-3.72,3.541-12.03,3.42-13.08l-0.091-0.78l-35.398-3.988   c-19.47-2.159-35.641-3.959-35.91-3.959C913.74,428.7,913.5,428.88,913.5,429.061z" style="stroke:black;fill:#BFDAE3"/><path id="180623552" parent_id="180608862" order="88" structure_id="1" d="M772.2,316.83   c0.03,0.24,0.989,1.02,2.189,1.77c4.891,3.062,14.278,11.521,19.05,17.25c8.551,10.23,14.729,24.932,18.811,44.852   c1.17,5.67,3.96,21.87,4.95,28.62c2.13,14.64,2.068,28.979-0.182,43.68c-2.761,17.938-8.488,29.67-22.021,45.15   c-9.181,10.527-17.04,17.067-25.74,21.42c-2.818,1.408-3.659,1.979-3.6,2.367c0.33,1.5,8.88-0.987,19.59-5.64   c5.7-2.489,13.59-6.36,16.771-8.22c9.601-5.642,17.521-13.95,23.938-25.05c1.891-3.271,1.95-3.512,3.271-18.183   c1.107-11.97,1.079-40.829-0.03-54.75c-0.66-8.188-3.48-28.318-5.432-38.85c-1.438-7.8-2.011-9.9-2.971-11.101   c-0.479-0.601-1.08-1.801-1.38-2.641c-0.271-0.87-1.562-3.12-2.85-5.01c-10.62-15.57-25.262-28.439-39.12-34.38   C773.91,316.59,772.2,316.17,772.2,316.83z" style="stroke:black;fill:#BFDAE3"/><path id="180623552" parent_id="180608862" order="89" structure_id="1" d="M742.38,299.73c-7.17,0.69-12.18,3-12.18,5.61   c0,2.34,2.729,4.32,11.43,8.16c3.3,1.47,7.17,3.45,8.61,4.38c6.84,4.47,18.569,15.24,20.46,18.78c1.02,1.89,1.26,3.63,0.78,5.37   c-0.211,0.63,0.06,1.08,1.709,3.03c5.461,6.42,8.58,12.988,10.979,23.188c0.479,2.13,1.472,6,2.13,8.55   c3.99,15.062,4.86,31.92,2.82,54.75c-1.59,18.12-4.53,28.29-11.55,39.9c-4.712,7.83-8.853,13.02-17.883,22.5   c-3.447,3.66-8.01,8.698-10.107,11.25c-2.13,2.55-4.17,5.01-4.563,5.46c-0.987,1.14-1.5,2.55-2.52,6.688   c-1.65,6.69-4.23,10.41-8.641,12.48l-2.159,1.02l-3.12,4.5c-1.71,2.461-3.93,5.58-4.95,6.9c-1.021,1.29-1.83,2.52-1.83,2.729   c0,0.181,0.21,0.511,0.48,0.75c1.949,1.591,1.68,5.158-0.48,6.988c-0.87,0.721-1.17,0.813-2.28,0.63l-1.26-0.18l-0.66,2.04   c-1.02,3.149-3.147,7.2-5.43,10.38l-2.1,2.91l-0.15,2.76c-0.21,3.33,0.09,4.44,1.23,4.44c1.288,0,1.8-0.45,5.25-4.71   c6.06-7.5,16.77-18.211,23.25-23.28c6.238-4.86,13.05-8.642,21.688-12.062c4.142-1.619,18.12-6.358,30.96-10.5   c9.9-3.181,13.86-5.488,20.04-11.608c6.479-6.45,12.33-15.45,15.813-24.36c1.47-3.778,4.947-14.67,4.947-15.51   c0-0.33-0.18-0.57-0.357-0.57c-0.36,0.03-4.2,5.853-8.28,12.54c-5.31,8.73-12.99,16.65-20.91,21.603   c-3.33,2.068-15.63,8.1-21.3,10.409c-5.46,2.25-11.49,4.289-14.01,4.709c-1.62,0.302-2.16,0.271-2.79-0.061   c-0.72-0.39-0.841-0.3-6.062,4.86c-7.171,7.05-9.87,8.76-12.061,7.619c-1.17-0.631-1.53-1.5-1.17-2.881   c1.198-4.381,7.89-12.688,20.79-25.801c11.04-11.22,14.97-15.33,18.63-19.5c6.028-6.869,10.62-13.26,12.54-17.46   c6.51-14.278,7.83-39.568,3.778-71.52c-2.818-22.141-7.079-35.4-16.948-52.65c-5.881-10.26-11.013-16.739-17.342-21.93   c-4.438-3.63-5.908-5.04-5.908-5.7c0-0.779,1.5-2.25,2.55-2.52c0.45-0.12,2.13,0.028,3.72,0.3c11.94,2.13,26.79,11.609,38.61,24.72   c3.239,3.57,7.08,8.34,9.09,11.221c1.38,2.039,2.13,2.551,2.13,1.471c0-2.102-5.279-13.562-8.817-19.17   c-3.183-5.012-7.893-11.102-10.95-14.16c-7.563-7.53-18.63-13.74-30.48-17.19C759.87,299.79,750.63,298.95,742.38,299.73z" style="stroke:black;fill:#BFDAE3"/><path id="180623552" parent_id="180608862" order="90" structure_id="1" d="M730.35,233.85   c-0.147,0.06-0.81,0.18-1.409,0.3c-2.13,0.33-6.959,4.68-12.238,10.92c-4.801,5.729-7.08,7.53-8.433,6.66   c-0.93-0.57-1.107-0.39-1.438,1.56c-0.601,3.54-0.54,3.78,1.8,6.81c1.17,1.5,3.36,4.02,4.86,5.58l2.76,2.852l2.852-0.93   c3.778-1.26,14.461-3.96,20.01-5.1c12.33-2.49,17.311-1.95,29.371,3.12c19.83,8.34,37.527,19.95,49.8,32.64   c18.989,19.65,30.93,43.83,38.64,78.271c2.01,9.03,6.63,35.067,8.13,45.87c1.74,12.6,2.16,23.729,1.71,42.93   c-0.479,18.66-1.17,26.37-3.09,33.87c-1.561,6-1.77,11.58-0.688,18.6c0.988,6.54,2.938,11.28,5.789,14.13   c1.142,1.11,2.041,1.771,2.34,1.71c0.602-0.09,3.541-5.79,6.842-13.229c7.83-17.58,9.87-27.813,12.3-61.563   c1.38-19.05,1.438-29.697,0.149-41.697c-2.579-24.393-7.052-40.921-18.75-69.45c-9.961-24.3-12.271-29.19-17.489-37.2   c-6.09-9.42-27.36-35.73-32.222-39.93c-4.891-4.2-12.118-8.46-26.278-15.45c-22.41-11.07-35.13-16.71-41.011-18.24   C748.23,235.23,732.18,233.22,730.35,233.85z" style="stroke:black;fill:#BFDAE3"/><path id="180623552" parent_id="180608862" order="91" structure_id="1" d="M742.38,299.73c-7.17,0.69-12.18,3-12.18,5.61   c0,2.34,2.729,4.32,11.43,8.16c3.3,1.47,7.17,3.45,8.61,4.38c6.84,4.47,18.569,15.24,20.46,18.78c1.02,1.89,1.26,3.63,0.78,5.37   c-0.211,0.63,0.06,1.08,1.709,3.03c5.461,6.42,8.58,12.988,10.979,23.188c0.479,2.13,1.472,6,2.13,8.55   c3.99,15.062,4.86,31.92,2.82,54.75c-1.59,18.12-4.53,28.29-11.55,39.9c-4.712,7.83-8.853,13.02-17.883,22.5   c-3.447,3.66-8.01,8.698-10.107,11.25c-2.13,2.55-4.17,5.01-4.563,5.46c-0.987,1.14-1.5,2.55-2.52,6.688   c-1.65,6.69-4.23,10.41-8.641,12.48l-2.159,1.02l-3.12,4.5c-1.71,2.461-3.93,5.58-4.95,6.9c-1.021,1.29-1.83,2.52-1.83,2.729   c0,0.181,0.21,0.511,0.48,0.75c1.949,1.591,1.68,5.158-0.48,6.988c-0.87,0.721-1.17,0.813-2.28,0.63l-1.26-0.18l-0.66,2.04   c-1.02,3.149-3.147,7.2-5.43,10.38l-2.1,2.91l-0.15,2.76c-0.21,3.33,0.09,4.44,1.23,4.44c1.288,0,1.8-0.45,5.25-4.71   c6.06-7.5,16.77-18.211,23.25-23.28c6.238-4.86,13.05-8.642,21.688-12.062c4.142-1.619,18.12-6.358,30.96-10.5   c9.9-3.181,13.86-5.488,20.04-11.608c6.479-6.45,12.33-15.45,15.813-24.36c1.47-3.778,4.947-14.67,4.947-15.51   c0-0.33-0.18-0.57-0.357-0.57c-0.36,0.03-4.2,5.853-8.28,12.54c-5.31,8.73-12.99,16.65-20.91,21.603   c-3.33,2.068-15.63,8.1-21.3,10.409c-5.46,2.25-11.49,4.289-14.01,4.709c-1.62,0.302-2.16,0.271-2.79-0.061   c-0.72-0.39-0.841-0.3-6.062,4.86c-7.171,7.05-9.87,8.76-12.061,7.619c-1.17-0.631-1.53-1.5-1.17-2.881   c1.198-4.381,7.89-12.688,20.79-25.801c11.04-11.22,14.97-15.33,18.63-19.5c6.028-6.869,10.62-13.26,12.54-17.46   c6.51-14.278,7.83-39.568,3.778-71.52c-2.818-22.141-7.079-35.4-16.948-52.65c-5.881-10.26-11.013-16.739-17.342-21.93   c-4.438-3.63-5.908-5.04-5.908-5.7c0-0.779,1.5-2.25,2.55-2.52c0.45-0.12,2.13,0.028,3.72,0.3c11.94,2.13,26.79,11.609,38.61,24.72   c3.239,3.57,7.08,8.34,9.09,11.221c1.38,2.039,2.13,2.551,2.13,1.471c0-2.102-5.279-13.562-8.817-19.17   c-3.183-5.012-7.893-11.102-10.95-14.16c-7.563-7.53-18.63-13.74-30.48-17.19C759.87,299.79,750.63,298.95,742.38,299.73z" style="stroke:black;fill:#BFDAE3"/><path id="180623552" parent_id="180608862" order="92" structure_id="1" d="M762.84,315.57   c-1.858,1.47-1.438,2.369,2.7,5.64c3.84,3,9.271,8.521,12,12.18c3.69,4.921,7.56,11.312,11.61,19.262   c7.857,15.42,11.43,29.34,13.948,54.39c0.899,9.12,1.199,14.79,1.199,23.46c0,11.82-0.81,20.4-2.608,28.05   c-3.209,13.62-8.25,20.7-31.739,44.55c-12.36,12.54-17.22,18.03-21.15,23.853c-2.729,4.05-3.33,6.12-2.1,7.35   c0.81,0.813,2.67,0.78,4.29-0.03c1.948-0.987,3.51-2.34,9.81-8.52c3.21-3.15,9.9-9.57,14.82-14.28   c11.939-11.34,16.62-16.438,21.271-23.13c9.689-13.979,14.879-31.29,15.42-51.688c0.209-7.591-0.091-12.869-1.291-23.399   c-3.959-34.86-9.659-58.68-18.39-76.771c-1.771-3.631-1.771-3.659-5.85-7.591c-9.21-8.909-16.353-13.59-21.03-13.829   C763.95,314.97,763.53,315.03,762.84,315.57z" style="stroke:black;fill:#BFDAE3"/><path id="180623552" parent_id="180608862" order="93" structure_id="1" d="M793.2,337.02c0,0.211,0.6,1.74,1.318,3.36   c8.102,18.3,14.012,45.45,17.462,80.22c0.6,6.03,0.688,18.48,0.147,23.553c-1.438,14.188-5.188,27-10.859,37.197   c-5.488,9.87-11.038,16.41-26.488,31.021c-3.9,3.688-7.08,6.897-7.08,7.14c0,0.63,0.78,0.45,2.938-0.63   c7.771-3.93,17.489-12.479,26.762-23.609c12.897-15.421,17.85-27.181,20.22-47.971c1.92-16.5,1.439-26.488-2.37-49.35   c-3.72-22.141-6.63-33.69-11.22-44.4c-2.433-5.609-6.12-12.06-9.091-15.84C794.04,336.6,793.2,336.24,793.2,337.02z" style="stroke:black;fill:#BFDAE3"/><path id="180623552" parent_id="180608862" order="94" structure_id="1" d="M730.35,233.85   c-0.147,0.06-0.81,0.18-1.409,0.3c-2.13,0.33-6.959,4.68-12.238,10.92c-4.801,5.729-7.08,7.53-8.433,6.66   c-0.93-0.57-1.107-0.39-1.438,1.56c-0.601,3.54-0.54,3.78,1.8,6.81c1.17,1.5,3.36,4.02,4.86,5.58l2.76,2.852l2.852-0.93   c3.778-1.26,14.461-3.96,20.01-5.1c12.33-2.49,17.311-1.95,29.371,3.12c19.83,8.34,37.527,19.95,49.8,32.64   c18.989,19.65,30.93,43.83,38.64,78.271c2.01,9.03,6.63,35.067,8.13,45.87c1.74,12.6,2.16,23.729,1.71,42.93   c-0.479,18.66-1.17,26.37-3.09,33.87c-1.561,6-1.77,11.58-0.688,18.6c0.988,6.54,2.938,11.28,5.789,14.13   c1.142,1.11,2.041,1.771,2.34,1.71c0.602-0.09,3.541-5.79,6.842-13.229c7.83-17.58,9.87-27.813,12.3-61.563   c1.38-19.05,1.438-29.697,0.149-41.697c-2.579-24.393-7.052-40.921-18.75-69.45c-9.961-24.3-12.271-29.19-17.489-37.2   c-6.09-9.42-27.36-35.73-32.222-39.93c-4.891-4.2-12.118-8.46-26.278-15.45c-22.41-11.07-35.13-16.71-41.011-18.24   C748.23,235.23,732.18,233.22,730.35,233.85z" style="stroke:black;fill:#BFDAE3"/><path id="180623552" parent_id="180608862" order="95" structure_id="1" d="M599.49,514.5c-8.16,0.84-14.07,3-16.892,6.18   c-1.681,1.95-2.698,4.65-2.278,6.24c0.3,1.17,4.47,4.32,7.89,5.94c2.82,1.35,9.57,3.39,10.47,3.18   c0.75-0.18,9.24-8.25,11.103-10.56c1.92-2.37,1.948-2.462,1.8-3.843c-0.33-3.119-2.4-6.06-4.71-6.777   C605.311,514.38,602.22,514.23,599.49,514.5z" style="stroke:black;fill:#BFDAE3"/><path id="180623552" parent_id="180608862" order="96" structure_id="1" d="M914.311,411.061   c-0.12,5.012-0.33,10.921-0.511,13.142c-0.148,2.22-0.18,4.108-0.06,4.229c0.3,0.24,71.79,8.16,71.97,7.95   c0.81-0.78,2.67-17.01,3-25.92l0.181-5.16h-1.381c-0.778,0-17.278-0.75-36.72-1.647c-19.44-0.9-35.55-1.65-35.82-1.65   C914.55,402,914.46,403.05,914.311,411.061z" style="stroke:black;fill:#BFDAE3"/><path id="180623552" parent_id="180608862" order="97" structure_id="1" d="M948.51,370.47l-35.938,2.88l0.147,0.9   c0.813,4.5,1.682,16.38,1.682,22.71v4.71l1.289,0.15c0.689,0.09,16.439,0.84,35.012,1.68c18.568,0.811,34.8,1.59,36.09,1.68   l2.312,0.183v-8.343c0-7.857-0.302-17.879-0.779-26.01l-0.211-3.51l-1.829,0.03C985.26,367.561,968.28,368.88,948.51,370.47z" style="stroke:black;fill:#BFDAE3"/><path id="180623552" parent_id="180608862" order="98" structure_id="1" d="M923.85,280.68   c-19.14,10.47-34.92,19.17-35.067,19.32c-0.183,0.18,0.63,2.19,2.04,5.1c4.17,8.7,7.38,16.41,10.5,25.35   c4.857,13.92,9.329,30.66,11.13,41.64l0.18,1.141l1.86-0.181c1.02-0.09,17.188-1.38,35.909-2.85   c18.721-1.47,34.858-2.761,35.818-2.88l1.771-0.182l-0.21-3.358c-0.513-8.432-2.16-21.9-3.933-31.83   c-4.198-23.64-10.68-43.65-20.76-63.99c-2.64-5.31-3.27-6.36-3.811-6.36C958.95,261.63,942.99,270.21,923.85,280.68z" style="stroke:black;fill:#BFDAE3"/><path id="180623552" parent_id="180608862" order="99" structure_id="1" d="M907.35,254.88   c-18.27,13.5-31.83,23.73-31.89,24.03c-0.03,0.3,0.57,1.41,1.351,2.49c2.279,3.15,6.271,9.42,8.852,14.01   c1.438,2.55,2.607,4.29,2.88,4.29c0.66,0,70.318-38.19,70.5-38.67c0.21-0.57-0.63-2.19-4.32-8.34   c-6.21-10.32-13.948-21.42-14.938-21.36C939.42,231.33,924.84,241.95,907.35,254.88z" style="stroke:black;fill:#BFDAE3"/><path id="180623552" parent_id="180608862" order="100" structure_id="1" d="M743.7,278.88   c-15.12,0.72-27.21,3.33-36.841,7.92c-5.159,2.49-7.8,4.26-8.489,5.82c-1.53,3.39,0.239,8.16,5.819,15.6   c5.25,6.96,16.561,17.312,21.87,20.011c9.868,4.979,21.42,13.649,31.141,23.369c5.46,5.461,9.93,11.432,15.54,20.79   c2.188,3.66,3.39,4.921,5.607,5.94c1.921,0.87,3.063,0.75,4.23-0.48c2.25-2.398,2.43-5.64,0.72-12.358   c-3.03-11.82-6.72-17.67-18.51-29.222c-7.261-7.108-13.771-11.818-22.29-16.08c-3.66-1.858-9.72-4.288-13.8-5.578   c-3.961-1.23-5.94-2.312-8.25-4.472c-2.19-2.01-5.343-6.54-6.722-9.568l-0.871-1.92l4.683-0.18c4.38-0.18,5.13-0.3,10.71-1.74   c7.648-1.98,11.398-2.61,17.729-3.03c13.619-0.93,22.142,0.72,33.449,6.479c10.801,5.49,24.36,16.41,31.95,25.771   c6.63,8.13,11.91,20.97,12.33,30c0.148,3.06,0.12,3.359-0.51,4.109c-0.36,0.479-0.842,0.841-1.11,0.841   c-0.359,0-0.42,0.18-0.24,0.81c2.103,8.22,5.853,31.86,7.17,45.09c0.78,7.83,1.143,18.09,1.17,33.45   c0.03,15.12-0.33,22.62-1.737,34.26c-0.54,4.41-0.54,4.29-0.062,4.29c0.42,0,3.84-5.397,5.399-8.55   c0.568-1.17,1.53-3.93,2.16-6.148c1.17-4.289,1.35-4.771,2.13-5.521c0.72-0.75,1.528-0.57,2.76,0.54l1.11,1.05l-0.03,2.643   c-0.029,3.84-1.859,12.657-4.5,21.959c-4.62,16.141-14.16,30.211-25.74,37.858c-8.01,5.312-15.99,8.73-38.43,16.47   c-12.12,4.172-15.721,5.58-19.5,7.65c-3.33,1.8-8.16,5.01-11.101,7.35c-3.932,3.15-10.439,9.723-15.149,15.303   c-7.17,8.52-11.28,12.3-14.82,13.647c-3.27,1.263-4.92-0.897-5.64-7.29c-0.21-1.68-0.479-3.06-0.602-3.06   c-0.539,0-6.811,5.52-6.959,6.147c-0.812,3.15-0.392,7.83,0.868,10.353c1.98,3.93,6.722,6.3,12.603,6.3h2.158l2.67-3.63   c7.142-9.72,9.541-12.84,12.871-16.5c5.879-6.45,10.771-10.53,15.721-13.021c0.897-0.448,6.449-2.431,12.3-4.41   c28.5-9.601,44.46-16.438,56.13-24.118c16.351-10.71,29.49-28.261,35.13-46.83c5.82-19.17,5.49-44.73-1.109-84.24   c-3-18.062-10.17-51.33-13.5-62.7c-3.898-13.41-8.311-21.12-17.369-30.42c-17.432-17.91-35.971-28.62-52.529-30.3   C762.24,279,747.51,278.7,743.7,278.88z" style="stroke:black;fill:#BFDAE3"/><path id="180623552" parent_id="180608862" order="101" structure_id="1" d="M837.63,192.84   c-9.898,18.93-18.03,34.71-18.03,35.04c0,0.39,1.261,1.35,4.353,3.36c16.858,10.89,36.87,29.22,48.897,44.82   c0.99,1.29,2.011,2.34,2.25,2.34c0.66-0.03,64.32-47.16,64.44-47.7c0.09-0.51-5.79-8.01-11.28-14.4   c-4.108-4.77-17.34-18.09-22.26-22.38c-11.67-10.2-22.47-18.3-35.939-27.06c-5.041-3.271-13.621-8.46-14.041-8.46   C855.84,158.4,847.561,173.91,837.63,192.84z" style="stroke:black;fill:#BFDAE3"/><path id="180623552" parent_id="180608862" order="102" structure_id="1" d="M714.45,111.36   c-0.36,2.16-10.352,79.648-10.352,80.398c0,0.69,0.149,0.84,0.989,0.99c19.472,3.36,63.21,12.81,71.46,15.45   c9.722,3.12,26.49,10.77,37.801,17.22c2.462,1.44,4.562,2.58,4.649,2.58c0.18,0,36.601-69.45,36.601-69.81   c0-0.39-11.131-6.48-19.948-10.89c-28.74-14.4-59.19-25.47-86.34-31.38c-9.723-2.1-30.48-5.52-33.57-5.52   C714.72,110.4,714.6,110.49,714.45,111.36z" style="stroke:black;fill:#BFDAE3"/><path id="180623552" parent_id="180608862" order="103" structure_id="1" d="M670.561,146.49   c-1.381,21.81-2.488,40.08-2.461,40.62c0,1.17-0.989,0.96,10.95,2.34c4.95,0.57,12.48,1.47,16.71,2.01   c4.26,0.51,7.801,0.87,7.892,0.78c0.239-0.24,10.801-81.813,10.618-81.99c-0.447-0.42-20.697-2.28-30.868-2.82   c-3.211-0.18-6.869-0.39-8.102-0.45l-2.25-0.15L670.561,146.49z" style="stroke:black;fill:#BFDAE3"/><path id="180623552" parent_id="180608862" order="104" structure_id="1" d="M641.04,106.8c-6,0.24-15.57,0.84-15.75,0.99   c-0.03,0.06,2.13,17.28,4.8,38.31l4.891,38.25l16.319,1.86c8.97,1.02,16.352,1.83,16.38,1.8c0.12-0.12,5.222-81.03,5.103-81.12   C672.54,106.65,646.71,106.59,641.04,106.8z" style="stroke:black;fill:#BFDAE3"/><path id="180623552" parent_id="180608862" order="105" structure_id="1" d="M618.3,108.45   c-7.109,0.84-10.59,1.41-15.898,2.55c-15.359,3.36-29.102,9.9-40.052,18.99c-3.209,2.67-7.647,7.14-7.647,7.68   s64.8,54.63,65.46,54.63c0.239,0,0.66-0.42,0.96-0.93c0.897-1.5,5.311-5.79,6.63-6.42c0.87-0.42,2.01-0.63,4.17-0.69l2.939-0.12   l-0.149-0.779c-0.06-0.45-2.279-17.642-4.89-38.25c-3.99-31.5-4.83-37.41-5.223-37.38C624.359,107.73,621.51,108.06,618.3,108.45z" style="stroke:black;fill:#BFDAE3"/><path id="180623552" parent_id="180608862" order="106" structure_id="1" d="M552.09,140.01   c-6.24,7.14-9.24,11.7-10.92,16.74l-0.72,2.1l-0.091,33.21l-0.09,33.24h33.898h33.87l1.438-3.39c2.16-5.07,3.359-8.64,4.5-13.17   c1.41-5.67,2.609-9.18,4.352-12.69c0.812-1.65,1.47-3.15,1.47-3.33c0-0.358-65.188-54.72-65.64-54.72   C553.98,138,553.05,138.9,552.09,140.01z" style="stroke:black;fill:#BFDAE3"/><path id="180623552" parent_id="180608862" order="107" structure_id="1" d="M560.91,225.51l-20.67,0.09l0.149,13.44   c0.091,10.56,0.238,14.01,0.601,16.26c2.069,12,6.06,20.31,12.93,26.94c2.971,2.85,6.33,5.28,7.08,5.07   c0.391-0.12,40.8-28.35,41.52-29.01c0.121-0.15-0.118-0.99-0.538-1.92c-2.671-5.67-1.529-13.47,3.841-25.92   c1.08-2.55,1.979-4.74,1.979-4.89s-5.43-0.24-13.109-0.21C587.46,225.42,572.25,225.48,560.91,225.51z" style="stroke:black;fill:#BFDAE3"/><path id="180623552" parent_id="180608862" order="108" structure_id="1" d="M635.67,457.8   c-3.359,0.54-8.189,2.79-11.34,5.34c-4.38,3.603-6.33,7.263-6.33,12.03c0,4.53,1.8,8.94,5.01,12.36   c4.801,5.067,11.94,6.147,18.9,2.85c3.21-1.53,5.67-3.3,8.37-6.03c5.46-5.487,6.329-10.77,2.88-17.368   c-1.38-2.642-4.65-6-7.11-7.291C642.811,458.01,639,457.29,635.67,457.8z" style="stroke:black;fill:#BFDAE3"/><path id="180623552" parent_id="180608862" order="109" structure_id="1" d="M642.63,491.28c-3.6,0.96-4.89,1.92-12.18,9.27   c-7.86,7.86-9.42,9.75-9.66,11.55c-0.181,1.23-0.149,1.263,2.37,3.69c1.41,1.35,2.67,2.76,2.76,3.149   c0.15,0.421,0.03,1.079-0.33,1.801c-0.81,1.68-2.49,2.37-7.47,3.06c-8.101,1.17-7.62,0.99-9.66,3.24   c-0.989,1.11-4.17,4.17-7.05,6.81c-2.91,2.643-5.28,5.013-5.28,5.28c-0.06,1.29,12.96,3.54,18.54,3.181   c2.55-0.148,2.61-0.181,6.33-2.311c7.59-4.41,16.92-11.01,20.97-14.85c4.563-4.32,10.62-12.513,13.11-17.7   c3.09-6.42,2.85-10.32-0.84-13.47C651.03,491.22,646.62,490.2,642.63,491.28z" style="stroke:black;fill:#BFDAE3"/><path id="180623552" parent_id="180608862" order="110" structure_id="1" d="M739.68,480.93   c-2.67,0.631-4.47,2.011-11.46,8.7c-4.14,4.021-7.02,7.021-7.229,7.59c-0.54,1.353-0.182,3.66,0.84,5.46   c1.41,2.521,1.858,5.04,1.89,10.473c0.03,10.68-2.278,16.56-11.608,29.67c-2.011,2.817-4.709,6.81-6,8.88   c-3,4.737-4.949,7.2-8.579,10.8c-3.15,3.12-6.72,5.91-9.87,7.771c-7.68,4.471-37.59,15.028-55.021,19.408   c-9.479,2.37-11.25,2.61-21.092,2.7c-4.77,0.03-10.317,0.21-12.3,0.392l-3.6,0.358l-1.262,1.23c-0.721,0.688-1.291,1.5-1.291,1.77   c0,1.021,6.933,6.9,10.23,8.642c2.34,1.291,6.84,2.729,9.061,2.908c1.829,0.183,7.949-0.51,13.709-1.56   c9.063-1.65,20.103-5.07,33-10.26c14.011-5.643,39.063-17.103,41.7-19.08c2.82-2.131,8.37-7.71,10.65-10.74   c2.46-3.271,4.92-7.891,5.88-11.13c0.54-1.8,0.6-2.37,0.33-3.54c-0.57-2.433,0.358-4.71,2.31-5.73   c1.142-0.567,3.301-3.18,6.721-8.157c1.352-1.98,3.239-4.62,4.2-5.91c2.011-2.7,2.819-4.44,5.011-10.472   c2.369-6.538,3.539-8.729,7.171-13.591c5.52-7.35,7.77-12.39,8.068-17.938c0.209-4.62-0.898-6.87-4.141-8.34   C745.53,480.57,741.9,480.42,739.68,480.93z" style="stroke:black;fill:#BFDAE3"/><path id="180623552" parent_id="180608862" order="111" structure_id="1" d="M697.77,375.48   c-0.209,0.27-6.658,6.028-14.34,12.81c-28.528,25.29-31.26,27.899-35.069,33.96c-5.25,8.37-6.538,18.36-3.479,26.52   c1.44,3.813,4.71,8.19,8.012,10.65l1.108,0.84l4.438-0.147c6.479-0.21,10.802-1.53,16.262-4.95c3.84-2.432,5.817-4.08,8.1-6.813   c9.092-10.8,15.271-28.5,16.801-48.119c0.569-7.471,0.302-22.291-0.479-24.721C698.91,374.88,698.311,374.85,697.77,375.48z" style="stroke:black;fill:#BFDAE3"/><path id="180623552" parent_id="180608862" order="112" structure_id="1" d="M562.98,553.89c-3.303-4.647-7.291-16.107-8.91-25.68c-0.211-1.35-0.48-2.01-0.75-2.01   c-0.24,0-0.42,0.12-0.42,0.3c0,0.42-3.75,2.25-6.302,3.061c-1.927,0.595-2.834,0.688-6.618,0.689v22.561   c8.907-0.021,12.568,0.377,19.1,2.039c2.311,0.57,4.35,1.053,4.561,1.053C564.24,555.9,564.061,555.39,562.98,553.89z" style="stroke:black;fill:#BFDAE3"/><path id="180623552" parent_id="180608862" order="113" structure_id="1" d="M547.71,554.85l-0.36-1.8l-7.289-0.09l-0.079-0.001v21.971c0.552,0.019,1.081-0.001,1.551-0.1   c2.04-0.45,4.56-1.68,5.79-2.82c0.96-0.897,1.02-1.14,1.229-3.51C548.76,565.68,548.28,557.67,547.71,554.85z" style="stroke:black;fill:#BFDAE3"/></g></g></svg>
