<svg xmlns="http://www.w3.org/2000/svg" width="3024px" height="3024px"><g transform="scale(1.0)"><g id="180608862" order="1" parent_id="" graphic_group_label_id="28" graphic_group_label="Atlas - Adult Rat" sub_image_id="100960468" transform=" scale(1.0, 1.0)"><path id="180623552" parent_id="180608862" order="0" structure_id="1" d="M950.1,362.25c-1.317-23.37-4.17-39.18-10.38-57.48c-3.51-10.35-7.68-20.19-13.92-32.82   c-10.74-21.69-19.89-36.3-33.24-53.01c-12.117-15.21-27.93-31.11-43.5-43.68c-9.117-7.38-21.09-15.72-30.51-21.24   c-20.34-11.91-51.06-23.49-83.91-31.62c-31.62-7.83-51.06-9.9-93.12-9.9c-9.6,0-20.88,0.15-25.05,0.3   c-33.027,1.32-44.88,3.84-55.527,11.85c-3.69,2.79-10.23,9.63-12.603,13.2c-3.42,5.13-6.18,11.58-7.41,17.37   c-0.33,1.539-0.641,2.374-0.93,2.523v503.984c1.718-0.049,3.502-0.891,6.24-2.538l2.79-1.682l3.21,0.33   c5.76,0.63,12.06,0.75,20.31,0.391c12.511-0.539,19.771-1.528,29.7-3.988c10.62-2.643,19.5-6.12,29.37-11.49   c3.51-1.89,6.66-3.45,7.02-3.45c0.603,0,0.632,0.09,0.45,1.95l-0.18,1.95l1.2,1.17c2.01,2.01,4.83,1.979,6.659-0.12   c0.721-0.84,0.931-1.35,0.931-2.34c0-0.69-0.21-1.53-0.45-1.83c-0.87-1.142-0.6-1.26,3.09-1.29c7.71-0.062,14.643-1.89,19.41-5.19   c0.72-0.479,2.76-2.22,4.562-3.84c3.631-3.33,4.141-3.66,5.521-3.66c1.2,0,1.92,0.75,5.79,6.092   c4.229,5.818,7.47,9.658,12.3,14.461c4.771,4.77,7.98,7.107,13.352,9.75c7.408,3.657,16.289,6.21,29.278,8.367   c7.53,1.263,25.893,3.813,30.75,4.29c5.4,0.513,27.57,0.513,34.052,0c14.818-1.197,21.091-1.92,23.698-2.79   c2.19-0.688,3.57-1.71,13.353-9.897c26.31-21.9,40.02-35.16,49.56-47.79c7.11-9.45,19.32-29.641,25.74-42.63   c6.51-13.2,9.12-21.48,10.83-34.65c0.84-6.51,0.688-12.18-0.45-16.8c-0.84-3.39-0.99-5.94-0.42-6.99   c0.18-0.357,1.35-1.739,2.64-3.09c4.41-4.71,6.48-10.02,9.302-24.09c2.221-11.07,5.551-32.04,6.869-43.08   c3.271-27.36,3.449-29.1,3.96-38.85C950.82,391.11,950.64,371.73,950.1,362.25z" style="stroke:black;fill:#BFDAE3"/><path id="180623552" parent_id="180608862" order="1" structure_id="1" d="M550.11,471.18c-0.15-2.52-1.053-5.58-1.86-6.479c-0.27-0.3-1.74-0.96-3.3-1.47   c-1.872-0.631-3.407-0.944-4.95-0.945v19.78c3.4,0.076,4.844-0.551,7.26-2.967C549.75,476.61,550.35,474.93,550.11,471.18z" style="stroke:black;fill:#BFDAE3"/><path id="180623552" parent_id="180608862" order="2" structure_id="1" d="M696.54,640.92   c-0.96,0.87-1.74,1.74-1.74,1.95c0,0.63,7.08,7.38,9.72,9.24c8.133,5.76,18.99,9.42,36.723,12.39c6.33,1.05,23.277,3.45,27.51,3.87   c2.58,0.3,12.3,0.897,14.1,0.93c0.603,0,0.66-0.33,1.143-6.39c0.3-3.48,0.51-6.63,0.51-6.99c0-0.6-0.18-0.66-4.26-0.84   c-16.59-0.78-34.17-1.98-40.59-2.76c-12.723-1.53-22.17-4.592-29.58-9.57l-2.521-1.71l-1.68,0.33c-2.19,0.42-4.29,0-5.94-1.2   c-0.688-0.479-1.317-0.87-1.438-0.87C698.34,639.33,697.47,640.05,696.54,640.92z" style="stroke:black;fill:#BFDAE3"/><path id="180623552" parent_id="180608862" order="3" structure_id="1" d="M569.1,477.81c0,0.303,0.393,2.58,0.9,5.04   c2.64,13.5,4.05,24.21,3.81,28.771l-0.18,2.97l3.36-0.18c3.99-0.21,7.62-1.17,11.01-2.91c4.53-2.37,6.09-4.5,6.06-8.25   c-0.027-4.26-2.34-8.25-8.13-13.95c-3.96-3.96-8.938-7.89-13.229-10.47C570,477.21,569.1,476.97,569.1,477.81z" style="stroke:black;fill:#BFDAE3"/><path id="180623552" parent_id="180608862" order="4" structure_id="1" d="M604.14,468.57   c-2.397,1.647-4.35,2.46-10.979,4.47c-4.98,1.53-6.063,2.07-6.063,3.18c0,1.29,6.513,8.7,10.263,11.7   c4.408,3.54,8.188,5.1,12.39,5.07c3.75,0,4.59-0.36,8.04-3.45c4.41-3.96,13.11-12.75,13.11-13.29c0-0.57-0.36-0.57-2.223,0   c-1.89,0.57-6.12,0.57-8.817,0c-2.73-0.57-6.57-1.98-8.853-3.27c-2.79-1.563-4.107-3.15-4.107-4.95c0-0.57-0.15-0.933-0.36-0.9   C606.33,467.13,605.25,467.79,604.14,468.57z" style="stroke:black;fill:#BFDAE3"/><path id="180623552" parent_id="180608862" order="5" structure_id="1" d="M613.53,219.9   c-6.78,0.96-10.8,3.96-13.23,9.81c-3.27,8.01-5.46,12.54-8.55,17.97c-4.41,7.68-8.82,13.65-13.56,18.36   c-1.86,1.89-3.393,3.54-3.393,3.69c0,0.96,3.69-0.96,9.87-5.1c10.23-6.9,13.98-10.65,21-21.12c4.38-6.54,6.66-8.97,10.08-10.77   c4.71-2.43,9.63-3.3,19.2-3.3c14.91,0,29.67,2.55,44.7,7.74c6.54,2.25,7.26,2.46,17.369,4.95c19.261,4.71,39.841,11.46,52.051,17.1   c2.67,1.26,3.33,1.41,3.33,0.78c0-0.45-8.012-6.45-13.353-10.02c-16.29-10.89-38.909-19.44-63.75-24.09   c-9.96-1.86-29.58-4.41-42.897-5.55C625.77,219.78,616.05,219.54,613.53,219.9z" style="stroke:black;fill:#BFDAE3"/><path id="180623552" parent_id="180608862" order="6" structure_id="1" d="M724.59,330.24c-1.979-1.89-3.75-2.97-10.77-6.48c-7.053-3.54-9.96-5.19-15.271-8.79   c-8.607-5.82-16.5-12.93-23.67-21.39c-1.77-2.1-3.3-4.08-10.438-13.68c-3.9-5.25-6.69-8.07-9.9-9.93c-1.2-0.72-4.92-2.4-8.22-3.75   c-3.33-1.32-6.513-2.729-7.052-3.12c-2.368-1.62-3.538-3.18-4.021-5.34c-0.24-1.14-0.24-1.14-4.53-0.51   c-4.68,0.72-8.79,2.04-13.47,4.35c-4.89,2.43-7.74,4.47-14.25,10.32c-11.49,10.29-21.78,17.58-29.1,20.61   c-1.171,0.48-2.49,1.47-4.41,3.3c-6.933,6.57-12.69,8.64-18.75,6.69c-0.96-0.3-1.771-0.87-2.46-1.65l-1.021-1.2l-3.12,0.36   c-1.202,0.138-2.637,0.198-4.14,0.194v14.697c2.015,0.018,3.97-0.11,5.16-0.401c0.81-0.18,0.84-0.15,0.66,0.69l-0.183,0.87h2.853   c2.817-0.03,2.817-0.03,4.59,1.17c0.96,0.66,3.688,3.06,6.03,5.34c6.987,6.75,11.697,9.27,22.737,12.3   c6.66,1.83,10.92,2.55,17.103,2.91c3.147,0.18,6.84,0.45,8.25,0.6c4.438,0.54,7.5,1.53,7.5,2.43c0,0.18,0.239,0.27,0.54,0.18   c4.17-1.32,8.16-1.83,18.06-2.34c10.11-0.51,13.38-0.15,14.7,1.53c0.3,0.42,1.229,0.72,3,1.05c4.08,0.75,10.14,2.43,13.05,3.6   c3.24,1.29,5.88,2.82,8.82,5.1c1.2,0.93,2.49,1.8,2.85,1.95c2.222,0.84,15.181,1.44,20.61,0.96c5.67-0.51,9.148-2.01,17.34-7.38   c8.88-5.82,12.12-8.49,12.63-10.41C726.78,333.3,726.27,331.89,724.59,330.24z M653.19,287.43c-1.683,4.89-5.4,10.35-10.71,15.84   c-8.91,9.15-22.5,16.2-35.94,18.63c-11.49,2.07-28.8,3.27-35.67,2.46c-3.93-0.48-5.22-0.99-7.11-2.85   c-3.72-3.66-5.188-7.92-3.84-11.16c0.6-1.41,0.6-1.65,0.03-1.65c-0.271,0,0.93-0.96,2.607-2.1c1.711-1.17,4.65-3.21,6.54-4.53   c1.893-1.32,6.75-4.53,10.803-7.08c4.05-2.58,9.657-6.36,12.447-8.46c6.063-4.47,15.75-11.01,19.5-13.14   c3.42-1.92,6.183-2.91,10.263-3.66c5.067-0.96,9.777-1.17,14.188-0.63c5.521,0.69,10.29,2.58,13.86,5.55   C654.12,277.92,655.11,281.97,653.19,287.43z" style="stroke:black;fill:#BFDAE3"/><path id="180623552" parent_id="180608862" order="7" structure_id="1" d="M699.99,551.97   c-4.98,1.71-10.41,8.88-12.78,16.83c-3,9.96-3.3,24-0.75,32.76c0.33,1.143,1.14,1.593,1.14,0.633c0-1.053,1.23-3,2.223-3.54   c0.897-0.48,1.197-0.513,2.34-0.183c2.16,0.63,3.39,1.683,5.31,4.473c2.07,3.027,5.19,6.147,6.75,6.81   c0.603,0.24,2.313,0.57,3.841,0.75c1.529,0.15,3.239,0.36,3.812,0.479c1.2,0.238,1.229,0.811-0.36-6.092   c-2.04-8.729-3.06-15.42-3-19.59c0.03-4.229,0.21-5.76,1.92-16.35c1.353-8.313,1.382-9.99,0.271-12.24   c-0.9-1.8-3.09-4.05-4.65-4.74C704.52,551.25,702,551.25,699.99,551.97z" style="stroke:black;fill:#BFDAE3"/><path id="180623552" parent_id="180608862" order="8" structure_id="1" d="M732.81,330.93   c-2.487,0.6-4.77,2.37-6.447,5.13c-0.36,0.6-1.593,1.83-2.7,2.73c-4.143,3.33-13.86,9.78-17.7,11.73   c-2.22,1.11-6.688,2.58-7.95,2.58c-0.96,0-1.08,0.09-1.83,1.8c-0.81,1.77-1.317,3.9-0.987,3.9c0.09,0,0.96-0.21,1.92-0.45   c1.947-0.51,5.607-0.57,7.56-0.12c1.08,0.24,1.8,0.15,4.35-0.48c1.65-0.42,4.32-0.87,5.91-0.96c2.67-0.15,2.94-0.12,3.54,0.48   c0.33,0.33,0.63,0.96,0.63,1.38s0.183,0.75,0.393,0.75c0.6,0,4.68-2.61,6.479-4.14c2.16-1.86,5.433-5.7,5.433-6.42   c0-0.51-0.15-0.57-1.171-0.39c-2.312,0.39-2.642-1.05-1.382-6.18c0.393-1.68,0.843-4.26,0.933-5.7c0.27-3.66,0.66-3.96,4.107-3.12   c0.813,0.21,0.813,0.21,0.813-1.32C734.7,330.48,734.7,330.48,732.81,330.93z" style="stroke:black;fill:#BFDAE3"/><path id="180623552" parent_id="180608862" order="9" structure_id="1" d="M724.59,330.24c-1.979-1.89-3.75-2.97-10.77-6.48c-7.053-3.54-9.96-5.19-15.271-8.79   c-8.607-5.82-16.5-12.93-23.67-21.39c-1.77-2.1-3.3-4.08-10.438-13.68c-3.9-5.25-6.69-8.07-9.9-9.93c-1.2-0.72-4.92-2.4-8.22-3.75   c-3.33-1.32-6.513-2.729-7.052-3.12c-2.368-1.62-3.538-3.18-4.021-5.34c-0.24-1.14-0.24-1.14-4.53-0.51   c-4.68,0.72-8.79,2.04-13.47,4.35c-4.89,2.43-7.74,4.47-14.25,10.32c-11.49,10.29-21.78,17.58-29.1,20.61   c-1.171,0.48-2.49,1.47-4.41,3.3c-6.933,6.57-12.69,8.64-18.75,6.69c-0.96-0.3-1.771-0.87-2.46-1.65l-1.021-1.2l-3.12,0.36   c-1.202,0.138-2.637,0.198-4.14,0.194v14.697c2.015,0.018,3.97-0.11,5.16-0.401c0.81-0.18,0.84-0.15,0.66,0.69l-0.183,0.87h2.853   c2.817-0.03,2.817-0.03,4.59,1.17c0.96,0.66,3.688,3.06,6.03,5.34c6.987,6.75,11.697,9.27,22.737,12.3   c6.66,1.83,10.92,2.55,17.103,2.91c3.147,0.18,6.84,0.45,8.25,0.6c4.438,0.54,7.5,1.53,7.5,2.43c0,0.18,0.239,0.27,0.54,0.18   c4.17-1.32,8.16-1.83,18.06-2.34c10.11-0.51,13.38-0.15,14.7,1.53c0.3,0.42,1.229,0.72,3,1.05c4.08,0.75,10.14,2.43,13.05,3.6   c3.24,1.29,5.88,2.82,8.82,5.1c1.2,0.93,2.49,1.8,2.85,1.95c2.222,0.84,15.181,1.44,20.61,0.96c5.67-0.51,9.148-2.01,17.34-7.38   c8.88-5.82,12.12-8.49,12.63-10.41C726.78,333.3,726.27,331.89,724.59,330.24z M653.19,287.43c-1.683,4.89-5.4,10.35-10.71,15.84   c-8.91,9.15-22.5,16.2-35.94,18.63c-11.49,2.07-28.8,3.27-35.67,2.46c-3.93-0.48-5.22-0.99-7.11-2.85   c-3.72-3.66-5.188-7.92-3.84-11.16c0.6-1.41,0.6-1.65,0.03-1.65c-0.271,0,0.93-0.96,2.607-2.1c1.711-1.17,4.65-3.21,6.54-4.53   c1.893-1.32,6.75-4.53,10.803-7.08c4.05-2.58,9.657-6.36,12.447-8.46c6.063-4.47,15.75-11.01,19.5-13.14   c3.42-1.92,6.183-2.91,10.263-3.66c5.067-0.96,9.777-1.17,14.188-0.63c5.521,0.69,10.29,2.58,13.86,5.55   C654.12,277.92,655.11,281.97,653.19,287.43z" style="stroke:black;fill:#BFDAE3"/><path id="180623552" parent_id="180608862" order="10" structure_id="1" d="M836.28,380.37c-5.853-24.21-13.2-41.58-25.021-58.92c-3.12-4.59-9.6-13.41-12.479-16.95   c-9.54-11.82-23.94-26.13-39.15-38.91c-4.32-3.63-4.47-3.72-9.78-6.12c-23.13-10.5-58.17-20.16-85.197-23.55   c-5.25-0.63-19.143-0.9-23.28-0.45c-10.92,1.26-18.33,4.29-26.4,10.771c-1.229,0.99-4.317,3.78-6.87,6.18   c-7.947,7.53-12.51,10.92-19.59,14.58c-7.2,3.72-14.85,6.3-25.14,8.52c-2.73,0.6-6.36,1.41-8.103,1.8   c-5.265,1.23-10.252,1.845-15.27,1.845v20.812c5.602-0.079,12.102-1.026,19.47-2.857c16.95-4.23,25.353-9.18,44.73-26.34   c6.658-5.88,11.01-8.73,16.979-11.1c3.24-1.29,8.103-2.49,11.34-2.79l2.341-0.24l0.602-1.56c1.021-2.79,3.39-4.14,8.729-5.07   c4.319-0.75,15.302-0.45,20.222,0.57c16.68,3.48,37.229,12.15,55.29,23.4c2.397,1.5,6.448,3.75,9,5.04   c4.02,2.01,5.397,2.52,10.26,3.84c9.06,2.43,15.24,5.04,21.78,9.15c4.26,2.67,15,10.92,24.659,18.9   c5.368,4.41,14.278,13.32,17.818,17.73c14.25,17.88,23.4,40.29,31.53,77.37c4.08,18.54,5.91,32.973,5.938,46.83   c0.029,10.92-0.811,18.24-3.238,27.57c-3.961,15.33-9.393,26.25-19.381,39.03c-1.472,1.89-2.67,3.51-2.67,3.63   s0.271,0.81,0.601,1.5c0.42,0.81,0.569,1.53,0.42,2.04c-0.42,1.77-3.21,3.479-5.79,3.57l-1.47,0.06l-5.13,6.51   c-6.45,8.222-6.78,9.3-1.53,5.07c4.05-3.271,9.93-7.11,14.43-9.45c2.07-1.08,3.87-1.979,3.96-1.979c0.302,0,0.24,10.83-0.09,17.397   c-0.66,12.66-1.859,22.83-3.148,26.94c-1.472,4.647-5.342,9.75-9.359,12.33c-2.28,1.47-2.13,1.947,0.51,1.77   c2.642-0.21,4.8-1.26,6.99-3.42c2.01-2.01,2.88-3.6,4.35-8.07c0.66-1.979,1.893-5.22,2.762-7.197c1.381-3.24,1.528-3.75,1.351-5.07   c-0.3-2.311-0.21-12.21,0.149-16.38c0.868-10.23,2.608-23.25,3.75-28.17c1.618-6.87,3.841-12.99,6.721-18.48   c2.04-3.897,2.909-6.09,4.56-11.55c1.892-6.27,5.25-20.19,5.79-23.94c0.66-4.56,1.08-12.09,1.08-19.71   C846.3,428.01,843.84,411.75,836.28,380.37z" style="stroke:black;fill:#BFDAE3"/><path id="180623552" parent_id="180608862" order="11" structure_id="1" d="M736.56,326.88c-1.68,1.17-2.31,5.16-1.407,9   c0.688,2.97,0.51,5.73-0.57,8.07c-1.95,4.29-6.39,9.78-10.2,12.66c-2.34,1.74-8.04,4.59-11.13,5.58   c-8.4,2.64-14.79,2.43-17.76-0.54c-1.08-1.05-1.563-1.32-2.82-1.47c-0.87-0.12-1.95-0.3-2.4-0.39c-2.729-0.54,0.9,2.37,9.393,7.5   c8.31,5.04,12.21,8.22,15.78,12.96c2.04,2.73,4.647,7.98,5.607,11.4c1.92,6.69,2.7,20.01,1.53,26.4   c-1.23,6.84-4.23,13.98-8.61,20.55c-5.25,7.86-16.948,21.75-32.46,38.58c-7.68,8.37-9.84,11.07-13.02,16.41   c-9.603,15.99-13.62,30.57-10.262,37.17c0.329,0.63,1.319,1.86,2.189,2.76c4.59,4.593,10.98,5.19,23.43,2.223   c14.61-3.48,26.67-10.353,37.053-21.12c5.34-5.55,10.527-12.9,13.527-19.17c3.69-7.71,6.933-20.37,10.17-39.75   c1.473-8.73,1.86-10.353,4.353-18c2.938-9.063,3.688-13.32,4.35-25.05c0.66-11.853,2.25-22.2,4.38-28.98   c1.23-3.87,2.16-5.85,4.29-9.12c2.46-3.72,2.58-5.91,0.75-10.62c-1.62-4.02-11.97-24.3-15.567-30.48c-1.771-3-4.143-5.55-6-6.45   C739.68,326.28,737.49,326.22,736.56,326.88z" style="stroke:black;fill:#BFDAE3"/><path id="180623552" parent_id="180608862" order="12" structure_id="1" d="M655.65,586.62   c-7.53,1.5-11.313,5.188-8.94,8.79c1.29,1.95,5.64,2.07,11.01,0.27c5.46-1.83,7.08-3.09,7.08-5.55c0-1.62-0.66-2.52-2.25-3.21   C661.05,586.32,657.99,586.17,655.65,586.62z" style="stroke:black;fill:#BFDAE3"/><path id="180623552" parent_id="180608862" order="13" structure_id="1" d="M640.77,638.52   c-0.93,0.54-1.77,2.16-1.77,3.393c0,0.45,0.27,1.26,0.6,1.8c2.04,3.36,8.07,2.01,8.103-1.8c0-1.11-0.69-2.4-1.62-3   C645.03,638.19,641.76,637.98,640.77,638.52z" style="stroke:black;fill:#BFDAE3"/><path id="180623552" parent_id="180608862" order="14" structure_id="1" d="M657.06,605.4   c-4.5,1.59-8.52,4.317-13.47,9.09c-7.02,6.81-12.87,14.58-21.03,27.99c-2.67,4.407-3.147,5.52-2.367,5.52   c0.447,0,8.697-4.11,14.157-7.05c2.313-1.23,4.92-2.49,5.763-2.76c1.56-0.48,1.59-0.513,2.369-2.61   c3.211-8.55,7.738-18.48,9.601-21.12c1.8-2.55,4.8-6.148,6.39-7.71C660.51,604.8,660.03,604.35,657.06,605.4z" style="stroke:black;fill:#BFDAE3"/><path id="180623552" parent_id="180608862" order="15" structure_id="1" d="M668.85,489.51   c-1.857,1.65-6.567,5.16-10.05,7.5c-8.46,5.67-18.87,10.74-28.26,13.8l-3.48,1.143l-0.63,2.607c-2.25,9.66-8.46,16.683-17.76,20.07   c-5.189,1.89-13.86,3.57-18.36,3.57c-2.46,0-5.55-0.69-7.438-1.62c-0.84-0.45-1.65-0.78-1.8-0.78c-0.15,0-0.271,0.45-0.271,0.99   c0,1.29-1.5,4.229-2.938,5.7c-1.563,1.62-3.631,3-9.21,6.06c-6.513,3.57-7.771,4.41-10.171,6.72   c-2.762,2.673-4.382,4.98-6.449,9.393c-1.95,4.05-2.94,7.318-4.051,13.438c-1.802,9.78-1.949,11.91-2.159,26.881l-0.183,14.069   l1.08,1.65c0.603,0.897,1.71,3.12,2.49,4.95c1.979,4.647,6,12.6,6.9,13.68c1.947,2.28,7.08,5.16,11.34,6.33   c2.04,0.54,3.18,0.63,7.8,0.63c5.01,0,5.82-0.06,11.25-1.11c10.71-2.067,12.78-2.34,16.5-2.22c3.78,0.12,5.61,0.69,7.32,2.28   c0.96,0.93,2.277,3.479,2.277,4.47c0,0.96,0.9,0.9,3.843-0.21l2.367-0.93l3.093-5.103c11.938-19.8,21.657-31.107,31.26-36.39   c1.95-1.08,5.91-2.58,6.81-2.58c0.271,0,1.021-0.3,1.683-0.63c1.527-0.84,3.63-1.38,6.119-1.65c3.721-0.357,5.818,0.813,6.181,3.42   c0.18,1.32,0.3,1.5,1.5,2.13c1.648,0.87,2.79,2.49,3.03,4.29c0.147,1.171,0.06,1.71-0.69,3.303c-0.51,1.05-1.47,2.52-2.16,3.3   l-1.229,1.38l0.147,2.67c0.271,3.93,0.45,5.19,0.813,5.19c0.18,0,0.96-0.48,1.739-1.053c2.101-1.527,2.971-1.619,4.289-0.447   c0.602,0.51,2.58,3,4.409,5.487c3.69,5.103,8.28,10.71,8.73,10.71c0.479,0,3.87-3.027,3.87-3.447c0-0.212-0.21-0.54-0.48-0.78   c-1.438-1.17-3-6.3-2.67-8.67c0.18-1.262,1.2-3.78,1.98-4.83c0.3-0.392,0.147-0.78-0.842-2.103   c-4.711-6.3-9.391-17.22-11.101-25.92c-0.84-4.26-0.75-16.14,0.15-21.027c0.777-4.29,1.857-8.103,3.06-10.98   c1.92-4.53,6.24-9.99,9.271-11.79c0.841-0.51,1.528-1.107,1.528-1.35c0-0.3-0.84-0.75-2.488-1.32   c-1.352-0.45-3.932-1.56-5.762-2.43c-1.857-0.9-3.96-1.683-4.8-1.8c-7.05-0.99-12.78-3.632-15.87-7.353   c-0.688-0.84-1.2-1.107-2.67-1.41c-4.26-0.869-7.89-3.479-9.568-6.93c-0.899-1.771-0.989-2.31-1.08-5.04   c-0.119-3.6,0.421-6.96,1.921-11.61c2.277-7.02,6.27-15.327,10.829-22.5c0.721-1.107,1.29-2.22,1.29-2.46   C671.1,488.1,670.11,488.37,668.85,489.51z M611.88,539.07c2.04,0.93,3.51,2.188,4.44,3.93c0.75,1.38,0.87,2.01,1.107,5.49   c0.12,2.188,0.24,6.24,0.271,9c0,10.17-1.26,16.14-3.84,17.76c-0.513,0.33-0.933,0.78-0.961,0.99c0,0.21,0.448,1.29,1.021,2.397   c5.01,10.021,4.53,20.7-1.32,27.78c-2.97,3.6-5.67,4.74-10.947,4.74c-3,0-5.103-0.3-9.96-1.47c-1.053-0.24-0.87,0.538,0.39,1.737   c1.71,1.59,3.84,5.07,4.62,7.44c0.54,1.74,0.66,2.58,0.54,4.8c-0.12,2.34-0.271,2.97-1.23,4.89c-2.04,4.173-6.567,7.383-12,8.521   c-5.67,1.2-13.95,0.12-19.26-2.55c-6.84-3.42-13.11-9.57-14.88-14.58c-0.813-2.28-1.05-5.521-0.603-7.74   c0.54-2.58,2.19-5.61,3.933-7.229c2.79-2.61,8.85-4.771,14.46-5.19c2.88-0.21,3.39-0.6,1.53-1.26   c-2.461-0.841-6.271-3.24-8.461-5.313c-3.899-3.688-5.699-7.528-5.729-12.18c-0.03-8.851,5.7-18.96,13.2-23.34   c5.28-3.091,15.42-7.5,19.95-8.67c5.1-1.353,9.84-0.99,13.8,1.02c1.17,0.57,2.188,1.05,2.31,1.05c0.091,0,0.183-1.617,0.21-3.6   c0-5.4,0.813-8.28,2.521-9C607.92,538.08,610.26,538.35,611.88,539.07z M662.82,586.92c3.237,1.59,2.91,4.83-0.723,7.021   c-1.92,1.14-6.27,2.607-9.09,3.06c-5.817,0.93-9.27-3.15-5.7-6.72C650.58,587.01,659.19,585.15,662.82,586.92z" style="stroke:black;fill:#BFDAE3"/><path id="180623552" parent_id="180608862" order="16" structure_id="1" d="M706.65,620.43   c-6.24,1.44-9.66,3.723-10.83,7.23c-0.63,1.95-0.45,5.46,0.447,7.77c1.74,4.59,6.78,7.2,10.41,5.49c2.4-1.14,4.95-4.95,6.84-10.2   c1.29-3.6,0.87-6.688-1.26-8.91C710.7,620.13,709.35,619.83,706.65,620.43z" style="stroke:black;fill:#BFDAE3"/><path id="180623552" parent_id="180608862" order="17" structure_id="1" d="M689.16,599.19   c-1.8,1.92-2.01,4.647-0.603,8.52c1.923,5.31,8.013,16.29,9.03,16.29c0.21,0,0.84-0.33,1.38-0.75c1.2-0.87,5.223-2.37,7.86-2.91   c2.01-0.42,2.37-0.688,4.62-3.63c1.979-2.61,2.52-4.68,1.38-5.28c-0.3-0.18-1.83-0.447-3.36-0.63c-3.63-0.39-4.38-0.567-5.7-1.229   c-1.56-0.78-4.47-3.78-6.18-6.36c-0.78-1.17-1.77-2.49-2.188-2.88C693.39,598.47,690.36,597.9,689.16,599.19z" style="stroke:black;fill:#BFDAE3"/><path id="180623552" parent_id="180608862" order="18" structure_id="1" d="M548.85,274.56   c-1.26,0.45-3.39,1.95-3.75,2.64c-0.869,1.65-0.09,1.83,4.803,1.05c6-0.96,6.51-1.23,4.8-2.67   C553.17,274.32,550.77,273.9,548.85,274.56z" style="stroke:black;fill:#BFDAE3"/><path id="180623552" parent_id="180608862" order="19" structure_id="1" d="M543.69,314.91c-0.923,0.115-2.528,0.229-3.69,0.238v4.325c0.503-0.001,0.985-0.151,1.59-0.453   c1.353-0.69,3.813-3.15,3.813-3.81C545.4,314.7,545.25,314.67,543.69,314.91z" style="stroke:black;fill:#BFDAE3"/><path id="180623552" parent_id="180608862" order="20" structure_id="1" d="M540,460.62v1.32l1.35,0.18   c1.92,0.3,4.683,1.29,10.353,3.72c9.688,4.143,21.54,8.25,27.09,9.393c4.14,0.84,7.68,0.72,9.271-0.33   c1.409-0.96,1.439-1.41,0.029-1.65c-2.607-0.45-4.107-1.14-5.55-2.58c-1.05-1.05-1.47-1.74-1.62-2.609l-0.18-1.198l-2.313-0.21   c-6.688-0.57-19.229-2.94-26.31-4.95c-5.94-1.681-9.18-2.4-10.92-2.4H540V460.62z" style="stroke:black;fill:#BFDAE3"/><path id="180623552" parent_id="180608862" order="21" structure_id="1" d="M682.2,353.49c0,0.54,1.5,2.19,3.72,4.14   c1.68,1.47,2.58,2.04,3.15,2.01c0.42,0,1.8,0.09,3.027,0.21l2.25,0.24l0.393-1.47c0.21-0.81,0.75-2.25,1.17-3.21   c0.42-0.93,0.72-1.77,0.66-1.83C696.33,353.34,682.2,353.25,682.2,353.49z" style="stroke:black;fill:#BFDAE3"/><path id="180623552" parent_id="180608862" order="22" structure_id="1" d="M647.34,343.17   c-0.479,0.96-0.84,1.89-0.84,2.1c0,0.18,0.45,0.33,0.99,0.33c3.06,0,18.42,5.16,24.42,8.22c2.1,1.05,2.397,1.02,2.85-0.45   c0.36-1.23,0.33-1.26-0.54-1.98c-6.09-5.01-11.55-7.38-21.33-9.36C648.36,341.1,648.3,341.1,647.34,343.17z" style="stroke:black;fill:#BFDAE3"/><path id="180623552" parent_id="180608862" order="23" structure_id="1" d="M562.38,357.81   c0.12,1.02,0.03,1.86-0.33,2.79c-0.84,2.25-0.87,3.06-0.12,4.02c0.813,1.05,2.763,1.95,4.143,1.98c1.47,0,3.51-1.08,4.229-2.22   c0.84-1.41,0.813-3.66-0.06-4.98c-0.603-0.87-1.021-1.08-3.24-1.65c-1.41-0.36-2.94-0.81-3.39-1.02   C562.26,356.19,562.17,356.28,562.38,357.81z" style="stroke:black;fill:#BFDAE3"/><path id="180623552" parent_id="180608862" order="24" structure_id="1" d="M576.09,514.68c-2.729,0.15-3.51,0.303-5.04,1.021c-2.28,1.08-3.989,1.47-6.42,1.5   c-3.897,0-7.647-1.5-16.108-6.54c-5.25-3.12-6.659-3.66-6.302-2.4c0.99,3.42,0.933,10.44-0.12,12.183   c-0.48,0.79-1.279,1.167-2.1,1.154v3.009c11.653-0.028,24.145-0.243,25.771-0.533c6.75-1.23,12.658-4.5,13.561-7.5   C579.93,514.62,579.75,514.5,576.09,514.68z" style="stroke:black;fill:#BFDAE3"/><path id="180623552" parent_id="180608862" order="25" structure_id="1" d="M599.19,401.91   c-9.303,6.357-27.093,21.96-27.093,23.76c0,0.51,0.96,0.39,3.66-0.45c7.11-2.25,13.83-5.397,16.95-7.92   c3.69-2.97,6.6-7.5,8.49-13.107C602.61,399.9,602.43,399.69,599.19,401.91z" style="stroke:black;fill:#BFDAE3"/><path id="180623552" parent_id="180608862" order="26" structure_id="1" d="M595.35,392.16   c-0.897,3.72-1.71,6.39-2.31,7.47c-1.74,3.3-5.43,7.05-9.99,10.17c-6.03,4.08-14.76,6.9-20.16,6.51   c-1.5-0.117-2.188-0.06-2.188,0.15c0,0.6,5.49,10.8,5.91,10.95c0.21,0.09,1.317-0.063,2.43-0.33c1.979-0.51,2.1-0.6,3.99-2.82   c4.647-5.488,20.76-19.107,27.54-23.31c1.47-0.931,1.89-1.353,2.13-2.22c0.479-1.83,1.5-8.521,1.5-9.9v-1.32l-1.563,0.18   c-1.197,0.15-2.01,0.03-3.237-0.42c-0.9-0.33-1.86-0.66-2.133-0.75C596.85,386.37,596.55,387.24,595.35,392.16z" style="stroke:black;fill:#BFDAE3"/><path id="180623552" parent_id="180608862" order="27" structure_id="1" d="M674.1,610.59c0,4.92,0.33,8.61,0.78,8.61   s2.37-2.55,2.97-4.021c0.57-1.35,0.57-3.87,0.03-4.947c-0.6-1.143-2.46-2.73-3.18-2.73C674.13,607.5,674.1,607.71,674.1,610.59z" style="stroke:black;fill:#BFDAE3"/><path id="180623552" parent_id="180608862" order="28" structure_id="1" d="M605.4,512.97   c-3.45,1.11-5.4,3.063-5.4,5.433c0,2.817,2.22,4.5,5.88,4.5c2.25,0,4.021-0.66,6.603-2.433c1.827-1.229,2.52-2.43,2.52-4.317   c0-2.79-1.41-3.75-5.46-3.723C608.04,512.43,606.39,512.64,605.4,512.97z" style="stroke:black;fill:#BFDAE3"/><path id="180623552" parent_id="180608862" order="29" structure_id="1" d="M846.18,458.73   c-0.09,0.51-0.18,1.5-0.18,2.188c0,2.7-1.29,9.75-3.15,17.22c-1.08,4.29-1.947,7.86-1.947,7.92c0,0.063,0.987,0.093,2.188,0.12   c1.74,0,2.521,0.183,3.93,0.87c2.133,1.021,4.021,2.82,4.803,4.563c0.3,0.72,0.777,1.29,1.02,1.29c0.393,0,0.42-0.75,0.271-5.73   c-0.33-9.479-1.41-17.91-3.063-24.18c-1.02-3.9-1.739-5.19-2.817-5.19C846.51,457.8,846.33,457.95,846.18,458.73z" style="stroke:black;fill:#BFDAE3"/><path id="180623552" parent_id="180608862" order="30" structure_id="1" d="M565.32,526.77   c-1.23,0.75-1.92,1.683-3.271,4.44c-1.29,2.58-1.68,4.89-1.05,6.39c0.479,1.143,2.13,2.133,5.1,3.063   c1.92,0.6,2.883,0.688,6.75,0.688c5.04,0,5.973-0.27,7.053-2.039c0.657-1.051,0.81-3.539,0.3-4.858c-0.48-1.23-3.21-3.96-5.61-5.55   C570.72,526.32,567.33,525.54,565.32,526.77z" style="stroke:black;fill:#BFDAE3"/><path id="180623552" parent_id="180608862" order="31" structure_id="1" d="M542.58,642.81c-0.57-1.35-1.17-3.357-1.35-4.438c-0.24-1.38-0.33-19.05-0.33-57.813V524.7H540v127.908   c0.289-0.001,0.579-0.028,0.87-0.108C544.11,651.63,544.77,647.97,542.58,642.81z" style="stroke:black;fill:#BFDAE3"/><path id="180623552" parent_id="180608862" order="32" structure_id="1" d="M540.9,603.6v15.03l1.29-0.06   c0.688-0.03,1.737,0.027,2.31,0.147l1.05,0.21l0.063-11.938c0.027-6.57,0.147-12.84,0.27-13.92l0.181-2.013l-2.368-1.229   c-1.29-0.69-2.433-1.23-2.553-1.23C540.99,588.6,540.9,595.35,540.9,603.6z" style="stroke:black;fill:#BFDAE3"/><path id="180623552" parent_id="180608862" order="33" structure_id="1" d="M541.41,507.36c-0.37-0.4-0.889-0.616-1.41-0.642v14.665c0.554,0.017,1.104-0.074,1.5-0.286   c0.9-0.479,1.2-2.188,1.2-6.6C542.7,510.12,542.4,508.44,541.41,507.36z" style="stroke:black;fill:#BFDAE3"/><path id="180623552" parent_id="180608862" order="34" structure_id="1" d="M567,599.73   c-3.42,0.327-7.92,1.5-10.41,2.697c-3.57,1.71-6.39,5.19-7.26,9c-0.54,2.25-0.39,6,0.27,8.19c1.29,4.17,5.643,9.12,11.433,12.96   c3.72,2.49,6.18,3.51,10.17,4.29c4.53,0.87,7.857,1.05,10.92,0.66c10.2-1.382,16.56-8.28,15.21-16.592   c-0.87-5.488-4.29-9.868-11.43-14.608C576.78,600.27,573.33,599.07,567,599.73z M566.46,606.45c2.22,0.45,6.36,2.28,8.4,3.688   c3.147,2.16,5.34,5.25,5.34,7.593c0,1.59-0.78,3.897-1.771,5.31c-1.62,2.22-4.56,3.479-9.39,3.99c-9.36,1.02-15.24-3-15.36-10.53   c-0.027-1.98,0.092-2.49,0.96-4.26c1.08-2.223,2.643-3.75,5.013-4.95C562.38,605.88,563.31,605.76,566.46,606.45z" style="stroke:black;fill:#BFDAE3"/><path id="180623552" parent_id="180608862" order="35" structure_id="1" d="M612.12,648.33c-0.603-2.04-2.43-3.93-4.5-4.65c-3.54-1.229-7.26-0.987-18.78,1.17   c-3.897,0.723-8.58,1.473-10.38,1.65c-6.54,0.6-13.11-0.72-17.79-3.6c-2.34-1.44-3.03-1.143-1.62,0.72   c1.26,1.647,1.74,3.42,1.353,4.979c-0.42,1.62-1.5,3.12-2.7,3.75c-1.05,0.54-3.87,0.57-8.07,0.12l-3.03-0.33l-0.777,0.96   c-0.99,1.17-3.303,2.343-5.04,2.58c-0.256,0.038-0.519,0.06-0.78,0.062v5.613c1.685-0.005,3.357-0.766,5.85-2.282   c2.973-1.771,3.03-1.803,4.803-1.65c0.987,0.09,5.85,0.24,10.8,0.36c19.14,0.42,31.979-1.11,47.04-5.643   C613.05,650.79,612.9,650.94,612.12,648.33z" style="stroke:black;fill:#BFDAE3"/><path id="180623552" parent_id="180608862" order="36" structure_id="1" d="M713.58,357.03   c-1.14,0.12-3.03,0.45-4.2,0.72l-2.16,0.48v2.52c0.03,2.55,0.03,2.55,0.813,2.55c1.857,0,7.71-1.83,9.81-3.06   c1.893-1.14,0.99-3.6-1.29-3.51C716.07,356.76,714.72,356.88,713.58,357.03z" style="stroke:black;fill:#BFDAE3"/><path id="180623552" parent_id="180608862" order="37" structure_id="1" d="M541.11,524.91   c-0.12,0.09-0.21,7.47-0.21,16.35c0,12.813,0.09,16.143,0.39,16.143c1.32,0,5.97-4.172,9.51-8.553   c2.643-3.237,5.91-5.907,9.063-7.438c1.438-0.69,2.607-1.44,2.607-1.682c0.03-0.211-0.3-0.658-0.72-0.988   c-1.08-0.841-1.53-2.55-1.08-4.29c0.78-3.063,3.87-7.95,5.01-7.95c0.75,0,0.45-0.87-0.479-1.35c-0.48-0.24-1.32-0.45-1.893-0.45   c-0.96,0-1.05,0.09-1.229,1.14c-0.48,3-3.69,4.38-12.18,5.19c-3.271,0.3-3.9,0.3-4.86-0.12c-1.92-0.813-1.83-2.88,0.24-4.71   c0.567-0.48,1.02-1.021,1.02-1.2C546.3,524.67,541.44,524.58,541.11,524.91z" style="stroke:black;fill:#BFDAE3"/><path id="180623552" parent_id="180608862" order="38" structure_id="1" d="M597.45,356.13   c-5.73,1.98-12.99,2.85-21.57,2.55l-5.64-0.21l0.147,0.69c0.093,0.39,0.33,1.23,0.54,1.89c0.303,1.08,0.271,1.38-0.27,2.61   c-1.563,3.57-6.182,4.11-8.67,0.99c-0.45-0.57-0.96-1.05-1.143-1.05c-0.567,0.03-2.55,2.85-2.55,3.6c0,1.53,0.66,3,1.95,4.44   c2.01,2.22,3.06,2.61,9.3,3.36c6,0.72,9.45,1.32,11.7,2.01c6,1.83,8.97,2.07,11.25,0.9c2.43-1.2,7.14-8.1,8.43-12.33   c0.57-1.74,0.63-2.52,0.48-5.1c-0.182-3.33-0.63-5.31-1.2-5.25C600,355.26,598.77,355.65,597.45,356.13z" style="stroke:black;fill:#BFDAE3"/><path id="180623552" parent_id="180608862" order="39" structure_id="1" d="M664.8,602.79   c-2.52,0.6-3.51,1.229-6.45,4.229c-3.357,3.393-6.357,7.353-8.067,10.683c-2.04,3.93-8.28,18.66-8.28,19.53   c0,0.63,3.45,1.02,8.7,0.987c4.89,0,5.938-0.09,8.91-0.777c5.67-1.353,8.64-2.82,12.657-6.271l2.28-1.95v-2.397   c0-1.29-0.21-6.9-0.45-12.42l-0.42-10.021l-0.81-0.93c-0.78-0.87-0.9-0.9-3.63-0.96C667.71,602.46,665.7,602.58,664.8,602.79z" style="stroke:black;fill:#BFDAE3"/><path id="180623552" parent_id="180608862" order="40" structure_id="1" d="M668.85,489.51   c-1.857,1.65-6.567,5.16-10.05,7.5c-8.46,5.67-18.87,10.74-28.26,13.8l-3.48,1.143l-0.63,2.607c-2.25,9.66-8.46,16.683-17.76,20.07   c-5.189,1.89-13.86,3.57-18.36,3.57c-2.46,0-5.55-0.69-7.438-1.62c-0.84-0.45-1.65-0.78-1.8-0.78c-0.15,0-0.271,0.45-0.271,0.99   c0,1.29-1.5,4.229-2.938,5.7c-1.563,1.62-3.631,3-9.21,6.06c-6.513,3.57-7.771,4.41-10.171,6.72   c-2.762,2.673-4.382,4.98-6.449,9.393c-1.95,4.05-2.94,7.318-4.051,13.438c-1.802,9.78-1.949,11.91-2.159,26.881l-0.183,14.069   l1.08,1.65c0.603,0.897,1.71,3.12,2.49,4.95c1.979,4.647,6,12.6,6.9,13.68c1.947,2.28,7.08,5.16,11.34,6.33   c2.04,0.54,3.18,0.63,7.8,0.63c5.01,0,5.82-0.06,11.25-1.11c10.71-2.067,12.78-2.34,16.5-2.22c3.78,0.12,5.61,0.69,7.32,2.28   c0.96,0.93,2.277,3.479,2.277,4.47c0,0.96,0.9,0.9,3.843-0.21l2.367-0.93l3.093-5.103c11.938-19.8,21.657-31.107,31.26-36.39   c1.95-1.08,5.91-2.58,6.81-2.58c0.271,0,1.021-0.3,1.683-0.63c1.527-0.84,3.63-1.38,6.119-1.65c3.721-0.357,5.818,0.813,6.181,3.42   c0.18,1.32,0.3,1.5,1.5,2.13c1.648,0.87,2.79,2.49,3.03,4.29c0.147,1.171,0.06,1.71-0.69,3.303c-0.51,1.05-1.47,2.52-2.16,3.3   l-1.229,1.38l0.147,2.67c0.271,3.93,0.45,5.19,0.813,5.19c0.18,0,0.96-0.48,1.739-1.053c2.101-1.527,2.971-1.619,4.289-0.447   c0.602,0.51,2.58,3,4.409,5.487c3.69,5.103,8.28,10.71,8.73,10.71c0.479,0,3.87-3.027,3.87-3.447c0-0.212-0.21-0.54-0.48-0.78   c-1.438-1.17-3-6.3-2.67-8.67c0.18-1.262,1.2-3.78,1.98-4.83c0.3-0.392,0.147-0.78-0.842-2.103   c-4.711-6.3-9.391-17.22-11.101-25.92c-0.84-4.26-0.75-16.14,0.15-21.027c0.777-4.29,1.857-8.103,3.06-10.98   c1.92-4.53,6.24-9.99,9.271-11.79c0.841-0.51,1.528-1.107,1.528-1.35c0-0.3-0.84-0.75-2.488-1.32   c-1.352-0.45-3.932-1.56-5.762-2.43c-1.857-0.9-3.96-1.683-4.8-1.8c-7.05-0.99-12.78-3.632-15.87-7.353   c-0.688-0.84-1.2-1.107-2.67-1.41c-4.26-0.869-7.89-3.479-9.568-6.93c-0.899-1.771-0.989-2.31-1.08-5.04   c-0.119-3.6,0.421-6.96,1.921-11.61c2.277-7.02,6.27-15.327,10.829-22.5c0.721-1.107,1.29-2.22,1.29-2.46   C671.1,488.1,670.11,488.37,668.85,489.51z M611.88,539.07c2.04,0.93,3.51,2.188,4.44,3.93c0.75,1.38,0.87,2.01,1.107,5.49   c0.12,2.188,0.24,6.24,0.271,9c0,10.17-1.26,16.14-3.84,17.76c-0.513,0.33-0.933,0.78-0.961,0.99c0,0.21,0.448,1.29,1.021,2.397   c5.01,10.021,4.53,20.7-1.32,27.78c-2.97,3.6-5.67,4.74-10.947,4.74c-3,0-5.103-0.3-9.96-1.47c-1.053-0.24-0.87,0.538,0.39,1.737   c1.71,1.59,3.84,5.07,4.62,7.44c0.54,1.74,0.66,2.58,0.54,4.8c-0.12,2.34-0.271,2.97-1.23,4.89c-2.04,4.173-6.567,7.383-12,8.521   c-5.67,1.2-13.95,0.12-19.26-2.55c-6.84-3.42-13.11-9.57-14.88-14.58c-0.813-2.28-1.05-5.521-0.603-7.74   c0.54-2.58,2.19-5.61,3.933-7.229c2.79-2.61,8.85-4.771,14.46-5.19c2.88-0.21,3.39-0.6,1.53-1.26   c-2.461-0.841-6.271-3.24-8.461-5.313c-3.899-3.688-5.699-7.528-5.729-12.18c-0.03-8.851,5.7-18.96,13.2-23.34   c5.28-3.091,15.42-7.5,19.95-8.67c5.1-1.353,9.84-0.99,13.8,1.02c1.17,0.57,2.188,1.05,2.31,1.05c0.091,0,0.183-1.617,0.21-3.6   c0-5.4,0.813-8.28,2.521-9C607.92,538.08,610.26,538.35,611.88,539.07z M662.82,586.92c3.237,1.59,2.91,4.83-0.723,7.021   c-1.92,1.14-6.27,2.607-9.09,3.06c-5.817,0.93-9.27-3.15-5.7-6.72C650.58,587.01,659.19,585.15,662.82,586.92z" style="stroke:black;fill:#BFDAE3"/><path id="180623552" parent_id="180608862" order="41" structure_id="1" d="M566.85,295.11   c-3.027,1.05-11.85,3.24-15.567,3.87c-3.12,0.54-3.21,0.57-3.12,1.29c0.21,1.74,3.72,2.91,8.04,2.64c4.05-0.21,7.26-1.8,11.79-5.73   C571.35,294.24,571.02,293.64,566.85,295.11z" style="stroke:black;fill:#BFDAE3"/><path id="180623552" parent_id="180608862" order="42" structure_id="1" d="M546.66,525.33   c-2.58,1.29-3.69,4.14-1.98,5.25c0.63,0.45,1.263,0.479,4.263,0.33c4.02-0.21,8.188-0.9,9.96-1.59c1.647-0.66,3-2.25,3-3.57v-1.05   h-6.96C548.43,524.7,547.86,524.73,546.66,525.33z" style="stroke:black;fill:#BFDAE3"/><path id="180623552" parent_id="180608862" order="43" structure_id="1" d="M668.85,489.51   c-1.857,1.65-6.567,5.16-10.05,7.5c-8.46,5.67-18.87,10.74-28.26,13.8l-3.48,1.143l-0.63,2.607c-2.25,9.66-8.46,16.683-17.76,20.07   c-5.189,1.89-13.86,3.57-18.36,3.57c-2.46,0-5.55-0.69-7.438-1.62c-0.84-0.45-1.65-0.78-1.8-0.78c-0.15,0-0.271,0.45-0.271,0.99   c0,1.29-1.5,4.229-2.938,5.7c-1.563,1.62-3.631,3-9.21,6.06c-6.513,3.57-7.771,4.41-10.171,6.72   c-2.762,2.673-4.382,4.98-6.449,9.393c-1.95,4.05-2.94,7.318-4.051,13.438c-1.802,9.78-1.949,11.91-2.159,26.881l-0.183,14.069   l1.08,1.65c0.603,0.897,1.71,3.12,2.49,4.95c1.979,4.647,6,12.6,6.9,13.68c1.947,2.28,7.08,5.16,11.34,6.33   c2.04,0.54,3.18,0.63,7.8,0.63c5.01,0,5.82-0.06,11.25-1.11c10.71-2.067,12.78-2.34,16.5-2.22c3.78,0.12,5.61,0.69,7.32,2.28   c0.96,0.93,2.277,3.479,2.277,4.47c0,0.96,0.9,0.9,3.843-0.21l2.367-0.93l3.093-5.103c11.938-19.8,21.657-31.107,31.26-36.39   c1.95-1.08,5.91-2.58,6.81-2.58c0.271,0,1.021-0.3,1.683-0.63c1.527-0.84,3.63-1.38,6.119-1.65c3.721-0.357,5.818,0.813,6.181,3.42   c0.18,1.32,0.3,1.5,1.5,2.13c1.648,0.87,2.79,2.49,3.03,4.29c0.147,1.171,0.06,1.71-0.69,3.303c-0.51,1.05-1.47,2.52-2.16,3.3   l-1.229,1.38l0.147,2.67c0.271,3.93,0.45,5.19,0.813,5.19c0.18,0,0.96-0.48,1.739-1.053c2.101-1.527,2.971-1.619,4.289-0.447   c0.602,0.51,2.58,3,4.409,5.487c3.69,5.103,8.28,10.71,8.73,10.71c0.479,0,3.87-3.027,3.87-3.447c0-0.212-0.21-0.54-0.48-0.78   c-1.438-1.17-3-6.3-2.67-8.67c0.18-1.262,1.2-3.78,1.98-4.83c0.3-0.392,0.147-0.78-0.842-2.103   c-4.711-6.3-9.391-17.22-11.101-25.92c-0.84-4.26-0.75-16.14,0.15-21.027c0.777-4.29,1.857-8.103,3.06-10.98   c1.92-4.53,6.24-9.99,9.271-11.79c0.841-0.51,1.528-1.107,1.528-1.35c0-0.3-0.84-0.75-2.488-1.32   c-1.352-0.45-3.932-1.56-5.762-2.43c-1.857-0.9-3.96-1.683-4.8-1.8c-7.05-0.99-12.78-3.632-15.87-7.353   c-0.688-0.84-1.2-1.107-2.67-1.41c-4.26-0.869-7.89-3.479-9.568-6.93c-0.899-1.771-0.989-2.31-1.08-5.04   c-0.119-3.6,0.421-6.96,1.921-11.61c2.277-7.02,6.27-15.327,10.829-22.5c0.721-1.107,1.29-2.22,1.29-2.46   C671.1,488.1,670.11,488.37,668.85,489.51z M611.88,539.07c2.04,0.93,3.51,2.188,4.44,3.93c0.75,1.38,0.87,2.01,1.107,5.49   c0.12,2.188,0.24,6.24,0.271,9c0,10.17-1.26,16.14-3.84,17.76c-0.513,0.33-0.933,0.78-0.961,0.99c0,0.21,0.448,1.29,1.021,2.397   c5.01,10.021,4.53,20.7-1.32,27.78c-2.97,3.6-5.67,4.74-10.947,4.74c-3,0-5.103-0.3-9.96-1.47c-1.053-0.24-0.87,0.538,0.39,1.737   c1.71,1.59,3.84,5.07,4.62,7.44c0.54,1.74,0.66,2.58,0.54,4.8c-0.12,2.34-0.271,2.97-1.23,4.89c-2.04,4.173-6.567,7.383-12,8.521   c-5.67,1.2-13.95,0.12-19.26-2.55c-6.84-3.42-13.11-9.57-14.88-14.58c-0.813-2.28-1.05-5.521-0.603-7.74   c0.54-2.58,2.19-5.61,3.933-7.229c2.79-2.61,8.85-4.771,14.46-5.19c2.88-0.21,3.39-0.6,1.53-1.26   c-2.461-0.841-6.271-3.24-8.461-5.313c-3.899-3.688-5.699-7.528-5.729-12.18c-0.03-8.851,5.7-18.96,13.2-23.34   c5.28-3.091,15.42-7.5,19.95-8.67c5.1-1.353,9.84-0.99,13.8,1.02c1.17,0.57,2.188,1.05,2.31,1.05c0.091,0,0.183-1.617,0.21-3.6   c0-5.4,0.813-8.28,2.521-9C607.92,538.08,610.26,538.35,611.88,539.07z M662.82,586.92c3.237,1.59,2.91,4.83-0.723,7.021   c-1.92,1.14-6.27,2.607-9.09,3.06c-5.817,0.93-9.27-3.15-5.7-6.72C650.58,587.01,659.19,585.15,662.82,586.92z" style="stroke:black;fill:#BFDAE3"/><path id="180623552" parent_id="180608862" order="44" structure_id="1" d="M591.42,549.18   c0.811,3.303,0.51,5.521-1.32,9.75c-2.55,5.94-8.67,14.46-12.21,16.98c-3.93,2.79-13.17,3.72-20.43,2.04   c-1.08-0.271-2.04-0.393-2.13-0.271c-0.09,0.09-0.18,1.53-0.18,3.21c0.027,4.683,1.289,7.86,4.59,11.37   c2.85,3.03,6.54,5.19,12.33,7.2c4.737,1.62,8.277,3.39,12.84,6.45c2.938,1.979,4.438,2.79,6.45,3.45   c5.85,1.89,12.51,2.22,16.29,0.84c2.58-0.96,5.697-4.17,7.317-7.563c1.683-3.54,2.223-6.027,2.223-10.14   c0.027-5.04-0.843-8.64-3.303-13.68c-1.229-2.61-1.38-2.763-2.43-2.973c-1.89-0.33-3.21-1.438-4.229-3.51   c-1.079-2.22-1.382-3.93-1.979-11.34c-0.81-9.84-0.72-9.24-1.83-10.08c-1.86-1.41-5.01-2.31-8.79-2.46l-3.42-0.15L591.42,549.18z" style="stroke:black;fill:#BFDAE3"/><path id="180623552" parent_id="180608862" order="45" structure_id="1" d="M740.49,582.9   c-1.71,0.75-2.49,2.067-2.49,4.17c0,1.47,0.09,1.71,1.17,2.76c1.08,1.08,1.26,1.17,2.91,1.17c2.91,0,4.62-1.59,4.62-4.35   C746.7,583.14,743.79,581.4,740.49,582.9z" style="stroke:black;fill:#BFDAE3"/><path id="180623552" parent_id="180608862" order="46" structure_id="1" d="M663.96,381.99   c-5.37,12.84-12.51,21.42-28.83,34.77c-3.06,2.521-8.07,6.66-11.13,9.21l-5.55,4.62l-0.393,4.38c-0.75,8.58-3.09,17.61-6.42,24.933   c-0.63,1.38-1.35,2.487-1.857,2.79c-1.23,0.81-2.521,2.817-2.761,4.26c-0.392,2.729,0.868,4.38,4.921,6.42   c3.18,1.59,5.64,2.37,9.147,2.938c2.49,0.423,3.42,0.45,5.643,0.183c3.479-0.45,5.31-1.32,8.938-4.23   c1.59-1.29,4.65-3.39,6.78-4.68c5.28-3.18,13.29-9.21,27.75-20.85c23.46-18.87,28.95-24.48,30.75-31.263   c0.897-3.3,0.33-9.42-1.11-12.51c-2.37-5.04-10.107-9.45-20.46-11.61c-1.95-0.42-4.05-0.99-4.647-1.26   c-2.94-1.38-6.303-6.42-7.44-11.13c-0.271-1.17-0.66-2.16-0.81-2.16C666.3,376.8,665.16,379.14,663.96,381.99z" style="stroke:black;fill:#BFDAE3"/><path id="180623552" parent_id="180608862" order="47" structure_id="1" d="M663.96,381.99   c-5.37,12.84-12.51,21.42-28.83,34.77c-3.06,2.521-8.07,6.66-11.13,9.21l-5.55,4.62l-0.393,4.38c-0.75,8.58-3.09,17.61-6.42,24.933   c-0.63,1.38-1.35,2.487-1.857,2.79c-1.23,0.81-2.521,2.817-2.761,4.26c-0.392,2.729,0.868,4.38,4.921,6.42   c3.18,1.59,5.64,2.37,9.147,2.938c2.49,0.423,3.42,0.45,5.643,0.183c3.479-0.45,5.31-1.32,8.938-4.23   c1.59-1.29,4.65-3.39,6.78-4.68c5.28-3.18,13.29-9.21,27.75-20.85c23.46-18.87,28.95-24.48,30.75-31.263   c0.897-3.3,0.33-9.42-1.11-12.51c-2.37-5.04-10.107-9.45-20.46-11.61c-1.95-0.42-4.05-0.99-4.647-1.26   c-2.94-1.38-6.303-6.42-7.44-11.13c-0.271-1.17-0.66-2.16-0.81-2.16C666.3,376.8,665.16,379.14,663.96,381.99z" style="stroke:black;fill:#BFDAE3"/><path id="180623552" parent_id="180608862" order="48" structure_id="1" d="M555.6,468.39   c0,0.183,3.813,2.58,8.49,5.313c9.603,5.607,12.57,7.5,15.93,10.2c7.173,5.697,11.973,11.31,13.563,15.868   c0.78,2.222,0.898,3.869,0.36,5.882c-0.212,0.72-0.271,1.438-0.12,1.56c0.357,0.36,3.93-1.649,7.56-4.26   c4.41-3.15,11.82-9.21,11.82-9.63c0-0.24-0.722-0.303-2.46-0.21c-5.16,0.33-10.17-1.98-15.75-7.23c-2.58-2.43-7.17-7.77-7.83-9.12   c-0.393-0.777-0.45-0.81-3.3-0.84c-4.53-0.06-10.353-1.62-22.17-6C556.35,467.94,555.6,467.73,555.6,468.39z" style="stroke:black;fill:#BFDAE3"/><path id="180623552" parent_id="180608862" order="49" structure_id="1" d="M629.85,229.5   c-8.79,0.48-13.979,2.28-18.237,6.27c-1.44,1.38-3.183,3.63-5.94,7.74c-7.02,10.47-10.77,14.22-21,21.12   c-5.7,3.81-8.67,5.43-9.688,5.25c-0.633-0.15-1.29,0.09-2.553,0.84c-0.93,0.57-2.58,1.47-3.688,2.01   c-2.07,1.02-2.643,1.77-1.32,1.77c1.2,0,9.69-2.55,13.562-4.05c1.948-0.78,5.341-2.34,7.528-3.45   c7.08-3.66,11.642-7.05,19.59-14.58c9-8.52,14.25-12.06,21.54-14.49c6.603-2.22,12.271-2.85,22.98-2.64   c8.28,0.15,12.09,0.51,20.729,1.89c7.23,1.17,7.353,1.17,7.353,0.66c0-0.75-11.37-4.08-19.8-5.76   C650.34,229.95,638.97,229.02,629.85,229.5z" style="stroke:black;fill:#BFDAE3"/><path id="180623552" parent_id="180608862" order="50" structure_id="1" d="M561.96,540.45   c-3.36,1.05-8.37,4.92-11.55,8.938c-2.37,2.973-4.74,5.28-7.47,7.23l-2.04,1.438v15.12v15.12l2.1,1.05c2.13,1.08,3,1.29,3,0.75   c0-1.02,1.68-11.31,2.4-14.729c1.08-5.103,1.737-7.08,3.75-11.25c2.55-5.25,5.55-8.88,9.75-11.73c0.75-0.51,3.688-2.22,6.567-3.81   c5.73-3.21,7.5-4.32,8.973-5.67c1.407-1.353,1.29-1.86-0.303-1.53c-0.72,0.15-2.85,0.24-4.737,0.24   c-2.763-0.063-3.99-0.21-6.092-0.84C563.31,539.88,563.64,539.91,561.96,540.45z" style="stroke:black;fill:#BFDAE3"/><path id="180623552" parent_id="180608862" order="51" structure_id="1" d="M554.58,348.66c-1.2-1.44-2.88-3.57-3.72-4.77c-3.48-4.89-8.7-14.31-9.99-17.94   c-0.24-0.706-0.578-1.229-0.87-1.482v22.393c4.576-0.024,8.454,1.047,13.41,3.689C557.55,352.74,557.76,352.41,554.58,348.66z" style="stroke:black;fill:#BFDAE3"/><path id="180623552" parent_id="180608862" order="52" structure_id="1" d="M730.44,333.51   c-0.303,0.36-0.54,1.5-0.66,3.15c-0.12,1.44-0.54,3.96-0.933,5.64c-1.29,5.34-0.987,6.48,1.74,6.12c1.771-0.24,1.86-0.3,3.54-3.6   c1.562-3.03,1.83-5.49,1.021-8.88c-0.513-2.16-0.54-2.22-1.683-2.58C731.85,332.85,730.98,332.91,730.44,333.51z" style="stroke:black;fill:#BFDAE3"/><path id="180623552" parent_id="180608862" order="53" structure_id="1" d="M696.54,358.44   c-1.98,0.48-2.04,0.51-2.04,1.44c0,2.67,5.64,4.8,10.8,4.11l1.62-0.24l0.271-1.32c0.147-0.72,0.18-1.89,0.09-2.58l-0.21-1.23   l-2.103-0.36C702.21,357.78,699,357.84,696.54,358.44z" style="stroke:black;fill:#BFDAE3"/><path id="180623552" parent_id="180608862" order="54" structure_id="1" d="M559.2,370.35c-0.33-0.48-0.66-1.47-0.78-2.16c-0.12-0.75-0.36-1.29-0.57-1.29s-0.96,0.48-1.619,1.02   c-2.698,2.25-9.688,5.85-13.801,7.08c-1.194,0.363-1.812,0.514-2.43,0.514v5.606l2.34-0.69c3.03-0.87,7.26-2.94,9.51-4.65   c1.263-0.96,2.103-1.38,2.79-1.38c0.603,0,0.96-0.15,0.96-0.42c0-0.36,1.771-1.29,3.54-1.83   C559.95,371.91,559.98,371.52,559.2,370.35z" style="stroke:black;fill:#BFDAE3"/><path id="180623552" parent_id="180608862" order="55" structure_id="1" d="M550.74,432.51c-0.603-2.04-0.63-2.067-1.563-1.89c-0.51,0.09-2.79,0.3-5.04,0.479   c-1.196,0.095-2.636,0.139-4.14,0.139V459c0.01,0,0.021,0,0.03,0c2.04,0,5.067,0.66,11.938,2.58c6.3,1.74,7.53,1.92,7.53,1.11   C559.5,462.3,554.16,443.88,550.74,432.51z" style="stroke:black;fill:#BFDAE3"/><path id="180623552" parent_id="180608862" order="56" structure_id="1" d="M603.63,394.56   c-1.38,9.09-4.979,17.25-9.39,21.42c-6.42,6.027-19.95,10.89-38.37,13.737c-2.73,0.42-5.04,0.78-5.16,0.78s-0.21,0.18-0.21,0.36   c0,0.777,9.39,32.188,9.72,32.52c0.69,0.66,15.66,3.12,19.021,3.12c1.438,0,1.438,0,1.77-1.29c0.813-3.03,4.83-7.53,8.37-9.42   c2.55-1.351,5.16-1.98,8.521-2.01c7.38-0.063,10.92,2.25,10.92,7.08c0,3.09,1.02,2.64,2.85-1.29c2.25-4.83,4.44-12.092,5.61-18.723   c0.659-3.75,0.897-12.567,0.45-15.777c-0.843-5.672-3.063-12.57-6.57-20.223c-2.22-4.89-6.42-12.75-6.84-12.75   C604.14,392.1,603.84,393.21,603.63,394.56z" style="stroke:black;fill:#BFDAE3"/><path id="180623552" parent_id="180608862" order="57" structure_id="1" d="M673.32,357.99c-1.021,3-2.88,8.1-4.17,11.31   c-2.16,5.52-2.28,5.94-2.103,7.5c0.45,4.02,2.49,8.55,4.98,11.1c1.979,1.98,2.698,2.31,6.84,3.18   c10.71,2.28,18.479,6.688,21.03,11.97c1.14,2.313,1.92,6.78,1.68,9.48c-0.6,6.51-4.563,11.88-15.78,21.42   c-16.62,14.1-36.93,29.91-43.107,33.567c-5.25,3.093-7.2,4.74-15.843,13.32c-13.107,13.021-23.1,21.18-32.52,26.643   c-2.88,1.68-4.23,3.06-4.23,4.287c0,1.83,2.07,2.433,8.49,2.433c3.24,0,4.021-0.09,5.01-0.603c1.893-0.96,5.013-1.59,6.99-1.38   c1.92,0.183,2.7,0.513,3.813,1.563c0.72,0.659,0.867,0.688,2.697,0.39c8.16-1.29,19.53-5.16,28.683-9.688   c9.63-4.771,18.028-10.5,26.607-18.093c5.16-4.59,19.74-20.607,30.092-33.09c9.988-12.06,12.21-15.18,15.421-21.75   c3.63-7.41,4.737-11.88,5.01-20.1c0.18-6.36-0.602-14.61-1.86-19.32c-1.59-5.94-4.38-10.8-8.76-15.36   c-3.33-3.45-5.79-5.28-12.479-9.33c-7.108-4.26-11.971-7.83-15.511-11.37l-2.88-2.85l-2.55-0.36c-1.38-0.21-2.79-0.36-3.12-0.36   C675.24,352.5,674.88,353.31,673.32,357.99z" style="stroke:black;fill:#BFDAE3"/><path id="180623552" parent_id="180608862" order="58" structure_id="1" d="M563.07,421.53c-2.73-5.19-3.09-5.73-4.021-6.03c-1.59-0.54-3.39-2.52-3.93-4.38   c-0.24-0.9-0.63-1.62-0.84-1.62s-0.54,0.57-0.75,1.26c-1.052,3.51-4.021,6.87-7.11,8.04c-2.004,0.744-4.226,1.103-6.42,1.102   v11.021c6.87,0,12.18-0.54,20.7-2.1c5.04-0.933,5.397-1.021,5.397-1.353C566.1,427.32,564.75,424.65,563.07,421.53z" style="stroke:black;fill:#BFDAE3"/><path id="180623552" parent_id="180608862" order="59" structure_id="1" d="M743.85,460.71   c-0.447,3.12-2.58,13.5-3.72,18.03c-3.18,12.72-6.39,19.77-12.93,28.5c-7.08,9.479-16.563,17.58-26.04,22.26   c-1.5,0.75-2.73,1.53-2.73,1.71c-0.027,0.48,1.53,0.51,5.7,0.09c10.8-1.107,20.07-4.59,25.86-9.78   c5.729-5.13,12.96-16.737,15.63-25.077c2.13-6.78,2.22-9.843,0.36-13.95c-1.62-3.63-1.803-5.01-1.263-10.32   c0.723-6.81,0.603-12.87-0.27-12.87C744.21,459.3,743.97,459.9,743.85,460.71z" style="stroke:black;fill:#BFDAE3"/><path id="180623552" parent_id="180608862" order="60" structure_id="1" d="M758.61,381.06   c-2.49,6.24-4.23,17.1-5.16,31.89c-0.75,11.79-1.44,15.63-4.65,25.47c-0.99,3.063-2.067,6.69-2.37,8.04   c-0.87,3.84-1.89,10.35-1.71,10.95c0.511,1.68,0.78,7.53,0.48,11.1c-0.84,10.021-0.813,10.353,1.14,14.643   c0.99,2.188,1.08,2.64,1.08,4.947c-0.09,8.4-7.86,23.94-16.229,32.313c-6.69,6.75-17.313,10.56-31.44,11.34   c-3.03,0.18-4.021,0.36-6.3,1.2c-6.393,2.37-13.5,4.05-19.71,4.71c-2.37,0.24-3.54,0.479-3.54,0.72c0,0.603,3.09,3.21,5.04,4.261   c2.277,1.229,5.25,2.25,8.52,2.939c3.03,0.66,11.13,0.75,14.79,0.15c12.183-1.921,29.01-8.103,42.24-15.421   c12.6-7.021,23.189-15.722,29.1-23.939c4.23-5.91,7.92-14.64,9.63-22.74c2.58-12.18,3.24-33,1.53-47.91   c-1.8-15.479-6.24-30.09-13.107-43.02c-2.553-4.8-7.83-13.5-8.223-13.5C759.54,379.2,759.03,380.04,758.61,381.06z" style="stroke:black;fill:#BFDAE3"/><path id="180623552" parent_id="180608862" order="61" structure_id="1" d="M747.42,526.44   c-3.54,2.31-8.4,4.979-13.62,7.527c-2.88,1.41-5.49,2.82-5.79,3.183c-0.99,1.14-2.64,4.92-3.42,7.857   c-0.688,2.58-0.78,3.54-0.81,7.893c0,4.229,0.09,5.31,0.688,7.47c1.41,5.22,4.17,9.84,8.19,13.68c6.03,5.79,12.75,8.58,22.53,9.3   c1.827,0.15,2.607,0.12,2.607-0.119c0-0.211-0.33-0.988-0.72-1.771c-2.88-5.7-2.88-10.41,0-19.979   c2.22-7.288,3.39-13.198,3.6-17.881c0.15-3.42,0.091-4.107-0.75-8.04c-1.05-4.8-1.17-7.14-0.447-8.64   c0.27-0.57,0.39-1.14,0.27-1.26c-0.09-0.12-2.52-0.24-5.34-0.3l-5.16-0.093L747.42,526.44z" style="stroke:black;fill:#BFDAE3"/><path id="180623552" parent_id="180608862" order="62" structure_id="1" d="M759.69,526.71   c-0.78,1.17-0.633,4.56,0.39,8.94c1.68,7.17,0.9,13.229-3.66,28.5c-1.77,5.938-1.74,11.369,0.063,15.869   c0.39,0.988,1.02,2.221,1.407,2.698l0.69,0.84l2.52-0.479c4.44-0.84,8.763-3.3,13.143-7.5c3.148-3.03,6.028-6.78,7.56-9.93   c1.08-2.16,1.23-2.763,1.53-5.973c0.93-9.72-1.65-19.26-6.87-25.59c-2.608-3.18-7.71-6.3-12.358-7.56   C761.07,525.69,760.35,525.72,759.69,526.71z" style="stroke:black;fill:#BFDAE3"/><path id="180623552" parent_id="180608862" order="63" structure_id="1" d="M734.4,282.33c0,0.18,0.688,1.11,1.56,2.04   c1.53,1.68,2.61,3.6,2.64,4.62c0,0.33-0.688,1.32-1.527,2.25c-0.99,1.11-2.13,2.94-3.271,5.31c-4.529,9.33-5.04,16.35-1.92,26.34   c1.23,3.87,2.313,6.51,2.7,6.51c0.18,0,0.51-0.42,0.72-0.9c0.54-1.32,1.95-2.4,3.12-2.4c2.521,0,6.271,2.97,8.521,6.78   c4.229,7.2,14.729,27.9,16.26,32.1c1.53,4.23,1.14,6.3-2.07,11.07c-0.688,0.99-1.229,2.04-1.229,2.37c0,0.3,0.987,2.13,2.188,4.05   c12,19.02,18.063,37.47,19.71,59.877c0.393,5.37,0.393,18.69,0,24.9c-1.08,17.28-4.949,29.7-12.33,39.81   c-2.698,3.69-10.26,10.95-14.908,14.343c-2.159,1.56-3.932,3.027-3.932,3.21c-0.029,0.3,0.69,0.39,2.61,0.39   c5.91,0,10.979,1.08,15.51,3.3c5.04,2.46,8.49,5.76,10.92,10.47c2.97,5.79,3.78,9.57,3.78,17.82v6.21h0.75   c0.63-0.03,0.897-0.357,1.8-2.28c1.44-3.18,3.51-6.237,6.03-8.938c3.42-3.69,17.01-21.18,17.188-22.2c0.24-1.2,2.4-4.438,3.69-5.58   c0.54-0.479,1.319-0.897,1.71-0.897c1.35,0,9.57-11.37,13.771-19.053c5.58-10.17,9.659-23.13,11.46-36.447   c0.659-4.83,0.899-17.313,0.479-23.553c-1.17-16.647-4.71-36.06-10.53-57.6c-7.05-26.16-15.51-44.07-27.72-58.92   c-3.39-4.11-11.312-11.88-16.38-16.11c-7.41-6.15-19.771-15.72-23.55-18.21c-3.933-2.58-10.563-5.97-14.552-7.44   c-2.881-1.05-11.818-3.57-12.658-3.57C734.64,282,734.4,282.15,734.4,282.33z" style="stroke:black;fill:#BFDAE3"/><path id="180623552" parent_id="180608862" order="64" structure_id="1" d="M668.85,489.51   c-1.857,1.65-6.567,5.16-10.05,7.5c-8.46,5.67-18.87,10.74-28.26,13.8l-3.48,1.143l-0.63,2.607c-2.25,9.66-8.46,16.683-17.76,20.07   c-5.189,1.89-13.86,3.57-18.36,3.57c-2.46,0-5.55-0.69-7.438-1.62c-0.84-0.45-1.65-0.78-1.8-0.78c-0.15,0-0.271,0.45-0.271,0.99   c0,1.29-1.5,4.229-2.938,5.7c-1.563,1.62-3.631,3-9.21,6.06c-6.513,3.57-7.771,4.41-10.171,6.72   c-2.762,2.673-4.382,4.98-6.449,9.393c-1.95,4.05-2.94,7.318-4.051,13.438c-1.802,9.78-1.949,11.91-2.159,26.881l-0.183,14.069   l1.08,1.65c0.603,0.897,1.71,3.12,2.49,4.95c1.979,4.647,6,12.6,6.9,13.68c1.947,2.28,7.08,5.16,11.34,6.33   c2.04,0.54,3.18,0.63,7.8,0.63c5.01,0,5.82-0.06,11.25-1.11c10.71-2.067,12.78-2.34,16.5-2.22c3.78,0.12,5.61,0.69,7.32,2.28   c0.96,0.93,2.277,3.479,2.277,4.47c0,0.96,0.9,0.9,3.843-0.21l2.367-0.93l3.093-5.103c11.938-19.8,21.657-31.107,31.26-36.39   c1.95-1.08,5.91-2.58,6.81-2.58c0.271,0,1.021-0.3,1.683-0.63c1.527-0.84,3.63-1.38,6.119-1.65c3.721-0.357,5.818,0.813,6.181,3.42   c0.18,1.32,0.3,1.5,1.5,2.13c1.648,0.87,2.79,2.49,3.03,4.29c0.147,1.171,0.06,1.71-0.69,3.303c-0.51,1.05-1.47,2.52-2.16,3.3   l-1.229,1.38l0.147,2.67c0.271,3.93,0.45,5.19,0.813,5.19c0.18,0,0.96-0.48,1.739-1.053c2.101-1.527,2.971-1.619,4.289-0.447   c0.602,0.51,2.58,3,4.409,5.487c3.69,5.103,8.28,10.71,8.73,10.71c0.479,0,3.87-3.027,3.87-3.447c0-0.212-0.21-0.54-0.48-0.78   c-1.438-1.17-3-6.3-2.67-8.67c0.18-1.262,1.2-3.78,1.98-4.83c0.3-0.392,0.147-0.78-0.842-2.103   c-4.711-6.3-9.391-17.22-11.101-25.92c-0.84-4.26-0.75-16.14,0.15-21.027c0.777-4.29,1.857-8.103,3.06-10.98   c1.92-4.53,6.24-9.99,9.271-11.79c0.841-0.51,1.528-1.107,1.528-1.35c0-0.3-0.84-0.75-2.488-1.32   c-1.352-0.45-3.932-1.56-5.762-2.43c-1.857-0.9-3.96-1.683-4.8-1.8c-7.05-0.99-12.78-3.632-15.87-7.353   c-0.688-0.84-1.2-1.107-2.67-1.41c-4.26-0.869-7.89-3.479-9.568-6.93c-0.899-1.771-0.989-2.31-1.08-5.04   c-0.119-3.6,0.421-6.96,1.921-11.61c2.277-7.02,6.27-15.327,10.829-22.5c0.721-1.107,1.29-2.22,1.29-2.46   C671.1,488.1,670.11,488.37,668.85,489.51z M611.88,539.07c2.04,0.93,3.51,2.188,4.44,3.93c0.75,1.38,0.87,2.01,1.107,5.49   c0.12,2.188,0.24,6.24,0.271,9c0,10.17-1.26,16.14-3.84,17.76c-0.513,0.33-0.933,0.78-0.961,0.99c0,0.21,0.448,1.29,1.021,2.397   c5.01,10.021,4.53,20.7-1.32,27.78c-2.97,3.6-5.67,4.74-10.947,4.74c-3,0-5.103-0.3-9.96-1.47c-1.053-0.24-0.87,0.538,0.39,1.737   c1.71,1.59,3.84,5.07,4.62,7.44c0.54,1.74,0.66,2.58,0.54,4.8c-0.12,2.34-0.271,2.97-1.23,4.89c-2.04,4.173-6.567,7.383-12,8.521   c-5.67,1.2-13.95,0.12-19.26-2.55c-6.84-3.42-13.11-9.57-14.88-14.58c-0.813-2.28-1.05-5.521-0.603-7.74   c0.54-2.58,2.19-5.61,3.933-7.229c2.79-2.61,8.85-4.771,14.46-5.19c2.88-0.21,3.39-0.6,1.53-1.26   c-2.461-0.841-6.271-3.24-8.461-5.313c-3.899-3.688-5.699-7.528-5.729-12.18c-0.03-8.851,5.7-18.96,13.2-23.34   c5.28-3.091,15.42-7.5,19.95-8.67c5.1-1.353,9.84-0.99,13.8,1.02c1.17,0.57,2.188,1.05,2.31,1.05c0.091,0,0.183-1.617,0.21-3.6   c0-5.4,0.813-8.28,2.521-9C607.92,538.08,610.26,538.35,611.88,539.07z M662.82,586.92c3.237,1.59,2.91,4.83-0.723,7.021   c-1.92,1.14-6.27,2.607-9.09,3.06c-5.817,0.93-9.27-3.15-5.7-6.72C650.58,587.01,659.19,585.15,662.82,586.92z" style="stroke:black;fill:#BFDAE3"/><path id="180623552" parent_id="180608862" order="65" structure_id="1" d="M816.18,532.8   c-8.1,4.44-14.397,9.181-21.42,16.17c-6.33,6.3-9.24,10.92-10.47,16.65c-1.229,5.85,1.17,13.71,5.61,18.21   c3.119,3.18,6.479,4.56,12,4.95c2.697,0.18,2.97,0.147,4.407-0.57c5.553-2.82,10.41-9.12,11.763-15.3   c1.35-6.063,2.46-19.563,2.91-35.4c0.18-6.54,0.18-6.81-0.36-6.81C820.29,530.7,818.31,531.66,816.18,532.8z" style="stroke:black;fill:#BFDAE3"/><path id="180623552" parent_id="180608862" order="66" structure_id="1" d="M782.25,577.65c-2.52,0.75-6.66,2.46-13.35,5.55   c-2.223,1.02-5.433,2.397-7.143,3.06c-6.18,2.4-8.01,4.95-6.27,8.73c1.107,2.43,1.89,2.76,6.21,2.729c2.607,0,4.02-0.18,5.79-0.66   c3.06-0.867,4.41-1.59,9.39-4.92c5.76-3.84,10.62-8.607,10.62-10.407c0-0.843-2.04-4.83-2.49-4.803   C784.8,576.93,783.57,577.26,782.25,577.65z" style="stroke:black;fill:#BFDAE3"/><path id="180623552" parent_id="180608862" order="67" structure_id="1" d="M791.19,590.52   c-2.853,0.933-4.021,2.643-3.393,4.95c0.42,1.591,2.04,2.91,4.021,3.33c1.89,0.36,3.42,0.03,4.83-1.02   c1.079-0.84,1.197-1.143,1.47-3.63c0.09-0.843,0.24-1.771,0.359-2.131c0.118-0.512-0.062-0.722-0.989-1.199   C796.05,590.13,792.87,589.98,791.19,590.52z" style="stroke:black;fill:#BFDAE3"/><path id="180623552" parent_id="180608862" order="68" structure_id="1" d="M822.63,570.96   c-0.72,1.71-1.83,4.68-2.46,6.66c-1.62,4.979-3.21,7.41-6.09,9.36c-2.58,1.737-4.771,2.25-8.85,2.037   c-3.093-0.147-3.603-0.09-4.53,0.423c-1.44,0.777-2.34,2.697-2.58,5.34c-0.24,2.607,0.479,4.59,1.95,5.34   c1.47,0.78,5.25,1.17,9.33,0.99c6.63-0.33,10.14-1.65,13.83-5.313c3.327-3.27,4.979-6.54,6.27-12.3c0.84-3.69,0.81-4.08-0.63-5.61   c-1.5-1.647-3.063-4.857-3.75-7.77c-0.3-1.23-0.69-2.22-0.87-2.22S823.35,569.28,822.63,570.96z" style="stroke:black;fill:#BFDAE3"/><path id="180623552" parent_id="180608862" order="69" structure_id="1" d="M735.45,593.52   c-3.63,0.963-7.683,2.433-10.05,3.633c-4.771,2.397-11.103,11.34-11.103,15.688c0,2.19,2.16,4.26,6,5.73   c4.26,1.647,20.433,5.817,30.33,7.83c6.54,1.35,9.99,1.737,16.68,1.857l4.563,0.09l1.38-1.35c0.78-0.75,1.71-1.89,2.1-2.55   c1.563-2.642,2.132-7.353,1.711-14.103c-0.238-3.63-0.358-4.407-1.051-5.76c-1.59-3.09-5.55-6-9.06-6.66   c-0.813-0.147-2.313-0.147-3.54,0c-2.313,0.303-3.93,0.15-5.76-0.51c-3.393-1.17-15.842-4.38-17.553-4.5   C738.66,592.83,737.43,592.98,735.45,593.52z" style="stroke:black;fill:#BFDAE3"/><path id="180623552" parent_id="180608862" order="70" structure_id="1" d="M712.74,614.82   c-0.271,0.54-1.11,1.737-1.86,2.67c-1.53,1.89-1.68,2.46-0.75,2.76c1.29,0.42,3.24,2.55,3.87,4.23   c0.81,2.188,0.75,2.907-0.33,6.027c-1.29,3.69-3.06,6.96-4.62,8.61c-0.75,0.75-1.35,1.53-1.35,1.68c0,0.54,4.29,3.3,7.647,4.95   c7.92,3.87,17.37,5.97,32.103,7.17c7.26,0.6,24.3,1.62,31.2,1.89l5.31,0.183l-0.21-1.473c-0.24-1.979,0.24-4.077,2.91-12.117   c1.29-3.933,2.13-6.961,2.13-7.74c0-1.71-0.75-2.7-2.94-3.813l-1.8-0.897l-7.5-0.21c-15.63-0.48-18.688-0.723-25.2-2.04   c-7.229-1.47-17.157-3.9-24.987-6.15c-6.9-1.95-9.54-3.21-11.131-5.28c-0.602-0.81-1.289-1.438-1.562-1.438   C713.43,613.8,712.98,614.25,712.74,614.82z" style="stroke:black;fill:#BFDAE3"/><path id="180623552" parent_id="180608862" order="71" structure_id="1" d="M782.73,563.91   c-1.65,4.647-8.343,12.51-13.473,15.84c-4.26,2.73-7.527,3.75-12.21,3.75c-8.46,0-16.35-2.67-22.647-7.71   c-2.343-1.89-5.4-5.34-6.69-7.62c-0.9-1.56-1.5-1.53-5.25,0.33c-4.38,2.13-7.32,4.2-10.59,7.47l-2.88,2.88l-0.21,2.37   c-0.36,4.59-0.183,7.32,0.87,13.53c1.647,9.81,3.479,17.25,4.197,17.25c0.183,0,0.54-0.57,0.75-1.29   c1.353-4.5,6.303-11.07,9.99-13.229c3.33-1.95,12.3-4.74,15.21-4.74c1.11,0,3.84,0.63,8.19,1.83c3.6,1.02,6.777,1.83,7.107,1.83   c0.723,0,0.75-0.21,0.15-1.591c-1.53-3.659,0.51-6.302,6.75-8.762c1.56-0.6,5.608-2.37,9-3.897c6.57-2.973,11.16-4.771,12.99-5.103   c1.26-0.238,1.35-0.567,0.658-2.58c-0.898-2.52-1.108-5.277-0.601-8.067c0.601-3.42,0.57-3.603-0.24-3.603   C783.27,562.8,783.03,563.07,782.73,563.91z M744.81,582.9c3.603,2.188,2.37,7.47-1.947,8.277c-1.38,0.271-3.48-0.6-4.32-1.77   c-1.05-1.44-0.96-3.66,0.18-5.13C740.19,582.33,742.89,581.73,744.81,582.9z" style="stroke:black;fill:#BFDAE3"/><path id="180623552" parent_id="180608862" order="72" structure_id="1" d="M723.15,538.68   c-11.131,4.53-23.521,7.62-30.66,7.62c-3.933,0-4.021,0.393-0.42,2.04c4.647,2.16,7.68,3.063,10.41,3   c3.479-0.03,5.607,1.17,7.647,4.32c1.98,3.09,2.01,3.75,0.603,12.39c-0.69,4.11-1.32,8.01-1.41,8.61   c-0.15,0.897-0.09,1.14,0.3,1.14c0.24,0,0.688-0.357,0.99-0.81c0.81-1.23,5.697-5.16,8.46-6.78c1.35-0.81,3.567-1.95,4.92-2.521   c1.35-0.602,2.52-1.109,2.58-1.172c0.06-0.06-0.09-0.539-0.36-1.078c-1.56-3.359-2.188-5.672-2.61-9.569   c-0.51-5.04,0.513-11.13,2.553-15.54c1.107-2.34,1.26-3.03,0.688-3.03C726.63,537.33,724.98,537.93,723.15,538.68z" style="stroke:black;fill:#BFDAE3"/><path id="180623552" parent_id="180608862" order="73" structure_id="1" d="M903,540.96c0,0.21,0.21,0.99,0.48,1.74   c0.81,2.34,0.027,5.52-3.24,12.897c-4.74,10.74-14.46,27.12-24.78,41.7c-4.56,6.42-17.76,24.24-22.11,29.853   c-12.21,15.72-20.34,23.97-25.647,25.979c-1.62,0.603-7.74,1.563-13.5,2.103c-4.41,0.42-23.94,0.538-27.48,0.18l-2.1-0.24   l-0.51,5.94c-0.303,3.27-0.513,6.447-0.513,7.05v1.14h4.29c10.53,0,34.65-1.8,39.96-3c2.91-0.66,3.36-0.988,15-10.68   c14.67-12.24,25.95-22.29,33.723-30.12c12.147-12.18,17.88-19.74,28.8-38.07c10.59-17.67,15.75-28.107,19.05-38.34   c1.59-4.979,1.68-4.74-1.83-5.188c-3.87-0.48-12.66-1.92-16.41-2.7C902.7,540.48,903,540.51,903,540.96z" style="stroke:black;fill:#BFDAE3"/><path id="180623552" parent_id="180608862" order="74" structure_id="1" d="M893.25,539.73   c-1.35,1.197-2.67,3.987-4.8,10.197c-1.95,5.67-3.9,9.84-7.2,15.57c-7.53,13.05-14.88,23.01-36.96,50.04   c-3.66,4.47-7.89,8.188-15.48,13.62c-6.81,4.857-13.14,7.59-19.71,8.46c-1.89,0.27-6.18,0.6-9.51,0.75   c-5.609,0.27-6.21,0.358-7.859,1.08c-4.198,1.89-7.828,7.8-7.828,12.778c0,1.229,0.147,1.892,0.567,2.399l0.57,0.72h13.47   c13.86,0,17.221-0.18,24.69-1.38c4.47-0.72,6.42-1.528,9.6-4.08c6.271-5.04,14.34-14.37,26.82-31.107   c21.06-28.2,29.188-40.53,37.38-56.73c4.89-9.66,6.57-14.22,6.6-17.608c0-3.062-0.81-3.869-5.158-4.859   c-1.771-0.45-3.449-0.78-3.689-0.78S893.85,539.22,893.25,539.73z" style="stroke:black;fill:#BFDAE3"/><path id="180623552" parent_id="180608862" order="75" structure_id="1" d="M586.95,549.45   c-5.28,1.56-15.78,6.357-19.95,9.09c-3.54,2.31-6.45,5.82-8.91,10.71c-1.32,2.64-2.49,6.061-2.49,7.32c0,0.75,0.15,0.87,1.5,1.17   c6.75,1.56,15.211,1.05,19.563-1.17c4.68-2.4,12.93-14.37,14.7-21.33c0.63-2.521,0.6-4.683-0.063-5.94   C590.88,548.52,589.98,548.55,586.95,549.45z" style="stroke:black;fill:#BFDAE3"/><path id="180623552" parent_id="180608862" order="76" structure_id="1" d="M841.2,519.51c0,0.12,0.6,1.41,1.317,2.91   c5.82,12.03,9.12,19.65,10.41,24.03c0.63,2.13,0.723,3.03,0.723,7.647c0,4.353-0.12,5.82-0.69,8.553   c-2.1,9.96-5.79,16.17-10.56,17.817c-1.263,0.45-2.973,0.75-4.803,0.84c-2.607,0.15-3.027,0.093-4.92-0.657   c-1.107-0.45-2.13-0.69-2.25-0.57c-0.147,0.15-0.42,1.26-0.63,2.49c-0.93,5.397-3,9.66-6.45,13.107   c-3.479,3.54-6.72,4.95-12.54,5.49c-3.18,0.3-8.188,0-9.987-0.57c-1.08-0.357-2.04-1.317-2.49-2.487   c-0.33-0.843-1.021-1.08-1.41-0.48c-0.359,0.57-2.64,1.47-3.81,1.47c-2.88,0-5.61-2.31-5.61-4.8c0-2.88,4.65-5.1,8.4-4.02   c2.88,0.81,3.09,0.81,3.688-0.03c0.69-0.96,0.48-1.65-0.51-1.65c-1.17,0-4.86-1.35-6.45-2.369c-0.81-0.539-2.16-1.681-3-2.58   c-0.87-0.898-1.647-1.648-1.77-1.648s-0.48,0.51-0.813,1.11c-0.81,1.5-3.99,4.68-6.75,6.75c-3.75,2.817-9.27,6.21-10.979,6.75   c-0.9,0.27-1.62,0.657-1.62,0.84c0,0.21,1.02,0.87,2.25,1.47c2.79,1.38,5.13,3.63,6.33,6.03c0.84,1.77,0.87,1.92,0.96,7.26   c0.09,3.3-0.03,6.3-0.24,7.56c-0.45,2.672-1.71,5.343-3.271,6.9c-0.689,0.69-1.229,1.35-1.229,1.5s2.46,0.33,5.49,0.39   c4.05,0.12,5.79,0.303,6.777,0.66c2.61,0.96,4.23,2.73,4.23,4.59c0,0.48-0.54,2.49-1.2,4.44c-1.71,5.13-1.56,5.76,0.87,3.3   c2.521-2.55,5.61-3.45,12.03-3.45c8.55,0,15.63-1.59,21.6-4.857c6.271-3.42,16.08-11.011,20.01-15.48   c3.393-3.87,19.473-23.97,23.973-29.97c11.52-15.33,18.449-27.3,22.14-38.04c1.92-5.64,3-8.01,4.41-9.57   c0.51-0.6,0.87-1.229,0.81-1.409c-0.06-0.181-2.88-1.108-6.237-2.068c-15.36-4.29-29.25-9.51-41.103-15.45   C842.76,519.48,841.2,518.94,841.2,519.51z" style="stroke:black;fill:#BFDAE3"/><path id="180623552" parent_id="180608862" order="77" structure_id="1" d="M841.02,486.51   c-0.18,0.12-0.777,1.65-1.287,3.393c-1.65,5.397-2.61,7.8-4.923,12.447c-2.22,4.41-4.317,9.603-4.617,11.4l-0.15,0.9l2.1,0.33   c2.49,0.39,5.07,1.527,6.9,3.027c1.14,0.933,1.65,1.143,3.06,1.23c0.933,0.06,2.49-0.03,3.48-0.24c3.63-0.75,4.86-3.21,6.33-12.81   c1.08-7.11,1.14-11.91,0.147-14.04c-1.56-3.393-4.737-5.58-8.46-5.763C842.37,486.33,841.2,486.39,841.02,486.51z" style="stroke:black;fill:#BFDAE3"/><path id="180623552" parent_id="180608862" order="78" structure_id="1" d="M853.11,491.91   c-0.12,6.84-0.303,9.24-0.9,13.35c-1.14,7.5-2.19,10.893-3.87,12.45c-0.87,0.81-2.67,1.59-3.688,1.59   c-1.263,0-0.843,0.72,0.987,1.62c19.23,9.57,44.103,17.46,67.08,21.36c7.62,1.29,12.9,1.92,13.11,1.59   c0.359-0.601,1.14-4.68,1.95-10.08c0.63-4.14,0.81-6.479,0.84-10.44c0-4.68-0.09-5.43-0.96-9.21c-1.29-5.607-1.143-6.33,1.89-9.357   c2.313-2.313,4.95-6.393,4.95-7.683v-0.75l-40.26-6.39c-22.17-3.51-40.44-6.36-40.62-6.36C853.38,483.6,853.23,486,853.11,491.91z" style="stroke:black;fill:#BFDAE3"/><path id="180623552" parent_id="180608862" order="79" structure_id="1" d="M848.7,458.31c0,0.15,0.27,0.96,0.63,1.86   c1.38,3.69,2.91,12.03,3.54,19.47c0.147,1.893,0.36,3.48,0.42,3.57c0.09,0.06,18.479,3.06,40.86,6.6   c33.447,5.313,40.77,6.393,40.979,6.063c0.57-0.87,2.04-6,2.97-10.17c1.143-5.19,2.73-13.59,2.61-13.71   c-0.09-0.09-91.2-13.893-91.71-13.893C848.82,458.1,848.7,458.19,848.7,458.31z" style="stroke:black;fill:#BFDAE3"/><path id="180623552" parent_id="180608862" order="80" structure_id="1" d="M846.42,447.27l-0.03,10.2l0.78,0.15   c1.771,0.36,92.34,13.979,92.94,13.979c0.357,0,0.72-0.237,0.81-0.54c0.54-1.827,3.69-22.438,3.45-22.68   c-0.09-0.09-21.603-2.58-47.82-5.58c-26.25-2.97-48.24-5.49-48.897-5.58l-1.23-0.18L846.42,447.27L846.42,447.27z" style="stroke:black;fill:#BFDAE3"/><path id="180623552" parent_id="180608862" order="81" structure_id="1" d="M891.3,361.29   c-43.05,9.24-56.25,12.18-56.34,12.51c-0.03,0.24,0.72,3.75,1.71,7.8c5.49,22.56,8.28,37.98,9.33,51.417   c0.18,2.133,0.33,3.9,0.39,3.933c0.15,0.09,96.75,10.979,97.44,10.95c0.72,0,0.81-0.12,1.11-2.04c0.18-1.11,0.657-4.86,1.077-8.313   c0.423-3.479,1.173-9.688,1.683-13.8c2.13-17.91,2.52-23.76,2.49-39.15c0-12.03-0.303-20.79-1.053-30.69   c-0.33-4.47-0.357-4.71-0.96-4.68C947.82,349.23,922.23,354.66,891.3,361.29z" style="stroke:black;fill:#BFDAE3"/><path id="180623552" parent_id="180608862" order="82" structure_id="1" d="M734.4,282.33c0,0.18,0.688,1.11,1.56,2.04   c1.53,1.68,2.61,3.6,2.64,4.62c0,0.33-0.688,1.32-1.527,2.25c-0.99,1.11-2.13,2.94-3.271,5.31c-4.529,9.33-5.04,16.35-1.92,26.34   c1.23,3.87,2.313,6.51,2.7,6.51c0.18,0,0.51-0.42,0.72-0.9c0.54-1.32,1.95-2.4,3.12-2.4c2.521,0,6.271,2.97,8.521,6.78   c4.229,7.2,14.729,27.9,16.26,32.1c1.53,4.23,1.14,6.3-2.07,11.07c-0.688,0.99-1.229,2.04-1.229,2.37c0,0.3,0.987,2.13,2.188,4.05   c12,19.02,18.063,37.47,19.71,59.877c0.393,5.37,0.393,18.69,0,24.9c-1.08,17.28-4.949,29.7-12.33,39.81   c-2.698,3.69-10.26,10.95-14.908,14.343c-2.159,1.56-3.932,3.027-3.932,3.21c-0.029,0.3,0.69,0.39,2.61,0.39   c5.91,0,10.979,1.08,15.51,3.3c5.04,2.46,8.49,5.76,10.92,10.47c2.97,5.79,3.78,9.57,3.78,17.82v6.21h0.75   c0.63-0.03,0.897-0.357,1.8-2.28c1.44-3.18,3.51-6.237,6.03-8.938c3.42-3.69,17.01-21.18,17.188-22.2c0.24-1.2,2.4-4.438,3.69-5.58   c0.54-0.479,1.319-0.897,1.71-0.897c1.35,0,9.57-11.37,13.771-19.053c5.58-10.17,9.659-23.13,11.46-36.447   c0.659-4.83,0.899-17.313,0.479-23.553c-1.17-16.647-4.71-36.06-10.53-57.6c-7.05-26.16-15.51-44.07-27.72-58.92   c-3.39-4.11-11.312-11.88-16.38-16.11c-7.41-6.15-19.771-15.72-23.55-18.21c-3.933-2.58-10.563-5.97-14.552-7.44   c-2.881-1.05-11.818-3.57-12.658-3.57C734.64,282,734.4,282.15,734.4,282.33z" style="stroke:black;fill:#BFDAE3"/><path id="180623552" parent_id="180608862" order="83" structure_id="1" d="M878.55,317.19   c-41.607,14.22-57.33,19.68-57.39,20.04c-0.03,0.27,0.72,2.07,1.71,4.05c3.6,7.23,8.28,19.74,11.13,29.73   c0.36,1.2,0.78,2.19,0.99,2.19c0.81-0.03,113.31-24.21,113.52-24.42c0.3-0.3-0.63-8.43-1.71-14.73c-1.89-11.31-4.92-22.65-9-33.84   c-0.688-1.86-1.107-2.61-1.438-2.58C936.06,297.63,910.08,306.45,878.55,317.19z" style="stroke:black;fill:#BFDAE3"/><path id="180623552" parent_id="180608862" order="84" structure_id="1" d="M789.75,209.58   c-17.49,29.1-31.92,53.19-32.07,53.52c-0.21,0.48-0.09,0.72,0.603,1.26c2.37,1.86,11.1,9.6,16.17,14.34   c8.938,8.34,17.31,17.13,23.04,24.12c7.89,9.66,16.62,22.23,21.357,30.72c1.473,2.61,1.83,3.09,2.4,3   c0.36-0.06,26.4-8.88,57.84-19.59c51.75-17.64,57.21-19.56,57.21-20.13c0-1.56-5.85-14.82-11.7-26.49   c-7.05-14.1-11.789-22.41-18.987-33.18c-20.16-30.18-48.87-58.41-79.143-77.88c-2.31-1.47-4.35-2.67-4.56-2.67   C821.73,156.63,807.24,180.45,789.75,209.58z" style="stroke:black;fill:#BFDAE3"/><path id="180623552" parent_id="180608862" order="85" structure_id="1" d="M800.88,147.06   c-2.37,4.17-56.1,105.45-56.22,105.99c-0.09,0.51,0.72,1.26,4.5,4.14c2.52,1.92,5.31,4.05,6.18,4.77c1.17,0.93,1.71,1.17,2.04,0.96   c0.54-0.36,64.021-105.9,64.021-106.47c0-0.21-1.65-1.38-3.66-2.55c-3.9-2.25-15.3-8.1-15.813-8.1   C801.75,145.8,801.3,146.37,800.88,147.06z" style="stroke:black;fill:#BFDAE3"/><path id="180623552" parent_id="180608862" order="86" structure_id="1" d="M561.09,606.63   c-2.729,0.78-6.27,4.26-6.99,6.813c-0.777,2.817-0.09,6.897,1.53,9.27c1.98,2.851,4.563,3.99,9.57,4.2   c9.66,0.42,14.7-2.67,14.7-9.03c0-2.43-0.78-3.96-3.21-6.147c-2.19-2.013-6.303-4.2-9.271-4.95   C565.38,606.27,562.59,606.21,561.09,606.63z" style="stroke:black;fill:#BFDAE3"/><path id="180623552" parent_id="180608862" order="87" structure_id="1" d="M645.45,250.2c-4.71,0.54-8.07,1.89-9.181,3.69   c-0.779,1.32-0.779,4.11,0.061,5.82c1.11,2.28,2.64,3.24,9.96,6.12c10.08,4.02,12.42,5.79,18.72,14.31   c9.603,12.99,11.973,15.81,18.271,21.96c9.6,9.33,17.67,14.85,32.97,22.59c6.63,3.36,8.94,5.07,10.05,7.35   c0.42,0.84,0.87,1.56,0.99,1.56s0.93-0.54,1.77-1.2c0.933-0.75,2.19-1.41,3.271-1.71c0.99-0.27,1.77-0.6,1.77-0.72   c0-0.12-0.39-1.14-0.867-2.25c-1.771-4.17-3.422-10.65-3.813-14.82c-0.54-6.27,3.15-16.98,7.59-21.96c1.59-1.8,1.59-2.49-0.06-4.89   c-2.07-3-3.931-4.5-8.4-6.72c-2.31-1.14-5.76-3.06-7.647-4.26c-5.131-3.24-12.69-7.5-17.49-9.9   c-13.352-6.69-29.641-12.54-40.26-14.4C659.19,250.08,649.32,249.75,645.45,250.2z" style="stroke:black;fill:#BFDAE3"/><path id="180623552" parent_id="180608862" order="88" structure_id="1" d="M748.05,126.96   c-1.2,3.24-34.95,108.51-34.95,108.96c0,0.51,0.631,0.9,3.54,2.1c7.65,3.18,16.74,8.04,23.103,12.36c2.04,1.38,3.93,2.52,4.2,2.52   c0.39,0,8.067-14.19,28.947-53.37c15.63-29.37,28.41-53.55,28.41-53.73c0-0.96-19.107-8.64-33.569-13.47   c-7.648-2.55-18.148-5.73-18.961-5.73C748.44,126.6,748.11,126.78,748.05,126.96z" style="stroke:black;fill:#BFDAE3"/><path id="180623552" parent_id="180608862" order="89" structure_id="1" d="M655.65,163.29   c-0.093,27.75-0.15,52.47-0.093,54.93l0.093,4.5l7.8,1.14c17.04,2.49,31.26,5.91,44.55,10.77c2.22,0.81,4.2,1.47,4.41,1.47   c0.18,0,0.54-0.63,0.81-1.44c3.813-11.82,33.87-105.09,34.261-106.35c0.329-1.11,0.422-1.83,0.239-2.01   c-0.147-0.15-4.26-1.29-9.12-2.52c-28.107-7.17-47.22-9.9-73.197-10.53c-3.87-0.09-7.62-0.24-8.28-0.3l-1.26-0.12L655.65,163.29z" style="stroke:black;fill:#BFDAE3"/><path id="180623552" parent_id="180608862" order="90" structure_id="1" d="M621.93,281.43   c-2.938,0.27-3.897,0.57-9.897,2.94c-16.2,6.45-28.08,13.08-33.96,18.96c-5.973,5.97-6.69,12.12-1.71,14.97   c4.5,2.55,16.02,3,23.46,0.9c6.567-1.86,17.55-6.72,26.43-11.67c7.59-4.23,12.3-8.58,14.31-13.17c0.87-1.92,0.87-4.89,0.03-6.51   c-1.35-2.52-4.229-4.62-7.89-5.67c-1.41-0.42-7.021-1.14-7.95-1.02C624.6,281.16,623.31,281.28,621.93,281.43z" style="stroke:black;fill:#BFDAE3"/><path id="180623552" parent_id="180608862" order="91" structure_id="1" d="M622.68,113.01l-3.54,0.12l0.183,1.26   c0.09,0.69,2.55,24.69,5.46,53.31c2.91,28.62,5.34,52.11,5.397,52.17c0.063,0.09,2.73,0.39,5.91,0.66c3.15,0.3,8.7,0.9,12.33,1.32   c3.6,0.42,6.6,0.75,6.66,0.69c0.03-0.06,0.15-18.66,0.24-41.34c0.12-22.68,0.27-47.37,0.357-54.84l0.15-13.56l-14.79,0.06   C632.91,112.89,624.66,112.98,622.68,113.01z" style="stroke:black;fill:#BFDAE3"/><path id="180623552" parent_id="180608862" order="92" structure_id="1111022260200000" d="M614.1,113.31c-0.897,0.03-4.407,0.21-7.8,0.39   c-14.49,0.75-24.51,2.13-31.92,4.41l-2.64,0.81l0.147,0.9c0.093,0.51,9.96,23.13,21.933,50.28l21.75,49.35l7.14,0.21   c3.93,0.09,7.17,0.15,7.17,0.15c0.03-0.03-2.398-24.06-5.398-53.4l-5.432-53.31l-1.647,0.06C616.5,113.19,615,113.25,614.1,113.31z   " style="stroke:black;fill:#1F9D5A"/><path id="180623552" parent_id="180608862" order="93" structure_id="1" d="M567.57,120.84   c-3.723,1.86-7.11,4.32-10.92,7.95c-8.343,7.89-12.69,15.36-15.393,26.31c-0.777,3.15-0.777,3.18-0.87,18.96l-0.119,15.78   l32.222,16.23c17.729,8.94,32.58,16.23,32.97,16.23s0.96-0.18,1.29-0.42c1.05-0.72,3.84-1.59,6.24-1.98   c1.92-0.33,2.34-0.48,2.22-0.87c-0.06-0.271-9.93-22.8-21.96-50.07c-16.44-37.29-21.96-49.56-22.35-49.56   C570.63,119.4,569.13,120.03,567.57,120.84z" style="stroke:black;fill:#BFDAE3"/><path id="180623552" parent_id="180608862" order="94" structure_id="1" d="M540.3,234.75V279h2.04h2.04l0.36-1.05   c0.72-1.95,3.63-3.72,6.147-3.75c1.83,0,3.183,0.57,4.2,1.8c0.78,0.9,0.93,0.96,2.07,0.78c2.068-0.33,9.12-2.82,11.729-4.11   c5.433-2.73,8.643-5.37,12.96-10.62c6.33-7.68,12.813-18.75,16.92-28.8c2.07-5.04,3.15-7.08,4.74-8.85   c0.721-0.78,1.29-1.59,1.29-1.77c0-0.36-63.33-32.13-64.05-32.13C540.36,190.5,540.3,195.6,540.3,234.75z" style="stroke:black;fill:#BFDAE3"/><path id="180623552" parent_id="180608862" order="95" structure_id="1" d="M836.28,380.37c-5.853-24.21-13.2-41.58-25.021-58.92c-3.12-4.59-9.6-13.41-12.479-16.95   c-9.54-11.82-23.94-26.13-39.15-38.91c-4.32-3.63-4.47-3.72-9.78-6.12c-23.13-10.5-58.17-20.16-85.197-23.55   c-5.25-0.63-19.143-0.9-23.28-0.45c-10.92,1.26-18.33,4.29-26.4,10.771c-1.229,0.99-4.317,3.78-6.87,6.18   c-7.947,7.53-12.51,10.92-19.59,14.58c-7.2,3.72-14.85,6.3-25.14,8.52c-2.73,0.6-6.36,1.41-8.103,1.8   c-5.265,1.23-10.252,1.845-15.27,1.845v20.812c5.602-0.079,12.102-1.026,19.47-2.857c16.95-4.23,25.353-9.18,44.73-26.34   c6.658-5.88,11.01-8.73,16.979-11.1c3.24-1.29,8.103-2.49,11.34-2.79l2.341-0.24l0.602-1.56c1.021-2.79,3.39-4.14,8.729-5.07   c4.319-0.75,15.302-0.45,20.222,0.57c16.68,3.48,37.229,12.15,55.29,23.4c2.397,1.5,6.448,3.75,9,5.04   c4.02,2.01,5.397,2.52,10.26,3.84c9.06,2.43,15.24,5.04,21.78,9.15c4.26,2.67,15,10.92,24.659,18.9   c5.368,4.41,14.278,13.32,17.818,17.73c14.25,17.88,23.4,40.29,31.53,77.37c4.08,18.54,5.91,32.973,5.938,46.83   c0.029,10.92-0.811,18.24-3.238,27.57c-3.961,15.33-9.393,26.25-19.381,39.03c-1.472,1.89-2.67,3.51-2.67,3.63   s0.271,0.81,0.601,1.5c0.42,0.81,0.569,1.53,0.42,2.04c-0.42,1.77-3.21,3.479-5.79,3.57l-1.47,0.06l-5.13,6.51   c-6.45,8.222-6.78,9.3-1.53,5.07c4.05-3.271,9.93-7.11,14.43-9.45c2.07-1.08,3.87-1.979,3.96-1.979c0.302,0,0.24,10.83-0.09,17.397   c-0.66,12.66-1.859,22.83-3.148,26.94c-1.472,4.647-5.342,9.75-9.359,12.33c-2.28,1.47-2.13,1.947,0.51,1.77   c2.642-0.21,4.8-1.26,6.99-3.42c2.01-2.01,2.88-3.6,4.35-8.07c0.66-1.979,1.893-5.22,2.762-7.197c1.381-3.24,1.528-3.75,1.351-5.07   c-0.3-2.311-0.21-12.21,0.149-16.38c0.868-10.23,2.608-23.25,3.75-28.17c1.618-6.87,3.841-12.99,6.721-18.48   c2.04-3.897,2.909-6.09,4.56-11.55c1.892-6.27,5.25-20.19,5.79-23.94c0.66-4.56,1.08-12.09,1.08-19.71   C846.3,428.01,843.84,411.75,836.28,380.37z" style="stroke:black;fill:#BFDAE3"/><path id="180623552" parent_id="180608862" order="96" structure_id="1" d="M623.55,269.55c-3.63,0.6-7.56,1.74-9.84,2.88   c-4.14,2.1-13.56,8.37-22.47,15c-2.103,1.56-6.15,4.29-9,6.12c-11.7,7.41-18.42,12.06-20.37,14.13c-1.771,1.89-2.22,2.97-2.19,5.52   c0,1.98,0.12,2.49,1.021,4.14c0.54,1.05,1.83,2.79,2.817,3.84c2.223,2.37,3.15,2.67,9.36,3.12c9.3,0.69,28.98-1.17,38.61-3.6   c7.26-1.86,14.64-5.16,21.09-9.48c4.8-3.21,7.32-5.25,10.229-8.34c10.263-10.89,13.683-20.46,9.36-26.07   c-2.16-2.82-6.87-5.64-11.521-6.84C637.47,269.13,627.66,268.89,623.55,269.55z M631.95,281.85c2.76,0.75,5.52,2.19,6.93,3.6   c1.95,1.95,2.37,2.94,2.37,5.55c-0.03,1.95-0.15,2.49-0.96,4.05c-1.95,3.72-6.45,8.13-11.19,10.92   c-9.96,5.88-23.34,11.85-30.81,13.74c-3,0.78-3.66,0.84-9.24,0.84c-6.51-0.03-8.607-0.36-11.85-1.83c-2.94-1.35-4.2-3.12-4.2-5.94   c0-5.19,5.31-11.13,15.36-17.19c7.38-4.47,26.188-12.9,30.897-13.86c0.87-0.18,1.86-0.39,2.19-0.45   C622.77,280.95,630.21,281.37,631.95,281.85z" style="stroke:black;fill:#BFDAE3"/><path id="180623552" parent_id="180608862" order="97" structure_id="1" d="M668.85,489.51   c-1.857,1.65-6.567,5.16-10.05,7.5c-8.46,5.67-18.87,10.74-28.26,13.8l-3.48,1.143l-0.63,2.607c-2.25,9.66-8.46,16.683-17.76,20.07   c-5.189,1.89-13.86,3.57-18.36,3.57c-2.46,0-5.55-0.69-7.438-1.62c-0.84-0.45-1.65-0.78-1.8-0.78c-0.15,0-0.271,0.45-0.271,0.99   c0,1.29-1.5,4.229-2.938,5.7c-1.563,1.62-3.631,3-9.21,6.06c-6.513,3.57-7.771,4.41-10.171,6.72   c-2.762,2.673-4.382,4.98-6.449,9.393c-1.95,4.05-2.94,7.318-4.051,13.438c-1.802,9.78-1.949,11.91-2.159,26.881l-0.183,14.069   l1.08,1.65c0.603,0.897,1.71,3.12,2.49,4.95c1.979,4.647,6,12.6,6.9,13.68c1.947,2.28,7.08,5.16,11.34,6.33   c2.04,0.54,3.18,0.63,7.8,0.63c5.01,0,5.82-0.06,11.25-1.11c10.71-2.067,12.78-2.34,16.5-2.22c3.78,0.12,5.61,0.69,7.32,2.28   c0.96,0.93,2.277,3.479,2.277,4.47c0,0.96,0.9,0.9,3.843-0.21l2.367-0.93l3.093-5.103c11.938-19.8,21.657-31.107,31.26-36.39   c1.95-1.08,5.91-2.58,6.81-2.58c0.271,0,1.021-0.3,1.683-0.63c1.527-0.84,3.63-1.38,6.119-1.65c3.721-0.357,5.818,0.813,6.181,3.42   c0.18,1.32,0.3,1.5,1.5,2.13c1.648,0.87,2.79,2.49,3.03,4.29c0.147,1.171,0.06,1.71-0.69,3.303c-0.51,1.05-1.47,2.52-2.16,3.3   l-1.229,1.38l0.147,2.67c0.271,3.93,0.45,5.19,0.813,5.19c0.18,0,0.96-0.48,1.739-1.053c2.101-1.527,2.971-1.619,4.289-0.447   c0.602,0.51,2.58,3,4.409,5.487c3.69,5.103,8.28,10.71,8.73,10.71c0.479,0,3.87-3.027,3.87-3.447c0-0.212-0.21-0.54-0.48-0.78   c-1.438-1.17-3-6.3-2.67-8.67c0.18-1.262,1.2-3.78,1.98-4.83c0.3-0.392,0.147-0.78-0.842-2.103   c-4.711-6.3-9.391-17.22-11.101-25.92c-0.84-4.26-0.75-16.14,0.15-21.027c0.777-4.29,1.857-8.103,3.06-10.98   c1.92-4.53,6.24-9.99,9.271-11.79c0.841-0.51,1.528-1.107,1.528-1.35c0-0.3-0.84-0.75-2.488-1.32   c-1.352-0.45-3.932-1.56-5.762-2.43c-1.857-0.9-3.96-1.683-4.8-1.8c-7.05-0.99-12.78-3.632-15.87-7.353   c-0.688-0.84-1.2-1.107-2.67-1.41c-4.26-0.869-7.89-3.479-9.568-6.93c-0.899-1.771-0.989-2.31-1.08-5.04   c-0.119-3.6,0.421-6.96,1.921-11.61c2.277-7.02,6.27-15.327,10.829-22.5c0.721-1.107,1.29-2.22,1.29-2.46   C671.1,488.1,670.11,488.37,668.85,489.51z M611.88,539.07c2.04,0.93,3.51,2.188,4.44,3.93c0.75,1.38,0.87,2.01,1.107,5.49   c0.12,2.188,0.24,6.24,0.271,9c0,10.17-1.26,16.14-3.84,17.76c-0.513,0.33-0.933,0.78-0.961,0.99c0,0.21,0.448,1.29,1.021,2.397   c5.01,10.021,4.53,20.7-1.32,27.78c-2.97,3.6-5.67,4.74-10.947,4.74c-3,0-5.103-0.3-9.96-1.47c-1.053-0.24-0.87,0.538,0.39,1.737   c1.71,1.59,3.84,5.07,4.62,7.44c0.54,1.74,0.66,2.58,0.54,4.8c-0.12,2.34-0.271,2.97-1.23,4.89c-2.04,4.173-6.567,7.383-12,8.521   c-5.67,1.2-13.95,0.12-19.26-2.55c-6.84-3.42-13.11-9.57-14.88-14.58c-0.813-2.28-1.05-5.521-0.603-7.74   c0.54-2.58,2.19-5.61,3.933-7.229c2.79-2.61,8.85-4.771,14.46-5.19c2.88-0.21,3.39-0.6,1.53-1.26   c-2.461-0.841-6.271-3.24-8.461-5.313c-3.899-3.688-5.699-7.528-5.729-12.18c-0.03-8.851,5.7-18.96,13.2-23.34   c5.28-3.091,15.42-7.5,19.95-8.67c5.1-1.353,9.84-0.99,13.8,1.02c1.17,0.57,2.188,1.05,2.31,1.05c0.091,0,0.183-1.617,0.21-3.6   c0-5.4,0.813-8.28,2.521-9C607.92,538.08,610.26,538.35,611.88,539.07z M662.82,586.92c3.237,1.59,2.91,4.83-0.723,7.021   c-1.92,1.14-6.27,2.607-9.09,3.06c-5.817,0.93-9.27-3.15-5.7-6.72C650.58,587.01,659.19,585.15,662.82,586.92z" style="stroke:black;fill:#BFDAE3"/><path id="180623552" parent_id="180608862" order="98" structure_id="1" d="M623.55,269.55c-3.63,0.6-7.56,1.74-9.84,2.88   c-4.14,2.1-13.56,8.37-22.47,15c-2.103,1.56-6.15,4.29-9,6.12c-11.7,7.41-18.42,12.06-20.37,14.13c-1.771,1.89-2.22,2.97-2.19,5.52   c0,1.98,0.12,2.49,1.021,4.14c0.54,1.05,1.83,2.79,2.817,3.84c2.223,2.37,3.15,2.67,9.36,3.12c9.3,0.69,28.98-1.17,38.61-3.6   c7.26-1.86,14.64-5.16,21.09-9.48c4.8-3.21,7.32-5.25,10.229-8.34c10.263-10.89,13.683-20.46,9.36-26.07   c-2.16-2.82-6.87-5.64-11.521-6.84C637.47,269.13,627.66,268.89,623.55,269.55z M631.95,281.85c2.76,0.75,5.52,2.19,6.93,3.6   c1.95,1.95,2.37,2.94,2.37,5.55c-0.03,1.95-0.15,2.49-0.96,4.05c-1.95,3.72-6.45,8.13-11.19,10.92   c-9.96,5.88-23.34,11.85-30.81,13.74c-3,0.78-3.66,0.84-9.24,0.84c-6.51-0.03-8.607-0.36-11.85-1.83c-2.94-1.35-4.2-3.12-4.2-5.94   c0-5.19,5.31-11.13,15.36-17.19c7.38-4.47,26.188-12.9,30.897-13.86c0.87-0.18,1.86-0.39,2.19-0.45   C622.77,280.95,630.21,281.37,631.95,281.85z" style="stroke:black;fill:#BFDAE3"/><path id="180623552" parent_id="180608862" order="99" structure_id="1" d="M724.59,330.24c-1.979-1.89-3.75-2.97-10.77-6.48c-7.053-3.54-9.96-5.19-15.271-8.79   c-8.607-5.82-16.5-12.93-23.67-21.39c-1.77-2.1-3.3-4.08-10.438-13.68c-3.9-5.25-6.69-8.07-9.9-9.93c-1.2-0.72-4.92-2.4-8.22-3.75   c-3.33-1.32-6.513-2.729-7.052-3.12c-2.368-1.62-3.538-3.18-4.021-5.34c-0.24-1.14-0.24-1.14-4.53-0.51   c-4.68,0.72-8.79,2.04-13.47,4.35c-4.89,2.43-7.74,4.47-14.25,10.32c-11.49,10.29-21.78,17.58-29.1,20.61   c-1.171,0.48-2.49,1.47-4.41,3.3c-6.933,6.57-12.69,8.64-18.75,6.69c-0.96-0.3-1.771-0.87-2.46-1.65l-1.021-1.2l-3.12,0.36   c-1.202,0.138-2.637,0.198-4.14,0.194v14.697c2.015,0.018,3.97-0.11,5.16-0.401c0.81-0.18,0.84-0.15,0.66,0.69l-0.183,0.87h2.853   c2.817-0.03,2.817-0.03,4.59,1.17c0.96,0.66,3.688,3.06,6.03,5.34c6.987,6.75,11.697,9.27,22.737,12.3   c6.66,1.83,10.92,2.55,17.103,2.91c3.147,0.18,6.84,0.45,8.25,0.6c4.438,0.54,7.5,1.53,7.5,2.43c0,0.18,0.239,0.27,0.54,0.18   c4.17-1.32,8.16-1.83,18.06-2.34c10.11-0.51,13.38-0.15,14.7,1.53c0.3,0.42,1.229,0.72,3,1.05c4.08,0.75,10.14,2.43,13.05,3.6   c3.24,1.29,5.88,2.82,8.82,5.1c1.2,0.93,2.49,1.8,2.85,1.95c2.222,0.84,15.181,1.44,20.61,0.96c5.67-0.51,9.148-2.01,17.34-7.38   c8.88-5.82,12.12-8.49,12.63-10.41C726.78,333.3,726.27,331.89,724.59,330.24z M653.19,287.43c-1.683,4.89-5.4,10.35-10.71,15.84   c-8.91,9.15-22.5,16.2-35.94,18.63c-11.49,2.07-28.8,3.27-35.67,2.46c-3.93-0.48-5.22-0.99-7.11-2.85   c-3.72-3.66-5.188-7.92-3.84-11.16c0.6-1.41,0.6-1.65,0.03-1.65c-0.271,0,0.93-0.96,2.607-2.1c1.711-1.17,4.65-3.21,6.54-4.53   c1.893-1.32,6.75-4.53,10.803-7.08c4.05-2.58,9.657-6.36,12.447-8.46c6.063-4.47,15.75-11.01,19.5-13.14   c3.42-1.92,6.183-2.91,10.263-3.66c5.067-0.96,9.777-1.17,14.188-0.63c5.521,0.69,10.29,2.58,13.86,5.55   C654.12,277.92,655.11,281.97,653.19,287.43z" style="stroke:black;fill:#BFDAE3"/><path id="180623552" parent_id="180608862" order="100" structure_id="1" d="M633.45,339.03   c-6.78,0.36-13.681,1.08-15.9,1.65c-3.09,0.81-4.08,1.59-6.78,5.4c-2.85,3.99-5.13,6.24-7.947,7.8c-2.25,1.26-2.103,0.69-1.32,5.22   c0.87,4.86-0.57,8.64-6.3,16.59c-0.933,1.29-1.05,1.71-1.143,3.69c-0.117,1.95-0.027,2.43,0.66,3.87c1.32,2.67,3.9,4.32,6.87,4.35   c1.98,0,3-0.51,6.57-3.24c4.71-3.66,7.02-5.91,13.62-13.41c7.47-8.52,7.949-9.03,13.317-14.13c7.65-7.29,12.24-12.57,12.78-14.7   c0.57-2.25-0.99-3.09-6-3.27C640.05,338.79,636.27,338.88,633.45,339.03z" style="stroke:black;fill:#BFDAE3"/><path id="180623552" parent_id="180608862" order="101" structure_id="1" d="M724.59,330.24c-1.979-1.89-3.75-2.97-10.77-6.48c-7.053-3.54-9.96-5.19-15.271-8.79   c-8.607-5.82-16.5-12.93-23.67-21.39c-1.77-2.1-3.3-4.08-10.438-13.68c-3.9-5.25-6.69-8.07-9.9-9.93c-1.2-0.72-4.92-2.4-8.22-3.75   c-3.33-1.32-6.513-2.729-7.052-3.12c-2.368-1.62-3.538-3.18-4.021-5.34c-0.24-1.14-0.24-1.14-4.53-0.51   c-4.68,0.72-8.79,2.04-13.47,4.35c-4.89,2.43-7.74,4.47-14.25,10.32c-11.49,10.29-21.78,17.58-29.1,20.61   c-1.171,0.48-2.49,1.47-4.41,3.3c-6.933,6.57-12.69,8.64-18.75,6.69c-0.96-0.3-1.771-0.87-2.46-1.65l-1.021-1.2l-3.12,0.36   c-1.202,0.138-2.637,0.198-4.14,0.194v14.697c2.015,0.018,3.97-0.11,5.16-0.401c0.81-0.18,0.84-0.15,0.66,0.69l-0.183,0.87h2.853   c2.817-0.03,2.817-0.03,4.59,1.17c0.96,0.66,3.688,3.06,6.03,5.34c6.987,6.75,11.697,9.27,22.737,12.3   c6.66,1.83,10.92,2.55,17.103,2.91c3.147,0.18,6.84,0.45,8.25,0.6c4.438,0.54,7.5,1.53,7.5,2.43c0,0.18,0.239,0.27,0.54,0.18   c4.17-1.32,8.16-1.83,18.06-2.34c10.11-0.51,13.38-0.15,14.7,1.53c0.3,0.42,1.229,0.72,3,1.05c4.08,0.75,10.14,2.43,13.05,3.6   c3.24,1.29,5.88,2.82,8.82,5.1c1.2,0.93,2.49,1.8,2.85,1.95c2.222,0.84,15.181,1.44,20.61,0.96c5.67-0.51,9.148-2.01,17.34-7.38   c8.88-5.82,12.12-8.49,12.63-10.41C726.78,333.3,726.27,331.89,724.59,330.24z M653.19,287.43c-1.683,4.89-5.4,10.35-10.71,15.84   c-8.91,9.15-22.5,16.2-35.94,18.63c-11.49,2.07-28.8,3.27-35.67,2.46c-3.93-0.48-5.22-0.99-7.11-2.85   c-3.72-3.66-5.188-7.92-3.84-11.16c0.6-1.41,0.6-1.65,0.03-1.65c-0.271,0,0.93-0.96,2.607-2.1c1.711-1.17,4.65-3.21,6.54-4.53   c1.893-1.32,6.75-4.53,10.803-7.08c4.05-2.58,9.657-6.36,12.447-8.46c6.063-4.47,15.75-11.01,19.5-13.14   c3.42-1.92,6.183-2.91,10.263-3.66c5.067-0.96,9.777-1.17,14.188-0.63c5.521,0.69,10.29,2.58,13.86,5.55   C654.12,277.92,655.11,281.97,653.19,287.43z" style="stroke:black;fill:#BFDAE3"/><path id="180623552" parent_id="180608862" order="102" structure_id="1" d="M557.58,377.55c-0.12-0.57-0.63-1.53-1.14-2.1c-1.29-1.47-2.313-1.41-4.593,0.33   c-2.25,1.71-6.479,3.78-9.51,4.65l-2.34,0.69v38.505c0.301-0.005,0.587,0,0.9-0.015c5.188-0.21,8.039-1.53,10.527-4.803   c2.13-2.85,2.88-6.118,3.271-14.157c0.21-5.07,0.39-6.3,1.528-11.25C557.49,383.88,557.97,379.65,557.58,377.55z" style="stroke:black;fill:#BFDAE3"/><path id="180623552" parent_id="180608862" order="103" structure_id="1" d="M582,390.45c-8.43,1.35-18.03,4.95-22.11,8.22   c-3.479,2.79-5.01,5.7-5.01,9.48c-0.03,5.367,2.91,7.947,9.063,7.947c8.13,0,17.34-3.987,24.147-10.5   c4.29-4.05,6.21-7.38,6.21-10.68c0-2.19-0.567-3.21-2.28-4.05C590.22,390.03,585.78,389.82,582,390.45z" style="stroke:black;fill:#BFDAE3"/><path id="180623552" parent_id="180608862" order="104" structure_id="1" d="M557.55,372.75   c-0.99,0.42-1.83,0.75-1.857,0.75c-0.33,0,0,1.17,0.357,1.32c0.271,0.09,0.813,0.87,1.2,1.74c0.99,2.13,0.96,3.87-0.18,9.24   c-0.48,2.4-1.17,5.55-1.473,7.05c-0.688,3.36-1.02,11.25-0.479,11.25c0.21,0,0.6-0.479,0.87-1.08c0.3-0.567,1.17-1.737,1.95-2.577   c2.789-3,7.077-5.313,13.947-7.59c11.16-3.66,19.95-3.93,21.78-0.69c0.9,1.59,1.35,1.11,2.25-2.61l0.84-3.45l-0.81-0.93   c-1.353-1.65-2.04-3.3-2.19-5.46c-0.09-1.11-0.239-2.01-0.357-2.01c-0.12,0-0.66,0.24-1.23,0.51c-1.59,0.81-5.22,0.66-8.31-0.33   c-3.66-1.2-7.08-1.86-13.11-2.58c-6.6-0.78-7.2-0.93-9.12-2.25c-0.84-0.57-1.68-1.05-1.89-1.05S558.54,372.36,557.55,372.75z" style="stroke:black;fill:#BFDAE3"/><path id="180623552" parent_id="180608862" order="105" structure_id="1" d="M642.9,349.08c-0.9,1.05-4.53,4.74-8.07,8.16   c-3.69,3.57-9,9.15-12.48,13.11c-6.897,7.86-10.08,10.98-14.607,14.37l-3.15,2.4l-0.21,2.04c-0.18,2.01-0.18,2.04,1.29,4.71   c2.313,4.17,5.49,10.62,7.23,14.729c0.867,2.07,1.647,3.813,1.71,3.87c0.147,0.21,1.47-0.567,5.43-3.18   c11.16-7.35,18.78-15.57,24.33-26.25c3.359-6.42,4.83-11.49,4.83-16.56c0-2.58-0.15-3.3-1.38-7.14   c-1.53-4.8-2.521-9.06-2.521-10.98c0-0.81-0.12-1.26-0.357-1.23C644.73,347.13,643.8,348,642.9,349.08z" style="stroke:black;fill:#BFDAE3"/><path id="180623552" parent_id="180608862" order="106" structure_id="1" d="M612.12,648.33c-0.603-2.04-2.43-3.93-4.5-4.65c-3.54-1.229-7.26-0.987-18.78,1.17   c-3.897,0.723-8.58,1.473-10.38,1.65c-6.54,0.6-13.11-0.72-17.79-3.6c-2.34-1.44-3.03-1.143-1.62,0.72   c1.26,1.647,1.74,3.42,1.353,4.979c-0.42,1.62-1.5,3.12-2.7,3.75c-1.05,0.54-3.87,0.57-8.07,0.12l-3.03-0.33l-0.777,0.96   c-0.99,1.17-3.303,2.343-5.04,2.58c-0.256,0.038-0.519,0.06-0.78,0.062v5.613c1.685-0.005,3.357-0.766,5.85-2.282   c2.973-1.771,3.03-1.803,4.803-1.65c0.987,0.09,5.85,0.24,10.8,0.36c19.14,0.42,31.979-1.11,47.04-5.643   C613.05,650.79,612.9,650.94,612.12,648.33z" style="stroke:black;fill:#BFDAE3"/><path id="180623552" parent_id="180608862" order="107" structure_id="1" d="M645.78,346.08   c-0.33,0.87-0.183,4.32,0.3,6.66c0.24,1.26,1.08,4.2,1.86,6.51c1.35,4.02,1.407,4.35,1.38,7.5c-0.03,4.8-1.263,9.09-4.473,15.48   c-3.09,6.18-6.447,10.95-11.04,15.78c-4.47,4.65-10.5,9.45-16.56,13.143c-1.32,0.81-2.43,1.5-2.49,1.527   c-0.06,0.03,0.393,1.62,0.96,3.54c1.23,3.99,2.16,8.37,2.46,11.49c0.15,1.56,0.33,2.19,0.603,2.19c0.239,0,3.239-2.343,6.66-5.19   c3.42-2.85,7.71-6.39,9.51-7.86c7.8-6.329,14.58-12.777,18.897-18c2.672-3.208,5.91-8.069,7.5-11.25   c1.473-2.91,4.95-11.16,7.803-18.45c1.857-4.8,4.947-13.47,4.947-13.95c0-1.05-18.6-8.04-24.27-9.12   C646.71,345.48,646.02,345.48,645.78,346.08z" style="stroke:black;fill:#BFDAE3"/><path id="180623552" parent_id="180608862" order="108" structure_id="1" d="M547.05,316.17   c-2.52,0.66-5.46,2.88-6.479,4.92c-0.54,1.02-0.57,1.32-0.271,2.82c0.42,2.01,0.813,2.91,2.91,7.14c4.53,9,11.22,18.42,15.93,22.47   c2.13,1.8,5.28,3.36,8.013,3.93c1.17,0.24,4.38,0.57,7.17,0.72c12.51,0.75,23.46-1.29,29.938-5.58c2.313-1.53,3.721-3.03,6.42-6.87   c1.051-1.53,2.313-3.09,2.82-3.51c1.89-1.62,0.78-2.52-4.14-3.36c-2.58-0.42-10.71-1.05-13.803-1.05c-1.619,0-1.619,0-1.407,0.81   c0.51,2.07,0.479,3.54-0.15,4.53c-2.01,3.24-9.69,5.07-14.82,3.54c-2.46-0.72-5.97-2.52-8.188-4.23   c-5.13-3.84-11.762-12.63-16.44-21.78c-1.47-2.88-2.1-3.84-2.76-4.14C550.74,316.05,548.22,315.84,547.05,316.17z" style="stroke:black;fill:#BFDAE3"/><path id="180623552" parent_id="180608862" order="109" structure_id="1" d="M553.8,318.84c0,0.75,3.24,6.51,6.15,10.86   c2.76,4.17,7.38,9.69,9.63,11.58c6.06,5.01,11.85,6.72,18.21,5.37c5.34-1.11,7.89-4.32,6.24-7.74c-0.66-1.35-0.66-1.35-2.82-1.71   c-6.33-1.08-15.72-3.87-20.55-6.15c-4.26-2.01-6.69-3.81-11.58-8.46c-2.43-2.37-4.62-4.29-4.86-4.29   C553.98,318.3,553.8,318.54,553.8,318.84z" style="stroke:black;fill:#BFDAE3"/><path id="180623552" parent_id="180608862" order="110" structure_id="1" d="M561.9,357.48c-0.33-1.5-1.11-2.31-4.353-4.44c-4.59-3.06-8.817-4.95-12.81-5.79   c-1.146-0.244-2.956-0.379-4.74-0.398v28.662c0.627,0.002,1.246-0.149,2.43-0.514c2.763-0.81,8.82-3.69,11.553-5.46   C559.2,366.15,562.68,360.87,561.9,357.48z" style="stroke:black;fill:#BFDAE3"/><path id="180623552" parent_id="180608862" order="111" structure_id="1" d="M724.59,330.24c-1.979-1.89-3.75-2.97-10.77-6.48c-7.053-3.54-9.96-5.19-15.271-8.79   c-8.607-5.82-16.5-12.93-23.67-21.39c-1.77-2.1-3.3-4.08-10.438-13.68c-3.9-5.25-6.69-8.07-9.9-9.93c-1.2-0.72-4.92-2.4-8.22-3.75   c-3.33-1.32-6.513-2.729-7.052-3.12c-2.368-1.62-3.538-3.18-4.021-5.34c-0.24-1.14-0.24-1.14-4.53-0.51   c-4.68,0.72-8.79,2.04-13.47,4.35c-4.89,2.43-7.74,4.47-14.25,10.32c-11.49,10.29-21.78,17.58-29.1,20.61   c-1.171,0.48-2.49,1.47-4.41,3.3c-6.933,6.57-12.69,8.64-18.75,6.69c-0.96-0.3-1.771-0.87-2.46-1.65l-1.021-1.2l-3.12,0.36   c-1.202,0.138-2.637,0.198-4.14,0.194v14.697c2.015,0.018,3.97-0.11,5.16-0.401c0.81-0.18,0.84-0.15,0.66,0.69l-0.183,0.87h2.853   c2.817-0.03,2.817-0.03,4.59,1.17c0.96,0.66,3.688,3.06,6.03,5.34c6.987,6.75,11.697,9.27,22.737,12.3   c6.66,1.83,10.92,2.55,17.103,2.91c3.147,0.18,6.84,0.45,8.25,0.6c4.438,0.54,7.5,1.53,7.5,2.43c0,0.18,0.239,0.27,0.54,0.18   c4.17-1.32,8.16-1.83,18.06-2.34c10.11-0.51,13.38-0.15,14.7,1.53c0.3,0.42,1.229,0.72,3,1.05c4.08,0.75,10.14,2.43,13.05,3.6   c3.24,1.29,5.88,2.82,8.82,5.1c1.2,0.93,2.49,1.8,2.85,1.95c2.222,0.84,15.181,1.44,20.61,0.96c5.67-0.51,9.148-2.01,17.34-7.38   c8.88-5.82,12.12-8.49,12.63-10.41C726.78,333.3,726.27,331.89,724.59,330.24z M653.19,287.43c-1.683,4.89-5.4,10.35-10.71,15.84   c-8.91,9.15-22.5,16.2-35.94,18.63c-11.49,2.07-28.8,3.27-35.67,2.46c-3.93-0.48-5.22-0.99-7.11-2.85   c-3.72-3.66-5.188-7.92-3.84-11.16c0.6-1.41,0.6-1.65,0.03-1.65c-0.271,0,0.93-0.96,2.607-2.1c1.711-1.17,4.65-3.21,6.54-4.53   c1.893-1.32,6.75-4.53,10.803-7.08c4.05-2.58,9.657-6.36,12.447-8.46c6.063-4.47,15.75-11.01,19.5-13.14   c3.42-1.92,6.183-2.91,10.263-3.66c5.067-0.96,9.777-1.17,14.188-0.63c5.521,0.69,10.29,2.58,13.86,5.55   C654.12,277.92,655.11,281.97,653.19,287.43z" style="stroke:black;fill:#BFDAE3"/><path id="180623552" parent_id="180608862" order="112" structure_id="1" d="M836.28,380.37c-5.853-24.21-13.2-41.58-25.021-58.92c-3.12-4.59-9.6-13.41-12.479-16.95   c-9.54-11.82-23.94-26.13-39.15-38.91c-4.32-3.63-4.47-3.72-9.78-6.12c-23.13-10.5-58.17-20.16-85.197-23.55   c-5.25-0.63-19.143-0.9-23.28-0.45c-10.92,1.26-18.33,4.29-26.4,10.771c-1.229,0.99-4.317,3.78-6.87,6.18   c-7.947,7.53-12.51,10.92-19.59,14.58c-7.2,3.72-14.85,6.3-25.14,8.52c-2.73,0.6-6.36,1.41-8.103,1.8   c-5.265,1.23-10.252,1.845-15.27,1.845v20.812c5.602-0.079,12.102-1.026,19.47-2.857c16.95-4.23,25.353-9.18,44.73-26.34   c6.658-5.88,11.01-8.73,16.979-11.1c3.24-1.29,8.103-2.49,11.34-2.79l2.341-0.24l0.602-1.56c1.021-2.79,3.39-4.14,8.729-5.07   c4.319-0.75,15.302-0.45,20.222,0.57c16.68,3.48,37.229,12.15,55.29,23.4c2.397,1.5,6.448,3.75,9,5.04   c4.02,2.01,5.397,2.52,10.26,3.84c9.06,2.43,15.24,5.04,21.78,9.15c4.26,2.67,15,10.92,24.659,18.9   c5.368,4.41,14.278,13.32,17.818,17.73c14.25,17.88,23.4,40.29,31.53,77.37c4.08,18.54,5.91,32.973,5.938,46.83   c0.029,10.92-0.811,18.24-3.238,27.57c-3.961,15.33-9.393,26.25-19.381,39.03c-1.472,1.89-2.67,3.51-2.67,3.63   s0.271,0.81,0.601,1.5c0.42,0.81,0.569,1.53,0.42,2.04c-0.42,1.77-3.21,3.479-5.79,3.57l-1.47,0.06l-5.13,6.51   c-6.45,8.222-6.78,9.3-1.53,5.07c4.05-3.271,9.93-7.11,14.43-9.45c2.07-1.08,3.87-1.979,3.96-1.979c0.302,0,0.24,10.83-0.09,17.397   c-0.66,12.66-1.859,22.83-3.148,26.94c-1.472,4.647-5.342,9.75-9.359,12.33c-2.28,1.47-2.13,1.947,0.51,1.77   c2.642-0.21,4.8-1.26,6.99-3.42c2.01-2.01,2.88-3.6,4.35-8.07c0.66-1.979,1.893-5.22,2.762-7.197c1.381-3.24,1.528-3.75,1.351-5.07   c-0.3-2.311-0.21-12.21,0.149-16.38c0.868-10.23,2.608-23.25,3.75-28.17c1.618-6.87,3.841-12.99,6.721-18.48   c2.04-3.897,2.909-6.09,4.56-11.55c1.892-6.27,5.25-20.19,5.79-23.94c0.66-4.56,1.08-12.09,1.08-19.71   C846.3,428.01,843.84,411.75,836.28,380.37z" style="stroke:black;fill:#BFDAE3"/><path id="180623552" parent_id="180608862" order="113" structure_id="1" d="M541.56,618.81l-0.688,0.15l0.09,9.93l0.09,9.96   l1.08,2.25c1.71,3.54,2.16,5.223,1.98,7.143c-0.092,0.96-0.24,1.979-0.36,2.34c-0.18,0.54-0.03,0.689,1.11,0.99   c2.25,0.6,5.37,0.93,9.12,0.93c3.3,0,3.72-0.06,4.47-0.66c1.107-0.87,1.95-2.79,1.95-4.438c0-1.473-0.183-1.802-3.69-7.021   c-2.13-3.147-4.83-8.397-7.41-14.43c-1.528-3.57-2.22-4.771-3.3-5.91C544.56,618.54,543.9,618.36,541.56,618.81z" style="stroke:black;fill:#BFDAE3"/><path id="180623552" parent_id="180608862" order="114" structure_id="1" d="M829.68,515.37   c-0.237,0.36-1.56,5.76-2.1,8.58c-0.54,2.79-2.01,14.28-2.76,21.6c-0.75,7.143-0.75,18.48-0.03,22.353   c0.99,5.31,2.16,7.979,4.53,10.35c1.77,1.771,3.09,2.46,5.607,2.91c2.13,0.42,5.25,0,7.95-0.99c5.34-1.979,9.36-10.53,10.65-22.62   c0.72-6.78-0.3-11.607-4.473-21c-1.35-3.09-6.447-13.95-7.17-15.3c-1.197-2.25-4.107-4.47-7.229-5.521   C832.8,515.1,829.98,514.89,829.68,515.37z" style="stroke:black;fill:#BFDAE3"/><path id="180623552" parent_id="180608862" order="115" structure_id="1" d="M586.95,512.04   c-1.143,0.57-3.271,1.32-4.71,1.68l-2.643,0.63v0.99c0,3.391-4.47,6.51-12,8.43c-1.408,0.36-2.277,0.723-2.34,1.021   c-0.12,0.54,0.42,0.78,3.09,1.29c1.17,0.24,2.91,0.81,3.9,1.32c2.67,1.317,6.21,4.229,7.47,6.117c1.32,2.013,2.13,2.643,4.32,3.54   c1.56,0.633,2.188,0.69,6.96,0.66c4.56,0,5.76-0.09,9.09-0.81c9.69-2.07,14.853-4.591,19.59-9.603c2.25-2.34,3.842-4.77,5.103-7.8   c0.75-1.74,1.92-5.88,1.92-6.72c0-0.57-0.72-0.51-4.71,0.479c-1.95,0.48-4.26,0.961-5.103,1.08l-1.59,0.21v1.171   c0,2.489-1.77,4.562-5.397,6.359c-5.79,2.852-11.94-0.81-9.48-5.64c0.42-0.841,0.78-1.591,0.78-1.683c0-0.09-1.8-0.27-3.96-0.357   c-5.7-0.3-7.44-0.932-7.44-2.76C589.8,510.72,589.56,510.75,586.95,512.04z" style="stroke:black;fill:#BFDAE3"/><path id="180623552" parent_id="180608862" order="116" structure_id="1" d="M612.12,648.33c-0.603-2.04-2.43-3.93-4.5-4.65c-3.54-1.229-7.26-0.987-18.78,1.17   c-3.897,0.723-8.58,1.473-10.38,1.65c-6.54,0.6-13.11-0.72-17.79-3.6c-2.34-1.44-3.03-1.143-1.62,0.72   c1.26,1.647,1.74,3.42,1.353,4.979c-0.42,1.62-1.5,3.12-2.7,3.75c-1.05,0.54-3.87,0.57-8.07,0.12l-3.03-0.33l-0.777,0.96   c-0.99,1.17-3.303,2.343-5.04,2.58c-0.256,0.038-0.519,0.06-0.78,0.062v5.613c1.685-0.005,3.357-0.766,5.85-2.282   c2.973-1.771,3.03-1.803,4.803-1.65c0.987,0.09,5.85,0.24,10.8,0.36c19.14,0.42,31.979-1.11,47.04-5.643   C613.05,650.79,612.9,650.94,612.12,648.33z" style="stroke:black;fill:#BFDAE3"/><path id="180623552" parent_id="180608862" order="117" structure_id="1" d="M593.4,454.38   c-3.093,0.66-5.521,2.07-8.28,4.771c-2.97,2.938-4.14,5.13-4.17,7.68c0,1.438,0.147,1.92,0.897,3   c2.67,3.75,8.521,4.26,16.593,1.438c1.438-0.51,3.27-1.26,4.077-1.68c1.86-0.93,4.2-3.12,5.223-4.89c0.72-1.17,0.81-1.683,0.81-3.9   c0-3.03-0.6-4.26-2.52-5.34C603.42,453.99,597.51,453.48,593.4,454.38z" style="stroke:black;fill:#BFDAE3"/><path id="180623552" parent_id="180608862" order="118" structure_id="1" d="M606.36,538.95   c-1.263,0.897-1.71,3.357-1.71,9.147c0.027,7.2,1.17,19.92,2.13,23.07c0.479,1.68,1.83,3.42,3.147,4.11   c1.11,0.567,3.271,0.54,4.11-0.063c0.96-0.66,2.01-2.88,2.64-5.67c0.512-2.1,0.57-3.688,0.57-13.2c0-8.04-0.12-11.158-0.42-12.147   c-0.51-1.83-3.24-4.5-5.28-5.19C609.72,538.38,607.26,538.35,606.36,538.95z" style="stroke:black;fill:#BFDAE3"/><path id="180623552" parent_id="180608862" order="119" structure_id="1" d="M571.35,490.8c-1.92-10.5-2.67-13.979-3.119-14.43c-0.688-0.69-18.028-10.771-18.511-10.771   c-0.54,0-0.51,0.69,0.063,2.553c0.27,0.81,0.479,2.58,0.479,3.93c0.03,1.979-0.12,2.7-0.72,4.05c-0.96,2.04-3.18,4.23-5.34,5.313   c-1.41,0.688-2.04,0.81-4.2,0.81v24.45c1.68,0,3.479,0.84,9.3,4.318c7.05,4.229,10.38,5.642,14.25,6.029   c3.36,0.36,8.49-1.26,9.63-3.029C574.2,512.49,573.36,501.96,571.35,490.8z" style="stroke:black;fill:#BFDAE3"/></g></g></svg>
