<svg xmlns="http://www.w3.org/2000/svg" width="3024px" height="3024px"><g transform="scale(1.0)"><g id="180608862" order="1" parent_id="" graphic_group_label_id="28" graphic_group_label="Atlas - Adult Rat" sub_image_id="100960468" transform=" scale(1.0, 1.0)"><path id="180623552" parent_id="180608862" order="0" structure_id="1" d="M932.82,354.3c-1.41-6.27-2.07-8.61-5.25-18.6c-1.5-4.71-3.304-10.38-4.021-12.6   c-4.53-14.34-16.95-39.75-31.83-65.13c-16.5-28.229-28.71-44.79-44.938-61.05c-8.91-8.91-16.17-15.15-26.13-22.47   c-12.271-8.97-32.104-20.94-47.73-28.74c-26.85-13.41-56.04-21.3-85.17-23.01c-28.38-1.65-55.56,4.229-76.2,16.5   c-13.56,8.1-24.42,19.44-27.567,28.86c-1.439,4.23-0.899,9.57,1.737,17.52c2.61,7.8,5.974,14.28,9.42,18.09   c5.04,5.64,20.104,17.07,29.854,22.68c1.438,0.81,2.606,1.65,2.606,1.83c0,0.21-1.5,0.3-4.406,0.3c-5.28,0-9.304,0.69-14.7,2.55   c-6.78,2.31-15.21,7.02-19.95,11.13c-1.92,1.65-5.07,5.22-10.44,11.79c-5.13,6.27-8.938,10.08-11.34,11.34   c-5.699,3-17.43,5.4-26.606,5.43c-0.045,0-0.093-0.002-0.138-0.002v438.751c0.747-0.003,1.491-0.182,2.268-0.539   c1.438-0.66,2.22-1.62,2.22-2.79c0-0.93-0.57-2.34-0.96-2.34c-0.12,0-0.24-0.21-0.24-0.45c0-0.6,1.801-0.6,5.16,0   c3.09,0.54,5.7,1.32,10.021,3.03c3.811,1.5,6.211,2.07,11.521,2.7c10.71,1.26,22.26,0.75,30.45-1.41   c8.279-2.13,29.04-13.11,41.1-21.72c9.48-6.75,18.934-15.69,24.48-23.104c1.71-2.31,3.449-4.5,3.869-4.856   c0.421-0.36,2.58-1.71,4.801-2.974c5.55-3.18,10.08-6.18,13.739-9.06c6.147-4.86,7.681-5.4,15.811-5.79   c3.42-0.15,6.78-0.479,7.8-0.72c5.04-1.29,11.04-5.55,15.813-11.25c1.891-2.28,3.87-5.4,9.688-15.3   c10.563-18,13.59-22.144,19.59-26.91c7.98-6.36,13.53-13.29,15.69-19.563c0.99-2.85,0.66-5.55-1.08-9.18   c-3.899-8.13-15.061-16.65-20.88-15.96c-1.8,0.21-4.141,1.38-5.49,2.76c-1.2,1.17-1.68,1.32-1.68,0.48c0-1.5-1.32-3.512-4.44-6.724   c-3.988-4.14-5.52-6.356-7.17-10.38c-0.688-1.71-1.5-3.356-1.77-3.658c-0.54-0.602-1.771-0.778-2.07-0.271   c-0.09,0.149-0.479,0.3-0.811,0.3c-0.603,0-0.603-0.12-0.421-1.89c0.631-6.12,0.842-11.433,0.75-19.86   c-0.062-5.188-0.028-9.45,0.092-9.45c0.119,0,0.566,0.15,1.02,0.303c1.71,0.657,3.99-0.603,4.62-2.579   c0.51-1.5-0.271-3.45-1.68-4.354c-1.23-0.75-3.36-0.688-4.29,0.15c-0.301,0.27-0.66,0.479-0.813,0.479   c-0.33,0-5.01-16.05-6.42-21.93c-1.92-8.101-2.25-10.86-2.22-18.87c0-7.95,0.09-8.97,2.37-26.1c0.72-5.521,1.53-11.82,1.8-13.95   c0.66-5.49,0.72-5.851,1.17-5.851c0.24,0,0.48,0.357,0.57,0.811c0.06,0.479,0.96,4.859,1.979,9.81c0.99,4.923,1.83,9.304,1.83,9.69   c0,0.689-0.09,0.75-0.81,0.54c-2.82-0.69-3.99-0.42-4.771,1.109c-0.659,1.29-0.51,2.521,0.45,3.601c0.75,0.84,1.08,0.99,2.28,0.99   s1.53-0.15,2.28-0.99c1.02-1.141,1.406-1.2,1.617-0.3c0.393,1.646,2.853,14.22,2.853,14.55c0,0.57-0.45,0.479-1.682-0.36   c-0.812-0.54-1.5-0.75-2.608-0.75c-1.32,0-1.62,0.12-2.61,1.144c-1.29,1.29-1.89,2.97-2.396,6.72c-0.42,2.939-0.183,4.979,0.72,6.3   c1.2,1.8,2.79,1.86,5.01,0.184c1.472-1.144,3.813-4.41,4.08-5.673c0.301-1.591,0.9-0.961,1.44,1.439   c6.448,29.521,12.868,50.61,19.5,64.14c10.02,20.4,22.979,30.03,44.698,33.271c8.789,1.319,21.358,1.74,27.148,0.93   c15.66-2.22,32.04-10.739,46.2-23.97c4.08-3.84,7.318-7.351,12-13.08c18.99-23.25,29.188-39.84,31.68-51.51   c0.69-3.33,0.66-8.04-0.12-11.19c-0.329-1.41-1.38-4.26-2.276-6.33c-1.382-3.09-1.683-4.08-1.683-5.396   c0-2.07,0.393-2.762,5.313-9.15c10.646-13.8,14.55-22.2,18-38.49l1.107-5.28v-7.5C935.22,366.75,934.8,363,932.82,354.3z" style="stroke:black;fill:#BFDAE3"/><path id="180623552" parent_id="180608862" order="1" structure_id="1" d="M571.62,199.53c-3.813-8.1-11.97-14.37-22.92-17.61c-3.36-0.99-4.17-1.11-7.8-1.2   c-0.314-0.009-0.604-0.015-0.888-0.019v75.466c6.188-0.012,12.603-2.624,18.978-7.767C573,237.15,578.79,214.74,571.62,199.53z" style="stroke:black;fill:#BFDAE3"/><path id="180623552" parent_id="180608862" order="2" structure_id="1" d="M596.79,225.45   c-0.51,0.21-1.17,0.84-1.44,1.35c-1.47,2.82,2.434,5.4,4.474,2.97c1.02-1.2,1.02-2.43-0.03-3.54S597.99,224.91,596.79,225.45z" style="stroke:black;fill:#BFDAE3"/><path id="180623552" parent_id="180608862" order="3" structure_id="1" d="M722.52,430.17   c-2.729,1.65-1.35,5.73,1.924,5.73c1.076,0,2.25-0.9,2.76-2.07c0.75-1.86-0.934-4.23-3-4.23   C723.78,429.6,723.03,429.87,722.52,430.17z" style="stroke:black;fill:#BFDAE3"/><path id="180623552" parent_id="180608862" order="4" structure_id="1" d="M729.33,466.29   c-1.561,0.78-1.98,1.83-1.95,4.8c0,2.313,0.18,3.21,0.99,5.61c1.89,5.46,3.63,8.01,5.82,8.52c1.229,0.3,3.356-0.75,3.96-1.95   c1.736-3.326-2.224-14.52-5.94-16.77C731.1,465.81,730.35,465.75,729.33,466.29z" style="stroke:black;fill:#BFDAE3"/><path id="180623552" parent_id="180608862" order="5" structure_id="1" d="M707.85,212.82   c-0.776,0.54-0.446,2.19,0.78,3.99c2.04,3,20.22,20.97,43.92,43.44c16.05,15.21,31.2,30.42,36.96,37.05   c2.67,3.06,8.434,9.87,12.87,15.15c10.05,12,12.84,15.24,17.34,20.01c4.86,5.19,6.514,6.21,8.61,5.34l0.93-0.39l-0.18-1.98   c-0.57-5.37-5.55-15.3-14.82-29.58c-20.58-31.65-47.34-59.4-76.316-79.17c-8.521-5.82-18.54-11.19-24.604-13.23   C709.92,212.31,708.72,212.16,707.85,212.82z" style="stroke:black;fill:#BFDAE3"/><path id="180623552" parent_id="180608862" order="6" structure_id="1" d="M678.06,407.55   c-3.446,0.75-9.96,3.54-9.96,4.26c0,0.604,9.87,18.394,10.83,19.5c1.08,1.264,1.41,3.271,0.87,5.49c-0.24,0.9-0.39,2.76-0.33,4.11   c0.09,3.146-0.63,4.68-3.42,7.229c-2.88,2.644-5.88,4.08-10.41,5.014c-1.229,0.236-1.02,0.84,0.54,1.47   c4.021,1.646,4.86,4.17,3.12,9.359c-1.316,3.811-1.8,6.357-2.01,10.381c-0.15,3.146-0.12,3.54,0.3,3.54   c0.75,0,10.65-3.33,15.45-5.224c2.37-0.896,5.61-2.34,7.26-3.18l2.94-1.53l0.21-1.56c0.33-2.37,1.5-5.88,2.606-7.681   c1.2-1.979,3.24-3.449,5.37-3.899c4.771-1.021,7.894,2.04,8.974,8.76c0.479,2.91,0.236,10.563-0.45,14.46   c-1.59,9.21-5.46,14.94-10.11,14.972c-3.81,0-6.03-3.842-7.02-12.212c-0.092-0.84-0.304-1.406-0.54-1.406   c-0.271,0-0.604,2.1-1.2,7.406c-0.84,7.712-3.48,33.271-3.48,33.9c0,0.21,0.184,0.39,0.394,0.39s0.75-0.896,1.229-2.04   c1.53-3.566,5.25-10.68,7.08-13.5c3-4.616,8.854-9.81,13.8-12.18c2.104-1.02,2.94-1.26,4.713-1.35c1.921-0.09,2.341,0,3.479,0.66   c3.12,1.828,4.771,6.688,4.771,14.156c0.027,8.16-2.729,25.41-4.923,30.54c-0.986,2.37-1.59,3.21-6.54,9.36   c-22.71,28.2-28.526,36.06-34.077,45.99c-3.933,7.08-7.529,9.75-10.829,8.04c-2.854-1.474-4.144-8.04-2.974-15.184   c0.42-2.52,4.593-21.96,5.46-25.229c0.48-1.95,0.54-2.97,0.15-2.97c-0.15,0-1.83,1.526-3.688,3.356   c-4.383,4.354-8.013,6.51-11.04,6.54c-1.263,0-0.96-0.6-3.779,7.62c-4.83,14.16-7.681,27.87-7.23,34.68   c0.57,7.86,4.41,15.66,8.94,18.15c1.319,0.688,2.069,0.897,4.109,0.99c3.75,0.21,4.891-0.21,6.601-2.46   c0.75-1.021,2.729-3.514,4.41-5.58c4.35-5.4,7.35-9.394,9.869-13.263c3.688-5.697,15.027-25.021,19.08-32.487   c1.83-3.394,3.777-6.12,10.647-15c9.48-12.24,9.63-12.45,12.3-18c6.78-14.013,7.473-17.07,7.83-34.5   c0.21-9.093-0.12-15.24-0.896-16.383c-0.302-0.511-0.45-1.38-0.45-2.67c0.029-1.5-0.271-3.027-1.38-6.75   c-5.761-19.351-7.11-26.221-7.144-35.697c0-3.15,0.093-6.303,0.24-7.021l0.21-1.319l-0.84,0.183c-0.479,0.09-2.97,0.688-5.521,1.35   c-5.608,1.44-10.771,2.16-15.722,2.16c-5.729,0-7.857-0.898-9.146-3.87c-0.813-1.89-1.144-5.278-0.66-6.72   c0.84-2.521,4.648-4.59,10.021-5.43c1.439-0.211,2.699-0.48,2.819-0.57c0.09-0.12-0.061-1.05-0.33-2.07   c-0.66-2.34-4.08-13.856-4.17-13.92c-0.148-0.18-12.33-1.62-13.319-1.59C680.46,407.13,679.11,407.34,678.06,407.55z" style="stroke:black;fill:#BFDAE3"/><path id="180623552" parent_id="180608862" order="7" structure_id="1" d="M725.46,439.2c-1.92,1.2-3.24,5.88-3,10.59   c0.15,2.97,0.78,3.93,2.67,4.05c1.771,0.12,3.66-1.14,5.28-3.45c1.53-2.22,1.89-3.3,1.89-5.76c0-2.28-0.81-4.26-2.16-5.22   C728.94,438.51,726.69,438.42,725.46,439.2z" style="stroke:black;fill:#BFDAE3"/><path id="180623552" parent_id="180608862" order="8" structure_id="1" d="M727.92,485.97   c-0.54,0.3-1.05,0.724-1.14,0.87c-0.091,0.18,0,1.44,0.236,2.79c0.48,2.82,0.87,3.271,2.644,3.271c2.37,0,3.84-1.5,3.84-3.9   C733.5,486.33,730.2,484.53,727.92,485.97z" style="stroke:black;fill:#BFDAE3"/><path id="180623552" parent_id="180608862" order="9" structure_id="1" d="M690.6,469.14   c-2.79,1.563-10.316,4.563-17.369,6.87l-6.091,2.01l0.184,2.73c0.12,1.47,0.42,4.41,0.688,6.51c0.36,3.063,0.394,4.2,0.12,5.79   c-1.05,5.91-4.979,12.99-8.43,15.09c-1.563,0.96-1.771,0.99-3.813,0.87c-1.198-0.09-2.188-0.026-2.188,0.09   c0,0.15,0.33,1.594,0.72,3.211c2.37,9.479,2.85,22.803,1.2,32.103c-0.24,1.32,0.18,1.29,2.7-0.36c5.22-3.39,9.72-3.566,12.51-0.54   c1.17,1.23,1.77,2.61,1.77,3.99c0,0.93,0.12,1.23,0.45,1.142c0.57-0.119,9.78-15.932,12.3-21.092l1.894-3.896l0.63-7.051   c0.72-7.859,2.46-24.689,3.18-30.899c0.723-6.03,1.95-15.601,2.13-16.74C693.42,467.73,693.09,467.73,690.6,469.14z" style="stroke:black;fill:#BFDAE3"/><path id="180623552" parent_id="180608862" order="10" structure_id="1" d="M742.95,542.97c-0.45-1.35-1.05-2.13-3.54-4.62c-4.47-4.47-6.604-7.59-8.07-11.816   c-0.3-0.9-0.75-1.98-1.02-2.37c-1.144-1.71-3.24,0.12-4.771,4.2c-1.68,4.35-4.17,10.08-6.06,13.89c-1.5,2.97-2.19,4.83-2.94,7.83   c-3.688,14.521-12.78,27.75-25.646,37.14c-1.894,1.41-2.07,1.684-7.65,10.98c-6.36,10.59-8.67,13.92-15.39,22.316   c-2.521,3.15-4.98,6.33-5.46,7.021c-1.172,1.77-1.83,3.84-3.57,11.31c-2.13,9-4.71,15.99-8.34,22.5   c-3.394,6.094-4.95,8.04-11.91,15c-14.521,14.46-25.893,23.134-34.05,25.923c-6.813,2.341-15.813,2.607-25.684,0.777   c-6.81-1.29-9-2.066-18.146-6.51c-10.05-4.86-17.37-8.94-17.94-9.99c-0.479-0.81-0.51-4.527-0.66-42.18   c-0.146-40.08-0.18-41.34-0.72-41.94c-0.394-0.421-0.885-0.623-1.364-0.624V702.3c6.771,0.002,11.421,0.936,18.104,3.604   c6.03,2.396,12.75,3.33,24.03,3.33c14.64,0.026,20.43-1.563,36.896-10.054c21.51-11.13,38.04-24.18,47.37-37.409   c0.99-1.381,2.28-3.061,2.88-3.721c2.313-2.46,6.271-8.279,14.76-21.566c2.94-4.594,6.604-10.054,8.16-12.15   c7.563-10.2,24.302-35.16,35.82-53.43c4.53-7.17,9.78-15.45,11.7-18.394C743.61,546.51,743.85,545.73,742.95,542.97z" style="stroke:black;fill:#BFDAE3"/><path id="180623552" parent_id="180608862" order="11" structure_id="1" d="M750,541.77   c-1.38,0.304-2.73,1.021-4.05,2.19c-1.44,1.23-5.13,6.78-16.2,24.39c-11.7,18.54-29.37,45.063-36.12,54.15   c-1.17,1.62-2.13,3.45-3.39,6.54c-2.91,7.2-3.63,11.1-2.313,12.78c0.934,1.17,3.45,1.106,6.36-0.184   c3.51-1.526,4.77-1.736,11.16-2.01c5.31-0.21,6.238-0.33,8.188-1.02c3.63-1.264,6.99-3.57,10.86-7.41   c3.84-3.813,5.069-5.434,8.608-11.4c15.658-26.43,17.312-28.83,23.488-33.777c6.813-5.433,12-11.343,14.552-16.473   c2.13-4.316,2.368-6.688,1.021-10.59c-1.74-5.04-7.62-11.46-13.771-15.06C755.1,541.98,752.4,541.29,750,541.77z" style="stroke:black;fill:#BFDAE3"/><path id="180623552" parent_id="180608862" order="12" structure_id="1" d="M662.85,541.92   c-5.52,1.74-13.56,8.82-15.776,13.83c-0.78,1.74-0.9,4.74-0.271,6.57c0.63,1.92,2.79,3.986,4.74,4.56   c4.14,1.2,8.76-0.78,14.04-6.03c5.16-5.13,7.77-10.92,6.72-14.88c-0.45-1.62-2.49-3.688-4.106-4.14   C666.69,541.41,664.35,541.44,662.85,541.92z" style="stroke:black;fill:#BFDAE3"/><path id="180623552" parent_id="180608862" order="13" structure_id="1" d="M671.4,256.26c0,0.21,1.38,1.95,3.09,3.87   c9.75,11.07,17.97,23.61,21.896,33.42c6.633,16.56,10.41,36,10.41,53.7c0,16.71-6.06,33.15-16.438,44.55l-2.04,2.25l-0.66,3.3   c-0.33,1.83-1.05,4.53-1.59,6c-1.53,4.384-1.86,3.87,3,4.5l4.229,0.514l2.49-2.104c3.96-3.356,7.229-7.41,9.45-11.7   c3.84-7.35,6.566-16.71,8.066-27.51c0.75-5.4,0.724-20.4,0-28.65c-1.979-21.72-5.789-36.9-13.078-52.26   c-5.222-10.98-14.368-21.36-25.142-28.5C672.51,255.93,671.4,255.51,671.4,256.26z" style="stroke:black;fill:#BFDAE3"/><path id="180623552" parent_id="180608862" order="14" structure_id="1" d="M678.06,407.55   c-3.446,0.75-9.96,3.54-9.96,4.26c0,0.604,9.87,18.394,10.83,19.5c1.08,1.264,1.41,3.271,0.87,5.49c-0.24,0.9-0.39,2.76-0.33,4.11   c0.09,3.146-0.63,4.68-3.42,7.229c-2.88,2.644-5.88,4.08-10.41,5.014c-1.229,0.236-1.02,0.84,0.54,1.47   c4.021,1.646,4.86,4.17,3.12,9.359c-1.316,3.811-1.8,6.357-2.01,10.381c-0.15,3.146-0.12,3.54,0.3,3.54   c0.75,0,10.65-3.33,15.45-5.224c2.37-0.896,5.61-2.34,7.26-3.18l2.94-1.53l0.21-1.56c0.33-2.37,1.5-5.88,2.606-7.681   c1.2-1.979,3.24-3.449,5.37-3.899c4.771-1.021,7.894,2.04,8.974,8.76c0.479,2.91,0.236,10.563-0.45,14.46   c-1.59,9.21-5.46,14.94-10.11,14.972c-3.81,0-6.03-3.842-7.02-12.212c-0.092-0.84-0.304-1.406-0.54-1.406   c-0.271,0-0.604,2.1-1.2,7.406c-0.84,7.712-3.48,33.271-3.48,33.9c0,0.21,0.184,0.39,0.394,0.39s0.75-0.896,1.229-2.04   c1.53-3.566,5.25-10.68,7.08-13.5c3-4.616,8.854-9.81,13.8-12.18c2.104-1.02,2.94-1.26,4.713-1.35c1.921-0.09,2.341,0,3.479,0.66   c3.12,1.828,4.771,6.688,4.771,14.156c0.027,8.16-2.729,25.41-4.923,30.54c-0.986,2.37-1.59,3.21-6.54,9.36   c-22.71,28.2-28.526,36.06-34.077,45.99c-3.933,7.08-7.529,9.75-10.829,8.04c-2.854-1.474-4.144-8.04-2.974-15.184   c0.42-2.52,4.593-21.96,5.46-25.229c0.48-1.95,0.54-2.97,0.15-2.97c-0.15,0-1.83,1.526-3.688,3.356   c-4.383,4.354-8.013,6.51-11.04,6.54c-1.263,0-0.96-0.6-3.779,7.62c-4.83,14.16-7.681,27.87-7.23,34.68   c0.57,7.86,4.41,15.66,8.94,18.15c1.319,0.688,2.069,0.897,4.109,0.99c3.75,0.21,4.891-0.21,6.601-2.46   c0.75-1.021,2.729-3.514,4.41-5.58c4.35-5.4,7.35-9.394,9.869-13.263c3.688-5.697,15.027-25.021,19.08-32.487   c1.83-3.394,3.777-6.12,10.647-15c9.48-12.24,9.63-12.45,12.3-18c6.78-14.013,7.473-17.07,7.83-34.5   c0.21-9.093-0.12-15.24-0.896-16.383c-0.302-0.511-0.45-1.38-0.45-2.67c0.029-1.5-0.271-3.027-1.38-6.75   c-5.761-19.351-7.11-26.221-7.144-35.697c0-3.15,0.093-6.303,0.24-7.021l0.21-1.319l-0.84,0.183c-0.479,0.09-2.97,0.688-5.521,1.35   c-5.608,1.44-10.771,2.16-15.722,2.16c-5.729,0-7.857-0.898-9.146-3.87c-0.813-1.89-1.144-5.278-0.66-6.72   c0.84-2.521,4.648-4.59,10.021-5.43c1.439-0.211,2.699-0.48,2.819-0.57c0.09-0.12-0.061-1.05-0.33-2.07   c-0.66-2.34-4.08-13.856-4.17-13.92c-0.148-0.18-12.33-1.62-13.319-1.59C680.46,407.13,679.11,407.34,678.06,407.55z" style="stroke:black;fill:#BFDAE3"/><path id="180623552" parent_id="180608862" order="15" structure_id="1" d="M544.29,601.17   c-0.87,0.12-1.74,0.39-1.95,0.63c-0.3,0.36-0.359,8.91-0.24,42.21c0.15,41.73,0.15,41.76,0.78,42.604   c1.021,1.38,16.68,9.688,24.42,12.96c7.144,3,14.46,4.35,23.7,4.35c6.48,0.03,9.12-0.3,13.23-1.647   c7.77-2.521,19.14-11.013,33.39-24.899c7.29-7.11,9.78-10.29,13.38-17.13c3.63-6.932,5.76-12.87,7.77-21.69   c0.69-2.97,1.5-6.237,1.83-7.26c0.813-2.49,0.78-2.91-0.06-2.67c-1.5,0.42-4.35,0.54-5.49,0.21c-0.66-0.18-2.13-0.87-3.21-1.53   c-2.396-1.438-4.95-2.1-8.13-2.1c-2.94,0-6.51,0.75-6.51,1.41c0,0.237,0.688,1.05,1.5,1.8c1.95,1.77,2.76,3.33,2.938,5.79   c0.12,1.92,0.12,1.979-2.01,6.146c-2.76,5.462-5.396,9.12-9.479,13.23c-3.75,3.75-6.12,5.46-9.063,6.479   c-1.77,0.604-2.607,0.69-6.24,0.69c-3.96,0-4.438-0.09-8.396-1.17c-3.84-1.08-4.59-1.2-8.88-1.32c-3.15-0.09-6.091,0.03-9,0.36   c-12.48,1.38-18.96,1.5-23.974,0.479c-1.736-0.356-3.72-0.896-4.406-1.196c-2.644-1.17-3.423-4.384-1.594-6.69   c0.33-0.42,0.604-0.87,0.604-1.021c0-0.149-0.63-0.449-1.41-0.659c-2.46-0.63-3.811-1.65-5.37-3.96   c-2.7-4.054-4.05-8.82-4.59-16.021c-0.45-5.97-0.42-8.97,0.12-10.29c1.62-3.84,4.229-4.229,16.05-2.31   c13.35,2.188,18.69,2.816,33.15,3.93c12.479,0.96,11.76,0.93,14.76,0.271l2.46-0.54l0.54-1.38c0.87-2.28,0.72-3.514-0.604-4.714   c-0.93-0.866-1.316-1.02-2.52-1.02c-4.23-0.03-14.19-0.63-17.19-1.05c-8.066-1.144-13.35-2.73-22.26-6.78   c-7.35-3.33-8.607-3.78-12.24-4.32C557.19,600.9,547.41,600.78,544.29,601.17z" style="stroke:black;fill:#BFDAE3"/><path id="180623552" parent_id="180608862" order="16" structure_id="1" d="M543.84,704.25c-0.79-1.007-2.307-1.599-3.824-1.638v6.541c2.032,0.021,3.432-0.603,4.034-1.783   C544.68,706.2,544.62,705.21,543.84,704.25z" style="stroke:black;fill:#BFDAE3"/><path id="180623552" parent_id="180608862" order="17" structure_id="1" d="M562.8,498.03c1.41-0.66,2.04-0.78,4.59-0.78c1.594,0,2.91-0.06,2.91-0.15c0-0.09-0.27-1.438-0.6-3   c-0.33-1.56-0.604-3.27-0.604-3.776c0-0.87-0.236-1.11-2.22-2.34l-2.22-1.384l-1.92,0.45c-4.563,1.08-9.36,0.87-13.563-0.63   c-1.17-0.39-2.369-0.81-2.64-0.93c-0.479-0.15-0.54,0.06-0.54,1.89c0,2.73-0.75,8.04-1.35,9.72c-0.271,0.75-0.813,1.86-1.23,2.521   l-0.78,1.14l0.78,7.41c2.49,23.7,3.45,42.48,2.88,57.33c-0.778,21.39-1.92,27.57-5.278,28.98l-1.006,0.43v1.721l0.045,1.629   c0.093,3.3,0.093,3.33,0.869,3.604c0.69,0.237,1.08,0.06,2.974-1.38c2.58-1.95,7.47-4.41,10.979-5.521l2.521-0.81l0.72-2.25   c3.36-10.53,6-27.813,7.08-46.65c0.54-9.51,0.27-29.28-0.48-31.68c-0.09-0.303-0.75-0.63-1.77-0.84   c-2.104-0.48-3.99-1.894-4.893-3.634c-0.961-1.829-0.811-4.646,0.359-7.02C559.35,500.16,560.49,499.11,562.8,498.03z" style="stroke:black;fill:#BFDAE3"/><path id="180623552" parent_id="180608862" order="18" structure_id="1" d="M558.33,594   c-4.561,0.96-13.83,5.25-13.83,6.39c0,0.271,1.56,0.36,6.84,0.36c9.78,0,11.07,0.3,20.91,4.77c8.55,3.934,12.75,5.25,20.28,6.48   c6.84,1.08,19.17,1.62,19.17,0.81c0-0.446-3.604-3.026-7.74-5.55c-4.77-2.88-18.33-9.54-21.51-10.56   c-5.76-1.83-10.86-2.644-17.854-2.854C561.87,593.79,559.05,593.85,558.33,594z" style="stroke:black;fill:#BFDAE3"/><path id="180623552" parent_id="180608862" order="19" structure_id="1" d="M614.22,395.82   c-0.33,0.874,0,1.53,0.78,1.53c0.63,0,0.75-0.146,0.75-0.896c0-0.72-0.15-0.93-0.69-0.99C614.67,395.4,614.34,395.55,614.22,395.82   z" style="stroke:black;fill:#BFDAE3"/><path id="180623552" parent_id="180608862" order="20" structure_id="1" d="M580.8,293.31c0,0.3,0.271,1.41,0.63,2.49   c1.17,3.75,3,11.28,3.42,14.04c0.42,2.73,0.99,11.31,1.144,16.71c0.09,3.51,0.63,4.59,4.14,8.43c6.75,7.38,12.09,14.22,16.26,20.82   c3.57,5.64,8.7,12.87,9.15,12.9c0.51,0,0.479-3.18-0.09-6.39c-0.54-3.03-1.65-6.51-4.11-12.66c-0.989-2.49-2.46-6.54-3.27-9.03   c-1.74-5.34-3.96-10.89-5.91-14.67c-1.26-2.46-10.68-17.67-17.76-28.71C581.73,293.1,580.8,292.08,580.8,293.31z" style="stroke:black;fill:#BFDAE3"/><path id="180623552" parent_id="180608862" order="21" structure_id="1" d="M615.81,369.78c-0.09-0.18-1.646-2.46-3.479-5.04c-1.83-2.58-4.41-6.42-5.76-8.55   c-4.38-6.93-9.184-13.14-16.144-20.79c-4.41-4.86-4.38-4.8-4.83-13.8c-0.51-11.1-1.229-15.36-4.05-24.9   c-1.74-5.91-2.91-8.28-7.89-15.87c-5.28-8.01-6.63-10.59-6.87-13.08c-0.21-1.98,0.21-1.95-4.44-0.33   c-5.85,2.01-16.196,3.78-22.29,3.78c-0.014,0-0.027-0.001-0.044-0.001v58.868c1.021-0.014,2.002,0.002,2.928,0.053   c5.22,0.27,14.066,1.95,19.26,3.66c9.39,3.09,20.97,9.93,29.88,17.73c5.4,4.71,13.47,14.31,18.66,22.2   c1.77,2.67,3.39,4.86,3.566,4.86c0.21,0.03,0.45-0.27,0.54-0.66C615.18,376.38,615.93,370.11,615.81,369.78z" style="stroke:black;fill:#BFDAE3"/><path id="180623552" parent_id="180608862" order="22" structure_id="1" d="M563.07,497.97   c-2.224,0.87-3.48,2.014-4.53,4.17c-0.81,1.65-0.96,2.313-0.99,4.144c0,1.92,0.09,2.31,0.9,3.479c2.01,2.88,6.78,3.934,10.41,2.28   c2.64-1.229,4.406-3.54,4.856-6.39c0.15-1.054,0-1.594-1.47-4.5c-0.9-1.804-1.83-3.394-2.04-3.514   C569.49,497.19,564.51,497.4,563.07,497.97z" style="stroke:black;fill:#BFDAE3"/><path id="180623552" parent_id="180608862" order="23" structure_id="1" d="M715.41,549.39   c-0.24,0.394-3.36,4.44-6.93,9.03c-8.61,11.07-9.57,12.45-12.57,17.88c-1.38,2.55-3.24,5.854-4.08,7.29   c-2.43,4.2-2.04,4.53,1.77,1.5c5.61-4.47,11.82-11.52,15.69-17.79c2.07-3.356,4.62-8.88,5.91-12.84c1.47-4.53,1.71-5.76,1.106-5.76   C716.07,548.7,715.65,549,715.41,549.39z" style="stroke:black;fill:#BFDAE3"/><path id="180623552" parent_id="180608862" order="24" structure_id="1" d="M684.12,636.51   c-5.25,8.224-9.51,14.73-11.28,17.104c-2.1,2.85-1.38,2.906,3.33,0.21c4.59-2.644,8.55-5.28,11.88-7.92c2.97-2.37,3.394-3,2.01-3   c-1.17,0-2.34-0.96-2.76-2.25c-0.45-1.32,0.21-4.92,1.53-8.25c0.96-2.49,1.08-3.304,0.45-3.304   C689.04,629.1,686.73,632.43,684.12,636.51z" style="stroke:black;fill:#BFDAE3"/><path id="180623552" parent_id="180608862" order="25" structure_id="1" d="M618,396.54c0,0.18,0.27,1.44,0.57,2.82   c0.51,2.13,1.229,7.29,1.229,8.79c0,0.27,0.271,0.446,0.72,0.446c0.424,0,0.844,0.12,0.934,0.304c0.09,0.146,0.39,0.3,0.63,0.3   c0.57,0,0.57-3.271-0.03-5.94c-0.54-2.34-2.79-6.75-3.54-6.896C618.24,396.3,618,396.39,618,396.54z" style="stroke:black;fill:#BFDAE3"/><path id="180623552" parent_id="180608862" order="26" structure_id="1" d="M617.85,229.08   c-7.946,1.17-16.229,4.44-23.696,9.36c-5.854,3.87-6.9,4.89-15.42,15.21c-5.7,6.87-8.79,10.11-10.74,11.37   c-1.41,0.87-1.53,1.32-0.96,3.78c0.54,2.34,1.979,4.89,7.229,12.81c9.184,13.86,24.33,37.74,27.21,42.93   c2.224,3.99,4.38,9.18,6.54,15.66c1.08,3.21,2.67,7.59,3.54,9.75c0.87,2.13,2.04,5.22,2.58,6.84c0.51,1.62,1.8,4.47,2.854,6.3   c1.05,1.86,1.92,3.45,1.92,3.57c0,0.15,0.21,0.24,0.479,0.24c0.391,0,0.42-0.24,0.21-1.74c-0.12-0.93-0.24-3.93-0.21-6.66   c0.03-4.29,0.12-5.22,0.69-6.9c2.37-6.87,7.229-12.45,13.71-15.66c3.54-1.77,5.606-2.25,10.47-2.52   c9.12-0.48,19.35,2.76,27.33,8.67c4.47,3.33,9.33,9.06,11.82,14.01c3.93,7.8,6.3,21.87,5.43,32.52c-0.21,2.28-0.271,4.23-0.18,4.32   c0.33,0.33,1.196-0.45,3.236-2.97c7.08-8.67,11.854-19.38,13.83-30.93c1.23-7.14,1.23-16.05,0.03-27.24   c-1.53-13.98-5.13-28.17-10.17-40.11c-4.14-9.81-15.061-25.5-24.69-35.46c-1.47-1.47-4.05-4.71-5.789-7.17l-3.147-4.47l-4.05-2.37   c-8.79-5.16-22.11-11.28-27.303-12.57C628.71,229.17,619.92,228.78,617.85,229.08z" style="stroke:black;fill:#BFDAE3"/><path id="180623552" parent_id="180608862" order="27" structure_id="1" d="M720.42,333.96   c1.2,9.9,1.05,16.11-0.9,37.44c-1.26,13.86-2.188,22.02-3.42,29.85c-1.619,10.41-1.68,11.07-1.08,12   c0.69,1.05,2.313,1.02,3.724-0.03c1.89-1.438,2.67-3.84,3.51-10.736c3.06-25.292,3.63-45.124,1.65-58.144   c-1.021-6.66-2.434-11.94-3.21-11.94C720.3,332.4,720.27,332.67,720.42,333.96z" style="stroke:black;fill:#BFDAE3"/><path id="180623552" parent_id="180608862" order="28" structure_id="1" d="M550.56,616.38   c-1.29,0.66-2.46,2.19-2.79,3.63c-0.42,1.86,0.48,15.66,1.054,16.23c0.06,0.06,2.85-0.724,6.21-1.71   c8.816-2.61,22.38-6.21,35.88-9.57c6.51-1.59,11.79-3.06,11.79-3.24c0-0.21-1.893-0.45-5.313-0.688   c-12.81-0.87-17.156-1.38-34.106-4.052C556.68,615.93,551.88,615.69,550.56,616.38z" style="stroke:black;fill:#BFDAE3"/><path id="180623552" parent_id="180608862" order="29" structure_id="1" d="M603.45,621.96   c-23.04,5.67-36.72,9.271-48.51,12.69c-6.75,1.979-6.394,1.646-5.313,4.979c0.93,2.854,2.641,5.94,4.17,7.5   c1.41,1.44,4.021,2.67,5.67,2.67c1.8,0,14.644-4.08,21.33-6.81c6.604-2.644,7.23-3.09,13.47-9.394   c5.49-5.52,8.974-8.55,11.58-10.08C608.4,622.02,606.96,621.09,603.45,621.96z" style="stroke:black;fill:#BFDAE3"/><path id="180623552" parent_id="180608862" order="30" structure_id="1" d="M571.2,510.54c-1.23,1.26-3,2.1-4.95,2.37   l-1.41,0.18l0.18,1.29c0.844,6.271,0.934,22.44,0.184,33.87c-1.08,16.38-3.36,31.14-6.48,41.97c-0.566,1.95-0.986,3.63-0.93,3.69   c0.09,0.06,1.05-0.03,2.19-0.21c1.14-0.15,3.06-0.271,4.289-0.24l2.221,0.09l1.29-4.646c7.229-25.804,9.18-54.36,5.31-78.36   c-0.09-0.63-0.33-1.11-0.51-1.11C572.4,509.46,571.77,509.97,571.2,510.54z" style="stroke:black;fill:#BFDAE3"/><path id="180623552" parent_id="180608862" order="31" structure_id="1" d="M592.17,454.86   c-10.95,12.896-11.46,13.38-15.689,14.88c-1.801,0.66-2.607,0.75-5.431,0.75c-1.8-0.03-4.646-0.24-6.3-0.51   c-4.92-0.813-10.26-0.964-12.03-0.36c-2.34,0.78-4.8,3.72-5.938,7.14c-0.724,2.13-1.144,5.313-0.934,6.87   c0.184,1.38,0.24,1.44,1.92,2.19c2.673,1.196,5.224,1.68,9.03,1.68c2.432,0,4.2-0.18,5.97-0.6c5.61-1.354,17.49-7.144,21.24-10.354   c0.66-0.566,1.71-1.8,2.34-2.7c2.104-3.146,10.354-21.39,10.354-22.856C596.7,449.94,595.5,450.96,592.17,454.86z" style="stroke:black;fill:#BFDAE3"/><path id="180623552" parent_id="180608862" order="32" structure_id="1" d="M544.29,601.17   c-0.87,0.12-1.74,0.39-1.95,0.63c-0.3,0.36-0.359,8.91-0.24,42.21c0.15,41.73,0.15,41.76,0.78,42.604   c1.021,1.38,16.68,9.688,24.42,12.96c7.144,3,14.46,4.35,23.7,4.35c6.48,0.03,9.12-0.3,13.23-1.647   c7.77-2.521,19.14-11.013,33.39-24.899c7.29-7.11,9.78-10.29,13.38-17.13c3.63-6.932,5.76-12.87,7.77-21.69   c0.69-2.97,1.5-6.237,1.83-7.26c0.813-2.49,0.78-2.91-0.06-2.67c-1.5,0.42-4.35,0.54-5.49,0.21c-0.66-0.18-2.13-0.87-3.21-1.53   c-2.396-1.438-4.95-2.1-8.13-2.1c-2.94,0-6.51,0.75-6.51,1.41c0,0.237,0.688,1.05,1.5,1.8c1.95,1.77,2.76,3.33,2.938,5.79   c0.12,1.92,0.12,1.979-2.01,6.146c-2.76,5.462-5.396,9.12-9.479,13.23c-3.75,3.75-6.12,5.46-9.063,6.479   c-1.77,0.604-2.607,0.69-6.24,0.69c-3.96,0-4.438-0.09-8.396-1.17c-3.84-1.08-4.59-1.2-8.88-1.32c-3.15-0.09-6.091,0.03-9,0.36   c-12.48,1.38-18.96,1.5-23.974,0.479c-1.736-0.356-3.72-0.896-4.406-1.196c-2.644-1.17-3.423-4.384-1.594-6.69   c0.33-0.42,0.604-0.87,0.604-1.021c0-0.149-0.63-0.449-1.41-0.659c-2.46-0.63-3.811-1.65-5.37-3.96   c-2.7-4.054-4.05-8.82-4.59-16.021c-0.45-5.97-0.42-8.97,0.12-10.29c1.62-3.84,4.229-4.229,16.05-2.31   c13.35,2.188,18.69,2.816,33.15,3.93c12.479,0.96,11.76,0.93,14.76,0.271l2.46-0.54l0.54-1.38c0.87-2.28,0.72-3.514-0.604-4.714   c-0.93-0.866-1.316-1.02-2.52-1.02c-4.23-0.03-14.19-0.63-17.19-1.05c-8.066-1.144-13.35-2.73-22.26-6.78   c-7.35-3.33-8.607-3.78-12.24-4.32C557.19,600.9,547.41,600.78,544.29,601.17z" style="stroke:black;fill:#BFDAE3"/><path id="180623552" parent_id="180608862" order="33" structure_id="1" d="M611.64,621.27   c-4.946,1.08-8.37,3.514-17.04,12.15l-6.146,6.09l-3.75,1.83c-4.38,2.13-10.47,4.38-18.45,6.813c-3.12,0.93-6.12,1.979-6.63,2.276   c-1.771,1.054-2.4,3.54-1.44,5.521c0.632,1.35,1.41,1.8,4.2,2.55c6.15,1.59,12.21,1.53,28.92-0.33c4.5-0.51,9.63-0.18,13.354,0.813   c1.646,0.42,3.869,0.986,4.947,1.229c2.521,0.602,8.069,0.66,10.199,0.12c6.66-1.65,14.73-9.9,20.131-20.61   c1.5-2.908,1.619-3.328,1.592-5.188c-0.029-3.63-1.739-5.91-6.723-8.854c-3.119-1.856-6.33-3.21-9.6-4.078   C621.57,620.64,615.24,620.49,611.64,621.27z" style="stroke:black;fill:#BFDAE3"/><path id="180623552" parent_id="180608862" order="34" structure_id="1" d="M712.2,492.57   c-2.16,0.688-3.604,1.438-6.21,3.3c-3.54,2.49-7.62,6.63-9.63,9.72c-2.82,4.354-8.764,16.53-8.764,17.97   c0,2.313,4.804,7.86,8.7,10.054c5.16,2.88,12.36,4.35,19.021,3.84l2.88-0.21l0.566-1.894c1.384-4.406,3.03-14.34,3.962-23.396   c0.632-6.33-0.092-12.99-1.802-16.26C719.22,492.36,716.19,491.28,712.2,492.57z" style="stroke:black;fill:#BFDAE3"/><path id="180623552" parent_id="180608862" order="35" structure_id="1" d="M614.4,466.08   c-4.771,1.26-13.804,4.38-22.41,7.71c-6.394,2.46-8.79,3.57-11.104,5.01c-3.18,2.01-7.89,4.38-12.39,6.24   c-1.56,0.66-2.88,1.38-2.94,1.62c-0.18,0.84,8.462,5.37,13.29,6.93c5.854,1.92,11.974,2.55,19.74,2.01   c5.82-0.39,9.03-0.236,14.25,0.634c5.94,0.986,12.18,2.786,20.46,5.88c7.05,2.606,10.144,3.39,13.71,3.39   c1.563,0,3.09-0.15,3.42-0.3c0.99-0.54,1.474-1.92,1.474-4.26c-0.03-4.474-0.03-4.474-7.92-13.264   c-2.49-2.79-5.73-6.566-7.174-8.396c-7.229-9.12-9.236-11.16-12.776-12.96C621.63,465.12,618.24,465.03,614.4,466.08z" style="stroke:black;fill:#BFDAE3"/><path id="180623552" parent_id="180608862" order="36" structure_id="1" d="M628.65,503.73   c-8.434,5.64-15.394,8.46-24.21,9.75c-4.2,0.6-12.934,0.446-16.44-0.33c-4.71-1.054-8.67-3.15-11.7-6.271   c-0.896-0.93-1.77-1.68-1.979-1.68c-0.184,0-0.57,0.81-0.87,1.77c-0.51,1.71-0.51,1.95-0.063,4.74   c1.32,7.8,1.563,11.55,1.563,24.689c0,10.288-0.12,13.737-0.54,17.851c-1.11,10.14-2.49,18.27-4.771,27.84   c-1.08,4.563-1.196,5.4-0.81,5.643c0.93,0.601,6.9,2.788,10.29,3.75c11.28,3.237,22.56,3.841,34.438,1.737   c8.7-1.5,13.384-2.88,18.69-5.52c4.56-2.25,7.83-4.71,12-9.03c3.45-3.57,8.55-10.021,8.55-10.83c0-0.271-0.479-0.6-1.14-0.78   c-4.2-1.26-6.51-6.27-4.894-10.59c0.961-2.58,2.28-4.35,5.49-7.529l2.94-2.881l0.479-2.97c0.722-4.649,0.87-15.24,0.302-20.76   c-0.722-6.75-2.188-13.17-3.778-16.62c-0.45-0.9-1.052-1.021-1.92-0.36c-1.5,1.144-7.771,0.21-14.04-2.066   c-2.104-0.75-4.052-1.381-4.354-1.381C631.59,501.93,630.15,502.74,628.65,503.73z" style="stroke:black;fill:#BFDAE3"/><path id="180623552" parent_id="180608862" order="37" structure_id="1" d="M542.94,504.66l-0.36-3.394l-0.99-0.42c-0.54-0.236-0.99-0.566-0.99-0.72c0-0.296-0.233-0.364-0.584-0.25   v94.693c1.396,0.077,2.688-1.112,3.558-3.423c1.41-3.78,2.276-13.712,2.606-29.7C546.51,546.42,545.55,529.68,542.94,504.66z" style="stroke:black;fill:#BFDAE3"/><path id="180623552" parent_id="180608862" order="38" structure_id="1" d="M549.3,469.17   c-2.46,0.75-4.8,2.97-5.76,5.43c-0.57,1.474-0.66,2.49-0.84,9.304c-0.184,7.38-0.21,7.77-1.17,11.188   c-1.11,4.11-1.144,5.4-0.063,5.55c1.11,0.184,2.37-1.29,3.03-3.54c0.93-3.146,1.2-5.52,1.2-11.25c0-7.38,0.66-9.75,3.87-14.066   C551.61,469.05,551.55,468.51,549.3,469.17z" style="stroke:black;fill:#BFDAE3"/><path id="180623552" parent_id="180608862" order="39" structure_id="1" d="M608.55,435.66   c-0.87,0.45-5.25,6.12-5.25,6.81c0,0.78,0.57,1.17,2.34,1.563c2.94,0.688,7.29-0.63,8.7-2.67c1.354-1.92,0.96-4.563-0.84-5.49   C612.36,435.24,609.57,435.12,608.55,435.66z" style="stroke:black;fill:#BFDAE3"/><path id="180623552" parent_id="180608862" order="40" structure_id="1" d="M574.44,341.94   c-2.554,3.93-8.224,9.51-14.4,14.25c-1.8,1.35-3.24,2.61-3.24,2.79s1.021,0.84,2.28,1.47c2.7,1.32,5.37,3.84,6.45,6.12   c0.39,0.84,0.84,1.53,0.989,1.53c0.147,0,3-1.35,6.301-2.97c6.449-3.21,10.38-5.61,13.856-8.49c2.25-1.83,4.62-4.62,4.62-5.37   c0-0.99-14.01-11.07-15.356-11.07C575.73,340.2,575.04,340.98,574.44,341.94z" style="stroke:black;fill:#BFDAE3"/><path id="180623552" parent_id="180608862" order="41" structure_id="1" d="M615.81,369.78c-0.09-0.18-1.646-2.46-3.479-5.04c-1.83-2.58-4.41-6.42-5.76-8.55   c-4.38-6.93-9.184-13.14-16.144-20.79c-4.41-4.86-4.38-4.8-4.83-13.8c-0.51-11.1-1.229-15.36-4.05-24.9   c-1.74-5.91-2.91-8.28-7.89-15.87c-5.28-8.01-6.63-10.59-6.87-13.08c-0.21-1.98,0.21-1.95-4.44-0.33   c-5.85,2.01-16.196,3.78-22.29,3.78c-0.014,0-0.027-0.001-0.044-0.001v58.868c1.021-0.014,2.002,0.002,2.928,0.053   c5.22,0.27,14.066,1.95,19.26,3.66c9.39,3.09,20.97,9.93,29.88,17.73c5.4,4.71,13.47,14.31,18.66,22.2   c1.77,2.67,3.39,4.86,3.566,4.86c0.21,0.03,0.45-0.27,0.54-0.66C615.18,376.38,615.93,370.11,615.81,369.78z" style="stroke:black;fill:#BFDAE3"/><path id="180623552" parent_id="180608862" order="42" structure_id="1" d="M569.4,491.22c0,1.684,1.196,6.42,2.22,8.67   c2.07,4.71,5.91,8.854,10.14,10.98c3.3,1.649,6.394,2.37,11.644,2.76c9.986,0.69,19.316-1.17,27.896-5.61   c3.99-2.066,9.9-5.85,9.9-6.326c0-0.424-7.59-2.94-12.3-4.11c-7.23-1.74-7.684-1.8-20.25-1.83c-10.95,0-11.881-0.06-14.764-0.688   c-3.81-0.842-7.526-2.132-10.979-3.842c-1.47-0.72-2.854-1.316-3.09-1.316C569.52,489.9,569.4,490.29,569.4,491.22z" style="stroke:black;fill:#BFDAE3"/><path id="180623552" parent_id="180608862" order="43" structure_id="1" d="M714.9,399.81   c-0.42,0.813-1.563,2.25-2.554,3.24c-3.446,3.45-8.34,5.25-14.58,5.34c-1.8,0.03-3.27,0.15-3.27,0.271c0,0.09,0.87,3.06,1.92,6.6   c1.05,3.511,2.07,7.11,2.311,7.95c0.329,1.44,0.479,1.59,1.199,1.59c1.11,0,5.4-0.896,12.813-2.7c3.447-0.81,6.54-1.5,6.896-1.5   c0.69,0,0.63,0.21,1.41-5.188c0.57-4.021,0.57-5.313,0.063-5.313c-0.212,0-0.569,0.48-0.779,1.054c-0.87,2.46-4.2,3.776-5.313,2.1   c-0.566-0.87-0.479-2.13,0.66-9.3c0.392-2.49,0.721-4.74,0.721-5.04C716.4,397.95,715.65,398.4,714.9,399.81z" style="stroke:black;fill:#BFDAE3"/><path id="180623552" parent_id="180608862" order="44" structure_id="1" d="M729.33,466.29   c-1.561,0.78-1.98,1.83-1.95,4.8c0,2.313,0.18,3.21,0.99,5.61c1.89,5.46,3.63,8.01,5.82,8.52c1.229,0.3,3.356-0.75,3.96-1.95   c1.736-3.326-2.224-14.52-5.94-16.77C731.1,465.81,730.35,465.75,729.33,466.29z" style="stroke:black;fill:#BFDAE3"/><path id="180623552" parent_id="180608862" order="45" structure_id="1" d="M648.66,573.72   c-3.24,4.08-8.58,9.21-11.79,11.37c-3.03,2.01-7.23,4.05-10.62,5.16c-5.82,1.89-14.61,3.57-21.63,4.08   c-10.44,0.75-22.23-1.17-32.67-5.28c-1.95-0.78-3.63-1.29-3.75-1.14c-0.3,0.33-1.5,4.71-1.5,5.46c0,0.54,0.18,0.63,1.438,0.63   c3.21,0,9.69,1.229,14.313,2.7c3.18,1.02,16.74,7.68,21.51,10.56c4.62,2.82,7.74,5.104,7.74,5.7c0,0.36,0.24,0.54,0.75,0.54   c0.96,0,2.76,1.59,3,2.64c0.09,0.45-0.03,1.5-0.3,2.313c-0.69,2.34-0.813,2.25,2.52,2.25c5.91,0,11.101,1.527,17.55,5.16   c1.17,0.656,1.801,0.867,1.894,0.63c0.27-0.724,4.47-1.38,7.56-1.2c1.59,0.12,3.24,0.27,3.72,0.39c1.11,0.271,1.054-0.27-0.18-2.04   c-2.34-3.27-4.26-9.146-4.62-14.04c-0.45-6.538,2.313-20.038,6.813-33.446C652.68,569.37,652.41,569.01,648.66,573.72z" style="stroke:black;fill:#BFDAE3"/><path id="180623552" parent_id="180608862" order="46" structure_id="1" d="M690.6,469.14   c-2.79,1.563-10.316,4.563-17.369,6.87l-6.091,2.01l0.184,2.73c0.12,1.47,0.42,4.41,0.688,6.51c0.36,3.063,0.394,4.2,0.12,5.79   c-1.05,5.91-4.979,12.99-8.43,15.09c-1.563,0.96-1.771,0.99-3.813,0.87c-1.198-0.09-2.188-0.026-2.188,0.09   c0,0.15,0.33,1.594,0.72,3.211c2.37,9.479,2.85,22.803,1.2,32.103c-0.24,1.32,0.18,1.29,2.7-0.36c5.22-3.39,9.72-3.566,12.51-0.54   c1.17,1.23,1.77,2.61,1.77,3.99c0,0.93,0.12,1.23,0.45,1.142c0.57-0.119,9.78-15.932,12.3-21.092l1.894-3.896l0.63-7.051   c0.72-7.859,2.46-24.689,3.18-30.899c0.723-6.03,1.95-15.601,2.13-16.74C693.42,467.73,693.09,467.73,690.6,469.14z" style="stroke:black;fill:#BFDAE3"/><path id="180623552" parent_id="180608862" order="47" structure_id="1" d="M712.2,492.57   c-2.16,0.688-3.604,1.438-6.21,3.3c-3.54,2.49-7.62,6.63-9.63,9.72c-2.82,4.354-8.764,16.53-8.764,17.97   c0,2.313,4.804,7.86,8.7,10.054c5.16,2.88,12.36,4.35,19.021,3.84l2.88-0.21l0.566-1.894c1.384-4.406,3.03-14.34,3.962-23.396   c0.632-6.33-0.092-12.99-1.802-16.26C719.22,492.36,716.19,491.28,712.2,492.57z" style="stroke:black;fill:#BFDAE3"/><path id="180623552" parent_id="180608862" order="48" structure_id="1" d="M685.59,527.34   c-1.229,2.521-2.37,4.5-9.84,17.46c-1.95,3.394-3.93,7.2-4.41,8.49c-1.29,3.57-3.09,11.07-6.688,28.11   c-2.521,11.816-1.144,19.26,3.688,19.736c3.03,0.271,5.46-1.979,9.21-8.58c5.61-9.866,12.813-19.71,29.37-40.106   c7.8-9.57,9.24-11.4,10.05-12.75c1.23-2.04,1.264-2.011-4.83-2.19c-4.59-0.12-5.97-0.27-8.37-0.896   c-6.866-1.803-12.06-5.344-15.06-10.29c-0.51-0.87-1.17-1.59-1.41-1.59C687.03,524.73,686.34,525.78,685.59,527.34z" style="stroke:black;fill:#BFDAE3"/><path id="180623552" parent_id="180608862" order="49" structure_id="1" d="M544.29,601.17c-0.87,0.12-1.74,0.39-1.95,0.63   c-0.3,0.36-0.359,8.91-0.24,42.21c0.15,41.73,0.15,41.76,0.78,42.604c1.021,1.38,16.68,9.688,24.42,12.96   c7.144,3,14.46,4.35,23.7,4.35c6.48,0.03,9.12-0.3,13.23-1.647c7.77-2.521,19.14-11.013,33.39-24.899   c7.29-7.11,9.78-10.29,13.38-17.13c3.63-6.932,5.76-12.87,7.77-21.69c0.69-2.97,1.5-6.237,1.83-7.26   c0.813-2.49,0.78-2.91-0.06-2.67c-1.5,0.42-4.35,0.54-5.49,0.21c-0.66-0.18-2.13-0.87-3.21-1.53c-2.396-1.438-4.95-2.1-8.13-2.1   c-2.94,0-6.51,0.75-6.51,1.41c0,0.237,0.688,1.05,1.5,1.8c1.95,1.77,2.76,3.33,2.938,5.79c0.12,1.92,0.12,1.979-2.01,6.146   c-2.76,5.462-5.396,9.12-9.479,13.23c-3.75,3.75-6.12,5.46-9.063,6.479c-1.77,0.604-2.607,0.69-6.24,0.69   c-3.96,0-4.438-0.09-8.396-1.17c-3.84-1.08-4.59-1.2-8.88-1.32c-3.15-0.09-6.091,0.03-9,0.36c-12.48,1.38-18.96,1.5-23.974,0.479   c-1.736-0.356-3.72-0.896-4.406-1.196c-2.644-1.17-3.423-4.384-1.594-6.69c0.33-0.42,0.604-0.87,0.604-1.021   c0-0.149-0.63-0.449-1.41-0.659c-2.46-0.63-3.811-1.65-5.37-3.96c-2.7-4.054-4.05-8.82-4.59-16.021   c-0.45-5.97-0.42-8.97,0.12-10.29c1.62-3.84,4.229-4.229,16.05-2.31c13.35,2.188,18.69,2.816,33.15,3.93   c12.479,0.96,11.76,0.93,14.76,0.271l2.46-0.54l0.54-1.38c0.87-2.28,0.72-3.514-0.604-4.714c-0.93-0.866-1.316-1.02-2.52-1.02   c-4.23-0.03-14.19-0.63-17.19-1.05c-8.066-1.144-13.35-2.73-22.26-6.78c-7.35-3.33-8.607-3.78-12.24-4.32   C557.19,600.9,547.41,600.78,544.29,601.17z" style="stroke:black;fill:#BFDAE3"/><path id="180623552" parent_id="180608862" order="50" structure_id="1" d="M742.95,542.97c-0.45-1.35-1.05-2.13-3.54-4.62c-4.47-4.47-6.604-7.59-8.07-11.816   c-0.3-0.9-0.75-1.98-1.02-2.37c-1.144-1.71-3.24,0.12-4.771,4.2c-1.68,4.35-4.17,10.08-6.06,13.89c-1.5,2.97-2.19,4.83-2.94,7.83   c-3.688,14.521-12.78,27.75-25.646,37.14c-1.894,1.41-2.07,1.684-7.65,10.98c-6.36,10.59-8.67,13.92-15.39,22.316   c-2.521,3.15-4.98,6.33-5.46,7.021c-1.172,1.77-1.83,3.84-3.57,11.31c-2.13,9-4.71,15.99-8.34,22.5   c-3.394,6.094-4.95,8.04-11.91,15c-14.521,14.46-25.893,23.134-34.05,25.923c-6.813,2.341-15.813,2.607-25.684,0.777   c-6.81-1.29-9-2.066-18.146-6.51c-10.05-4.86-17.37-8.94-17.94-9.99c-0.479-0.81-0.51-4.527-0.66-42.18   c-0.146-40.08-0.18-41.34-0.72-41.94c-0.394-0.421-0.885-0.623-1.364-0.624V702.3c6.771,0.002,11.421,0.936,18.104,3.604   c6.03,2.396,12.75,3.33,24.03,3.33c14.64,0.026,20.43-1.563,36.896-10.054c21.51-11.13,38.04-24.18,47.37-37.409   c0.99-1.381,2.28-3.061,2.88-3.721c2.313-2.46,6.271-8.279,14.76-21.566c2.94-4.594,6.604-10.054,8.16-12.15   c7.563-10.2,24.302-35.16,35.82-53.43c4.53-7.17,9.78-15.45,11.7-18.394C743.61,546.51,743.85,545.73,742.95,542.97z" style="stroke:black;fill:#BFDAE3"/><path id="180623552" parent_id="180608862" order="51" structure_id="1" d="M560.94,452.46   c-0.57,0.87-1.74,2.61-2.58,3.84c-1.771,2.644-6.96,12.394-6.96,13.08c0,0.36,0.18,0.45,0.688,0.3   c3.09-0.896,5.34-0.87,13.563,0.271c8.038,1.08,12.356,0.146,16.288-3.57c2.278-2.13,6.962-7.59,6.962-8.13   c0-1.47-10.474-4.59-23.134-6.87C562.08,450.69,562.14,450.69,560.94,452.46z" style="stroke:black;fill:#BFDAE3"/><path id="180623552" parent_id="180608862" order="52" structure_id="1" d="M568.26,431.31c0.03,4.23-1.8,10.74-4.5,16.23   c-0.81,1.62-1.26,2.88-1.08,3.03c0.15,0.12,1.684,0.479,3.42,0.75c8.16,1.35,16.054,3.42,20.94,5.486   c1.38,0.604,2.61,0.96,2.729,0.813c0.12-0.15,1.41-1.65,2.854-3.33c1.438-1.71,3.51-4.08,4.62-5.25c2.67-2.88,5.76-6.72,5.76-7.11   c0-0.39-2.25-1.56-4.95-2.58c-2.88-1.077-8.85-2.67-14.55-3.896c-2.729-0.604-5.61-1.29-6.45-1.53c-1.95-0.63-4.8-2.22-6.72-3.72   c-0.84-0.66-1.65-1.2-1.8-1.2C568.38,429,568.26,430.05,568.26,431.31z" style="stroke:black;fill:#BFDAE3"/><path id="180623552" parent_id="180608862" order="53" structure_id="1" d="M568.11,430.62c-0.094-0.9-0.45-2.104-0.813-2.67c-1.62-2.61-4.14-2.58-12.3,0.146l-5.55,1.894l-5.07,0.3   c-1.609,0.104-3.017,0.162-4.364,0.175v18.037c4.444,0.023,14.938,1,20.896,1.979l1.26,0.183l1.41-2.79   C566.28,442.47,568.47,434.13,568.11,430.62z" style="stroke:black;fill:#BFDAE3"/><path id="180623552" parent_id="180608862" order="54" structure_id="1" d="M557.79,450.18c-6.942-0.887-14.617-1.58-17.774-1.628v50.277c0.006,0.001,0.014,0.01,0.018,0.011   c0.3,0.063,0.688-1.02,1.41-3.896c0.896-3.724,0.986-4.32,0.96-9.094c0-2.816,0.146-6.27,0.3-7.646c0.63-5.34,3.27-8.4,8.1-9.42   c0.604-0.12,1.08-0.813,2.49-3.66c2.04-4.08,4.71-8.58,6.81-11.49c0.844-1.107,1.5-2.25,1.5-2.49   C561.6,450.78,560.82,450.57,557.79,450.18z" style="stroke:black;fill:#BFDAE3"/><path id="180623552" parent_id="180608862" order="55" structure_id="1" d="M631.59,432.57c-2.55,0.42-4.8,3.12-5.1,6.18   c-0.15,1.38-0.063,1.89,0.63,3.27c1.92,3.934,6.12,6.15,15.63,8.28c9.63,2.16,14.94,2.82,20.79,2.61   c4.89-0.15,6.75-0.72,10.08-2.94c4.8-3.21,6.899-7.02,5.43-9.87c-0.84-1.616-3.989-3.026-9.33-4.196   c-4.29-0.934-18.54-2.94-23.37-3.304C641.76,432.27,633.57,432.27,631.59,432.57z" style="stroke:black;fill:#BFDAE3"/><path id="180623552" parent_id="180608862" order="56" structure_id="1" d="M616.8,425.82   c-0.75,0.688-1.5,1.35-1.68,1.41c-0.42,0.146-6.12,7.35-6.12,7.71c0,0.146,0.78,0.27,1.74,0.236c2.04,0,3.45,0.66,4.106,1.92   c1.86,3.604-2.34,7.41-7.856,7.144c-1.65-0.09-2.37-0.271-3.09-0.78c-0.514-0.39-1.054-0.66-1.17-0.6   c-0.12,0.06-1.29,1.35-2.58,2.906c-2.134,2.58-2.49,3.184-3.9,6.9c-3.03,7.8-7.95,18.39-9.9,21.24c-0.84,1.29-0.96,1.89-0.3,1.89   c0.24,0,3.78-1.26,7.86-2.816c9.146-3.48,14.25-5.25,19.38-6.66c6.479-1.804,9.27-1.474,13.47,1.68c2.432,1.86,4.11,3.66,8.25,8.94   c4.92,6.3,11.61,13.856,12.3,13.856c0.36,0,0.421-0.33,0.24-1.89c-0.3-2.61-1.2-6.9-2.399-11.46c-0.567-2.16-1.229-5.13-1.5-6.604   c-0.931-5.22-0.42-13.92,0.899-15.96c0.63-0.96,2.16-1.856,3.54-2.066c0.66-0.12,1.11-0.36,1.11-0.604   c0-0.239-0.093-0.42-0.184-0.42c-0.09,0-2.64-0.54-5.606-1.229c-6.21-1.41-9.33-2.46-11.881-4.021c-2.882-1.74-4.17-3.45-7.17-9.51   c-2.433-4.95-5.159-11.37-5.159-12.21C619.2,424.11,618.09,424.59,616.8,425.82z" style="stroke:black;fill:#BFDAE3"/><path id="180623552" parent_id="180608862" order="57" structure_id="1" d="M647.01,453.12   c-0.66,0.24-1.47,0.72-1.856,1.08c-1.5,1.41-2.343,8.606-1.684,14.396c0.21,1.74,0.96,5.434,1.684,8.25   c1.407,5.46,2.366,10.2,2.696,13.354c0.211,1.74,0.36,2.1,1.894,3.96c1.229,1.56,1.739,2.49,2.04,3.78   c0.51,2.1,0.54,3.986,0.09,5.46c-0.3,1.02-0.271,1.29,0.66,3.026c0.87,1.65,1.199,1.98,2.22,2.34c2.67,0.934,5.61-0.39,7.92-3.479   c1.68-2.28,4.351-7.83,4.95-10.32c0.6-2.46,0.6-4.47,0-9.42c-0.54-4.646-0.63-12.39-0.15-15.27c0.21-1.144,0.842-3.57,1.44-5.4   c2.52-7.62,0.896-9.99-7.771-11.43C657.09,452.76,648.48,452.55,647.01,453.12z" style="stroke:black;fill:#BFDAE3"/><path id="180623552" parent_id="180608862" order="58" structure_id="1" d="M700.8,455.07   c-2.396,0.776-4.41,2.696-5.55,5.25c-2.58,5.85-3.09,21.566-0.9,27.776c1.44,4.144,4.771,5.82,8.16,4.17   c4.894-2.366,7.98-11.486,7.98-23.67c0-7.229-1.053-10.646-3.87-12.776c-0.933-0.724-1.44-0.87-3.09-0.934   C702.45,454.86,701.22,454.92,700.8,455.07z" style="stroke:black;fill:#BFDAE3"/><path id="180623552" parent_id="180608862" order="59" structure_id="1" d="M715.2,421.5c-6.87,1.74-12.84,3-16.95,3.6   c-4.98,0.724-7.59,1.44-9.54,2.67c-2.28,1.474-2.67,2.344-2.55,5.764c0.146,3.986,0.896,5.46,3.39,6.72   c1.771,0.9,1.86,0.9,6.45,0.87c6.48-0.063,11.85-0.87,18.66-2.854l3.18-0.93l0.18-1.41c0.99-7.979,1.684-13.946,1.684-14.58   C719.7,420.39,719.55,420.42,715.2,421.5z" style="stroke:black;fill:#BFDAE3"/><path id="180623552" parent_id="180608862" order="60" structure_id="1" d="M615.81,363.51   c0.394,2.34,0.184,8.07-0.479,12.3c-0.75,4.71-0.78,7.71-0.15,11.31c0.724,4.17,1.684,6.84,3.03,8.49   c2.37,2.82,4.05,6.78,4.44,10.44c0.356,3.271-1.08,11.01-2.91,15.36l-0.9,2.188l0.54,1.563c0.96,2.97,2.25,6.09,4.23,10.2   c1.89,3.896,2.79,5.04,2.79,3.42c0-1.92,1.438-4.264,3.42-5.55c0.657-0.424,1.979-1.563,2.938-2.464   c4.021-3.986,13.92-7.286,20.313-6.75c6.356,0.514,17.58,2.854,21.72,4.5c2.1,0.844,2.608,0.934,2.608,0.45   c0-0.146-2.132-4.14-4.711-8.816l-4.71-8.521l-1.857-0.3c-4.74-0.84-8.643-2.61-14.67-6.66c-6.271-4.229-10.473-8.16-17.79-16.71   c-7.62-8.85-9.96-12.21-14.313-20.4C616.32,361.89,615.33,360.75,615.81,363.51z" style="stroke:black;fill:#BFDAE3"/><path id="180623552" parent_id="180608862" order="61" structure_id="1" d="M614.22,410.19c-8.67-4.174-17.31-7.29-27.33-9.87c-8.04-2.04-18.06-3.724-22.35-3.724   c-1.38,0-1.44,0.063-2.07,1.264c-1.106,2.156-2.1,5.04-3.3,9.688c-2.49,9.54-5.55,13.32-12.57,15.51   c-1.92,0.57-2.88,0.69-6.446,0.69c-0.048,0-0.091-0.002-0.138-0.002v6.451c0.107,0,0.205,0.001,0.314,0.001   c7.32,0,9.18-0.271,14.37-2.104c4.95-1.736,8.34-2.52,9.78-2.276c0.656,0.146,1.646,0.776,2.696,1.71   c3.36,3.026,6.57,5.1,9.54,6.18c0.69,0.24,3.12,0.81,5.4,1.32c9.146,1.947,14.97,3.658,19.05,5.58c1.83,0.867,2.25,0.986,2.58,0.63   c1.11-1.17,10.83-13.74,11.55-14.91c1.41-2.28,2.82-6.063,2.82-7.563c0.03-0.75,0.21-1.59,0.45-1.856   c0.21-0.271,0.479-1.354,0.54-2.4l0.146-1.89L614.22,410.19z" style="stroke:black;fill:#BFDAE3"/><path id="180623552" parent_id="180608862" order="62" structure_id="1" d="M565.53,367.32c-1.71-3.63-5.07-6.42-9.45-7.77c-3.12-0.96-4.771-1.92-8.28-4.92   c-1.8-1.53-3.356-2.58-4.2-2.85c-1.01-0.336-2.419-0.565-3.584-0.632v72.271c6.145-0.002,10.397-1.442,13.484-4.589   c2.43-2.49,3.72-5.19,5.13-10.771c1.29-5.01,2.73-8.97,4.32-11.906C566.76,389.22,568.2,373.05,565.53,367.32z" style="stroke:black;fill:#BFDAE3"/><path id="180623552" parent_id="180608862" order="63" structure_id="1" d="M690.6,469.14   c-2.79,1.563-10.316,4.563-17.369,6.87l-6.091,2.01l0.184,2.73c0.12,1.47,0.42,4.41,0.688,6.51c0.36,3.063,0.394,4.2,0.12,5.79   c-1.05,5.91-4.979,12.99-8.43,15.09c-1.563,0.96-1.771,0.99-3.813,0.87c-1.198-0.09-2.188-0.026-2.188,0.09   c0,0.15,0.33,1.594,0.72,3.211c2.37,9.479,2.85,22.803,1.2,32.103c-0.24,1.32,0.18,1.29,2.7-0.36c5.22-3.39,9.72-3.566,12.51-0.54   c1.17,1.23,1.77,2.61,1.77,3.99c0,0.93,0.12,1.23,0.45,1.142c0.57-0.119,9.78-15.932,12.3-21.092l1.894-3.896l0.63-7.051   c0.72-7.859,2.46-24.689,3.18-30.899c0.723-6.03,1.95-15.601,2.13-16.74C693.42,467.73,693.09,467.73,690.6,469.14z" style="stroke:black;fill:#BFDAE3"/><path id="180623552" parent_id="180608862" order="64" structure_id="1" d="M678.06,407.55   c-3.446,0.75-9.96,3.54-9.96,4.26c0,0.604,9.87,18.394,10.83,19.5c1.08,1.264,1.41,3.271,0.87,5.49c-0.24,0.9-0.39,2.76-0.33,4.11   c0.09,3.146-0.63,4.68-3.42,7.229c-2.88,2.644-5.88,4.08-10.41,5.014c-1.229,0.236-1.02,0.84,0.54,1.47   c4.021,1.646,4.86,4.17,3.12,9.359c-1.316,3.811-1.8,6.357-2.01,10.381c-0.15,3.146-0.12,3.54,0.3,3.54   c0.75,0,10.65-3.33,15.45-5.224c2.37-0.896,5.61-2.34,7.26-3.18l2.94-1.53l0.21-1.56c0.33-2.37,1.5-5.88,2.606-7.681   c1.2-1.979,3.24-3.449,5.37-3.899c4.771-1.021,7.894,2.04,8.974,8.76c0.479,2.91,0.236,10.563-0.45,14.46   c-1.59,9.21-5.46,14.94-10.11,14.972c-3.81,0-6.03-3.842-7.02-12.212c-0.092-0.84-0.304-1.406-0.54-1.406   c-0.271,0-0.604,2.1-1.2,7.406c-0.84,7.712-3.48,33.271-3.48,33.9c0,0.21,0.184,0.39,0.394,0.39s0.75-0.896,1.229-2.04   c1.53-3.566,5.25-10.68,7.08-13.5c3-4.616,8.854-9.81,13.8-12.18c2.104-1.02,2.94-1.26,4.713-1.35c1.921-0.09,2.341,0,3.479,0.66   c3.12,1.828,4.771,6.688,4.771,14.156c0.027,8.16-2.729,25.41-4.923,30.54c-0.986,2.37-1.59,3.21-6.54,9.36   c-22.71,28.2-28.526,36.06-34.077,45.99c-3.933,7.08-7.529,9.75-10.829,8.04c-2.854-1.474-4.144-8.04-2.974-15.184   c0.42-2.52,4.593-21.96,5.46-25.229c0.48-1.95,0.54-2.97,0.15-2.97c-0.15,0-1.83,1.526-3.688,3.356   c-4.383,4.354-8.013,6.51-11.04,6.54c-1.263,0-0.96-0.6-3.779,7.62c-4.83,14.16-7.681,27.87-7.23,34.68   c0.57,7.86,4.41,15.66,8.94,18.15c1.319,0.688,2.069,0.897,4.109,0.99c3.75,0.21,4.891-0.21,6.601-2.46   c0.75-1.021,2.729-3.514,4.41-5.58c4.35-5.4,7.35-9.394,9.869-13.263c3.688-5.697,15.027-25.021,19.08-32.487   c1.83-3.394,3.777-6.12,10.647-15c9.48-12.24,9.63-12.45,12.3-18c6.78-14.013,7.473-17.07,7.83-34.5   c0.21-9.093-0.12-15.24-0.896-16.383c-0.302-0.511-0.45-1.38-0.45-2.67c0.029-1.5-0.271-3.027-1.38-6.75   c-5.761-19.351-7.11-26.221-7.144-35.697c0-3.15,0.093-6.303,0.24-7.021l0.21-1.319l-0.84,0.183c-0.479,0.09-2.97,0.688-5.521,1.35   c-5.608,1.44-10.771,2.16-15.722,2.16c-5.729,0-7.857-0.898-9.146-3.87c-0.813-1.89-1.144-5.278-0.66-6.72   c0.84-2.521,4.648-4.59,10.021-5.43c1.439-0.211,2.699-0.48,2.819-0.57c0.09-0.12-0.061-1.05-0.33-2.07   c-0.66-2.34-4.08-13.856-4.17-13.92c-0.148-0.18-12.33-1.62-13.319-1.59C680.46,407.13,679.11,407.34,678.06,407.55z" style="stroke:black;fill:#BFDAE3"/><path id="180623552" parent_id="180608862" order="65" structure_id="1" d="M796.59,322.86   c-9.93,12.75-20.188,26.67-20.188,27.36c0,0.18,0.96,2.55,2.13,5.25c2.58,6,5.396,14.34,8.79,26.16   c4.316,15.09,6.236,22.68,11.88,47.22c1.77,7.65,4.74,19.92,5.58,22.86c0.18,0.6,1.02,1.021,1.02,0.51   c0-0.33,15.9-115.74,16.05-116.52c0.12-0.63-0.42-1.35-3.356-4.53c-1.95-2.07-6.03-6.69-9.063-10.26   c-3.026-3.57-5.67-6.51-5.88-6.51S800.22,318.21,796.59,322.86z" style="stroke:black;fill:#BFDAE3"/><path id="180623552" parent_id="180608862" order="66" structure_id="1" d="M825.6,338.52   c0,0.51,30.514,193.47,30.75,194.49c0.094,0.394,0.36,0.69,0.631,0.69c1.229,0,10.079-7.021,15.539-12.3   c4.174-4.054,7.23-7.53,13.65-15.57c14.37-18,23.22-31.83,26.85-41.97c1.11-3.12,1.98-7.71,1.98-10.5v-2.37l-1.561-1.771   c-4.473-5.066-20.159-23.486-26.069-30.566c-30.45-36.51-50.521-62.792-59.37-77.76C826.47,338.31,825.6,337.47,825.6,338.52z" style="stroke:black;fill:#BFDAE3"/><path id="180623552" parent_id="180608862" order="67" structure_id="1" d="M821.85,336.66   c-0.479,2.82-16.05,116.52-16.05,117.24c0,1.14,1.53,5.486,3.15,8.88c2.58,5.52,5.91,9.356,9.87,11.396   c1.229,0.63,2.34,1.054,2.46,0.934s0.72-31.29,1.316-69.304c1.021-61.979,1.08-69.12,0.66-69.6   C822.57,335.43,822.06,335.58,821.85,336.66z" style="stroke:black;fill:#BFDAE3"/><path id="180623552" parent_id="180608862" order="68" structure_id="1" d="M826.8,338.43c0,0.87,7.23,11.97,13.17,20.22   c13.65,18.99,37.65,48.84,63.604,79.02c4.89,5.67,9.18,10.71,9.566,11.19c0.394,0.446,0.9,0.84,1.144,0.84c1.05,0,0.06-3.9-2.28-9   c-2.49-5.37-2.37-6.24,1.29-11.04c5.76-7.563,7.41-9.813,7.38-10.26c0-0.24-3.479-3.45-7.71-7.08   c-13.14-11.313-38.58-33.813-69.6-61.53C829.71,338.55,829.14,338.1,828,338.1C827.31,338.1,826.8,338.25,826.8,338.43z" style="stroke:black;fill:#BFDAE3"/><path id="180623552" parent_id="180608862" order="69" structure_id="1" d="M824.7,323.07c0,0.15,0.54,1.35,1.2,2.67   c2.25,4.53,3.27,7.8,3.33,10.71l0.06,1.68l19.229,17.16c46.317,41.37,71.577,63.51,72.421,63.51c1.229,0,6.776-10.41,9.06-16.95   c1.47-4.29,3.3-11.43,4.26-16.646c0.87-4.83,0.934-14.61,0.12-20.25c-1.29-9.18-2.817-15.42-6.99-28.59   c-2.34-7.35-3.026-8.97-3.446-7.89c-0.03,0.12-21.96-1.08-48.69-2.7c-26.729-1.62-49.05-2.94-49.56-2.97   C825.15,322.8,824.7,322.92,824.7,323.07z" style="stroke:black;fill:#BFDAE3"/><path id="180623552" parent_id="180608862" order="70" structure_id="1" d="M845.25,269.85   c-19.95,14.4-36.42,26.4-36.57,26.64c-0.21,0.33,0.514,1.68,2.88,5.22c5.37,8.07,8.884,13.71,11.344,18.3l1.316,2.46l1.83,0.18   c2.104,0.18,96.57,5.85,97.74,5.85c1.11,0,1.05-0.45-0.42-5.04c-5.43-16.77-18.57-43.11-36.063-72.3c-3.6-6-4.68-7.56-5.156-7.53   C881.82,243.63,865.23,255.42,845.25,269.85z" style="stroke:black;fill:#BFDAE3"/><path id="180623552" parent_id="180608862" order="71" structure_id="1" d="M739.68,249.66   c-0.3,1.29-4.68,36.21-4.68,37.14c0,0.81,0.09,0.9,0.99,0.9c0.54,0,1.77,0.21,2.7,0.45c5.04,1.32,9.356,5.04,12.06,10.41   c1.89,3.78,2.25,5.91,3.51,20.49c0.48,5.73,0.48,22.14,0,26.85c-0.84,8.1-3.479,23.49-5.31,31.05c-2.37,9.66-4.17,14.04-6.9,16.62   c-3.27,3.124-6.146,2.28-7.92-2.31c-2.13-5.58-2.37-9.57-2.31-40.8c0.026-16.14-0.063-24.06-0.271-24.06   c-0.146,0-1.62,6.51-3.24,14.49l-2.938,14.46v8.01c0.03,8.22-0.42,16.77-1.47,27.42l-0.604,6l0.75,3   c0.42,1.62,1.44,6.33,2.25,10.438c0.84,4.11,1.563,7.563,1.65,7.62c0.33,0.36,1.856-0.45,5.55-2.88   c14.79-9.69,23.7-20.91,23.7-29.79c0-5.25,2.16-10.92,6.84-17.97c6.33-9.45,24.45-34.14,34.38-46.77   c2.76-3.51,4.95-6.54,4.891-6.75c-0.181-0.39-9.21-11.04-15.147-17.88c-2.25-2.55-8.19-8.76-13.26-13.8   c-11.67-11.67-34.11-33-34.684-33C740.01,249,739.74,249.3,739.68,249.66z" style="stroke:black;fill:#BFDAE3"/><path id="180623552" parent_id="180608862" order="72" structure_id="1" d="M802.02,218.91   c-14.816,20.43-27,37.35-27.06,37.65c-0.06,0.36,1.5,2.22,4.68,5.58c9.063,9.48,15.9,17.58,23.554,27.81   c2.46,3.3,4.71,6.03,5.01,6.09c0.688,0.12,73.62-52.41,73.74-53.13c0.146-0.69-8.521-13.68-13.804-20.76   c-7.29-9.78-13.646-17.19-21.688-25.2c-6.394-6.42-16.23-15.15-17.07-15.15C829.17,181.8,816.87,198.51,802.02,218.91z" style="stroke:black;fill:#BFDAE3"/><path id="180623552" parent_id="180608862" order="73" structure_id="1" d="M701.64,244.11   c-9.06,9.06-16.438,16.53-16.438,16.65c0,0.12,0.72,0.84,1.59,1.62c5.31,4.8,10.05,10.17,13.11,14.85   c2.43,3.72,7.83,14.73,10.38,21.12c2.76,6.96,6.688,19.02,8.22,25.2c0.69,2.79,1.65,5.91,2.1,6.9c1.86,3.99,3.304,9.93,4.11,17.16   c0.3,2.61,0.66,4.59,0.84,4.59c0.271,0,6.48-29.43,6.45-30.75c0-0.33,0.36-0.93,0.78-1.32c3.96-3.75,5.188-17.22,2.64-28.68   c-0.81-3.72-0.84-4.29-0.42-6.87c0.48-2.88,4.5-34.77,4.5-35.76c0-0.75-1.38-2.22-10.38-10.92c-5.729-5.52-10.53-10.08-10.74-10.14   C718.2,227.73,710.67,235.08,701.64,244.11z" style="stroke:black;fill:#BFDAE3"/><path id="180623552" parent_id="180608862" order="74" structure_id="1" d="M759.09,142.11   c-10.646,24.09-33.39,76.08-33.39,76.41c0,0.51,0,0.51,4.05,2.88c11.73,6.9,26.64,18.42,40.11,31.02c2.43,2.25,4.5,4.08,4.646,4.05   c0.3,0,54.21-74.25,54.33-74.85c0.063-0.27-0.09-0.63-0.33-0.81c-13.89-11.04-33.479-23.4-53.16-33.54   c-6.146-3.15-14.25-6.87-15-6.87C760.05,140.4,759.57,141.09,759.09,142.11z" style="stroke:black;fill:#BFDAE3"/><path id="180623552" parent_id="180608862" order="75" structure_id="1" d="M667.2,123.21   c-3.934,0.27-10.86,1.11-14.7,1.77c-5.76,0.96-14.4,3.09-14.4,3.54c0,0.18,1.71,2.43,3.813,4.98c2.1,2.55,15.567,18.9,29.938,36.3   c14.37,17.4,28.17,34.17,30.724,37.26l4.59,5.64l1.59-0.18c2.1-0.27,5.13,0.75,11.312,3.69c2.578,1.26,4.892,2.19,5.102,2.1   c0.45-0.15,34.439-77.19,34.439-78c0-0.33-1.409-1.02-4.593-2.25c-20.88-8.16-43.05-13.29-63.869-14.76   C687.18,123.03,670.59,122.97,667.2,123.21z" style="stroke:black;fill:#BFDAE3"/><path id="180623552" parent_id="180608862" order="76" structure_id="1" d="M632.1,130.17   c-2.729,0.96-6.146,2.25-7.646,2.85c-4.62,1.92-12,5.85-16.144,8.55c-5.486,3.63-11.31,8.34-11.31,9.18   c0,0.18,1.32,0.96,2.939,1.77c6.811,3.39,26.311,14.4,57.061,32.28c50.22,29.19,50.04,29.1,49.74,27.75   c-0.09-0.51,1.41,1.38-34.59-42.3c-14.7-17.82-28.474-34.53-30.604-37.14c-2.13-2.58-4.02-4.71-4.2-4.68   C637.2,128.43,634.83,129.21,632.1,130.17z" style="stroke:black;fill:#BFDAE3"/><path id="180623552" parent_id="180608862" order="77" structure_id="1" d="M593.94,153.48   c-5.19,5.4-9.394,12.27-10.174,16.62c-0.986,5.64,1.62,15.87,6.57,25.65c2.37,4.65,3.12,5.73,6.12,8.76   c1.89,1.92,2.64,2.49,3.09,2.37c23.22-5.76,64.65-3.27,101.88,6.12c1.95,0.51,3.75,0.9,3.99,0.9c1.29,0,0.09-1.02-3.93-3.3   c-5.91-3.33-23.19-13.35-43.59-25.2c-39.24-22.8-59.644-34.2-61.144-34.2C596.34,151.2,595.32,152.04,593.94,153.48z" style="stroke:black;fill:#BFDAE3"/><path id="180623552" parent_id="180608862" order="78" structure_id="1" d="M619.8,204.21   c-11.28,0.78-20.1,2.19-20.1,3.21c0,0.78,10.05,8.61,17.46,13.62c8.31,5.58,11.609,7.35,19.29,10.29c2.64,1.02,8.04,3.51,12,5.52   c12.356,6.24,23.069,13.11,33.33,21.36c1.526,1.2,2.97,2.19,3.21,2.19c0.51,0,32.7-32.49,32.85-33.15   c0.063-0.21-1.979-2.55-4.5-5.16c-2.52-2.64-4.92-5.4-5.31-6.15l-0.75-1.38l-5.55-1.38c-19.384-4.77-39.211-7.8-57.9-8.88   C638.88,204.03,623.25,203.97,619.8,204.21z" style="stroke:black;fill:#BFDAE3"/><path id="180623552" parent_id="180608862" order="79" structure_id="1" d="M572.67,202.32c-2.7-8.22-10.56-15.63-20.31-19.14c-4.339-1.542-8.655-2.397-12.348-2.485v75.348   c12.917,0.021,27.207-11.883,32.178-27.323c1.68-5.188,2.04-7.32,2.22-12.87C574.59,210.03,574.2,206.85,572.67,202.32z" style="stroke:black;fill:#BFDAE3"/><path id="180623552" parent_id="180608862" order="80" structure_id="1" d="M615.81,369.78c-0.09-0.18-1.646-2.46-3.479-5.04c-1.83-2.58-4.41-6.42-5.76-8.55   c-4.38-6.93-9.184-13.14-16.144-20.79c-4.41-4.86-4.38-4.8-4.83-13.8c-0.51-11.1-1.229-15.36-4.05-24.9   c-1.74-5.91-2.91-8.28-7.89-15.87c-5.28-8.01-6.63-10.59-6.87-13.08c-0.21-1.98,0.21-1.95-4.44-0.33   c-5.85,2.01-16.196,3.78-22.29,3.78c-0.014,0-0.027-0.001-0.044-0.001v58.868c1.021-0.014,2.002,0.002,2.928,0.053   c5.22,0.27,14.066,1.95,19.26,3.66c9.39,3.09,20.97,9.93,29.88,17.73c5.4,4.71,13.47,14.31,18.66,22.2   c1.77,2.67,3.39,4.86,3.566,4.86c0.21,0.03,0.45-0.27,0.54-0.66C615.18,376.38,615.93,370.11,615.81,369.78z" style="stroke:black;fill:#BFDAE3"/><path id="180623552" parent_id="180608862" order="81" structure_id="1" d="M615.81,369.78c-0.09-0.18-1.646-2.46-3.479-5.04c-1.83-2.58-4.41-6.42-5.76-8.55   c-4.38-6.93-9.184-13.14-16.144-20.79c-4.41-4.86-4.38-4.8-4.83-13.8c-0.51-11.1-1.229-15.36-4.05-24.9   c-1.74-5.91-2.91-8.28-7.89-15.87c-5.28-8.01-6.63-10.59-6.87-13.08c-0.21-1.98,0.21-1.95-4.44-0.33   c-5.85,2.01-16.196,3.78-22.29,3.78c-0.014,0-0.027-0.001-0.044-0.001v58.868c1.021-0.014,2.002,0.002,2.928,0.053   c5.22,0.27,14.066,1.95,19.26,3.66c9.39,3.09,20.97,9.93,29.88,17.73c5.4,4.71,13.47,14.31,18.66,22.2   c1.77,2.67,3.39,4.86,3.566,4.86c0.21,0.03,0.45-0.27,0.54-0.66C615.18,376.38,615.93,370.11,615.81,369.78z" style="stroke:black;fill:#BFDAE3"/><path id="180623552" parent_id="180608862" order="82" structure_id="1" d="M639.3,334.05   c-8.43,1.74-16.08,8.58-18.896,16.95c-1.29,3.87-1.384,11.88-0.15,16.65c1.41,5.55,7.47,14.04,18.72,26.16   c8.37,9.06,18.09,15.48,25.92,17.1c2.94,0.6,2.554,0.66,7.86-1.65c3.6-1.56,6.09-2.16,9.21-2.16h2.58l0.63-1.5   c3.93-9.116,4.74-25.229,1.95-37.77c-1.98-8.91-4.68-14.61-9.393-19.95c-6.237-7.08-15.479-12.18-24.897-13.8   C649.38,333.51,642.12,333.48,639.3,334.05z" style="stroke:black;fill:#BFDAE3"/><path id="180623552" parent_id="180608862" order="83" structure_id="1" d="M590.19,353.22   c-3.063,3.96-10.83,9.15-19.86,13.23c-3.48,1.56-3.93,1.86-3.78,2.4c1.684,5.67,0.394,19.47-2.43,25.62   c-0.39,0.87-0.72,1.708-0.72,1.83s1.59,0.3,3.54,0.394c4.59,0.236,11.066,1.38,18.54,3.21c10.406,2.579,19.92,5.938,28.89,10.229   c2.37,1.142,4.5,2.07,4.74,2.07c0.3,0,0.39-0.69,0.39-3.12c0-4.32-0.3-6.78-0.78-6.78c-0.239,0-0.42,0.3-0.42,0.722   c0,1.352-1.5,1.828-2.188,0.722c-0.24-0.36-0.21-0.722,0.09-1.29c0.356-0.69,0.356-0.813-0.24-1.23c-0.75-0.51-0.87-1.38-0.21-1.92   c0.45-0.356,1.65-0.146,1.65,0.33c0,0.15,0.21,0.271,0.446,0.271c0.75,0,0.54-1.264-0.867-5.644c-1.649-5.04-2.25-7.98-2.521-12.06   l-0.21-3.15l-2.67-4.02c-3.36-5.13-5.94-8.61-9.72-13.11c-3.604-4.29-9.45-10.32-10.021-10.32   C591.63,351.6,590.88,352.32,590.19,353.22z M616.02,396.06c0.48,0.75-0.566,1.83-1.38,1.41c-0.776-0.42-0.986-1.08-0.51-1.65   C614.58,395.25,615.57,395.37,616.02,396.06z" style="stroke:black;fill:#BFDAE3"/><path id="180623552" parent_id="180608862" order="84" structure_id="1" d="M561.48,333.63c-3.214-1.02-10.2-2.49-14.28-3c-1.505-0.202-4.34-0.29-7.188-0.279v20.405   c0.294,0.001,0.587,0.005,0.888,0.035c2.43,0.21,3.96,0.99,7.289,3.75c3.117,2.61,4.801,3.69,6.601,4.26   c1.11,0.36,1.17,0.33,3.57-1.41c3.566-2.58,8.396-6.78,11.64-10.17c2.76-2.88,5.4-6.39,5.4-7.14   C575.4,339.27,566.94,335.37,561.48,333.63z" style="stroke:black;fill:#BFDAE3"/><path id="180623552" parent_id="180608862" order="85" structure_id="1" d="M646.62,424.53   c-5.521,0.93-14.521,5.396-14.521,7.2c0,0.536,0.36,0.566,6.69,0.566c7.41,0,11.37,0.36,21.96,1.95c9.6,1.44,14.31,2.64,16.71,4.2   c0.63,0.42,1.23,0.75,1.38,0.75c0.48,0,0.96-2.28,0.96-4.41c0-2.43-0.6-3.57-2.55-4.95c-2.31-1.62-8.4-3.3-17.31-4.74   C654.18,424.17,649.86,423.99,646.62,424.53z" style="stroke:black;fill:#BFDAE3"/><path id="180623552" parent_id="180608862" order="86" structure_id="1" d="M742.95,542.97c-0.45-1.35-1.05-2.13-3.54-4.62c-4.47-4.47-6.604-7.59-8.07-11.816   c-0.3-0.9-0.75-1.98-1.02-2.37c-1.144-1.71-3.24,0.12-4.771,4.2c-1.68,4.35-4.17,10.08-6.06,13.89c-1.5,2.97-2.19,4.83-2.94,7.83   c-3.688,14.521-12.78,27.75-25.646,37.14c-1.894,1.41-2.07,1.684-7.65,10.98c-6.36,10.59-8.67,13.92-15.39,22.316   c-2.521,3.15-4.98,6.33-5.46,7.021c-1.172,1.77-1.83,3.84-3.57,11.31c-2.13,9-4.71,15.99-8.34,22.5   c-3.394,6.094-4.95,8.04-11.91,15c-14.521,14.46-25.893,23.134-34.05,25.923c-6.813,2.341-15.813,2.607-25.684,0.777   c-6.81-1.29-9-2.066-18.146-6.51c-10.05-4.86-17.37-8.94-17.94-9.99c-0.479-0.81-0.51-4.527-0.66-42.18   c-0.146-40.08-0.18-41.34-0.72-41.94c-0.394-0.421-0.885-0.623-1.364-0.624V702.3c6.771,0.002,11.421,0.936,18.104,3.604   c6.03,2.396,12.75,3.33,24.03,3.33c14.64,0.026,20.43-1.563,36.896-10.054c21.51-11.13,38.04-24.18,47.37-37.409   c0.99-1.381,2.28-3.061,2.88-3.721c2.313-2.46,6.271-8.279,14.76-21.566c2.94-4.594,6.604-10.054,8.16-12.15   c7.563-10.2,24.302-35.16,35.82-53.43c4.53-7.17,9.78-15.45,11.7-18.394C743.61,546.51,743.85,545.73,742.95,542.97z" style="stroke:black;fill:#BFDAE3"/><path id="180623552" parent_id="180608862" order="87" structure_id="1" d="M663.36,246.54   c0.09,0.3,1.17,1.98,2.46,3.72c2.04,2.85,2.52,3.33,4.316,4.32c5.82,3.21,10.594,6.78,15.63,11.67c4.29,4.17,6.66,7.02,9.934,11.91   c7.59,11.43,13.71,29.22,16.316,47.64c1.894,13.29,2.673,30.48,1.74,38.55c-1.229,10.68-3.54,19.56-7.08,27.48   c-2.487,5.52-6.146,10.47-10.35,13.979c-1.142,0.96-2.103,1.894-2.103,2.07c-0.061,0.93,5.069,0.813,9.539-0.21   c6.304-1.438,11.014-5.76,12.75-11.67c0.54-1.8,1.23-7.47,2.434-19.8c2.729-28.59,2.67-37.8-0.271-50.49   c-4.26-18.33-13.83-41.58-21.236-51.51c-5.434-7.32-16.563-17.07-28.65-25.14C664.26,246.03,663.09,245.49,663.36,246.54z" style="stroke:black;fill:#BFDAE3"/></g></g></svg>
