<svg xmlns="http://www.w3.org/2000/svg" width="3024px" height="3024px"><g transform="scale(1.0)"><g id="180608862" order="1" parent_id="" graphic_group_label_id="28" graphic_group_label="Atlas - Adult Rat" sub_image_id="100960468" transform=" scale(1.0, 1.0)"><path id="180623552" parent_id="180608862" order="0" structure_id="1" d="M828.06,449.76c-3.81-6.42-13.619-12.42-28.71-17.64c-3.39-1.17-5.819-1.44-7.859-0.93   c-0.78,0.21-0.99,0.149-0.99-0.181c0-0.899-1.2-1.5-3.39-1.74c-1.17-0.119-2.58-0.329-3.091-0.42c-0.659-0.149-1.5,0.03-2.88,0.57   c-1.05,0.42-2.1,0.78-2.279,0.78c-0.63,0-0.391-0.811,0.899-2.88c3.21-5.25,5.641-14.13,5.641-20.4c0-3.36-1.381-7.47-3.45-10.35   c-1.62-2.28-1.47-2.4,1.68-1.59c4.71,1.2,8.73-1.35,10.71-6.84c0.69-1.92,0.811-2.7,0.84-6.09c0.03-3.12,0.15-4.14,0.601-5.1   s0.569-1.89,0.54-4.8c0-2.97-0.181-4.26-0.96-7.38c-1.681-6.78-5.82-17.07-8.761-21.75c-3.81-6.12-10.77-14.52-18-21.75   c-5.88-5.91-7.979-7.53-13.949-10.8c-2.46-1.35-12.721-7.11-22.74-12.78c-10.021-5.67-19.29-10.83-20.55-11.49   c-3.391-1.68-5.46-2.22-7.74-1.98l-1.86,0.18l-3.689-5.01c-18.931-25.89-34.681-45.27-51.75-63.69   c-10.471-11.28-17.91-18.06-25.74-23.52c-18.51-12.9-42.84-22.29-66.63-25.65c-5.488-0.787-9.827-1.159-13.95-1.171v561.192   c0.638,0.004,1.266-0.194,2.1-0.611c1.62-0.841,2.4-1.86,2.61-3.48c0.09-0.69,0.271-1.26,0.36-1.26c0.12,0,0.96,0.359,1.859,0.78   c6.45,3.149,19.98,2.729,40.65-1.2c10.38-2.011,15.21-3.24,20.07-5.16c1.5-0.57,7.17-2.46,12.63-4.17   c12.029-3.78,14.729-4.83,21.12-8.04c6.54-3.271,12.18-6.69,16.319-9.811c1.86-1.409,6.12-4.649,9.511-7.229   c9.09-6.93,21.39-15.99,31.59-23.28c12.06-8.609,14.609-10.649,19.229-15.24c5.73-5.699,21.12-22.109,23.37-24.899   c1.71-2.16,4.71-6.66,11.94-18.15c2.909-4.59,3.54-5.43,8.939-11.85c2.37-2.82,4.95-6.09,5.76-7.32   c2.58-3.93,8.311-15.81,9.391-19.47c0.24-0.78,1.59-6.69,3-13.11c2.939-13.29,3.33-16.319,2.43-20.31   c-0.479-2.19-1.92-5.49-3.149-7.29c-1.051-1.5-0.931-1.59,2.609-1.561c2.58,0.03,3.57-0.12,5.16-0.659   c4.77-1.65,8.19-3.721,17.55-10.62c12-8.851,16.29-13.021,21.21-20.61c4.38-6.72,6.391-12.87,6.721-20.55   C833.34,463.62,831.51,455.61,828.06,449.76z" style="stroke:black;fill:#BFDAE3"/><path id="180623552" parent_id="180608862" order="1" structure_id="1" d="M717.75,181.71   c-5.04,0.6-9.66,1.86-11.88,3.24c-1.83,1.17-3.061,2.94-5.851,8.31c-3.779,7.29-3.899,7.41-14.64,14.1   c-16.95,10.56-18.36,11.7-19.05,15.36c-0.51,2.7,0.51,6.33,3.33,12c3.12,6.21,5.97,10.38,10.109,14.67   c3.15,3.27,6.36,5.88,13.53,11.04c6.811,4.86,8.88,6.54,14.25,11.49c5.311,4.92,7.74,6.84,12.63,10.08   c6.15,4.05,10.261,6.06,28.62,14.01c9.75,4.23,19.44,8.94,23.851,11.64c3.93,2.37,6.51,4.29,10.35,7.65   c3.69,3.21,7.5,5.73,10.41,6.84c4.05,1.56,10.56,2.88,14.34,2.88c4.23,0.03,5.25-0.45,9.09-4.14c2.22-2.13,3-3.15,3.9-4.95   c0.99-2.01,1.109-2.49,1.109-4.5v-2.28l-3.869-7.2c-5.671-10.56-13.801-26.76-15.15-30.27c-2.7-6.9-2.76-10.5-0.36-21.39   c2.011-9.09,2.25-10.89,1.86-13.74c-1.32-9.3-7.771-17.31-23.46-29.1c-18.63-13.95-37.47-23.79-48.9-25.47   C729.06,181.53,720.45,181.38,717.75,181.71z" style="stroke:black;fill:#BFDAE3"/><path id="180623552" parent_id="180608862" order="2" structure_id="1" d="M790.92,416.4   c-0.93,0.359-2.16,1.979-2.37,3.119c-0.12,0.601-0.03,1.41,0.24,2.07c1.56,3.66,7.41,2.521,7.47-1.47   C796.29,417.15,793.62,415.29,790.92,416.4z" style="stroke:black;fill:#BFDAE3"/><path id="180623552" parent_id="180608862" order="3" structure_id="1" d="M744.69,503.76   c-1.95,0.811-2.4,1.17-4.32,3.42c-1.2,1.41-3.09,3.42-4.26,4.5l-2.101,1.92l0.181,1.92c0.329,3.48,1.77,5.94,4.529,7.74   c0.99,0.63,1.95,1.141,2.16,1.141s0.45-0.57,0.57-1.261c0.3-1.739,1.109-3.51,2.58-5.67c1.5-2.189,4.83-5.79,6.06-6.51   c0.84-0.479,0.87-0.57,0.72-2.16c-0.27-2.43-0.72-3.78-1.77-4.95C747.96,502.59,747.54,502.59,744.69,503.76z" style="stroke:black;fill:#BFDAE3"/><path id="180623552" parent_id="180608862" order="4" structure_id="1" d="M715.8,505.2c0,0.93,1.29,3.899,2.55,5.85   c3.181,5.01,7.561,8.46,13.62,10.8c2.61,1.021,5.13,1.381,5.13,0.75c0-0.18-0.39-0.869-0.899-1.529c-1.2-1.65-2.101-4.2-2.101-5.88   c0-1.5,0.271-1.44-2.609-0.721c-1.65,0.42-3.87,0-6.271-1.17c-1.38-0.66-2.55-1.649-4.5-3.689c-1.47-1.53-3-3.301-3.42-3.9   C716.46,504.48,715.8,504.27,715.8,505.2z" style="stroke:black;fill:#BFDAE3"/><path id="180623552" parent_id="180608862" order="5" structure_id="1" d="M702,338.67c0,0.48,0.54,2.4,1.23,4.29   c1.8,4.98,2.52,7.53,3.39,11.85c1.35,6.69,1.71,9.39,1.979,14.79c0.45,9,1.5,11.19,8.79,18.09c13.83,13.11,25.98,22.65,35.73,28.05   c8.82,4.92,20.58,8.97,20.58,7.14c0-0.24-0.72-0.75-1.561-1.11c-2.819-1.229-11.699-5.819-15.54-8.069   c-9.18-5.37-13.5-8.73-20.85-16.23c-8.82-9-16.59-18.81-19.35-24.42c-2.25-4.53-3.391-7.65-5.82-16.29   c-2.34-8.13-3.75-12.33-5.13-15.06C703.71,338.22,702,336.72,702,338.67z" style="stroke:black;fill:#BFDAE3"/><path id="180623552" parent_id="180608862" order="6" structure_id="1" d="M602.43,503.85c-0.33-0.09-0.81-0.75-1.109-1.529c-0.42-1.141-0.48-1.95-0.33-5.19   c0.18-3.27,0.149-3.93-0.24-4.229c-0.27-0.21-1.2-1.44-2.1-2.7c-1.74-2.49-2.82-3.54-5.91-5.76c-2.37-1.71-3.181-3.12-2.61-4.471   c0.811-2.01,3.69-2.31,7.771-0.84c1.409,0.48,2.85,0.99,3.239,1.08l0.69,0.18l-0.03-3.27c-0.03-1.8-0.03-3.63-0.03-4.08   c0.03-0.51,0.45-1.29,1.08-2.01c0.57-0.63,1.051-1.23,1.051-1.29c0-0.09-0.631-0.78-1.381-1.561c-1.38-1.38-2.01-1.649-2.369-1.08   c-0.271,0.45-3.96,2.25-5.4,2.67c-0.66,0.181-3.36,0.54-6,0.78c-8.31,0.78-12.12,1.62-20.19,4.41   c-11.1,3.84-23.069,10.08-25.29,13.2c-0.51,0.689-0.72,1.62-0.93,3.93c-0.3,3.21-0.78,4.561-1.74,4.86   c-0.214,0.069-0.413,0.108-0.6,0.12v34.53c1.65,0,1.65,0,1.2-1.5c-0.391-1.229,0.42-19.47,0.93-22.17   c0.21-0.989,0.601-1.89,1.05-2.34c0.66-0.66,0.69-0.81,0.391-1.89c-0.271-0.9-0.24-1.74,0.149-4.05   c1.021-6.15,4.681-10.5,10.23-12.24c3.03-0.93,8.49-0.9,11.25,0.06c2.13,0.75,3.689,1.771,4.26,2.82c0.21,0.36,0.36,1.32,0.39,2.16   c0,1.47,0,1.47,1.17,1.74c1.591,0.39,3.391,2.22,3.841,3.96c0.21,0.75,0.51,1.35,0.689,1.35c0.15,0,0.69-0.6,1.141-1.32   c3.06-4.83,7.079-6.27,11.52-4.08c2.13,1.051,3.24,2.311,3.87,4.381c0.57,1.92,0.54,3.119-0.21,5.97   c-0.33,1.319-0.69,2.7-0.78,3.09c-0.18,0.69-0.149,0.69,1.891,0.51c1.859-0.18,2.159-0.149,2.909,0.45   c0.45,0.36,0.811,0.9,0.811,1.23c0,0.3,0.149,0.569,0.33,0.569c0.569,0,5.97-5.16,5.97-5.729   C603,504.27,602.73,503.97,602.43,503.85z" style="stroke:black;fill:#BFDAE3"/><path id="180623552" parent_id="180608862" order="7" structure_id="1" d="M759.75,581.31   c-0.33,3.301-1.29,8.671-2.25,12.631c-1.02,4.17-1.05,4.56-0.51,4.529c0.39,0,6.81-7.59,9.569-11.31c2.04-2.73,2.19-3.36,0.75-3.36   c-1.92,0-3.72-0.87-5.159-2.46c-0.75-0.84-1.351-1.62-1.351-1.77c0-0.15-0.18-0.271-0.42-0.271   C760.08,579.3,759.9,579.9,759.75,581.31z" style="stroke:black;fill:#BFDAE3"/><path id="180623552" parent_id="180608862" order="8" structure_id="1" d="M581.7,493.59c-1.44,0.45-4.771,3.87-5.58,5.76   c-0.36,0.841-0.9,2.101-1.2,2.851c-0.81,1.95-3.15,5.399-4.38,6.479c-0.72,0.63-1.8,1.141-3.42,1.561   c-2.851,0.75-8.16,1.56-10.29,1.56c-1.14,0-1.53,0.12-1.53,0.45c0,0.57,1.08,1.11,3.9,1.98c2.01,0.63,2.819,0.72,7.2,0.689   c4.409,0,5.279-0.09,7.83-0.81c4.47-1.23,8.46-2.551,12.6-4.141l3.78-1.47l0.689-2.19c0.931-2.909,1.141-6.689,0.48-8.43   C590.43,494.37,585.66,492.36,581.7,493.59z" style="stroke:black;fill:#BFDAE3"/><path id="180623552" parent_id="180608862" order="9" structure_id="1" d="M542.4,718.65c-0.61-0.313-1.503-0.451-2.4-0.438v8.07c1.611,0.003,3.176-0.655,3.9-1.843   C545.13,722.4,544.44,719.7,542.4,718.65z" style="stroke:black;fill:#BFDAE3"/><path id="180623552" parent_id="180608862" order="10" structure_id="1" d="M571.38,525.78   c-6.3,2.609-14.07,4.439-21.03,4.95c-2.46,0.21-4.649,0.51-4.859,0.689c-0.181,0.18-0.84,3.66-1.44,7.74   c-0.569,4.08-1.2,8.13-1.35,8.97c-0.84,4.44,0.359,7.14,3.149,7.17c1.471,0,2.551-0.63,5.7-3.33   c6.96-5.91,16.561-16.649,20.97-23.43C574.95,524.82,574.77,524.37,571.38,525.78z" style="stroke:black;fill:#BFDAE3"/><path id="180623552" parent_id="180608862" order="11" structure_id="1" d="M637.62,629.52c-6.39-8.55-14.91-22.02-22.17-35.069c-7.65-13.771-10.44-19.681-13.351-28.26   c-1.77-5.221-0.899-4.681-8.34-5.25c-5.7-0.421-15.779-0.03-25.41,0.96c-3.119,0.33-5.729,0.6-5.76,0.6c-0.42,0,0.12,0.99,0.96,1.8   c2.01,1.95,2.25,4.561,0.66,7.26c-1.77,3-7.74,8.91-11.7,11.61c-3.12,2.13-3.99,2.28-12.51,2.28v70.661   c2.955,0.004,5.925,0.108,7.17,0.318c1.32,0.21,5.49,1.801,12.36,4.65c5.7,2.37,10.59,4.32,10.89,4.32c0.271,0,1.86-1.2,3.51-2.7   c10.95-9.811,25.261-17.851,41.04-22.98c6.84-2.25,17.79-4.739,23.67-5.399c1.17-0.12,1.86-0.33,1.86-0.57   C640.5,633.54,639.21,631.65,637.62,629.52z" style="stroke:black;fill:#BFDAE3"/><path id="180623552" parent_id="180608862" order="12" structure_id="1" d="M637.62,629.52c-6.39-8.55-14.91-22.02-22.17-35.069c-7.65-13.771-10.44-19.681-13.351-28.26   c-1.77-5.221-0.899-4.681-8.34-5.25c-5.7-0.421-15.779-0.03-25.41,0.96c-3.119,0.33-5.729,0.6-5.76,0.6c-0.42,0,0.12,0.99,0.96,1.8   c2.01,1.95,2.25,4.561,0.66,7.26c-1.77,3-7.74,8.91-11.7,11.61c-3.12,2.13-3.99,2.28-12.51,2.28v70.661   c2.955,0.004,5.925,0.108,7.17,0.318c1.32,0.21,5.49,1.801,12.36,4.65c5.7,2.37,10.59,4.32,10.89,4.32c0.271,0,1.86-1.2,3.51-2.7   c10.95-9.811,25.261-17.851,41.04-22.98c6.84-2.25,17.79-4.739,23.67-5.399c1.17-0.12,1.86-0.33,1.86-0.57   C640.5,633.54,639.21,631.65,637.62,629.52z" style="stroke:black;fill:#BFDAE3"/><path id="180623552" parent_id="180608862" order="13" structure_id="1" d="M637.62,629.52c-6.39-8.55-14.91-22.02-22.17-35.069c-7.65-13.771-10.44-19.681-13.351-28.26   c-1.77-5.221-0.899-4.681-8.34-5.25c-5.7-0.421-15.779-0.03-25.41,0.96c-3.119,0.33-5.729,0.6-5.76,0.6c-0.42,0,0.12,0.99,0.96,1.8   c2.01,1.95,2.25,4.561,0.66,7.26c-1.77,3-7.74,8.91-11.7,11.61c-3.12,2.13-3.99,2.28-12.51,2.28v70.661   c2.955,0.004,5.925,0.108,7.17,0.318c1.32,0.21,5.49,1.801,12.36,4.65c5.7,2.37,10.59,4.32,10.89,4.32c0.271,0,1.86-1.2,3.51-2.7   c10.95-9.811,25.261-17.851,41.04-22.98c6.84-2.25,17.79-4.739,23.67-5.399c1.17-0.12,1.86-0.33,1.86-0.57   C640.5,633.54,639.21,631.65,637.62,629.52z" style="stroke:black;fill:#BFDAE3"/><path id="180623552" parent_id="180608862" order="14" structure_id="1" d="M544.65,656.97   c-0.931,0.42-1.92,1.62-2.311,2.761c-0.18,0.569-0.39,4.289-0.45,8.43c-0.149,6.33-0.09,7.439,0.271,7.439   c0.24,0,1.979-0.689,3.87-1.529c4.05-1.83,14.79-6.09,18.93-7.5c1.98-0.69,2.94-1.17,2.94-1.471c0-0.33-2.851-1.649-9.21-4.319   c-8.341-3.48-9.45-3.87-11.341-3.96C546.21,656.76,544.98,656.82,544.65,656.97z" style="stroke:black;fill:#BFDAE3"/><path id="180623552" parent_id="180608862" order="15" structure_id="1" d="M567.45,665.76   c-6.9,2.37-19.891,7.561-23.641,9.42l-2.04,1.051l0.181,2.46c0.27,3.3,0.689,5.52,1.38,6.869c1.229,2.4,2.64,2.341,8.52-0.239   c12.9-5.7,19.95-8.07,26.4-8.88c2.67-0.301,2.94-0.421,4.05-1.44c0.66-0.6,1.2-1.29,1.2-1.53c0-1.02-5.4-4.38-10.71-6.72   C569.58,665.34,568.98,665.25,567.45,665.76z" style="stroke:black;fill:#BFDAE3"/><path id="180623552" parent_id="180608862" order="16" structure_id="1" d="M580.5,692.1   c-7.92,0.601-17.25,3.03-25.11,6.57c-9.42,4.26-14.189,8.79-15.09,14.28l-0.3,1.77l1.68,2.19c2.82,3.689,4.62,4.89,8.971,6   c2.97,0.75,16.02,0.75,21.449,0c13.86-1.95,28.17-4.86,33.42-6.811c1.5-0.569,1.65-0.75,2.4-2.399c2.7-6.03,0.96-11.49-5.04-15.72   c-3.6-2.551-7.649-4.29-12.33-5.221C586.74,691.98,584.46,691.83,580.5,692.1z" style="stroke:black;fill:#BFDAE3"/><path id="180623552" parent_id="180608862" order="17" structure_id="1" d="M752.64,541.2c-2.34-3.9-6.51-9.601-7.05-9.601c-0.51,0-0.51-0.029,0.63,4.051   c1.38,4.949,1.74,8.31,1.891,18.149c0.359,22.771-2.58,38.55-10.11,53.851c-5.22,10.619-10.41,16.59-17.43,19.949   c-3.21,1.53-6.09,2.37-9.03,2.61c-1.26,0.09-2.4,0.271-2.55,0.36c-0.15,0.09-0.84,1.08-1.561,2.22c-1.649,2.55-4.29,5.01-6.54,6.09   c-1.409,0.66-2.279,0.87-4.47,0.96l-2.729,0.12l-0.15,2.01c-0.36,4.74-5.13,10.5-8.73,10.53c-1.979,0-7.109-3.54-9.3-6.39   c-1.02-1.351-1.89-1.5-1.56-0.301c0.39,1.65,0.51,10.65,0.18,14.551c-0.45,5.22-1.41,10.92-2.25,13.439   c-1.26,3.66-4.68,7.771-7.59,9.061c-1.38,0.6-3.21,0.63-6.06,0.06c-1.021-0.21-1.021-0.18-0.841,0.72   c0.391,1.891-0.96,4.2-4.56,7.83c-6.15,6.21-11.58,9.33-20.07,11.49c-3.27,0.84-4.35,0.96-7.56,0.99c-3.63,0-3.84-0.03-5.7-0.96   c-2.16-1.05-5.52-3.9-5.79-4.891c-0.33-1.26,0.72-1.8,5.79-2.85c4.32-0.93,6.24-1.56,9.39-3.18c2.82-1.44,10.2-6.21,15.21-9.87   c4.17-3.03,5.551-3.54,8.131-3c0.989,0.21,1.829,0.33,1.92,0.27c0.239-0.27-0.24-4.77-0.54-4.77c-0.15,0-0.9,0.54-1.62,1.2   c-1.95,1.8-3.66,2.46-6.87,2.64c-5.25,0.27-10.47-0.9-11.94-2.67c-0.84-0.99-1.38-2.61-1.38-4.11c0-1.05-0.569-1.29-1.2-0.479   c-0.239,0.239-0.989,0.81-1.71,1.229c-1.08,0.63-1.529,0.721-2.64,0.54c-1.08-0.149-1.35-0.09-1.35,0.271   c0,0.239,0.149,0.54,0.3,0.63c0.569,0.359,1.8,3.149,2.28,5.16c1.289,5.489-1.29,10.92-5.761,12.18   c-3.479,0.99-5.189,0.75-12.12-1.59c-9.119-3.09-11.52-3.601-18.75-3.87c-4.439-0.18-6.39-0.39-7.5-0.78   c-3.359-1.17-4.56-3.06-3.63-5.76c0.3-0.78,0.601-1.771,0.69-2.16l0.18-0.72l-2.16,0.21c-3.149,0.27-7.41,1.26-11.55,2.64   c-3.33,1.11-5.85,2.13-15.84,6.51c-4.71,2.07-7.41,2.73-11.04,2.73v23.066c0.034,0.021,0.064,0.033,0.09,0.033   c0.21,0,0.69-0.75,1.08-1.649c0.96-2.22,4.021-5.46,7.021-7.47c9.6-6.33,26.46-11.16,37.109-10.591   c9.63,0.511,19.891,5.79,22.83,11.79c1.38,2.79,1.5,5.46,0.45,8.641c-0.45,1.29-0.72,2.43-0.63,2.52s3.42-0.87,7.439-2.16   c16.261-5.22,18.96-6.18,24.42-8.85c9.21-4.53,13.771-7.35,21.511-13.35c10.17-7.891,26.01-19.62,37.02-27.45   c4.021-2.851,7.38-5.37,7.47-5.61c0.421-1.11-1.8-2.01-6.359-2.67c-1.83-0.24-3.09-0.57-3.45-0.9c-0.9-0.81-1.02-2.04-0.33-3.359   c1.29-2.49,4.35-4.65,11.58-8.19c7.47-3.63,13.8-5.97,19.65-7.2c1.739-0.39,3.3-0.72,3.479-0.779   c0.54-0.12,9.21-9.511,11.37-12.271c1.02-1.319,2.73-3.81,3.81-5.55c1.08-1.74,3.21-5.1,4.771-7.5c4.65-7.08,5.25-8.25,6.24-11.85   c2.34-8.521,3.39-16.23,3.39-24.9C759.99,559.65,757.56,549.45,752.64,541.2z" style="stroke:black;fill:#BFDAE3"/><path id="180623552" parent_id="180608862" order="18" structure_id="1" d="M675.42,624.63   c-1.11,0.33-3.12,2.4-4.02,4.17c-0.87,1.681-1.801,5.46-1.801,7.23c0,1.8,0.36,2.79,1.471,3.87c0.479,0.479,1.26,1.59,1.77,2.46   c1.08,1.92,3.24,4.439,5.82,6.72c4.95,4.41,8.64,4.2,12.12-0.66c2.13-2.97,2.64-4.53,2.609-8.07c0-3-0.27-5.1-1.17-8.909   c-0.81-3.421-3.09-5.341-7.8-6.54C681.96,624.27,677.16,624.12,675.42,624.63z M676.68,626.67c-0.27,0.42-0.989,0.42-1.229,0.03   c-0.12-0.181-0.03-0.54,0.18-0.78c0.33-0.39,0.42-0.39,0.811,0C676.68,626.16,676.77,626.49,676.68,626.67z M674.37,631.02   c0.27,0.301,0.24,0.48-0.12,0.78c-0.57,0.48-1.23-0.03-0.96-0.72C673.53,630.48,673.92,630.48,674.37,631.02z" style="stroke:black;fill:#BFDAE3"/><path id="180623552" parent_id="180608862" order="19" structure_id="1" d="M637.62,629.52c-6.39-8.55-14.91-22.02-22.17-35.069c-7.65-13.771-10.44-19.681-13.351-28.26   c-1.77-5.221-0.899-4.681-8.34-5.25c-5.7-0.421-15.779-0.03-25.41,0.96c-3.119,0.33-5.729,0.6-5.76,0.6c-0.42,0,0.12,0.99,0.96,1.8   c2.01,1.95,2.25,4.561,0.66,7.26c-1.77,3-7.74,8.91-11.7,11.61c-3.12,2.13-3.99,2.28-12.51,2.28v70.661   c2.955,0.004,5.925,0.108,7.17,0.318c1.32,0.21,5.49,1.801,12.36,4.65c5.7,2.37,10.59,4.32,10.89,4.32c0.271,0,1.86-1.2,3.51-2.7   c10.95-9.811,25.261-17.851,41.04-22.98c6.84-2.25,17.79-4.739,23.67-5.399c1.17-0.12,1.86-0.33,1.86-0.57   C640.5,633.54,639.21,631.65,637.62,629.52z" style="stroke:black;fill:#BFDAE3"/><path id="180623552" parent_id="180608862" order="20" structure_id="1" d="M760.08,469.89   c-2.43,5.7-9,20.011-11.01,23.91c-1.11,2.25-2.79,5.25-3.721,6.72c-0.899,1.44-1.649,2.761-1.649,2.91   c0,0.511,1.38,0.271,2.939-0.51c0.87-0.42,2.311-1.47,3.21-2.28c1.41-1.29,1.65-1.649,1.65-2.609c0.03-2.25,1.83-4.95,4.05-6.03   c0.75-0.36,1.351-0.78,1.351-0.93c0-0.721,2.369-1.23,6.869-1.5c11.37-0.66,15.99-2.19,23.431-7.801   c6.78-5.13,10.649-9.329,10.439-11.399c-0.09-0.99-0.12-1.021-1.529-1.11c-1.86-0.12-3.87,0.48-9.03,2.7   c-7.26,3.15-8.37,3.57-10.83,4.17c-4.41,1.05-7.35,0.63-10.53-1.53c-2.31-1.529-3.12-2.76-3.51-5.399   c-0.18-1.141-0.479-2.101-0.66-2.101C761.4,467.1,760.71,468.36,760.08,469.89z" style="stroke:black;fill:#BFDAE3"/><path id="180623552" parent_id="180608862" order="21" structure_id="1" d="M634.14,346.26c-1.59-4.2-7.739-11.46-11.189-13.2c-3.87-1.92-10.62-3.63-19.2-4.86   c-5.55-0.78-9.18-1.56-26.7-5.61c-16.56-3.84-16.77-3.84-26.55-2.64c-5.088,0.634-7.912,0.938-10.5,0.95v22.449   c10.647,0.014,22.326,0.285,29.04,0.751c16.29,1.11,27.09,3.09,36.96,6.75c11.79,4.35,16.23,5.55,20.73,5.55   c3.479,0,4.89-0.42,6.449-1.95C635.25,352.47,635.55,350.01,634.14,346.26z" style="stroke:black;fill:#BFDAE3"/><path id="180623552" parent_id="180608862" order="22" structure_id="1" d="M632.64,262.29c-2.67-5.64-7.08-10.98-13.529-16.38c-11.49-9.6-22.65-14.97-35.91-17.28   c-10.657-1.884-26.979-2.967-43.2-3.003v15.539c3.229,0,6.415-0.187,11.4-0.565c8.399-0.66,16.199-0.87,17.34-0.48   c0.359,0.12,0.66,0.36,0.66,0.51c0,0.96-6.15,3.09-12.87,4.44c-6.236,1.248-11.394,1.875-16.53,1.884V263.4   c9.924,0.005,15.892,1.359,26.61,6c3.06,1.35,6.39,2.61,7.409,2.85c3.45,0.81,6.301,0.48,8.011-0.96c1.319-1.14,1.5-1.8,1.14-4.8   c-0.39-3,0.03-6.39,0.96-8.22c1.561-3.12,9.12-3.54,17.311-0.96c4.109,1.26,14.1,7.38,26.159,15.99c6.15,4.38,6.96,4.86,8.011,4.74   c0.779-0.09,0.84-0.21,0.93-1.53C636.72,273.6,634.95,267.15,632.64,262.29z" style="stroke:black;fill:#BFDAE3"/><path id="180623552" parent_id="180608862" order="23" structure_id="1" d="M752.64,541.2c-2.34-3.9-6.51-9.601-7.05-9.601c-0.51,0-0.51-0.029,0.63,4.051   c1.38,4.949,1.74,8.31,1.891,18.149c0.359,22.771-2.58,38.55-10.11,53.851c-5.22,10.619-10.41,16.59-17.43,19.949   c-3.21,1.53-6.09,2.37-9.03,2.61c-1.26,0.09-2.4,0.271-2.55,0.36c-0.15,0.09-0.84,1.08-1.561,2.22c-1.649,2.55-4.29,5.01-6.54,6.09   c-1.409,0.66-2.279,0.87-4.47,0.96l-2.729,0.12l-0.15,2.01c-0.36,4.74-5.13,10.5-8.73,10.53c-1.979,0-7.109-3.54-9.3-6.39   c-1.02-1.351-1.89-1.5-1.56-0.301c0.39,1.65,0.51,10.65,0.18,14.551c-0.45,5.22-1.41,10.92-2.25,13.439   c-1.26,3.66-4.68,7.771-7.59,9.061c-1.38,0.6-3.21,0.63-6.06,0.06c-1.021-0.21-1.021-0.18-0.841,0.72   c0.391,1.891-0.96,4.2-4.56,7.83c-6.15,6.21-11.58,9.33-20.07,11.49c-3.27,0.84-4.35,0.96-7.56,0.99c-3.63,0-3.84-0.03-5.7-0.96   c-2.16-1.05-5.52-3.9-5.79-4.891c-0.33-1.26,0.72-1.8,5.79-2.85c4.32-0.93,6.24-1.56,9.39-3.18c2.82-1.44,10.2-6.21,15.21-9.87   c4.17-3.03,5.551-3.54,8.131-3c0.989,0.21,1.829,0.33,1.92,0.27c0.239-0.27-0.24-4.77-0.54-4.77c-0.15,0-0.9,0.54-1.62,1.2   c-1.95,1.8-3.66,2.46-6.87,2.64c-5.25,0.27-10.47-0.9-11.94-2.67c-0.84-0.99-1.38-2.61-1.38-4.11c0-1.05-0.569-1.29-1.2-0.479   c-0.239,0.239-0.989,0.81-1.71,1.229c-1.08,0.63-1.529,0.721-2.64,0.54c-1.08-0.149-1.35-0.09-1.35,0.271   c0,0.239,0.149,0.54,0.3,0.63c0.569,0.359,1.8,3.149,2.28,5.16c1.289,5.489-1.29,10.92-5.761,12.18   c-3.479,0.99-5.189,0.75-12.12-1.59c-9.119-3.09-11.52-3.601-18.75-3.87c-4.439-0.18-6.39-0.39-7.5-0.78   c-3.359-1.17-4.56-3.06-3.63-5.76c0.3-0.78,0.601-1.771,0.69-2.16l0.18-0.72l-2.16,0.21c-3.149,0.27-7.41,1.26-11.55,2.64   c-3.33,1.11-5.85,2.13-15.84,6.51c-4.71,2.07-7.41,2.73-11.04,2.73v23.066c0.034,0.021,0.064,0.033,0.09,0.033   c0.21,0,0.69-0.75,1.08-1.649c0.96-2.22,4.021-5.46,7.021-7.47c9.6-6.33,26.46-11.16,37.109-10.591   c9.63,0.511,19.891,5.79,22.83,11.79c1.38,2.79,1.5,5.46,0.45,8.641c-0.45,1.29-0.72,2.43-0.63,2.52s3.42-0.87,7.439-2.16   c16.261-5.22,18.96-6.18,24.42-8.85c9.21-4.53,13.771-7.35,21.511-13.35c10.17-7.891,26.01-19.62,37.02-27.45   c4.021-2.851,7.38-5.37,7.47-5.61c0.421-1.11-1.8-2.01-6.359-2.67c-1.83-0.24-3.09-0.57-3.45-0.9c-0.9-0.81-1.02-2.04-0.33-3.359   c1.29-2.49,4.35-4.65,11.58-8.19c7.47-3.63,13.8-5.97,19.65-7.2c1.739-0.39,3.3-0.72,3.479-0.779   c0.54-0.12,9.21-9.511,11.37-12.271c1.02-1.319,2.73-3.81,3.81-5.55c1.08-1.74,3.21-5.1,4.771-7.5c4.65-7.08,5.25-8.25,6.24-11.85   c2.34-8.521,3.39-16.23,3.39-24.9C759.99,559.65,757.56,549.45,752.64,541.2z" style="stroke:black;fill:#BFDAE3"/><path id="180623552" parent_id="180608862" order="24" structure_id="1" d="M644.76,663.33   c-2.1,2.16-3.39,9.54-2.37,13.439c0.48,1.801,1.11,2.16,2.521,1.381c1.41-0.75,2.609-3.091,3.12-5.94   c0.42-2.61,0.239-7.56-0.36-8.76C647.04,662.16,645.96,662.1,644.76,663.33z" style="stroke:black;fill:#BFDAE3"/><path id="180623552" parent_id="180608862" order="25" structure_id="1" d="M603.06,504.96   c-2.25,2.19-4.979,4.74-6,5.64l-1.92,1.65l0.12,8.94l0.09,8.97l0.841,0.72c0.72,0.601,1.17,0.72,2.88,0.72   c1.739,0,2.37-0.149,4.109-1.05c2.761-1.38,4.59-3,6.36-5.64c2.22-3.36,2.91-5.82,2.88-10.41c-0.03-3.21-0.15-4.08-0.84-6.15   c-1.021-3.119-3.18-7.17-3.87-7.29C607.38,501,605.76,502.35,603.06,504.96z" style="stroke:black;fill:#BFDAE3"/><path id="180623552" parent_id="180608862" order="26" structure_id="1" d="M679.98,559.26   c-0.091,0.54-0.45,2.88-0.811,5.19c-0.78,5.31-2.07,10.29-3.21,12.6c-1.05,2.13-1.86,4.021-1.86,4.38   c0,0.511,0.931,0.271,1.891-0.449c1.05-0.811,7.2-4.561,7.74-4.74c0.239-0.09,0.21-0.721-0.12-2.37   c-0.271-1.23-0.63-3.99-0.811-6.12c-0.6-6.78-0.81-8.25-1.38-8.88C680.67,558.03,680.16,558.18,679.98,559.26z" style="stroke:black;fill:#BFDAE3"/><path id="180623552" parent_id="180608862" order="27" structure_id="1" d="M590.94,357.39c-0.061-0.3-1.23-1.14-2.79-1.95c-8.67-4.56-21.66-6.42-40.561-5.76   c-2.459,0.093-5.198,0.146-7.59,0.159v3.269c9.487,0,18.971,0.097,22.05,0.292c8.76,0.57,16.351,1.71,24.181,3.63   C590.46,358.05,591.09,358.11,590.94,357.39z" style="stroke:black;fill:#BFDAE3"/><path id="180623552" parent_id="180608862" order="28" structure_id="1" d="M702,338.67c0,0.48,0.54,2.4,1.23,4.29   c1.8,4.98,2.52,7.53,3.39,11.85c1.35,6.69,1.71,9.39,1.979,14.79c0.45,9,1.5,11.19,8.79,18.09c13.83,13.11,25.98,22.65,35.73,28.05   c8.82,4.92,20.58,8.97,20.58,7.14c0-0.24-0.72-0.75-1.561-1.11c-2.819-1.229-11.699-5.819-15.54-8.069   c-9.18-5.37-13.5-8.73-20.85-16.23c-8.82-9-16.59-18.81-19.35-24.42c-2.25-4.53-3.391-7.65-5.82-16.29   c-2.34-8.13-3.75-12.33-5.13-15.06C703.71,338.22,702,336.72,702,338.67z" style="stroke:black;fill:#BFDAE3"/><path id="180623552" parent_id="180608862" order="29" structure_id="1" d="M556.62,474.51   c-3.42,2.37-5.07,3.36-7.71,4.59c-2.49,1.17-2.97,1.5-3.54,2.58c-1.74,3.181,0.6,3,7.86-0.54c2.88-1.409,6.09-2.939,7.17-3.39   c2.52-1.11,2.699-1.26,2.699-2.25c0-1.35-0.81-1.8-3.21-1.8C558.09,473.7,557.61,473.82,556.62,474.51z" style="stroke:black;fill:#BFDAE3"/><path id="180623552" parent_id="180608862" order="30" structure_id="1" d="M692.64,473.16   c-0.09,2.609-0.239,3.33-0.899,4.62c-1.83,3.479-6.45,6.3-10.92,6.63c-1.23,0.09-2.221,0.3-2.221,0.45   c0,0.12,0.301,1.26,0.66,2.489c0.57,1.98,0.63,2.46,0.33,3.9c-0.21,0.9-0.689,2.13-1.109,2.76c-1.95,2.851-6.99,4.681-13.98,5.13   c-2.46,0.181-3.15,0.301-3.21,0.66c-0.09,0.33,0.57,0.601,2.58,1.08c3.3,0.811,7.35,2.67,9,4.17c5.01,4.53,4.11,13.11-1.62,15.48   c-0.9,0.359-1.65,0.81-1.62,0.989c0,0.181,0.63,0.721,1.41,1.23c2.729,1.74,4.77,5.97,5.61,11.73c0.239,1.68,0.84,4.35,1.35,5.939   c1.71,5.55,2.52,11.25,2.19,15.21c-0.15,2.16-0.12,2.311,0.479,2.521c1.17,0.359,1.561,1.77,2.01,6.869   c0.57,6.811,0.9,8.82,2.25,12.931c4.561,14.16,3.99,21.27-1.71,20.729c-3.899-0.359-9.989-5.34-12.45-10.14   c-0.329-0.63-0.72-1.14-0.869-1.14c-0.15,0-1.2,0.6-2.311,1.319c-6.06,3.9-12.33,4.65-19.56,2.28c-3.63-1.17-7.471-3.15-10.53-5.4   c-5.31-3.899-12.75-12.33-15.18-17.189c-2.61-5.16-3.721-14.58-2.79-23.641c0.51-5.31,2.31-10.949,5.1-16.14l1.23-2.28l-1.051-1.71   c-1.829-3.029-2.46-5.55-2.46-9.84c0-3.63,0.03-3.84,0.99-5.729c0.51-1.11,0.96-2.13,0.96-2.28c0-0.18-1.229-0.33-3.06-0.33   c-3.12,0-5.34-0.479-9.3-2.04c-0.78-0.3-1.5-0.45-1.62-0.36c-0.09,0.12,0.21,1.261,0.72,2.551c1.17,3.09,1.65,5.43,1.65,8.22   c0,3-0.48,4.979-1.95,8.04c-2.851,6-9.811,10.35-13.74,8.58c-0.66-0.3-1.29-0.48-1.38-0.391c-0.42,0.421,1.08,12.78,2.31,18.931   c2.34,11.88,5.641,21.45,11.221,32.46c8.369,16.59,20.1,35.91,28.77,47.399c4.38,5.82,9.87,12.15,10.53,12.15   c0.21,0,0.75-0.75,1.17-1.68c2.13-4.62,7.2-9.69,10.47-10.44c1.47-0.36,4.08,0.63,5.49,2.01c1.56,1.561,2.01,3.03,1.59,5.07   c-0.18,0.81-0.27,1.53-0.21,1.59c0.06,0.061,0.66,0.03,1.38-0.06l1.26-0.181v-2.34c0-4.529,2.19-9.3,5.011-10.979   c1.35-0.78,1.649-0.84,4.739-0.84c3.54,0.029,5.67,0.51,8.311,1.83c1.859,0.93,3.66,2.579,4.14,3.72   c0.21,0.51,0.51,0.899,0.69,0.899c0.149,0,0.81-0.479,1.439-1.05c0.66-0.569,1.32-1.05,1.471-1.05c0.18,0,0.3-0.21,0.3-0.45   s-0.12-0.45-0.271-0.45c-0.18,0-0.63-0.569-1.05-1.26c-0.689-1.17-0.899-1.29-2.64-1.649c-4.41-0.9-9.601-4.471-11.19-7.74   c-0.81-1.62-1.26-4.351-0.96-5.641c0.3-1.14,1.62-2.22,3.21-2.609c1.98-0.48,4.771,0,9.24,1.56c1.89,0.66,3.479,1.141,3.54,1.05   c0.09-0.06-0.21-2.01-0.66-4.29c-0.689-3.569-0.81-5.01-0.84-10.02c0-3.21,0.15-9.15,0.36-13.23   c0.42-7.949,0.149-16.26-0.66-20.069c-0.24-1.08-1.17-3.51-2.101-5.431c-1.979-4.199-3.84-9.539-4.71-13.619   c-0.6-2.67-0.689-4.29-0.87-14.4c-0.18-10.5-0.239-11.58-0.869-13.65c-1.471-5.069-1.65-5.939-1.62-8.1   c0.029-2.64,0.84-5.52,2.04-7.05c1.83-2.431,5.489-3.12,10.17-1.95c6.689,1.68,14.489,5.79,17.79,9.42   c3.96,4.32,8.97,14.13,10.529,20.58c0.271,1.14,0.66,2.1,0.841,2.1c0.18,0,0.51-0.569,0.72-1.29c0.63-2.1,2.01-4.56,3.12-5.52   c1.08-0.99,1.41-1.11,3.27-1.44c0.601-0.09,1.11-0.33,1.11-0.54s-0.931-0.72-2.04-1.17c-4.26-1.739-8.25-4.62-11.04-7.979   c-1.92-2.34-4.11-6.66-4.62-9.12c-0.21-1.08-0.9-2.61-1.86-4.2c-3.72-6.149-7.77-15.78-8.22-19.62c-0.24-1.83,0.21-3.54,1.38-5.25   c0.48-0.72,0.9-1.47,0.9-1.62c0-0.21-1.351-0.3-3.66-0.3c-3.45,0-3.84-0.06-6.09-0.96c-1.32-0.54-2.91-1.32-3.51-1.74   c-0.601-0.42-1.23-0.75-1.381-0.75C692.88,470.1,692.7,471.48,692.64,473.16z M674.4,596.25c0.93,1.14-1.891,6.51-5.131,9.75   c-2.67,2.67-6.329,4.56-8.939,4.62c-1.5,0.03-1.68-0.03-1.771-0.601c-0.119-0.869,1.08-2.22,3.96-4.409   c1.351-0.99,4.29-3.63,6.54-5.82s4.29-3.99,4.53-3.99S674.19,596.01,674.4,596.25z" style="stroke:black;fill:#BFDAE3"/><path id="180623552" parent_id="180608862" order="31" structure_id="1" d="M543.21,556.26   c-0.9,0.9-1.26,2.851-0.99,5.28c0.12,0.93,0.24,1.74,0.33,1.8c0.061,0.061,0.87-0.24,1.771-0.689   c1.859-0.931,3.27-1.021,10.229-0.75l3.9,0.149l0.09-1.229c0.06-0.99-0.06-1.44-0.72-2.19c-1.62-1.95-4.141-2.7-9.78-2.939   C543.96,555.51,543.96,555.51,543.21,556.26z" style="stroke:black;fill:#BFDAE3"/><path id="180623552" parent_id="180608862" order="32" structure_id="1" d="M796.32,372.15c0-2.97-0.181-4.26-0.96-7.38c-1.681-6.78-5.82-17.07-8.761-21.75   c-3.81-6.12-10.77-14.52-18-21.75c-5.88-5.91-7.979-7.53-13.949-10.8c-2.46-1.35-12.721-7.11-22.74-12.78   c-10.021-5.67-19.29-10.83-20.55-11.49c-3.391-1.68-5.46-2.22-7.74-1.98l-1.86,0.18l-3.689-5.01   c-18.931-25.89-34.681-45.27-51.75-63.69c-10.471-11.28-17.91-18.06-25.74-23.52c-18.51-12.9-42.84-22.29-66.63-25.65   c-5.488-0.787-9.827-1.159-13.95-1.171V181.2c0.051,0,0.099,0,0.15,0c21.27,0,23.729,0.12,30.449,1.5   c15.811,3.27,35.16,13.74,55.051,29.73c12.27,9.87,25.05,22.11,33.63,32.22c8.399,9.9,22.739,32.73,51.029,81.15   c10.86,18.6,11.91,20.28,17.521,28.74c9.24,13.86,21.18,30.06,32.7,44.31C769.47,409.95,770.76,411.24,777,415.41   c3.51,2.37,4.41,3.21,4.77,4.47c0.12,0.48,0.421,0.9,0.69,0.96c0.87,0.18,2.94-9.6,2.94-13.92c0-3.36-1.381-7.47-3.45-10.35   c-1.62-2.28-1.47-2.4,1.68-1.59c4.71,1.2,8.73-1.35,10.71-6.84c0.69-1.92,0.811-2.7,0.84-6.09c0.03-3.12,0.15-4.14,0.601-5.1   S796.35,375.06,796.32,372.15z M777.63,374.7c-2.13,0-10.08-4.62-12.51-7.26c-3.51-3.81-26.79-38.22-29.07-42.99   c-1.2-2.49-1.53-4.05-1.08-4.92c0.45-0.81,1.11-0.81,2.431,0c0.569,0.36,2.13,1.56,3.449,2.64c3.631,3.06,4.08,3.3,9.33,5.28   c2.67,1.02,5.641,2.31,6.601,2.88c4.109,2.46,6.66,5.73,12.66,16.23c7.859,13.74,8.729,16.05,8.97,23.7l0.149,4.44H777.63z" style="stroke:black;fill:#BFDAE3"/><path id="180623552" parent_id="180608862" order="33" structure_id="1" d="M752.25,422.1c-10.26-3.51-18.48-8.399-46.65-27.75c-13.29-9.15-15.3-10.65-19.619-14.85   c-5.4-5.25-8.971-10.11-12.811-17.52c-3.81-7.35-7.62-17.34-8.79-23.04c-0.57-2.76-0.63-6.87-0.12-7.38   c0.601-0.6,2.16-0.42,3.271,0.39c0.569,0.42,3.39,3.15,6.27,6.12c4.92,5.01,6.9,6.63,8.25,6.63c0.9,0,2.82-2.1,3.45-3.78   c1.65-4.47-0.06-11.52-6-24.39c-4.38-9.57-8.79-17.67-16.32-29.94c-4.05-6.66-4.41-7.38-5.13-10.14   c-1.08-4.11-5.7-18.03-7.02-21.15c-1.53-3.57-4.141-7.83-7.71-12.57c-3.721-4.98-4.95-6.39-10.98-12.78   c-2.609-2.76-5.49-6.15-6.42-7.53c-1.74-2.58-3.9-4.8-6.33-6.45c-4.83-3.33-16.29-7.2-26.52-8.939   c-6.721-1.17-27.21-3.54-40.17-4.68c-3.811-0.348-8.656-0.554-12.9-0.602v23.873c4.816-0.004,9.658,0.086,14.4,0.279   c27.449,1.11,40.199,3.96,53.46,11.91c8.79,5.28,17.729,13.17,21.84,19.32c3.899,5.85,7.109,14.97,6.84,19.38   c-0.09,1.32-0.15,1.44-0.93,1.53c-1.051,0.12-1.86-0.36-8.011-4.74c-12.06-8.61-22.05-14.73-26.159-15.99   c-8.19-2.58-15.75-2.16-17.311,0.96c-0.93,1.83-1.35,5.22-0.96,8.22c0.36,3,0.18,3.66-1.14,4.8c-1.71,1.44-4.561,1.77-8.011,0.96   c-1.02-0.24-4.35-1.5-7.409-2.85c-10.719-4.64-16.687-5.994-26.61-6v27.21c13.178,0.009,22.319,1.214,37.71,5.039   c6.45,1.59,17.55,4.77,22.32,6.39c13.8,4.71,22.649,10.8,29.88,20.61c2.34,3.18,5.25,8.13,10.29,17.55   c9.78,18.18,15.72,27.84,25.8,41.7c10.26,14.1,17.64,22.8,28.47,33.6c15.96,15.93,28.62,24.51,38.641,26.25   c8.88,1.56,21.12-0.84,31.05-6.06c3.359-1.771,4.74-3,4.74-4.23C768.9,428.85,764.22,426.21,752.25,422.1z" style="stroke:black;fill:#BFDAE3"/><path id="180623552" parent_id="180608862" order="34" structure_id="1" d="M657.75,393.45c-12.21-8.07-24.15-12.96-36.99-15.15c-8.729-1.47-16.77-4.08-37.859-12.24   c-12.24-4.74-10.771-4.41-19.95-4.38c-4.5,0-10.32,0.24-13.8,0.51c-3.746,0.322-6.345,0.479-9.15,0.472v45.358   c11.578,0.004,23.121-2.003,36-6.021l4.95-1.56l4.95,0.18c4.979,0.149,8.729,0.6,18.75,2.28c2.97,0.51,9.63,1.439,14.79,2.1   c18.359,2.34,24.81,3.57,35.46,6.75c6.119,1.8,9.21,1.77,10.92-0.12c0.66-0.72,1.949-5.61,1.979-7.38   C667.8,401.4,664.65,398.04,657.75,393.45z" style="stroke:black;fill:#BFDAE3"/><path id="180623552" parent_id="180608862" order="35" structure_id="1" d="M686.85,427.23   c-0.39,0.6,0.181,1.77,2.011,4.079c2.79,3.54,11.13,11.671,14.13,13.801c5.64,3.96,12.479,6.659,23.399,9.21   c1.11,0.27,2.011,1.199,2.011,2.13c0,0.42,0.119,0.75,0.27,0.75s1.71-1.08,3.48-2.4c4.109-3.06,7.29-4.95,11.159-6.63   c1.71-0.72,3.091-1.5,3.091-1.71c0-0.51-0.33-0.479-5.04,0.39c-6.36,1.2-12.931,1.95-16.71,1.95c-3.75,0-10.41-1.2-14.341-2.55   c-4.439-1.56-8.399-4.83-16.829-13.89c-3.75-4.021-5.25-5.46-5.761-5.46C687.36,426.9,686.94,427.05,686.85,427.23z" style="stroke:black;fill:#BFDAE3"/><path id="180623552" parent_id="180608862" order="36" structure_id="1" d="M781.05,429.45   c-1.08,0.45-2.1,0.689-2.55,0.6c-0.63-0.149-1.02,0.15-2.67,2.101c-1.08,1.26-2.521,2.76-3.24,3.33   c-1.649,1.35-1.68,1.92-0.12,1.92c0.66,0,1.29,0.119,1.38,0.3c0.42,0.689,1.261,0.18,2.4-1.38c1.71-2.4,3.9-4.38,4.74-4.261   c0.99,0.15,1.5,1.471,1.109,2.91c-0.18,0.66-2.25,4.08-4.59,7.59c-4.8,7.171-6.81,10.591-8.399,14.341   c-3.301,7.8-2.46,12.029,2.34,11.64c2.069-0.18,4.05-1.17,6.18-3.15c1.47-1.38,2.101-2.31,3.9-5.88   c2.76-5.49,4.319-7.83,6.689-10.05c5.011-4.68,10.23-5.19,16.681-1.65c6.21,3.421,12.42,8.94,14.46,12.841   c3.06,5.88,2.04,15-2.7,23.699c-3.63,6.721-9.391,11.7-18.75,16.32c-7.74,3.78-12.24,5.22-16.26,5.25c-3.9,0-6.931-1.26-14.4-6.12   c-2.46-1.59-5.31-3.42-6.3-4.02c-2.04-1.29-4.05-3.12-4.05-3.69c0-0.689-1.11-0.42-2.431,0.601c-1.56,1.17-2.97,3.72-2.97,5.31   c0,0.99-0.21,1.32-1.65,2.64c-0.899,0.841-1.649,1.681-1.649,1.86c0,0.21,0.39,0.81,0.87,1.38c0.989,1.11,1.47,2.46,1.739,4.83   l0.181,1.59h1.14c1.44,0,5.01,0.69,7.351,1.44c3.119,0.99,13.71,7.59,17.22,10.77l1.649,1.471l3.601-0.03   c2.85-0.061,3.99-0.181,5.55-0.72c4.74-1.62,8.19-3.721,17.55-10.62c12-8.851,16.29-13.021,21.21-20.61   c4.38-6.72,6.391-12.87,6.721-20.55c0.359-7.83-1.471-15.84-4.921-21.69c-3.81-6.42-13.619-12.42-28.71-17.64   c-3.39-1.17-5.819-1.44-7.859-0.93c-0.78,0.21-0.99,0.149-0.99-0.181c0-0.899-1.2-1.5-3.39-1.74c-1.17-0.149-2.641-0.329-3.21-0.42   C783.15,428.73,782.31,428.91,781.05,429.45z" style="stroke:black;fill:#BFDAE3"/><path id="180623552" parent_id="180608862" order="37" structure_id="1" d="M722.94,458.49c-4.29,0.21-8.221,0.779-14.49,2.04c-5.22,1.08-7.351,1.08-9.54,0   c-2.01-0.96-4.32-3.181-7.23-6.9c-7.199-9.18-17.1-15.75-30.06-19.92c-6.51-2.1-12.3-2.97-19.92-2.97   c-10.53,0.029-18.75,1.77-26.4,5.609c-5.28,2.641-12.66,7.44-18,11.73c-6.03,4.83-8.1,6.09-11.46,6.87   c-2.43,0.569-7.229,0.569-11.79,0c-7.109-0.9-9.81-0.51-16.83,2.34c-7.842,3.193-11.711,4.136-17.22,4.052v9.639   c3.77-0.016,7.678-0.653,14.97-1.931c5.28-0.93,5.431-0.93,5.431-0.149c0,0.779-0.99,2.76-1.62,3.27   c-0.271,0.24-0.48,0.66-0.48,0.96c0,0.51,0.24,0.57,1.891,0.57c2.22,0,2.909,0.51,2.909,2.04c0,0.54,0.12,0.96,0.24,0.96   c0.15,0,1.8-0.54,3.69-1.23c8.609-3.06,13.319-4.14,21.72-4.92c2.64-0.24,5.34-0.6,6-0.78c1.44-0.42,5.13-2.22,5.4-2.67   c0.09-0.149,0.449-0.3,0.779-0.3c0.511,0,0.601-0.12,0.42-0.87c-0.359-1.739,0.42-2.76,3.811-4.92c1.74-1.109,3.39-2.01,3.66-2.01   c0.27,0,0.479-0.18,0.479-0.39c0-0.54,10.29-7.2,13.53-8.73c5.28-2.49,10.92-3.6,18.27-3.6c5.91,0,8.94,0.239,12.99,1.02   c8.76,1.71,16.08,5.34,24.96,12.36c4.32,3.42,6.03,4.59,7.8,5.37c0.75,0.33,2.311,1.56,3.57,2.819c1.26,1.23,2.4,2.25,2.58,2.25   s0.84,0.33,1.44,0.75c0.6,0.42,2.189,1.2,3.51,1.71c2.25,0.9,2.64,0.96,6.45,0.99c3.96,0.061,4.08,0.03,4.949-0.72   c0.511-0.45,2.4-1.83,4.261-3.09c6.27-4.351,12.989-10.021,12.989-10.98C726.6,458.37,726.06,458.34,722.94,458.49z" style="stroke:black;fill:#BFDAE3"/><path id="180623552" parent_id="180608862" order="38" structure_id="1" d="M631.02,492.96   c0.12,0.54,0.271,2.1,0.391,3.45c0.149,2.28,0.09,2.609-0.63,4.08c-0.42,0.899-0.78,1.8-0.78,2.01c0,0.42,0.09,0.39,3.75-1.02   c2.46-0.931,5.55-1.65,9.54-2.131c0.78-0.119,1.41-0.33,1.41-0.54s-1.05-0.6-2.34-0.899c-2.971-0.69-7.29-2.82-9.271-4.561   C631.23,491.73,630.75,491.64,631.02,492.96z" style="stroke:black;fill:#BFDAE3"/><path id="180623552" parent_id="180608862" order="39" structure_id="1" d="M544.95,533.01l0.18-1.41h-5.1c-0.011,0-0.02,0-0.03,0v54c4.08,0,4.41-0.119,3.39-1.26   c-0.449-0.51-0.569-1.89-0.93-9.63c-0.3-6.54-0.33-9.3-0.09-9.96c0.21-0.6,0.21-1.29,0.03-2.1c-0.66-2.79-0.15-5.82,1.05-6.631   c0.75-0.479,1.02-1.319,0.45-1.319c-0.15,0-0.57-0.57-0.931-1.26c-0.779-1.53-0.75-2.4,0.721-12.091   C544.29,537.54,544.83,533.82,544.95,533.01z" style="stroke:black;fill:#BFDAE3"/><path id="180623552" parent_id="180608862" order="40" structure_id="1" d="M634.47,634.95   c-20.7,3.6-38.85,11.1-53.76,22.229c-4.41,3.301-9.51,7.771-9.51,8.37c0,0.24,1.41,1.11,3.42,2.04c3.6,1.71,6.93,3.78,8.43,5.16   c0.811,0.78,0.931,0.81,1.8,0.45c7.98-3.3,17.25-5.01,25.771-4.71c5.52,0.18,8.7,0.84,11.07,2.31c1.739,1.08,2.31,1.141,2.31,0.21   c0-0.899-1.29-2.85-4.38-6.72c-3.54-4.38-3.72-4.71-3.72-6.75c0-1.44,0.149-1.89,0.989-3c1.32-1.771,3.181-2.64,9.66-4.47   c2.97-0.84,6.96-2.16,8.851-2.971c4.29-1.83,7.68-2.55,10.859-2.31l2.34,0.15v-0.78c0-0.45,0.091-1.11,0.181-1.5   c0.149-0.48,0.06-0.66-0.271-0.66c-0.45,0-3.84-3.6-6.18-6.54c-0.96-1.17-1.14-1.26-2.4-1.229   C639.18,634.23,636.72,634.56,634.47,634.95z" style="stroke:black;fill:#BFDAE3"/><path id="180623552" parent_id="180608862" order="41" structure_id="1" d="M662.91,643.29   c-0.24,0.66-4.17,3.69-5.91,4.59c-2.37,1.2-5.13,1.23-6.69,0.03c-0.569-0.45-1.17-0.811-1.319-0.811c-0.12,0-0.84,1.351-1.53,3   c-0.72,1.65-2.19,4.5-3.3,6.36c-1.771,3.03-2.521,3.93-7.17,8.58c-5.07,5.07-5.19,5.22-5.19,6.45c0,3.029,1.2,4.92,3.72,5.88   c1.681,0.63,6.69,1.41,6.99,1.11c0.09-0.091,0.03-0.931-0.18-1.86c-1.17-5.97,1.29-14.49,4.14-14.16   c1.351,0.15,1.681,1.35,1.65,6.09c0,4.47-0.45,6.51-1.89,8.521c-0.961,1.319-0.841,1.649,0.539,1.41   c1.86-0.301,3.811-1.261,5.221-2.58c0.72-0.66,1.529-1.2,1.8-1.2c0.33,0,0.6-0.45,0.81-1.29c0.811-3.061,1.681-5.19,4.051-9.93   c3.239-6.421,3.93-8.61,4.649-14.851c0.33-2.729,0.601-5.16,0.601-5.37C663.9,642.78,663.12,642.78,662.91,643.29z" style="stroke:black;fill:#BFDAE3"/><path id="180623552" parent_id="180608862" order="42" structure_id="1" d="M544.68,657c0.24,0,0.42-0.21,0.42-0.45c0-0.39-0.779-0.45-5.1-0.45v32.4c3.51,0,4.8-0.24,4.8-0.9   c0-0.3-0.21-0.6-0.45-0.689c-0.63-0.24-1.529-2.19-1.979-4.26c-0.45-2.04-0.601-19.681-0.18-22.141   C542.46,659.01,543.87,657,544.68,657z" style="stroke:black;fill:#BFDAE3"/><path id="180623552" parent_id="180608862" order="43" structure_id="1" d="M752.64,541.2c-2.34-3.9-6.51-9.601-7.05-9.601c-0.51,0-0.51-0.029,0.63,4.051   c1.38,4.949,1.74,8.31,1.891,18.149c0.359,22.771-2.58,38.55-10.11,53.851c-5.22,10.619-10.41,16.59-17.43,19.949   c-3.21,1.53-6.09,2.37-9.03,2.61c-1.26,0.09-2.4,0.271-2.55,0.36c-0.15,0.09-0.84,1.08-1.561,2.22c-1.649,2.55-4.29,5.01-6.54,6.09   c-1.409,0.66-2.279,0.87-4.47,0.96l-2.729,0.12l-0.15,2.01c-0.36,4.74-5.13,10.5-8.73,10.53c-1.979,0-7.109-3.54-9.3-6.39   c-1.02-1.351-1.89-1.5-1.56-0.301c0.39,1.65,0.51,10.65,0.18,14.551c-0.45,5.22-1.41,10.92-2.25,13.439   c-1.26,3.66-4.68,7.771-7.59,9.061c-1.38,0.6-3.21,0.63-6.06,0.06c-1.021-0.21-1.021-0.18-0.841,0.72   c0.391,1.891-0.96,4.2-4.56,7.83c-6.15,6.21-11.58,9.33-20.07,11.49c-3.27,0.84-4.35,0.96-7.56,0.99c-3.63,0-3.84-0.03-5.7-0.96   c-2.16-1.05-5.52-3.9-5.79-4.891c-0.33-1.26,0.72-1.8,5.79-2.85c4.32-0.93,6.24-1.56,9.39-3.18c2.82-1.44,10.2-6.21,15.21-9.87   c4.17-3.03,5.551-3.54,8.131-3c0.989,0.21,1.829,0.33,1.92,0.27c0.239-0.27-0.24-4.77-0.54-4.77c-0.15,0-0.9,0.54-1.62,1.2   c-1.95,1.8-3.66,2.46-6.87,2.64c-5.25,0.27-10.47-0.9-11.94-2.67c-0.84-0.99-1.38-2.61-1.38-4.11c0-1.05-0.569-1.29-1.2-0.479   c-0.239,0.239-0.989,0.81-1.71,1.229c-1.08,0.63-1.529,0.721-2.64,0.54c-1.08-0.149-1.35-0.09-1.35,0.271   c0,0.239,0.149,0.54,0.3,0.63c0.569,0.359,1.8,3.149,2.28,5.16c1.289,5.489-1.29,10.92-5.761,12.18   c-3.479,0.99-5.189,0.75-12.12-1.59c-9.119-3.09-11.52-3.601-18.75-3.87c-4.439-0.18-6.39-0.39-7.5-0.78   c-3.359-1.17-4.56-3.06-3.63-5.76c0.3-0.78,0.601-1.771,0.69-2.16l0.18-0.72l-2.16,0.21c-3.149,0.27-7.41,1.26-11.55,2.64   c-3.33,1.11-5.85,2.13-15.84,6.51c-4.71,2.07-7.41,2.73-11.04,2.73v23.066c0.034,0.021,0.064,0.033,0.09,0.033   c0.21,0,0.69-0.75,1.08-1.649c0.96-2.22,4.021-5.46,7.021-7.47c9.6-6.33,26.46-11.16,37.109-10.591   c9.63,0.511,19.891,5.79,22.83,11.79c1.38,2.79,1.5,5.46,0.45,8.641c-0.45,1.29-0.72,2.43-0.63,2.52s3.42-0.87,7.439-2.16   c16.261-5.22,18.96-6.18,24.42-8.85c9.21-4.53,13.771-7.35,21.511-13.35c10.17-7.891,26.01-19.62,37.02-27.45   c4.021-2.851,7.38-5.37,7.47-5.61c0.421-1.11-1.8-2.01-6.359-2.67c-1.83-0.24-3.09-0.57-3.45-0.9c-0.9-0.81-1.02-2.04-0.33-3.359   c1.29-2.49,4.35-4.65,11.58-8.19c7.47-3.63,13.8-5.97,19.65-7.2c1.739-0.39,3.3-0.72,3.479-0.779   c0.54-0.12,9.21-9.511,11.37-12.271c1.02-1.319,2.73-3.81,3.81-5.55c1.08-1.74,3.21-5.1,4.771-7.5c4.65-7.08,5.25-8.25,6.24-11.85   c2.34-8.521,3.39-16.23,3.39-24.9C759.99,559.65,757.56,549.45,752.64,541.2z" style="stroke:black;fill:#BFDAE3"/><path id="180623552" parent_id="180608862" order="44" structure_id="1" d="M601.35,668.85   c-9.42,1.381-16.529,3.75-19.109,6.33c-2.431,2.4-3.42,6.271-2.04,7.98c1.35,1.74,5.49,2.64,12.06,2.64   c4.74,0,8.851,0.9,16.891,3.66c6.06,2.1,6.42,2.16,9,2.16c6.18-0.061,9.06-2.82,9.39-9.03c0.12-2.31,0.03-3.12-0.51-4.8   c-1.74-5.37-5.431-8.13-12.181-9.06C611.79,668.28,604.71,668.37,601.35,668.85z" style="stroke:black;fill:#BFDAE3"/><path id="180623552" parent_id="180608862" order="45" structure_id="1" d="M640.95,645.21   c-1.141,0.24-3.66,1.08-5.55,1.89c-1.891,0.811-5.881,2.131-8.851,2.971c-6.479,1.83-8.34,2.699-9.66,4.47   c-0.84,1.11-0.989,1.56-0.989,2.94c0,2.069,0.21,2.46,3.869,7.02c1.65,2.04,3.45,4.59,3.99,5.64c1.561,3,2.91,3.721,4.891,2.49   c1.319-0.78,7.319-6.33,10.649-9.84c3.15-3.3,5.641-7.17,7.95-12.24c1.62-3.569,1.77-5.1,0.57-5.55   C646.74,644.58,643.41,644.67,640.95,645.21z" style="stroke:black;fill:#BFDAE3"/><path id="180623552" parent_id="180608862" order="46" structure_id="1" d="M648.15,679.59   c-0.48,0.24-2.641,1.68-4.801,3.21c-4.979,3.601-10.949,7.5-13.71,9c-3.18,1.71-5.88,2.641-10.409,3.63   c-5.58,1.2-6.33,1.83-4.65,3.87c1.08,1.26,4.26,3.51,5.729,4.021c3.03,1.08,6.811,0.899,12.811-0.601   c8.49-2.13,13.56-5.1,19.86-11.58c4.5-4.62,5.13-6.33,3.449-8.97c-1.229-1.979-2.64-2.729-5.25-2.88   C649.8,679.23,648.75,679.32,648.15,679.59z" style="stroke:black;fill:#BFDAE3"/><path id="180623552" parent_id="180608862" order="47" structure_id="1" d="M681.45,609.24c-1.561,0.99-1.8,1.5-1.771,3.63   c0,2.28,0.931,4.62,2.49,6.42c2.28,2.55,7.59,5.31,10.29,5.31h1.17l-0.24-1.14c-0.75-3.54,0.03-6.63,2.16-8.4   c1.08-0.869,1.08-0.899,0.75-2.069c-0.33-1.08-0.51-1.26-2.37-1.95c-3.93-1.53-6.18-2.1-8.88-2.25   C682.74,608.67,682.23,608.76,681.45,609.24z" style="stroke:black;fill:#BFDAE3"/><path id="180623552" parent_id="180608862" order="48" structure_id="1" d="M692.64,473.16   c-0.09,2.609-0.239,3.33-0.899,4.62c-1.83,3.479-6.45,6.3-10.92,6.63c-1.23,0.09-2.221,0.3-2.221,0.45   c0,0.12,0.301,1.26,0.66,2.489c0.57,1.98,0.63,2.46,0.33,3.9c-0.21,0.9-0.689,2.13-1.109,2.76c-1.95,2.851-6.99,4.681-13.98,5.13   c-2.46,0.181-3.15,0.301-3.21,0.66c-0.09,0.33,0.57,0.601,2.58,1.08c3.3,0.811,7.35,2.67,9,4.17c5.01,4.53,4.11,13.11-1.62,15.48   c-0.9,0.359-1.65,0.81-1.62,0.989c0,0.181,0.63,0.721,1.41,1.23c2.729,1.74,4.77,5.97,5.61,11.73c0.239,1.68,0.84,4.35,1.35,5.939   c1.71,5.55,2.52,11.25,2.19,15.21c-0.15,2.16-0.12,2.311,0.479,2.521c1.17,0.359,1.561,1.77,2.01,6.869   c0.57,6.811,0.9,8.82,2.25,12.931c4.561,14.16,3.99,21.27-1.71,20.729c-3.899-0.359-9.989-5.34-12.45-10.14   c-0.329-0.63-0.72-1.14-0.869-1.14c-0.15,0-1.2,0.6-2.311,1.319c-6.06,3.9-12.33,4.65-19.56,2.28c-3.63-1.17-7.471-3.15-10.53-5.4   c-5.31-3.899-12.75-12.33-15.18-17.189c-2.61-5.16-3.721-14.58-2.79-23.641c0.51-5.31,2.31-10.949,5.1-16.14l1.23-2.28l-1.051-1.71   c-1.829-3.029-2.46-5.55-2.46-9.84c0-3.63,0.03-3.84,0.99-5.729c0.51-1.11,0.96-2.13,0.96-2.28c0-0.18-1.229-0.33-3.06-0.33   c-3.12,0-5.34-0.479-9.3-2.04c-0.78-0.3-1.5-0.45-1.62-0.36c-0.09,0.12,0.21,1.261,0.72,2.551c1.17,3.09,1.65,5.43,1.65,8.22   c0,3-0.48,4.979-1.95,8.04c-2.851,6-9.811,10.35-13.74,8.58c-0.66-0.3-1.29-0.48-1.38-0.391c-0.42,0.421,1.08,12.78,2.31,18.931   c2.34,11.88,5.641,21.45,11.221,32.46c8.369,16.59,20.1,35.91,28.77,47.399c4.38,5.82,9.87,12.15,10.53,12.15   c0.21,0,0.75-0.75,1.17-1.68c2.13-4.62,7.2-9.69,10.47-10.44c1.47-0.36,4.08,0.63,5.49,2.01c1.56,1.561,2.01,3.03,1.59,5.07   c-0.18,0.81-0.27,1.53-0.21,1.59c0.06,0.061,0.66,0.03,1.38-0.06l1.26-0.181v-2.34c0-4.529,2.19-9.3,5.011-10.979   c1.35-0.78,1.649-0.84,4.739-0.84c3.54,0.029,5.67,0.51,8.311,1.83c1.859,0.93,3.66,2.579,4.14,3.72   c0.21,0.51,0.51,0.899,0.69,0.899c0.149,0,0.81-0.479,1.439-1.05c0.66-0.569,1.32-1.05,1.471-1.05c0.18,0,0.3-0.21,0.3-0.45   s-0.12-0.45-0.271-0.45c-0.18,0-0.63-0.569-1.05-1.26c-0.689-1.17-0.899-1.29-2.64-1.649c-4.41-0.9-9.601-4.471-11.19-7.74   c-0.81-1.62-1.26-4.351-0.96-5.641c0.3-1.14,1.62-2.22,3.21-2.609c1.98-0.48,4.771,0,9.24,1.56c1.89,0.66,3.479,1.141,3.54,1.05   c0.09-0.06-0.21-2.01-0.66-4.29c-0.689-3.569-0.81-5.01-0.84-10.02c0-3.21,0.15-9.15,0.36-13.23   c0.42-7.949,0.149-16.26-0.66-20.069c-0.24-1.08-1.17-3.51-2.101-5.431c-1.979-4.199-3.84-9.539-4.71-13.619   c-0.6-2.67-0.689-4.29-0.87-14.4c-0.18-10.5-0.239-11.58-0.869-13.65c-1.471-5.069-1.65-5.939-1.62-8.1   c0.029-2.64,0.84-5.52,2.04-7.05c1.83-2.431,5.489-3.12,10.17-1.95c6.689,1.68,14.489,5.79,17.79,9.42   c3.96,4.32,8.97,14.13,10.529,20.58c0.271,1.14,0.66,2.1,0.841,2.1c0.18,0,0.51-0.569,0.72-1.29c0.63-2.1,2.01-4.56,3.12-5.52   c1.08-0.99,1.41-1.11,3.27-1.44c0.601-0.09,1.11-0.33,1.11-0.54s-0.931-0.72-2.04-1.17c-4.26-1.739-8.25-4.62-11.04-7.979   c-1.92-2.34-4.11-6.66-4.62-9.12c-0.21-1.08-0.9-2.61-1.86-4.2c-3.72-6.149-7.77-15.78-8.22-19.62c-0.24-1.83,0.21-3.54,1.38-5.25   c0.48-0.72,0.9-1.47,0.9-1.62c0-0.21-1.351-0.3-3.66-0.3c-3.45,0-3.84-0.06-6.09-0.96c-1.32-0.54-2.91-1.32-3.51-1.74   c-0.601-0.42-1.23-0.75-1.381-0.75C692.88,470.1,692.7,471.48,692.64,473.16z M674.4,596.25c0.93,1.14-1.891,6.51-5.131,9.75   c-2.67,2.67-6.329,4.56-8.939,4.62c-1.5,0.03-1.68-0.03-1.771-0.601c-0.119-0.869,1.08-2.22,3.96-4.409   c1.351-0.99,4.29-3.63,6.54-5.82s4.29-3.99,4.53-3.99S674.19,596.01,674.4,596.25z" style="stroke:black;fill:#BFDAE3"/><path id="180623552" parent_id="180608862" order="49" structure_id="1" d="M658.11,630.75   c-3.15,1.68-7.65,7.14-8.94,10.83c-0.3,0.87-0.57,2.31-0.57,3.15c0,1.439,0.091,1.649,1.17,2.699c1.921,1.801,4.29,1.891,7.53,0.24   c3.03-1.53,6.99-5.37,8.94-8.67c0.66-1.11,0.81-1.71,0.81-3.36c0-1.77-0.09-2.1-0.93-3.12   C664.17,630.12,660.75,629.34,658.11,630.75z" style="stroke:black;fill:#BFDAE3"/><path id="180623552" parent_id="180608862" order="50" structure_id="1" d="M675.42,624.63c-1.11,0.33-3.12,2.4-4.02,4.17   c-0.87,1.681-1.801,5.46-1.801,7.23c0,1.8,0.36,2.79,1.471,3.87c0.479,0.479,1.26,1.59,1.77,2.46c1.08,1.92,3.24,4.439,5.82,6.72   c4.95,4.41,8.64,4.2,12.12-0.66c2.13-2.97,2.64-4.53,2.609-8.07c0-3-0.27-5.1-1.17-8.909c-0.81-3.421-3.09-5.341-7.8-6.54   C681.96,624.27,677.16,624.12,675.42,624.63z M676.68,626.67c-0.27,0.42-0.989,0.42-1.229,0.03c-0.12-0.181-0.03-0.54,0.18-0.78   c0.33-0.39,0.42-0.39,0.811,0C676.68,626.16,676.77,626.49,676.68,626.67z M674.37,631.02c0.27,0.301,0.24,0.48-0.12,0.78   c-0.57,0.48-1.23-0.03-0.96-0.72C673.53,630.48,673.92,630.48,674.37,631.02z" style="stroke:black;fill:#BFDAE3"/><path id="180623552" parent_id="180608862" order="51" structure_id="1" d="M752.64,541.2c-2.34-3.9-6.51-9.601-7.05-9.601c-0.51,0-0.51-0.029,0.63,4.051   c1.38,4.949,1.74,8.31,1.891,18.149c0.359,22.771-2.58,38.55-10.11,53.851c-5.22,10.619-10.41,16.59-17.43,19.949   c-3.21,1.53-6.09,2.37-9.03,2.61c-1.26,0.09-2.4,0.271-2.55,0.36c-0.15,0.09-0.84,1.08-1.561,2.22c-1.649,2.55-4.29,5.01-6.54,6.09   c-1.409,0.66-2.279,0.87-4.47,0.96l-2.729,0.12l-0.15,2.01c-0.36,4.74-5.13,10.5-8.73,10.53c-1.979,0-7.109-3.54-9.3-6.39   c-1.02-1.351-1.89-1.5-1.56-0.301c0.39,1.65,0.51,10.65,0.18,14.551c-0.45,5.22-1.41,10.92-2.25,13.439   c-1.26,3.66-4.68,7.771-7.59,9.061c-1.38,0.6-3.21,0.63-6.06,0.06c-1.021-0.21-1.021-0.18-0.841,0.72   c0.391,1.891-0.96,4.2-4.56,7.83c-6.15,6.21-11.58,9.33-20.07,11.49c-3.27,0.84-4.35,0.96-7.56,0.99c-3.63,0-3.84-0.03-5.7-0.96   c-2.16-1.05-5.52-3.9-5.79-4.891c-0.33-1.26,0.72-1.8,5.79-2.85c4.32-0.93,6.24-1.56,9.39-3.18c2.82-1.44,10.2-6.21,15.21-9.87   c4.17-3.03,5.551-3.54,8.131-3c0.989,0.21,1.829,0.33,1.92,0.27c0.239-0.27-0.24-4.77-0.54-4.77c-0.15,0-0.9,0.54-1.62,1.2   c-1.95,1.8-3.66,2.46-6.87,2.64c-5.25,0.27-10.47-0.9-11.94-2.67c-0.84-0.99-1.38-2.61-1.38-4.11c0-1.05-0.569-1.29-1.2-0.479   c-0.239,0.239-0.989,0.81-1.71,1.229c-1.08,0.63-1.529,0.721-2.64,0.54c-1.08-0.149-1.35-0.09-1.35,0.271   c0,0.239,0.149,0.54,0.3,0.63c0.569,0.359,1.8,3.149,2.28,5.16c1.289,5.489-1.29,10.92-5.761,12.18   c-3.479,0.99-5.189,0.75-12.12-1.59c-9.119-3.09-11.52-3.601-18.75-3.87c-4.439-0.18-6.39-0.39-7.5-0.78   c-3.359-1.17-4.56-3.06-3.63-5.76c0.3-0.78,0.601-1.771,0.69-2.16l0.18-0.72l-2.16,0.21c-3.149,0.27-7.41,1.26-11.55,2.64   c-3.33,1.11-5.85,2.13-15.84,6.51c-4.71,2.07-7.41,2.73-11.04,2.73v23.066c0.034,0.021,0.064,0.033,0.09,0.033   c0.21,0,0.69-0.75,1.08-1.649c0.96-2.22,4.021-5.46,7.021-7.47c9.6-6.33,26.46-11.16,37.109-10.591   c9.63,0.511,19.891,5.79,22.83,11.79c1.38,2.79,1.5,5.46,0.45,8.641c-0.45,1.29-0.72,2.43-0.63,2.52s3.42-0.87,7.439-2.16   c16.261-5.22,18.96-6.18,24.42-8.85c9.21-4.53,13.771-7.35,21.511-13.35c10.17-7.891,26.01-19.62,37.02-27.45   c4.021-2.851,7.38-5.37,7.47-5.61c0.421-1.11-1.8-2.01-6.359-2.67c-1.83-0.24-3.09-0.57-3.45-0.9c-0.9-0.81-1.02-2.04-0.33-3.359   c1.29-2.49,4.35-4.65,11.58-8.19c7.47-3.63,13.8-5.97,19.65-7.2c1.739-0.39,3.3-0.72,3.479-0.779   c0.54-0.12,9.21-9.511,11.37-12.271c1.02-1.319,2.73-3.81,3.81-5.55c1.08-1.74,3.21-5.1,4.771-7.5c4.65-7.08,5.25-8.25,6.24-11.85   c2.34-8.521,3.39-16.23,3.39-24.9C759.99,559.65,757.56,549.45,752.64,541.2z" style="stroke:black;fill:#BFDAE3"/><path id="180623552" parent_id="180608862" order="52" structure_id="1" d="M554.97,469.05c-7.292,1.278-11.2,1.915-14.97,1.931V482.1c2.52,0,10.44-3.42,14.7-6.3   c3.18-2.189,5.7-5.22,5.7-6.899C560.4,468.12,560.25,468.12,554.97,469.05z" style="stroke:black;fill:#BFDAE3"/><path id="180623552" parent_id="180608862" order="53" structure_id="1" d="M554.7,487.29c-2.61,0.6-4.5,1.68-6.63,3.78   c-2.04,2.04-3.45,4.47-3.78,6.42c-0.21,1.35,0.06,1.38,1.83,0.359c1.08-0.63,2.76-0.96,12.06-2.279   c7.98-1.141,10.86-1.681,11.16-2.011c0.18-0.27,0.36-1.079,0.36-1.8c0-1.08-0.181-1.5-0.96-2.279c-1.71-1.681-3.99-2.37-8.49-2.461   C557.85,486.96,555.72,487.05,554.7,487.29z" style="stroke:black;fill:#BFDAE3"/><path id="180623552" parent_id="180608862" order="54" structure_id="1" d="M709.29,508.71   c-4.65,5.4-7.47,10.86-8.82,16.92c-0.3,1.41-0.75,5.4-1.02,8.851c-0.99,13.529-2.28,20.13-4.86,25.079l-1.05,2.011l0.54,2.939   c0.689,3.78,0.78,19.62,0.15,26.94c-0.33,3.899-0.36,5.58-0.061,8.85c0.36,4.141,1.2,9.12,2.04,11.94   c0.51,1.83,0.39,1.83,3.69,0.569c1.08-0.42,3.6-1.079,5.58-1.5c1.979-0.42,4.289-1.079,5.1-1.5c4.83-2.46,7.74-7.439,10.32-17.64   c1.71-6.75,1.8-7.68,2.1-24.72c0.15-8.76,0.33-19.021,0.39-22.8c0.12-5.7,0.24-7.32,0.75-9.301c0.601-2.25,0.601-2.52,0.181-4.59   c-1.38-6.81-6.601-17.37-10.891-22.05c-0.87-0.93-1.83-1.71-2.13-1.71S710.1,507.78,709.29,508.71z" style="stroke:black;fill:#BFDAE3"/><path id="180623552" parent_id="180608862" order="55" structure_id="1" d="M605.04,461.1   c-3.48,2.25-3.99,2.971-3.66,5.16c0.271,1.62,1.86,2.88,5.61,4.5c8.49,3.63,16.47,10.05,21.75,17.521   c2.76,3.93,5.1,6.029,8.58,7.739c4.949,2.431,9.569,3.181,19.47,3.181c12.15,0,18.09-1.26,20.97-4.44   c1.44-1.59,1.83-2.97,1.681-5.58c-0.24-3.51-2.49-7.439-5.82-10.02l-1.32-1.05l-3,0.54c-4.71,0.81-7.29,0.689-12.149-0.57   c-4.65-1.23-12.391-3.99-19.351-6.87c-6.72-2.79-7.77-3.15-12.51-4.29c-5.31-1.29-5.7-1.439-6.96-2.61   c-1.35-1.29-1.92-2.699-1.68-4.17l0.21-1.17l-1.17,0.24c-1.381,0.3-3.931,0.3-5.94,0.03C608.25,459.06,608.16,459.06,605.04,461.1z   " style="stroke:black;fill:#BFDAE3"/><path id="180623552" parent_id="180608862" order="56" structure_id="1" d="M646.83,446.97c-0.42,0.3-1.8,1.08-3.09,1.71   s-2.34,1.29-2.34,1.5s0.84,0.511,2.04,0.69c9.359,1.62,17.64,6,19.68,10.439c0.39,0.841,1.14,1.561,2.82,2.7   c5.159,3.48,10.56,9,10.56,10.771c0,0.84-0.84,1.649-2.4,2.37c-0.659,0.3-1.199,0.659-1.199,0.81s0.899,1.17,2.04,2.28   c1.109,1.14,2.279,2.55,2.609,3.149c0.54,0.99,0.72,1.11,1.8,1.11c1.83,0,5.221-0.81,6.931-1.65c4.59-2.25,6.81-6.18,6.27-11.1   c-0.21-2.01-0.21-2.04-2.31-4.08c-1.141-1.14-2.67-2.31-3.391-2.64c-1.77-0.78-3.479-1.95-7.8-5.37   c-8.85-6.99-16.29-10.71-24.81-12.33C649.11,446.37,647.67,446.28,646.83,446.97z" style="stroke:black;fill:#BFDAE3"/><path id="180623552" parent_id="180608862" order="57" structure_id="1" d="M647.73,521.13   c-3.811,0.33-7.23,1.44-10.591,3.48c-2.939,1.739-6.09,4.77-7.229,6.93c-1.141,2.1-1.74,5.64-1.74,10.26   c-0.03,4.891,0.57,7.74,2.79,13.53c0.99,2.64,0.93,2.61,4.89,2.88c4.71,0.3,11.761-0.87,16.32-2.7   c5.76-2.31,20.76-13.77,23.73-18.06c0.84-1.23,0.869-1.32,0.569-3.271c-0.42-3.149-0.87-4.649-1.95-6.96   c-1.619-3.479-3.81-5.25-7.109-5.85C665.13,520.98,651.39,520.8,647.73,521.13z" style="stroke:black;fill:#BFDAE3"/><path id="180623552" parent_id="180608862" order="58" structure_id="1" d="M634.5,521.58c-2.49,0.51-5.79,2.16-7.56,3.72   c-2.79,2.431-6.45,11.311-7.29,17.641c-0.511,3.84-0.57,12.06-0.12,15.81c0.479,4.02,1.62,8.07,2.85,10.26   c2.521,4.5,8.01,10.95,12.69,14.88c4.649,3.9,9.21,6.33,14.55,7.801c3.66,0.989,9.33,0.899,12.63-0.181   c3.78-1.229,8.07-4.05,9.69-6.33c0.479-0.689,1.17-1.8,1.529-2.489c1.23-2.431,0.601-2.91-1.319-0.96c-1.561,1.59-3.75,3-6,3.869   c-2.58,0.99-6.66,1.021-9.75,0.03c-8.49-2.64-15.061-8.58-20.221-18.36c-3.54-6.75-6.66-14.699-7.68-19.77   c-1.05-5.19-0.57-12.06,1.14-15.57c1.561-3.239,6.54-7.38,11.07-9.239c0.81-0.36,1.29-0.721,1.29-1.08c0-0.45-0.33-0.511-2.76-0.48   C637.71,521.13,635.58,521.34,634.5,521.58z" style="stroke:black;fill:#BFDAE3"/><path id="180623552" parent_id="180608862" order="59" structure_id="1" d="M632.4,558.63c0,0.93,5.01,11.01,6.899,13.83   c5.4,8.16,14.4,13.74,22.08,13.74c2.55,0,5.64-0.75,6.96-1.65c2.4-1.71-1.77-9.42-7.439-13.8c-0.96-0.75-3.45-2.13-5.551-3.12   c-4.59-2.189-7.08-3.81-10.619-6.93l-2.7-2.4l-3.54,0.061c-1.95,0.029-4.11-0.061-4.8-0.181C632.49,557.97,632.4,558,632.4,558.63z   " style="stroke:black;fill:#BFDAE3"/><path id="180623552" parent_id="180608862" order="60" structure_id="1" d="M675,538.68   c-2.82,3.63-15.66,13.351-21.45,16.261c-2.28,1.109-6.149,2.369-8.85,2.79c-1.23,0.21-2.101,0.51-2.101,0.72   c0,0.359,2.79,2.91,5.19,4.74c2.1,1.59,5.19,3.359,7.979,4.529c3.03,1.261,5.671,3.15,8.04,5.7c3,3.18,4.891,6.33,5.341,8.94   c0.149,0.689,0.39,1.14,0.659,1.14c0.57,0,3.48-2.76,5.011-4.8c1.739-2.311,2.819-5.76,4.05-13.05   c1.38-7.95,1.53-12.811,0.66-18.271c-0.75-4.56-2.4-10.08-3.03-10.08C676.26,537.33,675.57,537.93,675,538.68z" style="stroke:black;fill:#BFDAE3"/><path id="180623552" parent_id="180608862" order="61" structure_id="1" d="M641.55,499.53   c-6.689,0.899-14.25,4.2-16.8,7.29c-2.28,2.79-3.03,6.96-2.13,11.58c0.54,2.819,2.64,7.5,3.33,7.5c0.24,0,1.05-0.45,1.77-1.021   c1.681-1.29,4.62-2.67,6.78-3.21c1.44-0.36,4.86-0.45,8.4-0.21c0.569,0.03,2.399-0.12,4.05-0.33c2.13-0.27,6.03-0.36,13.35-0.3   l10.351,0.12l1.439-0.84c2.82-1.681,3.99-4.23,3.75-8.37c-0.18-3-1.08-5.01-3-6.69c-2.7-2.31-7.8-4.109-14.34-5.1   C654.66,499.38,644.43,499.11,641.55,499.53z" style="stroke:black;fill:#BFDAE3"/><path id="180623552" parent_id="180608862" order="62" structure_id="1" d="M781.8,419.97c-0.39-1.38-1.229-2.16-4.8-4.56c-6.24-4.17-7.53-5.46-16.47-16.561   c-11.521-14.25-23.46-30.45-32.7-44.31c-5.61-8.46-6.66-10.14-17.521-28.74c-28.29-48.42-42.63-71.25-51.029-81.15   c-8.58-10.11-21.36-22.35-33.63-32.22c-19.891-15.99-39.24-26.46-55.051-29.73c-6.747-1.374-9.075-1.499-30.6-1.471v20.519   c4.244,0.048,9.09,0.253,12.9,0.602c12.96,1.14,33.449,3.51,40.17,4.68c10.229,1.74,21.689,5.61,26.52,8.939   c2.43,1.65,4.59,3.87,6.33,6.45c0.93,1.38,3.811,4.77,6.42,7.53c6.03,6.39,7.26,7.8,10.98,12.78c3.569,4.74,6.18,9,7.71,12.57   c1.319,3.12,5.939,17.04,7.02,21.15c0.72,2.76,1.08,3.48,5.13,10.14c7.53,12.27,11.94,20.37,16.32,29.94   c5.94,12.87,7.65,19.92,6,24.39c-0.63,1.68-2.55,3.78-3.45,3.78c-1.35,0-3.33-1.62-8.25-6.63c-2.88-2.97-5.7-5.7-6.27-6.12   c-1.11-0.81-2.67-0.99-3.271-0.39c-0.51,0.51-0.45,4.62,0.12,7.38c1.17,5.7,4.98,15.69,8.79,23.04   c3.84,7.41,7.41,12.27,12.811,17.52c4.319,4.2,6.329,5.7,19.619,14.85c28.17,19.35,36.391,24.24,46.65,27.75   c14.64,5.04,18.96,8.16,15.6,11.221c-3.27,3-13.38,6.899-21.39,8.279c-8.37,1.44-15.63,0.45-22.68-3.06   c-8.4-4.23-17.971-11.73-29.311-23.04c-10.83-10.8-18.21-19.5-28.47-33.6c-10.08-13.86-16.02-23.52-25.8-41.7   c-5.04-9.42-7.95-14.37-10.29-17.55c-7.23-9.81-16.08-15.9-29.88-20.61c-4.771-1.62-15.87-4.8-22.32-6.39   c-15.391-3.825-24.532-5.03-37.71-5.039v30.209l8.31-1.02c12.511-1.53,11.4-1.62,28.591,2.37c18.27,4.23,20.31,4.65,26.52,5.58   c13.561,2.04,19.32,3.99,23.49,8.01c5.01,4.83,8.49,10.8,8.49,14.64c0,2.97-2.46,5.61-5.94,6.33c-3.84,0.78-9.3-0.39-20.25-4.35   c-3.84-1.38-7.62-2.73-8.46-2.97c-7.59-2.4-19.02-4.08-34.2-5.07c-4.026-0.254-15.292-0.382-26.55-0.382v5.715   c3.19,0.001,6.529-0.039,8.85-0.112c18.931-0.6,32.011,1.5,40.62,6.51c2.13,1.26,4.74,3.27,3.811,2.91   c-2.58-0.93-11.28-2.91-17.19-3.93c-8.056-1.383-19.198-1.955-36.09-1.897v9.509c2.806,0.006,5.404-0.15,9.15-0.472   c3.479-0.27,9.3-0.51,13.8-0.51c9.18-0.03,7.71-0.36,19.95,4.38c21.09,8.16,29.13,10.77,37.859,12.24   c12.84,2.19,24.78,7.08,36.99,15.15c6.9,4.59,10.05,7.95,10.05,10.8c-0.03,1.77-1.319,6.66-1.979,7.38   c-1.71,1.89-4.801,1.92-10.92,0.12c-10.65-3.18-17.101-4.41-35.46-6.75c-5.16-0.66-11.82-1.59-14.79-2.1   c-10.021-1.681-13.771-2.131-18.75-2.28l-4.95-0.18L576,402c-12.879,4.017-24.422,6.025-36,6.021v12.81   c3.369,0.03,6.279-0.217,9.75-0.651c6.69-0.87,19.92-2.85,30.27-4.56c6.961-1.14,9.391-1.23,18.36-0.72   c10.26,0.6,38.76,3.119,39.09,3.479c0.271,0.271-0.33,0.39-6.45,1.14c-8.01,0.99-17.159,1.83-26.369,2.431   c-9.091,0.569-13.591,1.29-31.74,4.979c-20.94,4.261-23.43,4.59-32.91,4.59v29.822c5.509,0.084,9.378-0.859,17.22-4.052   c7.021-2.85,9.721-3.24,16.83-2.34c4.561,0.569,9.36,0.569,11.79,0c3.36-0.78,5.43-2.04,11.46-6.87c5.34-4.29,12.72-9.09,18-11.73   c7.65-3.84,15.87-5.58,26.4-5.609c7.62,0,13.41,0.87,19.92,2.97c12.96,4.17,22.86,10.74,30.06,19.92c2.91,3.72,5.221,5.94,7.23,6.9   c2.189,1.08,4.32,1.08,9.54,0c6.359-1.29,10.5-1.86,15.149-2.07c3.931-0.21,4.051-0.24,4.471-0.99c0.54-0.96,0.239-2.22-0.601-2.67   c-0.33-0.18-2.67-0.87-5.16-1.5c-7.859-1.979-14.43-4.74-19.319-8.189c-4.74-3.33-15.63-14.7-16.17-16.891   c-0.24-0.899,0.42-1.739,1.17-1.47c0.27,0.12,2.729,2.64,5.52,5.64c5.76,6.181,10.38,10.471,12.96,12.061   c2.46,1.47,5.07,2.34,10.53,3.479c4.35,0.9,4.89,0.931,9.15,0.78c5.13-0.15,11.04-0.99,19.05-2.61c5.189-1.05,6.09-1.35,14.1-4.59   c4.71-1.89,9.271-3.66,10.11-3.93c2.939-0.96,8.52-7.23,11.16-12.48C781.92,422.46,782.19,421.32,781.8,419.97z M748.95,413.37   c-8.19-5.04-21.57-15.93-32.101-26.13c-6.96-6.75-7.77-8.46-8.43-18.09c-0.66-10.02-2.22-17.64-5.28-26.16   c-0.84-2.34-1.439-4.47-1.35-4.71c0.3-0.75,0.99-0.57,1.979,0.57c1.95,2.25,3.57,6.42,6.9,17.91c4.35,14.94,5.85,18.03,13.14,27.12   c7.08,8.82,15.301,17.46,20.641,21.69c5.25,4.17,14.13,9.479,23.49,14.069c3.42,1.65,5.76,2.971,5.76,3.24   C773.7,425.28,759.33,419.76,748.95,413.37z" style="stroke:black;fill:#BFDAE3"/><path id="180623552" parent_id="180608862" order="63" structure_id="1" d="M692.64,473.16   c-0.09,2.609-0.239,3.33-0.899,4.62c-1.83,3.479-6.45,6.3-10.92,6.63c-1.23,0.09-2.221,0.3-2.221,0.45   c0,0.12,0.301,1.26,0.66,2.489c0.57,1.98,0.63,2.46,0.33,3.9c-0.21,0.9-0.689,2.13-1.109,2.76c-1.95,2.851-6.99,4.681-13.98,5.13   c-2.46,0.181-3.15,0.301-3.21,0.66c-0.09,0.33,0.57,0.601,2.58,1.08c3.3,0.811,7.35,2.67,9,4.17c5.01,4.53,4.11,13.11-1.62,15.48   c-0.9,0.359-1.65,0.81-1.62,0.989c0,0.181,0.63,0.721,1.41,1.23c2.729,1.74,4.77,5.97,5.61,11.73c0.239,1.68,0.84,4.35,1.35,5.939   c1.71,5.55,2.52,11.25,2.19,15.21c-0.15,2.16-0.12,2.311,0.479,2.521c1.17,0.359,1.561,1.77,2.01,6.869   c0.57,6.811,0.9,8.82,2.25,12.931c4.561,14.16,3.99,21.27-1.71,20.729c-3.899-0.359-9.989-5.34-12.45-10.14   c-0.329-0.63-0.72-1.14-0.869-1.14c-0.15,0-1.2,0.6-2.311,1.319c-6.06,3.9-12.33,4.65-19.56,2.28c-3.63-1.17-7.471-3.15-10.53-5.4   c-5.31-3.899-12.75-12.33-15.18-17.189c-2.61-5.16-3.721-14.58-2.79-23.641c0.51-5.31,2.31-10.949,5.1-16.14l1.23-2.28l-1.051-1.71   c-1.829-3.029-2.46-5.55-2.46-9.84c0-3.63,0.03-3.84,0.99-5.729c0.51-1.11,0.96-2.13,0.96-2.28c0-0.18-1.229-0.33-3.06-0.33   c-3.12,0-5.34-0.479-9.3-2.04c-0.78-0.3-1.5-0.45-1.62-0.36c-0.09,0.12,0.21,1.261,0.72,2.551c1.17,3.09,1.65,5.43,1.65,8.22   c0,3-0.48,4.979-1.95,8.04c-2.851,6-9.811,10.35-13.74,8.58c-0.66-0.3-1.29-0.48-1.38-0.391c-0.42,0.421,1.08,12.78,2.31,18.931   c2.34,11.88,5.641,21.45,11.221,32.46c8.369,16.59,20.1,35.91,28.77,47.399c4.38,5.82,9.87,12.15,10.53,12.15   c0.21,0,0.75-0.75,1.17-1.68c2.13-4.62,7.2-9.69,10.47-10.44c1.47-0.36,4.08,0.63,5.49,2.01c1.56,1.561,2.01,3.03,1.59,5.07   c-0.18,0.81-0.27,1.53-0.21,1.59c0.06,0.061,0.66,0.03,1.38-0.06l1.26-0.181v-2.34c0-4.529,2.19-9.3,5.011-10.979   c1.35-0.78,1.649-0.84,4.739-0.84c3.54,0.029,5.67,0.51,8.311,1.83c1.859,0.93,3.66,2.579,4.14,3.72   c0.21,0.51,0.51,0.899,0.69,0.899c0.149,0,0.81-0.479,1.439-1.05c0.66-0.569,1.32-1.05,1.471-1.05c0.18,0,0.3-0.21,0.3-0.45   s-0.12-0.45-0.271-0.45c-0.18,0-0.63-0.569-1.05-1.26c-0.689-1.17-0.899-1.29-2.64-1.649c-4.41-0.9-9.601-4.471-11.19-7.74   c-0.81-1.62-1.26-4.351-0.96-5.641c0.3-1.14,1.62-2.22,3.21-2.609c1.98-0.48,4.771,0,9.24,1.56c1.89,0.66,3.479,1.141,3.54,1.05   c0.09-0.06-0.21-2.01-0.66-4.29c-0.689-3.569-0.81-5.01-0.84-10.02c0-3.21,0.15-9.15,0.36-13.23   c0.42-7.949,0.149-16.26-0.66-20.069c-0.24-1.08-1.17-3.51-2.101-5.431c-1.979-4.199-3.84-9.539-4.71-13.619   c-0.6-2.67-0.689-4.29-0.87-14.4c-0.18-10.5-0.239-11.58-0.869-13.65c-1.471-5.069-1.65-5.939-1.62-8.1   c0.029-2.64,0.84-5.52,2.04-7.05c1.83-2.431,5.489-3.12,10.17-1.95c6.689,1.68,14.489,5.79,17.79,9.42   c3.96,4.32,8.97,14.13,10.529,20.58c0.271,1.14,0.66,2.1,0.841,2.1c0.18,0,0.51-0.569,0.72-1.29c0.63-2.1,2.01-4.56,3.12-5.52   c1.08-0.99,1.41-1.11,3.27-1.44c0.601-0.09,1.11-0.33,1.11-0.54s-0.931-0.72-2.04-1.17c-4.26-1.739-8.25-4.62-11.04-7.979   c-1.92-2.34-4.11-6.66-4.62-9.12c-0.21-1.08-0.9-2.61-1.86-4.2c-3.72-6.149-7.77-15.78-8.22-19.62c-0.24-1.83,0.21-3.54,1.38-5.25   c0.48-0.72,0.9-1.47,0.9-1.62c0-0.21-1.351-0.3-3.66-0.3c-3.45,0-3.84-0.06-6.09-0.96c-1.32-0.54-2.91-1.32-3.51-1.74   c-0.601-0.42-1.23-0.75-1.381-0.75C692.88,470.1,692.7,471.48,692.64,473.16z M674.4,596.25c0.93,1.14-1.891,6.51-5.131,9.75   c-2.67,2.67-6.329,4.56-8.939,4.62c-1.5,0.03-1.68-0.03-1.771-0.601c-0.119-0.869,1.08-2.22,3.96-4.409   c1.351-0.99,4.29-3.63,6.54-5.82s4.29-3.99,4.53-3.99S674.19,596.01,674.4,596.25z" style="stroke:black;fill:#BFDAE3"/><path id="180623552" parent_id="180608862" order="64" structure_id="1" d="M627.36,491.28   c-2.07,2.069-4.2,3.12-6.24,3.12c-1.771,0-2.88-0.721-4.021-2.551c-0.779-1.26-1.409-1.35-1.68-0.239   c-0.57,2.58-1.56,5.069-2.4,6.06c-0.539,0.63-1.8,1.561-2.789,2.1c-1.021,0.54-1.83,1.11-1.83,1.29c0,0.99,1.17,2.07,3.27,3.061   c3.69,1.71,5.49,2.13,9.18,2.13c2.851,0,3.48-0.09,4.71-0.69c2.101-1.05,4.29-3.149,5.221-5.04c0.72-1.47,0.779-1.859,0.66-4.109   c-0.15-2.55-1.53-6.87-2.19-6.75C629.1,489.69,628.23,490.41,627.36,491.28z" style="stroke:black;fill:#BFDAE3"/><path id="180623552" parent_id="180608862" order="65" structure_id="1" d="M603.36,470.58   c-1.471,1.02-1.561,1.62-1.38,9.33c0.18,6.81,0.06,9.03-0.78,16.47c-0.36,3.15-0.03,6.15,0.78,7.05   c0.869,0.99,1.949,0.721,3.479-0.87c1.771-1.829,1.89-2.069,2.61-5.76c1.319-6.99,1.59-19.14,0.479-22.8   c-0.6-1.95-1.02-2.58-2.16-3.33C605.37,469.98,604.26,469.95,603.36,470.58z" style="stroke:black;fill:#BFDAE3"/><path id="180623552" parent_id="180608862" order="66" structure_id="1" d="M636.63,450.9   c-3.21,0.689-10.83,3.72-10.83,4.319c0,0.21,1.71,1.23,3.78,2.28l3.81,1.89l7.53,0.391c12.18,0.63,18.33,1.26,21.42,2.1   c0.54,0.15,0.66,0.061,0.66-0.479c0-1.2-3.99-4.801-7.05-6.36C649.77,451.86,640.95,450,636.63,450.9z" style="stroke:black;fill:#BFDAE3"/><path id="180623552" parent_id="180608862" order="67" structure_id="1" d="M749.16,511.77   c-3.66,3.061-7.11,8.19-7.47,11.16c-0.24,1.92,0.51,3.391,4.619,8.971c7.591,10.319,9.841,14.729,11.91,23.1   c1.32,5.43,1.71,8.79,1.891,16.2c0.149,6.21,0.239,7.2,0.75,8.25c1.29,2.58,3.39,4.02,6.27,4.26l1.71,0.18l1.65-3.12   c1.859-3.479,5.01-10.26,6.06-13.05c0.391-0.989,1.95-7.47,3.48-14.399c2.64-11.971,2.79-12.75,2.79-16.17   c0-4.2-0.511-6.42-2.16-9.601c-2.07-3.96-5.94-7.229-15.18-12.75c-4.261-2.55-6.181-3.33-10.021-4.08   C751.74,510,751.17,510.09,749.16,511.77z" style="stroke:black;fill:#BFDAE3"/><path id="180623552" parent_id="180608862" order="68" structure_id="1" d="M778.95,433.23   c-2.431,2.25-4.17,4.979-4.74,7.38c-0.84,3.72-2.28,6.899-4.62,10.38c-2.88,4.29-5.97,10.439-6.72,13.35   c-1.14,4.5-0.601,7.38,1.83,9.45c2.7,2.31,5.67,3.12,9.569,2.58c2.91-0.39,5.461-1.26,10.711-3.601   c7.979-3.539,10.89-4.35,12.27-3.449c0.42,0.27,0.75,0.689,0.75,0.96c0,1.83-4.95,7.17-10.56,11.37   c-7.65,5.76-12.12,7.35-22.29,7.949c-5.7,0.33-6.601,0.48-7.561,1.08c-1.53,0.96-0.3,2.79,3.36,5.101c0.99,0.6,3.84,2.43,6.3,4.02   c7.47,4.86,10.5,6.12,14.4,6.12c4.02-0.03,8.52-1.47,16.26-5.25c7.74-3.81,12.45-7.439,16.229-12.45   c4.021-5.37,6.511-11.939,6.87-18.12c0.36-6.51-0.899-9.689-5.76-14.55c-2.97-2.97-6.54-5.64-10.35-7.74   c-6.45-3.54-11.67-3.029-16.681,1.65c-2.37,2.22-3.93,4.56-6.689,10.05c-1.8,3.57-2.431,4.5-3.9,5.88   c-2.13,1.98-4.11,2.971-6.18,3.15c-4.8,0.39-5.641-3.84-2.34-11.64c1.59-3.75,3.6-7.17,8.399-14.341c4.5-6.72,5.19-8.189,4.53-9.6   C781.44,431.7,780.54,431.79,778.95,433.23z" style="stroke:black;fill:#BFDAE3"/><path id="180623552" parent_id="180608862" order="69" structure_id="1" d="M634.14,346.26c-1.59-4.2-7.739-11.46-11.189-13.2c-3.87-1.92-10.62-3.63-19.2-4.86   c-5.55-0.78-9.18-1.56-26.7-5.61c-16.56-3.84-16.77-3.84-26.55-2.64c-5.088,0.634-7.912,0.938-10.5,0.95v22.449   c10.647,0.014,22.326,0.285,29.04,0.751c16.29,1.11,27.09,3.09,36.96,6.75c11.79,4.35,16.23,5.55,20.73,5.55   c3.479,0,4.89-0.42,6.449-1.95C635.25,352.47,635.55,350.01,634.14,346.26z" style="stroke:black;fill:#BFDAE3"/><path id="180623552" parent_id="180608862" order="70" structure_id="1" d="M626.55,417.3c-19.53-1.77-29.43-2.46-36.149-2.46c-4.44-0.03-5.7,0.09-12.301,1.2   c-16.109,2.729-30.75,4.74-36.3,5.04c-0.524,0.03-1.125,0.04-1.8,0.03v10.499c8.702-0.007,17.465-1.671,33.9-5.009   c12.75-2.58,19.05-3.72,24-4.319c0.75-0.09,4.59-0.391,8.55-0.63c13.62-0.87,28.05-2.431,28.05-3.061   C634.5,418.08,634.08,417.99,626.55,417.3z" style="stroke:black;fill:#BFDAE3"/><path id="180623552" parent_id="180608862" order="71" structure_id="1" d="M734.97,319.53   c-0.45,0.87-0.12,2.43,1.08,4.92c2.28,4.77,25.561,39.18,29.07,42.99c2.43,2.64,10.38,7.26,12.51,7.26h0.93l-0.149-4.44   c-0.24-7.65-1.11-9.96-8.97-23.7c-6-10.5-8.551-13.77-12.66-16.23c-0.96-0.57-3.931-1.86-6.601-2.88   c-5.25-1.98-5.699-2.22-9.33-5.28C736.92,318.87,735.63,318.3,734.97,319.53z" style="stroke:black;fill:#BFDAE3"/><path id="180623552" parent_id="180608862" order="72" structure_id="1" d="M804.3,298.08   c-0.569,0.06-2.729,0.27-4.8,0.42c-5.64,0.48-13.68,1.71-18.93,2.85c-5.851,1.32-11.37,3.03-11.37,3.57c0,0.21,0.66,0.75,1.5,1.2   c2.85,1.56,7.649,4.89,10.47,7.26c7.17,6.03,8.82,7.14,12.54,8.52c4.14,1.5,10.65,2.79,14.19,2.82c4.08,0.03,5.1-0.45,8.85-4.14   c3.57-3.51,4.8-5.85,4.8-9.03c0-2.07-0.03-2.13-3-7.8l-3.03-5.7l-5.069-0.03C807.63,297.99,804.87,298.05,804.3,298.08z" style="stroke:black;fill:#BFDAE3"/><path id="180623552" parent_id="180608862" order="73" structure_id="1" d="M717.75,182.13   c-7.47,0.75-12.03,2.49-14.1,5.31c-0.57,0.78-2.011,3.3-3.181,5.61c-2.489,4.83-4.29,7.53-5.88,8.76   c-0.63,0.51-5.609,3.69-11.07,7.11c-15.3,9.54-16.649,10.68-16.859,14.55c-0.18,2.85,0.72,5.91,3.24,10.98   c2.489,5.07,4.8,8.67,7.92,12.36c3.66,4.38,6.93,7.14,16.83,14.19c5.46,3.9,8.52,6.42,13.199,10.8c6.21,5.82,11.49,9.69,18.42,13.5   c3.841,2.13,7.98,4.02,20.28,9.36c4.95,2.13,11.76,5.22,15.12,6.87c3.36,1.62,6.42,2.97,6.78,2.97c0.359,0,1.649-0.33,2.88-0.75   c9.36-3.21,23.7-5.49,38.01-6.03c3.84-0.15,5.46-0.33,5.46-0.57c0-0.18-2.49-5.25-5.49-11.28c-8.01-15.87-8.909-18.33-8.909-24.24   c0-3.21,0.06-3.63,2.67-15.93c1.05-4.98,1.199-8.19,0.449-11.49c-2.13-9.42-11.52-19.14-31.92-32.97   c-12.93-8.76-26.67-15.78-35.399-18.03C731.28,181.92,723.9,181.5,717.75,182.13z" style="stroke:black;fill:#BFDAE3"/><path id="180623552" parent_id="180608862" order="74" structure_id="1" d="M632.64,262.29c-2.67-5.64-7.08-10.98-13.529-16.38c-11.49-9.6-22.65-14.97-35.91-17.28   c-10.657-1.884-26.979-2.967-43.2-3.003v15.539c3.229,0,6.415-0.187,11.4-0.565c8.399-0.66,16.199-0.87,17.34-0.48   c0.359,0.12,0.66,0.36,0.66,0.51c0,0.96-6.15,3.09-12.87,4.44c-6.236,1.248-11.394,1.875-16.53,1.884V263.4   c9.924,0.005,15.892,1.359,26.61,6c3.06,1.35,6.39,2.61,7.409,2.85c3.45,0.81,6.301,0.48,8.011-0.96c1.319-1.14,1.5-1.8,1.14-4.8   c-0.39-3,0.03-6.39,0.96-8.22c1.561-3.12,9.12-3.54,17.311-0.96c4.109,1.26,14.1,7.38,26.159,15.99c6.15,4.38,6.96,4.86,8.011,4.74   c0.779-0.09,0.84-0.21,0.93-1.53C636.72,273.6,634.95,267.15,632.64,262.29z" style="stroke:black;fill:#BFDAE3"/><path id="180623552" parent_id="180608862" order="75" structure_id="1" d="M781.8,419.97c-0.39-1.38-1.229-2.16-4.8-4.56c-6.24-4.17-7.53-5.46-16.47-16.561   c-11.521-14.25-23.46-30.45-32.7-44.31c-5.61-8.46-6.66-10.14-17.521-28.74c-28.29-48.42-42.63-71.25-51.029-81.15   c-8.58-10.11-21.36-22.35-33.63-32.22c-19.891-15.99-39.24-26.46-55.051-29.73c-6.747-1.374-9.075-1.499-30.6-1.471v20.519   c4.244,0.048,9.09,0.253,12.9,0.602c12.96,1.14,33.449,3.51,40.17,4.68c10.229,1.74,21.689,5.61,26.52,8.939   c2.43,1.65,4.59,3.87,6.33,6.45c0.93,1.38,3.811,4.77,6.42,7.53c6.03,6.39,7.26,7.8,10.98,12.78c3.569,4.74,6.18,9,7.71,12.57   c1.319,3.12,5.939,17.04,7.02,21.15c0.72,2.76,1.08,3.48,5.13,10.14c7.53,12.27,11.94,20.37,16.32,29.94   c5.94,12.87,7.65,19.92,6,24.39c-0.63,1.68-2.55,3.78-3.45,3.78c-1.35,0-3.33-1.62-8.25-6.63c-2.88-2.97-5.7-5.7-6.27-6.12   c-1.11-0.81-2.67-0.99-3.271-0.39c-0.51,0.51-0.45,4.62,0.12,7.38c1.17,5.7,4.98,15.69,8.79,23.04   c3.84,7.41,7.41,12.27,12.811,17.52c4.319,4.2,6.329,5.7,19.619,14.85c28.17,19.35,36.391,24.24,46.65,27.75   c14.64,5.04,18.96,8.16,15.6,11.221c-3.27,3-13.38,6.899-21.39,8.279c-8.37,1.44-15.63,0.45-22.68-3.06   c-8.4-4.23-17.971-11.73-29.311-23.04c-10.83-10.8-18.21-19.5-28.47-33.6c-10.08-13.86-16.02-23.52-25.8-41.7   c-5.04-9.42-7.95-14.37-10.29-17.55c-7.23-9.81-16.08-15.9-29.88-20.61c-4.771-1.62-15.87-4.8-22.32-6.39   c-15.391-3.825-24.532-5.03-37.71-5.039v30.209l8.31-1.02c12.511-1.53,11.4-1.62,28.591,2.37c18.27,4.23,20.31,4.65,26.52,5.58   c13.561,2.04,19.32,3.99,23.49,8.01c5.01,4.83,8.49,10.8,8.49,14.64c0,2.97-2.46,5.61-5.94,6.33c-3.84,0.78-9.3-0.39-20.25-4.35   c-3.84-1.38-7.62-2.73-8.46-2.97c-7.59-2.4-19.02-4.08-34.2-5.07c-4.026-0.254-15.292-0.382-26.55-0.382v5.715   c3.19,0.001,6.529-0.039,8.85-0.112c18.931-0.6,32.011,1.5,40.62,6.51c2.13,1.26,4.74,3.27,3.811,2.91   c-2.58-0.93-11.28-2.91-17.19-3.93c-8.056-1.383-19.198-1.955-36.09-1.897v9.509c2.806,0.006,5.404-0.15,9.15-0.472   c3.479-0.27,9.3-0.51,13.8-0.51c9.18-0.03,7.71-0.36,19.95,4.38c21.09,8.16,29.13,10.77,37.859,12.24   c12.84,2.19,24.78,7.08,36.99,15.15c6.9,4.59,10.05,7.95,10.05,10.8c-0.03,1.77-1.319,6.66-1.979,7.38   c-1.71,1.89-4.801,1.92-10.92,0.12c-10.65-3.18-17.101-4.41-35.46-6.75c-5.16-0.66-11.82-1.59-14.79-2.1   c-10.021-1.681-13.771-2.131-18.75-2.28l-4.95-0.18L576,402c-12.879,4.017-24.422,6.025-36,6.021v12.81   c3.369,0.03,6.279-0.217,9.75-0.651c6.69-0.87,19.92-2.85,30.27-4.56c6.961-1.14,9.391-1.23,18.36-0.72   c10.26,0.6,38.76,3.119,39.09,3.479c0.271,0.271-0.33,0.39-6.45,1.14c-8.01,0.99-17.159,1.83-26.369,2.431   c-9.091,0.569-13.591,1.29-31.74,4.979c-20.94,4.261-23.43,4.59-32.91,4.59v29.822c5.509,0.084,9.378-0.859,17.22-4.052   c7.021-2.85,9.721-3.24,16.83-2.34c4.561,0.569,9.36,0.569,11.79,0c3.36-0.78,5.43-2.04,11.46-6.87c5.34-4.29,12.72-9.09,18-11.73   c7.65-3.84,15.87-5.58,26.4-5.609c7.62,0,13.41,0.87,19.92,2.97c12.96,4.17,22.86,10.74,30.06,19.92c2.91,3.72,5.221,5.94,7.23,6.9   c2.189,1.08,4.32,1.08,9.54,0c6.359-1.29,10.5-1.86,15.149-2.07c3.931-0.21,4.051-0.24,4.471-0.99c0.54-0.96,0.239-2.22-0.601-2.67   c-0.33-0.18-2.67-0.87-5.16-1.5c-7.859-1.979-14.43-4.74-19.319-8.189c-4.74-3.33-15.63-14.7-16.17-16.891   c-0.24-0.899,0.42-1.739,1.17-1.47c0.27,0.12,2.729,2.64,5.52,5.64c5.76,6.181,10.38,10.471,12.96,12.061   c2.46,1.47,5.07,2.34,10.53,3.479c4.35,0.9,4.89,0.931,9.15,0.78c5.13-0.15,11.04-0.99,19.05-2.61c5.189-1.05,6.09-1.35,14.1-4.59   c4.71-1.89,9.271-3.66,10.11-3.93c2.939-0.96,8.52-7.23,11.16-12.48C781.92,422.46,782.19,421.32,781.8,419.97z M748.95,413.37   c-8.19-5.04-21.57-15.93-32.101-26.13c-6.96-6.75-7.77-8.46-8.43-18.09c-0.66-10.02-2.22-17.64-5.28-26.16   c-0.84-2.34-1.439-4.47-1.35-4.71c0.3-0.75,0.99-0.57,1.979,0.57c1.95,2.25,3.57,6.42,6.9,17.91c4.35,14.94,5.85,18.03,13.14,27.12   c7.08,8.82,15.301,17.46,20.641,21.69c5.25,4.17,14.13,9.479,23.49,14.069c3.42,1.65,5.76,2.971,5.76,3.24   C773.7,425.28,759.33,419.76,748.95,413.37z" style="stroke:black;fill:#BFDAE3"/><path id="180623552" parent_id="180608862" order="76" structure_id="1" d="M725.22,635.52   c-9.029,2.341-21.96,8.101-26.939,11.971c-2.431,1.92-3.45,4.26-2.58,5.91c0.359,0.689,1.83,1.199,3.42,1.199   c1.74,0,4.5,0.78,6.18,1.71l1.44,0.811l3.21-2.55c4.53-3.511,8.34-6.96,10.8-9.75c1.17-1.29,3.54-3.9,5.34-5.79   c1.771-1.92,3.21-3.63,3.21-3.84C729.3,634.65,728.37,634.71,725.22,635.52z" style="stroke:black;fill:#BFDAE3"/><path id="180623552" parent_id="180608862" order="77" structure_id="1" d="M545.31,562.26   c-1.29,0.33-2.819,1.74-3.09,2.79c-0.09,0.42,0,4.8,0.24,9.78l0.42,9.03l0.87,0.75c0.78,0.689,1.05,0.75,2.82,0.63   c3.87-0.3,7.62-2.73,13.38-8.67c4.71-4.891,5.88-7.23,4.95-10.021c-0.48-1.47-2.19-3.33-3.391-3.72   C559.08,562.05,547.59,561.66,545.31,562.26z" style="stroke:black;fill:#BFDAE3"/><path id="180623552" parent_id="180608862" order="78" structure_id="1" d="M680.49,578.22c-4.98,2.94-7.26,4.65-8.4,6.391   c-0.57,0.87-1.17,1.68-1.32,1.77c-1.079,0.66,0.841,3.99,4.351,7.5c3.39,3.39,5.64,4.62,8.399,4.62c3.36,0,4.23-1.26,4.23-6.15   c0-3.659-0.66-7.17-2.34-12.479c-0.78-2.46-1.11-3.15-1.561-3.21C683.52,576.63,682.02,577.32,680.49,578.22z" style="stroke:black;fill:#BFDAE3"/><path id="180623552" parent_id="180608862" order="79" structure_id="1" d="M620.34,457.08c-3.09,1.5-3.54,2.01-3.54,3.9   c0,1.17,0.36,2.01,1.32,3.06c0.96,1.08,2.16,1.59,5.58,2.37c4.77,1.08,7.56,1.979,13.109,4.32c6.57,2.76,14.521,5.64,19.591,7.079   c3.779,1.051,4.29,1.141,7.8,1.11c6.72-0.06,12.3-1.95,12.3-4.17c0-2.04-8.16-9.72-12.81-12.09c-2.46-1.26-7.23-1.86-20.851-2.61   c-5.31-0.3-9.06-0.63-9.75-0.87c-0.63-0.239-2.55-1.109-4.26-1.949C624.81,455.25,624.15,455.25,620.34,457.08z" style="stroke:black;fill:#BFDAE3"/><path id="180623552" parent_id="180608862" order="80" structure_id="1" d="M769.05,437.76   c-2.52,0.9-22.109,8.82-25.5,10.32c-2.13,0.93-4.979,2.37-6.3,3.18c-3.33,2.101-8.52,6.061-11.58,8.88   c-3.479,3.21-7.439,6.36-12.09,9.63c-6.63,4.62-7.98,6.33-7.98,10.11c0,5.04,5.67,17.73,11.28,25.2c2.76,3.72,6.57,7.38,8.64,8.34   c2.49,1.17,5.641,1.41,7.44,0.51c1.89-0.899,3.87-2.729,6.99-6.39c6.21-7.26,8.55-11.64,19.859-37.29   c5.16-11.67,7.261-15.84,9.421-18.78c1.859-2.52,3.3-5.43,4.289-8.7c0.841-2.76,0.99-4.439,0.421-5.01   C773.49,437.31,770.31,437.31,769.05,437.76z" style="stroke:black;fill:#BFDAE3"/><path id="180623552" parent_id="180608862" order="81" structure_id="1" d="M731.46,523.62   c-3.15,0.63-4.41,2.46-6.479,9.24c-1.44,4.8-1.62,7.439-1.83,29.939c-0.181,20.37-0.301,21.931-1.98,28.71   c-1.95,7.95-4.08,12.601-7.17,15.721c-2.46,2.489-4.35,3.42-8.88,4.319c-4.8,0.96-6.54,1.561-8.67,3   c-2.37,1.62-3.15,3.09-3.15,5.97c0,3.391,0.63,5.521,2.01,6.811c2.37,2.189,6.9,3.15,13.561,2.88c6.84-0.27,11.55-1.89,16.439-5.58   c4.74-3.57,8.25-8.25,12.36-16.47c5.49-10.95,8.55-22.59,9.96-37.86c0.601-6.3,0.51-23.01-0.12-27.45   c-1.17-8.279-3.87-15.869-6.479-18.06C739.29,523.29,735.51,522.84,731.46,523.62z" style="stroke:black;fill:#BFDAE3"/><path id="180623552" parent_id="180608862" order="82" structure_id="1" d="M752.64,541.2c-2.34-3.9-6.51-9.601-7.05-9.601c-0.51,0-0.51-0.029,0.63,4.051   c1.38,4.949,1.74,8.31,1.891,18.149c0.359,22.771-2.58,38.55-10.11,53.851c-5.22,10.619-10.41,16.59-17.43,19.949   c-3.21,1.53-6.09,2.37-9.03,2.61c-1.26,0.09-2.4,0.271-2.55,0.36c-0.15,0.09-0.84,1.08-1.561,2.22c-1.649,2.55-4.29,5.01-6.54,6.09   c-1.409,0.66-2.279,0.87-4.47,0.96l-2.729,0.12l-0.15,2.01c-0.36,4.74-5.13,10.5-8.73,10.53c-1.979,0-7.109-3.54-9.3-6.39   c-1.02-1.351-1.89-1.5-1.56-0.301c0.39,1.65,0.51,10.65,0.18,14.551c-0.45,5.22-1.41,10.92-2.25,13.439   c-1.26,3.66-4.68,7.771-7.59,9.061c-1.38,0.6-3.21,0.63-6.06,0.06c-1.021-0.21-1.021-0.18-0.841,0.72   c0.391,1.891-0.96,4.2-4.56,7.83c-6.15,6.21-11.58,9.33-20.07,11.49c-3.27,0.84-4.35,0.96-7.56,0.99c-3.63,0-3.84-0.03-5.7-0.96   c-2.16-1.05-5.52-3.9-5.79-4.891c-0.33-1.26,0.72-1.8,5.79-2.85c4.32-0.93,6.24-1.56,9.39-3.18c2.82-1.44,10.2-6.21,15.21-9.87   c4.17-3.03,5.551-3.54,8.131-3c0.989,0.21,1.829,0.33,1.92,0.27c0.239-0.27-0.24-4.77-0.54-4.77c-0.15,0-0.9,0.54-1.62,1.2   c-1.95,1.8-3.66,2.46-6.87,2.64c-5.25,0.27-10.47-0.9-11.94-2.67c-0.84-0.99-1.38-2.61-1.38-4.11c0-1.05-0.569-1.29-1.2-0.479   c-0.239,0.239-0.989,0.81-1.71,1.229c-1.08,0.63-1.529,0.721-2.64,0.54c-1.08-0.149-1.35-0.09-1.35,0.271   c0,0.239,0.149,0.54,0.3,0.63c0.569,0.359,1.8,3.149,2.28,5.16c1.289,5.489-1.29,10.92-5.761,12.18   c-3.479,0.99-5.189,0.75-12.12-1.59c-9.119-3.09-11.52-3.601-18.75-3.87c-4.439-0.18-6.39-0.39-7.5-0.78   c-3.359-1.17-4.56-3.06-3.63-5.76c0.3-0.78,0.601-1.771,0.69-2.16l0.18-0.72l-2.16,0.21c-3.149,0.27-7.41,1.26-11.55,2.64   c-3.33,1.11-5.85,2.13-15.84,6.51c-4.71,2.07-7.41,2.73-11.04,2.73v23.066c0.034,0.021,0.064,0.033,0.09,0.033   c0.21,0,0.69-0.75,1.08-1.649c0.96-2.22,4.021-5.46,7.021-7.47c9.6-6.33,26.46-11.16,37.109-10.591   c9.63,0.511,19.891,5.79,22.83,11.79c1.38,2.79,1.5,5.46,0.45,8.641c-0.45,1.29-0.72,2.43-0.63,2.52s3.42-0.87,7.439-2.16   c16.261-5.22,18.96-6.18,24.42-8.85c9.21-4.53,13.771-7.35,21.511-13.35c10.17-7.891,26.01-19.62,37.02-27.45   c4.021-2.851,7.38-5.37,7.47-5.61c0.421-1.11-1.8-2.01-6.359-2.67c-1.83-0.24-3.09-0.57-3.45-0.9c-0.9-0.81-1.02-2.04-0.33-3.359   c1.29-2.49,4.35-4.65,11.58-8.19c7.47-3.63,13.8-5.97,19.65-7.2c1.739-0.39,3.3-0.72,3.479-0.779   c0.54-0.12,9.21-9.511,11.37-12.271c1.02-1.319,2.73-3.81,3.81-5.55c1.08-1.74,3.21-5.1,4.771-7.5c4.65-7.08,5.25-8.25,6.24-11.85   c2.34-8.521,3.39-16.23,3.39-24.9C759.99,559.65,757.56,549.45,752.64,541.2z" style="stroke:black;fill:#BFDAE3"/><path id="180623552" parent_id="180608862" order="83" structure_id="1" d="M693.66,629.85   c-1.05,1.051-1.29,1.5-1.141,2.011c0.091,0.39,0.421,2.279,0.69,4.199l0.51,3.511l1.41,0.18c3,0.42,6.42-0.81,9.18-3.3   c1.53-1.351,3.99-4.681,3.99-5.37c0-0.24-1.229-0.48-3.78-0.72c-2.369-0.24-4.59-0.63-6-1.11c-1.229-0.42-2.52-0.75-2.88-0.75   C695.31,628.5,694.41,629.1,693.66,629.85z" style="stroke:black;fill:#BFDAE3"/><path id="180623552" parent_id="180608862" order="84" structure_id="1" d="M591.54,514.77   c-3.72,2.61-7.74,5.04-12.63,7.561c-3.601,1.86-3.87,2.04-4.62,3.45c-1.08,2.04-3.87,6.09-6.24,9.06   c-4.649,5.76-13.26,14.67-17.46,18c-2.58,2.04-2.79,2.76-0.899,2.76c1.829,0,5.67,1.021,6.899,1.86c1.38,0.87,2.07,2.1,2.07,3.54   c-0.03,1.11,0,1.14,1.229,1.32c0.69,0.12,3.091,0,5.311-0.271c11.939-1.319,25.35-1.74,31.8-1.02c1.65,0.21,3.09,0.27,3.21,0.18   c0.09-0.12-0.39-2.46-1.05-5.22c-2.94-12-4.65-28.11-4.141-39.181c0.15-3.21,0.12-4.109-0.18-4.109   C594.63,512.7,593.13,513.63,591.54,514.77z" style="stroke:black;fill:#BFDAE3"/><path id="180623552" parent_id="180608862" order="85" structure_id="1" d="M666.27,639.6   c-1.68,1.381-2.279,3.15-2.939,8.881c-0.33,2.789-0.9,6.029-1.23,7.17c-0.359,1.17-1.89,4.649-3.449,7.8   c-3.21,6.51-4.351,9.96-4.351,13.17c0,2.7,0.601,3.93,2.49,5.189c3.87,2.58,7.89,1.86,11.46-2.1c3.69-4.08,5.04-9,5.88-21.72   c0.66-9.9-0.42-15.66-3.479-18.33C669.21,638.37,667.74,638.37,666.27,639.6z" style="stroke:black;fill:#BFDAE3"/><path id="180623552" parent_id="180608862" order="86" structure_id="1" d="M542.88,505.92   c-0.63,0.99-0.72,1.771-1.229,11.19c-0.78,14.279-0.75,14.489,2.04,14.489c0.899-0.029,1.8-0.21,2.13-0.449   c0.33-0.24,0.81-0.45,1.109-0.45c0.78,0,0.87-1.141,0.87-11.851v-9.96l-1.859-1.83c-0.99-1.02-2.011-1.859-2.19-1.859   C543.54,505.2,543.15,505.53,542.88,505.92z" style="stroke:black;fill:#BFDAE3"/><path id="180623552" parent_id="180608862" order="87" structure_id="1" d="M545.22,484.23c-0.72-0.33-0.779-0.45-0.6-1.53c0.21-1.38,0.149-1.41-2.04-0.75   c-0.93,0.285-1.771,0.427-2.58,0.427v14.112c0.48-0.003,0.96-0.154,1.2-0.439c0.21-0.27,0.51-1.83,0.63-3.479   c0.3-3.511,0.63-4.23,2.67-6.061c0.81-0.75,1.5-1.47,1.5-1.62C546,484.71,545.64,484.44,545.22,484.23z" style="stroke:black;fill:#BFDAE3"/><path id="180623552" parent_id="180608862" order="88" structure_id="1" d="M637.05,446.31   c-6.63,0.78-10.229,1.681-14.22,3.57c-3.21,1.5-13.53,8.16-13.53,8.73c0,0.569,1.29,0.779,4.141,0.63   c2.43-0.12,2.819-0.24,5.64-1.681c1.68-0.84,3.689-1.71,4.5-1.89c0.81-0.21,2.82-1.02,4.47-1.77c3.84-1.83,7.23-2.94,9.931-3.271   c1.619-0.21,2.97-0.66,5.34-1.8c4.649-2.25,4.319-2.76-1.771-2.67C639.57,446.16,637.56,446.25,637.05,446.31z" style="stroke:black;fill:#BFDAE3"/><path id="180623552" parent_id="180608862" order="89" structure_id="1" d="M689.61,499.2   c-3.69,0.63-5.49,3.39-5.82,8.85c-0.12,1.95,0,2.94,0.66,5.25c1.92,7.08,2.04,7.891,1.8,15.75c-0.27,10.23,0.27,14.91,2.55,21.78   c1.351,4.11,4.141,10.17,4.65,10.17c0.54,0,2.1-3.36,3-6.45c1.08-3.75,1.83-8.34,2.37-14.85c0.27-3.061,0.63-7.05,0.779-8.91   c0.511-5.73,2.131-10.86,4.86-15.54c1.29-2.19,4.5-6.48,5.61-7.47c0.96-0.87,0.779-1.29-0.931-2.4   C702.36,501.06,694.08,498.45,689.61,499.2z" style="stroke:black;fill:#BFDAE3"/><path id="180623552" parent_id="180608862" order="90" structure_id="1" d="M590.7,508.65c-0.75,0.21-2.7,0.899-4.351,1.56   c-6.569,2.64-14.069,4.71-18.27,5.07c-4.59,0.359-10.65-0.96-13.08-2.851c-0.57-0.479-1.56-0.93-2.16-1.05   c-0.63-0.12-1.89-0.6-2.82-1.08c-0.93-0.51-1.77-0.899-1.89-0.899c-0.09,0-0.18,4.8-0.18,10.649v10.65h1.2   c1.77,0,6.239-0.54,9-1.08c11.31-2.19,24.239-8.16,35.25-16.26c2.88-2.101,3-2.25,3-3.33c0-0.601-0.15-1.261-0.36-1.471   C595.56,508.08,592.44,508.14,590.7,508.65z" style="stroke:black;fill:#BFDAE3"/><path id="180623552" parent_id="180608862" order="91" structure_id="1" d="M590.94,357.39c-0.061-0.3-1.23-1.14-2.79-1.95c-8.67-4.56-21.66-6.42-40.561-5.76   c-2.459,0.093-5.198,0.146-7.59,0.159v3.269c9.487,0,18.971,0.097,22.05,0.292c8.76,0.57,16.351,1.71,24.181,3.63   C590.46,358.05,591.09,358.11,590.94,357.39z" style="stroke:black;fill:#BFDAE3"/><path id="180623552" parent_id="180608862" order="92" structure_id="1" d="M608.19,472.26   c0.06,0.391,0.39,1.561,0.689,2.641c1.021,3.72,0.601,15.449-0.81,22.439c-0.33,1.71-0.54,3.18-0.45,3.271   c0.33,0.33,1.68-0.24,3.51-1.471c2.25-1.529,2.97-2.729,3.96-6.75l0.66-2.729l1.26,1.92c0.721,1.05,1.71,2.13,2.25,2.4   c1.23,0.63,3.3,0.42,5.25-0.57c1.471-0.75,4.59-3.63,4.59-4.23c0-0.18-0.869-1.5-1.92-2.91c-3.689-4.92-9.75-10.02-15.689-13.229   C608.49,471.42,607.95,471.3,608.19,472.26z M625.35,486.9c0.12,0.18,0.03,0.54-0.18,0.779c-0.33,0.391-0.42,0.391-0.81,0   c-0.24-0.239-0.33-0.569-0.24-0.75C624.39,486.51,625.11,486.51,625.35,486.9z M619.41,488.88c0.21,0.601-0.51,1.11-1.021,0.69   c-0.449-0.391-0.18-1.17,0.391-1.17C619.02,488.4,619.29,488.61,619.41,488.88z M622.11,490.08c0.21,0.54-0.511,1.14-0.931,0.72   c-0.33-0.33-0.029-1.2,0.42-1.2C621.78,489.6,621.99,489.81,622.11,490.08z M625.41,490.08c0.21,0.6-0.51,1.11-1.021,0.689   c-0.449-0.39-0.18-1.17,0.391-1.17C625.02,489.6,625.29,489.81,625.41,490.08z" style="stroke:black;fill:#BFDAE3"/><path id="180623552" parent_id="180608862" order="93" structure_id="1" d="M548.88,240.93l-8.79,0.66l-0.09-0.007v5.317c9.63,0,29.1-4.11,29.1-6.12   C569.1,239.73,564.33,239.76,548.88,240.93z" style="stroke:black;fill:#BFDAE3"/><path id="180623552" parent_id="180608862" order="94" structure_id="1" d="M602.43,503.85c-0.33-0.09-0.81-0.75-1.109-1.529c-0.42-1.141-0.48-1.95-0.33-5.19   c0.18-3.27,0.149-3.93-0.24-4.229c-0.27-0.21-1.2-1.44-2.1-2.7c-1.74-2.49-2.82-3.54-5.91-5.76c-2.37-1.71-3.181-3.12-2.61-4.471   c0.811-2.01,3.69-2.31,7.771-0.84c1.409,0.48,2.85,0.99,3.239,1.08l0.69,0.18l-0.03-3.27c-0.03-1.8-0.03-3.63-0.03-4.08   c0.03-0.51,0.45-1.29,1.08-2.01c0.57-0.63,1.051-1.23,1.051-1.29c0-0.09-0.631-0.78-1.381-1.561c-1.38-1.38-2.01-1.649-2.369-1.08   c-0.271,0.45-3.96,2.25-5.4,2.67c-0.66,0.181-3.36,0.54-6,0.78c-8.31,0.78-12.12,1.62-20.19,4.41   c-11.1,3.84-23.069,10.08-25.29,13.2c-0.51,0.689-0.72,1.62-0.93,3.93c-0.3,3.21-0.78,4.561-1.74,4.86   c-0.214,0.069-0.413,0.108-0.6,0.12v34.53c1.65,0,1.65,0,1.2-1.5c-0.391-1.229,0.42-19.47,0.93-22.17   c0.21-0.989,0.601-1.89,1.05-2.34c0.66-0.66,0.69-0.81,0.391-1.89c-0.271-0.9-0.24-1.74,0.149-4.05   c1.021-6.15,4.681-10.5,10.23-12.24c3.03-0.93,8.49-0.9,11.25,0.06c2.13,0.75,3.689,1.771,4.26,2.82c0.21,0.36,0.36,1.32,0.39,2.16   c0,1.47,0,1.47,1.17,1.74c1.591,0.39,3.391,2.22,3.841,3.96c0.21,0.75,0.51,1.35,0.689,1.35c0.15,0,0.69-0.6,1.141-1.32   c3.06-4.83,7.079-6.27,11.52-4.08c2.13,1.051,3.24,2.311,3.87,4.381c0.57,1.92,0.54,3.119-0.21,5.97   c-0.33,1.319-0.69,2.7-0.78,3.09c-0.18,0.69-0.149,0.69,1.891,0.51c1.859-0.18,2.159-0.149,2.909,0.45   c0.45,0.36,0.811,0.9,0.811,1.23c0,0.3,0.149,0.569,0.33,0.569c0.569,0,5.97-5.16,5.97-5.729   C603,504.27,602.73,503.97,602.43,503.85z" style="stroke:black;fill:#BFDAE3"/><path id="180623552" parent_id="180608862" order="95" structure_id="1" d="M591.75,478.5   c-1.14,0.36-1.65,1.05-1.65,2.31c0,1.171,1.23,2.671,3.271,4.051c2.07,1.409,3.51,2.819,5.49,5.55c0.96,1.38,1.949,2.49,2.159,2.49   c0.511,0,0.69-1.5,0.961-7.351l0.18-4.5l-1.44-0.72C597.27,478.65,593.64,477.9,591.75,478.5z" style="stroke:black;fill:#BFDAE3"/><path id="180623552" parent_id="180608862" order="96" structure_id="1" d="M669.54,599.43c-1.86,1.86-4.89,4.53-6.72,6   c-3.301,2.61-4.32,3.721-4.32,4.59c0,1.171,3,0.78,6.3-0.779c2.91-1.38,6.69-5.28,8.34-8.61c0.75-1.439,1.261-2.939,1.261-3.51   c0-0.87-0.091-1.021-0.75-1.021C673.11,596.1,672,597,669.54,599.43z" style="stroke:black;fill:#BFDAE3"/><path id="180623552" parent_id="180608862" order="97" structure_id="1" d="M566.55,494.43   c-0.81,0.15-5.609,0.87-10.62,1.59c-9.81,1.44-10.29,1.591-11.67,3.631c-0.93,1.35-0.93,4.14,0.03,5.489   c1.08,1.561,4.71,4.591,6.51,5.431c1.561,0.75,1.891,0.779,6.45,0.75c5.1,0,9.21-0.66,12-1.891c1.47-0.66,3.15-2.609,4.86-5.67   c1.409-2.52,1.439-4.14,0.21-6.6C572.88,494.4,570.87,493.68,566.55,494.43z" style="stroke:black;fill:#BFDAE3"/></g></g></svg>
