<svg xmlns="http://www.w3.org/2000/svg" width="3024px" height="3024px"><g transform="scale(1.0)"><g id="180608862" order="1" parent_id="" graphic_group_label_id="28" graphic_group_label="Atlas - Adult Rat" sub_image_id="100960468" transform=" scale(1.0, 1.0)"><path id="180623552" parent_id="180608862" order="0" structure_id="1" d="M974.91,392.1c-1.62-21.6-4.23-39.21-8.79-59.278c-9-39.812-25.2-75.45-48.271-106.17   c-17.069-22.74-38.431-43.08-61.949-59.04C811.71,137.64,742.02,116.34,664.5,109.05c-49.109-4.59-72.6-3-93,6.271   c-10.109,4.62-17.34,10.26-22.561,17.608c-4.261,6-6.569,11.521-8.489,20.28c-0.122,0.52-0.28,0.746-0.45,0.72v135.72h8.46   l1.05,2.55c4.68,11.34,14.85,20.76,27.721,25.68c2.399,0.9,8.311,2.46,11.16,2.97c0.601,0.09,1.109,0.33,1.109,0.54   s-1.109,1.021-2.43,1.8c-3.54,2.132-6.87,4.562-13.142,9.602c-10.26,8.22-18,12.72-23.398,13.59c-1.591,0.24-1.681-0.39-0.181-1.2   c0.569-0.3,1.801-1.318,2.729-2.22c6.12-5.97,8.22-16.14,4.68-22.68c-3.026-5.612-10.694-9.561-17.76-9.69V577.92   c2.701-0.001,5.377,0.572,8.641,1.711c7.891,2.76,13.859,6.99,18.421,13.08c1.108,1.5,3.148,3.78,4.5,5.04   c2.01,1.89,3.028,2.58,6.06,4.05c7.38,3.602,18.569,6.9,23.34,6.9c0.96,0,1.11,0.12,1.29,0.81c0.78,3.54,10.68,10.23,18.42,12.48   c1.95,0.569,3.03,0.659,7.53,0.659c5.55,0,7.05-0.181,20.85-2.279c11.37-1.771,16.261-3.03,23.25-6.03   c4.229-1.8,7.41-3.54,11.46-6.18c3.061-2.011,7.65-5.73,9.36-7.53c0.93-0.99,1.44-1.08,3.87-0.75l1.35,0.21l-0.15,3.78   c-0.18,4.17,0.092,6.12,1.262,8.43c0.869,1.71,1.71,2.49,3.6,3.33c1.71,0.78,4.8,0.9,7.021,0.3c0.688-0.21,1.38-0.3,1.47-0.21   c0.09,0.12-0.06,0.9-0.33,1.771c-0.99,3.18-1.47,7.108-1.319,10.71c0.359,8.609,2.789,14.55,8.159,19.95   c5.94,5.97,14.28,9.93,24.601,11.67c6.899,1.14,12.181,3.21,20.851,8.13c5.069,2.85,8.88,4.2,16.2,5.67   c12.63,2.55,27.21,2.76,39.3,0.6c10.05-1.8,17.55-4.53,30.72-11.13c5.82-2.91,9.45-4.529,10.95-4.92   c2.76-0.72,7.41-0.75,12.479-0.12c7.381,0.931,11.641,0.511,17.699-1.71c16.83-6.18,36.211-20.67,47.73-35.7   c10.619-13.858,19.08-34.92,23.97-59.67c2.25-11.37,2.67-14.85,2.67-21.72c0-5.28-0.09-6.93-0.688-10.2   c-1.021-5.76-2.94-12.06-6.062-19.979c-3.149-7.98-3.45-9.45-2.399-11.79c0.33-0.78,1.859-3.392,3.359-5.79   c5.58-8.88,9.689-18.392,11.79-27.392c1.53-6.39,2.761-15.148,3.69-25.8C975.66,429.51,975.66,402.24,974.91,392.1z M686.13,326.04   l-2.67-0.12l-2.13-2.01c-1.17-1.11-2.67-2.28-3.33-2.61c-0.87-0.45-14.22-3.6-15.21-3.6c-0.06,0-0.09-0.181-0.09-0.39   c0-0.212,0.78-0.75,1.739-1.23c3.029-1.47,7.351-4.53,9.239-6.51c0.99-1.051,2.73-2.91,3.87-4.11c1.95-2.07,3.45-2.88,3.061-1.65   c-0.09,0.3-0.511,1.56-0.959,2.79c-0.87,2.49-1.23,5.102-0.932,6.69c0.45,2.46,5.13,8.31,8.46,10.59   c1.021,0.72,1.62,1.32,1.62,1.71C688.8,326.13,688.62,326.16,686.13,326.04z" style="stroke:black;fill:#BFDAE3"/><path id="180623552" parent_id="180608862" order="1" structure_id="1" d="M554.37,600.33c-5.405-1.555-10.005-2.296-14.37-2.325v46.949c5.794,0.014,11.641-0.862,18.689-2.804   c15.721-4.29,26.101-11.762,26.101-18.75C584.79,615.63,570.93,605.13,554.37,600.33z" style="stroke:black;fill:#BFDAE3"/><path id="180623552" parent_id="180608862" order="2" structure_id="1" d="M578.01,423.66c-0.54-6.84-3.42-11.641-9.9-16.5c-1.5-1.141-4.26-3.51-6.118-5.25   c-1.83-1.74-3.78-3.391-4.29-3.66c-2.342-1.2-4.53-1.41-16.2-1.5c-0.506-0.002-1.005-0.005-1.5-0.007v2.926   c0.203,0.052,0.408,0.154,0.57,0.351c0.239,0.302,0.3,7.41,0.27,26.312l-0.09,25.92H540v103.5c2.52,0,3.061,0.09,4.59,0.84   c0.96,0.48,2.01,1.261,2.37,1.74s0.81,0.87,1.021,0.87c0.42,0,1.351-4.771,2.279-11.7c0.87-6.72,0.93-16.68,0.15-21.45   c-0.721-4.229-2.49-9.568-4.26-12.96l-1.41-2.64l0.119-3.33c0.121-2.88,0.061-3.391-0.359-3.66c-0.99-0.6-2.43-7.68-2.97-14.729   c-0.421-5.102-0.421-14.521-0.03-15.961c0.48-1.681,1.05-2.011,2.01-1.141c0.78,0.75,2.79,4.561,2.79,5.37   c0.03,1.17,0.48,1.32,1.98,0.6c0.81-0.39,1.53-0.72,1.56-0.778c0.061-0.03-0.24-0.99-0.689-2.131   c-1.079-2.67-1.319-6.511-0.631-9.511c1.052-4.38,4.381-9.148,8.4-12c3.51-2.489,8.971-4.83,12.27-5.25l1.5-0.18l2.222-5.1   C576.93,433.53,578.37,428.16,578.01,423.66z M570.48,430.439c-1.2,4.381-5.341,8.011-10.41,9.029   c-6.66,1.352-11.4-5.04-9.42-12.658c0.869-3.392,3.81-8.371,6.24-10.621c3-2.789,6.81-3.721,9.479-2.341   C570.359,415.89,572.28,423.72,570.48,430.439z" style="stroke:black;fill:#BFDAE3"/><path id="180623552" parent_id="180608862" order="3" structure_id="1" d="M699,521.73c-3.42,0.6-5.25,1.8-11.609,7.59   c-3.899,3.54-14.16,11.52-24.841,19.38c-11.52,8.43-16.11,12-22.05,17.13c-5.52,4.74-8.4,6.99-10.65,8.22   c-1.08,0.602-1.77,1.29-2.52,2.49c-0.57,0.899-2.46,3.57-4.17,5.88c-1.74,2.34-3.811,5.19-4.59,6.391   c-2.521,3.869-4.23,8.819-4.62,13.471c-0.21,2.34-0.21,2.398,0.63,3.238c1.14,1.142,2.67,1.892,5.13,2.49   c3.149,0.812,12.601,0.721,18.69-0.18c11.43-1.68,24.72-6.15,38.55-12.93c12.18-5.972,21.479-14.341,34.319-30.87   c11.819-15.182,17.489-25.41,17.939-32.28c0.271-4.41-0.271-5.13-5.102-6.72C716.76,522.6,703.77,520.89,699,521.73z" style="stroke:black;fill:#BFDAE3"/><path id="180623552" parent_id="180608862" order="4" structure_id="1" d="M670.41,355.2   c-2.7,0.688-7.29,4.56-10.5,8.85c-0.96,1.32-2.7,3.99-3.87,5.91c-8.58,14.521-20.431,47.46-23.67,65.79   c-0.931,5.28-1.021,15.39-0.15,19.35c1.89,8.7,5.25,15.392,10.2,20.25c2.82,2.79,5.37,4.352,8.73,5.432   c2.97,0.96,3.568,0.87,7.5-1.05c8.698-4.262,16.229-12.392,20.1-21.75c3.18-7.712,6.84-19.08,8.52-26.432   c2.34-10.318,4.11-25.41,4.44-37.5c0.24-9.63-0.54-16.56-2.64-23.04c-1.142-3.54-4.352-9.99-6.24-12.54   c-1.29-1.739-1.74-2.1-3.24-2.67C677.641,355.02,672.42,354.689,670.41,355.2z" style="stroke:black;fill:#BFDAE3"/><path id="180623552" parent_id="180608862" order="5" structure_id="1" d="M567.63,454.71   c-3.84,8.31-11.43,25.71-11.43,26.16c0,0.479,0.45,0.69,2.819,1.229c2.279,0.54,3.541,0.632,6.239,0.57   c3.24-0.12,3.54-0.18,5.7-1.26c5.16-2.55,8.398-8.521,7.5-13.892c-0.66-3.988-3.87-9.118-7.71-12.238   C568.77,453.689,568.141,453.57,567.63,454.71z" style="stroke:black;fill:#BFDAE3"/><path id="180623552" parent_id="180608862" order="6" structure_id="1" d="M895.8,433.2c-2.61-21.15-9.36-51.21-15.239-67.8c-12.091-34.021-23.371-56.67-37.649-75.57   c-11.851-15.72-25.892-28.2-40.86-36.39c-40.8-22.26-71.64-33.33-101.31-36.39c-5.882-0.6-21.632-0.6-27.271,0   c-12.148,1.29-19.86,4.38-25.77,10.32c-3.271,3.3-7.2,9.93-10.05,16.98c-3.511,8.67-6.392,13.29-11.552,18.48   c-9.75,9.78-24,15.15-44.85,16.89c-6,0.51-18.03,1.2-29.25,1.68c-4.05,0.18-8.28,0.36-9.45,0.42   c-0.464,0.026-1.349,0.027-2.55,0.007v7.471c3.346-0.011,6.673-0.076,10.35-0.188c27-0.75,67.32-3.84,77.671-5.94   c9.899-2.01,17.041-6.03,21.721-12.24c3.21-4.26,5.31-9.06,9.06-20.88c2.88-9.03,6.45-14.938,11.431-18.87   c9.931-7.859,27.66-10.38,46.471-6.6c13.56,2.73,31.68,8.64,51,16.68c29.58,12.33,44.369,20.851,58.859,33.96   c23.67,21.391,38.01,48.812,53.879,103.08c8.461,28.86,12.871,52.83,14.432,78.45c1.47,23.641-0.21,50.939-4.352,71.1   c-3.27,15.961-8.97,33.271-13.648,41.58c-3.602,6.36-9.09,12.602-15,17.011c-5.762,4.291-18.602,12.301-23.82,14.909   c-14.25,7.052-41.609,16.74-58.38,20.7c-11.521,2.7-14.67,3.87-14.67,5.4c0,0.6,0.149,0.75,0.72,0.75   c1.021,0,16.562-3.601,22.83-5.28c8.102-2.16,14.82-4.47,28.95-9.93c21.75-8.4,37.17-17.19,49.771-28.41   c3.631-3.24,5.159-5.04,8.371-9.84c9.688-14.521,15.719-32.13,18.81-54.96c1.44-10.8,2.22-21.602,3.03-42.03   C898.141,460.89,897.689,448.561,895.8,433.2z" style="stroke:black;fill:#BFDAE3"/><path id="180623552" parent_id="180608862" order="7" structure_id="1" d="M901.02,393.3c-2.97-38.188-12.06-66.78-30.778-96.75c-7.44-11.88-15.302-22.02-24.091-31.02   c-13.59-13.92-24.659-21.99-44.069-32.07c-19.562-10.17-29.851-14.46-44.34-18.48c-16.41-4.56-44.312-9.3-65.642-11.13   c-6.63-0.57-7.92-0.57-8.398-0.03c-0.33,0.45-3.21,1.47-4.95,1.8c-2.91,0.54-7.74,0.81-17.49,0.93   c-17.04,0.21-24.899,1.38-32.34,4.8c-4.35,1.98-6.45,3.69-17.25,13.98c-16.021,15.27-20.25,19.08-25.38,22.89   c-8.16,6.09-16.11,10.38-28.141,15.18c-7.938,3.169-13.101,4.725-18.149,4.751v13.339c11.399,0,36.812-1.29,46.2-2.37   c17.85-2.04,31.02-7.41,39.898-16.32c4.95-4.92,7.74-9.51,11.852-19.38c2.25-5.4,5.22-11.04,7.17-13.59   c5.818-7.56,14.91-11.76,28.83-13.29c5.67-0.6,21.988-0.51,27.6,0.15c22.92,2.82,44.13,9.15,70.05,20.97   c10.65,4.89,30.632,15.24,36.45,18.93c20.13,12.72,37.262,32.37,51.721,59.28c9.239,17.13,20.551,45.33,25.381,63.18   c6.629,24.45,10.528,45.57,12.3,66.45c1.59,18.66,0.12,56.43-3,77.1c-3.45,22.711-9.75,39.87-20.13,54.631   c-6.541,9.301-22.17,20.551-40.44,29.131c-6.989,3.3-12.81,5.67-24.33,9.988c-13.53,5.07-21.33,7.352-37.71,10.98   c-2.939,0.66-4.439,1.14-4.439,1.38c0,1.38,14.761-0.87,25.08-3.78c16.891-4.83,37.289-13.41,53.971-22.77   c22.77-12.78,29.818-19.26,37.289-34.142c6.271-12.568,12.091-28.829,14.311-40.17c0.271-1.318,0.602-5.25,0.78-8.698   c0.149-3.48,0.659-13.802,1.17-22.95c1.77-33.182,2.1-43.59,2.1-65.852C902.1,412.8,901.83,403.53,901.02,393.3z" style="stroke:black;fill:#BFDAE3"/><path id="180623552" parent_id="180608862" order="8" structure_id="1" d="M682.77,504.33   c-2.729,0.63-6.568,0.93-16.02,1.17c-10.59,0.27-14.01,0.6-20.58,1.98c-3.811,0.778-8.25,2.158-10.71,3.33   c-5.58,2.608-12.66,10.979-19.74,23.398c-6.93,12.12-9.54,18.602-8.52,21.09c0.45,1.08,1.2,1.32,3.479,1.141   c2.67-0.239,6.87-2.579,13.5-7.529c7.83-5.85,26.461-18.96,31.681-22.29c2.371-1.5,9.149-5.61,15.091-9.12   c12.27-7.26,13.89-8.311,15.689-9.99c1.409-1.38,1.681-2.67,0.689-3.21C686.641,503.939,684.3,503.939,682.77,504.33z" style="stroke:black;fill:#BFDAE3"/><path id="180623552" parent_id="180608862" order="9" structure_id="1" d="M628.05,202.83   c-11.52,1.17-17.64,3.99-22.739,10.53c-1.08,1.38-3.631,5.04-5.67,8.188c-4.979,7.68-6.391,9.69-8.91,13.05   c-6,7.89-14.37,16.5-20.729,21.27c-3.78,2.85-4.5,3.63-3.3,3.63c0.81,0,6.779-3.03,11.25-5.73c8.43-5.07,13.68-9.39,28.35-23.4   c12.182-11.61,13.95-13.26,16.32-15.15c4.14-3.3,9.568-5.7,15.84-7.02c6.12-1.26,9.42-1.53,22.59-1.8   c14.762-0.3,18.301-0.63,21.54-2.01c1.98-0.84,1.41-1.2-2.25-1.41C674.52,202.65,630.9,202.53,628.05,202.83z" style="stroke:black;fill:#BFDAE3"/><path id="180623552" parent_id="180608862" order="10" structure_id="1" d="M774.9,334.89c0,0.21,1.318,2.61,2.97,5.341   c4.89,8.189,8.94,15.631,12.66,23.221c6.239,12.81,8.489,19.2,12.09,34.56c3.39,14.4,4.62,26.642,4.29,42.54   c-0.51,23.551-3.03,35.67-9.63,46.17c-3.21,5.07-9.63,13.381-33.33,43.08c-18.3,22.92-30.511,37.682-37.71,45.63   c-1.29,1.44-2.34,2.761-2.34,2.94c0,1.17,3.06-0.811,8.22-5.34c5.189-4.53,18.51-16.92,21.36-19.892   c14.278-14.729,42-50.608,48.358-62.64c5.13-9.63,9.54-23.58,10.86-34.35c0.42-3.36,0.42-16.17,0-21.69   c-1.41-18.36-4.92-37.83-9.15-50.76c-3.78-11.49-11.85-27.78-18.989-38.25C779.76,338.37,774.9,333.061,774.9,334.89z" style="stroke:black;fill:#BFDAE3"/><path id="180623552" parent_id="180608862" order="11" structure_id="1" d="M742.5,313.41c-0.75,0.3-1.17,1.08-1.2,2.1   c0,0.87,0.33,1.23,3.091,3.45c7.26,5.88,16.739,14.521,20.699,18.84c4.98,5.46,10.35,14.19,17.91,29.16   c9.51,18.78,13.35,31.47,15.21,50.34c0.96,9.78,0.57,32.4-0.84,47.102c-0.63,6.72-1.83,11.039-4.08,14.698   c-7.08,11.552-9.271,14.73-16.71,24.45c-2.91,3.78-11.61,15.75-19.35,26.55c-16.711,23.341-17.312,24.15-33.182,42.602   C713.97,584.43,711.9,587.1,711.9,588.45c0,0.569,0.99,0.6,2.188,0c0.601-0.3,1.44-1.261,2.312-2.61c0.75-1.17,2.1-2.76,3-3.51   c5.67-4.77,19.648-21.36,47.67-56.55c18.75-23.49,25.56-32.312,28.979-37.38c6-8.94,8.37-16.65,9.96-32.4   c0.75-7.65,0.78-31.14,0-37.8c-1.02-9-2.46-16.47-5.34-27.602c-2.43-9.42-4.438-14.97-8.97-24.63   c-3.99-8.608-12.96-24.72-17.221-31.02c-3.689-5.46-11.641-12.57-18.989-16.98C750.27,314.85,744.15,312.72,742.5,313.41z" style="stroke:black;fill:#BFDAE3"/><path id="180623552" parent_id="180608862" order="12" structure_id="1" d="M724.5,341.189   c0,0.211,0.6,2.189,1.35,4.409c1.472,4.382,2.58,8.432,3.48,12.9c0.48,2.37,0.63,4.86,0.87,14.55   c0.239,11.46,0.569,16.44,1.29,19.65l0.358,1.59l2.07,0.87c3.12,1.26,3.3,1.17,2.399-1.29c-1.229-3.42-1.381-5.221-1.619-18.87   c-0.24-14.55-0.33-15.48-2.28-22.95c-0.54-2.16-1.438-5.25-2.01-6.87l-0.99-2.97l-1.8-0.69   C725.609,340.74,724.5,340.62,724.5,341.189z" style="stroke:black;fill:#BFDAE3"/><path id="180623552" parent_id="180608862" order="13" structure_id="1" d="M695.85,223.11   c-16.38,1.35-25.47,5.58-31.528,14.67c-1.681,2.52-3.421,6.03-3.421,6.898c0,0.3,0.721,1.95,1.619,3.72   c3.78,7.35,5.341,15.45,4.65,24c-1.17,14.67-7.05,25.08-17.37,30.81c-6.148,3.42-17.189,4.92-36.45,4.89   c-16.948,0-27.209-1.409-35.88-4.92c-5.79-2.34-9.898-5.49-14.609-11.25l-2.579-3.12l-1.95,0.21c-1.08,0.09-3.66,0.18-5.7,0.18   h-3.689l0.181,0.93c0.3,1.56,2.76,6.48,4.53,9.09c5.88,8.762,14.789,15.392,25.35,18.9c3.24,1.08,10.02,2.58,11.641,2.58   c0.511,0,2.101-0.391,3.569-0.87c3.931-1.32,6.78-1.53,20.49-1.5c7.739,0,15.81-0.21,21.3-0.51   c4.859-0.271,12.689-0.54,17.34-0.602l8.521-0.09l2.58-1.41c4.771-2.55,7.409-4.53,10.291-7.648l2.729-2.971l-1.229-2.46   c-1.261-2.61-2.552-6.84-2.91-9.72c-0.12-1.17-0.42-1.89-0.9-2.37c-0.39-0.39-0.72-1.02-0.72-1.41c0-0.899,0.87-4.439,2.34-9.689   c1.92-6.811,3.03-13.8,3.51-22.2c0.24-3.9,1.41-7.89,3.66-12.27c2.46-4.74,5.311-6.96,11.61-9.03   c10.619-3.45,22.108-2.82,39.18,2.1c12,3.45,20.04,6.78,44.4,18.3c16.08,7.59,25.709,13.41,35.25,21.36   c13.709,11.34,28.5,29.22,38.069,45.93c9.209,16.051,13.681,29.221,24.181,71.16c6.869,27.45,8.369,35.07,9.75,49.352   c0.271,2.64,0.869,7.83,1.35,11.55c1.47,11.13,2.101,21.39,2.101,33.6c0,19.29-2.039,33.181-6.99,47.851   c-6.719,19.859-15.869,34.979-26.489,43.649c-6.06,5.011-20.819,13.53-28.771,16.65c-6.721,2.67-15.689,5.159-23.189,6.51   c-3.12,0.54-3.96,0.78-3.9,1.14c0.062,0.302,0.9,0.602,2.642,0.961c4.35,0.869,9.18,1.229,16.8,1.261h7.35l4.801-2.04   c7.859-3.36,13.681-6.48,21.149-11.28c11.79-7.59,15.9-10.8,20.101-15.66c5.34-6.18,8.641-12.54,12.84-24.87   c7.711-22.619,11.16-44.58,11.67-74.369c0.631-39-5.699-75.091-21.659-122.851c-13.08-39.21-26.28-62.19-46.2-80.34   c-15.57-14.19-31.141-23.07-63.449-36.12C733.08,227.34,710.73,221.88,695.85,223.11z" style="stroke:black;fill:#BFDAE3"/><path id="180623552" parent_id="180608862" order="14" structure_id="1" d="M564.63,449.25   c-9.03,3.3-14.76,9.24-16.14,16.86c-0.391,2.159-0.42,3.028-0.15,4.89c0.391,2.82,1.41,5.52,2.4,6.39   c1.65,1.472,2.52,2.49,3.09,3.57c0.39,0.75,0.779,1.14,1.08,1.08c0.48-0.09,15.06-32.31,15.09-33.33   C570,447.87,567.84,448.08,564.63,449.25z" style="stroke:black;fill:#BFDAE3"/><path id="180623552" parent_id="180608862" order="15" structure_id="1" d="M570.33,357.93   c-0.96,0.9-1.26,1.892-1.439,4.92c-0.359,6.302,1.739,10.92,5.969,13.021c2.342,1.2,3.541,1.2,4.802,0.06   c0.96-0.868,0.989-0.96,1.108-3.63c0.15-4.648-0.93-8.609-3.09-11.1c-0.66-0.78-1.68-1.98-2.22-2.67   c-0.96-1.17-1.05-1.23-2.729-1.23C571.41,357.3,570.87,357.45,570.33,357.93z" style="stroke:black;fill:#BFDAE3"/><path id="180623552" parent_id="180608862" order="16" structure_id="1" d="M546.75,264.27   c-1.29,0.57-2.85,2.19-2.85,2.91c0,0.57,0.898,0.54,3.449-0.148c3.779-0.99,6.449-1.95,6.449-2.312c0-0.45-2.52-1.02-4.439-1.02   C548.58,263.7,547.41,263.97,546.75,264.27z" style="stroke:black;fill:#BFDAE3"/><path id="180623552" parent_id="180608862" order="17" structure_id="1" d="M703.35,234   c-8.278,0.72-15.93,3.39-19.17,6.72c-1.83,1.89-3.96,5.82-5.279,9.78c-0.811,2.43-0.989,3.54-1.229,7.5   c-0.149,2.55-0.54,6.66-0.899,9.15c-0.569,4.11-1.199,6.9-3.869,16.95c-1.051,3.9-1.11,6.18-0.211,6.72   c0.451,0.27,0.66,0.18,1.17-0.42c1.051-1.23,3.99-7.68,5.461-11.94c1.92-5.61,2.52-8.1,3.358-14.28   c1.95-14.729,3.57-19.83,7.08-22.41c4.802-3.54,14.101-5.97,21.392-5.58c9.27,0.51,22.709,5.43,51.449,18.96   c5.521,2.61,11.819,5.61,13.949,6.66c19.471,9.75,33.36,19.5,46.53,32.64c10.92,10.89,16.68,19.17,25.14,36.06   c6.96,13.92,10.141,22.74,12.062,33.24c1.109,6.18,4.438,20.37,9.148,39.03c2.28,9.09,5.25,20.97,6.54,26.398   c1.32,5.432,2.73,10.95,3.15,12.271c2.729,8.76,4.89,40.38,3.81,56.1c-1.05,15.12-3.33,29.58-6.18,39.15   c-4.771,15.93-14.67,32.55-24.45,41.04c-6.42,5.55-17.67,11.85-28.648,16.02c-7.23,2.73-14.91,4.892-25.65,7.17   c-3.061,0.631-5.85,1.23-6.21,1.32c-1.229,0.3-0.72,0.96,1.351,1.8c1.649,0.66,2.279,0.78,3.601,0.63   c2.698-0.33,9.239-1.648,14.159-2.88c13.319-3.33,23.25-7.92,37.5-17.34c4.41-2.91,5.819-4.05,8.881-7.08   c9.21-9.24,17.068-23.19,22.89-40.62c5.399-16.229,7.38-32.88,6.63-55.56c-0.39-11.432-0.689-15.511-2.1-26.852   c-0.631-5.278-1.381-11.76-1.65-14.398c-1.14-11.102-2.818-19.261-9.479-45.812c-9.181-36.688-13.17-49.29-19.95-62.938   c-7.17-14.4-15.96-26.91-28.351-40.38c-9.779-10.68-19.681-18.69-31.5-25.47c-8.851-5.13-34.619-17.34-46.171-21.9   C730.74,236.79,713.609,233.13,703.35,234z" style="stroke:black;fill:#BFDAE3"/><path id="180623552" parent_id="180608862" order="18" structure_id="1" d="M717,291c-1.08,0.51-6.061,3.21-11.1,5.97   c-5.041,2.79-10.74,5.88-12.66,6.93c-4.23,2.25-4.83,2.82-4.86,4.62c-0.03,1.021,0.15,1.53,0.72,2.132   c1.472,1.618,2.28,1.77,9.302,1.829c7.35,0.029,11.038,0.539,17.43,2.369c7.41,2.131,13.26,5.102,19.41,9.84   c5.46,4.23,14.399,10.712,14.76,10.712c1.109,0-1.141-3.45-4.8-7.29c-6.721-7.172-22.29-15.422-33.96-18.03   c-3.841-0.87-11.19-1.53-13.892-1.23l-1.8,0.182l1.5-1.08c4.32-3.15,9.931-5.88,14.4-7.021c5.521-1.38,9.78-1.41,16.649-0.18   c4.711,0.87,9.09,0.93,13.199,0.15c3.512-0.66,3.69-0.66,5.641-0.18c2.58,0.63,5.371,1.95,9.511,4.53c1.83,1.14,4.38,2.7,5.7,3.51   c1.318,0.812,5.31,2.94,8.85,4.74s7.74,4.11,9.3,5.16c5.311,3.51,12.63,11.58,17.102,18.84c2.1,3.42,2.88,4.2,4.108,4.2   c1.29,0,2.971-1.471,3.42-3c0.301-0.99,0.271-1.32-0.33-2.55c-0.84-1.74-2.369-3.392-13.17-14.16   c-10.35-10.38-12.75-12.15-22.229-16.59c-4.11-1.92-5.7-2.88-12.9-7.68c-3.93-2.58-7.08-4.47-8.04-4.8   c-2.43-0.78-4.409-0.45-8.159,1.32c-4.471,2.13-5.819,2.52-8.399,2.55c-3.21,0.03-4.591-0.66-7.62-3.87   c-2.25-2.37-2.55-2.58-3.78-2.73C719.22,290.1,718.561,290.25,717,291z" style="stroke:black;fill:#BFDAE3"/><path id="180623552" parent_id="180608862" order="19" structure_id="1" d="M718.5,391.02   c0,0.271,2.7,1.83,6.689,3.842c13.17,6.778,16.621,9.54,23.791,19.05c5.488,7.26,10.438,16.649,11.85,22.438   c0.779,3.24,1.02,8.222,0.6,12.602c-1.289,13.529-4.199,20.13-10.8,24.54c-4.08,2.76-7.021,3.63-12.479,3.63   c-4.711,0.03-6.271-0.33-13.649-3.03c-5.729-2.13-11.46-4.739-14.188-6.479c-0.932-0.602-1.86-1.11-2.012-1.11   c-0.779,0-0.12,1.32,1.592,3.12c1.618,1.71,2.43,2.25,6.328,4.229c5.102,2.551,9.391,4.289,13.08,5.279   c2.25,0.63,3.24,0.69,8.4,0.721c6.479,0,7.92-0.239,11.85-2.069c4.5-2.102,7.38-5.011,9.99-10.05c2.46-4.74,3.93-9.48,5.13-16.682   c1.62-9.479,0.99-15.63-2.399-23.488c-3.209-7.472-8.67-16.08-14.761-23.19c-3.39-3.96-8.13-7.05-14.31-9.36   c-3.21-1.199-13.62-4.41-14.28-4.41C718.68,390.6,718.5,390.78,718.5,391.02z" style="stroke:black;fill:#BFDAE3"/><path id="180623552" parent_id="180608862" order="20" structure_id="1" d="M683.1,358.5c0,0.15,0.541,1.14,1.23,2.16   c3.54,5.49,6,12.688,7.2,21.24c0.6,4.14,0.45,15.33-0.3,23.398c-1.621,17.28-3.57,27.33-7.621,39.63   c-4.979,14.972-7.619,20.102-13.409,26.19c-3.99,4.17-9.36,8.04-13.05,9.42c-3,1.109-0.78,1.68,3.209,0.81   c7.261-1.528,13.561-8.188,20.041-21.238c3.148-6.271,5.068-11.102,9.6-24.062c3.6-10.318,4.23-12.779,4.95-19.05   c2.19-19.59,1.8-28.26-1.8-40.771c-2.312-8.011-4.771-13.561-7.23-16.199C684.42,358.41,683.1,357.689,683.1,358.5z" style="stroke:black;fill:#BFDAE3"/><path id="180623552" parent_id="180608862" order="21" structure_id="1" d="M712.05,511.98   c-4.08,0.39-8.34,1.35-12.51,2.88c-1.5,0.54-1.74,0.72-2.16,1.858c-0.271,0.69-1.08,2.19-1.83,3.33   c-1.979,3.03-1.83,3.33,1.05,2.19c4.472-1.74,18.12-0.42,27.24,2.608c1.71,0.57,3.24,1.052,3.391,1.052   c1.051,0-0.721-2.102-5.609-6.602c-2.67-2.46-3.061-3.33-2.34-5.069c0.539-1.319,0.539-1.771-0.092-1.949   C718.41,512.07,713.46,511.86,712.05,511.98z" style="stroke:black;fill:#BFDAE3"/><path id="180623552" parent_id="180608862" order="22" structure_id="1" d="M661.77,482.97   c-3.72,1.47-6.659,4.53-11.85,12.48c-2.609,4.02-6.12,10.62-6.12,11.55c0,0.75,0.36,0.75,3.931,0.03   c5.011-1.021,10.08-1.53,15.359-1.53c7.021,0,14.641-0.48,18.9-1.17c3.689-0.6,4.859-0.51,5.939,0.45   c0.301,0.27,0.75,0.42,0.989,0.33c1.05-0.421,3.78-7.86,3.78-10.352c0-1.29-0.689-2.46-1.92-3.3c-1.08-0.72-11.28-4.83-16.65-6.689   C667.141,482.34,664.38,481.95,661.77,482.97z" style="stroke:black;fill:#BFDAE3"/><path id="180623552" parent_id="180608862" order="23" structure_id="1" d="M709.62,586.92   c-1.2,0.48-1.62,0.84-1.89,1.561c-0.66,1.801-2.642,4.5-5.642,7.649c-3.54,3.72-3.569,3.78-3.51,9.72   c0.028,4.23,0.63,6.271,2.43,8.04c1.62,1.65,3.15,2.102,6.302,1.921c1.438-0.091,3.148-0.301,3.778-0.479l1.11-0.36v-2.729v-2.7   l-0.811,0.21c-0.479,0.12-1.649,0.27-2.641,0.33c-1.53,0.12-2.01,0-3.3-0.69c-1.17-0.659-1.681-1.2-2.341-2.488   c-0.779-1.5-0.84-1.86-0.72-3.9c0.209-3.09,1.05-5.521,1.949-5.64c1.2-0.182,1.472,0.39,1.71,3.3c0.21,2.46,0.3,2.85,1.05,3.6   c1.62,1.62,5.041,0.931,6.57-1.319c0.42-0.659,1.38-1.891,2.13-2.789c1.561-1.83,2.91-4.23,2.61-4.562   c-0.12-0.12-0.66-0.028-1.2,0.15c-2.7,0.96-3.689,0.028-3.42-3.181c0.12-1.109,0.271-2.399,0.39-2.881   c0.211-0.869,0.181-0.869-0.868-0.688c-1.32,0.21-1.921-0.33-1.44-1.261C712.74,586.11,712.08,585.87,709.62,586.92z" style="stroke:black;fill:#BFDAE3"/><path id="180623552" parent_id="180608862" order="24" structure_id="1" d="M703.68,597.96   c-1.199,1.83-1.47,7.05-0.479,9.06c1.05,2.19,4.08,3.541,6.779,3.062c2.279-0.45,5.58-4.95,6.029-8.22   c0.24-1.71-0.51-1.682-1.529,0.06c-1.529,2.61-3.87,3.812-6.181,3.181c-1.68-0.449-2.13-1.289-2.37-4.439   c-0.119-1.471-0.33-2.82-0.449-3C705.12,597.09,704.16,597.24,703.68,597.96z" style="stroke:black;fill:#BFDAE3"/><path id="180623552" parent_id="180608862" order="25" structure_id="1" d="M541.74,472.11   c-0.42,1.05-0.391,13.829,0.06,18.39c0.39,3.75,1.29,9.15,1.95,11.311c0.48,1.591,1.17,2.069,1.47,1.051   c0.271-0.87,0.72-5.58,1.261-13.381c0.42-5.909,0.449-7.979,0.181-9.931C545.939,474.061,542.85,469.439,541.74,472.11z" style="stroke:black;fill:#BFDAE3"/><path id="180623552" parent_id="180608862" order="26" structure_id="1" d="M569.609,450.3   c-0.601,1.352-1.109,2.61-1.109,2.82c0,0.24,0.54,0.78,1.2,1.229c2.88,1.98,6.54,6.632,8.04,10.142   c0.688,1.59,0.81,2.31,0.81,4.858c0,2.852-0.06,3.12-1.11,5.341c-2.039,4.261-5.698,7.229-9.81,8.011   c-2.97,0.54-5.521,0.3-11.31-1.11c-0.45-0.09-0.69,0.062-0.961,0.66c-0.329,0.72-0.239,1.17,0.781,3.87   c0.629,1.649,1.288,3.42,1.438,3.93c0.271,0.84,0.42,0.931,2.521,1.29c2.851,0.51,7.17,0.271,10.291-0.51   c4.858-1.26,10.318-4.86,13.26-8.79c3-3.99,3.898-6.72,3.66-11.31c-0.182-3.722-0.75-5.7-2.94-10.11   c-3.39-6.78-8.37-11.7-12.75-12.601C570.72,447.84,570.689,447.9,569.609,450.3z" style="stroke:black;fill:#BFDAE3"/><path id="180623552" parent_id="180608862" order="27" structure_id="1" d="M703.38,424.14   c-0.51,0.812-1.17,6.36-1.29,10.921c-0.24,7.92,0.84,17.551,2.76,24.811c1.11,4.14,1.892,5.37,4.44,7.05   c2.34,1.5,3.3,1.71,3.81,0.812c0.541-1.052,0.33-4.44-0.6-9.12c-1.47-7.591-1.8-9.812-2.13-14.642   c-0.42-6.238-0.06-12.18,1.11-17.608l0.209-0.96h-1.561c-0.87,0-2.58-0.33-3.81-0.75C703.891,423.84,703.62,423.78,703.38,424.14z" style="stroke:black;fill:#BFDAE3"/><path id="180623552" parent_id="180608862" order="28" structure_id="1" d="M581.91,401.97   c-0.6,0.12-1.2,0.33-1.29,0.42c-0.12,0.091,0.149,0.9,0.6,1.74c0.48,0.96,0.78,2.101,0.78,2.851c0,1.109-0.21,1.5-1.561,2.971   c-1.59,1.739-2.971,2.609-4.649,3c-0.54,0.09-0.99,0.3-0.99,0.42c0,0.09,0.48,1.08,1.05,2.189c2.94,5.551,3.062,11.761,0.33,19.319   c-0.42,1.17-0.778,2.311-0.778,2.521c0,0.3,0.72,0.329,3.09,0.238c6.149-0.3,12.42-3.27,17.91-8.55   c4.35-4.14,5.85-8.88,4.648-14.608c-1.62-7.62-7.229-12.24-15.3-12.632C584.28,401.79,582.54,401.85,581.91,401.97z" style="stroke:black;fill:#BFDAE3"/><path id="180623552" parent_id="180608862" order="29" structure_id="1" d="M573.84,383.01   c-0.57,0.87-1.529,1.562-3.87,2.79l-3.12,1.65l-0.09,1.26c-0.15,2.25,0.84,3.39,5.61,6.57c1.229,0.81,3.51,2.729,5.069,4.229   l2.819,2.79l1.351-0.33c0.78-0.21,2.551-0.27,4.381-0.18c3.358,0.148,5.699,0.84,8.1,2.311c1.71,1.051,2.01,1.109,2.01,0.301   c0-1.381-0.99-5.34-1.8-7.08c-2.819-6.24-9.569-12.271-16.44-14.7C575.1,381.66,574.71,381.689,573.84,383.01z" style="stroke:black;fill:#BFDAE3"/><path id="180623552" parent_id="180608862" order="30" structure_id="1" d="M691.5,518.34   c-6.6,3.33-10.439,5.76-24.3,15.33c-16.5,11.4-22.351,16.05-32.04,25.35c-3.721,3.57-7.86,8.342-7.86,9.03   c0,0.24,0.39,0.63,0.9,0.9c1.26,0.66,1.59,1.438,1.35,3.33c-0.239,1.979-0.03,2.04,2.25,0.51c1.98-1.29,3.24-2.34,9.03-7.32   c5.609-4.829,9.96-8.22,21.42-16.62c14.58-10.709,23.37-17.698,27.54-21.84c3.54-3.54,7.41-9.028,7.41-10.56   C697.2,515.64,696.21,515.97,691.5,518.34z" style="stroke:black;fill:#BFDAE3"/><path id="180623552" parent_id="180608862" order="31" structure_id="1" d="M624.09,569.13   c-1.56,0.75-6.24,5.61-8.55,8.851c-5.101,7.171-9.42,15.449-12.3,23.671c-0.721,2.01-0.811,3.659-0.57,8.46   c0.03,0.18,0.721,1.108,1.561,2.04c1.561,1.68,6.989,5.55,7.83,5.55c0.75,0,1.681-1.262,2.069-2.79c0.271-1.11,0.271-2.13,0-4.44   c-1.26-11.13,0.54-16.77,8.79-27.869c5.82-7.801,7.561-11.221,6.42-12.66C628.08,568.41,626.16,568.11,624.09,569.13z" style="stroke:black;fill:#BFDAE3"/><path id="180623552" parent_id="180608862" order="32" structure_id="1" d="M547.71,477.9c-0.78,0.6-0.78,0.72-0.78,3.988   c0.062,4.472-0.81,15.78-1.56,21.21c-0.931,6.421-0.57,8.82,1.53,10.62c1.949,1.62,5.49,0.721,8.31-2.1   c4.771-4.8,4.83-16.5,0.12-27.45C552.75,478.23,550.08,476.04,547.71,477.9z" style="stroke:black;fill:#BFDAE3"/><path id="180623552" parent_id="180608862" order="33" structure_id="1" d="M614.85,575.16   c-1.8,1.32-4.56,3.66-6.06,5.188c-3.09,3.062-3.96,4.62-5.37,9.302c-0.66,2.31-0.779,3.3-0.84,6.898   c-0.03,3.512,0.029,4.2,0.42,4.262c0.3,0.06,0.72-0.602,1.32-2.222c2.789-7.59,8.55-17.67,13.41-23.49   C620.46,571.83,619.35,571.83,614.85,575.16z" style="stroke:black;fill:#BFDAE3"/><path id="180623552" parent_id="180608862" order="34" structure_id="1" d="M703.35,234   c-8.278,0.72-15.93,3.39-19.17,6.72c-1.83,1.89-3.96,5.82-5.279,9.78c-0.811,2.43-0.989,3.54-1.229,7.5   c-0.149,2.55-0.54,6.66-0.899,9.15c-0.569,4.11-1.199,6.9-3.869,16.95c-1.051,3.9-1.11,6.18-0.211,6.72   c0.451,0.27,0.66,0.18,1.17-0.42c1.051-1.23,3.99-7.68,5.461-11.94c1.92-5.61,2.52-8.1,3.358-14.28   c1.95-14.729,3.57-19.83,7.08-22.41c4.802-3.54,14.101-5.97,21.392-5.58c9.27,0.51,22.709,5.43,51.449,18.96   c5.521,2.61,11.819,5.61,13.949,6.66c19.471,9.75,33.36,19.5,46.53,32.64c10.92,10.89,16.68,19.17,25.14,36.06   c6.96,13.92,10.141,22.74,12.062,33.24c1.109,6.18,4.438,20.37,9.148,39.03c2.28,9.09,5.25,20.97,6.54,26.398   c1.32,5.432,2.73,10.95,3.15,12.271c2.729,8.76,4.89,40.38,3.81,56.1c-1.05,15.12-3.33,29.58-6.18,39.15   c-4.771,15.93-14.67,32.55-24.45,41.04c-6.42,5.55-17.67,11.85-28.648,16.02c-7.23,2.73-14.91,4.892-25.65,7.17   c-3.061,0.631-5.85,1.23-6.21,1.32c-1.229,0.3-0.72,0.96,1.351,1.8c1.649,0.66,2.279,0.78,3.601,0.63   c2.698-0.33,9.239-1.648,14.159-2.88c13.319-3.33,23.25-7.92,37.5-17.34c4.41-2.91,5.819-4.05,8.881-7.08   c9.21-9.24,17.068-23.19,22.89-40.62c5.399-16.229,7.38-32.88,6.63-55.56c-0.39-11.432-0.689-15.511-2.1-26.852   c-0.631-5.278-1.381-11.76-1.65-14.398c-1.14-11.102-2.818-19.261-9.479-45.812c-9.181-36.688-13.17-49.29-19.95-62.938   c-7.17-14.4-15.96-26.91-28.351-40.38c-9.779-10.68-19.681-18.69-31.5-25.47c-8.851-5.13-34.619-17.34-46.171-21.9   C730.74,236.79,713.609,233.13,703.35,234z" style="stroke:black;fill:#BFDAE3"/><path id="180623552" parent_id="180608862" order="35" structure_id="1" d="M711.6,404.311   c-1.74,2.011-4.858,8.431-6.449,13.379c-1.771,5.462-1.771,5.672,0.149,6.48c1.62,0.69,4.021,1.23,5.521,1.23   c0.93,0,0.93,0,2.34-4.142c2.278-6.51,2.91-10.198,2.37-13.56c-0.36-2.16-1.471-4.59-2.19-4.74   C713.1,402.9,712.32,403.53,711.6,404.311z" style="stroke:black;fill:#BFDAE3"/><path id="180623552" parent_id="180608862" order="36" structure_id="1" d="M694.59,380.91c0.09,0.63,0.45,2.55,0.78,4.29   c1.17,6.239,1.53,13.95,0.93,19.648c-0.148,1.472-0.479,4.98-0.75,7.802c-0.72,8.068-1.648,12.869-3.3,17.25   c-0.391,1.08-1.83,5.13-3.18,9c-5.221,15.06-9.33,24-14.25,31.14c-0.721,1.05-1.32,2.01-1.32,2.16c0,0.42,0.96,0.359,5.46-0.3   c7.771-1.142,18.21-2.19,25.681-2.58c4.351-0.21,4.409-0.271,3.359-1.98c-0.33-0.54-0.6-1.17-0.6-1.38s-0.271-0.66-0.602-1.021   c-2.31-2.489-5.1-18.301-5.1-28.709c0.03-7.921,2.7-18.69,6.659-26.671c2.791-5.609,5.431-8.159,10.471-9.989   c2.64-0.96,6.75-1.771,9-1.771c2.188,0,1.859-0.568-1.141-2.068c-1.47-0.69-4.47-2.28-6.72-3.48   c-3.239-1.77-4.681-2.34-7.201-2.939c-7.35-1.771-12.51-4.351-16.108-8.011C694.859,379.47,694.35,379.38,694.59,380.91z" style="stroke:black;fill:#BFDAE3"/><path id="180623552" parent_id="180608862" order="37" structure_id="1" d="M703.109,589.32   c-2.069,2.369-4.799,5.46-6.029,6.869c-1.26,1.381-2.28,2.699-2.28,2.881c0,0.21,0.72,0.33,2.04,0.33h2.01l2.432-2.49   c4.859-4.92,6.72-7.83,6.72-10.5C708,584.07,707.311,584.49,703.109,589.32z" style="stroke:black;fill:#BFDAE3"/><path id="180623552" parent_id="180608862" order="38" structure_id="1" d="M697.05,469.98   c-5.88,0.479-13.5,1.38-19.5,2.278l-4.5,0.66l-2.25,2.28c-2.489,2.488-5.399,4.56-7.56,5.34c-1.26,0.42-1.44,0.6-1.44,1.32   c0,0.96,0.03,0.96,1.62,0.51c1.5-0.42,3.36-0.061,8.52,1.59c5.041,1.59,17.312,6.45,18.75,7.41c0.961,0.6,1.262,0.689,1.65,0.39   c2.04-1.5,8.43-3.688,20.43-6.989c12.541-3.449,11.58-3.061,12.45-4.649c0.421-0.78,0.78-1.5,0.78-1.59   c0-0.12-1.109-0.66-2.46-1.23c-4.649-1.859-11.729-5.58-12.81-6.72l-1.052-1.08l-3.898,0.03   C703.62,469.561,699.689,469.74,697.05,469.98z" style="stroke:black;fill:#BFDAE3"/><path id="180623552" parent_id="180608862" order="39" structure_id="1" d="M559.109,551.7   c-0.42,0.33-1.109,1.319-1.5,2.188c-1.351,2.852-1.799,5.61-1.949,11.762c-0.09,4.89-0.03,6.119,0.51,8.67   c1.05,5.13,2.55,6.778,6.24,6.84c2.279,0.029,3.54-0.45,4.56-1.74c2.07-2.609,2.88-9.21,2.13-17.07   c-0.448-4.409-1.35-6.869-3.42-9.09C563.73,551.16,560.7,550.439,559.109,551.7z" style="stroke:black;fill:#BFDAE3"/><path id="180623552" parent_id="180608862" order="40" structure_id="1" d="M567.45,588.66   c-1.62,0.93-1.44,2.279,0.63,4.89c4.08,5.13,6.63,6.96,13.529,9.72c6.721,2.67,13.531,4.5,18.569,4.98l2.132,0.21l0.209-0.96   c0.239-1.23-0.209-2.97-1.051-4.02c-0.898-1.142-3.148-2.19-6.84-3.15c-4.318-1.141-4.89-1.471-9.03-5.221   c-1.079-0.989-2.52-2.101-3.209-2.489c-2.041-1.23-6.239-2.79-9.479-3.57C569.55,588.24,568.35,588.15,567.45,588.66z" style="stroke:black;fill:#BFDAE3"/><path id="180623552" parent_id="180608862" order="41" structure_id="1" d="M588.3,491.25   c-0.239,0.061-1.649,0.27-3.149,0.45c-3.271,0.45-7.141,1.53-9.211,2.58c-6.778,3.45-12.39,15.03-11.34,23.489   c0.84,6.479,6.87,12.511,14.521,14.431c4.738,1.2,9.84,0.63,14.729-1.62c10.352-4.771,19.472-14.16,21.301-21.812   c2.16-9.148-3.75-15.63-15.899-17.368C597.359,491.13,589.439,491.04,588.3,491.25z" style="stroke:black;fill:#BFDAE3"/><path id="180623552" parent_id="180608862" order="42" structure_id="1" d="M641.1,318.03   c-6.63,0.39-15.39,0.63-25.8,0.72c-18.3,0.15-18.899,0.21-24.42,2.82c-5.19,2.43-10.29,6.028-8.489,6.028   c0.181,0,1.17-0.118,2.159-0.3c6.15-0.96,25.351-1.71,31.2-1.2c3.57,0.302,6.75,0.932,8.49,1.682c1.38,0.568,1.38,0.568,1.77-0.48   c0.812-2.16,4.801-2.819,24.84-4.05c16.98-1.08,18.15-1.02,23.791,1.23c4.109,1.648,9.601,4.198,11.97,5.58   c1.711,1.02,1.859,1.05,5.939,1.229c4.591,0.21,8.58,0.81,11.46,1.71c1.021,0.33,6.961,2.43,13.2,4.68   c6.24,2.25,14.521,5.16,18.39,6.48c8.341,2.819,10.621,3.75,16.291,6.569c4.92,2.459,8.311,4.619,10.891,6.959   c5.729,5.222,10.47,14.672,13.71,27.36c1.858,7.23,2.31,10.62,2.608,19.2c0.15,4.29,0.42,9.48,0.632,11.55   c0.448,4.98,0.209,11.7-0.932,23.55c-1.89,19.95-2.01,20.82-3.6,26.852c-2.101,7.83-2.64,10.26-3,13.41   c-0.511,4.47,0.12,4.828,2.31,1.35c4.381-6.87,5.222-9.57,5.79-18.51c0.182-2.82,0.99-10.562,1.8-17.25   c3.392-27.78,3.57-32.25,1.65-43.65c-1.891-11.25-6.54-26.37-10.65-34.8c-5.52-11.22-14.43-17.91-31.948-23.938   c-4.74-1.65-4.771-1.65-14.102-6.121c-10.829-5.189-14.01-6.391-21.75-8.069c-6.72-1.47-12.479-2.22-17.04-2.22   c-2.64,0-4.56-0.12-4.949-0.33c-0.359-0.21-1.439-1.142-2.399-2.102c-0.93-0.93-2.28-2.01-3-2.34c-0.69-0.33-4.86-1.38-9.21-2.31   c-7.439-1.591-8.25-1.682-12.75-1.771C653.311,317.49,646.62,317.7,641.1,318.03z" style="stroke:black;fill:#BFDAE3"/><path id="180623552" parent_id="180608862" order="43" structure_id="1" d="M714,484.53   c-17.49,4.83-23.07,7.02-21.63,8.46c0.18,0.18,0.33,0.57,0.33,0.87c0,0.45,0.239,0.54,1.44,0.54c1.92,0,26.76-5.102,27.51-5.642   c0.27-0.18,2.278-5.91,2.25-6.448C723.9,481.86,722.34,482.22,714,484.53z" style="stroke:black;fill:#BFDAE3"/><path id="180623552" parent_id="180608862" order="44" structure_id="1" d="M560.609,413.82   c-3.449,1.29-6.719,5.1-9.029,10.59c-2.1,5.01-1.41,10.83,1.561,13.29c3.539,2.938,9.84,2.01,14.101-2.011   c2.85-2.729,3.84-5.909,3.569-11.699c-0.211-5.16-1.08-7.471-3.601-9.51c-1.021-0.812-1.41-0.932-3.3-0.99   C562.59,413.43,561.3,413.55,560.609,413.82z" style="stroke:black;fill:#BFDAE3"/><path id="180623552" parent_id="180608862" order="45" structure_id="1" d="M641.1,318.03   c-6.63,0.39-15.39,0.63-25.8,0.72c-18.3,0.15-18.899,0.21-24.42,2.82c-5.19,2.43-10.29,6.028-8.489,6.028   c0.181,0,1.17-0.118,2.159-0.3c6.15-0.96,25.351-1.71,31.2-1.2c3.57,0.302,6.75,0.932,8.49,1.682c1.38,0.568,1.38,0.568,1.77-0.48   c0.812-2.16,4.801-2.819,24.84-4.05c16.98-1.08,18.15-1.02,23.791,1.23c4.109,1.648,9.601,4.198,11.97,5.58   c1.711,1.02,1.859,1.05,5.939,1.229c4.591,0.21,8.58,0.81,11.46,1.71c1.021,0.33,6.961,2.43,13.2,4.68   c6.24,2.25,14.521,5.16,18.39,6.48c8.341,2.819,10.621,3.75,16.291,6.569c4.92,2.459,8.311,4.619,10.891,6.959   c5.729,5.222,10.47,14.672,13.71,27.36c1.858,7.23,2.31,10.62,2.608,19.2c0.15,4.29,0.42,9.48,0.632,11.55   c0.448,4.98,0.209,11.7-0.932,23.55c-1.89,19.95-2.01,20.82-3.6,26.852c-2.101,7.83-2.64,10.26-3,13.41   c-0.511,4.47,0.12,4.828,2.31,1.35c4.381-6.87,5.222-9.57,5.79-18.51c0.182-2.82,0.99-10.562,1.8-17.25   c3.392-27.78,3.57-32.25,1.65-43.65c-1.891-11.25-6.54-26.37-10.65-34.8c-5.52-11.22-14.43-17.91-31.948-23.938   c-4.74-1.65-4.771-1.65-14.102-6.121c-10.829-5.189-14.01-6.391-21.75-8.069c-6.72-1.47-12.479-2.22-17.04-2.22   c-2.64,0-4.56-0.12-4.949-0.33c-0.359-0.21-1.439-1.142-2.399-2.102c-0.93-0.93-2.28-2.01-3-2.34c-0.69-0.33-4.86-1.38-9.21-2.31   c-7.439-1.591-8.25-1.682-12.75-1.771C653.311,317.49,646.62,317.7,641.1,318.03z" style="stroke:black;fill:#BFDAE3"/><path id="180623552" parent_id="180608862" order="46" structure_id="1" d="M548.1,516.689   c0,0.239,0.33,1.409,0.75,2.641c2.312,6.78,2.972,16.47,1.771,26.28c-0.21,1.829,0,1.95,1.62,0.989   c2.608-1.591,3.868-8.609,3.09-17.25c-0.42-4.711-1.29-8.069-2.521-9.931C551.46,517.35,548.1,515.43,548.1,516.689z" style="stroke:black;fill:#BFDAE3"/><path id="180623552" parent_id="180608862" order="47" structure_id="1" d="M703.68,597.96   c-1.199,1.83-1.47,7.05-0.479,9.06c1.05,2.19,4.08,3.541,6.779,3.062c2.279-0.45,5.58-4.95,6.029-8.22   c0.24-1.71-0.51-1.682-1.529,0.06c-1.529,2.61-3.87,3.812-6.181,3.181c-1.68-0.449-2.13-1.289-2.37-4.439   c-0.119-1.471-0.33-2.82-0.449-3C705.12,597.09,704.16,597.24,703.68,597.96z" style="stroke:black;fill:#BFDAE3"/><path id="180623552" parent_id="180608862" order="48" structure_id="1" d="M703.35,234   c-8.278,0.72-15.93,3.39-19.17,6.72c-1.83,1.89-3.96,5.82-5.279,9.78c-0.811,2.43-0.989,3.54-1.229,7.5   c-0.149,2.55-0.54,6.66-0.899,9.15c-0.569,4.11-1.199,6.9-3.869,16.95c-1.051,3.9-1.11,6.18-0.211,6.72   c0.451,0.27,0.66,0.18,1.17-0.42c1.051-1.23,3.99-7.68,5.461-11.94c1.92-5.61,2.52-8.1,3.358-14.28   c1.95-14.729,3.57-19.83,7.08-22.41c4.802-3.54,14.101-5.97,21.392-5.58c9.27,0.51,22.709,5.43,51.449,18.96   c5.521,2.61,11.819,5.61,13.949,6.66c19.471,9.75,33.36,19.5,46.53,32.64c10.92,10.89,16.68,19.17,25.14,36.06   c6.96,13.92,10.141,22.74,12.062,33.24c1.109,6.18,4.438,20.37,9.148,39.03c2.28,9.09,5.25,20.97,6.54,26.398   c1.32,5.432,2.73,10.95,3.15,12.271c2.729,8.76,4.89,40.38,3.81,56.1c-1.05,15.12-3.33,29.58-6.18,39.15   c-4.771,15.93-14.67,32.55-24.45,41.04c-6.42,5.55-17.67,11.85-28.648,16.02c-7.23,2.73-14.91,4.892-25.65,7.17   c-3.061,0.631-5.85,1.23-6.21,1.32c-1.229,0.3-0.72,0.96,1.351,1.8c1.649,0.66,2.279,0.78,3.601,0.63   c2.698-0.33,9.239-1.648,14.159-2.88c13.319-3.33,23.25-7.92,37.5-17.34c4.41-2.91,5.819-4.05,8.881-7.08   c9.21-9.24,17.068-23.19,22.89-40.62c5.399-16.229,7.38-32.88,6.63-55.56c-0.39-11.432-0.689-15.511-2.1-26.852   c-0.631-5.278-1.381-11.76-1.65-14.398c-1.14-11.102-2.818-19.261-9.479-45.812c-9.181-36.688-13.17-49.29-19.95-62.938   c-7.17-14.4-15.96-26.91-28.351-40.38c-9.779-10.68-19.681-18.69-31.5-25.47c-8.851-5.13-34.619-17.34-46.171-21.9   C730.74,236.79,713.609,233.13,703.35,234z" style="stroke:black;fill:#BFDAE3"/><path id="180623552" parent_id="180608862" order="49" structure_id="1" d="M540,399.664v53.009c0.059-0.01,0.117-0.021,0.18-0.033c0.57-0.09,0.57-0.63,0.57-26.488v-26.4L540,399.664   z" style="stroke:black;fill:#BFDAE3"/><path id="180623552" parent_id="180608862" order="50" structure_id="1" d="M578.01,423.66c-0.54-6.84-3.42-11.641-9.9-16.5c-1.5-1.141-4.26-3.51-6.118-5.25   c-1.83-1.74-3.78-3.391-4.29-3.66c-2.342-1.2-4.53-1.41-16.2-1.5c-0.506-0.002-1.005-0.005-1.5-0.007v2.926   c0.203,0.052,0.408,0.154,0.57,0.351c0.239,0.302,0.3,7.41,0.27,26.312l-0.09,25.92H540v103.5c2.52,0,3.061,0.09,4.59,0.84   c0.96,0.48,2.01,1.261,2.37,1.74s0.81,0.87,1.021,0.87c0.42,0,1.351-4.771,2.279-11.7c0.87-6.72,0.93-16.68,0.15-21.45   c-0.721-4.229-2.49-9.568-4.26-12.96l-1.41-2.64l0.119-3.33c0.121-2.88,0.061-3.391-0.359-3.66c-0.99-0.6-2.43-7.68-2.97-14.729   c-0.421-5.102-0.421-14.521-0.03-15.961c0.48-1.681,1.05-2.011,2.01-1.141c0.78,0.75,2.79,4.561,2.79,5.37   c0.03,1.17,0.48,1.32,1.98,0.6c0.81-0.39,1.53-0.72,1.56-0.778c0.061-0.03-0.24-0.99-0.689-2.131   c-1.079-2.67-1.319-6.511-0.631-9.511c1.052-4.38,4.381-9.148,8.4-12c3.51-2.489,8.971-4.83,12.27-5.25l1.5-0.18l2.222-5.1   C576.93,433.53,578.37,428.16,578.01,423.66z M570.48,430.439c-1.2,4.381-5.341,8.011-10.41,9.029   c-6.66,1.352-11.4-5.04-9.42-12.658c0.869-3.392,3.81-8.371,6.24-10.621c3-2.789,6.81-3.721,9.479-2.341   C570.359,415.89,572.28,423.72,570.48,430.439z" style="stroke:black;fill:#BFDAE3"/><path id="180623552" parent_id="180608862" order="51" structure_id="1" d="M932.25,610.11   c-0.51,2.398-1.859,6.21-2.91,8.34c-3.18,6.33-6.359,9.54-15.33,15.479c-9.63,6.392-17.49,9.302-24.029,8.882   c-4.649-0.302-8.399-1.802-13.681-5.432c-8.31-5.76-11.069-6.72-18.148-6.33c-8.19,0.45-14.28,1.95-18.812,4.682   c-2.97,1.8-5.04,3.448-5.04,4.08c0,0.238,0.75,1.26,1.65,2.25c2.97,3.209,4.47,6.988,4.5,11.34c0,2.58-0.091,3.028-0.87,4.59   c-3.63,7.17-16.32,11.58-34.98,12.12c-9.448,0.27-19.438-0.66-25.02-2.341c-1.141-0.33-3.33-1.229-4.859-1.979   c-9.03-4.47-10.08-9.09-3.569-15.36c2.43-2.31,2.938-3.028,2.25-3.028c-0.181,0-2.461,0.539-5.041,1.17   c-8.67,2.188-16.439,3.448-23.489,3.81c-7.859,0.42-13.53-1.229-17.609-5.1c-4.591-4.352-5.189-10.17-1.591-15.45   c0.66-1.021,1.23-1.95,1.23-2.13c0-0.182-1.08-0.3-2.67-0.3c-3.871,0-6.36-0.57-12.392-2.882c-0.779-0.3-1.5-0.448-1.619-0.358   c-0.33,0.358,0.449,6.99,1.199,9.899c2.04,8.069,7.53,14.279,16.65,18.841c4.08,2.039,8.58,3.479,13.8,4.38   c7.47,1.26,11.94,2.939,20.19,7.53c6.6,3.659,9.27,4.68,16.528,6.238c7.5,1.62,12.45,2.07,22.41,2.07c9.84,0,13.351-0.3,20.55-1.8   c9.03-1.86,16.051-4.5,28.262-10.65c11.43-5.729,13.408-6.21,21.238-5.22c9.211,1.17,12.932,0.93,19.11-1.229   c13.649-4.739,28.47-14.729,40.949-27.541c5.221-5.34,11.189-12.959,10.561-13.47c-0.72-0.6-8.819-5.909-9-5.909   C932.52,609.3,932.34,609.66,932.25,610.11z" style="stroke:black;fill:#BFDAE3"/><path id="180623552" parent_id="180608862" order="52" structure_id="1" d="M661.68,482.16c-0.18-0.57-0.39-0.6-3.57-0.45c-4.02,0.21-6.719-0.39-10.5-2.37   c-8.788-4.59-15.538-17.34-16.318-30.84c-0.54-9.66,2.939-25.11,10.318-45.75c6.271-17.52,13.052-31.95,18.212-38.7   c0.6-0.78,1.079-1.59,1.079-1.77c0-0.21-1.021-0.33-2.939-0.36c-7.2-0.06-16.83-3.09-29.852-9.33c-2.578-1.26-4.77-2.22-4.858-2.13   s-0.24,2.01-0.33,4.32l-0.21,4.17l3.271,1.05c4.05,1.29,9.539,3.96,10.198,4.95c0.75,1.14,0.091,2.55-2.368,5.16   c-4.052,4.26-9.69,7.89-13.682,8.79c-3.18,0.75-8.818-0.182-17.58-2.881c-5.489-1.709-10.62-3.659-13.38-5.101   c-1.14-0.6-3.51-2.34-5.279-3.899c-3.33-2.881-4.171-3.359-3.899-2.159c1.229,5.37,1.438,7.89,0.688,9.659   c-0.93,2.221-3.028,2.851-5.52,1.619c-4.32-2.188-6.48-6.3-6.421-12.42c0-5.01,1.381-7.02,4.471-6.6   c1.26,0.18,1.29,0.148,1.29-0.72c0-0.75-0.12-0.9-0.75-0.9c-1.439,0-5.341-0.93-7.62-1.83c-4.05-1.62-8.16-4.62-10.08-7.41   c-0.6-0.84-0.78-0.84-3.898,0.09c-3.553,1.037-8.645,1.777-12.15,1.798v16.686c3.65,0.012,7.343,0.396,11.4,1.198   c6.148,1.229,10.618,3,16.02,6.33c4.77,2.938,6.96,5.31,7.32,7.92c0.21,1.38,0.27,1.438,1.41,1.68   c2.039,0.42,7.049,3.09,9.898,5.25c1.5,1.14,3.54,3.09,4.591,4.32c3.029,3.568,5.459,9.12,5.459,12.45   c0,1.02,0.211,1.528,1.2,2.698c2.91,3.54,4.352,7.65,4.141,11.972c-0.24,4.8-2.221,8.43-6.539,11.938   c-5.882,4.8-12.33,7.41-18.182,7.41c-1.05,0-1.92,0.12-1.92,0.3c0,0.15-0.87,2.28-1.95,4.71c-1.08,2.431-1.92,4.562-1.858,4.74   c0.09,0.15,0.75,0.479,1.47,0.66c2.101,0.569,5.521,3.21,7.771,6.028c2.221,2.762,4.949,7.771,6.09,11.222   c2.039,6.09,0.99,11.7-3.211,16.77c-5.369,6.48-13.619,9.841-21.959,8.91c-1.59-0.149-2.971-0.24-3.029-0.149   c-0.09,0.091,0.06,1.261,0.3,2.609c0.63,3.24,0.63,8.73,0,11.49c-0.63,2.82-2.01,5.37-3.688,6.87c-2.16,1.89-3.48,2.46-5.642,2.43   c-1.83-0.028-2.22,0.181-1.649,0.96c0.12,0.182,0.75,0.48,1.409,0.69c2.791,0.81,5.041,3.96,6.062,8.46   c0.39,1.738,0.51,3.81,0.51,9c0.029,6.21-0.029,6.93-0.66,8.91c-0.75,2.398-2.46,4.59-3.6,4.59c-0.75,0-0.66-0.3-1.562,5.55   c-0.39,2.312-0.868,4.95-1.108,5.85c-0.99,3.69,0.39,15.87,2.34,20.4c0.54,1.229,0.779,1.438,2.97,2.46   c2.88,1.38,3.091,1.38,2.88,0.3c-1.05-4.92-1.648-15.81-1.109-20.01c0.869-6.54,2.431-10.08,4.771-10.8   c0.392-0.12,1.38-0.03,2.19,0.148c0.84,0.211,1.59,0.302,1.68,0.211s-0.33-1.291-0.898-2.671c-1.892-4.438-1.771-6.51,0.51-8.79   c1.83-1.8,3.99-2.488,6.569-2.039c1.021,0.181,2.609,0.601,3.539,0.959c2.011,0.75,14.16,7.5,20.67,11.49   c4.83,2.94,7.32,3.93,10.591,4.29l1.711,0.181v-1.17c0-2.521,2.398-8.041,7.318-16.801c5.73-10.26,9.811-16.05,14.88-21.06   c3.78-3.78,5.82-5.011,10.562-6.54l3.51-1.11l1.08-2.58c0.57-1.409,2.16-4.38,3.48-6.6c4.89-8.16,9.448-13.681,12.568-15.271   C661.98,482.76,661.891,482.85,661.68,482.16z M612.3,515.22c-3.899,5.97-10.649,11.67-18,15.15c-5.19,2.46-9,3.12-13.38,2.34   c-4.62-0.84-8.4-2.82-11.67-6.09c-3.689-3.69-5.16-7.38-4.859-12.24c0.51-7.83,5.641-17.01,11.25-20.069   c2.521-1.381,8.189-2.761,13.709-3.33c2.25-0.239,9.03,0.119,11.521,0.569C614.85,494.22,619.59,504.03,612.3,515.22z" style="stroke:black;fill:#BFDAE3"/><path id="180623552" parent_id="180608862" order="53" structure_id="1" d="M558.03,380.939c-1.352-1.681-7.021-3.659-13.14-4.591c-1.767-0.254-3.341-0.381-4.892-0.392v6.452   c3.045,0,6.075,0.27,9.66,0.81c2.909,0.42,5.819,0.78,6.448,0.78C558.33,384,559.26,382.53,558.03,380.939z" style="stroke:black;fill:#BFDAE3"/><path id="180623552" parent_id="180608862" order="54" structure_id="1" d="M712.65,501.48   c-3.45,0.72-10.291,2.188-15.15,3.27c-4.891,1.08-9.15,1.95-9.48,1.95s-0.93,0.36-1.35,0.78c-1.17,1.26-4.26,3.238-15.689,10.02   c-14.399,8.52-17.431,10.47-30.391,19.62c-14.34,10.11-20.46,14.64-20.46,15.149c-0.03,0.301,0.24,0.359,1.11,0.211   c1.35-0.211,19.08-5.521,25.65-7.682c3-0.96,5.038-1.5,5.459-1.38c0.569,0.15,1.619-0.45,5.041-2.88   c2.368-1.71,6.18-4.38,8.488-5.94c16.95-11.64,19.92-13.5,26.432-16.68c2.158-1.05,4.26-1.92,4.68-1.92s0.81-0.12,0.869-0.3   c0.121-0.36,4.681-1.95,7.891-2.73c3.689-0.87,8.52-1.26,11.79-0.87l2.76,0.302l1.2-0.87c0.63-0.45,1.59-1.021,2.1-1.23   c0.48-0.21,0.9-0.479,0.9-0.6c0-0.15-0.54-1.23-1.17-2.46c-1.26-2.34-2.13-4.92-2.13-6.301c0-0.779-0.091-0.841-1.11-0.811   C719.46,500.13,716.13,500.73,712.65,501.48z" style="stroke:black;fill:#BFDAE3"/><path id="180623552" parent_id="180608862" order="55" structure_id="1" d="M567.18,605.4c-9.146-4.64-18.983-7.284-27.18-7.392v3.843c1.596-0.031,2.72,0.12,5.16,0.668   c11.43,2.609,25.229,8.939,32.13,14.761c3.09,2.608,5.25,5.85,5.76,8.58c0.45,2.43,1.771,0.39,1.74-2.7   C584.76,617.91,577.59,610.68,567.18,605.4z" style="stroke:black;fill:#BFDAE3"/><path id="180623552" parent_id="180608862" order="56" structure_id="1" d="M718.95,489.63   c-0.48,0.15-4.47,1.021-8.851,1.92c-4.381,0.9-9.569,1.98-11.551,2.4c-1.979,0.39-4.109,0.75-4.71,0.75   c-1.021,0-1.14,0.09-1.14,0.75c0,2.34-2.37,8.46-3.78,9.78c-0.688,0.63-0.96,1.47-0.51,1.47c0.12,0,3.93-0.812,8.489-1.83   c4.529-0.99,11.761-2.55,16.051-3.42l7.77-1.59l0.061-3.091c0.061-1.709,0.24-3.841,0.391-4.739c0.51-2.49,0.45-2.73-0.48-2.7   C720.21,489.33,719.46,489.48,718.95,489.63z" style="stroke:black;fill:#BFDAE3"/><path id="180623552" parent_id="180608862" order="57" structure_id="1" d="M767.1,481.68   c-4.56,1.562-8.16,2.28-11.58,2.34l-2.608,0.03l-1.142,1.65c-0.629,0.898-1.5,2.58-1.92,3.72c-0.898,2.4-1.35,5.58-0.778,5.58   c0.21,0,1.02,0.66,1.829,1.47c2.16,2.16,2.58,3.87,2.101,8.102c-0.21,1.77-0.3,3.72-0.18,4.318c0.21,1.142,1.948,3.21,2.67,3.21   c0.21,0,2.01-3.27,4.02-7.289c3.062-6.091,4.351-8.25,8.011-13.561l4.381-6.3v-2.34c0-2.012-0.062-2.312-0.51-2.28   C771.09,480.36,769.17,480.96,767.1,481.68z" style="stroke:black;fill:#BFDAE3"/><path id="180623552" parent_id="180608862" order="58" structure_id="1" d="M724.74,481.41c-2.7,5.7-3.66,9.81-3.69,15.688   c0,3.69,0.091,4.682,0.66,6.45c0.931,2.88,2.55,5.7,3.271,5.7c0.359,0,1.261-0.99,2.58-2.82c2.58-3.63,3.359-4.409,6.931-7.108   c4.83-3.66,9.39-5.521,12.51-5.102c1.53,0.21,1.8,0,1.8-1.408c0.03-1.11,1.41-4.712,2.551-6.541   c1.17-1.891,1.319-2.671,0.541-2.671c-1.052-0.028-3.121-1.198-4.682-2.67l-1.59-1.5l-2.67,0.48c-3.45,0.6-9.092,0.358-12.9-0.54   c-1.47-0.33-2.97-0.69-3.3-0.78C726.21,478.47,725.91,478.89,724.74,481.41z" style="stroke:black;fill:#BFDAE3"/><path id="180623552" parent_id="180608862" order="59" structure_id="1" d="M715.98,424.74   c-4.892,0.99-4.381,0.358-5.16,6.21c-0.392,2.79-0.45,5.01-0.33,9.898c0.18,6.69,0.51,9.48,1.979,16.95   c1.29,6.48,1.41,7.98,0.812,9.42c-0.271,0.63-0.48,1.32-0.48,1.53c0,0.84,15.24,6.87,19.56,7.771c2.91,0.601,8.4,0.601,11.16,0.029   c3.66-0.779,8.102-3.27,10.711-6.06c4.5-4.71,7.17-14.58,7.17-26.37c0-5.07-0.51-8.19-2.01-11.852l-1.051-2.64l-1.98-0.45   c-2.278-0.51-5.938-1.08-12.658-1.979c-2.551-0.36-7.021-1.17-9.9-1.83c-4.38-1.021-5.939-1.23-9.45-1.32   C720.63,423.93,719.67,424.02,715.98,424.74z" style="stroke:black;fill:#BFDAE3"/><path id="180623552" parent_id="180608862" order="60" structure_id="1" d="M720.45,276.3   c-5.25,0.57-10.89,2.16-14.521,4.08c-5.489,2.88-15.6,11.37-21.21,17.76c-3.029,3.45-5.25,8.4-5.699,12.72   c-0.181,1.738-0.119,2.159,0.601,3.72c1.71,3.72,5.819,8.13,9.569,10.29c1.351,0.75,2.341,1.02,5.791,1.53   c8.55,1.229,16.528,3.119,21.238,4.979c1.5,0.602,6.78,3.03,11.73,5.37c5.279,2.521,10.8,4.89,13.408,5.79   c20.4,7.05,28.892,14.55,34.98,30.96c4.561,12.3,7.471,23.76,8.641,33.899c0.869,7.561,0.359,15.359-2.58,38.699   c-0.659,5.19-1.381,12.271-1.649,15.69c-0.84,11.58-1.351,12.78-12.45,28.86c-4.648,6.778-5.52,8.22-8.85,15   c-2.04,4.108-4.2,8.85-4.801,10.5c-1.979,5.55-3.869,8.818-12.149,21.3c-15.42,23.188-18.24,27.03-30.09,41.04l-4.771,5.64   l0.391,1.47c0.449,1.801,0.688,1.83,3.238,0.57c2.131-1.08,1.892-0.811,14.82-15.93c13.2-15.392,15.93-18.931,31.17-40.29   c7.561-10.562,16.11-22.32,19.021-26.102c2.908-3.81,6.209-8.188,7.318-9.75c2.881-4.02,10.141-15.688,11.102-17.85   c1.8-4.021,2.46-8.67,3.3-23.7c1.83-32.55-0.33-50.91-8.22-70.62c-4.32-10.71-12.99-27.479-18.9-36.479   c-3.09-4.682-5.311-7.352-9.78-11.641c-6.81-6.569-18.63-16.711-19.47-16.711c-1.319,0,0.811,4.711,5.761,12.66   c1.859,3.03,3.569,5.79,3.779,6.181c0.36,0.659,0.33,0.689-0.21,0.391c-0.811-0.42-8.852-6.33-15.21-11.13   c-7.65-5.79-13.142-8.49-21.63-10.65c-5.762-1.5-10.051-1.979-16.471-1.89c-5.01,0.09-5.49,0.028-6.811-0.57   c-1.68-0.779-2.641-2.16-2.641-3.81c0-1.62,1.141-2.58,5.851-4.98c2.13-1.08,8.19-4.35,13.47-7.29   c5.311-2.91,10.291-5.52,11.07-5.76c2.07-0.6,2.971-0.15,6.15,3.09c2.188,2.25,2.819,2.73,4.02,3.03   c3.391,0.81,5.85,0.33,11.49-2.311c3.09-1.439,3.811-1.68,5.4-1.68c2.489,0,3.898,0.72,11.549,5.85   c4.86,3.27,7.979,5.07,12.601,7.38c10.17,5.07,11.19,5.82,22.53,17.16c12.63,12.631,12.6,12.602,12.899,14.312   c0.3,1.649-0.09,2.58-1.711,3.989c-1.14,1.021-1.229,1.021-3.479,0.449c-0.63-0.148-0.841-0.09-0.841,0.271   c0,0.24,1.201,2.25,2.641,4.439c3.18,4.801,5.7,9,7.801,12.899c0.869,1.62,1.771,3,2.039,3.09c1.98,0.75,3.961-0.45,4.65-2.85   c0.57-1.92,0.479-8.761-0.15-12.72c-0.689-4.262-2.31-11.07-3.33-13.95c-3.539-9.87-11.85-20.13-24.39-30.15   c-15.841-12.63-37.38-22.83-54.479-25.8C730.68,276.18,723.66,275.94,720.45,276.3z" style="stroke:black;fill:#BFDAE3"/><path id="180623552" parent_id="180608862" order="61" structure_id="1" d="M809.85,635.28   c-8.52,0.87-13.5,1.77-17.938,3.3c-4.142,1.41-11.37,5.01-15.21,7.56c-10.381,6.87-12.33,12.69-5.82,17.341   c4.08,2.909,9.21,4.709,16.439,5.761c5.311,0.75,23.07,0.72,28.229-0.03c13.47-2.01,21.12-5.609,23.88-11.16   c0.812-1.68,0.961-2.279,0.961-4.26c0-4.68-1.711-8.939-4.859-12.09c-3-2.971-6.9-4.771-12.631-5.852   C820.41,635.4,812.25,635.04,809.85,635.28z" style="stroke:black;fill:#BFDAE3"/><path id="180623552" parent_id="180608862" order="62" structure_id="1" d="M821.04,614.7   c-1.26,0.75-12.42,5.04-18.24,7.02c-7.409,2.55-13.59,4.32-18.75,5.4c-8.79,1.83-14.04,2.43-16.8,1.95   c-1.77-0.301-1.95-0.271-3.45,0.479c-5.159,2.61-10.95,6.63-14.46,9.99c-4.109,3.96-6.24,7.86-6.24,11.37v1.38l3.541-0.21   c6.811-0.392,16.979-2.22,25.409-4.562c3.271-0.898,4.44-1.408,7.14-3.06c10.32-6.21,20.041-8.91,33.211-9.271   c7.141-0.181,10.709,0.239,14.939,1.711c1.44,0.51,2.85,0.988,3.15,1.08c0.96,0.33,0.54-0.78-0.93-2.521   c-1.771-2.1-2.222-2.79-3.182-5.07c-1.35-3.238-3.18-11.729-3.18-14.88c0-1.02-0.061-1.108-0.811-1.108   C821.91,614.4,821.311,614.55,821.04,614.7z" style="stroke:black;fill:#BFDAE3"/><path id="180623552" parent_id="180608862" order="63" structure_id="1" d="M783.9,603.93   c-15.48,3.66-25.291,7.051-36.33,12.602c-12.48,6.238-20.19,11.88-22.68,16.62c-2.552,4.858-1.531,10.528,2.578,14.31   c3.12,2.852,8.37,4.74,13.172,4.74h2.068l0.21-1.65c0.812-7.08,6.66-13.02,20.7-20.97c1.29-0.75,1.439-0.93,1.26-1.68   c-0.359-1.86,2.61-3.12,13.74-5.7c8.64-2.012,11.398-2.82,22.68-6.57c12.12-4.05,20.7-7.229,20.7-7.71c0-0.24-2.04-0.39-7.41-0.51   c-10.59-0.21-17.1-1.29-22.229-3.66c-1.229-0.57-2.521-1.05-2.879-1.021C789.12,602.73,786.63,603.27,783.9,603.93z" style="stroke:black;fill:#BFDAE3"/><path id="180623552" parent_id="180608862" order="64" structure_id="1" d="M858.84,594.9   c-7.59,4.92-23.31,13.438-31.89,17.25c-1.8,0.81-3.42,1.56-3.57,1.68c-0.42,0.359,0.63,7.98,1.62,11.88   c1.2,4.74,2.73,7.71,5.73,11.101c1.318,1.529,2.58,2.789,2.729,2.789s1.38-0.81,2.7-1.8c6.09-4.59,14.01-6.898,23.729-6.898   c5.851,0,8.311,0.898,15.029,5.52c6.27,4.29,9.12,5.55,13.891,6.15c7.859,0.989,18-3.15,30.659-12.511   c5.91-4.381,9.841-9.961,11.88-17.011c1.2-4.14,1.17-4.229-1.56-6.06c-7.83-5.19-15.181-6.45-29.34-5.04   c-6.33,0.63-12.72,0.479-17.102-0.45c-6.18-1.29-13.83-4.38-18.868-7.62c-0.932-0.6-1.86-1.08-2.07-1.08   C862.23,592.8,860.609,593.76,858.84,594.9z" style="stroke:black;fill:#BFDAE3"/><path id="180623552" parent_id="180608862" order="65" structure_id="1" d="M582.75,624.72c-2.01-6.81-14.16-14.85-30.45-20.188c-5.137-1.684-9.172-2.561-12.3-2.678v42.699   c6.031,0.009,12.02-0.893,18.75-2.731c10.17-2.79,18.061-6.87,22.5-11.552C583.41,627.96,583.561,627.42,582.75,624.72z" style="stroke:black;fill:#BFDAE3"/><path id="180623552" parent_id="180608862" order="66" structure_id="1" d="M899.4,510.21   c-0.51,13.08-0.602,14.22-1.32,17.97c-2.88,14.67-11.79,37.23-18.93,47.972c-3.722,5.64-8.91,10.948-14.34,14.729   c-0.932,0.63-1.711,1.38-1.711,1.65c0,0.568,3.659,2.79,7.891,4.77c5.82,2.73,12.479,4.44,19.26,4.95c1.859,0.15,5.01,0,10.2-0.45   c14.729-1.318,21.569-0.148,28.95,4.891c1.47,1.021,4.74,3.271,7.229,4.979c2.49,1.71,4.771,3.18,5.07,3.24   c0.63,0.15,2.25-2.37,5.43-8.46c7.71-14.761,13.65-34.53,16.95-56.4c1.68-11.16,0.96-20.398-2.46-31.35   c-0.602-1.89-1.17-3.54-1.29-3.66c-0.21-0.24-57.479-5.04-59.79-5.04C899.91,510,899.4,510.09,899.4,510.21z" style="stroke:black;fill:#BFDAE3"/><path id="180623552" parent_id="180608862" order="67" structure_id="1" d="M702.75,236.88   c-5.13,0.9-10.47,2.97-13.23,5.16c-3.119,2.46-4.83,7.98-6.568,21.21c-0.9,6.75-1.38,8.97-3.182,14.13   c-2.159,6.3-4.619,11.67-6.028,13.2c-0.57,0.63-0.57,0.72-0.091,3.3c0.271,1.47,0.689,3.42,0.959,4.32   c0.632,2.31,2.222,5.7,2.642,5.7c0.24,0,0.42-0.75,0.54-2.04c0.42-5.22,4.2-12.09,10.8-19.68c3.812-4.41,18.392-18.42,20.4-19.649   c3.3-1.95,5.159-2.55,8.64-2.67c6.479-0.24,14.521,2.25,30.69,9.6c17.188,7.8,28.739,13.95,38.43,20.46   c12.062,8.13,18.75,15.45,30.09,32.91c6.03,9.3,8.16,12.93,11.312,19.32c3.479,7.079,6,13.47,9.449,23.818   c5.431,16.44,6.931,25.591,8.25,50.28c0.811,15.3,1.739,20.311,5.521,29.82c3.989,9.99,6.03,16.5,7.14,22.979   c0.78,4.59,0.69,12.96-0.18,18.12c-2.01,11.76-5.971,23.16-10.32,29.55c-2.64,3.932-7.949,8.25-12.93,10.562   c-2.311,1.05-6.27,2.22-7.561,2.22c-0.479,0-1.379,0.87-3.301,3.21c-6.869,8.34-15.148,15.271-27.06,22.71   c-8.94,5.55-32.46,19.08-50.25,28.891c-9.722,5.341-12.062,6.811-16.41,10.319c-7.92,6.36-16.858,16.83-18.569,21.84   c-0.931,2.7-1.529,5.79-1.529,7.83v1.74l2.729,1.08c4.2,1.68,7.08,2.28,11.102,2.28h3.449l0.899-0.932   c3.358-3.54,15.149-10.56,25.021-14.908c11.221-4.95,21.659-8.041,40.199-11.882c19.98-4.14,30.061-7.35,41.762-13.26   c15.75-8.01,23.22-15.18,32.25-31.02c6.988-12.212,10.799-24.45,13.14-42.15c2.34-17.88,2.7-28.438,1.5-46.5   c-0.96-13.979-2.04-22.562-3.601-27.9c-0.569-1.979-2.25-8.608-3.721-14.698c-1.5-6.12-4.529-18.33-6.75-27.15   c-4.29-16.98-7.29-29.85-8.279-35.49c-1.771-10.08-5.279-19.68-12.33-33.81c-7.771-15.48-14.431-25.021-24.689-35.25   c-13.17-13.14-26.46-22.38-46.68-32.49c-27.812-13.92-48.9-22.71-59.971-24.96C712.891,236.28,706.5,236.22,702.75,236.88z" style="stroke:black;fill:#BFDAE3"/><path id="180623552" parent_id="180608862" order="68" structure_id="1" d="M829.77,427.17   c-0.539,0.45-0.688,0.84-0.659,1.86c0,0.72,0.12,4.62,0.239,8.67c0.36,12.239-0.63,19.979-4.5,35.25   c-6.63,26.069-9.84,32.61-24.479,49.71c-8.761,10.229-20.432,21.66-35.37,34.59c-18.87,16.35-35.67,30.21-42.899,35.37   c-2.459,1.771-3.029,2.34-4.261,4.319c-1.02,1.649-1.438,2.641-1.438,3.421c0,2.13-2.01,6.54-3.722,8.159   c-0.6,0.569-0.659,0.869-0.538,2.939c0.09,1.5,0.238,2.34,0.479,2.34c0.18,0,1.2-1.229,2.25-2.729   c5.43-7.682,13.648-15.66,21.359-20.73c1.379-0.899,5.551-3.3,9.271-5.34c13.53-7.41,41.399-23.34,49.92-28.561   c9.722-5.971,16.11-10.771,22.021-16.561c6-5.88,10.649-11.7,17.311-21.779c7.439-11.279,11.28-19.439,13.8-29.279   c1.62-6.45,2.101-9.84,2.07-15.42c-0.03-5.49-0.33-7.32-2.07-12.54c-1.89-5.671-9.06-22.472-12.18-28.591   C833.76,427.14,831.72,425.58,829.77,427.17z" style="stroke:black;fill:#BFDAE3"/><path id="180623552" parent_id="180608862" order="69" structure_id="1" d="M722.73,398.55   c-3.69,0.84-6.812,2.07-8.4,3.36l-0.721,0.6l0.989,2.01c1.86,3.75,1.591,8.012-0.93,15.541c-0.812,2.399-1.47,4.529-1.47,4.709   c0,0.48,1.35,0.42,4.529-0.238c6.029-1.23,8.971-1.11,17.101,0.72c2.55,0.6,6.66,1.35,9.12,1.68c4.29,0.57,12.27,1.86,14.04,2.25   c0.659,0.15,0.81,0.091,0.81-0.358c0-0.812-3.54-7.142-6.148-11.07c-5.82-8.73-11.28-14.25-17.972-18.24l-2.13-1.26l-3.45-0.061   C725.939,398.13,723.93,398.28,722.73,398.55z" style="stroke:black;fill:#BFDAE3"/><path id="180623552" parent_id="180608862" order="70" structure_id="1" d="M729.9,342.99c0,0.24,0.358,1.41,0.778,2.64   c1.171,3.45,3.03,10.86,3.602,14.521c0.39,2.608,0.51,5.698,0.569,14.85c0.061,12.601,0.359,15.75,1.801,19.29   c0.81,2.07,1.229,2.49,5.16,5.01c1.618,1.08,3.539,2.67,4.738,3.99c2.7,2.88,7.41,9.21,10.051,13.439   c2.131,3.391,6.601,12.061,6.601,12.779c0,2.58,9.54-7.529,13.08-13.89c0.63-1.11,1.47-2.91,1.86-3.99   c0.688-1.86,0.719-2.31,0.688-7.89c-0.062-6.84-0.63-11.46-2.28-18.09c-2.1-8.552-5.52-17.012-9-22.23   c-2.04-3.06-5.279-6.359-8.279-8.43c-2.88-1.98-9.391-5.37-13.709-7.142c-3.632-1.47-14.58-5.25-15.271-5.25   C730.08,342.6,729.9,342.78,729.9,342.99z" style="stroke:black;fill:#BFDAE3"/><path id="180623552" parent_id="180608862" order="71" structure_id="1" d="M725.28,352.71   c-4.62,13.47-10.44,18.75-20.73,18.78c-4.77,0.029-8.909-1.26-12.3-3.84c-1.41-1.08-1.95-1.29-1.95-0.722   c0,0.722,3.42,10.382,4.05,11.552c0.99,1.68,4.5,4.92,6.961,6.39c3.899,2.31,7.739,3.63,14.55,4.979   c2.069,0.392,6.061,1.44,8.851,2.28c6.03,1.86,6.69,1.98,6.69,1.41c0-0.24-0.212-1.8-0.45-3.479   c-0.54-3.57-1.05-14.041-1.05-21.812c0-3.33-0.182-6.479-0.45-8.25c-0.69-4.351-2.28-10.5-2.7-10.5   C726.54,349.5,725.88,350.939,725.28,352.71z" style="stroke:black;fill:#BFDAE3"/><path id="180623552" parent_id="180608862" order="72" structure_id="1" d="M694.59,380.91c0.09,0.63,0.45,2.55,0.78,4.29   c1.17,6.239,1.53,13.95,0.93,19.648c-0.148,1.472-0.479,4.98-0.75,7.802c-0.72,8.068-1.648,12.869-3.3,17.25   c-0.391,1.08-1.83,5.13-3.18,9c-5.221,15.06-9.33,24-14.25,31.14c-0.721,1.05-1.32,2.01-1.32,2.16c0,0.42,0.96,0.359,5.46-0.3   c7.771-1.142,18.21-2.19,25.681-2.58c4.351-0.21,4.409-0.271,3.359-1.98c-0.33-0.54-0.6-1.17-0.6-1.38s-0.271-0.66-0.602-1.021   c-2.31-2.489-5.1-18.301-5.1-28.709c0.03-7.921,2.7-18.69,6.659-26.671c2.791-5.609,5.431-8.159,10.471-9.989   c2.64-0.96,6.75-1.771,9-1.771c2.188,0,1.859-0.568-1.141-2.068c-1.47-0.69-4.47-2.28-6.72-3.48   c-3.239-1.77-4.681-2.34-7.201-2.939c-7.35-1.771-12.51-4.351-16.108-8.011C694.859,379.47,694.35,379.38,694.59,380.91z" style="stroke:black;fill:#BFDAE3"/><path id="180623552" parent_id="180608862" order="73" structure_id="1" d="M745.59,312.061   c-0.87,0.149-1.59,0.449-1.59,0.659c0,0.182,0.93,0.602,2.07,0.87c4.108,1.08,11.82,5.4,17.279,9.75   c1.17,0.93,3.811,3.3,5.881,5.28c2.1,2.01,4.979,4.71,6.448,6.03c6,5.46,12.78,15.63,19.711,29.55   c3.899,7.77,5.819,12.3,8.011,18.898c2.938,8.7,4.948,17.4,6.869,29.7c2.189,14.04,2.881,21.99,2.881,33.3   c-0.03,8.16-0.09,9.57-0.69,12.99c-2.28,12.63-6.87,25.5-12.51,34.892c-6.72,11.13-27.811,38.55-41.311,53.67   c-4.381,4.92-10.859,11.278-19.439,19.108c-9.181,8.34-11.311,10.08-15.63,12.69c-3.211,1.949-4.26,2.76-5.551,4.318   c-2.13,2.552-3.689,5.58-4.051,7.92c-0.54,3.36,0.15,4.682,2.342,4.262c2.67-0.48,13.35-8.73,34.438-26.58   c26.28-22.23,38.13-33.391,49.2-46.32c15.148-17.7,18.359-24.27,25.17-51.6c4.529-18.21,5.16-27.75,3.148-47.852   c-1.47-14.91-2.52-19.438-9.449-41.1c-4.229-13.17-7.529-20.79-12.721-29.4c-5.818-9.688-7.89-12.42-12.358-16.41   c-8.16-7.229-15.181-12.39-23.011-16.89C759.061,313.11,751.92,310.89,745.59,312.061z" style="stroke:black;fill:#BFDAE3"/><path id="180623552" parent_id="180608862" order="74" structure_id="1" d="M745.59,312.061   c-0.87,0.149-1.59,0.449-1.59,0.659c0,0.182,0.93,0.602,2.07,0.87c4.108,1.08,11.82,5.4,17.279,9.75   c1.17,0.93,3.811,3.3,5.881,5.28c2.1,2.01,4.979,4.71,6.448,6.03c6,5.46,12.78,15.63,19.711,29.55   c3.899,7.77,5.819,12.3,8.011,18.898c2.938,8.7,4.948,17.4,6.869,29.7c2.189,14.04,2.881,21.99,2.881,33.3   c-0.03,8.16-0.09,9.57-0.69,12.99c-2.28,12.63-6.87,25.5-12.51,34.892c-6.72,11.13-27.811,38.55-41.311,53.67   c-4.381,4.92-10.859,11.278-19.439,19.108c-9.181,8.34-11.311,10.08-15.63,12.69c-3.211,1.949-4.26,2.76-5.551,4.318   c-2.13,2.552-3.689,5.58-4.051,7.92c-0.54,3.36,0.15,4.682,2.342,4.262c2.67-0.48,13.35-8.73,34.438-26.58   c26.28-22.23,38.13-33.391,49.2-46.32c15.148-17.7,18.359-24.27,25.17-51.6c4.529-18.21,5.16-27.75,3.148-47.852   c-1.47-14.91-2.52-19.438-9.449-41.1c-4.229-13.17-7.529-20.79-12.721-29.4c-5.818-9.688-7.89-12.42-12.358-16.41   c-8.16-7.229-15.181-12.39-23.011-16.89C759.061,313.11,751.92,310.89,745.59,312.061z" style="stroke:black;fill:#BFDAE3"/><path id="180623552" parent_id="180608862" order="75" structure_id="1" d="M776.939,414.27   c-1.859,3.87-5.25,8.37-9.601,12.78l-3.569,3.602l0.84,3.148c0.781,2.94,0.841,3.54,0.811,8.852c0,4.89-0.12,6.27-0.811,9.75   c-2.01,10.318-4.949,17.038-9.391,21.448c-2.1,2.102-5.279,4.08-7.979,4.95c-0.631,0.181-1.141,0.511-1.141,0.72   c0,0.541,2.069,2.432,3.42,3.15c3.84,2.01,10.739,1.44,19.199-1.59c1.62-0.57,3-1.11,3.062-1.17c0.06-0.062,0.39-1.53,0.72-3.271   c0.33-1.77,1.35-5.88,2.25-9.18c1.859-6.75,2.04-8.16,3.87-28.26c1.47-16.141,1.47-16.41,1.08-21.75   c-0.39-5.521-0.48-6.15-0.99-6.12C778.53,411.33,777.72,412.65,776.939,414.27z" style="stroke:black;fill:#BFDAE3"/><path id="180623552" parent_id="180608862" order="76" structure_id="1" d="M549.78,575.939c-0.9-3.391-1.261-5.851-1.771-11.971c-0.33-3.898-0.51-4.83-1.05-5.58   c-1.027-1.446-4.163-2.545-6.96-2.65v21.834c2.479,0.014,4.97,0.479,7.771,1.428c2.131,0.72,2.729,0.75,2.729,0.18   C550.5,578.939,550.17,577.5,549.78,575.939z" style="stroke:black;fill:#BFDAE3"/><path id="180623552" parent_id="180608862" order="77" structure_id="1" d="M901.08,479.46   c-0.09,1.38-0.33,5.19-0.48,8.49c-0.18,3.3-0.51,9.51-0.75,13.77c-0.239,4.29-0.42,7.83-0.358,7.86   c0.09,0.12,58.528,4.92,59.698,4.92c0.48,0,0.812-0.15,0.812-0.42c0-0.21-0.96-2.82-2.13-5.76c-2.94-7.352-3.15-8.19-2.521-10.11   c0.271-0.81,1.051-2.37,1.711-3.479c3.931-6.329,5.641-9.239,5.641-9.689c0-0.36-0.33-0.57-0.96-0.69   c-2.132-0.358-58.771-7.35-59.61-7.35h-0.87L901.08,479.46z" style="stroke:black;fill:#BFDAE3"/><path id="180623552" parent_id="180608862" order="78" structure_id="1" d="M901.98,457.26   c-0.121,2.852-0.33,8.34-0.512,12.21c-0.148,3.841-0.27,7.05-0.21,7.08c0.12,0.15,60.392,7.65,61.29,7.65   c0.721,0,0.96-0.36,2.37-3.391c0.87-1.829,2.25-5.04,3.03-7.109c2.22-5.88,4.71-16.5,3.869-16.5c-0.149,0-15.721-1.141-34.59-2.55   c-18.871-1.41-34.471-2.552-34.681-2.552C902.25,452.1,902.13,453.42,901.98,457.26z" style="stroke:black;fill:#BFDAE3"/><path id="180623552" parent_id="180608862" order="79" structure_id="1" d="M902.311,438.78   c-0.091,7.08-0.091,12.93-0.029,12.989c0.148,0.181,66.27,5.101,68.398,5.131c1.86,0,1.65,0.479,2.49-6   c0.78-6,1.471-13.65,1.71-19.53l0.21-4.681l-28.02-0.209c-15.42-0.092-31.74-0.271-36.301-0.36l-8.279-0.21L902.311,438.78z" style="stroke:black;fill:#BFDAE3"/><path id="180623552" parent_id="180608862" order="80" structure_id="1" d="M937.5,393.36   c-19.71,1.8-35.88,3.329-35.939,3.39c-0.061,0.03,0.061,2.49,0.209,5.43c0.182,2.972,0.42,9.45,0.512,14.432l0.21,9.06l2.13,0.18   c2.34,0.182,70.14,0.69,70.38,0.512c0.33-0.24,0.33-14.4,0.03-22.5c-0.512-12.45-0.631-13.86-1.2-13.83   C973.561,390.061,957.21,391.561,937.5,393.36z" style="stroke:black;fill:#BFDAE3"/><path id="180623552" parent_id="180608862" order="81" structure_id="1" d="M702.75,236.88   c-5.13,0.9-10.47,2.97-13.23,5.16c-3.119,2.46-4.83,7.98-6.568,21.21c-0.9,6.75-1.38,8.97-3.182,14.13   c-2.159,6.3-4.619,11.67-6.028,13.2c-0.57,0.63-0.57,0.72-0.091,3.3c0.271,1.47,0.689,3.42,0.959,4.32   c0.632,2.31,2.222,5.7,2.642,5.7c0.24,0,0.42-0.75,0.54-2.04c0.42-5.22,4.2-12.09,10.8-19.68c3.812-4.41,18.392-18.42,20.4-19.649   c3.3-1.95,5.159-2.55,8.64-2.67c6.479-0.24,14.521,2.25,30.69,9.6c17.188,7.8,28.739,13.95,38.43,20.46   c12.062,8.13,18.75,15.45,30.09,32.91c6.03,9.3,8.16,12.93,11.312,19.32c3.479,7.079,6,13.47,9.449,23.818   c5.431,16.44,6.931,25.591,8.25,50.28c0.811,15.3,1.739,20.311,5.521,29.82c3.989,9.99,6.03,16.5,7.14,22.979   c0.78,4.59,0.69,12.96-0.18,18.12c-2.01,11.76-5.971,23.16-10.32,29.55c-2.64,3.932-7.949,8.25-12.93,10.562   c-2.311,1.05-6.27,2.22-7.561,2.22c-0.479,0-1.379,0.87-3.301,3.21c-6.869,8.34-15.148,15.271-27.06,22.71   c-8.94,5.55-32.46,19.08-50.25,28.891c-9.722,5.341-12.062,6.811-16.41,10.319c-7.92,6.36-16.858,16.83-18.569,21.84   c-0.931,2.7-1.529,5.79-1.529,7.83v1.74l2.729,1.08c4.2,1.68,7.08,2.28,11.102,2.28h3.449l0.899-0.932   c3.358-3.54,15.149-10.56,25.021-14.908c11.221-4.95,21.659-8.041,40.199-11.882c19.98-4.14,30.061-7.35,41.762-13.26   c15.75-8.01,23.22-15.18,32.25-31.02c6.988-12.212,10.799-24.45,13.14-42.15c2.34-17.88,2.7-28.438,1.5-46.5   c-0.96-13.979-2.04-22.562-3.601-27.9c-0.569-1.979-2.25-8.608-3.721-14.698c-1.5-6.12-4.529-18.33-6.75-27.15   c-4.29-16.98-7.29-29.85-8.279-35.49c-1.771-10.08-5.279-19.68-12.33-33.81c-7.771-15.48-14.431-25.021-24.689-35.25   c-13.17-13.14-26.46-22.38-46.68-32.49c-27.812-13.92-48.9-22.71-59.971-24.96C712.891,236.28,706.5,236.22,702.75,236.88z" style="stroke:black;fill:#BFDAE3"/><path id="180623552" parent_id="180608862" order="82" structure_id="1" d="M714.99,260.1   c-1.891,0.39-4.53,1.53-6.54,2.85c-1.86,1.229-14.25,13.17-18.81,18.15c-4.621,5.04-8.432,10.53-10.11,14.67   c-1.41,3.36-2.312,8.43-1.53,8.43c0.6,0,4.2-3.21,6.09-5.43c2.551-2.97,8.7-8.88,12.21-11.7c7.86-6.36,12.061-8.55,19.591-10.2   c4.049-0.9,12.149-1.11,16.709-0.45c14.82,2.19,34.95,10.92,50.102,21.75c13.648,9.72,23.7,20.49,28.5,30.45   c3.21,6.69,5.7,17.79,5.7,25.44c0,3.959-0.511,6.09-1.802,7.528c-0.75,0.84-1.02,0.96-2.22,0.9c-0.75-0.03-1.38,0.06-1.38,0.18   c0,0.15,0.51,1.38,1.17,2.76c3.54,7.71,11.79,33.54,13.71,42.9c0.78,3.84,1.74,11.188,2.101,15.81   c0.209,2.852,0.601,3.602,1.41,2.79c0.181-0.18,0.72-0.33,1.17-0.33c2.641,0,4.08,2.16,9.061,13.44   c3.479,7.859,7.83,18.57,8.818,21.689c2.671,8.311,2.552,16.289-0.42,27.539c-2.879,11.012-8.068,21.211-17.43,34.291   c-1.859,2.609-3.39,4.949-3.39,5.189c0,1.561,7.92-1.35,12.72-4.65c2.91-2.01,6.96-6.21,8.55-8.91   c3.66-6.18,7.29-16.948,9.062-26.938c0.81-4.59,1.078-13.021,0.6-17.16c-0.84-6.75-2.7-13.17-6.93-23.938   c-4.262-10.92-5.28-16.08-6-30.45c-0.842-17.04-2.19-28.83-4.352-37.92c-1.438-6.15-6.99-22.53-9.99-29.61   c-4.14-9.72-9.299-18.72-18.6-32.37c-10.41-15.36-17.729-22.17-34.56-32.189c-5.49-3.271-20.101-10.65-29.101-14.73   C730.8,261.6,721.29,258.87,714.99,260.1z" style="stroke:black;fill:#BFDAE3"/><path id="180623552" parent_id="180608862" order="83" structure_id="1" d="M912.15,292.56   c-18.15,10.23-33.062,18.629-33.09,18.69c-0.062,0.061,0.868,2.1,2.039,4.561c7.739,15.841,12.689,30.689,16.17,48.271   c1.62,8.22,3.211,19.62,3.779,27.27c0.092,1.32,0.24,2.972,0.33,3.66l0.15,1.29h1.29c0.688,0,16.829-1.41,35.88-3.148   c19.05-1.74,34.859-3.15,35.13-3.15c0.6,0,0.63,0.72-0.479-10.71c-2.761-27.99-8.789-56.13-17.039-79.59   c-3.722-10.53-10.142-25.83-10.83-25.771C945.3,273.93,930.3,282.33,912.15,292.56z" style="stroke:black;fill:#BFDAE3"/><path id="180623552" parent_id="180608862" order="84" structure_id="1" d="M894.75,262.5   c-20.52,13.95-31.83,21.81-31.891,22.17c-0.061,0.3,1.171,2.37,2.819,4.8c3.87,5.7,7.892,12.21,10.62,17.22   c1.62,2.94,2.4,4.08,2.79,4.11c0.42,0,65.552-36.36,66.511-37.11c0.239-0.21-6.631-13.62-9.721-19.05   c-4.529-7.92-8.25-13.74-8.818-13.74C926.79,240.9,912.24,250.62,894.75,262.5z" style="stroke:black;fill:#BFDAE3"/><path id="180623552" parent_id="180608862" order="85" structure_id="1" d="M867.48,229.95   c-14.94,15.9-27.182,29.07-27.182,29.22s1.95,2.25,4.32,4.65c4.949,4.979,10.56,11.43,14.58,16.68c1.5,1.98,2.939,3.6,3.21,3.6   c0.81,0,64.14-43.17,64.229-43.83c0.18-0.99-7.531-11.85-14.671-20.67c-6.51-8.07-16.11-18.6-16.92-18.6   C894.811,201,882.42,214.02,867.48,229.95z" style="stroke:black;fill:#BFDAE3"/><path id="180623552" parent_id="180608862" order="86" structure_id="1" d="M807.15,188.1   c-9.392,20.79-17.131,38.07-17.19,38.37c-0.09,0.48,0.931,1.11,5.55,3.48c21.391,11.04,29.58,16.29,41.07,26.31   c1.68,1.44,3.18,2.64,3.33,2.64c0.42,0,54.449-57.57,54.6-58.2c0.18-0.63-7.529-8.16-14.55-14.19   c-14.19-12.24-27.84-21.75-43.229-30.12c-5.939-3.24-11.609-6.09-12.09-6.09C824.43,150.3,816.66,167.07,807.15,188.1z" style="stroke:black;fill:#BFDAE3"/><path id="180623552" parent_id="180608862" order="87" structure_id="1" d="M726.359,163.11   c-4.17,23.58-7.59,43.08-7.561,43.35c0,0.3,0.092,0.54,0.24,0.54c0.72,0,17.068,2.91,22.109,3.93   c16.051,3.24,29.939,7.62,43.109,13.59c2.4,1.08,4.62,1.98,4.95,1.98c0.42,0,3.96-7.59,17.64-37.8   c9.42-20.79,17.131-38.04,17.19-38.34c0.06-0.391-0.24-0.69-1.05-1.021c-0.631-0.27-3.51-1.56-6.391-2.88   c-17.25-7.83-39.301-15.45-61.649-21.33c-6.841-1.8-19.71-4.83-20.46-4.83C733.98,120.3,733.141,124.77,726.359,163.11z" style="stroke:black;fill:#BFDAE3"/><path id="180623552" parent_id="180608862" order="88" structure_id="1" d="M681.061,156.51   c-1.381,24.72-2.489,45.24-2.461,45.602c0,0.6,0.182,0.66,2.94,0.84c11.851,0.75,20.7,1.65,30.87,3.06   c3.18,0.45,5.85,0.72,5.939,0.63c0.211-0.21,15.51-86.37,15.359-86.52c-0.3-0.3-17.91-3.72-27.66-5.34   c-5.398-0.93-21.06-3.18-21.898-3.18C683.55,111.6,683.49,112.35,681.061,156.51z" style="stroke:black;fill:#BFDAE3"/><path id="180623552" parent_id="180608862" order="89" structure_id="1" d="M626.22,108.96   c0.091,1.05,1.261,22.2,2.61,47.04c1.32,24.84,2.46,45.42,2.52,45.75c0.12,0.6,0.33,0.6,14.312,0.51c7.8-0.06,18.3,0.03,23.34,0.21   c5.01,0.18,9.18,0.271,9.21,0.21c0.21-0.21,5.13-90.96,4.95-91.108c-0.24-0.21-11.7-1.5-21.36-2.37   c-12.21-1.11-27.689-2.1-33.119-2.1h-2.641L626.22,108.96z" style="stroke:black;fill:#BFDAE3"/><path id="180623552" parent_id="180608862" order="90" structure_id="1" d="M606.3,107.43   c-14.43,1.021-25.8,3.84-36.54,9.12c-5.13,2.521-7.68,4.021-11.01,6.63c-3.48,2.7-4.23,3.54-3.87,4.44   c0.15,0.39,13.29,18.21,29.22,39.63c26.852,36.09,29.01,38.88,29.7,38.73c0.42-0.06,1.89-0.54,3.3-1.05   c3.182-1.108,6.062-1.71,10.59-2.16c1.92-0.21,3.512-0.48,3.512-0.63c0-0.12-1.141-21-2.551-46.38   c-1.409-25.35-2.551-46.68-2.551-47.398v-1.26l-8.16,0.03C613.439,107.16,608.189,107.28,606.3,107.43z" style="stroke:black;fill:#BFDAE3"/><path id="180623552" parent_id="180608862" order="91" structure_id="1" d="M552.54,128.91   c-4.8,5.16-8.94,12.78-10.71,19.74c-1.561,6.12-1.53,5.4-1.53,45.21v37.08l1.89,0.18c1.021,0.09,12.871,0.21,26.342,0.24   l24.449,0.09l1.17-1.65c0.631-0.9,2.641-3.96,4.439-6.75c6.18-9.6,9.48-13.56,12.96-15.63c0.75-0.42,1.351-0.99,1.29-1.2   c-0.15-0.66-58.26-78.688-58.62-78.72C554.04,127.5,553.29,128.13,552.54,128.91z" style="stroke:black;fill:#BFDAE3"/><path id="180623552" parent_id="180608862" order="92" structure_id="1" d="M540.3,249.54v18.36h1.62   c1.561,0,1.62-0.03,2.46-1.35c1.56-2.49,4.53-3.39,7.8-2.4c0.812,0.24,1.801,0.45,2.19,0.45c0.389,0,2.22-0.72,4.05-1.62   c7.439-3.63,13.65-8.22,20.88-15.48c5.37-5.34,12.9-14.31,12.9-15.36c0-0.51-0.511-0.54-10.591-0.54   c-5.851,0-17.521-0.09-25.949-0.21l-15.36-0.18V249.54z" style="stroke:black;fill:#BFDAE3"/><path id="180623552" parent_id="180608862" order="93" structure_id="1" d="M660.061,246.51   c-0.181,0.48-1.201,3.6-2.311,6.99c-3.24,10.14-5.79,15.3-9.78,19.62c-4.62,5.07-12.12,8.76-20.97,10.38   c-5.82,1.05-22.47,2.7-39.3,3.9c-8.07,0.57-24.06,1.5-25.86,1.5c-0.479,0-0.84,0.18-0.84,0.39c0,0.66,5.22,6.6,7.5,8.52   c6.48,5.43,15.42,8.34,29.85,9.69c11.82,1.11,32.461,0.45,42.45-1.35c14.101-2.58,23.16-12.96,25.86-29.7   c0.21-1.35,0.359-4.83,0.359-7.95c0-5.94-0.359-8.64-1.801-13.5c-0.898-3.06-3.898-9.3-4.438-9.3   C660.54,245.7,660.24,246.06,660.061,246.51z" style="stroke:black;fill:#BFDAE3"/><path id="180623552" parent_id="180608862" order="94" structure_id="1" d="M557.67,320.79c-2.22-4.59-7.83-8.31-14.311-9.57c-1.222-0.232-2.309-0.354-3.359-0.371v36.991   c2.938-0.036,5.903-0.642,8.311-1.82c2.909-1.438,6.391-4.77,7.979-7.618C559.41,332.67,559.98,325.53,557.67,320.79z" style="stroke:black;fill:#BFDAE3"/><path id="180623552" parent_id="180608862" order="95" structure_id="1" d="M590.85,326.73c-3.63,0.3-9.688,1.14-10.5,1.5   c-0.33,0.118-3.24,2.34-6.449,4.92c-6.659,5.369-11.67,8.789-15.569,10.68c-1.5,0.72-2.7,1.5-2.729,1.71   c0,0.21,1.109,1.53,2.489,2.91c2.13,2.13,2.972,2.7,5.642,3.989c5.789,2.819,8.129,3.121,27.869,3.659   c17.189,0.48,24.239,0.99,28.439,2.16c1.229,0.33,2.28,0.511,2.398,0.42c0.092-0.118,0.24-2.13,0.302-4.47l0.119-4.29l-1.891-1.17   c-2.55-1.562-7.68-6.72-10.68-10.771c-1.32-1.801-3.54-5.131-4.92-7.409l-2.49-4.17l-4.53,0.028   C595.891,326.46,592.5,326.58,590.85,326.73z" style="stroke:black;fill:#BFDAE3"/><path id="180623552" parent_id="180608862" order="96" structure_id="1" d="M603.3,326.55c0,1.17,6,10.29,9.57,14.58   c4.47,5.34,7.47,7.62,14.729,11.13c7.5,3.63,17.939,7.74,19.649,7.74c0.72,0,0.51-0.84-0.33-1.38c-1.08-0.72-3-3.51-3.72-5.431   c-0.33-0.869-0.75-2.551-0.932-3.689c-0.51-3.39,0.45-8.16,2.16-10.561c0.36-0.479,0.57-1.021,0.48-1.229s-1.26-0.75-2.641-1.229   c-2.521-0.841-9.391-4.109-15.181-7.17c-4.8-2.58-8.22-3.181-17.699-3.211C604.109,326.1,603.3,326.16,603.3,326.55z" style="stroke:black;fill:#BFDAE3"/><path id="180623552" parent_id="180608862" order="97" structure_id="1" d="M574.8,356.49c0,0.779,1.86,3.63,3.54,5.43   c2.25,2.37,8.221,7.38,10.17,8.55c2.521,1.5,7.68,3.48,14.16,5.46c9,2.73,14.04,3.54,17.49,2.82c3.63-0.75,7.29-2.88,11.82-6.9   c3.778-3.33,5.1-5.67,3.959-7.108c-1.109-1.352-6.959-3.84-13.229-5.642c-6.42-1.83-12.3-2.34-34.86-3   C573.811,355.68,574.8,355.65,574.8,356.49z" style="stroke:black;fill:#BFDAE3"/><path id="180623552" parent_id="180608862" order="98" structure_id="1" d="M644.939,338.311   c-1.5,1.709-2.641,5.579-2.641,9.091c0,5.938,2.762,10.648,7.592,12.898c2.25,1.08,5.879,1.62,9.328,1.44l2.432-0.15l1.89-1.83   c2.31-2.22,5.069-4.108,6.75-4.62c1.83-0.54,6.03-0.45,8.13,0.182c0.96,0.27,1.83,0.448,1.92,0.33   c0.09-0.091-0.06-0.812-0.359-1.591c-1.351-3.421-1.739-5.341-1.771-8.25l-0.03-2.971l-1.05,0.18   c-7.29,1.291-11.79,0.69-24.03-3.09C645.811,337.65,645.57,337.59,644.939,338.311z" style="stroke:black;fill:#BFDAE3"/><path id="180623552" parent_id="180608862" order="99" structure_id="1" d="M658.17,322.92   c-0.061,0.061-3.029,0.27-6.57,0.45c-14.278,0.78-22.26,1.649-24.209,2.64c-0.931,0.48-1.171,0.78-1.229,1.62l-0.09,1.021   l3.989,2.1c8.489,4.47,11.189,5.521,23.189,9.12c7.53,2.28,10.109,2.91,13.5,3.359c2.91,0.391,7.77,0.239,10.26-0.329   c1.53-0.33,1.53-0.36,2.19-2.132c0.78-2.068,3.239-6.329,5.04-8.698c0.688-0.932,1.26-1.892,1.26-2.132   c0-0.448-5.37-3.148-10.26-5.158c-4.11-1.71-5.73-1.98-11.67-1.98C660.66,322.8,658.23,322.86,658.17,322.92z" style="stroke:black;fill:#BFDAE3"/><path id="180623552" parent_id="180608862" order="100" structure_id="1" d="M684.09,332.43   c-2.1,2.82-4.26,6.812-5.16,9.48c-1.14,3.42-0.66,8.188,1.29,12.27c0.87,1.801,1.261,2.312,2.641,3.24   c2.159,1.41,4.5,3.9,5.431,5.79c1.62,3.15,6.271,6.42,10.891,7.59c2.789,0.72,7.141,0.78,10.141,0.15   c6.24-1.32,10.8-5.73,14.07-13.562c0.75-1.77,1.77-4.56,2.31-6.18l0.96-2.939l-1.29-3.75c-0.69-2.039-1.41-3.931-1.59-4.141   c-0.511-0.63-19.681-7.35-22.771-8.01c-1.5-0.3-4.979-0.721-7.711-0.9c-3.81-0.27-5.158-0.479-5.88-0.93   c-0.51-0.3-1.08-0.54-1.229-0.54C686.04,330,685.08,331.11,684.09,332.43z" style="stroke:black;fill:#BFDAE3"/><path id="180623552" parent_id="180608862" order="101" structure_id="1" d="M715.05,300.33   c-4.86,0.63-10.56,2.85-15.39,5.939c-1.35,0.869-2.46,1.771-2.46,2.011c0,0.33,0.659,0.42,3.33,0.42   c10.319,0,21.42,3.6,33.93,11.04c2.7,1.62,8.19,5.608,8.91,6.449c0.51,0.631,1.53,0.659,1.53,0.091c0-0.24-0.48-1.23-1.052-2.19   c-2.67-4.438-3.6-8.25-2.34-9.93c2.07-2.79,8.79-3.271,15.42-1.08c4.351,1.41,13.2,6,19.771,10.26c5.398,3.51,13.53,9.93,18.93,15   c4.351,4.08,3.931,2.19-1.05-4.89c-4.26-6.09-10.17-12.062-14.88-15.12c-0.9-0.57-4.95-2.76-9-4.83s-9.45-5.1-12-6.72   c-5.55-3.57-9.391-5.46-11.91-5.94c-1.649-0.3-2.46-0.24-6.12,0.36c-4.74,0.75-6.48,0.72-12.72-0.33   C723.66,300.18,717.96,299.91,715.05,300.33z" style="stroke:black;fill:#BFDAE3"/><path id="180623552" parent_id="180608862" order="102" structure_id="1" d="M720.45,276.3   c-5.25,0.57-10.89,2.16-14.521,4.08c-5.489,2.88-15.6,11.37-21.21,17.76c-3.029,3.45-5.25,8.4-5.699,12.72   c-0.181,1.738-0.119,2.159,0.601,3.72c1.71,3.72,5.819,8.13,9.569,10.29c1.351,0.75,2.341,1.02,5.791,1.53   c8.55,1.229,16.528,3.119,21.238,4.979c1.5,0.602,6.78,3.03,11.73,5.37c5.279,2.521,10.8,4.89,13.408,5.79   c20.4,7.05,28.892,14.55,34.98,30.96c4.561,12.3,7.471,23.76,8.641,33.899c0.869,7.561,0.359,15.359-2.58,38.699   c-0.659,5.19-1.381,12.271-1.649,15.69c-0.84,11.58-1.351,12.78-12.45,28.86c-4.648,6.778-5.52,8.22-8.85,15   c-2.04,4.108-4.2,8.85-4.801,10.5c-1.979,5.55-3.869,8.818-12.149,21.3c-15.42,23.188-18.24,27.03-30.09,41.04l-4.771,5.64   l0.391,1.47c0.449,1.801,0.688,1.83,3.238,0.57c2.131-1.08,1.892-0.811,14.82-15.93c13.2-15.392,15.93-18.931,31.17-40.29   c7.561-10.562,16.11-22.32,19.021-26.102c2.908-3.81,6.209-8.188,7.318-9.75c2.881-4.02,10.141-15.688,11.102-17.85   c1.8-4.021,2.46-8.67,3.3-23.7c1.83-32.55-0.33-50.91-8.22-70.62c-4.32-10.71-12.99-27.479-18.9-36.479   c-3.09-4.682-5.311-7.352-9.78-11.641c-6.81-6.569-18.63-16.711-19.47-16.711c-1.319,0,0.811,4.711,5.761,12.66   c1.859,3.03,3.569,5.79,3.779,6.181c0.36,0.659,0.33,0.689-0.21,0.391c-0.811-0.42-8.852-6.33-15.21-11.13   c-7.65-5.79-13.142-8.49-21.63-10.65c-5.762-1.5-10.051-1.979-16.471-1.89c-5.01,0.09-5.49,0.028-6.811-0.57   c-1.68-0.779-2.641-2.16-2.641-3.81c0-1.62,1.141-2.58,5.851-4.98c2.13-1.08,8.19-4.35,13.47-7.29   c5.311-2.91,10.291-5.52,11.07-5.76c2.07-0.6,2.971-0.15,6.15,3.09c2.188,2.25,2.819,2.73,4.02,3.03   c3.391,0.81,5.85,0.33,11.49-2.311c3.09-1.439,3.811-1.68,5.4-1.68c2.489,0,3.898,0.72,11.549,5.85   c4.86,3.27,7.979,5.07,12.601,7.38c10.17,5.07,11.19,5.82,22.53,17.16c12.63,12.631,12.6,12.602,12.899,14.312   c0.3,1.649-0.09,2.58-1.711,3.989c-1.14,1.021-1.229,1.021-3.479,0.449c-0.63-0.148-0.841-0.09-0.841,0.271   c0,0.24,1.201,2.25,2.641,4.439c3.18,4.801,5.7,9,7.801,12.899c0.869,1.62,1.771,3,2.039,3.09c1.98,0.75,3.961-0.45,4.65-2.85   c0.57-1.92,0.479-8.761-0.15-12.72c-0.689-4.262-2.31-11.07-3.33-13.95c-3.539-9.87-11.85-20.13-24.39-30.15   c-15.841-12.63-37.38-22.83-54.479-25.8C730.68,276.18,723.66,275.94,720.45,276.3z" style="stroke:black;fill:#BFDAE3"/><path id="180623552" parent_id="180608862" order="103" structure_id="1" d="M714.99,260.1   c-1.891,0.39-4.53,1.53-6.54,2.85c-1.86,1.229-14.25,13.17-18.81,18.15c-4.621,5.04-8.432,10.53-10.11,14.67   c-1.41,3.36-2.312,8.43-1.53,8.43c0.6,0,4.2-3.21,6.09-5.43c2.551-2.97,8.7-8.88,12.21-11.7c7.86-6.36,12.061-8.55,19.591-10.2   c4.049-0.9,12.149-1.11,16.709-0.45c14.82,2.19,34.95,10.92,50.102,21.75c13.648,9.72,23.7,20.49,28.5,30.45   c3.21,6.69,5.7,17.79,5.7,25.44c0,3.959-0.511,6.09-1.802,7.528c-0.75,0.84-1.02,0.96-2.22,0.9c-0.75-0.03-1.38,0.06-1.38,0.18   c0,0.15,0.51,1.38,1.17,2.76c3.54,7.71,11.79,33.54,13.71,42.9c0.78,3.84,1.74,11.188,2.101,15.81   c0.209,2.852,0.601,3.602,1.41,2.79c0.181-0.18,0.72-0.33,1.17-0.33c2.641,0,4.08,2.16,9.061,13.44   c3.479,7.859,7.83,18.57,8.818,21.689c2.671,8.311,2.552,16.289-0.42,27.539c-2.879,11.012-8.068,21.211-17.43,34.291   c-1.859,2.609-3.39,4.949-3.39,5.189c0,1.561,7.92-1.35,12.72-4.65c2.91-2.01,6.96-6.21,8.55-8.91   c3.66-6.18,7.29-16.948,9.062-26.938c0.81-4.59,1.078-13.021,0.6-17.16c-0.84-6.75-2.7-13.17-6.93-23.938   c-4.262-10.92-5.28-16.08-6-30.45c-0.842-17.04-2.19-28.83-4.352-37.92c-1.438-6.15-6.99-22.53-9.99-29.61   c-4.14-9.72-9.299-18.72-18.6-32.37c-10.41-15.36-17.729-22.17-34.56-32.189c-5.49-3.271-20.101-10.65-29.101-14.73   C730.8,261.6,721.29,258.87,714.99,260.1z" style="stroke:black;fill:#BFDAE3"/><path id="180623552" parent_id="180608862" order="104" structure_id="1" d="M702.75,236.88   c-5.13,0.9-10.47,2.97-13.23,5.16c-3.119,2.46-4.83,7.98-6.568,21.21c-0.9,6.75-1.38,8.97-3.182,14.13   c-2.159,6.3-4.619,11.67-6.028,13.2c-0.57,0.63-0.57,0.72-0.091,3.3c0.271,1.47,0.689,3.42,0.959,4.32   c0.632,2.31,2.222,5.7,2.642,5.7c0.24,0,0.42-0.75,0.54-2.04c0.42-5.22,4.2-12.09,10.8-19.68c3.812-4.41,18.392-18.42,20.4-19.649   c3.3-1.95,5.159-2.55,8.64-2.67c6.479-0.24,14.521,2.25,30.69,9.6c17.188,7.8,28.739,13.95,38.43,20.46   c12.062,8.13,18.75,15.45,30.09,32.91c6.03,9.3,8.16,12.93,11.312,19.32c3.479,7.079,6,13.47,9.449,23.818   c5.431,16.44,6.931,25.591,8.25,50.28c0.811,15.3,1.739,20.311,5.521,29.82c3.989,9.99,6.03,16.5,7.14,22.979   c0.78,4.59,0.69,12.96-0.18,18.12c-2.01,11.76-5.971,23.16-10.32,29.55c-2.64,3.932-7.949,8.25-12.93,10.562   c-2.311,1.05-6.27,2.22-7.561,2.22c-0.479,0-1.379,0.87-3.301,3.21c-6.869,8.34-15.148,15.271-27.06,22.71   c-8.94,5.55-32.46,19.08-50.25,28.891c-9.722,5.341-12.062,6.811-16.41,10.319c-7.92,6.36-16.858,16.83-18.569,21.84   c-0.931,2.7-1.529,5.79-1.529,7.83v1.74l2.729,1.08c4.2,1.68,7.08,2.28,11.102,2.28h3.449l0.899-0.932   c3.358-3.54,15.149-10.56,25.021-14.908c11.221-4.95,21.659-8.041,40.199-11.882c19.98-4.14,30.061-7.35,41.762-13.26   c15.75-8.01,23.22-15.18,32.25-31.02c6.988-12.212,10.799-24.45,13.14-42.15c2.34-17.88,2.7-28.438,1.5-46.5   c-0.96-13.979-2.04-22.562-3.601-27.9c-0.569-1.979-2.25-8.608-3.721-14.698c-1.5-6.12-4.529-18.33-6.75-27.15   c-4.29-16.98-7.29-29.85-8.279-35.49c-1.771-10.08-5.279-19.68-12.33-33.81c-7.771-15.48-14.431-25.021-24.689-35.25   c-13.17-13.14-26.46-22.38-46.68-32.49c-27.812-13.92-48.9-22.71-59.971-24.96C712.891,236.28,706.5,236.22,702.75,236.88z" style="stroke:black;fill:#BFDAE3"/><path id="180623552" parent_id="180608862" order="105" structure_id="1" d="M695.85,223.11   c-16.38,1.35-25.47,5.58-31.528,14.67c-1.681,2.52-3.421,6.03-3.421,6.898c0,0.3,0.721,1.95,1.619,3.72   c3.78,7.35,5.341,15.45,4.65,24c-1.17,14.67-7.05,25.08-17.37,30.81c-6.148,3.42-17.189,4.92-36.45,4.89   c-16.948,0-27.209-1.409-35.88-4.92c-5.79-2.34-9.898-5.49-14.609-11.25l-2.579-3.12l-1.95,0.21c-1.08,0.09-3.66,0.18-5.7,0.18   h-3.689l0.181,0.93c0.3,1.56,2.76,6.48,4.53,9.09c5.88,8.762,14.789,15.392,25.35,18.9c3.24,1.08,10.02,2.58,11.641,2.58   c0.511,0,2.101-0.391,3.569-0.87c3.931-1.32,6.78-1.53,20.49-1.5c7.739,0,15.81-0.21,21.3-0.51   c4.859-0.271,12.689-0.54,17.34-0.602l8.521-0.09l2.58-1.41c4.771-2.55,7.409-4.53,10.291-7.648l2.729-2.971l-1.229-2.46   c-1.261-2.61-2.552-6.84-2.91-9.72c-0.12-1.17-0.42-1.89-0.9-2.37c-0.39-0.39-0.72-1.02-0.72-1.41c0-0.899,0.87-4.439,2.34-9.689   c1.92-6.811,3.03-13.8,3.51-22.2c0.24-3.9,1.41-7.89,3.66-12.27c2.46-4.74,5.311-6.96,11.61-9.03   c10.619-3.45,22.108-2.82,39.18,2.1c12,3.45,20.04,6.78,44.4,18.3c16.08,7.59,25.709,13.41,35.25,21.36   c13.709,11.34,28.5,29.22,38.069,45.93c9.209,16.051,13.681,29.221,24.181,71.16c6.869,27.45,8.369,35.07,9.75,49.352   c0.271,2.64,0.869,7.83,1.35,11.55c1.47,11.13,2.101,21.39,2.101,33.6c0,19.29-2.039,33.181-6.99,47.851   c-6.719,19.859-15.869,34.979-26.489,43.649c-6.06,5.011-20.819,13.53-28.771,16.65c-6.721,2.67-15.689,5.159-23.189,6.51   c-3.12,0.54-3.96,0.78-3.9,1.14c0.062,0.302,0.9,0.602,2.642,0.961c4.35,0.869,9.18,1.229,16.8,1.261h7.35l4.801-2.04   c7.859-3.36,13.681-6.48,21.149-11.28c11.79-7.59,15.9-10.8,20.101-15.66c5.34-6.18,8.641-12.54,12.84-24.87   c7.711-22.619,11.16-44.58,11.67-74.369c0.631-39-5.699-75.091-21.659-122.851c-13.08-39.21-26.28-62.19-46.2-80.34   c-15.57-14.19-31.141-23.07-63.449-36.12C733.08,227.34,710.73,221.88,695.85,223.11z" style="stroke:black;fill:#BFDAE3"/><path id="180623552" parent_id="180608862" order="106" structure_id="1" d="M702.75,236.88   c-5.13,0.9-10.47,2.97-13.23,5.16c-3.119,2.46-4.83,7.98-6.568,21.21c-0.9,6.75-1.38,8.97-3.182,14.13   c-2.159,6.3-4.619,11.67-6.028,13.2c-0.57,0.63-0.57,0.72-0.091,3.3c0.271,1.47,0.689,3.42,0.959,4.32   c0.632,2.31,2.222,5.7,2.642,5.7c0.24,0,0.42-0.75,0.54-2.04c0.42-5.22,4.2-12.09,10.8-19.68c3.812-4.41,18.392-18.42,20.4-19.649   c3.3-1.95,5.159-2.55,8.64-2.67c6.479-0.24,14.521,2.25,30.69,9.6c17.188,7.8,28.739,13.95,38.43,20.46   c12.062,8.13,18.75,15.45,30.09,32.91c6.03,9.3,8.16,12.93,11.312,19.32c3.479,7.079,6,13.47,9.449,23.818   c5.431,16.44,6.931,25.591,8.25,50.28c0.811,15.3,1.739,20.311,5.521,29.82c3.989,9.99,6.03,16.5,7.14,22.979   c0.78,4.59,0.69,12.96-0.18,18.12c-2.01,11.76-5.971,23.16-10.32,29.55c-2.64,3.932-7.949,8.25-12.93,10.562   c-2.311,1.05-6.27,2.22-7.561,2.22c-0.479,0-1.379,0.87-3.301,3.21c-6.869,8.34-15.148,15.271-27.06,22.71   c-8.94,5.55-32.46,19.08-50.25,28.891c-9.722,5.341-12.062,6.811-16.41,10.319c-7.92,6.36-16.858,16.83-18.569,21.84   c-0.931,2.7-1.529,5.79-1.529,7.83v1.74l2.729,1.08c4.2,1.68,7.08,2.28,11.102,2.28h3.449l0.899-0.932   c3.358-3.54,15.149-10.56,25.021-14.908c11.221-4.95,21.659-8.041,40.199-11.882c19.98-4.14,30.061-7.35,41.762-13.26   c15.75-8.01,23.22-15.18,32.25-31.02c6.988-12.212,10.799-24.45,13.14-42.15c2.34-17.88,2.7-28.438,1.5-46.5   c-0.96-13.979-2.04-22.562-3.601-27.9c-0.569-1.979-2.25-8.608-3.721-14.698c-1.5-6.12-4.529-18.33-6.75-27.15   c-4.29-16.98-7.29-29.85-8.279-35.49c-1.771-10.08-5.279-19.68-12.33-33.81c-7.771-15.48-14.431-25.021-24.689-35.25   c-13.17-13.14-26.46-22.38-46.68-32.49c-27.812-13.92-48.9-22.71-59.971-24.96C712.891,236.28,706.5,236.22,702.75,236.88z" style="stroke:black;fill:#BFDAE3"/><path id="180623552" parent_id="180608862" order="107" structure_id="1" d="M569.25,572.91c-0.51,4.109-2.13,7.2-4.23,8.07   c-2.818,1.17-6.6-0.12-7.619-2.61c-0.391-0.87-1.199-1.2-1.199-0.48c0,0.392,0.479,3.392,0.75,4.62c0.09,0.42,1.02,1.26,2.37,2.19   c1.229,0.81,3.148,2.37,4.288,3.45c1.11,1.08,2.07,1.948,2.132,1.948c0.06,0,0.51-0.42,0.989-0.93   c0.869-0.93,0.931-0.96,3.061-0.78c2.58,0.182,8.13,1.922,11.311,3.512c1.381,0.72,3.359,2.13,5.189,3.72   c3.271,2.91,5.25,4.02,7.47,4.29l1.53,0.18l-0.182-1.56c-0.09-0.87-0.479-2.012-0.81-2.58c-0.33-0.54-3-3.062-5.94-5.58   c-7.198-6.182-13.92-13.17-17.278-17.91c-0.479-0.69-1.05-1.26-1.261-1.26S569.37,571.92,569.25,572.91z" style="stroke:black;fill:#BFDAE3"/><path id="180623552" parent_id="180608862" order="108" structure_id="1" d="M570.87,394.29c-2.729-1.83-4.08-3.3-4.351-4.74c-0.301-1.59,0.42-2.398,3.271-3.72   c2.819-1.29,4.56-2.97,4.89-4.65c0.271-1.56-0.99-3.989-2.97-5.699c-4.68-3.961-10.95-7.079-17.58-8.729   c-4.019-0.999-9.829-1.725-14.13-1.836v11.021c1.514,0.009,3.047,0.15,4.891,0.415c6.119,0.932,11.789,2.91,13.141,4.591   c1.229,1.591,0.3,3.061-1.922,3.061c-0.629,0-3.538-0.36-6.448-0.78c-3.585-0.54-6.615-0.81-9.66-0.81v14.056   c0.924,0.001,1.873,0.005,2.88,0.016c8.04,0.06,11.94,0.479,14.34,1.47c0.602,0.27,2.852,2.068,4.922,4.02   c2.1,1.92,4.828,4.262,6.06,5.19c1.229,0.93,3.12,2.58,4.2,3.66c2.1,2.16,2.91,2.398,4.89,1.59c2.19-0.93,4.71-3.84,4.71-5.43   C582,403.86,577.47,398.7,570.87,394.29z" style="stroke:black;fill:#BFDAE3"/><path id="180623552" parent_id="180608862" order="109" structure_id="1" d="M570.87,394.29c-2.729-1.83-4.08-3.3-4.351-4.74c-0.301-1.59,0.42-2.398,3.271-3.72   c2.819-1.29,4.56-2.97,4.89-4.65c0.271-1.56-0.99-3.989-2.97-5.699c-4.68-3.961-10.95-7.079-17.58-8.729   c-4.019-0.999-9.829-1.725-14.13-1.836v11.021c1.514,0.009,3.047,0.15,4.891,0.415c6.119,0.932,11.789,2.91,13.141,4.591   c1.229,1.591,0.3,3.061-1.922,3.061c-0.629,0-3.538-0.36-6.448-0.78c-3.585-0.54-6.615-0.81-9.66-0.81v14.056   c0.924,0.001,1.873,0.005,2.88,0.016c8.04,0.06,11.94,0.479,14.34,1.47c0.602,0.27,2.852,2.068,4.922,4.02   c2.1,1.92,4.828,4.262,6.06,5.19c1.229,0.93,3.12,2.58,4.2,3.66c2.1,2.16,2.91,2.398,4.89,1.59c2.19-0.93,4.71-3.84,4.71-5.43   C582,403.86,577.47,398.7,570.87,394.29z" style="stroke:black;fill:#BFDAE3"/><path id="180623552" parent_id="180608862" order="110" structure_id="1" d="M895.8,433.2c-2.61-21.15-9.36-51.21-15.239-67.8c-12.091-34.021-23.371-56.67-37.649-75.57   c-11.851-15.72-25.892-28.2-40.86-36.39c-40.8-22.26-71.64-33.33-101.31-36.39c-5.882-0.6-21.632-0.6-27.271,0   c-12.148,1.29-19.86,4.38-25.77,10.32c-3.271,3.3-7.2,9.93-10.05,16.98c-3.511,8.67-6.392,13.29-11.552,18.48   c-9.75,9.78-24,15.15-44.85,16.89c-6,0.51-18.03,1.2-29.25,1.68c-4.05,0.18-8.28,0.36-9.45,0.42   c-0.464,0.026-1.349,0.027-2.55,0.007v7.471c3.346-0.011,6.673-0.076,10.35-0.188c27-0.75,67.32-3.84,77.671-5.94   c9.899-2.01,17.041-6.03,21.721-12.24c3.21-4.26,5.31-9.06,9.06-20.88c2.88-9.03,6.45-14.938,11.431-18.87   c9.931-7.859,27.66-10.38,46.471-6.6c13.56,2.73,31.68,8.64,51,16.68c29.58,12.33,44.369,20.851,58.859,33.96   c23.67,21.391,38.01,48.812,53.879,103.08c8.461,28.86,12.871,52.83,14.432,78.45c1.47,23.641-0.21,50.939-4.352,71.1   c-3.27,15.961-8.97,33.271-13.648,41.58c-3.602,6.36-9.09,12.602-15,17.011c-5.762,4.291-18.602,12.301-23.82,14.909   c-14.25,7.052-41.609,16.74-58.38,20.7c-11.521,2.7-14.67,3.87-14.67,5.4c0,0.6,0.149,0.75,0.72,0.75   c1.021,0,16.562-3.601,22.83-5.28c8.102-2.16,14.82-4.47,28.95-9.93c21.75-8.4,37.17-17.19,49.771-28.41   c3.631-3.24,5.159-5.04,8.371-9.84c9.688-14.521,15.719-32.13,18.81-54.96c1.44-10.8,2.22-21.602,3.03-42.03   C898.141,460.89,897.689,448.561,895.8,433.2z" style="stroke:black;fill:#BFDAE3"/><path id="180623552" parent_id="180608862" order="111" structure_id="1" d="M901.02,393.3c-2.97-38.188-12.06-66.78-30.778-96.75c-7.44-11.88-15.302-22.02-24.091-31.02   c-13.59-13.92-24.659-21.99-44.069-32.07c-19.562-10.17-29.851-14.46-44.34-18.48c-16.41-4.56-44.312-9.3-65.642-11.13   c-6.63-0.57-7.92-0.57-8.398-0.03c-0.33,0.45-3.21,1.47-4.95,1.8c-2.91,0.54-7.74,0.81-17.49,0.93   c-17.04,0.21-24.899,1.38-32.34,4.8c-4.35,1.98-6.45,3.69-17.25,13.98c-16.021,15.27-20.25,19.08-25.38,22.89   c-8.16,6.09-16.11,10.38-28.141,15.18c-7.938,3.169-13.101,4.725-18.149,4.751v13.339c11.399,0,36.812-1.29,46.2-2.37   c17.85-2.04,31.02-7.41,39.898-16.32c4.95-4.92,7.74-9.51,11.852-19.38c2.25-5.4,5.22-11.04,7.17-13.59   c5.818-7.56,14.91-11.76,28.83-13.29c5.67-0.6,21.988-0.51,27.6,0.15c22.92,2.82,44.13,9.15,70.05,20.97   c10.65,4.89,30.632,15.24,36.45,18.93c20.13,12.72,37.262,32.37,51.721,59.28c9.239,17.13,20.551,45.33,25.381,63.18   c6.629,24.45,10.528,45.57,12.3,66.45c1.59,18.66,0.12,56.43-3,77.1c-3.45,22.711-9.75,39.87-20.13,54.631   c-6.541,9.301-22.17,20.551-40.44,29.131c-6.989,3.3-12.81,5.67-24.33,9.988c-13.53,5.07-21.33,7.352-37.71,10.98   c-2.939,0.66-4.439,1.14-4.439,1.38c0,1.38,14.761-0.87,25.08-3.78c16.891-4.83,37.289-13.41,53.971-22.77   c22.77-12.78,29.818-19.26,37.289-34.142c6.271-12.568,12.091-28.829,14.311-40.17c0.271-1.318,0.602-5.25,0.78-8.698   c0.149-3.48,0.659-13.802,1.17-22.95c1.77-33.182,2.1-43.59,2.1-65.852C902.1,412.8,901.83,403.53,901.02,393.3z" style="stroke:black;fill:#BFDAE3"/><path id="180623552" parent_id="180608862" order="112" structure_id="1" d="M895.8,433.2c-2.61-21.15-9.36-51.21-15.239-67.8c-12.091-34.021-23.371-56.67-37.649-75.57   c-11.851-15.72-25.892-28.2-40.86-36.39c-40.8-22.26-71.64-33.33-101.31-36.39c-5.882-0.6-21.632-0.6-27.271,0   c-12.148,1.29-19.86,4.38-25.77,10.32c-3.271,3.3-7.2,9.93-10.05,16.98c-3.511,8.67-6.392,13.29-11.552,18.48   c-9.75,9.78-24,15.15-44.85,16.89c-6,0.51-18.03,1.2-29.25,1.68c-4.05,0.18-8.28,0.36-9.45,0.42   c-0.464,0.026-1.349,0.027-2.55,0.007v7.471c3.346-0.011,6.673-0.076,10.35-0.188c27-0.75,67.32-3.84,77.671-5.94   c9.899-2.01,17.041-6.03,21.721-12.24c3.21-4.26,5.31-9.06,9.06-20.88c2.88-9.03,6.45-14.938,11.431-18.87   c9.931-7.859,27.66-10.38,46.471-6.6c13.56,2.73,31.68,8.64,51,16.68c29.58,12.33,44.369,20.851,58.859,33.96   c23.67,21.391,38.01,48.812,53.879,103.08c8.461,28.86,12.871,52.83,14.432,78.45c1.47,23.641-0.21,50.939-4.352,71.1   c-3.27,15.961-8.97,33.271-13.648,41.58c-3.602,6.36-9.09,12.602-15,17.011c-5.762,4.291-18.602,12.301-23.82,14.909   c-14.25,7.052-41.609,16.74-58.38,20.7c-11.521,2.7-14.67,3.87-14.67,5.4c0,0.6,0.149,0.75,0.72,0.75   c1.021,0,16.562-3.601,22.83-5.28c8.102-2.16,14.82-4.47,28.95-9.93c21.75-8.4,37.17-17.19,49.771-28.41   c3.631-3.24,5.159-5.04,8.371-9.84c9.688-14.521,15.719-32.13,18.81-54.96c1.44-10.8,2.22-21.602,3.03-42.03   C898.141,460.89,897.689,448.561,895.8,433.2z" style="stroke:black;fill:#BFDAE3"/><path id="180623552" parent_id="180608862" order="113" structure_id="1" d="M901.02,393.3c-2.97-38.188-12.06-66.78-30.778-96.75c-7.44-11.88-15.302-22.02-24.091-31.02   c-13.59-13.92-24.659-21.99-44.069-32.07c-19.562-10.17-29.851-14.46-44.34-18.48c-16.41-4.56-44.312-9.3-65.642-11.13   c-6.63-0.57-7.92-0.57-8.398-0.03c-0.33,0.45-3.21,1.47-4.95,1.8c-2.91,0.54-7.74,0.81-17.49,0.93   c-17.04,0.21-24.899,1.38-32.34,4.8c-4.35,1.98-6.45,3.69-17.25,13.98c-16.021,15.27-20.25,19.08-25.38,22.89   c-8.16,6.09-16.11,10.38-28.141,15.18c-7.938,3.169-13.101,4.725-18.149,4.751v13.339c11.399,0,36.812-1.29,46.2-2.37   c17.85-2.04,31.02-7.41,39.898-16.32c4.95-4.92,7.74-9.51,11.852-19.38c2.25-5.4,5.22-11.04,7.17-13.59   c5.818-7.56,14.91-11.76,28.83-13.29c5.67-0.6,21.988-0.51,27.6,0.15c22.92,2.82,44.13,9.15,70.05,20.97   c10.65,4.89,30.632,15.24,36.45,18.93c20.13,12.72,37.262,32.37,51.721,59.28c9.239,17.13,20.551,45.33,25.381,63.18   c6.629,24.45,10.528,45.57,12.3,66.45c1.59,18.66,0.12,56.43-3,77.1c-3.45,22.711-9.75,39.87-20.13,54.631   c-6.541,9.301-22.17,20.551-40.44,29.131c-6.989,3.3-12.81,5.67-24.33,9.988c-13.53,5.07-21.33,7.352-37.71,10.98   c-2.939,0.66-4.439,1.14-4.439,1.38c0,1.38,14.761-0.87,25.08-3.78c16.891-4.83,37.289-13.41,53.971-22.77   c22.77-12.78,29.818-19.26,37.289-34.142c6.271-12.568,12.091-28.829,14.311-40.17c0.271-1.318,0.602-5.25,0.78-8.698   c0.149-3.48,0.659-13.802,1.17-22.95c1.77-33.182,2.1-43.59,2.1-65.852C902.1,412.8,901.83,403.53,901.02,393.3z" style="stroke:black;fill:#BFDAE3"/><path id="180623552" parent_id="180608862" order="114" structure_id="1" d="M566.25,538.23c-1.71,0.959-2.82,1.89-3.45,3   c-1.47,2.64-0.3,6.81,3.54,12.688c2.1,3.21,2.73,5.37,3.03,10.5c0.149,2.312,0.18,4.41,0.12,4.71c-0.21,0.75,0.54,2.01,3.27,5.432   c3.48,4.379,9.45,10.408,15.391,15.539c2.819,2.431,5.341,4.681,5.609,4.979c0.812,0.899,1.44,2.67,1.44,3.99v1.17l1.979,0.659   c1.08,0.359,2.58,1.141,3.33,1.711c1.95,1.5,2.312,1.229,2.011-1.5c-0.569-4.771-0.149-8.7,1.409-13.381   c1.142-3.33,2.16-4.859,5.312-7.891c3.75-3.57,4.83-4.38,13.859-10.2c0.75-0.479,1.92-1.02,2.579-1.17   c0.962-0.239,1.472-0.63,2.222-1.648c2.58-3.632,13.289-13.802,20.699-19.71c3.659-2.94,4.471-3.812,3.42-3.812   c-0.271,0-2.761,0.72-5.521,1.62c-5.312,1.74-17.01,5.28-24.3,7.38c-2.4,0.69-5.16,1.71-6.182,2.28c-2.16,1.2-4.979,2.22-6.18,2.22   c-1.17,0-2.55-0.75-2.79-1.5c-0.149-0.479-0.45-0.6-1.44-0.6c-2.908,0-6.299-1.41-12.148-5.04c-6.33-3.93-17.34-9.96-19.891-10.891   C571.02,537.84,567.48,537.57,566.25,538.23z" style="stroke:black;fill:#BFDAE3"/><path id="180623552" parent_id="180608862" order="115" structure_id="1" d="M742.65,494.82   c-1.801,0.568-4.86,2.188-7.051,3.688c-3.33,2.34-5.399,4.352-7.5,7.29c-2.341,3.3-2.609,3.57-4.681,4.59   c-2.88,1.472-4.319,3.12-4.319,5.012c0,1.41,0.659,2.25,4.109,5.369c3.99,3.601,5.34,5.341,5.97,7.83   c0.42,1.649,0.42,2.25,0.12,4.17c-1.17,7.351-7.738,18.449-20.01,33.869c-9.061,11.37-16.8,18.932-24.69,24.062   c-5.64,3.66-18.42,9.51-27.898,12.75c-10.44,3.569-19.71,5.25-29.102,5.28c-5.398,0.028-8.579-0.512-11.069-1.86   c-2.609-1.38-2.521-1.5-2.279,3.54c0.21,4.38,0.18,4.47-0.57,5.939c-0.42,0.811-0.779,1.59-0.779,1.711   c0,0.358,4.41,2.488,6.601,3.18c4.29,1.38,9.271,1.529,17.399,0.479c7.17-0.93,19.41-2.85,22.709-3.6   c6.961-1.561,14.73-4.62,20.73-8.19c7.53-4.438,11.34-7.948,21.689-19.829c12.66-14.521,19.17-22.439,24.569-29.851   c5.521-7.59,23.82-35.28,25.261-38.25c1.261-2.64,3.541-8.521,3.541-9.21c0-0.18-0.541-0.84-1.17-1.5   c-1.53-1.53-1.951-3.03-1.53-5.55c0.84-5.28,0-8.13-3-10.2c-1.5-1.08-1.74-1.14-3.72-1.11   C744.811,494.43,743.311,494.61,742.65,494.82z" style="stroke:black;fill:#BFDAE3"/><path id="180623552" parent_id="180608862" order="116" structure_id="1" d="M661.68,482.16c-0.18-0.57-0.39-0.6-3.57-0.45c-4.02,0.21-6.719-0.39-10.5-2.37   c-8.788-4.59-15.538-17.34-16.318-30.84c-0.54-9.66,2.939-25.11,10.318-45.75c6.271-17.52,13.052-31.95,18.212-38.7   c0.6-0.78,1.079-1.59,1.079-1.77c0-0.21-1.021-0.33-2.939-0.36c-7.2-0.06-16.83-3.09-29.852-9.33c-2.578-1.26-4.77-2.22-4.858-2.13   s-0.24,2.01-0.33,4.32l-0.21,4.17l3.271,1.05c4.05,1.29,9.539,3.96,10.198,4.95c0.75,1.14,0.091,2.55-2.368,5.16   c-4.052,4.26-9.69,7.89-13.682,8.79c-3.18,0.75-8.818-0.182-17.58-2.881c-5.489-1.709-10.62-3.659-13.38-5.101   c-1.14-0.6-3.51-2.34-5.279-3.899c-3.33-2.881-4.171-3.359-3.899-2.159c1.229,5.37,1.438,7.89,0.688,9.659   c-0.93,2.221-3.028,2.851-5.52,1.619c-4.32-2.188-6.48-6.3-6.421-12.42c0-5.01,1.381-7.02,4.471-6.6   c1.26,0.18,1.29,0.148,1.29-0.72c0-0.75-0.12-0.9-0.75-0.9c-1.439,0-5.341-0.93-7.62-1.83c-4.05-1.62-8.16-4.62-10.08-7.41   c-0.6-0.84-0.78-0.84-3.898,0.09c-3.553,1.037-8.645,1.777-12.15,1.798v16.686c3.65,0.012,7.343,0.396,11.4,1.198   c6.148,1.229,10.618,3,16.02,6.33c4.77,2.938,6.96,5.31,7.32,7.92c0.21,1.38,0.27,1.438,1.41,1.68   c2.039,0.42,7.049,3.09,9.898,5.25c1.5,1.14,3.54,3.09,4.591,4.32c3.029,3.568,5.459,9.12,5.459,12.45   c0,1.02,0.211,1.528,1.2,2.698c2.91,3.54,4.352,7.65,4.141,11.972c-0.24,4.8-2.221,8.43-6.539,11.938   c-5.882,4.8-12.33,7.41-18.182,7.41c-1.05,0-1.92,0.12-1.92,0.3c0,0.15-0.87,2.28-1.95,4.71c-1.08,2.431-1.92,4.562-1.858,4.74   c0.09,0.15,0.75,0.479,1.47,0.66c2.101,0.569,5.521,3.21,7.771,6.028c2.221,2.762,4.949,7.771,6.09,11.222   c2.039,6.09,0.99,11.7-3.211,16.77c-5.369,6.48-13.619,9.841-21.959,8.91c-1.59-0.149-2.971-0.24-3.029-0.149   c-0.09,0.091,0.06,1.261,0.3,2.609c0.63,3.24,0.63,8.73,0,11.49c-0.63,2.82-2.01,5.37-3.688,6.87c-2.16,1.89-3.48,2.46-5.642,2.43   c-1.83-0.028-2.22,0.181-1.649,0.96c0.12,0.182,0.75,0.48,1.409,0.69c2.791,0.81,5.041,3.96,6.062,8.46   c0.39,1.738,0.51,3.81,0.51,9c0.029,6.21-0.029,6.93-0.66,8.91c-0.75,2.398-2.46,4.59-3.6,4.59c-0.75,0-0.66-0.3-1.562,5.55   c-0.39,2.312-0.868,4.95-1.108,5.85c-0.99,3.69,0.39,15.87,2.34,20.4c0.54,1.229,0.779,1.438,2.97,2.46   c2.88,1.38,3.091,1.38,2.88,0.3c-1.05-4.92-1.648-15.81-1.109-20.01c0.869-6.54,2.431-10.08,4.771-10.8   c0.392-0.12,1.38-0.03,2.19,0.148c0.84,0.211,1.59,0.302,1.68,0.211s-0.33-1.291-0.898-2.671c-1.892-4.438-1.771-6.51,0.51-8.79   c1.83-1.8,3.99-2.488,6.569-2.039c1.021,0.181,2.609,0.601,3.539,0.959c2.011,0.75,14.16,7.5,20.67,11.49   c4.83,2.94,7.32,3.93,10.591,4.29l1.711,0.181v-1.17c0-2.521,2.398-8.041,7.318-16.801c5.73-10.26,9.811-16.05,14.88-21.06   c3.78-3.78,5.82-5.011,10.562-6.54l3.51-1.11l1.08-2.58c0.57-1.409,2.16-4.38,3.48-6.6c4.89-8.16,9.448-13.681,12.568-15.271   C661.98,482.76,661.891,482.85,661.68,482.16z M612.3,515.22c-3.899,5.97-10.649,11.67-18,15.15c-5.19,2.46-9,3.12-13.38,2.34   c-4.62-0.84-8.4-2.82-11.67-6.09c-3.689-3.69-5.16-7.38-4.859-12.24c0.51-7.83,5.641-17.01,11.25-20.069   c2.521-1.381,8.189-2.761,13.709-3.33c2.25-0.239,9.03,0.119,11.521,0.569C614.85,494.22,619.59,504.03,612.3,515.22z" style="stroke:black;fill:#BFDAE3"/><path id="180623552" parent_id="180608862" order="117" structure_id="1" d="M588.3,491.25   c-0.239,0.061-1.649,0.27-3.149,0.45c-3.271,0.45-7.141,1.53-9.211,2.58c-6.778,3.45-12.39,15.03-11.34,23.489   c0.84,6.479,6.87,12.511,14.521,14.431c4.738,1.2,9.84,0.63,14.729-1.62c10.352-4.771,19.472-14.16,21.301-21.812   c2.16-9.148-3.75-15.63-15.899-17.368C597.359,491.13,589.439,491.04,588.3,491.25z" style="stroke:black;fill:#BFDAE3"/></g></g></svg>
