<svg xmlns="http://www.w3.org/2000/svg" width="3024px" height="3024px"><g transform="scale(1.0)"><g id="180608862" order="1" parent_id="" graphic_group_label_id="28" graphic_group_label="Atlas - Adult Rat" sub_image_id="100960468" transform=" scale(1.0, 1.0)"><path id="180623552" parent_id="180608862" order="0" structure_id="1" d="M938.91,387.9c-0.75-43.5-10.65-87.392-27.24-120.602c-5.34-10.65-10.561-18.99-18.75-30   C849.3,178.71,791.85,139.74,732,128.13c-16.29-3.15-46.68-6.9-67.5-8.31c-8.97-0.63-28.109-0.72-34.65-0.182   c-14.817,1.23-25.92,3.392-38.25,7.44c-18.27,6.03-32.97,17.46-44.43,34.56c-3.63,5.432-4.95,8.16-5.85,12.03   c-0.393,1.74-0.722,3.57-0.722,4.02c0,0.63-0.118,0.84-0.511,0.75c-0.03-0.005-0.061-0.02-0.09-0.033V618.32   c6.197-0.003,12.391-0.16,15.062-0.475c9.601-1.107,20.25-4.527,25.648-8.188c5.34-3.63,7.41-8.7,5.521-13.563   c-0.812-2.1-0.812-2.1,0.238-2.1c2.04,0,9.03,1.86,9.03,2.4c0,0.118-0.359,0.868-0.78,1.618c-0.96,1.712-0.87,3.421,0.24,4.592   c1.83,2.01,4.38,1.89,5.939-0.271c0.511-0.688,0.898-1.41,0.898-1.648c0-0.539,0.75-0.479,1.229,0.12   c1.17,1.38,8.341,5.278,13.318,7.229c1.5,0.57,4.563,1.41,6.841,1.89c2.279,0.45,4.562,1.08,5.102,1.383   c1.351,0.777,2.7,2.907,3.479,5.52c1.381,4.47,1.562,4.859,3.602,6.9c4.14,4.17,11.159,6.539,23.28,7.92   c15.63,1.8,48,0.897,67.05-1.83c13.438-1.92,23.159-4.44,34.59-8.973c2.729-1.078,6.09-2.22,7.47-2.52   c2.881-0.69,10.41-1.681,10.65-1.41c0.12,0.09,0.028,0.51-0.15,0.93c-0.93,2.04,0.12,4.353,2.28,4.922   c2.04,0.568,4.29-0.632,4.89-2.672c0.302-0.987,0.271-1.317-0.239-2.277c-0.33-0.631-1.021-1.353-1.528-1.59   c-1.021-0.513-1.2-0.961-0.57-1.44c0.182-0.18,4.143-2.31,8.761-4.74c4.619-2.43,10.529-5.64,13.142-7.109   c8.16-4.618,10.56-5.488,17.278-6.238c4.199-0.45,5.972-1.08,10.142-3.45c7.438-4.26,16.71-10.89,27.779-19.859   c14.041-11.431,22.261-21.449,29.608-36.181c4.142-8.28,5.73-12.87,8.642-24.84c2.131-8.82,4.17-13.08,9.75-20.55   c11.159-14.94,18.931-31.021,24.511-50.73C937.65,423.66,939.27,409.83,938.91,387.9z" style="stroke:black;fill:#BFDAE3"/><path id="180623552" parent_id="180608862" order="1" structure_id="1" d="M620.34,438.061c-7.108,8.012-13.68,18.392-19.229,30.392   c-5.189,11.22-8.609,21.06-8.609,24.72c0,2.22,0.602,5.13,1.08,5.13c0.24,0,0.42-0.3,0.42-0.72c0-3.45,5.188-17.16,10.8-28.53   c4.263-8.608,11.881-21.51,16.53-27.93c1.529-2.103,2.07-3.12,2.22-4.17c0.21-1.23,0.15-1.353-0.39-1.353   C622.77,435.6,621.75,436.5,620.34,438.061z" style="stroke:black;fill:#BFDAE3"/><path id="180623552" parent_id="180608862" order="2" structure_id="1" d="M543.42,286.56c-0.936-1.209-2.081-1.808-3.42-1.775v8.623c1.456-0.035,2.881-0.719,3.6-1.898   C544.5,290.07,544.41,287.88,543.42,286.56z" style="stroke:black;fill:#BFDAE3"/><path id="180623552" parent_id="180608862" order="3" structure_id="1" d="M539.4,568.95c0,16.14,0,16.35,0.6,16.35v-32.7C539.4,552.6,539.4,552.811,539.4,568.95z" style="stroke:black;fill:#BFDAE3"/><path id="180623552" parent_id="180608862" order="4" structure_id="1" d="M540,552.6v32.7c0.6,0,0.6-0.21,0.6-16.35S540.6,552.6,540,552.6z" style="stroke:black;fill:#BFDAE3"/><path id="180623552" parent_id="180608862" order="5" structure_id="1" d="M750.6,599.1   c-4.979,0.9-8.188,3.723-12,10.473c-1.229,2.188-2.85,4.617-3.6,5.397c-2.58,2.67,0.03,2.46-31.59,2.55   c-20.221,0.03-29.101,0.15-32.101,0.45c-6.569,0.603-11.552-0.18-13.92-2.22c-1.291-1.11-1.409-2.311-0.392-3.75   c0.72-0.99,4.021-3.27,6.99-4.8c2.729-1.41,2.58-1.83-0.69-2.28c-1.408-0.18-3.63-0.57-4.92-0.84c-1.29-0.3-2.79-0.48-3.3-0.391   c-0.51,0.091-2.938,0.841-5.432,1.681c-2.461,0.84-5.278,1.74-6.211,2.01c-1.5,0.39-1.737,0.57-1.737,1.17   c0,0.66,0.06,0.69,1.59,0.54c2.068-0.21,3.811,0.48,3.811,1.5c0,0.84-0.811,1.62-2.851,2.82c-0.813,0.479-1.71,1.229-1.95,1.68   c-0.42,0.75-0.39,0.9,0.301,2.221c1.021,1.949,4.739,5.069,6.722,5.642c4.948,1.41,12.778,1.71,48.33,1.737   c28.8,0.03,31.409,0,33.869-0.51c4.92-0.96,6.659-1.92,11.311-6.18c1.979-1.8,3.3-3.42,5.67-6.87c4.05-6,5.22-6.96,7.53-6.3   c0.659,0.21,1.26,0.27,1.38,0.18c0.24-0.27-0.63-2.49-1.801-4.438c-0.931-1.563-1.021-1.62-2.312-1.683   C752.55,598.89,751.35,598.98,750.6,599.1z" style="stroke:black;fill:#BFDAE3"/><path id="180623552" parent_id="180608862" order="6" structure_id="1" d="M745.859,590.4   c-0.359,0.147-2.399,0.63-4.5,1.08c-3.932,0.81-6.75,1.737-10.409,3.42c-8.311,3.81-11.852,4.59-24.24,5.55   c-6.81,0.51-10.92,1.14-23.16,3.479c-7.02,1.32-8.64,1.53-12.147,1.591l-4.08,0.029l-3.723,1.95c-4.47,2.312-7.197,4.68-7.197,6.21   c0,1.95,2.25,3.391,6.329,4.021c2.311,0.357,5.579,0.3,16.921-0.36c4.288-0.24,13.59-0.3,29.01-0.21   c25.89,0.18,23.88,0.359,26.49-2.521c0.84-0.897,2.397-3.27,3.51-5.22c1.107-1.95,2.607-4.319,3.33-5.25   c2.43-3.06,6.93-5.37,10.438-5.37c1.11,0,1.473-0.119,1.473-0.449c0-0.568-3.271-5.488-4.711-7.079   C748.08,590.07,747.27,589.86,745.859,590.4z M721.83,601.53c0.87,0.45,2.07,2.1,2.07,2.817c0,2.103-3.393,2.521-6.211,0.75   c-1.771-1.078-1.619-3.3,0.271-3.867C718.98,600.93,720.99,601.08,721.83,601.53z M690.03,606.57l0.72,0.567l-0.6,0.87   c-1.291,1.771-4.65,2.94-11.4,3.99c-6.75,1.021-9.18,0.75-8.73-1.021c0.393-1.591,4.143-3.301,9.183-4.198   c3.6-0.631,4.02-0.69,7.229-0.75C688.891,606,689.43,606.09,690.03,606.57z" style="stroke:black;fill:#BFDAE3"/><path id="180623552" parent_id="180608862" order="7" structure_id="1" d="M752.97,605.52   c-0.688,0.48-2.25,2.49-4.17,5.25c-4.71,6.962-9.51,11.223-14.398,12.75c-4.261,1.353-6.479,1.53-18.899,1.44   c-6.357-0.03-21.21-0.12-33-0.18c-21.392-0.12-26.607-0.33-31.05-1.261c-1.142-0.239-3.99-0.842-6.301-1.319   c-2.312-0.511-5.909-1.44-8.011-2.102c-2.068-0.659-3.871-1.198-3.961-1.198c-0.42,0-0.119,1.17,0.722,2.58   c2.341,4.08,7.858,6.897,17.131,8.64c7.14,1.38,11.85,1.74,24.93,1.89c32.189,0.42,56.88-2.277,75.54-8.277   c3.479-1.11,10.979-3.99,11.313-4.353c0.18-0.18-0.36-1.8-3-8.97c-1.32-3.689-1.621-4.23-2.58-4.891   C755.85,604.59,754.35,604.59,752.97,605.52z" style="stroke:black;fill:#BFDAE3"/><path id="180623552" parent_id="180608862" order="8" structure_id="1" d="M574.47,553.5c-2.397-7.17-5.188-12.66-15.06-29.58c-2.851-4.92-6.392-11.13-7.86-13.77   c-5.226-9.499-8.622-13.61-11.55-13.663v49.692c3.051-0.01,4.777,0.535,6.96,2.158c1.89,1.44,3.57,3.54,8.49,10.8   c8.1,11.881,12.42,15.961,16.89,15.961c2.07,0,3.42-0.721,4.38-2.398c0.54-0.932,0.63-1.53,0.63-5.102   C577.32,563.04,576.78,560.311,574.47,553.5z" style="stroke:black;fill:#BFDAE3"/><path id="180623552" parent_id="180608862" order="9" structure_id="1" d="M865.891,525   c-1.681,0.689-3.121,3.84-6.989,15.15c-1.352,3.96-2.852,8.01-3.329,9.027c-2.882,6.12-9.603,9.36-23.49,11.37   c-2.82,0.392-10.38,1.23-16.83,1.8c-13.351,1.2-15.392,1.44-19.351,2.313c-10.591,2.279-18.302,7.14-23.159,14.64   c-2.04,3.12-3.54,6.09-5.94,11.73c-3.3,7.77-3.479,7.95-8.46,7.89c-1.8-0.03-3.239,0.062-3.239,0.18c0,0.12,0.812,1.92,1.802,3.99   c1.38,2.851,2.067,3.99,2.938,4.65c1.62,1.29,2.28,1.56,3.63,1.56c1.021,0,1.32-0.18,2.222-1.229c0.601-0.66,1.771-2.79,2.641-4.71   c2.88-6.48,6.09-11.223,10.71-15.87c4.38-4.41,7.92-6.75,11.64-7.71c0.961-0.24,5.7-1.051,10.473-1.83   c32.55-5.19,45.447-7.98,51.897-11.19c6-2.97,10.562-7.92,13.44-14.58c1.5-3.479,2.369-6.869,3.51-13.47   c1.35-7.92,1.2-10.68-0.688-12.689C868.29,524.939,866.97,524.52,865.891,525z" style="stroke:black;fill:#BFDAE3"/><path id="180623552" parent_id="180608862" order="10" structure_id="1" d="M831.9,504.27   c0,0.12,0.119,0.933,0.3,1.771c0.54,2.88-1.021,9.6-3.24,14.01c-1.44,2.88-2.55,4.471-4.83,6.87c-4.59,4.771-10.35,7.65-18.72,9.33   c-8.312,1.68-13.08,3.87-20.16,9.24c-2.97,2.277-9.061,8.159-12.12,11.76c-6.18,7.229-11.939,15.9-15.39,23.25   c-0.75,1.562-1.83,3.42-2.37,4.14c-1.29,1.593-4.229,3.813-5.88,4.44c-0.721,0.271-1.29,0.66-1.29,0.84c0,0.21,0.42,0.75,0.93,1.26   c0.511,0.48,1.95,2.4,3.21,4.262l2.313,3.391l3.81-0.09c5.13-0.12,4.92,0.09,8.642-8.67c3.541-8.313,6.09-12.36,10.351-16.41   c4.29-4.08,9.42-6.78,16.2-8.55c4.74-1.23,7.619-1.62,20.1-2.762c6.45-0.601,13.8-1.351,16.351-1.681   c15.449-1.979,22.439-5.16,25.352-11.43c0.54-1.2,2.159-5.643,3.6-9.84c2.91-8.58,4.771-12.75,6.15-13.92   c0.54-0.422,0.898-0.9,0.84-1.08c-0.06-0.15-2.91-1.683-6.39-3.393c-9.78-4.857-16.41-8.85-23.341-14.1   C832.65,504.12,831.9,503.67,831.9,504.27z" style="stroke:black;fill:#BFDAE3"/><path id="180623552" parent_id="180608862" order="11" structure_id="1" d="M870.42,527.01   c0.75,3.48,0.811,4.17,0.48,6.66c-0.632,4.95-2.103,12.24-2.973,14.94c-2.697,8.25-7.647,14.397-14.488,18.06   c-5.939,3.18-19.109,6.12-48.602,10.83c-6.148,0.96-12.21,1.98-13.438,2.25c-4.382,0.9-7.893,3.21-12.933,8.49   c-1.71,1.8-3.987,4.47-5.04,5.938c-1.647,2.341-2.64,4.2-6.21,11.73c-1.619,3.42-3.237,4.26-5.67,3   c-1.529-0.813-2.25-0.99-2.25-0.602c0,0.149,0.842,2.642,1.86,5.579c1.71,4.8,1.947,5.313,2.488,5.16   c3.24-0.96,7.08-1.739,10.921-2.22c2.551-0.33,4.739-0.721,4.829-0.84c0.119-0.15,0.512-1.021,0.869-1.95   c3.211-8.79,10.473-17.46,17.58-21.03c3.84-1.92,6.12-2.46,10.2-2.46c5.13,0.03,9.091,1.229,14.19,4.261   c2.369,1.439,2.938,1.471,5.76,0.392c8.1-3.15,34.229-22.591,43.92-32.7c6.721-7.021,12.9-15.9,17.61-25.23   c0.81-1.618,1.47-3.118,1.47-3.329c0-0.238-2.1-1.108-5.189-2.13c-2.818-0.961-7.351-2.608-10.051-3.659   c-2.699-1.079-5.04-1.949-5.22-1.949C870.359,526.2,870.3,526.53,870.42,527.01z" style="stroke:black;fill:#BFDAE3"/><path id="180623552" parent_id="180608862" order="12" structure_id="1" d="M584.91,594.18c-0.57-0.567-1.17-0.72-3.21-0.869c-1.41-0.12-6.99-0.75-12.45-1.408   c-5.43-0.66-12.99-1.41-16.8-1.65c-8.73-0.57-9.932-0.84-11.341-2.521c-0.445-0.547-0.802-0.829-1.109-0.877v31.079   c0.721-0.006,1.469-0.014,2.25-0.021c12.09-0.15,14.311-0.33,20.55-1.682c5.88-1.291,12.602-3.75,16.62-6.091   c2.609-1.527,5.221-4.079,6.18-6.09C587.01,601.17,586.62,595.89,584.91,594.18z" style="stroke:black;fill:#BFDAE3"/><path id="180623552" parent_id="180608862" order="13" structure_id="1" d="M570.3,334.53   c0,0.27,1.05,0.75,2.641,1.26c9.062,2.88,16.92,9.21,24.302,19.56c13.198,18.48,17.13,26.762,17.67,37.262   c0.148,2.55,0.271,3.39,0.568,3.39c0.239,0,1.319-0.57,2.432-1.29c3.18-2.01,6.568-3.93,9.778-5.49l2.909-1.47v-1.5   c0-2.91-0.6-16.83-0.777-18.57c-0.15-1.47-0.45-2.13-1.95-4.35c-1.892-2.82-6.42-8.43-10.979-13.68l-2.882-3.302l-2.97-0.659   c-4.08-0.899-6.87-1.801-16.74-5.25c-12.358-4.351-16.647-5.551-21.96-6.091C570.72,334.17,570.3,334.2,570.3,334.53z" style="stroke:black;fill:#BFDAE3"/><path id="180623552" parent_id="180608862" order="14" structure_id="1" d="M549,328.26   c0.03,1.142,0.66,4.771,1.05,5.971c0.511,1.529,1.83,2.909,4.561,4.71c0.989,0.689,3.03,2.37,4.472,3.721   c4.05,3.84,20.97,21.358,25.35,26.279c4.473,5.011,10.44,12.359,11.91,14.641c1.41,2.22,3,6.03,3.9,9.359   c0.72,2.641,0.777,3.421,0.777,8.699c0.03,3.723,0.15,5.763,0.33,5.763c0.183,0,1.32-1.021,2.552-2.28   c2.221-2.22,6.568-5.7,9.358-7.47l1.44-0.9v-3.18c0-7.352-2.46-14.972-7.5-23.37c-2.55-4.261-11.58-17.19-14.25-20.37   c-4.561-5.49-10.591-10.05-16.83-12.78c-4.08-1.738-7.53-2.52-12.57-2.85c-5.28-0.3-7.62-0.932-10.319-2.73   c-0.988-0.658-2.188-1.738-2.641-2.398C549.75,327.93,549,327.54,549,328.26z" style="stroke:black;fill:#BFDAE3"/><path id="180623552" parent_id="180608862" order="15" structure_id="1" d="M553.8,339.3   c0,0.181,0.21,0.812,0.45,1.41c1.02,2.43,0.42,4.32-2.49,7.68c-0.688,0.812-1.26,1.62-1.229,1.8c0,0.212,0.72,0.962,1.56,1.682   c9.78,8.28,27.42,26.37,33.063,33.87c1.857,2.489,4.739,7.89,6.239,11.76c1.92,4.86,3.209,10.8,3.209,14.58   c0,1.648,0.091,2.22,0.392,2.22c0.24,0,1.56-1.29,2.938-2.88c2.973-3.39,3-3.45,3-10.17c0-6.63-1.197-11.4-4.197-16.8   c-3.03-5.432-13.95-17.762-32.28-36.391C557.46,340.92,553.8,337.92,553.8,339.3z" style="stroke:black;fill:#BFDAE3"/><path id="180623552" parent_id="180608862" order="16" structure_id="1" d="M547.71,352.92   c-1.11,1.23-2.01,2.4-2.01,2.61c0,0.18,1.109,1.53,2.489,2.938c3.33,3.48,7.17,9.45,14.521,22.682   c11.01,19.77,17.04,36.568,18.271,50.91c0.118,1.408,0.329,2.341,0.538,2.341c0.183,0,1.263-1.65,2.433-3.69   c2.729-4.74,5.52-9,8.188-12.36c2.399-3.027,2.67-3.93,2.312-7.737c-0.57-5.973-2.312-11.73-5.55-18.36   c-2.853-5.82-5.82-9.6-15.723-20.07c-7.59-8.01-21.96-21.479-22.948-21.479C549.96,350.7,548.82,351.689,547.71,352.92z" style="stroke:black;fill:#BFDAE3"/><path id="180623552" parent_id="180608862" order="17" structure_id="1" d="M804.75,233.31   c-21.6,26.19-39.33,47.73-39.391,47.91c-0.029,0.18,0.45,0.66,1.051,1.08c0.63,0.42,2.55,1.86,4.26,3.24   c1.74,1.38,3.391,2.46,3.63,2.4c0.69-0.12,86.103-86.82,86.103-87.39c0-0.84-15-14.85-15.9-14.85   C844.26,185.73,826.38,207.15,804.75,233.31z" style="stroke:black;fill:#BFDAE3"/><path id="180623552" parent_id="180608862" order="18" structure_id="1" d="M639.9,609.63   c-3.78,0.811-5.973,1.83-7.5,3.48c-0.66,0.72-1.2,1.438-1.2,1.59c0,0.147,0.3,1.17,0.63,2.25c0.479,1.38,0.811,1.95,1.17,1.95   c0.27,0,1.5,0.357,2.73,0.777c1.229,0.42,3.777,1.143,5.67,1.65c5.52,1.41,6.3,1.107,3.51-1.29c-0.87-0.75-1.92-1.979-2.34-2.76   c-0.66-1.29-0.69-1.44-0.271-2.19c0.24-0.45,1.141-1.2,1.95-1.68c3.12-1.8,3.72-3.182,1.8-3.99   C644.7,608.88,643.38,608.91,639.9,609.63z" style="stroke:black;fill:#BFDAE3"/><path id="180623552" parent_id="180608862" order="19" structure_id="1" d="M545.88,551.16c0.15,2.37,0,4.62-0.6,9.54   c-0.421,3.54-0.87,8.1-0.96,10.108l-0.211,3.659l2.641,2.88c1.47,1.592,4.05,4.11,5.73,5.58c2.55,2.223,3.118,2.881,3.3,3.75   c0.147,0.841,0.06,1.262-0.48,1.98c-1.02,1.38-0.689,1.62,2.46,1.857c1.563,0.092,6.66,0.66,11.34,1.23   c4.683,0.57,10.74,1.229,13.473,1.47c2.729,0.24,5.97,0.66,7.17,0.931c4.89,1.021,9.3,2.939,12.027,5.222   c3.063,2.55,4.86,3.75,8.132,5.397c4.739,2.433,8.761,3.87,13.198,4.74c2.07,0.42,4.23,0.99,4.83,1.29   c1.08,0.57,2.972,2.46,2.972,3c0,0.63,0.778,0.24,1.591-0.75c1.107-1.38,3.239-2.43,6.54-3.21c2.25-0.51,2.67-0.72,2.67-1.2   c0-0.569-0.12-0.569-2.61-0.329c-7.83,0.75-14.159-0.541-24.09-4.921c-12.54-5.55-19.351-10.14-26.22-17.729   c-2.73-3.03-6.87-8.643-8.91-12.03c-0.9-1.5-1.771-2.729-1.95-2.729c-0.21,0-0.568,0.512-0.811,1.142   c-0.602,1.5-2.312,2.97-3.721,3.238c-0.631,0.12-1.711,0.062-2.488-0.148c-4.262-1.14-8.432-5.521-16.2-16.979   c-4.142-6.118-7.44-10.051-8.433-10.051C545.73,548.1,545.73,548.311,545.88,551.16z" style="stroke:black;fill:#BFDAE3"/><path id="180623552" parent_id="180608862" order="20" structure_id="1" d="M732.21,556.439   c-0.18,0.961-2.31,3.211-3.271,3.541c-0.75,0.209-0.689,0.51,0.541,3.42c1.5,3.539,3.118,10.05,3.33,13.317   c0.147,2.46,0.09,2.94-0.632,4.83c-0.448,1.142-1.409,3.183-2.101,4.5c-0.721,1.32-2.28,4.142-3.45,6.3   c-2.067,3.78-2.488,4.95-1.8,4.95c0.18,0,2.88-1.08,5.97-2.397c4.53-1.95,6.513-2.61,10.23-3.45c2.55-0.57,5.31-1.261,6.119-1.53   c2.278-0.75,5.551-2.52,5.551-3.06c0-0.24-0.9-1.38-1.98-2.521c-3.539-3.778-5.22-7.107-5.22-10.38c0-2.91,0.78-4.53,6.359-13.14   c1.291-1.98,2.341-3.78,2.341-3.96c0-0.632-0.87-0.393-2.312,0.657c-0.811,0.541-1.921,1.17-2.551,1.382   c-0.96,0.358-1.199,0.329-1.89-0.119c-0.45-0.302-0.932-0.933-1.11-1.41c-0.358-1.08-0.479-1.11-5.938-1.32   c-2.399-0.09-5.159-0.239-6.182-0.33l-1.829-0.18L732.21,556.439z" style="stroke:black;fill:#BFDAE3"/><path id="180623552" parent_id="180608862" order="21" structure_id="1" d="M783.6,526.89   c-1.89,1.86-5.88,5.342-8.85,7.683c-5.939,4.71-8.46,7.05-11.52,10.68c-6.24,7.352-16.263,22.5-17.313,26.189   c-0.87,2.971-0.09,6.358,2.222,9.721c1.288,1.857,4.561,5.34,5.011,5.34c0.897,0,3.09-3.09,5.159-7.229   c7.289-14.67,19.229-28.859,30.658-36.449c3.03-2.04,8.37-4.65,11.013-5.4c1.05-0.3,1.92-0.72,1.92-0.93   c0-0.18-0.813-0.84-1.803-1.44c-4.288-2.608-9.6-7.317-11.55-10.29c-0.45-0.688-0.988-1.26-1.17-1.26   C787.2,523.5,785.49,525.03,783.6,526.89z" style="stroke:black;fill:#BFDAE3"/><path id="180623552" parent_id="180608862" order="22" structure_id="1" d="M807.21,489.51   c-2.28,5.76-4.92,11.07-8.22,16.53c-2.79,4.649-7.08,11.1-9.45,14.22c-0.96,1.26-1.74,2.58-1.74,2.88   c0,2.763,12.45,13.29,15.69,13.263c2.82-0.03,9.63-2.103,13.32-4.053c8.067-4.26,12.688-10.71,14.788-20.55   c1.08-5.01,0.569-7.859-1.858-10.229c-1.08-1.052-1.2-1.08-3.9-1.261c-8.01-0.512-13.229-5.371-15.54-14.552   c-0.18-0.688-0.51-1.26-0.72-1.26C809.34,484.5,808.38,486.54,807.21,489.51z" style="stroke:black;fill:#BFDAE3"/><path id="180623552" parent_id="180608862" order="23" structure_id="1" d="M825.87,456.39   c-3.181,1.11-3.811,1.74-5.49,5.643c-1.56,3.6-6.54,13.77-8.76,17.85c-1.11,2.04-1.32,2.7-1.32,4.08   c0,3.603,2.341,8.853,5.25,11.82c3.21,3.27,6.57,4.47,11.88,4.26c2.761-0.12,3.33-0.24,4.92-1.05c3.57-1.83,6.603-5.28,8.82-10.051   c2.16-4.562,3-9.779,3.03-18.359v-5.04l-0.96-1.86c-1.44-2.67-4.472-5.64-7.021-6.84c-1.858-0.87-2.397-0.988-5.22-1.08   C828.33,455.7,827.55,455.79,825.87,456.39z" style="stroke:black;fill:#BFDAE3"/><path id="180623552" parent_id="180608862" order="24" structure_id="1" d="M842.4,486.27   c-2.011,6.271-7.44,12.393-12,13.563c-0.841,0.21-1.5,0.54-1.5,0.688c0.027,0.36,4.5,4.2,7.857,6.723   c10.44,7.83,24.99,15.479,41.19,21.66c6.09,2.31,12.96,4.59,13.317,4.38c0.33-0.21,2.16-4.71,3.541-8.73   c0.569-1.647,1.619-5.58,2.369-8.698c0.723-3.149,1.53-6.359,1.801-7.142c0.271-0.81,0.392-1.53,0.302-1.62   c-0.092-0.09-3.03-1.14-6.54-2.34c-14.94-5.07-25.979-9.6-42.479-17.521c-3.448-1.682-6.511-3.029-6.75-3.029   C843.24,484.2,842.82,484.95,842.4,486.27z" style="stroke:black;fill:#BFDAE3"/><path id="180623552" parent_id="180608862" order="25" structure_id="1" d="M844.41,471.061   c-0.12,3.512-0.42,7.802-0.66,9.512c-0.27,1.71-0.45,3.147-0.359,3.21c0.062,0.06,2.789,1.408,6.091,3   c12.42,6,23.341,10.68,34.141,14.67c6.18,2.279,15.03,5.25,15.6,5.25c0.211,0,0.69-0.813,1.08-1.892   c1.29-3.568,3.96-8.25,7.29-12.688c3.63-4.891,8.313-11.853,8.313-12.36c0-0.42-0.511-0.54-4.052-0.96   c-7.979-0.96-26.459-4.47-41.131-7.8c-8.34-1.89-21.028-5.01-23.67-5.82C844.411,464.372,844.62,463.92,844.41,471.061z" style="stroke:black;fill:#BFDAE3"/><path id="180623552" parent_id="180608862" order="26" structure_id="1" d="M842.79,445.26c0.12,1.051,0.39,3.84,0.66,6.24   c0.239,2.4,0.568,6.24,0.688,8.55l0.209,4.2l1.2,0.39c4.29,1.41,25.29,6.393,38.37,9.092c12.479,2.579,29.01,5.368,31.8,5.368   c0.63,0,1.021-0.51,2.73-3.567c3.96-7.2,9.42-19.563,9.06-20.551c-0.119-0.302-0.54-0.479-1.17-0.479   c-1.528,0-18.569-1.95-31.648-3.6c-19.021-2.433-38.819-5.28-47.642-6.9C842.28,443.13,842.58,443.04,842.79,445.26z" style="stroke:black;fill:#BFDAE3"/><path id="180623552" parent_id="180608862" order="27" structure_id="1" d="M598.65,508.71c0.42,1.68,2.369,6.63,3.897,9.84   c5.13,10.891,14.4,24.36,26.79,39c3.75,4.41,6.09,6.78,9.96,9.99c8.312,6.93,11.7,11.1,12.96,16.08c0.36,1.35,0.54,1.59,2.432,2.79   c1.108,0.72,3.479,2.1,5.25,3.12c3.961,2.22,5.761,3.96,5.761,5.55c0,0.6-0.271,1.56-0.63,2.1c-0.66,1.11-3.9,3.393-6.78,4.771   c-1.021,0.479-1.86,1.05-1.86,1.26c-0.028,0.36,1.32,0.689,5.94,1.5c1.95,0.33,4.68,0.51,8.43,0.51h5.55l9.603-1.83   c11.608-2.22,14.52-2.67,20.55-3.09c2.55-0.18,6.24-0.51,8.16-0.75c3-0.39,4.59-0.688,8.55-1.56c0.391-0.091,0.78-0.512,0.96-1.053   c0.182-0.51,1.53-3.09,3-5.76c1.472-2.64,3.271-6.06,3.99-7.528c1.198-2.521,1.29-2.909,1.38-5.552c0.12-3.3-0.57-7.17-2.07-11.698   c-0.897-2.699-2.22-5.699-2.52-5.699c-0.062,0-1.11,0.33-2.312,0.72c-3.721,1.26-8.371,1.771-14.188,1.59   c-7.142-0.21-9.69-1.02-13.892-4.41c-4.08-3.3-6.898-8.1-9.358-15.897c-2.28-7.17-3.631-9.72-7.683-14.25   c-4.379-4.92-9.868-8.97-17.368-12.813c-5.222-2.64-10.109-4.619-15.239-6.147c-3.33-0.99-3.99-1.11-7.41-1.11   c-3.12-0.03-4.142,0.09-6,0.69c-3.21,0.989-6.03,2.397-9.45,4.68c-1.62,1.11-3.51,2.22-4.17,2.46   c-1.647,0.602-4.979,0.57-7.38-0.06c-3.99-1.021-10.351-4.591-12.9-7.2C599.311,507.63,598.35,507.51,598.65,508.71z" style="stroke:black;fill:#BFDAE3"/><path id="180623552" parent_id="180608862" order="28" structure_id="1" d="M835.8,417.3c0,0.182,0.42,1.141,0.9,2.13   c1.95,3.84,3.54,9.75,4.979,18.631l0.841,4.979l3.302,0.63c10.108,1.891,33.028,5.13,55.979,7.98   c10.562,1.289,24.603,2.85,25.74,2.85c0.45,0,0.87-0.96,2.25-5.189c2.521-7.591,5.939-20.431,5.58-20.729   c-0.062-0.03-3.391-0.36-7.38-0.72c-17.73-1.62-61.682-6.75-83.852-9.813C835.439,416.85,835.8,416.88,835.8,417.3z" style="stroke:black;fill:#BFDAE3"/><path id="180623552" parent_id="180608862" order="29" structure_id="1" d="M671.85,273.15   c-0.659,0.21-2.88,0.75-4.948,1.2c-8.189,1.74-13.021,3.87-16.352,7.2c-6.6,6.57-15.51,27.75-18.12,43.08   c-1.05,6.06-1.319,12.12-1.14,24.72c0.09,6.42,0.33,13.86,0.54,16.5c0.45,5.762,0.54,31.08,0.15,43.802   c-0.183,6.81-0.15,9.96,0.118,12.897c0.239,2.13,0.42,5.25,0.449,6.9l0.062,3l1.858,2.85c5.342,8.103,6.813,14.46,5.37,23.103   c-0.3,1.947-0.3,1.979,0.63,3.3c0.99,1.438,1.53,3.567,1.53,6.12c0,1.317,0.21,1.89,1.53,4.05c2.88,4.8,11.907,16.38,16.619,21.3   c4.801,5.01,12.209,11.28,25.948,21.96c17.881,13.892,40.44,32.7,44.223,36.9c0.75,0.81,1.527,1.948,1.71,2.52   c0.448,1.23,0.567,1.263,7.02,1.5c2.49,0.09,5.07,0.24,5.763,0.36l1.26,0.148l0.33-1.291c0.539-2.039,2.55-5.607,4.528-8.067   c7.829-9.78,15.722-15.603,19.319-14.22c0.601,0.237,1.351,1.68,1.351,2.67c0,0.447,0.182,0.75,0.421,0.75   c0.601,0,7.829-5.883,11.221-9.15c3.75-3.57,5.91-6.3,10.858-13.71c6.632-9.93,9.479-15.24,13.382-24.84   c1.379-3.392,3.18-7.83,4.02-9.9c12.391-30.147,13.141-65.46,2.25-104.52c-6.63-23.852-14.97-41.221-27.03-56.432   c-3.42-4.318-12.51-13.38-17.068-17.01c-10.142-8.07-21.449-15.03-30.329-18.66c-11.882-4.83-26.432-7.92-43.171-9.18   C689.91,272.55,673.35,272.64,671.85,273.15z" style="stroke:black;fill:#BFDAE3"/><path id="180623552" parent_id="180608862" order="30" structure_id="1" d="M829.71,420.51   c-0.33,12.36-1.71,20.34-5.521,31.65c-0.932,2.76-1.619,5.13-1.5,5.22c0.12,0.12,0.988-0.148,1.92-0.569   c4.318-1.921,7.95-1.858,12.061,0.239c1.98,0.99,4.471,3.3,5.76,5.28c1.53,2.4,1.86,2.04,1.62-1.771   c-0.3-4.802-1.29-14.342-1.979-19.109c-2.37-16.41-5.553-25.261-9.9-27.45C829.8,412.77,829.92,412.5,829.71,420.51z" style="stroke:black;fill:#BFDAE3"/><path id="180623552" parent_id="180608862" order="31" structure_id="1" d="M878.939,362.07   c-45.512,7.05-55.439,8.64-55.439,9.028c0,0.24,0.48,2.462,1.05,4.95c1.44,6.271,2.432,11.82,3.271,18.54   c0.868,6.63,1.68,15,1.68,17.01v1.383l1.38,0.357c0.932,0.24,1.86,0.84,2.91,1.83l1.561,1.47l5.25,0.78   c21.091,3.09,83.791,10.32,92.852,10.74l2.068,0.09l0.512-2.7c3.12-16.47,3.39-41.91,0.72-66.6c-0.63-5.641-0.6-5.55-1.59-5.521   C934.71,353.46,909.42,357.33,878.939,362.07z" style="stroke:black;fill:#BFDAE3"/><path id="180623552" parent_id="180608862" order="32" structure_id="1" d="M817.59,244.5   c-23.55,23.91-42.87,43.65-42.899,43.86c-0.061,0.21,1.2,1.53,2.762,2.94c11.37,10.14,23.067,26.19,32.067,44.102   c5.342,10.528,10.23,22.948,12.962,32.818c0.301,1.11,0.721,2.102,0.868,2.16c0.393,0.15,112.291-17.1,112.53-17.34   c0.36-0.36-1.95-14.55-3.96-24.3c-5.7-27.75-15.359-53.88-27.18-73.53c-5.58-9.3-14.49-21.51-24.12-33.06   c-7.44-8.91-18.87-21.15-19.71-21.15C860.641,201,841.17,220.56,817.59,244.5z" style="stroke:black;fill:#BFDAE3"/><path id="180623552" parent_id="180608862" order="33" structure_id="1" d="M723.6,127.35c0,0.06-4.739,27.51-10.5,60.96   c-5.789,33.45-10.47,61.08-10.438,61.38c0.06,0.42,1.62,1.14,6.688,3.03c18.541,6.96,36.961,16.11,50.552,25.11   c3.209,2.16,5.068,3.21,5.341,3.06c0.84-0.51,78.659-95.04,78.659-95.55c0-0.87-11.069-9.81-20.369-16.44   c-23.82-16.92-47.79-28.65-73.95-36.18C740.01,129.99,723.6,126.57,723.6,127.35z" style="stroke:black;fill:#BFDAE3"/><path id="180623552" parent_id="180608862" order="34" structure_id="1" d="M681,121.83c0,0.21-2.7,26.67-6,58.83   c-3.3,32.19-6,58.86-6,59.28c0,0.78,0.18,0.87,4.59,2.25c2.49,0.78,6.18,1.77,8.19,2.16c4.318,0.9,9.75,2.37,15.78,4.26   c2.459,0.75,4.527,1.32,4.618,1.2c0.239-0.24,21.119-120.93,21.119-122.1c0-0.45-0.18-0.81-0.358-0.81   c-0.209,0-2.129-0.27-4.289-0.6c-6.48-1.02-21.183-2.938-28.5-3.75c-3.78-0.42-7.41-0.81-8.011-0.9   C681.391,121.53,681,121.62,681,121.83z" style="stroke:black;fill:#BFDAE3"/><path id="180623552" parent_id="180608862" order="35" structure_id="1" d="M632.25,119.91c-5.91,0.3-18.78,1.83-19.2,2.25   c-0.09,0.09,4.591,25.47,10.44,56.37l10.59,56.22l5.22,0.18c6.42,0.24,12.511,1.2,20.7,3.33c8.46,2.16,8.37,2.16,8.58,1.95   c0.18-0.18,12.12-115.83,12.12-117.54v-1.11l-1.561-0.18c-2.58-0.3-12.842-1.05-18.842-1.38   C655.32,119.73,636.78,119.67,632.25,119.91z" style="stroke:black;fill:#BFDAE3"/><path id="180623552" parent_id="180608862" order="36" structure_id="1111022260200000" d="M606,123.42   c-20.55,4.68-33.3,11.04-45.09,22.38c-4.11,3.93-8.01,8.28-8.01,8.88c0,0.24,15.75,18.812,34.979,41.312   c19.261,22.47,35.04,40.89,35.07,40.95c0.028,0.03,1.26-0.27,2.699-0.69c1.438-0.42,3.898-0.9,5.459-1.11   c2.642-0.33,2.819-0.39,2.729-0.96c-0.061-0.358-4.83-25.648-10.59-56.22l-10.5-55.56l-1.2,0.03   C610.891,122.43,608.4,122.88,606,123.42z" style="stroke:black;fill:#1F9D5A"/><path id="180623552" parent_id="180608862" order="37" structure_id="1" d="M549.75,158.4   c-2.97,4.05-6.21,9.39-7.02,11.55c-0.813,2.16-1.74,6.75-2.132,10.62c-0.148,1.71-0.301,9-0.301,16.2v13.08l36.54,15.96   c20.07,8.79,36.75,16.05,37.021,16.17c0.358,0.12,1.171-0.27,2.398-1.23c1.052-0.75,2.882-1.86,4.08-2.46   c1.563-0.78,2.16-1.23,2.102-1.59c-0.119-0.66-69.539-81.6-69.959-81.6C552.3,155.1,551.07,156.6,549.75,158.4z" style="stroke:black;fill:#BFDAE3"/><path id="180623552" parent_id="180608862" order="38" structure_id="1" d="M641.55,470.46c-0.06,0.21-0.51,1.86-0.96,3.69   c-0.779,3.09-0.84,3.688-0.84,9.447c0.03,7.08,0.359,9.063,2.67,14.61c1.74,4.26,2.34,6.45,2.4,8.61l0.027,1.77l2.58,0.69   c6.45,1.71,16.382,6.18,22.17,9.96c4.08,2.67,7.11,5.13,9.932,8.068c4.771,4.979,6.181,7.472,8.851,15.569   c2.58,7.89,4.229,10.86,8.04,14.55c3.811,3.66,6.78,4.92,12.75,5.37c7.141,0.54,15.54-0.569,19.2-2.58   c3.897-2.1,4.739-4.38,2.67-7.2c-2.7-3.688-24.899-22.289-47.79-40.08c-10.71-8.34-16.29-13.05-21.48-18.237   c-6.027-6-15.237-17.46-18.33-22.86C642.48,470.189,641.82,469.68,641.55,470.46z M651.6,499.98c3.603,2.397,7.92,6.538,8.16,7.77   c0.15,0.87-1.229,0.93-2.82,0.12c-4.14-2.102-7.317-5.04-8.487-7.86C647.55,497.88,648.45,497.88,651.6,499.98z" style="stroke:black;fill:#BFDAE3"/><path id="180623552" parent_id="180608862" order="39" structure_id="1" d="M540.75,210.3c-0.42,0-0.45,3.78-0.391,34.11c0.091,38.07-0.062,35.19,2.221,39.9   c1.229,2.58,4.02,5.76,5.279,6c1.229,0.24,1.021,0.54-0.72,0.96c-2.939,0.75-5.58,2.4-6.422,3.96c-0.237,0.51-0.54,1.86-0.63,3   c-0.05,0.555-0.09,0.973-0.09,1.286v0.069c0.021,0.932,0.47,0.802,2.37,0.355c0.84-0.18,1.528-0.45,1.528-0.6   c0-0.45,2.312-1.41,4.229-1.74c1.62-0.27,2.16-0.27,3.271,0.12c1.771,0.63,7.262,0.63,10.439,0.03   c5.551-1.05,13.74-4.02,17.91-6.48c8.52-5.04,12.96-10.89,21.811-28.68c5.58-11.25,7.799-15.03,10.619-18.09   c0.93-0.99,1.62-1.95,1.563-2.13C613.62,241.98,541.47,210.3,540.75,210.3z" style="stroke:black;fill:#BFDAE3"/><path id="180623552" parent_id="180608862" order="40" structure_id="1" d="M540,299.585v-0.069C540,299.539,540,299.563,540,299.585z" style="stroke:black;fill:#BFDAE3"/><path id="180623552" parent_id="180608862" order="41" structure_id="1" d="M640.62,279.27   c-7.47,2.94-18.36,10.11-30.12,19.8c-2.22,1.859-5.28,4.38-6.811,5.609c-3.239,2.67-7.979,5.432-12.479,7.32   c-2.28,0.93-3.21,1.47-3.21,1.83c0,0.6,2.37,3.99,5.641,8.069c3.989,4.979,17.129,20.671,21.209,25.351   c5.7,6.54,8.91,10.38,11.521,13.86c1.26,1.71,2.46,3.09,2.7,3.09c0.329,0,0.357-0.36,0.21-1.74c-1.44-12.93-1.381-28.2,0.147-38.91   c0.722-5.01,1.802-9.66,3.9-16.35c3.27-10.62,6.27-17.88,8.82-21.48c2.25-3.149,2.789-5.188,1.77-6.66   C643.35,278.22,643.2,278.25,640.62,279.27z" style="stroke:black;fill:#BFDAE3"/><path id="180623552" parent_id="180608862" order="42" structure_id="1" d="M585.689,314.25   c-4.08,1.77-16.649,5.46-23.939,7.05c-2.311,0.48-6.21,1.38-8.641,2.011l-4.47,1.109l0.209,1.05c0.42,2.341,2.909,5.28,5.579,6.63   c2.882,1.5,3.421,1.59,11.07,1.802c10.562,0.329,12.96,0.84,28.74,6.42c8.25,2.909,15.027,5.01,17.398,5.43   c1.682,0.271,1.682-0.21-0.031-2.13c-1.979-2.28-15.688-18.78-18.447-22.26c-1.38-1.71-3.15-4.11-3.99-5.342   C587.609,313.68,587.311,313.53,585.689,314.25z" style="stroke:black;fill:#BFDAE3"/><path id="180623552" parent_id="180608862" order="43" structure_id="1" d="M828.811,403.95c-0.778-7.41-1.92-15.602-2.791-20.25c-7.17-38.312-28.737-76.89-54.42-97.38   c-17.43-13.892-44.277-27.75-70.948-36.57c-12.271-4.08-20.132-5.91-27.659-6.48c-12.45-0.96-28.352,2.07-40.23,7.71   c-6.357,3-8.25,4.44-13.14,9.87c-9.03,10.05-13.5,14.4-20.13,19.44c-6.9,5.22-14.91,9.66-23.49,13.02   c-10.857,4.26-13.438,4.86-22.05,5.19c-6.03,0.21-6.933,0.3-10.262,1.2l-3.658,0.96l-0.03-0.008V327l4.351-1.35   c4.949-1.53,10.142-2.881,18.062-4.65c15.27-3.42,30.18-8.82,37.59-13.65c1.08-0.688,3.99-2.938,6.45-4.979   c15.51-12.87,24.21-18.87,32.67-22.53c4.739-2.07,15.149-4.83,24.149-6.42c3.931-0.69,5.37-0.78,14.37-0.93   c18.148-0.271,32.13,1.11,46.021,4.59c11.46,2.88,19.32,6.03,27.84,11.16c23.521,14.188,37.74,29.04,49.08,51.21   c7.38,14.43,13.29,31.89,17.189,50.85c5.851,28.5,4.891,55.683-2.819,79.32c-0.75,2.31-1.351,4.38-1.351,4.59   c0,1.92,3.061-3.72,6.931-12.75c4.26-9.93,6.87-19.08,8.28-29.01C829.561,426.99,829.561,411.27,828.811,403.95z" style="stroke:black;fill:#BFDAE3"/><path id="180623552" parent_id="180608862" order="44" structure_id="1" d="M554.55,342c-0.239-1.35-1.8-4.08-3.3-5.73c-1.29-1.438-1.859-3.358-2.311-7.77   c-0.182-1.89-0.42-3.57-0.539-3.689c-0.12-0.149-2.07,0.329-4.32,1.021l-4.08,1.26v24.929c0.835-0.015,1.65,0.554,3.12,1.683   c1.08,0.84,2.069,1.5,2.25,1.5c0.3,0,5.7-5.97,7.68-8.521C554.52,344.79,554.85,343.74,554.55,342z" style="stroke:black;fill:#BFDAE3"/><path id="180623552" parent_id="180608862" order="45" structure_id="1" d="M580.8,432.15c-1.38-16.74-8.7-35.4-24.09-61.353c-4.68-7.859-6.12-9.898-9.63-13.38   c-3.271-3.271-6.124-5.475-7.08-5.513v27.098c0.232-0.018,0.441,0.104,0.811,0.344c2.279,1.44,11.369,11.432,13.92,15.301   c1.802,2.729,5.67,10.801,7.859,16.351c5.82,14.79,8.4,27.33,7.891,38.311c-0.301,6.359-0.601,6.631,6.512-6.211l4.079-7.38   L580.8,432.15z" style="stroke:black;fill:#BFDAE3"/><path id="180623552" parent_id="180608862" order="46" structure_id="1" d="M828.811,403.95c-0.778-7.41-1.92-15.602-2.791-20.25c-7.17-38.312-28.737-76.89-54.42-97.38   c-17.43-13.892-44.277-27.75-70.948-36.57c-12.271-4.08-20.132-5.91-27.659-6.48c-12.45-0.96-28.352,2.07-40.23,7.71   c-6.357,3-8.25,4.44-13.14,9.87c-9.03,10.05-13.5,14.4-20.13,19.44c-6.9,5.22-14.91,9.66-23.49,13.02   c-10.857,4.26-13.438,4.86-22.05,5.19c-6.03,0.21-6.933,0.3-10.262,1.2l-3.658,0.96l-0.03-0.008V327l4.351-1.35   c4.949-1.53,10.142-2.881,18.062-4.65c15.27-3.42,30.18-8.82,37.59-13.65c1.08-0.688,3.99-2.938,6.45-4.979   c15.51-12.87,24.21-18.87,32.67-22.53c4.739-2.07,15.149-4.83,24.149-6.42c3.931-0.69,5.37-0.78,14.37-0.93   c18.148-0.271,32.13,1.11,46.021,4.59c11.46,2.88,19.32,6.03,27.84,11.16c23.521,14.188,37.74,29.04,49.08,51.21   c7.38,14.43,13.29,31.89,17.189,50.85c5.851,28.5,4.891,55.683-2.819,79.32c-0.75,2.31-1.351,4.38-1.351,4.59   c0,1.92,3.061-3.72,6.931-12.75c4.26-9.93,6.87-19.08,8.28-29.01C829.561,426.99,829.561,411.27,828.811,403.95z" style="stroke:black;fill:#BFDAE3"/><path id="180623552" parent_id="180608862" order="47" structure_id="1" d="M604.47,499.98c-2.37,4.14-3.84,7.38-3.87,8.43   c0,1.38,6.57,5.58,11.25,7.17c3.12,1.08,8.041,1.229,9.75,0.3c1.95-1.08,6.9-4.47,6.9-4.77c0-0.15-0.48-1.08-1.05-2.013   c-1.141-1.857-2.25-4.77-2.25-5.85c0-0.63-0.182-0.66-2.761-0.84c-4.859-0.33-10.319-2.34-13.682-5.01   c-0.84-0.66-1.68-1.2-1.83-1.2C606.78,496.2,605.67,497.91,604.47,499.98z" style="stroke:black;fill:#BFDAE3"/><path id="180623552" parent_id="180608862" order="48" structure_id="1" d="M575.1,446.61c-1.89,3.42-3.989,7.02-4.619,8.04   c-2.131,3.3-3.42,7.527-8.041,26.397c-2.938,11.971-3.027,12.392-3.06,15.9c-0.03,4.17,0.45,6.06,2.07,8.31   c2.76,3.78,10.17,4.83,16.68,2.37c4.771-1.8,9.69-6.24,13.05-11.76c0.931-1.562,1.2-2.312,1.353-4.021   c0.237-2.487,2.43-9.237,5.039-15.479c1.801-4.32,1.83-4.41,1.83-7.23c0-8.31-3.062-15.81-8.852-21.63   c-3.42-3.449-9.271-7.08-11.398-7.107C578.67,440.4,577.8,441.72,575.1,446.61z" style="stroke:black;fill:#BFDAE3"/><path id="180623552" parent_id="180608862" order="49" structure_id="1" d="M596.641,560.22   c-5.188,0.933-9.541,2.91-12.239,5.58c-1.979,1.95-2.972,3.84-3.211,6.12c-0.33,3.15-0.028,3.93,3.12,8.13   c4.859,6.48,10.619,12.063,16.319,15.813c4.14,2.729,14.13,7.59,20.07,9.75c5.64,2.039,8.609,2.607,13.95,2.607   c4.317,0.03,5.13-0.06,8.1-0.84c12.51-3.21,22.2-8.1,22.83-11.46c0.39-2.16-0.96-3.75-5.221-6.09   c-3.569-1.98-6.392-3.75-13.05-8.19c-10.472-6.989-17.791-11.25-26.609-15.51C609.33,560.67,603,559.11,596.641,560.22z" style="stroke:black;fill:#BFDAE3"/><path id="180623552" parent_id="180608862" order="50" structure_id="1" d="M596.85,507.811   c1.711,19.142,6.511,40.739,10.95,49.262c1.71,3.3,3.15,4.857,5.13,5.55c4.472,1.56,16.17,7.47,23.07,11.67   c1.891,1.17,6.18,3.898,9.54,6.12c3.36,2.188,6.24,3.989,6.42,3.989c0.84,0-0.81-4.199-2.819-7.109   c-1.409-2.102-5.551-6.15-9.841-9.66c-5.01-4.08-11.01-10.8-19.71-22.08c-9.75-12.63-17.4-25.83-20.64-35.55   c-0.87-2.67-1.5-4.08-1.8-4.14C596.73,505.77,596.7,506.04,596.85,507.811z" style="stroke:black;fill:#BFDAE3"/><path id="180623552" parent_id="180608862" order="51" structure_id="1" d="M631.439,235.2   c-10.021,1.17-17.039,5.4-22.5,13.65c-1.109,1.65-4.142,7.38-6.779,12.75c-6.96,14.1-9.93,18.84-15.12,24.09   c-1.62,1.62-2.94,3.06-2.94,3.21c0,0.6,1.08,0.24,3.87-1.23c3.57-1.89,9.54-5.82,12.9-8.49c3.09-2.43,9.899-8.58,11.37-10.26   c0.63-0.69,3.449-3.84,6.3-6.99c4.29-4.74,5.64-6.03,7.92-7.53c7.17-4.8,18.54-8.76,30.54-10.65c1.859-0.3,5.85-0.57,9.84-0.66   c4.92-0.12,6.66-0.27,6.66-0.54c0-0.6-12.359-4.2-19.68-5.67C645.9,235.26,636.811,234.57,631.439,235.2z" style="stroke:black;fill:#BFDAE3"/><path id="180623552" parent_id="180608862" order="52" structure_id="1" d="M828.811,403.95c-0.778-7.41-1.92-15.602-2.791-20.25c-7.17-38.312-28.737-76.89-54.42-97.38   c-17.43-13.892-44.277-27.75-70.948-36.57c-12.271-4.08-20.132-5.91-27.659-6.48c-12.45-0.96-28.352,2.07-40.23,7.71   c-6.357,3-8.25,4.44-13.14,9.87c-9.03,10.05-13.5,14.4-20.13,19.44c-6.9,5.22-14.91,9.66-23.49,13.02   c-10.857,4.26-13.438,4.86-22.05,5.19c-6.03,0.21-6.933,0.3-10.262,1.2l-3.658,0.96l-0.03-0.008V327l4.351-1.35   c4.949-1.53,10.142-2.881,18.062-4.65c15.27-3.42,30.18-8.82,37.59-13.65c1.08-0.688,3.99-2.938,6.45-4.979   c15.51-12.87,24.21-18.87,32.67-22.53c4.739-2.07,15.149-4.83,24.149-6.42c3.931-0.69,5.37-0.78,14.37-0.93   c18.148-0.271,32.13,1.11,46.021,4.59c11.46,2.88,19.32,6.03,27.84,11.16c23.521,14.188,37.74,29.04,49.08,51.21   c7.38,14.43,13.29,31.89,17.189,50.85c5.851,28.5,4.891,55.683-2.819,79.32c-0.75,2.31-1.351,4.38-1.351,4.59   c0,1.92,3.061-3.72,6.931-12.75c4.26-9.93,6.87-19.08,8.28-29.01C829.561,426.99,829.561,411.27,828.811,403.95z" style="stroke:black;fill:#BFDAE3"/><path id="180623552" parent_id="180608862" order="53" structure_id="2113200030000000" d="M802.5,591.3   c-7.439,2.011-14.01,7.682-19.23,16.563c-1.288,2.188-3.27,6.63-3.27,7.317c0,0.54,0.9,0.54,1.65,0c0.33-0.21,5.067-2.76,10.5-5.67   c5.459-2.88,11.397-6.09,13.198-7.108c7.142-4.079,9.961-5.189,14.852-5.819c3.78-0.48,3.84-0.84,0.39-2.642   c-4.41-2.311-7.05-3-11.79-3.148C805.47,590.73,804.359,590.82,802.5,591.3z" style="stroke:black;fill:#CCCCCC"/><path id="180623552" parent_id="180608862" order="54" structure_id="1" d="M613.859,476.4   c-4.409,1.17-6.899,3.237-9,7.47c-0.899,1.83-1.109,2.64-1.199,4.439c-0.12,1.921-0.03,2.431,0.66,3.841   c2.88,5.85,10.979,10.05,19.319,10.05c3.271,0,5.188-0.66,6.72-2.28c2.58-2.76,3.75-9.75,2.311-14.01   c-1.35-4.05-4.05-7.471-7.2-9.09c-1.5-0.78-1.92-0.87-5.52-0.933C616.83,475.83,615.6,475.92,613.859,476.4z" style="stroke:black;fill:#BFDAE3"/><path id="180623552" parent_id="180608862" order="55" structure_id="1" d="M598.65,508.71   c0.42,1.68,2.369,6.63,3.897,9.84c5.13,10.891,14.4,24.36,26.79,39c3.75,4.41,6.09,6.78,9.96,9.99   c8.312,6.93,11.7,11.1,12.96,16.08c0.36,1.35,0.54,1.59,2.432,2.79c1.108,0.72,3.479,2.1,5.25,3.12   c3.961,2.22,5.761,3.96,5.761,5.55c0,0.6-0.271,1.56-0.63,2.1c-0.66,1.11-3.9,3.393-6.78,4.771c-1.021,0.479-1.86,1.05-1.86,1.26   c-0.028,0.36,1.32,0.689,5.94,1.5c1.95,0.33,4.68,0.51,8.43,0.51h5.55l9.603-1.83c11.608-2.22,14.52-2.67,20.55-3.09   c2.55-0.18,6.24-0.51,8.16-0.75c3-0.39,4.59-0.688,8.55-1.56c0.391-0.091,0.78-0.512,0.96-1.053c0.182-0.51,1.53-3.09,3-5.76   c1.472-2.64,3.271-6.06,3.99-7.528c1.198-2.521,1.29-2.909,1.38-5.552c0.12-3.3-0.57-7.17-2.07-11.698   c-0.897-2.699-2.22-5.699-2.52-5.699c-0.062,0-1.11,0.33-2.312,0.72c-3.721,1.26-8.371,1.771-14.188,1.59   c-7.142-0.21-9.69-1.02-13.892-4.41c-4.08-3.3-6.898-8.1-9.358-15.897c-2.28-7.17-3.631-9.72-7.683-14.25   c-4.379-4.92-9.868-8.97-17.368-12.813c-5.222-2.64-10.109-4.619-15.239-6.147c-3.33-0.99-3.99-1.11-7.41-1.11   c-3.12-0.03-4.142,0.09-6,0.69c-3.21,0.989-6.03,2.397-9.45,4.68c-1.62,1.11-3.51,2.22-4.17,2.46   c-1.647,0.602-4.979,0.57-7.38-0.06c-3.99-1.021-10.351-4.591-12.9-7.2C599.311,507.63,598.35,507.51,598.65,508.71z" style="stroke:black;fill:#BFDAE3"/><path id="180623552" parent_id="180608862" order="56" structure_id="1" d="M780.3,616.11   c-0.898,0.329-2.1,1.71-2.28,2.64c-0.39,2.189,1.32,4.05,3.69,4.05c2.101,0,3.66-1.56,3.69-3.72c0-0.9-0.211-1.35-1.021-2.16   c-0.87-0.87-1.229-1.02-2.311-0.99C781.35,615.93,780.54,616.02,780.3,616.11z" style="stroke:black;fill:#BFDAE3"/><path id="180623552" parent_id="180608862" order="57" structure_id="1" d="M540.54,579.061   c-0.09,6.029-0.03,7.739,0.271,8.279c1.021,1.71,3.959,2.49,9.812,2.55c3.238,0.063,3.45,0.03,4.2-0.659   c0.63-0.568,0.777-1.021,0.777-2.101c0-1.26-0.09-1.44-1.709-2.88c-3.301-2.91-7.051-6.63-9.78-9.689   c-1.5-1.681-2.88-3.061-3.091-3.061C540.75,571.5,540.63,573.33,540.54,579.061z" style="stroke:black;fill:#BFDAE3"/><path id="180623552" parent_id="180608862" order="58" structure_id="1" d="M545.37,548.61c-0.479-1.74-1.352-2.13-4.89-2.223c-0.164-0.005-0.322-0.007-0.48-0.01v6.37   c0.391,0,0.45,1.229,0.54,8.88l0.06,8.91l1.23,1.38c2.01,2.28,2.13,2.07,2.55-3.87c0.09-1.5,0.42-4.8,0.75-7.35   C545.76,555.57,545.88,550.35,545.37,548.61z" style="stroke:black;fill:#BFDAE3"/><path id="180623552" parent_id="180608862" order="59" structure_id="1" d="M631.29,434.01   c-0.78,0.99-0.931,1.472-1.08,3.54c-0.18,2.22-1.08,6.182-3.09,13.353c-0.72,2.607-0.811,3.42-0.9,9.51   c-0.12,7.41-0.479,9.84-1.92,12.93c-0.479,1.05-0.898,2.04-0.898,2.16c0,0.15,0.75,0.602,1.681,1.021   c3.45,1.591,7.021,6.329,8.069,10.711c0.568,2.459,0.568,3.987-0.029,6.657c-1.051,4.563-3.15,7.263-6.33,8.19l-1.62,0.479   l0.21,1.079c0.479,2.73,2.82,7.263,3.75,7.263c0.271,0,1.261-0.33,2.189-0.75c3.869-1.711,7.619-2.28,12.479-1.86   c0.75,0.062,0.75,0.03,0.69-2.188c-0.03-2.369-0.51-3.962-2.643-9.119c-2.908-6.961-3.238-15.24-1.02-24.093   c1.29-5.25,1.107-9.42-0.511-11.22c-0.75-0.81-1.142-0.72-1.562,0.45c-0.449,1.229-1.949,2.76-2.938,3   c-1.142,0.3-2.729-0.63-3.569-2.04c-1.47-2.55-1.8-4.41-1.771-9.93c0.029-7.382,1.052-12.42,3.119-15.393   c0.48-0.688,0.9-1.527,0.9-1.857c0-0.69-1.5-2.973-1.98-3C632.34,432.9,631.8,433.41,631.29,434.01z" style="stroke:black;fill:#BFDAE3"/><path id="180623552" parent_id="180608862" order="60" structure_id="1" d="M590.79,496.561   c-3.601,5.972-9.899,10.771-15.87,12.092c-2.97,0.688-7.05,0.479-9.45-0.421c-3.51-1.319-5.76-4.439-6.18-8.579   c-0.181-1.65-0.36-2.103-0.75-2.19c-0.33-0.06-0.54,0.09-0.54,0.33s-0.48,1.38-1.05,2.55c-1.23,2.432-2.97,4.143-5.432,5.34   c-0.898,0.45-1.618,0.9-1.618,1.053c0,0.447,4.709,8.88,10.107,18.117c5.46,9.33,8.07,14.04,10.591,19.053   c3.932,7.83,7.199,18.897,7.199,24.39c0,1.53,0.15,2.07,1.11,3.72c0.6,1.021,1.29,1.893,1.47,1.893c0.21,0,0.45-0.66,0.57-1.591   c0.3-2.462,1.71-5.041,3.75-6.871c4.948-4.5,14.55-6.778,21.3-5.068c4.08,1.021,4.2,0.93,2.58-1.74   c-3.42-5.608-6.96-18.028-9.602-33.63c-1.141-6.66-2.278-15.99-2.278-18.54c0-1.229-0.183-1.83-0.722-2.55   c-1.141-1.5-2.761-5.07-3.181-7.08c-0.21-0.99-0.54-1.83-0.72-1.83C591.896,495.006,591.3,495.72,590.79,496.561z" style="stroke:black;fill:#BFDAE3"/><path id="180623552" parent_id="180608862" order="61" structure_id="1" d="M766.109,533.52   c-5.521,2.28-16.021,13.23-18.779,19.593c-1.53,3.54-1.11,5.79,1.109,5.79c2.58,0,6.601-3.513,12.42-10.803   c1.921-2.397,4.891-5.729,6.659-7.438c1.739-1.71,3.302-3.36,3.479-3.66c0.148-0.3,0.3-1.11,0.3-1.771   c0-0.932-0.18-1.319-0.779-1.802C769.5,532.62,768.27,532.65,766.109,533.52z" style="stroke:black;fill:#BFDAE3"/><path id="180623552" parent_id="180608862" order="62" structure_id="1" d="M684.15,606.21   c-7.353,0.9-11.103,1.95-12.99,3.57c-2.312,1.979-1.23,3,2.79,2.67c9.6-0.813,16.35-2.94,16.35-5.103   C690.3,606.21,687.87,605.73,684.15,606.21z" style="stroke:black;fill:#BFDAE3"/><path id="180623552" parent_id="180608862" order="63" structure_id="1" d="M627.51,436.98   c-1.199,0.84-2.49,1.438-3.18,1.527c-1.08,0.15-1.35,0.393-2.82,2.46c-4.71,6.54-11.76,18.45-16.199,27.33   c-6.568,13.11-10.829,24.54-11.188,30c-0.15,2.19-0.15,2.313,0.989,4.17c0.631,1.051,1.921,2.763,2.881,3.813   c1.68,1.83,2.607,2.37,2.607,1.529c0-0.602,2.521-5.642,4.381-8.819c0.899-1.5,1.619-2.91,1.619-3.12c0-0.181-0.33-0.75-0.777-1.23   c-1.11-1.38-2.223-3.658-2.4-5.158c-0.239-1.649,0.689-4.829,1.95-6.842c3.21-5.04,7.08-6.96,14.04-6.987h3.688l0.723-1.353   c1.647-3.03,2.039-5.25,2.277-13.5l0.24-7.647l1.471-5.25c1.979-6.962,2.909-12.303,2.129-12.303   C629.73,435.6,628.65,436.23,627.51,436.98z" style="stroke:black;fill:#BFDAE3"/><path id="180623552" parent_id="180608862" order="64" structure_id="1" d="M634.109,437.01   c-0.959,1.11-2.102,3.84-2.699,6.63c-0.87,4.11-0.93,14.61-0.12,17.313c0.75,2.34,2.37,4.05,3.899,4.05   c3.271,0,5.278-5.49,4.92-13.5c-0.119-2.46-0.392-4.53-0.812-6c-0.778-2.76-3.75-9-4.317-9   C634.77,436.5,634.38,436.74,634.109,437.01z" style="stroke:black;fill:#BFDAE3"/><path id="180623552" parent_id="180608862" order="65" structure_id="1" d="M629.189,429.36   c-0.33,1.05-0.869,2.52-1.17,3.3c-0.302,0.779-0.449,1.5-0.359,1.62c0.33,0.3,1.29-0.15,2.279-1.11   c0.87-0.84,0.961-1.14,0.961-2.64C630.9,427.02,630.15,426.51,629.189,429.36z" style="stroke:black;fill:#BFDAE3"/><path id="180623552" parent_id="180608862" order="66" structure_id="4500000030000000" d="M667.35,272.91   c-6.33,0.84-22.709,4.53-23.489,5.31c-0.061,0.09,0.092,0.66,0.392,1.26c0.66,1.38,0.3,2.79-1.32,5.16   c-0.6,0.9-1.438,2.19-1.89,2.85c-2.58,3.78-8.55,21.18-10.561,30.688c-1.562,7.41-1.83,11.19-1.83,25.021   c0,10.319,0.118,13.62,0.539,17.25c1.109,9.27,1.229,11.58,1.229,25.8c0,12.51-0.061,15.36-0.66,21.75   c-0.358,4.05-0.72,8.43-0.81,9.75c-0.42,6-1.353,9.75-3.78,15.51c-1.47,3.54-1.83,5.34-1.08,5.34c0.689,0,3.03-1.317,5.221-2.938   c3.359-2.46,3.689-3.75,2.819-10.86c-0.54-4.5-0.569-12.358-0.09-25.647c0.42-11.61,0.3-19.32-0.45-33.603   c-0.6-10.979-0.66-29.79-0.15-34.648c0.843-7.682,2.19-13.65,4.951-21.75c4.439-13.08,9.989-23.82,14.521-28.05   c3.21-3.03,9.238-5.55,16.829-7.08C671.7,273.24,671.4,272.37,667.35,272.91z M630.9,428.61c0.51,3.12,0.18,3.897-2.433,5.79   c-1.14,0.81-2.1,1.5-2.158,1.5c-0.062,0,0.479-1.17,1.198-2.643c0.723-1.438,1.591-3.72,1.95-5.068   c0.391-1.352,0.78-2.279,0.87-2.102C630.45,426.3,630.689,427.439,630.9,428.61z" style="stroke:black;fill:#BFDAE3"/><path id="180623552" parent_id="180608862" order="67" structure_id="1" d="M547.35,297.51   c-1.647,0.36-2.55,0.78-2.55,1.17c0,0.48,0.54,0.51,2.25,0.15c0.66-0.15,1.98-0.36,2.94-0.48c1.199-0.12,1.71-0.33,1.71-0.63   c0-0.33-0.42-0.42-1.86-0.39C548.79,297.36,547.68,297.42,547.35,297.51z" style="stroke:black;fill:#BFDAE3"/><path id="180623552" parent_id="180608862" order="68" structure_id="1" d="M631.29,434.01   c-0.78,0.99-0.931,1.472-1.08,3.54c-0.18,2.22-1.08,6.182-3.09,13.353c-0.72,2.607-0.811,3.42-0.9,9.51   c-0.12,7.41-0.479,9.84-1.92,12.93c-0.479,1.05-0.898,2.04-0.898,2.16c0,0.15,0.75,0.602,1.681,1.021   c3.45,1.591,7.021,6.329,8.069,10.711c0.568,2.459,0.568,3.987-0.029,6.657c-1.051,4.563-3.15,7.263-6.33,8.19l-1.62,0.479   l0.21,1.079c0.479,2.73,2.82,7.263,3.75,7.263c0.271,0,1.261-0.33,2.189-0.75c3.869-1.711,7.619-2.28,12.479-1.86   c0.75,0.062,0.75,0.03,0.69-2.188c-0.03-2.369-0.51-3.962-2.643-9.119c-2.908-6.961-3.238-15.24-1.02-24.093   c1.29-5.25,1.107-9.42-0.511-11.22c-0.75-0.81-1.142-0.72-1.562,0.45c-0.449,1.229-1.949,2.76-2.938,3   c-1.142,0.3-2.729-0.63-3.569-2.04c-1.47-2.55-1.8-4.41-1.771-9.93c0.029-7.382,1.052-12.42,3.119-15.393   c0.48-0.688,0.9-1.527,0.9-1.857c0-0.69-1.5-2.973-1.98-3C632.34,432.9,631.8,433.41,631.29,434.01z" style="stroke:black;fill:#BFDAE3"/><path id="180623552" parent_id="180608862" order="69" structure_id="1" d="M594.93,597.72   c-0.96,1.53-0.869,3.813,0.211,5.011c1.619,1.83,4.682,1.439,6.029-0.721c0.93-1.529,0.811-2.16-0.63-3.24   C597.33,596.43,595.891,596.16,594.93,597.72z" style="stroke:black;fill:#BFDAE3"/><path id="180623552" parent_id="180608862" order="70" structure_id="1" d="M626.4,389.88   c-6.57,3.51-14.791,8.73-18.933,12.061c-5.188,4.172-14.97,15.359-19.528,22.291c-2.312,3.538-8.939,15.181-8.939,15.721   c0,0.239,0.24,0.45,0.51,0.45c1.08,0,6,2.729,8.37,4.618c6.72,5.369,10.59,12.569,11.58,21.512c0.21,1.857,0.479,3.27,0.69,3.238   c0.147,0,1.05-1.561,1.947-3.479c5.58-11.852,13.44-23.58,20.103-30.09c2.85-2.79,2.938-2.91,4.05-5.853   c1.32-3.51,2.1-7.14,2.4-10.857c0.09-1.44,0.447-5.82,0.777-9.69c0.48-6.06,1.143-17.55,1.17-20.64   C630.6,387.811,630.15,387.9,626.4,389.88z" style="stroke:black;fill:#BFDAE3"/><path id="180623552" parent_id="180608862" order="71" structure_id="1" d="M580.8,432.15c-1.38-16.74-8.7-35.4-24.09-61.353c-4.68-7.859-6.12-9.898-9.63-13.38   c-3.271-3.271-6.124-5.475-7.08-5.513v27.098c0.232-0.018,0.441,0.104,0.811,0.344c2.279,1.44,11.369,11.432,13.92,15.301   c1.802,2.729,5.67,10.801,7.859,16.351c5.82,14.79,8.4,27.33,7.891,38.311c-0.301,6.359-0.601,6.631,6.512-6.211l4.079-7.38   L580.8,432.15z" style="stroke:black;fill:#BFDAE3"/><path id="180623552" parent_id="180608862" order="72" structure_id="1" d="M580.8,432.15c-1.38-16.74-8.7-35.4-24.09-61.353c-4.68-7.859-6.12-9.898-9.63-13.38   c-3.271-3.271-6.124-5.475-7.08-5.513v27.098c0.232-0.018,0.441,0.104,0.811,0.344c2.279,1.44,11.369,11.432,13.92,15.301   c1.802,2.729,5.67,10.801,7.859,16.351c5.82,14.79,8.4,27.33,7.891,38.311c-0.301,6.359-0.601,6.631,6.512-6.211l4.079-7.38   L580.8,432.15z" style="stroke:black;fill:#BFDAE3"/><path id="180623552" parent_id="180608862" order="73" structure_id="1" d="M569.82,437.939c-1.59-12.689-7.74-30.602-14.521-42.239c-2.938-5.021-13.375-16.269-15.3-16.489v116.896   l0.062-0.027l1.648,0.87c1.859,0.96,3.99,3.33,6.24,6.87c1.619,2.52,1.858,2.64,3.84,1.647c3.148-1.62,4.68-3.54,6.21-7.92   c0.51-1.5,2.608-9.479,4.649-17.729c3.601-14.49,5.341-20.7,6.448-22.92C570.33,454.47,570.689,444.78,569.82,437.939z" style="stroke:black;fill:#BFDAE3"/></g></g></svg>
