<svg xmlns="http://www.w3.org/2000/svg" width="3024px" height="3024px"><g transform="scale(1.0)"><g id="180608862" order="1" parent_id="" graphic_group_label_id="28" graphic_group_label="Atlas - Adult Rat" sub_image_id="100960468" transform=" scale(1.0, 1.0)"><path id="180623552" parent_id="180608862" order="0" structure_id="1" d="M950.88,408.39c-3.33-10.83-4.229-15.72-4.68-25.74c-0.57-11.7-1.62-19.95-4.08-32.1   c-5.79-28.17-17.76-61.23-30.12-83.1c-7.95-14.04-18.39-27.9-40.92-54.3c-10.44-12.24-23.79-25.59-34.561-34.59   c-8.133-6.78-22.263-17.19-27.659-20.43c-19.054-11.34-67.054-29.22-90.514-33.75c-20.366-3.9-50.88-6.21-76.646-5.76   c-16.32,0.27-23.97,0.81-33.813,2.46c-16.47,2.7-32.039,8.82-42.63,16.71c-7.29,5.43-12.72,11.43-15.72,17.46   c-3.72,7.41-6.84,19.2-8.34,31.44c-0.761,6.188-0.856,6.99-1.169,7.094v65.381c0.128,0.011,0.258,0.167,0.389,0.515   c0.09,0.27,0.18,0.81,0.18,1.23c0,1.32,1.44,7.95,2.28,10.44c0.9,2.73,1.98,4.98,3,6.36c0.93,1.23,0.9,1.65-0.12,2.4   c-1.106,0.81-2.7,3.87-2.938,5.61l-0.21,1.38h-2.579v368.046c11.226-0.016,22.58-0.938,35.369-2.8   c1.56-0.21,4.196-0.479,5.85-0.566c10.08-0.604,14.37-0.87,21.6-1.41c11.884-0.87,33.99-2.64,35.49-2.852   c1.354-0.182,1.74,0.328,0.813,1.078c-0.69,0.57-0.87,2.19-0.33,3.271c0.566,1.08,2.43,2.13,3.776,2.13c2.132,0,4.2-1.65,4.2-3.36   c0-0.986-0.72-2.52-1.26-2.696c-0.18-0.063-0.271-0.33-0.18-0.57c0.146-0.36,1.26-0.54,5.04-0.84c2.67-0.21,5.22-0.513,5.67-0.66   c1.106-0.45,1.83-1.17,1.83-1.891c0-1.143-1.684-4.172-3.57-6.569c-1.05-1.29-1.83-2.521-1.74-2.73   c0.271-0.657,5.4-1.736,8.91-1.89c3.09-0.15,3.18-0.12,4.95,0.811c5.13,2.699,8.91,5.763,14.25,11.521   c1.979,2.16,4.59,4.109,7.2,5.43c3.479,1.74,3.63,1.771,20.396,4.65c10.29,1.77,18.063,3.45,23.55,5.067   c4.021,1.173,4.771,1.712,3.33,2.369c-0.42,0.184-0.96,0.75-1.229,1.264c-0.99,1.92,0.84,4.35,3.987,5.276   c1.949,0.57,3.659,0.33,4.859-0.688c0.99-0.813,1.2-2.13,0.54-3.54c-0.18-0.42-0.24-0.84-0.149-0.96   c0.119-0.09,3.54,0.81,7.619,2.01c20.25,5.94,31.98,8.16,43.593,8.16c12.721,0,24.147-2.4,36.601-7.62   c17.79-7.5,39.24-23.91,55.53-42.54c7.08-8.07,17.276-22.38,20.396-28.53c1.894-3.81,2.49-5.64,3.57-11.13   c1.32-6.75,2.13-8.85,5.49-14.28c1.92-3.116,2.85-5.52,7.71-20.156c2.1-6.33,2.25-9.96,0.63-16.5c-1.143-4.594-1.2-6.24-0.24-7.11   c0.36-0.33,0.96-0.72,1.32-0.81c3.146-0.962,11.396-8.58,13.35-12.36c2.37-4.53,4.17-10.352,6.54-21.12   c1.47-6.66,4.41-18.42,6.87-27.36c2.55-9.27,2.58-9.75,2.58-26.039C954.72,420.87,954.72,420.96,950.88,408.39z" style="stroke:black;fill:#BFDAE3"/><path id="180623552" parent_id="180608862" order="1" structure_id="1" d="M895.5,562.8c0,0.3,0.66,1.23,1.44,2.01   c2.88,2.91,3.236,7.264,0.96,12.24c-1.71,3.813-9.75,16.38-15.45,24.181c-6.66,9.119-12.54,15.989-20.37,23.853   c-13.29,13.29-25.11,21.87-36.03,26.22c-1.316,0.51-6.3,1.95-11.1,3.184c-8.67,2.25-13.98,3.72-15.48,4.286l-0.81,0.304l-0.12,6.09   c-0.06,3.359-0.12,6.09-0.12,6.12c0.12,0.18,9.21-0.57,11.46-0.934c8.854-1.5,32.011-9.896,39.63-14.366   c3.604-2.104,12.48-8.82,18.631-14.104c4.683-3.99,12.843-12.06,16.922-16.68c7.561-8.58,17.367-21.99,21.027-28.8   c2.013-3.724,2.763-5.974,3.933-11.61c1.471-7.08,2.461-9.75,5.311-14.22c1.53-2.4,1.74-2.974,1.05-2.974   c-0.449,0-12.87-3.39-16.949-4.617C896.31,562.02,895.5,561.99,895.5,562.8z" style="stroke:black;fill:#BFDAE3"/><path id="180623552" parent_id="180608862" order="2" structure_id="1" d="M890.82,563.52   c-2.37,1.054-4.5,3.66-8.82,10.95c-4.5,7.591-9.39,14.67-15.57,22.53c-7.83,9.96-16.17,19.44-22.71,25.8   c-10.17,9.9-22.83,17.07-41.066,23.28c-2.313,0.78-4.32,1.5-4.44,1.65c-0.15,0.119-0.12,1.406,0.063,2.85   c0.181,1.47,0.421,3.84,0.511,5.28c0.21,3.026,0.09,2.97,3.12,2.01c1.08-0.33,6.42-1.74,11.85-3.15   c9.72-2.52,13.23-3.657,17.4-5.76c15.42-7.71,34.979-25.8,50.396-46.56c6-8.104,14.94-22.11,16.65-26.104   c0.84-1.92,1.17-6.3,0.63-8.277C897.84,564.3,894,562.14,890.82,563.52z" style="stroke:black;fill:#BFDAE3"/><path id="180623552" parent_id="180608862" order="3" structure_id="1" d="M842.04,541.98   c-0.39,0.866-0.45,0.6,1.89,8.066c1.59,5.07,1.59,5.104,1.59,9c0,4.8-0.656,7.59-2.85,12.12c-1.29,2.61-1.89,3.479-3.81,5.4   c-2.7,2.67-4.98,3.896-9.12,4.979c-5.49,1.38-13.26,1.771-18.09,0.9c-3.604-0.66-3.36-0.78-3.514,1.856   c-0.119,1.86-0.39,2.91-1.316,5.04c-3.48,7.98-12.99,18.394-19.354,21.271c-0.896,0.39-4.02,1.229-6.93,1.857   c-3.6,0.779-5.34,1.263-5.34,1.529c0,0.21,0.18,0.393,0.42,0.393c0.896,0,2.67,2.607,5.25,7.71c3.39,6.721,5.43,9.777,9.63,14.487   c3.87,4.32,5.49,6.57,6.45,8.974c0.39,0.93,0.87,1.71,1.106,1.77c0.54,0.12,9.36-2.97,14.49-5.04   c14.37-5.85,24.21-12.27,33.78-22.14c12.63-12.99,26.76-30.96,34.648-44.13c4.078-6.843,5.13-8.37,6.988-10.32   c1.92-2.01,3.36-2.729,5.49-2.67c1.47,0.03,1.74-0.062,1.89-0.57c0.12-0.33,0.15-0.66,0.092-0.688   c-0.028-0.03-2.729-0.9-5.938-1.95c-15.3-4.95-33.66-12.18-43.8-17.28c-1.472-0.75-2.82-1.35-3-1.35   C842.52,541.2,842.22,541.56,842.04,541.98z" style="stroke:black;fill:#BFDAE3"/><path id="180623552" parent_id="180608862" order="4" structure_id="1" d="M581.4,494.52   c-6.514,2.313-10.86,5.974-12.45,10.594c-2.13,6.09-2.521,19.08-0.87,28.526c0.57,3.36,1.89,7.23,3.72,11.014   c2.19,4.526,4.44,6.776,7.74,7.646c1.68,0.42,10.05,0.42,13.32,0c8.22-1.08,15.09-4.47,19.26-9.479   c1.32-1.563,1.2-1.11,2.396-10.053l0.78-5.607l-0.99-1.021c-0.51-0.566-2.52-3.026-4.406-5.43c-1.894-2.399-3.604-4.38-3.78-4.41   c-0.18,0-0.54,0.54-0.78,1.17c-0.63,1.563-1.74,2.104-4.979,2.46c-3.57,0.36-15.36,0.33-17.764-0.06   c-4.68-0.75-6.21-3.36-5.066-8.64c0.236-1.144,0.21-1.65-0.063-2.19c-0.21-0.36-0.356-1.44-0.356-2.37   c0.026-3.21,2.156-6.51,5.1-7.979c1.44-0.69,2.19-0.844,4.65-0.934c1.92-0.09,2.938-0.239,2.938-0.479   c-0.03-0.57-4.71-3.48-5.606-3.45C583.71,493.83,582.48,494.16,581.4,494.52z" style="stroke:black;fill:#BFDAE3"/><path id="180623552" parent_id="180608862" order="5" structure_id="1" d="M558.15,462.57   c-2.131,0.96-5.37,4.856-7.054,8.52c-1.438,3.063-2.906,11.58-3.6,20.644c-0.57,7.8,0.51,11.43,3.87,12.986   c1.229,0.54,1.92,0.63,6.03,0.63c4.17,0,4.83-0.09,6.39-0.72c4.59-1.83,5.91-5.396,6.36-17.28c0.236-6-0.184-13.736-0.9-16.35   c-1.14-4.26-3.45-7.2-6.63-8.4C560.61,461.85,559.71,461.85,558.15,462.57z" style="stroke:black;fill:#BFDAE3"/><path id="180623552" parent_id="180608862" order="6" structure_id="1" d="M612.39,229.62   c-2.88,0.93-5.188,3.15-7.56,7.35c-3.09,5.46-9.15,18.12-11.46,23.97c-2.88,7.2-8.82,15.78-13.44,19.41   c-0.84,0.66-1.526,1.35-1.526,1.56c0,0.75,1.406,0.36,4.646-1.23c5.94-2.91,9-5.7,14.61-13.14c8.07-10.71,15.21-17.76,19.71-19.44   c3.688-1.41,13.56-2.25,26.43-2.25c11.58,0.03,15.15,0.33,24.3,2.1c2.881,0.57,8.82,1.71,13.2,2.55   c14.28,2.76,30.09,6.36,40.05,9.15c3.094,0.84,3.75,0.9,3.75,0.36c0-0.42-3.84-2.34-9-4.56c-21.93-9.45-57.75-19.29-91.196-25.05   C617.55,229.14,614.55,228.96,612.39,229.62z" style="stroke:black;fill:#BFDAE3"/><path id="180623552" parent_id="180608862" order="7" structure_id="1" d="M708.69,343.2   c-1.563,0.93-3.304,2.91-5.37,6.06c-1.054,1.59-1.92,2.97-1.92,3.09c0,0.09-0.66,0.99-1.44,2.04c-0.81,1.02-2.58,4.02-3.96,6.66   c-7.74,14.94-18.03,29.28-28.17,39.3c-3.3,3.21-4.53,5.37-4.53,7.86c0,2.19,0.57,3.39,2.67,5.58c2.7,2.85,2.854,3.99,1.474,11.31   c-0.813,4.354-3.063,13.29-4.021,15.934c-1.92,5.34-4.56,9.6-10.62,17.22c-5.066,6.33-5.91,7.53-7.438,10.35   c-1.95,3.66-4.11,10.71-4.44,14.554c-0.3,3.33,0.33,5.066,2.79,7.646c2.312,2.46,5.25,4.5,7.59,5.313   c1.23,0.39,2.521,0.54,4.95,0.54c2.94-0.03,3.63-0.15,6.24-1.021c5.64-1.92,12.12-6.45,21.21-14.76c3.688-3.36,7.2-7.352,9.3-10.53   c6.42-9.72,12.391-26.43,15.75-44.188c3.75-19.894,5.641-27.184,12.15-47.102c4.59-14.13,5.22-16.41,5.22-19.95   c0-3.15-0.78-6.3-2.13-8.61c-1.021-1.77-4.11-4.56-6.33-5.73C713.61,342.6,710.52,342.06,708.69,343.2z" style="stroke:black;fill:#BFDAE3"/><path id="180623552" parent_id="180608862" order="8" structure_id="1" d="M843.3,449.25c-0.33-4.14-0.78-10.35-1.05-13.8c-2.16-28.74-6.3-49.2-13.32-65.49   c-12.21-28.32-23.188-45.24-41.43-63.78c-15.96-16.2-35.58-31.65-52.47-41.25c-3.54-2.01-4.83-2.58-8.761-3.75   c-13.109-3.9-29.103-7.59-48.723-11.28c-4.438-0.84-9.39-1.77-10.95-2.1c-7.196-1.44-9.72-1.62-22.8-1.65   c-19.26,0-25.95,0.9-30.09,4.11c-4.8,3.69-9.72,9-16.26,17.64c-5.25,6.9-8.7,10.08-13.8,12.66c-4.354,2.22-10.2,3.66-19.86,4.89   c-3.271,0.39-7.021,0.96-8.34,1.2c-2.896,0.564-9.146,0.849-15.419,0.854v23.094c1.002-0.02,2.105-0.109,3.509-0.278   c10.59-1.23,35.49-5.61,43.92-7.74c8.82-2.22,11.64-4.02,22.38-14.34c5.37-5.16,8.46-7.77,12.21-10.26   c5.644-3.75,15.604-7.95,22.71-9.54c2.761-0.63,3.84-0.69,10.144-0.69c6.356,0,7.5,0.09,11.79,0.84   c13.946,2.46,32.486,8.37,57.63,18.39c22.08,8.82,35.97,16.68,49.05,27.84c6.39,5.43,19.41,18.99,27.27,28.47   c18.12,21.72,30.604,47.52,35.88,74.01c3.394,17.011,5.49,44.19,4.74,60.934c-0.566,12.479-1.56,18.75-3.81,24.63   c-1.95,5.04-6.75,13.47-10.08,17.67c-0.96,1.2-1.11,2.066-0.42,2.066c0.93,0,6.21-7.35,8.34-11.606   c3.51-6.96,6.9-17.104,8.01-23.94C844.77,478.2,844.77,467.7,843.3,449.25z" style="stroke:black;fill:#BFDAE3"/><path id="180623552" parent_id="180608862" order="9" structure_id="1" d="M735.69,662.43   c-1.86,0.54-2.434,2.521-1.29,4.41c0.84,1.354,3.236,2.46,5.396,2.46c5.19,0,5.16-5.04-0.06-6.688   C737.94,662.04,737.13,662.01,735.69,662.43z" style="stroke:black;fill:#BFDAE3"/><path id="180623552" parent_id="180608862" order="10" structure_id="1" d="M744.78,522.66   c-10.05,11.46-15.45,21.18-17.46,31.32c-0.78,3.81-0.69,10.26,0.12,13.38c2.188,8.188,8.76,14.76,16.316,16.26   c4.38,0.896,10.53,0.45,16.74-1.17c7.59-2.01,16.32-6.15,15.21-7.23c-0.09-0.12-1.89-0.026-3.99,0.184   c-6.688,0.688-12.18-0.093-17.066-2.37c-3.54-1.65-6.063-3.45-7.054-5.04c-2.88-4.53-1.856-14.28,3-28.71l1.804-5.4l-1.17-2.85   c-1.29-3.12-3.33-9.604-3.33-10.563C747.9,519.39,747.15,519.9,744.78,522.66z" style="stroke:black;fill:#BFDAE3"/><path id="180623552" parent_id="180608862" order="11" structure_id="1" d="M844.38,478.26   c-0.24,4.86-0.84,9.3-1.86,13.44c-0.84,3.42-3.866,12.21-5.25,15.27c-1.05,2.313-1.076,2.55-0.18,2.34   c3.45-0.866,3.48-0.866,5.01-0.356c0.961,0.33,1.771,0.84,2.224,1.438c0.987,1.29,4.68,8.46,4.68,9.063c0,0.3,0.21,0.45,0.51,0.39   c0.87-0.146,1.08-2.279,1.11-9.99c0-7.56-0.24-10.316-1.771-18.51c-1.316-7.35-3.566-17.04-3.93-17.04   C844.71,474.3,844.53,475.65,844.38,478.26z" style="stroke:black;fill:#BFDAE3"/><path id="180623552" parent_id="180608862" order="12" structure_id="1" d="M541.23,493.11c-0.538-2.913-0.929-4.604-1.199-5.271V622.44c0.021-0.003,0.038,0.003,0.059,0l0.66-0.094   l0.06-52.106l0.03-52.144l0.69-5.156C542.58,504.99,542.52,500.16,541.23,493.11z" style="stroke:black;fill:#BFDAE3"/><path id="180623552" parent_id="180608862" order="13" structure_id="1" d="M662.91,377.13   c-2.55,0.69-8.25,1.23-10.32,0.99l-1.56-0.21l-0.45,1.62c-0.69,2.4-1.05,7.8-0.75,11.85c0.21,3.06,0.479,4.74,1.68,9.93   c0.09,0.394,0.36,0.69,0.57,0.69c0.45,0,0.78-0.63,2.22-4.35c1.11-2.82,2.521-5.46,5.82-10.8c1.317-2.16,3.18-5.19,4.14-6.75   s1.74-3,1.74-3.21C666,376.41,665.46,376.44,662.91,377.13z" style="stroke:black;fill:#BFDAE3"/><path id="180623552" parent_id="180608862" order="14" structure_id="1" d="M543.12,377.4c0-3.48-0.12-4.29-0.69-5.82c-0.39-0.96-0.96-2.01-1.26-2.31   c-0.325-0.326-0.729-0.496-1.139-0.527v14.301l2.639,0.086l0.24-0.84C543.03,381.84,543.15,379.62,543.12,377.4z" style="stroke:black;fill:#BFDAE3"/><path id="180623552" parent_id="180608862" order="15" structure_id="1" d="M549.3,285.27c-1.95,0.36-3.6,1.14-3.6,1.68   c0,0.39,0.42,0.42,3.09,0.27c5.13-0.33,6.33-0.51,6.45-1.05c0.06-0.3-0.184-0.57-0.604-0.66   C553.23,285.15,550.62,285.03,549.3,285.27z" style="stroke:black;fill:#BFDAE3"/><path id="180623552" parent_id="180608862" order="16" structure_id="1" d="M590.4,492.75   c-0.24,0.06-1.354,0.21-2.46,0.3c-3.094,0.3-2.854,0.78,2.01,3.934c3,1.946,4.106,2.816,4.316,3.479   c0.214,0.601,0.514,0.84,1.021,0.84c1.2,0,4.38,1.8,6.03,3.42c0.87,0.841,1.92,2.28,2.37,3.184c0.96,1.946,2.01,5.486,2.01,6.688   c0,0.63,1.08,2.19,4.438,6.36c2.434,3.03,4.563,5.52,4.771,5.52c0.87,0.063,0.84-8.606-0.09-13.02   c-0.9-4.32-5.04-12.604-7.83-15.72c-3.24-3.604-6.24-4.83-12.24-4.98C592.62,492.69,590.64,492.69,590.4,492.75z" style="stroke:black;fill:#BFDAE3"/><path id="180623552" parent_id="180608862" order="17" structure_id="1" d="M541.17,517.41   c-0.36,3.45-0.42,12.6-0.33,54.3c0.09,53.4,0.03,51.45,1.41,49.5c1.11-1.59,1.14-2.13,0.75-36.66c-0.39-35.76-0.33-39.12,1.08-53.1   c0.78-7.86,0.84-10.563,0.3-12.72c-0.63-2.49-1.95-5.434-2.43-5.434C541.71,513.3,541.44,514.62,541.17,517.41z" style="stroke:black;fill:#BFDAE3"/><path id="180623552" parent_id="180608862" order="18" structure_id="1" d="M574.2,480.18   c-0.42,0.063-1.47,0.271-2.313,0.45l-1.59,0.3v4.65c0,5.46-0.39,9.63-1.2,12.66c-0.657,2.43-0.72,2.76-0.33,2.76   c0.15,0,2.19-1.14,4.53-2.52c2.37-1.384,5.55-3.03,7.11-3.634c2.278-0.93,3.09-1.438,4.41-2.76c2.1-2.07,2.88-3.688,2.88-5.91   c0-3.51-1.83-5.188-6.45-5.88C579.24,480.03,575.76,479.97,574.2,480.18z" style="stroke:black;fill:#BFDAE3"/><path id="180623552" parent_id="180608862" order="19" structure_id="2113200030000000" d="M836.1,662.1   c-8.88,3.66-20.67,7.381-26.696,8.434c-4.53,0.81-13.894,1.08-20.104,0.6c-9.42-0.72-14.938-1.68-22.05-3.78   c-7.71-2.276-21.03-5.25-25.68-5.76c-1.44-0.146-1.771-0.09-1.771,0.271c0,0.656,15.271,5.22,26.7,8.01   c12.96,3.18,20.13,4.08,30.15,3.84c11.486-0.3,20.816-2.188,31.646-6.42c4.74-1.86,12.604-5.76,12.604-6.271   C840.9,660.33,839.73,660.6,836.1,662.1z" style="stroke:black;fill:#CCCCCC"/><path id="180623552" parent_id="180608862" order="20" structure_id="1" d="M677.1,386.67   c-5.97,1.92-9.026,5.31-9.119,10.05c-0.061,3.03,0.449,3,3.479-0.236c3.69-3.934,8.04-9.271,8.04-9.874   C679.5,385.98,679.2,385.98,677.1,386.67z" style="stroke:black;fill:#BFDAE3"/><path id="180623552" parent_id="180608862" order="21" structure_id="1" d="M617.46,380.34   c-2.4,1.05-2.52,1.17-3.24,2.73c-0.87,1.8-3.42,9.36-3.42,10.08c0,0.96,0.87,0.36,2.854-1.95c3.146-3.69,7.35-10.23,7.35-11.46   C621,378.99,620.34,379.11,617.46,380.34z" style="stroke:black;fill:#BFDAE3"/><path id="180623552" parent_id="180608862" order="22" structure_id="1" d="M641.1,647.4   c-2.396,0.6-3.27,3.566-1.526,5.22c2.55,2.46,7.229,0.93,7.229-2.37c0-0.45-0.42-1.2-0.989-1.83c-0.777-0.87-1.229-1.11-2.311-1.17   C642.75,647.19,641.67,647.25,641.1,647.4z" style="stroke:black;fill:#BFDAE3"/><path id="180623552" parent_id="180608862" order="23" structure_id="1" d="M587.55,501.9   c-3.896,0.84-5.01,1.35-6.6,3.026c-2.49,2.67-4.08,7.38-3.57,10.74c0.3,2.01,1.8,3.45,4.14,3.93c2.4,0.48,20.61,0.271,22.021-0.27   c2.25-0.9,2.58-4.142,0.99-9.12c-0.87-2.61-1.144-3.12-2.764-4.86c-1.287-1.35-2.46-2.25-3.93-3c-1.979-0.986-2.31-1.05-4.856-1.02   C591.48,501.33,589.05,501.6,587.55,501.9z" style="stroke:black;fill:#BFDAE3"/><path id="180623552" parent_id="180608862" order="24" structure_id="1" d="M843.3,449.25c-0.33-4.14-0.78-10.35-1.05-13.8c-2.16-28.74-6.3-49.2-13.32-65.49   c-12.21-28.32-23.188-45.24-41.43-63.78c-15.96-16.2-35.58-31.65-52.47-41.25c-3.54-2.01-4.83-2.58-8.761-3.75   c-13.109-3.9-29.103-7.59-48.723-11.28c-4.438-0.84-9.39-1.77-10.95-2.1c-7.196-1.44-9.72-1.62-22.8-1.65   c-19.26,0-25.95,0.9-30.09,4.11c-4.8,3.69-9.72,9-16.26,17.64c-5.25,6.9-8.7,10.08-13.8,12.66c-4.354,2.22-10.2,3.66-19.86,4.89   c-3.271,0.39-7.021,0.96-8.34,1.2c-2.896,0.564-9.146,0.849-15.419,0.854v23.094c1.002-0.02,2.105-0.109,3.509-0.278   c10.59-1.23,35.49-5.61,43.92-7.74c8.82-2.22,11.64-4.02,22.38-14.34c5.37-5.16,8.46-7.77,12.21-10.26   c5.644-3.75,15.604-7.95,22.71-9.54c2.761-0.63,3.84-0.69,10.144-0.69c6.356,0,7.5,0.09,11.79,0.84   c13.946,2.46,32.486,8.37,57.63,18.39c22.08,8.82,35.97,16.68,49.05,27.84c6.39,5.43,19.41,18.99,27.27,28.47   c18.12,21.72,30.604,47.52,35.88,74.01c3.394,17.011,5.49,44.19,4.74,60.934c-0.566,12.479-1.56,18.75-3.81,24.63   c-1.95,5.04-6.75,13.47-10.08,17.67c-0.96,1.2-1.11,2.066-0.42,2.066c0.93,0,6.21-7.35,8.34-11.606   c3.51-6.96,6.9-17.104,8.01-23.94C844.77,478.2,844.77,467.7,843.3,449.25z" style="stroke:black;fill:#BFDAE3"/><path id="180623552" parent_id="180608862" order="25" structure_id="1" d="M573.6,305.58c-3.356,0.75-22.68,3.93-28.29,4.68l-5.275,0.683v0.263l0.119,0.495   c0.27,1.14,1.106,2.16,2.67,3.21c1.979,1.35,3.986,1.92,7.526,2.1c6.54,0.33,18.57-2.73,21.9-5.55c0.9-0.75,4.05-5.34,4.05-5.88   C576.3,305.01,576.18,305.01,573.6,305.58z" style="stroke:black;fill:#BFDAE3"/><path id="180623552" parent_id="180608862" order="26" structure_id="1" d="M641.1,586.71   c-4.02,0.48-7.316,2.79-9.06,6.33c-0.9,1.8-0.99,2.25-0.99,4.71c0,2.34,0.12,2.91,0.84,4.41c0.99,2.01,2.7,3.87,4.474,4.8   c1.17,0.63,1.68,0.69,5.04,0.66c4.02-0.03,6.896-0.54,9.09-1.65c1.59-0.81,2.91-2.01,2.91-2.7c0-0.27-0.604-1.616-1.32-3   c-1.86-3.479-3.21-7.68-3.39-10.526l-0.184-2.313l-1.38-0.3C645.39,586.74,642.48,586.53,641.1,586.71z" style="stroke:black;fill:#BFDAE3"/><path id="180623552" parent_id="180608862" order="27" structure_id="1" d="M683.43,351.63c-2.37-4.62-17.79-12.24-53.13-26.28c-14.396-5.7-21.24-8.82-27.146-12.3   c-5.73-3.39-10.23-7.17-11.521-9.69c-0.358-0.69-0.84-1.26-1.108-1.26c-0.271,0-1.5,0.27-2.762,0.57   c-1.29,0.33-4.05,0.93-6.21,1.38c-2.76,0.57-4.106,1.02-4.62,1.47c-0.356,0.33-1.526,1.83-2.55,3.33   c-4.38,6.42-8.79,9.72-16.08,12.12c-3.75,1.2-7.14,1.98-11.55,2.58c-2.12,0.297-4.389,0.422-6.719,0.406v36.999   c0.334,0,0.666,0.009,0.986,0.035c4.289,0.33,8.489,2.34,9.933,4.83c0.688,1.17,1.35,4.47,1.35,6.84c0,0.69,0.69,0.69,1.23,0.03   c0.688-0.81,4.198-2.97,6.18-3.78c7.17-2.91,19.26-3.63,31.59-1.83c5.104,0.72,11.521,2.1,21.604,4.65   c12.329,3.09,13.8,3.3,22.646,3.39l7.2,0.06l3.75,1.14c4.62,1.41,8.85,1.71,13.71,0.96c6.36-0.96,10.29-2.91,14.49-7.23   c1.229-1.26,3.75-3.51,5.58-4.98c3.688-2.94,4.35-3.9,4.56-6.57C684.96,356.64,684.3,353.34,683.43,351.63z" style="stroke:black;fill:#BFDAE3"/><path id="180623552" parent_id="180608862" order="28" structure_id="1" d="M607.56,384.93   c-6.6,3.09-7.35,3.3-15.96,4.02c-7.83,0.66-10.38,1.26-18.356,4.38c-4.08,1.62-4.98,2.31-5.644,4.32   c-0.446,1.316-0.18,2.816,0.631,3.866c0.329,0.424,2.103,1.804,3.963,3.063c7.5,5.13,11.906,9.03,14.396,12.72   c0.84,1.23,2.43,3.15,3.54,4.26c1.65,1.62,2.37,2.104,3.66,2.49c4.08,1.17,7.41-1.41,10.859-8.396   c2.011-4.144,2.729-6.48,3.479-11.4c0.689-4.53,2.729-12.45,4.5-17.31c1.53-4.26,1.65-4.74,1.14-4.74   C613.53,382.2,610.74,383.43,607.56,384.93z" style="stroke:black;fill:#BFDAE3"/><path id="180623552" parent_id="180608862" order="29" structure_id="1" d="M556.74,461.55c-2.644-1.68-3.813-5.91-4.474-16.05c-0.39-5.97-0.18-10.74,0.964-20.4   c0.986-8.396,1.646-11.85,2.67-13.736c0.51-0.934,0.896-1.86,0.896-2.07c0-0.54-4.14-0.54-6.21,0c-2.22,0.57-3.45,1.53-5.55,4.2   c-2.068,2.662-3.651,3.946-5.009,4.082v64.887c0.547,0.006,1.045,0.339,1.769,1.081c1.38,1.38,1.8,2.76,1.8,5.97   c0,4.44,1.11,7.29,2.881,7.29c0.689,0,0.723-0.06,0.723-2.34c0-5.34,1.92-18.24,3.27-22.14c0.9-2.521,2.644-5.16,5.04-7.62   c1.2-1.23,2.19-2.313,2.19-2.4C557.67,462.21,557.25,461.88,556.74,461.55z" style="stroke:black;fill:#BFDAE3"/><path id="180623552" parent_id="180608862" order="30" structure_id="1" d="M628.5,376.17c-1.08,0.3-3,0.93-4.29,1.41   l-2.34,0.84l-1.65,3.15c-2.066,3.99-5.04,8.19-7.8,11.04l-2.16,2.22l-0.776,3.21c-0.423,1.77-0.99,4.56-1.23,6.21   s-0.54,3.51-0.63,4.17c-0.18,0.93-0.12,1.11,0.27,1.05c0.271-0.06,2.463-3.026,4.922-6.566c5.642-8.16,11.818-16.833,16.021-22.38   c1.8-2.37,3.271-4.47,3.271-4.62C632.1,375.45,630.69,375.57,628.5,376.17z" style="stroke:black;fill:#BFDAE3"/><path id="180623552" parent_id="180608862" order="31" structure_id="1" d="M693.75,356.22   c-2.22,0.69-5.49,2.61-8.01,4.71c-1.38,1.14-3.78,3.12-5.34,4.38c-1.563,1.29-4.11,3.57-5.644,5.1c-2.55,2.55-5.729,4.83-7.5,5.34   c-0.42,0.12-0.96,0.78-1.438,1.68c-0.394,0.81-2.313,4.02-4.264,7.11c-1.92,3.09-4.406,7.41-5.52,9.6   c-2.58,5.01-2.7,6.45-0.45,4.74c2.88-2.16,10.65-6.18,11.94-6.18c0.776,0,1.26-0.33,2.697-1.92c1.979-2.16,4.771-3.72,8.159-4.56   c1.92-0.48,2.13-0.6,3.33-2.19c1.893-2.46,6.36-9.24,8.94-13.53c2.64-4.38,7.738-13.86,7.738-14.37   C698.4,355.68,695.31,355.74,693.75,356.22z" style="stroke:black;fill:#BFDAE3"/><path id="180623552" parent_id="180608862" order="32" structure_id="1" d="M569.25,470.46   c0.69,3.33,1.02,5.79,1.05,7.86v2.34l1.44-0.24c0.776-0.15,3.51-0.27,6.06-0.27c4.23,0.026,4.8,0.09,6.45,0.75   c2.52,1.05,3.6,2.64,3.6,5.188c-0.026,2.104-0.51,3.21-2.276,5.37c-1.11,1.32-1.44,2.04-0.934,2.04c0.12,0,1.354-0.21,2.764-0.48   c3.566-0.63,9.51-0.63,12,0.03c3.776,0.96,7.106,3.48,9.566,7.144c1.591,2.366,5.07,9.81,5.79,12.356   c0.604,2.13,0.66,3.12,0.66,8.854c0,5.396-0.12,7.38-0.81,12.3c-1.264,9-1.894,12.146-3.96,20.25   c-3.724,14.489-4.23,17.79-5.104,32.25c-0.479,8.066-0.78,10.53-1.53,13.17c-1.14,3.99-3.72,7.47-7.02,9.479   c-2.34,1.41-7.32,3.03-11.13,3.57c-5.973,0.9-13.354,0.45-15.36-0.87c-1.95-1.26-2.188-4.41-0.81-9.75   c1.407-5.34,1.737-6.99,2.367-12.146c1.803-14.61,3.149-40.054,2.103-40.054c-0.18,0-2.103,1.5-4.26,3.36   c-2.19,1.86-4.021,3.39-4.08,3.45c-0.091,0.06,0.147,0.93,0.479,1.979c0.87,2.521,1.021,4.053,0.69,7.41   c-0.15,1.563-0.54,5.82-0.9,9.45c-1.107,11.67-2.22,18.03-3.72,21.3c-0.899,1.98-4.11,5.22-6.21,6.24   c-3.09,1.53-6.603,1.318-10.74-0.54c-0.87-0.42-1.71-0.75-1.857-0.75c-0.33,0-0.33,2.521-0.063,9.51   c0.181,4.74,0.24,5.19,0.721,5.19c1.079,0,4.563,1.527,6.603,2.85c6,4.021,8.64,10.38,7.17,17.34c-0.182,0.96-0.3,1.803-0.24,1.894   c0.21,0.18,6.78-0.96,13.979-2.434c10.229-2.1,19.351-4.47,26.311-6.81c5.431-1.83,6.479-2.25,7.561-3.271   c1.593-1.438,5.279-3.328,9.183-4.617c4.17-1.383,18.51-3.75,22.77-3.75c0.78,0,1.44-0.119,1.44-0.303   c0-0.146-0.602-0.84-1.352-1.526c-1.648-1.53-2.158-2.91-1.682-4.65c0.182-0.66,0.66-1.53,1.08-1.92   c1.021-0.96,0.931-1.26-0.39-1.86c-2.553-1.17-5.013-4.289-5.61-7.05c-0.87-4.229,1.08-9.18,4.59-11.489   c0.78-0.511,2.341-1.198,3.48-1.561c2.04-0.63,4.229-0.63,8.46-0.062c1.2,0.182,1.229,0.148,1.409-0.778   c0.567-2.79,6.391-7.893,12.027-10.53c5.131-2.399,22.263-5.22,27.75-4.561c2.25,0.271,1.98-0.421-0.777-2.013   c-12.029-6.84-22.5-16.197-27.869-24.93c-0.604-0.96-1.263-1.771-1.44-1.771s-0.63,0.688-0.989,1.471   c-0.688,1.619-2.067,2.699-4.737,3.72c-2.854,1.08-7.98,0.12-9.96-1.858c-0.99-0.988-4.354-5.972-8.16-12.119   c-1.5-2.433-5.58-8.881-9.063-14.343c-15.987-25.14-19.737-34.078-18.446-44.31c0.3-2.312,0.026-2.37-2.554-0.63   c-2.55,1.71-7.02,3.81-9.06,4.199c-2.07,0.421-3.57,0.091-5.01-1.109c-1.2-1.021-1.803-2.22-1.803-3.57   c0-1.197-0.301-1.29-1.438-0.479c-2.313,1.62-5.49,2.159-8.37,1.409c-2.46-0.603-5.67-2.25-7.71-3.933   C569.37,469.23,568.95,469.14,569.25,470.46z" style="stroke:black;fill:#BFDAE3"/><path id="180623552" parent_id="180608862" order="33" structure_id="1" d="M814.98,182.76   c-4.83,7.32-20.764,31.29-35.37,53.28C764.97,258.03,753,276.12,753,276.27c0,0.12,1.17,1.08,2.61,2.13   c1.438,1.08,3.96,3,5.58,4.29c1.616,1.29,3.06,2.31,3.21,2.25c0.479-0.15,75.39-101.76,75.51-102.39   c0.12-0.51-0.75-1.35-4.021-4.11c-5.729-4.77-11.156-8.94-11.67-8.94C823.98,169.5,819.87,175.41,814.98,182.76z" style="stroke:black;fill:#BFDAE3"/><path id="180623552" parent_id="180608862" order="34" structure_id="1" d="M542.55,504.21   c-0.09,1.47-0.33,3.84-0.479,5.31c-0.33,2.554-0.304,2.7,0.42,4.054c1.08,1.946,2.22,5.58,2.46,7.68c0.12,1.08,0.03,3.33-0.271,5.7   c-0.446,3.66-1.08,11.34-1.56,18.81c-0.24,3.87-0.21,3.9,2.85,1.8c6.511-4.438,13.684-12.51,16.771-18.96   c0.96-1.946,1.106-2.52,1.106-4.5c0-3.236-0.81-4.56-5.696-9.146C552,509.16,543.48,501.6,543.09,501.6   C542.88,501.6,542.7,502.53,542.55,504.21z" style="stroke:black;fill:#BFDAE3"/><path id="180623552" parent_id="180608862" order="35" structure_id="1" d="M659.82,576.33   c-4.17,2.22-9.09,6.27-10.17,8.4c-1.684,3.21-0.87,8.729,2.156,14.816c3.69,7.41,7.11,9.99,13.62,10.29   c2.73,0.12,9.184-0.356,9.54-0.72c0.184-0.18-0.81-6.21-1.646-9.99c-1.74-7.77-5.46-16.857-8.79-21.57   C662.73,575.04,662.43,574.95,659.82,576.33z" style="stroke:black;fill:#BFDAE3"/><path id="180623552" parent_id="180608862" order="36" structure_id="1" d="M543.12,377.4c0-3.48-0.12-4.29-0.69-5.82c-0.39-0.96-0.96-2.01-1.26-2.31   c-0.325-0.326-0.729-0.496-1.139-0.527v14.301l2.639,0.086l0.24-0.84C543.03,381.84,543.15,379.62,543.12,377.4z" style="stroke:black;fill:#BFDAE3"/><path id="180623552" parent_id="180608862" order="37" structure_id="1" d="M752.22,550.2   c0.604,3.09,6.66,7.05,15.063,9.896c4.8,1.62,8.16,1.65,7.856,0.12c-0.12-0.72-2.64-1.95-8.486-4.2   c-5.224-1.979-7.804-3.236-10.98-5.25c-1.26-0.81-2.58-1.47-2.97-1.47C752.1,549.3,752.04,549.42,752.22,550.2z" style="stroke:black;fill:#BFDAE3"/><path id="180623552" parent_id="180608862" order="38" structure_id="1" d="M583.95,498.15   c-0.813,0.236-1.59,0.42-1.684,0.446c-0.6,0.03-3.42,3-4.05,4.29c-1.17,2.25-1.38,6.24-0.33,6.21c0.184-0.026,0.66-0.688,1.054-1.5   c0.81-1.736,2.606-3.656,4.17-4.438c1.59-0.813,4.526-1.5,7.979-1.92c2.67-0.33,2.94-0.42,2.854-0.96   C593.64,498.27,587.94,497.04,583.95,498.15z" style="stroke:black;fill:#BFDAE3"/><path id="180623552" parent_id="180608862" order="39" structure_id="1" d="M552.06,369.96c-0.236-2.07-0.54-3.18-1.106-4.14c-1.671-2.861-6.327-4.755-10.919-4.816v7.705   c0.382,0.018,0.767,0.189,1.139,0.562c1.26,1.26,1.92,3.84,1.95,7.68c0,1.98-0.09,4.32-0.21,5.22l-0.24,1.62l2.79-0.18   c5.16-0.33,5.46-0.66,6.57-7.41C552.45,373.71,552.45,373.32,552.06,369.96z" style="stroke:black;fill:#BFDAE3"/><path id="180623552" parent_id="180608862" order="40" structure_id="1" d="M663.3,394.38   c-3.78,2.01-8.01,4.53-8.25,4.95c-0.12,0.15-0.51,0.27-0.896,0.27c-0.48,0-0.75,0.21-0.87,0.75c-0.12,0.42-0.45,1.021-0.75,1.32   c-0.394,0.39-0.66,1.23-0.78,2.521c-0.21,1.856-0.18,1.946,0.6,2.55c1.41,1.106,4.74,0.688,8.79-1.17   c1.08-0.48,2.19-0.87,2.46-0.87c0.304,0,0.813-0.42,1.11-0.934c0.33-0.479,1.32-1.646,2.19-2.55c1.5-1.526,1.56-1.68,1.196-2.37   c-0.39-0.688-0.33-2.22,0.184-5.04c0.21-1.11,0.18-1.11-0.813-1.11C666.81,392.7,665.31,393.3,663.3,394.38z" style="stroke:black;fill:#BFDAE3"/><path id="180623552" parent_id="180608862" order="41" structure_id="1" d="M646.95,607.2   c-1.32,0.356-3.271,0.566-5.28,0.566c-2.76,0.03-3.3,0.12-3.99,0.66c-2.188,1.74-2.276,5.07-0.12,7.08   c1.08,1.021,3.24,1.894,4.74,1.894c1.65,0,5.37,0.866,8.28,1.92c1.17,0.42,2.43,0.776,2.76,0.776c0.93,0,3.394-1.83,3.99-3   c0.689-1.26,0.72-2.938,0.12-4.35c-0.604-1.47-3.3-4.26-5.104-5.28C650.64,606.48,649.89,606.45,646.95,607.2z" style="stroke:black;fill:#BFDAE3"/><path id="180623552" parent_id="180608862" order="42" structure_id="1" d="M568.11,395.49c-0.394-0.36-2.854,0.48-6.36,2.13c-3.66,1.74-6.3,3.39-8.85,5.58   c-2.49,2.1-5.04,3.78-7.98,5.16c-2.374,1.129-2.863,1.276-4.889,1.288v7.924c1.354-0.139,2.938-1.42,5.009-4.082   c1.021-1.29,2.31-2.67,2.91-3.063c1.53-1.02,3.78-1.526,6.896-1.526h2.73l1.77-1.83c1.804-1.83,5.884-4.74,7.474-5.37   c0.81-0.3,0.84-0.36,0.63-1.684c-0.15-0.986-0.03-1.77,0.33-2.85C568.08,396.39,568.23,395.61,568.11,395.49z" style="stroke:black;fill:#BFDAE3"/><path id="180623552" parent_id="180608862" order="43" structure_id="1" d="M728.4,541.53   c-0.75,0.12-2.014,0.239-2.82,0.239c-1.35,0.027-1.44,0.061-1.26,0.688c0.446,1.41,0.54,7.62,0.18,9.78   c-0.39,2.46-1.2,3.81-2.7,4.68c-0.87,0.51-1.68,0.63-5.1,0.72c-4.74,0.15-9.54-0.54-14.16-2.04c-3.33-1.05-3.24-1.05-3.24-0.42   c0,0.87-7.8,15.42-8.28,15.42c-0.236,0-0.42,0.184-0.42,0.423c0,0.271,0.54,0.447,1.594,0.567c2.04,0.24,5.729,1.53,7.17,2.46   c3.3,2.19,2.697,6.09-2.644,17.223c-2.88,6-2.88,6.391-0.026,4.261c5.276-3.9,16.29-9.9,22.856-12.48c4.261-1.68,9.3-3,12.54-3.3   c2.61-0.24,2.79-0.479,1.38-1.83c-7.56-7.26-8.816-19.38-3.42-32.938c0.75-1.86,1.354-3.45,1.354-3.57   C731.4,541.14,730.2,541.2,728.4,541.53z" style="stroke:black;fill:#BFDAE3"/><path id="180623552" parent_id="180608862" order="44" structure_id="1" d="M805.17,546.06   c-4.2,5.28-13.229,14.73-14.4,15.094c-0.3,0.116-0.566,0.356-0.566,0.566c0,0.57-4.95,6.03-7.98,8.82   c-3.42,3.12-4.56,3.96-5.396,3.96c-0.78,0-0.87,0.12-1.17,1.41l-0.21,0.99h1.8c4.14,0,8.279,1.02,9.96,2.46   c1.319,1.106,1.89,3.09,1.319,4.59c-0.303,0.78-2.489,2.1-4.923,2.97c-6.446,2.34-13.8,3.21-17.97,2.13   c-1.17-0.33-2.188-0.479-2.31-0.356c-0.24,0.236,0.21,2.606,1.35,6.896c0.51,1.92,1.05,4.41,1.2,5.55   c0.18,1.11,0.51,3.03,0.75,4.264c0.21,1.229,0.51,3.026,0.63,3.96c0.24,2.04,0.66,2.22,1.59,0.6c1.17-2.04,5.73-7.68,9.271-11.43   c8.79-9.33,17.908-15.48,24.987-16.92c1.229-0.271,1.979-0.57,2.013-0.842c0.026-0.238-0.63-0.932-1.44-1.562   c-1.83-1.41-2.97-3.57-2.97-5.7c0-2.79,3.24-17.55,5.52-25.08c0.45-1.408,0.78-2.79,0.78-3.09   C807,544.44,806.25,544.74,805.17,546.06z" style="stroke:black;fill:#BFDAE3"/><path id="180623552" parent_id="180608862" order="45" structure_id="1" d="M652.65,604.5   c-0.48,0.48-1.11,0.96-1.41,1.08c-0.96,0.3-0.604,0.93,1.05,1.86c1.95,1.106,4.83,4.14,5.31,5.64c0.48,1.41,0.24,3.45-0.539,4.53   c-0.327,0.446-1.141,1.17-1.827,1.59c-0.66,0.42-1.23,0.93-1.23,1.106c0,0.213,0.72,0.75,1.59,1.174   c2.644,1.316,5.37,3.3,7.263,5.188c0.987,1.021,1.947,1.83,2.131,1.83c0.18,0,0.51-0.81,0.72-1.83c0.21-0.99,0.78-2.609,1.26-3.63   c1.2-2.55,3.54-5.939,4.353-6.33c0.391-0.18,0.688-0.54,0.688-0.81c0-0.304,1.41-1.894,3.15-3.57c1.738-1.65,3.146-3.15,3.146-3.33   c0-0.39-0.3-0.39-3.447,0.21c-3.961,0.72-11.763,0.72-13.859,0c-2.01-0.689-4.86-2.79-5.971-4.38   c-0.479-0.66-1.021-1.229-1.199-1.229C653.67,603.6,653.13,603.99,652.65,604.5z" style="stroke:black;fill:#BFDAE3"/><path id="180623552" parent_id="180608862" order="46" structure_id="1" d="M671.79,616.53c-2.16,0.63-6.39,8.55-6.39,12   c0,0.356,0.566,1.77,1.26,3.12c0.99,1.946,1.5,2.58,2.43,3.146c2.46,1.38,6.33,4.354,8.4,6.33c2.34,2.313,3.688,2.91,7.106,3.18   c1.65,0.12,2.07,0.063,2.7-0.446c0.69-0.57,0.75-0.842,0.934-4.44c0.326-6.21,1.5-9,7.316-17.37c1.05-1.53-5.22-4.17-12.75-5.396   C679.71,616.17,673.32,616.08,671.79,616.53z" style="stroke:black;fill:#BFDAE3"/><path id="180623552" parent_id="180608862" order="47" structure_id="1" d="M636.3,617.58   c-0.566,0.06-2.396,0.27-4.05,0.45c-5.31,0.566-14.94,2.34-17.55,3.239c-4.771,1.617-8.7,3.657-8.7,4.471c0,0.6,1.17,0.39,5.7-0.96   c11.396-3.394,16.5-4.261,20.46-3.48c5.729,1.11,11.91,4.98,17.37,10.86l1.979,2.13l3.12-0.78c1.71-0.45,4.23-0.93,5.58-1.14   c2.4-0.33,2.64-0.3,6.03,0.54c1.856,0.45-0.45-3.45-4.05-6.813c-5.224-4.92-13.74-8.31-21.24-8.55   C638.97,617.49,636.87,617.52,636.3,617.58z" style="stroke:black;fill:#BFDAE3"/><path id="180623552" parent_id="180608862" order="48" structure_id="1" d="M592.56,582.75c-1.68,0.21-3.566,0.57-4.196,0.78   c-4.894,1.59-12.75,7.77-16.32,12.87c-2.58,3.688-4.021,11.88-2.46,14.01c0.93,1.29,2.4,1.859,5.85,2.22   c6.514,0.66,15.48-0.72,20.313-3.146c6.72-3.394,9.24-9.184,9.45-21.78l0.06-3.72l-1.35-0.75c-1.17-0.66-1.74-0.75-4.804-0.813   C597.21,582.36,594.27,582.51,592.56,582.75z" style="stroke:black;fill:#BFDAE3"/><path id="180623552" parent_id="180608862" order="49" structure_id="1" d="M680.4,571.53c-5.73,0.6-17.4,3-17.4,3.566   c0,0.15,0.75,1.29,1.65,2.554c1.92,2.696,4.406,7.736,6.09,12.3c1.83,5.01,4.26,15.39,4.26,18.18c0,1.11,0.54,1.14,4.08,0.09   c5.13-1.47,10.05-4.646,12.75-8.22c1.71-2.22,6.57-11.91,8.25-16.35c1.26-3.36,1.62-6.184,0.99-7.684   c-0.75-1.856-4.62-3.72-9.271-4.47C689.52,571.14,684.06,571.17,680.4,571.53z" style="stroke:black;fill:#BFDAE3"/><path id="180623552" parent_id="180608862" order="50" structure_id="1" d="M636.96,500.55c-1.11,3.03-7.26,7.05-10.8,7.05   c-1.44,0-4.41-0.81-6.09-1.68c-1.71-0.84-2.37-0.9-2.37-0.24c0,0.604,2.91,5.434,9.6,15.87c2.73,4.29,6.69,10.563,8.79,13.95   c5.104,8.16,6.604,10.14,8.46,11.16c1.86,0.99,4.8,1.56,6.69,1.29c2.01-0.3,5.31-2.104,6.06-3.3c0.813-1.29,0.78-3.813-0.03-6.063   c-0.356-0.96-4.736-10.14-9.81-20.43c-6.57-13.38-9.3-18.66-9.66-18.66C637.53,499.5,637.17,499.92,636.96,500.55z" style="stroke:black;fill:#BFDAE3"/><path id="180623552" parent_id="180608862" order="51" structure_id="1" d="M622.5,469.29c0,0.21,0.3,0.84,0.69,1.41   c2.52,3.75,11.188,20.01,14.188,26.55c1.141,2.46,4.86,10.17,8.313,17.1c7.56,15.184,11.366,23.16,12.026,25.23   c0.57,1.77,3.96,7.08,6.45,10.14c4.29,5.25,10.59,10.771,17.43,15.33c4.021,2.67,8.974,5.55,9.514,5.55   c0.42,0,8.188-14.696,8.188-15.479c0-0.45-0.51-0.813-2.01-1.44c-3.12-1.29-3.15-1.316-6.6-3.896   c-4.2-3.12-12.57-11.49-16.684-16.65c-9.93-12.479-17.88-26.64-20.16-35.88c-0.026-0.18-1.02-0.63-2.188-0.99   c-2.58-0.84-4.98-2.396-7.53-4.856c-2.52-2.46-3.33-4.23-3.33-7.23v-2.25l-4.106-3.33c-5.344-4.26-8.461-6.6-11.104-8.31   C623.43,468.9,622.5,468.6,622.5,469.29z" style="stroke:black;fill:#BFDAE3"/><path id="180623552" parent_id="180608862" order="52" structure_id="1" d="M665.28,494.61   c-2.58,1.38-8.58,2.729-10.38,2.34c-1.17-0.271-1.17,0.03,0.146,3.99c2.521,7.5,8.7,18.42,15.9,28.106   c8.67,11.67,18.566,21.063,25.5,24.21c6.99,3.15,13.56,4.563,20.25,4.38c3.42-0.09,4.229-0.21,5.1-0.72   c1.5-0.87,2.313-2.22,2.7-4.68c0.39-2.19,0.271-8.58-0.15-9.604c-0.146-0.356-0.688-0.566-1.89-0.688   c-11.91-1.23-23.01-7.59-35.16-20.13c-7.35-7.563-15.33-18.304-19.35-25.98C666.99,493.98,666.66,493.83,665.28,494.61z" style="stroke:black;fill:#BFDAE3"/><path id="180623552" parent_id="180608862" order="53" structure_id="1" d="M714.54,518.67   c-4.74,1.53-8.58,5.311-11.34,11.22c-2.011,4.264-2.104,3.96,1.71,6.15c3.896,2.22,7.47,3.72,11.43,4.77   c2.49,0.69,3.57,0.78,7.563,0.813c2.816,0.03,5.31-0.12,6.327-0.36c1.563-0.356,1.713-0.479,2.343-1.8   c0.39-0.78,1.438-2.609,2.34-4.05c1.62-2.55,1.646-2.7,1.53-4.38c-0.394-5.313-5.73-10.62-12.424-12.33   C721.02,517.92,716.91,517.92,714.54,518.67z" style="stroke:black;fill:#BFDAE3"/><path id="180623552" parent_id="180608862" order="54" structure_id="1" d="M738.6,616.83c0,0.06,0.48,2.01,1.08,4.32   c0.724,2.76,1.144,5.188,1.23,7.08c0.146,2.67,0.12,3.026-0.63,4.616c-0.42,0.96-2.014,3.57-3.48,5.854   c-2.43,3.688-3.12,5.1-2.46,5.1c0.12,0,1.29-0.21,2.61-0.45c6.42-1.17,15.63-0.21,22.29,2.313c1.35,0.51,2.52,0.87,2.606,0.78   c0.063-0.063,0.36-2.014,0.604-4.32c0.27-2.28,0.75-5.7,1.08-7.563c0.3-1.891,0.566-3.721,0.566-4.107   c0-0.48-0.896-1.53-2.909-3.45c-5.521-5.31-9.721-7.92-14.671-9.149C744.09,617.22,738.6,616.53,738.6,616.83z" style="stroke:black;fill:#BFDAE3"/><path id="180623552" parent_id="180608862" order="55" structure_id="1" d="M739.5,594.45c0,0.27,0.42,1.29,0.93,2.28   c1.92,3.84,2.58,8.906,1.62,12.72c-0.24,0.99-1.02,2.938-1.71,4.29c-0.93,1.89-1.14,2.58-0.87,2.729   c0.21,0.15,1.354,0.33,2.521,0.42c6.84,0.604,12.356,3.48,18.989,9.87c1.561,1.53,2.971,2.644,3.181,2.55   c0.24-0.06,0.569-0.986,0.78-2.04c0.236-1.05,0.866-3.326,1.47-5.066c1.229-3.75,1.5-6.394,1.02-10.8   c-0.479-4.53-0.96-7.65-1.196-8.07c-0.45-0.72-24.48-9.33-26.04-9.33C739.77,594,739.5,594.18,739.5,594.45z" style="stroke:black;fill:#BFDAE3"/><path id="180623552" parent_id="180608862" order="56" structure_id="1" d="M730.38,579.93   c-5.16,0.75-11.85,3.21-19.53,7.144c-9.236,4.736-16.68,9.75-18.688,12.6c-2.07,2.94-5.88,5.82-10.05,7.59   c-1.2,0.513-2.7,1.32-3.36,1.83c-1.771,1.354-6.75,6.271-6.75,6.63c0,0.21,1.47,0.33,4.26,0.33c2.763,0.03,5.37,0.21,7.29,0.57   c4.2,0.75,9.24,2.46,10.86,3.689c0.72,0.537,1.41,0.987,1.56,0.987c0.12,0,1.11-1.05,2.224-2.34   c2.34-2.76,15.356-15.66,19.56-19.41c8.16-7.229,14.4-9.33,20.101-6.75c0.659,0.3,4.229,1.563,7.949,2.79   c3.721,1.23,9.512,3.271,12.87,4.53c3.392,1.26,6.42,2.28,6.72,2.28c0.54,0,0.57-0.15,0.394-1.62c-0.09-0.9-0.604-3.24-1.11-5.19   c-1.74-6.567-1.83-8.55-0.6-11.817c0.356-0.899,0.63-1.71,0.63-1.859c0-0.36-1.2-0.24-3.271,0.39   c-10.141,3-18.659,2.553-24.357-1.35C734.91,579.48,734.22,579.36,730.38,579.93z" style="stroke:black;fill:#BFDAE3"/><path id="180623552" parent_id="180608862" order="57" structure_id="1" d="M803.1,581.58   c-7.08,1.53-16.02,7.53-24.566,16.5c-3.45,3.6-7.44,8.46-9.514,11.58c-1.14,1.74-1.316,2.25-1.316,3.57v1.526l1.29-0.21   c7.106-1.106,17.04-3.3,18.989-4.229c5.671-2.67,14.431-12.15,17.971-19.474c2.34-4.89,2.79-7.316,1.59-8.67   C806.64,581.22,805.47,581.04,803.1,581.58z" style="stroke:black;fill:#BFDAE3"/><path id="180623552" parent_id="180608862" order="58" structure_id="1" d="M774.45,577.17c-0.33,0.09-1.41,0.6-2.4,1.11   c-0.99,0.51-2.79,1.316-4.02,1.8c-1.894,0.72-2.341,1.05-3.03,2.13c-1.021,1.62-1.561,3.51-1.44,5.04   c0.094,1.17,0.12,1.2,1.894,1.74c4.77,1.5,17.16-0.63,21.63-3.724c1.41-0.96,1.62-1.35,1.62-2.938c0-2.521-2.79-4.5-7.29-5.103   C778.86,576.87,775.41,576.84,774.45,577.17z" style="stroke:black;fill:#BFDAE3"/><path id="180623552" parent_id="180608862" order="59" structure_id="1" d="M569.25,470.46c0.69,3.33,1.02,5.79,1.05,7.86   v2.34l1.44-0.24c0.776-0.15,3.51-0.27,6.06-0.27c4.23,0.026,4.8,0.09,6.45,0.75c2.52,1.05,3.6,2.64,3.6,5.188   c-0.026,2.104-0.51,3.21-2.276,5.37c-1.11,1.32-1.44,2.04-0.934,2.04c0.12,0,1.354-0.21,2.764-0.48c3.566-0.63,9.51-0.63,12,0.03   c3.776,0.96,7.106,3.48,9.566,7.144c1.591,2.366,5.07,9.81,5.79,12.356c0.604,2.13,0.66,3.12,0.66,8.854   c0,5.396-0.12,7.38-0.81,12.3c-1.264,9-1.894,12.146-3.96,20.25c-3.724,14.489-4.23,17.79-5.104,32.25   c-0.479,8.066-0.78,10.53-1.53,13.17c-1.14,3.99-3.72,7.47-7.02,9.479c-2.34,1.41-7.32,3.03-11.13,3.57   c-5.973,0.9-13.354,0.45-15.36-0.87c-1.95-1.26-2.188-4.41-0.81-9.75c1.407-5.34,1.737-6.99,2.367-12.146   c1.803-14.61,3.149-40.054,2.103-40.054c-0.18,0-2.103,1.5-4.26,3.36c-2.19,1.86-4.021,3.39-4.08,3.45   c-0.091,0.06,0.147,0.93,0.479,1.979c0.87,2.521,1.021,4.053,0.69,7.41c-0.15,1.563-0.54,5.82-0.9,9.45   c-1.107,11.67-2.22,18.03-3.72,21.3c-0.899,1.98-4.11,5.22-6.21,6.24c-3.09,1.53-6.603,1.318-10.74-0.54   c-0.87-0.42-1.71-0.75-1.857-0.75c-0.33,0-0.33,2.521-0.063,9.51c0.181,4.74,0.24,5.19,0.721,5.19c1.079,0,4.563,1.527,6.603,2.85   c6,4.021,8.64,10.38,7.17,17.34c-0.182,0.96-0.3,1.803-0.24,1.894c0.21,0.18,6.78-0.96,13.979-2.434   c10.229-2.1,19.351-4.47,26.311-6.81c5.431-1.83,6.479-2.25,7.561-3.271c1.593-1.438,5.279-3.328,9.183-4.617   c4.17-1.383,18.51-3.75,22.77-3.75c0.78,0,1.44-0.119,1.44-0.303c0-0.146-0.602-0.84-1.352-1.526   c-1.648-1.53-2.158-2.91-1.682-4.65c0.182-0.66,0.66-1.53,1.08-1.92c1.021-0.96,0.931-1.26-0.39-1.86   c-2.553-1.17-5.013-4.289-5.61-7.05c-0.87-4.229,1.08-9.18,4.59-11.489c0.78-0.511,2.341-1.198,3.48-1.561   c2.04-0.63,4.229-0.63,8.46-0.062c1.2,0.182,1.229,0.148,1.409-0.778c0.567-2.79,6.391-7.893,12.027-10.53   c5.131-2.399,22.263-5.22,27.75-4.561c2.25,0.271,1.98-0.421-0.777-2.013c-12.029-6.84-22.5-16.197-27.869-24.93   c-0.604-0.96-1.263-1.771-1.44-1.771s-0.63,0.688-0.989,1.471c-0.688,1.619-2.067,2.699-4.737,3.72   c-2.854,1.08-7.98,0.12-9.96-1.858c-0.99-0.988-4.354-5.972-8.16-12.119c-1.5-2.433-5.58-8.881-9.063-14.343   c-15.987-25.14-19.737-34.078-18.446-44.31c0.3-2.312,0.026-2.37-2.554-0.63c-2.55,1.71-7.02,3.81-9.06,4.199   c-2.07,0.421-3.57,0.091-5.01-1.109c-1.2-1.021-1.803-2.22-1.803-3.57c0-1.197-0.301-1.29-1.438-0.479   c-2.313,1.62-5.49,2.159-8.37,1.409c-2.46-0.603-5.67-2.25-7.71-3.933C569.37,469.23,568.95,469.14,569.25,470.46z" style="stroke:black;fill:#BFDAE3"/><path id="180623552" parent_id="180608862" order="60" structure_id="1" d="M750.36,540.36   c-4.53,14.156-5.4,22.59-2.82,27.356c1.29,2.37,6.21,5.34,11.25,6.813c4.92,1.438,17.22,0.96,19.65-0.75   c2.97-2.104,11.76-11.13,11.76-12.091c0-0.271-0.42-0.393-1.26-0.393c-1.74,0-6.21-0.75-8.94-1.5c-4.56-1.26-10.56-4.62-14.94-8.37   c-3.6-3.09-8.88-10.05-11.188-14.816c-0.54-1.11-1.141-2.014-1.32-2.014C752.37,534.6,751.38,537.21,750.36,540.36z M755.82,550.77   c3.566,2.313,4.438,2.73,9.356,4.563c5.07,1.89,9.42,3.87,9.99,4.59c0.36,0.45,0.36,0.57-0.09,1.021   c-1.353,1.35-7.021,0.026-13.83-3.24c-5.46-2.61-9.15-5.7-9.15-7.65C752.1,548.55,752.55,548.64,755.82,550.77z" style="stroke:black;fill:#BFDAE3"/><path id="180623552" parent_id="180608862" order="61" structure_id="1" d="M832.98,515.25   c-2.104,3.57-7.44,9.72-12.69,14.61c-1.62,1.5-3.66,3.42-4.56,4.26c-2.58,2.43-7.264,8.01-7.86,9.39   c-2.104,4.83-7.17,26.104-7.17,30c0,2.13,1.14,4.29,2.97,5.73c3.061,2.43,7.23,3.42,14.28,3.45c9.3,0.026,16.106-1.771,20.16-5.344   c5.76-5.066,8.816-15.986,6.72-23.85c-0.96-3.66-4.141-13.08-6.6-19.65c-2.434-6.42-2.91-8.64-3.394-15.236   c-0.24-3.304-0.45-4.71-0.72-4.71C833.91,513.9,833.4,514.5,832.98,515.25z" style="stroke:black;fill:#BFDAE3"/><path id="180623552" parent_id="180608862" order="62" structure_id="1" d="M850.98,513.21   c-0.12,1.14-0.424,3.39-0.66,5.04c-0.271,1.65-0.604,4.08-0.69,5.4c-0.18,2.25-0.42,2.85-3.57,9.6   c-1.856,3.96-3.356,7.35-3.356,7.53c0,0.96,20.34,9.63,34.646,14.816c14.49,5.25,39.063,12.514,39.813,11.764   c0.45-0.45,6.45-18.03,7.2-21.063c0.986-4.02,0.896-7.646-0.303-12.45c-0.567-2.156-1.021-4.616-1.021-5.46   c-0.03-1.8,0.45-1.59-4.89-2.188c-16.41-1.83-36.271-6.184-60.36-13.23c-3.33-0.96-6.18-1.77-6.33-1.77   C851.28,511.2,851.07,512.1,850.98,513.21z" style="stroke:black;fill:#BFDAE3"/><path id="180623552" parent_id="180608862" order="63" structure_id="1" d="M837.3,509.46c-2.25,1.14-2.46,1.89-2.28,7.89   c0.184,6.99,0.724,9.631,3.33,16.62c1.2,3.24,2.313,6.271,2.46,6.78c0.604,1.89,1.054,1.29,4.44-5.91c1.8-3.84,3.51-7.68,3.81-8.49   c1.021-2.938,0.514-6-1.736-10.5c-2.28-4.5-3.271-5.97-4.474-6.54C841.32,508.59,838.92,508.65,837.3,509.46z" style="stroke:black;fill:#BFDAE3"/><path id="180623552" parent_id="180608862" order="64" structure_id="1" d="M849,490.56c0,0.24,0.33,2.58,0.75,5.224   c0.66,4.2,1.35,11.37,1.35,14.13c0,1.106-0.54,0.896,9.604,3.81c21.03,6.03,37.856,9.75,53.55,11.854   c7.53,1.02,8.79,1.08,9.39,0.54c0.304-0.271,1.08-0.724,1.711-0.99c3.359-1.38,10.053-7.29,12.479-11.01   c1.11-1.71,3.51-7.29,3.24-7.563c-0.092-0.06-15.33-2.76-33.9-6c-44.88-7.8-54.51-9.54-57.479-10.26   C849.21,490.2,849,490.26,849,490.56z" style="stroke:black;fill:#BFDAE3"/><path id="180623552" parent_id="180608862" order="65" structure_id="1" d="M844.5,468.66c0.03,1.229,0.78,5.34,2.19,11.64   l2.188,9.72l1.17,0.271c3.21,0.66,21.36,3.9,44.104,7.86c34.02,5.906,45.776,7.946,46.526,8.13c0.604,0.146,0.724-0.12,1.62-3.36   c0.54-1.92,1.62-6.42,2.4-9.99c0.81-3.566,1.739-7.62,2.1-9c0.33-1.38,0.57-2.58,0.48-2.64c-0.092-0.09-22.803-3.33-50.49-7.17   c-27.69-3.84-50.79-7.08-51.3-7.17l-0.99-0.184L844.5,468.66L844.5,468.66z" style="stroke:black;fill:#BFDAE3"/><path id="180623552" parent_id="180608862" order="66" structure_id="1" d="M721.11,378.81   c-0.33,0.54-3.42,10.38-5.16,16.44c-2.4,8.37-4.021,14.97-5.4,22.2c-0.6,3.12-1.5,7.8-1.979,10.35   c-3.21,16.38-9.42,33.394-15.57,42.66c-4.08,6.15-14.22,15.63-22.65,21.21c-1.646,1.08-3.06,2.01-3.146,2.07   c-0.271,0.21,2.52,5.188,5.16,9.24c7.619,11.67,17.34,22.35,26.396,29.01c1.26,0.96,2.434,1.71,2.55,1.71   c0.15,0,0.54-0.84,0.934-1.894c1.17-3.236,3.238-6.479,5.88-9.06c4.646-4.59,9.39-5.85,15.78-4.2   c6.09,1.563,10.71,5.644,12.39,10.95c0.36,1.17,0.78,2.1,0.96,2.1s0.48-0.3,0.72-0.688c0.63-1.021,4.802-6.063,7.2-8.76   c5.22-5.79,6.78-8.884,15.84-30.54c1.894-4.5,2.342-10.594,2.342-31.264c0-14.67-0.062-17.25-0.539-20.25   c-2.133-13.736-10.053-30.81-20.313-43.83c-3.12-3.93-10.2-10.95-13.438-13.316c-2.521-1.83-6.843-4.35-7.473-4.35   C721.41,378.6,721.17,378.69,721.11,378.81z" style="stroke:black;fill:#BFDAE3"/><path id="180623552" parent_id="180608862" order="67" structure_id="1" d="M709.5,282.09c0,0.24,0.27,0.66,0.57,0.93   c0.33,0.3,0.87,1.2,1.229,2.07c1.11,2.55,0.42,4.89-2.25,7.53c-3.42,3.45-5.46,6.27-7.77,10.89c-4.32,8.61-6.063,16.8-5.313,25.08   c0.63,6.81,2.011,12.51,4.23,17.19c0.63,1.32,1.26,2.91,1.35,3.51c0.271,1.32,0.87,1.44,1.47,0.27c0.87-1.65,3.844-5.16,5.16-6.06   c1.894-1.32,2.88-1.41,5.67-0.45c9.394,3.12,13.95,10.8,12,20.07c-0.236,1.17-1.316,4.89-2.396,8.34   c-1.08,3.42-1.95,6.36-1.95,6.51c0,0.15,0.99,0.81,2.188,1.47c7.949,4.38,17.132,13.53,24,23.97   c7.29,11.04,12.96,24.27,14.973,34.74c0.567,3.026,0.63,4.646,0.75,19.646c0.18,21.48-0.3,28.771-2.28,33.72   c-4.649,11.644-9.36,21.813-11.85,25.5c-0.75,1.144-1.383,2.344-1.383,2.7c0,0.96,1.319,5.67,2.489,8.88   c3.21,8.82,7.71,15.96,13.74,21.75c6.899,6.66,14.28,9.9,24.45,10.804l2.16,0.18l2.13-1.891c2.76-2.433,7.5-7.649,14.76-16.289   c3.21-3.813,7.62-8.764,9.811-11.07c11.433-11.94,19.263-24.48,21.659-34.771c2.434-10.526,2.79-32.066,0.87-53.156   c-2.1-23.133-5.37-38.46-11.55-54.09c-9.42-23.82-23.189-43.77-46.021-66.66c-17.551-17.61-32.37-26.49-65.04-39.03   c-3.841-1.47-7.197-2.67-7.438-2.67S709.5,281.88,709.5,282.09z" style="stroke:black;fill:#BFDAE3"/><path id="180623552" parent_id="180608862" order="68" structure_id="1" d="M890.04,380.19   c-48.21,12.6-53.04,13.92-53.04,14.46c0,0.33,0.48,2.97,1.02,5.85c1.11,5.7,2.28,13.41,3,19.8c0.75,6.63,2.974,34.771,3.36,42.51   c0.15,2.79,0.33,3.99,0.57,3.99c0.21,0,23.13,3.184,50.97,7.05c27.84,3.87,50.85,7.054,51.12,7.054c0.42,0,0.78-1.11,1.979-5.79   c0.811-3.15,2.037-7.894,2.787-10.5c0.724-2.58,1.5-5.7,1.74-6.934c0.78-4.08,1.144-12.479,0.934-22.229   c-0.304-14.67-0.48-15.96-3.9-26.94c-3.24-10.38-4.23-15.45-4.71-24.36c-0.33-6.48-1.11-16.23-1.38-17.19   c-0.09-0.42-0.394-0.66-0.813-0.63C943.35,366.33,919.2,372.57,890.04,380.19z" style="stroke:black;fill:#BFDAE3"/><path id="180623552" parent_id="180608862" order="69" structure_id="1" d="M887.25,339.75   c-25.74,8.82-50.22,17.19-54.36,18.63c-4.17,1.41-7.59,2.73-7.59,2.88c0,0.15,0.813,2.13,1.83,4.38   c3.96,8.91,6.18,15.18,8.37,23.49c0.63,2.49,1.23,4.62,1.32,4.68c0.12,0.15,107.31-27.72,107.52-27.93   c0.03-0.06-0.21-1.92-0.54-4.11c-1.979-12.84-8.1-37.8-9.3-37.98C934.26,323.76,912.99,330.96,887.25,339.75z" style="stroke:black;fill:#BFDAE3"/><path id="180623552" parent_id="180608862" order="70" structure_id="1" d="M611.07,544.08   c-5.7,5.939-15.54,9.15-26.94,8.76c-4.26-0.146-5.67-0.51-7.8-2.04c-1.44-0.989-1.53-0.84-1.53,2.46c0,8.58-1.53,28.98-2.85,38.61   c-0.57,3.899-0.57,4.229,0,4.229c0.24,0,0.45-0.116,0.45-0.236s0.869-1.2,1.946-2.37c3.634-3.99,9.12-8.07,12.813-9.57   c2.31-0.96,7.05-1.68,11.188-1.71c2.73-0.03,3.57,0.09,4.95,0.63c0.9,0.36,1.8,0.66,1.95,0.66c0.21,0,0.479-1.95,0.69-4.92   c0.51-6.93,1.47-12.12,4.229-23.04c2.67-10.59,3.063-12.54,2.37-12.54C612.3,543,611.64,543.48,611.07,544.08z" style="stroke:black;fill:#BFDAE3"/><path id="180623552" parent_id="180608862" order="71" structure_id="1" d="M802.8,233.28   c-20.55,27.81-37.56,50.91-37.8,51.3c-0.42,0.72-0.39,0.78,0.9,1.86c27.09,22.32,42.896,41.55,55.89,67.92   c2.43,4.95,3.18,6.21,3.66,6.24c0.33,0,24.99-8.34,54.81-18.51c46.44-15.87,54.24-18.63,54.24-19.11c0-1.35-4.26-13.89-7.8-22.98   c-10.23-26.19-18.931-41.34-35.97-62.7c-4.144-5.19-18.66-22.62-22.384-26.85c-9.356-10.71-26.46-27.75-27.776-27.75   C840.33,182.7,823.35,205.47,802.8,233.28z" style="stroke:black;fill:#BFDAE3"/><path id="180623552" parent_id="180608862" order="72" structure_id="1" d="M732.03,194.13   c-10.59,32.85-19.23,59.76-19.17,59.79c0.06,0.06,2.31,1.08,5.04,2.25c9.688,4.26,19.05,9.45,28.619,15.84   c3.271,2.19,6.061,3.99,6.181,3.99c0.39,0,71.13-106.56,70.979-106.95c-0.146-0.45-10.17-7.59-14.04-10.02   c-7.856-4.95-22.35-11.61-38.85-17.91c-8.85-3.36-18.33-6.72-18.96-6.72C751.41,134.4,747.69,145.62,732.03,194.13z" style="stroke:black;fill:#BFDAE3"/><path id="180623552" parent_id="180608862" order="73" structure_id="1" d="M667.38,120.33   c-0.12,0.57-3.21,26.34-6.93,57.27c-3.69,30.93-6.813,56.73-6.87,57.3l-0.18,1.05l6.54,1.62c19.196,4.74,37.316,10.23,49.196,14.94   c1.894,0.75,3.45,1.29,3.514,1.23c0.356-0.39,38.52-119.49,38.34-119.67c-0.604-0.54-18.51-6-25.44-7.74   c-12.3-3.06-31.38-5.43-54.66-6.81l-3.356-0.18L667.38,120.33z" style="stroke:black;fill:#BFDAE3"/><path id="180623552" parent_id="180608862" order="74" structure_id="1" d="M648.3,268.2c-5.01,0.69-9.99,2.22-16.41,4.98   c-9.06,3.9-12.93,6.66-23.606,16.89c-2.94,2.85-6.45,5.97-7.8,6.99c-2.224,1.68-6.66,4.11-8.25,4.53   c-1.41,0.36-0.33,2.37,2.938,5.4c3.57,3.3,10.26,7.32,18.09,10.92c2.37,1.08,10.771,4.56,18.69,7.74   c25.89,10.41,39.54,16.59,46.35,21.06c5.25,3.45,6.54,5.52,6.84,10.8c0.063,1.53,0.24,2.79,0.394,2.79c0.12,0,1.317-0.72,2.64-1.62   c3-2.01,6.271-3.24,8.76-3.3c1.83-0.06,1.86-0.09,3-1.5c1.95-2.4,1.923-3.66-0.21-8.34c-3.3-7.26-5.066-18.36-4.05-25.47   c1.44-10.17,6.12-20.28,12.48-26.94c2.67-2.82,3.146-3.69,3.146-5.97c0-1.41-0.18-2.01-0.84-3.09c-1.83-2.85-2.46-3.18-13.32-6.81   c-14.04-4.71-23.04-7.11-31.646-8.49C661.14,268.08,651.48,267.75,648.3,268.2z" style="stroke:black;fill:#BFDAE3"/><path id="180623552" parent_id="180608862" order="75" structure_id="1" d="M636.9,119.16c-5.7,0.12-11.7,0.33-13.354,0.45   l-3,0.24v5.4c0,2.97,0.184,27.69,0.42,54.93l0.42,49.56l4.08,0.66c5.4,0.87,15.063,2.76,22.021,4.26   c3.09,0.69,5.67,1.17,5.729,1.11c0.12-0.12,13.98-115.26,13.98-115.98C667.2,119.1,653.67,118.83,636.9,119.16z" style="stroke:black;fill:#BFDAE3"/><path id="180623552" parent_id="180608862" order="76" structure_id="1111022260200000" d="M613.5,120.6c-8.97,1.2-17.31,3.06-24.45,5.49   c-5.67,1.95-8.16,3-13.14,5.52c-3.33,1.71-4.41,2.4-4.32,2.76c0.271,1.08,37.5,95.91,37.74,96.15c0.15,0.15,0.96-0.03,1.979-0.48   c2.37-1.05,4.2-1.26,7.172-0.81c1.382,0.21,2.578,0.3,2.672,0.21c0.06-0.06-0.063-20.58-0.304-45.57   c-0.236-24.99-0.446-49.56-0.446-54.66V120l-1.41,0.03C618.18,120.03,615.72,120.3,613.5,120.6z" style="stroke:black;fill:#1F9D5A"/><path id="180623552" parent_id="180608862" order="77" structure_id="1" d="M567.66,136.47   c-5.521,3.75-11.19,9.03-14.521,13.47c-4.89,6.54-8.486,17.1-10.89,31.95c-0.72,4.53-1.771,13.41-1.59,13.53   c0.06,0.06,1.38,0.81,2.938,1.68c10.41,5.88,39.21,23.73,54.99,34.11c3.602,2.34,6.66,4.29,6.811,4.29   c0.149,0,0.449-0.3,0.633-0.66c0.18-0.36,0.96-1.29,1.71-2.1c1.08-1.14,1.29-1.59,1.198-2.25   c-0.118-0.63-20.642-53.22-37.352-95.73C571.32,134.13,570.78,134.34,567.66,136.47z" style="stroke:black;fill:#BFDAE3"/><path id="180623552" parent_id="180608862" order="78" structure_id="1" d="M540.45,197.76   c-0.09,1.05-0.15,15.06-0.063,31.14c0.12,30.87,0.12,31.26,1.563,37.83c1.17,5.34,3.12,9.9,5.188,12.03   c0.631,0.69,0.66,0.84,0.271,0.84c-0.84,0-2.79,2.01-3.48,3.6c-0.356,0.81-0.72,2.1-0.84,2.85l-0.18,1.35h1.107   c0.603,0,1.079-0.12,1.079-0.27s0.75-0.66,1.684-1.11c2.369-1.17,5.55-1.32,8.188-0.42c1.71,0.57,2.16,0.6,3.9,0.33   c1.08-0.18,3.81-0.54,6.029-0.78c10.171-1.23,12.147-2.01,17.04-6.84c4.561-4.47,8.397-10.35,11.277-17.19   c0.87-2.13,2.16-5.1,2.82-6.6c1.5-3.42,8.399-17.28,8.79-17.67c0.779-0.78,0.06-1.41-6.09-5.49   c-19.921-13.08-56.342-35.46-57.75-35.46C540.78,195.9,540.57,196.71,540.45,197.76z" style="stroke:black;fill:#BFDAE3"/><path id="180623552" parent_id="180608862" order="79" structure_id="1" d="M566.88,314.22c-5.31,1.98-14.04,3.42-17.7,2.91c-3.93-0.54-6.27-1.59-7.946-3.48   c-0.514-0.583-0.889-0.9-1.199-0.979v11.241c0.827,0.004,1.627-0.011,2.369-0.062c9.33-0.63,18.84-3.24,23.606-6.48   c2.313-1.56,4.29-3.3,4.29-3.75C570.3,313.02,569.97,313.08,566.88,314.22z" style="stroke:black;fill:#BFDAE3"/><path id="180623552" parent_id="180608862" order="80" structure_id="1" d="M556.05,553.23   c-5.97,0.84-10.59,3.116-12.479,6.18l-0.66,1.05l0.21,20.28c0.21,18.39,0.27,20.31,0.72,20.67c1.38,0.99,4.771,1.979,7.44,2.13   c3.776,0.18,5.52-0.6,8.64-3.87c2.01-2.1,2.313-2.55,3-4.74c0.78-2.486,1.71-7.5,2.25-12.18c1.05-9.03,1.86-19.17,1.74-21.06   c-0.18-2.37-1.05-4.684-2.43-6.304C562.89,553.5,559.77,552.69,556.05,553.23z" style="stroke:black;fill:#BFDAE3"/><path id="180623552" parent_id="180608862" order="81" structure_id="1" d="M683.43,351.63c-2.37-4.62-17.79-12.24-53.13-26.28c-14.396-5.7-21.24-8.82-27.146-12.3   c-5.73-3.39-10.23-7.17-11.521-9.69c-0.358-0.69-0.84-1.26-1.108-1.26c-0.271,0-1.5,0.27-2.762,0.57   c-1.29,0.33-4.05,0.93-6.21,1.38c-2.76,0.57-4.106,1.02-4.62,1.47c-0.356,0.33-1.526,1.83-2.55,3.33   c-4.38,6.42-8.79,9.72-16.08,12.12c-3.75,1.2-7.14,1.98-11.55,2.58c-2.12,0.297-4.389,0.422-6.719,0.406v36.999   c0.334,0,0.666,0.009,0.986,0.035c4.289,0.33,8.489,2.34,9.933,4.83c0.688,1.17,1.35,4.47,1.35,6.84c0,0.69,0.69,0.69,1.23,0.03   c0.688-0.81,4.198-2.97,6.18-3.78c7.17-2.91,19.26-3.63,31.59-1.83c5.104,0.72,11.521,2.1,21.604,4.65   c12.329,3.09,13.8,3.3,22.646,3.39l7.2,0.06l3.75,1.14c4.62,1.41,8.85,1.71,13.71,0.96c6.36-0.96,10.29-2.91,14.49-7.23   c1.229-1.26,3.75-3.51,5.58-4.98c3.688-2.94,4.35-3.9,4.56-6.57C684.96,356.64,684.3,353.34,683.43,351.63z" style="stroke:black;fill:#BFDAE3"/><path id="180623552" parent_id="180608862" order="82" structure_id="1" d="M683.43,351.63c-2.37-4.62-17.79-12.24-53.13-26.28c-14.396-5.7-21.24-8.82-27.146-12.3   c-5.73-3.39-10.23-7.17-11.521-9.69c-0.358-0.69-0.84-1.26-1.108-1.26c-0.271,0-1.5,0.27-2.762,0.57   c-1.29,0.33-4.05,0.93-6.21,1.38c-2.76,0.57-4.106,1.02-4.62,1.47c-0.356,0.33-1.526,1.83-2.55,3.33   c-4.38,6.42-8.79,9.72-16.08,12.12c-3.75,1.2-7.14,1.98-11.55,2.58c-2.12,0.297-4.389,0.422-6.719,0.406v36.999   c0.334,0,0.666,0.009,0.986,0.035c4.289,0.33,8.489,2.34,9.933,4.83c0.688,1.17,1.35,4.47,1.35,6.84c0,0.69,0.69,0.69,1.23,0.03   c0.688-0.81,4.198-2.97,6.18-3.78c7.17-2.91,19.26-3.63,31.59-1.83c5.104,0.72,11.521,2.1,21.604,4.65   c12.329,3.09,13.8,3.3,22.646,3.39l7.2,0.06l3.75,1.14c4.62,1.41,8.85,1.71,13.71,0.96c6.36-0.96,10.29-2.91,14.49-7.23   c1.229-1.26,3.75-3.51,5.58-4.98c3.688-2.94,4.35-3.9,4.56-6.57C684.96,356.64,684.3,353.34,683.43,351.63z" style="stroke:black;fill:#BFDAE3"/><path id="180623552" parent_id="180608862" order="83" structure_id="1" d="M624.84,374.88c-1.53-0.3-7.05-1.59-12.24-2.88c-18.146-4.53-22.946-5.25-34.5-5.25   c-8.696,0.03-11.67,0.33-16.196,1.71c-2.91,0.9-6.304,2.76-8.224,4.53c-1.38,1.29-1.68,1.77-1.68,2.55c0,1.38-0.87,5.43-1.38,6.39   c-0.74,1.421-1.847,1.614-10.589,1.619v26.102c2.022-0.012,2.515-0.159,4.889-1.288c2.94-1.38,5.49-3.063,7.98-5.16   c0.896-0.78,2.52-1.98,3.566-2.7c2.04-1.35,7.74-4.17,9.78-4.8c0.66-0.21,3.3-1.23,5.85-2.25c8.91-3.6,11.79-4.29,21.304-5.1   c3.06-0.27,6.33-0.66,7.26-0.9c0.96-0.24,4.05-1.53,6.896-2.88c9.724-4.59,18.66-8.37,19.74-8.37c0.15,0,0.3-0.18,0.3-0.42   C627.6,375.51,626.73,375.21,624.84,374.88z" style="stroke:black;fill:#BFDAE3"/><path id="180623552" parent_id="180608862" order="84" structure_id="1" d="M565.92,402.18   c-3.99,2.104-8.7,6.514-10.11,9.45c-1.406,2.91-3.51,19.92-3.51,28.5c0,8.28,0.96,15.9,2.4,18.96c2.25,4.771,6.81,3.66,10.92-2.7   c0.72-1.14,2.64-4.56,4.26-7.62c1.62-3.026,4.2-7.68,5.73-10.316c5.76-9.813,7.08-13.71,7.736-22.38l0.184-2.58l-1.29-1.17   c-1.8-1.65-5.854-4.74-9.54-7.32c-1.74-1.17-3.48-2.49-3.933-2.88C567.84,401.22,567.72,401.22,565.92,402.18z" style="stroke:black;fill:#BFDAE3"/><path id="180623552" parent_id="180608862" order="85" structure_id="1" d="M583.5,415.86c0,2.13-0.75,6.776-1.5,9.54   c-0.81,2.906-2.85,7.17-6.15,12.75c-1.438,2.46-3.84,6.776-5.34,9.6c-3.81,7.26-5.46,9.87-7.438,11.91   c-0.99,0.99-1.771,1.92-1.771,2.04c0,0.146,0.78,0.6,1.74,1.05c2.04,0.93,3.03,1.8,4.59,4.11c2.22,3.21,6.48,6.33,10.26,7.5   c1.62,0.479,2.61,0.566,4.5,0.479c3.78-0.21,5.974-1.56,7.83-4.83c1.771-3.146,4.74-6.54,10.771-12.27   c7.646-7.29,9.479-9.184,11.938-12.33c3.57-4.59,7.021-10.71,10.92-19.38c1.98-4.474,1.83-4.8-1.17-2.521   c-4.14,3.12-9.986,5.04-13.316,4.354c-3.33-0.69-5.19-3.12-5.4-7.021c-0.15-2.43-0.57-3-1.17-1.646   c-0.57,1.229-3.39,4.05-4.68,4.68c-3.631,1.74-6.934-0.15-11.521-6.57C584.1,413.85,583.5,413.58,583.5,415.86z" style="stroke:black;fill:#BFDAE3"/><path id="180623552" parent_id="180608862" order="86" structure_id="1" d="M634.44,375.51l-1.74,0.12l-1.62,2.04   c-4.26,5.34-16.62,22.68-22.41,31.47c-1.8,2.7-3.51,5.644-3.87,6.57c-1.856,4.95-0.566,10.021,2.94,11.55   c1.95,0.87,5.938,0.63,9.029-0.51c4.407-1.68,9.511-5.82,12.688-10.35c1.65-2.37,12.09-20.73,14.46-25.41   c2.25-4.5,5.61-13.08,5.25-13.41c-0.27-0.24-5.37-1.68-6.99-1.95C640.47,375.3,638.19,375.3,634.44,375.51z" style="stroke:black;fill:#BFDAE3"/><path id="180623552" parent_id="180608862" order="87" structure_id="1" d="M648.48,380.31   c-1.264,3.87-3.54,9.03-5.91,13.44c-5.644,10.41-12.271,21.69-14.07,23.94c-1.53,1.946-2.4,3.51-4.17,7.406   c-6.63,14.884-10.771,20.94-20.37,29.79c-10.71,9.87-14.79,15.15-14.85,19.17c-0.063,3.66,3.87,5.434,8.58,3.87   c2.01-0.688,6.18-2.938,8.79-4.8c0.866-0.6,2.156-1.92,2.906-2.91c2.04-2.76,4.83-4.59,7.021-4.62   c2.49,0,11.64,5.884,20.938,13.474c1.65,1.316,3.15,2.43,3.36,2.43s0.39-0.27,0.39-0.57c0-1.316,2.25-8.188,3.57-10.979   c1.62-3.36,3.24-5.7,8.4-12.15c7.526-9.356,9.81-13.8,12.3-23.85c2.22-9,3.06-14.58,2.608-17.07c-0.148-0.81-0.75-1.71-1.979-3.03   c-2.79-3-3.45-4.856-2.58-7.35c0.271-0.75,0.48-1.44,0.48-1.59c0-0.42-0.813-0.21-2.764,0.66c-4.05,1.856-7.38,2.276-8.79,1.17   c-0.75-0.604-0.81-0.75-0.63-2.19c0.12-1.14-0.027-2.37-0.688-4.95c-1.563-6.18-1.95-12.75-1.052-17.55   c0.238-1.32,0.512-2.85,0.632-3.39c0.146-0.87,0.09-0.96-0.57-0.96C649.41,377.7,649.23,377.97,648.48,380.31z" style="stroke:black;fill:#BFDAE3"/><path id="180623552" parent_id="180608862" order="88" structure_id="1" d="M569.25,470.46c0.69,3.33,1.02,5.79,1.05,7.86   v2.34l1.44-0.24c0.776-0.15,3.51-0.27,6.06-0.27c4.23,0.026,4.8,0.09,6.45,0.75c2.52,1.05,3.6,2.64,3.6,5.188   c-0.026,2.104-0.51,3.21-2.276,5.37c-1.11,1.32-1.44,2.04-0.934,2.04c0.12,0,1.354-0.21,2.764-0.48c3.566-0.63,9.51-0.63,12,0.03   c3.776,0.96,7.106,3.48,9.566,7.144c1.591,2.366,5.07,9.81,5.79,12.356c0.604,2.13,0.66,3.12,0.66,8.854   c0,5.396-0.12,7.38-0.81,12.3c-1.264,9-1.894,12.146-3.96,20.25c-3.724,14.489-4.23,17.79-5.104,32.25   c-0.479,8.066-0.78,10.53-1.53,13.17c-1.14,3.99-3.72,7.47-7.02,9.479c-2.34,1.41-7.32,3.03-11.13,3.57   c-5.973,0.9-13.354,0.45-15.36-0.87c-1.95-1.26-2.188-4.41-0.81-9.75c1.407-5.34,1.737-6.99,2.367-12.146   c1.803-14.61,3.149-40.054,2.103-40.054c-0.18,0-2.103,1.5-4.26,3.36c-2.19,1.86-4.021,3.39-4.08,3.45   c-0.091,0.06,0.147,0.93,0.479,1.979c0.87,2.521,1.021,4.053,0.69,7.41c-0.15,1.563-0.54,5.82-0.9,9.45   c-1.107,11.67-2.22,18.03-3.72,21.3c-0.899,1.98-4.11,5.22-6.21,6.24c-3.09,1.53-6.603,1.318-10.74-0.54   c-0.87-0.42-1.71-0.75-1.857-0.75c-0.33,0-0.33,2.521-0.063,9.51c0.181,4.74,0.24,5.19,0.721,5.19c1.079,0,4.563,1.527,6.603,2.85   c6,4.021,8.64,10.38,7.17,17.34c-0.182,0.96-0.3,1.803-0.24,1.894c0.21,0.18,6.78-0.96,13.979-2.434   c10.229-2.1,19.351-4.47,26.311-6.81c5.431-1.83,6.479-2.25,7.561-3.271c1.593-1.438,5.279-3.328,9.183-4.617   c4.17-1.383,18.51-3.75,22.77-3.75c0.78,0,1.44-0.119,1.44-0.303c0-0.146-0.602-0.84-1.352-1.526   c-1.648-1.53-2.158-2.91-1.682-4.65c0.182-0.66,0.66-1.53,1.08-1.92c1.021-0.96,0.931-1.26-0.39-1.86   c-2.553-1.17-5.013-4.289-5.61-7.05c-0.87-4.229,1.08-9.18,4.59-11.489c0.78-0.511,2.341-1.198,3.48-1.561   c2.04-0.63,4.229-0.63,8.46-0.062c1.2,0.182,1.229,0.148,1.409-0.778c0.567-2.79,6.391-7.893,12.027-10.53   c5.131-2.399,22.263-5.22,27.75-4.561c2.25,0.271,1.98-0.421-0.777-2.013c-12.029-6.84-22.5-16.197-27.869-24.93   c-0.604-0.96-1.263-1.771-1.44-1.771s-0.63,0.688-0.989,1.471c-0.688,1.619-2.067,2.699-4.737,3.72   c-2.854,1.08-7.98,0.12-9.96-1.858c-0.99-0.988-4.354-5.972-8.16-12.119c-1.5-2.433-5.58-8.881-9.063-14.343   c-15.987-25.14-19.737-34.078-18.446-44.31c0.3-2.312,0.026-2.37-2.554-0.63c-2.55,1.71-7.02,3.81-9.06,4.199   c-2.07,0.421-3.57,0.091-5.01-1.109c-1.2-1.021-1.803-2.22-1.803-3.57c0-1.197-0.301-1.29-1.438-0.479   c-2.313,1.62-5.49,2.159-8.37,1.409c-2.46-0.603-5.67-2.25-7.71-3.933C569.37,469.23,568.95,469.14,569.25,470.46z" style="stroke:black;fill:#BFDAE3"/><path id="180623552" parent_id="180608862" order="89" structure_id="1" d="M843.3,449.25c-0.33-4.14-0.78-10.35-1.05-13.8c-2.16-28.74-6.3-49.2-13.32-65.49   c-12.21-28.32-23.188-45.24-41.43-63.78c-15.96-16.2-35.58-31.65-52.47-41.25c-3.54-2.01-4.83-2.58-8.761-3.75   c-13.109-3.9-29.103-7.59-48.723-11.28c-4.438-0.84-9.39-1.77-10.95-2.1c-7.196-1.44-9.72-1.62-22.8-1.65   c-19.26,0-25.95,0.9-30.09,4.11c-4.8,3.69-9.72,9-16.26,17.64c-5.25,6.9-8.7,10.08-13.8,12.66c-4.354,2.22-10.2,3.66-19.86,4.89   c-3.271,0.39-7.021,0.96-8.34,1.2c-2.896,0.564-9.146,0.849-15.419,0.854v23.094c1.002-0.02,2.105-0.109,3.509-0.278   c10.59-1.23,35.49-5.61,43.92-7.74c8.82-2.22,11.64-4.02,22.38-14.34c5.37-5.16,8.46-7.77,12.21-10.26   c5.644-3.75,15.604-7.95,22.71-9.54c2.761-0.63,3.84-0.69,10.144-0.69c6.356,0,7.5,0.09,11.79,0.84   c13.946,2.46,32.486,8.37,57.63,18.39c22.08,8.82,35.97,16.68,49.05,27.84c6.39,5.43,19.41,18.99,27.27,28.47   c18.12,21.72,30.604,47.52,35.88,74.01c3.394,17.011,5.49,44.19,4.74,60.934c-0.566,12.479-1.56,18.75-3.81,24.63   c-1.95,5.04-6.75,13.47-10.08,17.67c-0.96,1.2-1.11,2.066-0.42,2.066c0.93,0,6.21-7.35,8.34-11.606   c3.51-6.96,6.9-17.104,8.01-23.94C844.77,478.2,844.77,467.7,843.3,449.25z" style="stroke:black;fill:#BFDAE3"/><path id="180623552" parent_id="180608862" order="90" structure_id="1" d="M624.9,621.45   c-4.41,0.896-10.92,2.67-19.95,5.46c-6.9,2.13-9.45,3.06-9.45,3.51c0,0.21,2.67,1.021,6.39,1.92c3.48,0.9,6.75,1.771,7.23,1.95   l0.84,0.36l-2.64,2.13c-3.66,2.88-7.23,5.396-10.771,7.56c-3.33,2.01-9.78,5.19-11.76,5.79c-0.72,0.21-1.29,0.54-1.29,0.78   c0,0.33,0.42,0.39,2.04,0.24c1.11-0.094,5.189-0.36,9.06-0.604c18.33-1.2,61.264-4.8,62.04-5.22c0.934-0.51,1.054-1.29,0.36-3.063   c-1.56-4.076-9.9-13.229-15.42-16.92C636.15,621.75,630.27,620.37,624.9,621.45z" style="stroke:black;fill:#BFDAE3"/><path id="180623552" parent_id="180608862" order="91" structure_id="1" d="M558.21,631.17c-0.45-5.79-3.96-10.56-9.96-13.47c-1.32-0.66-2.91-1.26-3.51-1.38   c-0.99-0.15-1.144-0.12-1.144,0.39c0,1.26-0.96,4.17-1.59,4.83c-0.39,0.36-1.17,0.75-1.74,0.84   c-0.09,0.019-0.155,0.018-0.235,0.024v17.127c8.313-0.029,16.87-0.627,17.396-1.461C557.94,637.23,558.36,633.39,558.21,631.17z" style="stroke:black;fill:#BFDAE3"/><path id="180623552" parent_id="180608862" order="92" structure_id="1" d="M613.56,466.5   c-1.68,0.78-4.196,3.36-5.066,5.28c-2.04,4.47-1.563,11.276,1.38,19.316c0.51,1.41,2.188,4.83,3.72,7.62l2.76,5.07l1.95,1.17   c3.512,2.1,8.07,2.94,10.83,1.98c3.12-1.054,7.47-4.924,8.07-7.174c0.45-1.616,0.06-2.85-2.313-7.59   c-5.31-10.59-12.27-22.8-13.946-24.39C618.96,465.87,616.05,465.36,613.56,466.5z" style="stroke:black;fill:#BFDAE3"/><path id="180623552" parent_id="180608862" order="93" structure_id="1" d="M604.29,633.06c-2.61-0.688-5.94-1.526-7.38-1.856l-2.67-0.63l-5.13,1.35   c-13.53,3.57-27.78,6.33-38.313,7.44c-2.707,0.283-6.646,0.4-10.769,0.375v15.003c5.491,0.014,10.813-0.107,13.919-0.378   c14.88-1.29,26.91-2.974,30.6-4.29c3.78-1.32,7.144-2.94,11.19-5.341c6.146-3.633,13.26-8.939,13.26-9.899   C609,634.38,608.19,634.08,604.29,633.06z" style="stroke:black;fill:#BFDAE3"/><path id="180623552" parent_id="180608862" order="94" structure_id="1" d="M688.2,642.24   c-0.36,1.14-0.66,1.5-1.62,1.979c-1.11,0.54-1.26,0.54-3.45,0.063c-2.76-0.57-2.729-0.57-2.729-0.063c0,0.87,4.646,4.59,7.68,6.12   c2.4,1.23,5.25,1.894,16.47,3.813c12.78,2.22,20.76,3.866,26.16,5.396c4.2,1.2,4.59,1.26,4.59,0.51c0-0.27-0.54-3.146-1.2-6.356   c-0.656-3.21-1.196-6.63-1.196-7.563c0-1.29-0.12-1.736-0.42-1.736c-0.24,0-1.713,0.27-3.271,0.6c-1.59,0.3-4.41,0.75-6.27,0.93   c-8.91,0.9-24.213-1.197-31.804-4.408c-0.96-0.392-1.89-0.722-2.1-0.722S688.44,641.43,688.2,642.24z" style="stroke:black;fill:#BFDAE3"/><path id="180623552" parent_id="180608862" order="95" structure_id="1" d="M731.1,617.01   c-6.39,0.36-13.856,1.474-23.369,3.42c-4.979,1.021-12.117,2.854-12.987,3.304c-0.66,0.356-2.73,3.479-4.08,6.116   c-1.32,2.644-2.16,5.7-2.25,8.104l-0.063,2.1l1.95,0.96c3.394,1.65,9.931,3.3,17.4,4.354c1.71,0.237,5.7,0.39,10.05,0.39   c6.72,0,7.47-0.06,11.49-0.87c2.34-0.45,4.26-0.93,4.26-1.05s1.5-2.49,3.3-5.28c3.3-5.066,4.2-7.05,4.2-9.146   c0-1.65-0.87-6.33-1.771-9.57l-0.778-2.88l-2.854-0.03C734.04,616.92,732,616.95,731.1,617.01z" style="stroke:black;fill:#BFDAE3"/><path id="180623552" parent_id="180608862" order="96" structure_id="1" d="M729.15,592.47   c-2.28,0.66-5.16,2.16-7.71,4.08c-6.33,4.771-26.04,24.604-26.04,26.22c0,0.48,0.21,0.45,4.14-0.566   c4.83-1.26,15.69-3.42,21.66-4.32c2.729-0.39,7.71-0.87,11.1-1.08c6.99-0.356,6.54-0.18,8.104-3.3c1.946-3.87,2.46-8.76,1.38-12.9   c-0.57-2.156-2.19-5.729-3.184-6.986C737.31,591.99,732.78,591.42,729.15,592.47z" style="stroke:black;fill:#BFDAE3"/><path id="180623552" parent_id="180608862" order="97" structure_id="1" d="M738,643.32   c-4.2,0.66-4.5,0.75-4.83,1.62c-0.18,0.446-0.24,1.47-0.12,2.31c0.24,1.83,2.49,13.08,2.67,13.26c0.063,0.063,1.65,0.33,3.511,0.57   c3.963,0.51,8.909,1.439,15.933,3.03c2.76,0.6,5.1,1.02,5.22,0.896c0.09-0.09,0.42-3.54,0.75-7.62c0.3-4.08,0.63-8.13,0.72-8.97   l0.184-1.53l-1.771-0.776C754.47,643.62,744.36,642.33,738,643.32z" style="stroke:black;fill:#BFDAE3"/><path id="180623552" parent_id="180608862" order="98" structure_id="1" d="M761.91,649.26   c-0.51,5.55-1.17,15.87-1.05,16.021c0.18,0.146,6.688,2.1,10.59,3.146c4.74,1.264,14.25,2.434,23.01,2.79   c3.09,0.15,3.51,0.09,3.69-0.356c0.09-0.271,0.27-2.974,0.356-6c0.21-6.394,0.48-6-3.42-4.593   c-5.606,2.069-10.47,1.829-15.54-0.688c-1.95-0.99-3.96-2.4-7.2-5.101c-4.946-4.109-9.026-7.079-9.776-7.079   C762.21,647.4,762.06,647.82,761.91,649.26z" style="stroke:black;fill:#BFDAE3"/><path id="180623552" parent_id="180608862" order="99" structure_id="1" d="M764.25,631.26   c-0.48,1.38-1.95,12.36-1.95,14.521c0,1.2,0.063,1.26,1.894,2.34c1.02,0.6,4.17,3,7.02,5.37c5.76,4.77,7.44,5.91,10.65,7.05   c1.947,0.72,2.606,0.81,6.09,0.81c3.78,0,4.02-0.06,7.318-1.196l3.422-1.2l-0.21-4.2c-0.15-3.81-0.48-6.27-0.87-6.63   c-0.092-0.09-0.934,0.06-1.894,0.33c-2.85,0.75-6.54,0.896-8.97,0.33c-5.79-1.38-9.96-4.65-19.2-15.12   C765.21,631.02,764.52,630.51,764.25,631.26z" style="stroke:black;fill:#BFDAE3"/><path id="180623552" parent_id="180608862" order="100" structure_id="1" d="M770.88,615.9   c-1.229,0.84-2.52,1.979-2.88,2.55c-1.2,1.95-3.3,9-3.3,11.1c0,0.75,0.84,1.83,4.74,6.15c7.38,8.16,10.56,10.74,15.18,12.33   c2.07,0.72,2.91,0.87,5.55,0.87c1.86,0,3.9-0.21,5.16-0.514c1.8-0.42,2.07-0.566,2.07-1.14c0-1.41-2.37-5.4-4.86-8.22   c-6.84-7.74-7.83-9.21-12-17.342c-3.33-6.448-4.021-7.288-6.09-7.288C773.4,614.4,772.74,614.67,770.88,615.9z" style="stroke:black;fill:#BFDAE3"/><path id="180623552" parent_id="180608862" order="101" structure_id="1" d="M540,484.26c0,0.121,0.012,0.305,0.031,0.524v-1.414C540.01,483.592,540,483.876,540,484.26z" style="stroke:black;fill:#BFDAE3"/><path id="180623552" parent_id="180608862" order="102" structure_id="1" d="M573.12,547.29c-1.65-2.49-3.72-7.56-4.74-11.64c-1.29-5.16-1.83-16.894-1.08-23.104   c0.604-5.01,2.16-10.108,3.3-10.8c0.394-0.24,0.394-1.351,0-1.351c-0.63,0-2.188,0.961-3.446,2.131   c-3.15,2.908-9.24,4.02-14.7,2.64c-2.644-0.66-4.47-3.06-5.07-6.72c-0.18-0.96-0.42-1.29-1.17-1.65   c-1.95-0.93-2.91-3.688-2.91-8.49c0-1.229-0.146-2.64-0.33-3.116c-0.42-1.11-1.736-2.49-2.43-2.49c-0.319,0-0.455,0.129-0.509,0.67   v1.414c0.122,1.377,0.601,4.542,1.169,7.666c0.66,3.63,1.2,6.96,1.2,7.38c0,0.63,1.438,2.07,8.04,8.01   c9.896,8.88,12.39,11.46,13.05,13.41c1.08,3.12,0.45,5.91-2.19,10.11c-4.35,6.87-9.688,12.479-15.93,16.68l-2.28,1.53l-0.21,2.34   c-0.21,2.76,0.09,6.99,0.51,6.99c0.15,0,0.99-0.631,1.83-1.44c2.94-2.67,8.04-4.38,13.08-4.41c3.271,0,4.59,0.511,6.3,2.434   c0.87,1.02,1.021,1.077,1.62,0.72c1.2-0.75,7.98-6.69,7.98-6.99C574.2,549.06,573.72,548.19,573.12,547.29z" style="stroke:black;fill:#BFDAE3"/></g></g></svg>
