<svg xmlns="http://www.w3.org/2000/svg" width="3024px" height="3024px"><g transform="scale(1.0)"><g id="180608862" order="1" parent_id="" graphic_group_label_id="28" graphic_group_label="Atlas - Adult Rat" sub_image_id="100960468" transform=" scale(1.0, 1.0)"><path id="180623552" parent_id="180608862" order="0" structure_id="1" d="M945.87,378.45c-1.561-14.22-4.352-27.87-9.15-44.761c-0.93-3.271-2.46-9.329-3.45-13.439   c-0.987-4.14-2.31-9.36-2.97-11.61c-4.8-16.56-16.02-41.04-27.989-60.959c-5.791-9.689-13.95-21.54-20.041-29.13   c-19.77-24.63-54.567-48.87-100.77-70.26c-15.96-7.41-36.42-15.63-47.221-19.02C691.2,115.8,629.37,114.6,592.65,126.54   c-20.973,6.84-37.683,18.81-46.2,33.12c-2.13,3.6-4.29,8.76-5.19,12.54c-0.535,2.228-0.931,3.266-1.291,3.214v103.934   c0.337-0.096,0.629,0.08,0.781,0.552c0.27,0.84,3.15,3.9,4.62,4.95c1.771,1.2,1.647,1.74-0.33,1.44   c-0.733-0.101-2.873-0.18-5.071-0.203v346.83c3.238-0.011,6.613-0.323,12.183-0.967c6.271-0.75,8.311-0.84,22.198-1.021   l15.302-0.21l2.459-0.84c4.381-1.439,6.271-3.45,6.211-6.63c-0.029-3.72-2.552-7.26-6.239-8.88c-1.681-0.721-2.011-1.142-1.29-1.71   c0.66-0.54,6.81-3.063,10.95-4.473l4.079-1.379l1.381,0.539c3.63,1.381,7.858,2.131,14.01,2.433c3.689,0.147,4.682,0.33,9.24,1.619   c7.408,2.101,14.88,4.051,29.1,7.618c23.433,5.853,26.79,6.541,41.55,8.313c8.762,1.05,9,1.08,9,1.47c0,0.15-0.479,0.72-1.05,1.261   c-1.409,1.319-1.647,2.699-0.688,4.109c1.021,1.53,2.131,2.19,3.811,2.37c2.13,0.21,3.48-0.15,4.68-1.17   c1.381-1.23,1.83-2.58,1.23-3.99c-0.24-0.6-0.6-1.08-0.75-1.08c-0.18,0-0.33-0.21-0.33-0.45c0-0.3,0.3-0.447,0.9-0.447   c1.17,0,15.75,1.647,19.857,2.25c1.71,0.27,5.07,0.538,7.53,0.658c4.438,0.182,5.067,0.392,3.99,1.289   c-0.813,0.631-1.173,2.341-0.78,3.33c0.6,1.41,1.95,2.37,3.357,2.37c1.65,0,3.24-1.53,3.24-3.12c0-1.26-0.66-2.729-1.35-2.97   c-0.24-0.12-0.45-0.391-0.45-0.66c0-0.358,0.42-0.45,2.101-0.45c1.83,0,2.789,0.24,6.99,1.771c7.68,2.79,14.729,4.229,20.609,4.229   c3.66,0,11.67-2.22,27-7.527c17.7-6.15,27.21-10.2,30.149-12.87c0.511-0.45,2.011-1.41,3.391-2.103   c5.22-2.697,12.78-8.039,20.04-14.22c4.5-3.84,16.92-16.17,21.3-21.18c11.7-13.353,19.261-24.15,25.14-35.94   c2.7-5.46,4.353-9.479,8.371-20.607c3.601-9.933,5.129-14.73,8.729-27c1.38-4.803,2.67-9.063,2.85-9.54   c0.181-0.45,1.681-2.25,3.33-3.99c3.99-4.2,4.62-5.55,6.931-14.73c2.879-11.55,3.869-16.89,5.069-26.938   C947.79,420.12,948,397.53,945.87,378.45z" style="stroke:black;fill:#BFDAE3"/><path id="180623552" parent_id="180608862" order="1" structure_id="1" d="M602.97,619.68   c-1.26,0.54-2.068,1.771-2.068,3.271c0,1.62,1.591,3.147,3.239,3.147c1.409,0,2.642-0.868,3.239-2.277   c0.36-0.87,0.36-1.17-0.06-2.19C606.57,619.71,604.83,618.93,602.97,619.68z" style="stroke:black;fill:#BFDAE3"/><path id="180623552" parent_id="180608862" order="2" structure_id="1" d="M836.97,420.3c-3.72-24.75-12.659-55.62-20.97-72.569c-4.83-9.841-18.48-31.351-25.95-40.979   c-20.88-26.85-50.28-46.92-86.1-58.83c-12.15-4.02-23.67-6.66-38.852-8.85c-7.5-1.08-8.938-1.2-11.851-1.05   c-6.271,0.36-19.352,2.76-24.12,4.44c-4.771,1.65-9,4.41-13.5,8.76c-3.42,3.33-6.06,6.66-8.609,10.86   c-5.608,9.27-14.67,18.81-21.448,22.59c-5.431,3.03-36.03,10.86-44.222,11.31c-0.472,0.028-0.926,0.045-1.382,0.05v19.567   c0.011,0,0.021,0.001,0.031,0.001c2.609,0,7.859-0.96,19.8-3.63c6.45-1.438,11.37-2.34,15.45-2.85   c11.431-1.41,11.431-1.41,18.3-5.94c7.592-5.04,14.46-10.109,20.551-15.18c9.449-7.83,20.939-14.19,28.771-15.9   c1.83-0.42,4.89-0.66,10.53-0.87c12.897-0.51,13.26-0.54,15.3-1.05c3.63-0.87,11.398-1.229,18.569-0.81   c14.521,0.78,27.688,2.64,34.528,4.89c21.96,7.14,46.381,26.79,68.972,55.44c7.051,8.97,14.851,20.37,19.408,28.38   c11.04,19.47,19.353,48.78,22.62,79.979c0.933,8.908,1.08,15.301,0.45,19.288c-0.75,4.803-2.313,10.803-4.53,17.25   c-2.01,5.973-2.158,6.603-1.5,6.603c0.813,0,5.103-9.9,7.472-17.28C839.16,450,839.76,438.84,836.97,420.3z" style="stroke:black;fill:#BFDAE3"/><path id="180623552" parent_id="180608862" order="3" structure_id="2113200030000000" d="M828.75,621.66   c-10.561,3.72-27.12,8.188-31.8,8.55c-1.352,0.09-2.7-0.09-5.521-0.78c-5.55-1.38-8.22-1.647-11.67-1.26   c-3.18,0.391-15.148,2.189-18.51,2.82c-3.36,0.63-3.03,1.02,2.55,3c7.771,2.76,16.562,4.17,21.78,3.51   c2.97-0.391,8.64-2.01,19.62-5.7c15.42-5.13,29.1-10.438,29.1-11.28C834.3,619.86,833.22,620.07,828.75,621.66z" style="stroke:black;fill:#CCCCCC"/><path id="180623552" parent_id="180608862" order="4" structure_id="1" d="M609.6,605.88   c-2.938,0.36-3.209,0.96-0.75,1.74c2.7,0.84,6.36,1.41,10.591,1.59c3.479,0.15,3.961,0.12,3.961-0.3c0-0.54-3.722-2.07-6.302-2.58   C615.12,605.97,611.07,605.7,609.6,605.88z" style="stroke:black;fill:#BFDAE3"/><path id="180623552" parent_id="180608862" order="5" structure_id="1" d="M540.12,498.36c-0.052-0.008-0.102,0.001-0.151,0v98.34h0.211h1.08l-0.18-38.341   c-0.09-21.062-0.18-38.909-0.18-39.659s0.357-4.11,0.777-7.5C542.88,501.84,542.49,498.6,540.12,498.36z" style="stroke:black;fill:#BFDAE3"/><path id="180623552" parent_id="180608862" order="6" structure_id="1" d="M552.9,451.23c-2.7-3.933-5.552-11.973-8.103-22.83c-2.188-9.33-3.06-11.49-4.737-11.643   c-0.033-0.004-0.063-0.004-0.094-0.007v23.759c0.346-0.012,0.704,0.516,1.291,1.688c1.473,2.938,4.262,11.938,3.96,12.75   c-0.328,0.81-2.039,1.2-5.22,1.2c-0.011,0-0.021,0-0.031,0v3.396c7.979,0.074,9.296-0.074,11.071-1.297   c1.29-0.899,2.67-2.85,2.939-4.2C554.13,453.24,553.95,452.76,552.9,451.23z" style="stroke:black;fill:#BFDAE3"/><path id="180623552" parent_id="180608862" order="7" structure_id="1" d="M545.01,453.96c-0.21-1.83-2.399-8.64-3.569-11.25c-0.613-1.353-1.039-2.007-1.472-1.97v15.224   c1.688,0.032,3.226-0.082,3.901-0.264l1.319-0.33L545.01,453.96z" style="stroke:black;fill:#BFDAE3"/><path id="180623552" parent_id="180608862" order="8" structure_id="1" d="M604.98,536.55c-3.45-12-6.45-17.22-11.853-20.7c-1.17-0.72-5.16-3.63-8.91-6.447   c-3.72-2.79-6.96-5.103-7.198-5.103c-0.33,0-0.421,0.54-0.421,2.55c0,3.57-0.75,5.461-3.118,7.83   c-1.053,1.052-2.521,2.131-3.393,2.552c-1.979,0.898-2.068,1.528-0.239,2.011c4.439,1.198,7.802,4.35,8.791,8.31   c0.181,0.66,0.448,3.57,0.658,6.45c0.183,2.88,0.66,9.3,1.08,14.25c0.69,7.92,0.75,10.05,0.63,17.7   c-0.238,13.529-1.5,19.68-4.77,23.397c-1.98,2.28-5.132,3-10.2,2.28c-4.979-0.72-8.34-1.92-11.432-4.109   c-1.5-1.08-2.311-1.289-2.311-0.601c0,0.21,0.602,1.68,1.32,3.21c2.16,4.59,2.79,7.891,1.8,9.57c-0.72,1.2-1.95,1.8-3.66,1.8   c-1.89,0-3.75-0.78-5.52-2.34c-1.986-1.703-3.453-2.19-6.271-2.111v5.729c0.772-0.003,1.542,0.101,2.821,0.313   c1.5,0.271,5.25,1.29,8.31,2.25c6.063,1.95,19.473,4.92,31.23,6.9l6.51,1.08l1.891-1.021c1.021-0.54,3.302-1.56,5.039-2.278   l3.183-1.262l0.358-2.97c0.449-3.811,1.409-7.92,2.699-11.49c2.28-6.237,3.812-11.97,5.641-21.09   c1.319-6.66,1.649-9.39,1.649-14.01C609.3,553.11,608.34,548.16,604.98,536.55z" style="stroke:black;fill:#BFDAE3"/><path id="180623552" parent_id="180608862" order="9" structure_id="1" d="M540.9,586.5v10.2l0.84,0.18   c1.92,0.42,2.699,0.78,4.108,1.95c1.892,1.56,3.421,2.34,5.069,2.55c1.71,0.24,2.61,0,3.75-0.96c0.87-0.72,0.931-0.9,0.931-2.79   c0-2.46-0.568-4.439-2.25-7.979c-3.42-7.08-8.851-13.353-11.608-13.353h-0.84V586.5z" style="stroke:black;fill:#BFDAE3"/><path id="180623552" parent_id="180608862" order="10" structure_id="1" d="M611.25,417.63   c-2.641,3.03-3.811,4.89-4.83,7.59c-1.83,4.95-6.84,13.38-10.561,17.853c-4.079,4.92-8.369,8.64-12.42,10.83l-2.279,1.197   l-0.12,1.92c-0.149,2.37-1.14,4.053-2.91,4.86c-0.659,0.33-1.229,0.72-1.229,0.9c0,0.21,1.17,0.479,2.938,0.688   c4.381,0.54,14.49,2.07,15.99,2.4c2.58,0.6,2.729,0.54,3.688-1.65c1.41-3.18,5.279-8.699,8.939-12.72   c4.62-5.04,8.55-8.28,12.3-10.05c2.28-1.11,3.33-1.263,4.563-0.722c0.688,0.33,1.68,1.859,1.68,2.642c0,0.18,0.18,0.33,0.391,0.33   c0.63,0,7.109-13.98,7.109-15.271c0-0.51-0.21-0.54-1.891-0.42c-3.602,0.301-8.939-1.56-13.829-4.83   c-1.32-0.897-2.761-1.979-3.15-2.397c-0.42-0.42-1.021-0.78-1.409-0.78c-1.261,0-1.5-0.75-0.78-2.49   C614.76,414.36,614.04,414.39,611.25,417.63z" style="stroke:black;fill:#BFDAE3"/><path id="180623552" parent_id="180608862" order="11" structure_id="1" d="M648.811,446.91   c-2.521,7.59-2.971,16.95-1.229,24.66c0.54,2.31,1.17,2.817,1.47,1.14c0.722-4.08,1.142-10.229,1.263-18.6   c0.147-8.28,0.09-9.513-0.271-9.513C649.74,444.6,649.32,445.41,648.811,446.91z" style="stroke:black;fill:#BFDAE3"/><path id="180623552" parent_id="180608862" order="12" structure_id="1" d="M773.7,551.01   c-0.42,0.09-1.92,0.45-3.391,0.84c-2.159,0.57-2.882,0.933-4.109,2.04c-0.841,0.723-3.48,2.49-5.852,3.933   c-4.318,2.607-5.608,3.75-6,5.369c-0.421,1.619,1.291,2.908,3.899,2.908c2.67,0,7.95-2.188,11.22-4.647   c3.271-2.49,6.631-7.261,6.75-9.54c0.03-0.87-0.06-0.96-0.869-0.99C774.87,550.89,774.12,550.92,773.7,551.01z" style="stroke:black;fill:#BFDAE3"/><path id="180623552" parent_id="180608862" order="13" structure_id="1" d="M724.8,533.37c0,0.75,1.86,3.06,4.08,5.1   c3.511,3.24,8.13,5.73,13.08,7.11c3.78,1.05,10.5,1.32,14.49,0.6c4.05-0.75,9.148-2.43,9.148-3c0-0.24-1.381-0.479-3.959-0.72   c-8.342-0.81-19.262-3.03-26.25-5.34c-1.771-0.603-4.771-1.8-6.659-2.7c-1.86-0.9-3.513-1.62-3.66-1.62   C724.92,532.8,724.8,533.07,724.8,533.37z" style="stroke:black;fill:#BFDAE3"/><path id="180623552" parent_id="180608862" order="14" structure_id="1" d="M708.87,506.13   c-0.45,0.9-0.09,2.49,0.87,3.63c1.199,1.44,10.8,8.521,17.608,12.99c5.939,3.9,19.291,11.97,22.199,13.41   c3.183,1.59,9.54,3.24,14.342,3.72c2.788,0.271,2.67-0.3-0.479-1.89c-1.351-0.723-7.44-3.932-13.562-7.17   c-6.091-3.24-14.551-7.65-18.75-9.78l-7.648-3.931l-0.9-1.682c-3.21-5.97-7.89-9.93-11.729-9.93   C709.5,505.5,709.17,505.62,708.87,506.13z" style="stroke:black;fill:#BFDAE3"/><path id="180623552" parent_id="180608862" order="15" structure_id="4500000030000000" d="M652.141,271.41   c-1.08,0.18-1.051,0.51,0.149,1.56c0.93,0.87,0.96,0.96,0.96,3.24c-0.03,2.85-1.29,6.75-6.6,20.34   c-4.11,10.47-4.711,12.36-5.521,17.312c-1.35,8.158-1.56,17.278-0.779,33.39c0.239,4.95,0.449,10.32,0.449,11.91   c0,2.34,0.092,2.938,0.42,2.938c0.36,0,0.45-2.91,0.57-19.59c0.148-23.97,0.271-25.17,3.811-35.67   c5.909-17.58,11.189-28.62,15.961-33.3c0.959-0.96,1.738-1.86,1.738-2.04C663.3,271.2,654,271.14,652.141,271.41z" style="stroke:black;fill:#BFDAE3"/><path id="180623552" parent_id="180608862" order="16" structure_id="1" d="M547.561,291.99   c-1.648,0.51-3.931,3.51-2.67,3.51c0.182,0,2.489-0.42,5.102-0.96c4.05-0.81,4.71-1.02,4.71-1.5c0-0.36-0.392-0.72-1.051-1.02   C552.48,291.54,549.03,291.51,547.561,291.99z" style="stroke:black;fill:#BFDAE3"/><path id="180623552" parent_id="180608862" order="17" structure_id="1" d="M552.15,522.24   c-1.802,1.17-3.9,2.49-4.62,2.97c-0.841,0.54-1.65,1.44-2.22,2.43c-0.843,1.5-0.9,1.893-1.143,6   c-0.33,6.271-0.33,30.03,0.03,35.012c0.358,4.921,0.84,8.461,1.29,9.301c0.447,0.897,3.06,3.87,5.607,6.449   c2.49,2.521,5.012,4.288,7.32,5.188c1.92,0.721,5.1,0.6,7.141-0.33c3.629-1.59,6.392-6.6,7.021-12.66   c0.24-2.58-0.3-4.14-4.229-12.147c-1.681-3.48-3.271-6.9-3.539-7.65c-1.17-3.54-1.592-8.067-2.012-21.6   c-0.39-12.513-0.39-12.392-1.647-13.74c-0.961-1.05-1.08-1.109-3.36-1.2l-2.34-0.12L552.15,522.24z" style="stroke:black;fill:#BFDAE3"/><path id="180623552" parent_id="180608862" order="18" structure_id="1" d="M620.49,512.43   c-1.59,0.302-2.101,0.57-4.95,2.61c-1.29,0.899-2.34,1.86-2.34,2.1c0,0.24-0.3,0.96-0.66,1.591c-0.479,0.899-0.57,1.262-0.3,1.529   c0.96,0.96,9.63,0.42,12.27-0.81c2.313-1.05,3.12-3.15,2.04-5.22C625.8,512.76,623.04,511.92,620.49,512.43z" style="stroke:black;fill:#BFDAE3"/><path id="180623552" parent_id="180608862" order="19" structure_id="1" d="M607.17,487.98   c-7.08,2.43-20.37,4.56-37.529,5.97c-1.591,0.147-2.341,0.33-2.341,0.568c0,0.392,4.891,2.012,7.65,2.552   c0.84,0.147,3.6,0.357,6.148,0.479c5.069,0.183,10.079,0.813,12.029,1.5c1.562,0.57,4.74,0.57,6.75,0.03   c3.3-0.87,6.45-3.3,8.7-6.69c1.05-1.56,2.521-4.619,2.521-5.188C611.1,486.72,610.26,486.9,607.17,487.98z" style="stroke:black;fill:#BFDAE3"/><path id="180623552" parent_id="180608862" order="20" structure_id="1" d="M602.04,620.37   c-0.87,0.78-0.99,1.05-0.99,2.398c0,1.262,0.15,1.649,0.841,2.342c0.689,0.688,1.079,0.84,2.341,0.84   c1.351,0,1.618-0.12,2.398-0.99c1.29-1.41,1.229-3.06-0.148-4.44C605.1,619.14,603.45,619.08,602.04,620.37z" style="stroke:black;fill:#BFDAE3"/><path id="180623552" parent_id="180608862" order="21" structure_id="1" d="M710.22,629.22   c-2.159,0.933-2.938,3.69-1.56,5.433c2.699,3.447,9.54,1.947,9.54-2.07c0-0.99-0.182-1.44-0.87-2.102   C715.77,629.01,712.2,628.35,710.22,629.22z" style="stroke:black;fill:#BFDAE3"/><path id="180623552" parent_id="180608862" order="22" structure_id="1" d="M558.45,494.61   c-0.811,0.027-2.61,0.147-3.99,0.27l-2.46,0.181l-0.78,1.319c-1.17,1.98-2.46,6.271-2.818,9.39c-0.302,2.313-0.271,3.15,0.148,5.16   c0.87,4.32,2.341,6.723,5.07,8.16c1.771,0.93,7.29,0.93,11.13-0.029c9.27-2.311,13.02-7.381,11.43-15.329   c-0.6-2.882-1.92-6.659-2.397-6.75c-0.183-0.062-2.04-0.659-4.142-1.352C565.65,494.34,564.45,494.25,558.45,494.61z" style="stroke:black;fill:#BFDAE3"/><path id="180623552" parent_id="180608862" order="23" structure_id="1" d="M686.1,499.35c0,0.69,1.353,1.92,7.65,7.053   c2.82,2.277,7.41,6.329,10.2,9.027c12.93,12.36,20.64,17.79,30,21.09c9.239,3.271,25.62,6.271,33.569,6.15   c2.908-0.03,3.631-0.27,3.631-1.17c0-0.72-0.091-0.75-2.67-0.96c-6.48-0.479-13.683-2.01-17.882-3.81   c-2.431-1.021-16.829-9.66-23.761-14.223c-2.85-1.89-9.239-6.447-14.188-10.17c-4.95-3.688-9.813-7.29-10.802-7.95   c-4.079-2.729-10.198-5.157-13.709-5.43C686.311,498.84,686.1,498.87,686.1,499.35z" style="stroke:black;fill:#BFDAE3"/><path id="180623552" parent_id="180608862" order="24" structure_id="1" d="M604.98,536.55c-3.45-12-6.45-17.22-11.853-20.7c-1.17-0.72-5.16-3.63-8.91-6.447   c-3.72-2.79-6.96-5.103-7.198-5.103c-0.33,0-0.421,0.54-0.421,2.55c0,3.57-0.75,5.461-3.118,7.83   c-1.053,1.052-2.521,2.131-3.393,2.552c-1.979,0.898-2.068,1.528-0.239,2.011c4.439,1.198,7.802,4.35,8.791,8.31   c0.181,0.66,0.448,3.57,0.658,6.45c0.183,2.88,0.66,9.3,1.08,14.25c0.69,7.92,0.75,10.05,0.63,17.7   c-0.238,13.529-1.5,19.68-4.77,23.397c-1.98,2.28-5.132,3-10.2,2.28c-4.979-0.72-8.34-1.92-11.432-4.109   c-1.5-1.08-2.311-1.289-2.311-0.601c0,0.21,0.602,1.68,1.32,3.21c2.16,4.59,2.79,7.891,1.8,9.57c-0.72,1.2-1.95,1.8-3.66,1.8   c-1.89,0-3.75-0.78-5.52-2.34c-1.986-1.703-3.453-2.19-6.271-2.111v5.729c0.772-0.003,1.542,0.101,2.821,0.313   c1.5,0.271,5.25,1.29,8.31,2.25c6.063,1.95,19.473,4.92,31.23,6.9l6.51,1.08l1.891-1.021c1.021-0.54,3.302-1.56,5.039-2.278   l3.183-1.262l0.358-2.97c0.449-3.811,1.409-7.92,2.699-11.49c2.28-6.237,3.812-11.97,5.641-21.09   c1.319-6.66,1.649-9.39,1.649-14.01C609.3,553.11,608.34,548.16,604.98,536.55z" style="stroke:black;fill:#BFDAE3"/><path id="180623552" parent_id="180608862" order="25" structure_id="1" d="M574.561,497.79c0.062,0.21,0.479,1.56,0.959,3   l0.871,2.64l7.979,6c5.85,4.381,8.79,6.393,10.979,7.473c5.28,2.607,11.19,4.17,14.25,3.75c4.353-0.603,4.86-6.393,0.99-11.19   c-2.188-2.7-13.89-9.358-18.54-10.56C588.33,497.939,574.35,497.07,574.561,497.79z" style="stroke:black;fill:#BFDAE3"/><path id="180623552" parent_id="180608862" order="26" structure_id="1" d="M593.67,615.6c-2.25-1.438-4.561-2.188-8.97-2.85c-9.48-1.41-27.181-5.22-32.852-7.05   c-5.597-1.827-8.92-2.648-11.882-2.682v29.582c2.741-0.006,5.6-0.305,11.132-0.923c10.261-1.14,15.149-1.38,26.882-1.35   c8.788,0.03,11.129-0.063,12.72-0.42c5.22-1.26,7.2-3.03,7.2-6.42C597.9,620.07,596.46,617.4,593.67,615.6z" style="stroke:black;fill:#BFDAE3"/><path id="180623552" parent_id="180608862" order="27" structure_id="1" d="M615.45,479.43c-0.36-3.119-0.9-3.81-5.28-6.75c-5.16-3.42-9.84-5.698-13.32-6.448   c-5.909-1.291-19.198-3.029-24.119-3.149c-2.641-0.063-3.931-0.24-5.398-0.75c-3.822-1.314-6.879-1.498-27.361-1.47v33.987   c0.111,0,0.221,0,0.331,0c35.7-0.027,66.841-4.409,73.591-10.35C615.24,483.33,615.72,481.74,615.45,479.43z" style="stroke:black;fill:#BFDAE3"/><path id="180623552" parent_id="180608862" order="28" structure_id="1" d="M595.05,365.85c-6.06-9.3-25.439-25.56-38.31-32.13c-9.45-4.8-13.892-9.72-15.392-17.01   c-0.148-0.72-0.301-0.81-1.318-0.81h-0.063v100.486c1.498-0.093,3.007,3.539,4.861,11.502c3.18,13.83,6.3,21.843,9.84,25.32   c4.83,4.771,9.57,8.07,13.021,9.15c1.711,0.51,2.608,0.6,5.25,0.479c5.011-0.21,7.2-1.5,7.891-4.649   c0.689-3.061-0.45-10.078-2.91-18.091l-1.08-3.447l-6.688-6.603c-8.07-7.979-12.841-13.56-17.973-21.12   c-2.068-3.027-2.85-4.59-3.868-7.527c-1.592-4.62-3.212-14.25-3.212-18.962c0.03-6.778,3.66-14.22,7.473-15.238   c2.818-0.75,6.18,0.479,8.698,3.148c1.829,1.92,3.302,4.92,5.819,11.7c3.54,9.602,4.29,13.5,4.86,25.65   c0.569,12.12,0.989,17.04,1.648,19.647c0.869,3.271,2.852,8.4,3.329,8.49c0.271,0.063,0.9-0.87,1.712-2.55   c4.561-9.21,10.828-16.92,18.42-22.562c2.729-1.979,3-2.311,3.959-4.318c1.472-3.12,2.222-5.79,2.642-9.511   C604.68,387.66,601.29,375.39,595.05,365.85z" style="stroke:black;fill:#BFDAE3"/><path id="180623552" parent_id="180608862" order="29" structure_id="1" d="M595.05,365.85c-6.06-9.3-25.439-25.56-38.31-32.13c-9.45-4.8-13.892-9.72-15.392-17.01   c-0.148-0.72-0.301-0.81-1.318-0.81h-0.063v100.486c1.498-0.093,3.007,3.539,4.861,11.502c3.18,13.83,6.3,21.843,9.84,25.32   c4.83,4.771,9.57,8.07,13.021,9.15c1.711,0.51,2.608,0.6,5.25,0.479c5.011-0.21,7.2-1.5,7.891-4.649   c0.689-3.061-0.45-10.078-2.91-18.091l-1.08-3.447l-6.688-6.603c-8.07-7.979-12.841-13.56-17.973-21.12   c-2.068-3.027-2.85-4.59-3.868-7.527c-1.592-4.62-3.212-14.25-3.212-18.962c0.03-6.778,3.66-14.22,7.473-15.238   c2.818-0.75,6.18,0.479,8.698,3.148c1.829,1.92,3.302,4.92,5.819,11.7c3.54,9.602,4.29,13.5,4.86,25.65   c0.569,12.12,0.989,17.04,1.648,19.647c0.869,3.271,2.852,8.4,3.329,8.49c0.271,0.063,0.9-0.87,1.712-2.55   c4.561-9.21,10.828-16.92,18.42-22.562c2.729-1.979,3-2.311,3.959-4.318c1.472-3.12,2.222-5.79,2.642-9.511   C604.68,387.66,601.29,375.39,595.05,365.85z" style="stroke:black;fill:#BFDAE3"/><path id="180623552" parent_id="180608862" order="30" structure_id="1" d="M595.05,365.85c-6.06-9.3-25.439-25.56-38.31-32.13c-9.45-4.8-13.892-9.72-15.392-17.01   c-0.148-0.72-0.301-0.81-1.318-0.81h-0.063v100.486c1.498-0.093,3.007,3.539,4.861,11.502c3.18,13.83,6.3,21.843,9.84,25.32   c4.83,4.771,9.57,8.07,13.021,9.15c1.711,0.51,2.608,0.6,5.25,0.479c5.011-0.21,7.2-1.5,7.891-4.649   c0.689-3.061-0.45-10.078-2.91-18.091l-1.08-3.447l-6.688-6.603c-8.07-7.979-12.841-13.56-17.973-21.12   c-2.068-3.027-2.85-4.59-3.868-7.527c-1.592-4.62-3.212-14.25-3.212-18.962c0.03-6.778,3.66-14.22,7.473-15.238   c2.818-0.75,6.18,0.479,8.698,3.148c1.829,1.92,3.302,4.92,5.819,11.7c3.54,9.602,4.29,13.5,4.86,25.65   c0.569,12.12,0.989,17.04,1.648,19.647c0.869,3.271,2.852,8.4,3.329,8.49c0.271,0.063,0.9-0.87,1.712-2.55   c4.561-9.21,10.828-16.92,18.42-22.562c2.729-1.979,3-2.311,3.959-4.318c1.472-3.12,2.222-5.79,2.642-9.511   C604.68,387.66,601.29,375.39,595.05,365.85z" style="stroke:black;fill:#BFDAE3"/><path id="180623552" parent_id="180608862" order="31" structure_id="1" d="M710.25,569.1   c-2.67,0.57-9.03,1.29-14.55,1.683l-2.852,0.21l-2.431,2.277c-2.608,2.462-4.68,3.843-7.68,5.07   c-1.682,0.721-2.28,0.813-5.342,0.813c-2.551,0-3.931-0.15-5.34-0.57c-1.021-0.33-1.951-0.51-2.041-0.42s0,1.08,0.211,2.22   c0.75,4.23-0.148,12.03-1.948,17.07c-1.382,3.84-3.15,6.72-5.642,9.3c-1.108,1.14-2.041,2.188-2.041,2.313   c0,0.117,0.51,0.237,1.142,0.237c0.601,0,4.08,0.15,7.711,0.3c3.63,0.183,10.92,0.33,16.198,0.33l9.602,0.03l3-0.96   c6.63-2.13,13.648-6.3,18.148-10.771c2.939-2.972,8.789-11.012,9.271-12.779c0.51-1.892,0.392-5.28-0.271-7.38   c-1.108-3.603-3.778-6.78-7.08-8.4C715.95,568.5,713.85,568.35,710.25,569.1z" style="stroke:black;fill:#BFDAE3"/><path id="180623552" parent_id="180608862" order="32" structure_id="1" d="M653.7,570.75   c-5.37,0.9-12.811,2.939-15.3,4.23c-3.45,1.737-8.131,6.81-10.381,11.277c-1.5,2.973-2.039,5.313-1.83,8.13   c0.479,7.29,7.021,11.73,19.858,13.563c4.41,0.6,9.42,1.05,12.03,1.05h2.1l1.712-1.53c1.92-1.71,4.528-5.489,5.698-8.31   c1.86-4.41,2.729-9.84,2.552-16.08c-0.092-3.57-0.212-4.471-0.78-5.7c-0.989-2.19-2.039-3.42-4.021-4.68   C661.8,570.39,658.77,569.88,653.7,570.75z" style="stroke:black;fill:#BFDAE3"/><path id="180623552" parent_id="180608862" order="33" structure_id="1" d="M670.74,510.51   c-1.59,1.83-2.58,5.37-2.851,10.353c-0.422,7.92,1.591,12.84,5.22,12.84c2.068,0,3.841-0.96,4.83-2.642   c0.721-1.261,0.811-1.771,0.898-4.561c0.091-2.609-0.028-3.66-0.659-6.061c-0.811-3.182-2.58-7.17-4.051-9.182   c-0.779-1.05-1.109-1.26-1.949-1.26C671.609,510,671.01,510.21,670.74,510.51z" style="stroke:black;fill:#BFDAE3"/><path id="180623552" parent_id="180608862" order="34" structure_id="1" d="M542.4,499.561c0,0.209,0.147,1.229,0.3,2.25   c0.27,1.562,0.148,3-0.66,9.149l-0.96,7.29l-0.12,28.86c-0.06,25.59-0.03,28.89,0.36,28.89c0.27,0,1.08,0.3,1.83,0.66   c0.72,0.358,1.438,0.57,1.527,0.45c0.12-0.092,0.063-1.38-0.147-2.853c-0.75-5.88-1.021-15.42-0.75-27.96   c0.12-6.84,0.27-16.56,0.3-21.6c0.029-5.04,0.21-10.65,0.39-12.45c0.721-7.021,0.75-9.84,0.183-10.95   c-0.271-0.567-0.723-1.29-0.99-1.59C543.12,499.11,542.4,499.02,542.4,499.561z" style="stroke:black;fill:#BFDAE3"/><path id="180623552" parent_id="180608862" order="35" structure_id="1" d="M565.35,518.97   c-0.33,0.15-1.59,0.42-2.76,0.63c-1.47,0.271-2.188,0.54-2.188,0.813c0,0.21,0.209,0.479,0.448,0.6   c0.271,0.09,0.78,0.723,1.11,1.41c0.601,1.141,0.66,1.86,0.87,10.38c0.33,13.2,0.93,20.312,1.979,23.7   c0.301,0.899,1.83,4.29,3.392,7.5c3.93,7.95,4.5,9.42,4.5,11.729c0,3.659-1.8,8.671-4.021,11.279c-1.198,1.38-4.289,3.09-5.64,3.09   c-0.51,0-0.84,0.15-0.84,0.393c0,0.27,0.75,0.51,2.34,0.75c4.47,0.659,5.64,0.72,7.41,0.39c5.789-1.08,8.1-6.78,8.907-22.08   c0.393-7.17,0.212-11.52-0.93-25.05c-0.33-3.87-0.75-9.21-0.897-11.851c-0.183-2.909-0.48-5.341-0.75-6.149   c-0.66-1.83-2.433-4.11-4.173-5.312C571.8,519.63,566.82,518.37,565.35,518.97z" style="stroke:black;fill:#BFDAE3"/><path id="180623552" parent_id="180608862" order="36" structure_id="1" d="M622.05,440.939   c-2.04,0.721-3.898,1.829-6.659,4.021c-4.171,3.3-10.108,9.81-12.871,14.04c-1.527,2.4-3.777,6.84-3.658,7.26   c0.061,0.15,1.108,0.722,2.341,1.26c1.229,0.541,3.3,1.62,4.59,2.37c1.29,0.78,2.61,1.41,2.88,1.41c0.63,0,4.591-4.05,6.66-6.75   C619.8,458.67,627,446.4,627,444.66C627,441.27,625.109,439.83,622.05,440.939z" style="stroke:black;fill:#BFDAE3"/><path id="180623552" parent_id="180608862" order="37" structure_id="1" d="M645.27,419.64   c-2.22,3.12-3.629,8.103-7.288,25.41c-0.899,4.29-1.802,8.19-1.979,8.7c-0.18,0.48-1.35,2.939-2.607,5.43l-2.281,4.53l-0.149,2.94   c-0.18,3.81,0.271,6.27,2.102,11.22c0.811,2.189,1.681,4.89,1.948,6c0.69,2.91,0.602,7.17-0.18,10.02   c-0.93,3.393-1.02,3.21,1.859,3.21c4.381,0,8.608-1.47,11.398-3.897l1.38-1.23l-0.118-2.76c-0.689-12.45-0.75-13.41-1.472-16.14   c-1.08-4.11-1.47-7.143-1.47-11.521c0.029-6,1.107-12,3-16.438c0.779-1.86,0.779-1.86,0.42-5.643c-0.3-3.33-1.71-13.08-2.729-18.96   c-0.209-1.107-0.512-2.01-0.722-2.01C646.2,418.5,645.689,419.01,645.27,419.64z" style="stroke:black;fill:#BFDAE3"/><path id="180623552" parent_id="180608862" order="38" structure_id="1" d="M795.15,225.48   c-21.45,26.31-39.03,48-39.063,48.21c-0.06,0.18,1.021,1.17,2.37,2.16c1.352,0.99,3.78,2.85,5.398,4.14   c1.62,1.29,3.062,2.31,3.182,2.25c0.479-0.18,86.46-90.54,86.46-90.84c0-0.57-18.33-13.83-19.08-13.8   C834.27,177.63,816.6,199.14,795.15,225.48z" style="stroke:black;fill:#BFDAE3"/><path id="180623552" parent_id="180608862" order="39" structure_id="1" d="M662.1,492.061c0,4.472-0.93,7.38-2.789,8.762   c-1.17,0.868-3.568,0.81-5.461-0.15l-1.409-0.72l-1.021,1.17c-2.189,2.55-6.93,11.729-7.8,15.18c-0.39,1.563-0.45,2.79-0.33,6   c0.3,7.472,1.47,10.83,5.01,14.433c2.4,2.43,4.17,3.357,8.67,4.5c7.771,1.979,8.91,3.027,13.98,12.72   c4.29,8.22,5.76,11.7,6.239,14.7l0.329,2.22l1.682,0.21c4.14,0.51,23.37-0.72,30-1.92c1.56-0.271,3.87-0.51,5.1-0.51   c1.891,0,2.521,0.147,4.021,0.897c4.92,2.49,8.46,8.79,7.829,13.86c-0.091,0.87-0.062,1.59,0.061,1.59   c0.148,0,3.391-3.061,7.2-6.84c8.278-8.16,10.319-10.98,11.01-15.24l0.21-1.229l-1.438-0.539c-3.841-1.41-10.709-5.73-17.341-10.92   c-9.898-7.771-11.818-9.75-14.398-14.82c-2.16-4.29-3.75-10.471-3.75-14.61v-1.738l-4.561-4.352   c-2.521-2.398-6.541-5.939-8.939-7.86c-6.21-5.038-7.771-6.42-8.28-7.38c-0.779-1.5-3.39-2.43-9.57-3.3   c-4.107-0.57-8.22-2.46-11.938-5.52c-0.931-0.75-1.802-1.353-1.979-1.353C662.22,489.3,662.1,490.32,662.1,492.061z M673.32,510.33   c1.948,1.53,4.528,7.32,5.46,12.15c1.14,6.117-0.36,10.079-4.261,11.22c-3.449,1.02-6.029-2.19-6.722-8.46   c-0.6-5.313,0.75-12.302,2.82-14.49C671.79,509.55,672.21,509.46,673.32,510.33z" style="stroke:black;fill:#BFDAE3"/><path id="180623552" parent_id="180608862" order="40" structure_id="1" d="M562.8,459.96c-1.29-0.72-6-4.59-7.17-5.88c-0.42-0.42-0.87-0.78-1.05-0.78s-0.57,0.66-0.84,1.44   c-0.601,1.68-2.07,3.3-3.722,4.14c-1.079,0.51-1.891,0.57-10.021,0.57c-0.011,0-0.021,0-0.031,0v1.515   c10.352,0,20.72,0.075,22.021,0.227C564.391,461.46,564.66,461.04,562.8,459.96z" style="stroke:black;fill:#BFDAE3"/><path id="180623552" parent_id="180608862" order="41" structure_id="1" d="M553.98,519.21c-2.791-1.14-4.53-3.78-5.433-8.28c-0.42-2.01-0.45-2.85-0.18-5.13   c0.39-3.06,1.528-6.989,2.608-8.97c0.392-0.72,0.722-1.47,0.722-1.65c0-0.238-3.24-0.33-11.7-0.33c-0.011,0-0.021,0-0.031,0v3.454   c0.011,0,0.021-0.003,0.031-0.003c0.45,0,0.989,0.21,1.2,0.45c0.21,0.24,0.75,0.45,1.198,0.45c0.899,0,1.472,0.54,2.25,2.1   c0.602,1.142,0.539,3.21-0.271,12.392c-0.479,5.398-0.33,14.608,0.24,14.608c0.18,0,0.63-0.54,0.989-1.17   c0.358-0.63,1.291-1.56,2.041-2.01c0.72-0.48,2.76-1.74,4.47-2.82c1.739-1.08,3.147-2.1,3.18-2.25   C555.3,519.87,554.7,519.51,553.98,519.21z" style="stroke:black;fill:#BFDAE3"/><path id="180623552" parent_id="180608862" order="42" structure_id="1" d="M792.3,537.9   c-0.75,0.3-2.76,0.75-4.5,1.02c-4.2,0.66-6.03,1.23-6.989,2.1c-0.841,0.78-1.108,2.343-0.511,2.73c0.182,0.09,0.3,0.39,0.3,0.66   c0,0.72-5.25,0.39-7.647-0.48c-0.96-0.33-1.892-0.63-2.013-0.63c-0.117,0-0.237,0.932-0.237,2.07c0,2.189-0.36,3.6-1.263,4.89   c-1.17,1.71-0.6,2.07,2.103,1.29c0.84-0.27,2.25-0.51,3.12-0.54l1.59-0.06l-0.03,0.96c-0.119,2.279-3.479,7.05-6.75,9.54   c-3.81,2.85-9.18,4.89-12.06,4.53c-2.7-0.303-3.723-1.62-2.79-3.513c0.479-0.987,0.63-1.77,0.3-1.77c-0.09,0-0.93,0.237-1.857,0.51   c-1.171,0.36-2.82,0.51-5.07,0.54h-3.36l-0.21,1.2c-0.6,3.6-2.85,7.08-8.13,12.479c-2.19,2.25-3.99,4.23-3.99,4.41   c0,0.57,0.96,0.42,3.182-0.42c8.011-3.06,14.971-3.99,19.261-2.55c1.021,0.359,1.979,0.63,2.16,0.63c0.147,0,0.3-0.689,0.3-1.59   c0-2.49,1.17-4.11,5.25-7.2c1.317-1.021,4.89-3.87,7.95-6.36c3.06-2.487,6.959-5.67,8.697-7.05   c5.791-4.647,8.762-7.318,11.762-10.647c2.579-2.883,2.938-3.393,2.761-4.11c-0.09-0.51,0-1.08,0.3-1.5   c0.57-0.811,0.63-1.74,0.12-1.71C793.83,537.36,793.05,537.6,792.3,537.9z" style="stroke:black;fill:#BFDAE3"/><path id="180623552" parent_id="180608862" order="43" structure_id="1" d="M639.45,406.11   c-2.852,16.26-4.32,21.81-7.682,29.31c-6.448,14.22-12.209,24.24-17.698,30.75l-1.802,2.13l0.479,1.38   c0.24,0.78,0.54,2.223,0.66,3.21c0.12,1.171,0.447,2.19,0.87,2.853c0.897,1.318,1.317,2.818,1.317,4.83   c0,2.067-0.81,3.51-2.729,4.8c-0.812,0.567-1.472,1.17-1.472,1.35c0,0.21-0.479,1.353-1.079,2.58   c-2.972,6.21-6.869,9.42-12.479,10.353c-0.63,0.09-1.14,0.33-1.14,0.539c0,0.211,1.438,1.079,3.147,1.979   c4.291,2.22,9.183,5.49,10.65,7.142c1.319,1.528,2.52,3.868,2.819,5.551c0.119,0.63,0.33,1.14,0.511,1.14   c0.149,0,0.989-0.54,1.858-1.17c2.222-1.68,4.591-2.73,6.239-2.73c1.352,0,1.41-0.06,3.302-2.34c3.841-4.59,5.188-6.63,7.8-11.79   c1.95-3.84,2.489-6.329,2.25-10.317c-0.182-3.512-0.569-5.132-2.432-10.11c-1.8-4.8-2.459-8.521-2.01-11.608   c0.271-1.922,0.75-3.149,2.76-7.262l2.432-4.95l1.891-9c3.811-17.938,5.311-22.857,7.859-25.89l0.811-0.96l-0.84-4.38   c-1.2-6.33-1.472-7.23-2.609-8.4c-0.961-1.02-2.311-1.89-2.91-1.89C640.08,403.2,639.72,404.52,639.45,406.11z" style="stroke:black;fill:#BFDAE3"/><path id="180623552" parent_id="180608862" order="44" structure_id="1" d="M595.05,365.85c-6.06-9.3-25.439-25.56-38.31-32.13c-9.45-4.8-13.892-9.72-15.392-17.01   c-0.148-0.72-0.301-0.81-1.318-0.81h-0.063v100.486c1.498-0.093,3.007,3.539,4.861,11.502c3.18,13.83,6.3,21.843,9.84,25.32   c4.83,4.771,9.57,8.07,13.021,9.15c1.711,0.51,2.608,0.6,5.25,0.479c5.011-0.21,7.2-1.5,7.891-4.649   c0.689-3.061-0.45-10.078-2.91-18.091l-1.08-3.447l-6.688-6.603c-8.07-7.979-12.841-13.56-17.973-21.12   c-2.068-3.027-2.85-4.59-3.868-7.527c-1.592-4.62-3.212-14.25-3.212-18.962c0.03-6.778,3.66-14.22,7.473-15.238   c2.818-0.75,6.18,0.479,8.698,3.148c1.829,1.92,3.302,4.92,5.819,11.7c3.54,9.602,4.29,13.5,4.86,25.65   c0.569,12.12,0.989,17.04,1.648,19.647c0.869,3.271,2.852,8.4,3.329,8.49c0.271,0.063,0.9-0.87,1.712-2.55   c4.561-9.21,10.828-16.92,18.42-22.562c2.729-1.979,3-2.311,3.959-4.318c1.472-3.12,2.222-5.79,2.642-9.511   C604.68,387.66,601.29,375.39,595.05,365.85z" style="stroke:black;fill:#BFDAE3"/><path id="180623552" parent_id="180608862" order="45" structure_id="1" d="M600.51,425.58   c-6.06,0.93-14.188,3.03-18.869,4.83l-1.979,0.75l-1.229,2.64c-0.688,1.47-1.229,2.88-1.229,3.15c0,0.3,0.54,2.28,1.2,4.438   c1.26,4.11,2.22,8.433,2.58,11.521c0.119,1.17,0.33,1.89,0.567,1.89c0.69,0,5.25-2.938,7.65-4.95   c5.7-4.737,12.479-13.947,15.897-21.6c1.291-2.85,1.23-3.15-0.51-3.12C603.78,425.16,601.95,425.34,600.51,425.58z" style="stroke:black;fill:#BFDAE3"/><path id="180623552" parent_id="180608862" order="46" structure_id="1" d="M648,493.38c-1.109,1.14-5.22,3-7.95,3.57   c-1.648,0.33-3.03,0.45-4.409,0.3l-2.011-0.18l-0.81,1.59c-0.45,0.87-1.41,2.608-2.19,3.84l-1.38,2.25l0.03,3   c0.06,3.811,0.78,5.85,2.64,7.59c0.99,0.9,1.68,1.26,2.73,1.41c1.92,0.3,5.67,0,7.527-0.57c1.262-0.39,1.592-0.63,1.771-1.317   c0.39-1.62,4.35-9.271,6.3-12.183l1.979-2.97l-0.899-1.74c-0.51-0.93-1.11-2.488-1.32-3.45C649.53,492.48,649.05,492.21,648,493.38   z" style="stroke:black;fill:#BFDAE3"/><path id="180623552" parent_id="180608862" order="47" structure_id="1" d="M615.9,402.27   c-13.08,2.791-24.961,11.313-33.063,23.7c-2.909,4.5-2.79,4.86,1.29,3.48c5.312-1.83,15.12-4.021,20.221-4.5l2.132-0.21l0.51-1.26   c0.688-1.65,2.399-3.9,6.27-8.19c2.82-3.18,3.45-4.11,5.61-8.22c1.35-2.58,2.43-4.83,2.43-5.011   C621.3,401.55,618.9,401.64,615.9,402.27z" style="stroke:black;fill:#BFDAE3"/><path id="180623552" parent_id="180608862" order="48" structure_id="1" d="M595.05,365.85c-6.06-9.3-25.439-25.56-38.31-32.13c-9.45-4.8-13.892-9.72-15.392-17.01   c-0.148-0.72-0.301-0.81-1.318-0.81h-0.063v100.486c1.498-0.093,3.007,3.539,4.861,11.502c3.18,13.83,6.3,21.843,9.84,25.32   c4.83,4.771,9.57,8.07,13.021,9.15c1.711,0.51,2.608,0.6,5.25,0.479c5.011-0.21,7.2-1.5,7.891-4.649   c0.689-3.061-0.45-10.078-2.91-18.091l-1.08-3.447l-6.688-6.603c-8.07-7.979-12.841-13.56-17.973-21.12   c-2.068-3.027-2.85-4.59-3.868-7.527c-1.592-4.62-3.212-14.25-3.212-18.962c0.03-6.778,3.66-14.22,7.473-15.238   c2.818-0.75,6.18,0.479,8.698,3.148c1.829,1.92,3.302,4.92,5.819,11.7c3.54,9.602,4.29,13.5,4.86,25.65   c0.569,12.12,0.989,17.04,1.648,19.647c0.869,3.271,2.852,8.4,3.329,8.49c0.271,0.063,0.9-0.87,1.712-2.55   c4.561-9.21,10.828-16.92,18.42-22.562c2.729-1.979,3-2.311,3.959-4.318c1.472-3.12,2.222-5.79,2.642-9.511   C604.68,387.66,601.29,375.39,595.05,365.85z" style="stroke:black;fill:#BFDAE3"/><path id="180623552" parent_id="180608862" order="49" structure_id="1" d="M551.46,367.71   c-1.979,0.96-4.44,5.04-5.521,9.03c-1.682,6.3,0.391,20.85,3.961,28.107c2.97,6,10.527,15.54,18.869,23.763   c3.391,3.357,6.329,6.09,6.541,6.09c0.6,0,0.479-0.54-0.843-4.23c-1.47-4.14-1.89-7.229-2.369-17.067   c-0.868-19.081-1.5-22.5-6.479-34.893c-2.13-5.31-3.15-7.14-4.979-8.76C558.03,367.38,553.95,366.48,551.46,367.71z" style="stroke:black;fill:#BFDAE3"/><path id="180623552" parent_id="180608862" order="50" structure_id="1" d="M542.4,319.98c0,1.05,2.039,4.229,4.17,6.479   c2.85,3.03,4.8,4.41,10.38,7.352c5.43,2.879,8.64,4.92,13.8,8.788c8.189,6.15,16.95,14.07,21.45,19.352   c5.398,6.36,9.84,16.41,11.31,25.47c0.69,4.47,0.42,10.86-0.63,14.37c-0.42,1.47-1.05,3.18-1.38,3.81   c-0.66,1.29-0.78,2.103-0.3,2.103c0.18,0,1.83-0.72,3.689-1.62c1.828-0.9,4.591-2.04,6.061-2.55c3-0.99,8.22-2.13,9.84-2.13   c0.96,0,1.08-0.12,1.649-1.44c1.381-3.21,1.711-5.79,1.681-12.66c-0.03-7.318-0.601-11.31-2.82-20.188   c-2.159-8.55-7.38-23.16-8.609-24.063c-1.141-0.84-8.761-4.47-14.698-7.02c-13.229-5.641-30.722-11.94-37.021-13.352   c-1.891-0.42-5.938-1.108-9-1.528c-3.091-0.42-6.359-0.961-7.291-1.2C542.55,319.38,542.4,319.38,542.4,319.98z" style="stroke:black;fill:#BFDAE3"/><path id="180623552" parent_id="180608862" order="51" structure_id="1" d="M708,521.88c0,2.73,1.02,7.561,2.311,10.771   c2.399,6.09,4.619,8.76,12.359,14.97c8.7,6.96,12.96,9.87,17.88,12.21c3.75,1.8,5.55,2.188,8.761,1.95   c3.659-0.271,6.539-1.32,10.949-3.99c6-3.602,9-6.33,10.051-9.18c0.42-1.2,0.479-4.11,0.091-5.16   c-0.302-0.78-0.359-0.78-2.041-0.57c-0.931,0.12-2.729,0.603-3.959,1.11c-7.649,3.06-15.392,3.66-22.5,1.68   c-3-0.81-8.399-3.479-10.802-5.31c-3.357-2.552-6.3-5.853-6.75-7.592c-0.119-0.479-1.198-1.408-3.09-2.698   c-3.358-2.313-8.34-6.24-10.858-8.552c-0.962-0.898-1.892-1.618-2.069-1.618C708.12,519.9,708,520.62,708,521.88z" style="stroke:black;fill:#BFDAE3"/><path id="180623552" parent_id="180608862" order="52" structure_id="1" d="M664.92,395.16   c0.391,2.279,0.84,11.13,0.87,18.24l0.06,7.647l-1.26,5.4c-0.688,2.97-1.89,8.58-2.699,12.449l-1.438,7.051l0.028,7.949   c0,4.381,0.33,13.829,0.689,21c0.6,11.368,0.75,13.141,1.2,13.801c0.78,1.08,4.35,3.72,6.689,4.949   c2.88,1.528,4.108,1.891,8.341,2.579c3.75,0.569,7.35,1.562,7.647,2.102c0.12,0.148,0.75,0.27,1.472,0.27   c1.648,0,5.34,0.933,8.521,2.133c1.351,0.538,2.55,0.897,2.61,0.81c0.09-0.09,0-1.14-0.15-2.37c-0.6-3.96,0.12-10.95,2.7-26.88   c1.59-9.78,1.77-12.66,1.2-17.49c-0.99-7.83-4.473-18.84-8.761-27.54c-3.812-7.71-12.271-19.438-19.439-26.88   c-2.88-3-6.932-6.18-7.86-6.18C664.83,394.2,664.77,394.32,664.92,395.16z" style="stroke:black;fill:#BFDAE3"/><path id="180623552" parent_id="180608862" order="53" structure_id="1" d="M595.05,365.85c-6.06-9.3-25.439-25.56-38.31-32.13c-9.45-4.8-13.892-9.72-15.392-17.01   c-0.148-0.72-0.301-0.81-1.318-0.81h-0.063v100.486c1.498-0.093,3.007,3.539,4.861,11.502c3.18,13.83,6.3,21.843,9.84,25.32   c4.83,4.771,9.57,8.07,13.021,9.15c1.711,0.51,2.608,0.6,5.25,0.479c5.011-0.21,7.2-1.5,7.891-4.649   c0.689-3.061-0.45-10.078-2.91-18.091l-1.08-3.447l-6.688-6.603c-8.07-7.979-12.841-13.56-17.973-21.12   c-2.068-3.027-2.85-4.59-3.868-7.527c-1.592-4.62-3.212-14.25-3.212-18.962c0.03-6.778,3.66-14.22,7.473-15.238   c2.818-0.75,6.18,0.479,8.698,3.148c1.829,1.92,3.302,4.92,5.819,11.7c3.54,9.602,4.29,13.5,4.86,25.65   c0.569,12.12,0.989,17.04,1.648,19.647c0.869,3.271,2.852,8.4,3.329,8.49c0.271,0.063,0.9-0.87,1.712-2.55   c4.561-9.21,10.828-16.92,18.42-22.562c2.729-1.979,3-2.311,3.959-4.318c1.472-3.12,2.222-5.79,2.642-9.511   C604.68,387.66,601.29,375.39,595.05,365.85z" style="stroke:black;fill:#BFDAE3"/><path id="180623552" parent_id="180608862" order="54" structure_id="1" d="M586.8,307.23c-1.5,0.63-4.5,1.14-10.53,1.89   c-7.229,0.899-6.987,0.87-16.47,3c-8.97,1.979-14.489,3.12-16.68,3.36c-1.59,0.209-1.62,0.209-1.59,1.14   c0.06,2.01,0.329,2.37,2.188,2.94c0.96,0.3,4.2,0.868,7.2,1.288c7.92,1.11,11.13,1.83,16.83,3.66   c12.45,4.052,32.188,11.88,40.892,16.261c2.641,1.319,3.358,1.5,3.358,0.779c0-1.14-5.46-10.529-9.84-16.95   c-5.37-7.858-13.32-17.729-14.25-17.67C587.7,306.93,587.22,307.08,586.8,307.23z" style="stroke:black;fill:#BFDAE3"/><path id="180623552" parent_id="180608862" order="55" structure_id="1" d="M645.3,271.8   c-7.979,0.84-20.52,7.32-30.75,15.9c-6.06,5.1-12.72,10.02-20.7,15.3c-2.789,1.86-5.159,3.57-5.188,3.811   c-0.063,0.271,0.479,1.079,1.229,1.859c4.562,4.74,12.329,15.42,17.909,24.63c5.729,9.42,10.261,20.73,13.65,34.05   c3.568,13.95,4.02,25.17,1.318,32.07c-0.329,0.84-2.641,5.4-5.101,10.11c-2.521,4.857-4.47,8.909-4.47,9.357   c0,1.32,0.987,1.021,5.58-1.737c5.369-3.24,21.06-14.16,21.778-15.15c1.352-1.86,1.379-11.64,0.091-43.35   c-1.199-28.86-1.171-28.44-0.812-34.262c0.721-11.1,1.53-14.52,6.391-27c4.289-10.979,6.421-17.16,6.899-20.07   c0.33-1.92,0.33-2.22-0.21-3.3C651.96,272.07,649.561,271.38,645.3,271.8z" style="stroke:black;fill:#BFDAE3"/><path id="180623552" parent_id="180608862" order="56" structure_id="1" d="M836.97,420.3c-3.72-24.75-12.659-55.62-20.97-72.569c-4.83-9.841-18.48-31.351-25.95-40.979   c-20.88-26.85-50.28-46.92-86.1-58.83c-12.15-4.02-23.67-6.66-38.852-8.85c-7.5-1.08-8.938-1.2-11.851-1.05   c-6.271,0.36-19.352,2.76-24.12,4.44c-4.771,1.65-9,4.41-13.5,8.76c-3.42,3.33-6.06,6.66-8.609,10.86   c-5.608,9.27-14.67,18.81-21.448,22.59c-5.431,3.03-36.03,10.86-44.222,11.31c-0.472,0.028-0.926,0.045-1.382,0.05v19.567   c0.011,0,0.021,0.001,0.031,0.001c2.609,0,7.859-0.96,19.8-3.63c6.45-1.438,11.37-2.34,15.45-2.85   c11.431-1.41,11.431-1.41,18.3-5.94c7.592-5.04,14.46-10.109,20.551-15.18c9.449-7.83,20.939-14.19,28.771-15.9   c1.83-0.42,4.89-0.66,10.53-0.87c12.897-0.51,13.26-0.54,15.3-1.05c3.63-0.87,11.398-1.229,18.569-0.81   c14.521,0.78,27.688,2.64,34.528,4.89c21.96,7.14,46.381,26.79,68.972,55.44c7.051,8.97,14.851,20.37,19.408,28.38   c11.04,19.47,19.353,48.78,22.62,79.979c0.933,8.908,1.08,15.301,0.45,19.288c-0.75,4.803-2.313,10.803-4.53,17.25   c-2.01,5.973-2.158,6.603-1.5,6.603c0.813,0,5.103-9.9,7.472-17.28C839.16,450,839.76,438.84,836.97,420.3z" style="stroke:black;fill:#BFDAE3"/><path id="180623552" parent_id="180608862" order="57" structure_id="1" d="M540.3,245.58c0,32.61,0,32.64,0.63,33.93   c0.813,1.65,2.761,3.66,5.761,5.91c1.291,0.99,2.279,1.8,2.25,1.83c-0.061,0.06-1.561-0.18-3.391-0.48   c-1.8-0.3-3.75-0.54-4.26-0.57h-0.99v4.979v5.01l1.141-0.21c0.602-0.09,1.382-0.18,1.739-0.18c0.42,0,0.931-0.479,1.563-1.47   c1.14-1.83,2.67-2.7,5.31-2.94c1.771-0.15,2.13-0.09,3.87,0.78c1.05,0.51,2.102,0.93,2.34,0.93c1.41,0,20.73-5.19,25.592-6.9   c2.431-0.84,5.221-2.73,7.198-4.86c2.552-2.73,4.23-6.54,6.722-15.09c3.061-10.5,5.068-15.39,8.278-20.07   c0.75-1.14,1.32-2.188,1.263-2.398c-0.121-0.33-63.211-30.36-64.473-30.72C540.33,212.94,540.3,214.62,540.3,245.58z" style="stroke:black;fill:#BFDAE3"/><path id="180623552" parent_id="180608862" order="58" structure_id="1" d="M635.25,406.11   c-5.67,4.05-14.13,9.75-17.311,11.64c-1.619,0.93-2.939,1.89-2.939,2.1c0,0.78,4.23,3.813,7.74,5.553   c3.51,1.737,6,2.397,9.06,2.397c1.74,0,2.73-0.12,2.91-0.39c0.51-0.63,1.95-7.05,3.69-16.38c1.317-7.05,1.38-7.53,0.84-7.5   C639.03,403.53,637.23,404.7,635.25,406.11z" style="stroke:black;fill:#BFDAE3"/><path id="180623552" parent_id="180608862" order="59" structure_id="1" d="M800.43,532.47   c-0.72,1.353-6.357,8.55-9.06,11.61c-3.54,4.02-5.37,5.67-13.771,12.42c-3.539,2.88-7.858,6.39-9.601,7.8s-4.229,3.39-5.55,4.41   c-4.052,3.09-5.25,4.71-5.25,7.2c0,1.41,0.12,1.68,1.38,3.148c0.75,0.869,1.71,2.222,2.1,3c0.393,0.812,0.9,1.439,1.11,1.439   c0.18,0,1.229-0.75,2.311-1.68c4.619-3.961,11.642-9.063,16.562-12.092c3.63-2.188,7.68-3.028,11.188-2.341l1.199,0.24l2.19-3.45   c1.17-1.92,2.158-3.66,2.158-3.869c0-0.211-0.42-0.778-0.931-1.291c-1.079-0.987-1.89-2.699-2.188-4.527   c-0.48-3.24,1.38-9.631,4.979-16.95c1.29-2.642,2.34-4.979,2.34-5.222C801.6,531.72,800.76,531.811,800.43,532.47z" style="stroke:black;fill:#BFDAE3"/><path id="180623552" parent_id="180608862" order="60" structure_id="1" d="M799.35,604.68   c-6.18,0.96-10.107,2.521-17.489,6.99c-9.061,5.49-13.021,6.57-20.521,5.58c-2.07-0.27-6.33-0.51-9.449-0.57   c-3.091-0.06-6-0.18-6.421-0.3l-0.78-0.24l-0.18,2.82c-0.119,1.53-0.06,4.62,0.09,6.84c0.15,2.22,0.271,4.563,0.302,5.16v1.14   h2.909c4.17,0,8.399-0.479,17.789-1.947c13.563-2.16,14.881-2.342,18.15-2.16c1.65,0.09,4.08,0.42,5.43,0.778   c6.69,1.712,7.143,1.739,13.5,0.302l2.73-0.603l0.18-2.46c0.12-1.35,0.21-6.81,0.21-12.147v-9.66l-1.859,0.03   C802.891,604.26,800.85,604.439,799.35,604.68z" style="stroke:black;fill:#BFDAE3"/><path id="180623552" parent_id="180608862" order="61" structure_id="1" d="M800.25,592.8   c-7.109,1.86-11.16,3.511-29.85,12.09c-4.86,2.223-9.393,4.2-10.052,4.38c-0.659,0.15-3.358,0.57-6,0.933   c-7.858,1.02-9.448,1.71-9.448,4.05c0,2.102,0.39,2.25,6.51,2.25c3.12,0,6.51,0.18,8.55,0.479c4.41,0.631,9.181,0.421,12.09-0.479   c2.73-0.87,5.88-2.46,10.74-5.46c2.19-1.352,4.92-2.88,6.09-3.42c3.69-1.74,9.03-3.03,14.641-3.603l2.069-0.209l-0.21-4.141   c-0.09-2.28-0.271-4.979-0.39-5.97C804.78,591.54,804.93,591.57,800.25,592.8z" style="stroke:black;fill:#BFDAE3"/><path id="180623552" parent_id="180608862" order="62" structure_id="1" d="M785.4,567.72   c-2.28,0.63-3.9,1.5-8.103,4.29c-7.949,5.28-14.1,10.29-19.56,15.93c-4.98,5.16-7.95,9.45-9.96,14.49   c-1.11,2.7-2.79,9.15-2.49,9.45c0.09,0.09,0.99-0.09,1.979-0.45c0.99-0.33,4.291-0.96,7.291-1.38c3.029-0.45,5.972-0.93,6.539-1.11   c0.57-0.18,6.12-2.67,12.33-5.52c18-8.25,19.5-8.82,29.91-11.52c0.75-0.183,1.26-0.513,1.26-0.75c0-0.842-1.89-6.303-3.09-9   c-1.59-3.541-4.438-8.763-6.27-11.49c-1.86-2.76-2.972-3.36-6.24-3.33C787.77,567.33,786.15,567.51,785.4,567.72z" style="stroke:black;fill:#BFDAE3"/><path id="180623552" parent_id="180608862" order="63" structure_id="1" d="M815.28,507.78   c-0.99,2.067-2.853,5.55-4.171,7.71c-1.319,2.188-3,5.1-3.72,6.51c-0.75,1.41-2.882,5.46-4.739,9c-3.87,7.32-6.03,12.12-7.23,16.05   c-1.109,3.69-1.2,8.37-0.21,10.261c1.32,2.459,3.479,3.659,7.89,4.319c11.25,1.71,26.973-7.29,35.91-20.58   c2.91-4.35,4.08-7.648,4.11-11.7c0-4.14-1.14-7.857-3.39-10.89c-0.842-1.14-1.053-1.26-2.223-1.26c-1.71,0-5.729-0.99-7.857-1.92   c-4.08-1.83-9.211-6.301-11.131-9.722c-0.479-0.87-1.021-1.561-1.171-1.561C817.17,504,816.24,505.71,815.28,507.78z" style="stroke:black;fill:#BFDAE3"/><path id="180623552" parent_id="180608862" order="64" structure_id="1" d="M834.66,472.5   c-2.34,1.05-4.41,3.39-6.062,6.72c-0.778,1.683-2.341,4.591-3.448,6.48c-1.11,1.89-2.461,4.647-3.03,6.147   c-0.57,1.473-1.86,4.62-2.88,6.99l-1.801,4.29l0.931,1.891c1.11,2.279,4.2,5.699,6.75,7.501c4.26,3.028,8.31,4.408,13.229,4.471   c2.819,0.06,3.091,0,4.619-0.84c4.892-2.7,7.563-11.103,8.49-26.853c0.3-5.22,0.271-6.028-0.148-7.528   c-0.961-3.21-4.352-6.779-8.432-8.819c-1.859-0.931-2.31-1.05-4.5-1.05C836.641,471.9,835.59,472.08,834.66,472.5z" style="stroke:black;fill:#BFDAE3"/><path id="180623552" parent_id="180608862" order="65" structure_id="1" d="M626.01,508.95c-1.26,1.56-2.31,2.938-2.31,3.09   c0,0.12,0.479,0.42,1.08,0.63c1.92,0.69,2.79,3.18,1.8,5.1c-0.9,1.74-3.061,2.521-8.28,3.03c-3.3,0.3-3.93,0.271-5.189-0.147   c-1.141-0.393-1.648-0.42-2.368-0.183c-2.07,0.721-6.841,0.063-10.682-1.438c-2.971-1.17-3.479-0.66-1.681,1.68   c2.521,3.3,4.47,8.07,7.2,17.61c4.59,16.02,4.95,21.27,2.22,34.77c-1.35,6.723-2.28,10.5-3.78,15.54   c-0.567,1.92-1.02,3.63-1.02,3.84c0,0.813,0.9,0.183,2.7-1.948c2.31-2.729,4.95-4.979,6.989-6.029   c4.528-2.28,9.778,0.96,12.181,7.47c0.51,1.352,1.11,1.05,1.319-0.66c0.42-3.6,3.391-8.608,7.408-12.6   c3.24-3.181,4.92-4.2,9.42-5.55c3.512-1.051,11.67-2.853,13.021-2.853c0.39,0,0.659-0.18,0.659-0.448   c0-0.239-0.182-0.449-0.359-0.449c-0.87,0-4.141-1.801-5.188-2.881c-1.319-1.352-4.319-5.819-5.58-8.279   c-3.302-6.51-3.091-10.65,0.75-14.46c1.17-1.2,2.431-2.102,3.539-2.58c2.041-0.87,2.189-1.47,0.722-2.4   c-1.352-0.81-4.08-3.779-5.102-5.52c-1.59-2.73-2.791-10.021-2.37-14.761c0.211-2.552,0.392-2.432-2.761-1.771   c-4.108,0.87-6.84,0.36-8.88-1.68c-1.409-1.41-2.37-4.261-2.37-7.052c0-1.351-0.119-1.92-0.39-1.92   C628.5,506.1,627.3,507.39,626.01,508.95z" style="stroke:black;fill:#BFDAE3"/><path id="180623552" parent_id="180608862" order="66" structure_id="1" d="M891.15,524.16   c0.72,2.37,0.81,3.39,0.479,5.608c-0.66,4.382-5.609,17.882-9.688,26.432c-5.012,10.47-7.38,13.17-19.109,21.6   c-2.88,2.07-6.84,5.22-8.79,7.05c-6.42,5.91-10.56,9.513-12.69,11.013c-4.738,3.357-11.579,6.118-17.25,6.96   c-1.738,0.27-6.51,0.63-10.647,0.84l-7.5,0.33v10.83c0,5.97-0.091,11.397-0.24,12.09c-0.18,1.14-0.147,1.29,0.36,1.29   c0.897,0,12.06-3.15,18.18-5.13c10.563-3.42,17.188-6.33,24.12-10.62c16.859-10.44,41.521-35.82,54.3-55.86   c5.46-8.607,8.88-15.45,12.36-24.66c1.26-3.357,1.408-4.229,0.75-4.229c-2.46,0-15.513-2.16-21.12-3.48   C890.85,523.35,890.88,523.35,891.15,524.16z" style="stroke:black;fill:#BFDAE3"/><path id="180623552" parent_id="180608862" order="67" structure_id="1" d="M887.16,523.74   c-0.45,0.479-1.59,2.819-2.58,5.188c-3.51,8.643-7.439,15.33-13.141,22.473c-6.149,7.71-15.301,16.38-25.142,23.909   c-11.01,8.431-22.77,13.828-33.12,15.238c-1.83,0.24-4.438,0.603-5.818,0.78l-2.521,0.33l0.21,1.41c0.21,1.68,0.722,8.52,0.75,9.84   v0.96l3.091-0.15c17.012-0.81,19.892-1.317,27.092-4.77c4.05-1.95,7.8-4.74,13.408-9.96c6.812-6.271,8.551-7.74,13.172-11.04   c8.459-6.03,12.237-9.48,14.969-13.591c3.271-4.979,8.341-16.529,12-27.359c1.531-4.563,1.891-5.938,2.011-8.1   c0.149-3-0.21-4.5-1.351-5.4C889.109,522.66,888.09,522.75,887.16,523.74z" style="stroke:black;fill:#BFDAE3"/><path id="180623552" parent_id="180608862" order="68" structure_id="1" d="M848.7,507.99c0,0.72-2.16,4.857-3.182,6.12   c-1.288,1.56-3.118,2.699-4.829,2.97c-0.722,0.09-1.289,0.3-1.289,0.42s0.479,1.02,1.05,1.979c2.97,4.948,3.63,10.318,1.859,15.391   c-2.102,6.03-9.271,14.58-16.53,19.739c-4.709,3.358-10.979,6.148-15.602,6.961c-2.818,0.51-6.96,0.39-9.33-0.303   c-1.14-0.328-2.368-0.658-2.729-0.75c-0.54-0.147-0.96,0.36-2.91,3.422c-1.29,1.948-2.311,3.631-2.311,3.721   c0,0.06,0.511,0.688,1.141,1.38c1.47,1.62,4.439,6.63,6.66,11.22c1.71,3.57,3.897,9.51,3.897,10.562   c0,0.601,0.36,0.601,5.461,0.028c5.55-0.63,8.159-1.198,12.841-2.76c12.448-4.109,25.83-13.29,39.931-27.359   c10.5-10.528,16.528-19.291,21.39-31.17c0.96-2.371,2.07-4.771,2.46-5.341c0.392-0.568,0.722-1.229,0.722-1.438   c0-0.24-0.989-0.66-2.461-1.052c-9.931-2.698-24.3-8.25-32.25-12.511C849.57,507.57,848.7,507.3,848.7,507.99z" style="stroke:black;fill:#BFDAE3"/><path id="180623552" parent_id="180608862" order="69" structure_id="1" d="M851.88,478.86   c0.21,2.938-0.3,13.14-0.96,18.329c-0.39,3.181-1.17,7.291-1.8,9.421c-0.15,0.6,0.33,0.897,5.939,3.63   c9.511,4.68,18.988,8.278,30.091,11.46c9.3,2.64,22.438,5.188,28.948,5.609l2.552,0.181l1.77-4.92   c3.78-10.381,10.141-31.2,9.689-31.65c-0.149-0.15-75.569-14.49-76.352-14.52C851.73,476.4,851.79,477.51,851.88,478.86z" style="stroke:black;fill:#BFDAE3"/><path id="180623552" parent_id="180608862" order="70" structure_id="1" d="M848.4,454.26c0,0.21,0.27,1.53,0.6,2.91   c0.96,3.99,2.04,10.71,2.46,15.09l0.36,4.021l38.01,7.14c20.91,3.931,38.189,7.08,38.37,7.021c0.21-0.062,0.63-0.959,0.96-2.012   c0.51-1.647,0.93-2.25,3.57-5.04c3.868-4.107,4.947-6.237,6.567-12.84c0.66-2.64,1.2-5.01,1.2-5.278   c0-0.359-0.358-0.539-1.26-0.689c-2.4-0.33-89.852-10.68-90.36-10.68C848.609,453.9,848.4,454.08,848.4,454.26z" style="stroke:black;fill:#BFDAE3"/><path id="180623552" parent_id="180608862" order="71" structure_id="1" d="M840.6,432.57c0,0.147,0.541,1.438,1.2,2.91   c1.682,3.63,3.96,9.84,5.25,14.25c0.602,2.038,1.11,3.75,1.17,3.777c0.15,0.15,90.421,10.893,91.563,10.893   c1.108,0,1.078,0.06,2.067-4.143c1.143-5.068,3.45-19.89,3.45-22.318c0-0.602,0.602-0.569-27.45-1.739   c-33.989-1.44-58.857-2.67-69.42-3.45C841.29,432.21,840.6,432.21,840.6,432.57z" style="stroke:black;fill:#BFDAE3"/><path id="180623552" parent_id="180608862" order="72" structure_id="1" d="M838.65,438.811   c0,9.209-0.24,11.399-2.103,18.959c-1.02,4.08-3.12,10.53-4.5,13.86c-0.42,0.96-0.75,1.95-0.75,2.22c0,0.603,0.722,0.57,1.23-0.027   c0.21-0.24,1.078-0.813,1.89-1.262c1.29-0.658,1.92-0.811,3.931-0.811c2.222,0,2.579,0.09,4.529,1.14   c3.03,1.62,5.433,3.66,6.84,5.82c1.892,2.851,2.103,2.64,1.892-2.1c-0.689-14.19-4.59-29.94-10.5-42.301   c-0.989-2.102-1.949-3.812-2.129-3.812C838.74,430.5,838.65,433.05,838.65,438.811z" style="stroke:black;fill:#BFDAE3"/><path id="180623552" parent_id="180608862" order="73" structure_id="1" d="M673.5,269.61   c-2.43,0.24-5.16,0.72-5.641,0.96c-0.271,0.149-1.229,0.42-2.102,0.6c-3.239,0.66-5.909,3.45-9.479,9.93   c-4.38,7.89-11.4,26.4-12.932,34.02c-1.409,7.08-1.438,7.979-1.619,47.43c-0.182,36.45-0.211,37.53-0.779,38.94   c-0.603,1.438-0.603,1.47,0,1.77c0.3,0.18,1.14,0.84,1.83,1.5c0.658,0.63,1.38,1.142,1.529,1.142c0.148,0,0.63-1.289,1.08-2.852   c2.368-8.399,6.72-16.56,10.141-19.05c1.77-1.29,2.938-1.41,4.68-0.57c2.28,1.142,3.69,4.021,4.44,9.15   c0.147,1.05,0.357,1.32,1.26,1.74c5.97,2.85,20.43,20.398,26.31,31.979c3.15,6.15,5.671,12.87,7.53,19.95   c2.55,9.72,2.67,13.8,0.66,25.8c-2.312,13.83-2.7,17.19-2.73,22.65c-0.027,7.02-0.09,6.869,3.03,8.88   c1.44,0.93,3.66,2.489,4.92,3.45c1.29,0.96,2.49,1.77,2.641,1.77c0.182,0,0.33-0.6,0.33-1.35c0-1.74,0.87-2.433,2.791-2.131   c3.538,0.541,7.771,4.141,10.709,9.148l1.649,2.79l5.58,2.79c3.062,1.563,11.312,5.851,18.33,9.57   c17.16,9.06,20.43,10.68,21.63,10.68c0.54,0,1.29,0.21,1.649,0.479c0.659,0.45,0.898,1.319,0.358,1.319c-0.147,0-0.3,0.24-0.3,0.57   c0,0.989,3.87,2.1,7.439,2.13c1.681,0,2.159-0.09,2.159-0.42c0-0.24-0.119-0.54-0.301-0.63c-0.6-0.392-0.329-1.95,0.512-2.73   c0.959-0.897,2.789-1.438,6.988-2.1c1.74-0.271,3.842-0.75,4.65-1.05c0.84-0.302,1.59-0.57,1.739-0.57   c0.358,0,0.239,1.05-0.239,1.681c-0.54,0.722-0.57,1.619-0.03,1.619c0.96,0,7.32-9.119,14.34-20.55   c5.58-9.09,8.341-14.64,13.143-26.7c1.107-2.817,2.818-6.989,3.75-9.3c3.479-8.609,6.479-18.239,7.709-24.898   c1.08-6,0.75-14.729-1.141-28.949c-4.079-30.54-12.148-56.37-23.489-75.3c-9.779-16.291-23.159-33.302-37.079-47.25   c-17.82-17.852-34.98-29.161-51.33-33.871c-5.4-1.561-17.49-3.271-28.771-4.08C687.15,269.43,675.87,269.37,673.5,269.61z" style="stroke:black;fill:#BFDAE3"/><path id="180623552" parent_id="180608862" order="74" structure_id="1" d="M878.34,344.64   c-40.858,14.4-55.14,19.53-55.14,19.86c0,0.27,0.689,2.49,1.5,4.95c5.52,16.438,10.439,37.02,12.78,53.55   c0.75,5.43,0.897,5.97,1.8,7.41c0.568,0.87,1.17,1.59,1.35,1.59c0.15,0,2.82,0.21,5.91,0.45c10.021,0.78,32.76,1.92,72.45,3.63   c20.49,0.9,26.1,1.05,26.278,0.78c0.271-0.45,0.812-6.933,1.262-15.36c0.45-8.28,0.18-30.54-0.45-37.5   c-1.05-11.34-2.85-22.62-5.4-33.6c-1.229-5.34-2.01-8.28-5.46-20.91c-0.63-2.37-1.29-4.29-1.47-4.26   C933.6,325.23,908.641,333.96,878.34,344.64z" style="stroke:black;fill:#BFDAE3"/><path id="180623552" parent_id="180608862" order="75" structure_id="1" d="M844.35,274.35   c-28.229,19.41-51.33,35.43-51.39,35.64c-0.03,0.21,0.42,1.02,1.021,1.858c2.102,2.91,7.052,10.382,9.779,14.762   c10.051,16.17,12.99,21.688,16.59,30.84c1.08,2.79,2.103,5.43,2.28,5.819c0.21,0.511,0.45,0.659,0.931,0.54   c0.779-0.211,110.159-38.671,110.312-38.79c0.12-0.119-1.53-7.409-2.82-12.301c-5.1-19.35-17.25-46.02-31.26-68.61   c-2.07-3.33-3.3-5.01-3.63-5.01C895.859,239.1,872.55,254.97,844.35,274.35z" style="stroke:black;fill:#BFDAE3"/><path id="180623552" parent_id="180608862" order="76" structure_id="1" d="M650.641,540.87   c-4.291,1.71-7.2,5.52-7.229,9.45c-0.03,3.18,1.739,7.647,4.83,12.33c4.47,6.72,6.72,7.5,23.55,8.13   c4.26,0.147,5.609,0.12,5.609-0.15c0-1.29-1.142-5.43-2.159-7.83c-1.62-3.81-7.261-14.489-8.61-16.29   c-1.979-2.64-4.14-3.778-9.778-5.22C652.71,540.27,652.26,540.21,650.641,540.87z" style="stroke:black;fill:#BFDAE3"/><path id="180623552" parent_id="180608862" order="77" structure_id="1" d="M810.48,236.88   c-23.7,24.87-43.08,45.36-43.08,45.57c0,0.18,1.857,2.04,4.17,4.14c6.3,5.73,12.96,12.96,18.39,19.92   c1.32,1.71,2.521,3.09,2.7,3.09c0.179,0,23.46-15.898,51.72-35.34c36.96-25.38,51.42-35.46,51.42-35.88   c0-0.75-5.22-8.46-10.59-15.63c-7.021-9.33-18.03-20.58-28.29-28.83c-1.5-1.23-2.88-2.22-3.029-2.22   C853.71,191.7,834.18,212.04,810.48,236.88z" style="stroke:black;fill:#BFDAE3"/><path id="180623552" parent_id="180608862" order="78" structure_id="1" d="M742.95,133.26   c-0.602,1.59-34.05,115.26-34.05,115.68s0.72,0.81,3.09,1.68c13.32,4.95,29.25,13.2,41.16,21.39c1.527,1.08,2.52,1.563,2.76,1.41   c0.9-0.66,77.79-95.34,77.79-95.82c0-0.63-4.62-3.66-13.47-8.85c-20.94-12.27-45.99-24.15-72.183-34.23   C743.58,132.78,743.16,132.69,742.95,133.26z" style="stroke:black;fill:#BFDAE3"/><path id="180623552" parent_id="180608862" order="79" structure_id="1" d="M669.3,119.52c0,0.21-2.76,26.4-6.148,58.2   c-3.392,31.771-6.149,58.23-6.149,58.8v0.99l2.34,0.48c1.262,0.27,4.352,0.78,6.813,1.11c13.107,1.83,24.72,4.44,36.479,8.28   c2.763,0.9,5.222,1.62,5.46,1.62c0.602,0-1.197,5.94,18.512-60.84c8.938-30.271,16.17-55.2,16.079-55.41   c-0.148-0.42-7.771-3.03-14.131-4.8c-14.487-4.08-32.188-7.021-50.397-8.4C670.561,118.98,669.3,118.98,669.3,119.52z" style="stroke:black;fill:#BFDAE3"/><path id="180623552" parent_id="180608862" order="80" structure_id="1" d="M639,119.13c-8.67,0.51-23.7,2.19-23.7,2.64   c0,0.09,2.852,25.14,6.3,55.68c3.45,30.51,6.302,55.74,6.302,56.07c0,0.48,0.148,0.51,1.318,0.36c3.12-0.48,15.12,0.84,23.103,2.55   c2.31,0.48,4.229,0.84,4.26,0.78c0.18-0.18,12.66-117.96,12.51-118.11C668.85,118.83,643.53,118.86,639,119.13z" style="stroke:black;fill:#BFDAE3"/><path id="180623552" parent_id="180608862" order="81" structure_id="1111022260200000" d="M607.8,122.97   c-17.52,3.603-32.01,9.63-43.89,18.271c-1.44,1.08-2.28,1.89-2.19,2.16c0.12,0.51,51.99,92.73,52.353,93.09   c0.147,0.148,1.56-0.15,3.147-0.66c2.97-0.96,7.563-1.83,9.603-1.83c1.02,0,1.14-0.06,0.988-0.69   c-0.061-0.36-2.971-25.59-6.391-56.07l-6.27-55.44l-0.9,0.03C613.77,121.83,610.859,122.34,607.8,122.97z" style="stroke:black;fill:#1F9D5A"/><path id="180623552" parent_id="180608862" order="82" structure_id="1" d="M557.97,146.22   c-7.14,6.392-12.45,14.16-15.359,22.563c-2.188,6.24-2.158,6.03-2.158,26.01v17.91l32.31,15.3c17.79,8.43,32.553,15.3,32.82,15.3   s1.47-0.93,2.67-2.04c1.17-1.14,2.91-2.52,3.84-3.09c0.932-0.57,1.71-1.2,1.71-1.44c0-0.21-11.698-21.24-26.01-46.71   C570,158.37,561.6,143.73,561.27,143.7C561,143.7,559.5,144.84,557.97,146.22z" style="stroke:black;fill:#BFDAE3"/><path id="180623552" parent_id="180608862" order="83" structure_id="1" d="M836.97,420.3c-3.72-24.75-12.659-55.62-20.97-72.569c-4.83-9.841-18.48-31.351-25.95-40.979   c-20.88-26.85-50.28-46.92-86.1-58.83c-12.15-4.02-23.67-6.66-38.852-8.85c-7.5-1.08-8.938-1.2-11.851-1.05   c-6.271,0.36-19.352,2.76-24.12,4.44c-4.771,1.65-9,4.41-13.5,8.76c-3.42,3.33-6.06,6.66-8.609,10.86   c-5.608,9.27-14.67,18.81-21.448,22.59c-5.431,3.03-36.03,10.86-44.222,11.31c-0.472,0.028-0.926,0.045-1.382,0.05v19.567   c0.011,0,0.021,0.001,0.031,0.001c2.609,0,7.859-0.96,19.8-3.63c6.45-1.438,11.37-2.34,15.45-2.85   c11.431-1.41,11.431-1.41,18.3-5.94c7.592-5.04,14.46-10.109,20.551-15.18c9.449-7.83,20.939-14.19,28.771-15.9   c1.83-0.42,4.89-0.66,10.53-0.87c12.897-0.51,13.26-0.54,15.3-1.05c3.63-0.87,11.398-1.229,18.569-0.81   c14.521,0.78,27.688,2.64,34.528,4.89c21.96,7.14,46.381,26.79,68.972,55.44c7.051,8.97,14.851,20.37,19.408,28.38   c11.04,19.47,19.353,48.78,22.62,79.979c0.933,8.908,1.08,15.301,0.45,19.288c-0.75,4.803-2.313,10.803-4.53,17.25   c-2.01,5.973-2.158,6.603-1.5,6.603c0.813,0,5.103-9.9,7.472-17.28C839.16,450,839.76,438.84,836.97,420.3z" style="stroke:black;fill:#BFDAE3"/><path id="180623552" parent_id="180608862" order="84" structure_id="1" d="M653.7,570.75c-5.37,0.9-12.811,2.939-15.3,4.23   c-3.45,1.737-8.131,6.81-10.381,11.277c-1.5,2.973-2.039,5.313-1.83,8.13c0.479,7.29,7.021,11.73,19.858,13.563   c4.41,0.6,9.42,1.05,12.03,1.05h2.1l1.712-1.53c1.92-1.71,4.528-5.489,5.698-8.31c1.86-4.41,2.729-9.84,2.552-16.08   c-0.092-3.57-0.212-4.471-0.78-5.7c-0.989-2.19-2.039-3.42-4.021-4.68C661.8,570.39,658.77,569.88,653.7,570.75z" style="stroke:black;fill:#BFDAE3"/><path id="180623552" parent_id="180608862" order="85" structure_id="1" d="M626.76,604.561l0.09,5.432l3,0.87   c9.69,2.789,36.603,9.63,48.45,12.357c9.062,2.07,13.83,2.761,37.353,5.433c8.1,0.897,17.34,2.01,20.579,2.397   c3.239,0.42,6.511,0.75,7.318,0.75h1.41l-0.18-0.989c-0.091-0.511-0.271-3.931-0.36-7.591l-0.21-6.63l-1.71-0.33   c-0.93-0.21-2.49-0.84-3.48-1.47c-3.567-2.19-4.92-2.82-6.93-3.24c-4.5-0.897-26.58-1.71-39.66-1.438   c-14.13,0.27-37.56-0.75-46.289-2.013c-6.33-0.93-11.25-2.52-14.461-4.647c-1.619-1.05-4.08-3.54-4.08-4.08   c0-0.15-0.209-0.271-0.447-0.271C626.76,599.1,626.7,599.82,626.76,604.561z" style="stroke:black;fill:#BFDAE3"/><path id="180623552" parent_id="180608862" order="86" structure_id="1" d="M710.25,569.1   c-2.67,0.57-9.03,1.29-14.55,1.683l-2.852,0.21l-2.431,2.277c-2.608,2.462-4.68,3.843-7.68,5.07   c-1.682,0.721-2.28,0.813-5.342,0.813c-2.551,0-3.931-0.15-5.34-0.57c-1.021-0.33-1.951-0.51-2.041-0.42s0,1.08,0.211,2.22   c0.75,4.23-0.148,12.03-1.948,17.07c-1.382,3.84-3.15,6.72-5.642,9.3c-1.108,1.14-2.041,2.188-2.041,2.313   c0,0.117,0.51,0.237,1.142,0.237c0.601,0,4.08,0.15,7.711,0.3c3.63,0.183,10.92,0.33,16.198,0.33l9.602,0.03l3-0.96   c6.63-2.13,13.648-6.3,18.148-10.771c2.939-2.972,8.789-11.012,9.271-12.779c0.51-1.892,0.392-5.28-0.271-7.38   c-1.108-3.603-3.778-6.78-7.08-8.4C715.95,568.5,713.85,568.35,710.25,569.1z" style="stroke:black;fill:#BFDAE3"/><path id="180623552" parent_id="180608862" order="87" structure_id="1" d="M656.16,383.61   c-3.062,1.5-7.11,8.46-9.99,17.22c-1.68,5.13-1.68,5.55-0.479,11.82c5.25,26.697,6.092,39.72,3.75,57.897   c-0.568,4.471-0.568,5.34-0.271,12.45c0.18,4.2,0.48,8.67,0.66,9.899c0.84,5.729,3.15,8.398,7.29,8.398   c1.29,0,1.8-0.148,2.521-0.75c1.892-1.59,2.642-5.819,2.159-12.148c-0.569-7.262-1.53-29.039-1.59-35.25l-0.06-6.302l1.59-7.8   c0.869-4.29,2.069-9.897,2.698-12.45l1.109-4.647l-0.03-9.15c-0.027-16.05-1.107-24.898-3.42-27.81   C660.63,383.1,658.29,382.561,656.16,383.61z" style="stroke:black;fill:#BFDAE3"/><path id="180623552" parent_id="180608862" order="88" structure_id="1" d="M624.54,234.33   c-7.26,0.75-13.17,3.48-17.34,7.95c-4.71,5.07-7.562,11.01-11.103,23.22c-2.22,7.68-3.357,10.71-4.8,13.02   c-0.93,1.47-1.14,2.28-0.567,2.28c0.6,0,4.77-3.96,7.59-7.2c4.02-4.62,5.55-6.63,8.278-10.95c1.352-2.16,2.972-4.59,3.602-5.43   c5.52-7.32,12.6-12.81,19.5-15.09c5.189-1.68,19.5-4.23,23.909-4.23c1.141,0,1.591-0.12,1.591-0.39c0-0.66-10.681-2.61-17.55-3.21   C633.54,233.97,627.93,233.97,624.54,234.33z" style="stroke:black;fill:#BFDAE3"/><path id="180623552" parent_id="180608862" order="89" structure_id="1" d="M663,570.96c0,0.24,0.6,0.72,1.35,1.08   c1.74,0.84,3.603,2.55,4.53,4.14c0.54,0.933,1.11,1.41,2.16,1.86c4.71,2.01,10.14,1.5,15.06-1.41c2.16-1.318,5.7-4.38,5.7-4.95   c0-0.3-2.58-0.447-11.76-0.6c-6.479-0.09-12.96-0.27-14.399-0.36C663.48,570.57,663,570.6,663,570.96z" style="stroke:black;fill:#BFDAE3"/><path id="180623552" parent_id="180608862" order="90" structure_id="1" d="M747.42,576.33   c-3.811,0.359-7.29,1.32-13.62,3.689c-3.54,1.351-3.84,1.528-5.55,3.301c-0.99,1.05-3.63,4.438-5.85,7.528   c-4.563,6.329-7.32,9.182-11.761,12.182c-3.092,2.04-8.432,4.77-10.922,5.58c-3.18,0.988-2.158,1.17,7.472,1.38   c15,0.33,23.938,0.96,26.699,1.89c0.779,0.271,2.459,1.17,3.721,1.98c2.641,1.71,4.171,2.34,5.791,2.34h1.107l0.21-2.04   c0.48-4.68,2.07-10.11,4.172-14.311c2.25-4.529,5.158-8.369,10.108-13.289l2.49-2.461l-0.512-1.352c-0.631-1.62-2.818-4.11-4.5-5.1   C754.35,576.42,751.141,575.939,747.42,576.33z" style="stroke:black;fill:#BFDAE3"/><path id="180623552" parent_id="180608862" order="91" structure_id="1" d="M612.6,584.58   c-1.979,1.02-5.58,4.38-8.698,8.13c-2.041,2.46-2.369,3.03-2.939,5.101c-1.38,5.012-1.979,10.592-1.17,10.592   c0.18,0,1.71-0.45,3.359-1.021c4.351-1.438,6.601-1.8,10.171-1.59c3.777,0.24,5.85,0.78,9.538,2.521   c1.621,0.75,3.092,1.288,3.359,1.198c0.391-0.147,0.48-0.75,0.48-3.3c0-9.3-1.71-15.898-5.011-19.439   c-1.801-1.921-3.33-2.698-5.642-2.881C614.52,583.77,614.01,583.89,612.6,584.58z" style="stroke:black;fill:#BFDAE3"/></g></g></svg>
