<svg xmlns="http://www.w3.org/2000/svg" width="3024px" height="3024px"><g transform="scale(1.0)"><g id="180608862" order="1" parent_id="" graphic_group_label_id="28" graphic_group_label="Atlas - Adult Rat" sub_image_id="100960468" transform=" scale(1.0, 1.0)"><path id="180623552" parent_id="180608862" order="0" structure_id="1" d="M981.78,357.45c-5.102-52.08-20.94-99-43.681-129.3c-4.41-5.88-8.16-10.11-15.601-17.58   c-28.05-28.17-61.229-50.432-99.601-66.87C787.5,128.52,738.6,116.82,684,110.43c-37.68-4.41-52.29-4.648-72.84-1.229   c-9.75,1.65-22.44,4.95-29.311,7.65c-19.381,7.59-34.351,23.01-40.529,41.7c-0.502,1.533-1.053,2.817-1.32,3.02v478.621   c7.916-0.022,15.979-1.362,27.9-4.069c15.42-3.51,24.09-6.54,27.72-9.75c1.95-1.71,2.67-3.63,2.819-7.47   c0.091-2.7-0.029-3.812-0.84-7.65c-1.649-7.77-1.529-8.91,0.989-10.08c2.101-0.93,3.931-0.75,9.78,1.05   c21.029,6.512,25.771,7.5,36.18,7.5c16.141,0.03,28.592-4.29,40.86-14.159c1.68-1.351,3.18-2.461,3.358-2.461   c0.182,0,0.33,0.33,0.33,0.722c0,1.77,1.682,1.92,3.75,0.33c0.57-0.42,1.142-0.75,1.291-0.75c0.181,0,0.391,0.72,0.51,1.56   c0.391,2.852,1.381,5.43,4.051,10.59c1.47,2.79,4.109,8.4,5.85,12.45c4.11,9.42,5.762,12.601,7.74,15   c1.859,2.28,4.95,4.83,8.58,7.14c2.97,1.892,27.479,14.041,33.029,16.41c16.649,7.021,35.011,9.391,53.25,6.87   c14.369-1.979,30.119-7.2,38.789-12.84c5.61-3.63,10.86-4.771,19.11-4.11c8.58,0.721,11.25,0.75,13.95,0.211   c5.43-1.109,9.84-3.391,21-10.83c8.58-5.729,12.63-8.91,17.4-13.649c6.09-6.09,11.49-13.41,17.1-23.25   c2.97-5.25,10.92-21.09,12.87-25.681c2.97-7.051,5.88-17.159,7.2-25.021c2.039-12.12,2.67-30.36,1.32-39.45   c-0.24-1.738-1.32-6.66-2.4-10.949c-2.43-9.631-2.58-11.58-1.08-14.399c0.51-0.99,2.97-4.562,5.49-7.95   c8.97-12.12,12.42-18.66,15.568-29.64c4.471-15.45,7.65-35.94,8.762-56.312C982.65,381.36,982.41,364.11,981.78,357.45z    M591.391,332.07c-0.631,0.21-3.421,1.5-6.24,2.85c-5.221,2.52-10.319,5.55-16.199,9.6c-1.801,1.262-3.45,2.28-3.66,2.28   c-0.54,0-0.479-0.63,0.21-2.22c1.2-2.82,1.62-5.73,1.562-11.28c0-3.87-0.15-5.729-0.512-7.05c-0.84-3.061-0.869-3.45-0.33-3.45   c0.271,0,1.771,1.23,3.33,2.73c3.061,2.88,4.95,3.989,8.551,4.979c1.59,0.45,3.119,0.54,8.189,0.54   C592.65,331.05,593.7,331.26,591.391,332.07z M677.04,316.98c-4.229-0.541-7.56-1.23-10.38-2.16c-2.551-0.84-3.51-1.021-5.7-1.021   c-2.25,0-5.79,0.391-9.72,1.08c-1.71,0.3-1.471-0.51,0.449-1.53c4.95-2.67,12.149-7.8,15.961-11.37c1.17-1.08,2.25-1.95,2.459-1.98   c0.271,0,0.301,0.66,0.181,2.49c-0.36,5.13,2.16,10.02,6.63,12.81C679.109,316.68,679.141,317.25,677.04,316.98z" style="stroke:black;fill:#BFDAE3"/><path id="180623552" parent_id="180608862" order="1" structure_id="1" d="M871.95,225.06   c-15.511,18.48-28.23,33.78-28.29,33.99c-0.03,0.18,2.13,2.55,4.8,5.28c2.7,2.7,6.03,6.36,7.44,8.13s2.76,3.24,3.06,3.24   c0.66,0,74.46-51.96,74.55-52.5c0.33-1.771-30.81-31.86-32.88-31.8C900.359,191.43,887.46,206.55,871.95,225.06z" style="stroke:black;fill:#BFDAE3"/><path id="180623552" parent_id="180608862" order="2" structure_id="1" d="M844.98,205.26   c-12.69,20.49-23.102,37.47-23.16,37.71c-0.09,0.33,1.199,1.352,4.14,3.33c4.771,3.15,11.22,7.92,14.61,10.74   c1.199,1.02,2.369,1.86,2.58,1.86c0.358,0,56.88-67.11,57.09-67.8c0.06-0.18-0.09-0.51-0.33-0.69   c-4.17-3.36-11.85-9.24-15.36-11.76c-5.97-4.26-15.63-10.65-16.14-10.65C868.2,168,857.641,184.77,844.98,205.26z" style="stroke:black;fill:#BFDAE3"/><path id="180623552" parent_id="180608862" order="3" structure_id="1" d="M834.811,149.91   c-0.42,0.69-35.101,78.93-35.221,79.44c-0.09,0.48,0.27,0.81,1.77,1.62c3,1.62,11.132,6.51,15.632,9.39   c2.278,1.44,4.229,2.64,4.35,2.64c0.271,0,46.562-74.82,46.562-75.24c0-0.75-15.9-9.81-26.4-15.06   C835.47,149.7,835.05,149.52,834.811,149.91z" style="stroke:black;fill:#BFDAE3"/><path id="180623552" parent_id="180608862" order="4" structure_id="1" d="M540.21,297.3c-0.038,0-0.115,0.043-0.21,0.104v14.292c0.029,0.001,0.063,0.003,0.09,0.003   c0.48,0,0.51-0.54,0.51-7.2C540.6,298.86,540.51,297.3,540.21,297.3z" style="stroke:black;fill:#BFDAE3"/><path id="180623552" parent_id="180608862" order="5" structure_id="1" d="M570.689,452.22   c-5.34,1.021-8.609,2.7-12.09,6.182c-3.99,3.988-5.699,7.8-5.699,12.81c0,3.24,0.42,5.13,1.8,8.04c1.38,2.97,3.06,5.101,5.489,6.93   c2.069,1.562,5.791,3.421,6.871,3.421c0.6,0,1.618-1.859,8.729-15.721c4.41-8.64,8.01-15.99,8.01-16.35   c0-1.08-3.449-4.32-5.25-4.95C576.48,451.89,573.27,451.74,570.689,452.22z" style="stroke:black;fill:#BFDAE3"/><path id="180623552" parent_id="180608862" order="6" structure_id="1" d="M665.7,333.03   c-3.57,2.43-8.431,4.318-13.56,5.25c-1.682,0.3-3.15,0.78-3.66,1.14c-2.19,1.59-7.352,15.27-10.2,27.18   c-2.79,11.521-3.96,25.562-3.69,43.711c0.18,12.75,0.69,16.409,2.971,20.939c2.909,5.73,8.67,11.61,13.891,14.1   c3.689,1.802,9.479,2.4,13.8,1.5c6.24-1.318,9.359-5.01,12.57-14.85c2.729-8.25,3.84-18.811,4.26-40.2   c0.271-13.11-0.36-25.56-1.979-38.55c-0.689-5.64-1.619-8.79-3.511-12c-1.979-3.42-7.739-9.15-9.12-9.15   C667.23,332.1,666.45,332.52,665.7,333.03z" style="stroke:black;fill:#BFDAE3"/><path id="180623552" parent_id="180608862" order="7" structure_id="1" d="M569.49,417.15   c-4.051,0.898-8.881,4.38-11.46,8.25c-3.54,5.34-4.171,14.31-1.29,18.688c2.16,3.271,7.17,3.722,12.51,1.142   c6.811-3.302,10.41-9.271,10.859-17.91c0.211-3.84-0.149-5.73-1.409-7.71C577.17,417.21,573.51,416.22,569.49,417.15z" style="stroke:black;fill:#BFDAE3"/><path id="180623552" parent_id="180608862" order="8" structure_id="1" d="M656.7,314.4   c-3.63,0.448-8.4,1.438-11.58,2.369c-1.65,0.511-7.56,2.131-13.17,3.631c-16.2,4.35-34.261,9.539-37.261,10.68   c-1.681,0.66-2.789,1.26-2.789,1.5s0.27,0.42,0.6,0.42s8.1-1.14,17.22-2.55c20.25-3.09,21.36-3.24,34.562-4.352   c10.68-0.898,17.13-1.288,30.42-1.77c5.068-0.21,9.18-0.54,13.199-1.11c4.979-0.688,6.899-0.81,13.051-0.84   c8.46-0.03,9.96,0.15,26.25,3.45c17.1,3.45,21.84,4.74,27.479,7.47c3.78,1.83,5.971,3.57,9.99,7.891   c9.24,9.931,15.689,20.461,18.3,29.91c1.23,4.409,3.812,19.17,5.25,30c1.5,11.159,1.771,15.181,1.562,23.25   c-0.182,8.461-0.36,9.721-2.58,18.301c-1.53,6-1.561,6.028-6.03,15.238c-7.2,14.73-9.688,20.19-12.15,26.551   c-2.129,5.431-1.739,5.851,1.712,1.921c7.229-8.19,11.459-14.91,15.719-24.841c3.031-7.051,4.621-13.051,5.91-22.619   c0.601-4.44,0.689-6.15,0.659-16.801c0-12.689-0.239-16.261-1.8-26.399c-3.78-24.511-12.3-44.94-23.79-57.062   c-4.38-4.59-14.399-12.84-15.66-12.84c-0.27,0-0.688,0.21-0.898,0.512c-0.66,0.778-2.7,1.59-4.08,1.59   c-1.8,0-6.45-1.051-23.04-5.222c-8.07-2.04-16.26-3.96-18.15-4.229c-2.58-0.39-6.66-0.57-16.05-0.75   c-6.93-0.15-13.47-0.39-14.55-0.57c-3.51-0.569-6.24-1.2-8.46-1.979C664.02,314.25,660.3,313.98,656.7,314.4z" style="stroke:black;fill:#BFDAE3"/><path id="180623552" parent_id="180608862" order="9" structure_id="1" d="M612.75,187.74   c-4.26,1.08-8.22,3.51-11.28,6.898c-2.7,3-5.069,6.87-9.72,15.96c-10.05,19.5-16.23,29.55-21.359,34.74   c-1.381,1.38-2.49,2.64-2.49,2.79c0,0.51,0.959,0.27,2.971-0.78c6.12-3.24,12.75-9.93,21.988-22.14c2.462-3.27,5.521-7.2,6.781-8.7   c8.01-9.688,16.021-15.66,25.049-18.66c6.15-2.04,11.041-2.61,20.312-2.34c9.93,0.271,22.95-0.87,22.74-1.979   c-0.091-0.392-0.722-0.51-3.841-0.69c-4.351-0.21-8.971-0.78-18.149-2.22c-17.67-2.79-20.642-3.15-25.8-3.3   C615.72,187.23,614.49,187.29,612.75,187.74z" style="stroke:black;fill:#BFDAE3"/><path id="180623552" parent_id="180608862" order="10" structure_id="1" d="M744.3,400.59c0,0.21,0.54,0.93,1.23,1.562   c1.68,1.648,4.59,5.278,6.21,7.738c1.68,2.642,2.58,4.86,3.359,8.37c1.381,6.271,1.351,8.34-0.301,15.721   c-3.51,15.75-9.93,24.631-19.648,27.301c-2.7,0.75-9.09,0.898-11.972,0.3c-5.608-1.17-10.5-4.05-13.56-8.01   c-1.471-1.92-4.021-6.54-4.021-7.32c0-0.24-0.209-0.45-0.449-0.45c-1.079,0,0.209,5.012,2.16,8.4   c1.409,2.398,5.939,6.988,8.25,8.37c4.681,2.729,8.431,3.659,15.601,3.84l5.58,0.149l2.52-2.221c2.82-2.52,4.95-4.109,7.681-5.79   c1.561-0.96,2.131-1.56,3.511-3.72c2.13-3.3,5.19-9.54,6.6-13.38c4.41-11.91,4.95-25.562,1.261-32.4   c-0.841-1.56-1.261-1.95-3.33-3.18c-1.291-0.78-3.181-2.07-4.199-2.88C748.35,401.04,744.3,399.54,744.3,400.59z" style="stroke:black;fill:#BFDAE3"/><path id="180623552" parent_id="180608862" order="11" structure_id="1" d="M697.71,590.311   c-0.36,0.359-0.21,2.819,0.271,4.681c1.021,3.989,3.119,7.409,4.5,7.409c1.051,0,0.959-1.079-0.33-3.601   c-0.569-1.17-1.409-3.36-1.829-4.89c-0.45-1.5-0.931-3-1.08-3.301C698.97,590.1,698.07,589.92,697.71,590.311z" style="stroke:black;fill:#BFDAE3"/><path id="180623552" parent_id="180608862" order="12" structure_id="1" d="M725.4,471.15   c-5.94,1.38-13.53,3.358-19.381,5.068c-9.989,2.91-37.619,13.32-37.619,14.16c0,1.23,14.789-0.39,25.59-2.76   c12.18-2.7,25.68-7.44,30.51-10.771c3.391-2.31,8.1-6.18,8.1-6.63C732.6,469.561,731.52,469.71,725.4,471.15z" style="stroke:black;fill:#BFDAE3"/><path id="180623552" parent_id="180608862" order="13" structure_id="1" d="M774,320.43c0,0.182,1.26,2.312,2.82,4.74   c8.49,13.26,16.56,28.02,21.99,40.2c3.688,8.34,9.299,23.94,11.608,32.31c2.67,9.75,3.78,16.62,3.99,25.352   c0.239,9.39-0.302,13.858-3.062,25.318c-5.398,22.352-9.27,29.91-23.789,46.59c-2.101,2.432-7.291,8.521-11.461,13.562   c-16.68,20.01-21.3,25.229-42.778,48.15c-10.171,10.89-14.28,15.358-17.16,18.778c-2.07,2.46-2.67,3.722-1.74,3.51   c0.54-0.118,22.32-20.938,32.91-31.438c9.778-9.72,31.71-33.062,41.04-43.68c5.398-6.12,15.09-18.392,18.238-23.07   c7.771-11.55,11.852-22.562,13.65-36.75c0.6-4.89,0.51-22.92-0.18-28.65c-1.65-14.159-5.01-27.868-9.63-39.27   c-6.12-15.15-17.61-35.521-25.95-46.08C780,324.3,774,318.84,774,320.43z" style="stroke:black;fill:#BFDAE3"/><path id="180623552" parent_id="180608862" order="14" structure_id="1" d="M726.9,327c0,1.38,2.01,22.2,2.729,28.35   c2.13,18.33,4.8,29.4,9.271,38.73l1.74,3.66l3.06,1.529c1.68,0.841,3.239,1.529,3.479,1.529c0.57,0,0.54-1.02-0.06-1.529   c-1.32-1.109-3.87-5.609-5.521-9.75c-2.01-5.011-4.8-16.381-6.72-27.209c-1.53-8.49-3.45-24.36-3.96-32.371   c-0.24-3.539-0.15-3.391-2.52-3.721l-1.5-0.21V327H726.9z" style="stroke:black;fill:#BFDAE3"/><path id="180623552" parent_id="180608862" order="15" structure_id="1" d="M728.85,278.55   c-2.188,0.48-3.63,1.021-8.699,3.33c-9.899,4.47-29.461,14.61-33.029,17.1c-2.13,1.5-2.971,2.91-2.729,4.56   c0.209,1.23,0.81,1.95,2.158,2.58c1.32,0.63,3.54,0.6,7.352-0.12c7.318-1.35,14.459-2.19,17.31-1.98   c4.8,0.33,11.76,1.89,18.84,4.23c4.23,1.41,6.03,2.43,10.98,6.18c6.239,4.771,7.77,5.58,8.28,4.29c0.448-1.2-2.342-4.29-7.83-8.7   c-4.2-3.358-10.83-6.12-18.392-7.62c-3.479-0.69-12.448-1.41-20.31-1.65c-5.58-0.15-6.15-0.3-5.551-1.41   c0.601-1.11,2.609-2.19,13.351-7.17c13.71-6.36,16.229-7.41,18.72-7.83c3.54-0.6,5.16-0.15,13.2,3.78   c7.2,3.51,9.149,4.26,18.899,7.23c3.061,0.93,6.421,2.16,7.5,2.73c5.971,3.15,12.779,10.109,17.189,17.58   c2.311,3.899,3.87,5.22,5.311,4.438c0.869-0.479,0.779-2.159-0.239-4.35c-1.229-2.61-4.052-7.08-5.642-8.91   c-3.3-3.87-15.09-14.16-17.76-15.51c-3.75-1.89-8.04-3.12-12.3-3.6c-4.29-0.48-5.851-1.32-14.58-8.04   c-0.66-0.51-1.8-1.11-2.489-1.26C736.68,277.98,731.04,278.07,728.85,278.55z" style="stroke:black;fill:#BFDAE3"/><path id="180623552" parent_id="180608862" order="16" structure_id="1" d="M561.391,378   c-3,0.78-6.689,2.37-6.689,2.88c0,0.24,0.238,0.42,0.54,0.42c1.29,0,10.8,3.511,14.608,5.4c4.771,2.34,7.83,4.5,9.211,6.45   c0.539,0.75,1.08,1.35,1.229,1.35s1.11-0.39,2.16-0.9c4.53-2.159,10.2-2.64,14.1-1.198c2.67,0.988,3.15,1.05,3.15,0.448   c0-0.81-3.24-3.988-5.88-5.729c-4.44-2.94-15.271-7.59-21.392-9.15C569.46,377.22,564.359,377.22,561.391,378z" style="stroke:black;fill:#BFDAE3"/><path id="180623552" parent_id="180608862" order="17" structure_id="1" d="M590.85,416.52   c-1.77,0.842-3.539,2.61-6.39,6.42c-2.67,3.602-4.319,6.932-5.34,10.86c-0.75,2.88-0.78,3.3-0.45,4.86   c0.42,2.01,1.17,3.029,2.7,3.81c2.88,1.47,12.149,2.341,20.01,1.892c5.58-0.301,6.39-0.602,7.62-2.79   c0.66-1.171,0.75-1.74,0.84-4.921c0.12-4.079-0.779-11.489-1.62-13.199c-0.688-1.5-3.569-4.051-6-5.312   C597.54,415.68,593.76,415.14,590.85,416.52z" style="stroke:black;fill:#BFDAE3"/><path id="180623552" parent_id="180608862" order="18" structure_id="1" d="M888.3,447c-1.29-15.54-1.8-18.45-5.61-31.92c-8.368-29.641-8.58-30.51-9.81-37.68   c-0.42-2.4-1.021-6.512-1.38-9.15c-0.33-2.64-1.98-13.11-3.63-23.25c-2.97-18.12-3.06-18.54-4.771-23.73   c-6.029-18.208-13.41-31.68-25.021-45.568c-13.681-16.35-26.79-25.98-53.13-39c-18.602-9.21-32.16-14.64-47.7-19.11   c-14.642-4.2-26.7-6.93-36.51-8.25c-5.882-0.78-17.851-0.93-23.04-0.3c-11.25,1.41-21.45,4.05-28.41,7.41   c-4.38,2.13-9,6.87-13.439,13.8c-0.959,1.47-2.189,3.39-2.729,4.2c-0.54,0.84-2.28,4.02-3.87,7.05   c-3.42,6.57-5.67,9.66-10.41,14.28c-3.96,3.84-7.59,6.72-12.93,10.229c-4.74,3.12-7.62,4.62-11.13,5.76   c-5.341,1.77-9.33,2.46-17.13,3.03c-5.041,0.36-10.892,1.32-22.801,3.72c-4.439,0.9-9.601,1.86-11.459,2.13   c-1.315,0.189-2.263,0.313-3.392,0.305v10.266c4.363,0.019,8.41-0.318,15-0.97c11.729-1.14,16.2-1.35,30-1.35   c17.851,0,18.72-0.09,34.351-3.84c10.891-2.61,13.711-3.75,16.649-6.69c3.72-3.72,5.49-8.28,10.38-26.49   c3.061-11.55,5.16-17.7,7.8-22.98c2.671-5.34,3.87-6.66,7.771-8.58c4.44-2.16,10.59-3.57,18.75-4.32c4.409-0.39,16.95-0.39,22.2,0   c18.3,1.35,35.88,6,59.43,15.69c28.109,11.58,44.34,21.72,64.68,40.47c14.881,13.68,23.58,26.58,29.04,42.989   c3.271,9.869,6.96,27.569,10.05,48.181c1.95,12.93,3.602,20.13,10.92,46.92c4.892,17.97,5.16,19.17,6.182,25.2   c1.14,6.81,1.71,12.96,2.25,25.199c0.238,5.609,0.6,12.479,0.779,15.301c0.539,7.979,0.479,19.38-0.149,23.85   c-1.771,12.75-5.188,27.512-8.91,38.55c-4.528,13.382-13.68,26.79-23.069,33.87c-9.029,6.78-26.641,16.352-37.5,20.37   c-8.039,2.972-25.83,8.76-39.779,12.96c-13.141,3.96-29.131,9.182-36.271,11.852c-8.01,3-12.148,5.278-12.148,6.75   c0,1.438,2.039,0.96,5.85-1.381c7.95-4.83,22.41-9.959,51.48-18.271c23.58-6.72,35.58-11.188,49.92-18.57   c21.18-10.89,30.3-19.26,37.648-34.38c2.641-5.46,7.23-16.68,8.79-21.6c3.392-10.59,6.54-26.16,7.142-35.37   C889.8,486,889.26,458.73,888.3,447z" style="stroke:black;fill:#BFDAE3"/><path id="180623552" parent_id="180608862" order="19" structure_id="1" d="M548.1,251.61c-0.84,0.3-3,2.22-3,2.67   c0,0.51,0.961,0.54,4.051,0.09c2.011-0.3,2.25-0.42,2.25-0.99C551.4,252.03,549.6,251.07,548.1,251.61z" style="stroke:black;fill:#BFDAE3"/><path id="180623552" parent_id="180608862" order="20" structure_id="1" d="M546.9,293.7c0,1.68,1.68,4.2,2.789,4.2   c0.511,0,0.569-0.15,0.42-1.11c-0.271-1.53-1.739-3.81-2.549-3.93C546.99,292.77,546.9,292.89,546.9,293.7z" style="stroke:black;fill:#BFDAE3"/><path id="180623552" parent_id="180608862" order="21" structure_id="1" d="M737.939,297.63   c-1.859,0.72-0.721,2.37,3.631,5.37c13.438,9.24,27.3,22.86,35.16,34.53c2.43,3.63,12.778,21.989,16.47,29.22   c8.069,15.9,12.03,28.62,13.53,43.5c0.568,5.67,0.51,19.83-0.121,25.65c-1.859,16.77-5.641,28.8-12.09,38.398   c-9.811,14.58-33.75,43.98-63.869,78.45c-17.37,19.89-19.352,22.29-22.771,27.51c-3.03,4.65-4.26,8.04-2.97,8.04   c0.569,0,6.688-5.939,6.688-6.479c0-0.45,2.94-4.562,4.92-6.87c2.972-3.48,7.59-8.521,17.73-19.352   c21.33-22.83,24.84-26.789,42.27-47.698c4.621-5.521,9.78-11.61,11.432-13.5c11.22-12.69,15.96-20.7,19.949-33.66   c1.619-5.222,4.619-17.49,5.399-22.021c2.58-14.938,0.72-30.75-5.909-50.52c-1.921-5.73-5.851-16.2-7.951-21.15   c-5.188-12.27-14.879-29.97-24-43.859c-3.72-5.671-3.148-5.069-14.039-14.25c-5.58-4.681-8.01-6.331-12.75-8.641   C743.52,297.81,739.859,296.91,737.939,297.63z" style="stroke:black;fill:#BFDAE3"/><path id="180623552" parent_id="180608862" order="22" structure_id="1" d="M867.3,338.73c0,0.33,0.81,5.43,1.8,11.31   c0.961,5.88,2.25,14.22,2.852,18.479c1.859,13.561,2.189,14.939,9.27,39.989c4.74,16.771,5.881,21.54,6.36,26.852   c0.149,1.68,0.33,2.34,0.6,2.34c0.45,0,0.57-5.79,0.45-17.55c-0.12-8.7-1.41-17.222-3.96-26.102c-1.229-4.2-1.59-5.25-6.42-18   c-3.392-8.97-5.28-15.3-6.75-22.59c-1.979-9.75-3.358-15.36-3.812-15.36C867.48,338.1,867.3,338.37,867.3,338.73z" style="stroke:black;fill:#BFDAE3"/><path id="180623552" parent_id="180608862" order="23" structure_id="1" d="M786.3,403.83c-1.89,0.75-8.88,2.73-12,3.39   c-5.64,1.2-9.51,1.53-12.81,1.11c-1.562-0.21-2.91-0.3-3.03-0.18c-0.09,0.09,0.06,0.81,0.36,1.59   c4.47,11.55,1.56,28.56-7.41,43.648c-1.32,2.222-1.68,3.21-1.17,3.21c0.119,0,1.05-0.3,2.07-0.659   c1.858-0.659,1.858-0.689,2.22-2.189c0.45-2.01,2.1-6.15,4.77-12c1.2-2.64,3.63-8.4,5.431-12.84c1.801-4.41,3.931-9.36,4.801-11.01   c1.38-2.7,1.738-3.15,3.39-4.32c2.67-1.92,8.67-4.8,13.83-6.63c1.979-0.72,2.04-0.78,1.8-2.22   C788.34,403.41,787.859,403.2,786.3,403.83z" style="stroke:black;fill:#BFDAE3"/><path id="180623552" parent_id="180608862" order="24" structure_id="1" d="M855.21,579.18   c-3.271,0.722-9.51,3.03-11.46,4.23c-0.99,0.63-3.15,1.95-4.8,2.97c-1.65,0.99-3.03,2.04-3.091,2.28   c-0.149,0.779,1.711,2.279,3.33,2.67c3.569,0.84,13.109-1.11,18.811-3.87c2.46-1.2,4.95-3.36,5.25-4.59   c0.27-1.05-0.51-2.79-1.47-3.42C860.7,578.73,857.7,578.61,855.21,579.18z" style="stroke:black;fill:#BFDAE3"/><path id="180623552" parent_id="180608862" order="25" structure_id="1" d="M614.311,583.92   c-2.341,0.63-3.841,1.891-4.621,3.811c-0.75,1.891-1.89,9.061-1.89,12v1.979l5.04,1.53c6.63,2.01,7.801,2.31,8.07,2.07   c0.09-0.121-0.18-1.32-0.63-2.7c-1.71-4.95-1.352-9.78,1.17-15.63c0.569-1.352,1.05-2.61,1.05-2.791   C622.5,583.439,616.83,583.26,614.311,583.92z" style="stroke:black;fill:#BFDAE3"/><path id="180623552" parent_id="180608862" order="26" structure_id="1" d="M596.52,596.67   c-1.108,0.69-2.608,2.94-3.479,5.311c-0.54,1.471-0.66,2.399-0.66,5.521c0,4.38,0.36,5.61,2.25,7.74   c0.69,0.778,1.59,2.13,2.012,2.97c0.448,0.87,0.988,1.59,1.229,1.59c0.66,0,0.21-4.979-0.87-9.898   c-0.51-2.222-0.899-4.59-0.899-5.25c0-2.67,2.159-4.32,5.641-4.352c1.619,0,1.859-0.06,1.859-0.568c0-0.9-1.08-2.012-2.761-2.852   C599.01,595.95,597.78,595.89,596.52,596.67z" style="stroke:black;fill:#BFDAE3"/><path id="180623552" parent_id="180608862" order="27" structure_id="1" d="M673.68,444.9c-3.119,3.18-5.97,3.778-13.229,2.729c-5.94-0.87-6.78-1.109-9.48-2.49   c-5.938-3.028-11.908-9.72-14.46-16.14c-1.77-4.47-2.46-12.66-2.22-25.65c0.271-13.108,1.229-24.18,2.79-31.948   c1.59-7.98,4.649-18.09,7.47-24.75c1.71-4.052,1.891-4.65,1.23-4.65c-0.24,0-1.98,1.2-3.842,2.64   c-12.33,9.63-16.738,11.762-23.608,11.37c-1.59-0.09-3.15-0.24-3.479-0.33c-0.479-0.148-0.779,0.15-1.619,1.59   c-0.541,0.962-1.682,2.432-2.552,3.271c-5.278,5.22-13.229,6.66-25.71,4.68c-7.318-1.14-18.988-5.67-25.56-9.898   c-1.11-0.721-2.16-1.32-2.312-1.32c-0.148,0-0.99,0.45-1.858,1.02c-5.154,3.283-10.229,4.922-15.24,4.943v19.116   c0.103,0,0.194,0,0.3,0.001c4.5,0,5.79,0.12,9.061,0.811c2.101,0.449,4.109,0.811,4.439,0.811s1.38-0.391,2.341-0.87   c0.931-0.479,2.851-1.229,4.261-1.71c2.25-0.72,3-0.811,6.6-0.84l4.05-0.03l4.14,1.439c14.102,4.859,21.631,9.181,24.812,14.221   c0.51,0.81,1.891,2.46,3.12,3.688c5.46,5.61,6.87,12.961,3.87,20.132c-0.57,1.38-1.11,2.729-1.171,2.97   c-0.09,0.27,0.359,1.02,1.051,1.77c1.59,1.74,2.01,2.94,2.729,8.19c0.721,5.37,0.75,8.01,0.12,10.17   c-0.63,2.101-1.38,3.12-2.909,3.96c-1.201,0.63-1.561,0.66-9.391,0.66h-8.16l-0.18,1.26c-0.33,2.521-2.43,7.05-9.9,21.69   c-12.688,24.75-15.24,30.06-16.648,34.648c-0.602,1.95-0.631,2.312-0.33,8.07c0.51,10.44,0.658,12.18,1.02,12.18   c0.182,0,0.721-0.989,1.2-2.188c2.76-6.99,7.29-12.24,9.84-11.46c1.142,0.358,2.61,1.618,3.302,2.85c0.39,0.66,0.84,1.2,1.02,1.2   c0.21,0,0.391-1.2,0.51-3.24c0.42-7.32,2.79-12.24,6.93-14.37c3.541-1.8,11.461-3.028,17.61-2.7c6.33,0.36,17.46,2.642,20.64,4.23   c1.83,0.96,5.762,4.86,6.632,6.6c0.898,1.86,0.989,3.092,0.448,4.98c-0.84,2.88-0.869,3-0.39,3c0.271,0,1.59-0.96,2.97-2.102   c3.45-2.909,8.76-6.448,11.04-7.35c1.021-0.42,3.931-1.2,6.421-1.74c4.891-1.08,5.67-1.528,3.659-2.278   c-2.1-0.75-2.52-2.791-0.75-3.841c1.47-0.87,1.14-1.291-0.96-1.291c-4.32,0-5.43-1.108-4.77-4.89   c1.14-6.87,3.99-11.43,13.02-20.819c5.67-5.939,8.971-10.891,12.721-18.989C676.561,443.01,676.38,442.17,673.68,444.9z" style="stroke:black;fill:#BFDAE3"/><path id="180623552" parent_id="180608862" order="28" structure_id="1" d="M540.359,392.25c-0.121-0.003-0.239-0.005-0.359-0.007v6.905c1.77-0.033,3.336-0.121,3.54-0.269   c0.69-0.42,1.86-3.149,1.86-4.319C545.4,392.58,544.83,392.311,540.359,392.25z" style="stroke:black;fill:#BFDAE3"/><path id="180623552" parent_id="180608862" order="29" structure_id="1" d="M709.59,505.74   c-4.17,2.1-7.59,3.96-7.59,4.17c0,0.27,0.6,0.33,2.34,0.21c7.53-0.54,18.96,5.97,23.88,13.59c0.33,0.54,0.841,0.96,1.08,0.9   c0.9-0.15,1.62-2.852,1.62-6.21c0.03-2.91-0.029-3.271-0.779-4.53c-1.109-1.89-3.271-3.75-6.931-6.03   c-3.75-2.31-5.31-3.779-5.31-5.04c0-0.54-0.15-0.898-0.36-0.87C717.33,501.93,713.73,503.64,709.59,505.74z" style="stroke:black;fill:#BFDAE3"/><path id="180623552" parent_id="180608862" order="30" structure_id="1" d="M709.2,483.48   c-12.601,4.318-28.47,7.318-38.64,7.318c-3.03,0-4.472,0.15-6.092,0.602c-1.17,0.33-3.21,0.72-4.56,0.898   c-2.761,0.391-5.312,1.262-6.03,2.07c-0.84,0.93-0.51,2.43,0.66,3.12c2.34,1.35,6.06,0.93,18.81-2.19   c6.841-1.68,10.681-2.398,12.812-2.398c2.64,0,10.83-2.4,18.24-5.4c5.58-2.22,11.698-5.16,11.698-5.58   C716.1,481.23,715.05,481.47,709.2,483.48z" style="stroke:black;fill:#BFDAE3"/><path id="180623552" parent_id="180608862" order="31" structure_id="1" d="M709.561,398.01   c-2.279,3.21-6.091,13.051-7.591,19.59c-1.62,6.87-0.81,21.69,1.41,26.312c0.81,1.68,1.53,2.13,2.55,1.59   c1.74-0.93,2.521-5.49,2.94-16.95c0.21-5.55,0.6-10.56,1.229-15.898c1.11-9.211,1.32-15.24,0.57-15.392   C710.37,397.2,709.891,397.53,709.561,398.01z" style="stroke:black;fill:#BFDAE3"/><path id="180623552" parent_id="180608862" order="32" structure_id="1" d="M669.9,333.12c0,0.24,0.568,0.93,1.289,1.53   c3.511,2.97,6.811,8.16,7.979,12.448c0.63,2.341,1.5,8.852,2.312,17.4c0.629,6.84,0.898,28.92,0.448,38.58   c-0.51,10.83-1.47,19.8-2.608,24.27c-1.801,7.2-4.472,13.171-7.021,15.78c-1.83,1.86-4.62,3.42-6.659,3.75   c-0.721,0.12-1.141,0.36-1.141,0.66c0,0.78,4.59,0.359,6.479-0.63c4.681-2.4,10.289-11.972,12.84-21.96   c2.279-8.94,2.671-16.98,1.979-40.051c-0.63-20.729-1.83-33-3.75-38.521c-1.021-2.97-3.271-6.51-5.79-9.21   C673.2,333.9,669.9,331.8,669.9,333.12z" style="stroke:black;fill:#BFDAE3"/><path id="180623552" parent_id="180608862" order="33" structure_id="1" d="M673.68,444.9c-3.119,3.18-5.97,3.778-13.229,2.729c-5.94-0.87-6.78-1.109-9.48-2.49   c-5.938-3.028-11.908-9.72-14.46-16.14c-1.77-4.47-2.46-12.66-2.22-25.65c0.271-13.108,1.229-24.18,2.79-31.948   c1.59-7.98,4.649-18.09,7.47-24.75c1.71-4.052,1.891-4.65,1.23-4.65c-0.24,0-1.98,1.2-3.842,2.64   c-12.33,9.63-16.738,11.762-23.608,11.37c-1.59-0.09-3.15-0.24-3.479-0.33c-0.479-0.148-0.779,0.15-1.619,1.59   c-0.541,0.962-1.682,2.432-2.552,3.271c-5.278,5.22-13.229,6.66-25.71,4.68c-7.318-1.14-18.988-5.67-25.56-9.898   c-1.11-0.721-2.16-1.32-2.312-1.32c-0.148,0-0.99,0.45-1.858,1.02c-5.154,3.283-10.229,4.922-15.24,4.943v19.116   c0.103,0,0.194,0,0.3,0.001c4.5,0,5.79,0.12,9.061,0.811c2.101,0.449,4.109,0.811,4.439,0.811s1.38-0.391,2.341-0.87   c0.931-0.479,2.851-1.229,4.261-1.71c2.25-0.72,3-0.811,6.6-0.84l4.05-0.03l4.14,1.439c14.102,4.859,21.631,9.181,24.812,14.221   c0.51,0.81,1.891,2.46,3.12,3.688c5.46,5.61,6.87,12.961,3.87,20.132c-0.57,1.38-1.11,2.729-1.171,2.97   c-0.09,0.27,0.359,1.02,1.051,1.77c1.59,1.74,2.01,2.94,2.729,8.19c0.721,5.37,0.75,8.01,0.12,10.17   c-0.63,2.101-1.38,3.12-2.909,3.96c-1.201,0.63-1.561,0.66-9.391,0.66h-8.16l-0.18,1.26c-0.33,2.521-2.43,7.05-9.9,21.69   c-12.688,24.75-15.24,30.06-16.648,34.648c-0.602,1.95-0.631,2.312-0.33,8.07c0.51,10.44,0.658,12.18,1.02,12.18   c0.182,0,0.721-0.989,1.2-2.188c2.76-6.99,7.29-12.24,9.84-11.46c1.142,0.358,2.61,1.618,3.302,2.85c0.39,0.66,0.84,1.2,1.02,1.2   c0.21,0,0.391-1.2,0.51-3.24c0.42-7.32,2.79-12.24,6.93-14.37c3.541-1.8,11.461-3.028,17.61-2.7c6.33,0.36,17.46,2.642,20.64,4.23   c1.83,0.96,5.762,4.86,6.632,6.6c0.898,1.86,0.989,3.092,0.448,4.98c-0.84,2.88-0.869,3-0.39,3c0.271,0,1.59-0.96,2.97-2.102   c3.45-2.909,8.76-6.448,11.04-7.35c1.021-0.42,3.931-1.2,6.421-1.74c4.891-1.08,5.67-1.528,3.659-2.278   c-2.1-0.75-2.52-2.791-0.75-3.841c1.47-0.87,1.14-1.291-0.96-1.291c-4.32,0-5.43-1.108-4.77-4.89   c1.14-6.87,3.99-11.43,13.02-20.819c5.67-5.939,8.971-10.891,12.721-18.989C676.561,443.01,676.38,442.17,673.68,444.9z" style="stroke:black;fill:#BFDAE3"/><path id="180623552" parent_id="180608862" order="34" structure_id="1" d="M888.3,447c-1.29-15.54-1.8-18.45-5.61-31.92c-8.368-29.641-8.58-30.51-9.81-37.68   c-0.42-2.4-1.021-6.512-1.38-9.15c-0.33-2.64-1.98-13.11-3.63-23.25c-2.97-18.12-3.06-18.54-4.771-23.73   c-6.029-18.208-13.41-31.68-25.021-45.568c-13.681-16.35-26.79-25.98-53.13-39c-18.602-9.21-32.16-14.64-47.7-19.11   c-14.642-4.2-26.7-6.93-36.51-8.25c-5.882-0.78-17.851-0.93-23.04-0.3c-11.25,1.41-21.45,4.05-28.41,7.41   c-4.38,2.13-9,6.87-13.439,13.8c-0.959,1.47-2.189,3.39-2.729,4.2c-0.54,0.84-2.28,4.02-3.87,7.05   c-3.42,6.57-5.67,9.66-10.41,14.28c-3.96,3.84-7.59,6.72-12.93,10.229c-4.74,3.12-7.62,4.62-11.13,5.76   c-5.341,1.77-9.33,2.46-17.13,3.03c-5.041,0.36-10.892,1.32-22.801,3.72c-4.439,0.9-9.601,1.86-11.459,2.13   c-1.315,0.189-2.263,0.313-3.392,0.305v10.266c4.363,0.019,8.41-0.318,15-0.97c11.729-1.14,16.2-1.35,30-1.35   c17.851,0,18.72-0.09,34.351-3.84c10.891-2.61,13.711-3.75,16.649-6.69c3.72-3.72,5.49-8.28,10.38-26.49   c3.061-11.55,5.16-17.7,7.8-22.98c2.671-5.34,3.87-6.66,7.771-8.58c4.44-2.16,10.59-3.57,18.75-4.32c4.409-0.39,16.95-0.39,22.2,0   c18.3,1.35,35.88,6,59.43,15.69c28.109,11.58,44.34,21.72,64.68,40.47c14.881,13.68,23.58,26.58,29.04,42.989   c3.271,9.869,6.96,27.569,10.05,48.181c1.95,12.93,3.602,20.13,10.92,46.92c4.892,17.97,5.16,19.17,6.182,25.2   c1.14,6.81,1.71,12.96,2.25,25.199c0.238,5.609,0.6,12.479,0.779,15.301c0.539,7.979,0.479,19.38-0.149,23.85   c-1.771,12.75-5.188,27.512-8.91,38.55c-4.528,13.382-13.68,26.79-23.069,33.87c-9.029,6.78-26.641,16.352-37.5,20.37   c-8.039,2.972-25.83,8.76-39.779,12.96c-13.141,3.96-29.131,9.182-36.271,11.852c-8.01,3-12.148,5.278-12.148,6.75   c0,1.438,2.039,0.96,5.85-1.381c7.95-4.83,22.41-9.959,51.48-18.271c23.58-6.72,35.58-11.188,49.92-18.57   c21.18-10.89,30.3-19.26,37.648-34.38c2.641-5.46,7.23-16.68,8.79-21.6c3.392-10.59,6.54-26.16,7.142-35.37   C889.8,486,889.26,458.73,888.3,447z" style="stroke:black;fill:#BFDAE3"/><path id="180623552" parent_id="180608862" order="35" structure_id="1" d="M619.141,522.3c-0.211,0-1.921,1.05-3.841,2.37c-4.26,2.91-10.08,6.27-13.14,7.561   c-2.16,0.931-2.58,1.021-6.48,1.109c-4.35,0.12-8.188-0.27-10.14-1.05c-1.44-0.57-3.03-2.4-3.87-4.47   c-0.39-0.9-0.84-1.62-0.99-1.62c-0.18,0-0.72,1.92-1.199,4.26c-2.159,10.74-3.391,14.16-6.12,17.13   c-1.409,1.5-3.841,2.91-5.039,2.91c-0.33,0-0.931,0.33-1.32,0.75c-2.25,2.4-5.938,1.17-7.771-2.64   c-1.261-2.55-1.649-5.25-1.439-9.78c0.271-6.391,1.68-11.16,4.08-13.92l0.989-1.11l-0.359-5.01c-0.21-2.79-0.391-7.53-0.42-10.59   l-0.03-5.55l1.682-4.052c0.93-2.22,2.16-5.038,2.699-6.27c0.84-1.83,0.93-2.25,0.569-2.37c-0.24-0.09-1.771-0.84-3.42-1.648   c-6.33-3.182-10.29-8.972-10.892-15.962c-0.238-2.818,0.271-5.13,1.892-8.488c2.46-5.102,7.05-9.062,12.688-10.921   c2.552-0.841,3.271-0.959,6.48-0.959c3.27-0.03,3.75,0.028,5.25,0.75c1.5,0.688,4.5,3.33,4.5,3.93c0,0.12,0.24,0.24,0.57,0.24   c0.42,0,0.96-0.87,2.279-3.78c1.381-3.09,2.851-7.47,2.851-8.521c0-0.118-1.05-0.39-2.31-0.568c-3.451-0.54-5.342-1.142-6.422-2.04   c-1.02-0.87-2.039-2.82-2.068-3.93c0-1.021-0.69-0.78-1.352,0.448c-0.84,1.562-4.229,4.86-6.18,6.03   c-2.91,1.71-4.92,2.28-7.92,2.31c-3.21,0-4.74-0.63-6.15-2.579c-1.5-2.069-1.949-3.899-1.949-7.771c0-2.76,0.149-3.9,0.721-5.7   c1.199-3.87,2.279-5.609,5.25-8.55c4.109-4.08,8.039-5.79,12.449-5.49c4.529,0.33,6.811,3.062,7.17,8.552   c0.091,1.56,0.271,2.488,0.479,2.459c0.42-0.029,4.08-5.609,4.08-6.239c0-0.66-1.8-4.41-3.09-6.42   c-3.511-5.49-10.08-11.04-18.271-15.45c-5.221-2.82-15.631-6.96-17.49-6.96c-0.779,0-0.811,0.06-0.659,1.05   c0.21,1.26-0.302,2.88-1.472,4.62c-0.75,1.14-0.778,1.35-0.448,2.399c0.27,0.989,0.21,1.591-0.421,4.051   c-0.391,1.619-1.079,3.66-1.5,4.59l-0.75,1.649v23.46c0,12.869-0.119,23.609-0.271,23.819c-0.12,0.194-0.378,0.304-0.63,0.31   v64.108c1.369,0.045,2.852,0.331,3.99,0.803c3.869,1.681,5.279,5.671,5.31,15.271c0,10.56-1.29,17.04-4.05,20.34   c-1.08,1.26-3.51,2.43-5.07,2.43c-0.062,0-0.119-0.008-0.18-0.009v18.611c3.262,0.024,6.532,0.696,10.29,2.008   c4.11,1.41,7.11,2.94,11.61,5.91c6.06,3.99,8.938,6.75,10.77,10.26c0.54,1.021,1.26,1.62,4.02,3.3   c4.86,2.972,10.382,6.69,12.932,8.79c1.229,1.021,2.398,1.83,2.609,1.83c0.239,0,0.301-0.33,0.149-1.14   c-0.75-4.471-0.33-7.44,1.65-11.4c0.72-1.41,1.14-2.58,0.989-2.729c-0.149-0.12-0.869-0.392-1.619-0.602   c-6.66-1.8-15.87-6.449-20.761-10.438c-2.461-2.011-3.841-4.38-3.211-5.552c0.511-0.959,0.841-1.14,2.25-1.14   c1.802,0,3.48,0.63,10.472,3.96c17.729,8.43,21.39,10.44,22.47,12.271c0.659,1.14,0.6,1.68-0.3,2.52c-1.44,1.32-0.54,2.58,2.31,3.3   l0.75,0.182l0.511-4.74c0.299-2.61,0.601-5.16,0.689-5.67c0.18-0.9,0.15-0.931-1.891-1.47c-6.869-1.83-14.819-5.312-20.011-8.762   c-10.83-7.199-17.1-18.658-14.159-25.89c2.489-6.09,9.181-11.97,15.569-13.68c1.92-0.511,8.851-0.54,12.66-0.091   c1.5,0.181,3.99,0.659,5.55,1.051c1.561,0.39,2.971,0.72,3.12,0.72c0.12,0,0.18-0.39,0.09-0.84c-0.63-3.15,2.7-10.05,7.95-16.44   C619.41,523.29,619.92,522.3,619.141,522.3z" style="stroke:black;fill:#BFDAE3"/><path id="180623552" parent_id="180608862" order="36" structure_id="1" d="M886.35,526.26   c-3.27,10.562-6.24,17.7-10.14,24.54c-8.04,14.102-13.021,19.89-22.41,26.16c-5.31,3.57-5.55,4.2-1.05,2.76   c2.85-0.93,6.48-1.26,8.04-0.75c1.41,0.48,2.61,1.892,2.61,3.091c0,0.511-0.271,1.379-0.631,1.92   c-0.569,0.959-3.569,3.181-4.771,3.569c-0.96,0.3-0.688,0.99,0.54,1.351c6.75,1.891,23.04,3.539,32.01,3.211   c5.61-0.211,8.55-0.631,16.262-2.312c13.408-2.938,14.038-3.06,17.729-3.21c3.601-0.18,3.689-0.18,3.479-0.81   c-0.688-1.892-0.27-4.5,2.371-14.88c2.729-10.62,3.42-13.08,5.909-20.852c1.83-5.79,2.13-6.42,3.45-7.92   c0.63-0.66,1.05-1.41,0.96-1.59c-0.12-0.33-53.13-14.67-54-14.641C886.59,525.9,886.439,526.08,886.35,526.26z" style="stroke:black;fill:#BFDAE3"/><path id="180623552" parent_id="180608862" order="37" structure_id="1" d="M940.2,541.68   c-1.351,1.17-2.101,2.82-4.32,9.9c-2.04,6.45-8.28,30.45-8.28,31.8c0,2.101,1.59,3.84,3.33,3.66c0.961-0.09,1.051-0.24,2.61-3.69   c6.09-13.648,11.16-30.21,12.21-39.93l0.21-1.83l-1.38-0.359C942.391,540.689,941.25,540.811,940.2,541.68z" style="stroke:black;fill:#BFDAE3"/><path id="180623552" parent_id="180608862" order="38" structure_id="1" d="M946.08,542.16   c-0.061,0.21-0.391,2.25-0.75,4.5c-1.62,10.2-6.33,24.81-12.03,37.41c-0.84,1.858-1.5,3.6-1.44,3.869   c0.092,0.511,5.132,3.33,5.972,3.359c0.3,0,1.8-2.76,4.68-8.64c5.61-11.4,7.65-16.771,9.87-25.71   c0.96-3.87,2.641-12.75,2.46-12.932c-0.149-0.119-8.04-2.22-8.37-2.22C946.32,541.8,946.141,541.98,946.08,542.16z" style="stroke:black;fill:#BFDAE3"/><path id="180623552" parent_id="180608862" order="39" structure_id="1" d="M720.21,263.88   c-9.271,1.44-18.69,5.94-27.66,13.17c-6.689,5.43-18.93,17.85-20.52,20.85c-3.36,6.27-0.48,14.43,6.3,17.82   c2.97,1.471,4.8,1.8,9.51,1.591c5.28-0.239,14.79,0.239,19.051,0.989c1.891,0.3,9.869,2.22,17.729,4.2   c13.59,3.45,20.819,5.1,22.2,5.1c1.229,0,2.938-0.659,3.84-1.47c0.87-0.75,0.9-0.93,0.72-2.189c-0.33-2.189-1.68-4.021-3.6-4.859   c-0.87-0.391-3.69-2.28-6.21-4.2c-5.37-4.05-7.29-5.13-11.82-6.63c-7.92-2.61-15.061-4.05-20.04-4.05   c-2.97,0-13.021,1.29-17.58,2.25c-1.2,0.239-2.46,0.45-2.819,0.45c-1.381,0-3.061-0.69-4.021-1.65c-1.83-1.83-1.17-4.29,1.71-6.33   c0.75-0.51,4.92-2.88,9.3-5.25c12.96-6.99,27.69-13.95,31.74-15c4.41-1.14,9.271-1.08,11.79,0.21c0.42,0.21,1.77,1.23,3,2.25   c2.82,2.37,6.6,4.86,8.58,5.64c0.811,0.33,2.76,0.72,4.32,0.9c4.318,0.48,9.479,2.13,12.988,4.11   c1.682,0.96,9.87,8.07,14.131,12.27c2.729,2.67,4.08,4.29,5.311,6.33c1.8,2.88,3.6,6.391,3.99,7.62   c0.119,0.42,1.35,2.49,2.699,4.65c1.351,2.13,5.34,8.76,8.851,14.698c10.17,17.222,12.78,21.091,16.47,24.512   c2.43,2.25,4.41,3.3,6.54,3.479c1.47,0.12,1.59,0.09,1.59-0.51c0-1.561-6-15.66-10.53-24.72c-4.92-9.812-14.76-27-20.039-35.01   c-4.681-7.08-11.311-14.46-17.25-19.17c-8.069-6.39-24.931-15.78-33.721-18.75C737.55,264.06,727.29,262.77,720.21,263.88z" style="stroke:black;fill:#BFDAE3"/><path id="180623552" parent_id="180608862" order="40" structure_id="1" d="M619.141,522.3c-0.211,0-1.921,1.05-3.841,2.37c-4.26,2.91-10.08,6.27-13.14,7.561   c-2.16,0.931-2.58,1.021-6.48,1.109c-4.35,0.12-8.188-0.27-10.14-1.05c-1.44-0.57-3.03-2.4-3.87-4.47   c-0.39-0.9-0.84-1.62-0.99-1.62c-0.18,0-0.72,1.92-1.199,4.26c-2.159,10.74-3.391,14.16-6.12,17.13   c-1.409,1.5-3.841,2.91-5.039,2.91c-0.33,0-0.931,0.33-1.32,0.75c-2.25,2.4-5.938,1.17-7.771-2.64   c-1.261-2.55-1.649-5.25-1.439-9.78c0.271-6.391,1.68-11.16,4.08-13.92l0.989-1.11l-0.359-5.01c-0.21-2.79-0.391-7.53-0.42-10.59   l-0.03-5.55l1.682-4.052c0.93-2.22,2.16-5.038,2.699-6.27c0.84-1.83,0.93-2.25,0.569-2.37c-0.24-0.09-1.771-0.84-3.42-1.648   c-6.33-3.182-10.29-8.972-10.892-15.962c-0.238-2.818,0.271-5.13,1.892-8.488c2.46-5.102,7.05-9.062,12.688-10.921   c2.552-0.841,3.271-0.959,6.48-0.959c3.27-0.03,3.75,0.028,5.25,0.75c1.5,0.688,4.5,3.33,4.5,3.93c0,0.12,0.24,0.24,0.57,0.24   c0.42,0,0.96-0.87,2.279-3.78c1.381-3.09,2.851-7.47,2.851-8.521c0-0.118-1.05-0.39-2.31-0.568c-3.451-0.54-5.342-1.142-6.422-2.04   c-1.02-0.87-2.039-2.82-2.068-3.93c0-1.021-0.69-0.78-1.352,0.448c-0.84,1.562-4.229,4.86-6.18,6.03   c-2.91,1.71-4.92,2.28-7.92,2.31c-3.21,0-4.74-0.63-6.15-2.579c-1.5-2.069-1.949-3.899-1.949-7.771c0-2.76,0.149-3.9,0.721-5.7   c1.199-3.87,2.279-5.609,5.25-8.55c4.109-4.08,8.039-5.79,12.449-5.49c4.529,0.33,6.811,3.062,7.17,8.552   c0.091,1.56,0.271,2.488,0.479,2.459c0.42-0.029,4.08-5.609,4.08-6.239c0-0.66-1.8-4.41-3.09-6.42   c-3.511-5.49-10.08-11.04-18.271-15.45c-5.221-2.82-15.631-6.96-17.49-6.96c-0.779,0-0.811,0.06-0.659,1.05   c0.21,1.26-0.302,2.88-1.472,4.62c-0.75,1.14-0.778,1.35-0.448,2.399c0.27,0.989,0.21,1.591-0.421,4.051   c-0.391,1.619-1.079,3.66-1.5,4.59l-0.75,1.649v23.46c0,12.869-0.119,23.609-0.271,23.819c-0.12,0.194-0.378,0.304-0.63,0.31   v64.108c1.369,0.045,2.852,0.331,3.99,0.803c3.869,1.681,5.279,5.671,5.31,15.271c0,10.56-1.29,17.04-4.05,20.34   c-1.08,1.26-3.51,2.43-5.07,2.43c-0.062,0-0.119-0.008-0.18-0.009v18.611c3.262,0.024,6.532,0.696,10.29,2.008   c4.11,1.41,7.11,2.94,11.61,5.91c6.06,3.99,8.938,6.75,10.77,10.26c0.54,1.021,1.26,1.62,4.02,3.3   c4.86,2.972,10.382,6.69,12.932,8.79c1.229,1.021,2.398,1.83,2.609,1.83c0.239,0,0.301-0.33,0.149-1.14   c-0.75-4.471-0.33-7.44,1.65-11.4c0.72-1.41,1.14-2.58,0.989-2.729c-0.149-0.12-0.869-0.392-1.619-0.602   c-6.66-1.8-15.87-6.449-20.761-10.438c-2.461-2.011-3.841-4.38-3.211-5.552c0.511-0.959,0.841-1.14,2.25-1.14   c1.802,0,3.48,0.63,10.472,3.96c17.729,8.43,21.39,10.44,22.47,12.271c0.659,1.14,0.6,1.68-0.3,2.52c-1.44,1.32-0.54,2.58,2.31,3.3   l0.75,0.182l0.511-4.74c0.299-2.61,0.601-5.16,0.689-5.67c0.18-0.9,0.15-0.931-1.891-1.47c-6.869-1.83-14.819-5.312-20.011-8.762   c-10.83-7.199-17.1-18.658-14.159-25.89c2.489-6.09,9.181-11.97,15.569-13.68c1.92-0.511,8.851-0.54,12.66-0.091   c1.5,0.181,3.99,0.659,5.55,1.051c1.561,0.39,2.971,0.72,3.12,0.72c0.12,0,0.18-0.39,0.09-0.84c-0.63-3.15,2.7-10.05,7.95-16.44   C619.41,523.29,619.92,522.3,619.141,522.3z" style="stroke:black;fill:#BFDAE3"/><path id="180623552" parent_id="180608862" order="41" structure_id="1" d="M691.23,591.18   c-1.892,1.74-2.28,2.432-1.98,3.42c0.359,1.142,3.061,0.392,4.53-1.26c0.81-0.87,1.2-2.82,0.688-3.42   C693.84,589.17,693.061,589.47,691.23,591.18z" style="stroke:black;fill:#BFDAE3"/><path id="180623552" parent_id="180608862" order="42" structure_id="1" d="M571.65,509.37   c-3.631,2.25-7.771,10.38-9.48,18.54c-1.2,5.76-1.26,14.55-0.12,17.79c1.17,3.33,2.73,4.56,5.7,4.56c2.311,0,3.93-0.81,5.76-2.88   c2.642-3,3.45-5.34,5.76-16.53c1.11-5.25,1.201-6.148,0.932-7.47c-0.15-0.84-0.57-3.39-0.9-5.67c-0.6-4.17-0.96-5.22-2.34-7.05   C575.55,508.8,573.391,508.29,571.65,509.37z" style="stroke:black;fill:#BFDAE3"/><path id="180623552" parent_id="180608862" order="43" structure_id="1" d="M593.85,493.02   c-3.39,0.57-6.99,1.592-8.43,2.432c-3.75,2.188-5.52,6.238-6.18,14.068c-0.33,3.842-0.301,4.53,0.33,9   c1.02,7.17,2.608,11.49,4.8,13.052c1.26,0.898,4.29,1.5,8.88,1.71c5.311,0.27,6.63-0.03,11.7-2.55c7.35-3.66,16.56-10.08,21.479-15   c3.48-3.512,4.771-5.791,5.011-8.972c0.181-2.64-0.449-3.898-3.511-7.08c-2.608-2.698-3.868-3.358-8.34-4.5   c-7.08-1.8-11.01-2.369-17.34-2.46C598.26,492.66,595.439,492.75,593.85,493.02z" style="stroke:black;fill:#BFDAE3"/><path id="180623552" parent_id="180608862" order="44" structure_id="1" d="M619.141,522.3c-0.211,0-1.921,1.05-3.841,2.37c-4.26,2.91-10.08,6.27-13.14,7.561   c-2.16,0.931-2.58,1.021-6.48,1.109c-4.35,0.12-8.188-0.27-10.14-1.05c-1.44-0.57-3.03-2.4-3.87-4.47   c-0.39-0.9-0.84-1.62-0.99-1.62c-0.18,0-0.72,1.92-1.199,4.26c-2.159,10.74-3.391,14.16-6.12,17.13   c-1.409,1.5-3.841,2.91-5.039,2.91c-0.33,0-0.931,0.33-1.32,0.75c-2.25,2.4-5.938,1.17-7.771-2.64   c-1.261-2.55-1.649-5.25-1.439-9.78c0.271-6.391,1.68-11.16,4.08-13.92l0.989-1.11l-0.359-5.01c-0.21-2.79-0.391-7.53-0.42-10.59   l-0.03-5.55l1.682-4.052c0.93-2.22,2.16-5.038,2.699-6.27c0.84-1.83,0.93-2.25,0.569-2.37c-0.24-0.09-1.771-0.84-3.42-1.648   c-6.33-3.182-10.29-8.972-10.892-15.962c-0.238-2.818,0.271-5.13,1.892-8.488c2.46-5.102,7.05-9.062,12.688-10.921   c2.552-0.841,3.271-0.959,6.48-0.959c3.27-0.03,3.75,0.028,5.25,0.75c1.5,0.688,4.5,3.33,4.5,3.93c0,0.12,0.24,0.24,0.57,0.24   c0.42,0,0.96-0.87,2.279-3.78c1.381-3.09,2.851-7.47,2.851-8.521c0-0.118-1.05-0.39-2.31-0.568c-3.451-0.54-5.342-1.142-6.422-2.04   c-1.02-0.87-2.039-2.82-2.068-3.93c0-1.021-0.69-0.78-1.352,0.448c-0.84,1.562-4.229,4.86-6.18,6.03   c-2.91,1.71-4.92,2.28-7.92,2.31c-3.21,0-4.74-0.63-6.15-2.579c-1.5-2.069-1.949-3.899-1.949-7.771c0-2.76,0.149-3.9,0.721-5.7   c1.199-3.87,2.279-5.609,5.25-8.55c4.109-4.08,8.039-5.79,12.449-5.49c4.529,0.33,6.811,3.062,7.17,8.552   c0.091,1.56,0.271,2.488,0.479,2.459c0.42-0.029,4.08-5.609,4.08-6.239c0-0.66-1.8-4.41-3.09-6.42   c-3.511-5.49-10.08-11.04-18.271-15.45c-5.221-2.82-15.631-6.96-17.49-6.96c-0.779,0-0.811,0.06-0.659,1.05   c0.21,1.26-0.302,2.88-1.472,4.62c-0.75,1.14-0.778,1.35-0.448,2.399c0.27,0.989,0.21,1.591-0.421,4.051   c-0.391,1.619-1.079,3.66-1.5,4.59l-0.75,1.649v23.46c0,12.869-0.119,23.609-0.271,23.819c-0.12,0.194-0.378,0.304-0.63,0.31   v64.108c1.369,0.045,2.852,0.331,3.99,0.803c3.869,1.681,5.279,5.671,5.31,15.271c0,10.56-1.29,17.04-4.05,20.34   c-1.08,1.26-3.51,2.43-5.07,2.43c-0.062,0-0.119-0.008-0.18-0.009v18.611c3.262,0.024,6.532,0.696,10.29,2.008   c4.11,1.41,7.11,2.94,11.61,5.91c6.06,3.99,8.938,6.75,10.77,10.26c0.54,1.021,1.26,1.62,4.02,3.3   c4.86,2.972,10.382,6.69,12.932,8.79c1.229,1.021,2.398,1.83,2.609,1.83c0.239,0,0.301-0.33,0.149-1.14   c-0.75-4.471-0.33-7.44,1.65-11.4c0.72-1.41,1.14-2.58,0.989-2.729c-0.149-0.12-0.869-0.392-1.619-0.602   c-6.66-1.8-15.87-6.449-20.761-10.438c-2.461-2.011-3.841-4.38-3.211-5.552c0.511-0.959,0.841-1.14,2.25-1.14   c1.802,0,3.48,0.63,10.472,3.96c17.729,8.43,21.39,10.44,22.47,12.271c0.659,1.14,0.6,1.68-0.3,2.52c-1.44,1.32-0.54,2.58,2.31,3.3   l0.75,0.182l0.511-4.74c0.299-2.61,0.601-5.16,0.689-5.67c0.18-0.9,0.15-0.931-1.891-1.47c-6.869-1.83-14.819-5.312-20.011-8.762   c-10.83-7.199-17.1-18.658-14.159-25.89c2.489-6.09,9.181-11.97,15.569-13.68c1.92-0.511,8.851-0.54,12.66-0.091   c1.5,0.181,3.99,0.659,5.55,1.051c1.561,0.39,2.971,0.72,3.12,0.72c0.12,0,0.18-0.39,0.09-0.84c-0.63-3.15,2.7-10.05,7.95-16.44   C619.41,523.29,619.92,522.3,619.141,522.3z" style="stroke:black;fill:#BFDAE3"/><path id="180623552" parent_id="180608862" order="45" structure_id="1" d="M586.35,392.28   c-0.99,0.239-2.818,0.93-4.05,1.56c-1.89,0.93-2.489,1.41-3.69,3.062c-1.738,2.34-3.959,6.72-4.229,8.278   c-0.21,1.17-0.18,1.2,2.762,4.17c3.118,3.15,6.09,7.29,7.26,10.17c0.39,0.932,0.81,1.682,0.93,1.682c0.09,0,1.26-1.08,2.58-2.37   c1.949-1.95,2.64-2.46,3.99-2.851c2.01-0.601,3-0.601,5.188-0.029c1.771,0.45,6.931,2.91,7.261,3.45c0.09,0.148,0.42,0.3,0.721,0.3   c0.688,0,2.22-3.21,2.85-6c2.07-8.7-2.82-18.12-10.89-21.09C594.811,391.8,589.02,391.62,586.35,392.28z" style="stroke:black;fill:#BFDAE3"/><path id="180623552" parent_id="180608862" order="46" structure_id="1" d="M695.52,513.33   c-9.6,5.76-20.31,13.14-28.47,19.62c-9.898,7.89-14.939,11.7-19.648,14.88c-8.791,5.91-25.291,18.87-27.212,21.33   c-2.788,3.66-4.379,7.59-4.738,11.85l-0.21,2.43l2.489-0.06c1.38,0,3.209,0.06,4.021,0.181l1.5,0.239l1.8-2.79   c4.471-6.869,10.471-13.949,14.67-17.278c1.021-0.812,5.28-3.541,9.48-6.03c8.37-5.011,14.158-8.82,17.85-11.79   c1.32-1.08,5.102-4.74,8.4-8.16c3.3-3.45,8.13-8.188,10.71-10.561c2.85-2.609,6.42-6.3,8.91-9.239   c2.31-2.67,4.739-5.311,5.398-5.852c1.32-1.02,1.591-1.8,0.66-1.8C700.83,510.3,698.28,511.65,695.52,513.33z" style="stroke:black;fill:#BFDAE3"/><path id="180623552" parent_id="180608862" order="47" structure_id="1" d="M761.311,473.43   c-2.521,2.551-7.681,6.54-11.371,8.82c-1.408,0.87-2.34,1.62-2.31,1.92c0,0.27,0.57,0.9,1.261,1.38   c0.689,0.511,1.799,1.71,2.459,2.7c3.062,4.53,3.602,10.59,1.65,17.939c-1.2,4.5-0.57,4.291,2.85-0.899   c2.58-3.93,7.682-10.89,9.87-13.44c0.69-0.81,1.38-2.25,2.102-4.409c1.05-3.149,4.288-10.891,5.55-13.351   c1.2-2.37,0.689-2.82-1.229-1.17c-2.58,2.22-4.83,2.61-6.271,1.05c-0.45-0.479-1.021-1.38-1.229-1.95   c-0.182-0.568-0.512-1.02-0.69-0.988C763.8,471.03,762.6,472.11,761.311,473.43z" style="stroke:black;fill:#BFDAE3"/><path id="180623552" parent_id="180608862" order="48" structure_id="1" d="M656.7,314.4   c-3.63,0.448-8.4,1.438-11.58,2.369c-1.65,0.511-7.56,2.131-13.17,3.631c-16.2,4.35-34.261,9.539-37.261,10.68   c-1.681,0.66-2.789,1.26-2.789,1.5s0.27,0.42,0.6,0.42s8.1-1.14,17.22-2.55c20.25-3.09,21.36-3.24,34.562-4.352   c10.68-0.898,17.13-1.288,30.42-1.77c5.068-0.21,9.18-0.54,13.199-1.11c4.979-0.688,6.899-0.81,13.051-0.84   c8.46-0.03,9.96,0.15,26.25,3.45c17.1,3.45,21.84,4.74,27.479,7.47c3.78,1.83,5.971,3.57,9.99,7.891   c9.24,9.931,15.689,20.461,18.3,29.91c1.23,4.409,3.812,19.17,5.25,30c1.5,11.159,1.771,15.181,1.562,23.25   c-0.182,8.461-0.36,9.721-2.58,18.301c-1.53,6-1.561,6.028-6.03,15.238c-7.2,14.73-9.688,20.19-12.15,26.551   c-2.129,5.431-1.739,5.851,1.712,1.921c7.229-8.19,11.459-14.91,15.719-24.841c3.031-7.051,4.621-13.051,5.91-22.619   c0.601-4.44,0.689-6.15,0.659-16.801c0-12.689-0.239-16.261-1.8-26.399c-3.78-24.511-12.3-44.94-23.79-57.062   c-4.38-4.59-14.399-12.84-15.66-12.84c-0.27,0-0.688,0.21-0.898,0.512c-0.66,0.778-2.7,1.59-4.08,1.59   c-1.8,0-6.45-1.051-23.04-5.222c-8.07-2.04-16.26-3.96-18.15-4.229c-2.58-0.39-6.66-0.57-16.05-0.75   c-6.93-0.15-13.47-0.39-14.55-0.57c-3.51-0.569-6.24-1.2-8.46-1.979C664.02,314.25,660.3,313.98,656.7,314.4z" style="stroke:black;fill:#BFDAE3"/><path id="180623552" parent_id="180608862" order="49" structure_id="1" d="M542.67,400.02c-0.395-0.359-1.54-0.594-2.67-0.645v59.323c0.011,0,0.02,0.003,0.03,0.003h0.87v-23.641   c0-19.681,0.06-23.881,0.42-25.109C543.6,402.12,543.75,401.01,542.67,400.02z" style="stroke:black;fill:#BFDAE3"/><path id="180623552" parent_id="180608862" order="50" structure_id="1" d="M582.3,605.34c-15-9.84-22.77-13.17-34.26-14.79c-1.938-0.267-4.997-0.399-8.04-0.403v49.629   c7.641-0.01,15.395-1.207,26.25-3.654c19.891-4.47,28.8-7.92,30.72-11.91C599.311,619.38,594.72,613.439,582.3,605.34z    M552.09,603.6c-2.729-1.648-2.43-5.789,0.51-7.26c1.261-0.66,1.892-0.66,2.94-0.12c1.41,0.75,2.22,1.86,2.37,3.3   C558.33,603.09,555.03,605.4,552.09,603.6z M565.83,618.57c-1.41,2.76-4.29,3.21-6.36,0.99c-1.739-1.86-1.92-4.262-0.479-6.392   c1.319-1.979,3.569-2.49,5.278-1.229C566.34,613.47,567,616.26,565.83,618.57z" style="stroke:black;fill:#BFDAE3"/><path id="180623552" parent_id="180608862" order="51" structure_id="1" d="M929.85,591.061   c-3.148,5.789-8.608,13.561-15.81,22.5c-5.64,7.021-8.82,10.141-13.649,13.409c-5.551,3.72-16.5,7.92-21.721,8.341   c-4.8,0.359-8.279-1.229-11.43-5.279c-2.46-3.15-6.271-6.9-7.891-7.771c-1.289-0.688-1.859-0.81-4.199-0.81   c-3.42,0-5.16,0.75-8.07,3.479c-2.73,2.552-4.141,4.682-6.15,9.392c-1.92,4.438-2.97,6.119-5.55,8.85   c-3.03,3.15-9.69,8.1-13.53,10.02c-2.49,1.23-6.869,2.672-10.199,3.33c-11.311,2.25-28.439,1.98-40.801-0.6   c-9.6-2.04-19.56-6.12-24-9.84c-2.699-2.22-2.85-4.05-0.568-6.48c1.26-1.35,1.648-2.1,1.05-2.1c-0.15,0-1.59,0.36-3.24,0.811   c-3.989,1.109-9.21,1.17-12.899,0.149c-4.979-1.35-11.101-4.41-14.011-7.021c-1.858-1.649-3.18-4.021-3.18-5.67v-1.141l-1.71,0.061   c-0.96,0.029-2.311-0.061-3-0.181c-0.96-0.21-1.29-0.18-1.29,0.09c0,0.212,0.688,1.802,1.53,3.54c1.35,2.79,1.859,3.48,4.408,6.062   c3.75,3.78,7.682,6.359,15.66,10.26c3.392,1.65,9.812,4.8,14.25,6.99c12.33,6.09,18.69,8.43,28.5,10.438   c7.562,1.592,10.711,1.86,20.7,1.86c10.08-0.03,12.63-0.24,21.3-1.95c12.15-2.398,23.94-6.689,31.142-11.31   c6.81-4.38,11.22-5.16,23.608-4.142c11.58,0.961,14.82-0.18,30.57-10.648c9-6,12.3-8.61,17.76-14.07   c4.62-4.648,7.32-7.95,11.04-13.53c3.812-5.67,9.33-15.33,9.33-16.289c0-0.45-5.37-3.511-6.12-3.511   C931.5,588.3,930.689,589.53,929.85,591.061z" style="stroke:black;fill:#BFDAE3"/><path id="180623552" parent_id="180608862" order="52" structure_id="1" d="M733.05,490.71   c-0.479,0.271-2.43,1.14-4.35,1.979c-12.36,5.341-27.33,8.971-38.7,9.421l-4.65,0.18l-1.47,1.62   c-1.739,1.95-6.51,5.52-22.229,16.74c-12.899,9.238-20.189,14.13-27.899,18.75c-2.79,1.68-5.16,3.238-5.22,3.51   c-0.12,0.54-0.062,0.54,5.76-0.48c9.42-1.648,17.068-1.29,17.76,0.87c0.092,0.33,0.36,0.602,0.602,0.602   c0.449,0,5.31-3.69,15.148-11.521c9.932-7.92,31.41-22.08,33.48-22.08c0.39,0,0.72-0.18,0.72-0.39c0-0.33,14.91-8.01,15.57-8.01   c0.148,0,1.02-0.45,1.979-1.021c0.931-0.568,3.81-1.89,6.39-2.91c2.61-1.02,5.16-2.188,5.73-2.608c0.99-0.75,3.33-4.08,3.33-4.8   C735,490.05,734.13,490.11,733.05,490.71z" style="stroke:black;fill:#BFDAE3"/><path id="180623552" parent_id="180608862" order="53" structure_id="1" d="M848.1,578.91   c-16.38,10.26-33.688,17.43-60.3,24.99c-24.54,6.988-36.33,10.858-46.26,15.21c-2.25,0.96-3.84,1.829-3.84,2.068   c0,0.24,0.21,0.42,0.479,0.42c0.24,0,3.57-1.08,7.41-2.43c9.84-3.45,9.722-3.39,27.812-8.55c22.08-6.3,30.119-8.971,47.34-15.78   c5.34-2.1,7.8-2.938,8.31-2.82c0.54,0.15,1.29-0.209,3.15-1.47c1.319-0.898,2.64-1.648,2.88-1.648c0.27,0,0.689-0.24,0.96-0.54   c0.899-0.99,9.09-5.82,11.28-6.66c1.648-0.63,2.16-0.96,2.22-1.47c0.06-0.36,0.42-0.812,0.84-0.99c0.78-0.36,1.05-1.74,0.33-1.74   C850.5,577.5,849.33,578.13,848.1,578.91z" style="stroke:black;fill:#BFDAE3"/><path id="180623552" parent_id="180608862" order="54" structure_id="1" d="M560.7,611.61   c-1.23,0.63-2.31,2.13-2.58,3.568c-0.3,1.65,0.12,3.091,1.35,4.381c2.07,2.221,4.95,1.771,6.36-0.989   C567.811,614.67,564.21,609.811,560.7,611.61z" style="stroke:black;fill:#BFDAE3"/><path id="180623552" parent_id="180608862" order="55" structure_id="1" d="M894.6,378.9C890.7,348.18,884.4,322.89,876.15,305.16c-3.062-6.6-7.892-14.97-13.23-23.01   c-11.52-17.28-23.67-28.02-50.22-44.4c-20.101-12.39-41.19-22.77-60-29.43c-18.78-6.69-44.46-12.03-68.88-14.34   c-8.67-0.81-12.721-0.93-14.4-0.39c-4.5,1.47-11.85,2.1-23.67,2.07c-6.54-0.03-10.32,0.09-12.78,0.39   c-10.319,1.29-19.17,5.88-27.6,14.25c-3.66,3.66-6.15,6.6-11.34,13.5c-7.98,10.562-13.65,16.83-18.78,20.7   c-3.6,2.73-5.939,3.96-10.23,5.37c-1.948,0.66-4.47,1.53-5.58,1.95c-4.799,1.83-11.608,3.148-17.488,3.39   c-0.663,0.026-1.311,0.039-1.95,0.044v25.543c2.276-0.031,6.937-0.785,15.601-2.547c11.939-2.43,16.529-3.15,22.351-3.63   c15.36-1.2,21.18-3.36,33.3-12.42c6.51-4.86,12.45-10.95,15.03-15.36c0.51-0.87,2.398-4.35,4.17-7.74   c6.72-12.75,12.81-20.22,18.84-23.04c6.36-3.03,16.47-5.79,26.01-7.11c5.37-0.78,16.86-0.93,22.44-0.33   c15.3,1.65,39.449,7.74,56.91,14.34c19.5,7.38,43.438,19.29,57.3,28.53c15.81,10.56,31.02,27.3,40.979,45.06   c7.44,13.352,13.86,32.4,18.57,55.11c2.188,10.68,3.93,16.32,9.149,29.79c3.899,10.109,5.729,16.438,7.171,24.75   c1.229,7.2,1.409,11.58,1.319,30.239c-0.061,11.341,0.029,20.011,0.299,25.109c0.48,9.84,0.541,30.271,0.062,35.25   c-0.63,6.96-3.45,20.88-5.88,29.37c-2.07,7.142-6.9,19.351-10.471,26.49c-5.101,10.14-11.909,17.938-20.76,23.79   c-1.351,0.87-1.681,1.648-0.75,1.648c1.439,0,9.539-6.42,12.869-10.199c6.18-6.989,13.41-19.109,17.49-29.369   c3.45-8.67,7.02-21.15,8.97-31.23c1.171-6.148,1.47-9.029,1.681-17.1c0.301-11.34,1.141-21.96,2.729-33.9   C898.53,432.45,898.26,408.12,894.6,378.9z" style="stroke:black;fill:#BFDAE3"/><path id="180623552" parent_id="180608862" order="56" structure_id="1" d="M670.5,460.65c-2.1,0.6-3.96,1.83-7.35,4.92   c-4.86,4.41-9.66,10.14-11.82,14.188c-1.53,2.852-2.73,6.96-2.73,9.392c0,1.71,0.09,1.979,0.78,2.52c0.75,0.57,1.2,0.63,5.64,0.63   c6.78,0,8.432-0.39,18.932-4.59c16.05-6.39,27.84-10.53,36.988-12.96c3.271-0.9,4.262-1.29,4.262-1.65   c0-0.988-26.94-9.96-36.45-12.148C675.6,460.23,672.45,460.11,670.5,460.65z" style="stroke:black;fill:#BFDAE3"/><path id="180623552" parent_id="180608862" order="57" structure_id="1" d="M677.85,448.35   c-3.568,0.66-4.17,1.08-5.789,4.17c-0.811,1.5-2.279,4.052-3.301,5.7c-1.02,1.62-1.859,3.062-1.859,3.21   c0,0.42,0.631,0.33,2.551-0.479c2.79-1.141,5.609-1.05,11.31,0.42c7.802,2.01,23.37,7.02,33.03,10.648l2.97,1.11l6.181-1.5   c3.42-0.81,7.351-1.71,8.761-1.979c1.89-0.392,2.76-0.722,3.39-1.29c1.41-1.352,1.141-1.562-2.1-1.562   c-12.18,0-21.062-4.47-25.892-12.96l-1.079-1.859l-2.521-0.811C694.71,448.38,684.061,447.21,677.85,448.35z" style="stroke:black;fill:#BFDAE3"/><path id="180623552" parent_id="180608862" order="58" structure_id="1" d="M734.7,408.15   c-9.48,1.17-16.56,4.14-22.08,9.238c-3.42,3.182-3.3,2.7-3.69,12.36c-0.42,10.438-0.779,12.78-2.279,14.97   c-0.42,0.602-0.75,1.38-0.75,1.71c0,0.69,1.709,4.23,2.851,5.91c1.05,1.53,3.93,4.44,5.49,5.521c7.409,5.13,19.8,5.43,26.85,0.659   c6.84-4.591,11.04-12.359,13.86-25.619c1.56-7.41,1.29-12-1.051-16.74c-1.529-3.062-4.199-6.03-6.391-7.08   C744.66,407.7,740.7,407.43,734.7,408.15z" style="stroke:black;fill:#BFDAE3"/><path id="180623552" parent_id="180608862" order="59" structure_id="1" d="M682.891,348.66   c1.141,6.479,1.439,8.64,1.829,13.14c0.75,8.37,1.05,15.09,1.38,30c0.33,15.33,0.12,21.24-0.93,27.3   c-1.17,6.84-3.39,13.381-6.42,18.87c-0.689,1.261-1.35,2.61-1.47,3.03c-0.15,0.42-0.9,2.34-1.74,4.29s-1.41,3.63-1.32,3.72   c0.091,0.09,0.87-0.029,1.74-0.3c2.46-0.78,6.99-1.2,10.32-0.99c3.898,0.21,10.35,1.41,15.21,2.761   c2.1,0.601,3.93,0.989,4.02,0.899c0.12-0.09-0.029-0.899-0.3-1.77c-0.271-0.841-0.569-2.102-0.69-2.762   c-0.118-0.659-0.479-1.59-0.81-2.038c-1.649-2.371-2.67-8.94-2.7-17.16c-0.029-4.262,0.12-6.36,0.51-8.37   c1.472-7.47,5.972-19.021,8.58-21.932c0.42-0.51,1.17-1.829,1.65-2.97c1.68-4.05,5.1-8.49,8.34-10.83   c0.93-0.66,1.68-1.35,1.711-1.56c0-0.69-5.069-5.431-17.94-16.681c-7.17-6.271-14.31-12.631-15.899-14.159   c-2.97-2.82-3.84-3.45-4.74-3.45C682.83,347.7,682.74,347.88,682.891,348.66z" style="stroke:black;fill:#BFDAE3"/><path id="180623552" parent_id="180608862" order="60" structure_id="1" d="M702.391,510.689   c-1.171,0.631-4.171,3.689-7.681,7.801c-1.89,2.188-6.18,6.54-9.51,9.66c-3.33,3.09-7.86,7.619-10.08,10.02   c-6.78,7.38-11.431,10.92-25.11,19.11c-9.24,5.52-11.49,7.17-15.18,11.1c-3.66,3.9-11.13,14.04-11.13,15.09   c0,0.21,0.239,0.72,0.54,1.17c0.3,0.45,1.08,1.62,1.74,2.58c2.129,3.24,6.028,5.88,10.92,7.44c2.039,0.63,2.789,0.688,7.8,0.688   c6-0.028,7.47-0.27,14.398-2.31c8.972-2.641,16.98-7.352,26.041-15.33c6.931-6.12,20.311-20.25,28.649-30.3   c8.068-9.69,15.21-19.92,15.21-21.75c0-0.99-2.28-4.11-4.892-6.69c-5.25-5.158-12.869-8.699-18.778-8.67   C704.07,510.33,702.75,510.48,702.391,510.689z" style="stroke:black;fill:#BFDAE3"/><path id="180623552" parent_id="180608862" order="61" structure_id="1" d="M750.9,456.57   c-4.59,2.01-8.67,4.949-14.312,10.318c-9.75,9.301-18.149,14.82-30.028,19.83c-4.23,1.771-12.062,4.53-15.42,5.432l-2.041,0.539   l0.181,1.08c0.21,1.351-0.36,2.939-1.95,5.579c-1.859,3.062-1.95,2.972,3.061,2.762c13.049-0.57,32.521-5.94,43.979-12.092   c1.08-0.568,4.08-2.01,6.63-3.148c5.49-2.49,9.63-4.89,14.189-8.311c3.181-2.37,8.609-7.381,8.609-7.949   c0-0.15-0.689-0.87-1.529-1.65c-3.75-3.36-8.069-9.96-8.069-12.3C754.2,455.43,753.57,455.4,750.9,456.57z" style="stroke:black;fill:#BFDAE3"/><path id="180623552" parent_id="180608862" order="62" structure_id="1" d="M761.311,473.43   c-2.521,2.551-7.681,6.54-11.371,8.82c-1.408,0.87-2.34,1.62-2.31,1.92c0,0.27,0.57,0.9,1.261,1.38   c0.689,0.511,1.799,1.71,2.459,2.7c3.062,4.53,3.602,10.59,1.65,17.939c-1.2,4.5-0.57,4.291,2.85-0.899   c2.58-3.93,7.682-10.89,9.87-13.44c0.69-0.81,1.38-2.25,2.102-4.409c1.05-3.149,4.288-10.891,5.55-13.351   c1.2-2.37,0.689-2.82-1.229-1.17c-2.58,2.22-4.83,2.61-6.271,1.05c-0.45-0.479-1.021-1.38-1.229-1.95   c-0.182-0.568-0.512-1.02-0.69-0.988C763.8,471.03,762.6,472.11,761.311,473.43z" style="stroke:black;fill:#BFDAE3"/><path id="180623552" parent_id="180608862" order="63" structure_id="1" d="M761.311,473.43   c-2.521,2.551-7.681,6.54-11.371,8.82c-1.408,0.87-2.34,1.62-2.31,1.92c0,0.27,0.57,0.9,1.261,1.38   c0.689,0.511,1.799,1.71,2.459,2.7c3.062,4.53,3.602,10.59,1.65,17.939c-1.2,4.5-0.57,4.291,2.85-0.899   c2.58-3.93,7.682-10.89,9.87-13.44c0.69-0.81,1.38-2.25,2.102-4.409c1.05-3.149,4.288-10.891,5.55-13.351   c1.2-2.37,0.689-2.82-1.229-1.17c-2.58,2.22-4.83,2.61-6.271,1.05c-0.45-0.479-1.021-1.38-1.229-1.95   c-0.182-0.568-0.512-1.02-0.69-0.988C763.8,471.03,762.6,472.11,761.311,473.43z" style="stroke:black;fill:#BFDAE3"/><path id="180623552" parent_id="180608862" order="64" structure_id="1" d="M834.061,472.2   c-2.819,0.688-4.83,3.3-7.229,9.39c-1.32,3.33-2.61,5.82-6.21,11.82c-3.57,6.09-5.61,10.02-10.71,20.64   c-7.021,14.761-8.13,17.94-7.95,22.8c0.12,2.79,0.75,4.65,1.561,4.65c0.239,0,0.479,0.27,0.569,0.6   c0.181,0.722,1.892,1.5,3.271,1.5c6.721-0.028,18.271-9.75,26.729-22.5c2.642-4.02,6.479-11.789,7.86-16.02   c4.38-13.26,4.02-25.95-0.811-30.811C839.4,472.561,836.28,471.63,834.061,472.2z" style="stroke:black;fill:#BFDAE3"/><path id="180623552" parent_id="180608862" order="65" structure_id="1" d="M571.439,596.37c-2.039-2.82-5.311-5.55-10.771-9.03c-7.265-4.609-14.315-7.002-20.67-7.059v9.563   c0.705,0.002,1.406,0.015,2.101,0.044c9.211,0.422,19.109,3.092,26.909,7.29C572.609,599.1,573.27,598.89,571.439,596.37z" style="stroke:black;fill:#BFDAE3"/><path id="180623552" parent_id="180608862" order="66" structure_id="1" d="M766.35,591.72   c-13.38,4.65-20.398,7.47-28.8,11.55c-12.33,5.972-20.729,12.12-22.29,16.262c-2.13,5.79-1.41,9.27,2.551,12.39   c1.681,1.32,4.83,3.18,5.399,3.18c0.149,0,0.45-0.898,0.66-2.01c0.899-4.858,2.28-7.17,7.26-12.09   c6.69-6.63,12.479-9.93,24.72-14.101c3.961-1.351,13.291-4.801,20.7-7.649c7.44-2.851,14.61-5.55,15.96-6.03   c1.381-0.479,2.49-1.02,2.49-1.2c0-0.238-1.47-0.358-4.71-0.358c-4.92-0.03-9.931-0.57-14.76-1.562   c-1.562-0.33-2.852-0.6-2.852-0.568C772.65,589.53,769.83,590.52,766.35,591.72z" style="stroke:black;fill:#BFDAE3"/><path id="180623552" parent_id="180608862" order="67" structure_id="1" d="M823.5,593.73   c-15.18,6.238-27.72,10.5-49.2,16.618c-9.479,2.7-18.27,5.25-19.5,5.671c-4.739,1.529-20.37,7.109-22.8,8.131   c-1.83,0.75-2.82,1.02-3.51,0.898c-0.812-0.148-1.051-0.03-1.68,0.811c-1.562,2.069-2.312,4.2-3.062,8.431l-0.18,1.14l2.31,1.051   c1.262,0.601,3.602,1.409,5.19,1.83c2.579,0.659,3.3,0.721,7.079,0.601c6.391-0.21,8.25-0.87,26.101-9.062   c12.358-5.698,15.3-6.869,23.67-9.63c8.972-2.938,14.28-4.29,17.37-4.438c2.67-0.12,3.54-0.301,9.21-1.892   c4.5-1.26,11.399-3.93,11.399-4.438c0-0.182-0.689-0.66-1.5-1.021c-2.489-1.108-4.199-3.33-4.199-5.369   c0-2.011,3.3-6.181,7.17-9.061c0.988-0.75,1.8-1.53,1.83-1.74C829.2,591.6,827.91,591.93,823.5,593.73z" style="stroke:black;fill:#BFDAE3"/><path id="180623552" parent_id="180608862" order="68" structure_id="1" d="M802.8,616.11   c-3.78,0.63-18.03,5.04-24.3,7.5c-3.21,1.26-22.68,10.05-26.91,12.148c-2.25,1.11-5.07,3.33-6,4.71c-0.81,1.17-0.87,2.67-0.24,3.96   c0.69,1.32,3.69,3.392,7.98,5.49c7.529,3.72,17.311,6.36,27.57,7.41c5.039,0.54,20.49,0.54,24.6,0.03   c10.71-1.352,15.689-3.182,22.8-8.37c3.69-2.67,4.14-3.091,4.95-4.74c0.72-1.47,0.87-2.13,0.87-3.93c0-1.92-0.12-2.4-1.229-4.65   c-2.761-5.46-11.011-13.05-18.091-16.62c-1.08-0.54-3.27-1.47-4.86-2.068C807.09,615.93,805.26,615.689,802.8,616.11z" style="stroke:black;fill:#BFDAE3"/><path id="180623552" parent_id="180608862" order="69" structure_id="1" d="M825.15,610.11   c-2.94,1.5-9.09,3.568-15.36,5.188c-1.59,0.391-1.649,0.99-0.149,1.44c1.891,0.569,7.709,3.54,10.049,5.13   c5.25,3.54,11.521,10.109,13.5,14.13c0.871,1.8,0.962,2.188,0.962,4.86c-0.03,1.949,0.09,2.938,0.3,2.938   c0.39,0,1.68-1.35,3.09-3.18c0.87-1.17,1.5-2.37,4.352-8.58c2.129-4.62,5.1-7.92,8.789-9.72c1.979-0.99,2.489-1.11,4.471-1.11   c1.5,0,2.25-0.12,2.25-0.36c0-0.42-3.33-2.278-10.051-5.64c-8.971-4.44-11.91-5.399-17.699-5.7   C826.859,609.36,826.561,609.39,825.15,610.11z" style="stroke:black;fill:#BFDAE3"/><path id="180623552" parent_id="180608862" order="70" structure_id="1" d="M922.95,586.68   c-3.181,0.45-5.55,0.932-11.55,2.25c-9.392,2.102-14.222,2.94-18.78,3.24c-8.67,0.6-25.14-0.9-33.36-3   c-2.91-0.72-2.938-0.72-6.21,0.33c-6.21,1.98-12.3,2.67-14.67,1.68c-0.63-0.27-1.53-0.898-2.01-1.41   c-0.66-0.72-1.05-0.898-1.59-0.75c-1.23,0.302-7.98,5.312-10.562,7.83c-2.79,2.73-3.72,4.32-3.72,6.302   c0,1.59,0.479,2.64,1.71,3.81c1.439,1.38,3.391,2.04,7.05,2.37c4.98,0.42,6.66,0.78,10.142,2.13c4.08,1.59,15.358,7.32,18.539,9.42   c2.91,1.98,6.149,5.04,8.729,8.37c3.688,4.771,6.271,6,11.851,5.79c3-0.12,3.75-0.271,7.5-1.561   c13.199-4.5,18.899-8.579,28.109-20.131c7.439-9.33,11.729-15.358,14.97-21.09c1.86-3.27,1.83-4.02-0.06-4.949   C927.93,586.77,924.689,586.439,922.95,586.68z" style="stroke:black;fill:#BFDAE3"/><path id="180623552" parent_id="180608862" order="71" structure_id="1" d="M892.2,500.97   c0,1.62-2.521,13.23-4.261,19.771c-0.721,2.729-1.109,4.68-0.959,4.83c0.3,0.3,66.66,18.028,67.41,18.028   c0.328,0,0.538-0.39,0.658-1.289c0.602-4.291,0.811-8.041,0.96-16.891c0.181-9.57,0.15-9.96-0.39-10.14   c-0.96-0.271-62.82-14.58-63.15-14.58C892.32,500.7,892.2,500.82,892.2,500.97z" style="stroke:black;fill:#BFDAE3"/><path id="180623552" parent_id="180608862" order="72" structure_id="1" d="M894.18,468.061   c-0.449,2.101-1.26,16.289-1.5,26.341l-0.148,6.148l31.56,7.29c17.37,4.021,31.681,7.29,31.83,7.26c0.33,0-0.061-4.528-0.75-8.398   c-0.3-1.74-1.38-6.391-2.37-10.352c-2.609-10.198-2.52-10.83,2.131-17.34c1.17-1.62,2.069-3.09,1.979-3.3   c-0.09-0.33-58.86-8.25-61.472-8.31C894.51,467.4,894.3,467.52,894.18,468.061z" style="stroke:black;fill:#BFDAE3"/><path id="180623552" parent_id="180608862" order="73" structure_id="1" d="M896.91,443.91   c-0.12,1.62-0.78,7.41-1.44,12.9c-0.688,5.488-1.2,10.05-1.14,10.108c0.15,0.15,61.98,8.28,62.85,8.28c1.2,0,7.381-9.21,10.86-16.2   c2.25-4.5,4.26-9.688,3.93-10.05c-0.149-0.12-73.35-7.95-74.55-7.95C897.21,441,897.03,442.11,896.91,443.91z" style="stroke:black;fill:#BFDAE3"/><path id="180623552" parent_id="180608862" order="74" structure_id="1" d="M936.45,414.39   c-21.271,0.66-38.73,1.23-38.73,1.23c-0.03,0.03-0.09,5.7-0.148,12.63l-0.12,12.57l36.3,3.84c19.979,2.1,36.84,3.81,37.5,3.75   l1.2-0.062l1.439-5.25c2.101-7.77,5.609-25.948,5.609-29.188c0-0.812,0-0.812-2.16-0.78   C976.141,413.16,957.75,413.73,936.45,414.39z" style="stroke:black;fill:#BFDAE3"/><path id="180623552" parent_id="180608862" order="75" structure_id="1" d="M735.6,299.88c-0.63,1.62,0.12,3.03,3.15,5.97   c1.53,1.47,3.811,3.9,5.04,5.4c1.229,1.47,2.819,3.24,3.51,3.9c1.5,1.438,2.101,2.52,2.101,3.72c0,0.51,0.33,1.41,0.75,2.01   c0.421,0.63,0.959,1.83,1.229,2.67c0.42,1.47,0.601,1.71,3.66,3.96c12.3,9.09,18.601,16.53,24.99,29.46   c8.729,17.67,13.59,40.95,13.59,65.13c0,19.5-2.521,31.262-9.75,45.602c-3.96,7.859-7.5,12.87-15.06,21.239   c-6.15,6.779-9.182,11.011-20.16,27.961c-5.25,8.13-8.312,12.51-14.222,20.398c-9.93,13.261-25.71,33.3-33.148,42.12   c-4.89,5.79-6.181,8.521-6.181,13.08c0,2.25,0.029,2.311,1.141,3.391c1.14,1.141,1.859,1.409,1.859,0.75   c0-0.211-0.24-1.409-0.511-2.7c-0.54-2.609-0.3-3.841,0.812-3.841c0.72,0,1.26,0.961,2.039,3.932c0.359,1.229,1.17,3.39,1.83,4.77   c0.779,1.562,1.17,2.73,1.051,3.15c-0.301,1.26,2.34,1.83,3.358,0.72c0.54-0.6,0.57-1.17,0.57-7.95c0-4.02-0.12-7.318-0.24-7.318   c-0.149,0-0.659,0.3-1.17,0.63c-0.81,0.6-0.93,0.6-1.35,0.18c-0.45-0.42-0.42-0.6,0.06-1.92c0.75-1.95,3.092-5.97,5.16-8.88   c2.521-3.48,6.72-8.43,20.46-24.18c14.79-16.95,17.67-20.312,25.562-29.73c21.119-25.229,35.938-44.34,41.039-52.859   c5.101-8.551,8.761-22.591,9.931-38.311c0.45-5.97,0.239-19.891-0.42-24.93c-1.83-14.49-5.671-26.102-13.95-42.15   c-4.08-7.89-13.109-23.85-15.6-27.57c-4.08-6.06-8.82-11.64-15.812-18.539c-6.149-6.061-13.02-11.729-20.04-16.53   c-1.439-0.99-2.91-2.19-3.271-2.67C736.83,298.89,735.99,298.86,735.6,299.88z" style="stroke:black;fill:#BFDAE3"/><path id="180623552" parent_id="180608862" order="76" structure_id="1" d="M548.25,528.99c-0.689-2.34-2.16-4.29-3.84-5.16c-1.042-0.521-2.755-0.822-4.41-0.862v38.388   c4.427-0.061,7.121-3.358,8.4-10.404C549.42,545.4,549.33,532.53,548.25,528.99z" style="stroke:black;fill:#BFDAE3"/><path id="180623552" parent_id="180608862" order="77" structure_id="1" d="M780.811,410.46   c-2.641,2.88-6.121,8.91-7.83,13.74c-0.449,1.229-1.351,4.47-2.011,7.2c-0.659,2.698-1.53,6.09-1.979,7.5   c-1.892,6.238-6.302,16.68-9.271,22.08c-1.5,2.698-1.59,3.028-1.26,3.72c0.57,1.05,4.92,5.398,5.431,5.398   c0.449,0,4.049-5.938,7.141-11.85c1.979-3.78,4.14-8.76,4.89-11.312c0.931-3.27,2.939-14.188,4.83-26.34   c0.42-2.729,1.08-6.148,1.5-7.648c0.42-1.471,0.75-2.94,0.75-3.21C783,408.811,782.07,409.14,780.811,410.46z" style="stroke:black;fill:#BFDAE3"/><path id="180623552" parent_id="180608862" order="78" structure_id="1" d="M776.82,411.33c-3,1.56-4.65,2.7-5.7,3.93   c-1.08,1.29-2.851,5.102-5.851,12.602c-1.319,3.358-3.959,9.54-5.819,13.77c-5.46,12.271-5.97,14.55-4.11,18.21   c1.23,2.46,2.1,3.66,2.641,3.66c0.601,0,5.369-9.75,7.891-16.2c2.189-5.488,3.78-10.738,5.37-17.398   c1.438-6.182,4.438-12.87,7.71-17.25c0.75-0.99,1.35-1.95,1.35-2.16C780.3,409.8,779.189,410.07,776.82,411.33z" style="stroke:black;fill:#BFDAE3"/><path id="180623552" parent_id="180608862" order="79" structure_id="1" d="M785.85,407.34l-2.1,0.812l-0.99,3.448   c-0.54,1.892-1.17,4.65-1.41,6.15c-3.33,20.58-4.47,26.64-5.789,30.45c-1.529,4.47-4.739,10.95-9.091,18.36   c-1.14,1.92-2.068,3.81-2.068,4.17c0,1.948,2.01,4.17,3.75,4.17c1.618,0,4.108-1.771,6.3-4.5c2.068-2.552,10.38-19.74,11.52-23.762   c2.82-10.05,3.182-11.818,3.66-18.51c0.42-5.64-0.029-17.22-0.81-20.97C788.641,406.32,788.43,406.35,785.85,407.34z" style="stroke:black;fill:#BFDAE3"/><path id="180623552" parent_id="180608862" order="80" structure_id="1" d="M730.95,328.561   c1.77,20.819,3.42,32.25,6.659,46.439c2.939,12.96,5.551,19.53,9.871,24.75c2.608,3.15,8.67,7.2,12.209,8.13   c4.681,1.23,13.92-0.06,24.601-3.479l3.81-1.23v-1.2c0-4.199-4.229-27.87-5.88-32.97c-2.188-6.72-6.81-14.85-12.42-21.87   c-3.45-4.35-9.33-10.29-11.7-11.88c-4.5-3-10.77-5.1-22.77-7.62c-2.37-0.51-4.38-0.93-4.439-0.93   C730.83,326.7,730.859,327.54,730.95,328.561z" style="stroke:black;fill:#BFDAE3"/><path id="180623552" parent_id="180608862" order="81" structure_id="1" d="M938.01,375.75   c-23.58,2.04-42.9,3.75-42.99,3.84c-0.09,0.062,0.121,2.55,0.45,5.49c0.9,7.859,1.47,14.939,1.86,23.07   c0.18,3.96,0.359,7.229,0.39,7.26c0.091,0.12,81.75-2.46,81.87-2.61c0.15-0.148,0.57-3.42,1.11-8.55   c0.69-6.689,1.229-15.45,1.409-23.64l0.181-8.61l-0.72,0.03C981.18,372.061,961.561,373.71,938.01,375.75z" style="stroke:black;fill:#BFDAE3"/><path id="180623552" parent_id="180608862" order="82" structure_id="1" d="M919.439,290.79   c-24.84,9.6-41.939,16.38-41.939,16.59s0.811,2.37,1.77,4.83c6.42,16.11,12.271,40.89,15.062,63.66   c0.24,1.89,0.54,3.149,0.778,3.24c0.302,0.12,86.791-7.11,87.031-7.262c0.181-0.148-0.569-12.06-1.171-17.85   c-2.52-25.53-8.79-53.4-16.979-75.84c-1.17-3.15-1.44-3.66-2.011-3.63C961.65,274.56,942.48,281.85,919.439,290.79z" style="stroke:black;fill:#BFDAE3"/><path id="180623552" parent_id="180608862" order="83" structure_id="1" d="M896.189,249.84   c-20.34,14.31-36.959,26.19-36.959,26.37c-0.03,0.21,1.379,2.43,3.09,4.95c4.32,6.36,9.66,15.39,12.42,21   c1.26,2.58,2.46,4.71,2.609,4.71c0.181,0,19.26-7.32,42.449-16.29c34.682-13.38,42.182-16.38,42.24-16.86   c0.18-1.29-6.3-15.898-10.771-24.24c-4.619-8.58-8.278-14.34-13.648-21.51c-2.432-3.21-3.3-4.17-3.811-4.14   C933.45,223.83,916.83,235.32,896.189,249.84z" style="stroke:black;fill:#BFDAE3"/><path id="180623552" parent_id="180608862" order="84" structure_id="1" d="M750.061,123.06   c-1.951,7.83-18.061,78.12-18,78.48c0.061,0.33,1.59,0.87,5.189,1.86c18.51,5.07,38.4,13.35,58.05,24.15   c1.95,1.08,3.63,1.95,3.78,1.95c0.3,0,35.22-78.51,35.43-79.62c0.12-0.57-0.119-0.78-1.619-1.44c-0.961-0.42-3.631-1.62-5.939-2.64   c-16.86-7.5-36.391-14.07-58.801-19.8c-5.76-1.47-17.25-4.2-17.67-4.2C750.42,121.8,750.24,122.37,750.061,123.06z" style="stroke:black;fill:#BFDAE3"/><path id="180623552" parent_id="180608862" order="85" structure_id="1" d="M685.109,151.74   c-1.949,22.05-3.539,40.47-3.51,40.92c0,0.99,0,0.99,4.949,1.44c10.92,1.02,27,3.66,39.36,6.48c5.25,1.17,5.698,1.2,5.909,0.48   c0.391-1.23,18.181-78.36,18.181-78.78c0-0.24-0.09-0.51-0.21-0.57c-0.42-0.27-16.29-3.45-24.09-4.83   c-12.78-2.28-33.211-5.28-35.94-5.28h-1.108L685.109,151.74z" style="stroke:black;fill:#BFDAE3"/><path id="180623552" parent_id="180608862" order="86" structure_id="1" d="M633.51,129.93   c-0.119,12.45-0.24,30.72-0.27,40.62l-0.09,17.97l4.35,0.69c18.811,2.94,25.109,3.69,30.9,3.69c1.77,0,5.34,0.15,7.92,0.33   c2.608,0.18,4.77,0.27,4.83,0.21c0.148-0.15,7.38-81.9,7.26-82.02c-0.18-0.18-20.7-2.46-28.11-3.15   c-4.47-0.39-10.62-0.69-16.83-0.78l-9.78-0.18L633.51,129.93z" style="stroke:black;fill:#BFDAE3"/><path id="180623552" parent_id="180608862" order="87" structure_id="1" d="M628.2,107.58c-0.57,0.06-2.73,0.27-4.8,0.42   c-10.74,0.93-23.852,3.54-35.4,7.11c-8.01,2.46-13.95,5.22-20.01,9.3c-3.51,2.37-9.09,6.9-9.09,7.41   c0,0.54,44.369,60.03,44.85,60.12c0.27,0.06,0.87-0.24,1.41-0.69c1.29-1.11,4.5-2.67,7.14-3.51c1.95-0.602,2.82-0.69,6.45-0.66   c2.4,0.03,6.3,0.33,9.12,0.69c2.7,0.36,4.95,0.6,4.979,0.57c0.062-0.06,0.212-18.27,0.33-40.53l0.211-40.41l-2.069,0.06   C630.18,107.46,628.77,107.55,628.2,107.58z" style="stroke:black;fill:#BFDAE3"/><path id="180623552" parent_id="180608862" order="88" structure_id="1" d="M555.51,135.15   c-7.29,8.16-12.6,17.64-14.609,26.04c-0.569,2.37-0.601,3.63-0.601,34.14v31.68l5.04,0.18c16.29,0.63,34.32,0.51,37.141-0.27   c0.66-0.18,3.841-5.88,10.17-18.27c3.66-7.14,6.149-11.1,8.851-14.01c1.021-1.108,1.8-2.25,1.74-2.49   c-0.181-0.93-44.19-59.82-44.7-59.82C558.27,132.3,556.891,133.59,555.51,135.15z" style="stroke:black;fill:#BFDAE3"/><path id="180623552" parent_id="180608862" order="89" structure_id="1" d="M540.3,241.23v14.13l2.04-0.21   c1.891-0.21,2.1-0.33,3.57-1.68c2.55-2.398,4.02-2.61,5.189-0.72c0.359,0.57,0.811,1.05,0.989,1.05c0.84,0,6.271-1.62,8.761-2.61   c5.25-2.07,8.609-4.44,11.579-8.13c3.36-4.17,9.87-14.37,9.87-15.48c0-0.42-0.238-0.45-1.71-0.27c-2.188,0.3-35.55,0.27-38.25,0   l-2.04-0.24L540.3,241.23L540.3,241.23z" style="stroke:black;fill:#BFDAE3"/><path id="180623552" parent_id="180608862" order="90" structure_id="1" d="M894.6,378.9C890.7,348.18,884.4,322.89,876.15,305.16c-3.062-6.6-7.892-14.97-13.23-23.01   c-11.52-17.28-23.67-28.02-50.22-44.4c-20.101-12.39-41.19-22.77-60-29.43c-18.78-6.69-44.46-12.03-68.88-14.34   c-8.67-0.81-12.721-0.93-14.4-0.39c-4.5,1.47-11.85,2.1-23.67,2.07c-6.54-0.03-10.32,0.09-12.78,0.39   c-10.319,1.29-19.17,5.88-27.6,14.25c-3.66,3.66-6.15,6.6-11.34,13.5c-7.98,10.562-13.65,16.83-18.78,20.7   c-3.6,2.73-5.939,3.96-10.23,5.37c-1.948,0.66-4.47,1.53-5.58,1.95c-4.799,1.83-11.608,3.148-17.488,3.39   c-0.663,0.026-1.311,0.039-1.95,0.044v25.543c2.276-0.031,6.937-0.785,15.601-2.547c11.939-2.43,16.529-3.15,22.351-3.63   c15.36-1.2,21.18-3.36,33.3-12.42c6.51-4.86,12.45-10.95,15.03-15.36c0.51-0.87,2.398-4.35,4.17-7.74   c6.72-12.75,12.81-20.22,18.84-23.04c6.36-3.03,16.47-5.79,26.01-7.11c5.37-0.78,16.86-0.93,22.44-0.33   c15.3,1.65,39.449,7.74,56.91,14.34c19.5,7.38,43.438,19.29,57.3,28.53c15.81,10.56,31.02,27.3,40.979,45.06   c7.44,13.352,13.86,32.4,18.57,55.11c2.188,10.68,3.93,16.32,9.149,29.79c3.899,10.109,5.729,16.438,7.171,24.75   c1.229,7.2,1.409,11.58,1.319,30.239c-0.061,11.341,0.029,20.011,0.299,25.109c0.48,9.84,0.541,30.271,0.062,35.25   c-0.63,6.96-3.45,20.88-5.88,29.37c-2.07,7.142-6.9,19.351-10.471,26.49c-5.101,10.14-11.909,17.938-20.76,23.79   c-1.351,0.87-1.681,1.648-0.75,1.648c1.439,0,9.539-6.42,12.869-10.199c6.18-6.989,13.41-19.109,17.49-29.369   c3.45-8.67,7.02-21.15,8.97-31.23c1.171-6.148,1.47-9.029,1.681-17.1c0.301-11.34,1.141-21.96,2.729-33.9   C898.53,432.45,898.26,408.12,894.6,378.9z" style="stroke:black;fill:#BFDAE3"/><path id="180623552" parent_id="180608862" order="91" structure_id="1" d="M645.78,254.61c-0.091,0.3-0.63,2.28-1.23,4.44   c-2.52,9.18-4.02,13.05-6.36,16.59c-3.93,5.94-6.778,7.02-34.438,13.14c-7.26,1.59-10.08,2.43-11.97,3.54   c-1.471,0.84-1.83,1.53-1.53,2.85c0.72,3.27,5.88,4.26,19.17,3.66c11.939-0.54,17.101-1.47,22.59-4.08   c9.181-4.35,14.642-10.95,16.142-19.5c0.51-2.97,0.6-9.72,0.148-12.9c-0.568-4.11-1.56-8.25-1.979-8.25   C646.109,254.1,645.87,254.34,645.78,254.61z" style="stroke:black;fill:#BFDAE3"/><path id="180623552" parent_id="180608862" order="92" structure_id="1" d="M682.83,216c-7.29,0.51-12.54,1.41-17.43,2.97   c-3.48,1.11-6,2.55-7.801,4.47c-3,3.18-7.41,14.07-10.229,25.14l-0.99,3.93l0.81,3.57c1.382,6.06,1.53,7.32,1.53,12.57   c0.03,4.38-0.09,5.46-0.688,7.8c-1.352,5.28-3.932,9.63-7.562,12.78c-6.96,6.06-14.13,8.7-26.1,9.54   c-5.55,0.42-15.75,0.42-18.271,0.03c-2.49-0.42-4.801-1.53-5.49-2.67c-1.529-2.58,0.33-4.29,6.511-5.94   c1.08-0.27,1.979-0.66,1.979-0.84c0-0.39-27.33-0.27-33.449,0.15c-2.312,0.15-7.471,0.6-11.461,0.96   c-7.17,0.66-7.289,0.69-7.289,1.35c0,0.39,0.18,0.69,0.42,0.69s0.869,0.54,1.438,1.17l0.99,1.2l3.99-0.3   c3.358-0.271,4.108-0.42,4.59-0.9c0.51-0.51,0.84-0.57,1.858-0.42c1.98,0.33,8.82,2.97,14.281,5.55   c5.909,2.76,8.159,3.6,13.529,5.01c3.87,1.02,4.32,1.08,10.2,1.23c7.319,0.15,11.31-0.24,20.55-2.04   c14.13-2.76,20.939-5.19,26.76-9.57c4.051-3.06,5.222-4.95,7.681-12.51c2.881-8.79,3.689-13.17,4.109-22.02   c0.45-9.78,1.682-15.39,4.65-21.45c3.69-7.59,10.021-11.88,20.67-14.01c4.71-0.96,14.94-0.96,21.989,0   c12.271,1.65,27.091,5.31,37.021,9.15c7.65,2.97,26.16,11.19,34.17,15.21c14.16,7.08,23.97,12.99,31.44,18.99   c3.99,3.18,13.17,12.12,18.21,17.76c16.35,18.24,23.31,33.181,29.67,63.602c8.01,38.46,12.03,58.079,14.28,70.05   c6.84,36.3,8.938,56.01,8.609,80.28c-0.181,13.89-0.9,21.538-2.791,30.06c-2.789,12.479-10.26,25.74-20.188,35.7   c-6.511,6.569-12.511,10.528-22.71,15.09c-7.771,3.45-12.78,5.25-32.311,11.521c-6.961,2.221-9.931,3.301-28.591,10.439   c-4.979,1.92-12,4.47-15.63,5.729c-9.181,3.12-12.75,4.771-17.729,8.131c-3.75,2.489-6.121,4.948-4.802,4.948   c0.181,0,1.95-0.659,3.96-1.47c6.9-2.818,24.45-8.67,36.932-12.359c15.869-4.709,37.56-11.819,45.24-14.851   c10.56-4.17,27.898-13.92,35.76-20.07c7.68-6,15.84-17.55,20.398-28.829c3.42-8.399,7.86-26.069,9.961-39.569   c0.779-5.102,0.84-5.94,0.84-14.852c-0.029-5.188-0.181-11.67-0.391-14.398c-0.18-2.73-0.479-8.4-0.66-12.602   c-0.539-13.618-1.35-21.778-2.88-29.52c-0.45-2.16-2.819-11.37-5.278-20.43c-7.472-27.48-9.211-34.83-10.922-46.2   c-4.199-28.08-8.459-46.59-13.289-57.9c-4.859-11.34-11.311-20.399-21.99-30.93c-6.029-5.94-7.379-7.2-12.689-11.67   c-14.58-12.36-29.76-21.51-50.04-30.18c-25.92-11.1-44.43-16.35-63.36-17.97C699.72,215.88,687.21,215.7,682.83,216z" style="stroke:black;fill:#BFDAE3"/><path id="180623552" parent_id="180608862" order="93" structure_id="1" d="M685.2,227.55c-3.06,0.42-5.58,0.99-8.7,2.01   c-5.04,1.62-7.83,3.9-9.9,8.1c-2.34,4.8-3.028,9.36-2.278,15.09c0.6,4.47,0.63,10.11,0.028,13.38c-0.81,4.74-3.63,12.63-6.66,18.69   c-3.778,7.56-7.618,11.43-15.27,15.33c-12.12,6.18-28.2,9.06-44.52,7.98c-11.73-0.78-15.42-1.77-25.2-6.6   c-3.54-1.771-8.25-3.93-10.44-4.8c-2.189-0.87-4.08-1.8-4.199-2.04c-0.211-0.36-0.871-0.39-4.141-0.18l-3.87,0.24l0.091,1.71   c0.119,2.13-0.301,2.28-1.74,0.63c-1.409-1.59-1.859-2.88-1.619-4.47l0.18-1.35l-3.09,0.09l-3.12,0.09l-0.09,2.46l-0.091,2.46   l1.771,2.04c4.08,4.71,8.312,8.25,15.69,13.08c12.869,8.43,23.938,13.108,31.05,13.108c3.271,0,23.79-3.898,33.989-6.448   c9.271-2.341,19.619-6.182,24.601-9.15c4.29-2.55,6.87-4.68,12.18-10.02c11.341-11.37,18.392-20.13,23.25-28.83   c6.632-11.82,12-16.65,20.91-18.93c5.67-1.438,11.07-1.26,20.642,0.63c18.09,3.6,34.648,10.05,52.648,20.49   c6.602,3.81,13.771,9.6,20.7,16.74c9.51,9.78,15.811,18.66,20.7,29.189c1.289,2.729,2.58,5.461,2.908,6.029   c9.271,16.32,10.5,19.38,10.802,27.3c0.27,7.29-1.08,12.062-3.812,13.44c-0.93,0.45-1.619,0.63-2.25,0.479   c-1.858-0.358-4.199-1.77-6.358-3.81c-3.841-3.66-5.882-6.66-15.812-23.46c-7.71-12.99-11.279-18.75-11.64-18.75   c-0.149,0-0.479,0.21-0.72,0.45c-0.69,0.66-1.681,0.54-2.852-0.3c-2.13-1.62-25.02-16.71-26.76-17.67   c-3.479-1.92-11.641-4.26-16.021-4.59c-2.129-0.149-2.488-0.12-2.488,0.3c0,0.27,0.449,0.6,1.14,0.84   c1.92,0.63,5.82,2.58,8.49,4.26c3.12,1.95,6.84,4.89,12.96,10.2c2.49,2.188,5.64,4.8,6.96,5.76c2.819,2.07,8.641,7.8,10.979,10.8   c11.16,14.19,24.271,38.91,29.789,56.22c7.08,22.08,8.972,48.42,4.83,67.08c-1.17,5.312-3.479,11.972-5.789,16.771   c-3.541,7.318-6.479,11.76-14.641,22.08c-8.189,10.41-12.87,15.688-31.109,35.1c-15.33,16.29-17.791,18.78-35.011,35.34   c-17.97,17.28-23.94,23.131-24.36,23.852c-0.568,1.109-0.81,5.97-0.51,10.438c0.271,3.722,0.24,4.53-0.148,5.46   c-0.48,1.2-1.41,1.62-2.82,1.29c-0.45-0.118-1.17-0.3-1.62-0.39c-1.08-0.21-2.22-1.38-3.149-3.24   c-0.779-1.529-3.511-4.318-4.261-4.35c-1.02-0.03,0.602,4.739,3.271,9.6c1.11,2.07,2.61,5.04,3.33,6.602   c0.688,1.56,1.38,2.88,1.5,2.938c0.148,0.062,0.27,0.33,0.27,0.63c0,0.271,0.87,2.461,1.92,4.83l1.89,4.32l1.472,0.39   c0.812,0.21,1.95,0.392,2.521,0.392c2.069,0,2.189-0.12,2.909-3c0.392-1.682,0.99-3.15,1.562-3.99   c3.84-5.58,16.979-13.41,33.93-20.25c17.01-6.84,46.41-16.11,67.26-21.18c6.96-1.711,10.562-3,16.141-5.762   c7.561-3.75,13.979-8.369,20.131-14.52c6.988-6.96,12.148-14.49,14.76-21.602c4.62-12.479,5.88-32.159,3.51-55.38   c-1.35-13.229-4.71-32.88-11.699-68.85c-3.271-16.8-4.109-21.479-7.529-42.42c-5.43-33.271-7.11-41.07-10.98-50.851   c-2.55-6.479-7.438-15.181-12.54-22.351c-7.979-11.19-19.829-21.87-34.77-31.35c-16.14-10.23-45.062-24.51-62.58-30.84   c-5.67-2.07-11.19-3.12-21.3-4.11c-2.73-0.271-6.721-0.66-8.91-0.9C696.72,227.01,689.1,227.01,685.2,227.55z M838.95,472.65   c6.09,2.938,7.89,14.039,4.47,27.688c-3.87,15.601-16.02,32.91-28.439,40.59c-6.149,3.78-11.159,3.48-12.541-0.75   c-1.648-5.01-0.75-8.818,5.041-21.148c6.029-12.812,9.601-19.8,13.021-25.53c3.42-5.67,5.13-9.061,6.899-13.439   c2.311-5.819,4.979-8.279,8.699-8.069C837,472.05,838.29,472.35,838.95,472.65z M705.3,612.99c0,0.06-0.3,0.358-0.659,0.688   l-0.689,0.57l0.568-0.688C705.061,612.93,705.3,612.75,705.3,612.99z" style="stroke:black;fill:#BFDAE3"/><path id="180623552" parent_id="180608862" order="94" structure_id="1" d="M705,251.07   c-7.47,1.62-12.48,5.1-17.76,12.33c-0.42,0.57-2.1,3.33-3.69,6.15c-4.229,7.38-7.409,11.7-14.52,19.8   c-4.2,4.77-12.57,13.29-15.03,15.3c-10.23,8.31-24.57,13.14-55.62,18.75c-6.899,1.26-10.649,1.5-13.739,0.868   c-11.431-2.31-33.511-15.538-41.49-24.84c-0.989-1.17-1.979-2.13-2.159-2.13c-0.302,0-0.392,1.62-0.392,7.05v7.05h1.44   c2.01,0,4.11-0.779,5.01-1.859l0.78-0.9l2.46,1.682c11.729,8.16,14.04,9.93,19.17,14.79c4.92,4.648,7.59,5.579,16.14,5.579   c3.631,0,6.602-0.149,8.58-0.479c1.681-0.271,8.01-1.89,14.102-3.63c11.37-3.21,28.89-8.04,33.42-9.18   c4.95-1.262,15.898-7.472,22.47-12.78c3.09-2.52,7.351-6.72,12.601-12.54c10.08-11.1,20.25-19.35,29.279-23.73   c11.131-5.4,20.25-6.3,33.66-3.27c8.79,1.95,17.07,5.73,30.54,13.83c12.66,7.65,21.21,16.05,29.13,28.649   c4.8,7.649,12.3,20.641,16.53,28.739c3.84,7.32,10.08,21.182,11.97,26.61c0.66,1.92,1.44,2.1,2.432,0.6   c2.068-3.12,2.64-12.21,1.17-18.6c-0.9-3.9-2.552-7.472-6.961-15.24c-1.379-2.43-4.109-7.71-6.091-11.729   c-6.028-12.331-12.84-21.629-23.22-31.62c-7.318-7.05-13.2-11.37-21.96-16.2c-17.25-9.45-32.43-15.06-50.07-18.45   C716.85,250.44,709.05,250.17,705,251.07z" style="stroke:black;fill:#BFDAE3"/><path id="180623552" parent_id="180608862" order="95" structure_id="1" d="M726.6,285.12   c-1.08,0.36-4.77,1.98-8.25,3.57c-19.619,8.94-21.27,9.81-21.09,11.1c0.09,0.63,0.24,0.66,3.54,0.72   c4.351,0.09,13.32,0.6,17.25,1.021c7.351,0.75,16.86,3.75,20.91,6.6c0.42,0.33,0.99,0.57,1.26,0.57c0.99,0,0.421-1.021-1.649-2.94   c-3.601-3.36-4.079-5.07-1.92-7.14l1.351-1.26l3.391-0.21c4.619-0.3,9.569,0.54,16.079,2.73c3.512,1.17,5.971,2.61,17.28,10.2   c5.79,3.87,10.74,7.021,11.04,7.021c0.779,0,0.63-0.779-0.602-2.819c-3.119-5.19-8.58-11.07-13.379-14.34   c-2.91-1.98-4.859-2.79-12.511-5.13c-8.64-2.67-10.649-3.45-17.85-7.05c-3-1.5-5.97-2.85-6.602-3.03   C732.75,284.16,728.79,284.34,726.6,285.12z" style="stroke:black;fill:#BFDAE3"/><path id="180623552" parent_id="180608862" order="96" structure_id="1" d="M695.43,322.53   c-1.529,0.148-6.06,0.659-10.05,1.17c-3.989,0.479-8.28,0.898-9.51,0.898h-2.22l-0.84,1.32c-0.451,0.72-1.621,2.19-2.61,3.271   c-0.99,1.08-1.8,2.101-1.8,2.25c0,0.181,0.449,0.479,1.02,0.659c4.11,1.352,9.24,6.75,12.061,12.69l1.08,2.31l3.359,1.62   c3.36,1.65,8.37,3.392,11.73,4.11c3.028,0.63,6.898,0.51,9.148-0.271c4.74-1.621,10.051-5.819,11.551-9.121   c2.521-5.488,2.791-13.47,0.659-17.938l-0.659-1.351l-4.051-0.659C706.26,322.23,701.641,321.99,695.43,322.53z" style="stroke:black;fill:#BFDAE3"/><path id="180623552" parent_id="180608862" order="97" structure_id="1" d="M588.391,541.32   c-2.101,0.479-5.58,2.16-7.649,3.66c-2.7,1.979-6.12,5.97-7.44,8.608c-1.408,2.88-1.71,4.71-1.229,7.59   c1.648,9.48,10.438,18.722,23.01,24.271c3.779,1.648,10.68,3.989,12.57,4.26c1.26,0.15,1.289,0.15,1.5-0.84   c0.119-0.57,0.479-1.47,0.778-2.01c0.302-0.54,0.57-1.171,0.57-1.352c0-0.21-0.84-0.989-1.83-1.71   c-5.188-3.78-8.88-9.72-9.84-15.81c-0.45-2.88-0.42-4.32,0.12-7.41c1.199-6.812,4.859-13.351,8.939-15.96   c0.601-0.391,1.109-0.9,1.109-1.141c0-0.42-3.51-1.409-7.2-1.979C598.32,540.96,590.46,540.84,588.391,541.32z" style="stroke:black;fill:#BFDAE3"/><path id="180623552" parent_id="180608862" order="98" structure_id="1" d="M662.4,324.93   c-10.562,0.54-29.73,2.25-37.051,3.301c-6.869,0.959-7.949,1.199-7.949,1.619c0,0.211,1.528,1.052,3.39,1.83   c11.37,4.801,19.08,6.75,26.55,6.75c7.59,0,14.76-2.46,20.34-6.99c2.07-1.68,5.521-5.67,5.521-6.42   C673.2,324.54,670.53,324.51,662.4,324.93z" style="stroke:black;fill:#BFDAE3"/><path id="180623552" parent_id="180608862" order="99" structure_id="1" d="M590.49,333.45   c-4.141,0.66-10.59,4.05-20.85,11.01c-6.121,4.14-11.91,8.64-11.94,9.24c0,0.96,7.2,4.89,13.83,7.5   c5.069,1.979,10.26,3.45,14.579,4.11c4.859,0.72,12.961,0.72,15.841,0c2.94-0.75,6-2.312,7.979-4.08   c1.892-1.711,3.962-4.592,3.812-5.342c-0.062-0.27-0.75-0.72-1.65-1.02c-2.939-0.99-5.13-2.4-7.23-4.62   c-3.06-3.21-6.09-8.312-8.488-14.25l-1.141-2.85l-1.141-0.062C593.46,333.09,591.84,333.24,590.49,333.45z" style="stroke:black;fill:#BFDAE3"/><path id="180623552" parent_id="180608862" order="100" structure_id="1" d="M605.25,331.26   c-5.28,0.812-9.66,1.53-9.72,1.62c-0.54,0.54,3.45,9.12,6.18,13.32c1.979,3,5.04,6.148,7.14,7.26c2.852,1.5,6.541,2.37,10.2,2.4   c5.16,0.06,8.58-1.021,13.021-4.021c5.85-3.96,16.229-12.09,16.229-12.72c0-0.3-0.45-0.42-1.71-0.42c-6,0-15.81-2.641-25.74-6.932   c-2.64-1.14-5.068-2.068-5.398-2.039C615.12,329.76,610.53,330.42,605.25,331.26z" style="stroke:black;fill:#BFDAE3"/><path id="180623552" parent_id="180608862" order="101" structure_id="1" d="M565.05,323.25c-1.35-2.79-3.21-4.68-7.2-7.35c-1.83-1.2-4.619-3.12-6.209-4.262   c-1.591-1.108-3.121-2.04-3.359-2.04c-0.24,0-0.96,0.33-1.562,0.75c-1.661,1.138-3.196,1.479-6.72,1.47v47.778   c4.646-0.005,9.283-1.397,13.95-4.188c3.78-2.25,8.58-6.181,9.72-7.98c2.13-3.3,3.03-7.438,3.03-13.8   C566.7,328.14,566.311,325.8,565.05,323.25z" style="stroke:black;fill:#BFDAE3"/><path id="180623552" parent_id="180608862" order="102" structure_id="1" d="M682.891,348.66   c1.141,6.479,1.439,8.64,1.829,13.14c0.75,8.37,1.05,15.09,1.38,30c0.33,15.33,0.12,21.24-0.93,27.3   c-1.17,6.84-3.39,13.381-6.42,18.87c-0.689,1.261-1.35,2.61-1.47,3.03c-0.15,0.42-0.9,2.34-1.74,4.29s-1.41,3.63-1.32,3.72   c0.091,0.09,0.87-0.029,1.74-0.3c2.46-0.78,6.99-1.2,10.32-0.99c3.898,0.21,10.35,1.41,15.21,2.761   c2.1,0.601,3.93,0.989,4.02,0.899c0.12-0.09-0.029-0.899-0.3-1.77c-0.271-0.841-0.569-2.102-0.69-2.762   c-0.118-0.659-0.479-1.59-0.81-2.038c-1.649-2.371-2.67-8.94-2.7-17.16c-0.029-4.262,0.12-6.36,0.51-8.37   c1.472-7.47,5.972-19.021,8.58-21.932c0.42-0.51,1.17-1.829,1.65-2.97c1.68-4.05,5.1-8.49,8.34-10.83   c0.93-0.66,1.68-1.35,1.711-1.56c0-0.69-5.069-5.431-17.94-16.681c-7.17-6.271-14.31-12.631-15.899-14.159   c-2.97-2.82-3.84-3.45-4.74-3.45C682.83,347.7,682.74,347.88,682.891,348.66z" style="stroke:black;fill:#BFDAE3"/><path id="180623552" parent_id="180608862" order="103" structure_id="1" d="M719.189,325.26   c0.091,0.392,0.451,1.83,0.811,3.24c0.57,2.16,0.66,3.03,0.51,6c-0.3,6.9-2.55,11.28-7.56,14.85c-6.69,4.74-11.22,5.16-20.97,1.92   c-1.95-0.63-3.722-1.17-3.961-1.17c-1.439,0-0.029,1.32,18.931,17.852c5.28,4.59,11.97,10.739,14.85,13.648   c6.271,6.271,9.271,9,13.5,12.271c3.78,2.939,4.92,3.21,3.72,0.87c-1.08-2.102-3.238-7.892-4.47-11.94   c-3.03-10.17-4.59-20.52-7.05-46.95c-0.51-5.43-0.96-9.93-1.02-9.96c-0.15-0.18-6-1.29-6.69-1.29   C719.16,324.6,719.07,324.72,719.189,325.26z" style="stroke:black;fill:#BFDAE3"/><path id="180623552" parent_id="180608862" order="104" structure_id="1" d="M720.9,383.01   c-3.51,2.37-6.48,6.03-8.58,10.41c-1.352,2.85-1.381,3-1.08,4.5c0.359,1.8,0.119,5.34-0.99,14.61c-0.42,3.479-0.75,6.479-0.75,6.72   c0,0.84,0.689,0.45,2.85-1.62c2.76-2.61,5.16-4.229,8.972-6.06c4.948-2.37,12.3-3.87,18.84-3.87c5.489,0,7.771,0.84,10.71,3.93   c2.58,2.7,2.91,1.56,0.6-2.01c-3.3-5.101-8.158-10.11-12.869-13.351c-4.109-2.819-7.261-5.399-12.359-10.199   c-2.07-1.95-3.96-3.57-4.2-3.57C721.83,382.5,721.29,382.74,720.9,383.01z" style="stroke:black;fill:#BFDAE3"/><path id="180623552" parent_id="180608862" order="105" structure_id="1" d="M575.939,390.27c-7.963-5.89-24.824-11.061-35.939-11.254v13.148c5.396-0.104,7.452,0.368,13.891,2.966   c7.379,3,13.5,6.24,17.879,9.54c0.9,0.69,1.802,1.23,2.012,1.23s0.449-0.45,0.568-0.99c0.33-1.62,2.131-5.07,3.9-7.53   c0.9-1.26,1.65-2.46,1.65-2.67C579.9,393.9,578.07,391.86,575.939,390.27z" style="stroke:black;fill:#BFDAE3"/><path id="180623552" parent_id="180608862" order="106" structure_id="1" d="M641.22,541.5   c-4.47,0.36-10.079,1.38-16.17,2.939c-4.649,1.171-5.85,1.381-8.55,1.381c-3.18,0.028-4.5-0.33-6.391-1.682   c-1.26-0.93-5.039,2.312-7.439,6.392c-2.58,4.318-3.87,9.03-3.87,14.068c0,3.722,0.63,6.602,2.101,9.75   c1.801,3.87,4.83,7.41,8.609,9.99c1.17,0.84,1.62,0.812,3.84-0.06l1.802-0.75l0.18-2.342c0.33-4.289,2.13-8.67,5.01-12.238   c2.13-2.67,17.312-14.521,26.91-21.062c5.07-3.45,5.55-3.989,4.38-5.159S646.439,541.08,641.22,541.5z" style="stroke:black;fill:#BFDAE3"/><path id="180623552" parent_id="180608862" order="107" structure_id="1" d="M888.3,447c-1.29-15.54-1.8-18.45-5.61-31.92c-8.368-29.641-8.58-30.51-9.81-37.68   c-0.42-2.4-1.021-6.512-1.38-9.15c-0.33-2.64-1.98-13.11-3.63-23.25c-2.97-18.12-3.06-18.54-4.771-23.73   c-6.029-18.208-13.41-31.68-25.021-45.568c-13.681-16.35-26.79-25.98-53.13-39c-18.602-9.21-32.16-14.64-47.7-19.11   c-14.642-4.2-26.7-6.93-36.51-8.25c-5.882-0.78-17.851-0.93-23.04-0.3c-11.25,1.41-21.45,4.05-28.41,7.41   c-4.38,2.13-9,6.87-13.439,13.8c-0.959,1.47-2.189,3.39-2.729,4.2c-0.54,0.84-2.28,4.02-3.87,7.05   c-3.42,6.57-5.67,9.66-10.41,14.28c-3.96,3.84-7.59,6.72-12.93,10.229c-4.74,3.12-7.62,4.62-11.13,5.76   c-5.341,1.77-9.33,2.46-17.13,3.03c-5.041,0.36-10.892,1.32-22.801,3.72c-4.439,0.9-9.601,1.86-11.459,2.13   c-1.315,0.189-2.263,0.313-3.392,0.305v10.266c4.363,0.019,8.41-0.318,15-0.97c11.729-1.14,16.2-1.35,30-1.35   c17.851,0,18.72-0.09,34.351-3.84c10.891-2.61,13.711-3.75,16.649-6.69c3.72-3.72,5.49-8.28,10.38-26.49   c3.061-11.55,5.16-17.7,7.8-22.98c2.671-5.34,3.87-6.66,7.771-8.58c4.44-2.16,10.59-3.57,18.75-4.32c4.409-0.39,16.95-0.39,22.2,0   c18.3,1.35,35.88,6,59.43,15.69c28.109,11.58,44.34,21.72,64.68,40.47c14.881,13.68,23.58,26.58,29.04,42.989   c3.271,9.869,6.96,27.569,10.05,48.181c1.95,12.93,3.602,20.13,10.92,46.92c4.892,17.97,5.16,19.17,6.182,25.2   c1.14,6.81,1.71,12.96,2.25,25.199c0.238,5.609,0.6,12.479,0.779,15.301c0.539,7.979,0.479,19.38-0.149,23.85   c-1.771,12.75-5.188,27.512-8.91,38.55c-4.528,13.382-13.68,26.79-23.069,33.87c-9.029,6.78-26.641,16.352-37.5,20.37   c-8.039,2.972-25.83,8.76-39.779,12.96c-13.141,3.96-29.131,9.182-36.271,11.852c-8.01,3-12.148,5.278-12.148,6.75   c0,1.438,2.039,0.96,5.85-1.381c7.95-4.83,22.41-9.959,51.48-18.271c23.58-6.72,35.58-11.188,49.92-18.57   c21.18-10.89,30.3-19.26,37.648-34.38c2.641-5.46,7.23-16.68,8.79-21.6c3.392-10.59,6.54-26.16,7.142-35.37   C889.8,486,889.26,458.73,888.3,447z" style="stroke:black;fill:#BFDAE3"/><path id="180623552" parent_id="180608862" order="108" structure_id="1" d="M682.68,493.35   c-1.438,0.24-5.699,1.17-9.449,2.07c-3.721,0.9-11.131,2.52-16.439,3.6s-10.38,2.25-11.28,2.58   c-7.77,2.91-23.97,17.642-31.17,28.32c-5.069,7.561-6.149,12.99-3,14.94c1.021,0.63,1.472,0.688,5.16,0.688   c6.358-0.029,7.92-0.568,17.101-6.06c7.859-4.71,15.061-9.57,28.051-18.841c20.31-14.489,21.93-15.779,24.75-19.949   c2.25-3.301,3.358-6.21,2.76-7.141C688.74,492.96,685.74,492.87,682.68,493.35z" style="stroke:black;fill:#BFDAE3"/><path id="180623552" parent_id="180608862" order="109" structure_id="1" d="M560.85,526.439   c-1.8,2.729-2.88,7.83-2.91,13.711c0,7.979,2.16,12.119,6.36,12.148c2.37,0,3.54-1.47,1.65-2.1c-2.431-0.812-4.021-3.36-4.681-7.5   c-0.479-3.09-0.149-10.44,0.631-14.102c0.72-3.42,0.72-3.3,0.148-3.3C561.811,525.3,561.27,525.811,560.85,526.439z" style="stroke:black;fill:#BFDAE3"/><path id="180623552" parent_id="180608862" order="110" structure_id="1" d="M570.061,579.78   c-0.779,0.54-0.871,1.83-0.239,3.09c1.979,3.81,13.739,10.56,23.31,13.38c2.46,0.72,2.7,0.75,3.33,0.33   c0.391-0.27,1.29-0.48,2.07-0.48c1.109,0,1.738,0.211,3,1.052c1.02,0.688,1.859,1.05,2.34,0.989c0.689-0.091,0.78-0.239,0.87-1.319   c0.09-1.142-0.03-1.351-1.29-2.46c-1.471-1.29-6.24-3.812-18.9-9.9C574.29,579.51,571.65,578.67,570.061,579.78z" style="stroke:black;fill:#BFDAE3"/><path id="180623552" parent_id="180608862" order="111" structure_id="1" d="M741,486.87l-4.95,2.34l-1.649,2.64   c-0.899,1.44-2.131,3-2.699,3.45c-0.57,0.48-2.971,1.59-5.342,2.521c-6.898,2.698-8.459,3.659-8.459,5.13   c0,1.05,1.561,2.489,5.131,4.68c7.17,4.44,9.148,7.8,7.92,13.32c-1.74,7.859-13.262,23.31-32.762,44.01   c-9.118,9.63-16.47,16.2-23.188,20.7c-10.5,7.02-25.68,11.278-34.8,9.81c-2.61-0.42-6.512-1.77-8.641-3   c-2.25-1.35-5.399-4.5-6.631-6.658c-1.35-2.342-1.77-2.28-3.09,0.6c-1.41,3.029-1.949,4.83-2.34,7.59   c-0.51,3.54,0.09,7.439,1.65,10.5c0.688,1.32,0.81,1.41,2.91,2.01c6.6,1.892,13.229,2.82,20.488,2.82   c18.57,0.03,32.58-5.76,46.32-19.08c5.37-5.22,9.87-10.41,20.04-23.1c20.97-26.222,36.149-47.012,39.39-53.91   c1.41-3.03,2.521-6.391,3.182-9.602c0.688-3.42,0.479-9.27-0.45-11.908c-1.29-3.69-3.99-6.842-6.091-7.08   C746.189,484.561,744.78,485.07,741,486.87z" style="stroke:black;fill:#BFDAE3"/><path id="180623552" parent_id="180608862" order="112" structure_id="1" d="M894.6,378.9C890.7,348.18,884.4,322.89,876.15,305.16c-3.062-6.6-7.892-14.97-13.23-23.01   c-11.52-17.28-23.67-28.02-50.22-44.4c-20.101-12.39-41.19-22.77-60-29.43c-18.78-6.69-44.46-12.03-68.88-14.34   c-8.67-0.81-12.721-0.93-14.4-0.39c-4.5,1.47-11.85,2.1-23.67,2.07c-6.54-0.03-10.32,0.09-12.78,0.39   c-10.319,1.29-19.17,5.88-27.6,14.25c-3.66,3.66-6.15,6.6-11.34,13.5c-7.98,10.562-13.65,16.83-18.78,20.7   c-3.6,2.73-5.939,3.96-10.23,5.37c-1.948,0.66-4.47,1.53-5.58,1.95c-4.799,1.83-11.608,3.148-17.488,3.39   c-0.663,0.026-1.311,0.039-1.95,0.044v25.543c2.276-0.031,6.937-0.785,15.601-2.547c11.939-2.43,16.529-3.15,22.351-3.63   c15.36-1.2,21.18-3.36,33.3-12.42c6.51-4.86,12.45-10.95,15.03-15.36c0.51-0.87,2.398-4.35,4.17-7.74   c6.72-12.75,12.81-20.22,18.84-23.04c6.36-3.03,16.47-5.79,26.01-7.11c5.37-0.78,16.86-0.93,22.44-0.33   c15.3,1.65,39.449,7.74,56.91,14.34c19.5,7.38,43.438,19.29,57.3,28.53c15.81,10.56,31.02,27.3,40.979,45.06   c7.44,13.352,13.86,32.4,18.57,55.11c2.188,10.68,3.93,16.32,9.149,29.79c3.899,10.109,5.729,16.438,7.171,24.75   c1.229,7.2,1.409,11.58,1.319,30.239c-0.061,11.341,0.029,20.011,0.299,25.109c0.48,9.84,0.541,30.271,0.062,35.25   c-0.63,6.96-3.45,20.88-5.88,29.37c-2.07,7.142-6.9,19.351-10.471,26.49c-5.101,10.14-11.909,17.938-20.76,23.79   c-1.351,0.87-1.681,1.648-0.75,1.648c1.439,0,9.539-6.42,12.869-10.199c6.18-6.989,13.41-19.109,17.49-29.369   c3.45-8.67,7.02-21.15,8.97-31.23c1.171-6.148,1.47-9.029,1.681-17.1c0.301-11.34,1.141-21.96,2.729-33.9   C898.53,432.45,898.26,408.12,894.6,378.9z" style="stroke:black;fill:#BFDAE3"/><path id="180623552" parent_id="180608862" order="113" structure_id="1" d="M593.85,493.02c-3.39,0.57-6.99,1.592-8.43,2.432   c-3.75,2.188-5.52,6.238-6.18,14.068c-0.33,3.842-0.301,4.53,0.33,9c1.02,7.17,2.608,11.49,4.8,13.052   c1.26,0.898,4.29,1.5,8.88,1.71c5.311,0.27,6.63-0.03,11.7-2.55c7.35-3.66,16.56-10.08,21.479-15   c3.48-3.512,4.771-5.791,5.011-8.972c0.181-2.64-0.449-3.898-3.511-7.08c-2.608-2.698-3.868-3.358-8.34-4.5   c-7.08-1.8-11.01-2.369-17.34-2.46C598.26,492.66,595.439,492.75,593.85,493.02z" style="stroke:black;fill:#BFDAE3"/></g></g></svg>
