<svg xmlns="http://www.w3.org/2000/svg" width="3024px" height="3024px"><g transform="scale(1.0)"><g id="180608862" order="1" parent_id="" graphic_group_label_id="28" graphic_group_label="Atlas - Adult Rat" sub_image_id="100960468" transform=" scale(1.0, 1.0)"><path id="180623552" parent_id="180608862" order="0" structure_id="1" d="M845.37,397.56c-0.84-2.16-2.76-5.25-3.69-6.03c-0.66-0.54-0.6-1.14,0.09-1.38   c2.61-0.81,4.53-6.36,4.53-13.05c0-3.84-0.45-6.45-1.92-11.01c-3.93-12.06-11.938-27-21.12-39.39   c-9.21-12.39-20.16-23.13-35.01-34.26c-18.9-14.16-37.56-24.39-54-29.64c-22.41-7.11-56.67-11.94-69.6-9.78   c-5.973,0.99-10.893,2.55-15.54,4.86c-2.88,1.47-4.44,2.58-6.87,4.83c-3.87,3.63-4.59,3.48-12.84-2.67   c-7.23-5.37-14.91-9.78-20.433-11.73c-11.397-3.99-27.777-6.66-49.619-8.01c-3.095-0.199-11.979-0.387-19.351-0.459V716.08   c1.068-0.004,2.101-0.818,2.101-2.08c0-0.54,0.149-0.9,0.392-0.9s2.97,0.723,6.09,1.62l5.67,1.62v1.41   c0.03,1.2,0.15,1.53,0.99,2.28c1.83,1.647,4.83,0.93,5.31-1.263c0.24-1.078-0.479-1.05,6.45-0.117   c4.62,0.63,14.25,0.479,18.45-0.271c17.55-3.148,58.95-19.2,93-36.03c20.88-10.317,33.6-18.027,43.8-26.52   c3.78-3.15,13.62-13.05,16.83-16.92c7.5-9.12,12.93-18.181,17.01-28.59c3.99-10.053,5.13-17.07,5.13-31.32   c-0.027-14.76-1.47-25.95-4.317-33.18c-2.643-6.69-9.69-17.521-17.643-27.12c-3.147-3.813-10.619-11.521-14.25-14.7   c-4.289-3.75-12.238-7.86-21.869-11.28c-2.311-0.81-4.141-1.647-4.141-1.857c0-0.271,1.44-0.36,6.24-0.36   c16.47,0,30.24-2.52,40.108-7.35c3.539-1.74,6.392-3.99,7.052-5.553c0.42-1.05,0.54-1.05,4.35-0.42c3.84,0.63,15.12,0.9,19.38,0.45   c12.87-1.32,24.42-5.91,33.603-13.29c4.107-3.3,6.63-6.147,8.158-9.21c1.229-2.46,1.262-2.61,1.262-5.55   c0-2.94-0.03-3.12-1.23-5.58c-0.688-1.41-1.858-3.33-2.608-4.26c-0.779-0.933-1.409-1.83-1.409-1.95c0-0.15,1.528-0.24,3.39-0.15   c2.88,0.093,3.78,0,6.3-0.657c9.24-2.37,17.432-8.973,21.182-17.04c1.738-3.69,2.159-5.521,2.341-10.44   C847.29,404.46,846.81,401.16,845.37,397.56z" style="stroke:black;fill:#BFDAE3"/><path id="180623552" parent_id="180608862" order="1" structure_id="1" d="M695.58,496.53   c-6.48,0.688-16.26,4.08-26.58,9.21c-3.81,1.89-4.05,2.067-4.14,2.938c-0.063,0.78,0.09,1.08,0.777,1.563   c1.2,0.87,4.74,2.01,8.973,2.938c8.97,1.92,12.897,3.21,26.64,8.67c10.56,4.2,11.07,4.44,15.81,7.263   c6.933,4.107,15.093,11.067,19.29,16.438c3.99,5.103,7.353,11.49,9.603,18.271c1.68,5.01,2.397,8.64,3.03,15.18   c1.077,11.52-0.303,19.44-5.04,28.5c-3.632,6.99-8.882,14.1-13.98,18.93c-5.938,5.643-11.1,7.53-14.88,5.521   c-1.89-1.021-2.37-0.99-2.13,0.09c0.09,0.479,0.27,2.4,0.42,4.29c0.18,2.729,0.36,3.72,0.96,4.89c2.28,4.53,6.78,3.96,15.72-1.979   c11.04-7.38,19.17-20.67,23.67-38.643c3.75-15.06,4.143-28.829,1.2-41.88c-0.84-3.75-2.76-9.72-4.29-13.317   c-1.47-3.393-5.069-10.263-7.229-13.71l-1.92-3.093l-1.08,0.183c-0.843,0.147-1.29,0-2.313-0.75c-1.77-1.29-4.438-4.59-5.67-7.05   c-1.14-2.28-1.229-2.94-0.569-3.48c0.239-0.21,0.449-0.57,0.449-0.81c0-0.66-4.77-5.25-9.449-9.063   c-6.778-5.55-11.188-8.22-16.289-9.93c-2.279-0.75-6.842-1.59-8.159-1.47C698.16,496.26,696.87,496.38,695.58,496.53z    M700.44,503.58c3.027,0.6,5.907,2.01,9.39,4.56c4.53,3.33,6.51,4.2,11.729,5.04c3.393,0.54,5.343,1.38,6.66,2.82   c1.86,2.07,1.71,4.2-0.479,6.15c-2.67,2.43-5.49,2.697-9.48,0.96c-3.87-1.683-6.45-3.57-8.52-6.183   c-3.36-4.317-4.23-5.188-5.61-5.817c-1.2-0.54-1.647-0.57-4.229-0.33c-1.563,0.147-4.2,0.239-5.853,0.239   c-2.67,0.028-3.18-0.062-4.53-0.779c-1.71-0.9-3.51-2.76-3.357-3.48c0.12-0.66,1.857-1.8,3.357-2.188   c1.74-0.48,6.75-1.41,7.771-1.44C697.74,503.1,699.18,503.31,700.44,503.58z" style="stroke:black;fill:#BFDAE3"/><path id="180623552" parent_id="180608862" order="2" structure_id="1" d="M554.52,716.79   c-0.39,1.08,0.03,2.7,0.87,3.33c1.263,0.93,3.66,0.87,4.44-0.09c0.3-0.393,0.57-1.08,0.57-1.53c0-0.811-0.12-0.87-2.16-1.32   c-1.2-0.27-2.49-0.567-2.853-0.66C554.94,716.4,554.64,716.49,554.52,716.79z" style="stroke:black;fill:#BFDAE3"/><path id="180623552" parent_id="180608862" order="3" structure_id="1" d="M568.8,546.51c0,0.15,0.271,0.96,0.603,1.86   c1.14,2.938,1.83,8.13,2.01,14.79c0.147,4.857,0.27,6.24,0.57,6.24c0.537,0,6.688-7.771,8.43-10.65c1.2-1.98,1.438-2.64,1.41-3.78   c-0.03-3.479-3.45-6.3-9.48-7.92C569.37,546.24,568.8,546.18,568.8,546.51z" style="stroke:black;fill:#BFDAE3"/><path id="180623552" parent_id="180608862" order="4" structure_id="1" d="M580.26,514.41   c-0.93,0.12-0.99,0.21-0.81,0.93c0.75,3.063,4.229,8.313,6.42,9.69c2.04,1.317,4.92,1.05,6.72-0.57c0.48-0.42,1.26-0.51,5.13-0.54   c4.5,0,10.5-0.45,11.82-0.87c1.229-0.39,0.75-1.17-1.5-2.46c-3.48-1.979-9.87-5.188-10.29-5.188c-0.21,0-0.93,0.777-1.56,1.71   c-1.683,2.43-3.513,3.54-5.91,3.54c-1.473,0-2.13-0.183-3.271-0.843c-1.83-1.078-3.06-2.88-3-4.438l0.063-1.17l-1.41,0.06   C581.88,514.26,580.8,514.35,580.26,514.41z" style="stroke:black;fill:#BFDAE3"/><path id="180623552" parent_id="180608862" order="5" structure_id="1" d="M597.9,512.04   c-0.57,0.27-1.08,0.51-1.143,0.54c-0.06,0.03,0.03,0.57,0.21,1.229c0.302,1.08,0.48,1.23,3.84,2.91   c4.563,2.25,8.04,4.2,12.54,7.021c6.513,4.08,12.12,6.357,15.69,6.357c2.04,0,2.76-0.39,2.76-1.47c0-0.72-0.18-0.87-1.647-1.35   c-2.16-0.69-11.16-5.25-21.78-11.07c-4.74-2.58-8.79-4.71-9-4.68C599.13,511.53,598.47,511.77,597.9,512.04z" style="stroke:black;fill:#BFDAE3"/><path id="180623552" parent_id="180608862" order="6" structure_id="1" d="M689.46,457.68c-9.36-8.16-23.88-23.46-31.05-32.729c-1.26-1.65-5.13-6.813-8.61-11.46   c-9.45-12.69-27.42-35.04-31.317-38.94c-9.24-9.21-19.86-13.98-36.45-16.35c-16.41-2.34-22.05-2.73-39.78-2.85   c-0.76-0.003-1.509-0.005-2.25-0.007v4.417c9.742-0.038,18.845,0.636,35.25,2.52c21.09,2.43,30.99,6.6,42.15,17.79   c5.909,5.94,7.647,8.4,13.438,19.23c9.99,18.66,20.7,33.66,30.512,42.63c7.801,7.143,16.528,12.933,25.351,16.771   C691.98,460.98,692.88,460.65,689.46,457.68z" style="stroke:black;fill:#BFDAE3"/><path id="180623552" parent_id="180608862" order="7" structure_id="1" d="M559.5,534.51c-0.72,0.3-0.9,0.75-0.9,2.19   c0,1.92,0.75,2.817,4.803,5.88c3.93,2.97,4.14,3.09,8.76,4.32c1.857,0.51,3.72,1.17,4.14,1.438c0.66,0.45,1.92,0.51,10.44,0.603   c7.979,0.09,9.66,0.027,9.66-0.303c0-0.237-5.013-2.88-11.91-6.33c-10.893-5.397-12.271-6-15.54-6.84   C565.47,534.6,560.46,534.09,559.5,534.51z" style="stroke:black;fill:#BFDAE3"/><path id="180623552" parent_id="180608862" order="8" structure_id="1" d="M593.43,524.13   c-0.81,0.24-0.96,0.42-0.84,0.96c0.3,1.41,1.771,7.05,2.22,8.55c0.24,0.9,0.393,2.07,0.303,2.643c-0.12,0.75,0.027,1.438,0.63,2.55   c1.05,2.07,2.397,3.03,4.35,3.21c2.88,0.21,4.23-0.93,4.2-3.57c-0.03-1.89-0.51-3.027-1.65-3.87c-1.35-0.987-2.43-3.6-2.46-5.97   c-0.027-1.08,0.063-2.46,0.21-3.06l0.21-1.08l-2.46-0.21c-1.38-0.12-2.76-0.271-3.09-0.33C594.72,523.89,594,523.98,593.43,524.13z   " style="stroke:black;fill:#BFDAE3"/><path id="180623552" parent_id="180608862" order="9" structure_id="1" d="M645.81,605.67   c-1.979,0.66-2.85,1.17-3.96,2.34c-1.83,1.98-2.13,5.46-0.777,8.313c1.62,3.3,6.357,7.197,10.438,8.55   c2.04,0.688,5.76,0.84,7.59,0.33c1.86-0.51,3.78-1.95,4.711-3.51c0.722-1.263,0.842-1.74,0.842-3.843   c0-1.979-0.15-2.697-0.813-4.107c-1.438-3.09-4.68-5.91-8.938-7.74C652.62,605.01,648.3,604.86,645.81,605.67z" style="stroke:black;fill:#BFDAE3"/><path id="180623552" parent_id="180608862" order="10" structure_id="1" d="M845.37,397.56c-0.84-2.16-2.76-5.25-3.69-6.03c-0.66-0.54-0.6-1.14,0.09-1.38   c2.61-0.81,4.53-6.36,4.53-13.05c0-3.84-0.45-6.45-1.92-11.01c-3.93-12.06-11.938-27-21.12-39.39   c-9.21-12.39-20.16-23.13-35.01-34.26c-18.9-14.16-37.56-24.39-54-29.64c-22.41-7.11-56.67-11.94-69.6-9.78   c-5.973,0.99-10.893,2.55-15.54,4.86c-2.88,1.47-4.44,2.58-6.87,4.83c-3.87,3.63-4.59,3.48-12.84-2.67   c-7.23-5.37-14.91-9.78-20.433-11.73c-11.397-3.99-27.777-6.66-49.619-8.01c-3.095-0.199-11.979-0.387-19.351-0.459v18.3   c11.595,0.07,24.93,0.25,28.05,0.429c27.722,1.62,45.45,5.43,54.813,11.76c5.52,3.75,8.607,8.1,12.21,17.13   c3.567,8.94,9.06,20.25,14.16,29.19c8.157,14.25,15.6,24.66,26.1,36.48c18.75,21.09,28.86,30.57,41.37,38.82   c6.479,4.26,7.26,4.68,27.3,14.64c17.7,8.79,27.72,14.04,35.25,18.45c5.28,3.09,7.89,5.7,9.93,9.78   c1.381,2.79,1.473,3.06,1.563,5.88c0.147,3.63-0.15,4.41-3.99,10.05c-5.28,7.8-10.05,13.74-12.84,16.02   c-2.49,2.07-4.23,2.58-8.79,2.58h-3.9l-2.397-1.17c-2.88-1.438-5.46-3.897-7.263-6.93c-0.657-1.17-2.188-4.47-3.357-7.35   c-5.79-14.25-8.61-18.12-21-28.65c-10.44-8.91-15.96-13.98-27.24-25.17c-18.63-18.45-29.85-31.02-48.57-54.33   c-3.96-4.95-8.729-10.77-10.618-12.9c-4.409-5.04-12.512-13.14-16.319-16.32c-6.392-5.28-13.563-9.45-19.65-11.37   c-5.489-1.74-7.38-2.01-14.1-2.01c-5.67,0.03-6.933,0.12-16.2,1.44c-19.92,2.79-25.62,3.33-34.5,3.36v34.411   c3.061,0.025,6.425,0.156,9.45,0.389c3.3,0.24,9.84,0.78,14.55,1.17c15.6,1.38,17.46,1.47,28.35,1.5   c11.37,0.06,12.48,0.18,16.65,1.62c6.12,2.13,11.91,6.81,19.32,15.66c2.01,2.4,7.68,9.54,12.63,15.9   c23.04,29.7,30.84,38.85,45.72,53.7c11.49,11.46,19.65,18.69,35.16,31.11c6.6,5.28,7.38,6.18,8.07,9.21   c0.987,4.5-2.58,8.16-8.61,8.82c-8.79,0.987-18.51-2.61-43.44-16.143c-4.77-2.58-10.229-5.46-12.06-6.39   c-8.49-4.2-14.97-9.78-19.53-16.8c-0.84-1.29-3.33-5.882-5.488-10.2c-10.5-20.853-18.539-33.45-27.149-42.48   c-8.58-9.03-15.48-13.02-25.53-14.7c-10.957-1.863-29.533-2.784-48.09-2.781v19.72c7.91,0.022,16.262,0.185,22.2,0.461   c23.25,1.05,40.05,4.14,47.01,8.64c2.19,1.41,2.61,1.921,2.37,2.853c-0.33,1.319-3.39,4.29-5.37,5.28   c-3.869,1.889-0.692,1.8-66.21,1.8v13.664c7.232-0.002,15.533-0.019,25.05-0.044c22.681-0.063,38.46-1.92,51.96-6.183   c2.16-0.659,4.17-1.14,4.44-1.05c1.08,0.42,10.05,20.19,10.05,22.2c0,0.51,0.27,1.2,0.6,1.56c0.33,0.33,1.23,1.98,2.04,3.603   c0.813,1.647,2.37,4.5,3.48,6.357c1.08,1.83,1.979,3.54,1.979,3.78c0,0.42-2.34,1.11-3.81,1.11c-1.68,0-5.79-2.82-11.04-7.62   c-1.35-1.2-3-2.49-3.69-2.852c-3-1.528-8.13-1.921-14.13-1.079c-4.107,0.601-7.26,1.351-13.17,3.181   c-12.3,3.81-19.26,4.47-48.357,4.648c-1.875,0.015-3.663,0.021-5.4,0.028v22.671c4.101,0.003,8.637,0.222,16.439,0.67   c5.971,0.36,9.118,0.393,14.698,0.15c15.66-0.66,27.48-1.891,34.263-3.57c1.229-0.33,5.52-1.71,9.479-3.12   c3.99-1.408,8.73-2.938,10.5-3.39c3.03-0.75,3.72-0.811,9.72-0.84c8.433-0.03,9.303,0.239,9.303,3.029   c0,0.778-0.303,1.648-0.843,2.521c-2.79,4.38-20.188,15.45-32.79,20.851c-19.56,8.369-27.027,10.262-46.77,11.881   c-3.25,0.271-13.62,0.405-24,0.404v12.953c4.785,0,9.57,0.007,13.2,0.021c11.067,0.091,13.199,0.181,13.199,0.54   c0,0.54,0.148,0.54,2.221-0.182c1.77-0.63,6.6-1.5,11.52-2.068c1.5-0.182,3.933-0.479,5.4-0.631   c1.439-0.181,4.229-0.448,6.21-0.568c2.79-0.182,4.05-0.42,5.58-1.05c1.08-0.421,2.1-0.78,2.28-0.78c0.18,0,0.39-0.12,0.448-0.24   c0.092-0.3,8.46-5.91,10.142-6.84c0.568-0.3,1.108-0.66,1.2-0.75c0.09-0.12,4.68-3.12,10.197-6.72   c5.521-3.57,11.49-7.53,13.29-8.73c1.771-1.229,3.421-2.22,3.631-2.22c0.239,0,0.479-0.24,0.54-0.54   c0.182-0.69,6.659-5.19,10.352-7.17c3.989-2.13,7.02-3.09,9.78-3.09h2.22l9.72,4.8c5.34,2.64,10.23,5.22,10.83,5.7   c0.601,0.51,1.47,0.897,1.89,0.897c0.45,0,2.313,0.603,4.143,1.32c1.857,0.72,4.59,1.71,6.06,2.188   c1.5,0.449,2.761,0.932,2.79,1.052c0.062,0.147,0.57,0.238,1.142,0.238c0.721,0,1.021-0.148,1.021-0.448   c0-0.393,0.9-0.45,6.24-0.45c16.47,0,30.239-2.521,40.107-7.352c3.54-1.738,6.393-3.988,7.053-5.551c0.42-1.05,0.54-1.05,4.35-0.42   c3.84,0.63,15.12,0.9,19.38,0.45c12.87-1.32,24.42-5.91,33.603-13.29c4.107-3.3,6.63-6.149,8.158-9.21   c1.229-2.46,1.262-2.61,1.262-5.55c0-2.94-0.03-3.12-1.23-5.58c-0.688-1.41-1.859-3.33-2.609-4.261   c-0.778-0.932-1.408-1.829-1.408-1.949c0-0.15,1.528-0.24,3.39-0.15c2.88,0.091,3.78,0,6.3-0.659   c9.24-2.37,17.432-8.971,21.182-17.04c1.738-3.688,2.159-5.521,2.341-10.438C847.29,404.46,846.81,401.16,845.37,397.56z    M825.93,416.94c-2.1,4.17-6.479,5.277-12.42,3.18c-4.05-1.47-7.56-3.72-14.64-9.48c-16.92-13.8-31.44-24.208-61.47-44.188   c-19.473-12.96-25.11-16.86-33.69-23.28c-24.06-18.09-42.99-36.09-47.88-45.57c-2.88-5.58-3.18-10.8-0.75-13.11   c1.41-1.32,3.42-1.86,8.07-2.22c6.869-0.48,10.38-0.87,16.197-1.8c11.94-1.86,16.021-2.43,19.65-2.67c6-0.39,22.021-0.15,26.7,0.42   c7.53,0.93,15.99,2.82,23.31,5.25c17.82,5.91,31.5,15.15,44.88,30.33c9.66,10.98,22.95,31.44,25.71,39.57   c0.813,2.43,0.813,5.13,0,5.88c-1.197,1.08-5.01,0.03-9.3-2.58c-6.3-3.81-12.989-9.87-20.64-18.69   c-9.9-11.37-18.78-19.26-26.16-23.25c-6.45-3.42-9.9-3.18-12.12,0.87c-0.75,1.35-0.84,1.8-0.72,3.45   c0.24,3.66,3.45,8.97,11.64,19.17c9,11.22,19.353,22.38,42.99,46.32c8.7,8.79,16.62,17.07,17.61,18.42   C827.19,408.63,828.06,412.71,825.93,416.94z" style="stroke:black;fill:#BFDAE3"/><path id="180623552" parent_id="180608862" order="11" structure_id="1" d="M653.4,335.55   c0,1.47,3.479,6.78,7.438,11.37c6.063,7.02,22.98,25.89,28.53,31.83c17.938,19.14,26.22,27.03,37.229,35.37   c7.44,5.67,14.853,10.14,16.053,9.66c0.96-0.36,0.33-1.32-3.092-4.683c-3.868-3.81-9-8.067-18.358-15.27   c-3.392-2.61-7.892-6.271-10.05-8.16c-6.24-5.46-14.882-14.34-20.46-20.97c-5.4-6.45-8.91-10.38-18.78-21   c-9.931-10.68-17.643-18.6-18.09-18.6C653.58,335.1,653.4,335.31,653.4,335.55z" style="stroke:black;fill:#BFDAE3"/><path id="180623552" parent_id="180608862" order="12" structure_id="1" d="M562.86,542.19c-1.771-1.353-3.45-2.883-3.75-3.393c-0.33-0.51-0.78-0.897-1.143-0.897   c-0.33,0-1.95-1.08-3.63-2.4c-1.648-1.32-3.18-2.4-3.357-2.4c-0.183,0-0.843,0.78-1.44,1.74c-3.3,5.102-6.48,8.19-8.85,8.641   c-0.229,0.045-0.457,0.057-0.69,0.055V574.2c4.29,0,6-0.09,6-0.33c0-0.21-0.54-1.2-1.17-2.22c-2.58-4.053-3.48-7.44-3.271-12.21   c0.183-3.87,0.99-6.36,3.063-9.48c1.77-2.61,3.84-4.35,6-5.01c1.92-0.57,6.24-0.57,10.83,0c1.979,0.24,3.84,0.45,4.14,0.45   C566.7,545.4,565.98,544.53,562.86,542.19z" style="stroke:black;fill:#BFDAE3"/><path id="180623552" parent_id="180608862" order="13" structure_id="1" d="M600.69,692.85c-4.893-1.47-6.423-2.067-9.48-3.688c-2.37-1.23-4.41-2.91-4.41-3.63   c0-0.12,0.271-0.48,0.63-0.813c0.723-0.63,3.48-0.777,6.813-0.33c1.528,0.21,1.857,0.183,1.857-0.147c0-0.3-1.617-0.933-5.01-1.98   c-7.95-2.46-12.66-3.567-19.83-4.68c-12.21-1.95-14.397-2.91-12.688-5.7c0.75-1.229,2.43-2.729,3.3-3.03   c0.78-0.237,0.78-0.21-0.12-3.33c-1.771-6.09-3.99-19.229-5.4-31.68l-0.18-1.71l-1.47,0.18c-1.23,0.15-1.771,0.03-3.15-0.657   c-4.857-2.37-5.817-9.48-1.8-13.41c1.41-1.38,3.6-2.16,5.28-1.893l1.2,0.21l-0.183-1.77c-0.09-0.96-0.63-7.95-1.2-15.54   c-0.6-7.979-1.229-14.55-1.5-15.6c-1.14-4.473-4.107-8.433-6.81-9.093c-0.779-0.192-3.68-0.307-6.54-0.324v14.477   c0.6-0.049,1.181,0.618,1.771,2.021c1.319,3.028,1.562,5.039,1.829,15.721c0.9,34.92,1.021,44.13,0.633,50.25   c-0.57,9.479-1.11,14.37-1.683,15c-0.42,0.479-0.42,0.75,0.271,3.33c1.528,5.97,2.159,16.5,1.38,23.817   c-0.15,1.473-0.21,2.73-0.15,2.79c0.183,0.183,6.721-3.06,6.75-3.357c0-0.12-0.42-0.723-0.93-1.32c-0.87-0.99-0.93-1.17-0.813-2.91   c0.093-1.41,0.393-2.43,1.41-4.41c1.5-3.027,1.771-4.47,1.23-6.72c-0.33-1.32-0.33-1.77-0.03-2.34c1.021-1.89,5.58-2.46,10.83-1.38   c3.75,0.75,13.95,4.107,16.53,5.397c2.817,1.44,7.979,4.563,10.527,6.42c2.763,1.98,5.37,3.33,9.24,4.771   c3.78,1.41,7.41,2.31,9.271,2.31c1.29,0,1.527-0.09,1.527-0.54C609.6,696.24,606.54,694.62,600.69,692.85z M555.12,674.55   c-1.08,2.313-5.103,4.98-6.84,4.53c-1.11-0.271-2.73-3.72-2.73-5.82c0-1.438,0.09-1.71,1.021-2.52c1.02-0.9,1.02-0.9,4.107-0.78   c2.552,0.09,3.24,0.21,3.933,0.72C555.66,671.46,555.87,673.02,555.12,674.55z" style="stroke:black;fill:#BFDAE3"/><path id="180623552" parent_id="180608862" order="14" structure_id="1" d="M600.69,692.85c-4.893-1.47-6.423-2.067-9.48-3.688c-2.37-1.23-4.41-2.91-4.41-3.63   c0-0.12,0.271-0.48,0.63-0.813c0.723-0.63,3.48-0.777,6.813-0.33c1.528,0.21,1.857,0.183,1.857-0.147c0-0.3-1.617-0.933-5.01-1.98   c-7.95-2.46-12.66-3.567-19.83-4.68c-12.21-1.95-14.397-2.91-12.688-5.7c0.75-1.229,2.43-2.729,3.3-3.03   c0.78-0.237,0.78-0.21-0.12-3.33c-1.771-6.09-3.99-19.229-5.4-31.68l-0.18-1.71l-1.47,0.18c-1.23,0.15-1.771,0.03-3.15-0.657   c-4.857-2.37-5.817-9.48-1.8-13.41c1.41-1.38,3.6-2.16,5.28-1.893l1.2,0.21l-0.183-1.77c-0.09-0.96-0.63-7.95-1.2-15.54   c-0.6-7.979-1.229-14.55-1.5-15.6c-1.14-4.473-4.107-8.433-6.81-9.093c-0.779-0.192-3.68-0.307-6.54-0.324v14.477   c0.6-0.049,1.181,0.618,1.771,2.021c1.319,3.028,1.562,5.039,1.829,15.721c0.9,34.92,1.021,44.13,0.633,50.25   c-0.57,9.479-1.11,14.37-1.683,15c-0.42,0.479-0.42,0.75,0.271,3.33c1.528,5.97,2.159,16.5,1.38,23.817   c-0.15,1.473-0.21,2.73-0.15,2.79c0.183,0.183,6.721-3.06,6.75-3.357c0-0.12-0.42-0.723-0.93-1.32c-0.87-0.99-0.93-1.17-0.813-2.91   c0.093-1.41,0.393-2.43,1.41-4.41c1.5-3.027,1.771-4.47,1.23-6.72c-0.33-1.32-0.33-1.77-0.03-2.34c1.021-1.89,5.58-2.46,10.83-1.38   c3.75,0.75,13.95,4.107,16.53,5.397c2.817,1.44,7.979,4.563,10.527,6.42c2.763,1.98,5.37,3.33,9.24,4.771   c3.78,1.41,7.41,2.31,9.271,2.31c1.29,0,1.527-0.09,1.527-0.54C609.6,696.24,606.54,694.62,600.69,692.85z M555.12,674.55   c-1.08,2.313-5.103,4.98-6.84,4.53c-1.11-0.271-2.73-3.72-2.73-5.82c0-1.438,0.09-1.71,1.021-2.52c1.02-0.9,1.02-0.9,4.107-0.78   c2.552,0.09,3.24,0.21,3.933,0.72C555.66,671.46,555.87,673.02,555.12,674.55z" style="stroke:black;fill:#BFDAE3"/><path id="180623552" parent_id="180608862" order="15" structure_id="1" d="M550.5,544.95c-3.12,0.99-6.63,5.04-8.1,9.33   c-0.843,2.489-1.143,7.38-0.631,10.02c0.75,3.84,3.271,8.49,5.488,10.11c0.723,0.54,1.683,1.26,2.13,1.62l0.87,0.66l3.03-0.96   c7.68-2.37,13.2-2.433,16.53-0.183c0.6,0.42,1.197,0.75,1.35,0.75c0.45,0,0.15-17.28-0.359-20.91   c-0.601-4.317-1.561-7.857-2.398-8.88c-0.63-0.72-0.99-0.81-5.55-1.41C557.22,544.41,552.45,544.35,550.5,544.95z" style="stroke:black;fill:#BFDAE3"/><path id="180623552" parent_id="180608862" order="16" structure_id="1" d="M694.05,503.73   c-3.21,0.537-5.76,1.197-6.688,1.77c-1.381,0.84-1.32,2.01,0.147,3.3c2.46,2.16,4.8,2.61,10.08,1.95c2.07-0.24,4.2-0.36,4.74-0.27   c2.25,0.447,3.93,1.77,6.359,5.01c2.698,3.63,4.561,5.13,8.698,7.14c3.393,1.62,5.88,1.89,8.25,0.87   c3.813-1.65,4.893-5.43,2.223-7.8c-1.41-1.29-3.33-1.98-6.513-2.433c-4.229-0.567-7.317-1.92-11.397-4.947   C704.28,504.12,699.69,502.77,694.05,503.73z" style="stroke:black;fill:#BFDAE3"/><path id="180623552" parent_id="180608862" order="17" structure_id="1" d="M654.6,475.98   c-3.21,1.077-7.47,3.42-11.76,6.42c-3.27,2.31-3.688,2.697-3.78,3.54c-0.21,2.22,2.25,7.857,5.013,11.52   c1.83,2.43,5.46,5.79,7.62,7.08c2.607,1.56,5.697,2.52,8.697,2.7l2.643,0.147l-0.183-1.02c-0.27-1.47,0.813-4.23,2.19-5.55   c1.41-1.38,6.18-3.723,10.319-5.04c2.851-0.933,4.738-1.41,10.29-2.7c1.29-0.271,1.5-0.45,1.591-1.11   c0.119-1.05-1.353-2.938-4.143-5.31c-1.89-1.59-3.777-2.643-11.97-6.66l-9.72-4.8h-2.28C657.48,475.2,656.22,475.44,654.6,475.98z" style="stroke:black;fill:#BFDAE3"/><path id="180623552" parent_id="180608862" order="18" structure_id="1" d="M556.26,516.3c-5.607,0-12.18-0.06-14.64-0.09c-0.41-0.01-0.966-0.019-1.62-0.024v27.339   c2.744,0.107,5.283-2.511,10.5-10.122c3.72-5.433,6.24-8.643,8.76-11.133c1.893-1.857,5.37-4.438,6.63-4.947   c0.303-0.092,0.513-0.36,0.513-0.603C566.4,516.36,564.72,516.3,556.26,516.3z" style="stroke:black;fill:#BFDAE3"/><path id="180623552" parent_id="180608862" order="19" structure_id="1" d="M637.62,450.81c-1.11-1.857-2.67-4.71-3.48-6.357c-1.647-3.393-2.55-4.44-5.34-6.3   c-4.05-2.67-8.729-4.53-14.1-5.58c-6.75-1.29-11.643-1.053-17.79,0.897c-7.83,2.49-16.47,3.75-33.813,4.893   c-3.93,0.255-13.515,0.382-23.1,0.382v13.266c1.737-0.007,3.525-0.016,5.4-0.027c29.1-0.182,36.06-0.842,48.357-4.649   c5.91-1.83,9.063-2.58,13.17-3.18c6-0.843,11.131-0.45,14.131,1.079c0.689,0.358,2.342,1.648,3.689,2.851   c5.25,4.8,9.36,7.62,11.04,7.62c1.47,0,3.81-0.69,3.81-1.11C639.6,454.35,638.7,452.64,637.62,450.81z" style="stroke:black;fill:#BFDAE3"/><path id="180623552" parent_id="180608862" order="20" structure_id="1" d="M609.21,400.77c-6.96-4.5-23.76-7.587-47.01-8.64c-5.938-0.276-14.29-0.439-22.2-0.461V410.7   c65.518,0,62.341,0.089,66.21-1.8c1.98-0.99,5.04-3.96,5.37-5.28C611.82,402.69,611.4,402.18,609.21,400.77z" style="stroke:black;fill:#BFDAE3"/><path id="180623552" parent_id="180608862" order="21" structure_id="1" d="M697.5,492.66c0,0.72-0.09,1.77-0.18,2.37   l-0.183,1.08l2.79,0.18c3.75,0.24,6.57,1.08,10.92,3.21c4.353,2.1,7.23,4.11,13.353,9.21c7.02,5.88,10.83,10.2,16.62,18.93   c6.027,9.091,9.51,15.933,12.21,24.063c2.817,8.52,3.93,15.567,3.96,24.6c0.027,17.7-5.4,36.813-14.223,50.103   c-4.617,6.96-11.188,12.72-18.75,16.407c-4.527,2.223-7.287,2.04-9.09-0.54c-1.05-1.527-1.71-1.527-1.92,0.03   c-0.09,0.66-0.45,1.8-0.777,2.521c-0.78,1.59-1.86,2.13-3.843,1.89c-1.229-0.12-1.47-0.06-1.979,0.57   c-1.17,1.527-3.99,2.55-12.96,4.739l-8.67,2.158l-1.92,3.42c-4.71,8.433-9.933,14.013-15.063,16.08   c-1.647,0.66-2.25,0.75-3.81,0.603l-1.893-0.15v1.11c0,2.58-3.09,6.99-5.97,8.43c-2.25,1.17-4.74,1.62-7.68,1.44   c-9.03-0.57-16.71-5.61-19.021-12.45c-2.067-6.09,1.29-10.26,8.67-10.771c3.813-0.27,6.393,0.723,11.521,4.41   c4.08,2.91,9.569,5.433,10.29,4.683c0.12-0.12-0.03-0.843-0.3-1.62c-1.53-3.99-3.421-10.23-5.04-16.41   c-2.341-9-3.15-11.28-5.553-16.11c-8.88-17.729-24.3-37.77-48.72-63.18c-7.68-8.01-17.49-17.46-18.12-17.46   c-0.239,0-0.54,0.27-0.63,0.63c-0.39,1.14-4.29,6.689-7.17,10.14c-2.88,3.42-2.88,3.42-2.88,5.103c0,0.897,0.21,3.27,0.479,5.22   c0.602,4.29,0.329,6.54-1.08,9.39c-1.591,3.24-4.229,4.92-7.021,4.5c-1.83-0.3-4.92-1.619-7.17-3.06   c-1.11-0.72-2.19-1.32-2.37-1.32c-0.21,0-0.271,0.48-0.148,1.41c0.091,0.812,0.601,7.5,1.141,14.94l0.989,13.5l1.351,0.897   c2.79,1.893,4.08,6.183,2.88,9.78c-0.54,1.56-2.97,4.47-3.78,4.47c-1.229,0,2.94,26.79,5.433,34.92l0.6,1.86l3.813,0.54   c5.43,0.72,17.697,3,23.188,4.26c9.602,2.22,18.24,4.8,31.95,9.54c3.149,1.08,8.399,2.79,11.7,3.811   c6.75,2.069,8.13,2.671,8.607,3.75c0.57,1.229-0.42,2.762-2.397,3.75c-3.721,1.859-9.721,3.302-13.71,3.359   c-3.15,0-4.2-0.39-7.381-2.97c-3.932-3.12-8.189-5.55-13.649-7.74c-1.5-0.6-3.03-1.08-3.391-1.08c-1.109,0-0.689,0.72,0.96,1.62   c5.311,2.97,10.771,7.53,12.091,10.14c0.96,1.86,0.93,2.73-0.091,3.54c-0.812,0.631-1.051,0.66-4.892,0.513   c-2.698-0.12-5.1-0.42-7.229-0.933c-3.15-0.72-7.261-2.188-8.58-3.06c-0.96-0.603-1.29-0.54-1.29,0.3s-0.42,1.26-1.59,1.53   c-0.45,0.12-0.813,0.357-0.813,0.567c0.03,0.183,0.932,0.9,2.04,1.563l2.012,1.26l6.75,0.15c4.351,0.09,7.351,0.3,8.431,0.6   c3.42,0.84,4.71,2.22,3.898,4.2c-0.688,1.71-0.721,2.01-0.271,2.01c0.239,0,3.239-1.08,6.688-2.37   c31.171-11.729,64.739-27.33,84.569-39.3c8.91-5.398,15.12-9.96,21.96-16.229c15.09-13.739,25.74-29.489,31.261-46.199   c2.369-7.142,3.062-12.12,3.271-23.73c0.33-17.85-1.38-30.329-5.341-38.909c-2.34-5.068-8.729-14.729-14.521-21.96   c-5.46-6.811-13.92-15.479-18.3-18.721c-2.34-1.77-9.51-5.43-14.399-7.41c-4.229-1.68-9.631-3.567-10.261-3.567   C697.62,491.4,697.5,491.82,697.5,492.66z" style="stroke:black;fill:#BFDAE3"/><path id="180623552" parent_id="180608862" order="22" structure_id="1" d="M729.9,472.62c-0.69-3.03-1.473-3.93-8.07-9.21c-15.51-12.42-23.67-19.65-35.16-31.11   c-14.88-14.85-22.68-24-45.72-53.7c-4.95-6.36-10.62-13.5-12.63-15.9c-7.41-8.85-13.2-13.53-19.32-15.66   c-4.17-1.44-5.28-1.56-16.65-1.62c-10.89-0.03-12.75-0.12-28.35-1.5c-12.11-1.038-18.916-1.509-24-1.574v12.616   c5.396,0.013,10.987,0.097,13.65,0.238c13.77,0.72,31.14,2.88,38.67,4.77c11.067,2.82,20.91,8.58,27.84,16.32   c6.24,6.93,24.39,29.82,33.24,41.91c6.72,9.18,10.56,13.74,19.857,23.607c5.88,6.21,14.643,14.643,18.45,17.7   c1.2,0.96,2.04,1.771,1.92,1.83c-0.51,0.18-7.41-2.7-11.55-4.83c-13.17-6.72-24.66-16.74-34.08-29.67   c-6.87-9.45-11.97-17.58-17.4-27.84c-3.567-6.75-5.43-9.84-7.59-12.6c-5.397-6.93-12.09-12.78-18.81-16.44   c-5.37-2.91-13.683-5.43-21.75-6.63c-5.4-0.78-22.95-2.61-28.893-3.03c-2.968-0.195-8.265-0.292-13.56-0.292v11.941   c18.557-0.003,37.133,0.918,48.09,2.781c10.05,1.68,16.95,5.67,25.53,14.7c8.609,9.03,16.648,21.627,27.148,42.48   c2.159,4.32,4.649,8.91,5.489,10.2c4.563,7.02,11.04,12.6,19.53,16.8c1.83,0.93,7.29,3.81,12.06,6.39   c24.933,13.53,34.65,17.13,43.44,16.143C727.32,480.78,730.89,477.12,729.9,472.62z" style="stroke:black;fill:#BFDAE3"/><path id="180623552" parent_id="180608862" order="23" structure_id="1" d="M790.74,440.7c-0.09-2.82-0.183-3.09-1.563-5.88c-2.04-4.08-4.647-6.69-9.93-9.78   c-7.53-4.41-17.55-9.66-35.25-18.45c-20.04-9.96-20.82-10.38-27.3-14.64c-12.511-8.25-22.62-17.73-41.37-38.82   c-10.5-11.82-17.94-22.23-26.1-36.48c-5.103-8.94-10.593-20.25-14.16-29.19c-3.603-9.03-6.69-13.38-12.21-17.13   c-9.36-6.33-27.093-10.14-54.813-11.76c-3.12-0.179-16.455-0.358-28.05-0.429v26.455c7.691,0.01,15.898,0.144,30.75,0.404   c18.21,0.33,36,1.02,39.061,1.5c2.039,0.33,3.392,0.84,3.392,1.26c0,0.9-5.79,2.25-13.2,3.09c-5.7,0.63-9.33,0.75-36.3,1.17   c-9.424,0.148-16.542,0.223-23.7,0.225v15.706c8.88-0.03,14.58-0.57,34.5-3.36c9.271-1.32,10.53-1.41,16.2-1.44   c6.72,0,8.608,0.27,14.1,2.01c6.09,1.92,13.26,6.09,19.65,11.37c3.81,3.18,11.91,11.28,16.317,16.32   c1.893,2.13,6.66,7.95,10.62,12.9c18.723,23.31,29.94,35.88,48.57,54.33c11.28,11.188,16.8,16.26,27.24,25.17   c12.39,10.53,15.21,14.4,21,28.65c1.17,2.88,2.7,6.18,3.357,7.35c1.802,3.03,4.382,5.49,7.263,6.93l2.397,1.17h3.9   c4.56,0,6.3-0.51,8.79-2.578c2.79-2.279,7.56-8.222,12.84-16.021C790.59,445.11,790.89,444.33,790.74,440.7z M742.65,423.78   c-1.2,0.479-8.61-3.99-16.053-9.66c-11.01-8.34-19.29-16.23-37.229-35.37c-5.55-5.94-22.47-24.81-28.53-31.83   c-4.83-5.61-8.938-12.42-7.47-12.42c0.147,0,2.188,2.01,4.59,4.44c11.49,11.82,25.89,27.54,32.73,35.76   c5.577,6.63,14.22,15.51,20.46,20.97c2.157,1.89,6.657,5.55,10.05,8.16c9.357,7.2,14.49,11.46,18.357,15.27   C742.98,422.46,743.61,423.42,742.65,423.78z" style="stroke:black;fill:#BFDAE3"/><path id="180623552" parent_id="180608862" order="24" structure_id="1" d="M635.1,464.58c-6,0.03-6.688,0.09-9.72,0.84c-1.77,0.45-6.51,1.98-10.5,3.39   c-3.96,1.41-8.25,2.79-9.479,3.12c-6.78,1.683-18.603,2.91-34.263,3.57c-5.58,0.24-8.729,0.21-14.697-0.15   c-7.806-0.447-12.342-0.667-16.44-0.67v28.585c10.38,0.001,20.75-0.134,24-0.403c19.74-1.62,27.21-3.513,46.771-11.88   c12.602-5.4,30-16.473,32.789-20.853c0.54-0.87,0.843-1.74,0.843-2.52C644.4,464.82,643.53,464.55,635.1,464.58z" style="stroke:black;fill:#BFDAE3"/><path id="180623552" parent_id="180608862" order="25" structure_id="1" d="M608.34,286.53c-9.004-0.885-41.121-1.59-68.34-1.683v7.105c25.957,0,51.915-0.367,58.8-1.102   c8.22-0.87,14.103-2.13,14.103-3.03C612.9,287.19,611.76,286.86,608.34,286.53z" style="stroke:black;fill:#BFDAE3"/><path id="180623552" parent_id="180608862" order="26" structure_id="1" d="M621.45,417.09c-0.271-0.09-2.28,0.393-4.44,1.05c-13.5,4.263-29.277,6.12-51.96,6.183   c-9.517,0.025-17.815,0.042-25.05,0.044v14.444c3.956,0.006,7.842-0.054,11.55-0.181c21.72-0.75,35.58-2.25,43.65-4.74   c1.89-0.6,4.14-1.26,4.95-1.5c2.43-0.72,9.18-0.84,12.72-0.27c6.03,1.02,11.91,3.24,16.17,6.147c2.04,1.383,2.46,1.5,2.46,0.66   C631.5,437.22,622.38,417.48,621.45,417.09z" style="stroke:black;fill:#BFDAE3"/><path id="180623552" parent_id="180608862" order="27" structure_id="1" d="M729.9,472.62c-0.69-3.03-1.473-3.93-8.07-9.21c-15.51-12.42-23.67-19.65-35.16-31.11   c-14.88-14.85-22.68-24-45.72-53.7c-4.95-6.36-10.62-13.5-12.63-15.9c-7.41-8.85-13.2-13.53-19.32-15.66   c-4.17-1.44-5.28-1.56-16.65-1.62c-10.89-0.03-12.75-0.12-28.35-1.5c-12.11-1.038-18.916-1.509-24-1.574v12.616   c5.396,0.013,10.987,0.097,13.65,0.238c13.77,0.72,31.14,2.88,38.67,4.77c11.067,2.82,20.91,8.58,27.84,16.32   c6.24,6.93,24.39,29.82,33.24,41.91c6.72,9.18,10.56,13.74,19.857,23.607c5.88,6.21,14.643,14.643,18.45,17.7   c1.2,0.96,2.04,1.771,1.92,1.83c-0.51,0.18-7.41-2.7-11.55-4.83c-13.17-6.72-24.66-16.74-34.08-29.67   c-6.87-9.45-11.97-17.58-17.4-27.84c-3.567-6.75-5.43-9.84-7.59-12.6c-5.397-6.93-12.09-12.78-18.81-16.44   c-5.37-2.91-13.683-5.43-21.75-6.63c-5.4-0.78-22.95-2.61-28.893-3.03c-2.968-0.195-8.265-0.292-13.56-0.292v11.941   c18.557-0.003,37.133,0.918,48.09,2.781c10.05,1.68,16.95,5.67,25.53,14.7c8.609,9.03,16.648,21.627,27.148,42.48   c2.159,4.32,4.649,8.91,5.489,10.2c4.563,7.02,11.04,12.6,19.53,16.8c1.83,0.93,7.29,3.81,12.06,6.39   c24.933,13.53,34.65,17.13,43.44,16.143C727.32,480.78,730.89,477.12,729.9,472.62z" style="stroke:black;fill:#BFDAE3"/><path id="180623552" parent_id="180608862" order="28" structure_id="1" d="M790.74,440.7c-0.09-2.82-0.183-3.09-1.563-5.88c-2.04-4.08-4.647-6.69-9.93-9.78   c-7.53-4.41-17.55-9.66-35.25-18.45c-20.04-9.96-20.82-10.38-27.3-14.64c-12.511-8.25-22.62-17.73-41.37-38.82   c-10.5-11.82-17.94-22.23-26.1-36.48c-5.103-8.94-10.593-20.25-14.16-29.19c-3.603-9.03-6.69-13.38-12.21-17.13   c-9.36-6.33-27.093-10.14-54.813-11.76c-3.12-0.179-16.455-0.358-28.05-0.429v26.455c7.691,0.01,15.898,0.144,30.75,0.404   c18.21,0.33,36,1.02,39.061,1.5c2.039,0.33,3.392,0.84,3.392,1.26c0,0.9-5.79,2.25-13.2,3.09c-5.7,0.63-9.33,0.75-36.3,1.17   c-9.424,0.148-16.542,0.223-23.7,0.225v15.706c8.88-0.03,14.58-0.57,34.5-3.36c9.271-1.32,10.53-1.41,16.2-1.44   c6.72,0,8.608,0.27,14.1,2.01c6.09,1.92,13.26,6.09,19.65,11.37c3.81,3.18,11.91,11.28,16.317,16.32   c1.893,2.13,6.66,7.95,10.62,12.9c18.723,23.31,29.94,35.88,48.57,54.33c11.28,11.188,16.8,16.26,27.24,25.17   c12.39,10.53,15.21,14.4,21,28.65c1.17,2.88,2.7,6.18,3.357,7.35c1.802,3.03,4.382,5.49,7.263,6.93l2.397,1.17h3.9   c4.56,0,6.3-0.51,8.79-2.578c2.79-2.279,7.56-8.222,12.84-16.021C790.59,445.11,790.89,444.33,790.74,440.7z M742.65,423.78   c-1.2,0.479-8.61-3.99-16.053-9.66c-11.01-8.34-19.29-16.23-37.229-35.37c-5.55-5.94-22.47-24.81-28.53-31.83   c-4.83-5.61-8.938-12.42-7.47-12.42c0.147,0,2.188,2.01,4.59,4.44c11.49,11.82,25.89,27.54,32.73,35.76   c5.577,6.63,14.22,15.51,20.46,20.97c2.157,1.89,6.657,5.55,10.05,8.16c9.357,7.2,14.49,11.46,18.357,15.27   C742.98,422.46,743.61,423.42,742.65,423.78z" style="stroke:black;fill:#BFDAE3"/><path id="180623552" parent_id="180608862" order="29" structure_id="1" d="M699,277.8c-3.63,0.24-7.71,0.81-19.65,2.67   c-5.817,0.93-9.33,1.32-16.197,1.8c-4.65,0.36-6.66,0.9-8.07,2.22c-2.43,2.31-2.13,7.53,0.75,13.11   c4.14,8.01,18.12,21.99,37.32,37.35c12.987,10.38,19.92,15.3,44.25,31.5c30.027,19.98,44.55,30.39,61.47,44.188   c7.08,5.763,10.59,8.013,14.64,9.48c5.94,2.1,10.32,0.99,12.42-3.181c2.13-4.229,1.263-8.312-3.027-13.979   c-0.99-1.35-8.91-9.63-17.61-18.42c-23.64-23.94-33.99-35.1-42.99-46.32c-8.188-10.2-11.397-15.51-11.64-19.17   c-0.12-1.65-0.03-2.1,0.72-3.45c2.22-4.05,5.67-4.29,12.12-0.87c7.38,3.99,16.26,11.88,26.16,23.25   c7.647,8.82,14.34,14.88,20.64,18.69c4.29,2.61,8.103,3.66,9.3,2.58c0.813-0.75,0.813-3.45,0-5.88   c-2.76-8.13-16.05-28.59-25.71-39.57c-13.38-15.18-27.06-24.42-44.88-30.33c-7.317-2.43-15.779-4.32-23.31-5.25   C721.02,277.65,705,277.41,699,277.8z M717.45,330.36c10.02,2.94,26.91,11.13,38.7,18.78c12.777,8.28,25.317,20.07,34.947,32.91   c5.133,6.81,9.24,13.8,9.393,15.9c0.06,0.75-0.03,0.897-0.57,0.84c-2.25-0.24-13.109-8.43-38.07-28.74   c-15.447-12.57-17.1-13.89-30.3-24.15c-18.3-14.22-20.43-16.02-19.68-16.5C712.44,329.07,713.85,329.31,717.45,330.36z" style="stroke:black;fill:#BFDAE3"/><path id="180623552" parent_id="180608862" order="30" structure_id="1" d="M634.98,488.13   c-1.65,1.14-7.62,5.07-13.29,8.76c-5.643,3.66-10.29,6.78-10.29,6.933c0,0.12,0.33,0.63,0.75,1.14c1.38,1.65,2.01,4.38,2.157,9.75   l0.183,4.86l7.529,3.777c8.671,4.32,10.141,4.803,14.131,4.563c6.6-0.45,15.06-3.48,29.188-10.44c7.98-3.96,8.46-4.38,5.82-5.01   c-2.313-0.51-4.8-1.56-5.79-2.37c-0.75-0.63-0.87-0.93-0.72-1.62l0.21-0.87h-2.16c-10.92,0-20.79-8.76-23.88-21.237   C638.64,485.7,638.01,486,634.98,488.13z" style="stroke:black;fill:#BFDAE3"/><path id="180623552" parent_id="180608862" order="31" structure_id="1" d="M578.7,549.45c0,0.147,0.45,0.66,1.02,1.107   c1.143,0.9,2.28,3.03,2.28,4.2c0,0.57,0.6,1.353,2.34,2.973c20.07,19.02,40.472,41.85,51.66,57.81c1.41,1.979,2.73,3.63,2.94,3.63   c0.237,0.03,0.357-0.39,0.357-1.17c0-2.22,0.933-7.35,1.563-8.64c1.47-3.092,7.17-5.223,11.397-4.263   c4.5,1.021,9.723,4.74,11.433,8.16c1.527,3.09,4.107,14.011,4.107,17.521c0,1.05,0.271,1.71,1.38,3.33   c1.83,2.76,3.303,5.817,3.933,8.25c0.659,2.55,0.33,4.38-1.44,7.947c-1.53,3.063-3.93,5.643-6.45,6.87   c-1.647,0.813-2.01,0.87-5.46,0.87c-2.22,0-3.66,0.12-3.66,0.3c0,0.933,3.513,10.86,4.473,12.632   c1.47,2.729,2.607,3.538,4.68,3.301c3.24-0.36,8.07-3.603,11.43-7.62c2.223-2.643,5.16-7.143,6.603-10.021l1.14-2.31l-0.63-0.69   c-0.78-0.84-3.93-8.158-5.34-12.448c-1.17-3.479-2.25-8.012-2.25-9.422c0-2.97-6.54-15.328-12.48-23.607   c-9.688-13.47-24-28.021-40.618-41.313c-8.012-6.39-17.102-12.987-22.562-16.29l-1.979-1.229l-9.932-0.09   C582.15,549.18,578.7,549.24,578.7,549.45z" style="stroke:black;fill:#BFDAE3"/><path id="180623552" parent_id="180608862" order="32" structure_id="1" d="M702.45,627.54c-2.88,1.41-3.75,2.7-3.75,5.58   c0,0.87,0.27,2.64,0.6,3.897c1.26,4.98,3.813,8.07,7.53,9.213c4.83,1.47,6.27-0.45,6.27-8.463c0-5.31-0.39-7.229-1.71-8.55   c-1.438-1.47-3.237-2.277-5.34-2.43C704.52,626.67,703.98,626.79,702.45,627.54z" style="stroke:black;fill:#BFDAE3"/><path id="180623552" parent_id="180608862" order="33" structure_id="1" d="M697.5,492.66c0,0.72-0.09,1.77-0.18,2.37   l-0.183,1.08l2.79,0.18c3.75,0.24,6.57,1.08,10.92,3.21c4.353,2.1,7.23,4.11,13.353,9.21c7.02,5.88,10.83,10.2,16.62,18.93   c6.027,9.091,9.51,15.933,12.21,24.063c2.817,8.52,3.93,15.567,3.96,24.6c0.027,17.7-5.4,36.813-14.223,50.103   c-4.617,6.96-11.188,12.72-18.75,16.407c-4.527,2.223-7.287,2.04-9.09-0.54c-1.05-1.527-1.71-1.527-1.92,0.03   c-0.09,0.66-0.45,1.8-0.777,2.521c-0.78,1.59-1.86,2.13-3.843,1.89c-1.229-0.12-1.47-0.06-1.979,0.57   c-1.17,1.527-3.99,2.55-12.96,4.739l-8.67,2.158l-1.92,3.42c-4.71,8.433-9.933,14.013-15.063,16.08   c-1.647,0.66-2.25,0.75-3.81,0.603l-1.893-0.15v1.11c0,2.58-3.09,6.99-5.97,8.43c-2.25,1.17-4.74,1.62-7.68,1.44   c-9.03-0.57-16.71-5.61-19.021-12.45c-2.067-6.09,1.29-10.26,8.67-10.771c3.813-0.27,6.393,0.723,11.521,4.41   c4.08,2.91,9.569,5.433,10.29,4.683c0.12-0.12-0.03-0.843-0.3-1.62c-1.53-3.99-3.421-10.23-5.04-16.41   c-2.341-9-3.15-11.28-5.553-16.11c-8.88-17.729-24.3-37.77-48.72-63.18c-7.68-8.01-17.49-17.46-18.12-17.46   c-0.239,0-0.54,0.27-0.63,0.63c-0.39,1.14-4.29,6.689-7.17,10.14c-2.88,3.42-2.88,3.42-2.88,5.103c0,0.897,0.21,3.27,0.479,5.22   c0.602,4.29,0.329,6.54-1.08,9.39c-1.591,3.24-4.229,4.92-7.021,4.5c-1.83-0.3-4.92-1.619-7.17-3.06   c-1.11-0.72-2.19-1.32-2.37-1.32c-0.21,0-0.271,0.48-0.148,1.41c0.091,0.812,0.601,7.5,1.141,14.94l0.989,13.5l1.351,0.897   c2.79,1.893,4.08,6.183,2.88,9.78c-0.54,1.56-2.97,4.47-3.78,4.47c-1.229,0,2.94,26.79,5.433,34.92l0.6,1.86l3.813,0.54   c5.43,0.72,17.697,3,23.188,4.26c9.602,2.22,18.24,4.8,31.95,9.54c3.149,1.08,8.399,2.79,11.7,3.811   c6.75,2.069,8.13,2.671,8.607,3.75c0.57,1.229-0.42,2.762-2.397,3.75c-3.721,1.859-9.721,3.302-13.71,3.359   c-3.15,0-4.2-0.39-7.381-2.97c-3.932-3.12-8.189-5.55-13.649-7.74c-1.5-0.6-3.03-1.08-3.391-1.08c-1.109,0-0.689,0.72,0.96,1.62   c5.311,2.97,10.771,7.53,12.091,10.14c0.96,1.86,0.93,2.73-0.091,3.54c-0.812,0.631-1.051,0.66-4.892,0.513   c-2.698-0.12-5.1-0.42-7.229-0.933c-3.15-0.72-7.261-2.188-8.58-3.06c-0.96-0.603-1.29-0.54-1.29,0.3s-0.42,1.26-1.59,1.53   c-0.45,0.12-0.813,0.357-0.813,0.567c0.03,0.183,0.932,0.9,2.04,1.563l2.012,1.26l6.75,0.15c4.351,0.09,7.351,0.3,8.431,0.6   c3.42,0.84,4.71,2.22,3.898,4.2c-0.688,1.71-0.721,2.01-0.271,2.01c0.239,0,3.239-1.08,6.688-2.37   c31.171-11.729,64.739-27.33,84.569-39.3c8.91-5.398,15.12-9.96,21.96-16.229c15.09-13.739,25.74-29.489,31.261-46.199   c2.369-7.142,3.062-12.12,3.271-23.73c0.33-17.85-1.38-30.329-5.341-38.909c-2.34-5.068-8.729-14.729-14.521-21.96   c-5.46-6.811-13.92-15.479-18.3-18.721c-2.34-1.77-9.51-5.43-14.399-7.41c-4.229-1.68-9.631-3.567-10.261-3.567   C697.62,491.4,697.5,491.82,697.5,492.66z" style="stroke:black;fill:#BFDAE3"/><path id="180623552" parent_id="180608862" order="34" structure_id="1" d="M624,547.5c-1.74,0.12-6.36,0.6-10.26,1.02   c-3.933,0.423-8.61,0.78-10.44,0.78c-4.05,0-4.2,0.271-1.107,2.19c3.09,1.95,12.21,8.49,17.01,12.21   c10.05,7.8,16.92,13.857,25.8,22.77c11.25,11.25,18.811,20.73,25.021,31.32c1.801,3.06,5.278,10.11,5.278,10.68   c0,0.66,0.933,0.302,1.23-0.51c0.897-2.34,3.51-3.57,7.317-3.39c3.12,0.12,3.933,0.09,5.521-0.15c2.79-0.42,7.95,1.5,9.27,3.48   c0.393,0.567,0.813,1.08,0.96,1.14c0.15,0.06,0.843-0.33,1.53-0.84c2.4-1.74,4.83-2.07,7.38-0.99c2.012,0.84,2.04,0.63,0.12-3.66   c-0.81-1.83-3.18-8.37-5.28-14.55c-4.438-13.11-5.64-16.229-7.68-20.07c-3.18-5.97-6.57-10.197-13.35-16.83   c-8.973-8.729-15.183-13.737-23.552-18.987c-5.131-3.21-8.221-4.62-11.25-5.19C644.43,547.35,629.31,547.08,624,547.5z" style="stroke:black;fill:#BFDAE3"/><path id="180623552" parent_id="180608862" order="35" structure_id="1" d="M729.9,472.62c-0.69-3.03-1.473-3.93-8.07-9.21c-15.51-12.42-23.67-19.65-35.16-31.11   c-14.88-14.85-22.68-24-45.72-53.7c-4.95-6.36-10.62-13.5-12.63-15.9c-7.41-8.85-13.2-13.53-19.32-15.66   c-4.17-1.44-5.28-1.56-16.65-1.62c-10.89-0.03-12.75-0.12-28.35-1.5c-12.11-1.038-18.916-1.509-24-1.574v12.616   c5.396,0.013,10.987,0.097,13.65,0.238c13.77,0.72,31.14,2.88,38.67,4.77c11.067,2.82,20.91,8.58,27.84,16.32   c6.24,6.93,24.39,29.82,33.24,41.91c6.72,9.18,10.56,13.74,19.857,23.607c5.88,6.21,14.643,14.643,18.45,17.7   c1.2,0.96,2.04,1.771,1.92,1.83c-0.51,0.18-7.41-2.7-11.55-4.83c-13.17-6.72-24.66-16.74-34.08-29.67   c-6.87-9.45-11.97-17.58-17.4-27.84c-3.567-6.75-5.43-9.84-7.59-12.6c-5.397-6.93-12.09-12.78-18.81-16.44   c-5.37-2.91-13.683-5.43-21.75-6.63c-5.4-0.78-22.95-2.61-28.893-3.03c-2.968-0.195-8.265-0.292-13.56-0.292v11.941   c18.557-0.003,37.133,0.918,48.09,2.781c10.05,1.68,16.95,5.67,25.53,14.7c8.609,9.03,16.648,21.627,27.148,42.48   c2.159,4.32,4.649,8.91,5.489,10.2c4.563,7.02,11.04,12.6,19.53,16.8c1.83,0.93,7.29,3.81,12.06,6.39   c24.933,13.53,34.65,17.13,43.44,16.143C727.32,480.78,730.89,477.12,729.9,472.62z" style="stroke:black;fill:#BFDAE3"/><path id="180623552" parent_id="180608862" order="36" structure_id="1" d="M790.74,440.7c-0.09-2.82-0.183-3.09-1.563-5.88c-2.04-4.08-4.647-6.69-9.93-9.78   c-7.53-4.41-17.55-9.66-35.25-18.45c-20.04-9.96-20.82-10.38-27.3-14.64c-12.511-8.25-22.62-17.73-41.37-38.82   c-10.5-11.82-17.94-22.23-26.1-36.48c-5.103-8.94-10.593-20.25-14.16-29.19c-3.603-9.03-6.69-13.38-12.21-17.13   c-9.36-6.33-27.093-10.14-54.813-11.76c-3.12-0.179-16.455-0.358-28.05-0.429v26.455c7.691,0.01,15.898,0.144,30.75,0.404   c18.21,0.33,36,1.02,39.061,1.5c2.039,0.33,3.392,0.84,3.392,1.26c0,0.9-5.79,2.25-13.2,3.09c-5.7,0.63-9.33,0.75-36.3,1.17   c-9.424,0.148-16.542,0.223-23.7,0.225v15.706c8.88-0.03,14.58-0.57,34.5-3.36c9.271-1.32,10.53-1.41,16.2-1.44   c6.72,0,8.608,0.27,14.1,2.01c6.09,1.92,13.26,6.09,19.65,11.37c3.81,3.18,11.91,11.28,16.317,16.32   c1.893,2.13,6.66,7.95,10.62,12.9c18.723,23.31,29.94,35.88,48.57,54.33c11.28,11.188,16.8,16.26,27.24,25.17   c12.39,10.53,15.21,14.4,21,28.65c1.17,2.88,2.7,6.18,3.357,7.35c1.802,3.03,4.382,5.49,7.263,6.93l2.397,1.17h3.9   c4.56,0,6.3-0.51,8.79-2.578c2.79-2.279,7.56-8.222,12.84-16.021C790.59,445.11,790.89,444.33,790.74,440.7z M742.65,423.78   c-1.2,0.479-8.61-3.99-16.053-9.66c-11.01-8.34-19.29-16.23-37.229-35.37c-5.55-5.94-22.47-24.81-28.53-31.83   c-4.83-5.61-8.938-12.42-7.47-12.42c0.147,0,2.188,2.01,4.59,4.44c11.49,11.82,25.89,27.54,32.73,35.76   c5.577,6.63,14.22,15.51,20.46,20.97c2.157,1.89,6.657,5.55,10.05,8.16c9.357,7.2,14.49,11.46,18.357,15.27   C742.98,422.46,743.61,423.42,742.65,423.78z" style="stroke:black;fill:#BFDAE3"/><path id="180623552" parent_id="180608862" order="37" structure_id="1" d="M665.55,517.35   c-15,7.563-24.09,10.74-30.81,10.71c-1.95,0-2.643,0.093-2.643,0.36c0,0.24-0.27,0.75-0.63,1.2l-0.63,0.78l0.72,2.04   c0.99,2.85,0.99,7.05-0.027,9.27c-0.723,1.59-2.7,3.72-4.08,4.35c-0.42,0.183-0.75,0.54-0.75,0.78c0,0.393,0.63,0.42,4.29,0.24   c4.68-0.21,13.59,0.18,16.8,0.72c1.109,0.21,2.13,0.271,2.25,0.183c0.09-0.12-0.062-0.57-0.36-1.021   c-0.988-1.56-1.979-3.87-2.488-5.88c-1.529-6.24,3.028-12.45,12.271-16.83c3.69-1.74,8.34-3.24,12.39-4.021   c1.83-0.359,4.08-0.869,5.013-1.109c2.22-0.57,7.71-1.32,9.93-1.32c2.79,0,2.19-0.66-1.8-1.89c-4.143-1.29-9.813-2.643-10.893-2.55   C673.68,513.39,669.84,515.16,665.55,517.35z" style="stroke:black;fill:#BFDAE3"/><path id="180623552" parent_id="180608862" order="38" structure_id="1" d="M604.35,537.51   c0.183,1.38,0.093,2.04-0.27,2.82c-0.45,0.99-0.45,1.14,0.24,3.18c0.39,1.17,0.869,2.88,1.08,3.813l0.33,1.68h1.26   c2.55,0,17.277-1.8,18.66-2.28c1.737-0.567,2.67-1.107,3.987-2.34c1.44-1.35,1.29-1.86-0.658-2.07   c-0.869-0.09-2.369-0.51-3.271-0.96c-1.8-0.84-3.99-3.027-4.32-4.29c-0.18-0.72-0.18-0.72-2.607-0.447   c-4.08,0.42-10.771,0.09-13.86-0.69l-0.75-0.18L604.35,537.51z" style="stroke:black;fill:#BFDAE3"/><path id="180623552" parent_id="180608862" order="39" structure_id="1" d="M575.85,515.01   c-2.52,0.36-6.84,1.353-8.277,1.92c-2.67,1.11-6.303,3.66-8.853,6.33c-2.397,2.49-7.317,9-7.317,9.66   c0.027,0.45,5.88,4.98,6.447,4.98c0.33,0,0.45-0.33,0.45-1.2c0-1.92,0.72-2.4,3.48-2.4c2.817,0,7.59,0.96,10.59,2.103   c1.26,0.51,5.85,2.64,10.2,4.8c4.35,2.13,8.13,3.897,8.397,3.897c0.75,0,3.03-3.6,3.03-4.77c0-0.69-0.45-0.78-1.68-0.33   c-1.41,0.54-6.393,0.42-7.92-0.18c-3.093-1.2-5.103-3.271-5.103-5.19c0-1.38,1.53-2.88,3.75-3.66c2.34-0.81,7.71-0.72,9.54,0.15   c0.63,0.3,1.2,0.479,1.32,0.39c0.18-0.21-1.021-5.25-1.41-5.91c-0.21-0.357-0.45-0.357-1.26-0.09c-3.15,1.11-4.92,0.57-7.44-2.22   c-1.41-1.59-4.5-7.11-4.5-8.04C579.3,514.8,578.04,514.71,575.85,515.01z" style="stroke:black;fill:#BFDAE3"/><path id="180623552" parent_id="180608862" order="40" structure_id="1" d="M609.3,523.11c-0.63,0.3-2.16,0.51-3.81,0.567   c-1.53,0.063-3.24,0.303-3.813,0.54c-1.26,0.54-1.527,1.5-1.317,4.95c0.18,2.94,1.107,4.74,3.06,5.88   c1.29,0.75,6.03,1.62,8.97,1.65c1.2,0,1.593-0.722,0.54-1.05c-0.81-0.24-2.67-2.37-2.91-3.303c-0.72-2.938,1.95-5.25,6.12-5.25   c1.143,0,1.563-0.119,1.563-0.42c0-0.237-0.24-0.51-0.51-0.63c-0.303-0.09-1.683-0.93-3.12-1.83   C611.31,522.48,610.92,522.39,609.3,523.11z" style="stroke:black;fill:#BFDAE3"/><path id="180623552" parent_id="180608862" order="41" structure_id="1" d="M561.45,574.08c-5.22,0.689-10.65,2.22-10.65,3   c0,0.27,0.54,1.59,1.2,2.91c0.66,1.35,1.41,3.27,1.65,4.26c0.54,2.25,1.56,3.18,5.55,5.19c2.729,1.35,2.938,1.407,5.46,1.407   c3.06,0,3.66-0.33,5.397-2.907c2.07-3.063,2.73-8.16,1.353-10.593c-0.75-1.35-2.19-2.397-3.78-2.85   C566.34,574.17,562.71,573.9,561.45,574.08z" style="stroke:black;fill:#BFDAE3"/><path id="180623552" parent_id="180608862" order="42" structure_id="1" d="M688.29,624.6   c-0.87,0.36-1.14,2.16-0.87,6.271c0.51,7.95,2.13,13.95,5.07,18.688c0.87,1.44,1.438,2.04,1.857,2.04   c0.99,0,7.383-1.71,8.973-2.369c3.357-1.471,3.987-2.578,1.979-3.479c-1.62-0.72-3.897-3.21-4.89-5.31   c-1.59-3.393-2.103-6.69-1.563-10.353c0.302-2.13-0.18-2.79-2.908-4.109C692.79,624.51,689.85,623.97,688.29,624.6z" style="stroke:black;fill:#BFDAE3"/><path id="180623552" parent_id="180608862" order="43" structure_id="1" d="M680.55,518.52   c-6.66,1.053-10.35,3.213-13.35,7.803c-5.88,9.06-3.48,22.29,6.75,36.93c1.35,1.92,3.12,3.811,6.147,6.6   c7.893,7.263,12.723,13.29,16.29,20.4c1.98,3.99,2.82,6.18,7.053,18.75c3.75,11.1,4.68,13.53,6.54,17.1   c1.68,3.271,2.67,4.473,4.647,5.553c2.22,1.229,5.28,1.26,7.83,0.09c5.521-2.55,11.34-8.4,17.31-17.34   c4.893-7.381,7.74-14.103,8.883-20.973c0.987-5.88,0.237-18.357-1.5-25.26c-3.933-15.6-12.33-27.18-26.73-36.84   c-5.49-3.66-9.03-5.4-19.65-9.6l-9.21-3.633l-4.29,0.03C684.9,518.16,681.87,518.34,680.55,518.52z" style="stroke:black;fill:#BFDAE3"/><path id="180623552" parent_id="180608862" order="44" structure_id="1" d="M680.04,625.02c-3,1.08-3.72,2.25-3.66,6.03   c0.063,3.57,1.32,8.34,3.93,14.82c2.343,5.88,3.24,7.8,3.87,8.04c0.393,0.147,4.473-0.75,8.013-1.71   c1.26-0.36,1.38-0.87,0.539-2.04c-0.932-1.353-2.312-4.29-3.182-6.78c-1.318-3.87-2.01-7.979-2.22-13.38l-0.18-4.92l-0.75-0.21   C685.11,624.51,681.21,624.6,680.04,625.02z" style="stroke:black;fill:#BFDAE3"/><path id="180623552" parent_id="180608862" order="45" structure_id="1" d="M639.6,617.31c0,2.973,0.36,3.99,2.343,6.9   c1.68,2.46,5.46,9.12,7.407,12.99c2.433,4.83,4.263,6,8.973,5.607c6.54-0.539,8.79-3.09,9.09-10.438   c0.09-1.98,0.03-4.353-0.18-5.55c-0.66-4.021-1.62-7.92-1.98-7.92c-0.18,0-0.479,0.63-0.689,1.38c-0.898,3.33-5.25,5.79-9.631,5.43   c-5.158-0.42-11.64-4.8-13.77-9.27C639.99,613.95,639.6,614.16,639.6,617.31z" style="stroke:black;fill:#BFDAE3"/><path id="180623552" parent_id="180608862" order="46" structure_id="1" d="M667.71,633.48   c-0.12,0.117-0.21,0.51-0.21,0.897c0,1.562-1.23,4.562-2.4,5.91c-1.317,1.5-2.64,2.07-6.027,2.608   c-2.16,0.33-3.21,0.212-5.433-0.538c-0.777-0.271-1.527-0.393-1.647-0.271s0.027,1.08,0.3,2.103c0.3,1.02,1.229,4.438,2.07,7.617   l1.527,5.763l1.683,0.357c5.13,1.051,10.08-1.17,13.08-5.88c1.89-3,2.367-4.56,2.397-7.5c0-3.12-0.45-4.438-2.79-8.55   C668.88,633.63,668.22,632.97,667.71,633.48z" style="stroke:black;fill:#BFDAE3"/><path id="180623552" parent_id="180608862" order="47" structure_id="1" d="M543.9,625.35c-0.54-23.188-0.813-30.027-1.353-32.31c-0.617-2.512-1.59-3.982-2.55-4.055V672.3   c1.283,0.021,2.6-0.401,2.85-1.172c0.063-0.27,0.42-3.72,0.78-7.68C544.35,655.02,544.41,647.46,543.9,625.35z" style="stroke:black;fill:#BFDAE3"/><path id="180623552" parent_id="180608862" order="48" structure_id="1" d="M542.82,675.57l-0.75-3.15h-1.98c-0.033,0.001-0.058,0.002-0.09,0.002v39.657   c0.021,0,0.039,0.001,0.06,0.001l2.19-0.03l0.51-3c1.11-6.569,1.53-11.7,1.563-18.147C544.32,683.97,543.99,680.64,542.82,675.57z" style="stroke:black;fill:#BFDAE3"/><path id="180623552" parent_id="180608862" order="49" structure_id="1" d="M547.59,670.11   c-0.39,0.06-0.96,0.479-1.32,0.93c-1.107,1.41-0.479,5.46,1.173,7.32c0.72,0.84,2.697,0.688,4.29-0.303   c3.6-2.31,5.037-6.357,2.67-7.438C553.59,670.23,548.67,669.87,547.59,670.11z" style="stroke:black;fill:#BFDAE3"/><path id="180623552" parent_id="180608862" order="50" structure_id="1" d="M565.95,696.51   c-8.13,1.11-12.03,1.59-12.78,1.59c-1.29,0-5.28,1.62-7.439,3c-1.648,1.08-1.828,1.29-1.828,2.223c0,0.81,0.147,1.107,0.688,1.29   c1.59,0.567,20.4,0,30.391-0.96c2.521-0.24,7.529-0.54,11.189-0.633c7.62-0.237,7.771-0.327,4.561-2.25   c-3.421-2.067-7.021-3.09-13.921-4.02C573.57,696.33,568.14,696.21,565.95,696.51z" style="stroke:black;fill:#BFDAE3"/><path id="180623552" parent_id="180608862" order="51" structure_id="1" d="M587.64,684.6   c-0.81,0.513-0.657,1.65,0.36,2.49c2.31,1.95,6.27,3.72,12.51,5.61c4.98,1.5,7.563,2.67,8.643,3.96   c0.777,0.93,0.777,0.96,0.237,1.38c-1.107,0.81-6.027-0.33-12.39-2.91c-2.61-1.05-4.71-2.22-7.59-4.14   c-6.84-4.62-8.61-5.55-8.61-4.5c0,0.24,1.05,1.229,2.34,2.22c1.263,0.99,3.75,3.15,5.49,4.8c3.54,3.3,6.18,4.893,10.32,6.183   c4.647,1.438,13.14,2.46,14.938,1.737c1.29-0.51,1.593-1.527,0.96-3.237c-1.5-3.99-11.85-11.433-18.3-13.173   C594.3,684.42,588.36,684.15,587.64,684.6z" style="stroke:black;fill:#BFDAE3"/><path id="180623552" parent_id="180608862" order="52" structure_id="1" d="M541.74,713.01c-0.313-0.388-1.033-0.646-1.74-0.687v3.712C541.515,716.104,542.64,714.229,541.74,713.01z" style="stroke:black;fill:#BFDAE3"/><path id="180623552" parent_id="180608862" order="53" structure_id="1" d="M551.55,616.98   c-2.64,1.438-4.05,3.93-4.05,7.14c0,2.729,0.45,4.14,1.89,5.76c1.593,1.8,2.49,2.22,4.803,2.22c1.59,0,2.13-0.147,3.27-0.869   c3.54-2.25,4.562-8.188,2.04-11.671c-1.53-2.13-2.82-2.88-5.07-2.97C553.02,616.53,552.18,616.62,551.55,616.98z" style="stroke:black;fill:#BFDAE3"/><path id="180623552" parent_id="180608862" order="54" structure_id="1" d="M731.7,518.52c0,3.093,6.6,11.013,8.55,10.263   c0.87-0.33,0.42-1.41-1.83-4.59c-3.81-5.37-4.95-6.66-5.88-6.66C731.79,517.5,731.7,517.59,731.7,518.52z" style="stroke:black;fill:#BFDAE3"/><path id="180623552" parent_id="180608862" order="55" structure_id="1" d="M666.9,521.55   c-6.933,2.01-12.03,4.71-15.631,8.25c-2.852,2.82-3.899,4.83-4.109,7.95c-0.15,2.58,0.27,4.71,1.5,7.2   c1.47,2.938,2.1,3.54,5.52,5.43c1.771,0.96,4.803,2.79,6.69,4.05c3.72,2.433,10.62,7.5,10.95,8.04c0.27,0.393,1.38,0.45,1.38,0.063   c0-0.15-0.84-1.59-1.86-3.21c-2.43-3.87-4.77-8.853-5.91-12.57c-2.25-7.35-2.067-12.81,0.632-18.45c0.96-2.01,1.71-3.03,3.568-4.92   c1.32-1.29,2.37-2.46,2.37-2.61C672,520.26,670.38,520.53,666.9,521.55z" style="stroke:black;fill:#BFDAE3"/><path id="180623552" parent_id="180608862" order="56" structure_id="1" d="M625.71,531.24   c-0.27,1.59-1.68,3.42-3.15,4.08c-1.38,0.63-1.5,0.96-0.777,2.46c1.107,2.31,4.47,4.26,7.62,4.38l1.89,0.09l0.39-1.05   c0.603-1.71,0.513-6.21-0.18-8.521c-0.33-1.08-0.72-2.01-0.84-2.067c-0.12-0.091-1.23-0.24-2.49-0.36l-2.28-0.18L625.71,531.24z" style="stroke:black;fill:#BFDAE3"/><path id="180623552" parent_id="180608862" order="57" structure_id="1" d="M605.34,507.54   c-2.938,1.92-5.34,3.63-5.31,3.81c0,0.36,12.897,7.353,13.59,7.353c0.42,0,0.479-0.51,0.479-3.84c0-2.131-0.147-4.65-0.328-5.61   c-0.449-2.55-1.922-5.25-2.789-5.25C610.8,504,608.25,505.59,605.34,507.54z" style="stroke:black;fill:#BFDAE3"/><path id="180623552" parent_id="180608862" order="58" structure_id="1" d="M595.74,512.88c-0.12,0.09-1.8,0.3-3.75,0.45   c-6.9,0.479-7.29,0.54-7.65,1.32c-0.75,1.647,0.63,4.02,3.12,5.277c1.229,0.63,3.87,0.78,5.16,0.271   c1.108-0.42,3.12-2.313,3.99-3.813c0.63-1.08,0.72-1.47,0.479-2.397C596.85,512.94,596.19,512.4,595.74,512.88z" style="stroke:black;fill:#BFDAE3"/><path id="180623552" parent_id="180608862" order="59" structure_id="1" d="M613.35,527.52   c-2.188,0.633-3.147,1.83-3.147,3.933c0,1.41,0.12,1.77,0.96,2.729c1.29,1.473,3,2.223,5.04,2.223c3.147,0,5.16-1.893,5.22-4.92   c0-1.74-0.51-2.853-1.77-3.66C618.63,527.16,615.24,526.98,613.35,527.52z" style="stroke:black;fill:#BFDAE3"/><path id="180623552" parent_id="180608862" order="60" structure_id="1" d="M689.46,457.68c-9.36-8.16-23.88-23.46-31.05-32.729c-1.26-1.65-5.13-6.813-8.61-11.46   c-9.45-12.69-27.42-35.04-31.317-38.94c-9.24-9.21-19.86-13.98-36.45-16.35c-16.41-2.34-22.05-2.73-39.78-2.85   c-0.76-0.003-1.509-0.005-2.25-0.007v4.417c9.742-0.038,18.845,0.636,35.25,2.52c21.09,2.43,30.99,6.6,42.15,17.79   c5.909,5.94,7.647,8.4,13.438,19.23c9.99,18.66,20.7,33.66,30.512,42.63c7.801,7.143,16.528,12.933,25.351,16.771   C691.98,460.98,692.88,460.65,689.46,457.68z" style="stroke:black;fill:#BFDAE3"/><path id="180623552" parent_id="180608862" order="61" structure_id="1" d="M594.3,540.18c-0.33,0.78-0.6,1.44-0.6,1.53   c0,0.06-0.48,0.87-1.08,1.8c-0.57,0.9-0.99,1.8-0.93,2.01c0.09,0.183,1.5,1.053,3.147,1.893l3.03,1.59h3.81h3.813l-0.21-1.439   c-0.091-0.811-0.513-2.398-0.9-3.539c-0.66-1.949-0.75-2.069-1.56-1.979c-3.78,0.3-5.013-0.09-6.36-2.04   c-0.45-0.66-0.96-1.17-1.17-1.2C595.08,538.8,594.66,539.43,594.3,540.18z" style="stroke:black;fill:#BFDAE3"/><path id="180623552" parent_id="180608862" order="62" structure_id="1" d="M584.1,530.79   c-0.93,0.21-2.13,0.66-2.697,0.99c-1.353,0.777-2.28,2.397-1.98,3.54c0.3,1.26,2.4,3.33,4.17,4.107   c1.353,0.63,2.01,0.723,5.16,0.723c5.37,0,6.36-0.843,6.09-5.133c-0.12-2.13-0.81-3.18-2.58-3.93   C590.88,530.52,586.11,530.34,584.1,530.79z" style="stroke:black;fill:#BFDAE3"/><path id="180623552" parent_id="180608862" order="63" structure_id="1" d="M636.3,662.13c-1.979,0.33-4.68,1.53-5.76,2.58   s-1.53,2.46-1.5,4.86c0.06,8.16,9.57,15.33,20.37,15.33c5.1,0,8.37-1.5,10.68-4.86c1.92-2.79,2.43-5.13,1.563-6.84   c-0.513-0.99-1.23-1.41-4.11-2.49c-3-1.14-4.979-2.22-8.07-4.44c-3.3-2.367-6.027-3.72-8.34-4.17   C639.3,661.77,638.61,661.77,636.3,662.13z" style="stroke:black;fill:#BFDAE3"/><path id="180623552" parent_id="180608862" order="64" structure_id="1" d="M697.5,492.66c0,0.72-0.09,1.77-0.18,2.37   l-0.183,1.08l2.79,0.18c3.75,0.24,6.57,1.08,10.92,3.21c4.353,2.1,7.23,4.11,13.353,9.21c7.02,5.88,10.83,10.2,16.62,18.93   c6.027,9.091,9.51,15.933,12.21,24.063c2.817,8.52,3.93,15.567,3.96,24.6c0.027,17.7-5.4,36.813-14.223,50.103   c-4.617,6.96-11.188,12.72-18.75,16.407c-4.527,2.223-7.287,2.04-9.09-0.54c-1.05-1.527-1.71-1.527-1.92,0.03   c-0.09,0.66-0.45,1.8-0.777,2.521c-0.78,1.59-1.86,2.13-3.843,1.89c-1.229-0.12-1.47-0.06-1.979,0.57   c-1.17,1.527-3.99,2.55-12.96,4.739l-8.67,2.158l-1.92,3.42c-4.71,8.433-9.933,14.013-15.063,16.08   c-1.647,0.66-2.25,0.75-3.81,0.603l-1.893-0.15v1.11c0,2.58-3.09,6.99-5.97,8.43c-2.25,1.17-4.74,1.62-7.68,1.44   c-9.03-0.57-16.71-5.61-19.021-12.45c-2.067-6.09,1.29-10.26,8.67-10.771c3.813-0.27,6.393,0.723,11.521,4.41   c4.08,2.91,9.569,5.433,10.29,4.683c0.12-0.12-0.03-0.843-0.3-1.62c-1.53-3.99-3.421-10.23-5.04-16.41   c-2.341-9-3.15-11.28-5.553-16.11c-8.88-17.729-24.3-37.77-48.72-63.18c-7.68-8.01-17.49-17.46-18.12-17.46   c-0.239,0-0.54,0.27-0.63,0.63c-0.39,1.14-4.29,6.689-7.17,10.14c-2.88,3.42-2.88,3.42-2.88,5.103c0,0.897,0.21,3.27,0.479,5.22   c0.602,4.29,0.329,6.54-1.08,9.39c-1.591,3.24-4.229,4.92-7.021,4.5c-1.83-0.3-4.92-1.619-7.17-3.06   c-1.11-0.72-2.19-1.32-2.37-1.32c-0.21,0-0.271,0.48-0.148,1.41c0.091,0.812,0.601,7.5,1.141,14.94l0.989,13.5l1.351,0.897   c2.79,1.893,4.08,6.183,2.88,9.78c-0.54,1.56-2.97,4.47-3.78,4.47c-1.229,0,2.94,26.79,5.433,34.92l0.6,1.86l3.813,0.54   c5.43,0.72,17.697,3,23.188,4.26c9.602,2.22,18.24,4.8,31.95,9.54c3.149,1.08,8.399,2.79,11.7,3.811   c6.75,2.069,8.13,2.671,8.607,3.75c0.57,1.229-0.42,2.762-2.397,3.75c-3.721,1.859-9.721,3.302-13.71,3.359   c-3.15,0-4.2-0.39-7.381-2.97c-3.932-3.12-8.189-5.55-13.649-7.74c-1.5-0.6-3.03-1.08-3.391-1.08c-1.109,0-0.689,0.72,0.96,1.62   c5.311,2.97,10.771,7.53,12.091,10.14c0.96,1.86,0.93,2.73-0.091,3.54c-0.812,0.631-1.051,0.66-4.892,0.513   c-2.698-0.12-5.1-0.42-7.229-0.933c-3.15-0.72-7.261-2.188-8.58-3.06c-0.96-0.603-1.29-0.54-1.29,0.3s-0.42,1.26-1.59,1.53   c-0.45,0.12-0.813,0.357-0.813,0.567c0.03,0.183,0.932,0.9,2.04,1.563l2.012,1.26l6.75,0.15c4.351,0.09,7.351,0.3,8.431,0.6   c3.42,0.84,4.71,2.22,3.898,4.2c-0.688,1.71-0.721,2.01-0.271,2.01c0.239,0,3.239-1.08,6.688-2.37   c31.171-11.729,64.739-27.33,84.569-39.3c8.91-5.398,15.12-9.96,21.96-16.229c15.09-13.739,25.74-29.489,31.261-46.199   c2.369-7.142,3.062-12.12,3.271-23.73c0.33-17.85-1.38-30.329-5.341-38.909c-2.34-5.068-8.729-14.729-14.521-21.96   c-5.46-6.811-13.92-15.479-18.3-18.721c-2.34-1.77-9.51-5.43-14.399-7.41c-4.229-1.68-9.631-3.567-10.261-3.567   C697.62,491.4,697.5,491.82,697.5,492.66z" style="stroke:black;fill:#BFDAE3"/><path id="180623552" parent_id="180608862" order="65" structure_id="1" d="M684,486.93c0,0.183,0.72,1.11,1.62,2.07   c2.91,3.15,2.61,3.63-2.76,4.83c-7.803,1.77-15,4.53-17.37,6.688c-1.5,1.353-2.55,3.66-2.433,5.37c0.093,1.053,0.21,1.29,0.9,1.53   c0.66,0.24,1.56-0.09,6.15-2.31c10.197-4.893,17.46-7.44,24.567-8.61l2.16-0.33l0.36-1.32c0.357-1.26,0.238-2.938-0.24-3.6   c-0.12-0.18-1.41-0.69-2.91-1.14c-1.47-0.48-4.2-1.473-6.06-2.19C684.45,486.51,684,486.42,684,486.93z" style="stroke:black;fill:#BFDAE3"/><path id="180623552" parent_id="180608862" order="66" structure_id="1" d="M584.4,703.2c-3.54,0.147-8.4,0.45-10.803,0.72   c-6.447,0.66-17.817,1.17-24.3,1.05l-5.7-0.12l-0.117,0.75c-0.66,3.303-1.08,6.723-0.87,6.9c0.39,0.36,10.59,3.18,15.09,4.17   c6.96,1.561,10.62,1.95,17.55,1.95c7.17,0.03,10.08-0.36,17.49-2.25c5.188-1.29,17.88-5.43,18.84-6.09   c0.87-0.603,1.62-2.28,1.62-3.57c0-2.729-2.82-3.45-14.55-3.63C594.36,703.02,587.94,703.05,584.4,703.2z" style="stroke:black;fill:#BFDAE3"/><path id="180623552" parent_id="180608862" order="67" structure_id="1" d="M697.5,492.66c0,0.72-0.09,1.77-0.18,2.37   l-0.183,1.08l2.79,0.18c3.75,0.24,6.57,1.08,10.92,3.21c4.353,2.1,7.23,4.11,13.353,9.21c7.02,5.88,10.83,10.2,16.62,18.93   c6.027,9.091,9.51,15.933,12.21,24.063c2.817,8.52,3.93,15.567,3.96,24.6c0.027,17.7-5.4,36.813-14.223,50.103   c-4.617,6.96-11.188,12.72-18.75,16.407c-4.527,2.223-7.287,2.04-9.09-0.54c-1.05-1.527-1.71-1.527-1.92,0.03   c-0.09,0.66-0.45,1.8-0.777,2.521c-0.78,1.59-1.86,2.13-3.843,1.89c-1.229-0.12-1.47-0.06-1.979,0.57   c-1.17,1.527-3.99,2.55-12.96,4.739l-8.67,2.158l-1.92,3.42c-4.71,8.433-9.933,14.013-15.063,16.08   c-1.647,0.66-2.25,0.75-3.81,0.603l-1.893-0.15v1.11c0,2.58-3.09,6.99-5.97,8.43c-2.25,1.17-4.74,1.62-7.68,1.44   c-9.03-0.57-16.71-5.61-19.021-12.45c-2.067-6.09,1.29-10.26,8.67-10.771c3.813-0.27,6.393,0.723,11.521,4.41   c4.08,2.91,9.569,5.433,10.29,4.683c0.12-0.12-0.03-0.843-0.3-1.62c-1.53-3.99-3.421-10.23-5.04-16.41   c-2.341-9-3.15-11.28-5.553-16.11c-8.88-17.729-24.3-37.77-48.72-63.18c-7.68-8.01-17.49-17.46-18.12-17.46   c-0.239,0-0.54,0.27-0.63,0.63c-0.39,1.14-4.29,6.689-7.17,10.14c-2.88,3.42-2.88,3.42-2.88,5.103c0,0.897,0.21,3.27,0.479,5.22   c0.602,4.29,0.329,6.54-1.08,9.39c-1.591,3.24-4.229,4.92-7.021,4.5c-1.83-0.3-4.92-1.619-7.17-3.06   c-1.11-0.72-2.19-1.32-2.37-1.32c-0.21,0-0.271,0.48-0.148,1.41c0.091,0.812,0.601,7.5,1.141,14.94l0.989,13.5l1.351,0.897   c2.79,1.893,4.08,6.183,2.88,9.78c-0.54,1.56-2.97,4.47-3.78,4.47c-1.229,0,2.94,26.79,5.433,34.92l0.6,1.86l3.813,0.54   c5.43,0.72,17.697,3,23.188,4.26c9.602,2.22,18.24,4.8,31.95,9.54c3.149,1.08,8.399,2.79,11.7,3.811   c6.75,2.069,8.13,2.671,8.607,3.75c0.57,1.229-0.42,2.762-2.397,3.75c-3.721,1.859-9.721,3.302-13.71,3.359   c-3.15,0-4.2-0.39-7.381-2.97c-3.932-3.12-8.189-5.55-13.649-7.74c-1.5-0.6-3.03-1.08-3.391-1.08c-1.109,0-0.689,0.72,0.96,1.62   c5.311,2.97,10.771,7.53,12.091,10.14c0.96,1.86,0.93,2.73-0.091,3.54c-0.812,0.631-1.051,0.66-4.892,0.513   c-2.698-0.12-5.1-0.42-7.229-0.933c-3.15-0.72-7.261-2.188-8.58-3.06c-0.96-0.603-1.29-0.54-1.29,0.3s-0.42,1.26-1.59,1.53   c-0.45,0.12-0.813,0.357-0.813,0.567c0.03,0.183,0.932,0.9,2.04,1.563l2.012,1.26l6.75,0.15c4.351,0.09,7.351,0.3,8.431,0.6   c3.42,0.84,4.71,2.22,3.898,4.2c-0.688,1.71-0.721,2.01-0.271,2.01c0.239,0,3.239-1.08,6.688-2.37   c31.171-11.729,64.739-27.33,84.569-39.3c8.91-5.398,15.12-9.96,21.96-16.229c15.09-13.739,25.74-29.489,31.261-46.199   c2.369-7.142,3.062-12.12,3.271-23.73c0.33-17.85-1.38-30.329-5.341-38.909c-2.34-5.068-8.729-14.729-14.521-21.96   c-5.46-6.811-13.92-15.479-18.3-18.721c-2.34-1.77-9.51-5.43-14.399-7.41c-4.229-1.68-9.631-3.567-10.261-3.567   C697.62,491.4,697.5,491.82,697.5,492.66z" style="stroke:black;fill:#BFDAE3"/><path id="180623552" parent_id="180608862" order="68" structure_id="1" d="M600.69,692.85c-4.893-1.47-6.423-2.067-9.48-3.688c-2.37-1.23-4.41-2.91-4.41-3.63   c0-0.12,0.271-0.48,0.63-0.813c0.723-0.63,3.48-0.777,6.813-0.33c1.528,0.21,1.857,0.183,1.857-0.147c0-0.3-1.617-0.933-5.01-1.98   c-7.95-2.46-12.66-3.567-19.83-4.68c-12.21-1.95-14.397-2.91-12.688-5.7c0.75-1.229,2.43-2.729,3.3-3.03   c0.78-0.237,0.78-0.21-0.12-3.33c-1.771-6.09-3.99-19.229-5.4-31.68l-0.18-1.71l-1.47,0.18c-1.23,0.15-1.771,0.03-3.15-0.657   c-4.857-2.37-5.817-9.48-1.8-13.41c1.41-1.38,3.6-2.16,5.28-1.893l1.2,0.21l-0.183-1.77c-0.09-0.96-0.63-7.95-1.2-15.54   c-0.6-7.979-1.229-14.55-1.5-15.6c-1.14-4.473-4.107-8.433-6.81-9.093c-0.779-0.192-3.68-0.307-6.54-0.324v14.477   c0.6-0.049,1.181,0.618,1.771,2.021c1.319,3.028,1.562,5.039,1.829,15.721c0.9,34.92,1.021,44.13,0.633,50.25   c-0.57,9.479-1.11,14.37-1.683,15c-0.42,0.479-0.42,0.75,0.271,3.33c1.528,5.97,2.159,16.5,1.38,23.817   c-0.15,1.473-0.21,2.73-0.15,2.79c0.183,0.183,6.721-3.06,6.75-3.357c0-0.12-0.42-0.723-0.93-1.32c-0.87-0.99-0.93-1.17-0.813-2.91   c0.093-1.41,0.393-2.43,1.41-4.41c1.5-3.027,1.771-4.47,1.23-6.72c-0.33-1.32-0.33-1.77-0.03-2.34c1.021-1.89,5.58-2.46,10.83-1.38   c3.75,0.75,13.95,4.107,16.53,5.397c2.817,1.44,7.979,4.563,10.527,6.42c2.763,1.98,5.37,3.33,9.24,4.771   c3.78,1.41,7.41,2.31,9.271,2.31c1.29,0,1.527-0.09,1.527-0.54C609.6,696.24,606.54,694.62,600.69,692.85z M555.12,674.55   c-1.08,2.313-5.103,4.98-6.84,4.53c-1.11-0.271-2.73-3.72-2.73-5.82c0-1.438,0.09-1.71,1.021-2.52c1.02-0.9,1.02-0.9,4.107-0.78   c2.552,0.09,3.24,0.21,3.933,0.72C555.66,671.46,555.87,673.02,555.12,674.55z" style="stroke:black;fill:#BFDAE3"/><path id="180623552" parent_id="180608862" order="69" structure_id="1" d="M560.22,670.02   c-0.66,0.57-1.438,1.593-1.77,2.25c-0.511,1.173-0.511,1.263,0,1.83c1.14,1.263,4.38,2.07,13.56,3.45   c7.71,1.17,12.57,2.433,25.44,6.66c10.26,3.36,14.58,5.46,20.489,9.9c2.25,1.68,4.171,2.909,4.948,3.12   c3.091,0.84,11.7-0.66,16.2-2.853c1.68-0.81,2.34-1.29,2.76-2.1c0.69-1.263,0.36-2.313-0.96-2.973   c-0.448-0.237-4.56-1.617-9.12-3.027c-4.56-1.41-10.77-3.45-13.8-4.53c-7.38-2.64-13.89-4.62-22.92-6.9   c-10.74-2.729-27.6-5.85-31.647-5.85C561.57,669,561.3,669.09,560.22,670.02z" style="stroke:black;fill:#BFDAE3"/><path id="180623552" parent_id="180608862" order="70" structure_id="1" d="M790.74,440.7c-0.09-2.82-0.183-3.09-1.563-5.88c-2.04-4.08-4.647-6.69-9.93-9.78   c-7.53-4.41-17.55-9.66-35.25-18.45c-20.04-9.96-20.82-10.38-27.3-14.64c-12.511-8.25-22.62-17.73-41.37-38.82   c-10.5-11.82-17.94-22.23-26.1-36.48c-5.103-8.94-10.593-20.25-14.16-29.19c-3.603-9.03-6.69-13.38-12.21-17.13   c-9.36-6.33-27.093-10.14-54.813-11.76c-3.12-0.179-16.455-0.358-28.05-0.429v26.455c7.691,0.01,15.898,0.144,30.75,0.404   c18.21,0.33,36,1.02,39.061,1.5c2.039,0.33,3.392,0.84,3.392,1.26c0,0.9-5.79,2.25-13.2,3.09c-5.7,0.63-9.33,0.75-36.3,1.17   c-9.424,0.148-16.542,0.223-23.7,0.225v15.706c8.88-0.03,14.58-0.57,34.5-3.36c9.271-1.32,10.53-1.41,16.2-1.44   c6.72,0,8.608,0.27,14.1,2.01c6.09,1.92,13.26,6.09,19.65,11.37c3.81,3.18,11.91,11.28,16.317,16.32   c1.893,2.13,6.66,7.95,10.62,12.9c18.723,23.31,29.94,35.88,48.57,54.33c11.28,11.188,16.8,16.26,27.24,25.17   c12.39,10.53,15.21,14.4,21,28.65c1.17,2.88,2.7,6.18,3.357,7.35c1.802,3.03,4.382,5.49,7.263,6.93l2.397,1.17h3.9   c4.56,0,6.3-0.51,8.79-2.578c2.79-2.279,7.56-8.222,12.84-16.021C790.59,445.11,790.89,444.33,790.74,440.7z M742.65,423.78   c-1.2,0.479-8.61-3.99-16.053-9.66c-11.01-8.34-19.29-16.23-37.229-35.37c-5.55-5.94-22.47-24.81-28.53-31.83   c-4.83-5.61-8.938-12.42-7.47-12.42c0.147,0,2.188,2.01,4.59,4.44c11.49,11.82,25.89,27.54,32.73,35.76   c5.577,6.63,14.22,15.51,20.46,20.97c2.157,1.89,6.657,5.55,10.05,8.16c9.357,7.2,14.49,11.46,18.357,15.27   C742.98,422.46,743.61,423.42,742.65,423.78z" style="stroke:black;fill:#BFDAE3"/><path id="180623552" parent_id="180608862" order="71" structure_id="1" d="M608.34,286.53c-9.004-0.885-41.121-1.59-68.34-1.683v7.105c25.957,0,51.915-0.367,58.8-1.102   c8.22-0.87,14.103-2.13,14.103-3.03C612.9,287.19,611.76,286.86,608.34,286.53z" style="stroke:black;fill:#BFDAE3"/><path id="180623552" parent_id="180608862" order="72" structure_id="1" d="M712.2,329.88c0,0.3,0.33,0.81,0.72,1.17   c3.061,2.58,8.25,6.72,18.33,14.55c12.87,10.02,16.11,12.6,30.45,24.27c24.81,20.19,36.27,28.83,38.22,28.83   c0.84,0,0.48-1.53-1.02-4.56c-5.94-11.79-21.24-29.04-35.16-39.63c-11.94-9.06-29.971-18.6-44.04-23.31   c-2.4-0.81-5.07-1.56-5.91-1.68C712.38,329.34,712.2,329.37,712.2,329.88z" style="stroke:black;fill:#BFDAE3"/><path id="180623552" parent_id="180608862" order="73" structure_id="1" d="M621.45,417.09c-0.271-0.09-2.28,0.393-4.44,1.05c-13.5,4.263-29.277,6.12-51.96,6.183   c-9.517,0.025-17.815,0.042-25.05,0.044v14.444c3.956,0.006,7.842-0.054,11.55-0.181c21.72-0.75,35.58-2.25,43.65-4.74   c1.89-0.6,4.14-1.26,4.95-1.5c2.43-0.72,9.18-0.84,12.72-0.27c6.03,1.02,11.91,3.24,16.17,6.147c2.04,1.383,2.46,1.5,2.46,0.66   C631.5,437.22,622.38,417.48,621.45,417.09z" style="stroke:black;fill:#BFDAE3"/><path id="180623552" parent_id="180608862" order="74" structure_id="1" d="M667.71,633.48   c-0.12,0.117-0.21,0.51-0.21,0.897c0,1.562-1.23,4.562-2.4,5.91c-1.317,1.5-2.64,2.07-6.027,2.608   c-2.16,0.33-3.21,0.212-5.433-0.538c-0.777-0.271-1.527-0.393-1.647-0.271s0.027,1.08,0.3,2.103c0.3,1.02,1.229,4.438,2.07,7.617   l1.527,5.763l1.683,0.357c5.13,1.051,10.08-1.17,13.08-5.88c1.89-3,2.367-4.56,2.397-7.5c0-3.12-0.45-4.438-2.79-8.55   C668.88,633.63,668.22,632.97,667.71,633.48z" style="stroke:black;fill:#BFDAE3"/><path id="180623552" parent_id="180608862" order="75" structure_id="1" d="M553.53,679.29c-0.57,0.21-1.29,0.72-1.59,1.14   c-0.513,0.66-0.54,0.96-0.271,1.95c0.66,2.313,0.42,4.021-0.87,6.72c-2.067,4.23-2.25,7.053-0.51,8.25   c0.93,0.66,4.229,0.57,10.41-0.27c2.88-0.391,6.33-0.813,7.647-0.93c4.08-0.33,11.58,0.657,17.343,2.277   c2.188,0.603,3.72,0.87,4.8,0.813c1.5-0.09,1.56-0.12,1.647-1.051c0.091-0.779-0.18-1.229-1.8-2.939   c-3.45-3.69-11.58-10.11-15.09-11.94c-1.65-0.84-7.142-2.64-10.8-3.54c-2.853-0.688-4.23-0.867-6.75-0.84   C555.96,678.93,554.1,679.08,553.53,679.29z" style="stroke:black;fill:#BFDAE3"/></g></g></svg>
