<svg xmlns="http://www.w3.org/2000/svg" width="3024px" height="3024px"><g transform="scale(1.0)"><g id="180608862" order="1" parent_id="" graphic_group_label_id="28" graphic_group_label="Atlas - Adult Rat" sub_image_id="100960468" transform=" scale(1.0, 1.0)"><path id="180623552" parent_id="180608862" order="0" structure_id="1" d="M806.55,399.9c-0.6-10.622-2.01-17.55-6.39-31.2c-5.4-16.77-9.66-27.72-15.062-38.55   c-4.8-9.63-8.158-14.76-13.858-21.15c-7.29-8.16-16.021-13.98-27.99-18.69c-10.98-4.32-18.9-6-28.2-6.03   c-6.148,0-8.43,0.3-16.2,2.25c-11.31,2.79-19.198,3.72-37.05,4.47c-8.88,0.36-13.41,1.17-18.63,3.3c-1.17,0.51-2.34,0.9-2.58,0.9   c-0.84,0-2.729-3.57-4.02-7.59c-1.472-4.62-3.54-8.85-5.642-11.61c-5.88-7.8-18.6-16.71-31.198-21.87   c-15.977-6.561-43.747-12.144-59.73-12.314v453.607c0.021-0.011,0.047-0.021,0.06-0.021c0.12,0,0.87,0.658,1.682,1.47   c3.63,3.63,12.96,6.57,25.41,8.04c6.54,0.75,22.979,0.75,28.648,0c12.96-1.771,22.8-4.892,45.15-14.312   c9.148-3.84,10.29-4.29,16.35-6.51c10.771-3.898,26.46-11.16,36.45-16.83c4.83-2.729,9.36-5.938,12-8.46   c1.5-1.41,5.73-5.34,9.45-8.7c10.229-9.27,18.45-17.01,21.479-20.188c11.88-12.392,18.302-27.45,20.37-47.61   c0.69-6.688,0.48-17.79-0.45-23.85c-2.608-17.16-9.028-30.9-20.188-43.352c-3.96-4.438-9.63-9.119-14.22-11.79   c-1.2-0.688-2.19-1.408-2.19-1.56c0-0.18,1.17-0.33,2.94-0.36c4.648-0.06,8.368-1.198,10.8-3.238c1.26-1.08,2.398-3.512,2.64-5.79   c0.12-1.021,0.3-1.86,0.45-1.86c0.12,0,1.14,0.66,2.22,1.5c4.71,3.57,11.37,5.82,18.392,6.18c5.368,0.301,8.608-0.63,12.84-3.66   c8.938-6.358,19.29-22.289,22.528-34.618c0.9-3.392,1.11-8.73,0.422-11.4c-0.512-2.01-1.771-4.92-2.852-6.48   c-0.898-1.35-0.99-1.92-0.24-1.92c1.23,0,3.842-1.59,5.67-3.479c3.092-3.24,6.722-9.24,8.672-14.4   C805.77,418.74,806.94,406.44,806.55,399.9z M657.87,477.48c-1.021-0.092-3.33-0.182-5.102-0.182c-3.63,0-3.84-0.148-2.64-1.83   c0.33-0.479,0.69-1.35,0.78-1.92c0.09-0.568,0.3-1.05,0.42-1.05c0.149,0,2.1,0.99,4.32,2.16   C660.21,477.12,660.72,477.78,657.87,477.48z" style="stroke:black;fill:#BFDAE3"/><path id="180623552" parent_id="180608862" order="1" structure_id="1" d="M542.31,676.86   c-0.118,1.858-0.21,4.438-0.21,5.76v2.34l0.99-0.21c1.83-0.39,14.102-0.51,18.36-0.18c2.34,0.18,7.83,0.81,12.18,1.38   c4.351,0.568,8.16,0.96,8.43,0.87c0.33-0.09,0.54-0.45,0.54-0.9c0-0.6-0.3-0.9-1.56-1.47c-0.87-0.42-1.8-0.75-2.07-0.75   c-0.27,0-2.818-1.2-5.7-2.67c-2.88-1.472-5.88-2.88-6.72-3.12c-0.96-0.3-3.358-0.54-6.6-0.66c-11.97-0.42-13.41-0.54-14.55-1.26   c-0.57-0.36-1.32-1.08-1.65-1.562C542.73,672.87,542.52,673.26,542.31,676.86z" style="stroke:black;fill:#BFDAE3"/><path id="180623552" parent_id="180608862" order="2" structure_id="1" d="M543.36,684.9   c-0.57,0.119-1.11,0.358-1.23,0.479c-0.12,0.15-0.39,1.41-0.6,2.82s-0.57,3.09-0.812,3.75c-0.568,1.648-0.54,2.16,0.301,3.568   c2.25,3.842,11.431,7.142,24.029,8.7c12.12,1.5,30.15,1.23,33.602-0.479c1.47-0.75,3.448-2.58,3.448-3.24c0-0.99-3.75-4.14-9.3-7.8   c-3.45-2.28-6.6-3.87-9.6-4.892c-2.22-0.778-11.82-2.22-19.352-2.908C560.04,684.54,544.83,684.54,543.36,684.9z" style="stroke:black;fill:#BFDAE3"/><path id="180623552" parent_id="180608862" order="3" structure_id="1" d="M561.48,652.02c-0.092-0.81-0.722-6.538-1.382-12.72c-4.108-38.43-5.729-51.989-6.75-55.95   c-0.238-0.988-0.988-2.908-1.648-4.229c-1.47-3.03-3.932-5.46-6.45-6.39c-1.229-0.47-3.304-0.756-5.25-0.803v4.168   c0.273-0.061,0.536,0.034,0.75,0.323c1.41,1.891,1.65,7.92,1.65,43.68c0,19.29,0.119,31.83,0.3,32.102   c0.24,0.39,0.39,0.39,1.17-0.09c1.2-0.722,3.63-0.66,5.43,0.12c1.11,0.479,1.59,0.538,2.04,0.3c0.87-0.48,3.75-0.392,6.21,0.148   c1.17,0.24,2.55,0.54,3.12,0.63l1.021,0.182L561.48,652.02z" style="stroke:black;fill:#BFDAE3"/><path id="180623552" parent_id="180608862" order="4" structure_id="1" d="M653.4,342.48   c0,1.08,1.198,3.39,5.488,10.47c4.29,7.11,10.2,16.2,13.08,20.1c4.262,5.73,17.852,20.94,27.03,30.271   c7.8,7.92,13.23,12.81,31.23,28.17c6.72,5.7,13.56,11.67,15.21,13.229c2.188,2.07,3.238,2.88,3.81,2.88   c0.69,0,0.75-0.118,0.75-1.29c0-0.688-0.24-1.618-0.54-2.04c-0.81-1.288-20.85-21.118-28.41-28.17   c-3.81-3.54-11.279-10.438-16.648-15.33c-22.86-20.818-35.4-35.278-46.32-53.37c-1.47-2.4-2.91-4.65-3.271-5.04   C653.97,341.46,653.4,341.52,653.4,342.48z" style="stroke:black;fill:#BFDAE3"/><path id="180623552" parent_id="180608862" order="5" structure_id="1" d="M572.1,508.05   c-8.698,2.55-17.01,6.96-21.33,11.28c-2.64,2.61-3.988,5.34-4.02,8.01c0,2.49,0.6,3.062,3.24,3.062h1.8l1.83-1.892   c1.02-1.02,2.88-3.028,4.14-4.47c1.29-1.41,3.42-3.42,4.771-4.41c2.64-2.01,8.13-4.859,10.47-5.46c1.29-0.33,1.47-0.479,1.77-1.5   c0.45-1.47,1.41-2.609,3.302-3.899c2.1-1.409,1.979-1.771-0.48-1.771C576.18,507.03,574.47,507.36,572.1,508.05z" style="stroke:black;fill:#BFDAE3"/><path id="180623552" parent_id="180608862" order="6" structure_id="1" d="M542.55,654.96c-0.09-0.78-0.3-17.82-0.42-37.86c-0.24-35.55-0.33-38.52-1.229-40.17   c-0.198-0.396-0.552-0.596-0.9-0.602v79.082l0.72,0.66c0.512,0.479,0.932,0.63,1.38,0.479   C542.7,656.37,542.73,656.19,542.55,654.96z" style="stroke:black;fill:#BFDAE3"/><path id="180623552" parent_id="180608862" order="7" structure_id="1" d="M803.58,381.75c-2.28-9.24-8.1-26.67-12.84-38.34c-9.24-22.83-18.66-36-32.25-45.09   c-6.51-4.35-18.182-9.3-27.42-11.64c-6.182-1.56-8.37-1.83-16.021-1.83c-7.858,0-8.938,0.15-16.5,2.1   c-9.84,2.58-19.35,3.75-35.188,4.35c-10.592,0.42-16.592,1.5-21.182,3.81l-1.438,0.75l-0.84-0.81c-1.29-1.23-2.521-3.78-4.052-8.4   c-2.068-6.3-4.02-9.63-8.369-14.19c-5.279-5.55-16.141-12.9-24.631-16.65c-14.79-6.54-37.71-11.85-57.72-13.41   c-2.13-0.156-3.642-0.238-5.13-0.243v11.164c8.444,0.065,17.494,0.294,20.34,0.599c5.43,0.6,9.03,1.2,12.78,2.19   c5.37,1.41,7.77,2.55,16.38,7.89c9.3,5.76,12.42,7.32,19.2,9.75c9.96,3.54,15.029,7.56,16.8,13.32c1.59,5.13,0.06,8.4-5.34,11.22   c-4.95,2.61-11.102,3.6-22.261,3.6c-8.131-0.03-15.511-0.54-25.801-1.77c-13.38-1.62-13.89-1.65-27.898-1.77   c-1.484-0.014-2.865-0.023-4.2-0.029v20.772c4.216-0.005,8.749-0.079,14.91-0.224c19.47-0.48,30.479-0.03,42.54,1.71   c13.71,1.95,20.01,4.47,26.04,10.29c4.47,4.32,6.75,7.86,13.68,21.3c5.7,11.01,10.71,19.32,19.17,31.83   c12.57,18.54,22.47,31.35,36.93,47.82c20.58,23.43,35.61,43.108,40.98,53.58c1.859,3.658,3.12,5.13,6.03,7.108   c5.43,3.69,11.729,5.34,19.56,5.16l4.44-0.12l2.31-1.14c10.26-5.07,23.28-23.88,26.13-37.83c0.602-2.91,0.63-8.22,0.03-10.53   c-0.69-2.729-2.4-5.97-4.05-7.648c-0.812-0.812-1.352-1.5-1.23-1.5s0.36,0.148,0.57,0.358c0.66,0.66,3.149,0.42,4.59-0.42   c2.88-1.68,6.78-6.688,9.51-12.09c3.15-6.33,3.78-10.32,3.78-23.55C805.92,393.27,805.53,389.73,803.58,381.75z M780.78,459.57   c-1.83,2.85-5.13,6.238-8.46,8.729c-3.54,2.67-4.802,4.41-8.102,11.312c-2.7,5.64-3.81,7.17-5.398,7.47   c-3.15,0.6-12.75-4.71-18-9.93c-3.45-3.42-4.62-5.432-7.771-13.142c-5.1-12.51-7.26-16.29-14.97-26.16   c-7.8-9.988-11.61-14.25-22.5-25.198c-12.09-12.182-20.43-21.392-25.44-28.082c-7.89-10.59-17.88-25.62-23.188-34.92   c-6.42-11.22-12.24-26.73-12.66-33.66l-0.18-2.76l0.93-0.9c1.14-1.14,2.82-1.26,4.8-0.27c1.71,0.81,5.01,3.93,6.93,6.51   c0.812,1.08,3.12,4.62,5.132,7.83c11.76,18.72,25.08,36.93,36.479,49.8c10.26,11.61,28.17,26.67,61.62,51.78   c12.33,9.27,17.7,13.02,25.35,17.67c6.392,3.868,6.96,4.26,7.65,5.398C784.17,452.97,783.6,455.25,780.78,459.57z M689.7,358.92   c0-0.24,0.24-0.09,0.63,0.39s0.36,0.51-0.09,0.12C689.94,359.22,689.7,358.98,689.7,358.92z M693.66,363   c0.06,0,0.45,0.33,0.84,0.75s0.63,0.75,0.54,0.75c-0.06,0-0.45-0.33-0.84-0.75C693.81,363.33,693.57,363,693.66,363z M708.36,377.7   c0.06,0,0.448,0.33,0.84,0.75c0.39,0.42,0.63,0.75,0.54,0.75c-0.062,0-0.45-0.33-0.84-0.75   C708.51,378.03,708.27,377.7,708.36,377.7z M794.82,416.04c-1.352,4.02-3.42,5.04-7.59,3.63c-7.23-2.46-18.54-10.2-36.03-24.72   c-18.99-15.75-30.99-26.67-48.87-44.4c-19.32-19.17-29.88-30.3-30.96-32.7c-0.812-1.77-0.72-2.46,0.569-3.75   c1.261-1.29,3.811-2.19,7.409-2.67c3.57-0.48,14.25-0.15,17.552,0.54c8.13,1.68,13.858,4.47,18.448,8.94   c1.17,1.11,5.4,5.82,9.42,10.44c5.852,6.75,10.682,11.79,24.45,25.53c19.11,19.08,24.721,24.15,32.61,29.46   c9.06,6.06,13.14,11.79,13.92,19.562C795.99,408.27,795.45,414.12,794.82,416.04z" style="stroke:black;fill:#BFDAE3"/><path id="180623552" parent_id="180608862" order="8" structure_id="1" d="M641.55,603.48   c-3.06,0.778-4.71,2.13-5.398,4.408c-1.32,4.44,0.54,12.75,3.868,17.432c2.132,2.97,5.61,6.09,8.25,7.318   c2.04,0.99,2.552,1.11,4.682,1.11c2.91,0,5.01-0.84,6.568-2.55c3.182-3.54,1.74-10.62-3.84-19.021   c-2.938-4.41-5.55-6.81-8.76-8.068C645.6,603.6,642.54,603.24,641.55,603.48z" style="stroke:black;fill:#BFDAE3"/><path id="180623552" parent_id="180608862" order="9" structure_id="1" d="M561.48,652.02c-0.092-0.81-0.722-6.538-1.382-12.72c-4.108-38.43-5.729-51.989-6.75-55.95   c-0.238-0.988-0.988-2.908-1.648-4.229c-1.47-3.03-3.932-5.46-6.45-6.39c-1.229-0.47-3.304-0.756-5.25-0.803v4.168   c0.273-0.061,0.536,0.034,0.75,0.323c1.41,1.891,1.65,7.92,1.65,43.68c0,19.29,0.119,31.83,0.3,32.102   c0.24,0.39,0.39,0.39,1.17-0.09c1.2-0.722,3.63-0.66,5.43,0.12c1.11,0.479,1.59,0.538,2.04,0.3c0.87-0.48,3.75-0.392,6.21,0.148   c1.17,0.24,2.55,0.54,3.12,0.63l1.021,0.182L561.48,652.02z" style="stroke:black;fill:#BFDAE3"/><path id="180623552" parent_id="180608862" order="10" structure_id="1" d="M581.4,523.56   c-1.83,0.932-2.7,2.642-2.7,5.28c0,2.46,0.63,3.57,2.729,4.71c1.44,0.78,1.74,0.812,3.9,0.66c2.7-0.18,4.74-1.02,5.67-2.31   c0.96-1.352,0.81-3.69-0.36-6.03c-0.869-1.68-1.14-1.98-2.34-2.43C586.26,522.66,583.05,522.75,581.4,523.56z" style="stroke:black;fill:#BFDAE3"/><path id="180623552" parent_id="180608862" order="11" structure_id="1" d="M541.29,657.21c-0.48-1.02-0.84-1.41-1.29-1.41v36.9c0.57,0,0.66-0.3,1.56-5.25   c0.271-1.5,0.392-6,0.392-15.45C541.95,658.89,541.95,658.62,541.29,657.21z" style="stroke:black;fill:#BFDAE3"/><path id="180623552" parent_id="180608862" order="12" structure_id="1" d="M716.91,480.12c-0.15-2.16-1.26-4.771-3.24-7.65c-1.41-2.1-3.479-4.2-12.99-13.318   c-14.79-14.132-28.738-29.79-36.66-41.102c-8.908-12.688-24.148-37.47-34.77-56.55c-3.6-6.45-4.2-7.32-6.96-10.23   c-6.42-6.72-17.88-11.4-31.89-13.05c-4.052-0.45-4.892-0.48-50.4-0.39v7.827c4.408,0.001,8.775,0.083,12.3,0.243   c18.66,0.87,32.4,2.97,44.25,6.81c8.55,2.76,14.91,6.6,21.24,12.84c7.26,7.17,13.02,16.14,22.5,35.102   c2.97,5.938,6.54,12.868,7.95,15.448c5.76,10.5,13.83,23.25,18.81,29.642c2.61,3.33,6.54,7.56,7.08,7.56   c0.15,0,0.271,0.12,0.271,0.3c0,0.602-1.74,0.271-3.54-0.63c-2.312-1.14-7.29-5.818-10.592-9.96c-5.818-7.29-12-17.31-24.118-39.21   c-6.96-12.57-8.882-15.84-11.972-20.4c-6.18-9.12-13.14-16.11-20.488-20.49c-8.762-5.25-20.94-8.7-36.69-10.32   c-4.53-0.48-8.13-0.54-26.7-0.54c-0.103,0-0.198,0-0.3,0v10.418c18.724-0.109,24.241,0.077,32.4,1.012   c15.3,1.71,25.829,6.51,36.42,16.62c7.08,6.78,11.22,13.92,19.35,33.45c10.41,25.11,14.58,32.432,23.4,41.28   c6.96,6.93,14.1,11.55,32.278,20.85c8.58,4.38,13.381,6.512,18.45,8.16C712.38,487.11,717.39,485.82,716.91,480.12z" style="stroke:black;fill:#BFDAE3"/><path id="180623552" parent_id="180608862" order="13" structure_id="1" d="M671.76,451.17c-4.229-4.2-11.068-13.86-17.85-25.17c-4.562-7.65-7.562-13.23-13.62-25.35   c-9.479-18.96-15.24-27.93-22.5-35.102c-7.74-7.62-15.271-11.58-28.14-14.82c-13.172-3.299-31.127-5.105-49.65-5.106v6.426   c0.102,0,0.197,0,0.3,0c18.57,0,22.17,0.06,26.7,0.54c9.72,1.02,18.81,2.85,25.62,5.19c12.87,4.47,22.56,12.33,31.56,25.62   c3.09,4.56,5.012,7.83,11.972,20.4c12.118,21.9,18.3,31.92,24.118,39.21c4.592,5.76,10.712,10.892,12.99,10.892   C674.19,453.9,673.86,453.3,671.76,451.17z" style="stroke:black;fill:#BFDAE3"/><path id="180623552" parent_id="180608862" order="14" structure_id="1" d="M734.4,360.12   c0,0.21,0.778,1.05,1.738,1.83c6.602,5.4,15.602,14.58,18.271,18.63c1.68,2.55,15.148,16.02,16.02,16.02   c0.302,0,0.57-0.148,0.57-0.33c0-0.33-9.51-13.5-13.62-18.87c-3.24-4.2-6-7.08-9.63-9.99C741.21,362.16,734.4,358.41,734.4,360.12z   " style="stroke:black;fill:#BFDAE3"/><path id="180623552" parent_id="180608862" order="15" structure_id="1" d="M605.16,396.81c-4.23-4.41-16.2-8.01-36.45-10.979c-8.166-1.227-24.506-2.892-28.71-3.002v18.662   c3.87,0,11.64-0.062,17.25-0.12c12.06-0.15,12.9-0.062,25.05,2.88c16.352,3.93,21.99,4.44,26.07,2.46   c2.069-1.02,2.43-1.229,2.43-1.5C610.8,404.34,607.11,398.88,605.16,396.81z" style="stroke:black;fill:#BFDAE3"/><path id="180623552" parent_id="180608862" order="16" structure_id="1" d="M627.12,441.69c-2.852-4.83-9.602-19.592-11.19-24.48c-0.448-1.32-0.93-1.41-2.79-0.36   c-3.54,1.98-11.64,2.852-21.358,2.312c-3.48-0.21-8.102-0.57-10.262-0.812c-6.21-0.688-19.948-1.05-41.52-1.05v26.587   c4.313,0,8.572,0.037,13.65,0.113c8.068,0.12,8.13,0.09,17.698-1.14c11.432-1.5,14.972-2.102,19.98-3.48   c5.61-1.53,7.229-1.77,11.67-1.77c8.43,0.06,16.02,2.158,22.74,6.33c1.38,0.868,2.64,1.56,2.79,1.56   C629.13,445.5,628.74,444.45,627.12,441.69z" style="stroke:black;fill:#BFDAE3"/><path id="180623552" parent_id="180608862" order="17" structure_id="1" d="M650.94,471.54c-0.21-0.12-0.48-0.24-0.602-0.24c-0.3,0-5.88-4.47-8.25-6.63   c-2.79-2.55-3.78-2.97-7.229-2.97c-1.53,0-3.42-0.15-4.17-0.33c-0.87-0.24-1.41-0.24-1.562-0.062   c-0.09,0.182-2.34,0.392-4.979,0.48c-5.79,0.24-18.631,1.74-39,4.56c-8.552,1.171-18.24,1.5-32.79,1.11   c-4.546-0.12-8.453-0.18-12.36-0.18v8.939c0.052,0,0.099,0,0.15,0c36.148,0,41.488-0.06,46.979-0.51   c21.45-1.8,42.57-2.25,45.99-0.93c1.32,0.51-0.36,2.85-3.69,5.04c-9.63,6.358-28.05,11.31-55.83,15   c-12.6,1.68-15.42,1.83-33.6,1.83v11.43c4.777,0,9.555-0.062,15.21-0.18c12.21-0.271,15.24-0.271,15.42,0.028   c0.18,0.301,0.812,0.24,2.94-0.3c2.1-0.54,3.239-0.688,4.89-0.57c1.44,0.12,2.46,0.03,3.12-0.238c0.57-0.24,1.89-0.42,2.97-0.42   s1.95-0.12,1.95-0.24s1.05-0.42,2.34-0.63c6.511-1.08,17.28-4.352,24.21-7.38c2.16-0.932,4.23-1.771,4.65-1.86   s0.81-0.271,0.898-0.39c0.092-0.12,1.29-0.812,2.7-1.5c1.41-0.69,4.261-2.222,6.36-3.33c2.1-1.142,4.08-2.07,4.41-2.07   c0.3,0,0.63-0.18,0.72-0.39s1.38-1.11,2.88-1.98c3.812-2.188,7.95-4.92,10.23-6.78c1.08-0.84,2.31-1.648,2.79-1.77   c0.63-0.15,0.81-0.36,0.81-0.96c0-0.42,0.27-1.141,0.6-1.59C650.91,474.36,651.45,471.87,650.94,471.54z" style="stroke:black;fill:#BFDAE3"/><path id="180623552" parent_id="180608862" order="18" structure_id="1" d="M613.5,525.87   c0,0.18-0.54,0.33-1.26,0.33c-2.642,0.03-4.74,1.68-4.74,3.75c0,1.95,1.62,3.96,3.78,4.648c2.67,0.9,7.2-0.27,8.55-2.158   c0.6-0.812,0.63-1.08,0.39-2.852l-0.27-1.95l-2.13-0.84C615.24,525.78,613.5,525.39,613.5,525.87z" style="stroke:black;fill:#BFDAE3"/><path id="180623552" parent_id="180608862" order="19" structure_id="1" d="M635.76,312c-2.01,0.81-1.59,5.52,1.2,14.1   c4.62,14.1,11.16,26.34,24.33,45.48c11.67,16.95,15.9,21.99,35.01,41.37c10.11,10.26,15.392,16.2,22.41,25.229   c6.75,8.67,10.38,15,14.49,25.32c1.05,2.55,2.34,5.58,2.91,6.75c2.729,5.49,6.3,8.91,13.68,13.17c3.9,2.25,6.24,3.18,8.01,3.271   c2.521,0.118,2.82-0.271,7.05-9.12c2.312-4.83,3.99-6.99,7.2-9.42c6.21-4.62,11.102-11.28,11.102-15.062   c0-2.1-0.66-2.729-6.302-6.148c-8.369-5.04-14.818-9.512-27.54-19.08c-37.858-28.472-52.858-41.43-65.55-56.521   c-9.93-11.82-23.79-31.2-33.06-46.29C644.37,314.73,639.51,310.5,635.76,312z M654.78,342.36c0.51,0.54,1.979,2.73,3.27,4.89   c10.892,18.06,24.42,33.63,47.102,54.18c4.619,4.17,11.369,10.38,15,13.771c9.84,9.18,28.92,28.2,29.58,29.46   c0.688,1.35,0.72,2.43,0.09,2.97c-0.66,0.54-1.11,0.21-5.521-3.84c-1.979-1.86-8.52-7.53-14.46-12.6   c-24.87-21.182-30.09-26.16-45.45-43.44c-12.63-14.22-16.05-18.93-26.52-36.39c-3.93-6.57-4.98-8.7-4.68-9.51   C653.46,341.19,653.79,341.28,654.78,342.36z" style="stroke:black;fill:#BFDAE3"/><path id="180623552" parent_id="180608862" order="20" structure_id="1" d="M716.91,480.12c-0.15-2.16-1.26-4.771-3.24-7.65c-1.41-2.1-3.479-4.2-12.99-13.318   c-14.79-14.132-28.738-29.79-36.66-41.102c-8.908-12.688-24.148-37.47-34.77-56.55c-3.6-6.45-4.2-7.32-6.96-10.23   c-6.42-6.72-17.88-11.4-31.89-13.05c-4.052-0.45-4.892-0.48-50.4-0.39v7.827c4.408,0.001,8.775,0.083,12.3,0.243   c18.66,0.87,32.4,2.97,44.25,6.81c8.55,2.76,14.91,6.6,21.24,12.84c7.26,7.17,13.02,16.14,22.5,35.102   c2.97,5.938,6.54,12.868,7.95,15.448c5.76,10.5,13.83,23.25,18.81,29.642c2.61,3.33,6.54,7.56,7.08,7.56   c0.15,0,0.271,0.12,0.271,0.3c0,0.602-1.74,0.271-3.54-0.63c-2.312-1.14-7.29-5.818-10.592-9.96c-5.818-7.29-12-17.31-24.118-39.21   c-6.96-12.57-8.882-15.84-11.972-20.4c-6.18-9.12-13.14-16.11-20.488-20.49c-8.762-5.25-20.94-8.7-36.69-10.32   c-4.53-0.48-8.13-0.54-26.7-0.54c-0.103,0-0.198,0-0.3,0v10.418c18.724-0.109,24.241,0.077,32.4,1.012   c15.3,1.71,25.829,6.51,36.42,16.62c7.08,6.78,11.22,13.92,19.35,33.45c10.41,25.11,14.58,32.432,23.4,41.28   c6.96,6.93,14.1,11.55,32.278,20.85c8.58,4.38,13.381,6.512,18.45,8.16C712.38,487.11,717.39,485.82,716.91,480.12z" style="stroke:black;fill:#BFDAE3"/><path id="180623552" parent_id="180608862" order="21" structure_id="1" d="M680.67,311.67   c-3.84,0.42-6.72,1.17-8.04,2.16c-1.14,0.81-1.229,0.96-1.229,2.34c0,1.86,0.658,2.76,6.93,9.57c6.84,7.38,33.688,34.2,40.8,40.74   c22.05,20.28,43.41,38.01,55.68,46.2c6.271,4.17,13.021,7.32,15.722,7.32c3.09,0,4.77-4.08,4.77-11.73   c0-4.648-0.39-6.51-2.04-9.868c-1.199-2.49-1.77-3.24-4.528-6c-2.102-2.1-4.5-4.08-7.08-5.85c-8.972-6.18-14.58-11.22-33.69-30.42   c-13.14-13.23-18.84-19.26-26.16-27.78c-4.26-4.92-7.739-8.46-9.75-9.9c-3.989-2.85-9.66-5.07-15.54-6.18   C692.76,311.58,684.48,311.28,680.67,311.67z M736.14,360c3.9,1.5,10.83,6.33,15.48,10.77c2.82,2.73,5.22,5.76,13.83,17.58   c4.08,5.61,7.59,10.41,7.77,10.65c0.69,0.9-2.31-1.65-6.33-5.37c-5.88-5.43-10.89-10.71-12.479-13.08   c-2.852-4.23-11.55-13.08-18.812-19.05c-1.229-1.02-2.368-1.98-2.52-2.13C732.51,358.83,733.83,359.1,736.14,360z" style="stroke:black;fill:#BFDAE3"/><path id="180623552" parent_id="180608862" order="22" structure_id="1" d="M649.38,477.96   c-1.05,0.18-1.979,0.69-3.45,1.86c-2.31,1.89-6.42,4.59-10.26,6.81c-2.91,1.68-3.27,2.13-3.27,4.26c0,1.71,0.96,3.062,3.539,4.95   c3.301,2.46,5.431,3.63,8.101,4.47c2.31,0.722,2.79,0.75,6.3,0.602c5.7-0.271,10.32-1.53,18-4.95c4.17-1.86,6.24-3.18,6.811-4.29   c0.899-1.71,0.391-4.08-1.561-7.05c-0.898-1.41-1.26-1.65-4.8-3.33c-2.13-1.021-4.5-2.07-5.34-2.34   C660.12,477.84,652.71,477.3,649.38,477.96z" style="stroke:black;fill:#BFDAE3"/><path id="180623552" parent_id="180608862" order="23" structure_id="1" d="M627.03,491.37   c-2.37,1.29-5.222,2.79-6.36,3.36l-2.07,0.988v1.892c0,3-0.84,8.25-2.158,13.26c-1.682,6.51-1.65,6.27-0.812,6.45   c0.391,0.06,3.84,0.479,7.62,0.898c17.22,1.95,24.63,1.74,32.49-0.87c3.72-1.26,5.31-2.158,6.93-3.898   c1.41-1.53,1.47-1.95,0.6-3.12c-0.358-0.48-0.658-1.5-0.778-2.521c-0.09-1.02-0.33-1.71-0.54-1.71c-0.182,0-1.2,0.69-2.22,1.5   c-2.4,1.921-3.69,2.58-6.57,3.36c-3.12,0.81-6.601,0.81-8.73,0c-4.198-1.65-6.028-4.32-4.71-6.93c0.48-0.9,2.7-3.03,3.182-3.03   c0.18,0,0.3-0.18,0.3-0.39s-0.84-0.812-1.86-1.29c-1.92-0.9-5.729-3.48-7.229-4.86c-1.38-1.29-2.102-2.97-1.892-4.32   c0.15-0.96,0.12-1.14-0.329-1.108C631.59,489.03,629.4,490.08,627.03,491.37z" style="stroke:black;fill:#BFDAE3"/><path id="180623552" parent_id="180608862" order="24" structure_id="1" d="M662.88,513.18   c-1.89,2.13-3.72,3.182-7.83,4.472c-7.56,2.398-16.38,2.608-31.35,0.75c-5.102-0.632-13.17-1.352-18.66-1.682   c-3.12-0.18-3.54-0.148-3.54,0.271c0,1.08,5.22,3.479,17.49,7.979c10.229,3.78,11.01,4.2,11.01,6c0,1.05,3.36,3.45,12.84,9.15   c3.181,1.92,5.94,3.479,6.12,3.479c0.21,0,0.21-0.358,0.061-1.14c-0.569-2.43-0.301-4.59,0.841-6.96   c2.88-6.06,9.72-13.41,14.729-15.96c2.01-0.99,8.642-3.24,11.4-3.87c1.92-0.42,2.279-1.05,0.75-1.29   c-0.54-0.09-2.4-0.39-4.141-0.66c-1.739-0.27-4.08-0.81-5.25-1.229c-1.141-0.392-2.311-0.78-2.551-0.84   C664.53,511.56,663.75,512.19,662.88,513.18z" style="stroke:black;fill:#BFDAE3"/><path id="180623552" parent_id="180608862" order="25" structure_id="1" d="M675.63,515.85   c-6.21,1.592-11.01,3.48-13.648,5.37c-1.86,1.352-6,5.37-7.712,7.53c-1.71,2.16-4.108,6-4.738,7.59c-0.84,2.102-0.84,5.01-0.03,6.9   c0.57,1.29,0.9,1.59,3.99,3.42c6.39,3.81,18,8.97,18.66,8.28c0.09-0.092,0.028-1.65-0.182-3.48c-0.96-9.24,2.222-23.37,7.41-32.97   c0.72-1.38,1.32-2.7,1.32-2.94C680.7,514.89,679.02,515.01,675.63,515.85z" style="stroke:black;fill:#BFDAE3"/><path id="180623552" parent_id="180608862" order="26" structure_id="1" d="M681.99,514.68   c-0.54,0.12-1.2,1.23-3.09,5.012c-4.86,9.898-7.2,20.22-6.812,29.908c0.21,5.131,0.392,5.7,1.771,6.182   c3.658,1.26,7.47,4.979,11.79,11.52c8.368,12.75,11.25,19.41,11.25,26.25c0,12.932,2.55,23.07,7.318,29.16   c1.562,2.01,4.92,4.89,5.67,4.89c0.66,0,5.13-2.43,8.04-4.35c7.5-4.979,14.222-11.82,18.57-18.9   c8.399-13.68,10.8-33.358,5.97-49.14c-3.72-12.12-12.029-22.89-23.67-30.6c-8.91-5.94-20.52-9.48-32.398-9.932   C684.33,514.62,682.35,514.62,681.99,514.68z" style="stroke:black;fill:#BFDAE3"/><path id="180623552" parent_id="180608862" order="27" structure_id="1" d="M735.81,490.83c-0.148-2.34-0.27-2.82-1.738-5.7c-5.04-9.99-20.222-29.729-41.37-53.88   c-14.642-16.71-25.74-31.23-38.312-50.1c-8.58-12.87-12.18-18.93-18.09-30.45c-6.45-12.51-8.91-16.26-13.56-20.55   c-6.21-5.7-13.892-8.25-30.45-10.05c-10.68-1.14-15.48-1.29-33.09-1.02c-10.143,0.156-14.306,0.223-19.2,0.221v18.378   c3.258-0.016,7.487-0.194,15.45-0.599c5.34-0.27,32.67,0.39,36.148,0.84c10.142,1.41,19.352,4.56,25.892,8.88   c4.59,3.03,7.68,6.69,11.46,13.5c12.09,21.81,29.97,50.58,38.489,61.95c7.921,10.56,21.511,25.35,36.989,40.17   c8.972,8.61,10.65,10.65,12.271,15.12c0.84,2.28,0.75,5.01-0.182,6.3c-3.51,4.771-15,1.65-36.93-9.99   c-19.74-10.5-26.85-15.81-34.109-25.38c-5.399-7.17-9.841-15.93-17.881-35.37c-7.619-18.479-11.25-24.84-18.238-31.89   c-9.54-9.66-19.021-14.58-32.312-16.71c-8.83-1.437-13.603-1.619-37.05-1.62v20.166c11.111,0.17,32.19,2.805,45.81,5.875   c10.41,2.34,16.771,5.04,19.74,8.34c3.57,3.96,6.602,9.51,9.271,16.98c3.39,9.39,8.818,21.54,12.33,27.54   c0.96,1.62,3.06,4.738,4.68,6.898c4.438,5.91,6.87,10.352,6.87,12.512c0,0.75,0.18,1.078,0.688,1.318   c0.36,0.182,1.562,1.11,2.642,2.102c6.568,5.97,13.38,10.198,24.75,15.358c6.238,2.82,12.42,6.48,15.12,8.91   c1.8,1.62,18.3,7.38,31.05,10.8c6.54,1.771,13.89,1.74,17.85-0.06C734.61,497.88,736.11,495.27,735.81,490.83z" style="stroke:black;fill:#BFDAE3"/><path id="180623552" parent_id="180608862" order="28" structure_id="1" d="M636.6,539.94   c-1.229,2.698-3.6,5.31-5.79,6.3c-2.67,1.26-4.14,1.41-13.02,1.41c-4.68,0-8.49,0.09-8.49,0.21s3.48,3.688,7.74,7.948   c20.07,20.131,42.36,46.592,54.36,64.53l2.85,4.26l1.65-0.238c7.59-1.021,15.539,1.71,23.398,8.01c1.05,0.84,2.07,1.53,2.312,1.53   c0.3,0,0.39-0.57,0.39-2.222c0-3.51,0.99-5.188,3.27-5.488c1.44-0.21,1.53-0.602,0.45-1.62c-1.2-1.11-3.239-4.08-4.38-6.42   c-2.79-5.58-4.438-13.83-4.438-22.2c0-4.53-0.36-7.05-1.5-10.44c-2.25-6.688-9.99-19.68-14.7-24.63c-2.94-3.09-4.98-4.38-9.09-5.76   c-7.32-2.43-13.08-5.25-21.961-10.771c-7.801-4.858-11.069-6.75-11.551-6.75C637.83,537.63,637.2,538.62,636.6,539.94z" style="stroke:black;fill:#BFDAE3"/><path id="180623552" parent_id="180608862" order="29" structure_id="1" d="M591.36,546.99   c-0.69,0.688-1.262,1.47-1.262,1.68s0.842,1.41,1.892,2.7c9.778,11.79,31.74,44.7,41.91,62.79c1.618,2.88,2.25,3.09,1.89,0.6   c-0.42-2.938-0.24-5.76,0.42-7.29c0.78-1.739,1.62-2.55,3.66-3.479c2.28-1.08,5.188-0.9,8.04,0.51c4.38,2.16,9.6,9,12.24,16.05   c0.658,1.74,0.778,1.86,3.39,3.45c1.47,0.9,3.42,2.22,4.32,2.91c0.898,0.72,1.829,1.29,2.1,1.29c0.24,0,0.81-0.42,1.32-0.932   c0.479-0.51,1.318-1.17,1.858-1.528c0.512-0.33,0.96-0.75,0.96-0.96c0-1.051-11.608-17.07-19.35-26.73   c-12.81-15.96-31.35-36.42-42.18-46.56c-4.2-3.932-4.23-3.96-5.91-4.142c-4.08-0.42-9.181-1.08-10.62-1.35   C593.28,545.46,592.74,545.58,591.36,546.99z" style="stroke:black;fill:#BFDAE3"/><path id="180623552" parent_id="180608862" order="30" structure_id="1" d="M685.98,502.53   c-5.972,0.988-8.882,3.87-5.94,5.85c1.68,1.17,4.83,1.68,11.61,1.92c3.72,0.15,7.35,0.45,8.85,0.75   c6.21,1.23,14.82,4.71,19.89,8.04c5.28,3.48,11.012,5.7,11.012,4.26c0-1.858-4.142-6.448-9.302-10.318   c-8.188-6.182-14.818-9.21-22.59-10.352C696.18,502.17,688.53,502.08,685.98,502.53z" style="stroke:black;fill:#BFDAE3"/><path id="180623552" parent_id="180608862" order="31" structure_id="1" d="M566.25,570.03   c-2.85,2.37-5.91,3.27-10.98,3.27c-2.188,0-2.97,0.09-2.97,0.392c0,0.18,1.41,1.438,3.15,2.729c1.71,1.29,4.229,3.51,5.58,4.92   c2.55,2.61,3.75,3.36,5.37,3.36c1.59,0,2.58-0.75,3.51-2.61c0.75-1.59,0.84-2.04,0.84-4.89c0-1.771-0.18-3.69-0.39-4.352   c-0.87-2.64-1.65-4.35-1.98-4.318C568.2,568.53,567.24,569.22,566.25,570.03z" style="stroke:black;fill:#BFDAE3"/><path id="180623552" parent_id="180608862" order="32" structure_id="1" d="M706.71,644.1c-2.67,0.842-6.33,1.86-8.16,2.28c-15.12,3.48-16.59,3.96-21.18,6.99   c-4.5,2.97-6.57,4.979-9.15,8.88c-2.01,3.06-5.79,7.35-6.45,7.35c-0.148,0-0.27,0.182-0.27,0.392c0,0.688-2.82,4.47-4.56,6.09   c-2.25,2.13-3.271,2.61-6,2.76c-2.972,0.181-3.96-0.18-9.66-3.358c-5.04-2.82-10.65-5.58-12.9-6.33c-0.81-0.271-2.97-0.66-4.8-0.9   c-5.73-0.75-7.83-1.41-10.47-3.36c-2.972-2.188-4.71-6.06-5.94-13.14c-1.32-7.56-0.03-15,3.57-20.49c1.56-2.37,3-3.21,5.43-3.21   c3.78,0.03,6.33,1.95,11.19,8.4c1.56,2.04,4.738,5.608,7.409,8.28c5.461,5.46,12.841,11.97,13.619,11.97   c0.45,0,0.512-0.3,0.512-2.13c0-1.142,0.148-2.7,0.33-3.42c0.3-1.2,0.238-1.62-0.48-3.812c-1.59-4.83-9.75-23.52-12.66-29.04   c-7.38-14.01-26.16-43.02-39.029-60.3c-4.351-5.85-6.931-9-7.381-9c-0.39,0-5.25,4.29-11.729,10.32   c-2.312,2.16-5.312,4.948-6.69,6.18c-2.85,2.55-2.76,2.1-1.26,6.39c1.59,4.53,1.17,9.42-1.02,11.73   c-0.87,0.96-1.172,1.08-2.462,1.08c-1.92,0-2.938-0.63-5.97-3.75c-3.06-3.12-9.21-7.771-10.68-8.07   c-3.69-0.688-6.24-4.47-7.2-10.68c-1.05-6.932,1.95-15.84,6.54-19.352c2.73-2.1,5.521-2.64,10.98-2.1   c1.948,0.18,2.31,0.15,2.31-0.24c0-0.3-1.17-0.84-3.57-1.71c-1.979-0.688-3.84-1.438-4.17-1.68c-0.66-0.45-1.26-2.49-1.26-4.23   c0-0.63-0.21-1.47-0.48-1.829c-0.42-0.631-0.63-0.659-2.46-0.479c-1.108,0.12-2.22,0.36-2.46,0.57   c-0.238,0.18-0.688,0.448-0.988,0.54c-0.75,0.27-1.352,1.89-1.592,4.29c-0.27,2.67-1.229,3.778-3.81,4.318   c-0.575,0.115-1.149,0.17-1.71,0.174v31.478c3.6,0,3.84,0.03,5.76,0.96c4.771,2.25,7.352,6.84,8.642,15.358   c0.898,5.82,2.43,19.11,4.8,41.342c2.52,23.88,2.55,24.148,3.18,24.54c1.29,0.778,2.311,1.83,2.88,2.938   c0.51,1.05,0.602,1.62,0.48,4.05c-0.12,2.58-0.182,2.88-0.841,3.42c-0.631,0.512-1.021,0.57-2.279,0.422   c-1.26-0.15-1.59-0.092-1.74,0.3c-0.42,1.08-0.18,1.56,0.87,1.92c1.2,0.39,2.85,1.68,2.85,2.188c0.03,0.99,0.511,1.2,2.04,0.842   c2.432-0.602,8.28,0.42,11.91,2.068c2.34,1.05,3.57,2.13,5.97,5.34c1.052,1.44,3.12,3.69,4.562,4.98   c3.688,3.39,4.14,4.89,1.71,5.55c-0.63,0.18-1.83,0.24-2.7,0.12c-2.04-0.21-2.16,0.42-0.3,1.32   c3.149,1.528,12.899,8.398,13.859,9.778c0.689,0.99,0.54,1.592-0.601,2.7c-2.22,2.16-1.41,2.16,7.141,0.03   c8.851-2.22,16.801-5.13,34.109-12.42c4.38-1.86,9.57-3.96,11.55-4.71c4.08-1.5,5.102-2.07,14.852-8.28   c7.949-5.07,13.199-8.16,18.09-10.59c5.64-2.852,10.29-6.271,18-13.23c4.26-3.898,9.21-9.148,9.21-9.84   C714,642.24,711.75,642.54,706.71,644.1z M612.12,690.87c-1.68,2.37-6.33,2.37-11.43-0.03c-2.552-1.2-3.512-3-2.132-3.96   c0.99-0.688,1.53-0.6,4.472,0.72c2.88,1.29,3.568,1.44,3.568,0.75c0-0.84-4.26-2.88-10.648-5.1c-4.44-1.53-6.03-2.7-7.44-5.46   c-0.87-1.68-0.479-3,0.99-3.45c0.69-0.21,2.25,0.21,3.99,1.11c0.87,0.42,3.358,2.04,5.52,3.6c2.16,1.562,5.19,3.51,6.75,4.38   C612.06,686.91,613.59,688.74,612.12,690.87z M636.36,689.76c-1.2,0.57-1.83,0.69-4.262,0.66c-8.79-0.09-18.81-4.17-32.908-13.38   c-4.95-3.21-11.012-6.271-18.48-9.33c-5.55-2.28-7.53-3.39-9.72-5.521c-1.771-1.71-1.92-2.369-0.69-3.029   c0.932-0.48,3.03-0.271,6.9,0.688c1.56,0.392,4.26,1.2,6,1.802c1.74,0.568,8.16,2.608,14.25,4.5   c27.09,8.368,37.35,12.72,40.648,17.278C639.78,685.77,639.06,688.44,636.36,689.76z" style="stroke:black;fill:#BFDAE3"/><path id="180623552" parent_id="180608862" order="33" structure_id="1" d="M613.26,628.8c-2.04,1.26-3.6,3.75-5.22,8.431   l-0.99,2.819l0.03,6c0,5.7,0.06,6.181,0.93,9.45c1.142,4.26,2.312,6.63,4.2,8.43c2.521,2.46,4.8,3.33,10.53,4.051   c5.37,0.659,9.06,2.069,17.01,6.569c6.93,3.9,7.68,4.2,10.65,4.17c2.01-0.028,2.85-0.18,3.869-0.72   c1.891-0.93,4.021-3.061,5.79-5.67c1.319-1.98,1.471-2.4,1.351-3.42c-0.3-2.19-2.851-4.74-8.88-8.852   c-8.04-5.52-19.681-16.38-25.08-23.46c-3.66-4.77-5.55-6.63-7.74-7.648C617.64,627.99,614.73,627.93,613.26,628.8z" style="stroke:black;fill:#BFDAE3"/><path id="180623552" parent_id="180608862" order="34" structure_id="1" d="M675.69,624.6   c-2.58,0.602-5.342,3.12-6.36,5.852c-1.47,3.898-2.13,10.2-1.561,14.25c0.659,4.38,2.069,7.2,4.591,9   c1.979,1.438,2.34,1.438,4.5-0.09c2.698-1.892,5.068-3.12,7.948-3.99l2.49-0.78l0.45-1.53c0.99-3.3,0.42-8.22-1.59-14.068   c-1.11-3.15-1.65-4.26-2.94-5.852C681.54,625.35,678.06,624.03,675.69,624.6z" style="stroke:black;fill:#BFDAE3"/><path id="180623552" parent_id="180608862" order="35" structure_id="1" d="M611.97,407.31c-0.87-1.68-1.71-2.22-2.25-1.38c-0.358,0.602-2.67,1.44-4.71,1.74   c-4.02,0.57-9.51-0.27-22.71-3.42c-12.148-2.94-12.99-3.03-25.05-2.88c-7.079,0.08-12.529,0.124-17.25,0.13v15.8   c21.57,0,35.31,0.36,41.52,1.05c11.73,1.32,21.69,1.262,27.69-0.148c2.85-0.66,5.79-2.13,5.79-2.88   C615,414.66,612.99,409.35,611.97,407.31z" style="stroke:black;fill:#BFDAE3"/><path id="180623552" parent_id="180608862" order="36" structure_id="1" d="M716.91,480.12c-0.15-2.16-1.26-4.771-3.24-7.65c-1.41-2.1-3.479-4.2-12.99-13.318   c-14.79-14.132-28.738-29.79-36.66-41.102c-8.908-12.688-24.148-37.47-34.77-56.55c-3.6-6.45-4.2-7.32-6.96-10.23   c-6.42-6.72-17.88-11.4-31.89-13.05c-4.052-0.45-4.892-0.48-50.4-0.39v7.827c4.408,0.001,8.775,0.083,12.3,0.243   c18.66,0.87,32.4,2.97,44.25,6.81c8.55,2.76,14.91,6.6,21.24,12.84c7.26,7.17,13.02,16.14,22.5,35.102   c2.97,5.938,6.54,12.868,7.95,15.448c5.76,10.5,13.83,23.25,18.81,29.642c2.61,3.33,6.54,7.56,7.08,7.56   c0.15,0,0.271,0.12,0.271,0.3c0,0.602-1.74,0.271-3.54-0.63c-2.312-1.14-7.29-5.818-10.592-9.96c-5.818-7.29-12-17.31-24.118-39.21   c-6.96-12.57-8.882-15.84-11.972-20.4c-6.18-9.12-13.14-16.11-20.488-20.49c-8.762-5.25-20.94-8.7-36.69-10.32   c-4.53-0.48-8.13-0.54-26.7-0.54c-0.103,0-0.198,0-0.3,0v10.418c18.724-0.109,24.241,0.077,32.4,1.012   c15.3,1.71,25.829,6.51,36.42,16.62c7.08,6.78,11.22,13.92,19.35,33.45c10.41,25.11,14.58,32.432,23.4,41.28   c6.96,6.93,14.1,11.55,32.278,20.85c8.58,4.38,13.381,6.512,18.45,8.16C712.38,487.11,717.39,485.82,716.91,480.12z" style="stroke:black;fill:#BFDAE3"/><path id="180623552" parent_id="180608862" order="37" structure_id="1" d="M638.61,460.74c-0.36-2.67-4.62-9.78-7.682-12.84c-3.148-3.15-9.21-6.602-14.43-8.25   c-4.11-1.262-8.94-2.012-13.5-2.04c-4.44,0-6.06,0.238-11.67,1.77c-5.01,1.38-8.55,1.98-19.98,3.48   c-9.568,1.229-9.63,1.26-17.698,1.14c-5.078-0.076-9.337-0.113-13.65-0.113v9.264c21.45,0,24.3-0.12,34.05-1.5   c5.01-0.722,9.51-1.17,20.55-2.102c3.062-0.24,7.5-0.72,9.9-1.08c5.55-0.778,10.41-0.688,12.96,0.3c2.4,0.932,3.63,2.012,6.51,5.82   c3.392,4.44,5.341,6.392,6.812,6.75c0.63,0.18,2.7,0.36,4.59,0.42l3.39,0.09L638.61,460.74z" style="stroke:black;fill:#BFDAE3"/><path id="180623552" parent_id="180608862" order="38" structure_id="1" d="M674.1,484.8c0,0.182,0.271,0.84,0.602,1.5   c1.53,3,1.318,5.19-0.66,6.72c-1.11,0.842-7.14,3.75-10.53,5.102c-2.85,1.14-8.16,2.49-11.489,2.91c-2.279,0.3-3.391,0.3-5.671,0   c-2.608-0.36-2.908-0.36-3.658,0.12c-2.102,1.318-3.392,3.238-3.392,5.01c0,0.78,0.33,1.26,1.62,2.52   c2.7,2.61,6.12,3.33,11.19,2.37c1.29-0.24,3.3-0.898,4.438-1.47c2.16-1.08,5.761-4.05,7.08-5.88c1.62-2.22,10.17-6.57,15-7.62   c1.5-0.33,4.44-3.93,4.47-5.49c0-0.78-7.438-6.09-8.55-6.09C674.31,484.5,674.1,484.65,674.1,484.8z" style="stroke:black;fill:#BFDAE3"/><path id="180623552" parent_id="180608862" order="39" structure_id="1" d="M703.35,627.12c-1.5,1.5-1.71,5.188-0.448,7.8   c0.33,0.69,1.14,1.95,1.8,2.85c0.66,0.9,1.2,1.95,1.2,2.342c0,0.81,1.47,1.648,3.84,2.158c2.97,0.632,4.858,0.271,6.3-1.198   c1.26-1.29,1.5-2.82,0.69-4.65c-1.2-2.7-6.45-8.49-8.552-9.45C706.38,626.16,704.25,626.22,703.35,627.12z" style="stroke:black;fill:#BFDAE3"/><path id="180623552" parent_id="180608862" order="40" structure_id="1" d="M659.85,639.81   c-2.698,0.66-6.51,3.092-7.858,4.98c-2.642,3.72-3.812,10.26-2.28,12.81c1.26,2.131,5.58,2.82,8.7,1.381   c3.63-1.711,7.14-4.771,9.21-8.039l1.08-1.682l-0.602-2.34c-0.33-1.26-0.6-2.939-0.6-3.72c0-1.142-0.15-1.53-0.81-2.16   c-0.48-0.42-1.142-0.93-1.5-1.11C664.56,639.6,661.05,639.54,659.85,639.81z" style="stroke:black;fill:#BFDAE3"/><path id="180623552" parent_id="180608862" order="41" structure_id="1" d="M541.83,656.82   c-0.271,0.3-0.24,0.84,0.12,2.16c0.33,1.229,0.45,3.27,0.45,6.868c0,5.4,0.21,6.66,1.29,8.28c1.17,1.74,2.43,2.37,4.738,2.37   c1.11,0,4.44,0.21,7.352,0.45c2.91,0.27,5.7,0.39,6.148,0.3c0.78-0.18,0.87-0.33,0.87-1.32c0-0.688,0.36-1.89,0.9-2.909   c1.02-1.979,1.14-3.271,0.42-4.289c-0.78-1.08-2.25-1.53-6.21-1.83c-6.54-0.512-8.07-1.021-10.47-3.512   c-1.44-1.5-3.48-4.47-4.142-6.06C542.91,656.34,542.37,656.16,541.83,656.82z" style="stroke:black;fill:#BFDAE3"/><path id="180623552" parent_id="180608862" order="42" structure_id="1" d="M627.75,459.6c-0.72-0.75-2.52-2.908-3.96-4.8c-4.35-5.64-5.97-6.45-12.54-6.42   c-2.31,0-5.73,0.271-8.4,0.66c-2.46,0.36-7.948,0.93-12.148,1.26c-9.182,0.75-12.15,1.05-17.102,1.8   c-5.488,0.842-9.75,1.17-18.3,1.5c-4.868,0.188-10.102,0.27-15.3,0.265v13.417c3.907,0,7.814,0.06,12.36,0.18   c14.55,0.39,24.238,0.061,32.79-1.11c20.52-2.85,33.238-4.318,39.09-4.56c3.09-0.12,4.858-0.3,4.858-0.51   C629.1,461.1,628.5,460.35,627.75,459.6z" style="stroke:black;fill:#BFDAE3"/><path id="180623552" parent_id="180608862" order="43" structure_id="1" d="M569.91,659.31   c-0.51,0.512-0.12,1.682,0.93,2.7c1.86,1.892,4.352,3.33,8.852,5.16c9.688,3.99,14.188,6.24,19.68,9.9   c4.8,3.238,8.46,5.34,13.83,7.979c7.62,3.72,12.51,5.04,18.81,5.07c3.54,0.03,4.021-0.03,4.8-0.602   c1.23-0.898,2.19-2.46,2.19-3.539c-0.03-5.069-11.25-10.471-39.9-19.229c-4.71-1.41-11.368-3.51-14.85-4.65   c-3.45-1.14-7.35-2.25-8.61-2.52C573.27,659.1,570.27,658.95,569.91,659.31z" style="stroke:black;fill:#BFDAE3"/><path id="180623552" parent_id="180608862" order="44" structure_id="1" d="M561.48,652.02c-0.092-0.81-0.722-6.538-1.382-12.72c-4.108-38.43-5.729-51.989-6.75-55.95   c-0.238-0.988-0.988-2.908-1.648-4.229c-1.47-3.03-3.932-5.46-6.45-6.39c-1.229-0.47-3.304-0.756-5.25-0.803v4.168   c0.273-0.061,0.536,0.034,0.75,0.323c1.41,1.891,1.65,7.92,1.65,43.68c0,19.29,0.119,31.83,0.3,32.102   c0.24,0.39,0.39,0.39,1.17-0.09c1.2-0.722,3.63-0.66,5.43,0.12c1.11,0.479,1.59,0.538,2.04,0.3c0.87-0.48,3.75-0.392,6.21,0.148   c1.17,0.24,2.55,0.54,3.12,0.63l1.021,0.182L561.48,652.02z" style="stroke:black;fill:#BFDAE3"/><path id="180623552" parent_id="180608862" order="45" structure_id="1" d="M542.55,654.96c-0.09-0.78-0.3-17.82-0.42-37.86c-0.24-35.55-0.33-38.52-1.229-40.17   c-0.198-0.396-0.552-0.596-0.9-0.602v79.082l0.72,0.66c0.512,0.479,0.932,0.63,1.38,0.479   C542.7,656.37,542.73,656.19,542.55,654.96z" style="stroke:black;fill:#BFDAE3"/><path id="180623552" parent_id="180608862" order="46" structure_id="1" d="M633.12,474.78c-3.42-1.32-24.54-0.87-45.99,0.93c-5.49,0.45-10.83,0.51-46.979,0.51c-0.053,0-0.1,0-0.15,0   v20.432c18.18,0,21-0.15,33.6-1.83c27.78-3.69,46.2-8.642,55.83-15C632.76,477.63,634.44,475.29,633.12,474.78z" style="stroke:black;fill:#BFDAE3"/><path id="180623552" parent_id="180608862" order="47" structure_id="1" d="M661.29,625.71c0.06,2.37-0.03,2.79-0.81,4.2   c-1.382,2.52-4.11,3.99-7.352,3.99c-3.39,0-6.66-1.592-10.05-4.892c-2.97-2.91-2.97-2.52,0,4.29c2.85,6.54,5.64,13.38,5.938,14.46   c0.302,1.29,0.9,0.99,1.65-0.81c0.87-2.102,2.67-4.05,4.98-5.4c2.158-1.29,5.13-2.25,6.868-2.25c1.262,0,3.54,0.87,3.9,1.47   c0.12,0.182,0.42,0.33,0.66,0.33c0.3,0,0.42-0.39,0.42-1.59c0-2.25,0.479-5.068,1.41-8.1l0.81-2.642l-1.2-1.17   c-1.229-1.229-6.238-4.5-6.868-4.5C661.38,623.1,661.26,623.82,661.29,625.71z" style="stroke:black;fill:#BFDAE3"/><path id="180623552" parent_id="180608862" order="48" structure_id="1" d="M565.47,670.89   c-1.318,0.87-2.37,2.94-2.37,4.71v1.352l2.19,0.51c1.41,0.33,3.99,1.44,7.41,3.18c2.88,1.472,6,2.91,6.93,3.182   c1.771,0.51,3.271,1.47,3.271,2.1c0,0.66,3.568,2.01,5.76,2.19c1.59,0.148,2.188,0.06,2.79-0.33c1.47-0.96,1.08-1.771-2.521-5.25   c-1.8-1.74-4.08-4.29-5.068-5.61c-1.021-1.35-2.4-2.85-3.092-3.359c-2.25-1.681-8.52-3.359-12.39-3.359   C566.91,670.2,566.25,670.35,565.47,670.89z" style="stroke:black;fill:#BFDAE3"/><path id="180623552" parent_id="180608862" order="49" structure_id="1" d="M561.48,652.02c-0.092-0.81-0.722-6.538-1.382-12.72c-4.108-38.43-5.729-51.989-6.75-55.95   c-0.238-0.988-0.988-2.908-1.648-4.229c-1.47-3.03-3.932-5.46-6.45-6.39c-1.229-0.47-3.304-0.756-5.25-0.803v4.168   c0.273-0.061,0.536,0.034,0.75,0.323c1.41,1.891,1.65,7.92,1.65,43.68c0,19.29,0.119,31.83,0.3,32.102   c0.24,0.39,0.39,0.39,1.17-0.09c1.2-0.722,3.63-0.66,5.43,0.12c1.11,0.479,1.59,0.538,2.04,0.3c0.87-0.48,3.75-0.392,6.21,0.148   c1.17,0.24,2.55,0.54,3.12,0.63l1.021,0.182L561.48,652.02z" style="stroke:black;fill:#BFDAE3"/><path id="180623552" parent_id="180608862" order="50" structure_id="1" d="M576.21,545.46c-0.09,0.54-0.36,2.55-0.6,4.44   c-0.602,4.318-1.65,8.04-3.392,11.67c-2.01,4.29-1.738,4.648,1.352,1.77c6.3-5.88,10.56-9.78,14.068-12.96   c2.19-1.95,3.96-3.72,3.96-3.93c0-0.24-0.96-0.42-3.21-0.54c-2.938-0.18-8.698-0.84-11.1-1.29   C576.39,544.44,576.33,544.5,576.21,545.46z" style="stroke:black;fill:#BFDAE3"/><path id="180623552" parent_id="180608862" order="51" structure_id="1" d="M616.14,496.8   c-1.83,0.99-8.908,3.75-12.54,4.95c-4.229,1.35-11.64,3.27-14.76,3.78c-1.29,0.21-2.34,0.54-2.34,0.688   c0,0.182,0.6,0.63,1.32,1.021c0.72,0.39,2.37,1.59,3.66,2.67c1.318,1.08,3.63,2.91,5.158,4.08l2.79,2.1l6.812,0.54   c3.75,0.3,7.17,0.54,7.59,0.57c0.75,0,0.84-0.182,1.77-3.33c1.5-5.13,2.4-9.96,2.61-14.01   C618.42,495.72,618.36,495.63,616.14,496.8z" style="stroke:black;fill:#BFDAE3"/><path id="180623552" parent_id="180608862" order="52" structure_id="1" d="M560.64,529.35   c-2.88,0.48-5.068,1.2-6.06,1.98c-0.69,0.54-0.78,0.84-0.78,2.31c0.03,3.24-0.18,3.062,8.25,6.24   c4.142,1.562,8.79,3.15,10.352,3.54c5.368,1.35,12.39,2.28,17.31,2.28h3.061l0.301-1.142c0.479-1.619,0.42-2.398-0.301-3.898   c-1.261-2.61-5.461-4.86-16.079-8.642C568.02,528.96,565.5,528.54,560.64,529.35z" style="stroke:black;fill:#BFDAE3"/><path id="180623552" parent_id="180608862" order="53" structure_id="1" d="M623.28,532.35   c-0.15,0.87-0.511,1.65-1.11,2.28c-0.479,0.51-0.87,1.17-0.87,1.47c0,0.812,3.511,5.552,5.4,7.29   c2.188,2.04,3.569,2.762,4.648,2.49c1.32-0.33,3.9-3.21,5.102-5.7c0.569-1.199,1.05-2.398,1.05-2.67c0-0.27-1.35-1.41-3.12-2.608   c-1.71-1.171-3.27-2.312-3.479-2.552c-0.271-0.33-0.78-0.39-2.07-0.27c-1.29,0.149-2.07,0.03-3.33-0.45   c-0.9-0.36-1.74-0.63-1.83-0.63C623.55,531,623.37,531.6,623.28,532.35z" style="stroke:black;fill:#BFDAE3"/><path id="180623552" parent_id="180608862" order="54" structure_id="1" d="M588.15,514.98   c-6,3.328-10.86,3.328-13.052,0c-0.81-1.23-0.84-1.23-3.75-0.15c-0.898,0.33-1.648,0.78-1.648,0.96c0,0.66,6.27,5.43,8.91,6.78   c1.438,0.72,2.22,0.778,4.62,0.27c1.648-0.33,2.76-0.18,5.908,0.812c0.54,0.18,0.66,0.118,0.66-0.392c0-1.648,1.65-1.89,3.51-0.479   c0.512,0.39,1.052,0.72,1.142,0.72s0.66-0.36,1.229-0.78c0.57-0.45,1.53-0.96,2.13-1.17c0.631-0.21,1.142-0.568,1.142-0.81   c0-0.69-7.41-7.17-8.16-7.11C590.67,513.63,589.47,514.23,588.15,514.98z" style="stroke:black;fill:#BFDAE3"/><path id="180623552" parent_id="180608862" order="55" structure_id="1" d="M559.29,507.81c-6.24,0.15-14.91,0.24-19.29,0.24v32.242c0.947,0.021,1.899-0.081,2.73-0.322   c1.828-0.568,2.398-1.38,2.698-4.02c0.271-2.49,0.96-4.021,2.011-4.5c0.841-0.36,0.841-0.602-0.091-1.71   c-1.71-2.04-0.33-6.602,3.062-10.2c3.27-3.42,10.59-7.71,17.398-10.17C572.52,507.66,572.04,507.57,559.29,507.81z" style="stroke:black;fill:#BFDAE3"/><path id="180623552" parent_id="180608862" order="56" structure_id="1" d="M590.31,522.21c-0.448,0.42-0.18,2.19,0.54,3.78   c1.142,2.49,1.29,4.318,0.392,5.608c-0.9,1.32-2.67,2.342-4.5,2.58c-0.932,0.12-1.44,0.36-1.44,0.602c0,0.239,0.99,0.898,2.19,1.5   c1.17,0.6,2.729,1.56,3.45,2.13c1.229,1.02,2.46,2.91,2.46,3.84c0,0.99,2.13,0.18,3.42-1.35c2.1-2.521,1.71-7.44-1.021-12.75   c-0.72-1.352-1.2-2.7-1.2-3.301c0-0.869-0.21-1.199-1.26-1.949C592.2,522.06,590.76,521.73,590.31,522.21z" style="stroke:black;fill:#BFDAE3"/><path id="180623552" parent_id="180608862" order="57" structure_id="1" d="M588.57,675.03   c-0.48,0.479-0.57,0.81-0.42,1.56c0.479,2.22,3.06,4.92,5.488,5.76c8.07,2.852,12.722,4.98,12.9,5.91   c0.15,0.84-0.81,0.66-3.271-0.51c-2.578-1.23-4.56-1.41-5.068-0.48c-0.45,0.842-0.391,1.08,0.45,2.07   c0.869,1.05,4.198,2.521,6.96,3.09c2.37,0.48,4.738,0.03,6.09-1.229c2.01-1.891,0.72-3.9-4.32-6.75   c-2.76-1.562-5.25-3.182-10.14-6.54C592.32,674.49,589.89,673.71,588.57,675.03z" style="stroke:black;fill:#BFDAE3"/><path id="180623552" parent_id="180608862" order="58" structure_id="1" d="M544.35,652.02   c-1.438,0.632-1.77,1.2-1.56,2.882c0.36,3,3.96,8.55,6.63,10.198c1.2,0.722,4.29,1.381,8.01,1.682   c2.432,0.18,2.642,0.148,2.94-0.42c0.75-1.41,0.42-2.16-3.03-6.722c-2.82-3.75-3.688-4.68-5.34-5.76   C548.64,651.66,546.39,651.12,544.35,652.02z" style="stroke:black;fill:#BFDAE3"/><path id="180623552" parent_id="180608862" order="59" structure_id="1" d="M552.09,652.41   c-1.35,0.18-1.229,0.66,0.45,1.77c0.96,0.63,2.49,2.37,4.92,5.552c3.75,4.92,4.56,5.578,6.45,5.22c1.26-0.24,1.5-0.72,1.77-3.48   c0.45-4.979-1.438-7.229-7.14-8.488C556.32,652.5,553.47,652.23,552.09,652.41z" style="stroke:black;fill:#BFDAE3"/><path id="180623552" parent_id="180608862" order="60" structure_id="1" d="M541.29,657.21c-0.48-1.02-0.84-1.41-1.29-1.41v36.9c0.57,0,0.66-0.3,1.56-5.25   c0.271-1.5,0.392-6,0.392-15.45C541.95,658.89,541.95,658.62,541.29,657.21z" style="stroke:black;fill:#BFDAE3"/><path id="180623552" parent_id="180608862" order="61" structure_id="1" d="M667.38,651.45   c-2.67,4.229-9.03,8.55-12.63,8.55c-0.63,0-1.05,0.15-1.05,0.36s1.17,1.26,2.58,2.278c2.729,2.07,4.858,4.44,5.13,5.82   c0.09,0.45,0.33,0.84,0.54,0.84c0.688,0,4.29-4.108,6.24-7.08c1.108-1.71,2.76-3.75,3.93-4.83c1.08-1.02,1.979-2.068,1.979-2.278   c0-0.24-0.42-0.602-0.898-0.812c-0.9-0.358-3.9-3.39-3.9-3.93C669.3,649.62,668.16,650.25,667.38,651.45z" style="stroke:black;fill:#BFDAE3"/><path id="180623552" parent_id="180608862" order="62" structure_id="1" d="M680.4,624.66c0,0.24,0.358,0.63,0.778,0.87   c1.142,0.6,2.88,2.67,3.78,4.528c1.2,2.46,2.61,6.9,3.15,10.052c0.51,2.79,0.358,5.34-0.392,7.858c-0.18,0.63-0.12,0.69,0.512,0.57   c4.17-0.87,8.818-1.92,11.52-2.58c3.271-0.81,3.271-0.81,4.41-2.31c0.63-0.842,1.29-1.98,1.47-2.58c0.48-1.53-0.45-3.182-3.3-5.94   c-6.21-6-13.68-9.99-20.16-10.71C680.73,624.27,680.4,624.3,680.4,624.66z" style="stroke:black;fill:#BFDAE3"/><path id="180623552" parent_id="180608862" order="63" structure_id="1" d="M552.9,541.08c-5.91,1.59-10.2,9.15-10.2,18   c0,6.63,2.188,11.729,5.67,13.26c1.438,0.63,9.96,0.87,12.33,0.36c7.318-1.62,13.08-10.5,14.85-22.95   c0.75-5.43,0.87-5.19-2.55-6.03C560.58,540.66,556.47,540.12,552.9,541.08z" style="stroke:black;fill:#BFDAE3"/><path id="180623552" parent_id="180608862" order="64" structure_id="1" d="M584.7,507.06c0,1.32,1.229,2.642,5.16,5.58   c2.188,1.62,5.13,3.99,6.51,5.28c2.7,2.49,3.51,3,5.13,3.3c0.57,0.091,2.61,0.78,4.5,1.53s5.01,1.83,6.9,2.4   c6.028,1.83,9.63,3.6,10.05,4.92c0.21,0.66,2.79,1.77,4.68,2.04c2.97,0.42,3.18-2.16,0.271-3.66c-0.48-0.24-4.17-1.65-8.16-3.12   c-15.45-5.64-18.392-7.2-27.63-14.85C587.64,506.79,584.7,505.44,584.7,507.06z" style="stroke:black;fill:#BFDAE3"/><path id="180623552" parent_id="180608862" order="65" structure_id="1" d="M580.95,507.12   c-0.812,0.39-2.312,1.32-3.33,2.07c-3.51,2.578-3.93,5.34-1.14,7.108c2.698,1.71,6.21,1.41,10.71-0.87   c3.448-1.738,3.6-2.159,1.29-3.75c-2.132-1.47-3.66-3.148-3.932-4.35c-0.18-0.812-0.33-0.93-1.14-0.93   C582.87,506.4,581.79,506.73,580.95,507.12z" style="stroke:black;fill:#BFDAE3"/><path id="180623552" parent_id="180608862" order="66" structure_id="1" d="M653.4,342.48c0,1.08,1.198,3.39,5.488,10.47   c4.29,7.11,10.2,16.2,13.08,20.1c4.262,5.73,17.852,20.94,27.03,30.271c7.8,7.92,13.23,12.81,31.23,28.17   c6.72,5.7,13.56,11.67,15.21,13.229c2.188,2.07,3.238,2.88,3.81,2.88c0.69,0,0.75-0.118,0.75-1.29c0-0.688-0.24-1.618-0.54-2.04   c-0.81-1.288-20.85-21.118-28.41-28.17c-3.81-3.54-11.279-10.438-16.648-15.33c-22.86-20.818-35.4-35.278-46.32-53.37   c-1.47-2.4-2.91-4.65-3.271-5.04C653.97,341.46,653.4,341.52,653.4,342.48z" style="stroke:black;fill:#BFDAE3"/><path id="180623552" parent_id="180608862" order="67" structure_id="1" d="M682.83,491.55   c-0.21,0.57-0.84,1.682-1.41,2.4c-0.57,0.75-1.02,1.5-1.02,1.648c0,0.182,0.84,0.302,1.92,0.302c3.568,0,12.358,1.738,20.37,4.05   c6.148,1.77,9,2.88,12.27,4.858c7.5,4.53,13.5,10.2,23.58,22.41c6.84,8.28,12.63,21.48,14.64,33.33   c0.631,3.63,0.722,13.17,0.15,17.7c-1.23,10.17-3.54,19.53-6.96,28.14c-3.15,7.892-8.16,15.33-14.55,21.54   c-4.62,4.472-9.21,7.32-13.051,8.13l-1.739,0.36l0.18,1.41c0.12,1.14,0.03,1.649-0.479,2.49c-0.392,0.6-0.842,1.17-1.08,1.29   c-0.21,0.148-0.932,0.93-1.592,1.77c-2.01,2.55-6.3,6.93-10.408,10.59c-7.592,6.812-11.07,9.24-18.722,13.23   c-5.01,2.608-8.55,4.71-18.84,11.25c-2.7,1.68-3.42,2.55-2.188,2.55c0.93,0,10.528-4.26,18.658-8.28   c11.91-5.91,17.552-9.27,21.57-12.93c19.08-17.19,31.29-28.68,34.65-32.58c10.35-12.061,15.54-24.87,17.88-44.311   c0.51-4.17,0.479-17.221-0.03-21.449c-1.95-16.32-7.2-29.49-16.53-41.551c-7.318-9.449-17.85-17.551-25.05-19.319   c-6.09-1.5-13.858-3.9-22.14-6.812c-5.07-1.8-9.33-3.27-9.45-3.27S683.04,490.98,682.83,491.55z" style="stroke:black;fill:#BFDAE3"/><path id="180623552" parent_id="180608862" order="68" structure_id="1" d="M678.66,496.23   c-3.18,0.538-6.63,1.979-11.16,4.68c-4.05,2.37-4.8,3.33-4.8,6.12c0,2.67,0.3,3.39,1.858,4.26c3.182,1.83,9.271,2.85,19.29,3.21   c8.28,0.3,11.852,0.78,18.15,2.52c10.74,2.94,19.771,8.37,27.6,16.562c11.312,11.82,16.562,26.7,15.33,43.41   c-0.84,11.34-3.84,20.52-9.568,29.188c-5.312,8.102-14.28,16.021-23.102,20.49c-1.02,0.51-1.858,1.11-1.858,1.32   c0,0.18,1.108,1.56,2.43,3.06c1.32,1.47,2.76,3.271,3.21,3.96c0.75,1.2,0.87,1.29,1.86,1.11c6.63-1.14,13.738-6.75,21.06-16.562   c6.72-9,11.4-21.84,13.771-37.858c0.779-5.19,1.079-14.73,0.601-18.75c-0.99-8.34-3.42-16.05-7.86-24.78   c-3.358-6.63-4.438-8.13-13.8-18.9c-8.16-9.42-15.84-14.97-24.78-17.908C696.03,497.76,683.16,495.42,678.66,496.23z M701.1,502.77   c1.592,0.33,3.96,0.932,5.25,1.382c9.99,3.33,24.21,14.22,25.23,19.26l0.18,0.96l-1.74-0.54c-2.64-0.811-5.368-2.04-7.5-3.36   c-1.05-0.63-2.818-1.738-3.93-2.43c-4.41-2.729-11.97-5.58-18-6.81c-2.188-0.45-4.59-0.66-8.55-0.75   c-7.62-0.182-11.28-0.99-12.96-2.852c-0.54-0.6-0.57-0.688-0.09-1.68c0.81-1.681,3.75-3.03,8.16-3.75   C689.82,501.78,697.77,502.11,701.1,502.77z" style="stroke:black;fill:#BFDAE3"/><path id="180623552" parent_id="180608862" order="69" structure_id="1" d="M682.83,491.55   c-0.21,0.57-0.84,1.682-1.41,2.4c-0.57,0.75-1.02,1.5-1.02,1.648c0,0.182,0.84,0.302,1.92,0.302c3.568,0,12.358,1.738,20.37,4.05   c6.148,1.77,9,2.88,12.27,4.858c7.5,4.53,13.5,10.2,23.58,22.41c6.84,8.28,12.63,21.48,14.64,33.33   c0.631,3.63,0.722,13.17,0.15,17.7c-1.23,10.17-3.54,19.53-6.96,28.14c-3.15,7.892-8.16,15.33-14.55,21.54   c-4.62,4.472-9.21,7.32-13.051,8.13l-1.739,0.36l0.18,1.41c0.12,1.14,0.03,1.649-0.479,2.49c-0.392,0.6-0.842,1.17-1.08,1.29   c-0.21,0.148-0.932,0.93-1.592,1.77c-2.01,2.55-6.3,6.93-10.408,10.59c-7.592,6.812-11.07,9.24-18.722,13.23   c-5.01,2.608-8.55,4.71-18.84,11.25c-2.7,1.68-3.42,2.55-2.188,2.55c0.93,0,10.528-4.26,18.658-8.28   c11.91-5.91,17.552-9.27,21.57-12.93c19.08-17.19,31.29-28.68,34.65-32.58c10.35-12.061,15.54-24.87,17.88-44.311   c0.51-4.17,0.479-17.221-0.03-21.449c-1.95-16.32-7.2-29.49-16.53-41.551c-7.318-9.449-17.85-17.551-25.05-19.319   c-6.09-1.5-13.858-3.9-22.14-6.812c-5.07-1.8-9.33-3.27-9.45-3.27S683.04,490.98,682.83,491.55z" style="stroke:black;fill:#BFDAE3"/><path id="180623552" parent_id="180608862" order="70" structure_id="1" d="M625.5,288.27c-0.9-4.68-4.8-8.91-10.92-11.79c-1.17-0.54-3.87-1.65-6.03-2.43   c-5.7-2.07-11.49-4.98-18.45-9.33c-9.75-6.09-13.38-7.68-20.55-9.09c-6.56-1.293-17.803-2.048-29.55-2.07v44.49   c0.052,0,0.099,0,0.15,0c16.229,0.03,19.438,0.09,22.8,0.54c5.58,0.75,15.78,1.89,20.85,2.37c5.852,0.51,23.04,0.51,26.25,0   c6.392-1.05,10.92-2.85,13.41-5.31C625.77,293.34,626.19,291.87,625.5,288.27z" style="stroke:black;fill:#BFDAE3"/><path id="180623552" parent_id="180608862" order="71" structure_id="1" d="M735.81,490.83c-0.148-2.34-0.27-2.82-1.738-5.7c-5.04-9.99-20.222-29.729-41.37-53.88   c-14.642-16.71-25.74-31.23-38.312-50.1c-8.58-12.87-12.18-18.93-18.09-30.45c-6.45-12.51-8.91-16.26-13.56-20.55   c-6.21-5.7-13.892-8.25-30.45-10.05c-10.68-1.14-15.48-1.29-33.09-1.02c-10.143,0.156-14.306,0.223-19.2,0.221v18.378   c3.258-0.016,7.487-0.194,15.45-0.599c5.34-0.27,32.67,0.39,36.148,0.84c10.142,1.41,19.352,4.56,25.892,8.88   c4.59,3.03,7.68,6.69,11.46,13.5c12.09,21.81,29.97,50.58,38.489,61.95c7.921,10.56,21.511,25.35,36.989,40.17   c8.972,8.61,10.65,10.65,12.271,15.12c0.84,2.28,0.75,5.01-0.182,6.3c-3.51,4.771-15,1.65-36.93-9.99   c-19.74-10.5-26.85-15.81-34.109-25.38c-5.399-7.17-9.841-15.93-17.881-35.37c-7.619-18.479-11.25-24.84-18.238-31.89   c-9.54-9.66-19.021-14.58-32.312-16.71c-8.83-1.437-13.603-1.619-37.05-1.62v20.166c11.111,0.17,32.19,2.805,45.81,5.875   c10.41,2.34,16.771,5.04,19.74,8.34c3.57,3.96,6.602,9.51,9.271,16.98c3.39,9.39,8.818,21.54,12.33,27.54   c0.96,1.62,3.06,4.738,4.68,6.898c4.438,5.91,6.87,10.352,6.87,12.512c0,0.75,0.18,1.078,0.688,1.318   c0.36,0.182,1.562,1.11,2.642,2.102c6.568,5.97,13.38,10.198,24.75,15.358c6.238,2.82,12.42,6.48,15.12,8.91   c1.8,1.62,18.3,7.38,31.05,10.8c6.54,1.771,13.89,1.74,17.85-0.06C734.61,497.88,736.11,495.27,735.81,490.83z" style="stroke:black;fill:#BFDAE3"/><path id="180623552" parent_id="180608862" order="72" structure_id="1" d="M627.75,459.6c-0.72-0.75-2.52-2.908-3.96-4.8c-4.35-5.64-5.97-6.45-12.54-6.42   c-2.31,0-5.73,0.271-8.4,0.66c-2.46,0.36-7.948,0.93-12.148,1.26c-9.182,0.75-12.15,1.05-17.102,1.8   c-5.488,0.842-9.75,1.17-18.3,1.5c-4.868,0.188-10.102,0.27-15.3,0.265v13.417c3.907,0,7.814,0.06,12.36,0.18   c14.55,0.39,24.238,0.061,32.79-1.11c20.52-2.85,33.238-4.318,39.09-4.56c3.09-0.12,4.858-0.3,4.858-0.51   C629.1,461.1,628.5,460.35,627.75,459.6z" style="stroke:black;fill:#BFDAE3"/><path id="180623552" parent_id="180608862" order="73" structure_id="1" d="M803.58,381.75c-2.28-9.24-8.1-26.67-12.84-38.34c-9.24-22.83-18.66-36-32.25-45.09   c-6.51-4.35-18.182-9.3-27.42-11.64c-6.182-1.56-8.37-1.83-16.021-1.83c-7.858,0-8.938,0.15-16.5,2.1   c-9.84,2.58-19.35,3.75-35.188,4.35c-10.592,0.42-16.592,1.5-21.182,3.81l-1.438,0.75l-0.84-0.81c-1.29-1.23-2.521-3.78-4.052-8.4   c-2.068-6.3-4.02-9.63-8.369-14.19c-5.279-5.55-16.141-12.9-24.631-16.65c-14.79-6.54-37.71-11.85-57.72-13.41   c-2.13-0.156-3.642-0.238-5.13-0.243v11.164c8.444,0.065,17.494,0.294,20.34,0.599c5.43,0.6,9.03,1.2,12.78,2.19   c5.37,1.41,7.77,2.55,16.38,7.89c9.3,5.76,12.42,7.32,19.2,9.75c9.96,3.54,15.029,7.56,16.8,13.32c1.59,5.13,0.06,8.4-5.34,11.22   c-4.95,2.61-11.102,3.6-22.261,3.6c-8.131-0.03-15.511-0.54-25.801-1.77c-13.38-1.62-13.89-1.65-27.898-1.77   c-1.484-0.014-2.865-0.023-4.2-0.029v20.772c4.216-0.005,8.749-0.079,14.91-0.224c19.47-0.48,30.479-0.03,42.54,1.71   c13.71,1.95,20.01,4.47,26.04,10.29c4.47,4.32,6.75,7.86,13.68,21.3c5.7,11.01,10.71,19.32,19.17,31.83   c12.57,18.54,22.47,31.35,36.93,47.82c20.58,23.43,35.61,43.108,40.98,53.58c1.859,3.658,3.12,5.13,6.03,7.108   c5.43,3.69,11.729,5.34,19.56,5.16l4.44-0.12l2.31-1.14c10.26-5.07,23.28-23.88,26.13-37.83c0.602-2.91,0.63-8.22,0.03-10.53   c-0.69-2.729-2.4-5.97-4.05-7.648c-0.812-0.812-1.352-1.5-1.23-1.5s0.36,0.148,0.57,0.358c0.66,0.66,3.149,0.42,4.59-0.42   c2.88-1.68,6.78-6.688,9.51-12.09c3.15-6.33,3.78-10.32,3.78-23.55C805.92,393.27,805.53,389.73,803.58,381.75z M780.78,459.57   c-1.83,2.85-5.13,6.238-8.46,8.729c-3.54,2.67-4.802,4.41-8.102,11.312c-2.7,5.64-3.81,7.17-5.398,7.47   c-3.15,0.6-12.75-4.71-18-9.93c-3.45-3.42-4.62-5.432-7.771-13.142c-5.1-12.51-7.26-16.29-14.97-26.16   c-7.8-9.988-11.61-14.25-22.5-25.198c-12.09-12.182-20.43-21.392-25.44-28.082c-7.89-10.59-17.88-25.62-23.188-34.92   c-6.42-11.22-12.24-26.73-12.66-33.66l-0.18-2.76l0.93-0.9c1.14-1.14,2.82-1.26,4.8-0.27c1.71,0.81,5.01,3.93,6.93,6.51   c0.812,1.08,3.12,4.62,5.132,7.83c11.76,18.72,25.08,36.93,36.479,49.8c10.26,11.61,28.17,26.67,61.62,51.78   c12.33,9.27,17.7,13.02,25.35,17.67c6.392,3.868,6.96,4.26,7.65,5.398C784.17,452.97,783.6,455.25,780.78,459.57z M689.7,358.92   c0-0.24,0.24-0.09,0.63,0.39s0.36,0.51-0.09,0.12C689.94,359.22,689.7,358.98,689.7,358.92z M693.66,363   c0.06,0,0.45,0.33,0.84,0.75s0.63,0.75,0.54,0.75c-0.06,0-0.45-0.33-0.84-0.75C693.81,363.33,693.57,363,693.66,363z M708.36,377.7   c0.06,0,0.448,0.33,0.84,0.75c0.39,0.42,0.63,0.75,0.54,0.75c-0.062,0-0.45-0.33-0.84-0.75   C708.51,378.03,708.27,377.7,708.36,377.7z M794.82,416.04c-1.352,4.02-3.42,5.04-7.59,3.63c-7.23-2.46-18.54-10.2-36.03-24.72   c-18.99-15.75-30.99-26.67-48.87-44.4c-19.32-19.17-29.88-30.3-30.96-32.7c-0.812-1.77-0.72-2.46,0.569-3.75   c1.261-1.29,3.811-2.19,7.409-2.67c3.57-0.48,14.25-0.15,17.552,0.54c8.13,1.68,13.858,4.47,18.448,8.94   c1.17,1.11,5.4,5.82,9.42,10.44c5.852,6.75,10.682,11.79,24.45,25.53c19.11,19.08,24.721,24.15,32.61,29.46   c9.06,6.06,13.14,11.79,13.92,19.562C795.99,408.27,795.45,414.12,794.82,416.04z" style="stroke:black;fill:#BFDAE3"/><path id="180623552" parent_id="180608862" order="74" structure_id="1" d="M716.91,480.12c-0.15-2.16-1.26-4.771-3.24-7.65c-1.41-2.1-3.479-4.2-12.99-13.318   c-14.79-14.132-28.738-29.79-36.66-41.102c-8.908-12.688-24.148-37.47-34.77-56.55c-3.6-6.45-4.2-7.32-6.96-10.23   c-6.42-6.72-17.88-11.4-31.89-13.05c-4.052-0.45-4.892-0.48-50.4-0.39v7.827c4.408,0.001,8.775,0.083,12.3,0.243   c18.66,0.87,32.4,2.97,44.25,6.81c8.55,2.76,14.91,6.6,21.24,12.84c7.26,7.17,13.02,16.14,22.5,35.102   c2.97,5.938,6.54,12.868,7.95,15.448c5.76,10.5,13.83,23.25,18.81,29.642c2.61,3.33,6.54,7.56,7.08,7.56   c0.15,0,0.271,0.12,0.271,0.3c0,0.602-1.74,0.271-3.54-0.63c-2.312-1.14-7.29-5.818-10.592-9.96c-5.818-7.29-12-17.31-24.118-39.21   c-6.96-12.57-8.882-15.84-11.972-20.4c-6.18-9.12-13.14-16.11-20.488-20.49c-8.762-5.25-20.94-8.7-36.69-10.32   c-4.53-0.48-8.13-0.54-26.7-0.54c-0.103,0-0.198,0-0.3,0v10.418c18.724-0.109,24.241,0.077,32.4,1.012   c15.3,1.71,25.829,6.51,36.42,16.62c7.08,6.78,11.22,13.92,19.35,33.45c10.41,25.11,14.58,32.432,23.4,41.28   c6.96,6.93,14.1,11.55,32.278,20.85c8.58,4.38,13.381,6.512,18.45,8.16C712.38,487.11,717.39,485.82,716.91,480.12z" style="stroke:black;fill:#BFDAE3"/><path id="180623552" parent_id="180608862" order="75" structure_id="1" d="M706.71,644.1c-2.67,0.842-6.33,1.86-8.16,2.28c-15.12,3.48-16.59,3.96-21.18,6.99   c-4.5,2.97-6.57,4.979-9.15,8.88c-2.01,3.06-5.79,7.35-6.45,7.35c-0.148,0-0.27,0.182-0.27,0.392c0,0.688-2.82,4.47-4.56,6.09   c-2.25,2.13-3.271,2.61-6,2.76c-2.972,0.181-3.96-0.18-9.66-3.358c-5.04-2.82-10.65-5.58-12.9-6.33c-0.81-0.271-2.97-0.66-4.8-0.9   c-5.73-0.75-7.83-1.41-10.47-3.36c-2.972-2.188-4.71-6.06-5.94-13.14c-1.32-7.56-0.03-15,3.57-20.49c1.56-2.37,3-3.21,5.43-3.21   c3.78,0.03,6.33,1.95,11.19,8.4c1.56,2.04,4.738,5.608,7.409,8.28c5.461,5.46,12.841,11.97,13.619,11.97   c0.45,0,0.512-0.3,0.512-2.13c0-1.142,0.148-2.7,0.33-3.42c0.3-1.2,0.238-1.62-0.48-3.812c-1.59-4.83-9.75-23.52-12.66-29.04   c-7.38-14.01-26.16-43.02-39.029-60.3c-4.351-5.85-6.931-9-7.381-9c-0.39,0-5.25,4.29-11.729,10.32   c-2.312,2.16-5.312,4.948-6.69,6.18c-2.85,2.55-2.76,2.1-1.26,6.39c1.59,4.53,1.17,9.42-1.02,11.73   c-0.87,0.96-1.172,1.08-2.462,1.08c-1.92,0-2.938-0.63-5.97-3.75c-3.06-3.12-9.21-7.771-10.68-8.07   c-3.69-0.688-6.24-4.47-7.2-10.68c-1.05-6.932,1.95-15.84,6.54-19.352c2.73-2.1,5.521-2.64,10.98-2.1   c1.948,0.18,2.31,0.15,2.31-0.24c0-0.3-1.17-0.84-3.57-1.71c-1.979-0.688-3.84-1.438-4.17-1.68c-0.66-0.45-1.26-2.49-1.26-4.23   c0-0.63-0.21-1.47-0.48-1.829c-0.42-0.631-0.63-0.659-2.46-0.479c-1.108,0.12-2.22,0.36-2.46,0.57   c-0.238,0.18-0.688,0.448-0.988,0.54c-0.75,0.27-1.352,1.89-1.592,4.29c-0.27,2.67-1.229,3.778-3.81,4.318   c-0.575,0.115-1.149,0.17-1.71,0.174v31.478c3.6,0,3.84,0.03,5.76,0.96c4.771,2.25,7.352,6.84,8.642,15.358   c0.898,5.82,2.43,19.11,4.8,41.342c2.52,23.88,2.55,24.148,3.18,24.54c1.29,0.778,2.311,1.83,2.88,2.938   c0.51,1.05,0.602,1.62,0.48,4.05c-0.12,2.58-0.182,2.88-0.841,3.42c-0.631,0.512-1.021,0.57-2.279,0.422   c-1.26-0.15-1.59-0.092-1.74,0.3c-0.42,1.08-0.18,1.56,0.87,1.92c1.2,0.39,2.85,1.68,2.85,2.188c0.03,0.99,0.511,1.2,2.04,0.842   c2.432-0.602,8.28,0.42,11.91,2.068c2.34,1.05,3.57,2.13,5.97,5.34c1.052,1.44,3.12,3.69,4.562,4.98   c3.688,3.39,4.14,4.89,1.71,5.55c-0.63,0.18-1.83,0.24-2.7,0.12c-2.04-0.21-2.16,0.42-0.3,1.32   c3.149,1.528,12.899,8.398,13.859,9.778c0.689,0.99,0.54,1.592-0.601,2.7c-2.22,2.16-1.41,2.16,7.141,0.03   c8.851-2.22,16.801-5.13,34.109-12.42c4.38-1.86,9.57-3.96,11.55-4.71c4.08-1.5,5.102-2.07,14.852-8.28   c7.949-5.07,13.199-8.16,18.09-10.59c5.64-2.852,10.29-6.271,18-13.23c4.26-3.898,9.21-9.148,9.21-9.84   C714,642.24,711.75,642.54,706.71,644.1z M612.12,690.87c-1.68,2.37-6.33,2.37-11.43-0.03c-2.552-1.2-3.512-3-2.132-3.96   c0.99-0.688,1.53-0.6,4.472,0.72c2.88,1.29,3.568,1.44,3.568,0.75c0-0.84-4.26-2.88-10.648-5.1c-4.44-1.53-6.03-2.7-7.44-5.46   c-0.87-1.68-0.479-3,0.99-3.45c0.69-0.21,2.25,0.21,3.99,1.11c0.87,0.42,3.358,2.04,5.52,3.6c2.16,1.562,5.19,3.51,6.75,4.38   C612.06,686.91,613.59,688.74,612.12,690.87z M636.36,689.76c-1.2,0.57-1.83,0.69-4.262,0.66c-8.79-0.09-18.81-4.17-32.908-13.38   c-4.95-3.21-11.012-6.271-18.48-9.33c-5.55-2.28-7.53-3.39-9.72-5.521c-1.771-1.71-1.92-2.369-0.69-3.029   c0.932-0.48,3.03-0.271,6.9,0.688c1.56,0.392,4.26,1.2,6,1.802c1.74,0.568,8.16,2.608,14.25,4.5   c27.09,8.368,37.35,12.72,40.648,17.278C639.78,685.77,639.06,688.44,636.36,689.76z" style="stroke:black;fill:#BFDAE3"/><path id="180623552" parent_id="180608862" order="76" structure_id="1" d="M565.83,517.5   c-3.75,2.25-6.36,4.53-9.99,8.79c-3.12,3.66-3.3,3.9-2.91,4.59c0.45,0.9,0.48,0.9,2.28,0c2.22-1.11,4.74-1.71,8.19-1.89   c3.568-0.182,5.52,0.21,11.488,2.31c3.392,1.2,4.41,1.41,4.41,0.932c0-0.15-0.21-0.78-0.479-1.41c-0.63-1.53-0.392-3.66,0.63-5.37   c0.93-1.62,0.96-2.13,0.06-2.37c-1.05-0.24-4.229-2.37-7.29-4.86c-1.528-1.229-3-2.22-3.33-2.22   C568.561,516.001,567.18,516.66,565.83,517.5z" style="stroke:black;fill:#BFDAE3"/><path id="180623552" parent_id="180608862" order="77" structure_id="1" d="M598.56,521.4   c-1.77,0.358-3.21,1.318-3.658,2.43c-0.842,1.979,1.35,6.03,4.47,8.37c3.21,2.43,10.35,4.53,15.479,4.62   c3.15,0.028,3.392,0,5.25-0.932c2.312-1.14,3-2.1,3-4.198c0-1.262-0.148-1.592-0.988-2.432c-0.54-0.54-1.23-0.96-1.53-0.96   c-0.48,0-0.51,0.15-0.33,0.96c0.54,2.28-0.18,3.66-2.43,4.771c-1.682,0.81-4.98,1.108-6.54,0.568   c-2.16-0.688-3.78-2.698-3.78-4.648c0-2.07,2.1-3.72,4.74-3.75c1.77,0,1.68-0.72-0.15-1.2c-0.81-0.18-3.3-1.08-5.58-1.95   C602.01,521.31,600.57,521.01,598.56,521.4z" style="stroke:black;fill:#BFDAE3"/><path id="180623552" parent_id="180608862" order="78" structure_id="1" d="M597.72,532.56   c0.12,0.54,0.3,1.472,0.392,2.04c0.09,0.57,0.479,1.892,0.869,2.91c0.869,2.221,0.899,3.15,0.119,4.8   c-0.39,0.9-0.988,1.53-1.92,2.102c-0.778,0.45-1.38,0.99-1.38,1.17c0,0.36,5.46,1.14,11.58,1.649   c4.95,0.421,19.92,0.211,21.51-0.301c1.38-0.449,1.41-0.93,0.062-1.68c-1.47-0.75-4.8-4.32-6.54-6.99   c-1.59-2.34-1.83-2.46-3.69-1.68c-3.449,1.438-14.37-0.9-19.08-4.11C597.9,531.3,597.48,531.33,597.72,532.56z" style="stroke:black;fill:#BFDAE3"/><path id="180623552" parent_id="180608862" order="79" structure_id="1" d="M716.91,480.12c-0.15-2.16-1.26-4.771-3.24-7.65c-1.41-2.1-3.479-4.2-12.99-13.318   c-14.79-14.132-28.738-29.79-36.66-41.102c-8.908-12.688-24.148-37.47-34.77-56.55c-3.6-6.45-4.2-7.32-6.96-10.23   c-6.42-6.72-17.88-11.4-31.89-13.05c-4.052-0.45-4.892-0.48-50.4-0.39v7.827c4.408,0.001,8.775,0.083,12.3,0.243   c18.66,0.87,32.4,2.97,44.25,6.81c8.55,2.76,14.91,6.6,21.24,12.84c7.26,7.17,13.02,16.14,22.5,35.102   c2.97,5.938,6.54,12.868,7.95,15.448c5.76,10.5,13.83,23.25,18.81,29.642c2.61,3.33,6.54,7.56,7.08,7.56   c0.15,0,0.271,0.12,0.271,0.3c0,0.602-1.74,0.271-3.54-0.63c-2.312-1.14-7.29-5.818-10.592-9.96c-5.818-7.29-12-17.31-24.118-39.21   c-6.96-12.57-8.882-15.84-11.972-20.4c-6.18-9.12-13.14-16.11-20.488-20.49c-8.762-5.25-20.94-8.7-36.69-10.32   c-4.53-0.48-8.13-0.54-26.7-0.54c-0.103,0-0.198,0-0.3,0v10.418c18.724-0.109,24.241,0.077,32.4,1.012   c15.3,1.71,25.829,6.51,36.42,16.62c7.08,6.78,11.22,13.92,19.35,33.45c10.41,25.11,14.58,32.432,23.4,41.28   c6.96,6.93,14.1,11.55,32.278,20.85c8.58,4.38,13.381,6.512,18.45,8.16C712.38,487.11,717.39,485.82,716.91,480.12z" style="stroke:black;fill:#BFDAE3"/></g></g></svg>
