<svg xmlns="http://www.w3.org/2000/svg" width="3024px" height="3024px"><g transform="scale(1.0)"><g id="180608862" order="1" parent_id="" graphic_group_label_id="28" graphic_group_label="Atlas - Adult Rat" sub_image_id="100960468" transform=" scale(1.0, 1.0)"><path id="180623552" parent_id="180608862" order="0" structure_id="1" d="M756.57,419.49c-1.803-7.44-4.11-13.2-8.7-21.57c-11.97-21.9-21.87-33.24-44.67-51.15   c-16.83-13.23-27.24-17.97-33.03-15.06c-2.938,1.5-3.688,3.63-2.85,8.19c1.38,7.5,5.188,16.26,16.527,37.8   c4.83,9.24,13.353,26.34,13.353,26.85c0,0.24-0.181,0.45-0.42,0.45c-0.42,0-2.67-3.99-11.431-20.4   c-2.609-4.86-6.602-12.24-8.852-16.35c-2.28-4.14-5.189-9.6-6.45-12.15c-5.85-11.73-10.92-19.26-17.55-26.19   c-6.12-6.39-12-10.71-19.95-14.61c-14.46-7.14-32.1-10.65-62.1-12.45c-11.109-0.649-20.864-0.961-30.45-0.965v197.5   c1.472,0.003,2.855-0.063,4.65-0.186c6.869-0.48,16.647-1.41,22.05-2.103c7.229-0.897,10.5-1.08,10.5-0.54   c0,0.303-0.72,0.603-2.312,0.99c-3.181,0.72-9.631,2.97-11.851,4.08c-1.021,0.51-3.54,2.07-5.61,3.48   c-5.188,3.54-5.067,3.51-8.64,2.88c-2.024-0.348-5.41-0.52-8.79-0.52v181.395c0.057-0.03,0.114-0.065,0.15-0.065   c0.18,0,0.567,0.42,0.869,0.9c1.289,2.22,6.181,4.26,14.641,6.12c2.521,0.567,5.1,1.107,5.729,1.197   c1.262,0.24,1.352,0.513,0.512,1.593c-1.74,2.22,0.84,4.77,4.05,3.96c1.83-0.45,2.398-1.29,2.13-3.15l-0.18-1.35l1.438,0.237   c2.49,0.393,12.271,0.21,15.96-0.3c7.143-1.05,13.32-2.97,16.62-5.16c1.08-0.75,2.67-1.68,3.48-2.1   c3.33-1.68,10.527-3.09,24.6-4.83c10.05-1.229,14.4-1.92,19.44-3.15c13.02-3.18,25.198-8.577,38.52-17.1   c5.76-3.66,8.971-6.3,15.36-12.57c10.17-9.96,18.84-20.277,22.647-26.938c8.521-14.88,14.341-37.08,15.21-57.96   c0.513-12.512-1.857-27.933-6.06-39.21c-1.771-4.83-3.15-7.53-6.9-13.473c-5.909-9.479-7.948-12.117-14.67-18.987   c-9.93-10.17-17.55-15.513-23.607-16.592c-1.53-0.271-1.98-0.511-3.183-1.71c-3.479-3.448-9.567-7.648-14.01-9.601   c-2.37-1.05-2.43-1.05-6.75-1.08c-2.4,0-5.609,0.12-7.109,0.271c-3.238,0.3-3.631-0.063-1.591-1.473c2.73-1.89,4.893-5.13,5.7-8.52   c0.48-2.102,0.24-5.852-0.57-8.432c-0.688-2.131-0.777-3-0.357-3c0.147,0,1.8,1.529,3.688,3.392   c11.46,11.46,22.83,16.89,33.12,15.84c8.67-0.899,12.99-4.439,13.98-11.46c0.63-4.38-0.42-10.77-2.94-18.27   c-1.41-4.11-4.438-11.82-6.54-16.5c-0.93-2.07-1.68-3.99-1.68-4.263c0-1.59,1.14,0.183,4.2,6.57c4.8,10.021,6.18,13.17,8.85,20.189   c5.19,13.738,8.79,19.141,14.61,22.079c4.107,2.069,9.81,2.852,12.84,1.771c6.54-2.34,13.17-12.271,15.51-23.25   c0.42-1.98,0.54-3.9,0.54-8.7C758.25,427.26,758.07,425.67,756.57,419.49z" style="stroke:black;fill:#BFDAE3"/><path id="180623552" parent_id="180608862" order="1" structure_id="1" d="M545.43,643.17   c-2.76,0.96-2.85,1.14-2.55,5.61l0.271,3.84l1.947,0.688c5.643,2.04,11.4-0.867,11.4-5.76c0-1.2-0.15-1.5-1.29-2.67   c-0.78-0.78-1.89-1.47-2.76-1.77C550.53,642.45,547.47,642.48,545.43,643.17z" style="stroke:black;fill:#BFDAE3"/><path id="180623552" parent_id="180608862" order="2" structure_id="1" d="M542.49,579.6   c-0.75,0.303-1.44,2.343-1.2,3.57c0.09,0.42,0.36,1.86,0.6,3.18c1.86,9.723,2.643,34.74,1.263,39.15c-0.75,2.34-0.933,5.4-0.36,5.4   c0.24,0,0.6-0.393,0.81-0.87c0.183-0.48,0.69-1.2,1.11-1.59c0.66-0.633,0.99-0.69,3.78-0.69c5.25,0,6.357,1.11,7.229,7.2   c0.813,5.817,1.143,10.35,0.933,12.39c-0.12,1.11-0.24,3.063-0.271,4.32c-0.03,2.04,0.063,2.37,0.69,3.06   c0.897,0.96,2.37,1.021,5.729,0.3c1.23-0.27,3.57-0.479,5.19-0.51h2.91v-0.777c0-1.893-5.433-29.223-7.08-35.61   c-3.03-11.853-8.25-27.12-11.013-32.34c-1.229-2.313-3.51-4.771-5.1-5.55C546.24,579.54,543.45,579.18,542.49,579.6z" style="stroke:black;fill:#BFDAE3"/><path id="180623552" parent_id="180608862" order="3" structure_id="1" d="M660.9,593.7c0,0.18,0.27,1.17,0.63,2.188   c0.51,1.53,0.567,2.04,0.3,2.94c-1.08,3.57-4.98,4.8-9.78,3.12c-1.14-0.42-2.28-0.75-2.46-0.75c-0.78,0-0.359,0.989,1.23,2.938   c2.188,2.73,5.817,8.16,7.08,10.62c0.567,1.143,1.229,2.04,1.47,2.04c0.21,0,1.229-0.63,2.22-1.38c3.96-2.97,6.69-3.87,11.7-3.84   c2.85,0.029,3.51-0.063,3.51-0.392c0-0.811-3.09-6.448-4.8-8.761c-2.13-2.88-5.94-6.448-8.43-7.92   C661.62,593.37,660.9,593.16,660.9,593.7z" style="stroke:black;fill:#BFDAE3"/><path id="180623552" parent_id="180608862" order="4" structure_id="1" d="M739.68,550.8c-0.3,0-0.42,1.8-0.567,7.71c-0.33,15.36-3.15,33.99-6.87,45.393   c-1.59,4.979-4.17,8.79-6.69,9.93c-2.397,1.11-6.75,0.51-7.2-0.96c-0.117-0.33-0.117-1.11,0-1.74l0.183-1.14l-1.92-0.183   c-3.9-0.357-11.313-2.607-15.36-4.647c-6.45-3.24-11.28-8.34-13.62-14.432c-0.51-1.288-2.13-7.261-3.6-13.261   c-4.44-18-7.53-26.43-12.511-34.107c-2.012-3.093-5.939-7.2-8.489-8.882c-2.58-1.711-6.36-3.568-8.431-4.171   c-7.172-2.067-19.29-2.22-34.5-0.447c-3.869,0.447-7.262,0.657-11.25,0.657c-5.222-0.027-6.812-0.147-14.159-1.229   c-2.16-0.3-1.563,0.54,1.197,1.68c3.813,1.563,7.921,3.933,9.12,5.223c1.021,1.14,1.051,1.26,0.933,3.18   c-0.063,1.229-0.36,2.49-0.78,3.359c-0.36,0.75-0.66,1.5-0.66,1.648c0,0.15,0.9,0.75,2.04,1.29c9.45,4.65,34.979,21.21,51.36,33.3   c3.51,2.58,30.96,24.183,35.85,28.2c1.5,1.2,3.48,2.97,4.41,3.87l1.74,1.68l2.907,0.03c2.553,0,3.183,0.12,4.65,0.81   c2.94,1.381,4.32,4.053,4.08,8.013c-0.12,2.34-0.63,3.27-2.37,4.5c-0.93,0.63-1.229,0.688-3.75,0.51l-2.729-0.15v1.92   c0,1.83,0.027,1.95,0.688,1.95c1.68,0,2.19,1.65,1.5,4.771c-1.41,6.567-8.1,15.897-16.53,23.1c-6.75,5.79-14.85,11.55-19.079,13.65   c-4.198,2.067-5.908,1.737-5.521-1.053c0.21-1.59,0.12-1.68-1.26-1.14c-0.45,0.18-1.771,0.33-2.94,0.3   c-3.93,0-8.58-1.92-16.35-6.778c-6.063-3.812-8.13-4.802-11.643-5.729c-3.27-0.87-4.92-1.62-6.117-2.76   c-2.07-1.92-0.9-3.21,9.96-11.4c2.88-2.16,6.81-5.188,8.697-6.688c5.67-4.473,10.62-7.62,14.28-9.092   c3.063-1.229,3.271-1.381,3.36-2.221c0.12-1.2-1.143-4.95-2.94-8.608c-3.51-7.262-11.64-17.79-18.81-24.329   c-9.33-8.521-47.25-40.62-48-40.62c-0.21,0-0.393,0.3-0.393,0.688c0,0.393-0.21,1.41-0.479,2.28c-0.391,1.35-0.9,2.01-3.09,4.2   c-1.41,1.41-4.17,4.68-6.063,7.229c-4.47,6-6,7.29-9.18,7.683c-1.11,0.147-1.74,0.449-2.641,1.317   c-2.369,2.19-5.04,3.271-9.722,3.9c-5.16,0.72-10.02-0.18-15.09-2.729c-4.05-2.039-4.74-3.061-4.74-6.931   c0.03-3.63,0.48-7.68,1.052-9.24c0.271-0.75,0.568-1.56,0.631-1.829c0.147-0.391-0.183-0.448-2.28-0.448v21.528   c0.197,0.004,0.389,0.008,0.6,0.012c5.433,0.09,5.94,0.147,7.143,0.777c2.01,1.08,3.81,3.183,5.43,6.33   c2.79,5.46,7.08,17.91,10.26,29.67c1.38,5.16,5.551,25.32,7.2,34.771l0.69,3.93l1.08,0.33c1.68,0.51,3,1.65,5.277,4.59   c2.67,3.48,3.78,4.143,6.99,4.143c1.26,0,3.36-0.21,4.68-0.48c3.45-0.66,7.95-0.6,10.263,0.12c3.6,1.14,7.02,4.05,8.67,7.41   c2.487,5.13,0.33,7.74-7.83,9.479c-1.472,0.303-3.063,0.57-3.512,0.57c-1.408,0-0.931,0.69,1.739,2.4c3,1.948,5.761,4.68,6,5.97   c0.24,1.109,0.393,1.109,2.49,0.3c3.84-1.438,9.93-2.55,24.061-4.29c14.579-1.83,21.96-3.479,31.592-7.108   c10.408-3.899,24.479-11.762,32.43-18.119c3.45-2.73,13.56-12.75,18.03-17.853c7.527-8.58,11.067-13.529,14.37-20.1   c6.117-12.24,10.02-25.83,12.21-42.57C740.91,571.59,740.76,550.8,739.68,550.8z M583.32,580.65c-0.75,1.527-1.83,2.277-3.513,2.46   c-1.827,0.21-2.789-0.063-3.39-0.96c-1.35-2.07-0.93-5.07,0.93-6.723c1.17-1.02,2.07-1.14,3.54-0.51   c1.353,0.57,2.223,1.62,2.643,3.21C583.86,579.33,583.83,579.63,583.32,580.65z" style="stroke:black;fill:#BFDAE3"/><path id="180623552" parent_id="180608862" order="5" structure_id="1" d="M556.38,518.67c-1.32-0.479-2.61-0.87-2.85-0.87c-0.271,0-0.84,0.66-1.29,1.47   c-0.45,0.813-1.26,1.83-1.8,2.223c-1.383,1.05-5.103,2.488-7.98,3.06c-0.888,0.184-1.673,0.273-2.46,0.283v8.358   c4.364-0.006,5.983-0.381,9.6-2.104c3.75-1.8,6.57-4.53,8.223-7.95c0.63-1.29,1.08-2.607,1.02-2.97   C558.78,519.69,558.21,519.33,556.38,518.67z" style="stroke:black;fill:#BFDAE3"/><path id="180623552" parent_id="180608862" order="6" structure_id="1" d="M591.6,663.21c-0.42,0.06-2.01,0.33-3.54,0.6   c-1.68,0.271-3.42,0.393-4.38,0.271l-1.56-0.18l-1.563,3.84c-0.867,2.1-1.56,4.05-1.56,4.317c0,0.813,2.34,2.223,9.3,5.521   c6.183,2.938,6.66,3.12,8.46,3.12c4.05-0.03,9.42-1.62,11.16-3.33c1.14-1.17,1.14-1.17,1.021-3.18   c-0.271-4.86-4.62-9.423-10.173-10.74C597,663.06,593.43,662.91,591.6,663.21z" style="stroke:black;fill:#BFDAE3"/><path id="180623552" parent_id="180608862" order="7" structure_id="1" d="M670.17,331.71   c-2.939,1.5-3.689,3.63-2.85,8.19c1.38,7.5,5.188,16.26,16.527,37.8c4.83,9.24,13.353,26.34,13.353,26.85   c0,0.24-0.21,0.45-0.48,0.45c-0.6,0-0.6,0.03,1.98,5.31c2.13,4.32,2.28,4.563,3,4.41c0.75-0.12,0.93,0.15,4.2,6.99   c4.8,10.021,6.18,13.17,8.85,20.19c4.17,11.01,6.69,15.6,10.59,19.229c4.893,4.59,13.29,6.45,18.18,4.05   c6-2.938,12.03-12.6,14.19-22.68c0.42-1.98,0.54-3.9,0.54-8.7c0-6.54-0.18-8.13-1.68-14.31c-1.803-7.44-4.11-13.2-8.7-21.57   c-11.97-21.9-21.87-33.24-44.67-51.15C686.37,333.54,675.96,328.8,670.17,331.71z M700.05,366.36c2.91,1.47,5.25,3.3,8.431,6.6   c4.771,4.95,8.279,10.23,12.569,18.99c3.21,6.6,5.55,12.12,7.353,17.55c2.039,6.06,2.55,8.73,2.55,13.05   c0,4.05-0.36,5.13-2.04,6.15c-2.82,1.739-7.021-0.393-12.813-6.511c-5.46-5.762-10.647-13.319-15.72-22.802   c-7.89-14.79-10.56-21.99-10.32-27.84c0.12-3.15,0.75-4.68,2.37-5.79c0.9-0.63,1.29-0.69,3.271-0.6   C697.53,365.28,698.34,365.49,700.05,366.36z" style="stroke:black;fill:#BFDAE3"/><path id="180623552" parent_id="180608862" order="8" structure_id="1" d="M634.59,386.04c-1.38-2.76-4.53-6.06-7.68-8.1c-7.771-4.98-22.98-9.54-41.313-12.45   c-4.68-0.72-19.229-0.72-31.647,0.06c-5.396,0.33-9.7,0.495-13.95,0.495v17.574c5.289,0.01,10.551-0.26,19.2-0.819   c15.96-1.08,19.17-0.84,37.647,2.67c3.48,0.66,9.603,1.8,13.65,2.55c6.96,1.29,9.69,1.92,21.24,4.98c2.67,0.72,4.95,1.23,5.04,1.11   C637.14,393.75,635.61,388.08,634.59,386.04z" style="stroke:black;fill:#BFDAE3"/><path id="180623552" parent_id="180608862" order="9" structure_id="1" d="M646.02,434.67c-0.567-1.14-6.75-8.04-9.897-11.1c-4.08-3.933-5.16-4.23-11.4-3.12   c-2.46,0.45-6.027,1.05-7.92,1.38c-3.33,0.54-16.56,1.95-25.95,2.729c-7.02,0.57-20.76,0.423-36.688-0.479L540,423.3v26.746   c5.458-0.063,9.574,0.462,21.87,2.534c12.84,2.188,15.6,2.52,20.25,2.52c6.24,0,12.39-1.14,22.38-4.107   c3.06-0.933,7.29-2.19,9.42-2.82c4.68-1.38,11.07-2.67,19.35-3.87c4.893-0.72,6.513-1.05,7.98-1.74   C645.45,440.58,647.4,437.34,646.02,434.67z" style="stroke:black;fill:#BFDAE3"/><path id="180623552" parent_id="180608862" order="10" structure_id="1" d="M662.01,453.57c-1.26,2.13-6.3,4.77-15.21,7.979c-9.75,3.51-14.7,5.58-21.45,9.03   c-6.96,3.54-12.75,5.97-18.447,7.74c-16.593,5.1-30.57,6.447-66.9,6.447v14.616c1.472,0.003,2.854-0.063,4.65-0.186   c6.867-0.48,16.647-1.41,22.05-2.103c2.55-0.33,5.97-0.688,7.59-0.777c2.58-0.183,2.91-0.15,2.91,0.3c0,0.6-0.09,0.63,5.25-0.24   c2.49-0.39,6.06-0.96,7.95-1.229c1.89-0.271,3.897-0.723,4.47-0.961c0.57-0.239,1.53-0.539,2.16-0.602   c0.659-0.09,1.17-0.3,1.17-0.42c0-0.15,0.18-0.27,0.39-0.27c0.813,0,7.893-3.69,11.07-5.79c4.68-3.093,8.068-4.95,13.05-7.23   c10.83-4.95,23.64-9.42,31.68-10.979c1.473-0.302,1.71-0.421,1.71-1.021c0-0.479,0.393-0.96,1.2-1.53c3.72-2.58,6-6.96,6-11.64   C663.3,452.46,662.88,452.1,662.01,453.57z" style="stroke:black;fill:#BFDAE3"/><path id="180623552" parent_id="180608862" order="11" structure_id="1" d="M549.99,544.5c-2.853,0-3.66-0.3-4.353-1.47c-0.821-1.427-3.252-2.337-5.64-2.345v6.229   c0.062-0.003,0.115-0.015,0.18-0.015c0.813,0,1.08,0.18,1.473,0.897c0.688,1.32,0.6,3.933-0.183,4.92   c-0.419,0.539-0.94,0.801-1.47,0.791v4.279h0.06c2.58,0,2.643,0,3.75-1.021c3.933-3.63,5.37-5.55,6.69-9.147   c0.51-1.29,0.9-2.55,0.9-2.76C551.4,544.62,550.92,544.5,549.99,544.5z" style="stroke:black;fill:#BFDAE3"/><path id="180623552" parent_id="180608862" order="12" structure_id="1" d="M694.05,631.08   c-7.14,1.74-17.49,12.57-19.08,19.95c-0.51,2.397,0.723,5.37,2.223,5.37c1.317,0,21.63-19.65,23.038-22.29   c0.212-0.36,0.182-0.9-0.028-1.591C699.57,630.69,697.62,630.21,694.05,631.08z" style="stroke:black;fill:#BFDAE3"/><path id="180623552" parent_id="180608862" order="13" structure_id="1" d="M739.68,550.8c-0.3,0-0.42,1.8-0.567,7.71c-0.33,15.36-3.15,33.99-6.87,45.393   c-1.59,4.979-4.17,8.79-6.69,9.93c-2.397,1.11-6.75,0.51-7.2-0.96c-0.117-0.33-0.117-1.11,0-1.74l0.183-1.14l-1.92-0.183   c-3.9-0.357-11.313-2.607-15.36-4.647c-6.45-3.24-11.28-8.34-13.62-14.432c-0.51-1.288-2.13-7.261-3.6-13.261   c-4.44-18-7.53-26.43-12.511-34.107c-2.012-3.093-5.939-7.2-8.489-8.882c-2.58-1.711-6.36-3.568-8.431-4.171   c-7.172-2.067-19.29-2.22-34.5-0.447c-3.869,0.447-7.262,0.657-11.25,0.657c-5.222-0.027-6.812-0.147-14.159-1.229   c-2.16-0.3-1.563,0.54,1.197,1.68c3.813,1.563,7.921,3.933,9.12,5.223c1.021,1.14,1.051,1.26,0.933,3.18   c-0.063,1.229-0.36,2.49-0.78,3.359c-0.36,0.75-0.66,1.5-0.66,1.648c0,0.15,0.9,0.75,2.04,1.29c9.45,4.65,34.979,21.21,51.36,33.3   c3.51,2.58,30.96,24.183,35.85,28.2c1.5,1.2,3.48,2.97,4.41,3.87l1.74,1.68l2.907,0.03c2.553,0,3.183,0.12,4.65,0.81   c2.94,1.381,4.32,4.053,4.08,8.013c-0.12,2.34-0.63,3.27-2.37,4.5c-0.93,0.63-1.229,0.688-3.75,0.51l-2.729-0.15v1.92   c0,1.83,0.027,1.95,0.688,1.95c1.68,0,2.19,1.65,1.5,4.771c-1.41,6.567-8.1,15.897-16.53,23.1c-6.75,5.79-14.85,11.55-19.079,13.65   c-4.198,2.067-5.908,1.737-5.521-1.053c0.21-1.59,0.12-1.68-1.26-1.14c-0.45,0.18-1.771,0.33-2.94,0.3   c-3.93,0-8.58-1.92-16.35-6.778c-6.063-3.812-8.13-4.802-11.643-5.729c-3.27-0.87-4.92-1.62-6.117-2.76   c-2.07-1.92-0.9-3.21,9.96-11.4c2.88-2.16,6.81-5.188,8.697-6.688c5.67-4.473,10.62-7.62,14.28-9.092   c3.063-1.229,3.271-1.381,3.36-2.221c0.12-1.2-1.143-4.95-2.94-8.608c-3.51-7.262-11.64-17.79-18.81-24.329   c-9.33-8.521-47.25-40.62-48-40.62c-0.21,0-0.393,0.3-0.393,0.688c0,0.393-0.21,1.41-0.479,2.28c-0.391,1.35-0.9,2.01-3.09,4.2   c-1.41,1.41-4.17,4.68-6.063,7.229c-4.47,6-6,7.29-9.18,7.683c-1.11,0.147-1.74,0.449-2.641,1.317   c-2.369,2.19-5.04,3.271-9.722,3.9c-5.16,0.72-10.02-0.18-15.09-2.729c-4.05-2.039-4.74-3.061-4.74-6.931   c0.03-3.63,0.48-7.68,1.052-9.24c0.271-0.75,0.568-1.56,0.631-1.829c0.147-0.391-0.183-0.448-2.28-0.448v21.528   c0.197,0.004,0.389,0.008,0.6,0.012c5.433,0.09,5.94,0.147,7.143,0.777c2.01,1.08,3.81,3.183,5.43,6.33   c2.79,5.46,7.08,17.91,10.26,29.67c1.38,5.16,5.551,25.32,7.2,34.771l0.69,3.93l1.08,0.33c1.68,0.51,3,1.65,5.277,4.59   c2.67,3.48,3.78,4.143,6.99,4.143c1.26,0,3.36-0.21,4.68-0.48c3.45-0.66,7.95-0.6,10.263,0.12c3.6,1.14,7.02,4.05,8.67,7.41   c2.487,5.13,0.33,7.74-7.83,9.479c-1.472,0.303-3.063,0.57-3.512,0.57c-1.408,0-0.931,0.69,1.739,2.4c3,1.948,5.761,4.68,6,5.97   c0.24,1.109,0.393,1.109,2.49,0.3c3.84-1.438,9.93-2.55,24.061-4.29c14.579-1.83,21.96-3.479,31.592-7.108   c10.408-3.899,24.479-11.762,32.43-18.119c3.45-2.73,13.56-12.75,18.03-17.853c7.527-8.58,11.067-13.529,14.37-20.1   c6.117-12.24,10.02-25.83,12.21-42.57C740.91,571.59,740.76,550.8,739.68,550.8z M583.32,580.65c-0.75,1.527-1.83,2.277-3.513,2.46   c-1.827,0.21-2.789-0.063-3.39-0.96c-1.35-2.07-0.93-5.07,0.93-6.723c1.17-1.02,2.07-1.14,3.54-0.51   c1.353,0.57,2.223,1.62,2.643,3.21C583.86,579.33,583.83,579.63,583.32,580.65z" style="stroke:black;fill:#BFDAE3"/><path id="180623552" parent_id="180608862" order="14" structure_id="1" d="M668.67,612c-2.91,0.75-5.729,2.25-8.189,4.44   l-1.108,0.96l1.02,2.64c0.57,1.44,1.2,3.33,1.41,4.17c0.21,0.87,0.42,1.59,0.48,1.59c0.09,0,1.92-0.6,4.107-1.35   c4.563-1.53,9.271-2.55,11.82-2.55c0.96,0,2.85-0.092,4.2-0.21l2.49-0.183l-0.183-1.229c-0.33-2.19-1.317-4.021-3-5.55   c-2.34-2.16-4.26-2.79-8.52-2.91C671.31,611.76,669.27,611.85,668.67,612z" style="stroke:black;fill:#BFDAE3"/><path id="180623552" parent_id="180608862" order="15" structure_id="1" d="M624.75,504.03c-3.09,0.3-6.72,1.05-8.79,1.83   c-2.04,0.75-4.08,2.729-4.53,4.317c-0.987,3.513,0.513,8.103,3.183,9.75c0.96,0.603,1.29,0.63,8.13,0.512   c6.027-0.119,7.47-0.239,9.45-0.779c4.407-1.2,6.75-3.03,8.729-6.78c1.23-2.37,1.32-3.39,0.45-4.979   C639.54,504.66,633.21,503.19,624.75,504.03z" style="stroke:black;fill:#BFDAE3"/><path id="180623552" parent_id="180608862" order="16" structure_id="1" d="M636.18,481.68   c-1.107,1.08-1.527,2.73-1.979,7.53c-0.33,3.84-0.69,5.22-1.62,6.271l-0.66,0.81l-7.95,0.06c-8.817,0.093-10.62,0.303-15.27,1.803   c-1.771,0.567-3.603,1.05-4.11,1.05c-1.2,0-2.97-1.32-4.92-3.72c-1.229-1.5-1.8-1.98-2.37-1.95c-1.14,0.027-2.85,0.72-2.91,1.2   c-0.06,0.237,0.723,1.438,1.711,2.67c3.632,4.5,6.239,11.22,5.909,15.18c-0.147,2.189-1.229,4.68-2.55,6.03   c-1.38,1.38-1.26,1.647,0.63,1.38c1.98-0.3,3.78-0.3,9.3,0.029c4.86,0.271,4.95,0.238,3.66-1.439c-2.067-2.729-2.7-6.6-1.41-9.062   c1.32-2.578,3.69-3.898,9.211-5.101c2.852-0.6,10.262-0.87,12.932-0.45c4.35,0.66,7.68,2.67,8.13,4.83c0.09,0.51,0.33,0.9,0.51,0.9   c0.182,0,0.932-0.9,1.65-1.95c2.22-3.33,4.8-5.85,7.83-7.65c4.29-2.55,6.3-4.56,6.3-6.27c0-1.2-1.53-2.43-5.22-4.23   c-1.98-0.96-4.771-2.13-6.183-2.58c-2.729-0.867-3.42-1.287-6-3.72C638.55,481.17,637.17,480.69,636.18,481.68z" style="stroke:black;fill:#BFDAE3"/><path id="180623552" parent_id="180608862" order="17" structure_id="1" d="M668.82,468.57   c-1.65,0.42-3.48,1.647-4.08,2.729c-1.32,2.49-0.3,6.36,2.31,8.643c1.683,1.5,4.53,2.88,5.853,2.85c0.567,0,2.46-0.42,4.197-0.96   c1.74-0.51,4.74-1.17,6.69-1.44c2.31-0.33,3.51-0.63,3.51-0.869c0-0.631-4.229-4.288-7.5-6.479c-3.66-2.49-8.16-4.74-9.27-4.71   C670.11,468.36,669.33,468.45,668.82,468.57z" style="stroke:black;fill:#BFDAE3"/><path id="180623552" parent_id="180608862" order="18" structure_id="1" d="M592.17,494.82   c-0.06,0.09-2.22,0.42-4.77,0.777c-6.12,0.843-9.9,1.593-14.521,2.853c-6.54,1.8-9.63,3.18-14.82,6.63   c-2.578,1.71-4.77,3.12-4.92,3.12c-0.42,0-0.27,0.54,0.54,1.71c0.723,1.05,0.78,1.29,0.603,3.479l-0.15,2.37l2.46,1.143   c4.47,2.1,11.853,3.567,20.76,4.197c8.46,0.57,18.093,0.21,19.92-0.75c1.32-0.658,3.54-3.33,4.053-4.857   c0.6-1.71,0.63-5.67,0.06-7.74c-1.05-3.93-3.479-8.4-6.24-11.4C593.79,494.88,592.68,494.31,592.17,494.82z" style="stroke:black;fill:#BFDAE3"/><path id="180623552" parent_id="180608862" order="19" structure_id="1" d="M655.8,497.46c-0.75,0.66-2.37,1.8-3.63,2.521   c-1.26,0.75-2.91,1.857-3.66,2.52c-1.92,1.71-5.277,6.24-7.107,9.6c-0.842,1.563-2.07,3.42-2.763,4.11   c-4.05,4.14-11.46,5.28-27.27,4.14c-7.95-0.567-10.26-0.51-13.771,0.303c-4.197,0.96-17.79,1.05-25.35,0.147   c-6.54-0.78-13.08-2.397-16.47-4.107c-1.62-0.813-2.37-0.723-2.223,0.27c0.12,0.78,1.711,1.41,11.61,4.47   c12.93,4.021,23.94,6.813,31.98,8.07c6.147,0.99,14.55,1.11,21.447,0.33c15.24-1.71,25.11-1.86,32.37-0.479   c1.261,0.239,2.521,0.449,2.82,0.449c0.9,0,0.54-0.72-1.05-1.949c-2.73-2.131-4.74-5.068-5.341-7.858   c-0.842-3.69,1.858-9.57,8.851-19.142c1.41-1.921,2.55-3.568,2.55-3.658c0-0.24-0.99-0.96-1.35-0.96   C657.3,496.23,656.55,496.77,655.8,497.46z" style="stroke:black;fill:#BFDAE3"/><path id="180623552" parent_id="180608862" order="20" structure_id="1" d="M602.85,545.55c-0.479,0.42-1.38,0.9-1.947,1.08   c-0.57,0.21-1.2,0.48-1.383,0.603c-0.72,0.567-6.479,0.657-9.147,0.147c-3.09-0.57-2.97-0.57-2.97-0.06   c0,0.237,1.26,1.41,2.76,2.64c6.75,5.34,26.52,22.021,40.8,34.35c4.26,3.69,7.86,6.69,8.01,6.69c0.12,0,0.33-0.69,0.393-1.53   c0.27-2.729,1.979-4.17,5.277-4.38c4.53-0.33,9.183,1.62,13.263,5.49c1.47,1.38,2.85,2.52,3.06,2.52c0.84,0,5.91,3.631,8.01,5.73   c2.58,2.609,5.763,7.29,7.353,10.83c1.107,2.397,1.199,2.52,2.79,3.21c3,1.32,5.25,4.26,5.699,7.38l0.181,1.32l2.13,0.147   c1.17,0.09,3.78,0.24,5.82,0.33l3.658,0.183v-1.923c0-2.607,0.722-4.8,2.012-6.237c0.87-0.96,1.05-1.32,0.81-1.71   c-0.63-1.021-7.29-6.513-22.41-18.42c-19.71-15.57-26.43-20.49-41.729-30.66c-14.521-9.63-29.431-18.511-31.021-18.48   C603.99,544.83,603.36,545.16,602.85,545.55z" style="stroke:black;fill:#BFDAE3"/><path id="180623552" parent_id="180608862" order="21" structure_id="1" d="M662.4,450.66c-0.9-4.05-2.79-7.86-6.48-12.99c-2.88-3.99-6.39-9.54-8.25-13.02   c-2.64-5.013-6.12-7.71-12.57-9.87c-6.75-2.25-10.289-2.433-23.789-1.08c-22.108,2.188-24.931,2.31-41.461,1.83   c-8.607-0.24-13.5-0.54-17.397-0.99c-3.767-0.465-8.107-0.697-12.45-0.697v9.457l14.16,0.78c15.93,0.9,29.67,1.05,36.688,0.479   c9.393-0.777,22.62-2.188,25.95-2.729c1.893-0.33,5.46-0.93,7.92-1.38c6.24-1.11,7.32-0.813,11.4,3.12   c3.148,3.06,9.33,9.96,9.898,11.1c1.382,2.67-0.568,5.91-4.771,7.891c-1.47,0.689-3.09,1.021-7.979,1.739   c-8.278,1.2-14.671,2.49-19.351,3.87c-2.13,0.63-6.36,1.891-9.42,2.82c-9.99,2.97-16.14,4.107-22.38,4.107   c-4.65,0-7.41-0.328-20.25-2.52c-12.296-2.072-16.412-2.599-21.87-2.534v34.726c36.33,0,50.31-1.352,66.9-6.449   c5.697-1.771,11.487-4.2,18.447-7.74c6.75-3.45,11.7-5.521,21.45-9.03c9.15-3.3,13.893-5.79,15.33-8.13   C662.73,452.43,662.76,452.22,662.4,450.66z" style="stroke:black;fill:#BFDAE3"/><path id="180623552" parent_id="180608862" order="22" structure_id="1" d="M642.54,411.81l-2.46-7.197l-3,0.21c-4.08,0.27-17.73,1.8-25.83,2.91c-11.01,1.5-16.74,1.5-25.5-0.093   c-4.771-0.87-11.37-0.96-25.5-0.42c-6.75,0.271-15.87,0.48-20.25,0.48v5.897c3.782,0.002,7.576,0.233,11.25,0.7   c6,0.72,16.77,1.143,30.3,1.17c8.76,0.03,13.893-0.33,33.36-2.277c7.41-0.75,8.46-0.78,11.397-0.45   c6.093,0.688,11.7,2.58,15.78,5.37c2.4,1.62,2.91,1.857,2.91,1.229C645,419.16,643.89,415.77,642.54,411.81z" style="stroke:black;fill:#BFDAE3"/><path id="180623552" parent_id="180608862" order="23" structure_id="1" d="M638.52,399.3l-1.47-4.83l-1.5-0.42c-9.42-2.67-18.42-4.86-24-5.85c-1.979-0.36-7.5-1.38-12.3-2.28   c-21.36-4.05-23.7-4.23-40.05-3.12c-8.413,0.557-13.842,0.827-19.2,0.823v23.986c3.743-0.015,7.699-0.142,14.7-0.392   c21.21-0.75,25.107-0.72,30.897,0.271c9.393,1.59,14.433,1.62,25.803,0.09c10.107-1.38,20.25-2.521,26.64-2.97   c0.87-0.063,1.65-0.21,1.771-0.303C639.9,404.19,639.33,401.94,638.52,399.3z" style="stroke:black;fill:#BFDAE3"/><path id="180623552" parent_id="180608862" order="24" structure_id="1" d="M694.38,421.41c-0.87-1.68-3-5.76-4.74-9.063c-1.737-3.3-4.8-9.18-6.84-13.05   c-7.107-13.59-14.607-26.67-19.979-34.86c-11.19-17.04-26.4-28.65-46.44-35.52c-18.496-6.334-50.275-10.712-76.38-10.765v34.188   c4.845-0.001,9.695-0.398,16.8-1.193c9.21-1.05,11.19-1.17,18-1.17c8.103-0.03,10.021,0.15,18.45,1.8   c21.3,4.14,38.07,11.34,43.979,18.9c2.551,3.27,5.641,8.88,13.471,24.42c8.7,17.31,11.01,21.51,15.45,28.2   c6.42,9.63,13.35,16.41,20.067,19.65c5.4,2.58,10.95,2.58,12.66,0.028C701.01,439.68,699.15,430.74,694.38,421.41z" style="stroke:black;fill:#BFDAE3"/><path id="180623552" parent_id="180608862" order="25" structure_id="1" d="M694.38,421.41c-0.87-1.68-3-5.76-4.74-9.063c-1.737-3.3-4.8-9.18-6.84-13.05   c-7.107-13.59-14.607-26.67-19.979-34.86c-11.19-17.04-26.4-28.65-46.44-35.52c-18.496-6.334-50.275-10.712-76.38-10.765v34.188   c4.845-0.001,9.695-0.398,16.8-1.193c9.21-1.05,11.19-1.17,18-1.17c8.103-0.03,10.021,0.15,18.45,1.8   c21.3,4.14,38.07,11.34,43.979,18.9c2.551,3.27,5.641,8.88,13.471,24.42c8.7,17.31,11.01,21.51,15.45,28.2   c6.42,9.63,13.35,16.41,20.067,19.65c5.4,2.58,10.95,2.58,12.66,0.028C701.01,439.68,699.15,430.74,694.38,421.41z" style="stroke:black;fill:#BFDAE3"/><path id="180623552" parent_id="180608862" order="26" structure_id="1" d="M692.43,365.76c-1.62,1.11-2.25,2.64-2.37,5.79   c-0.237,5.85,2.433,13.05,10.32,27.84c5.07,9.48,10.26,17.04,15.72,22.803c5.79,6.117,9.99,8.25,12.813,6.51   c1.68-1.021,2.04-2.103,2.04-6.15c0-4.317-0.51-6.989-2.55-13.05c-1.803-5.43-4.143-10.95-7.353-17.55   c-4.29-8.76-7.8-14.04-12.569-18.99c-4.979-5.16-8.938-7.56-12.778-7.8C693.72,365.07,693.33,365.13,692.43,365.76z" style="stroke:black;fill:#BFDAE3"/><path id="180623552" parent_id="180608862" order="27" structure_id="1" d="M739.68,550.8c-0.3,0-0.42,1.8-0.567,7.71c-0.33,15.36-3.15,33.99-6.87,45.393   c-1.59,4.979-4.17,8.79-6.69,9.93c-2.397,1.11-6.75,0.51-7.2-0.96c-0.117-0.33-0.117-1.11,0-1.74l0.183-1.14l-1.92-0.183   c-3.9-0.357-11.313-2.607-15.36-4.647c-6.45-3.24-11.28-8.34-13.62-14.432c-0.51-1.288-2.13-7.261-3.6-13.261   c-4.44-18-7.53-26.43-12.511-34.107c-2.012-3.093-5.939-7.2-8.489-8.882c-2.58-1.711-6.36-3.568-8.431-4.171   c-7.172-2.067-19.29-2.22-34.5-0.447c-3.869,0.447-7.262,0.657-11.25,0.657c-5.222-0.027-6.812-0.147-14.159-1.229   c-2.16-0.3-1.563,0.54,1.197,1.68c3.813,1.563,7.921,3.933,9.12,5.223c1.021,1.14,1.051,1.26,0.933,3.18   c-0.063,1.229-0.36,2.49-0.78,3.359c-0.36,0.75-0.66,1.5-0.66,1.648c0,0.15,0.9,0.75,2.04,1.29c9.45,4.65,34.979,21.21,51.36,33.3   c3.51,2.58,30.96,24.183,35.85,28.2c1.5,1.2,3.48,2.97,4.41,3.87l1.74,1.68l2.907,0.03c2.553,0,3.183,0.12,4.65,0.81   c2.94,1.381,4.32,4.053,4.08,8.013c-0.12,2.34-0.63,3.27-2.37,4.5c-0.93,0.63-1.229,0.688-3.75,0.51l-2.729-0.15v1.92   c0,1.83,0.027,1.95,0.688,1.95c1.68,0,2.19,1.65,1.5,4.771c-1.41,6.567-8.1,15.897-16.53,23.1c-6.75,5.79-14.85,11.55-19.079,13.65   c-4.198,2.067-5.908,1.737-5.521-1.053c0.21-1.59,0.12-1.68-1.26-1.14c-0.45,0.18-1.771,0.33-2.94,0.3   c-3.93,0-8.58-1.92-16.35-6.778c-6.063-3.812-8.13-4.802-11.643-5.729c-3.27-0.87-4.92-1.62-6.117-2.76   c-2.07-1.92-0.9-3.21,9.96-11.4c2.88-2.16,6.81-5.188,8.697-6.688c5.67-4.473,10.62-7.62,14.28-9.092   c3.063-1.229,3.271-1.381,3.36-2.221c0.12-1.2-1.143-4.95-2.94-8.608c-3.51-7.262-11.64-17.79-18.81-24.329   c-9.33-8.521-47.25-40.62-48-40.62c-0.21,0-0.393,0.3-0.393,0.688c0,0.393-0.21,1.41-0.479,2.28c-0.391,1.35-0.9,2.01-3.09,4.2   c-1.41,1.41-4.17,4.68-6.063,7.229c-4.47,6-6,7.29-9.18,7.683c-1.11,0.147-1.74,0.449-2.641,1.317   c-2.369,2.19-5.04,3.271-9.722,3.9c-5.16,0.72-10.02-0.18-15.09-2.729c-4.05-2.039-4.74-3.061-4.74-6.931   c0.03-3.63,0.48-7.68,1.052-9.24c0.271-0.75,0.568-1.56,0.631-1.829c0.147-0.391-0.183-0.448-2.28-0.448v21.528   c0.197,0.004,0.389,0.008,0.6,0.012c5.433,0.09,5.94,0.147,7.143,0.777c2.01,1.08,3.81,3.183,5.43,6.33   c2.79,5.46,7.08,17.91,10.26,29.67c1.38,5.16,5.551,25.32,7.2,34.771l0.69,3.93l1.08,0.33c1.68,0.51,3,1.65,5.277,4.59   c2.67,3.48,3.78,4.143,6.99,4.143c1.26,0,3.36-0.21,4.68-0.48c3.45-0.66,7.95-0.6,10.263,0.12c3.6,1.14,7.02,4.05,8.67,7.41   c2.487,5.13,0.33,7.74-7.83,9.479c-1.472,0.303-3.063,0.57-3.512,0.57c-1.408,0-0.931,0.69,1.739,2.4c3,1.948,5.761,4.68,6,5.97   c0.24,1.109,0.393,1.109,2.49,0.3c3.84-1.438,9.93-2.55,24.061-4.29c14.579-1.83,21.96-3.479,31.592-7.108   c10.408-3.899,24.479-11.762,32.43-18.119c3.45-2.73,13.56-12.75,18.03-17.853c7.527-8.58,11.067-13.529,14.37-20.1   c6.117-12.24,10.02-25.83,12.21-42.57C740.91,571.59,740.76,550.8,739.68,550.8z M583.32,580.65c-0.75,1.527-1.83,2.277-3.513,2.46   c-1.827,0.21-2.789-0.063-3.39-0.96c-1.35-2.07-0.93-5.07,0.93-6.723c1.17-1.02,2.07-1.14,3.54-0.51   c1.353,0.57,2.223,1.62,2.643,3.21C583.86,579.33,583.83,579.63,583.32,580.65z" style="stroke:black;fill:#BFDAE3"/><path id="180623552" parent_id="180608862" order="28" structure_id="1" d="M739.68,550.8c-0.3,0-0.42,1.8-0.567,7.71c-0.33,15.36-3.15,33.99-6.87,45.393   c-1.59,4.979-4.17,8.79-6.69,9.93c-2.397,1.11-6.75,0.51-7.2-0.96c-0.117-0.33-0.117-1.11,0-1.74l0.183-1.14l-1.92-0.183   c-3.9-0.357-11.313-2.607-15.36-4.647c-6.45-3.24-11.28-8.34-13.62-14.432c-0.51-1.288-2.13-7.261-3.6-13.261   c-4.44-18-7.53-26.43-12.511-34.107c-2.012-3.093-5.939-7.2-8.489-8.882c-2.58-1.711-6.36-3.568-8.431-4.171   c-7.172-2.067-19.29-2.22-34.5-0.447c-3.869,0.447-7.262,0.657-11.25,0.657c-5.222-0.027-6.812-0.147-14.159-1.229   c-2.16-0.3-1.563,0.54,1.197,1.68c3.813,1.563,7.921,3.933,9.12,5.223c1.021,1.14,1.051,1.26,0.933,3.18   c-0.063,1.229-0.36,2.49-0.78,3.359c-0.36,0.75-0.66,1.5-0.66,1.648c0,0.15,0.9,0.75,2.04,1.29c9.45,4.65,34.979,21.21,51.36,33.3   c3.51,2.58,30.96,24.183,35.85,28.2c1.5,1.2,3.48,2.97,4.41,3.87l1.74,1.68l2.907,0.03c2.553,0,3.183,0.12,4.65,0.81   c2.94,1.381,4.32,4.053,4.08,8.013c-0.12,2.34-0.63,3.27-2.37,4.5c-0.93,0.63-1.229,0.688-3.75,0.51l-2.729-0.15v1.92   c0,1.83,0.027,1.95,0.688,1.95c1.68,0,2.19,1.65,1.5,4.771c-1.41,6.567-8.1,15.897-16.53,23.1c-6.75,5.79-14.85,11.55-19.079,13.65   c-4.198,2.067-5.908,1.737-5.521-1.053c0.21-1.59,0.12-1.68-1.26-1.14c-0.45,0.18-1.771,0.33-2.94,0.3   c-3.93,0-8.58-1.92-16.35-6.778c-6.063-3.812-8.13-4.802-11.643-5.729c-3.27-0.87-4.92-1.62-6.117-2.76   c-2.07-1.92-0.9-3.21,9.96-11.4c2.88-2.16,6.81-5.188,8.697-6.688c5.67-4.473,10.62-7.62,14.28-9.092   c3.063-1.229,3.271-1.381,3.36-2.221c0.12-1.2-1.143-4.95-2.94-8.608c-3.51-7.262-11.64-17.79-18.81-24.329   c-9.33-8.521-47.25-40.62-48-40.62c-0.21,0-0.393,0.3-0.393,0.688c0,0.393-0.21,1.41-0.479,2.28c-0.391,1.35-0.9,2.01-3.09,4.2   c-1.41,1.41-4.17,4.68-6.063,7.229c-4.47,6-6,7.29-9.18,7.683c-1.11,0.147-1.74,0.449-2.641,1.317   c-2.369,2.19-5.04,3.271-9.722,3.9c-5.16,0.72-10.02-0.18-15.09-2.729c-4.05-2.039-4.74-3.061-4.74-6.931   c0.03-3.63,0.48-7.68,1.052-9.24c0.271-0.75,0.568-1.56,0.631-1.829c0.147-0.391-0.183-0.448-2.28-0.448v21.528   c0.197,0.004,0.389,0.008,0.6,0.012c5.433,0.09,5.94,0.147,7.143,0.777c2.01,1.08,3.81,3.183,5.43,6.33   c2.79,5.46,7.08,17.91,10.26,29.67c1.38,5.16,5.551,25.32,7.2,34.771l0.69,3.93l1.08,0.33c1.68,0.51,3,1.65,5.277,4.59   c2.67,3.48,3.78,4.143,6.99,4.143c1.26,0,3.36-0.21,4.68-0.48c3.45-0.66,7.95-0.6,10.263,0.12c3.6,1.14,7.02,4.05,8.67,7.41   c2.487,5.13,0.33,7.74-7.83,9.479c-1.472,0.303-3.063,0.57-3.512,0.57c-1.408,0-0.931,0.69,1.739,2.4c3,1.948,5.761,4.68,6,5.97   c0.24,1.109,0.393,1.109,2.49,0.3c3.84-1.438,9.93-2.55,24.061-4.29c14.579-1.83,21.96-3.479,31.592-7.108   c10.408-3.899,24.479-11.762,32.43-18.119c3.45-2.73,13.56-12.75,18.03-17.853c7.527-8.58,11.067-13.529,14.37-20.1   c6.117-12.24,10.02-25.83,12.21-42.57C740.91,571.59,740.76,550.8,739.68,550.8z M583.32,580.65c-0.75,1.527-1.83,2.277-3.513,2.46   c-1.827,0.21-2.789-0.063-3.39-0.96c-1.35-2.07-0.93-5.07,0.93-6.723c1.17-1.02,2.07-1.14,3.54-0.51   c1.353,0.57,2.223,1.62,2.643,3.21C583.86,579.33,583.83,579.63,583.32,580.65z" style="stroke:black;fill:#BFDAE3"/><path id="180623552" parent_id="180608862" order="29" structure_id="1" d="M694.38,421.41c-0.87-1.68-3-5.76-4.74-9.063c-1.737-3.3-4.8-9.18-6.84-13.05   c-7.107-13.59-14.607-26.67-19.979-34.86c-11.19-17.04-26.4-28.65-46.44-35.52c-18.496-6.334-50.275-10.712-76.38-10.765v34.188   c4.845-0.001,9.695-0.398,16.8-1.193c9.21-1.05,11.19-1.17,18-1.17c8.103-0.03,10.021,0.15,18.45,1.8   c21.3,4.14,38.07,11.34,43.979,18.9c2.551,3.27,5.641,8.88,13.471,24.42c8.7,17.31,11.01,21.51,15.45,28.2   c6.42,9.63,13.35,16.41,20.067,19.65c5.4,2.58,10.95,2.58,12.66,0.028C701.01,439.68,699.15,430.74,694.38,421.41z" style="stroke:black;fill:#BFDAE3"/><path id="180623552" parent_id="180608862" order="30" structure_id="1" d="M739.68,550.8c-0.3,0-0.42,1.8-0.567,7.71c-0.33,15.36-3.15,33.99-6.87,45.393   c-1.59,4.979-4.17,8.79-6.69,9.93c-2.397,1.11-6.75,0.51-7.2-0.96c-0.117-0.33-0.117-1.11,0-1.74l0.183-1.14l-1.92-0.183   c-3.9-0.357-11.313-2.607-15.36-4.647c-6.45-3.24-11.28-8.34-13.62-14.432c-0.51-1.288-2.13-7.261-3.6-13.261   c-4.44-18-7.53-26.43-12.511-34.107c-2.012-3.093-5.939-7.2-8.489-8.882c-2.58-1.711-6.36-3.568-8.431-4.171   c-7.172-2.067-19.29-2.22-34.5-0.447c-3.869,0.447-7.262,0.657-11.25,0.657c-5.222-0.027-6.812-0.147-14.159-1.229   c-2.16-0.3-1.563,0.54,1.197,1.68c3.813,1.563,7.921,3.933,9.12,5.223c1.021,1.14,1.051,1.26,0.933,3.18   c-0.063,1.229-0.36,2.49-0.78,3.359c-0.36,0.75-0.66,1.5-0.66,1.648c0,0.15,0.9,0.75,2.04,1.29c9.45,4.65,34.979,21.21,51.36,33.3   c3.51,2.58,30.96,24.183,35.85,28.2c1.5,1.2,3.48,2.97,4.41,3.87l1.74,1.68l2.907,0.03c2.553,0,3.183,0.12,4.65,0.81   c2.94,1.381,4.32,4.053,4.08,8.013c-0.12,2.34-0.63,3.27-2.37,4.5c-0.93,0.63-1.229,0.688-3.75,0.51l-2.729-0.15v1.92   c0,1.83,0.027,1.95,0.688,1.95c1.68,0,2.19,1.65,1.5,4.771c-1.41,6.567-8.1,15.897-16.53,23.1c-6.75,5.79-14.85,11.55-19.079,13.65   c-4.198,2.067-5.908,1.737-5.521-1.053c0.21-1.59,0.12-1.68-1.26-1.14c-0.45,0.18-1.771,0.33-2.94,0.3   c-3.93,0-8.58-1.92-16.35-6.778c-6.063-3.812-8.13-4.802-11.643-5.729c-3.27-0.87-4.92-1.62-6.117-2.76   c-2.07-1.92-0.9-3.21,9.96-11.4c2.88-2.16,6.81-5.188,8.697-6.688c5.67-4.473,10.62-7.62,14.28-9.092   c3.063-1.229,3.271-1.381,3.36-2.221c0.12-1.2-1.143-4.95-2.94-8.608c-3.51-7.262-11.64-17.79-18.81-24.329   c-9.33-8.521-47.25-40.62-48-40.62c-0.21,0-0.393,0.3-0.393,0.688c0,0.393-0.21,1.41-0.479,2.28c-0.391,1.35-0.9,2.01-3.09,4.2   c-1.41,1.41-4.17,4.68-6.063,7.229c-4.47,6-6,7.29-9.18,7.683c-1.11,0.147-1.74,0.449-2.641,1.317   c-2.369,2.19-5.04,3.271-9.722,3.9c-5.16,0.72-10.02-0.18-15.09-2.729c-4.05-2.039-4.74-3.061-4.74-6.931   c0.03-3.63,0.48-7.68,1.052-9.24c0.271-0.75,0.568-1.56,0.631-1.829c0.147-0.391-0.183-0.448-2.28-0.448v21.528   c0.197,0.004,0.389,0.008,0.6,0.012c5.433,0.09,5.94,0.147,7.143,0.777c2.01,1.08,3.81,3.183,5.43,6.33   c2.79,5.46,7.08,17.91,10.26,29.67c1.38,5.16,5.551,25.32,7.2,34.771l0.69,3.93l1.08,0.33c1.68,0.51,3,1.65,5.277,4.59   c2.67,3.48,3.78,4.143,6.99,4.143c1.26,0,3.36-0.21,4.68-0.48c3.45-0.66,7.95-0.6,10.263,0.12c3.6,1.14,7.02,4.05,8.67,7.41   c2.487,5.13,0.33,7.74-7.83,9.479c-1.472,0.303-3.063,0.57-3.512,0.57c-1.408,0-0.931,0.69,1.739,2.4c3,1.948,5.761,4.68,6,5.97   c0.24,1.109,0.393,1.109,2.49,0.3c3.84-1.438,9.93-2.55,24.061-4.29c14.579-1.83,21.96-3.479,31.592-7.108   c10.408-3.899,24.479-11.762,32.43-18.119c3.45-2.73,13.56-12.75,18.03-17.853c7.527-8.58,11.067-13.529,14.37-20.1   c6.117-12.24,10.02-25.83,12.21-42.57C740.91,571.59,740.76,550.8,739.68,550.8z M583.32,580.65c-0.75,1.527-1.83,2.277-3.513,2.46   c-1.827,0.21-2.789-0.063-3.39-0.96c-1.35-2.07-0.93-5.07,0.93-6.723c1.17-1.02,2.07-1.14,3.54-0.51   c1.353,0.57,2.223,1.62,2.643,3.21C583.86,579.33,583.83,579.63,583.32,580.65z" style="stroke:black;fill:#BFDAE3"/><path id="180623552" parent_id="180608862" order="31" structure_id="1" d="M712.05,445.32c-1.59-9.12-9.06-27.66-16.74-41.61c-1.56-2.85-5.85-10.77-9.51-17.61s-8.04-14.94-9.75-18   c-1.68-3.06-4.229-7.86-5.64-10.65c-7.021-13.89-11.88-21.12-19.11-28.38c-10.5-10.53-22.319-16.65-40.2-20.79   c-11.31-2.61-23.1-3.99-45-5.31c-3.021-0.174-15.39-0.347-26.1-0.422v15.291c6.92,0.089,15.335,0.333,18.9,0.611   c15.93,1.2,29.938,3.18,42.81,6c26.91,5.94,46.05,17.91,59.67,37.35c6.9,9.84,19.65,32.64,33.271,59.55   c4.317,8.521,6.3,16.172,5.25,20.013c-0.33,1.197-1.5,2.76-2.433,3.237c-1.17,0.633-3.51,0.87-5.397,0.57   c-8.79-1.41-18.813-10.05-27.603-23.82c-3.81-5.938-7.08-12.027-13.92-25.8c-12.39-24.96-13.92-27.03-23.55-32.4   c-9.3-5.13-24.42-9.69-40.5-12.18c-3.6-0.57-5.55-0.69-11.25-0.69c-6.78,0.03-9.75,0.24-23.25,1.83   c-3.055,0.346-7.521,0.519-12,0.517v13.422c4.25-0.004,8.554-0.169,13.95-0.499c12.42-0.78,26.97-0.78,31.647-0.06   c18.33,2.91,33.54,7.47,41.313,12.45c2.938,1.92,6.18,5.25,7.53,7.77c0.567,1.08,1.407,3.57,2.01,5.91   c1.229,4.89,5.22,17.58,7.74,24.6c2.067,5.79,3.688,9.092,6.987,14.313c2.19,3.45,6.841,10.14,7.29,10.47   c0.12,0.09,0.87,1.021,1.683,2.102c2.277,3,8.64,9.391,12.147,12.21c5.46,4.408,10.74,7.351,16.05,8.971   c2.49,0.779,3.093,0.84,7.803,0.84c4.02,0,5.52-0.09,7.02-0.54c4.86-1.35,7.65-3.84,8.851-7.95   C712.65,454.5,712.65,448.86,712.05,445.32z" style="stroke:black;fill:#BFDAE3"/><path id="180623552" parent_id="180608862" order="32" structure_id="1" d="M542.1,550.29c0-2.28-0.63-3.39-1.92-3.39c-0.062,0-0.119,0.013-0.18,0.017v6.63   C541.107,553.567,542.1,552.291,542.1,550.29z" style="stroke:black;fill:#BFDAE3"/><path id="180623552" parent_id="180608862" order="33" structure_id="1" d="M597,535.29c0,0.18,0.18,0.54,0.42,0.78   c0.24,0.27,0.54,0.84,0.63,1.29c0.3,1.17-1.317,2.79-3.24,3.27c-1.71,0.42-1.8,0.93-0.51,3.18c1.353,2.343,3.69,3.66,5.55,3.12   c1.44-0.39,3.24-1.41,3.933-2.188c2.397-2.61,2.85-7.08,0.897-8.91c-0.63-0.6-1.08-0.69-4.197-0.78   C598.11,534.99,597,535.05,597,535.29z" style="stroke:black;fill:#BFDAE3"/><path id="180623552" parent_id="180608862" order="34" structure_id="1" d="M580.62,538.23   c-0.48,0.51-1.32,1.17-1.83,1.527c-0.54,0.33-0.99,0.78-0.99,0.99c0,0.24,1.11,0.99,2.49,1.71c1.35,0.69,2.94,1.71,3.51,2.22   c1.353,1.2,1.893,1.473,4.17,2.07c4.08,1.05,9.33,1.2,9.33,0.27c0-0.21-0.27-0.447-0.6-0.567c-0.933-0.3-2.643-2.49-3.15-4.08   c-0.45-1.353-0.567-1.47-1.47-1.47c-1.38,0-3.63-0.723-7.05-2.25c-1.62-0.75-3.09-1.353-3.24-1.353S581.13,537.72,580.62,538.23z" style="stroke:black;fill:#BFDAE3"/><path id="180623552" parent_id="180608862" order="35" structure_id="1" d="M672.09,492.63   c-0.72,0.12-2.55,0.813-4.05,1.47c-3.57,1.62-6.72,2.7-7.8,2.7c-0.66,0-1.11,0.36-2.221,1.71c-2.462,3.12-7.319,10.65-8.909,13.86   c-1.53,3.06-1.563,3.147-1.563,5.85c0,2.4,0.09,2.94,0.87,4.44c1.62,3.21,5.521,6.51,12.18,10.29c3.48,1.95,6.271,4.29,8.58,7.17   c6.393,7.95,10.32,17.91,15.42,39.09c1.143,4.74,2.343,9.39,2.643,10.29c2.55,7.32,7.92,12.99,15.45,16.32   c2.607,1.14,8.34,2.938,8.817,2.76c0.603-0.24,2.37-4.17,3.063-6.87c1.47-5.67,2.13-13.29,2.13-24.36c0-20.369-1.683-34.8-6-51.3   c-2.4-9.33-5.82-19.14-8.28-23.85c-0.93-1.771-1.26-2.103-3.51-3.51c-7.08-4.41-13.893-6.423-21.603-6.36   C675.12,492.36,672.78,492.48,672.09,492.63z" style="stroke:black;fill:#BFDAE3"/><path id="180623552" parent_id="180608862" order="36" structure_id="1" d="M551.31,545.61   c-0.237,0.479-0.657,1.527-0.93,2.397c-0.93,2.79-2.82,5.313-6.54,8.73c-2.22,2.04-2.91,4.857-2.938,11.817v4.11l0.93,1.08   c1.26,1.41,2.82,2.31,6.75,3.81c3.09,1.171,3.479,1.263,7.08,1.382c8.49,0.301,14.49-2.102,16.438-6.569   c1.53-3.57,1.98-15.21,0.75-19.17c-1.47-4.771-4.107-7.29-8.397-8.07c-0.96-0.18-4.23-0.33-7.26-0.33h-5.46L551.31,545.61z" style="stroke:black;fill:#BFDAE3"/><path id="180623552" parent_id="180608862" order="37" structure_id="1" d="M553.83,510.21c-0.54-1.05-1.38-1.32-5.43-1.83c-3.026-0.386-5.797-0.563-8.4-0.578v16.833   c2.671-0.002,5.792-0.815,8.7-2.245c1.77-0.897,2.46-1.438,3.21-2.55C553.8,516.96,554.79,512.04,553.83,510.21z" style="stroke:black;fill:#BFDAE3"/><path id="180623552" parent_id="180608862" order="38" structure_id="1" d="M577.26,575.49   c-2.01,2.16-2.04,6.24-0.027,7.26c1.14,0.6,2.55,0.54,4.05-0.12c1.647-0.75,2.22-1.62,2.22-3.42c0-2.729-1.62-4.41-4.229-4.41   C578.25,574.8,577.74,574.98,577.26,575.49z" style="stroke:black;fill:#BFDAE3"/><path id="180623552" parent_id="180608862" order="39" structure_id="1" d="M567.9,545.7c0,0.18,0.688,0.96,1.527,1.71   c3.54,3.21,4.98,9.18,4.2,17.49c-0.21,2.067-0.57,4.56-0.84,5.55c-0.9,3.54-0.96,3.27,0.63,3.09c2.58-0.3,4.17-1.71,8.73-7.74   c2.25-2.97,4.89-6.12,5.88-6.989c2.13-1.858,3.27-3.931,3.27-5.908c0-1.74-0.39-2.25-3.479-4.771l-2.553-2.04l-6.81-0.18   c-3.75-0.12-7.65-0.3-8.67-0.391C568.38,545.37,567.9,545.4,567.9,545.7z" style="stroke:black;fill:#BFDAE3"/><path id="180623552" parent_id="180608862" order="40" structure_id="1" d="M739.68,550.8c-0.3,0-0.42,1.8-0.567,7.71c-0.33,15.36-3.15,33.99-6.87,45.393   c-1.59,4.979-4.17,8.79-6.69,9.93c-2.397,1.11-6.75,0.51-7.2-0.96c-0.117-0.33-0.117-1.11,0-1.74l0.183-1.14l-1.92-0.183   c-3.9-0.357-11.313-2.607-15.36-4.647c-6.45-3.24-11.28-8.34-13.62-14.432c-0.51-1.288-2.13-7.261-3.6-13.261   c-4.44-18-7.53-26.43-12.511-34.107c-2.012-3.093-5.939-7.2-8.489-8.882c-2.58-1.711-6.36-3.568-8.431-4.171   c-7.172-2.067-19.29-2.22-34.5-0.447c-3.869,0.447-7.262,0.657-11.25,0.657c-5.222-0.027-6.812-0.147-14.159-1.229   c-2.16-0.3-1.563,0.54,1.197,1.68c3.813,1.563,7.921,3.933,9.12,5.223c1.021,1.14,1.051,1.26,0.933,3.18   c-0.063,1.229-0.36,2.49-0.78,3.359c-0.36,0.75-0.66,1.5-0.66,1.648c0,0.15,0.9,0.75,2.04,1.29c9.45,4.65,34.979,21.21,51.36,33.3   c3.51,2.58,30.96,24.183,35.85,28.2c1.5,1.2,3.48,2.97,4.41,3.87l1.74,1.68l2.907,0.03c2.553,0,3.183,0.12,4.65,0.81   c2.94,1.381,4.32,4.053,4.08,8.013c-0.12,2.34-0.63,3.27-2.37,4.5c-0.93,0.63-1.229,0.688-3.75,0.51l-2.729-0.15v1.92   c0,1.83,0.027,1.95,0.688,1.95c1.68,0,2.19,1.65,1.5,4.771c-1.41,6.567-8.1,15.897-16.53,23.1c-6.75,5.79-14.85,11.55-19.079,13.65   c-4.198,2.067-5.908,1.737-5.521-1.053c0.21-1.59,0.12-1.68-1.26-1.14c-0.45,0.18-1.771,0.33-2.94,0.3   c-3.93,0-8.58-1.92-16.35-6.778c-6.063-3.812-8.13-4.802-11.643-5.729c-3.27-0.87-4.92-1.62-6.117-2.76   c-2.07-1.92-0.9-3.21,9.96-11.4c2.88-2.16,6.81-5.188,8.697-6.688c5.67-4.473,10.62-7.62,14.28-9.092   c3.063-1.229,3.271-1.381,3.36-2.221c0.12-1.2-1.143-4.95-2.94-8.608c-3.51-7.262-11.64-17.79-18.81-24.329   c-9.33-8.521-47.25-40.62-48-40.62c-0.21,0-0.393,0.3-0.393,0.688c0,0.393-0.21,1.41-0.479,2.28c-0.391,1.35-0.9,2.01-3.09,4.2   c-1.41,1.41-4.17,4.68-6.063,7.229c-4.47,6-6,7.29-9.18,7.683c-1.11,0.147-1.74,0.449-2.641,1.317   c-2.369,2.19-5.04,3.271-9.722,3.9c-5.16,0.72-10.02-0.18-15.09-2.729c-4.05-2.039-4.74-3.061-4.74-6.931   c0.03-3.63,0.48-7.68,1.052-9.24c0.271-0.75,0.568-1.56,0.631-1.829c0.147-0.391-0.183-0.448-2.28-0.448v21.528   c0.197,0.004,0.389,0.008,0.6,0.012c5.433,0.09,5.94,0.147,7.143,0.777c2.01,1.08,3.81,3.183,5.43,6.33   c2.79,5.46,7.08,17.91,10.26,29.67c1.38,5.16,5.551,25.32,7.2,34.771l0.69,3.93l1.08,0.33c1.68,0.51,3,1.65,5.277,4.59   c2.67,3.48,3.78,4.143,6.99,4.143c1.26,0,3.36-0.21,4.68-0.48c3.45-0.66,7.95-0.6,10.263,0.12c3.6,1.14,7.02,4.05,8.67,7.41   c2.487,5.13,0.33,7.74-7.83,9.479c-1.472,0.303-3.063,0.57-3.512,0.57c-1.408,0-0.931,0.69,1.739,2.4c3,1.948,5.761,4.68,6,5.97   c0.24,1.109,0.393,1.109,2.49,0.3c3.84-1.438,9.93-2.55,24.061-4.29c14.579-1.83,21.96-3.479,31.592-7.108   c10.408-3.899,24.479-11.762,32.43-18.119c3.45-2.73,13.56-12.75,18.03-17.853c7.527-8.58,11.067-13.529,14.37-20.1   c6.117-12.24,10.02-25.83,12.21-42.57C740.91,571.59,740.76,550.8,739.68,550.8z M583.32,580.65c-0.75,1.527-1.83,2.277-3.513,2.46   c-1.827,0.21-2.789-0.063-3.39-0.96c-1.35-2.07-0.93-5.07,0.93-6.723c1.17-1.02,2.07-1.14,3.54-0.51   c1.353,0.57,2.223,1.62,2.643,3.21C583.86,579.33,583.83,579.63,583.32,580.65z" style="stroke:black;fill:#BFDAE3"/><path id="180623552" parent_id="180608862" order="41" structure_id="1" d="M543.75,658.35c-0.75-3.72-1.08-8.487-1.35-19.8c-0.15-6.12-0.42-14.607-0.603-18.897   c-0.479-11.46-0.81-35.7-0.51-37.92c0.12-1.053,0.21-1.923,0.15-1.98c-0.081-0.08-0.738-0.189-1.44-0.271V661.5   C544.8,661.5,544.47,661.77,543.75,658.35z" style="stroke:black;fill:#BFDAE3"/><path id="180623552" parent_id="180608862" order="42" structure_id="1" d="M543.93,667.53c-0.608-1.126-2.287-1.813-3.93-1.855V679.8c1.02,0,2.82-2.91,3.75-6.147   C544.35,671.61,544.44,668.49,543.93,667.53z" style="stroke:black;fill:#BFDAE3"/><path id="180623552" parent_id="180608862" order="43" structure_id="1" d="M541.35,595.71   c0.093,4.771,0.303,13.17,0.48,18.69c0.15,5.52,0.27,10.5,0.27,11.01c0,0.66,0.15,0.99,0.42,0.99c0.813,0,1.143-3.69,1.143-12.603   c-0.03-8.7-0.271-13.14-1.143-21.84c-0.39-3.72-0.6-4.86-0.93-4.86C541.23,587.1,541.2,588.48,541.35,595.71z" style="stroke:black;fill:#BFDAE3"/><path id="180623552" parent_id="180608862" order="44" structure_id="1" d="M546,627.9c-2.52,0.63-3.3,3.18-3.3,10.737   c0,5.79,0.06,5.973,1.41,5.013c0.777-0.54,3.777-1.353,5.04-1.353c1.59,0,3.96,0.87,5.397,1.95c0.75,0.57,1.5,1.05,1.65,1.05   c0.45,0,0.357-2.52-0.3-7.647c-0.961-7.44-1.23-8.223-3.422-9.36C551.46,627.75,547.5,627.51,546,627.9z" style="stroke:black;fill:#BFDAE3"/><path id="180623552" parent_id="180608862" order="45" structure_id="1" d="M563.28,655.08   c-1.32,0.24-2.433,0.479-2.49,0.54c-0.12,0.12-0.99,4.979-0.99,5.61c0,0.357,0.603,0.63,2.19,1.02c3.567,0.84,9.779,4.35,14.1,7.98   c0.96,0.81,1.95,1.47,2.19,1.47c0.21,0,0.688-0.54,1.02-1.2c0.87-1.74,2.4-5.73,2.4-6.33c0-0.3-0.48-0.81-1.05-1.17   c-0.603-0.36-1.86-1.71-2.853-3s-2.34-2.79-3-3.39C572.55,654.69,568.47,654.15,563.28,655.08z" style="stroke:black;fill:#BFDAE3"/><path id="180623552" parent_id="180608862" order="46" structure_id="1" d="M554.4,652.05c-1.74,1.86-4.893,2.58-7.83,1.8   c-1.053-0.3-2.25-0.6-2.643-0.688l-0.72-0.15l0.21,2.223c0.21,2.52,0.87,5.607,1.26,5.97c0.15,0.147,3.54,0.3,7.53,0.357   l7.29,0.093l0.271-1.5c0.181-0.843,0.391-2.133,0.511-2.94l0.18-1.41h-1.11c-1.5,0-3-1.47-3.3-3.24   C555.81,651.12,555.39,651,554.4,652.05z" style="stroke:black;fill:#BFDAE3"/><path id="180623552" parent_id="180608862" order="47" structure_id="1" d="M702.9,502.62c0,0.21,0.479,1.438,1.05,2.67   c1.59,3.51,3.93,10.26,5.7,16.41c3.72,13.08,6.027,26.31,6.75,38.97c1.29,23.13,0.147,38.28-3.48,45.84   c-0.57,1.17-1.02,2.223-1.02,2.28c0,0.3,4.14,0.9,6.147,0.9c3.33,0,5.07-1.171,7.62-5.16c1.89-2.94,2.73-4.92,3.66-8.61   c1.83-7.229,2.76-17.04,2.76-28.77c0-17.61-1.83-26.49-8.01-38.853c-3.48-6.988-7.021-12.06-12.93-18.567   c-3.33-3.723-7.353-7.53-7.922-7.53C703.05,502.2,702.9,502.38,702.9,502.62z" style="stroke:black;fill:#BFDAE3"/><path id="180623552" parent_id="180608862" order="48" structure_id="1" d="M676.5,622.11   c-5.46,0.567-17.67,4.68-22.83,7.71c-2.43,1.438-7.83,5.37-12.57,9.147c-1.56,1.263-3.869,3.03-5.1,3.933   c-3.42,2.487-9.03,6.987-10.11,8.13c-1.29,1.38-1.5,2.34-0.688,3.357c0.897,1.143,2.37,1.83,5.88,2.73   c3.66,0.96,5.938,2.069,11.52,5.58c11.94,7.53,17.82,8.88,22.803,5.22c2.01-1.47,11.697-10.53,11.697-10.92   c0-0.15-0.39-0.66-0.867-1.14c-2.37-2.343-1.74-6.15,1.947-11.671c1.92-2.882,5.643-6.932,8.4-9.119   c5.4-4.29,12.33-5.82,13.41-2.94c0.51,1.29,1.05,1.08,1.857-0.72c1.263-2.7,0.961-4.893-0.987-6.9c-1.353-1.41-2.94-1.89-7.41-2.31   C690.39,621.93,678.93,621.84,676.5,622.11z" style="stroke:black;fill:#BFDAE3"/><path id="180623552" parent_id="180608862" order="49" structure_id="1" d="M739.68,550.8c-0.3,0-0.42,1.8-0.567,7.71c-0.33,15.36-3.15,33.99-6.87,45.393   c-1.59,4.979-4.17,8.79-6.69,9.93c-2.397,1.11-6.75,0.51-7.2-0.96c-0.117-0.33-0.117-1.11,0-1.74l0.183-1.14l-1.92-0.183   c-3.9-0.357-11.313-2.607-15.36-4.647c-6.45-3.24-11.28-8.34-13.62-14.432c-0.51-1.288-2.13-7.261-3.6-13.261   c-4.44-18-7.53-26.43-12.511-34.107c-2.012-3.093-5.939-7.2-8.489-8.882c-2.58-1.711-6.36-3.568-8.431-4.171   c-7.172-2.067-19.29-2.22-34.5-0.447c-3.869,0.447-7.262,0.657-11.25,0.657c-5.222-0.027-6.812-0.147-14.159-1.229   c-2.16-0.3-1.563,0.54,1.197,1.68c3.813,1.563,7.921,3.933,9.12,5.223c1.021,1.14,1.051,1.26,0.933,3.18   c-0.063,1.229-0.36,2.49-0.78,3.359c-0.36,0.75-0.66,1.5-0.66,1.648c0,0.15,0.9,0.75,2.04,1.29c9.45,4.65,34.979,21.21,51.36,33.3   c3.51,2.58,30.96,24.183,35.85,28.2c1.5,1.2,3.48,2.97,4.41,3.87l1.74,1.68l2.907,0.03c2.553,0,3.183,0.12,4.65,0.81   c2.94,1.381,4.32,4.053,4.08,8.013c-0.12,2.34-0.63,3.27-2.37,4.5c-0.93,0.63-1.229,0.688-3.75,0.51l-2.729-0.15v1.92   c0,1.83,0.027,1.95,0.688,1.95c1.68,0,2.19,1.65,1.5,4.771c-1.41,6.567-8.1,15.897-16.53,23.1c-6.75,5.79-14.85,11.55-19.079,13.65   c-4.198,2.067-5.908,1.737-5.521-1.053c0.21-1.59,0.12-1.68-1.26-1.14c-0.45,0.18-1.771,0.33-2.94,0.3   c-3.93,0-8.58-1.92-16.35-6.778c-6.063-3.812-8.13-4.802-11.643-5.729c-3.27-0.87-4.92-1.62-6.117-2.76   c-2.07-1.92-0.9-3.21,9.96-11.4c2.88-2.16,6.81-5.188,8.697-6.688c5.67-4.473,10.62-7.62,14.28-9.092   c3.063-1.229,3.271-1.381,3.36-2.221c0.12-1.2-1.143-4.95-2.94-8.608c-3.51-7.262-11.64-17.79-18.81-24.329   c-9.33-8.521-47.25-40.62-48-40.62c-0.21,0-0.393,0.3-0.393,0.688c0,0.393-0.21,1.41-0.479,2.28c-0.391,1.35-0.9,2.01-3.09,4.2   c-1.41,1.41-4.17,4.68-6.063,7.229c-4.47,6-6,7.29-9.18,7.683c-1.11,0.147-1.74,0.449-2.641,1.317   c-2.369,2.19-5.04,3.271-9.722,3.9c-5.16,0.72-10.02-0.18-15.09-2.729c-4.05-2.039-4.74-3.061-4.74-6.931   c0.03-3.63,0.48-7.68,1.052-9.24c0.271-0.75,0.568-1.56,0.631-1.829c0.147-0.391-0.183-0.448-2.28-0.448v21.528   c0.197,0.004,0.389,0.008,0.6,0.012c5.433,0.09,5.94,0.147,7.143,0.777c2.01,1.08,3.81,3.183,5.43,6.33   c2.79,5.46,7.08,17.91,10.26,29.67c1.38,5.16,5.551,25.32,7.2,34.771l0.69,3.93l1.08,0.33c1.68,0.51,3,1.65,5.277,4.59   c2.67,3.48,3.78,4.143,6.99,4.143c1.26,0,3.36-0.21,4.68-0.48c3.45-0.66,7.95-0.6,10.263,0.12c3.6,1.14,7.02,4.05,8.67,7.41   c2.487,5.13,0.33,7.74-7.83,9.479c-1.472,0.303-3.063,0.57-3.512,0.57c-1.408,0-0.931,0.69,1.739,2.4c3,1.948,5.761,4.68,6,5.97   c0.24,1.109,0.393,1.109,2.49,0.3c3.84-1.438,9.93-2.55,24.061-4.29c14.579-1.83,21.96-3.479,31.592-7.108   c10.408-3.899,24.479-11.762,32.43-18.119c3.45-2.73,13.56-12.75,18.03-17.853c7.527-8.58,11.067-13.529,14.37-20.1   c6.117-12.24,10.02-25.83,12.21-42.57C740.91,571.59,740.76,550.8,739.68,550.8z M583.32,580.65c-0.75,1.527-1.83,2.277-3.513,2.46   c-1.827,0.21-2.789-0.063-3.39-0.96c-1.35-2.07-0.93-5.07,0.93-6.723c1.17-1.02,2.07-1.14,3.54-0.51   c1.353,0.57,2.223,1.62,2.643,3.21C583.86,579.33,583.83,579.63,583.32,580.65z" style="stroke:black;fill:#BFDAE3"/><path id="180623552" parent_id="180608862" order="50" structure_id="1" d="M701.28,632.61   c-2.07,3.147-7.59,9-14.643,15.567c-3.51,3.271-8.97,8.46-12.119,11.521c-3.118,3.09-6.688,6.39-7.891,7.35   c-2.37,1.92-2.729,2.49-2.729,4.5c0,1.05,0.118,1.353,0.6,1.5c2.28,0.72,9.93-3.78,19.979-11.76   c11.971-9.51,19.891-20.16,20.431-27.602c0.21-2.488-0.09-3.091-1.44-3.091C702.75,630.6,702.42,630.9,701.28,632.61z" style="stroke:black;fill:#BFDAE3"/><path id="180623552" parent_id="180608862" order="51" structure_id="1" d="M739.68,550.8c-0.3,0-0.42,1.8-0.567,7.71c-0.33,15.36-3.15,33.99-6.87,45.393   c-1.59,4.979-4.17,8.79-6.69,9.93c-2.397,1.11-6.75,0.51-7.2-0.96c-0.117-0.33-0.117-1.11,0-1.74l0.183-1.14l-1.92-0.183   c-3.9-0.357-11.313-2.607-15.36-4.647c-6.45-3.24-11.28-8.34-13.62-14.432c-0.51-1.288-2.13-7.261-3.6-13.261   c-4.44-18-7.53-26.43-12.511-34.107c-2.012-3.093-5.939-7.2-8.489-8.882c-2.58-1.711-6.36-3.568-8.431-4.171   c-7.172-2.067-19.29-2.22-34.5-0.447c-3.869,0.447-7.262,0.657-11.25,0.657c-5.222-0.027-6.812-0.147-14.159-1.229   c-2.16-0.3-1.563,0.54,1.197,1.68c3.813,1.563,7.921,3.933,9.12,5.223c1.021,1.14,1.051,1.26,0.933,3.18   c-0.063,1.229-0.36,2.49-0.78,3.359c-0.36,0.75-0.66,1.5-0.66,1.648c0,0.15,0.9,0.75,2.04,1.29c9.45,4.65,34.979,21.21,51.36,33.3   c3.51,2.58,30.96,24.183,35.85,28.2c1.5,1.2,3.48,2.97,4.41,3.87l1.74,1.68l2.907,0.03c2.553,0,3.183,0.12,4.65,0.81   c2.94,1.381,4.32,4.053,4.08,8.013c-0.12,2.34-0.63,3.27-2.37,4.5c-0.93,0.63-1.229,0.688-3.75,0.51l-2.729-0.15v1.92   c0,1.83,0.027,1.95,0.688,1.95c1.68,0,2.19,1.65,1.5,4.771c-1.41,6.567-8.1,15.897-16.53,23.1c-6.75,5.79-14.85,11.55-19.079,13.65   c-4.198,2.067-5.908,1.737-5.521-1.053c0.21-1.59,0.12-1.68-1.26-1.14c-0.45,0.18-1.771,0.33-2.94,0.3   c-3.93,0-8.58-1.92-16.35-6.778c-6.063-3.812-8.13-4.802-11.643-5.729c-3.27-0.87-4.92-1.62-6.117-2.76   c-2.07-1.92-0.9-3.21,9.96-11.4c2.88-2.16,6.81-5.188,8.697-6.688c5.67-4.473,10.62-7.62,14.28-9.092   c3.063-1.229,3.271-1.381,3.36-2.221c0.12-1.2-1.143-4.95-2.94-8.608c-3.51-7.262-11.64-17.79-18.81-24.329   c-9.33-8.521-47.25-40.62-48-40.62c-0.21,0-0.393,0.3-0.393,0.688c0,0.393-0.21,1.41-0.479,2.28c-0.391,1.35-0.9,2.01-3.09,4.2   c-1.41,1.41-4.17,4.68-6.063,7.229c-4.47,6-6,7.29-9.18,7.683c-1.11,0.147-1.74,0.449-2.641,1.317   c-2.369,2.19-5.04,3.271-9.722,3.9c-5.16,0.72-10.02-0.18-15.09-2.729c-4.05-2.039-4.74-3.061-4.74-6.931   c0.03-3.63,0.48-7.68,1.052-9.24c0.271-0.75,0.568-1.56,0.631-1.829c0.147-0.391-0.183-0.448-2.28-0.448v21.528   c0.197,0.004,0.389,0.008,0.6,0.012c5.433,0.09,5.94,0.147,7.143,0.777c2.01,1.08,3.81,3.183,5.43,6.33   c2.79,5.46,7.08,17.91,10.26,29.67c1.38,5.16,5.551,25.32,7.2,34.771l0.69,3.93l1.08,0.33c1.68,0.51,3,1.65,5.277,4.59   c2.67,3.48,3.78,4.143,6.99,4.143c1.26,0,3.36-0.21,4.68-0.48c3.45-0.66,7.95-0.6,10.263,0.12c3.6,1.14,7.02,4.05,8.67,7.41   c2.487,5.13,0.33,7.74-7.83,9.479c-1.472,0.303-3.063,0.57-3.512,0.57c-1.408,0-0.931,0.69,1.739,2.4c3,1.948,5.761,4.68,6,5.97   c0.24,1.109,0.393,1.109,2.49,0.3c3.84-1.438,9.93-2.55,24.061-4.29c14.579-1.83,21.96-3.479,31.592-7.108   c10.408-3.899,24.479-11.762,32.43-18.119c3.45-2.73,13.56-12.75,18.03-17.853c7.527-8.58,11.067-13.529,14.37-20.1   c6.117-12.24,10.02-25.83,12.21-42.57C740.91,571.59,740.76,550.8,739.68,550.8z M583.32,580.65c-0.75,1.527-1.83,2.277-3.513,2.46   c-1.827,0.21-2.789-0.063-3.39-0.96c-1.35-2.07-0.93-5.07,0.93-6.723c1.17-1.02,2.07-1.14,3.54-0.51   c1.353,0.57,2.223,1.62,2.643,3.21C583.86,579.33,583.83,579.63,583.32,580.65z" style="stroke:black;fill:#BFDAE3"/><path id="180623552" parent_id="180608862" order="52" structure_id="1" d="M681.75,480.78   c-8.58,1.527-16.17,5.22-21.48,10.47c-1.8,1.8-2.01,2.13-2.188,3.51c-0.24,1.74-0.03,2.04,1.59,2.04c1.23,0,5.7-1.47,8.07-2.67   c3.24-1.647,4.89-1.979,9.66-1.979c6.357,0.027,11.607,1.29,17.79,4.35c4.35,2.16,7.317,4.44,12.51,9.6   c9.39,9.36,15.21,18.063,19.68,29.37c3.603,9.24,4.92,17.67,4.92,31.802c0,12.538-1.53,25.681-3.688,31.648   c-1.802,4.92-5.7,9.99-8.19,10.65c-1.47,0.39-1.89,0.81-2.13,2.22c-0.12,0.84-0.03,1.11,0.63,1.65c1.08,0.84,3.63,1.14,5.641,0.657   c1.979-0.479,4.262-2.64,5.609-5.367c3.48-6.843,7.17-25.08,8.43-41.58c0.603-7.83,0.36-21.33-0.479-26.553   c-0.72-4.438-3.48-12.72-5.82-17.43c-1.529-3.03-6.479-11.16-9.21-15.06c-6.357-9.063-18.147-20.4-26.1-25.08   c-3.603-2.13-5.7-2.73-9.54-2.7C685.65,480.33,683.07,480.54,681.75,480.78z" style="stroke:black;fill:#BFDAE3"/><path id="180623552" parent_id="180608862" order="53" structure_id="1" d="M701.16,612.9c-2.82,0.42-3.99,2.22-4.2,6.51   l-0.12,2.76l1.68,0.75c0.9,0.42,2.19,1.29,2.82,1.92c0.93,0.96,1.53,1.29,2.94,1.563c2.04,0.42,4.17,0.21,5.22-0.54   c0.42-0.302,1.05-1.143,1.439-1.893c0.601-1.107,0.688-1.647,0.568-3.479c-0.24-4.11-2.49-6.99-5.88-7.44   c-0.75-0.12-1.71-0.24-2.13-0.27C703.08,612.72,702.03,612.78,701.16,612.9z" style="stroke:black;fill:#BFDAE3"/><path id="180623552" parent_id="180608862" order="54" structure_id="1" d="M739.68,550.8c-0.3,0-0.42,1.8-0.567,7.71c-0.33,15.36-3.15,33.99-6.87,45.393   c-1.59,4.979-4.17,8.79-6.69,9.93c-2.397,1.11-6.75,0.51-7.2-0.96c-0.117-0.33-0.117-1.11,0-1.74l0.183-1.14l-1.92-0.183   c-3.9-0.357-11.313-2.607-15.36-4.647c-6.45-3.24-11.28-8.34-13.62-14.432c-0.51-1.288-2.13-7.261-3.6-13.261   c-4.44-18-7.53-26.43-12.511-34.107c-2.012-3.093-5.939-7.2-8.489-8.882c-2.58-1.711-6.36-3.568-8.431-4.171   c-7.172-2.067-19.29-2.22-34.5-0.447c-3.869,0.447-7.262,0.657-11.25,0.657c-5.222-0.027-6.812-0.147-14.159-1.229   c-2.16-0.3-1.563,0.54,1.197,1.68c3.813,1.563,7.921,3.933,9.12,5.223c1.021,1.14,1.051,1.26,0.933,3.18   c-0.063,1.229-0.36,2.49-0.78,3.359c-0.36,0.75-0.66,1.5-0.66,1.648c0,0.15,0.9,0.75,2.04,1.29c9.45,4.65,34.979,21.21,51.36,33.3   c3.51,2.58,30.96,24.183,35.85,28.2c1.5,1.2,3.48,2.97,4.41,3.87l1.74,1.68l2.907,0.03c2.553,0,3.183,0.12,4.65,0.81   c2.94,1.381,4.32,4.053,4.08,8.013c-0.12,2.34-0.63,3.27-2.37,4.5c-0.93,0.63-1.229,0.688-3.75,0.51l-2.729-0.15v1.92   c0,1.83,0.027,1.95,0.688,1.95c1.68,0,2.19,1.65,1.5,4.771c-1.41,6.567-8.1,15.897-16.53,23.1c-6.75,5.79-14.85,11.55-19.079,13.65   c-4.198,2.067-5.908,1.737-5.521-1.053c0.21-1.59,0.12-1.68-1.26-1.14c-0.45,0.18-1.771,0.33-2.94,0.3   c-3.93,0-8.58-1.92-16.35-6.778c-6.063-3.812-8.13-4.802-11.643-5.729c-3.27-0.87-4.92-1.62-6.117-2.76   c-2.07-1.92-0.9-3.21,9.96-11.4c2.88-2.16,6.81-5.188,8.697-6.688c5.67-4.473,10.62-7.62,14.28-9.092   c3.063-1.229,3.271-1.381,3.36-2.221c0.12-1.2-1.143-4.95-2.94-8.608c-3.51-7.262-11.64-17.79-18.81-24.329   c-9.33-8.521-47.25-40.62-48-40.62c-0.21,0-0.393,0.3-0.393,0.688c0,0.393-0.21,1.41-0.479,2.28c-0.391,1.35-0.9,2.01-3.09,4.2   c-1.41,1.41-4.17,4.68-6.063,7.229c-4.47,6-6,7.29-9.18,7.683c-1.11,0.147-1.74,0.449-2.641,1.317   c-2.369,2.19-5.04,3.271-9.722,3.9c-5.16,0.72-10.02-0.18-15.09-2.729c-4.05-2.039-4.74-3.061-4.74-6.931   c0.03-3.63,0.48-7.68,1.052-9.24c0.271-0.75,0.568-1.56,0.631-1.829c0.147-0.391-0.183-0.448-2.28-0.448v21.528   c0.197,0.004,0.389,0.008,0.6,0.012c5.433,0.09,5.94,0.147,7.143,0.777c2.01,1.08,3.81,3.183,5.43,6.33   c2.79,5.46,7.08,17.91,10.26,29.67c1.38,5.16,5.551,25.32,7.2,34.771l0.69,3.93l1.08,0.33c1.68,0.51,3,1.65,5.277,4.59   c2.67,3.48,3.78,4.143,6.99,4.143c1.26,0,3.36-0.21,4.68-0.48c3.45-0.66,7.95-0.6,10.263,0.12c3.6,1.14,7.02,4.05,8.67,7.41   c2.487,5.13,0.33,7.74-7.83,9.479c-1.472,0.303-3.063,0.57-3.512,0.57c-1.408,0-0.931,0.69,1.739,2.4c3,1.948,5.761,4.68,6,5.97   c0.24,1.109,0.393,1.109,2.49,0.3c3.84-1.438,9.93-2.55,24.061-4.29c14.579-1.83,21.96-3.479,31.592-7.108   c10.408-3.899,24.479-11.762,32.43-18.119c3.45-2.73,13.56-12.75,18.03-17.853c7.527-8.58,11.067-13.529,14.37-20.1   c6.117-12.24,10.02-25.83,12.21-42.57C740.91,571.59,740.76,550.8,739.68,550.8z M583.32,580.65c-0.75,1.527-1.83,2.277-3.513,2.46   c-1.827,0.21-2.789-0.063-3.39-0.96c-1.35-2.07-0.93-5.07,0.93-6.723c1.17-1.02,2.07-1.14,3.54-0.51   c1.353,0.57,2.223,1.62,2.643,3.21C583.86,579.33,583.83,579.63,583.32,580.65z" style="stroke:black;fill:#BFDAE3"/><path id="180623552" parent_id="180608862" order="55" structure_id="1" d="M739.68,550.8c-0.3,0-0.42,1.8-0.567,7.71c-0.33,15.36-3.15,33.99-6.87,45.393   c-1.59,4.979-4.17,8.79-6.69,9.93c-2.397,1.11-6.75,0.51-7.2-0.96c-0.117-0.33-0.117-1.11,0-1.74l0.183-1.14l-1.92-0.183   c-3.9-0.357-11.313-2.607-15.36-4.647c-6.45-3.24-11.28-8.34-13.62-14.432c-0.51-1.288-2.13-7.261-3.6-13.261   c-4.44-18-7.53-26.43-12.511-34.107c-2.012-3.093-5.939-7.2-8.489-8.882c-2.58-1.711-6.36-3.568-8.431-4.171   c-7.172-2.067-19.29-2.22-34.5-0.447c-3.869,0.447-7.262,0.657-11.25,0.657c-5.222-0.027-6.812-0.147-14.159-1.229   c-2.16-0.3-1.563,0.54,1.197,1.68c3.813,1.563,7.921,3.933,9.12,5.223c1.021,1.14,1.051,1.26,0.933,3.18   c-0.063,1.229-0.36,2.49-0.78,3.359c-0.36,0.75-0.66,1.5-0.66,1.648c0,0.15,0.9,0.75,2.04,1.29c9.45,4.65,34.979,21.21,51.36,33.3   c3.51,2.58,30.96,24.183,35.85,28.2c1.5,1.2,3.48,2.97,4.41,3.87l1.74,1.68l2.907,0.03c2.553,0,3.183,0.12,4.65,0.81   c2.94,1.381,4.32,4.053,4.08,8.013c-0.12,2.34-0.63,3.27-2.37,4.5c-0.93,0.63-1.229,0.688-3.75,0.51l-2.729-0.15v1.92   c0,1.83,0.027,1.95,0.688,1.95c1.68,0,2.19,1.65,1.5,4.771c-1.41,6.567-8.1,15.897-16.53,23.1c-6.75,5.79-14.85,11.55-19.079,13.65   c-4.198,2.067-5.908,1.737-5.521-1.053c0.21-1.59,0.12-1.68-1.26-1.14c-0.45,0.18-1.771,0.33-2.94,0.3   c-3.93,0-8.58-1.92-16.35-6.778c-6.063-3.812-8.13-4.802-11.643-5.729c-3.27-0.87-4.92-1.62-6.117-2.76   c-2.07-1.92-0.9-3.21,9.96-11.4c2.88-2.16,6.81-5.188,8.697-6.688c5.67-4.473,10.62-7.62,14.28-9.092   c3.063-1.229,3.271-1.381,3.36-2.221c0.12-1.2-1.143-4.95-2.94-8.608c-3.51-7.262-11.64-17.79-18.81-24.329   c-9.33-8.521-47.25-40.62-48-40.62c-0.21,0-0.393,0.3-0.393,0.688c0,0.393-0.21,1.41-0.479,2.28c-0.391,1.35-0.9,2.01-3.09,4.2   c-1.41,1.41-4.17,4.68-6.063,7.229c-4.47,6-6,7.29-9.18,7.683c-1.11,0.147-1.74,0.449-2.641,1.317   c-2.369,2.19-5.04,3.271-9.722,3.9c-5.16,0.72-10.02-0.18-15.09-2.729c-4.05-2.039-4.74-3.061-4.74-6.931   c0.03-3.63,0.48-7.68,1.052-9.24c0.271-0.75,0.568-1.56,0.631-1.829c0.147-0.391-0.183-0.448-2.28-0.448v21.528   c0.197,0.004,0.389,0.008,0.6,0.012c5.433,0.09,5.94,0.147,7.143,0.777c2.01,1.08,3.81,3.183,5.43,6.33   c2.79,5.46,7.08,17.91,10.26,29.67c1.38,5.16,5.551,25.32,7.2,34.771l0.69,3.93l1.08,0.33c1.68,0.51,3,1.65,5.277,4.59   c2.67,3.48,3.78,4.143,6.99,4.143c1.26,0,3.36-0.21,4.68-0.48c3.45-0.66,7.95-0.6,10.263,0.12c3.6,1.14,7.02,4.05,8.67,7.41   c2.487,5.13,0.33,7.74-7.83,9.479c-1.472,0.303-3.063,0.57-3.512,0.57c-1.408,0-0.931,0.69,1.739,2.4c3,1.948,5.761,4.68,6,5.97   c0.24,1.109,0.393,1.109,2.49,0.3c3.84-1.438,9.93-2.55,24.061-4.29c14.579-1.83,21.96-3.479,31.592-7.108   c10.408-3.899,24.479-11.762,32.43-18.119c3.45-2.73,13.56-12.75,18.03-17.853c7.527-8.58,11.067-13.529,14.37-20.1   c6.117-12.24,10.02-25.83,12.21-42.57C740.91,571.59,740.76,550.8,739.68,550.8z M583.32,580.65c-0.75,1.527-1.83,2.277-3.513,2.46   c-1.827,0.21-2.789-0.063-3.39-0.96c-1.35-2.07-0.93-5.07,0.93-6.723c1.17-1.02,2.07-1.14,3.54-0.51   c1.353,0.57,2.223,1.62,2.643,3.21C583.86,579.33,583.83,579.63,583.32,580.65z" style="stroke:black;fill:#BFDAE3"/><path id="180623552" parent_id="180608862" order="56" structure_id="1" d="M739.68,550.8c-0.3,0-0.42,1.8-0.567,7.71c-0.33,15.36-3.15,33.99-6.87,45.393   c-1.59,4.979-4.17,8.79-6.69,9.93c-2.397,1.11-6.75,0.51-7.2-0.96c-0.117-0.33-0.117-1.11,0-1.74l0.183-1.14l-1.92-0.183   c-3.9-0.357-11.313-2.607-15.36-4.647c-6.45-3.24-11.28-8.34-13.62-14.432c-0.51-1.288-2.13-7.261-3.6-13.261   c-4.44-18-7.53-26.43-12.511-34.107c-2.012-3.093-5.939-7.2-8.489-8.882c-2.58-1.711-6.36-3.568-8.431-4.171   c-7.172-2.067-19.29-2.22-34.5-0.447c-3.869,0.447-7.262,0.657-11.25,0.657c-5.222-0.027-6.812-0.147-14.159-1.229   c-2.16-0.3-1.563,0.54,1.197,1.68c3.813,1.563,7.921,3.933,9.12,5.223c1.021,1.14,1.051,1.26,0.933,3.18   c-0.063,1.229-0.36,2.49-0.78,3.359c-0.36,0.75-0.66,1.5-0.66,1.648c0,0.15,0.9,0.75,2.04,1.29c9.45,4.65,34.979,21.21,51.36,33.3   c3.51,2.58,30.96,24.183,35.85,28.2c1.5,1.2,3.48,2.97,4.41,3.87l1.74,1.68l2.907,0.03c2.553,0,3.183,0.12,4.65,0.81   c2.94,1.381,4.32,4.053,4.08,8.013c-0.12,2.34-0.63,3.27-2.37,4.5c-0.93,0.63-1.229,0.688-3.75,0.51l-2.729-0.15v1.92   c0,1.83,0.027,1.95,0.688,1.95c1.68,0,2.19,1.65,1.5,4.771c-1.41,6.567-8.1,15.897-16.53,23.1c-6.75,5.79-14.85,11.55-19.079,13.65   c-4.198,2.067-5.908,1.737-5.521-1.053c0.21-1.59,0.12-1.68-1.26-1.14c-0.45,0.18-1.771,0.33-2.94,0.3   c-3.93,0-8.58-1.92-16.35-6.778c-6.063-3.812-8.13-4.802-11.643-5.729c-3.27-0.87-4.92-1.62-6.117-2.76   c-2.07-1.92-0.9-3.21,9.96-11.4c2.88-2.16,6.81-5.188,8.697-6.688c5.67-4.473,10.62-7.62,14.28-9.092   c3.063-1.229,3.271-1.381,3.36-2.221c0.12-1.2-1.143-4.95-2.94-8.608c-3.51-7.262-11.64-17.79-18.81-24.329   c-9.33-8.521-47.25-40.62-48-40.62c-0.21,0-0.393,0.3-0.393,0.688c0,0.393-0.21,1.41-0.479,2.28c-0.391,1.35-0.9,2.01-3.09,4.2   c-1.41,1.41-4.17,4.68-6.063,7.229c-4.47,6-6,7.29-9.18,7.683c-1.11,0.147-1.74,0.449-2.641,1.317   c-2.369,2.19-5.04,3.271-9.722,3.9c-5.16,0.72-10.02-0.18-15.09-2.729c-4.05-2.039-4.74-3.061-4.74-6.931   c0.03-3.63,0.48-7.68,1.052-9.24c0.271-0.75,0.568-1.56,0.631-1.829c0.147-0.391-0.183-0.448-2.28-0.448v21.528   c0.197,0.004,0.389,0.008,0.6,0.012c5.433,0.09,5.94,0.147,7.143,0.777c2.01,1.08,3.81,3.183,5.43,6.33   c2.79,5.46,7.08,17.91,10.26,29.67c1.38,5.16,5.551,25.32,7.2,34.771l0.69,3.93l1.08,0.33c1.68,0.51,3,1.65,5.277,4.59   c2.67,3.48,3.78,4.143,6.99,4.143c1.26,0,3.36-0.21,4.68-0.48c3.45-0.66,7.95-0.6,10.263,0.12c3.6,1.14,7.02,4.05,8.67,7.41   c2.487,5.13,0.33,7.74-7.83,9.479c-1.472,0.303-3.063,0.57-3.512,0.57c-1.408,0-0.931,0.69,1.739,2.4c3,1.948,5.761,4.68,6,5.97   c0.24,1.109,0.393,1.109,2.49,0.3c3.84-1.438,9.93-2.55,24.061-4.29c14.579-1.83,21.96-3.479,31.592-7.108   c10.408-3.899,24.479-11.762,32.43-18.119c3.45-2.73,13.56-12.75,18.03-17.853c7.527-8.58,11.067-13.529,14.37-20.1   c6.117-12.24,10.02-25.83,12.21-42.57C740.91,571.59,740.76,550.8,739.68,550.8z M583.32,580.65c-0.75,1.527-1.83,2.277-3.513,2.46   c-1.827,0.21-2.789-0.063-3.39-0.96c-1.35-2.07-0.93-5.07,0.93-6.723c1.17-1.02,2.07-1.14,3.54-0.51   c1.353,0.57,2.223,1.62,2.643,3.21C583.86,579.33,583.83,579.63,583.32,580.65z" style="stroke:black;fill:#BFDAE3"/><path id="180623552" parent_id="180608862" order="57" structure_id="1" d="M542.49,579.6c-0.75,0.303-1.44,2.343-1.2,3.57   c0.09,0.42,0.36,1.86,0.6,3.18c1.86,9.723,2.643,34.74,1.263,39.15c-0.75,2.34-0.933,5.4-0.36,5.4c0.24,0,0.6-0.393,0.81-0.87   c0.183-0.48,0.69-1.2,1.11-1.59c0.66-0.633,0.99-0.69,3.78-0.69c5.25,0,6.357,1.11,7.229,7.2c0.813,5.817,1.143,10.35,0.933,12.39   c-0.12,1.11-0.24,3.063-0.271,4.32c-0.03,2.04,0.063,2.37,0.69,3.06c0.897,0.96,2.37,1.021,5.729,0.3   c1.23-0.27,3.57-0.479,5.19-0.51h2.91v-0.777c0-1.893-5.433-29.223-7.08-35.61c-3.03-11.853-8.25-27.12-11.013-32.34   c-1.229-2.313-3.51-4.771-5.1-5.55C546.24,579.54,543.45,579.18,542.49,579.6z" style="stroke:black;fill:#BFDAE3"/><path id="180623552" parent_id="180608862" order="58" structure_id="1" d="M578.37,672c-9.78-7.38-12.87-9.09-17.7-9.87c-1.15-0.194-10.9-0.291-20.67-0.292v3.685   c1.975-0.008,3.945,1.079,4.35,3.27l0.183,0.96l6.06,0.03c6.12,0.06,11.88,0.45,14.91,1.05c0.9,0.18,4.59,1.2,8.16,2.25   c3.6,1.05,6.81,1.92,7.14,1.92C581.94,675,581.34,674.25,578.37,672z" style="stroke:black;fill:#BFDAE3"/><path id="180623552" parent_id="180608862" order="59" structure_id="1" d="M544.71,670.11   c-0.09,0.147-0.24,0.84-0.36,1.59c-0.357,2.34-1.89,5.85-3.147,7.29l-1.2,1.35v3.42c0,2.67,0.12,3.66,0.57,4.59   c1.62,3.513,6.027,5.343,19.08,7.92c8.13,1.62,11.607,1.95,18.72,1.74c10.68-0.3,18.54-2.25,24.18-5.938   c1.563-1.053,2.25-1.683,2.25-2.103c0-2.489-5.22-6.6-13.647-10.77c-3.631-1.8-5.521-2.46-13.92-4.98   c-10.771-3.21-12.33-3.54-18.69-3.989C553.5,669.84,544.89,669.78,544.71,670.11z" style="stroke:black;fill:#BFDAE3"/><path id="180623552" parent_id="180608862" order="60" structure_id="1" d="M660.96,468.03   c-8.13,0.72-16.89,3.12-29.1,7.95c-9.87,3.897-15.63,6.81-22.2,11.13c-3.18,2.1-10.26,5.79-11.07,5.79   c-0.72,0-0.39,0.777,1.11,2.55c1.92,2.25,3.78,3.75,4.68,3.75c0.39,0,1.95-0.393,3.48-0.9c5.85-1.857,6.06-1.89,15.33-1.979   c5.85-0.063,8.76-0.183,9.06-0.42c0.9-0.75,1.41-2.58,1.8-6.633c0.24-2.31,0.603-4.737,0.78-5.397c0.72-2.4,2.49-3.3,4.17-2.16   c0.42,0.271,1.62,1.32,2.7,2.34c1.77,1.65,2.25,1.92,4.95,2.82c3.93,1.29,8.85,3.66,10.317,4.979c0.63,0.57,1.2,1.053,1.263,1.053   c0.06,0,1.05-0.9,2.22-1.98c2.43-2.31,5.91-4.68,9.239-6.3c1.261-0.63,2.311-1.29,2.311-1.47c0-0.183-0.75-0.66-1.65-1.021   c-0.93-0.39-2.369-1.35-3.237-2.13c-4.08-3.72-4.17-8.79-0.183-10.8c0.63-0.33,1.17-0.813,1.17-1.05   C668.1,467.64,665.79,467.61,660.96,468.03z" style="stroke:black;fill:#BFDAE3"/><path id="180623552" parent_id="180608862" order="61" structure_id="1" d="M642.54,411.81l-2.46-7.197l-3,0.21c-4.08,0.27-17.73,1.8-25.83,2.91c-11.01,1.5-16.74,1.5-25.5-0.093   c-4.771-0.87-11.37-0.96-25.5-0.42c-6.75,0.271-15.87,0.48-20.25,0.48v5.897c3.782,0.002,7.576,0.233,11.25,0.7   c6,0.72,16.77,1.143,30.3,1.17c8.76,0.03,13.893-0.33,33.36-2.277c7.41-0.75,8.46-0.78,11.397-0.45   c6.093,0.688,11.7,2.58,15.78,5.37c2.4,1.62,2.91,1.857,2.91,1.229C645,419.16,643.89,415.77,642.54,411.81z" style="stroke:black;fill:#BFDAE3"/><path id="180623552" parent_id="180608862" order="62" structure_id="1" d="M638.52,399.3l-1.47-4.83l-1.5-0.42c-9.42-2.67-18.42-4.86-24-5.85c-1.979-0.36-7.5-1.38-12.3-2.28   c-21.36-4.05-23.7-4.23-40.05-3.12c-8.413,0.557-13.842,0.827-19.2,0.823v23.986c3.743-0.015,7.699-0.142,14.7-0.392   c21.21-0.75,25.107-0.72,30.897,0.271c9.393,1.59,14.433,1.62,25.803,0.09c10.107-1.38,20.25-2.521,26.64-2.97   c0.87-0.063,1.65-0.21,1.771-0.303C639.9,404.19,639.33,401.94,638.52,399.3z" style="stroke:black;fill:#BFDAE3"/><path id="180623552" parent_id="180608862" order="63" structure_id="1" d="M739.68,550.8c-0.3,0-0.42,1.8-0.567,7.71c-0.33,15.36-3.15,33.99-6.87,45.393   c-1.59,4.979-4.17,8.79-6.69,9.93c-2.397,1.11-6.75,0.51-7.2-0.96c-0.117-0.33-0.117-1.11,0-1.74l0.183-1.14l-1.92-0.183   c-3.9-0.357-11.313-2.607-15.36-4.647c-6.45-3.24-11.28-8.34-13.62-14.432c-0.51-1.288-2.13-7.261-3.6-13.261   c-4.44-18-7.53-26.43-12.511-34.107c-2.012-3.093-5.939-7.2-8.489-8.882c-2.58-1.711-6.36-3.568-8.431-4.171   c-7.172-2.067-19.29-2.22-34.5-0.447c-3.869,0.447-7.262,0.657-11.25,0.657c-5.222-0.027-6.812-0.147-14.159-1.229   c-2.16-0.3-1.563,0.54,1.197,1.68c3.813,1.563,7.921,3.933,9.12,5.223c1.021,1.14,1.051,1.26,0.933,3.18   c-0.063,1.229-0.36,2.49-0.78,3.359c-0.36,0.75-0.66,1.5-0.66,1.648c0,0.15,0.9,0.75,2.04,1.29c9.45,4.65,34.979,21.21,51.36,33.3   c3.51,2.58,30.96,24.183,35.85,28.2c1.5,1.2,3.48,2.97,4.41,3.87l1.74,1.68l2.907,0.03c2.553,0,3.183,0.12,4.65,0.81   c2.94,1.381,4.32,4.053,4.08,8.013c-0.12,2.34-0.63,3.27-2.37,4.5c-0.93,0.63-1.229,0.688-3.75,0.51l-2.729-0.15v1.92   c0,1.83,0.027,1.95,0.688,1.95c1.68,0,2.19,1.65,1.5,4.771c-1.41,6.567-8.1,15.897-16.53,23.1c-6.75,5.79-14.85,11.55-19.079,13.65   c-4.198,2.067-5.908,1.737-5.521-1.053c0.21-1.59,0.12-1.68-1.26-1.14c-0.45,0.18-1.771,0.33-2.94,0.3   c-3.93,0-8.58-1.92-16.35-6.778c-6.063-3.812-8.13-4.802-11.643-5.729c-3.27-0.87-4.92-1.62-6.117-2.76   c-2.07-1.92-0.9-3.21,9.96-11.4c2.88-2.16,6.81-5.188,8.697-6.688c5.67-4.473,10.62-7.62,14.28-9.092   c3.063-1.229,3.271-1.381,3.36-2.221c0.12-1.2-1.143-4.95-2.94-8.608c-3.51-7.262-11.64-17.79-18.81-24.329   c-9.33-8.521-47.25-40.62-48-40.62c-0.21,0-0.393,0.3-0.393,0.688c0,0.393-0.21,1.41-0.479,2.28c-0.391,1.35-0.9,2.01-3.09,4.2   c-1.41,1.41-4.17,4.68-6.063,7.229c-4.47,6-6,7.29-9.18,7.683c-1.11,0.147-1.74,0.449-2.641,1.317   c-2.369,2.19-5.04,3.271-9.722,3.9c-5.16,0.72-10.02-0.18-15.09-2.729c-4.05-2.039-4.74-3.061-4.74-6.931   c0.03-3.63,0.48-7.68,1.052-9.24c0.271-0.75,0.568-1.56,0.631-1.829c0.147-0.391-0.183-0.448-2.28-0.448v21.528   c0.197,0.004,0.389,0.008,0.6,0.012c5.433,0.09,5.94,0.147,7.143,0.777c2.01,1.08,3.81,3.183,5.43,6.33   c2.79,5.46,7.08,17.91,10.26,29.67c1.38,5.16,5.551,25.32,7.2,34.771l0.69,3.93l1.08,0.33c1.68,0.51,3,1.65,5.277,4.59   c2.67,3.48,3.78,4.143,6.99,4.143c1.26,0,3.36-0.21,4.68-0.48c3.45-0.66,7.95-0.6,10.263,0.12c3.6,1.14,7.02,4.05,8.67,7.41   c2.487,5.13,0.33,7.74-7.83,9.479c-1.472,0.303-3.063,0.57-3.512,0.57c-1.408,0-0.931,0.69,1.739,2.4c3,1.948,5.761,4.68,6,5.97   c0.24,1.109,0.393,1.109,2.49,0.3c3.84-1.438,9.93-2.55,24.061-4.29c14.579-1.83,21.96-3.479,31.592-7.108   c10.408-3.899,24.479-11.762,32.43-18.119c3.45-2.73,13.56-12.75,18.03-17.853c7.527-8.58,11.067-13.529,14.37-20.1   c6.117-12.24,10.02-25.83,12.21-42.57C740.91,571.59,740.76,550.8,739.68,550.8z M583.32,580.65c-0.75,1.527-1.83,2.277-3.513,2.46   c-1.827,0.21-2.789-0.063-3.39-0.96c-1.35-2.07-0.93-5.07,0.93-6.723c1.17-1.02,2.07-1.14,3.54-0.51   c1.353,0.57,2.223,1.62,2.643,3.21C583.86,579.33,583.83,579.63,583.32,580.65z" style="stroke:black;fill:#BFDAE3"/><path id="180623552" parent_id="180608862" order="64" structure_id="1" d="M694.38,421.41c-0.87-1.68-3-5.76-4.74-9.063c-1.737-3.3-4.8-9.18-6.84-13.05   c-7.107-13.59-14.607-26.67-19.979-34.86c-11.19-17.04-26.4-28.65-46.44-35.52c-18.496-6.334-50.275-10.712-76.38-10.765v34.188   c4.845-0.001,9.695-0.398,16.8-1.193c9.21-1.05,11.19-1.17,18-1.17c8.103-0.03,10.021,0.15,18.45,1.8   c21.3,4.14,38.07,11.34,43.979,18.9c2.551,3.27,5.641,8.88,13.471,24.42c8.7,17.31,11.01,21.51,15.45,28.2   c6.42,9.63,13.35,16.41,20.067,19.65c5.4,2.58,10.95,2.58,12.66,0.028C701.01,439.68,699.15,430.74,694.38,421.41z" style="stroke:black;fill:#BFDAE3"/><path id="180623552" parent_id="180608862" order="65" structure_id="1" d="M712.05,445.32c-1.59-9.12-9.06-27.66-16.74-41.61c-1.56-2.85-5.85-10.77-9.51-17.61s-8.04-14.94-9.75-18   c-1.68-3.06-4.229-7.86-5.64-10.65c-7.021-13.89-11.88-21.12-19.11-28.38c-10.5-10.53-22.319-16.65-40.2-20.79   c-11.31-2.61-23.1-3.99-45-5.31c-3.021-0.174-15.39-0.347-26.1-0.422v15.291c6.92,0.089,15.335,0.333,18.9,0.611   c15.93,1.2,29.938,3.18,42.81,6c26.91,5.94,46.05,17.91,59.67,37.35c6.9,9.84,19.65,32.64,33.271,59.55   c4.317,8.521,6.3,16.172,5.25,20.013c-0.33,1.197-1.5,2.76-2.433,3.237c-1.17,0.633-3.51,0.87-5.397,0.57   c-8.79-1.41-18.813-10.05-27.603-23.82c-3.81-5.938-7.08-12.027-13.92-25.8c-12.39-24.96-13.92-27.03-23.55-32.4   c-9.3-5.13-24.42-9.69-40.5-12.18c-3.6-0.57-5.55-0.69-11.25-0.69c-6.78,0.03-9.75,0.24-23.25,1.83   c-3.055,0.346-7.521,0.519-12,0.517v13.422c4.25-0.004,8.554-0.169,13.95-0.499c12.42-0.78,26.97-0.78,31.647-0.06   c18.33,2.91,33.54,7.47,41.313,12.45c2.938,1.92,6.18,5.25,7.53,7.77c0.567,1.08,1.407,3.57,2.01,5.91   c1.229,4.89,5.22,17.58,7.74,24.6c2.067,5.79,3.688,9.092,6.987,14.313c2.19,3.45,6.841,10.14,7.29,10.47   c0.12,0.09,0.87,1.021,1.683,2.102c2.277,3,8.64,9.391,12.147,12.21c5.46,4.408,10.74,7.351,16.05,8.971   c2.49,0.779,3.093,0.84,7.803,0.84c4.02,0,5.52-0.09,7.02-0.54c4.86-1.35,7.65-3.84,8.851-7.95   C712.65,454.5,712.65,448.86,712.05,445.32z" style="stroke:black;fill:#BFDAE3"/><path id="180623552" parent_id="180608862" order="66" structure_id="1" d="M572.22,529.44c-1.647,0.777-2.52,2.277-2.91,4.947   c-0.479,3.45-0.42,3.57,3,4.71c1.62,0.513,3.303,1.11,3.75,1.29c1.053,0.42,2.223-0.12,4.23-1.89c1.8-1.59,2.31-2.58,2.31-4.41   c0-1.8-0.96-3.6-2.397-4.41C578.67,528.78,573.93,528.66,572.22,529.44z" style="stroke:black;fill:#BFDAE3"/><path id="180623552" parent_id="180608862" order="67" structure_id="1" d="M557.01,524.76   c-0.42,0.723-1.229,1.771-1.83,2.313l-1.08,1.05v4.438V537h1.353c1.47,0,11.16,0.81,12.688,1.08l0.96,0.15v-2.19   c0.03-1.229,0.24-2.729,0.48-3.39c0.87-2.223,0.9-2.19-2.97-3.813c-2.973-1.26-3.87-1.83-5.61-3.42c-1.17-1.05-2.37-1.92-2.67-1.92   C557.97,523.5,557.46,523.98,557.01,524.76z" style="stroke:black;fill:#BFDAE3"/><path id="180623552" parent_id="180608862" order="68" structure_id="1" d="M551.91,529.98c-3.512,2.39-7.03,3.381-11.91,3.412v7.334c1.373-0.013,2.802,0.221,3.63,0.651   c1.2,0.603,1.353,0.54,2.103-0.66c0.96-1.56,2.97-2.729,5.729-3.33l2.34-0.479v-3.87C553.8,528.75,553.77,528.69,551.91,529.98z" style="stroke:black;fill:#BFDAE3"/><path id="180623552" parent_id="180608862" order="69" structure_id="1" d="M552.63,537.33   c-2.79,0.36-4.74,1.14-6.06,2.46c-1.5,1.5-1.65,2.1-0.9,3.33c0.811,1.26,0.99,1.29,10.53,1.53c4.05,0.119,9.72,0.39,12.6,0.6   c2.88,0.24,7.44,0.51,10.11,0.63c4.53,0.182,4.89,0.182,5.07-0.33c0.3-0.78-0.87-1.647-4.83-3.567   c-3.69-1.803-7.053-3.093-9.303-3.513c-1.26-0.237-15.18-1.56-15.27-1.438C554.55,537.06,553.68,537.18,552.63,537.33z" style="stroke:black;fill:#BFDAE3"/><path id="180623552" parent_id="180608862" order="70" structure_id="1" d="M558.78,521.19   c-0.57,1.5-0.63,2.31-0.15,2.31c0.18,0,1.14,0.75,2.13,1.65c1.83,1.68,3.63,2.76,7.11,4.17c2.34,0.96,2.49,0.96,4.2,0.09   c1.107-0.54,1.857-0.66,3.93-0.66c2.91,0.03,4.5,0.66,5.79,2.28c0.72,0.897,0.78,0.93,1.86,0.567   c0.688-0.237,2.13-0.328,3.75-0.237c2.487,0.12,2.817,0.21,5.88,1.77c3.18,1.59,3.3,1.62,6.18,1.71c3.99,0.15,3.9-0.3-0.39-2.34   c-5.49-2.609-10.32-4.438-14.16-5.37c-4.74-1.14-11.76-3.12-19.17-5.397c-3.271-1.021-6.03-1.83-6.183-1.83   C559.41,519.9,559.05,520.47,558.78,521.19z" style="stroke:black;fill:#BFDAE3"/><path id="180623552" parent_id="180608862" order="71" structure_id="1" d="M583.86,531.63l-1.29,0.3l0.21,1.353   c0.147,1.02,0.06,1.68-0.36,2.55c-0.63,1.438-0.87,1.26,3.63,3.18c2.761,1.2,3.66,1.44,5.643,1.53c2.97,0.15,4.17-0.09,5.31-1.021   c0.66-0.568,0.9-1.021,0.9-1.801c0-1.56-1.41-2.908-4.92-4.647c-2.7-1.32-3.271-1.5-5.433-1.62   C586.23,531.39,584.58,531.45,583.86,531.63z" style="stroke:black;fill:#BFDAE3"/><path id="180623552" parent_id="180608862" order="72" structure_id="1" d="M668.67,612   c-2.91,0.75-5.729,2.25-8.189,4.44l-1.108,0.96l1.02,2.64c0.57,1.44,1.2,3.33,1.41,4.17c0.21,0.87,0.42,1.59,0.48,1.59   c0.09,0,1.92-0.6,4.107-1.35c4.563-1.53,9.271-2.55,11.82-2.55c0.96,0,2.85-0.092,4.2-0.21l2.49-0.183l-0.183-1.229   c-0.33-2.19-1.317-4.021-3-5.55c-2.34-2.16-4.26-2.79-8.52-2.91C671.31,611.76,669.27,611.85,668.67,612z" style="stroke:black;fill:#BFDAE3"/><path id="180623552" parent_id="180608862" order="73" structure_id="1" d="M641.79,585.75   c-1.89,0.81-2.79,3.72-1.8,5.91c0.21,0.45,1.92,2.397,3.81,4.35c2.7,2.79,3.9,3.78,5.58,4.65c6.9,3.63,12.75,1.979,12.33-3.45   c-0.21-2.25-1.229-3.99-3.93-6.66c-2.34-2.31-5.28-4.05-8.16-4.8C647.43,585.18,643.08,585.18,641.79,585.75z" style="stroke:black;fill:#BFDAE3"/><path id="180623552" parent_id="180608862" order="74" structure_id="1" d="M543.93,667.53c-0.608-1.126-2.287-1.813-3.93-1.855V679.8c1.02,0,2.82-2.91,3.75-6.147   C544.35,671.61,544.44,668.49,543.93,667.53z" style="stroke:black;fill:#BFDAE3"/><path id="180623552" parent_id="180608862" order="75" structure_id="1" d="M562.95,697.83   c-0.99,0.57-1.353,1.229-1.353,2.4c0,1.47,1.08,2.367,2.853,2.367c2.34,0,3.75-0.96,3.75-2.55c0-0.84-0.69-1.92-1.32-2.067   C565.17,697.59,563.49,697.53,562.95,697.83z" style="stroke:black;fill:#BFDAE3"/><path id="180623552" parent_id="180608862" order="76" structure_id="1" d="M578.37,672c-9.78-7.38-12.87-9.09-17.7-9.87c-1.15-0.194-10.9-0.291-20.67-0.292v3.685   c1.975-0.008,3.945,1.079,4.35,3.27l0.183,0.96l6.06,0.03c6.12,0.06,11.88,0.45,14.91,1.05c0.9,0.18,4.59,1.2,8.16,2.25   c3.6,1.05,6.81,1.92,7.14,1.92C581.94,675,581.34,674.25,578.37,672z" style="stroke:black;fill:#BFDAE3"/></g></g></svg>
